<svg enable-background="new 0 0 400 400" viewBox="0 0 400 400" xmlns="http://www.w3.org/2000/svg"><path d="m21.76 294.56c10.11-8.87 21.43-14.2 34.56-15.55 1.09-.11 2.4-.09 3.22-.67 6.63-4.7 14.51-4.93 22.06-6.15 11.15-1.8 22.32-3.53 33.54-4.79 4.44-.5 6.4-2.67 7.03-6.57 1.02-6.29 1.97-12.59 2.77-18.91 1.67-13.31 3.54-26.61 4.73-39.97 1.39-15.65.64-31.29-1.8-46.85-.47-3.01-2-3.96-4.67-3.93-1 .01-2.12-.1-2.98.3-6.12 2.84-12.84 4.38-17.97 9.37-5.12 4.98-10.75 9.44-16.32 14.26-.91-.78-1.73-1.47-2.58-2.2-1.23 1.43-2.35 2.97-3.72 4.25-2.45 2.29-7.21 2.58-9.73.78-1.55-1.1-2.49-8.76-1.17-10.23 9.94-11.09 19.64-22.41 29.97-33.11 5.33-5.52 11.81-9.93 17.78-14.82 9.05-7.42 17.09-15.79 23.85-25.37.83-1.18 1.74-2.31 2.35-3.12 4.1 1.66 8 3.18 11.85 4.81.77.33 1.49.94 2.05 1.59 3.73 4.32 7.49 8.62 11.05 13.08.87 1.1 1.55 2.81 1.44 4.17-2.23 25.81-1.15 51.68-1.6 77.53-.09 5.06-1.95 10.06-2.68 15.14-.24 1.69.47 3.53.81 5.29.41 2.16 1.25 4.31 1.27 6.46.11 14.44.06 28.88.06 43.32v4.48c8.53.96 16.9 2.19 25.31 2.76 7 .48 14.07.43 21.09.15 5.73-.23 8.15-2.67 8.78-8.47.37-3.41.44-6.98-.18-10.33-1.94-10.31-.84-20.48.52-30.7 1.36-10.2 2.97-20.41 3.51-30.66.39-7.43-.68-14.95-1.32-22.41-.89-10.36-2.41-20.7-1.13-31.12.94-7.6-.46-14.9-2.29-22.19-.24-.96-.38-1.94-.59-3.04 2.78-1.53 5.11-2.21 8.09-.17 4.1 2.82 8.92 2.36 13.64 1.71 2.21-.31 4.45-.38 6.68-.53 2.7-.19 3.89 1.35 4.08 3.8.1 1.33.1 2.7-.1 4.01-.74 4.86 1.04 8.6 5.54 10.3 6.23 2.36 12.57 4.94 19.09 5.95 10.72 1.66 20.43 5.33 28.62 12.22 7.48 6.29 16.19 8.62 25.42 10.3 4.12.75 8.18 2.18 12.04 3.84 3.38 1.45 5.44 4.45 6.81 8.12-6.05 3.29-12.53 4.82-19.06 5.07-16.41.64-32.84.77-49.27.91-2.86.02-5.73-.93-8.6-1.37-7.06-1.08-13.99 3.27-15.3 10.21-.71 3.78-.73 7.83-.24 11.65 1.16 8.98 1.53 17.8-1.82 26.45-.38.97-.06 2.62.57 3.51 2.06 2.93 2.56 9.44.67 12.71-4.71 8.12-3.8 16.78-2.28 25.45.13.73 1.22 1.68 2 1.84 2.94.59 6.05 1.59 8.9 1.16 8.24-1.25 16.23-.13 24.29 1.26 19.73 3.4 39.5 6.51 59.2 10.06 5.46.98 10.79 2.87 16.02 4.77 3.66 1.33 6.1 4.07 6.36 8.28.12 1.96-.33 3.02-2.64 3.28-15.78 1.78-31.5 3.69-47.49 2.85-19.99-1.06-40.03-1.29-60.05-1.89-4.25-.13-8.53-.03-12.72-.58-1.69-.22-3.19-1.9-4.7-2.87-.04.43-.14 1.48-.27 2.91-6.21.26-12.44.51-18.68.77-7.15.3-14.32.41-21.45 1-3.98.33-7.86 1.9-11.84 2.15-6.23.38-12.61.88-18.71-.05-9.42-1.43-18.75-.55-28.11-.42-12.41.18-24.85.39-37.22 1.24-10.48.71-20.87 2.59-31.34 3.48-5.51.47-11.21.57-16.65-.3-6.31-1-11.94-.12-17.37 2.93-2.49 1.4-4.7 1.88-7.32-.11-1.72-1.3-4.17-1.58-6.13-2.63-3.89-2.09-5.8-5.77-7.53-9.85z" fill="#010000"/><g fill="#fbfcfa"><path d="m361.2 9.6.8-1c.9.7 1.9 1.4 2.9 2.3l-.9 1.1c-1-1-2-1.8-2.8-2.4zm.5 10.6c.9-2.1 1.6-4.3 2.3-6.7.4.2.8.4 1.3.6-.7 2.1-1.5 4.3-2.2 6.6zm.4-15.2.9-.9c1 .8 2 1.6 2.8 2.4l-1 1c-.9-.9-1.8-1.7-2.7-2.5zm12.5-1.2h1.2v1.4h2.7v1.1h-2.7v2.7h-1.2v-.6h-1.8v1.3h4.9v3.8h-1.2v-.5h-3.7c0 .4-.1.9-.1 1.2h5.1v1h-5.2c0 .5-.1.9-.2 1.2h6v1h-5.2c1.1 1.3 2.9 2 5.5 2.2-.4.4-.7.8-.9 1.3-2.9-.5-4.8-1.6-5.7-3.5h-.1c-.8 1.7-2.7 2.9-5.9 3.6-.2-.4-.6-.8-.9-1.1 2.8-.6 4.6-1.4 5.4-2.5h-4.8v-1h5.3c.1-.3.2-.7.2-1.2h-4.9v-1h5c0-.4 0-.8.1-1.2h-3.5v.5h-1.2v-3.8h4.9v-1.3h-1.8v.5h-1.2v-2.7h-2.7v-1h2.6v-1.4h1.2v1.4h4.7v-1.4zm-6.6 8.3h3.6c0-.4 0-.9 0-1.4h-3.6zm1.9-4.6h4.7v-1.3h-4.7zm6.6 3.2h-3.7v1.4h3.7z"/><path d="m385.3 3.8h1.3v2.2h2.8v-2.2h1.3v2.2h4.1v9.1h1.7v1.3h-16.9v-1.3h1.7v-9.1h4.1v-2.2zm.4 13.1.7 1.2c-1.8.9-3.8 1.9-6 2.9-.2-.4-.5-.8-.8-1.3 2.3-1 4.3-1.9 6.1-2.8zm-3.1-6.4h2.8v-3.2h-2.8zm0 4.6h2.8v-3.3h-2.8zm4-4.6h2.8v-3.2h-2.8zm0 4.6h2.8v-3.3h-2.8zm3.7 1.9c2.1.9 4.1 1.8 6.1 2.7l-.7 1.3c-2.2-1.1-4.2-2-6.1-2.9zm3.2-9.7h-2.8v3.2h2.8zm-2.8 7.8h2.8v-3.3h-2.8z"/></g></svg>