<svg enable-background="new 0 0 400 400" viewBox="0 0 400 400" xmlns="http://www.w3.org/2000/svg"><path d="m234.4 353.7c-.4-.6-.8-1.1-.9-1.3 1-1.3 2.2-2.2 2.5-3.4.3-1.1-.4-2.5-.6-3.8-.3 0-.6 0-1 0-1.2 1.4-2.4 2.8-4 4.7-1-4.4-2-8.2-2.6-12.1-.1-.8 1-1.9 1-2.4-.9-3.9-2.2-7.8-2.8-11.8-.8-6-1.1-12-1.7-18 .1-.1.3-.3.4-.3 1.5-.4 3.1-.8 4.6-1.2-.8-1.3-1.6-2.7-2.5-4-1.8-2.4-3.6-4.7-5.5-6.9-1-1.1-2.4-1.9-4-3.1-.8 1.2-1.4 2.2-2 3.1-6 10.2-11.6 20.7-18 30.6-6.3 9.8-13.4 19-20 28.5-1.9 2.7-3.3 5.6-5.1 8.4-2.1 3.3-5.2 4.7-9.4 4.7-.5-2.1-1-4.1-1.4-5.9 1.8-1.9 5 2 6-1.9.5-2.3-1-3.4-2.9-4.3-.8.8-1.6 1.7-2.3 2.5-.3-.1-.7-.2-1-.2.2-1.4.5-2.9.8-4.9-1.9-2.8.5-5.4 2.3-7.8 9.3-12.1 17-25.3 22.4-39.6 3.8-10.1 2.3-14.1-6.4-20.3-4.2-3-9.4-2.7-13.4.6-9.8 8.3-19.6 16.5-29.4 24.7-1 .9-2.6 1.2-4.2 1.9-.2.3-.6 1.3-1.4 1.7-6.2 3-12.4 5.8-19.1 9-.4-5-.8-9.5-.9-14.1 0-.8 1.1-1.7 1.8-2.4 5.1-4.6 10.2-9.2 15.5-13.7 2-1.7 4.5-2.8 6.7-4.1 2.4-2.2 4.8-4.5 7.4-6.7 2.7-2.2 5-4.1 5.8-8.1.7-3.4 3.4-6.6 5.6-9.4 4.9-6.2 4-13 2.7-19.8-4.4-1.6-8-.7-11.8 1.7-8.5 5.5-17.5 10.4-26 15.8-3.2 2-6.2 2.8-9.8 1.6-.7-.2-1.4-.3-3.1-.6 1.8 1.6 2.9 2.6 4.4 3.9-5.5 2.3-10.7 4.6-15.9 6.7-1.5.6-2.8 1-2.6 3.2.1 1-1.7 2.7-2.8 2.9-5.8 1.2-11.8 2.2-17.7 3-.6.1-1.7-1-2.1-1.7-.8-1.7-1.3-3.6-2.2-6 3.4-2.1 6.7-4.9 10.4-6.2 11.2-3.7 20.8-10.2 30.6-16.4 4.7-3 9.7-5.7 14.4-8.6 3-1.8 6-3.7 10.1-1.1-2.5-4.9.8-6 3.7-7.6 10.5-5.9 18.7-14.2 23-25.6 1.4-3.7 1.6-7.8 2.4-12.3-1.7.4-2.6.6-3.4.9-6.9 2.3-13.8 4.6-20.8 6.8-2.7.8-5.5 1.7-8.3 2-9.8.8-18.5 5-27.5 8.4-6.3 2.4-12.5 3.4-19.1 3.5-3.6.1-7.2 1.2-10.8 1.9-2.7.5-5.4 1.1-9.1 1.9-3.3 3.8-12.8 5.4-18.4 2.3-1.1 1-2.3 2.1-3.8 3.5-.5-2.5-1.1-4.7-1.3-6.9-.1-.8.5-2 1.1-2.6 7.3-6.5 15.6-11.6 24.9-14.8 7.4-2.5 14.7-5.5 22.3-7.3 7.1-1.7 14.6-2.2 21.9-3.3.9-.2 1.7-1.2 2.6-1.8.7-.5 1.5-1.1 2.3-1.3 14.3-3 27.8-8.8 41.5-13.5 6.8-2.3 12.4-6.6 17.8-12-3-1.7-5.8-3.3-8.5-5-7-4.3-14.2-8.4-20.9-13.2-3.7-2.7-6.5-6.6-9.7-9.9-.4-.4-.8-1.1-.8-1.6-.2-3.4-1.3-5.7-5-6.8-.9-.3-1.1-3.5-1.3-5.5-.1-.7 1.1-1.4 1.1-2.2.3-9.2 5.9-16.4 9.6-24.2.2-.5.5-.9.7-1.4 3.5-9.3 9.5-16.5 18.7-20.7 1.1-.5 1.6-2.2 2.4-3.3-.3-.3-.6-.6-.8-.9 16.6-11.1 33.1-22.3 49.5-33.3.8.5 1.1.6 1.4.8 1 .9 2 1.9 3.2 3.1-1.2 1.5-2.4 2.9-3.5 4.4.1.3.2.7.3 1 1.4-.4 3.1-.3 4.1-1.1 7.9-6.6 13.5-7.1 22.6-2.2 4.6 2.5 7.9 5.5 8.9 11 .3 1.7 1.9 3.4 3.3 4.6 6.5 5.5 13.2 10.6 19.6 16.1 10.8 9.2 10.9 20 4.7 32.4-4.7 9.6-11.5 17.7-20 24.2-1.5 1.2-2.9 2.5-4.3 3.7 2.6 7.1 6.2 9.1 13.3 8.1 9.2-1.3 17.3 2.1 24.8 7 7 4.5 13.2 10 17.4 17.3 5.5 9.7 3.6 19-1.9 27.9-1.1 1.8-3.4 3.1-5.4 4.3-3.5 2.2-3.9 4.7-1 7.6l13.5 13.5c10.1 10.3 12 20.2 5.1 32.9-5.2 9.5-12.5 16.9-24.6 16.8-2.5 0-5.1.4-7.6.6-5.3.3-9 2.8-10.9 8 .5.4 1 .9 1.6 1.3 23.6 16.5 47.1 33 70.7 49.5 7.9 5.5 11.6 14.4 9.3 22.8-.5 1.8-1.2 2.8-3.2 2.7-4.8-.2-9.7.1-14.5-.7-3.7-.6-7.3-2.3-10.9-3.8-4-1.6-4.8-4.5-2.4-7.9 1.4-2 .6-3.2-2.9-4.5-.1.5-.2 1-.2 1.5-.8 4.8-2.4 5.8-6.5 3.4-4.7-2.8-9.1-6-14-9.2 1.2-1.1 1.8-1.6 2.5-2.3-.6-.2-.9-.4-1.3-.4-3.6.3-6.1-1.3-8.5-3.9-3.6-4.1-7.7-7.9-11.5-11.8-3-3-3-3-1.9-6.9-9.6-2.5-15.1-9.8-19.7-18-5.7-10.2-14.7-13.8-25.9-12.8-.8.1-1.8.8-2.3 1.5-.8 1.3-1.3 2.9-2 4.6 2.3 1.7 4.6 3.3 6.9 5 3.5 2.5 5.6 6.1 6.5 10.2.4 1.7-.1 3.5-.7 5.3 4.7 7.6 2.7 15.9 1.9 24-.5 4.9-1.6 9.8-2.4 14.7-.5 4.7-2.3 9-6.5 12.4zm3.7-204.7c-5.6 1.7-11 3.4-15.5 4.8-1.1 1.8-1.5 3.3-2.5 4.1-5.8 4.8-11.6 9.5-17.5 14.2-1.1.9-2.5 1.6-3.8 2.1-2.2.9-4 .3-5-2-.6-1.4-1.3-2.7-2.9-1.5-.5.4-.4 2.3.1 3.1 1.4 2.2 1.1 3.7-.9 5.4-3.4 3-6.5 6.2-9.8 9.4.2.4.4.8.7 1.2 1.1-.3 2.2-.6 3.4-1 1.1 5.4 2.4 10.7 3.2 16.1.4 2.8 1.7 3.2 4 2.9 7.7-.9 15.4-1.3 22.9-2.8 6.9-1.3 13.6-3.6 20.3-5.6 2.2-.7 3.2-2.3 3.1-4.8-.1-6.2.1-12.5.1-18.7.1-8.8.1-17.6.1-26.9zm-3.4 93.1c1.2 2.6 2.9 3.8 5.5 4 2.9.2 4.7 2.3 4.4 5.1-.2 2.2-1.2 4.2-1.7 6.4-.4 1.9-1 3.9-.9 5.8 0 2.1 1.2 3.2 3.7 3 7.5-.5 14.5-2.7 20.6-6.8 6.2-4.1 12.9-6.6 19.7-9.2.9-.3 1.7-.7 2.6-1.1 0-1.7.4-3 1.2-4 2.3-2.9 4.8-5.6 7.2-8.4 5-5.7 2.9-15.4-4-18.4-5.1-2.2-10.4-4.2-15.6-6.3-2.3-1-4.7-1.9-4.9-5.2 0-.7-1-1.4-2-2.9.3 4.8-2 6.3-5.4 6.8-5.6.9-9 4.1-10.6 9.6-2.5 8.5-5.2 16.9-8 26.3-.5-3-.8-5.1-1.2-7.5-3.6 1-7 1.9-10.6 2.8zm-25.9-122.7c-9.2-3.6-15.2-10.4-21.1-17.5-4.1-4.9-8.9-9.2-13.4-13.8-3 2-5.4 3.7-8 5.3-4.6 2.8-4.9 2.7-7.9-1.6-.1-.1-.4 0-1.2 0 .4.9.5 1.8 1 2.2 2.7 2.1 2.4 4.3.8 6.8-2 3.1-2.5 6.4-1.5 10 .5 1.7 1.4 3.6 1.1 5.2s-1.9 2.9-2.6 3.9c2 .6 5.1.5 6.3 2 8.3 10.5 19 18.7 28.4 28.1 2.3 2.3 4.8 2.7 7.5 1.7 2.5-1 5.1-2.3 7.2-3.9 3.3-2.6 6.4-5.6 9.4-8.5 3.1-3 3.2-4.9.9-8.6-.9-1.5-2.2-2.8-3.4-4.1-1.8-1.9-3.6-3.7-5.4-5.7.6-.7 1.1-1 1.9-1.5zm9.2-71c-.7.5-1.4.8-1.9 1.3-5.9 5.7-11.8 11.5-17.6 17.3-2.8 2.8-3.5 5.1-1.3 8.4 2.3 3.5 5.1 6.7 8.2 9.5 5.1 4.4 10.6 8.5 16 12.5 4.3 3.2 6.6 7.5 7.8 12.6.5 2.1 1.3 4.3 2.3 6.2 2.2 4.2 5.1 4.9 9 2.3 1.4-.9 2.6-2.2 3.8-3.4 4.9-4.9 8.5-10.7 11.4-17 .8-1.8.6-2.8-.6-4.1-6.9-7.9-13.9-15.7-20.5-23.8-2.1-2.5-3.3-5.8-4.7-8.9-.8-1.8-.2-3 2-3.2 2.5-.2 5.1-.7 8.1-1.2-6.6-3.9-6.6-3.9-11.8 2-3.5-3.4-6.8-6.9-10.2-10.5zm16.9 180c0-1.6.1-3.5 0-5.4-.3-3.5-3.1-5.5-6.4-4.6-12.2 3.1-24.4 6.2-36.5 9.4-1 .3-2.3 1.5-2.6 2.6-3.4 11.2-1 21.5 5.2 31.1.5.8 1.8 1.4 2.9 1.6 12.5 2.5 22.4-2.3 30.5-11.3 1.8-2 2.3-5.2 3.2-8 .5-1.7 0-4.1 1.1-5.1 2.8-2.9 2.2-6.5 2.6-10.3zm22-65.4c5.1 4.1 5.2 9.7 4.8 15.5-.2 2.6-.3 5.3-.1 7.9.3 2.9 1.1 5.8 1.7 8.6 6.7-.3 11.1-2.7 14-8.2 1.9-3.5 4.4-6.7 10.1-5.5-1.5-1.3-2.2-2-3.1-2.7 1.5-1.2 2.8-2.2 4.2-3.3-1.2-1-2.2-1.9-3.5-3 3.3-1.8 1.5-4.6 1.6-7.1.1-2-1-2.7-2.8-3-5.2-1-10.5-1.6-15.5-3.1-4.8-1.5-8.1.3-11.4 3.9zm26.3 136.8c.8 1.9 1.5 3.4 2.4 5.5 1.3-2 4.4-2 2.9-5.2 1.1-.5 2.4-.8 3.5-1.4.5-.3.7-1 1.1-1.5-.7-.2-1.5-.7-2-.5-2.6.8-5.1 1.9-7.9 3.1zm-113.3-152c-1.7 3-3.1 5.5-4.6 7.9.3.2.6.4.9.6 2.5-1.2 5-2.5 7.8-3.9-1.4-1.5-2.6-2.8-4.1-4.6zm94.7-35c0-.5 0-.9.1-1.4-1.6-.1-3.4-.6-4.9-.1-2.2.7-2.3 2.6-1.5 4.9 2.2-1.2 4.3-2.3 6.3-3.4zm-77.9-27.9c2.7-.1 5.2-.2 7.6-.4 0-.2.1-.4.1-.6-2.3-.6-4.5-1.2-7-1.9-.3 1-.5 1.8-.7 2.9zm103.6 173.9c-1 .8-2 1.5-3.4 2.5 1.1.7 1.8 1.7 2.4 1.6 1.1-.3 2.1-1.1 3.5-1.9-.9-.9-1.5-1.4-2.5-2.2zm-90.7-153.9c.1-.3.2-.5.3-.8-1.7-.8-3.4-1.6-5.5-2.6-.1 5.3 3.5 2.5 5.2 3.4z"/></svg>