<svg enable-background="new 0 0 400 400" viewBox="0 0 400 400" xmlns="http://www.w3.org/2000/svg"><path d="m128.29 129.77c3.22-9.9 6.22-19.12 9.19-28.35.16-.5.27-1.22.04-1.63-2.56-4.49.17-8.09 1.91-11.86 3.03-6.56 3.04-6.56 10.15-5.98 6.4.52 8.63 2.54 9.54 8.81 2.4 16.38 4.93 32.74 7.02 49.16.51 4.01-.44 8.21-.74 12.33-.08 1.11-.33 2.21-.39 3.33-.4 7.14 1.67 8.47 7.94 5.58 3.51-1.62 7.28-2.66 10.93-3.99 3.35-1.22 6.88-2.13 10-3.8 11.25-5.98 22.45-12.06 33.47-18.45 4.83-2.8 9.75-4.7 15.25-5.66 4.04-.71 7.9-2.44 12.31-3.86 5.27 5.37 4.16 15.4-1.74 20.65-12.47 11.11-27 18.71-41.83 25.82-8.91 4.27-17.55 8.84-25.36 14.94-1.74 1.35-3.82 2.31-5.83 3.26-14.38 6.73-28.58 13.89-43.24 19.93-9.46 3.89-19.58 6.19-29.45 9.02-9.58 2.75-19.16 5.45-27.67 10.89-1.02.65-1.97 1.4-3.79 2.7 5.67.68 10.45 1.29 15.24 1.83 12.9 1.44 25.85 2.53 38.68 4.4 7.38 1.07 14.62 3.25 21.85 5.19 7.26 1.95 14.52 3.79 22.08 3.59 14.02-.36 27.02 3.69 40.11 8.14 20.11 6.83 40.44 13.09 61.44 16.63 9.13 1.54 18.42 2.22 27.65 3.05 18.66 1.69 37.06 4.43 54.71 11.14 2.63 1 5.69.88 8.57 1.2 4.78.54 5.09 1.6 4.39 6.22-1.78 11.8-10.91 16.36-20.04 20.52-15.85 7.22-32.4 6.43-49.05 3.07-8.31-1.68-16.71-2.89-25.02-4.58-4.69-.96-9.29-2.37-13.88-3.75-24.54-7.4-48.24-17.09-71.96-26.71-.93-.38-1.98-.68-2.68-1.34-7.94-7.55-18.08-9.47-28.31-10.97-17.15-2.52-34.33-4.91-51.52-7.16-15.59-2.04-31.33-2.82-46.83-.11-9.28 1.62-18.19 5.38-27.3 8.04-1.65.48-3.76.94-5.17.32-2.08-.92-4.64-2.48-5.39-4.39-2.22-5.66-2.77-11.27 2.13-16.45 3.97-4.2 7.13-9.18 10.66-13.8 4.35-5.7 9.63-10.11 16.35-12.96 19.15-8.1 38.23-16.37 57.26-24.73 7.38-3.24 13.59-8.19 18.66-14.47 3.82-4.73 4.61-15.35 1.57-20.52-.52-.88-1.64-1.44-2.54-2.05-11.83-8.06-23.84-15.86-35.41-24.28-4.26-3.1-7.93-7.29-11.01-11.61-2.1-2.95-3.17-6.87-3.87-10.52-1.02-5.32 1.54-8.05 6.82-9.33 4.04-.98 8.1-.62 11.15 3.34 1.8 2.34 4.25 4.4 6.82 5.88 8.49 4.88 17.17 9.45 26.13 14.33z" fill="#010000"/><g fill="#fbfcfa"><path d="m361.2 9.6.8-1c.9.7 1.9 1.4 2.9 2.3l-.9 1.1c-1-1-2-1.8-2.8-2.4zm.5 10.6c.9-2.1 1.6-4.3 2.3-6.7.4.2.8.4 1.3.6-.7 2.1-1.5 4.3-2.2 6.6zm.4-15.2.9-.9c1 .8 2 1.6 2.8 2.4l-1 1c-.9-.9-1.8-1.7-2.7-2.5zm12.5-1.2h1.2v1.4h2.7v1.1h-2.7v2.7h-1.2v-.6h-1.8v1.3h4.9v3.8h-1.2v-.5h-3.7c0 .4-.1.9-.1 1.2h5.1v1h-5.2c0 .5-.1.9-.2 1.2h6v1h-5.2c1.1 1.3 2.9 2 5.5 2.2-.4.4-.7.8-.9 1.3-2.9-.5-4.8-1.6-5.7-3.5h-.1c-.8 1.7-2.7 2.9-5.9 3.6-.2-.4-.6-.8-.9-1.1 2.8-.6 4.6-1.4 5.4-2.5h-4.8v-1h5.3c.1-.3.2-.7.2-1.2h-4.9v-1h5c0-.4 0-.8.1-1.2h-3.5v.5h-1.2v-3.8h4.9v-1.3h-1.8v.5h-1.2v-2.7h-2.7v-1h2.6v-1.4h1.2v1.4h4.7v-1.4zm-6.6 8.3h3.6c0-.4 0-.9 0-1.4h-3.6zm1.9-4.6h4.7v-1.3h-4.7zm6.6 3.2h-3.7v1.4h3.7z"/><path d="m385.3 3.8h1.3v2.2h2.8v-2.2h1.3v2.2h4.1v9.1h1.7v1.3h-16.9v-1.3h1.7v-9.1h4.1v-2.2zm.4 13.1.7 1.2c-1.8.9-3.8 1.9-6 2.9-.2-.4-.5-.8-.8-1.3 2.3-1 4.3-1.9 6.1-2.8zm-3.1-6.4h2.8v-3.2h-2.8zm0 4.6h2.8v-3.3h-2.8zm4-4.6h2.8v-3.2h-2.8zm0 4.6h2.8v-3.3h-2.8zm3.7 1.9c2.1.9 4.1 1.8 6.1 2.7l-.7 1.3c-2.2-1.1-4.2-2-6.1-2.9zm3.2-9.7h-2.8v3.2h2.8zm-2.8 7.8h2.8v-3.3h-2.8z"/></g></svg>