<svg enable-background="new 0 0 400 400" viewBox="0 0 400 400" xmlns="http://www.w3.org/2000/svg"><path d="m271.3 351c.3-3 .7-5.9 1.1-9.7 3.2 4.3 5.9 8.1 8.2 11.2-1.2 3-1.8 5.7-3.2 7.9-1.1 1.6-3.1 3.5-4.9 3.7-5.8.6-11.9 1.6-17.6.6-10.8-1.9-21.4-2.8-32.1-.3-10.9 2.5-21.8 1.4-32.4-.6-10.9-2.1-21.5-6.1-32.3-8.8-13.8-3.4-24.9-11.8-37.1-18.4-.9-.5-1.5-1.5-2.1-2.3-3.2-4.5-6.7-8.8-9.4-13.6-6.9-12.1-17.6-20.4-27.8-29.3-4-3.5-8-6.9-11.9-10.5-1.1-1-2.2-2.5-2.3-3.9-.8-6.5-3.4-12.1-7.2-17.3-1.3-1.8-2.3-4.1-2.9-6.2-4.9-16.6-10.2-33.2-14.4-49.9-2.1-8.4-2.6-17.3-3.5-26-3.3-32.7-1-65.6-1.3-98.4-.1-7.6.7-14.7 5.5-21.1 2.4-3.1 3.5-7.2 4.9-10.9 1.4-3.8 2.4-7.6 3.7-11.8 7.3.1 13.7 2.9 19.6 7.2 4.9 3.6 8.7 8.1 10.2 14.1.3 1.4.5 2.9.2 4.3-1.6 8.4-3.3 16.8-5 25.2-.3 1.5-.5 3.1-.5 4.7-.1 6.1.2 12.3-.1 18.4-.5 13.7.8 27.2 3.7 40.6 3 13.7 5.5 27.6 8.5 41.3.7 3.5 2.2 6.9 3.7 10.1 3.3 6.6 8.7 7.4 14.1 2.1 10.7-10.7 21.3-21.5 31.9-32.3 20.1-20.3 40.1-40.7 60.2-61.1 1.4-1.4 2.5-3.1 3.7-4.7 5.9-7.9 11.5-16 17.8-23.5 5.6-6.7 13.1-10 22.1-8.3 3 .6 5.8 2.4 8.8 3.4 8.2 2.7 14.8 7.5 19.2 15 4 6.9 9.8 10.8 17.7 11.6 6 .6 10.4 3.6 13.4 8.7.3.5.7.8 1 1.3 7.5 10.3 16 19.5 27 26.3 7.9 4.9 15.4 10.8 20.1 19 2.7 4.6 4.5 9.7 6.6 14.7.2.6.3 1.7-.1 2.1-5.5 5.8-10.6 12.1-19.4 13.4-6 .9-11.8.3-17.6-1-16.3-3.5-30.6-11.1-43.5-21.3-8.4-6.6-15.8-14.4-23.7-21.6-6.9-6.3-15.1-9.2-24.4-8.9-2.9.1-5.2.9-7.3 3.1-5.3 5.7-10.9 11-16.1 16.7-4.9 5.3-7.6 11.6-7.4 19 .1 2 .7 3.2 2.3 4.5 29.2 23.4 58.4 47 87.6 70.4 7 5.6 10.9 12.8 11.8 21.6.2 1.9-.2 3-2.2 3.8-6 2.4-11.9 5-17.8 7.6-4.3 2-8.8 1.6-13 .3-5.5-1.7-11-3.6-16.3-5.9-5.8-2.5-11.4-5.5-17-8.4-4.4-2.3-7.2-5.7-7.7-10.9-.2-1.5-.7-3-1-4.4-.6-.2-.8-.3-1-.3-4.8 1.6-8.7 0-12.9-2.5-10.2-6.1-17.2-15.2-24.7-23.9-3.7-4.3-7.3-8.9-11.8-12.2-5.8-4.4-12.9-4.1-19.8-2.7-.7.1-1.3.7-1.9 1.1-13 12-26 23.9-39 35.9-.1.1-.2.4-.5.8 4.2 7.1 7.5 14.8 13.1 21.4 8.3 9.8 17.6 18.1 28.3 25.1 13.3 8.7 26.1 18 39.2 27 1.2.8 2.6 1.6 4 1.7 14.7.7 28.6 5.3 42.8 8.6 7.8 1.8 15.6 3.7 23.4 5.7 1.4.4 2.9 1.6 3.6 2.9 1.8 2.8 3.1 5.9 4.6 8.9.1-.1.3-.1.5-.1zm-40.7-7.7c2.3 3.1 2.3 3.1 6.8.1-2.3-3.9-4.5-.8-6.8-.1zm-22.6-230.2c-1.8-1.3-3.1-2.3-4.7-3.4v5.6c1.6-.7 2.9-1.3 4.7-2.2z"/></svg>