<svg enable-background="new 0 0 400 400" viewBox="0 0 400 400" xmlns="http://www.w3.org/2000/svg"><g fill="#010000"><path d="m262.88 278.4c6.63.66 13.3 1.45 19.98 1.92 3.81.27 7.01 1.09 8.02 5.38 5.88-3.92 14.88.16 15.56 6.97.17 1.74-.75 4.11-1.99 5.37-3.19 3.24-7.2 5.22-11.84 5.7-4.67.48-9.35.9-13.99 1.59-4.83.72-6.05 2.36-5.45 7.33.4 3.32-.16 5.77-4.34 6.51-.13-2.6-.36-5.1-.34-7.59.03-3.22-1.78-4.93-4.63-5.05-3.76-.16-7.61-.13-11.3.53-12.44 2.22-12.47 2.31-18.56 13.3-1.51 2.72-2.87 5.6-3.73 8.57-1.25 4.35-.78 5.53 3.62 6.49 7.62 1.65 15.34 3.22 23.09 3.75 9.12.63 18.31.05 27.47.16 2.4.03 4.79.7 7.18 1.07.62.1 1.38.46 1.85.24 8.59-4.16 17.57-2.46 26.39-1.48 3.52.39 6.84 2.35 10.34 3.24 2.54.65 5.22.94 7.84.96 2.48.02 4.7.12 6.16 2.46 2.08 3.31 1.69 4.97-1.68 6.93-3.48 2.03-7.07 3.89-10.4 6.12-2.36 1.58-4.11 1.8-5.78-.76-.4-.61-1.11-1.01-1.77-1.58-.76 1.06-1.4 1.96-2.1 2.95-2.02-1.47-4-2.91-6.34-4.61.47-.11.14-.1.12-.02-1.84 6.38-5.93 8.92-12.63 8.28-3.93-.37-7.98.43-12 .7-.41-1.39-.74-2.52-1.24-4.24-2.69 4.48-6.31 4.07-10.29 3.36-2.35-.42-4.92-.14-7.3.33-3.9.76-7.3.42-9.8-3.07-2.91 4.12-6.74 4.14-11.44.31-4.85 3.45-9.87 3.44-12.36-.27-4.07 3.33-8.91 2.2-13.41 1.69-16.36-1.86-32.58-1.19-48.8 1.45-3.5.57-7.14.5-10.71.42-8.52-.2-16.94.29-25.32 2.06-5.75 1.22-11.41.83-15.44-4.28 4.03-11.48 13.24-15.21 24.06-16.13 11.25-.95 22.47-1.75 33.52-4.49 3.49-.87 7.51.52 11.29.64 2.87.09 5.81.08 8.62-.4 4.62-.8 7.9-3.76 8.6-8.32.82-5.35 1.08-10.86.9-16.28-.14-4.05-4.7-8.37-8.71-8.19-8.33.37-16.71.9-24.94 2.21-8.35 1.33-16.56 3.59-24.79 5.64-4.38 1.09-8.3.38-10.39-2.4-2.29-3.04-1.88-8.36.14-12.05 5.12-9.34 13.92-11.92 23.42-13.5 10.14-1.69 20.24-3.58 30.4-5.11 1.7-.25 3.6.9 5.69 1.49 2.41-2.96 5.26-6.37 7.99-9.86.67-.85 1.06-1.97 1.41-3.02 1.69-5 1.17-5.46-3.43-7.77-6.56-3.3-12.87-7.11-19.28-10.71-.19-.11-.49-.21-.54-.38-1.39-4.91-6.18-5.34-9.71-7.5-10.93-6.69-16.12-16.08-13.53-29.13.98-4.91 3.31-7.01 8.47-6.42 2.2.25 5.24-.32 5.81 3.2.01.09.13.23.2.24 6.03.66 5.78 6.66 8.56 10.08.76.93 1.4 1.96 2.29 3.22.56-.94.94-1.55 1-1.66 5.95 2.92 11.84 5.84 17.74 8.7 2.32 1.13 3.99.57 4.91-2 2.24-6.3 4.71-12.52 6.8-18.86 2.01-6.12 4.9-11.68 9.79-17.48 1.84 3.51 3.87 6.34 4.86 9.49 1.53 4.88 2.23 10.02 3.52 14.99.75 2.88 1.95 5.64 3.12 8.93 5.63-1.76 11.01-2.92 15.93-5.11 10-4.44 19.75-9.45 29.61-14.22 4.4-2.13 8.4-1.04 10.92 3.12.91 1.51 1.61 3.21 2.06 4.91.93 3.58.65 6.91-2.9 9.13-5 3.13-9.74 6.84-15.07 9.25-12.21 5.52-24.67 10.5-37.13 15.46-2.85 1.14-4.68 2.93-5.02 5.67-.66 5.4-1 10.87-1.04 16.31-.01 1.15 1.63 2.99 2.84 3.33 2.64.73 5.48.88 8.25.94 3.19.06 6.26.09 8.59 2.79.37.43 1.37.31 2.07.44.2-.71.32-1.46.46-2.38zm76.79 73.31c-1.42-1.51-2.41-2.56-3.91-4.15-.18 2.29-.29 3.69-.44 5.57 1.55-.51 2.66-.87 4.35-1.42z"/><path d="m156.31 123.13c-1.5-1.42-2.3-2.17-3.34-3.16 2.38-1.4 4.57-2.66 6.73-3.98 4.45-2.73 4.58-6.02.38-8.98-.73-.51-1.49-.99-2.28-1.41-5.16-2.83-8.49-6.71-8.12-13.04.15-2.43-.19-4.89-.33-7.92-4.53.97-8.96 1.51-13.11 2.88-7.44 2.46-15.02 3.47-22.78 3.25-5.99-.17-9.67-3.92-9.54-9.81.03-1.51.93-3.41 2.07-4.43 5.14-4.61 11.18-7.73 17.81-9.69 8.12-2.4 16.24-4.81 24.58-7.28.58.77 1.3 1.71 1.88 2.48 1.12-1.97 2.23-3.93 3.66-6.45 1.25 1.75 1.93 2.7 2.95 4.12 3.13-5.72 8.51-5.05 13.79-5.39 6.28-.41 12.51-1.57 19.3-2.48.01.02.46.84.99 1.82 2.15-1.42 4.37-2.73 6.41-4.27 2.28-1.73 4.43-3.18 6.87.05.94-1.49 1.84-2.64 2.45-3.94 1.23-2.63 3.37-3.64 6.07-4.08.91-.15 2.44-.97 2.43-1.48-.01-1.46-.66-2.91-1.06-4.36-1.06.35-2.17.6-3.17 1.08-.93.45-1.75 1.15-2.61 1.74-.23-.31-.46-.62-.69-.93 4.65-3.7 9.2-7.56 14-11.05 3.22-2.34 5.91.38 8.55 1.78 2.39 1.27 3.03 3.61 2.19 6.08-1.36 4-2.96 7.91-4.6 12.21 3.99 2.47 8.34 5.16 13.44 8.32-.11-1.79-.19-3-.29-4.53 8.56 1.13 17.34 2.3 26.13 3.46v.52c-1.76.53-3.51 1.07-5.59 1.7 7.65 2.94 7.65 2.94 10.65-1.14 1.8.63 3.66.99 5.21 1.9 1.41.82 2.47 2.23 3.55 3.25 1.04-4.15 1.98-4.86 6.74-4.35 5.94.64 11.65 1.74 13.91 8.79 5.22-3.19 9.43-.28 13.46 1.81 1.38.72 1.6 3.61 2.44 5.47 1.46 3.23.02 5.04-2.71 6.74-7.36 4.59-15.34 5.1-23.61 4.1-9.65-1.17-19.3-2.42-28.96-3.51-1.48-.17-3.22-.02-4.54.62-14.28 6.85-26.79 16.42-39.57 25.57-.03.38-.06.77-.09 1.15 5.44 1.74 10.76 4.14 16.34 5.1 16.52 2.83 33.13 5.04 49.7 7.57 9.82 1.5 19.65 3.02 29.43 4.77 4.61.82 7.01 3.27 6.91 6.93-.05 1.79-.86 3.94-2.06 5.26-7.29 8-16.52 8.8-26.54 6.99-3.66-.66-7.51-.24-11.25-.56-6.22-.53-12.44-1.08-18.62-1.92-17.95-2.43-35.86-5.07-53.14-10.83-7.21-2.4-14.35-5-21.59-7.29-1.42-.45-3.41-.44-4.69.22-19.7 10.18-41.28 15.14-62.07 22.26-2.71.93-6.58-1.17-9.74-2.34-.35-.13-.17-4.34.87-5.06 3.63-2.5 7.59-4.73 11.72-6.26 5.11-1.89 10.59-2.76 15.78-4.48 2.78-.92 5.23-2.78 7.9-4.06 1.02-.49 2.26-.87 3.36-.79 1.76.15 3.49.71 6.04 1.26zm69.37-45.67c-.3-.41-.61-.82-.91-1.23-7.56-.37-15.16-1.38-22.67-.96-10.02.55-19.99 2.06-29.95 3.44-5.15.71-10.24 1.96-14.54 5.55.61.54.97 1.02 1.44 1.24 7.54 3.62 15.01 7.42 22.69 10.72 6.05 2.6 11.81 1.19 17.01-2.73 1.67-1.26 3.4-2.42 5.11-3.63.06.37.13.74.19 1.11 1.34.07 2.74.4 3.99.11.74-.17 1.11-1.56 1.87-2.04 4.07-2.55 8.3-4.85 12.29-7.52 1.43-.95 2.34-2.68 3.48-4.06zm-74.04-8.84c.72-.41 1.93-1.1 3.46-1.97 3.77 2.42 4.48-3.96 8.11-3.27-2.56-4.78-4.14-4.71-7.3-.12-.88-1.23-1.74-2.41-2.7-3.74-.54 3.14-1.03 5.93-1.57 9.1z"/><path d="m291.64 173.55c.43.77.85 1.54 1.46 2.63-3.33-.46-6.52-.71-9.61-1.38-8.6-1.86-17.15-.53-25.69.18-12.81 1.06-25.56 2.32-38.49 1.71-4.83-.23-9.75 2.14-14.69 3.02-4.69.84-9.45 1.65-14.19 1.82-8.27.29-16.58-.29-24.84.18-9.01.51-17.99 1.73-26.95 2.86-.99.13-2.29 1.56-2.61 2.64-1.16 3.84-1.97 7.78-2.91 11.7-2.31.56-5.24-3.2-6.98.99 8.14 5.62 6.44 13.9 5.71 21.62-.55 5.86-2.2 11.62-3.31 17.43-.53 2.77-1.54 4.94-5.6 4.38 4.56 7.55 1.21 14.31-.82 21.14-.47 1.58-1.46 3-2.12 4.54-.28.65-.69 1.59-.43 2.09 2.28 4.36 1.14 8.8.25 13.13-1.2 5.8-2.72 11.53-4.27 17.24-.44 1.61-1.46 3.06-2.42 5.01 0 1.23.34 3.17-.06 4.93-2.29 10.05-6.16 20.04-12.75 27.4-6.54 7.31-10.4 16.48-18.04 22.92-7.87 6.62-15.9 12.32-26.5 13.18-.44.04-.88 0-1.31 0-.54-3.33-1.4-3.75-4.61-2.03-1.02-4.99.02-9.39 3.12-13.21 13.74-16.94 27.61-33.78 41.26-50.8 1.87-2.33 3.26-5.34 3.98-8.26 2.95-11.93 5.88-23.88 8.17-35.95 1.33-6.99 1.63-14.21 2.03-21.34.85-14.96 1.49-29.93 2.17-44.89.2-4.47 1.34-6.02 3.7-5.89 1.01-3.08 2.07-5.88 2.84-8.75.68-2.56 1.33-5.18 1.48-7.81.13-2.28.84-3.39 3.13-3.84 13.37-2.63 26.72-5.37 40.08-8.06 1.75-.35 3.56-.49 5.27-.98 3.47-.99 6.78-1.07 9.91 1.03 1.6 1.07 2.8.77 4.43-.43 1.62-1.2 3.85-1.62 5.87-2.22 4.03-1.18 5.17-2.38 4.4-6.42-.92-4.86 1.16-7.8 4.95-10.35 7.13-4.79 11.39-3.66 14.99 4.25 3.4 7.47 6.27 9.13 14.28 8.6 11.49-.76 22.99-1.58 34.49-1.99 4.88-.17 9.79.62 14.68 1.01 5.33.43 10.65 1.04 15.99 1.34 5.97.33 11.43 2.17 16.4 5.31 4.66 2.94 4.6 6.42.07 9.4-1.85 1.21-3.79 2.41-5.85 3.12-2.04.7-4.35 1.62-5.83-1.46-.42-.88-2.37-1.02-3.62-1.5-.24.22-.43.49-.61.76z"/></g><path d="m361.2 9.6.8-1c.9.7 1.9 1.4 2.9 2.3l-.9 1.1c-1-1-2-1.8-2.8-2.4zm.5 10.6c.9-2.1 1.6-4.3 2.3-6.7.4.2.8.4 1.3.6-.7 2.1-1.5 4.3-2.2 6.6zm.4-15.2.9-.9c1 .8 2 1.6 2.8 2.4l-1 1c-.9-.9-1.8-1.7-2.7-2.5zm12.5-1.2h1.2v1.4h2.7v1.1h-2.7v2.7h-1.2v-.6h-1.8v1.3h4.9v3.8h-1.2v-.5h-3.7c0 .4-.1.9-.1 1.2h5.1v1h-5.2c0 .5-.1.9-.2 1.2h6v1h-5.2c1.1 1.3 2.9 2 5.5 2.2-.4.4-.7.8-.9 1.3-2.9-.5-4.8-1.6-5.7-3.5h-.1c-.8 1.7-2.7 2.9-5.9 3.6-.2-.4-.6-.8-.9-1.1 2.8-.6 4.6-1.4 5.4-2.5h-4.8v-1h5.3c.1-.3.2-.7.2-1.2h-4.9v-1h5c0-.4 0-.8.1-1.2h-3.5v.5h-1.2v-3.8h4.9v-1.3h-1.8v.5h-1.2v-2.7h-2.7v-1h2.6v-1.4h1.2v1.4h4.7v-1.4zm-6.6 8.3h3.6c0-.4 0-.9 0-1.4h-3.6zm1.9-4.6h4.7v-1.3h-4.7zm6.6 3.2h-3.7v1.4h3.7z" fill="#fbfcfa"/><path d="m385.3 3.8h1.3v2.2h2.8v-2.2h1.3v2.2h4.1v9.1h1.7v1.3h-16.9v-1.3h1.7v-9.1h4.1v-2.2zm.4 13.1.7 1.2c-1.8.9-3.8 1.9-6 2.9-.2-.4-.5-.8-.8-1.3 2.3-1 4.3-1.9 6.1-2.8zm-3.1-6.4h2.8v-3.2h-2.8zm0 4.6h2.8v-3.3h-2.8zm4-4.6h2.8v-3.2h-2.8zm0 4.6h2.8v-3.3h-2.8zm3.7 1.9c2.1.9 4.1 1.8 6.1 2.7l-.7 1.3c-2.2-1.1-4.2-2-6.1-2.9zm3.2-9.7h-2.8v3.2h2.8zm-2.8 7.8h2.8v-3.3h-2.8z" fill="#fbfcfa"/></svg>