<svg enable-background="new 0 0 400 400" viewBox="0 0 400 400" xmlns="http://www.w3.org/2000/svg"><path d="m356.8 353c-7.6 2.2-15 4.4-22.4 6.4-.8.2-2 0-2.5-.5-4.3-4.6-10.1-6-15.8-7.5-3.2-.8-6.3-1.7-9.5-2.4-7.1-1.6-12.6-5.7-17.9-10.4-.1-.1-.2-.1-.2-.2-6.1-6.3-13.8-9.1-22.2-11.2-6.7-1.7-13-5.4-19.2-8.7-5.6-3-10.7-6.8-16.1-10.2-8.8-5.5-18.3-6.9-28.3-4.6-.9.2-2.2 1.1-2.5 1.9-1.7 6.3-3.3 12.7-4.9 19.2 1.7.6 3.3 1.2 4.9 1.8-.1.4 0 .8-.2 1-4.9 6.9-5.4 14.7-4.9 22.7.2 4.2.2 8.5 0 12.7 0 .9-1.1 2.2-1.9 2.6-3.9 1.5-7.6.8-11.6-1-8.9-3.9-9.7-12-11.4-19.8-2.4-10.7-1.8-21.7-2-32.6-.1-6.8-2.3-13-9.1-15.7-7.2-2.8-14.5-3.4-21.5 1.1-19.8 12.9-39.8 25.8-59.6 38.8-4.2 2.8-8.5 4.8-13.6 5.5-6.1.8-12.1 2.2-18.1 3.4-1.9.4-2.9 0-3.5-2-1.3-3.8-2.8-7.5-4.3-11.5 5.7-3 11.2-6.2 16.9-9 20-9.9 40-19.6 60-29.6 14-7 26.6-15.7 35.5-28.9 5-7.3 8.6-17 9.2-25.2-5.8-1.2-11.7-2.7-17.7-3.5-14.5-1.8-28.9.3-43.3 2-8.9 1-17.9 1.3-27.4 2 .5-4.6.9-8.9 1.6-13.1.1-.6 1.6-1.2 2.5-1.4 16.1-3.9 32.4-6.3 48.9-7.4 18.5-1.2 35.5-6.4 50.9-16.8 1.7-1.1 3.1-1.3 5-.5 9.4 3.6 18.8 7 28.1 10.8 4.4 1.8 8.7 2.2 13.3 1.9 15.1-.9 30.2-1.9 45.3-2.5 14.1-.5 27.3 2.6 39.3 10.2 1.1.7 2 2.1 2.4 3.3 1.1 4.4 2 8.9 3.1 14.1-6.7 1.2-13.1 2.6-19.7 3.5-18.4 2.5-36.7.7-55.1-.9-7.7-.7-15.3-1.8-23-2.8-5.4-.7-10 .6-14 4.4-3.6 3.5-6.6 7.4-8.4 12.5 1.2.7 2.3 1.3 3.5 2 1.8-1.7 3.4-3.3 5.2-5 .3 1.2.5 2 .7 2.8 1.6 8.2 6.7 12.7 14.8 14.5 7.6 1.7 15.1 4 22.6 6.1 1.5.4 2.8 1.4 4.1 2.3 14 9.9 28 19.8 41.8 29.9 3.4 2.5 6.9 3.7 11 4.1 20.2 2 37.8 10.8 54.5 21.7 3.8 2.5 6.3 5.7 6.3 10.6-.4 3.3.1 6.1.4 9.1z"/><path d="m114.6 116.1c-8.5 0-16.9.2-25.4-.1-9.4-.3-18.5.8-27.6 3.1s-16.3-4.5-15-13.7c1.2-8.1 1.3-8.3 9.3-9 12.9-1 25.7-2 38.6-2.7 2.4-.1 5.1.6 7.4 1.4 10 3.6 20.1 3.6 30.6 1.8 13.2-2.2 26.6-3.6 40.1-3.5 3 0 6.1-.7 9.1-1.3 5.2-1.1 8.6-4.2 10.4-9.2 1.3-3.9 1.2-6.8-2.3-10.3-9.7-9.6-12.1-21.7-8.7-34.8.2-.8 1.4-1.9 2.2-2 4-.6 8-1 12-1.3.9-.1 2 0 2.7.5 5.2 3.5 10.5 6.8 15.3 10.7 4.6 3.7 6.3 8.9 6.1 14.7-.2 5.7-.7 11.4-.7 17.1 0 2.9.5 5.9 1.5 8.7 1.5 4.1 4.6 5.7 9 5.5 10.7-.5 21.3-1.5 32-1.5 7 0 14.1 1.4 21.1 2.2 17.1 2 34.2 4.1 51.4 6 7.2.8 11.8 5.8 11.2 13.1-.1.8-1 1.8-1.7 2.3-5 3.5-10.6 5.4-16.6 5.6-8.3.2-14.6 3-19.8 10-7.9 10.7-16.9 20.6-25.6 30.7-1.6 1.8-3.8 3.3-6 4.4-4.8 2.3-9.8 4.4-14.8 6.4-1.7.7-2.4 1.5-2.4 3.5.2 3.6.1 7.2 0 10.8 0 4.3-3 7.7-7.3 7.4-3.4-.3-6.8-1.4-10-2.5-.7-.2-1.5-2-1.3-2.8 1.9-7.6 3.9-15.2 6-22.7.3-1.2 1.4-2.3 2.3-3.3 5-5.6 10.3-10.9 15-16.7 4.1-5.1 5.4-11.4 5.6-17.9 0-1-.5-2.2-1.2-3-4-4.8-9.2-5.8-14.9-4.1-1.1.3-2.1 1.6-2.8 2.7-13.5 19.4-29.5 36.5-48.2 51-6.9 5.3-14.6 9.4-23.1 11.6-5.8 1.5-9.7-1.3-10.4-7.3-.2-2.1-.1-4.2-.2-6.3s.8-3.4 2.6-4.6c9.2-5.9 16.7-13.5 21.2-23.4 2-4.4 2.7-9.5 3.9-14.3.4-1.7-.4-2.6-2-3.3-9.2-3.8-18.8-5.9-28.6-6.7-16.5-1.4-33.1-2.2-49.7-3.2-.3.1-.3.2-.3.3z"/><path d="m57.5 192.6c0-3.7-.1-7.1.1-10.6.1-.9 1-2 1.9-2.6 18.4-12 36.8-24 55.3-35.9 1.1-.7 2.6-1.2 3.8-1.1 4 .3 8 .7 11.9 1.5 4.4.8 5.5 3.3 3.5 7.4-.5 1-1 2.1-1.7 3-4.9 6.2-9.5 12.8-15.1 18.3-3.2 3.2-7.9 5.2-12.1 7.2-12.6 6-25.7 10.7-39.7 12.3-.9.1-1.9.2-2.8.2-1.6.3-3.1.3-5.1.3z"/></svg>