<svg enable-background="new 0 0 400 400" viewBox="0 0 400 400" xmlns="http://www.w3.org/2000/svg"><g fill="#010102"><path d="m173.02 243.49c-3.95 6.35-10.35 4.15-16.43 3.86-2.44-.12-5.16.15-7.32 1.16-3.04 1.42-5.6 1.8-8.3-.38-.58-.47-1.38-.68-2.75-1.33-3.77 8.06-8.17 15.78-10.88 24.05-1.16 3.52.37 7.96-3.11 11.11-.39.36-.16 1.52-.05 2.29.42 2.98-.68 5.31-2.55 7.63-1.43 1.76-2.48 3.96-3.21 6.12-1.57 4.66-2.89 9.4-4.16 14.15-.71 2.65-1.55 5.04-4.14 6.55-.75.44-1.38 1.82-1.33 2.73.18 3.71-1.22 6.77-3.39 9.58-3.69 4.79-6.28 9.96-6.54 16.2-.06 1.4-1.18 3.12-2.33 4.05-8.44 6.82-16.8 13.79-25.67 20.01-3.17 2.23-7.68 2.58-11.6 3.69-.37.11-1.03-.36-1.4-.72-5.94-5.71-8.87-11.86-6.06-19.51 1.14-3.1 3.46-5.75 5.07-8.7.66-1.21 1.18-2.65 1.23-4.01.11-2.8.96-4.86 3.58-6.28 3.09-1.67 4.98-4.29 5.51-7.94.63-4.31 1.51-8.59 2.48-12.84.23-1.03 1.06-2.48 1.92-2.73 9.56-2.85 12.85-10.9 15.56-19.1 1.3-3.92 3.15-6.92 6.33-9.45 1.2-.95 2.15-2.87 2.25-4.41.46-7.1 1.79-13.8 5.43-20.13 2.23-3.89 3.42-8.42 4.73-12.77 1.29-4.27 1.9-8.76 3.25-13.01 1.95-6.1 1.06-12.18.43-18.26-.61-5.93-.88-11.77 1.27-17.51 1.02-2.71 1.88-5.52 2.44-8.36.39-1.97.59-4.18.09-6.08-.82-3.14-1.09-6.06.14-9.16 1.03-2.59.75-5.06-1.89-6.74-2.2-1.4-2.75-3.42-2.14-5.83.83-3.25 1.61-6.51 2.64-9.7.3-.92 1.29-1.77 2.18-2.31 3.72-2.27 7.48-4.49 11.31-6.57 1.11-.6 2.59-1.09 3.78-.91 11.69 1.8 22.62-1.22 33.32-5.29 5.59-2.13 11.26-1.53 16.9-1.1 18.51 1.39 36.85-.8 55.25-2.08 10.33-.72 20.7-2.49 30.96.44 1.99.57 4.21 1.17 5.68 2.49 2.98 2.66 6.21 3.32 9.9 2.52 2.54-.56 4.54-.02 6.15 2.13 2.75 3.66 6.63 5.52 10.96 6.62 1.95.5 3.89 1.03 5.79 1.69 4.99 1.74 6.47 3.87 6.45 9.15-.03 6.67.98 13.58-2.63 19.67-3.1 5.22-3.96 10.77-4.02 16.66-.02 1.95-.67 3.97-1.37 5.84-2.78 7.43-5.76 14.78-8.52 22.22-.68 1.83-1.55 2.89-3.56 2.73-4.81-.38-8.52 1.9-12.57 4.22-6.46 3.7-13.37 6.75-20.38 9.26-3.38 1.21-7.49 1.06-11.15.61-4.15-.51-7.98-.44-11.67 1.6-2.57 1.42-5.23 1.78-8.05.76-6.97-2.51-13.94-.74-20.88.16-8.87 1.15-17.71 2.59-26.6 3.5-1.9.19-3.97-1.36-6.33-2.24zm103.92-45.37c-10.86-1.25-21.62-2.51-32.37-3.7-.83-.09-1.84.12-2.55.55-5.61 3.36-11.39 2.95-17.38 1.22-3.32-.96-6.76-1.51-10.15-2.22-.65-.14-1.49-.49-1.95-.23-5.09 2.87-10.5 1.06-15.77 1.35-5.07.28-10.07 1.78-15.13 2.58-8.88 1.41-18.03 1.58-26.16 6.23-.93.53-2.63.34-3.71-.12-7.36-3.19-15.65-.74-19.95 6.1-.27.43-.43 1.05-.39 1.56.19 2.68.27 5.39.77 8.02.51 2.7 1.67 4.72 5.24 3.89 3.25-.76 6.64-.92 9.97-1.3 6.84-.79 13.67-2.26 20.5.39 1.15.45 2.9.05 4.11-.51 4.53-2.1 9.24-3.17 14.22-3.3 11.82-.29 23.64-2.02 35.47.11 1.92.35 4.37.55 5.91-.34 4.04-2.32 8.43-1.69 12.65-2.31 1.94-.29 4.11-.31 5.94.27 5.27 1.68 10.08.96 14.74-1.81 2.4-1.43 4.75-3.56 7.34-3.94 7.18-1.05 8.62-5.74 8.65-11.74 0-.32 0-.64 0-.75zm-141.2-12.84c2.93-3.81 7.41-3.24 11.54-3.73 8.07-.95 16.31-.9 23.82-4.78 1.09-.56 2.73-.06 4.11-.05.59.01 1.34.26 1.73-.01 4-2.74 8.38-2.43 12.91-2.11 7.33.51 14.7.84 22.05.85 6.8.01 13.66-1.22 20.38-.62 12.13 1.08 24.18 3.07 36.24 4.78 3.22.46 5.74-1.08 7.13-3.36 3.65-5.98-.2-15.76-6.99-17.54-3.31-.87-7.12-.9-10.5-.26-15.39 2.93-30.78 3.85-46.35 1.82-1.82-.24-3.8.83-5.72 1.15-1.06.18-2.95.41-3.14 0-1.23-2.67-3.4-2.05-5.45-1.92-2.79.18-5.57.47-8.37.6-10.95.54-22.13-.66-32.44 4.57-2.97 1.5-6.12 1.63-9.45.84-1.3-.3-3.21.41-4.33 1.3-2.98 2.36-5.67 5.07-8.48 7.63-3.91 3.55-3.53 7.43 1.31 10.84z"/><path d="m68.74 104.88c.53-1.11 1.02-2.24 1.61-3.32.49-.9.9-1.99 1.66-2.57 2.71-2.05 5.6-3.87 8.34-5.88 1.07-.79 2.04-1.77 2.91-2.78 4.43-5.15 9.86-8.58 16.55-10.05 1.35-.3 2.51-1.41 3.07-1.74 2-.67 3.49-.82 4.51-1.6 1.68-1.27 3.19-2.83 4.53-4.47 3.39-4.15 7.56-6.59 12.93-7.55 2.14-.38 4.01-2.51 5.9-3.98 1.2-.93 1.98-2.43 3.96-1.22.58.36 1.89-.2 2.75-.6 10.51-4.89 19.83-11.69 29.02-18.63 1.5-1.14 1.94-3.61 3.09-5.32 1.2-1.78 2.34-4.1 4.1-4.91 4.23-1.96 8.77-3.25 13.25-4.61.92-.28 2.19.18 3.18.58 9.1 3.73 18.35 7.16 27.2 11.42 5.64 2.71 11.44 5.65 14.9 11.47.43.73 1.55 1.2 2.44 1.47 5.76 1.79 11.5 3.7 17.36 5.1 2.12.51 4.55-.45 6.83-.39 1.49.04 3.04.53 4.43 1.13 1.6.69 2.97 1.96 4.6 2.55 3.77 1.39 7.61 2.62 11.48 3.73 6.47 1.86 11.9 5.41 17.19 9.5 3.64 2.81 8.03 4.63 12.02 7.01 3.83 2.28 7.7 4.53 11.32 7.12 4.61 3.3 9.33 6.03 15.15 6.53.8.07 2.01 1.36 2.12 2.21.61 4.48 1.35 8.65 5.3 11.78 2.14 1.7.83 4.38-.12 6.54-.85 1.94-2.1 3.73-2.76 5.72-2.04 6.19-7.27 5.98-12.63 3.35-.89-.43-1.6-1.25-2.51-1.63-5.54-2.32-11.17-4.45-16.66-6.89-4.26-1.89-8.31-4.26-12.55-6.19-1.25-.57-3.13-.97-4.24-.44-5.34 2.52-10.74 2.71-16.3 1.18-1.8-.49-3.07-.05-3.83 1.65-2.77 6.11-7.45 7.44-13.86 6.67-6.86-.82-13.85-.44-20.79-.56-.77-.01-1.66-.07-2.31.26-4.44 2.22-8.72 2.12-13.01-.44-.6-.36-1.83-.25-2.46.14-4.16 2.61-8.73 2.66-13.27 1.96-9.19-1.42-18.08.68-26.91 2.4-6.02 1.17-11.46.9-16.74-2.11-2.94-1.68-5.99-1.57-9.05-.62-2.97.92-5.79.76-8.35-.96-3.96-2.65-8.21-2.33-12.56-1.58-4.21.72-7.98.36-12.19-1.47-3.52-1.53-8.72-1.62-12.28-.17-12.7 5.17-24.62 1.5-36.72-1.72-4.39-1.17-2.22-4.61-2.74-7.12.35.04.74.04 1.14.05zm166.75-16.81c-.03-.5-.07-1.01-.1-1.51-1.31-.8-2.54-1.84-3.95-2.37-5.11-1.91-10.36-3.49-15.42-5.52-3.99-1.6-8.15-3.2-11.59-5.69-3.9-2.83-4.19-3.34-8.28-.89-1.14-.84-2.29-1.72-3.47-2.56-3.49-2.49-7.83-1.99-11.22.44-2.24 1.6-5.08 2.96-7.77 3.22-4.25.4-8 1.55-11.65 3.72-4.2 2.49-8.64 4.57-12.92 6.95-.84.47-1.82 1.38-1.99 2.23-.47 2.38-.55 4.84-.81 7.44.88.2 1.6.46 2.34.52 6.58.49 13.15 1.04 19.74 1.34 1.81.08 3.89-.19 5.46-1.03 6.09-3.25 12.29-3.93 19.06-2.48 3.59.77 7.76 1.24 11.1.13 4.16-1.38 8.08-2.1 12.37-1.64 2.99.32 6.08.72 9.03.34 3.42-.45 6.72-1.72 10.07-2.64z"/><path d="m147.22 277.78c-1.59-1.47-3.05-2.82-3.78-3.5.52-3.93 1.07-7.12 1.33-10.34.29-3.52 2.77-4.98 6.23-4.05 10.01 2.68 19.99 5.7 30.18 7.4 5.21.87 10.86-.71 16.3-1.34 12.88-1.5 25.72-3.49 38.64-4.51 7.42-.58 14.95.45 22.43.54 1.64.02 3.68-.4 4.87-1.41 9.54-8.15 20.57-13.26 32.57-16.52 2.15-.59 4.24-1.41 6.35-2.12 5.8-1.95 11.54 1.76 11.89 7.96.13 2.28-.26 4.73-1.02 6.89-2.24 6.38-4.02 12.79-3.71 19.64.04.79-.29 1.86-.84 2.39-5.84 5.52-8.67 12.78-10.98 20.11-2.53 8-8.37 13.63-12.95 20.18-.36.51-1.04.82-1.61 1.15-11.81 6.56-23.6 13.16-35.46 19.63-3.03 1.66-6.24 3-9.42 4.36-.99.42-2.25.83-3.21.57-2.7-.72-4.99-.74-6.8 1.8-.29.41-1.24.58-1.85.51-5.11-.58-9.58 1.63-14.31 2.92-3.35.92-6.98.97-10.5 1.1-3.23.12-6.51.04-9.71-.35-2.37-.29-4.66-1.23-6.57-1.77-2.06 1.86-3.89 4.84-6.25 5.36-4.04.89-9.27 1.74-12.47-.08-6.55-3.72-14.5-5.75-18.37-13.67-4.79-9.8-9.18-19.63-10.51-30.57-.4-3.28-.2-6.19 2.04-9.1 1.22-1.58.86-4.38 1.22-6.63.29-1.83-.93-4.12 1.63-5.27.2-.09.37-.64.29-.89-1.56-4.51 2.17-6.87 4.35-10.39zm117.27 13.27c-2.74 0-5.09-.14-7.41.02-9.52.66-18.94.69-28.08-2.72-.88-.33-2.62-.01-3.16.66-2.16 2.65-4.36 2.14-7.1 1.07-2.48-.97-5.25-1.7-7.89-1.69-4.87.01-9.73.65-14.6 1-3.87.28-7.84.07-11.59.87-5.83 1.23-11.52 2.57-17.33.09-.55-.23-1.24-.11-1.96-.16-1.35 3.98-2.82 7.73-3.85 11.59-.49 1.84-.57 4.01-.1 5.84 1.68 6.47 5.69 9.2 12.36 9.7 4.96.37 9.94 1.17 14.76 2.37 1.88.47 3.06.93 4.73-.43.83-.67 2.72-.85 3.7-.37 2.8 1.35 5.48 2.06 8.66 1.6 14.71-2.1 29.46-3.99 44.17-6.06 1.67-.24 3.55-.8 4.8-1.85 3.43-2.86 6.63-6.01 9.78-9.18.75-.75 1.33-2.1 1.27-3.13-.18-2.99-.72-5.97-1.16-9.22z"/></g><path d="m385.2 377.6.6-.7c.6.4 1.3.9 1.9 1.5l-.6.7c-.8-.5-1.4-1-1.9-1.5zm.3 7.1c.6-1.4 1.1-2.9 1.5-4.5.3.1.6.3.9.4-.5 1.4-1 2.9-1.5 4.4zm.2-10.1.6-.6c.7.5 1.3 1.1 1.9 1.6l-.7.7c-.6-.6-1.2-1.2-1.8-1.7zm8.4-.8h.8v.9h1.8v.7h-1.8v1.8h-.8v-.3h-1.2v.9h3.3v2.6h-.8v-.4h-2.5c0 .3 0 .6-.1.8h3.4v.7h-3.5c0 .3-.1.6-.1.8h4v.7h-3.5c.7.9 1.9 1.3 3.6 1.5-.2.2-.4.5-.6.9-1.9-.3-3.2-1.1-3.8-2.3-.5 1.1-1.8 2-3.9 2.4-.2-.3-.4-.5-.6-.8 1.9-.4 3.1-.9 3.6-1.7h-3.2v-.7h3.5c.1-.2.1-.5.2-.8h-3.3v-.7h3.4c0-.2 0-.5 0-.8h-2.4v.3h-.8v-2.6h3.3v-.9h-1.2v.3h-.8v-1.8h-1.8v-.7h1.8v-.9h.8v.9h3.2zm-4.4 5.5h2.4c0-.3 0-.6 0-.9h-2.4zm1.2-3.1h3.2v-.8h-3.2zm4.4 2.2h-2.4v.9h2.5v-.9z" fill="#fcfbfa"/><path d="m389.2 385.8h.9v1.5h1.9v-1.5h.9v1.5h2.7v6h1.1v.9h-11.3v-.9h1.1v-6h2.7zm.2 8.7.5.8c-1.2.6-2.5 1.3-4 1.9-.2-.3-.3-.6-.6-.8 1.6-.6 3-1.3 4.1-1.9zm-2-4.3h1.9v-2.1h-1.9zm0 3.1h1.9v-2.2h-1.9zm2.7-3.1h1.9v-2.1h-1.9zm0 3.1h1.9v-2.2h-1.9zm2.4 1.3c1.4.6 2.7 1.2 4.1 1.8l-.5.9c-1.5-.7-2.8-1.4-4.1-1.9zm2.2-6.5h-1.9v2.1h1.9zm-1.9 5.2h1.9v-2.2h-1.9z" fill="#fcfbfa"/></svg>