<svg enable-background="new 0 0 400 400" viewBox="0 0 400 400" xmlns="http://www.w3.org/2000/svg"><path d="m198.7 212.1c0-4.6.8-8.5 3.9-11.9 8.8-9.6 17.4-19.4 23.3-31.2 4.9-9.8 9.7-19.5 11.2-30.5 1.1-7.7.4-15.1-2.1-22.5-1.5-4.3-4.6-6.7-8-9-2.7-1.8-4.2-4.2-4.3-7.3-.1-1 .7-2.4 1.5-2.9 6.8-4 14.5-5 22.1-6.2.7-.1 1.8.6 2.4 1.2 4.7 4.2 7.3 9.6 7.1 15.7-.3 7.1-1.4 14.3-2.4 21.3-.3 1.9-1.6 3.6-2.4 5.4-1 2.4-2.6 4.8-2.9 7.3-1.3 10.5-5.7 19.8-10.7 29-3 5.5-5.3 11.3-5.7 17.6-.1 1.1.6 2.5 1.4 3.4 2.5 2.7 5.1 5.3 7.8 7.9.9.8 1.9 1.9 3 2.1 6.6 1.2 11.9 4.8 16.5 9.4 2.5 2.5 5.4 4 8.8 4.7 9 1.9 17.3 5.4 24.7 11 1.3 1 3.2 1.5 5 1.7 10.1 1.2 20.2 2.2 30.3 3.3 1.1.1 2.3.5 3.3.9 8.9 3.4 17.7 6.8 26.6 10.3 3.2 1.2 4.6 5.3 3 8.3-.6 1.1-1.3 2.4-1.1 3.5.5 3.1-1 5-3.3 6.7-5.9 4.4-12.6 6.3-19.7 7.3-10.3 1.4-20.7 1.8-30.9-.3-1.4-.3-2.7-1.4-3.9-2.3-2.8-2.2-5.4-4.8-8.4-6.6-7.8-4.5-14.9-9.5-19.6-17.5-1.9-3.2-4.8-5.3-8.4-6.9-13.9-6.2-28-11.9-40.7-20.6-4.3-2.9-9.2-3.7-14.3-3.1-.7.1-1.7 0-2.1.4-3.7 2.9-7.2.9-11 .4z"/><path d="m73.7 320.8c-1.6-3.9-3.3-7.3-4.5-11-.4-1.3.2-3 .6-4.5 1.2-4.3 3.1-8.6 3.6-12.9 3-26.3.6-52.6.3-79-.1-11.5-.3-23 2-34.4.7-3.6-.1-7.6-.9-11.3-1.6-7.1-3.7-14.1-5.7-21.1-.6-1.9-1.7-3.7-2.7-5.4-3-4.8-3.8-5.1-9.2-3.7-2.3.6-4.5 1.3-6.8 1.7-3 .6-5.8 1.4-7.5 4.5-1.2 2.2-6.3 3.3-8.4 2-1-.6-1.9-2.5-1.6-3.5.6-2.1 1.6-4.2 3-5.8 8.3-9.2 16.9-18.1 25.1-27.4 3.3-3.7 6.1-7.8 8.7-12 3.1-4.9 5.8-10.1 8.5-15.2.8-1.5 1.7-1.9 3.5-1.7 7.1.6 14.3 1.1 21.5 1.5 3.3.2 6.1 5.1 4.7 8.3-1.9 4.4-4.4 8.1-9.3 9.5-1.3.4-2.6 1.8-3.2 3.1-4.4 9.4-4.2 19.3-3.2 29.3.5 4.9 1.8 9.8 2 14.8.2 3.3-.6 6.7-1.4 10-1.6 6.3-2.3 12.5.5 18.6 1.5 3.3 1 6-1.4 8.6-2 2.1-2.1 4.1-1.1 7.2 2.7 7.7 1.6 15.5-2.3 22.7-.8 1.5-.8 2.3.1 3.8 1.1 2.1 2.3 5.1 1.6 7.1-4.4 13-3.4 26.6-5.2 39.8-1.1 7.7-2.5 15.5-3.3 23.2-.3 3 0 6.5 1.3 9.2 2.9 6.2.4 12.1 0 18.1 0 .4-.6.8-1 1.1-2.6 1.4-5.2 2.9-8.3 4.8z"/><path d="m128.5 218.2c-.4 0-1.1 0-1.8-.1-9.3-.7-9.7-.8-10.9-10.7-.7-5.6.6-11.4 1.1-17 .3-3.7.1-7.5 2.8-10.8 1-1.3.7-3.6 1.2-5.5 1.1-4.4 1.8-8.9 3.6-13 4.3-10 8.9-19.9 13.9-29.5 2.7-5.1 6.2-9.9 9.8-14.4 3.9-4.9 9.5-4.4 13.3.8.5.7 1 1.4 1.3 2.1 3.1 8 8.4 14.6 14.3 20.8 2.1 2.2 2.8 4.6 3 7.6s1.5 6 2.3 9c.4 1.4 1.1 2.9.9 4.2-.6 5.6-1.4 11.1-2.2 16.7-.2 1.2-.8 2.4-1.6 3.3-2.2 2.6-4.6 5-6.8 7.5-1.1 1.3-2.8 2.4-1.8 4.6.2.3-.7 1.4-1.3 1.8-4.7 2.4-7.6 6.4-10.7 10.5-2.1 2.8-5.5 4.9-8.7 6.6-6.6 3.6-13.8 5.4-21.7 5.5zm19.8-27.7c3.3-.4 6.1-.6 8.8-1.1 1-.2 2.1-1 2.9-1.7 2.1-2 3.8-4.3 6.1-6 2.9-2.1 4.2-4.9 4.6-8.3.4-3.7 1-7.4.6-11.1-.6-5.1-1.7-10.2-3.5-15-1.5-4-5.5-5.8-9.7-7-3.5-1-5.1 1.8-7.5 3-1.1.6-2.2 1.3-3.1 2.2-1 1-2.1 2.1-2.5 3.4-2.3 6.5-4.5 13-6.4 19.6-.8 2.9-1.4 6-1.3 9 .1 4.5 2 8.6 5.2 11.6 1.2 1.4 4.1 1.1 5.8 1.4z"/></svg>