<svg enable-background="new 0 0 400 400" viewBox="0 0 400 400" xmlns="http://www.w3.org/2000/svg"><path d="m205.2 294.4c-4.3-7.6-10.7-7.5-17.4-6-5.2 1.2-10.3 2.3-15.6.8-7.6-2.2-11.6-7.6-12.9-15-1.2-6.5-2-13.2-2.4-19.8-.5-8.4-.7-16.9-.7-25.4.1-8.6.8-17.1 1.1-25.7.3-8 .3-16.1.6-24.1.1-1.4.9-3.3 2-4.2 10.2-8.7 21.9-14.3 35.3-16 2.3-.3 3.9-1.4 4.4-3.5 1.1-4.3 2.5-8.6 2.7-12.9.4-7.5-.1-15-.1-22.5 0-2.3-.9-3.9-2.9-4.3-2.8-.6-5.8-1.2-8.6-.8-4.1.5-8 2-12 3-9 2.1-14.9-1.9-15-11-.1-6.7 1-13.4 1.8-20.1.1-1 1.5-2.5 2.5-2.6 4.6-.6 9.2-1.4 13.8-.9 8.3.9 13.9-1.7 17.6-9.2 2.8-5.8 3.9-11.8 2.6-18.2-.8-3.9.5-6.6 3.9-8.5 6.6-3.6 13.3-3.9 19.9-.1 3.8 2.2 5.9 5.7 6.5 10 1 7 2.6 13.7 6.3 19.8 2.5 4.1 6.1 5.8 10.7 5.1 4.4-.6 8.7-1.7 13-2.7.6-.1 1.3-.7 1.7-1.2 4.1-5.5 6.4-11.3 5-18.4-1.3-6.6 3.7-12.8 10.3-13 .6 0 1.4.4 1.8.9 5.7 6.2 11.3 12.3 16.8 18.6.7.8.8 2.5.6 3.7-.3 1.3-1.3 2.4-2 3.6-2.2 3.5-.7 6.5 3.4 6.9 10.7 1.1 21.5 1.7 32.1 3.6 5 .9 10 3.6 14.2 6.6 2.3 1.6 3.6 5.5 4.1 8.6 1 6.7 1.8 13.5 1.6 20.2-.3 13.2-1.5 26.4-1.8 39.6-.1 4.5 1.5 9.1 2.4 13.7.1.7.3 1.4.5 2.2 1.3 6.1 1.2 6-4.4 8.9-7.8 4-16.3 4.2-24.7 4.8-8.8.6-17.7 2.3-26.6.7-2-.3-2.5.7-2.8 2.4-.8 5.4-1.8 10.8-2.6 16.3-.6 4-1.4 7.8-4 11.2-.7.9-.7 2.6-.4 3.7.7 3 1.8 5.9 2.7 8.8 1.2 3.9.3 6.6-3.2 8.6-3.1 1.8-2.6 4.5-2.4 7.2.2 2.5 1 4.4 4 5.1 10.3 2.5 20.7 2.9 31.2 2.5 5.2-.2 10.4-.7 15.5-.3 11.9 1.1 15.3 9.2 14.6 19-.1.8-1.1 1.7-1.9 2.3-7.9 5.5-16.9 7.4-26.4 7.8-6 .3-12 .7-18 1.4-2.1.2-4.2 1.3-6.2 2.2-4.2 2-7.4 4.8-7.9 9.9-.2 1.8-.7 3.6-1.3 5.2-2.8 8-2.5 15.7.2 23.8 2.4 7.1 3.6 14.6 4.9 22 1 6.2-1.4 10.3-7.3 12.3-4.2 1.4-8.8 1.9-13.3 2.6-.8.1-1.8-1-2.6-1.6-.2-.1-.2-.4-.3-.6-5.5-7.9-7.5-16.3-3.8-25.5.4-1 .7-2.4.4-3.4-2.9-7.5-1.1-15.3-2.3-22.9-.8-5.2-1.9-10.4-3.5-15.4-1.8-5.6-6.8-7.9-14.1-6.7-4.6.8-9.3 2.1-13.6 4-4 1.8-4.7 6.2-5.5 10.2-.9 4.8-1.8 9.7-2.5 14.5-.1.7.4 1.8 1 2.3 2.5 2.5 3.4 5.3 2.3 8.7-2 5.9-1.9 11.8.3 17.7 2.4 6.3 1.3 11.7-4.4 16-4.4 3.3-8.6 6.5-14.6 5.9-7.4-.7-14.5-7.7-14.5-15.5 0-7.7 1.2-15.4 1.9-23.1 0-.4.3-.8.5-1.1 4-5.3 4.3-11.2 3.4-17.5-.9-5.7-1-11.5 4.4-15.2zm25.5-65.9c1.3 1.8 2.7 3.4 3.5 5.2 1.3 3.3 2.9 6.6 3.1 10 .5 7.5 4.1 13 13.1 11.8 8-1 13.4-5.3 14.4-13 1.4-10.1 2.5-20.4 3-30.6.3-5.7-1-11.5-1.8-17.3-.4-2.6-2.1-3.7-4.9-4-5.7-.5-11.3-2-17-2-3.2 0-6.3 2.3-9.5 3.6-1.6 7.6-3.1 15.1-1.4 22.9.9 4.8 1.3 9.4-2.5 13.4zm39.9-97.5c-1.2-3.8-2.3-8.1-3.9-12.1-1.1-2.6-3.5-4-6.5-4.3-5.3-.5-10.5-1.4-15.7-2-4.2-.5-10 3-11.5 7-2.9 8.1-3.6 16.4-2.8 25 .7 8.1 5.4 12 12.9 13.8 7 1.7 13.7.2 20.2-2.2 1.2-.5 2.8-1.8 3-3 1.6-7.1 2.8-14.3 4.3-22.2zm18.2 13c2.3 4.5 5.6 7.2 10.4 7.2 5 0 9.2 1.3 11.5 6 6.3-3.5 11.6-7.4 10.6-15.6-.1-.5.2-1 .2-1.6.3-6 1.1-12 .8-18-.3-5.8-4.8-9-9.5-11.9-3.8-2.3-6.6.2-9.7 1.4-1.2.5-2.3 1.1-3.3 1.8-4.7 3-7.2 7.1-5.9 12.8 1.7 7 .3 13-5.1 17.9zm-101.7 117.6c2.4-2.2 4.3-5.5 6.7-5.9 7.6-1.3 9.8-5.5 8.9-12.4-.1-.5.1-1.1.1-1.6.1-10.1.5-20.3.2-30.4-.2-6.3-2.3-12.2-7.2-16.6-3 1.5-5.9 2.8-8.7 4.4-.9.5-1.9 1.7-2.1 2.8-.5 2.6-1.1 5.3-.8 7.9.4 3 2.3 5.8 2.6 8.8.4 3-1 6.3-.5 9.3.8 4.2 2.3 8.2-1 12-.3.4-.2 1.2-.3 1.9-.3 3.5-.5 7-.8 10.4 0 3.4.7 6.6 2.9 9.4z"/><path d="m120.8 42.6c1.5 4.3 3 8.4 4.2 12.5.6 2.2 1.7 3.8 4 4.4 2.7.7 3.7 2.5 4 5.3.5 5.7 1.6 11.3 2.3 17 .1.9-.4 2.3-1.1 2.9-3.1 2.5-3.8 5.6-3.4 9.4.3 2.2.8 3.8 3.9 3.1-5 11.6-3.9 23.8-6.1 35.5-.3 1.7-.6 3.4-.3 5.1 1.2 6.1-.3 12.1-.4 18.1 0 3-1.5 6.1-2.4 9.7 4.6 3.8 1.9 10.5 4.4 15.7.2.4-.3 1.1-.6 1.7-1.3 3-3 5.8-3.8 8.9-2.1 8.6-2.1 17.3-.7 26.1 2.4 15.2 1.9 30.6 1.5 46-.2 6-.1 12.1-.3 18.1 0 1.4-.3 3.1-1.2 4.1-3.1 3.4-3.6 7.5-3.7 11.8 0 1.7 0 3.4-.3 5.1-.5 2.6-.2 4.8 2.6 6.3-2.2 2.5-1.7 4.8 0 7.2 1.3 1.8 1.4 3.7.6 5.9-2.1 5.9-4.1 11.8-5.9 17.8-.6 1.9-1.6 2.7-3.4 3.1-3.9.9-7.8 1.8-11.7 3-2 .6-3 .1-4-1.7-5.5-10.3-6.6-21.3-5.1-32.7 1.3-9.7 2.9-19.5 4.1-29.2.3-2.5-.2-5.2-.7-7.8-.8-4.8-1.9-9.5-2.7-14.3-.3-1.5-.2-3.2.1-4.7 1-4.8 2.5-9.4 3.3-14.2.7-4 1.3-8.2 1-12.2-1-13.1.2-26 1.3-39 1.8-21.5 3.6-43 5.3-64.6.3-3.6-.4-7.4-1-11-1.4-8.4-.4-16.7 1.1-24.9 1.5-7.9-1-13.7-7.7-17.8-1-.6-2.6-.9-3.8-.7-4.1.7-8.1 1.6-12.1 2.5-3.1.7-6.3 5.7-5 8.4 2.5 5.4 1.5 10.5.4 16-1 4.8-.7 9.8-.4 14.8.2 3.5.1 6.6-1.9 9.7-.7 1-.9 3-.4 4 2.8 5.6 2.3 11.2 1 16.9-.4 1.9-.5 3.8-1 5.6-3 10.9-.4 21.6.2 32.5.1 2-.2 4.2-.7 6.2-1.7 7.2-4.4 14.2-5.1 21.5-.6 6.5.8 13.3 1.4 19.9 1.1 11.4 2.7 22.7 3.2 34.1.3 5.6-1.3 11.3-1.9 17-1 10.5-1.9 21.1-2.8 31.6-.2 2 .3 4 .3 6-.1 3.2 1.1 5.7 3.8 7.5 3 2 2.3 5.2 2.1 8.1 0 .6-1.1 1.2-1.8 1.5-5.8 2.6-11.9 3.5-18.3 3-2.3-.2-3.6-1.3-4.8-3.5-6.9-13.1-8.9-27.3-7.7-41.6 2.9-35.2 2-70.4 2.8-105.7 0-1 0-2.3.6-3 4.2-5.6 3.9-11.9 2.8-18.3-1-6-2.7-12-3.3-18.1-1.2-12 .8-23.8 4.2-35.4 3.1-10.5 3.8-21.2 2.2-32-.1-1-.5-2.2-1.2-2.7-6.6-5-8.6-12.3-9.9-19.9-.2-1.5-.3-2.9-.3-4.4-.2-6.6 3.4-10.4 9.4-12.1 3.5-1 7.2-1.7 10.8-2.4 2.5-.5 5.2-.4 7.5-1.3 10.6-4.2 21-1 31.5.2 4.9.6 9.4 1.5 13.6 4.6 1.7.8 4.7-.2 7.4-.2z"/></svg>