<svg enable-background="new 0 0 400 400" viewBox="0 0 400 400" xmlns="http://www.w3.org/2000/svg"><path d="m219.7 194.4c-1.4.3-2.2.5-3 .7-.7 1.7 1.7 8.1 3.4 8.6 2 .5 4.4 1.3 6.1.6 9.4-3.3 19.2-2.9 28.9-3.4 14-.8 28.1-1.3 42.2-2 1.2-.1 2.5-.9 3.4-1.7 1.9-1.8 3.6-3.9 5.3-5.9 3.2-3.5 10.7-5 14.9-2.8.6.3.9 1.3 1.1 2 .6 3.7.9 7.4 1.6 11 .2 1.2 1.3 2.6 2.4 3.1 6.5 3.2 13.6 4.5 20.8 5 6.5.5 11 3.8 13.1 9.8 1.4 4.1 1.9 8.6 2.7 13 .2.9-.4 2-.9 2.9-.9 1.8-2 3.5-3.1 5.3 3.3 1.7 2.7 3.9.9 6.3-1.3 1.7-2.7 3.2-3.9 4.9-1.5 2-3.5 3.9-4.3 6.2-4.2 11.9-13.1 18.3-24.7 21.8-7.2 2.2-14.4 4.4-22.1 3.3-3.8-.5-5.5-4.6-3.8-8 4.6-9.4 11.7-17.1 17.6-25.5 6.1-8.6 9.2-18.2 9.4-28.8 0-2-.6-2.7-2.4-3.3-9.4-2.9-19-3.5-28.6-2.3-10.2 1.3-20.3 1.1-30.4 0-14.5-1.5-29-1.1-43.2 1.9-4.3.9-8 4.2-11.3 6 .9 3.3 1.8 5.6 2.1 8 .4 3.2 2.2 5.3 5.2 5.4 5.7.1 11.6.7 16.9-.7 11.6-3 23-4.3 34.8-1.3 1.4.4 3.3-.4 4.6.1 1.6.7 2.8 2.1 4.1 3.7-7.8.8-13.5 5.4-19.9 8.6-3.7 1.9-7.1 3.6-11.7 2.5-2.7-.6-5.8.8-8.7 1.3-11.7 2.2-23.4 3.9-35.3 1.7-1.7-.3-2.5-1-3-2.6-2.4-7.7-5-15.3-7.3-23-.7-2.3-2-3.6-4.1-3.7-3.5-.2-7.2-.3-10.6.4-6.5 1.3-12.9 3.2-19.3 4.9-.8.2-1.5.7-2.3 1-3.1 1.3-6.3 2.4-9.3 3.8-2 .9-4.4 1.8-5.8 3.4-2.5 3-2 4.9 1.2 7.2 1.5 1 3.1 1.9 4.4 3.1 4.2 4.4 9.3 4.3 14.6 3.2 2.4-.5 4.8-.9 7.2-1.4 6-1.2 10.1 1.2 12.6 7.5-9 4.7-18 9.5-27.2 14-4 2-7.6.9-11.5-1.6-11.7-7.6-19.4-18-24.1-30.9-.1-.4-.3-.8-.3-1.2-1.8-9.2-1.4-9.9 7.4-12.5 14.1-4.1 28.1-8.6 42.3-12.2 7-1.8 14.4-1.9 21.7-2.6 4.2-.4 7.2-2.4 8.2-6.3 1-3.5 1.3-7.3 1.5-10.9.1-.8-1.2-2.1-2.1-2.5-6.6-3-13.6-3-20.5-1.6-6.2 1.3-12.3 3.2-18.5 4.3-3.2.5-6.8.3-10-.5-4.2-1.1-6.2-5.1-5.4-9.4.9-5 1.8-10 2.9-14.9.5-2.1 1.4-4.2 2.6-6 3.3-5.2 3.7-10.9 3.9-16.8.1-1.8 0-3.6.3-5.4 1.7-12 6.4-17.5 19.4-20.1 12.7-2.6 25.8-3.4 38.6-5.4 28.5-4.4 57.2-6.4 85.9-8 7.2-.4 14 1 18.7 7.3 4.5 6 5 12.8 3.6 19.9-.2.9-1.1 1.5-1.5 2.4-1.4 2.9-3 5.8-4.1 8.8-.8 2.1-1.5 3.9-4 4.2-2.9.4-4.7 2.2-6.3 4.7-4.6 7.4-9.6 14.5-14.2 21.8-3.4 5.4-8.1 7.2-14.2 6.8-11.2-.7-22.4-1.4-33.6-1.7-8-.2-15.8.8-23 4.8-4 2.2-4.2 3.7-1 6.9.9.7 1.3 1.6 2 2.8zm.1-60.8c1.6 1 2.7 1.9 3.9 2.3 11.6 4.5 23.7 5.2 35.9 4.4 7.6-.5 15.2-.9 22.3-4.1 2.3-1 3.8-5.1 3.2-8.5-.5-3-2.8-3.5-5.2-3.6-10.6-.5-21.3-1.3-31.9 0-4.3.5-8.9.1-12.8 1.5-5.2 1.8-9.8 5-15.4 8zm-56.9 37.5c2.7 1.7 4.7 3.6 7.1 4.3 10.9 2.8 21.3 1.8 31.1-4.3 3.3-2.1 4.4-4.9 4.8-8.3.3-2.8-1-4.8-3.8-5.4-7.4-1.7-14.5-2.9-21.3 2.5-5.3 4.1-11.5 7.2-17.9 11.2zm61.9-9.3c3.4 7.8 1.6 6.2 9 5.8 11-.6 21.9-1.5 32.9-2.3 2.8-.2 7.5-4.4 7.7-7.2.2-2.4-.7-4.3-3.2-4.8-1.5-.3-3.2-.3-4.6.2-7.5 2.5-15.2 3.5-23.1 3.5-6.4.1-12.6 1.7-18.7 4.8zm-34.7-18.1c.1.3.2.5.3.8 3.4-1.2 7.1-1.9 10.3-3.6 4.4-2.3 4.2-7.9-.1-10.6-4.8-3.2-13.3-2.3-17.3 1.8-.3.3-.6.9-.7 1.4-2.5 8.4-1.1 10.2 7.5 10.2z"/><path d="m32.2 178.1c3-2.1 5.8-4.5 9-6.3 10.7-5.9 20.1-13.3 28.8-21.7 3.9-3.8 7.9-7.6 12.2-11.2 7.3-6.1 12.9-13.4 17.2-21.8 3.1-6.1 8-9.7 14.6-11.1.8-.2 2-.2 2.6.2 7.2 5.8 13.4 12.3 14.6 22.1.2 1.8.1 3.1-1.9 4-3.4 1.7-5.4 4.8-6.2 8.4-1.3 5.7-4.7 9.1-9.9 11.8-9.2 4.7-18.1 10.1-27.1 15.2-3 1.7-4.9 5-3.5 7.9 3.2 6.7 2.9 14 4.1 21.1 1.4 8.5 3.4 17.1 4 25.7.5 7.1.4 13.9 4.2 20.4 2.5 4.3 1.7 9.5.4 14.5-2.1 8.1-3.6 16.3-5.2 24.5-2.1 10.7-13 15.8-22.4 10.3-.6-.3-.9-1.3-1-2.1-.7-9.3-1.4-18.6-1.7-27.9-.1-2.3 1-4.7 1.6-7.1 3-12.3 2.4-24.8 2.4-37.3 0-6.5.5-12.9.1-19.3-.3-4.4-1.3-8.8-2.8-12.9-2.1-5.8-5.2-7.4-12.1-6-3.1.6-6.1 2.3-9.1 3.6-5.9 2.6-10.2 1-12.9-5z"/></svg>