<svg enable-background="new 0 0 400 400" viewBox="0 0 400 400" xmlns="http://www.w3.org/2000/svg"><path d="m325 321.7c-12.6 4-23.1 12.4-36.3 13.2-7.2.4-14.6-.1-21.8-1-6.5-.8-12.3-.1-18.3 2.8-8.5 4.1-17.3 8-26.3 11-6.1 2-12.8 2.5-19.3 3.3-12.3 1.6-23.9 5.4-35.4 9.7-7.8 2.9-15.9 4.3-24.2 4.5-1.8-5.2-1.8-5.3 2.5-8.3 9.8-7 21.1-10.1 32.5-13 12.5-3.2 25-6.4 37.4-9.7 2.1-.6 4.3-1.5 5.8-3 1-.9 1.2-3.1 1.1-4.6 0-.6-1.9-1.4-3-1.5-4.8-.6-9.7-.7-14.5-1.5-10.2-1.7-12.2-5.5-11.4-13.7.4-4.2 1.6-8.3 2.5-12.4.2-.7.4-1.4.5-2.2.9-5.8.4-6.5-5.4-6.1-14.9 1-29.5-2.2-44.2-3.4-5.4-.5-10.8-.4-16.1-.8-2.1-.2-4.4-.6-6.1-1.7-1.6-1-1.9-2.8.5-4.2 11.1-6.4 22.9-10 35.9-10.3 10.3-.2 20.7-1.7 31-2.5 8.3-.6 16.7-1 25-1.6 1.1-.1 2.5-.6 3.3-1.4 9.8-11.3 19.5-22.6 29.2-34 .3-.4.5-.9 1.2-2.1-4.4-1-8.5-2.7-12.6-2.7-9.6 0-19.2.8-28.8 1.4-1.2.1-2.5.7-3.4 1.4-4.5 3.8-9.4 3.4-14.3 1.5-.8-.3-1.5-1.4-1.9-2.3-3.7-8.3-3.3-16.9-2.2-25.6 1.5-11.1 4.5-21.7 9.6-31.7 1.9-3.7 3.3-7.8 4-11.9 1.1-6.3-2.2-9.7-8.6-9.3-3.5.2-6.9.8-10.4 1.5-1.9.4-3.3-.1-4.4-1.6-3.1-4.4-7.3-6.5-12.6-7-4.1-.4-6-3.5-7.5-7.2 5.3-2.8 11.1-3.5 16.8-3.9 5.8-.5 11.7-.4 17.4-1.4 7-1.2 9.6-6 7.7-12.9-.1-.4-.2-.8-.4-1.2-2.7-5.7-2-11 .4-16.9 1.8-4.2 1.4-9.3 1.9-14 .4-4.4.9-8.9.8-13.3-.1-5.7 2.1-10.5 5.3-14.9.6-.9 2.3-1.3 3.5-1.4 9.5-.1 19.1-.1 28.6-.1 5.2 0 8.5-2.9 9.1-8.1.5-4.3 1.5-8.2 5.6-10.3.8-.4 2.2-.5 3 0 3.3 1.7 5.4 4.5 6.3 8 1.6 6 5.2 9.1 11.4 9.6 8.6.7 17.3 1.4 25.9 2.4 4.8.6 9.8 1.1 14.2 2.9 8.5 3.6 12.9 12 12 21.8-.8 8.2-2.3 16.3-3.1 24.5-.5 5.2-.7 10.6-.2 15.8.8 9.2 7.9 13.1 14.2 14.5 1.9.4 3.8.5 5.7.7 5.8.7 10.4 5.8 10.2 11.5 0 .8-1.2 2.1-2 2.3-5.7 1.4-11.5 2.6-17.2 3.8-2.5.5-5 .7-7.5 1.3-4.7 1.1-5.9 2.8-5.6 7.6.5 7.7 1.3 15.4 1.2 23.1-.1 5.5-.6 11.3-2.3 16.5-3.3 10.4-11.6 15.5-21.8 17.6-7.3 1.5-14.8 2.5-22.2 3.8-1.7.3-3.5.9-5.1 1.7-2.9 1.4-3.1 3.8-1.3 6.5 1 1.6 1.2 3.7 2 5.5.9 2.2 1.5 4.8 3.1 6.2 6.3 5.5 11.5 11.8 15.2 19.3.9 1.7 2 2.4 4 2.3 18.1-.8 36.2-1.4 54.2-2.2 6.1-.3 11 2.7 12.7 8.6.2.8-.4 2.1-1.1 2.8-7.5 8.3-17.6 10.3-28 11.7-13 1.8-26.1 2.2-39.3 1.4-2.4-.1-4.8.3-7.2.7-3.2.5-5.1 2.2-6 5.6-1.4 5.6-3.3 11.1-5 16.9 6.3 2.2 12.6 1.7 19 1.2 4-.3 8-1 12-1 8.3-.3 14.2 4 18.9 11.5zm-109.2-167.6c1.8 4.5 3.5 8.9 5.3 13.3.3.7 1.4 1.4 2.1 1.5 6 .4 12 1.1 18 .7 13.6-.7 27.2-2 40.8-3.1 1-.1 2.2-.3 2.8-.9 2.5-2.4 4.7-5 7.2-7.7-3.3-3-6.9-4.4-11.1-4.6-15.2-.7-30.4-1.2-45.6-2.3-6.7-.6-13 .2-19.5 3.1zm23.9 48.1c12.6-1.2 24.8-2.2 37-3.5 1.5-.2 3.5-1.1 4.3-2.2 1-1.4 1.5-3.5 1.2-5.2-.2-1-2.2-1.9-3.5-2.5-1.1-.5-2.5-.5-3.7-.6-12-.6-24.1-1.3-36.1-1.8-4.9-.2-9.9-.2-14.8.4-6.9.9-7.4 1.8-8.4 8.5-.4 2.8.7 4.5 3.6 4.8 6.8.8 13.7 1.4 20.4 2.1zm.4 85.6c-3 .6-7.1 1-11.1 2.1-4.5 1.3-8.1 8.5-6.4 12.9.6 1.5 2 3.1 3.4 3.7 3.4 1.4 7 2.3 10.6 3.2 3.3.9 6.5.1 8.9-2.2 4.5-4.1 5.6-9.7 5.8-15.5 0-.9-1.7-2.4-2.9-2.8-2.3-.7-4.8-.8-8.3-1.4zm33.3-169c.3 1.5.8 3.8 1.4 6 .7 2.4 2.5 3.7 4.9 4.3 8.8 2.2 14.8-2.1 15.6-11.6.3-3.9-.8-6.2-4.6-7.3-3.5-1-7.2-1.5-10.9-1.6-2.9 0-5.5 1.2-5.8 4.9 0 1.6-.3 3-.6 5.3zm-36.6-10.4c-1.1 0-2.5-.4-3.6.1-2.1 1-5.1 2-5.7 3.7-1 3-.9 6.6-.6 9.9.2 1.6 1.8 3.9 3.1 4.2 4.1.9 8.4 1.5 12.5 1.2 6.1-.6 6.7-1.9 5.9-7.9 0-.2 0-.4-.1-.6-1.2-9.5-1.7-10-11.5-10.6zm44.6-18.4c.1.2.2.4.2.6 4.2-1.2 8.5-2.2 12.6-3.7.8-.3 1.6-2.2 1.5-3.2-.5-3.8-2.9-6-6.7-6.4-4.3-.5-8.6-.8-12.9-1.3-3.7-.5-6.6 1.3-7.1 4.6-.8 5 .8 7.9 4.9 8.5 2.5.5 5 .6 7.5.9zm-37.2-.6c-.5-3.4-1.1-6.6-1.6-9.8-.4-2.7-2.2-4.1-4.7-4.5-2.3-.3-4.7-.5-6.9 0-1.4.3-3.4 2-3.5 3.2-.3 3.6.3 7.3.5 11 5.6.1 10.9.1 16.2.1zm10.7 175.1c1.2-.6 2.2-1 3.4-1.6-.4-.9-.8-1.8-1.4-2.9-1.2 1.4-4.1 1.4-2 4.5z"/><path d="m60.9 273c3.1-5.1 6.4-10.1 9.3-15.2 3.9-6.7 8.2-13.4 11.3-20.4 6.2-13.9 12.3-27.8 17.6-42.1 8.8-23.9 14.1-48.7 14.4-74.4.1-6.3.6-12.7 1-19 .2-4.1-1.7-6.6-5.6-5.6-4.9 1.2-10.1 2.8-14.2 5.7-15.6 11.2-32.3 19.7-51.6 21.9-3.5.4-7.1-.4-10.6-.7-.1-.4-.2-.7-.3-1.1 5.5-4.7 10.7-9.9 16.6-14.1 15.5-11.1 31.2-21.8 47-32.4 5.9-4 11.2-8.6 15.1-14.7 3.5-5.5 8.7-8.1 14.9-9.2 5-.9 10.8 3.5 11.8 9.3.9 5.2 1.2 10.5 1.8 15.7.1 1.2.2 2.3.6 3.4 2.3 6.7 2.2 13.6 2 20.6s.9 14.1 1.3 21.2c.9 16.6-1.6 32.9-5.5 49-2 8.2-3.4 16.8-7 24.3-6 12.5-10 26.5-22.1 35.2-5.8 4.2-9.6 9.9-12.6 16.3-6.1 12.8-17.1 20-29.5 25.6-1.5.7-3.2.9-4.8 1.3-.2 0-.6-.3-.9-.6z"/></svg>