<svg enable-background="new 0 0 400 400" viewBox="0 0 400 400" xmlns="http://www.w3.org/2000/svg"><g fill="#010000"><path d="m172.52 282.43c.76-1.79 1.2-3.81 2.32-5.35 6.04-8.31 12.32-16.46 18.38-24.75 5.74-7.85 11.69-15.57 16.84-23.8 4.8-7.66 6.38-16.34 5.03-25.62-1.14-.08-2.12-.2-3.1-.2-11.31-.01-22.61-.05-33.92.05-1.31.01-3.15.41-3.83 1.31-14.36 18.9-33.94 32.02-51.84 46.98-7.56 6.31-15.44 12.25-22.87 18.7-5.81 5.04-11.26 10.52-16.71 15.98-4.92 4.92-10.21 9-17.33 10.16-1.09.18-2.09 1.15-3.04 1.88-2.49 1.89-4.85 3.96-7.41 5.74-3.57 2.47-7.6 3.07-11.86 2.4-4.16-.65-5.7-3.56-3.27-7.11 4.41-6.47 8.98-12.85 13.86-18.96 1.33-1.66 3.95-2.4 6.1-3.25 1.79-.7 2.42-1.83 2.88-3.62.44-1.69 1.3-3.57 2.57-4.71 18.46-16.63 36.97-33.21 55.59-49.66 4.77-4.22 9.91-8.03 14.96-11.91 4.17-3.21 4.95-7.24 3.22-11.94-.69-1.88-1.4-3.84-2.53-5.45-7.28-10.34-7.08-21.55-4.12-33.13 2.88-11.25 5.82-22.49 8.62-33.77.69-2.8.92-5.71 1.48-9.37 2.38 1.19 4.5 2.02 6.36 3.24 1.76 1.15 3.5 2.52 4.83 4.14 3.57 4.32 7.94 4.59 13.16 3.94 16.31-2.04 32.68-3.61 49.03-5.36.78-.08 1.58-.27 2.33-.15 13.04 2.06 25.5-2.11 38.18-3.72 4.79-.61 9.39-2.89 12.08-7.6.77-1.34 1.91-2.46 2.85-3.64 7.21 2.84 11.18 8.75 10.82 16.94-.5 11.69-2.99 22.78-10.5 32.29-4.08 5.18-7.95 10.56-11.53 16.1-7.04 10.9-16.09 20.04-24.86 29.45-1.36 1.46-2.52 3.51-2.85 5.44-2.93 16.9-7.08 33.45-13.67 49.32-.75 1.8-.6 3.16.75 4.51.63.63 1.18 1.36 1.66 2.1 5.34 8.27 12.04 14.85 21.73 17.85 1.14.35 2.14 1.2 3.16 1.88 19.94 13.24 39.8 26.61 59.86 39.67 4.53 2.95 9.78 4.8 14.64 7.26 2.17 1.1 4.38 2.23 6.27 3.73 5.89 4.64 11.74 9.34 17.38 14.28 1.63 1.43 2.96 3.58 3.62 5.65 1.46 4.59 2.43 9.22 6.73 12.35 2.12 1.54 1.36 5.94-.94 6.74-13.52 4.68-27.23 8.05-41.73 5.77-4.25-.67-8-2.23-11.75-4.46-29.21-17.45-53.85-40.72-79.74-62.38-8.13-6.8-15.51-14.51-23.29-21.74-1.96-1.82-4-3.62-6.27-5-4.76-2.89-9.69-4.05-14.65-.21-.86.66-1.91 1.08-2.87 1.61-.26-.23-.53-.42-.81-.6zm51.09-145.72c-.09-.43-.17-.85-.26-1.28-2.12 1.35-4.18 2.81-6.38 4.02-1.4.77-2.97 1.51-4.54 1.69-5.55.62-11.15.8-16.69 1.5-8.82 1.12-17.4 3.14-24.72 8.6-.94.7-2.12 1.67-2.3 2.68-.75 4.15-1.48 8.35-1.59 12.55-.09 3.41 1.55 5.81 5.24 7.19 9.81 3.67 19.87 6.33 30.28 6.92 13.99.78 25.54-3.66 31.87-17.35 1.64-3.55 3.72-6.93 5.01-10.59 1.01-2.88 1.3-6.06 1.57-9.14.2-2.21-1.09-3.37-3.45-3.57-3.78-.32-7.56-.82-11.3-1.46-.99-.17-1.83-1.15-2.74-1.76zm-70.67-1.12h6.04c-1.93-1.79-3.37-3.13-5.09-4.73-.39 1.94-.65 3.24-.95 4.73z"/><path d="m51.02 110.43c.41-4.33 2.18-6.49 4.82-8.34 4.94-3.47 9.76-7.14 14.47-10.92 4.75-3.82 9.62-7.22 15.78-8.41.92-.18 1.76-1.57 2.32-2.58 1.05-1.89 1.57-4.13 2.82-5.85 6.99-9.62 16.44-16.76 25.4-24.31 6.39-5.38 11.95-11.01 13.92-19.4.48-2.03 1.61-2.6 3.65-2.22 13.03 2.46 28.78 19.47 30.45 32.75.53 4.23-.41 7.59-4.32 9.58-3.76 1.91-7.51 3.99-11.51 5.24-7.7 2.42-15.1 5.31-22.27 9.1-17 8.97-34.1 17.92-53.09 22.07-7.28 1.59-14.76 2.2-22.44 3.29z"/><path d="m320.46 90.06c-7.51-1.6-15.1-2.88-22.49-4.91-7.21-1.97-14.23-4.65-21.29-7.13-7.52-2.64-14.86-5.72-20.83-11.18-3.54-3.24-7.31-4.41-12.15-3.65-5.33.84-6.71-.45-5.94-5.96.88-6.27 2.69-12.42 4.12-18.62.53-2.29 1.18-4.55 1.7-6.83 1.14-5 2.7-6.56 7.84-6.35 3.65.15 7.33.87 10.87 1.79 3.6.94 6.15 3.3 7.83 6.79 3.54 7.36 8.87 12.99 16.34 16.65 14.85 7.28 29.62 14.72 44.39 22.16 1.78.9 3.57 1.97 4.99 3.35 3.8 3.68 2.77 8.72-2.08 10.54-1.98.74-4.05 1.3-6.12 1.69-2.3.44-4.65.59-6.98.87-.06.27-.13.53-.2.79z"/></g><path d="m361.2 9.6.8-1c.9.7 1.9 1.4 2.9 2.3l-.9 1.1c-1-1-2-1.8-2.8-2.4zm.5 10.6c.9-2.1 1.6-4.3 2.3-6.7.4.2.8.4 1.3.6-.7 2.1-1.5 4.3-2.2 6.6zm.4-15.2.9-.9c1 .8 2 1.6 2.8 2.4l-1 1c-.9-.9-1.8-1.7-2.7-2.5zm12.5-1.2h1.2v1.4h2.7v1.1h-2.7v2.7h-1.2v-.6h-1.8v1.3h4.9v3.8h-1.2v-.5h-3.7c0 .4-.1.9-.1 1.2h5.1v1h-5.2c0 .5-.1.9-.2 1.2h6v1h-5.2c1.1 1.3 2.9 2 5.5 2.2-.4.4-.7.8-.9 1.3-2.9-.5-4.8-1.6-5.7-3.5h-.1c-.8 1.7-2.7 2.9-5.9 3.6-.2-.4-.6-.8-.9-1.1 2.8-.6 4.6-1.4 5.4-2.5h-4.8v-1h5.3c.1-.3.2-.7.2-1.2h-4.9v-1h5c0-.4 0-.8.1-1.2h-3.5v.5h-1.2v-3.8h4.9v-1.3h-1.8v.5h-1.2v-2.7h-2.7v-1h2.6v-1.4h1.2v1.4h4.7v-1.4zm-6.6 8.3h3.6c0-.4 0-.9 0-1.4h-3.6zm1.9-4.6h4.7v-1.3h-4.7zm6.6 3.2h-3.7v1.4h3.7z" fill="#fbfcfa"/><path d="m385.3 3.8h1.3v2.2h2.8v-2.2h1.3v2.2h4.1v9.1h1.7v1.3h-16.9v-1.3h1.7v-9.1h4.1v-2.2zm.4 13.1.7 1.2c-1.8.9-3.8 1.9-6 2.9-.2-.4-.5-.8-.8-1.3 2.3-1 4.3-1.9 6.1-2.8zm-3.1-6.4h2.8v-3.2h-2.8zm0 4.6h2.8v-3.3h-2.8zm4-4.6h2.8v-3.2h-2.8zm0 4.6h2.8v-3.3h-2.8zm3.7 1.9c2.1.9 4.1 1.8 6.1 2.7l-.7 1.3c-2.2-1.1-4.2-2-6.1-2.9zm3.2-9.7h-2.8v3.2h2.8zm-2.8 7.8h2.8v-3.3h-2.8z" fill="#fbfcfa"/></svg>