<svg enable-background="new 0 0 400 400" viewBox="0 0 400 400" xmlns="http://www.w3.org/2000/svg"><path d="m172.3 84.3c-4.5-2.2-4.5-5-2.2-8.1 5.7-7.7 4.4-16.7 4.3-25.4 0-2.6 1-3.6 3.2-4.8 6.4-3.5 11.6-1.1 16.6 2.6 3 2.2 4.3 5.1 4.5 9.2.4 8.7 1.8 17.4 2.7 26.2 1.5 16.1 1.9 32.1-.7 48.1-.2 1.4-.1 3 .4 4.3 3.6 8 2.1 16.3.5 24.3-1.4 7.2-4.6 14-6.6 21.2-1 3.5-1.4 7.3-1.3 10.9.2 4.5 2.4 8 6.2 10.9 42.1 32.9 84.3 65.6 126.1 99 10.6 8.5 19.6 18.9 29 28.7 3.9 4.1 6.1 9.3 7 15 .5 3.1-.4 5.2-3.3 5.9-5.6 1.4-11.3 2.5-16.9 3.6-7.1 1.4-13-.7-17.8-6.2-3-3.4-6.6-5.1-11.4-4.7-4.5.3-8.3-2.4-11.6-5.2-27.7-23.6-56.1-46.4-81.9-72.2-7.5-7.5-14.6-15.3-22.1-22.8-4.8-4.9-10-9.1-16.5-11.6-2.3-.9-4-.6-5.8 1.3-22 23-44.2 45.9-66.3 68.9-.8.8-1.7 1.6-2.6 2.3-11.8 8-23.6 16.1-35.4 24.1-9.1 6.1-18.9 10.9-29.6 13.3-1.5.3-3.9.8-4.6 0-1.8-2-3.5-4.6-4-7.2-.4-1.8 1-4.3 2.1-6 4.1-6.1 8.8-11.9 12.7-18.2 5.8-9.6 12.7-18 22.2-24.4 13.3-9 26.5-18.3 39.1-28.2 15.7-12.4 29.7-26.5 39-44.6 6.4-12.4 9.9-25.7 12.2-39.2 3.2-18.1 5.6-36.4 8.1-54.6.5-3.9-.3-8-.4-12 0-1.4.2-3.1.9-4.2 1.8-2.9 1.8-5.9.8-8.8-1.4-4.4-.9-8.1 3.4-11.4zm158.6 266c1.9-.2 3.6-.4 5.3-.6 0-.2 0-.4.1-.6-1.4-.7-2.8-1.5-4.4-2.3-.4 1.3-.7 2.2-1 3.5z"/></svg>