<svg enable-background="new 0 0 400 400" viewBox="0 0 400 400" xmlns="http://www.w3.org/2000/svg"><path d="m287.21 277.99c-.48-.26-.72-.47-1.01-.54-18.48-4.59-32.77-16.36-47.67-27.27-17.33-12.68-30.52-29.19-43.74-45.69-6.77-8.45-12.92-17.39-19.52-25.99-1.81-2.36-4.13-4.34-6.32-6.4-1.78-1.67-3.24-1.3-5.01.52-14.16 14.64-28.73 28.91-42.58 43.84-9.02 9.73-18.86 18.11-30.96 23.55-5.48 2.47-7.52 6.81-8.77 12.12-2.54 10.74-.4 21.09 2.28 31.44 2.63 10.15 4.23 20.41 1.83 30.84-.46 1.99-1.6 3.86-2.63 5.66-1.72 2.99-3.48 5.96-5.45 8.78-2.12 3.03-4.5 5.88-6.98 9.08-6.88-7.01-11.67-14.21-15.27-22.2-5.4-11.99-8.52-24.66-11.39-37.45-1.6-7.17-4.6-14.03-6.28-21.18-1.65-7.04-2.6-14.27-3.55-21.45-1.73-13.08-3.24-26.2-4.83-39.3-.12-.98-.1-1.97-.16-3.46 1.66 1.18 2.97 2.12 4.85 3.46-1.42-4.19-2.57-7.86-3.89-11.46-4.54-12.47-2.96-24.61 1.72-36.65.49-1.26 1.11-3 .63-4.01-1.92-4-2.1-7.95-.52-12 1.82-4.67 4.56-8.72 8.7-11.67 1.17-.83 2.47-1.56 3.81-2.07 2.01-.76 3.88-1.06 5.85.73 2.73 2.46 6.07 2.57 9.42 1.05.71-.32 1.47-.6 2.1-1.04 14.29-9.95 30.96-12.94 47.51-16.33 13.92-2.86 27.83-5.74 42.13-5.75 2.1 0 3.11-.87 3.72-2.92 1.36-4.61 3.01-9.12 4.56-13.67.36-1.06.48-2.39 1.2-3.1 6.27-6.21 5.73-14.26 5.76-21.97.04-7.88 1.69-14.96 6.54-21.34 1.77-2.33 2.56-5.41 3.81-8.17 12.29-.71 20.53 6.5 19.82 18.73-.62 10.66-2.73 21.24-4.03 31.87-.42 3.42-.6 6.93-.37 10.36.26 3.96 2.04 5.44 6.02 5.57 19.12.63 38.24 1.31 57.36 1.75 10.77.24 21.36.83 31.49 5.18 5.22 2.24 10.71 3.96 16.22 5.41 6.91 1.83 12.65 5.37 17.86 10.13 15.87 14.54 29.79 30.61 39.93 49.74 6.55 12.36 8.1 25.25 5.2 39-1.95 9.26-2.59 18.8-4.06 28.17-2.06 13.07-7.24 24.75-15.61 35.12-7.91 9.81-16.44 18.86-27.14 25.7-1.38.88-2.53 2.2-3.6 3.47-7.27 8.66-14.16 17.66-21.82 25.95-5.43 5.89-11.66 11.1-17.89 16.17-10.14 8.25-20.61 16.1-30.88 24.21-3.5 2.76-6.81 5.76-10.15 8.72-6.6 5.86-12.92 6.55-20.57 2.09-.64-.37-1.21-1-1.61-1.64-1.92-3.02-3.76-6.08-5.55-8.98 6.05-6.14 12-12.17 18.11-18.37.62.66 1.33 1.42 2.32 2.47 2.68-5.33 5.17-10.54 7.93-15.62 1.26-2.32 2.78-4.6 4.62-6.47 14.57-14.72 29.25-29.33 43.89-43.98.89-.86 1.7-1.76 2.62-2.74zm19.13-25.55c2.73-1.81 5.39-3.19 7.58-5.12 6.01-5.29 9.04-12.27 10.95-19.92 4.96-19.87 3.93-39.66-.02-59.55-2.37-11.94-8.59-21.02-18.78-27.35-6.83-4.24-13.89-8.11-20.97-11.91-2.42-1.3-5.17-2.37-7.87-2.72-18.75-2.39-37.53-4.61-56.31-6.72-2.36-.27-4.92.02-7.21.67-7.2 2.03-14.28 4.52-21.5 6.49-2.93.8-3.7 2.13-3.25 4.97.98 6.26 4.96 10.4 9.62 14.02 7.24 5.63 14.8 10.87 21.89 16.69 21.8 17.9 43.41 36.03 65.16 53.99 2.82 2.33 4.97 4.94 6.58 8.26 4.43 9.26 9.17 18.37 14.13 28.2zm-222.23-33.07c2.02-1.46 4.2-2.56 5.76-4.24 6.07-6.53 12.72-12.72 17.75-20 12.62-18.3 23.24-37.93 37.2-55.39 3.71-4.64 3.14-11.87-5.82-12.1-.89-.02-1.79-.26-2.67-.18-21.2 1.92-40.52 8.51-57.19 22.26-5.53 4.56-6.03 10.02-4.99 16.2.31 1.85 1.06 3.64 1.72 5.42 2.04 5.52 3 11.15 2.67 17.08-.31 5.58-.33 11.19-.14 16.78.15 5.27 2 9.99 5.71 14.17zm206.64 79.27c-.38 2.32-.64 3.92-1 6.09 1.73-.81 2.94-1.37 4.42-2.07-1.17-1.38-2.07-2.44-3.42-4.02z" fill="#010000"/><g fill="#fbfcfa"><path d="m361.2 9.6.8-1c.9.7 1.9 1.4 2.9 2.3l-.9 1.1c-1-1-2-1.8-2.8-2.4zm.5 10.6c.9-2.1 1.6-4.3 2.3-6.7.4.2.8.4 1.3.6-.7 2.1-1.5 4.3-2.2 6.6zm.4-15.2.9-.9c1 .8 2 1.6 2.8 2.4l-1 1c-.9-.9-1.8-1.7-2.7-2.5zm12.5-1.2h1.2v1.4h2.7v1.1h-2.7v2.7h-1.2v-.6h-1.8v1.3h4.9v3.8h-1.2v-.5h-3.7c0 .4-.1.9-.1 1.2h5.1v1h-5.2c0 .5-.1.9-.2 1.2h6v1h-5.2c1.1 1.3 2.9 2 5.5 2.2-.4.4-.7.8-.9 1.3-2.9-.5-4.8-1.6-5.7-3.5h-.1c-.8 1.7-2.7 2.9-5.9 3.6-.2-.4-.6-.8-.9-1.1 2.8-.6 4.6-1.4 5.4-2.5h-4.8v-1h5.3c.1-.3.2-.7.2-1.2h-4.9v-1h5c0-.4 0-.8.1-1.2h-3.5v.5h-1.2v-3.8h4.9v-1.3h-1.8v.5h-1.2v-2.7h-2.7v-1h2.6v-1.4h1.2v1.4h4.7v-1.4zm-6.6 8.3h3.6c0-.4 0-.9 0-1.4h-3.6zm1.9-4.6h4.7v-1.3h-4.7zm6.6 3.2h-3.7v1.4h3.7z"/><path d="m385.3 3.8h1.3v2.2h2.8v-2.2h1.3v2.2h4.1v9.1h1.7v1.3h-16.9v-1.3h1.7v-9.1h4.1v-2.2zm.4 13.1.7 1.2c-1.8.9-3.8 1.9-6 2.9-.2-.4-.5-.8-.8-1.3 2.3-1 4.3-1.9 6.1-2.8zm-3.1-6.4h2.8v-3.2h-2.8zm0 4.6h2.8v-3.3h-2.8zm4-4.6h2.8v-3.2h-2.8zm0 4.6h2.8v-3.3h-2.8zm3.7 1.9c2.1.9 4.1 1.8 6.1 2.7l-.7 1.3c-2.2-1.1-4.2-2-6.1-2.9zm3.2-9.7h-2.8v3.2h2.8zm-2.8 7.8h2.8v-3.3h-2.8z"/></g></svg>