<svg enable-background="new 0 0 400 400" viewBox="0 0 400 400" xmlns="http://www.w3.org/2000/svg"><path d="m313.19 284.08c-2.12-2.02-1.34-3.39.09-5.04 6.82-7.86 13.54-15.81 20.21-23.8 1.03-1.24 1.85-2.8 2.3-4.35 3.88-13.47 4.15-27.36 4.56-41.23.11-3.8.08-7.61 0-11.41-.06-3.13-1.84-4.5-4.83-3.37-2.76 1.04-5.63 2.24-7.88 4.08-11.79 9.6-23.19 19.69-35.17 29.05-5.5 4.3-11.86 7.57-18.07 10.85-7.84 4.13-16.16 5.9-24.88 2.81-2.36-.84-3.74.02-4.96 1.98-3.25 5.22-6.45 10.48-9.97 15.52-1.68 2.41-4.02 4.36-6.15 6.61-3.15-2.92-4.94-5.9-5.11-9.68-.64-14.2-1.41-28.39-1.82-42.59-.53-18.34-.75-36.7-1.11-55.05-.02-.98-.12-1.96-.25-3.99-5.22 2.36-10 4.34-14.62 6.63-10.29 5.11-20.59 10.21-30.72 15.63-4.79 2.56-9.22 5.81-13.74 8.86-.99.67-1.72 1.75-2.45 2.74-4.15 5.63-3.97 6.46 1.65 10.28 7.49 5.1 15.05 10.11 22.33 15.49 3.29 2.43 6.11 5.56 8.9 8.59.83.91 1.33 2.65 1.14 3.88-.73 4.78-.85 4.65-5.75 4.56-5.11-.09-9.82-1.23-14.48-3.47-10.66-5.15-21.55-9.85-32.26-14.91-2.8-1.32-5.45-3.09-7.89-5.01-4.24-3.33-8.74-4.47-13.77-2.28-5.51 2.41-11.18 4.6-16.36 7.61-7.54 4.39-15.2 8.04-24.03 8.7-.64.05-1.46.13-1.86.53-3.5 3.51-7.4 2.82-11.52 1.41-5.47-1.88-10.34-1.29-13.96 3.82-1.68 2.37-3.29 4.83-5.25 6.96-1.85 2.01-3.85 4.21-6.26 5.31-6.07 2.76-10.43-.75-9.94-7.43.9-12.35 4.42-24.14 7.34-36.08 1.45-5.93 1.78-12.13 2.75-18.18.22-1.39.98-2.7 1.47-3.97-.11-2.6-.16-5.36-.34-8.12-.26-3.97.01-8.09-1.02-11.86-4.9-18-10.16-35.89-15.29-53.83-.09-.32-.16-.65-.21-.98-1.85-10.98-1.07-12.51 9.45-16.48 1.61-.61 3.76-.26 5.55.12 7.62 1.63 14.7 4.7 21.09 9.14 1.85 1.29 3.45 3.18 4.65 5.12 3 4.85 5.83 9.81 8.46 14.87 1.17 2.25 2.74 3.54 5.14 3.63 6.45.27 12.9.47 19.35.56 9.38.13 18.77-.16 28.13.25 20.56.9 41.14 1.7 61.64 3.38 10.3.84 20.45 3.52 30.67 5.37.55.1 1.1.21 1.63.39 6.11 2.11 11.34 2.08 16.31-3.4 3.87-4.26 10.02-4.59 15.62-5.07 4.01-.34 8.04-.53 12.06-.44 1.18.02 2.73.94 3.42 1.92 2.41 3.46 2.69 7.43 2.27 11.57-.89 8.78-1.46 17.6-2.52 26.36-.29 2.42-1.61 4.82-2.86 7-2.68 4.68-4.95 9.21-4.73 15.01.12 3.33-1.93 6.8-3.26 10.1-2.27 5.63-4.14 11.25-4.11 17.47.01 3.18-1.04 6.38-1.71 9.54-.41 1.95.15 2.93 2.2 2.38 1.58-.42 3.21-.91 4.6-1.75 3.9-2.35 7.6-5.02 11.53-7.3 2.21-1.28 3.99-2.56 4.69-5.25.35-1.33 1.54-2.7 2.72-3.52 10.29-7.14 20.46-14.51 31.11-21.08 5.74-3.54 12.34-5.7 18.59-8.39 5.12-2.21 6.4-3.86 5.59-9.43-.85-5.85-2.35-11.61-3.39-17.44-1.69-9.52.05-18.68 3.51-27.54 1.39-3.55 4.02-5.14 8.18-5.7 6.13-.82 11.57.91 16.94 2.89 2.07.76 3.72 3.39 4.96 5.51 3.92 6.73 4.89 14.31 5.66 21.9 1.53 15.01 3.6 29.99 4.38 45.04.55 10.67-.24 21.48-1.17 32.16-1.28 14.73-4.39 29.17-8.98 43.26-.31.95-.49 2.07-1.11 2.77-5.42 6.08-10.39 12.7-16.52 17.97-10.6 9.1-21.91 17.37-33 25.91-2.47 1.9-5.3 3.34-7.84 5.16-5.58 4.01-11.88 5.03-18.13 2.98-2.43-.8-4.42-4.09-5.77-6.69-1.28-2.48.75-4.16 2.94-5.54 10.31-6.53 20.54-13.14 31.24-19.98zm-123.27-139.38c.01-.32.03-.63.04-.95-1.8-.63-3.57-1.6-5.42-1.81-4.21-.48-8.47-.7-12.71-.84-13.3-.45-26.6-.87-39.9-1.21-7.93-.2-15.9-.74-23.78-.19-10.32.71-20.1 4.08-29.7 7.87-1.68.66-3.71.94-5.49.7-4.02-.55-6.11 1.01-6.16 5.13-.07 5.34.13 10.59-1.66 15.88-1.39 4.11-1.47 8.72-1.77 13.13-.22 3.33.4 6.73.14 10.05-.19 2.38-.59 5.2-1.99 6.93-4.24 5.21-2.25 11.23-3.47 16.76 5.3 1.11 9.28.27 12.7-3.76 4.07-4.78 9.07-8.52 14.88-11.21 5.46-2.52 10.7-5.51 16.08-8.32-.88-4.24-2.87-7.5-6.03-10.02-3.85-3.07-7.86-5.94-11.61-9.12-1.15-.98-2.39-2.75-2.32-4.09.14-2.55-.38-4.14-2.63-5.52-2.05-1.25-2.2-4.62-.62-6.15 1.75-1.7 3.54-3.35 5.65-5.35 2.13 1.01 4.71 1.87 6.9 3.31 8.77 5.79 17.46 11.69 26.09 17.68 4.72 3.28 12.47 5.59 18.68 1.85 16.67-10.02 33.8-19.26 50.74-28.82 1.12-.62 2.24-1.28 3.36-1.93z" fill="#010000"/><path d="m103.54 282.36c3.78-6.07 7.72-11.68 10.86-17.7 1.82-3.49 2.22-7.7 3.59-11.46.55-1.51 1.74-3.03 3.06-3.96 2.74-1.92 5.8-3.36 8.63-5.16 1.63-1.04 2.75-.92 3.98.59 6.33 7.81 12.55 15.72 19.13 23.31 3.54 4.08 7.36 8.14 11.74 11.23 4.71 3.33 10.49 3.58 16.15 2.25 1.02-.24 1.94-1.02 2.83-1.66 6.71-4.89 14.06-7.16 22.4-5.66 4.64.83 6.7 2.46 6.73 7.17.05 6.8-1.16 13.06-7.79 17.3-12.02 7.69-25.24 11.88-39.06 14.37-17.42 3.14-34.98 5.17-52.73 3.49-4.92-.47-9.68-.13-14.59.45-4.62.55-9.5-.91-14.24-1.66-3.27-.52-7.62-.27-9.48-2.24-2.99-3.19-5.32-7.75-6.11-12.07-1.14-6.19-.67-12.67-.81-19.03-.01-.57.37-1.39.83-1.68 4.15-2.62 8.29-5.27 12.59-7.62.88-.48 2.81-.2 3.57.49 5.31 4.83 11.96 6.79 18.72 9.25z" fill="#010000"/><g fill="#fbfcfa"><path d="m361.2 9.6.8-1c.9.7 1.9 1.4 2.9 2.3l-.9 1.1c-1-1-2-1.8-2.8-2.4zm.5 10.6c.9-2.1 1.6-4.3 2.3-6.7.4.2.8.4 1.3.6-.7 2.1-1.5 4.3-2.2 6.6zm.4-15.2.9-.9c1 .8 2 1.6 2.8 2.4l-1 1c-.9-.9-1.8-1.7-2.7-2.5zm12.5-1.2h1.2v1.4h2.7v1.1h-2.7v2.7h-1.2v-.6h-1.8v1.3h4.9v3.8h-1.2v-.5h-3.7c0 .4-.1.9-.1 1.2h5.1v1h-5.2c0 .5-.1.9-.2 1.2h6v1h-5.2c1.1 1.3 2.9 2 5.5 2.2-.4.4-.7.8-.9 1.3-2.9-.5-4.8-1.6-5.7-3.5h-.1c-.8 1.7-2.7 2.9-5.9 3.6-.2-.4-.6-.8-.9-1.1 2.8-.6 4.6-1.4 5.4-2.5h-4.8v-1h5.3c.1-.3.2-.7.2-1.2h-4.9v-1h5c0-.4 0-.8.1-1.2h-3.5v.5h-1.2v-3.8h4.9v-1.3h-1.8v.5h-1.2v-2.7h-2.7v-1h2.6v-1.4h1.2v1.4h4.7v-1.4zm-6.6 8.3h3.6c0-.4 0-.9 0-1.4h-3.6zm1.9-4.6h4.7v-1.3h-4.7zm6.6 3.2h-3.7v1.4h3.7z"/><path d="m385.3 3.8h1.3v2.2h2.8v-2.2h1.3v2.2h4.1v9.1h1.7v1.3h-16.9v-1.3h1.7v-9.1h4.1v-2.2zm.4 13.1.7 1.2c-1.8.9-3.8 1.9-6 2.9-.2-.4-.5-.8-.8-1.3 2.3-1 4.3-1.9 6.1-2.8zm-3.1-6.4h2.8v-3.2h-2.8zm0 4.6h2.8v-3.3h-2.8zm4-4.6h2.8v-3.2h-2.8zm0 4.6h2.8v-3.3h-2.8zm3.7 1.9c2.1.9 4.1 1.8 6.1 2.7l-.7 1.3c-2.2-1.1-4.2-2-6.1-2.9zm3.2-9.7h-2.8v3.2h2.8zm-2.8 7.8h2.8v-3.3h-2.8z"/></g></svg>