<svg enable-background="new 0 0 400 400" viewBox="0 0 400 400" xmlns="http://www.w3.org/2000/svg"><path d="m87.03 132.26c-1.8-5.26-.36-10.01 1.06-14.69 2.24-7.37 5.34-14.55 6.89-22.06 2.36-11.47 3.81-23.13 5.47-34.74 1.37-9.63 2.54-19.3 3.67-28.96.26-2.23 1.34-3.19 3.24-4.37 5.33-3.32 9.25-1.79 13.12 2.37 2.59 2.78 5.49 5.27 8.35 7.77 5.9 5.15 12.85 7.3 20.65 7.48 7.93.18 15.87.68 23.78 1.36 3.73.32 7.51 1.03 11.06 2.2 3.69 1.21 7.22 2.09 11.09 1.21 10.59-2.41 21.15-.59 31.72.33 10.7.93 21.39 1.97 32.09 2.87 1 .08 2.39-.14 3.02-.78 6.91-7.13 15.78-8 24.85-7.54 11.59.59 11.65.77 16.19 11.41 6.01 14.07 12.23 28.07 17.74 42.33 4.57 11.85 7.05 24.26 6.52 37.08-.14 3.23-.41 6.48-.94 9.67-.19 1.17-1.06 2.45-1.99 3.25-4.15 3.59-8.37 7.09-12.7 10.45-1.05.81-2.57 1.2-3.93 1.38-4.08.54-8.19.98-12.3 1.22-1.25.07-2.88-.29-3.75-1.09-5.87-5.36-11.54-10.93-17.38-16.31-.96-.88-2.45-1.49-3.76-1.64-13.43-1.53-26.86-3.16-40.33-4.26-5.39-.44-10.89.39-16.33.63-3.01.13-4.66 1.9-5.33 4.64-2.3 9.44-4.73 18.85-6.74 28.35-1.18 5.57-1.57 11.29-2.48 16.92-.34 2.11.27 3.57 2.09 4.39 2.11.95 4.39 2.46 6.5 2.32 19.77-1.33 38.77 2.7 57.46 8.28 12.36 3.69 24.59 1.73 36.91.92 4.78-.31 6.36.23 7.48 4.92 1.14 4.75 1.44 9.7 2.1 14.57.4 2.99.54 6.03 1.23 8.95 1.5 6.4 1.5 12.6.31 19.17-1.61 8.85-2.08 17.93-2.77 26.94-.92 11.98-3.84 23.37-9.42 34.01-1.23 2.35-3.42 4.2-4.59 6.56-3.34 6.8-6.38 13.75-9.54 20.64-1.39 3.04-2.5 6.27-4.3 9.04-1.35 2.08-3.3 4.21-5.49 5.2-6.66 3.01-8.09 1.72-10.35-3.77-2.46-5.96-1.7-12.18-.64-18.22 3.05-17.36 3.67-34.87 4.58-52.42.73-14.26 3.29-28.42 5.05-42.62.19-1.55.43-3.1.69-4.64.97-5.72-1.93-9.61-7.78-9.87-2.99-.13-6.09.03-8.99.69-9.31 2.13-18.44.9-27.58-.87-.55-.11-1.11-.36-1.64-.31-16.72 1.52-33.19-2.87-49.86-2.02-7.24.37-14.62.63-21.63 2.24-4.55 1.05-8.88 4.04-12.73 6.92-4.12 3.08-7.89 3.3-12.44 1.44-5.83-2.38-9.28-1.13-11.38 4.85-2.21 6.28-3.81 12.84-4.95 19.4-2.45 14.1-8.09 27.18-12.25 40.73-3.08 10.04-6.34 20.02-9.47 30.04-.43 1.38-.8 2.85-.78 4.28.09 7.71-4.34 12.4-10.49 15.92-2.4 1.37-4.91 2.53-7.44 3.82-10.2-12.45-12.71-26.47-8.65-41.26 4.4-16.04 9.85-31.8 15.18-47.56 1.64-4.83 2.74-9.61 3.02-14.67.44-8.16.94-16.31 1.49-24.46.1-1.43.42-2.87.86-4.24 1.87-5.74 4.19-11.35 5.65-17.19 1.78-7.13 6.93-11.35 12.29-15.33 4.26-3.17 11.22-2.02 14.98 1.83 2.97 3.04 5.86 6.17 8.96 9.08.83.78 2.34 1.33 3.46 1.2 8.22-.91 16.42-2.09 24.64-3.02 2.23-.25 3.47-1.17 3.83-3.35 1.75-10.57 4.19-21.09 5.09-31.73 1.31-15.7 1.56-31.49 2.15-47.25.07-1.93.38-3.01 2.53-3.46 6.45-1.36 12.83-3.1 19.3-4.34 1.42-.27 3.85.42 4.56 1.5 5.22 7.88 12.54 8.64 21 7.28 12.08-1.94 24.08.25 36.09 1.33 4.79.43 9.57 1.04 14.37 1.29.98.05 2.45-.88 2.97-1.78 3.93-6.77 3.89-14.09 2.51-21.5-2.1-11.33-2.53-11.15-13.86-12.67-29.12-3.91-58.35-1.86-87.52-2.12-10.24-.09-20.5 1.35-30.74 2.22-5.62.48-9.42 3.37-12.29 8.43-5.79 10.18-9.19 21.07-11.2 32.47-2.67 15.12-8.97 28.49-18.99 40.12-1.68 1.95-3.59 3.77-4.92 5.94-3.72 6.08-9.64 5.66-15.46 5.5-.6-.02-1.5-1.14-1.69-1.9-1.66-6.36-.96-12.63.91-18.84 1.25-4.17 2.59-8.33 3.62-12.56.67-3.2 1.27-6.37 5.42-6.94z" fill="#010000"/><path d="m122.43 268.42c4.44-2.11 8.63-4.16 12.89-6.09.74-.33 1.81-.37 2.58-.11 8.02 2.73 16.04 1.45 24.21.69 7.49-.7 15.12-.29 22.66.1 10.82.56 21.63 1.48 32.44 2.39 8.53.71 16.23 3.99 23.3 8.6 4.71 3.07 6.47 8.72 5.08 14.15-2.93 11.47-5.81 22.95-8.84 34.39-.4 1.53-1.3 3.09-2.37 4.25-4.63 5.01-9.49 9.8-14.07 14.86-1.07 1.18-1.84 3.03-1.93 4.62-.11 2.1-.71 3.4-2.46 4.67-4.86 3.55-9.62 7.26-14.25 11.1-8.8 7.29-18.39 12.76-30.11 13.24-9.95.41-19.36-2.43-27.07-8.26-4.24-3.21-6.83-9.02-9.28-14.08-4.06-8.38-4.86-17.54-5.16-26.78-.43-13.74-1-27.49-2.01-41.2-.29-3.87-2.3-7.62-3.59-11.41-.57-1.65-1.29-3.27-2.02-5.13zm54.84 76.31c7.11-.25 15.92-1.83 20.49-10.64 5.54-10.68 10.97-21.53 13.11-33.6 1.19-6.71-4.44-11.56-11.13-9.99-6.05 1.42-12.23 2.43-18.4 3.21-5.37.68-10.61 1.41-15.34 4.3-1.72 1.05-2.37 2.26-2.3 4.33.37 10.74.54 21.48.82 32.22.24 9.46.99 10.14 12.75 10.17z" fill="#010000"/><g fill="#fbfcfa"><path d="m361.2 9.6.8-1c.9.7 1.9 1.4 2.9 2.3l-.9 1.1c-1-1-2-1.8-2.8-2.4zm.5 10.6c.9-2.1 1.6-4.3 2.3-6.7.4.2.8.4 1.3.6-.7 2.1-1.5 4.3-2.2 6.6zm.4-15.2.9-.9c1 .8 2 1.6 2.8 2.4l-1 1c-.9-.9-1.8-1.7-2.7-2.5zm12.5-1.2h1.2v1.4h2.7v1.1h-2.7v2.7h-1.2v-.6h-1.8v1.3h4.9v3.8h-1.2v-.5h-3.7c0 .4-.1.9-.1 1.2h5.1v1h-5.2c0 .5-.1.9-.2 1.2h6v1h-5.2c1.1 1.3 2.9 2 5.5 2.2-.4.4-.7.8-.9 1.3-2.9-.5-4.8-1.6-5.7-3.5h-.1c-.8 1.7-2.7 2.9-5.9 3.6-.2-.4-.6-.8-.9-1.1 2.8-.6 4.6-1.4 5.4-2.5h-4.8v-1h5.3c.1-.3.2-.7.2-1.2h-4.9v-1h5c0-.4 0-.8.1-1.2h-3.5v.5h-1.2v-3.8h4.9v-1.3h-1.8v.5h-1.2v-2.7h-2.7v-1h2.6v-1.4h1.2v1.4h4.7v-1.4zm-6.6 8.3h3.6c0-.4 0-.9 0-1.4h-3.6zm1.9-4.6h4.7v-1.3h-4.7zm6.6 3.2h-3.7v1.4h3.7z"/><path d="m385.3 3.8h1.3v2.2h2.8v-2.2h1.3v2.2h4.1v9.1h1.7v1.3h-16.9v-1.3h1.7v-9.1h4.1v-2.2zm.4 13.1.7 1.2c-1.8.9-3.8 1.9-6 2.9-.2-.4-.5-.8-.8-1.3 2.3-1 4.3-1.9 6.1-2.8zm-3.1-6.4h2.8v-3.2h-2.8zm0 4.6h2.8v-3.3h-2.8zm4-4.6h2.8v-3.2h-2.8zm0 4.6h2.8v-3.3h-2.8zm3.7 1.9c2.1.9 4.1 1.8 6.1 2.7l-.7 1.3c-2.2-1.1-4.2-2-6.1-2.9zm3.2-9.7h-2.8v3.2h2.8zm-2.8 7.8h2.8v-3.3h-2.8z"/></g></svg>