<svg enable-background="new 0 0 400 400" viewBox="0 0 400 400" xmlns="http://www.w3.org/2000/svg"><path d="m141.73 185.44c2.11 4.55 4.29 8.83 6.12 13.25 2.78 6.76 5.96 8.92 13.34 8.56 6.31-.31 6.3-.31 7.28-6.6.9-5.74 1.65-11.52 2.85-17.2.39-1.85 1.89-3.52 3.07-5.14 1.69-2.33 3.73-4.42 5.31-6.81 1.59-2.41 3.47-4 6.81-4 2.36 7.63 4.88 15.25 6.95 22.99.42 1.56-1.04 3.54-1.31 5.38-.4 2.68-.83 5.42-.66 8.09.44 7.22 1.03 14.45 1.85 21.64 1.02 8.97 2.22 17.93 3.63 26.85.27 1.73 1.92 3.24 3.5 5.75 3.41-5.51 6.43-9.91 8.96-14.57 5.24-9.64 10.09-19.5 11.63-30.54 1.3-9.37.37-18.48-3.65-27.21-.76-1.64-1.04-3.69-.93-5.52.23-3.78.86-7.54 1.39-11.77.99 0 2.28-.35 3.23.06 5.06 2.2 6.94 1.56 9.76-4.39-4 0-7.6-.09-11.19.03-2.42.08-4.79.35-5.88-2.53-1.09-2.87-.23-7.56 1.97-8.88 9.15-5.48 18.62-9.92 29.75-7.29 2.31.55 3.92-.18 5.8-1.54 2.37-1.72 5.11-3.05 7.86-4.08 5.32-2 10.84-3.49 16.12-5.57 1.84-.72 3.71-2.27 4.77-3.94 2.37-3.75 1.3-6.3-2.91-7.24-17.13-3.81-33.13-10.7-49.01-17.9-1.37-.62-2.61-2.42-3.09-3.93-1.53-4.9-.21-9.74 1.11-14.5.13-.47.54-.99.96-1.24 4.65-2.76 13.06-1.97 17.51 1.27 12.17 8.87 25.6 15.07 40.37 18.1 6.84 1.41 9.99-.56 10.76-7.56.57-5.24-.45-10.65-.62-15.99-.15-4.95-2.87-7.5-7.34-8.99-11.66-3.87-23.3-7.79-34.85-11.96-5.5-1.99-10.52-.47-15.69.99-5.55 1.56-8.96-1.18-8.66-7 .1-2 .25-4.06.84-5.95.4-1.29 1.56-2.35 2.46-3.46.41-.5 1.17-.77 1.47-1.31 2.07-3.74 4.34-5.15 8.34-4.13 3.08.78 6.33 1.81 8.87 3.62 4.41 3.14 9.11 5.02 14.37 6.03 11.6 2.23 22.83 5.87 32.9 12.04 5.14 3.15 9.72 7.5 13.78 12.01 4.68 5.2 6.89 11.45 5.56 18.88-1.08 6.03-.92 12.27-1.56 18.39-.23 2.27 1.2 2.43 2.59 3.13 9.28 4.64 18.63 9.16 27.71 14.16 2.93 1.61 5.26 4.44 7.58 6.98 1.04 1.13 1.36 2.92 2.06 4.54-6.21 2-11.61.91-17.09-1.22-4.45-1.74-9.1-3.74-13.75-3.98-4.62-.24-8.52-1.01-12.35-3.62-2.21-1.51-4.5.1-6.3 1.77-3.2 2.96-6.27 6.07-9.59 8.88-9.67 8.16-21.36 11.35-33.52 13.36-3.75.62-7.52 1.28-11.14 2.37-2.45.73-4.59 2.44-7 3.35-2.01.76-4.2 1.28-6.34 1.42-1.97.13-3.86-.09-4.77 2.14-.83 2.04-.52 3.58 1.15 5.37 6.14 6.61 7.66 20.92 3.05 28.71-1.34 2.26-.82 3.83.22 5.83.73 1.41.92 3.11 1.47 5.11 6.49 1.07 11.65-2.94 16.11-8.18.76-.9.82-2.51.96-3.81.97-9.19 6.94-14.31 14.83-17.3 3.41-1.29 7.43-1.27 11.17-1.31 6.13-.07 9.3 4.11 11.61 9.08 1.13 2.44-.37 7.38-3.13 9.3-8.19 5.69-16.96 9.83-27.32 9.36-1.09-.05-2.32.62-3.31 1.25-7.08 4.5-13.97 9.32-21.2 13.55-5.64 3.29-8.33 8.38-9.7 14.22-1.01 4.31-.85 8.88-1.46 13.29-.61 4.4-1.29 8.82-2.39 13.11-1.49 5.8-5.76 8.79-11.43 10-2.74.58-6.75-.18-7.4 3.28-.7 3.77-.81 8.22.57 11.67 2.48 6.18 6.24 11.85 9.56 17.68.53.92 1.46 1.68 2.34 2.32 4.7 3.43 9.37 6.92 14.2 10.16 4.79 3.21 9.1 6.78 11.95 11.95.57 1.03 2.19 1.57 3.41 2.15 2.56 1.2 5.23 2.17 7.75 3.44 2.08 1.05 3.91 2.6 6.02 3.56 9.04 4.15 18.14 8.18 27.22 12.23 1.02.46 2.04 1.03 3.12 1.22 10.84 1.86 19.79 8 29.26 12.94 2.52 1.31 4.68 3.33 7.11 5.1-3.12 4.02-6.4 6.16-11.51 6.05-15.23-.32-30-2.78-44.47-7.49-7.46-2.43-13.15-7.49-19.2-12.05-.96-.72-2.16-1.81-3.13-1.69-3.54.43-5.39-1.92-7.76-3.79-5.43-4.29-11.17-8.19-16.63-12.44-10.5-8.17-19.32-17.97-27.17-28.67-.91-1.25-1.58-2.7-2.23-4.11-7.38-16.04-14.55-32.19-22.21-48.1-2.87-5.97-4.19-11.9-3.46-18.43.44-3.95.11-7.81-2.16-11.31-1.7-2.62-3.69-3.32-7.02-3.03-6.88.59-13.84.27-20.77.22-3.13-.02-6.26-.24-9.38-.46-9.24-.64-15.39-9.14-13.92-18.25.97-6.05 3.14-11.07 8.09-14.72 1.31-.97 2.7-1.98 4.22-2.47 3.38-1.12 6.87-1.91 10.98-3.01z" fill="#010000"/><path d="m213.91 102.59c-6.1 0-11.68.04-17.27-.02-2.87-.03-5.19 1.04-6.22 3.68-1.92 4.95-5.54 8.32-9.64 11.31-2.7 1.97-4.16 4.54-4.36 8.06 7.54 3.12 15.09 3.03 22.75 1.18 1.84-.45 3.7-.92 5.58-1.12 6.84-.71 12.86 5.34 11.12 11.97-.91 3.46-3.6 6.65-6.06 9.45-2.82 3.22-6.7 3.09-10.53 1.66-.21-.08-.44-.09-.65-.14-5.73-1.42-5.49-1.25-8.86 3.43-1.18 1.64-3.87 3.14-5.85 3.11-6.55-.08-13.17-.45-19.61-1.56-4.39-.76-8.61-2.78-12.78-4.54-3.52-1.48-6.98-1.93-10.32-.04-5.98 3.37-12.45 4.8-19.14 5.71-2.17.29-4.43.96-6.35 2-7.24 3.95-15.15 4.85-23.11 6.22-9.86 1.7-19.6 4.4-29.2 7.3-9.95 3-17.92.05-26.11-7.33 7.41-2.7 14.03-5.72 20.97-7.49 10.71-2.73 21.68-4.39 32.45-6.89 6.93-1.61 13.7-3.91 20.43-5.88.08-6.74-.17-6.98-5.85-9.39-4.55-1.93-8.96-4.17-11.65-8.64-2.93-4.86-2.72-10.62-2.9-15.76-.24-6.53 2.34-13.04 1.33-19.91-.51-3.5.48-7.18 3.24-10.22 1.38-1.52 1.81-4.02 2.26-6.16.1-.49-1.92-2.08-2.27-1.89-2.91 1.57-5.45.42-8.01-.71-2.35-1.03-4.62-2.29-7.01-3.19-4.64-1.75-9.32-2.93-14.37-1.36-5.21 1.62-9.53.95-12.77-4.42-2.4-3.97-5.73-7.36-3.66-12.45.39-.97 1.36-2.03 2.31-2.39 6.68-2.52 13.85-3.4 20.36-.84 6.21 2.44 11.73 6.7 17.41 10.39 1.19.77 1.74 2.53 2.67 3.96 3.05-2.92 6.58-2.91 10.31-1.69.95.31 1.93.55 2.91.8 4.24 1.09 7.72.58 11.21-2.81 10.27-9.98 20.97-19.51 31.46-29.27 1.34-1.25 2.43-1.75 4.38-1.12 7.44 2.4 14.96 4.53 22.46 6.77 4.54 1.36 7.93 3.85 10.55 8.09 2.84 4.6 6.63 8.67 10.33 12.66 4.07 4.39 6.85 8.94 5.68 15.3-.69 3.72-.24 7.65-1.01 11.35-1.26 6.11 1.87 9.79 6.29 12.86 3.41 2.39 5.66 5.52 7.1 9.97zm-51.56-6.45c-1.24-1.46-2.22-3.61-3.85-4.34-4.77-2.15-9.76-3.83-14.75-5.45-.9-.29-2.44.22-3.22.89-5.68 4.9-11.52 9.66-16.74 15.01-4.72 4.84-4.62 12.52 3.06 15.42 4.08 1.54 8.16 3.05 12.25 4.57 5.29 1.97 8.57 1.01 11.64-3.85 3.16-5.01 6.16-10.13 9.03-15.31 1.05-1.9 1.56-4.12 2.58-6.94zm-4.01-49.06c-.42 4.87-1.08 9.74-1.17 14.62-.04 2.37.79 4.83 1.61 7.11.3.83 1.67 1.66 2.64 1.78 2.19.26 4.43.08 6.55.08 4.12-10.65-.9-22.89-9.63-23.59z" fill="#010000"/><g fill="#fbfcfa"><path d="m361.2 9.6.8-1c.9.7 1.9 1.4 2.9 2.3l-.9 1.1c-1-1-2-1.8-2.8-2.4zm.5 10.6c.9-2.1 1.6-4.3 2.3-6.7.4.2.8.4 1.3.6-.7 2.1-1.5 4.3-2.2 6.6zm.4-15.2.9-.9c1 .8 2 1.6 2.8 2.4l-1 1c-.9-.9-1.8-1.7-2.7-2.5zm12.5-1.2h1.2v1.4h2.7v1.1h-2.7v2.7h-1.2v-.6h-1.8v1.3h4.9v3.8h-1.2v-.5h-3.7c0 .4-.1.9-.1 1.2h5.1v1h-5.2c0 .5-.1.9-.2 1.2h6v1h-5.2c1.1 1.3 2.9 2 5.5 2.2-.4.4-.7.8-.9 1.3-2.9-.5-4.8-1.6-5.7-3.5h-.1c-.8 1.7-2.7 2.9-5.9 3.6-.2-.4-.6-.8-.9-1.1 2.8-.6 4.6-1.4 5.4-2.5h-4.8v-1h5.3c.1-.3.2-.7.2-1.2h-4.9v-1h5c0-.4 0-.8.1-1.2h-3.5v.5h-1.2v-3.8h4.9v-1.3h-1.8v.5h-1.2v-2.7h-2.7v-1h2.6v-1.4h1.2v1.4h4.7v-1.4zm-6.6 8.3h3.6c0-.4 0-.9 0-1.4h-3.6zm1.9-4.6h4.7v-1.3h-4.7zm6.6 3.2h-3.7v1.4h3.7z"/><path d="m385.3 3.8h1.3v2.2h2.8v-2.2h1.3v2.2h4.1v9.1h1.7v1.3h-16.9v-1.3h1.7v-9.1h4.1v-2.2zm.4 13.1.7 1.2c-1.8.9-3.8 1.9-6 2.9-.2-.4-.5-.8-.8-1.3 2.3-1 4.3-1.9 6.1-2.8zm-3.1-6.4h2.8v-3.2h-2.8zm0 4.6h2.8v-3.3h-2.8zm4-4.6h2.8v-3.2h-2.8zm0 4.6h2.8v-3.3h-2.8zm3.7 1.9c2.1.9 4.1 1.8 6.1 2.7l-.7 1.3c-2.2-1.1-4.2-2-6.1-2.9zm3.2-9.7h-2.8v3.2h2.8zm-2.8 7.8h2.8v-3.3h-2.8z"/></g></svg>