<svg enable-background="new 0 0 400 400" viewBox="0 0 400 400" xmlns="http://www.w3.org/2000/svg"><path d="m36.3 306.3c-1.4-6.4-3.3-12.3-3.8-18.4-.4-4.5 1-9.2 1.8-13.7 2.4-12.8 5-25.5 7.2-38.3.8-5 .6-10.1.9-15.2.2-5.5.3-11 .6-16.5.1-1 .9-2.3 1.8-2.9 4.1-2.8 4.8-4.6 2.6-9-2.4-4.8-3.6-9.8-3.2-15.3.5-7.5.6-15 1-22.5.1-1.7.6-3.5 1.3-5.1 2.8-6.4 7.2-12.1 8.7-19.3.3-1.7 3.2-3.6 5.2-4 17.8-4 35.7-7.9 53.7-11.4 2.2-.4 5 .6 7.3 1.5 2.8 1.1 5.4 1.1 8.3.1 11.3-3.6 22.5-7.5 34-10.4 9.4-2.4 19.1-3.3 28.7-5.3 9.1-1.9 18.1-4 27.1-6.4 6.2-1.7 11.7.9 12.7 7.2.6 3.6-.1 7.5-.6 11.2-.1 1-1.4 2-2.4 2.6-6.7 4-13.5 8-20.3 11.9-3.3 1.9-5.8 4.4-7 7.9-2 5.9-3.7 11.9-5.3 17.9-.2.8.4 2.4 1.1 2.8 3.2 1.8 6.5 3.6 9.9 4.9 3 1.1 6.1 1.3 9-.9 1.5-1.1 3.7-1.6 5.6-1.9 18.4-2.7 36.8-5.4 55.2-8 3.1-.5 6.3-1 9.6-1.5.7 1.6 1.5 3.2 2.6 5.7-5.6 2.2-10.9 5.2-16.6 6.2-12.7 2.3-25.5 3.7-38.3 5.2-8.8 1.1-17.7 1.7-26.5 2.7-6.9.8-10.6 4.4-12 11.3-.2.8-.3 1.7-.5 2.5-1 5.5-.8 6.5 4.9 6.7 7.1.2 14.4-.3 21.4-1.4 6.6-1 13-3.5 19.6-4.9 3.2-.7 6.7-1.1 10-.9 4.4.3 6.2 2.6 6.7 7.6-4.5.8-9.1 1.6-13.7 2.4-4.7.8-9.3 2-14 2.5-8.2.9-16.4 1.3-24.6 2-1.4.1-2.7.3-4.1.5-9.2 1.6-12.5 5-13.9 14.2-.3 2.1-.4 4.2-.7 6.3-.6 3.8-.5 6.9 4.1 8.5 2.7.9 2.4 5.2-.2 7.5-4.5 3.9-7.4 8.6-8.3 14.6-.3 2.2.1 3.8 2.6 3.9 3.9.2 7.7.2 11.6.4 2.8.1 5.7.1 8.4.7 7 1.6 14 3.4 20.9 5.4 3.6 1 7 1.5 10.6.4 11.8-3.7 23.9-1.8 35.9-1.8 12.7 0 25.4.5 38.1.8.9 0 1.8-.4 2.7-.7 15.2-5.5 31-8.3 47-10.2.5-.1 1 0 2 .1-.6 4.5.3 9-4 12.4-3 2.4-5.6 5.5-8.1 8.5-6 7.2-13.3 12.2-22.6 13.6-13.3 2.1-26.5 4.1-39.8 5.7-5.9.7-11.9 0-17.5-2.3-4.3-1.8-8.8-2.2-13.4-1.9-3.8.3-7.2-.6-10.7-2.1-3-1.3-6.4-2.1-9.7-2.4-7-.8-14.1-1.5-21.2-1.6-5-.1-9.2-1.7-13.5-4-1.9-1-4.3-1.4-6.5-1.3-14.9.4-29.8 1.3-44.7 1.5-17.9.3-35.7 1.9-53.2 5.7-8.4 1.8-16.8 3.1-25.2 4.9-1.3.3-2.9 1.1-3.5 2.2-5.1 9-12.8 14.3-22.5 17.1-3.4.6-6.6 2.3-10.3 3.8zm135.3-168.7c-3.6 1.3-5.2 4-6.1 7.5-1.1 4.2-2.6 8.2-4 12.4-4.6 14.2-9.8 28.1-11 43.2-.6 7.7-2.4 15.4-4.2 23-1.1 4.8-3.6 9.3-4.8 14.1-.8 3.2-1 6.7-.5 9.9.8 5.1 2.6 6.1 7.7 6.1 1.6 0 3.2-.2 4.8 0 3.1.4 5.6-.9 7.8-2.8 7.2-6.5 10.9-14.7 11.3-24.3.1-1.1.1-2.6-.5-3.3-2-2.1-1.5-4.2-.4-6.4 3.1-6.5 3.9-13 1.2-19.9-.2-.6-.4-1.3-.3-1.9.3-1.9.7-3.9 1.2-5.8.4-1.7 1.2-3.4 1.3-5.1.6-12.3.8-24.5 1.7-36.8.4-4.8-.7-7.9-5.2-9.9zm-103.6 99.6v.3c3.1-.3 6.3-.3 9.4-.9 8.6-1.6 17.1-3.8 25.8-5.2 9.3-1.4 17.5-4.4 24.2-11.6 2.8-3.1 3.8-5.7 3.2-9.5-1.2-7.4-7.3-11.1-14.5-8.7-17.6 6-35.2 11.9-52.8 17.9-6.8 2.3-7.4 3.2-6.3 10.4.7 5.1 3.1 7.3 8.2 7.3zm68.1-85.9c-6-7.2-12.3-13-22.9-12.3-7 .5-14.1-.5-21.1-1.2-7.8-.7-15.3-.7-20.1 7-.3.4-.7.8-1.1 1.2-4.3 3.9-4 8.7-2.7 13.7.3 1.3 1 2.6 1.5 3.8 1.9 4.9 1.9 5 7.3 4.9 13.8-.3 27.3-2.6 40.8-5.5 7.5-1.7 13-6 18.3-11.6zm6.3 29c-3.3-1.7-7.1-3.8-11.1-5.4-5.3-2.3-10.9-3.3-16.7-1.4-2.9.9-6 1.3-8.9 2.1-6.6 1.9-13.7 2-19.4 6.3s-12.4 5.6-19.3 6.3c-1.3.1-2.6.2-3.8.6-1 .3-2.1.9-2.9 1.6-2.9 2.4-3 5-1.6 8.6 1.3 3.4 3.1 5.4 6.7 5.4 4.9.1 10 .6 14.8-.1 16.2-2.3 31.6-7.5 46.8-13.2 3.2-1.2 5.8-4 8.7-6 2.3-1.7 4.4-3.2 6.7-4.8zm-16.6 76.1c-3.6-4.3-3-8.1-2.7-11.9.4-5.6-3.3-8.6-8.7-7.6-8.4 1.6-16.8 3.3-25.3 4.7-9.9 1.7-19.4 4-28.1 9.4-4.5 2.8-7.2 5.6-5.5 11.4.7 2.3 1.2 3.6 3.7 4 10 1.7 19.9.9 29.6-1.2 12.2-2.7 24.2-5.7 37-8.8zm-58.5-127.7v6c1.2-.9 2.1-1.5 3-2.2-.9-1.2-1.7-2.2-3-3.8z"/><path d="m200.1 228.2c-.8-1.8-1.4-3.3-2.3-5.2 9-2.7 18-4.7 27.2-3.9 4.6.4 8.8.1 12.9-2 9-4.9 18.9-5.6 28.8-6.7 10.3-1.1 20.6-2.5 30.9-3.3 3.6-.3 7.3.2 10.9.8 3.3.6 4.3 4.5 1.7 6.8-4.3 3.9-8.4 7.8-14.7 8.6-4.7.6-9.2 2.5-13.9 3.2-3.4.6-6.9.5-10.4.3-10.7-.6-21.3-1.4-32-2.3-12.7-1-25.2-.2-37.4 3.2-.3.2-.8.3-1.7.5z"/></svg>