<svg enable-background="new 0 0 400 400" viewBox="0 0 400 400" xmlns="http://www.w3.org/2000/svg"><g transform="translate(-7.524 343.837) scale(0.422678 -0.422678)"><path d="M462 720Q469 724 472 718Q475 707 480.0 687.0Q485 667 488 648Q493 620 493.5 578.0Q494 536 489 534Q485 532 459.5 543.0Q434 554 411 570Q377 596 351 608Q333 618 318 629Q321 631 328.5 636.0Q336 641 346 648L370 663Q432 701 439 706Q455 717 462 720ZM905 609 893 581 868 522Q858 498 844.0 472.5Q830 447 825 441Q824 440 802 440Q745 440 678 442Q622 443 579.0 445.0Q536 447 518 448L499 449L500 367Q504 182 518 42Q521 11 521 -19V-41L514 -40Q490 -34 459 -32Q332 -15 332 -7Q332 -5 350 5Q392 34 406 86Q413 119 419.0 200.5Q425 282 425 358V439L409 437Q409 437 369 435Q352 435 315 433Q216 428 141 417Q114 413 114 415Q112 416 94.0 482.0Q76 548 77 549Q78 551 115 543Q190 530 282 523Q316 521 338 521Q487 521 683 554L718 559Q749 563 758 565Q804 570 829.5 577.0Q855 584 880 597Q905 609 905 609ZM563 353Q565 351 587 345Q598 343 624 335Q637 331 668 324Q737 309 739 307Q739 305 692 240L668 205L641 231Q612 260 600 281Q569 326 561 345Q559 351 559.5 352.5Q560 354 563 353Z"/></g></svg>