<svg enable-background="new 0 0 400 400" viewBox="0 0 400 400" xmlns="http://www.w3.org/2000/svg"><path d="m74.4 178c9.3 2.4 14.3 8.8 17.5 16.9 1.6 4 2.6 8.2 4 12.4 2.8 8.3 6.5 15.9 14.9 20 2.7 1.3 5 1.7 7.8-.3 6-4.3 12.9-4 19.9-3 2.9.4 5.9.6 8.8 1 11.5 1.5 22.7-1.7 34-2.9 6.8-.7 13.6-1.9 20.4-2.8 8.1-1 16.1.5 23.8 2.7 6.4 1.8 12.5 1.1 18.7-.6 8.3-2.3 16.7-5.2 25.5-4.1 5 .7 9.8 2.4 14.8 3.4 2.4.5 5.1.5 7.5.1 4.3-.7 6.8-3.7 7.1-8.1.2-2.7.2-5.5.4-8.2.7-7.3 6.4-12.5 13.5-11.4 6.7 1.1 13.2 3.5 19.8 5.5.7.2 1.2 1.1 1.6 1.8 3.6 7.2 7.1 14.4 10.7 21.6.3.6.8 1.4.6 1.7-1.7 3.4 1.1 4.3 2.9 6 .8.7 1.4 2.1 1.2 3.1-1.1 9-2.4 18-3.7 27-.2 1.4-.9 2.8-1.7 3.9-6.5 8.1-10.6 17.2-11.8 27.6-.9 8.4-4.5 15.2-12.2 19.6-8.6 5-16.6 10.9-22.8 18.9-.7.9-2.2 1.6-3.5 1.7-3.9.6-7.8.9-11.7 1.2-6.2.4-11.8 2.2-16.9 5.7-8.1 5.5-16.1 11-24.2 16.3-1.2.8-2.8 1.4-4.3 1.5-5.6.4-11.2.5-16.8.8-1.7.1-3.3.5-4.9.9-1.2.3-2.5.7-3.6 1.2-12.6 5.6-25.8 7.5-39.5 6.7-11.1-.6-22.2-.4-33.3 0-8.2.3-16-1.5-23.8-3.4-7.3-1.9-14.6-2-22-1.2-2.8.3-4.9-.3-7.1-2.2-5.8-5.1-11.7-10.1-18-14.6-14.4-10.3-21.7-24.2-23.2-41.7-2.6-30.9-.1-61.3 7.6-91.2 1.1-4.4 2.9-8.5 5.8-12.2 5.6-6.9 10.8-14 16.2-21.3zm31 108.6c0 4.9.1 9.7-.1 14.6-.1 3.2.9 5.7 2.8 8.2 2.9 3.8 5.5 7.7 8.4 11.5.4.6 1.4 1.2 1.9 1.1 7.3-1.8 14 1.1 20.9 2.3 5.7 1 11.4 2.9 17.1 2.7 11.4-.3 22.8-1.2 34.1-2.7 16.1-2.2 32.1-5.2 48.2-8 20.7-3.7 40.3-10.4 58.2-21.6 2-1.3 2.5-2.4 1.7-4.6-3.9-10.7-4.8-21.5-1.3-32.6 1.7-5.4-1-10.1-5-13.9-.7-.6-2.2-.8-3.1-.6-14.3 4.6-29.1 7.3-44 9.5-8.2 1.2-16.4 2.7-24.9 1.1-3.8-.7-7.8-1-11.7-.6-11.5 1.1-22.9 2.6-34.3 4.1-13.9 1.8-27.7 3.1-41.7 1.6-9.6-1-17.9 2-25.2 8.1-1 .9-1.8 2.5-1.9 3.9-.2 5.4-.1 10.7-.1 15.9z"/><path d="m291.4 122c-7.9 0-15.9-.6-23.8.2-4.6.5-9 2.9-13.3 4.8-2.5 1.1-4.8 1.3-7.2.1-8.4-4.2-17.2-4.3-26.3-2.7-.6.1-1.3.3-1.9.2-5.8-.7-8.8 2.6-10.1 7.5-2 7.9-3.3 15.9-5.1 23.8-1.7 7.2-3.6 14.3-5.5 21.4-.5 2.1-2.1 2.9-4.2 3.3-5.7 1-11.5 1.9-17.1 3.4-2.9.8-5.4 2.7-8.1 4.2-6.6 3.7-9.5 3-14.8-2.2-3.4-3.3-7.2-6.1-11-9.1-5.5-4.4-8.7-9.8-8.7-17.1.1-10.5 2.9-20.5 6-30.4 2.7-8.4 5.3-16.7 4.4-25.7-.1-1.1.4-2.3.8-3.3 5.4-14.2 10.8-28.4 16.3-42.6.5-1.2 1.2-2.5 2.2-3.4 6.1-6 12.4-11.8 18.6-17.8 1.2-1.1 2.1-1.3 3.6-.6 7.2 3.4 11.8 8.6 12.6 16.9.6 6.5 2.9 12.5 6.4 18 1.5 2.3 3.3 3.8 6 4.3 7.1 1.1 14.2 2.7 21.3 3 22.6 1.2 45.2 1.9 67.8 2.8 6.8.3 13.6 0 20.3.8 7.2.8 14 3.4 19.9 7.8 4.8 3.5 5.3 8.7 2.1 13.6-1.2 1.8-2.6 3.4-3.5 5.3-3.1 6.7-9 9.4-15.5 11.3-8.8 2.5-17.8 2.4-26.8 2-1.8-.1-3.6 0-5.4 0 0-.1 0 .1 0 .2zm-88.2 8.3c-6.8 5.7-2.7 11.5-.8 18.2.9-1.4 1.9-2.3 1.8-3-.4-2.7-1.1-5.4-1.8-8.4 3.2-1.2.8-4.2.8-6.8z"/></svg>