<svg enable-background="new 0 0 400 400" viewBox="0 0 400 400" xmlns="http://www.w3.org/2000/svg"><g fill="#fcfafa"><path d="m342.2 3.2-6.3 9.2h6.1v1.2h-8.2v-.5l6.2-9.1h-5.7v-1.2h7.8v.4z"/><path d="m344 13.7v-10.9h3.1c1.6 0 3 .5 4.1 1.4 1.1 1 1.6 2.2 1.6 3.9s-.5 3-1.6 4-2.5 1.5-4.2 1.5h-3zm1.4-9.6v8.4h1.6c1.4 0 2.5-.4 3.2-1.1.8-.8 1.2-1.8 1.2-3.2s-.4-2.4-1.2-3.1-1.8-1-3.1-1z"/><path d="m356.3 2.8v10.9h-1.4v-10.9z"/><path d="m366.6 13.2c-.8.4-1.8.6-3 .6-1.6 0-2.8-.5-3.7-1.5s-1.4-2.3-1.4-3.9c0-1.7.5-3.2 1.6-4.2s2.4-1.6 4-1.6c1 0 1.9.1 2.6.4v1.5c-.8-.4-1.6-.6-2.6-.6-1.2 0-2.2.4-3 1.2s-1.1 1.9-1.1 3.3c0 1.3.4 2.3 1.1 3.1s1.6 1.1 2.8 1.1c1.1 0 2-.2 2.8-.7v1.3z"/><path d="m368.2 13c0-.3.1-.5.3-.6.2-.2.4-.3.6-.3.3 0 .5.1.7.3s.3.4.3.6-.1.5-.3.6c-.2.2-.4.3-.7.3s-.5-.1-.6-.3c-.2-.2-.3-.4-.3-.6z"/><path d="m381.1 13.7h-1.7l-5.5-8.4c-.2-.2-.3-.5-.4-.7 0 .2.1.8.1 1.5v7.6h-1.4v-10.9h1.8l5.3 8.3c.3.4.4.6.4.8 0-.3-.1-.8-.1-1.6v-7.5h1.4v10.9z"/><path d="m389.7 13.7h-5.8v-10.9h5.6v1.2h-4.2v3.5h3.9v1.2h-3.9v3.7h4.4z"/><path d="m398.4 4.1h-3.1v9.6h-1.4v-9.6h-3.1v-1.3h7.7v1.3z"/></g><path d="m193.59 76.26c7.99 1.32 15.46 2.56 22.93 3.78 13.02 2.12 26.05 4.19 39.07 6.36 1.74.29 3.47.87 5.08 1.58 13.69 6.06 27.38 12.14 41 18.36 1.59.73 3.27 2.11 4.04 3.62 2.69 5.31 6.39 9.58 11.24 13.03 5.74 4.08 9.7 9.52 11.43 16.46.21.86.45 1.78.92 2.51 3.88 6.09 3.26 12.75 2.7 19.46-.69 8.25-1.01 16.54-1.83 24.77-.33 3.24-1.29 6.51-2.48 9.56-3.94 10.03-10.27 18.43-17.72 26.18-6.48 6.74-13.33 11.99-23.19 12.6-4.7.29-9.28 2.17-13.97 3.02-1.57.29-3.31-.37-4.9-.58.74-7.41 3.23-13.3 8.82-17.7-.15-.33-.29-.65-.44-.98-1.35 0-2.69.03-4.04-.01-1.88-.04-3.95.35-5.6-.3-2.88-1.15-5.58-2.84-8.22-4.5-2.72-1.71-5.49-2.88-8.8-2.49-.8.09-2.04-.1-2.44-.64-2.14-2.86-5.12-3.29-8.33-3.44-.72-.03-1.53-.45-2.09-.92-2.83-2.39-5.88-3.63-9.76-3.57-1.49.03-2.93-2.36-4.55-3.4-1.16-.75-2.57-1.15-3.91-1.58-1.32-.42-2.86-.39-4.02-1.05-4.38-2.48-8.58-5.27-12.98-7.71-1.67-.93-3.71-1.19-5.54-1.86-.86-.32-2.01-.7-2.37-1.39-1.24-2.38-3.33-2.82-5.66-3.54-8.64-2.68-16.7-3.29-23.27 4.45-16.13 9.5-33.21 15.95-52.2 16.29-1.34.02-2.68-.12-4.02-.21-5.53-.38-7.47-2.43-6.97-8.07.57-6.39 2.19-12.34 8.52-15.72 2.26-1.21 4.33-2.79 6.59-3.99 10.25-5.47 20.56-10.83 30.78-16.36 1.37-.74 2.65-2.04 3.42-3.4 3.01-5.34 5.8-10.81 8.79-16.45-1.37-.78-2.8-2.03-3.71.28-1.56 3.93-4.69 5.85-8.41 6.97-5 1.5-8.45 4.61-11 9.1-.7 1.24-2.4 2.04-3.79 2.72-3.31 1.6-6.73 2.98-10.09 4.49-4.55 2.04-8.91 1.26-13.22-.7 0-3.17-.07-6.18.05-9.19.03-.73.57-1.56 1.1-2.14 1.96-2.17 4.2-4.12 5.99-6.42 1.35-1.74 1.89-4.13 3.31-5.79 1.51-1.76 3.54-3.14 5.52-4.42 2.88-1.86 6.28-3.07 8.82-5.29 6.79-5.96 13.27-12.28 19.77-18.56 1.3-1.26 2.14-3 3.19-4.52-.14-.35-.28-.69-.42-1.04-2.43.29-5.07.06-7.25.95-15.62 6.42-32.04 8.9-48.69 10.27-2.88.24-5.81.04-8.7-.19-1.93-.16-2.65.47-3.21 2.35-2.29 7.6-2.19 15.32-.95 22.96 1.2 7.36 2.02 15.19 5.22 21.72 3.36 6.85 1.38 12.3-.75 18.2-1.7 4.73-5.32 6.08-9.6 3.35-5.43-3.47-10.95-7.02-13.63-13.39-.65-1.54-1.46-3.03-2.34-4.45-3.28-5.32-4.31-10.87-4.7-17.28-.47-7.72-.6-15.08 1.19-22.6.71-2.98.2-6.24.34-9.37.19-4.18.98-8.12 3.6-11.64 2.4-3.22 4.56-6.66 6.51-10.17 1.44-2.59 3.41-4.1 6.24-4.42 8.75-.98 17.52-1.82 26.27-2.8 4.63-.52 9.24-1.22 13.86-1.83 1.98-.26 4-.9 5.93-.68 5.99.66 11.73.58 17.22-2.49 1.32-.74 3.28-.51 4.93-.43 2.08.1 2.86-.81 2.79-2.75-.36-9.84-1.01-19.64-5.19-28.79-1.65-3.62-.56-10.15 2.49-12.68 4.46-3.68 8.9-7.45 13.74-10.58 2.04-1.32 5.05-1.48 7.63-1.53 3.67-.06 7.37.35 11.04.77 4.92.56 7.52 4.4 9.61 8.11 5.49 9.76 6.53 20.6 6.15 31.53-.2 3.34-1.85 6.59-2.89 10.2zm-1.86 30.5c4.31 4.93 7.92 9.18 11.68 13.29.68.74 1.93.96 2.9 1.44 1.35.68 2.82 1.2 4 2.11 2.57 1.97 4.92 4.22 7.48 6.22 5.71 4.45 11.81 8.04 19.35 8.37 2.34.1 4.84.11 6.95.95 7.68 3.03 15.36 6.11 22.79 9.7 6.52 3.15 9.62 9.1 10.78 16.05.58 3.49-1.77 5.81-4.21 7.48-1.27.87-4.05 1.11-5.22.3-3.84-2.67-8.13-2.76-12.43-3.35-6.02-.83-12.22-.39-17.89-3.58-5.81-3.26-11.73-6.45-18.64-7.14-1.29-.13-2.38-2.03-3.6-3.07-1.05-.89-2.17-2.44-3.24-2.42-2.56.03-4.14-1.21-5.79-2.79-2.67-2.55-5.43-5-8.15-7.5-1.61-1.49-3.54-2.43-5.43-.99-2.21 1.69-5.82 2.4-5.26 6.46.56 3.99.94 8 1.57 11.97.13.86.79 2.02 1.51 2.33 6.62 2.9 13.22 5.92 20.02 8.32 3.35 1.18 6.71 1.93 9.69 4.15 2.56 1.91 5.52 3.63 8.57 4.46 9.84 2.67 18.26 9.53 28.91 9.74.32.01.69.11.95.3 7.3 5.13 15.09 9.71 19.57 17.95.46.85 1.72 1.86 2.56 1.82 5.4-.28 8.93-3.3 10.16-8.57.91-3.93 2.5-7.39 5.78-9.91.42-.33.92-.81 1-1.28.86-5.14 2.04-10.27 2.31-15.45.21-4.08-1.07-8.22-1.07-12.34-.01-7.61-2.36-13.88-8.71-18.43-1.44-1.03-2.52-2.54-3.84-3.74-.73-.66-1.65-1.09-2.44-1.68-1.53-1.14-3.53-2.01-4.45-3.54-2.4-3.99-5.55-6.66-9.85-8.54-8.8-3.84-17.38-8.2-26.12-12.18-1.76-.8-3.81-1.14-5.75-1.31-9.23-.78-18.49-1.21-27.69-2.21-5.99-.68-11.87-2.12-18.75-3.39z" fill="#010103"/><path d="m103.86 269.64c.34-1.48.77-3.78 1.43-6.02.22-.73.92-1.65 1.6-1.86 3.63-1.11 7.27-2.28 10.99-2.94 3.34-.59 6.45.1 9.48 2.22 2.48 1.73 5.66 2.56 8.63 3.46 3.37 1.02 6.02 2.47 7.22 6.14.44 1.35 1.96 2.76 3.33 3.33 6.04 2.48 11.4 5.7 16.32 10.17 10.25 9.3 22.28 15.65 35.93 18.58 1.04.22 2.26-.56 3.42-.68.58-.06 1.2.32 2.05.57 1.58-1.86 3.3-3.89 5.68-6.69-4.44-3.62-8.3-8.14-13.21-10.53-16.58-8.09-30.1-20.48-45.09-30.78-7.9-5.43-13.51-12.99-19.45-20.26-1.79-2.19-.82-5.63 1.51-7.17 2.04-1.35 4.04-2.79 5.84-4.44 4.95-4.52 9.84-5.27 15.26-1.54 9.73 6.69 19.65 13.2 28.78 20.66 4.47 3.65 8.3 8.01 13.82 10.21.48.19.97.65 1.21 1.12 2.28 4.43 6.82 5.68 10.66 8.1 5.53 3.49 10.59 7.78 15.55 12.07 2.21 1.91 3.81 2.15 6.43.92 8.71-4.09 11.82-9.09 10.87-18.74-.1-1-.95-2.27-1.82-2.81-5.5-3.43-11.09-6.73-16.7-9.98-.91-.53-2.12-.95-3.13-.85-3.43.36-6.41-.65-9.14-2.55-7.32-5.07-15.96-6.24-24.32-8.08-10.82-2.38-18.95-9.28-27.41-15.65-1.19-.9-2.06-2.38-2.75-3.76-2.82-5.61-1.97-8 3.97-9.46 6.38-1.57 12.89-2.59 19.36-3.74.9-.16 2.15-.06 2.8.47 4.38 3.53 9.55 4.75 14.93 5.41 7.07.88 13.56 3.31 19.98 6.41 6.71 3.24 13.72 5.99 20.81 8.28 15.53 5.01 26.13 15.4 33.76 29.39 1.7 3.12 3.77 6.04 5.86 8.93 2.48 3.43 3.86 6.9 2.34 11.22-1.29 3.68-2.34 7.47-3.19 11.28-1.36 6.09-3.47 11.68-7.95 16.27-1.31 1.34-2.13 3.43-2.54 5.32-.63 2.94.1 5.46 3.41 6.7 5.22 1.96 9.26 5.41 13.02 9.6 5.82 6.49 12.42 12.26 18.42 18.6 8.21 8.67 16.19 17.55 24.18 26.42.53.59.73 1.84.56 2.67-1.71 8.25-3.11 9.57-11.62 9.89-5.35.2-10.73-.11-16.09-.35-.97-.04-2.06-.63-2.83-1.28-3.02-2.58-5.75-5.53-8.92-7.88-3.3-2.45-7.09-4.24-10.5-6.56-8.5-5.76-14.53-13.68-19.89-22.33-3.54-5.71-9.37-8.51-16.01-8.73-3.44-.11-6.9 1.28-10.38 1.56-6.65.53-13.33 1.13-19.98 1.01-10.11-.18-19.42-4.05-28.75-7.46-2.86-1.05-5.17-3.51-7.93-4.97-5.33-2.81-10.71-5.57-16.23-7.99-7.37-3.23-13.87-7.66-19.81-13.02-6.49-5.84-12.89-11.79-19.56-17.4-4.3-3.6-9.03-6.68-14.21-10.48z" fill="#010103"/></svg>