<svg enable-background="new 0 0 400 400" viewBox="0 0 400 400" xmlns="http://www.w3.org/2000/svg"><path d="m330.5 185.7c.9-4.5 2.1-4.9 5.6-2.1 6.8 5.6 13.6 11.1 20.1 17 4 3.6 7.1 7.8 6.4 13.8-.2 2-1 3.1-3.1 3.8-6.6 2.2-12.8 1.8-19.4-.7-12.7-4.8-23.7-12.5-34.9-19.9-16.6-11-32.9-22.3-49.3-33.5-1.4-.9-2.7-2.1-3.8-3.3-2-2.2-4.4-3.4-7.4-3.8-1.6-.2-3.2-1-4.6-1.9-16.5-10.1-32.8-20.6-49.5-30.3-6.4-3.7-13.8-5.7-20.7-8.5-1.8-.7-2.7 0-3.6 1.8-1.3 2.5-2.8 5.1-4.8 7-10.7 10-21.1 20.2-32.4 29.4-10.9 8.8-20.4 19.1-30.7 28.4-4.8 4.3-10.1 8-15.6 11.3-10.6 6.6-19.8 14.8-28.2 24-4.8 5.3-10.2 9.5-17.4 11.1-1.6.4-3.3.5-5.5.8 1.5-3.9 1-7.8 4.4-10.3.6-.4 1-1.2 1.2-1.9 1.8-6.1 6.1-10.2 10.4-14.5 5.9-6 11.4-12.5 17-18.7.9-1 1.9-2 3-2.7 4.2-2.4 8.1-4.9 9.8-9.8.3-.9 1.3-1.6 2.2-2.2 29.6-22.4 56.9-47.4 83.3-73.4 4.2-4.1 7.7-8.8 14.3-4.2 8.9.3 16.6 3 22.6 10 1.8 2.1 4.8 3.4 7.5 4.7 18.6 8.4 35.7 19.3 53.1 29.7 9.4 5.6 18.3 12.1 27.7 17.9 10.7 6.7 21.7 13.2 32.5 19.7 1.6 1 3.4 1.8 4.8 3.1 1 1 1.9 2.5 1.9 3.9-.1 2.9-.3 2.9 3.1 4.3z"/><path d="m143.7 238.8c2.4-3 7.1-3.1 11.4-3.5 13.3-1.3 26.5-2.3 39.9-2.8 4.1-.2 8.4 1 12.5 2.1 10.4 2.8 21 2.1 31.5 1.5 6.7-.4 12.8.2 18.4 4 3.5 2.4 7.2 2.6 11.2 1.9 1.8-.3 3.6-.4 5.4-.4.7 0 1.9.4 2 .9.8 3.7 4.1 5.2 6.6 7.4.9.8 1.8 1.5 2.7 2.2 3.1 2.6 3.7 6.1 1.4 9.6-6.7 10-13.1 20.3-22.9 27.7-3.2 2.4-6.4 4.8-9.8 6.9-4 2.4-8.2 4.4-12.4 6.4-1 .5-2.4.4-3.5.7-1 .3-2.1.5-2.7 1.2-2.3 2.3-5 2.8-8.1 3-13.5 1-26.9 2.2-40.4 3.1-6.2.4-12.5 1.3-18.6.7-8.7-1-16.8-4.1-24-9.7-16.2-12.5-25-29.4-30.3-48.6-1.8-6.5-1.6-6.5 3.8-10.5 4.1-3.1 8.4-4.7 13.5-4.3 3.9.2 7.8.3 12.4.5zm114.6 42.9c-4-1-4-3.4-3.2-6.6 1-4.2 1.5-8.5 2.5-12.8.7-2.8-.3-4.5-2.8-5.5-1.3-.5-2.6-1.1-3.9-1.2-7.1-.2-14.2-.9-21.2-.2-20.1 2.1-40.1 4.7-60.1 7.1-5.3.6-10.6 1.4-16.4 2.1 1.5 4.8 2.8 9.2 4.2 13.6 2.2 6.7 6.6 10.6 13.7 11.5 17.6 2.3 35.1 3 52.8.7 4.8-.6 9.6-1.9 14.2.4 5.9-4.9 12.7-7.6 20.2-9.1z"/><path d="m248 199.3c-3.2.7-6.4 1.7-9.7 2.1-2.2.3-4.5-.2-6.8-.2s-4.8-.3-6.8.5c-4.4 1.7-8.8 1.9-13.4 1.3-1.8-.2-3.8-.7-4.9 1.7-.2.4-1.3.5-2 .7-7.8 1.9-15.7 1.5-23.6.4-7.3-1-14.6-1.3-22-1-19.8.9-39.1-2.9-58-8.6-2.3-.7-2.5-2-1.4-3.8 2.3-3.8 5.1-7 9.6-8.2 6-1.6 12-3.5 18.1-4.7 2.2-.5 4.9.1 7.2.8 11.6 3.9 23.5 4.1 35.7 3.8 19.3-.5 38.7-.3 58.1-.4 8.4-.1 16.9-.9 25.1 2 2.7 1 5.5 2.2 7.8 3.9 2.9 2.2 2.6 4.7-.2 7-3.8 3.2-8.1 3.7-12.8 2.7z"/></svg>