<svg enable-background="new 0 0 400 400" viewBox="0 0 400 400" xmlns="http://www.w3.org/2000/svg"><path d="m294.7 184.5c-5.5 4.8-12.1 6.7-19.2 6.7-8.3.1-16.7-.5-25 0-5.9.3-11.8 1.9-18 3v4.2c.2 9.5-.7 19-1.7 28.5-.7 6.2.7 12.6 1.3 18.9.6 6 .5 11.6-3.7 16.5-3.2 3.7-7.9 4.7-12.3 2.3-.7-.4-1.4-1.5-1.5-2.4-.8-16-1.6-31.9-2.1-47.9-.1-3 1-6 1.7-9 1.8-8.2-2.1-13.9-10.5-13.9-8.3-.1-16.7.3-25 1.3-11.8 1.3-23.4.3-35.2.1-3.3-.1-6.6-.4-9.8-.3-2.4.1-3.9-1-5.2-2.9-2.8-4.1-3.2-8.6-3.2-13.3 0-4.5.1-9.1.2-13.6.1-5.7 2.7-8.8 8.3-9.6.4-.1 1-.2 1.2 0 2.2 3.1 5.3 6.1 6.3 9.6 1.3 4.6 2.3 8.2 7.7 9.8 7 2 13.9 4.3 21.4 3.9 2.2-.1 4.6 0 6.6-.8 5.2-2.2 10.2-1.4 15.5-.6 3.4.5 7.1-.1 10.6-.4 1.9-.2 3.7-.8 5.6-1.2 6.7-1.5 8.5-4 8.1-11.1-.3-4.7-.4-9.5-.4-14.3 0-1.1.2-2.4.7-3.3 2.5-4.7 2.5-9.7 2.7-14.8.2-6.6.7-13.3 1-19.9.1-1.5-.3-3.1-.8-4.6-1.7-5.7-.5-10.6 3.8-14.8 1.4-1.4 2.7-3 4.4-4.1 1.4-.9 3.2-1.6 4.8-1.5 9.1.8 11.5 4.6 8.2 13.1-.9 2.5-1.7 5.1-3.1 7.3-3.2 5-3.4 10.2-1.8 15.7.8 2.6.2 5-.4 7.6-1.3 5.3-2 10.8-2.1 16.3-.3 9.1.1 18.2 0 27.3 0 2 .9 2.8 2.5 3.4 5.2 2 10.3 1 15.6.4 8.8-1 17.6-1.7 26.5-1.8 7.1-.3 13.1 2.7 16.3 10.2z"/><path d="m228.3 292.8c3.9 4.8 7.3 4.7 11.1.2.9-1 2.6-1.9 3.9-1.9 26 .7 51.8-2.5 77.6-4.3 2.6-.2 5.3-.3 7.9-.6 8.7-.9 14.9-6.6 16-15.4.7-5.8.2-11.6.8-17.4.5-5.2 1.8-10.3 2.6-14.9.9-.4 1-.5 1.1-.5 6.3.4 6.6.3 8.1 6.6 2.1 8.8 4.1 17.7 5.7 26.7.6 3.5.3 7.2.2 10.8-.1 4.2-2.8 7-5 10.3-4 5.9-9.1 7.9-16.2 8.8-34.1 4-68.2 6.4-102.5 7.4-6.4.2-12.8 1.3-19.2 1.6-8.3.4-16.7.7-25 .7-5.2 0-10.3 0-15 2.9-3.6 2.2-7.5 2.5-11.6 2-4-.5-8-.7-12-.8-2.1 0-3-.8-3-2.7 0-5.3-.9-10.7.3-15.7 3-13.3 3.9-26.7 3.5-40.3-.1-2 .1-4.5 1.2-5.8 2.4-2.9 5.5-5.3 9.6-5.6 4.4-.3 5.5.2 5.5 4.7 0 9.1-.7 18.1-1.1 27.2-3.5 4.4-2.7 9.6-2.4 14.6.1 1.2 1.1 2.6 2.1 3.3 1.5 1.1 3.4 1.7 5 2.7 2.2 1.4 4.3 2.3 6.5.1.1-.1.2-.1.3-.1 6.6-1.2 13.2-2.6 19.8-3.5 2.4-.3 5.1.1 7.5.6 5.6.9 11.2 1.3 16.7-1.7z"/><path d="m41.1 125.2c6.2-5.2 13.1-4.2 20.1-3.5 13.6 1.4 27.2 2.5 40.8 3.5 3.4.3 7-.6 10.4-.5 2.1.1 4.4.7 6.3 1.6 2.2 1 3.2 3.2 2.7 5.6-.7 3.3-2 6.2-4.3 9-3.2 3.8-5.8 8.3-8 12.8-2.1 4.3-4 8.5-7.6 11.8-4.5 4.1-7.4 9.2-7.2 15.6.1 3.3-1 5.9-4.2 7.4-2.9 1.4-4.5 3.7-5 6.8-.4 2.3-1.7 3.1-4 2.8-1.5-.2-3-.2-4.4 0-3.3.5-4.4-1.4-4-4 .4-3 1.4-5.9 2.5-8.7 1.8-4.8 3.9-9.5 5.9-14.3.4-.9 1.1-1.8 1.7-2.6 5.3-6.6 9.2-13.9 11.3-22.2 1.1-4.6.7-5.7-4.1-6.5-8.8-1.6-17.8-2.7-26.7-3.9-5.9-.8-11.8-1.4-17.7-1.9-1.9-.2-2.8-.8-3.2-2.7-.2-1.9-.8-4-1.3-6.1z"/><path d="m34.2 152.7c3.9 1.4 6.1 4.5 7.4 7.9 2.4 6.5 4.4 13.2 6.4 19.9.9 3.1 1.7 6.4 2.1 9.6.3 2.1.3 4.4-.2 6.5-.9 4.6.3 7.5 5 8 7.4.8 14.9.8 22.4 1 3.3.1 6.5-.8 9.8-.6 7.6.4 10.8 4.1 10.6 11.7 0 1.2-.2 2.3-.3 4-20.3-.4-40.5-.9-60.9-1.3-.2-.6-.4-1.1-.4-1.6-1.2-13.1-2.9-26.3-3.6-39.4-.4-7.9.6-15.8.9-23.7.2-.7.6-1.3.8-2z"/><path d="m323.6 158.7c-.9 9.6-1.7 17.8-2.5 26.1-.1.6-.1 1.4-.4 1.8-4.7 5.7-4.5 13-6.2 19.7-.7 2.7-2.1 4.4-4.6 4.3-2.7-.1-6.5.5-7.2-3.4s-.7-7.9-.8-11.9c0-1.5.5-2.9.6-4.4.3-4.1 1.2-7.8 3.4-11.6 2.1-3.4 2.7-7.7 4.1-11.6 2-5.7 4-11.5 6.4-17.2 1.3-3.3 4-3.3 5.5 0 1.1 3.1 1.3 6.4 1.7 8.2z"/></svg>