<svg enable-background="new 0 0 400 400" viewBox="0 0 400 400" xmlns="http://www.w3.org/2000/svg"><path d="m249.1 115.7c2.6-2.6 6.5-3.4 10.4-2.8 7.9 1.1 15.8 2.7 23.7 4.3 4.8 1 7.5 5 10.5 8.3 1.8 1.9.1 6.5-2.4 7.4-9.7 3.5-19.6 5.8-30 6.2-3.7.1-6.9-.3-8.5-2.4-4.2.8-7.5 1.9-10.9 1.9-9.2.1-10.8 5.8-9.2 12.6.3 1.3.8 2.6 1.3 3.9 1.9 5.4 2 10.4-1.5 15.6-4.7 6.9-8.7 14.2-13.1 21.5 4.4 2.9 8.5 5.6 12.9 8.4.5-1.2.9-2.2 1.4-3.3 1.4 1.2 2.6 2.5 4 3.5 2.4 1.7 5 1.8 7.4.2 2.6-1.8 5.4-2.2 8.4-1.5 2 .5 4.2.7 6.2 1.1.9.2 2 .5 2.4 1.1 1.6 2.4 3.3 2.1 5.7 1.2 2.3-.8 5.1-1 7.6-.7 3.2.4 6.5 1.2 9.5 2.3 7.2 2.6 14.7.8 22 1.5 4.2.4 8.4 1.1 12.5 1.9 2.3.5 3.3 2 3.1 4.6-.7 8.3-.6 8.4-8.6 10.4-14.6 3.6-29.5 4-44.4 3-5.1-.4-10.1-.3-15 1.2-3.3 1-6.4 1-9.5-.4-4.8-2.2-9.6-2.9-15-1.5-3.4.9-7.3-.1-11-.5-5.5-.7-10.9-.8-16.3 1.1-1.3.4-3.2-1-5.4-1.8-2.2 3-5.4 1.6-9 .8-3.4-.8-7.3-.1-10.9.5-7.8 1.4-15.5 3.4-23.3 4.8-4.2.7-8.6.6-12.9.7-20.8.5-41.7.9-62.5 1.3-1.6 0-3.2 0-5.1 0-.6-3.9-1.1-7.8-1.6-11.6-.1-.5.4-1.3.8-1.5 3.6-1.9 7.1-4.3 11-5.3 4-1.1 7.8-2 11.4-4.3 7.3-4.5 15.4-5.4 23.8-4.6 2.3.2 4.7.2 6.9-.2 4.4-.9 7.1-5 5.5-8.7-4.3-10.1-4.9-20.9-7-31.5-1.5-7.5-2.6-15-4-22.5-.2-1.2-1.2-2.5-2.2-3.2-5.3-3.6-11.4-4.1-17.6-4-6.7.1-12.5-2-16.6-7.6-.1-.2-.2-.4-.4-.9 2.4-1.6 4.7-3.3 4.4-6.8 0-.5 1.6-1.5 2.6-1.8 20.9-6.1 42.3-6.4 63.8-5.4 6.1.3 12.3-.6 18.3-1.7 14.2-2.5 28.5-1.4 42.7-.6 9 .5 17.9 1.2 26.9 2.2 2.1.4 4.2 2.2 6.8 3.6zm-68.2 21.5v.9c-5.1 0-10.2-.3-15.2.1-3.4.3-6.8 1.3-10.1 2.3-2.2.6-3.4 2.1-3.4 4.7 0 2.9-.8 5.9-.9 8.8-.2 4.8-.9 9.8 0 14.4 1.5 8.2 3.9 16.2 6.1 24.3.3 1.3 1.3 2.6 2.4 3.4 3.9 2.9 8.3 2.6 12.8 2 3.9-.6 7.8-.7 11.5 1 .6.3 1.5.3 2 0 3.1-2.1 6.1-4.2 9-6.5.6-.5.9-1.6 1.1-2.5 2.5-14.2 5.9-28.3 10.8-41.9.7-2.1.5-4.5.5-6.7 0-.6-1.1-1.6-1.9-1.6-8.3-1-16.5-1.8-24.7-2.7z"/><path d="m198.2 363.1c-.6.4-1.8 1-3.1 1.7-2-2.5-4.3-2.5-7-1-1.4.7-3.4 1.3-4.9.8-8-2.6-16.2-4.9-23.9-8.4-11.8-5.4-20.3-14.7-27.3-25.4-3.8-5.7-7.3-11.7-10.6-17.7-.8-1.5-.7-3.5-.7-5.3.1-1.4.7-2.9 1.1-4.3 1.1-4.2.3-6.7-3.2-9-2.6-1.7-3.6-3.9-3.4-7.8 1.2 2.6 2.1 4.4 2.9 6.2.3-.1.7-.2 1-.3-.2-5.6 1.5-11.3-2.2-16.8 1.4 0 2.5-.2 3.4 0 4.5 1.2 8.6.2 12.3-2.3 3.8-2.5 8.1-2.3 12.2-2.6 8.2-.8 16.4-1.3 24.7-1.9.7-.1 1.5.1 2.2.2 5.2.7 10.4 1.4 15.7 2.1 1.4.2 2.7.3 4.1.6 3.2.7 6.4 2.9 9.7.1.5-.4 1.4-.2 2.2-.2 14.4.5 28.7 1 43.1 1.5.9 0 1.9.2 3 .2 1.1 7 2.2 13.9 3.3 20.7.8 5.3 1.4 5.8 7.1 4.9-1 3.4-1.7 6.7-2.9 9.8-1.5 4-2.4 7.8-1.3 12.1.2.8-.4 2-1 2.7-8.2 9.3-16.5 18.5-24.6 27.8-5.7 6.5-11.8 12.2-20.7 13.6-2.1.3-4.2.5-6.3.2-1.5-.2-2.8-1.3-4.9-2.2zm-20.6-29.5c3.5 1.3 6.7 2.7 10 3.6 11.8 3.5 22 1 30.4-8.4 2.3-2.6 5.6-4.4 8.3-6.7 1.2-1 2.6-2.5 2.8-3.8.7-5.5 1.4-11.1 1.1-16.7-.3-6.2-4.1-9.7-10.3-11.2-2.2-.5-3.7-.1-5.3 1.6-1.2 1.3-3 2.4-4.7 2.8-4.7 1.1-9.5 1.9-14.3 2.7-6.5 1-13 1.6-19.1-2.1-.6-.4-1.6-.3-2.5-.2-3.3.4-6.5.7-9.7 1.3-.8.1-1.8.8-2.1 1.5-1.8 3.6-3.4 7.3-4.9 11-.3.7-.3 1.7 0 2.4 1.9 3.6 3.4 7.6 6.2 10.5 4.6 4.9 10.3 8.7 13.3 15.5.4-2 .6-3.1.8-3.8z"/><path d="m212.9 76.7c-3.2 1.4-6.1.3-8.9-1.9-1.9-1.4-3.8-1.8-6.2-1.2-16.9 4.2-32.9 1-48.4-6.1-.8-.4-2-.8-2.6-.4-4.3 2.6-8.8 2.1-13.2 1s-8.7-2.5-13-4.1c-1.1-.4-2.3-1.9-2.5-3.1-.7-4.1-.9-8.2-1.3-12.3 0-.6 0-1.4.4-1.8 3-3.3 5.6-6.7 10.1-8.8 11.1-5.1 21.9-2.4 32.9-.2 11.3 2.3 22.5 5.2 33.8 6.9 11 1.6 22.1 2.1 33.2 2.9 9 .7 17.4 3.6 25.4 7.5 4.7 2.3 6.7 6.8 6.3 11.8-.2 2.2-1.1 3.6-3.2 4-5.9 1.3-11.7 2.7-17.7 3.7-6.9 1.2-13.8 2-20.7 2.8-1.5.4-3-.4-4.4-.7z"/></svg>