<svg enable-background="new 0 0 400 400" viewBox="0 0 400 400" xmlns="http://www.w3.org/2000/svg"><path d="m164.58 230.94c-.45 4.94-.67 5.08-4.83 3.47-2.84-1.1-5.85 1.12-6.3 4.88-1.08 9.11-2.09 18.23-3.06 27.35-1.52 14.31-7.82 26.44-16.9 37.3-7.46 8.93-16.25 16.21-26.46 21.92-4.24 2.37-7.88 5.86-11.69 8.95-2.77 2.25-5.68 4.13-9.37 3.78-1.35-.13-3.55-.92-3.73-1.76-.38-1.73-.27-4.15.72-5.48 4.2-5.64 9.76-10.46 13.07-16.53 8.28-15.18 15.58-30.89 23.35-46.36 4.19-8.34 6.39-17.14 6.5-26.46.02-1.33-.01-2.73-.39-3.98-.54-1.82-1.13-4.8-2.22-5.05-2.73-.64-5.66-.87-8.3 1.75-17.04 16.91-36.4 30.7-57.81 41.53-7.45 3.77-15.07 7.3-22.89 10.17-3.67 1.35-8 .88-12.03 1.24-.18-.42-.37-.84-.55-1.26.55-.97.92-2.09 1.66-2.87 4.9-5.22 9.88-10.37 14.85-15.53.46-.48.96-.97 1.54-1.28 15.87-8.62 28.66-21.36 42.86-32.2 9.43-7.19 18.63-14.68 27.91-22.07 4.44-3.54 7.85-7.88 10.17-13.64-1.88-.83-3.6-1.97-5.48-2.36-14.11-2.92-28.24-5.7-42.38-8.48-.83-.16-1.9-.32-2.56.04-4 2.21-7.67.9-11.49-.58-9.02-3.48-9.02-3.4-7.8-12.97.58-4.55 1.19-9.1 1.5-13.67.16-2.36 1.19-3.92 3.23-4.55 2.86-.89 5.83-1.44 8.78-2.02.4-.08 1.04.36 1.38.74 6.5 7.17 14.93 11.32 23.68 14.84 8.7 3.5 17.48 6.89 26.97 7.71.77.07 1.55.01 2.74.01 0-1.27 0-2.47 0-3.67 0-16.57.31-33.14-.15-49.7-.19-6.96-1.93-13.9-3.21-20.8-.14-.77-2.07-1.94-2.86-1.73-4.17 1.1-8.4 2.21-12.29 4.02-5.36 2.49-10.36 5.74-15.64 8.42-3.46 1.75-6.7 3.24-9.09 6.8-1.69 2.51-5.18 4.11-8.19 5.35-3.05 1.26-6.52 1.47-9.75 2.35-3.32.9-6.52 2.22-9.85 3.06-2.54.64-5.21.81-7.82 1.19-.21-.45-.42-.91-.63-1.36.89-1.16 1.73-2.36 2.67-3.48 11.03-13.01 25.62-21.51 39.42-31 8.85-6.09 17.69-12.18 26.65-18.09 1.85-1.22 4.22-1.67 6.59-2.03 2.74-6.54 9.64-9.27 14.44-14.06.51-.51 1.72-.89 2.35-.65 5.58 2.16 10.85 5.02 11.74 11.95 1.24 9.64 2.92 19.23 4.21 28.87.29 2.17-.03 4.48-.37 6.68-2.06 13.12 1.15 25.81 2.95 38.62.65 4.64 1.07 9.32 1.72 13.97.2 1.41.61 2.86 1.26 4.12 2.09 4.03 4.36 4.43 7.6 1.45 10.2-9.37 21.16-17.99 29.18-29.54 1.04-1.5 2.71-2.7 4.32-3.64 4.67-2.73 6.8-2.25 10.09 1.93 2.77 3.52 5.9 6.83 8.12 10.66 1.59 2.75 2.42 6.17 2.7 9.37.27 3.09-1.55 5.47-4.41 7.31-4.97 3.19-10.12 5.5-15.99 6.47-2.55.42-5.06 1.69-7.35 2.99-9.12 5.19-18.16 10.53-27.2 15.88-1.23.73-2.46 1.63-3.34 2.72-2.7 3.34-2.43 5.55.69 8.45 10.51 9.76 22.74 16.94 35.34 23.57 3.06 1.61 5.9 3.61 8.89 5.35 4.03 2.35 7.97 4.9 12.18 6.88 8.64 4.06 16.1 9.2 19.87 18.47.78 1.92.34 3.06-.79 4.74-3.57 5.3-8.05 5.3-13.5 3.55-9.26-2.97-17.64-7.49-25.65-12.91-8.8-5.95-17.79-11.62-26.7-17.4-.8-.57-1.67-1.02-2.87-1.71z" fill="#010000"/><path d="m259.76 238.68c-.65-1.14-1.05-2.68-2.03-3.25-.55-.32-1.99 1.09-3.11 1.47-1.43.48-3 1.14-4.41.96-4.03-.53-7.64-1.88-10.57-5.12-6.08-6.73-12.7-13.07-15.36-22.09-.97-3.28-1.46-6.76-1.67-10.18-.38-6.25-.55-12.52-.48-18.79.03-2.92.81-5.84 1.25-8.76.08-.54.37-1.13.24-1.61-1.84-6.93 1.4-12.22 5.39-17.36 1.71-2.2 3.03-4.69 4.64-6.97 1.15-1.64 2.34-3.3 3.75-4.71 5.76-5.77 14.89-4.3 18.58 3.07 1.93 3.85 2.79 7.95 1.83 12.34-.74 3.36.54 4.48 4 4.13 19.02-1.93 38.03-4.03 57.09-5.59 6.76-.55 13.63.36 20.45.39 1.39.01 3.05-.59 4.13-1.47 3.22-2.6 6.21-5.48 9.29-8.24 3.62-3.24 6.27-2.72 10.11.55 10.58 9.01 11.54 19.89 7.24 32.19-2.39 6.85-5.87 12.9-10.42 18.58-5.91 7.4-12.81 13.3-21.32 17.41-7.02 3.39-13.26 8-18.48 13.72-6.51 7.13-14.85 10.01-23.96 10.38-12.15.49-24.33.12-36.5.12.11-.38.22-.77.32-1.17zm21.51-24.07c8.88-1.86 17.61-3.65 26.32-5.54 6.97-1.51 12.92-4.66 17.29-10.57 1.98-2.69 4.7-4.83 6.67-7.53 1.87-2.56 3.66-5.37 4.66-8.34 2.32-6.9-.22-10.74-7.43-11.77-2.08-.3-4.31-.45-6.33-.03-6 1.25-11.98 2.68-17.9 4.3-7.64 2.09-15.15 4.73-22.86 6.52-3.81.89-8.15 1.24-11.85.29-3.04-.78-5.25-.62-7.76.75-1.47.8-3.1 1.31-4.53 2.17-.78.47-1.64 1.27-1.89 2.09-1.92 6.27-2.13 12.55.7 18.64.54 1.16 1.42 2.71 2.45 3.01 7.36 2.14 14.81 4 22.46 6.01z" fill="#010000"/><g fill="#fbfcfa"><path d="m361.2 9.6.8-1c.9.7 1.9 1.4 2.9 2.3l-.9 1.1c-1-1-2-1.8-2.8-2.4zm.5 10.6c.9-2.1 1.6-4.3 2.3-6.7.4.2.8.4 1.3.6-.7 2.1-1.5 4.3-2.2 6.6zm.4-15.2.9-.9c1 .8 2 1.6 2.8 2.4l-1 1c-.9-.9-1.8-1.7-2.7-2.5zm12.5-1.2h1.2v1.4h2.7v1.1h-2.7v2.7h-1.2v-.6h-1.8v1.3h4.9v3.8h-1.2v-.5h-3.7c0 .4-.1.9-.1 1.2h5.1v1h-5.2c0 .5-.1.9-.2 1.2h6v1h-5.2c1.1 1.3 2.9 2 5.5 2.2-.4.4-.7.8-.9 1.3-2.9-.5-4.8-1.6-5.7-3.5h-.1c-.8 1.7-2.7 2.9-5.9 3.6-.2-.4-.6-.8-.9-1.1 2.8-.6 4.6-1.4 5.4-2.5h-4.8v-1h5.3c.1-.3.2-.7.2-1.2h-4.9v-1h5c0-.4 0-.8.1-1.2h-3.5v.5h-1.2v-3.8h4.9v-1.3h-1.8v.5h-1.2v-2.7h-2.7v-1h2.6v-1.4h1.2v1.4h4.7v-1.4zm-6.6 8.3h3.6c0-.4 0-.9 0-1.4h-3.6zm1.9-4.6h4.7v-1.3h-4.7zm6.6 3.2h-3.7v1.4h3.7z"/><path d="m385.3 3.8h1.3v2.2h2.8v-2.2h1.3v2.2h4.1v9.1h1.7v1.3h-16.9v-1.3h1.7v-9.1h4.1v-2.2zm.4 13.1.7 1.2c-1.8.9-3.8 1.9-6 2.9-.2-.4-.5-.8-.8-1.3 2.3-1 4.3-1.9 6.1-2.8zm-3.1-6.4h2.8v-3.2h-2.8zm0 4.6h2.8v-3.3h-2.8zm4-4.6h2.8v-3.2h-2.8zm0 4.6h2.8v-3.3h-2.8zm3.7 1.9c2.1.9 4.1 1.8 6.1 2.7l-.7 1.3c-2.2-1.1-4.2-2-6.1-2.9zm3.2-9.7h-2.8v3.2h2.8zm-2.8 7.8h2.8v-3.3h-2.8z"/></g></svg>