<svg enable-background="new 0 0 400 400" viewBox="0 0 400 400" xmlns="http://www.w3.org/2000/svg"><path d="m111.2 292.6c-.9-2.5-1.6-4.6-2.3-6.7-.1-.5-.3-1.2 0-1.5 2.4-2.7 3.1-7.5 8.5-6.7.7.1 2-.8 2.4-1.5 1.2-2.2 2.7-3.4 5.3-2.9.5.1 1.3.2 1.5-.1 4.4-4.4 10.4-4.6 15.8-6.2 4.7-1.4 9.7-1.9 14.6-2.4 2.5-.3 4.8-.6 6-3.2.2-.4.7-.8 1.1-1.1 13-6.7 21.8-18.2 31.9-28.3 4.5-4.5 7.7-9.6 8.1-16 .1-1.7-.1-3.6-.8-5.2-2.4-5.6-5.2-11.1-7.5-16.8-1.5-3.8-3.8-6.8-7.1-9-2.5-1.6-3.6-3.9-4.3-6.7-1.5-6.4-4.7-8.7-11.2-9.3-4.6-.4-9.2-1.4-13.8-1.9-2.4-.3-4.9-.8-7.3-.4-8.3 1.4-16.1-1.7-24.1-2.3-10-.9-20-1.5-30 .1-3.4.5-6.9-.2-10.4-.6-14-1.4-27.9.2-41.7 2.3-.7.1-1.5.4-2 .8-3.6 3.1-7.2.9-10.8.2-.4-.1-.8-.9-1-1.4-1.1-3.2-.4-6.3 1.2-9.2.3-.6 1.5-1 2.3-1.1 9.9-1.7 19.8-3.4 29.7-5 5.4-.9 10.9-1.5 16.4-2.1 2.2-.2 4-1.4 4-3.3 0-3.3-.8-6.6-1.5-9.8-.1-.5-1.8-1-2.8-1-4.8-.3-9.7-.5-14.5-.6-2.1-.1-4.3.4-6.3-.1-1.9-.4-4.1-1.4-5.4-2.8-2-2.2-1.3-3.5 1.6-4.3 4.7-1.2 9.4-2.8 14.2-3.4 3.9-.5 7.9.4 12.4.6 1.2-3.5 2.5-7.3 3.8-11.2.7-1.9 5.5-5.3 7.4-4.9.7.2 1.4.9 1.9 1.5 3.1 3.7 6.1 7.6 9.4 11.2 1 1.1 2.9 1.9 4.5 2.1 10.6 1.2 21.3 2.1 31.9 3.2.8.1 1.8 1 2.3 1.8 1 1.8 1.7 3.8 2.7 5.9-6.1 3.5-12.6 3.2-19 2.7-7.1-.5-14.1-1.4-21.2-2-.9-.1-2 .2-2.6.7-1.4 1.2-2.8 2.6-3.9 4.1-3.5 5.3-2.5 8 3.6 8.9 4.8.7 9.7 1.3 14.5 1.1 13.5-.6 26.8.4 40.1 2.8 4 .7 8.2.6 12.3.8 2.1.1 3.7-1 3.7-3 .1-4.6.4-9.3-.4-13.8-1.4-8-1.7-8 .5-16.8 2.3 0 4.7-.2 7 .1.7.1 1.6 1.2 1.9 2.1 1.6 5.5 3 11 4.4 16.5.5 1.7.7 3.5 1.2 5.2 2.9 10.2 4.5 12.3 16.9 12.9 9.8.5 19.7-.6 29.5-.3 10.4.3 21 .9 31.3 2.5 6 .9 11.7 4 17.5 6.3 2.4 1 4.4 6.7 3.1 8.9-.7 1.2-2.4 2.4-3.7 2.4-4.4 0-8.6-.3-12.9-2.3-8-3.8-16.7-3.1-25.2-1.8-.8.1-1.8.5-2.5.2-5.5-2.3-10.8-1-16.4-.1-3.9.7-8.1-.4-12.2-.6-3.1-.2-6.3-.6-9.4-.3-3.3.4-5.6 2.6-7.1 5.5.2.3.3.6.4.6 5.7 1.1 7.9 5.3 8.5 10.4.7 6.3 6.3 8.7 9.5 12.8 1.5 2 4.4.3 6-1.6 2.2-2.5 4-5.2 6.2-7.6 2.5-2.7 5.3-5.1 7.8-7.8 1.2-1.3 2-2.9 3.2-4.3 1.1-1.3 2.3-3.3 3.5-3.4 1.5 0 3 1.7 4.4 2.7.4.3.5.9.9 1.6-2.3 1.8-2.5 4.1-1.4 6.7.3.6.4 1.6.1 2.1-2.2 3.4-4.5 6.9-6.9 10.1-2.4 3.1-5.3 5.8-7.4 9-3.6 5.5-3 10.1 1.3 14.9 3.8 4.4 7.6 8.8 11.5 13.1 2.1 2.3 4.4 4.5 6.7 6.7 4.3 4.1 9.2 6.5 15.3 6.3 2.5-.1 4.6.8 6 3.4.5 1 2 1.8 3.2 2.3 2.9 1 6 1.5 8.8 2.7 1.7.7 3 2.3 4.5 3.5.6.5 1.1 1.3 1.8 1.6 8 3.4 15.8 7.3 24.1 9.8 7.7 2.3 15.5 4.8 23.7 4.7 3.3 0 6.4.8 9.8-.9 4.1-2 11.8 2.9 12.7 7.4.1.7-.7 2-1.3 2.2-3.6 1.4-7.4 2.7-11.1 3.7-1.1.3-2.5.1-3.7-.1-6.9-1.4-13.9-2.8-20.8-4.2-.6-.1-1.3-.5-1.8-.4-6.8 2.4-12.5-1.7-18.6-3.2-13.1-3.3-24.9-9.8-37-15.7-1.3-.6-2.8-1.6-4.1-1.4-4.6.5-8.1-1.7-11.7-4-4-2.6-8.1-5-12-7.6-5.3-3.5-8.9-8.7-12.7-13.6-2.1-2.7-5-4.8-7.7-6.9-1.6-1.2-3.2-.8-4.6.9-4.2 5-8.6 9.9-12.9 14.9-.5.5-1.1 1.2-1.2 1.8-.5 3.8-3.2 5.5-6.5 6.4-3.7 1-5.5 4-8 6.5-1 1-2.6 1.5-3.8 2.2-.9.5-2.1.9-2.7 1.7-1.9 2.4-3 5.4-6.8 5.5-.7 0-1.4.9-2 1.5-5.9 5.4-13 7.6-21 8.6-6.6.8-13.2 1.8-19.5 5.1-6.4 3.1-13.1 4-19.8 5.9z"/><path d="m40.1 226.9c-.3-.8-.5-1.5-.7-2.2-1.7-6.7-1.3-7.6 5.4-8.8 7.3-1.3 14.6-2.1 21.9-3.4 13.4-2.3 20.5-9.7 23.1-22.8.8-4.2 2.8-8.1 4.3-12.1.9-2.4 3.1-2.2 4.8-1.8 1.1.3 2.6 1.6 2.9 2.7 1 4.6 1.7 9.3 2.3 14 .4 3.2.3 6.5.8 9.7.4 2.2 1.7 3.7 4.3 3.9 2.5.1 4.4 1.4 5.2 3.9.9 2.6 2.9 3.6 5.3 3.7 4.4.1 8.9.2 13.3-.1 1.5-.1 2.9-1 4.3-1.7s2.7-1.8 4.2-2.1c6.7-1.4 12.5 4.5 10.4 11.1-.7 2.3-3.4 4.6-5.8 5.7-3.6 1.7-7.6 3.3-11.4 3.5-4.7.2-9.7-.3-14-2.1-7.8-3.3-15.2-7.8-22.8-11.9-2.9-1.6-7.3-.7-9.7 1.7-1 1-2.2 2.2-3.5 2.6-2.7.8-5.2 1.7-6.8 4.2-.3.5-1.3.9-1.9.8-4.3-1.2-8.1 1-12.1 1.4-5.3.5-10.7.4-16 .5-2.4.1-4.9-.3-7.8-.4z"/></svg>