<svg enable-background="new 0 0 400 400" viewBox="0 0 400 400" xmlns="http://www.w3.org/2000/svg"><path d="m162.1 173.6c1-7.1 2-13.8 2.9-20.5.1-.5-.1-1-.2-1.5-.6-4.1-1.8-8.3-1.7-12.4.2-14 .9-27.9 1.4-41.9 0-1.2.2-2.3.4-3.5 1.1-5.7 1.4-11.2-.4-16.9-2.7-8.7-.6-17.5 1-26 1-5.6 3.1-10.9 4.9-17 2.8 1.1 5.1 1.7 7.1 3 4.4 2.8 7.6 6.7 9.5 11.6 1.3 3.4 1.6 6.8-.1 10.2-2.8 5.7-3.5 11.5-3.4 18 .4 30.7 1.1 61.4-.1 92.1-.7 18.4-.5 36.8-.4 55.2 0 .6.2 1.4-.1 1.9-3.2 7-1.1 14.1-.7 21.2.4 9 .1 18.1-.2 27.2-.3 7-1.6 13.9-1.6 20.9 0 5.9 1.6 11.7 2.1 17.6.2 1.7-.6 3.5-1.1 5.2-.7 2.3-2.3 4.6-2.4 6.9-.6 10-2.3 19.8-7.1 28.7-3.4 6.3-8.4 10.3-16.4 9.4-8.7-1-17.5-1.4-26.3-2-.8-.1-1.7-.3-2.5-.5-6.3-1.6-6.6-2.1-6.8-8.4-.1-5.5-.3-11-.4-16.5-.1-2.9-.3-5.7 1.6-8.5.9-1.4.7-4 .2-5.7-1.8-5.2-1.3-10.1.3-15.4 1.6-5.2 1.5-11 2-16.5.7-7.7 1.6-15.3 2-23 .3-6.3.5-12.7-.1-19-1.1-11.1-.3-22.2.3-33.3.9-16.2 2.2-32.3 2.7-48.5.2-7.6-.6-15.2-1.8-22.7-1.4-8.5-.4-16.6 3.1-24.4 1.4-3.2 1.3-6.1.2-9.4-.7-2.1-.7-4.8-.2-7 2.9-12.7 3.6-25.5 1.8-38.4-.2-1.2-.9-2.6-1.8-3.5-2.4-2.5-3.2-5.4-2.7-8.7.4-2.5 1-5 1-7.5 0-3.2 1.4-4.8 4.5-5.4 7.2-1.5 14.5-1.6 21.7-.3 1.8.3 2.6 1.2 2.6 3.2 0 4.3.2 8.7.4 13 .2 3.9.2 7.4-2.8 10.8-1.7 2-2.4 5.9-1.9 8.6 1.6 8.6 1.1 17.3 1 25.9-.2 12.5-1.1 24.9-4.6 37-1.5 5.2-1.8 10.3-1 15.6.8 5.9 1.4 11.8 1.9 17.7.2 2.1 1 2.9 3.1 2.9 2.8-.1 5.8.3 9.1.5zm-24.9 153.7c-.2 3.3-.2 3.3 4.1 10.2 2.4 3.9 3.7 4.3 7.9 2.4 3.2-1.4 4.5-3.9 4.1-8.1-.7-7.4-.9-14.7.8-22 1.5-6.4 2.4-13.1 2.6-19.7.6-18 .5-35.9.9-53.9.1-3 .4-6.5 2.1-8.8 3-4.2 3.1-8.9 3.9-13.5.2-.9-.3-2.6-1-2.9-3.5-2-3.2-4.7-2-7.8.5-1.3.8-2.6 1.1-4 .7-3.3-.1-5-3.4-5.5-2.5-.3-5.1.5-7.7.6-3 .1-3.9 1.7-4.1 4.4-.4 7.1-1.2 14.1-1.3 21.2-.1 9.7 1.1 19.4-2.5 28.8-.4 1-.4 2.1-.4 3.1-1.7 25.2-3.4 50.3-5.1 75.5z"/><path d="m200.7 246.5c-2.6-2.2-2.2-4.3-1.3-7.1 2.6-7.8 1.2-15.7-1.6-23.3-.8-2-3.4-3.3-5.5-5.2 3.1-4.1 6.1-8.4 9.5-12.5 2.2-2.7 2.6-5.5 1.3-8.5-.9-2.1-.2-3.3 1.2-4.7 4.6-4.7 12.2-3 15.7.5 2.2 2.2 4.2 2.9 7.2 2.7 9.4-.5 18.8-.7 28.2-.9 1.4 0 2.8 0 4.1.3 4.4.9 5.4 2.1 5.4 6.6 0 6.9.3 13.8-.1 20.6-.3 6.1.6 11.7 4.1 16.9 1.5 2.2 1.7 4.3.3 6.7-2 3.4-2.4 7.1-2.3 11 .2 14.2-.1 28.4.5 42.5.4 9.4 2.3 18.7 3.3 28s1.2 18.5-2 27.6c-1.6 4.6-2.2 9.6-3.3 15-4 .8-8.5 1.6-13.2 2.6-2.3-7.8-2.7-15.5-2.5-23.4.1-5-.1-9.9-.1-14.9.1-7.6 0-15.2.4-22.8.2-3.3-1.1-4.6-3.8-5.4-6.7-2.1-13.7-1.7-20.5-.9-8.8.9-7.5-.9-10 8.7-1.6 6.2-2.5 12.6-3.7 19-.9 4.9.2 9.7 1.4 14.4.6 2.2 1.1 4.5 1.5 6.8.7 4.8-1.7 7.9-6.3 8.9-1.8.4-3.6 1.2-5.2 2.1-2.3 1.3-4.5 2.8-6.7 4.2-.2.1-.4.1-1.2.4-.7-3.7-1.8-7.3-2-11-.3-7.2-.1-14.4.1-21.5.2-5.6.7-11.2.9-16.8.1-1.8-.7-3.6-.8-5.5-.1-1 .1-2.3.7-3.1 2-2.5 2.5-5.2 2.2-8.3-.3-2.3-.1-4.7-.5-7-1.4-9.3 1.6-18.2 2.6-27.3.3-2.3.4-4.8-.4-6.9-1.2-3.6-1.3-6.3 2.4-8.5zm51.8 24.5c-.9-4-1.6-8.1-2.9-11.9-1.3-3.7-3.7-4.7-7.7-4.6-4.9.1-9.8.5-14.5-.5-5.3-1.1-9.1.1-12.6 3.9-1.3 1.4-2 2.3-1.5 4.3.9 3.2 1.6 6.6 2.3 9.9 1.1 4.6 5.7 7.7 10.3 6.6 5.5-1.3 10.8-1.3 16.1.6 4.2 1.4 10.2-3.7 10.5-8.3zm-1-43.5c-.4-3.3-.6-6.7-1.4-10-.6-2.7-2.3-5.6-5.5-5.2-6.3.8-12.6 1.6-18.6 3.6-9.3 3.2-10 6.3-3.4 15 .7 1 2.1 1.7 3.4 2 3.4.9 6.8 1.9 10.2 2 3.6.1 7.3-.4 10.8-1.2 3.1-.6 5-2.6 4.5-6.2z"/><path d="m193.1 137c0-9.1-.1-18.2.1-27.3 0-1.2.9-2.3 1.4-3.5.6-1.5 1.9-3.2 1.5-4.5-2-6.4-.6-12.6.8-18.8 1-4.4.4-8.6-.3-12.8-.8-5.1-1.5-10.3-1.8-15.4-.5-7.3 5.3-16 12.3-17.4 4.7-.9 10-1.2 14.5.1 9.4 2.8 18.9 3.2 28.5 3.7 4.9.3 9.8 1.2 14.7 2.2 2.9.6 4.9 2.3 5.2 5.6.1 1.1.5 2.3.9 3.4 3.5 8.4 3.4 16.6-.3 25-1.1 2.5-.1 6 .1 9 .6 7.8 1.6 15.6 1.8 23.4.3 17.9 0 35.8.1 53.7 0 2-.7 3.2-2.3 4.4-3.9 3-7.8 4.2-12.8 3.4-10.8-1.5-21.7-2-32.5-3.6-6.8-1-12.9 1.4-19.3 2.5-1.8.3-3.1.7-4.3-1.2-.4-.7-2.4-.7-3.6-.5-3.8.7-4.5.2-4.5-3.6-.2-9.4-.2-18.6-.2-27.8zm35.5-58.3h.9c0-6.8-.1-13.5.1-20.3.1-2-.6-2.8-2.4-3.4-2.1-.8-4-1.1-6 .3-.6.4-1.6.7-2.4.6-3.6-.4-5.5 1.5-6 4.6-.9 5.4-1.8 10.9-1.9 16.3-.1 6.3.5 12.6 1.1 18.9.1 1.5 1.1 3.5 2.3 4.3 2.5 1.6 5.3 2.7 8.1 3.5 3.6 1 6.1-1.1 6.1-4.9.1-6.6.1-13.3.1-19.9zm20.2-21.9c-2.5 10.7-5.3 21-7.3 31.4-1.2 6.3 1.5 12 5 17.2 1.1-.3 2-.6 2.9-.7 3.6-.3 4.9-2.3 5.4-5.7.8-5.4 2.2-10.8 2.8-16.2.6-6.3.7-12.6.7-18.9 0-1.3-.7-3.1-1.7-3.7-2.2-1.4-4.7-2.1-7.8-3.4zm-21.2 80.2c.3-.1.6-.1.9-.2-.9-4.8-1.6-9.6-2.9-14.3-.7-2.4-2.7-3.7-5.4-1.7-1.3 1-2.9 1.9-4.4 2.4-4.2 1.4-6 4.3-6.2 8.7-.3 5.1-1.3 10.3.8 15.3.5 1.2 1.6 2.6 2.7 3.1 2.2 1 4.6 1.4 7 2 3.3.8 6.4-1.3 6.7-4.6.3-3.5.6-7.1.8-10.7zm26.2 18.6c0-10.7 0-21.2-.1-31.7 0-.6-1-1.5-1.7-1.8-4.1-1.8-7.2.9-10.5 2.6-.4.2-.6 1.3-.5 1.9.7 8.5 1.4 17 2.3 25.5.1.8 1 2 1.7 2.1 3.1.7 6.3 1.1 8.8 1.4z"/></svg>