<svg enable-background="new 0 0 400 400" viewBox="0 0 400 400" xmlns="http://www.w3.org/2000/svg"><path d="m76.5 295.3c2-4.4.6-8.1-1.3-11.7-5.7-10.4-7.7-21.6-8.1-33.2-.1-2.4-.2-4.9-.7-7.3-1-4.9-.2-9.5 1.5-14 .6-1.5 1.8-2.8 2.4-4.3.9-2.4 2.7-5.1 2.3-7.3-3.3-16.8-.4-33.6 0-50.3.3-13.4 1-26.9 1.7-40.3.3-6.7 2.7-10.1 8.4-11.6-.8 4.1-1.6 8-2.2 11.9-.2 1.7-.2 3.6.2 5.2 1.6 6.1 3.3 12.2 5.1 18.3.8 2.7 1.8 5.4 3 8 3.7 7.7 9.5 10.6 17.9 8.9 1-.2 2.1-.6 2.8-1.3 4.5-4.2 10-5.8 16-6 4.4-.2 8-1.7 11.4-4.6 9-7.5 18.3-14.8 27.5-22 1.6-1.3 2.4-2.5 1.6-4.5-.8-2.1-.1-3.7 1.8-5.1 5.6-4.4 11-8.9 16.4-13.5 1.1-.9 2-2.2 2.5-3.5 1.9-4.5 3.7-9 5.4-13.5 1-2.7 3-4.2 5.6-4.4 2.7-.2 4.9.9 6.3 3.4 1.5 2.7 3.4 5.1 4.8 7.9 2.1 4.3 5.5 7.1 9.7 9.1 18.6 9 37.7 16.8 58.4 19.5 3.6.5 7.1 1.4 10.6 2.1 8 1.7 13.3 6.5 16.5 14.3-5.6 3.5-10.1 8.6-18 8-11.3-.8-22.7-.4-34-.1-8.5.3-17.1-.9-24.5-4.1-7.6-3.2-15.1-6.3-23.1-8.2-.5-.1-1.2-.6-1.4-1.1-4-8.1-11.6-11.3-20.4-8.7-3.4 1-6.4 2.5-8.5 5.7-1.9 2.9-4.1 5.6-6.4 8.3-3 3.4-4.9 7.3-6.3 11.6-.5 1.6-1.9 3.2-3.4 4.1-6.3 3.9-12.8 7.5-19.1 11.3-2.5 1.6-5.1 2.5-8.1 2.1-3.3-.5-5.9.6-8.1 3.1-7 8.1-16.4 11.9-26.6 14.3-9.9 2.3-17.7 15.3-15.4 25.2.6 2.5 1.9 4.9 3.2 7.2 2.7 4.7 4.5 9.5 3.8 15-.2 1.3.1 2.6-.1 3.8-.5 3.6.7 6.1 3.8 8.2 3.4 2.2 5.4 5.2 3.8 9.9-1.3 4-.6 8.2 1.8 11.9 1.1 1.7 1 3.4.5 5.4s-.7 4.4 0 6.3c3.1 9.2 6.4 18.3 9.7 27.5 3.7 10.2 11.4 16 21.3 19.3 6.7 2.2 13.5 3.3 20.6 2.5 3.9-.5 8.1-.1 12 .4 9.5 1.2 18.7-.7 27.9-2.8 4.6-1.1 9.3-1.9 13.9-3 1.8-.4 3.8-.9 5.3-1.9 6.4-4.2 13.6-5.5 21-6.3 1.8-.2 3.9-1.1 5.3-2.3 6.7-5.6 14.1-10.1 22.2-13.3.9-.3 1.9-.8 2.7-.7 3.5.6 5.6-1.3 7.8-3.6 9.6-10.2 19.3-20.2 29-30.2 4.8-4.9 5.9-10.5 4.3-17-.8-3.1-6-5.3-8.8-4-1.6.8-3.3 1.6-5 1.7-10.3.7-20.7 1.7-31 1.6-14.1-.2-28.1-1.4-42.1-2.3-1.2-.1-2.6-.9-3.6-1.7-15.4-13.5-34.6-15.4-52.3-5-.9.5-1.6 1.3-2.4 2-11.1 9-23.7 13.2-37.9 11.9-.8-.1-1.6-.4-2.4-.6-.5-.2-.9-.4-2.3-1.1 1.5-1.3 2.5-2.7 3.9-3.3 3.9-1.5 7.5-3.5 9.9-7.1 3.6-5.4 9.1-8 15-10 5-1.6 9-4.4 11.7-9 .7-1.1 2.5-2.2 3.8-2.2 8.1 0 13.7-5.2 19.5-9.6 3.3-2.5 5.8-6.1 8.7-9.2 3.5-3.7 8.4-4.2 13-5.2.5-.1 1.4 1 1.8 1.7 2.3 4.4 4.5 8.9 6.7 13.3.4.8.6 1.8 1.2 2.2 5.2 2.7 10.5 5.3 15.8 7.9 17.9-.1 35.8.1 53.7-.3 8-.2 16-1.6 24-2.5 1.1-.1 2.4-.9 3.2-1.7 5.6-5.6 7.6-12.8 8.7-20.3 1.6-11 3.2-21.9 4.5-32.9.4-3.2-.6-6.5-.8-9.7-.6-8.3-1.5-16.6-1.7-24.9-.3-13-1.6-25.8-6.4-38-2.2-5.7-5.2-11.1-8.3-16.4-1-1.6-3.2-2.6-5.1-3.6-18.4-10-37.8-16.2-59.1-15.6-7.9.2-15.8-.1-23.8-.2-.9 0-2.1-.3-2.8.1-7.8 4.1-16.5 3.5-24.7 5.1-5.3 1.1-10.6 2-15.6 3.9-18.8 6.9-37.5 14.3-56.3 21.3-2.1.8-3.5 1.8-4.2 3.8-.8 2.5-2.6 3.8-5 4.9-6.3 2.8-12.4 5.8-18.6 8.7-1.3-10.2 1.8-18.2 10.6-23 9-5.2 15-13.3 21-21.5 1.4-1.9 3-3.1 5.4-3.4 11.4-1.6 22-6 32.2-11.1 7.1-3.5 14.4-4.5 22.1-4.5 2.9 0 5.7 0 8.6.2 7.7.5 13.9-2.7 19.6-7.5 1-.9 2.5-1.7 3.8-1.6 14.4 0 28.9.7 42.7 5.2 8.8 2.9 17.1 7.2 25.6 10.9 2.3 1 4.4 2.2 5.7.5 5.2 1.6 9.7 3 14.2 4.5 1 .3 2 .8 2.7 1.5 5.6 5.2 11.1 10.5 16.6 15.7 8 7.6 12.6 16.8 12.7 27.8.1 16.6-.1 33.2-.2 49.8 0 3.8-.2 7.6-.4 11.4s-.3 7.4-2.2 11c-1.2 2.4-.9 5.7-.9 8.6 0 6.4.3 12.8.4 19.3.2 6.9-1.5 13.4-5.2 19.3-2.8 4.5-3 9.6-3.5 14.6-1.3 11.4-2.3 22.7-3.9 34-.5 3.8-2.3 7.5-3.8 11.1-5.7 13.5-13.5 25.7-24.7 35.3-2.5 2.1-5.8 3.3-8.7 5-.9.5-2.2 1.1-2.3 1.9-1.2 6.7-7 8.2-11.8 10.8-1.8 1-3.9 1.7-5.8 2.5-10.8 4.1-21 9.5-30.8 15.6-1.7 1.1-3.9 1.6-5.9 1.8-4.1.4-8.2.5-12.4.7-.9.1-2 .1-2.8.5-10.5 6.7-22.8 7.3-34.4 10.3-6.7 1.7-12.8-.3-19-1.4-8.3-1.5-16.6-3.2-24.9-5-1.2-.3-2.2-1.5-3.1-2.4-1.4-1.5-2.5-3.5-4.2-4.5-4.8-3-8.5-6.9-12.2-11.2-9.1-10.7-13.5-23.2-17.2-36.3-.3-1-1.2-2.2-2.2-2.7-3.3-2-6.6-3.5-10.3-5.4z"/></svg>