<svg enable-background="new 0 0 400 400" viewBox="0 0 400 400" xmlns="http://www.w3.org/2000/svg"><g fill="#010000"><path d="m231.22 128.16c-7.64 2.71-16.29 1.94-24.86 1.63-4.11-.15-8.2-.97-12.3-1.46-2.22-.27-3.14-1.38-3.35-3.7-.56-6.24-.68-6.22 5.25-7.78 13.62-3.57 27.23-7.19 40.87-10.66 2.2-.56 3.12-1.62 3.38-3.79.38-3.22.7-6.49 1.61-9.58.93-3.17-.23-4.48-2.93-5.89-20.71-10.82-41.31-21.84-62.01-32.69-2.23-1.17-3.33-2.48-3.49-5.04-.24-3.79-1.03-7.54-1.31-11.33-.08-1.08.52-2.67 1.36-3.28 6.63-4.78 14.05-7.32 22.3-6.89 3.76.19 6.99 1.56 9.95 4.19 10.43 9.3 22.21 16.16 36.12 18.84.33.06.65.18.98.23 5.74.95 5.74.95 8.24-4.35 1.24-2.63 2.77-5.16 3.68-7.9 1.86-5.63 5.96-9.32 10.38-12.79.64-.5 1.62-.97 2.37-.88 5.1.58 10.3.87 15.24 2.12 6.65 1.68 8.69 6.22 6.87 12.88-1.64 6.01-3.48 12.02-4.38 18.16-.95 6.55 1.18 8.34 7.76 6.99 3.55-.73 6.88-2.54 10.32-3.82 2.25-.84 4.74-2.37 6.49.63 1.53 2.61.06 8.47-2.29 9.57-6.99 3.26-14 6.46-21.03 9.63-8.39 3.78-11.34 8.91-9.81 17.87.25 1.44 1.58 3.23 2.9 3.86 8.59 4.11 17.86 4.73 27.19 4.61 7.81-.1 15.64-.89 23.42-.58 9.24.37 14.62 6.16 14.83 14.53.05 1.9-.6 2.79-2.24 3.53-8.11 3.65-16.69 5.09-25.47 5.02-8.16-.07-16.3-.88-24.46-1.07-3.31-.08-6.74.24-9.94 1.06-7.6 1.93-12.57 8.1-12.98 16.45-.44 8.79-1.7 7.85 7.27 9.89 5.94 1.35 12.19 1.79 18.31 1.86 13.09.16 26.19-.47 39.27-.17 4.78.11 9.62 1.6 14.22 3.11 1.82.6 3.56 2.76 4.43 4.63 1.57 3.36.32 5.73-3.11 7.09-10.66 4.26-21.94 5.27-33.22 5.83-11.93.59-23.89.43-35.84.8-6.14.19-12.33.48-18.4 1.39-8.54 1.27-16.66-.18-24.81-2.37-1.68-.45-3.56-.64-5.28-.41-11.07 1.54-22.26 2.59-33.13 5.02-14.59 3.26-28.41 1.23-42.15-3.6-1.05-.37-2.09-.78-3.14-1.17-6.44-2.41-7.7-4.59-6.22-11.3.19-.85 1.27-1.72 2.14-2.16 7.89-3.96 16.31-5.48 25.05-4.79 6.9.55 13.76 1.69 20.66 2.3 2.59.23 5.53.36 7.83-.6 6.53-2.73 13.17-1.57 19.83-1.68 4.16-.07 8.37-.91 12.43-1.92 1.16-.29 2.49-2.27 2.69-3.63.78-5.42 1.25-10.89 1.58-16.36.07-1.13-.71-2.58-1.56-3.43-2.19-2.21-4.65-4.16-7.51-6.65z"/><path d="m298.39 281.2c-9.9.67-19.25 1.22-28.58 1.97-5.35.43-10.7 1.01-15.99 1.86-4.71.76-9.41 1.77-14.01 3.03-11.83 3.25-23.58 6.84-35.44 9.97-2.65.7-4.15 1.85-4.85 4.3-3.01 10.52-5.99 21.04-9 31.55-1.62 5.66-3.52 11.41-8.87 14.49-2.92 1.68-6.68 2.04-10.13 2.55-.9.14-2.61-1.14-2.98-2.13-1.75-4.78-3.83-9.57-4.58-14.55-2.4-15.95-3.85-31.98-1.71-48.13 3.53-26.64 10.14-52.41 21.48-76.85 1.24-2.68 4.16-3.52 6.97-2.38 6.29 2.54 11.43 6.27 14.58 12.54.57 1.14 2.53 2.28 3.83 2.26 27.06-.42 54.12-.99 81.18-1.58 3.64-.08 6.93-3.32 7.08-8.06.17-5.39 3.32-8.62 6.84-11.72.95-.84 2.87-1.24 4.13-.94 6.93 1.63 11.36 6.33 14.48 12.48 3.85 7.62 5.8 15.6 5.64 24.22-.51 27.57-2.16 55-9 81.84-1.59 6.25-3.88 12.39-6.53 18.27-1.6 3.55-4.08 6.98-6.93 9.64-10.42 9.7-21.49 18.66-34.51 24.7-4.58 2.12-9.64 3.22-14.48 4.78-.27-.35-.54-.7-.8-1.05 1.47-2.89 2.4-6.29 4.52-8.57 6.75-7.25 11.7-15.5 15.3-24.64 4.24-10.76 9.69-20.89 16.24-30.39 3.34-4.84 2.98-10.42 4.03-15.71.88-4.25 1.33-8.59 2.09-13.75zm-54.86-7.3c1.87-1.67 3.31-2.73 4.46-4.04 2.13-2.43 4.71-3.32 7.91-3.47 8.04-.38 16.09-.81 24.09-1.69 5.3-.58 10.54-1.82 15.72-3.11 1.11-.28 2.5-1.95 2.67-3.13 1.25-9.21-1.47-17-8.99-22.77-.63-.48-1.78-.72-2.55-.52-6.26 1.63-12.42 3.73-18.74 5.03-11.85 2.44-23.76 3.95-35.96 1.96-7.84-1.28-15.81-.91-23.64 1.04-2.24.56-3.04 1.51-3.31 3.77-.56 4.77-1.47 9.5-2.3 14.23-.87 4.95-.02 7.28 4.51 9.51 2.33 1.14 5.16 2.1 7.66 1.89 6.21-.52 12.36-1.75 18.54-2.69 3.25-.5 6.49-.98 9.95-1.5-.02 1.96-.02 3.29-.02 5.49z"/><path d="m33.17 241.55c17.56-11.2 36.86-18.86 57.33-23.74 16.79-4 33.82-6.28 51.04-6.98 2.93-.12 6.05.49 8.83 1.48 6.57 2.33 9.53 9.57 6.79 15.99-.35.83-1.23 1.55-2.03 2.05-2.64 1.67-5.42 3.14-8.04 4.84-3.16 2.05-6.25 3.81-10.25 2.3-.89-.34-2.18.2-3.24.5-27.53 7.67-55.07 15.33-82.57 23.1-2.65.75-4.91.95-7.14-.87-.77-.63-1.68-1.13-2.61-1.5-4.47-1.77-6.57-4.72-6.15-9.79.2-2.26-1.17-4.64-1.96-7.38z"/><path d="m87.59 85.09c5.23 1.38 12.09-.44 18.91-2.84 1.09-.38 2.42-.52 3.55-.3 8.33 1.6 16.66 3.22 24.95 5.01 7.51 1.63 10.67 6.63 8.89 14.14-.28 1.2-1.59 2.7-2.75 3.08-9.55 3.13-19.11 6.25-28.8 8.86-2.97.8-6.44.38-9.56-.17-6.45-1.12-12.71-.55-18.84 1.38-7.44 2.33-14.57-.44-21.84-.9-6.79-.43-13.59-.87-20.38-.96-4.15-.06-7.46-3.65-6.1-7.66.64-1.9 1.88-4.05 3.49-5.12 9.7-6.45 19.7-12.55 31.43-14.39 4.86-.77 9.97-.13 17.05-.13z"/><path d="m32.78 172.07c10.79-5.63 22.25-9.03 33.85-11.9 9.42-2.34 18.93-4.7 28.54-5.74 6.99-.75 14.24.44 21.34 1.16 4.42.45 8.88 1.29 13.12 2.61 7.08 2.2 9.11 7.31 5.74 13.89-.66 1.29-2.2 2.48-3.6 2.97-16.24 5.68-33.2 7.86-50.1 10.5-7.8 1.22-15.45 3.4-23.22 4.88-4.02.77-8.15 1.34-12.23 1.36-4.64.02-8.59-3.36-10-7.86-1.2-3.81-2.24-7.68-3.44-11.87z"/><path d="m329.38 68.74c-.78 0-1.57.02-2.35 0-9.87-.35-12.05-2.59-11.92-12.49.01-.74.83-1.77 1.54-2.15 8.06-4.34 16.11-8.7 24.3-12.79 5.76-2.88 16.08 2.72 18.64 9.84 1.88 5.22 1.22 7.24-3.47 10.24-8.15 5.2-17.16 7.33-26.74 7.35z"/></g><path d="m361.2 9.6.8-1c.9.7 1.9 1.4 2.9 2.3l-.9 1.1c-1-1-2-1.8-2.8-2.4zm.5 10.6c.9-2.1 1.6-4.3 2.3-6.7.4.2.8.4 1.3.6-.7 2.1-1.5 4.3-2.2 6.6zm.4-15.2.9-.9c1 .8 2 1.6 2.8 2.4l-1 1c-.9-.9-1.8-1.7-2.7-2.5zm12.5-1.2h1.2v1.4h2.7v1.1h-2.7v2.7h-1.2v-.6h-1.8v1.3h4.9v3.8h-1.2v-.5h-3.7c0 .4-.1.9-.1 1.2h5.1v1h-5.2c0 .5-.1.9-.2 1.2h6v1h-5.2c1.1 1.3 2.9 2 5.5 2.2-.4.4-.7.8-.9 1.3-2.9-.5-4.8-1.6-5.7-3.5h-.1c-.8 1.7-2.7 2.9-5.9 3.6-.2-.4-.6-.8-.9-1.1 2.8-.6 4.6-1.4 5.4-2.5h-4.8v-1h5.3c.1-.3.2-.7.2-1.2h-4.9v-1h5c0-.4 0-.8.1-1.2h-3.5v.5h-1.2v-3.8h4.9v-1.3h-1.8v.5h-1.2v-2.7h-2.7v-1h2.6v-1.4h1.2v1.4h4.7v-1.4zm-6.6 8.3h3.6c0-.4 0-.9 0-1.4h-3.6zm1.9-4.6h4.7v-1.3h-4.7zm6.6 3.2h-3.7v1.4h3.7z" fill="#fbfcfa"/><path d="m385.3 3.8h1.3v2.2h2.8v-2.2h1.3v2.2h4.1v9.1h1.7v1.3h-16.9v-1.3h1.7v-9.1h4.1v-2.2zm.4 13.1.7 1.2c-1.8.9-3.8 1.9-6 2.9-.2-.4-.5-.8-.8-1.3 2.3-1 4.3-1.9 6.1-2.8zm-3.1-6.4h2.8v-3.2h-2.8zm0 4.6h2.8v-3.3h-2.8zm4-4.6h2.8v-3.2h-2.8zm0 4.6h2.8v-3.3h-2.8zm3.7 1.9c2.1.9 4.1 1.8 6.1 2.7l-.7 1.3c-2.2-1.1-4.2-2-6.1-2.9zm3.2-9.7h-2.8v3.2h2.8zm-2.8 7.8h2.8v-3.3h-2.8z" fill="#fbfcfa"/></svg>