<svg enable-background="new 0 0 400 400" viewBox="0 0 400 400" xmlns="http://www.w3.org/2000/svg"><path d="m120.1 204.1c-12.8 0-25.6-.1-38.4.1-3.8.1-7.5 1.1-11.2 1.9-1 .2-2.1 1-2.8 1.8-3 3.6-4.7 7.7-5 12.4-.3 4.3-1 8.6-1.5 12.9-.1.8-.4 2 .1 2.4 2.4 2.6 1.8 5.1.4 7.8-.5 1.1-.7 2.9-.2 3.8 1.4 2.4 1 4.5.1 6.9-1.7 4.8-3.2 9.6-4.7 14.5-.8 2.6-2.4 4.3-5.1 4.6s-5.2 0-6.9-2.7c-1.8-2.9-2.7-5.7-2.2-9.3.6-4.2.5-8.6.5-12.9 0-16.9 0-33.9.1-50.8 0-1.5 1-3 1.7-4.5.3-.6 1-1 1.5-1.6 5.5-7.2 12.6-9.9 21.8-9.5 12.9.6 25.8-.1 38.7-.2 1 0 2.1-.3 2.8.1 4.8 3.2 9.9 1.5 14.7.6 13.6-2.6 27.2-.7 40.8 0 26 1.5 52 2.1 78 2.3 8.3.1 16.7 1.2 25 1.9 1.6.1 3.2.2 4.8.2 18.5.6 37 1.1 55.5 1.9 6.6.3 12.6 3.1 17.9 6.8 5.2 3.6 10 7.8 14.8 11.8.7.6 1.1 2 1.1 3 .1 6.9.1 13.8 0 20.6 0 1-.4 2.4-1.1 3.1-3.7 3.5-5.1 7.9-5.8 12.7-.2 1.6-.2 3.3-.7 4.7-.7 1.8-1.6 3.8-3.1 5-5.5 4.5-15.5 2.2-18.6-4.2-.4-.9-.4-2.1-.2-3.1 1-4.5 2.1-9 3.1-13.6.6-2.9 1.5-5.8 1.5-8.7.1-6.3-2.9-10.6-9-11.5-9.5-1.4-19.2-3-28.6-2.5-15.4.9-30.3-2.1-45.3-4.2-16.7-2.4-33.5-5-50.5-4.1-2.6.1-5.2.7-7.9.9-3.3.2-4.7 2-5.6 5-1.5 5-2 10-.8 15 .3 1.3 1.6 2.7 2.8 3.5 5.6 3.6 11.8 5 18.4 5 9.9 0 19.9-.4 29.8-.1 5.7.1 11.3 1.1 17 1.9 3.4.4 5.4 2.6 6.4 5.9.7 2.3.2 3.9-1.2 6-5.9 8.4-14.5 10-23.7 10-11.2.1-22.4-.2-33.6-.2-2.7 0-5.5.4-8.1 1.1-5.4 1.4-7.4 6-6 11.3.9 3.2 1.1 6.6 1.4 9.9.3 2.8.2 5.7.4 8.5.4 3.9.5 7.5-2.1 10.9-.6.7-.2 2.4.1 3.5.4 2 1.2 4 1.5 6 .2 1.6-.2 3.4-.2 5.1 0 4.3 2.7 7.5 6.9 8 22.2 2.9 44.5 5.6 66.7 8.8 10.8 1.5 21.3-.6 31.9-1.1 7.7-.4 15.4-1.3 23.1-1.4 2.8-.1 5.8.9 8.5 1.9 2.4.9 3.1 2.8 2.1 5.7-2.8 8.2-8.9 12-17 13.8-2.6.6-5.4 1.6-7.6 3.1-9.5 6.6-19.5 6.4-30.3 3.9-16.1-3.8-32.4-7.1-48.8-9.9-10.2-1.7-20.6-1.9-31-2.7-5.8-.4-11.4-1.5-17.1-3-5.6-1.5-11.7-1.9-17.5-1.7-15 .5-30 1.9-44.9 2.3-10.4.3-20 4.4-30.1 5.9-8.5 1.2-16.9 1.4-25.2-.3-.3-.1-.6 0-.9-.2-2-.8-7.6-10.1-7.4-12.2s1-3.3 3.3-3.9c12.3-3.3 24.9-5 37.5-5.9 13.9-1 27.8-2.4 41.7-3.5 6.2-.4 12.5-.3 18.7-.4 5.1-.1 9.8-1.7 13.8-4.8 2.8-2.2 4-4.9 3-8.6-.7-2.6-.5-5.4-.6-8.1-.1-1.9.1-3.8-.2-5.7-1.5-8.5-.9-16.9.9-25.2.7-2.9-.3-4.6-2.5-6.7-7-6.5-15-6.6-23.4-4.7-6.5 1.5-13 2.9-19.8 2.2-2.2-.2-4.4-.6-6.5-1.4-8-2.9-10.5-11.1-5.5-18.1.5-.7 1.6-1.2 2.6-1.5 8.9-2.9 18.1-2.8 27.3-3 4.5-.1 9.1 0 13.6-.2 5.8-.3 8.1-2.9 8.1-8.7 0-4.8-.2-9.5.1-14.3.2-2.6-.9-4.1-3.2-4.6-4.5-1-9.1-2.3-13.6-2.4-9.8-.4-19.7-.1-29.5-.1.2-.3.2-.6.2-.9z"/><path d="m263.6 44c5.8 8.2 8.2 16.7 9.4 25.7 1.5 11.7-.7 23-3 34.3-.8 4.1 0 7 2.9 9.9 8.1 8.2 17.5 14.6 28 19.4 6.7 3.1 13.5 1.1 20.3.7 1.8-.1 3.6-.4 5.4-.6 3.8-.4 7.5-.6 10.5-3.9 2.7-3 6.9-3.5 11-2.9 1 .1 2.1 1.3 2.6 2.2 3 6.2.9 12.1-2.1 17.5-8.8 15.5-28.4 21.9-44.9 14.9-.7-.3-1.3-.7-1.9-1.1-3.1-2-6-4.4-9.3-5.9-4.1-1.9-7.3-4.4-9.7-8.3-2.4-4-5.2-7.7-8-11.4-4.1-5.5-9.8-7.1-16.3-6.5-1 .1-2.2.8-2.8 1.7-3 4-7.1 6.4-11.6 8.4-5.1 2.3-10.3 4.5-15.1 7.4-8.1 4.8-16.7 6.5-26 6.6-4.4 0-8.4-.6-12.3-2.3-.8-.4-1.7-1.6-1.7-2.4-.1-2.1-.6-5.1.5-6 2.6-2.3 6-4.8 9.2-5.1 8.5-.7 16-3.4 23.1-7.9 4.2-2.7 9-4.5 13.4-7 2.9-1.7 6.1-3.4 8-6 4.5-6.1 9.7-12.2 10.4-20.2.5-5.2.2-10.6.5-15.8.2-3 1-6 1.2-9 .3-3.7.4-7.5.4-11.3 0-.7-.6-1.6-1.1-2.2-1.8-2.3-1.6-6 .8-7.8 2.5-1.9 5.3-3.4 8.2-5.1z"/><path d="m131.9 84c.6 9.1.6 18.2-1.7 27.1-.6 2.3-.6 4.8-.6 7.2 0 3.1.9 5.8 3.1 8.4 1.9 2.3 2.9 5.4 4.5 7.9.8 1.2 2.1 2.4 3.4 2.7 8 2.2 16.2 4.1 24.2 6.3 1.8.5 3.5 1.5 5 2.6 2.9 2.1 2.7 5.7-.2 7.6-8.8 6-18.4 9-29.1 7.1-1.3-.2-2.5-1.2-3.6-2.1-4.6-3.9-8.9-8-13.6-11.8-2.6-2-5.4-1.8-8.6-.2-5.8 2.9-10.9 6.5-13.8 12.5-.4.7-1 1.5-1.7 1.8-6.1 2.5-12.3 4.9-18.5 7.2-7.9 2.9-15.8 2.7-23.4-1.2-1.8-1-3.4-2.4-5-3.7-2.1-1.8-4-3.7-6-5.7-1.6-1.6-3.3-3-4.5-4.9-3.2-5.3-2-8.5 4-9.2 5.1-.6 10.4-.8 15.4.1 17.7 3.2 31-4.6 43-16.1.8-.7 1.3-2 1.5-3 1.2-6.5 2.5-12.9 3.2-19.4.5-5.5 0-11.1.2-16.6.5-14.1 1.4-28.1 5.1-41.8.7-2.7 2.3-4.3 4.8-4.9 2.8-.6 7.1 1.3 7.7 3.7 1.6 5.6 3.1 11.2 3.9 16.9.9 7.3.9 14.4 1.3 21.5z"/><path d="m31.9 86.4c.6-3 .5-6.6 2-9.4 1.9-3.7 4.7-7.2 7.7-10.2 1.3-1.2 4.5-1.5 6.4-.8 6.1 2 12.1 4.3 18 6.9 8.9 3.9 9.1 11.2 5.5 18.2-1.1 2.1-4.5 3.6-7.1 4.1-4.2.9-9.1 2.1-12.7.6-4.9-2-11.2-1.7-14.7-6.9-.9-1.2-3.1-1.5-5.1-2.5z"/><path d="m303.8 92.8c-1.7 0-3.4 0-5.1 0-4.9-.2-8.8-3.2-10-7.9-1.2-4.6-.3-6.7 4-8.6 6.7-3.1 13.4-6.2 20.2-9.2.6-.3 1.2-.8 1.7-.7 6.2 1.4 12.4 2.8 18.5 4.6.8.2 1.4 3 1.2 4.5-.3 2.2-1.4 4.4-2.2 6.5-.2.5-.8 1.3-1.2 1.3-3.2-.1-4.6 2.3-6.3 4.2-3.8 4.2-9 4.9-14.1 5.5-2.2.3-4.4 0-6.7 0 0-.1 0-.1 0-.2z"/><path d="m147.7 91.1c.2-2.2.7-4.4.6-6.6-.4-5.7 3-8.9 7-11.9.4-.3.9-.6 1.4-.6 9.4-1.1 16.6 4.6 17.9 14 .4 2.8 1.4 5.7 1 8.5-.5 4-1.2 8.2-3.2 11.6-1.7 3.1-5.3 4.7-9.4 3.5-3.7-1.1-7.4-1.7-10.5-4.6-4.3-4-4.7-8.8-4.8-13.9z"/><path d="m208.7 86.4c.3-2.5-.4-5.9 1-7.4 3.8-4.2 8.5-7.7 12.8-11.4 8.5-.1 15.4 5.8 16.3 14.2 1.4 12.5-4.7 20.2-17.6 21.1-6.8.5-7.9 0-10.3-6.4-1.2-3.2-1.7-6.7-2.5-10 0 0 .2 0 .3-.1z"/><path d="m245.6 305.1c-10 .1-20.4-6.8-24.2-16-3-7.3.9-12.1 8.8-11.8 10.7.5 18.5 6.4 25.9 13.1.3.3.7.7.7 1-.9 3.3-1.1 7.2-2.9 9.8-1.6 2.2-5.1 3.1-7.8 4.6-.2-.2-.3-.5-.5-.7z"/></svg>