<svg enable-background="new 0 0 400 400" viewBox="0 0 400 400" xmlns="http://www.w3.org/2000/svg"><g fill="#010000"><path d="m29.69 312.19c1.44-3.58 2.47-6.9 4.12-9.89.88-1.61 2.62-3.31 4.31-3.8 5.01-1.44 10.15-2.67 15.32-3.31 14.32-1.78 28.67-3.22 43.01-4.78 3.63-.4 5.15-1.68 5.28-5.42.22-6.49-2.18-12.36-5.82-17.49-1.14-1.61-4.31-2.43-6.58-2.47-5.3-.11-10.05-.75-12.87-5.96-.26-.47-.68-1.05-1.14-1.19-6.48-1.93-8.02-7.88-10.64-12.95-.77-1.49-1.5-3-2.07-4.15.52-1.4.94-2.52 1.36-3.64-.68-.19-1.35-.37-2.39-.66-.12-.96-.47-2.37-.44-3.78.18-10.37-3.01-20.03-5.97-29.77-.63-2.09-.83-4.37-.86-6.57-.18-14.31-.41-28.63-.31-42.94.05-7.35.73-14.69 1.14-22.03.06-1 .33-1.99.36-2.99.1-3.54-1.53-4.94-4.77-3.7-2.36.9-4.73 2.12-6.66 3.72-5.09 4.22-10.8 5.18-16.99 3.7-1.04-.25-2.28-1.64-2.56-2.73-.99-3.89-1.61-7.88-2.52-12.65 10.23 1.87 16.51-5.28 22.88-9.3 1.98.39 3.54 1.09 3.89.7 5.18-5.8 12.37-7.84 19.18-10.6 1.97-.8 3.91-1.65 5.99-2.53 2.83 3.75 6.29 2.3 9.71 1.13.31-.11.82-.25.86-.46 1.09-5.41 6.71-6.53 9.61-10.21.13-.17.2-.39.4-.81-1.79-2.06-.88-4.08-.2-6.57.91-3.31.57-7.01.45-10.53-.13-3.9-1.04-7.81-.83-11.67.15-2.69.32-6.24 4.96-5.98.96.05 2.25-1.93 3.01-3.2 1.08-1.8 2.28-2.27 4.38-1.87 9.1 1.7 13.45 5.32 14.79 14.39.82 5.55.29 11.32.05 16.98-.06 1.38-1.35 2.71-2.36 4.58 2.94.18 5.73.5 8.53.49 18.43-.1 36.63 1.8 54.52 6.26 9.64 2.4 18.79 5.91 25.65 13.63.67.75 1.27 1.56 1.84 2.39.36.53.62 1.13.92 1.7-8.7 4.6-17.71 5.44-27.14 3.48-8.78-1.82-11.83.56-11.31 9.59.4 6.89 2.47 13.7 2.68 20.58.37 12.16.88 24.47-.56 36.49-.99 8.21-4.81 16.19-8.09 23.98-3.13 7.42-5.61 8.24-14.55 6.53.67-2.6 1.33-5.16 2.26-8.78-1.44-1.88-3.65-4.94-6.09-7.83-.58-.69-1.91-1.11-2.87-1.07-3.91.17-7.81.56-11.71.88-7.44.59-14.77 1.44-22.36.2-5.15-.84-10.66.53-16.01.94-6.45.5-12.9 1.03-19.65 1.58.67 3.77 1.2 7.29 1.99 10.76.18.79 1.15 1.78 1.93 1.97 2.35.57 4.84 1.32 7.18 1.06 10.7-1.17 21.22.4 31.74 1.71 5.19.65 10.3 2 15.46 2.96 2.36.44 4.31 1.1 4.38 4.28.32-.78.64-1.55 1.01-2.45.05.01.35.03.63.13 7.45 2.64 13.85 6.74 18.43 13.34 2.82 4.06 3.53 8.43 1.58 13.03-.53 1.26-1.43 2.54-2.5 3.36-5.17 3.91-10.45 7.69-15.73 11.46-.78.55-1.97 1.35-2.62 1.11-3.15-1.17-5.05.8-7.15 2.42-3.52 2.71-7.07 5.4-10.5 8.01.1.41.08.58.15.62 7.05 4.25 6.97 11.34 7.15 18.24.07 2.55.81 3.71 3.53 4.1 10.38 1.51 20.71 3.34 31.08 4.9 1.96.29 4.02-.19 6.02-.15 2.99.05 4.02 1.26 2.9 4-.75 1.84-2.06 3.79-3.67 4.89-6.55 4.5-14.25 5.77-21.9 6.76-5.07.66-10.24.78-15.36.73-6.22-.06-10.97 1.6-14.69 7.25-8.06 12.24-18.74 22.19-29.94 31.53-2.47 2.06-5.29 3.76-8.13 5.3-5.96 3.24-7.32 3.19-13.94.43.01-3.32 1-5.87 3.72-8.33 7.6-6.89 13.39-15.28 18.11-24.38.7-1.34 1.05-2.87 1.64-4.53-5.15-2.28-10.16-1.67-15.07-.8-7.7 1.36-15.39 2.87-22.99 4.68-6.45 1.53-11.9.82-16.16-4.8-1.07-1.52-2.72-2.61-3.42-3.23zm48.69-198.08c1.56 4.2 2.97 8.3 4.68 12.27.31.72 1.92 1.43 2.77 1.27 8.44-1.62 16.89-1.61 25.37-.56 11.28 1.4 22.73 2.04 33.16 7.36 1.31.67 3.02.68 4.56.77 1.92.11 3.26-.75 3.38-2.86.41-7.01 1.01-14.01 1.13-21.02.07-3.98-2.27-6.8-6.26-7.61-3.69-.76-7.49-1.59-11.21-1.5-9.55.23-18.95-.4-28.18-2.96-.98-.27-2.33-.31-3.17.15-8.72 4.78-17.36 9.69-26.23 14.69zm34.34 58.19c0-.07 0-.14 0-.22 9.6 0 19.21.15 28.81-.05 6.43-.14 8.15-1.95 9.07-8.27.89-6.05-1.22-8.04-7.16-7.62-8.66.6-17.34.96-26.02 1.13-5.45.1-11.01-1.04-16.35-.35-5.27.68-10.27 2.95-15.16-1.12-.59-.49-3.06-.04-3.28.52-1.85 4.71-3.21 9.62-1.35 14.63.38 1.01 1.98 2.26 3.01 2.24 9.47-.15 18.95-.56 28.43-.89zm-24.95 55.52c-.91 5.07.32 8.54 3.79 9.99 5.34 2.24 10.73 4.4 16.21 6.28 5.86 2.01 11.36 1.53 16.18-3 2.6-2.44 5.56-4.49 8.34-6.73 2.65-2.13 2.46-4.51-.74-5.65-2.04-.73-4.35-.78-6.56-.98-4.76-.43-9.54-.7-14.3-1.17-1.29-.13-2.58-1.13-3.79-1.01-6.43.64-12.83 1.5-19.13 2.27zm80.5-107.66c-.39.13-.77.26-1.16.39-.59 2.99-1.18 5.97-1.84 9.34 3.86-1.13 3.8-4.15 4.3-6.6.19-.92-.83-2.08-1.3-3.13zm-106.04-18.61c-1.66 1.26-2.86 2.16-5.07 3.83 2.41 1.09 4.07 1.85 5.73 2.6.22-.28.43-.57.65-.85-.39-1.66-.78-3.33-1.31-5.58zm59.78 32.95c.17.28.34.55.51.83 1.74-.92 3.48-1.83 5.47-2.89-3.73-2.58-4.6.28-5.98 2.06z"/><path d="m191.72 253.64c4.12-.58 7.43-1.61 10.65-1.39 6.44.44 12.86 1.39 19.23 2.48 3.54.6 6.56 2.06 8.3 5.88 1.56 3.45 3.53 3.4 5.22.99 6.02 2.96 11.98 5.9 17.95 8.81.7.34 1.45.59 2.19.85 9.49 3.33 14.78.32 16.21-9.8.87-6.18.98-12.48 1.26-18.74.12-2.63-5-8.36-7.69-8.84-6.27-1.12-12.6-1.97-18.81-3.33-2.87-.63-5.52-2.27-8.31-3.31-.77-.29-1.88-.41-2.58-.07-4.67 2.24-8.77.22-12.73-1.8-1-.51-1.26-2.47-2.02-4.1 9.54-5.3 18.62-10.77 30.2-9.27 11.03 1.43 22.07 2.69 31.59 9 3.96 2.63 7.31 6.18 10.89 9.36.46.41.84 1.11.92 1.72.71 5.87 2.14 11.79 1.78 17.61-.42 6.72-2.28 13.38-3.82 19.99-.65 2.8-2.18 5.38-3.13 8.12-1.87 5.38-1.02 8.24 3.81 11.03 13.56 7.8 27.23 15.4 40.83 23.12 2.43 1.38 4.88 2.78 7.07 4.49 8.79 6.86 18.61 11.91 28.69 16.5 1.7.77 2.52 1.63 2.52 3.69-.02 8.03-2.01 10.96-10.68 14.1-9.06 3.28-18.18 3.26-27.23-.18-.91-.35-1.78-.96-2.51-1.62-7.18-6.5-15.34-11.51-23.73-16.27-12.23-6.94-24.26-14.26-36.26-21.59-6.08-3.71-10.8-3.36-16.32 1.21-10.43 8.63-21.74 15.76-35.24 18.53-3.34.69-6.89.69-10.32.52-5.34-.26-10.68-.77-15.98-1.52-2.26-.32-4.52-1.28-6.56-2.37-2.69-1.43-2.58-6.7.19-7.88 2.95-1.26 6.05-2.44 9.2-2.93 6.6-1.03 12.69-3.17 18.64-6.19 6.65-3.38 13.63-6.1 20.46-9.12 1.22-.54 2.52-1 3.6-1.76 3.24-2.31 3.37-5.11.19-7.37-3.36-2.39-6.91-4.53-10.45-6.65-12.44-7.45-24.04-15.95-33.63-26.95-1.09-1.26-1.96-2.69-3.59-4.95z"/><path d="m321.11 165.4c-5.16 3.18-10.28 6.35-15.41 9.5-8.07 4.95-17.07 5.61-26.19 5.58-9.06-.04-18.12-.32-27.17-.26-3.1.02-6.18.84-9.29 1.17-4.33.47-6.48 3.09-7.29 7.1-1.17 5.82-4.33 10.49-8.48 14.55-4.44 4.35-11.03 5.39-16.7 2.68-2.22-1.06-4.51-2.05-6.51-3.45-1.06-.75-2.01-2.22-2.23-3.5-1.81-10.6.87-20.91 2.37-31.28.88-6.08 1.93-12.14 2.91-18.21.09-.55-.02-1.42.29-1.61 3.83-2.37 1.83-6.93 3.82-9.97.66-1.01 1.34-2.05 1.75-3.17.57-1.59 1.43-3.33 1.24-4.88-.62-5.07 1.16-9.24 7.98-6.44 4.41 1.82 8.9 3.63 12.93 6.12 1.6 1 2.81 3.81 2.89 5.85.19 4.67-.52 9.36-.69 14.06-.1 2.55-.07 5.15.3 7.67.32 2.19 1.62 3.43 4.24 3.18 17.02-1.59 34.06-2.93 51.07-4.6 11.01-1.1 20.58 1.49 28.17 9.91z"/></g><path d="m361.2 9.6.8-1c.9.7 1.9 1.4 2.9 2.3l-.9 1.1c-1-1-2-1.8-2.8-2.4zm.5 10.6c.9-2.1 1.6-4.3 2.3-6.7.4.2.8.4 1.3.6-.7 2.1-1.5 4.3-2.2 6.6zm.4-15.2.9-.9c1 .8 2 1.6 2.8 2.4l-1 1c-.9-.9-1.8-1.7-2.7-2.5zm12.5-1.2h1.2v1.4h2.7v1.1h-2.7v2.7h-1.2v-.6h-1.8v1.3h4.9v3.8h-1.2v-.5h-3.7c0 .4-.1.9-.1 1.2h5.1v1h-5.2c0 .5-.1.9-.2 1.2h6v1h-5.2c1.1 1.3 2.9 2 5.5 2.2-.4.4-.7.8-.9 1.3-2.9-.5-4.8-1.6-5.7-3.5h-.1c-.8 1.7-2.7 2.9-5.9 3.6-.2-.4-.6-.8-.9-1.1 2.8-.6 4.6-1.4 5.4-2.5h-4.8v-1h5.3c.1-.3.2-.7.2-1.2h-4.9v-1h5c0-.4 0-.8.1-1.2h-3.5v.5h-1.2v-3.8h4.9v-1.3h-1.8v.5h-1.2v-2.7h-2.7v-1h2.6v-1.4h1.2v1.4h4.7v-1.4zm-6.6 8.3h3.6c0-.4 0-.9 0-1.4h-3.6zm1.9-4.6h4.7v-1.3h-4.7zm6.6 3.2h-3.7v1.4h3.7z" fill="#fbfcfa"/><path d="m385.3 3.8h1.3v2.2h2.8v-2.2h1.3v2.2h4.1v9.1h1.7v1.3h-16.9v-1.3h1.7v-9.1h4.1v-2.2zm.4 13.1.7 1.2c-1.8.9-3.8 1.9-6 2.9-.2-.4-.5-.8-.8-1.3 2.3-1 4.3-1.9 6.1-2.8zm-3.1-6.4h2.8v-3.2h-2.8zm0 4.6h2.8v-3.3h-2.8zm4-4.6h2.8v-3.2h-2.8zm0 4.6h2.8v-3.3h-2.8zm3.7 1.9c2.1.9 4.1 1.8 6.1 2.7l-.7 1.3c-2.2-1.1-4.2-2-6.1-2.9zm3.2-9.7h-2.8v3.2h2.8zm-2.8 7.8h2.8v-3.3h-2.8z" fill="#fbfcfa"/></svg>