<svg enable-background="new 0 0 400 400" viewBox="0 0 400 400" xmlns="http://www.w3.org/2000/svg"><path d="m192 211.4c-6.9-1.5-5.6-1.7-7.5 3.7-1.8 4.9-3.1 10-7.1 13.6-1.1 1-2.5 1.9-4 2.2-18.4 3.8-36.9 7.5-55.3 11.3-1.8.4-3.8 1.5-4.9 2.9-2.1 2.7-4.5 3.8-7.8 4-4 .3-8 .7-11 4-.4.5-1.4.9-1.9.7-7.2-1.8-13 1.7-18.7 5-4.8 2.7-9.6 4.9-15.2 4.9-5.2 0-8.9-2.9-11.5-6.8-4.5-6.7-4.6-14.5-4.8-22.3-.1-2.4-1-4.9-1.5-7.3-.3-1.2-.7-2.4-.7-3.7.1-10.3.4-20.5.6-30.8 0-.3 0-.6 0-1-.1-7.8 3.1-13.1 11.1-14.9 4.5-1 9-2.5 13.6-3 11.6-1.2 22.5-4.8 33.4-8.5 6.7-2.2 13.3-4.9 19.5-8.3 5.9-3.2 11.8-4.3 18.2-2.7 5.7 1.4 11.5 1.7 17.3.5 7.3-1.5 14.4.2 21.4 1.5 9.7 1.9 19.1 1.3 28.4-1.7 2.8-.9 5.5-1.4 8.3.1.7.4 1.7.4 2.5.3 7.6-.4 15.2-.9 22.8-1.2 3.3-.1 6.5-.6 9.2-2.7.6-.5 2-.4 2.8 0 4.3 2.1 8.8 2.1 13.4 1.7.9-.1 2-.8 2.6-1.6 3.1-3.8 7.1-5.7 12-6.4 10.4-1.5 20.7-3.3 31-4.9.8-.1 1.7-.4 2.5-.2 9.2 2.7 18 6.2 24.6 13.7 1.9 2.2 3.1 4.7 2.2 7.6-1.9 6.3-.3 11.9 2 17.8 2.7 6.8 1 13.6-1.5 20.2-.7 1.8-1.1 3.9-1.1 5.8 0 4.2-.5 5.2-4.4 6.6-11.6 4.2-23.3 8.3-34.9 12.6-10.3 3.9-21.1 5.4-32 6.3-12.9 1.1-25.6 2.8-38 6.6-3.5 1.1-7.5 1.4-11.2 1.2-5.9-.4-11.2-2.4-14.4-8.2-1.9-3.6-4.6-6.8-7.1-10.1-2.1-2.3-3.9-4.9-2.9-8.5zm-41.7-21.4c0-.1 0-.1 0-.2 2.3-.1 4.7-.1 7-.4 5.7-.7 10.7-2.5 12.8-8.7.6-1.7 1.9-3.2 2.3-4.9.4-1.6.6-3.7-.2-4.9-1.1-1.8-2.9-3.5-4.9-4.3-6.3-2.6-12.8-4.4-19.7-2.1-1.6.5-3.3.5-5 .8-4 .8-8.1 1.3-12 2.5-1.3.4-2.7 2.4-3 3.9-1.4 7.4 4.6 15.8 12 17.1 3.5.5 7.1.8 10.7 1.2zm-38 33.2c-5.8-2.4-11.1-4.9-16.6-6.8-2.5-.9-5.5-1.5-8-.9-5.8 1.3-11.5 3.5-17.2 5.3-7.9 2.6-9.3 4.6-8.5 12.4v.6c.7 4.5 3.4 7.5 7.9 7.9 9.9 1.1 19.4-.3 28.5-4.4 6.7-2.8 10.8-8.2 13.9-14.1zm174.6-43.4c0 .4 0 .7.1 1.1 6.4-.5 12.8-.9 19.2-1.5 5.1-.5 8-4.4 11.4-7.5.3-.3.5-.9.5-1.4-.3-4.9-5.4-9.9-10.4-10.4-3.4-.3-6.8-.6-10.1-1.1-10.3-1.8-19.6.1-27.7 6.8-2.6 2.1-3.5 4.8-2.2 7.6 1.4 3 2.8 6.6 7.3 6.4 3.9-.1 7.9 0 11.9 0zm-179.9 6.1c-4.3-5.7-11.6-7.3-18.6-9.5-.5-.2-1.2.2-1.8.4-5.9 2.2-11.8 4.5-17.7 6.8-4.6 1.8-7.8 4.6-8.8 10-1.1 5.5.3 8.3 5.9 8.5 5.9.2 11.8.3 17.7-.1 4.4-.2 8.8-.9 13.1-2 1.8-.5 3.5-2.4 4.7-4.1 1.9-2.9 3.4-6.2 5.5-10zm133.6-1.2c1.3-5.2-1.1-8.5-5-11.2-1.9-1.3-3.4-3-6.2-2.5-8.1 1.4-15.8 3.8-23 7.8-.8.4-1.6 1.2-1.8 1.9-.7 2.4-1.4 4.9-1.7 7.4-.6 3.8.8 5.9 4.5 7 9.3 2.6 18.4 2.2 27.3-1.7 3.9-1.7 7.5-3.6 5.9-8.7zm-65.9 23.6c-.3-.3-1-1.2-1.8-1.9-4.1-3.9-9.4-4.6-14.6-5.3-7.7-1-15.3-.9-21.7 4.5-1.1.9-1.9 2.5-2 3.9-.5 4.5 3.7 10.9 8 12.7.6.3 1.5.2 2.2.2 4.4-.1 8.9-.6 13.3-.4 5.5.3 8.9-2.2 11.4-6.9 1.1-2.4 3.2-4.3 5.2-6.8zm46.2 20c7.5-.8 13.7-2.2 18.7-6.8 2.8-2.6 3.1-7.1.7-10-2.8-3.5-12.5-6-16.7-4.3-3.2 1.3-6.4 2.6-9.6 4.1-.8.4-1.7 1-2 1.7-1.9 3.9-1.1 7.5 2.2 10.5 1.2 1.1 2.2 2.3 3.5 3.2 1.2.8 2.6 1.3 3.2 1.6zm55.4-28.4c.2 1.3.4 2.3.6 3.4.2 1 .5 2 .8 3.2 12.6-.1 25.3.6 36.2-7.3-2.1-5.4-5.7-8.6-10.2-8.2-9.7.7-19 3.1-27.4 8.9z"/><path d="m46.2 362.2c0-3.9-.1-7.6.1-11.3 0-.7.7-1.8 1.4-2.1 6.6-2.8 13.1-6 20-8 4.5-1.3 9.4-.9 14.2-1.4 6.3-.7 12.5-1.7 18.8-2.5.8-.1 1.7-.4 2.5-.2 5.5 1.4 10.6-.2 15.8-1.6 3.3-.9 6.5-1.9 9.8-2.4 6.3-1 11.5-3.2 15.1-9 1.8-2.9 5.4-4.7 8-7.1 4.5-4.2 5.7-9.5 4.7-15.4-.2-1.1-1.6-2.4-2.8-2.8-8.3-3.2-16.8-2.3-25.3-.5-9.8 2.1-19.7 3.7-29.5 5.6-1 .2-2.1.3-3.2.1-3.3-.6-5.9.4-8.5 2.3-6.3 4.4-13 1.2-13.9-6.3-.1-.6-.2-1.6.1-1.8 2.8-1.7 5.4-4.2 8.4-4.6 11.9-1.8 23.9-3 35.8-4.5 10.8-1.3 21.6-2.7 32.4-4.3 2-.3 4.4-1.3 5.7-2.8 2.6-3 5-6.3 6.7-9.9 2.7-5.5 6-10.5 10.8-14.3.9-.7 2.4-1.2 3.6-1.2 5.1.1 9.3 2.2 12.8 6.1 4.8 5.4 10 10.2 16.8 13.2 2.1.9 3.6 3.1 5.5 4.9 8.2-7.2 18.6-7.8 28.8-8.1 18.4-.5 36.7-.2 55.1-.2-.2 5.7-.2 5.4-5.1 6.6-17.7 4.5-35.8 4.4-53.9 5.3-.9 0-2 0-2.8.4-13.2 5.3-27.4 6.1-41 9.4-1.2.3-2.5.7-3.3 1.5-5.3 4.9-10.6 9.8-15.7 14.9-.8.8-1 2.3-1 3.5-.1 1.1.6 2.3.6 3.4-.1 5.2 2.8 7.8 7.3 9.4 2.3.8 4.4 2 6.7 2.8 3.4 1.1 6.5 1.6 9.9-.7 2-1.3 4.8-1.8 7.2-2 12.4-1.1 24.9-2.2 37.3-2.9 10.9-.6 21.8-.6 32.7-1.1 6.8-.4 13.6-1.6 20.5-1.8 3.3-.1 6.5 1.4 9.8 1.9 6.5 1.1 13.1 2 19.7 3 5.6.8 11.3 1.5 16.9 2.6 4.6.9 8.1 3.8 10.4 7.7 1.1 1.8 1.4 4.7.9 6.8-1.3 4.7-3.3 9.1-5.2 13.6-.4 1.1-1.5 2-2.5 2.7-8 5.2-16.9 6.8-26.3 7-10.3.2-20.1-1.4-29.7-5.2-7.3-2.9-15.2-2.9-22.9-2.6-14.3.5-28.5-.2-42.7-2.6-15.2-2.6-30.5-3-45.9-2.1-4.6.3-9.4 0-13.8-1.2-11.3-2.9-22.6-2.6-34-1.8-8.5.6-17.2 0-25.4 3-.7.2-1.7.2-2.1.7-3.2 3.7-7.6 3.5-11.9 4.3-8.6 1.6-17.2 3.4-25.7 5.5-3.6.9-7 1.1-10.6.2-2.3-1.1-5.1-1.5-8.1-2.1z"/><path d="m45.9 91.1c2.7-1.7 3-4.1 1.7-6.7-2.2-4.3-1.7-8.3.6-12.6 1.6-3 2.3-6.5 3.6-9.7.4-1 1.8-1.9 2.8-2.1 12.9-2.3 25.8-4.5 38.8-6.6 5.9-.9 11.6-2.3 17-4.8 2.4-1.1 5.3-1.2 8-1.6 9.9-1.7 19.8-.6 29.8-.4 3.7.1 7.6-.7 11.2-1.6 6.1-1.6 12.2-2.4 18.5-2 3.4.2 6.5-.3 9.3-2.3 5.4-4 11.5-4.6 18-4.7 16.4-.2 32.8-1 49.2-1.1 7.6 0 15.2.9 22.8 1.6 1.8.2 3.6 1.1 5.4 1.8 3.3 1.2 6.4 3 9.8 3.6 4.1.6 5.7 2.8 6.9 6.5 1.7 5.5 4.1 10.9 5.9 16.4.5 1.6.7 3.6.1 5.1-3 6.8-3.3 13.7-1.8 20.8.6 3-.6 5.4-1.5 8.2-2.7 8.3-8.2 12.6-16.7 13.8-11.3 1.7-22.4 4.2-33.7 5.7-20.3 2.8-40.7 5.4-60.5 11.1-2.5.7-5.2.9-7.8.6-6.1-.8-12 0-17.8 1.9-7 2.2-14.2 3-21.6 3.1-1.7 0-3.5.6-5 1.5-4.3 2.5-8.4 5.3-12.7 7.8-1.3.8-3.1 1.1-4.7 1-4.3-.2-8.6-.8-13-1.1-.8-.1-1.7.2-2.4.4-8 2.4-15.8 5.5-23.9 7.1-5.8 1.2-12.1 1.1-18 .1-2.9-.4-6.1-3.6-7.7-6.3-3.6-6-5.3-12.7-3.9-20 1-5.6 0-11.1-1.7-16.6-1.9-5.9-3.4-11.8-5-17.9zm77 .7c.2.5.3.9.5 1.4-3.4 1.8-6.6 4.4-10.2 5.4-10.6 3.1-21.4 5.5-32.2 8.2-1.1.3-2.5.4-3.3 1.1-6.2 5.8-13.9 10.9-11.3 21.4 0 .2-.1.5 0 .6.6.9 1 2.4 1.8 2.7 10.1 4.1 20.5 5.3 31 1.7 4.1-1.4 8-1.7 12.1-1 15.1 2.4 28.3-1.4 39-12.6 7.8-8.1 6.2-20.1-3.7-25.2-3.8-2-8.3-2.6-13.3-4.1 1.9-1.1 3.5-2.1 5.2-2.9 1.8-.8 4.2-.9 5.5-2.1 5-4.9 9.8-10.2 14.5-15.1-5.2-7.7-13-11.3-20.2-15.6-1.2-.7-3.2-.9-4.6-.5-8 2-15.8 5.2-23.8 6.3-11.3 1.6-20.4 6.7-29.2 13.5-5 3.8-5.2 8.6-4.5 13.8.4 3.3 2.5 5.8 5.8 6.4 3 .6 6.1.8 9.1.5 10.6-1.2 21.2-2.6 31.8-3.9zm138.6-16.7h19.3c4.8 0 11-4.8 11.6-9.5 1.5-11.8-1.9-20.7-16.5-20.7-.9 0-1.9.1-2.8.1-8.6.2-17.1.5-25.7.5-4.8 0-9.7-.9-14.5-.6-15.1 1-30.1 2.4-45.2 3.4-5.2.4-8.3 4.2-12.4 6.5-.4.2-.5 1.1-.6 1.7-.3 2.3-.6 4.6-.7 6.9-.2 6.3 2 9.7 7.8 12 3 1.2 6.1 2.4 9.1 3.7 2.5 1 4.9 1.4 7.2-.4 3.1-2.4 6.6-2.6 10.3-1.6 5.9 1.6 11.8 2.1 17.9 1.2 12.5-1.7 24.9-4.7 35.2-3.2zm-3.9 29.1c1.6 0 3.2-.2 4.8 0 7.9 1.1 14.5-1.4 20.9-6.1 2.8-2.1 2.9-4.1 1.8-6.3-.7-1.3-2.7-2.4-4.3-2.7-7.7-1.5-15.4-3.4-23.1-3.7-7.3-.3-14.7 1.2-22.1 1.7-12.3.8-24.7 1-37 2-10.8.9-20.6 5-28.9 12-1.8 1.5-2.5 4.7-3.1 7.3-.1.5 2.4 1.7 3.7 2.5.6.4 1.3.7 1.9 1.1 6.4 4.2 12.8 4.2 19.4.6 1.3-.7 2.9-1.2 4.4-1.3 8.4-.7 16.9-1.2 25.3-2 5-.5 10.2-.9 14.9-2.6 4.4-1.6 8.5-2.8 13.2-2.5 2.7.1 5.5 0 8.2 0z"/></svg>