<svg enable-background="new 0 0 400 400" viewBox="0 0 400 400" xmlns="http://www.w3.org/2000/svg"><path d="m324.2 352.8c-1.7 1.8-3.1 3.1-4.2 4.7-.3.5.3 1.6.4 2.4.7-.4 1.4-.8 2-1.3.4-.3.6-.8 1.3-1.9-.3 3.2-.6 5.6-.9 8.1-.6 0-1.1.1-1.2 0-2.2-3.4-5.6-4.7-9.1-6.1-1.1-.4-2-2.6-2.2-4-.4-2.4-.1-4.8-.1-7.3-.3-.1-.6-.1-.8-.2-.5 2.1-.9 4.2-1.6 7.2-2.5-.7-5.4-1.1-7.9-2.3s-4.6-3.4-7-4.9c-3.7-2.2-6.3-5-7.2-9.5-.6-3.3-2.4-3.8-5.3-2.3-.5.2-1.1 0-2-.4 4.8-1 3.4-5.4 5.3-8.1-1.7-.8-3.1-1.5-4.7-2.3-1.7 2.3-3.3 4.7-5.1 7.1-1.6-1.3-3.1-2.6-4.7-4 .4-.8.7-1.4 1.3-2.6-3.3 1.5-5.2-.2-7-2.1-5.6-6.1-12.4-10.4-19.5-14.5-12.5-7.1-24.6-14.9-36.8-22.5-1.8-1.1-3.2-1.5-5.2-.4-6.1 3.5-12.3 7-18.5 10.4-1 .6-2 1.9-3.3.2-.2-.3-1.6.1-2.2.5-1.4 1-2.2 0-3.8-.4-4.4-.9-4.3-4.8-6-8.1-1.7 2.5-3.2 4.6-4.9 7.1 1 .8 2 1.5 3.4 2.5-2 1-3.5 2-5.1 2.6-.8.3-2-.2-3-.2-1.8-.2-4-1-5.2-.3-3.3 2-6.2.8-9.2.1-.9-.2-1.9-.5-2.8-.3-4.9 1.1-9.6 2.3-14.1-1.4-1.3-1.1-3.6-1.6-5.4-1.4-7.8.8-14.8-1.4-21.5-5-3.2-1.7-6.6-2.9-9.8-4.5-1.7-.9-3.1-2.4-4.7-3.5-1.2-.7-2.5-1.7-3.8-1.6-3 .1-4.3-1.2-4.9-4-.6-2.9-1.6-5.6-2.5-8.7 3.3-1.5 6.4-3.2 9.6-4.3 1-.4 2.8.5 3.8 1.3 1.7 1.4 3.2 1.7 5.1.4 2.3-1.6 4.5-1.7 7-.1 2.7 1.8 5.5 2.4 9.1 1.8 3.5-.5 8-.1 10.6 3.9 1.8 2.7 4.6 3.2 7.6 2.4 1-.3 2.1-1 3-.8 1.5.2 3.1.8 4.3 1.7.4.3-.6 2.3-1.2 4.1 1.4.6 3.4 1.6 5.3 2.5.2-.3.4-.7.6-1-.7-.8-1.3-1.6-2.2-2.7 3-1.2 5.7-2.5 8.9-1.2.9.4 1.9.3 2.8.7 4.5 1.9 8.4 1.2 11.7-2.5 1.5-1.7 3.5-2.1 5.7-1.8 5.5.7 5.5.6 7.2-5.1-1-.7-2.1-1.5-3.2-2.3-1-.7-2.1-1.4-3.4-2.3-.5.6-.9 1.2-1.7 2.3-1.3-1.1-2.6-2.2-4-3.2-2.1-1.4-4.1-3.2-6.4-3.9-7.9-2.2-14.7-6.2-21.2-11-12-9-24.2-17.8-36.3-26.7-2.8-2.1-5.3-4.5-6.2-8.4 5.7-2.2 11.5-2.7 17.4-1.6.5.1 1 .3 1.5.4 6 1.2 11.6 3 13 9.5 2.4-1 4.5-2.6 6.3-2.3 2 .3 3.8 2.3 5.8 3.5 2.2 1.3 4.5 2.7 6.9 3.7 3.1 1.3 5.9 2.6 7.5 5.9.4.8 1.5 1.4 2.4 1.9 1.1.6 2.4 1 3.6 1.2 5.3 1.1 9.6 3.6 12.6 8.2 1.4 2.2 3.5 2.8 6 2.8 2.6 0 5.3.1 7.9.5 2.4.3 5.4.2 5.1 4.1 0 .4.7 1.1 1.2 1.3.9.5 1.9 1 3 1 10.6.8 11.7 1.4 15.1-9.2 2.2-6.9 2.2-14.6 3-21.9.1-.8-.3-1.7-.7-2.4-1.8-2.9-3.6-5.7-5.5-8.6-5.9 3.3-9.6-3.4-14.9-2.7-.1-.4-.2-.7-.3-1.1 1.3-1.4 2.7-2.9 4.2-4.6-.8-1.2-1.6-1.6-3.1-.1-3.1 3.2-5 3.3-9.1 1-1.2-.6-2.6-.8-3.9-1.2-7.8-2.6-15.7-5-23.3-8.1-3.7-1.5-6.9-4.4-10.6-6.9 1.6-1.4 2.7-2.4 4-3.5-.9-.4-1.6-.8-2.5-1.3 3.2-1.1 6.3-2.2 9.3-3.3 3.3-1.2 4.8-3.7 4.5-7.1-.1-1.4-.2-2.8-.4-4.1-1-6.4-4.9-9.5-11.4-8.6-4.8.7-9.5 1.8-15.2 2.8 1.5-1.9 2.5-3.1 3.5-4.3-.2-.3-.3-.6-.5-.9-2.1.9-4.5 1.6-6.4 2.9-2.3 1.6-7.6 1.5-10.7-.7-.8-.5-1.5-1.2-2.5-2-3.1 3.9-6.6 2.7-10.2.8-4.1-2.1-8.2-4-13-2.5-.6.2-1.5-.3-2.2-.6-2.3-1.2-4.6-2.4-6.7-3.8-2.5-1.7-4.9-3.5-7.1-5.4-.6-.5-.9-2-.6-2.6 1.7-2.7-.2-4.2-1.3-6.2-.7-1.2-1.2-3-.9-4.3 2-9.1 1.8-18.3.8-27.5-.2-1.5-.4-3.1-1.1-4.3-3.6-5.7 1.5-9.5 3.1-14 .3-.9 2.5-1.2 3.9-1.9-.5-1.1-.9-2.1-1.8-4.2 3 .6 5.4 1 7.1 1.3 1.4 2.5 2.6 4.4 3.9 6.6h3.4c.2-1.5.5-3.2.8-5.4 4.4 5.6 9.9 5.1 15.8 4.2 5.4-.9 10.9-.9 16.3-1.2.6 0 1.4.1 1.8-.3 3.1-2.3 6.6-1.8 10.1-1.5 2.1.2 4.3.3 6.3-.3 1.5-.4 3.2-1.9 3.7-3.2 1.1-2.8 2-5.2 6.5-4.3-.8-2-1-3.6-1.9-4.4-3.6-3.2-4.1-6.7-1-10.6-2.2-2.5-1.9-5.3-1-8.2 1.3-4.5 2.4-9 3.9-13.4.4-1.1 1.7-1.9 2.8-3-.2-.6-.4-1.6-.7-2.7 4.2.8 8.3 1.4 12.4 2.3 1.3.3 2.6 1.4 3.6 2.5 2.5 2.5 4.9 5 7.1 7.7.9 1.1 1.3 2.7 1.5 4.1 1.1 8.3 2.1 16.6 3.1 24.9.1 1.2.4 2.3.6 3.4 1.1 5.7 4.2 8 9.8 6.6 5-1.2 9.4-1.1 14.4 1.1 4.3 1.9 9.5 1.7 14.2 2.9 4.9 1.2 9.8 2.7 14.5 4.5 9.8 3.9 13.3 9.8 13.2 20.4-.1 6.6-1.5 11.8-8.9 13.3-5.3 1.1-7.3 4.7-7 9.8.2 2.6-.9 4.1-3.5 4.7-2.7.6-5.2 1.8-7.9 2.4-7.3 1.7-14.1 4.4-20.4 8.4-2.1 1.3-4 1.7-6.2.6-2-1-3.6-.6-5.5.8s-4.3 2.2-6.4 3.4c-.9.5-2 1.2-2.4 2.1-1 2.1-1.7 4.3-2.5 6.7-1.5-.8-3-1.6-4.5-2.4-1.3 3.8-1.1 6.8 2 9.7 3.5 3.2 6.4 7 9.7 10.6 4.6-4.2 9.3-2 13.6-.1 5.1 2.2 10.1 5.1 14.5 8.4 3.4 2.5 6.4 6 8.5 9.6 6.4 10.9 10.3 22.7 10.9 35.4.1 1.4-.5 3.1-1.2 4.4-3.7 7.1-7.5 14.1-11.6 21.8 5.3 3 9.8 5.9 14.5 8.4 4.3 2.3 8.7 4.3 13.1 6.4 2.9 1.4 5.5 3.1 5.9 6.8.1.9 1 1.8 1.5 2.7 3.2-2.6 5-2.4 7.9.2 1.2 1.1 3 1.6 4.3 2.6.9.6 1.6 1.6 2.8 3-4.1-.3-4.3 2-4.2 4.7 2.2.8 4 2 6.3-.2.7-.6 3.2-.1 4.4.7 2 1.3 3.6 3.2 5.5 5.1.9-1.1 1.8-2 2.9-3.3 2.8 4.2 6.8 6.3 11.3 7.8 1.1.4 2.1 1 3.1 1.6 2.7 1.4 4.9 3 3.1 7.4 4.3-2 5.8.8 7.9 2.8 4.1 3.8 6.9 7.9 6.5 13.8-.1 1 .8 2.4 1.7 3.2 1.6 1.6 3.2 3.1 2.3 5.7-.1.4-.1 1.1.1 1.2 4.1 1.7 2.2 5.5 3 7.5zm-230.7-237.1c0 .3-.1.7-.1 1 1.8.3 3.6.8 5.5.7 2.2-.1 3.5.6 3.7 2.8.7 7 5.2 11.8 9.8 16.5 1.2 1.2 4.3 1.1 4.9-.3.4-1 .3-2.2.4-3.6 3.3 1.9 7.7.9 9.6 4.9 1.5-.5 2.9-1.1 4.3-1.3 4.3-.4 8.6-.7 12.9-1 3.2-.2 6-.9 6.9-4.7.4-1.6 1.3-3 2.1-4.8 1.1 1.2 2 2.2 3.2 3.4 3-5.5 7.3-1.1 11-1.7-1.1-3.6-3.2-5.6-7.1-5.6-2.8 0-5.6-.5-9.2-.9 1.5-1.9 2.6-3.1 3.8-4.6-2.9-.5-3.4-2.7-3.2-4.9.2-1.5 1.1-2.9 1.8-4.2 1.5-3.2 3.1-6.4 4.7-9.5-.5-.3-.9-.6-1.4-.8-1.4 2.1-3 4-4.2 6.2-1.5 2.8-3.5 4-6.7 3.5-2.5-.4-5.1-1-7.5-.8-9.4.8-18.7 2.2-28.1 2.8-4.9.3-8.5 1.7-10.1 6.6-.1.2-.3.2-.5.4-2.3-2.8-4.4-.4-6.5-.1zm91.4-8.9c0-.3 0-.6 0-1-.8 1.5-1.5 2.9-2.7 5.2-.9-1.5-1.3-2.4-1.7-3.1-4.8 3.9-5.1 4.1-1.8 8.4 3 3.9 2.9 8.1 2.5 12.4-.4 4.6 1.6 7.3 5.1 9.6 2.2-2.7 20.1-3.7 24.7-1.9 3.4-1.5 6.2-3 9.1-4 2.9-1.1 5.2-2.5 5.8-5.9.5-2.7 1.6-5.3 2.4-7.9 1.6-5.2 1.4-6.6-3.8-8.3-10.9-3.6-21.9-6.3-33.5-3-1.9.5-4.1-.3-6.1-.5zm113 211.9c1.4.5 2.7 1 4.3 1.5-.4-4.4-3.8-2.3-5.3-3.8 0 1.2.4 2.6-.1 2.9-2.2 1.6-1.4 3.5-.8 4.9h4.7c.2.3.3.5.5.8-4.2 3.5-3.1 7.9-2.9 13 2.9-3.1 5.3-5.7 7.7-8.3-3.3-2.7-3.3-2.7-.4-4.8-1.4-4.2-5-1.9-7.8-2.6 0-1.1 0-2.3.1-3.6zm-60.1-28.2c2.6-.9 4.5 4.8 7.6 1.6-.6-1.9-1.5-3.5-1.4-5 .3-4.3-1.2-6-5.7-5.8-.1 3-.3 6-.5 9.2zm27.3 24c-2.6-3.1-5.1-6.1-7.7-9.1 1.5-1.3 2.7-2.5 4.1-3.7-1.4-1.2-2.6-2.2-4.4-3.7.2 4.1-1.2 6.5-4.7 8 1.2 1.1 2.5 2.1 3.9 2.2 2.4.2 3.6 1.1 3.9 3.5.3 2.5.9 5 1.4 7.5.4-.1.9-.2 1.3-.2-.2-1-.3-2-.5-3.2.7-.2 1.6-.7 2.7-1.3zm-107.8-158.3c-.3 0-.6.1-.9.1.1 1.5-.3 3.4.4 4.4 2.2 2.9 4.8 5.4 7.3 8.2 1.7-1.4.3-3-.3-3.8.3-2.2.4-3.7.7-5.7-1.6.8-2.5 1.3-3.5 1.8-1.4-1.8-2.6-3.4-3.7-5zm15.3-35c-.9-4.6-3.9-6.9-7.7-6.3.1 4.4 3.9 7.6 7.7 6.3zm9.2 150.5c5.1-.5 5.3-5.2 7.8-8.2-1.5-.7-2.8-1.3-4.7-2.2 2.7 5.1-4 6.2-3.1 10.4zm5.9-79.8c.4.3.7.5 1.1.8 1.7-1.4 3.3-2.8 5-4.2-1.6-1.3-3.2-2.5-4.9-3.8-.3.2-.6.5-.8.7-.1 2.2-.2 4.3-.4 6.5zm83.8 132c.5-3.1 1.1-5.8 1.4-8.6.1-.5-.8-1.1-1.2-1.7-4.5 3.6-4.6 5.6-.2 10.3zm-97.4-171.6c1.5-.5 2.5-.9 3.4-1.2-1.2-6.5-1.2-6.5-5.3-6.4.6 2.4 1.2 4.8 1.9 7.6zm-3.6-83.6v7.8c1.9-.3 3.6-.5 5.7-.8-2-2.5-3.6-4.4-5.7-7zm55.1 215.8c-1.9 2.6-2.1 4.4.2 6.2 2.2 1.7 3.3.4 4.4-.7-1.5-1.9-2.9-3.5-4.6-5.5zm-65.1-35.4c1.6-1.4 2.8-2.4 4-3.5-.3.1-.6.3-1 .4-1.3-1.8-2.6-3.6-3.9-5.3-.2.1-.3.2-.5.3.5 2.5.9 5 1.4 8.1zm40.7-153.5c1.5-1.2 2.8-2.2 4.2-3.3-1.2-1.1-2.1-2-2.5-2.3-1.6 1.1-2.9 1.9-4.2 2.8 1 1.2 1.6 1.9 2.5 2.8zm-37.2-35.7c-2.4-2.9-4-1.3-5.7 0-.5.4-.7 1.1-1.1 1.6.7.4 1.6 1.2 2 1 1.7-.7 3.1-1.7 4.8-2.6zm56.8 156.9c-.6-3-1.6-5.1-5.2-4.2.4 1.5.8 2.9 1.1 4.2zm26.7 78.8c-.8 1-1.7 2.2-2.5 3.3 1.4.3 2.7.6 4.1.8.7.1 1.5-.2 2.5-.3-1.4-1.2-2.5-2.3-4.1-3.8zm-33.4-60.3c.3-.3.6-.7.9-1-3.1-.6 1.8-3.8-1.7-3.8-1.1 0-2.1 2.2-3.2 3.4 1.3.4 2.6.9 4 1.4zm-6.4 11v3.5c2.7-.7 5.1-1.3 7.6-1.9 0-.2 0-.3 0-.5-2.5-.4-5-.7-7.6-1.1zm-47.4-93.2c4.3 3.7 6.4 4 8.8 1.7-2.7-.4-5.4-1-8.8-1.7zm14.5 100.7c3.1-1.2 2.1-3.5 1.9-5.6-3.3.9-2.6 3.1-1.9 5.6zm-18-122.7c-.3 1.4-.5 2.6-.7 4 1.8.2 3.3.3 5 .5-1.5-1.7-2.7-2.9-4.3-4.5zm27 22.5c.4.3.9.6 1.3.9.8-2 3.9-2.5 3.7-5.2-.3-.2-.6-.4-.9-.6-1.3 1.6-2.7 3.3-4.1 4.9zm-1.6-63.4c-3.7 2.4-3.7 2.4-.8 6 .3-2.3.5-3.8.8-6zm-98.7 21.9c3 1.7 4.3.7 4.3-3.3-1.4 1.2-2.8 2.2-4.3 3.3zm85.5 84c.3.2.6.5.9.7.5-.9 1.4-1.8 1.4-2.6s-1.1-1.5-1.7-2.2c-.2.1-.4.3-.6.4zm-17 95.3v3.4c1.4-.3 2.6-.5 3.8-.8 0-.2 0-.5 0-.7-1.3-.6-2.4-1.2-3.8-1.9z"/></svg>