<svg enable-background="new 0 0 400 400" viewBox="0 0 400 400" xmlns="http://www.w3.org/2000/svg"><path d="m216 185.2c1.9-1 3.8-2 6-3.2-1.6-1.7-2.6-2.7-3.8-4 3-.9 5.7-1.7 8.4-2.4 11.3-3.1 22.6-6.2 33.9-9.4 2.8-.8 5.2-.5 7.9.4 4.8 1.6 8.4 4.2 10.3 8.9.7 1.7 1.8 3.4 2.9 4.9 1.8 2.6 2 5.2 1.8 8.3-.2 4.2.9 8.4 1.2 12.6.5 7.5 1.1 15 1.2 22.5.1 8.3-3.8 15.7-6.1 23.5-.7 2.2-.7 4.1.5 6 1.8 2.7 1.2 5.1-1.3 6.9-1.5 1.1-3.1 2.1-4.8 3-3.6 1.9-7.3 3.6-11 5.4-3.5 1.7-6.8 3.8-10.4 5.1-8.3 2.8-16.8 5.1-25.1 7.9-4 1.4-7.4.8-10.9-1.3-1.6-1-3.3-2-5-2.7-4.8-2-8 0-8 5.2 0 1.8.2 3.6.7 5.3 1.7 5.5.9 10.9.3 16.6-.8 7-.4 14.1 0 21.2.4 7.4.1 14.6-1.8 21.7-.3 1-.6 2.1-1.4 2.8-4.7 4.3-9.4 8.5-14.2 12.7-1.1.9-2.5 1.6-3.9 2-4.9 1.4-7.2.1-8.4-4.7-4.4-17.3-3.8-34.8-1.6-52.3.4-3 .6-6.1.6-9.1-.4-14.8-.6-29.5 1.5-44.3 2-14.5 2.6-29.3 2.6-44 .1-23.2-.8-46.4-1.2-69.5 0-.6 0-1.3-.1-1.9-1-8.8-2.7-10.2-11-7.8-14.9 4.4-29.2 10.6-42.8 18.1-6.4 3.5-9.9 4.3-16.4 3-.4-2.8 1-4.1 3.3-5.6 3.9-2.5 7.2-5.7 10.8-8.6.8-.7 1.5-1.8 2.4-1.9 7.3-1.2 12.5-6.1 18-10.2 13.4-10 26.7-20.2 37.1-33.5.6-.8 1.3-1.7 2-2.7-3.1-2.2-6.5-2.8-9.6-1.1-17.4 9.6-36.7 13.9-55 20.9-1.7.7-3.2 2-4.9 2.9-9.9 5.6-20.8 6.4-32.6 6.5.9-1.7 1.1-3.3 2.1-3.9 8.8-6 17.7-11.8 26.8-17.8.8 1.6 1.1 2.3 1.6 3.2 7.9-9.1 18.4-13.9 29-18.6 9.1-4.1 18-8.8 26.6-13.9 6.4-3.9 10.1-10 10.1-18 0-7.2 5-11.3 10.1-15.3.3-.3 1-.3 1.5-.1 4.1 1.3 8.3 2.5 12.3 4.1 3.5 1.4 5.3 4 4.8 8-.3 2-.5 4-.6 6-.1 3.5 1.6 5.6 5 5.9 23.4 2.1 44.9 10.1 66.1 19.7 10.1 4.6 21.2 7.2 31.8 10.8 2.2.7 4.5 1.6 6.3 2.9 4.5 3.4 4.3 9.1-.2 12.4-3.5 2.6-7.2 3.9-11.6 2.5-2.4-.7-4.9-1.1-7.4-1.9-3.3-1-6.5-1.7-9.9-.9-1.5.3-3.4-.2-4.9-.7-15.5-4.9-30.9-10.1-46.5-14.8-5.2-1.5-10.8-1.9-16.2-2.1-4.1-.2-6.3 2.5-6.2 6.4 0 1.2.8 2.8 1.8 3.6 8.5 7.3 18.8 11.1 29.5 13.2 14.6 2.9 28.7 7.1 42.6 12.1 4.6 1.7 8.5 4.3 11.5 8.1 2.2 2.7 3.6 6.3 1.8 9.1-1.1 1.7-4.8 2.4-7.3 2.6-2.9.2-5.9-.5-8.7-1.4-12.2-4.1-24.9-5.7-37.5-8-11.2-2.1-22.5-4-33.7-6-6.2-1.1-9.4 1.6-8.2 7.8 2.5 12.3 2.9 24.7 2 37-.6 7.7.9 15.4-.5 23.2-1.3 7.1-1.2 14.5-1.5 21.8-.1 1.5.5 3.8 1.5 4.3 2.1 1 4.4.8 5.9-1.8 1.3-2.2 3.3-3.3 6.1-3.2 1.4.1 3.2-.2 4.2-1.1 6-5.7 13.9-7 21.2-9.5 6.2-2.1 12.5-3.9 18.8-5.6 2.4-.7 3.2-2.2 3.2-4.4 0-4.2-4.1-10-8-11.4-.6-.2-1.5 0-2.1.1-5.3 1.3-10.7 2.7-16 4.1-.7.2-1.4.5-2 .8-6.1 3.7-12.6 2.5-17.3-3.4zm-14.3 55h.1c0 3-.1 5.9 0 8.9.3 6.7 1.4 13.3 5.6 18.8.6.9 2.2 1.7 3.1 1.5s1.8-1.7 2.1-2.8c.4-1.8.5-3.5 3-3.6 11.2-.8 21.7-4.2 32.5-7 4-1 7.5-2.6 10.1-5.9 2-2.4 4.8-4.4 6-7.2 2.7-6.2 3.4-12.9 2.9-19.6-.4-6.6-6.4-10.5-12.7-8.6-5.1 1.5-10.3 2.6-15.1 4.6-4.4 1.9-8.5 4.5-12.4 7.4-1.8 1.4-3 2.1-5.1 1.1-5.6-2.6-11.3-3.1-17.3-1.2-2.1.7-3.2 1.6-3 4 .4 3.3.2 6.5.2 9.6z"/><path d="m107.7 195.7c3.7-5.4 6.7-11.1 11-15.5 3.2-3.3 7.8-5.4 12.2-7.1 10.7-4.4 21.6-8.4 32.6-12.3 1.8-.6 4.4-.1 6.3.6.9.3 1.8 2.4 1.6 3.5-.4 1.8-1.4 3.6-2.6 4.9-4.2 4.7-9.6 7.5-15.5 9.5-1.9.6-4 1-5.6 2.1-4.9 3.2-10.1 5.3-15.8 6-1.6.2-2.4.8-2.5 2.6-.2 4.5-.8 9.1-.9 13.6 0 1 .9 2.5 1.8 3.1 4.1 2.5 8.7 2.4 13.2 1.4 6.3-1.4 12.5-2.9 18.8-4.3 1.9-.4 4-.5 6-.3 1.2.1 2.4.9 3.5 1.4-.6 1.4-.9 3.4-2 4.2-3.9 2.9-8.2 5.2-12.1 8.2-5.8 4.4-12.3 6.9-19.5 7.8-1.9.2-4 .9-5.6 1.9-3.4 2-5.7 4.6-5 9.3.8 4.9.6 9.9 1.1 14.9.1 1.1 1.2 2.1 2 3 .5.5 1.4.5 2 .8 3.3 1.4 6.2 1.8 10 .1 6.4-2.9 13.6-2.7 20.4-2.7 1.5 2.8.5 4.6-1.2 6.7-4.2 5.3-9.3 8.6-15.7 10.4-8 2.2-15.9 5.1-23.7 7.9-2.6 1-3.8.1-5.1-1.9-4.1-6.4-5.9-13.6-6.5-21-1.1-14.2-2.1-28.5-2.9-42.7-.2-3.4.4-6.9 1.2-10.2.7-2.5 1.7-4.6-1.5-5.9z"/></svg>