<svg enable-background="new 0 0 400 400" viewBox="0 0 400 400" xmlns="http://www.w3.org/2000/svg"><g fill="#010000"><path d="m123.17 127.54c-.37 9.92-1.29 19.32-.94 28.66.61 16.11-2.85 31.05-9.49 45.69-4.55 10.02-8.05 20.62-10.99 31.25-4.2 15.17-13.08 26.79-25.18 36.23-4.99 3.89-10.44 7.18-16.43 11.26-.58-2.65-1.24-4.32-1.26-6-.23-14.62 1.57-28.9 9.52-41.54 2.94-4.67 7.3-8.43 10.86-12.72 1.32-1.59 2.5-3.43 3.24-5.35 4.98-12.92 10.1-25.79 14.61-38.87 3.6-10.45 3.95-21.49 4.31-32.47.22-6.7.95-13.38 1.26-20.08.1-2.1-.42-4.24-.66-6.36-.39-.03-.78-.05-1.17-.08 1.35-2.55 2.64-5.15 4.11-7.63.38-.65 1.3-1.31 2.03-1.37 13.8-1.22 26.05-7.9 39.26-11.04 7.75-1.84 15.87-2.15 23.85-2.91 5.08-.48 5.39-.25 5.98-5.24 1.7-14.32 6.41-27.84 10.41-41.56.79-2.7.99-5.73.78-8.55-.48-6.27.75-8.23 6.29-11.04 4.79-2.42 9.51-2.9 14.55-1.44 4.16 1.21 7.27 3.55 8.06 8.05.56 3.18.86 6.4 1.2 9.61.12 1.11-.32 2.36.05 3.34 4.34 11.5.15 22.43-2.11 33.5-.36 1.75-.63 3.57-1.34 5.18-1.59 3.63.39 5.3 3.25 6.7 8.57 4.2 17.85 4.66 27.11 5.36 2.64.2 5.32.57 7.85 1.31 7.39 2.18 14.64 4.89 22.08 6.85 15.57 4.11 28.96 12.39 39.94 23.55 14.18 14.42 22.37 32.17 20.61 53.03-.55 6.58-3.09 13-4.83 19.47-1.33 4.94-2.72 9.73-5.95 14.03-2.55 3.41-4.06 7.68-5.63 11.73-3.45 8.89-11.15 13.08-20.29 10.59-.77-.21-1.85-1.51-1.78-2.2.29-3.07.48-6.28 1.56-9.12 3.76-9.91 8.36-19.52 11.72-29.55 4.8-14.33 3.55-28.22-5.4-40.94-4.84-6.88-11.14-12.18-17.83-17.12-12.62-9.34-27.13-13.43-42.42-15.29-17.23-2.1-34.51-3.53-51.87-2.04-7.68.66-15.3 2.08-22.99 2.56-9.71.61-19.46.47-29.17.92-5.47.25-10.9 1.05-16.76 1.64z"/><path d="m271.25 264.07c3.24 5.61 1.97 10.96.08 16.13-2.66 7.23-5.67 14.33-8.55 21.48-.25.62-.48 1.35-.95 1.75-6.51 5.41-8.88 13.3-12.23 20.56-3.4 7.36-8.16 13.57-14.5 18.61-2.45 1.95-4.78 4.06-7.28 5.94-4.16 3.13-7.06 7.17-10.1 11.38-6.74 9.35-16.17 14.88-27.96 15.69-2.53.17-4.22-.75-5.55-3.27-8.71-16.48-12.1-34-10.86-52.5 1.39-20.65 2.68-41.31 4.44-61.93.4-4.67 2.99-9.12 3.79-13.81 1.36-7.95 5.8-12.74 13.14-15.62 4.03-1.58 7.65-4.18 11.59-6.02 5.56-2.59 8.27-7.22 8.89-12.89.58-5.3.37-10.71.23-16.06-.02-.92-1.36-2.56-2.14-2.59-3.72-.14-7.47-.01-11.18.37-2.73.29-5.4 1.53-8.11 1.62-3.95.13-7.1-3.15-7.52-7.08-.72-6.7-.72-6.71 5.53-9.59 8.97-4.13 18.62-5.45 28.25-6.81 5.87-.83 11.74-1.65 17.64-2.21 2.96-.28 5.99-.14 8.97.09 5.01.39 10.01 1.02 15.01 1.51 7.59.74 12.05 4.28 13.85 11.1-5.79 5.1-12.76 5.65-20.08 5.47-4.89-.12-9.79.41-14.68.72-2.93.19-3.89 2.24-4.17 4.79-.06.55-.13 1.14-.01 1.67 1.74 7.53 1.15 14.86-2.65 22.68 8.32 2.76 16.09 5.45 23.92 7.9 5.12 1.6 10.5 2.58 14.32 6.81 4.49 4.98 6.72 10.71 5.55 17.5-.61 3.53-1.33 7.04-1.75 10.59-.36 3.1-.92 5.81-4.93 6.02zm-74.47-17.01c-.42 5.56-.89 10.8-1.17 16.04-.1 1.77.21 3.57.47 5.34.36 2.41 1.41 3.46 4.28 3.28 15.13-.92 30.32-3.89 45.39-.06 5.66 1.43 8.47-.51 11.4-5.23 2.82-4.54 3.67-8.95 3.09-13.95-.17-1.44-.38-2.89-.66-4.31-2.02-10.28-9.3-14.44-19.34-11.27-9.04 2.86-18.08 5.79-27.27 8.09-5.26 1.31-10.82 1.42-16.19 2.07zm-2.91 79.23c.33 3.25.81 8.69 1.46 14.11.26 2.15 1.4 3.36 3.88 3.79 8.96 1.55 16.36-1.04 21.42-8.49 6.77-9.98 13.1-20.27 19.37-30.57 2.94-4.84 1.09-9.99-3.58-10.56-12.87-1.56-25.08 1.08-36.84 6.27-3.03 1.34-4.2 3.66-4.38 6.82-.32 5.47-.77 10.93-1.33 18.63z"/><path d="m179.8 150.31c0 .45-.02.9 0 1.34.29 6.82-1.55 12.53-7.08 17.17-4.52 3.79-8.43 8.34-12.39 12.75-.96 1.07-1.59 2.93-1.49 4.37.5 7.7 1.62 15.37 1.86 23.08.17 5.33-.66 10.7-1.17 16.04-1.48 15.26-2.71 30.54-4.62 45.75-2.86 22.82-12.39 42.85-27.22 60.27-4.83 5.67-10.42 10.78-16.18 15.53-5.14 4.25-11.48 5.93-18.24 5.37-4.19-.34-5.86-1.8-5.32-5.85.67-5.04 1.37-10.18 4.7-14.45 9.63-12.34 19.42-24.57 28.73-37.15 7.23-9.77 12.6-20.7 15.85-32.38 1.87-6.71 2.01-13.91 2.81-20.91 1.58-13.78 3.11-27.57 4.58-41.37.18-1.67.02-4.82-.33-4.87-2.19-.31-4.54-.21-6.72.28-2.12.48-4.05 2.04-6.16 2.33-4.16.57-5.83-1.61-4.77-5.64.2-.75.4-1.54.8-2.2 3.71-6.15 6.61-12.61 12.51-17.5 11.77-9.76 21.48-21.53 29.62-34.51 1.32-2.1 2.54-2.36 4.63-1.42 3.89 1.76 5.12 5.09 5.49 8.93.16 1.66.03 3.35.03 5.03.03.01.05.01.08.01z"/></g><path d="m361.2 9.6.8-1c.9.7 1.9 1.4 2.9 2.3l-.9 1.1c-1-1-2-1.8-2.8-2.4zm.5 10.6c.9-2.1 1.6-4.3 2.3-6.7.4.2.8.4 1.3.6-.7 2.1-1.5 4.3-2.2 6.6zm.4-15.2.9-.9c1 .8 2 1.6 2.8 2.4l-1 1c-.9-.9-1.8-1.7-2.7-2.5zm12.5-1.2h1.2v1.4h2.7v1.1h-2.7v2.7h-1.2v-.6h-1.8v1.3h4.9v3.8h-1.2v-.5h-3.7c0 .4-.1.9-.1 1.2h5.1v1h-5.2c0 .5-.1.9-.2 1.2h6v1h-5.2c1.1 1.3 2.9 2 5.5 2.2-.4.4-.7.8-.9 1.3-2.9-.5-4.8-1.6-5.7-3.5h-.1c-.8 1.7-2.7 2.9-5.9 3.6-.2-.4-.6-.8-.9-1.1 2.8-.6 4.6-1.4 5.4-2.5h-4.8v-1h5.3c.1-.3.2-.7.2-1.2h-4.9v-1h5c0-.4 0-.8.1-1.2h-3.5v.5h-1.2v-3.8h4.9v-1.3h-1.8v.5h-1.2v-2.7h-2.7v-1h2.6v-1.4h1.2v1.4h4.7v-1.4zm-6.6 8.3h3.6c0-.4 0-.9 0-1.4h-3.6zm1.9-4.6h4.7v-1.3h-4.7zm6.6 3.2h-3.7v1.4h3.7z" fill="#fbfcfa"/><path d="m385.3 3.8h1.3v2.2h2.8v-2.2h1.3v2.2h4.1v9.1h1.7v1.3h-16.9v-1.3h1.7v-9.1h4.1v-2.2zm.4 13.1.7 1.2c-1.8.9-3.8 1.9-6 2.9-.2-.4-.5-.8-.8-1.3 2.3-1 4.3-1.9 6.1-2.8zm-3.1-6.4h2.8v-3.2h-2.8zm0 4.6h2.8v-3.3h-2.8zm4-4.6h2.8v-3.2h-2.8zm0 4.6h2.8v-3.3h-2.8zm3.7 1.9c2.1.9 4.1 1.8 6.1 2.7l-.7 1.3c-2.2-1.1-4.2-2-6.1-2.9zm3.2-9.7h-2.8v3.2h2.8zm-2.8 7.8h2.8v-3.3h-2.8z" fill="#fbfcfa"/></svg>