<svg enable-background="new 0 0 400 400" viewBox="0 0 400 400" xmlns="http://www.w3.org/2000/svg"><path d="m99.71 274.8c1.66-4.7 3.23-9.44 5.06-14.08.4-1.01 1.71-1.69 2.65-2.45 1.48-1.18 3.78-1.99 4.38-3.49 3.89-9.71 11.79-16.19 18.66-23.41 7.11-7.48 12.13-15.92 15.25-25.69.74-2.33.15-3.19-1.87-3.96-6.9-2.64-13.88-1.67-20.84-.5-4.51.76-9.76.6-13.25 2.96-3.38 2.28-4.79 7.36-7.36 11.01-.97 1.37-2.81 2.11-4.17 3.23-.9.74-2.16 1.51-2.41 2.49-1.47 5.62-2.66 11.31-4.03 16.96-.25 1.02-.71 2.19-1.45 2.87-8.1 7.36-16.26 14.66-24.44 21.94-8.27 7.37-18.45 10.19-29 12.08-.17.03-.39-.16-.99-.42 2.77-7.73 5.25-15.65 10.92-21.86 5.5-6.03 11.22-11.92 17.34-17.3 7.06-6.21 9.02-14.08 8.98-22.85-.02-5.37-.65-10.76-.33-16.09.4-6.67 1.22-13.35 2.41-19.92.78-4.28.89-8.38.02-12.58-1.28-6.18-1.36-12.34-.27-18.61.43-2.48-.09-5.3-.82-7.77-1.23-4.14-.65-6.19 2.97-8.39.97-.59 2.37-1.61 2.37-2.43.01-3.08 1.89-3.87 4.31-4.58 15.57-4.58 30.79-9.99 44.93-18.18 3.52-2.04 7.67-3.07 11.63-4.22 9.82-2.87 14.06-9.05 13.56-22.07-.13-3.32-.85-6.69-1.81-9.88-2.54-8.46-.95-16.32 2.74-24.03 3.18-6.63 7.04-12.71 12.99-17.23 2.65-2.01 5.5-1.4 6.64 1.78 3.18 8.83 6.41 17.65 9.03 26.65.82 2.82-.09 6.2-.46 9.29-.94 7.87-1.98 15.73-3.05 23.59-.44 3.23.52 4.37 4.11 4.38 16.45.02 32.94-.65 49.35.2 16.38.84 32.69 3.1 49.02 4.9 10.11 1.11 20.29 1.96 30.24 3.95 8.5 1.7 17 4.18 24.92 7.63 3.81 1.66 7.2 5.88 9.17 9.76 3.57 7.02 5.82 14.7 8.84 22.01 4.2 10.18.34 19.3-3.24 28.57-1.19 3.09-1.99 6.35-2.68 9.6-.78 3.67-1.89 6.99-4.72 9.74-4.5 4.35-8.68 9.04-13.11 13.47-.81.81-2.18 1.07-3.67 1.76-4.32 10.6-12.59 17.09-24.61 19.42-1.9-6.05-.27-11.4 1.42-16.71.84-2.66 2.06-5.21 2.78-7.9 1.07-3.97-.81-6.28-4.86-5.72-2.94.4-6.13.96-8.59 2.46-7.82 4.74-16.21 6.85-25.23 6.82-6.8-.02-12.87 1.59-15.74 8.48-3.24 7.77-3.74 10.25 6.08 12.84 5.36 1.42 9.6 3.29 12.35 8.49 1.51 2.86 4.32 5.09 6.71 7.42 8.05 7.84 10.38 17.26 7.73 27.97-.95 3.84-2.25 7.64-3.81 11.27-2.5 5.8-2.3 7.78 3 11.11 18.08 11.36 31.4 27.11 42 45.32 5.51 9.47 8.35 19.72 7.48 30.81-.57 7.23-6.73 10.77-13.28 7.7-1.47-.69-3.25-1.22-4.82-1.08-5.04.45-8.14-2.05-10.78-5.94-6.16-9.07-12.28-18.17-18.76-26.99-8.3-11.29-19.22-19.95-30.05-28.64-.64-.52-2.09-.56-2.93-.22-4.04 1.63-8.03 3.39-11.96 5.26-1.16.55-2.1 1.6-3.12 2.45-4.89 4.07-9.46 8.62-14.76 12.06-3.07 2-7.26 2.46-11.03 3.15-2.35.43-3.3-1.5-2.55-3.48.8-2.11 1.9-4.34 3.49-5.87 4.99-4.81 10.42-9.17 15.39-14 2.37-2.3 4.45-5.08 5.99-8 3.73-7.04 3.8-6.7-2.96-10.4-4.05-2.22-8.82-3.07-13.18-4.76-8.42-3.26-16.85-6.53-25.13-10.14-1.76-.77-2.96-2.92-4.3-4.53-2.26-2.72-5.22-3.12-7.66-.68-3 3-5.86 6.15-8.69 9.32-2.39 2.67-2.97 5.88-2.63 9.39.63 6.5 2.56 12.07 7.65 16.83 7.92 7.4 15.01 15.68 22.7 23.33 2.71 2.69 6.15 4.66 9.31 6.89 1.18.83 2.64 1.3 3.74 2.21 3.29 2.72 2.94 6.38-.3 9.03-8.37 6.86-17.69 7.85-26.97 3.17-6.09-3.07-11.73-7.5-16.69-12.24-9.46-9.04-17.22-19.54-20.58-32.44-1.14-4.38-.9-9.33-.27-13.88.39-2.85 2.28-5.76 4.17-8.1 7.36-9.13 13.56-18.86 17.16-30.11.92-2.86 1.02-5.61-.27-8.45-1.47-3.25-2.43-6.75-4.03-9.92-1.06-2.1-2.62-4.12-4.4-5.65-2.79-2.39-5.46-1.84-7.64 1.1-14.27 19.27-33.8 31.9-55.09 42.72zm106.43-44.82c2.53-4.88 6.49-7.88 10.61-10.81 4.9-3.48 9.87-6.94 14.4-10.87 6.78-5.88 8.91-14.51 12.46-22.31 1.83-4.02 1.83-7.73.85-11.96-.97-4.16-1.68-8.71-1.02-12.85 1.38-8.59 5.2-16.37 10.5-23.31 3.98-5.21 8.14-10.28 12.48-15.73-4.83-.73-9.42-1.47-14.04-2.11-14.68-2.04-29.22-4.94-44.28-3.47-18.02 1.76-36.13 2.49-54.19 3.87-4.88.37-10.2.4-14.45 2.43-11.18 5.33-21.9 11.65-32.75 17.65-.7.39-1.47 1.5-1.42 2.21.15 2.05.71 4.07 1.15 6.32 2.64-.82 4.84-1.58 7.09-2.19 7.3-1.98 14.54-4.35 21.96-5.74 10.09-1.9 20.35-2.89 30.5-4.53 10.8-1.74 21.49-4.3 32.57-3.58 6.83.44 13.39 1.76 19.81 5.23-2.22 1.45-4.12 2.69-6.01 3.93.05.23.11.46.16.69h7.78c-4.99 3.97-10.24 7.07-15.31 10.44-3.35 2.23-6.74 3.61-10.87 3.59-4.34-.02-8.73.35-13.03 1.04-3.57.57-7.03 1.83-10.61 2.81-.61-1.47-1.14-2.75-1.67-4.04-.33-.04-.66-.08-.99-.12-.38 1.19-.75 2.38-1.19 3.77-2.15 0-4.38.13-6.6-.02-8.03-.55-15.82.58-23.42 3.15-5.39 1.82-10.82 2.25-16.52 1.48-2.6-.35-5.43.66-8.08 1.34-.69.18-1.6 1.44-1.58 2.18.16 4.77.54 9.52.86 14.39.95 0 1.49.03 2.04 0 9.93-.68 19.87-1.24 29.78-2.08 14.14-1.19 28.27-2.56 42.4-3.9 4.29-.41 8.55-.88 11.4 4.21 1.5-4.38 4.51-4.6 7.81-4.33 1.78.14 3.61-.17 5.36.11 2.35.37 4.64 1.12 7.35 1.8-2.89 5.17-6.86 8.07-11.46 9.86-5.6 2.19-11.47 3.7-17.15 5.7-5.12 1.8-10.15 3.85-15.28 5.81.3 1.19.4 1.72.57 2.23 3.61 10.79 8.57 20.86 15.92 29.65 1.5 1.8 2.98 3.75.45 5.94 3.76 1.79 3.76 1.79 5.47 7.58 4.31 14.58 4.31 14.53 19.55 16.67 7.11 1 13.83 2.93 18.2 9.57 3.53-3.55 6.95-2.66 10.8-.72 3.21 1.62 6.83 2.51 10.35 3.41.77.2 2.59-.8 2.72-1.48 1.83-9.56.38-20.34-12.39-23.85-6.99-1.92-13.76-4.71-20.8-6.43-7.84-1.9-12.53-7.73-18.24-12.63zm65-109.12c1.89 7.62 3.77 14.72 5.34 21.89.51 2.32.72 4.93.2 7.21-1.17 5.09-2.99 10.02-4.37 15.07-1.68 6.15 1.44 11.52 7.49 13.04 2.92.73 5.86 1.45 8.84 1.87 6.17.88 12.37 2.08 18.57.15 2.61-.81 4.31-2.11 4.45-5.35.42-10 3.98-19.97-.46-30.02 1.58-.15 2.59-.25 4.6-.44-5.11-1.89-5.92-5.15-5.33-9.09.04-.28.02-.64-.12-.88-1.22-2.08-2.44-4.15-3.72-6.19-1.17-1.86-2.6-3.06-5.07-3.24-4.11-.3-8.18-1.12-12.27-1.67-5.93-.77-11.87-1.53-18.15-2.35zm-181.28 116.71c-2.15-5.17-3.46-10.73-8.49-14.45-1.91 4.21-.94 7.77.97 11.38 2.39 4.5 2.27 4.56 7.52 3.07zm4.46-20.46c-3.13-1.13-5.66-2.04-8.19-2.96-1.59 4.38-1.18 5.48 3 8.44 1.41-1.48 2.85-3 5.19-5.48z" fill="#010000"/><g fill="#fbfcfa"><path d="m361.2 9.6.8-1c.9.7 1.9 1.4 2.9 2.3l-.9 1.1c-1-1-2-1.8-2.8-2.4zm.5 10.6c.9-2.1 1.6-4.3 2.3-6.7.4.2.8.4 1.3.6-.7 2.1-1.5 4.3-2.2 6.6zm.4-15.2.9-.9c1 .8 2 1.6 2.8 2.4l-1 1c-.9-.9-1.8-1.7-2.7-2.5zm12.5-1.2h1.2v1.4h2.7v1.1h-2.7v2.7h-1.2v-.6h-1.8v1.3h4.9v3.8h-1.2v-.5h-3.7c0 .4-.1.9-.1 1.2h5.1v1h-5.2c0 .5-.1.9-.2 1.2h6v1h-5.2c1.1 1.3 2.9 2 5.5 2.2-.4.4-.7.8-.9 1.3-2.9-.5-4.8-1.6-5.7-3.5h-.1c-.8 1.7-2.7 2.9-5.9 3.6-.2-.4-.6-.8-.9-1.1 2.8-.6 4.6-1.4 5.4-2.5h-4.8v-1h5.3c.1-.3.2-.7.2-1.2h-4.9v-1h5c0-.4 0-.8.1-1.2h-3.5v.5h-1.2v-3.8h4.9v-1.3h-1.8v.5h-1.2v-2.7h-2.7v-1h2.6v-1.4h1.2v1.4h4.7v-1.4zm-6.6 8.3h3.6c0-.4 0-.9 0-1.4h-3.6zm1.9-4.6h4.7v-1.3h-4.7zm6.6 3.2h-3.7v1.4h3.7z"/><path d="m385.3 3.8h1.3v2.2h2.8v-2.2h1.3v2.2h4.1v9.1h1.7v1.3h-16.9v-1.3h1.7v-9.1h4.1v-2.2zm.4 13.1.7 1.2c-1.8.9-3.8 1.9-6 2.9-.2-.4-.5-.8-.8-1.3 2.3-1 4.3-1.9 6.1-2.8zm-3.1-6.4h2.8v-3.2h-2.8zm0 4.6h2.8v-3.3h-2.8zm4-4.6h2.8v-3.2h-2.8zm0 4.6h2.8v-3.3h-2.8zm3.7 1.9c2.1.9 4.1 1.8 6.1 2.7l-.7 1.3c-2.2-1.1-4.2-2-6.1-2.9zm3.2-9.7h-2.8v3.2h2.8zm-2.8 7.8h2.8v-3.3h-2.8z"/></g></svg>