<svg enable-background="new 0 0 400 400" viewBox="0 0 400 400" xmlns="http://www.w3.org/2000/svg"><path d="m182.7 123.6c-4.3-4.9-3.6-10.1-1.6-15.6 1.4-3.9 3-7.7 3.6-11.7 1-5.7-1.1-8.4-6.9-8.4-4.4 0-9 .9-13.3 2.1-6.5 1.8-12.8 4.3-19.3 6.1-1.9.6-4.2.4-6.2 0-7.9-1.5-15.7-3.9-23.6-4.7-5.5-.5-11.3.7-16.9 1.7-4.7.8-9.1 2.6-13.7 3.8-8.6 2.3-19.4-2.9-22.9-10.8-.2-.4-.3-1.2-.1-1.4 2.1-2.4 3.3-5.4 7.2-6.1 12-2.4 23.9-5.4 36-7.8 3.8-.7 8-.3 11.9 0 5.9.4 11.8 1.5 17.7 1.4 5.3-.1 10.6-1.5 15.9-2.5 10.8-2 21.6-4.1 32.4-6 1.5-.3 3.4 0 4.8.5 4.9 1.8 9.7 3.7 14.4 5.7 9.2 3.8 12.7 10.6 11.7 20.5-1.1 10.2-5 19.4-8.3 28.9-1.8 5.1-3.5 10.2-5.2 15.3-3 8.7-10.1 13.6-19.3 13.3-1.9-.1-3.8 0-5.7.3-6.3.8-7.5 2-8 8.4-.6 8.4-1.1 16.9-1.8 25.3-.2 2.2.6 3.5 2 4.9 5 4.9 11.1 5.8 17.8 6.3 10.6.7 18.5-4.8 26-10.7 5.2-4.1 9.9-3.2 15.1-1.5.8.3 1.4 1.5 1.9 2.4 5.5 11.4 10.9 22.9 16.5 34.3.7 1.4 1.6 2.8 2.6 3.9 13.9 15.7 27.8 31.4 41.7 47 1 1.2 2.3 2.1 3.7 3 21.7 14 43.4 28 65.1 41.9 3.2 2.1 5.5 4.6 5.4 8.7 0 1.9-.7 3.1-2.4 4-14.6 8.3-30.3 12.8-46.9 12.7-21.5-.2-42.9-1.2-64.4-2.2-5.2-.2-9.5-2.3-11.4-8.2-3.2-10.2-7.7-19.9-14.3-28.5-.8-1-1-3.1-.6-4.3 1.7-5.4 1.5-10.5-1.3-15.6-5.3-9.9-6.2-20.7-6.9-31.6-.5-7.1-1.2-14.2-2.6-21.1-2.3-11.4-10.9-16-22.2-13-4.8 1.3-10.1 2.8-14.9 2.1-5.3-.7-7.3 1.7-9.6 5.3-6.4 9.9-9.3 20.7-9.7 32.4-.3 9.5-2.1 18.6-6.3 27.3-2.6 5.5-6.8 9.1-12.2 11.5-3.2 1.4-6.4 2.7-9.7 3.8-5.7 2-10.9 4.7-15.7 8.6-3.4 2.7-8.2 3.9-12.5 5-17.5 4.2-35.4 6.5-53.4 6.8-7.8.1-11.2-2.6-13.3-10.1-.3-1.1-.7-2.3-.7-3.4.1-2.9-.4-6.2.7-8.8 1.3-3.2 5-1.4 7.6-2 2.4-.5 4.8-.7 7.3-.7 10.6-.1 20.1-4.5 29.9-7.7 3.1-1 6-1.5 9.2-.5 9.5 3.2 18.1.7 25.5-5.4 4.3-3.5 8.1-7.7 11.9-11.8 3.3-3.6 6.3-7.5 9.2-11.3.6-.7.7-2.5.3-3.2-1-1.6-1.1-2.9 0-4.3 4.7-6.1 5-13.2 4.4-20.5-.1-1.1-.9-2.4-1.8-3-5.2-3.7-11-4-16.9-2-8.3 2.8-16.6 5.8-24.8 8.7-.3.1-.7.2-.9.4-5 4.8-11.3 5.2-17.5 4.7-9.2-.8-15.5 3.9-20.8 10.5-1.5 1.8-2.7 3.8-4.2 5.6-3.3 4.2-7.6 6.6-13.1 6.6-2.3 0-3.4-1-4.1-3.1-1.7-4.9-.3-9.6 3.1-12.6 8.8-8 14.1-17.9 18.4-28.6 4.6-11.3 8.2-22.9 9.9-35 1.2-8.7.5-17-2.9-25.2-1.1-2.5-1.7-5.6-1.3-8.2.7-5.6 4.6-9 10.5-9.8 3-.4 6.2-.5 9.1.1 10.2 1.9 20.3 1.8 30.6 0 10.7-1.9 21.5-3.4 32.2-5.3 4.8-.9 9.5-2.9 14.4-3.7 3.5-.6 7.2 0 10.7.1 4.8-.1 9.4-1.2 13.8-4zm-77.9 78.9c0 .2.1.4.1.6 8.2-1.2 16.5-2.2 24.7-3.5 3.4-.5 6-2.2 7.4-5.7 1-2.5 2.7-4.8 3.8-7.3.5-1.2.9-2.7.7-3.9-.8-4-2-8-3-12-.7-2.8-2.3-4.5-5.2-5.3-2.2-.6-4.5-1.6-6.3-2.9-4.8-3.5-9.8-3.2-15.5-2.4-7.8 1-12.6 4.6-16.8 11.2-5.7 8.9-5.7 17.5-2.7 26.9 1 3 2.6 4.6 5.9 4.3 2.2-.2 4.6 0 6.9 0z"/></svg>