<svg enable-background="new 0 0 400 400" viewBox="0 0 400 400" xmlns="http://www.w3.org/2000/svg"><path d="m153.3 155.2c-19.7 2.1-38.8 4.1-57.9 6.1-10.2 1-20.4 2-30.7 2.8-1.1.1-2.3-.2-3.2-.8-7.4-4.9-10.8-11.9-10.9-20.7 0-1 .5-2 1-2.9 1.5-2.8 3.4-5.4 4.7-8.3 2.7-6 7.8-7.2 13.6-7.2 1.7 0 3.4.1 5.1.4 10.1 1.8 19.9-.8 29.4-3.3 10.5-2.8 20.7-2 31-.2 3.9.7 7.7 1.2 11.6 1.6 1.2.1 2.7.1 3.6-.5 3.7-2.2 7.6-2.3 11.6-2.1 2.5.1 5.1.2 7.6 0 6-.3 10.1-4.4 10.4-10.4.3-5.3.3-10.6.9-15.8.2-2.2 1.3-4.5 2.5-6.3 2.3-3.3 1.4-6.8-2.4-7.6-11-2.2-22.1-1.3-33.2-.3-7.8.7-15.6 1.9-23.3 1.5-11.6-.6-21.3-12-21.1-23.6 0-.6.5-1.4 1-1.7 8.5-6 17-11.9 25.5-17.8 3.6-2.5 7.4-3.4 11.9-2.7 9.5 1.4 19.1 2.4 28.7 3.1 5.9.4 11.8 0 17.7-.2 6.5-.2 12.8.3 17.9 4.8 2.3 2.1 4.3 4.7 5.6 7.5 5.6 12.4 8.4 25.5 7.6 39.1-.2 3.5-1.1 6.9-1.5 10.3-.2 1.4-.2 3 0 4.4.4 2.7 1.8 3.9 4.8 3.6 18.3-1.9 36.6-3.7 54.9-5.5 15.8-1.6 31.6-3.2 47.4-4.7 4.9-.5 9.7-.2 14.2 2.2 6.5 3.4 7.7 12.6 2.3 17.7-.9.9-2.1 1.5-2.9 2.5-2 2.5-4.5 2.7-7.4 2-1.1-.3-2.5 0-3.7.3-2.7.9-5.4 1.8-8 3-8.6 4.1-17.7 5-27.1 5.4-5.6.3-11.2 1.8-16.7 3.3-9.2 2.6-18.1 5.9-27.3 8.3-7 1.8-14.3 2.6-21.5 4.1-3.5.7-6.9 2-10.2 3.2-2 .7-2.8 2.2-3 4.4-.8 10.7-1.7 21.3-2.6 32-.2 1.7.4 2.7 2 2.9 3.6.2 7.5 1 10.9.2 10-2.3 19.6-5.8 29.6-7.8 16-3.3 32.2-4.7 48.6-4 6.4.3 10.3 7.1 7.6 12.9-.4.8-1.2 1.4-2 1.8-10.4 5.4-20.8 10.8-31.4 15.9-2.6 1.2-5.7 1.2-8.6 2-3.1.8-6.2 1.8-9.3 2.8-.3.1-.6.3-.9.4-15.8 9.1-33.4 12.3-50.9 15.7-2.6.5-3.2 1.6-3.3 4-.6 18.1-1.9 36.1-5.6 53.9-.6 3.1-.3 6.3-.3 9.5 0 18.2-4.1 35.7-10.2 52.7-4.5 12.4-15.7 18.6-28.8 16.7-.7-.1-1.4-.7-2.1-1.1-.2-.2-.3-.5-.6-.8-7.8-6.9-6.4-15.4-5-24.4 4-26 7.6-52.1 11.4-78.2.2-1.4.8-2.9 1.6-3.9 2.5-3.1 3.4-6.5 2.7-10.4-.2-1-.8-2.1-1.6-2.8-3.6-2.8-7.9-3.7-12.3-3.2-4.9.5-9.8 1.5-14.7 2.4-1.4.3-2.7 1.1-3.9 1.9-4.6 2.9-9.7 2.3-14.5 1.5-7.3-1.3-14.5-3.1-21.6-5-1.8-.5-3.5-1.8-4.8-3.2-2.4-2.7-4.6-5.6-6.7-8.5-3.4-4.7-1-12.7 4.5-14.9 11.5-4.6 23-9.1 34.5-13.6 1.6-.6 3.5-.9 5.2-1 9.7-.3 19.5-.2 29.2-.8 3.3-.2 6.8-1.6 9.8-3.2 3.6-1.9 5.5-5.5 4.8-9.6-1.2-6.6-.3-12.9 1.3-19.4.8-3.2.3-6.8.1-10.3-.1-1.8-1.4-2.6-3.6-2.6-6.3.6-12.9.5-19 .5z"/></svg>