<svg enable-background="new 0 0 400 400" viewBox="0 0 400 400" xmlns="http://www.w3.org/2000/svg"><path d="m208.2 304.2c-5.6 7.3-7.5 15.5-8.2 24-.1.9.3 1.9.9 2.6 2.2 2.8 1.6 5.4-.5 7.9-1.1 1.3-1.8 2.8-2.7 4.3-2.1 3.3-4.2 6.4-4.4 10.6-.1 2.3-1.3 4.7-2.3 6.8-2.1 4.2-4.8 5.4-9.8 4.7 0-2.3-.1-4.7 0-7.1.5-14.9 1.5-29.8 1.4-44.7-.1-12.3.8-24.2 4.2-36 .6-2.2.8-4.6.7-6.9-.1-8.4-.4-16.7-.8-25.1-.1-3.3.2-6.3 2.1-9 .9-1.3 1.1-2.5-.1-3.9-2.2-2.8-2.7-6.3-1.7-9.7 4.6-15.6 3.6-31.7 4.7-47.6.1-1.2-.6-2.6-1.3-3.7-1.3-2-3-3.8-3.9-5 1-3.3 2.3-5.9 2.6-8.6.1-1.1-1.4-3-2.7-3.6-4.3-2-8.7-3.7-13.2-5.4-.8-.3-2-.5-2.6-.1-6.8 5.1-14.8 5.7-22.9 6.4-4.4.4-9 .5-13.1 1.8-14.9 4.6-19.8 12-21 25.6-1.1 12 1 23.8 2.1 35.7.4 4.3.5 9.4-1.3 13-5.9 11.4-6.9 23.6-8.3 35.9-1.6 14.1-8.3 21.9-22.1 25.5-6 1.6-15.7 1.7-19.9.4-1-3.9-2.1-7.4-2.6-10.9-.4-3.1-.1-6.3.2-9.4.1-.6 1.3-1.3 2.1-1.6 6.7-2.7 11.4-7.2 14-14.2.9-2.4 3.2-4.4 5.2-6.2 2.3-2.1 3.7-4.4 3.6-7.6-.1-8.4 2.1-16.2 4.5-24.2 1.1-3.6.4-8.1-.4-12.1-2.5-12.8-9.9-23.2-17.5-33.4-3.8-5.1-8-10.1-8.2-16.8-.1-4.8.8-9.6 1.4-14.4.1-.7 1-1.6 1.8-1.8 3.8-1.4 7.6-2.6 11.4-3.8 6.2-1.9 12.4-.1 18.5.8.4.1.8.1 1.2.3 4.9 1.6 9 .6 12.4-3.4.9-1.1 2.7-1.7 4.1-2 8.6-2.2 17.2-4.3 25.9-6.2 2.2-.5 4.6-.5 6.9-.6 5.8-.1 11.2-1.3 16.6-3.8 2.4-1.1 5.3-1.6 7.9-1.3 8.1.7 11.5-1.7 12.1-9.9.8-11-.8-21.8-4.3-32.2-2-6.1-4.8-12-6.8-18.1-1-3-1-6.4-1.2-9.6-.2-4.2-.2-8.4-.3-12.6 0-1.1-.2-2.3-.4-4.1 4.1 1.1 7.8 1.7 11.3 3 11 4 21.5 9 30 17.3 1.5 1.5 2.8 3.2 3.9 5 2.2 3.3 3 6.7 1.6 10.7-2.1 5.8-3.8 11.9-5.4 17.9-2.2 8-1.3 16.2.1 24.2.2.9 1.5 1.9 2.6 2.3 7.2 2.6 14.8 2.6 22.3 1.6 15.3-1.9 30.6-4.2 45.9-6.2 1.5-.2 3.2 0 4.6.6 13.8 5.7 27.5 11.5 41.2 17.2 1.9.8 2.8 2 3.3 3.8 1.5 5.4.7 10.7-.5 16-.6 2.8-1.2 5.6-1.9 8.3-1.3 5.4-1.5 10.7 0 16.3 1 3.4 1.3 7.4.7 10.8-1.4 7.5.3 15-.5 22.4-1 9.1-2.5 18.2-4.6 27.1-.9 3.7-4.3 6.7-6.1 10.3-3 5.7-7.3 9.6-13.4 11.7-4.8 1.7-9 4.6-12.3 8.6-4.3 5.1-9.6 8.8-15.8 11.3-4.3 1.8-8.3 4.1-12.6 6-2 .8-4.2 1-6.3 1.6-1.7.4-3.6.6-5.1 1.4-12.3 6.6-24.5 13.3-36.7 20.1-3.4 2-6.5 4.4-10.3 1zm10.1-31c5.8-6.9 13.5-7 21.5-6.6 1.5.1 3.3-.7 4.5-1.6 3.9-3.2 7.8-6.6 11.4-10.1 2.6-2.5 5.5-4.2 9.1-4.5 2.9-.2 4.9-1.8 6.7-4.1 11.2-14.5 22.7-28.8 33.9-43.2 1.3-1.6 2.3-3.9 2.4-6 .4-11.2.8-22.4.5-33.6-.2-6.1-1.7-12.1-2.8-18.1-.6-3.1-2.7-5.2-5.6-6.4-10.9-4.4-22.5-5.5-34-4.5-11.4 1-22.8 3.3-34.1 5.7-5.9 1.2-11.8 3.4-17.2 6s-7.6 7.4-6.1 13.5c1.4 5.8 2.9 11.7 4.4 17.5 1.6 6.2 1.6 12.1-2.1 17.7-.6.9-.8 2.2-.8 3.3-.3 8.6-.7 17.1-.8 25.7 0 2.2.2 4.4.7 6.6 1.7 6.5 3.4 12.9 2.3 19.9-1.2 7.9.8 15.6 6.1 22.8z"/></svg>