<svg enable-background="new 0 0 400 400" viewBox="0 0 400 400" xmlns="http://www.w3.org/2000/svg"><path d="m55.09 66.35c-1.25-1.63-1.98-2.59-3.29-4.29 7.47 0 14.28-.38 21.03.08 15.73 1.05 31.46 2.22 47.13 3.88 14.08 1.49 27.03 6.05 37.19 16.6 6.12 6.36 10.37 13.93 12.13 22.42.89 4.28-.62 9.07-1.13 13.62-.76 6.78-1.52 13.56-2.48 20.32-.23 1.66-.95 3.43-1.96 4.75-2.77 3.65-5.82 7.09-9.02 10.92 5.36 5.5 11.39 9.94 18.16 13.46 10.03 5.22 20.72 5.28 31.46 3.73 7.94-1.14 15.79-3.04 23.63-4.82 1.33-.3 2.72-1.51 3.55-2.68 4.49-6.3 4.79-13.43 3.13-20.59-3.44-14.84-.73-29.08 3.66-43.21.24-.79 1.15-1.55 1.93-1.94 1.38-.68 2.9-1.06 4.32-1.55-.57-4.26.37-6.17 4.36-7.99 6.21-2.83 12.8-2.84 19.42-2.11.76.08 1.73.73 2.1 1.4 5 8.97 10.79 17.64 14.54 27.11 2.81 7.11 2.99 15.27 4.28 22.97.55 3.31 1.15 6.63 1.33 9.97.15 2.66 1.41 3.33 3.77 3.43 10.28.43 20.56 1.1 30.84 1.42 20.51.64 33.59 9.77 40.5 29.14 2.31 6.49 4.46 13.26 5.12 20.05.64 6.56-.64 13.32-1.33 19.97-.12 1.11-1.44 2.18-2.36 3.11-13.66 13.81-28.8 25.86-44.38 37.38-3.42 2.53-6.85 5.05-10.28 7.56-4.8 3.51-10.11 4.42-15.91 3.32-3.72-.7-7.5-1.42-11.25-1.45-4.13-.03-5.02 1.37-5.44 5.5-1.14 11.2-1.02 22.63-6.05 33.13-4.2 8.77-9.26 16.9-17.35 22.66-5.28 3.76-11.25 5.26-17.74 5-1.94-.08-2.71-.8-3.16-2.62-2.16-8.7-2.59-17.48-1.25-26.31 2.3-15.15 1.72-30.35.98-45.56-.38-7.82-1.12-15.66-.92-23.48.18-7.11 1.66-14.18 2.12-21.29.35-5.43.59-10.99-.19-16.34-.89-6.13-4.03-8.05-10.06-6.62-5.74 1.37-11.31 3.45-16.9 5.39-.74.26-1.3 1.43-1.68 2.3-3.75 8.49-3.48 17.44-2.74 26.4.72 8.7 1.58 17.38 2.39 26.07.08.88-.03 1.89.36 2.63 4.17 7.95 1.1 14.93-2.83 21.79-1.61 2.81-3.58 5.42-5.03 8.3-1.53 3.04-3.91 4.63-7.11 4.81-1.21.07-2.84-.55-3.67-1.42-6.24-6.55-9.38-14.57-10.57-23.43-1.33-9.86-2.58-19.73-3.98-29.57-.23-1.59-.77-3.35-1.74-4.57-1.99-2.48-3.93-2.22-5.81.37-1.38 1.9-2.93 3.71-4.1 5.73-3.2 5.55-7.37 9.64-14.01 10.74-1.16.19-2.3 1.29-3.2 2.22-4.05 4.18-8.09 8.38-11.95 12.73-1.67 1.88-3.54 2.81-5.97 3.17-22.11 3.33-44.23 6.63-66.31 10.19-5.49.88-10.95 2.35-16.2 4.17-1.94.67-3.37 3.06-4.82 4.83-1.12 1.38-1.8 3.1-2.85 4.54-2.01 2.74-5.96 2.59-7.46-.44-2.81-5.71-5.38-11.55-7.95-17.37-.38-.86-.33-1.98-.28-2.96.99-23.15 1.58-46.32 3.14-69.43 1.15-17.04-.37-33.99-.31-50.98.06-17.9.06-35.81.73-53.69.29-7.77 1.89-15.54 3.5-23.18.42-2 2.92-3.74 4.77-5.23 3.34-2.69 6.65-4.65 11.59-2.89 2.64.93 6.2-.71 9.86-1.27zm10.23 184.93c2.68.17 4.46.37 6.24.39 10.4.12 20.39-2.34 30.29-5.14 10.97-3.1 22.02-6.28 31.56-12.73 6.23-4.21 11.66-9.57 12.56-17.66.48-4.3.59-8.75.09-13.04-1.89-16.49-13.19-23.97-28.75-21.85-14.92 2.03-29.39 7.34-44.23 11.25-1.35 19.69-.8 39.5-7.76 58.78zm1.24-126.65c.71 12.5 1.94 22.99 6.22 32.94.93 2.16 2.14 3.01 4.32 2.47 6.36-1.59 13.08-2.42 19-5.02 12.86-5.65 23.23-14.98 33.06-24.86.43-.44.77-1.1.87-1.71 1.23-7.29-3.53-16.82-10.35-19.86-5.7-2.54-11.62-4.61-17.51-6.7-1.26-.45-2.91-.42-4.22-.04-8.9 2.59-17.79 5.24-26.61 8.11-1.27.41-2.78 1.98-3.05 3.25-.93 4.34-1.36 8.79-1.73 11.42zm220.27 124.58c2.78-.86 5.2-1.37 7.42-2.33 15.17-6.55 24.84-18.36 32.08-32.83 2.88-5.75 3-10.5-.75-15.6-1.31-1.78-2.45-3.81-3.14-5.91-2.62-7.98-14.67-11.91-21.73-8.34-3.27 1.65-6.96 2.46-10.3 4-1.3.6-2.68 1.95-3.15 3.27-2.75 7.79-3.3 15.94-3.36 24.13-.06 11.09.55 22.11 2.93 33.61zm-47.81-1.92c3.02-.31 5.43-.74 4.43-3.67-.27-.8-1.62-1.24-2.48-1.85-.65 1.84-1.3 3.68-1.95 5.52zm-78.04-141.05c-1.4 1.56-2.49 2.76-3.5 4.02-.05.06.77 1.09.94 1.03 1.29-.49 2.53-1.14 3.85-1.78-.42-1.06-.72-1.83-1.29-3.27z" fill="#010000"/><g fill="#fbfcfa"><path d="m361.2 9.6.8-1c.9.7 1.9 1.4 2.9 2.3l-.9 1.1c-1-1-2-1.8-2.8-2.4zm.5 10.6c.9-2.1 1.6-4.3 2.3-6.7.4.2.8.4 1.3.6-.7 2.1-1.5 4.3-2.2 6.6zm.4-15.2.9-.9c1 .8 2 1.6 2.8 2.4l-1 1c-.9-.9-1.8-1.7-2.7-2.5zm12.5-1.2h1.2v1.4h2.7v1.1h-2.7v2.7h-1.2v-.6h-1.8v1.3h4.9v3.8h-1.2v-.5h-3.7c0 .4-.1.9-.1 1.2h5.1v1h-5.2c0 .5-.1.9-.2 1.2h6v1h-5.2c1.1 1.3 2.9 2 5.5 2.2-.4.4-.7.8-.9 1.3-2.9-.5-4.8-1.6-5.7-3.5h-.1c-.8 1.7-2.7 2.9-5.9 3.6-.2-.4-.6-.8-.9-1.1 2.8-.6 4.6-1.4 5.4-2.5h-4.8v-1h5.3c.1-.3.2-.7.2-1.2h-4.9v-1h5c0-.4 0-.8.1-1.2h-3.5v.5h-1.2v-3.8h4.9v-1.3h-1.8v.5h-1.2v-2.7h-2.7v-1h2.6v-1.4h1.2v1.4h4.7v-1.4zm-6.6 8.3h3.6c0-.4 0-.9 0-1.4h-3.6zm1.9-4.6h4.7v-1.3h-4.7zm6.6 3.2h-3.7v1.4h3.7z"/><path d="m385.3 3.8h1.3v2.2h2.8v-2.2h1.3v2.2h4.1v9.1h1.7v1.3h-16.9v-1.3h1.7v-9.1h4.1v-2.2zm.4 13.1.7 1.2c-1.8.9-3.8 1.9-6 2.9-.2-.4-.5-.8-.8-1.3 2.3-1 4.3-1.9 6.1-2.8zm-3.1-6.4h2.8v-3.2h-2.8zm0 4.6h2.8v-3.3h-2.8zm4-4.6h2.8v-3.2h-2.8zm0 4.6h2.8v-3.3h-2.8zm3.7 1.9c2.1.9 4.1 1.8 6.1 2.7l-.7 1.3c-2.2-1.1-4.2-2-6.1-2.9zm3.2-9.7h-2.8v3.2h2.8zm-2.8 7.8h2.8v-3.3h-2.8z"/></g></svg>