<svg enable-background="new 0 0 400 400" viewBox="0 0 400 400" xmlns="http://www.w3.org/2000/svg"><path d="m48.5 210c6.5 10.1 9.2 20.6 11.8 31.2s5.6 21.2 14.7 28.5c14.2 11.4 29.7 18.9 48.7 17.1 8.4-.8 16.9-.9 25.4-1.2 1.8-.1 2.7-.8 3.3-2.6 5.6-16.3 11.4-32.5 16.9-48.8 1.1-3.1 1.6-6.5 1.9-9.9.9-11 1.8-22 2.3-32.9.3-5.6 0-11.2-.4-16.8-.5-7 .6-13.6 2.4-20.3s2.3-13.7 3.6-20.6c.9-4.8.7-9.4-.3-14.1-.2-1.1.2-2.4.7-3.5 1.7-3.7 3.5-7.4 5.5-10.9 1.2-2.1 1.9-5.1 5.5-4.8 5.4.5 10.1 3.2 10.7 7.4.5 3.2.2 6.5-.1 9.8-.4 4.6-1.2 9.2-1.6 13.9-.2 2 0 4 .4 5.9 1.2 5.4 2.6 10.7 4 16 .2.6.5 1.3.4 1.8-1.3 8.6 1.3 17.1-.5 25.8-2 9.8-2.5 19.9-3.6 29.9-.5 4.6-.4 9.1-1.9 13.7-2 6.1-.4 12.4 1.3 18.4 2.9 10.2 6 20.3 9.1 30.4.2.8.6 1.7 1.2 2.2 8.9 7.9 18.8 12.1 30.8 7.9 17.2-6 34.4-11.9 51.5-17.9 1.6-.6 3.1-1.8 4.2-3.2 2.2-2.7 4.7-4.2 8.3-4.3 1.3-.1 2.9-1.1 3.8-2.1 2.7-2.9 5.2-6.1 7.8-9.2 5.3-6.3 6.7-14 8.1-21.7.2-1.2.4-2.6 1.1-3.6 2.7-3.8 3.1-7.9 3-12.3 0-3 1-6 1.4-9s.5-6.1 1-9.1c.7-4 1.4-8.1 2.5-12 .3-1.1 2.2-2.1 3.6-2.3 4.8-.8 9.7-1.2 14.5-1.9 2-.3 3.4.3 5.1 1.5 5.8 4 6.9 9.4 5.3 15.6-1.7 6.4-3.3 12.9-5.8 19-8.1 20.5-19.8 39.2-30.6 58.3-.6 1-1.6 1.9-2.6 2.6-9.5 5.7-19.1 11.4-28.7 17-.8.5-1.8 1.1-2.6 1-3.5-.6-5.7 1.6-8.1 3.4-1.7 1.2-3.5 2.4-5.5 3-14.2 4.5-28.4 9-42.7 13.2-4 1.2-8.3 1.3-12.6 1.6-3.5.3-6.9.2-10.1 2.2-.8.5-2 .5-3.1.6-10.9.7-21.7 1.7-32.6 2-7.1.2-14.2-.6-21.2-1-7.9-.5-15.8-1.2-23.8-1.6-5.2-.2-10-1.6-14.5-4.1-4.6-2.5-9.2-4.7-14.7-4.2-.7.1-1.6-.4-2.1-1-3.8-4.3-8.7-6.6-13.9-8.5-3-1.1-5.9-2.4-9-3-9.8-2.1-17.1-7.9-22.7-15.7-6.6-9.2-12.5-18.8-18.5-28.4-4.7-7.6-6.2-15.8-3.7-24.6.7-2.4.7-4.5 4-5 1.4-.2 2.6-1.9 4-3 2.5-1.8 5-3.7 7.7-5.8z"/><path d="m257.4 84.2c3.6 4 5.5 8.6 5.1 14.2-.1 1.7.1 3.4.3 5 .5 3.8 2.2 6.5 5.9 8.3 5.7 2.8 11.1 6.1 16.6 9.3 5.5 3.1 8.4 8.1 8.9 14.2.4 5.9.2 11.8-.1 17.7-.1 1.2-1.5 2.6-2.6 3.6-8.9 7.2-15 15.9-16.4 27.6-.2 2.1.2 3.4 2.2 4.2 7.2 2.6 11.4 7.9 13.4 15.1.5 1.9 1.6 3.7 2.3 5.6 1.8 4.8 3.4 9.7 10.1 9.7-.3 1.4-.4 2.3-.7 3.1-1.5 5.1-2.9 10.1-4.4 15.2-2.3 7.8-6.7 11.5-14.8 12.2-2.9.3-5.6 0-8.4-1.7-2.1-1.3-5.2-1.3-7.9-1.2-6.2.3-12.4.8-18.6 1.8-5.7.9-11.3 2.5-16.9 3.9-2.5.6-4.9 1.2-7.4 1.8-3.3.8-6.3.1-8.5-2.2-3.9-3.8-7.1-8.1-6.2-14.2.7-4.7 1.1-9.5 1.5-14.2.2-2.4 1.1-4.3 2.8-6.1 4.7-5.1 7-11.5 9.1-18 1-3.2 2.6-5.9 5.1-8.2 3.7-3.4 7.1-7 11-10.9-3.7-1.3-7-2.5-10.4-3.6-6.4-2.2-12-5.6-16.2-11.1-2.9-3.8-3.4-8-1.5-12.2 1.1-2.6 2.5-5.1 4.1-7.5 6.4-9.4 13.2-18.4 19.1-28.1 3.2-5.1 4.7-11.2 7.3-16.7.7-1.6 2.3-2.8 3.4-4.2 1.5-1.9 3.3-3.8 4.4-5.9 2.2-4.8 2.9-5.6 8.4-6.5zm-21 65.1c1.2 1.7 1.9 4 3.4 4.8 4.1 2.1 8.5 3.8 12.8 5.2 2.9 1 5.8.1 8.4-1.6 7.8-5.2 9.6-10.1 8.8-20.4-.3-4.5-9.9-8.4-13.3-5.5-6.7 5.6-13.2 11.5-20.1 17.5zm31.5 61.9c-.8-1.3-1.6-2.6-2.4-3.8-3.6-5.7-6-6.3-10.9-1.8-2.4 2.2-4 5.3-5.4 8.3-.7 1.5-.9 4.2 1.9 4.3 6.4.1 12.3-1.3 16.8-7z"/><path d="m135.6 193.5c6.3 7.1 12.5 14.2 18.7 21 1.4 1.5 1.7 2.8 1.2 4.8-1.2 4-2 8.2-3.3 12.2-1.8 5.4-5.5 9.5-10 12.7-5.1 3.7-10.3 7.4-16 10.1-4.8 2.3-10.3 4.2-15.6 4.6-11.1.9-22.2.7-33.3.7-1.2 0-2.6-1.1-3.6-2-1.2-1.2-2-2.7-3-4-1.2-1.5-1.8-2.6-.7-4.7.7-1.4 0-3.9-.8-5.6-1.9-3.9-1.7-8.2 1-11.5 1.7-2.1 3.5-4 5-6.2 4-5.6 8.8-10.1 15.3-12.7 3.5-1.4 5.8-4.1 5.9-8.5-4.4-1.1-8.8-2.4-13.2-3.2-3.6-.7-5.9-2.7-7.5-5.7-3.1-5.7-4.9-11.7-4.9-18.2 0-1.9.9-4.2 2.1-5.6 4.6-5.4 9.4-10.6 14.2-15.9 1.2-1.3 2.6-2.6 4.1-3.5 4.2-2.6 8.1-5.4 9.9-10.2.2-.5.5-1.1.9-1.2 5.8-1.8 6.9-7.6 10.1-11.7 1.5-1.9 3.3-4 5.4-5.2 7.5-4.2 16.8.1 19 8.7.9 3.7 1.1 7.5 1.9 11.2.2 1.1 1.3 2.4 2.2 2.8 3.2 1.1 6.5 1.7 9.8 2.5 3.9.9 7.6 5.2 7.7 9.1 0 .9-.6 2-1.1 2.8-7.1 10.8-14.1 21.5-21.4 32.4zm-34.2-5.3c14-.1 21.6-4 30.7-15.8 4.1-5.3 1.1-15.3-5.4-17.2-5.2-1.6-9.8.5-13.6 3.5-7.4 5.9-14.4 12.4-21.4 18.8-1.7 1.5-2 4.1-.3 5.7 2.9 2.6 5.7 5.9 10 5zm-9 43.2c1.2 1 2 2 2.9 2.3 10.5 4 20.5 3.7 30.1-2.8 5.8-4 6.1-4 3.6-10.5-.7-1.9-1.1-4-2.4-5.5-1.7-1.9-4.1-3.4-6.3-4.8-.6-.4-2.1 0-2.8.5-8.2 6.8-16.4 13.6-25.1 20.8z"/></svg>