<svg enable-background="new 0 0 400 400" viewBox="0 0 400 400" xmlns="http://www.w3.org/2000/svg"><path d="m306.7 106.5c-.2 5.9-.2 5.9-5 7-5 1.2-10.1 2.5-15.2 3.4-2.4.4-5-.1-7.5-.1-1.1 0-2.6-.1-3.2.5-2.9 2.7-6.4 2.6-9.8 2.3-7.3-.6-14.4.3-21.6 1.8-8 1.6-16.3 1.7-24.5 2.6-3 .4-6 1.1-8.9 2.2-6.1 2.3-10.7 5.8-9.7 13.4.4 3-.1 6.1-.4 9.2-.2 2 .3 2.9 2.4 3.5 11.5 3.5 23.3 4.2 35.2 3.2 6.3-.5 12.6-1.3 18.9-2.2 3-.4 6-1.2 8.7-2.5 4.5-2.2 9.3-1.4 14-1.9 8.6-.8 17.2-1.6 25.8-2.5.9-.1 1.9-.4 2.7-.9 4.9-3.8 9.7-7.5 14.4-11.5.7-.6 1-2 .9-3.1-.4-5.1-.9-10.1-1.4-15.2-.6-6.2 1.1-9.5 7.2-11.5 3.1-1.1 6.6-1.5 9.9-1.5 5.5-.1 9.4 2.8 13.1 7 3.2 3.6 3.8 7.3 2.5 10.9-1.6 4.3-4.1 8.8-7.3 12-5.7 5.5-12.2 10.1-18.4 15.1-.9.7-2.1 1.6-2.2 2.5-.6 3.4-3.1 4.5-5.6 6.1-3.9 2.5-7.4 5.6-10.9 8.7-2.5 2.2-5.2 3.5-8.4 4-8.4 1.5-16.8 3.3-25.2 4.9-1.4.3-2.9.3-4.4.3-8.9 0-17.8.4-26.7-.1-10.2-.6-20 1.4-29.8 3.4-2.2.5-4.4 1.5-6.4 2.6-3.4 1.9-4.5 5.9-2.8 9.4.4.8 1.5 1.4 2.4 1.7 8.4 2.5 17.1 2.7 25.8 1.7 7.6-.8 15.2-1.9 22.7-2 4.9-.1 9.8 1.4 14.7 2.2 6.3 1.1 12.6 1.9 18.7 3.5 4.4 1.2 8.8 3 12.7 5.4 6 3.7 12.3 5.7 19.3 6.4 1.8.2 3.7 1.5 5.2 2.7 7.2 5.7 12.4 12.8 13.3 22.2.6 6.2-.8 11.9-5.2 16.7-3.7 4-7 8.3-10.6 12.3-1.6 1.8-3.5 3.4-5.5 4.7-2.6 1.7-5.3 3-5.6 6.7 0 .6-1.2 1.4-1.9 1.7-6.1 2-12 4.4-17.3 8.4-2 1.5-5.7.8-8.5 1.4-3.9.8-6.6-.6-8.7-3.9-1.7-2.5-4-4.6-5.9-7.1-1.1-1.4-2-3-2.7-4.6-2.3-5.8-1.8-6.8 4-8.6 8.1-2.5 16.2-5 24.2-7.5.9-.3 2.1-.3 2.6-1 3.6-4.5 8.7-6.8 13.5-9.7 3-1.8 3.6-5.1 3.3-8.4-.1-.8-.8-1.7-1.4-2.2-3.7-2.5-7.4-4.6-12.1-5-4-.4-8-1.9-11.8-3.3-6.2-2.3-12.2-5.5-18.5-7.2-4.9-1.3-10.3-1.3-15.4-1.5-9.1-.3-18.2-.3-27.3-.3-2.6 0-5.3.2-7.9.6-8.8 1.4-12.3 8-15.2 15.3-.4 1-.2 2.6.3 3.7 2.5 4.8 2.8 9.9 2.6 15.1-.9 22.1 2.6 43.8 6.1 65.6 1.1 6.9.5 14.3-.5 21.3-.7 5-1.7 9.7-.4 14.6.2.9.2 2.2-.3 2.9-2.1 2.9-4.4 5.7-6.7 8.4-2.7 3.2-6.3 4-10.4 3.2-4.8-.9-9.7-1.7-12.1-6.8-.8-1.6-1.6-3.5-1.6-5.2 0-8.3.3-16.5.5-24.8 0-.9 0-2.1.5-2.7 2.3-3 1.8-6 .3-9.1-.6-1.4-.8-3.1-.8-4.6.2-16.5.6-33 .8-49.5.1-8.9 0-17.8-.1-26.6 0-1.7-.7-3.5-1.4-5.1-2.4-5.2-5.1-6.4-10.7-5.3-25.3 4.9-49.1 14.1-71.6 26.6-3.8 2.1-7.7 3.9-11.5 6-4.4 2.5-8.9 4.2-14 4.7-1.2.1-2.6 1-3.4 1.9-4.7 5.9-12.1 7.6-18.9 4.2-1.4-.7-2.8-1.5-4.2-2.3-3.6-2-4.5-4.7-2.6-8.5 3.1-6.2 7.1-11.8 12.4-16.2.8-.7 2-1.3 3.1-1.4 3.7-.5 6.7-2.2 9.6-4.4 2.1-1.6 4.5-2.7 6.9-3.8 5.2-2.4 10.6-4.4 15.6-7 7.1-3.7 7.5-14.8 1.3-19.9-4.1-3.4-8-4.7-13.2-3.1-10.6 3.2-21.6 1.8-32.5 1.9-4 .1-9.3-4.3-10.6-8.1-.9-2.6.8-8.6 3.2-10 3.6-1.9 7.4-3.7 11.3-4.7 10.7-2.7 21.5-5.3 32.4-7.5 11.4-2.3 22.9-3.8 34.3-6 8.8-1.7 17.7-3.3 26.3-5.7 6.8-1.9 13.6-1.7 20.4-2.1 3.2-.2 6.6-1.3 9.6-2.6 2.3-1 3.4-3.2 3.2-6-.2-5.1.1-10.2-.2-15.2-.1-1.4-1-3.1-2.2-4-2.9-2.3-6.3-3.4-10.1-3.1-1.6.2-3.2.3-4.7.3-6.2.3-12.3-.6-18.2 3.1-2.5 1.6-6.8.6-10.3.7-3.5 0-7-.2-10.5-.2-1.1 0-2.2.4-3.3.9-14.8 5.9-29.3 12.8-45.1 15.4-5.5.9-11.2.7-16.7.3-5.9-.5-10.5-5.6-11.3-11.6-.4-3 .4-5.5 2.1-8.3 8.3-13.1 6.6-10 20.1-12.2 15.8-2.6 31.5-5.4 47.4-7.1 14.6-1.6 29.3-1.9 44-2.8 22.8-1.4 45.6-2.4 68.4-4.2 19.6-1.6 39.1-.8 58.6.8 5.9.5 11.7 1.2 17.5 1.8zm-179.6 106.5c7.9-1.2 15.9-2.1 23.8-3.6 10.4-2 20.6-4.7 29.7-10.5 2.7-1.7 3.7-3.8 3.3-6.9-.5-3.2-1.9-5.7-5.2-6.5-2.1-.5-4.4-.7-6.6-.8-7.3-.2-14.6-.2-21.9-.3-1.2 0-2.4-.2-3.5.1-10 2.5-19.1 6.5-26.9 13.6-2 1.8-2.6 3.4-2.2 6 1.2 8.3 1.1 8.4 9.5 8.9z"/><path d="m293.7 73.1c-4.8 0-9.6.4-14.3-.1-7.9-.8-14.3 2.2-20 7.2-4.1 3.6-8.5 4.2-13.2 2-1.9-.9-3.6-2.8-4.9-4.6-1.5-2-3-2.9-5.5-2.8-5.8.3-11.6.4-17.4.5-9.2 0-13.7-6.8-10.1-15.2.3-.7 1.1-1.4 1.8-1.5 4.8-1.3 9.5-2.8 14.4-3.5 5.5-.8 11.2-.8 16.8-1.3 4.5-.4 8.3-2.3 11.6-5.3 2.7-2.4 5.5-4.6 8.5-6.6.8-.5 2.3-.4 3.3-.1 1.6.6 3.1 1.4 4.4 2.4 10.8 7.6 23.1 9.3 35.9 9.3 4.4 0 8.9.1 13.3.7 5.8.9 8.5 5.5 7.1 11.2-.1.5-.2 1.2-.5 1.4-4 2.4-6.9 6.5-12.4 6.3-6.3-.2-12.5 0-18.8 0z"/><path d="m92.9 34.8c4.2 1.5 6.2 4.4 8 7.7 2 3.6 3.6 7.5 6.1 10.7 3 4 7.3 6.3 12.6 6.1 8.3-.2 16.7-.5 25-.3 3.6.1 7.3 1 10.7 2.2 1.7.6 3.3 2.2 4.5 3.8 3.1 4 2.4 5.8-.8 9.6-5.1 5.8-11.2 7.8-18.8 7.1-4.8-.4-9.7.1-14.6.4-1.1.1-2.3.5-3.2 1.1-2.5 1.7-4.9 3.8-7.5 5.4-2 1.2-4.3 2.1-6.6 2.8-3.3.9-6.3.4-8.4-2.7-3.9-6.2-9.8-7.4-16.6-7.1-5.5.2-11 0-16.4-.7-4.9-.6-7.7-3.7-7.5-7.5 0-.8.7-2 1.4-2.4 6.5-3.4 12.9-7.2 20.4-8.4 4.7-.8 8.8-5.6 9.4-10.3.9-5.8 1.6-11.3 2.3-17.5z"/><path d="m135.6 285.1c-1.2 5.7-1.6 12.2-5.7 17.6-2.9 3.9-5.5 8-8.1 12.1-4.1 6.6-10.5 9.9-17.4 12.5s-6.5 2.1-11.8-3c-6.6-6.5-5-13.6-3.1-20.9 2.2-8.4 8.8-13 16-16.5 7.4-3.6 15.1-6.6 22.7-9.6 1-.4 2.5-.1 3.4.4 2.7 1.5 3.9 3.9 4 7.4z"/></svg>