<svg enable-background="new 0 0 400 400" viewBox="0 0 400 400" xmlns="http://www.w3.org/2000/svg"><path d="m346.5 176.3c-7.6.8-15.4 1.1-22.9 2.5-5.3.9-9.9-1.6-14.8-1.9-9.5-.6-19.2-1.9-28.4-.6-9.2 1.4-18.1.9-27.2.4-20.1-1-39.9 2.1-59.7 4.5-14.6 1.8-29.3 2.2-43.9 3.7-8.7.9-17.5 2.3-25.8 4.8-6.9 2-11.3-.2-15.2-5.1-.1-.2-.2-.4-.3-.6 3.5-5.1 7.6-8.4 14.5-8.9 15.4-1.2 30.7-3.5 46-5.4 1.3-.2 2.5-.4 3.7-.7 7.6-1.7 11.3-5.8 10-13.5-.6-3.7-3.6-7.8-6.7-10.2-3.5-2.7-4.6-3.9-2-7.6-2.7-5.5-6.4-9.2-13.2-8.4-1.3.2-2.8-.1-4.1-.3-6.6-1.2-12.3-.7-17.3 4.9-3.5 3.9-8.8 4.3-13.9 2.7-.8-.3-1.7-1.4-1.9-2.3-1-4.1 0-7.1 3.9-9.8 8.7-5.9 18.1-8.8 28.4-10 22.3-2.6 44.5-5.6 66.7-8.3 2.3-.3 4.9 0 7.1.5 9 2.3 17.9 1.4 26.8-.1 12.5-2.2 25.1-1.8 37.6-.8 13.6 1.1 27.1 2.9 40.7 4.4 4.9.5 9.9.8 14.8 1.5 1.1.2 2.7 1.4 2.9 2.4.4 1.9.5 3.7-1.9 5.3-6.4 4.1-13.4 3.2-20.3 3.6-10.5.6-20.9 1.2-31.4 1-7.5-.1-14.9-1.4-22.4-2.5-2.4-.3-4.1.1-5.4 2.2-2.4 3.8-4.9 7.4-7 11.3-.7 1.3-.7 3.3-.3 4.8 1.2 4.4.8 8.5-.9 12.7-.2.5-.4 1-.5 1.5-.8 3.8-.2 5.1 3.5 6.5 9.6 3.7 19.7 4.3 29.9 4.8 14.3.8 28.7 1.9 43 3 1.5.1 3.1.6 4.6 1.2 2.7 1.5 4.1 3.5 3.3 6.8zm-88.8-19.4c-7.5-8.5-9.5-17.5-4.1-27.9-3.2-2.3-6.2-4.8-9.6-6.8-1.5-.9-3.9-1.1-5.6-.6-4.1 1.2-8 1.4-12.4.7-8.5-1.4-16.4 1-24.4 4.8 3 6.2 5.1 12.3 3.3 19.1-.3 1.1 0 2.6.5 3.7 1.4 3.2 3.2 6.2 4.6 9.3 1 2.3 2.7 3.5 5.1 3.4 8-.1 16 .1 24-.4 6.3-.2 12.3-1.8 18.6-5.3z"/><path d="m31.7 303.6c.3-2 .4-5.3 1.5-8.4.7-1.9 2.8-3.3 4.2-5 2.9-3.5 6.5-4.3 10.9-4.3 10.5-.1 21.3.8 31.2-3.8 8.7-4.1 17.2-8.6 25.8-12.9.8-.4 1.6-1.4 2.5-1.4 4.7 0 7.3-3.4 10.4-6.1 4.2-3.7 8.3-7.5 12.6-11.1 2.8-2.4 5.1-4.9 6.3-8.5.4-1.1 1.4-2.1 2.3-2.9 4.8-4.5 9.7-8.8 12.1-15.2.5-1.3 1.7-2.4 2.7-3.4 4.9-4.6 10.2-8.8 13.2-15.2.6-1.3 3.7-2.4 5.3-2.1 2.6.5 5.2 2.7 4.7 5.6-1.3 6.3-1.5 13.5-8.8 16.7-1.9.8-2.5 2.1-2.8 4.1-.3 2.2-.9 4.6-2 6.5-6.5 11.8-13 23.5-19.7 35.1-.9 1.5-2.4 3.1-4 3.6-7.3 2.5-13.3 6.7-18 12.9-2.8 3.8-6.6 6.4-11.1 8-3.8 1.3-7.4 3.1-11 4.8-3.4 1.6-6.8 2.8-10.6 2.5-1.1-.1-2.3.4-3.3.9-2.8 1.3-5.6 2.6-8.2 4.2-4.3 2.7-8.7 4-13.8 2.5-.8-.2-2.2 0-2.8.6-3.7 3.8-8.4 4.3-13.2 3.9-2.9-.2-5.9-.7-8.8-1.2-5.9-1.1-7.6-3.3-7.6-10.4z"/><path d="m254.9 331c-9 .9-19.2 2-29.4 2.9-3 .3-6.2.3-9.1-.3-4.2-.9-8.1-.7-12.1.7-1.5.5-3.2.1-4.9.1s-3.4-.2-4.9.1c-4.9 1-9.7 2.2-14.5 3.2-1.6.3-3.4.5-5 .3-6-.6-8.9-4.2-7.9-10.2.1-.8 1.2-1.6 2-2 6.3-3.4 13.3-4.7 20.4-5.5 3.9-.5 7.7-1.1 11.6-1.7 2.6-.4 5.1-1.3 7.7.2.9.5 2.4.5 3.4.1 9.1-3 18.4-1.8 27.7-2.5 9.7-.7 19.3-2.3 29-3 6.3-.5 12.6-.3 18.9-.1 17 .5 34 1.4 51 1.7 4.8.1 9.6-.9 14.5-1.4 1.8-.2 3.6-.5 5.4-.3 3 .4 4.9 4.5 2.9 6.5-6.2 6-12.4 12.1-19.1 17.5-6.5 5.4-14.4 4.5-22.1 3.1-3.9-.7-8-1-11.9-1.8-2.4-.5-4.7-1.6-7-2.4-2.5-.9-4.9-2.3-7.4-2.5-12.9-1-25.5-1.7-39.2-2.7z"/><path d="m165.7 73.9c.3-1.4.5-2.8.8-4.1.2-.8.3-2 .8-2.2 3.6-1.8 7.3-4.4 11.1-4.9 13.5-1.7 27.1-3 40.7-3.8 8.7-.5 17.5.2 26.3.4 10.3.3 20.5.5 30.8 1 4.3.2 7.6 2.5 9.7 6.2 1 1.8.9 3.1-1.2 4.4-10.8 6.7-22.8 8.6-35.3 8.6-.7 0-1.5-.2-2.1-.6-2.6-2.1-5.3-1.8-8.4-1.3-7.4 1.3-14.8 2.4-22.2 3.2-8.7.9-17.5 1.3-26.2 2.2-2.6.3-5.1 1.4-7.6 2.2-1.8.5-3.6 1.4-5.4 1.7-3 .5-5.5-.2-7.1-3.3-1.7-3.2-3.7-6.2-5.6-9.2.4-.3.7-.4.9-.5z"/><path d="m179.2 275.2c-1-4-.2-5.9 4.2-7.9 8.6-3.9 17.8-4.1 27-4.5 9.8-.4 19.6-1.6 29.4-2 6.1-.2 12.2.3 18.4.6 7.8.5 15.6 1.4 23.4 1.5 4.9.1 9.8-.8 14.8-1.3 6.7-.8 13 1 19.3 2.8 2.3.6 3.7 2.9 3.2 5.2-.3 1.4-1.8 2.9-3.2 3.7-4.3 2.3-9 2.4-13.6 1.6-9.9-1.6-19.7-1.5-29.6-.1-3.4.5-7 .2-10.4-.4-9.5-1.7-19-.5-28.4.4-11.7 1-23.4 2-35.1 3.1-3.7.3-7.3 1-11 1.4-.8.1-1.7 0-2.3-.4-2-1-3.7-2.2-6.1-3.7z"/><path d="m199.3 233.3c-1.5-2-2.8-3.8-4.2-5.5-2.7-3.5-2-6.2 2.1-7.4 10.3-3.1 20.9-4.5 31.6-3.7 11.6.9 22.9-1.7 34.4-2.4 8.5-.5 17.1-.3 25.6-.4 5.4-.1 10.7.7 15.8 2.6 2 .8 4.6.3 6.9.3 1.9 0 3.3.3 3.9 2.4.6 2 0 3.4-1.6 4.6-5.5 4.1-11.9 5.3-18.6 5.1-3.5-.1-7-.4-10.4-1.3-7.9-2-15.5-.2-23.2.9-20.6 3.2-41.5 5.3-62.3 4.8z"/></svg>