<svg enable-background="new 0 0 400 400" viewBox="0 0 400 400" xmlns="http://www.w3.org/2000/svg"><g fill="#010000"><path d="m205.86 159.68c-.13 2.05-.28 3.69-.33 5.34-.54 16.67-.59 33.37-1.76 49.99-.79 11.22-3.51 22.28-4.75 33.49-1.67 15.17-9.47 28.05-14.77 41.87-.4 1.04-.95 2.03-1.31 3.08-5.49 15.99-14.51 29.54-26.07 41.99-8.45 9.1-14.71 20.23-21.94 30.47-1.29 1.83-2.71 3.59-3.8 5.53-1.52 2.71-3.39 4.04-7.07 2.17 1.05-8.87-3.05-18.35 2.52-27.34 2.28-3.68 3.6-7.94 5.62-11.79 2.07-3.93 4.63-7.59 6.69-11.52 2.12-4.03 4.01-8.19 5.78-12.38 2-4.72 3.15-9.91 5.76-14.24 5.75-9.56 8.57-20.04 11.65-30.57 2.56-8.75 6.31-17.16 9.41-25.76.78-2.17 1.14-4.5 1.56-6.78.94-5.14 1.94-10.28 2.65-15.46 1.67-12.17 3.14-24.37 4.76-36.55 2.85-21.45.1-42.91.15-64.37.01-7.27-.02-14.58.76-21.79.27-2.48 2.61-5.06 4.59-6.98 6.3-6.09 14.6-7.36 22.79-8.7 11.37-1.85 22.76-3.57 34.1-5.52 1.3-.22 2.81-1.33 3.52-2.47 5.11-8.11 5.34-17.37 5.91-26.52.31-5.02 1.47-9.8 4.76-13.7 2.71-3.21 5.58-6.72 10.51-5.95 6.13.96 10.73 4.23 12.28 10.42 1.28 5.08 2.12 10.31 2.6 15.53.48 5.21.38 10.49.36 15.73-.02 4.3 1.34 6 5.62 5.81 14.42-.62 28.82-1.73 43.24-1.89 6.83-.08 13.7 1.43 20.5 2.59 1.37.23 2.91 1.91 3.59 3.31 1.83 3.81 3.24 7.82 4.92 12-4.72 3.44-10 5.38-15.52 6.79-11.3 2.87-22.87 2.43-34.38 2.79-3.23.1-6.45.33-10.19.54.45 2.58.38 5.16 1.36 7.24 2.59 5.51 2.22 11.03 1.14 16.73-.83 4.39-.6 8.68 2 12.59 1.28 1.93 2.81 2.87 5.26 2.8 10.85-.33 21.7-.58 32.55-.68 5.97-.06 11.53 1.36 16.04 5.65 1.35 1.28 1.67 2.47 1.21 4.42-.49 2.05-.25 4.39.16 6.51.38 1.97.01 2.95-1.8 3.98-8.44 4.83-17.77 5.77-27.16 6.53-7.58.61-15.16 1.37-22.75 1.7-3.7.16-5.34 2.09-5.78 5.22-.45 3.2-.54 6.47-.39 9.69.04.8 1.51 2.01 2.5 2.22 7.11 1.5 14.25 2.89 21.41 4.09 2.63.44 4.22 1.68 5.8 3.82 3.9 5.28 8.23 10.24 12.36 15.36.97 1.21 2.11 2.38 2.72 3.77 6.68 15.34 9.32 31.35 5.85 47.79-1.38 6.56-4.51 12.85-7.49 18.94-5.2 10.63-10.86 21.04-16.46 31.47-.92 1.7-2.35 3.28-3.9 4.47-11.47 8.77-22.59 17.82-32.48 28.51-8.02 8.67-19.11 12.27-30.83 13.01-7.14.45-14.33.11-21.49.26-2.2.05-3.52-.71-4.4-2.74-.7-1.63-1.61-3.22-2.67-4.65-7.6-10.22-10.64-21.8-11.24-34.39-.44-9.37-1.94-18.69-2.78-28.05-.29-3.21.04-6.47-.02-9.71-.24-13.42-.54-26.84-.76-40.26-.03-1.76.05-3.59.49-5.28 2.12-8.22 4.66-16.35 6.49-24.63 1.07-4.85 4.32-7.28 8.34-7.22 6.07.09 10.39-2.91 14.91-5.98 3.12-2.13 6.07-4.09 10.31-4.01 4.5.09 7.51-3.46 8.01-8.01.15-1.33.13-2.68.08-4.02-.29-7.8-5.49-12.09-13.31-10.88-8.39 1.31-16.77 3.49-25.28 1.57-5.97-1.35-11.81-3.32-17.69-5.07-1.55-.5-3.06-1.18-5.02-1.92zm2.31-9.22c3.84-2.08 7.12-3.92 10.46-5.64 1.16-.6 2.46-1.17 3.74-1.28 14.14-1.27 28.29-2.45 42.44-3.66 3.66-.31 7.06-3.32 7.81-6.97 2-9.74 3.99-19.49 5.95-29.24.96-4.77-.23-6.02-5.27-6.33-15.85-.95-31.69-2.05-47.54-2.98-6.6-.39-12.88 1.13-18.65 4.32-.95.53-1.85 2.23-1.79 3.34.83 15.88 1.84 31.73 2.85 48.44zm42.29 90.27c6.38-1.1 12.4-2.25 18.46-3.16 7.16-1.08 14.33-2.56 21.53-2.75 7.11-.19 14.26.97 21.38 1.58 3 .26 5.99.83 8.99.94 3.94.14 5.37-1.65 4.76-5.48-1.68-10.57-9.48-16.83-22.14-17.46-16.07-.79-32.14-1.44-48.22-2-1.06-.04-2.89 1.02-3.15 1.92-2.5 8.56-2.78 17.3-1.61 26.41zm46.93 21.86c-8.43.56-16.46.95-24.47 1.67-7.46.67-14.89 1.62-22.31 2.59-1.17.15-3.07.96-3.23 1.74-1.01 5.14-2.15 10.43.44 15.42.54 1.04 2.38 2.1 3.55 2.03 19.3-1.22 38.59-2.86 57.97-1.78 1.13.06 2.88-.9 3.41-1.89 1.88-3.53 3.45-7.22 4.94-10.94 1.84-4.56 1.47-5.75-3.39-6.74-5.66-1.14-11.48-1.46-16.91-2.1zm2.88 47.34c-3.86-.78-7.57-2.11-11.29-2.16-11.85-.16-23.68.03-35.35-2.67-3.24-.75-5.24 1.34-5.29 4.64-.05 2.91-.22 5.84.05 8.72.35 3.64 1.37 7.41 5.23 8.63 3.89 1.23 8.05 2.01 12.13 2.17 10.35.41 19.22-4.11 28.04-8.9 4.29-2.33 5.51-6.02 6.48-10.43z"/><path d="m144.94 152.04c-2.3 1.59-2.29 3.1-.61 5 1.17 1.32 2.01 2.95 2.85 4.52 1.57 2.93 1.39 5.77-.64 8.49-3.57 4.78-4.21 10.12-3.33 15.92 3.03 20.09 4.7 40.27 1.49 60.47-1.06 6.67-3.03 13.33-5.58 19.59-3.55 8.72-5.64 18.44-12.86 25.15-6.36 5.91-13.28 11.24-20.15 16.57-8.3 6.43-16.91 12.45-25.19 18.9-5.45 4.24-11.33 6.99-18.26 7.67-2.13.21-3.48-.39-3.72-2.24-.45-3.58-.83-7.24-.61-10.83.32-5.18 2.61-9.25 6.92-12.69 11.81-9.41 23.56-18.95 34.72-29.11 10.23-9.31 17.86-20.65 21.06-34.4 2.78-11.97 1.6-24.03.03-36.04-.29-2.22-.69-4.42-1.09-6.62-.51-2.78-2.54-3.91-4.76-2.27-7.37 5.43-15.1 10.53-21.76 16.75-10.46 9.77-20.18 20.36-32.55 27.87-5.16 3.13-10.36 6.23-15.74 8.93-2.05 1.02-4.74 1.41-7.03 1.15-4.63-.52-5.97-2.4-4.49-6.87 1.71-5.17 4.18-10.09 6.43-15.07.33-.74 1.21-1.3 1.93-1.79 29.41-19.87 54.93-44.04 78.29-70.64 3.97-4.52 8.66-8.4 13.18-12.4.71-.63 2.45-.75 3.38-.34 2.74 1.22 5.32 2.81 8.09 4.33z"/><path d="m104.86 97.79c-2.07-2.82-.66-5.43.73-7.47 2.77-4.04 4.04-8.4 4.38-13.17.11-1.55.41-3.11.8-4.62 1.1-4.25 2.91-7.65 8.19-7.64 2.43 0 4.87-.63 7.27-1.16 3.64-.79 7.12-1.43 10.56.94 3.98 2.74 7.23 5.97 8.86 10.6 1.75 4.95 2.4 10.04 1.2 15.17-2.06 8.86-3.69 17.76-10.72 24.72-6.58 6.52-11.76 14.47-18.5 20.79-8.03 7.53-16.91 14.19-25.73 20.83-5.68 4.27-11.98 7.7-17.86 11.73-7.09 4.87-14.4 8.93-23.28 9.39-7.88.41-12.41-4.72-10.53-12.46.27-1.11 1.49-2.13 2.49-2.91 11.83-9.21 23.51-18.62 35.63-27.43 5.7-4.14 9.41-9.36 12.15-15.57.68-1.53 1.37-3.06 2.05-4.59 3.86-8.56 5.37-10.68 12.31-17.15z"/></g><path d="m361.2 9.6.8-1c.9.7 1.9 1.4 2.9 2.3l-.9 1.1c-1-1-2-1.8-2.8-2.4zm.5 10.6c.9-2.1 1.6-4.3 2.3-6.7.4.2.8.4 1.3.6-.7 2.1-1.5 4.3-2.2 6.6zm.4-15.2.9-.9c1 .8 2 1.6 2.8 2.4l-1 1c-.9-.9-1.8-1.7-2.7-2.5zm12.5-1.2h1.2v1.4h2.7v1.1h-2.7v2.7h-1.2v-.6h-1.8v1.3h4.9v3.8h-1.2v-.5h-3.7c0 .4-.1.9-.1 1.2h5.1v1h-5.2c0 .5-.1.9-.2 1.2h6v1h-5.2c1.1 1.3 2.9 2 5.5 2.2-.4.4-.7.8-.9 1.3-2.9-.5-4.8-1.6-5.7-3.5h-.1c-.8 1.7-2.7 2.9-5.9 3.6-.2-.4-.6-.8-.9-1.1 2.8-.6 4.6-1.4 5.4-2.5h-4.8v-1h5.3c.1-.3.2-.7.2-1.2h-4.9v-1h5c0-.4 0-.8.1-1.2h-3.5v.5h-1.2v-3.8h4.9v-1.3h-1.8v.5h-1.2v-2.7h-2.7v-1h2.6v-1.4h1.2v1.4h4.7v-1.4zm-6.6 8.3h3.6c0-.4 0-.9 0-1.4h-3.6zm1.9-4.6h4.7v-1.3h-4.7zm6.6 3.2h-3.7v1.4h3.7z" fill="#fbfcfa"/><path d="m385.3 3.8h1.3v2.2h2.8v-2.2h1.3v2.2h4.1v9.1h1.7v1.3h-16.9v-1.3h1.7v-9.1h4.1v-2.2zm.4 13.1.7 1.2c-1.8.9-3.8 1.9-6 2.9-.2-.4-.5-.8-.8-1.3 2.3-1 4.3-1.9 6.1-2.8zm-3.1-6.4h2.8v-3.2h-2.8zm0 4.6h2.8v-3.3h-2.8zm4-4.6h2.8v-3.2h-2.8zm0 4.6h2.8v-3.3h-2.8zm3.7 1.9c2.1.9 4.1 1.8 6.1 2.7l-.7 1.3c-2.2-1.1-4.2-2-6.1-2.9zm3.2-9.7h-2.8v3.2h2.8zm-2.8 7.8h2.8v-3.3h-2.8z" fill="#fbfcfa"/></svg>