<svg enable-background="new 0 0 400 400" viewBox="0 0 400 400" xmlns="http://www.w3.org/2000/svg"><path d="m364.95 366.07c-10.18 2.7-20.23 5.37-30.28 8.02-.64.17-1.32.23-1.99.29-5.1.42-10.23.68-15.31 1.28-9.04 1.08-17.51-1.7-26.07-3.71-4.95-1.17-9.81-1.39-14.89-1.35-5.26.03-10.54-1.57-15.8-2.53-15.88-2.9-31.2-7.61-46.3-13.35-6.2-2.35-13.03-3.02-19.55-4.55-1.94-.45-3.9-1.03-5.7-1.88-11.53-5.43-23.03-10.91-34.49-16.48-1.57-.76-3-1.92-4.27-3.13-2.26-2.16-4.16-4.74-6.56-6.72-4.36-3.58-6.38-7.95-6.31-13.6.02-1.35-1.41-3.36-2.69-3.99-5.32-2.62-7.86-7.1-9.3-12.48-4.57-17.08-6.43-34.49-6.39-52.13.02-13.21.19-26.42.1-39.62-.01-1.15-1.34-3.01-2.38-3.27-1.95-.5-4.36-.66-6.18.06-9.39 3.72-19.36 4.4-29.14 6.06-11.11 1.89-22.37 3.04-32.93 7.41-1.73.72-3.64 1.11-5.51 1.37-7.84 1.07-12.03-1.74-13.88-9.52-.64-2.69-.8-5.53-.92-8.31-.13-2.96.7-5.57 2.78-7.96 1.63-1.87 2.44-4.44 3.73-6.62.59-1.01 1.28-2.28 2.25-2.69 3.78-1.63 7.67-3.03 11.58-4.34.61-.2 1.83.24 2.22.78 4.72 6.55 11.58 9.31 19.12 9.66 10.14.47 20.32.12 30.48-.17 6.59-.19 13.17-.87 19.74-1.47 1.1-.1 2.59-.59 3.15-1.41 6-8.8 11.76-17.81 13.74-28.46.54-2.89-.44-6.17-1.27-9.12-.29-1.02-2.15-1.82-3.44-2.29-7.84-2.87-15.65-1.44-23.43.44-8.14 1.96-16.22 4.27-24.44 5.79-4.56.84-9.37.67-14.04.4-6.08-.35-8.76-3.55-9.54-9.37-.36-2.67-1.54-5.36-2.88-7.76-4.29-7.69-6.38-15.61-4.31-24.45 1.35-5.76 2.03-11.68 3.29-17.46.31-1.41 1.42-3.04 2.64-3.79 6.32-3.88 13.39-5.4 20.71-6.13 13.8-1.37 27.57-3.09 41.37-4.36 8.46-.78 16.96-1.26 25.45-1.4 16.67-.27 33.35-.22 50.03-.25 1.04 0 2.7.12 3.03.73 1.61 3.04 3.79 1.89 5.99 1.17 3.39-1.11 6.9-1.99 10.15-3.42 5.13-2.26 6.73-5.55 5.75-11.08-.52-2.97-1.52-5.86-1.89-8.84-.45-3.68-2.71-5.2-5.86-6.4-5.74-2.18-11.66-2.27-17.55-1.68-14.94 1.5-29.69-.23-44.49-1.76-9.03-.93-18.03-.98-26.85 2.16-3.27 1.16-7.03 1.39-10.55 1.34-8.69-.11-17.16 1.24-25.56 3.21-2.63.62-4.82.46-7.11-1.38-3.81-3.06-7.95-5.7-12.68-9.03 5.71-2.31 10.64-4.36 15.64-6.25.78-.29 1.85.2 2.7.31 2.43-.26 4.82-.57 7.23-.77 6.77-.56 13.65-.52 20.3-1.73 19.6-3.57 39.19-2.31 58.85-.95 13.38.93 26.81 1.25 40.21 1.91 3.57.18 7.13.61 10.7.92.11.01.24 0 .33.05 6.35 3.61 12.98 6.82 18.95 10.98 4.47 3.12 6.09 8.52 6.81 13.8.36 2.63-.32 5.4-.57 8.11-.1 1.1-.51 2.22-.42 3.3.58 7.19-2.91 12.19-8.95 15.15-5.48 2.69-11.27 5-17.16 6.54-3.64.95-7.75.31-11.63.06-7.14-.45-14.27-1.59-21.41-1.58-6.45.02-12.98.74-19.32 1.95-14.19 2.73-28.31 1.41-42.45.11-15.53-1.42-31.03-1.59-46.53.31-.44.05-.89.09-1.33.18-5.84 1.19-5.85 1.22-5.85 7.1 0 5.49.08 10.97-.04 16.46-.04 1.96.54 2.95 2.43 3.72 6.9 2.79 13.82 1.48 20.85.81 4.11-.39 8.33.49 12.51.72.91.05 1.87-.12 2.75-.36 3.63-.99 7.17-2.53 10.86-3 10.97-1.41 21.99-2.55 33.01-3.56 18.25-1.66 36.43-.66 54.55 1.82 1.55.21 3.1.55 4.66.6 9.26.28 16.31 5.46 23.41 10.51.9.64 1.72 1.46 2.38 2.34 2.03 2.72 1.64 4.54-1.26 6.29-4.31 2.6-8.82 2.46-13.61 1.43-4.19-.9-8.54-1.43-12.81-1.43-4.56-.01-7.35 2.96-8.57 7.21-2.31 8.03-1.5 16.23-.79 24.34.15 1.68 2.28 3.17 3.44 4.78 1.82 2.53 3.7.48 5.34-.07 10.06-3.39 20.24-6.53 30.02-10.61 8.47-3.53 17.28-6.99 22.81-15.16.37-.54.93-.96 1.46-1.38.69-.55 1.43-1.04 2.48-1.8 4.01 5.75 8.25 11.22 10.24 17.94 1.43 4.82.33 9.58-1.67 14.03-.48 1.08-2.15 2.02-3.43 2.28-8.64 1.74-17.27 4.06-26.01 4.69-12.01.87-24.11.43-36.17.53-4.73.04-6.31.95-7.11 5.66-1.15 6.72-1.79 13.52-2.68 20.28-1.36 10.28-.77 21.04-5.49 30.55-6.85 13.81-14.15 27.43-24.05 39.41-4.06 4.91-9.19 8.42-14.89 11.22-2.48 1.22-5.04 2.56-7.07 4.39-3.92 3.55-3.9 6.61-.54 10.52 1.02 1.19 2.05 2.37 3.03 3.59 2.17 2.72 4.37 4.8 8.3 5.45 3.32.55 6.35 3.13 9.39 5 6.4 3.95 12.97 6.94 20.59 8.3 8.08 1.44 15.82 4.73 23.77 7.01 18.67 5.36 37.81 7.87 57.12 9.61 8.74.79 17.32 3.31 26.03 4.7 4.14.66 8.42.51 12.63.73.76.04 1.74-.18 2.26.2 4.5 3.34 9.81 2.43 14.85 3 7.33.83 14.67 1.63 21.98 2.61 1.85.25 3.69.95 5.4 1.72 5.45 2.48 7.65 6.56 6.97 12.96zm-219.42-84.33c.8-.29 1.21-.41 1.59-.58 7.91-3.55 12.19-10.11 15.12-17.92 1.68-4.49 3.4-9.04 5.78-13.17 5.51-9.57 8.09-20.12 10.11-30.69 1.88-9.85 2.17-19.99 3.18-30 1.72-17.04-.05-33.44-8.19-48.88-3.3-6.25-7.2-9.01-14.34-8.79-4.06.12-6 2.19-5.76 6.16.47 7.82.98 15.63 1.4 23.45.08 1.43.01 2.93-.33 4.31-2.66 11.08-5.21 22.2-8.18 33.2-2 7.42-2.99 14.71-1.98 22.46.88 6.69.97 13.56.62 20.31-.24 4.63-1.86 9.18-2.78 13.78-.21 1.06-.47 2.39-.03 3.26 3.55 7.16 3.42 14.93 3.79 23.1zm-69.81-158.6c-1.08-2.57-3.39-2.05-8.77 1.99 1.55 2.51 2.94 2.2 8.77-1.99z" fill="#010000"/><g fill="#fbfcfa"><path d="m361.2 9.6.8-1c.9.7 1.9 1.4 2.9 2.3l-.9 1.1c-1-1-2-1.8-2.8-2.4zm.5 10.6c.9-2.1 1.6-4.3 2.3-6.7.4.2.8.4 1.3.6-.7 2.1-1.5 4.3-2.2 6.6zm.4-15.2.9-.9c1 .8 2 1.6 2.8 2.4l-1 1c-.9-.9-1.8-1.7-2.7-2.5zm12.5-1.2h1.2v1.4h2.7v1.1h-2.7v2.7h-1.2v-.6h-1.8v1.3h4.9v3.8h-1.2v-.5h-3.7c0 .4-.1.9-.1 1.2h5.1v1h-5.2c0 .5-.1.9-.2 1.2h6v1h-5.2c1.1 1.3 2.9 2 5.5 2.2-.4.4-.7.8-.9 1.3-2.9-.5-4.8-1.6-5.7-3.5h-.1c-.8 1.7-2.7 2.9-5.9 3.6-.2-.4-.6-.8-.9-1.1 2.8-.6 4.6-1.4 5.4-2.5h-4.8v-1h5.3c.1-.3.2-.7.2-1.2h-4.9v-1h5c0-.4 0-.8.1-1.2h-3.5v.5h-1.2v-3.8h4.9v-1.3h-1.8v.5h-1.2v-2.7h-2.7v-1h2.6v-1.4h1.2v1.4h4.7v-1.4zm-6.6 8.3h3.6c0-.4 0-.9 0-1.4h-3.6zm1.9-4.6h4.7v-1.3h-4.7zm6.6 3.2h-3.7v1.4h3.7z"/><path d="m385.3 3.8h1.3v2.2h2.8v-2.2h1.3v2.2h4.1v9.1h1.7v1.3h-16.9v-1.3h1.7v-9.1h4.1v-2.2zm.4 13.1.7 1.2c-1.8.9-3.8 1.9-6 2.9-.2-.4-.5-.8-.8-1.3 2.3-1 4.3-1.9 6.1-2.8zm-3.1-6.4h2.8v-3.2h-2.8zm0 4.6h2.8v-3.3h-2.8zm4-4.6h2.8v-3.2h-2.8zm0 4.6h2.8v-3.3h-2.8zm3.7 1.9c2.1.9 4.1 1.8 6.1 2.7l-.7 1.3c-2.2-1.1-4.2-2-6.1-2.9zm3.2-9.7h-2.8v3.2h2.8zm-2.8 7.8h2.8v-3.3h-2.8z"/></g></svg>