<svg enable-background="new 0 0 400 400" viewBox="0 0 400 400" xmlns="http://www.w3.org/2000/svg"><path d="m131.3 273.2c.4-5.1.6-10.1 1.4-14.9 1-6.1 5.9-8.8 11.8-7.2 1.1.3 2.2.7 3.4.8 4 .5 5.4-1.1 5.3-5.1-.1-2.3.4-4.9 1.4-7 1.9-4.2 2.4-8.4 1.9-12.9-1.3-13 1.1-25.5 6.5-37.4 1.8-4 4.8-6.4 9-6.4 5.7 0 11.4.4 17.1.9 6.8.6 12.3-1 16-7.2 1-1.7 2.7-3 3.6-4.8 1-1.9 1.6-4.1 1.9-6.2.4-2.9 0-5.9.3-8.8.4-3.9-3.9-7.8-7.7-6.4-4.6 1.7-8.9 3.8-13.4 5.7-1.8.8-3.7 1.7-5.6 2.1-4.6.9-8.6-1.4-9.6-6-.7-3-.9-6.2-.8-9.3.1-3.6.6-7.2 1.3-10.7.8-3.9 1.9-4.4 5.8-3.4 9.6 2.6 19.3 3.5 29.2 3.3 19.6-.4 39.1-1 58.7-1.1 6 0 12 .9 17.9 2 2.7.5 5.1 2.5 8.2 4.2-6.6 4.7-13 7-20 7.7-11.1 1.2-22.3 2.2-33.5 3.4-1.7.2-3.3.6-4.9 1.1-3.7 1.1-6.1 3.2-6.7 7.4-.8 6.4-2.7 12.6-6.6 18-.5.7-.9 1.7-1.1 2.6-.9 3.4-.1 4.5 3.3 5.1 12 2.3 24 1.7 36.1 1.2 7.2-.3 14.2.4 20.6 3.9 2.3 1.2 4.3 2.9 6.4 4.4-.3.6-.3.9-.5.9-4.8 1.6-6 5.1-5.7 9.8.1 1.9-.7 3.9-1.7 5.6-2.5 4.6-4 9.4-4.4 14.7-.4 6.8-1.4 13.7-2.4 20.5-.3 1.9.1 3.2 1.8 3.8 2.3.7 4.7 1.4 7 1.5 13.9.5 27.8-1.5 41.7.2 8.9 1.1 17.7-.1 26.2-3.2 2.3-.8 4.6-1.5 7-1.9 1.8-.3 3.6-.1 4.3 2.1-.1.3-.2.6-.3.6-10.7 3.9-17.4 12.9-25.3 20.2-2.8 2.6-5.8 4.4-9.4 5.6-4.9 1.6-9.6 3.9-14.4 5.8-1.1.4-2.4.8-3.6.7-3.8-.1-7.5-.1-11.3-.6-6.4-.7-12.7-1.7-19.1-2.7-2.5-.4-4.8-1.5-7.2-1.9-3.9-.7-7.9-1.3-11.9-1.6-4.6-.3-9-.7-13.2-2.8-1.2-.6-2.6-.9-4-1-12-1-24-2.8-36.1-2.8-11.2 0-22.6.1-33.6 3.7-3 1-6.2 1.2-9.3 1.9-2.1.5-4 1.7-6.1 2.2-3.9.9-7.8 1.6-11.7 2.4-4.8.9-9.2-1.3-14-2.7zm109.2-42.3c.7 2.7 1.7 6.9 2.9 11 .2.7 1.7 1.5 2.5 1.5 8.7-.2 11.9-4.1 11.8-12.7-.1-3.8 1.1-7.6 1.9-11.4.4-1.9 1.4-3.7 1.7-5.7.6-3.1 1-6.3 1.1-9.4.1-1-.5-2.7-1.3-3.1-3-1.5-6.2-3.2-9.4-3.6-1.8-.2-4 2-5.9 3.3-1 .7-2.4 1.8-2.5 2.9-.9 8.6-1.7 17.1-2.8 27.2zm-34.4-2.6c.5 2.1 1 6 2.3 9.6 1.4 4.1 6.5 6 10.4 4 1.3-.7 2.6-2.5 2.8-4 .5-3.9.4-7.8.7-11.7.1-1.1.2-2.4.7-3.3 2.7-4.7 2.7-9.7 2.2-14.8-.6-5-3.6-8.1-8.2-7.9-2.2.1-4.6 1.4-6.6 2.6-1.1.6-2.2 2-2.3 3.2-.8 6.8-1.3 13.6-2 22.3zm-23.3 17.8c6.5.1 8.2-1.6 8.4-7.5.1-2.3.5-4.6.7-6.9.2-2.6.4-5.2.2-7.7-.3-3.1-1.3-6.2-1.5-9.4-.2-4.6-2-7.8-6.2-9.6-1.3-.6-2.3-2.4-4.1-.9-1.7 1.4-3.7 2.3-3.1 5.2 1.6 8.3.8 16.6-.3 24.9-.3 2.5.2 5.2.8 7.8.5 2.8 2.3 4.6 5.1 4.1z"/><path d="m92.3 213.7c3.5 0 6.9.9 9.3-.2 3.1-1.5 6.4-4.3 7.9-7.3 1.7-3.5 1.9-7.7 1.1-12-.8-4 .6-8.4 1.2-12.5 1.1-8.5 2.3-17 3.5-25.5 0-.3.2-.7.1-.9-1.9-4.9.2-9.4 1.4-14 1.4-5.1.2-10.2-1.6-14.9-1.6-4.3-1.3-8.3 1-12.2 3.4-5.8 7.6-10.9 13.7-14.2 3 5 4.8 9.8 3.1 15.5-2.3 7.6-1.5 15.5-1.4 23.3.1 8.1-.1 16.3-.4 24.4-.2 7 1.3 8.6 9.5 8.4-.4-1.9-.7-3.6-1.1-5.3-.3-.1-.6-.2-1-.3 2-2.1 4.1-4.1 6-6.3.8-.9 1.7-2.1 1.7-3.2.1-3.4-.3-6.9-.1-10.3.1-2 1.4-3.9 1.8-5.9 1.1-7 2.1-14 2.9-21.1.3-2.3-.3-4.7-.4-7.1-.1-1-.2-2.2.1-3.1 1.7-5.4 4.3-10.4 8.5-14.2.8-.7 2.4-1.6 2.9-1.3.9.6 1.6 2 1.7 3.1 1.2 11.8 1.8 23.6 3.4 35.4 1.1 7.9 0 15-3 22.1-2.5 5.9-4.3 12.1-6.6 18.2-.5 1.2-1.3 2.4-2.1 3.4-2.2 2.8-5.1 4-8.8 4.1-4.7 0-9.5.6-14.8 1-1 6.5-2.3 13-2.9 19.5-.7 7.6-.8 15.2-1.3 22.8-.1 1.2-.5 2.5-.9 3.7-2 5.9-5.4 8.1-11.5 7.4-2.8-.3-5.6-1.1-8.3-1.9-4.2-1.2-8.2-1.2-11.9 1.3-3.1 2.1-5.2 4.6-5.4 8.7-.2 7.4-1 14.8-1.4 22.2-.1 2.4.5 4.8.5 7.2 0 2.5-.1 5-.5 7.5-1 6.5-2.1 12.9-3.3 19.4-.3 1.8-.8 3.5-1.4 5.2-1.4 3.6-2.7 3.9-6.2 2.3-3.2-1.4-5.1-3.3-5-7 0-1.6-.8-3.3-1.4-4.8-.9-2.3-1.7-4.5-.6-7 .4-.8.1-2.1-.1-3-.3-1.4-.8-2.9-1.4-4.2-3.4-7.6-3.5-15.1-2-23.3 1.2-6.4 1.1-13.1 3.1-19.5.3-.9.1-2.1-.1-3.1-1.5-6.2 0-12.1 1.6-18.1 1.3-4.7 2.4-9.5 2.8-14.2.4-5.2-2.8-7.1-7.8-5.3-.8.3-1.6.5-2.3 1-6.5 4-13.3 3.8-20.1 1.3-2.3-.8-4.6-2.6-6.1-4.6-2.4-3.2-4.1-6.9-5.6-9.4 1.5-2.9 2.9-5.1 3.7-7.5 1-3.1 1.3-6.4 4.1-8.7.5-.4.5-1.5.6-2.3.3-3 .1-6.1.9-9 1.5-5 .7-9.4-1.7-14-1.1-2-1.4-4.7-1.4-7 0-3.7-.9-7.1-2.8-10.2-2.4-3.8-1.1-7.6.8-11.1 1.6-3 3.8-5.9 6.2-8.4 1.4-1.5 3.4-2.9 5.4-3.4 4.1-1 5.3-.1 7.4 3.6 3.4 6.1 4 12.8 2.9 19.4-2.4 14.7-2.1 29.3-.8 44 .4 4.3 1.7 5.6 6.1 5.3 2.7-.1 5.5-.6 8.1-1.4 2.9-.8 3.5-3.7 3.2-5.9-.9-6.2.8-11.9 1.9-17.8.4-2.1 0-4.4-.1-6.6 0-1.2-.4-2.3-.3-3.5.6-11.5 1.1-23 1.9-34.5.2-3.3 7.5-8.5 11-8 3.1.5 6.7.2 8.5 3.7 3 5.6 3.2 11.1.7 17.1-1.9 4.7-3.5 9.7-4.4 14.7-.9 5.1-.8 10.3-1.1 15.5-.8 15.4-1.8 30.8-2.2 46.3-.4 5.9.8 12.1 1.4 18.5z"/></svg>