<svg enable-background="new 0 0 400 400" viewBox="0 0 400 400" xmlns="http://www.w3.org/2000/svg"><path d="m362.1 8.8c1.1.8 2.1 1.6 3.1 2.4l-1 1.1c-1.3-1.1-2.3-2-3-2.5zm1.9 4.8c.5.2.9.4 1.4.5-.6 2.3-1.3 4.5-1.9 6.8l-1.5-.5c.8-2.1 1.4-4.3 2-6.8zm-1-9.4c1.3.9 2.4 1.8 3.4 2.5l-1 1.1c-1.4-1.2-2.4-2.1-3.2-2.6zm3.7 2.2v-1.4h10.3v1.2c-.5 3.6-1.8 6.8-4 9.4 1.5 1.6 3.4 2.8 5.7 3.8-.3.4-.7.8-1.1 1.4-2.3-1.1-4.1-2.5-5.6-4.1-1.6 1.6-3.6 3.1-5.9 4.3-.3-.5-.7-.9-1-1.3 2.4-1.1 4.4-2.5 6-4.1-1.9-2.5-3-5.6-3.3-9.3h-1.1zm8.8 0h-6.4c.3 3.3 1.3 6 3 8.2 2-2.3 3.1-5.1 3.4-8.2z" fill="#fbfafc"/><path d="m385.3 3.8h1.3v2.2h2.8v-2.2h1.3v2.2h4.1v9.1h1.7v1.3h-16.9v-1.3h1.7v-9.1h4.1v-2.2zm.4 13.1.7 1.2c-1.8.9-3.8 1.9-6 2.9-.2-.4-.5-.8-.8-1.3 2.3-1 4.3-1.9 6.1-2.8zm-3.1-6.4h2.8v-3.2h-2.8zm0 4.6h2.8v-3.3h-2.8zm4-4.6h2.8v-3.2h-2.8zm0 4.6h2.8v-3.3h-2.8zm3.7 1.9c2.1.9 4.1 1.8 6.1 2.7l-.7 1.3c-2.2-1.1-4.2-2-6.1-2.9zm3.2-9.7h-2.8v3.2h2.8zm-2.8 7.8h2.8v-3.3h-2.8z" fill="#fbfafc"/><g fill="#010104"><path d="m257.7 39.79c-5.77 4.4-12.04 4.51-18.48 3.76-1.22-.14-2.51-.61-3.64-.37-1.84.4-4.56.82-5.1 2.04-.66 1.51.16 4 .97 5.77 4.18 9.16 12.4 11.46 21.45 12.25 3.45.3 6.89.79 10.34 1.16 3.78.41 7.3.42 10.88-1.8 5.33-3.32 11.47-2.32 17.35-1.66.9.1 1.91 1.45 2.43 2.45 2.25 4.37 1.92 8.97.29 13.36-2.51 6.81-5.25 13.55-8.17 20.19-1.21 2.74-1.61 5.24-.49 8 5.03 12.41 2.81 25.3 2.77 38.21-3.72.73-6.66.92-8.74-2.94-1.85-3.42-4.68-6.3-6.6-9.69-1.66-2.94-4.04-3.75-7.08-4.06-7.45-.77-14.9-1.64-22.33-2.63-2.31-.31-4.05.15-5.7 1.86-2.41 2.49-5.08 4.73-7.57 7.14-.96.93-1.84 1.96-2.58 3.07-2.19 3.3-2.74 7.25-1.22 10.56.77 1.68 4.27 2.87 6.57 2.92 8.24.21 16.48-.2 24.73-.3 2.34-.03 4.8-.24 6.98.4 2.24.67 4.72 1.85 6.19 3.58 3.72 4.37 1.32 11.34-4.31 13.12-3.41 1.08-6.9 1.9-10.38 2.71-.74.17-1.78.06-2.38-.36-4.21-2.91-8.29-3.49-13.07-.9-2.41 1.31-5.61 1.76-8.42 1.66-10.99-.43-21.89-.33-32.7 2.08-6.28 1.4-12.51.63-18.49-1.55-5.81-2.12-11.53-2.28-17.4-.38-2.97.96-6 1.88-9.08 2.37-3.47.56-7.01.75-10.53.82-1.75.03-3.85.19-4.49-2.4-.14-.54-1.42-.8-2.17-1.19-2.06 3.8-2.55 3.93-6.38 1.99.81-1.79 1.89-3.51 2.36-5.38 1.64-6.53 6.31-9.92 13.07-9.37 4.68.38 9.37.73 14.06.86 2.97.08 5.28-1.32 5.91-4.41.56-2.76 1.64-5.81-2.14-7.67 1.86-2.14 1.59-3.94-.47-5.87-3.26-3.06-6.25-6.4-9.36-9.62-5.38-5.58-15.12-5.28-20.11.61-.29.34-.57.69-.88 1.01-5.58 5.65-9.72 12.03-11.72 19.9-2.37 9.3-8.25 15.35-17.97 17.38-2.28.48-3.08-.06-3.9-2.14-1.7-4.37-2.81-8.48-.57-13.16.98-2.04.2-4.86.56-7.27.16-1.05 1.2-1.96 1.8-2.96.79-1.31 2.36-2.79 2.16-3.95-.8-4.64 1.12-8.27 3.49-11.85 3.52-5.32 7.15-10.56 10.55-15.96.96-1.53 1.64-3.44 1.8-5.23.6-6.8 1.02-13.61 1.3-20.43.08-1.92-.53-3.87-.83-5.81-.1-.66-.46-1.39-.28-1.96 2.06-6.44-2.15-10.15-6.24-13.62-1.74-1.48-2.16-2.81-1.94-4.84.7-6.32 2.53-8.5 8.75-9.16 1.79-.19 3.88.71 5.56 1.62 1.53.83 2.68 2.35 3.99 3.56 4.75 4.41 5.75 3.8 11.58 1.14 5.49-2.51 6.03-7.22 8.02-12.01-4.66-2.42-7.47-6.11-7.94-11.52-.2-2.39.05-3.95 2.7-4.29.22-.03.43-.12.64-.2 9.11-3.77 18.14-3.89 27.19.31 2.01.93 4.29 1.25 6.38 2.04 3.65 1.39 7.01 1.48 10.96.27 3.8-1.17 8.18-.51 12.3-.58 4.75-.08 9.28-.41 14.02-1.96 5.12-1.67 10.98-1.1 16.52-1.38 1.55-.08 3.12.26 4.68.39 3.55.29 7.93-.64 10.47 1.11 4 2.76 6.75 7.31 10.08 11.16zm-18.91 38.65c.71 4.01 1.74 7.92 1.94 11.86.08 1.66-1.22 4.48-2.52 4.93-3.63 1.25-7.66 2.35-11.4 2.02-7.89-.68-15.7-2.32-23.54-3.54-9.56-1.49-19.02-1.8-28.65.17-6.28 1.29-12.88 1.36-19.34 1.36-4.49 0-5.83-2.96-2.62-6.13 2.63-2.59 6.38-4.49 9.97-5.56 3.78-1.12 7.96-.86 11.97-1.23 9.68-.9 19.31-2.35 29.11-1.12 2.77.35 5.83-.13 8.53-.95 5.48-1.67 10.84-2.14 16.5-.95 2.3.48 4.85-.26 7.28-.45.09-.42.17-.85.26-1.27-1.6-1.29-3.1-2.74-4.82-3.84-3.56-2.27-7.53-4-9.39-8.25-.26-.59-1.28-.79-1.83-1.31-1.23-1.15-2.83-2.17-3.47-3.61-1.73-3.86-2.86-7.99-4.55-11.87-2.35-5.38-8.62-7.14-13.21-3.66-4.17 3.16-8.2 6.53-12.06 10.06-2.63 2.4-4.78 5.34-8.78 5.6-.66.04-1.27.8-1.91 1.21-1.72 1.11-3.33 2.55-5.2 3.26-8.66 3.3-17.38 6.42-26.1 9.54-2.1.75-2.8 1.98-2.77 4.26.04 3.18-.43 6.38-.77 9.56-.23 2.15-1.38 4.54-.78 6.39 2.39 7.3 5.3 14.43 8.03 21.65 2.81-1.87 1.67-4.05.3-5.86 1.17-3.11 3.21-3.7 5.78-2.71 1.85.72 3.6 1.69 5.42 2.49 2.94 1.28 5.95 2.41 8.84 3.78 2.24 1.06 4.65 2.06 6.44 3.69 3.4 3.1 3.91 7.62 4.96 11.85.29 1.18.97 2.82 1.89 3.19 3.68 1.46 5.07 4.35 5.98 7.83.65 2.48 1.56 4.89 2.37 7.33 2.08 6.26 2.09 6.31 8.66 5.27 1.67-.27 4.17-.49 4.76-1.57 4.75-8.61 12.18-15.85 13.37-26.32.37-3.26 1.94-6.22 5.71-7.09 3.78-.88 7.72-1.38 10.41-4.74.42-.52 1.4-.74 2.15-.83 3.97-.47 7.95-1 11.94-1.24 5.11-.31 10.27-.06 15.34-.65 4.29-.5 4.73-1.58 3.69-5.94-.77-3.21-1.39-6.33 1.78-8.81-1.81-1.17-3.28-2.13-4.88-3.17 1.56-3.6 3.03-7.01 4.72-10.9-2.8-.66-6.12-1.51-9.47-2.19-3.49-.71-7.38-.53-10.41-2.08-3.8-1.94-6.68-1.35-9.63.54zm-57.99 70.35c-1.82 1.4-3.39 2.61-4.97 3.82.09.23.18.45.28.68h6.35c-.54-1.48-1.02-2.79-1.66-4.5z"/><path d="m168.13 236.77c-2.52-.96-4.21-1.61-6.18-2.37-1.77-7.27-10.21-11.42-17.76-8.46-6.59 2.59-12.87 5.65-18.5 10-.95.73-2.48.67-3.56 1.31-1.66.98-3.41 2-4.67 3.41-3.47 3.86-5.84 3.77-9.88.47-3.34-2.73-3.52-5.97-2.97-9.56.55-3.55-.24-6.39-2.68-9.17-1.14-1.3-1.52-3.69-1.44-5.55.16-3.96.76-7.91 1.34-11.84.18-1.23.92-2.37 1.36-3.56 1.11-2.95 2.78-5.84 3.16-8.88.58-4.69 2.59-8.72 7.09-9.92 2.14-.57 4.73.44 7.08.92.94.19 1.77.87 2.29 1.14 2.61-1.71 4.96-3.25 8.16-5.34.65 4.26 1.34 7.5 1.6 10.78.27 3.45.26 6.94.12 10.4-.16 3.71 3.09 3.71 5.16 4.7.74.35 2.39-1.05 3.56-1.76 1.57-.95 2.99-2.18 4.63-2.99 4.16-2.08 8.45-3.89 12.58-6.02 2.37-1.22 4.57-2.8 6.77-4.34 4.52-3.18 9.35-2.13 13.3.27 3.89 2.37 5.53 7.11 5.7 11.61.16 4.11-.86 8.26-1.47 13.3 2.05.27 4.82.97 7.57.92 8.97-.16 14.57-4.74 16.82-13.45 1.2-4.65 1.9-9.48 3.6-13.94 1.23-3.21 3.6-6.03 5.71-8.84 1.28-1.71 3.24-1.69 4.72-.25 2.63 2.56 5.31 5.14 7.5 8.06 4.49 5.97 10.02 9.74 17.68 10.12 2.22.11 3.78-.14 4.69-2.51.91-2.39 2.21-4.64 3.43-6.9 3.13-5.81 8.84-6.89 13.84-2.68 1.63 1.37 3.36 2.63 4.88 4.1 3.29 3.17 3.28 7.48.47 10.99-5.13 6.42-11.4 10.44-19.83 11.13-3.38.27-6.69 2.43-10 2.37-3.14-.06-6.24-1.95-9.38-2.94-.93-.29-1.97-.26-3.41-.43-.08 7.06-5.27 11.33-8.8 16.49-.79 1.15-2.6 1.83-4.07 2.23-2.57.69-5.27.88-7.87 1.49-7.28 1.69-14.56 3.39-21.79 5.29-5.03 1.32-6.95 3.65-6.98 8.87-.05 8.33 2.38 16.02 7.04 22.94 4.68 6.96 9.45 13.85 14.16 20.79.5.73 1.24 1.63 1.15 2.36-.48 3.94 2.62 5.07 4.93 7.11 4.17 3.68 7.87 7.89 11.95 11.69 1.57 1.46 3.62 2.4 5.45 3.58 2.09 1.34 4.16 2.73 6.3 4 .88.52 1.88.95 2.88 1.1.85.13 1.76-.21 2.65-.3 6.49-.67 6.43-.65 8.21 5.47.32 1.09 1.21 2.1 2.05 2.93 6.82 6.67 15.27 10.8 23.6 15.18 5.99 3.15 12.08 5.61 18.88 6.38 4.92.55 7.56 6.05 4.35 9.71-7.48 8.52-15.98 15.98-28.13 16.4-4.25.15-9.71.11-12.55-2.29-3.98-3.36-9.24-1.77-12.8-5.39-3.35-3.41-7.54-5.98-11.07-9.24-1.66-1.53-2.95-3.67-3.85-5.78-3.43-8.08-8.8-14.37-16.3-18.91-9.26-5.6-15.04-14.03-19.74-23.55-2.26-4.58-5.55-8.65-8.37-12.94-.86-1.31-1.97-2.5-2.57-3.92-4.94-11.68-10.08-23.3-14.52-35.17-1.69-4.51-1.91-9.62-2.4-14.5-.48-4.6-.25-4.62 5.13-6.32z"/></g></svg>