<svg enable-background="new 0 0 400 400" viewBox="0 0 400 400" xmlns="http://www.w3.org/2000/svg"><g transform="translate(-1.666 331.021) scale(0.404028 -0.404028)"><path d="M734 726Q739 721 739 721Q741 721 771.0 685.5Q801 650 809 639L816 626Q816 623 804 619Q793 616 790 613Q786 611 782 611Q739 595 736 593Q731 590 719 587Q715 585 709.0 583.0Q703 581 698 578Q666 564 661 564Q659 564 665 577Q681 614 683 620Q692 644 700 660Q705 675 716 697Q719 704 724.0 715.0Q729 726 730 727Q731 730 732.0 729.5Q733 729 734 726ZM536 696Q537 694 540.0 689.0Q543 684 546 680L559 659Q570 640 580.0 623.5Q590 607 594 601Q596 599 596 597Q598 595 599.5 592.0Q601 589 602 587Q606 581 607.5 577.0Q609 573 606 575L575 581Q558 583 521.0 591.0Q484 599 481 601Q481 603 484 606L503 648L515 670Q523 688 527 692Q531 699 533.0 699.5Q535 700 536 696ZM235 639H294V633Q294 627 289 602Q284 573 281.5 541.0Q279 509 277 432Q276 395 276 330Q276 262 277 215Q278 122 282 68L286 -19L287 -81H217Q179 -79 145 -79L154 -60Q170 -32 182.5 18.0Q195 68 199 117Q206 197 206 356Q206 448 204 488Q203 547 200.0 568.5Q197 590 188 612Q178 632 178 636Q175 639 235 639ZM894 573Q899 573 900.0 570.5Q901 568 899 561Q894 546 891.0 493.0Q888 440 887 371L886 273L863 275L689 283L688 251V217H756Q862 217 911 225L932 228Q934 226 921.5 184.5Q909 143 906 139Q858 139 802 141Q745 144 697 144Q697 127 699.0 89.5Q701 52 703 27Q707 -1 707 -33L709 -81L695 -79Q670 -76 614.5 -63.0Q559 -50 548 -45L546 -43Q546 -41 550.0 -39.0Q554 -37 556 -36Q563 -32 569.0 -27.5Q575 -23 578 -21Q583 -17 589.0 -13.0Q595 -9 600 -5Q620 7 629 37Q634 57 635 98L636 145H590Q528 145 451 132Q444 130 406 125H394L358 237L368 235Q422 217 491 217Q518 217 571 212Q606 210 618.0 208.5Q630 207 631 207Q632 210 633.0 220.5Q634 231 634 246Q634 260 633.0 270.0Q632 280 631 283L536 273L442 265Q439 308 438 355Q434 431 430.0 470.0Q426 509 419 528Q414 542 413.5 547.0Q413 552 418 553Q419 553 421.0 553.5Q423 554 427 554L452 552Q482 550 528 550Q567 550 592 551Q801 554 865 567Q888 573 894 573ZM820 493H754L688 494V465Q688 449 688.5 443.5Q689 438 692 438Q719 439 768.5 443.5Q818 448 820 449Q821 450 821 471ZM632 464Q632 491 629 491Q627 491 614.0 490.0Q601 489 584 489L518 487H493V438H634ZM786 392Q734 392 697 387L688 386V361Q688 349 688.5 342.5Q689 336 691 335Q693 334 719.0 335.5Q745 337 765 338L800 341L820 343V392ZM611 384Q565 387 563 385Q559 384 550.0 384.0Q541 384 533 383Q512 382 506.0 380.5Q500 379 498.5 373.5Q497 368 496 350L494 327H518Q531 327 541 328L587 329L634 330V383ZM298 487 318 464 346 432Q356 422 374.5 406.5Q393 391 404 385Q411 382 411 379Q411 376 399.5 370.0Q388 364 385 362Q361 350 352 344Q344 337 335 337Q329 337 324 343Q315 354 304 429Q298 475 296 480Q296 487 298 487ZM158 451Q160 451 160.5 434.0Q161 417 161 409Q164 340 168 307L169 282H167Q160 282 155 283Q128 290 85 317L66 329L73 337Q82 346 106 384Q126 413 145 437Z"/></g></svg>