<svg enable-background="new 0 0 400 400" viewBox="0 0 400 400" xmlns="http://www.w3.org/2000/svg"><path d="m166.6 97.2c5 2.7 10.1 3.6 15.3 3.6 4.5 0 9.1-.4 13.6-.2 2.3.1 4.6.9 6.9 1.4 3.9.9 7.7 2.1 11.6 2.6 14.3 1.9 28.5 4.1 42.8 5 7 .4 14.2-1.7 21.2-3 7.2-1.3 14.4-2.1 21.3-.8 0 1.4.2 2.7-.1 3.9-.2 1.2-.6 2.8-1.5 3.4-7.4 5-14.8 9.8-22.3 14.6-1 .6-2.4.7-3.6.7-11.1.1-22.2.1-33.3 0-2.1 0-3.1.6-4 2.6-4.5 9.9-9.2 19.7-14.1 30.1 5.2 2.5 10.2 5.2 15.4 7.4 2.6 1.1 4.3 2.6 5.3 5 3.1 7.2 3.8 14.8 3 22.4-.3 2.3-2.8 4.4-3.9 6.7-1.9 3.9-4.8 5.6-9.1 4.8-2.7-.5-4.8.7-6.8 2.4-7 6-14.2 11.7-21.3 17.6-3.3 2.7-2.8 6.8 1 8.7 5.5 2.7 11.1 5.2 17.6 4.4 2.2-.3 3.8-.9 4.6-3.2 1.1-3.2 2.7-6.2 3.7-9.4 1.4-4.6 2.5-5.5 7.2-5 1.2.1 2.5.4 4.2.7-1.5 5.6 2.4 8 6.1 10.6 6.5 4.5 7.2 9.3 2.6 15.9-.4.6-1.3 1-2.1 1.3-12 4-24 8.2-36.2 11.8-3.9 1.1-8.4.1-12.6.6-6.9.9-12.4-2.4-17.8-5.6-3.9-2.3-4.4-7-3.2-11.1 2.5-8.6 5.4-17.1 8.3-26-3.3-2-7.4-4.4-11.4-6.9-8.1-5.2-10.3-15.3-5.2-23.7 4-6.5 8-12.9 12.1-19.4.4-.7.9-1.5 1.5-2.1 9.7-9.4 18.4-19.9 30.1-27.1 5.2-3.3 6.9-7.2 6.8-13.5-4.5-.5-9.1-.8-13.7-1.5-20.4-2.9-40.8-6-61.2-8.6-6.1-.8-12.1.5-16.4 6-4.7 5.9-9.2 11.9-10.7 19.6-.6 3.1-.3 5.2 2.6 7.5 12.5 9.5 12.5 19.1 5.9 31.7-.7 1.4-2.6 2.4-4.2 3.2-6.7 3.4-11.6 8.6-15.2 15.1-2.5 4.6-5.7 8.9-8.9 13.9 3.3 0 6.2.7 8.6-.1 5.1-1.7 9.7-4.4 12.2-9.8 1.9-4.2 6.6-5.6 10.9-3.8 4.1 1.7 8.2 3.4 12.2 5.3 1 .4 1.9 1.4 2.3 2.3 2.1 4.3 3.3 17.7 2.2 22.9-3.3-.1-6.2-.4-8.7-3.4-2.8-3.4-6.9-4.4-11.2-2.8-2.3.8-4.7 1.3-6.9 2.5-5.5 2.8-11.3 3.5-17.2 3-7.9-.7-14.8 1.5-21.1 6.3-3.8 2.8-8.1 4.3-12.8 2.8-.9-.3-2-1.3-2.3-2.2-1.4-5.5-2.6-11.1-3.9-16.8 6-3 11.9-6.1 17.9-9 5.8-2.8 8.8-7.7 9.9-13.9.4-2 .1-3.6-2.3-3.9-5.9-.8-11.9-1.9-17.8-2.2-7.4-.4-12.2-2.9-14.6-9.9-1.1-3.1-.6-6.9-.6-10.3 0-.6 1.2-1.3 2-1.9 7.7-5.2 15.5-10.3 23.1-15.6 2.5-1.8 4.5-4.3 6.6-6.6 1-1.1 1.8-2.4 2.5-3.7 3.2-6.2 7.9-10.4 14.7-12.4 3.6-1 4.7-3.5 6-9.9-8.7-5.5-18.3-1.8-27.6-2.5-1.6 5.1-.6 9.8.3 14.6 1.2 5.8-.8 9.4-6.2 9.9-3.2.3-6.6-.9-9.9-1.5-.4-.1-.8-1.1-1-1.7-1.3-5.9-2.3-11.8-3.7-17.6-1.2-5-1.1-10 .6-14.7 1.1-3.1 3.1-6 7.3-6.4 17.8-1.7 35.3-5.6 53.3-4.9.4 0 .8-.1 1.7-.2-1.2-4.3-.9-8.6-4.5-12.4-7.4-7.9-12.2-17.5-13.7-28.4-.1-.7-.2-1.5-.1-2.2.1-1 .3-2.1.4-3.1 3.6-.6 6.7-.2 9.7 2 4.5 3.3 9.4 6.2 13.9 9.4 1 .7 1.9 2.3 1.9 3.5.4 11.4 7.5 20 18.7 22.4 2.8.6 5.3.2 7.7-1.6 12.1-8.8 24.3-17.3 36.4-26 1.3-1 2.6-2.2 3.5-3.6 4.6-6.9 9.1-13.8 13.5-20.7.9-1.4 1.9-2.3 3.6-1.5 3.2 1.7 6.5 3.4 9.5 5.3 1.3.8 2.2 2.3 3.2 3.5 5.6 7.5 11.1 15.1 17 23-2.9 8.9-11.4 11.7-19.8 11.8-11.2.1-21.6 1.3-31.1 7.4-5 3.2-10.6 4.5-16.5 5-4.5.3-8.1 2.8-11.7 6.2zm57.5 82.1c0-.6 0-1.3 0-1.9-.5-6.3-3.2-10.5-7.9-11.7-1.1-.3-2.8.1-3.5.9-8.6 8.8-17 17.6-25.4 26.5-.5.5-1 1.7-.7 2.3 1 2.5 2.4 4.7 5.4 5.3 1.1.2 2.3.6 3.2 1.3 5.3 3.8 10.4 1.6 15.5-.2.9-.3 1.5-1.6 2.2-2.6 2.4-3.3 4.4-7 7.3-9.8 2.8-2.8 4-6.1 3.9-10.1zm-115.3-23.3c-8.6 6.1-16.4 11.5-24.1 17-1.9 1.3-1.3 6.6.8 8 5.5 3.7 11.2 3.5 16.5-.5 6.1-4.6 8.1-11.4 9-18.5.3-1.7-1.3-3.8-2.2-6z"/><path d="m114.3 257c6.6 4.4 11.1 9.7 13.7 16.6 2.3 6 4.5 12.1 6.8 18.1.2.5.5 1 .5 1.5-.4 5.7 3.4 8 7.8 10.1 5.2 2.6 10.3 5.5 15.2 8.5 4.5 2.7 9.3 4 14.4 5.2 9.2 2.3 18.2 5.4 27.1 8.7 5.6 2.1 11 3.3 17 3 2.5-.1 5.4.5 7.5 1.7 7.7 4.7 15.7 6.4 24.7 4.7 13.9-2.5 27.9-.5 41.7 1.4 6.9.9 13.2-.5 19.2-2.7 8.2-3.1 16.2-6.8 23.8-11.1 4.2-2.4 7.7-6.2 11.3-9.6 3.6-3.5 9.8-4.7 14-2.1.6.4 1 1.5 1 2.3.1 4.4.1 8.9 0 13.3 0 1.1-.7 2.4-1.6 3.1-10.8 9-21.5 18.1-32.6 26.8-4.3 3.4-9.3 6.2-15.4 5.4-2.5-.3-5.4.1-7.8.9-9.9 3.5-19.9 2.6-29.7.4-10.4-2.3-20.7-5.2-30.7-9-5.5-2.1-10.6-4.5-16.6-4.1-2.7.2-5.5.4-8.2-.1-4.2-.7-8.6-1.4-12.6-2.9-9.4-3.5-18.6-7.6-28-11-4.6-1.6-9.6-2.6-14.5-3.1-6.6-.7-12.5-2.9-18.1-6.1-11.1-6.3-20.9-13.9-28.3-24.5-1.6-2.3-2.5-4.3-1.4-7 .8-2 .5-3.5-1.9-4.1-3.4-.9-4.3-3.1-3.9-6.6.9-7.3 1.1-14.8 2.1-22.1 0-1.8 2.1-3.6 3.5-5.6z"/><path d="m32.9 305.2c.9-1.7 1.6-3.4 2.7-5 5.1-7 11.9-11.7 20.2-14.3 5.3-1.7 10.3-4.2 15.6-6.2 1-.4 2.7-.1 3.5.6 3 2.4 4.3 5.6 3.7 9.5-.4 2.4-1 4.9-.7 7.2.4 3.5-1 5.4-3.8 7-3.3 1.9-6.4 4.1-9.7 6.1-3.6 2.1-7.4 2.7-11.6 2.2-4.1-.6-8.3-.9-12.5-1-4.3-.1-6.7-2-7.4-6.1z"/><path d="m192.2 301.2c-2.3-.6-6.5-1.7-10.7-2.9-.6-.2-1.1-.9-1.6-1.4-2.5-3-4.8-6.1-7.5-8.9-3.3-3.3-4-7.3-3.7-11.7.1-.8.8-1.6 1.5-2.3 2.8-2.7 5.7-5.4 8.7-7.9 1-.8 2.6-1.2 3.9-1.1 4.2.5 8.4 1.3 12.5 1.9 3.1.4 5.7 1.6 7.5 4.2 1.9 2.7 2.9 5.2.7 8.6-3 4.6-4.2 9.9-3.7 15.5.5 5.1-.5 6.1-7.6 6z"/><path d="m270.1 303.8c-8.9 3.2-17.5 5.3-26.6 2.6-1-.3-2.4-.9-2.8-1.7-2.2-4.4-4.1-9-6.4-14.3 3.7-1.8 7.2-3.7 10.9-5.1 3.7-1.3 7.5-2.1 11.3-2.8 1-.2 2.5.4 3.2 1.1 5.8 5.4 8.5 12.4 10.4 20.2z"/></svg>