<svg enable-background="new 0 0 400 400" viewBox="0 0 400 400" xmlns="http://www.w3.org/2000/svg"><path d="m303.4 140.2c-2.1 2.1-4.4 4-6.3 6.2-7.7 9.2-11.2 20.2-12.9 31.9-.8 5.2-.3 6.8 4.4 8.8 4.5 1.9 9.4 2.8 14.1 4.1 1.2.3 2.5.4 3.6 1.1 6.1 3.9 12.8 6 20 6.6.6.1 1.3.1 1.8.4 7.2 4.5 15 3.1 22.7 2.1 2.1-.3 4.2-1.3 6.2-1.2 1.7.1 4.1.8 5 2.1 1.3 1.8 1.7 4.7-.9 6.2-3 1.8-6.3 3-9.3 4.6-1.6.9-3.2 2-4.3 3.4-1.9 2.6-3.7 5.1-7 6.1-.7.2-.9 1.6-1.6 2.3-.8.9-1.7 2.1-2.7 2.3-6.5.9-13 1.6-19.4 2.3-.4 0-.9-.1-1.1-.4-3.9-5.2-10.6-5.1-15.7-8.3-5-3.1-10.9-5-16.7-6.5-7.2-1.9-9.4-.7-12.8 5.8-4.3 8.3-8.3 16.7-7.9 26.4.1 1.8.4 3.1 2.2 3.7 3.7 1.1 7.4 2.3 11.2 3.1 2.7.6 5.7.3 6.5 3.8 1 4.1-.7 8.3-3.5 10.3-5.1 3.6-10.5 5.2-16.9 4.5-5.7-.6-7.6 1.3-9.3 6.7-2.2 7.1-4.4 14.1-7 21-2.3 6.1-6.7 10.3-13.3 11.4-.9.2-2.4-.5-2.9-1.3-3.7-5.1-4.3-10.6-2.2-16.5 2.2-6.4 4.1-12.8 6.3-19.2 1.8-5.2 1.1-7.1-3.9-9.6-7.4-3.8-15.4-5.3-23.5-6.1-16.5-1.6-33-3.5-49.7-2.8-1.3.1-3.1-1-3.9-2-4.2-5.6-4.7-12.1-3.5-18.7.1-.8 1.2-1.7 2-2 4.8-2.1 7.9-5.5 9.1-10.7 1.8-7.8 5.5-14.8 9.5-21.7 2-3.4 2.9-7.4 4.1-11.2 1-3.2-.3-5.6-3.4-6.3s-6.5-1.4-9.5-.9c-5.5 1-10.8 3-16.1 4.7-.9.3-1.7 1.1-2.5 1.8-.6.5-1.1 1.5-1.8 1.7-2.2.8-4.5 1.7-6.8 1.6-.7 0-1.6-3.4-1.6-5.3-.1-2.4.6-4.7 1-7.1.3-1.6.9-3.2 1.4-4.9.5-1.8.4-4.3 1.6-5.2 2.9-2 6.1-3.9 9.5-4.7 3.3-.7 6.8.1 9.8 2.5 1.5 1.2 4.1 1.7 6.2 1.6 5.3-.3 10.7-.3 15.7-1.8 3.5-1 7.3-3.7 9.1-6.7 5.4-8.9 10-18.4 14.8-27.7.7-1.3 1.1-2.8 1.2-4.2.6-5.5 1.1-10.9 1.4-16.4.1-2.3 1.1-4 3-4.8 2.8-1.2 5.7-2.1 8.7-2.8.8-.2 2.1.3 2.8.9 2.2 1.6 4.4 2.1 7.1 1.9 17.6-1.7 33.2 4.8 48.6 12 2.8 1.3 5.9 2.2 8.8 3.4 1.6.7 3.2 1.5 4.8 2.4 5.1 2.7 8.9 7.6 15 8.4.5.1 1.1 1.2 1.2 1.9.3 1.8.3 3.6.4 5.4-.3-.2-.6-.3-.9-.4zm-45.7 71.4c-.5-7-3.1-10.4-10-11.9-5.4-1.2-10.7-2.5-15-6.4-.7-.6-1.9-.7-2.9-.9-4.6-1-9.3-1.7-13.8-3-5.4-1.5-10.6-3.6-16-4.9-4.8-1.2-9.5 2.4-10.6 7.1-1 4.1-2.1 8.2-3.5 12.1-3.2 8.4-6.6 16.7-9.9 25-1.9 4.7 1 9 6.2 9.5 1.4.1 3.2.4 4.1 1.3 1.8 1.8 3.9 1.9 6.1 1.8 1.9-.1 3.8-.1 5.7-.1 8.3-.1 16.4.2 24.4 3 3.6 1.3 7.6 1.9 11.4 2.5 6.2 1 9.1-.6 11.8-6.2 3.2-6.7 6.4-13.3 9.4-20.1 1.1-2.6 1.7-5.7 2.6-8.8zm-18-36.1c1.3.9 2.5 2.3 3.8 2.4 6.3.4 12.6.8 18.9.5 2-.1 5-2 5.7-3.7 3.3-9 8.4-17.4 9.1-27.2.1-1.6.9-3.2 1.6-4.8 2.2-5.2 1.6-8.1-3-11.5-1.5-1.1-3.1-2.2-4.9-2.9-11.3-4.5-22.8-8.1-35.1-6.1-6 1-12.2 1.6-17.6 4.9-2.1 1.3-3.6 2.7-3.9 5.3-.5 4.8-2.3 9.2-4.8 13.3-2.1 3.5-3.6 7.5-5.9 10.8-3.6 5.3-1 9.8.3 13.4 3 1 5.1 1.7 7.2 2.4 1 .3 1.9 1.1 2.8 1.1 11.5-.1 13.6-2.2 13.6-13.7 0-5.2.2-10.4.3-15.5 0-1.8.7-2.8 2.6-3.3 5.2-1.4 10.1-.7 14.5 2.4.7.5 1.4 1.5 1.4 2.2 0 10.2-.4 20.3-6.6 30z"/><path d="m105 161.1c3.7 2.5 8.4 3.6 13.3 4.2 2.7.3 5.6.4 8.1 1.3 1.6.6 3.3 2.5 3.8 4.1.3 1.1-1 3.3-2.2 4.2-5.9 4.3-12 8.3-18 12.4-1.7 1.1-2.4 2.4-1.9 4.5 2.9 13.9 2.9 27.9-.4 41.8-.3 1.2-.9 2.6-.6 3.7 2.5 10.2-3.4 19.3-3.4 29.2 0 1.6-.8 3.3-1.7 4.7-5.1 8.1-11.5 15.2-19.6 20.4-5.1 3.2-10.2 6.4-15.5 9.3-2.2 1.2-4.6 2.4-7 2.7-6.1.8-11.8-.3-14.9-8.2-2.6-6.9-3.5-13.9-3-21.2.2-2.2 1.1-3.3 3.4-2.9 1.9.3 3.7.5 5.6 1 4 1.1 7.9 2.3 11.9 3.4.8.2 2 .1 2.7-.3 1.8-1 3.8-2 5.2-3.6 8.2-9.7 15.5-19.8 16.7-33.1 1.2-13.4 1.9-26.8-1.5-40.1-.9-3.6-2.5-5.8-6.3-6.4-1-.2-2-.6-3-1-2.4-.9-4.5-1.5-6.9.5-1.4 1.1-3.8 1.3-5.7 1.4-4.9.2-9 2.1-12.7 5-3.4 2.6-6.7 5.4-11.2 5.3-1.1 0-2.8-.8-3.1-1.7-.8-2.4-1.1-5-1.6-7.6-.1-.6.3-1.3.2-1.9-1-6.1 2-10 7-12.8 1.5-.9 3.4-1.7 5.1-1.6 9.9.9 19.4-.5 28.6-4.2 4.6-1.9 7.2-4.7 7.1-10.2-.2-7 .4-14 .7-20.9.2-4.5-4-8.1-8.6-7.5-3.7.5-7.3 1-11 1.5-.7.1-1.4.4-2 .8-7.9 5.6-16.7 5.8-25.9 4.8-2.1-.2-3.2-1.4-3.4-3.4-.1-.7-.3-1.4-.5-2.2-1.1-6.2.4-9.3 6.6-10.6 6.3-1.3 12.7-2 19.1-2.5 6.2-.4 12.1-1.2 17.6-4.4 3.7-2.1 5.4-5.3 5.4-9.4 0-3.2-.5-6.3-.8-9.5-.1-1.5-.4-2.9-.4-4.4-.1-5.8 3.9-8.6 9.3-6.2 2.3 1 4.5 2.7 6.3 4.5s2.7 3.8 1.3 6.9c-2.3 5.1 2.1 16 10.1 14.5 3.1-.6 6.3-.8 9.5-.8 6.6.1 13.3.4 19.9.8.7 0 1.8 1.1 1.9 1.8.2 1.9 1.6 3.6-.4 5.8-5.4 5.7-12.1 7.2-19.5 7.5-3 .1-5.9.7-8.9.7-3.1 0-4.6 1.6-4.7 4.3-.1 3.9.2 7.8.2 11.7-.3 4.7-.3 9-.3 13.9z"/><path d="m198 225.1c0-1.3 0-2.5 0-3.8.1-5.3 2.5-8 7.9-9.1 5.7-1.1 11.4-2.3 17.1-3.4 2.6-.5 4 .5 3.7 3.1-.2 2.5-1.1 4.6-3.2 6.5-4 3.6-7.5 7.7-11 11.8-3.9 4.6-7.6 5.9-12.5 4.2-2-.7-2.9-1.8-2.6-4 .3-1.8.2-3.6.3-5.4.2.1.3.1.3.1z"/></svg>