<svg enable-background="new 0 0 400 400" viewBox="0 0 400 400" xmlns="http://www.w3.org/2000/svg"><path d="m337 122.9c-3.6.2-6.2.4-8.8.5-5.2.3-10.3.6-15.5 1-1.2.1-2.5.2-3.7.6-6.5 2.5-12.8 5.6-19.4 7.5-12 3.4-24.1 7-36.7 6-5-.4-9.8-2.3-14.7-3.4-1.3-.3-2.9-.3-4 .3-2.6 1.3-5.2 2.9-7.6 4.6-2.1 1.6-4.2 3.3-5.5 5.4-1.7 2.9-3.9 4-7.2 4.1-5.8.3-7.9-2.1-5.6-7.5 2.3-5.5 4.2-11.1 9.5-15.3 10.7-8.4 14.4-21 17.4-33.7.2-.8-.6-2-1.2-2.7-3.1-3.7-4.2-7.7-2.5-12.4.4-1.2.7-2.4.9-3.7.8-4.5 2.1-8.1 7.8-8.2 1.5 0 3.2-2.2 4.3-3.8 1.2-1.6 2.1-1.7 3.9-1.2 3.8 1.1 6.2 3.3 8.6 6.4 7.9 10.6 8 22.1 4.7 34.2-1 3.7-1.6 7.4-4.6 10.2-.9.8-1.4 2.1-1.7 3.3-.7 2.3-.2 4 2.4 5 8 3.1 15.6 2.2 23-1.6 7.2-3.7 14.7-6 22.9-5.3 2.9.3 5.3-.1 7.9-1.8 2-1.3 5-1.7 7.6-1.6 12.9.7 16.8-1.9 20.5-14.2.4-1.2.7-2.4 1.1-3.6 2.2-6.7 7.8-9.9 14.6-8.1.7.2 1.5 1 1.8 1.8 1.7 4.2 3.3 8.5 4.8 12.8.3.9.3 2.1 0 3-5.4 14.7-6 30.2-7.9 45.5-.5 4.3-2.2 8.6-4 12.6-3.3 7.3-4.6 14.7-3.7 22.8.9 8.7 1 17.5 1.1 26.3 0 2.8-.8 5.7-1.6 8.3-2 6-2.9 12.1-1.9 18.4.7 4 .9 8-4.9 8.8 4.8 8.1.6 15.9.3 23.8-.2 4.6-.9 9.3-1.7 13.8-.6 3-1.6 6-2.8 8.9-.9 2.2-2.2 4.3-3.5 6.4-3.3 5-5.4 10.5-6.1 16.5-.1.9-.6 2.3-1.3 2.6-4.2 2.1-6.2 6-7.8 10-2.1 5.4-6 8.7-11 11.2-14.5 7.3-29.4 12.9-45.7 14.1-1.8.1-4 0-5.6-.8-8.7-4.3-18.1-4.5-27.5-4.9-12.3-.6-24.7-1.3-37.2-2 0-2.9 0-5.6 0-8.8 5.4-.4 10.8-.8 16.3-1.1 5.1-.3 10.1-.8 15.2-.8 6.5 0 12-3.1 17.7-5.5 4.3-1.8 8.6-2.6 13.2-2.8 1.9-.1 4.1-.6 5.5-1.7 4.6-3.5 9.9-5 15.1-7.1 2.4-.9 4.8-2.3 6.6-4 8-7.5 16.2-14.9 22.3-24.3 7.7-12 12.4-25.3 15.1-39.1 2.4-12.6 4.2-25.4 5.7-38.3 2.5-21.6 6.4-42.8 11.7-63.9 1.7-7.4 2.2-15 3.4-23.5z"/><path d="m137.2 149.9c-8.3 1.1-16.1 2.1-23.8 3.3-.9.1-1.7 1.1-2.4 1.8-4.2 4.9-13 6.2-18.6 2.9-.9-.6-2.3-.8-3.4-.7-5.4.7-10.7-3.8-10.5-9.3.2-4.3.8-8.6 1.4-12.9.1-.9.7-1.7 1.3-2.4 5.3-6 8.6-13 10.8-20.6 2.5-9.1 5.1-18.1 7.5-27.2.7-2.5 1.6-4.5 4.5-5.1 3-.6 4.4 1.2 5.9 3.3 7.7 10.7 7.7 21.4-.1 32.2-2.9 4-3.8 8.5-2.8 13.2.2.9 1.5 2.3 2.2 2.3 3.8 0 7.6.1 11.3-.7 6.2-1.4 12.2-3.4 18.2-5.5 1.4-.5 2.8-2.4 3.2-3.9 1.7-5.7 3.5-11.4 4.2-17.2 1.1-9.3 1.6-18.7 1.6-28.1 0-4.5-1.7-9.1-2.8-13.6-1.2-4.8-.3-9 3.7-12.6 4.7 3 9.5 6 14.2 9.2.8.6 1.3 1.9 1.5 3 2.8 10.2 4.1 20.5 3.7 31.1-.1 1.8-1.1 3.6-2 5.2-2.1 3.4-4 6.7-3.8 10.9.1 2.1.9 3.7 2.8 4.1 3.7.7 7.4 1.3 11.1 1.5 3.1.2 6.2.1 8.3 3.4-1.9 1.7-3.7 3.3-5.6 5-4.8 4.2-9.6 8.3-14.3 12.6-.8.7-1.8 1.9-1.7 2.8.9 5.4-.5 10.3-2.9 15.1 4 1.8 8 1.9 12 1.3 2.5-.3 5-1 7.5-1.4 2.5-.3 5-.2 6.3 2.5 1.4 2.9.6 5.3-1.7 7.6-4.1 4.1-8.8 6.8-14.4 8-3.8.8-6.4 3.1-9.1 5.8-4.3 4.3-6.7 9.2-7.7 15.1-1.6 8.9-3.4 17.9-5.8 26.6-1.3 5.1-3.8 9.9-5.8 14.7-5.1 12.2-10.2 24.4-15.4 36.5-.9 2.2-2.2 4.3-3.6 6.3-5 7.2-9.9 14.5-15.1 21.6-2 2.7-4.9 4.9-7.1 7.5-1.2 1.5-2.4 3.2-2.8 5.1-1.1 4.7-3.7 8-7.6 10.8-10.5 7.6-21.4 14.5-34.5 16.8-7.7 1.3-15.4.9-23.2-1 1.1-3.7 2.2-7 5.6-9.4 7.8-5.5 15.3-11.3 22.9-17.1.9-.7 2.1-1.8 2.2-2.8.4-3.1 1.9-5.2 4.5-6.8 4.7-2.8 8.5-6.5 10.6-11.8.5-1.2 1.5-2.3 2.6-3.2 19.3-15.2 29.5-36 37-58.7 3-9 5.7-18.1 8.5-27.2.3-1.1.5-2.3.9-4.4-2.6.2-5 0-6.9.7-3.2 1.3-6.5 2.8-9.2 5-6.8 5.5-14.5 7.4-22.9 6-7.4-1.2-14.6-3.1-21.9-4.9-.9-.2-2-1.4-2.3-2.3-.5-1.6.1-2.8 1.8-3.8 8.9-5 18.7-7.8 28.3-11 8-2.6 15.6-6.3 23.3-9.8 5.3-2.4 10.4-5.2 15.5-7.9.9-.5 2.1-1.4 2.2-2.3 1-4.8 1.7-9.7 2.6-15.2z"/><path d="m292.6 182c-1.4 5.1-2.2 10.5-4.3 15.4-3 7.1-6.5 14-10.6 20.5-2 3.2-5.6 5.6-9 7.7-4 2.4-5.6 6.2-7.7 9.8-1.3 2.2-2.9 3.6-5.3 4.5-7.8 2.9-15.5 5.7-22.4 10.9-5 3.8-11.7 3.5-17.8 2.6-13.7-2-13.4-2.2-19.2-14.8-3.1-6.7-3.7-13-1.8-20.1 3.2-12.2 4.4-24.7 4.3-37.4-.1-4.6 1-9.2 2-13.8 1.1-5 10.7-9.5 16.2-7.3 3 1.2 5.8 3.4 8.1 5.7 4.5 4.4 6.5 10.3 8 16.2 1 3.9 1.7 4 5.9 3.7 6.2-.5 11.4-3.7 16.8-6.3 3.1-1.5 4.6-2.9 3.5-6.7-.6-2 .1-4.7 1.1-6.7 4.7-9.5 14.6-14 25.3-10.6.8.2 1.7 1.1 1.9 1.8 1.4 7.7 2.7 15.4 4.1 23.1.1.5 0 1.1 0 1.6.3.1.6.2.9.2zm-75.6 56.5c5.5-1.3 10.6-2.5 15.7-3.9 1.7-.4 3.5-.9 5-1.8 4.3-2.6 8.4-5.3 12.5-8 .9-.6 1.9-1.5 2.3-2.5 1.6-3.6 3.1-7.2 4.5-10.8 1.2-3.1 1.2-6.3.3-9.8-1.6 1-3 1.6-4.1 2.6-3.4 2.8-7 2.5-10.7 1.1-1.9-.7-3.7-1.6-5.5-2.3-5.8-2.2-7.6-1.9-11.2 3.1-1.7 2.3-2.8 5.1-4 7.8-1.9 4.3-3.8 8.6-5.6 13-.2.6-.6 1.2-.6 1.7.3 3.2.9 6.4 1.4 9.8z"/></svg>