<svg enable-background="new 0 0 400 400" viewBox="0 0 400 400" xmlns="http://www.w3.org/2000/svg"><path d="m76.6 134.3c-8.7-4.5-17-6.6-25.4-8.3-.3-.1-.6-.1-.9-.2-13.1-2.6-17.6-9.8-14.1-22.7.3-.9.9-2 1.7-2.5 6.5-3.6 13-6.1 20.8-4.1 6.7 1.8 13.5 1.4 20.3-1.1 3.4-1.2 7.3-1 10.9-1.3 1.8-.2 3.6 0 5.7 0 .7-5.3 1.6-10.4 1.9-15.5.3-4.8.2-9.7.1-14.5-.1-6.6 5.6-11.7 12.1-10.7 8.2 1.3 13.9 5.5 17 13.4 2.6 6.7 5.6 13.2 8.4 19.8 1.3 3.1 3.6 4.4 6.9 4.5 11.4.5 22 4 31.3 10.6 2 1.5 3.9 2.2 6.4 1.9 3.4-.3 6.8-.3 10.1-.7 1.3-.1 2.6-.8 3.6-1.5 5.9-4.7 11.8-9.4 17.5-14.3 2.7-2.3 5.5-4 9-4.3 8.8-.8 15.6-5.4 22-11 5.5-4.9 11.4-5 17.6-.9 1.9 1.3 4.4 2.3 6.7 2.5 18 1.4 36.1 2.5 54.1 4 6.4.5 12.8 1.6 19.1 2.9 2.6.5 5.1 2 7.4 3.5 7.1 4.5 6.7 14.6-.5 18.7-10 5.7-20.6 8-32 5.3-4-.9-8.2-1.2-12.2-1.8-7.6-1-15.1-1.6-22.4-4.8-9.4-4-19.9-3.2-30.1-3.7-2.9-.1-5.8-.4-8.6.1-7.3 1.3-14.9 2.3-20.6 7.9-2.9 2.8-6.4 4-10.4 3.8-4.3-.3-7.5 1.7-10.6 4.2-1.6 1.2-3.2 2.5-4.8 3.7-5.1 3.8-10.8 2.9-16.5 2.4-11-.9-21.9-1.8-32.9-2.7-7.9-.6-17 4.2-20.2 10.3-1.4 2.7-1.8 5.1 1.1 7.2 1.1.8 2 1.8 2.9 2.9 2 2.4 4.1 4.2 7.3 1.7.5-.4 1.6-.3 2.4 0 5.2 1.6 10.5 3.2 15.7 4.9 2.5.8 5 1.8 7.3 3.1 4.5 2.7 5.3 8.2 2.9 12.8-2.9 5.6-7.3 7.9-13.4 7.6-2.8-.1-5.1.8-7.2 2.7-3.5 3.2-7.4 6-10.9 9.3-1.2 1.1-2.1 2.9-2.3 4.5-.5 3.6-.9 7.2-.6 10.8.5 7.7-1.8 14.2-6.6 20.2-1.6 2.1-2.4 4.9-3.2 7.4-1.1 3.2-1.9 6.5-2.9 9.7-3.4 11.1-10.6 17.7-21.9 20.7-6 1.6-11.5 5.1-17.2 7.9-.5.2-1 .9-1.2 1.4-.9 3.5-3.5 4.6-6.6 5.5-4.4 1.2-8.9 2.4-12.9 4.3-7.5 3.6-18.2-1.7-22.7-6.5-2.8-2.9-3.4-6.4-2.4-10.3 3.3-12.3 3.2-12.5 15.9-14.4 5.9-.9 12-.8 18-1.3 1.6-.1 3.4-.4 4.9-1 9.5-3.9 18.8-8.1 26.1-15.8 11.5-12.2 16.5-26.1 12.9-42.7-.3-1.6-1.5-3.2-2.8-4.3-5.9-4.7-12.7-4.7-19.6-3.5-2.2.4-4.5.4-6.6 1-8.8 2.7-15.4-1.7-22.1-6.3-.5-.4-.8-1.6-.7-2.4.8-5.1 1.6-10.2 2.7-15.3.3-1.4 1.2-2.9 2.3-3.9 1.8-1.6 4.1-2.7 5.9-4.2 2.2-2 4.4-4.1 7.1-6.6zm20.8-.1c-1.8-9-14.1-10.5-21.1-4.2.8 2.2 1.5 4.4 2.4 6.5.3.7 1.1 1.7 1.6 1.6 5.9-.2 11.8-.4 17.1-3.9z"/><path d="m363.1 343.4c-7 1.2-13.1 2.3-19.3 3.1-1.8.2-3.7-.5-5.6-.9-1.4-.3-2.9-.8-4.3-1.1-11.7-1.9-22.1-6.5-31.1-14.5-5.4-4.8-11.5-8.7-17.2-13-.8-.6-1.9-1.4-2-2.3-.6-3.8-3.4-5.7-6.2-7.6-7.9-5.5-15.1-11.8-20.3-20.2-1-1.6-3.1-2.9-5-3.5-5.2-1.9-8.4-5.7-11-10.4-.9-1.5-1.9-3.1-3.2-4.2-4-3.2-8-2.7-11.5 1-.9 1-1.8 2.1-2.8 3-3.1 2.5-4.6 5.7-4.4 9.6.1 1.9-.9 2.6-2.5 3-.5.1-1 .4-1.5.5-3.9.9-6.9 2.8-9.2 6.4-3.3 5.3-8.2 8.3-14.7 8.5-1.8.1-3.9 1-5.1 2.2-3.3 3.2-6.7 2.2-10 .6-3-1.5-4.8-4.4-4.8-7.7.1-5.5 1.2-10.4 6.5-14.1 12.6-8.6 24.7-17.9 34.6-29.7 4.7-5.6 8-11.8 8.7-20.3-6.4-.9-12.6-1.8-18.8-2.6-1.3-.2-2.5-.1-3.8-.2-6.5-.6-10.8-7.3-8.4-13.4.3-.7 1.1-1.3 1.7-1.6 2.5-1.2 5.1-2.2 7.5-3.5 1.7-.9 3.5-2 4.9-3.4 2.6-2.7 3.7-5.6 1.5-9.4-1.9-3.3-3-7-4.8-10.4-2.7-5.1-3.1-10.5-3.9-16.1-.7-5.2-1.2-10.4-1.7-15.7-.3-3.7-1.5-7.4-1.8-11.1-.1-1.1.9-2.8 1.9-3.4 5.6-3.5 12.3-2 16.1 3.2 1.5 2.2 2.9 4.5 4.6 6.4 3.6 4 4.5 8.7 4.7 13.8 0 1.4.1 2.8.3 4.1.3 2.4 1.5 4.2 4.2 4.5 2.7.2 5 .5 7.2-2.3 5.5-7 5.1-15.4 6.7-23.4.3-1.7.7-3.6 1.5-5.1 1.4-2.9 4-3.6 7.1-3.7 2.9-.1 3.8 1.6 4.7 3.8 2.9 6.4 6 12.6 8.7 19 .9 2.2 2 2.2 4.1 2 8.2-.8 14.1-5.7 19.5-11 2.7-2.6 4.2-6.8 5.3-10.6 1.3-4.8 4.1-7.9 8.1-10.5 2.1-1.3 3.8-.9 5.5.5 4 3.3 5.1 10.3 2.9 15.1-3.6 7.8-8.9 13.8-16.5 18-2.7 1.5-4.7 4.4-7.1 6.5-1.1.9-2.3 2-3.6 2.4-5.6 1.7-8.9 5.4-10.4 11.4 3.5 2.3 7.1 4.8 10.9 7.1.6.4 1.6.2 2.4.2 2 0 4-.3 6-.2 3.7.3 7.2.5 11.1-.4 3.5-.8 7.6 1.1 11.4 1.7 6.4.9 9.3 5.9 11.9 10.8 1.8 3.3.6 6.5-2.5 8.9-8.5 6.3-18.3 7.7-28.5 7.9-9.7.2-19.5.5-29.2.9-8.9.4-15.4 7.7-14.7 16.2.1 1.8.6 3.1 2.6 3.8 2.1.7 4.2 1.6 6.1 2.7 2.5 1.6 5.1 3.3 7.2 5.4 2 2 3.8 3.9 6.7 4.3.9.1 1.8.6 2.7.8 15.2 3 27.9 11.3 40.3 19.9 4.9 3.4 10 5.4 15.9 4.5 2.8-.4 4.1.7 4.8 3.4.6 2.1 1.7 4.4 3.3 5.9 3.2 3 5.5 6.3 6.3 10.7.3 1.8 1.1 3.4 1.5 5.2.7 3.8 2.4 6.7 6.3 7.9 2.3.7 3 2.4 3.2 4.6.6 6.3 2.7 12.1 5.5 17.8 1.3 2.3 1.8 5.2 2.8 8.3z"/></svg>