<svg enable-background="new 0 0 400 400" viewBox="0 0 400 400" xmlns="http://www.w3.org/2000/svg"><path d="m347.7 66.6c-6.3 3.6-12 7.1-17.8 10.3-1 .6-2.5.5-3.7.5-12.5-.5-24.9-.9-37.4-1.5-1.5-.1-3-.8-4.4-1.3-1.7-.6-3.3-1.7-5-1.8-10.2-.8-20.4-2.1-30.6-1.9-12.5.3-24.9 3.6-35.5 9.8-10 5.8-20.3 8.3-31.3 9.9-2.3.3-4.8 1.3-6.7 2.6-9.3 6.6-19.9 9.3-30.7 11.1-8.3 1.3-10.2 5.7-9.2 14.6.1.7 1 1.5 1.7 1.8 6.1 2.3 12.4 3.4 19 2.3 6.4-1.1 8 .8 7.8 7.4-.2 10.9-7.6 14.9-16.3 17.8-3 1-6.1 1.8-9.2 2.6-11.3 2.7-17.4 10.4-18.1 21.3-.8 13-6.3 23.2-14.7 32.5-8.9 9.7-18.4 18.8-30.6 24.3-6.7 3-13.7 5.5-20.6 8.2-3.1 1.2-6 1.1-8.4-1.7-1.2-1.3-2.7-2.4-4-3.6-4.8-4.4-4.3-10.5 1.2-13.9 3.6-2.2 7.2-4.4 10.8-6.7 2.5-1.6 5.1-2.9 8.2-2.9 1.1 0 2.7-.6 3.3-1.4 6-8.4 14.7-13.6 22.9-19.3 6.8-4.8 9.4-11.3 10-19.2.1-1.8-.4-3-2-3.4-2.7-.7-5.5-1.3-8.3-1.9-5.9-1.1-11.6-.5-17.2 2-5.4 2.3-11.2 3.9-16.7 5.9-4.8 1.8-9.2.6-13.2-2-.7-.5-1.2-1.4-1.6-2.2-.7-1.7-1-3.5-1.8-5-2.8-5-1.8-8.9 2.7-12.2 1.1-.8 2.2-1.6 3.5-1.9 12.2-2.6 24.4-5.1 36.6-7.6 5.8-1.2 10.6-4.1 13.9-9.2.8-1.3 1.4-2.9 1.7-4.4.9-5.1-.2-6.6-5.3-7.4-12.6-1.9-24.8.1-37.1 2.7-3.6.8-7.3 1.1-11 1-5.3-.1-8.7-3.7-9.4-9-1.2-10.2-.1-11.9 9.9-13.3 4.6-.6 9.3-.3 13.9-.6 5.5-.3 10.9-.7 16.4-1.3 3.3-.4 5.7-2.4 7.2-5.6 6.1-13.5 23.9-21.3 37.9-16.7.7.2 1.5.7 2 1.4 3.8 5 8.9 8.1 14.6 10.2 2.5.9 5.6 1.2 8.3.7 10.7-1.9 21.6-3.5 32-6.6 9.3-2.8 18.3-7 27.2-11.2 13.2-6.3 26.2-13.2 39.3-20 2.1-1.1 3.5-1.1 5.4.3 5.2 3.9 11.7 4.8 17.7 5 20.9.6 41.9.5 62.8.7 5.6 0 11 1.2 15.5 4.6 1.3 1.3 2.6 3.2 4.4 5.2z"/><path d="m155.8 348.1c-1-2.4.2-3.3 2-4 11.1-4.3 22.2-8.7 33.3-13.1 1.1-.4 2.5-.8 3-1.6 2.1-4.1 6.1-5.6 9.8-7.7 12.7-7.1 20.6-18.2 25.9-31.4.3-.8.4-1.8.9-2.4 4.4-5.3 4-11.5 3.8-17.8-.1-3.3 0-6.6 0-9.8 0-4-2.6-6.4-6.5-5.1-5.3 1.8-10.8 3.6-15.3 6.7-8.7 6-18.2 6.3-28 5.6-1.7-.1-3.7-2.3-4.8-4-1.3-2 1.1-3 2.2-4.3 2.1-2.3 4.7-3.3 7.6-4.1 4.2-1.1 8.3-2.5 12.2-4.3 7.6-3.5 11-9.6 10.4-18.5-4.1.2-8.2-1-12.1 2.5-2.2 2-5.8 3.1-9 3.5-7 1.1-8.5-.2-11-7.8 6.3-5 12.7-10 19.2-15 .8-.6 1.9-.8 2.9-1.2 3.3-1.4 6.8-2.4 9.9-4.1 5.6-3.1 6.5-6.3 3.6-12.5-6.2 2.5-13.2 3.1-18.8 7.7-2.6 2.1-6.4 3-9.8 3.8-4.4 1-8.5 2.3-12.1 5.2-6.5 5.3-13.9 8.4-22.4 8-1.4-2.5-.6-3.9 1.4-5.7 9.2-8.1 19.5-14.9 29.7-21.7 7.9-5.2 12.4-17.1 8-27.4-2.4-5.7-3.6-11.1-3.5-17.1.1-3 1.2-5.2 3.4-7.4 3.7-3.7 7.5-5.5 12.7-4.3.7.2 1.5 0 2.2.2 7.1 1.1 14.2.8 20.8-2.4 2.8-1.4 5.3.1 7.8-.2 5.4-.7 10.7-1.6 16-2.2 1.6-.2 3.4.3 5.1.9s3.2 1.6 4.8 2.4c5.7 2.6 6.7 6.8 3.4 12.1-1.3 2-1.9 4.8-1.8 7.2.4 6.8-1.9 11.9-7.1 16.4-5 4.3-10.1 7.9-16.1 10.3-2.5 1-4.5 2.7-5.1 5.6-.4 2-.1 3.4 1.8 4.5 4.5 2.5 9.2 3.7 14.3 3.2 1.2-.1 2.3-.2 3.5-.3 2.6-.2 5.2-.3 6.2 2.9 1 3.1-.2 5.8-3 7.3-4.5 2.4-9 4.7-13.5 7.1-3 1.6-5.2 3.9-6.1 7.3-1.1 4-.5 5.4 2.7 8 2.5 2.1 4.7 4.5 6.9 7 2.2 2.4 4.5 4 7.9 3.9 1.8-.1 2.6-.8 3-2.5 1-4.4 2.2-8.8 3.3-13.2 1-3.7 7.9-7.8 11.6-7.2 12.8 1.9 25.7 3.7 38.6 5.7 2.4.4 4.7 1.5 7 2.3 2.9 1 5.6 2.4 8.6 3 3.7.8 6.1 2.7 7.7 5.9.8 1.7 1.5 3.5 2.5 5.1 1.8 3.1.9 5.8-1.4 8-8.7 8.3-19 12.1-31 10-4.9-.8-9.8-1.8-14.7-2.5-1.2-.2-2.8.1-3.9.7-10.1 5.3-20.2 10.7-30.3 16-4.3 2.3-6.8 6-8.4 10.3-1 2.8-2 5.6-2.5 8.5-1 6.6-3.9 12.4-7.4 18-2.4 3.8-4.6 7.8-6.9 11.8-1.6 2.8-3.1 5.1-6.5 6.5-2.5 1-4.1 4.1-6.3 6.1-1.4 1.2-2.9 2.5-4.6 3.2-9.9 4.2-19.9 8.2-29.8 12.5-4 1.7-7.9 2.5-12.2 1.8-5.1-1.1-10.4-1.4-15.7-1.9zm55.5-190.4c.7 6.7 3.3 10.5 9.3 11.4 1.7.3 3.4 1.3 5.1 1.6 1.1.2 2.5.2 3.6-.2 5-2.1 9.8-4.4 14.7-6.6 2.3-1 2.6-2.9 2.1-4.7-.4-1.4-1.7-3.2-2.8-3.4-3.4-.6-6.9-.6-10.3-.5-3.8.1-7.5.6-11.3 1.1-3.4.4-6.9.9-10.4 1.3z"/><path d="m362.8 194.5c-6.8.8-12.6 1.6-18.5 2.2-.7.1-1.7-.6-2.4-1.3-5.1-5.1-11-6-17.5-3.5-12.3 4.8-24.5 9.7-36.8 14.5-.7.3-1.3.5-2.2.9-1-4.3-1.9-8.2-2.7-12.3-.1-.6.7-1.7 1.3-2.1 2.8-1.7 5.9-3 8.5-4.8 2.4-1.6 4.3-3.8 6.6-5.8-5-3.7-9.4-6.9-13.6-10.4-4.3-3.6-7.1-8.3-8.3-14.5 7.8 0 15.4.1 23 0 4.5 0 9.1.2 13.5-.6 5.2-.9 7.4-4.8 6.6-11-8-.5-16.2-1.1-24.4-1.4-6.2-.2-11.6-2-16.3-6-.5-.5-1-1-1-1.1 3.2-2.7 6.3-5.4 9.5-8 .2-.2.5-.3.8-.4 14.8-4.8 29.4-5.5 43.6 1.8 3.1 1.6 5.1 3.6 5.7 7.4 1.1 6.8 3 13.4 4.3 20.1.5 2.5.8 5.3.3 7.8-1.4 7.8 2.7 12.3 8.6 16.1 2.6 1.7 5.3 3.2 7.4 5.3 1.8 1.8 2.6 4.3 4 7.1z"/><path d="m203.1 110.3c12.3-1.9 24.7-3.3 36.9-5.7 11.3-2.2 22.3-5.6 33.5-8.2 6.7-1.6 13.5-2.6 20.2-4.1 2.5-.6 4.7-2 7.1-3.1 2.7-1.3 5.3-2.9 8.1-3.9 2.9-1 6-1.3 8.9-2.4 5.9-2.2 11.5-1.5 17.3.4 3.6 1.2 5.8 4.2 5.3 7.9-.1.7-.7 1.5-1.3 1.9-5.2 3.6-10.3 7.5-15.9 10.4-3.6 1.9-8.1 2.2-12.2 3.2-1.1.3-2.3.6-3.2 1.2-7.1 4.6-14.6 6.3-23.2 6-5.8-.2-11.6 1.4-17.4 2.6-8.4 1.8-16.6 4.2-25 5.9-5.2 1.1-10.7 1.3-16 1.9-8.4 1-16.8 2.1-25.1 3.1s-16.4.7-24.5-1.5c-1.7-.5-2.4-1.3-2.6-3-.1-1.8-.2-3.1 1.8-4.1 5.6-2.7 10.9-6.1 16.6-8.5 3.2-1.3 7-1 10.5-1.4.1.6.1 1 .2 1.4z"/></svg>