<svg enable-background="new 0 0 400 400" viewBox="0 0 400 400" xmlns="http://www.w3.org/2000/svg"><path d="m135.8 119.8c-3.5-3-4.3-7.1-4.5-11.4-.3-4.2-.3-8.5-1.2-12.6-1.1-5.2-2.5-5.9-7.7-5.6-5.5.3-11 .5-16.5.7-.8 0-1.8.2-2.5-.1-6.4-3.3-12.8-1.1-19.2-.3-6.5.7-13.1.9-19.6 1.1-1.7 0-3.5-.7-5.1-1.5-2.1-1.1-3.3-2.8-2.6-5.5.6-2.1 1.1-4.4 1.2-6.5.1-4 2.5-5.6 5.9-6.1 5.2-.7 10.6-.9 15.7-2 13.9-2.8 27.8-1.9 41.7-1.3.8 0 1.7.1 2.5 0 4.6-.2 6.2-2.8 4.2-7-.5-1-1.1-2-1.7-3.1-3.1-6-2.9-6.6 2.1-11.1 1.2-1.1 2-2.6 3-3.9.6-.8 1.2-1.8 2-2.3 2.9-1.9 11.2-.7 13.4 2 .7.9 1 2.3 1.1 3.5 3.5 38.7 3 77.6 4.2 116.4 0 1.4-.7 2.7-.9 4.1-.2 1.2-.2 2.5 0 3.7.3 1.7 1 3.2 1.3 4.9.2 1.2.3 3.1-.3 3.6-3.2 2.3-1.5 5.1-1.1 7.7.8 4.7 2.2 9.3 2.6 14 .5 4.6.1 9.3.1 13.9 0 .5-.2 1-.2 1.6-.6 11.1.2 12.3 10.5 15.3 6 1.7 10.7 5.4 15.2 9.5 4 3.6 8.1 7.1 13.6 8.4 4.9 1.2 5.3 1.2 7.8-3.2 8.2-14.1 13.1-29.5 17.5-45.1 1.5-5.2 2.4-10.5 3.8-15.7.8-2.9-.3-4.3-3.1-4.4-2-.1-4 .1-5.9.5-4.3.9-8.6 1.9-12.9 3-.7.2-1.4.4-2 .9-7.4 5.9-16.3 7.2-25.4 7.7-5.3.3-10.8-4.6-10.5-8.8.1-1.2.7-2.3 1.3-3.4.5-.9 1.4-1.5 2.1-2.4 4.8-6.6 10.9-11.2 19.1-13 1.8-.4 3.2-2.6 5.1-3.4 15.1-6.6 30.4-10.5 46.4-2.6 2.8 1.4 5.9 2.2 8.9 3.3 6.4 2.3 8.1 10.4 4 15.8-2.2 2.9-3.7 6.8-4.1 10.4-1.8 15.7-8 30.2-12.5 45.1-2.6 8.5-5.8 16.7-8.8 25.1-.3 1-.5 2-.8 3.1-.8 2.9-.2 5 2.3 7.1 5.2 4.4 10.6 8.4 16.6 11.5 8.3 4.4 16.6 8.9 24.6 13.8 9.7 5.9 20.6 8 31.2 11.3 16.3 5.1 32.8 9.8 49.2 14.7 4.9 1.4 8.9 4.1 12.3 8 4.1 4.7 2.4 8-1.9 11.8-2.7 2.4-6.3 3.9-9.8 5.1-10.3 3.5-20.6 6.9-31.1 9.9-6.4 1.9-12.9 1.3-19.4-.5-4.7-1.3-9.5-2.1-14.2-3.2-.8-.2-1.7-.3-2.4-.8-8.8-5.9-17.7-11.7-26.2-17.9-9.2-6.8-17.9-14.3-27.1-20.9-6.5-4.7-13.6-8.5-20.5-12.7-1.4-.9-2.7-1.3-4 .6-10.4 15.4-24.9 26.7-38.3 39.1-5.5 5.1-10.6 10.6-15.9 15.9-4 4-6.3 4.8-10.7 4 1.8-5.4 2.6-11.3 5.4-16 9-15.1 18.8-29.6 28.2-44.5 4.2-6.7 7.9-13.8 9.5-21.7.2-1 .3-2.6-.3-3.2-5.9-6.2-11.9-12.3-18.1-18.2-2-1.9-4.9-2.7-7.8-4.1-1 2.8-1.8 5.1-2.6 7.5-1.8 5.3-3.7 10.6-5.2 16-1.7 6.1-4.4 11.6-8.5 16.5-2.7 3.1-4.3 6.7-4.8 10.8-.4 3.9-2.5 6.8-5.7 9.2-12.1 9.1-25.4 15.3-40.3 18.5-4.2.9-8.4 2.9-12.2 5.1-5.6 3.2-12.9 1.7-16.2-3.8-1.4-2.4-2.7-4.8-4-7.2-4.3-8.1-4.3-13.2 0-21.2-2-1.3-2-1.3-4.3 1.7-2.9-4.6-4.2-9.5-4-14.7.8-20.1-3.6-39.8-4.3-59.8 0-1.3-.5-2.7-.9-4-1.9-6.9-3.5-13.9-2.8-21.2.3-2.6-.9-5.3-1.5-8.3 4.2-2.1 8-5.9 13.5-5.5 1.8.1 2.7-.9 2.9-2.6.2-1.9 1.4-2.5 3.1-3 12.7-3.3 25.3-6.7 38-10.1 8-2.1 16-.8 23.9.3 2.6.4 5.1 1.2 7.5 2.1 2.3.9 3.6 0 3.9-2.1 1.2-7.8 2.3-15.7 3.2-23.6.1-.9-1-2.4-1.9-2.9-6.7-3.5-14-4.6-21.3-3.6-12.4 1.7-24.8 4-37.2 6-4.7.7-9.8 0-13.6 3.9-6.6.2-13.4 1.3-19.8.4-3.1-.4-5.6-4.4-8.1-6.5 4.2-2.4 8.3-4.8 12.4-7.2.1-.1.2-.2.3-.2 8.9.2 15.3-7.2 24.1-7.7 7.3-.4 14.4-2 21.7-2.9 1.8-.2 3.7.3 6.1.6 2-2.8 5.7-3 9.4-3.1 5.9-.1 11.8-.2 17.8-.4 6.7.3 10.6-3.2 12.6-9.1zm-7.6 146.8c-.2 0-.5-.1-.7-.1 0-1.4 0-2.8 0-4.1-.3-6-1.3-6.7-7.4-5.7-8.6 1.3-17.1 2.5-25.7 3.4-9 1-17.8 2.4-25.3 8.1-1 .8-1.8 2.2-2 3.5-.7 5.1-1.3 10.3-1.7 15.4-.5 6.3-1.3 12.6-1.2 18.9.2 6.5 1.2 7.1 7.6 6.8 1.4-.1 2.8-.2 4.1-.4 16.3-3.4 31.4-9.9 45.9-17.8 1.2-.7 2.4-2.2 2.6-3.5 1.4-8.2 2.6-16.4 3.8-24.5zm-66.3-62c.8 4.3 1.8 8.2 2.1 12.2.3 5.5-.1 11 0 16.5.1 6.1 2.6 8 8.3 6.6 11.6-3 23.3-5.6 35.4-3.3 2.7.5 5.4 1.9 7.7 3.5 1 .7.8 3 1.3 4.7h8.8c4.3 0 5.1-.8 5.5-5.3.1-1.8.2-3.8 1.1-5.1 1.4-2 1.6-3.7.6-5.8-.3-.7-.5-1.4-.5-2.1.1-6.3.4-12.6.2-18.9-.1-4.3-.5-8.6-1.3-12.8-.4-2.3-2.1-3.2-4.8-2.4-5.2 1.5-10.4 2.8-15.7 4-14.8 3.3-29.2 8.9-44.7 8.1-1.2-.2-2.4 0-4 .1zm80.8 29.6c2.4 0 4-1.9 4.1-4.5 0-2.6-2-3.3-3.6-2.8-1.8.6-3.6 2.1-4.6 3.7-.8 1.4 2 3.7 4.1 3.6zm39.5 21.1c-4.7-2.1-7.1 1.4-10.6 2.3.9 1.8 1.6 3.1 2.4 4.7 2.9-2.4 5.3-4.5 8.2-7z"/><path d="m51.1 86.7c-1.9-1.7-3.7-3.3-6-5.4.2 1.4.6 2.3.5 3-.3 1-1.1 2.7-1.5 2.6-3.1-.4-6.2-1.1-9.2-1.9-.1 0-.1-2.7.5-3 4.6-2.6 9.3-5 14-7.3.6-.3 1.8.2 2.3.7 2.8 3 2.5 8.1-.6 11.3z"/></svg>