<svg enable-background="new 0 0 400 400" viewBox="0 0 400 400" xmlns="http://www.w3.org/2000/svg"><path d="m117.5 182.1c4.7 4.1 5 9.2 3.6 14.8-.8 3.4-1.3 6.8-2.1 10.2-.3 1.2-1.1 2.2-1.5 3.4-1 3.1-2.1 6.1-2.6 9.3-.4 2.2.8 3.7 3.1 4.8 7.6 3.6 15.5 5.5 23.9 5.5 6.9 0 13.8.5 20.6-.2 8.4-1 16.8-1.4 25.2-1.3 1.4 0 2.9-.4 4.4-.6-1-5.1-.4-9.4 4.7-11.8 5.5-2.6 8.4-6.9 8.9-13.1.3-3.3 2.7-5.6 5.5-7.4 3.4-2.2 6.6-4.5 9.9-6.8.3-.2.6-.4.7-.6 1.4-2.4 2.7-4.8 4.1-7.3-2.1-1.1-4.2-2.3-6.3-3.4-.6-.3-1.4-.5-2.2-.5-8.9-.2-16.3-4.6-24.1-8.3-2.7-1.3-5.8-1.9-8.8-2.2-3.3-.3-5.4-1.5-6.3-4.8 4.1-3.4 8.9-3.5 13.8-2.6 4.8.8 9.7 1.3 14.4 2.5 4.5 1.1 8.8 3 13.2 4.5 3.3 1.1 6.5 2.3 10.3 1.2 2.6-.7 5.6.3 8.5.7 5.3.7 9.2-1.3 11.5-6 1.4-2.8 2.4-5.8 3.5-8.8 1-2.6.2-4.5-2.4-5.2-2.7-.7-5.5-1.2-8.3-1.4-4-.2-8 .1-12 .2-.6 0-1.4 0-1.9-.3-4.8-3.2-9.6-1-14.4-.3-2.2.3-4.4.7-6.6.5-5.4-.4-8.1-3.9-7.2-9.3.7-4 1.7-8 2.6-12 .3-.2.5-.3.7-.3 5.8.8 5.5.7 7.1-5 .9-3.3 2.8-6.3 4.4-9.3.5-.9 1.2-1.7 2-2.5 5.9-6 9.9-13.1 10.7-21.6.2-2.1 1.3-3.3 3.1-3.9 4.5-1.2 9.1-2.4 13.7-3.5 1.6-.4 2.5.5 2.9 2.1s.9 3.3 1.5 4.9c.7 2.1 1 3.7-.8 5.9-3.6 4.5-.6 11.2 5.1 11.5 11.5.7 23 .9 34.5 1.4 1.6.1 3.2 0 4.8.1 4.6.4 6.3 2.2 6.5 6.7 0 .5-.1 1.2-.4 1.4-3 1.9-5.2 4.9-9.2 5.1-9.2.4-18.4 1.5-27.6 1.5-6 0-11.9-1.9-17.8-2.6-6.5-.8-12.1 1.6-16.5 6.2-2.8 3-2.3 5.4 1.6 6.7 2.9.9 6.2 1.2 9.2.8 5-.6 9.8-.8 14.7.9 1.9.7 4.3-.1 6.4.1 1.2.1 2.3.7 3.4 1.1.2.1.3.3.4.5 4.1 5.2 4.1 5.1 10.5 3.2 1.1-.3 3.1 0 3.6.7 1.5 2 2.9 4.3 3.7 6.7.6 2-.3 3.8-2.5 4.9-1.4.7-2.8 1.7-3.6 2.9-2.8 4.1-6.7 6.6-11 8.8-1.8 1-3.5 3-4.3 4.9-1 2.4-.3 4.8 2.4 6.1 4.1 1.9 8.2 3.9 12.3 5.7 1.3.6 2.8 1.1 4.2 1.4 8.5 1.5 13.4 6.5 14.3 15.3-4.5 1.4-9.3 1.2-14.1.1-6.8-1.6-13.6-3-20.4-4.6-1-.2-1.9-.8-2.8-1.4-5.4-3.4-10.5-2.6-14.6 2.1-1.3 1.5-2.7 3-3.9 4.6-3.7 5.1-8.3 8.9-14.3 10.9-1 .3-2 1.2-2.8 2-2.7 2.7-5.4 5.3-7.9 8.2-1.1 1.3-1.7 3.1-2.9 5.3 6.3 1 11.7 1.8 17.1 2.6 2.2.3 4.4.9 6.6.9 2.1 0 4.2-.5 6.4-.7 1.8-.2 3.8-.5 5.6-.2 3.1.5 6.2 1.4 9.3 2 3 .7 6.4 7.1 5.1 9.8-.4.7-1.5 1.3-2.4 1.6-8.8 2.7-17.8 2.9-26.7 1.6-12-1.8-24-2.8-36-2.6-8.1.1-16.3 1-24.3 2.5-8.9 1.6-17.7.7-26.5-.4-4.6-.6-9-.6-13.7.5-5.2 1.3-10.9.8-16.4.9-8.7.1-17.3 0-26.5 0-.1-2.6-.4-5.8-.4-9 0-.6 1.2-1.6 2-1.8 5.7-1.1 10.1-4.7 14.6-8.1 1.4-1 2.4-3.4 2.3-5.2-.3-6.4-1.2-12.7-1.8-19.4-3.4 1.2-7.7.8-11.3 3.9-1.8 1.5-4.7 1.7-7 2.7-3.1 1.3-6 2.7-9.1 4.1-.8.4-1.8.9-2.6.9-3.2-.3-5.9 1-8.8 2.2-6.6 2.6-13.3 4.9-20 7-1.9.6-4 .3-6 .5-2.5.2-3.6-.8-3.9-3.4-.2-2.2-.8-4.3-1.3-6.8 3.9-1.3 7.8-2.3 11.4-3.8 6.7-2.8 13.3-6 19.9-9 1.2-.6 2.5-1.1 3.8-1.3 8.2-1.1 15.8-4.1 22.9-8.1 3.8-2.2 6.9-5.7 10.7-8.8-5.9-3.8-11.4-4.4-17.2-3.6-4.1.6-8.2 1.1-12.2 1.6-1.2.1-2.5-.2-3.8-.5-5-1.2-5.5-2-5-7.1.7-7.3 1.4-14.5 2.2-21.8.1-.8.6-1.6 1.1-2.2 2-2.5 4.1-4.9 6.2-7.2 3.6-4 7.7-4.5 12.4-1.7 3.4 2 7 1.5 10.5.7 3.6-.8 7.2-1.9 10.7-3 4.8-1.5 7.1-5 6.9-10.1-.1-2.4-.6-4.8-.9-7.6-2.7 0-5.2 0-7.7 0-4.7 0-9.3-.2-14 0-7.1.4-14.1.9-21.1 1.7-5.2.6-7.2-.6-8.1-5.9-.5-2.9-1.9-6.2 2.3-7.7 1.1-.4 2.2-.6 3.3-.6 4.4-.1 8.8-.2 13.3-.2 7.5 0 15 .4 22.5-.2 3.9-.3 7.7-1.9 11.3-3.5 3-1.3 3.7-3.9 2.4-7-2.1-4.7-1.4-8.6 2.5-11.9 2.4-2 4.7-4.2 7.1-6.3 2-1.7 4.1-1.6 6 .1 1.7 1.5 1.5 4.9.1 6.9-1.8 2.6-3.7 5.2-4.8 8.1-2.3 5.7-1.1 8.1 5 8.4 9.3.5 18.6.2 27.9.4 5.9.1 11.8.4 17.6 1 2.6.3 4.5 2.2 4.9 5.1.4 2.3-.1 3.6-2.7 4.3-9.6 2.6-19.3 3.3-29.2 3.9-8 .4-16 1.4-24 2.1-1.7.2-2.7.8-2.7 2.7-.1 1.7-.6 3.3-.7 5-.1 1.9-.9 4.9 0 5.6 2.6 2.1 5.8 3.6 9 4.7 1.8.6 4-.3 6-.1 3.5.4 7 1.3 10.5 1.6 2.9.3 5.9.1 8.8.2 3.3.1 6.6-.3 9.8.3 3.9.7 5.9 4.6 4.5 8.3-1.6 4.2-1.8 9-5.1 12.7-2 2.2-1.7 5.3-.3 8.1 3 6.5-.5 12.7-7.9 13.1-11.6.8-23.2 1.2-34.8 1.7-3.3.9-6.1 1.7-7.6 5.4zm21.7-17.7c0-.2 0-.4 0-.5 3.4 0 6.8.4 10.1-.1 8.4-1.2 6.7-.4 6.4-7.7 0-.6-.1-1.3-.1-1.9-.3-5.1-.3-5.2-5.4-6.3-.7-.2-1.5-.3-2.2-.4-7-.9-14-1.7-21.1-2.5-.7-.1-1.5-.1-2.1.3-4.2 2.7-4.1 15.3.2 17.9.5.3 1.2.4 1.8.4 4.2.2 8.3.5 12.4.8zm-42.3-20.8c0-.1 0-.1 0-.2-2.3.1-4.7.1-7 .4-1.2.2-2.3.8-3.4 1.4-4.9 2.7-4.3 7.2-3.6 11.6.4 2.7 1.8 4.2 4.7 4.1 5.4-.3 10.8-.3 16.1-1.2 8.9-1.5 8.8-1.7 6.6-11.1-.7-3-2.7-5-6.1-4.9-2.5-.1-4.9-.1-7.3-.1z"/><path d="m201.6 318.6c-12.2 2.5-23.7-1.3-35.3-4.1-4-1-7.8-.5-11.9-.3-8.8.6-17.7.5-26.6.7-5.7.1-11.4.2-17.1.2-9.6.1-19.2-.2-28.8.3-11.2.6-22.3 2-33.5 3-2.5.2-4.5 1.3-6 3.5-1.8 2.7-4.1 5.1-7.8 4.2-.9-.2-2.2-1.3-2.1-2 .2-4.6.5-9.3 1-13.9.1-.6 1.1-1.2 1.7-1.8 11.3-9.1 22.4-18.4 34-27.2 3.5-2.7 7.8-4.8 12.1-6 5.9-1.7 10.3-5 13.4-10 1.6-2.6 3.7-2 5.8-1.5s3.6 1.8 3.7 4.1c.2 2.9-.4 5.2-3.2 7-10.3 6.7-20.4 13.7-30.6 20.4-2.1 1.4-3.2 3.1-2.6 5.2.4 1.4 2 2.9 3.4 3.5 2 .8 4.3 1 6.5 1.1 4.4.3 8.8.6 13.2.5 3.5-.1 6.9-.8 10.3-1.4 8.1-1.2 16.1-2.4 24.3-1.4.5.1 1.1 0 1.5-.2 4.4-2.8 9.1-1.5 13.9-1.2 8.1.5 16.3.6 24.4.1 10.1-.6 20.1-.6 29.9 2.1 4.7 1.3 8.9 0 13.3-1.3 1.1-.3 2.6-.4 3.5.1 6.7 3.6 13.8 3.5 21 2.8 2-.2 3.9-1 5.5.9.3.3 1.1.5 1.4.3 2.7-1.6 5.1-.2 7.6.6 6.3 2.1 12.5 2.3 18.9.2 3.2-1 6.9-.5 10.3-.8 1.5-.2 3-.8 4.5-1.2 3-.7 6.1-2.1 9.1-2.1 6 0 11.4-1.3 16.5-4.6 1.4-.9 3.5-1.3 5.3-1.3 6 .1 11.4-2.1 16.8-4.3 6.8-2.9 13.4-6.2 20.3-9 3-1.2 6.3-1.5 9.5-1.9.9-.1 2.7.7 2.8 1.3.3 1.6.5 4.1-.4 4.9-4.1 3.5-8.3 7-13 9.6-10.5 5.7-21.3 10.9-31.9 16.2-.7.3-1.5.6-1.9 1.1-6.5 6.7-15.2 8.3-23.7 10.3-5.4 1.3-10.6 2.8-16.1.5-1.2-.5-2.8-.3-4.1 0-8.7 1.7-17.3.4-25.8-1.1-5.1-.9-10.1-1.9-15-3.6-9.1-2.7-18.4-4-28-2.5z"/><path d="m183 268.6c-1.6-8.8-1.6-8.8 6.1-12.4 4.8-2.2 15.2.3 19.5 5.2 5.4 6.2 11.7 10.6 19.4 13.3 1 .3 2 .8 2.8 1.4 1.5 1.2 4.3 1.4 3.5 4.4-1.1 4.6-1.8 5.4-5.9 5.5-7.3.1-14.1-1.2-19.8-6.6-6-5.6-13.2-9.1-21.5-10.1-1.3-.1-2.6-.4-4.1-.7z"/><path d="m173.3 201.9c-.2 3-.5 6-.7 9-5 1.5-9.8 1.2-14.3-.7-6.8-2.9-13.5-5.9-20.9-7.1-3.3-.6-6.4-2.5-9.6-3.9-2.6-1.1-3.3-3.5-2.6-5.8.5-1.7 2.3-3 3.6-4.3.2-.2 1.3 0 1.7.3 2.4 2.2 5.2 1.9 8.1 1.9 2.5 0 5.1-.2 7.6 0 1.6.1 3.7.3 4.7 1.4 4.5 4.4 10.4 5.3 16 7.1 2 .7 4.1 1.3 6.4 2.1z"/><path d="m165.3 281.5c-1.5.4-3.2.8-5 1.1-3.1.6-5.4-.1-6.9-3.4-.7-1.6-2.6-2.8-4-4.1-5-4.6-10.2-9-15.1-13.9-2.3-2.3-1-5.1 1.8-6.5 3.1-1.5 6.1-1.7 9.4-.6 2.4.8 4.9 1.2 7.4 1.8.7.2 1.5.7 1.8 1.3 2.2 3.8 4 7.8 6.4 11.4 2.7 3.9 5.1 7.5 4.2 12.9z"/></svg>