<svg enable-background="new 0 0 400 400" viewBox="0 0 400 400" xmlns="http://www.w3.org/2000/svg"><path d="m294.66 171.82c-8.19 7.33-14.1 15.63-24.44 18.3-3.76.97-7.38 2.6-10.94 4.22-2.6 1.19-5.19 2.6-7.42 4.37-3.11 2.47-6.52 3.71-10.38 4.26-6.97.99-13.92 2.15-20.87 3.31-1.42.24-2.8.75-4.2 1.12-7.15 1.91-11.09 6.36-10.97 13.95.06 3.69.35 7.37.39 11.05.13 11.06-.49 22.17.43 33.15 1.1 12.99-2.12 25.3-4.02 37.85-.25 1.64-.17 3.34-.23 5.01-.36 9.26-.5 18.53-1.13 27.76-.44 6.43-1.17 12.89-2.48 19.19-.78 3.75-2.72 7.32-4.55 10.76-1.18 2.22-2.84 4.35-4.75 5.98-5.9 5.03-11.1 3.12-12.62-4.49-.76-3.82-1.75-7.66.4-11.42.36-.62.31-1.52.31-2.29.02-11.73.03-23.45.03-35.18 0-3.02-.04-6.04-.09-9.06-.21-12.63-.19-25.27-.75-37.88-.26-5.97-1.8-11.88-2.45-17.85-.73-6.65-1.16-13.34-1.58-20.02-.05-.83.77-1.72 1.19-2.58-6.23-9.85-2.66-8.98-14.86-6.27-4.9 1.09-9.8 2.18-14.68 3.36-.93.22-1.87.69-2.62 1.29-8.66 6.94-18.62 8.74-29.35 7.45-.73-.09-1.71-.32-2.09-.84-4.18-5.61-9.36-10.72-10.11-18.18-.12-1.18.51-2.66 1.26-3.66.92-1.22 2.49-1.94 3.48-3.13 4.4-5.35 9.77-5.2 15.4-2.68 11.12 4.98 22.26 3.95 33.38.28 6.11-2.02 12.12-4.37 18.15-6.6 3.9-1.45 5.64-5.24 4.99-9.39-.59-3.79-.52-7.68-.85-11.51-.08-.9-.33-1.97-.89-2.63-3.79-4.45-7.9-7.6-14.3-4.53-3.41 1.64-7.23 2.33-10.47-.86-5.7 1.23-9.94-2.59-14.73-4.4-1.35-.51-2.21-2.36-3.27-3.62-.61-.73-1-1.81-1.77-2.24-9.67-5.52-13.84-14.45-14.26-24.94-.29-7.42.99-14.9 1.59-22.35.13-1.67.37-3.33.52-5 .46-5.29.76-10.38 4.26-15.1 2.57-3.46 3.37-8.2 5.12-12.31.6-1.41 1.42-2.92 2.57-3.85 3.64-2.95 4.77-6.85 4.76-11.24-.01-3.51 1.67-5.76 4.22-8.17 4.93-4.65 9.32-9.9 13.78-15.04 5.03-5.8 11.69-9.28 18.27-12.76 1.96-1.03 4.79-.38 7.22-.55 2.85-.21 5.75-.22 8.53-.79 3.38-.69 6.82-1.54 9.96-2.92 7.96-3.51 16.03-3.2 24.28-1.63 1.7.32 3.57.26 5.29-.04 7.96-1.38 15.16 1.18 22.24 4.19 1.46.62 2.81 1.92 3.78 3.22 2.79 3.72 5.8 7.39 7.86 11.51 1.32 2.66.97 6.11 1.62 9.16.67 3.14-.06 5.38-2.12 8.1-2.16 2.85-2.61 6.96-3.96 10.47-1.11 2.86-2.53 5.59-3.65 8.44-.71 1.83-1.32 3.76-1.61 5.7-1.11 7.28-1.88 14.55-5.6 21.23-2.48 4.46-1.76 9.55-.92 14.45.76 4.49 2.23 8.93.66 13.56-.93 2.74-2.21 4.74-5.55 4.79-6.06.08-10.63 2.86-14.53 7.54-4.14 4.97-8.82 9.5-14.75 12.49-1.08.55-2.03 1.81-2.55 2.96-2.79 6.13-3.28 12.46-1.28 18.95.62 2.01 1.82 2.85 3.92 2.84 4.28-.03 8.38.39 12.72-1.41 3.75-1.56 8.53-.45 12.52-1.64 9.41-2.79 18.62-6.23 27.92-9.42 8.49-2.91 17.02-5.69 26.18-4.35 1.69.24 3.23 1.48 5.44 2.56zm-149.55-53.18c-1.18 3.96-2.36 7.55-3.27 11.21-.21.82.23 2.45.82 2.72 5.43 2.46 7.96 7.69 11.7 11.76 1.17 1.28 2.92 2.45 4.59 2.78 10.02 1.99 19.77.73 29.28-2.9 3.84-1.46 7.72-2.91 11.71-3.84 3.27-.76 5.97-2.01 8.49-4.26 1.54-1.38 3.83-2.45 5.86-2.61 3.99-.32 6.4-2.4 8.03-5.65 1.24-2.48 2.18-5.11 3.22-7.69 1.41-3.5 2.34-7.31 4.32-10.45 2.1-3.33.27-5.61-1.16-7.9-1.29-2.08-3.28-3.27-6.27-2.66-6.34 1.29-12.77 2.17-19.18 3.1-8.68 1.26-17.76 1.22-24.93 8.48-6.83-7.4-14.39-7.03-22.22-1.49-1.45-1.62-2.62-3.11-3.98-4.41-.86-.82-2.18-2.06-2.95-1.85-1.4.38-2.71 1.55-3.73 2.69-.97 1.09-1.53 2.55-2.44 4.16-1.06-1.53-1.8-2.59-2.52-3.62-2.59.66-4.86 1.4-4.86 4.82 3.05-.59 4.48.45 3.91 3.52-.39 2.08.49 3.12 2.64 3.28.98.08 1.93.52 2.94.81zm58.53-76.54c.41 5.12-2.32 7.57-6.49 6.61-4.03-.93-7.53-.43-11.07 2.03-2.34 1.63-5.45 2.13-8.16 3.28-1.16.49-2.47 1.09-3.2 2.04-3.84 4.94-8.16 9.67-11.08 15.14-2.78 5.22-4.65 11.13-5.79 16.95-1.04 5.34 1.92 7.99 7.29 7.59 2.63-.19 5.26-.95 7.78-1.79 3.91-1.29 7.64-3.23 11.61-4.24 8.01-2.03 16.26-3.17 24.15-5.55 5.6-1.69 11.04-3.29 16.94-3.48 6.14-.2 9.21-4.55 7.9-10.42-.51-2.29-.97-4.6-1.58-6.86-.81-3-.62-6.6-4.58-7.84-.44-.14-.85-1.11-.86-1.7-.04-2.3-1.68-2.78-3.39-3.49-3.52-1.48-8.17-1.51-8.62-6.58-3.8-.2-7.45 3.8-10.85-1.69zm-32.74 171.38c.79 2.88 1.63 5.38 2.14 7.95.56 2.87 2 3.54 4.58 2.5-.43-1.54-1.26-2.97-1.1-4.29.47-4.04-2.01-5.18-5.62-6.16z" fill="#010102"/><g fill="#fcfbfa"><path d="m385.2 377.6.6-.7c.6.4 1.3.9 1.9 1.5l-.6.7c-.8-.5-1.4-1-1.9-1.5zm.3 7.1c.6-1.4 1.1-2.9 1.5-4.5.3.1.6.3.9.4-.5 1.4-1 2.9-1.5 4.4zm.2-10.1.6-.6c.7.5 1.3 1.1 1.9 1.6l-.7.7c-.6-.6-1.2-1.2-1.8-1.7zm8.4-.8h.8v.9h1.8v.7h-1.8v1.8h-.8v-.3h-1.2v.9h3.3v2.6h-.8v-.4h-2.5c0 .3 0 .6-.1.8h3.4v.7h-3.5c0 .3-.1.6-.1.8h4v.7h-3.5c.7.9 1.9 1.3 3.6 1.5-.2.2-.4.5-.6.9-1.9-.3-3.2-1.1-3.8-2.3-.5 1.1-1.8 2-3.9 2.4-.2-.3-.4-.5-.6-.8 1.9-.4 3.1-.9 3.6-1.7h-3.2v-.7h3.5c.1-.2.1-.5.2-.8h-3.3v-.7h3.4c0-.2 0-.5 0-.8h-2.4v.3h-.8v-2.6h3.3v-.9h-1.2v.3h-.8v-1.8h-1.8v-.7h1.8v-.9h.8v.9h3.2zm-4.4 5.5h2.4c0-.3 0-.6 0-.9h-2.4zm1.2-3.1h3.2v-.8h-3.2zm4.4 2.2h-2.4v.9h2.5v-.9z"/><path d="m389.2 385.8h.9v1.5h1.9v-1.5h.9v1.5h2.7v6h1.1v.9h-11.3v-.9h1.1v-6h2.7zm.2 8.7.5.8c-1.2.6-2.5 1.3-4 1.9-.2-.3-.3-.6-.6-.8 1.6-.6 3-1.3 4.1-1.9zm-2-4.3h1.9v-2.1h-1.9zm0 3.1h1.9v-2.2h-1.9zm2.7-3.1h1.9v-2.1h-1.9zm0 3.1h1.9v-2.2h-1.9zm2.4 1.3c1.4.6 2.7 1.2 4.1 1.8l-.5.9c-1.5-.7-2.8-1.4-4.1-1.9zm2.2-6.5h-1.9v2.1h1.9zm-1.9 5.2h1.9v-2.2h-1.9z"/></g></svg>