<svg enable-background="new 0 0 400 400" viewBox="0 0 400 400" xmlns="http://www.w3.org/2000/svg"><path d="m177.1 365.6c-4.8-5.4-6.2-11.1-3.1-17.5 3.7-7.7 3.6-15.8 1.9-23.9-1-5-4.1-6.9-9.1-6.5-4.6.3-8.5 1.9-12.3 4.4-8.1 5.2-15.9 11-25.5 13.2-1.1.2-2 1.1-2.9 1.8-5.3 4.3-10.5 8.6-15.8 12.8-1 .8-2.3 1.4-3.6 1.7-4.3 1-8.6 1.8-12.9 2.8-1.9.4-3.9 1.5-5.8 1.5-2.1 0-5.2-.3-6.1-1.7-1.4-2.1-1.4-5.2-1.7-7.9-.1-.7 1.2-1.6 2-2.3 10.2-8.9 22.1-15.3 34-21.5 5.4-2.8 11.2-5 14.9-10.3.9-1.2 2.8-1.9 4.3-2.4 5-1.7 8.9-4.6 11.6-9.2 2.9-5.1 7.3-7.4 13.2-6.8 1 .1 2.5-.8 3-1.7 1.2-2 1.9-4.4 2.9-6.7-6.8-3.2-13.5-3.3-20.3-3.2-3.8.1-7.6.1-11.4.4-11.1 1.1-18.2-4.8-23.5-13.6-5.4-8.9-5.5-18.9-5.4-28.9.1-8.2 2-15.8 6-23 1.1-1.9 1-4.5 1.2-6.8.1-1.3-.4-2.7-.4-4.1-.1-5.1.1-9.8 5.2-12.9 2.5-1.5 4.8-3.6 6.7-5.8 4.8-5.9 13.1-4.7 18.2-3.1 8.3 2.6 16.5 3.5 24.5-1 1.1-.6 2.3-1.4 3.5-1.4 9.3-.2 17.7-3.9 26.5-6 9.1-2.2 18.5-3.1 27.8-4.6 6.9-1.2 13.7-2.6 20.5-4 .8-.2 1.6-.7 2.1-1.3 2.6-3.4 5.2-6.9 7.8-10.5-6.8-4.1-14-5.9-21.6-6.5-12.5-.9-25.1-1.6-37.7-2.3-.8 0-1.9.7-2.3 1.4-3 6.3-8.1 9.6-15 10.1-10.3.8-20.7 1.7-31 2.2-5.9.3-11.5 1.5-16.7 4.4-10.2 5.7-20.9 10.2-32.3 12.7-1.1.3-2.4 1-3.1 1.9-2.6 3.1-5.8 4.5-9.7 4.6-2.5 0-4.1 1-5.1 3.4-.5 1.3-2.1 2.4-3.4 3-5.8 2.7-12 1.9-18.5 1.8 0-3.9 0-7.5 0-11.2 0-.3.1-.7.3-.9 5.3-4 5.8-10.6 8.4-16.1 1-2.2 2.5-2.8 4.6-3.7 3.2-1.2 5.9-3.5 8.9-5.2 1.8-1 3.7-1.8 5.6-2.7 3.7-1.6 7.5-3 11-4.8 8.4-4.4 9.8-12.2 9.1-20.6-.2-2.9-1.1-5.8-1.9-8.6-1.6-5.5-2.4-11-1.1-16.8 2.6-11.6 4.7-23.4 7.2-35.1.3-1.6 1.4-3.3 2.5-4.6 4.3-4.8 8.7-9.5 13.3-14.1.9-.9 2.6-1.1 4-1.4s2.9 0 4.3-.4c6.7-2.2 13.4-4.6 20.1-6.8 9.9-3.2 19.9-1.2 29.9-.5 2.7.2 5.5-.6 8.3-1 .8-.1 1.6-.4 2.4-.5 10.2-.7 20.5-1.4 30.7-1.9 2.7-.1 5.4.4 8.1 1 2.6.5 5 1.8 7.6 2.2 6.9 1 11.3 5.1 14.8 10.8 5.1 8.2 9.4 16.7 9.8 26.5.2 5.1-.9 10.3-1.9 15.3-1.8 8.6-4.1 17-6.1 25.6-.3 1.3-.2 2.8 0 4.1.6 4.6 1.8 6.3 6.1 6.5 5.1.3 10.1 1.1 14.7 4.1 4.2 2.8 9.3 3.1 14.4 2.3 1.3-.2 2.7 0 4 .4 5.3 1.5 10.5 3.2 15.8 4.7 2.9.8 6 1.3 9 1.6 8.7.6 15.8 13.4 11.5 21-.5.8-1.5 1.4-2.4 1.9-7.2 3.6-14.9 3.8-22.6 2.3-7.5-1.4-14.9-3.5-22.4-4.5-5.2-.7-10.6-.7-15.8-.3-2.8.2-3.4 3.4-3.1 5.8.5 3.9 1.3 7.8-2 11-.3.3-.3 1.3-.1 1.8 3 8.3 1.7 17 1.7 25.5 0 7.1-.3 14.2-.4 21.3 0 1.7-.3 2.9-2.2 3.6-1.1.4-2.5 1.8-2.7 3-1.2 9.8-7.9 15.2-15.2 20.4-10.2 7.3-21.8 11.6-33.7 15-2.6.7-5.2 1.9-7.9 2.3-4.1.7-5.7 3.5-6.2 7-.4 3-.4 6.1-.3 9.2 0 1.1.8 2.4 1.7 3.1 4.4 3.9 9.6 6.4 15.5 6.4 16.9-.1 33.2 3.5 49.4 7.7 9.1 2.3 18.3 1.1 27.5 1.1 8.6 0 17.1.5 24.8 5 .9.5 2 .7 3 .8 1.4.1 2.8-.1 4.1.1 2.9.4 6.4-.2 7.9 3.4 1.3 3.1 0 7.7-2.8 10.3-13.5 12.7-29.6 17-47.7 15.3-10.2-.9-20-3.8-29.4-7.4-12.5-4.8-25.4-7.2-38.6-8.2-.8-.1-1.7-.1-2.5-.4-4.8-1.4-9.2-.7-12.6 3.2-1.2 1.3-2.6 2.9-2.9 4.5-1.2 5.7-1.6 11.5-5.1 16.5-.4.6-.6 1.4-.6 2.1 0 3.3-.6 6.3-4.1 7.7-.3.1-.6.5-.6.7.1 5-5.2 4.7-8.7 6.9zm20.3-237.3c6-.7 10.4-1.1 14.8-1.7 7.5-1.2 15-2.5 22.5-3.8.9-.2 2.2-.7 2.6-1.4 3.5-7-.8-15.8-8.6-17.3-3.1-.6-6.3-.5-9.5-.5-8.6-.2-17.1-.1-25.6-.6-10.3-.6-20.3.5-29.7 4.4-7.7 3.2-15.5 5.3-23.6 6.8-4.3.8-8.2 3.4-12.3 5.4-.7.3-1.4 1.4-1.5 2.2-.5 5.2 3 9 8.2 9.2 1.5.1 3-.1 4.4-.4 9.5-1.8 19.1-3.7 28.6-5.5 5.9-1.1 11.7-1.7 17.5.2 4.5 1.2 9.1 2.2 12.2 3zm-61.1 91.7c3.7 6 4.4 6.7 11.5 6.2 4-.3 8.1-1.3 12-2.6 7.7-2.7 15.5-4.5 23.6-4.2 5.2.2 9.3-1.1 12-5.7 1.2-2 2.9-2.3 5.1-2 1.9.2 4.1.2 5.8-.5 2.8-1.2 5.5-1.9 8.6-1.5 1 .1 2.1-.5 3.2-.7 1.1-.3 2.3-1 3.3-.7 4.2 1.1 8.3 1 12.3-.9 5.1-2.4 10-5.7 15.9-4.7 1.5-5.7.7-6.7-4.3-8.5-5.4-1.9-10.8-1.6-16.3-1-7.5.8-15.2.3-22.5 3.1-2.2.9-4.7 1.1-7.1 1.3-14.9 1.2-29.7 3-43.9 7.7-8 2.7-15.8 5.6-19.2 14.7zm100-154.2c-2-1.8-3.4-4-5.2-4.5-5.1-1.3-10.3-2.6-15.5-2.7-5.3-.1-10.7 1.2-16.1 1.6-8.4.5-16.6 3-25.2 1.7-3.3-.5-6.7-.1-10 .1-2.6.2-5.2.8-7.9 1-7.4.8-14.7 1.6-20.8 6.5-.7.5-1.5.9-2 1.5-1.9 2.8-1.3 9.5 1 12 2.4 2.7 7.7 3.4 11.5 1.9 3-1.2 6.1-1.8 9.3-2.6 3-.8 6.1-1.3 9-2.2 2-.6 3.8-1.7 5.7-2.7 7.3-3.7 14.7-6.4 23.1-5.2 1.8.3 3.8-.2 5.6-.8 5.3-1.8 10.6-2.1 15.9-.8 7.7 2.1 14.3-.4 21.6-4.8zm-4 170.8c-11.1-2.6-22.4-3.1-33.6-1.3-18.4 3-36.8 6.9-55.2 10.3-3.5.6-5.5 2.2-6.7 5.6-1.2 3.7-.4 5.7 3.4 6.7 12.7 3.5 25.2 2.5 37.9-.8 11.1-2.9 21.6-8.2 33.3-8.9.4 0 .8-.2 1.2-.4 6.6-3.6 13.2-7.4 19.7-11.2z"/></svg>