<svg enable-background="new 0 0 400 400" viewBox="0 0 400 400" xmlns="http://www.w3.org/2000/svg"><path d="m74 326.2c-.6-2.2-1.1-4.4-1.8-6.6-.6-1.9-1.6-3.6-2.3-5.5-.5-1.2-1-2.6-.9-3.8.1-3.7.4-7.4.7-11.1.3-3.6.3-7.1-1.4-10.5-.5-1.1-.5-2.5-.4-3.7 1.2-11.7 2.7-23.3 3.8-35 .7-7.5.6-15 1.1-22.5.1-1.6.6-3.3 1.5-4.6 2.5-4.1 1.7-8.6 1.6-13 0-.7-1.5-1.9-2.1-1.8-1.4.2-3.2.7-4 1.7-4.2 5.4-9.4 9.7-15.3 13.1-4 2.3-8.2 3.9-13 3.6 2.4-7.8 6.5-14.5 12.5-19.9 3.8-3.4 5.9-7.5 7.1-12.4.5-2 1.9-4 3.4-5.5 2.4-2.3 4.2-4.6 5.1-7.8.5-1.8 1.2-3.8 2.5-5 3.5-3.1 4.5-6.8 4.4-11.3-.1-4.9.2-9.7.6-14.6.1-2-.6-2.8-2.4-3.4-7-2.5-14.1-2.5-21.2-.7-2.5.6-5.2 1.3-7.8 1.3-8.7 0-14.7-7.1-14-16.2.3-3.7.7-7.3 1-11.1 2.4-1 4.5-.8 6.6 1.6 2.2 2.6 5.6 3.3 8.8 2.2 8.7-2.8 17.6-4.5 26.7-5.1.9-.1 2.2-1 2.4-1.8 1.7-7.8 3.4-15.6 4.8-23.5.6-3.3.2-6.7.5-10.1.2-2.8.7-5.6 1.4-8.4.2-.7 1.5-1.5 2.2-1.4.8.1 1.7 1 2 1.8.6 1.6.5 3.4 1.2 4.9 4 9.5 3.8 19.6 4.1 29.6.2 4.8.2 5.1 4.9 5.6 3.9.4 7.8.2 11.7.1 3.7 0 7.4-.5 11.1-.2 6.7.5 8.7 4.1 7.3 10.5-1 4.9-3.9 7.9-7.7 10.2-8.3 5.1-17.1 8.8-27.1 8.6-2.8-.1-4.6 1.9-4.6 5.2-.3 11.5-.5 23-.7 34.5-.1 3.2 3.7 6.4 6.6 5 7.3-3.6 14.7-2.1 22.1-1.6 9.4.7 18.8 1.2 28.2 1.9.4 0 .8.2 1.3.2.5 2.4.4 4.4-1.5 6.4-1.3 1.4-2 3.4-2.6 5.3-1.5 5.4-2.8 6.6-8.2 7.1-.5 0-1.2-.1-1.6.2-5.3 4.6-11.1 1-16.6.9-5.6-.2-9.8-3.6-14.4-6.1-3.3-1.7-6.5-3.6-10.5-5.9-.6 3.3-1.7 6.2-1.7 9.1.1 23.2.5 46.3.8 69.5 0 1.7.3 3.4.4 5.1.5 6.2.6 12.2-2.3 18.2-2.1 4.4-2.4 9.8-2.7 14.8-.7 7.3-3.8 11.1-11.6 11.9z"/><path d="m266.3 92.6c3.9 3.9 5.3 8.3 5.3 13.4-.2 21.4-.1 42.7-.5 64.1-.1 7-.5 13.8 4.1 19.8 1.4 1.8 1.6 4.6 2.7 6.7 1.9 3.6 5.7 4 8.6 1.3.1-.1.1-.2.2-.2 6.1-4.3 9.6-10.1 10.2-17.6.1-1.5 1.2-3.1 2.1-4.5 1.4-2.1 3.1-4 4.5-6.1 2.1-3.3 2.6-6.7.9-10.5-2.5-5.5-4.7-11.1-7.3-17.4 2.7.3 4.9 0 6.7.7 9.1 3.5 18.8 2.7 28.2 3.9 1.3.2 2.7-.4 4-.7 5.2-1.5 10.4-2.5 15.9-1.7 1.7.2 3.5-.6 5.2-.9 1.5-.3 3-.5 5.3-.9-1.3 4.5-2.2 8.2-3.4 11.9-.2.6-1.2 1.1-1.9 1.4-10 4.5-19.9 9.2-30.1 13.5-2.9 1.2-6.4 1.1-9.6 1.6-1.9.3-3.8.5-5.6.7 0 3.7.2 7.3-.1 10.8-.1 2.3-.5 4.6-1.3 6.7-1.6 4.2-3.9 8.2-5.5 12.5-1.8 5.1-4.9 8.9-9.3 12-3 2.1-5.6 4.9-8.1 7.5-3.1 3.3-6.9 4.6-10.8 2.5-4.9-2.6-9.7-5.4-13.3-10-5.2-6.8-5-14.3-3.6-22.1.1-.6.6-1.4.3-1.8-2.8-4.4 1.3-8.4.6-12.6-.7-4.3-1-8.6-1.2-12.9-.2-4.5 0-9-.2-13.6-.1-1.9-.6-3.8-1.6-5.9-4 12-13.8 18-23.2 24.2-2.9 1.9-6.4 3-8.6 4-3.6-2.6-6.1-4.6-8.9-6.5s-4.6-4-4.5-7.7c.1-4.8-.5-9.6-.8-14.6 4.8.5 10.4.6 15.8 1.8 6.9 1.4 13.4.3 19.7-2.3 2.3-1 4.8-1.7 7.2-2.5 4.9-1.7 7.2-5.4 6.7-10.7-.3-3.1-.8-6.1-.6-9.2.1-2.2 1.2-4.4 1.7-6.6.4-1.9 1.2-3.9.9-5.7-.7-5.6 1-10.5 3.2-15.8z"/><path d="m232.1 183.7c.6 4.1.1 7-2.1 10.2-5.4 7.6-12.1 13.5-20.4 17.6-7.4 3.6-14.9 2.1-22.3.1-.8-.2-1.4-1.2-1.9-2-1.6-2.6-2.9-5.4-4.8-7.8-2.7-3.5-2.8-7-1.6-11.2 2.8-9.6 5.2-19.4 7.5-29.2.7-2.9.5-6.1.6-9.1.3-11.4.1-22.8.8-34.2.4-5.6 2.3-11.1 3.4-16.6 6.7.6 8.9 3.2 7.9 9.2-1.1 7-1.7 14-1.6 21.1.1 6.9-1.7 13.8-2.6 20.7-.3 2.1-.3 4.2-.3 6.3-.2 8.1-.2 16.3-.7 24.4-.5 9.1 8.2 16.3 17.7 13.4 5.3-1.6 10-5.2 14.9-8.1 2-1.2 3.5-3 5.5-4.8z"/></svg>