<svg enable-background="new 0 0 400 400" viewBox="0 0 400 400" xmlns="http://www.w3.org/2000/svg"><path d="m293.7 220.9c-2.7 5-5.3 9.5-7.4 14.2-2.2 5-5.5 8.8-10.1 11.8-2.4 1.6-4.2 4.3-6.1 6.6-.9 1.1-1 2.9-3.2 2.2-.3-.1-1.3 1-1.5 1.7-2.5 7-7.6 11.1-14.4 13.5-1 .3-1.9.9-2.9 1.4-6.1 3.4-12.2 6.3-19.7 5-3.2-.6-6.7.5-10.1.6-4.3.1-7.9-1.5-11.3-4.2-8.1-6.4-12.5-15-15.4-24.6-3.8-12.7-6.5-25.6-5.1-39 .3-3 1.1-5.7 3.3-8 2.2-2.4 4.4-4.9 6.2-7.6 3.2-5 7.7-5.3 12.8-4.4.8.1 1.7.3 2.5.6 10.2 4 20.8 4.2 31.5 4.3 10 .1 20.2-.1 30.1 1.1 5.1.6 9.8 4.1 14.6 6.4 1.2.6 2.2 1.5 3.5 2.4 1.6-4.5 1.9-8.7.8-13-2-7.4-2.4-14.9-1.9-22.6.3-5.2-.6-10.5-1-15.7-.2-1.9-1.3-3.2-3.2-3.3-2.8-.2-5.9-.9-8.5-.2-14 3.8-28.5 3.7-42.7 5.4-4.6.5-9.2 1.4-13.7 2.3-3.1.6-5.3-.6-6.3-3.4-1.3-3.6-2.5-7.2-.4-11 .4-.8.6-1.8.6-2.7.7-8.4 1.3-16.9 2-25.3.2-1.8.9-3.7 1.6-5.4 4-8.8 8.3-17.3 15.7-24 1.4-1.2 2.4-1.7 4.1-1.2 4.7 1.4 7.7 4.4 8.9 9 2 8.2 2.3 16.3-1 24.3-.8 1.9-.6 4.2-.8 6.3 1.9 0 3.9.2 5.7-.1 7.1-1.4 14.1-3.1 21.4-1.8 4.9.9 9.7 2 14.5 3.1 2.1.5 3.2-.3 4.3-2.1 4.2-6.7 6-14.1 7.5-21.7 1.6-8.8 6.3-12.7 14.7-12.6 1.7 0 2.7.4 3.4 2.1 1.6 3.9 2.9 7.9 1.5 12-3.5 10.5-3.5 21.2-2.4 32 1 10.6 0 21.2-1.3 31.7-.9 7.3.8 14.1 2.6 20.9 9.3 37 22 72.8 37.1 107.8 1.2 2.9 3.3 5.4 5 8.1 1.1 1.8 2.4 3.6 3 5.5 1.1 3.5.8 6.7-2.6 9.3-6.1 4.6-12.4 8.6-20.3 8.5-6.4-.1-11.6-2.2-13.5-9.1-1.2-4.1-2.8-8-3.5-12.1-1.8-9.9-4.8-19.4-8.4-28.9-6.4-17.1-12.4-34.4-18.5-51.6-.6-1.5-1-2.7-1.7-4.5zm-64.7 29.6c4.8-.9 9.6-1.5 14.3-2.6 4.1-1 7.8-3.2 9.5-7.3 1.9-4.6 3.4-9.3 4.6-14.1.3-1.2-.8-3.8-1.7-4.1-4.1-1.2-8-2.8-12.6-1.3-3.1 1-6.7.8-10 1.3-3.6.6-7.2 1.2-10.8 2.1-3 .8-4.8 2.7-4.8 6.2 0 2.3-.4 4.6-.5 6.9-.3 8.4 3.6 12.4 12 12.9z"/><path d="m126.8 181.7c6.4 4.3 13.7 9.1 21 14 8.4 5.6 16.9 10.9 25.1 16.7 5.1 3.6 7 9.1 7.1 15.2 0 3.3-1.7 5.4-5 5.2-5-.3-10.3-.2-14.9-1.9-9.6-3.6-18.8-8.2-28.1-12.4-3.1-1.4-4-1.4-4.6 2-.6 2.8-.8 5.9-.4 8.8 2.1 17.1-1 33.3-7.8 48.9-2 4.5-3.5 9.3-5.3 13.9-.6 1.5-1.1 3.1-2.1 4.2-2.5 3-5.1 2.6-6.6-.9-3.7-8.3-4.5-17.1-5-26-.7-12.4.7-24.7 2.1-37 .4-3.4-.1-7-.9-10.3-.9-3.8-3-4.9-6.7-3.5-4 1.4-8 2.9-11.5 5.1-10.3 6.4-20.4 13.3-30.7 19.7-3.9 2.4-8.1 4.6-12.5 6.1-2 .7-5.1.1-7-1.1-2-1.2-1.2-6.9.2-9 11-15.7 26.5-26.6 41.3-38.2 6.3-4.9 12.7-9.8 19-14.8 3.5-2.8 6.4-6.1 7.5-11-2.1-.9-4.1-1.8-6.1-2.6-11.5-4.9-22.9-9.9-34.4-14.6-2.3-.9-4.9-1.4-7.3-1.7-10.6-1.2-19-13.7-15.9-23.9 1.4-4.6 2.4-9.4 4.8-13.4 2.4-4.1 6.1-7.5 9.5-11.5 7.8 11.3 19.1 18 29.1 26 3.4 2.8 6.2 6.4 9.5 9.4 2.8 2.5 5.9 4.5 9.4 7.2.2-1.9.4-2.7.4-3.5.5-19 1.4-38.1 1.3-57.1 0-6.6 2.2-11.1 6.8-15.1 1.4-1.2 2.4-1.2 3.9-.3 3.8 2.3 6.1 5.5 6.2 10 0 1 .1 1.9 0 2.9-1.5 12.7 2.3 24.7 4.5 37 .7 4.2 1.1 8.4 1.6 12.6.2 1.4.3 2.8.9 4 1.2 2.8 4.1 3.3 6 1 11.6-13.5 23.1-27 34.7-40.5 1.8-2.1 3.6-4.1 4.9-5.5 3.9 1.7 7.3 3 10.5 4.7 1.8.9 3.8 2.2 4.8 3.9 3.2 5.7 6 11.6 8.8 17.5.4.8.1 2.1-.2 2.9-1.8 4.6-3.7 9.2-5.8 13.7-.5 1-1.7 2-2.9 2.4-2.4.8-4.9 1.4-7.4 1.8-11.9 1.8-22.7 7-33 12.7-6.3 3.5-11.4 9.4-16.8 14.4-.8.8-.6 2.8-.8 4.2-.3 2.1-.7 4.6-1.2 7.7z"/></svg>