<svg enable-background="new 0 0 400 400" viewBox="0 0 400 400" xmlns="http://www.w3.org/2000/svg"><path d="m162.9 260c5.7 0 10.8.2 16 0 11-.6 22.3-.9 32-6.6 9.8-5.8 18.9-12.7 28.2-19.4 2.9-2.1 4.1-5.3 3.2-9.7-3.6.3-7.2.5-10.8.8-3.9.3-7.8.7-11.7 1.2-1 .1-2 .5-2.8 1.1-3.3 2.5-6.9 3.5-11 3.1-1.5-.2-3-.5-4.4-.3-3.9.4-6.4-1.1-8.5-4.5-1.4-2.3-2.3-4.1-.7-6.5.5-.7.6-1.8.6-2.7 0-7.1 1.4-14.5-.3-21.2-2.6-10.7-.4-21.8-4.2-32.2-.9-2.5-.8-5.4-.7-8.1.3-4.9 3.7-7.8 8.6-8.4 9.5-1.2 19.1-2.5 28.6-3.7 3.3-.4 6.7-.3 10.1-.6 6.5-.6 8.9-2.7 9.3-9.3.3-4.3-.1-8.7-.6-13-.1-.9-2.5-2.4-3.7-2.2-7.8.7-15.6 1.3-23.2 2.9-8.7 1.8-17.3.7-25.9.7-1.4 0-3.2-2.1-4.1-3.6-1.3-2.1.9-2.9 2.2-3.8 6.3-4.2 13.4-4.5 20.7-5 6.4-.4 12.8-1.4 19.2-2.1 2.4-.2 4.8-.3 7.3-.4 4.8-.2 7.6-2.6 7.7-7.4.1-5-.2-9.9-3.8-14-2-2.2-.3-5.4 3-5.4 2.8 0 5.9.2 8.4 1.4 1.7.8 3.3 3.1 3.8 5 1 3.6 1.2 7.5 1.9 11.2.8 4.7 2.5 6 7.1 5.6 3.7-.3 7.4-.9 11.1-1 12.6-.4 25.3-.7 37.9-.8 2.4 0 4.9 1.2 7.3 1.7 2.1.4 4.4.3 6.4.9 1.6.5 3.6 1.4 4.3 2.7.9 1.6.8 3.8.8 5.7 0 .4-1.3 1-2 1-1.8.1-3.6.1-5.4 0-19.2-1.8-38.4-.4-57.6.7-1.3.1-2.5.3-3.8.6-4.9 1.1-6.8 3.1-6.8 8.1 0 4.5.4 9.1 1.1 13.6.2 1 2.5 2.4 3.8 2.4 4.5-.2 9-.9 13.5-1.4 5.4-.6 10.8-1.3 16.3-1.7 6.4-.5 12.9-.6 19.3-1.4 4.6-.5 7.9 1.1 10.4 4.6 2.2 3.1 4.5 6.2 5.9 9.7.8 1.9.6 4.9-.5 6.6-5.6 8.8-5.6 18.7-6 28.5-.3 9.2-.8 18.4-5.2 26.8-.4.7-.5 1.6-.4 2.4.4 5-1.9 9.8-5.6 11.7-3.4 1.7-10.1.5-13.3-2.8-2.8-2.9-5.9-3.5-9.7-3.1-4.8.6-9.7.3-14.5.8-4.5.5-9.1 1.3-13.5 2.5-1.1.3-2 2.3-2.3 3.6-.1.5 1.4 1.9 2.3 2.2 5.6 1.4 10.3 4 14.5 8 1.9 1.8 4.6 2.9 7.1 4.1 10.9 5.1 20 12.9 28.7 20.8 4.5 4.1 9.8 7.3 13.9 12.1 1.9 2.3 5.7 3.5 8.8 4.5 4 1.2 8.3 1.9 12.4 2.4 5.9.7 11.9 1.1 18.4 1.7.2 2.5.4 5.7.6 9.2-12.4 2.4-23.9 9-37.1 6.6-.8-.2-1.7-.3-2.5-.4-5.5-.6-9.4-3.1-12.6-8.1-7.9-12-16.5-23.6-28.3-32.3-3.7-2.7-7.4-5.4-10.6-8.8-3.8-4-9.1-6-14.8-5.8-.2.4-.4.6-.4.8-.5 4.6-1 9.2-1.3 13.8-.5 6.9 2 13.3 2.8 20 .9 7.6 1.3 15.4.4 23-.4 3-1.1 6.3-1.8 9.5-.5 2.8-2.2 5.5-3.6 8-1.3 2.2-3.7 4.3-5.9 3-1.7-.9-2.9-3.9-3-6-.2-6.1.3-12.3.4-18.4 0-2.5.1-5.2-.6-7.5-2.7-9.4-.2-18.7-.5-28.1 0-1.8.2-3.6 0-5.4-.3-1.9-1.1-3.7-1.8-6-1.2.8-1.9 1.2-2.5 1.7-2.7 2.2-5.6 4.2-8.1 6.6-6.2 5.9-13.4 9.7-21.6 12.1-3.5 1-6.6 3.7-9.5 6.1-3.9 3.3-8.2 4.1-13 3.3-1-.2-2.1-.6-3.1-.5-9.5.7-13.4-6.7-18.2-12.8-1.5-1.2-1.8-2.8-2.5-4.7zm118.7-76.8c0-.1 0-.1 0-.2-3 0-6 .3-8.9-.1-5.3-.7-10.2.2-15 2.5-1.5.7-2.1 1.5-1.9 3.3.2 3.1-.2 6.3-.3 9.4-.1 2.2-.3 4.4-.1 6.6.1 2.3 1.3 4 3.9 4.1 2.9.2 5.9.7 8.8.4 10.3-.9 20.1-5 30.7-3.8 2.8.3 5-1.5 5.3-4.7.4-4.5 3.5-8.7.9-13.5-.5-1 .2-3-.5-3.5-.9-.7-2.6-.6-3.9-.6-6.4.1-12.7.1-19 .1zm18.6-37c-1.4.1-2.5.2-3.5.4-10.8 1.5-21.7 3-32.5 4.5-1.6.2-3.2.2-4.7.3-2.6.3-4 2.2-3.7 4.7.4 4.4 2 8.6.3 13.1-.6 1.6.4 3.2 2.9 3 9.9-.7 19.9-1 29.7-2 5.3-.5 10.5-2 15.7-3.5 1.4-.4 3.1-2.1 3.5-3.5.9-3 1.1-6.2 1.5-9.4.5-4.2-.7-5.8-4.7-6.9-1.7-.3-3.3-.5-4.5-.7zm-82.8 69.3c7.9-.1 15.6-.9 23-3.9 1.7-.7 2.9-1.6 3-3.9.3-5.2 1-10.3 1.5-15.5.4-3.6-2.5-6.6-6.1-6-10.3 1.8-20.6 3.7-30.9 5.7-.7.1-1.7 1.1-1.7 1.7-.5 4.9-1.6 10-.8 14.7 1.1 7 1.3 6.4 7.9 7 1.3.4 2.7.2 4.1.2zm-3.6-34.9c2.8-.2 5.8-.1 8.5-.8 6.2-1.4 12.4-3.1 18.5-5 1.4-.4 3.3-2.1 3.4-3.3.4-4.4.4-8.8 0-13.2-.2-2.2-1.7-4-4.4-4.1-10.6-.6-21.1.7-31.4 3-1.6.4-3.3.9-4.7 1.9-.9.6-1.7 2.2-1.6 3.2.3 3.5.8 6.9 1.6 10.3 2 7.9 2.1 7.9 10.1 8z"/><path d="m100.4 173.3c-4.1 1.5-7.7 2.6-9.2 6.8-.1.3-.2.7-.5.8-6.9 2-7.3 9.5-11.5 13.7-.7.7-1.3 1.5-2.1 1.8-4.1 1.6-6.3 5.1-9.3 7.9-4.8 4.6-9.8 9.7-17.5 9.2-3.6-.2-7.4-.1-10.9-1.1-5.5-1.6-9.6-11.2-7.5-16.4.3-.6 1.1-1.1 1.8-1.5 4-2 8.1-2.1 12.3-1 2.3.6 4.3.5 6.3-1.4 1.3-1.3 3.8-1.6 5.8-2 2.6-.5 5.1-1.3 6.9-3.4.6-.7 1.4-1.3 2.3-1.7 5.1-1.9 8.7-5.7 12.2-9.8 6.9-8.3 14-16.4 20.9-24.7 2.6-3.1 3.2-6.8 2.8-10.8-.5-4.4-2.6-6.7-6.9-6.4-4.6.3-9.2 1.2-13.7 2-4.7.9-9.3 2-13.9 3-2 .4-3.7-.1-4.9-2-.4-.7-1.1-1.5-1.8-1.8-4.1-1.4-4.3-5-5.4-9 12.3-.8 24.2-1.7 36.2-2.4 1.4-.1 2.8.1 4.1 0 4-.5 5.4-2.2 5.3-6.3-.1-2.4-.1-4.9-.2-7.3-.1-3.6.2-7.2-.2-10.8-.4-3.5-1.3-6.9-2.1-10.8 2.2-.8 5-2.8 7-2.2 3.7 1 7.6 3.1 10.3 5.8 1.7 1.6 2.1 5.2 2.1 7.9-.1 5.1-1.1 10.1-1.5 15.1-.4 6.1 1.5 7.6 7 5.1 3.5-1.6 6.8-.9 10.2-.8 3.8.1 7.6.1 11.4 0 4.9-.1 9 2 12.5 5.1 1 .9 1.3 2.5 2.1 4.3-2.3.2-4.1.4-5.8.5-10.7.6-21.3 1.3-32 1.9-.5 0-1.1.1-1.6.1-5 .7-6.6 2.8-6.1 7.7s.8 9.9 1 14.8c0 1.9.6 3.1 2.2 4.1 2.3 1.3 4.5 2.8 6.6 4.4 3.7 2.8 7.9 4.1 12.3 5.4 4.8 1.3 8.1 5.2 10.8 9.2 1.8 2.7-.1 4.7-3.4 5.4-6.2 1.3-11.6-.2-16.7-3.8-2.3-1.6-4.9-2.9-7.4-4.3-2.6-1.5-4.5-1-5.3 2-.7 2.6-1.4 5.4-1.2 8.1 1.7 20.6-1.6 41-2.1 61.5-.2 9.9 0 19.9 0 29.8 0 .8.1 1.7.2 2.5.3 7.4-2.7 10.1-10 8.9-.8-.1-1.8-1-2.2-1.8-2.9-5.7-4-11.5-3.4-18 1-10.5 2.2-21.2 1.6-31.7-.7-11.3 1.1-22.4 1.5-33.5.9-9 .6-18.3.6-28.1z"/></svg>