<svg enable-background="new 0 0 400 400" viewBox="0 0 400 400" xmlns="http://www.w3.org/2000/svg"><path d="m157.5 274.8c0-4.7 0-9 0-13.6 18.3-6.5 32.7-19.1 48.6-29.6 6.4-4.3 14-6.9 20.9-10.4 3-1.5 5.7-3.4 8.5-5.4s5.5-4.3 8.3-6.3c5.4-3.8 10.2-8.2 13-14.4 0-.1.1-.2.1-.3.9-3.3 2.5-6.9-.6-9.7-4.8-4.4-9.9-5.1-14.2-2.3-5.3 3.5-10.7 6.8-15.8 10.7-1.9 1.4-2.9 4-4 6.2-.9 1.9-1.8 3-4.1 3.2-3.9.4-7.7 1.1-11.6 1.8-1.2.2-2.4.7-3.5 1.4-4.4 2.8-8.8 5.5-13 8.5-2.2 1.5-4.4 2.3-7.1 1.6-3.9-1-7.1.4-8.7 4-2.8 6.1-8.1 6.7-14.1 7.3 1.2-6.3 1.1-12.4 5.6-17.6 4.2-4.8 8.3-9.4 13.7-13 8.9-5.9 17.4-12.3 26.3-18.3 3.4-2.3 7.3-3.9 10.9-5.8 1.2-.6 2.5-1.2 3.6-2 4.1-2.9 3.6-8.5-.9-10.4-9.4-4-19.3-4.9-29.3-4.1-8.7.7-17.3 2.6-26 4-3.2.5-6.3 1.7-9-1.6-2.9-3.6-4.2-7.6-3.2-12.1.2-.9 1.2-1.9 2.2-2.4 4.2-2.1 8.6-4.1 12.9-6.1.6-.3 1.2-.5 1.7-.8 3.8 3.7 9 4.2 13.6 1.5 3-1.8 4.7-7.6 3.2-12.1-2.7-7.8-4.5-15.6-3.9-23.9.1-1-.4-2.4-1.1-3.2-9.8-10.9-6-31.2 8.6-40.5 11-7.1 22.8-12.3 35.9-13 6-.3 12.2 1.1 18.3 1.8 17.1 1.8 34.3 3.5 51.4 5.7 3.6.5 7 2.6 10.5 3.9 2.1.8 4.2 1.9 6.4 2.1 3.8.3 6.2 1.6 6.7 5.4.4 2.9.5 6.3-.5 9-3.3 8.7-4 17.6-3.4 26.8.3 4.5.2 9.1.5 13.6.3 5.6.6 11.3-3.6 16 4 3.4 8.4 4.3 13 3.8 5.8-.7 11.4-2.5 17.2-2.9 6.4-.4 12.8.1 19.3.4.5 0 1.5 1.2 1.4 1.8-.6 6.3-1.3 12.6-2.2 18.9-.1.6-1.6 1.6-2.4 1.5-22.7-.2-45.5-.7-68.2-.7-6.5 0-13 1.4-19.5 2.4-2 .3-3.7 1.6-5.6 2.4 2.2 5.3 4.9 9.2 9.4 12.2 8.2 5.4 15.7 11.9 21.3 20.2.6.9 1.5 2 1.5 3.1.1 3.3 1.5 5.2 4.8 5.9.6.1 1.3 1.8 1.2 2.7-.8 6 2.1 10.3 6.6 13.5 8.4 5.8 12.6 13.8 13.7 23.8.9 8.5 2.5 16.9 3.6 25.4.2 1.4-.5 3-.9 4.4-.7 2.5-1.4 5-2.1 7.5-.8 2.6-1.2 5.4-2.5 7.6-2 3.3-4.5 6.4-7 9.4-2.6 3.1-4.6 6.5-5.5 10.6-.2 1.1-1.1 2.3-2 3.1-7 5.8-14 11.6-21.3 17.1-1.8 1.4-4.7 1.3-7.1 2-1.1.3-2.4.5-3.1 1.2-2.6 2.8-5.8 4.2-9.4 4.7-4.6.5-7.9 3.5-11 6.4-3 2.8-6.5 4.5-10.5 5.5-11.2 3-22.4 6.3-33.6 9.3-2.3.6-4.8.7-7.2.5-5.2-.3-10.3-1-15.4-1.5-1.4-8.5 2.7-15.1 10.9-16.6 16.3-2.9 30.3-11.6 45.4-17.5 10.4-4 20.2-9.2 28.9-16.3 9.1-7.5 18.3-15.1 25.5-24.7 3.3-4.4 4.8-9.4 5-14.8 0-.8-.4-1.8-1-2.4-3.2-2.8-7-3.9-11.2-2.8-3.4.9-6.9 1.6-10 3.1-2.5 1.2-4.5 3.4-6.6 5.2-1.9 1.6-3.6 3-6.5 2.6-2.3-.3-4 .9-5.2 3.3-.9 1.7-2.6 3.1-4.3 4.2-5.4 3.6-10.9 7.1-16.4 10.6-1.1.7-2.2 1.9-3.4 2.3-16 4.2-30.4 12-45.2 19-4.5 2.1-9.2 3.7-13.8 5.5-2.4.9-3.8.2-5-2.2-2.6-5-1.8-10.1-.5-15.1.2-.9 1.5-1.7 2.5-2.2 13.6-7.2 27.1-14.9 41-21.5 18.4-8.7 35.9-18.9 52.1-31.3 3.9-2.9 7.9-5.7 11.6-8.8 5-4.1 5.9-12.1 2.2-17.3-1.8-2.5-6.8-4-10.2-2.4-7 3.2-14 6.4-20.6 10.4-3.3 2-5.4 5.9-8.2 8.7-1.4 1.4-3.2 3-5 3.5-11.1 3-20.8 8.3-30.1 15s-19.1 12.8-29.1 18.6c-7.1 4.2-14.9 5.8-23.1 6.1zm69-164.2c-6.8-.2-13.3.8-19.4 3.8-1.3.6-2.8 1.9-3.2 3.2-.9 2.4.8 5.4-1.5 7.6 2.2 3.5 3.7 8.1 6.9 10.2 9.2 6.1 18.7 3.5 27.9-1.1 1.6-.8 3.6-1.2 5.3-1.1 4.2.4 8.3 1.4 12.5 2 9.8 1.4 19.7 2 29-2.3 8.9-4.1 9.8-6 9.3-15.1-.1-2.8-1.7-4.9-4.3-6.2-6.1-2.9-12.6-3.9-19.1-2.5-10.3 2.2-20.6 3.6-31.1 2.3-4-.5-8.2-.6-12.3-.8zm-16-14.9c2.5-.8 5-1.2 6.8-2.3 8.6-5.4 18.3-6.1 27.8-5.9 8.6.1 17.1 2.6 25.6 3.9 5.3.8 10.6.8 15.4-2.1.9-.5 1.9-1.9 1.9-2.8-.3-2.9-.7-5.9-1.6-8.7-1.5-4.9-4.1-6.4-9.2-6.6-5.7-.2-11.4-.8-17-1.2-3.5-.2-6.9-.6-10.4-.4-6.3.4-12.6 1-18.9 1.7-7.7.8-15.2 2.7-21.9 6.7-.8.5-1.8 1.9-1.7 2.7.7 4.8 1.9 9.5 3.2 15z"/><path d="m91.8 142.9c1.7-.6 2.8-.7 3.4-1.3.9-.9 2-2 2.2-3.2.1-.7-1-2-1.9-2.5-5.2-3.3-11-4.3-17-3.4-7.3 1.1-14.4 1.5-20.6-3.5-.3-.3-1.2-.2-1.7-.1-5.1 1.9-10 .3-15-.6-.6-.1-1.2-1.3-1.5-2.1-1.6-5.3.2-10.3 1.5-15.2.3-.9 1.8-1.7 2.9-2.2 7.2-3.4 14.9-3.5 22.7-3.4 7.2.1 14.4.3 21.6.1 5-.1 7.5-3.3 6.4-8.2-.8-3.5-2.1-6.9-3.3-10.2-1.3-3.7-.9-6.8 1.2-10.4 1.8-3 2-7 2.3-10.7.5-5.7 3.4-9.9 7-13.8.6-.6 2.4-.6 3.3-.2 4.3 1.9 6 6 6.7 10.2 1.3 7.3 2.4 14.6 3 22 .2 2.2-1.4 4.6-2.4 6.7-.8 1.6-.8 2.8.2 4.3 1.7 2.5 3.5 5.1 4.8 7.8 1.9 4.2 5.4 5.7 9.5 5.5 4.7-.1 9.4-1 14.1-1.6 4.1-.5 8.1-1.5 12.2-1.5 4.8 0 8.5 2.6 11.8 6.5-9.3 6.9-18.7 13.1-30.4 14.4-3.6.4-7.1 1-10.7 1.4-1.9.2-2.8 1-3 2.9-.1 1.8-.5 3.6-.7 5.3-.3 3.2-1.6 5.5-5.6 5.8.6 1.9.9 3.7 1.6 5.3 5.7 12.7 5.7 12.7 18.7 17.1 6.6 2.3 13.2 4.5 19.8 6.6 3.3 1.1 5.4 3 6.2 6.5.4 2 1.4 4 2.1 5.9-3.1 5.4-8.2 6.5-13.9 6-3.9-.3-7.7-1.2-11.5-2-7.5-1.7-13.5 1-18.7 6.1-.6.6-.6 2.5-.2 3.5 1 2.3.6 3.9-1.4 5.4-.9.6-1.6 2.1-1.5 3.2.3 2.7 1.2 5.3 1.6 8 .4 2.8 1.2 5.7.7 8.3-2.2 10-.9 19.8.9 29.6 1.1 6.2.7 12.2-.3 18.3-.6 4.2-.3 8.6-.6 12.9-.1 1.3-.5 2.8-1.3 3.8-2.3 2.8-4.2 6.5-8.6 6.1-1.2-.1-2.9-.7-3.3-1.5-1.3-2.7-3-5.7-2.9-8.5.6-12.1-1.8-23.8-3.3-35.6-.4-3.3-.3-6.4.8-9.6.7-2.1.9-4.8.3-7-3.1-11.1-3.1-22.6-3.6-34-.2-3.7-2.2-5.1-5.9-4-9.5 3.2-17.9 8.1-24.5 15.9-3.8 4.4-9 6.6-14.7 6.1-5.5-.5-11-1.9-16.4-3.1-.8-.2-1.8-1.4-2-2.3-2-9.7-1.9-9.7 6.9-13.9 2.8-1.3 5.5-2.7 8.3-3.9.9-.4 2-.9 3-.8 7.1.5 12.2-3.1 16.1-8.5 2-2.7 4.5-4.3 7.3-5.8 9-4.9 15.6-12.2 19.3-21.8.4-1.1 0-2.7-.3-4-.4-2.3-1.1-4.6-1.7-7.1z"/></svg>