<svg enable-background="new 0 0 400 400" viewBox="0 0 400 400" xmlns="http://www.w3.org/2000/svg"><path d="m204.7 294.6c-4.4 7.1-4 14.1-2.8 21.2 1.1 6.5.8 12.7-3.6 18-.3.3-.6.7-.6 1.1.9 8.4-2.8 14.9-9.1 20.2.3 1 .6 2 1 2.9-1.3 1.7-2.4 3.5-3.9 4.9-1.2 1.1-2.7 2-4.2 2.5-2.2.7-3.7 0-3.8-2.6-.1-1.3-.7-2.5-.7-3.7 0-1.5.5-3.1.7-4.6.3-1.8 1.2-3.7 1-5.5-1.2-10.4 1.2-20.4 3-30.5.9-5.1.8-10.5.7-15.8-.1-3.7-3-5.3-6.5-3.6-2.5 1.2-4.7 2.8-7 4.3-2.5 1.7-5 3.6-7.5 5.3-.8.5-1.7 1.3-2.5 1.2-4.3-.4-6.6 2.5-9.2 5.2-8.4 8.8-18.1 15.6-29.6 19.5-.7.2-1.4.3-2.1.5-2.7-5.6-2.8-5.6 1.6-9.7 9.3-8.8 18.5-17.7 28.1-26.2 4.4-3.9 9.4-7.2 14.4-10.4 3-1.9 3.3-5 4.2-7.8.1-.4-.7-1.6-1.3-1.7-4.3-1-8.6-1.7-13.7-2.7.8 1.4 1.1 2.1 1.5 2.8-.3.1-.6.2-.9.2-9.6 0-19.4 1.3-28.7-2-4.3-1.5-8.3-4-12.2-6.5-1.4-.9-2.9-3-2.9-4.6.1-7.9-2.9-14.9-5.3-22.1-.6-1.9-1.2-3.7.1-5.7.4-.6-.3-2-.7-3-.7-2-2.2-4.1-2-6 1.2-11.9 2.8-23.7 4.3-35.5 4.1-6 5.3-14.2 13.1-17.3 2.5-1 5.3-1.2 8-1.4 2.9-.2 4.9-1 6.5-3.6.8-1.3 2.4-2.3 3.8-2.9 12-5.2 24.9-6.3 37.7-8 3.5-.5 4.6-1.8 4.6-5.2 0-3.8.7-7.6-1.9-11.1-1.6-2.1-3.1-3.6-5.8-3.5-9.8.1-19.7.1-29.5-.1-1.7 0-3.5-.9-5.1-1.7-2.2-1.2-3.9-2.1-6.1.3-1 1.1-3.6 1.7-5 1.3-7.1-2.4-12-7.2-11.8-15 .1-6.3 1-12.7 3-18.6 1-3 5.3-5 8.1-7.5 3.9 1.9 7.6-.3 11.4-.8 5-.7 10-1.9 15-2.7 1.7-.3 3.5.1 5.3.1.9 0 1.8-.2 2.6-.3.5-.1 1.2-.6 1.4-.5 2.4 2.6 3.9-.1 5.7-.9.9-.4 1.6-1.2 2.5-1.3 4.5-.4 3.7-3.3 3.4-6.4-.4-4.9-2-8.3-7.4-9.2-2.7-.4-5.2-1.8-7.8-2.6-2.1-.6-3.8-1.4-3.2-4.4-1.1.1-2.1 0-2.6.4-2.3 2.3-4.7 1.3-7.1.5-8.6-3-14.5-11.3-14.7-20.4-.1-5.7 3.7-10.6 9.2-11.7.7-.1 1.8.4 2.4.9 2.2 1.9 4.2 3.9 6.3 5.8 2.1 1.8 3.6 3.8 3.1 6.8-.1.9.6 2.3 1.4 3 4.3 4.2 9.6 6.4 15.6 7 2.1.2 3.1-.7 3.8-2.5 1.5-3.8 1-7.5-.4-11.1-1.8-4.9-.4-8.9 3.7-12.6.6 1.8 1.1 3.4 1.6 5h.8c-.1-1.3-.3-2.6-.2-3.9.1-.9.3-2.1.9-2.5.5-.3 1.9 0 2.5.4 5.4 4.3 9.9 9 9 16.7-.2 2-.3 4.1.1 6 .3 1.5 1.2 3.4 2.4 3.9s3.1-.3 4.5-.8c1-.4 1.8-1.4 2.8-2.3 1.2 2.2-2.9 5.7 1.8 6.8 1.8-2.1 3-4.4 2-7.4-.3-.8.4-2.3 1.1-2.8 4.7-3.8 9.5-7.5 14.3-11.1 3.2-2.4 9.1-1.5 11.5 1.6 1.2 1.5 2.4 2.9 3.5 4.5 2.4 3.6 1.6 9.2-2.1 11.5-2 1.2-4.5 2.5-6.7 2.4-12.6-.7-22.8 5.5-33.3 10.7-.7.3-1.2 1.6-1.3 2.5-.3 2.7-.2 5.5-.6 8.2-.3 2.5.7 3.4 2.9 4 7.1 2 14.3 1.3 21.4.6 5.5-.5 11-1.2 16.5-1 5.7.2 11.3 1 16.9 2.1 1.6.3 2.9 2.4 4.1 3.9.8 1 1.3 2.2 2.1 3.7 1.9-2.6 3.3-2.8 4.7-.3.5.9 1.8 1.8 2.8 2 2.3.3 3.3 1.7 3.8 3.7 1 3.8-.6 7.8-4.1 9.4-3.2 1.4-5.2 3.7-6.9 6.6-1.3 2.2-3.1 4.4-5.3 5.6-12.9 7.3-26.8 11.5-41.5 12.7-4 .3-7.9-.4-11.9 1.2-4.1 1.7-6.2 4-6 8.6.1 2.7.7 5.4 1.1 8.3 7.9.4 15.5.8 23.1 1.1 4.8.2 4.8.2 10.2 3.6 2.9-4.3 7.2-3 11.2-2.4 4.7.6 9.3 1.6 14 2.2 3.8.5 7.5.9 8.6 5.5 4.1-1.9 7.6-1.1 11.2 1.1 6.7 4.1 12.7 8.8 15.5 16.5 3.7 10.1 3.9 20.2-1.2 30-1 1.8-1.2 4.1-2.2 5.9-1.5 2.7-3.4 5.2-5 7.8-.5.8-1.3 1.6-1.3 2.4 0 3.1-1.7 5.3-3.2 7.7-4.5 6.9-10.4 11.9-18.2 15.1-3 1.2-5.8 3.5-8.2 5.8-3.6 3.5-7.5 6.2-12.5 7-.8.1-1.7.4-2.4.7-2.9 1.2-3.5 4.2-1.3 6.5 4.6 4.8 9.1 9.6 14 14.8 4.6-1.1 9.1 2 13.9 3.9s9.2 4.6 14 6.5c5 2 10 3.6 12 9.3 5.2-1.5 12.2 2.9 13 8.1.1.6.3 1.6 0 1.8-3.2 2.3-6.2 5.5-9.8 6.5-4.6 1.3-9.8.5-14.7 1.2-10.3 1.4-19.7-.6-28.3-6.6-6.1-4.3-13.6-7.3-18.6-12.6-5.2-6-12.5-7.3-18-12.3zm32.8-124.9c-5 3.5-10.6 3.3-16.1 3.2-7.8-.1-15.6-.2-23.4 0-1.5 0-3.2 1-4.3 2-2.8 2.7-5.8 3.9-9.7 3.7-9.7-.5-19.3-1.2-28.9 1.7-3.5 1.1-7.7.1-11.5.3-2.3.1-4.6.2-6.8.8-2.3.7-4.6 1.7-6.6 3-1.1.7-2.2 2-2.4 3.1-.9 5.5-1.6 11.1-2.2 16.7-.5 5.2-2.8 10.5.3 15.7.2.4 0 1 0 1.6-.2 3.9-.5 7.8-.7 11.7-.2 4.6-.9 9.4-.5 13.9 1.1 10.2 13.7 19.6 24.4 18.8 3.6-.3 7.2 0 10.7 0 1.7 0 3.4-.7 5.2-.9 10.4-1.2 20.8-2.3 31.2-3.5 2.8-.3 5.7-1.1 7.3 2.4 1.1-1.7 1.8-4 2.9-4.2 4-.9 8.1-3.1 12.3-.7.5.3 1.4.2 2 0 6.1-1.9 12.1-4.2 18.3-5.9 3.3-.9 5.4-2.6 6.6-5.7 1.9-4.9 3.7-9.9 5.8-14.7 1.4-3.2 2.7-6.8 5-9 2.6-2.5 3.6-5.2 4.6-8.4 1-3.3 3.1-6.2 4.6-9.4 3.4-7.5 4.8-15.5.3-22.8-2.4-3.9-5-7.4-5.7-12 0-.1-.3-.2-.5-.3-.2 1.7-.4 3.5-.7 5.6-6.9-3.5-15.5-.1-21.5-6.7zm-5.1-72.2c-1.8 1.9-4.1 2.7-7 1.7-.8-.3-1.9 0-2.8 0-9.2.5-18.3.9-27.5 1.4-1.7.1-3.3.2-5.3.4v20.8c0 4.4 2.4 6.6 6.9 5.8 2.7-.5 5.2-1.6 7.9-2.2 8.6-2 17.3-4 26-5.8 1.7-.4 3.6-.1 5.4-.1v.9c3-1.6 4.8-3.9 5.1-7.4.1-1.9.8-3.7 1.2-5.6.8-3.6 0-5.3-3.3-6.8-2.1-1-4.1-1.9-6.6-3.1zm-101.3 5.4c-2.4 3.3-4.5 5.7-5.9 8.4-1 2-1 4.5-1.7 6.7-1.5 5.1-.5 7.6 4.3 10s9.8 1.8 14.9 2c5.2.2 10.4 1.1 15.6 1.6.7.1 1.5 0 2.2-.3 2.4-.9 4.8-2.1 7.3-2.8 4.1-1 5.3-2.2 5.4-6.5.1-4.4-.2-8.9.1-13.3.2-2.9-1.2-4.2-3.6-4.7-1.6-.3-3.5-.5-5-.1-9.2 3-18.8 2.2-28.3 2.8-2.4.3-4.2-.1-5.3-3.8zm54.3-37.7c3.1 3.4 7.6 3.9 10.6 1.2-2.9-1.4-5.7-2.8-8.7-4.2-.8 1.2-1.4 2.1-1.9 3zm67.8 238.7c-2.5-1.6-7.2 1.6-7.4 4.5 4 1.3 5.6-1.6 7.4-4.5zm-43-21.2c-1.8 3.6-1.4 5.9 2 8 .4-1.6 1.2-3 .9-4.1-.4-1.3-1.7-2.4-2.9-3.9zm16.7-229.2c-.5 2-.9 3.4-1.2 4.7 1.3-.3 2.6-.5 4.4-.9-1.2-1.4-1.9-2.2-3.2-3.8z"/><path d="m189.4 249c-.5 0-1.1 0-1.6-.1-2.9-.8-6.5-.7-8.4-2.5-3.4-3.2-4.4-7.9-3.5-12.7 1.3-6.6 2.8-13.2 4.2-19.8.1-.5.5-1.3.9-1.5 2.7-1.1 5.5-2.8 8.3-3 9.8-.7 19.6-1.4 29.1 2.4 1.8.7 3.6 1.3 5.2 2.3 2.9 2 4.2 4.6 3.9 8.6-.5 5.4-2.8 8.6-7.5 11.3-6.1 3.5-11.5 8.2-17.7 11.7-3.8 2.1-8.4 2.8-12.7 4.1 0-.2-.1-.5-.2-.8zm5.7-31c-.4 0-.7.1-1.1.1 0 1.1-.1 2.2-.1 3.2-1.7 2.9-3.6 5.9-5.2 9-.8 1.7-.2 3.8 1.9 3.9 8.5.2 16.7-.9 23.6-6.5 1.8-1.4 1.6-3.2.4-4.8-2.8-3.6-6.9-5.1-11.3-5.6-.5-.1-1.3.3-1.6.8-2.3 2.7-4.4 2.6-6.6-.1zm-6.5 20.9c-.2-.3-.4-.7-.6-1-2.5-.5-3.6 1.4-4.9 2.9.2.4.5.8.7 1.2 1.7-1.1 3.3-2.1 4.8-3.1z"/><path d="m149.9 241.9c-.3.4-1 1.6-1.7 2.7-1.6-4.4-2.4-8.3 0-12.2 1.5-2.4 2-5.5 3.8-7.6 5.8-6.9 8.2-15.4 11.1-23.6.4-1.1.5-2.5.5-3.7 0-3.2 1.2-4.9 4.4-5.4 8-1.2 16.1-2.9 24.1-3.5 7.3-.5 14.7.2 22.1.3.3 0 .6.1.9.2 2.4.8 5.1 2.2 4.6 4.8-.3 1.6-3.2 3.5-5.1 3.7-7.6.8-15.2.9-22.8 1.3-4.1.3-8.2 1-12.3 1.2-4.7.2-7.2 2.9-8.9 6.9-2.2 5.4-4.4 10.7-6.6 16.1-.3.7-.4 1.7-.9 2-5.5 3.5-5.6 10.9-10.5 14.8-.4.6-1.2 1-2.7 2z"/></svg>