<svg enable-background="new 0 0 400 400" viewBox="0 0 400 400" xmlns="http://www.w3.org/2000/svg"><path d="m193.6 169.7c1.2-2.2 2.4-4.2 3.4-6.2 1.1-2.1 2.1-4.3 3-6.5 1.7-4.1 2.7-8.5 5-12.2 8.2-13.4 14.8-27.6 19.3-42.6 1.1-3.8 1-8.2.7-12.2-.5-6.3.4-10.1 4.6-14.8 7.7 3.2 11.3 9.7 9.4 17.7-1 4.2-2.7 8.2-4.1 12.3-.4 1.1-.9 2.1-1.4 3.4 6.9.5 13.4.7 19.9 1.5 10 1.2 20.1 2.5 30 4.5 5.4 1.1 10.6 3.7 15.8 5.8 4.7 1.9 5.3 4.9 2.3 8.9-1.7 2.2-3.7 3.7-6.4 4.2-3.3.6-5.9 2.5-8.4 4.7-5.3 4.6-10.8 8.9-16.4 13.1-1.4 1.1-3.5 1.4-5.3 1.8-5.5 1.2-11 2.3-16.5 3.4-3.1.7-4.1 2-3.2 5.2.5 1.8 1.4 3.5 2.3 5.2 3.6 6.3 7.3 12.7 11 18.9.7 1.2 1.7 2.5 2.8 3.4 11.4 9 21 19.6 28.6 32 3.3 5.4 8.5 8.8 13.1 12.7 1 .9 2.4 1.6 3.1 2.7 4.2 7.5 11.5 10.8 18.6 14.6 2.5 1.4 5.2 3.1 6.9 5.3 3.8 5.1 9.4 6.7 15 8.1 5.4 1.3 10.6 2.9 14.9 6.6.3.3.7.5 1.3.9-6.7 5.5-14.3 7.6-22.3 8.1-12 .7-24.2.2-36.1 1.5-7.3.8-11.3-1.4-14.7-7.5-3.8-6.8-8.6-13.1-12.9-19.6-.6-.9-1.4-2-1.2-2.8.9-3.6-.8-6.4-2.5-9.2-5.5-9.1-8.2-19.2-10.2-29.5-.3-1.6-1.4-3.3-2.4-4.6-1.4-1.9-3-3.6-4.7-5.2-3.6-3.2-5.9-7-6.1-12-.1-1.2-1.2-2.6-2.2-3.4-1.8-1.5-3.7-2.8-5.7-4-1.9-1.2-3.3-2.4-3-5 .1-.7-.7-1.8-1.4-2.1-3.1-1.5-4-4.3-5-7.3-.6-2.1-2-3.9-3.5-5.6-2.5 7.3-3.2 14.6-2.5 22 .9 9.1 2.6 18.1 2.8 27.1.2 10.8-.5 21.6-1.4 32.3-1.5 19.4-2.5 38.8-2.5 58.3 0 4.8-.9 9.7-1.9 14.4-.6 2.7-2.3 5.1-3.9 7.5-3.2-7.1-7-13.8-7.3-21.6-.2-5.8-.2-11.6-.2-17.4-.1-4.3.4-8.7-.3-13-1.3-7.5 1.4-14.5 1.9-21.7.5-7 .3-14.1.7-21.2.3-5.2.6-10.4 1.7-15.4 2.3-11 .5-21.7-1.4-32.4-1.1-5.7-1.5-11.3-.6-17 .5-3.6-1.1-4.7-4.1-3-2.1 1.2-4.1 2.8-5.7 4.7-3.1 3.4-5.1 4.1-10.7 2.2zm39.5-15.2c7-.2 13.1-1.4 18.3-4.9 9.7-6.4 19-13.3 28.4-20.2 2.5-1.8 2-4.9-.9-6-2.7-1-5.4-1.8-8.2-2.2-9.3-1.1-18.7-1.9-28.1-2.9-6.1-.7-9.5 1.2-12.2 7-1.6 3.4-3.9 6.6-4.9 10.2-.9 3.1-.7 6.5-.4 9.8.1 1.6 1.6 3 2.1 4.6.9 3.7 3 5.3 5.9 4.6z"/><path d="m110.9 323.6c-.8-4.1-1.8-7.8-2.2-11.5-3.6-28-5.6-56-4.4-84.2.4-8.9 2-17.8 3.1-26.7.1-.7.3-1.5 0-2.1-1.7-3.9-3.6-7.9-5.6-12.3-9 1.6-19-.5-27.9 4.7-1.3.8-2.1 1.3-1.7 3.1 4 18 .8 36-.3 54-.1 1.2-.6 2.5-1.3 3.5-2.6 3.4-3.3 7.3-2.4 11.1.9 4-.3 6.8-3 9.4-1 1-2 1.9-3 2.8-2.1 1.8-4.2 1.2-4.4-1.6-.3-3.7-.6-7.5.1-11 1.9-10.2 1.6-20.4.7-30.7-1-10.6 1.3-20.9 3.3-31.1.9-4.4 3-8.6 3.3-13.3 0-.7 1.1-1.8 1.9-2.1 6.8-2.6 13.6-5.2 20.5-7.5 2.3-.8 5-.6 7.5-.7 8.3-.4 11.8-4.9 9.9-13.1-.6-2.8-.8-5.4 1.3-7.8 3.8-4.2 8.1-3.3 12.3-.6 2 1.3 1.7 3.4 1.1 5.5-.5 1.7-1 3.5-1 5.2.1 3 2.3 5.3 5.5 5.4 5.8.3 11.6.3 17.5.4 3.7.1 7.4.1 11.1.2.8 0 1.8 0 2.5.4 12.6 7.8 18.6 16.1 16.2 30.4-.1.4-.1.9-.3 1.2-3.6 5.3-2.7 11.3-2.7 17.2 0 14.8-1.9 29.2-5.1 38.1-2.3.5-3.6-.4-4.7-2.5-4.8-9-5.5-18.5-3.9-28.4.4-2.1.6-4.4.2-6.5-1.2-6.2 1.1-11.9 1.7-17.8.5-4.9.8-9.9.9-14.8 0-1.6-.7-3.3-1.4-4.8-1.3-2.7-3-4.1-6.5-3.4-7.8 1.5-15.7 2.4-23.5 3.5-2.2.3-3.7 1.3-4.2 3.2-.7 2.8-1.7 5.9-1.3 8.6 1.6 9.5.9 19-.2 28.5-2.4 19-2.5 37.9-1.4 57 .6 10.1.1 20.3-.2 30.4-.4 4.6-2.9 8.1-8 10.7z"/><path d="m45.2 159.6c-2-5.5-.5-9.9.8-14.3.2-.7 1.8-.9 2.7-1.3 10.9-4.6 21.9-9 32.5-14.1 4.5-2.2 8.3-6 12.6-9.2-3.9-4.1-7.9-6.5-12.5-7.5-6.1-1.3-12.3-2-18.4-3.1-1.9-.3-3.9-.9-5.7-1.7-4.9-2.2-9.9-3.5-15.3-3.6-3.5-.1-6.9-.5-10.1-3.2 5.1-2.9 10.4-3.9 15.9-4.2 13.3-.8 26.1 2.2 38.8 5.5 7.3 1.9 14.3 5.1 21.5 7.4 1.9.6 4.1.9 6 .4 6.1-1.4 10.7-5.2 15.4-9 6.3-5.1 12.7-10.2 19.3-14.9 1.4-1 4.1-1.1 5.9-.6 4.2 1.1 5.2 4.5 1.8 7.4-5.4 4.6-10.6 9.4-15.7 14.4-3.5 3.4-6.6 7.3-9.9 11.1 6.1 5.9 12.8 9.3 20.3 11.4 9.3 2.5 18.6 4.8 27.9 7.1 2.6.6 3.9 2.1 4.5 4.7.6 2.5-1.3 3.1-2.7 4.1-8.5 5.6-17.8 6-27.5 3.9-.2 0-.5-.1-.6-.2-5.1-5.1-12-5.2-18.3-7.4-3.2-1.1-6.2-3.1-9.1-4.9-2.1-1.3-3.9-3.4-6.1-4.5-2.7-1.3-5.8-1.9-8.7-2.8-3.5-1.1-5.4 1.4-7.7 3.3-5 4.2-10.9 6.5-17.1 8.1-8.9 2.4-16.9 6.4-24.7 11.2-4.3 2.8-10 4.2-15.8 6.5z"/></svg>