<svg enable-background="new 0 0 400 400" viewBox="0 0 400 400" xmlns="http://www.w3.org/2000/svg"><path d="m261.61 193.59c-5.7-3-11.46-2.51-17.23-1.58-.64.1-1.48.73-1.72 1.32-6.22 15.03-18.21 25.89-27.91 38.37-8.17 10.51-15.68 21.39-23.04 32.49-7.4 11.16-16.67 21.39-28.61 28.38-1.79 1.05-4.16 1.49-6.28 1.55-3.79.11-7.6-.47-11.39-.42-3.28.04-3.42-1.8-3-4.14 1.12-6.18 4.32-11.47 8.85-15.45 12.56-11.05 22.53-24.11 31.79-37.91 5.53-8.24 11.97-15.89 18.12-23.7 3.64-4.63 6.4-9.62 7.65-16.25-4.34 0-8.45-.49-12.4.11-6.83 1.03-7.1-2.21-6.33-7.06.44-2.8 1.56-5.02 3.89-7.04 4.81-4.17 5.44-10.16 5.08-16.06-.42-6.69-1.67-13.33-2.06-20.02-.34-5.78.09-11.61.03-17.42-.02-1.71-.24-3.54-.9-5.08-1.94-4.58-1.96-9.27-.53-13.81 2.41-7.66 5.24-15.2 8.02-22.74.39-1.05 1.38-2 2.32-2.69 1.8-1.32 3.69-2.57 5.68-3.56 4.81-2.38 8.25-5.84 10.15-10.98.5-1.35 2.02-2.65 3.39-3.31 8.68-4.14 17.44-8.11 26.18-12.09 1-.46 2.09-.84 3.17-.98 11.62-1.48 22.49 1.64 32.78 6.4 3.98 1.84 6.87 5.96 10.4 8.88 3.02 2.5 5.03 5.49 6.28 9.23 2.15 6.46 4.31 12.97 7.1 19.17 3.37 7.49 3.91 15.1 3.58 23.18-.22 5.46-1.87 9.37-5.83 13.03-5.16 4.78-9.9 10.04-14.58 15.31-3.44 3.87-6.01 8.32-6.93 13.82.84.31 1.62.65 2.44.89 3.86 1.15 7.67 2.53 11.59 3.35 25 5.22 43.04 20.82 58.79 39.6 8.56 10.21 11.23 22.67 11.37 35.73.01 1.01-.6 2.13-1.19 3.03-8.03 12.39-15.63 25.11-24.36 36.99-4.76 6.47-11.02 12.07-17.36 17.11-15.25 12.13-31.37 23.03-48.39 32.58-5.26 2.95-10.08 6.67-15.31 9.68-3.82 2.19-7.98 3.78-12.53 5.89-.28-4.22-.59-7.54-.65-10.88-.02-.85.57-1.93 1.22-2.53 12.13-11.11 24.1-22.41 36.62-33.06 3.37-2.87 6.83-5.29 9.88-8.75 4.66-5.28 10.76-9.38 16.56-13.55 3.97-2.86 6.89-6.33 8.9-10.66 4.6-9.9 7.55-20.32 9.2-31.08.21-1.36-.26-3.34-1.18-4.23-1.84-1.77-3.38-.03-4.82 1.24-5.87 5.19-12.15 9.99-17.54 15.63-5.93 6.2-11.4 12.91-16.44 19.86-5.54 7.62-12.05 13.94-19.9 19.14-6.42 4.26-12.2 9.48-18.58 13.81-3.43 2.33-7.38 4.13-11.35 5.37-3.96 1.24-6.3-1.78-4.58-5.72 1.37-3.14 3.12-6.21 5.2-8.93 3.4-4.44 7.09-8.67 10.85-12.8 10.13-11.13 18.72-23.38 27.06-35.86 2.88-4.32 6.8-7.95 10.18-11.94 5.05-5.96 10.63-11.58 14.91-18.06 6.41-9.71 5.29-12.49-4.99-17.6-10.09-5.02-10.12-5.04-17.47 3.1-13.48 14.94-24.23 31.84-35.15 48.64-7.5 11.53-14.94 23.13-23.29 34.03-6.05 7.89-13.67 14.53-23.3 18.15-2.18.82-4.51 1.35-6.81 1.67-.96.14-2.78-.42-2.94-1.01-.39-1.42-.68-3.68.12-4.49 14.77-14.95 24.37-33.37 34.61-51.33 5.95-10.44 12.66-20.29 20.29-29.55 5.45-6.64 9.91-13.84 12.62-22.41zm4.77-58.49c-2.66-.7-4.96-1.69-7.31-1.86-9.36-.67-18.74-1.19-28.12-1.55-2.97-.11-4.71 1.86-4.9 4.78-.33 5.02-.74 10.07-.55 15.08.13 3.5.86 7.09 2.05 10.38.54 1.49 2.69 2.97 4.37 3.39 6.45 1.59 12.95 1.14 19.07-1.43 2.57-1.08 5.86-2.71 6.83-4.96 3.26-7.55 5.64-15.49 8.56-23.83zm-15.57-24.22c3.23-3.83 7.11-4.16 11.47-3.67 3.39.39 6.88.14 10.31-.09 2.52-.17 3.58-1.71 3.31-4.33-.83-8.13-3.19-15.73-7.66-22.59-.89-1.37-2.24-2.48-3.51-3.55-1.6-1.35-3.13-1.47-5.08-.14-8.3 5.65-16.75 11.11-25.13 16.65-4.94 3.27-5.53 5.53-3.06 10.97 1.24 2.73 3.19 3.96 6.16 3.2 4.94-1.26 9.3-.35 13.19 3.55z" fill="#010000"/><path d="m109.48 284.01c-1.36-5.97-1.04-11.23 1.92-16.48 5.55-9.82 10.74-19.85 15.93-29.87 2.42-4.68 3.93-9.68 4.09-15.41-9.95 3.34-19.57 6.56-29.19 9.8-7.73 2.6-15.47 5.17-23.15 7.91-1.48.53-3.13 1.5-3.96 2.76-2.93 4.46-5.56 9.11-8.25 13.72-1.96 3.37-3.45 7.09-5.83 10.12-8.38 10.63-17.07 21.02-25.63 31.51-2.19 2.68-5.04 3.97-8.46 4.16-2.13.12-3.65-.74-3.35-2.99.55-4.18.89-8.49 2.25-12.42 3.03-8.75 6.65-17.31 10.02-25.94.12-.31.14-.87.32-.92 4.08-1.22 2.55-4.61 2.48-7.09-.25-8.38-.92-16.74-1.24-25.12-.06-1.66.67-3.36 1.04-5.04.3.02.61.04.91.07-5.87-15.19-11.75-30.38-17.78-45.98 4.64-.94 8.99-1.79 13.33-2.7 15.15-3.19 28.98-9.6 42.39-17.16 7.12-4.01 7.06-10.57 6.74-17.21-.15-2.97-.83-6.02-1.89-8.81-3.62-9.5-5.99-19.12-5.53-29.42.45-10.09-2.65-19.64-5.18-29.27-.84-3.2-1.22-6.61-1.26-9.92-.04-3.34 1.59-5.32 5.17-6.73 6.31-2.49 11.32-1 16.55 2.49 8.67 5.78 15.78 12.81 19.95 22.52.48 1.13 1.04 2.24 1.72 3.26 2.42 3.63 6.44 4.3 10.15 2.1 12.58-7.45 26.23-11.9 40.7-13.68 7.32-.9 14.69 6.26 15.9 14.92.63 4.56-.47 7.65-4.87 8.47-12.39 2.29-20.94 11.14-31.11 17.19-8.74 5.2-17.13 10.99-25.75 16.41-1.77 1.11-2.68 2.33-2.88 4.47-.37 4-1 7.99-1.69 11.96-.39 2.21.15 3.38 2.39 4.3 7.03 2.88 13.83 6.37 20.94 9 8.58 3.18 15.07 8.75 20.06 16.11 3.82 5.62 7.19 11.55 10.59 17.45 1.48 2.56 1.69 5.37 1.03 8.39-2.13 9.83-4 19.72-6.03 29.57-.22 1.05-.65 2.15-1.28 3-8.26 11.29-16.45 22.63-24.92 33.76-6.86 9-15.52 15.38-27.34 16.74zm26.49-88.03c-.76-6.06-2.96-11.1-6.62-15.51-4.52-5.44-14.27-8.87-19.84-6.9-11.15 3.95-22.26 8.02-33.43 11.91-2.06.72-2.66 1.74-2.61 3.86.14 6.26.29 12.53-.03 18.77-.22 4.18.91 7.56 3.49 10.75 1.1 1.36 1.86 1.83 3.55 1.04 4.14-1.94 8.39-3.65 12.59-5.46 14.23-6.12 28.47-12.25 42.9-18.46z" fill="#010000"/><g fill="#fbfcfa"><path d="m361.2 9.6.8-1c.9.7 1.9 1.4 2.9 2.3l-.9 1.1c-1-1-2-1.8-2.8-2.4zm.5 10.6c.9-2.1 1.6-4.3 2.3-6.7.4.2.8.4 1.3.6-.7 2.1-1.5 4.3-2.2 6.6zm.4-15.2.9-.9c1 .8 2 1.6 2.8 2.4l-1 1c-.9-.9-1.8-1.7-2.7-2.5zm12.5-1.2h1.2v1.4h2.7v1.1h-2.7v2.7h-1.2v-.6h-1.8v1.3h4.9v3.8h-1.2v-.5h-3.7c0 .4-.1.9-.1 1.2h5.1v1h-5.2c0 .5-.1.9-.2 1.2h6v1h-5.2c1.1 1.3 2.9 2 5.5 2.2-.4.4-.7.8-.9 1.3-2.9-.5-4.8-1.6-5.7-3.5h-.1c-.8 1.7-2.7 2.9-5.9 3.6-.2-.4-.6-.8-.9-1.1 2.8-.6 4.6-1.4 5.4-2.5h-4.8v-1h5.3c.1-.3.2-.7.2-1.2h-4.9v-1h5c0-.4 0-.8.1-1.2h-3.5v.5h-1.2v-3.8h4.9v-1.3h-1.8v.5h-1.2v-2.7h-2.7v-1h2.6v-1.4h1.2v1.4h4.7v-1.4zm-6.6 8.3h3.6c0-.4 0-.9 0-1.4h-3.6zm1.9-4.6h4.7v-1.3h-4.7zm6.6 3.2h-3.7v1.4h3.7z"/><path d="m385.3 3.8h1.3v2.2h2.8v-2.2h1.3v2.2h4.1v9.1h1.7v1.3h-16.9v-1.3h1.7v-9.1h4.1v-2.2zm.4 13.1.7 1.2c-1.8.9-3.8 1.9-6 2.9-.2-.4-.5-.8-.8-1.3 2.3-1 4.3-1.9 6.1-2.8zm-3.1-6.4h2.8v-3.2h-2.8zm0 4.6h2.8v-3.3h-2.8zm4-4.6h2.8v-3.2h-2.8zm0 4.6h2.8v-3.3h-2.8zm3.7 1.9c2.1.9 4.1 1.8 6.1 2.7l-.7 1.3c-2.2-1.1-4.2-2-6.1-2.9zm3.2-9.7h-2.8v3.2h2.8zm-2.8 7.8h2.8v-3.3h-2.8z"/></g></svg>