<svg enable-background="new 0 0 400 400" viewBox="0 0 400 400" xmlns="http://www.w3.org/2000/svg"><path d="m132.1 234.4c-.3 2.3-.6 4.2-.8 6.1-.6 4.5-.3 5 4.1 6.5 5.8 1.9 11.7 1.4 17.6.7 9.6-1.2 19.1-2.5 28.7-.3 1 .2 2.5.3 2.9 1 1.1 1.6 2.1 3.5 2.4 5.4.4 2.4-2.1 2-3.4 2.2-13.7 1.9-27.4 3.7-41.2 5.6-1.2.2-2.3.2-3.5.4-4.3.8-7.8 2.2-9.9 6.8-3.2 7-7 13.7-10.6 20.7-3.1-1.7-5.5-3.6-6.7-7-1.4-3.8-3.3-7.3-4.8-11-.7-1.9-1.8-2.6-3.8-2.5-1.9 0-3.8-.3-5.7-.5-2.3-.2-4.3-.1-6.2 1.5-1.1.9-3 1.2-4.5 1-9.5-1.3-18.4 1.3-27.5 3.5-5.6 1.3-11.3 3-17.2 1.7-1.5-.3-3-.8-5.1-1.4.9-2.1 1.6-3.9 2.5-5.6.5-1 1.5-1.8 2-2.9 2.6-6.2 8.1-7.7 14-8.5.2 0 .5-.2.6-.1 6.2 3.7 10.8-2.8 16.6-2.8 6.1 0 12.1-1.4 18.2-2.4 4.3-.7 8.6-1.3 12.7-2.5 1.5-.4 3.3-2.4 3.5-3.9.4-3.3-.6-6.6-3.5-8.7-.9-.6-2.7-.2-4 0-16 1.7-32 3.4-48 5-3.7.4-7.4.7-11.1.4-2.7-.2-5.2-1.4-8.5-2.4 2.9-4.3 5-7.8 7.7-10.9 1.2-1.4 3.5-2.1 5.4-2.4 12.3-1.8 24.7-3.5 37.1-5 4.4-.5 8.9-.2 13.3-.9 2.4-.4 4.6-2 6.8-3.1-.1-.5-.2-1-.3-1.5-4.8-.5-9.5-1.1-14.3-1.6-4.4-.4-8.9-.3-13.3-1.1-7.5-1.5-13.2-6.1-17.6-12.2-7.6-10.7-13-22.2-12.4-35.7.3-6.2-.2-12.5-.3-18.7 0-.9-.1-2.2.4-2.8 3.3-3.9 3.2-8.8 4.5-13.4.5-1.8 1.9-3.3 2.9-5 1.1-1.9 2.2-3.9 3.4-5.8.5-.8 1.1-2.3 1.7-2.3 4.2-.2 6.2-3.7 9.3-5.6 1.2-.7 2.8-.9 4.2-1s2.9.4 4.3.1c9.6-1.9 19.3-3.9 28.9-5.9 2-.4 4.1-.6 4.3-3.3s-1.6-6-4-6.5c-5.2-1.1-10.3-2.5-15.6-2.9-12.8-1-25.6-1.4-38.3-2.1-2.9-.2-5.9-.6-8.7-1.5-3.1-1-3.3-2.8-2.3-5.9 1.1-3.3 3.3-4.9 6.5-5.8 15.9-4.6 31.9-7.3 48.5-6.2 5.1.3 10.4.4 15.5-.3 7.8-1 11-5.8 10.6-13.8-.1-2.9 0-6 1.1-8.6.9-2.2 3.3-3.8 5.2-6 1.1 1.6 1.7 2.6 2.7 4.2.3-4.3.6-8 .8-11.7 3.5.8 5.5 2.9 5.8 6.1.1.7.1 1.5.1 2.2-.3 3.9-.2 7.5 2.4 11.1 1.3 1.8 1.1 4.9 1.2 7.4.2 5.5 1.7 6.8 7.2 6.5 13.3-.5 26.4.8 39.2 4.3 3.6 1 6.6 3.7 10.6 6.1-1.5.8-2.1 1.1-2.8 1.4.9.6 1.7 1.2 2.7 1.9-6.8 4.8-14.4 7.1-22.3 8.5-5.1.9-10.2 1.8-15.4 2.1-4.4.3-8.8.2-13.2-.3-3-.4-5.2.4-6.4 2.8-1.4 2.5-2.1 5.4-3.5 9.1 6.1 1.3 11.5 2.8 17 3.5 6.7.8 13.5 1 20.3 1.3 7.3.3 13.4 4.2 20.1 6.3.8.3 1.3 1.8 1.9 2.7 1.7 2.3 3.5 4.6 5.1 7 1.1 1.6 2.4 3.2 2.8 5 1.6 6.4 3 12.8 4.2 19.2.4 2.1.4 4.4-.1 6.4-1.4 5.3-3.4 10.5-4.8 15.8-1 3.7-3.1 6.5-5.5 9.4-9.4 11.8-21.5 18.6-36.1 21.9-9.1 2.1-17.9 5.9-26.9 8.6-2.9.9-3.9 2.4-3.5 5.5 5.7 2.8 11.9 3 18.1 2.7 6.4-.4 12.9-1 19.3-1.3 4.7-.2 9.1.9 12.1 5 2 2.8 1.6 4.1-1.4 5.6-5.8 2.8-12.1 3.5-18.5 3.8-8.9.3-18 1-27.5 1.6zm.3-96.7c.3 1.9.6 3.7.9 5.5.5 3 2.1 4.3 5.4 4.2 8.8-.3 17.5 0 26.3-.1 7.3-.1 14.7-.7 20.9 4.2.3.2.8.4 1.2.4 2 .1 4.1.3 4.9-2.2 4-12.6-8.5-27-21.5-25.4-10.3 1.2-20.5 4.3-31.1 2-3-.6-5.1 1.3-5.8 4.4-.5 2.3-.8 4.7-1.2 7zm-66.7 18.5c5.5-.8 10.4-1.8 15.5-2.3 5-.5 10.1-.4 15.2-.8 2.7-.2 5.5-.6 8.1-1.5 7.3-2.3 7.6-2.6 8-10.4.1-2.2.1-4.5-.2-6.6-.5-4-3.3-6.8-6.8-6.7-6.4.2-12.9.4-19.2 1.2-8.5 1.1-16.8 2.9-25.4 4.4 1.6 7.8 3.2 15.2 4.8 22.7zm46.8 24.4c-.8-1-1.9-1.7-2.1-2.7-.5-2.1-1.7-2.8-3.7-3.2-7.5-1.5-15-2.2-22.6-1-5.5.8-11.1 1.2-16.7 1.9-2.6.3-4 1.5-2.9 4.5.8 2.2 1.2 4.5 1.3 6.8.2 3.8 2.5 5 5.6 5.7.9.2 1.9.3 2.8.6 2 .8 3.9 1.7 6 2.6 3.2-.5 6.8-1.2 10.4-1.7 4.4-.6 8.8-.9 13.2-1.7 1.5-.3 3.3-1.3 4.1-2.5 1.7-3 3.1-6.3 4.6-9.3zm19.4-8.5c.2 3.5.3 7.4.8 11.3.5 4.9 2.5 6.4 7.4 5.9 2.6-.3 5.2-.8 7.8-1.5 3.5-1 6.7-.7 9.7 1.2 3.6 2.3 7.1 1.6 9.3-2.2 2.2-3.7 4.8-6.5 9.8-6.3-2.5-2.5-1.4-4.4.1-6.4 2-2.8 1.5-4.1-1.7-5.1-2-.6-4.2-1.3-6.2-1-10 1.1-19.9 2.5-29.8 3.7-2.3.1-4.6.2-7.2.4z"/><path d="m269.5 240.7c-.9 1.7-1.4 2.7-2 3.8 2.7 1.5 5.2 3.3 8 4.5 7 3.1 9.6 9 10.3 15.9.9 8.3-.5 16.4-4 24.1-.2.5-.4 1-.7 1.4-4 6.3-3.9 6.4 2.9 9.4 7.3 3.2 14.5 6.4 21.7 9.6.7.3 3.2 0 1.6 2.2.8.4 1.6.9 2.4 1.2 12.8 4.6 25.1 10.1 36.1 18.2 4.2 3.1 8.1 6.8 12.2 10.2 1.3 1.1 1.1 3.7 3.6 3.9.2 0 .4.7.4 1.1-.7 6.4-1.5 12.8-2.2 19.4-4.1 0-8.1.3-11.9-.2-1.2-.1-2.2-2.1-3.3-3.3-1.9 2.9-4.6 2.3-7.3.8-4.5-2.5-9-5.2-13.4-7.9-18.5-11.3-36.9-22.7-55.5-33.9-2.4-1.5-5.5-2.2-8.4-2.4-1.7-.2-4 .6-5.2 1.9-4.5 4.8-10.1 7.6-16.1 9.8-6 2.1-12 4.2-18.1 5.8-2.8.7-6 .1-9-.1-2.9-.2-5.8-.6-8.6-1.2-1.1-.2-2.2-.9-3.5-1.5-2 2.1-4.9 2.6-7.7 1.5-8.2-3.2-17-5.6-23-13.4 4.5-2.9 7.4-8 14.7-6.5 10.2 2.1 20.6 3.9 31.2 2.2 4-.6 7.9-1.3 11.9-2.1 5-1.1 8.8-3.9 11.5-8.4-5.6-4.7-11.8-8.5-18.6-11.1-8.8-3.4-17.5-7-23.6-14.8-1-1.2-1.9-2.5-3-4 1.4-.6 2.5-1 3.9-1.6-.5-1.3-1-2.7-1.5-4 4.6-1.3 9-2 13.4 0 1.2.6 2.6.8 3.9 1.2 5.3 1.5 10.2 3.8 15.2 6.1 9.1 4.1 18.8 6.8 28.3 10 .6.2 1.8 0 2.3-.5 5.9-5.7 10.9-11.9 11.3-20.6.3-5.9-1-10.9-6.8-14.1-6.9-3.9-14.2-6.1-22.1-5.9-10.2.2-20.3.7-30.5.8-2.9 0-5.9-.6-8.6-1.6-3.2-1.1-4.2-4-4.5-7.1-.1-.6.7-1.7 1.4-2 5.4-3 11.1-5 17.5-4.9 3.6.1 7.3-.7 10.9-1.5 2-.5 3.7-.5 5.3.8 1.4 1.2 2.8.8 4.6.5 3.5-.5 7.3-1 10.6 0 7.3 2.2 14.4 5.4 22 8.3z"/><path d="m258.2 142.2c-.1-2.4 2.1-4.4 4.4-6.2 3.2-2.5 3.5-3.9 1.6-7.5-3.6-6.7-11.5-10-18.6-7.6-1.2.4-2.4 1.3-3.3 2.2-2.7 2.7-5.3 5.5-8 8.2-3.5 3.6-8 5-12.9 5.2-.9 0-2.2-1-2.7-1.9-2.9-5.2-1.8-10.6-.8-16.1.7-4.2 2.9-6.8 7.4-7.4-1.8-2.4-.9-3.2 1.2-4.7 5.9-4.2 11.5-8.9 17-13.7 3.1-2.7 6.8-3 8.9.5 3 4.7 7.4 7.3 11.8 10.3 9.4 6.2 17.7 13.6 20.9 25 1.9 6.7 1.6 13.2-1.2 19.8-2.4 5.7-5.8 9.8-11 13.2-8.3 5.3-16.4 11.3-24 17.5-3.7 3-6.3 7.3-9.6 11.1 4.7 3.3 9.5 3.4 13.9 2.3 7.8-2 15.4-4.5 22.9-7.2 1.9-.7 3.6-2.5 5-4.2 7.5-8.7 14.7-17.8 22.5-26.3 3.2-3.5 7.6-5.9 11.5-8.8 2.1-1.5 3.5-.7 4.9 1.3 3.1 4.8 3.8 9.5 1.8 15-3.6 9.9-7.9 19.4-14.6 27.6-.8.9-1.7 1.9-2.8 2.4-8.5 4-17.1 7.7-25.6 11.7-6 2.8-12.3 4.6-18.9 4.9-1.4.1-2.9-.8-5.1-1.5-11.8 4.9-24.9 6.5-38.5 3.6-.9-.2-2.3-1.8-2.3-2.7-.1-6.1 0-12.2.3-18.3.3-4.8 2.6-8.6 6-12.1 8.6-8.7 16.7-18 25.4-26.7 3.5-3.3 8-5.7 12.5-8.9z"/><path d="m160.5 291.2c-1.2 5.9-1.9 12.4-6.8 17.3-4.6 4.5-9.2 9.1-14.2 13.1-3.5 2.9-7.9 3.8-12.6 2.6-3.8-1-7.7-1.5-11.5-2.2-.7-.1-1.8-.4-2.1-.1-2.6 3.3-6.4 2.8-9.6 2.6-5.4-.4-10 2-15 3.1-7 1.5-14 3-21 4.5-4.7 1-9 .8-13.8-.3-3.8-.8-4.1-3.2-5.8-5.2-2.1-2.5-2-5.3-1.4-8.3 1.2-6 2-12.1 3.2-18.1.3-1.5 1.4-2.9 2.2-4.3.8-1.5 1.6-3.1 2.5-4.6.7-1.1 1.4-2.8 2.4-3.1 1.8-.6 4.3-1.7 5.7.8 2.6 4.5 5.2 9.1 7.6 13.8 1.2 2.4 1.3 6.1 3.1 7.4s5.3.4 8 .1c16.2-1.4 32.4-2.9 48.7-4.5 1-.1 2.1-.9 2.9-1.6 6-5.8 12-11.7 17.9-17.6 1.6-1.6 2.9-3.2 5.7-2 2.5 1.2 3.8 3.2 3.9 6.6z"/></svg>