<svg enable-background="new 0 0 400 400" viewBox="0 0 400 400" xmlns="http://www.w3.org/2000/svg"><path d="m292.1 154.6c-2.5 6.3-7.3 9.2-13.3 10-7.5 1-15.1 1.7-22.6 2.3-4.2.4-6.1 1.8-5.5 5.8 2 13.3-.3 26.4-1.5 39.5-.5 5.5 0 11 0 16.5 0 3.8 2.7 5 5.6 5.8 1.2.3 2.5.4 3.8.3 13.6-1.7 27.1.8 40.4 2.7 4.6.6 8.3-.3 12.5-.8 5.5-.6 11.1-.4 16.7-.8 2.1-.1 4.2-.8 6.2-1.4 3.5-1.1 7.1-2.2 10.4-3.6 5.5-2.4 10.8-5.2 16.2-7.8 3.2 4 3 7.1-.8 10.2-4.7 3.8-7.5 8.8-10.2 14-3.1 5.9-6.5 11.6-9.7 17.4-.5 1-2.1 1.9-.3 3.1-1.2 1.4-2.1 3.6-3.6 4.1-2 .7-4.4.5-6.6 0-5.8-1.2-11.5-2.7-17.2-4.1-.2 0-.4-.2-.6-.2-7.5 1.2-12.3-4.3-18-7.4-5-2.8-9.8-4.4-15.5-4.1-4.5.2-9.1-.2-13.6-.2-1.6 0-3.2.7-4.8.8-1.5.1-3.2.2-4.6-.3-3.2-.9-6-.8-9.1.8-4.6 2.3-9.1 4.4-11.9 9-.3.6-1.7.8-2.6.7-1.1-.1-2.2-.7-3.3-1-4.7-1.6-6.1-3.9-4.8-8.8.8-3.1 2.4-6.1 3.5-9.2 2.1-5.7 1.8-8.6-.8-14-1.8.4-3.5 1.2-5.2 1-3-.3-5.5.9-8.1 2-6 2.5-12.2 4.7-18.3 7-2.1.8-4.2 1.6-6.2 2.4-5.6 2.2-11.6 4-13.4 11.1-8.7-2.8-17-5.5-25.2-8.2-1.3 3.2-.8 5.6 1.7 8.1 4 4 2.6 13-2.5 15.4-1.5.7-4.1-.6-6-1.5-3.9-1.8-7.4-5.2-11.4-5.8-5.3-.7-10.6-1.6-16-1.6-2.9 0-5.8 0-8.5 1.7-1.2.8-3.1 1-4.6.9-8.5-.7-16.6 1.2-24.8 2.7-4.4.8-9 1.3-13.5 1-5.4-.3-9.5 1.5-12.8 5.5-2.3 2.8-4.9 4.7-8.7 4.3-1-.1-2.2-.7-2.8-1.5-3.4-4.5-3.9-9.7-3.9-15.1 0-.7.6-1.6 1.2-2.1 5.2-5.6 6.6-12.4 6.4-19.7-.7-23.2-3.3-46.2-6.8-69.1-.2-1.2-.9-2.4-1.7-3.3-3.8-4.2-4.1-9.1-3.1-14.3.3-1.9 6.2-5.5 8.7-5.6.3 0 .6 0 .9.1 8.2 2.1 15.7-.6 23.4-3 4.1-1.3 8.7-.8 13.1-1.4 1.4-.2 2.8-1 4.2-1.5 1.2-.5 2.4-1.4 3.7-1.5 7.1-.2 13.8-2 20.2-4.9.7-.3 1.4-.7 2.1-.7 11.5.5 22.2-5 33.6-4.5 3.5.1 6.9.6 10.3 1.3 1.6.3 2.4 1.6 1.4 3.7-2.9 6.2-5.6 12.5-8.3 18.7-.4.8-.4 1.9-.3 2.8.2 4.1.5 8.2.6 12.4.1 2.3.5 4.9-.3 6.9-2.7 7.4-1.9 15.4-3.6 22.9-.2 1 .4 2.3.8 3.4.4 1.5 1.1 3 1.2 4.5.2 4.8-.1 9.7.2 14.5.4 5.6 1 11.2 2 16.7.6 2.9 2.3 5.6 3.8 9.2 1-1.9 1.3-3 2.1-3.8 1.6-1.8 3.5-3.5 5.2-5.2 1.8-1.9 4-3.7 5.2-6 3.3-6.4 4-13.3 4-20.6 0-8.2 1.3-16.4 2-24.6.2-2 .3-4 .3-6-.1-6.9.1-13.8-.7-20.5-.7-6-2.3-11.8-3.8-17.7-.8-3.2-2.1-6.3-3.4-10.2 4.4-1.2 9.4-2.5 14.4-3.8 1.7-.4 3.6-.4 5.3-.9 3.1-.9 5.6-.2 7.3 2.1-.5 5-1 9.8-1.4 14.6-.4 5.3 1.1 7 6.5 6.9 5-.1 9.9-.6 14.9-.8 1.8-.1 3.6 0 5.4.2 2.9.4 4.8 2 5.7 4.8.9 3.1 0 5.7-2.5 7.6-1.5 1.1-3.2 2.3-5 2.7-6.7 1.5-13.4 3-20.1 4-4.6.7-6.8 2.9-6.9 7.6-.3 10.2-.6 20.5-1.3 30.7-.2 3.3-1.6 6.5-2.5 9.8-1.3 5 1.9 9.8 6.9 9.2 8.8-1 17.4-2.9 26.2-4.3 3.8-.6 7.8-.6 11.6-1.1 2.1-.3 4.4-.8 6.3-1.7 2.2-1.1 3.2-3.1 3.1-5.8-.6-24.1-1.1-48.3-1.6-72.4-.1-4.1-1.4-7.6-3.3-11.1-1.3-2.2-2.1-4.8-2.6-7.3-.4-1.7.5-3.2 2.7-3.5 8.6-1.3 17.1-3 25.8-1 2.1.5 5.5 1.2 5.7 2.3.6 2.8.4 6.3-.9 8.9-2.5 5-2.8 9.9-1.5 15 .2.8 1.6 1.9 2.5 1.9 2.5.1 5.1-.4 7.6-.3 2.9.1 5.8.6 8.7.9 2 .2 3.9.6 5.9.7 3.6.2 6.2 1.9 8.3 4.5zm-204.1 57.1c-3 0-6.1-1-7.8.2-5.7 3.9-12.1 5.3-18.6 6.8-2.7.7-4.1 2.6-2.8 5 2 3.6.6 7.2-.3 10.3-1.5 5.3-1 10.6-1.3 15.8-.3 5.1 4 6.9 8.6 4.6 2.4-1.2 5.1-2 7.7-2.3 4-.6 8-.3 12-1 4.9-.8 6-2.5 5.9-7.5 0-1.6 0-3.2-.1-4.8-.4-3.9-.8-7.7-1.3-11.6-.5-3.4-1.4-6.7-1.9-10.1-.4-1.6-.1-3.3-.1-5.4zm-27.5-8.1c5.1-5.4 11.5-6.5 18.4-6.5.4 0 .8 0 1.3-.1 5.2-1 6.9-3.1 6.8-8.3 0-2.7-.1-5.5-.2-8.2-.2-6.5.4-13.1-4.4-18.5-.1-.2-.2-.4-.3-.6-1.3-2.7-3.3-3.6-6.2-2.6-4.4 1.4-8.9 2.5-13.3 4.1-3 1.1-5.9 2.7-8.8 4.3-2.5 1.4-2.2 3.4-1.2 5.7.9 2 1.6 4.1 1.9 6.2.5 3.5.6 7.2.8 10.7.3 4.9 1.2 9.6 5.2 13.8zm41.8-26.4c.5 4.5.8 8.7 1.4 12.8.3 1.8 1.3 2.7 3.6 2.3 3.3-.6 6.7-.4 10.1-.6 2.7-.2 5.4-.5 8.1-.9 2.5-.4 3.4-1.8 3.5-4.6.3-11.2-1.4-22.6 1.5-33.7 1-3.9-2.5-6.5-6.5-5.1-6.6 2.3-13.1 4.7-19.6 7.2-.8.3-1.6 1.6-1.6 2.4.1 3.4-.7 6.6.7 10.2 1.1 2.8-.7 6.7-1.2 10zm30.4 65.9c-.6-5.8-1-11-1.6-16.1-.8-6.7-1.9-13.3-2.8-20-.4-2.5-2.2-3.3-4.7-2.4-2.7 1-5.6 2-8.5 2.3-10.3 1-10.5 3.8-11.4 13.6-.5 5.7.6 11.6 1 17.4.2 3.1.5 6.2.8 9.7 9.7-.8 19.2 0 27.2-4.5z"/></svg>