<svg enable-background="new 0 0 400 400" viewBox="0 0 400 400" xmlns="http://www.w3.org/2000/svg"><path d="m183.9 149.9c-2.4.3-4.6.4-6.8.8-9.2 1.7-18.3 1.2-27.4-.6-13.2-2.6-26.3-5.1-39.5-7.6-2.7-.5-3.8-1.8-4.4-4.4-1.2-5.5-2.8-10.8-4.3-16.6 1.5.1 2.8 0 4 .3 2.8.8 4.1-.5 4.3-3s0-5-.2-7.5c-.3-3.2.4-3.9 3.5-3.4 6.5 1 10.9 5.8 16 9.3.2 3.7 3.5 3.4 5.8 4.1 10.9 3.1 21.7 6.4 32.7 8.9 3.6.8 7.7-.1 11.5-.6 5.3-.7 7-2.9 5.1-8.1-2.5-6.9-5.4-13.8-9.5-19.9-6-8.9-13.2-17-19.8-25.6-1.4-1.8-2.9-2.4-4.8-1.9-4.9 1.3-8.7-.6-12-4-1.8-1.8-3.4-3.8-5.3-5.5-3.1-2.9-2.6-6.7-2.5-10.4 0-.2 0-.5.1-.6 3.6-2.5 3.8-6.9 5.7-10.3.6-1 1.8-1.7 2.8-2.5 2.2-1.8 4.3-3.6 6.6-5.2.6-.5 1.7-.8 2.4-.7 3.4.6 6.8 1.4 10.2 2.2 1 .3 2.1 1 2.8 1.8 3.4 4.1 6 9 11.4 11.1.7.3 1.2 1.1 1.8 1.7 7 7 13.8 14.3 21.2 21 6.2 5.7 10.2 12.6 13 20.3.9 2.5 1.7 5.1 3.2 7.2s3.6 4.2 5.9 5.4c4.1 2 10.7-2.2 11.7-6.6.3-1.4.8-2.8 1.7-4 5.6-7.7 11.3-15.4 16.8-23.1 1.2-1.6 2.4-2.2 4.2-1.7.7.2 1.4.3 2.2.4 7.9 1.2 12.4 5.9 12.8 13.9.1 1.6-.6 3.5-1.5 4.9-7.6 12-19.2 19.9-29.7 28.9-3.3 2.8-6.8 5.5-9.9 8.4-.9.8-1.5 2.5-1.4 3.7.5 4.3 1.5 8.5 2 12.8.3 2 .2 4-.1 6-1.7 9-3.6 18-5.4 27.1-.2 1-.1 2.7.5 3 1 .4 2.5.4 3.5-.1 6.1-3.3 12.4-6.5 17.2-11.7 2.4-2.6 5.2-5 7.9-7.3 3.9-3.3 6.5-7.5 8.4-12.1.7-1.6 1.6-3.3 2.8-4.5 2.8-2.9 5.5-2.8 8.5-.2 1.4 1.2 2.8 2.3 4.1 3.5 5.5 4.7 8.2 14.4 5.7 21.3-.5 1.4-1.7 2.7-2.9 3.5-11.8 8.7-25.3 14-38.8 19.3-8.2 3.2-16.2 7.2-24.2 10.9-1.8.8-2.8 2.2-3.1 4.4-1.7 12.2-4 24.4-5.1 36.7-.5 4.9 1.5 9.9 2.4 14.9.5 3.1 1.6 6.3 1.5 9.4-.2 5.2 2.1 9.2 4.2 13.6 5.2 10.9 12.8 19 23.2 25.4 16.5 10.1 32.3 21.3 48.3 32.2 4.6 3.2 9 6.7 13.2 10.3 3 2.5 5 5.8 4.6 10-.1.9-.7 2-1.4 2.5-5.1 3.3-10.6 4.9-16.8 4.6-9.6-.4-18.5-2.6-27.1-6.8-10.8-5.3-21.7-10.4-32.6-15.5-1-.5-2-1.1-3-1.8-1.6-1.2-3-2.7-4.7-3.8-12.2-7.9-18.8-19.9-24.5-32.7-5.4-12.1-9.4-24.7-11.6-37.8-.9-5.4-.7-11-.8-16.5-.3-9.8-.6-19.7-.9-29.5-.2-6.8-2.9-8.6-9.7-7.6-6.1.9-12.3 1.6-18.5 1.7-4.5.1-9-1-13.6-1.3-6.5-.4-13.1-1-19.6-.8-7.6.2-14.4-3-21.6-4.4-.5-.1-1-1.2-1.2-2-.3-.9-.1-2.1-.6-2.7-5-6-3.4-13.2-3.9-20-.4-5.6.4-10.1 6.2-12.5 1.6-.7 3-2 4.6-2.7 4.3-1.6 7.8-.3 8.3 4.2.8 7.1 5.1 9 11.1 10.5 5.1 1.2 9.9 3.6 14.8 5.4.9.3 2 .6 3 .4 2.5-.3 5-.7 7.5-1.4 4.3-1.1 8.5-1.5 12.4 1.2.7.5 1.8.4 2.7.4 5.2-.3 10.4-.6 15.5-1 1-.1 2.4-.7 2.7-1.5 3.9-10.7 7.1-21.5 5.2-33.1 0-1.4-.4-2.7-.7-4.4zm-78.3 32.8c1.4-.5 2.6-.6 3-1.2.5-.6.6-2 .2-2.5-.4-.6-1.6-.7-2.7-1-.2 1.5-.3 2.7-.5 4.7z"/></svg>