<svg enable-background="new 0 0 400 400" viewBox="0 0 400 400" xmlns="http://www.w3.org/2000/svg"><path d="m233.1 158c-12.1-.7-23.9-1.5-35.7-2.2-3.1-.2-6.1-.3-9.2-.7-9.9-1.3-14.8-8.1-13.5-18.2.3-2.6 1.1-4.8 3.3-6.5 2.1-1.6 4.2-3.4 5.8-5.4 2.3-3 4.7-2.8 7.7-1.4 4.4 2.1 8.7 4.3 13.2 6.2 3.2 1.3 6.5 2.6 9.9 3.1 5.5.8 10.5-.3 13.7-5.6.7-1.2 1.8-2.1 2.7-3.1 7.7-8.8 15.1-10.8 26.3-7.1 2.8.9 5.4 2.1 7.4 4.5 3.2 3.7 7.3 4.9 12.1 3.3 6.3-2.1 12.6-3.4 19.4-3.7 6-.3 11.7-3.4 17.7-4.7 7.9-1.8 15.9-3.2 24-4.6 3.4-.6 8.6 2.8 9.6 6.4 1.3 4.5 1.5 7.9-2.5 12.3-7.7 8.7-17.8 9.4-28 10.2-10.9.8-21.8 1.1-32.6 1.9-7.7.5-17.4 8.9-19.3 16.3-.9 3.4 2.4 9.9 5.6 11.2 6.4 2.6 12.9 2.9 19.6 1.3 8.3-2 16.5-3.6 25.1-2.2 6.1 1 12.2 6.5 12.8 11.7.2 2.3-.3 4.3-2.3 5.8-2.3 1.7-4.4 3.6-6.6 5.5-4.1 3.5-8.9 5-14.2 5.7-9.2 1.1-18.5 2.3-27.7 3.7-7.6 1.2-11.4 5.2-12.2 12.9-.4 3.7 0 7.4 0 11.1 0 2.1 1.1 2.8 3 3.3 11.1 3 22.3 3.6 33.7 2.6 13.9-1.2 27.7.3 41.5 1.7 4.7.5 9.5.9 14.2 1.5 4.1.5 6.4 4.1 5 8-1.8 5.2-3.8 10.2-8.7 13.6-3.8 2.7-7 6.1-10.6 9.1-.8.7-2 1.5-3 1.4-2.9-.3-5.2.8-7.2 2.7-7.6 7.3-16.8 8.7-26.8 7.5-1.4-.2-3.1-.3-4.4.2-7.9 3-16.1 2.2-24.2 2.1-13.1-.2-26.2-.6-39.4-.6-3.1 0-6.4.5-9.4 1.3-11.6 3.3-23.5 4.2-35.3 5.7-2.7.3-5.6.5-8.1 1.4-8.3 2.9-15.3-.8-22.4-3.9-3.4-1.5-7.6-9.8-7.2-13.5.3-2.6.8-5.3.7-7.9-.1-3.4 1.2-5.7 3.9-7.7 3.3-2.4 6.5-5.1 9.4-8 3.1-3.1 6.7-4.2 11.1-4.2 10.2.2 20.3 0 30.5 0 5.8 0 11.4-.8 16.3-4.3 5-3.7 6.8-9 7.5-14.8.1-.6-.7-1.5-1.3-1.8-3.2-1.8-6.4-3.7-9.8-5.2-1.1-.5-2.7-.4-4-.2-7.1 1.1-14 2.5-21.2-.2-10.1-3.8-16.3-11.3-16.9-21.2-.2-3.1 4.5-7.8 7.7-7.6 8.9.6 17.8 1.1 26.5-1.1 2.9-.7 5.7-1.6 8.5-2.6 4-1.6 6.6-4.6 7.9-8.6 1.5-5.6 1.3-10.6.4-16.4z"/><path d="m89.4 214c-7.2-2-12.9-.2-18.4 2.4-2.4 1.2-4.9 1.9-7.6 1-5.1-1.7-9.7.3-14.5 1.4-3.8.9-7.9.7-11.8 1-.5 0-1.4-.3-1.6-.7-1.8-3.4-5.2-6.4-3.4-11 .5-1.3.7-2.7.7-4 0-5.2 2.7-8.1 7.3-10.3 6.4-3.1 12.8-5.3 20-4.9 14 .7 27.4-2.7 40.3-7.5 14.8-5.5 28.2-.2 41.8 3.9 2.9.9 3.1 2.6 2.4 5.6-1.5 6.2-5.1 9.5-10.8 12.3-9.9 4.8-20.6 6.3-30.9 9-4.7 1.2-9.6 1.3-13.5 1.8z"/><path d="m35.1 254c.5-2.3.9-4.6 1.5-6.8 1-3.7 4.2-5.6 7.9-4.8 1.4.3 2.8 1.1 4.2 1.2 2.9.2 5.8.3 8.7-.1 3-.5 5.9-1.7 8.7-2.8 8.2-3.2 16.7-5.2 25.6-5.4 1.7 0 3.6-.6 5.1-1.4 7-3.9 14.5-4.2 22.1-3.8 4 .2 8 .7 12 1.1s6.1 2.1 6.9 5.9c.9 4.2 1.4 8.5 1.9 12.9.1.8-.9 2.1-1.6 2.4-10.5 3.9-21 7.7-31.6 11.5-.9.3-1.9.5-2.8.2-4.3-1.1-8.2 0-12.2 1.7-12.9 5.2-26.6 6.2-40.4 6.7-1 0-2.2-.6-3-1.3-3.2-2.8-6.2-5.7-9.3-8.6-2.6-2.3-3.7-5.2-3.7-8.6z"/><path d="m146.4 145c-15.8 7.6-31.6 14.2-49 15.8-11.6 1.1-23.1 2.5-34.7 3.1-5.8.3-11.8-.9-17.6-1.9-5.5-1-10.6-6.9-10.4-11.5.1-1.2.6-2.5 1.3-3.4 6.7-8.8 6.8-8.5 17.9-9.7 19.4-2.1 38.9-4.5 58.3-6.6 8.5-1 16.9 0 25.1 2.4 5.7 1.6 8.5 5.8 9.1 11.8z"/></svg>