<svg enable-background="new 0 0 400 400" viewBox="0 0 400 400" xmlns="http://www.w3.org/2000/svg"><path d="m200.9 210.6c-6.1-1-11.8.3-17.5 1.4-3.4.7-6.9 1.4-10.3 1.6-1.9.1-4-.7-5.6-1.8-4.1-2.8-3.8-6-.1-9.1 7.3-6.2 15.4-9.4 25.1-9.5 5.4 0 10.9-1.4 16.3-2.4 7.1-1.3 13.5-4.3 19-9 1.8-1.5 3.6-2.3 6-2 7.2 1 14.5 1.5 21.7 2.9 3.1.6 6 2.8 8.7 4.8 1.7 1.2 1.5 2.7-.6 4.2-6.7 4.9-14.2 7.8-22.1 10-3.1.9-6.3 2-9 3.7-4.7 2.8-6.7 8-5.6 13.4 1 5.3 1.9 10.6 3.2 15.9.5 1.9 1.6 3.9 3.1 5.2 12.6 10.7 27 13.1 42.8 9.3 11.9-2.8 23.4-6.5 34.5-11.5 1.2-.6 2.4-1.4 3.4-2.3 8.4-7.4 16.9-14.8 25.1-22.4 1.9-1.8 3.6-4.2 4.5-6.6 1.7-4.4 2.8-9.1 4.1-13.7 1.3-4.4 3.2-8.1 8.1-9.3 1.9-.5 3.1-.1 4.2 2 2.4 4.7 3.1 9.2 1.8 14.5-3 12.1-5.2 24.4-7.7 36.6-.1.3 0 .8-.2.9-4.6 3.3-5 10.8-11.4 12.3-8.5 2-15.3 6.4-21.2 12.9-2.2 2.4-5.7 4-8.9 5.1-14.5 4.9-29.3 7.2-44.6 6.4-2.1-.1-4.2-.6-6.2-1.3-8.9-3.3-18.2-3.6-27.5-3.1-3.3.2-5.2-.9-6.6-3.9-1.7-3.7-3.7-7.4-5.9-10.8-3.2-4.9-3.5-10-2.6-15.5 1.2-6.8-.2-9.6-6.1-13-4.8 5.6-8 12-10.4 19s-4.3 14.2-7.6 20.7c-3 5.9-7.5 11-11.4 16.4-.6.8-1.7 1.2-2.6 1.7-4.6 2.1-9.3 4.1-13.8 6.4-1.7.9-3.2 2.5-4.4 4.1-1.5 1.9-2.4 4.2-3.9 6.2-3.9 5.1-9.9 4.4-11.8-1.6-1.7-5.5-2.2-11 1.8-16.3 2.7-3.6 5.8-6.7 9.5-9.1 9.3-6.2 18.2-12.7 24.3-22.4 7.5-11.9 13.9-24.2 17.8-37.7.1-1.2.3-2.2.6-3.3z"/><path d="m318.6 134.1c-.7 3-1.1 5.1-1.7 7.3-.3 1.2-.8 2.4-1.5 3.4-.9 1.2-2 2.1-3.1 3.2-3.6 3.5-6.6 7.2-8.5 12.2-3.3 8.8-9.7 15.2-20 18.7.8-7 .8-13.5 2.3-19.6 1.9-7.4-.7-11.9-6.6-15.9-8-5.4-16.7-7.1-26-6.3-5.4.5-10.8 2-16.2 2.8s-10.9 1.4-16.4 1.8c-18.4 1.4-36.7 2.6-55.1 4.1-1.5.1-3.3 1.2-4.3 2.4-2.8 3.7-3.1 8-2.1 12.4.4 2 .9 3.9 1.4 5.9 1 4.6 1.4 9.1-.7 13.6-3.7 8.2-4.2 17.2-5.4 26-.3 1.9-1.2 4.2-2.6 5.4-4.1 3.8-7 8.2-8.7 13.6-2 6.1-4.5 12.2-11.1 15.1-1.6.7-3.3 1.3-5.2 2-2.2-5-1.2-10.1-.7-15.1 1.1-11.3 6.2-21.2 10.1-31.6 2.6-6.9 5-13.9 7-21 .9-3.1 1.1-6.8.4-9.9-1.8-7.7-1.8-15.2.1-22.8 1.2-4.5 1.7-9.2 2.8-13.7.2-1.1 1.4-2.1 2.4-2.7 1.4-.9 2.9-.6 3.7 1 2.3 4.3 5.5 4.9 9.9 3.2 7.3-2.9 15.1-2.8 22.9-2.5 4.5.2 8.8-.4 13-2.2 3.1-1.3 6.4-2.3 9.6-3.4 4.6-1.6 7.2-6.8 5.1-11.3-1.3-2.8-.8-4.9 1.1-6.9 2.1-2.2 4.5-4.2 6.6-6.4 2.3-2.4 4.6-1.4 7-.4 2.5 1 4.4 2.7 4.3 5.6 0 1.5-.4 2.9-.5 4.4-.1 2.1-.5 4.3-.2 6.3.8 4.9 5.3 7.7 10.1 7.1 10.4-1.3 20.8-2.9 31.2-3.2 9.6-.3 19.2 1.5 28.3 4.8 7.4 2.7 13.3 7.4 17.3 12.6z"/><path d="m32.5 153.6c-1.4-4.5.7-7.8 4.4-11.4 5.3-5.3 11-7.8 18.4-8.1 8.5-.4 17-1.9 25.5-2.8 3.8-.4 6.8-2.1 9.4-4.7 1.7-1.6 3.4-3.2 5.3-4.5 5.7-4 12-3.8 18.5-2.1 2.4.6 3 2.2 1.7 4-2.8 4.1-5.3 8.5-9.7 11.5-6.5 4.3-12.6 9.2-18.8 14-7.5 5.7-15.2 11.2-24.4 13.8-9.3 2.6-18.6 1.8-27.9-.1-.8-.2-1.7-1.4-1.9-2.2-.4-2.3-.4-4.6-.5-7.4z"/><path d="m40.9 250.7c-4-.2-6-1.9-6.1-6.5-.2-5.8.9-11.4 7.5-14 5.4-2.1 11-4.2 16.6-4.6 16-1.3 31-6.1 46.1-10.9.8-.3 1.7-.8 2.4-.7 1 .2 2.2.7 2.9 1.4.4.5.3 1.9-.1 2.5-1.8 2.4-3.6 5.1-5.9 7-5.8 4.7-11.9 9.1-18 13.6-.7.5-1.7 1.2-2.5 1.2-6-.6-11.1 2.4-16.4 4.1-4.4 1.5-8.7 3.3-13.2 4.4-4.3 1.2-8.9 1.7-13.3 2.5z"/><path d="m174.7 178.7c.2-1.8.3-3.1.4-4.5.4-6.6 2.9-10.1 9.3-9.3 14.1 1.9 26.4-3.8 39-7.9 10.5-3.4 20.9-1.3 31.3-1.6 1.1 0 2.4.4 3.3 1s1.8 1.6 2 2.5c.1.4-1.2 1.4-2.1 1.9-10.3 5-20.6 10.4-31.2 14.8-3.7 1.6-8.3 1.1-12.4 1.3-5 .3-10-.2-14.9.6-5.5.9-10.8 2.9-16.1 4.5-2.2.6-7-.6-8.3-2.4-.2-.2-.2-.8-.3-.9z"/><path d="m51.7 205.6c-3.3-.3-6.5-.8-9.8-.9-4.1-.2-7.6-5.3-5.9-10.3.3-.8 1.2-1.4 1.9-1.9 7.4-4.9 15.7-6.9 24.3-7.1 4.7-.1 8.8-1.9 13.1-3.2 8.4-2.7 16.9-5.2 25.5-7.4 2.6-.7 5.5-.3 8.2.1 1.1.2 2.2 1.8 2.6 3 .3.8-.4 2.5-1.2 3-12.5 9-25.7 16.8-40.4 21.6-5.9 1.9-12.1 2.6-18.2 3.8 0-.4 0-.6-.1-.7z"/></svg>