<svg enable-background="new 0 0 400 400" viewBox="0 0 400 400" xmlns="http://www.w3.org/2000/svg"><path d="m148.6 176.3c5.6-1.6 11.1-3.3 16.6-4.7.9-.2 2 .5 3.7 1 2.9-2.9 7.3-3.6 12-3.8 5.2-.3 6.9-2.3 7.2-7.5.9-13.5 1.8-27 2.9-40.5.4-5.4 2-10.5 4.9-15.3.5-.8.6-2.3.2-3.1-3-5.6-3.3-11.5-2.7-17.6.6-6.6 1.4-13.2-.2-19.9-1.4-5.8-1.5-6.1-7.3-7.1-10.4-1.7-20.8-3.4-31.2-5.1-.2-4.7 1.3-6.9 5.3-8.2 1-.3 2-.6 3-1.1 13.2-5.9 27.5-5.2 41.4-6.4 10.7-.9 21.5-1.9 32.3-2.2 6.7-.2 13.5.5 20.2 1.1 13.5 1.3 26.9 2.8 40.4 4.3 2.7.3 5.4.9 8 1.7 1.7.6 3.5 1.7 4.7 3 2.5 2.7 1.9 4.6-1.2 6.3-11.7 6.1-24.1 6.7-36.8 4-13.4-2.8-27-3.5-40.7-2.5-4.5.3-9.1 0-13.6.1-1.4 0-2.8.3-4 .7-3.6 1.3-3.9 2.3-2.3 5.8 1.5 3.2 3.6 6 2.4 10.1-.7 2.5 4.8 7.4 7.5 7.6 10.4.4 20.9.3 31.3 1.4 10.9 1.2 21.4 4.4 30.4 10.9 7.1 5.1 10.8 12 10.4 20.9-.2 5.1-.3 10.2-.6 15.2-.1 1.2-.8 2.6-1.7 3.4-7.2 6.2-15.8 9.1-25.2 9.9-11.4.9-22.8 1.9-34.1 3.1-3.1.3-6.2 1.5-9.1 2.7-6.7 2.7-9.2 6.9-9 14.1.2 6.6.2 6.8 6.8 7.4 20.3 1.8 40.7 3.4 61 5.1 6.8.6 13.7 1.1 20.5 1.9 3.9.4 6.9 2.5 8.8 6.3-4.4 4.6-10.1 6.4-16.1 7-22.3 2.4-44.7 2.3-67.1.9-8-.5-16.1-.7-24.1-.8-2.7 0-5.5.6-8.1 1.5-6.5 2.1-13.1 2.1-19.7 1.4-5.8-.6-11.5-.7-17.1 1.6-1.3.5-3.4-.3-4.9-1-5.9-2.8-5.8-2.9-5.3-9.4 0-1.3 0-2.6.2-4.2zm89.7-49.9c9.5-.7 18.7-1.8 26.9-6.8 2.4-1.4 5.5-3.1 6.3-5.4 2.4-7.3 1.1-15.1-7.5-18.4-6.4-2.5-13.4-4.7-20.1-4.9-7.8-.2-15.6 1.9-23.4 3.2-5.5.9-5.6 1.1-6.3 6.4-.8 6.7-1.5 13.5.9 20.1.5 1.3 1.9 3.1 3.1 3.3 6.7.9 13.5 1.6 20.1 2.5z"/><path d="m246.8 309.3c-3.6 7.4-7.2 14.5-10.3 21.7-3.9 9-10.2 15.7-18.4 20.8-5.4 3.4-10.8 6.6-16.3 9.8-.8.5-2.1.3-3.9.4-.9 1.9-2.8 4-6.3 3.8-3.2-.2-4.8-2.1-3.5-5.1 1-2.3 2.4-4.5 4.2-6.2 8.5-8.4 16.8-16.8 21.9-27.7 2.1-4.5 2.8-9.6 4-14.5 1-4.1 1.8-8.2 2.6-12.3.2-.9.1-2-.1-2.9-.5-2-1.5-4-1.7-6s-1.1-2.9-2.9-3c-3.7-.2-7 .2-10.1 3.2-13.2 13-28.8 22-46.8 26.8-3 .8-6.2-.6-7.9-3.4-1-1.7-.2-6.5 1.6-7.9 11.9-9 21.9-20.3 35.6-26.9 2-.9 3.7-3.2 4.7-5.2 1.3-2.6-.4-4.4-3.4-4.1-1.2.1-2.7.2-3.5-.5-7.4-5.8-14.6-11.8-22.3-18 1.4-.5 2.4-.9 3.8-1.4-1.1-2.2-2-4.3-3.1-6.2-.9-1.5-.6-2.4.6-3.5 4.3-4.4 4.3-4.4 10.1-2.1 3 1.2 6.1 2.4 9.1 3.7 2.3 1 2.4 2.4.3 3.8-1.8 1.2-3.7 2.3-6 3.7 3.4 1.3 5.6 3.5 9.5 1.7 2-1 5.3.5 7.9 1.1 5.8 1.4 11.6 3 17.4 4.6 2 .6 3.2 0 3.9-2 1.1-3 3.2-4.5 6.5-4.5 3.7-.1 5.1-2.5 3.8-6-.4-1.2-.9-2.3-1.5-3.8 2.5-1 4.8-1.9 7.1-2.9 0-.2 0-.4-.1-.6-2.1-.1-4.1-.3-6.2-.4-5.1-.2-8.1-3-8.1-8.1-.1-7.1.7-14.1 4.7-20.3 1.4-2.2 3.3-3.3 5.5-1.4 3.4 3.1 6.9 6.2 9.8 9.8 4.9 5.9 7.5 12.6 5.6 20.6-.9 3.6 1.5 6.5 5.2 6.9 1.1.1 2.5-.7 3.4-1.6 6.9-6.9 13.6-13.9 20.4-20.9 2.9-3 7.1-2.9 10.1 0 1.8 1.7 3.9 3.3 5.9 4.7 5 3.5 4.8 11.6-.9 12.9-6.6 1.5-11.4 5.7-17 8.7-2.7 1.4-5.2 2.4-8.4.2-3.5-2.4-5.8-1.6-8.7 1.8-.4.5-.9 1-1.5 1.1-4.8.9-6.1 4.7-6.7 8.6-.6 4.1-.4 8.2-.6 12.3-.2 4.5 2.7 7.1 5.7 9-.7 1.6-1.2 3-1.9 4.7 1.8.7 3.3 1.3 4.2 1.7 2.3-.9 4-1.5 6.3-2.4 11.2 5.8 23 11.8 34.6 17.9 1.6.9 3.1 2.2 4.4 3.6 3.9 4.3 9 5.9 14.3 6.9 7.4 1.4 17.6 10.4 19.7 17.5-14 6-28.1 11.4-43.7 6-1.5-.5-3-1.1-4.2-2-12.6-8.3-25.3-17.1-38.4-26.2z"/><path d="m114.3 99.9c-9.1 2.1-16.1 0-22.9-2.6-4.6-1.8-9.3-2.8-14.2-2.3-2.3.3-3.5-.7-4.3-2.7-2.3-5.1-2.6-10.2-1-15.7 1-3.2.9-6.7 1.1-10 .2-3.5 1.3-6.5 4.3-8.4.9-.6 2.4-.3 3.6-.1.7.1 1.3.7 1.8 1.2 11.8 9.9 26.7 13.7 40.5 19.7 6 2.6 11.8 5.6 17.3 9.2 2.8 1.8 4.6 5.1 6.6 7.9 1 1.4.7 2.8-1 4-3.5 2.4-7.1 3.3-11.4 2.6-7.3-1.1-14.6-2-20.4-2.8z"/><path d="m148 210.4c-1.1 2.1-1.6 3.1-2.3 4.5 2.3.3 4.2.5 6.3.8.6-1.4 1.2-2.8 1.9-4.4 1.2 1.8 2.3 3.3 3.4 5-8.8 8.4-19.3 12.8-30.9 15.1-9.2 1.8-18.5 3.2-27.7 5.1-4.5.9-8.9 2.5-13.3 3.9-.8.2-1.6.7-2.3.9-6.8 2.4-10.4.8-13.1-5.7-2.6-6.1-3.4-12.4-2.7-18.9.2-2.4 1.3-3.8 3.5-4.6 4.3-1.5 8.7-1.4 13.1-.6 6.9 1.3 13.9 2.7 20.9 3.5 11.7 1.4 23.1-.8 34.5-3.5 2.5-.7 5.2-.7 8.7-1.1z"/><path d="m73 151.2c.9-3.8 3.1-4.8 5.7-4.5 19.5 2.4 39.2 3.1 58.4 7.8 1.3.3 2.6.8 3.9 1.3 1.6.5 3.1.9 3 3.3-.1 2.1-.5 3.4-2.6 4.4-6.9 3.2-14.3 4.5-21.8 5.1-7.8.6-15.6.9-23.4 1.8-6.1.8-12 2.6-18 3.5-3.8.5-7.8.2-11.6-.2-1.1-.1-2.7-1.4-3.1-2.5-3.2-7.5-3.8-15.4-1.3-23.2.6-1.8 2.5-4 4.2-4.5 2.4-.7 4.2 1.3 4.9 3.9.2 1 .8 2 1.7 3.8z"/></svg>