<svg enable-background="new 0 0 400 400" viewBox="0 0 400 400" xmlns="http://www.w3.org/2000/svg"><path d="m181.9 140.8c.6-5 1.1-10 1.8-15 .6-4.5 2-9 2-13.5 0-5-1.2-10-1.6-15.1-1-12.1-2.2-24.2-2.7-36.4-.3-7 .8-14.1 1.3-21.1 0-.6.3-1.2.6-2 4.7.6 9.3 1.1 13.8 1.8.7.1 1.7 1.2 1.8 2 1.1 5.9 2.1 11.9 3.1 17.8.1.8-.4 1.7-.7 2.6-.8 2.7-2.1 5.3-2.2 8-.2 5.4 1.8 11-1.4 16.1-.1.2-.3.5-.2.6 3.2 5.5-.3 11.4 1.4 17.2 1.7 5.6 1.6 11.7 2.2 17.6.2 2 .8 3.1 3.1 2.9 4-.4 8-.6 12-.7 3.4-.1 4.9-2.4 5.6-5.1.6-2.2.7-4.6.7-6.9-.3-16.2-1-32.4-.9-48.6 0-5.2 1.8-10.6 3.5-15.6 1.3-4 7.5-5.7 11.1-3.5.6.4 1.1 1.3 1.2 2 .8 5.7 1.8 11.5 2.1 17.2.4 7.1.1 14.2.1 21.3 0 .8.1 1.8-.3 2.5-2.8 4.9-2.4 10.3-2.3 15.5.1 6.4.4 12.9.9 19.3.3 3.9 1.5 4.8 5.3 4.3 6.2-.8 12.5-1.2 18.6.6 2.5.7 4-.3 4.6-2.4.7-2.8 1.7-5.9 1.3-8.6-1.6-9.3-.2-18.6.1-27.8.3-9.6.3-19.3-.9-28.8-1-8.6 2.5-15.8 4.3-23.2 5.2 2.7 10.2 5.3 15.1 8 2.7 1.5 4.3 4.9 3.1 8.3-1.8 5-1.8 10.5-4.8 15.2-2.7 4.4-.7 9.5-.2 14.3.2 1.7.1 3.5-.1 5.2-1.2 10.3-2.4 20.5-3.9 30.8-.4 2.7-1.5 5.4-2.3 8.1-.6 2-1.9 3.9-1.9 5.9-.1 3.4-1.7 5.2-4.4 6.7-5 2.7-10.5 3-16 3.1-4.8.1-9.5.4-14.3.5-2.9.1-4.6 1.1-4.4 4.3.6 10 1 20.1 1.7 30.1.1 1.1 1.9 2.9 3 3 3.7.2 7.5-.2 11.3-.4.2 0 .4-.3.6-.2 7.9 1.1 14.3-5.1 22.2-4.3 2.9.3 4.2 2.7 5.1 5.4 1.4 3.9-.6 6.8-1.3 10.2-.5 2.5.1 5.2.1 7.8v18c0 4.8.1 9.7.1 14.5 0 .4.2.9.1 1.3-2.6 6.9 1.2 14-1.1 21.1-2.2 6.7-2.7 13.9-3.8 20.9-.2 1.6.3 3.2.4 4.9.2 3.5.7 7 .4 10.4-.5 7.2-1.5 14.3-2.1 21.5-.2 1.7-.2 3.8.5 5.2 3.6 7.4 1.8 15.1.6 22.4-.6 3.4-4.8 6.4-7.7 9.1-1.4 1.3-3.2.8-4.3-1.5-2-4.2-2.7-8.5-1.9-13 2.5-14.9 1.9-29.7-1-44.5-2.9-14.7-1.6-29.5-1.4-44.3.2-13.1.4-26.2.4-39.3 0-2.3-.7-4.8-1.7-7-1.8-3.7-6-5.6-10.1-4.9-1 .2-2.1.4-3.1.6-6.8 1.3-7.6 1.9-8 8.9-.3 5.5.1 11-.2 16.5-.4 8.8-1.5 17.5-1.7 26.3-.3 12.4-.1 24.7-.1 37.1 0 9.4.1 18.8-.1 28.2-.3 12-.8 23.9-1.2 35.9-.1 2.3.5 4.7.8 7.5-.3.1-1.2.3-2 .4-2.1.1-4.2.1-6.3.2-7 .3-7.6.1-7.6-7 0-10.3.8-20.5 1-30.8.4-14.6.6-29.2.8-43.8.1-7.7.4-15.5.2-23.2-.1-4.2-1.4-8.3-1.8-12.5-.2-2 .2-4.1.3-6.2.2-3.7.6-7.3.4-11-.4-5.6-.7-11 1.8-16.4 2.2-4.7-.8-9.9-5.9-9.9-5.9.1-11.9 1.5-17.7 2.7-1.2.3-2.3 2.2-2.9 3.6-3.8 8.6-5.1 17.1-1.8 26.4 1.4 3.8 1.1 8.6.3 12.7-2 10.7-1.7 21.3-.3 32.1.6 4.9.1 10.1-.6 15-1.7 11-1 21.9-.1 32.9.6 7.8 1.1 15.6 1.6 23.4.3 5-3.7 9.3-8.6 9.4-3.1.1-6.2 0-9.2-.4-.9-.1-2.2-1.5-2.2-2.3-.4-4.6-1-9.3-.7-13.9 1.2-21 3-42 3.9-63 .3-7.7-1.5-15.4-1.6-23.1-.1-11 .5-22 .6-33 .1-7.2-.2-14.3-.2-21.5 0-2.8-.1-5.7.3-8.5 1.1-6.7 5.5-10.6 12.4-11.3 1.8-.2 3.6-.6 5.4-.3 1.7.2 3.2 1 4.8 1.6 2.1.7 4.1 1.8 6.2 2 2.7.2 5.5-.2 8.2-.6 6.2-.9 7-1.3 7.7-7.5.8-7.3.8-14.8 1.2-22.1.1-2.6-1.1-3.6-3.8-3.8-11.2-.8-22.3-1.7-33.5-2.6-.4-.2-.8-.3-2-.5z"/><path d="m355.2 190.6c-3.4 3.8-2.2 8-1.8 12 .8 7.9 1.4 15.8-1.2 23.6-.3.9-.2 1.9-.2 2.8-.6 10.1-1.4 20.2-1.7 30.4-.2 5.2.2 10.4.5 15.5.4 7.5.5 15 2.8 22.3.6 2 0 4.4 0 6.6-.1 4.9-.1 9.9-.1 14.8 0 2.7.3 5.5.3 8.2 0 8.6-5 14.3-13.6 14.9-3.5.3-7.3.1-10.7-.7-3.3-.8-6.1-.4-9.1.8-1.4.6-3.4.3-5 0-4.7-.9-9.3-2.1-13.9-3.1-1.3-.3-2.7-.5-4-.9-6-1.9-7.4-3.9-5.1-9.6 4.2-10.3 4-20.7 2.3-31.4-1.8-11.4-1-22.9.9-34.1 2.7-16.9 3.2-33.9 4.1-50.9 1.3-22.4 2.5-44.8 3.6-67.2.1-1.9-.3-3.8-.3-5.7-.2-8.9-.7-17.8-.4-26.6.4-10.3-.1-20.5-1.7-30.7-.3-1.7-.2-3.6.1-5.3 1.8-10.8 3.9-21.6 5.7-32.5.3-2 1.3-3 3.1-3.4 1.6-.4 3.3-.9 5-.9 9.2-.3 18.4-.5 27.6-.5 1.3 0 3.2.8 3.9 1.9 3.9 5.6 8.2 11 10.8 17.1 1.7 3.9.8 8.9 1 13.4 0 .8-.2 1.7-.4 2.5-3.2 11.3-.8 22.7-.4 34 .2 5.1.6 10.1 1 15.2 0 .2.1.4 0 .6-2.3 6.5.4 13.1-.4 19.7-.1.9-.1 2.1-.6 2.7-2.4 2.9-2.3 6.2-2.2 9.6.2 7.4.3 14.8-2.5 21.9-.4 1.1 0 2.4.1 3.7.1 1.1.7 2.5.3 3.4-1.2 2.6-.5 4.3 2.2 5.9zm-15.6-50c-4.2-.5-7.9-.9-11.5-1.3-.5-.1-1.1-.1-1.6.1-5.5 1.7-8.9 6.3-9 12.1-.2 7.9 0 15.9-.7 23.7-.7 8.6-1.7 17.2-.5 25.9.7 5 .4 9.8-2.4 14.4-1.4 2.3.1 5.6 2.5 6.2 5.9 1.5 11.9 1.9 17.9.5 2.1-.5 3-1.8 3.6-3.9 2.4-9 2.1-17.9 1.1-27-.9-7.9-1.9-16.2-.6-24 1.3-8.8.4-17.5 1.2-26.7zm-20.3-33.2c-.2 0-.4.1-.5.1 0 2-.4 4.2.1 6 .6 1.8 2 4.4 3.4 4.6 6.1.9 12.2 0 17.9-2.6 1-.4 1.9-2 2-3.1 1.3-12.2 2.6-24.4 3.7-36.6.4-4.4.7-8.9.7-13.3 0-3.7-2-6.4-4.6-6.6-6.1-.5-12.2-.9-18.4-1.1-3-.1-5.5 2.2-5.6 5.1-.1 4-.1 8 .4 12 .8 6.1 2.2 12.1-1.3 17.9-.5.9-.2 2.5 0 3.7.7 4.6 1.5 9.2 2.2 13.9zm1.9 211.8c1.5-.4 4.5-1.2 7.4-2 2.2-.6 3-2 3.2-4.4.9-15.5 1.9-31.1 2.9-46.6.4-6.2.8-12.5 1.1-18.7.2-2.7-1.4-4.3-3.1-3-3.3 2.5-6.6 2-9.8.3-4.6-2.4-9.4-.3-10.2 5.2-.5 3.2-1.5 6.5-1.4 9.7.2 11.5 1 23 1.2 34.6.1 5.7-.9 11.4-.7 17.1.2 7.5 1.5 7.5 9.4 7.8z"/><path d="m99.7 59.1c2.7 2.9 2.9 6.3 2.6 10.1-.6 8.2-1.1 16.5-.8 24.8.3 8.4 1.6 16.8 2.3 25.3.1 1.6-.5 3.3-.8 4.9-.1.6-.3 1.3-.2 1.8 1.5 4.8.7 9.7-.1 14.4-1.1 6.7.8 13 1.5 19.5.4 3.4.7 6.7.9 10.1.1 1.8.5 3.8-1.8 5-.5.2-.5 1.7-.5 2.6.5 22.2 1.2 44.4 1.5 66.6.1 5.2-1.2 10.5-1.8 15.7-.1.8-.3 1.9.1 2.4 3.6 3.9 3.1 8.7 2.8 13.3-.6 11.8-1.7 23.6-2.5 35.5-.1 1.7.1 3.4.5 5 .7 4 1.7 7.8.8 12.1-.7 3.3.8 7 1.3 10.6.3 2 .6 4 .6 6-.1 4.4-1.3 5.9-5.8 6.1-4.4.1-8.9-.3-13.3-.8-.6-.1-1.3-1.4-1.5-2.3-2-9.2-2.2-18.5-1.6-27.8.6-9 1.5-18 1.5-26.9.1-10.2-.3-20.5-1-30.7-.8-11.5-1.2-23 .2-34.5.6-4.7.2-9.5.3-14.3.7-17.9 1.4-35.7 2.2-53.6.2-4.1.4-8-1.9-11.6-.5-.8-.7-2-.8-3-.4-7.5-.8-14.9 1.6-22.3 3.6-10.8 2.3-21.8-.4-32.6-2.5-10-2.1-20.2-2.4-30.3-.1-5.3.2-10.6.4-15.9.1-3 4.2-6.7 7.3-6.4 2.3.2 4.6.8 6.9.9 2.5.1 3.1 1.5 2.8 3.5-.1 1.4-.8 2.7-.8 4-.1 2.6.1 5.2.3 7.8.1 1.5.3 3.1.4 4.6-.1.1-.5.2-.8.4z"/><path d="m59 237c.4 1.1.9 2.4 1.2 3.7 1.9 8.2 1.1 16.5-.1 24.6-1.4 8.8.1 17.3 1.7 25.8.6 3.3 1 6.3-.9 9.6-1.2 2-1.4 5.4-.5 7.6 3.1 8.1 2 16.2.9 24.4-.3 2.5-.6 5-.9 7.6s-.2 4.9 1.3 7.5c2.4 3.9 1.9 8.4.7 12.6-.2.7-1 1.3-1.7 1.7-1.6.9-3.3 1.4-4.9 2.3-1.8 1-3.1 1-5.1-.3-2.1-1.4-4.9-1.8-7.5-2.2-5.4-.9-6.7-2.1-6.5-7.5.6-17.3.5-34.8 2.1-52 1.4-14.8 2.5-29.5 2.3-44.3-.1-6.6-.4-13.1 1.7-19.5.3-1 .1-2.3 0-3.5-1.6-16.1-1.7-32.2-.1-48.5 1-10.2-.2-20.5-.2-30.8 0-1.3.9-2.8 1.9-3.9 2.1-2.4 4.3-1.7 6.6 0 4.1 3 6.5 6.7 6 11.8-.6 6.2-.5 12.3 1.9 18.1.1.2.2.4.1.6-.2 5.5-.5 10.9-.7 16.4 0 .8.4 1.6.6 2.4.7 3.3 1.6 6.5 1.9 9.8.6 6.6 1.2 13.3 1.1 19.9-.1 2.1-2 4.2-2.9 6.1z"/><path d="m138.4 173.1c3.7 1.2 7.1 2.2 10.5 3.4 3.5 1.2 4.8 3.2 4.6 7-.5 8.3-1.1 16.7-1.7 25-1.1 15.4-1.2 30.9 1 46.2.1.8.1 1.8-.4 2.4-2.3 3.2-1.6 6.6-1.2 10.1.7 5.9 1.6 11.7 1.8 17.6.3 11.5 0 23.1.1 34.6 0 3.1.6 6.3 1.5 9.3.8 2.6 1 4.8-.2 7.3-1.4 3-2.5 6.1-3.4 9.2-.4 1.2-.1 2.6-.1 4.6-5.4 2.1-11.8 2.4-18.4 2.4.2-4.6.6-8.8.6-13 .1-20.7.1-41.5.2-62.2 0-7.3-.6-14.6 1.4-22 1.1-4.3-.3-9.2-.6-13.9-.1-1.8-.3-3.6-.4-5.4-.3-3.7-.3-7.2 1.2-11 1.3-3.3.5-7.5.4-11.2-.2-13-1.6-26 2.2-38.8.4-.3.6-.8.9-1.6z"/><path d="m126.5 44.8c9.4-5.5 17.7-2 20.4 8.4 2.3 8.7 1.1 17.5.7 26.2-.4 9.7-1.4 19.4-1.4 29.1 0 4.6 2 9.3 2.4 13.9.5 5.6.3 11.3.3 17 0 .3-.1.6-.3.9-1.6 2.6-10.3 5.1-13 3.6-1.1-.6-2.3-2.1-2.4-3.3-.6-8.5-1.6-17-1.3-25.5.4-9 .9-17.8-.7-26.8-1.7-9.7-2-19.7-3.1-29.6-.3-4.6-1-9.2-1.6-13.9z"/><path d="m56.3 48.2c-.1.9-.2 1.9-.3 2.8-.7 6-1.7 12 .8 17.8.2.5.3 1.3.1 1.9-2.1 5.5.4 10.5 1.5 15.7.6 3 1.2 6.1 1 9-.3 4.5 0 8.9 2 12.9 2.8 5.8 1.8 11.8 1.5 17.8-.1 1.7.1 4.4-.9 5-2 1.3-4.8 1.6-7.2 2.1-.5.1-1.3-.6-1.6-1.1-.9-1.6-1.9-3.3-2.5-5.1-6.8-20.8-11.4-42.2-13.8-64-.6-5.4-.5-11-.4-16.4 0-1.1.9-2.9 1.9-3.2 4.5-1.6 9.2-2.9 13.9-4.1.5-.1 1.6.7 1.8 1.4 1 2.4 1.8 4.9 2.6 7.3 0 .1-.2.2-.4.2z"/></svg>