<svg enable-background="new 0 0 400 400" viewBox="0 0 400 400" xmlns="http://www.w3.org/2000/svg"><path d="m191.8 199.2c-4.1.6-7.9 1.1-11.6 1.8-.8.2-1.8 1.2-2 2-.8 3.7-1.9 7.4-2 11.1-.6 13.5-.6 27.1-1.2 40.6-.6 13.1-1 26.1.6 39.3.8 6.4-.3 13-.4 19.6-.3 14.7-.4 29.4-.6 44.1-.1 5.2-1.4 6.4-6.7 6-1.5-.1-2.9-.3-3.8-.4-4.7-9.5-4.7-19.4-4.7-29.3 0-1.9 0-3.3 2.4-4.1 1.2-.4 2.2-2.4 2.5-3.9.3-1.6 0-3.4-.5-5-2.9-10.1-1.9-20.4-1-30.6.8-9 1.9-17.9 2.7-26.8.2-2 0-4-.2-6-.6-5.8-1.3-11.5.6-17.2.6-2 .6-4.2.7-6.3.4-11 .6-22 1.1-33 0-1 1-2.2 1.8-2.8 2.3-1.8 4.7-3.5 7.3-4.8 2.5-1.2 5.2-2.3 7.9-2.6 5.1-.5 7-1.9 7.3-7.1.2-2.8 0-5.7 0-9.4-5.6-.7-11.5-1.3-17.4-2.1-2.6-.3-5.3-.6-7.7-1.5-3.7-1.3-4.1-3.5-2.7-7.1.7-1.8 1-4.3.3-6.1-3.5-9.2-2-18 1.5-26.8 1.7-4.3 1.7-8.9-.1-13.5-.7-1.6-.1-3.8.1-5.7.2-2.5.6-5 .9-7.5.2-1.5 0-3 .4-4.4.5-1.6 1.6-3 3.5-2 3.1 1.6 6.1.9 9.2-.1 3.7-1.3 7.6-2 11.1-3.8 1.8-.9 2.8-3.4 4.2-5.2-3.1-2.7-5.9-3.1-9.2-2.2s-6.7 1.8-10.2 2c-3.4.3-5.3-1.5-5.9-4.9-1.5-8.7-4.9-17-4.3-26.1.1-1.1-.4-2.3-.8-3.4-.8-2.7-1.9-5.4-2.5-8.2-1.7-6.6.4-9.8 6.9-11.1.5-.1 1 0 1.5.2 4.8 2.3 7.5 8.2 7.1 13.4-.4 4.5-.1 9 .1 13.5.2 3.1.8 6.3 1.1 9.4.3 3.4 1.3 4.4 4.7 4.5 3.4.2 6.7.4 10.7.6-.8-3.7 2.3-7.3-1.2-10.6-.4-.4-.2-1.6-.2-2.5.2-6.3.3-12.7.5-19 .1-4.8 1.9-6.9 6.6-7.8.6-.1 1.3-.1 2.7-.2.5 4.5 1.3 9.1 1.5 13.6.2 5-.3 9.9-.3 14.9 0 3.2-.2 6.8 2.9 8.6 3.2 1.8 6.5 0 9.1-2 1.2-.9 2.3-2.9 2.3-4.4.1-4.5-.4-9.1-.7-13.6-.1-.9-.5-2-.2-2.8.6-2.3.9-5.9 2.4-6.6 1.7-.8 4.6.9 6.9 1.9.6.3 1.1 1.6 1.1 2.4-.2 9.5-.3 19-.8 28.5 0 1.1-1.5 2.6-2.6 3-3.6 1.4-7.5 2.1-11.1 3.7-2.2.9-4.1 2.7-5.9 4.4-.5.5-.7 2.2-.3 2.8.6.8 1.9 1.3 3 1.4 4.6.4 9.3.4 13.8 1.1 6.4 1 8.1 3.3 8.5 9.8.1.9 0 1.9 0 2.1-1.6 1.6-2.8 2.7-4 3.9-1.3 1.4-2.4 1.9-4.4.9-6.2-3.2-12.8-3-19.6-1.7 0 1.6.2 3-.1 4.3-.4 2.1-.9 4.3-2 6.1-2.3 3.7-2 5.5 2.1 7.3 1.5.7 3.1 1.3 4.6 2.1 2 1.1 3.8 1.5 6.2.4 3.5-1.5 9.2 1.5 10.6 5.1.4 1 .7 2.2 1.4 2.8 2.7 1.9 2.9 4.5 2.4 7.3-.8 4.6.2 9 1.6 13.4.5 1.6 1.2 3.2 1.4 4.9.6 5.2.2 7.3-4.9 7.9-4.7.6-9.4 1.2-14.2 1.4-7.2.3-9.6 3.2-8.2 10.4 1.3 6.5 1.3 6.5 7.7 7.7 4.2.8 8.3 1.7 12.5 2.3 2 .3 3.1 1.3 3.5 3 .7 3.1 1.7 6.2 1.6 9.3-.3 6.6-1.3 13.2-1.7 19.8-.2 3.1-.1 6.3.1 9.4.3 4.2 1.4 8.3 1.3 12.5-.1 9.9-.6 19.9-1.1 29.8-.1 1.3-1.1 3.1-2.2 3.6-.9.4-2.8-.7-3.7-1.6-3.3-3.7-3.5-8.2-2.9-12.9.6-4.4.8-8.8 1.3-13.2.2-1.7.9-3.4 1.6-5.5-3.6-1.8-2.7-5.2-2.7-8.8 0-11-.4-22-1-32.9-.1-1.8-1.8-4.9-2.8-4.9-3.5 0-7.5-2.1-10.3 2.3-4.4 6.9-5.2 14.5-3.4 22 3.4 14.8 1.8 29.7 2 44.5.1 5.3-3.1 7.5-7.5 5.7-1.1-.5-2.4-1.6-2.8-2.7-1-2.7-2.3-5.6-2.2-8.4.2-6.9 1-13.9 1.5-20.8 0-.4.2-.9 0-1.2-2.9-8.1-1.4-16.5-2-24.8-.7-5.2-.4-10.7-.4-16.5zm20.7-37.6c4.8-2.9 8.4-6.2 7-12.4-.3-1.5.2-3.2 0-4.7-.2-1.2-.6-3-1.4-3.3-2.6-1-5.5-2-8.3-2.1-3.2-.1-3.3 2.9-3.9 5.2-2.6 10.5-2.4 11 6.6 17.3zm-27.5-.8c5.5-.2 5.8-.5 6.1-6 0-.3.2-.6.3-.9 2.2-4.8 1.4-9.2-2.3-13.2-1.6-1.7-2.9-2-5.1-.9-2.9 1.4-4.4 3.2-4.4 6.4 0 2.4-.5 4.8-.8 7.2-.8 5.3 1.1 7.5 6.2 7.4zm.8-32.7c1.8-1.1 4.6-1.9 5.1-3.4 1.2-4.1 1.7-8.4 2-12.7.2-2.4-5.3-7.1-6.9-6-2.9 1.9-6.4 3.4-6.7 7.7-.1 2.1-.7 4.2-.7 6.3-.1 5 2.3 7.6 7.2 8.1z"/><path d="m290.2 198.1c-7.6.5-7.1-1.1-9.6 6.7-1.4 4.6-2 9.6-2 14.4-.1 10.3.5 20.5.8 30.8 0 .5 0 1.1.2 1.6 2.4 7.7 2 13.3-1.7 21.4-2.2-.8-5.5-.9-6.4-2.5-1.8-3-2.4-6.8-3.2-10.4-.3-1.5.5-3.1.7-4.7.1-.7-.1-1.9-.6-2.2-2.4-1.3-2-3.4-1.9-5.5.7-12.7 1.3-25.4 2-38 0-.9.6-1.7.8-2.5.2-1.1.7-2.4.3-3.2-.4-.9-1.8-1.7-2.8-1.7-1.9-.1-3.8.3-5.7.5-5.5.6-5.7.6-6.5 6.2-2.7 17.2-4.3 34.4-.2 51.7.7 2.7.2 5.9-.3 8.7-.6 2.8-4.2 5.2-6.4 4.8-2.3-.4-4.3-3.3-4.1-6.4.2-4.6.2-9.3 3.1-13.3.5-.7.4-2.2-.1-3-2.1-3.6-2.3-7.3-2-11.3.3-4.4-.4-8.8-.3-13.2 0-1.7.5-3.4 1.3-5 .9-2 .7-3.7.6-5.8-.6-6.7-.2-13.4 0-20.1 0-.7 1.7-1.7 2.7-1.8 4-.5 8-.7 12-1 1.4-.1 2.7-.5 4-.9 3-.9 4.9-2.4 4.5-6.1-.3-2.6-.1-5.3-.1-8 .4-.2.8-.5 1.2-.7-1.7-.6-3.3-1.5-5-1.8-4.3-.6-8.6-1-12.9-1.4-4-.4-5.8-2.2-6.1-6.2-.2-3.2.4-6.6-2.7-9-.4-.3 0-2.2.5-3.2 1.4-3.1 1.6-5.8-.8-8.7-1.6-1.9-1.1-8.9.7-10.7 2-2.1 2.2-4.2 1.1-6.7-1.2-2.9-.9-5.5.1-8.7 1.4-4.8 1.3-10 1.7-15.1.3-4 .6-8 .9-12.1 4 .1 7.6-1.3 11.7 1 5.1 3 12.6-1.9 12.8-7.8 0-1.2-.9-3.1-1.8-3.4-2.3-.9-4.8-1.7-7.2-1.5-5.6.4-11.1 1.2-16.5-1.4-1.8-.9-4.1-.7-6.7-1 2.9-10.7-1-20.9-1.8-31.8 3.8-.5 7.7-1.1 12-1.7-.5 8.5-.6 16.9 4.7 24.8 3 0 7 .1 11-.1.8 0 1.7-1.1 2.1-1.9 2.7-5.1 2.5-10.6 2-16.1-.2-2.6-.3-5.3.2-7.9.7-4.2 3.6-6.8 7.7-8.3 2.7 6.3 2.6 12.6 1.7 19.1-.3 2.4-.6 4.9-.5 7.3.3 5.5 4.1 7.9 9.3 6.2 6.8-2.4 6.7-2.3 5.3-9.5-.4-1.8.1-3.7.3-5.6.3-3.3.9-6.7.8-10-.2-4.7 0-5.7 3.7-9.3 3.1 2 4.2 5.1 4.7 8.4 1.7 9.8 1.5 19.6-.5 29.3-.3 1.4-1.5 3.3-2.7 3.8-4 1.6-8.2 3.3-12.5 3.9-6.6.9-9.7 6.2-6.4 12 .4.7 1.5 1.1 2.3 1.3 3.5.8 7 1.6 10.6 2 8.7.9 13.5 6.3 14.2 14.3.8 9.3 1.2 18.6 1.2 27.8.1 7.2-.6 14.4-1 21.6-.3 5-4.9 10.6-9.7 11.9-4.2 1.1-8.4 2.2-12.5 3.5-5.7 1.8-8.7 7.8-5.6 12.7 1.1 1.8 4.9 2 7.6 2.6 1.2.3 2.7-.4 4.1-.6 6-.7 11.3 3.7 11.4 9.6.1 7.4-.2 14.8 0 22.2.1 4.2.8 8.4 1.2 12.5.1.6.3 1.4 0 1.8-2.5 3.7-1.4 7.7-1.1 11.7 1.1 11.9 2.4 23.8 2.8 35.7.5 16.3.1 32.6.2 48.9 0 1.6.6 3.3 1 4.9 1.6 6 2.2 11.8-1.8 17.2-.7 1-1.3 2.2-1.7 3.4-1.3 3.2-2.6 4-5.8 3-.9-.3-2-1.5-2.1-2.5-1.1-8.4-2.1-16.8-3-25.2-.1-1.2.3-2.5.5-3.7.6-3.7 1.6-7.4 1.6-11.1.1-6.1-.2-12.3-.7-18.4-.5-6 .5-11.8 1.2-17.6.7-6.5-.1-13 .2-19.6.2-4.6 1.2-9.1 1.7-13.7.2-1.4 0-3-.3-4.4-.5-2.7-1.6-5.2-1.8-7.9-.3-4.1-.1-8.3-.1-12.4 0-10.6-1.3-16.1-5.8-25.9zm-2.8-68c-.4-4.1 3-4 5.6-4.8 7.4-2.3 8.5-3.9 7.1-11.7-.3-1.9-.8-3.7-1.6-5.4-1.4-3.3-4.3-5.1-7.4-4.8-2.9.3-5.9.6-8.8 1.2-1.1.2-2.5 1.4-2.7 2.4-1.8 7.1-1 14 2.3 20.6 1.1 2.2 2.6 3.5 5.5 2.5zm-22.5-.7c6.5 0 8.2-2.2 6.6-8.4-1.3-4.8-1.7-9.5 0-14.3 1.1-3.1-.9-5.2-4.1-4.6-2.8.5-5.6 1-8.3 1.8-2.6.8-5.7 1.6-6 4.8-.4 3.8-.5 7.8 0 11.6.7 6.4 6.1 8.5 11.8 9.1zm-12.3 19.9c-.2.1-.5.1-.7.2.7 3 1.2 6.2 2.3 9 1.6 4.1 5.4 2.5 8.3 2.2 3.2-.3 7.4-.7 8.3-4.4 1-3.9.9-8.2.7-12.2-.1-1.6-1.5-4.2-2.7-4.5-3.3-.7-7-1-10.3-.5-5.4 1-5.5 1.5-5.9 7zm47.4-2c-.3-1.2-.4-3.5-1.2-5.5-1.6-4.1-4.5-5.6-8.5-4-3.2 1.3-6.2 3.5-9 5.6-3.8 2.8-4.1 8-1.1 11.6 3.1 3.6 9.7 5.1 14.6 3.4s4.8-6 5.2-11.1z"/><path d="m109.5 365c-3.2-11.2-.3-21.9 1-32.6.1-.7.3-1.5.2-2.2-1.4-6.4-.3-12.6 2.2-18.5.2-.6.5-1.4.3-1.8-3.3-6.1-.4-13.1-2.7-19.4-.2-.7-.1-1.8.4-2.4 2.3-2.9 2.4-6 1.5-9.3-2.7-9.8-.2-19.6.2-29.3 0-.2.1-.4.1-.6-1.5-7.4-1-14.8-.6-22.2.1-1.8-1.5-3.6-2-5.5-.3-1.1-.4-2.8.2-3.4 2.5-2.3 2.1-5.1 1.9-7.9-.5-6.4-1.1-12.8-1.3-19.2-.1-1.4 1-2.8 1.5-4.2.2-.6.4-1.4.4-2-.2-1.9-.4-3.8-.9-5.6-.7-2.7-.8-5.1 1.7-7.1.6-.4.7-1.7.7-2.5-.3-3.5-.7-6.9-1.3-10.4-1-6.5-1.7-13 1.3-19.3.7-1.5.2-3.7.1-5.5-.1-3-.6-6-.4-9 .1-2.2.7-4.1-1.6-5.5-.5-.3-.5-1.6-.4-2.4.4-2.8 1.1-5.5 1.3-8.3.2-3.5-.1-6.9 2.3-9.9.8-1.1.7-3.6.1-5-3.5-7.8-3.4-15.4 1-22.7 1.1-1.8.9-3.1-.5-4.4-2-2-2.6-4.1-1.3-6.8 2.1-4.4 1.2-9.1.8-13.7-.2-2.1.1-4.4.6-6.5.8-3.1 3.7-4.1 6.6-2.7 5.1 2.5 5.8 5 5.5 10.7-.7 10.3-.9 20.7-.8 31 .2 24.7.8 49.3 1.2 74 .1 6.6.3 13.1.2 19.7 0 2.4-.9 4.8-1.3 7.3-.2 1-.5 2.1-.4 3.1 1.3 18-1.3 35.9-2 53.9-.2 5.4.3 10.8.3 16.1 0 4.2-.5 8.4-.6 12.6-.1 3.3.2 6.7.2 10 0 5 .1 10.1-.1 15.1-.3 5.6-1.7 11.1.6 16.6.2.5.4 1.5.1 1.8-2.6 2.2-1.6 5.1-1.6 7.7-.1 11.9-.1 23.9 0 35.8-.5 10.1-4.4 13-14.7 12.4z"/><path d="m194.1 291.6c3 2.6 5.9 4.4 6.1 8.5.2 3.6 4.1 6.5 7.7 6.5h11.4c.8 0 1.8-.2 2.5.1 7.5 3.4 15.2.9 22.8.7 5.4-.1 10.8-.9 16.1-1.1 2.2-.1 3.2-.9 3.9-2.9.7-2.2 1.5-4.4 2.5-6.5.6-1.2 1.6-2.6 2.8-3.1 2.6-1.1 3.8-2.7 4.1-5.4.2-1.8.7-3.7 1.1-5.5 5 1.8 7 5.2 6 10.5-.5 2.7-1.1 5.4-1.9 8-.6 2.3-.3 4.1 1.7 5.5s2.6 3.3 2.5 5.8c-.1 1.5.4 3.2 1 4.5 3.8 8.1 3.8 15.8-.7 23.9-1.9 3.5-1.7 8.2-2.7 12.3-.7 3-1.4 6.1-2.7 9-.8 1.8-2.4 2.5-4.6.7-1.5-1.3-3.8-2.2-5.7-2.1-15.5.2-31.1.5-46.6 1.1-4.3.2-8.5 1.6-12.8 2.4-6.4 1.1-11.9-1.4-16.6-5.4-1-.8-.9-2.9-1.1-4.4-.2-1.3-.2-2.7-.3-4.1-.1-1-.4-2-.3-2.9s.4-1.9.8-2.7c2-4.5 2.1-9 1.2-13.9-.5-2.5.9-5.4 1.4-8.1.2-1 .5-2.7 0-3-2.3-1.8-1.9-3.9-1.7-6.3.9-7.3 1.4-14.5 2.1-22.1zm84.5 29.6c-4.9-5.9-13.5-8.9-20.7-7.2-13.9 3.3-28 4.1-42.2 3.4-2.8-.1-5.7.1-8.5.6-4 .8-4.7 2.1-4.7 6.2 0 3.8 1.4 5.9 4.8 6.9 4.1 1.1 7.9.1 11.7-1.6 2-.9 4.1-1.5 6.3-1.6 10.4-.3 20.7-.1 31.1-.6 6.1-.3 12.1-.7 17.5 4.9 1.6-4 3.1-7.4 4.7-11zm-74.7 33.6c6.8-.3 13.2-.8 19.6-.9 10.6-.1 21.1.2 31.7 0 4.8-.1 9.6-.9 14.1-3.3-.8-2.5-1.5-4.8-2.3-7.6-4.7 5.4-9.3 4-13.8.4-1.3-1.1-2.6-2.2-4-3.1-.8-.5-2-1-2.8-.8-8.7 2.2-17.6 1.6-26.5 1.9-4.3.1-8.6 1.1-12.8 1.7-2.9.4-4.4 2-3.7 5.2.3 2 .2 4.1.5 6.5z"/><path d="m99.5 362c-3.6-.6-7.3 2.4-10.1-1.6-.7-.9-1.2-2.2-1.3-3.4-.2-2-.1-4 .1-6 .7-5 0-9.9-1.6-14.7-.3-1-.7-2.3-.2-3 1.9-2.8.8-5.6.7-8.5-.1-3.5.3-7.2.9-10.7.5-3.1.6-5.9-1.4-8.7-.7-1.1-.6-2.9-.4-4.4.5-3.9 1.7-7.8 1.9-11.8.6-19 .9-38.1 1.3-57.1 0-1.3.3-2.7-.2-3.8-2.5-5.3-1.4-10.8-1.3-16.3.3-10.7 1.7-21.3-.7-31.9-.4-1.6.9-3.5.9-5.2 0-2.4-.2-4.8-.8-7.1-.9-3.7-1.3-7.1.4-10.8 1.4-3 1.3-6.8 1.8-10.2.2-1.2 0-2.5 0-4.3 3.9 1.4 7.5 2.8 11 4-3 22.1-1.9 44.1-2.1 66 0 7.2 1.4 14.3 1.2 21.5-.2 8.1-1.4 16.2-2.1 24.3-.2 1.8-.5 3.6-.4 5.4.3 10.2.8 20.3 1.2 30.5 0 .4-.1.9.1 1.3 3.4 7.5.8 15 .3 22.5-.3 4.5-.5 8.9 1.7 13 .3.5.5 1.2.5 1.8-.5 9.7-1 19.3-1.4 29.2z"/><path d="m138.3 362.8c-.9-3-1.7-5.3-2.2-7.6-.2-.7.1-1.9.7-2.4 2.7-2.5 3.5-5.5 3.1-8.9-.8-6.3-1.2-12.6.2-18.9.1-.4.2-1 0-1.2-3.6-4.9-1.2-10.4-1.8-15.6-.3-3.1-.1-6.3-.1-9.5 0-.8-.2-1.9.2-2.5 2.2-2.7 1.6-5.6 1-8.5-2.2-11.6-1.4-23.1-.5-34.7.8-10.3.5-20.5-2.3-30.5-.2-.8.1-1.8.4-2.6.7-2.5 1.7-4.9 2.2-7.4.3-1.4 0-3-.1-4.4-.7-7.2-.6-14.3 0-21.5.5-6.2-.8-12.6-1.2-18.9-.1-2.6-.3-5.4.4-7.8 1.1-4 1.1-7.9.3-11.9-.7-3.4.7-6 3.1-8.1.7-.6 1.9-.8 2.8-.6 3.8.9 6.5 4.8 6.3 8.8-.6 14.2-1.2 28.5-1.8 42.7 0 .8.1 1.8-.2 2.5-1.8 4.7-1.4 9.4-.6 14.3.6 3.5.1 7.1 0 10.7-.1 4.8-.4 9.6-.4 14.5-.1 11.5.3 23.1-.3 34.5-.8 16 .6 31.9 1.8 47.8.8 11.7 1.4 23.4 2.1 35.1.1 1.8-.4 2.8-2.1 3.8-1.3.8-1.9 2.6-2.9 4-.6.8-1 2-1.7 2.4-1.8.8-3.9 1.4-6.4 2.4z"/><path d="m86.8 74.9c-.1-1.9-.1-3.8-.4-5.7-1.4-10.4 2.4-19.3 8.1-27.6 1.3-1.9 3.7-1.6 4.4.8.8 2.5 2.5 3.8 4.7 4.7 1.7.7 2.2 1.6 1.7 3.4-3 11.8-2.5 23.9-3.8 35.8-1 9 .3 17.9-.7 26.7-.7 6.9-5 11.3-11.8 12.2-2.2.3-3.4-.1-3.9-2.7-1.2-6.1-.5-12.1.2-18.3 1.1-9.7 1.5-19.5 2.2-29.3-.1.1-.4.1-.7 0z"/><path d="m144 40.3c4.9.7 7.8 3.1 7.7 7.5-.1 6.9-1.1 13.8-1.5 20.7-.2 2.9-.3 5.9-.2 8.8.4 7.1 1 14.1 1.4 21.2.1 1.3-.4 2.8-1 3.9-1.7 3.4-2 6.7-.8 10.3.7 2 .9 4.1 1.4 6.2.5 2 .5 3.9-1.7 4.8-2.3.9-5 1.9-7.1-.2-3.5-3.5-6.3-7.3-4.4-12.9 1-3.1 1-6.7 1-10.1.1-12-.2-23.9.1-35.9.3-8.2 1.6-16.4 5.1-24.3z"/><path d="m230.6 116.3c2.6 3.1.8 6.9 1.3 10.7-2.4 0-4.7 0-7 0 .3-2.1.7-4.2.9-5.7 1.7-1.7 3.1-3.2 4.8-5z"/></svg>