<svg enable-background="new 0 0 400 400" viewBox="0 0 400 400" xmlns="http://www.w3.org/2000/svg"><path d="m118.97 357.04c-2.06-9.65-.81-18.88 2.08-28.11 2.13-6.8 4.81-13.73 5.11-20.69.27-6.15 2.78-9.65 6.72-13.68 14.11-14.42 24.78-31.46 34.8-48.79 6.29-10.87 11.26-22.5 16.84-33.83-4.29-2.39-7.44-1.12-10.71.22-6.18 2.52-12.4 4.94-18.69 7.14-1.84.65-3.97.58-5.98.6-5.74.07-11 1.79-16.01 4.41-2.63 1.38-3.17 6.46-.96 8.56 2.68 2.54 5.43 5.01 8.06 7.6 5.21 5.15 5.43 9.71.7 15.23-12.01 14.03-24.07 28.02-36.09 42.05-10.2 11.9-20.36 23.83-30.53 35.75-5.32 6.24-8.76 8.19-16 8.96-2.11-3.18-2.19-6.9-1-10.19 2.23-6.16 4.49-12.49 7.91-18.02 11.67-18.83 23.55-37.54 35.96-55.88 5.75-8.49 12.91-16.02 19.42-23.99.69-.84 1.36-1.71 2.34-2.95-7.01-1.21-13.48-.11-19.93.84-21.79 3.21-42.53 10.29-63.25 17.4-1.47.51-2.97.95-4.79 1.53-1.61-3.5-3.25-6.89-4.7-10.37-.26-.63.07-1.72.49-2.38 5.19-8.25 12.53-14.06 21.58-17.31 9.76-3.51 19.82-6.17 29.67-9.44 3.69-1.22 7.37-2.77 10.69-4.77 5.87-3.51 12.17-5.53 18.84-6.66 4.29-.73 8.32-1.95 10.5-6.26 1.04-2.05 1.14-3.7-.73-5.65-8.84-9.2-17.42-18.65-26.23-27.88-6.77-7.09-14.54-12.99-23.19-17.56-6.76-3.57-14.14-3.56-21.61-2.83-5.05.49-10.27.98-15.23.25-5.65-.83-7.47-4.15-5.35-9.49 2.92-7.35 6.63-14.38 10.14-21.49.44-.88 1.61-1.49 2.55-2.03 4.77-2.7 9.47-5.54 14.38-7.96 14.84-7.29 27.79-17.44 41.29-26.79 31.2-21.58 65.95-34.85 103.14-41.44 15.7-2.78 31.71-3.86 47.62-5.32 3.28-.3 6.82.83 10.08 1.82 18.19 5.52 35.22 13.46 50.99 24.2 13.97 9.52 19.37 22.88 18.8 39.19-.13 3.57-.68 7.13-1.19 10.67-1.03 7.18-3.42 13.49-8.78 18.98-9.45 9.69-18.14 20.12-27.2 30.18-1.02 1.13-2.33 2.1-3.68 2.8-6.56 3.37-13.11 6.79-19.82 9.84-2.93 1.33-4.41 3.39-4.8 6.27-.45 3.31-.41 6.69-.79 10.01-.22 1.97-.59 4-1.34 5.81-1.33 3.19-3.46 5.06-7.44 4.83-6.14-.36-12.32.06-18.46-.16-3.19-.12-4.23 1.47-4.31 4.14-.04 1.42.17 2.92.62 4.26.73 2.22 2.05 4.28 2.56 6.54 1.35 5.99 5.78 8.97 10.67 11.63 2.55 1.39 5.18 2.69 7.55 4.34 4.25 2.95 5.13 8.29 4.27 13.29-.84 4.83-.28 9.96.07 14.93.35 5.01 1.17 9.99 1.83 14.98.15 1.09.42 2.19.82 3.22.81 2.08 1.9 4.07 2.59 6.18 3.22 9.8 8.5 18.09 16.96 24.24 1.12.81 1.93 2.48 2.24 3.9 2.56 11.92 5.02 23.85 7.34 35.82.34 1.76.21 3.85-.43 5.51-2.6 6.76-5.38 13.46-8.35 20.07-.58 1.3-2.15 2.56-3.54 3.02-9.21 3.04-18.5 5.85-28 8.81-4-9.96-7.9-19.69-11.8-29.42-3.53-8.82-6.77-17.77-10.68-26.42-3.41-7.56-4.23-15.59-4.64-23.54-.6-11.8-7.41-19.53-15.44-26.72-1.53-1.36-3.61-2.28-5.59-2.92-4.56-1.49-5.99-.79-8.6 3.17-11.39 17.27-22.3 34.9-34.41 51.64-8.04 11.11-17.76 21-26.86 31.33-2.81 3.25-6.4 5.19-11.09 4.78zm111.19-302c-13.13-.04-24.81 2.05-36.25 5.21-4.21 1.17-8.02 3.8-12 5.79-1.9.95-2.11 2.41-1.82 4.46.76 5.35 3.17 9.59 7.17 13.23 5.03 4.58 10.33 9.05 14.49 14.37 10.5 13.45 21.72 26.1 34.69 37.27 3.78 3.26 7.09 3.72 11.47 2.68 13.09-3.12 22.88-11.32 32.04-20.51.72-.73 1.03-1.96 1.32-3.02 2.72-9.77 3.46-19.76 3.59-29.88.16-11.53-5.78-18.57-15.67-23.09-.81-.37-1.66-.68-2.5-.97-12.22-4.21-25-4.57-36.53-5.54zm-137.33 56.64c2.62 5.25 6.33 8.76 10.9 11.31 13.51 7.55 24.4 18.07 33.91 30.08 6.01 7.59 11.07 16.07 19.95 20.86 1.57.85 3.47 1.59 5.2 1.54 10.05-.25 19.34-3.39 27.91-8.48 4.34-2.58 8.29-5.82 12.98-9.15-5.98-7.64-10.95-15-16.94-21.43-12.64-13.59-25.79-26.7-38.78-39.97-3.49-3.57-7.5-6.48-12.55-7.26-1.6-.25-3.6.01-5 .79-9.27 5.18-18.43 10.55-27.61 15.87-3.29 1.91-6.54 3.83-9.97 5.84z" fill="#010000"/><path d="m364.65 295.49c0 .78-.13 1.59.02 2.35 1.24 6.26-1.36 10.2-7.3 12.02-1.47.45-3.1.51-4.65.52-.85 0-1.68-.58-2.55-.76-12.83-2.68-23.56-8.95-32.73-18.32-4.6-4.7-10.03-8.58-14.85-13.09-2.42-2.26-4.45-5-6.44-7.68-8.81-11.84-17.28-23.96-26.42-35.54-5.27-6.67-3.85-13.59-2.69-20.74.11-.68 1.08-1.34 1.79-1.77 2.68-1.62 5.59-2.89 8.09-4.74 3.71-2.75 7.61-2.76 11.72-1.6 18.26 5.14 33.89 14.32 45.21 29.91 7.56 10.42 15.21 20.74 24.84 29.42 1.09.98 1.89 2.49 2.35 3.91 2.76 8.47 3.8 17.21 3.61 26.11z" fill="#010000"/><g fill="#fbfcfa"><path d="m361.2 9.6.8-1c.9.7 1.9 1.4 2.9 2.3l-.9 1.1c-1-1-2-1.8-2.8-2.4zm.5 10.6c.9-2.1 1.6-4.3 2.3-6.7.4.2.8.4 1.3.6-.7 2.1-1.5 4.3-2.2 6.6zm.4-15.2.9-.9c1 .8 2 1.6 2.8 2.4l-1 1c-.9-.9-1.8-1.7-2.7-2.5zm12.5-1.2h1.2v1.4h2.7v1.1h-2.7v2.7h-1.2v-.6h-1.8v1.3h4.9v3.8h-1.2v-.5h-3.7c0 .4-.1.9-.1 1.2h5.1v1h-5.2c0 .5-.1.9-.2 1.2h6v1h-5.2c1.1 1.3 2.9 2 5.5 2.2-.4.4-.7.8-.9 1.3-2.9-.5-4.8-1.6-5.7-3.5h-.1c-.8 1.7-2.7 2.9-5.9 3.6-.2-.4-.6-.8-.9-1.1 2.8-.6 4.6-1.4 5.4-2.5h-4.8v-1h5.3c.1-.3.2-.7.2-1.2h-4.9v-1h5c0-.4 0-.8.1-1.2h-3.5v.5h-1.2v-3.8h4.9v-1.3h-1.8v.5h-1.2v-2.7h-2.7v-1h2.6v-1.4h1.2v1.4h4.7v-1.4zm-6.6 8.3h3.6c0-.4 0-.9 0-1.4h-3.6zm1.9-4.6h4.7v-1.3h-4.7zm6.6 3.2h-3.7v1.4h3.7z"/><path d="m385.3 3.8h1.3v2.2h2.8v-2.2h1.3v2.2h4.1v9.1h1.7v1.3h-16.9v-1.3h1.7v-9.1h4.1v-2.2zm.4 13.1.7 1.2c-1.8.9-3.8 1.9-6 2.9-.2-.4-.5-.8-.8-1.3 2.3-1 4.3-1.9 6.1-2.8zm-3.1-6.4h2.8v-3.2h-2.8zm0 4.6h2.8v-3.3h-2.8zm4-4.6h2.8v-3.2h-2.8zm0 4.6h2.8v-3.3h-2.8zm3.7 1.9c2.1.9 4.1 1.8 6.1 2.7l-.7 1.3c-2.2-1.1-4.2-2-6.1-2.9zm3.2-9.7h-2.8v3.2h2.8zm-2.8 7.8h2.8v-3.3h-2.8z"/></g></svg>