<svg enable-background="new 0 0 400 400" viewBox="0 0 400 400" xmlns="http://www.w3.org/2000/svg"><path d="m202 74.1c-.6 8.7-1 17.2-1.7 25.6-.8 9.7 8 21.4 17.7 22.3 5.7.5 11.6-.1 17.3-.6 6.4-.5 12.8-1.7 19.2-2.1s12-2.9 16.9-6.6c5.4-4.1 11.3-5.7 17.8-6.4 8.4-.9 16.8-2.2 25.2-3.3 5.5-.7 11-6.7 11.4-12.2.3-4.8 2-8.8 5.6-12.3 2.1-2 3.2-5.1 5.2-8.4.7 0 1.9-.2 1.4 2.4-.4 2 .8 4 3.2 3.7 6.5-.7 9.1 2.9 11.2 8.3 3.1 8.2 8.2 15.9 10 24.3s.5 17.5.5 26.3c0 .8-.1 1.7 0 2.5 1.1 12.5-.8 24.4-6.6 35.6-.6 1.1-1 2.8-.6 3.9 3.4 8.6 3.1 17.5 2.2 26.3-.9 9.6.5 18.7 3.6 27.7 1 2.9 1 5-1.3 7.7s-3.7 6.4-4.8 9.9c-2.6 8.5-7 15.5-13.8 21.4-8.5 7.3-16.3 15.4-24.5 23.1-1.2 1.2-3 2.1-4.6 2.5-12.7 3.1-25.7 5.4-38.2 9.1-11.8 3.4-23.2 7.9-34.7 12.1-12 4.3-24 8.8-36 13.1-1.6.6-3.3.9-4.9.9-29.2.1-58.4.1-87.6 0-1.5 0-2.9-1.2-4.4-1.7-1.5-.4-3.2-1.2-4.5-.8-2.8.7-5.2.4-7.3-1.6-8.4-7.6-16.9-15.1-25.3-22.7-1.1-1-2.2-2.3-2.8-3.7-6-13.4-11.9-26.9-17.8-40.3-.8-1.7-1-3.3.2-5 .6-.8.6-2.2.5-3.3-.8-8.4-1.9-16.8-2.6-25.3-.1-1.6.8-3.2 1.3-4.8.4-1.2 1-2.4 1.1-3.6.5-4.1.9-8.2 1.2-12.3.1-.9-.3-1.8-.6-2.7-1.2-3.4-2.9-6.6-3.4-10.1-1-6.4-1.2-12.8-1.7-19.1.2-.3.4-.5.5-.5 6.1-2.2 6.9-4.2 4-10.2-5.4-10.9-10.8-21.8-16.2-32.7-2-4.1-.9-10.5 2.7-13.4 9.5-7.8 19.8-11.8 31.9-6.7 1.4.6 2.8 1.7 3.5 2.9 5.2 8.3 10.6 16.6 15.2 25.2 2.3 4.3 5.5 6.9 10 7.9 9.8 2.1 19.4 2 28.6-3 2.4-1.3 5.5-1.5 8.2-1.7 4.6-.4 9.3-.1 13.9-.5 5.2-.5 7.1-2.7 6.2-7.1-.6-3.3.9-5.3 4-6.6 2-.8 5.1-2.1 5.2-3.3.2-3.3 0-7.3-1.7-10-2.5-3.9-3.2-6.6 0-10.4 2-2.3 1.2-5.4-.3-8-2.2-3.9-1.3-8.2 2.4-10.7 1.8-1.2 3.8-2.3 5.6-3.7 9.9-7.5 21.2-7.7 33.3-7.3zm47.2 137.8c-7.2-1.7-13.4.7-19.2 4.6-3.3 2.2-6.6 4.6-9.8 7-8.2 5.8-11.9 14-12.6 23.8-.4 5.7-1.2 11.4-4.7 16.2-.5.7-.5 1.8-.6 2.7-.4 9.5 4.2 16.6 10.7 22.8.5.5 1.3.9 1.9.8 6.6-.2 13.2.6 19.8-1.7 9.5-3.4 19.3-6.1 29-9.1 10-3.1 19.4-7.6 27.3-14.5 6.2-5.4 13-9.7 20.4-13.3 2.4-1.2 3.4-2.7 3.8-5.2.3-1.7 1.1-3.4 2.1-4.7 4.4-5.1 8.9-10.2 13.7-15 3.4-3.4 5.5-7 5.4-11.9-.1-2.9.6-5.9.9-8.8.6-5.7-.7-8.8-6.4-10.3-6.1-1.6-12.4-2.2-18.7-2.5-3.2-.2-6.7.6-9.8 1.8-12.8 4.9-25.6 10-38.3 15.3-5 1.9-9.8 3.2-14.9 2zm-109.5 93.7v.9c7.2.4 14.4.8 21.6 1 1.4 0 3.4-.3 4.3-1.3 3.2-3.3 7.1-4.7 11.5-5.3 3.3-.5 5.1-2.6 5.2-6 0-1.9-.8-3.7-.8-5.6-.1-1.8.2-3.7.4-5.5.2-1.5.8-3 .8-4.5-.3-4.9-.7-9.7-1.2-14.5-.7-6.8-1.3-13.7-2.5-20.4-1.3-7.4-4.7-12.7-13.1-14.6-5.6-1.3-10.4-2.3-15.7.6-4.8 2.6-10 3.9-15.6 2.9-6.2-1.2-12.2 0-18 2-10.5 3.6-21.1 7-30.1 13.9-.8.6-1.8 1.4-2 2.3-2.3 9.8-3.6 19.6-1.2 29.5 1 4.2 3.2 7.6 7.3 9.8 7 3.9 13.7 8.5 20.6 12.5 2.3 1.3 5.1 2.2 7.7 2.3 6.9.2 13.8 0 20.8 0zm197-155.4c-.3-2.8-.3-5.7-.9-8.5-.4-1.9-1-4.3-2.4-5.3-5.5-4.3-12-7.1-19-7-7.8.2-15.5 1.9-23.3 2.6-9 .9-18 3.2-27.1 1.6-1.3-.2-2.7.2-4 .7-4.4 1.6-8.7 3.2-13 5-2.5 1.1-4.8 1.3-7.3.2-2-.9-3.7-.6-5.7.5-5.3 2.9-10.7 5.5-16.1 8.3-1 .5-2.1 1.2-2.6 2.1-3.7 6-4.9 12.4-1.8 19 2 4.2 4.4 8.2 6.5 12.3 1.8 3.6 4.9 5.4 8.7 6 14.4 2.3 27.7-.1 39.7-8.7 1.9-1.4 4-3 6.2-3.4 5.2-.9 10.5-1.1 15.8-1.5 5.1-.3 9.9-1.5 14.6-3.7 8.4-4 16.9-7.8 25.5-11.3 4.6-1.7 7.4-3.7 6.2-8.9zm-251.9 53.8c1.1 2.5 2.4 7 4.9 10.8 1.2 1.8 4.5 2.2 7 3.2 1.4.5 2.8.8 4.3 1.2 5.7 1.5 11 .9 15.9-2.9 4-3.1 8.2-6 12.5-8.7 1.3-.8 3.1-1.4 4.6-1.2 8.5 1 16.8.5 24.8-3 4.3-1.9 8.9-3.4 13.5-4.5 5-1.2 8.3-3.9 10.4-8.6 1-2.2 1.4-3.9.5-6.2-1.9-5.4-4.9-10.6-4.3-16.7.1-.7-1-1.7-1.8-2.1-5.2-2.7-10.3-5.3-15.6-7.8-1.1-.5-2.6-.6-3.9-.4-18.6 3.8-37.3 7.7-55.9 11.6-1.1.2-2.3.7-3 1.5-3.7 3.9-7.3 7.9-10.9 12-.4.4-.8 1.1-.8 1.6-.8 6-1.4 12.1-2.2 20.2z"/></svg>