<svg enable-background="new 0 0 400 400" viewBox="0 0 400 400" xmlns="http://www.w3.org/2000/svg"><path d="m190.43 77.26c4.67 2.77 8.72 5.32 12.91 7.63 4.91 2.71 8.4 6.43 10.3 11.82 2.45 6.95 5.15 13.82 7.96 20.64 1.33 3.22 2.63 6.22-1.11 9.63 2.01 1.31 3.71 2.42 5.73 3.73-4.29 4.47-7.96 8.17-11.48 12-3.71 4.03-7.26 8.21-10.93 12.28-3.54 3.93-3.27 6.43.08 11.4 4.87 7.23 10.47 13.96 15.63 21 .84 1.15.98 2.8 1.43 4.23.03.1-.03.22-.01.33 2.01 14.82-7.62 23.97-16.42 33.45-4.79 5.17-10.05 9.91-12.94 16.56-1.9 4.39-1.26 5.7 3.45 6.47.88.14 1.8.22 2.67.1 11.3-1.57 20.47 4.36 29.96 8.79 4.41 2.06 8.4 5.15 12.28 8.16 2.29 1.77 4.21 4.15 5.87 6.55 1.38 1.99 1.96 4.52 3.22 6.61 6.06 10.12 4.87 20.48 1.18 30.94-.33.93-.89 1.8-1.41 2.65-5.19 8.62-10.16 17.39-15.64 25.82-14.8 22.78-35.26 36.03-63.03 36.56-1.79.03-3.58.08-5.36.23-2.91.23-5.63.04-7.35-3.12-4.16 4.14-9.1 3.79-13.96 2.84-7.13-1.4-14.19-3.13-21.26-4.78-.82-.19-1.59-.71-2.33-1.15-2.58-1.52-5-3.38-7.73-4.53-4.46-1.88-7.42-5.01-8.86-9.47-5.73-17.72-10.4-35.69-10.47-54.45-.03-7.57 1.11-15.14 1.71-22.71 3.4-2.83 1.45-6.82 2.23-10.22.12-.54.19-1.41.52-1.55 3.76-1.55 5.94-5.56 10.14-6.41 2.79-.56 5.84-.72 8.28-2 7.64-4 15.67-6.22 24.19-7.33 3.33-.44 6.45-2.44 10.5-4.06-4.12-3.28-7.12-5.94-10.39-8.22-6.06-4.22-7.64-10.32-6.22-16.85 1.68-7.72 4.36-15.24 6.92-22.73.73-2.14 2.52-3.93 3.88-5.84 6.65-9.27 13.31-18.53 20.5-28.52-3.42-2.39-6.56-5.03-10.1-6.92-3.72-1.98-7.87-3.16-11.76-4.85-1.93-.84-3.82-1.89-5.54-3.1-6.97-4.89-8.75-9.34-5.65-17.31 2.73-7.03 6.05-13.92 9.88-20.42 4.87-8.27 10.42-16.08 18.02-22.3 4.44-3.63 7.84-8.29 8.23-15.3-3.71-.3-7.52-1.29-11.11-.77-12.47 1.81-24.73.49-37.06-1.24-4.73-.67-9.64-.83-14.39-.39-5.38.5-8.82-1.17-10.5-7.33 21.09-15.33 45.44-20.81 71.68-20.75.38-1.97.79-3.56.98-5.18.49-4.11 1.87-7.65 4.96-10.64 1.7-1.64 3.08-2.57 5.49-1.93 4.74 1.26 9.57 2.2 14.31 3.49 4.01 1.09 7 3.39 7.71 7.85.82 5.15 3.33 7.51 9.1 7.61 6.64.11 13.24 1.93 19.87 2.83 3.3.45 6.71 1 9.97.65 7.27-.77 14.21.28 21.13 2.32 2.67.79 5.4 1.52 8.16 1.82 4.63.51 9.6-.02 11.72 6 1.64-1.46 2.86-2.54 4.36-3.86 4.6 5 13.16 3.29 16.91 10.52-3.91 3.49-7.71 7.28-11.96 10.46-1.46 1.09-4.06.84-6.15.91-13.97.43-27.95.82-41.93 1.09-1.48.03-2.99-.72-4.45-1.2-13.46-4.4-27.07-5.18-40.85-1.74-.85.21-1.67.65-2.44 1.08-.87.46-1.67 1.06-3.23 2.12zm-18.11 24.9c-3.54 2.38-7.01 4.13-9.73 6.69-4.55 4.28-8.69 9.01-12.85 13.68-.86.97-1.47 2.5-1.52 3.81-.26 5.94 3.19 9.5 8.17 11.88 5.83 2.79 11.7 5.51 17.57 8.23.58.27 1.28.52 1.9.46 7.11-.68 13.42-3.48 19.62-7.07-.88-.82-1.46-1.37-1.64-1.54.81-1.4 1.87-2.4 1.94-3.47.73-10.91-2.29-20.69-9.04-29.35-5.51-7.08-10.87-8.82-18.74-5.72 1.45.82 2.77 1.55 4.32 2.4zm24.22 91.89c.06-7.03-2.84-11.94-8.7-14.47-4.08-1.76-8.45-2.84-12.71-4.18-2.9-.91-5.09.72-5.57 3.7-.25 1.55-.83 3.23-1.76 4.47-5.57 7.43-11.32 14.72-16.93 22.12-3.51 4.64-2.65 11.81 2.03 14.09 4.9 2.38 10.05 4.41 15.28 5.91 4.78 1.36 9.06.36 12.25-4.32 3.39-4.98 7.52-9.45 11.21-14.24 3.17-4.11 4.53-8.91 4.9-13.08zm-80.35 77.28c3.35 8.86 6.59 17.52 9.97 26.13.28.72 1.39 1.48 2.2 1.58 11.62 1.53 22.98.53 33.81-4.16 1.44-.62 3.15-2.18 3.47-3.59 1.17-5.1 1.89-10.32 2.59-15.52.39-2.86-.6-5.44-3.23-6.86-3.51-1.89-7.31-3.15-11.22-1.35-6.89 3.19-13.99 3.11-21.31 2.14-5.38-.68-10.87-1.11-16.28 1.63zm26.61 46.75c0-.19 0-.39 0-.58-4.14 0-8.27 0-12.41 0-2.92 0-5.1 1.24-5.42 4.27-1 9.73-.1 19.22 4.51 28.06.52 1 1.52 2.14 2.52 2.43 5.55 1.64 11.1 3.5 16.79 4.39 5.86.91 10.26-3.26 10.81-9.19.42-4.57 1.2-9.13 1.16-13.69-.04-4.16-.79-8.36-1.57-12.47-.35-1.81-1.79-2.76-4-2.73-4.12.05-8.26-.31-12.39-.49zm36.88 34.39c2.48-.34 5.18.09 6.65-1.06 3.53-2.75 7.53-3.98 11.68-4.68 7.68-1.29 14.45-4.26 19.17-10.52 2.85-3.78 5.08-8.1 7.09-12.41 3.35-7.2 1.05-11.22-6.96-11.09-7.75.13-15.51 1.26-23.19 2.43-4.71.71-7.71 3.45-8.8 8.66-1.93 9.28-5.57 18.19-5.64 28.67zm31.48-57.13c5.58-.51 12.14-1 18.67-1.78 1.28-.15 3.09-1.19 3.51-2.26 3.32-8.53.56-16.79-7.47-21.22-3.51-1.94-7.62-2.93-11.57-3.87-7.59-1.8-15.08-.03-22.54 1.31-.88.16-2.07 1.02-2.35 1.81-2.39 7-2.64 13.95.8 20.78 1.34 2.66 3.31 4.03 6.24 4.22 4.57.28 9.13.62 14.71 1.01zm-2.2 61.31c-.29-.3-.58-.6-.87-.9-1.92 1.02-3.85 2.04-5.77 3.06.04.31.09.63.13.94 1.64.29 3.43 1.1 4.85.67.86-.26 1.13-2.44 1.66-3.77z" fill="#010000"/><g fill="#fbfcfa"><path d="m361.2 9.6.8-1c.9.7 1.9 1.4 2.9 2.3l-.9 1.1c-1-1-2-1.8-2.8-2.4zm.5 10.6c.9-2.1 1.6-4.3 2.3-6.7.4.2.8.4 1.3.6-.7 2.1-1.5 4.3-2.2 6.6zm.4-15.2.9-.9c1 .8 2 1.6 2.8 2.4l-1 1c-.9-.9-1.8-1.7-2.7-2.5zm12.5-1.2h1.2v1.4h2.7v1.1h-2.7v2.7h-1.2v-.6h-1.8v1.3h4.9v3.8h-1.2v-.5h-3.7c0 .4-.1.9-.1 1.2h5.1v1h-5.2c0 .5-.1.9-.2 1.2h6v1h-5.2c1.1 1.3 2.9 2 5.5 2.2-.4.4-.7.8-.9 1.3-2.9-.5-4.8-1.6-5.7-3.5h-.1c-.8 1.7-2.7 2.9-5.9 3.6-.2-.4-.6-.8-.9-1.1 2.8-.6 4.6-1.4 5.4-2.5h-4.8v-1h5.3c.1-.3.2-.7.2-1.2h-4.9v-1h5c0-.4 0-.8.1-1.2h-3.5v.5h-1.2v-3.8h4.9v-1.3h-1.8v.5h-1.2v-2.7h-2.7v-1h2.6v-1.4h1.2v1.4h4.7v-1.4zm-6.6 8.3h3.6c0-.4 0-.9 0-1.4h-3.6zm1.9-4.6h4.7v-1.3h-4.7zm6.6 3.2h-3.7v1.4h3.7z"/><path d="m385.3 3.8h1.3v2.2h2.8v-2.2h1.3v2.2h4.1v9.1h1.7v1.3h-16.9v-1.3h1.7v-9.1h4.1v-2.2zm.4 13.1.7 1.2c-1.8.9-3.8 1.9-6 2.9-.2-.4-.5-.8-.8-1.3 2.3-1 4.3-1.9 6.1-2.8zm-3.1-6.4h2.8v-3.2h-2.8zm0 4.6h2.8v-3.3h-2.8zm4-4.6h2.8v-3.2h-2.8zm0 4.6h2.8v-3.3h-2.8zm3.7 1.9c2.1.9 4.1 1.8 6.1 2.7l-.7 1.3c-2.2-1.1-4.2-2-6.1-2.9zm3.2-9.7h-2.8v3.2h2.8zm-2.8 7.8h2.8v-3.3h-2.8z"/></g></svg>