<svg enable-background="new 0 0 400 400" viewBox="0 0 400 400" xmlns="http://www.w3.org/2000/svg"><path d="m239.9 101.1c5.1 4.8 10.9 5.7 17.3 5.5 5.4-.2 10.8-.3 16.1.3 2.4.3 4.6 2.2 6.8 3.5 1.9 1.2 3.4 3.4 5.5 4.1 5.7 1.9 11.5 9.9 10.1 18-.7 4.5-2 8.4-6.6 10.8-2.6 1.4-4.9 3.9-6.3 6.5-4.2 7.3-10.5 11.3-18.6 13-7.4 1.6-14.8 3.5-22.3 5-8.7 1.7-14.3 6-15 15.5-.5 6.9-1.6 13.8-2.5 20.8-.9 7.4-3.4 14.1-8 20 3.5 2.6 6.9 4.1 11.2 2.3 7.5-3.1 15.4-1.9 23.2-2.2 1.7-.1 3.5-.5 5-1.3 4.3-2.3 9.1-2.1 12.9-.6 5.2 2.2 10.2 2.3 15.5 1.7 5.7-.6 11.3-.5 15.9 3.5 1.4 1.2 3 2.5 3.8 4.2 2.4 4.9 6.5 8.2 10.4 11.8.9.9 1.7 2.4 1.7 3.7.2 5.4.8 10.9-.1 16.2-.8 4.5-3.3 8.8-5.4 13-1.8 3.6-5.4 5.3-8.4 7.7-6.7 5.2-10.3 12.4-9.4 21.7 2.7-.6 5.2-1.2 7.7-1.7 5.1-.9 10-.5 15 1.2 4.3 1.4 8.8 1.9 13.3 2.8.8.2 1.9.3 2.5-.1 4.4-2.9 9.2-1.7 13.9-1.7 4.2 0 8.5.2 12.7.3 3.7.1 5.3 1.3 5.1 5.1-.2 4-1.3 8.1-2.4 12-1.2 4.2-3.9 6.3-8.5 7.1-3.3.6-6.2 3.4-9.2 5.3-1.3.8-2.3 1.7-3.9.5-.5-.4-1.6-.2-2.3 0-3 .7-6 1.5-8.9 2.4-8.8 2.8-17.2-.2-25.5-2.2-2.1-.5-3.8-2.6-5.8-3.8-5.9-3.6-12.6-4-19.3-4.5-5.6-.4-11.2-1-16.7-1.5-.8-.1-1.8-.1-2.5-.5-5.8-4-11.8-1.9-18-1.4-9.2.7-18.6.6-27.9.5-11.4 0-22.9-.9-34.3-.3-7 .4-13.8 2.8-20.7 4.7-3.2.9-6 3.1-9.2 3.9-5.2 1.3-10.6 1.8-15.9 2.7-.8.1-1.7.1-2.5.1-4.9.2-8.9-5.7-6.9-10.3.3-.7 1.2-1.1 1.9-1.6 4.9-3.4 10-6.8 14.8-10.3 1.9-1.4 3.4-3.1 5-4.8 1.5-1.6 2-3.4.7-5.5-4.3-6.7-4.8-13.7-2.5-21.4 2.1-7.2 3-14.7 4.7-22 .3-1.2 1.6-2.8 2.8-3.1 11.5-3.8 22.3-9.1 32.7-15.2 1.7-1 3.3-2.6 4.2-4.4 1.3-2.6 3-3.3 5.6-2.8.9.2 1.9.3 2.8.4 3 .3 5.3-.9 5.9-4 1.6-7.3 4.6-13.9 8.2-20.5 1.9-3.4 2.3-7.9 2.7-11.9.6-6.2.9-12.5.9-18.7 0-6.7-7.1-12.1-13.9-10.8-1.1.2-2.2.6-3.3 1-11.5 4.1-18.1 2.2-25.5-7.4-4.4-5.6-7-12.1-7.5-19.2-.2-3 .1-5.8 1.7-8.5.8-1.3.7-3.3.5-4.8-.9-5.7-1.4-11.2 1.2-16.7 1.2-2.6 2.6-4.5 5.1-6 3.9-2.4 7.2-3.6 12.1-1.5 7.6 3.2 16 3.7 24.3 3.5 2.1-.1 3.3-.9 4.2-3 3.7-8.2 5.9-16.8 5.9-25.8s5-14.5 12.5-18.2c.6-.3 1.1-.6 1.7-.8 6.5-2.9 8.4-2.4 12.7 3.4 3.9 5.3 4.5 11.2 3.2 17.5-.1.3-.1.7-.2.9-5 4.4-4.6 11.3-7.7 16.9zm-7.3 197.6c1.8 2.3 3.2 3.9 4.3 5.7 1.2 1.9 2.7 2.2 4.8 2 6.1-.7 12.2-1.2 18.3-2 .9-.1 1.9-.8 2.5-1.5 4.9-5.6 9.6-11.5 14.8-16.9 5.7-5.9 10-12.5 12.3-20.4.6-2.1 1.6-4.1 2.9-5.9 4.4-6.3 2.5-12.3-4.8-14.4-5.1-1.5-10.3-2.6-15.1-4.6-4.3-1.8-7.3-.2-9.7 2.7-1.4 1.6-2.1 4.1-2.3 6.3-.4 4.5.1 9.1-3.4 12.8-.6.6-.6 2-.6 3-.3 5.8-.6 11.6-4.4 16.5-.4.5-.7 1.2-.7 1.7.2 4.6-3 6.3-6.3 8-4.2 2.3-8.2 4.6-12.6 7zm47.7-174.5c.4-7-5.6-11.8-12.6-10-8.7 2.3-17.3 5-26 6.8-4.6 1-6.3 3.7-7.3 7.6-.4 1.4-.4 2.9-.8 4.4-.4 1.6-1.2 3.1-1.6 4.8-.5 1.8-1.3 3.7-1.3 5.6.1 2.2 1 4.3 1.5 6.4.7 3 2.3 3.8 5.4 3.3 6.4-1.1 12.8-2.9 19.4-1.4.8.2 2-.4 2.8-1 3.8-2.7 7.3-5.8 11.3-8.1 5.4-3.1 7.7-7.8 8.5-13.6.4-1.6.5-3.2.7-4.8zm-42.1 130.1c.1-7.1-1.8-10.2-6.5-11.4-2.4-.7-5.2-.5-7.8-.4-8.4.5-15.4 4.9-22.9 7.9-4.7 1.9-5.3 4.2-2.4 8.5.9 1.3 2.3 2.2 3.2 3.5 1.4 1.8 2.9 3.6 3.8 5.7 2.9 6.8 5.5 13.7 8.2 20.6 1.7 4.2 4 4.9 7.7 2.1 1-.8 1.7-1.8 2.6-2.8 4.9-5.5 7.3-12.3 9.5-19.1 1.8-5.6 3.5-11.2 4.6-14.6zm-53.2 51.2v.9c2.6-.6 5.4-.8 7.8-1.8 4-1.7 4.6-3 3.4-7.2-1-3.5-2.3-7-4.1-10.2-3.7-6.4-7.3-12.6-6.4-20.4.1-.7-.2-1.5-.5-2.1-1.6-4.3-3.4-5.1-7.5-3.1-1.3.7-2.6 1.3-4 2-3.6 1.8-8.5 2.8-10.3 5.7-1.8 3.1-.6 8-.6 12.1 0 1.9-.3 3.7 1.9 4.9.5.3.6 2.1.3 3.1-.4 1.4-1.3 2.6-1.9 4-1.3 2.8-.7 5 1.9 6.4 6.5 3.2 12.5 6.9 20 5.7zm-4.5-169.9h.2c-.3 2.7-.4 5.5-.8 8.2-.7 4.5-.5 8.9 1.9 12.9.4.7 1.3 1.6 2 1.7 6.2.8 12.5 2.1 18.6-1 1.7-.8 4.1-.7 6-.3 2.7.6 4.8-.5 5.4-2.6 1.9-7.5 2.8-15.2.6-22.8-.7-2.5-2.2-4.9-5.4-5.1-7.2-.5-14.3-.9-21.5-1.3-4.6-.2-7.4 2.7-7.1 7.2 0 1 0 2.1.1 3.1z"/><path d="m54 289.2c-4-.8-8-1.6-12.1-2.3-7.1-1.2-11.6-11.1-9-17.3.3-.7.5-1.6 1-1.9 4.5-2.4 8.3-6.3 13.7-6.9 3.4-.4 6.7-1.1 10-1.4 2.9-.3 5.4-1.2 7.6-3.3.9-.9 2.8-1.4 4.1-1.2 3.3.3 6.3.1 9.5-1.1s7-.9 10.5-1.3c1.8-.2 3.8-.3 5.5-1 6.4-2.7 12.7-5.7 19.1-8.4 1-.4 3-.8 3.3-.3 1 1.4 2.2 3.3 2.1 4.9-.2 2.7-.9 5.3-3.7 7.2-3.3 2.3-3.1 4.3-.6 7.8.5.6.3 2 0 2.8-.4.8-1.3 1.6-2.2 1.7-2 .2-4 .2-6 .1-1.9-.1-3.3.4-3.9 2.3-.7 2.1-2.2 3.1-4.3 3.7-1.5.4-2.9 1.3-4.2 2.2-10 7.2-27.9 13.1-40.4 13.7z"/><path d="m58.2 197.4c-6.2-.8-12-1.4-17.7-2.3-.9-.1-1.8-1.1-2.4-2s-.8-2.2-1.3-3.2c-1.6-3.9-3.4-7.8 1.1-11.2.8-.6 1.3-2 1.6-3.1 1.4-5.1 4.1-6.9 10-5.1 7.5 2.3 15 2.1 22.6 1.9 7.9-.2 15.9-.7 23.2-4.4.5-.2 1.2 0 1.8.1 5.4.9 10.8 1.8 16.1 2.9 2.3.5 4.8 1.1 6.7 2.4 3.2 2.4 2.4 5.5-.9 7.6-11.9 7.4-25.5 9.1-38.8 12-7.3 1.8-14.8 3.1-22 4.4z"/><path d="m131.9 128.7c-6.7-1.5-10.8 2.6-14.9 6.4-2.9 2.6-6 3.4-9.7 3.5-11.1.2-22.1.6-33.1 2.4-5.4.9-11.2-.7-14.3-6.4-1.9-3.5-3.4-7.2-4.8-10.9-.3-.9.3-2.7 1.1-3.4 2.8-2.5 5.9-4.8 9-7 .8-.6 2.1-.9 3.2-.8 7.6.9 15.1 2.1 22.6 2.7 3.6.3 7.3-.7 10.9-.9 1.5-.1 3.1 0 4.5.5 6.5 2.4 13 5 19.4 7.5 2.8 1.1 5.6 2.1 6.1 6.4z"/></svg>