<svg enable-background="new 0 0 400 400" viewBox="0 0 400 400" xmlns="http://www.w3.org/2000/svg"><g fill="#010000"><path d="m43.6 320.14c0-5.11-.09-9.58.07-14.05.04-1.12.68-2.37 1.39-3.3 8.3-10.96 16.67-21.87 25.03-32.79.34-.44.79-.82 1.05-1.3 3.63-6.56 8.9-8.95 16.51-7.94 16.92 2.24 33.65-1.67 50.49-2.29 16.76-.62 33.22-4.81 50.12-3.89 2.94.16 5.97-1.25 8.96-1.94.03-.34.06-.68.09-1.01-3.33-1.9-6.73-3.68-9.95-5.74-1.33-.85-2.63-2.12-3.34-3.51-1.94-3.77-3.59-7.69-5.31-11.57-4.52-10.21-11.53-18.48-19.72-25.92-6.08 6.55-11.9 12.89-17.8 19.15-5.66 6-11.82 11.31-20.06 13.47-1.17.31-2.38.45-4.43.82 1.06-4.19 1.58-8.07 3.01-11.57 3.74-9.12 8.46-17.67 14.8-25.37 4.32-5.25 8.08-11 11.77-16.73 4.51-7.01 5.25-14.57 2.38-22.48-1.13-3.1-3.25-4.34-6.4-4.18-.67.03-1.36.01-2 .17-14.77 3.63-29.84 1.26-44.61 2.76-1.72-5.58-1.76-5.63 2.48-8.45 2.23-1.48 4.54-2.87 6.92-4.08 3.26-1.66 6.67-2.38 10.38-1.43 1.66.43 4.05.93 5.14.11 2.85-2.15 5.76-1.99 8.9-1.7.69.06 1.72-.15 2.11-.63 2.43-2.96 5.82-3.45 9.28-3.98 3.79-.58 5.93-2.83 5.92-6.76 0-2.51-.63-5.08-1.35-7.51-1.66-5.55-1.76-7.24.3-13.18-5.37-.39-10.57-1.33-15.69-1.02-15.17.91-30.3 2.37-45.46 3.5-4.46.33-8.94.38-13.41.38-2.73 0-5.05-.86-5.86-3.95-.81-3.12.45-5 3.13-6.55 7.94-4.58 16.6-6.54 25.58-7.37 15.26-1.41 30.52-2.77 45.79-4 3.03-.24 3.86-2.35 4.12-4.44.47-3.86.61-7.8.39-11.68-.42-7.18-.52-7.71-7.75-8.4-7.19-.69-14.49-.09-21.74-.14-2.67-.02-5.43.12-7.98-.5-1.92-.47-3.94-1.71-5.27-3.19-2.26-2.52-1.58-5.8 1.14-7.7 4.23-2.96 8.88-4.35 14.1-4.6 5.99-.29 12.04-.85 17.87-2.16 5.25-1.18 8.79-5.19 9.78-10.47 1.44-7.67 6.69-11.77 12.94-15.73 3.27 7.13 6.53 13.98 9.52 20.94.96 2.24 2.19 2.93 4.53 2.85 4.92-.17 9.87.23 14.77-.11 12.79-.87 25.15 1.43 37.45 4.5 2.27.57 4.67.59 6.92 1.19 1.77.47 5.12-.88 4.4 3.25-.06.35 1.31 1.01 2.06 1.44 4.08 2.31 8.3 4.39 12.22 6.93 3.35 2.17 5.13 5.36 5.09 9.62-.04 4.02.63 8.04.69 12.06.05 3.07 1.52 5.14 4.25 5.61 4.01.7 8.14.96 12.22.98 3.99.02 7.84.04 11.11 3.07 5.01-4 10.61-3.63 16.34-2.51 5.9 1.15 11.81 2.02 17.07 5.47 3.3 2.17 3.88 5.6.48 7.76-5.37 3.42-11.27 5.66-17.63 5.82-7.82.2-15.66-.41-23.48-.16-9.08.29-18.04-.17-26.99-1.72-5.05-.88-9.59.45-13.61 4.04-3.83 3.41-8.06 6.41-12.28 9.35-5.38 3.75-10.06 8.14-13.79 13.55-2.87 4.17-7.21 5.83-11.95 6.64-2.09.36-4.25.36-6.33.76-3.65.72-7.69.71-9.73 4.81-.27.54-.97.97-1.57 1.2-3.76 1.51-4.9 4.77-5.35 8.29-.98 7.68-.74 15.06 4.25 21.75 6.87 9.23 13.34 18.75 19.94 28.18 6.56 9.38 10.44 19.67 10.73 31.25.06 2.43-.57 3.96-2.63 5.19-2.09 1.25-4 2.8-6.42 4.52 6.41 2.26 12.48 1.76 18.55 1.22 7.76-.69 15.44-2.59 23.34-.85 14.1 3.11 23.21 11.87 28.69 24.83 4.28 10.12 5.23 20.61 2.08 31.15-.91 3.05-3.08 5.89-5.21 8.38-2.03 2.37-6.07 1.45-8.05-1.31-5.1-7.12-8.12-15.13-10.14-23.56-1.97-8.2-4.27-16.22-10-22.79-3.06-3.5-6.05-6.19-11.41-4.96-4.65 1.06-9.56.93-14.32 1.58-1 .14-1.86 1.34-2.77 2.07-.08.06-.11.2-.12.31-2.45 15.59-11.68 27.96-20.07 40.51-4.53 6.78-11.18 12.16-17.01 18.04-3.13 3.16-6.56 6.02-9.85 9.01.25.5.5 1.01.74 1.51 5.41 0 10.83.21 16.23-.04 17.21-.78 34.12 2.26 51.11 3.99 24.17 2.47 48.39 3.31 72.66 3.98 13.48.37 26.91 2.41 40.34 3.93 1.64.18 4.46 1.87 4.4 2.7-.14 2.1-1.04 5.02-2.64 6.01-8.81 5.46-17.63 11.05-27 15.42-9.92 4.62-20.59 3-31 .92-.77-.15-1.44-.95-2.09-1.53-.57-.52-1.03-1.15-1.8-2.03-2.48 3.14-5.49 2.39-8.78 1.63-24.29-5.61-48.67-10.87-73.56-13.1-14.81-1.33-29.65-2.45-44.49-3.13-5.17-.24-10.41 1.35-15.64 1.71-12.6.86-25.22 1.49-37.83 2.19-5.54.31-11.19-.07-16.1 3.41-.9.63-2.34.58-3.55.67-8.03.63-16.06 1.24-24.09 1.78-3.66.25-4.62-1.38-3.56-4.91 1.46-4.87 5.14-7.33 9.33-9.39 6.73-3.31 13.94-4.58 21.35-5.22 14.14-1.22 28.28-2.54 42.41-3.94 11.44-1.14 12.46-7.42 8.42-15.67-4.31-8.83-8.2-17.88-11.96-26.97-2.55-6.16-4.72-12.5-6.79-18.85-1.75-5.38-3.57-7.33-9.06-6.91-6.78.51-13.52 1.6-20.24 2.72-1.08.18-2.31 1.71-2.78 2.9-5.7 14.3-16.63 24.2-28.24 33.44-3.36 2.67-7.45 4.44-11.28 6.47-1.11.58-2.53.6-4.31 1zm110.23-2.71c12.24-1.08 37.82-29.9 41.72-47.14-5.6-.46-11.17-1.59-16.64-1.23-11.44.76-22.84 2.24-34.25 3.55-3.89.45-4.91 2.37-3.65 6.2 2.35 7.09 4.72 14.18 7.08 21.27 1.92 5.81 3.84 11.62 5.74 17.35zm70.76-225.58c1.68-9.52-3.2-17.41-13.87-19.59-11.88-2.44-24.07-3.36-36.12-4.98-2.1-.28-2.95.76-3.59 2.55-2.83 7.86-1.57 15.59.35 23.32 17.85 1.97 35.42.29 53.23-1.3zm-55.06 31.83c.17.05.33.09.5.14.06 1 .07 2.01.18 3.01 1.06 10.04 3.22 12.2 13.3 10.35 10.07-1.85 17.61-8.35 24.8-15.11 1.48-1.39 2.62-3.31 3.46-5.18 1.23-2.75.07-4.42-3-4.63-2.11-.15-4.24.06-6.35-.09-8.91-.64-17.8-1.42-26.72-1.93-1.06-.06-2.87.97-3.17 1.89-1.23 3.76-2.03 7.68-3 11.55zm46.84-17.48c1.72-1.21 3.8-2.16 2.32-4.65-.24-.4-2.03-.5-2.39-.09-1.2 1.36-3.22 2.99.07 4.74z"/><path d="m249.82 213.17c-1.12-.44-3.27-1.02-5.17-2.07-6.83-3.78-13.39-8.08-20.39-11.49-8.98-4.37-12.77-11.87-12.8-21.05-.01-3 3.61-6.03 5.69-8.97.19-.26 1.33-.06 1.9.21 2 .95 4.18 1.72 5.86 3.09 8.4 6.84 16.67 13.85 24.97 20.81 3.56 2.98 6.96 6.23 7.77 11 1.08 6.33.48 7.63-7.83 8.47z"/><path d="m64.4 221.62c.52-7.35 3.01-12.94 9.47-16.53 8.78-4.88 17.33-10.18 25.97-15.3.29-.17.58-.37.89-.45 1.83-.46 6.25 2.36 7.87 4.98 2.02 3.29 2.41 7.58.85 9.38-4.69 5.4-10.03 9.7-17.28 11.35-8.48 1.93-16.87 4.25-25.3 6.38-.72.17-1.51.12-2.47.19z"/></g><path d="m361.2 9.6.8-1c.9.7 1.9 1.4 2.9 2.3l-.9 1.1c-1-1-2-1.8-2.8-2.4zm.5 10.6c.9-2.1 1.6-4.3 2.3-6.7.4.2.8.4 1.3.6-.7 2.1-1.5 4.3-2.2 6.6zm.4-15.2.9-.9c1 .8 2 1.6 2.8 2.4l-1 1c-.9-.9-1.8-1.7-2.7-2.5zm12.5-1.2h1.2v1.4h2.7v1.1h-2.7v2.7h-1.2v-.6h-1.8v1.3h4.9v3.8h-1.2v-.5h-3.7c0 .4-.1.9-.1 1.2h5.1v1h-5.2c0 .5-.1.9-.2 1.2h6v1h-5.2c1.1 1.3 2.9 2 5.5 2.2-.4.4-.7.8-.9 1.3-2.9-.5-4.8-1.6-5.7-3.5h-.1c-.8 1.7-2.7 2.9-5.9 3.6-.2-.4-.6-.8-.9-1.1 2.8-.6 4.6-1.4 5.4-2.5h-4.8v-1h5.3c.1-.3.2-.7.2-1.2h-4.9v-1h5c0-.4 0-.8.1-1.2h-3.5v.5h-1.2v-3.8h4.9v-1.3h-1.8v.5h-1.2v-2.7h-2.7v-1h2.6v-1.4h1.2v1.4h4.7v-1.4zm-6.6 8.3h3.6c0-.4 0-.9 0-1.4h-3.6zm1.9-4.6h4.7v-1.3h-4.7zm6.6 3.2h-3.7v1.4h3.7z" fill="#fbfcfa"/><path d="m385.3 3.8h1.3v2.2h2.8v-2.2h1.3v2.2h4.1v9.1h1.7v1.3h-16.9v-1.3h1.7v-9.1h4.1v-2.2zm.4 13.1.7 1.2c-1.8.9-3.8 1.9-6 2.9-.2-.4-.5-.8-.8-1.3 2.3-1 4.3-1.9 6.1-2.8zm-3.1-6.4h2.8v-3.2h-2.8zm0 4.6h2.8v-3.3h-2.8zm4-4.6h2.8v-3.2h-2.8zm0 4.6h2.8v-3.3h-2.8zm3.7 1.9c2.1.9 4.1 1.8 6.1 2.7l-.7 1.3c-2.2-1.1-4.2-2-6.1-2.9zm3.2-9.7h-2.8v3.2h2.8zm-2.8 7.8h2.8v-3.3h-2.8z" fill="#fbfcfa"/></svg>