<svg enable-background="new 0 0 400 400" viewBox="0 0 400 400" xmlns="http://www.w3.org/2000/svg"><path d="m31.4 314.3c1.1-7.5 2.1-14.4 3.3-21.2.1-.8 1.2-1.6 2.1-2.1 8.3-4.8 17-6.5 26.8-5.3 9 1 18.1.3 27.2.1 3.5-.1 7-.6 10.4-1.1 1.5-.2 3.2-.7 4.4-1.6 3.9-2.8 3.8-7.5-.2-10.2-.9-.6-1.7-1.2-2.5-1.8 0-.4-.2-.6-.1-.8 5.7-8.2 2.8-17.1 2.3-25.8-.2-4.1-1.6-7-5.3-8.9-.7-.4-1.3-1.1-2-1.5-7-3.6-10.2-10.2-13.1-16.9-2.2-5-2.1-10.6.5-15.4 4.1-7.7 5.7-15.7 5.6-24.4-.1-5.3 2.1-10.8 1.7-16-.6-7.4-2.1-14.9-4.4-21.9-1.1-3.3-4.8-6.2-8.1-8-8.6-4.8-11.3-12.7-12.3-21.6-.1-.8.6-2 1.3-2.5 4.2-3.2 8.9-4.8 14.3-3.6 5 1.2 9.7.4 14.6-1.2 18-6 36.2-11.1 55.2-12.8 3.7-.3 7.5 1.2 11.2 1.2 3.4 0 6.8-.7 10.2-1.3 1.4-.3 2.8-1 4.1-1.6 5.9-2.3 11.7-2.9 18.1-.8 15.5 5.2 31.7 7.1 47.9 9.3 7.8 1.1 15.5 2.1 23.2 3.4 7.2 1.2 13.3 4.8 18.4 10 3.7 3.8 3.7 6.6.5 10.7-2.8 3.6-3.5 7.4-2.4 11.9.6 2.7.6 5.9-.2 8.6-.9 3.2-3.4 4.8-7.2 5.1-13.2.9-26.3 2.5-39.5 3.3-7.9.5-15.9.2-23.8.3-.8 0-1.7.1-2.8.1 0 5.7-.1 11.3.1 16.9 0 .7 1.2 1.6 2 2 9 4.3 18.3 5.2 28.1 2.8 8-1.9 16-3.6 24.1-5.1 2.6-.5 5.6-.3 8.2.4 1.7.5 4.1 2.2 4.4 3.7.5 2.4-.4 5-3.3 6.4-12.9 6.4-26.4 7.6-40.5 5.7-8.5-1.1-17.1-1.6-25.6-2.1-1.3-.1-3.1.8-4.1 1.9-2.7 2.9-5.4 3.2-9 1.8-7.1-2.9-14.6-3.2-22.2-1.9-2.1.4-4.3 1.1-6.3 2.1-2.7 1.3-4.5 3.5-4.2 6.8v1c-.6 7.1-.6 7.2 6.4 8.8 10.8 2.5 21.8 2.6 32.8 1.8 15.5-1.1 31-2.7 46.5-3.7 4.9-.3 9.9.4 14.8.8 1.3.1 2.5.9 3.9 1.4-1.5 5.1-3 9-8.2 11.7-7.9 4.1-16.2 4.9-24.6 4.6-12.8-.5-25.5-1.6-38.2-3.1-13.1-1.5-26.1-1.6-39.3-.9-6.4.3-12.9.1-19.3-.4-7.9-.6-13.3 2.3-16.7 10.6 6.4 1.2 12.7 2.8 19 3.5 12 1.3 24 2.2 36 3.1 1.7.1 3.5-1 5.2-1.5 2.4-.7 4.9-2 7.2-1.7 17 2.3 34.1.7 51-.1 7.7-.4 15.4-2.7 22.8-5.1 6.6-2.2 11.7-1.3 16.9 3.3 2.9 2.5 4.4 4.6 4.3 8.6-.3 11.3-.2 22.7-.1 34 0 2.3-.6 3.7-2.5 5-2.3 1.5-4.4 3.3-6.7 5.9 3.9.9 7.7 2.5 11.6 2.6 7.8.2 15.6-.2 23.4-.8 14-1.1 28-2.6 42-3.8 1.6-.1 3.2 0 4.7.3 5.3 1.1 6.9 3.6 6 8.9-1.1 5.9-1.1 6.1-6.9 6.4-4.5.3-8.4 1.6-12.4 3.9-3 1.8-7.3 1.7-11 2.2-10.4 1.3-20.8 2.9-31.2 3.6-5.7.4-11.6-.6-17.3-1.1-6.1-.6-12.2-1.4-18.3-2.3-1.9-.3-3.7-1.3-5.5-1.8-1.5-.4-3.1-1.2-4.5-1-8.6 1.4-16.8-.8-25.2-1.6-10.8-1-21.7-2-32.6-1.9-22.8.2-45.7 1-68.5 2-23 1-45.7 4-68.3 8.4-5.6 1.1-10.8 4.2-16.2 6.4-3.8 1.4-7.6 3-12.1 4.9zm83.8-78.3c1.6 4.2 2.8 8.3 4.5 12.1 2.7 5.9 2.2 11.7.8 17.7-.5 1.9-1.4 3.9-1.4 5.8 0 2.7.6 5.4 1.2 8 .4 1.6 1.5 2.2 3.3 2.1 6.9-.4 13.8-1.2 20.6-.5 8.3.9 13.3-2.6 16.6-9.6.3-.7 1-1.6.8-2.3-1.5-5.7-1.6-12.1-7.8-15.5-1.2-.6-2.2-2.3-2.6-3.6-.6-2.2-.5-4.6-.7-6.9-.3-4.4-1-5.4-5.2-6.7-1.4-.4-2.9-.4-4.4-.7-4-.8-7.9-1.7-11.9-2.6-.6-.1-1.3-.5-1.8-.4-3.9.9-7.8 2-12 3.1zm108.9 31.3c.3 1.8.4 3 .6 4.3.6 3 1.8 5 5.4 5.5 8.4 1.1 16.7 2.6 25 4.2 1.9.4 2.6-.3 3.4-1.8 3.6-7.1 7.3-14.1 10.8-21.2 5.1-10.2-1.4-22.6-12.7-22.8-9.1-.2-17.7 3.4-25.3 8.7-1.9 1.3-2.9 3-3.2 5.4-.5 3.7-1.6 7.4-2.5 11.1-.5 2.4-1 4.7-1.5 6.6zm-12.4-133.4h3.6c10-.5 20.1-1.5 30.1-1.3 7.1.2 11.8-2 15.4-8.2 1.6-2.8 2-5.1.3-7.5-1.5-2-3.2-4.2-5.4-5.1-3.1-1.3-6.7-2-10.1-2.2-10.4-.5-20.9-.6-31.3-.8-2.5-.1-7 4.2-6.5 6.4 1.2 6.2 2.6 12.4 3.9 18.7zm-2.1 133.9c3.4-2.9 3.5-2.9 2.8-7.3-.4-2.8-.9-5.7-2.1-8.2-.7-1.7-2.4-3.6-4-4.2-8-2.8-15.9-5.8-24.9-3.3-8.1 2.3-8.3 1.8-8 10.3.2 5.7.1 11.5 3 16.7.8 1.3 2.2 2.9 3.5 3.2 6.4 1.4 12.8 2.9 19.3 3.2 3.2.1 6.9-1.8 9.8-3.7 3.2-2.1 3-3.5.6-6.7zm-99.8-157c2.8 9.9 5.5 19.6 8.2 29.2.2.7 1 1.6 1.5 1.6 6.8.2 13.8 1.1 20-3 .9-.6 2-1.6 2.1-2.5 1.4-8.2.9-16.3-3.5-23.6-2.3-3.8-6.1-6.3-10.6-5.7-5.9.9-11.7 2.6-17.7 4zm61 26.5c3.1 0 6.1.1 9.2 0 .7 0 2-.4 2.1-.8.6-2.8 1.4-5.8 1.1-8.6-.3-3.7-1.6-7.3-2.4-11s-1.7-7.5-6-8.5c-4.6-1.1-9.3-1.8-14-2.6-2.3-.4-7.3 2.5-7.3 4.2.3 8.6.9 17.1 4.8 25 .8 1.7 1.8 2.6 3.9 2.4 2.9-.3 5.8-.1 8.6-.1zm-36.7 44.7c-2.7.3-6.9.8-11 1.5-1 .2-2.7 1.4-2.7 2 .3 4.1-2.1 7-4.4 9.8-1.6 1.9-2.1 3.6-.7 5.6.8 1.2 1.9 2.5 3.2 3 3.1 1.1 6.2 2 9.4 2.5 8.4 1.6 16.6 1.5 23.8-4.3.7-.6 1.6-1.7 1.5-2.4-1.9-14.2-3.9-17.5-19.1-17.7zm26.5-20.6c0 1.5-.2 3 0 4.4.8 3.9 2.3 8.7 6.1 9.2 7.4 1 15 .5 21.8-3.6 2.3-1.4 3.6-3.1 3.2-5.9-.3-2.6-.3-5.3-.6-7.9-.9-6.9-5.7-10.4-12.7-9.4-2.7.4-5.4.9-8.1 1.4-9.6 1.9-9.6 1.9-9.7 11.8zm-41.4-6.1c0 3.1-.1 6 0 8.8.2 8.7 1.2 9.8 8.6 10.6 7 .7 14 1.1 19.7-4.2.8-.7 1.7-2.2 1.5-3.1-1-3.8-1.9-7.8-3.6-11.3-1.4-2.8-4.3-5.1-7.7-4.6-6.1.9-12.1 2.4-18.5 3.8z"/></svg>