<svg enable-background="new 0 0 400 400" viewBox="0 0 400 400" xmlns="http://www.w3.org/2000/svg"><path d="m293.2 362.4c-1.3 2.5-4.2 2.8-7.8 2-2.5-.5-5.4.2-8 .2-2.4 0-4.9.1-7.3-.3-2-.3-3.8-1.2-5.7-1.8-4.7-1.5-9.2-3-13-6.6-2.2-2.2-5.7-3.1-8.6-4.5-3.6-1.7-7.3-3.3-10.9-5.1-.8-.4-2-.9-2.2-1.7-1.4-3.7-4.9-4.2-7.9-5.5-3.5-1.6-6.9-3.7-9.8-6.1-3.8-3.2-7.7-5.7-12.7-6.8-1.9-.4-3.8-1.7-5.4-3-2.8-2.3-5.3-4.9-8.1-7.5-2.2 2.6-4.7 2.9-7.8 1.7-4.9-1.8-8.9-4.1-8.3-10.2.3-2.9.7-5.9 1.3-8.8.2-.8.8-1.7 1.5-2.3 4.4-4.4 9.7-7.1 15.7-8.6.9-.2 2.4.3 3.1 1 2.7 2.6 5.9 2.6 8.6.1 2.5-2.3 4.2-4.7 3-8.3-.2-.6 0-1.3-.2-1.9-1.9-7.4-.3-14.1 4.3-20.2.6-.8.8-2.2.8-3.3.1-2.5-.1-5.1.1-7.6.2-2.8-.5-4.6-3-6.2-3.6-2.3-5.3-6.1-5.4-10.3-.1-5.3.5-10.6.3-15.9-.2-5.6-.8-11.1-1.7-16.6-.4-2.7-2.4-4.4-5.5-5-4.2-.8-6.8-3.5-6.7-7.6.1-4.5-2.9-6.8-5.2-10-3.7-5.2-7.9-6.5-13.6-3.5-3.3 1.7-6.6 1-10-.9-3.5-2-7.3-3.6-11.1-5-2.3-.9-3.9.5-4.8 2.8-2.7 6.7-2.9 13.8-3 20.9-.1 5.1-.6 10.3-1.7 15.4-.9 4.4-3.6 8.1-7.4 11.1-2.2-3.4-4.3-6.6-6.3-10-.3-.6-.5-1.5-.3-2.1 1.9-7.9-.1-15.6-1-23.3-.5-4.2-.7-8.2 1.6-11.9 2.1-3.4 1.9-7 .6-10.7-1-2.9-2.1-5.8-3.2-8.6-.6-1.5-1.8-2-3.3-1-2.6 1.6-5.4 2.9-7.7 4.8-6.4 5.4-13.9 5.5-21.8 5.1-.5-4.3-.7-8 3.7-10.8 4.3-2.8 8-6.5 12.1-9.8 2.7-2.2 5-4.6 6.7-7.8.8-1.6 3.7-2.2 6.1-3.6 0-2.9 0-6.5 0-10.1 0-.4 0-1.1-.2-1.2-3.5-1.2-7.1-3.7-10.4-3.3-9.4 1.1-18.5 1.9-26.8-3.9-1.8-1.3-3.6-2.6-5.6-3.6-2.9-1.4-4-3.6-3.3-6.6.3-1.3 1.2-2.4 1.8-3.6 0-.1.2-.1.2-.2 5.8-5.6 12.7-7.8 20.8-6.8 3.5.5 7.2-.1 10.8.1 3.1.2 6.2 1.2 9.3 1.3 5 .3 10.1.3 15.2.2 12.8-.4 25.6-.9 38.2 2.1 2.1.5 3.2 1.2 3.6 3.5 1.3 6.5 1.6 6.8-4.6 9.5-4.3 1.8-9.1 2.5-13.6 3.8-2 .6-4.1 1-6 1.9-7 3.2-9.1 8.1-6.4 15.3.2.6.9 1.1 1.5 1.5 2.1 1.6 4.6 2.6 4.7 5.9 0 .5 1.1 1.1 1.8 1.6.9.7 2.3 1.2 2.6 2.1 2.2 6.7 8.2 9 13.6 11.9 2.6 1.4 5.9 2.2 5.8 6.2 0 .6 1.3 1.3 1.9 2 2.3 2.3 4.5 4.6 6.9 6.8.7.6 2 .9 3 .9 6.9-.5 13.5-2.2 19.5-5.9 3.3-2.1 6.8-2.6 10.6-1.9 1.9.4 3.9.6 5-1.6s.1-3.6-1.4-5.3c-4-4.7-7.2-10-11.7-14.1-3.3-3-5-6.7-7-10.3-1-1.8-1.1-4.2-1.6-6.3-.2-1-.1-2.4-.7-3-3.3-3.2-3.9-7.4-4.9-11.5-.9-3.8-2.5-7.1-4.9-10.1-1.1-1.4-1.9-3.5-1.8-5.1.8-7.8-1.9-15.1-3.5-22.4-1.3-5.8-1.1-10.9 5.1-13.9.7-.4 1.3-1 2-1.6 6.7-5.5 14.5-4.7 19.8 2.2 2.2 2.8 4 6 5.9 9 3.4 5.4 9.4 5.4 12.8 0 1.4-2.2 2.9-4.5 4.4-6.6 3.5-4.7 11.7-6.4 16.8-3.4.6.3 1.1 1.1 1.3 1.7 1 3.3 3.5 5.4 6.2 7.4 6.5 4.8 12.9 9.7 21.2 10.9 1.3.2 2.6.5 3.8.3 1.1-.2 2.7-1 3-1.9 1.5-4.8 5.3-5.9 9.6-7.1 9.1-2.6 15.2 2 20.1 8.4 1.5 1.9 1.7 5.9.9 8.4-3.4 10.7-6.9 21.6-11.5 31.8-4.6 10.1-10.5 19.5-16 29.2-2.2 3.9-4.7 7.5-6.8 11.4-2.2 4.3-2.8 7.5 2.3 10.7 6.7 4.3 14.2 5.2 21.7 6.3 4.8.7 9.5 1.9 14.1 3.4 4.3 1.4 5 3.4 3.8 7.8-1.6 6.3-3.2 7.8-9.8 7.5-4.9-.3-9.8-1.6-14.6-2.4-3.6-.6-7.3-1.1-11-1.5-2-.2-3.2.7-3.6 3-1.9 11.4-4.5 22.7-10.9 32.5-2.9 4.5-6.4 8.6-9.7 12.9-1 1.3-2.4 2.4-3.4 3.8-2.7 3.7-1.9 7.4 2 9.7 4.9 3 6.6 6.7 5.7 12.2-.7 4.6-2.9 8.5-4.8 12.7-3.2 7-8.6 11.4-13.9 16.1-3.9 3.5-8.5 6.2-12.9 9.1-2.8 1.9-5 4.1-6.1 7.4-.9 2.7-.5 4.7 2.3 5.5 5.4 1.6 10.7 3.5 16.2 4.3 7.9 1.1 15.3 2.9 21.4 8.4 1.4 1.3 4.1 1.5 6.2 1.8 5.1.6 10.3 1 15.5 1.4.7.1 1.6.1 2.1.5 4.9 3.8 10.7 3.4 16.3 4 6.5.7 12.1 3.2 15.9 8.6 1.6 2.2 2.6 5.1 3 7.8.7 4.8-1.1 7.4-5.6 9.2-6.3 2.4-12.6 4.9-19 7-2.1.6-4.5 0-7.3-.1zm-90.8-174.9c6.2.4 12.5.9 18.8 1.1 11.5.2 23 1.7 34.1-2.9 4.2-1.8 8.7-2.5 13.3-1.5 1.4.3 3-.8 5.2-1.5-9.6-6.7-19.4-10.4-30.1-11.5-5.5-.6-11.5-1.7-16.6-.3-7.6 2-14.6 6-21.8 9.2-3.3 1.4-3.9 3.9-2.9 7.4zm47.9 60.4c-.6-3.9-2.2-5.5-6-5.1-9 1-17.5 3.8-25.3 8.5-.9.5-1.6 2.1-1.7 3.3-.4 7-.6 13.9-.8 20.9-.1 2.7 2.8 7 5 6.8 3.1-.3 6.1-.6 8.7-3.1 4.7-4.4 9.8-8.3 14.6-12.5.5-.4.4-1.6.5-2.4.2-1.4 0-2.8.5-4.1 1.4-4.1 3-8.2 4.5-12.3zm28.9-173.4c-3.1 6.4-9.1 8.4-15.5 10.1-2.4.7-4.8 1.7-7.1 2.7-.7.3-1.6.8-2 1.4-2.2 4-.3 11.5 3.6 14 5 3.2 10.1 6.1 15.2 9.2 2.7 1.6 5.4 1.5 7-1.1 1.8-3 3.5-6.4 4-9.8 1.3-9.1 2.6-18.6-5.2-26.5zm-55.3 132.3c0-.4-.1-.7-.1-1.1-1.2.2-2.8 0-3.6.7-3.6 3.2-6.8 6.9-5.6 12 .6 2.4 2.2 5.5 4.2 6.5 5 2.5 10.5 3.2 16.3 1.5 9-2.7 16.8-7.4 23.5-13.9.6-.6.8-2.4.4-3.2-2-3.9-5.7-4.2-9.6-4-8.5.6-17 1.1-25.5 1.5zm11.9-115c-.5-.3-1-.8-1.6-1.2-.9-.5-1.8-1.1-2.8-1.5-8.1-3.5-16.8-4.2-25.4-4.6-6.8-.3-12.5 7.1-10.7 13.8.2.8.5 1.9 1.1 2.2 2.8 1.2 5.7 3.1 8.5 3 8.1-.3 16.2-1.3 24.3-2.3 1-.1 2.2-1.1 2.8-2 1.5-2.3 2.5-4.8 3.8-7.4zm19.3 47.6.6-.6c.7-.1 1.5 0 2.2-.3 5.1-1.7 8.3-5.7 11-9.9 1.4-2.2-.1-4.3-2.8-5.2-4.5-1.5-8.3-.6-11.8 2.7-2.4 2.3-4.1 7-2.5 10 .6 1.3 2.2 2.2 3.3 3.3zm-39.3-16.2c-1 2.5-.9 4.2.8 6 3.2 3.4 11.7 3.6 15.9.3-2.5-5.3-4.7-7.2-8.3-5.4-3.3 1.8-5.5.3-8.4-.9z"/><path d="m76.7 52.1c-.6-2.3.8-4 2.7-5.8 3.8-3.2 7.2-6.8 11-10 1-.8 2.7-1.3 3.9-1.2 10.9 1 21.9 2.2 32.8 3.4.2 0 .4 0 .6.1 9.7 3.1 19.5 6 29.1 9.3 3.6 1.2 7 3 10.4 4.7 1.3.6 2.5 1.7 3.2 2.8 1.4 2.1 1.4 3.9-1.3 5.4-6.4 3.7-12.9 7.5-20.4 8.1-3.8.3-7.7-.5-11.6-.7-3.3-.1-6.7-.2-10 0-14.5 1.2-28.7-1.1-42.5-5.3-4.3-1.3-7.9-6.2-7.9-10.8z"/></svg>