<svg enable-background="new 0 0 400 400" viewBox="0 0 400 400" xmlns="http://www.w3.org/2000/svg"><path d="m157.6 280.6c-2.8-6.8-2.5-13.5-1.8-20.1.4-3.7.8-7.3 3.8-10 .9-.9 1.4-2.3 1.9-3.6 3.2-8.5 6.2-17 9.5-25.5 7.9-20.6 11.8-41.9 11.7-63.9-.1-10.9-1.4-21.7-2.2-32.6-.1-1.4-.2-2.7-.3-4.1 4.4-3.5 6.2 1.8 9.6 2.8 11.3-10.8 26.6-11.4 40.9-14.5 6.2-1.3 8.9-4.3 9.6-10 .9-7.1 2.5-14.3 2.4-21.4-.1-5.2-2.2-10.4-3.8-15.5-1-3.3-1.2-6.1 1-8.9 3.3-4.2 4.1-4.4 8.8-2 2.1-2.1 4-2 6.5.4 7.1 6.9 10.8 15.1 9.1 25.1-1.2 6.7-2.4 13.3-3.6 20-.2 1.3-.5 2.7-.5 4.1 0 4.2 1.3 6.2 5.4 6.8 3.7.6 7.6.7 11.3.6 16.3-.6 31.1 4.3 44.9 12.3 9.2 5.3 13.5 14 14.5 24.4.8 9.1-.4 17.7-3.4 26.4-3.8 11-7.8 21.5-15.6 30.4-3.3 3.7-5.7 8.1-8.7 12.1-5.4 7.1-12.8 9.7-21.5 8.7-.6-5.2-.3-5.8 4.1-7.1-1.4-3.5.9-6.1 2.5-8.8 4.1-6.9 8.1-13.9 12.1-20.8.6-1 1-2.1 1.3-3.2 2.5-8.6 5-17.2 7.3-25.9.4-1.7.5-3.8-.1-5.4-5-13.6-15.4-20.4-29.3-22.9-13.2-2.4-26.4-1.6-39.5-.3-7.6.7-15.2 1.3-22.6 3-8.5 2-16.7 5.1-25 7.8-.7.2-1.4 1.3-1.6 2.1-.3 1.1-.4 2.4-.2 3.5 2.6 10 .2 20-.5 30-.6 8.3-1.4 16.6-2.2 25 2.3 1.3 4 1.1 5.9-.8 4.6-4.6 9.2-9.1 14.1-13.3 5.5-4.8 10.1-10.2 13.5-16.6 2.1-3.8 7.9-3.9 10.6-.3 6.6 9 10.1 19.2 12.5 29.9 3 13.6 6.2 27.2 9.3 40.8.2.7.5 1.4.8 2.3 1.6-2 2.9-3.9 4.5-5.5 3.9-4.2 11.7-4.1 15.9 0 2.2 2.1 4.5 4.3 7.2 5.6 17 7.7 32.3 18.5 48.3 27.9 5.6 3.3 10.9 7 16.6 10 6.8 3.6 9.1 9.6 9.7 16.7.1 1.3 0 2.5.1 3.8.1 4.3-.8 7.9-5.8 9.1-1.7.4-3.2 1.6-4.6 2.7-3.4 2.7-7 2.8-10.8 1.4-6.6-2.5-12.8-5.7-18.2-10.5-9.1-8.2-18.8-15.7-28.1-23.8-3.2-2.8-5.9-6.3-8.7-9.6-1.1-1.4-.9-3.3-3-4.6-5-3.1-9.5-3.3-14.6-.4-4.7 2.6-9.9 4.3-14.8 6.5-1 .5-2 1.5-2.5 2.5-3.7 8.8-7.5 17.5-10.7 26.4-2.2 6.2-3.2 12.9-5.4 19.1-1.9 5.3-4.4 10.5-7.2 15.4-2.5 4.5-5.5 8.8-8.7 12.9-1.7 2.1-4.3 3.6-6.5 5.2-.5.3-1.9.1-2.1-.3-.3-.6-.1-1.6 0-2.4.1-.5.6-.9.7-1.4 1.2-11.3 7.8-20.7 10.9-31.3 3.1-10.7 6.6-21.2 7.4-32.4 0-.6.1-1.2.2-2.5-4.4 2-8.6 2.5-12.3 5.4-4.3 3.3-9 6.3-14 8.5-2.6 1.2-6.1.5-9.2.7-1.7.1-3.5.1-5.2.6-2.3.7-4.5 1.7-6.7 2.6-1.7-3.6.5-5.3 3.2-6.9-1.2-.8-2.1-1.3-3.4-2.2 4.4-2 8.5-3.7 12.4-5.7 10.2-5 20.6-9.9 30.6-15.3 10.5-5.7 17.3-14.1 17.2-26.8 0-5.1.4-10.1.5-15.2 0-1.1-.7-2.3-1.1-3.4-1.4.5-3 .7-4.1 1.6-5.5 4.6-10.8 9.5-16.5 13.9-3.9 3-8.5 5.1-12.7 7.7-1.7 1-3.4 2.1-5.1 3.2s-2.8 3.1-5.5 2.4c-.6-.2-1.4 1.5-2.4 1.8-1.3.5-2.8.5-4.2.7-.1-2-1.1-5.4-.2-5.9 14.2-8.9 22.1-23.7 33.4-35.3 3-3 5.6-6.4 8.1-9.7 2.8-3.7 2.5-7.7.4-11.6-1.4-2.7-5-3.1-6.9-.6-8.3 10.3-18.7 17-31.9 18.9-2.8.4-4 1.6-4.9 4.3-4.8 14-7.6 28.6-14.4 41.9-3.5 6.9-7 13.8-12.6 19.3-1.3.9-3 2.1-4.8 3.6zm113.6-25c1.4 1.3 2.5 3.2 3.9 3.5 2.7.5 5.6.4 7.4-2.5-7-4.7-7.2-4.7-11.3-1z"/><path d="m37.9 108.4c-.9-7.6.4-14.4 5.8-19.5 13.5-12.7 27.9-24.5 45.3-31.7 8.7-3.6 18.1-5.8 27.1-8.8 7-2.3 12.3-.6 15.5 6.1 2.2 4.5 3.2 9.5 4.4 14.4.2.9-.7 2.6-1.6 3.2-4.6 3.2-9.4 6.1-14 9.3-1.4 1-2.7 2.4-3.4 3.9-2.9 6.2-5.6 12.5-8.1 18.9-2.6 6.6-2.2 13.7-2.5 20.7-.4 7.8-1.3 15.6-2.4 23.3-.5 3.1.6 4.4 3.1 4.4 2.3 0 5.3-.3 6.8-1.6 9.3-8.3 20.6-13.7 30.9-20.4 3.2-2.1 6.3-4.3 9.4-6.4 1-.6 2-1.3 3-1.7 2.1-.9 3.6-.8 4.4 2 1.6 5.8 3.8 11.4 5.5 17.2.3 1.1-.3 2.7-.9 3.8-.7 1.2-2 1.9-2.8 3-3.9 5-9.2 6.5-15.2 8.2-11.3 3.2-21 9.9-28.2 19.5-2.3 3-1.8 4.2 1.2 6.5 9.3 7.1 18.7 14.2 27.9 21.5 5.8 4.6 10.5 10.2 11.6 17.9.3 2.5 1.3 5.5-1.3 7.3-2.8 1.9-5.2-.4-7.1-1.9-11.6-9-23-18.3-34.6-27.3-3.4-2.6-7.2-4.6-11.1-7.1-3.7 7.5-4.1 14.5-4.1 21.7 0 7.5.1 15-.6 22.5-.4 4.7-3.2 9.3.1 14 .7 22.4 3.2 44.8-1.2 67.1-.7 3.5-1.9 6.9-3.4 10.3-4.5-5.4-6.5-11.4-6.7-17.9-.8-33.4-1.4-66.9-2.2-100.3 0-1.3-.4-3.3-1.3-3.7-1.9-.9-4.1-1.7-6 .5-1.6 1.8-3.7 3.2-5.4 4.9-7.4 7.2-15.7 13-24.8 17.9-2.8 1.5-4.8 4.6-7.4 6.7-2.2 1.9-4.6 3.5-6.7 5.1-4.8-4.6-2.8-8.1 1-11.4-.3-.3-.6-.5-1-.8-1.5.9-2.9 1.7-5.2 3.1 1.5-3 2.6-5.4 3.8-7.7 4-7.3 9.3-13.5 16.2-18.4 8.6-6.1 16.9-12.7 25.3-19.1 1.2-1 2.5-2 3.4-3.3 2.3-3.2 1.9-5-1.3-7.3-13.2-9.3-26.3-18.5-39.4-27.8-.7-.5-1.6-.9-1.9-1.6-1.1-1.9-2.4-3.8-2.8-5.9-.4-2-.5-4.8.6-6.1 1.5-1.9 4.4-4 6.5-3.9 7.2.4 14.3 1.7 21.4 2.9 1 .2 2 1 2.9 1.6 4 2.5 7.8 5.4 12 7.5 3.3 1.6 4.3.8 5.6-2.6 2.6-6.6 2.1-13.5 1.4-20.4-.7-6.7.1-13.1 3-19.2.3-.6.8-1.5.6-1.7-2.1-2.6-.6-5.2-.2-7.8.6-3.8-.7-5.2-4.5-5.1-3.2.1-5.9 1-8.7 3-4.1 2.9-8.8 4.9-13.4 7.1-7 3.3-14 6.4-21 9.7-1 .7-2 1.1-3.3 1.7zm54.7 43c-2.8 2.4-3.8 5.1-3.1 7.6.6 2.1 1.9 2.4 3.4.9 2.4-2.3 2.3-5.9-.3-8.5z"/><path d="m216.6 160.1c-1.7 2.9-4.7 4-8.1 2.5-.7-.3-1.3-1.1-1.6-1.7-1.2-3-2.2-6.1-3.5-9.8 5.4-1.4 10.6-3 15.9-4.1 10.4-2.1 20.9-.2 31.3.1 7.5.2 14.9.9 22.4 1.8 2.2.3 4.4 1.5 6.3 2.7 3.5 2.4 3.2 6.4-.3 8.8-4.3 2.8-9 2.4-13.5 1.5-15.1-3.2-30.2-2.8-45.4-1.1-1.1 0-2.3-.5-3.5-.7z"/></svg>