<svg enable-background="new 0 0 400 400" viewBox="0 0 400 400" xmlns="http://www.w3.org/2000/svg"><path d="m88.2 146.1c.2-3.5.3-7.1.7-10.6.5-4.5 1.1-9 2.2-13.4 2.3-9.4 4.3-19 7.6-28 1.9-5.2 5.8-9.8 9.2-14.3 2.7-3.6 7-5 11.4-5.7 11.4-1.6 22.9-2.6 34.2-4.9 7.2-1.4 14.1-4.2 20.9-7.1 4.2-1.8 5.8-7.3 4.2-13.2-1.2-4.5-.9-8.6 2.1-12.2.6-.8 2-1.6 2.9-1.5 7.1.6 10.9 4.9 10.5 12.1-.3 5.7.3 11.1 5.3 14.8 1.3 1 3.2 1.7 4.9 1.7 14.7-.4 29.4-.9 44 1.7h.3c10.1-1.6 19.1 2.4 28.3 5.3 4.7 1.5 8.7 3.7 12.8 6.7 5.7 4.2 10.8 8.1 12.7 15.1 5.3 2.9 3.3 8.1 3.9 12.4.1.8-.1 1.8-.5 2.4-2.6 3.6-2.9 7.8-3.7 11.9-1.2 5.8-3.2 11.5-5.5 17-1.5 3.5-4 6.6-6.3 9.8-.6.9-1.7 1.6-2.7 1.9-3.7 1-6.5 3-8.2 6.5-2 4-4.7 7.2-9.2 8.5-.4.1-1 .3-1.1.6-1.8 4-5.9 5.7-8.8 8.6-1.6 1.6-2.9 2.8-5.3 2.7-1.8-.1-3.6.1-5.3.6-1.3.3-3.3 1-3.5 2-.4 1.4 0 3.6.9 4.6 2 2 4.5 3.5 7 4.8 10.8 6 18 14.8 20.7 27 .6 2.6.3 4.8-1.5 7.1-2.8 3.4-5.5 7-7.9 10.7-2.6 4.1-6.2 6.7-10.3 9-3.8 2.2-7.2 5.3-10.8 8-.6.4-1.2.8-1.9 1.2-9.3 5.2-11.2 9.3-10.2 20 .3 3.1-1 6.3-1 9.4 0 2.2 1.1 4.4 1.5 6.7.2 1.2.5 2.5.1 3.6-1 3.1-.6 5.9.1 9 .7 2.8.7 5.8 1 8.8.1 1.2 0 2.4.4 3.5 3.5 10.5 3.4 21.6 5.5 32.3.4 2.2.2 4.4.4 6.6.7 6-3.2 10-6.2 14.4-1.3 1.8-4 1.4-5.8-.5-3.8-4.2-6.3-9-6.9-14.7-.6-5.6-1.1-11.2-1.5-16.8-.1-1.9.3-3.8.4-5.7.1-.8.4-2 0-2.5-2.5-3.2-1.4-6.9-1.6-10.4-.2-4.1-.2-8.3-.7-12.3-.6-4.8-.3-9.4.4-14.1 1.2-7.6 1.9-15.3 2.1-23 .3-11.2 1.1-22.4 4.1-33.3.3-1 .6-2.2.4-3.1-1.2-5.2.6-9.8 2.7-14.3 2.4-5 2.8-10.1 2.1-15.5-.6-4.5.9-8.5 2.9-12.4.5-1 1.2-2.2 1.1-3.2-.4-7.7-.2-15.3-2.8-22.8-1.7-5-1.8-10.6-2.1-16-.2-3-1.6-3.9-4.2-3.9-3 0-5.4.5-7.6 3.3-3.1 3.9-7 7.1-10.6 10.5-3.3 3-2.1 7.1 1.3 8.7 6.3 3.2 9.4 8.5 12.3 14.2 1.1 2.1 2.2 4.1 3.7 6.8-1.7.4-3.1 1.2-4.2.8-7.5-2.3-15.4-3.1-22-8.3-5.1-4-10.4-3.1-16 1.2-2.8 2.1-5.3 4.5-8.2 6.5-1.7 1.2-3.9 2.1-5.9 2.4-2.9.4-5.9.1-8.2 2.5-.5.5-1.6.5-2.4.4-6.9-1.2-13.7-2.6-20.5-3.6-2.6-.4-5.4-.6-7.8.2-4.6 1.6-8.8 3.7-12.2 7.5-4.3 4.9-9.2 9.4-15.5 11.8-1.4.6-2.9 1-4.4 1.4-1.4-5.2-1.5-5.4 3-7 2.2-.8 3-2.1 3.6-4.2 2-6.5 5.8-11.8 11.8-15.3 2.1-1.2 2.5-7 .4-9.2-1.4-1.4-2.9-2.8-4.4-4.2-2.3-2.2-3.6-4.9-3.6-8.5 4.7-.9 9-2.3 13.5 1.2 3.9 3 7 2.3 10.2-1.3 2.6-2.9 5.6-5.8 4.5-10.2-.3-1.2-1.2-2.7-2.2-3.3-3.4-2.1-7.1-3.7-10.6-5.7-1-.6-1.8-1.9-2.4-3-.7-1.2-1-2.5-1.6-3.7-1.9-3.8-1.1-6 3.1-6.4 3.3-.3 6.7.2 9.9 1 3.8.9 7.4 2.7 11.1 3.6 2.9.6 6.1.6 9 .3 2.6-.3 4.7-1.9 5.2-4.8s-.1-5.1-2.9-6.7c-3.2-1.8-6.3-3.9-9.4-5.9-3.5-2.2-5.5-5.4-6.5-9.9 3.2-.4 6.3-1.2 9.4-1.2 6 .1 12 .6 17.9 1.1 3.6.3 6.4-.6 8.5-3.7 1.6-2.3 3.1-5 5.3-6.6 5.6-4 12-2.2 18.2-1.6.8.1 2 2.6 1.7 3.8-.7 3.7-2.1 7.2-2.8 10.9-.3 1.5 0 3.8.9 4.9 4.5 5.1 9.1 10.1 14.1 14.6 2.6 2.3 6 4 9.3 4.9 2.2.6 5.1-.2 7.5-1 4.9-1.7 9.6-4.1 15-3.1.4.1 1 .2 1.2 0 5.1-3.9 11-1.7 16.6-2.1 3.7-.3 7.1.2 10.7 2.2 3.2 1.9 7.9 1.2 12 1.5.6 0 1.6-.7 1.9-1.4 1.5-3.3 3.4-6.6 4.1-10.2 1.3-7 .9-14.2-2.2-20.5-2-4-5.8-7.7-9.7-9.9-5.3-3-11.3-4.8-17.2-6.3-4.3-1-9-.8-13.5-.9-14.1-.3-28.1-.5-42.2-.6-2.2 0-4.4.5-6.6.7-5.8.6-11.6 1-17.3 1.7-9.5 1.1-19 2.4-28.6 3.6-6.1.8-12.2 1.2-18.2 2.3-6 1-9.9 4.7-12.7 10.2-3.2 6.2-7.1 11.9-10.9 17.8-1.9 3-3.3 5.7-.8 9.2 2.3 3.2-.8 6.1-2.4 8.1-4.1 4.9-8.9 9.2-13.7 13.5-1 .9-2.8 1-4.3 1.4-.4.4-.8.2-1.1 0zm144.4 77.9c.4 1.7.9 5.3 2.2 8.6 2.1 5.3 3 5.5 8.2 2.9 1.8-.9 3.5-1.9 5.1-3.2 6.4-5.4 11.5-11.7 15.5-19.1 2-3.7.2-9.3-3.7-10.4-5.1-1.4-10.3-2.4-15.5-2.6-3-.1-6.1 1.7-9.1 2.8-.5.2-.8 1.2-.9 1.8-.6 5.7-1.1 11.5-1.8 19.2zm-72.9-48.5c5.6.3 10.6-1.2 14.9-4.7 3.1-2.6 3-7.5-.6-9.5-4.1-2.2-8.5-3.6-12.6-5.8-4.4-2.3-8-1.6-12.3.5-4.9 2.3-7.4 6-9 10.7-.3 1 .2 3 .9 3.4 5.8 3 11.9 5.7 18.7 5.4zm86.4-23.9c-.3.1-.5.1-.8.2.8 1.6 1.8 3.1 2.4 4.8 1.5 4.6 5.2 5.4 9.3 5.3 1.8-.1 3.7-.7 5.4-1.5 5.6-2.6 8-7.4 8.9-13.3 1.3-8-.4-10.6-8.3-11.3-1.1-.1-2.3.2-3.3.6-2.9 1.3-5.7 2.9-8.6 4.1-2.6 1-3.3 2.8-3.5 5.3-.1 2-.9 3.9-1.5 5.8zm-79.1-13.6c5.3 5 11.4 7.9 18.6 8.4 5.8.4 10.8-3.2 11.8-8.7 1-5.4-1.8-9.3-7.8-11.2-8.2-2.4-17.6 2.2-22.6 11.5z"/><path d="m171.8 210c.9-2.9 3.4-2.9 6.1-3.5 4.5-.9 8.9-2.5 13.3-3.8 2.5-.8 4.9-2 7.5-2.5 1.8-.4 3.9-.4 5.7.1 3.5 1.1 4.1 3.5 1.5 6.2-5.9 6.2-8.3 13.5-8.2 21.9 0 1.3-.8 2.8-1.6 3.8-3.3 3.9-6.8 7.4-9.1 12.3-5.6 11.7-21.2 18.1-33.7 14.8-1.4-.4-2.7-1.5-3.8-2.4-6.7-5.9-7.1-14.2-8.5-22.2-.8-4.6-2.1-9.1-2.3-13.7-.1-4.6.8-9.2 1.6-13.7.2-1 2.3-1.6 3.4-2.3 3.4-2.2 6.2-2.3 9.3 1 2.6 2.8 6.1 3.7 10.1 3.4 2.8-.4 5.7.3 8.7.6zm-21 20.6c3.5 4.5 6 9.5 12.1 10.8 3 .6 5.6.5 7.9-1.6 1.5-1.4 3-3.3 4.7-3.6 5.4-1.1 7-5.7 9.5-9.4 1.7-2.5.3-6.1-2.5-7.1-7.4-2.6-14.5-.4-21.1 2.6-3.7 1.7-6.8 5.3-10.6 8.3z"/></svg>