<svg enable-background="new 0 0 400 400" viewBox="0 0 400 400" xmlns="http://www.w3.org/2000/svg"><path d="m248.6 239.3c-8.8-.5-16.8-1-24.8-1.5-.5 0-1.1.1-1.6-.1-5.8-1.6-9.4.5-11 6.3-.1.4-.4.7-.6 1.1-3.3 8.4-8.5 15.1-16.6 19.6-1.3.7-2.3 2.1-3.3 3.3-1.2 1.5-1.9 3.4-3.3 4.6-1.5 1.4-3.6 2.2-5.4 3.2-.6-1.6-1.8-3.2-1.7-4.7.2-4.9.5-9.9 1.4-14.7.7-3.7 2.2-7.3 3.7-10.8 1.5-3.6 3.4-7 5.3-10.3 8.9-15.5 13.8-32.2 14.7-50 0-.3.1-.7 0-.9-.5-1.4-.9-2.9-1.4-4.3-1.5.6-3.2 1-4.3 2-3.6 3.3-8 4.5-12.7 5.1-9.9 1.3-19.8 1.6-29.4-2.4-1-.4-2-.6-3.1-.8-4-.6-5.3.4-5.6 4.4-.4 6.1-.8 12.3-1.3 18.4-.2 2 .4 2.9 2.5 3 6.3.3 12.7.8 19 1.3 1.4.1 2.8.2 4.1.4 4.1.9 6.1 3 6.5 6.7.5 5.1-1.5 10.1-5 11.1-2.3.7-5 .2-7.6.1-8.9-.4-17.7-1-26.6-1.1-2.8 0-5.5 1.3-8.3 1.5-8.2.6-16.5 1.1-24.7 1.2-4.9.1-9.1 1.6-13.1 4.1s-8.3 3.6-13.2 2.5c0-2.6-.2-5.2.1-7.7.1-1 1.1-2.1 2-2.7 10-6.2 20.9-10 32.4-12.3 3-.6 5.9-1.8 8.9-2.3 2.9-.5 4.8-2.2 5.3-4.7 1.1-5.4 1.8-11 2.5-16.5.3-2.5-1.4-3.9-3.6-4.5-8.8-2.5-17.6-5.2-26.5-7.4-3.8-1-7.9-.9-11.9-1.4-2.2-.3-4.5-.4-6.6-1-3.5-1-4-3.3-2.6-6.6.7-1.7-.1-4-.2-6.3 5.2-3 11.2-3.2 17-2.3 8 1.3 15.9 3.4 23.9 4.7 6.6 1 13.4 2 20 1.8 13.4-.5 26.6 0 39.8 2.3 3.5.6 7.1 0 10.7 0 2.5 0 5-.1 7.5.3 1.9.3 2.7-.2 3.2-2 1.2-4.2 2.5-8.5 4-12.6 1.1-3.1 3.1-4.7 6.8-3.2 2.1.9 4.6.9 6.8 1.4 4 1 6.7 3.9 7.1 7.9.2 2.1 0 4.2.1 6.3.1 2.5 0 5.1.7 7.5.4 1.3 2.4 2.8 3.8 2.9 13.9 1.1 27.8 1.9 41.8 2.6 1.3.1 2.9-.7 4.1-1.5 2.2-1.5 3.8-.9 4.8 1.5 2.9 7.5.5 14.2-3.3 20.5-2.6 4.2-4.6 8.5-5.1 13.5-.5 5.1-2 10-5.6 13.9-4.9 5.3-7.1 11.7-7.7 18.7-.8 8.9-1.7 17.9-1.8 26.8 0 3.6 1.7 7.3 3.1 10.8 4.9 12 12.9 21.6 23.2 29.5 13.3 10.2 26.4 20.8 39.5 31.4 1.7 1.3 3.1 3.2 4.1 5.1 1.2 2.2.7 4.3-1 6.4-7 8.1-8.6 8.7-18.8 5.3-8.5-2.9-16.8-6.3-23.4-12.8-4.4-4.3-9.4-7.8-14-11.9-18.4-16.4-28.1-36.9-28.2-61.6 0-6.7 1.2-13.3 3.2-19.9 1.6-5.8.9-12 1.3-18.2zm-22.7-24.6c8.1 2.2 16.1 2.6 24.2 2.1 2.5-.1 5.1-.9 7.4-2 4.3-2.1 5.8-6.5 7.6-10.5 1.2-2.6.2-4.2-2.8-4-10.5.7-21 1.6-31.4 2.8-5 .6-5 1-5 6.2z"/><path d="m122.3 37.4c8.3 4.1 10.5 11.1 11.6 19 .7 5.2 1.8 10.4 3.2 15.5 1.7 6.1 3.4 7.3 9.8 7.1 7.2-.3 13.8 1.6 20 5.2 5.4 3.1 10.1 7.1 9.4 14.1-.7 7.8-1.4 10-9.9 6.4-1.5-.6-3-1.5-4.4-2.4-3.6-2.4-6.1-1.5-7.4 2.4-.6 1.9-1.2 3.8-2.4 5.6 0-1.4.4-2.9-.1-4-.6-1.2-1.9-2.4-3.1-2.8-1.8-.6-2.5.8-2.6 2.5-.2 6.5-.3 13.1-.6 19.6-.1 2.9-.2 5.9-.7 8.8-.5 2.5-2 4.6-4.9 4.7s-5.3-.5-7.2-3.4c-5.1-7.8-6.8-16.5-7.9-25.5-.4-3.3-2.3-4.6-4.9-4.6-2.7 0-5.4.6-8 1.4-6.4 1.9-12.6 4.2-18.9 6.2-3.7 1.2-7.3 2.1-10.4 4.8-4.3 3.7-9.9 4-15.4 3-1.3-.2-3.3-1.6-3.3-2.5-.1-2.5-2-5.3 1.5-7.5 14-8.8 27.7-18.4 41.9-26.9 7.3-4.4 9.3-10.6 9.8-18.2.5-7 1.1-14.1 2.1-21.1.3-2.3 1.7-4.7 2.8-7.4z"/><path d="m212.9 109.9c-4.2 1.4-8.2 2.6-12 4.2s-7.3 3.9-11.1 5.5c-4.1 1.7-6.1 0-5.5-4.4.4-3.1 1.5-5.4 4.3-7.5 4.3-3.1 8-7.2 11.9-11 5.2-5.2 10.4-10.6 15.4-16 .9-1 1.6-2.5 1.6-3.8-.1-12.2-.4-24.3-.8-36.5-.1-4 2.3-5.8 6.2-5.4 4 .4 5.8 2.8 6.6 6.1 1.7 7.8 3.3 15.7 4.5 23.6 1.1 7.6 1.7 15.3 2.6 23 .1 1 .8 2.2 1.6 2.7 7.3 5.1 14.6 10.1 22 15 1.2.8 2.7 1 4 1.4.7.2 1.6.1 2.1.4 5.8 4.1 12 7.7 15.5 14.2 1 1.8 1.8 3.9 2.2 5.9.6 3-1.3 4.7-4.3 3.9-1.7-.5-3.4-1.2-4.9-2.1-11.7-6.5-23.2-13-34.9-19.4-4.4-2.4-9.5-1.3-8.8 4.4.9-.6 1.7-1.2 2.7-1.9 1.4 2.6 1.6 5.4.5 7.9-2.1 4.9-4.5 9.7-6.9 14.5-1.1 2.1-2.6 3.8-3.8 5.9-1.9 3.2-10 4.8-13 2.5-1.9-1.5-2.5-3.4-1.9-5.6.8-2.8 1.4-5.8 2.6-8.5 2.8-5.8 3-11.7 1.6-19z"/></svg>