<svg enable-background="new 0 0 400 400" viewBox="0 0 400 400" xmlns="http://www.w3.org/2000/svg"><path d="m155.8 311.7c-4.6 5.9-9 11.5-13.3 17.2-.5.7-.4 2-.3 3 .6 6.6 1.5 13.2 2 19.9.7 9.8-6.2 14.5-14.8 9.6-3.5-2-6.4-5.4-9.2-8.5-4.4-4.7-5.7-5.3-11.4-2.2-7.8 4.2-15.4 8.8-23.1 13.1-1.4.8-3.3.8-4.9 1-2.3.4-4.6.5-6.8 1-2.5.6-3.9-.1-3.6-2.7.3-3.1 1-6.2 1.7-9.3.2-.7 1.3-1.2 2-1.8 2.9-2.7 6.2-5 8.7-8 2.4-2.9 3.9-6.5 6.3-9.5 1.8-2.2 4-4.3 6.5-5.7 3.8-2.2 4.7-4.9 2.1-8.5-3.6-5.1-7.5-10-10.9-15.2-1.9-2.9-4.1-3.5-7-2.6-2.1.7-4.1 1.7-6.1 2.7-3.6 1.8-6.4 1.1-8.4-2.2-2.8-4.3-2.2-9.9 1.5-13.6 12.1-11.7 24.3-23.3 36.3-35 2.6-2.6 5.1-5.4 7.2-8.3 3.2-4.3 5.6-4.4 9.3-.7 2.3 2.4 5 4.7 8 6.1 12 5.6 21.1 14.2 28.2 25.3 1.8 2.7 3.8 5.3 6 8.3 4-6.9 7.9-13.4 11.6-20 1.1-2 2.4-2.8 4.7-2.8 2.4 0 4.8-.6 7-1.4 4.9-1.6 9.7-3.7 14.6-5.3 3.7-1.2 5.5-3.7 5.9-7.4.2-1.5.3-3 .9-4.3 1.9-4.1 7.5-4.8 11-1.4 1 1 2 2.3 2.5 3.6 2.8 7.3 8.8 10.2 15.7 11.9 6.8 1.7 7.9 3.7 5.8 10.4-.9 3-2.3 5.5-5.3 7-3 1.6-5.8 3.5-8.5 5.5-5 3.5-4.6 10.9 1 13.3 4.6 2 9.5 3.5 14.3 4.9 6.9 2 9.1 6 6.2 12.6-1.9 4.4-4.1 8.5-9.4 9.9-2.2.6-4.2 2.2-6.4 2.8-4.7 1.2-6.7 4.5-7.8 8.6-1.6 6.2-3 12.5-4.3 18.8-1.4 7.2-10.6 13.7-17.7 12.2-.9-.2-1.9-1.3-2.3-2.3-3.7-7.9-7-15.9-6.7-24.8.2-4.7-2.3-7.5-7.1-7.7-3.6-.2-7.1.4-10.7.7-.4 0-.8.1-1.3.1-4.7.1-8.5-.7-11-5.5-2.7-4.4-5.8-8.3-8.7-12.8zm-37-37.4c-1.9 1.3-4.6 3-7.1 4.9-5.9 4.7-6.2 6.4-2.3 13.2.7 1.3 1.5 2.6 2.5 3.6 3.8 3.9 7.7 7.9 11.7 11.6.7.7 2.3.9 3.4.7 9.3-2.1 12.8-10.7 7.6-18.7-.4-.6-.8-1.3-1.3-1.8-4.7-4.4-9.4-8.8-14.5-13.5zm81.3 7.4c-.1 0-.2 0-.3 0 0-.9.2-1.9 0-2.8-.4-1.4-.9-3.9-1.6-4-1.7-.2-3.6.5-5.1 1.3-1.8 1-3.4 2.5-4.9 4-5.3 5.3-6.3 12.3-7 19.3-.1.8.4 2.1 1 2.5 1.7 1.1 3.9 2.9 5.5 2.6 2.7-.4 5.2-2.2 7.6-3.7 1.2-.8 2.4-2.2 2.6-3.5 1-5.2 1.5-10.4 2.2-15.7z"/><path d="m139.1 114.5c-7.3 7.7-15.9 14.2-20.5 24.1-.3.7-.7 1.3-1.3 1.8-4.9 4.5-9.8 8.9-14.8 13.3-4 3.4-9.4 3-13.1-.7-.1-.1-.3-.3-.4-.5-5.6-5.7-6-8.9-1.1-15.2 6.1-7.9 12.4-15.5 18.7-23.2 3.7-4.5 7.7-8.7 11.5-13.2 3.9-4.6 6.1-10.1 7.4-15.9 2.8-13.8 5.8-27.5 8.5-41.3.8-4 3-6.6 6.1-9 1.7 1.1 3.4 2.1 5.1 3.2 5.5-4 9.3-3 11.7 3.6 1.4 3.9 1.8 8.2 2.5 12.3.1.8-.3 1.9-.9 2.5-4.1 4.4-3.7 9.2-1.6 14.2 1.7 4 3.7 7.8 5.8 11.6.7 1.2 1.8 2.4 3 3.1 4.5 2.6 8 6 10.8 10.4 3.2 5.2 6.8 10.2 10.4 15.1 3.2 4.3 6.9 8.2 10.3 12.4 4.8 5.9 9.1 11.9 8.7 20.1-.3 5.6-2.5 9.3-7.8 11.4-5.9 2.3-11.4 3.4-17.2-.3-3.1-2-7-2.8-8.5-6.9-.3-.8-1.3-1.4-2.1-1.9-7.1-4.1-11.9-10.4-16.3-17-3.9-5.4-8.5-10.3-14.9-14z"/><path d="m298.6 130.3c3.5 1.8 6.7 3.2 9.6 5.2 3.9 2.6 5.9 7 5.1 11.3-2.3 12.2-1.2 24.5-2.3 36.6-.4 4-2 7.9-3.6 11.6-3.4 7.7-4.6 15.8-5.9 23.9-.1.6-.1 1.3-.2 1.9-1.1 7.7 1.6 12.9 8.8 16.1 3.2 1.4 5.2 3.4 6.9 6.5 3.6 6.6 7.7 12.8 11.5 19.4 1.2 2.1 2.1 4.4 2.6 6.7 2 9.3-8.2 17.1-15.7 14-1.1-.5-2.2-1.2-3-2-9-9.6-16.5-20.3-22.8-31.9-.6-1.1-1-2.4-1.8-3.3-6.4-6.9-7.3-15.6-7.8-24.4-.2-3.1-.9-6.1-1.1-9.1-.1-2-.1-4 .3-5.9 2.3-9.4 4.9-18.8 7.2-28.2.7-2.7 1-5.6 1.1-8.4.3-8.5.4-16.9.7-25.4 0-1.2 1.1-2.4 2-3.4 1.2-1.5 2.7-2.7 3.8-4.2 1.7-2.2 3-4.5 4.6-7z"/><path d="m247 167.9c-.6-7.5-1.8-15.1-1.7-22.6.1-5.7 1.6-11.4 2.9-17 .2-1 2.6-2.2 4-2.2 2.6 0 5.3.6 7.8 1.4 1.2.4 2.5 1.7 3.1 2.9 4.4 8.5 7.4 17.7 6.2 27.1-.6 5.3-.3 10 .2 15.2 1.1 10.7-2 20.9-5.7 30.9-.2.6-.6 1.1-1 1.6-4.7 6.9-4.5 13.2.9 19.6 5.7 6.8 9.2 14.4 9.4 23.3.1 5.4-.9 10.5-4.7 14.7-3.2 3.6-5.6 3.7-8.3 0-1.7-2.4-3.1-5-4.5-7.6-4-7.2-7.6-14.6-12-21.5-3-4.8-2.7-10.1-3.8-15.2-.8-4-1.4-8.1-1.8-12.2-.2-1.9.2-3.9.6-5.9.4-1.7 1.1-3.4 1.8-5.1 4.1-8.7 5.9-17.8 5.2-27.4z"/><path d="m115.1 234.4c-3.7-4-5.5-8.7-3.9-14 2.5-8.4 3.8-17.1 8.5-24.7 1-1.6 1.8-3.4 3.2-4.6 5-4.5 8.1-10.1 10.8-16.2 1.7-3.9 3.6-7.6 5.5-11.6 9.2 3.3 17 8.5 22.6 16.3 9 12.7 17.7 25.5 26.5 38.3 4.6 6.8 2.7 13.7-.8 20-.6 1-5.4 1.4-6.6.2-6.7-6.1-13.1-12.5-19.1-19.3-2.5-2.8-3.6-6.8-5.5-10.3-.7-1.4-1.5-2.9-2.6-3.9-3-2.9-5.3-2.4-7.5.9-7.7 11.5-16.7 21.8-29.5 28.1-.5.4-1 .6-1.6.8z"/><path d="m94.6 170.3c5.8 1.1 14.5 9 15.4 13.7.3 1.5.4 3.2 0 4.7-1.7 6.9-3.8 13.6-8.4 19.3-3.6 4.5-6.9 9.1-10.2 13.8-3.5 5.1-8.2 8.1-14.2 9.3-5.6 1.1-9.3-2.1-8.8-7.9.2-1.9 1.1-3.7 1.1-5.6.1-9.6 5.5-17.2 10.7-24.2 5.5-7.4 11.3-14.3 14.4-23.1z"/><path d="m72.3 105.2c0-.8-.2-1.8 0-2.5 2.8-7.1 4.8-14.8 8.7-21.2 6.2-10.2 13.7-19.6 20.5-29.4 1.2-1.7 2.2-2.1 4.1-1.1 7 3.5 9.5 9.5 6.9 17.9-1 3.3-2.6 6.5-4.5 9.4-6.4 9.6-13 19-19.6 28.5-2 2.9-3.7 5.9-5.8 8.7-.8 1.1-1.9 2-3.1 2.6-2.7 1.4-4.9.4-5.6-2.6-.8-3.4-1.4-6.8-2.1-10.2.3 0 .4 0 .5-.1z"/><path d="m189.2 171c3.1-1.6 5.8-1.3 8.8-.4 10.1 3.3 20 6.9 28.2 14 1.5 1.3 3.1 2.6 4.4 4.1 7.8 9.6 4.2 18.8-4.8 24.6-2.3 1.5-6.3.8-8.6-1.3-6.4-6-12.9-12-19-18.2s-8.5-14.2-9-22.8z"/><path d="m178.8 49.3c.2-1.9-1-4.4 1.6-6.5 2.1-1.6 3.9-1.9 6-.6 5.7 3.4 10.1 7.9 11.6 14.7.2 1.2.9 2.3 1.6 3.3 4.4 6.1 8.9 12.1 13.2 18.2 3.9 5.5 4.7 11.4 2.2 17.8-1.4 3.7-3.9 4.7-7.5 2.8-1.1-.6-2.1-1.4-3-2.3-3.4-3.5-6.7-7-10.1-10.5-2.9-2.9-5.6-5.7-6.2-10-.1-.7-.5-1.4-1-1.9-6.2-6.4-8-14.4-8.3-23 0-.5-.1-1-.1-2z"/></svg>