<svg enable-background="new 0 0 400 400" viewBox="0 0 400 400" xmlns="http://www.w3.org/2000/svg"><path d="m184.7 108.6c7.3.5 14.8-.2 21.3 1.9 6.1 2 11.7.1 17.4.3 5.9.2 11.9-1.5 17.7-2.9 6.1-1.5 12.3-3.3 18.2-5.6 4.4-1.7 8.2-1 12.4.5 5.9 2.1 8.6 6.1 9.4 11.9.2 1.1.2 2.4-.2 3.4-2 5.8-2.9 11.9-6.4 17.4-2.1 3.3-2.2 8-2.7 12.2-1.3 11.9-2.1 23.8-3.5 35.6-.5 4.6-1.9 9.1-3.3 13.5-1.7 5.4-1.8 10.7-1.1 16.3 1.2 9.3 2.1 18.7 3.2 28.1.1 1.1.8 2.2 1 3.3.2 1.2.6 2.7.1 3.6-1.7 3.3-.4 5.6 2 7.8 4.6 4.1 10.1 6.6 16 8.2 10.8 2.9 21.7 5.6 32.6 8 6.5 1.4 13.1 2.2 19.7 3 2.6.3 5.2-.2 7.9-.3 5.2-.3 10.4-.6 15.7-.9-.5 5.9-1.6 10.4-6.3 13.5-2.5 1.7-4.9 3.8-6.8 6.2-5.5 6.8-13.1 8.9-21.1 10.2-13.9 2.3-27.8 2.1-41.8 1.6-.8 0-1.5-.6-2.3-.8-2.1-.5-4.2-.8-6.3-1.3-2.4-.5-5.1-.6-7-1.9-6.5-4.5-12.9-9.2-19-14.3-2.1-1.8-3.1-4.9-4.7-7.3-2.9-4.4-2.8-8.7-1.5-13.8 1-3.7.3-8-.4-11.9-2.3-13.6-1-27.3-1.1-40.9 0-3.5-1.5-5.1-4.4-5.9-7.7-2.1-15.5-2-23.3-.6-3.1.6-4.9 3.1-4.9 6.3 0 7.7-1 15.1-4.5 22.1-.9 1.8-.4 4.2-.5 6.3s.2 4.4-.6 6.3c-3.2 8.2-6.5 16.3-10.1 24.3-1.3 2.9-3.3 5.7-5.5 8-3.2 3.4-8.4 1.8-9.8-2.7-.8-2.7-2.2-4.5-6.2-4.2.6 2.3 1.2 4.5 1.8 6.8-.8.2-2 .4-3.2.7-4.4 1.1-5.2 2.4-4.8 6.9.3 3.2-1.4 4.7-6.5 5.2-1.3-3.9-2.4-7.9-3.9-11.8-3.1-8.3-6.6-16.5-9.5-24.8-1-2.9-.6-6.4-.6-9.6 0-.5 1.3-1.2 2-1.3 4.9-.6 9.9-1.5 14.8-1.5 4.3 0 8.7 1 13 1.9.9.2 1.7 1.4 2.3 2.3 1.1 1.7 2.1 3.6 3.3 5.8 4.4-8 6.4-16.3 7.5-24.8 1.3-10.2 2.6-20.4 3.7-30.6.4-4.1.2-8.2.1-12.4-.3-12.2-.7-24.3-1-36.5 0-.7.2-1.7-.2-2.2-4.1-4.7-3.1-10.8-4.2-16.3-1.3-6.4-2.5-12.8-3.7-19.3-.1-.6-.1-1.6-.2-3zm30.8 35.3c-.4 0-.8 0-1.2.1 1.3 2.8 2.5 5.5 3.7 8.3.2.4.4 1.1.2 1.5-2.9 5.3-.9 10.8-.9 16.2 0 2.9-1.1 6-2.5 8.6-1 1.8-1.2 2.9-.2 4.4.7 1.1 1 2.4 1.9 3.3s2.2 2 3.3 2.1c8 .5 15.8-.5 23.5-3 1-.3 2.3-1.6 2.5-2.6 2.9-14.3 5.1-28.8 5-43.4 0-1.8 0-4.4-1.1-5.3-2.3-1.8-5.3-3.7-8.1-3.9-4.6-.3-9.3.4-13.9 1.2-3.9.6-7 2.7-8.8 6.5-.9 2-2.3 3.9-3.4 6z"/><path d="m140.6 165.9c7.8.7 9.5 7.7 12.9 12.7 3 4.5 5.1 9.7 7.6 14.6.4.8.8 1.8.7 2.7-.8 8.4 1.4 16.4 2.7 24.5.5 3 .7 6.1.9 9.2 0 .8-.5 2.3-1.1 2.4-7.7 2.3-15.2 5.2-23.1 6.5-11.2 1.8-22.6 2-34 .8-5.5-.6-11.3 1.3-16.9 2-10 1.3-19.9 2.7-29.9.2-.3-.1-.6-.2-1-.4-.2-3.1.2-5.9 2.3-8.6 11.5-15.3 22.7-30.8 34.1-46.2.4-.5.8-1 1.1-1.6 2.2-4 2-5.3-2.3-6.8-4.5-1.5-9.2-2.4-13.7-3.8-2.2-.7-4.4-1.8-6.4-3.2-4.4-3-8.7-6.2-13.1-9.4-.6-.4-1.3-1.3-1.3-1.9.5-3.6.8-7.4 1.9-10.8 1.2-3.9 2.9-7.8 4.8-11.4 3.6-6.7 7.6-13.1 11.4-19.7 1.4-2.4 2.9-4.7 4-7.2 4.5-10 11.6-18 19.5-25.5 1.5-1.4 2.7-1.7 4.4-1 1 .4 2 .8 3 1 6.8 1.3 10.6 5.4 11.3 12.3.3 2.9 1.6 4.4 4.5 5.2 8.8 2.3 17.5 4.7 26.1 7.6 3.1 1 6.6 2.7 8.3 5.2 2.6 3.9 4.2 8.7 5.6 13.3 1.2 4.3-1.2 8-3.3 11.6-2 3.3-4 6.5-6.2 9.6-1.4 1.9-3.1 3.8-5.1 5-4.3 2.7-6.9 5.4-9.7 11.1zm-6-34.5c-.2-.7-.3-1.2-.5-1.7-3.4-7.1-8.7-12.7-15.4-16.8-.8-.5-2.5-.2-3.4.4-8.6 5-15.2 12.4-22.1 19.4-.6.6-.9 1.4-1.1 2.2-.8 3.1-1.6 6.1-2.1 9.3-.2 1 .3 2.5 1 3.2 6.1 5.6 12.5 10.6 20.4 13.6 3.2 1.2 5.5.8 7.8-1.1 1.2-1 2.4-2.2 3.2-3.5 3-4.4 6.2-8.6 8.5-13.3 2-3.6 2.6-7.8 3.7-11.7zm-8.3 49c-3.6.3-5.4 2.6-6.7 4.7-3.9 6.2-9.5 10.8-15 15.3-5.4 4.4-10 9.3-13.3 15.4-.5 1-1 2.7-.5 3.5 1.1 1.7 1.7 4 4.8 3.6 6.3-.8 12.7-.7 18.9-1.8 4.7-.8 9.3-2.6 13.8-4.1.9-.3 1.9-1.1 2.3-2 2.6-5.4 5.9-10.7 3.3-17.2-.9-2.1-.7-4.6-1.4-6.8-.8-2.7-1.6-5.5-2.9-8-.6-1.1-2.2-1.7-3.3-2.6z"/><path d="m33.1 316.9c-.4-2.5-.9-4.8-1.1-7.2-.1-.8.4-1.8 1-2.4 7-8.5 10.9-18.2 11-29.4 0-2.5 1.1-5 1.8-7.5 1.3-4.3 2.8-8.6 4.2-12.9 2.1-6.2 7.2-9 13.6-7.7 2.8.6 5.6 1 8.5 1.3 4.4.5 7.4 2 10.6 5.3-4.3 5.7-4.1 12.6-5.2 19.2-.5 3.2-1.7 5.6-3.8 8.1-6 7.1-11.7 14.5-17.5 21.7-5.1 6.3-11.9 9.6-19.5 11.7-.6.2-1.3.1-1.9.1-.6-.1-1.1-.2-1.7-.3z"/><path d="m130.2 271c-1 2.7-2 7.1-4.3 10.6-3.1 4.6-5.4 9.2-6.8 14.5-.5 1.8-1.2 3.7-2.3 5.2-2.4 3.3-6.3 2.6-8.3-.8-4.1-7-4.1-15-5.6-22.6-1.3-6.8-2.2-13.8-3.3-20.6-.6-3.7 3.5-7.4 7-6 5.8 2.3 11.5 4.6 17.1 7.5 4.2 2 6.6 5.7 6.5 12.2z"/></svg>