<svg enable-background="new 0 0 400 400" viewBox="0 0 400 400" xmlns="http://www.w3.org/2000/svg"><path d="m305.5 362.9c-2.1 2.7-5.6 2.1-9.1 1.7-3.4-.4-6.3-1.3-9.3-3.3-6.1-4.3-12.8-7.8-19.2-11.8-1.5-.9-2.9-2.2-4-3.6-11.8-14.6-23.8-29-35.1-43.8-4.5-5.9-7.7-12.8-11.6-19.3-1.3-2.3-2.4-4.8-4.1-6.8-7.1-8.7-8.1-18.8-7.3-29.3 1.3-15.5 2.9-30.9 4.4-46.4.4-4.3.8-8.6 1.1-13 0-.9-.4-2.1-1.1-2.6-10.6-8.2-23-11.8-36-13.7-1.9-.3-3 .5-4 2.2-7 11.5-16.8 20-28.8 26-5.2 2.6-10.4 5.1-16.1 8 5.9 6 9.2 14.2 18.3 16.4 7.3 1.8 13 6.1 18.1 11.6 6.6 7 13.6 13.6 20.5 20.4l.9.9c4.7 5.3 4 8.7-2.7 10.6-8.7 2.5-17.2 1.4-24.2-4.5-11.4-9.5-22.3-19.5-33.5-29.2-2.7-2.3-5.8-4.1-9.2-6.3-1 3.4-1.8 6-2.6 8.9-1-.1-1.9-.1-3.1-.2-.2 1.3-.5 2.5-.5 3.7-.1 4.1.2 8.3-.1 12.4-.4 6.3.6 12.4 2.8 18.3.7 2 .5 4.3.4 6.5-.4 10.6-.8 21.1-1.2 31.7-.1 2.7-.3 5.5-3.1 7.4-.6-1-1-1.9-1.5-2.9-.9 3.2 1 5.2 2.8 7.1 1.6 1.8 2.7 3.5 1.4 5.9-.3.5-.4 1.3-.2 1.9 2.3 9.2-.9 18.1-1.1 27.5-3.1 0-6.1.1-9-.1-.8-.1-2-1-2.3-1.7-1.3-3.9-2.7-7.8-3.3-11.8-.7-4.2-.7-8.4-.8-12.7 0-1.7.6-3.4.9-5.1.1-.6.2-1.2.2-1.8-.5-6.2-1.1-12.3-1.6-18.5-.1-.6 0-1.3.1-1.9.1-4.7-.3-9.4 1.4-14.1 1-2.6.9-5.6.8-8.5-.1-8.6-.4-17.1-.7-25.7-.1-4.1-3.7-6.3-7.5-4.9-.7.3-1.4.6-2 1-3.3 1.9-6.7 3-10.6 2.2-2.1-.5-3.4.4-4.8 2.1-4.4 5.7-9 11.2-13.7 16.7-3.6 4.1-8.1 6.8-13.7 7.1-1.3 0-3.6-.6-3.7-1.3-.3-1.6-.4-4.1.6-5.2 12-13 24.1-25.9 36.4-38.6 3.4-3.5 7.9-6.1 11.4-9.6 2.7-2.8 4.9-6.3 6.8-9.7 1.2-2 .4-3.9-2-5.1-4.2-2.2-8.6-3.3-13.4-3.4-2.6 0-5.3.3-7.9 0-7.1-.7-13-3.5-16.7-10-1.4-2.4-2.7-4.9-4.3-7-2.5-3.3-3.4-6.5-1.2-10.4.5-.9.7-2.4.3-3.4-1.3-3 .2-5.4 1.2-8.1 2.8-7.5 7.6-13.6 13.2-19.2.5-.4.9-1.2 1.4-1.3 5.3-.8 6.5-5.5 8.9-9.1 1.3-2 2.5-4.2 4.1-6.8-5.8-2.8-9.5-8.9-16.7-9.6-3.3-.3-5.8-3.2-5.8-7.3-.1-5.4.6-10.8.9-16.1 0-.1 0-.2.1-.3 4.4-4 3.8-9.2 3.5-14.4-.1-1.4.8-3.1 1.8-4.2 11.8-13.5 24.3-26.2 38.6-37.1 6-4.5 14-3.8 18.9 1.8 5.6 6.4 11.1 13.1 16.5 19.7.7.8.7 2.1 1.2 4 5.4 2.3 7.5 8.2 9.2 14.3.5 1.7 1.3 3.8 2.6 4.8 3.5 2.8 3.9 6.4 2.8 10-2 6.7-4.1 13.4-7.2 19.6-1.5 3-5.3 4.7-7.9 7.2-1.8 1.7-3.8 3.4-5 5.5-1.7 2.9-1 4.2 2.1 5.5 7.6 3 15.2 5.8 22.7 8.9 1.9.7 3.1.7 4.2-1.1 1.5-2.6 4.1-3.4 6.8-3.2 11.9.6 23.1 3.3 32.4 11.6 3.3 3 6.9 5.6 10.5 8.2 1.3 1 3 1.6 4.6 2 4.6 1.3 6.9.5 9.3-3.5s4.4-8.2 6.8-12.2c1.2-2 2.9-3.9 4.7-5.5 1.6-1.4 3.1-1.2 4.7 1 2.9 4.1 3.8 7.9 2 12.9-3.2 8.8-2 18.1-.6 27 1.1 6.8.8 13.3-.1 20-1.9 14.4-3.1 28.8-4.6 43.2-.4 3.6-.3 7.2-.9 10.7-1.5 9 1.6 16.2 8.1 22.2 2.5 2.3 5.2 4.3 8 6.5 3.6-4.4 5-9.2 5.6-14.2 2.2-20.5 4.6-41 6.5-61.5 1-10.8.9-21.8 2-32.6.8-7.9 2.4-15.7 4.3-23.3 1.5-6.2 8.6-9.5 14.7-7.4 1.4.5 2.3 4.3 1 6.1-1.9 2.5-1.7 5-.9 7.8 1.9 6.3-.1 12.6-.3 18.9-.1 2.5-.4 5-.6 7.6 3.4.9 5.9.3 8.3-2.3 7.9-8.4 16.3-16.4 24.1-24.9 5-5.5 9.2-11.6 13.7-17.5 4 .8 4.7.4 4.8-4.1.1-2.2 1.1-2.9 3.1-3.2 7.8-1.1 14.2 5.4 12.4 13.1-.6 2.9-1.6 5.7-2.7 8.4-.4 1-1.6 1.8-2.2 2.8-1.3 2-2.3 4.2-3.9 5.8-9.9 10.2-20.8 19.2-32.4 27.5-.8.6-1.9 1.6-2.7 1.4-3.5-.6-4.5 2.1-6.4 4-3.6 3.6-7.6 6.9-11.7 10.1-1.9 1.5-2.7 2.8-2.4 5.3 1.3 11.1-2.2 21.8-3.4 32.7-.1.9-.3 1.9-.4 2.8-.3 2.9-.8 5.5-4.7 5 .1.4 0 .7.1.8 4.3 3.3 4.3 3.3 2.6 8.6-3.4 10.8-6.9 21.5-10.3 32.3-.9 2.9-3.9 5.3-2.8 8.8.4 1.2.8 2.7 1.6 3.5 7.7 7.9 15.5 15.7 23.4 23.3 1 1 2.7 1.6 4.1 1.9 3.5.6 7.1 1 10.7 1.4.6.1 1.4.1 1.8.5 4.9 4.4 11 3 16.6 3.5 10 .8 19.5-2.4 29.2-3.8 4.2-.6 6 .5 5.5 4.7-.4 3.2-2.1 6.3-3.3 9.4-1.8 4.9-5.4 7.2-10.3 8.8-8.5 2.8-16.8 6.2-25.3 9.3-1 .4-2.4.9-3.3.5-2.3-1-4.3-1-6.5.4-.7.6-2.3-.3-4.3-.8zm-209.6-172.2c4-.5 7.6-.6 11.1-1.3 3.2-.7 6-.2 8.8 1.3.9.5 2.5.5 3.3 0 5.5-3.3 11.3-6.4 16.2-10.5 3-2.5 6.1-6.6 6.6-10.3 1.5-10.1-6.6-19.5-16.8-20.5-6.2-.6-11.8-2.4-17.2-5.7-8.8-5.4-16.9-4.1-24 3.4-1.7 1.7-3 3.8-4.5 5.7-3.7 5.1-7.4 10.3-11.1 15.5-.7.9-1.5 2-1.5 3 0 4.4 0 8.9.5 13.2.3 2.6 1.8 4.2 4.9 3.2.9-.3 1.9-.2 2.8 0 6.7 1.4 13.5 3 20.4 4.5.1-.1.3-1 .5-1.5zm-6.7-118.7c-.6 4.1-3.2 5.8-6.5 6.9-.9.3-1.8.7-2.5 1.3s-1.1 1.6-1.5 2.4c-.7 1.8-.9 3.9-2 5.4-3.1 4-3.4 8.6-3 13.2.3 3.2 2 5.3 4.9 6.8 4.1 2 7.9 4.5 11.9 6.6 1.3.7 2.9 1.4 4.4 1.5 10.1.7 17.5-5.1 23.2-12.1 5.1-6.2 6.2-14.3 4.3-22.3-.9-3.6-2-7.6-6.4-8.7-4.8-1.2-9.7-2.1-14.5-3.3-2-.5-3.6-.2-5.2 1.1-2.1 2-4.2 3.6-7.1 1.2zm-28.4 178.8c.5 1.5.9 2.7 1.4 4 2.4-1.6 4.5-3 6.8-4.5-.6-.8-1.3-1.6-2-2.5-2.1 1-4 1.9-6.2 3zm267.8-108c-3 1.6-3 3.4-1.7 5.2 1.2-1 2.4-1.9 3.6-3-.6-.7-1.2-1.4-1.9-2.2zm-234.3 147.8c.7 3 1.4 5.6 2.1 8.7 2-3.7 2-6.4-2.1-8.7zm117-29.5c-.4.2-.7.5-1.1.7-.1 1.4-.3 2.8-.4 4.2.3.2.6.4.8.6 1-.9 2.4-1.6 2.8-2.7.3-.6-1.3-1.8-2.1-2.8zm-129.4-142.7c.1-.4.1-.8.2-1.1-.9 0-1.9-.4-2.6-.1-1.2.7-3 1.6-1.2 3.7 1.2-.9 2.4-1.7 3.6-2.5zm237.8 38.5c.3.2.6.3 1 .5 3.3-2.9 3.5-3.1 2.4-5.9-1.2 2-2.3 3.7-3.4 5.4z"/><path d="m230.8 41.3c1.6-2.1 3.4-4.4 5.5-7.1.8 1 1.8 1.8 1.8 2.5-.4 3 2.3 4 3.3 6 2.3 4.3 5.4 9 5.3 13.5-.1 11.1 2 21.5 4.9 32 1.2 4.4-.1 9.5-.5 14.3-.4 4.2-1.2 8.4-1.6 12.6-.2 1.9-.6 2.8-2.8 3.4-2.5.7-4.5 2.7-7.5 2.4-1.8-.2-2.8-.6-3.7-2.2-5.5-9.7-8.2-20.2-8.7-31.2-.6-12.1-.3-24.1 1.6-36.1.5-2.9 1.9-3.3 4.1-3.6 4.2-.6 4.2-.6 5.7-3.2-2.2-1.6-6.4 1.5-7.4-3.3z"/></svg>