<svg enable-background="new 0 0 400 400" viewBox="0 0 400 400" xmlns="http://www.w3.org/2000/svg"><path d="m362.2 141.9c.9 3.2-.6 4.6-2.3 6.7-5.5 6.7-12.9 8.1-20.7 9.4-14.2 2.3-28.3 5.1-42.8 4.6-4.1-.1-8.4-.4-11.9-3.3-1-.8-2.2-1.3-3.5-1.5-11.1-2.6-20.6-8.7-30.4-14-5-2.7-9.7-6-14.7-8.7-3.6-2-7.4-3.5-11.1-5.1-.6-.3-1.5-.1-2.1.1-19.9 5.3-40.2 6.5-60.7 6.7-5 0-10 .5-14.5 3.7-2.6 1.9-5.7 1.5-8.2-.7-1.8-1.7-3.4-1.5-5.4-.4-4.5 2.5-8.7 5.3-11.9 9.3-2.7 3.3-6.2 5.4-10.2 6.5-5.4 1.5-10.1 4-14 8.3-.9 1-2.2 1.8-3.4 2.1-13.2 3.5-25.2 9.9-37 16.4-4.7 2.6-9.2 1.1-13.9.8-2.1-.1-4.2-1-6.4-1.1-2.8-.2-4.6-.8-4.6-4.2s-.5-6.8-.6-10.1c0-.9.7-2.2 1.4-2.7 2.6-1.7 5.1-3.1 6.4-6.3 1.1-2.6 4.2-2.9 6.5-1.1 4.4 3.4 10.1 3.2 14.9.8 4.4-2.2 9.1-4.2 13.9-5 13.6-2.3 24.9-9.5 35.9-16.8 3.5-2.3 7.6-4.1 10.7-7.2 3.1-3 7-5.2 10.1-8.1 4.1-3.9 8.3-7.8 11.7-12.4 4.7-6.3 8.4-13.5 13.1-19.8 4-5.2 5.8-11.1 7.3-17.2 2-8.2 10.3-12.1 18.4-8.9.7.3 1.4 1.3 1.6 2.1 1.2 4.3 3.4 7.9 7.2 10.4 1.6 1.1 1.1 5.5-1 7.6-1.5 1.6-3.4 2.8-5.2 4.1-3.8 2.8-3.9 5.1-.2 7.8 1.8 1.3 3.7 2.5 5.7 3.5 13.1 6.4 26.2 12.7 39.4 18.9 7.6 3.6 15.2 7.5 23.1 10.2 6.3 2.2 13.1 2.9 19.7 4.2 10 1.9 19.8 4.5 30.1 4 .9 0 2 .2 2.7.6 6 3.5 12.7 3.6 19.3 3.9 12.6.5 25.1 1.3 37.6 1.9zm-155.3-20.3c-3.5-1.9-6.6-3-9-5-3.3-2.7-6.7-4.5-10.7-5.7-3-.9-6-2.5-8.7-4.2-3.3-2.1-7.2-2.1-10 .5-4.5 4.2-9 8.3-13.5 12.5-.9.9-1.6 2.2-2.2 3.4-.9 2-.2 3 2 2.9 3.2-.1 6.3-.1 9.5-.3 11.7-.8 23.2-3.2 35.1-2.3 2.3.2 4.6-1.1 7.5-1.8z"/><path d="m175.8 235.6c4.7 3.3 3.9 8.7 3.7 13.8-.1 3 .4 6.1.2 9.1-.3 5-1 9.9-1.5 14.8-.2 1.7-.3 3.4-.1 5 .3 3.8-.3 7.4-1.5 11.1-.9 2.8-.4 6.2.2 9.2 1.5 6.9-.5 12.4-6.4 16.1-.9.5-2 .5-3 .9-1.3.5-2.6 1.2-3.9 1.8-1 .5-2 1.3-3 1.5-11.9 2.4-23.8 4.8-35.7 7.2-2.2.4-4.4.5-6.6.5-4.6 0-9.1 0-13.2 2.4-.7.4-1.6.6-2.4.7-5.5.2-10.5 2.1-15.2 4.9-1 .6-2.5.1-3.8.4-1.2.2-2.8.4-3.5 1.2-2.6 3.1-4 3.1-6-.4-.4-.6-.7-1.3-.7-1.3 2.2-2.6 4.4-4.8 6-7.4 2.6-4.1 5.6-7.6 9.8-10.2.9-.6 1.9-1.1 2.4-2 2.6-4.3 6.3-4.2 10.7-3.4 2.7.5 5.6-.1 8.3-.5 9.2-1.6 18.5-3.3 27.7-5.2 3.4-.7 6.7-1.7 10-2.9 6.2-2.2 9.2-6.8 9.7-13.2.2-2.3.4-4.8-.1-7-1.4-5.7.3-11.1.5-16.6.2-7.6-.5-15.2-1.2-22.7-.3-3.7-1.5-7.2-2-10.9-.4-3.1-2.3-4.6-4.9-4.8-5.4-.4-10.9-.7-16.4-.4-5.4.3-10.7 1.3-16 2.1-5.4.8-10.4-2.1-11.7-6.9-.5-1.6-.2-2.6 1.4-3.6 6.9-4.5 14.7-5.3 22.6-6.5 10.9-1.6 21.9-2.2 32.9-1.9 1.1 0 2.3.2 3.4.5 4 1.2 8 2.5 12 3.6 4.4 1.2 5.6 2.8 3.9 7-2.1 4.5-4.3 8.9-6.6 14z"/><path d="m177.3 194.6c-5.6 0-11.5-1.1-16.8.3-6.4 1.6-12.5.9-18.8 1.2-1.4.1-2.9-.9-4.4-1.2-1.4-.3-2.8-.7-4.3-.8-4.2-.2-6.5-2.1-6.9-6.3-.2-1.9-.1-3.8.2-5.7.7-4 .1-7.7-1.3-11.5-.5-1.4-.2-3.4.3-4.9 1-2.5 2.7-4.8 3.7-7.4 1.4-3.5 4-5.2 7.4-5.7 8.3-1.3 16.7-2.6 25.1-3.4 15.2-1.3 30.4-2.6 45.6-3.1 7.8-.3 15.6.6 23.4 1.6 8.8 1.1 10.5 3.3 11.2 12 .3 3.7 0 7.1-1.8 10.7-1.4 2.9-1 6.6-1.3 9.9-.3 4-3.9 8.2-8 8.6-6.3.7-12.7 1.1-19 1.8-3.5.4-7 1.3-10.6 1.8-4.3.7-8.7 1.5-13.1 1.9-3.3.4-7 .1-10.6.2 0-.1 0 0 0 0zm14-32.9c0-.5-.1-.9-.1-1.4-15.2 1.2-30.3 2.2-45.4 3.9-2.3.3-5.3 3.8-6 6.3-1.1 4.3 1.5 7.3 5.8 8.6 1.7.5 3.5.9 5.3.8 4.2-.3 8.4-.7 12.6-1.4 16-2.8 32 1.2 48-.2 4-.4 8.1-1 12-2.2 3.3-1 3.6-4.1 3.1-7.1-.7-4-1.5-8-5.7-10-.6-.3-1.5 0-2.2 0-9.2.9-18.3 1.8-27.4 2.7z"/><path d="m254.8 322.7c-7.2 1.8-13.3 3.7-19.5 4.8-9.4 1.7-18.8 3.4-28.2 4-4.7.3-9.8-1.5-14.4-3-2.8-.9-2.5-7.7.2-9.8 3.8-3 8.1-4.4 12.9-4.6 5.3-.3 10.6-.4 15.8-1.3 3.3-.6 6.4-2.4 9.6-3.9 3.1-1.5 6.2-3.2 9.3-4.7 3.1-1.4 4-4.3 3.9-7-.1-4.6-.9-9.2-1.4-13.8-.2-2.2-.5-4.4-.5-6.6-.2-8-.4-16.1-.6-24.1-.1-5.8-.1-11.6-.4-17.4-.2-3.7-.7-7.3-1.4-11-.5-3.1-3-4.4-5.7-3.6-10.1 2.8-20.4 1.5-30.6 1.2-5.5-.1-8.7-2.4-9.8-6.8-1-4.1 1.4-10 5-12.1.7-.4 1.8-.4 2.7-.4 7.7.7 15.4 1.4 23.1 2.2.7.1 1.5.1 2.2.4 6.1 3.1 12.3 2 18.6 1 2.5-.4 5.3 0 7.7.8 3.9 1.3 6.3 5.3 5.1 9.1-3.4 10.8-1.8 21.8-2 32.7-.1 6.2-.8 12.4-1.3 18.6-.1.9-.1 1.9 0 2.8.5 4.9 1.1 9.8 1.4 14.7.4 7.7.9 15.4.7 23.1-.4 5.3-1.7 10.4-2.4 14.7z"/><path d="m90.6 253c0-2.6-.2-5.3.1-7.9.2-2.1.8-3.9 3.8-3 9.1 2.7 18.3.1 27.4.3 5.6.1 11.3 1.1 16.9 1.8 2.9.3 2.7 2.6 2.9 4.7.3 2.2-.6 3.5-2.4 4.3-1.1.5-2.5.6-3.6 1.1-1.9.9-3.8 1.9-5.6 2.9-2.2 1.3-4.3 3.4-6.7 3.9-4.7 1.1-9.6 1.4-14.4 1.9-.9.1-1.9-.8-2.9-.8-2.2-.1-4.8-.6-6.5.3-2.5 1.3-4.8 1.4-7.3.6-.7-.2-1.5-1.4-1.6-2.1-.2-2.7-.1-5.4-.1-8z"/><path d="m110.6 293c-5.6 0-11.2-1.6-16.4-4.7-2.4-1.5-3.4-3.4-2.9-6.1.5-2.5 2.3-3.4 4.7-3.9 12.5-2.6 25-5.3 37.5-8 .8-.2 1.7-.7 2.5-.6 1.8.3 4.1.5 5.1 1.7.7.8 0 3.3-.7 4.8-5.9 12.4-16.6 16.5-29.8 16.8z"/><path d="m194.2 259.3c-.3-2.3-.6-4.5-.8-6.7 0-.5 0-1.3.2-1.4 3-1.1 2.3-4.2 3.5-6.2 1.1-1.8 3.4-3.7 5.3-3.9 7.9-.5 15.9-.6 23.9-.4 1.4 0 3.1 2 4 3.4 1.1 1.8-.7 3-2 4.1-.8.7-1.7 1.3-2.4 2.1-8.6 10-20 9.4-31.7 9z"/><path d="m204.1 292.6c-6.5 0-11.8-4.3-12.1-10.8-.1-1.7 2.1-4.4 3.9-5.2 7.9-3.6 15.9-6.9 24-9.9 1.8-.7 4.7.1 6.4 1.3.9.7.7 3.9 0 5.4-2.3 4.6-4.5 9.3-10.2 10.9-1.3.3-2.3 2-3.1 3.3-2.3 3.3-5.2 4.8-8.9 5z"/></svg>