<svg enable-background="new 0 0 400 400" viewBox="0 0 400 400" xmlns="http://www.w3.org/2000/svg"><path d="m265.4 184.7c4.7 1.6 8.3 2.9 12.1 4 1.8.5 2.8 1.3 2.5 3.3-.4 2.3.8 3.8 2.4 5.2 5.1 4.4 11.5 4.7 17.2 1.3 1.4-.8 3.5-1.3 5.1-.9 17.5 4.3 35.4 7.6 52.1 14.6 5.5 2.3 8.5 10.9 5.1 15.8-.5.7-1.5 1.1-2.3 1.4-22.4 6.5-44.6 6.8-66.5-2.2-20.4-8.4-40.8-16.8-61.3-25.1-1.9-.8-4.1-1.2-6.1-1.2-6.7.1-13.3.6-20 .7-1.8 0-2.8.6-3.5 2.4-2.1 5.8-6.2 8.6-12.6 8.7-4.6 0-9 1.5-13.4 3.4-5.9 2.6-12.2 4.6-18.5 6.2-15 3.8-29.5 9.1-43.4 15.9-17.2 8.4-35.3 13.6-54 17-3.7.7-7.5 1.5-11.2 2.2-.8.2-1.7.4-2.5.3-4.8-.2-9.5-2.4-14.3-.4-.1 0-.5-.5-1-1.1 1.1-.6 2-1.1 2.9-1.5 35.2-15 70.3-30.2 105.7-44.8 9.6-4 20-5.9 30.1-8.9 6.7-2 12.5-5.6 17.5-11.3-8.9-1.3-17.3-3-25.7-3.6-24.1-1.7-48.1-3.1-72.2-4.5-1.8-.1-3.6.2-5.3.7-7.5 1.8-15 3.8-22.5 5.5-1.3.3-3.1-.1-4.3-.8-3.9-2.4-5.7-6.1-6-10.6-.1-1.7-.2-3.4-.4-5.1-.3-2.6-1.7-6-.6-7.7 2.3-3.4 6-5.9 9.2-8.7.4-.4 1.5-.4 2.1-.2 12.8 4.1 26 3 39 3.2 17.9.2 35.8.2 53.6 2.4 2.8.4 5.7.4 8.5 0 3.9-.6 6.3-3.4 6.7-7.4.5-4.9 0-9-5.3-11.9-8-4.4-15.7-9.6-23.3-14.7-8.8-6-18.1-10.9-28-14.7-6.5-2.6-9.2-7.7-9.9-14.3-.1-.8.5-2 1.2-2.6 6.1-5 12.8-7.2 20.6-4 3.4 1.4 6.9 2.6 10.4 3.8 4.7 1.6 9 3.8 13.1 6.8 6.1 4.4 12.5 8.3 20 9.9 2.7.6 4.5.1 5.9-2.6 3.9-7.4 4.9-15.4 5.9-23.5.9-6.9 1.7-13.9 2.6-20.8.4-2.9 6.5-7.3 9.4-6.8 6.3 1.2 10 5.3 9.7 11.7-.4 6.7-1.4 13.5-2.1 20.2-.2 2.3-.5 4.6-.5 6.9-.1 6.9 0 13.7 0 20.6 0 10.6 5.7 13.2 15.1 8.4 5.3-2.7 10.2-6.1 15.2-9.2 1.2-.8 2.5-1.8 3.3-2.9 2.7-3.8 6.3-5.6 10.8-6.1 1.6-.2 3.5-1.4 4.5-2.8 4.4-6 8.7-11.9 15.8-15.2 6.1-2.9 12.3-2.8 18.6-1.1.7.2 1.6 1.1 1.8 1.8 1.2 4.1 1.5 8.3-.1 12.5-.7 2-1.8 3.9-2.1 6-.7 5.2-3.8 7.6-8.7 8.9-20.6 5.7-38.6 17-57.2 26.9-.9.5-1.8 1.5-2.2 2.5-2.5 5.5-5.1 10.5-10.8 13.6-2.8 1.5-2.3 5.8.8 7.5 14.7 8.2 29.7 8.9 44.9 1.3 4.1-2 8-4.7 12.3-5.6s7.9-2.1 11.4-5c2.3-1.9 5.3-3.1 8.2-3.9 8.1-2.3 15.1-6.5 21.1-12.4 1.4-1.4 2.8-1.9 4.8-1.3 2.2.7 4.6.9 6.8 1.4 3.7.7 5.6 3.6 4.9 7.3-.7 3.8-1.5 7.7-2.1 11.5-.3 2-1.1 3.3-3.1 4-9.1 3.2-18.2 6.3-27.2 9.6-4.8 1.7-9.5 3.6-14.1 5.7-2.3.6-4 2.4-6.6 4.4z"/><path d="m212.6 334.4c-2.8-2.4-5.4-2.1-7.6.4-6.9 7.7-15.7 9.7-25.6 8.8-11.2-1.1-22.5-1.9-33.8-2.9-1.1-.1-2.2-.7-3.2-1.2-3.3-1.7-6.4-3.7-9.7-5.3-3.9-1.8-6.3-4.5-7-8.7-.1-.7-.4-1.9 0-2.1 2.8-2.1.4-4.3.4-6.5.1-5.2-.1-10.6 1.2-15.6 2-7.8 4.3-15.6 7.8-22.7 3.9-8 9.3-15.3 14.1-22.9.3-.4.7-.8 1.2-1 6-2.7 10.3-7.7 15.1-12 2.6-2.3 5.4-4.4 8-6.7 4.7-4.3 9.8-2.6 14.9-1 2.2.7 2.7 2.9 2 4.7-1.5 3.7-3.1 7.4-5.4 10.6-2.3 3.3-5.4 6-8.2 8.8-10.2 10.4-14.8 23-14.9 37.3 0 3.6-.3 7.2-.1 10.8.1 1.3.8 2.9 1.8 3.7 5.6 4.5 12.1 5.2 18.9 3.3 1-.3 1.9-1.2 2.7-2.1 7.2-7.8 12.6-16.7 17.4-26 5-9.7 11.3-18.6 18.4-26.9 2-2.3 3.7-4.9 5.3-7.5 2.1-3.3 7.1-5.8 10.9-5 .8.2 1.6.9 2.2 1.6 3.1 3.8 3.1 9.6-.1 13.8-11.4 15.1-19.3 32-26.6 49.3-.1.2 0 .4-.1 1 3.8 2 8.2 2.9 12.4 1.9 9.2-2.3 18.3-4.9 27.4-7.7 6.8-2.1 13.3-4.7 20-7 1.4-.5 2.9-.8 4.3-.6 2.5.2 3.7 2.8 2 4.5-10.1 10.4-20.8 20.3-34.3 26.2-6.8 3-14 4.2-21.3 4.5-.6 0-1.3-.1-1.8-.3-4.6-2.9-4.6-2.9-8.7.5z"/></svg>