<svg enable-background="new 0 0 400 400" viewBox="0 0 400 400" xmlns="http://www.w3.org/2000/svg"><path d="m121.39 241.14c-.71 7.92-1.56 15.26-1.99 22.62-.43 7.52-2 14.78-6.02 21.07-7.28 11.39-11.14 24.05-14.96 36.8-.54 1.8-2.16 3.43-3.62 4.77-3.92 3.62-8.11 6.94-12.04 10.56-4.01 3.69-7.56 8-14.11 9.02.64-6.07.94-11.95 1.92-17.7 3.47-20.48 9.57-40.17 17.98-59.17 1.04-2.36 1.59-5.09 1.68-7.68.23-6.93.13-13.88.02-20.82-.02-1.01-.65-2.71-1.29-2.86-1.18-.28-2.84-.03-3.85.65-7.12 4.8-13.83 10.29-21.24 14.56-8.7 5.01-16.46 11.15-24.21 17.39-5.09 4.09-10.71 6.79-18.44 7.05 1.07-2.25 1.57-4.28 2.79-5.69 3.14-3.64 6.6-7.01 9.91-10.49 2.15-2.26 4.08-4.79 7.74-4.61.6.03 1.36-.68 1.85-1.23 11.58-13.05 23.18-26.08 34.65-39.22 5.08-5.82 8.24-12.68 10.18-20.54-5.52.33-10.54-.39-15.91 2.38-10.83 5.58-22.85 7.9-34.99 8.13-3.47.06-7.13-2.72-10.43-4.65-1.61-.95-.28-6.87 1.76-8.32 4.02-2.84 8.09-5.61 12.26-8.22.78-.49 2.13-.07 3.64-.07 1.19-.65 2.91-1.85 4.81-2.57 7.71-2.92 15.54-5.53 23.19-8.57 5.9-2.34 11.61-5.16 17.53-7.82-.6-4.5-1.17-8.79-1.77-13.24-7.63-.3-14.63 1.5-21.58 3.68-4.04 1.27-8.02 2.86-12.15 3.75-8.49 1.84-14.52-1.28-18.56-9.31 7.56-3.79 15.1-7.62 22.68-11.37 6.98-3.45 13.71-7.41 21.89-7.82 4.14-.21 5.96-3.23 5.76-7.5-.07-1.57-.18-3.13-.15-4.7.04-2.86-.58-5.35-2.35-7.8-1.52-2.11-2.24-4.82-3.15-7.33-1.42-3.93-2.38-4.63-6.44-3.82-3.06.61-6.14 1.27-9.11 2.25-11.75 3.89-23.33 3-34.94-.97-.25-3.26.95-5.51 3.93-7.28 6.96-4.15 14.56-6.18 22.39-7.64.88-.16 1.76-.37 2.64-.47 14.52-1.59 23.38-9.32 26.41-23.79.98-4.68 2.67-9.23 4.25-13.76.73-2.09 1.78-4.14 3.07-5.94 5.14-7.2 5.77-7.5 12.66-1.77 6.03 5.02 6.91 9.79 3.87 17.03-.69 1.64-1.52 3.27-1.9 5-.74 3.34 1.68 6.07 5.05 5.52 6.73-1.1 13.4-2.54 20.12-3.66 2.41-.4 4.92-.54 7.34-.31 1.21.12 2.94 1.12 3.29 2.13.36 1.01-.37 2.81-1.2 3.75-2.58 2.93-5.18 5.97-8.27 8.3-3.13 2.36-6.79 4.08-10.35 5.81-2.18 1.06-4.74 1.37-6.9 2.46-2.92 1.48-4.79 3.91-5.1 7.37-.24 2.67-1.22 5.41-.87 7.98.67 4.85 1.67 9.74 3.39 14.3.56 1.48 3.8 2.76 5.79 2.72 5.35-.11 10.67-1.25 16.03-1.43 2.59-.09 6.29.18 7.6 1.81 2.12 2.62-1.24 4.81-2.77 7.05-4.98 7.28-11.96 11.38-20.28 13.81-5.36 1.57-6.32 3.67-5.43 9.36 1.2 7.75 2.27 9.03 10.06 8.56 5.07-.3 10.11-1.69 15.08-2.95 6.96-1.77 13.84-2.51 20.88-.13-.09.34-.07.77-.27.92-7.97 5.97-15.99 11.77-25.62 15.04-4.83 1.64-9.36 4.24-13.91 6.62-.83.43-1.6 1.84-1.63 2.83-.16 5.03-.15 10.08-.01 15.11.03 1.09.56 2.47 1.35 3.16 2.17 1.92 4.37 4.06 6.95 5.2 12.14 5.33 22.24 13.7 32.79 21.42 7.3 5.34 14.57 10.72 22.06 16.23 1.38-4.71 2.59-9.11 3.96-13.45 1.18-3.72 3.13-4.82 6.87-3.82 3.82 1.01 7.19 2.39 8.81 6.74.97 2.59 3.2 4.83 5.22 6.88 2.53 2.56 5.15 4.62 9.24 1.81 2.01-1.38 5.13-1.33 7.78-1.53 1.13-.09 2.35.82 3.52 1.27 1.1.42 2.22 1.26 3.28 1.19 2.85-.19 7.45-6.1 7.23-9.01-.65-8.48-1.41-16.95-1.98-25.44-.16-2.34-1.2-3.08-3.36-3.08-5.47-.02-11 .32-16.41-.31-21.04-2.42-36.57-19.34-37.75-40.9-.67-12.29 1.17-24.32 4.37-36.16.19-.72.47-1.73 1.01-1.99 3.59-1.73 3.81-4.84 4.68-8.33 2.2-8.75 7.92-15.48 15.28-20.55 1.64-1.13 4.3-.89 6.51-1.07 13.27-1.06 26.53-2.68 39.81-2.92 20.31-.37 40.44 1.5 59.73 8.71 2.84 1.06 5.2 2.44 6.47 5.32.4.91.98 1.77 1.61 2.55 4.12 5.2 6.85 10.65 3.35 17.33-.12.23.05.61.05.64 1.73-.43 3.42-.85 5.12-1.27.12.3.25.61.37.91.52-.94 1.03-1.88 1.63-2.95 3.84 6.54 2.68 13.36 2.09 20.15-.35 4-2.1 7.08-4.97 9.86-5.7 5.53-11.1 11.38-16.76 16.95-7.78 7.66-18.32 11.94-28.64 11.29 7.12-6.07 9.35-13.93 11.9-22.24-7.55-.37-14.74-.79-21.94-.97-.71-.02-1.86 1.29-2.13 2.18-1.99 6.61-4.06 13.22-5.6 19.94-1.34 5.87-1.81 11.94-3.04 17.85-1.77 8.49.71 16.67 1.6 24.95.12 1.14 2.13 2.4 3.53 3.03 3.81 1.71 7.71.89 11.43-.46 19.48-7.08 39.83-7.63 60.19-8 8.54-.16 15.59 2.9 20.65 10.28 3.04 4.42 4.49 8.85 3.3 14.17-2.33 10.35-4.8 20.69-6.69 31.13-1.15 6.37-1.02 12.85.84 19.26 2.92 10.09 5.21 20.37 8.3 30.4 1.5 4.86 4.04 9.43 6.45 13.96 1.44 2.71 1.79 5.15.44 7.89-.49.99-.74 2.11-1.06 3.17-.91 3-1.99 5.75-4.74 7.78-1.63 1.2-2.58 3.32-3.82 5.04-2.83 3.92-6.08 3.88-8.63-.11-13.59-21.28-21.62-44.27-19.47-69.78.84-10.05 3.71-19.93 5.8-29.87.25-1.2 1.19-2.4 2.09-3.31 4.03-4.08 5.15-8.75 3.21-14.15-.11-.32-.28-.63-.32-.95-1.02-7.65-6.33-10.54-13.09-10.71-5.5-.14-11.07.65-16.53 1.55-7.03 1.15-13.94 3.03-20.97 4.19-4.73.78-9.36.05-13.24-3.27-.73-.62-1.68-.98-2.79-1.62-1.9 5.21-5.84 8.2-10.1 11.04-4.51 3-7.33 7.1-8.26 12.78-2.33 14.34-5.13 28.61-7.77 42.91-.85 4.58.08 5.68 4.86 5.61 1.9-.03 3.81.13 5.69-.07.99-.11 2.13-.58 2.83-1.27 5.76-5.63 11.44-11.35 17.14-17.06.47-.47 1.01-.95 1.28-1.54 3.95-8.53 11.19-14.66 16.23-22.4 1.98-3.04 4.92-3.95 8.48-3.69 1.25 3.55.74 6.87-.58 10.17-5.44 13.6-13.82 25.51-21.56 37.8-.57.9-1.57 1.58-2.46 2.24-5.13 3.79-10.37 7.43-15.41 11.34-3.01 2.33-6.14 3.68-10 4.11-4.98.55-9.89 1.79-14.79 2.9-1.9.43-3.1.06-4.28-1.52-4.49-6.01-7.58-12.67-7.04-20.18.79-11.12 2.39-22.19 3.58-33.29.43-3.99 1.04-8.02.86-12-.21-4.63-1.78-5.46-6.2-4.33-1.41.36-2.81.93-4.23 1-8.78.43-12.69 6.42-15.43 13.57-1.23 3.21-2.23 6.58-2.82 9.96-1.38 7.9-5.1 14.48-10.53 20.21-2.84 3-5.58 6.12-8.63 8.9-.96.88-2.8 1.16-4.18 1.05-.57-.05-1.26-1.83-1.44-2.89-1.05-6.34.08-12.37 2.26-18.41 1.34-3.71 2.04-7.79 2.2-11.74.22-5.49-1.84-7.6-7.18-8.79-.98-.22-1.99-.3-2.98-.44-1.22-.18-2.44-.31-3.65-.55-6.86-1.35-9.05-3.45-9.32-10.27-.15-3.74-1.55-4.93-5.01-4.6-6.61.64-12.45-2.03-18.37-4.4-6.01-2.47-12.05-4.78-18.41-7.25zm172.75-100.16c4.11-.86 7.09-1.33 9.98-2.14 2.15-.61 3.46-1.9 2.12-4.46-1.29-2.46-2.18-5.15-3.59-7.54-2.18-3.71-5.32-6.4-9.71-7.06-7.95-1.2-15.92-2.26-23.89-3.32-3.27-.43-5.76 2.91-4.5 5.93 1.47 3.5 2.78 7.09 4.54 10.44.78 1.49 2.31 3.21 3.81 3.58 7.34 1.82 14.78 3.22 21.24 4.57zm-64.77-4.63c4.35-.22 8.71-.35 13.05-.73.99-.09 2.56-.9 2.74-1.66.81-3.34 1.61-6.79 1.59-10.19-.01-1.58-1.52-3.86-2.98-4.6-3.56-1.8-7.46-2.92-11.25-4.22-.67-.23-1.59-.25-2.23.02-4.32 1.81-8.61 3.72-12.89 5.63-.48.22-1.18.6-1.25.99-.78 4.23-1.66 8.47-2.05 12.74-.19 2.02 1.23 3.04 3.57 2.78 3.88-.42 7.8-.52 11.7-.76zm-13.11 26.48c2.93 4.06 5.17 8.4 8.55 11.49 2.99 2.73 7.11 4.46 11.02 5.85 2 .71 5.46.87 6.16-2.3.95-4.31 1.43-8.78 1.55-13.2.07-2.69-1.64-5.45-4.56-5.32-6.66.3-13.29 1.24-19.92 2.04-.9.12-1.72.88-2.8 1.44z" fill="#010000"/><g fill="#fbfcfa"><path d="m361.2 9.6.8-1c.9.7 1.9 1.4 2.9 2.3l-.9 1.1c-1-1-2-1.8-2.8-2.4zm.5 10.6c.9-2.1 1.6-4.3 2.3-6.7.4.2.8.4 1.3.6-.7 2.1-1.5 4.3-2.2 6.6zm.4-15.2.9-.9c1 .8 2 1.6 2.8 2.4l-1 1c-.9-.9-1.8-1.7-2.7-2.5zm12.5-1.2h1.2v1.4h2.7v1.1h-2.7v2.7h-1.2v-.6h-1.8v1.3h4.9v3.8h-1.2v-.5h-3.7c0 .4-.1.9-.1 1.2h5.1v1h-5.2c0 .5-.1.9-.2 1.2h6v1h-5.2c1.1 1.3 2.9 2 5.5 2.2-.4.4-.7.8-.9 1.3-2.9-.5-4.8-1.6-5.7-3.5h-.1c-.8 1.7-2.7 2.9-5.9 3.6-.2-.4-.6-.8-.9-1.1 2.8-.6 4.6-1.4 5.4-2.5h-4.8v-1h5.3c.1-.3.2-.7.2-1.2h-4.9v-1h5c0-.4 0-.8.1-1.2h-3.5v.5h-1.2v-3.8h4.9v-1.3h-1.8v.5h-1.2v-2.7h-2.7v-1h2.6v-1.4h1.2v1.4h4.7v-1.4zm-6.6 8.3h3.6c0-.4 0-.9 0-1.4h-3.6zm1.9-4.6h4.7v-1.3h-4.7zm6.6 3.2h-3.7v1.4h3.7z"/><path d="m385.3 3.8h1.3v2.2h2.8v-2.2h1.3v2.2h4.1v9.1h1.7v1.3h-16.9v-1.3h1.7v-9.1h4.1v-2.2zm.4 13.1.7 1.2c-1.8.9-3.8 1.9-6 2.9-.2-.4-.5-.8-.8-1.3 2.3-1 4.3-1.9 6.1-2.8zm-3.1-6.4h2.8v-3.2h-2.8zm0 4.6h2.8v-3.3h-2.8zm4-4.6h2.8v-3.2h-2.8zm0 4.6h2.8v-3.3h-2.8zm3.7 1.9c2.1.9 4.1 1.8 6.1 2.7l-.7 1.3c-2.2-1.1-4.2-2-6.1-2.9zm3.2-9.7h-2.8v3.2h2.8zm-2.8 7.8h2.8v-3.3h-2.8z"/></g></svg>