<svg enable-background="new 0 0 400 400" viewBox="0 0 400 400" xmlns="http://www.w3.org/2000/svg"><path d="m360.4 193.3c.4 2.3.7 3.7 1 5.2.9 5.2 1 5.4-3.8 7.3-3.3 1.3-6.9 2.6-10.4 2.5-14.1-.2-27.4 3.5-40.9 6.7-4.5 1.1-9.2 1.6-13.7 2.4s-8.4 0-11.7-3.7c-1.8-2-4-3.8-6.2-5.4-4.9-3.4-7.8-8.2-9.6-13.8-2-6.3-4.1-12.7-5.7-19.1-.5-2-.4-4.6.5-6.3 1.8-3.5 1.9-7 1.3-10.7-.6-4-1.1-8-1.5-12-.1-.9.3-1.8.5-2.7.8-3.1 2.6-6.4 2.1-9.3-1.4-8.8.4-16.5 5.3-23.7.7-1 1.2-2.2 1.7-3.4.1-.2.1-.4.1-.7-4.3-2.8-9-2.6-14-2.3-7.6.4-13.3 2.6-17.5 9.7-3.7 6.2-4.7 10.2-1.1 16.7 2.5 4.4 2.9 9.1 1.9 13.9-1 5-2 10-3.7 14.7-1.5 4.1-4 7.8-5.9 11.7-2.9 6-5.6 12-8.2 18.1-2.4 5.6-4.5 11.4-6.8 17.1-.4 1-1.3 1.9-2.1 2.7-10.7 9.1-21.5 18.2-32.3 27.2-4.9 4.1-10.4 3.5-15.9 2.1-.5-.1-1.2-2.3-.8-2.9 3.2-4.3 6.1-9 10-12.5 14.2-12.9 26.9-26.6 33.9-44.9.6-1.6 1-3.2 1.5-4.9-3.3-2-6.4-1.7-9.6-.4-3.5 1.5-6.9 3.3-10.5 4.4-8.6 2.7-14.3-.4-16.5-9.1-1.3-5-1.7-10.2-2.3-15.3-.1-1.1.5-2.5 1.3-3.3 8-8.4 12.5-18.7 15.9-29.6.6-1.8 0-2.7-1.3-3.8-4.1-3.5-8.3-6.9-12.3-10.6-3.9-3.5-4.8-8-3.6-13 .5-2 1.5-2.5 3.5-2.7 13.6-.9 27.2-1.9 40.8-3 2.4-.2 4.8-.7 7.2-1.3 15.1-4.1 30.4-2.6 45.7-1.5 7.2.5 14.3 2 21.5 2 7 0 14.1-1.5 21.1-1.9 9.9-.6 19.8-.7 29.8-1.1h.6c2.5.5 5.3.6 6.1 3.6.9 3.3-1.7 4.6-4.1 5.9-6.4 3.4-13.4 4.3-20.5 5-4.9.5-10 .4-14.8 1.6s-9.4 3.6-14 5.7c-.6.3-1 1.8-.9 2.8 1.1 11.4-1.5 22.2-5.2 32.9-1 2.9.3 4.7 3.3 4 2.7-.6 5.4-1.9 7.6-3.4 10.2-7 13.2-17.8 15.5-29.1 1-4.8 2.3-6.3 7.3-5.8 5.7.6 11.4 2.1 16.9 3.6 2.6.7 3.9 5.3 2.2 8.3-2.3 4-5.1 7.7-7.9 11.3-2.6 3.3-6.1 6-8.5 9.4-6 8.5-13.5 15.1-22.7 19.8-2.9 1.5-5.8 3-8.5 5-2.3 1.7-4.7 3.7-6.3 6.1-3.8 5.5-3.2 7.6.9 12.6 4.4 5.4 9.5 9.5 16.4 11.1 2 .5 4 1.3 6 2.2 4.5 2 8.8 2 13.9 1.2 12.6-2.1 25.3-2.4 38-3.3zm-154.3-74.6c-.5.9-1.1 1.8-1.6 2.7-4.1 7.7-7.9 15.6-12.4 23.1-2.8 4.7-2.1 9.4-2.2 14.4 2.6 0 4.9.2 7.2 0 6.4-.5 12.6-1.5 17.6-6.1.7-.7 1.6-1.7 1.6-2.5-.2-9-.8-17.9-4.2-26.4-1.1-2.5-2.8-4.7-6-5.2z"/><path d="m94.4 293.1c-.7-3.7-1.4-6.6 1.3-9.8 2.3-2.7 3.6-6.5 4.5-10 2-8 4.7-15.8 9-22.9 7.1-11.9 9.4-25 10.2-38.5.3-5.5.3-11 .6-16.5.1-1.9-.7-2.9-2.4-3.5-3.8-1.5-7.8-2.6-11.4-.7-10 5.4-20.9 5.5-31.8 6-.7 0-1.5.2-2.2.2-7-.2-11.5 3.8-15.5 8.9-.5.7-.8 1.7-.8 2.6-1.5 17.6-2.7 35.2-4.7 52.8-1 9-3.3 17.9-5.2 26.8-1.2 5.6-2.4 11.1-4.1 16.6-1.3 4.3-4.1 5.8-7.9 5.2-1.6-.3-2.6-.9-2.4-2.9 1.1-17.8 2.1-35.7 3.3-53.6.3-3.5 1.6-7 2.7-10.4.6-1.9.6-3.5-.9-4.9-1.8-1.8-2-3.9-1.8-6.4 1.7-20.6 3.6-41.1 4.7-61.7.5-9.6-.7-19.2-1.3-28.8-.6-9.7-1.7-19.4-1.7-29.1 0-4.4 2.1-8.7 3.4-13.1.2-.5 1.1-.9 1.7-1.3 6.2-3.7 12.6-6 20.1-5.8 7.9.2 15.1-2.7 22.2-6 5.9-2.7 12.3-2.5 18.4-2 6.4.6 12.7 2.4 18.9 3.8 1.9.4 3.8 1.4 5.5 2.4 3.2 1.8 5.1 4.4 5.2 8.4.2 6.2 1.2 12.3 4.4 17.9 2.7 4.8 3 9.8.2 15.1-2.7 5.3-2 11.2-.8 16.8 1.5 7 3.3 14 4.9 21 .3 1.5.4 3.1.3 4.6-1.1 10.6-2.7 21.2-3.2 31.8-.4 7.9-2.4 15-6.2 21.7-1.1 2-2.2 4.1-3.6 6-2.7 3.8-4.2 7.7-2.2 12.4.3.8 0 2.1-.4 3-7 14.1-14 28.2-21.2 42.2-.4.9-1.8 1.6-2.9 1.8-2 .1-4.4-.1-6.9-.1zm26.4-139.3c-1.7-3-3.1-5.6-4.7-8.1-.7-1.1-1.9-2.2-3.1-2.5-2.2-.5-4.6-.9-6.9-.6-8.3 1-16.5 2.4-24.8 3.5-4.7.6-9.4 2-14.1 0-5.3-2.2-9.6-.1-10.9 5.5-1.5 6.7-1.1 13.5 1.3 20 1.7 4.7 2.1 4.9 7 4.1 2.9-.5 5.8-1.2 8.6-2 3-.8 5.8-2.3 8.8-2.5 6.3-.5 12.6-.6 18.9-.4 6.6.2 12.7-.8 17.7-5.3.7-.6 1.4-2.2 1-2.8-1.6-3.6-1.7-6.7 1.2-8.9zm2.7-32.6c-3.6-5.4-8.1-8.8-13.5-10.9-1.3-.5-3.1-.7-4.5-.3-9.3 2.3-18.5 5.3-28.4 4.4-3-.3-6.1 0-9.2.3-5 .4-9.8 1.3-14.3 4 .8 1.8 1.8 3.4 2.3 5.1.8 2.5 2.4 3.1 5 3.1 11.6.1 23.3.5 34.9.8 1.7 0 3.5.5 5 0 7.5-2.1 14.9-4.3 22.7-6.5z"/><path d="m181.5 244.9c11-.8 21.5.1 32 1.3 4 .5 8.3.6 12.2-.2 6.6-1.3 11.6-8.2 11.6-14.9 0-.7-.4-1.4-.8-2-4.4-5.6-4.7-12.3-4.9-19-.1-3 5.6-7.2 8.6-6.6 9.5 1.7 12.4 6.7 10.1 16.2-1.2 4.9-2 9.9-2 14.9 0 5.3 2.5 7.9 7.7 8.2 4.9.3 9.8-.4 14.7-1.1 3.2-.4 6.4-1.4 9.5-2.3 5.4-1.5 10.7-1.4 16.3-.7 9 1.1 18.1 1.4 27.2 2.1 4.6.4 6.4 2.4 6.8 7-12.7 6.3-26.1 10.2-40.4 10.8-9.2.4-18.3 1.7-27.5 2.5-2.4.2-4.9-.1-7.3 0-4.5.1-8.8 3.4-9 7.8-.2 5.2.7 10.5 1.3 15.7.1.5 1.4 1.1 2.2 1.3 8.4 2 16.9 1.9 25.1-.7 11.6-3.7 23.4-5.6 35.6-4.7 4.1.3 8.2-.1 12.4-.3 2.9-.1 4 1.3 4 4-.1 4.5-.8 5.2-5 6.8-12.8 5-26.1 7.7-39.7 9.1-2.9.3-6.1 1.2-8.5 2.9-6.1 4.3-13.2 4.9-20.1 6.2-19.6 3.6-39.3 7.4-59.3 8.1-.1 0-.2 0-.3 0-3.7-.1-7.6.7-10.9-.4-3.1-1.1-5.7-4.2-8.2-6.7-2.9-2.9-3.3-6.8-3.5-10.6-.1-1.9 5.3-5.7 7.8-5.7 1.8 0 3.8 0 5.3.8 6.8 3.6 13.9 3 21.1 1.8 8.1-1.4 16.3-2.8 24.4-4.3.9-.2 2.1-.8 2.5-1.5 1.2-2.5 2.7-5.1 3-7.8.5-4.5.3-9.1.1-13.6 0-.9-1.5-2.1-2.5-2.4-7.6-2-15.3-1.2-23-.4-4.3.5-8.6 1.3-12.9 1.9-1.9.2-3.8.4-5.7.2-7.1-.7-10.9-5-11.2-12.6-.1-1.5 0-3 .1-4.4.3-2.2.8-4.4 1.1-6.7z"/></svg>