<svg enable-background="new 0 0 400 400" viewBox="0 0 400 400" xmlns="http://www.w3.org/2000/svg"><path d="m125.6 160.1c1.6-6.8 2.7-12.8 4.6-18.4.9-2.6 3.2-5 5.5-6.6 14.9-10 30.3-19 47.3-25 2.1-.8 3.8-.7 5.5.7 1.8 1.4 3.8 2.6 5.9 3.8 9.6 5.4 15.2 13.4 16.2 24.6.8 8.7 1.5 17.3-.6 25.9-.7 2.7-2.2 5.1-3.4 7.7-.2.5-.8.9-.8 1.3-.2 4.9-3.7 7.5-6.9 10.5-3.1 2.9-3.6 7-3.8 11.1-.9 16.1 2 31.8 4.4 47.6 1.7 10.8 3.4 21.5 5.5 32.2 1 5.1 3.2 10 4.6 15.1 1.2 4.1 2 8.4 3 12.6.4 1.6.9 3.2 1.7 4.7 5.2 10.7 8.4 22.1 10.7 33.8.4 2.2.8 4.5.5 6.6-.3 2-1.1 4.2-2.4 5.8-2.5 3.1-5.5 5.8-8.2 8.8-2.1 2.4-4.6 2.8-7.4 1.8s-5.6-1.9-8.3-3c-.8-.3-1.6-1-2-1.8-1.8-2.8-3.5-5.6-5.1-8.4-.4-.8-.5-1.7-.7-2.6-.4-1.9-.2-4.2-1.3-5.5-5.4-6.4-7-14-7.8-22-1.9-17.9-4.4-35.7-5.9-53.6-1.6-18.8-.8-37.7 1.8-56.4 1.4-10.4 3.2-20.7 5.7-30.9 2.1-8.4 5.7-16.4 8.2-24.6 2.6-8.4-.4-15.8-5.3-22.5-2-2.8-5.5-2.8-9.5.9-13 11.8-30.2 15.9-44.5 25.3-1.7 1.1-4.5.4-7.2.5z"/><path d="m243.7 34.5c9 .6 13.6 6 11.2 15.1-1.8 7-.7 13.3.4 19.9.9 5.4 3.2 6.6 8 3.8 4.4-2.6 9-4.9 12.9-8.1 4.1-3.3 8.4-3.3 13.5-2.9 0 6.2-1.6 11.9-5.8 16.2-2.7 2.8-6.5 4.6-10 6.6-1.8 1.1-3.8 1.9-5.8 2.5-9.8 3.2-16.2 9.9-20.1 19.3-1.4 3.4-3.5 6.2-7.5 6.4-2.3.1-4.6-.3-6.8-.8-.7-.2-1.4-1.5-1.5-2.3-.5-2.8-.9-5.7-.9-8.5.1-3.8-1.6-5.7-5.2-6.6-4.6-1.2-9.2-2.6-13.6-4.1-5.9-2.1-9-5.9-8.4-10.8.3-2.2 1.7-4.2 2.8-6.2 4-7.6 5.7-8.1 13.7-4.6 3.9 1.7 7.8 3.2 11.9 5 .6-1.1 1.2-2.1 1.6-3.2 2.8-9 5.1-18.1 2.8-27.7-.6-2.6 1.3-5.2 4.1-6.1 1.1-.4 2.1-1.3 3.1-2-.3-.3-.3-.6-.4-.9z"/><path d="m104.7 91.5c2.6-3.3 5-6.3 7.7-9.7-1.7-1-3.1-1.5-4-2.4-1.1-1.1-2.3-2.5-2.5-3.9-.1-.7 1.4-2.1 2.4-2.7 4.4-2.5 9-2.5 13.7-.7 3.6 1.4 7.4 2.4 11.2 3.3 1.3.3 2.7 0 4.1-.2 2.2-.4 3.1-1.6 2.6-4.1-1.7-7.8 2.2-17.1 8.4-20.8 6.5-3.9 12.2-1.1 12.8 6.4.3 3.5.9 6.7 3.5 9.2 2 1.9 4 3 6.7 1.4 3.7-2.1 7.4-4.5 11.4-5.8 2.8-1 6.3-1 9.2-.3 1.3.3 2.3 3.3 2.7 5.2 1.5 6.8.9 8.3-5.1 11.9-3.6 2.2-7.5 3.9-11.3 5.6-6.8 3-12.3 7.1-15.1 14.4-2 5.2-5 5.7-9.2 2.3-2.7-2.2-5.9-2.4-8.7-1.2-5 2-10 2.5-15.2 2.4-4.1-.1-8.3-.2-12.3-.8-10.5-1.9-8.2-.7-13-9.5zm22.4-4.1c.3.2.6.4.9.6.7-1.2 1.6-2.3 1.9-3.6.1-.5-1.4-1.3-2.8-2.4z"/><path d="m279.9 229.9c-12.1-.7-22.2-3-31.7-7.7-5-2.4-9.6-5.8-14.4-8.5-3.1-1.7-4.5-4.4-4.3-7.5.4-6.1.6-12.3 2.1-18.2.7-2.8 3.8-5.1 6-7.5.4-.4 1.9-.3 2.4.1 10 7.7 21.8 12 32.6 18.3 6.1 3.6 12.1 7.3 15.4 14.1 1.1 2.3 3.5 3.9 5.2 5.9 3.3 3.9 2.3 7.8-2.6 9-4 1-8.1 1.5-10.7 2z"/><path d="m107.3 235.6c-3.5-2.9-1.4-9.4-7.8-9.6 1-4.2 1.9-8.4 6.1-10.8.7-.4 1.7-1 1.8-1.7.8-3.9 4-5.3 6.9-6.8 14.4-7.4 25.5-19 37.3-29.7 2.7-2.4 5.5-1.7 6 1.9.3 2.3 0 4.9-.9 7.1-2.9 7.6-6.1 15-9.3 22.5-.3.7-.6 1.4-1.1 1.9-11 11.2-23 21.4-39 25.2 0 .1-.2 0 0 0z"/></svg>