<svg enable-background="new 0 0 400 400" viewBox="0 0 400 400" xmlns="http://www.w3.org/2000/svg"><path d="m85.6 140.8c18.4-12 39.8-13.5 60.6-16.1 0-6.1.1-11.9-.1-17.7 0-.7-1.3-1.8-2.2-2.1-8.1-2.6-16.5-2.3-24.8-1.6-3.4.3-6.8.9-10.1.7-7.4-.3-12.5-4.5-16.1-10.8-3.9-6.9-4.8-14.5-5.6-23 3.3.5 6.4.5 9.2 1.4 9.7 3.3 19.2 7 28.9 10.5 5.3 1.9 10.5 3.7 15.8 5.6 2.6.9 3.5-1 3.6-2.7.2-3-.2-6.1-.3-9.1-.2-3.1-.6-6.3-.6-9.4 0-5.6.1-11.2.3-16.8.3-7 2.8-11.2 9-15.3 11 11 12.9 26.2 18.7 40.6 5.2-2 10.5-3.6 15.3-6.1 5.1-2.7 10.1-5.3 15.9-5.9 2.1-.2 3.6.2 4.6 2.3 1.3 2.6 3 4.9 4.3 7.4.9 1.6 1.9 2.1 3.6 1.3 6.9-3.2 13.2-2.4 18.9 2.6.3.3.7.4 1.1.6 6.5 3.4 8.8 2.8 11.1-4 1.9-5.5 3.2-11.1 4.5-16.8 1.6-7.3 5.3-13 12.1-16.4 6.7 6.8 9.2 12.7 6.7 16.1 1.1 1.5 2.4 3.1 3.5 4.7 1.7 2.6 2.5 5.3 1.2 8.4-.9 2.3.1 3.6 2.4 3.7 4.4.1 8.8.1 12.6-3 6.8-5.5 13.8-10.8 21.1-16.5 4.5 4 9.3 7.6 13.4 12 4.5 4.8 3.6 11.1-1.3 15.5-9.2 8.4-19.7 10.4-31.6 7.2-2.7-.7-5.7-1-8.5-.9-5.9.1-9.7 2.6-10.7 8.4-1.1 6-.9 12.2-1.1 18.3 0 .6 1.3 1.7 2.1 1.9 5.5 1 11 2.3 16.5 2.7 8.9.6 18 .4 26.9 1.1 4.3.4 8.6 2.1 12.8 3.4 2.5.8 3.6 2.7 3.4 5.4-.1 2.6-1.4 3.6-3.9 4.4-10.8 3.4-21.9 3.1-33 3.8-7.2.5-14.4.8-21.5 1.5-1.1.1-2.6 1.5-2.9 2.5-.4 1.5-.4 3.5.3 4.9 3.3 6.8 2.6 13.7 1.6 20.8-2.1 15.4-4.1 30.8-6.3 46.2-.4 2.6-1.3 5.2-2.5 7.4-3.8 7-6.5 14.4-7.6 22.4-.7 4.9-2.5 9.3-5.1 13.5-12.3 19.9-26.9 37.7-46.2 51.3-4.9 3.4-10.3 6.1-16 9.4-.8-1.3-1.4-2.1-2-3 1.5 7.6-3.7 10.9-8.5 14.3-9.2 6.4-19.8 10-30.1 14-10.4 4-20.8 8.2-31.4 12-4.4 1.6-9.1 3-13.7 3.4-7.5.6-13.6 5.2-20.8 6.5-5.3.9-10.6 1.2-16 1.6-2.9.2-4.7-1.3-5.1-4.3-.1-.8-.4-1.6-.8-3 6.8-3.4 13.5-7 20.4-10.1 5.6-2.6 11.3-4.7 17-7.1 7.6-3.2 15.2-6.4 21.8-11.5 12.1-9.4 26.1-15.5 39.1-23.4 7.9-4.8 15.4-10.1 22.9-15.4 7.4-5.2 14.6-10.9 22-16.1 8.6-6.1 15.8-13.1 21.2-22.4 4-7 9.1-13.5 14.2-19.8 4-4.9 6.9-10.2 8.1-16.3 2.2-11 4-22 6.1-33 .4-2.4 1.2-4.7 1.7-7 1.3-6.7 2.7-13.4 3.8-20.1.7-4.3.9-8.6 1.7-12.9.6-3-.6-4.4-3.2-4.5-5.1-.2-10.4-.5-15.4.2-17.6 2.3-35.2 5.1-52.7 7.5-3.2.4-6.5.3-9.8.5-12.7.7-25.3 1.3-38 2.2-14.8 1.1-29.5 3.1-44.3 1.6-1.6-.2-3.1-.5-4.7-.8-4.5-1.2-7.2-3.8-7.5-8.8zm78.9-16.2h1.5c24.3-1.8 48.5-5.4 73.1-4.4 2.6.1 5.4-1.5 8-2.5.7-.3 1.4-1.3 1.6-2.1 1.2-6-2.3-12.8-7.7-15.6-7.6-4-14.3-8.9-19.4-16-1.8-2.5-4.4-4.5-6.7-6.7-1.3-1.2-2.5-1-3.7.5-3.2 3.7-6.5 7.2-9.9 10.7-1.1 1.1-2.6 2.1-4.2 2.6-8.7 3-17.4 5.9-26.1 8.8-1 .3-2.2 1.1-2.6 1.9-3.2 7.1-5.7 14.4-3.9 22.8z"/><path d="m197.6 209.9c-2.3.9-4.5 2.1-6.9 2.8-7.6 2-15.1 4.6-22.8 5.3-10 1-20.1.3-30.1.4-.2 0-.5.1-.6-.1-3.5-4.2-9.9-4.8-12.7-10.1-2.4-4.7-2.7-9.5-1.9-14.5.2-1 .5-2.1.7-3.1 3.5-14.5 3.5-14.5 14.6-24.3.9-.8 2.1-1.4 3.3-1.6 9.5-2.3 19.1-4.9 28.7-6.7 4.5-.8 9.2-.5 13.8-.2 11.4.8 22.8 1.9 34.1 3 5.4.5 12.9 9.3 12.8 14.6 0 1.3-.6 2.7-1.2 3.9-1.9 4.3-3.1 8.7-3.2 13.5 0 1.7-1.2 3.6-2.4 5.1-4.1 5.5-10.4 7.3-16.3 9.8-2.1.9-4.2 1.9-6.5 2.6-1.1.3-2.5.1-3.7.1.3-.2.3-.4.3-.5zm-35.1-12.4c0-.1 0-.2 0-.3 1.9 0 3.8.2 5.7 0 12.4-1.4 24.5-4.3 36.5-8.1 4.1-1.3 6.1-3.7 7.4-7.3 1.4-4 .7-6.1-3.4-6.8-4.7-.7-9.7-1.2-14.4-.7-6 .6-12.2.5-17.9 3.5-2.6 1.3-5.7 1.7-8.7 2.2-4.6.7-9.3.8-13.8 1.9-7.3 1.8-6.8 1-5.4 8.6.6 3.5 2.3 6 6.5 6.1 2.5 0 5 .6 7.5.9z"/></svg>