<svg enable-background="new 0 0 400 400" viewBox="0 0 400 400" xmlns="http://www.w3.org/2000/svg"><path d="m142.5 354.5c-6.6 2.5-13.1 2.5-19.6 2-.8-.1-1.9-1.5-2.1-2.4-.8-4.8-1.6-9.5-2-14.3-.3-4 .3-8.1-.1-12-1.2-10.2 1.1-19.9 2.6-29.8 1.1-7.2 5.4-11.6 10-16.2 2.1-2.1 4.6-3.1 7.8-2.8 12.5 1.4 24.9-1 37.3-2.2 4.5-.4 9.1-.8 13.6-.9 2.3-.1 3.7-1 4.2-3 .8-3.2 1.4-6.4 2-9.6.5-3 .7-6.1 1.5-9.1.8-3.2 2.9-4.8 6.5-4.8 13.8.1 27.5.1 41.3 0 1.2 0 2.3 0 3.5-.2 3.4-.7 5.8-4.3 5.5-7.9-.2-2.4-2.6-4.1-6.2-4.3-8-.4-16.1-.5-24.1-1.4-5.9-.6-11.6.2-17.2 1.6-3.3.8-5.4-.2-7.1-3.2-.4-.8-.8-1.7-1.1-2.6-2.4-9-.9-11.4 8.2-11.9 5.9-.3 11.8.5 17.7.5 5.5 0 11-.7 16.4-.6 6.2.1 12.4.3 18.6 1.1 3.7.4 7.3 1.7 10.8 3.1 2.4 1 3.6 3.3 3.6 6.2-.1 4.3.3 8.7.3 13 0 1.1-.5 2.2-.7 3.3-.4 2.4-1.2 4.7-1.2 7.1.1 5.3-3.1 8.9-8.5 9.3-4.3.3-8.6 1-12.9 1.1-6.8.2-13.7-.1-20.6 0-1.4 0-2.9.8-4.3 1.1-2.9.6-5.8 1.3-8.7 1.6-2.8.2-4 1.7-4.1 4.2-.1 1.5-.1 3 .1 4.4.2 2.4 2.5 4.3 4.6 3.3 5-2.4 10.2-1.3 15.3-1.1 9.2.5 18.4 1 27.5 1.7 1.3.1 2.6 1.3 3.6 2.3.7.7 1 1.9 1.6 2.7 3.5 4.9 4.7 9.7 2.9 15.9-1.3 4.3-.1 9.4.2 14.2.1 2.1-.5 3.3-2.4 4.6-5.1 3.6-10.5 4.7-16.7 4.5-5.9-.2-11.8.7-17.7.9-3.3.1-6.7 0-10-.4-7-1-13.7-.1-20.4 1.7-3.9 1-7.6 1.3-11.5.5-1.6-.3-3.4.5-5 .9-2.6.6-5.1 1.5-7.7 1.8-3.2.5-5.1 2.2-7.1 5.8 4.4.4 8.3.7 12.2 1.1 1.6.1 3.4 0 4.8.6 2.6 1.2 5.1 1.4 7.9 1.2 8.4-.8 16.7-1.8 25.3-.6 5 .7 10.4-1.2 15.6-1.9 6.6-.9 13.2-1 19.8.8 2.4.7 5 .3 7.5.7 1.2.2 2.9.6 3.4 1.4 4.3 7.3 8.5 14.7 6.8 23.7-.2 1.1-1.4 2.6-2.5 2.9-2.6.9-5.3 1.5-8 1.6-5.6.4-7.4-1-9.4-6.3-1.8-4.7-4.2-6.4-9.3-6.5-8.6-.1-17.1-.1-25.7-.2-.7 0-1.5 0-2.2-.2-9.7-2.7-19.6-1.2-29.3-1.2-3.5 0-7.1 1-10.6 1.6-11.1 1.7-15.1-.4-19.4-10.9-2.2-5.3-4.2-10.5-2.8-16.6.5-2.2-.7-4.7-1.2-7.1s-.3-4.1 2.8-4.8c6.4-1.6 12.6-3.7 18.9-5.4 1.8-.5 3.9-.2 5.9-.2 4 .1 8 .6 11.9.3 6-.6 11.9-2.3 17.8-2.5 4.6-.1 9.3 1.4 13.9 2.2.9.2 2 1 2.7.7 5.4-2.3 10.9.2 16.3-.4 2.2-.3 4.3-.9 6.5-1.2 2.9-.5 4-2.4 4.3-5.1.3-2.9-.8-5.1-3.7-5.8-2.5-.6-5.2-1-7.8-1.2-8.5-.8-17-1.4-25.6-2-1.7-.1-3.6-.1-5.2.5-3.2 1.1-6.2 1.5-9.6 1.1-4.6-.4-9.3.2-13.9.4-.5 0-1.1.1-1.6.1-12.9-2.4-25.2 2.5-37.8 2.9-6.8.2-6.4.9-8.1 7.5-2.8 10.6-2.9 21.4-4 32.1-.5 4.7.1 9.5 3.6 13.4.8.8 1 2.2 1.6 3.6z"/><path d="m173.2 39.6c-4 3.7-4.5 7.5-3.8 11.9.3 1.9-.5 3.9-.7 5.9-.2 2.1-.1 4.2-.3 6.3s-.6 4.2-.9 6.3c-.1.7-.2 1.5-.1 2.1 2 7.4.8 14.7 0 22-.3 2.9-.1 5.7.6 8.6.8 3.9.5 8.2-.1 12.2-.8 4.9-1.1 9.7.2 14.4 1.4 5.5-.2 10.9-.6 16.4-.1.8-.3 2 .1 2.4 2.1 2.3.9 4.7.5 7.1-.4 2.5-.2 5.2-.2 7.8 0 5.4.1 10.7.1 16.1 0 1.3-.3 2.5-.4 3.8-.3 4.9 3.4 7.9 8 6.2 1.1-.4 2.2-2.1 2.4-3.3.9-6.3 2.1-12.5 2.2-18.8.5-23.6.7-47.2.8-70.8 0-3.5-1.1-7-1.6-10.6-.3-2.4-.8-4.7-.8-7.1-.2-11-.2-22-.3-33-.1-4.4 1.1-6.7 5.5-7.4 3-.5 6.3-.2 9.4.1 2 .2 3.9 3.8 3.6 5.9-.7 4-1.7 7.9-2 11.9-.3 4.7-.5 9.5.2 14.2.7 4.9.8 9.6 0 14.4-.5 2.6.2 5.4.2 8.1 0 3.8-.2 7.5-.1 11.3 0 1.4.6 2.8.8 4.2.2 1.2.6 2.4.6 3.6-.1 4.8-.4 9.5-.7 14.3 0 .7-.4 1.4-.5 2.1-.1 1.1 0 2.2 0 3.2s.3 2.1.2 3.1c-.5 7.6-1.4 15.1.6 22.7.4 1.4-1.1 3.2-1.1 4.9.1 4.1-1.1 8.5 1.5 12.3.3.5.3 1.3.2 1.8-2 5.6-.2 11.1.7 16.6.5 3.1-.1 5.4-2.2 8-3.7 4.5-7.7 6.7-13.8 6.4-11.2-.5-22.4.6-33.3 3.5-1.3.3-2.8-.2-4.2-.5-.8-.1-1.7-.8-2.4-.7-6.8 1.2-10.3-4.2-14.6-7.6-1.2-1-1.5-3.7-1.5-5.6-.4-15.3.5-30.8-1.2-46-1-9.7-.3-19.2-.9-28.7-.8-11.8 1.7-23.4.9-35.3-.8-11.7-.3-23.5-.4-35.2 0-1 0-1.9 0-2.9-.3-8.5-.3-8.5 7-12.6 3.1-1.8 6-1.2 8.7.3 1 .6 1.7 2.7 1.6 4-1 8.5-2.5 17-3.4 25.6-.3 2.9.6 6 .9 9 0 .4.5 1 .4 1.1-3.1 3.6.7 7.6-.8 11.4-.8 2.1-.2 4.7-.2 7.1 0 2.7.1 5.4.2 8.1.1 1.8.1 3.6.2 5.3.3 4.5.7 9 1 13.5.2 3.1.3 6.3.4 9.5.4 7.8.9 15.6 1.2 23.4.5 10.9.8 21.7 1.3 32.6.1 1.1 1 2.6 2 3 1.6.7 3.5.7 5.3.8 2 .1 3.2-.9 3.4-2.9.6-6.8 1.8-13.7 1.7-20.5-.1-7.3-1.6-14.5-1.8-21.8-.2-8.7.3-17.5.6-26.2 0-1.3.2-2.5.1-3.8-.4-15.9-.9-31.7-1-47.6-.1-9 .7-18 1-27 .1-2.5 1-3.5 3.3-3.5 4.1 0 8.2-.2 12.3.1 1 .5 2.3 1.7 4 2.5z"/><path d="m257.9 42.2c5.3 0 9.9-.1 14.6.1.9 0 2.3 1.2 2.5 2 1.6 7.6 2.8 15.3-.1 22.8-1.5 3.9-.8 7.7-.4 11.5.2 2 0 4-.1 5.9-.2 3.9-.8 7.8-.7 11.6.2 9.3 1 18.6 1.1 27.9.1 7.7-.4 15.4-.3 23.1 0 4.1.6 8.2.9 12.3 0 .4.2.9.1 1.3-1.1 4.7-1.3 9.6-2.2 14.1-1.1 5.9-.5 11.4.2 16.9.5 3.8-.1 6.7-1.4 10-1.4 3.7-4.2 4.8-7.7 4.8-10-.2-20-.9-30-.5-4.7.2-8.9 0-13.4-1.8-2.4-1-5.4-.3-8.2-.3-1.9 0-3.3-.5-3.7-2.6-1.1-6.3-2.3-12.7-3.5-19-.1-.6-.3-1.4 0-1.9 2.7-5.6-.3-11-.7-16.4-.2-2.8-.4-5.7-.1-8.5.9-8.4 1.2-16.6-.6-24.9-.7-3.5.3-7.3.3-11 0-4.9-.2-9.9-.1-14.8 0-1.7.6-3.3.6-5 0-5.7-.1-11.4-.2-17.1-.1-4.8-.4-9.7-.6-14.5s0-9.7-.4-14.5c-.4-5.1-.4-10 3.6-13.9 2.5-2.4 4.4-2.5 9.2-.1 2.6 1.3 3.7 3.3 3 6.3-.3 1.1-.3 2.3-.7 3.4-1 3-.2 5.6 1.6 8 1.6 2.1 1.9 4.1.3 6.4-.6.9-.7 2.2-.9 3.3-.5 3.9-1 7.9-1.4 11.9 0 .4-.2.9-.1 1.2 2 4.3.5 8.5-.2 12.7-.3 1.8.7 3.7 1.2 5.6.1.4.5.8.5 1.1 0 4.9 1 10.1-.5 14.5-2.2 6.9-1.1 13.6-.8 20.4.3 8.1.6 16.2.9 24.4 0 .8-.3 1.9 0 2.5 3.5 6.3.6 12.6-.1 18.8-.2 1.8-1.9 4.6.7 5.3 3 .8 6.3.2 9.5.1.2 0 .6-.8.7-1.3.7-9.3 2.5-18.7 1.6-27.8-1.1-11.1-.5-22.2-.6-33.3-.1-7.8.6-15.7.3-23.5-.3-8.7-1.8-17.5-2-26.2-.2-9.9.3-19.9.8-29.8 0-1 1.9-2.7 2.9-2.8 3.9-.1 7.9.3 11.8.7.5.1 1.3.9 1.4 1.5.8 3.9 1.9 7.5 1 11.8-1.9 9-2.4 18.1.3 27.1.1.4.4.9.3 1.2-2.7 4.6 0 9.3 0 13.9 0 3 .5 6.2 0 9.1-1 6-.1 11.8.8 17.6.1.7.5 1.6.3 2.2-3.3 8.1-1 16.6-1.5 24.8-.3 4.5.1 8.9 1.5 13.4.8 2.7-.5 6.1-.7 9.2-.3 3.4-.7 6.9-.5 10.3 0 .8 2.2 2.1 3.5 2.1 2.1 0 4.4 0 5.7-2.5 3-5.9 3.2-12.3 3-18.6-.4-15.2-1.4-30.4-1.6-45.6-.2-11.7.6-23.5.5-35.2-.1-12.7-.7-25.4-1-38-.2-1-.2-2.2-.2-3.7z"/><path d="m161.2 267.9c-5.5 0-11.1-.6-16.5.2-4.9.8-9.6 1.6-14.6 1.4-1.9-.1-3-.6-3.5-2.4-.3-.9-.7-1.8-.9-2.7-1.8-7.2-1.1-8.3 5.8-10.4 3.2-1 6.1-1.7 9.5-.5 1.6.6 3.8 0 5.6-.1 10-.6 20-1.4 30.1-1.6 6.3-.1 8.2 2.4 8.5 8.6.1 3.6-3.6 7.6-7.2 7.6-5.6-.1-11.2-.1-16.8-.1z"/><path d="m181.6 229.1c-1.3 2.8-2.4 5.7-3.9 8.3-.4.7-2 1-3 .9-6.2-.3-12.4-1-18.7-1.2-3.1-.1-6.2.9-9.3 1.1-6.4.5-12.8.9-19.2 1.2-.6 0-1.7-1.2-1.9-1.9-.7-2.5-1.1-5.1-1.6-7.7-.8-4.1 1.1-7 5.3-6.6 9.8 1.1 19.1-2.9 28.9-2.3 5.7.4 11.4.4 17 1 5 .6 5.6 1.7 5.6 6.8.3.1.6.3.8.4z"/></svg>