<svg enable-background="new 0 0 400 400" viewBox="0 0 400 400" xmlns="http://www.w3.org/2000/svg"><path d="m165.7 333.8c-.5-5.6-1.1-10.9-1.4-16.1-.1-1.2.6-2.7 1.4-3.5 4.9-5.1 9.9-10.1 15-15 .9-.9 2.5-1.5 3.8-1.6 9.6-.6 19.2-1 28.8-1.5.6 0 1.2-.1 2.2-.3-1.3-4.8-2.7-9.3-3.8-13.9-1-4.3-1.8-8.7-2.6-13-.1-.3 0-.7-.1-.9-2.3-2.9-3.1-6-1.8-9.6.1-.4-.2-1.2-.6-1.4-3-1.5-2.7-4.5-3.1-7.1-1-6.9-2-13.8-3.2-20.7-.4-2.3-1.9-4.4-2.6-6.7s-1.6-4.8-1.6-7.2c-.1-4.2.3-8.5.6-12.7.1-.8.2-1.7.6-2.4 3.9-6.8 3.7-14.2 3-21.6-.3-3.5-.7-7-.5-10.4.3-5.2 3-9.3 7-12.7 2.7-2.3 5.3-3.3 8.9-2 4.8 1.6 9.8 2.5 14.7 4.1 3.1 1 5.9 1.1 8.8-.3 3.7-1.8 7.6-1.9 11.7-1.9 8.9.1 17.7-.3 26.6-.5 9.1-.1 18.2-.5 26.9 3.1 4.6 1.9 7.3 4.9 8.1 10 1.5 9-.6 17.7-2.3 26.4-4.9 24.4-14.8 47.2-22.9 70.5-2.3 6.8-4.9 13.5-7.4 20.5 5.6 4.3 12 5.9 18.8 6.6.6.1 1.3.2 1.9.1 8-.5 15.5 1.8 22.6 5.2 6.3 3 13.2 2.8 19.8 3.7 6.4.8 12.8 1.4 19.5 2.1-.5 2.8-.7 5.4-1.4 7.9-.3 1-1.6 1.7-2.6 2.3-4 2.4-8 4.6-12 7-.8.5-1.5 1.3-1.9 2.1-2.1 4.7-6.3 5.8-10.7 5.8-6.6 0-13.1-.4-19.7-.7-3.2-.1-6.4-.5-9.5-.3-14.1.9-27.8-1-41.3-4.9-2.3-.7-4.5-1.8-6.8-2.4-2-.6-4.1-.9-6.2-1.2-4.4-.5-8.9-.4-13.2-1.3-10.3-2.3-20.4-1.1-30.6.3-4.9.7-9.9.8-14.8 1.5-1.7.2-3.6 1.1-4.9 2.3-5.8 5.2-11.8 10-19.4 12.2-.4-.2-.9-.1-1.8.1zm57.1-43.4c.8.1 1.3.1 1.8.1 10.6-.2 21.2-.3 31.7-.7 1.9-.1 4-1.3 5.6-2.5 7.4-5.8 10.5-14.1 12.4-22.9 2-9.6 3.7-19.4 8.3-28.2 2.6-4.9 3.9-9.9 4.2-15.4.3-5.3-3.5-8.5-8.5-6.4-7.8 3.2-15.8 4.1-24.1 4.7-9.6.7-19 2.1-28.8 3.3.4 5 .7 9.8 1 14.5 9.7 2.2 19.1 5.1 28.7 6.2 8.2 1 11.9 4.8 13.6 12.3.5 2.5.1 3.8-2 4.3-2.7.7-5.6 1.3-8.4 1.5-7.9.6-15.8.7-23.7 1.3-4.7.4-6.8 2.5-7.9 7.3-.5 2.2-.6 4.6-1.7 6.4-3.1 4.5-2.3 9.1-2.2 14.2zm63.2-99.3c.1.4.1.8.2 1.1 3.5-.7 7.1-1.2 10.6-2.2 1.6-.4 1.9-1.8 1.3-3.6-1.8-5.7-5.7-8.6-11.4-9.7-8.1-1.6-16.2-1.2-24.3 0-11.5 1.7-23 3.8-33.4 9.4-2.7 1.5-3.2 2.7-1.3 5.1.6.8 2.1 1.3 3.2 1.4 11.7.2 23.5.4 35.2.2 6.7-.1 13.3-1.1 19.9-1.7z"/><path d="m214.5 119.5c3.3-3.1 6.4-6.2 9.6-9.2 2.5-2.3 3.3-5.3 3.1-8.4-.5-7.1-1.4-14.1-2.1-21.1-.2-2.2-.6-4.4-.9-6.6-.8-6.3 2.2-9.4 8.5-8.8 5.4.6 10.8 1.7 16.3 2.3 3.1.3 4.4 2 5.3 4.6 2 6.2 2 12.5 1.2 18.8-.5 3.5-1.1 6.9-1.9 10.3-.8 3.2.5 5 3.2 5.9 2.6.9 5.3 1.8 8 1.8 6 0 12-.5 18.1-.7 2.3-.1 3.7-.9 4.2-3.3 1.5-6.6 3.2-13.1 4.4-19.8 1.5-7.7 5.2-10.9 12.4-9.6 1.6.3 3.2 1.4 4.7 2.3.9.5 1.4 1.5 2.2 2.2 5.7 5 7 10.9 3.7 17.7-3.1 6.3-1.2 12.9-1.3 19.4 0 2.4-.7 3.9-2.6 5.3-3.9 2.8-8.1 4.6-13 4.1-14.4-1.5-28.6.4-42.7 2.6-13.9 2.1-27.8 2-41.8 1.6-4.3-.1-8.7 1.2-13 2.1-3.4.7-6.7 1.8-10.1 2.7-9.2 2.5-17.1-.8-24.6-5.5-.8-.5-1.3-1.6-1.6-2.6-3.1-13.1-5-26.4-5.1-39.9 0-1.1 1-2.6 1.9-3.1 7.1-4.1 15.5-3.5 22.4 2.6 6.9 6 8.8 12.9 8 21.4-.6 6.4 2.2 9.3 8.4 9.7.8.1 1.7-.1 2.4-.4 5.8-2.4 9-3.4 12.7 1.6z"/><path d="m151.8 286.3c4.2 2.4 4.9 6.1 4 10-1.1 5.1-2.7 10.2-4.2 15.3-.1.5-.3 1.1-.7 1.4-4.7 3.6-9.4 7.3-14.2 10.7-.6.4-1.9-.2-2.3-.3-1.7 1.1-3 2.3-4.6 2.9-6 2.3-12.1 4.5-18.1 6.7-1.1.4-2.2.6-3.4.6-3.5.1-7-.4-10.3.2-5.4.9-10.6.5-15.7-1-10-3-19.9-6.3-29.8-9.6-.8-.3-1.6-1.6-1.7-2.5-.2-2.6.1-5.3-.1-7.9-.2-2.4.7-4 3-4.3 3.1-.4 6.3-.8 9.3-.4 4.5.6 8.8 2 13.2 3.1.4.1 1 0 1.2.3 2.9 3.8 6.7 2.2 10.4 1.8 5.7-.6 11.6-.3 17.3-1.3 4.9-.8 9.7-3 14.5-4.4 3.1-.9 6.3-1.9 9.5-2.2 4.5-.4 8.1-1.5 10.7-5.7 1.5-2.4 4.9-3.5 6.9-5.7 2.2-2.2 3.5-5 5.1-7.7z"/><path d="m121.5 138.9c-11.7 3-23 1.7-34.2-1.6-8.1-2.4-16.5-3.6-25-3.8-2.7-.1-6.3-3.4-7-7.2-.4-2.3-.1-4.8.3-7.2.1-.8 1.5-1.7 2.4-1.9 6.5-1.8 13-4.1 19.6-4.8 11.8-1.2 23.7-.5 34.4 5.7 7 4 10.1 11.3 9.5 20.8z"/><path d="m93.8 225.6c-9.3 3.3-18.3 4.3-27.6 1.2-5.5-1.8-11-3.8-16.6-5.2-7-1.7-11.3-6.8-15.8-11.6-2.4-2.6-.8-11.4 2.2-13.1.5-.3 1.4-.1 2.1 0 10 1.5 20 2.9 30.1 4.4.9.1 1.9.4 2.6.9 5.2 3.2 10.2 6.7 15.6 9.6 5.6 3.1 7.5 7.7 7.4 13.8z"/></svg>