<svg enable-background="new 0 0 400 400" viewBox="0 0 400 400" xmlns="http://www.w3.org/2000/svg"><path d="m39.9 193.7c-.9-5.6-1.7-11-2.6-16.9 3.7.3 7.2.5 10.7.8 7.2.6 14.3 1.8 21.5 1.7 6.5-.1 13.1-1.2 19.4-2.8 2.7-.7 4.8-3.7 7.3-5.4 1.4-.9 3.1-1.7 4.8-1.9 4.6-.5 9.2-.8 14.5-1.2-3.1-4.6.6-6.3 3-8.7 9.8-9.5 20.1-18.2 32.5-24.1 4.7-2.2 7.7-6.1 9-11.3.5-2.2-.2-3.4-2.2-3.6-5.3-.7-10.7-2-16-1.8-13.8.6-27.3 2.7-40.6 6.5-1.2.3-2.6.4-3.7 0-14-4.3-28.4-6.5-43-7.7-.9-.1-1.9-.4-3-.6-.4-7.8-.9-15.5-1.2-23.2 0-.7 1.2-2 2.1-2.1 6.8-1 13.6-3 20.3-2.5 13.2 1 26.3 3.1 39.3 4.9 12 1.6 24 2.5 36.1 1.7 3.9-.3 6.6-1.9 7.2-5.8s.6-8 .3-12c-.6-7.2-.2-14.2 4.1-20.4 1.3-1.9 2.8-2.8 5.2-2.6 6.1.6 12.2 1 18.6 1.5-.1 1.2-.2 2.2-.4 3.2-.6 3.6.3 6.7 3.2 9.1 5.3 4.3 8 9.8 8.4 16.7s4.4 10.3 11.5 9.3c5.6-.8 11-2.7 16.5-4.3 1-.3 1.9-1.3 2.6-2.2 6.7-8.5 9.6-18.2 10-28.9.4-9.1 4-16.7 10.5-23.1 1.2-1.2 2.1-1.5 3.8-.6 8 4.3 14.9 9.6 16.5 19.2.6 3.3.2 6.7.3 10.1.1 5.7.9 11.2 4.2 16 1.4 2.1 3 3 5.8 2.9 16.6-1 33.2-1.9 49.7-2.6 2.6-.1 5.4.5 7.9 1.5 5.2 2.1 10.1 4.8 15.8 5.3.9.1 2.1 1.3 2.4 2.2 1.4 4 2.5 8.1 3.9 12.8-4.2 1.8-8.3 4-12.7 5.2-14.5 4.1-29.5 5.8-44.3 4.3-8.6-.9-16.3.7-24.3 2.2-7.9 1.5-10.7 9-6 15.7 2.8 4 5.6 8 8.6 11.8 1.6 1.9 1.8 3.6.6 5.7-1.7 3-3.3 6.1-5 9.2-.8 1.5-1.9 2.9-2.5 4.4-1.8 4.2.2 8.1 4.7 8.4 9.4.6 18.8 1.1 28.2 1 7.9-.1 15.8-1.5 23.7-1.3 4.5.1 9 1.8 13.4 3.2 1.6.5 3 2.1 4.1 3.4 3.5 4.4 3.3 6-.9 9.6-5.9 5.1-11.8 10.2-17.2 14.9 4.3 7.5 8.4 14.8 12.7 22.3-4.4 1.6-8.1 2.8-11.8 4.3-4.1 1.6-6 5.1-7.3 9.3 7.2 5.7 14.3 11.3 21.8 17.2-4.5 3-8.6 5.9-12.9 8.5-.9.5-2.2.4-3.4.4-15.6.5-31.3.8-46.9 1.5-5.1.2-10.2 1.5-15.3 2.4-11.3 1.9-17.2 9.5-20.3 19.8-1.8 6-1.4 11.8.3 17.8 2.4 8.4 4.5 17 6.3 25.5 1.7 8.2-.1 16-4.3 23.2-2.6 4.5-6.5 7.1-11.6 8.1-1.6.3-2.5 0-3.3-1.5-6.6-13.8-13.3-27.6-20-41.4-.8-1.7-.2-2.4.9-3.4 4.7-4.5 9.3-8.9 13.8-13.6 6.5-6.8 5.6-14.8 3.6-23-.2-.6-1.3-1.2-2.1-1.3-18.1-1.5-36.3-3-54.4-4.5-3.6-.3-7.2-.4-10.7-.9-1.9-.2-2.8.4-3.8 1.9-3.5 4.9-7 9.8-10.8 14.5-2.9 3.5-6.6 5.9-11.2 6.6-1.9.3-2.8-.1-3.2-2.3-2.4-12.1-1.8-24.3-.2-36.4 1.4-10.6 3.8-21 4.9-31.6.6-6 .4-12.4-.8-18.2-2.6-11.8-12.5-14.7-21.4-14.3-1.4.1-2.8 1.4-4 2.3-9.5 7.2-20 10.3-31.9 7.5-5.4-1.3-10.7-2.5-16.1-3.5-7.7-1.4-15.3-2.6-23.2-4zm120.7-34.1c1.2 3 2.4 6.2 3.8 9.3.4.9 1.5 1.8 2.4 2 5.5 1.1 11 1.9 16.5 3.1 8.9 2 17.6 1.7 24.5-4.6 8.4-7.7 16.1-16.1 24-24.1-3.4-5.3-7.4-8.6-12.4-10.7-4.1-1.8-8.1-4.1-12.2-6-.9-.4-2.3-.9-3.1-.5-4.9 2.2-10.3 3.9-14.4 7.1-10 7.6-19.3 16-29.1 24.4zm-1.4 46.1c3.8 7.2 4 7.9 11 8.9 8.9 1.3 17.8 2.4 26.8 2.6 5.5.1 11.2-.9 16.5-2.4 7.4-2 8.1-6.7 2.2-11.9-1.5-1.4-3.5-2.5-5.5-3.1-3.1-.8-6.4-1.2-9.7-1.4-9.7-.5-19.4-.9-29.1-1.2-1.1 0-2.6.3-3.4 1-3 2.3-5.8 4.9-8.8 7.5zm95.6-1.4c1.3 2.9 2.3 5.6 3.8 8.2.5.9 2 1.9 3 1.8 6.4-.3 12.9-.6 19.2-1.4 10.9-1.4 21.1-4.9 30.3-11.8-4.1-1.8-7.9-3.5-11.8-5.1-.8-.3-1.9-.2-2.8 0-7.3.8-14.6 1.8-22 2.5-6.9.6-13.7 1.2-19.7 5.8zm-43.4 37.6c-14.6-7.5-29.9-5.1-45-5.7-.5 3.1-.9 5.7-1.3 8.5.6.2 1.1.4 1.6.5 8.2 1.4 16.4 2.9 24.6 4.2 7.9 1.2 14.1-2.2 20.1-7.5z"/><path d="m353.5 339.7c2 5.7-1.8 8.4-6.9 11-7.1 3.7-14.4 3.7-21.9 3.2-.9-.1-2-.8-2.5-1.6-9.9-14.8-16.1-30.8-16.1-48.9 0-8.8 0-8.8 8.1-12 3.1-1.2 6.2-2.2 9.2-3.5 1.9-.9 3.1-.4 4.4 1.1 10 12.4 18.5 25.8 25 40.3.3.8.7 1.6.7 2.4.1 2.3 0 4.8 0 8z"/><path d="m191.6 351.7c-.8 1.8-1.4 3.8-2.5 5.5-1.7 2.6-3.6 5.2-5.8 7.5-1 1-2.8 1.9-4.2 1.8-3.8-.4-7.5-1.3-11.2-2.2-.7-.2-1.7-1.3-1.8-2-1.1-10-4.6-19.2-8.6-28.4-3.6-8.1-2.5-16.4 1.2-24.2 2.2-4.7 7.4-6 11.5-2.8 2.9 2.3 5.7 5.2 7.7 8.3 6.2 9.7 10.3 20.3 12.7 31.6.3 1.5.4 3.1.6 4.7.1 0 .3.1.4.2z"/><path d="m285.6 352.5c-3.6 1.2-5.7-1.1-7.6-4.7-6.8-12.3-8.4-25.6-8.7-39.2-.1-2.9 5.6-7.2 8.5-6.7 8.4 1.4 14.3 6.2 17.9 13.7 4.4 9.2 6.8 18.9 6.9 29.1 0 1-.8 2.4-1.6 3.1-5 4-7.3 4.7-15.4 4.7z"/></svg>