<svg enable-background="new 0 0 400 400" viewBox="0 0 400 400" xmlns="http://www.w3.org/2000/svg"><path d="m146.8 283.1c-8 5.9-16.6 10-26.3 11.5-.8.1-2.1-.7-2.6-1.5-1.5-2.2-2.6-4.5-4.3-7.5-1.5 2-2.7 3.7-4 5.5-3.1-2.5-5.5-4.6-8.2-6.5-6.9-4.9-13.7-9.9-20.9-14.4-11-6.9-18-16.5-21.2-28.9-1.1-4.3-2.2-8.6-3.3-13 1-.6 1.9-1.1 2.8-1.6 1.7-1.1 2.4-2.5 1.6-4.6-.4-1.2-.7-2.5-.7-3.7 0-3 .9-5.2 4.5-5.7 2.7-.4 5.1-1.8 7.7-2.6 9.1-2.8 18.1-5.7 27.3-8.1 8.5-2.3 17.2-3.7 25.6-6 10.1-2.7 20.5-2.8 30.8-3.7 1-.1 2.1-.2 3.4-.3.2-2 .6-4 .7-5.9.1-1.8-1.7-2.8-2.9-1.5-4.3 4.4-9.7 4.5-15.3 4.5-4.5 0-9.2-.2-13.6.6-9.5 1.7-18-1.3-26.4-4.6-4.9-1.9-9.6-4.4-14.3-6.8-12.9-6.5-25.8-13.1-38.7-19.7-1.2-.6-2.4-1.5-3.1-2.6-2.2-3.4-1.5-5.3 2.2-6.8 6.1-2.5 12.4-2.1 18.8-1.8 5.3.2 10.3 1.5 15.1 4.1 8.9 4.8 18.7 6.7 28.6 7.5 8.7.7 17.6 1 26.2 0 11.6-1.2 20.8-7.5 28.4-16.9-7.4-3.8-14.5-7.4-21.7-11-.9-.5-1.9-1-2.8-1.4-11.7-5-22-12.1-30.8-21.3-.2-.2-.4-.5-.7-.6-6.8-3.5-9.2-9.2-8.8-16.5.2-4-.2-8-.3-12.1 0-.5-.1-1.2.2-1.5 3.2-3.4 3-7.7 3.1-11.9 0-1.2.6-2.6 1.4-3.4 6.1-5.8 8.6-13.1 9.2-21.3.2-2.9 4-5.9 7-5.8 9.5.3 16.2 6.3 18 15.7 1.9 10.1.7 20-1 29.9-.5 2.8-.5 5.7-1.2 8.5-1 3.7.3 5.9 3.2 7.9 8.4 5.9 17.8 9.8 27.4 13 7.8 2.6 15.7 4.9 23.7 7.2.9.3 2.6.1 3-.5 6.5-10.9 10.2-22.5 7.1-35.4-.2-.7-.5-1.5-1-1.9-4.2-3.5-8.2-7.4-12.8-10.3-7.3-4.5-15-8.2-22.5-12.4-1.1-.6-2.2-1.9-2.6-3.2-1.3-3.9-2.2-7.9-3.4-12 9.4-3.7 18.6-6.6 28.8-5.5 3.3.4 5.9 1.1 8.5 3.3 7.5 6.2 15.8 10.4 25.8 11.2 1.8.1 3.7 1.3 5.2 2.5 6.9 5.8 13.8 11.5 20.4 17.6 9 8.2 10.8 18 5.6 29-.4.9-1.2 1.7-1.8 2.6-5.8 8.7-11.6 17.4-17.3 26.2-2.4 3.7-2.1 3.8 1.5 6.4 4.9 3.6 10.8 4.7 16.4 6.3 5.7 1.7 11.6 3.5 16.7 6.6 12.8 7.7 26.8 12.4 40.4 18.2 11.4 4.9 22.4 10.4 33.5 15.8 2.4 1.2 4.6 3.1 6.3 5.1 3 3.7 1.6 8.7-2.7 10.8-4.5 2.3-9.2 4.3-13.5 7-3.7 2.2-7.4 2.4-11.5 2.2-7-.2-13.9-.1-20.7-.1 1.4 1.1 3.2 2.4 4.9 3.9 4.9 4.1 7.5 8.9 5.9 15.6-.8 3.4-2.8 5.6-5.5 6.9-7.7 4-12.3 10.4-16.8 17.5-6.4 10.1-15.9 17.2-26.3 23-1.1.6-2.2 1.2-3.4 1.8-11.8 6.1-16.6 6.4-28.6.8-1.7-.8-2.5-3.5-3.8-5.4 10.2-8.8 17.6-19.3 24.1-30.3 2.1-3.6 3.6-7.6 5.3-11.5.9-2 .2-3.4-1.6-4.8-7.6-5.7-16.4-7.6-25.7-7.7-7.6 0-15.2-.2-22.9 0-1.4 0-3.3 1-4.1 2.1-4.5 7-5.6 14.5-3.8 22.7.8 3.6.2 7.5-.1 11.3-.1 2 0 3.5 1.7 5 2.8 2.6 4 6.2 2.8 9.9-1.2 3.8-2.6 7.6-4.8 10.9-3.7 5.5-5.6 11.4-5.4 17.9.1 4.5.8 9 1.3 13.6.4 3.7 1.8 6.9 5 9.1.9.7 1.9 1.5 2.5 2.4 4 5.6 9 6.4 15.6 4.4 8.9-2.7 18.1-4.3 27.2-6.4 1.7-.4 3.3-1.4 5-1.8 1.3-.4 2.9-.7 4.2-.4 2.4.6 3.9.2 4.6-2.3 1.6-5.5 5.2-9.3 9.5-13 12.2-10.1 24.1-20.6 36.1-31.1 3.1-2.7 6.5-3.8 10.8-2.6.1 1.1.8 2.5.4 3.5-4.6 11.5-8.3 23.5-17.1 32.7-8.7 9.1-18.5 17-29 24.1-23.7 16-49.7 27-76.6 36.1-1 .3-2.4 0-3.4-.5-2.7-1.2-5.1-3-7.9-4-8.4-3-13.2-9.1-16.2-17.1-3.6-9.6-5.1-19.5-4.1-29.6 1.8-18.1 4.3-36.1 6.2-54.2 1.1-9.8.4-19.7-1.5-29.4-.3-1.3-.7-2.7-1.2-3.9-2.5-6.6-4.5-7.9-11.5-7.3-19.9 1.7-39.8 3.4-59.8 4.9-2.7.2-2.7 2.1-3.6 3.7-.8 1.5-.5 2.5.6 3.9 2.4 3 4.9 6.2 6.5 9.7 3.3 7.1 8 12.2 15.3 15.2 4.5 1.8 8.8 4.1 13.1 6.4 9.6 4.8 16.7 11.2 22.9 20.4zm118.3-90.1c-6.1-4.1-11.8-8.3-17.9-11.9-10-5.9-19.3-12.9-30.7-16.3-3.8-1.1-7.5-2.7-11.2-4.4-1.7-.8-2.9-.7-4.3.5-4.8 4.3-9.6 8.6-14.3 13-.6.6-.9 1.9-.8 2.8.3 2.6.8 5.2 1.6 7.7.3 1 1.4 2.2 2.3 2.4 4.6 1.3 9.2 2.7 13.9 3.2 12.7 1.2 25.5 2.2 38.2 2.8 7.6.5 15.2.2 23.2.2z"/></svg>