<svg enable-background="new 0 0 400 400" viewBox="0 0 400 400" xmlns="http://www.w3.org/2000/svg"><path d="m168.7 179.8c-3.5-.3-7-.7-10.5-.8-5-.2-10.1-.2-15.1-.3-2.1 0-3.4-1.3-3.5-3.3-.5-6.4-1.6-12.6-.3-19.2 1-5.2-.3-10.9-.6-16.4-.1-2.5-.2-5.1-.2-7.6 0-2.4.8-4.7-1-7.2-.9-1.2.4-3.9.3-5.8-.3-5.2 2.3-7.3 7.2-7.9 9.6-1.1 19.2-2.9 28.8-3.7 4.5-.4 8.6 1.8 11.7 5.4 2.9 3.4 3 8.9 1.1 12.8-1.5 3.2-2.3 6.7-3.1 10.1-.4 1.6-.1 3.4-.1 5.1 0 5.5 1.4 11.4-4.3 15.6 1.3.6 2 1 2.8 1.3 2.4 1.2 4 2.6 2.9 5.7-.4 1.3-.2 2.7-.4 4.1-.3 1.6-.6 3.1-1.2 4.6-.8 2.3-.9 4.2.6 6.5 2.6 4 5.7 5 10.1 3.6 3.6-1.1 7.5-1.5 11.3-2.3.5-.1.9-.4 2-.9-3.1-1.4-5.7-2.8-8.3-3.8-2.2-.9-3.2-2.1-3.5-4.6-.6-4.1-2-8.1-3-12.2-.2-.8-.3-1.7-.1-2.4.6-3.4 1.1-6.9 1.8-10.3.8-3.9 1.3-7.7-.6-11.4-.5-1 0-2.4-.1-3.6-.1-1.7-.4-3.4-.6-5.1-.5-3.7-1.3-7.4-1.6-11.1-.1-2.2 3.1-3.9 6-4 8.3-.3 16.7-.7 25-1.2 3-.2 6-.9 9.1-1.1 2.6-.2 7.3 4.9 6.7 7.5-2.3 10-.8 20-.8 30.1 0 1.9-.2 3.8-.5 5.7-.7 6.2-1.7 12.3-2.2 18.5-.4 3.8-1.1 7.3-3.5 9.2-5.6-1-10.5-1.9-15.5-2.9-2.9-.6-3.7 1.7-4.4 3.6-.8 2.1 1 2.7 2.5 3.7 1.6 1.1 2.7 2.9 4 4.4-1.8 1.3-3.4 3.3-5.4 3.9-3 .9-6 1.1-7.8 4.9 7.7.1 14.7 3.8 22.3 1.2 1.2-.4 2.5-.5 3.7-.6 1.7-.1 3.7-.9 4.6 1.5.8 2-.5 6.4-2.2 7.1-7.6 3-15.2 5.9-23.7 3.6-4.7-1.3-5-.8-6.1 3.8-.2.9-1 1.8-1.8 2.5-2.2 1.9-4.6 3.7-7.1 5.6 1.7 1.4 3.2 2.5 4.9 3.9 4.8-6.4 11.3-9.3 19-9 6.2.2 12.4 1.1 18.6 1.8.7.1 1.6 1 1.9 1.7 1.2 3.3-1.3 7.8-4.8 8-4 .3-8 .1-12 .1-3.7 0-7.4-.4-11.1-.2-3.6.1-6 3.7-4.7 7.5.9 2.7 3.9 2.5 6 1.7 5.6-2.2 11.3-1.1 16.9-.7 1.8.1 4 .1 4.2 2.9.3 4.2-.9 6.6-3.9 7-4.6.6-9.3.8-13.9 1.2-2.4.2-4.9.2-7.2.8-3.6 1-5.4 4-5.4 7.7 0 2.3 1.7 2.3 3 2.3 6.8-.2 13.7-.6 20.5-.9 3.3-.1 6.5-.5 9.8-.3 4.3.3 6.5 2.4 7.6 6.5-4.1 3.6-9.2 4.1-14.5 4.4-4.3.2-8.6.7-12.8 1.5-4.2.7-8.2 1.5-12.5.5-2.4-.6-5.2.4-7.8.7-.8.1-1.8.6-2.5.4-6.8-2.9-12.7 2.4-19.3 2-4.3-.3-5.8 2.7-4.5 6.8 1.8 5.8 1.3 6.7-4.3 9.4-1 .5-1.5 1.7-2.4 2.4-1.1.9-2.6 2.4-3.3 2.2-2.2-.8-5.3-1-5.7-4.2-.3-2.5-.4-5.1-.4-7.6-.1-14.8-.1-29.6-.1-44.4 0-7.2.1-14.4.2-21.6 0-1.3.3-2.7-.1-3.8-.6-1.4-1.6-3.2-2.9-3.7-1-.5-2.8.4-4.1 1-5 2.4-9.9 5.1-15 7.4-.9.4-2.4-.1-3.6-.4-1.4-.3-2.8-.7-4.6-1.1-.7-5.2-.7-5.2-4.2-4.8-.6-2.2.2-3.3 2.5-3.6 3.3-.5 6.7-1.2 10-1.8 2.3-.4 4.3-.6 5.7-3.1.8-1.4 3.5-1.8 5.3-2.7.6-.3 1.6-.3 2-.8 3.5-5.1 9.4-6.6 14.3-9.7 3.5-2.2 6.7-4.9 10-7.4-.1-1.1-.1-1.5-.2-1.9zm-5.5 20.3c0 2.4.9 3.6 3.4 3.5 1.9-.1 3.9.4 5.7 0 7.7-1.8 15.3-3.8 22.8-5.9 2.5-.7 3.4-3.3 1.6-5.3-.7-.8-2.4-.9-3.7-1.1-6.3-1.2-12.5-1.8-18.3 1.9-3.7 2.3-7.5 4.5-11.5 6.9zm14.2 63.1c.1.3.2.5.3.8 3.9-1.4 7.8-2.9 11.7-4.3 3.4-1.3 2.6-4 2.1-6.4s-2.3-3.8-4.6-3.4c-4.7.7-9.4 2-14.1 2.9-1.9.4-2.6 1.3-2.6 3.2-.4 6 .8 7.3 7.2 7.2zm2.7-40.4c7.7 0 10.7-2.6 10.4-8.9-.2-3.7-2.2-5.6-5.8-4.7-4.1 1-8 2.5-11.9 4-.6.2-1.4 1.3-1.4 2 .1 5.7 1.8 7.4 7.5 7.6zm19.7-62.6c.3 2.8 1.7 4 4.2 4.2 1.3.1 2.5.6 3.7.7 5.5.8 10.9 1.2 16-1.8 2.1-1.3 3-3.2 2.1-5-.8-1.4-2.9-2.5-4.6-2.9-1.5-.4-3.3.3-5 .5-5.6.8-11.3 1.1-16.4 4.3zm-27.8 71.7c0 2.3-.2 4.4.1 6.4.1 1 1 2.6 1.6 2.7 6.8.6 13.7 1 19.7-3.6-2-3.9-4.2-7.8-9.1-7.7-4.1.2-8.1 1.4-12.3 2.2zm-19.9-69.1c1.5 5.5 1.5 5.5 5.8 5.7 1.6.1 3.2 0 4.7.3 4.9 1.2 8.2-1.4 11.4-4.5-1.7-4.4-5.8-7.7-8.8-6.7-4.5 1.5-8.7 3.4-13.1 5.2zm3.3-12.3c5.5-1.3 10.6-2.4 15.5-3.8.8-.2 1.7-1.7 1.8-2.6.2-2.7-1.2-4.2-3.8-5.4-5.6-2.7-10.2-.1-15.2 2.2.7 3 1.2 6.1 1.7 9.6zm-.9-27.9c1.1 1.9 1.7 4.4 2.9 4.8 4.9 1.6 9.8 1.4 14.1-1.8 1.7-1.3 1.9-5.3.3-5.8-2.4-.8-5.2-1.5-7.6-1-3.1.5-6 2.3-9.7 3.8zm54.1 2.9c5.3 1.9 10.8 2.2 14.1.4 1.2-.6 2.7-2.4 2.5-3.2-.3-1.3-1.8-2.7-3.2-3.2-1.9-.7-4.1-.7-6.2-1-5.8-1-8.1 1.2-7.2 7zm16.7 16.5c-2-2.5-4.4-3.4-7.3-3.5-2.6-.1-5.2-.7-7.8-.7-1.3 0-2.5.6-3.8.9.7 1.8 1.1 4.9 2 5.1 5.6.9 11.5 1.8 16.9-1.8z"/><path d="m362.8 163.2c-6.6 6.7-12.9 13.3-19.4 19.5-3.4 3.2-7.6 5.6-12.5 5.5-2.4 0-4.8-.9-7.1-1.7-4.6-1.7-9-4.2-14.2-3.5-1.4.2-2.9-.4-4.3-.8-7.1-2.1-14.1-4.3-21.2-6.4-.4-.1-.8 0-1.7 0-.2 2.2-.6 4.3-.7 6.5-.8 14.5-1.6 28.9-2.2 43.4-.2 4.5.4 9.1.6 13.6 0 .7.1 1.7.5 2.1 2.7 2.4 2.1 5 .8 7.8-2 4.1-1.3 8.3-.6 12.4 1 5.9 1 11.3-3.5 16-.7.7-1 1.8-1.5 3-2.6 0-5.4.2-8.1-.1-2.5-.3-4.4-1.5-4.9-4.4-2.8-16.1-3.1-32.3-1.6-48.6.4-4 2.5-7.8 3.2-11.8.9-5.6 1.2-11.3 1.8-17 0-.4-.1-1.2 0-1.2 3.8-1.7.3-3.4.2-5.2-.2-2.1.2-4.3.5-6.5.3-2.8 1.1-5.6 1-8.4 0-3-1.5-3.8-4.5-3.9-1.6 0-3.1-1.1-4.7-1.6-1.8-.6-3.6-1.2-5.8-2-.2-3.6-.5-7.7-.7-12.3 1.3.5 2.7.6 3.1 1.2 1.4 2.4 3.6 2.1 5.8 2.1 3.7.1 7.3-.3 10.9 2 1.8 1.2 5.1.3 7.8 0 3.3-.3 6.2.5 9.4 1.6 4.5 1.6 9.5 1.8 14.3 2.5 3.5.5 7 .6 10.4 1.4 8.3 1.9 15.9-1.1 23.7-2.9 6.2-1.4 12.2-3.2 18.3-4.9 2.4-.7 4.5.1 6.9 2.6z"/><path d="m70.6 252.5c-.5-.6-1-1.3-1.6-1.6-1-.4-2.3-.8-3.2-.5-.7.3-1.3 1.6-1.4 2.6-.4 4.3-2.6 6.5-6.9 5.7-4-.8-7.9-2.3-11.8-3.4-.3-.1-.5-.3-.8-.5-4.2-4.5-8.4-9.1-12.7-13.6-.1-.1 0-.2-.1-.6 1-.7 2-1.6 3.4-2.6 1.6 2.6 3.8 2 6 1.3s4.5-1.3 6.8-1.6c1.5-.2 3 .2 4.5.2 1.1.1 2.3.4 3.3.1 5.9-1.7 11.7-3.5 17.5-5.3 1.8 4.6 2.8 4.7 6.1.9.6-.7 1.2-1.5 1.9-2.2 3-3.4 5.4-8.1 10.2-6.1 1.9-2.2 3.3-3.7 4.5-5.3.5-.7.8-1.7.8-2.6 0-1-.6-2-1-3.3 2.1-.9 4.1-1.7 6.4-2.7-.6-1.6-1.1-3.1-1.7-4.9 3.3-1.5 3.6-4.3 3.7-7.6.2-4.8.9-9.6 2-14.3 1.7-7.4-.1-14.5-.8-21.7-.1-.7-1.1-1.7-1.8-1.8-2.1-.4-4.5-.8-6.5-.4-7.3 1.5-14.5 3.4-21.9 5.1-.2-.5-.5-1.6-1-2.9-1.4.7-2.7 1.3-4.2 2-.9-1.4-1.9-2.6-2.6-4-2-3.9-.8-7.3 3.4-8.1 8.1-1.6 16.2-2.7 24.3-4.1 6.8-1.1 13.5-.8 20 1.5.6.2 1.2.2 1.9.3 5 .2 6.9 1.4 6.8 6.2-.1 7.2-1.1 14.5-2.1 21.6-.4 2.8-1.7 5.4-2.7 8.1-1.4 3.6-1.5 7.2-1.1 11.2.3 2.5-.7 5.5-2.1 7.7-3.4 5.8-7.3 11.4-11 17.1-.1.2-.2.4-.4.5-4.6 2.3-5.4 7.9-9.3 10.8-4 2.9-8 5.9-11.9 8.9-4.2 3.3-8.5 6.6-12.9 9.9z"/><path d="m249.2 128.3c1.3-.2 2.7-.8 4-.6 14 1.3 28 2.8 42 4 3.4.3 6.9-.3 10.4-.8 2.8-.4 3.7 1 4.1 3.5.7 4.7-5.4 12.5-10.7 12.4-12.3-.3-24.3-1.6-35-8.3-4.9-3.1-9.9-6.1-14.8-9.2 0-.3 0-.7 0-1z"/><path d="m75.4 119.2c4.3-1.1 8.6-2.6 13.1-3.1 7.5-.9 15.2-1.3 22.8-1.9.2 0 .4-.1.6 0 4.4 1.3 8.7 3.1 13.4 3.7 2.4.3 2.5 4.8.4 6.5-6.4 5.2-13.9 5.7-21.7 4.6-6.5-.9-13-1.6-19.5-2.4-4.5-.5-8.1-3.1-9.1-7.4z"/></svg>