<svg enable-background="new 0 0 400 400" viewBox="0 0 400 400" xmlns="http://www.w3.org/2000/svg"><path d="m118.4 234.8c.4 5.9 4.2 9.8 7.6 13.7 1.1 1.3 3.1 2.3 4.9 2.7 5.5 1.1 10.7.9 16.1-2.2 10.7-6.2 20.6-13.2 29.5-21.8.6-.6 1.4-1.1 1.8-1.8 6.8-10 14.1-19.8 20.2-30.3 5.7-9.7 9.4-20.4 8.5-32 0-.1 0-.2 0-.3-.4-7.1-.4-7.1-7.2-8.6-3.4-.7-6.8-1.6-10.3-2.1-1.8-.2-3.7.3-5.6.5-1.9-4.5-1.9-4.6 2.6-6.4 1.7-.7 3.3-1.5 5-2 1-.3 2.4-.3 3.1.3 1.7 1.3 3 .9 4.5-.2 2.4-1.8 4.8-3.4 7.3-5 2.6-1.7 3.9-4.1 4.2-7.1 1-10.2 2-20.4 2.8-30.6.6-7.2-.6-14-3.3-20.8-2.8-6.8-5-13.9-7.3-20.9-1-2.9-2.1-5.9-2.5-9-.5-4-1.2-8.3-.1-11.9.6-2 4.7-3.4 7.5-4 1.7-.3 4.3.9 5.6 2.3 6.5 6.8 12.9 13.8 16.4 22.7 3.6 9.1 3.3 18.2 0 27.5-1.2 3.5-.7 7.7-.4 11.5.4 5.7 1.3 11.3 2.2 17 .2 1.2 1.2 2.7 2.2 3.3 4.5 2.6 9.2 3.3 14.3 1.2 2.7-1.1 5.7-1.7 8.5-2.5 3.9-1.1 7.1.4 10 2.7 2.2 1.7 2.8 3.9 1.3 6.5-.4.7-.8 1.5-1.1 2.3-1.1 2.8-2.5 4.8-6.1 4.4-1.5-.2-3.5.6-4.7 1.6-6.4 5.3-14.1 7.4-21.9 9.6-2.2.6-4.5 1.4-6.5 2.5-2.8 1.5-2.6 3.7.1 5.1 3.3 1.7 6.6 3.4 10 4.8 1.4.6 3.1.7 4.6.7 9.9-.6 19.8-1.3 29.8-1.9 1.1-.1 2.6-.3 3.4.3 3.1 2.2 6.6 1.9 10.1 1.8 6-.3 11.8.4 17.5 2.4 8.3 2.9 17.1 2.8 25.7 3.4 7.7.5 11.6 3.8 13 11.3-7.3 3-14 6.6-22.1 8.5-12.7 2.9-24.7-.3-37-1-2.1-.1-4.3-.2-6.3-.6-1.6-.4-3.1-1.4-4.7-2-2.1-.8-4.3-1.7-6.5-2.2-3.7-.7-6.5-2-8.9-5.2-1.6-2.2-4.5-3.9-7.2-4.8-6.6-2.3-13.5-2.3-20.4-1-1 .2-2.4 1.4-2.7 2.4-1.7 5.1-3.3 10.3-7.1 14.3-.3.3-.7.8-.6 1.1 2 4.4-1.3 7.8-1.9 11.7-.1.9 0 1.7 0 2.9-3.4 1.2-2.3 4.1-1.9 6.8.5 2.7 2.1 3.8 4.9 3.7 10-.3 19.4-2.6 27.8-8.2 7.9-5.2 16.8-6.1 25.9-4.9 1.6.2 2.8 3 4.5 5-3.7 2.8-7.1 5.3-10.5 7.8-.6.4-1.6.6-2.4.5-3.5-.5-6.3.9-9 2.9-3.9 2.9-8.1 5.4-11.9 8.4-4.2 3.4-8.9 4.1-14 3.8-6.2-.4-12.4-1.1-18.6-1.4-4.2-.2-7.6 1.7-11.2 4.1-4.6 3-6.6 7.5-9.8 11.2-4.9 5.5-11.1 9.3-17.7 12.5-5.4 2.5-10.7 5.2-14.7 10.2-2.8 3.5-7.5 2.8-11.6 3.1-4.9.3-9.9.2-14.9.8-5.3.7-5.3 1-5.3 6.1 0 5.4-.1 10.8 0 16.2.1 3.5-.8 6.4-3.4 8.8-2.4 2.2-4.4 4.6-3.4 8.3.1.5-.2 1.4-.6 1.6-2.6 1.1-4.3 2.9-5.4 5.5-.2.5-1.2.9-1.8 1-2.8.5-5.6.9-8.7 1.4-1.4-2.7-2.9-5.3-4.2-8.1-.3-.6-.2-1.6.1-2.4.8-2.5 1.5-5.1 2.5-7.5 2.3-5.6 2.9-11.3 3-17.3.1-4.6 1.4-9.2 2.6-13.6 1.5-5.9 1.7-11.7.7-17.6-2-10.5-.1-12.7 11.1-13.5z"/><path d="m124 47.1c7.2 2.5 14.1 4.7 20.9 7.3 9 3.4 7.8 11.3 3.5 16.1s-7.8 9.8-10.1 15.5c-3.8 9.5-11.2 16-17.6 23.4-.9 1-1.2 2.5-1.8 3.7-.3.6-.9 1.1-1.4 1.5-1.2.7-2.4 1.4-3.6 1.9-2.5 1-3.9 2.6-4.4 5.5-.4 2.2-1.9 4.4-3.5 6-1.7 1.7-4.1 3-6.3 4.1-5 2.4-8 6.4-9.7 12.6 2.4.2 4.8 1.1 6.6.4 5.2-2.1 10.3-4.7 15.2-7.5 4.1-2.3 8-5.1 11.9-7.7 3.2-2.1 6.5-4 9.4-6.4 3.2-2.8 6.8-4.3 10.9-5.3 4-1 8.1-2.4 11.7-4.3 9-4.8 18.2-7.9 28.5-5.7 3.7.8 4.9 2.1 3.7 5.7-1.4 4.1-3.2 7.9-6.9 11-8 6.7-17.5 9.5-27 12.8-24 8.2-47.9 16.5-71.9 24.6-6.3 2.1-12.9 2.5-19.4 1.1-1.3-.3-3.1-1-3.4-1.9-.3-1 .6-2.7 1.4-3.7 9.9-10.5 19.9-20.8 29.7-31.3 2.3-2.4 4.5-5.1 6.2-8 6.5-11.3 15.3-20.7 23.9-30.4 5.5-6.3 6-12.9 3.7-20-2-6.3-2.5-12.4-.9-18.7 0-.6.3-1.1.7-2.3z"/><path d="m237.4 289.7c-1-5.7-1.9-11.4-3.2-17-1.3-5.5-5.5-7.9-10.7-9.1-.8-.2-1.9 0-2.5-.5-1.2-.9-2.6-1.9-3.3-3.3-.8-1.6.2-2.8 1.8-3.8 11.3-7.1 22.7-13.9 35.1-18.8 3.1-1.2 5.7-3.5 8.7-5.1 2.1-1.1 4.3-2.5 6.6-2.7 7.4-.8 9.6 1.1 11.2 8.5.1.6-.2 1.6-.7 2.1-1 1.1-2.3 1.9-3.2 3.1-4.4 5.8-10.1 9.2-17.4 10.4-5.6.9-8.9 5.3-8.6 10.9.3 4.7.9 9.5 2.4 13.9 2.7 8.1 4 16.1 3 24.6-.1 1.3.1 2.8.8 3.8 1.6 2.4 1.5 4.8.9 7.5-1.2 5.5-3.8 10.2-7.3 14.5-4 5-6.4 11-10.8 16-4.8 5.3-8.2 11.7-15.2 14.8-1.9.8-3.2 2.7-4.9 4-1.1.8-2.2 1.6-3.5 2.1-2.1.7-3.3.1-3.7-2.4-.6-4.8 1.9-8.7 3.6-12.6 2.7-6 6.3-11.7 9.1-17.7 1.7-3.7 2.5-7.8 3.7-11.7.7-2.4 1.1-5 2.1-7.3 3.3-7.7 4.5-15.8 4.9-24.1.5 0 .8 0 1.1-.1z"/><path d="m103.4 177.7c-.6 2.2-.9 4.3-1.7 6.2-1.8 4.8-1.2 9.4.7 13.9 1.4 3.4 2.9 6.8 4.6 10.1.9 1.7.6 2.8-.7 4.1-4.9 5.2-9.8 10.5-14.6 15.9-1.3 1.5-2.4 3.5-2.9 5.4-.9 2.9-2.6 4.8-5.6 4.7-4.2-.2-7.2 1.7-10.2 4.2-2.1 1.8-4.3 3.4-6.6 5-3.6 2.6-7.5 3-11.4 1-1.3-.7-2.5-2.3-2.9-3.7-1-3.5 1.6-9.2 4.6-11.1 6-3.8 11.3-8.2 14.8-14.4.9-1.6 1.9-3.1 3.1-4.4 6-7.2 9.2-15.5 10.1-24.8.5-5.4 3.3-10 6.6-14.2.5-.6 1.6-1 2.3-.9 3.5.7 6.5 1.9 9.8 3z"/><path d="m147.7 204.8c1.2-2.9 2.2-5.8 3.6-8.6 1.9-3.9 4.3-7.5 6.2-11.4 2.4-4.9 5.5-9.2 9.4-13 3.2-3 7.4-3.5 10.8-.6 3.1 2.7 6.1 5.5 9 8.5 2.1 2.1 1.2 4.9-.4 6.6-7.4 7.8-15.1 15.5-25.3 19.8-2.9 1.2-6.1 1.6-9.2 2.4-2.7.6-3.8-.7-4.1-3.7z"/></svg>