<svg enable-background="new 0 0 400 400" viewBox="0 0 400 400" xmlns="http://www.w3.org/2000/svg"><path d="m219.6 299.7c-4.3 5-9.7 7.4-15.1 9.7-4 1.7-7 4.3-8.1 8.7-.5 1.9-.1 3.3 1.5 4.7 11.8 10.8 25.9 17.4 40.8 22.6 9.4 3.3 18.9 6.4 28.3 9.8 1.4.5 2.8 2.2 3.3 3.6.7 2-.2 3.8-2.3 5-4.5 2.5-13.7 2.3-17.2-.6-4.3 3.3-9 1.9-13.7 1.2-16.8-2.3-31.5-10-45.9-18.4-3.9-2.3-7.4-5.3-11.2-7.7-2.2-1.4-4.7-2.2-7-3.5-1.9-1.1-3.9-2.2-5.2-3.8-2.6-3.2-4.7-6.8-7.2-10.1-1.3-1.7-2.8-3.2-4.3-4.6-2.8-2.5-6-3.2-9.9-2.4-7.4 1.4-13.9 3.5-19.6 9.1-5.3 5.2-11.8 9.2-18.1 13.3-2.7 1.7-6.1 2.4-9.6 3.7.5-5.6 1.5-9.6 5.2-13 5.5-4.8 10.7-9.9 15.5-15.5 5.7-6.5 10.7-13.6 16-20.4 2.2-2.9 4.3-6 5.7-7.9 3.5-.7 6-.9 8.4-1.7 3.3-1.1 4.7-.8 5.4 2.5 1.2 6.2 4.8 10.4 9.9 13.6 4.7 3 9.3 6.3 14.2 9 4.7 2.7 5.9 2.5 9.6-1.3 5-5 9.9-10.1 14.4-15.5 1.8-2.2 2.7-5.2 4-7.9-4.3-1.8-8.8 1.7-12.4-1.4 7.7-6.9 15.4-13.6 22.8-20.6 7.3-7 14.3-14.3 19.9-24.3-6.6 0-12.4-.1-18.1 0-7.9.1-15.8.3-23.8.6-2.4.1-4.6 0-6.3-2-2.8-3.3-2.7-4.7.6-7.4 6.3-5.2 13.2-8 21.6-7.7 9.3.3 18.6-.1 27.9-.1h.3c1.4-.5 2.9-.9 4.4-1.5-.4-.6-.5-.9-.5-.9-9.3.8-17.6-2.9-26.2-5.2-1.1-.3-2.2-.8-3.3-1-4.6-.6-7.7-3.2-10.4-6.9-1.2-1.7-3.4-3-5.5-3.8-4.5-1.6-9.1-2.7-13.7-4.1-4.1-1.3-7.6-.6-11 1.9-4.4 3.3-8.9 6.5-13.9 9.3.4-1.4.8-2.9 1.3-4.3 3-8.3 5.9-16.7 9-25 .9-2.3.2-3.7-2-4.4-3.3-1.1-6.1.2-7.1 3.5-1.8 6-4.8 11.2-9.5 15.4-4.3 3.8-7 9.3-12.6 11.8-1.4.6-2.1 2.8-3.1 4.3-1.9 3.1-4.5 5.1-7.8 6.7-4.3 2-8.2 4.7-12.3 7-.8.5-1.5 1-2.6 1.7-.4-4.5-1-8.5-1.2-12.6 0-.8 1.3-2 2.3-2.4 5.6-2.3 11-4.9 15.1-9.6 5.3-6.1 9-13 10.8-21.1-8-1.1-15.7-2.3-23.5-3.1-3.9-.4-8-.1-11.9 0-2.1 0-4.1.4-4.4-2.6 9.9-5.5 20.3-8.9 31.6-9.5 1.7-.1 3.4-.6 5-.6 3.5.1 5.1-1.9 4.9-4.8-.5-5.4-1.4-10.9-2.4-16.3-.3-1.8-6.1-1.8-7.8-.1-1.7 1.8-3.2 3.7-4.9 5.4-1 1.1-2 2.4-3.3 2.9-2.1.8-5.1 2.2-6.6 1.3-1.6-.9-2.1-4-2.6-6.3-.2-.9.8-2.3 1.7-3 4.3-3.6 8.7-7.1 13.1-10.6 5.5-4.3 9.6-9 12.6-14.7-4.5-.8-9-1.5-13.4-2.2-5.1-.9-10.2-1.6-15.3-2.6-1.9-.4-3.8-1.2-5.5-2.2-.8-.4-1.5-1.7-1.4-2.6.1-.6 1.4-1.4 2.2-1.6l26.1-6.6c3.3-.8 4.5-3 2.8-6-2-3.4-4.2-6.9-6.9-9.7-3.2-3.5-6.4-6.7-7-11.7-.3-2.4.1-3.7 2.7-4.3 9.3-2.1 18.5-3.5 27.5 1.3 1.3.7 2.7 1.3 4.1 1.7 1.1.3 2.2.2 3.3.2-.5-1.2-1-2.4-1.5-3.6-.1-.2-.5-.4-.8-.5-3.3-.6-4.8-2.5-4.7-5.9 0-.8-.9-1.6-1.3-2.4-.3-.8-.6-1.7-.6-2.5.1-1.6.6-3.1 1-5 7.1-2.8 17.6-.4 22.8 5.6 5 5.7 9.2 11.8 10.3 19.6.4 2.8 2 5.5 3.3 8.2 1 1.9 2.8 2.6 4.9 1.7 2.7-1.3 5.7-2.3 8-4.2 8.6-6.9 17-14 25.3-21.2 2.6-2.3 4.6-5.2 6.6-8 4.1-5.6 8.1-11.4 12.3-17.4 3.1 2 6.2 3.8 9.1 5.9 2.1 1.5 2 4.9-.1 7.7-1 1.3-2.2 2.6-3.2 3.9-4.3 6-3.6 13.6 1.1 19.3 10.9 13.1 19.8 27.4 24.8 43.9 1.5 4.9 3.2 9.8 4.1 14.9.6 3.4-.1 6.9 0 10.4.3 9.7-4.3 17.3-10.3 24.4-3 3.5-5.7 7.3-8.4 11.1-.5.7-.7 2.3-.2 2.8 4 4.7 3.1 10.3 3.2 15.7v6.1c3.3.8 5.9.6 8.2-2.2 2.9-3.6 6.3-6.7 7.7-11.4.9-3.2 4.3-1.7 6.3-1.4 4.2.6 8.4 8.4 7.1 12.3-.4 1.2-1.3 2.4-2.2 3.4-8.1 8.4-17.1 15.7-27.7 20.9-1.6.8-2.8 2.7-3.8 4.3-1.1 1.7-1.8 3.6-2.5 5.5-3.5 9.9-9.1 18.5-16.2 26.3-1.8 2-4.1 3.7-6.3 5.3-5.1 3.8-10.3 7.5-15.4 11.2-2.4 1.7-2.6 5.7-.4 7.7.2.1.4.2.5.3 10.1 4 17.1 12.2 25.3 18.8 5.9 4.7 12.6 8.5 18.9 12.8 3.2 2.2 6.5 4.3 9.6 6.7 2.3 1.8 2.4 2.7 1.9 5.7-9.9.7-19.5-1-28.9-4.3-6.5-2.3-11.6-6.4-16.5-11-3.8-3.6-8-7.2-12.5-11.2zm33.1-193c-3.4-6.8-6.6-13.7-10.2-20.3-1.3-2.3-3.5-4.2-5.4-6.1-2-1.9-4.2-2.6-6.7-.6-1.7 1.4-3.9 2.2-5.5 3.7-7.2 6.6-15.7 11-24.5 14.8-5 2.2-5.5 3.9-3.9 9.2.6 2.1.5 4.4.7 7h1.5c11.1-.6 22.1-1.1 33.2-1.8 7-.4 13.7-2.1 20.8-5.9zm-8.4 50.6c-1.7-3.7-4.9-3-7.8-2.6-7.1 1-14.2 2.3-21.3 3.3-6.1.8-12.2 1.2-17.9-2.1-.6-.3-2-.1-2.4.4-1.7 2-3.1 4.2-4.5 6.4-.8 1.3-1 3.2-2.1 4.2-3.5 3-4.2 7.2-5.2 11.3-.6 2.5-.1 5.3-.1 7.9 11.7.5 51.6-18.2 61.3-28.8zm16.4-24.3c-.2-2.2-.4-4.4-.6-6.6-.1-.8-.3-1.7-.6-2.5-1.5-4.6-5-6.2-9.6-4.9-4.7 1.3-9.7 2-14.4 3.4-12.1 3.4-24.1 6.9-36 10.9-1.3.4-2.2 3.9-2.2 5.9s1.7 3.1 4.3 3c11-.7 21.9-1.1 32.9-1.6 6-.3 11.7 0 17 3.3 2.2 1.4 4.3.6 6.2-1.3 2.9-2.8 3.3-6 3-9.6zm-107 18.5c4-.7 5.4 1.7 6.8 4.4.6 1.1 1.8 2.4 2.7 2.5 2.6.1 5.4 0 7.8-.8 2.6-.8 5.3-2.1 5.5-5.7.4-6.1 1.5-12.2 1.6-18.3.1-5.9-.3-11.8-1-17.6-.3-2.6-5.1-4.3-6.8-2.6-5.3 5.4-10.5 11-15.9 16.6 4.4 8 4.4 17.4-.7 21.5zm74.2 41.9c.1 1.9.4 3.5 2.5 2.8 2.5-.8 4.1.4 5.9 1.8 3.2 2.5 6.5 5 10.1 6.9 2.7 1.5 5.2.1 5.7-2.9.5-3.4.8-6.9.4-10.3-.4-3.7-4.5-6.2-7.7-5-5.6 2.2-11.1 4.5-16.9 6.7zm-63.3-116.9c-1.9 4.6-.9 8.4 1.7 12.1 1.4 2 3.1 2.1 5.4 1.4-1.6-5-2.1-10.2-7.1-13.5z"/><path d="m97.6 287.6c1.5-2.2 2.7-4.9 4.7-6.6 16.4-14.9 33.8-28.9 48.9-45.3.3-.3.6-.5 1.1-.9 1.1 1.7 2.1 3.3 3.2 4.8.5.8 1.1 1.7 1.9 2 3.4 1 4.4 3.8 4.9 6.7.6 3.1 2.3 5.2 5 6.5 4.7 2.1 9.5 4.2 14.3 6 6.1 2.4 11.4 5.5 13.9 12-7.8 2.5-28.8-1.4-46.6-8.5-2.5.6-4.2 1-5.9 1.4-1.6.4-3.5.2-4.9 1-6.7 3.8-13.4 7.6-19.9 11.8-6.2 4-12.4 8-19.6 10-.3-.3-.7-.6-1-.9z"/></svg>