<svg enable-background="new 0 0 400 400" viewBox="0 0 400 400" xmlns="http://www.w3.org/2000/svg"><path d="m169.4 212.7c-1.1-3.4-.4-5.3 3.1-5.9 12.1-2.3 22-9.5 32.8-14.8 3.3-1.6 6.3-3.5 10-1.1.4.2 1 .3 1.5.2 5.3-1.4 9.7-4.2 12.3-9.2.3-.5.4-1.2.6-1.8.1-.3 0-.6-.1-1.1-1.5-.3-3.1-.7-4.6-.9-5.1-.7-9.8-2.3-13.6-6.1-.9-1-2.8-1.3-4.2-1.4-1.9-.2-3.8.1-5.7.3-5.8.5-9.1-1.2-12.7-7.3 4.2-.9 8.1-1.8 12-2.7.4-.1.8 0 1.3 0 7.1 0 14 .2 21 2.9 7.3 2.8 15.6 3.5 23.5 4.6 4.5.6 6.8-1.8 7.8-6.2 1.7-8-2.7-13.9-6.5-19.9-1-1.5-3.7-2.4-5.8-2.6-5.3-.4-10.6-.2-15.9-.3-5.6-.1-8.3-2.4-7.9-6.8.1-1.1 1.1-2.7 2-3 3.7-1.3 7.6-2.5 11.5-3.3 4.1-.8 8.4-1.2 12.6-1.5 4-.2 6.1-2.5 6.8-6 .7-3.6 1-7.3 1-11 .1-7.8-.2-15.6-.3-23.5 0-1.1.2-2.3.4-3.3 11.7-.7 19.8 5.9 20.6 17.4.4 5.4-.3 11-1.1 16.4-.5 3.3.6 5 3.4 5.6 3.6.7 7.3 1.1 10.9 1.4 2.4.2 4.9-.2 7.2.3 4.8 1.1 7.8 6.5 7.4 12.8-7 .7-14 1.5-21 2.1-5.1.5-5.9.7-6.4 5.5-.8 7.1-1 14.3-1.5 22 8.4-1.9 16.5-1.1 23.1-6.4 1.9-1.5 4.1-2.7 6.2-3.8 5.4-2.9 10.2-6.5 13.8-11.4 1.9-2.5 4.1-3.4 7.1-2.7.4.1.9 0 1.3.1 2.3.8 5-.5 6.9 2.1 2.7 3.6 4.8 7.3 3.2 12-.3 1-1.4 2.2-2.4 2.5-7.3 2.2-14.6 4.1-21.9 6.2-3.4 1-6.9 1.9-10.2 3.3-1.7.8-3.3 2.4-4.3 4-2.5 4.1-.9 7.8 3.6 9 20.2 5.7 40.5 11.4 60.7 17.1 1 .3 2 .6 3.1.9v13.7c-5.4 1.7-10.7 1.3-16.1-.3-7.1-2.2-14.4-4.1-21.5-6.3-3.2-1-6.2-3.2-9.3-3.4-11.6-.8-22-6-32.9-9-6.9-1.9-14-2.8-21.1-4.1-.9-.2-2.4-.1-2.9.5-4.4 4.5-10 6.4-15.9 7.2-14.9 2.1-28.6 8.1-42.5 13.4-3.5 1.3-7.3 2.1-11 2.6-6.5.3-13 .5-19.4 1z"/><path d="m200.7 214.7c6 2.3 11.7 1.6 17.5.4 3.5-.8 7.3-.6 10.9-.9 8.4-.7 16.8-1.3 25.2-2.2 10.2-1.2 20.3-2.7 30.5-4 1.5-.2 3.1.3 4.7.3 3.1 0 6.2.3 9.2-.1 12.4-1.5 20.5 4.3 21.8 16.8.7 6.7.1 13.5-.1 20.2-.1 4.3-.6 8.6-1 13-.4 4.1-1.1 7.9-2.7 11.9-1.9 4.7-2.1 10-2.8 15.1-.8 6-.6 12.3-2 18.2-2.3 9.8-7.6 12.2-17.7 10.8-6.9-1-14.1-1-21.1-.7-17 .9-34 2.2-50.9 3.5-6.5.5-12.1-2.4-18.1-3.9-.6-.2-1.1-1.6-1.4-2.5-2.8-11.3-1.8-22.7-1-34.1 1.3-19.1 1.3-38.2-.7-57.3-.4-1.3-.3-2.7-.3-4.5zm101.6 14.9c3.3-3.6 2.9-5.9-.6-7.9-.7-.4-1.5-.9-2.3-.9-4.3-.3-8.7-.9-12.9-.5-16.2 1.8-32.3 4-48.4 6.1-2.1.3-4.1 1-5.9-.9-.3-.3-1.3-.2-1.7 0-3.7 2.4-8 2.4-12.2 2.9-1 .1-2.6 1-2.8 1.8-2.6 8.3-2.3 16.5 1.9 24.2.5 1 1.8 2.1 2.8 2.2 7.7.5 15.4 1.2 23 .8s15-2.6 22.6-3.1c10.1-.7 20.2-.6 30.4-.7 4.3-.1 8.1-3 8.8-6.7.7-4.2 1.6-8.3 2.5-13.1-1.4-1-3.2-2.5-5.2-4.2zm-84 74.3c.4.1.8.2 1.2.4 5.6-4.5 11.9-3.7 18.3-2.9 4.3.5 8.7.7 13 .3 13.8-1.4 27.5-3.2 41.2-4.9 1.1-.1 2.3-.6 3-1.3 5-5.7 6.6-12.3 5.1-19.7-.2-1.1-1-2.8-1.8-3-4.5-1-9.1-2.3-13.7-2.2-10.3.1-20.7.9-31 1.6-11.7.8-23.2 2.3-33.7 7.8-1 .5-2 2-2.2 3.2-.5 3.4-.9 6.9-.8 10.4.1 3.4.9 6.9 1.4 10.3z"/><path d="m160.5 262.9c-6.1 2-6.2 2-8.7-2.6-5.2-9.2-10.5-18.4-15.8-27.5-.8-1.4-1.9-2.9-3.2-3.9-6.7-5.1-9.5-12.8-12.7-20-1.6-3.5-3.6-5.7-7.5-6.1-1.3-.1-2.6-.7-4.3-1.1 0 2.7-.1 5.2 0 7.7.5 13.3 1.5 26.6 1.6 39.9.1 9.2-.9 18.4-1.7 27.5-.7 8.9-1.5 17.7-.1 26.6.4 2.7.5 5.5.3 8.2-.2 1.8-.8 3.8-1.9 5.2-2.6 3.4-4.9 2.6-6.8-.9-4.8-8.6-4.9-17.6-3.1-27 .8-4.1.3-8.4.5-12.6.5-15.1 1-30.2 1.5-45.3.1-2.6.4-5.3.4-7.9-.1-1.7-.7-3.4-1.2-5.7 0-1.7.3-4.2-.1-6.6-.7-5.3-1.8-10.6-2.8-16.1-5.7 1.7-11.1 3.3-16.6 5-.6.2-1.3.7-1.7 1.3-3.7 4.8-8.7 8-14.1 10.6-3.8 1.8-7.7 2.5-12 1.8-1.8-.3-4.1.4-5.8 1.2-3 1.6-6 2.3-9.3 1.7-.9-4.9-.9-5 3.4-6.7 19.7-7.7 35.2-21.2 50.1-35.6 2.4-2.3 4.8-4.5 6.9-7 1.9-2.4 4.2-3.1 7.1-3 3.7.2 7.3.1 11.3.1v11.3c0 5.3 3.5 8.3 8.8 7.6 5-.7 9.5-2.3 13.8-5.1 10.1-6.6 20.4-12.8 30.6-19.3 1.9-1.2 3.9-1.9 5.5-.3 1.3 1.2 2.4 3.3 2.4 5 0 4.7-1.7 8.3-6.7 10.6-11.8 5.6-23.4 11.9-35 18-3 1.6-4.9 8.1-3.5 11.1 2.3 4.8 5.1 9.1 8.7 13.1 8.3 9.3 15.3 19.5 18.8 31.6 1.4 4.8 1.9 10 2.9 15.2z"/><path d="m31.7 148.4c7.5-6 16.4-8.5 25.8-8.1 12.9.5 25.2-1.9 37.5-5.4 3.7-1 5.2-4.3 5.4-7.4.3-5.6.1-11.4-.6-17-.8-5.9-2.4-11.8-3.6-17.6 9-5 16.9-.3 17.3 10.4.1 4-.8 8-.8 12 .1 4.8.5 9.7 1.3 14.4.5 3 2.7 4.1 6.2 3.7 4.8-.5 9.7-.5 14.5.2 12.7 1.7 25.1 0 37.5-2.2 5.5-1 10.6.5 15.1 3.4 1.5 1 2.7 3.1 3.1 4.8.8 3.7-.2 4.6-4 4.8-21.4 1.3-42.9 2.6-64.3 3.9-5.2.3-10.2 1.4-14.7 4.4-3.3 2.1-4.6 1.6-6.9-1.4-1.6-2.2-3.7-3.5-6.6-2.7-8.5 2.6-17.3 2.6-26 3.4-6 .6-11.9 2.7-17.9 4-7.5 1.8-13.9-.9-18.3-7.6z"/></svg>