<svg enable-background="new 0 0 400 400" viewBox="0 0 400 400" xmlns="http://www.w3.org/2000/svg"><path d="m196.7 215.2c1.1.5 1.8.9 2.7 1.3.5-2.7 1-4.8-.7-7.4-1.1-1.7-.8-4.5-.6-6.7.2-3.5.3-6.3-3.7-8.2-3.1-1.5-5.5-4.5-8-7.1-2.9-3-6.2-5-10.3-5.8-1.7-.3-2.9-.2-4.1 1.5-1.1 1.6-2.8 2.7-4.1 3.9-.3 1-.4 2.2-1.1 3-9.3 11.6-19 22.7-30.4 32.3-3.2 2.7-6 6-9 8.9-9.8 9.8-19.4 19.8-29.6 29.2-3.8 3.6-8.8 5.8-13.3 8.7-.3-.3-.7-.7-1-1 .6-1.6 1.2-3.2 1.8-4.8.2-.4.5-.7.6-1.1 4.5-11.6 12.5-20.6 21.8-28.4 3.5-2.9 5.8-6.5 8.9-9.6 8-8 16.6-15.4 24.6-23.4 5-5 9.3-10.7 13.8-16.1.9-1.1 1.3-2.6 2.1-4.4-8.1-.2-14.1-4.6-20.6-7.8-1.2-.6-2.4-2.1-2.7-3.4-2.1-9.8-4.9-19.6-5.8-29.5-1-10.9-.2-22 .1-33 .1-1.8 1.6-3.6 2.2-4.8-.4-2-.8-3.6-1.1-5.2-.1-.7 0-1.5 0-2.2-1.1-13.2.9-25.9 6.1-38.1.4-.9.9-1.9.7-2.7-2.1-7.1 3.6-8.9 7.9-10.7 14.5-6.4 29.7-9.7 45.7-7.7 2.6.3 5.3.4 7.9.5 3.2.2 3.4.5 1.8 4.2 1.2-.2 2.2-.3 3-.6 2.8-.9 5.4-.7 7.6 1.6.1.2.3.3.5.4 15.3 11.2 15.7 27.5 13.9 43.8-.8 7.5-4.6 14.7-7 22-.4 1.3-1.1 2.7-.9 3.9 1.3 6.6-1.8 12.1-4.9 16.9-8 12.4-16.9 24.3-25.3 36.3-1.1-.9-2.2-2.5-2.8-2.3-1.5.5-2.7 1.7-3.7 2.5.6 2 .8 3.6 1.6 4.9.4.6 2.1.8 2.8.5.8-.4 1.3-1.6 1.6-1.9 5.5 2.8 10.7 5.5 16 8.1 7 3.5 11.3 9 11.5 16.9.2 5.6-.3 11.2-.6 16.8 0 .9-.7 1.7-1 2.6-.2.7-.8 1.6-.5 2 2.3 3.3.4 6-1.3 8.5-3.6 5.6-7.8 10.8-11.3 16.4-2.3 3.7-4.4 7.7-5.9 11.9-1.2 3.2-.4 6.6 1.9 9.5 6.1 7.6 11.7 15.6 18.3 22.8 5.4 5.9 11.9 10.8 17.9 16.1 16.1 13.9 34.8 23.9 53.1 34.5 1.5.9 3 1.9 4.2 3.2 1.6 1.7 2.6 4 5.6 2.7.2-.1.6 0 .9.2 3.5 1.8 7.1 3.3 10.4 5.4 2.2 1.4 3.9 3.5 6.1 5.5-1.1.9-1.5 1.3-2 1.5-4.7 1.9-8 5.4-10.5 9.7-2.1 3.6-5.5 5-9.5 3.9-4.3-1.2-8.6-2.8-12.8-4.4-1.7-.6-3.1-1.8-4.8-2.4-17.4-7-30.5-19.9-44.2-32-6.5-5.7-13-11.3-17.6-18.9-2.5-4.2-7-7.1-10-11-6.2-7.8-12.6-15.4-17.8-23.8-2.8-4.7-4.5-10.8-4.4-16.2 0-5.6 1.8-11.6 4.3-16.6 4.4-8.8 9.9-16.8 15-25.3zm-58.6-115.6c.1.4.1.8.2 1.2 4.6 3.1 5.4 12.6 1.6 18.5 8.4 2.8 16.6 5.7 25.6 3.2 3.4-1 7-1.5 10.6-2 4.6-.7 9.1-.6 13.2 2.1.6.4 1.6.7 2.3.4 4.7-1.8 9.3-3.8 13.9-5.7-.5-2.5-1.4-4.7-1.3-6.9.2-4.2.8-8.4 1.5-12.6.5-2.8-.6-3.9-3.2-4.2-1.2-.1-2.3-.3-3.5-.2-6.6.3-13.3.7-19.9.8-6.3.1-12.6 0-18.8 0-.3-1.1-.7-2.5-1.1-3.8-.3-.1-.6-.2-.9-.3-.7 5.8-4.8 5.9-9 6.5-4 .4-7.5 1.9-11.2 3zm.2-32.4c-.2 10.5 6 15.7 14.5 14.4 4.4-.7 8.8-1.6 13.2-1.8 10.9-.5 21.8-.5 32.6-.9 2.4-.1 4.9-1 7.2-1.8.7-.2 1.4-1.6 1.3-2.5-.2-9.3-5.5-16.1-14.4-19.1-11-3.7-22.3-4.7-33.7-3-5 .7-10 1.4-15 2.4-1.2.2-2.8 1.4-3.2 2.5-1.2 3.7-1.9 7.7-2.5 9.8zm4.8 72.1c.3 4.3.4 8.3 1 12.2.6 3.6 2.4 6.7 6.4 7.9 8 2.4 16.1 2.6 23.9-.6 7.9-3.3 12.1-10.2 15.9-17.3 2-3.7-.5-7.5-4.8-7.1-13.9 1.5-27.8 3.2-42.4 4.9zm51.7 34.6c-1.3 2.3-3.3 3.5-2.9 5.9 1.1-1.7 4.9-1.8 2.9-5.9z"/></svg>