<svg enable-background="new 0 0 400 400" viewBox="0 0 400 400" xmlns="http://www.w3.org/2000/svg"><path d="m56 138.7c4.7 0 8.5-.6 12 2.2 2.3 1.9 5.3 1.3 8.2.3 3.3-1.2 6.8-1.8 10.3-2.6.4-.1 1.1.1 1.2-.1 2.5-3.3 6.2-1.7 9.3-2.5 2.2-.6 4.5-2 5.8-3.8 3.2-4.4 6.8-7.8 12.1-9.7 9.6-3.3 17.1-9.5 23.2-17.6 2.7-3.5 5.8-6.7 8.7-10.1 3.5-4 3.7-7.8-.1-11.4-3-2.9-6.5-5.3-9.9-7.8-1.4-1.1-2.8-.7-4.2.5-1 .9-2.7 1.5-4 1.4-6.6-.9-12.5 1.5-18.5 3.5-7.4 2.5-14.7 5.4-22.2 7.5-4.4 1.2-9.1 1.1-13.7 1.5-.6-3.6.7-4.9 3.3-3.7 2.2 1.1 3.1.3 4-1.6-.6-.8-1.1-1.6-1.9-2.7 8.6-4.6 15.6-12 25.6-13.7.4-.1 1-.2 1.1-.5 2.1-5.1 8-3.8 11.4-7s7.7-5.5 11.6-8.3c2-1.5 4.1-1.7 6.2-.5 3.6 2 7.4 3.8 10.5 6.4 8.6 7.1 16.2 15.2 21.7 25 2.2 3.8 2.1 3.9.4 6.9.1.2.1.5.2.6 4.9 3.7 5.1 10.4-.1 15.4-8.2 7.8-16 16.3-27.3 20.1-3.1 1.1-5.7 3.7-8.6 5.5.1.4.2.7.4 1.1 2.3.3 4.6 1.1 6.8.8 4.5-.7 8.6.5 12.7 1.8 8.2 2.5 16.4 5 25 5.6 1.1.1 2.1.8 3.2 1.3.3.1.5.4.8.6 8.3 5 14.1 11.9 15.7 22.2 1-1 1.4-1.3 1.9-1.8.2.4.4.6.4.9.8 6.8 1.7 13.6 2.4 20.5.1 1.2-.6 2.4-1 3.9 2.2 1.8 2.5 4.6 1.5 7.7-.7 2.1-1.1 4.4-2.2 6.3-2.3 4.2-2.6 8.6-2.4 13.2.3 9.1-3 17.5-6.5 25.6-5.1 11.7-12 22.6-20.4 32.3-1.9 2.2-4.6 4.1-7.3 5.3-2.8 1.3-4.5.2-4.5-2.8 0-3.3.4-6.7 1.4-9.9 2-6.3 4.5-12.5 6.7-18.3-9.3-1.4-18.4-2.5-27.3-4.2-2.9-.5-5.7-2.2-8.2-3.8-2-1.2-3.4-1.2-5.4 0-10.7 6.1-21.2 12.3-32.2 17.8-5.4 2.7-11.5 4-17.4 5.7-5.8 1.6-7.8 5.5-5.5 10.9 1.6 3.9 1.4 4.6-2.1 7-1.3.9-2.6 1.8-4 2.8 1 1.2 2 2.3 3.2 3.6-3.8 1.7-7.4 3.2-11 4.9-2.8 1.3-5.4 2.8-8.1 4.4-2.8 1.6-4.1 3.8-2.5 7.1.3.7.4 1.6.6 2.5-5.6-.2-9.2-3-11.3-8.1-1.4.6-2.3 1.1-3.8 1.8.4-2.6.5-4.8 1.1-6.8.2-.8 1.5-1.7 2.4-1.9 2.8-.5 5.7-.6 8.5-1.1 4.3-.8 6.5-2.2 7.2-6.7.6-3.9 1.7-7.6 2.4-11.5 1.2-7 4.4-12.9 7.6-19.2 8.5-16.8 13-34.6 8.5-53.7-2.2-9.3-4.2-18.5-6.4-27.8-.3-1.2-.7-2.6-1.6-3.3-5-4.5-6.9-10.4-6.9-16.8 0-4.4.8-8.7 1.3-13.1zm39 73.9c.2-.6.3-.9.4-1.2 5.7-11.9 14.3-21.7 23.5-30.9 4.6-4.5 7.7-9.7 9.9-15.7 2.2-6.2.6-9.1-5.9-10.3-1.3-.3-2.8-.5-4.1-.3-10.4 1.5-20.6 3.7-30.1 8.3-5.6 2.7-6.2 4.5-4.9 10.6.7 3.3.6 6.9.7 10.3.1 2.9-.4 5.9.1 8.7.5 3.4 2.2 6.6 2.7 10 1.5 10.4 3 20.9-.7 31.3-1 2.9-.2 6.6-.2 10.8 4.6-1.8 8.7-3.1 12.3-5 12.9-6.7 21.8-17.8 31.1-28.6.2.2.7.8 1.3 1.4.4-1.1.8-2 1.1-2.9 4.4.5 6.7 3.2 7.9 7 .9 2.9 1.7 5.9 2.7 8.8.3.9.9 2 1.8 2.5 7.4 3.9 15.1 7.3 23.6 7.8 2.2.1 5.7-.6 6.5-2.1 3.4-6.4 6.4-13.2 6.1-20.7-.2-4.5-3-6.9-7.5-7.1-4.3-.1-8.7-.2-13-.8-8.2-1.2-16.2-3.1-22.8-8.7-1-.8-3-1-4.4-.8-5.3.7-9.5 4-12.6 8-4.1 5.3-9.9 7.8-15.3 10.9-3.5 1.9-7 1.5-10.2-1.3zm53.5-44.3c0 4.1.1 7.3 0 10.5-.1 1.9.6 2.8 2.2 3.6 7.8 3.9 15.6 8.1 23.5 11.9 2.2 1 4.9 1 7.7 1.5.2-9.9-1.3-18.7-4.1-27.3-3.4-10.3-10.3-16.1-20.8-18.2-4.4-.9-7.6.7-10.7 3.4-1.5 1.3-2.1 2.9-1 4.8 1.3 2.2.3 3.9-1.5 5.2-1.1.8-2.5 1.3-3.5 2.1-.6.5-1.4 1.4-1.3 2 .1.7.9 1.7 1.6 1.9 2.5.6 5.2 1.8 7.9-1.4z"/><path d="m276.5 172.3c4.7 1.7 7.6 4.6 9.3 9.1 3.4 8.9 7.1 17.7 6.4 27.5-.1 1.4 1.1 2.9 1.8 4.4 1.3-.6 2.9-1 4-1.9 5-4.3 10-8.5 14.7-13.1 3-3 5.3-6.6 7.8-9.9 2.6-3.5 8.8-4.2 11.8-1.1 2.3 2.4 4.5 4.8 6.5 7.4 3.7 4.9 3.3 10.6-.8 15-2.7 2.9-5.5 5.6-8.3 8.3-.8.7-2 1.2-3 1.4-7.7 1.9-15.7 2.9-23 5.7-11.1 4.1-16 14.5-13.2 25.6.3 1.4 1.7 2.9 3 3.5 1.9.9 4.2 1.6 6.4 1.6 8.9 0 17.4 2.1 25.9 4.1 9.6 2.2 19.2 4.2 28.8 6.5 2.2.5 4.5 1.4 6.4 2.7 1.2.9 2.2 2.9 2.3 4.4.2 2-1.3 3.2-3.4 3.9-12.5 4.5-25.6 5.7-38.7 5.7-8.2 0-16.5-.5-24.7-.8-7.6-.3-11.5 3.2-13 13.9-.5 3.4-.4 7-.4 10.5.1 6.9-3.5 12.5-6.2 18.4-2.4 5.3-4.1 10.6-4.5 16.4-.5 5.9-2.2 7.3-8.9 7.8-.5-3.4-1.5-6.9-1.6-10.4-.1-9.9 0-19.9.5-29.8.2-3.8 1.9-7.5 2.8-11.3.5-2.1 1-4.3 1-6.5-.1-4-1.8-5.8-5.7-6.7-1-.2-2.1-.5-3.1-.7-3.5-.7-6.7-1.4-10.6.1-3.8 1.4-8.6 1.1-12.8.7-6.4-.6-12.8-1.7-19.1-3-1.5-.3-3.1-1.8-3.9-3.2-3.4-5.9-1.1-12.7 5.2-14.8 4.9-1.7 10.3-3.9 15-3.2 4.7.8 8.3-1.8 12.4-1.7 4.5.1 9.1 0 13.6.3 5.4.4 8.4-1.6 9.8-6.8 1.5-5.7.3-11.2-2.5-16.2-.9-1.6-3-2.6-4.8-3.4-5.7-2.4-11.6-4.5-17.3-7-3.8-1.7-7.5-3.8-11-6.1-2.4-1.6-3.2-4.1-2.2-7.3 2.1-6.9 3.7-13.8 5.5-20.9h3c3.9-.2 6.5.8 8.4 5 3.3 7.5 9.4 12.6 17.2 15.5 2.2.8 3.5.4 3.9-1.9.9-5.1 2.2-10.1 2.4-15.2.2-8.2 2.3-15.6 6.9-22.5z"/><path d="m224.5 122.2c-1.2-4.8 0-7.3 3-9.5 3.2-2.4 7.3-4.2 8.2-8.8.1-.4.7-.8 1.2-.9 3.6-.2 5.4-3 7.7-5.2 4.6-4.5 9.3-9 13.7-13.7 3.1-3.3 5.7-7 8.7-10.4.8-.9 2.1-1.6 3.2-1.8 6-1.1 10.4 1.2 13.5 6.5 1.4 2.4 3.2 4.4 6.5 4.1.7-.1 1.9.9 2.3 1.6 5.2 9.2 10.3 18.4 15.3 27.8 1.3 2.4 2 5.1 2.4 7.8.7 5.1-.1 9.5-4.6 13.2-9.1 7.6-17.8 15.6-26.5 23.7-3.1 2.9-6.5 4.7-10.7 5.4-4.9.8-9.6 2.3-14.5 3.3-1.7.3-3.5.1-5.2.1-1.1-3-.6-5.2 2.1-6.7 1.2-.7 2.1-1.7 3.3-2.5 11-7.6 20.3-16.9 28.4-27.4 1.9-2.4 4.3-4.4 6.3-6.7 1.1-1.3 2.2-2.7 2.7-4.2 1.4-4.2 1.7-7.8-2.4-11.6-8-7.5-16.4-7.5-25.7-3-5.4 2.6-11 5-16.4 7.5-1.1.5-2 1.4-3.1 2.2-3.4 2.5-6.6 5.3-10.3 7.2-2.8 1.3-6 1.4-9.1 2z"/></svg>