<svg enable-background="new 0 0 400 400" viewBox="0 0 400 400" xmlns="http://www.w3.org/2000/svg"><g fill="#010000"><path d="m313.58 324.38c1.71.63 3.22 1.19 5.01 1.85.3-1.34.58-2.58.92-4.08-2.8-1.36-5.06-4.41-8.82-1.67-.7.51-2.48.11-3.46-.43-2.63-1.45-5.31-2.95-7.57-4.89-15.37-13.18-30.59-26.54-46-39.68-1.94-1.65-4.58-2.64-7.06-3.43-2.82-.9-5.24.09-7.6 2.13-14.9 12.88-29.98 25.56-44.91 38.4-2.93 2.52-5.94 4.68-9.79 5.48-6.17 1.28-10.7 5.34-15.42 9.09-1.92 1.53-3.81 3.15-5.92 4.4-3.32 1.97-6.87 2.49-9.64 1.16-.22-5.02-.41-9.45-.69-15.71 7.64-6.54 16.47-14.59 25.82-22 17.8-14.11 35.93-27.8 53.82-41.79 4.44-3.47 8.16-7.63 8.63-13.44-13.18-1.88-25.85-.49-38.3 3.63-4.86 1.61-6.34.43-8.67-4.11-5.9-11.5-4.59-23.44-2.5-35.44.94-5.39 1.95-10.79 3.28-16.09.36-1.43 1.86-2.76 3.15-3.72 1.32-.97 3.14-1.23 4.53-2.13 7.78-5.03 15.71-5.02 24.49-2.44 5.15 1.52 11.03.76 16.58.69 12.19-.17 24.38-.48 36.57-.91 2.37-.08 4.09.14 4.98 2.83.21-.88.42-1.75.7-2.89 5.83.43 11.51.84 17.18 1.29.54.04 1.11.25 1.57.53 8.01 4.88 12.76 17.07 10.08 26.21-.33 1.12-1.39 2.24-2.41 2.92-3.44 2.29-7.04 4.35-10.54 6.56-2.18 1.38-4.21 2.85-7.11 1.91-.72-.23-2.11.6-2.74 1.33-1.59 1.86-3.45 2.66-5.87 2.51-3.61-.21-6.81.77-9.45 3.41-4.82 4.82-10.98 7.12-17.34 9.04-2.59.78-5.53 1.51-5.37 5 .16 3.65.38 7.34 4.37 9.43 19.61 10.27 39.06 20.84 58.78 30.89 12.34 6.29 25.23 11.49 37.52 17.88 10.26 5.34 17.68 13.3 18.08 25.85.14 4.32-1.39 7.6-5.17 10.1-8.33 5.51-17.05 9.35-27.35 7.98-.66-.09-1.4-.06-1.96-.36-6.02-3.18-12.06-6.33-17.98-9.68-3.76-2.11-5.42-4.29-6.42-7.61zm-86.12-109.2c7.46.28 14.59.43 21.7.85 16.18.95 31.01-1.66 42.18-14.92 2.59-3.07 2.33-5.51-1.63-6.1-5.24-.78-10.66-1.29-15.92-.84-7.55.64-15.04 2.14-22.52 3.47-6.92 1.23-13.8 2.7-20.7 4.08-2.24.45-3.43 1.54-3.18 4.15.28 2.88.07 5.8.07 9.31zm69.08-30.01c-.33.2-.67.4-1 .59-.35 2.38-.69 4.75-1.07 7.3 2.31-.8 4.47-3.1 4.17-4.82-.19-1.11-1.36-2.05-2.1-3.07z"/><path d="m46.03 339.3c0-6.92-.75-13.79.16-20.44 1.68-12.14 4.05-24.2 6.69-36.17 2.67-12.11 9.37-15.74 21.02-16.87 7.33-.71 14.63-1.96 21.97-2.19 10.43-.32 20.82.94 30.76 4.18 4.47 1.46 8.77 3.88 12.68 6.54 8.04 5.46 10.59 13.21 8.01 22.58-1.04 3.76-2.15 7.52-3.49 11.18-.63 1.72-1.85 3.24-2.89 4.79-1.67 2.5-3.72 4.8-5.05 7.47-3.39 6.8-8.07 10.99-16.2 11.47-5.35.32-10.84 1.72-15.83 3.73-16.34 6.56-32.97 8.58-50.25 4.84-2.38-.52-4.82-.72-7.58-1.11zm48.42-22.95c.06-.3.11-.59.17-.89 1.12 0 2.24.06 3.36-.01 18.47-1.13 23.87-7.06 29.79-20.89 2.73-6.37.3-10.36-6.6-11.33-1.65-.23-3.38.01-5.01-.29-1.71-.32-3.76-.58-4.93-1.66-1.85-1.71-3.68-1.73-5.83-1.4-1.32.2-2.68.19-4.01.34-10.65 1.16-21.36 1.89-31.33 6.55-3.72 1.74-6.3 3.8-6.61 8.21-.17 2.42-1.04 4.79-1.6 7.18-1.21 5.15-.07 7.65 5.08 8.81 9.11 2.05 18.34 3.62 27.52 5.38z"/><path d="m41.57 108.42c14.29 4.8 28.77 3.68 42.95 5.27 7.32.82 14.55 2.56 21.89 3.24 9.67.9 19.41 1.08 29.11 1.75 5.56.39 11.14.88 16.64 1.8 6.1 1.02 9.02 4.56 9.3 10.15.1 1.97-.44 3.26-2.35 4.28-8.24 4.38-17.14 5.84-26.26 5.83-6.91-.01-13.82-.79-20.74-1.22-.77-.05-1.65-.32-2.3-.05-4.54 1.86-8.72.43-12.99-1.02-1.2-.41-3.09-.49-4 .19-3.99 2.96-8.53 2.96-13.11 3.1-6.82.2-13.64.41-20.45.71-1.06.05-2.14.49-3.13.94-1.63.73-3.13 1.78-4.8 2.38-4.53 1.61-7.63.12-8.18-4.54-1.09-9.18-1.73-18.42-2.42-27.64-.12-1.54.47-3.08.84-5.17zm7.71 20.96c-.45 2.83-.82 5.1-1.24 7.76 3.57-2.53 4.02-5.05 1.24-7.76z"/><path d="m149.76 221.35c-.13 4.14-.88 7.4-5.28 8.55-2.03.53-3.99 1.5-5.82 2.55-11.81 6.78-25.1 7.5-38.1 9.47-19.34 2.94-38.71 5.72-57.99 9.01-4.03.69-7.76 3.27-11.57 5.09-3.64 1.74-5.98.75-6.89-3.09-.26-1.09-.35-2.25-.79-3.25-2.56-5.82-.7-10.84 2.79-15.51.65-.87 1.82-1.64 2.88-1.87 16.05-3.46 32.05-7.23 48.21-10.06 9.66-1.69 19.6-1.71 29.38-2.77 10.78-1.17 21.52-2.74 32.29-3.99 2.07-.24 4.24-.04 6.3.31 3.24.53 4.86 2.56 4.59 5.56z"/><path d="m75.54 167.87c7.05-3.3 14.92-3.86 22.65-4.33 19.41-1.18 38.85-2.05 58.29-2.76 3.34-.12 6.82.92 10.06 1.97 2.57.83 4.04 2.95 4.02 5.96-.02 2.95-1.41 4.65-3.97 5.95-6.83 3.46-14.31 3.13-21.59 4.07-4.94.64-9.8 1.88-14.71 2.8-2.82.53-5.7 1.46-8.5 1.31-18.21-.98-35.75 3.56-53.49 6.34-3.95.62-7.56 3.23-11.48 4.41-2.69.81-5.66 1.11-8.47.95-3.66-.21-7.29-1.06-10.92-1.7-4.76-.84-6.68-4.76-4.01-9.16 2.42-4 5.47-7.62 8.34-11.34.38-.5 1.41-.88 2.02-.76 9.01 1.87 17.13-2.21 25.64-3.65 1.99-.35 4.08-.06 6.12-.06z"/><path d="m49.91 57.05c3.22.73 6.04 1.32 8.84 2.01 3.07.76 6.05 1.51 8.94-.73.66-.51 1.94-.45 2.89-.32 14.18 1.93 28.36 3.84 42.51 5.94 2.38.35 4.59 1.68 6.95 2.34 3.85 1.08 7.75 1.98 11.63 2.95.75.19 1.61.18 2.24.55 5.14 3.07 10.81 3.16 16.54 3.19 2.56.01 5.59-.69 6.72 2.86 1 3.15-.5 8.81-3.02 10.33-1.48.89-3.26 1.66-4.95 1.76-9.47.58-18.96 1.3-28.44 1.27-11.06-.04-22.12-.8-33.17-1.26-.55-.02-1.18-.03-1.62-.29-10.61-6.19-21.39-5.88-32.47-1.26-4.63 1.94-5.37 1.45-5.83-3.59-.81-8.6.36-17.07 2.24-25.75z"/><path d="m315.93 150.21c-4.69 3.35-9.84 2.83-14.83 1.34-8.12-2.43-16.12-5.28-24.15-7.99-.72-.24-1.53-.62-1.98-1.18-4.98-6.29-10.36-12.35-14.62-19.1-1.82-2.88-1.52-7.23-1.74-10.94-.13-2.15 1.22-3.57 3.71-2.81 3.82 1.17 7.84 1.96 11.4 3.7 9.26 4.5 18.61 8.47 28.67 11.01 9.18 2.32 16.21 8.82 23.25 14.83 3.13 2.67 1.33 9.37-2.49 10.86-1.14.45-2.26 1.04-3.45 1.26-1.18.22-2.44.05-3.66.05-.04-.35-.07-.69-.11-1.03z"/><path d="m235.86 122.9c.46 4.11-1.98 8.27-5.46 11.44-8.14 7.39-17.29 13.32-27.33 17.96-5.79 2.68-9.83-.83-14.23-3.16-.65-.34-.96-2.33-.65-3.31 1.57-5.06 3.1-9.91 7.84-13.48 9.81-7.4 19.18-15.39 28.6-23.3 2.28-1.91 3.99-1.67 6.16-.05 4.39 3.27 5.01 7.93 5.07 13.9z"/></g><path d="m361.2 9.6.8-1c.9.7 1.9 1.4 2.9 2.3l-.9 1.1c-1-1-2-1.8-2.8-2.4zm.5 10.6c.9-2.1 1.6-4.3 2.3-6.7.4.2.8.4 1.3.6-.7 2.1-1.5 4.3-2.2 6.6zm.4-15.2.9-.9c1 .8 2 1.6 2.8 2.4l-1 1c-.9-.9-1.8-1.7-2.7-2.5zm12.5-1.2h1.2v1.4h2.7v1.1h-2.7v2.7h-1.2v-.6h-1.8v1.3h4.9v3.8h-1.2v-.5h-3.7c0 .4-.1.9-.1 1.2h5.1v1h-5.2c0 .5-.1.9-.2 1.2h6v1h-5.2c1.1 1.3 2.9 2 5.5 2.2-.4.4-.7.8-.9 1.3-2.9-.5-4.8-1.6-5.7-3.5h-.1c-.8 1.7-2.7 2.9-5.9 3.6-.2-.4-.6-.8-.9-1.1 2.8-.6 4.6-1.4 5.4-2.5h-4.8v-1h5.3c.1-.3.2-.7.2-1.2h-4.9v-1h5c0-.4 0-.8.1-1.2h-3.5v.5h-1.2v-3.8h4.9v-1.3h-1.8v.5h-1.2v-2.7h-2.7v-1h2.6v-1.4h1.2v1.4h4.7v-1.4zm-6.6 8.3h3.6c0-.4 0-.9 0-1.4h-3.6zm1.9-4.6h4.7v-1.3h-4.7zm6.6 3.2h-3.7v1.4h3.7z" fill="#fbfcfa"/><path d="m385.3 3.8h1.3v2.2h2.8v-2.2h1.3v2.2h4.1v9.1h1.7v1.3h-16.9v-1.3h1.7v-9.1h4.1v-2.2zm.4 13.1.7 1.2c-1.8.9-3.8 1.9-6 2.9-.2-.4-.5-.8-.8-1.3 2.3-1 4.3-1.9 6.1-2.8zm-3.1-6.4h2.8v-3.2h-2.8zm0 4.6h2.8v-3.3h-2.8zm4-4.6h2.8v-3.2h-2.8zm0 4.6h2.8v-3.3h-2.8zm3.7 1.9c2.1.9 4.1 1.8 6.1 2.7l-.7 1.3c-2.2-1.1-4.2-2-6.1-2.9zm3.2-9.7h-2.8v3.2h2.8zm-2.8 7.8h2.8v-3.3h-2.8z" fill="#fbfcfa"/></svg>