<svg enable-background="new 0 0 400 400" viewBox="0 0 400 400" xmlns="http://www.w3.org/2000/svg"><path d="m39.1 105.3c2.3-.7 4.2-1 6-1.8 2-.9 3.8-2.2 5.6-3.2 1.1-.6 2.1-1.4 3.3-1.6 15.4-1.6 30.7-3.7 46.1-4.6 8.9-.5 17.9.6 26.9 1.3 10.7.9 21.5 1.9 31.8 5.4 3 1 4.3 2.6 3.5 5.6-.8 3.1-1.2 6.3-4.3 8.4-1.3.9-2.2 3.6-1.9 5.2.8 5.4 0 10.5-1.3 15.7-3 11.9-4.8 24.1-4.3 36.4.2 3.6-1.1 6.8-.9 10.3.2 3.7.4 7.4.3 11.1 0 3.4-1.6 6.2-3.8 8.8-2.4 2.9-4.2 6.3-6.7 9-1.5 1.6-4 3.2-6 3.3-8.6 0-17.1-.8-25.7-.8-6 0-12 .6-18 1.1-2.9.3-4.7 1.8-4 5.1 1 4.9-.9 9.3-2.5 13.8-.4 1.1-1 2.5-.6 3.3 2.3 5.5-1.1 9.2-4.1 12.7-2.8 3.2-6.5 5.7-9.6 8.8-1.7 1.7-3 4-4.5 5.9-.9 1.2-2 2.3-3.1 3.2-3.3 2.6-6.7 5.1-10.1 7.6-4.7 3.5-9.8 4.6-15.5 3-3.3-1-5.1-7-2.7-9.4 3.8-3.8 7.6-7.6 11.4-11.5.3-.3.6-.8.9-.9 5-1.2 6.3-5.8 8.6-9.5 4.2-6.7 7.7-13.9 13.6-19.4 1-.9 1.8-2.2 2.2-3.4 1.3-4.7.7-8.3-5-7.8-6.5.6-12.9 2.1-19.3 3.4-.8.2-1.5 1.1-2.2 1.8-2.1 1.9-4.1 3.9-6.3 6-2.5-5.5-2.2-11.2-1.2-16.9 1.2-6.7 2.6-13.5 3.4-20.3.4-3.4-.1-6.8 1.4-10.3 1.3-3 1.2-6.8 1.3-10.3.2-8.7 0-17.4.1-26 .1-12.7.2-25.6-2.8-38.5zm98 24.3c1.1-5.5 1.8-10.7-.6-15.9-1.8-4-3.7-5-7.9-4.6-2.6.3-5.4.5-7.9 0-5-1.1-9.8-.5-14.7.5-1.1.2-2.3.4-3.5.4-11.4.8-22.8 1.5-34.2 2.3-1.8.1-3.6.4-5.3 1-2.6.8-7.8 12.8-6.8 15.3 1.7 4.2 5.4 6.6 10 6.5 2.2-.1 4.5-.2 6.6-.6 9.8-1.9 19.5-3.3 29.5-3.5 11.7-.3 23.2-.9 34.8-1.4zm-16.4 47.2c0-.1 0-.2 0-.2-7.5.9-15.1 2-22.6 2.8-9.2 1-18.6 1.2-27.7 2.6-7 1.1-14 3.1-18.8 9.4-1.2 1.7-1.5 2.9-.7 4.8.9 2 1.8 3.2 4.2 3.4 5.3.4 10.5 1.2 15.7 1.8 2.5.3 5.1.9 7.5.5 16.3-2.2 32.6-4.5 48.9-6.9.8-.1 2-.7 2.1-1.3.9-3.6 1.9-7.2 2.2-10.8.3-3.7-1.5-5.3-5.3-5.7-1.7-.2-3.6-.3-5.5-.4zm13.7-35.6c-3 .5-5.7 1-8.3 1.5-3.5.7-7 1.7-10.5 1.9-4.1.2-8.3-.7-12.3-.3-11 1.2-22 3.4-33 4.1-7.3.5-11.4 3.1-13.1 10.1-.9 3.8.6 7.6 4.5 8.6 5.9 1.6 11.7.7 17.5-.8s11.7-3.6 17.6-3.9c6.3-.3 12.8.9 19.1 1.9 6.2 1 12.4 1.5 18.6-.4-.1-7.3-.1-14.5-.1-22.7z"/><path d="m154.7 207.3c1.8 0 2.9-.2 3.9 0 5.7 1.3 10.7-.7 15.2-3.8 4.6-3.2 9.1-6.5 13.5-10 1.6-1.3 2.7-3.2 4.1-4.8-9.6-7-15.9-16.6-23.1-25.3-1.9-2.2-1.5-6.4-1.9-9.7-.1-.5 1.2-1.3 2-1.7 4.5-1.8 12.8.2 16 3.8 2.8 3.1 5.7 6.3 8.5 9.4.6.7 1.5 1.7 1.4 2.3-1 3.2 1 4.8 2.9 6.8.8.8 1.2 2.2 1.6 3.3 2 7 4.1 8.2 11.1 5.8 2.8-1 5.4-2.3 8-3.8 5.5-3.3 11.1-6.6 16.4-10.2 2.5-1.7 4.6-4.1 6.8-6.2-8.3-9-20.5-12.7-25.7-24.4.5-.3 1-.5 1.4-.9 8.9-7.3 10.2-7.1 20.5.6 1.9 1.4 3.5 3.4 5.1 5.2 6.1 6.7 14.7 7.5 22.8 9.3 1 .2 2.5-.5 3.5-1.2 2.1-1.3 3.9-1.1 5.9.1 4.3 2.7 8.7 5.2 13.2 7.9-1.6 4.4-3.4 8-8.7 9.3-12.1 2.9-22.9 9.1-33.8 15.1-1.7.9-3.7 1.3-5.7 1.6-3.9.6-7.9.7-9.6 5.3-.2.5-.9.8-1.4 1-2.5 1.1-5 2.1-7.5 3.2-7.9 3.4-15.7 6.6-23.5 10.1-3.9 1.8-7.6 3.9-11.5 5.9 0 .5-.1.9-.1 1.4 2.9 1.5 5.6 3.7 8.7 4.5 7.2 1.8 13.2 5.2 18.7 10.2 11.8 10.7 24.5 20.1 38.2 28.3 2.2 1.3 4.7 2.4 7.1 3.3 3.1 1.1 6.6 1.5 9.3 3.1 10 6 21.8 6.5 32.2 11 9.4-.5 17.3 5.8 26.6 5.9 5.1.1 9.8 1.2 14.6 3.3 4.7 2 10.2 2.4 15.3 3.2 4.3.6 5 1.3 4.9 5.6-.1 2.2.3 4.4.5 7.2-2.6 2-6.1 3.7-10.4 3-4.2-.7-8.2-.4-11.7 2.3-3.4 2.6-7.3 3.6-11.6 3.1-1.4-.2-2.8 0-4.1 0-11.2.2-21.7-2.1-31.4-8.1-1.2-.7-2.8-1-4.2-1.1-10.4-1-20.2-3.9-28.7-10.4-10-7.6-20.3-14.9-30.2-22.6-4.2-3.3-7.7-7.5-11.5-11.2-.8-.8-1.5-2-2.5-2.4-8-3.1-14-9.1-20.1-14.8-4.3-4-9.7-5.5-14.7-7.8-3.2-1.5-6.2-2.7-10-2-1.5.3-3.6-1.4-5.2-2.5-2.1-1.4-4-2.6-6.7-1.8-2.3.7-3.4-.5-3.6-2.7-.3-4.1-.5-7.8-.8-12z"/><path d="m274.8 123.7c-11-.5-22-1.2-32.9-1.5-9.5-.3-18.6 1.3-27.7 4.2-8.3 2.6-17.2 3.4-25.7 5.3-3.8.8-7.5 2.2-11.1 3.4-7.9 2.7-11.2-2.4-11.5-8.8 0-1.1 1.1-2.9 2.1-3.4 4.2-1.7 8.4-3.7 12.8-4.3 10.8-1.6 21.5-3.7 31.8-7.2 12.5-4.3 25.4-5.5 38.4-5.7 7-.1 13.9.4 20.9.6 4.6.1 9.3-.2 13.9 0 1.3 0 3 .5 3.8 1.4 2 2.2 4.4 3.1 7.2 3.4 3.6.4 4.4 3.1 2.5 6.3-3 5.3-7.9 5.8-13 5.9-3.8.1-7.6 0-11.4 0-.1.1-.1.2-.1.4z"/><path d="m105 218c5.6-1 8.7 3.4 11.6 7.5 2.8 3.8 5.1 8 7.5 12.1.6 1 .8 2.4.7 3.6-.1 2.6-.2 5.3-.7 7.9-.6 3.2-.4 6 2.1 8.4.6.6 1 1.9.9 2.8-.3 6.5-.7 13.1-1 19.6-.1 1.9-.9 2.6-2.6 2.9-3.6.5-6.7-.4-9-3.3-.1-.1-.1-.2-.2-.2-5.3-5.2-7.9-11.5-9.2-18.9-1.6-8.7-4.5-17.1-6.5-25.7-.9-3.9-1.4-7.9-1.6-11.9s1.2-5.1 5.4-4.8c.7-.1 1.3 0 2.6 0z"/></svg>