<svg enable-background="new 0 0 400 400" viewBox="0 0 400 400" xmlns="http://www.w3.org/2000/svg"><path d="m64 104.6c6.4-2.4 12-5 18-6.6 3.1-.8 6.7-.1 10 .4 9.6 1.3 10.9.1 9.6-9.3-.7-5.1-1.3-10.3-2.1-15.4-.2-1.3-.8-2.6-1.6-3.6-1.7-2.2-3.7-4.3-5.7-6.6 6.4-3.6 13.1-5.1 19.8-2.7 7 2.5 11.2 8 11.6 15.6.4 6.2.1 12.5.1 18.9 5.2.3 10 .2 14.6.8 6.6.8 13.1 2.1 19.6 3.2.7.1 1.5.3 2.2.5 1.4.4 2.7.8 4.1 1.2-.8 2.1-.9 5.2-2.4 6.2-6.7 4.6-13.7 8.7-20.9 12.6-1.7.9-4.3.4-6.5.3-8.5-.6-8.7-.5-9.8 7.8-.5 4.1-.8 8.2-1.4 12.3-.3 2 .4 3.2 2.2 3.4 5.8.5 11.5.8 17.3 1.1 3.8.2 7.7-.3 11.3.5 5.8 1.2 9.4 5.4 11.6 10.7.2.6.1 1.7-.3 2.1-2.1 2.3-4.6 3.8-7.9 4.2-3.7.5-7.3 2.1-11 2.8-4.8.9-9.7 1.8-14.6 2.1-3 .2-4.3 1.3-4.5 4-.4 4.3-.6 8.6-.9 13-.2 3 1.5 4.2 4 4.1 4.3-.3 8.6-1 12.9-1.5 11.6-1.6 22.1.9 30.7 9.2 1.1 1.1 1.9 2.5 3 4.1-6 3.5-11.8 6.6-18.7 5.7-9.7-1.3-18.9 1.5-28.1 3.7-2.4.6-3 2-2.3 4.5.9 3.2 2.1 6.4.4 10.1-1.4 3 2.3 9.8 5.3 11.4 4.1 2.3 8.1 4.6 12.2 6.8 1.5.8 2.7 1.9 4.9 1.1 1.2-.4 3.2 1.7 4.9 2.4 1.7.6 3.5.9 5.2 1.3 1.3.3 2.7.3 4 .8 16.3 5.9 32.5 12 48.8 17.9 3.4 1.2 6.8 2.5 10.3 3.3 12 2.7 23.5 6.9 34.4 12.8 1.3.7 3 1.3 4.5 1.3 2.4 0 4.2.7 5.9 2.5.7.7 2.3.8 3.4.8 1.9.1 4.2-.7 5.5.1 7.5 4.7 16.1 4.8 24.4 6.2 7.9 1.3 15.9 2.5 23.9 3.3 5.3.6 10.8.2 16.2.5 5.5.3 11 .7 16.4 1.4 1.5.2 3.7 1.4 4.1 2.6s-.9 3.4-2 4.4c-4.1 3.6-8.4 7-12.9 10.2-3.9 2.8-8.4 5-12.2 8-9.8 8.1-21.7 11.6-33.5 15.1-10.1 3-20.4 2.3-31 1-11.3-1.4-18.6-7.4-25.1-15.6-1.4-1.8-2.9-3.7-4.3-5.5-.5-.6-.8-1.4-1.5-1.7-9.8-4.5-15.9-13-22.4-21-1.2-1.4-2.7-2.6-4.3-3.5-2.5-1.5-5.3-2.6-7.9-4.1-6.6-3.8-13.2-7.5-19.6-11.5-6.2-3.9-12.8-6.8-19.9-8.9-10.6-3.2-20.9-7.6-31.5-10.5-22.4-6.2-44.9-6.6-67.2.9-1.3.4-2.6 1.4-3.3 2.6-3.2 4.7-5.4 9.6-6.5 15.5s-4.4 11.6-7.8 16.8c-2.9 4.5-8.4 4.8-13.4 5.1-.5 0-1.4-.8-1.7-1.5-2.2-4.2-2.5-8.6-1.4-13.2 1.4-5.8 2.3-11.8 3.5-17.6.2-.8.9-1.6 1.6-2 2.7-1.4 4.4-3.5 5-6.5 1-5.4 3.6-9.5 8.7-12.1 3.3-1.6 6.4-3.8 9.4-5.9.9-.7 1.9-2.1 1.9-3.2.2-16 .3-32-2.5-47.8-.5-2.6-1.1-4.6-4-5.3-2.8-.7-5.4-1.8-8.1-2.7-1.4-.5-2.9-.8-4.2-1.3-7.9-3-9.3-5.5-8-13.8.4-2.4.9-4.8 1.3-7.2 1.1-6 4.7-8.4 10.6-6.8 4.9 1.3 9.6 3.3 14.6 4 4.8.7 9.9.6 14.8.1 8.6-.9 17.1-2.3 25.7-3.5 3.7-.5 4.7-2.6 3.7-6.3-1.3-4.9-2.2-9.9-3.1-14.9-.2-1 .4-2.3.7-3.4 1.1-3.6 0-6.6-3.4-7.7-3-1-6.4-1.3-9.6-1.4-3.7 0-7.4.5-11.1.9-2.8.3-5-.6-6.8-2.6-3.2-3.8-6.2-7.3-9.9-11.5zm17.4 129.8c1.3.2 2.4.5 3.6.6 5.7.2 11.4 1.2 16.9-1 2.2-.9 2.9-2 2.7-4.5-.3-2.5.5-5.1.8-7.6.1-1 .4-2.4-.1-2.9-1.6-1.6-1-3-.3-4.6 1-2.1.8-4 .2-6.3-1.4-4.8-2.2-9.7.2-14.5.3-.6.3-1.5.1-2.3-.2-1.4-.9-2.9-.9-4.3-.1-6.7-1-13-5.7-18.2-1.2-1.3-2.3-1.7-4.2-1-4.6 1.7-9 3.5-11.3 8.5-.6 1.4-2.1 2.4-2.8 3.8-.7 1.3-1.5 2.8-1.4 4.3.4 12.4 1 24.7 1.5 37.1.2 4.2.5 8.5.7 12.9z"/><path d="m262.2 117.6c-.8-16.5 4.6-31.4 12.2-45.7 1.8-3.4 4.8-6.2 7.2-9.2 1.9-2.4 4.3-2.7 7.1-2.1 5 1.1 9.3 3.4 12.7 7.3 4.4 5.3 3.9 12.4-.4 18.1-5.5 7.2-10.8 14.6-15.5 22.4-3.8 6.3-5.6 13-3.8 20.9 2.4 10.5 3.2 21.3 5.4 31.8.9 4.5 5.3 7.9 4.8 13.1 9.1 9.7 8.4 23.1 12.9 34.6 1.2 3.1 1 6 .1 9.2-1.7 6-2.9 12.1-4.2 18.2-.1.5 0 1.2-.3 1.5-3.1 2.9-5.8 6.7-9.5 8.4-5.8 2.6-12.2 4.3-18.5 5.4-4.4.7-9.2 0-13.7-.5-5.2-.6-10.5-1.5-15.7-2.5-1.2-.2-2.4-1.2-3.1-2.1-1.4-1.9-2.2-4.1-3.6-6-2.7-3.6-3.8-7.4-2.3-11.8.3-1-.2-2.2-.4-3.4-.6-3.1-1.4-6.2-1.8-9.3-.4-3.8 2.3-5.6 5.9-4.7 6 1.4 12.1 2.7 18.3 3.6 5.8.8 12.2-3.4 13.7-10 1.3-5.5 1.2-11.5 1.1-17.2-.1-5.9-.9-11.8-1.6-17.7-.2-1.4-1-2.8-1.7-4.2-.5-1-1.5-1.8-1.9-2.9-1.2-3.5-5.9-5.3-8.8-3.1-3.1 2.4-6.5 3.2-10.4 3.2-2.1 0-4.2.5-6.2 1.1-4 1.2-6 3.5-5.7 7.7.3 4.6-1.2 8-4.2 11.4-3.1 3.4-5.6 7.4-8.4 11.2-2.3 3.1-9.1 5.2-12.5 3.6-.6-.3-1-1.2-1.3-2-2-5.7-3.9-11.4-5.8-17.1-.3-1.1-.5-2.3-.3-3.4 1.1-5.3 0-10.3-2.2-15.1-2.3-5.1-2.2-10.2-1.6-15.5.7-6.2 1.1-12.4 1.8-18.6.3-2.4 1-4.9 2-7.2 1.4-3.5.5-6.9-.4-10.2-.8-3.3 0-5.3 2.8-6.1 1.1-.3 2.8.1 3.5.8 2.4 2.6 4.8 5.4 6.7 8.4 5.5 8.6 11.1 17.3 13.7 27.4.6 2.3 1.8 3.2 4 2.8 6.8-1.1 13.5-2.3 20.3-3.5.2 0 .4-.1.6-.2 6.6-1.3 8.3-3.1 8.9-9.9.4-3.7.1-7.3.1-10.9z"/></svg>