<svg enable-background="new 0 0 400 400" viewBox="0 0 400 400" xmlns="http://www.w3.org/2000/svg"><path d="m204 365.1c-9.1-16.6-13.6-33.6-9.8-52.6 2.5-12.5 3.2-25.4 2.1-38.3-.2-2.4 0-4.9.6-7.2.9-3.5 1.3-6.8.2-10.3-.3-.8 0-1.8.2-2.7.2-1.1.7-2.2.9-3.4.6-3.1.9-6.2-1.8-8.5-1.9-1.6-7.1-.9-9.8 1.3-12.2 9.8-24.5 19.4-36.6 29.4-13.2 10.9-27.2 20.4-42.2 28.6-5.7 3.1-10.9 7.2-16.1 11.1-4.7 3.5-9.2 7-15.7 7.4 1-5.3.9-10.2 5.9-14.1 8.6-6.6 16.5-14.3 24.9-21.2 6.4-5.2 13.1-9.8 19.9-14.9 0 0-.8-.2-2-.6 8.1-6.2 15.5-11.7 22.7-17.3 16-12.4 31.9-24.9 47.8-37.3 3.1-2.4 4.6-5.3 4.1-9.3-.3-2.6-1.6-3.8-4.2-3.8-1.2 0-2.3.2-3.5.4-13.2 1.8-26.4 3.6-39.6 5.3-4.1.5-6.3-2.5-8.2-5.4-5.8-8.8-9-18.7-9.9-29.1-1-12.1-1.5-24.3-2-36.4-.1-2.8.4-5.7.8-8.5.8-5.3 3.9-7.9 9.3-8.3 1-.1 2-.6 3-1 .5-.2 1-.5 1.4-.8 13.8-11.2 30.7-13.3 47.3-16.5 2.6-.5 5.2-.9 7.9-1.3 0-9.8 0-19.4 0-29.1-3.1-1.4-5.6-1.5-8.4 1.3s-6.3 4.9-9.8 7c-8 4.7-16 9.4-24.3 13.6-5.4 2.7-11.2 4.8-17 6.6-5.9 1.8-12.1 3-18.5 4.6.9-6 .5-12.2 7.3-15.5 6.4-3.1 11.1-8.2 15.6-13.7 1.9-2.3 4.4-4.3 6.9-5.9 16.6-11.1 33.4-22 50.1-32.9 1.2-.8 2.9-.8 4.3-.9.8-.1 1.7.3 2.5.4 7 .7 7.8 3 9.2 10.3 1.1 6.1 2.2 12.2 3 18.4.4 3.2.7 6.5.6 9.7-.3 6.7-1.6 13.3-1.4 19.9.2 5.7 2.1 11.3 3 17 .2 1.3 0 3.1-.8 4.2-3.3 5.2-4.2 11.1-4.3 17-.1 12.3 0 24.5 0 36.8 0 .1.1.2 0 .3-2.2 4.3 0 8.5 0 12.8 0 2.5-.6 5-.8 7.5-.4 3.8 1.1 5.2 4.8 4.2 1.6-.4 3.2-1.2 4.4-2.3 11.6-9.6 22.9-19.5 34.7-28.8 6.7-5.3 14.3-9.5 21-14.7 5.2-4 9.7-8.8 14.6-13.1 2.9-2.5 5.9-5.2 9.3-6.8 5-2.3 9.4.5 10.2 5.9.1.8-.9 2-1.6 2.8-14.6 18.3-32.5 33-51 46.9-11.4 8.6-23 16.9-34.5 25.3-1.5 1.1-2.9 2.2-4.3 3.3-4.7 3.7-7.4 8-6.8 14.4.4 5.1-.7 10.3-.8 15.5-.1 8.3.2 16.7.2 25 0 22.7.4 45.3-.4 67.9-.3 7.4-3.3 14.8-5.7 21.9-1.2 4.3-4.1 7.6-8.9 8.5zm-36.9-178.5c0-.1 0-.2 0-.2h2.9c10.3-.5 20.4-1.9 29.1-8.2 1.6-1.2 2-2.3 1.8-4.2-.5-4-.9-8-.9-12 0-2.3-.9-3.3-3-3.5-1.1-.1-2.4-.3-3.5 0-12.5 2.6-25 5.1-37.4 8.1-7.3 1.7-8.4 4-6.9 11.5.9 4.6 3.2 7 7.8 7.7 3.4.3 6.8.5 10.1.8zm35.5-55.1c-.1 0-.1 0 0 0-.1-1.3 0-2.6-.1-3.8-.3-5.6-4.1-8.5-9.4-7.5-2.2.4-4.4.8-6.5 1.3-8.7 2.1-17.6 3.8-26.1 6.7-8.8 2.9-11.7 9.4-9 17 .9 2.7 2.2 3.3 5.2 2.8 12.9-2.4 25.5-7.3 39-5.3.5.1 1.1 0 1.6-.1 2.8-.6 5.2-1.5 5-5.2-.3-2.1.1-4 .3-5.9z"/></svg>