<svg enable-background="new 0 0 400 400" viewBox="0 0 400 400" xmlns="http://www.w3.org/2000/svg"><g fill="#010000"><path d="m140.07 304.36c-.88 8.98-1.01 17.57-2.74 25.83-1.78 8.46-4.65 16.78-7.93 24.81-3.83 9.39-11.43 15.24-20.85 18.75-4.39 1.63-6.72.11-6.69-4.66.05-9.51.32-19.02.37-28.53.07-11.74.02-23.48.02-35.09-7.27-3.36-14.65-2.62-22.01-.77-4.03 1.01-7.83 1.28-11.53-1.17-.9-.6-2.35-.56-3.53-.51-3.02.12-6.02.52-9.04.59-2.39.05-5.13.56-6.46-2.3-.93-2.02.64-7.04 3.14-8.27 5.57-2.73 11.19-5.85 17.15-7.19 8.68-1.95 17.68-2.46 26.54-3.58 1.66-.21 3.32-.4 5.12-.61 0-3.63 0-7.07 0-10.81-8.57-2.92-17.14-6.17-25.91-8.71-5.65-1.64-8.98-5.2-10.15-10.45-1.18-5.28-2.13-10.85-1.77-16.19.55-8.21 2.33-16.34 3.52-24.51.38-2.6 1.97-4.12 4.1-5.34 9.09-5.22 18.8-8.82 29-11.08 7.75-1.72 8.33-2.47 7.07-11.6-5.19.29-10.51.32-15.74.97-5.1.63-9.72-.17-14.63-3 5.28-3.53 9.12-8.47 15.91-8.95 5.11-.36 10.2-1.36 15.22-2.45 5.83-1.26 8.16-6.29 5.42-11.51-.49-.94-2.07-1.74-3.21-1.83-9.12-.72-18.25-1.33-27.38-1.79-3.56-.18-7.16.34-10.73.17-2.34-.11-3.83.83-4.24 2.83-.76 3.79-1.77 7.7-1.51 11.49.55 8.1.79 15.98-2.37 23.74-.95 2.34-.62 5.28-.58 7.94.07 5.04-1.97 9.1-6.17 11.55-3.91 2.28-8.23 3.9-12.46 5.55-2.25.88-3.79-.08-5.02-2.41-4.19-7.97-3.59-16.16-1.81-24.53.63-2.94 1.08-5.96 1.24-8.96.41-7.88 3.12-14.73 8.23-20.75 3.98-4.69 7.97-9.41 11.49-14.44 3.36-4.8 7.87-6.19 13.31-6.1 5.8.1 11.71.78 17.38-.05 26.54-3.91 53.3-4.36 79.99-4.59 10.34-.09 21.46.36 30.81 6.38 7.14 4.6 12.39 10.94 14.35 19.49.94 4.12.45 7.85-2.71 11.16-6.38 6.67-11.72 14.06-14.85 22.88-.45 1.27-1.55 2.44-2.62 3.33-3.19 2.64-6.4 5.27-9.82 7.6-2.04 1.39-2.5 2.95-1.77 5.06 1.32 3.84.79 7.33-1.42 10.77-1.5 2.34-2.8 4.87-3.76 7.48-3.02 8.19-9.22 13.29-16.53 17.29-3.92 2.14-8.03 3.93-11.97 6.03-2.95 1.57-6.03 3.07-8.6 5.16-6.57 5.34-6.86 6.68-4.97 13.29 1.98 6.94 1.98 7.42 9.31 7.74 5.9.25 11.82-.17 17.74-.3 2.35-.05 4.71-.36 7.03-.17 5.58.44 8.75 3.81 9.08 9.32.24 3.97-4.36 9.02-9.08 9.98-10.09 2-20.17 4.03-29.98 6.02zm-8.54-113.52c5 0 9.57-.04 14.15.01 9.96.12 20.11-2.02 29.72 2.5.6.28 1.8.28 2.17-.11 3.79-4.1 9.7-6.5 9.83-13.52.07-3.62 1.6-7.18 2.14-10.82.71-4.73 1.28-9.5 1.47-14.27.05-1.3-1.24-3.57-2.28-3.82-3.2-.75-6.62-1.17-9.9-.94-14.54 1.01-28.81 5-43.66 2.93-6.63-.93-8.78 2.14-8.08 8.77.02.22.04.45.06.67.38 3.71 2.17 5.6 5.94 5.83 2.1.13 4.24-.08 6.34-.35 4.53-.57 9.03-1.61 13.58-1.84 7.9-.41 15.95-1.01 23.22 3.21 1.57.91 3.99 1.47 3.33 4.3-.64 2.74-1.88 4.64-5.04 4.92-10.88.99-21.76 2.08-32.63 3.2-4.05.42-8.2.62-11.72 3.19.48 2.13.91 4.07 1.36 6.14zm11.29 25.27c5.31-.68 10.42-1.19 15.47-2.04 4.46-.75 5.75-3.21 4.42-7.62-1.23-4.1-5.28-6.3-9.79-5.55-4.39.72-8.83 1.13-13.22 1.84-2.62.42-5.26.94-7.75 1.83-1.5.54-3.52 1.1-3.11 3.65.43 2.68.46 5.53 3.93 6.18 3.38.64 6.78 1.16 10.05 1.71zm-61.72-6.28c1.77 3.05 3.12 5.75 4.85 8.17.67.93 2.28 1.8 3.36 1.69 5.44-.51 10.85-1.29 16.25-2.13.79-.12 1.92-.98 2.09-1.68 1.29-5.6.52-9.05-5.88-10.34-7.48-1.51-13.44 3.03-20.67 4.29zm13.97 39.7c6.49.58 8.91-1.48 9.41-7.98.05-.67.03-1.34.13-2 .5-3.31-1.28-5.12-4.25-4.97-3.84.19-7.63 1.21-11.46 1.7-2 .26-2.78 1.3-3.22 3.16-1.65 6.9-.06 9.21 7.05 9.91.78.07 1.56.12 2.34.18zm54.5-13.96c-3.01-3.49-13.34-4.02-18.09-1.06.42 1.5.67 3.17 1.37 4.64 1.06 2.24 2.46 3.41 5.26 1.82 3.56-2.04 7.43-3.54 11.46-5.4z"/><path d="m199.45 198.5c4.32-.47 8.31-1.09 12.31-1.22 1.04-.04 2.48 1.2 3.15 2.24 8.84 13.6 17.54 27.29 26.37 40.9 1 1.54 2.51 2.77 3.87 4.05 3.72 3.51 7.59 6.86 11.2 10.48 2.83 2.84 5.34 5.99 8.11 9.14 9.63-8.82 16.35-18.7 16.81-32.14.39-11.4-1.27-22.53-3.1-33.68-1.24-7.53-.54-13.92 1.95-18.32 2.74.85 5.7 1.32 8.18 2.66 2.24 1.21 4.55 3.04 5.8 5.19 4.31 7.46 5.67 15.81 5.38 24.27-.4 11.16-1.23 22.32-2.22 33.45-.51 5.7-3.4 10.5-7.19 14.79-4.33 4.89-7.97 10.21-9.83 16.6-.63 2.18-.21 3.71 1.57 5.27 14.85 12.94 29.65 25.93 44.38 39.01 4.26 3.79 8.22 7.91 12.31 11.88.4.39.76.83 1.1 1.27 6.63 8.58 5.61 13.96-3.28 19.91-8.04 5.38-16.13 3.97-24.37.93-7.01-2.58-13.08-6.38-18.22-12.05-7.82-8.62-16.32-16.61-24.3-25.07-2.81-2.98-5-6.54-7.38-9.91-2.93-4.14-6.84-5.35-11.32-2.85-8.29 4.63-16.41 9.54-24.65 14.26-1.72.99-3.55 1.9-5.44 2.46-16.09 4.72-32.23 9.25-48.29 14.05-5.52 1.65-10.35-.81-15.35-1.96-2.57-.59-2.59-4.82-.44-6.65 10.05-8.55 21.96-13.52 34-18.49 7.9-3.26 15.25-7.87 22.86-11.85 6.51-3.41 12.93-7.03 19.61-10.08 5.42-2.47 6.86-4.82 4.72-10.43-.79-2.07-1.81-4.11-3.08-5.91-7.43-10.62-15.08-21.08-22.42-31.76-4.5-6.54-8.65-13.33-12.77-20.11-.85-1.4-1.28-3.31-1.22-4.96.2-5.02.74-10.02 1.19-15.37z"/><path d="m54.51 117.07c-.09-.34-.16-.45-.14-.55 1.34-12.15 4.77-13.65 17.75-16.68 9.96-2.33 20.36-2.73 30.57-3.99 1.22-.15 2.48-.14 3.66-.45 2.96-.76 4.26-2.93 3.77-6.01-.48-2.98-.93-5.97-1.41-8.95-.89-5.52-4.89-8.21-10.53-6.96-2.28.51-4.48 1.41-6.74 2.03-4.57 1.25-9.04 2.06-13.73-.03-6.84-3.05-12.28-14.12-12.53-21.75-.02-.47.35-1.03.68-1.43 4.22-4.95 11.69-6.76 17.64-4.07 4.58 2.07 9.31 2.39 14.11 1.49 1.26-.24 2.63-1.44 3.35-2.58 1.19-1.86 1.95-4.02 2.8-6.08 2.5-6.09 6.76-10.78 11.91-14.67.87-.65 2.56-.79 3.66-.46 4.88 1.47 7.75 5.04 9.41 9.72 1.35 3.79 2.53 7.65 4.18 11.3 1.98 4.39 4.79 5.75 9.49 4.62 3.24-.78 6.29-2.28 9.48-3.27 8.08-2.51 16.13-5.16 24.33-7.2 2.32-.58 5.53.1 7.61 1.38 4.55 2.8 8.76 6.2 12.86 9.64 2.73 2.29 2.09 5.45-1 7.36-4.6 2.84-9.33 3.8-14.73 2.37-5.23-1.38-10.55-1.25-15.91.21-8.08 2.19-16.28 3.97-24.43 5.94-.98.24-1.96.46-2.91.8-4.37 1.57-4.99 2.73-4.05 7.19.87 4.16 1.53 8.37 2.64 12.46.37 1.34 1.66 2.93 2.91 3.43 7.91 3.2 16.28 2.31 24.54 2.34 8.71.03 17.48-.79 25.98 1.98 1.16.38 2.37.79 3.36 1.48 3 2.1 2.77 5.32-.45 6.98-10.07 5.17-20.9 7.42-32.09 7.23-19.01-.33-38.01-1.16-57.02-1.78-.89-.03-1.95-.31-2.64.07-5.51 3.04-11.59 2.12-17.43 2.43-4.82.26-9.35 1.08-13.32 3.73-5.11 3.41-10.23 2.94-15.63.73z"/><path d="m323.85 100.21c2.03-1.12 4.32-1.94 6.05-3.42 7.18-6.14 17.97-7.72 26.03-3.15 1.02.58 1.12 3.26 1.13 4.97.01 1.04-.71 2.64-1.55 3.03-3.43 1.6-7.06 2.77-10.58 4.2-8.19 3.33-15.52 8.13-21.6 14.46-5.61 5.83-7.98 13.59-10.5 21.13-1.17 3.49-2.06 7.1-3.52 10.46-2.34 5.38-7.28 8.39-12.82 7.89-1.26-.11-2.92-1.17-3.53-2.27-2.98-5.31-3.23-11.1-1.92-16.92 1.33-5.88 2.91-11.71 4.42-17.55.22-.85.5-1.81 1.07-2.42 3.98-4.2 4.73-9.49 5.21-14.88.32-3.64-2.95-6.13-6.02-4.07-8.51 5.72-16.99 11.54-24.98 17.95-6.8 5.45-8.05 13.96-9.67 21.93-1.7 8.33-3.11 16.69-7.44 24.21-2.67 4.64-6.64 7.51-11.72 8.8-3.83.98-5.43.14-6.59-3.64-2.9-9.43-3.77-19.09.58-28.18 5.6-11.69 8.3-24.12 9.75-36.73.73-6.38-.97-13.04-1.62-19.57-.28-2.78-.78-5.54-1.02-8.32-.26-2.93 1-4.09 3.95-3.52 6.61 1.27 11.29 5.09 14.19 11.15 1.2 2.51 2.22 5.16 3.74 7.47 3.48 5.28 7.96 5.71 12.88 1.81 7.68-6.1 15.96-11.2 25.72-13.14 3.23-.64 6.71-.65 9.99-.26 1.87.22 3.8 1.58 5.32 2.88 4.56 3.89 7.02 8.58 3.81 14.87.39.27.82.55 1.24.83zm-19.88 49.25c-1.97-2.19-3.64-4.04-5.88-6.53.28 3.52.49 6.13.73 9.25 1.73-.91 3.16-1.67 5.15-2.72z"/></g><path d="m361.2 9.6.8-1c.9.7 1.9 1.4 2.9 2.3l-.9 1.1c-1-1-2-1.8-2.8-2.4zm.5 10.6c.9-2.1 1.6-4.3 2.3-6.7.4.2.8.4 1.3.6-.7 2.1-1.5 4.3-2.2 6.6zm.4-15.2.9-.9c1 .8 2 1.6 2.8 2.4l-1 1c-.9-.9-1.8-1.7-2.7-2.5zm12.5-1.2h1.2v1.4h2.7v1.1h-2.7v2.7h-1.2v-.6h-1.8v1.3h4.9v3.8h-1.2v-.5h-3.7c0 .4-.1.9-.1 1.2h5.1v1h-5.2c0 .5-.1.9-.2 1.2h6v1h-5.2c1.1 1.3 2.9 2 5.5 2.2-.4.4-.7.8-.9 1.3-2.9-.5-4.8-1.6-5.7-3.5h-.1c-.8 1.7-2.7 2.9-5.9 3.6-.2-.4-.6-.8-.9-1.1 2.8-.6 4.6-1.4 5.4-2.5h-4.8v-1h5.3c.1-.3.2-.7.2-1.2h-4.9v-1h5c0-.4 0-.8.1-1.2h-3.5v.5h-1.2v-3.8h4.9v-1.3h-1.8v.5h-1.2v-2.7h-2.7v-1h2.6v-1.4h1.2v1.4h4.7v-1.4zm-6.6 8.3h3.6c0-.4 0-.9 0-1.4h-3.6zm1.9-4.6h4.7v-1.3h-4.7zm6.6 3.2h-3.7v1.4h3.7z" fill="#fbfcfa"/><path d="m385.3 3.8h1.3v2.2h2.8v-2.2h1.3v2.2h4.1v9.1h1.7v1.3h-16.9v-1.3h1.7v-9.1h4.1v-2.2zm.4 13.1.7 1.2c-1.8.9-3.8 1.9-6 2.9-.2-.4-.5-.8-.8-1.3 2.3-1 4.3-1.9 6.1-2.8zm-3.1-6.4h2.8v-3.2h-2.8zm0 4.6h2.8v-3.3h-2.8zm4-4.6h2.8v-3.2h-2.8zm0 4.6h2.8v-3.3h-2.8zm3.7 1.9c2.1.9 4.1 1.8 6.1 2.7l-.7 1.3c-2.2-1.1-4.2-2-6.1-2.9zm3.2-9.7h-2.8v3.2h2.8zm-2.8 7.8h2.8v-3.3h-2.8z" fill="#fbfcfa"/></svg>