<svg enable-background="new 0 0 400 400" viewBox="0 0 400 400" xmlns="http://www.w3.org/2000/svg"><path d="m217.23 38.62c4.39-1.58 8.77-3.98 13.37.27 2.34-3.23 5.64-2.54 8.85-2.46 14.15.37 26.16 6.56 37.4 14.27 9.01 6.18 11.26 15.88 11.36 26.18.04 4.7-.03 9.42-.52 14.08-.2 1.87-1.23 4.07-2.6 5.34-9.93 9.2-20.01 18.25-30.15 27.24-2.13 1.89-3.6 3.8-3.6 6.77 0 1.77-.34 3.57-.73 5.31-.48 2.14-.5 3.73 1.97 4.84 1.09.49 1.93 2.13 2.35 3.42 1.94 5.92 3.01 7.14 9.21 7.32 7.93.23 15.88-.31 23.8.02 4.02.17 7.99 1.48 11.97 2.34 2.15.47 4.25 1.47 6.39 1.54 3.58.11 4.96-2.66 3.05-5.72-1.74-2.8-.28-4.81 1.4-6.9 2.35-2.92 4.82-5.78 6.87-8.9 1.78-2.72 4.24-2.71 6.79-2.31 2.27.36 5.07.1 5.37 3.73.25 3.03 1.55 5.59-.34 9.05-1.66 3.03-.88 7.43-1.06 11.23-1.19 25.49-2.77 50.96-3.38 76.46-.4 16.75.91 33.54.87 50.3-.03 9.47-1.25 18.94-1.93 28.42-.04.52-.13 1.05-.29 2.35 8.85-2.31 17.21-4.58 25.62-6.66 4-.99 8.05-2.06 12.13-2.3 5.99-.36 8.92 2.31 10.32 8.47-.69.41-1.41.9-2.19 1.28-13.7 6.59-27.27 13.46-41.18 19.57-3.97 1.74-8.92 1.62-13.43 1.71-5.25.1-10.08 1.27-14.88 3.28-10.28 4.32-20.66 8.4-31.89 12.94 2.69-3.54 1-4.42-2.09-4.93.14 5.03-3.82 5.08-7.18 6.14-5.42 1.7-10.88 3.41-16.1 5.63-5.07 2.15-10.07 4.05-15.63 4.64-8.31.87-16.57 2.2-25.68 3.45.68-1.49 1.21-2.32 1.46-3.23.47-1.76.78-3.56 1.16-5.34-1.23-.25-2.73-1.08-3.64-.65-3.52 1.67-6.85 3.74-10.48 5.78-2.07-5.57-7.61-5.13-11.21-7.2-2.83 2.97-5.33 5.59-8.04 8.43 6.88 1.99 13.69 6.67 21.79.9.36 2.2.57 3.55.86 5.31-15.09 2.23-29.89 3.75-45.24 3.26.57-1.25.9-1.98 1.23-2.71-.15-.26-.31-.51-.46-.77-1.3.5-2.56 1.17-3.91 1.48-2.54.58-5.26 1.7-7.69 1.29-13-2.2-25.93-4.79-39.1-7.29-.03-.53-.08-1.05-.07-1.56.05-2.82-1.32-3.94-3.62-2.31-3.49 2.48-6.18 1.28-9.39-.46-13.15-7.15-27.28-12.7-38.87-22.38-7.51-6.28-14.26-13.51-21.08-20.57-2.99-3.09-3.51-11.76-.46-14.43 2.23-1.95 6.09-2.71 9.24-2.72 3.1-.02 6.28 1.39 9.31 2.49 5.77 2.09 11.43 4.5 17.21 6.54 1.12.39 2.91.15 3.88-.53 7.25-5.05 14.35-10.33 21.55-15.44 1.38-.98 1.93-1.82 1.33-3.56-1.55-4.52-2.98-9.09-4.31-13.69-2.07-7.18-4.17-14.35-5.92-21.61-.65-2.68-1.81-3.86-4.46-3.8-12.29.3-24.61.43-35.84 6.55-1.17.63-2.41 1.12-3.82 1.77-1.27-1.79-2.48-3.5-3.9-5.51 4.52-4.27 8.87-8.59 13.51-12.57 1.07-.92 3.16-.69 4.79-.88 2.51-.3 3.08-1.48 1.41-3.87 6.18-3.14 12.02-7.71 18.52-9.01 7.55-1.51 14.22-4.42 20.92-7.65 3.91-1.89 7.64-4.21 11.32-6.53 8.99-5.66 12.01-12.66 10.15-23.1-.08-.44-.13-.9-.29-1.31-.95-2.52-1.26-5.76-3.04-7.39-3.55-3.25-8.38-4.13-13.19-3.79-1.11.08-2.23 1.34-3.19 2.22-9.61 8.88-20.81 13.61-33.39 13.35-.68-1.4-.9-2.7-1.65-3.16-.78-.48-2.39-.56-3.05-.05-1.17.9-1.91 2.38-2.82 3.62.25.26.49.51.74.77-8.65 1.68-17.29 3.36-25.81 5.02-.32-.33-.55-.47-.6-.65-1.58-6.03-1.57-6.03 3.53-9.61 1.28-.9 2.62-1.73 3.83-2.71 6.26-5.06 13.32-8.39 21.05-10.66 3.18-.94 6.18-2.93 8.9-4.94 13.5-9.94 40.38-18.38 59.43-7.11 1.79 1.06 3.73 2.71 4.5 4.54 6.62 15.76 8.99 32.26 4.88 48.86-1.61 6.52-6.54 12.3-10.38 18.13-1.01 1.53-3.5 2.34-5.47 2.89-1.25.35-2.81-.37-4.47-.65-1.33 1.2-3.09 2.89-4.95 4.44-2.36 1.97-2.73 5.43-.19 7.11 4.17 2.75 5.17 6.65 5.28 11.19.06 2.57.32 5.14.6 7.7.37 3.28 2.04 4.76 5.19 4.07 2.22-.49 4.53-1.4 6.35-2.72 5.06-3.68 9.9-7.67 14.81-11.56 2.46-1.95 5.16-2.43 8.2-1.75 2.83.64 5.7 1.31 8.58 1.52 2.53.18 5.1-.27 7.91-1.03-5.01-1.49-4.22-4.97-3.78-8.38 1.8-13.59 1.97-27.13.01-40.78-1.19-8.27-1.07-16.72-1.67-25.09-.18-2.55-.46-5.18-1.23-7.6-2.43-7.64-.3-15.06.85-22.51.14-.94 1.63-2.21 2.65-2.37 2.73-.42 5.54-.42 8.32-.34.61.02 1.36 1 1.76 1.7 1.57 2.71 2.83 5.61 4.58 8.19 1.42 2.08 3.18 4.03 5.15 5.59 1.96 1.56 3.82 1.64 6.51-.04 3.12-1.95 7.31-2.31 11.08-3.1 9.38-1.96 18.79-3.72 28.17-5.67 3.75-.78 4.94-3.61 6.04-7.07 1.59-5 .74-8.28-3.46-11.69-11.8-9.59-23.31-19.54-34.73-29.58-6.63-5.83-12.84-12.12-19.24-18.21-.24-.23-.47-.48-.68-.74-3.77-4.58-3.52-6.29 1.66-9.72.33.78.64 1.52 1.07 2.53 1.38-1.81 2.84-3.38 3.88-5.2 1.24-2.17 2.83-2.36 5.04-1.86 6.33 1.41 12.72 2.55 19.02 4.06 1.83.44 3.54 1.63 5.15 2.71 2.04 1.37 3.8 3.17 5.89 4.44 5.04 3.05 9.37 6.78 12.89 11.54 1.93 2.61 7.81 2.7 10.15.46 4.52-4.33 9.12-8.59 13.58-13 1.73-1.71 3.46-3.57 4.65-5.66 4.45-7.84 3.11-12.51-5.03-15.94-3.81-1.6-8.11-2.08-12.21-2.91-1.74-.36-3.56-.3-5.34-.49-4.81-.51-9.31-1.03-14.25 1.16-5.9 2.61-12.54 1.52-18.73-.48-3.62-1.17-4.12-2.58-2.98-6.27.31-1.01.21-2.15.36-3.91-2.54 1.89-4.54 3.38-6.64 4.94-.54-5.3.06-6.23 4.35-8.34 3.69-1.81 7.11-4.26 10.93-5.66 4.02-1.46 8.37-2 12.58-2.95v5.08c1.12-.36 1.93-.45 2.55-.85.76-.48 1.36-1.2 2.03-1.82-.74-.64-1.39-1.44-2.23-1.88-.62-.4-1.54-.34-2.36-.47zm-65.06 241.34c-.28-.26-.57-.53-.85-.79-1.92 1.36-4.66 2.29-5.62 4.14-3.71 7.17-10.16 11-16.5 15.25-11.6 7.77-22.98 15.86-34.32 24.01-3.19 2.29-3.08 4.69-.2 7.41 2.93 2.77 5.97 5.19 10.36 5.57 3.87.34 7.67 1.54 11.52 2.23 7.03 1.27 14.04 2.91 21.13 3.53 6.09.53 12.29-.34 18.44-.25 5.2.07 10.4.62 15.6.98 2.2.15 4.43.69 6.6.49 20.6-1.92 41.21-3.77 61.78-6.04 8.01-.88 16.26-.8 23.71-5.08 5.44-3.13 11.05-6.48 17.89-5.51.7.1 1.5-.38 2.23-.65 6.09-2.21 12.12-4.59 18.28-6.58 2.97-.96 3.07-2.71 1.89-4.77-1.27-2.2-2.9-4.23-4.6-6.14-2.76-3.1-4.47-6.47-4.79-10.74-.71-9.59-2.19-19.15-2.51-28.74-.19-5.62-2.17-8.8-7.35-10.6-1.86-.64-3.06-.67-4.87.21-3.48 1.7-7.19 2.98-10.9 4.14-3.93 1.23-7.97 2.1-11.95 3.19-1.76.48-2.63 1.52-2.95 3.52-1.15 7.17-2.33 14.35-3.98 21.42-2.1 8.96-5.26 17.58-10.61 25.18-.72 1.03-2.51 1.77-3.8 1.77-.9-.01-2.03-1.37-2.65-2.38-2.05-3.3-3.58-6.97-5.95-10-2.52-3.23-2.96-6.39-2.14-10.22 1.39-6.54.36-12.88-2.16-19.03-.91-2.22-2.21-2.94-4.66-2.49-9.89 1.82-19.81 3.55-29.75 5.08-2.21.34-2.91 1.28-3.42 3.27-2.79 10.82-5.72 21.6-8.65 32.38-1.6 5.88-3.87 11.47-8.14 15.96-.9.94-2.4 1.75-3.66 1.82-7.06.38-13.09-6.77-11.77-13.7.29-1.53.75-3.09.7-4.63-.42-11.09-.92-22.15-1.38-33.21zm99.86-62.35c2.94 3.72 2.78 7.99 2.38 12.42-.21 2.39.28 4.87.68 7.27.4 2.37 1.88 3.75 4.41 3.59 2.99-.18 6.02-.21 8.95-.75 5.7-1.04 11.32-3.04 17.19-1.62 5.36 1.3 8.91-1.38 11.5-4.23-.76-2.75-1.7-4.93-1.89-7.17-.26-2.99.26-6.04.09-9.04-.29-4.95-2.12-6.86-7.08-7.06-3.67-.15-7.36.32-11.04.48-1.78.07-3.81.59-5.28-.09-1.28-.59-1.94-2.55-2.51-3.39-5.73 3.17-11.43 6.3-17.4 9.59zm4-50.81c-.28.19-.55.39-.83.58 0 1.17-.45 2.63.08 3.45 2.59 4.06 1.85 8.46 1.36 12.72-.42 3.69.34 6.57 2.68 9.52 1.83 2.31 3.43 2.84 6.18 2.16 6.5-1.63 13.04-3.01 19.85-1.68 2.73.53 5.55.66 8.34.8 3.96.2 8.54-3.91 8.7-7.75.18-4.36.27-8.72.39-13.07.11-3.88-.74-4.91-4.62-5.3-1.2-.12-2.51-.09-3.64.26-5.72 1.77-11.33 3.05-16.33-2.48-2.07 5.13-6.12 5.11-10.03 5.39-.67.05-1.36-.01-2.01.13-4.42.99-8.5 1.19-10.12-4.73zm-64.09 41.2c2.99-.33 6.06-.34 8.96-1.05 8.54-2.08 17.04-4.35 25.49-6.78 1.25-.36 2.98-1.88 3.06-2.98.33-4.19.46-8.48-.05-12.64-.44-3.55-3.23-4.97-6.68-4.16-12.28 2.88-24.52 5.93-36.85 8.59-3.22.7-4.28 2.18-4.64 5.21-1.04 8.9 2.57 13.63 10.71 13.81zm17.26 15.89c-3.05 1.55-5.26 2.95-7.66 3.81-2.83 1-5.82 1.53-8.75 2.26-4.5 1.12-5.6 5.46-8.02 8.54-.18.23.04.81.12 1.21.47 2.66 1.19 5.3 1.37 7.97.25 3.6 1.43 5.06 5 5.1 8.52.09 16.45-2.71 24.56-4.82 9.22-2.39 12.63-8.53 13.05-17.37.43-8.94-2.18-11.03-10.32-8.02-3.28 1.21-6.58 3.23-9.35 1.32zm-122.8 93.9c-1.15 1.38-2.25 2.69-3.43 4.11 2.35 4.76 2.22 5.33-1.62 5.97.4 2.13.79 4.26 1.38 7.42 2.86-1.77 6.23-2.65 7.05-4.61 1.89-4.51.29-8.94-3.38-12.89zm234.08-129.8c2.05-1.85 1.08-8.23-1.48-9.6-1.91 3.43-1.57 6.57 1.48 9.6zm-74.26-39.73c2.46-.73 5.21-.26 4.71-3.79-.33-2.37-1.79-2.71-3.88-2.49-.27 2.03-.52 3.88-.83 6.28zm-154.5 27.09c2.04-1.22 3.67-2.19 5.5-3.28-1.07-1.2-1.79-2.01-2.59-2.92-1.51.84-2.84 1.58-4.29 2.38.44 1.24.81 2.26 1.38 3.82zm141.72 172.51c.04-.24.09-.48.13-.72-1.4-1.48-2.79-2.96-4.64-4.93-.71 1.48-1.31 2.74-1.92 4 2.15.55 4.29 1.1 6.43 1.65zm-12.72-233.23c.07.39.15.79.22 1.18 1.16-.07 2.75.3 3.39-.31.81-.78.86-2.36 1.23-3.59-.23-.11-.46-.22-.7-.33-1.38 1.01-2.76 2.03-4.14 3.05zm5.56 91.98c-1.48-.81-2.51-1.78-3-1.56-1.29.58-2.35 1.68-3.51 2.58.27.38.53.76.8 1.14 1.59-.6 3.19-1.21 5.71-2.16z" fill="#010000"/><path d="m44.91 132.38c-3.11 5.36-9.19 4.8-15.15 4.94-2.66.06-3.01-1.62-3.63-3.43-.59-1.73-1.05-3.04.89-4.58 9.67-7.71 20.38-13.29 32.37-16.3 12.93-3.25 25.52-7.42 37.3-13.73 1.5-.81 2.88-2.39 3.63-3.95 1.84-3.82 3.15-7.88 4.89-11.74 3.58-7.95 1.92-15.81-.41-23.57-1.3-4.35-3.28-8.5-4.97-12.74-.25-.62-.59-1.21-.86-1.82-2.24-4.99-1.76-6.37 3.45-8.76-1.32-.2-2.16-.33-3.25-.49.12-.62.01-1.49.37-1.77 2.8-2.21 5.65-4.38 8.6-6.38.59-.4 1.74-.13 2.58.05 5.96 1.32 11.01 4.33 15.17 8.72 1.06 1.11 1.5 2.89 2.02 4.42.99 2.91 1.95 5.83 2.72 8.8 1.23 4.72 2.48 9.44 3.37 14.23 1.23 6.59 2.07 13.25 3.23 19.85.49 2.77.28 5.19-1.26 7.66-1.95 3.12-3.75 6.37-5.27 9.72-6.79 14.95-18.89 24.01-33.44 30.32-15.27 6.62-31.05 8.01-47.2 3.86-1.75-.47-3.23-2.05-5.15-3.31zm74.81-42.76c-.51.16-1.02.31-1.53.47-.13 1.56-.97 3.9-.27 4.52 1.95 1.73 4.53 2.75 6.87 4.05.23-.32.46-.63.69-.95-1.93-2.7-3.85-5.39-5.76-8.09zm3.5-45.43c-2.03 4.49-1.48 7.88 1.42 10.78.41.41 1.43.67 1.9.44.39-.2.7-1.31.51-1.82-1.12-2.97-2.38-5.87-3.83-9.4zm-24.59 81.45c-.91-1.63-1.68-3.01-3.07-5.49-1.65 2.79-2.81 4.77-3.98 6.74l.64.64c2.05-.6 4.1-1.2 6.41-1.89z" fill="#010000"/><g fill="#fbfcfa"><path d="m361.2 9.6.8-1c.9.7 1.9 1.4 2.9 2.3l-.9 1.1c-1-1-2-1.8-2.8-2.4zm.5 10.6c.9-2.1 1.6-4.3 2.3-6.7.4.2.8.4 1.3.6-.7 2.1-1.5 4.3-2.2 6.6zm.4-15.2.9-.9c1 .8 2 1.6 2.8 2.4l-1 1c-.9-.9-1.8-1.7-2.7-2.5zm12.5-1.2h1.2v1.4h2.7v1.1h-2.7v2.7h-1.2v-.6h-1.8v1.3h4.9v3.8h-1.2v-.5h-3.7c0 .4-.1.9-.1 1.2h5.1v1h-5.2c0 .5-.1.9-.2 1.2h6v1h-5.2c1.1 1.3 2.9 2 5.5 2.2-.4.4-.7.8-.9 1.3-2.9-.5-4.8-1.6-5.7-3.5h-.1c-.8 1.7-2.7 2.9-5.9 3.6-.2-.4-.6-.8-.9-1.1 2.8-.6 4.6-1.4 5.4-2.5h-4.8v-1h5.3c.1-.3.2-.7.2-1.2h-4.9v-1h5c0-.4 0-.8.1-1.2h-3.5v.5h-1.2v-3.8h4.9v-1.3h-1.8v.5h-1.2v-2.7h-2.7v-1h2.6v-1.4h1.2v1.4h4.7v-1.4zm-6.6 8.3h3.6c0-.4 0-.9 0-1.4h-3.6zm1.9-4.6h4.7v-1.3h-4.7zm6.6 3.2h-3.7v1.4h3.7z"/><path d="m385.3 3.8h1.3v2.2h2.8v-2.2h1.3v2.2h4.1v9.1h1.7v1.3h-16.9v-1.3h1.7v-9.1h4.1v-2.2zm.4 13.1.7 1.2c-1.8.9-3.8 1.9-6 2.9-.2-.4-.5-.8-.8-1.3 2.3-1 4.3-1.9 6.1-2.8zm-3.1-6.4h2.8v-3.2h-2.8zm0 4.6h2.8v-3.3h-2.8zm4-4.6h2.8v-3.2h-2.8zm0 4.6h2.8v-3.3h-2.8zm3.7 1.9c2.1.9 4.1 1.8 6.1 2.7l-.7 1.3c-2.2-1.1-4.2-2-6.1-2.9zm3.2-9.7h-2.8v3.2h2.8zm-2.8 7.8h2.8v-3.3h-2.8z"/></g></svg>