<svg enable-background="new 0 0 400 400" viewBox="0 0 400 400" xmlns="http://www.w3.org/2000/svg"><path d="m362.1 8.8c1.1.8 2.1 1.6 3.1 2.4l-1 1.1c-1.3-1.1-2.3-2-3-2.5zm1.9 4.8c.5.2.9.4 1.4.5-.6 2.3-1.3 4.5-1.9 6.8l-1.5-.5c.8-2.1 1.4-4.3 2-6.8zm-1-9.4c1.3.9 2.4 1.8 3.4 2.5l-1 1.1c-1.4-1.2-2.4-2.1-3.2-2.6zm3.7 2.2v-1.4h10.3v1.2c-.5 3.6-1.8 6.8-4 9.4 1.5 1.6 3.4 2.8 5.7 3.8-.3.4-.7.8-1.1 1.4-2.3-1.1-4.1-2.5-5.6-4.1-1.6 1.6-3.6 3.1-5.9 4.3-.3-.5-.7-.9-1-1.3 2.4-1.1 4.4-2.5 6-4.1-1.9-2.5-3-5.6-3.3-9.3h-1.1zm8.8 0h-6.4c.3 3.3 1.3 6 3 8.2 2-2.3 3.1-5.1 3.4-8.2z" fill="#fbfafc"/><path d="m385.3 3.8h1.3v2.2h2.8v-2.2h1.3v2.2h4.1v9.1h1.7v1.3h-16.9v-1.3h1.7v-9.1h4.1v-2.2zm.4 13.1.7 1.2c-1.8.9-3.8 1.9-6 2.9-.2-.4-.5-.8-.8-1.3 2.3-1 4.3-1.9 6.1-2.8zm-3.1-6.4h2.8v-3.2h-2.8zm0 4.6h2.8v-3.3h-2.8zm4-4.6h2.8v-3.2h-2.8zm0 4.6h2.8v-3.3h-2.8zm3.7 1.9c2.1.9 4.1 1.8 6.1 2.7l-.7 1.3c-2.2-1.1-4.2-2-6.1-2.9zm3.2-9.7h-2.8v3.2h2.8zm-2.8 7.8h2.8v-3.3h-2.8z" fill="#fbfafc"/><path d="m264.94 228.03c-.98.91-2.18 1.67-2.89 2.75-.98 1.48-1.75 3.15-2.33 4.84-.97 2.8-1.47 5.78-2.63 8.48-1.23 2.86-3.19 5.4-4.48 8.24-1.36 3-2.29 6.19-3.42 9.3-1.1 3.03-1.99 6.17-3.42 9.04-1.33 2.69-3.28 5.03-2.84 8.35.09.65-.65 1.72-1.3 2.12-3.63 2.21-4.64 5.82-5.34 9.59-.73 3.93-1.69 7.61-5.64 9.72-.65.35-.83 1.64-1.17 2.51-.76 2-.96 4.49-2.31 5.92-4.17 4.44-6.05 9.89-7.63 15.47-1.41 4.99-3.89 9.23-7.44 12.92-5.05 5.23-10.15 10.42-15.14 15.71-2.72 2.88-5.87 4.65-9.83 5.2-2.76.38-5.5 1.06-8.15 1.9-1.11.35-2.02 1.42-2.93 2.27-1.65 1.52-3.01 3.53-4.9 4.61-4.8 2.74-9.83 5.09-15.26 7.85 0-4.16-.19-7.68.06-11.16.2-2.66.99-5.27 1.48-7.9 1.31-7.1.85-13.69-2.81-20.38-7.52-13.71-14.35-27.81-21.32-41.82-1.53-3.07-2.89-6.34-3.57-9.68-1.81-8.94-4.76-17.42-8.76-25.59-.78-1.6-.78-3.61-.95-5.46-.3-3.28-.38-6.58-.67-9.86-.69-7.67-1.6-15.33-2.12-23.01-.31-4.68-.08-9.4-.05-14.1.02-5.2-.07-10.2 2.34-15.28 1.84-3.87 1.4-8.77 2.4-13.11 1.15-4.97 2.89-9.81 4.17-14.76 1.61-6.25 3.15-12.53 4.47-18.85 1.04-4.98 2.82-9.63 6.94-12.66 9.2-6.76 11.42-15.71 9.24-26.37-.76-3.72-1.44-7.48-1.81-11.26-.38-3.89-2.67-6.22-5.94-7.38-4.81-1.71-9.84-2.27-14.68.06-6.85 3.29-13.64 6.71-20.46 10.05-3.25 1.59-9.98.14-12.08-2.74-3.95-5.43-7.83-10.91-11.62-16.45-.53-.77-.78-2.12-.5-2.99 1.99-6.39 4.16-12.72 6.38-19.43 7.11 1.43 14.16 2.57 21.05 4.31 8.08 2.04 16.06.63 23.98-.34 3.59-.44 6.92-2.98 10.39-4.5 1.21-.53 2.56-1.34 3.76-1.22 8.67.91 16.44-2.57 24.54-4.61 6.91-1.74 13.9-3.21 20.93-4.33 2.92-.47 5.4-1.13 7.33-3.39 2.17-2.55 4.89-3.49 8.25-3.67 5.46-.3 10.91-1.07 16.34-1.77 1.26-.16 2.74-.56 3.64-1.37 6.51-5.88 14.51-6 22.45-5.56 5.43.3 10.81 1.61 16.18 2.61 2.23.41 4.08.69 5.39-1.86.48-.94 2.03-1.69 3.19-1.85 5.65-.8 11.33-1.93 16.99-1.88 5.75.05 11.69.7 17.15 2.38 2.28.7 4.21 4.53 5.08 7.31 1.24 4 1.44 8.34 1.88 12.56.07.67-.83 1.97-1.48 2.11-3.88.88-7.79 1.69-11.73 2.19-14.73 1.87-29.48 3.6-44.22 5.41-.88.11-1.74.42-2.59.69-7.87 2.47-14.33 5.75-14.74 15.76-.33 7.94-3.6 15.29-7.41 22.38-1.48 2.75-1.45 6.4-1.76 9.67-.2 2.09 1.16 3.01 3.35 3.21 5.23.47 10.45 1.14 15.65 1.9.87.13 2.24 1.03 2.33 1.71.71 5.47 4.44 8.27 8.89 10.38 2.3 1.09 2.82 2.73 2.08 4.87-1.67 4.81-.97 9.19 2.13 13.19 4.8 6.2 4.78 13.47 4.76 20.78-.01 5.33.22 10.39 3.14 15.42 2.81 4.85 2.53 10.4-1.23 15.4-1.03 1.38-.79 3.75-1.02 5.69-.31 2.49-.15 5.1-.82 7.48-1.46 5.15-3.45 10.16-4.97 15.3-.64 2.14-.63 4.48-.92 6.73.29.07.62.16.95.25zm-92.8 94.83c.27.19.54.39.8.58 3.5-5.84 9.43-6.84 15.18-8.16 3.63-.83 5.77-3.3 7.1-6.53 2.31-5.57 4.46-11.2 6.74-16.78 2.19-5.37 4.1-10.9 6.81-16 2.96-5.55 7.59-10.22 8.43-16.85.08-.63.68-1.18.82-1.82.35-1.54.56-3.1.83-4.65-1.65-.27-3.36-.97-4.94-.74-3.98.59-7.89 1.76-11.62-.92-.51-.37-1.5-.19-2.25-.09-9.28 1.29-18.57 2.52-27.83 3.97-6.72 1.06-13.38 2.43-20.07 3.66-2.39.44-2.89 1.81-2.45 4.11.61 3.18.82 6.43 1.25 9.64.69 5.19.93 10.53 4.5 14.86.11.14.05.42.1 1.01-.54.33-1.29.77-2.04 1.22 3.2 5.25 3.93 10.58 4.24 16.14.18 3.25 1.38 6.48 2.36 9.65.73 2.36 2.42 3.18 4.97 2.47 2.19-.61 4.5-.8 7.06-1.23.01 2.48.01 4.47.01 6.46zm-13.11-140.16c0-.03 0-.06 0-.09 1.12 0 2.24.06 3.35-.01 16.4-1.05 32.2-4.98 47.63-10.41 6.3-2.21 12.15-5.23 19.31-3.39 2.11.54 6.39-1.07 7.17-2.81 2.63-5.86 4.44-12.17 3.49-18.86-1.36-9.61-7.42-15.89-17.17-16.71-4.82-.41-9.81.03-14.62.76-11.74 1.77-23.33 4.26-33.7 10.43-2.31 1.37-4.48 3.24-6.19 5.31-2.08 2.52-3.36 5.7-5.44 8.21-3.71 4.47-7.78 8.64-11.65 12.97-.71.8-1.66 1.81-1.68 2.74-.24 8.45-1.68 11.62 9.18 11.84.1.02.21.02.32.02zm39.48 45.73c.01.1.01.19.02.29 5.58-.26 11.17-.35 16.73-.83 5.9-.5 10.79-2.5 13.69-8.47 2.48-5.1 6.16-9.59 8.92-14.58 1.48-2.67 2.46-5.75 2.99-8.77.24-1.38-.75-3.46-1.87-4.48-1.5-1.37-3.39-1.08-5.52-.09-4.08 1.91-8.39 3.61-12.78 4.55-8.72 1.86-17.59 2.98-26.34 4.7-13.77 2.71-26.99 8.09-41.37 7.88-2.46-.04-5.02 1.67-7.38 2.88-.68.35-1.2 1.8-1.12 2.69.42 4.89.95 9.78 1.65 14.64.33 2.3.95 4.6 1.78 6.77 1.27 3.34 3.44 3.9 6.46 1.84.82-.56 1.56-1.28 2.22-2.03 1.71-1.92 3.66-2.87 6.37-3.1 5.42-.46 10.98-.86 16.14-2.42 4.25-1.28 8.27-2.38 12.71-1.81 2.21.3 4.47.24 6.7.34zm-28.85-116.56c5.92-.65 11.66-1.38 17.42-1.89 11.6-1.03 20.25-5.8 24.49-17.44 1.54-4.23 1.25-7.92-.51-11.57-1.43-2.98-3.56-5.63-5.47-8.37-1.52-2.18-3.53-3.1-6.32-2.68-3.19.49-6.45.82-9.68.76-5.61-.11-10.13 1.61-13.38 6.39-1.05 1.55-2.48 2.89-3.91 4.13-1.57 1.35-2.15 2.79-1.07 4.63 1.07 1.83.39 3.12-1.06 4.33-.77.64-1.8 1.34-2.01 2.19-.75 2.97-1.08 6.14-1.34 9.09-.3 3.29 1.75 6.79 2.84 10.43z" fill="#010100"/></svg>