<svg enable-background="new 0 0 400 400" viewBox="0 0 400 400" xmlns="http://www.w3.org/2000/svg"><path d="m242.92 120.54c8.6 2.6 16.32 4.85 23.97 7.28 2.08.66 4.35 1.51 5.91 2.95 5.49 5.07 10.97 10.19 15.93 15.77 4.04 4.55 5.71 10.36 5.74 16.46.01 2.06-.41 4.26-1.19 6.16-2.17 5.26-4.38 10.54-7.05 15.55-5.79 10.87-15.63 16.61-26.96 20.11-7.69 2.37-15.45 4.5-23.23 6.57-1.08.29-2.63-.07-3.6-.69-4.53-2.93-8.85-1.89-11.01 2.9-3.24 7.2-4.51 14.8-3.72 22.59 1.88 18.53-.59 36.31-7.98 53.47-1.6 3.73-2.33 7.93-2.89 11.99-.81 5.92-1.87 11.67-4.95 16.9-4.95 8.44-6.91 17.84-8.81 27.28-.31 1.54-1.61 2.89-2.72 4.78 3.67 2.56 1.27 6.18-.54 9.46-1.98 3.59-4.48 6.9-6.82 10.29-.56.81-1.28 1.75-2.15 2.08-2.33.91-4.84 2.19-7.15 1.97-1.03-.1-2.13-3.4-2.51-5.38-1.58-8.35.16-16.53 2.14-24.55 5-20.28 6.98-40.97 9.18-61.65 1.01-9.45 2.45-18.88 2.99-28.36.43-7.67.21-15.44-.48-23.1-.71-7.79.18-15.36 1.14-23.02 1.54-12.3 1.39-24.56-2.33-36.56-.23-.74-.52-1.47-.85-2.38-9.86 8.74-21.55 7.56-33.19 6.38-2.76-.28-5.49-1-8.2-1.67-8.9-2.17-15.17-7.76-19.63-15.53-3.01-5.23-5.99-10.49-8.72-15.87-2.32-4.57-5.3-8.47-9.27-11.71-2.95-2.41-4.61-9.91-3.14-13.5 2.87-7.03 5.78-14.05 8.78-21.03.46-1.06 1.31-2.08 2.23-2.8 7-5.4 14.04-10.74 21.13-16.02 1.03-.76 2.38-1.54 3.58-1.54 10.65.02 19.25-5.28 27.76-10.66 3.95-2.5 7.4-5.77 11.24-8.47 3-2.11 3.71-5 3.17-8.24-.61-3.62-1.67-7.17-2.43-10.77-.44-2.06-.98-4.18-.91-6.26.09-2.49 1.84-3.09 3.86-1.63 6.09 4.39 8.94 4.16 15.14.19 3.01-1.92 6.64-3.16 10.15-3.95 9.99-2.23 20.03-.92 30.04.24 5.33.61 10.68 1.59 16.02 1.59 7.29 0 13 3 17.79 7.98 12.88 13.38 17.66 29.2 13.59 47.44-.34 1.51-1.32 3.1-2.45 4.18-6.08 5.79-12.19 11.55-18.52 17.06-4.11 3.58-8.68 6.61-12.88 10.08-1.8 1.49-3.21 3.45-5.2 5.64zm-60.65-27.07c-4.85-.81-9.35-1.6-13.88-2.27-.84-.12-1.78.1-2.61.36-9.17 2.84-18.35 5.66-27.46 8.67-1.1.36-2.4 1.71-2.65 2.82-1.67 7.38-1.97 14.86-.26 22.27 1.52 6.62 4.65 11.93 11.08 15.44 7.4 4.04 15.4 5.24 23.41 6.37 3.91.55 8.09-.51 12.1-1.09 1.87-.27 2.55-1.65 2.39-3.7-.35-4.34-.41-8.71-.59-13.06-.5-11.82-1.01-23.65-1.53-35.81zm42.77 101.98c6.06 1.14 11.04-1.11 15.74-3.94 11.95-7.19 22.26-16.45 32.29-26.04 3.29-3.14 3.67-5.7 1.71-9.85-2.07-4.37-5.58-7.53-9.92-9.07-10.38-3.69-20.91-6.95-31.46-10.13-3.98-1.2-8.2-1.56-12 .77-.87.53-1.8 1.96-1.72 2.89 1.69 18.36 3.52 36.69 5.36 55.37zm-9.64-109.09c-.51 4.17-1.28 8.13-1.38 12.1-.06 2.45.72 4.97 1.46 7.36.49 1.59 1.71 1.89 3.47 1.15 7.3-3.05 14.06-7.01 19.6-12.63 8.63-8.75 16.92-17.84 25.39-26.75 2.01-2.12 2.2-4.56 1.48-7.15-1.34-4.83-8.05-10.38-13.05-10.75-9.03-.67-18.06-1.27-27.09-1.87-6.55-.43-13.09-.8-19.55-1.2-2.22 5.18-.89 9.75 3.29 16.07 2.79 4.23 5.04 8.92 6.84 13.67 1.94 5.11 1.17 6.06-4.04 8.05-.45.17-.86.43-1.77.89 1.94.39 3.35.67 5.35 1.06z" fill="#010000"/><g fill="#fbfcfa"><path d="m361.2 9.6.8-1c.9.7 1.9 1.4 2.9 2.3l-.9 1.1c-1-1-2-1.8-2.8-2.4zm.5 10.6c.9-2.1 1.6-4.3 2.3-6.7.4.2.8.4 1.3.6-.7 2.1-1.5 4.3-2.2 6.6zm.4-15.2.9-.9c1 .8 2 1.6 2.8 2.4l-1 1c-.9-.9-1.8-1.7-2.7-2.5zm12.5-1.2h1.2v1.4h2.7v1.1h-2.7v2.7h-1.2v-.6h-1.8v1.3h4.9v3.8h-1.2v-.5h-3.7c0 .4-.1.9-.1 1.2h5.1v1h-5.2c0 .5-.1.9-.2 1.2h6v1h-5.2c1.1 1.3 2.9 2 5.5 2.2-.4.4-.7.8-.9 1.3-2.9-.5-4.8-1.6-5.7-3.5h-.1c-.8 1.7-2.7 2.9-5.9 3.6-.2-.4-.6-.8-.9-1.1 2.8-.6 4.6-1.4 5.4-2.5h-4.8v-1h5.3c.1-.3.2-.7.2-1.2h-4.9v-1h5c0-.4 0-.8.1-1.2h-3.5v.5h-1.2v-3.8h4.9v-1.3h-1.8v.5h-1.2v-2.7h-2.7v-1h2.6v-1.4h1.2v1.4h4.7v-1.4zm-6.6 8.3h3.6c0-.4 0-.9 0-1.4h-3.6zm1.9-4.6h4.7v-1.3h-4.7zm6.6 3.2h-3.7v1.4h3.7z"/><path d="m385.3 3.8h1.3v2.2h2.8v-2.2h1.3v2.2h4.1v9.1h1.7v1.3h-16.9v-1.3h1.7v-9.1h4.1v-2.2zm.4 13.1.7 1.2c-1.8.9-3.8 1.9-6 2.9-.2-.4-.5-.8-.8-1.3 2.3-1 4.3-1.9 6.1-2.8zm-3.1-6.4h2.8v-3.2h-2.8zm0 4.6h2.8v-3.3h-2.8zm4-4.6h2.8v-3.2h-2.8zm0 4.6h2.8v-3.3h-2.8zm3.7 1.9c2.1.9 4.1 1.8 6.1 2.7l-.7 1.3c-2.2-1.1-4.2-2-6.1-2.9zm3.2-9.7h-2.8v3.2h2.8zm-2.8 7.8h2.8v-3.3h-2.8z"/></g></svg>