<svg enable-background="new 0 0 400 400" viewBox="0 0 400 400" xmlns="http://www.w3.org/2000/svg"><path d="m195.24 281.19c-3.94-4.32-3.37-9.07-2.28-14.06 1.23-5.64 2.14-11.37 2.98-17.09.46-3.1-1.43-4.44-4.34-4.69-1.77-.16-3.53-.52-5.31-.62-.8-.04-1.81.09-2.41.55-11.79 9.21-23.35 18.74-35.35 27.66-7.25 5.38-15.13 9.92-22.82 14.68-2.39 1.48-8.77.37-10.53-1.62-1.14-1.29-.57-2.41 1.01-2.62 4.51-.61 5.18-3.44 4.89-7.35-.11-1.44.68-3.25 1.63-4.43 3.95-4.88 8.22-9.19 14.82-10.77 2.69-.64 4.91-3.35 7.27-5.22 4.02-3.19 7.99-6.46 11.25-9.11 3.08.49 5.4 1.2 7.7 1.15 2.98-.06 5.18-1.55 6.04-4.75 1.84-6.87 6.45-11.18 12.52-14.78 11.25-6.66 22.24-13.8 33.05-21.16 6.01-4.09 11-9.42 14.35-16.3-2.89-1.86-5.59-3.63-8.33-5.33-.54-.34-1.35-.76-1.83-.59-6.38 2.26-12.37-.62-18.45-1.48-11.62-1.64-23.15-3.89-34.72-5.88-8.08-1.39-12.18-5.87-11.54-12.92.1-1.14.85-2.54 1.75-3.25 7.53-5.93 15.79-7.93 25.14-4.71 9.43 3.26 19.06 5.79 29.15 5.78 2.32 0 4.67-.41 6.95-.91 2.39-.52 4.73-1.62 4.59-4.51-.14-2.85-.39-5.84-3.59-7.39-9.96-4.82-20.01-9.49-29.78-14.67-4.57-2.43-9.14-5.36-12.73-9.02-5.37-5.48-6.59-12.72-5.87-20.4 2.2-.69 3.87-.39 5.74 1.23 1.68 1.46 4.02 2.77 6.17 2.95 6.65.56 12.13 3.61 17.49 7.1 5 3.26 10.08 6.12 16.25 6.69 2.3.21 3.66-.55 4.01-2.42.97-5.11 1.96-10.26 2.3-15.44.58-8.65.66-17.34.96-26.39 7.33 1.02 5.03-4.57 6.5-7.46 5.16 1.03 6.85 3.67 6.73 8.73-.07 2.65.57 5.71 1.93 7.94 5.81 9.54 8.9 20 10.86 30.82.71 3.92.34 8.03.58 12.05.1 1.66.22 3.39.78 4.93 1.33 3.68 4.06 4.15 6.67 1.3 11.9-12.94 23.71-25.95 35.76-38.74 2.43-2.58 5.76-4.3 7.89-5.85 2.3 2.71 3.83 4.95 5.8 6.7 1.96 1.73 2.91 3.26 2.1 6.03-1.07 3.63-1.56 7.43-2.32 11.16-.88 4.34-3.73 6.36-8.18 6.49-1.35.04-3.38 1.17-3.87 2.32-2.19 5.19-6.13 7.91-11.28 9.51-6.69 2.08-12.57 5.63-18.1 9.95-3.68 2.87-7.8 5.23-11.85 7.6-1.79 1.05-2.44 2.25-2.34 4.28.16 3.56.04 7.13.04 11.06 5.5.49 10.8 1.02 16.12 1.36.86.05 1.85-.66 2.65-1.2 10.64-7.23 21.34-14.38 31.84-21.81 3.16-2.24 5.81-5.22 8.57-8 2.09-2.1 3.94-4.47 7.71-2.72-.13-3.94 2.33-5.61 4.94-7.21 6.06-3.71 11.15-9.05 18.36-10.87.76-.19 1.18-1.5 1.88-2.17.78-.75 1.86-2.03 2.52-1.87 1.28.31 2.92 1.21 3.42 2.31 3.18 6.91 3.07 6.94-2.73 11.87-12.63 10.72-25.19 21.53-37.91 32.14-3.5 2.92-7.45 5.32-11.24 7.89-2.84 1.93-5.4 4.01-5.66 7.98 7.3 4.44 15.34 6.5 23.78 7.17 9.14.73 18.33 1.07 27.43 2.11 5.29.61 10.46 2.23 15.67 3.49.7.17 1.41.74 1.89 1.31 2.02 2.37 4.35 3.64 7.63 3.26 1.1-.13 2.32.81 4.09 1.5-4.42 3.27-8.84 4.28-13.32 5.01-2.97.49-6.04.4-9.01.87-2.67.42-5.33 1.07-7.9 1.91-3.26 1.06-6.26.74-9.46-.44-2.5-.92-5.42-1.78-7.95-1.37-9.15 1.5-18.09-.44-27.09-1.08-10.37-.74-20.72-1.94-31.08-2.86-1.06-.09-2.29.09-3.22.57-11.78 6.17-22.11 14.3-32.37 23.71 3.94 0 7.2-.14 10.44.03 11.94.62 23.87 1.24 35.8 2.07 5.53.38 5.65.54 7.25-4.77.62-2.03.98-4.14 1.71-6.13 1.53-4.18 4.67-4.95 8.23-2.45 2.63 1.84 4.13 4.06 4.68 7.26.76 4.4 2.13 8.69 2.9 13.09.38 2.2 0 4.53-.01 6.8 0 .85-.14 1.82.2 2.54 4.52 9.86 4.16 20.27 3.31 30.65-.41 4.98-1.8 9.89-2.68 14.84-.94 5.33-3.84 9.39-7.66 12.46-1.71-1.37-3.33-2.68-5.28-4.24-1.39 1.95-2.47 3.47-4.04 5.67 2.43.95 4.56 1.78 7.37 2.89-2.51 1.7-4.93 4.12-7.84 5.13-6.05 2.1-11.66 4.53-16.75 8.68-7.29 5.94-15.34 10.94-24.83 12.7-3.37.63-6.87.64-10.32.8-2.23.1-4.48-.17-6.7-.02-2.98.2-5.72.72-8.61-1.28-1.69-1.17-4.52-1-6.81-.91-6.41.25-10.89-2.28-13.68-8.16-3.91-8.23-4.2-17.07-4.77-25.88-.24-4.05-.41-8.06 2.7-11.36zm34.79 27.5c.03.51.06 1.02.08 1.53 2.44-3.22 5.39-2.92 8.58-1.96 1.07.32 2.44.04 3.58-.29 2.79-.79 5.53-1.77 8.3-2.67 2.62-.85 5.18-2.1 8.04-.57.51.27 1.7-.24 2.32-.72 3.72-2.87 7.43-5.77 10.98-8.84.72-.63 1.22-2.11 1.05-3.06-.5-2.74-1.31-5.43-2.14-8.09-1.17-3.77-2.32-4.06-6.21-3.33-3.35.63-6.84.56-10.27.68-2.37.08-4.8-.37-7.1.01-9.24 1.51-18 6.06-27.92 3.2-3.91-1.13-5.8 1.03-6.31 5.05-.33 2.66-.75 5.34-.77 8.01-.01 1.14.68 2.45 1.42 3.4 1.23 1.57 3.53 2.7 3.99 4.39.9 3.31 2.95 2.96 5.37 2.91 2.33-.07 4.67.21 7.01.35zm50.7-69.92c-5.03-.37-9.64-1.43-14.05-.87-9.41 1.18-18.82 2.78-28.03 5-7.88 1.9-15.52 4.86-23.22 7.48-1.03.35-2.6 1.56-2.55 2.27.37 5.14.14 10.52 3.78 14.79.44-.12.67-.14.86-.23.6-.3 1.2-.61 1.78-.94 14.98-8.49 30.93-12.48 48.2-10.59 3.84.42 7.3-.9 10.24-3.37.88-.74 1.93-1.78 2.08-2.8.49-3.32.6-6.67.91-10.74z" fill="#010000"/><path d="m139.56 151.15c-7 4.34-13.87 8.37-22.18 8.04-7.37-.3-12.32 2.48-15.28 9.48-1.18 2.78-2.46 4.73-.48 7.75 1.1 1.68.91 4.27 1.08 6.46.13 1.66-.28 3.36-.14 5.02.33 4.09 2.48 5.94 6.51 6.58 10.14 1.62 20.25 3.37 30.35 5.19 1.96.35 3.88 1.09 5.71 1.9 7.24 3.21 9.22 8.81 5.67 15.88-2.67 5.31-6.38 9.35-12.6 10.52-5.58 1.05-11.12 2.3-16.49 3.42-2.91-5.03-3.28-5.08-7.08-1.37-2.57 2.51-5.05 2.79-8.86.98.83-5.13.83-5.13-6.55-7.47-2.24 3.98 2.54 5.02 3.41 8.54-4.46-.2-8.75-.37-13.04-.6-1.77-.1-3.54-.54-5.3-.47-12.52.43-25.03.98-37.54 1.38-1.1.04-2.53-.42-3.29-1.17-1.95-1.92-4.09-2.27-6.7-2-6.19.63-10.53-2.13-12.88-7.89-.38-.93-.72-1.89-.97-2.86-1.89-7.34-.76-9.67 6.05-12.69 7.65-3.38 15.68-5.13 24-5.82 2.53-.21 5-1.03 7.53-1.37 3.07-.42 6.17-.66 9.26-.91 5.61-.45 7.66-2.6 7.24-8.11-.63-8.37-1.46-16.72-2.11-25.08-.16-2.03-.85-3.48-2.92-3.86-2.6-.48-5.34-1.48-7.8-1.03-3.51.63-6.63.3-9.79-1.03-2.57-1.09-5.26-1.98-7.66-3.37-1.67-.96-3.36-2.36-4.33-3.99-3.07-5.16-2.22-7.29 3.4-9.04 4.78-1.48 9.6-2.88 14.48-3.92 1.98-.42 4.2.18 6.3.39 5.59.56 8.66-.83 10.53-6.08 1.59-4.47 2.44-9.25 3.19-13.96.67-4.19.91-8.46 1.02-12.7.1-4.01 1.91-6.74 5.7-8.78.41 2.06.67 4.09 1.28 6 .26.81 1.35 2.01 1.94 1.94 2.66-.3 3.05 1.34 3.17 3.25.38 6.03.6 12.07 1.04 18.09.61 8.32 4.68 13.58 12.77 15.54 5.39 1.31 11 1.79 16.53 2.47 6.18.74 10.52 2.46 15.83 6.75z" fill="#010000"/><g fill="#fbfcfa"><path d="m361.2 9.6.8-1c.9.7 1.9 1.4 2.9 2.3l-.9 1.1c-1-1-2-1.8-2.8-2.4zm.5 10.6c.9-2.1 1.6-4.3 2.3-6.7.4.2.8.4 1.3.6-.7 2.1-1.5 4.3-2.2 6.6zm.4-15.2.9-.9c1 .8 2 1.6 2.8 2.4l-1 1c-.9-.9-1.8-1.7-2.7-2.5zm12.5-1.2h1.2v1.4h2.7v1.1h-2.7v2.7h-1.2v-.6h-1.8v1.3h4.9v3.8h-1.2v-.5h-3.7c0 .4-.1.9-.1 1.2h5.1v1h-5.2c0 .5-.1.9-.2 1.2h6v1h-5.2c1.1 1.3 2.9 2 5.5 2.2-.4.4-.7.8-.9 1.3-2.9-.5-4.8-1.6-5.7-3.5h-.1c-.8 1.7-2.7 2.9-5.9 3.6-.2-.4-.6-.8-.9-1.1 2.8-.6 4.6-1.4 5.4-2.5h-4.8v-1h5.3c.1-.3.2-.7.2-1.2h-4.9v-1h5c0-.4 0-.8.1-1.2h-3.5v.5h-1.2v-3.8h4.9v-1.3h-1.8v.5h-1.2v-2.7h-2.7v-1h2.6v-1.4h1.2v1.4h4.7v-1.4zm-6.6 8.3h3.6c0-.4 0-.9 0-1.4h-3.6zm1.9-4.6h4.7v-1.3h-4.7zm6.6 3.2h-3.7v1.4h3.7z"/><path d="m385.3 3.8h1.3v2.2h2.8v-2.2h1.3v2.2h4.1v9.1h1.7v1.3h-16.9v-1.3h1.7v-9.1h4.1v-2.2zm.4 13.1.7 1.2c-1.8.9-3.8 1.9-6 2.9-.2-.4-.5-.8-.8-1.3 2.3-1 4.3-1.9 6.1-2.8zm-3.1-6.4h2.8v-3.2h-2.8zm0 4.6h2.8v-3.3h-2.8zm4-4.6h2.8v-3.2h-2.8zm0 4.6h2.8v-3.3h-2.8zm3.7 1.9c2.1.9 4.1 1.8 6.1 2.7l-.7 1.3c-2.2-1.1-4.2-2-6.1-2.9zm3.2-9.7h-2.8v3.2h2.8zm-2.8 7.8h2.8v-3.3h-2.8z"/></g></svg>