<svg enable-background="new 0 0 400 400" viewBox="0 0 400 400" xmlns="http://www.w3.org/2000/svg"><path d="m94 346.1c.7-1.2 1.2-2.2 1.8-3.1 4.6-5.8 9.2-11.6 13.8-17.4.7-.8 1.4-1.6 2.3-2.2 11-7.8 22.1-15.1 34.6-20.4 7.9-3.4 15.2-8.2 22.8-12.3.8-.4 1.5-1.1 3.1-2.4-2.7-.5-4.5-1.1-6.4-1.1-3.4 0-6.1-1.2-8.7-3.2-9.2-7.5-13.9-17.2-14.5-28.9-.3-5.6.2-11.2.6-16.7.1-1.3.6-2.7 1.2-3.9 1.2-2.7 2.8-5.2 3.9-8 3-8.2 8.7-14.4 15-20.1 1.3-1.2 1.3-1.1 5.8.2-1-2.7-1.5-5.8-3.2-7.9-7.7-8.9-16-17.3-16.6-30.5-4 1-7.2 1.9-10.4 2.7-8.5 2.2-17 4.3-25.5 6.5-2.9.7-5.9 4.3-5.5 6.8 2.1 14.6-.1 28.9-3.4 43-1.1 4.7-2.7 9.4-3.4 14.2s-2.9 8.2-6.9 10.8c-1 .6-1.8 1.5-2.7 2.2-3.2 2.5-5.6 5.2-7.3 9.1-2.7 6.2-8.5 9.9-14.4 12.8-5.8 2.8-11.7 4.8-18.3 4.6-4.2-.2-5.9-2.4-4.3-6.4 1-2.7 2.4-5.4 4-7.9 5.9-9.4 12-18.6 18.1-28 1.2-1.8 2.4-3.5 3.4-5.3 4.2-6.9 6.9-14.1 5.9-22.5-.7-5.9-.6-11.8-.6-17.8 0-2.7-.8-4.6-2.9-6.2-1.9-1.4-3.5-3-5.4-4.8.9-.8 1.6-1.6 2.5-2.1 6.7-3.9 7.8-10.1 6.9-17-.8-5.9-2.3-11.7-2.8-17.5-.7-8.2-.6-16.5-1.3-24.7-.6-7.5-1.8-14.9-2.8-22.3-.1-.6-.1-1.4-.5-1.8-3.2-3.3-2.4-7-1.8-11 .4-2.7 0-5.6-.5-8.3-.6-2.9-1.5-5.8-2.6-8.5-1.2-2.8 0-4.1 2.3-5.1 2.9-1.3 7.9-.2 10.3 2.1 2.1 2 4.2 3.9 6.5 5.5 3.2 2.1 5.3 1.7 8.3-.5 6.9-5.3 13.9-10.3 22.4-12.9 2.6-.8 4.9-.8 7.5.6 5.2 2.8 11 2.9 16.7 2.7 6.5-.2 12.9-.2 19 2.3.9.4 1.9.7 2.4 1.4 3.6 6.2 9.8 9.5 14.6 14.4 1.6 1.6 3.2 3.4 4.3 5.4 4.2 7.8 8.2 15.7 12.1 23.7.7 1.5 1.1 3.5.8 5.1-1.3 7.8-2.6 15.6-4.4 23.4-.6 2.4-2.3 4.6-3.6 6.9-3.6 6.5-9 11-15.9 13.9-3.3 1.4-6.4 3.2-9.6 5-1.2.7-2.3 1.5-3.2 2.5-1.7 2.1-1.2 3.8 1.3 4.8l16.5 6.6c6.3 2.4 11.4 6.4 15.9 11.2 2 2.1 4.2 3.1 7 2.9.3 0 .6 0 .9-.1 13.2-2.5 12.4-1.1 14.3-13.5 1.4-9.3 1.4-18.7 1.7-28.1.1-1.7-.6-3.9-1.8-5.2-13.7-15.2-13.8-32-5.7-49.5 3.8-8.2 4-8.7 1.2-17.2 1.7-1.3 3.6-2.7 5.4-4 3.3-2.5 6.8-4.8 9.9-7.5 6.6-5.7 14-9.8 22.7-11.2.9-.2 1.9-.4 2.6-1 5.5-4.4 12-5.4 18.6-6.1 9.9-.9 19.7-2.6 29.1-5.9 3.7-1.3 7.9-1.4 11.9-1.7 3.1-.2 5.8-1.1 8-3.3 1.7-1.8 3.7-2.2 6.1-1.5 1.6.4 3.3.6 4.9 1.1 6.6 2.1 9.9 6.2 9 13.1-2.9 21-.9 42.1-.4 63.1.1 2.9.5 6 1.7 8.6 6 13.1 7.7 26.8 8.4 41 .4 7.7 0 15.1-2.6 22.4-.9 2.7-1 5.9-.7 8.8 1.6 12.8-1.5 24.3-9.5 34.3-5.5 6.9-10.4 14.5-19.3 17.6-2.3.8-3.5 2.3-3.8 4.5-.4 2.6-.9 5.2-.9 7.8 0 2.5-1 4.2-3.3 4.7-3.2.7-6.4 1.1-9.7 1.2-.8 0-2.1-1.3-2.5-2.2-2.1-5-.9-10.1 1.1-14.7 1.7-3.9 4.9-6.5 8.6-8.8 3.6-2.2 6.5-5.7 9.1-9.1 6.7-8.8 10.7-19 12-30 .5-4.2-.5-8.6-.9-12.9-.4-4-.6-8-1.3-12-.4-2.6-1.6-5.1-2.3-7.7-1.2-4.8-2.4-9.6-3.2-14.5-1.1-6.7-1.6-13.4-2.7-20.1-.8-5.5-3-6.6-8-4.4-4.2 1.9-8.1 4.6-12.4 6.2-10.2 3.9-20.4 7.6-30.8 10.8-8.2 2.5-16.6 3.9-25 5.9-1.3.3-2.6.9-3.8 1.6-3.9 2.1-4.4 4.7-2.3 8.6 2.3 4 4.1 8.3 6.3 12.4 1 1.9 2.3 3.9 3.9 5.2 3.8 2.9 6.8 2.2 9.3-1.8 5.4-8.5 11-16.8 16.2-25.4 1.7-2.8 3.8-2.9 6.1-2.4 1.2.3 2.6 2 3 3.3 1.1 3.7 2.2 7.5 2.3 11.2 0 2-1.8 4.4-3.4 6-4.1 4.1-7.7 8.4-9.1 14.2 3.9 2.7 7.7 5.4 11.6 7.9 6.7 4.4 8.9 11 9 18.5 0 1-1 2.1-1.8 2.9-2.1 2.1-4.7 4-4.2 7.4.2 1.6.9 3.6 2.1 4.7 4.4 4 5.7 8.5 4.2 14.3-1.4 5.2-3.4 9.6-7.9 13.2-5.8 4.6-11.4 9.5-18.8 11.2-2.3.5-2.2 2.4-2.2 4 0 1.1.6 2.6 1.5 3.3 6 4.3 12.1 8.5 18.2 12.7 1.4.9 3 1.6 4.5 2.2 9.4 3.5 18.9 6.8 28.3 10.3 1.4.5 2.9 1.4 3.9 2.5 4.9 5.6 10.2 10.7 16.9 14.2 2.9 1.5 4.2 4.2 3.6 7.5-.2 1.1-1 2.4-1.9 2.9-16.2 9-33.3 11.9-51.3 6.4-3.8-1.1-7.1-3.6-10.7-5.4-9.1-4.7-17.3-10.4-23.9-18.5-2.1-2.6-5.6-4.2-8.8-6.5-2.7 5.1-5.3 9.2-7.1 13.7-7 17-19.8 28.6-34.7 38.5-10.2 6.7-20.8 12.2-32.9 14.2-2.2.4-4.4.5-7 .8 1.2-3.8 1.3-7.3 5.5-9.5 3.5-1.8 6.2-5.3 9.1-8.2 3-3 5.5-6.7 8.7-9.4 9.4-7.8 14.6-18.2 19.3-29 2-4.7 3.2-9.8 5-15.2-2-.2-3.5-.7-4.8-.4-5.1 1.2-9.9 2.7-14.3 6.1-7.2 5.5-14.9 10.4-22.5 15.4-8.5 5.7-17.1 11.3-25.8 16.7-2 1.2-4.4 1.9-6.7 2.4-6.6 1.5-13.2 2.9-19.9 4-3.9.6-6.9 2.5-9.6 5.1-1.9 1.8-4.2 3.1-7.7 2.7zm13.2-186c2.2-.4 3.9-.7 5.7-1.1 11.2-2.6 22.6-4.6 33.6-7.9 10.5-3.1 19.4-9.3 25.6-18.7 1.8-2.8 2.3-5.7 1.7-8.8-.8-4.2-5-6.3-9.1-5.1-9.7 3-19.4 6-29.2 8.7-11.1 3-21.9 6.4-31 13.7-.8.6-1.7 1.9-1.5 2.7 1.2 5.4 2.7 10.8 4.2 16.5zm131.8-27.9c7.6.5 14.5-2.6 21.6-4.5 11.2-3.1 22.1-7 33.7-8.7 5-.8 9.9-2.8 14.5-5 3.6-1.7 4-4.7 2.2-8.9-1.4-3.2-4.6-5-7.9-4.3-5.1 1.1-10.1 2.3-15.2 3.3-15.6 3.2-31.2 6.3-46.8 9.6-4.5 1-8.8 2.5-13.2 4.1-.9.3-1.8 1.9-1.8 2.9.2 2.6.8 5.2 1.6 7.7.9 2.9 2.8 4.5 6.2 3.9 1.7-.3 3.4-.1 5.1-.1zm-87.8-32.6c-5.6-8.3-11.6-15.9-19.8-21.2-1.5-1-2.8-2.3-5.1-1-10.3 6.2-20.8 12.2-31.1 18.4-.9.5-1.7 1.9-1.9 2.9-.7 6.1 1.2 11.5 4.8 16.3.7.9 2.6 1.6 3.7 1.4 5.1-.9 10.2-1.8 15.2-3.2 11.6-3.5 23.1-7.5 34.2-13.6zm74.1-13.7c-.2 7.5 1.2 8.6 6.9 7 .4-.1.8-.2 1.2-.3 20.7-5.5 40.8-13.1 62.2-16 3-.4 5.9-2.2 8.7-3.6.7-.3 1.3-1.7 1.2-2.4-.7-5.6-2.8-7.5-8.3-7.9-1.3-.1-2.5-.3-3.8-.4-2.1-.3-4.2-1-6.2-.8-9.5.9-18.8 2.5-27.7 6.2-2.5 1-5.2 1.6-7.9 2.3-6.1 1.7-12.2 3.3-18.3 4.9-6.2 1.7-8.6 6.1-8 11zm-54 155.9c1.8-.5 3.2-.7 4.4-1.2 10.8-3.9 21.7-7.8 32.4-11.8 2.7-1 5.1-2.5 7.6-3.9.8-.4 1.8-1.4 1.8-2-.3-3.5-.7-7.1-1.5-10.6-.3-1.1-2.4-2.7-3.3-2.5-6.9 1.5-13.8 3.4-20.6 5.2-.1 0-.2.1-.2.2-3 3.8-7 5.9-11.6 7.3-2.4.7-4.8 1.6-7.1 2.7-.8.4-1.8 1.3-1.8 2.1-.2 4.7-.1 9.3-.1 14.5zm9.2 15.5c.3 3.6 1.8 5.1 5.3 5 5.7-.1 11.4.4 17.1.5 5 .1 9.9-.8 14.4-3.2 4.7-2.5 5.5-4.1 4.8-9.3-.5-3.4-3.3-5.6-6.6-4.5-11.6 3.7-23.2 7.6-35 11.5zm63.1-13.4c.2 1.5.3 2.9.5 4.4 1.4 6.9 5.7 8.7 11.8 5 .8-.5 1.7-1 2.2-1.7 3.8-4.7 7.7-9.3 11.2-14.1 1-1.3 1.6-4.2.9-5-1.1-1.2-3.5-1.4-5.4-1.6-.8-.1-1.8.5-2.7.9-4.7 1.9-9.3 3.9-14.1 5.5-3.4 1-5 2.9-4.4 6.6zm35.3-27c-3.1-3.9-6-7.7-9.2-11.4-1.1-1.3-2.8-2.2-4.5-2.7-7.7-2.4-15.2-1.3-22.9 2 .5 2.1.8 4.4 1.6 6.6 1.4 4 4.5 5.7 8.5 4.5 7.5-2.4 14.5-1.7 21.2 2.6 1.9 1.2 4.1 1.4 5.3-1.6zm-92.6-96.6c.3.2.6.5.9.7.5-.9 1.5-1.8 1.5-2.7 0-.7-1.1-1.5-1.7-2.2-.2.2-.5.4-.7.5z"/></svg>