<svg enable-background="new 0 0 400 400" viewBox="0 0 400 400" xmlns="http://www.w3.org/2000/svg"><path d="m194.8 270.6c10.9 1.1 21.5 1.1 31.6 3.6 8.8 2.2 17.5 1.6 26.3 2.1.9 0 2 .2 2.7.7 3.3 2 6.7 2 10.3.9 12.9-4 26.3-3.7 39.6-3.9 13.6-.2 27.3-.2 40.9-.7 3-.1 5.9-1.9 8.9-3 1.8-.7 3.5-1.5 5.2-2.2 2.3 4 2.1 5.8-.6 9.1-2.1 2.6-4.5 5.1-6.4 7.9-6.7 9.5-16.1 14.1-27.2 16.5-13.2 2.8-26.3 2.4-39.4.2-7.4-1.2-14.8-2.6-22.2-3.9-1.2-.2-2.5-.3-3.8-.2-18.7 1.1-37-1.7-55.4-5.1-16.3-3.1-32.6-1.3-47.8 5.7-6.9 3.1-13.5 4.5-20.8 3.1-2-.4-4.2-.1-6.4-.1-2.5-6.7-.4-13 1.1-19.3.1-.5.9-.8 1.4-1.2 6.3-4.4 13.1-5.7 20.7-4.4 5.3.9 10.7 1.5 16.1 1.2 8.2-.4 11.3-3.8 11.6-12 .1-3.2-.1-6.4-.4-9.5-1.4-11.1 1.2-21.9 2.7-32.8.5-3.8 2.2-7.6-.6-11.3-.4-.5.3-1.9.6-2.9.6-2.8 1.7-5.6 1.8-8.5.1-5.7-.4-11.4-.4-17.1 0-3.1.7-6.3 1.1-9.4.4-3.4.8-6.7 1.2-10.1 1-8.1 2-16.1 2.9-24.2.7-5.9.4-11.5-5-15.4-.4-.3-.8-.7-1-1.2-1.8-6-3.6-12-5.2-18.1-2.6-10-3.1-20.3-1.9-30.5.5-4.6 2.7-5.8 7-3.9 3.5 1.5 6.9 3.1 10.4 4.8 6 2.9 12 4.4 18.9 2.8 17.5-4.1 35.1-1.8 52.7-.9 7.8.4 15.7-1.4 23.5-2.2 3.7-.4 7.4-.9 11-.9 4.7-.1 7.7 1.7 8.8 6.2 1 4.1.8 8.5.9 12.8 0 .8-.6 1.8-1.3 2.4-2.8 2.6-4.2 5.9-3.8 9.7.9 10-1.4 19.5-4 29-.2.7-.6 1.5-.4 2.2 2.3 8.2-1.1 15.9-1.8 23.8-.5 5.8-.9 11.6-.7 17.3.2 4.5-1.5 7.6-5.4 9.4-1 .5-2.5.2-3.7.1-2.2-.3-4.3-1-6.4-1-4-.1-8 .7-11.9.3-13.9-1.5-27.7-.4-41.3 2.4-5.9 1.2-11.8 2.4-17.6 3.9-1.6.4-3.5 1.5-4.2 2.8-1.9 3.6-4 7.3-4.7 11.2-1.7 10-2.4 20.2-4 30.2-.5 3.5-2.5 6.7-3.6 10.1-.7 2.3-1.4 4.8-1.4 7.3.1 4.9.6 10.4.8 16.2zm9.9-148.8c10.6 0 21 .4 31.3-.1 9.3-.5 18.4-1.9 27.7.2 5.2 1.1 10.7.9 16 .9 2.5 0 9.3-7.2 8.8-9.4-1.1-5.7.6-11.1 1.5-16.6.9-5.1-2.3-7.7-7.4-6.7-6.7 1.3-13.4 2.9-20.2 3.8-14.5 1.9-29 3.4-43.5-.1-2.9-.7-6.1-1-9.1-.5-2.6.4-5.4 1.6-7.3 3.3-1 .9-.1 3.7-.1 5.6 0 .3 0 .6.1.9.7 6.2 1.5 12.5 2.2 18.7zm77.8 30c3.2-3.6 1.9-7.1-.2-10.3-3-4.5-6.9-5.4-11.9-3.3-8 3.4-16.3 6.2-25.1 6.2-7.8 0-15.6-1.3-23.4-1.4-4.4 0-8.9 1.3-13.2 2.3-.9.2-1.8 1.9-1.9 3-.3 4-.4 8-.2 12 .6 10.5.3 9.7 9.9 9.3 9.5-.4 18.9-2.1 28.3-2.4 9.5-.3 19 .3 28.4.6 3.4.1 6.8 0 8.7-3.2 2.4-3.9 4.3-8.2.6-12.8z"/><path d="m46.9 342.7c-1.6-1-2.6-1.9-3.8-2.5-2.2-1.1-4.3-2.6-6.6-3.1-4.4-1-5.3-2.4-4.6-6.9.7-4.1 1.5-8.4 1.4-12.5-.3-12.4 3.3-24.3 5-36.4.4-2.8 1-5.7.8-8.5-.5-9.2-.1-18.3.5-27.5 1.1-16.3.6-32.8 1.2-49.1.2-6.3 1.4-12.6 2.6-18.8 1.5-7.5 1.5-14.8-.4-22.3-1.7-6.9-3-13.8-4.3-20.8-.3-1.3-.1-2.7.1-4.1.9-6.6 2.1-13.2 2.8-19.8.2-2 0-4.6-1.2-6-4.6-5.6-4.2-11.7-2.8-18.1 1.3-5.5 2.1-11 0-16.5-.2-.6.2-1.8.8-2.4.9-1 2.1-1.8 3.1-2.7 2.7-2.2 5.2-5.7 8.2-6.2 2.9-.5 6.3 2.1 9.6 3.3 1.2.4 2.5.6 3.7.6 12 0 23.9.1 35.9 0 2.7 0 5.5-.2 8.2-.8 9-2.2 17.9-.5 26.8.1 1.3.1 2.7.6 3.9 1.3 5.3 2.8 5.6 5 2.6 9.9-3.4 5.7-7.7 10.1-14 12.6-1.3.5-2.6 1.8-3.4 3.1-6.7 10-13.3 20.1-20 30.1-1.7 2.6.2 9 3.1 10.2.1 0 .2.1.3.1 9.5 1.8 15.2 8.5 20.3 15.9.6.9.9 2.4.7 3.5-1.5 9.6-2.8 19.3-5 28.7-1.2 5.4-3.5 10.6-10 12.6-9.1 2.8-17.8 6.6-26.8 9.7-5.1 1.7-10.5 2.5-15.6 4-2.9.9-6 2.2-8.3 4.1-1.5 1.3-2.5 3.9-2.6 6-1.2 31.5-2.1 63-3.3 94.5-.1 3.6-1.4 7.2-2.3 10.8-2.2 8-4.4 15.7-6.6 23.9zm15-148.7c3 2.7 6.2 1.4 8.7.1 8.6-4.4 17-9.3 25.6-13.8 5.5-2.9 7.6-7.6 8.3-13.3.7-5.2.5-10.5-4.8-12.9-8.7-3.9-17.7-7.3-26.7-10.3-4.2-1.4-6.6.4-7.6 4.8-2.3 10.1-4.8 20.2-6.1 30.4-.7 5.3.8 10.8 1.3 16.2 0 .3.3.5.5.9.3-.8.5-1.3.8-2.1zm1.6-63c.5.1 1 .2 1.4.4 1.9-2.2 3.8-4.3 5.5-6.7 1.4-1.9 2.2-4.1 3.7-5.9 1-1.2 2.6-2.5 4-2.5 6.7-.2 10.6-4.3 13.7-9.4 4-6.7 7.6-13.6 11.7-20.2 1.4-2.2.8-3.5-1-4.3s-3.9-1.2-5.8-1.2c-7.9.2-15.8.6-23.7 1-2.1.1-4.1.8-6.2 1.3-3 .7-4 2.3-3.4 5.5.9 4.6 1.8 9.4 1.6 14.1-.3 6.9-1.6 13.8-2.2 20.8-.1 2.3.5 4.7.7 7.1z"/><path d="m239.1 242.2c.5-6.1-4.5-3.7-7.5-5.2.5-3.5 1.2-7 1.5-10.6.1-1.6-.2-3.4-1-4.7-2.3-3.7-2.6-7.8-.1-11.1 1.9-2.4 3.8-4.8 5.9-7.1 3.1-3.4 9.6-2.2 11.5 2.2.1.3.2.6.3.9.9 9.5 7.4 13.6 15.5 16.1 4.3 1.4 8.7 2.7 12.9 4.3 4.1 1.5 8.1 3.3 10.3 7.4 1.8 3.3 1.3 4-2 5.6-7.9 3.8-15.9 4.8-24.6 3.6-7.4-.9-14.8-.9-22.7-1.4z"/></svg>