<svg enable-background="new 0 0 400 400" viewBox="0 0 400 400" xmlns="http://www.w3.org/2000/svg"><path d="m185.3 208.7c-1.2-7-2.3-12.9-3.2-18.8-.3-1.9 3.8-6.2 6.1-6.6 19.9-3.3 39.9-6.5 59.8-9.7 1.1-.2 2.3-.4 3.4-.5 3.8-.6 6.2-3.3 5.4-7-.7-3.2-1.8-6.3-3-9.3-.3-.8-1.8-1.6-2.7-1.6-6 0-12-.1-18 .3-11.8.9-23.6 2.2-35.4 3.2-1 .1-2.1-.3-2.9-.8-2.9-1.9-5.7-4-8.7-5.8-2-1.2-1.6-2.9-1.1-4.4.3-.9 1.6-1.8 2.6-2 20.8-3.7 41.7-7.2 62.5-10.8.8-.1 1.6-.4 2.5-.7-.6-3.6-1.1-7-1.8-10.4-.2-.9-1.2-1.9-2.1-2.3-6.2-2.8-12.8-3.2-19.3-2.2-13.3 1.9-26.5 2.5-39.8.9-3.2-.4-6.7-.2-8.3-4.2 5.5-3.5 11.4-5.9 17.6-7 14.7-2.8 29.5-5.9 44.6-5.9 4.9 0 7.2-3 5.7-7.4-2.1-6 .5-11.5 1.2-17.1.4-2.9.5-5.4-.4-8.5-1.1-3.6-.3-7.8-.3-11.8 3.2.4 5.5.8 8 1 4.3.4 6.4 2.6 7 7.1 1.4 10.6 2.9 21.2 4.3 31.8.1.6.2 1.2.4 2.2 6.6-1.1 13-2.5 19.4-3.1 11.3-1 22.7-1.6 34.1-2.3 1.2-.1 2.6.1 3.8.5 5.3 1.7 10.6 1.5 15.9-.3 2.4-.8 4.6-.4 5.8 2.3.8 2.1.9 3.8-1.6 5-1.8.8-3.3 2.3-5.2 3.1-1.7.7-3.7 1-5.6 1.4-1.3.3-2.8.2-4 .7-7.6 3.1-15.3 5.4-23.5 5.9-1.4.1-2.8.4-4 .9-7.8 3.2-15.8 3.5-24 2.3-3.9-.6-6.6 1.2-8.7 4-2.4 3.3-2.5 7.5-.9 10.6 1 2 4.9 2.8 7.7 3.4 2.1.5 4.4-.3 6.6-.4 11.5-.6 23-1.3 34.5-1.8 6.5-.2 13.1.1 19.7.2 1.9 0 4.5 0 4.5 2.4.1 2.1-.8 4.7-2.2 6.1-1.5 1.4-4.2 2.1-6.4 2.1-4.4 0-8.3 1.3-12.1 3-6.2 2.9-12.9 1.9-19.4 2.5-9.6.9-19.2 1.4-28.8 2.1-.7.1-1.5.3-2 .7-2.1 1.7-3.5 9.1-2.1 12.4 1.4 3.1 4.4 4.1 7.4 4 6.1-.2 12.3-.6 18.3-1.4 7.1-.9 14.3-1.4 20.8-5.1.5-.3 1.2-.4 1.8-.4 10.5 1.3 21 2.3 31.4 4 4.5.7 8.5 3.2 10.8 7.6 1.5 2.9-1.5 8.7-4.8 8.7-8.2 0-16.5-.3-24.7-.5-.7 0-1.5-.3-2.1-.7-1.9-1.3-3.7-1.1-5.7-.3-1.4.5-3 1.2-4.3.9-6-1.2-11.4 1.3-17 2.4-6.7 1.2-13.6 1.4-20.4 2.1-.9.1-2 0-2.8.3-11.8 4.6-24.3 5.1-36.8 5.6-6.3.2-12.6-.4-18.7 2.4-2.6 1.2-5.8 1.8-8.6 1.7-4-.1-6.9 1.7-10.1 3.6-6.3 3.1-13 6.1-20.1 9.7z"/><path d="m174.2 215.1c-7.9 3.4-14.7 6.9-21.8 9.4-8 2.8-16.3 4.8-24.5 7.1-9.6 2.8-19.2 5.8-28.9 8.2-7.2 1.8-14.5 3-21.8 4-3.8.5-6.9 1.8-9.1 4.8-1.6 2.1-3.6 2.8-6.1 2.1-4.1-1.1-7.4.5-10.7 2.7-3.2 2.1-7.9 1.9-10.4-1-3.2-3.6-6-7.6-9.1-11.6 5.2-3.6 10.8-4.9 16.5-5.7 4.4-.7 8.8-1.3 13.1-2.1 1.3-.2 2.6-.8 3.9-1.3 3.6-1.4 6.4-3.3 5.8-7.8-.1-1.1.3-2.3.4-3.5.2-3.1.2-6-1.1-9.1-1.5-3.4-1.2-7.4-1.8-11.2-.8-5.2-1.8-10.4-2.4-15.7-.4-3.8-.1-7.7-.1-11.6 0-.8.1-1.7 0-2.5-.5-6.7-1.3-13.4-1.6-20.2-.1-2.8-1-4.3-3.6-4.4-4.7-.2-9.5-.1-14.2-.1-2.3 0-4.7.6-7 .2-1.7-.3-4.1-1.2-4.7-2.4-.6-1.5.2-3.8.9-5.6.5-1.2 1.7-2.1 2.7-3 3.1-2.8 5.4-6.1 7-10 1.4-3.5 5.2-5 8.3-3.1 4.2 2.5 8.7 2.3 13.2 1.9 7.7-.8 15.3-1.6 23-2.4 2.1-.2 4.4-2.6 4.3-5.5-.1-4.3-.6-8.6-3.6-12.2-4-4.8-3-10.8-3.3-16.4 2.7-1.4 5.4-3.9 8.2-4 7.4-.4 14.8.1 22.2.5 3.3.2 4 1.7 1.9 4.5-4.9 6.8-8.2 14.2-10.2 22.4-.2.7-.3 1.5-.4 2.2-.7 5-.3 5.7 4.7 5.5 6.9-.4 13.7-1.1 20.6-1.5 3.6-.2 7.2 0 10.7.3 1.4.1 2.9.9 4 1.8 2.5 2 2.3 3.6-.6 5.1-5.1 2.6-10.1 5.3-15.2 7.8-1.5.8-2.2 1.5-2 3.4 1.5 13 2.8 26.1 4.2 39.1.9 7.8-1 15.3-2.5 22.9-.7 3.8-.5 7.8-.7 11.6-.1 2 .7 2.9 2.8 2.8 6.3-.2 12.7-.3 19-.4 4.5 0 9.1-.1 13.5.5 2 .5 3.8 2.1 6.5 3.5zm-51.6.5c-.7-1.5-1.5-2.5-1.7-3.7-1.3-8.7-2.8-17.2-2-26.1.9-10.5 2.2-21 .5-31.6-.5-2.9 1-6.1 1.6-9.1.1-.8.4-1.7.1-2.3-1.5-3-3.1-6-4.8-9.3-9 2.1-18.1 3.7-26.9 6.2-6.5 1.9-5.8.9-5.4 8.4.3 5 .4 10.1.2 15.1-.3 6.5-1.5 13-1.6 19.5-.2 13.1 3.7 25.9 2.6 39.1 0 .2.2.3.5.8 12.8 1.2 24.9-2.8 36.9-7z"/><path d="m249.5 221.8c-2.7 5.4-7.7 7.5-13 8.7-2 .5-2.4 1.5-2.4 3.4.1 3.4-.1 6.8.1 10.2.9 15.2-1.3 30.2-4.1 45.1-.8 4.5-1.3 9-2.3 13.4-.5 2.2-1.5 4.6-3 6-2.6 2.3-3.8 5-4.6 8.1-2.4 9.3-8.2 16.4-15.5 22.2-2.1 1.7-5.1 2.5-7.8 2.8-2.8.3-4-1.7-2.9-4.4 2.8-6.9 5.4-13.9 9.9-20.1 2.3-3.2 3.2-7.5 4.7-11.3.4-1 .4-2.3 1.1-2.9 6.4-5.6 5-15 10.3-21.1.4-.4.4-1.5.2-2.1-2.4-6.6-1.3-13.4-1.4-20.1-.1-14 0-27.9-.2-41.9 0-1.9.6-2.6 2.3-2.9 20.3-4.5 40.6-9.1 61-13.5 3-.7 6.3-.2 9.5-.4 3.8-.2 7.7.1 11.4-.7 5.2-1.2 10.3-.5 15.4-.2 1.6.1 3.2.4 4.7.3 2.4-.1 3.8.6 4.6 3.1.5 1.5 2 3 3.4 4 5.4 3.6 6.6 8.4 6 14.7-1.4 15.5-3.3 30.9-1.9 46.5.8 8.7 1.1 17.5 1.1 26.3 0 5.8-1 11.6-1.4 17.4-.1 1.2-.2 2.8.4 3.6 2.2 2.5 2.1 5.3 1.9 8.3-.3 4.1-.7 8.2-.9 12.3-.1 2.6-1.8 3.8-3.8 4.5-2.2.7-4.2.5-4.6-2.5-1.3-7.8-2.8-15.6-3.8-23.4-1.1-8.4-2-16.8-2.5-25.3-.4-6.6 0-13.3-.1-19.9-.1-4.3-.5-8.6-.7-12.9 0-.9-.3-2.2.1-2.7 2.4-2.5.8-4.8.4-7.5-1-6-1.1-12.1-1.8-18.2-.4-3.2-.7-6.6-1.8-9.5-1.6-4-4-4.3-7.8-2.7-2.1.8-4.5.9-6.8 1-4.2.2-8.5-.7-12.1 2.4-.2.2-.6.3-.9.3-6.3 0-12.6.4-18.8-.1-5.7-.5-10.5 2-15.8 2.8-1.7.2-3.4 0-5.1 0-.3-.4-.5-.8-.7-1.1z"/><path d="m315.4 282.2c-3.2 2.4-6.3 4.3-10.4 5-4.5.7-8.8 2.8-13.2 4.2-1.8.5-3.7 1-5.5 1-11.2-.3-22.2.4-33.1 2.9-1.5.4-3.2.2-4.7.3-5.2.5-9.1-1.1-10.2-7.4 3.9-1.3 8-2.9 12.3-3.9 12.9-2.9 25.8-5.9 38.8-8.1 5.8-1 12-.4 18 0 3.6.1 6.5 2.1 8 6z"/><path d="m244.6 252.6c5.5-2.4 10.7-4.8 16.6-2.6.8.3 2.3.1 2.8-.5 4.9-4.8 11.2-5.9 17.5-7.3 2.3-.5 4.6-.8 6.8-1.6 6.3-2.3 10.8 1 15 4.8 2.5 2.3 2.1 8.3-1 10.2-3.7 2.4-8.1 3.8-12.3 5.5-1.7.7-3.3 0-4.2-1.8-1.1-2.1-2.7-2.2-4.8-1.7-8.9 2.2-17.8 3.7-27 2.4-4.5-.5-7.6-2.9-9.4-7.4z"/></svg>