<svg enable-background="new 0 0 400 400" viewBox="0 0 400 400" xmlns="http://www.w3.org/2000/svg"><g transform="translate(-4.053 344.355) scale(0.403509 -0.403509)"><path d="M472 757Q473 757 490 733Q507 710 516 696Q521 690 527.0 680.5Q533 671 540 662Q555 640 562 631Q564 628 566.0 625.5Q568 623 568 621Q568 619 573 614Q576 611 576 609Q576 606 565 608Q556 611 535.0 614.5Q514 618 498 619Q480 621 458 626Q445 630 434.0 632.0Q423 634 417 635Q404 636 401.0 638.0Q398 640 402 644L412 663Q423 685 441.5 716.0Q460 747 465 753Q471 759 472 757ZM753 617Q753 609 745 572L736 529L691 528H645L634 479Q630 460 628.0 446.0Q626 432 626 427Q628 425 651 425Q705 425 763 431Q822 437 850.5 443.0Q879 449 920 465L939 473Q942 470 922.0 433.0Q902 396 885 375Q872 358 863.0 350.5Q854 343 838 337Q826 332 820.0 330.5Q814 329 800 330Q768 333 693 347Q615 361 569.5 366.0Q524 371 462 371Q427 371 404.0 369.5Q381 368 357 365Q289 357 224.0 345.0Q159 333 146 326Q140 323 134 323Q128 323 120 329Q108 338 98 375Q97 380 82 422L72 455H73Q76 455 82 452Q98 448 131.5 441.5Q165 435 190 432Q212 428 282 426L350 425V434Q350 446 345 476L342 509L301 510H259L252 524Q241 545 233.0 568.0Q225 591 228 595Q237 594 246 591Q266 586 291.0 584.5Q316 583 362 583H416Q467 583 497.0 584.5Q527 586 560 590Q615 599 642 600Q670 603 706.0 609.0Q742 615 744 617Q745 618 748.5 618.0Q752 618 753 617ZM567 525H554Q526 525 484.5 523.5Q443 522 423 521Q421 519 418.5 500.5Q416 482 416 458V426L426 427L547 435Q551 435 553.5 437.0Q556 439 558 444Q561 453 564.5 476.5Q568 500 567 512ZM655 327Q658 327 658 168Q661 49 664 11Q667 -17 668 -42H667Q662 -42 650 -39Q627 -33 583.0 -28.0Q539 -23 506 -23Q477 -23 427.0 -27.5Q377 -32 349 -37L332 -40L330 -34Q325 -14 325 97Q325 207 314 273Q305 320 310 317Q316 313 360.5 310.5Q405 308 462 308Q529 308 558.0 310.5Q587 313 632 323Q638 324 646.5 325.0Q655 326 655 327ZM579 248Q549 249 484.0 250.0Q419 251 388 251Q388 250 387.5 242.0Q387 234 387 213V177L398 176Q405 175 463 175Q528 175 549 176L583 177L582 213ZM567 119Q552 119 552 117Q550 117 534.0 116.0Q518 115 476 114L402 110V71L403 31H423L513 33L584 35V73Q584 113 583 115Q581 119 567 119Z"/></g></svg>