<svg enable-background="new 0 0 400 400" viewBox="0 0 400 400" xmlns="http://www.w3.org/2000/svg"><path d="m166.9 45.4c3.8-2.3 7.7-3.7 11.9-3.1 7.7 1.2 15.2.9 22.4-2 13.7-5.5 28.2-4.7 42.5-5.7 9.8-.7 19.2 1.1 28.5 3.2 5.5 1.3 10.8 1.4 16.1-.5 2-.7 3.5-.4 4.7 1.2.6.7 1.2 1.5 2 2 5 3.4 6.4 8.2 5.8 14-.2 2-.8 2.9-2.7 3.5-9.6 3.4-19 7.1-28.6 10.3-3.7 1.3-6.1 3.4-8.4 6.5-3.1 4.2-4.6 8.2-2.7 13.4 3.7 10.6.9 21.1-.2 31.7-.1 1.3-.3 2.5-.5 3.8-.6 5.5-.6 5.4 4.3 7.9 6.1 3.1 12.8 3.6 19.4 4.4 3.2.3 6.3.4 9.5.8 4.3.5 7.5 2.6 9.2 6.8.2.5.4 1 .5 1.5 1.4 9.5 6.6 17.1 12.8 24 5.8 6.5 8 14.1 7.9 22.5 0 1.2-.3 2.6-1 3.5-6.8 8-10 17.4-11.7 27.7-1.8 10.8-4.7 21.4-11.9 30-2.8 3.4-6.1 6.4-9.4 9.4-3.5 3.2-7.2 6.3-11.1 9-7.8 5.2-10.2 12.9-10.5 21.6-.3 8.9.7 17.8 3.1 26.4 1.5 5.5 4.4 8 10.2 8.1 3.5.1 7.2-.5 10.6-1.5 4.4-1.2 8.7-1.7 13.1-.4 6.2 1.9 12.3.3 18.4-.8 4.7-.8 9.4-1.2 14.2-1.6 3.9-.4 7.2 1.2 8.7 4.6 2.5 5.7 4.3 11.6 6.2 17.5.2.6-.4 1.8-1 2.4-11.7 10.9-25 16.3-41.2 12.1-5.6-1.5-11.2-3.4-17-.6-.6.3-1.8-.3-2.5-.8-4.8-3.6-10.1-4.6-15.9-3-6.7 1.9-13.6 2-20.5 1.4-18.1-1.5-35.9.4-53.8 2.9-13.9 1.9-27.8 4-41.8 5.7-4 .5-8.2-.5-12.3-.8-5.2-.4-10.3-.8-15.5-1.3-.9-.1-2.2-1.1-2.4-1.8-1-5.6-5-8.9-8.8-12.4-3.9-3.5-5.2-9.5-2.7-14.1.4-.8 1.8-1.3 2.8-1.6 12.3-3.4 24.9-5 37.6-5.2 14.6-.2 29.2-.5 43.8 0 8.2.3 16.3 2.2 24.5 3.5 5.8.9 11.3.2 16.6-2.5 3.7-1.8 5.5-4.5 5.6-8.4.5-12.6-1.4-24.9-4.8-37-.2-.7-.5-1.5-1-2-6.1-5.5-12.5-10-21.3-9.6-13.7.6-27.5 1-41.2 1.7-2.6.1-3.7-.8-4.4-3.2-1.4-4.8-3.2-9.4-4.7-14.1-1.6-5.1-3.4-10-7.3-13.8-.6-.6-1.3-2.1-.9-2.7 4.9-8.8 1.6-17.5-.1-26.2-1.1-5.8-2.4-11.6-3.5-17.4-.3-1.5-.4-3.2-.3-4.7.6-13.4 1.3-26.8 2-40.3.2-4.2 4.5-9.2 8.6-9.7 11.6-1.5 23.3-3.1 35-4.2 4.5-.4 9 .6 13.6.9 2.3.1 4.7.1 6.9-.2 4.2-.7 6-2.5 6.8-6.7 1.2-6.7 2.5-13.3 3.5-20 .2-1.4 0-2.9-.4-4.2-1.6-4.5-3.5-8.8-5-13.3-.5-1.4-.6-3.6.2-4.6 3.7-5 1.1-9.7-.2-14.5-.2-.8-1.3-1.4-2-1.9-9.1-6.3-19.4-9.1-30.4-9.7-13.3-.9-21.8-6.3-27.9-17.8zm59.9 199.6c8 .5 16 1.2 24.1 1.5 1.7.1 3.8-.5 5.2-1.4 3-2 6-3.5 9.6-3.9 2.4-.3 4.8-1 7.2-1.3 1.8-.2 2.8-1 3.3-2.8 1.4-4.8 3.1-9.4 4.3-14.3 3.2-12.7 4.6-25.5-1.2-37.9-3.2-6.9-7-13.5-10.7-20.1-.4-.7-1.6-1.3-2.5-1.5-8.5-1.7-17-3.3-25.5-5.1-3.3-.7-6.4-.5-9.6.4-7 1.9-14.1 3.7-21.3 5-9.7 1.7-17 7.2-23.8 13.7-.6.5-.9 1.4-1.2 2.2-3.9 11.9-6.3 24.2-6.1 36.8.2 10.7 3.3 19.6 14.6 23.9 4.3 1.6 8.2 3.4 13 3.5 6.7.1 13.6.8 20.6 1.3z"/><path d="m70 301.2c-1.4-8.7-2.8-17.2-4.1-25.8-2-12.6-4.1-25.3-5.9-37.9-.5-3.8-.6-7.9.3-11.6 2.9-11 1.8-21.7-1.1-32.5-1.9-7.1-2.4-14.2-2-21.7.3-5.3-1.3-10.8-2.4-16.1-1.4-6.4-3.2-12.7-4.8-19.1-.3-1.2-.6-2.5-.6-3.7.9-14.4-1.1-28.5-4.1-42.5-1.6-7.7-.8-15.4 1.1-22.9.2-.6.3-1.4.7-1.7 2.8-2.3 5.6-4.5 8.4-6.6 3.3-2.4 6.4-1.4 9.6.6 10.6 6.7 14.4 16.8 14.2 28.7-.1 10.6-.9 21.2-.7 31.7.2 9.1 1.1 18.1 2 27.2 1 10.7 2.2 21.5 3.6 32.2.6 4.4 1.4 8.8 3 12.9 3.3 8.8 3 17.7 1.9 26.8-2.1 17.1-3.8 34.3-2.4 51.6.5 6.6-.5 13.3-.7 20-.1 2.5-1.2 4.3-3.1 5.9-3.6 3.1-7.7 4.8-12.9 4.5z"/></svg>