<svg enable-background="new 0 0 400 400" viewBox="0 0 400 400" xmlns="http://www.w3.org/2000/svg"><path d="m362.4 324.2c-.2 7.5-6.9 8.5-10.8 12.6-.6-1.1-1-1.9-1.5-3-.4 1.2-.7 2-.8 2.4-9.4 1.9-18.3 3.9-27.4 5.4-3 .5-6.3-.2-9.4-.6-2-.2-4-.7-5.9-1.3-21.3-6.4-14.8-1.4-28.5-24.8-4.4-7.5-6-15.7-6.4-24.3-.5-8.9-1.2-17.7-1.8-26.7-3.1.1-5.2 1.2-6.6 3.8-1 1.8-2.4 3.3-3.3 5-6 11.2-15.5 19.3-24.1 28.3-.7.8-1.7 1.3-2.6 1.9-11.8 7.7-23.5 15.4-35.3 23.1-.9.6-2.1.6-3.8 1.1-2.1 5.8-8.4 6.6-14.2 9.1-.4-1.4-1.2-2.7-1-3.9.7-4.6 1.1-9.4 6.5-11.7 3.5-1.4 6.7-3.6 9.7-5.2.9 1.3 1.5 2.5 2.4 3.5.1.1 1.8-.7 1.8-1-.1-1.5-.6-2.9-1-4.9 4.7-2.6 10.2-5.6 15.6-8.7 1-.6 2.4-1.1 2.7-2 1.1-3.4 3.8-4.2 6.7-5.1 1.2-.4 2.7-.4 2.4-2.6-.1-.7 1.5-1.9 2.6-2.5 8.4-4.8 12.4-13.3 18.2-20.7-3-2-5.8-4-8.7-5.8-2.2-1.3-4-2.8-3.2-5.8-3.4-.7-5-3.1-5.7-5.9-1.4-5.4-2.4-10.9-3.8-16.3-.9-3.3-2.3-6.5-3.3-9.8-2.9-10.2-1.9-20.5-1.1-30.9 1-12.4 1.8-24.9 2.8-37.3 1.2-13.9 2.4-27.8 3.7-41.7.3-3.1 0-4.2-3.2-7.9 3-4 6-8 9.1-12 .5-.6 1.6-1 2.4-1 15.3.8 30-3.6 45.1-4.6 7-.5 14.1-.6 21.2-.8 4.7-.1 9.3-.5 14-.2 2.9.2 5.8 1 8.5 2.1 2 .8 2.7 2.5 1.9 5-2.4 6.9-4.8 8.8-12.1 8.9-10.6.1-21.1.1-31.7.5-4.7.2-9.4 1.3-14.1 2.2-5.1.9-10.1 2-15.2 2.7-5.1.8-6.9 2.3-7.7 7.2-1.5 8.3-.4 16.5.9 24.6.3 1.9 3.1 3.1 4.8 1.8 5.6-4.5 11.2-9.1 16.4-14 1.3-1.3 1.7-3.9 1.9-5.9.6-4.5 2.9-7.5 6.9-9.4 1.8-.9 3.4-2.1 5.1-3.2 2.9-1.9 5-1.6 7.6.8 3.8 3.4 6.8 7.2 6.7 12.7-.1 6.1 4 9.2 8.9 11 4.2 1.6 8.8 2.5 13.2 3.1 1.6.2 3.4-1.5 5.8-2.7.9 2.9 2.3 5.9 2.4 8.9.2 5.8.6 11.7-1.5 17.5-.9 2.4 0 5.4-.3 8.1-.5 4.6-.9 9.2-2 13.7-2.2 8.6-4.8 17.1-7.5 25.5-2.8 8.7-7.6 16.4-14 22.8-3.7 3.7-8.6 6.1-12.8 9.3-.9.7-1.7 2.2-1.6 3.2.7 13.6 1.2 27.3 2.5 40.8.5 5.1 2.8 10.1 4.5 15.1.3 1 1.4 1.8 2.4 2.4 7.6 5.1 16.3 7.4 25.2 9.1.5.1 1.1 0 1.5.3 5.6 3.7 11.8 2.2 17.9 2.3 3 .1 6 .7 8.9 1.5 4.4 1.4 8.7 3.2 13.1 4.9zm-124.9-139.6c2.1-1.8 4.1-3.4 5.9-5.2 2.1-2 4.4-2.9 7.3-3.1 8-.5 16-1.1 23.9-2.3 6.2-.9 12.2-2 18.5-1.2 2.9.4 5.9 0 8.8-.3 1.4-.2 3.7-1.3 3.7-1.9-.1-2.9 1.9-6.6-1.2-8.6-7.1-4.4-14.5-8.2-21.8-12.1-1.1-.6-3-.4-4.1.2-16.1 9.9-32.1 20-48.1 30.1-.8.5-1.6 1.8-1.7 2.7-.2 4.1 1.9 7.6 4.9 9.8 1.3.9 4.2-.3 6.4-.7.4-.1.7-.3 1.2-.6-1.2-2.1-2.4-4.3-3.7-6.8zm22.9 63.4c8.4.3 13.7-3.2 17.8-8.8 3.4-4.7 6.5-9.6 9.6-14.5.8-1.2 1.5-3.5 1-4.3-.8-1.1-2.8-1.4-4.4-1.8-.9-.2-1.9.1-2.8.3-4.8.8-9.6 1.5-14.3 2.5-7.2 1.6-14.4 3.4-21.5 5.2-2.3.6-3.4 2.1-3.5 4.6-.2 4.9.8 9.4 3.4 13.6.3.6 1 1.1 1.6 1.2 4.7.7 9.5 1.4 13.1 2zm-15.5-51c-.1 1.4-.1 2.2-.2 3.1-.1 3.7.7 4.5 4.4 4 2.8-.4 5.6-.9 8.5-1.2 14.5-1.5 29-3 43.5-4.6 1.1-.1 3-1 3.1-1.7.2-1.6 0-3.7-.9-4.9s-2.8-1.8-4.4-2.1c-3.1-.5-6.3-1.1-9.4-.9-8 .6-16.2.7-23.8 2.7-7 1.8-13.3 5.7-20.8 5.6zm-16.6 5.2c1.2-1.8 2.3-2.8 2.4-3.9.2-2.2-1.5-3.8-3.5-3.4-1.2.2-3 2.3-2.8 3.3.1 1.2 2 2.2 3.9 4z"/><path d="m116.5 97.5c6.3-9.8 13.1-20.3 19.8-30.8.8-1.3 1.2-2.9 1.8-4.4 1.2-2.7 4.5-4.2 7.1-3.3 3.1 1 3.3 3.4 2.9 6.2-.5 4.5-1.7 8.7-4.9 12.1-.7.7-1.2 1.5-1.6 2.4-2.2 4.4-2.9 7.3 2.6 9.7 18 8.1 36.2 15.4 56.3 15.7 1.5 0 2.9.1 4.8.2.2 3 .8 5.9.4 8.8-.2 1.3-2.4 3.2-3.8 3.2-5.2.2-10.1 1.3-15.1 2.8-2.2.7-4.9.1-7.2-.4-4.1-.8-6.8.7-8.9 4.2-1.5 2.4-3.2 4.8-5.2 6.8-2.5 2.3-5.4 4.3-8.3 6.1-2.6 1.5-4.2 3.4-4.3 7 7.2 1.3 14.2 2.8 21.2 3.7 3.3.4 5.2 1.3 5.2 5.3-4.2 1.5-8.7 2.8-13 4.9-6.8 3.3-13.5 3.8-20.7 1-4.7-1.8-9.8-2.6-14.7-4-1.9-.5-3.3-.3-4.9.9-9.1 6.3-18.2 12.8-27.6 18.7-7.2 4.6-14.9 8.5-23.7 9.3-3.3.3-6.7.1-9.8.1-1-3.3-.2-5.1 2.4-6.7 13.3-8.1 26.5-16.3 39.6-24.6 1.4-.9 2.8-2 3.7-3.3 1.5-2.1 1.5-3.9-.6-6.3-3.4-3.9-5.9-8.7-8.9-13-1.7-2.4-3.3-5.1-5.6-6.6-1.8-1.2-5-1.4-7.2-.7-6.3 1.9-12.2 4.8-18.5 6.6-5.3 1.6-10.9 2.3-16.4 3.1-1.5.2-3.2-.1-4.6-.8-1.2-.6-2.5-1.9-2.7-3-.1-1 1-2.6 2.1-3.2 16.5-10 34.2-17.1 52.6-22.5 3.4-1 6.7-2.6 10-3.8 1.7-.8 3.2-.9 5.7-1.4zm11.4 3.9c-.4.2-.7.3-1 .5-3.3 2.7-6.5 5.4-9.8 8.1-4.8 4-4.8 8.6-.1 12.7 2.8 2.4 5.7 4.8 8.7 6.9 6.1 4.4 12.7 5.6 18.7-1 2.2-2.4 3.5-1.9 4.3.9 1.3.1 2.3.1 3.7.2-1-4.5.8-8 3.8-11.2.7-.7.9-2.8.4-3.5-1-1.3-2.7-2-4.2-2.8-2.5-1.3-5-2.5-8.1-4-1.9 1.7-4.3.4-6.8-1.2-3.2-2.1-6.5-3.8-9.6-5.6z"/><path d="m162 199c-6.1 1-12.3 1.9-18.4 2.9-8.8 1.5-17.7 3.3-26.5 4.6-5.3.8-9 3.2-9.8 8.7-1 7-2.1 14-2.5 21.1-.5 8.5-1.9 16.6-4.9 24.6-3.1 8.5-4.6 17.6-7.6 26.2-2.8 7.8-6.3 15.4-10.1 22.8-1.5 3-4.2 5.6-6.9 7.7-7.6 6-15.5 11.8-23.4 17.5-1.8 1.3-3.9 2-6 2.7-2.4.8-4.9 1.2-7.1-.9-.6-.5-1.5-.8-2.3-1-1.8-.4-4.1-.2-4.1-3s-.4-5.7 2.8-7.5c11.3-6.2 19.3-16 27.9-25.2 9-9.6 15.1-21.1 18.6-33.9 1.7-6 3.4-12 5.4-17.9 1.4-4.1 2.9-8.2 4.9-12 1.7-3.3 2.7-6.5 2.6-10.3-.1-4 .3-8 .2-12.1 0-1.2-.7-2.8-1.7-3.6-2.8-2.3-3.5-6.6-1.4-9.8.4-.5.9-1 1.2-1.5 3-5.4 7.3-8.1 13.7-6.9 1.1.2 2.5-.3 3.6-.8 19.7-8.1 40.4-11.7 61.4-13.4 6.1-.5 12.4.7 18.5 1.8 4 .7 5.2 5.4 2.7 8.7-.4.5-1.5.7-2.2.8-5.5.1-10 2.2-13.6 6.3-2.9 3.3-6.4 4.6-10.7 4-1.4-.2-2.7 0-4.1 0-.1-.1-.1-.4-.2-.6z"/><path d="m114.8 225.7c14.6-.1 29.1-.1 43.6-.2 3.6 0 7.2 0 10.8.2 3 .1 4.6 2.2 3.8 5.1-1.6 5.8-6.2 8.8-11.3 10.6-3.3 1.2-7.1 1.1-10.6 1.2-2.3 0-4.3-.7-5.5-3.2-1.6-3.2-4.2-3.1-6.4-.2-2.5 3.4-5.7 4.8-9.7 3.5-3.3-1.1-6.6-2.3-9.5-4-4.4-2.7-5-7.4-5.2-13z"/><path d="m120 257.2c4.1 1.2 8 2.1 11.7 3.5 4.6 1.7 9.3 1.8 14 .8 1.1-.2 2.3-.6 3.4-.4 8.4 1.3 16.1-3.2 24.4-3 1.6 0 3.1 1.1 4.7 1.6-.9 1.3-1.7 2.8-2.8 3.7-5.8 4.6-12.3 7.6-19.5 9.5-8.1 2.1-15.9 4.9-23.9 7.4-1.5.5-3.1.9-4.6 1-3 .2-5.2-.6-6.1-4-.9-3.8-2.6-7.4-3.5-11.2-.5-1.9-1.7-4.3 1.3-5.7.5-.4.5-1.8.9-3.2z"/></svg>