<svg enable-background="new 0 0 400 400" viewBox="0 0 400 400" xmlns="http://www.w3.org/2000/svg"><path d="m160.1 234c15.7 3.9 26.8 15.9 41.2 23.1 1-5.6 1.9-10.9 3-16.1 1.6-8.1 2.3-16.2 2-24.5-.2-7.9 1.2-15.8 1.9-23.7 1-11.2 1.7-22.4 3.1-33.5 1.1-8.4 3.3-16.6 5-24.9.1-.7.7-1.3 1.1-1.8.9-1 2.6-1.8 2.7-2.8.2-2.5-.3-5.1-.8-7.5-.1-.6-1.4-1.1-2.3-1.4-7.7-2.7-15.4-5.2-23-8.2-4.1-1.6-7.9-3.9-11.8-5.8-1.1-.5-2.3-1.2-3.5-1.2-3.4 0-6.3-1.3-9.1-3.1-10.3-6.5-20.1-13.8-31.5-18.2-2.2-.8-4.4-1.7-6.6-2.1-4.2-.6-7.9-.1-11 3.7-3.1 3.9-7.2 7.1-10.8 10.7-2.9 2.9-4.8 6.3-5.2 10.8h10c13.1 0 26.3-.3 39.4.1 5.2.2 10.4 1.4 15.5 2.8 3.3.9 5.5 3.5 6.6 7-2.6.8-5 1.6-7.4 2.4-9.1 3.1-18 6.8-27.3 9.3-13.4 3.7-27.1 4.9-40.9 3-3.6-.5-7.2-2-10.5-3.7-3.5-1.8-8.4-1.4-11.6 1.8-8.4 8.3-17.7 15.4-28 21.2-5.2 2.9-10.7 5.1-17 3.8-.5-.1-1-.3-1.9-.5 1.9-6.5 2.3-13.9 6-18.9 5.1-6.9 12.6-12 19.1-17.8.3-.3 1.3.1 1.3.1 1.4-2 2.5-4.1 4.1-5.6 8.9-8.3 18.3-16.1 25.3-26.2.4-.6 1.2-1.6 1.5-1.5 3.3 1.2 3.5-2 5.1-3.3 3.5-2.8 7.1-5.7 10.9-8.2 3.6-2.4 6.4-5.2 8-9.5.6-1.7 2.9-2.9 4.3-4.3 4.9-5.1 10.2-5.7 16.7-2.8 4.5 2 8.8 3.8 12.1 7.6 1.3 1.5 3.2 2.4 4.9 3.4 7 4.1 14.2 7.8 21.9 10.5 7 2.5 13.1 7.3 20.1 10 13.6 5.3 24.5 14.3 35.2 23.9.5.4 1 .8 1.4 1.3 4.5 5.3 9.5 7.6 15.9 3 .8-.5 2-.5 3.1-.5 3.9-.1 7.8.2 11.7-.1 2-.1 3.9-1.1 5.9-1.6 2.1-.5 4.3-1.5 6.4-1.4 12.5.1 24.9.4 37.4.7 8.2.2 15.7 3.1 23.2 6.1.9.4 1.3 2.7 1.3 4.2 0 .8-.8 2.1-1.6 2.4-7.1 2.7-14.1 5.6-21.4 7.7-4.7 1.4-9.8 1.5-14.7 2.1-5.6.7-11.1 1.8-16.7 2-6.3.2-12.6-.3-18.9-.7-4.1-.3-8.2-.9-12.3-1.2-1-.1-2.2.4-3.1 1-4.4 2.7-8.8 5.4-13.1 8.2-1 .7-2.1 2.1-2.1 3.1 0 2.9.3 5.9 1.1 8.7 1.8 6 2.9 12.1 2.8 18.4-.2 9.9.1 19.9-.1 29.8-.2 9.5-2.8 18.4-7.2 26.7-.8 1.5-1.2 2.6 0 4.2 2.3 3.3 1.7 7.1 1.1 10.8-3.2 19.3-7 38.5-14.9 56.5-.5 1.2-1.2 2.4-2 3.5-7.5 10-16.5 18.4-26.4 26-2 1.5-4.1 3.1-5.9 4.9-4.4 4.4-9.8 6.8-16.5 8.6-.2-2.2-.9-4.4-.4-6.4.8-3.5 2-6.9 3.5-10.1 6.5-13.5 14.5-26 23.5-37.9 5-6.6 8.8-13.9 10.4-22.6-5.9-1.2-11.6-2.4-17.4-3.6-3.6-.7-7.2-1.5-10.9-2.1-4.3-.7-8.1-2.1-11.4-5-3.1-2.7-6.1-2.3-8.9.6-2 2-4.1 4-6.1 6.1-9.2 10-19.5 18.8-30.8 26.4-4.8 3.3-4.9 9.1-.4 12.9 4.8 3.9 10.2 5.4 16.3 3.2 5.4-2 10.8-3.8 16.1-5.9 1.2-.5 2.3-1.4 3.3-2.3 7-5.9 15.2-9 24.3-9.8 3.2-.3 5 1.1 5.8 4.1.9 3.3 0 5.6-2.8 7.2-9.6 5.3-19.2 10.7-29 15.8-2.3 1.2-5.1 1.7-7.8 1.9-2 .2-3.5.5-4.4 2.3-2.5 5.3-7.1 5.4-11.9 4.6-4.5-.8-8.9-2-13.3-3.1-.9-.2-1.8-.7-2.3-1.4-5.2-7.4-10.6-14.8-15.4-22.5-3.3-5.1-4.9-10.9-4.5-17.2.3-5.4-.2-10.8.1-16.2.5-8-1.4-15.5-4.3-22.8-1.6-3.9-2.9-8-3.7-12.1-.5-2.7.3-5.6.4-8.4.1-1.7.3-3.4.1-5-.2-2-.5-4-1.2-5.9-2.1-6.4-.8-11.9 3.1-17.3 1.6-2.1 2-5.2 2.6-7.9 1.1-5.1 1.5-10.2 2.8-15.2 1.5-5.9 5.6-8.8 11.8-9.2 1.5-.1 3-.2 4.3-.8 10.2-4.5 21.4-4.8 32-7.5 11-2.7 22.1-1.5 33 1.3.8.2 1.7.6 2.2 1.2 3.8 4.2 7.7 8.4 11.2 12.9 4.7 6.1 5.4 13.2 3.6 20.5-1.4 5.6-3.1 11.2-4.9 16.7-.4 1.3-1.6 2.5-2.7 3.4-7.6 6.2-13.6 13.6-17.7 22.5.3.3.1.9-.4 2.1zm-4.3-12c1.6-2 2.8-3.3 3.9-4.7-1.1-.8-2.1-1.5-3.1-2.2 2.7-3.5 3.9-7.9 4.2-12.4.3-4.6-1.5-6-6-5-.6.1-1.2.3-1.9.4-9.9 2.1-19.8 4.5-29.8 6.2-3.4.6-6.9 0-9.6 2.9-.6.7-1.9.8-2.9 1.1-9.2 2.6-9.5 3.3-8.5 13.2.6 6.1 4.1 8.9 10.2 8.1 12.7-1.8 25.1-4.8 36.8-10.2 2.8-1.5 4.9-1.7 6.7 2.6zm-48.4-27c1.9-.8 3.3-1 4.1-1.8 2.6-2.7 5.9-3.4 9.5-3.8 14.8-1.5 29.6-3 44.4-4.6.9-.1 2-.4 2.5-1 2.9-3.6 1.9-11.9-1.7-15-5-4.2-11-6.5-17.3-5.5-12.1 1.9-23.9 5.5-34.9 11-.9.4-1.8 1.3-2.1 2.2-1.6 5.9-2.9 11.7-4.5 18.5zm33.2 48.6c-11.4 3.2-22.4 6.3-33.4 9.5-.6.2-1.3 1.2-1.3 1.8-.1 8.5-.1 17-.1 26 6.4-1.8 11.1-4.6 14.9-8.6 4.5-4.8 8.5-9.9 13-14.7 3.6-3.9 5.7-8.3 6.9-14z"/><path d="m237.4 249.7c4.6-.7 8.8-1.5 13.1-1.9 7.3-.6 14.6-.8 21.8-1.4 1.1-.1 2.6-1.6 3.1-2.8.5-1.1.2-2.9-.4-3.9-3.1-5-5.9-10.2-9.7-14.7-5.7-6.8-12.3-13-15.3-21.6-1.3-3.7-1.9-7.8-2.6-11.7-.1-.8.9-2.3 1.8-2.6 4.8-1.8 8.8-.2 12.6 2.8 11.2 9.1 23.4 16.8 36.3 23.1 4.3 2.1 4.9 2.3 7.1-1.8 3.2-5.9 5.5-12.3 8-18.5.3-.7-.8-2-1.4-2.8-6.1-8.7-12.3-17.4-18.4-26.1-.5-.8-.8-1.7-1.2-2.6-.3-.7-.4-1.4-.6-2 6.6-3.6 16.4-2.8 21.6 2.2 8.7 8.3 16.1 17.7 22.1 28.1 1.5 2.6 1.3 6.3 1.8 9.5 1.1 6.3-.6 11.7-4.4 16.9-3 4.2-5.5 8.8-8.1 13.2-2.6 4.3-2.1 8.2 1.4 11.8 7.9 8.1 15.9 16.1 23.7 24.4 1.2 1.2 1.5 3.2 2.2 4.9.5 1.1.7 2.4 1.4 3.3 3 3.4 6.1 6.7 9.2 10.2-3 2.7-3.9 6-3.9 9.8 0 1.5-.4 2.9-.7 4.4-.5 2.4-1.9 3.6-4.4 4.2-6.6 1.6-13.1 3.4-19.6 5.3-2.1.6-3.8.5-5.6-.9-.9-.7-1.9-1.3-3-1.8-7.3-3.5-12.5-8.8-15.9-16.4-1.5-3.3-4.8-5.8-7.7-8.2-3.7-3.1-6.1-6.9-7.4-11.5-.4-1.5-1.1-3-2-4.3-1.9-2.6-4.1-4.2-7.8-3.2-4.9 1.2-10 1.7-15 2.5-.6.1-1.6.3-1.8 0-1.8-2.5-4-1.4-6.3-1-7.6 1.2-20.8-6.6-24-14.9z"/></svg>