<svg enable-background="new 0 0 400 400" viewBox="0 0 400 400" xmlns="http://www.w3.org/2000/svg"><path d="m173.4 355.7c2.7 0 5.5.2 8.2-.1 2-.2 3.5-.2 4.4 1.9.9 2.2.5 3.9-1.8 4.9-2.1.9-4.2 2.1-6.4 2.6-5.6 1.1-9.4-2.4-9-8.1.7-10.8 1.9-21.5 2.2-32.3.2-7.6-.7-15.2-1.3-22.8-.9-11.7-2.2-23.4-2.6-35.1-.2-6.4 1.4-12.8 1.8-19.2.3-4.4 0-8.9-.2-13.3 0-.7-.2-1.6-.7-2-4.1-4.3-3.4-9.5-2.2-14.4 1.4-6.2 1.9-12.3.5-18.5.3 0 .6.1.9.1.3-1.4 1.2-2.8.9-4.1-2.2-10 0-19.8 2-29.5.4-1.8 0-2.9-1.4-4.1-2.1-1.6-4-3.4-6.1-5.2-2.8 3.3-4.4 6.8-4.8 11-.6 5.5-1.4 11.1-2.5 16.6-1.3 6.3-1.6 12.5-1.4 18.9.4 13.1 0 26.2-.1 39.3 0 3.1-.3 6.1-.4 9.2-.1 1.3.5 2.9-.1 3.8-4.6 6.5-.7 12.9-.3 19.3.9 12.7 1.1 25.4-1.2 38-.3 1.8-1.5 4.1 1.5 5.1.1 0 .1.4.1.6v6c-1.4-.2-2.6-.4-3.9-.6 4.1 1.6 3.3 5 3.2 8.2 0 3.7-.1 7.4 0 11.1.2 5 .7 10 1.2 15.8-2.9 1.5-6.8 3.4-10.8 5.4-2.4-3.3-5-6-5-10.2 0-1.7.4-2.8 2.1-3.3.4-.1.7-.4 1.1-.6 5-2.6 5.5-7.4 1.1-11.6-1 1.6-2 3.1-2.9 4.7-.2 0-.5-.1-.7-.1 0-8.7 0-17.4 0-26.7 1.2 1.3 2.4 2.6 3.7 3.9.6-2.2.1-4.2-.9-6.6-2.4-5.8-4.3-11.9-5.6-18.1-1.6-7.4-2.9-14.8-.8-22.6 2-7.6 3.5-15.4 4.5-23.2.6-5-.1-10.1-.3-15.2-.1-3.1 1.2-4 4-2.6.6.3 1.1.7 1.6 1.1 1.2.9 2.4 2.3 3.6.4 1.1-1.6 2.3-3.4-.3-5.1s-4.8-3.8-7.5-5.4c-2.8-1.6-3.3-3.6-3-6.8.6-6 .6-12 .5-18 0-1.8-1.2-3.7-1.9-5.5-.3 0-.6.1-.9.1 1.8-3.7 3.3-7.6 5.5-11 2.3-3.6 2.5-7.1 1.3-10.9-1-3.1-2-6.3-3.3-9.2-.7-1.6-2.3-2.9-3.7-4.7-3.9 6.1-6.2 11.9-6.6 18.2-1.4 22.1-3.7 44.2-2.9 66.5.4 11.5 1.2 22.9 2.6 34.3.6 5.2.4 10.4-2.4 15.1-1.2 2.1-2.8 3.9-4.2 5.9-.4-.8-.9-1.8-1.4-2.8-1.1 1.7-2.2 3.4-3.2 5-1.8-1.9-3.1-3.2-4.7-4.9.2-.2.8-1.2 1.6-2.4-.3-.8-.8-2-1.5-3.8-.9 1.3-1.5 2.3-2.2 3.2-.3-.1-.7-.2-1-.4.4-5.5.3-11.1 1.2-16.5 2.1-12.9 2.2-25.6 0-38.5-.9-5.2-.3-10.8-.1-16.1.5-17.3.9-34.7 1.6-52 .3-6.6 1.2-13.3 2-19.9.3-2.3-.1-4.1-2.1-5.5-5.5-3.8-6.9-9.7-7.5-15.7-.7-7.5-.7-15-1.1-22.7 6.7-1.4 11.4-4.9 13.4-12.2-1.7-.5-3.3-1.2-5-1.3-2.1-.1-4.2.2-6.3.4-2.6.3-4-.4-3.6-3.4.9-6.1 1.5-12.2 2.2-18.3.3-3.2.7-6.4.5-9.5-.3-4.1.1-7.6 4.6-9.5-.9-.7-1.4-1.1-2.1-1.6 2.7-2.5 5.2-5.1 8-7.3 1.2-1 3-1.6 4.6-1.7 9.2-.8 18.3-1.5 27.5-2 14.3-.7 28.5-1.2 42.8-1.8 1.6-.1 3.2.1 4.8.2 5.9.4 8.3 2.3 10.3 8.6-2.5.4-4.9 1-7.4 1.2-1.9.2-3.2.8-3.8 2.7-.8 2.5-2.6 3.4-5.1 3.2-2.4-.2-4.8-.3-7.2-.7-3.6-.5-5.3.3-6.8 3.6-.3.6-.5 1.2-.6 1.8-2.2 7.4 1.3 12.1 9.1 13 5.8.6 11.5 1.9 17.1 3.1 2.7.6 5.1 1.9 5 5.2-.1 2.9-3.1 6.5-5.9 7.1-4.8 1-9.5 2-14.3 3-3.7.7-6 3-7.2 6.4-1.6 4.5.5 7.6 5.4 7.7 1.4 0 2.8-.6 4.1-.4 2.2.3 4.3 1 6.5 1.4 1.8.3 3.6.5 5.9.9.1.6.2 1.8.6 2.8.8 2.4 1.4 5.1 2.8 7.2 1.5 2.2 1.8 4.4.5 6.1-.7 1-3.1 1.2-4.7 1-3-.5-5.9-1.4-8.9-2.3-6-1.9-11.7.9-13.7 6.8-.2.7-.2 1.5-.1 2.2.4 3 .8 6.1 1.5 9.1.2.9.9 2.1 1.7 2.3.6.2 1.9-.7 2.3-1.4 2.5-3.7 5.5-5.9 10.1-4.3.7.2 1.4.5 1.9 1 2.8 3 5.6 6 8.4 9.1 2.9 3.2 4.2 6.7 3.2 11s-1.8 8.7 1.6 12.6c.6.7.5 2.2.5 3.4 0 13.2-.2 26.5.1 39.7.2 10.8.5 21.6 1.7 32.3 1.3 10.9-.6 21.5-1.5 32.2-.5 6.2-.3 12.5-.3 18.7 0 1.1.5 2.4 1.3 3.1 2.5 2.5 2.4 5.1.9 8-1.1 2.1-.5 4.1-.3 6.4.5 3.7.3 7.6-.3 11.3-.6 4-.5 7.8.9 11.5 2.9 7.8 1.3 15.7 1 23.6 0 1.2-1.9 3-3.2 3.4-2.3.6-4.8.4-7.2.3-.5 0-1.1-.9-1.4-1.4-1.3-2.9-1.5-5.8.2-8.5 2.9-4.7 3.3-9.4.1-14-3.5-5.1-3-10.7-2.9-16.5.3-13.5.4-27.1.4-40.6 0-4.4-.9-8.8-1.3-13.2-.8-8.9-.9-17.6 5.5-25-1.6-1.5-3.3-2.8-4.5-4.4-.7-.9-.5-2.6-.4-3.9.1-3.2 1.6-6.9.5-9.5-4.1-9.6-5.2-19.3-3.6-29.4.1-.8.2-1.8 0-2.5-3.5-9.7-2.7-19.8-3.5-29.8-.1-.8-.1-1.7-.2-2.6-3-1.2-4.7 0-5.6 2.7-.3.9-.6 1.8-.7 2.8-.3 10.8-1 21.6-.5 32.3.4 8.7 2.1 17.4 3.3 26.1.6 4.4.7 8.6-1.5 12.7-.4.8-.4 2-.4 3 .2 2.3.3 4.7.8 6.9.9 4.4.4 8.6-1.9 12.5-1.6 2.8-1.7 5.5-.4 8.4 1.5 3.4 2.4 6.8-.2 10.4-.8 1.1-.5 3.1-.4 4.6.6 17.1 1.1 34.3 1.8 51.4.1 2.4-.4 4-2.6 5.1-3.3 1.6-4.9 4.1-4.4 8.1.2 1.6-.8 3.3-1.6 4.9-.6 1.2-1.5 2.2-2.3 3.3.3.3.4.6.4.9zm-31.2-283.9c0-.3 0-.5 0-.8 2.6 0 5.3-.3 7.9.1 6.9 1 11.2-2.2 14.8-7.7 1.2-1.8 1.2-2.9 0-4.4-2.9-3.9-7-6-11.5-7.5-2.7-.9-5.2-.8-8 .3-3.3 1.2-6.9 1.6-10.4 2.4-3.6.8-7.3 1.3-10.7 2.5-3.6 1.2-4.8 4.3-3.2 7.8.9 2.1 2.4 4 3.9 5.7.8.9 2.3 1.4 3.5 1.4 4.6.3 9.2.2 13.7.2zm14.1 41.3c4.1-3.4 7.5-6.3 10.9-9.2.4-.3.6-.9.7-1.4.6-4.5-2.5-9.9-6.8-11.9-1.8-.8-3.8-1.4-5.6-2.3-6.4-3.4-13-2.1-19.5-1.2-3.3.5-6.7 1.8-9.7 3.3s-5.3 6.7-3.8 9.4c1 1.8 4 2.5 6.3 3.3 1.4.5 3.1.4 4.7.4 5.7 0 11.4-.1 17.1-.1 3.4 0 5.4 1.4 5.1 5.1-.2 1.3.2 2.3.6 4.6zm12.6 21.7c.9-1.6 1.5-2.9 2.3-4.4-2.1-1.8-4.2-3.5-6.2-5.1.5-.8.8-1.3 1.3-2.1-6.6-1.5-12.9-3-19.2-4.4-.8-.2-1.7-.2-2.5 0-5.8 1.3-11.5 2.7-17.3 4.2-.7.2-1.7.9-1.7 1.4-.4 3.5-.6 7.1-1 11.1 7.4.4 14.5.9 21.5 1.1 4.7.2 9.3-.3 13.3-3.3 3.7-2.7 6.5-2.3 9.5 1.5zm29 50.1c4.3-1.9 4.3-1.9 2.7-5.9-1.5 1.7-5 2.2-2.7 5.9zm-53.1 147.1c1.7 7.1 1.8 7.2 4 5.6-1.1-1.6-2.3-3.2-4-5.6z"/><path d="m265.6 157.9c0 .7-.1 1.4 0 2.1.6 6.6-.5 12.8-3.2 18.8-1 2.1-1 4.1.5 5.9 1.2 1.6.9 3-.3 4.5-1.9 2.3-3.6 4.7-5.5 7.3 5 4.5 4.3 9.9 3.7 15.8-1.2 11.8-1.3 23.7-2.3 35.5-.7 8.5-1.8 17-3.2 25.5-1.1 6.8-2 7.8-6.5 12.4 5.6 7.5 4.4 15.5 1.4 23.7-2.8 7.8-4.9 15.9-7.5 23.9-.9 2.7-2.5 5.1-3.2 7.9-1.1 4.3-1.9 8.6-2.5 13-.5 3.8-2.2 5.6-6 5.4-2.2-.1-4.4-.7-6.5-1.3-2.5-.7-3.3-2.8-1.5-4.7 4.2-4.4 4.9-9.3 3.2-14.9-.9-2.9-.7-5.8 1.6-8.3 3.1-3.4 2.1-8 3.3-12 1.8-6.3 4-12.4 6.3-18.5.3-.9 2.4-1.6 3.7-1.6 3.4 0 3.4.2 4.8-3.4-2.9-1.9-5.8-3.9-8.9-5.9.1-.4.1-.9.2-1.2 4.2-10.1 4.3-20.8 5.2-31.4.7-7.4 1.2-14.8 1.9-22.1.1-.6 0-1.7.3-1.8 3.6-1.5 1.9-4.5 1.9-6.8 0-5.7-.3-11.4-.3-17.1 0-1.8-.6-2.8-2.2-3.7-5.9-3.1-11.7-6.4-17.5-9.7-3.9-2.2-4.7-3.1-2.6-6.8 3-5.4 1.8-10.8 1.4-16.4-.6-6.9-1-13.9-1.5-20.8 0-.5-.1-1.1-.3-1.5-2.8-3.9-.8-7.7.3-11.5.2-.6 1.5-.9 2.2-1.5 1.1-1 2.4-1.9 3.2-3.2 1.8-2.8 1.7-5.1-1.7-7.1s-4.4-5.3-2.8-9.1c.3-.7.4-1.4.7-2.1 2.2-6.4 7-7.4 11.8-2.6 2.5 2.5 5.3 4.6 9.5 4 .1-1.1.1-2.3.1-3.4 0-7.3 0-14.6 0-21.9 0-4.5-3.8-8.7-8.4-8.9-3.9-.1-7.8.1-11.7.2-4.9.2-7-1.9-6.3-6.7.1-1.1 1.1-2.5 2.1-3.1 4.9-2.6 10.1-3.9 15.6-2.9 9.9 1.9 19.6 1.6 29-2.3 3.6-1.5 6.4-.2 8.9 2.1 5.4 4.9 4.2 11.9-2.7 14.4-1.9.7-3.9.9-5.9 1.2-6.1 1-8 2.5-9.2 8.7-.9 4.9-1.2 9.9-1.7 14.8-.1.9-.1 1.9-.1 2.9-.3 6.5-.3 6.5 7 8.4 1.1-4.2 2.3-8.4 3.1-12.7 1-5.5 7.7-8.4 12.2-5 .6.5.9 1.4 1.1 2.2 1.6 4.6 3.1 9.2 4.6 13.9.4 1.3.6 2.7.5 4-.2 5.6-.2 11.2-.8 16.8-1.4 14.1 0 28.1 1.3 42.1.3 3 .2 5.8-1.8 8.3-.7.8-.8 2.6-.4 3.7 2.1 5.3 2.7 10.8 2.9 16.4.4 15.5.9 31.1 1.3 45.8-2 1.6-3.9 2.6-5 4.1-1.3 1.8-1.3 4 1.3 5.3 1.1.6 2 1.6 3 2.3 2.6 2 3.8 4.2 1.9 7.6-2.7 4.7-1.5 9.6.5 14.3.9 2 .7 3.3-1.2 4.8-3.8 3-3.8 4.5-.7 8.1 3 3.5 4.5 7.3 4.2 11.9-.3 4.5-.1 8.8-1 13.4-.9 4.5.7 9.5 1.3 14.3.4 2.8 1.5 5.5 1.7 8.4.5 5.7-4.3 9.6-9.9 8.3-.5-.1-1.2-.4-1.3-.7-1.4-3.9-3.4-7.8-3.8-11.9-.5-4.9.2-9.9.5-14.9.1-2.4-.1-4.9 2.2-6.6.5-.4.4-1.9.2-2.9-.1-.8-.6-1.6-1.2-2.2-4.5-4.9-4.4-10.5-3.1-16.6.7-3.3.3-6.9.3-10.4 0-1.1-.4-2.8-1.1-3.2-3-1.7-1.7-3.7-1.1-5.9.6-2.3 1-4.7 1.2-7.1 1.1-16.5-1.9-32.7-4.3-48.9-.5-3.1-.5-6.3-.4-9.5.6-15 1.3-30-3.2-44.7-.7-2.3-.3-4.8-.5-7.2-.3-2.6-.8-5.3-1.2-7.9-.3 0-.7.1-1.1.1zm-25.7 25c1.9-.2 3.2-.4 4.4-.4 2.7 0 3.9-1.2 4-4 .1-3.2.8-6.3 1-9.4.2-4.8.5-9.7.2-14.5-.2-3.2-2.3-5.6-6.2-6.3-3.8 11.3-7.2 22.4-3.4 34.6z"/><path d="m111 321.5c-.4-1.7-1.2-3.5-1.3-5.2-.2-4.1-.1-8.2-.1-12.3.3 0 .6-.1.9-.1.4.6.9 1.2 1.6 2.2.6-2.4 1.1-4.5 1.6-6.7.6 0 1.1-.2 1.6-.1 2.5.4 10.4 8.9 10.4 11.4 0 3.3.2 6.7-.7 9.7-3.1 10.4-3.2 21-2.4 31.7.1.7.1 1.5.2 2.2.2 2.8.9 5.7-3.1 6.8-3.5 1-9 .6-10.8-1.6-.5-.6-.5-1.5-.6-2.3-.2-4.2 0-8.5-.5-12.7-.9-8.1 1-15.7 4.2-23.1-.2.1-.6.1-1 .1zm3.4-13.4c-.5 3.4-1 6.7-1.6 10.2 3.2-2.5 4.1-8.3 1.6-10.2z"/><path d="m228.3 39.9c13.4-4.5 26-5.8 38.9-4.1 5.4.7 9 3.7 9.9 8.5.2.9-.4 2.5-1.2 3-5.2 3.8-11.4 4.7-17.6 5.5-2.7.3-5.5.2-8.2.5-7.1.8-12.8-2.2-17.8-6.6-1.9-1.6-2.6-4.4-4-6.8z"/></svg>