<svg enable-background="new 0 0 400 400" viewBox="0 0 400 400" xmlns="http://www.w3.org/2000/svg"><path d="m39.3 251.7c-1.3-3.1-1.6-5.7.6-8.2 1.2-1.4 2.2-3.1 3.1-4.8 3.7-7.4 9.4-12.6 16.4-17 4.8-3 8.7-7.7 12.8-11.8 4.8-4.9 10.1-9.3 16-13 2.1-1.3 3.9-3.5 5.3-5.6 1.3-2 .7-4.3-1.9-5-5-1.5-9.7-2.4-14.6 1.3-13.2 10.1-28.5 14.8-45.1 16-.7-3.3-.5-5.5 2.2-7.7 9.3-7.6 19.6-13.2 30.2-18.6 6-3.1 12-6.3 18-9.3 1.8-.9 2.4-2 2.2-3.9-.5-4.8-1.2-9.7-1.2-14.5 0-8.9.6-17.7.8-26.6.1-7.7 2.2-15 4-22.4 1.3-5.3 1.3-10.9 1.6-16.4.1-2.5 1.3-3.4 3.5-4.4 20-9.5 41.8-11.8 63.1-16 5.2-1 10.7-.5 16.1-.1 6.5.5 13 1.5 19.4 2.7 1.7.3 4.1 1.4 4.7 2.7 2.5 5.5 3.3 5.3-2.7 7.5-4.2 1.5-9.1 1.5-13.6 1.9-4 .3-8.1-.2-12 .4-2.4.4-4.5 2.3-7.3 3.9 3.4 2.9 6.2 4.9 8.7 7.4.9.9 1.5 2.6 1.5 4-.1 3.6-.7 7.1-1.2 11 4.8.5 9.3.8 13.7 1.5 8.3 1.3 16.5 2.8 24.7 4.1 1.3.2 3 0 4.2-.7 9.4-4.8 18.9-9.6 28.1-14.8 8.5-4.8 16.7-10.4 25.2-15.1 3.4-1.9 7.5-2.6 11.3-3.9 1.8-.6 2.9-.1 4 1.4 4.2 5.6 9.8 8.6 16.8 9.8 23.1 4.1 41.1 16.5 55.3 34.8 4.9 6.2 7.7 13.8 8.7 21.6.7 5.4-.5 10.9-.6 16.4-.1 7.6-4.4 13.3-8.9 18.7-3.7 4.5-8.2 8.2-12 12.7-3.9 4.7-9.2 6.9-14.5 9.3-2.2 1-4.4 2.1-6.2 3.7-1.9 1.6-2.4 3.9-.2 5.8 15 12.6 21.5 29.7 24.8 48.3 1.9 10.3 1.3 20.4-3 30.2-.4.9-.8 1.8-1.4 2.5-10.7 11.3-21.5 22.7-35.2 30.3-7.9 4.4-16.7 7.3-24.8 11.3-6.1 3.1-12 3.7-18.8 2.2-7.3-1.5-14.9-1.3-22.3-2.1-2.8-.3-5.6-1.2-8.2-2.2-.9-.3-2-1.6-2.1-2.6-.1-.7 1.1-1.9 2-2.3 3.7-2 7.5-3.8 11.5-5.8-3.1-11.7-1.7-23.6-2-35.4 0-2.1-.6-3.2-2.4-4.3-6.2-3.6-12.4-7.3-18.5-11.1-5.2-3.3-8.5-8.1-9.9-14.2-.5-2.1.1-3.3 2-4.4 4.6-2.5 11.8-1.4 16.5 2.8 4.2 3.8 8.5 7.7 12.8 11.6 3.2-4.5 4.2-9.3 4.4-14.5.1-3 0-5.9.3-8.9.3-3.3 1.9-6.1 4.8-7.8.7-.4 2.5-.2 3.1.4 2.6 2.6 5.1 5.4 7.5 8.2.6.7 1 1.6 1.2 2.5.7 3.1 1.3 6.2 2 9.4 3.9.7 7 .5 9.9-3.3 6.9-9 16.2-11 25.3-6.4 4.2 2.1 6.9 8 5.4 12.4-.3.8-1.1 1.5-1.8 2.1-6.4 5.4-13.9 8.7-21.7 11.5-4.9 1.7-9.6 3.9-14.4 5.8-4 1.6-6.8 4.4-7.7 8.6-2 9.7-3.8 19.4-5.8 30 6.4-1.5 12.2-2.2 17.4-4.2 10.4-3.9 20.5-8.4 30.7-12.9 2.6-1.2 5.3-2.8 7.2-4.9 3.5-3.8 6.6-8 9.5-12.3 4.4-6.7 4.4-14.2 2.9-21.7-.2-1.1-.4-2.3-.3-3.5 1.1-15.2-7.6-25.1-18.4-33.6-3.6-2.9-7.8-3.6-12.7-2.4-14.6 3.5-29.3 6.6-44 9.1-5.6 1-11.6 0-17.4-.1-2.7 0-5.5-.3-8.1.4-4.9 1.2-9.5.4-12.8-2.7-9.9-9.5-22.7-11.7-35.2-14.7-3.4-.8-6.8-1.4-11.1-2.3 1.1 8 1.7 15.5 3.3 22.8 2.3 10.2 5.3 20.2 8.1 30.3 2.7 9.5-1.2 18.4-9.6 21.5-6.3-6.8-9.5-15.3-12.2-24-2.4-7.7-3.5-15.6-3.4-23.7.1-5.8-1.1-11.5-1.8-17.3-.2-1.3-.8-2.7-1.5-3.8-2.4-3.9-4.7-4-7.1-.2-6.3 10-10.4 21-13.7 32.3-2.4 8.5-5.3 16.9-12 23.1-3 2.7-6.8 4.5-10.2 6.8-1.5 1-2.4.3-3.3-1-1.8-2.6-1.8-5.2-.7-8.1 6-15.6 12-31.2 17.8-46.8 1.1-3 1.8-6.3 2-9.5.1-1.7-.6-4.5-1.9-5.1-1.7-.8-4.5-.7-6.2.2-14.7 8.2-29.1 16.7-41.1 28.8-5.8 5.9-12.4 10.9-20.3 13.8-2.8.7-5.2 1.4-7.6 2.1zm227.6-47.6c-1.2-4.7-2.5-8.8-3.3-13-.9-4.2-1.2-8.6-2-12.8-.8-4.4-3.5-7.4-7.5-9.2-2.3-1.1-4.7-1.8-7-3.1-2.7-1.5-5.5-2.9-7.6-5-4-4-7.6-8.5-11.3-12.9-.7-.8-1.3-2-1.4-3-.2-4.3-.2-8.7 0-13 0-.8 1.1-2 1.8-2.2 6-1.4 11.9-1 17.1 2.4 4.8 3.1 9.2 6.6 14.2 10.2.4-.7 1.3-1.5 1.6-2.5 2.4-10.2 4.7-20.4 6.9-30.6.2-.9-.6-2.3-1.4-2.9-3-2.5-6.5-2.3-9.9-1-13.5 5.2-26.9 10.5-40.4 15.7-1.7.7-3.6 1.2-5.4 1.1-6.8-.2-13.5-.7-20.3-1.1-7-.4-13.7.4-20.1 3.5-.8.4-2 1.2-2.1 2-.4 3.3-.9 6.8-.5 10.1.5 5 3.9 8.3 8.8 9.1 3.3.5 6.7.6 10.1.5 9.8-.2 19.4.4 28.6 4.3 2.5 1.1 3.2 2.7 3.2 5.1 0 2.5-1.4 4.3-3.6 5-2 .6-4.1.8-6.2.9-10.3 0-20.5-.2-30.8 0-4.2.1-8.4.8-12.6 1.4-3 .4-5.2 1.8-6.1 5.1-.7 2.6-1.8 5.2-3.2 7.6-1.7 3.1-1 5.7 1.5 7.5 3.9 2.9 7.9 5.9 12.3 7.7 10.5 4.4 21.3 8.2 32 12 9.1 3.2 17.1 8 23 15.7 2 2.6 4.3 3 7.1 2.5 13.4-2.7 24-10.5 34.5-17.1zm11.9-8.2c4.1.2 7.3-1.3 10.4-3.2 7.4-4.7 14.5-9.8 22.2-14 10.7-5.9 18.8-14.3 25.9-23.9.5-.7.9-1.5 1-2.3 3.7-17-2.9-31.6-18-40.3-4-2.3-7.6-5.4-11.4-8.1-.2.1-1.4.9-1.9.6-6.1-3.4-14-3.3-18.5-10.2-3.9 7.6-11.3 4.4-17 6.4 0 2.5.7 4.4 3 5.8 2.3 1.5 3.7 3.6 4 6.5.4 3.5 1.1 6.9 1.7 10.3 1 6.1 2.1 12.2 3.2 18.4 6.1-1.6 11.5-3.6 15.9-7.6 2.3-2.1 7.2-2.8 9.9-1.2 1 .6 1.9 2 2.1 3.1.8 6-2.7 9.7-7.4 12.5-5 3-10 6-15.1 8.7-5.2 2.7-8 6.5-8.5 12.6-.9 8.5-2.4 17-1.5 25.9zm-166.5-82.2c2.3 0 4.3.3 6.2 0 6.7-1.1 13.5-1.8 19.9-3.8 13-4.2 12.9-4.2 13.2-18.4 0-.3 0-.6 0-1-.6-6.2-4.1-8.8-10.2-7.5-9.5 2-17.9 6.3-25.9 11.5-.7.4-1.4 1.4-1.5 2.2-.6 5.4-1.1 10.9-1.7 17zm13.9 32c1.2.1 2.3.2 3.5.2 6.4.1 12.9.3 19-2.2 1.2-.5 2.9-1.5 3-2.4.5-4 1.1-8.2.5-12.2-.6-4.1-4.1-5.4-8.1-4.5s-8.1 1.6-12.2 2c-7.7.8-15.4 1.3-23 1.8-1.9.1-2.7 1.1-3.2 2.9-1.4 5.2 1 9.3 3.5 13.3.6.9 2.1 1.6 3.3 1.6 4.6 0 9.2-.3 13.7-.5zm6 14.1c-5.9 0-18.1 2.6-22.7 5-.6.3-1.1 1.2-1.2 1.9-.3 5.5 6 13.6 11.3 13.8 3.5.1 7.4-.1 10.4-1.5 4.6-2.2 8.6-5.7 12.8-8.6 1.9-1.3 2.1-3 1.5-5-.9-3.4-2.9-5.2-6.5-5.5-1.8-.3-3.7-.1-5.6-.1zm15.5 40c-1.2-1.8-2.3-3.4-3.5-5.2-1.2 1-2.7 1.7-3.2 2.8-.6 1.2-.3 2.8-.4 4.3 1.2 0 2.4.2 3.5-.1 1.2-.3 2.3-1.1 3.6-1.8zm195-57.4c3.2-1.4 3.3-2.5 1-6.4-.3 2.1-.6 4-1 6.4z"/></svg>