<svg enable-background="new 0 0 400 400" viewBox="0 0 400 400" xmlns="http://www.w3.org/2000/svg"><path d="m102.3 132.7c6.3-5.9 12.8-10.7 20-14.5 8.1-4.3 16.3-8.5 24.7-12.2 12.3-5.5 22.4-14.3 33.3-22 4.9-3.5 6.8-8.6 5.9-15.1-1.6-11.8-4-12.8 8.1-21.3 1.9-1.4 3.4-3.7 4.5-5.9 2.9-5.8 8.8-8.2 14.6-5.5 4.2 1.9 7.2 5.2 9 9.4 3.1 7 4.7 14.3 3.3 21.9-.4 2.4-2.2 4.6-3.4 7.2 7.9 7 17.3 11.9 27.7 14.9 7.7 2.2 15.6 3.8 23.3 6.3 6.1 2 12 4.7 17.9 7.3 6.6 2.9 13 6.2 19.5 9.2 3.3 1.5 5.7 3.7 5.5 7.7-.1 1.9-.9 2.8-2.7 3.8-5.9 3-11.8 1.5-17.7.5-7.4-1.3-14.7-2.9-22.1-4.4 0 7.9.2 16.1 0 24.2-.2 9.5-.1 19.1-1.4 28.5-1.3 8.9-3.8 17.8-6.6 26.4-1.6 4.9-4.6 9.4-6.8 14.2-1.6 3.4-2.9 7-4 10.6-.8 2.7.2 4.4 3.4 5 11.2 1.8 22.3 3.8 33.4 5.8 1.9.3 3.7 1 5.5 1.5 12 3.7 16.3 12.7 17.1 24.3.7 10.6-2.2 20.8-3.9 31.1-1 6.4-1.7 13-2.6 19.4-.2 1.4-.5 3-1.3 4-9.9 11.3-19.6 22.8-29.9 33.8-8.1 8.7-18 14.6-30.1 16.2-1.1.1-2.9-.2-3.2-.9-.4-1.2-.4-3 .2-4 4.5-6.3 9.1-12.5 13.8-18.6 8.9-11.8 17.2-24 24.1-37.2 7.2-13.7 6.2-27.2 1-41-1.4-3.8-3.7-6.2-7.5-7.9-7.2-3.2-14.6-5.1-22.4-4.9-26.5.6-53.1 1-79.6 2.2-10.4.5-20.7 2.8-31 4.5-1.2.2-3 1.7-3.2 2.9-.6 3.7-.7 7.5-.8 11.2 0 2.2.9 4.4.7 6.6-.3 3.2-1 6.3-1.8 9.4-.8 2.8-2.3 5.5-2.8 8.3-1.1 6.4-3.5 12.1-7.4 17.3-6.8 9.1-13.8 17.9-22.6 25.2-5.2 4.3-10.6 8.4-15.9 12.5-.5.4-1 .8-1.6 1-6.2 1.9-8.4 1-7.6-5.2.4-3.4 1.7-6.7 2.9-10 1.7-4.4 3.9-8.7 5.8-13 .1-.3.2-.6.4-.9 8.3-13 13.4-27.9 22.2-40.6.8-1.2 1-3 .9-4.5-.1-10.8-.4-21.6-.5-32.4-.1-7.1 6.7-11.8 13.4-9.3 2.6 1 5.1 2.1 7.7 2.7 1.7.4 3.6.1 5.2-.5 2.5-.8 4-2.4 3.5-5.5-.6-3.6-.6-7.4-1.4-11-2.2-10.2.1-20.1 1.6-30.2 2.9-19.2 6.4-38.4 6.3-58 0-6.6-.9-7.8-7.5-6.5-4.9.9-9.7 2.9-14.3 4.8-5.9 2.5-11.8 4.1-18.2 2.6-1.5-.2-2.8-.8-4.6-1.4zm135.8 11.2v.6c.8-.1 1.7-.1 2.5-.2 4.5-.5 5.7-1.5 6.9-5.9 2.1-7.5 4.2-15.1 6.2-22.6 1.1-3.8-.1-5.4-4-6.2-3.7-.7-7.4-1.5-11-2.7-5.1-1.6-10.1-3.9-15.2-5.4-6.8-2.1-13.8-4-20.7-5.8-4.4-1.1-8.5-.8-12.5 2.3-4.3 3.3-9.2 6.1-13.9 8.8-2.4 1.4-3.3 2.9-3.3 5.7.1 6.8.6 13.6-2.1 20.3-.8 2.1.8 5.5 2 7.9.4.9 3 .9 4.5.9 9 .3 18 .4 26.9.8 11.3.4 22.5 1 33.7 1.5zm3 68.2c-.2 0-.4 0-.6 0 0-4.6 0-9.1 0-13.7 0-.8-.3-2.3-.8-2.4-2.8-1-5.3-2.4-8.7-1.4-6.2 1.9-12.7 4-19.1 4.2-16.3.4-32 4.7-47.9 7.3-3.3.5-7 1.7-8.2 5.5-1.3 4.1-2.4 8.3-3.3 12.6-.5 2.5-.6 5.2-.5 7.8.1 2.4 1.4 3.2 4 2.9 9.6-1.3 19.3-2.9 29-3.4 15.5-.7 31.1-.6 46.6-1 2.4-.1 4.7-.9 7-1.6 1.9-.6 2.7-1.9 2.6-4.1-.2-4.2-.1-8.4-.1-12.7zm-45.5-32.4c0-.2 0-.4 0-.7 9.9.1 19.8.1 29.7.3 2.5 0 5 .7 7.5.9 3.8.2 8.1-.9 9.2-4.2 1.3-3.7.4-8.3 0-12.4-.1-.9-2.1-2.2-3.3-2.2-8.5.2-17.1.5-25.6 1.1-10.5.7-20.9 3.1-31.6 2.1-2.4-.2-4.8.3-7.2.7-.8.1-2 .6-2.1 1-.8 3.9-1.7 7.8-1.9 11.7-.1 2.2 1.4 3.3 4.1 3.1 7-.6 14.1-.9 21.2-1.4z"/><path d="m193.4 270.7h10.7c.6 0 1.6-.2 1.9.1 2.6 3.1 4.9.4 7.5-.1 7.9-1.5 15.4-.1 22.2 4.1 3.5 2.1 6.6 4.9 9.7 7.7 3.9 3.5 4.9 8 3 13-1.1 2.9-2.5 5.7-3.2 8.6-1.4 5.5-5.1 9.2-9.1 12.9-11.2 10.2-24.8 14.4-39.3 16.7-6.8 1.1-13.5 2.3-20.3 3.5-.8.1-1.7.3-2.5.3-10.3.8-15.2-2.3-18.7-11.9-.4-1.1-.3-2.5-.1-3.7 2.5-14.2 5.1-28.5 7.6-42.7.5-2.9 1.9-4.1 4.9-4.7 8.8-1.9 17.7-5 25.7-3.8zm6.5 16.4c-5.3 1.2-10.1 2-14.7 3.3-2.5.7-4.2 2.6-3.4 5.6 1.3 5.1-.1 9.6-2.8 13.8-2.8 4.5-2.4 5.4 2.7 6.9.7.2 1.4.3 2.2.4 11.2 1.1 21.8-1.6 32-5.9 4.9-2.1 5.7-6 5.7-10.6 0-4.5-2-7.9-6.2-9.4-5.2-1.6-10.5-2.8-15.5-4.1z"/></svg>