<svg enable-background="new 0 0 400 400" viewBox="0 0 400 400" xmlns="http://www.w3.org/2000/svg"><path d="m196.8 65c1.8.2 3.4.3 4.9.5 3.9.4 7.7 1 11.6 1.2 2.3.2 4.8.4 6.9-.3 8.3-2.8 16.8-2.9 25.4-2.8h18.2c.5-5.5 1.1-10.3 1.5-15.1.5-5.6 3.4-8.8 8.8-10.2 8-2 14.8.4 20 6.2 2.1 2.4 3.2 6.3 3.5 9.6.6 7.2-.4 14.3-3.3 21.1-.9 2.2-1 4.7-1.1 7.1-.2 3.8-.7 7.3-3.3 10.4-3.8 4.5-7.6 5.7-12.9 3.4-4.9-2.2-9.6-1.1-14.6-.7-15.2 1.1-30.4 1.9-45.6 2.5-8.3.3-16.7 0-25.1.2-4.6.1-5.1 1.2-3.4 5.4.4 1.1.8 2.2 1.3 3.2 2.3 4.4 2.2 8.8.2 13.4-2.2 4.9-1.9 5.3 3.1 7.5 5.5 2.5 11.4 2.8 17.1 2 10.6-1.5 21-.2 31.6.6 5.7.5 11.5-.5 17.3-.7 4.9-.2 9.9-.5 14.8-.5 4.2.1 8.5.4 12.6 1 2.6.4 5.4 1.3 7.5 2.7 4.1 2.8 8.8 3.1 13.3 3.8 3.9.6 5.8 2.3 6.4 6 .7 3.9 1.8 7.7 2.1 11.5.2 2.6-.7 5.3-1 8-.3 2.8-.4 5.5-.4 8.3 0 .9.4 1.9.7 2.7 2.8 6.6 3.4 13.2-.7 19.6-.3.4-.5 1-.5 1.5.1 11-2.8 22.1 1.4 32.9.5 1.4.7 3.3.1 4.6-1.6 3.7-1.8 7.5-1.7 11.5.1 4.1 0 8.3 0 12.4 0 .8.3 1.9-.2 2.5-2.5 3.3-.6 6.2.2 9.5 1 4.3.9 8.9-1.6 12.8-1.3 2.1-1.7 3.7-.1 5.9 2.7 4 3.4 8.7 2.7 13.4-1.1 7.6-2.5 15.3-1.3 23 .1.8-.6 1.9-1.2 2.7-2.1 2.6-3.1 5.5-2.5 8.8 1 5.7 2.1 11.4 3.1 17.2.6 3.2-.5 4.8-3.8 5.1-16.5 1.5-33.1 3.1-49.6 4.6-.8.1-1.8.4-2.5.1-5.7-2.7-11.2-1-16.7.6-4.6 1.3-9 .9-13.4-.3-4.7-1.3-9.4-1.6-14.1-.3-10.2 2.9-20.2 2.3-30.3-.5-2.3-.6-4.2-.3-6.3 1-1.8 1.1-4 1.8-6.1 1.9-17.8.5-35.5-.6-53.3-1.7-6.5-.4-13.2 1.5-19.7 2.6-7.3 1.3-7.4 1.4-9.4-5.8-2.7-9.8-2.2-19.9-1.9-30 .4-9.7 1.5-19.4 1.5-29.1 0-7.6-1.3-15.2-2.1-22.7-1.5-13.6-3.5-27.1-4.4-40.7-.6-10.1.3-20.3.3-30.5 0-2.4-.9-4.9-1.5-7.3-.4-1.9-1.2-3.8-1.3-5.8-.3-6.2-.4-12.5-.5-18.7 0-.7-.2-1.6.1-2.2 3.4-7.4.6-14.5-.8-21.7-1.1-5.5 2.4-11.9 7.6-13.7 2.1-.7 4.4-1.1 6.3-2.2 8.3-4.5 17-5.2 26.1-3.5 4.7.9 9.4.5 14.1-.8 1.4-.4 3.1-.2 4.6-.1 7 .1 14 .8 20.9.4s10-3.3 10.6-10.2c.6-6.4-.2-12.9-.3-19.3 0-.3-.1-.7-.3-.9-3.9-5.1-3.7-11-2.3-16.7 2.2-9.5.4-18.5-2.2-27.5-.8-2.8 0-4.7 1.3-7 3.6-6.5 10.2-9 15.7-13 .5-.4 1.5-.4 2.1-.1 4.1 1.6 8.5 2.8 12.3 5 5.7 3.3 5.5 9.1 4.9 14.7-.1 3.1-.8 6.3-1.4 10zm-82.9 259.4c3.4 3.9 6.6 7.1 12.5 6.6 5.2-.4 10.5.7 15.8 1.2 7 .7 14.1 1.7 21.1 1.9 4.7.2 9.6-.5 12-5.8.4-.9 1.8-2.2 2.3-2.1 1.1.4 2 1.6 2.9 2.5.8.7 1.6 1.9 2.3 1.9 13.6-.1 27.3 0 40.9-.6 12-.5 24-1.8 36-2.8 6.8-.6 13.7-1.2 20.5-2 1-.1 2.7-1.1 2.8-1.8.9-6.2 3.4-12.3.9-18.7-.7-1.8-.6-4.2 0-6.1 1.7-5 2-9.7.5-14.8-.7-2.3-.2-5-.1-7.5.3-5.4 1.3-10.8.9-16.1-.6-9.5-2.5-18.9-2.8-28.4-.7-18.1-.7-36.2-1.1-54.2-.1-4.7-.5-9.5-1.2-14.2-.4-2.7-2-4.5-5.3-4.1-1.8.2-3.6-.1-5.4-.1-19.9-.2-39.8-.3-59.7-.4-.8 0-1.7 0-2.5-.2-8.6-2.3-17.4-1.7-26.2-1.3-6.9.4-13.9 0-20.8-.4-5.2-.3-10.3-1.6-15.4-1.8-8.7-.3-17.4-.1-26-.1-.9 0-2 0-2.8.4-3.4 1.8-6.6 3.7-9.9 5.6-1.8 1-2.8 2.4-2.4 4.6.5 3 .7 6.1 1 9.1.6 6.9 3.6 13.6 1.4 20.7-.2.7.1 1.7.5 2.4 2.3 4.2 1.9 8.6 1.3 13-.2 1.7-.7 3.5-.3 5 1.1 3.9 0 7.4-.5 11.2-.7 5.8-.1 11.8.8 17.6 1.7 11.4 4.4 22.6 6 34 1.2 8.2 1.3 16.6 1.8 25 .2 3 .8 6.1.4 9.1-.2 2.2-2.4 4.2-.1 6.5.2.2-.3 1.1-.6 1.7-.2 1.3-.9 2.4-1.5 3.5z"/><path d="m246.8 320.9c-6.9-1.8-13.3-3.1-18-8.6-3.9-4.5-8.9-8.2-13-12.5-2.8-2.9-5-6.4-7.6-9.6-1.3-1.5-2.9-2.7-4.2-4.2-1.5-1.8-3.2-3.7-3.9-5.8-1.3-3.8-3.7-4.7-6.7-2-2.1 2-4.2 3.9-6.3 5.8-1.7 1.5-3 3.6-6 2.3-.5-.2-2.9 1.9-3.1 3.2-.5 3.6-2.4 6.1-4.9 8.5-6.1 5.8-11.9 11.7-17.9 17.5-3.4 3.3-10.3 1.3-11.6-3.3-2-7.1-3.2-14.2-1.5-21.5.3-1.4 1-3 2-4 6.3-6.5 12.9-12.8 19.2-19.4 2.3-2.4 3.7-5.5 5.8-8.1 1.3-1.6 2.9-3.3 4.8-4.1 2.8-1.3 4-4.1 1.7-6.2-8.6-8-15.2-17.5-20.5-28-.3-.6-1-1.3-1.6-1.4-5.9-1.5-9-6.2-11.8-10.8-4.2-6.8-6.4-14.2-4.7-22.4.2-.9.8-2.1 1.5-2.5 7.4-3.7 15-5.1 22.8-1.6 5 2.2 7.3 7.9 5.7 13.2-.2.7-.1 1.9.4 2.5 2.2 2.7 4.4 5.4 7 7.7 3.2 2.9 6.9 5.3 10.3 7.9 1.7 1.3 3.9 2.4 3.2 5.2-.1.3.5.9.8 1.3 2.5 2.7 5.1 5.4 7.9 8.3 1.9-2.4 3.6-4.3 5.1-6.4 6-8.3 11.9-16.7 18-24.9 4.9-6.6 11.2-11.2 19.8-11.8 4.7-.3 5-.1 6.6 4.1.7 1.9 2 3.5 2.6 5.4.9 2.5 1.5 5.2 2.1 7.8.4 1.9-.6 3.2-2.2 4.5-6.4 5.3-12.6 10.9-18.9 16.4-.1.1-.2.1-.2.2-1 2.9-1.7 5.9-2.9 8.7-1.2 2.6-3.8 4.3-3.4 8.1.3 2.2-1.7 5.1-3.3 7.2-3.7 4.8-4.1 8.4-.4 13.3 2.5 3.4 5.1 6.7 7.5 10.2 2.3 3.3 4.6 6.3 8.7 7.5.6.2 1.5.6 1.5 1 .4 3.6 3.8 4.8 5.7 7.1 2.4 2.8 3.8 6.5 5.3 10 .9 2 .9 4.3 1.5 6.5.8 3 1.2 5.8-.9 8.6-.9 1.2-.7 3.2-1.1 4.9-.3 1.2-.6 2.6-.9 4.2z"/><path d="m256.4 251.5c1.1 2.1 2.2 4.2 3 5.6-1.1 2.3-1.9 4.3-3 6.1-.5.8-1.6 1.6-2.4 1.5-2.3-.2-4.4-.7-6 1.6-.2.3-1.2.5-1.7.3-2.7-1.2-5.4-2.3-7.8-3.9-.6-.4-.7-2.9-.1-3.6 2.4-2.8 3.2-5.8 2.3-9.4-1-4.2-.2-8 3.1-11 .8-.7 2.3-1.2 3.3-1 2.9.6 5.7 1.5 8.4 2.6 2.6 1 5.1 2.1 5.6 5.4.3 3.2-2.1 4.4-4.7 5.8z"/><path d="m192.1 198.3c-.4 0-.8 0-1.3 0-6.7-.4-10.6-4.2-11-10.9-.2-2.7.5-5.2 3.2-6.7 3.3-1.9 6.2-4.6 9.7-5.7 7.8-2.5 14.8 5 12.5 13.1-2 7.4-6.1 10.6-13.1 10.2z"/><path d="m150.5 245.1c-.8 2.8-1.9 4.8-1.9 6.7 0 4.4-1.6 7.8-5.2 10.2-3.5 2.4-7 5-11.7 5.7-2.1-8.4-3.7-16.6-.3-24.9 1.9-4.6 4.6-5.7 9.3-4.3 4.2 1.5 8 3.3 9.8 6.6z"/><path d="m203.3 306.7c-1.1 2.7-2.2 4.9-2.8 7.2-1.3 5.4-2.6 6.8-8.1 7.8-1.5.3-3.1.4-3.9.5-2-3.4-3.6-6.4-5.4-9.3-2.3-3.5-1-10.2 2.7-12.3 2-1.1 4.3-2.3 6.5-2.6 6.7-.7 8.5 4.9 11 8.7z"/></svg>