<svg enable-background="new 0 0 400 400" viewBox="0 0 400 400" xmlns="http://www.w3.org/2000/svg"><path d="m191.8 200.2c-13.6 0-26.9 0-40.7 0-1.6-6.8-3.2-13.7-4.9-21 2.8-.8 5.3-1.6 7.8-2.4 1-.3 2.1-.4 3-.9 2.5-1.2 3.5-3.6 3.1-6-.2-1-2.4-2.2-3.9-2.4-1.8-.3-3.9-.2-5.5.5-4 1.7-7.5 2-10.4-1.8-.5-.6-1.8-1.3-2.3-1.1-5 2.2-9.5 0-14.1-1.3-.3-.1-.6-.1-1.2-.2-1.6 3.4-3.3 6.8-4.9 10.2-.3.6-.3 1.8.1 2.3 2.3 2.5 1.5 5 .3 7.6-.8 1.7-1.3 3.6-1.9 5.5 3.3 3.2 6.8 4.4 11.2 2.3 2-1 4.1-1.6 6.3-2.1 1.1-.2 2.4.3 3.9.5-4.4 7.7-6.5 8.4-13.8 5.7-2.5-.9-5-1.8-7.5-2.5s-4.4.5-4.5 3c-.2 3.4-.2 6.9.2 10.4.4 3.6.1 6.5-2.4 9.6-2.2 2.8-3.1 6.6-4.5 10-2.8 6.8-6.4 9.2-13.7 8.6-1.1-.1-2.7-1.2-2.9-2.1-.5-2.4-.8-5.1-.2-7.4 2.6-10.5 5.8-20.8 8.1-31.3 1.4-6.4 1.7-13 1.9-19.5.3-9.1 1.7-17.8 6.2-25.9.5-1 .3-2.7-.1-3.9-.6-2 .5-6 2.5-7.7 1.4-1.1 2.8-2.2 4.3-3.4-.8-1.3-1.6-2.4-2.4-3.8 10.5-6.2 20.6-13 32.9-15.2 2.8-.5 5.7-.4 8.5-.9 4.2-.8 5-2.5 5.5-6.7.7-5.5-1-9-6.3-10.9-2.4-.8-4.5-2.4-6.6-3.7-5.3-3.2-9.6-7-12-13-1.6-3.9-4.3-7.3-5.8-11.2-2.5-6.4-4.6-12.9-6.4-19.5-1-3.8 3-8.6 6.9-9.1.8-.1 2 .8 2.5 1.5 1.3 2.2 2.5 4.7 5.3 5 1.4.2 3.4-.1 4.2-1 2.4-2.6 4.3-1.8 6.6 0 7.2 5.9 14.5 11.7 21.7 17.6.8.7 1.7 1.3 2.8 2.2 2.3-2.6 4.6-5.1 6.9-7.8 3.3-4 6.6-8 9.9-12 3.9-4.6 8.6-8.1 14.3-10.2 2.3-.8 4.1-.5 5.7 1.2 1.8 1.9 3.8 3.7 5.4 5.8 7.5 9.6 14.6 19.5 17.9 31.5.6 2 1.4 4 2.3 6.3 4.2-1.5 8.5-2.1 12.1-5.1 7.1-6 15.1-10.5 23.9-13.3 2.7-.9 4.4-.5 5.5 2.6 1.9 5.2 4.1 10.2 6.3 15.2.7 1.6.5 2.6-.9 3.8-4.1 3.7-9.2 4.8-14.3 5.3-10.3 1-19.4 6.6-29.6 8-.6.1-1.4 1.5-1.4 2.3-.2 3.6-.2 7.2 0 10.8.1 1.1 1 2.6 2 3 1.9.8 4.2 1.5 6.1 1.2 10.8-1.6 21.5.2 32.2 1.3 4.4.5 8.8 1.3 13.1 2.2 3.2.6 5.3 2.4 5.5 6 .2 3.1 1.9 5.2 4.5 6.9 3.3 2.2 3.5 3.9 1 7-2.5 3.2-3.2 6.5-1.8 10.4 1.7 4.5 3.6 8.8 6.6 12.8 7.1 9.4 7 20.3 4.6 31.3-1.6 7.2-4.3 13.9-8.1 20.2-3.1 5.2-7.3 5.8-11.8 1.9-3.1-2.7-4.4-5.4-3.5-9.6.8-3.6 1.1-7.4 1-11 0-1.8-.8-4.5-2.1-5.1-1.6-.8-4.6-.7-6.1.4-6.6 4.4-13.9 5.4-21.5 5.6-11.8.3-23.7.6-35.5 1-1.1 0-2.5 1-3 2-3 5.8-5.9 11.7-8.7 17.6-.6 1.2-.9 2.6-.9 3.9-.1 13.7-.1 27.3 0 41 0 1.4.7 3.1 1.6 4.2 4.9 6.4 9.9 12.7 15 18.9 4.4 5.3 8.3 10.9 11 17.3.7 1.8 2.2 3.3 3.5 4.8 7.6 8.6 14.2 17.7 16.8 29.1 1 4.5 1.1 9.2 1.1 13.8 0 4.8-3.2 7.7-8 6.8-6.4-1.2-12.3-3-16.4-9.4-7.6-11.8-15.9-23.2-24.2-34.6-2.6-3.5-6.1-6.3-9.5-9.8-.9 2.1-1.5 3.6-2.2 5-3.8 7.7-7.7 15.5-11.6 23.2-.9 1.8-1.9 3.6-2.4 5.5-2.1 8.7-7.9 14.4-15 19.3-3.8 2.6-6.9 6.1-10.4 9.1-1.1.9-2.2 2.1-3.5 2.4-3.5 1-4.8.1-5.8-3.4-1.6-5.4-1.1-10.7.8-15.9 1.1-3.2 2.5-6.3 3.8-9.4 7.5-17.3 15.5-34.5 22.5-52 3.1-7.7 4.6-16 6.7-24.1 4-15.2 7.9-30.5 12.1-45.7 1.4-4.4-.1-8.9-.4-14.1zm91.4-79.3c-.3-.2-.7-.5-1-.7-1.8 5.5-5.9 4.6-9.9 4.5-13-.3-25.6 2.3-38.3 4.8-.9.2-2 1.4-2.3 2.4-.9 3-1.4 6.2-2 9.3-1.6 7.1-1.5 7.6 6 8.3 7.6.7 15.2.8 22.8 1.3 3.6.2 7.3.7 10.9 1-3.3 1.3-6.6 2-9.9 2.4-9.8 1.4-19.4 4.7-29.5 3-.8-.1-1.9.3-2.6.7-3 1.8-5.9 10.1-4.8 13.5.6 1.8 1.7 2.6 3.7 2.8 8.5.9 17 2.2 25.5 2.9 8.8.7 17.7.9 26.6 1.3 3.5.2 4.9-1.8 5.6-5 2.3-10.7 1.5-21.2-.3-31.8-.9-5.4-3-10.8-.4-16.4.3-1.2-.1-2.9-.1-4.3zm-84.7-51.4c-6.2 6.8-10.8 13.7-13.6 21.6-1.5 4.3-1.4 9.2-1.5 13.8-.2 6.2.4 6.7 6.2 8.4 2.4.7 4.9 1.3 7.4 1.7 4.4.6 8.7.1 12.5-2.4 1-.6 1.8-2.2 1.8-3.4.1-3.2-1.5-5.2-4.8-6.2-2.8-.8-5.4-2.2-8.7-3.6 2.2-1.4 3.6-2.5 5.2-3.2 2.8-1.2 3.9-3.4 3.5-6.1-.7-4.8-1.6-9.6-3.1-14.1-.6-2.3-2.9-4-4.9-6.5zm-3.2 79.8v.1c2 .1 4.1-.1 6 .3 4.6 1 6.7-2.5 9.5-4.9.3-.3.6-1 .4-1.4-1.6-3.1-.4-5.9.7-8.8s.1-5-2.2-7-4.8-1-7.2-.7c-6.3.9-12.6 1.9-18 5.4-1.1.7-2.4 2.2-2.3 3.3.1 3.4.7 6.9 1.2 10.3.4 2.4 1.6 3.6 4.3 3.3 2.5-.1 5.1.1 7.6.1zm-8.4 14.8c.6 2.4 1 4.4 1.6 6.3.2.7 1.1 1.6 1.8 1.7 3.1.3 6.3.6 9.5.4 4.2-.3 6.8-3.4 6.6-7.4-.1-2.1-1.2-3.8-3.6-3.5-5.1.7-10.3 1.6-15.9 2.5z"/><path d="m155.9 214.7c5 2.6 8.2 6.6 9.9 12.2 2.8 9.4 5.6 18.7 2.9 28.6-.9 3.4-2.5 6.4-5.4 8.7-6.1 4.9-10.4 11.3-14.1 18.2-5 9.2-10.7 18-18.2 25.5-2.9 2.9-6.4 5.3-10.4 3.8-3.8-1.4-4.9-5.6-5-9.3-.4-10.2 3.4-19.1 9.1-27.4 2.3-3.3 4.1-6.9 5.9-10.4 2.6-4.9 4.9-10 7.7-14.9 4.2-7.3 9-14.4 12.9-21.8 2.2-4 3.1-8.7 4.7-13.2z"/><path d="m271.2 282.5c8.7 7.6 7.1 17.4 5.4 27.3-.3 1.7-.9 3.3-1 5-.3 3.8-2.6 5.7-5.9 6.8-10.3-14.3-20.1-28.7-26.5-45.3-3.1-8.2-7-16.1-10.6-24.1-1.2-2.5-1.3-4.9-1-7.6.5-4.7.2-9.4.2-14.2s1.9-8.7 5-13.4c3.2 3.1 6.6 5.6 9 8.8 3.1 4.3 5.5 9.2 8.1 13.9.5.9.9 2.2.6 3-1.1 2.9.2 5.1 1.4 7.4 4.8 9.2 9.6 18.4 14.3 27.6.6 1.5.6 3.3 1 4.8z"/></svg>