<svg enable-background="new 0 0 400 400" viewBox="0 0 400 400" xmlns="http://www.w3.org/2000/svg"><g fill="#010102"><path d="m184.39 192.14c-5.95-1.66-5.7-1.45-9.32 2.78-6.91 8.06-13.97 15.99-21.29 23.67-2.82 2.96-6.54 5.07-11.2 4.61-.63-4.98-.68-9.11 3.73-13 5.33-4.69 9.74-10.48 14.25-16.03 4.36-5.38 7.08-11.58 8.22-18.49.4-2.39-.23-3.93-1.97-5.55-4.91-4.57-9.78-9.21-14.39-14.07-4.3-4.53-6.25-10.2-6.79-16.7 3.23-1.13 6.44-2.4 9.74-3.29.92-.25 2.35.38 3.18 1.05 5.31 4.29 10.52 8.71 15.76 13.08.58.48 1.2.9 1.96 1.47 3.38-7.34 2.71-14.78 1.86-22.25-.89-7.74-.5-15.37 1.94-22.94 9.14 7.86 12.47 18.82 16.37 29.76 3.75-3.46 6.99-6.97 10.75-9.79 3.8-2.86 8.11-5.05 13.15-8.12 0 3.41.46 5.87-.09 8.09-1.4 5.67-3.82 10.86-7.81 15.36-6.14 6.92-11.62 14.44-12.66 23.92-.44 4.05.71 8.36 1.64 12.44.31 1.36 2.05 2.51 3.33 3.52 10.79 8.58 19.95 18.61 27.09 30.42 1.47 2.44 2.46 5.17 3.71 7.83-4.1 1.77-7.64 1.2-11.29.24-6.73-1.78-11.93-5.92-16.96-10.42-1.65-1.48-3.39-2.85-5.26-4.42-3.49 4.33-4.36 9.19-3.78 14.07 1.02 8.53 2.91 16.96 3.94 25.49 2.17 17.9 4 35.84 1.08 53.85-.59 3.64-1.34 7.27-2.3 10.83-.99 3.67-.62 7.05.16 10.78.76 3.64-.28 7.68-.68 11.53-.33 3.22-.64 6.49-1.4 9.62-.61 2.51.44 4.12 2.32 4.88 1.4.56 3.53.57 4.84-.12 6.58-3.46 10.62-9.5 14.43-15.55 8.09-12.85 11.34-27.31 13.66-42.1.73-4.68 2.33-9.31 4.17-13.69 2.15-5.12 6.39-7.9 13.03-8.39-.41 2.85-.16 5.79-1.29 8.03-2.21 4.39-2.88 8.62-1 13.15 1.81 4.36 1.26 8.61.14 13.05-2.75 10.84-5.11 21.77-7.83 32.61-.57 2.28-1.91 4.41-3.13 6.48-.84 1.43-2.18 2.56-3.13 3.93-9.85 14.18-24.17 22.37-39.51 28.91-11.54 4.92-23.29 3.01-34.16-2.07-4.01-1.87-6.89-6.61-9.73-10.45-18.08-24.42-28.3-51.62-28.26-82.27.01-4.68.63-9.37 1.17-14.04.1-.82 1.12-1.88 1.94-2.17.64-.22 1.91.36 2.43.97 4.34 5.17 7.01 11.2 8.13 17.79 1.7 10.01 3.82 20.01 2.31 30.32-.25 1.71.69 3.85 1.67 5.42 1.89 3.03 4.41 5.66 6.26 8.71 1.51 2.5 2.41 5.37 3.61 8.06.58 1.3.97 2.83 1.92 3.79 2.96 2.99 4.52 6.54 5.15 10.63.85 5.6 4.42 8.99 9.75 9.59 5.25.6 10.64.09 15.97.02 2.03-.03 2.77-1.35 3.22-3.17 1.71-7.01.87-13.94-.06-20.97-1.22-9.29-2.49-18.66-2.56-28-.29-36.5-.12-73-.12-109.49-.01-1.11-.01-2.21-.01-3.2z"/><path d="m307.3 242.83c-4.04-6.2-6.11-12.87-6.99-19.91-1.33-10.52-3.12-20.81-6.54-31.02-3.59-10.73-4.75-22.26-7.1-33.41-2.58-12.19-8.5-22.44-19.06-29.3-8.51-5.53-17.34-10.61-26.31-15.37-8.58-4.55-17.42-8.67-26.33-12.55-8.77-3.83-15.6-9.92-21.75-16.98-1.91-2.19-3.64-4.64-5.89-6.42-2.59-2.04-5.53-3.77-8.56-5.05-3.67-1.54-6.69-.99-9.45 2.81-4.25 5.85-10.33 9.8-16.69 13.25-4.49 2.43-9.1 2.63-13.96 1.87-1.11-.17-2.82-.17-3.39.5-4.49 5.25-11.1 5.85-16.93 8.21-2.48 1.01-5.04 2.47-6.84 4.4-8.06 8.63-11.28 19.17-12.27 30.82-1.51 17.84-3.83 35.6-5.48 53.43-.47 5.09.48 10.29.27 15.41-.33 7.9-.89 15.81-1.76 23.67-.39 3.55-2.33 6.64-6.05 7.78-.83.25-2.79-.6-2.98-1.28-.78-2.86-1.47-5.85-1.49-8.8-.05-6.02.25-12.05.58-18.07.85-15.46-.09-30.86-.92-46.29-.31-5.81 1.59-11.7 2.19-17.59.84-8.23 1.4-16.48 2.1-24.72.07-.78.24-1.54.35-2.32.66-4.55 2.82-7.68 6.93-10.29 12.95-8.24 25.17-17.51 36.03-28.45.93-.94 2.07-1.7 3.2-2.41 8.81-5.54 17.67-10.99 26.42-16.61 1.42-.91 2.81-2.3 3.54-3.8 2.68-5.53 5.1-11.18 7.55-16.81 1.91-4.39 4.4-8.31 8.6-10.86 4.58-2.79 9.44-1.25 10.71 4.01.87 3.6.43 7.51.55 11.29.17 5.24-.04 10.51.54 15.7.83 7.38 4.61 13.37 10.85 17.33 8.66 5.5 17.29 11.2 26.51 15.62 14.29 6.85 29.07 12.7 43.63 18.99.7.3 1.47.67 1.95 1.22 8.3 9.52 16.66 18.99 24.79 28.66 5.22 6.21 6.8 13.72 7.55 21.71 1.55 16.48 3.99 32.87 5.57 49.35.9 9.34.79 18.78 1.19 28.16.15 3.56-3 2.84-4.86 4.12z"/><path d="m127.13 209.92c-5.32-7.29-7.93-15.37-9.16-23.98-.21-1.44-.31-2.9-.59-4.32-1.44-7.43-.15-13.97 5.19-19.77 3.23-3.51 5.64-7.77 8.39-11.65 9.59 2.32 15.71 11.05 14.31 21.69-1.14 8.72-3.21 17.34-5.19 25.93-.42 1.84-1.97 3.66-3.47 4.95-2.93 2.54-6.2 4.72-9.48 7.15z"/><path d="m249.73 205.09c-8.52-14.25-14.64-28.71-11.2-45.51 7.68-.77 14.85 5.3 15.72 13.83.94 9.21 1.28 18.49 1.73 27.74.04.79-.81 1.97-1.56 2.38-1.33.72-2.91 1-4.69 1.56z"/></g><path d="m385.2 377.6.6-.7c.6.4 1.3.9 1.9 1.5l-.6.7c-.8-.5-1.4-1-1.9-1.5zm.3 7.1c.6-1.4 1.1-2.9 1.5-4.5.3.1.6.3.9.4-.5 1.4-1 2.9-1.5 4.4zm.2-10.1.6-.6c.7.5 1.3 1.1 1.9 1.6l-.7.7c-.6-.6-1.2-1.2-1.8-1.7zm8.4-.8h.8v.9h1.8v.7h-1.8v1.8h-.8v-.3h-1.2v.9h3.3v2.6h-.8v-.4h-2.5c0 .3 0 .6-.1.8h3.4v.7h-3.5c0 .3-.1.6-.1.8h4v.7h-3.5c.7.9 1.9 1.3 3.6 1.5-.2.2-.4.5-.6.9-1.9-.3-3.2-1.1-3.8-2.3-.5 1.1-1.8 2-3.9 2.4-.2-.3-.4-.5-.6-.8 1.9-.4 3.1-.9 3.6-1.7h-3.2v-.7h3.5c.1-.2.1-.5.2-.8h-3.3v-.7h3.4c0-.2 0-.5 0-.8h-2.4v.3h-.8v-2.6h3.3v-.9h-1.2v.3h-.8v-1.8h-1.8v-.7h1.8v-.9h.8v.9h3.2zm-4.4 5.5h2.4c0-.3 0-.6 0-.9h-2.4zm1.2-3.1h3.2v-.8h-3.2zm4.4 2.2h-2.4v.9h2.5v-.9z" fill="#fcfbfa"/><path d="m389.2 385.8h.9v1.5h1.9v-1.5h.9v1.5h2.7v6h1.1v.9h-11.3v-.9h1.1v-6h2.7zm.2 8.7.5.8c-1.2.6-2.5 1.3-4 1.9-.2-.3-.3-.6-.6-.8 1.6-.6 3-1.3 4.1-1.9zm-2-4.3h1.9v-2.1h-1.9zm0 3.1h1.9v-2.2h-1.9zm2.7-3.1h1.9v-2.1h-1.9zm0 3.1h1.9v-2.2h-1.9zm2.4 1.3c1.4.6 2.7 1.2 4.1 1.8l-.5.9c-1.5-.7-2.8-1.4-4.1-1.9zm2.2-6.5h-1.9v2.1h1.9zm-1.9 5.2h1.9v-2.2h-1.9z" fill="#fcfbfa"/></svg>