<svg enable-background="new 0 0 400 400" viewBox="0 0 400 400" xmlns="http://www.w3.org/2000/svg"><path d="m175.45 346.54c5.29 1.31 5.16 5.24 4.9 9.62-.32 5.33.09 10.7-.06 16.04-.05 1.78-.76 3.7-2.84 2.72-1.84-3.71-3.78-6.87-5.01-10.28-1.16-3.22-1.6-6.7-2.32-10.08-1.77-8.4-3.52-16.8-5.28-25.2-.11-.55-.34-1.1-.32-1.64.14-3.82.24-7.64.55-11.45.08-.95.88-1.83 1.34-2.74.78.74 1.65 1.42 2.32 2.25.45.55.63 1.33.99 2.13 1.92-2.69 1.2-5.52-1.54-5.92-3.5-.51-3.97-2.27-3.46-5.41.66-4.06.67-8.21 1.13-12.31.11-1 .89-1.93 1.36-2.89.37.16.75.32 1.12.48-.12.76-.24 1.52-.46 2.83 6.41-2.43 8.83 2.04 11.53 6.07 2.12 3.16 4.32 6.26 6.42 9.43 1.55 2.34 3.46 4.02 5.89 5.61 2.76 1.8 4.93 4.84 6.67 7.76 2.49 4.17 6.23 5.85 10.57 6.96 1.95.5 3.22-.16 3.39-2.02.39-4.19.66-8.41.7-12.62.04-3.79-.7-7.63-.36-11.38.6-6.7-3.13-11.08-7.39-15.22-6.07-5.92-12.56-11.44-18.36-17.61-5.52-5.88-5.62-13.81-5.69-21.23-.07-7.44 1.17-14.88 1.73-22.33.34-4.51.39-9.04.7-13.56.43-6.24.32-12.62 1.75-18.63.8-3.35.75-6.26.62-9.54-.21-5.08 1.68-10.04.94-15.38-.33-2.36 2.49-5.16 3.52-7.08-.39-1.87-.89-3.44-1.01-5.05-.2-2.66-.68-4.88-3.95-5.19-1.21-.12-2.37-.72-3.58-.88-3.74-.5-6.74-1.97-8.65-5.47-.64-1.18-2.02-1.96-3.31-3.15-.52 1.7-.91 2.95-1.54 5.01-3.22-1.64-6.14-3.35-9.24-4.65-4.14-1.74-6.86-4.37-7.04-9.09-.01-.32-.09-.8-.31-.93-4-2.37-4.43-6.95-6.4-10.53-1.56-2.83-2.95-6.03-3.32-9.19-.56-4.72-1.42-9.12-2.9-13.76-2.43-7.61-4.55-16.15 1.57-23.61.12-.14.08-.42.15-.85-4.86-3.38-5.04-8.35-4.46-13.72.56-5.1.7-10.24 1.03-15.36.3-.24.59-.48.89-.72 1.06.93 2.45 1.67 3.14 2.82 8.74 14.58 17.38 29.22 26.04 43.84.6 1.01 1.23 2 2.33 3.8.55-2.05 1.24-3.22 1.08-4.26-.5-3.33.77-5.85 2.97-8.12 2.34-2.41 3.87-5.07 3.4-8.67-.14-1.09.53-2.35 1.01-3.45 3.37-7.66 6.68-15.35 10.28-22.91.99-2.08 2.58-4.13 4.42-5.49 1.89-1.41 2.45-2.62 1.55-4.71-.75-1.74-1.38-3.54-2.05-5.31-.62-1.65-1.2-3.46 1.1-4.15 2.05-.61 4.45-1.58 6.03.88 2.35 3.66 2.88 7.72 2.02 11.94-.81 3.98-.9 7.76 2.26 10.91.46.46.97 1.14.97 1.72-.05 6.25 1.06 12.3 2.91 18.24 1.52 4.89 3.09 9.77 4.44 14.71 1.15 4.18 1.94 8.46 3.06 12.64.59 2.19 1.56 4.28 2.36 6.41.44.05.88.1 1.32.15 1.66-3.2 3.16-6.5 5.06-9.55.9-1.46 2.57-2.44 4.19-3.92-1.71-3.49.02-6.42 2.79-9.6 2.02-2.32 2.74-5.76 4.09-8.67.6-1.29 1.05-2.91 2.09-3.68 3.82-2.83 4.47-6.96 5.22-11.15 1.68-9.32 3.3-18.66 5.24-27.93.49-2.32 1.97-4.47 3.24-6.55.4-.65 1.69-1.21 2.43-1.06.65.13 1.4 1.21 1.59 2 .73 2.93 1.27 5.9 1.84 8.86.13.65.35 1.46.08 1.97-1.8 3.49-1.93 7.18-2.03 11.02-.16 6.1-1.11 12.18-1.2 18.27-.08 5.54-.49 10.91-2.54 16.12-.64 1.62-.57 3.5-.91 5.25-.33 1.7-.78 3.39-1.62 5.04 2.72 5.08 1.46 10.26.16 15.54-2.37 9.61-8.1 17.25-13.74 25.09-3.73 5.18-8 9.08-13.94 11.41-4.15 1.63-8.01 3.99-12.12 5.73-2.3.97-4.83 1.57-7.31 1.93-3.25.46-4.13 1.33-3.64 4.55.68 4.42 1.24 8.87 2.17 13.24.47 2.2 1.74 4.21 2.47 6.37.59 1.75 1.08 3.57 1.29 5.4.5 4.52.85 9.05 1.2 13.59.45 5.78.58 11.59 1.31 17.33.74 5.74 2.44 11.37 2.98 17.12.42 4.38-.47 8.87-.48 13.32-.01 3.43.55 6.86.63 10.3.06 2.52-.26 5.04-.4 7.57-.1 1.75-.27 3.51-.23 5.26.07 2.64.81 5.38.34 7.9-.62 3.37.31 5.78 2.98 7.48 5.38 3.43 7.82 9.11 10.83 14.24 1.06 1.82.4 4.69.39 7.09-.01 2.06-.26 4.11-.31 6.17-.04 2.1.05 4.21.06 6.31.02 3.09.11 6.18-.01 9.27-.26 6.46-3.13 12.16-6.1 17.61-1.46 2.69-5.25 2.23-7.77.09-.51-.43-1.05-.88-1.65-1.14-9.39-4.04-16.12-11.5-23.43-18.22-2.22-2.04-3.84-4.15-3.89-7.4-.02-.96-1.4-2.5-2.39-2.72-1.78-.4-2.31 1.08-2.4 2.77-.21 3.68-.63 7.35-.82 11.03-.04.8.65 1.61.78 2.46.65 4.03 1.36 8.06 1.73 12.12.14.92-.99 1.98-1.87 3.54zm-10.22-205.81c.21.2.43.4.64.61 1.73-1.15 3.35-2.92 5.23-3.27 2.04-.38 4.37.42 6.5.97 2.04.53 4.02 1.35 5.99 2.13.82.33 1.51 1.15 2.33 1.28 2.43.39 5.13 1.29 7.28.6 2.84-.92 4.83-.43 7 1.14.72.52 1.63.99 2.49 1.07 3.05.26 5.65-.59 7.64-3.18 1.07-1.39 2.38-3.02 3.93-3.56 6.31-2.2 10.68-7.18 16.13-10.59 2.09-1.31 2.68-2.81 2.59-5.21-.08-2.22.49-4.49 1.02-6.68.45-1.87 1.45-3.62 1.86-5.5.9-4.21 1.02-8.7 2.56-12.64 1.04-2.66.85-4.55-.12-6.79-7.13 7.95-14.17 15.81-22.08 24.63-2.28-2.84-3.82-4.93-5.52-6.85-5.19-5.87-8.42-12.82-9.75-20.34-1.39-7.86-5.61-15.5-2.51-23.92.3-.81-.87-2.15-1.35-3.25-.97.5-2.41.75-2.82 1.54-1.07 2.05-1.51 4.43-2.55 6.51-1.35 2.72-3.05 5.26-4.58 7.89-.6 1.03-1.28 2.05-1.67 3.16-3.23 9.16-6.31 18.37-9.63 27.5-.98 2.7-2.61 5.17-3.9 7.77-1.12 2.27-3.26 2.75-5.05 1.78-1.01-.55-1.63-2.76-1.55-4.17.11-2.07 1.11-4.08 1.52-6.16.75-3.75-.5-5.36-4.15-6.54-1.44-.47-2.97-1.54-3.85-2.76-3.7-5.16-7.18-10.49-10.78-15.82-2.4 1.96-1.86 4.14-1.14 6.29.85 2.52 1.33 4.88-.54 7.28-.51.65-.36 2.09-.07 3.03.83 2.66 2.03 5.21 2.8 7.89.5 1.74.51 3.62.75 5.48-1.83.18-3.11.31-4.41.44.56 3.28.76 3.49 3.41 3.8 4.31.5 5.83 2.12 5.99 6.48.06 1.64.01 3.28.01 4.99 3.66-1.41 4.88-.38 12.07 10.02-.32.41-.71.82-.99 1.29-.3.53-.49 1.11-.73 1.66zm29.29 64.97c-4.38 11.02-2.94 21.84-3.21 32.51-.04 1.77-.06 3.61-.54 5.28-2.34 8.2-.31 15.69 3.75 22.76.57.99 2.6 1.46 3.97 1.5.47.01 1.64-2.15 1.42-3.05-1.6-6.37-.34-12.88-1.62-19.42-1.38-7.07.48-14.78.93-22.21.09-1.42.83-3.46.16-4.16-2.67-2.79-2.54-6.29-3.28-9.6-.25-1.12-.92-2.14-1.58-3.61z" fill="#010102"/><g fill="#fcfbfa"><path d="m385.2 377.6.6-.7c.6.4 1.3.9 1.9 1.5l-.6.7c-.8-.5-1.4-1-1.9-1.5zm.3 7.1c.6-1.4 1.1-2.9 1.5-4.5.3.1.6.3.9.4-.5 1.4-1 2.9-1.5 4.4zm.2-10.1.6-.6c.7.5 1.3 1.1 1.9 1.6l-.7.7c-.6-.6-1.2-1.2-1.8-1.7zm8.4-.8h.8v.9h1.8v.7h-1.8v1.8h-.8v-.3h-1.2v.9h3.3v2.6h-.8v-.4h-2.5c0 .3 0 .6-.1.8h3.4v.7h-3.5c0 .3-.1.6-.1.8h4v.7h-3.5c.7.9 1.9 1.3 3.6 1.5-.2.2-.4.5-.6.9-1.9-.3-3.2-1.1-3.8-2.3-.5 1.1-1.8 2-3.9 2.4-.2-.3-.4-.5-.6-.8 1.9-.4 3.1-.9 3.6-1.7h-3.2v-.7h3.5c.1-.2.1-.5.2-.8h-3.3v-.7h3.4c0-.2 0-.5 0-.8h-2.4v.3h-.8v-2.6h3.3v-.9h-1.2v.3h-.8v-1.8h-1.8v-.7h1.8v-.9h.8v.9h3.2zm-4.4 5.5h2.4c0-.3 0-.6 0-.9h-2.4zm1.2-3.1h3.2v-.8h-3.2zm4.4 2.2h-2.4v.9h2.5v-.9z"/><path d="m389.2 385.8h.9v1.5h1.9v-1.5h.9v1.5h2.7v6h1.1v.9h-11.3v-.9h1.1v-6h2.7zm.2 8.7.5.8c-1.2.6-2.5 1.3-4 1.9-.2-.3-.3-.6-.6-.8 1.6-.6 3-1.3 4.1-1.9zm-2-4.3h1.9v-2.1h-1.9zm0 3.1h1.9v-2.2h-1.9zm2.7-3.1h1.9v-2.1h-1.9zm0 3.1h1.9v-2.2h-1.9zm2.4 1.3c1.4.6 2.7 1.2 4.1 1.8l-.5.9c-1.5-.7-2.8-1.4-4.1-1.9zm2.2-6.5h-1.9v2.1h1.9zm-1.9 5.2h1.9v-2.2h-1.9z"/></g></svg>