<svg enable-background="new 0 0 400 400" viewBox="0 0 400 400" xmlns="http://www.w3.org/2000/svg"><path d="m200.98 268.54c-2.5-.69-5.17-1.01-7.46-2.12-10.57-5.11-21.02-10.43-31.7-15.76-2.46 3.63-3.69 7.71-2.8 11.79 2.56 11.74-.49 22.85-2.94 34.11-1.52 6.98-2.68 14.04-3.87 21.08-.74 4.38-2.3 6.44-7.26 7.92.18-2.65-.17-5.15.61-7.23 1.73-4.64 1.85-8.92-1.04-13.06-2.61-3.75-2.12-7.66-1.71-12.04 1.34-14.5 4.36-29.11-.56-43.55-.22-.63-.35-1.3-.58-1.92-2.08-5.7-3.67-6.1-7.8-1.97-.48.47-.94.96-1.43 1.42-5.26 5.01-10.27 10.1-13.1 17.11-1.91 4.73-4.82 5.59-10.77 4.05 1.34-2.49 2.2-5.13 3.89-7.03 9.9-11.15 19.25-22.69 26.72-35.66.33-.58.61-1.2.95-1.77 3.26-5.43 4.21-10.74-.9-15.68-3.1-3-2.81-6.24-.8-9.68.5-.86.83-1.83 1.15-2.78 1.37-4.11-.87-6.85-5.2-6.94-14.4-.32-28.82-.52-43.19-1.35-7.45-.43-12.62-3.81-15.81-8.97 6.79.42 13.07.72 19.33 1.22 5.57.45 11.12 1.2 16.7 1.64 2.09.16 4.27.08 6.32-.34 4.57-.92 9.01-.92 13.59.1 6.19 1.39 8.78-.46 10.33-6.59.93-3.68 1.72-7.41 2.84-11.04.66-2.12.11-3.52-1.33-5.07-6.62-7.14-13.08-14.43-19.71-21.57-1.59-1.71-2.15-3.29-1.71-5.67 1-5.39.73-5.81-4.05-8.51-2.54-1.43-3.1-3.59-3.1-6.51 5.02.59 9.62.55 12.81 5.94 2.96 5 7.47 9.1 11.36 13.54.69.78 1.73 1.26 2.96 2.11 4.32-14.31 9.15-28.05 7.09-42.96-.08-.55.01-1.21-.25-1.65-5.04-8.41-3.81-17.97-5.08-27.08-.12-.86-.37-1.73-.75-2.51-2.58-5.31-5.28-10.57-7.82-15.9-5.84-12.24-9.1-13.42-21.84-9.49-2.13.66-4.11 1.77-6.22 2.51-1.46.51-3 1-4.52 1.03-2.97.06-4.18-2.07-5.05-4.56-.9-2.59.96-3.28 2.63-4.21 1.56-.87 3.27-1.59 4.61-2.74 7-6.04 15.07-5.42 23.45-4.4 9.33 1.14 15.25 6.25 18.93 14.52 6.6 14.82 10.73 30.31 12.64 46.4.61 5.11.73 10.28 1.49 15.36.75 5-.01 9.72-1.16 14.55-.39 1.65.57 3.63.91 5.46 1.78-.68 4.06-.87 5.25-2.12 6.33-6.64 12.08-13.86 18.64-20.25 4.43-4.31 9.84-7.64 14.92-11.25.75-.53 2.81-.61 3.05-.19.8 1.38 1.76 3.32 1.33 4.59-.63 1.88-2.17 3.66-3.74 4.99-12.97 10.97-24.18 23.57-34.76 36.8-3.6 4.5-5.4 9.61-5.7 15.12-.41 7.58-.16 15.19-.3 22.78-.04 2.29 1.14 3.3 3.03 4.22 7.45 3.64 15.17 3.07 23.01 1.88 5.08-.78 10.19-1.5 15.31-1.89 2.64-.2 3.93-1.58 3.61-3.73-.49-3.35-1.34-6.75-2.65-9.86-1.86-4.41-4.2-8.64-6.52-12.84-.78-1.42-2.21-2.47-3.17-3.81-.88-1.23-1.75-2.55-2.23-3.96-.69-2.04.15-3.15 2.39-3.78 8.06-2.29 15.99-5.08 24.1-7.16 4.06-1.04 8.4-1.15 12.63-1.33 10.09-.44 20.02-1.72 29.72-4.66 1.68-.51 3.52-.63 5.29-.66 7.29-.12 8.32.66 7.87 7.99-.26 4.29-1.66 8.51-2.59 12.75-1.16 5.34-2.38 10.66-3.55 16-.49 2.24.34 3.69 2.41 4.85 3.78 2.12 7.39 4.54 11.96 7.39-3.16 1.4-5.45 3.01-7.93 3.4-6.84 1.08-10.63 5.01-12.35 11.46-3.36 12.63-6.77 25.25-10.19 37.87-1.22 4.5-2.5 8.99-3.86 13.87 4.24-1.09 8.11-1.77 11.51-4.57 8.21-6.75 17.79-11.17 27.72-14.71 2.51-.89 5.53-.55 8.31-.47 4.24.12 7.9-1.19 11.18-3.79.88-.69 1.75-1.4 2.7-1.98 4.38-2.68 7.36-1.74 9.42 2.87 3.07 6.89 3.6 14.01 2.07 21.34-5.54 26.47-11 52.96-16.64 79.41-3.84 18.01-10.13 35.2-18.35 51.67-.84 1.68-2.53 3.13-4.15 4.18-2.65 1.72-6.37 0-6.43-3.13-.06-3.16.05-6.68 1.36-9.45 7.29-15.47 11.82-31.86 16.23-48.24 2.64-9.78 3.48-20.03 5.61-29.97 3.52-16.39 7.35-32.71 11.24-49.02 1.92-8.07-.46-10.82-8.57-9.15-1.72.35-3.45.95-5.02 1.75-9.36 4.78-18.76 9.49-27.96 14.56-4.75 2.62-9.25 5.76-13.62 9-2.82 2.09-6.03 3.85-8.91 2.06-3.05-1.89-6.34-4.98-5.84-9.1 1.19-9.82-2.09-17.9-7.61-25.82-6.45-9.26-12.07-19.1-17.94-28.75-1.05-1.72-2.1-2.45-4.21-2.36-14.3.63-28.62 1.05-42.92 1.73-1.16.05-2.95 1.34-3.26 2.4-3.83 12.98-5.48 26.42-1.45 39.32 1.93 6.15 7.28 11.85 12.39 16.23 7.95 6.82 17.01 12.33 25.6 18.41 1.07.76 2.1 1.56 3.15 2.34-.1.43-.24.83-.39 1.22zm4.85-123.39c3.86 7.27 7.73 13.71 10.76 20.53 2.28 5.14 5.6 7.52 11.11 7.6 5.59.08 11.19.67 16.48-1.82 2.04-.95 3.28-2.26 3.69-4.7 1.13-6.72 2.28-13.46 4.05-20.03 1.14-4.24-.62-5.85-4.45-6.91-1.18-.33-2.41-.48-3.62-.64-9.58-1.27-18.95.54-28.29 2.17-3.27.56-6.32 2.42-9.73 3.8zm30.22 60.54c1.78-1.53 4.01-2.49 4.43-3.98 1.2-4.16 1.8-8.51 2.35-12.81.46-3.6-1.19-5.65-4.62-6.71-4.6-1.42-7.31 2.27-11.17 3.62 2.96 6.53 5.76 12.71 9.01 19.88zm-90.91-61.77c-1.12-1.7-1.98-3-3.35-5.08v5.82c1.07-.24 1.88-.42 3.35-.74z" fill="#010102"/><g fill="#fcfbfa"><path d="m385.2 377.6.6-.7c.6.4 1.3.9 1.9 1.5l-.6.7c-.8-.5-1.4-1-1.9-1.5zm.3 7.1c.6-1.4 1.1-2.9 1.5-4.5.3.1.6.3.9.4-.5 1.4-1 2.9-1.5 4.4zm.2-10.1.6-.6c.7.5 1.3 1.1 1.9 1.6l-.7.7c-.6-.6-1.2-1.2-1.8-1.7zm8.4-.8h.8v.9h1.8v.7h-1.8v1.8h-.8v-.3h-1.2v.9h3.3v2.6h-.8v-.4h-2.5c0 .3 0 .6-.1.8h3.4v.7h-3.5c0 .3-.1.6-.1.8h4v.7h-3.5c.7.9 1.9 1.3 3.6 1.5-.2.2-.4.5-.6.9-1.9-.3-3.2-1.1-3.8-2.3-.5 1.1-1.8 2-3.9 2.4-.2-.3-.4-.5-.6-.8 1.9-.4 3.1-.9 3.6-1.7h-3.2v-.7h3.5c.1-.2.1-.5.2-.8h-3.3v-.7h3.4c0-.2 0-.5 0-.8h-2.4v.3h-.8v-2.6h3.3v-.9h-1.2v.3h-.8v-1.8h-1.8v-.7h1.8v-.9h.8v.9h3.2zm-4.4 5.5h2.4c0-.3 0-.6 0-.9h-2.4zm1.2-3.1h3.2v-.8h-3.2zm4.4 2.2h-2.4v.9h2.5v-.9z"/><path d="m389.2 385.8h.9v1.5h1.9v-1.5h.9v1.5h2.7v6h1.1v.9h-11.3v-.9h1.1v-6h2.7zm.2 8.7.5.8c-1.2.6-2.5 1.3-4 1.9-.2-.3-.3-.6-.6-.8 1.6-.6 3-1.3 4.1-1.9zm-2-4.3h1.9v-2.1h-1.9zm0 3.1h1.9v-2.2h-1.9zm2.7-3.1h1.9v-2.1h-1.9zm0 3.1h1.9v-2.2h-1.9zm2.4 1.3c1.4.6 2.7 1.2 4.1 1.8l-.5.9c-1.5-.7-2.8-1.4-4.1-1.9zm2.2-6.5h-1.9v2.1h1.9zm-1.9 5.2h1.9v-2.2h-1.9z"/></g></svg>