<svg enable-background="new 0 0 400 400" viewBox="0 0 400 400" xmlns="http://www.w3.org/2000/svg"><g fill="#fbfafa"><path d="m37.59 393.81c-.92.31-1.52.05-2-.78-.7-1.2-1.52-2.34-2.47-3.78v4.59c-.55.03-.95.05-1.41.07-.03-.37-.06-.64-.06-.91 0-1.91 0-3.81 0-5.7 1.13-.41 1.77-.03 2.29.91.62 1.11 1.38 2.14 2.31 3.19v-4.2h1.35v6.61z"/><path d="m12.94 393.88v-6.75c1.9.19 3.93-.54 5.37 1.29.8 1.01.78 2.88.03 3.97-1.37 1.97-3.4 1.51-5.4 1.49m1.45-1.22c2.04.12 2.92-.58 2.89-2.21-.03-1.51-.98-2.19-2.89-2z"/><path d="m11.81 393.87h-5.49c.68-2.18 2.47-3.48 3.51-5.45h-3.08v-1.21h5.29c-.71 2.13-2.44 3.48-3.47 5.51.86 0 1.63.04 2.39-.01.79-.05 1.14.21.85 1.16"/><path d="m39.33 393.86v-6.61h3.7v1.07h-2.22v1.52c.68.04 1.34.09 2.07.13v1.07c-.72.05-1.38.09-2.1.14v1.48h2.4v1.19h-3.85z"/><path d="m27.71 388.56c-1.15-.3-2.46-.61-3.1.64-.37.73-.41 1.93-.06 2.67.63 1.35 1.99.93 3.17.68.35.94-.01 1.32-.93 1.46-1.62.25-3.05-.27-3.76-1.48-.73-1.24-.6-3.03.31-4.17.88-1.11 2.71-1.7 4-1.16.32.13.44.74.65 1.12-.1.08-.19.16-.28.24"/><path d="m49.15 387.24v1.07c-.59.02-1.17.05-1.87.08v5.44h-1.48v-5.44h-1.85c-.05-.4-.08-.73-.13-1.15z"/><path d="m20.06 387.21h1.33v6.62h-1.33z"/><path d="m30.68 393.25c-.49.38-.8.79-1.05.76-.32-.05-.6-.45-.9-.7.26-.24.51-.64.8-.67.29-.04.62.3 1.15.61"/></g><path d="m57.75 305.54c4.32-.56 8.65-.99 12.93-1.7 13.83-2.29 20.8-13.05 21.65-24.68.87-11.91 3.28-23.33 7.22-34.61 1.88-5.38 2.13-11.39 2.66-17.15.89-9.71 3.86-18.81 7.57-27.69 3.6-8.61 6.7-17.33 6.79-26.78.01-1.47-.69-3.26-1.67-4.36-9.38-10.57-18.12-21.63-24.98-34-2.3-4.15-3.79-8.81-5.18-13.38-1.17-3.87-1.54-7.84 1.4-11.48.67-.83.58-3.11-.1-4.06-2.61-3.7-3.31-7.48-2.62-11.99.43-2.81 0-6.11-1.11-8.74-2.64-6.25-.51-12.39-.28-18.55.26-6.81 1.21-13.59 1.59-20.4.14-2.54.64-4.38 3.39-4.85 3.02-.52 5.91-.27 7.65 2.62 3.71 6.17 5.71 13 5.63 20.11-.09 7.9-1.43 15.79-1.59 23.69-.11 5.73.46 11.55 1.39 17.21 1.18 7.12 2.07 14.08-.52 21.1-.36.97.39 2.79 1.21 3.68 5.16 5.59 10.55 10.96 15.7 16.56 2.03 2.21 3.92 4.64 5.4 7.24 4.47 7.82 12.11 10.95 19.9 13.86.88.33 2.19-.13 3.17-.54 5.58-2.3 11.12-4.68 16.67-7.06.71-.31 1.53-.57 2.05-1.1 6.51-6.58 13.53-12.75 19.31-19.92 7.36-9.13 13.67-19.09 20.51-28.63 1.07-1.49 1.01-2.43.19-4.12-1.22-2.53-2.3-5.45-2.3-8.2.03-16.55.25-33.11.71-49.65.16-5.68 1.12-11.34 1.82-16.99.11-.91.63-1.93 1.26-2.6 3.37-3.56 7.04-3.18 9.32 1.59 1.49 3.1 2.06 6.8 2.36 10.29 1.18 13.47 2.66 26.95 2.98 40.46.44 18.79-2.68 37.2-8.54 55.09-.36 1.12-1.13 2.16-1.92 3.06-5.95 6.83-11.88 13.7-18 20.38-1.86 2.03-4.23 3.62-6.5 5.23-6.1 4.35-12.23 8.66-18.45 12.85-1.64 1.11-2.06 2.18-1.75 4.13.91 5.85 1.37 11.78 2.35 17.62.47 2.8 1.71 5.48 2.64 8.35-3.62 2.94-7.77 3-12.02 1.95-.81-.2-1.72-1.18-2.04-2.01-2.29-5.9-4.83-11.75-6.52-17.83-1.78-6.39-5.58-10.04-11.95-11.04-1.03-.16-2.62.41-3.3 1.21-3.85 4.53-6.03 9.91-7.17 15.68-2.95 15.02-5.71 30.09-11.59 44.35-3.37 8.16-7.41 16.11-9.89 24.53-2.48 8.4-3.46 17.26-4.88 25.95-.16.96.85 2.45 1.74 3.18 3.71 3.04 7.98 1.91 12.21 1.45 7.87-.86 15.75-1.8 23.64-2.16 10.26-.46 20.59.19 30.59-2.98 4.14-1.31 6.66-5.64 5.45-9.77-3.84-13.08-7.59-26.18-11.56-39.21-.99-3.24-2.89-6.19-4.04-9.39-2.19-6.15-4.15-12.39-6.2-18.59.34-.37.69-.74 1.03-1.11 1.59.24 3.82-.09 4.65.83 3.12 3.48 6.37 3.36 10.07 1.38.56-.3 1.26-.32 2.14-.52 3.46 10.84 6.89 21.57 10.31 32.3 1.26 3.94 2.31 7.95 3.78 11.81 2.5 6.57 3.73 13.34 3.68 20.32-.02 3.3 1.46 5.58 4.32 6.41 4.89 1.42 9.93 2.3 14.92 3.4 1.73.38 3.54.56 5.19 1.17 2.25.83 3.31 2.61 2.84 5.06-.45 2.38-1.48 3.69-4.36 3.98-26.7 2.68-53.38 5.62-80.08 8.38-8.64.89-17.28 2.64-25.99.32-1.2-.32-2.72-.08-3.92.37-5.76 2.12-11.52 4.25-17.15 6.67-4.66 2-9.4 2.79-14.4 2.27-6.39-.65-11.07-4.95-11.41-10.25zm103.14-136.93c2.06-.7 3.97-1.35 6.03-2.05-1.29-1.47-2.31-2.62-3.38-3.84-1.99 1.62-5.27 2.16-2.65 5.89z" fill="#010000"/><path d="m290.06 374.97c-.49-4.36-1.46-8.55-1.33-12.71.56-16.99.89-34.02 2.37-50.95 2.65-30.33 10.23-59.64 19.9-88.44 2.63-7.84 4.94-15.8 7.91-23.5 2.37-6.15 2.92-12.2 1.87-18.67-.62-3.78-.13-7.74-.33-11.6-.05-.91-.65-2.2-1.38-2.58-5.05-2.68-7.36-7.01-8.64-12.39-.65-2.75-2.51-5.19-3.73-7.82-1.26-2.72-3.05-5.41-3.45-8.27-.64-4.64-3.52-7.23-7-10.08-1.33 3.44-2.67 6.6-3.77 9.84-3.73 11.07-9.05 21.36-14.86 31.46-10.42 18.12-20.65 36.36-30.9 54.57-1.59 2.82-2.64 5.96-4.39 8.66-1.69 2.6-3.97 4.82-6.46 7.77-1.73-5.39-1.55-9.84.58-13.5 8.83-15.15 11.83-32.21 16.59-48.7.3-1.05.7-2.21 1.42-2.98 3.48-3.69 4.31-7.93 3.01-12.72-.15-.54-.24-1.09-.32-1.64-.47-3.02.05-5.42 3.47-6.46 4.54-1.37 6.95-4.78 8.63-9.06 5.93-15.12 10.9-30.51 13.44-46.59.19-1.19.11-2.99-.63-3.68-8.84-8.27-12.92-19.01-15.29-30.38-2.07-9.92-3.07-20.06-4.67-30.09-.37-2.33.89-3.13 2.61-3.97 1.87-.91 3.76-2 5.43-.01 1.26 1.5 2.37 3.25 3.12 5.06 5.88 14.13 11.49 28.38 17.54 42.43 1.96 4.56 5.11 8.6 7.45 13.02 1.13 2.13 1.63 4.58 2.55 7.26-2.51.41-4.76.77-8.02 1.3 3.87 1.87 6.98 3.07 9.76 4.81 2.58 1.61 5.26 3.44 7.12 5.78 7.59 9.57 12.21 20.72 16.52 32.05 7.31 19.22 9.86 39.18 9.49 59.59-.04 2.29-.95 4.57-1.57 6.82-.8 2.91-2.05 5.73-2.5 8.68-.78 5.05-2.15 9.49-6.27 13.05-2.51 2.17-2.93 5.49-2 9.01 1.68 6.33 1.32 12.56-1.57 18.63-2.59 5.45-4.67 11.13-7.25 16.58-2.97 6.27-4.88 12.83-4.84 19.72.07 12.48-3.45 24.23-6.13 36.23-1.86 8.33-1.94 17.05-2.93 25.58-.46 3.98-.84 8.02-1.92 11.85-1.06 3.81-3.81 6.4-8.63 7.04z" fill="#010000"/></svg>