<svg enable-background="new 0 0 400 400" viewBox="0 0 400 400" xmlns="http://www.w3.org/2000/svg"><path d="m281.6 114.92c4.98 4.89 6.99 11.04 7.58 17.56.69 7.68.68 15.41 1.11 23.12.57 10.26 1.02 20.53 1.99 30.75 2.22 23.5 4.87 46.95 7.05 70.45 2.28 24.62 5.55 49.1 9.76 73.46.63 3.63.93 7.34 1.8 10.91.64 2.61-.34 4.12-2.12 5.74-4.85 4.41-10.56 6.14-16.97 5.8-.95-.05-1.86-.87-2.78-1.35-.09-.05-.16-.16-.22-.25-7.19-12.52-18.39-20.75-30.22-28.36-5.45-3.51-10.63-7.44-16.05-11-.99-.65-2.7-.84-3.86-.51-5.26 1.53-9.4 4.26-12.21 9.45-2.3 4.25-5.95 7.79-9.13 11.53-5.91 6.94-13.32 7.83-21.64 5.33-4.81-1.44-8.84-3.51-10.46-8.75-.48-1.57-1.51-2.99-2.3-4.46-3.63-6.78-10.35-7.53-15.4-1.75-14.57 16.7-29.18 33.36-43.69 50.1-1.68 1.93-3.27 2.52-5.94 2.44-5.57-.17-9.03-2.35-11.92-7.23-7.65-12.91-15.71-25.64-18.33-40.7-1.12-6.45-1.15-13.14-1.14-19.72.02-12.64.86-25.29.57-37.92-.38-16.2-.93-32.44-2.51-48.55-2.13-21.57-3.19-43.04-.25-64.6.42-3.05 2.82-3.22 4.66-4.07.74-.34 2.31.57 3.22 1.27 1.23.94 2.25 2.18 3.27 3.36 5.42 6.31 12.15 10.4 20.24 12.39 1.9.47 3.76 1.42 5.41 2.49 6.66 4.33 13.47 8.48 19.78 13.27 10.9 8.27 23.2 10.52 36.41 9.6 7.81-.54 15.61-1.24 23.42-1.67 2.13-.12 3.38-.86 4.6-2.58 12.84-18.1 26.89-35.22 42.48-51.02 9.31-9.44 19.63-17.64 31.62-23.55.68-.32 1.38-.62 2.17-.98zm-3.3 126.5c-.55-4.5-1.01-8.94-1.65-13.35-1.59-11.07-8.02-18.43-18-22.87-1.53-.68-3.51-.97-5.15-.69-24.14 4.04-48.26 8.26-72.4 12.34-9.36 1.58-18.72 3.62-28.16 4.24-15.16.99-30.4 1.01-45.6 1.36-1.94.04-2.96.57-3.52 2.59-4.26 15.15-1.79 29.22 6.73 42.29.63.96 2.29 1.71 3.5 1.76 5.25.19 10.55-.28 15.77.16 12.7 1.07 24.59-1.33 36-6.91 2.27-1.11 5.16-1.4 7.75-1.36 5.81.09 11.6.77 17.41.93 2.5.07 5.12-.25 7.52-.95 6.11-1.8 12.08-4.05 18.19-5.84 2.74-.8 5.79-1.67 8.5-1.25 9.25 1.41 18.45 3.22 27.6 5.2 6.65 1.43 13.2 2.33 19.87.3 2.34-.71 3.78-1.84 3.98-4.6.32-4.49 1.08-8.9 1.66-13.35zm-162.23 101.64c1.85-.94 3.94-1.48 5.27-2.79 3.31-3.28 6.46-6.76 9.35-10.42 4.83-6.14 8.93-12.93 14.22-18.62 4.79-5.16 6.2-11.18 7.22-17.57.4-2.52-.53-4.76-3.13-5.68-5.25-1.87-10.74-2.54-16.13-1.15-5.93 1.54-11.68 3.78-17.55 5.58-1.88.58-2.74 1.54-2.81 3.52-.38 10.15-1.15 20.29-1.14 30.44-.01 5.66 1.55 11.22 4.7 16.69zm165.73-33.11c-.44-4.43-.81-8.99-1.37-13.53-.34-2.77-.86-5.52-1.48-8.24-1.53-6.75-4.47-12.68-10.66-16.32-1.2-.71-3.24-.8-4.58-.3-4.28 1.58-8.48 3.45-12.57 5.47-1.06.53-2.1 1.92-2.38 3.1-1.73 7.45.61 13.33 7.11 17.62 6.14 4.04 11.65 8.64 15.42 15.07 2.14 3.64 2.5 3.61 8.42 2.17 3.2-.8 1.44-3.23 2.09-5.04zm-10.08-132.44c0-.82.14-1.52-.02-2.15-1.08-4.28-1.56-8.89-3.52-12.73-2.23-4.37-6.03-4.27-9.3-.65-1.95 2.16-3.75 4.47-5.86 6.45-3.76 3.51-5.64 7.98-6.87 12.76-.39 1.51-.14 3.28.18 4.86.4 1.98 1.61 2.6 3.73 1.91 6.04-1.98 12.1-3.98 18.25-5.54 3.03-.77 4.21-2.07 3.41-4.91zm-72.3 128.65c5.23-5.7 10.37-10.97 15.11-16.59 3.03-3.59.81-8.1-3.76-8.76-4.69-.68-9.08.24-13.46 1.74-3.83 1.32-7.72 2.43-11.9 3.73 4.84 6.87 9.33 13.24 14.01 19.88zm-95.97-118.71v10.62h14.61c-5.17-3.76-9.74-7.08-14.61-10.62z" fill="#010102"/><path d="m175.06 162.71c-13.79.01-23.28-2.33-32.36-6.4-1.19-.53-2.29-1.39-3.26-2.28-6.44-5.89-13.01-11.67-19.22-17.8-13.43-13.26-21.75-42.8-9.73-63.16.73-1.24 1.54-2.49 2.53-3.52 8.23-8.55 16.57-16.98 24.75-25.57 8.25-8.67 18.46-13.49 29.99-16.04 11.08-2.45 22.06-2.79 33.25-.39 14.14 3.03 23.85 10.97 29.49 24.26 4.54 10.72 7.5 21.88 8.1 33.4.33 6.36-1.46 12.84-2.48 19.23-.15.94-1.48 1.62-1.97 2.58-1.43 2.82-3.99 5.79-3.82 8.56.71 11.87-4.86 20.58-12.71 28.44-12.79 12.81-28.48 18.42-42.56 18.69zm-45.34-62.91c-.17 8.7 2.48 15.96 9.77 21.29 3.14 2.29 5.71 5.35 8.63 7.95.97.87 2.15 1.6 3.35 2.09 6.53 2.62 13.03 5.33 19.67 7.64 3.97 1.38 8.12 2.54 12.28 2.96 4.01.4 8.29-.39 11.05-3.72 8.98-10.86 17.55-22.03 22.59-35.41.33-.89.74-1.98.51-2.82-3.55-13.36-6.15-27.01-12.81-39.38-5.96-11.08-17.86-17.55-30.36-16.1-.85.1-1.7.53-2.46.96-10.97 6.24-21.94 12.5-32.88 18.81-.91.52-1.94 1.31-2.31 2.22-4.37 10.74-6.82 21.92-7.03 33.51z" fill="#010102"/><g fill="#fcfbfa"><path d="m385.2 377.6.6-.7c.6.4 1.3.9 1.9 1.5l-.6.7c-.8-.5-1.4-1-1.9-1.5zm.3 7.1c.6-1.4 1.1-2.9 1.5-4.5.3.1.6.3.9.4-.5 1.4-1 2.9-1.5 4.4zm.2-10.1.6-.6c.7.5 1.3 1.1 1.9 1.6l-.7.7c-.6-.6-1.2-1.2-1.8-1.7zm8.4-.8h.8v.9h1.8v.7h-1.8v1.8h-.8v-.3h-1.2v.9h3.3v2.6h-.8v-.4h-2.5c0 .3 0 .6-.1.8h3.4v.7h-3.5c0 .3-.1.6-.1.8h4v.7h-3.5c.7.9 1.9 1.3 3.6 1.5-.2.2-.4.5-.6.9-1.9-.3-3.2-1.1-3.8-2.3-.5 1.1-1.8 2-3.9 2.4-.2-.3-.4-.5-.6-.8 1.9-.4 3.1-.9 3.6-1.7h-3.2v-.7h3.5c.1-.2.1-.5.2-.8h-3.3v-.7h3.4c0-.2 0-.5 0-.8h-2.4v.3h-.8v-2.6h3.3v-.9h-1.2v.3h-.8v-1.8h-1.8v-.7h1.8v-.9h.8v.9h3.2zm-4.4 5.5h2.4c0-.3 0-.6 0-.9h-2.4zm1.2-3.1h3.2v-.8h-3.2zm4.4 2.2h-2.4v.9h2.5v-.9z"/><path d="m389.2 385.8h.9v1.5h1.9v-1.5h.9v1.5h2.7v6h1.1v.9h-11.3v-.9h1.1v-6h2.7zm.2 8.7.5.8c-1.2.6-2.5 1.3-4 1.9-.2-.3-.3-.6-.6-.8 1.6-.6 3-1.3 4.1-1.9zm-2-4.3h1.9v-2.1h-1.9zm0 3.1h1.9v-2.2h-1.9zm2.7-3.1h1.9v-2.1h-1.9zm0 3.1h1.9v-2.2h-1.9zm2.4 1.3c1.4.6 2.7 1.2 4.1 1.8l-.5.9c-1.5-.7-2.8-1.4-4.1-1.9zm2.2-6.5h-1.9v2.1h1.9zm-1.9 5.2h1.9v-2.2h-1.9z"/></g></svg>