<svg enable-background="new 0 0 400 400" viewBox="0 0 400 400" xmlns="http://www.w3.org/2000/svg"><g fill="#fbfafa"><path d="m37.59 393.81c-.92.31-1.52.05-2-.78-.7-1.2-1.52-2.34-2.47-3.78v4.59c-.55.03-.95.05-1.41.07-.03-.37-.06-.64-.06-.91 0-1.91 0-3.81 0-5.7 1.13-.41 1.77-.03 2.29.91.62 1.11 1.38 2.14 2.31 3.19v-4.2h1.35v6.61z"/><path d="m12.94 393.88v-6.75c1.9.19 3.93-.54 5.37 1.29.8 1.01.78 2.88.03 3.97-1.37 1.97-3.4 1.51-5.4 1.49m1.45-1.22c2.04.12 2.92-.58 2.89-2.21-.03-1.51-.98-2.19-2.89-2z"/><path d="m11.81 393.87h-5.49c.68-2.18 2.47-3.48 3.51-5.45h-3.08v-1.21h5.29c-.71 2.13-2.44 3.48-3.47 5.51.86 0 1.63.04 2.39-.01.79-.05 1.14.21.85 1.16"/><path d="m39.33 393.86v-6.61h3.7v1.07h-2.22v1.52c.68.04 1.34.09 2.07.13v1.07c-.72.05-1.38.09-2.1.14v1.48h2.4v1.19h-3.85z"/><path d="m27.71 388.56c-1.15-.3-2.46-.61-3.1.64-.37.73-.41 1.93-.06 2.67.63 1.35 1.99.93 3.17.68.35.94-.01 1.32-.93 1.46-1.62.25-3.05-.27-3.76-1.48-.73-1.24-.6-3.03.31-4.17.88-1.11 2.71-1.7 4-1.16.32.13.44.74.65 1.12-.1.08-.19.16-.28.24"/><path d="m49.15 387.24v1.07c-.59.02-1.17.05-1.87.08v5.44h-1.48v-5.44h-1.85c-.05-.4-.08-.73-.13-1.15z"/><path d="m20.06 387.21h1.33v6.62h-1.33z"/><path d="m30.68 393.25c-.49.38-.8.79-1.05.76-.32-.05-.6-.45-.9-.7.26-.24.51-.64.8-.67.29-.04.62.3 1.15.61"/></g><path d="m201.58 33.67c2.79 5 5.47 47.49 3.36 50.51.56.86 1.48 1.65 1.62 2.57 1.01 6.51 2.02 13.02 2.7 19.56.37 3.56 2.19 4.88 5.28 2.82 6.59-4.41 12.98-9.11 19.53-13.58 2.39-1.63 4.93-3.05 7.52-4.34 2.34-1.17 3.59-2.76 3.57-5.49-.13-17.23-.26-34.47-.18-51.7.01-2.74 1.08-5.48 2.11-8.23 3.46 3.97 5.09 8.19 4.18 13.49-.65 3.79-.33 7.76-.41 11.64-.01.44.22.89.18 1.32-.94 9.35.98 18.56 1.44 27.84.31 6.28-1.06 11.44-7.21 14.97-10.24 5.88-20.13 12.37-30.12 18.68-2.51 1.59-4.84 3.48-7.66 5.53 4.31 1.85 5.15 4.61 4.51 8.46-1.01 6.06.64 7.87 6.59 8.81 2.28.36 4.57 1.1 6.68 2.07 6.39 2.95 12.66 6.17 19.04 9.15 3.52 1.65 7.16 3.03 10.88 4.59 1.91-3.18 1.22-11.84-1.65-14.88 3.79-1.27 5.56-.75 6.52 2.86.83 3.12.4 6.57 1.18 9.72.72 2.9-1.33 6.24 1.5 8.78.36.32.16 1.26.21 1.91.27 3.52.49 7.05.82 10.56.4 4.21.98 8.39 1.36 12.6.45 5 1.03 10.01 1.08 15.02.08 8.29-.21 16.58-.35 24.87 0 .11.01.25-.05.33-1.22 1.67-2.32 3.46-3.71 4.98-1.41 1.55-2.9 3.35-4.74 4.13-3.58 1.52-7.45 2.36-11.17 3.56-1.9.61-3.59 1.3-5.68.05-.79-.47-2.84.24-3.75 1.05-2.24 2-4.5 2.7-7.38 1.71-.85-.29-1.91-.02-2.87.07-1.74.17-3.48.34-5.2.62-.99.16-2.41.29-2.78.93-.36.61.18 2 .69 2.82 5.56 9.09 11.25 18.1 16.76 27.22.88 1.45 1.06 3.32 1.86 5.97-1.69-.83-2.91-1.02-3.38-1.71-5.17-7.56-10.3-15.15-15.29-22.82-2.18-3.36-3.96-6.99-6.04-10.41-1.57-2.57-3.71-4.14-6.94-4.63-7.5-1.15-14.93-2.73-22.64-4.19-.23 1.08-.43 1.9-.57 2.73-.19 1.1.02 2.48-.57 3.27-3.5 4.72-1.72 10.45-3.17 15.56-1.49 5.26-2.5 10.65-3.8 15.97-1.25 5.11-2.65 10.18-3.91 15.28-.85 3.44 2.06 3.29 3.89 3.55 5.42.78 10.91 1.04 16.32 1.89 2.75.44 5.33 2.23 8.07 2.48 3.86.35 7.82.08 11.69-.36 4.91-.56 9.5-.12 13.89 3.32-1.71.44-3.44 1.32-5.12 1.24-10.82-.52-21.64-1.19-32.45-1.97-2.88-.21-5.76-.83-8.54-1.61-1-.29-1.71-1.62-2.23-2.14-1.45.29-2.9.92-4.28.81-6.51-.54-12.99-1.46-19.5-1.87-3.55-.22-6.88-.26-8.72-4.71 3.99.33 7.82.52 11.61.99 9.9 1.24 11.21.29 12.65-9.57.97-6.59 1.83-13.2 3.04-19.74.5-2.71 2.36-5.21 2.62-7.9.52-5.38.67-10.85.38-16.25-.18-3.34-3.29-4.09-6.14-4.67-4.26-.87-8.56-1.61-12.7-2.89-2.09-.65-3.83-2.39-5.77-3.56-.91-.55-2.36-.67-2.82-1.43-1.21-2.03-2.71-4.25-2.85-6.47-.99-14.73-1.69-29.48-2.38-44.22-.07-1.5.78-3.03.74-4.53-.08-2.9-.81-5.8-.68-8.67.19-4.25.9-8.48 1.38-12.72.31.35.62.7.93 1.04h5.35 6.18c.03-.39.06-.79.08-1.18-.7-.32-1.39-.63-2.44-1.11 16.52-12.02 34.86-13.07 54.37-11.01-.14-2.06-.17-4.37-.48-6.65-.25-1.87-.87-3.7-1.26-5.56-1.09-5.26-2.99-6.53-8.43-5.6-.31.05-.67-.02-.97-.13-9.92-3.82-20.13-6.73-28.66-13.81-5.74-4.76-7.01-10.25-6.67-16.94.07-1.38-.74-2.79-.8-4.2-.19-4.52-.2-9.04-.32-13.57-.25-10.06-.56-20.12-.76-30.18-.03-1.62.36-3.26.55-4.89.32-.08.64-.15.96-.23.98 2.38 2.37 4.68 2.84 7.16.89 4.74 1.41 9.58 1.77 14.4.18 2.41-.74 4.91-.47 7.3.47 4.19-.43 8.31.68 12.63 1.36 5.34 1.27 11.09 1.47 16.67.22 6.04 2.79 9.42 8.61 11.71 7.32 2.89 14.46 6.25 21.73 9.27 1.73.72 3.68.92 5.53 1.36.11-1.93.41-3.86.3-5.78-.52-8.32-1.18-16.64-1.75-24.96-.26-3.81-.51-7.62-.65-11.43-.31-8.62-.55-17.24-.8-25.86-.09-2.89-.18-5.78-.15-8.67-.05-.37.63-.76 1.21-1.38zm-1.25 185.12c.61 1.18.91 2.18 1.54 2.87 3.12 3.44 6.27 6.85 9.55 10.13.75.75 2.08 1.28 3.16 1.3 7.94.13 15.91.44 23.83.02 8.11-.43 15.93-2.33 22.4-7.81 1.75-1.49 3.48-2.7.69-4.88-.51-.4-.27-1.85-.24-2.81.05-1.89.18-3.77.28-5.66.13-2.28.26-4.56.43-7.56-.28-.65-1.23-2.09-1.48-3.65-.49-2.97-.63-6.01-.83-9.02-.33-4.98-.42-9.97-.93-14.93-.3-2.99-1.33-5.89-1.78-8.87-.66-4.34-1.09-8.71-1.68-13.61-1.47 2.91-3.31 2.86-5.56 1.95-3-1.21-6.21-1.96-9.1-3.37-1.49-.73-2.51-2.44-3.73-3.72-.55-.58-1.07-1.19-1.6-1.79-.35.65-.7 1.3-.88 1.62-3.28-1.15-6.61-2.18-9.83-3.47-4.35-1.75-8.61-3.73-12.93-5.58-.8-.34-1.66-.63-2.52-.73-2.55-.31-5.13-.42-7.68-.78-2.74-.38-5.44-1.26-8.18-1.37-6.59-.27-12.95 1.1-19.12 3.41-1.44.54-3.11 1.13-4.53.87-1.92-.34-2.96.35-4.39 1.41-3.68 2.74-7.13 6.27-12.49 5.1-3.2-.7-5.18.81-5.24 4.09-.12 6.04.01 12.08-.07 18.12-.04 3.11-.94 6.34-.37 9.3 1.5 7.67.33 15.6 2.55 23.16.06.21.02.45 0 .67-.4 4.88-.95 9.8 1.55 14.34.58 1.05 1.33 2.47 2.3 2.77 5.11 1.55 10.29 2.9 15.5 4.11 6.75 1.56 13.55 2.91 20.33 4.36 5.01 1.08 10.02 2.17 15.03 3.26.29-.49.59-.98.88-1.46-1.37-1.75-2.69-3.55-4.13-5.25-1.67-1.9-3.06-3.79-.73-6.54z" fill="#010000"/><path d="m130.5 261.01c.84 1.31 2.14 2.52 2.43 3.94.55 2.71.77 5.54.7 8.31-.15 5.44-.61 10.88-.9 16.32-.1 1.76-.09 3.52-.11 5.29-.07 6.75.12 13.53-.3 20.26-.24 3.89.11 5.19 3.92 5.87 1.53.27 3.12.24 4.68.2 10.22-.31 20.32.54 30.28 2.88.53.12 1.14.28 1.63.14 5.99-1.75 11.84-.7 17.87.19 5.55.82 11.31.08 16.98.17 3.3.05 6.59.53 9.88.54 9.56.04 19.12-.08 28.67-.11 2.42-.01 4.87-.08 7.27.19 2.34.26 3.54-.21 3.68-2.87.48-9.02 1.13-18.04 1.74-27.06.08-1.22.39-2.42.48-3.64.31-4.47.49-8.94.89-13.4.09-.98.86-1.9 1.32-2.85.73.66 1.89 1.21 2.11 2.01.53 1.91.88 3.94.83 5.92-.12 5.88-.51 11.75-.72 17.63-.29 8.04-.88 16.1-.66 24.13.16 5.88-2.38 10.55-5.68 14.65-4.67 5.81-9.58 11.71-15.44 16.2-8.55 6.56-17.23 13.45-28.82 14.4-3.55.29-7 1.77-10.53 2.53-11.94 2.58-23.77 3.12-35.32-1.93-2.23-.98-4.66-1.54-7.05-2.09-10.85-2.5-20.12-7.87-28.15-15.46-3.23-3.05-4.57-6.85-5-11.33-1.66-17.6-.67-35.05 1.84-52.5.5-3.49-.11-7.12-.03-10.68.14-5.77.43-11.53.66-17.29.28-.19.57-.38.85-.56zm68.11 67.31c-.06-.16-.11-.32-.17-.48-1.83.29-3.68.93-5.48.8-9.67-.68-19.38-1.16-28.96-2.5-5.89-.82-11.88.56-17.78-1.7-2.56-.98-6.09.72-9.2.96-3.42.26-4.64 2.12-4.54 5.3.12 3.65.04 7.3.28 10.94.09 1.25.63 2.68 1.43 3.63 6.68 7.89 14.16 14.61 24.9 16.41.84.14 1.56.89 2.4 1.13 7.95 2.32 15.86 4.77 23.89 6.77 1.97.49 4.31-.61 6.49-.78 6.02-.48 12.09-.51 18.04-1.4 3.8-.57 7.41-2.35 11.1-3.6 9.02-3.05 16.24-8.95 22.98-15.32 4.68-4.43 8.94-9.38 12.89-14.48 2.17-2.8.75-5.14-2.8-5.6-1.3-.17-2.67.05-4 .17-3.55.32-7.09.85-10.65.99-6.13.25-12.27.36-18.4.34-5.33-.01-10.66-.19-15.98-.49-2.15-.1-4.28-.71-6.44-1.09z" fill="#010000"/><path d="m207.65 192.04c-2.68.29-5.35.67-8.04.84-4.76.3-9.52.61-14.29.66-4.31.05-8.15-1.56-11.74-3.75.08-.43.15-.85.23-1.28 3.81.63 7.82.7 11.38 2.01 5.88 2.17 11.67 2.2 17.64 1.09 1.54-.29 3.06-.67 4.59-1.01.08.47.15.95.23 1.44z" fill="#010000"/></svg>