<svg enable-background="new 0 0 400 400" viewBox="0 0 400 400" xmlns="http://www.w3.org/2000/svg"><path d="m119.65 280.35c1.9-17.92 3.72-34.8 5.46-51.69.29-2.78.28-5.59.3-8.38.06-10.43 1.44-20.66 3.57-30.9 1.95-9.33 2.43-18.95 3.82-28.41 1.82-12.38.85-25.02 3.88-37.31.73-2.94-.76-6.36-.51-9.5 1.15-14.68 6.27-28.3 13.9-40.56 6.08-9.78 14.33-18.19 21.47-27.33 3.56-4.56 6.81-9.37 10.18-14.08.58-.81 1.05-1.73 1.69-2.49 4.83-5.71 7.86-5.52 12.76.03 3.15 3.57 6.66 6.94 10.46 9.8 5.58 4.21 10.72 8.73 14.73 14.51 4.09 5.9 9.21 10.82 14.55 15.65 12.69 11.48 19.71 26.68 25.86 42.25 1.44 3.66 1.85 7.72 2.73 11.6.12.54.09 1.2.4 1.59 2.91 3.68 2.06 8.03 2.4 12.22 1 12.36 2.35 24.7 3.36 37.06.75 9.25 1.31 18.51 1.7 27.78.74 17.78 1.65 35.56 1.74 53.35.03 6.6-1.96 13.23-3.17 19.81-1.88 10.23-3.82 20.44-5.9 30.63-.33 1.61-1.45 3.11-2.4 4.54-1.05 1.57-2.52 2.87-3.46 4.5-7.81 13.54-18.79 24.1-31.19 33.33-.72.53-1.55.95-2.17 1.57-5.94 5.87-12.05 11.58-17.71 17.7-9.3 10.07-14.44 9.54-25.35 2.4-17.31-11.33-33.34-24.61-46.58-40.78-6.92-8.45-13.04-17.54-14.95-28.51-1.2-6.98-1.13-14.19-1.57-20.38zm85.17 26.29c-.45-.33-.9-.66-1.35-1-2.74-4.47-4.79-9.63-8.38-13.26-6.35-6.42-13.59-11.98-20.56-17.77-2.16-1.79-4.74-1.15-5.37 1.38-1.3 5.29-2.94 10.67-3.03 16.03-.07 4.44-.92 8.27-2.81 12.14-2.21 4.51-4.18 9.15-6.26 13.72-2.49 5.46-1.87 8.42 2.77 12.38 2.47 2.11 5.4 3.77 7.49 6.19 7.26 8.4 16.31 14.6 25.14 21.09 5.7 4.2 8.98 3.84 12.63-2.27 4.45-7.47 10.03-13.95 15.89-20.27 5.49-5.9 10.58-12.21 16.4-17.76 3.87-3.69 8.56-6.65 10.57-11.78 2.71-6.91 6.41-13.88 7.03-21.06 1.53-17.65 1.68-35.43 2.08-53.17.12-5.11-1.67-10.35-1.05-15.33 1.22-9.81-.32-19.41-.78-29.1-.23-4.77-.11-9.56-.13-14.34-.01-3.52.08-7.03-.01-10.55-.07-3-.52-6-.45-8.99.12-5.42 1.44-10.95-1.99-15.93-.29-.42-.15-1.1-.31-1.63-1.65-5.67-2.67-11.63-5.13-16.93-3.89-8.39-8.79-16.31-13.17-24.47-1.8-3.36-3.31-6.81-7.4-8.17-.99-.33-1.82-1.63-2.4-2.66-3.38-5.93-7.94-10.71-13.44-14.74-3.7-2.71-7.15-5.75-10.71-8.65-4.4-3.57-8.81-7.14-14.39-11.67-1.8 2.36-3.63 4.5-5.18 6.82-3.85 5.75-8.08 11.32-11.23 17.44-5.42 10.52-10.18 21.38-15.11 32.14-.62 1.36-.83 3.01-.87 4.53-.15 6.49.26 13.01-.3 19.46-1.69 19.73-3.55 39.44-5.73 59.12-.69 6.27 1.64 13.12-3.06 18.77-.23.27-.11.88-.07 1.32 1.54 15.88-4.71 31-4.57 46.79.06 7.35-1.43 14.69-1.68 22.06-.42 12.27.49 24.37 6.22 35.63.91 1.78 2.15 2.86 3.87 2.22 1.36-.51 2.59-1.82 3.43-3.08.54-.81.41-2.18.35-3.28-.63-10.27.84-20.18 3.71-30.09 2.64-9.08 4.14-18.48 6.19-27.73.35-1.56.95-3.07 1.77-5.7 3.86 4 7.72 6.94 10.19 10.77 6.38 9.9 15.28 17.16 24.16 24.49 1.24 1.02 3.01 1.4 5.38 2.45 1.03-6.81 2.62-12.74 2.68-18.68.1-9.93-.77-19.86-1.25-29.8-.15-3.05-5.92-10.84-8.95-11.2-3.92-.47-6.43-2.84-9.15-5.13-6.67-5.63-13.35-11.25-20.01-16.91-.83-.71-1.93-1.48-2.19-2.43-2.86-10.23-9.75-19.69-6.12-31.19.07-.21.05-.45.04-.67-.22-13.76 2.37-27.09 5.6-40.39.86-3.55.68-7.63-.09-11.23-1.04-4.89.04-8.98 2.46-13.17 5.48 1.87 7.07 6.44 8.81 11.13 1.58 4.26 3.68 8.33 5.75 12.38.39.75 1.87 1.57 2.59 1.38.99-.26 1.92-1.33 2.54-2.27.45-.68.36-1.72.55-2.59 2.05-9.82 3.97-19.67 6.23-29.44.62-2.66 2.1-5.17 3.49-7.58 2.12-3.68 4.53-3.86 7-.3 1.2 1.73 1.94 4.09 2.03 6.2.13 2.97-.31 6.03-.91 8.97-2.3 11.19-4.23 22.4-3.66 33.91.22 4.42 1.01 8.25 5.26 10.81 3.04 1.83 5.87 4.16 8.41 6.66 7.43 7.3 13.51 15.36 12.45 26.63-.62 6.57-1.74 13.09-2.17 19.67-.41 6.26-5.27 11.75-3.02 18.42.12.35-.14.89-.35 1.27-2.86 4.98-2.21 9.98-.34 15.09.84 2.3 1.31 4.74 1.94 7.11.99 3.71.35 7.22-1.99 10.16-2.05 2.58-3.75 4.9-1.61 8.24.32.51-.09 1.5-.2 2.27-1.65 11.7-5.56 23.09-4.93 35.12.04.77-.43 1.71-.95 2.34-2.71 3.25-5.52 6.45-8.29 9.66zm-3.56-149.35c-1.8 4.77-3.55 9.11-2.08 14 .33 1.1-.12 2.43-.12 3.65 0 2.08-.14 4.2.15 6.25.68 4.9.62 9.34-1.37 14.31-2.98 7.42-2.43 14.93 7.02 17.28 2.78.69 3.97-.17 4.02-3.02.21-11.52.59-23.05.48-34.57-.03-3.95-1.1-7.94-2.04-11.83-.71-2.99-2.93-4.88-6.06-6.07zm-18.1 39.95c.35-.23.69-.46 1.04-.7-.68-7.42-.85-14.93-2.2-22.22-1.11-6.02-1.83-11.8-.47-17.85.73-3.24.97-6.64.93-9.97-.05-4.38-2.17-7.58-6.72-9.11-2.77 6.4-3.04 13.01-3.2 19.72-.16 6.89-.59 13.82-1.58 20.64-.68 4.63.53 8.34 3.15 11.82 1.41 1.87 2.99 3.65 4.74 5.2 1.21 1.08 2.85 1.67 4.31 2.47z" fill="#010102"/><g fill="#fcfbfa"><path d="m385.2 377.6.6-.7c.6.4 1.3.9 1.9 1.5l-.6.7c-.8-.5-1.4-1-1.9-1.5zm.3 7.1c.6-1.4 1.1-2.9 1.5-4.5.3.1.6.3.9.4-.5 1.4-1 2.9-1.5 4.4zm.2-10.1.6-.6c.7.5 1.3 1.1 1.9 1.6l-.7.7c-.6-.6-1.2-1.2-1.8-1.7zm8.4-.8h.8v.9h1.8v.7h-1.8v1.8h-.8v-.3h-1.2v.9h3.3v2.6h-.8v-.4h-2.5c0 .3 0 .6-.1.8h3.4v.7h-3.5c0 .3-.1.6-.1.8h4v.7h-3.5c.7.9 1.9 1.3 3.6 1.5-.2.2-.4.5-.6.9-1.9-.3-3.2-1.1-3.8-2.3-.5 1.1-1.8 2-3.9 2.4-.2-.3-.4-.5-.6-.8 1.9-.4 3.1-.9 3.6-1.7h-3.2v-.7h3.5c.1-.2.1-.5.2-.8h-3.3v-.7h3.4c0-.2 0-.5 0-.8h-2.4v.3h-.8v-2.6h3.3v-.9h-1.2v.3h-.8v-1.8h-1.8v-.7h1.8v-.9h.8v.9h3.2zm-4.4 5.5h2.4c0-.3 0-.6 0-.9h-2.4zm1.2-3.1h3.2v-.8h-3.2zm4.4 2.2h-2.4v.9h2.5v-.9z"/><path d="m389.2 385.8h.9v1.5h1.9v-1.5h.9v1.5h2.7v6h1.1v.9h-11.3v-.9h1.1v-6h2.7zm.2 8.7.5.8c-1.2.6-2.5 1.3-4 1.9-.2-.3-.3-.6-.6-.8 1.6-.6 3-1.3 4.1-1.9zm-2-4.3h1.9v-2.1h-1.9zm0 3.1h1.9v-2.2h-1.9zm2.7-3.1h1.9v-2.1h-1.9zm0 3.1h1.9v-2.2h-1.9zm2.4 1.3c1.4.6 2.7 1.2 4.1 1.8l-.5.9c-1.5-.7-2.8-1.4-4.1-1.9zm2.2-6.5h-1.9v2.1h1.9zm-1.9 5.2h1.9v-2.2h-1.9z"/></g></svg>