<svg enable-background="new 0 0 400 400" viewBox="0 0 400 400" xmlns="http://www.w3.org/2000/svg"><path d="m281.37 359.65c-9.43 5.92-18.86 9.52-28.8 11.87-15.18 3.6-30.62 3.89-46.06 2.97-13.05-.78-26.05-2.29-39.07-3.6-1.96-.2-3.93-.85-5.77-1.6-12-4.9-24.05-9.7-35.91-14.92-6.67-2.93-13.29-3.23-20.3-1.95-12.43 2.28-11.62 2.25-15.97-9.44-3.27-8.79-2.17-17.88-.82-26.88.93-6.19 2.16-12.34 2.91-18.55.31-2.54-.32-5.2-.47-7.8-.16-2.71-.84-5.55-.27-8.11 2.25-10.09 3.27-20.21 3.22-30.58-.21-47.02.04-94.04-.18-141.06-.06-12.1 2.57-23.76 4.3-35.57 1.93-13.17 4.4-26.25 6.22-39.43.83-6.05 3.09-7.54 8.25-8.87 3.29-.85 6.41-1.15 9.83-.11 2.36.72 5.2.76 7.62.2 8.75-2.03 17.37-.63 26.02.38 6.56.76 13.11 1.56 19.66 2.32.66.08 1.4.25 2 .06 9.74-3 19.03.27 28.4 2.07 22.94 4.41 45.91 8.74 68.77 13.53 6.59 1.38 13.11 3.71 19.25 6.49 5.45 2.46 8.88 7.4 11.02 13.01.34.88.44 2.35-.06 2.95-4.25 5.05-5.45 11.16-6.45 17.37-2.54 15.78-5.31 31.52-7.55 47.34-.7 4.9-.22 10.01.08 15.01.73 11.95 1.67 23.89 2.54 35.83.06.78-.03 1.7.34 2.3 4.55 7.21 3.34 15.35 3.67 23.17.62 14.54 1.01 29.08 1.19 43.63.04 2.9-1.4 5.8-1.98 8.73-.53 2.7-1.16 5.45-1.16 8.18 0 5.93.72 11.87.49 17.78-.22 5.64-1.09 11.28-2 16.87-1.05 6.5-2.34 12.96-3.74 19.4-.87 4.03-2.42 5.61-6.58 7.29-1.15-4.81-2.47-9.49-3.35-14.25-1.08-5.82-2.34-11.7-2.51-17.58-.19-6.43.77-12.9 1.24-19.35.24-3.23.73-6.46.74-9.69.06-24.29.03-48.59.04-72.88 0-1.22-.31-2.79.3-3.61 3.19-4.23 1.1-8.54.69-12.89-.36-3.86-.59-7.79-.33-11.66.75-11.36 1.99-22.61.63-34.12-.99-8.34.37-16.96.7-25.45.52-13.08 1-26.16 1.63-39.24.11-2.36-.75-3.2-2.92-3.91-23.16-7.56-47.09-11.54-71.03-15.48-2.53-.42-5.04-.91-7.51-1.36-2.86 5.19 1.92 12.91 11.65 18.66 1.12-2.44 1.99-4.99 3.39-7.19.9-1.4 2.47-2.84 3.98-3.2.79-.19 2.5 1.75 3.14 3.05 2.4 4.87 2.57 10.13 2.12 15.43-.68 7.87.73 15.04 6.08 21.27 3.49 4.06 6.58 8.49 9.68 12.88 2.78 3.93 5.18 8.08 5.02 13.16-4.42.86-11.19-.84-17.16-4.32-3.09 5.21-4.1 11.02-3.1 16.68 3.43 19.27 1.37 38.59 1.45 57.9.01 2.69 1.85 5.33 2.61 8.07.41 1.47.46 3.09.41 4.63-.04 1.44-.29 2.91-.69 4.29-.86 2.96-1.39 6.18-2.94 8.75-2.29 3.79-3.24 7.57-3.2 11.99.15 16.45.08 32.91-.11 49.37-.06 5.02-.66 10.04-1.23 15.03-.56 4.94-3.46 8.06-8.57 9.7-2.47-6.69-3.75-13.52-3.4-20.56.07-1.36 1.84-2.64 2.96-4.14-4.93-3.24-4.96-8.12-4.2-13.29.68-4.64 1.29-9.29 1.8-13.95.17-1.54.34-3.28-.19-4.66-1.96-5.06-2.99-10.02.28-14.79-2.98-1.93-4.73-1.16-6.8.91-16.02 15.97-32.22 31.78-51.05 44.49-4.87 3.29-10.39 5.64-15.7 8.23-.98.48-2.39.07-3.98.07 6.83-7.04 13.03-13.47 19.27-19.86 7.73-7.91 15.53-15.77 23.2-23.74.8-.83 1.45-2.41 1.27-3.49-.75-4.5-1.72-8.98-2.87-13.4-.78-3.02-1.81-6.01-3.04-8.87-6.01-13.99-6.22-28.95-7.44-43.75-.96-11.6-1.81-23.21-2.89-34.79-.11-1.13-1.28-2.8-2.3-3.12-8.06-2.47-16.21-4.26-24.52-.84-3.61 1.49-7.27 2.83-11.62 3.79.57-1.13.99-2.37 1.73-3.38 5.07-6.94 11.69-12.14 18.42-17.42 12.02-9.43 25.04-16.7 39.45-21.64 3.8-1.3 7.41-3.17 11.24-4.37 2.33-.74 4.9-.99 7.36-.95 2.57.05 4.6-1.42 3.94-3.85-.7-2.54-1.46-5.43-3.17-7.27-7.68-8.29-11.55-18.18-13.48-29.08-1.07-6.05-1.18-6.22-7.32-7.14-12.48-1.88-25.02-3.43-37.5-5.36-3.34-.52-6.72-1.53-9.75-3-2.49-1.2-4.61-1.55-7.27-.85-9.22 2.41-9.11 2.34-10.09 11.92-2.06 20.03-4.44 40.03-6.34 60.08-1.05 11.02-1.41 22.11-2.06 33.17-.03.55.06 1.12.21 1.66 3.41 12.47 1.73 25.09 1.38 37.7-.24 8.81.52 17.63.62 26.46.1 9.4-.1 18.79-.07 28.19.05 17.57.42 35.14.19 52.71-.19 14.65-1.05 29.28-1.63 43.92-.24 6.11.36 7.03 6.39 8.32 2.17.47 4.44.74 6.65.65 6.35-.24 12.06 1.14 17.31 4.98 1.81 1.33 4.51 2.05 6.79 2.02 10.81-.16 20.91 3.52 31.32 5.44 8.46 1.56 16.82 3.63 25.25 5.37 1.24.26 2.75.27 3.87-.21 4.13-1.79 8.28-2.16 12.74-1.57 14.74 1.96 29.47.48 44.21-.39 3.83-.23 7.79.51 11.58 1.33 1.86.39 3.49 1.99 5.76 3.36zm-92.15-133.17c2.16-.99 3.74-1.38 4.9-2.31 4.17-3.34 8.19-6.87 12.28-10.31 4.83-4.05 8.14-8.76 7.22-15.52-.18-1.3.25-2.67.3-4.01.28-6.97 1.94-14.04-1.7-20.72-.41-.75-.04-1.97.08-2.96 1.23-10.56 2.39-21.12 3.77-31.66.44-3.34 0-6.35-1.24-9.44-.67-1.69-.91-3.7-.8-5.53.28-4.34.99-8.66 1.34-13 .26-3.18-1.23-5.72-3.94-7.26-.93-.53-2.66-.65-3.55-.13-9.86 5.73-19.66 11.57-29.39 17.53-.87.53-1.65 2.09-1.6 3.13.45 9.28 1.31 18.54 1.62 27.82.28 8.6 1.95 16.81 5.12 24.79.85 2.14 1.24 4.54 1.4 6.86.59 8.15.79 16.32 1.52 24.45.56 5.94 1.71 11.83 2.67 18.27z" fill="#010102"/><g fill="#fcfbfa"><path d="m385.2 377.6.6-.7c.6.4 1.3.9 1.9 1.5l-.6.7c-.8-.5-1.4-1-1.9-1.5zm.3 7.1c.6-1.4 1.1-2.9 1.5-4.5.3.1.6.3.9.4-.5 1.4-1 2.9-1.5 4.4zm.2-10.1.6-.6c.7.5 1.3 1.1 1.9 1.6l-.7.7c-.6-.6-1.2-1.2-1.8-1.7zm8.4-.8h.8v.9h1.8v.7h-1.8v1.8h-.8v-.3h-1.2v.9h3.3v2.6h-.8v-.4h-2.5c0 .3 0 .6-.1.8h3.4v.7h-3.5c0 .3-.1.6-.1.8h4v.7h-3.5c.7.9 1.9 1.3 3.6 1.5-.2.2-.4.5-.6.9-1.9-.3-3.2-1.1-3.8-2.3-.5 1.1-1.8 2-3.9 2.4-.2-.3-.4-.5-.6-.8 1.9-.4 3.1-.9 3.6-1.7h-3.2v-.7h3.5c.1-.2.1-.5.2-.8h-3.3v-.7h3.4c0-.2 0-.5 0-.8h-2.4v.3h-.8v-2.6h3.3v-.9h-1.2v.3h-.8v-1.8h-1.8v-.7h1.8v-.9h.8v.9h3.2zm-4.4 5.5h2.4c0-.3 0-.6 0-.9h-2.4zm1.2-3.1h3.2v-.8h-3.2zm4.4 2.2h-2.4v.9h2.5v-.9z"/><path d="m389.2 385.8h.9v1.5h1.9v-1.5h.9v1.5h2.7v6h1.1v.9h-11.3v-.9h1.1v-6h2.7zm.2 8.7.5.8c-1.2.6-2.5 1.3-4 1.9-.2-.3-.3-.6-.6-.8 1.6-.6 3-1.3 4.1-1.9zm-2-4.3h1.9v-2.1h-1.9zm0 3.1h1.9v-2.2h-1.9zm2.7-3.1h1.9v-2.1h-1.9zm0 3.1h1.9v-2.2h-1.9zm2.4 1.3c1.4.6 2.7 1.2 4.1 1.8l-.5.9c-1.5-.7-2.8-1.4-4.1-1.9zm2.2-6.5h-1.9v2.1h1.9zm-1.9 5.2h1.9v-2.2h-1.9z"/></g></svg>