<svg enable-background="new 0 0 400 400" viewBox="0 0 400 400" xmlns="http://www.w3.org/2000/svg"><g fill="#fbfafa"><path d="m37.59 393.81c-.92.31-1.52.05-2-.78-.7-1.2-1.52-2.34-2.47-3.78v4.59c-.55.03-.95.05-1.41.07-.03-.37-.06-.64-.06-.91 0-1.91 0-3.81 0-5.7 1.13-.41 1.77-.03 2.29.91.62 1.11 1.38 2.14 2.31 3.19v-4.2h1.35v6.61z"/><path d="m12.94 393.88v-6.75c1.9.19 3.93-.54 5.37 1.29.8 1.01.78 2.88.03 3.97-1.37 1.97-3.4 1.51-5.4 1.49m1.45-1.22c2.04.12 2.92-.58 2.89-2.21-.03-1.51-.98-2.19-2.89-2z"/><path d="m11.81 393.87h-5.49c.68-2.18 2.47-3.48 3.51-5.45h-3.08v-1.21h5.29c-.71 2.13-2.44 3.48-3.47 5.51.86 0 1.63.04 2.39-.01.79-.05 1.14.21.85 1.16"/><path d="m39.33 393.86v-6.61h3.7v1.07h-2.22v1.52c.68.04 1.34.09 2.07.13v1.07c-.72.05-1.38.09-2.1.14v1.48h2.4v1.19h-3.85z"/><path d="m27.71 388.56c-1.15-.3-2.46-.61-3.1.64-.37.73-.41 1.93-.06 2.67.63 1.35 1.99.93 3.17.68.35.94-.01 1.32-.93 1.46-1.62.25-3.05-.27-3.76-1.48-.73-1.24-.6-3.03.31-4.17.88-1.11 2.71-1.7 4-1.16.32.13.44.74.65 1.12-.1.08-.19.16-.28.24"/><path d="m49.15 387.24v1.07c-.59.02-1.17.05-1.87.08v5.44h-1.48v-5.44h-1.85c-.05-.4-.08-.73-.13-1.15z"/><path d="m20.06 387.21h1.33v6.62h-1.33z"/><path d="m30.68 393.25c-.49.38-.8.79-1.05.76-.32-.05-.6-.45-.9-.7.26-.24.51-.64.8-.67.29-.04.62.3 1.15.61"/></g><path d="m132.61 345.85c4.41.6 8.82 1.17 13.21 1.84.55.08 1.26.65 1.47 1.16 1.11 2.68 3.33 3.42 5.42 3.6 7.31-17.74 7.72-36.28 6.79-54.81 3.42-.78 4.85.7 7.14 6.72 2.05 5.43 1.35 9.27-2.35 11.25 2.96 1.12 2.89 3.41 2.77 5.91-.37 7.82-.58 15.66-.83 23.49-.03 1.09.09 2.18.14 3.17 7.23.85 14.23 1.44 21.16 2.56 4.34.7 8.49 2.73 12.83 3.19 4.23.45 8.61-.67 12.9-.51 4.11.15 8.29.71 12.26 1.75 4.36 1.14 8.52 3.03 12.89 4.63 3.71-4.18 3.22-9.2-1.45-12.34-3.33-2.24-3.89-4.63-2.46-6.84-.69-3.81-1.79-6.83-1.66-9.79.23-5.16 1.3-10.27 1.87-15.42.23-2.07.96-4.16-2.07-5.49-3.36-1.47-1.36-4.32-.07-7.77-3.12.76-5.42 1.5-7.78 1.86-2.77.42-5.89 1.37-8.35.56-7.04-2.31-14.14-3.05-21.46-2.79-1.97.07-4.02-.27-5.92-.82-9.13-2.62-18.4-4.9-27.26-8.24-6.72-2.54-13.11-6.17-19.24-9.97-2.45-1.52-4.22-4.6-5.53-7.33-1.63-3.39-2.48-7.15-3.66-10.76.33.11.66.22 1 .34.74-1.4 1.55-2.76 2.18-4.21.13-.3-.42-1.27-.72-1.3-3.33-.33-2.39-2.81-2.52-4.78-.24-3.67-.56-7.33-.75-11-.05-1.07.05-2.23.42-3.23 1.44-3.87 2.93-7.73 4.58-11.52 1.93-4.41 1.76-8.66-.42-12.92-1.61-3.15.15-6.45 3.51-6.94 1.07-.16 2.14-.59 3.12-1.08 6.5-3.25 13.03-6.45 19.43-9.88 4.04-2.17 8.2-3.43 12.8-3.37 1.53.02 3.14-.24 4.6-.73 4.35-1.46 5.77-3.98 5.13-8.49-1.19-8.41-2.36-16.81-3.52-25.22-.12-.88-.47-2.03-.08-2.61 2.24-3.3.51-6.37-.13-9.59-.74-3.69-1.07-7.46-1.61-11.19-.25-1.76-.53-3.53-.89-5.27-.7-3.38-3.08-4.69-6.2-4.1-4.82.91-9.27-.28-13.84-1.43-2.52-.63-5.24-.38-7.87-.63-4.41-.43-8.81-.96-13.22-1.41-1.96-.2-3.94-.23-5.89-.48-.8-.1-1.65-.46-2.29-.94-.69-.53-1.16-1.35-1.72-2.04-3.81-4.68-7.61-8.63-7.44-15.98.21-9.24-2.47-18.55-3.91-27.84-.07-.44-.27-.89-.23-1.32.92-8.66-.53-17.12-1.99-25.6-.2-1.13.46-3.13 1.31-3.55 1.05-.52 2.73.1 4.1.4.62.13 1.14.69 1.71 1.05 6.02 3.77 6.19 4.4 5.16 11.61-.67 4.74-1.1 9.52-1.41 14.29-.3 4.64.6 9.1 2.85 13.25.36.67.85 1.57.68 2.2-2.07 7.64 3.24 13.82 4.14 20.88.17 1.31 2.06 2.89 3.51 3.47 7.88 3.18 16.15 4.26 24.63 4.09 2.98-.06 6.01.17 8.94.67 7.5 1.28 9.27-.47 9.86-7.39.37-4.31-.52-8.7-.54-13.06-.08-17.46-.03-34.92-.05-52.39 0-4.11-.25-8.23-.01-12.32.15-2.68.97-5.33 1.48-7.99.35-.02.69-.05 1.04-.07.98 1.16 2.66 2.23 2.82 3.5.85 6.4 5.27 12.34 2.62 19.2-.15.39-.36.95-.2 1.24 3.4 6.18 3.15 12.76 2.4 19.46-.11.98.78 2.08 1.25 3.1.68 1.46 1.93 2.87 2 4.35.25 4.65.06 9.32.05 13.99-.02 8.44.42 16.79 2.61 25.04.89 3.34 2.6 4.7 5.73 4.83 1.23.05 2.53.18 3.68-.15 7.37-2.13 14.68-.61 21.93.49 3.11.47 4.5-.58 4.92-3.24.99-6.16 1.94-12.34 2.59-18.55.38-3.66.13-7.38.16-11.07 0-.56.17-1.21-.06-1.66-3.18-6.29.67-13.01-1.23-19.46-.64-2.16.53-4.81.64-7.25.09-2.19-.07-4.4-.27-6.58-.27-2.89-.93-5.77-.97-8.66-.02-1.71.86-3.42 1.37-5.28 1.69 1.6 2.76 2.76 3.97 3.74 3.08 2.48 3.7 6.04 4 9.57.3 3.56-.09 7.17.13 10.74.15 2.39.84 4.74 1.28 7.11.14.75.32 1.5.38 2.26.3 3.86.63 7.71.82 11.57.16 3.3.1 6.62.2 9.93.14 4.68.76 9.39.38 14.02-.55 6.75-1.8 13.44-2.77 20.16-.13.88-.35 1.75-.52 2.63-.38 1.94-.53 3.94-3.14 4.42-2.34.43-4.55.56-6.07-1.55-2.1-2.9-5.29-2.78-8.19-2.97-8.37-.55-16.75-.87-25.14-1.07-.88-.02-2.53 1.35-2.57 2.14-.15 2.85.25 5.73.42 8.6.3 4.79 1.88 9.97.57 14.27-2 6.59.2 12.52.41 18.74.13 3.67.25 7.37-.02 11.03-.5 6.87.51 9.63 6.89 11.55 15.52 4.68 27.72 14.77 40.4 24.02 4.62 3.37 8.46 7.93 12.18 12.36 3.05 3.62 2.71 6.24-.44 9.81-1.34 1.52-1.31 2.88-1.16 4.79.29 3.61-.15 7.28-.26 10.92-.11 3.54-2 7.04.57 10.67.73 1.04-.8 3.5-.92 5.34-.31 5.02-.5 10.06-.58 15.09-.03 1.92-.74 3.06-2.14 4.46-3.24 3.24-6.64 6.05-10.53 8.52-1.68 1.07-2.87 4.53-2.61 6.71.93 7.97 2.74 15.84 3.85 23.8.72 5.17.82 10.42 1.19 15.64.04.55-.25 1.21-.03 1.65 1.71 3.44 3.27 6.98 5.36 10.18 1.43 2.19 3.74 3.55 6.66 2.43.1-.04.22-.09.32-.07 6.31 1.21 12.7 2.11 18.89 3.79 2.75.75 2.57 3.33.53 5.39-3.21 3.23-6.3 3.68-10.95 2.5-7.2-1.83-14.8-2.22-22.27-2.76-3.59-.26-5.77-1.08-5.5-5.1.03-.5-.3-1.02-.73-2.37-2.98 7.71-8.12 6.02-13.79 4.76-6.93-1.54-14.13-1.88-21.19-2.89-3.3-.47-6.55-1.28-9.82-1.97-14.13-2.97-28.48-2.48-42.78-2.79-2.23-.05-4.59-1.01-6.6-2.08-2.4-1.28-4.75-2.88-6.66-4.79-1.81-1.81-3.04-4.21-4.52-6.35.23-.37.5-.71.77-1.04zm113.72-114.39c-1.49 0-2.23.12-2.9-.03-1.51-.33-3.64-.32-4.36-1.3-3.47-4.72-8.62-7-13.33-9.93-19.22-11.96-39.81-15.95-61.99-10.69-1.36.32-2.65 1.07-3.9 1.75-3.31 1.79-6.43 4.06-9.92 5.34-2.34.86-3 1.78-3.18 4.14-.2 2.54-1.08 5.06-1.93 7.5-.7 2.02-2.55 3.9-2.58 5.86-.13 8.8-.27 17.64.51 26.39.78 8.71 6.57 14.04 14.08 18.07 10.45 5.62 22.14 7 33.23 10.4 8.48 2.6 17.21 3.97 26.14 3.35 2.55-.18 5.4-1.21 7.6-.42 5.43 1.96 10.29.46 15.35-1.02 3.18-.93 5.96-1.75 4.96-6.12-.3-1.31.53-2.83.64-4.27.42-5.2.92-10.4 1.09-15.6.22-6.46.2-12.92.16-19.38-.01-1.02-.39-2.23-1-3.03-3.13-4.04-3.01-6.53 1.33-11.01zm-69.03 55.33c.44 2.55-1.85 5.19 1.29 6.69.67.32 2.42-.43 2.92-1.18 1-1.51-1.07-4.35-4.21-5.51z" fill="#010000"/></svg>