<svg enable-background="new 0 0 400 400" viewBox="0 0 400 400" xmlns="http://www.w3.org/2000/svg"><g fill="#010102"><path d="m131.15 268.86c-.31-7.03-.91-14.06-.85-21.08.09-9.84-1.63-19.36-4.01-28.81-.87-3.45-1.05-6.75.16-10.17 2.34-6.66 2.39-13.56 2.1-20.53-.37-8.72-.6-17.45-.56-26.18.03-7.56-.92-14.9-2.91-22.19-.58-2.13-.48-4.65.03-6.83 2.36-10 4.98-19.95 7.51-29.91.19-.76.16-1.78.65-2.21 6.23-5.47 7.63-13.49 10.8-20.54 1.47-3.27 3.34-5.87 6.12-8.12 1.91-1.55 3.82-3.61 4.7-5.85 5.03-12.71 13.17-22.9 23.93-31.2 3.71-2.86 7.01-6.25 11.23-10.06 6.45 5.73 13.21 11.2 19.33 17.3 12.93 12.89 22.69 28.22 32.16 43.69 4.54 7.42 8.84 15.05 12.49 22.93 4.41 9.52 4.85 19.95 4.76 30.26-.15 17.44 3.03 34.51 5.21 51.69 3.43 27.01 5.3 54.11 5.05 81.35-.01.65-.11 1.29-.15 1.84-.38.2-.56.37-.76.38-7.05.43-7.04.43-8.61-6.34-1.92-8.27-4.06-16.5-5.68-24.84-.86-4.46-.6-9.13-1.21-13.65-2.37-17.61-5.11-35.17-7.2-52.81-.59-4.96.68-10.13.96-15.22.1-1.83.31-3.91-.38-5.5-5.25-11.97-6.49-24.56-5.98-37.41.4-10.09-3.11-18.48-9.89-25.87-9.3-10.14-18.17-20.68-27.51-30.79-2.76-2.99-6.35-5.26-9.77-7.54-.79-.53-2.95-.24-3.63.47-12.69 13.41-25.44 26.78-35.17 42.64-2.93 4.77-4.31 9.53-4.15 15.38.72 26.28.84 52.59 1.11 78.88.01 1.41-.23 2.95-.8 4.23-5.45 12.44-6.55 25.7-7.41 38.98-.71 10.86-2.71 21.29-8.76 30.59-.72 1.1-1.48 2.18-2.23 3.26-.22-.04-.45-.13-.68-.22z"/><path d="m135.89 296.03c2.83-1.73 4.5-1.06 6.62 1.35 5.76 6.54 11.87 12.78 18.07 18.9 2.16 2.13 5 3.56 7.9 5.56 1-2.95 1.98-5.2 2.51-7.56.66-2.96 2.52-4.63 5.15-5.66 2.08-.81 4.22-1.46 6.31-2.24 5.01-1.89 8.24-6.57 8.07-11.92-.55-17.34-1.17-34.67-1.73-52.01-.08-2.33-.01-4.67-.01-7.3 3.21.56 5.36 2.57 6.37 5.29 1.27 3.41 2.2 7.03 2.69 10.64.74 5.39 1.52 10.74 5.36 14.87 1.92 2.07 4.43 3.6 6.82 5.48 8.94-11.09 12.77-25.89 27.3-31.54 2.22 2.91 2.47 6.16 1.2 9.23-2.36 5.69-3.79 12-9.35 15.88-.86.6-1.42 1.72-1.94 2.69-5.37 10.03-10.77 20.04-15.99 30.15-.86 1.66-1.43 3.79-1.23 5.6 1.78 16.12 3.74 32.22 5.71 48.32.77 6.32-.38 12.28-3.24 17.88-2.8 5.49-9.64 8.07-15.23 5.86-.87-.34-1.6-1.18-2.24-1.92-3.28-3.82-6.36-7.82-9.79-11.5-4.72-5.06-10.1-9.07-17.27-10.17-4.52-.7-8.97-1.86-13.43-2.9-5.27-1.22-8.26-6.82-5.86-11.67 3.07-6.18 2.52-11.83-1.31-17.37-2.16-3.13-4.24-6.31-6.45-9.4-3.09-4.29-4.76-9.05-5.01-14.54zm60.42 47.7c-.92-3.24-1.66-6.14-2.57-8.99-.74-2.35-2.4-3.48-5.17-3.4.72 5.03 1.38 9.71 2.09 14.65 2.06-.82 3.8-1.51 5.65-2.26z"/><path d="m211.74 202.16c-1.39-.98-2.54-1.87-3.77-2.64-3.66-2.28-7.46-2.77-11.47-.88-4.47 2.1-9.16 2.96-13.99 1.59-1.23-.35-2.64-1.23-3.3-2.28-4.88-7.74-9.63-15.56-14.3-23.43-.53-.89-.85-2.5-.4-3.27 5.58-9.6 5.8-20.2 5.97-30.82.02-1.21.19-2.41.31-3.91 9.48.85 18.75 1.29 27.88 2.68 3.69.56 7.17 3.01 10.55 4.94 2.79 1.58 5.57 1.95 8.67 1.54 2.86-.38 5.76-.44 9.14-.67.11 1.98.39 3.71.26 5.41-1.02 13.04-2.02 26.07-3.31 39.08-.18 1.84-1.53 3.89-2.93 5.21-2.84 2.66-6.08 4.9-9.31 7.45zm-1.19-35.37c.07-5.45-1.48-7.51-6.71-8.8-2.93-.72-5.99-1.08-8.77-2.17-4.77-1.86-8.79-.8-12.88 1.87-1.65 1.07-2.36 2.24-1.66 3.77 1.8 3.92 3.74 7.78 5.88 11.52 1.68 2.93 4.34 3.69 7.72 2.96 3.15-.69 6.42-.87 9.64-1.24 6.26-.72 6.44-.91 6.78-7.23 0-.23-.01-.45 0-.68z"/></g><path d="m385.2 377.6.6-.7c.6.4 1.3.9 1.9 1.5l-.6.7c-.8-.5-1.4-1-1.9-1.5zm.3 7.1c.6-1.4 1.1-2.9 1.5-4.5.3.1.6.3.9.4-.5 1.4-1 2.9-1.5 4.4zm.2-10.1.6-.6c.7.5 1.3 1.1 1.9 1.6l-.7.7c-.6-.6-1.2-1.2-1.8-1.7zm8.4-.8h.8v.9h1.8v.7h-1.8v1.8h-.8v-.3h-1.2v.9h3.3v2.6h-.8v-.4h-2.5c0 .3 0 .6-.1.8h3.4v.7h-3.5c0 .3-.1.6-.1.8h4v.7h-3.5c.7.9 1.9 1.3 3.6 1.5-.2.2-.4.5-.6.9-1.9-.3-3.2-1.1-3.8-2.3-.5 1.1-1.8 2-3.9 2.4-.2-.3-.4-.5-.6-.8 1.9-.4 3.1-.9 3.6-1.7h-3.2v-.7h3.5c.1-.2.1-.5.2-.8h-3.3v-.7h3.4c0-.2 0-.5 0-.8h-2.4v.3h-.8v-2.6h3.3v-.9h-1.2v.3h-.8v-1.8h-1.8v-.7h1.8v-.9h.8v.9h3.2zm-4.4 5.5h2.4c0-.3 0-.6 0-.9h-2.4zm1.2-3.1h3.2v-.8h-3.2zm4.4 2.2h-2.4v.9h2.5v-.9z" fill="#fcfbfa"/><path d="m389.2 385.8h.9v1.5h1.9v-1.5h.9v1.5h2.7v6h1.1v.9h-11.3v-.9h1.1v-6h2.7zm.2 8.7.5.8c-1.2.6-2.5 1.3-4 1.9-.2-.3-.3-.6-.6-.8 1.6-.6 3-1.3 4.1-1.9zm-2-4.3h1.9v-2.1h-1.9zm0 3.1h1.9v-2.2h-1.9zm2.7-3.1h1.9v-2.1h-1.9zm0 3.1h1.9v-2.2h-1.9zm2.4 1.3c1.4.6 2.7 1.2 4.1 1.8l-.5.9c-1.5-.7-2.8-1.4-4.1-1.9zm2.2-6.5h-1.9v2.1h1.9zm-1.9 5.2h1.9v-2.2h-1.9z" fill="#fcfbfa"/></svg>