<svg enable-background="new 0 0 400 400" viewBox="0 0 400 400" xmlns="http://www.w3.org/2000/svg"><path d="m206.15 375.47c-7.05-10.81-10.4-22.47-10.71-34.83-.25-9.71.6-19.44.91-29.16.11-3.47.16-6.94.07-10.4-.95-37.38-1.81-74.77-2.99-112.14-.27-8.47-1.83-16.9-2.52-25.37-.85-10.52-.93-21.04 2.31-31.27.83-2.61 2-5.11 3.3-8.37 2.37 4.6 4.32 8.44 6.32 12.27 2.2 4.2 4.75 5.59 9.46 4.62 2.92-.6 5.82-1.57 8.55-2.78 8.05-3.57 15.25-8.27 21-15.18 3.13-3.76 6.94-6.98 10.61-10.27 5.82-5.21 12.73-7.38 20.46-6.32 1.51.21 3.27 1.29 4.2 2.52 11.61 15.42 23.88 30.22 39.09 42.29 2 1.59 4.26 2.88 6.45 4.23 1.03.64 2.16 1.1 3.9 1.96.99-3.45 2.17-6.54 2.75-9.74 3.29-18.11 5-36.34 4.36-54.78-.16-4.62-1.58-7.62-6-9.97-18.34-9.76-37.85-15.17-58.41-17.54-17.77-2.04-35.48-4.65-53.21-7.1-5.45-.75-5.43-.89-7.57 4.23-3.55 8.45-4.01 17.35-4 26.35 0 6.02.06 12.11-.7 18.06-.74 5.81-3.65 10.51-10.21 12.18-1.94-7.5-1.55-14.69.65-21.87 1.11-3.63 1.91-7.35 2.94-11.01 1.92-6.81.67-13.29-2.19-19.51-1.44-3.14-1.33-5.49 1.48-7.87 2.11-1.78 3.87-4.06 5.49-6.33 6.85-9.61 16.23-11.96 27.23-9.6 2.83.61 5.65 1.4 8.36 2.44 8.16 3.12 16.55 4.87 25.28 4.05 15.9-1.5 30.87 1.15 44.69 9.37 6.52 3.88 13.78 4.21 21.04 4.67 3.01.19 6.14 0 9 .78 3.02.82 5.98 2.3 8.61 4.03 1.89 1.24 2.66 3.41 1.66 5.93-4.56 11.5-3.63 22.84 1.05 34.09.94 2.26 1.17 4.8 2.1 7.06 4.38 10.6 3.66 21.67 3.21 32.73-2.02 49.79-3.11 99.61-2.54 149.45.02 1.62.43 3.33 1.03 4.84 2.51 6.34 5.1 12.65 7.79 18.92.72 1.69.73 2.9-.81 4.07-.97.74-1.68 1.85-2.68 2.53-8.04 5.47-10.34 13.65-11.45 22.71-.63 5.15-1.8 10.43-3.86 15.16-2.36 5.41-6.01 8.83-13.36 8.5-24.58-1.1-49.21-1.14-73.81-1.76-3.83-.1-7.65-1.1-11.46-1.79-1.31-.24-2.56-.79-3.84-1.18-4.8-1.45-9.75-4.38-14.36-3.92-4.48.45-8.61 4.39-12.9 6.79-1.84 1-3.69 2.05-5.77 3.23zm8.02-164.38c2.75-9.19 8.46-15.34 16.13-19.91 6.43-3.84 13.5-6.95 19.08-11.77 6.5-5.62 12.8-6.97 20.58-3.97 1.73.67 2.94 1.22 3.35 3.14 1.08 5.06 3.49 9.52 7.38 12.87 6.59 5.68 13.46 11.02 20.17 16.56 6.1 5.04 12.67 9.68 18.02 15.43 3.43 3.7 6.33 5.16 11.12 3.93 2.09-.54 2.65-1.08 2.55-3.23-.55-11.18-1.08-22.36-1.23-33.55-.07-5.28-1.99-9.45-5.97-12.52-2.98-2.29-6.33-4.21-9.76-5.78-6.4-2.93-12.98-5.45-19.45-8.2-7.89-3.35-13.18-9.44-15.86-17.29-2.55-7.47-7.69-10.77-14.84-12.32-5.34-1.16-10.07-.64-15.05 2.09-13.43 7.36-27.03 14.42-40.82 21.08-4.24 2.05-5.07 4.41-4.75 8.7 1.06 14.17 1.83 28.33-1.37 42.43-1.32 5.82-2.07 11.73-1.21 17.93 1.78 12.91 4.98 25.77 3.05 39-.37 2.54-.49 5.13-.63 7.7-.39 7.22 2.89 12.86 7.65 18.03.7-.55 1.24-.92 1.74-1.36 14.61-13.05 29.34-25.98 43.74-39.25 4.33-3.99 9.05-5.11 14.44-4.39 14.22 1.9 25.39 9.85 36.33 18.37 3.73 2.9 7.98 5.21 12.22 7.35 4.07 2.05 7.61.28 10.57-2.71 2.47-2.49.58-5.09-.22-7.44-4.07-11.99-12.46-20.85-21.85-28.77-14.72-12.4-29.65-24.57-44.57-36.73-1.05-.85-2.8-1.29-4.18-1.2-7.56.48-12.38 5.64-17.4 10.46-1 .96-2.24 2.13-3.49 2.3-8.34 1.11-16.67 1.99-25.47 3.02zm117.44 122.43c-.19-.06-.38-.11-.58-.17-.29-3-.37-6.04-.92-8.99-1.99-10.71-5.44-20.6-14.02-28.2-5.49-4.86-10.32-10.49-15.33-15.88-8.67-9.33-18.93-15.54-31.86-16.81-2.04-.2-3.23.38-4.42 2.06-7.23 10.23-14.55 20.4-21.94 30.52-1.02 1.4-2.41 2.66-3.88 3.56-7.24 4.44-14.47 8.93-21.91 13.02-3.36 1.85-5.14 4.14-5.62 7.93-.55 4.43-1.7 8.77-2.38 13.19-1.01 6.53-.59 12.91 2.42 18.98.79 1.6 1.68 2.24 3.52 2.35 17.86 1 35.72 1.99 53.57 3.25 11.36.8 22.68 2.18 34.03 3.05 5.54.42 11.15.67 16.67.2 4.4-.37 7.94-2.63 8.8-7.73 1.13-6.8 2.55-13.55 3.85-20.33z" fill="#010102"/><path d="m84.29 25.65c1.32 1.2 2.21 1.99 3.08 2.8 11 10.2 22.17 20.23 32.93 30.66 7.42 7.19 16.14 12.44 24.93 17.47 5.67 3.25 7.59 6.83 6.72 13.28-1.02 7.62-.67 15.42-1.16 23.13-.11 1.72-.88 3.67-1.98 5-13.03 15.74-24.09 32.6-29.2 52.66-1.79 7.02-2.69 14.28-3.64 21.48-.8 6.08-2.22 11.76-6.22 16.65-.9 1.1-1.48 3.25-1.05 4.52 4.14 12.26 4.41 24.84 3.11 37.47-1.42 13.89.88 27.43 3.01 41.02 1.91 12.15 4.24 24.27 5.51 36.49.85 8.18.16 16.53.16 25.03-2.54 0-5.05 0-7.88 0-1.98-8.81-4-17.72-5.97-26.64-4.15-18.78-8.57-37.5-12.24-56.38-1.17-6.04-.5-12.47-.4-18.72.27-16.56.54-33.13 1.16-49.69.16-4.25 1.39-8.52 2.57-12.66 1.53-5.37 5.06-10.68 4.84-15.89-.22-5.19-4.02-10.22-6.25-15.33-.31-.7-.59-1.42-1.05-2.5 4.19-.46 8.15-.73 12.04-1.41 1.48-.26 3.25-1.12 4.11-2.28 2.17-2.96 4.17-6.11 5.75-9.42 5.96-12.55 10.93-25.46 13.87-39.09.87-4.04.37-7.26-3.04-10.13-6.24-5.25-11.88-11.27-18.38-16.16-3.6-2.71-8.37-3.93-12.72-5.54-2.09-.77-3.27.27-4.04 2.6-7.82 23.55-18.45 45.82-31.43 66.93-6.14 9.98-13.56 18.93-23.56 25.38-1.76 1.14-3.66 2.06-6.38 3.58 1.63-6.67 2.44-12.73 4.59-18.27 10.33-26.62 23.68-51.84 37-77.04 4.12-7.78 4.74-16.22 6.52-24.47 1.71-7.9 3.06-15.93 4.69-24.53z" fill="#010102"/><g fill="#fcfbfa"><path d="m385.2 377.6.6-.7c.6.4 1.3.9 1.9 1.5l-.6.7c-.8-.5-1.4-1-1.9-1.5zm.3 7.1c.6-1.4 1.1-2.9 1.5-4.5.3.1.6.3.9.4-.5 1.4-1 2.9-1.5 4.4zm.2-10.1.6-.6c.7.5 1.3 1.1 1.9 1.6l-.7.7c-.6-.6-1.2-1.2-1.8-1.7zm8.4-.8h.8v.9h1.8v.7h-1.8v1.8h-.8v-.3h-1.2v.9h3.3v2.6h-.8v-.4h-2.5c0 .3 0 .6-.1.8h3.4v.7h-3.5c0 .3-.1.6-.1.8h4v.7h-3.5c.7.9 1.9 1.3 3.6 1.5-.2.2-.4.5-.6.9-1.9-.3-3.2-1.1-3.8-2.3-.5 1.1-1.8 2-3.9 2.4-.2-.3-.4-.5-.6-.8 1.9-.4 3.1-.9 3.6-1.7h-3.2v-.7h3.5c.1-.2.1-.5.2-.8h-3.3v-.7h3.4c0-.2 0-.5 0-.8h-2.4v.3h-.8v-2.6h3.3v-.9h-1.2v.3h-.8v-1.8h-1.8v-.7h1.8v-.9h.8v.9h3.2zm-4.4 5.5h2.4c0-.3 0-.6 0-.9h-2.4zm1.2-3.1h3.2v-.8h-3.2zm4.4 2.2h-2.4v.9h2.5v-.9z"/><path d="m389.2 385.8h.9v1.5h1.9v-1.5h.9v1.5h2.7v6h1.1v.9h-11.3v-.9h1.1v-6h2.7zm.2 8.7.5.8c-1.2.6-2.5 1.3-4 1.9-.2-.3-.3-.6-.6-.8 1.6-.6 3-1.3 4.1-1.9zm-2-4.3h1.9v-2.1h-1.9zm0 3.1h1.9v-2.2h-1.9zm2.7-3.1h1.9v-2.1h-1.9zm0 3.1h1.9v-2.2h-1.9zm2.4 1.3c1.4.6 2.7 1.2 4.1 1.8l-.5.9c-1.5-.7-2.8-1.4-4.1-1.9zm2.2-6.5h-1.9v2.1h1.9zm-1.9 5.2h1.9v-2.2h-1.9z"/></g></svg>