<svg enable-background="new 0 0 400 400" viewBox="0 0 400 400" xmlns="http://www.w3.org/2000/svg"><g fill="#010100"><path d="m199.83 211.95c4.2 1.33 6.51 4.42 8.35 7.9 3.78 7.13 5.47 14.92 6.21 22.82 1.35 14.46 2.27 28.96 3.31 43.45.22 3.1.31 6.31-4.64 6.16 1.11 3.36 2.26 6.24 2.98 9.23.67 2.77 1.39 5.68 1.22 8.48-1.21 20.31-2.65 40.61-3.97 60.91-.11 1.69-.49 2.85-2.47 2.72-.22-.01-.45.03-.67.07-8.6 1.23-9.05.98-12.98-6.84-3.71-7.39-5.05-15.23-4.51-23.41.7-10.48 1.61-20.96 2.22-31.45.15-2.6-.42-5.26-.88-7.85-.29-1.63-.82-3.27-1.52-4.78-3.11-6.68-3.37-13.41-1.15-20.42.51-1.62.18-3.76-.42-5.43-1.84-5.14-5.44-10.11-5.64-15.25-.2-5.15 2.85-10.42 4.51-15.63 2.95-9.25 5.93-18.5 8.91-27.74.31-.96.72-1.85 1.14-2.94z"/><path d="m282.81 263.58c-.62.1-.72.15-.82.13-9.21-2.18-8.99-2.2-9.59-11.57-1.31-20.64-2.86-41.26-4.32-61.89-1.42-20.15-1.65-40.22 4.44-59.81.82-2.65 1.93-5.22 3.04-8.18 6.12 2.57 9.75 7.02 10.96 13.12 1.13 5.68 1.5 11.51 2.27 17.26 1.34 10.07 2.76 20.13 4.08 30.21 3.33 25.32 3.67 50.57-1.61 75.72-.7 3.35-2.66 2.49-4.66 2.33-1.48-5.81-2.09-6.11-8.89-4.17 1.7 2.28 3.31 4.44 5.1 6.85z"/><path d="m203.93 126.28c-5.69 1.93-8.74-.67-11.34-5.12-6.05-10.32-8.61-21.53-8.93-33.3-.49-18.05.94-35.93 4.72-53.64.87-4.07 3.68-6.3 6.36-8.68 2.02-1.8 8.13 1.22 9.54 4.78 1.05 2.67 1.76 5.56 2.11 8.41 1.84 15.41 4.32 30.76 3.87 46.39-.38 13.13-1.67 26.08-5.52 38.69-.3.95-.62 1.88-.81 2.47z"/><path d="m118.9 244.34c-5.82.72-5.85.73-8.4-4.2-6.36-12.34-9.14-25.65-9.91-39.34-1.07-19.11-.33-38.17 2.4-57.17.71-4.95 3.51-7.65 6.84-10.74 5.16 3.14 8.54 7.85 10.02 13.34 2.08 7.71 4.15 15.65 4.46 23.56.97 24.61-.49 49.14-5.07 73.41-.05.31-.18.62-.34 1.14z"/></g><path d="m6.4 11.7c-1-.8-1.9-1.6-2.9-2.3l.6-.7c.9.7 1.9 1.4 2.9 2.2zm-2.1 8.3c.7-2.1 1.4-4.2 2-6.4.2.1.6.3 1 .4-.7 2.3-1.3 4.4-1.9 6.4zm3-12.8c-1.1-.9-2.1-1.7-2.9-2.4l.6-.7c1 .8 2 1.5 3 2.4zm1.4-1.3v-.9h10.2v.9c-.9 4.2-2.3 7.3-4.1 9.4 1.3 1.4 3.2 2.7 5.7 4-.2.2-.4.5-.7.9-2.5-1.4-4.4-2.7-5.7-4.2-1.4 1.5-3.5 3-6.1 4.4 0 0 0 0-.1-.1-.3-.4-.5-.7-.7-.8 2.7-1.3 4.7-2.8 6.2-4.2-1.8-2.2-3-5.3-3.7-9.4zm9.2 0h-7.1c.6 3.8 1.7 6.7 3.4 8.7 1.7-2 2.9-4.8 3.7-8.7z" fill="#fafbfa"/><path d="m31.6 3.6h.9v2.3h4.1v9.1h1.7v.9h-16.6v-.9h1.7v-9.1h4.1v-2.3h.9v2.3h3.1v-2.3zm-4 13.3.6.8c-1.9.9-3.8 1.9-5.8 2.8-.2-.3-.3-.6-.5-.9 2-.9 3.9-1.8 5.7-2.7zm-3.2-10.1v3.7h3.1v-3.7zm0 4.5v3.7h3.1v-3.7zm4.1-4.5v3.7h3.1v-3.7zm0 4.5v3.7h3.1v-3.7zm9.1 9.1c-2.1-1.1-4.1-2-5.8-2.7l.5-.8c2.2.9 4.1 1.8 5.8 2.6zm-1.9-13.6h-3.1v3.7h3.1zm-3.2 4.5v3.7h3.1v-3.7z" fill="#fafbfa"/></svg>