<svg enable-background="new 0 0 400 400" viewBox="0 0 400 400" xmlns="http://www.w3.org/2000/svg"><path d="m374.8 390.4.4-.4c.7.5 1.3 1 1.8 1.4l-.5.5c-.5-.6-1.1-1.1-1.7-1.5zm1 7.3-.6-.3c.5-1.4 1.1-2.8 1.5-4.3.2.1.4.2.6.3-.5 1.3-1 2.8-1.5 4.3zm-.4-10.3.4-.4c.4.3 1 .8 1.7 1.4l-.5.5c-.4-.5-1-1-1.6-1.5zm2.5.3h1.7v-1h.6v1h3.5v-1h.6v1h1.8v.5h-1.8v1.4h-2v1h3.2v2h-3.2v.9h3.3v.5h-3.4c0 .3-.1.6-.1.9h4v.5h-3.7c.7.9 1.9 1.5 3.8 1.7-.1.2-.2.4-.3.6-2.1-.4-3.5-1.1-4-2.1-.4 1-1.8 1.7-4 2.2-.1-.2-.2-.4-.3-.6 2.1-.4 3.4-1 3.8-1.8h-3.4v-.5h3.6c.1-.3.1-.6.2-.9h-3.3v-.5h3.4c0-.3 0-.6 0-.9h-3.2v-2h3.3v-1h-2.1v-1.4h-1.7v-.5zm1.1 3.5v1h2.7c0-.3 0-.4 0-.4 0-.1 0-.2 0-.2 0-.1 0-.2 0-.3h-2.7zm1.2-3v.9h3.5v-.9zm4.7 3h-2.6v.6.4h2.6z" fill="#fbfcfa"/><path d="m393.6 386.7h.6v1.5h2.7v6.1h1.1v.6h-11v-.6h1.1v-6.1h2.7v-1.5h.6v1.5h2.1v-1.5zm-2.7 8.8.4.6c-1.2.6-2.5 1.3-3.8 1.9-.1-.2-.2-.4-.3-.6 1.2-.6 2.5-1.2 3.7-1.9zm-2.2-6.7v2.4h2.1v-2.4zm0 3v2.5h2.1v-2.5zm2.8-3v2.4h2.1v-2.4zm0 3v2.5h2.1v-2.5zm6 6.1c-1.4-.7-2.7-1.3-3.9-1.8l.3-.6c1.5.6 2.7 1.2 3.9 1.7zm-1.2-9.1h-2.1v2.4h2.1zm-2.1 3v2.5h2.1v-2.5z" fill="#fbfcfa"/><g fill="#010101"><path d="m39.92 292.04c-4.01-.35-7.55-.89-11.09-.9-2.65-.01-4.24-1.06-4.37-3.52-.52-9.67-4.19-19.48.74-28.96 1.92-3.7.68-6.94-.92-10.12-1.59-3.17-1.77-5.66.84-8.67 3.73-4.29 4.56-9.5 2.81-15.12-2.29-7.35-1.93-14.83 1.53-21.59 4.96-9.68 5.97-19.98 6.45-30.5.2-4.57 3.73-6.91 8.06-5.33 1.86.68 3.55 1.86 5.31 2.81 1.88 1.01 3.69.9 4.45-1.21.76-2.1 2.59-4.55-.23-6.55-1.27-.9-2.73-1.52-4.13-2.22-4.29-2.14-5.7-4.5-5.17-9.33.1-.88.95-2.05 1.76-2.4 5.6-2.49 11.3-4.75 16.92-7.18 2.03-.88 4.11-1.81 5.9-3.08 2.42-1.72 2.97-3.78 2.45-7.29-3.44.09-6.73.19-9.06 3.52-1.1 1.57-7.65 1.56-8.19-.1-.75-2.31-1.43-6.04-.21-7.36 8.32-8.96 13.42-19.77 18.48-30.59 2.5-5.35 4.38-10.99 6.35-16.57.61-1.74 1.28-2.66 3.24-2.42 1.77.22 3.6.01 5.35.28 3.24.5 5.18 3.47 4.4 6.68-.15.61-.81 1.24-1.4 1.59-3.93 2.33-5.24 4.74-4.16 9.11.79 3.23 1.99 6.39 3.27 9.48 2.4 5.77 4.9 11.52 7.56 17.17 1.52 3.21 1.89 6.32.69 9.68-.49 1.36-.58 2.86-1.07 4.22-.77 2.16-.19 3.65 1.45 5.28 4.53 4.52 6.61 9.98 5.47 16.49-.33 1.86-.26 3.79-.39 5.69-.26 3.74.84 6.75 3.47 9.69 8 8.96 14.88 18.8 19.85 29.75 1.9 4.18 2.86 8.92 3.47 13.51.57 4.28-4.75 8.27-8.88 6.85-4.26-1.47-8.73-2.81-10.57-7.85-.62-1.7-2.08-3.18-3.4-4.52-6.3-6.37-6.76-10.06-1.97-17.49.48-.75.94-1.51 1.41-2.27-3.09-1.76-3.09-1.76-9.06.89-2.76-4.2-3.62-9.03-4.24-13.86-.74-5.77-1.48-11.56-1.66-17.37-.13-4.23-1.82-7.29-5.46-8.78-5.5-2.25-7.58-6.88-9.47-11.84-.19-.51-.44-.99-.87-1.97-.48.86-.77 1.35-1.02 1.86-3.59 7.19-6.66 14.7-10.87 21.5-7.62 12.32-11.77 25.55-13.74 39.87-2.12 15.47-3.71 31.09-8.55 46.1-2.39 7.41-4.35 14.97-6.44 22.48-.29 1.05-.22 2.2-.35 3.67 3.81.32 7.44.76 11.08.9 3.47.13 6.57.91 9.2 3.35 1.39 1.29 3.18 2.14 4.53 3.46 3.85 3.8 7.96 5.27 13.07 2.41.89-.49 2.47-.36 3.48.08 10.58 4.59 21.7 5.77 33.09 5.65 4.02-.04 8.05.23 12.06.59 1.2.11 2.54.78 3.44 1.61 2.72 2.49 5.44 5.03 7.82 7.84 1.98 2.35 4.19 2.84 7.07 2.51 7.67-.88 15.34-1.96 23.04-2.18 4.96-.14 10.01.81 14.92 1.77 17.09 3.34 34.38 4.28 51.72 4.38 3.42.02 5.25 1.34 7.15 3.75 3.89 4.94 4.11 5.08 9.4 1.96 6.7-3.96 13.46-5.79 21.52-5.23 19.29 1.35 38.66 1.62 57.99 2.41 2.15.09 3.7-.44 5.43-1.83 1.4-1.12 3.63-1.74 5.45-1.66 3.89.17 6.96-.85 9.47-3.89 2.42-2.93 4.89-5.87 7.64-8.47 3.22-3.05 3.96-6.7 3.17-10.71-.56-2.83.06-5.12 2.04-7.03 3.37-3.24 6.83-6.38 10.81-10.08 1.01 3.37 1.82 5.96 2.54 8.58.13.48-.01 1.09-.19 1.58-1.73 4.78-3.87 9.45-5.18 14.34-2.43 9.09-7.7 16.06-15.74 20.43-15.45 8.39-31.46 15.63-48.82 19.17-13.88 2.84-27.99 3.05-42.1 2.81-.91-.02-2.08-.96-2.63-1.8-.88-1.36-1.34-2.98-2.12-4.83-7.62 7.45-16.5 7.69-25.92 6.25-10.69-1.64-21.43-2.91-32.76-4.43-.13-2.69-.31-6.11-.46-9.54-.17-3.79-1.56-5.18-5.95-5.57v11.55c-10.34 1.85-20.29 1.52-30.31.29-12.1-1.49-24.25-2.52-36.36-3.94-1.72-.2-3.63-1.12-4.9-2.3-3.92-3.64-7.57-7.56-11.56-11.62-2.3 2.82-4.32 5.3-6.72 8.25-1.03-2.88-1.92-5.39-2.91-8.18-3.43 1.57-6.6 2.91-9.66 4.46-1.74.88-3.11 1.01-4.32-.74-1.41-2.05-3.38-2.7-5.82-2.42-1.44.16-2.92-.12-4.36.06-5.54.67-10.3-.4-13.86-5.18-.63-.84-2.34-1.33-3.49-1.24-3.33.27-6.61 1.08-9.94 1.35-2.04.16-4.4.26-6.11-.61-1.47-.74-3.02-2.87-3.07-4.43-.04-1.45 1.87-2.95 3.39-5.09zm77.48 4.72c-2.57-1.89-6.37-.22-10.42 4.28.79 1.13 1.59 2.29 2.1 3.01 2.84-2.48 5.56-4.87 8.32-7.29zm137.62 25.51c-1.49-2.24-2.86-4.3-4.23-6.36-.22.09-.44.19-.66.28.34 2.34.68 4.68 1.06 7.32 1.4-.45 2.43-.79 3.83-1.24zm27.29-2.78c-.49 2.02-.84 3.46-1.34 5.51 2.52-1.03 4.39-1.78 6.75-2.74-2.01-1.03-3.47-1.78-5.41-2.77zm-224.94-27.39c-.24.05-.48.11-.72.16.33 1.63.65 3.26 1.1 5.52 1.2-1.11 1.96-1.81 2.84-2.63-1.35-1.28-2.28-2.17-3.22-3.05z"/><path d="m326 149.64c.69 2.5 1.57 5.04 2.01 7.65.17.98-.36 2.58-1.12 3.13-6.23 4.5-7.09 10.96-7.5 17.96-.42 7.23-1.52 14.44-2.68 21.6-.45 2.81-1.71 5.54-2.89 8.18-2.28 5.09-5.52 9.13-11.57 10.03-4.71.7-8.41 3.29-11.73 6.63-2.46 2.48-7.95 2.64-10.39.11-4.58-4.74-9.06-9.59-13.18-14.72-3.3-4.11-4.85-9.2-4.59-14.42.13-2.7 1.86-5.33 3.01-8.35-4.19-1.47-8.73-2.91-13.14-4.68-1.39-.56-2.62-1.84-3.58-3.06-1.02-1.3-1.67-2.9-2.41-4.4-6.53-13.43-13.81-26.36-25.25-36.34-3.59-3.13-5.06-6.97-4.89-11.5.15-3.96-1.35-6.16-5.39-6.85-2.5-.43-4.89-1.5-7.49-2.33 0-4.6-.19-9.07.07-13.53.18-3.14-1.4-3.93-3.98-3.92-.89 0-1.78.15-2.65.33-1.71.35-3.61 1.4-4.28-1.38-.61-2.54.31-3.87 2.97-4.45 2.88-.63 5.65-1.76 9-2.84-5.38-2.96-5.34-7.25-3.94-11.85 1.02-3.34 2.21-6.64 3.7-9.89.24 7.95 4.07 14.14 8.67 20.01 1.79 2.29 3.42 4.73 5.37 6.88 6.64 7.32 10.12 15.84 10.67 25.71.1 1.79 1.44 3.56 2.43 5.21.62 1.03 1.62 1.85 2.49 2.71 7.3 7.15 13.5 15.03 18.36 24.15 3.07 5.76 7.45 10.87 11.55 16.03 9.44 11.91 19.15 23.62 28.53 35.58 1.23 1.57 1.2 4.16 1.67 6.3.27 1.26.37 2.55.54 3.83.44.05.88.09 1.32.14 1.59-7.48 3.81-14.9 4.56-22.47.65-6.51 3.01-11.69 7.33-16.32 1.67-1.78 3.06-3.82 4.79-6.01-4.87-4.56-3.67-9.56-1.25-14.74 1.21-2.6 1.38-7.13 3.1-7.74 3.45-1.24 7.65-.38 11.76-.38z"/><path d="m357.14 160.33c-5.33 0-10.03.11-14.71-.09-.92-.04-2.16-1.05-2.63-1.95-2.15-4.05-3.96-8.27-6.15-12.29-.55-1.01-2.01-2-3.16-2.14-3.76-.47-7.58-.69-11.37-.74-2.82-.03-4.32-1.42-4.26-3.99.07-3.65.1-7.44 1.07-10.92 1.96-6.98 4.51-13.8 6.9-20.66.31-.88.96-1.8 1.71-2.35 3.94-2.94 7.97-5.76 12.36-8.91 3.6 5.9 7.11 11.68 10.79 17.71-1.29 1.71-2.61 3.46-4.07 5.4 5.75 4.76 8.25 11.27 10.16 18.14.52 1.88.34 3.22-1.22 4.35-1.7 1.24-1.89 2.59-.98 4.6 1.94 4.36 3.57 8.85 5.56 13.84z"/><path d="m135.55 213.64c1.82-8.16 3.44-15.55 5.15-22.93.16-.7.84-1.29 1.32-1.9 2.9-3.69 5.59-7.57 8.76-10.99 3.46-3.73 7.17-7.3 11.17-10.44 3.44-2.7 8.39-.93 9.7 3.26.92 2.95 1.29 6.1 1.65 9.19.1.81-.62 1.81-1.15 2.6-4.83 7.23-9.71 14.42-14.55 21.65-2.6 3.89-5.11 7.84-7.75 11.7-.68.99-1.68 1.8-2.63 2.57-2.5 2-5.75 4.35-8.4 2.7-1.99-1.24-2.35-5.11-3.27-7.41z"/><path d="m367.63 259.57c-3.02-1.21-5.89-2.37-9.3-3.74-.91 2.67-1.9 5.23-2.65 7.86-.72 2.54-2.08 4.14-5.52 4.19-3.53-18.87-2.52-38.08-3.17-57.34 1.5 3.16 3.02 6.32 4.51 9.5 2.37 5.07 5.26 6.85 11.34 6.8.37-1.15.77-2.38 1.2-3.71-3.53-1.88-8-2.5-8.03-7.62 5.59-1.57 8.89-.84 10.39 2.46.37.82.65 2.12.25 2.77-1.58 2.63-.64 4.95.45 7.31 1.16 2.53 2.38 5.04 3.55 7.57 1.98 4.28 3 8.25.06 12.9-1.86 2.96-2.02 6.99-3.08 11.05z"/><path d="m190.61 109.26c1.33 7.13 2.82 13.9 3.75 20.74.39 2.88.02 6.05-.79 8.87-.95 3.29-2.72 6.34-4.2 9.47-1.11 2.36-2.3 4.35-5.5 4.6-2.68.21-3.87 2.16-3.34 5.1.95 5.33-.57 6.75-5.82 5.79-3.19-.58-6.43-.97-9.54-1.82-1.23-.33-2.7-1.48-3.12-2.61-.36-.97.25-2.78 1.05-3.64 3.9-4.16 7.83-8.32 12.1-12.1 3.11-2.75 4.48-5.95 4.57-9.93.18-8.66 3.64-16.01 9.05-22.57.54-.65 1.17-1.24 1.79-1.9z"/><path d="m364.51 205.25c-1.52.54-2.23.79-2.74.97-1.69-3.4-2.8-7.07-5.06-9.79-2.18-2.61-5.58-4.17-8.38-6.3-1.37-1.04-2.82-2.13-3.76-3.52-.84-1.24-1.17-2.88-1.48-4.4-1.67-8.01-.83-9.6 6.63-13 2.95-1.34 8.52 1.38 10.1 5.19.71 1.71 1.06 3.64 1.19 5.49.17 2.44.13 4.92-.13 7.35-.69 6.25-1.45 12.45 3.63 18.01z"/></g></svg>