<svg enable-background="new 0 0 400 400" viewBox="0 0 400 400" xmlns="http://www.w3.org/2000/svg"><path d="m374.8 390.4.4-.4c.7.5 1.3 1 1.8 1.4l-.5.5c-.5-.6-1.1-1.1-1.7-1.5zm1 7.3-.6-.3c.5-1.4 1.1-2.8 1.5-4.3.2.1.4.2.6.3-.5 1.3-1 2.8-1.5 4.3zm-.4-10.3.4-.4c.4.3 1 .8 1.7 1.4l-.5.5c-.4-.5-1-1-1.6-1.5zm2.5.3h1.7v-1h.6v1h3.5v-1h.6v1h1.8v.5h-1.8v1.4h-2v1h3.2v2h-3.2v.9h3.3v.5h-3.4c0 .3-.1.6-.1.9h4v.5h-3.7c.7.9 1.9 1.5 3.8 1.7-.1.2-.2.4-.3.6-2.1-.4-3.5-1.1-4-2.1-.4 1-1.8 1.7-4 2.2-.1-.2-.2-.4-.3-.6 2.1-.4 3.4-1 3.8-1.8h-3.4v-.5h3.6c.1-.3.1-.6.2-.9h-3.3v-.5h3.4c0-.3 0-.6 0-.9h-3.2v-2h3.3v-1h-2.1v-1.4h-1.7v-.5zm1.1 3.5v1h2.7c0-.3 0-.4 0-.4 0-.1 0-.2 0-.2 0-.1 0-.2 0-.3h-2.7zm1.2-3v.9h3.5v-.9zm4.7 3h-2.6v.6.4h2.6z" fill="#fbfcfa"/><path d="m393.6 386.7h.6v1.5h2.7v6.1h1.1v.6h-11v-.6h1.1v-6.1h2.7v-1.5h.6v1.5h2.1v-1.5zm-2.7 8.8.4.6c-1.2.6-2.5 1.3-3.8 1.9-.1-.2-.2-.4-.3-.6 1.2-.6 2.5-1.2 3.7-1.9zm-2.2-6.7v2.4h2.1v-2.4zm0 3v2.5h2.1v-2.5zm2.8-3v2.4h2.1v-2.4zm0 3v2.5h2.1v-2.5zm6 6.1c-1.4-.7-2.7-1.3-3.9-1.8l.3-.6c1.5.6 2.7 1.2 3.9 1.7zm-1.2-9.1h-2.1v2.4h2.1zm-2.1 3v2.5h2.1v-2.5z" fill="#fbfcfa"/><path d="m205.07 94.82c2.49-2.97 5.06-4.52 4.25-8.51-.48-2.38.98-5.19 1.73-7.76 2.15-7.4 3.57-15.16 6.78-22.08 4.02-8.64 5.23-17.94 8.28-26.75.59-1.69.55-4.71 3.79-4.06 3.04.6 3.12 2.97 3.12 5.47 0 2.89.29 5.78.43 8.67.05 1.11.3 2.33-.04 3.33-2.18 6.36-4.53 12.67-6.76 19.01-.54 1.54-.87 3.17-1.23 4.77-.15.65.13 1.53-.21 1.97-4.62 5.94-3.83 13.75-7.08 20.19-1.81 3.59-1.83 8.22-6.89 9.7 3.31 2.56 7.81 2.51 9.48 6.73-.91.59-1.72 1.11-2.98 1.94 2.23.5 4.01.9 6.02 1.35.71-1.82 1.38-3.54 2.29-5.88 5.71 2.32 11.26 4.57 16.8 6.83 4.24 1.73 8.58 3.24 12.66 5.28 2.94 1.47 5.79 3.37 8.17 5.61 1.27 1.2 1.64 3.49 2.12 5.36.63 2.44.94 4.96 1.45 7.43.6 2.91 1.25 5.8 1.91 8.7.24 1.07.65 2.11.85 3.19.26 1.33.36 2.7.58 4.04.14.83.09 1.92.6 2.42 2.18 2.13 1.99 4.74 2.08 7.46.32 8.58 1.28 17.16 1.16 25.74-.1 7.5.12 14.92.92 22.38.4 3.69-.46 7.51-.73 11.28-.09 1.31-.46 2.69-.17 3.91 2.19 9.22 1.62 18.45.37 27.69-.1.78-.3 1.55-.32 2.33-.22 8.9-.35 17.79-.69 26.69-.05 1.33-1.08 2.6-1.56 3.93-.38 1.06-.94 2.21-.82 3.25.29 2.66 1.05 5.27 1.38 7.92.25 2.04-.02 4.03-3.37 5.07-.56-6.71-1.35-13.1-1.45-19.51-.03-1.77 2-3.58 3.29-5.69-5.95-1.51-5.41-6.28-5.55-10.95-.21-6.92-1.09-13.82-1.15-20.73-.06-7.8.46-15.61.74-23.42.03-.78.38-1.61.19-2.32-2.61-9.79-1.12-19.81-1.74-29.7-.01-.22 0-.45-.02-.67-.5-7.06-1.59-7.98-8.49-7.03-5.98.83-11.96 1.73-17.94 2.54-1.32.18-2.84.51-3.97.06-5.58-2.24-11.06-.53-16.54.22-.85.12-1.96 1.12-2.24 1.95-.51 1.55-.7 3.28-.68 4.93.28 17.11.61 34.22.99 51.32.06 2.56.45 5.12.7 7.67.05.56.4 1.25.18 1.64-2.31 4.04-.53 7.68.95 11.39.23.58.04 1.33.05 2 .15 8.48.31 16.95.45 25.43.03 1.57.17 3.15 0 4.69-.38 3.49-.38 6.77 1.83 9.87.88 1.23.93 3.19.99 4.83.34 8.92.58 17.85.83 26.77.03 1 .33 2.23-.14 2.96-3.17 4.97-1.25 10.22-1.07 15.37.01.33.2.68.14.99-.58 3.01-2.34 6.38-1.51 8.92 1.05 3.2 1.4 6.02.5 9.06-.35 1.18-1.38 2.15-2.31 3.52-3.52-4.11-3.95-8.43-4.21-12.77-.34-5.69.26-11.58-1-17.04-1.84-7.91-1.01-15.76-1.41-23.64-.37-7.23-1.82-14.41-2.79-21.61-.01-.11-.06-.22-.06-.33-.11-7.44-.13-14.88-.35-22.31-.1-3.31-.74-6.6-.84-9.91-.05-1.92.5-3.85.83-6.16-.33-.91-1.27-2.4-1.35-3.94-.63-11.73-1.1-23.47-1.58-35.21-.04-1.1-.05-2.35.42-3.28 1.05-2.13.19-3.73-.65-5.64-.75-1.69-.94-3.73-.94-5.62 0-7.16.33-14.32.21-21.47-.05-2.87-2.29-4.23-5.03-4.42-12.94-.88-25.88-1.89-38.84-2.46-4.31-.19-8.67.99-13.02 1.14-2.35.08-4.79-.48-7.08-1.13-2.31-.65-3.7-.31-4.04 2.26-.16 1.22-.42 2.43-.48 3.65-.37 7.79-.69 15.58-1.04 23.37-.03.67-.37 1.41-.17 1.98 3.86 11.22.88 22.31-.46 33.45-.3 2.5-.09 5.08 0 7.62.39 10.23.82 20.46 1.23 30.61-6.11.82-6.84-.02-5.95-5.1.27-1.56-.1-3.3-.45-4.9-1.13-5.2-4.59-10.1-1.68-15.79.34-.66-.31-1.93-.68-2.84-4.15-10.05-4.89-20.52-4.29-31.26.26-4.74-.5-9.52-.67-14.29-.15-4.11-.07-8.22-.18-12.33-.2-7.14-1.01-14.31-.54-21.4.45-6.89.94-13.78 1.37-20.68.63-10.23 1.75-20.42 2.61-30.64.66-7.85 4.36-13.37 11.93-16.12 11-3.99 22.19-6.8 34.02-6.58 3.21.06 6.45-.44 9.64-.9 3.64-.53 7.12-1.28 10.85.18 3.31 1.29 4.49-.21 3.48-3.75-.28-.97-.36-2.14-.97-2.83-5.3-5.98-5.56-13.67-7.52-20.84-1.79-6.53-4.73-12.75-7.04-19.14-.51-1.41-.65-2.99-.72-4.5-.26-5.55-.5-11.11-.54-16.67-.01-1.08.87-2.17 1.34-3.26 1.17.52 2.9.72 3.41 1.61 2.02 3.54 4.56 7.13 5.26 11 2.31 12.78 6.88 24.72 11.91 36.57 1.39 3.28 2.33 6.76 3.61 10.09.77 1.97 1.82 3.91 3.05 6.52zm-36 17.76c-12.51-1.44-21.64 3.65-31.38 5.81-3.29.73-4.52 2.9-4.47 6.61.18 14.74-.09 29.49-.2 44.23-.01 1.74.42 3.22 2.53 3.12 2.97-.13 6.03-.05 8.89-.75 3.99-.98 7.77-1.83 11.57.49.62.38 1.51.59 2.21.48 3.6-.61 7.14-1.61 10.76-1.97 5.07-.5 10.18-.6 15.28-.79 4.79-.18 9.59-.12 14.37-.45 2.53-.17 3.8-1.79 3.95-4.51.31-5.92.98-11.82 1.3-17.73.11-2.08-.55-4.2-.52-6.3.03-2.24.48-4.47.71-6.71.09-.9.46-2.02.07-2.66-1.46-2.4-1.48-4.74-.68-7.37 2.08-6.89-1.63-11.7-8.73-11.97-3.77-.15-7.51-.92-11.26-1.39-.74-.09-1.51-.16-2.24-.05-4.72.71-9.43 1.48-12.16 1.91zm93.38 54.31c-.31-3.94-.73-8.4-.99-12.87-.48-8.02-.87-16.05-1.29-24.08-.14-2.74-1.63-4.22-4.24-4.8-5.67-1.26-11.37-2.42-16.98-3.9-6.05-1.59-12.02-3.51-18.02-5.28-4.41-1.3-5.88-.45-6.85 4.18-.29 1.4-.44 2.9-.28 4.31.39 3.64.35 7.11-1.83 10.32-.46.68-.35 1.92-.17 2.84 1.47 7.48 2.8 14.95 1.65 22.62-.18 1.2-.09 2.47.09 3.68.45 2.91 1.6 4.81 5.19 4.76 4.8-.06 9.62.36 14.4.83 7.76.77 15.56 1.39 23.22 2.78 5.8 1.06 6.41 1.01 6.1-5.39z" fill="#010101"/></svg>