<svg enable-background="new 0 0 400 400" viewBox="0 0 400 400" xmlns="http://www.w3.org/2000/svg"><path d="m190.61 373.43c-1-24.04 5.07-47.02 11.06-69.92 2.92-11.15 2.85-22.36 3.35-33.6.71-16.1.98-32.21 1.67-48.31.27-6.38-2.26-11.2-6.79-15.34-3.13-2.86-6.3-5.71-9.19-8.82-6.95-7.46-7.13-16.76-5.81-25.93 1.66-11.49 4.14-22.87 6.49-34.24.55-2.67 2.9-5.13 2.94-7.71.1-6.54.14-13.27-1.38-19.55-.78-3.23-4.58-6.17-7.67-8.29-2.87-1.96-4.51-.85-6.32 2.39-4.74 8.47-7.06 17.8-10 26.95-2.14 6.64-5.03 13.14-8.41 19.24-3.07 5.53-5.94 10.95-7.02 17.25-.7 4.1-2.91 7.4-7.09 10.27 0-2.42-.2-4.26.04-6.05.93-7.06 2.15-14.08 2.96-21.15.72-6.33 1.03-12.71 1.54-19.07.06-.77.12-1.64.5-2.27 4.1-6.83 3.83-14.59 4.72-22.08.5-4.21 1.05-8.11 3.7-11.84 4.54-6.39 4.71-14.17 4.58-21.64-.09-4.96.56-9.44 2.76-13.86 2.09-4.2 3.86-8.55 5.64-12.89.36-.89.52-2.2.12-3-2.05-4.11-1.44-8.52 1.52-12.22.99-1.24 1.2-3.11 1.83-4.9 1.66 3.01 3.35 6.08 5.15 9.34 1.36-1.25 2.56-2.35 3.76-3.45.21.09.42.18.63.27-.73 3.31-1.83 6.59-2.08 9.93-.31 4.05-.29 8.21.28 12.23.65 4.58.52 8.95-1.51 13.08-.99 2.01-.34 3.08 1.01 4.58 6.73 7.47 13.53 14.9 19.86 22.7 6.94 8.55 8.32 18.52 6.18 29.18-.65 3.26-.89 6.62-1.07 9.94-.17 3.21-1.04 6.18-1.78 9.26-1.47 6.08-2.99 11.95-5.81 17.58-.82 1.65.11 4.17.22 6.29.43 8.27.84 16.54 1.32 24.81.05.94.21 2.31.82 2.7 3.67 2.31 7.36 4.64 11.28 6.46 2.73 1.27 5.46.49 8.19-1.21 6.61-4.1 12.72-8.59 17.27-15.09 1.64-2.34 4.35-3.93 6.75-6.02 3.37 8.66.39 18.56-6.44 23.1-5.5 3.65-11.07 7.19-16.45 11-1.17.83-2.15 2.52-2.38 3.95-2.73 16.88-1.56 33.64 1.49 50.39.53 2.93-.49 6.15-.86 9.23-1.37 11.42-2.69 22.85-4.21 34.26-.39 2.94-.99 5.98-2.22 8.65-7.81 16.95-15.82 33.8-23.77 50.68-.45.98-.96 1.93-1.37 2.74z" fill="#010100"/><g fill="#fcfafa"><path d="m342.2 3.2-6.3 9.2h6.1v1.2h-8.2v-.5l6.2-9.1h-5.7v-1.2h7.8v.4z"/><path d="m344 13.7v-10.9h3.1c1.6 0 3 .5 4.1 1.4 1.1 1 1.6 2.2 1.6 3.9s-.5 3-1.6 4-2.5 1.5-4.2 1.5h-3zm1.4-9.6v8.4h1.6c1.4 0 2.5-.4 3.2-1.1.8-.8 1.2-1.8 1.2-3.2s-.4-2.4-1.2-3.1-1.8-1-3.1-1z"/><path d="m356.3 2.8v10.9h-1.4v-10.9z"/><path d="m366.6 13.2c-.8.4-1.8.6-3 .6-1.6 0-2.8-.5-3.7-1.5s-1.4-2.3-1.4-3.9c0-1.7.5-3.2 1.6-4.2s2.4-1.6 4-1.6c1 0 1.9.1 2.6.4v1.5c-.8-.4-1.6-.6-2.6-.6-1.2 0-2.2.4-3 1.2s-1.1 1.9-1.1 3.3c0 1.3.4 2.3 1.1 3.1s1.6 1.1 2.8 1.1c1.1 0 2-.2 2.8-.7v1.3z"/><path d="m368.2 13c0-.3.1-.5.3-.6.2-.2.4-.3.6-.3.3 0 .5.1.7.3s.3.4.3.6-.1.5-.3.6c-.2.2-.4.3-.7.3s-.5-.1-.6-.3c-.2-.2-.3-.4-.3-.6z"/><path d="m381.1 13.7h-1.7l-5.5-8.4c-.2-.2-.3-.5-.4-.7 0 .2.1.8.1 1.5v7.6h-1.4v-10.9h1.8l5.3 8.3c.3.4.4.6.4.8 0-.3-.1-.8-.1-1.6v-7.5h1.4v10.9z"/><path d="m389.7 13.7h-5.8v-10.9h5.6v1.2h-4.2v3.5h3.9v1.2h-3.9v3.7h4.4z"/><path d="m398.4 4.1h-3.1v9.6h-1.4v-9.6h-3.1v-1.3h7.7v1.3z"/></g></svg>