<svg enable-background="new 0 0 400 400" viewBox="0 0 400 400" xmlns="http://www.w3.org/2000/svg"><path d="m211.61 269.64c-3.4 1.08-4.82.3-6.12-1.7-1.24-1.9-2.74-3.99-4.65-5.02-3.1-1.66-4.98-3.7-5.76-7.17-.47-2.11-1.68-4.12-2.83-6-7.75-12.69-15.64-25.29-20.3-39.57-2.18-6.67-4.67-13.24-6.94-19.88-.42-1.24-.51-2.6-.67-3.92-.22-1.88.08-3.96-.62-5.62-1.58-3.74-2.34-7.36-.87-11.29.24-.64-.11-1.52-.25-2.28-1.62-8.67-3.76-17.29-4.7-26.03-.57-5.25.71-10.7 1.15-16.06.04-.52.31-1.16.11-1.56-2.83-5.69-1.23-11.54-.1-17.12 2.1-10.39 4.87-20.65 7.51-30.92.36-1.41 1.31-2.93 2.44-3.82 2.54-2.01 3.45-4.48 3.34-7.6-.18-4.98 1.48-9.28 4.37-13.41 2.39-3.42 3.88-7.47 5.79-11.23 2.11-4.16 4.13-8.38 6.42-12.44 1.28-2.27 7.89-2.23 9.44-.19 3.44 4.53 7.16 8.86 10.28 13.59 2.22 3.37 3.68 7.25 5.41 10.94.2.42-.05 1.05-.09 1.65-5.36.11-9.89-.49-12.81-5.86-1.58-2.9-4.5-5.16-7.07-7.41-1.7-1.49-3.28-1.22-4.36 1.24-1.44 3.26-3.21 6.39-4.96 9.5-.64 1.13-1.51 2.21-2.5 3.04-2.35 1.97-2.63 4.73-.21 6.67 10.3 8.23 20.69 16.36 31.04 24.54 3.5 2.77 6.17 5.86 7.9 10.35 2.88 7.5 2.57 14.14-1.57 20.9-1.86 3.03-3.46 6.28-4.77 9.59-3.57 9.06-4.16 17.99 2.04 26.35.86 1.17 1.8 2.34 2.36 3.66 4.1 9.61 9.45 18.5 15.54 26.96.37.51.83 1.34.66 1.79-1.47 3.78-1.41 7.55-.56 11.47.22 1.03-.51 2.39-1.09 3.44-4.03 7.22-7.88 14.56-12.34 21.52-2.32 3.62-5.77 6.49-8.67 9.75-.64.72-1.28 1.55-1.62 2.44-1.58 4.13-2.6 8.55-4.66 12.42-3.31 6.19-2.05 11.49 1.58 16.9 1.45 2.18 2.4 4.75 3.71 7.39zm-31.51-202.83c-4.86 4.93-5.81 11.16-7.05 17.3-.3 1.49-.5 3.47-1.51 4.28-3.19 2.55-3.25 5.88-3.22 9.38.02 2.8.31 5.64-.09 8.38-.45 3.11-1.55 6.13-2.3 9.2-.19.79-.24 1.66-.17 2.48.34 3.74.94 7.47 1.09 11.22.36 9.13.5 18.27.8 27.4.03.96.63 1.89.89 2.86 1.76 6.56 3.72 13.08 5.17 19.71.88 4.01-.22 8.93 1.73 12.12 2.58 4.2 3.08 8.72 4.73 13 4.34 11.24 9 22.35 13.65 33.46.7 1.67 2.07 3.05 3.68 5.34 4.03-4.33 7.66-8.24 11.43-12.28-2.07-1.36-1.23-3.34-.18-5.25 1.45-2.64 2.66-5.53 4.61-7.76 5.43-6.21 8.31-13.64 11-21.22.26-.74.56-1.46.88-2.17 1.55-3.55 1.26-6.83-.92-10.15-5.41-8.22-10.32-16.78-16.04-24.77-5.49-7.67-5.23-16.32-5.63-24.95-.05-1.06.47-2.17.83-3.22 2.02-6.03 4.48-11.94 6.02-18.09 3.46-13.74 1.24-18-8.82-24.61-8.29-5.45-15.49-11.61-19.81-20.71-.11-.29-.4-.51-.77-.95z" fill="#010100"/><path d="m148.29 238.89c4.24 2.87 6.39 5.95 5.78 9.88-1.78 11.51.55 22.76 1.77 34.06.61 5.62.84 11.12-.44 16.62-1.57 6.75 1.06 13.04 2.24 19.46.22 1.2 2.24 2.32 3.65 2.97 1.14.53 2.7.61 3.96.34 8.58-1.81 16.83.18 25.2 1.67 4.2.75 8.64.22 12.97.17 9.12-.12 18.26-.69 27.36-.34 5.88.23 6.54.46 8.75-5.01 1.3-3.21 3.65-6.36.84-9.94-.17-.22-.22-.75-.07-.95 3.3-4.48.25-9.03.18-13.54-.06-3.68-.3-7.38 0-11.04.15-1.78 1.38-3.47 2.12-5.21.47.07.95.14 1.42.22.96 5.69 2.35 11.35 2.78 17.09.59 7.8.45 15.65.64 23.48.03 1.23-.15 2.56.26 3.66 2.87 7.58 1.21 15.29.59 22.9-.38 4.69-.84 9.82-3 13.82-2.92 5.41-5.76 11.24-13.27 12.89-17.06 3.75-34.03 4.76-50.58-1.33-8.95-3.3-18.95-4.38-26.27-11.81-3.46-3.52-5.87-6.87-6.28-11.96-1.08-13.26-2.57-26.49-3.88-39.74-.1-.99-.32-2.14.04-2.98 2.17-5.08.81-10.1.13-15.18-.32-2.41-.36-4.88-.23-7.31.33-6.45.75-12.89 1.26-19.33.61-7.62 1.34-15.24 2.08-23.56zm46.24 90.09c-.34-.01-.67-.03-1.01-.04-2.62 3.64-2.62 3.62-7.42 3.65-6.72.03-13.31-.31-19.82-2.52-6.17-2.09-10.63 1.56-10.63 8 0 2.8.14 5.6-.05 8.38-.14 2.06.67 3.11 2.36 4.25 7.74 5.22 16.56 7.76 25.34 10.24 4.88 1.38 10.08 2.58 15.07 2.36 10.02-.43 19.98-2.02 29.98-2.86 5.52-.47 9.56-3.2 13.45-7.15-2.94-2.99-3.39-6.36-2.58-10.25 1.54-7.4-1.31-9.82-8.64-7.52-3.11.98-6.06 1.33-9.03-.47-.59-.36-1.61-.17-2.4-.03-1.81.31-3.6 1.09-5.38 1.07-5.58-.08-11.16-.57-16.74-.66-2.66-.04-3.46-.82-2.55-3.41.32-.9.05-2.02.05-3.04z" fill="#010100"/><g fill="#fafbfa"><path d="m6.4 11.7c-1-.8-1.9-1.6-2.9-2.3l.6-.7c.9.7 1.9 1.4 2.9 2.2zm-2.1 8.3c.7-2.1 1.4-4.2 2-6.4.2.1.6.3 1 .4-.7 2.3-1.3 4.4-1.9 6.4zm3-12.8c-1.1-.9-2.1-1.7-2.9-2.4l.6-.7c1 .8 2 1.5 3 2.4zm1.4-1.3v-.9h10.2v.9c-.9 4.2-2.3 7.3-4.1 9.4 1.3 1.4 3.2 2.7 5.7 4-.2.2-.4.5-.7.9-2.5-1.4-4.4-2.7-5.7-4.2-1.4 1.5-3.5 3-6.1 4.4 0 0 0 0-.1-.1-.3-.4-.5-.7-.7-.8 2.7-1.3 4.7-2.8 6.2-4.2-1.8-2.2-3-5.3-3.7-9.4zm9.2 0h-7.1c.6 3.8 1.7 6.7 3.4 8.7 1.7-2 2.9-4.8 3.7-8.7z"/><path d="m31.6 3.6h.9v2.3h4.1v9.1h1.7v.9h-16.6v-.9h1.7v-9.1h4.1v-2.3h.9v2.3h3.1v-2.3zm-4 13.3.6.8c-1.9.9-3.8 1.9-5.8 2.8-.2-.3-.3-.6-.5-.9 2-.9 3.9-1.8 5.7-2.7zm-3.2-10.1v3.7h3.1v-3.7zm0 4.5v3.7h3.1v-3.7zm4.1-4.5v3.7h3.1v-3.7zm0 4.5v3.7h3.1v-3.7zm9.1 9.1c-2.1-1.1-4.1-2-5.8-2.7l.5-.8c2.2.9 4.1 1.8 5.8 2.6zm-1.9-13.6h-3.1v3.7h3.1zm-3.2 4.5v3.7h3.1v-3.7z"/></g></svg>