<svg enable-background="new 0 0 400 400" viewBox="0 0 400 400" xmlns="http://www.w3.org/2000/svg"><path d="m158.28 101.64c-4.29-2.5-8.78-2.97-13.1-1.51-7.08 2.39-14.02 5.24-20.89 8.2-1.73.74-3.07 2.53-4.44 3.97-4.74 4.96-10.49 6.03-16.94 4.6-2.65-.59-4.17-2.46-4.17-4.98 0-2.38-.29-4.98 3.08-6.23 10.36-3.87 20.54-8.22 30.91-12.07 2.62-.97 5.69-.67 8.52-1.16 1.91-.33 4.04-.62 5.59-1.65 7.67-5.05 15.35-9.86 24.41-12.28 6.45-1.72 8.86-7.53 9.72-13.35.88-5.9.82-12.01.53-18-.35-7.39.79-14.44 3.08-21.33 5.17-.31 8.78 2.01 9.81 6.76 1.57 7.19 2.49 14.23.41 21.78-1.52 5.51-.93 11.71-.64 17.56.24 4.87 0 9.5-1.48 14.19-2.06 6.49-3.58 13.15-5.6 19.66-.51 1.64-1.71 3.48-3.13 4.37-11.11 6.89-22.42 13.48-33.53 20.37-4.82 2.99-9.71 6.07-13.89 9.85-6.15 5.58-8.66 12.7-5.84 20.96.45 1.33 1.55 2.73 2.74 3.46 4.67 2.86 9.38 5.69 14.3 8.08 2.65 1.29 5.75 1.6 8.62 2.47 1.12.34 2.38.78 3.16 1.58 8.87 9.17 12.56 19.84 8.07 32.23-2.27 6.26-5.14 12.37-8.44 18.16-1.2 2.11-4.24 3.86-6.74 4.4-6.61 1.45-13.35 2.48-20.09 3.08-9.98.88-15.91 5.05-19.06 14.59-.52 1.56-.55 3.54-.1 5.13 2.53 8.8 5.3 17.54 7.95 26.31 3.14 10.41 3.48 21.17 3.61 31.9.16 12.97.64 25.98-2.05 38.81-1.8 8.6-4.63 16.72-11.31 23.36-3.42-6.27-4.19-12.67-2.56-19.1 4.75-18.85 3.21-38.03 3.4-57.13.01-1.38-.51-2.86-1.08-4.15-4.05-9.08-8.3-18.08-12.21-27.22-.9-2.1-1.27-4.71-.99-6.98.77-6.21 1.73-12.42 3.16-18.5 1.37-5.83 4.81-10.63 10.33-13.13 8.24-3.73 16.79-6.76 25.08-10.38 3.75-1.63 7.58-3.51 10.67-6.11 2.32-1.95 4.12-5.04 5.09-7.97 2.05-6.13 1.02-7.88-4.68-10.73-7.5-3.75-15.05-7.39-22.44-11.34-1.82-.97-3.54-2.72-4.54-4.53-3.7-6.71-4.01-13.9-1.84-21.14 2.05-6.84 4.29-13.64 6.67-20.37.55-1.57 1.78-3.11 3.1-4.16 5.07-4.04 10.24-7.97 15.5-11.77 6.54-4.71 11.44-10.62 14.27-18.56z" fill="#010100"/><path d="m225.42 130.56c1.9 0 3.85-.26 5.69.07 2.21.39 4.33 1.27 6.48 1.97 2.25.72 4.49 2.07 6.75 2.12 13.61.26 24.72 6.3 34.62 14.88 4.5 3.91 6.4 9 5.21 15.38-1.46 7.78-2.03 15.73-3.01 23.6-.11.87-.18 1.89-.67 2.53-4.94 6.35-9.67 12.89-15.04 18.86-6.25 6.93-14.85 8.81-23.78 8.99-16.01.32-31.76-2.21-46.83-7.18-7.27-2.4-11.72-8.87-12.52-17.44-1.13-12.12 1.04-23.84 3.09-35.61.98-5.6 2.28-11.16 3.72-16.66.31-1.2 1.64-2.61 2.83-3.05 7.55-2.75 15.13-5.5 22.84-7.72 3.35-.97 7.05-.7 10.6-1 .01.07.02.17.02.26zm-20.31 50.81c-1.5.27-4.07.02-5.64 1.16-2.57 1.85-2.75 6.68-1.34 9.61 2.15 4.46 5.81 6.26 10.51 7.13 6.34 1.17 12.57 2.49 18.36-1.57.76-.53 1.61-1.63 1.61-2.46-.01-6.48-4.15-11.32-10.52-12.32-4.07-.64-8.18-.99-12.98-1.55zm.35-23.36c1.14 2.28 1.6 4.74 3.08 5.86 4.29 3.26 12.78 2.79 17.14-.44 3.46-2.56 3.97-4.99 1.87-8.91-1.51-2.81-5.7-4.52-8.7-3.17-4.37 1.97-8.59 4.25-13.39 6.66zm35.57 43.88c5.85.07 11.44.36 16.35-3.1 2.76-1.95 3.09-3.43.96-6.04-.86-1.05-2.21-1.94-3.51-2.36-6.33-2.03-13.58 3.87-13.8 11.5zm8.09-40.03c2.66 4.58 6.45 7.32 10.39 6.76 1.81-.26 4.7-1.38 4.92-2.52.35-1.85-.96-4.11-1.86-6.06-.3-.64-1.44-1-2.27-1.27-4.23-1.39-8.14-1.33-11.18 3.09z" fill="#010100"/><path d="m239.59 342.54c-3.92-.88-9.58-1.95-15.12-3.45-3.43-.92-6.61-2.88-10.06-3.66-8.14-1.85-13.08-7.25-16.8-14.16-9.78-18.21-11.79-37.23-5.97-57.1.68-2.32 1.88-3.39 4.15-4.08 20.93-6.41 42.14-7.31 63.66-3.71 8.5 1.42 17.06 2.47 24.71 6.83 2.03 1.16 4.02 2.45 5.8 3.96 4.92 4.18 7.76 8.77 6.19 16-2.34 10.79-3.41 21.85-5.12 32.78-.22 1.38-.88 2.74-1.56 4-.85 1.57-2.17 2.91-2.87 4.52-4.54 10.42-13.49 14-23.78 15.41-7.08.96-14.2 1.63-23.23 2.66zm-35.69-38.26c-.18 5.59 1.49 9.22 4.73 12.13 2.16 1.94 4.43 3.78 6.65 5.66 4.37 3.7 13.46 4.51 18.37 1.73 1.6-.91 2.23-2 1.68-3.82-.88-2.88-1.66-5.79-2.46-8.7-1.28-4.65-4.41-7.45-9.12-7.55-6.52-.16-13.05.32-19.85.55zm54.2 21.83c5.87-.13 12.17-3.61 17.23-9.06 1.52-1.64 2.16-4.94 1.76-7.23-.25-1.46-3.08-2.61-4.91-3.59-1.14-.61-2.57-.69-3.89-.91-7.14-1.23-16.02 3.65-18.73 10.27-3 7.32-1.14 10.24 8.54 10.52zm-41.37-36.41c2.68-.74 6.37-1.52 9.89-2.78 3.35-1.2 4.62-3.83 4.09-7.44-.55-3.73-.94-7.52-5.12-9.05-3.86-1.41-7.75-2.09-11.52.54-1.64 1.15-3.5 1.98-5.25 2.97-3.85 2.16-5.01 5.91-5.17 9.86-.09 2.28 1.27 4.27 4 4.62 2.65.34 5.29.74 9.08 1.28zm53.85.66c1.74-.46 4.95-1.24 8.12-2.17 1.83-.54 2.19-1.9 1.72-3.7-1.19-4.47-4.35-6.89-8.51-8.14-4.79-1.44-9.65-2.69-14.49-3.96-.7-.18-1.69-.29-2.22.06-3.58 2.38-6.17 5.46-6.23 10.04-.04 3.4 2.62 6.37 6.02 6.67 4.65.41 9.32.73 15.59 1.2z" fill="#010100"/><g fill="#fcfafa"><path d="m342.2 3.2-6.3 9.2h6.1v1.2h-8.2v-.5l6.2-9.1h-5.7v-1.2h7.8v.4z"/><path d="m344 13.7v-10.9h3.1c1.6 0 3 .5 4.1 1.4 1.1 1 1.6 2.2 1.6 3.9s-.5 3-1.6 4-2.5 1.5-4.2 1.5h-3zm1.4-9.6v8.4h1.6c1.4 0 2.5-.4 3.2-1.1.8-.8 1.2-1.8 1.2-3.2s-.4-2.4-1.2-3.1-1.8-1-3.1-1z"/><path d="m356.3 2.8v10.9h-1.4v-10.9z"/><path d="m366.6 13.2c-.8.4-1.8.6-3 .6-1.6 0-2.8-.5-3.7-1.5s-1.4-2.3-1.4-3.9c0-1.7.5-3.2 1.6-4.2s2.4-1.6 4-1.6c1 0 1.9.1 2.6.4v1.5c-.8-.4-1.6-.6-2.6-.6-1.2 0-2.2.4-3 1.2s-1.1 1.9-1.1 3.3c0 1.3.4 2.3 1.1 3.1s1.6 1.1 2.8 1.1c1.1 0 2-.2 2.8-.7v1.3z"/><path d="m368.2 13c0-.3.1-.5.3-.6.2-.2.4-.3.6-.3.3 0 .5.1.7.3s.3.4.3.6-.1.5-.3.6c-.2.2-.4.3-.7.3s-.5-.1-.6-.3c-.2-.2-.3-.4-.3-.6z"/><path d="m381.1 13.7h-1.7l-5.5-8.4c-.2-.2-.3-.5-.4-.7 0 .2.1.8.1 1.5v7.6h-1.4v-10.9h1.8l5.3 8.3c.3.4.4.6.4.8 0-.3-.1-.8-.1-1.6v-7.5h1.4v10.9z"/><path d="m389.7 13.7h-5.8v-10.9h5.6v1.2h-4.2v3.5h3.9v1.2h-3.9v3.7h4.4z"/><path d="m398.4 4.1h-3.1v9.6h-1.4v-9.6h-3.1v-1.3h7.7v1.3z"/></g></svg>