<svg enable-background="new 0 0 400 400" viewBox="0 0 400 400" xmlns="http://www.w3.org/2000/svg"><path d="m187.25 216.89c-2.71 8.36-9.44 13.73-16.29 13.63-1-.01-1.98-.61-2.98-.94.57-.95 1-2.05 1.76-2.83 1.16-1.19 2.82-1.96 3.8-3.26 8.3-11.01 16.5-22.11 24.94-33.45-5.05-2.74-9.44-1.92-13.52-.83-9.17 2.45-18.22 5.35-27.27 8.24-1.07.34-2.04 1.63-2.66 2.7-8.13 14.16-16.27 28.31-24.23 42.57-6.54 11.73-16.03 20.23-27.83 26.35-.39.2-.79.51-1.21.56-7.77.9-15.52 2.06-23.31 2.56-7.7.49-7.72.19-10.54 7.39-4.4 11.23-10.53 21.49-17.97 30.92-2.49 3.15-5.86 5.61-8.83 8.39-.46-.26-.92-.52-1.38-.79.56-2.48.73-5.14 1.77-7.39 2.11-4.54 4.92-8.76 7.02-13.31 1.18-2.57 1.76-5.5 2.17-8.34.47-3.3 1.2-6.2 3.92-8.53 2.64-2.26 2.09-6.14-1.15-7.14-4.21-1.31-8.64-2.02-13.03-2.62-3.64-.49-7.38-.2-11.02-.72-3.11-.44-5.66-2.08-6.67-6.2 5.68-.82 11.23-1.85 16.82-2.38 6.88-.65 13.79-.86 20.69-1.37.68-.05 1.57-.73 1.92-1.37.85-1.56 1.49-3.25 2.11-4.92 4.22-11.24 9.56-21.91 16.32-31.84.74-1.08 1.68-2.39 1.66-3.57-.09-6.3 4.08-9.5 8.99-11.2 14.41-4.97 27.81-12.72 43.12-15.27 4.04-.67 7.69-3.48 11.63-5.02 1.62-.63 3.65-1 5.3-.63 2.2.5 3.84.29 5.49-1.22.7-.65 1.71-1.37 2.58-1.37 9.74.04 18.4-4.42 27.6-6.56 6.3-1.46 12.59-3.04 18.76-4.95 5.08-1.58 6.61-3.08 8.32-6.53-.91-.53-1.83-1.1-2.78-1.6-8.53-4.44-16.98-9.02-25.62-13.25-4.51-2.21-8.45-4.94-11.51-8.92-1.54-2-3.34-3.04-6.1-2.14-.86.28-2.28-.79-3.31-1.46-2.95-1.9-5.82-3.92-8.74-5.86-.83-.55-2.17-.75-2.55-1.49-.78-1.5-1.07-3.25-1.56-4.9 1.2-.33 2.46-1.08 3.59-.92 8.34 1.22 16.78 1.91 23.84 7.64 3.5 2.85 7.69 5.06 11.88 6.81 11.54 4.83 22.23 10.95 31.68 19.19 5.4 4.71 11.72 5.77 18.54 4.37 1.13-.23 2.64-1.07 3.03-2.02 5.1-12.27 10.03-24.62 14.99-36.95.25-.62.32-1.3.54-1.94 2.38-7.14 1.96-13.2-4.08-19.02-7.06-6.81-13.07-14.72-19.42-22.25-1.44-1.71-2.44-3.8-3.72-5.86 3.32-1.83 5.59-.46 7.78.8 11.29 6.55 21.3 14.77 30.69 23.77 12.93 12.39 25.84 24.8 38.66 37.3 2.47 2.4 4.73 5.09 6.67 7.94 2.17 3.2 2.15 8.01.45 9.46-2.13 1.82-6.62 1.09-9.86-1.71-10.17-8.78-20.3-17.59-30.45-26.39-.82-.71-1.69-1.38-3.07-2.51-2.27 4.18-4.55 7.98-6.46 11.97-8.17 17.01-12.45 35.11-14.94 53.72-.3 2.23.64 5.34-2.37 6.51 2.32 10.89 1.43 21.84.87 32.73-.72 14.13-.93 28.22 1.88 42.12.68 3.37 3.37 6.34 5.2 9.62 1.56-.85 2.52-1.38 3.5-1.91.21.04.48.01.61.13 7.23 6.64 14.43 13.3 21.66 19.94 4.21 3.87 6.56 4.6 10.88 1.07 7.33-5.98 14.89-11.89 19.68-20.42 3.89-6.93 4.81-14.38 3.97-22.08-1.03-9.5-1.03-18.93.03-28.45 1.07-9.66 1.32-19.41 2.09-29.11.21-2.65.65-5.39 1.6-7.86 1.31-3.42 1.58-6.74.36-10.11-1.66-4.58.22-8.8.98-13.15.48-2.73.8-5.5 1.07-8.27 1.25-12.9 2.44-25.8 3.67-38.7.52-5.46 1.15-10.9 1.55-16.37.08-1.06-.43-2.4-1.12-3.25-12.42-15.28-24.89-30.51-37.42-45.7-.8-.97-2.11-1.54-3.23-2.21-9.89-5.82-17.17-14.03-22.27-24.24-.24-.47-.22-1.07-.36-1.82 3.53-.92 6.56.15 9.71 1.37 9.29 3.58 16.64 9.81 23.65 16.61 2.89 2.81 5.83 5.58 8.97 8.1 4.73 3.78 8.5 8.16 10.48 13.99.32.94 1.21 2.11 2.08 2.38 3.55 1.1 5.33 3.87 7.06 6.77.63 1.06 1.17 2.18 1.92 3.15 3.07 3.96 5.68 3.78 8.2-.43 4.97-8.3 6.55-17.76 9.28-26.84 2.41-8.01 4.99-15.98 7.58-23.94.4-1.24 1.25-2.33 1.95-3.61 3.41 1.1 5.3 3.22 5.32 6.59.01 2.33-.23 4.71-.77 6.97-4.31 17.93-8.76 35.82-13.05 53.76-1.15 4.81.49 9.18 3.59 12.78 5.43 6.28 10.87 12.46 13.86 20.42.71 1.9 2.76 3.25 3.8 5.08 1.27 2.23 2.11 4.71 3.17 7.16-5.69 1.7-7.11 1.23-10.14-2.59-4.49-5.66-9.78-10.39-16.69-14.24-.73 2.69-1.52 5.09-2 7.54-1.2 6.1-1.96 12.31-3.45 18.34-1.62 6.55-2.6 12.96-2.21 19.84.36 6.38-1.01 12.9-1.95 19.31-3.31 22.39-4.68 44.94-5.77 67.52-.19 3.91-.33 7.83-.71 11.73-.13 1.37-.74 2.79-1.46 3.98-1.1 1.8-1.89 3.41-.83 5.58.33.67-.12 1.91-.55 2.71-3.26 6.1-6.76 12.07-9.88 18.23s-7.33 11.14-13.3 14.7c-5.67 3.38-11.35 6.78-16.71 10.61-7.8 5.58-15.4 11.47-22.95 17.4-10.56 8.29-21.96 14.73-34.89 18.88-7.34 2.35-14 6.81-20.97 10.33-11.86 5.99-24.14 9.43-37.46 5.85-1.19-.32-2.14-1.58-3.97-3.01 5.61-1.84 10.05-3.23 14.45-4.74 15-5.15 30.27-9.7 44.11-17.67 6.28-3.62 12.07-8.07 18.11-12.1 1.76-1.17 3.5-2.7 5.46-3.19 10.89-2.7 17.46-12.05 26.78-17.17 2.92-1.6 4.39-4.98 3.27-8.47-.51-1.58-1.83-3.4-3.28-4.09-19.19-9.21-35.39-22.13-48.68-38.74-4.61-5.77-9.33-11.46-13.81-17.33-1.44-1.88-2.3-4.21-3.46-6.32-.37-.68-.78-1.35-1.27-1.93-4.63-5.43-9.23-10.9-13.97-16.24-1.86-2-3.99-3.74-6.42-6.04zm53.35 38.5c-.89-9.07-1.8-18.29-2.71-27.51-.55-5.54-1.35-10.99.19-16.61 1.07-3.93 1.61-8.24 1.23-12.28-.48-5.06.28-9.76 1.46-14.56.5-2.04.88-4.2.78-6.28-.16-3.42-2.01-4.41-5.11-3.19-3.84 1.52-7.71 2.97-11.57 4.44-4.99 1.9-9.43 4.59-12.74 8.91-4.42 5.77-8.74 11.62-13.31 17.27-3.19 3.94-3.46 5.39-.43 9.52.92 1.25 2.09 2.33 3.22 3.4 2.52 2.38 5.28 4.53 7.59 7.1 8.61 9.57 17.14 19.22 25.54 28.97 1.82 2.13 3.4 2.56 5.86.82zm-164.89 5.76c7.93-.61 14.61-1.58 21.28-1.49 5.89.08 10.13-2.37 14.36-5.97 8.09-6.89 12.54-16.27 17.38-25.26 4.3-7.99 7.43-16.62 11.47-25.87-2.95.13-4.94-.05-6.81.36-5.79 1.25-11.54 2.66-17.28 4.14-1.35.35-2.84.95-3.81 1.9-3.88 3.76-8.56 5.79-13.81 5.89-7.52.14-10.59 5.91-11.95 11.17-2.34 9.06-5.61 17.59-9.41 26.06-1.19 2.62-.97 5.88-1.42 9.07z" fill="#010102"/><g fill="#fcfbfa"><path d="m385.2 377.6.6-.7c.6.4 1.3.9 1.9 1.5l-.6.7c-.8-.5-1.4-1-1.9-1.5zm.3 7.1c.6-1.4 1.1-2.9 1.5-4.5.3.1.6.3.9.4-.5 1.4-1 2.9-1.5 4.4zm.2-10.1.6-.6c.7.5 1.3 1.1 1.9 1.6l-.7.7c-.6-.6-1.2-1.2-1.8-1.7zm8.4-.8h.8v.9h1.8v.7h-1.8v1.8h-.8v-.3h-1.2v.9h3.3v2.6h-.8v-.4h-2.5c0 .3 0 .6-.1.8h3.4v.7h-3.5c0 .3-.1.6-.1.8h4v.7h-3.5c.7.9 1.9 1.3 3.6 1.5-.2.2-.4.5-.6.9-1.9-.3-3.2-1.1-3.8-2.3-.5 1.1-1.8 2-3.9 2.4-.2-.3-.4-.5-.6-.8 1.9-.4 3.1-.9 3.6-1.7h-3.2v-.7h3.5c.1-.2.1-.5.2-.8h-3.3v-.7h3.4c0-.2 0-.5 0-.8h-2.4v.3h-.8v-2.6h3.3v-.9h-1.2v.3h-.8v-1.8h-1.8v-.7h1.8v-.9h.8v.9h3.2zm-4.4 5.5h2.4c0-.3 0-.6 0-.9h-2.4zm1.2-3.1h3.2v-.8h-3.2zm4.4 2.2h-2.4v.9h2.5v-.9z"/><path d="m389.2 385.8h.9v1.5h1.9v-1.5h.9v1.5h2.7v6h1.1v.9h-11.3v-.9h1.1v-6h2.7zm.2 8.7.5.8c-1.2.6-2.5 1.3-4 1.9-.2-.3-.3-.6-.6-.8 1.6-.6 3-1.3 4.1-1.9zm-2-4.3h1.9v-2.1h-1.9zm0 3.1h1.9v-2.2h-1.9zm2.7-3.1h1.9v-2.1h-1.9zm0 3.1h1.9v-2.2h-1.9zm2.4 1.3c1.4.6 2.7 1.2 4.1 1.8l-.5.9c-1.5-.7-2.8-1.4-4.1-1.9zm2.2-6.5h-1.9v2.1h1.9zm-1.9 5.2h1.9v-2.2h-1.9z"/></g></svg>