<svg enable-background="new 0 0 400 400" viewBox="0 0 400 400" xmlns="http://www.w3.org/2000/svg"><g fill="#010102"><path d="m243.58 343.21c-2.56-1.24-5.27-2.24-7.66-3.75-12.32-7.77-24.08-16.3-34.66-26.38-.48-.45-1.04-.82-1.69-1.32-3.15 4.39-3.69 9.34-2.84 14.17 1.31 7.44-.41 14.42-1.86 21.55-1.08 5.34-1.73 10.77-2.3 16.19-.49 4.62-1.31 8.86-7.13 11.29-.24-3.12-.81-5.82-.59-8.45 1.3-15.6.4-31.08-2.45-46.45-.42-2.29-1.36-4.49-2.16-6.69-.33-.91-.92-1.72-1.6-2.93-.73 1.51-1.25 2.71-1.88 3.85-1.4 2.53-7.4 4.95-10.01 4.09-1.57-.52-3.15-5.53-2.25-7.89.67-1.75 1.66-3.42 2.71-4.99 4.36-6.5 8.87-12.91 13.16-19.46.85-1.3 1.39-3.05 1.42-4.61.31-15.54.42-31.09.75-46.63.05-2.34-.58-3.61-2.67-4.66-5.09-2.57-9.97-5.56-15.08-8.08-12.72-6.26-24.48-13.88-34.97-23.46-1.04-.95-2.74-1.58-4.17-1.64-8.27-.33-15.93-2.59-23.52-5.91-7.03-3.08-14.54-5.06-21.86-7.48-5.79-1.92-10.01-5.32-11.4-12.16 1.39.23 2.52.31 3.6.62 6.33 1.78 12.64 3.63 18.97 5.43 2.24.64 4.14.06 4.79-2.27 1.33-4.79 2.62-9.62 3.43-14.51.25-1.48-.89-3.37-1.8-4.83-7.56-12.25-11.93-25.67-14.73-39.68-.04-.2.09-.43.17-.71 3.46-.95 5.8-.29 7.74 3.35 6.01 11.24 12.45 22.25 18.79 33.31.61 1.07 1.61 2.48 2.63 2.67 5.8 1.09 11.66 1.87 18.02 2.83 1.04-4.01 1.81-7.84 3.06-11.5.86-2.53 2.07-5.1 3.74-7.14 1.21-1.48 3.06-1.25 4.24.98 1.74 3.31 2.32 6.5 1.49 10.29-.98 4.51-1.56 9.23-1.41 13.83.14 4.16-1.77 7.33-3.45 10.65-1.3 2.57-1.52 5 .01 7.23 2.89 4.2 5.55 8.8 9.28 12.16 9.5 8.58 20.28 15.43 31.99 20.69 1.02.46 2.92.41 3.67-.25 1.68-1.49 3.35-3.12 2.64-6.02-.8-3.29-1.45-6.73-1.35-10.09.21-7.04 1.9-14.15 1.26-21.08-.98-10.56.99-20.87 1.04-31.3.01-2.69.84-5.37 1.36-8.5 1.36 1.11 2.05 1.69 2.75 2.26-.14-.32-.28-.64-.42-.96 1.7-1.21 3.46-3.43 5.08-3.34 1.69.1 3.26 2.43 4.38 3.37 0-3.59-.26-7.74.09-11.85.26-3.08 1.34-6.08 2.01-9.13 2.36-10.7-.82-21.61-11.93-27.1-2.49 4.68-5.25 9.27-7.42 14.12-1.71 3.83-1.88 7.96-.59 12.14 1.31 4.27 2.31 8.64 3.41 12.97.82 3.18-.11 4.83-3.27 4.32-3.89-.62-7.95-1.65-11.34-3.56-4.19-2.35-4.38-5.9-1.95-10.1 1.09-1.89 2.21-4.04 2.36-6.14.46-6.19 2.39-11.85 5.58-17.04 2.22-3.61 1.29-6.55-1.1-9.41-5.03-6.01-8.07-12.83-8.66-20.69-.13-1.73-.14-3.08 2.13-3.81 2.31-.74 2.65.81 3.56 1.97 3.31 4.23 6.6 8.47 10 12.62 1.02 1.25 2.37 2.24 3.56 3.35.31-.11.62-.22.92-.33-.18-1.52-.34-3.05-.54-4.57-.11-.87-.4-1.74-.38-2.61.28-8.7.83-17.39.87-26.08.03-7.44.38-14.75 3.37-21.7.17-.39.4-.75.59-1.1 4.48 1.55 7.48 6.41 7.51 12.34.05 10.08-.08 20.15 0 30.23.03 3.91.21 7.84.73 11.71.27 2.01 1.28 3.97 2.21 5.82.7 1.38 1.73 2.62 2.74 3.8 4.99 5.82 8.37 12.35 9.21 20.08.12 1.09.53 2.18.99 3.19 1.52 3.32 4.02 3.64 6.38.93 4.99-5.74 9.93-11.53 15.07-17.13 1.68-1.82 3.92-3.13 6.34-5 1.6 5.48-.78 9.39-3.27 12.72-7.82 10.5-15.84 20.87-24.28 30.87-2.64 3.13-6.92 4.82-10.27 7.41-1.31 1.01-2.57 2.5-3.11 4.03-4.16 11.78-4.79 24.07-4.8 36.41-.01 9.29-.4 18.61.18 27.87.47 7.44 2.15 14.8 3.46 23.27 4.03-1.76 8.04-2.84 11.29-5.05 8.23-5.6 16.11-11.7 24.16-17.58.79-.58 1.74-1.4 2.58-1.37 6.19.26 8.26-5.47 12.28-8.33.46-.33.46-1.45.48-2.2.51-21.9 7.95-42.29 13.64-63.06.94-3.45 1.84-6.95 3.29-10.2 1.17-2.62 3.12-4.89 5.03-7.78 3.91 6.46 3.2 11.98.79 17.58-2.34 5.42-5.37 10.7-6.73 16.36-3.11 12.93-5.9 25.98-7.77 39.13-.92 6.42.73 13.21 6.48 17.61 5.42 4.13 11.45 7.49 16.7 11.8 3.09 2.53 5.28 6.19 7.71 9.46 1.42 1.92.41 3.33-1.48 4.25-4.32 2.09-8.55 1.12-11.99-1.53-7.04-5.44-14.57-10.47-19.12-18.57-.41-.73-2.29-1.27-3.17-.97-2.51.85-5.01 1.93-7.24 3.35-9.82 6.24-19.41 12.85-29.36 18.86-4.55 2.75-9.64 4.71-14.66 6.51-3.35 1.2-4.96 3.26-5.16 6.54-.58 9.59-.98 19.2-1.56 28.79-.38 6.32 1.78 11.54 5.27 16.82 8.28 12.5 19.77 21.85 30.18 32.28 3.47 3.47 6.98 6.92 10.19 10.61 1.23 1.41 1.67 3.51 2.47 5.29-.29.28-.6.58-.92.89zm-116.64-173.22c-3.4-1.46-7.08-3.04-10.75-4.62-3.88-1.67-7.21.07-7.82 4.26-.52 3.54-.81 7.11-1.07 10.67-.06.77.24 2.13.7 2.29 4.89 1.74 9.38 5.06 14.91 4.3.91-.13 2.24-1.4 2.37-2.29.72-4.72 1.11-9.49 1.66-14.61z"/><path d="m270.09 162.52c3.37-1.33 6.35-2.95 9.54-3.67 6.23-1.41 10.91-4.49 15.35-9.27 3.69-3.97 9.45-6.04 14.4-8.77.54-.3 2.31.37 2.5.93.35 1.03.37 2.62-.22 3.45-3.21 4.52-5.65 9.73-10.73 12.67-3.23 1.87-5.19 4.69-6.77 8.01-3.37 7.05-6.98 13.99-10.48 20.99-.49.97-.91 1.98-1.72 3.75 2.54-.2 4.6.05 6.34-.58 9.01-3.26 18.28-6.02 25.89-12.29 2.9-2.39 6.24-2.82 9.84-1.18-.53 3.55-2.01 6.26-5.25 8.31-9.66 6.09-19.31 12.23-30.33 15.52-4.42 1.32-9.2 1.65-13.85 1.88-4.24.21-5.78-2.53-3.99-6.34 4.34-9.19 8.7-18.37 13.05-27.56.32-.68.59-1.39.91-2.14-4.24-3.4-10.11 1.76-14.48-3.71z"/><path d="m228.48 37.24c3.31 2.1 2.8 4.38 1.96 6.44-1.4 3.4-2.88 6.81-4.73 9.99-3.49 5.99-7.16 11.87-10.95 17.68-2.79 4.27-6.56 7.28-12.2 7.61-.13-3.61.25-6.61 2.59-9.69 4.71-6.23 8.6-13.07 13.14-19.44 3.13-4.41 6.79-8.44 10.19-12.59z"/><path d="m137.78 98.32c8.63 4.5 16.62 9.18 23.52 15.45.89.81 1.19 3.37.57 4.42-.72 1.23-2.99 2.62-4.16 2.32-3.73-.97-7.4-2.41-10.82-4.2-5.4-2.82-10.01-12-9.11-17.99z"/></g><path d="m385.2 377.6.6-.7c.6.4 1.3.9 1.9 1.5l-.6.7c-.8-.5-1.4-1-1.9-1.5zm.3 7.1c.6-1.4 1.1-2.9 1.5-4.5.3.1.6.3.9.4-.5 1.4-1 2.9-1.5 4.4zm.2-10.1.6-.6c.7.5 1.3 1.1 1.9 1.6l-.7.7c-.6-.6-1.2-1.2-1.8-1.7zm8.4-.8h.8v.9h1.8v.7h-1.8v1.8h-.8v-.3h-1.2v.9h3.3v2.6h-.8v-.4h-2.5c0 .3 0 .6-.1.8h3.4v.7h-3.5c0 .3-.1.6-.1.8h4v.7h-3.5c.7.9 1.9 1.3 3.6 1.5-.2.2-.4.5-.6.9-1.9-.3-3.2-1.1-3.8-2.3-.5 1.1-1.8 2-3.9 2.4-.2-.3-.4-.5-.6-.8 1.9-.4 3.1-.9 3.6-1.7h-3.2v-.7h3.5c.1-.2.1-.5.2-.8h-3.3v-.7h3.4c0-.2 0-.5 0-.8h-2.4v.3h-.8v-2.6h3.3v-.9h-1.2v.3h-.8v-1.8h-1.8v-.7h1.8v-.9h.8v.9h3.2zm-4.4 5.5h2.4c0-.3 0-.6 0-.9h-2.4zm1.2-3.1h3.2v-.8h-3.2zm4.4 2.2h-2.4v.9h2.5v-.9z" fill="#fcfbfa"/><path d="m389.2 385.8h.9v1.5h1.9v-1.5h.9v1.5h2.7v6h1.1v.9h-11.3v-.9h1.1v-6h2.7zm.2 8.7.5.8c-1.2.6-2.5 1.3-4 1.9-.2-.3-.3-.6-.6-.8 1.6-.6 3-1.3 4.1-1.9zm-2-4.3h1.9v-2.1h-1.9zm0 3.1h1.9v-2.2h-1.9zm2.7-3.1h1.9v-2.1h-1.9zm0 3.1h1.9v-2.2h-1.9zm2.4 1.3c1.4.6 2.7 1.2 4.1 1.8l-.5.9c-1.5-.7-2.8-1.4-4.1-1.9zm2.2-6.5h-1.9v2.1h1.9zm-1.9 5.2h1.9v-2.2h-1.9z" fill="#fcfbfa"/></svg>