<svg enable-background="new 0 0 400 400" viewBox="0 0 400 400" xmlns="http://www.w3.org/2000/svg"><path d="m374.8 390.4.4-.4c.7.5 1.3 1 1.8 1.4l-.5.5c-.5-.6-1.1-1.1-1.7-1.5zm1 7.3-.6-.3c.5-1.4 1.1-2.8 1.5-4.3.2.1.4.2.6.3-.5 1.3-1 2.8-1.5 4.3zm-.4-10.3.4-.4c.4.3 1 .8 1.7 1.4l-.5.5c-.4-.5-1-1-1.6-1.5zm2.5.3h1.7v-1h.6v1h3.5v-1h.6v1h1.8v.5h-1.8v1.4h-2v1h3.2v2h-3.2v.9h3.3v.5h-3.4c0 .3-.1.6-.1.9h4v.5h-3.7c.7.9 1.9 1.5 3.8 1.7-.1.2-.2.4-.3.6-2.1-.4-3.5-1.1-4-2.1-.4 1-1.8 1.7-4 2.2-.1-.2-.2-.4-.3-.6 2.1-.4 3.4-1 3.8-1.8h-3.4v-.5h3.6c.1-.3.1-.6.2-.9h-3.3v-.5h3.4c0-.3 0-.6 0-.9h-3.2v-2h3.3v-1h-2.1v-1.4h-1.7v-.5zm1.1 3.5v1h2.7c0-.3 0-.4 0-.4 0-.1 0-.2 0-.2 0-.1 0-.2 0-.3h-2.7zm1.2-3v.9h3.5v-.9zm4.7 3h-2.6v.6.4h2.6z" fill="#fbfcfa"/><path d="m393.6 386.7h.6v1.5h2.7v6.1h1.1v.6h-11v-.6h1.1v-6.1h2.7v-1.5h.6v1.5h2.1v-1.5zm-2.7 8.8.4.6c-1.2.6-2.5 1.3-3.8 1.9-.1-.2-.2-.4-.3-.6 1.2-.6 2.5-1.2 3.7-1.9zm-2.2-6.7v2.4h2.1v-2.4zm0 3v2.5h2.1v-2.5zm2.8-3v2.4h2.1v-2.4zm0 3v2.5h2.1v-2.5zm6 6.1c-1.4-.7-2.7-1.3-3.9-1.8l.3-.6c1.5.6 2.7 1.2 3.9 1.7zm-1.2-9.1h-2.1v2.4h2.1zm-2.1 3v2.5h2.1v-2.5z" fill="#fbfcfa"/><g fill="#010101"><path d="m146.83 78.31c15.24-8.53 31.49-12.57 48.64-12.76 4.98-.06 9.96 1.34 14.96 1.89 1.86.21 3.83.15 5.66-.22 2.53-.5 4.36-1.82 4.9-4.76.77-4.17 2.59-8.22 2.83-12.39.25-4.33-.39-8.85-1.46-13.08-1.95-7.64.1-10.73 8.15-10.65 8.83.08 17.71-.14 26.47.76 5.29.54 10.38 2.97 16.37 4.8-5.23 4.57-10.38 5.98-15.87 6.37-4.9.35-9.86.17-14.72.81-6.99.92-9.8 4.58-8.78 11.58.8 5.51 2.26 10.93 3.65 16.33.18.68 1.65 1.33 2.6 1.47 4.09.6 8.22.94 12.32 1.51 1.63.23 3.37.51 4.8 1.26 3.23 1.7 3.5 5.98.38 7.83-2.65 1.56-5.63 2.61-8.55 3.62-1.77.61-3.75.6-5.58 1.09-5.4 1.45-5.83 2.33-6.07 7.78-.67 15.19-1.72 30.37-2.22 45.57-.33 9.94-.11 19.9.21 29.84.07 2.09 1.72 4.12 2.58 6.2.56 1.35 1.72 2.95 1.39 4.09-2.37 8.26-1.68 16.62-1.25 24.99.6 11.61 1.69 23.23.09 34.84-.36 2.66 1.75 3.25 3.23 3.38 4.74.41 9.56.75 14.28.36 7.18-.59 12.65 2.01 15.76 8.43-9.27 3.32-18.5 6.69-27.79 9.88-1.09.37-2.75.06-3.77-.55-5.44-3.29-11.14-3.05-17.16-2.17-5.8.85-11.79 1.68-17.3-1.64-.73-.44-1.7-.53-2.57-.7-3.89-.74-4.49-1.66-3.63-6 7.79-1.6 15.64-3.35 23.55-4.78 2.9-.52 4.65-1.95 4.62-4.7-.06-4.53-.33-9.09-1.01-13.56-.5-3.28-1.71-6.48-2.77-9.66-3.08-9.27-3.65-18.81-3.37-28.49.14-4.91-.19-9.84-.31-14.76-.03-1.23-.61-2.8-.06-3.62 4.09-6.03 1.37-11.95.09-17.94-2.03-9.53-1.53-18.98-.2-28.64 1.19-8.67.61-17.59.79-26.4.03-1.56-.32-3.18-.06-4.69.89-5.18-2.07-7.64-6.14-9.8-8.52-4.53-17.38-4.24-26.49-2.68-11.12 1.9-22.25 3.78-33.42 5.38-4.99.7-6.97-.92-7.77-5.42z"/><path d="m120.71 238.99c3.05-7.89 5.33-16.22 9.41-23.54 3-5.4 4.77-10.92 6.54-16.65.94-3.04 2.6-5.91 4.25-8.67 6.58-11.04 13.39-21.94 19.9-33.03 4.79-8.17 7.02-17.07 6.7-26.63-.23-6.78-.04-13.57-.04-20.52 7.44 1.68 9.36 4.13 9.76 10.68.17 2.73 1.13 5.43 1.77 8.13.94 3.99 2.72 7.97 2.71 11.95-.01 6.65 1.39 12.98 3.67 18.97 4.54 11.94 3.8 24.14 3.12 36.42-.06 1.03-.59 2.14-1.19 3.01-2.46 3.56-3.56 7.43-3.05 11.74.49 4.16-.43 8-2.64 11.54-11.71 18.7-14.44 39.41-13.58 60.92.51 12.62.94 25.24 1.66 37.85.47 8.34 1.78 16.66 1.96 25 .14 6.66-.51 13.39-1.46 20-.68 4.73-2.65 6.73-6.09 8.4.08-.66.02-1.24.22-1.71 2.37-5.61 1.14-11.07-.28-16.66-3.36-13.33-6.55-26.7-9.56-40.11-.59-2.64-.18-5.55.01-8.32.27-4.02.51-8.06 1.2-12.02.95-5.45 2.75-10.77 3.38-16.24.97-8.46.81-16.91-2.15-25.15-2.52-7.02-1.41-14.28.3-21.21 3.23-13.11 7.1-26.06 10.62-39.1.84-3.11 1.57-6.29 1.95-9.48.32-2.7-.72-5.03-3.68-6.53-1.42 2.53-3.06 4.92-4.16 7.54-2.11 4.98-5.35 8.68-10.49 10.53-2 .72-2.42 2.01-2.37 4.12.15 5.47-.02 10.95-.22 16.41-.11 3.06-1.48 5.34-4.24 7.11-7.89 5.07-15.6 10.43-23.37 15.68-.2-.15-.38-.29-.56-.43zm40 45.45c.2 1.64.37 3 .57 4.64 1.3-.38 2.2-.64 3.36-.97-.69-1.96-.43-4.33-3.93-3.67z"/><path d="m246.32 100.3c.42.84 1.27 1.74 1.15 2.5-.19 1.23-1.02 2.36-1.58 3.53-.28-.1-.55-.21-.83-.31 0-1.6 0-3.21 0-4.81.43-.31.84-.61 1.26-.91z"/></g></svg>