<svg enable-background="new 0 0 400 400" viewBox="0 0 400 400" xmlns="http://www.w3.org/2000/svg"><g fill="#010100"><path d="m177.88 234.29c0-1.17-.06-2.34.01-3.51.22-3.74.37-7.5.77-11.22.86-8.09 1.83-16.17 2.81-24.25.18-1.51.67-2.98 1.08-4.73-5.74.09-9.43 3.71-13.22 6.51-5.51 4.07-10.4 8.96-15.62 13.43-3.88 3.34-7.79 6.66-11.81 9.83-2.81 2.21-3.16 4.98-.65 7.69 2.81 3.04 5.55 6.15 8.45 9.1 7.89 8 13.03 17.24 14.7 28.58 1.31 8.92 2.25 17.68.83 26.67-.46 2.89.58 5.98.45 8.95-.55 12.76-.35 25.43 1.64 38.11.75 4.76 1.01 9.98-1.39 14.73-.46.9-.05 2.21-.17 3.32-.48 4.76-.92 9.53-1.57 14.26-.16 1.14-1.04 2.19-2.05 3.21-2.24-5.01-5.41-9.4-5.21-15.08.33-9.52-1-18.88-2.39-28.32-1.33-9.01-.95-18.29-1.05-27.46-.1-9.84.37-19.69.09-29.53-.15-5.18-.96-10.43-2.28-15.44-.71-2.71-2.95-5.11-4.8-7.4-4-4.96-8.21-9.74-12.29-14.63-1.14-1.36-2.35-2.74-3.14-4.31-1.53-3.06-2.02-5.78.44-9.17 2.96-4.08 4.01-9.81 8.57-12.53 5.94-3.55 9.41-9.64 15.1-13.33 6.57-4.26 13.11-8.55 19.62-12.89 1.19-.79 2.36-1.75 3.2-2.89 1.44-1.94 1.62-3.78-.19-5.99-8.03-9.82-16.54-19.11-26.8-26.69-1.83-1.35-3.49-3.25-4.56-5.25-.81-1.51-.54-3.59-.81-5.87 1.37.35 1.83.39 2.21.58 1.99 1.02 3.86 2.35 5.94 3.07 10.26 3.57 16.03 12.9 24.39 18.92 2.39 1.72 3.74 4.94 5.48 7.53 3.72 5.52 5.21 5.65 10.78 2.16 4.14-2.59 8.64-4.63 13.06-6.73 1.44-.68 3.15-.79 4.62-1.13 1.45 2.29.38 3.4-1.08 4.52-4.88 3.75-9.65 7.64-14.6 11.3-1.95 1.44-2.89 3.1-3.28 5.48-1.67 10.26-3.23 20.55-5.41 30.71-1.14 5.3-3.34 10.39-5.35 15.46-.69 1.74-2.28 3.13-3.46 4.69-.33-.14-.69-.3-1.06-.46z"/><path d="m264.01 49.12c-.23 1.04-.2 2.23-.72 3.1-7.14 11.91-16.45 21.56-28.88 28.09-1.53.81-3.06 2.81-3.39 4.5-.83 4.24-1.13 8.61-1.37 12.95-.55 9.81-.42 19.7-1.6 29.43-.75 6.22-3.21 12.26-5.22 18.28-.5 1.49-2.22 2.57-3.38 3.84-.44-.21-.89-.41-1.33-.62 0-5.31-.13-10.62.04-15.92.15-4.77.65-9.53.95-14.3.15-2.33.64-4.76.2-6.99-1.2-6.08-.63-12.02.65-17.95.53-2.47.18-4.09-2.52-5.21-4.02-1.67-7.76-3.98-11.72-5.79-4.66-2.12-8.93-4.57-11.18-9.5-.29-.64-1-1.39-1.63-1.51-6.32-1.26-7.68-6.44-9.26-11.47-.82-2.61.86-3.09 2.69-2.62 1.43.37 2.81 1.33 3.95 2.33 8.2 7.14 16.56 14.06 26.48 18.75 1.49.7 3.19.96 5.36 1.58-.35-4.41-.94-7.94-.84-11.45.25-8.7 1.56-17.32.53-26.1-.52-4.46.33-9.12.98-13.63.18-1.25 1.65-2.85 2.87-3.24.96-.31 2.86.69 3.58 1.67.92 1.26 1.37 3.06 1.5 4.67.59 7.55 1.09 15.12 1.42 22.68.12 2.77-.4 5.57-.52 8.36-.09 2.05-.02 4.1-.02 6.15.45.26.91.52 1.36.78 3.3-1.68 6.94-2.92 9.82-5.14 6.19-4.77 11.97-10.07 17.96-15.1.69-.58 1.62-.88 2.44-1.32.25.23.52.46.8.7z"/><path d="m189.41 283.67c.99-2.03 1.89-4.12 3.01-6.09 1.21-2.13 2.98-3.99 3.88-6.22 3.31-8.26 7.89-15.74 13.11-22.9 3.48-4.78 4.69-10.21 4.04-16.2-.77-7.08-1.33-14.2-1.52-21.32-.11-4.2.51-8.44 1.17-12.61.19-1.19 1.53-2.91 2.55-3.07 1.04-.17 2.76 1.02 3.43 2.09.92 1.44 1.28 3.31 1.6 5.05.79 4.28 1.57 8.58 2.04 12.91.29 2.71.01 5.48-.03 8.23-.01 1.08-.2 2.18-.02 3.22.88 4.92 2.25 9.78 2.68 14.73.38 4.41 1.96 7.18 5.79 9.71 4.32 2.85 7.9 6.88 11.55 10.65 3.88 4.01 7.49 8.29 11.14 12.52.98 1.14 1.69 2.5 2.12 4.26-10.05-3.8-18.77-9.66-26.92-16.4-.33.4-.59.59-.57.72 2.38 10.35-1.79 20.64-.27 30.98.08.54.16 1.22-.09 1.66-.77 1.41-1.45 3.62-2.6 3.93-2.81.76-1.96-2.16-2.63-3.57-.09-.19-.02-.46-.11-.66-3.21-6.95-4.19-14.43-5.13-21.91-.32-2.54-.2-5.15-.63-7.67-.36-2.11-1.22-4.12-2.07-6.85-8.74 8.8-13.89 19.84-24.54 25.42-.31-.21-.65-.41-.98-.61z"/></g><path d="m6.4 11.7c-1-.8-1.9-1.6-2.9-2.3l.6-.7c.9.7 1.9 1.4 2.9 2.2zm-2.1 8.3c.7-2.1 1.4-4.2 2-6.4.2.1.6.3 1 .4-.7 2.3-1.3 4.4-1.9 6.4zm3-12.8c-1.1-.9-2.1-1.7-2.9-2.4l.6-.7c1 .8 2 1.5 3 2.4zm1.4-1.3v-.9h10.2v.9c-.9 4.2-2.3 7.3-4.1 9.4 1.3 1.4 3.2 2.7 5.7 4-.2.2-.4.5-.7.9-2.5-1.4-4.4-2.7-5.7-4.2-1.4 1.5-3.5 3-6.1 4.4 0 0 0 0-.1-.1-.3-.4-.5-.7-.7-.8 2.7-1.3 4.7-2.8 6.2-4.2-1.8-2.2-3-5.3-3.7-9.4zm9.2 0h-7.1c.6 3.8 1.7 6.7 3.4 8.7 1.7-2 2.9-4.8 3.7-8.7z" fill="#fafbfa"/><path d="m31.6 3.6h.9v2.3h4.1v9.1h1.7v.9h-16.6v-.9h1.7v-9.1h4.1v-2.3h.9v2.3h3.1v-2.3zm-4 13.3.6.8c-1.9.9-3.8 1.9-5.8 2.8-.2-.3-.3-.6-.5-.9 2-.9 3.9-1.8 5.7-2.7zm-3.2-10.1v3.7h3.1v-3.7zm0 4.5v3.7h3.1v-3.7zm4.1-4.5v3.7h3.1v-3.7zm0 4.5v3.7h3.1v-3.7zm9.1 9.1c-2.1-1.1-4.1-2-5.8-2.7l.5-.8c2.2.9 4.1 1.8 5.8 2.6zm-1.9-13.6h-3.1v3.7h3.1zm-3.2 4.5v3.7h3.1v-3.7z" fill="#fafbfa"/></svg>