<svg enable-background="new 0 0 400 400" viewBox="0 0 400 400" xmlns="http://www.w3.org/2000/svg"><g fill="#fbfafa"><path d="m37.59 393.81c-.92.31-1.52.05-2-.78-.7-1.2-1.52-2.34-2.47-3.78v4.59c-.55.03-.95.05-1.41.07-.03-.37-.06-.64-.06-.91 0-1.91 0-3.81 0-5.7 1.13-.41 1.77-.03 2.29.91.62 1.11 1.38 2.14 2.31 3.19v-4.2h1.35v6.61z"/><path d="m12.94 393.88v-6.75c1.9.19 3.93-.54 5.37 1.29.8 1.01.78 2.88.03 3.97-1.37 1.97-3.4 1.51-5.4 1.49m1.45-1.22c2.04.12 2.92-.58 2.89-2.21-.03-1.51-.98-2.19-2.89-2z"/><path d="m11.81 393.87h-5.49c.68-2.18 2.47-3.48 3.51-5.45h-3.08v-1.21h5.29c-.71 2.13-2.44 3.48-3.47 5.51.86 0 1.63.04 2.39-.01.79-.05 1.14.21.85 1.16"/><path d="m39.33 393.86v-6.61h3.7v1.07h-2.22v1.52c.68.04 1.34.09 2.07.13v1.07c-.72.05-1.38.09-2.1.14v1.48h2.4v1.19h-3.85z"/><path d="m27.71 388.56c-1.15-.3-2.46-.61-3.1.64-.37.73-.41 1.93-.06 2.67.63 1.35 1.99.93 3.17.68.35.94-.01 1.32-.93 1.46-1.62.25-3.05-.27-3.76-1.48-.73-1.24-.6-3.03.31-4.17.88-1.11 2.71-1.7 4-1.16.32.13.44.74.65 1.12-.1.08-.19.16-.28.24"/><path d="m49.15 387.24v1.07c-.59.02-1.17.05-1.87.08v5.44h-1.48v-5.44h-1.85c-.05-.4-.08-.73-.13-1.15z"/><path d="m20.06 387.21h1.33v6.62h-1.33z"/><path d="m30.68 393.25c-.49.38-.8.79-1.05.76-.32-.05-.6-.45-.9-.7.26-.24.51-.64.8-.67.29-.04.62.3 1.15.61"/></g><path d="m223.53 193.48c-.54-2.78-1.4-4.95-1.3-7.08.78-16.98 1.95-33.94 2.57-50.92.4-10.84-.04-21.71.12-32.56.11-7.19-1.46-13.97-4.02-20.59-2.55-6.6-3.58-13.28-.82-21.2 1.83 2.58 3.86 4.4 4.57 6.63 2.94 9.24 5.6 18.57 8.11 27.93 2.09 7.8 2.88 15.72 2.28 23.89-.31 4.2 1.41 8.51 1.92 12.8.6 5.1.88 10.23 1.26 15.35.06.77.1 1.67-.23 2.31-3.87 7.4-2.36 15.32-2.2 23.06.34 15.77 1.25 31.54-.89 47.25-.46 3.39.43 6.39 2.72 8.63 5.72 5.59 11.7 10.91 17.94 16.68 3.11-5.24 3.72-9.93 3.16-14.75-.48-4.1-1.72-8.13-1.96-12.23-.19-3.34-.12-7.04 1.12-10.05 1.73-4.22 5.23-4.05 7.41-.14 3.78 6.81 4.79 14.33 5.74 21.9 1.52 12.06.66 23.84-3.48 35.36-.66 1.83-.58 4.19-.11 6.13 3.31 13.57 7.15 27.01 10.09 40.65 1.21 5.59.74 11.57.81 17.38.18 13.76.25 27.53.34 41.29.01 1.49.49 3.63-1.84 3.47-1.12-.08-2.78-1.46-3.1-2.57-2.33-8.02-4.75-16.05-6.43-24.23-2.07-10.07-3.52-20.26-5.11-30.42-.6-3.86-.73-7.79-1.28-11.66-.59-4.18-2.58-6.47-5.94-6.55-1.51-.04-3.33.56-4.51 1.49-4.56 3.59-8.92 7.42-13.66 11.43-.79-3.11-.78-5.26 2.1-7.09 1.58-1 3.19-3.01 3.5-4.79 1.44-8.2 6.79-14.23 10.98-20.89 1.16-1.84 1.6-3.44.94-5.58-1.28-4.16-1.7-8.68-3.51-12.56-2.92-6.25-5.58-12.95-12.52-17-1.09 4.07-2.11 7.8-3.09 11.53-1.71 6.48-3.23 13.02-5.15 19.43-2.01 6.72-3.13 13.48-2.41 20.5.41 4.06-1.71 6.71-5.31 9.03-.06-1.28-.16-2.21-.15-3.13.17-14.98.78-29.98.4-44.94-.33-12.96-1.91-25.88-2.66-38.83-.34-5.79.08-11.62.01-17.43-.04-3.36.35-6.31 3.59-6.93z" fill="#010000"/><path d="m124.05 135.72c-.99-2.62-.93-4.61 1.05-6.85 1.7-1.92 2.5-4.68 3.57-7.13 1.57-3.58 2.84-7.3 4.58-10.78 1.9-3.81 5-6.55 8.93-8.29 2.97-1.31 4.62-3.1 3.41-6.74-.42-1.25.2-3.13.9-4.43 2.86-5.34 3.46-10.86 2.65-16.85-1.03-7.64-1.55-15.36-2.1-23.06-.63-8.85.81-17.35 5.05-26.08.62 1.52 1.04 2.46 1.39 3.43 2.01 5.57 3.56 11.36 6.12 16.65 3.53 7.28 3.88 14.87 3.29 22.56-.55 7.1.99 13.4 4.82 19.36 1.21 1.88 2.27 4.34 2.17 6.48-.2 4.23 1.46 7.27 3.77 10.63 5.08 7.39 8.87 15.38 8.2 24.82-1.06 15.07-1.83 30.16-3 45.22-.26 3.39-1.43 6.78-2.64 10-1.35 3.6-1.76 7.08-.62 10.76 2.12 6.89.77 13.73-.49 20.53-2.67 14.32-2.15 28.73-1.51 43.16.31 6.99-1.08 13.8-3.66 20.32-.29.73-1 1.3-1.51 1.95-.67-.62-1.78-1.14-1.94-1.88-.99-4.43-2.85-9.02-2.42-13.36 1.42-14.37-1.1-28.19-3.49-42.22-1.37-8-.79-16.53.1-24.69 2.1-19.23 5.17-38.34 7.35-57.56 1.39-12.31-2.34-23.65-8.7-34.13-.72-1.19-1.95-2.17-3.13-2.99-2.25-1.55-4.02-1.53-5.71 1.25-5 8.21-10.61 16.07-15.34 24.43-2.65 4.69-6.07 6.04-11.09 5.49z" fill="#010000"/><path d="m119.85 145.05c-.36 7.92-.73 8.59-5 9.36-.95-4.32-.81-4.59 5-9.36z" fill="#010000"/></svg>