<svg enable-background="new 0 0 400 400" viewBox="0 0 400 400" xmlns="http://www.w3.org/2000/svg"><g fill="#fbfafa"><path d="m37.59 393.81c-.92.31-1.52.05-2-.78-.7-1.2-1.52-2.34-2.47-3.78v4.59c-.55.03-.95.05-1.41.07-.03-.37-.06-.64-.06-.91 0-1.91 0-3.81 0-5.7 1.13-.41 1.77-.03 2.29.91.62 1.11 1.38 2.14 2.31 3.19v-4.2h1.35v6.61z"/><path d="m12.94 393.88v-6.75c1.9.19 3.93-.54 5.37 1.29.8 1.01.78 2.88.03 3.97-1.37 1.97-3.4 1.51-5.4 1.49m1.45-1.22c2.04.12 2.92-.58 2.89-2.21-.03-1.51-.98-2.19-2.89-2z"/><path d="m11.81 393.87h-5.49c.68-2.18 2.47-3.48 3.51-5.45h-3.08v-1.21h5.29c-.71 2.13-2.44 3.48-3.47 5.51.86 0 1.63.04 2.39-.01.79-.05 1.14.21.85 1.16"/><path d="m39.33 393.86v-6.61h3.7v1.07h-2.22v1.52c.68.04 1.34.09 2.07.13v1.07c-.72.05-1.38.09-2.1.14v1.48h2.4v1.19h-3.85z"/><path d="m27.71 388.56c-1.15-.3-2.46-.61-3.1.64-.37.73-.41 1.93-.06 2.67.63 1.35 1.99.93 3.17.68.35.94-.01 1.32-.93 1.46-1.62.25-3.05-.27-3.76-1.48-.73-1.24-.6-3.03.31-4.17.88-1.11 2.71-1.7 4-1.16.32.13.44.74.65 1.12-.1.08-.19.16-.28.24"/><path d="m49.15 387.24v1.07c-.59.02-1.17.05-1.87.08v5.44h-1.48v-5.44h-1.85c-.05-.4-.08-.73-.13-1.15z"/><path d="m20.06 387.21h1.33v6.62h-1.33z"/><path d="m30.68 393.25c-.49.38-.8.79-1.05.76-.32-.05-.6-.45-.9-.7.26-.24.51-.64.8-.67.29-.04.62.3 1.15.61"/></g><path d="m178.78 324.96c-8.48 1.08-15.25-3.44-17.26-10.76-.39-1.42-1.24-2.89-2.3-3.91-4.97-4.79-10.47-8.69-17.48-10.04-2.06-.4-3.11.13-4.3 1.9-3.69 5.46-7.45 10.9-11.59 16.02-5.8 7.17-12.54 10.55-20.48 10.94-.85-3.77-.75-7.15 2.9-9.68 1.64-1.14 2.89-2.82 4.45-4.08 3.04-2.47 5.28-5.29 5.67-9.42.12-1.32 1.15-2.62 1.96-3.79 3.95-5.7 8.05-11.3 11.87-17.08.67-1.02.82-3.06.25-4.11-2.5-4.59-5.15-9.13-8.14-13.41-6.11-8.78-9.05-18.62-10.39-29.07-.18-1.44-.34-2.89-.55-4.33-1.48-9.93-1.58-19.45 6.01-27.53 2.16-2.29 3.25-5.58 4.84-8.4 1.77-3.17 2.23-6.38 1.16-10-.45-1.53-.09-3.83.83-5.13 2.26-3.16 3.22-6.43 3.17-10.29-.07-5.25.1-10.53.5-15.77.55-7.12-.23-14.03-2.17-20.88-.42-1.48-.41-3.44.23-4.79 2.5-5.26 3.68-10.76 3.84-16.53.38-13.64 1.28-27.3-1.69-40.8-.14-.65-.3-1.31-.52-1.94-1.08-3.06-3.44-3.54-5.8-1.35-6.32 5.85-12.57 11.79-19.13 17.36-4.1 3.48-8.91 5.87-14.52 6.26-.79-3.83-.7-7.07 2.67-9.48 1.35-.96 2.32-2.43 3.61-3.5 2.35-1.96 3.92-4.19 3.66-7.43-.18-2.24.96-3.53 3.18-3.91 4.61-.79 7.6-3.53 10.1-7.43 4.95-7.73 10.51-14.97 17.61-21 1.91-1.63 3.18-4.65 3.62-7.23.67-3.91 2.13-6.98 5.35-9.34 3.9 1.66 6.64 4.4 6.91 8.71.76 12.4 7.34 22.6 12.34 33.4.32.69.83 1.35 1.38 1.88 4.56 4.4 7.79 9.64 10.79 15.21 2.18 4.04 6.2 7.05 8.83 10.91 3.05 4.49 5.57 9.36 8.06 14.19.43.84-.04 2.79-.78 3.41-.78.66-2.76.91-3.56.37-7.5-5.07-15.21-9.93-22.1-15.75-3.24-2.74-4.83-7.42-7.74-12.16-1 3.36-2.15 5.89-2.42 8.52-.34 3.19.16 6.47.13 9.71-.05 6.01.54 12.15-.53 17.99-1.3 7.09-1.1 13.92-.09 20.93.34 2.39-.47 4.94-.81 7.42-.19 1.42-.66 2.82-.72 4.25-.21 4.81-.18 9.63-.49 14.43-.19 2.99.04 5.71 1.67 8.35.48.77.37 2.42-.14 3.23-3.51 5.46-3.93 11.04-1.24 16.91 3.33 7.3 6.66 14.6 9.95 21.92 5.61 12.47 8.01 25.53 6.99 39.17-.11 1.4-1.06 2.8-1.85 4.06-3.58 5.77-7.3 11.46-10.84 17.26-1.37 2.25-.86 4.15 1.03 6.25 8.17 9.11 15.28 19.01 20.68 30.03 1.41 2.84 2.21 6.01 3.39 9.33zm-40.2-110.15c-1.52 3.19-3.25 6.18-4.38 9.37-2.07 5.89.51 11.37 1.96 16.96.86 3.31 1.31 6.72 2.01 10.07.29 1.41.76 2.79 1.25 4.54 8.12-9.33 9.76-15.37 7.4-27.65-.99-5.17-2.46-10.23-8.24-13.29z" fill="#010000"/><path d="m226.03 71.14c5.66 1.03 8.3 4.6 10.23 8.96 3.75 8.46 3.08 17.11 1.79 26.01-1.64 11.28-2.51 22.67-3.73 34.01-1.17 10.87 2.62 20.98 4.84 31.31 2.14 9.94 4.98 19.73 6.82 29.72.89 4.86.52 10.03.11 15.02-.48 5.79 2.11 9.53 6.94 11.82 3.4 1.62 7.06 2.84 10.72 3.77 7.96 2.03 14.47 5.69 17.49 13.86.15.41.41.8.67 1.16 8.38 11.55 12.92 24.61 15.14 38.58.17 1.1.43 2.25.27 3.32-1.52 10.05.8 19.79 2.27 29.61 2.64 17.73 4.11 35.55 3.79 53.49-.02.87-.8 1.73-1.22 2.59-.5-.74-1.24-1.41-1.45-2.22-3.54-13.62-7.01-27.27-10.49-40.91-.16-.65-.42-1.36-.31-1.98 1.74-9.5-2.56-17.93-4.57-26.78-1.28-5.63-1.63-11.47-2.81-17.13-.67-3.22-1.94-6.38-3.38-9.36-1.06-2.21-2.98-2.81-5.64-1.91-9.2 3.14-18.5 5.95-27.72 9.02-1.52.51-2.89 1.59-4.18 2.6-2.9 2.28-5.64 2.57-8.61.58-.58-.39-1.36-1.16-1.31-1.69.5-5.06-3.02-8.5-4.99-12.52-.87-1.77-.8-2.95-.1-4.84 1.57-4.24 3.41-8.76 3.39-13.15-.06-11.82-.96-23.65-1.75-35.46-.1-1.55-1.22-3.26-2.34-4.46-1.9-2.04-2.97-4.47-1.47-6.67 5.31-7.8 3.37-16.27 2.95-24.67-.51-10.17-.84-20.34-1.22-30.51-.03-.77-.16-1.79.25-2.28 2.83-3.42 1.63-7.01.47-10.49-2.36-7.07-2.28-14.28-1.7-21.56.1-1.22.58-2.74.06-3.64-3.08-5.34-1.41-10.92-1.08-16.41.5-8.82 1.21-17.61 1.87-26.79zm23.8 168.47c-1.1 5.05-2.38 10.13-3.28 15.28-.59 3.38 1.94 8.57 4.02 8.41 6.42-.49 12.93-.9 19.18-2.31 4.6-1.04 4.83-2.6 3.16-7.15-2.92-7.98-12.55-13.99-23.08-14.23z" fill="#010000"/></svg>