<svg enable-background="new 0 0 400 400" viewBox="0 0 400 400" xmlns="http://www.w3.org/2000/svg"><path d="m196.46 49.39c-5.05 2.56-8.01 6.03-7.99 11.5.01 2.96.61 5.32 4.34 5.27 1.09-.02 2.18.44 3.53.74 0 4.15.09 8.36-.01 12.57-.68 27.07-1.41 54.15-2.07 81.22-.03 1.3.22 2.7.71 3.9 5.68 13.91 13.72 26.35 23.74 37.52.93 1.04 2.64 1.89 4.01 1.92 4.9.12 8.48 2.73 11.69 5.89 5.83 5.75 9.4 12.92 12.55 20.68-3.8 1.54-7.39 3.02-11.01 4.43-.45.18-1.38.16-1.53-.09-1.73-2.88-4.17-3.1-7.19-2.53-.88.17-2.67-1.03-3.01-1.97-2.31-6.52-7.73-10.3-12.6-14.49-1.11-.95-3.31-.64-5.47-.98-.94-2.85-2.08-6.32-3.24-9.86-2.79.58-5.68 2.03-8.05 1.42-1.99-.51-3.36-3.41-5.41-5.71-.91 3.01-1.75 5.21-2.17 7.49-.17.9.33 2.21.98 2.92 3.56 3.87 3.88 8.83 4.04 13.53.06 1.9-2.5 3.9-4.06 6.12.47.71 1.1 1.72 1.78 2.69 2.59 3.71 3.38 7.77 2.2 12.13-1.89 6.97-1.67 13.73 1.81 20.18 3.11 5.77 4.73 11.71 2.8 18.27-.69 2.36 1.05 3.87 2.85 4.23 4.11.81 8.32 1.11 12.49 1.56 2.65.29 5.38.17 7.94.79 5.67 1.37 6.12 2.14 6.12 7.95 0 16.23.05 32.46-.08 48.7-.01 1.57-1.11 3.14-1.73 4.7-.79 2.01-2.27 4.01-2.24 6 .06 3.79-1.21 6.12-4.74 7.48-2.02.78-4.15 1.58-3.99 4.64.03.63-2.23 2.03-3.37 1.97-5.09-.27-10.15-.99-15.24-1.44-2.3-.2-4.67-.5-6.93-.16-7.52 1.13-14.99 2.56-22.49 3.79-1.02.17-2.32.15-3.15-.34-5.49-3.27-11.26-3.19-17.21-1.78-3.69.88-7.37 1.9-11.11 2.49-5.55.88-10.47-.48-14.98-4.16-10-8.17-14.33-18.84-14.78-31.41-.09-2.57-.16-5.16.02-7.72.32-4.52-.33-8.4-4.02-11.76-1.53-1.4-1.63-4.46-2.11-6.83-.11-.52.81-1.48 1.47-1.89 2.18-1.35 4.45-2.54 6.98-3.96 1.24 1.83 2.46 3.62 4.02 5.91.6-2.74 1.25-4.89 1.5-7.08.36-3.18 2.06-5.26 4.62-6.96 8.75-5.82 18.23-10.07 28.47-12.26 3.24-.69 6.85.07 10.25.49 3.99.49 7.94 1.33 11.9 2.04 4.42.79 7.02-.62 7.65-5 .48-3.36.09-6.87-.14-10.3-.15-2.22-.75-4.41-1.08-6.62-.92-6.05-2.05-12.16 4.4-16.49-4.58-2.6-4.57-6.49-4.13-10.45.47-4.22 1.53-8.42 1.59-12.64.18-12.35.31-10.42-10.91-13.76-2.12 4.17-4.12 8.39-6.37 12.47-2.46 4.48-6.26 7.28-11.44 7.73-.87.07-2.31-.7-2.66-1.45-1.71-3.76-3.2-7.62-4.62-11.5-.29-.79-.29-2.09.17-2.7 6.92-9.06 13.93-18.04 21-27.14 1.15.6 2.1 1.1 3.01 1.58.23-.25.5-.42.48-.54-.79-4.66 1.32-7.61 5.12-10.17 4.39-2.95 5.04-8.02 5.56-12.81.5-4.55.52-9.16.81-13.74.24-3.76-.17-7.3-2.47-10.52-.57-.8-.73-2.43-.31-3.29 3.16-6.41 4.16-13.32 3.95-20.24-.41-13.52-1.52-27.03-2.17-40.54-.66-13.63-1.2-27.27-1.62-40.9-.19-6.06 2.55-10.71 7.64-14.07 1.7-1.12 2.97-.93 4.49.21 3.21 2.42 5.04 5.62 4.43 9.56-.9 6.09.36 10.9 6.79 13.57zm-80.55 263.69c-2.57 6.5-1.7 11.51 3.16 16.18 1.54 1.48 1.66 5.26 1.27 7.8-1.18 7.74-.49 9.9 6.01 14.25 1.39.93 2.76 1.91 4.17 2.82 7.89 5.11 16.43 4.85 24.28 1 3.74-1.84 6.21-1.59 9.36-.13.61.28 1.24.51 1.86.76 7.05 2.88 7.06 2.89 12.14-2.97.43-.5.63-1.19.88-1.68 5 2.75 9.29 5.11 14.48 7.96 3.12-3.42 5.95-7.29 9.53-10.25 4.31-3.56 5.93-7.83 5.83-13.14-.08-4.58.8-8.88 3.88-12.53.45-.54.8-1.44.71-2.12-.52-3.93-1.18-7.84-1.79-11.76-.18 0-.36.01-.54.01-.34 1.02-.68 2.04-1.03 3.08-2.7-2.91-5.21-5.62-7.74-8.35-3.01 3.03-3.01 3.03-7.95-2.39-1.42 1.54-2.66 4.17-4.33 4.48-8.99 1.66-18.08 2.87-27.16 3.94-2.15.25-4.43-.67-7-1.11.8-1.64 1.26-2.58 2.09-4.27-1.87.76-3.04 1.26-4.23 1.72-4.35 1.71-8.66 3.55-13.08 5.06-1.51.52-3.53.74-4.89.13-1.32-.59-2.08-2.41-3.43-4.12-3.71 6.68-10.27 6.04-16.48 5.63z" fill="#010100"/><path d="m239.63 77.78c5.24 6.01 10.24 11.7 15.14 17.47.42.49.54 1.83.18 2.3-4.08 5.26-2.69 11.27-2.5 17.1.1 2.9.37 5.8.51 7.91-1.36 1.5-2.6 2.34-3.1 3.5-1.77 4.1-1.45 8.29-.02 12.45 1.31 3.8 2.46 7.66 3.93 11.4.67 1.72 2.06 3.14 2.91 4.81 4.98 9.87 10.23 19.62 14.64 29.74 1.36 3.13.61 7.29.42 10.95-.16 3.12.79 5.5 2.73 7.89 11.47 14.19 15.57 31.16 18.16 48.69.47 3.17-.18 5.68-3.25 7.25-.87.45-1.55 1.25-2.82 2.29 6.4 5.06 10.57 11.13 8.4 19.73-1.1-4.38-5.03-2.77-8.09-3.8-.17 1.43-.32 2.7-.49 4.09-1-.25-1.84-.58-2.71-.66-2.93-.28-3.67-1.97-3.83-4.72-.52-8.45-1.33-16.88-2.05-25.65-1.19.61-2.05 1.05-3.34 1.71-.23-1.05-.48-1.95-.61-2.86-.98-7.2-1.46-14.52-3.07-21.57-1.12-4.89-3.54-9.56-5.86-14.09-3.11-6.06-6.93-11.81-7.42-18.86-.07-1.03.58-2.1 1.02-3.54-.98-.56-2.53-1.74-4.28-2.38-5.65-2.07-6.76-6.56-6.64-11.8.17-7.73-2.13-10.32-10.81-11.68-1.87 4.74-4.06 9.52-5.6 14.49-.92 2.96-2.48 4.81-5.35 5.26-3.41.54-6.88.77-10.33.87-.69.02-1.85-1.06-2.05-1.83-.81-3.02-2.29-6.31-1.73-9.13.87-4.32 2.47-8.93 5.12-12.35 4.07-5.25 9.31-9.59 14.33-14.59-4.45-.93-4.93-3.77-4.6-7.23.6-6.2 1.1-12.49-4.48-16.99-1.86-1.5-4.05-2.79-6.3-3.57-5.01-1.73-8.48-6.64-7.79-11.84.09-.65.65-1.3 1.15-1.8.46-.46 1.17-.66 1.69-1.07 3.31-2.59 6.1-3.21 9.7.24 3.01 2.88 7.13 4.49 11.79 3.38 2.19-.52 3.09-1.83 3.14-3.68.04-1.2-.38-2.84-1.22-3.56-1.73-1.49-1.79-2.78-.66-4.56.83-1.32 1.32-2.84 2.14-4.17 1.09-1.77 1.45-3.23-.1-5.08-.63-.75-.61-2.62-.14-3.63 1.07-2.28 2.6-4.35 4.14-6.83z" fill="#010100"/><g fill="#fcfafa"><path d="m342.2 3.2-6.3 9.2h6.1v1.2h-8.2v-.5l6.2-9.1h-5.7v-1.2h7.8v.4z"/><path d="m344 13.7v-10.9h3.1c1.6 0 3 .5 4.1 1.4 1.1 1 1.6 2.2 1.6 3.9s-.5 3-1.6 4-2.5 1.5-4.2 1.5h-3zm1.4-9.6v8.4h1.6c1.4 0 2.5-.4 3.2-1.1.8-.8 1.2-1.8 1.2-3.2s-.4-2.4-1.2-3.1-1.8-1-3.1-1z"/><path d="m356.3 2.8v10.9h-1.4v-10.9z"/><path d="m366.6 13.2c-.8.4-1.8.6-3 .6-1.6 0-2.8-.5-3.7-1.5s-1.4-2.3-1.4-3.9c0-1.7.5-3.2 1.6-4.2s2.4-1.6 4-1.6c1 0 1.9.1 2.6.4v1.5c-.8-.4-1.6-.6-2.6-.6-1.2 0-2.2.4-3 1.2s-1.1 1.9-1.1 3.3c0 1.3.4 2.3 1.1 3.1s1.6 1.1 2.8 1.1c1.1 0 2-.2 2.8-.7v1.3z"/><path d="m368.2 13c0-.3.1-.5.3-.6.2-.2.4-.3.6-.3.3 0 .5.1.7.3s.3.4.3.6-.1.5-.3.6c-.2.2-.4.3-.7.3s-.5-.1-.6-.3c-.2-.2-.3-.4-.3-.6z"/><path d="m381.1 13.7h-1.7l-5.5-8.4c-.2-.2-.3-.5-.4-.7 0 .2.1.8.1 1.5v7.6h-1.4v-10.9h1.8l5.3 8.3c.3.4.4.6.4.8 0-.3-.1-.8-.1-1.6v-7.5h1.4v10.9z"/><path d="m389.7 13.7h-5.8v-10.9h5.6v1.2h-4.2v3.5h3.9v1.2h-3.9v3.7h4.4z"/><path d="m398.4 4.1h-3.1v9.6h-1.4v-9.6h-3.1v-1.3h7.7v1.3z"/></g></svg>