<svg enable-background="new 0 0 400 400" viewBox="0 0 400 400" xmlns="http://www.w3.org/2000/svg"><g fill="#010102"><path d="m198.07 45.36c6.27 3.07 8.56 8.45 9.22 14.71.45 4.33.87 8.73.61 13.06-.72 11.93 2.44 23.05 6.63 33.93 3.77 9.79 8.53 19.22 11.87 29.15 2.47 7.34 4.28 15.17 4.7 22.87.37 6.77-1.81 13.65-2.47 20.51-.92 9.5-5.86 16.85-11.73 23.91-9.43 11.35-18.86 22.72-27.87 34.41-4.67 6.06-7.83 13.08-8.14 20.94-.07 1.87.47 4.27 1.66 5.58 1.82 1.99 4.4 1.24 6.39-.32 2.15-1.68 4.37-3.38 6.1-5.45 2.5-2.99 4.44-6.46 6.92-9.48 1.59-1.94 3.46-3.92 5.63-5.07 6.15-3.25 9.72-1.89 12.43 4.41 4.98 11.57 6.52 23.74 5.1 36.14-2.6 22.64-8.2 44.63-16.58 65.79-3.26 8.23-8.26 15.77-13.14 23.41.7-7.44 1.39-14.89 2.11-22.33 2.15-22.26 4.18-44.54 6.58-66.78.51-4.73-2.98-6.13-6.18-4.28-3.43 1.98-6.77 4.14-10.26 5.99-3.51 1.86-7.1 3.61-10.78 5.1-2.04.83-4.32 1.16-6.52 1.51s-5.75 1.4-6.41.48c-2.08-2.89-4.13-5.95-2.92-10.38 4.96-18.1 9.42-36.33 14.21-54.48.44-1.69 1.55-3.46 2.87-4.61 6.6-5.76 9.91-13.14 10.97-21.62 1.12-8.93 1.09-17.87-1.24-26.64-.8-2.99-2.59-5.78-3.03-8.8-.65-4.39-.63-8.91-.64-13.37-.04-9.82.59-19.68-.02-29.46-.53-8.53-.04-16.66 3.35-24.57 4.96-11.57 5.37-23.87 5.67-36.2.15-6.29 2.09-12.22 4.91-18.06zm-1.78 144.76c3.4-2.05 6.72-2.92 7.93-5 3.24-5.59 6.03-11.56 8.07-17.68 1.07-3.22.31-7.09.16-10.65-.27-6.36-3.94-10.56-9.39-14.23-3.44 12.27-8.09 23.84-8.41 36.39-.08 3.35.95 6.72 1.64 11.17z"/><path d="m133.76 215.53c-2-8.47-.72-16.13.7-23.8.93-5.05 1.83-10.11 2.61-15.19.27-1.75.28-3.58.11-5.35-.54-5.65-.99-6.06-6.48-7.64-7.73-2.23-15.43-4.53-23.15-6.78-1.05-.31-2.12-.55-3.28-.85-2.67 4.82-5.17 9.55-7.88 14.16-2.59 4.42-5.68 8.33-11.59 8.89-2.22-7.33-1.82-14.4.72-21.41.91-2.52 1.81-5.06 2.9-7.51 7.54-16.92 9.7-35.27 14.07-53.03 1.07-4.35 2.28-8.48 4.69-12.4 5.42-8.84 7.31-18.87 8.83-28.98 1.61-10.68 4.83-20.69 12.7-28.61.39-.39.82-.75 1.41-1.29 10.26 6.74 17.98 15.59 22.82 26.87 3.87 9.02 6.21 18.29 6.11 28.28-.04 3.77 1.92 7.68 3.47 11.31 1.12 2.63 1.35 4.96.69 7.72-4.45 18.6-7.9 37.35-9.71 56.45-.63 6.64-3.62 13.08-5.75 19.54-3.63 11.04-7.33 22.02-8.57 33.72-.24 2.14-3.54 3.95-5.42 5.9zm8.67-80.09c-.1-.01-.19-.01-.29-.02 0-1.45.14-2.92-.02-4.36-.77-6.82-3.19-12.85-10.14-15.29-4.46-1.56-9.31-2.02-14.02-2.83-.64-.11-1.91.48-2.06 1-2.01 6.62-4.28 13.25-3.31 20.31.18 1.31 1.34 2.8 2.47 3.62 5.05 3.68 10.33 7.04 15.35 10.76 1.82 1.35 3.22 1.48 5.41.93 3.95-1 5.82-3.09 5.88-7.14.03-2.33.47-4.66.73-6.98zm-8.44-73.46c-2.26 8.22-4.69 15.9-6.36 23.75-.57 2.7-.06 6.3 1.37 8.62 3.18 5.18 7.25 9.8 10.91 14.59 5.28-2.85 8.49-5.86 7.67-11.88-.72-5.3-.37-10.73-.83-16.07-.72-8.3-4.12-14.98-12.76-19.01z"/><path d="m267.85 138.54c3.29 1.84 5.93 3.53 8.74 4.84 2.52 1.17 3.93 2.86 3.75 5.63-.38 5.91 2.19 9.95 7.51 12.4 3.86 1.78 5.7 4.61 4.96 9.05-.18 1.11.68 2.46 1.25 3.61.38.79 1.01 1.48 1.63 2.12 4.6 4.73 6.52 10.33 7.56 16.93.88 5.61 3.76 11.26 6.99 16.05 2.76 4.08 3.66 7.99 3.24 12.55-.25 2.65-.65 5.28-.96 7.75-2.9 1.02-4.42.07-5.65-2.3-6.73-12.88-13.53-25.72-20.39-38.52-4.57-8.53-9.88-16.5-17.75-22.47-2.88-2.19-5.13-2.88-8.42-.19-5.6 4.59-11.73 8.53-18.21 13.14 2.01-9.59 3.87-18.51 5.75-27.42.76-3.61 1.31-7.29 2.41-10.79 1.14-3.61.41-6.55-1.95-9.26-3.59-4.13-7.02-8.43-10.89-12.28-5.73-5.7-9.05-12.32-9.42-20.7 6.14.35 11.91.28 16.48 5.54 4.23 4.87 9.32 8.99 14.2 13.61 2.6-3.45 3.63-7.03 2.7-11.08-.43-1.85-.97-3.67-1.54-5.48-1.82-5.87-2.54-11.77-.57-17.76 1.01-3.09.65-6.01-.39-9.1-4.47-13.29-5.65-26.82-2.41-40.78 4.84.39 8.49 2.65 10.56 6.73 1.75 3.45 3.38 7.17 4 10.94 2.77 16.76 5.32 33.56 7.54 50.4.46 3.49-.32 7.39-1.45 10.79-1.66 5.01-1.51 9.84-.64 14.87.2 1.16-.3 2.81-1.09 3.7-2.19 2.5-4.71 4.73-7.54 7.48z"/></g><path d="m385.2 377.6.6-.7c.6.4 1.3.9 1.9 1.5l-.6.7c-.8-.5-1.4-1-1.9-1.5zm.3 7.1c.6-1.4 1.1-2.9 1.5-4.5.3.1.6.3.9.4-.5 1.4-1 2.9-1.5 4.4zm.2-10.1.6-.6c.7.5 1.3 1.1 1.9 1.6l-.7.7c-.6-.6-1.2-1.2-1.8-1.7zm8.4-.8h.8v.9h1.8v.7h-1.8v1.8h-.8v-.3h-1.2v.9h3.3v2.6h-.8v-.4h-2.5c0 .3 0 .6-.1.8h3.4v.7h-3.5c0 .3-.1.6-.1.8h4v.7h-3.5c.7.9 1.9 1.3 3.6 1.5-.2.2-.4.5-.6.9-1.9-.3-3.2-1.1-3.8-2.3-.5 1.1-1.8 2-3.9 2.4-.2-.3-.4-.5-.6-.8 1.9-.4 3.1-.9 3.6-1.7h-3.2v-.7h3.5c.1-.2.1-.5.2-.8h-3.3v-.7h3.4c0-.2 0-.5 0-.8h-2.4v.3h-.8v-2.6h3.3v-.9h-1.2v.3h-.8v-1.8h-1.8v-.7h1.8v-.9h.8v.9h3.2zm-4.4 5.5h2.4c0-.3 0-.6 0-.9h-2.4zm1.2-3.1h3.2v-.8h-3.2zm4.4 2.2h-2.4v.9h2.5v-.9z" fill="#fcfbfa"/><path d="m389.2 385.8h.9v1.5h1.9v-1.5h.9v1.5h2.7v6h1.1v.9h-11.3v-.9h1.1v-6h2.7zm.2 8.7.5.8c-1.2.6-2.5 1.3-4 1.9-.2-.3-.3-.6-.6-.8 1.6-.6 3-1.3 4.1-1.9zm-2-4.3h1.9v-2.1h-1.9zm0 3.1h1.9v-2.2h-1.9zm2.7-3.1h1.9v-2.1h-1.9zm0 3.1h1.9v-2.2h-1.9zm2.4 1.3c1.4.6 2.7 1.2 4.1 1.8l-.5.9c-1.5-.7-2.8-1.4-4.1-1.9zm2.2-6.5h-1.9v2.1h1.9zm-1.9 5.2h1.9v-2.2h-1.9z" fill="#fcfbfa"/></svg>