<svg enable-background="new 0 0 400 400" viewBox="0 0 400 400" xmlns="http://www.w3.org/2000/svg"><path d="m184.67 237.36c-.77-6.21-1.46-12.06-2.23-17.89-.34-2.53-.46-5.18-1.35-7.52-1.5-3.93-5.32-4.81-8.72-2.33-5.49 4.01-10.93 8.06-16.4 12.1-.35-.22-.7-.44-1.04-.67 1.51-2.97 3.02-5.95 4.54-8.91 2.28-4.44 5.09-8.69 6.75-13.35 2.39-6.72 5.24-12.91 10.39-18.07 7.29-7.31 8.43-16.07 5.22-25.71-2.87-8.6-8.22-15.61-14.22-22.07-4.25-4.57-9.23-8.47-14.02-12.51-6.09-5.14-8.95-15.39-5.66-22.54.46-1 3.6-1.85 4.68-1.26 3.59 1.95 7.21 4.17 10.08 7.03 6.95 6.95 13.47 14.32 21.1 21.43.08-1.62.82-3.63.14-4.8-4.26-7.25-2.9-14.84-1.26-22.22 2.49-11.21 1.31-22.19-.47-33.28-.37-2.29-.13-4.99.76-7.1 2.83-6.65 4.19-13.61 5.62-20.62 1.68-8.28 4.56-10.62 13.19-11.93 2.86 4.38 2.7 9.23 2.07 14.16-2.37 18.64-4.77 37.27-7.07 55.91-.19 1.51.23 3.1.38 4.65.52 5.33 1.07 10.67 1.55 16 .39 4.3.94 4.91 5.17 5.5 4.59.65 8.57.34 12.04-3.67 5.69-6.57 12.84-11.29 20.78-14.96 2.82-1.31 5.12-3.9 7.41-6.15 2.08-2.04 4.3-3.11 7.45-2.53.49 3.61.53 6.82-1.83 10.29-11.71 17.19-27.27 30.45-43.46 43.04-3.56 2.77-4.92 5.85-3.82 9.75 2.11 7.5 4.63 14.89 7.15 22.26.4 1.16 1.64 2.08 2.61 3 7.29 6.96 14.75 13.74 21.83 20.9 2.54 2.57 4.19 6.03 6.63 9.65-5.12 1.42-9.17 2.56-13.24 3.67-.4.11-1.05.22-1.25.01-2.84-2.92-6.88-5.42-8.19-8.94-3.65-9.77-9.89-15.71-20.61-17.44-1.12 4.91-2.27 9.87-3.39 14.83-.32 1.42-.46 2.89-.91 4.26-1.62 4.92-1.58 9.73-.12 14.76 1.53 5.32-2.13 11.38-8.28 13.27z" fill="#010102"/><path d="m225.55 293.9c0-10.82.04-21.21-.08-31.6-.01-.7-1.2-1.96-1.88-1.99-12.73-.54-25.48-1.44-38.2-1.14-6.25.14-12.4 2.75-18.67 3.86-6.01 1.07-12.1 1.96-18.19 2.31-3.81.22-6.85-1.81-8.09-5.79-.65-2.08-.45-3.82 1.89-4.56 2.65-.84 5.32-1.62 8.01-2.26 3.24-.76 6.72-.87 9.76-2.09 11.57-4.64 23.74-3.78 35.74-4.28 8.61-.36 17.23-.42 25.51-3.19 2.32-.77 4.58-1.77 6.81-2.78 3.92-1.78 7.72-.33 9.31 3.55 6.02 14.66 10.1 29.82 11.79 45.6.08.78.15 1.56.24 2.34.46 4.17-.37 7.73-4.43 9.92-1.16.63-2.2 1.56-3.15 2.5-5.04 5.03-10.53 7.69-18.17 6.45-4-.65-8.43 1.69-12.71 2.37-4.36.69-8.78 1.44-13.17 1.37-4.98-.08-9.78.13-14.49 1.89-2.61.98-5.31 1.92-8.05 2.28-5.11.67-7.55 3.91-8.02 8.43-.99 9.44-1.58 18.92-2.15 28.39-.14 2.33 2.85 4.28 6.62 4.29 4.8.02 9.62-.12 14.41-.52 16.6-1.39 33.19-2.96 49.79-4.35 3.22-.27 6.55-.47 9.7.04 2.36.38 5.01 1.47 6.69 3.11 2.8 2.74 2.3 4.78-.88 7-7.57 5.28-16.06 7.65-25.21 8-15.63.6-31.28 1.04-46.9 1.96-7.43.44-13.48-1.2-19.37-6.17-4.99-4.2-7.39-8.22-6.95-14.88.64-9.69.31-19.46.09-29.2-.08-3.75-.94-7.49-1.5-11.23-.18-1.21-.64-2.39-.75-3.6-.44-5.1.48-6.14 5.5-6.91 13.37-2.05 26.72-4.19 40.09-6.23 1.75-.27 3.55-.21 5.33-.26 1.56-.05 3.42.51 4.62-.16 5.94-3.28 12.4-2.07 19.11-2.47z" fill="#010102"/><g fill="#fcfbfa"><path d="m385.2 377.6.6-.7c.6.4 1.3.9 1.9 1.5l-.6.7c-.8-.5-1.4-1-1.9-1.5zm.3 7.1c.6-1.4 1.1-2.9 1.5-4.5.3.1.6.3.9.4-.5 1.4-1 2.9-1.5 4.4zm.2-10.1.6-.6c.7.5 1.3 1.1 1.9 1.6l-.7.7c-.6-.6-1.2-1.2-1.8-1.7zm8.4-.8h.8v.9h1.8v.7h-1.8v1.8h-.8v-.3h-1.2v.9h3.3v2.6h-.8v-.4h-2.5c0 .3 0 .6-.1.8h3.4v.7h-3.5c0 .3-.1.6-.1.8h4v.7h-3.5c.7.9 1.9 1.3 3.6 1.5-.2.2-.4.5-.6.9-1.9-.3-3.2-1.1-3.8-2.3-.5 1.1-1.8 2-3.9 2.4-.2-.3-.4-.5-.6-.8 1.9-.4 3.1-.9 3.6-1.7h-3.2v-.7h3.5c.1-.2.1-.5.2-.8h-3.3v-.7h3.4c0-.2 0-.5 0-.8h-2.4v.3h-.8v-2.6h3.3v-.9h-1.2v.3h-.8v-1.8h-1.8v-.7h1.8v-.9h.8v.9h3.2zm-4.4 5.5h2.4c0-.3 0-.6 0-.9h-2.4zm1.2-3.1h3.2v-.8h-3.2zm4.4 2.2h-2.4v.9h2.5v-.9z"/><path d="m389.2 385.8h.9v1.5h1.9v-1.5h.9v1.5h2.7v6h1.1v.9h-11.3v-.9h1.1v-6h2.7zm.2 8.7.5.8c-1.2.6-2.5 1.3-4 1.9-.2-.3-.3-.6-.6-.8 1.6-.6 3-1.3 4.1-1.9zm-2-4.3h1.9v-2.1h-1.9zm0 3.1h1.9v-2.2h-1.9zm2.7-3.1h1.9v-2.1h-1.9zm0 3.1h1.9v-2.2h-1.9zm2.4 1.3c1.4.6 2.7 1.2 4.1 1.8l-.5.9c-1.5-.7-2.8-1.4-4.1-1.9zm2.2-6.5h-1.9v2.1h1.9zm-1.9 5.2h1.9v-2.2h-1.9z"/></g></svg>