<svg enable-background="new 0 0 400 400" viewBox="0 0 400 400" xmlns="http://www.w3.org/2000/svg"><path d="m206.88 375.06c-1.52-2.54-3.18-4.82-4.32-7.34-1.62-3.56-2.98-7.17-.67-11.17.82-1.42.81-3.47.77-5.23-.3-12.87-.64-25.74-1.15-38.6-.09-2.28-.94-4.57-1.67-6.78-1.5-4.57-3.01-9.14-4.8-13.59-.62-1.54-2.07-2.76-3.44-4.51-10 13.83-21.97 23.9-37.35 30.18-.66-4.13-.98-7.71 3.1-10.15 4.95-2.96 6.19-8.57 9.03-13.04.86-1.34 2.49-2.2 3.78-3.25 1.24-1.01 2.87-1.74 3.7-3 5.13-7.87 10.14-15.83 15.03-23.85.79-1.29 1.2-3.14 1.03-4.65-1.53-13.79-3.22-27.56-4.88-41.34-.09-.77-.12-1.71-.57-2.25-4.52-5.37-8.45-11.54-13.88-15.78-7-5.47-13.27-11.19-17.62-18.96-2.3-4.11-5.51-7.38-10.04-8.97-1.04-.36-2.62-.19-3.56.39-2.76 1.69-5.25 3.83-8 5.53-.75.46-2.38.43-3.08-.08-16.73-12.44-23.85-29.79-25.06-50.01-.25-4.1.95-7.86 3.54-11.27 3.04-4.01 5.71-8.29 8.53-12.46.44-.65 1.2-1.29 1.24-1.96.38-6.01 5.33-7.78 9.48-10.14 2.94-1.68 4.92-3.64 4.95-7.25.01-.75 1.1-2.18 1.47-2.11 1.74.31 4.5.6 4.94 1.7 4.62 11.3 11.66 21.62 13.12 34.26.58 5.05 3.28 9.9 5.26 14.74 2.19 5.35-.13 9.92-2.1 14.59-.77 1.82-1.93 3.49-2.53 5.35-.73 2.26.08 3.99 1.79 5.92 4.74 5.34 9.09 11.03 13.44 16.7 3.53 4.6 6.7 9.5 12.68 12.84.55-2.95 1.53-5.52 1.4-8.02-.57-10.49-1.34-20.96-2.32-31.42-.48-5.11-1.5-10.18-2.42-15.24-.59-3.24-.99-6.48-3.71-9.06-1.17-1.11-1.48-3.43-1.65-5.25-1.29-13.58-2.38-27.18-3.7-40.76-.27-2.8.12-4.83 1.94-7.27 3.11-4.17 5.74-8.84 7.75-13.65 4.89-11.73 11.62-22.13 20.57-31.14 2.56-2.58 4.76-2.81 7.24-.1.94 1.03 1.58 2.44 2.02 3.78 4.86 14.62 9.7 29.25 14.42 43.92.48 1.48.2 3.21.23 4.82.01.33-.14.65-.21.98-2.19 10.5-6.21 19.77-13.77 27.98-9.17 9.96-14.28 22.14-12.8 36.27.1.96 0 2.11-.44 2.94-2.18 4.12-1.41 8.1 0 12.25 2.92 8.61 5.06 17.38 4.63 26.62-.11 2.3.71 4.64.88 6.97.35 4.86.52 9.73.85 14.6.08 1.25.49 2.48 1.31 3.75 5.26-9.86 13.6-17.87 15-29.46.18-1.51 1.51-2.91 2.39-4.31 5.28-8.41 10.98-16.6 15.78-25.27 4.46-8.06 4.11-17.07 2.71-25.92-1.23-7.81-1.33-15.38 2.67-22.51.44-.77.83-1.63 1.46-2.23 10.57-10.16 21.18-20.28 31.78-30.4 2.29-2.18 4.86-3.19 7.89-1.69.93.46 2.03 1.07 2.48 1.91 6.74 12.56 9.56 25.87 5.89 39.83-1.48 5.62-4.63 10.8-7.07 16.15-.22.48-.68.94-1.14 1.19-8.89 4.95-14.5 13.16-20.69 20.78-4.29 5.28-9.32 9.54-15.56 12.47-2.2 1.03-4.4 2.89-5.66 4.94-2.85 4.64-5.53 9.48-7.54 14.53-4.42 11.08-9.91 21.52-16.79 31.25-2.32 3.28-4.4 6.74-6.55 10.14-4.63 7.34-6.17 15.84-4.93 23.88 1.24 8.09 3.02 16.7 10.52 22.46 9.4 7.23 18.44 14.92 27.62 22.43 5.66 4.63 11.02 9.56 14.56 16.07 1.36 2.51 2.24 5.29 3.68 8.79-6.29-1.43-11.9-.31-16.58-5.4-6.45-7-14.37-12.42-23.34-16.03-1.41-.57-2.95-.85-4.46-1.27-2.37 4.37-2.35 8.74-1.09 12.96 2.41 8.08 2.26 15.92-.2 24.02-.85 2.81.49 6.3.89 9.47.19 1.55.77 3.09.72 4.62-.22 6.46-.66 12.91-.92 19.37-.2 5.47-2.06 7.94-7.9 9.8zm-24.3-266.51c6.72-2.57 10.78-6.19 10.96-13.15.09-3.32 1.24-6.6 1.47-9.93.49-7.21.89-14.44.9-21.67 0-1.89-1.56-3.78-2.61-6.11-2.61 2.42-4.33 4.38-6.4 5.85-3.68 2.63-5.41 6.29-5.61 10.54-.36 7.57-.53 15.16-.37 22.74.08 3.83 1.05 7.64 1.66 11.73zm70.42 25.93c.79-.46 1.3-.67 1.7-1.01 5.3-4.45 10.61-8.89 15.85-13.41.61-.53 1.07-1.44 1.24-2.25 1.15-5.34 2.39-10.68 3.2-16.08.33-2.22.17-4.78-.65-6.84-1.45-3.65-4.87-3.95-7.32-.99-3.7 4.48-7.62 8.8-10.99 13.51-2.03 2.84-4.32 6.23-4.51 9.49-.32 5.7.88 11.5 1.48 17.58zm-125.72 19.33c3.26-.53 5.42-1.59 6.19-4.93 2.03-8.75 3.31-17.58 2.56-26.55-.49-5.84-2.87-10.85-8.7-14.03-1.82 6.76-4.7 12.57-9.75 17.15-.55.5-.53 1.85-.46 2.78.75 9.54 4.92 17.71 10.16 25.58z" fill="#010102"/><g fill="#fcfbfa"><path d="m385.2 377.6.6-.7c.6.4 1.3.9 1.9 1.5l-.6.7c-.8-.5-1.4-1-1.9-1.5zm.3 7.1c.6-1.4 1.1-2.9 1.5-4.5.3.1.6.3.9.4-.5 1.4-1 2.9-1.5 4.4zm.2-10.1.6-.6c.7.5 1.3 1.1 1.9 1.6l-.7.7c-.6-.6-1.2-1.2-1.8-1.7zm8.4-.8h.8v.9h1.8v.7h-1.8v1.8h-.8v-.3h-1.2v.9h3.3v2.6h-.8v-.4h-2.5c0 .3 0 .6-.1.8h3.4v.7h-3.5c0 .3-.1.6-.1.8h4v.7h-3.5c.7.9 1.9 1.3 3.6 1.5-.2.2-.4.5-.6.9-1.9-.3-3.2-1.1-3.8-2.3-.5 1.1-1.8 2-3.9 2.4-.2-.3-.4-.5-.6-.8 1.9-.4 3.1-.9 3.6-1.7h-3.2v-.7h3.5c.1-.2.1-.5.2-.8h-3.3v-.7h3.4c0-.2 0-.5 0-.8h-2.4v.3h-.8v-2.6h3.3v-.9h-1.2v.3h-.8v-1.8h-1.8v-.7h1.8v-.9h.8v.9h3.2zm-4.4 5.5h2.4c0-.3 0-.6 0-.9h-2.4zm1.2-3.1h3.2v-.8h-3.2zm4.4 2.2h-2.4v.9h2.5v-.9z"/><path d="m389.2 385.8h.9v1.5h1.9v-1.5h.9v1.5h2.7v6h1.1v.9h-11.3v-.9h1.1v-6h2.7zm.2 8.7.5.8c-1.2.6-2.5 1.3-4 1.9-.2-.3-.3-.6-.6-.8 1.6-.6 3-1.3 4.1-1.9zm-2-4.3h1.9v-2.1h-1.9zm0 3.1h1.9v-2.2h-1.9zm2.7-3.1h1.9v-2.1h-1.9zm0 3.1h1.9v-2.2h-1.9zm2.4 1.3c1.4.6 2.7 1.2 4.1 1.8l-.5.9c-1.5-.7-2.8-1.4-4.1-1.9zm2.2-6.5h-1.9v2.1h1.9zm-1.9 5.2h1.9v-2.2h-1.9z"/></g></svg>