<svg enable-background="new 0 0 400 400" viewBox="0 0 400 400" xmlns="http://www.w3.org/2000/svg"><path d="m209.74 24.78c.61 1.57 1.8 3.16 1.73 4.7-.77 16.19-1.77 32.37-2.63 48.56-.16 3.04-.02 6.09-.02 9.13.41.13.83.26 1.24.39 1.09-1.02 2.2-2.02 3.28-3.05 9.97-9.48 19.86-19.05 29.97-28.39 1.9-1.76 4.65-2.6 7.25-4 1.08 5.56-1.31 10.94-5.8 13.01-2.2 1.01-3.3 2.47-4.63 4.3-2.34 3.25-5.16 6.19-8.03 9.01-4.56 4.46-9.18 8.88-14.03 13.01-5.31 4.51-7.85 10.48-9.72 16.86-.93 3.18-.54 6.02 2.36 8.4 3.02 2.47 5.26 6.11 8.56 7.97 9.45 5.35 15.75 13.72 21.11 22.5 2.57 4.22 1.95 10.4 2.73 15.69.11.73-.19 1.51-.11 2.25.38 3.17 1.25 6.33 1.19 9.48-.22 12.72.2 25.56-1.42 38.13-1.23 9.55-1.71 19.68-7.07 28.3-2.57 4.14-5.09 8.42-9.98 10.5-1.34.57-2.86 1.66-3.43 2.91-2.94 6.41-8.04 11.03-13.02 15.59-7.44 6.83-7.75 7.78-1.04 15.24 7.04 7.82 14.02 15.7 21.15 23.43 3.02 3.27 6.37 6.23 9.51 9.39.6.61.94 1.48 1.6 2.54-.84.16-1.58.56-1.96.34-5.84-3.34-12.67-4.94-17.62-9.86-1.69-1.69-3.26-3.51-4.87-5.27-.37-.41-.63-1.11-1.06-1.23-4.53-1.25-6.69-4.91-9.09-8.46-1.42-2.09-3.13-4.17-6.4-3.88-1.84 4.5-1.35 9.09-.6 13.74.45 2.82.97 5.69.89 8.52-.11 4-.59 8.01-1.23 11.97-.25 1.5-1.39 2.86-2.27 4.55 3.13 1.77 2.76 4.64 1.39 7.74-.31.7-.64 1.56-.5 2.26 1.44 7.21-1.96 13.55-3.52 20.22-.76 3.24-1.14 6.56-1.8 9.83-.23 1.13-.76 2.2-1.15 3.3-.5-.05-1-.09-1.5-.14-.27-2.76-.75-5.52-.77-8.28-.05-8.16.21-16.32.1-24.48-.11-7.61-.54-15.21-.83-22.81-.03-.89-.18-1.81-.02-2.67 1.02-5.52 2.16-11.01 3.13-16.54.26-1.51.31-3.14.01-4.63-.21-1.05-1.12-2.73-1.8-2.77-1.51-.09-3.76.16-4.52 1.17-6.06 8.05-14.59 12.89-23.11 17.5-5.79 3.13-12.27 4.98-18.37 7.37-1.78-2.53-.37-3.72.8-5.08 8.55-10 18.78-18.17 28.74-26.65 3.39-2.89 6.31-6.34 9.55-9.41 2.09-1.99.09-3.68-.11-5.51-.13-1.14-.36-2.33-.17-3.43.44-2.48-2.87-5.71-5.31-4.71-2.35.97-3.58-.2-5.34-1.29-7.35-4.56-12.16-11.65-16.84-18.38-3.16-4.55-3.98-11.09-4.68-16.89-.65-5.35.3-10.88.45-16.34.29-10.51-.18-21.09.9-31.51 1.84-17.84 7.83-34.12 21.18-46.91 6.05-5.8 12.44-11.27 18.1-17.42 2.61-2.84 4.12-6.85 5.59-10.54.83-2.08-.29-4.15-2.49-5.27-2.3-1.17-3.3-3-3.41-5.64-.05-1.27-1.02-2.58-1.79-3.72-2.23-3.3-4.58-6.52-6.85-9.8-3.81-5.49-7.43-11.13-11.44-16.47-3.36-4.46-5.24-9.32-5.53-14.82-.04-.75.48-1.53.74-2.3.73.37 1.71.56 2.16 1.15 8.45 10.96 16.8 22.01 25.31 32.93 1 1.29 2.78 1.98 4.2 2.95.84-1.27 1.87-2.46 2.47-3.83.47-1.08.66-2.42.57-3.61-.54-6.67.1-13.16 2.48-19.45.26-.7.35-1.57.21-2.3-1.48-8.27 2.2-15.78 3.51-23.63.3-1.79 1.51-3.43 2.3-5.15.46-.08.94-.19 1.42-.31zm-10.08 99.98c-.32.81-.7 2.03-1.27 3.16-.52 1.02-1.03 2.44-1.91 2.81-7.53 3.18-12.51 9.73-19.03 14.12-5.9 3.98-7.91 10.33-11.24 15.73-2.56 4.15-3.21 9.75-3.78 14.81-1.37 12.21-1.95 24.51-3.29 36.72-1.47 13.45.21 26.1 9.37 36.55 5.12 5.85 11.17 10.92 16.99 16.12 4.7 4.21 8 3.91 12.56-.3 3.68-3.39 7.29-6.93 11.35-9.82 7.1-5.05 12.11-11.89 16.71-18.96 3.86-5.94 4.62-12.93 4.72-19.98.1-7.15-.01-14.38 1.02-21.42 1.68-11.48 2.72-22.95.73-34.38-.82-4.7-2.1-10.34-5.26-13.4-8.3-8.08-16.67-16.36-27.67-21.76z" fill="#010100"/><g fill="#fcfafa"><path d="m342.2 3.2-6.3 9.2h6.1v1.2h-8.2v-.5l6.2-9.1h-5.7v-1.2h7.8v.4z"/><path d="m344 13.7v-10.9h3.1c1.6 0 3 .5 4.1 1.4 1.1 1 1.6 2.2 1.6 3.9s-.5 3-1.6 4-2.5 1.5-4.2 1.5h-3zm1.4-9.6v8.4h1.6c1.4 0 2.5-.4 3.2-1.1.8-.8 1.2-1.8 1.2-3.2s-.4-2.4-1.2-3.1-1.8-1-3.1-1z"/><path d="m356.3 2.8v10.9h-1.4v-10.9z"/><path d="m366.6 13.2c-.8.4-1.8.6-3 .6-1.6 0-2.8-.5-3.7-1.5s-1.4-2.3-1.4-3.9c0-1.7.5-3.2 1.6-4.2s2.4-1.6 4-1.6c1 0 1.9.1 2.6.4v1.5c-.8-.4-1.6-.6-2.6-.6-1.2 0-2.2.4-3 1.2s-1.1 1.9-1.1 3.3c0 1.3.4 2.3 1.1 3.1s1.6 1.1 2.8 1.1c1.1 0 2-.2 2.8-.7v1.3z"/><path d="m368.2 13c0-.3.1-.5.3-.6.2-.2.4-.3.6-.3.3 0 .5.1.7.3s.3.4.3.6-.1.5-.3.6c-.2.2-.4.3-.7.3s-.5-.1-.6-.3c-.2-.2-.3-.4-.3-.6z"/><path d="m381.1 13.7h-1.7l-5.5-8.4c-.2-.2-.3-.5-.4-.7 0 .2.1.8.1 1.5v7.6h-1.4v-10.9h1.8l5.3 8.3c.3.4.4.6.4.8 0-.3-.1-.8-.1-1.6v-7.5h1.4v10.9z"/><path d="m389.7 13.7h-5.8v-10.9h5.6v1.2h-4.2v3.5h3.9v1.2h-3.9v3.7h4.4z"/><path d="m398.4 4.1h-3.1v9.6h-1.4v-9.6h-3.1v-1.3h7.7v1.3z"/></g></svg>