<svg enable-background="new 0 0 400 400" viewBox="0 0 400 400" xmlns="http://www.w3.org/2000/svg"><g fill="#010102"><path d="m179.08 126.97c2.4 12.59 4.69 24.77 7.07 36.93.18.91.71 1.97 1.42 2.52 5.09 3.98 8.39 9.22 10.95 15.02 2.13 4.84 5.61 9.23 4.8 15.05-.07.51.92 1.59 1.55 1.71 2.37.44 3.13 2.15 3.98 4.05 4.7 10.5 9.44 20.99 14.27 31.43.83 1.79.79 3.18-.02 4.99-.73 1.64-.82 3.64-.83 5.49-.02 2.9.2 5.81.44 8.71.26 3.12.26 5.91-3.26 7.55-.86.4-1.18 2.46-1.32 3.79-.98 9.44-1.37 18.97-2.92 28.31-1.01 6.1-3.48 11.99-5.65 17.84-1.44 3.88-3.48 7.51-7.54 9.47-.64.31-1.35 1.39-1.3 2.06.49 6.94-3.47 12.29-6.14 18.15-2.39 5.24-4.18 10.76-6.37 16.1-3.45 8.43-9.67 14.32-17.52 18.63-.53.29-1.3.15-2.25.23.65-10.35 1.71-20.27 11.63-26.62-1.57.11-3.13.22-5.68.4.65-5.86.66-11.59 2-16.99 3.04-12.24 6.53-24.38 10.3-36.42.97-3.1 3.66-5.66 5.75-8.75-2.63-6.45.39-12.29 3.76-18.16.86-1.49 1.47-3.58 1.15-5.18-.56-2.87-.62-5.52.85-8.03 4.56-7.8 3.85-16.01 3-24.61-.86-8.72-5.58-15.43-9.26-22.73-4.77-9.46-9.86-18.77-14.6-27.75 1.8-2.53 3.41-4.8 5.49-7.72-3.74-.74-6.41-1.36-9.12-1.77-1.89-.29-2.96-1.11-3.24-3.09-.29-2.1-.97-4.14-1.25-6.24-.39-2.9-1.09-5.39-4.44-6.23-.7-.17-1.4-1.13-1.71-1.89-5.69-13.66-8.26-27.92-4.06-42.21 2.28-7.77 7.36-14.71 11.21-22.01.24-.46.76-.87 1.24-1.07 2.73-1.14 3.73-2.8 2.23-5.69-.34-.65.08-1.93.51-2.73 2.29-4.23 4.66-8.41 7.07-12.57 1.84-3.18 4.85-4.42 8.33-4.94 1.59-.24 3.12-.81 4.84-1.28-3.76-6.53-1.18-12.15 1.91-17.07 3.73-5.93 8.65-11.11 12.86-16.76 1.85-2.48 4.16-1.68 6.01-.93 1.46.59 3.01 2.35 3.42 3.88.8 3.03-.26 5.87-2.37 8.36-1.67 1.97-3.91 3.97-1.85 7.07.23.35-.16 1.21-.42 1.77-1.96 4.34-4.03 8.63-5.93 12.99-3.47 7.98-6.84 16-10.29 23.98-.3.69-.81 1.47-1.43 1.8-4.89 2.56-5.66 7.19-6.64 11.99-.55 2.73-2.02 5.42-3.61 7.77-1.86 2.74-2.78 5.5-2.45 8.77.15 1.44-.03 2.91.04 4.36.17 3.74.8 7.66-4.61 8.27z"/><path d="m268.65 362.88c-2.62-11.55-2.56-22.71-.87-33.97.43-2.85-.42-5.86-.45-8.8-.02-1.9.25-3.84.66-5.71.67-2.99 2.01-5.9 2.26-8.91.58-7.01.68-14.06.98-21.1.04-1-.26-2.37.28-2.95 3.19-3.42.67-6.84.54-10.35-.18-4.91.87-9.87 1.38-14.66 4.98-.38 8.25 1.35 9.61 5.46 2.24 6.76 5.03 13.09 10.07 18.29.57.59.54 2.02.38 2.99-.22 1.3-.74 2.58-1.31 3.78-1.65 3.43-1.57 6.56.26 10.09.91 1.76.42 4.54-.1 6.7-.88 3.65-1.05 7.13-.45 10.88.43 2.73-.31 5.71-.87 8.51-2.1 10.51-4.51 20.96-6.44 31.5-.93 5.07-3.64 6.27-7.28 6.98-2.72.53-5.49.81-8.65 1.27z"/><path d="m126.68 350.76c.43-2.65 1.04-5.37 1.23-8.11.09-1.26-.27-3.04-1.12-3.78-1.82-1.58-2.35-3.27-2.2-5.56.27-3.91.25-7.83.4-11.74.14-3.53.49-6.86 2.06-10.29 1.46-3.2 1.14-7.2 1.66-10.84.33-2.29.14-4.98 1.29-6.79 5.6-8.84 5.9-18.8 6.75-28.68.13-1.56-.36-3.42.33-4.63 1.32-2.32 2.93-5.29 5.1-6.05 1.73-.6 4.77 1.3 6.65 2.81 1.53 1.23 2.35 3.46 3.22 5.37.83 1.82 1.26 3.82 1.97 5.7 1.41 3.74 2.36 7.28-.65 10.9-1.12 1.34-1.27 3.53-1.72 5.36-2.71 11.05-5.36 22.11-8.08 33.16-.21.84-.65 1.69-1.2 2.36-2.84 3.46-4.33 6.9-2.15 11.52 1.12 2.38.03 5.37-2.55 6.6-3.55 1.7-4.04 4.35-3.51 7.69.02.11.02.22.02.33.52 6.49-.85 7.41-7.5 4.67z"/><path d="m123.6 88.22c-.91 5.78-2.1 12.15-2.87 18.57-1.06 8.86-1.35 17.84-2.79 26.63-1.2 7.34-3.52 14.5-5.54 21.68-.26.94-1.66 2.11-2.62 2.19-1.8.14-3.93.94-5.24-1.59-4-7.74-5.43-15.86-3.69-24.37 1.68-8.2 3.7-16.33 5.66-24.47.24-.99.84-2.06 1.59-2.74 3.38-3.01 4.26-5.09 2.44-9.47-2.57-6.19-.55-10.83 4.05-14.91 3.11-2.76 6.71-1.85 8.04 2.19.59 1.77.6 3.72.97 6.29z"/><path d="m250.8 172.3c.68-.4 1.43-.85 2.27-1.34-.21-.3-.32-.66-.55-.77-1.21-.58-2.47-1.04-3.67-1.64-3.04-1.52-4.71-4.57-3.63-7.78 1.69-5.05 1.34-9.81-.62-14.68-.58-1.44-.49-3.3-.26-4.9.62-4.31 1.37-8.61 2.28-12.87 1-4.66 1.17-9.18-.05-13.91-.64-2.48.14-5.31.3-8.62 3.04 1.18 5.07 1.97 7.62 2.96-2.31 3.74.61 5.22 2.36 7.79 3.06 4.51 5.58 9.8 6.72 15.1 2.97 13.84.88 27.56-2.89 41.06-.73 2.63-2.37 4.08-4.98 4.1-2.76 0-4.66-1.33-4.9-4.5z"/></g><path d="m385.2 377.6.6-.7c.6.4 1.3.9 1.9 1.5l-.6.7c-.8-.5-1.4-1-1.9-1.5zm.3 7.1c.6-1.4 1.1-2.9 1.5-4.5.3.1.6.3.9.4-.5 1.4-1 2.9-1.5 4.4zm.2-10.1.6-.6c.7.5 1.3 1.1 1.9 1.6l-.7.7c-.6-.6-1.2-1.2-1.8-1.7zm8.4-.8h.8v.9h1.8v.7h-1.8v1.8h-.8v-.3h-1.2v.9h3.3v2.6h-.8v-.4h-2.5c0 .3 0 .6-.1.8h3.4v.7h-3.5c0 .3-.1.6-.1.8h4v.7h-3.5c.7.9 1.9 1.3 3.6 1.5-.2.2-.4.5-.6.9-1.9-.3-3.2-1.1-3.8-2.3-.5 1.1-1.8 2-3.9 2.4-.2-.3-.4-.5-.6-.8 1.9-.4 3.1-.9 3.6-1.7h-3.2v-.7h3.5c.1-.2.1-.5.2-.8h-3.3v-.7h3.4c0-.2 0-.5 0-.8h-2.4v.3h-.8v-2.6h3.3v-.9h-1.2v.3h-.8v-1.8h-1.8v-.7h1.8v-.9h.8v.9h3.2zm-4.4 5.5h2.4c0-.3 0-.6 0-.9h-2.4zm1.2-3.1h3.2v-.8h-3.2zm4.4 2.2h-2.4v.9h2.5v-.9z" fill="#fcfbfa"/><path d="m389.2 385.8h.9v1.5h1.9v-1.5h.9v1.5h2.7v6h1.1v.9h-11.3v-.9h1.1v-6h2.7zm.2 8.7.5.8c-1.2.6-2.5 1.3-4 1.9-.2-.3-.3-.6-.6-.8 1.6-.6 3-1.3 4.1-1.9zm-2-4.3h1.9v-2.1h-1.9zm0 3.1h1.9v-2.2h-1.9zm2.7-3.1h1.9v-2.1h-1.9zm0 3.1h1.9v-2.2h-1.9zm2.4 1.3c1.4.6 2.7 1.2 4.1 1.8l-.5.9c-1.5-.7-2.8-1.4-4.1-1.9zm2.2-6.5h-1.9v2.1h1.9zm-1.9 5.2h1.9v-2.2h-1.9z" fill="#fcfbfa"/></svg>