<svg enable-background="new 0 0 400 400" viewBox="0 0 400 400" xmlns="http://www.w3.org/2000/svg"><g fill="#fbfafa"><path d="m37.59 393.81c-.92.31-1.52.05-2-.78-.7-1.2-1.52-2.34-2.47-3.78v4.59c-.55.03-.95.05-1.41.07-.03-.37-.06-.64-.06-.91 0-1.91 0-3.81 0-5.7 1.13-.41 1.77-.03 2.29.91.62 1.11 1.38 2.14 2.31 3.19v-4.2h1.35v6.61z"/><path d="m12.94 393.88v-6.75c1.9.19 3.93-.54 5.37 1.29.8 1.01.78 2.88.03 3.97-1.37 1.97-3.4 1.51-5.4 1.49m1.45-1.22c2.04.12 2.92-.58 2.89-2.21-.03-1.51-.98-2.19-2.89-2z"/><path d="m11.81 393.87h-5.49c.68-2.18 2.47-3.48 3.51-5.45h-3.08v-1.21h5.29c-.71 2.13-2.44 3.48-3.47 5.51.86 0 1.63.04 2.39-.01.79-.05 1.14.21.85 1.16"/><path d="m39.33 393.86v-6.61h3.7v1.07h-2.22v1.52c.68.04 1.34.09 2.07.13v1.07c-.72.05-1.38.09-2.1.14v1.48h2.4v1.19h-3.85z"/><path d="m27.71 388.56c-1.15-.3-2.46-.61-3.1.64-.37.73-.41 1.93-.06 2.67.63 1.35 1.99.93 3.17.68.35.94-.01 1.32-.93 1.46-1.62.25-3.05-.27-3.76-1.48-.73-1.24-.6-3.03.31-4.17.88-1.11 2.71-1.7 4-1.16.32.13.44.74.65 1.12-.1.08-.19.16-.28.24"/><path d="m49.15 387.24v1.07c-.59.02-1.17.05-1.87.08v5.44h-1.48v-5.44h-1.85c-.05-.4-.08-.73-.13-1.15z"/><path d="m20.06 387.21h1.33v6.62h-1.33z"/><path d="m30.68 393.25c-.49.38-.8.79-1.05.76-.32-.05-.6-.45-.9-.7.26-.24.51-.64.8-.67.29-.04.62.3 1.15.61"/></g><path d="m135.17 315.89c1.7-3.46 3.1-6.31 4.51-9.17.94-1.9 2.03-3.74 2.84-5.7 6.08-14.62 15.09-27.36 25.45-39.17 1.2-1.37 3.55-2.09 5.48-2.4 3.18-.5 4.87-1.27 5.25-5.17 1.17-12.12 2.95-24.19 4.65-36.26.26-1.88-.14-2.85-1.76-3.74-3.02-1.68-5.92-3.57-8.93-5.41 6.14-3.82 7.53-3.74 12.41.9 1.44-2.27 2.85-4.48 4.51-7.08-4.38-2.39-8.54-4.66-13.05-7.13-3.38 3.43-6.67 6.94-10.14 10.25-4.17 3.98-9.14 6.41-14.98 6.64-.93.04-2.3-.35-2.78-1.03-2.3-3.27-4.36-6.71-6.58-10.2 6.29-6.6 12.33-13.21 18.68-19.5 4.47-4.43 6.18-10.28 8.91-15.6 3.47-6.76 4.74-7.21 11.39-3.35.76.44 2.8.21 3.07-.32.83-1.61 2.07-4.15 1.39-5.2-2.34-3.63-2.89-7.29-2.58-11.47.29-3.98-.7-7.92-3.66-10.82-5.18-5.07-10.8-9.71-15.82-14.93-3.2-3.33-5.73-7.32-8.43-11.11-1.66-2.34-1.35-4.52 1.09-6.28.6-.44 1.01-1.14 1.62-1.85-2.32-3.27-4.56-6.43-6.86-9.67 1.22-1.05 2.29-1.97 3.67-3.15-1.65-.58-2.96-1.04-4.28-1.49-5.04-1.71-7.38-5.44-8.04-10.53-.22-1.71.14-3.01 1.97-3.14 3.18-.23 6.39-.4 9.56-.24 1.49.08 2.96.95 4.42 1.5 8.37 3.13 14.98 8.19 18.71 16.61 1.12 2.53 2.79 4.84 4.31 7.18 2.92 4.52 7.08 7.33 12.49 8.74 3.71-5.27 5.38-11.08 3.79-17.37-1.7-6.7-3.92-13.28-6.03-19.87-.31-.98-1.12-1.92-1.94-2.6-13.73-11.46-15.44-27.5-4.24-41.69 12.71 5.41 22.28 14.22 28.13 26.8 6.17 13.28 8.64 27.68 12 41.79 1.16 4.89 1.69 9.93 2.96 14.79 1.21 4.65.67 8.9-.95 13.35-3.06 8.39-5.69 16.94-8.62 25.38-.63 1.82-.57 2.98 1.1 4.26 10.41 7.96 17.93 18.29 24.16 29.7 4.39 8.04 9.03 15.95 13.56 23.92.59 1.05 1.13 2.13 1.87 3.53-5.46 2.24-10.67 4.44-15.95 6.45-.63.24-1.88-.38-2.48-.96-5.98-5.78-13.42-7.76-21.38-8.42-.72-.06-1.76 0-2.16.44-3.31 3.63-7.03 7.18-7.62 12.34-.49 4.31-.41 8.71-.28 13.06.04 1.14 1.12 2.34 1.92 3.35 13.38 16.7 23.59 35 28.35 56.04.66 2.91.86 5.93 1.32 9.24-3.26.49-6.19 1.11-9.15 1.3-1.05.07-2.28-.74-3.23-1.42-6.33-4.58-12.61-9.24-19.07-13.99-4.23 7.22-6.4 14.97-6.13 22.87.41 12.15 1.46 24.34 3.3 36.35.89 5.81 4.28 11.22 6.4 16.86 2.47 6.57-.86 12-7.65 12.42-.89.06-2.35-.77-2.69-1.56-6.3-14.68-12.53-29.39-18.6-44.17-.67-1.63-.36-3.71-.31-5.58.1-3.69.48-7.37.47-11.05-.01-4.11-2.19-7.25-5.42-9.52-.84-.59-2.51-.48-3.61-.13-12.21 3.98-24.37 8.07-36.55 12.13-1.04.36-2.07.69-3.76 1.25z" fill="#010000"/></svg>