<svg enable-background="new 0 0 400 400" viewBox="0 0 400 400" xmlns="http://www.w3.org/2000/svg"><path d="m374.8 390.4.4-.4c.7.5 1.3 1 1.8 1.4l-.5.5c-.5-.6-1.1-1.1-1.7-1.5zm1 7.3-.6-.3c.5-1.4 1.1-2.8 1.5-4.3.2.1.4.2.6.3-.5 1.3-1 2.8-1.5 4.3zm-.4-10.3.4-.4c.4.3 1 .8 1.7 1.4l-.5.5c-.4-.5-1-1-1.6-1.5zm2.5.3h1.7v-1h.6v1h3.5v-1h.6v1h1.8v.5h-1.8v1.4h-2v1h3.2v2h-3.2v.9h3.3v.5h-3.4c0 .3-.1.6-.1.9h4v.5h-3.7c.7.9 1.9 1.5 3.8 1.7-.1.2-.2.4-.3.6-2.1-.4-3.5-1.1-4-2.1-.4 1-1.8 1.7-4 2.2-.1-.2-.2-.4-.3-.6 2.1-.4 3.4-1 3.8-1.8h-3.4v-.5h3.6c.1-.3.1-.6.2-.9h-3.3v-.5h3.4c0-.3 0-.6 0-.9h-3.2v-2h3.3v-1h-2.1v-1.4h-1.7v-.5zm1.1 3.5v1h2.7c0-.3 0-.4 0-.4 0-.1 0-.2 0-.2 0-.1 0-.2 0-.3h-2.7zm1.2-3v.9h3.5v-.9zm4.7 3h-2.6v.6.4h2.6z" fill="#fbfcfa"/><path d="m393.6 386.7h.6v1.5h2.7v6.1h1.1v.6h-11v-.6h1.1v-6.1h2.7v-1.5h.6v1.5h2.1v-1.5zm-2.7 8.8.4.6c-1.2.6-2.5 1.3-3.8 1.9-.1-.2-.2-.4-.3-.6 1.2-.6 2.5-1.2 3.7-1.9zm-2.2-6.7v2.4h2.1v-2.4zm0 3v2.5h2.1v-2.5zm2.8-3v2.4h2.1v-2.4zm0 3v2.5h2.1v-2.5zm6 6.1c-1.4-.7-2.7-1.3-3.9-1.8l.3-.6c1.5.6 2.7 1.2 3.9 1.7zm-1.2-9.1h-2.1v2.4h2.1zm-2.1 3v2.5h2.1v-2.5z" fill="#fbfcfa"/><g fill="#010101"><path d="m104.46 188.19c-3.95-8.98-7.38-18.24-12.01-26.86-4.62-8.61-4.61-17.33-3.72-26.58 2.26-23.6 8.39-46.38 14.02-69.29 2.32-9.44 4.51-18.92 6.47-28.44.63-3.05 1.98-4.87 4.95-5.41 6.69-1.21 13.35-2.79 20.09-3.4 12.91-1.16 25.88-2.49 38.82-2.41 23.1.15 46.01 2.6 67.95 10.57 5.03 1.83 9.86 4.21 14.73 6.45 7.5 3.45 14.99 6.91 22.39 10.56 1.3.64 2.65 2.04 3.13 3.39 7.9 22.21 15.68 44.46 23.42 66.72.46 1.31.61 2.85.47 4.24-1.02 10.02-2.19 20.02-3.21 30.03-.19 1.86-.33 3.89.22 5.61 2.02 6.29 1.43 12.51.39 18.85-2.05 12.58-4.58 25.14-5.6 37.82-.8 9.97.23 20.1.69 30.15.84 18.21 2.26 36.41 2.67 54.63.28 12.34-2 24.51-5.96 36.26-.57 1.69-1.7 3.41-3.04 4.59-6.82 5.97-13.74 11.83-20.76 17.57-1.15.94-2.95 1.43-4.48 1.48-2.67.09-5.41-.03-8.02-.57-6.64-1.37-12.3.94-18.23 3.59-24.41 10.91-49.73 11.94-75.31 5.15-10.67-2.83-20.35-8.15-27.85-16.64-6.89-7.79-13.87-15.51-20.48-23.53-10.29-12.47-14.62-27.28-15.63-43.12-.6-9.37-.4-18.79-.94-28.17-.47-8.03-1.35-16.04-2.33-24.03-.4-3.21.04-5.78 2.2-8.31 2.97-3.47 5.58-7.24 8.82-11.5 0 1.41.05 2.11-.01 2.8-.53 6.15 1.25 11.21 6.55 14.83 5.45 3.72 7.92 8.49 6.69 15.48-1.63 9.24-2.4 18.63-3.41 27.97-.17 1.6.01 3.42.63 4.88 5.15 12.23 7.02 25.1 7.99 38.2.11 1.49.88 3.36 1.99 4.28 9.91 8.19 19.94 16.23 29.98 24.27 2.72 2.18 5.82 3.09 9.38 2.88 1.82-.11 4.12-.03 5.45.96 9.85 7.32 20.88 7.24 32.28 5.9 6.1-.72 12.35-.38 18.39-1.41 9.33-1.6 18.54-3.92 27.78-6.01 3.05-.69 6-1.87 9.07-2.37 3.04-.5 4.57-2.21 5.74-4.84 4.87-10.98 7.06-22.6 8.3-34.42 2.08-19.85 3.08-39.71.33-59.61-.41-3 .41-6.24 1.01-9.3 1.86-9.35 1.35-18.78.5-28.1-1.22-13.35.71-26.28 3.15-39.28 3.17-16.83 5.63-33.77 5.65-50.96 0-1.65-.21-3.36-.69-4.93-4.68-15.39-9.39-30.78-14.24-46.12-.53-1.68-1.73-3.38-3.07-4.55-8.3-7.3-17.86-12.08-28.69-14.55-10.66-2.43-21.2-5.35-32-8.11-3.45 6.52-5.63 13.53-5.74 20.79-.18 12.06.28 24.14.81 36.2.91 21.13 2.08 42.25 3.13 63.38.54 10.84.37 21.78 1.78 32.5 1.26 9.57 3.56 19.16 6.66 28.31 3.49 10.26 3.76 19.82-1.04 29.64-4.27 8.74-4.01 18.47-5.39 27.84-2.08 14.13-3.08 28.53-9.46 41.67-2.22 4.57-4.71 9.01-7.07 13.51-.29-.09-.58-.19-.88-.28 0-1.17-.02-2.33 0-3.5.88-47.38-1.79-94.66-3.87-141.95-1.2-27.28-2.18-54.57-3.57-81.85-.8-15.67 2.32-30.69 6.29-45.65.54-2.05 1.06-4.12 1.45-6.2 1.91-10.19-2.98-16.6-13.32-17.37-2.67-.2-5.37-.11-8.05 0-2.67.12-4.34 2.85-3.01 5.16 5.66 9.8 5.43 20.5 4.15 31.05-1.81 14.86-4.93 29.56-6.7 44.43-.78 6.57.24 13.38.66 20.07.7 11.17 2.03 22.32 2.18 33.49.09 6.27-1.69 12.56-2.54 18.85-.42 3.09-.81 6.2-.89 9.32-.14 5.59-.29 11.21.01 16.79.74 13.76-1.54 27.18-3.88 40.64-1.28 7.37-1.68 14.88-2.64 22.31-.23 1.8-.93 3.61-1.72 5.26-2.51 5.23-5.27 10.34-7.72 15.59-2.29 4.91-5.43 8.66-11.61 9.78.63-5.23 1.19-10.16 1.84-15.09 1.45-11.09 3.33-22.14 4.26-33.28.45-5.36-.73-10.89-1.35-16.32-.62-5.44-1.53-10.85-2.18-16.29-.14-1.16.11-2.46.53-3.57 2.08-5.41 4.73-10.65 6.29-16.2 1.21-4.31 2.06-9.14 1.43-13.49-2.35-16.1-1.74-32.04.16-48.14 1.93-16.32 2.88-32.77 3.91-49.18 1.18-18.82 4.24-37.31 9.12-55.5.61-2.28.26-3.37-1.85-4.48-10.94-5.78-21.91-5.29-32.91-.39-.98.44-1.77 1.64-2.31 2.67-5.08 9.76-6.01 20.17-5.28 30.99.49 7.35.36 14.76.21 22.14-.05 2.62-.77 5.3-1.57 7.82-2.66 8.41-5.54 16.75-8.24 25.15-.35 1.09-.73 2.7-.21 3.45 5.65 8.09 3.94 16.7 2.35 25.46-1.64 9.01-2.81 18.11-4.19 27.18-.2-.01-.42 0-.64 0z"/><path d="m237.58 65.14c3.34 1.07 5.31 3.58 5.87 6.5 1.16 6.1 2.41 12.33 2.34 18.5-.2 16.8.23 33.5 2.73 50.16 1.47 9.76 1.15 19.64-.57 29.42-.19 1.06-.06 2.22.14 3.29 3.68 19.66 7.4 39.32 11.09 58.99.18.98.37 2 .27 2.97-2.08 19.8-4.17 39.59-6.37 59.38-.16 1.42-.89 2.97-1.81 4.07-2.61 3.12-4.36 6.55-4.26 10.65.14 5.8-3.12 9.23-7.99 12.24-.15-1.05-.34-1.75-.33-2.45.39-19.02 1.03-38.03 1.1-57.05.03-8.25-.83-16.53-1.77-24.74-2.83-24.83-3.8-49.73-3.32-74.71.15-7.94-.13-15.9.09-23.84.11-3.84-.7-7.21-2.67-10.47-.81-1.34-1.44-3.15-1.29-4.66 1.98-19.13 4.12-38.25 6.23-57.37.03-.18.22-.35.52-.88z"/></g></svg>