<svg enable-background="new 0 0 400 400" viewBox="0 0 400 400" xmlns="http://www.w3.org/2000/svg"><path d="m374.8 390.4.4-.4c.7.5 1.3 1 1.8 1.4l-.5.5c-.5-.6-1.1-1.1-1.7-1.5zm1 7.3-.6-.3c.5-1.4 1.1-2.8 1.5-4.3.2.1.4.2.6.3-.5 1.3-1 2.8-1.5 4.3zm-.4-10.3.4-.4c.4.3 1 .8 1.7 1.4l-.5.5c-.4-.5-1-1-1.6-1.5zm2.5.3h1.7v-1h.6v1h3.5v-1h.6v1h1.8v.5h-1.8v1.4h-2v1h3.2v2h-3.2v.9h3.3v.5h-3.4c0 .3-.1.6-.1.9h4v.5h-3.7c.7.9 1.9 1.5 3.8 1.7-.1.2-.2.4-.3.6-2.1-.4-3.5-1.1-4-2.1-.4 1-1.8 1.7-4 2.2-.1-.2-.2-.4-.3-.6 2.1-.4 3.4-1 3.8-1.8h-3.4v-.5h3.6c.1-.3.1-.6.2-.9h-3.3v-.5h3.4c0-.3 0-.6 0-.9h-3.2v-2h3.3v-1h-2.1v-1.4h-1.7v-.5zm1.1 3.5v1h2.7c0-.3 0-.4 0-.4 0-.1 0-.2 0-.2 0-.1 0-.2 0-.3h-2.7zm1.2-3v.9h3.5v-.9zm4.7 3h-2.6v.6.4h2.6z" fill="#fbfcfa"/><path d="m393.6 386.7h.6v1.5h2.7v6.1h1.1v.6h-11v-.6h1.1v-6.1h2.7v-1.5h.6v1.5h2.1v-1.5zm-2.7 8.8.4.6c-1.2.6-2.5 1.3-3.8 1.9-.1-.2-.2-.4-.3-.6 1.2-.6 2.5-1.2 3.7-1.9zm-2.2-6.7v2.4h2.1v-2.4zm0 3v2.5h2.1v-2.5zm2.8-3v2.4h2.1v-2.4zm0 3v2.5h2.1v-2.5zm6 6.1c-1.4-.7-2.7-1.3-3.9-1.8l.3-.6c1.5.6 2.7 1.2 3.9 1.7zm-1.2-9.1h-2.1v2.4h2.1zm-2.1 3v2.5h2.1v-2.5z" fill="#fbfcfa"/><g fill="#010101"><path d="m137.93 252.96c5.06 9.57 10.5 19.04 13 29.88.45 1.95 2.19 3.65 3.49 5.35 1.66 2.17 3.92 3.99 5.16 6.35 6.7 12.87 14.21 25.36 18.51 39.37.52 1.68 1.91 3.36 3.34 4.45 2.92 2.24 5.32 1.29 6.38-2.16 2.74-8.86 5.37-17.75 8.25-26.56 1.28-3.91 3.37-7.55 4.56-11.48 1.67-5.51 2.75-11.2 4.26-16.76 3.1-11.42 5.94-22.94 9.64-34.17 2.48-7.52 3.26-14.67.42-22.13-.63-1.66-1.06-3.45-1.2-5.22-.39-4.99-2.98-7.35-8.1-7.07-6.59 7.81-10.74 18.31-22.32 22.65 1.62-4.66 1.71-8.94 4.82-12.67 10.05-12.02 17.45-25.44 19.32-41.31.65-5.55-.66-10.46-3.88-15.45-9.95-15.4-19.03-31.32-24.6-48.98-.5-1.59-2.03-2.84-3.01-4.29-1.17-1.72-2.28-3.5-3.41-5.25.37-.31.75-.62 1.12-.93 1.38 1.15 3.06 2.08 4.08 3.49 3.88 5.34 7.44 10.9 11.32 16.23 2.09 2.87 4.47 5.57 6.94 8.12 1 1.03 2.6 1.48 3.76 2.11 0-7.46 0-14.58-.01-21.7 0-.22 0-.51-.13-.65-5.13-5.47-1.76-11.87-2.05-17.88-.13-2.69-.33-5.61-1.46-7.96-1.8-3.73-3.03-7.31-2.32-11.51 1.15-6.84 0-13.48-1.6-20.19-1.03-4.31-.63-8.96-.39-13.55 5.17 3.52 7.99 8.36 9.44 13.94 1.77 6.81 3.18 13.71 4.82 20.55.35 1.47 1.03 2.85 1.69 4.65 6.39-8 10.44-17.31 18.29-24.19 2.32 3.56 2.25 7.12 1.23 10.29-2.73 8.5-4.38 17.93-9.33 24.99-7.75 11.07-6.81 22.1-4.7 33.93.5 2.83.43 5.79.4 8.69-.23 23.16 5.07 45.42 11.1 67.55.49 1.81 1.79 3.54 3.08 4.99 6.25 7.01 12.79 13.77 18.85 20.94 2.36 2.8 3.71 6.44 5.53 9.7-.37.42-.75.83-1.12 1.25-2.41-1.28-4.93-2.38-7.21-3.86-5.88-3.81-11.64-7.79-17.46-11.71-.43.19-.86.38-1.29.57 0 2.81-.14 5.64.03 8.44.49 8.6 1.04 17.2 1.72 25.78.09 1.19.75 2.64 1.63 3.42 6.11 5.41 10.03 12.17 13.09 19.62 1.26 3.06 3.02 5.98 4.96 8.68 1.17 1.63 3.1 2.7 5.11 4.37 3.11-6.6 5.82-12.69 8.84-18.62 1.24-2.43 3.14-4.51 4.72-6.77.82-1.17 1.79-2.29 2.38-3.58 3.01-6.49 6.21-12.91 8.8-19.56 4.36-11.2 10.54-21.17 18.94-29.72 2.48-2.52 3.43-5.41 3.27-8.79-.33-6.59-.7-13.17-1.04-19.76-.25-4.95-1.03-9.95 1.68-15.61 2 5.22 3.58 9.68 5.41 14.03 1.68 4 2.94 7.92 1.03 12.2-.28.63-.09 1.52-.01 2.27.75 7.76 1.74 15.5 2.25 23.27.95 14.62 1.61 29.26 2.43 43.89.24 4.24.8 8.48.78 12.72-.01 1.88-1.1 3.76-1.69 5.64-1.26 4-2.46 8.02-3.81 11.99-.65 1.91-1.61 3.71-2.42 5.56-.85 1.91-2.03 3.75-2.47 5.75-.84 3.86-2.42 7.04-5.55 9.62-6.05 4.97-11.8 10.31-17.87 15.26-3.05 2.48-3.9 5.34-2.76 8.88.68 2.11 1.01 4.39-1.25 5.22-1.85.68-4.84.99-6.12-.04-3.85-3.09-7.36-2.38-11.59-1.11-11.65 3.5-21.8 9.65-31.56 16.63-1.81 1.29-3.49 2.25-5.83 1.27-.79-.33-2.06-.11-2.87.32-8.47 4.57-17.8 4.66-27.03 5.47-5.99.53-11.91 1.7-17.89 2.44-.91.11-2.17-.29-2.85-.92-4.45-4.09-8.8-8.28-13.14-12.49-.61-.59-1.05-1.41-1.4-2.2-.99-2.2-1.48-4.76-2.91-6.61-5.68-7.31-7.2-15.94-8.68-24.7-.56-3.33-2.21-6.46-3.17-9.74-.6-2.06-1.28-4.26-1.14-6.35.35-5.35.98-10.48-1.95-15.6-1.39-2.43-1.09-5.86-1.4-8.86-1.05-10.27-1.4-20.53.36-30.78.35-2.11 1.15-3.47 3.76-3.34zm45.76 103.49c1.2 4.8 1.53 5.24 6.04 4.97 2.63-.16 5.22-.98 7.82-1.57 2.38-.54 4.91-2.02 7.08-1.6 5.28 1.02 9.28-1.04 13.32-3.77 1.18-.79 2.59-1.3 3.96-1.73 6.61-2.04 13.18-4.25 19.89-5.93 4.85-1.21 8.75-3.47 12.06-7.21 3.22-3.65 3.42-5.45.76-9.68-2.3-3.67-4.54-7.43-6.28-11.39-5.28-11.94-10.17-24.06-15.5-35.98-1.81-4.04-4.21-7.89-6.83-11.46-1.37-1.87-3.8-2.97-5.97-4.57-5.43 10.08-8.28 20.02-10.74 30.12-2.71 11.11-3.9 22.63-9.92 32.82-2.99 5.06-5.06 10.68-7.35 16.13-1.85 4.41-4.04 8.46-8.34 10.85zm110.47-126.76c-3.06 6.2-5.89 12.26-9 18.18-5.74 10.93-9.75 22.82-18.4 32.15-2 2.15-3.26 5.28-4.04 8.18-.77 2.87-1.89 5.13-4.33 6.8-1.29.88-2.32 2.13-3.62 2.98-1.89 1.23-2.01 2.44-.89 4.39 4.13 7.17 8.08 14.43 12.09 21.66 2.44 4.4 3.92 5.04 8.78 3.43 1.22-.41 2.37-1.21 3.39-2.02 2.37-1.87 4.36-4.59 7.02-5.63 5.17-2.02 6.77-5.76 7.99-10.71 1.7-6.92 4.46-13.56 6.56-20.39 1.77-5.78 2.23-11.61-.56-17.3-1.78-3.63-1.95-7.47-1.61-11.44.6-6.9 1.01-13.82 1.51-20.73.29-3.97-.6-7.34-4.89-9.55zm-141.27 82.7c.21 1.22.3 1.84.42 2.46 1.21 6.46 2.53 12.9 3.6 19.38 1.33 8.06 4.57 15.16 10.29 21 1.26 1.29 3.04 2.33 4.77 2.84 3.8 1.13 6.17-1.08 4.84-4.74-1.23-3.4-2.94-6.8-5.18-9.61-4.92-6.18-9.38-12.53-11.06-20.38-.99-4.59-4.3-7.37-7.68-10.95z"/><path d="m96.55 350.66c-.71-2.85-1.66-5.66-2.07-8.55-.38-2.64.11-5.4-.29-8.04-.62-4.14-1.66-8.21-2.51-12.32-.78-3.78-1.6-7.56-2.29-11.35-1.81-9.89-3.85-19.75-5.23-29.7-.73-5.27-.28-10.7-.37-16.06 0-.11-.03-.26.03-.33 3.53-4.47 1-8.82-.2-13.23-.29-1.06-.38-2.21-.35-3.31.38-12.42.75-24.83 1.24-37.24.08-2.08.5-4.22 1.17-6.19 6.54-19.13 13.8-38.02 17.81-57.94 1.78-8.85 4.44-17.53 6.56-26.32.37-1.52.44-3.4-.13-4.8-2.41-5.93-3.02-12.02-2.94-18.36.04-3.71-1.07-7.43-1.59-11.16-.73-5.19-1.37-10.39-2.12-15.57-.17-1.17-.46-2.4-1.01-3.44-6.62-12.49-10.45-25.83-12.3-39.79-.04-.31.06-.64.12-1.19 3.92 1.71 6.25 4.96 7.99 8.35 3 5.85 5.55 11.93 8.01 18.03.7 1.75.27 3.93.62 5.86.26 1.41.58 3.14 1.53 4.02 2.97 2.75 4.74 5.96 5.96 9.83 6.42 20.29 6.63 40.42.02 60.78-1.48 4.57-.52 9.92-.77 14.9-.11 2.32-.15 4.69-.68 6.92-1.79 7.5-3.72 14.96-5.74 22.4-.42 1.56-1.45 2.95-2.17 4.43-1.22 2.5-2.84 4.89-3.55 7.53-2.75 10.25-5.37 20.54-7.71 30.89-1.53 6.78-2.39 13.7.1 20.5 1.22 3.33-.09 6.32-.8 9.45-.38 1.68-.64 3.55-.3 5.2.58 2.86 1.48 5.54-.71 8.19-.48.59-.24 1.93-.06 2.87.47 2.41.99 4.82 1.68 7.18 2.5 8.56 3.1 17.21 2.7 26.16-.3 6.83 1.41 13.73 1.89 20.62.55 7.91.85 15.85 1.02 23.78.05 2.28-.77 4.57-1.18 6.86-.46.04-.92.09-1.38.14z"/><path d="m246.07 94.14c-7.93-9.75-.26-48.08 5.29-56.06 6.07 3.94 7.3 9.98 6.6 16.43-.85 7.86-2.86 15.62-3.41 23.5-.49 6.89-4.44 11.35-8.48 16.13z"/><path d="m247.96 138.73c1.44 2.05 2.83 3.24 3.18 4.68 1.22 4.95 2.13 9.97 2.99 15 .12.69-.58 2.04-1.17 2.23-2.29.72-2.06 2.35-1.11 3.55 3.24 4.1 2.79 8.56 1.55 13.07-.82 2.99-1.93 5.94-3.22 8.76-.43.95-2.09 2.24-2.72 2.02-1.46-.5-3.08-1.59-3.82-2.89-.84-1.47-.96-3.42-1.09-5.19-.82-11.3-.4-22.54 2.43-33.57.58-2.32 1.73-4.5 2.98-7.66z"/><path d="m138.8 110.23c-1.59-3.28-3.39-6.48-4.67-9.88-.57-1.52-.21-3.45-.04-5.17.28-2.87 1.4-5.82.98-8.56-.7-4.62.42-8.55 2.52-12.48 1.29-2.42 2.38-4.95 3.67-7.68 5.07 4.46 5.79 10.22 6 16.02.23 6.4-.35 12.71-3.32 18.6-.73 1.45-.69 3.28-1.33 4.81-.66 1.6-1.7 3.03-2.58 4.54-.41-.06-.82-.13-1.23-.2z"/><path d="m153 188.07c4.28 2.12 5.71 5.6 5.88 9.7.42 9.8-1.03 19.32-4.68 28.47-.89 2.24-2.49 3.32-5.35 2.94-3.47-14.12-2.14-27.72 4.15-41.11z"/></g></svg>