<svg enable-background="new 0 0 400 400" viewBox="0 0 400 400" xmlns="http://www.w3.org/2000/svg"><path d="m37.59 393.81c-.92.31-1.52.05-2-.78-.7-1.2-1.52-2.34-2.47-3.78v4.59c-.55.03-.95.05-1.41.07-.03-.37-.06-.64-.06-.91 0-1.91 0-3.81 0-5.7 1.13-.41 1.77-.03 2.29.91.62 1.11 1.38 2.14 2.31 3.19v-4.2h1.35v6.61z" fill="#fbfafa"/><path d="m12.94 393.88v-6.75c1.9.19 3.93-.54 5.37 1.29.8 1.01.78 2.88.03 3.97-1.37 1.97-3.4 1.51-5.4 1.49m1.45-1.22c2.04.12 2.92-.58 2.89-2.21-.03-1.51-.98-2.19-2.89-2z" fill="#fbfafa"/><path d="m11.81 393.87h-5.49c.68-2.18 2.47-3.48 3.51-5.45h-3.08v-1.21h5.29c-.71 2.13-2.44 3.48-3.47 5.51.86 0 1.63.04 2.39-.01.79-.05 1.14.21.85 1.16" fill="#fbfafa"/><path d="m39.33 393.86v-6.61h3.7v1.07h-2.22v1.52c.68.04 1.34.09 2.07.13v1.07c-.72.05-1.38.09-2.1.14v1.48h2.4v1.19h-3.85z" fill="#fbfafa"/><path d="m27.71 388.56c-1.15-.3-2.46-.61-3.1.64-.37.73-.41 1.93-.06 2.67.63 1.35 1.99.93 3.17.68.35.94-.01 1.32-.93 1.46-1.62.25-3.05-.27-3.76-1.48-.73-1.24-.6-3.03.31-4.17.88-1.11 2.71-1.7 4-1.16.32.13.44.74.65 1.12-.1.08-.19.16-.28.24" fill="#fbfafa"/><path d="m49.15 387.24v1.07c-.59.02-1.17.05-1.87.08v5.44h-1.48v-5.44h-1.85c-.05-.4-.08-.73-.13-1.15z" fill="#fbfafa"/><path d="m20.06 387.21h1.33v6.62h-1.33z" fill="#fbfafa"/><path d="m30.68 393.25c-.49.38-.8.79-1.05.76-.32-.05-.6-.45-.9-.7.26-.24.51-.64.8-.67.29-.04.62.3 1.15.61" fill="#fbfafa"/><g fill="#010000"><path d="m212.35 313.35c4.02-.9 8.2-2.48 12.44-2.66 10.82-.47 21.67-.32 32.5-.42 2.68-.02 5.4.29 8.02-.11 3.87-.59 4.58-3.01 3.02-6.58-1.23-2.81-1.65-5.96-2.39-8.98-.21-.86.01-1.95-.44-2.62-5.57-8.31-5.18-18.37-8.09-27.45-2.46-7.66-6.17-10.75-13.03-10.66-1.99.03-3.22.65-3.41 2.67-.63 6.77-1.24 13.55-1.79 20.33-.58 7.21-.78 14.47-1.76 21.62-.4 2.94-2.4 5.66-3.91 9.03-5.66-5.99-7.97-12.53-8.15-19.86-.25-10.29-.86-20.61-.32-30.86.46-8.66-3.28-14.77-9.12-20.24-4.57-4.28-9.17-8.54-13.86-12.69-2.43-2.15-3.89-4.71-4.89-7.79-.76-2.35-1.88-4.94-3.64-6.54-5.32-4.81-6.35-11.65-9.09-17.67-.34-.74.18-1.88.34-3.05-1.06-.15-2.22-.32-3.55-.51-3.28-9.19-7.21-18.24-9.69-27.68-2.23-8.51-.73-17.71 3.03-25.23 3.28-6.56 5.11-13.08 6.73-20.03 3.29-14.11 2.9-27.91-.99-41.83-1.7-6.1-2.69-12.43-3.55-18.72-.8-5.89 1.24-9.21 6.02-11.05 6.25 7.26 9.65 15.99 12.12 25.08 3.36 12.32 5.61 24.87 6.09 37.66.06 1.57-.59 3.18-1 4.75-.33 1.29-1.26 2.6-1.11 3.81.55 4.37-1.58 7.71-3.55 11.25-1.68 3-3.18 6.19-4.18 9.47-1.38 4.5-2.78 8.85-5.62 12.75-.99 1.37-1.06 3.96-.59 5.74 1.32 5.05 2.74 10.15 4.85 14.91 4.52 10.22 9.7 20.04 16.78 28.89 6.63 8.27 12.21 17.37 18.37 26.03 6.21 8.72 14.52 14.13 25.32 15.23 1.12.11 2.62-.43 3.45-1.2 5.49-5.1 10.85-10.35 16.25-15.55.16-.16.37-.29.46-.48 2.37-4.8 4.91-9.42 10.56-11.13.32-.1.53-.7.69-1.11 3.87-9.75 7.7-19.52 11.6-29.26 3.74-9.36 2.78-18.85 1.06-28.41-1.79-10-3.53-19.94-7.72-29.4-2.12-4.79-2.33-10.42-3.45-15.67-.25-1.19-.39-2.56-1.09-3.47-6.2-8.15-7.49-17.53-7.02-27.35.54-11.29 2.81-22.13 8.13-32.24 1.28-2.44 2.65-2.79 5.05-1.9 4.53 1.69 6.8 4.65 6.47 9.75-.27 4.12-.76 8.26-1.62 12.29-1.69 7.94-.21 15.49 2.01 23.07 2.76 9.43 5.29 18.92 7.95 28.37.39 1.39.85 2.78 1.46 4.09 2.31 4.91 3.94 9.91 3.41 15.49-.15 1.56.48 3.33 1.18 4.8 3.64 7.64 4.65 15.4 3.81 23.99-1.45 14.87-4.7 29.08-11.12 42.53-1.14 2.39-2.72 4.66-4.48 6.64-8.47 9.54-16.93 19.1-25.72 28.34-2.84 2.98-3.72 6.03-2.91 9.69 1.69 7.63 3.36 15.27 5.5 22.78 1.92 6.73 4.57 13.25 6.66 19.94.65 2.07.74 4.4.65 6.59-.22 5.32 1 7.78 5.95 9.54 3.13 1.11 6.49 1.56 9.74 2.3 2.72.62 4.66 2.03 5.21 5.28-4 .66-7.91 1.41-11.85 1.94-3.47.47-6.81.98-9.36 3.81-.49.55-1.82.64-2.69.49-2.64-.46-5.31-.92-7.84-1.77-7.9-2.66-15.79-2.15-23.78-.49-9.58 1.99-19.08 1.43-28.58-.98-3.69-.93-5.89-2.61-5.93-7.3z"/><path d="m83.74 213.24c1.22.91 2.63 1.65 3.63 2.77 2.05 2.29 3.95 4.71 5.74 7.2.52.72.6 1.86.61 2.82.06 5.26.09 10.52.01 15.78-.22 14.96 2.03 29.64 4.78 44.27.21 1.1.57 2.16.84 3.25 1.26 5.11 3.93 8.91 8.74 11.58 4.86 2.71 9.17 6.38 13.86 9.42 1.15.74 2.85 1.09 4.23.95 13.45-1.39 26.12-5.88 38.8-10.22 1.56-.53 3.06-2.2 3.9-3.72 3.28-5.95 4.37-12.58 3.67-19.18-1.4-13.21-3.73-26.33-5-39.55-.58-6.01.39-12.18.84-18.27.08-1.12.9-2.3 1.64-3.24 2.27-2.85 3.75-2.48 6.19.07 4.34 4.55 4.39 10.26 5.19 15.86 1.98 13.72 4.19 27.4 6.07 41.13 1.1 8.05.74 16.08-1.85 23.89-1.49 4.48-3.4 8.7-6.95 12.06-1.85 1.75-3.32 3.92-4.87 5.97-2.26 2.98-3.59 6.48-2.64 10.08 2.41 9.08 1.11 18.24 1.06 27.36-.01 2.26.25 4.04 2.23 5.5 5.54 4.1 3.6 10.58-1.84 12.28-5.81 1.81-11.87 3.98-17.81 3.93-11.02-.09-22-1.93-33.03-2.55-7.46-.42-12.25-5.44-17.06-9.72-3.18-2.83-5.36-7.8-6.12-12.13-1.76-10.1-2.39-20.4-3.46-30.62-.06-.54-.14-1.32.17-1.63 4.76-4.87 1.04-9.16-1.41-12.89-6.48-9.88-10.08-20.79-11.26-32.28-1.38-13.44-1.88-26.99-2.11-40.51-.11-6.4 1.29-12.83 2.01-19.24.38-.15.79-.29 1.2-.42zm27.51 121.12c-.28.07-.55.14-.83.2 1.42 6.49 2.72 13.01 4.38 19.44.31 1.21 1.92 2.4 3.21 2.97 4.18 1.86 8.6 3.19 12.72 5.17 3.81 1.83 7.31 2.2 11.01-.06.81-.49 1.91-.61 2.89-.69 3.01-.24 6.03-.32 9.03-.57 3.32-.28 7.29-2.94 7.12-5.02-.27-3.31-.22-6.96-1.63-9.8-3.11-6.27-3.82-12.42-1.63-19 .32-.95.6-1.95.63-2.94.02-.95-.05-2.08-.54-2.83-1.49-2.27-9.36-3.72-11.52-1.97-4.73 3.84-10.03 3.9-15.58 2.86-5.51-1.03-11-2.07-16.58-.31-1.97.62-2.89 1.62-2.73 3.83.21 2.89.05 5.81.05 8.72z"/><path d="m135.35 179.22c4.02 1.54 6.45 3.86 6.87 7.67.71 6.52.79 13.15 4.4 19.02.39.63.12 1.75-.02 2.61-.79 4.72-1.65 9.44-2.46 14.03-3.34 1.76-5.2.7-6.56-2.47-4.45-10.39-7.94-20.95-5.44-32.44.62-2.87 2.09-5.55 3.21-8.42z"/><path d="m253.85 190.74c-.49 5.34-.78 10.7-1.59 15.99-.23 1.53-1.7 3.61-3.06 4.06-2.04.68-4.7.2-5.36-2.57-1.24-5.15-2.66-10.33-3.16-15.58-.48-5.08.09-10.26.23-15.4.09-3.15 2.64-4.67 5.43-3.18 4.5 2.41 6.83 6.3 7.29 11.3.16 1.77.03 3.57.03 5.36.06.01.12.01.19.02z"/><path d="m216.41 25.09c3.38.03 5.41 1.34 6.75 3.79.21.39.39.83.69 1.14 7.89 8.36 7.18 17.86 3.75 27.76-1 2.87-3.51 3.44-5.71 1.39-4.53-4.23-7.25-9.03-6.69-15.53.41-4.75.05-9.55.19-14.33.04-1.38.65-2.75 1.02-4.22z"/><path d="m210.28 132.92c1.71 2.9 4.2 5.61 4.95 8.75 1.29 5.36 1.89 10.98 1.97 16.5.03 2.17-1.65 4.87-3.36 6.46-3.53 3.27-6.8 2.25-8.39-2.23-2.67-7.51-2.3-15.23-.69-22.82.49-2.3 2.71-4.23 4.13-6.33.47-.12.93-.23 1.39-.33z"/><path d="m262.6 140.27c-.12.98-.2 2.9-.62 4.74-1.27 5.56-5.46 6.7-9.95 3.3-4.39-3.33-5.59-6.81-3.67-12.16.9-2.51.03-5.92-.78-8.7-.72-2.46.16-4.03 1.76-5.16.92-.65 2.72-.71 3.87-.3 6.5 2.34 8.29 7.92 9.17 14.01.16 1.11.12 2.24.22 4.27z"/><path d="m258.32 85.37c-3.94-.11-5.76-1.52-6.16-5.36-.36-3.48-1.53-6.97-2.9-10.23-3.25-7.74-2.2-14.55 3.62-20.6 5.24 1.93 8.4 7.25 7.85 14.05-.6 7.33-1.58 14.64-2.41 22.14z"/><path d="m142.21 254.22c4.84.75 7.72 3.53 8.7 7.68 1.01 4.3 1.47 8.79 1.61 13.22.19 5.91-.11 11.84-.3 17.76-.02.7-.74 1.38-1.14 2.08-.66-.46-1.62-.76-1.93-1.39-6.27-12.37-8.93-25.35-6.94-39.35z"/><path d="m115.21 211.27c6.02 1.26 9.16 4.93 9.33 11.85.16 6.8-.23 13.62-.62 20.42-.08 1.38-1.2 2.7-1.81 3.96-3.05-.56-4.32-2.08-5.15-4.61-3.31-10.01-5.54-20.04-2.24-30.51.1-.31.27-.6.49-1.11z"/></g></svg>