<svg enable-background="new 0 0 400 400" viewBox="0 0 400 400" xmlns="http://www.w3.org/2000/svg"><g fill="#fbfafa"><path d="m37.59 393.81c-.92.31-1.52.05-2-.78-.7-1.2-1.52-2.34-2.47-3.78v4.59c-.55.03-.95.05-1.41.07-.03-.37-.06-.64-.06-.91 0-1.91 0-3.81 0-5.7 1.13-.41 1.77-.03 2.29.91.62 1.11 1.38 2.14 2.31 3.19v-4.2h1.35v6.61z"/><path d="m12.94 393.88v-6.75c1.9.19 3.93-.54 5.37 1.29.8 1.01.78 2.88.03 3.97-1.37 1.97-3.4 1.51-5.4 1.49m1.45-1.22c2.04.12 2.92-.58 2.89-2.21-.03-1.51-.98-2.19-2.89-2z"/><path d="m11.81 393.87h-5.49c.68-2.18 2.47-3.48 3.51-5.45h-3.08v-1.21h5.29c-.71 2.13-2.44 3.48-3.47 5.51.86 0 1.63.04 2.39-.01.79-.05 1.14.21.85 1.16"/><path d="m39.33 393.86v-6.61h3.7v1.07h-2.22v1.52c.68.04 1.34.09 2.07.13v1.07c-.72.05-1.38.09-2.1.14v1.48h2.4v1.19h-3.85z"/><path d="m27.71 388.56c-1.15-.3-2.46-.61-3.1.64-.37.73-.41 1.93-.06 2.67.63 1.35 1.99.93 3.17.68.35.94-.01 1.32-.93 1.46-1.62.25-3.05-.27-3.76-1.48-.73-1.24-.6-3.03.31-4.17.88-1.11 2.71-1.7 4-1.16.32.13.44.74.65 1.12-.1.08-.19.16-.28.24"/><path d="m49.15 387.24v1.07c-.59.02-1.17.05-1.87.08v5.44h-1.48v-5.44h-1.85c-.05-.4-.08-.73-.13-1.15z"/><path d="m20.06 387.21h1.33v6.62h-1.33z"/><path d="m30.68 393.25c-.49.38-.8.79-1.05.76-.32-.05-.6-.45-.9-.7.26-.24.51-.64.8-.67.29-.04.62.3 1.15.61"/></g><path d="m151.14 374.89c-2.28-5.19-1.69-10.41-.53-15.55 1.55-6.86 3.9-13.58 4.97-20.51 1.2-7.82 1.44-15.79 1.91-23.71.08-1.32-.48-2.96-1.31-3.99-1.51-1.87-3.23-2.83-5.48-.35-4.17 4.61-9 8.4-15.22 9.97-1.03.26-2.1.39-3.57.66 1.02-3.25 1.74-6.06 2.8-8.73.4-1.01 1.51-1.81 2.43-2.53 4.32-3.36 8.82-6.51 13.02-10.01 4.49-3.76 5.5-8.58 3.93-14.25-3.1-11.2-5.93-22.47-8.89-33.7-3.01-11.44-2.14-22.29 4.28-32.58 4.72-7.56 9.03-15.37 13.41-23.14.51-.9.71-2.41.32-3.32-3.52-8.21-6.99-16.46-10.92-24.48-3.7-7.57-6.27-15.42-6.13-23.81.15-8.59 1.14-17.16 1.76-25.73.06-.89.44-1.87.19-2.65-2.05-6.31.02-12.1 2.34-17.76 2.49-6.1 5.08-12.2 8.15-18.02 2.92-5.53 4.27-11.17 3.72-17.36-.16-1.77-.39-3.77.25-5.32 2.18-5.28.53-10-1.35-14.87-1.72-4.47-3.15-9.06-4.6-13.62-.36-1.13-.32-2.38-.5-3.86 3.27-.14 5.33.51 6.42 3.91 2.35 7.34 5.75 14.38 7.58 21.83 1.38 5.62 2.16 11.91 1.1 17.5-1.99 10.49 2.85 17.07 10.58 22.2 7.58 5.04 15.1 9.98 20.84 17.22 1.18 1.49 3.48 2.05 4.88 3.43 1.09 1.07 1.58 2.75 2.34 4.15-1.51.42-3.02 1.13-4.55 1.17-1.11.03-2.39-.62-3.34-1.31-6.34-4.59-12.71-9.15-18.88-13.96-3.7-2.88-7.15-6.1-10.53-9.35-4.2-4.03-7.39-3.59-9.69 1.58-2.23 5-4.45 10.01-6.93 15.6 7.97 1.73 11.86 8.35 16.55 13.84 4.67 5.45 11.14 9.67 13.4 17.68-3.89-.61-6.8-1.37-9.34-4.05-4.99-5.28-10.39-10.18-15.68-15.17-1.03-.97-2.34-1.66-4.25-2.98-.59 2.75-1.09 4.94-1.53 7.15-.68 3.45-1.35 6.9-1.93 10.37-.2 1.17-.41 2.45-.15 3.57 2.33 10.13 4.75 20.24 7.17 30.36.18.75.32 1.61.78 2.17 3.37 4.15 6.82 8.23 10.28 12.37 7.9-7.6 15.59-14.99 23.28-22.39.42.11.83.21 1.25.32-.04 6.27 4.52 9.2 8.35 12.66.25.22.47.49.66.76 8.09 10.97 16.2 21.93 24.25 32.93 1.32 1.8 2.4 3.77 3.63 5.64 3.33 5.03 4.15 10.15 2.51 16.22-1.4 5.19-1.33 10.8-1.66 16.25-.55 9.04-.81 18.1-1.41 27.14-.17 2.54.49 4.41 2.5 5.75 3.62 2.42 7.39 4.61 10.95 7.12 4.82 3.39 9.5 6.98 14.22 10.53.39.29.58.86.87 1.29-.15.33-.3.66-.44.98-3.75-1.13-7.51-2.26-11.26-3.4-3.5-1.06-6.94-2.37-10.51-3.13-2.55-.55-4.06.73-3.56 3.63 1.9 11.12 3.79 22.24 5.65 33.37.95 5.72 1.98 11.44 2.63 17.2.22 1.93-.63 3.98-1 5.97-.44.07-.89.14-1.33.21-1.15-2.29-2.67-4.47-3.38-6.89-3.88-13.17-7.76-26.36-11.23-39.64-1.61-6.15-2.25-12.54-3.46-18.8-.21-1.08-.83-2.39-1.69-2.99-6.59-4.62-13.29-9.11-19.96-13.61-.64-.44-1.36-.77-2.06-1.12-5.25-2.62-5.5-2.42-8.15 2.83-1.18 2.34-2.77 4.57-4.55 6.5-5.97 6.47-12.27 12.63-18.06 19.25-1.3 1.48-1.64 4.4-1.38 6.53.76 6.24.57 12.24-2 18.07-.34.77-.49 1.77-.35 2.59 1.5 8.74-.18 17.02-3.04 25.28-1.74 5.04-2.49 10.41-4.01 15.54-.94 3.27-2.65 6.18-6.36 7.35zm38.24-157.6c-3.93-3.09-7.85-6.19-11.79-9.27-3.11-2.44-5.83-2.45-8.56.44-1.81 1.92-3.28 4.23-4.61 6.54-3.28 5.71-6.4 11.51-9.55 17.29-.42.77-.86 1.65-.87 2.48-.09 5.42-1.13 11.12.14 16.22 2.68 10.81 6.59 21.31 9.99 31.94.43 1.33.85 2.67 1.36 4.28 7.57-4.31 12.54-10.62 17.58-16.88 4.52-5.63 7.02-11.74 6.22-19.19-.32-3.01.73-6.17 1.2-9.63 4.44 2.13 4.86 5.58 5.31 8.85.51 3.74 1.96 6.7 5.15 8.92 2.65 1.85 4.89 4.29 7.56 6.11 3.11 2.12 6.37 4.1 9.78 5.68 3.82 1.77 4.96.87 5.15-3.25.08-1.79.13-3.58.35-5.36 1.08-8.53 2.35-17.03 3.29-25.57 1.03-9.39 1.01-18.61-6.1-26.16-.52-.55-.88-1.31-1.12-2.04-2.19-6.7-6.5-11.79-11.81-16.27-3.41-2.88-6.48-6.16-9.71-9.26-2.23-2.13-4.47-4.25-7.11-6.76-2.02 2.37-3.94 4.37-5.57 6.59-1.65 2.24-3.26 4.57-4.43 7.08-.93 2.01-2.02 4.57-1.51 6.48.74 2.75 2.38 5.67 4.5 7.55 3.99 3.58 4.13 8.39 5.16 13.19z" fill="#010000"/></svg>