<svg enable-background="new 0 0 400 400" viewBox="0 0 400 400" xmlns="http://www.w3.org/2000/svg"><g fill="#fbfafa"><path d="m37.59 393.81c-.92.31-1.52.05-2-.78-.7-1.2-1.52-2.34-2.47-3.78v4.59c-.55.03-.95.05-1.41.07-.03-.37-.06-.64-.06-.91 0-1.91 0-3.81 0-5.7 1.13-.41 1.77-.03 2.29.91.62 1.11 1.38 2.14 2.31 3.19v-4.2h1.35v6.61z"/><path d="m12.94 393.88v-6.75c1.9.19 3.93-.54 5.37 1.29.8 1.01.78 2.88.03 3.97-1.37 1.97-3.4 1.51-5.4 1.49m1.45-1.22c2.04.12 2.92-.58 2.89-2.21-.03-1.51-.98-2.19-2.89-2z"/><path d="m11.81 393.87h-5.49c.68-2.18 2.47-3.48 3.51-5.45h-3.08v-1.21h5.29c-.71 2.13-2.44 3.48-3.47 5.51.86 0 1.63.04 2.39-.01.79-.05 1.14.21.85 1.16"/><path d="m39.33 393.86v-6.61h3.7v1.07h-2.22v1.52c.68.04 1.34.09 2.07.13v1.07c-.72.05-1.38.09-2.1.14v1.48h2.4v1.19h-3.85z"/><path d="m27.71 388.56c-1.15-.3-2.46-.61-3.1.64-.37.73-.41 1.93-.06 2.67.63 1.35 1.99.93 3.17.68.35.94-.01 1.32-.93 1.46-1.62.25-3.05-.27-3.76-1.48-.73-1.24-.6-3.03.31-4.17.88-1.11 2.71-1.7 4-1.16.32.13.44.74.65 1.12-.1.08-.19.16-.28.24"/><path d="m49.15 387.24v1.07c-.59.02-1.17.05-1.87.08v5.44h-1.48v-5.44h-1.85c-.05-.4-.08-.73-.13-1.15z"/><path d="m20.06 387.21h1.33v6.62h-1.33z"/><path d="m30.68 393.25c-.49.38-.8.79-1.05.76-.32-.05-.6-.45-.9-.7.26-.24.51-.64.8-.67.29-.04.62.3 1.15.61"/></g><path d="m150.71 347.13c4.62-1.35 8.96-2.74 13.36-3.86 2.85-.73 5.62-1.56 6.14-4.84.57-3.66 1.49-7.38-2.28-10.4-4.97-3.98-9.61-8.39-14.33-12.68-1.27-1.16-2.3-2.59-3.53-4 9.02-1.86 15.71 1.93 21.73 7.48 4.03 3.71 7.63 7.98 12.01 11.19 2.6 1.91 6.3 2.42 9.59 3.25 2.81.71 4.28-1.12 4.44-3.61.22-3.31.69-6.85-.2-9.93-3.01-10.42-3.8-20.8-1.82-31.5 1.81-9.77 3.05-19.64 4.91-29.4.64-3.35 1.92-6.77 3.73-9.65 3.07-4.88 2.81-10.22 3.29-15.52.04-.41-.14-.86-.3-1.26-.07-.17-.33-.27-.74-.56-.38.64-.73 1.26-1.11 1.86-3.57 5.64-6.55 11.81-10.9 16.77-3.78 4.31-6.95 8.75-8.78 14.03-2.3 6.63-11.02 5.67-14.75 2.63-.86-.71-.76-4.5.16-5.18 6.27-4.66 9.45-11.29 12.22-18.15 1.99-4.93 5.08-8.77 8.96-12.29 1.57-1.42 2.95-3.78 3.17-5.84.7-6.72 2.62-12.78 6.62-18.31 1.24-1.72 1.8-4.33 1.75-6.51-.28-13.26-4.52-25.69-8.45-38.16-.27-.85-1.47-1.83-2.35-1.96-1.73-.26-3.78-.51-5.27.18-6.35 2.93-12.57 6.13-18.76 9.38-6.6 3.47-12.83 7.87-19.74 10.49-8.1 3.07-6.81 2.14-10.3-3.71 2.52-2.63 4.9-5.2 7.38-7.68 1.01-1.01 2.14-1.97 3.36-2.69 6.71-4 13.48-7.93 20.45-12.02-2.24-7.23-4.37-14.38-6.68-21.47-.7-2.15-6.52-3.08-8-1.33-3.92 4.6-7.82 9.22-11.55 13.98-.72.91-1.01 2.5-.86 3.7.54 4.32 1.35 8.61 2.06 12.91.8 4.86-.72 7.94-4.35 8.93-1.61.44-2.68.2-3.47-1.51-2.27-4.9-3.11-10.04-2.65-15.36.3-3.45.81-6.9 1.51-10.28.94-4.57 2.98-8.39 5.88-12.34 6.23-8.51 13.55-15.36 22.57-20.63.68-.4 1.21-2.08.95-2.88-2.16-6.54-3.74-13.22-7.74-19.14-4.78-7.08-5.14-15.39-4.25-23.64 1.23-11.45 2.8-22.87 4.05-34.32.33-3.07 2.12-5.76 4.43-5.93 2.1-.16 5.09 1.88 6.42 3.82 1.61 2.36 1.78 5.68 2.8 8.5.49 1.36 1.26 2.81 2.33 3.72 2.81 2.39 5.8 4.57 8.8 6.72 4.36 3.13 6.13 7.48 6.39 12.67.09 1.84-.42 2.96-2.32 3.41-4.66 1.1-8.37 3.19-10 8.26-.43 1.33-2.88 2.01-4.54 3.08-1.02-3.55-1.06-6.18.66-9.15 1.27-2.19.95-5.31 1.26-7.49-.64-.68-.7-.81-.79-.84-5.63-1.71-6.55-1.5-7.32 4.27-.66 4.91-.97 10.15.06 14.93 1.68 7.83 4.44 15.43 7 23.05 1.23 3.67 3.77 3.96 7.03 1.97 6.16-3.75 9.92-8.9 11.48-15.99.6-2.71 2.36-5.25 3.96-7.63 5.41-8.05 12.39-15.04 16.07-24.26.46-1.15 1.63-2.12 2.67-2.91 1.54-1.18 2.86-1.13 4.12.79 6.67 10.15 9.57 21.34 9.29 33.38-.11 5.09-.59 10.17-.92 15.7 7.85-5.47 12.12-15.44 23.47-15.34-2.86 11.15-5.3 21.94-8.52 32.49-1.24 4.04-4.11 7.66-6.59 11.22-1.05 1.51-2.99 2.4-4.53 3.58-.3-.18-.61-.36-.91-.54.46-2.92.94-5.83 1.36-8.75.22-1.54.55-3.1.47-4.64-.11-2.27-1.26-3.31-3.78-2.96-7.55 1.05-7.27 1.1-10.03 8.04-2.13 5.35-5.04 10.38-7.7 15.51-1.33 2.57-3.12 4.92-4.27 7.57-1.4 3.24-2 6.48.97 9.58 1.39 1.45 1.88 3.76 2.83 5.65 1.91 3.8 4.99 4.01 7.86.95 3.74-3.99 7.61-7.89 11.7-11.52 4.89-4.34 8.57-9.37 10.59-15.61 1.65-5.11 4.4-9.5 8.45-12.33 3.41 5.75 6.8 11.45 10.15 17.17.39.66.63 1.44.77 2.2 1.41 7.47 1.25 14.9-.54 22.3-.57 2.37-1.77 4.24-4.37 4.42-2.64.19-4.82-.35-6.24-3.29-1.75-3.63-4.26-6.91-6.81-10.92-1.81 2.19-2.95 3.52-4.03 4.88-5.21 6.58-10.58 13.04-15.5 19.84-1.58 2.19-2.79 5.3-2.66 7.92.29 6.09.95 12.28 2.43 18.18 3.25 12.93 5.34 26 0 38.53-3.23 7.58-2.38 15.3-3.82 22.88-2.18 11.42-4.11 22.88-6.12 34.33-.13.76-.38 1.67-.11 2.31 2.84 6.77.65 13.45-.18 20.17-.21 1.66-.34 3.35-.23 5.01.34 5.01 1.62 5.72 6.55 6.25 4.5.49 8.92 1.85 13.34 3 3.87 1.01 7.68 2.25 11.44 3.37-.15 3.21-1.51 5.25-4 6.8-10.22 6.39-20.11 13.37-30.65 19.16-7.55 4.15-16.02 5.67-24.95 5.01-5.71-.42-11.54 1.02-17.33 1.32-3.89.2-7.8-.15-11.7-.27-3.18-.1-4.96-1.6-4.83-5.33 5.84-.86 11.8-1.71 17.74-2.63 2.43-.37 4.93-.62 7.21-1.45 1.82-.66 3.7-1.8 4.94-3.25 4.04-4.7 2.11-10.51-3.91-10.92-4.69-.32-9.51.63-14.22 1.31-5.4.79-8.18-.45-9.75-5.44zm37.94-199.56c6.1-3.66 12.21-7.03 10.52-15.2-.91-4.39-2.45-8.77-4.44-12.79-1.74-3.51-5.28-5.39-9.19-6.07-.95-.17-2.2.08-3.01.6-5.14 3.29-6.46 8.34-5.7 13.97 1.08 8.1 6.5 13.68 11.82 19.49zm25.21-73.66c-6.17 8.48-12.25 16.69-18.13 25.03-1.49 2.12-1.74 4.4.95 6.31 3.76 2.67 6.93 5.89 8.49 10.45.66 1.94 1.77 3.73 3.01 6.29 1.06-1.54 1.93-2.39 2.29-3.41.99-2.84 1.97-5.71 2.57-8.64 1.98-9.71 4.62-19.39 2.98-29.44-.4-2.43-1.53-4.73-2.16-6.59zm1.45 278.23c-1.51-1.46-2.65-3.55-4.06-3.75-5.43-.77-11.04-1.45-15.99 2.69.47 2.28.97 4.71 1.46 7.13 6.77 0 12.74-1.23 18.59-6.07z" fill="#010000"/><path d="m140 362.55c1.34.48 2.68.96 4.03 1.43-.08.46-.16.92-.25 1.38-1.31.06-2.64.28-3.91.07-.33-.05-.45-1.42-.67-2.18.27-.24.53-.47.8-.7z" fill="#010000"/></svg>