<svg enable-background="new 0 0 400 400" viewBox="0 0 400 400" xmlns="http://www.w3.org/2000/svg"><path d="m158.39 98.01c5.84-7.54 6.72-18.32 15.51-24.45 1.58 3.2 3.94 5.91.32 8.96-.55.46-.9 1.31-1.09 2.04-2.37 9.18-4.94 18.33-6.9 27.59-.84 3.96-.76 8.23-.39 12.29.19 2.09 1.56 4.38 3.04 5.99 4.07 4.46 8.7 8.42 12.66 12.96 1.97 2.26 2.98 5.36 4.7 8.59 1.47-.31 3.76-.71 6-1.29 2.08-.53 3.51-.2 4.7 1.86 4.67 8.07 12.69 12.79 19.31 18.91 1.01.93 2.81 1 3.83 1.92.92.83 1.32 2.27 1.89 3.47.61 1.28 1.15 2.59 1.72 3.88.36.1.71.2 1.07.3 1.31-2.84 3.27-5.56 3.8-8.54 1.95-11 3.65-22.05 5-33.13.77-6.35.46-12.66-3.85-18.18-1.67-2.14-2.21-5.13-3.59-7.54-1.91-3.35-3.77-6.84-6.29-9.7-6.7-7.59-9.19-16.86-11.83-26.19 4.33-1.36 9.72 1.37 11.4 5.44.17.41.37.83.44 1.26 1.46 9.14 7.97 14.6 15.43 20.71.82-6.22 1.62-11.87 2.29-17.53 1.38-11.52 2.6-23.06 4.13-34.57.19-1.44 1.86-2.68 2.84-4.02.26.14.53.28.79.42.29 7.19.57 14.39.88 21.58.15 3.58.68 7.18.44 10.72-.38 5.64-1.6 11.24-1.84 16.88-.31 7.13-.42 14.32.26 21.4.25 2.61 2.75 5.18 4.66 7.4 1.57 1.83 4 2.92 5.64 4.71 1.36 1.48 2.5 3.39 3.05 5.31.86 3.02 2.2 5.26 5.35 6.26 3.09.98 2.28 3.89 2.19 5.97-.03.81-2.55 2.31-3.69 2.11-2.18-.38-4.49-1.4-6.21-2.8-3.7-3.04-7.05-6.49-11.1-10.29-.7 4.56-1.05 8.61-1.97 12.53-5.46 23.15-11.02 46.27-16.66 69.38-.28 1.16-1.33 2.28-2.3 3.09-5.95 4.92-12.03 9.68-17.93 14.66-1.14.96-2.17 2.64-2.3 4.07-.26 3-1.49 4.87-4.18 6.14-1.14.54-2.11 1.63-2.89 2.68-2.41 3.22-4.66 6.57-7.03 9.82-1.38 1.9-3 3.04-5.69 2.58-3.61-.61-4.58.92-3.5 4.31.38 1.18.08 2.68-.25 3.94-.45 1.7-1.8 3.32-1.8 4.97.01 7.13-2.18 13.75-5.01 20.04-3.18 7.07-3.63 14.15-2.17 21.55.86 4.36.18 8.46-1 12.79-1.18 4.3-.64 9.05-1.16 13.57-.21 1.86-1.2 3.63-1.87 5.43-.53 1.42-1.47 2.77-1.61 4.22-.4 4-.44 8.04-.71 12.05-.24 3.51-1.4 6.55-5.67 8.7.32-1.71.55-2.82.73-3.94.22-1.36.94-2.95.5-4.06-3.61-9.18-2.21-18.35.17-27.38 1.37-5.21 1.73-10.08.58-15.43-.79-3.67.08-7.74.42-11.62.87-9.95 2.07-19.77 8.16-28.32 1.25-1.76 1.12-4.7 1.13-7.1.01-3.16.82-5.71 2.91-8.23 2.3-2.78 3.89-6.16 5.77-9.29 2.06-3.41 3.89-6.98 6.23-10.17 1.57-2.14.76-3.26-.88-4.31-2.33-1.49-5.01-2.53-7.13-4.26-2.13-1.74-3.76-4.1-5.11-5.62-2.75 0-5.44.76-7.1-.22s-2.29-3.7-3.56-6c-6.4 4.63-10.44-1.78-15.83-4.06-.44 3.52-1.12 6.8-1.2 10.09-.15 5.89-1.96 11.14-5.11 16.03-2.47 3.83-4.18 7.85-3.6 12.6.1.85-.61 2.33-1.34 2.67-3.8 1.79-3.83 4.87-3.15 8.23.72 3.58.07 6.61-3.53 9.37-.42-5.32-.8-10.14-1.17-14.96-.02-.21.05-.52.19-.62 4.37-3.08 2.31-7.64 2.91-11.67 1.24-8.39 3.05-16.7 4.79-25.01 2.03-9.74 4.28-19.43 6.3-29.16.32-1.53-.17-3.21-.15-4.82.02-2.21.11-4.42.26-6.62.05-.76.32-1.55.64-2.25 3.79-8.43 4.36-17.37 4.97-26.45.35-5.21 2.87-10.26 4.24-15.43.41-1.53.73-3.42.2-4.8-1.87-4.83-.92-9.45.48-14.08.83-2.75.52-5-1.37-7.37-1.47-1.84-2.36-4.24-3.15-6.52-5.04-14.54-5.51-29.84-7.31-44.92-.77-6.44-1.27-12.92-2.17-19.34-.23-1.64-1.26-3.32-2.31-4.67-4.16-5.36-2.08-11.19 4.78-11.95 2.66-.3 5.82.66 8.2 2.02 2.82 1.62 2.96 4.81 1.19 7.78-2.37 3.97-2.89 8.09-1.44 12.56 1.24 3.82 2.19 7.73 3.2 11.61.63 2.43.78 4.81-.86 7.04-.36.49-.28 1.47-.12 2.16 1.26 5.52 2.74 10.99 3.82 16.54.47 2.47 1.37 4.13 3.96 4.73zm6.04 131.49c11.02 1.62 15.98-1.68 17.05-11.22.19-1.66 0-3.37.24-5.02.32-2.16.45-4.52 1.44-6.37 2.49-4.67 3.57-9.38 3.18-14.74-.19-2.61 1.02-5.75 2.59-7.92 1.4-1.93 1.86-3.4 1.52-5.65-.64-4.19-2.94-8.3-.85-12.74.2-.42-.65-1.54-1.24-2.1-7.45-7.09-15.01-14.07-22.37-21.26-1.62-1.58-3.1-1.27-4.46-.46-.9.54-1.81 1.97-1.8 3 .06 6.47-1.19 12.64-3.54 18.64-.36.92-.57 1.93-.64 2.92-.67 9.36-1.2 18.73-2.02 28.08-.16 1.79-1.43 3.48-2.16 5.23-.6 1.43-1.79 2.95-1.64 4.32 1.3 11.85 1.33 11.89 10.92 18.77 2.36 1.68 4.47 3.27 3.78 6.52zm23.05 1.63c-.15 4.14.96 5.08 4.44 4.13 1.18-.32 2.35-.73 3.44-1.27 8.54-4.25 15.96-9.55 20.22-18.66 3.56-7.61 9.23-14.32 9.18-23.34 0-.53.3-1.07.5-1.58 1.35-3.51-.13-6.91-3.79-7.24-5.83-.53-10.5-3.49-15.35-6.2-3.4-1.9-5.47-.97-6.34 2.96-1.15 5.23-2.06 10.51-3.26 15.73-2.52 10.94-3.29 22.34-8.36 32.63-.47.96-.52 2.15-.68 2.84z" fill="#010102"/><path d="m177.94 71.45c-3.1-3.51-3.21-6.56-2.09-9.65 4.18-11.55 8.42-23.07 12.77-34.55.3-.78 1.8-1.72 2.57-1.58 2.49.45 5.05 1.07 7.31 2.18 2.89 1.41 3.94 3.75 3.09 7.24-.9 3.67-2.49 6.54-5.49 8.81-3.5 2.65-6.64 5.61-7.65 10.23-.24 1.11-1.35 2.01-1.96 3.07-1.54 2.63-2.98 5.32-4.53 7.94-1.2 2.01-2.51 3.95-4.02 6.31z" fill="#010102"/><g fill="#fcfbfa"><path d="m385.2 377.6.6-.7c.6.4 1.3.9 1.9 1.5l-.6.7c-.8-.5-1.4-1-1.9-1.5zm.3 7.1c.6-1.4 1.1-2.9 1.5-4.5.3.1.6.3.9.4-.5 1.4-1 2.9-1.5 4.4zm.2-10.1.6-.6c.7.5 1.3 1.1 1.9 1.6l-.7.7c-.6-.6-1.2-1.2-1.8-1.7zm8.4-.8h.8v.9h1.8v.7h-1.8v1.8h-.8v-.3h-1.2v.9h3.3v2.6h-.8v-.4h-2.5c0 .3 0 .6-.1.8h3.4v.7h-3.5c0 .3-.1.6-.1.8h4v.7h-3.5c.7.9 1.9 1.3 3.6 1.5-.2.2-.4.5-.6.9-1.9-.3-3.2-1.1-3.8-2.3-.5 1.1-1.8 2-3.9 2.4-.2-.3-.4-.5-.6-.8 1.9-.4 3.1-.9 3.6-1.7h-3.2v-.7h3.5c.1-.2.1-.5.2-.8h-3.3v-.7h3.4c0-.2 0-.5 0-.8h-2.4v.3h-.8v-2.6h3.3v-.9h-1.2v.3h-.8v-1.8h-1.8v-.7h1.8v-.9h.8v.9h3.2zm-4.4 5.5h2.4c0-.3 0-.6 0-.9h-2.4zm1.2-3.1h3.2v-.8h-3.2zm4.4 2.2h-2.4v.9h2.5v-.9z"/><path d="m389.2 385.8h.9v1.5h1.9v-1.5h.9v1.5h2.7v6h1.1v.9h-11.3v-.9h1.1v-6h2.7zm.2 8.7.5.8c-1.2.6-2.5 1.3-4 1.9-.2-.3-.3-.6-.6-.8 1.6-.6 3-1.3 4.1-1.9zm-2-4.3h1.9v-2.1h-1.9zm0 3.1h1.9v-2.2h-1.9zm2.7-3.1h1.9v-2.1h-1.9zm0 3.1h1.9v-2.2h-1.9zm2.4 1.3c1.4.6 2.7 1.2 4.1 1.8l-.5.9c-1.5-.7-2.8-1.4-4.1-1.9zm2.2-6.5h-1.9v2.1h1.9zm-1.9 5.2h1.9v-2.2h-1.9z"/></g></svg>