<svg enable-background="new 0 0 400 400" viewBox="0 0 400 400" xmlns="http://www.w3.org/2000/svg"><path d="m122.53 322.61c3.39.1 6.44.44 9.2 2.96 7.36 6.71 14.99 13.12 22.49 19.67.75.65 1.71 1.34 2 2.2 1.24 3.8 4.21 5.51 7.59 6.94 6.02 2.56 11.52 5.87 15.8 10.99.6.72 2.22 1.32 3.03 1.03 7.79-2.75 15.64-5.41 23.22-8.69 6.32-2.74 12.2-6.46 18.45-9.38 4.74-2.21 9.75-3.83 14.63-5.75.72-.28 1.38-.74 2.04-1.15 5.76-3.54 9.23-7.75 8.16-15.46-1.45-10.49-1.26-21.19-2.29-31.75-.65-6.63-3.37-12.45-7.89-17.73-5.98-7-12.1-13.69-19.43-19.34-3.94-3.03-7.12-7.03-10.72-10.51-2.47-2.39-4.87-4.93-7.68-6.88-24.52-16.97-45.19-37.94-63.88-61-.35-.43-.77-.87-.94-1.38-4.68-13.83-11.68-26.88-13.68-41.62-2.07-15.23-1.3-30.38 1.19-45.45 1.58-9.54 5.35-18.15 12.76-24.78.17-.15.32-.32.48-.47 3.72-3.54 5.3-3.57 9.15.33.48-2.54.76-4.78 1.37-6.93.41-1.44.94-3.12 1.99-4.07 12.15-11.12 25.59-20.61 41.19-25.84 7.84-2.63 16.73-2.27 25.17-2.85 4.65-.32 9.39-.09 14.01.51 1.76.23 3.44 2 4.91 3.34 1.8 1.64 3.35 3.56 4.44 4.75 3.23-.57 6.1-2.01 8.15-1.24 4.52 1.69 8.66 4.45 12.88 6.91.5.29.56 1.39.78 2.13 1.65 5.79 3.54 11.53 4.85 17.39.82 3.66 1.16 7.52 1.02 11.26-.26 7.14.45 13.95 3.21 20.67 2.46 5.97 3.92 12.3-.2 18.29-.97 1.41-2.53 2.41-4.06 3.83-6.59-10.56-11.95-20.67-11.04-32.84.14-1.82.99-3.59 1.39-5-1.54-5.07-2.96-10.19-4.66-15.21-1.39-4.11-2.97-8.16-4.7-12.13-1.99-4.56-6.13-6.34-10.62-6.35-6.5-.02-11.63-2.68-16.37-6.67-.33-.28-.74-.46-1.25-.76-.94 1.02-1.82 2-2.73 2.95-2.38 2.49-4.76 3.6-8.24 1.44-4.1-2.55-6.49-1.57-8.84 2.74-3 5.52-2.99 5.36-9.29 4.95-2.22-.14-4.59.44-6.75 1.13-9.41 3.03-16.97 8.84-23.44 16.17-6.14 6.96-12.4 13.82-18.25 21.01-3.89 4.77-5.66 10.22-5.19 16.79.31 4.34-1.57 8.94-3 13.26-1.24 3.73-1.38 7.13.58 10.55 4.84 8.44 5.08 17.67 4.52 26.99-.18 2.99.6 5.4 2.56 7.62 7.02 7.98 13.98 16.01 20.94 24.04.8.92 1.79 1.86 2.12 2.96 1.48 4.96 5.41 7.5 9.18 10.57 7.52 6.12 14.71 12.69 21.69 19.43 15.29 14.78 30.37 29.78 45.54 44.68.8.78 1.62 1.58 2.56 2.16 5.72 3.48 10.33 8.05 14.28 13.46 1.51 2.08 3.98 3.53 6.19 5 1.66 1.1 2.57 2.13 2.11 4.31-.53 2.5-.65 5.1-.84 7.66-.07.98-.21 2.26.3 2.91 2.39 3.07 1.26 6.03.17 9.12-.96 2.72-2.63 5.66-2.29 8.29 1.1 8.64-3.41 15.06-7.74 21.48-4.19 6.2-8.83 12.12-13.59 17.91-1.71 2.09-4.08 4.06-6.57 5.02-13.94 5.41-27.83 11.06-42.11 15.39-5.57 1.69-12.11.68-18.05-1.69-6.08-2.42-11.2-5.88-15.17-11.1-3.52-4.62-8.14-7.78-13.28-10.49-3.81-2-7.2-4.87-10.62-7.54-.81-.63-1.48-2.09-1.39-3.09.28-3.06-1.22-4.73-3.64-6.15-4.84-2.85-6.9-6.06-7.86-11.9z" fill="#010100"/><path d="m167.99 128.15c.46-3.32 1.01-6.63 1.35-9.96.53-5.21 1.02-10.42 1.32-15.64.22-3.93 1.16-7.2 4.23-10.12 6.61-6.3 14.29-10.34 23.14-12.11 5.39-1.08 10.23 1.06 13.54 5.01 3.68 4.39 6.69 9.44 9.36 14.54 1.01 1.93.53 4.79.31 7.19-1.02 11.02-2.2 22.03-3.28 33.05-.23 2.33-.53 4.79-3.33 5.08-2.68.27-5.38-.19-6.73-3.2-1.18-2.65-2.41-5.28-3.74-7.86-2.66-5.18-6.55-6.23-11.85-3.93-5.18 2.25-9.14 5.26-10.78 11.01-.78 2.75-6.11 2.52-8.57-.2-3.27-3.65-5.09-7.86-4.97-12.86zm40.15-22.86c-.26-1.65-.44-3.31-.8-4.93-1.29-5.68-6.38-8.19-11.38-5.39-2.6 1.45-5.01 3.33-7.24 5.31-4.76 4.22-4.96 9.84-.62 14.49.68.73 1.82 1.41 2.78 1.46 4.91.24 9.57-.64 13.46-3.94 2.13-1.82 4.46-3.59 3.8-7z" fill="#010100"/><path d="m219.94 287.59c-1.61 1.12-3.05 2.13-4.61 3.21.22.79.34 1.57.65 2.25 4.45 9.92 4.15 20.31 2.55 30.65-.49 3.15-2.73 6.17-4.64 8.91-1.07 1.55-3.13 1.45-4.04-.59-1.25-2.79-2.31-5.68-3.22-8.61-.46-1.47-.43-3.09-.58-4.64-.44-4.38-2.95-6.96-7.16-7.69-4.83-.84-9.7-1.4-15.3-2.19-.21 3.78-.54 7.17-.55 10.56-.01 4.18-1.68 7.07-6 8.58-2.36-2.5-4.49-5.15-3.79-9 .67-3.66-.24-6.91-2.41-9.79-3.28-4.36-4.4-8.5-.42-13.28 2.68-3.22 2.24-7.28 1.31-11.25-1.51-6.49-.17-10.03 4.57-12.62.77-.42 1.68-.9 2.49-.85 9.8.67 19.61 1.39 29.4 2.21 4.23.35 7.22 2.33 8.5 6.71.75 2.54 2.12 4.89 3.25 7.43zm-27.35 12.65c11.84-.44 11.82-3.5 11.6-11.11-.1-3.26-3.59-5.81-6.39-5.22-3.36.71-6.79 1.09-10.16 1.73-2.58.49-5.6.71-6.44 3.8-.99 3.64 1.17 8.86 4.13 9.84 2.27.75 4.83.67 7.26.96z" fill="#010100"/><g fill="#fcfafa"><path d="m342.2 3.2-6.3 9.2h6.1v1.2h-8.2v-.5l6.2-9.1h-5.7v-1.2h7.8v.4z"/><path d="m344 13.7v-10.9h3.1c1.6 0 3 .5 4.1 1.4 1.1 1 1.6 2.2 1.6 3.9s-.5 3-1.6 4-2.5 1.5-4.2 1.5h-3zm1.4-9.6v8.4h1.6c1.4 0 2.5-.4 3.2-1.1.8-.8 1.2-1.8 1.2-3.2s-.4-2.4-1.2-3.1-1.8-1-3.1-1z"/><path d="m356.3 2.8v10.9h-1.4v-10.9z"/><path d="m366.6 13.2c-.8.4-1.8.6-3 .6-1.6 0-2.8-.5-3.7-1.5s-1.4-2.3-1.4-3.9c0-1.7.5-3.2 1.6-4.2s2.4-1.6 4-1.6c1 0 1.9.1 2.6.4v1.5c-.8-.4-1.6-.6-2.6-.6-1.2 0-2.2.4-3 1.2s-1.1 1.9-1.1 3.3c0 1.3.4 2.3 1.1 3.1s1.6 1.1 2.8 1.1c1.1 0 2-.2 2.8-.7v1.3z"/><path d="m368.2 13c0-.3.1-.5.3-.6.2-.2.4-.3.6-.3.3 0 .5.1.7.3s.3.4.3.6-.1.5-.3.6c-.2.2-.4.3-.7.3s-.5-.1-.6-.3c-.2-.2-.3-.4-.3-.6z"/><path d="m381.1 13.7h-1.7l-5.5-8.4c-.2-.2-.3-.5-.4-.7 0 .2.1.8.1 1.5v7.6h-1.4v-10.9h1.8l5.3 8.3c.3.4.4.6.4.8 0-.3-.1-.8-.1-1.6v-7.5h1.4v10.9z"/><path d="m389.7 13.7h-5.8v-10.9h5.6v1.2h-4.2v3.5h3.9v1.2h-3.9v3.7h4.4z"/><path d="m398.4 4.1h-3.1v9.6h-1.4v-9.6h-3.1v-1.3h7.7v1.3z"/></g></svg>