<svg enable-background="new 0 0 400 400" viewBox="0 0 400 400" xmlns="http://www.w3.org/2000/svg"><path d="m127.41 242.22c3.38 1.18 6.42 1.62 8.73 3.15 13.22 8.8 26.34 17.77 39.33 26.92 2.87 2.02 4.98 5.1 7.61 7.5 1.54 1.41 3.42 2.46 5.22 3.71 5.74-14.11 6.84-27.53 1.03-41.12-1.77-4.15-5.01-6.62-8.99-7.8-3.12-.92-5.87-1.9-7.66-4.74-.17-.28-.45-.49-.69-.73-4.79-4.84-6.57-5.09-12.37-1.6-2.66-3.6-3.82-7.75-3.96-12.11-.39-12.4-1.06-24.82-.71-37.21.19-6.74 1.96-13.49 3.52-20.11 2.79-11.83 3.85-23.82 4.45-35.9.04-.89-.21-2.23.27-2.6 3.62-2.83 1.17-5.41.04-8.22-.55-1.35-.61-3.03-.44-4.5.9-7.88 1.95-15.75 2.95-23.62.04-.33-.01-.7.1-1 5.98-16.22 8.1-33.75 16.7-49.08 1.36-2.42 2.67-4.88 4.22-7.7 2.05 4.38 4.27 8.17 3.37 12.92-.41 2.17-.08 4.48-.32 6.7-.5 4.61 1.25 8.34 4.39 11.48 2.83 2.84 4.91 5.97 5.62 10.05.23 1.31 1.47 2.63 2.59 3.54 1.18.96 2.72 1.53 4.16 2.13 4.35 1.81 7.82 4.56 10.55 8.48 5.25 7.53 10.81 14.83 16.08 22.34 1.01 1.45 1.29 3.41 1.91 5.13.33.92.37 2.14 1.01 2.71 7.42 6.74 9.82 16.01 12.77 25.01.38 1.16.63 2.52 1.4 3.36 7.86 8.61 10.5 19.29 12.22 30.34 2.69 17.24 5.66 34.44 7.8 51.74.68 5.51-.72 11.32-1.47 16.95-.51 3.83-1 7.5 1.26 10.99.45.7.66 1.72.59 2.55-.58 7.02-1.3 14.02-1.86 21.04-.29 3.67-.31 7.37-.49 11.06-.24 4.99-2.07 8.36-5.37 10.42-1.73-8.6-3.51-17.33-5.23-26.07-.17-.86-.11-1.79-.03-2.68.6-6.61.25-13.04-1.67-19.53-.88-2.99-.08-6.68.65-9.9.98-4.35.46-8.03-2.37-11.55-1.87-2.33-3.28-5.03-5.04-7.79-3.54 5.02-6.92 9.84-10.33 14.65-1.81 2.56-3.85 4.97-5.45 7.65-2.32 3.87-5.59 4.79-9.94 3.91-.27-3.37-1.01-6.47 2.17-9.41 1.76-1.62 2.43-4.67 3.06-7.21.61-2.47.46-5.12.79-7.67.51-3.89 1.27-7.62 4.07-10.76 1.5-1.68 2.41-3.97 3.28-6.11 1.1-2.68 1.67-5.59 2.85-8.23 3.48-7.78 4.43-15.88 3.07-24.2-.25-1.52-1.8-3.68-3.09-3.95-1.37-.29-3.93.92-4.58 2.18-2.02 3.95-3.42 8.22-5 12.39-1.31 3.43-2.32 7-3.87 10.32-1.85 4-5.15 6.66-9.42 8.49-1.89-3.86-3.38-7.26-1.17-11.91 1.86-3.91 1.85-8.68 2.85-13.03.44-1.92 1.12-3.86 2.06-5.59 3.55-6.59 7.36-13.05 10.81-19.7.82-1.59 1.29-3.92.77-5.55-2.32-7.32-5.06-14.52-7.65-21.75-.04-.1-.08-.23-.16-.29-6.48-5.21-6.78-14.06-11.82-20.11-5.02-6.01-9.95-12.09-15.16-17.93-2.42-2.71-5.39-4.94-8.22-7.48-3.08 4.01-4.44 8.19-3.89 12.62 1.43 11.64-.72 22.98-2.32 34.37-2.56 18.16-5.13 36.32-7.86 54.46-.63 4.18-1.93 8.26-2.86 12.4-.46 2.06-.96 4.14-1.12 6.24-.33 4.33.9 7.9 4.44 10.94 7.48 6.41 14.62 13.2 21.9 19.84 5.82 5.31 9.66 11.64 12.14 19.27 2.27 6.95 2.54 13.31 1.08 20.48-1.92 9.38-2.29 19.08-3.32 28.64-.07.67.03 1.38-.16 2-2.24 7.58 1.54 13.17 6.11 18.46 1.83 2.11 3.82 4.1 5.8 6.07 3.99 3.98 7.26 8.35 9.56 13.6 1.19 2.7 3.62 4.95 5.81 7.08 2.21 2.14 4.45 4.11 4.59 7.44-5 3.03-5.53 3.03-9.28-.86-14.53-15.07-29.11-30.07-45.59-43.11-2.76-2.18-4.64-5.73-6.32-8.96-3.17-6.09-7.91-10.42-13.63-13.97-7.88-4.88-15.9-9.48-24.83-12.73-1.69 2.78-1.5 5.36-.83 8.19.73 3.1 1.12 6.32 1.34 9.51.93 13.26 1.66 26.53 2.61 39.79.62 8.61.76 17.09-.68 25.72-.8 4.76.85 9.93 1.29 14.92.14 1.63.39 3.52-.26 4.88-.52 1.09-2.26 1.82-3.6 2.18-.4.11-1.7-1.49-1.88-2.44-1.29-6.76-4.34-12.8-6.86-19.12-2.97-7.45-4.88-15.58-2.78-23.86.82-3.23 1.19-6.3-.92-9.26-3.48-4.87-4.41-10.12-2.32-15.89.75-2.08.84-4.4 1.51-6.52 1.46-4.62.87-9.22.46-13.91-.51-5.88-.74-11.81-.58-17.7.17-7.58.88-15.16 1.46-24.14z" fill="#010100"/><g fill="#fcfafa"><path d="m342.2 3.2-6.3 9.2h6.1v1.2h-8.2v-.5l6.2-9.1h-5.7v-1.2h7.8v.4z"/><path d="m344 13.7v-10.9h3.1c1.6 0 3 .5 4.1 1.4 1.1 1 1.6 2.2 1.6 3.9s-.5 3-1.6 4-2.5 1.5-4.2 1.5h-3zm1.4-9.6v8.4h1.6c1.4 0 2.5-.4 3.2-1.1.8-.8 1.2-1.8 1.2-3.2s-.4-2.4-1.2-3.1-1.8-1-3.1-1z"/><path d="m356.3 2.8v10.9h-1.4v-10.9z"/><path d="m366.6 13.2c-.8.4-1.8.6-3 .6-1.6 0-2.8-.5-3.7-1.5s-1.4-2.3-1.4-3.9c0-1.7.5-3.2 1.6-4.2s2.4-1.6 4-1.6c1 0 1.9.1 2.6.4v1.5c-.8-.4-1.6-.6-2.6-.6-1.2 0-2.2.4-3 1.2s-1.1 1.9-1.1 3.3c0 1.3.4 2.3 1.1 3.1s1.6 1.1 2.8 1.1c1.1 0 2-.2 2.8-.7v1.3z"/><path d="m368.2 13c0-.3.1-.5.3-.6.2-.2.4-.3.6-.3.3 0 .5.1.7.3s.3.4.3.6-.1.5-.3.6c-.2.2-.4.3-.7.3s-.5-.1-.6-.3c-.2-.2-.3-.4-.3-.6z"/><path d="m381.1 13.7h-1.7l-5.5-8.4c-.2-.2-.3-.5-.4-.7 0 .2.1.8.1 1.5v7.6h-1.4v-10.9h1.8l5.3 8.3c.3.4.4.6.4.8 0-.3-.1-.8-.1-1.6v-7.5h1.4v10.9z"/><path d="m389.7 13.7h-5.8v-10.9h5.6v1.2h-4.2v3.5h3.9v1.2h-3.9v3.7h4.4z"/><path d="m398.4 4.1h-3.1v9.6h-1.4v-9.6h-3.1v-1.3h7.7v1.3z"/></g></svg>