<svg enable-background="new 0 0 400 400" viewBox="0 0 400 400" xmlns="http://www.w3.org/2000/svg"><path d="m168.99 123.78c3.27-3.17 3.59-4.6 1.71-8.94-3.51-8.07-6.9-16.15-13.07-22.81-3.62-3.91-5.47-8.86-4.77-14.53.16-1.3-.69-3.06-1.64-4.11-6.75-7.51-8.78-16.9-10.76-26.32-.23-1.08-.22-2.22-.26-3.34-.13-3.92.58-7.34 4.98-8.72.79-.25 1.46-.91 2.06-1.3-2.39-1.15-4.91-1.95-6.85-3.49-.67-.53.09-2.88.2-4.34 4.34-.35 7.24 1.16 8.41 4.84 4.05 12.75 9.83 24.93 12.04 38.3 1.43 8.69 4.45 14.56 8.26 18.4 2.13-5.18 2.12-10.48 2.27-15.75.1-3.69-.11-7.39.16-11.06.28-3.82 1.79-7.15 5.18-9.33 1.76-1.13 3.01-1.3 4.18 1.07 4.3 8.67 4.89 17.81 3.78 27.18-.46 3.88-1.33 7.71-2.06 11.55-2.55 13.34 3.49 23.25 17.4 27.47.54-3.3 1.63-6.54 1.5-9.74-.35-8.8-1.19-17.58-1.86-26.36-.18-2.44-.54-4.88-.61-7.33-.1-3.49 1.61-5.66 5.35-6.38 3.27 5.25 4.08 11.25 5.32 17.11 2.21 10.44 2.9 20.93 2.44 31.65-.25 5.87 1.88 11.82 2.67 17.77.26 1.97-.06 4.1-.51 6.06-1.93 8.58-4.04 17.13-6.01 25.7-.51 2.2.54 3.38 2.67 4.23 8.32 3.29 16.89 2.8 25.49 1.99 13.63-1.29 22.72-.52 36.22 3.08-.41 9.79-.82 19.44-1.2 29.1-.6 15.32 0 30.41 3.48 45.58 3.97 17.29 4.23 35.06 1.47 52.72-4.09 6.19-.2 12.48-.28 18.71-.13 9.85-.32 19.7-.9 29.53-.38 6.56-1.35 13.11-2.35 19.61-.18 1.14-1.67 2.43-2.85 2.91-.59.24-2.35-.97-2.74-1.89-1.56-3.68-3.42-7.41-4.03-11.3-1.37-8.7-2.31-17.5-2.91-26.29-.19-2.84 1.34-5.77 1.85-8.7.35-2.02.58-4.15.34-6.17-.95-7.87-2.27-15.71-3.12-23.59-.27-2.46.08-5.17.88-7.51 1.87-5.41 2.29-10.87 1.78-16.5-.46-5.13-.96-10.27-.99-15.41-.02-3.71-.99-6.72-3.69-9.26-1.21-1.14-2.12-2.61-3.26-3.83-9.25-9.88-16.39-21.14-22.38-33.24-2.01-4.06-4.96-7.65-7.57-11.4-3.12-4.5-6.48-8.84-9.44-13.44-1.3-2.01-2.83-2.9-4.96-2.42-2.7.61-5.32 1.55-7.96 2.38-2.44.77-4.83 1.72-7.3 2.37-3.05.8-5.45-.41-7.35-2.83-.55-.7-1.08-1.47-1.78-1.99-2.25-1.7-5.17-.97-5.76 1.67-1.63 7.3-6.06 12.98-9.95 19.13-5.59 8.85-10.12 18.37-15.06 27.63-1.68 3.15-3.31 6.34-4.85 9.57-2 4.17-4.26 8.06-8.39 10.57-.95.57-1.65 1.8-2.11 2.88-3.22 7.49-6.43 15-9.44 22.58-.57 1.43-.72 3.34-.3 4.81 2.36 8.31 2.42 16.71 2.06 25.26-.62 14.86-.77 29.75-1.16 44.62-.05 1.89-.19 3.83-.66 5.64-.84 3.21-4.61 4.96-7.51 3.58-.56-.27-.99-1.12-1.18-1.79-3.25-11.39-5.44-22.87-2.49-34.72.22-.9.31-2.15-.14-2.85-2-3.05-1.8-6.31-1.54-9.69.58-7.43-.24-15.02 2.74-22.17.34-.82-.01-1.96-.15-2.93-.57-4.05-1.66-8.09-1.68-12.13-.06-16.79.3-33.56-2.37-50.24-.4-2.52.5-5.3 1.07-7.91 2.64-12 2.22-23.99.08-36-.84-4.69.22-6.84 4.61-8.42 1.32-.47 3.29-.58 4.4.09 4.95 2.95 10.43 3.96 15.85 3.31 12.07-1.44 24.06-3.56 36.08-5.4 2.65-.41 3.79-1.76 3.44-4.58-.28-2.32-.16-4.7-.03-7.04.2-3.84.05-7.28-3.23-10.28-1.55-1.42-2.4-4.45-2.28-6.69.36-6.66-1.28-12.38-5.99-17.16-.3-.27-.47-.69-.69-1.03zm-37.43 127.82c.4-.63.6-.9.75-1.19 10.15-19.5 20.31-39 30.43-58.52.66-1.28 1.19-2.65 1.58-4.04.51-1.87-.17-2.76-2.27-3.09-8.77-1.37-17.48-1.7-26.12.71-2.35.66-4.69 1.42-6.93 2.38-.73.31-1.61 1.41-1.59 2.12.22 8.56-1.25 17.25 1.67 25.61 2.55 7.31 2.61 14.6.32 21.98-.49 1.59-.79 3.27-.9 4.93-.25 3.29.37 6.38 3.06 9.11zm94.98-67.87c.07 3.83 1.47 6.66 4.15 8.48 5.45 3.68 8.63 8.77 10.53 14.93.53 1.73 1.73 3.33 2.89 4.77 3.22 3.99 6.52 7.91 9.93 11.74.72.8 2.28 1.71 3.01 1.43.99-.38 2.17-1.85 2.2-2.88.28-9.82.39-19.65.41-29.47 0-1.98-.49-3.98-.91-5.94-.18-.83-.58-2.03-1.2-2.27-3.49-1.37-7.11-3.59-10.63-3.5-6.74.18-13.45 1.71-20.38 2.71zm-36.29-26.38c.57.12 1.14.24 1.72.36 1-1.46 2.46-2.79 2.9-4.4 1.06-3.84 1.94-7.79 2.36-11.75.71-6.65-3.4-10.31-11-9.33 1.34 8.39 2.68 16.76 4.02 25.12z" fill="#010100"/><g fill="#fafbfa"><path d="m6.4 11.7c-1-.8-1.9-1.6-2.9-2.3l.6-.7c.9.7 1.9 1.4 2.9 2.2zm-2.1 8.3c.7-2.1 1.4-4.2 2-6.4.2.1.6.3 1 .4-.7 2.3-1.3 4.4-1.9 6.4zm3-12.8c-1.1-.9-2.1-1.7-2.9-2.4l.6-.7c1 .8 2 1.5 3 2.4zm1.4-1.3v-.9h10.2v.9c-.9 4.2-2.3 7.3-4.1 9.4 1.3 1.4 3.2 2.7 5.7 4-.2.2-.4.5-.7.9-2.5-1.4-4.4-2.7-5.7-4.2-1.4 1.5-3.5 3-6.1 4.4 0 0 0 0-.1-.1-.3-.4-.5-.7-.7-.8 2.7-1.3 4.7-2.8 6.2-4.2-1.8-2.2-3-5.3-3.7-9.4zm9.2 0h-7.1c.6 3.8 1.7 6.7 3.4 8.7 1.7-2 2.9-4.8 3.7-8.7z"/><path d="m31.6 3.6h.9v2.3h4.1v9.1h1.7v.9h-16.6v-.9h1.7v-9.1h4.1v-2.3h.9v2.3h3.1v-2.3zm-4 13.3.6.8c-1.9.9-3.8 1.9-5.8 2.8-.2-.3-.3-.6-.5-.9 2-.9 3.9-1.8 5.7-2.7zm-3.2-10.1v3.7h3.1v-3.7zm0 4.5v3.7h3.1v-3.7zm4.1-4.5v3.7h3.1v-3.7zm0 4.5v3.7h3.1v-3.7zm9.1 9.1c-2.1-1.1-4.1-2-5.8-2.7l.5-.8c2.2.9 4.1 1.8 5.8 2.6zm-1.9-13.6h-3.1v3.7h3.1zm-3.2 4.5v3.7h3.1v-3.7z"/></g></svg>