<svg enable-background="new 0 0 400 400" viewBox="0 0 400 400" xmlns="http://www.w3.org/2000/svg"><g fill="#fbfafa"><path d="m37.59 393.81c-.92.31-1.52.05-2-.78-.7-1.2-1.52-2.34-2.47-3.78v4.59c-.55.03-.95.05-1.41.07-.03-.37-.06-.64-.06-.91 0-1.91 0-3.81 0-5.7 1.13-.41 1.77-.03 2.29.91.62 1.11 1.38 2.14 2.31 3.19v-4.2h1.35v6.61z"/><path d="m12.94 393.88v-6.75c1.9.19 3.93-.54 5.37 1.29.8 1.01.78 2.88.03 3.97-1.37 1.97-3.4 1.51-5.4 1.49m1.45-1.22c2.04.12 2.92-.58 2.89-2.21-.03-1.51-.98-2.19-2.89-2z"/><path d="m11.81 393.87h-5.49c.68-2.18 2.47-3.48 3.51-5.45h-3.08v-1.21h5.29c-.71 2.13-2.44 3.48-3.47 5.51.86 0 1.63.04 2.39-.01.79-.05 1.14.21.85 1.16"/><path d="m39.33 393.86v-6.61h3.7v1.07h-2.22v1.52c.68.04 1.34.09 2.07.13v1.07c-.72.05-1.38.09-2.1.14v1.48h2.4v1.19h-3.85z"/><path d="m27.71 388.56c-1.15-.3-2.46-.61-3.1.64-.37.73-.41 1.93-.06 2.67.63 1.35 1.99.93 3.17.68.35.94-.01 1.32-.93 1.46-1.62.25-3.05-.27-3.76-1.48-.73-1.24-.6-3.03.31-4.17.88-1.11 2.71-1.7 4-1.16.32.13.44.74.65 1.12-.1.08-.19.16-.28.24"/><path d="m49.15 387.24v1.07c-.59.02-1.17.05-1.87.08v5.44h-1.48v-5.44h-1.85c-.05-.4-.08-.73-.13-1.15z"/><path d="m20.06 387.21h1.33v6.62h-1.33z"/><path d="m30.68 393.25c-.49.38-.8.79-1.05.76-.32-.05-.6-.45-.9-.7.26-.24.51-.64.8-.67.29-.04.62.3 1.15.61"/></g><path d="m107.78 205.56c0-1.32 0-2.53 0-3.75 0-15.89.04-31.79-.03-47.68-.02-4.13-.19-8.27-.65-12.37-.18-1.58-1.36-3.04-2.23-4.85-1.34 1.08-2.1 1.68-2.8 2.25-1.71.04-13.14-12.93-13.73-15.66 3.38.71 6.38 1.07 9.22 3.85 2.77 2.71 7.09 3.83 10.76 5.67 3.14-4.66 4.17-9.23 4.26-13.94.14-7.38-.01-14.77-.2-22.15-.04-1.48-.56-3.07-1.27-4.4-2.35-4.45-4.94-8.76-7.29-13.21-.56-1.05-.41-2.45-.79-3.62-.27-.83-.72-1.75-1.38-2.27-1.47-1.17-3.12-2.11-4.95-3.31 2.05-2.14.72-3.53-.73-5.09-4.63-5-9.16-10.1-14.26-15.74-2.39 5.23-4.85 9.94-6.72 14.87-2.29 6.05-4.13 12.27-6.1 18.44-2.46 7.73-5.66 15.06-11.07 21.26-.8.91-1.28 2.11-1.91 3.17-.37-.28-.74-.55-1.11-.83-.85-2.88-1.71-5.75-2.56-8.63.34.04.67.09 1.01.13.51-2.64 1.41-5.27 1.44-7.92.04-3.65.62-6.78 3.5-9.36 1.08-.97 1.81-2.53 2.28-3.96 1.71-5.2 3.42-10.41 4.81-15.7 1.83-6.99 4.48-13.51 8.93-19.29.86-1.12 1.25-2.84 1.32-4.31.18-3.88.06-7.77.06-11.65.31-.25.62-.51.93-.76 3.4 2.93 7.03 5.63 10.12 8.85 2.61 2.72 4.81 5.91 6.8 9.13 7.1 11.48 15.85 21.96 20.95 34.67.51 1.27 1.64 2.43 2.76 3.27 2.85 2.15 4.61 1.95 6.76-.88 7.06-9.29 12-19.66 14.67-30.98.52-2.18-.84-4.81-1.43-7.72 2.23-1.09 4.98-2.44 8.68-4.25.83 3.18 2.18 5.97 2.16 8.76-.03 5.03 1.07 9.49 4.04 13.53 7.76 10.53 15.65 20.97 23.18 31.66 3.98 5.65 7.34 11.73 10.91 17.66.67 1.11.98 2.44 1.52 3.85-3.56.49-6.33-.22-8.58-2.89-1.36-1.61-2.98-3.04-4.61-4.39-8.21-6.79-14.63-14.87-19.39-24.48-1.6-3.22-4.69-5.96-7.65-8.18-3.87-2.9-7.66-1.74-9.9 2.51-10.03 19.01-14.8 38.98-10.89 60.5.14.77.34 1.52.56 2.27.92 3.13 2.61 3.62 4.9 1.42 3.79-3.65 7.46-7.42 11.37-10.94 3.89-3.5 8.4-4.82 13.73-3.01-.96 4.13-1.87 7.96-5.3 10.67-5.13 4.05-10.48 7.88-15.16 12.4-11.47 11.07-17.91 24.65-18.93 40.66-.28 4.46-.28 8.99-3.14 12.82-1.65 2.22-3.52 4.03-6.87 3.9z" fill="#010000"/><path d="m198.35 374.03c-.56-6.21-1.13-12.43-1.68-18.64-.46-5.24-.94-10.47-1.31-15.72-.23-3.17-.93-6.35 1.1-9.38.63-.93.45-2.67.15-3.92-1.31-5.3-2.98-10.25-6.87-14.6-4.87-5.45-8.97-11.65-12.93-17.83-1.34-2.1-1.33-5.11-1.75-7.73-.12-.74.43-1.58.67-2.38.81.42 1.8.67 2.41 1.29 1.89 1.9 3.59 3.99 5.45 5.93 6.16 6.43 9.83 5.79 13.27-2.18 2.41-5.6 2.02-11.2-.07-16.66-1.46-3.84-3.43-7.49-5.34-11.14-2.23-4.26-4.64-8.42-6.97-12.62-.87-1.56-1.63-3.2-2.63-4.67-4.71-6.93-10.78-7.69-16.06-3.15-.31 3.41.15 6.13-.86 8.09-3.16 6.12-6.78 12.02-10.46 17.86-.94 1.49-2.77 2.42-4.97 4.25-.22-3.45-.85-6.02-.45-8.42 1.14-6.82 2.92-13.36 7.08-19.26 2.57-3.64 4.04-8.17 5.48-12.47 2.81-8.36 5.8-12.28 11.95-14.61 2.16 13.69 12.3 22.36 20.33 32.36.76.94 1.8 1.67 2.76 2.44.42.34.96.54 2.03 1.12 4.5-17.53 13.97-32.42 23.13-47.82 1.54 2.17 3.07 4.09 4.36 6.16 5.07 8.14 11.33 15.27 18.48 21.59 14.02 12.38 24.87 27.53 36.71 41.81 1.23 1.49 2.01 3.49 2.5 5.39.29 1.12-.4 2.5-.65 3.76-.99-.61-2.22-1.03-2.93-1.87-1.25-1.48-2.19-3.22-3.41-5.08-4.34 2.9-6.89-1.13-9.47-3.79-4.75-4.89-8.92-10.34-13.62-15.28-3.91-4.11-8.24-7.83-12.35-11.74-3.39-3.22-6.72-6.49-10.1-9.72-2.08-1.98-4.2-3.9-6.48-6.02-6.9 7.81-10.99 16.43-12.09 26.17-1.13 9.99-1.59 20.06-2.09 30.1-.28 5.73-.05 5.74 5.79 8.06 4.77-7.9 12.41-12.07 20.7-15.47 1.47 4.22.97 7.47-1.95 10.94-8.21 9.75-15.74 20.09-24.01 29.79-3.7 4.34-5.05 9.02-5.21 14.37-.22 7.27-.18 14.55-.66 21.81-.29 4.42-1.04 8.86-2.15 13.15-.57 2.2-2.39 4.09-3.64 6.12-.4-.12-.8-.26-1.19-.39z" fill="#010000"/><path d="m280.97 191.94c4.5 3.35 3.23 7.54 1.92 11.65-1.69 5.32-2.8 6.74-5.49 7.3-1.21-8.96-2.42-17.9-3.61-26.84-.7-5.21-1.19-10.46-2.2-15.6-.28-1.42-1.86-3-3.25-3.73-9.26-4.88-13.96-13.16-17.91-23.58 6.98 2.75 13.1 5.17 19.48 7.68 3.59-5.19 4.3-11.31 3.1-17.82-.75-4.07-1.02-8.26-2.19-12.2-1.92-6.49-4-13.14-10.64-16.59-7.09-3.68-11.53-9.56-14.93-16.56-2.3-4.74-5.37-8.97-10.34-11.79-5.74 19.33-4.65 40.24-15.56 58.45-2.53-4.33-2.6-8.43-1.73-12.64 3.54-17.06 7.08-34.12 10.69-51.16.31-1.47 1.24-2.79 1.78-4.22.59-1.54 1.23-3.09 1.53-4.7.52-2.71.79-5.47 1.19-8.38 6.74.76 11.53 3.8 14.72 9.27 1.46 2.5 2.92 5.06 3.96 7.75 4.39 11.38 13.19 19.54 20.73 28.61.45.54 1.28 1.12 1.89 1.08 3.46-.21 6.92-.49 10.34-1.02.91-.14 1.83-1.13 2.46-1.95 3.05-4 5.97-8.1 9-12.12 2.35-3.12 3.87-7.41 9.93-6.05-4.09-6.69.08-10 3.89-13.08 3.3-2.66 7.09-4.71 11.25-7.42.34 2.5.64 3.79.68 5.09.33 10.05 5.77 17.88 11.14 25.73 1.39 2.03 2.96 3.93 4.37 5.95 4.28 6.1 4.85 12.77 3.07 19.96-8.42-11.36-16.72-22.55-25.84-34.85-.65 1.25-.97 2.26-1.6 3-8.35 9.93-16.77 19.81-25.09 29.77-.94 1.13-1.55 2.66-1.95 4.11-.65 2.36-.91 4.83-1.52 7.21-1.14 4.47-2.17 8.85 1.21 12.94.66.8.8 2.07 1.03 3.16.99 4.65 5.86 6.23 9.54 3.02 2.45-2.13 4.61-4.66 7.27-6.45 3.36-2.25 7.1-3.93 10.78-5.91 1.86 2.93 1.87 4.76-.11 6.86-7.38 7.8-14.3 16.06-21.98 23.55-5.02 4.9-6.82 10.55-6.94 17.11-.09 5.46-.64 10.75-4.07 15.41z" fill="#010000"/></svg>