<svg enable-background="new 0 0 400 400" viewBox="0 0 400 400" xmlns="http://www.w3.org/2000/svg"><path d="m374.8 390.4.4-.4c.7.5 1.3 1 1.8 1.4l-.5.5c-.5-.6-1.1-1.1-1.7-1.5zm1 7.3-.6-.3c.5-1.4 1.1-2.8 1.5-4.3.2.1.4.2.6.3-.5 1.3-1 2.8-1.5 4.3zm-.4-10.3.4-.4c.4.3 1 .8 1.7 1.4l-.5.5c-.4-.5-1-1-1.6-1.5zm2.5.3h1.7v-1h.6v1h3.5v-1h.6v1h1.8v.5h-1.8v1.4h-2v1h3.2v2h-3.2v.9h3.3v.5h-3.4c0 .3-.1.6-.1.9h4v.5h-3.7c.7.9 1.9 1.5 3.8 1.7-.1.2-.2.4-.3.6-2.1-.4-3.5-1.1-4-2.1-.4 1-1.8 1.7-4 2.2-.1-.2-.2-.4-.3-.6 2.1-.4 3.4-1 3.8-1.8h-3.4v-.5h3.6c.1-.3.1-.6.2-.9h-3.3v-.5h3.4c0-.3 0-.6 0-.9h-3.2v-2h3.3v-1h-2.1v-1.4h-1.7v-.5zm1.1 3.5v1h2.7c0-.3 0-.4 0-.4 0-.1 0-.2 0-.2 0-.1 0-.2 0-.3h-2.7zm1.2-3v.9h3.5v-.9zm4.7 3h-2.6v.6.4h2.6z" fill="#fbfcfa"/><path d="m393.6 386.7h.6v1.5h2.7v6.1h1.1v.6h-11v-.6h1.1v-6.1h2.7v-1.5h.6v1.5h2.1v-1.5zm-2.7 8.8.4.6c-1.2.6-2.5 1.3-3.8 1.9-.1-.2-.2-.4-.3-.6 1.2-.6 2.5-1.2 3.7-1.9zm-2.2-6.7v2.4h2.1v-2.4zm0 3v2.5h2.1v-2.5zm2.8-3v2.4h2.1v-2.4zm0 3v2.5h2.1v-2.5zm6 6.1c-1.4-.7-2.7-1.3-3.9-1.8l.3-.6c1.5.6 2.7 1.2 3.9 1.7zm-1.2-9.1h-2.1v2.4h2.1zm-2.1 3v2.5h2.1v-2.5z" fill="#fbfcfa"/><g fill="#010101"><path d="m163.08 125.23c-1.61-2.2-3.29-4.46-4.94-6.74-4.12-5.71-8.07-11.56-12.41-17.1-2.65-3.39-4.45-6.85-4.31-11.25.03-.92-.55-2.22-1.27-2.75-4.82-3.49-5.77-5.77-4.36-11.59-.43-.21-.89-.59-1.38-.64-2.83-.28-3.66-1.52-2.95-4.43 1.01-4.11-1.4-7.25-3.83-10.25-3.02-3.74-3.18-5.68-.82-9.26 1.04 1.1 2.1 2.2 3.21 3.38.81-.66 1.36-1.11 2.06-1.67 3.11 4.6 6.16 9 9.07 13.5.55.86.69 2.07.75 3.13.07 1.22-.18 2.45-.27 3.68-.46 6.48-.33 6.23 5.47 9.28 2.28 1.2 3.94 3.7 5.69 5.78.91 1.09 1.22 2.66 2.1 3.79 1.88 2.44 5.09 2.09 5.93-.81 1.02-3.51 1.44-7.2 2.09-10.81.45-2.52.4-5.24 1.37-7.53.93-2.21 2.57-4.38 4.46-5.86 3.15-2.48 3.39-3.83.48-6.32-2.01-1.71-3.66-3.65-1.21-6.48.53-.61.31-2.33-.14-3.25-1.06-2.13-1.14-4-.42-6.35 1.13-3.69 1.94-7.56 2.19-11.41.25-3.92 2.06-6.13 5.99-7.73 0 1.96.07 3.58-.02 5.19-.16 2.86.11 5.47 2.21 7.77.78.86 1 2.47 1.03 3.75.31 13.07 1.3 26.15-1.62 39.11-.43 1.93-.2 4.33.61 6.11.64 1.43 2.5 2.87 4.04 3.19 2.25.47 4.28-.24 5.75-2.82 1.43-2.5 3.85-4.56 6.14-6.42 2.32-1.88 5.02-3.29 7.92-5.14-3.04-3.16-1.11-5.14 1.05-7.58 2.1-2.38 3.29-5.55 5.14-8.19 2-2.85 4.32-5.48 6.54-8.27 5.7 5.55 2.8 11.57-1.01 16.81-.31.43-.84.75-1.32 1.02-5.61 3.07-9.07 7.65-10.14 14.04-.21 1.24-1.05 2.45-1.82 3.52-5.54 7.73-11.13 15.42-16.71 23.12-.46.63-.86 1.39-1.47 1.82-8.11 5.54-7.48 14.98-10.19 22.91-.2.6.07 1.68.53 2.12 2.14 2.04 1.77 4.18.4 6.32-2.98 4.66-1.34 9.55-.66 14.33.13.93 1.68 1.85 2.76 2.41 3.9 2.02 7.89 3.88 11.84 5.8.09.46.18.91.27 1.37.62-.91 1.16-1.89 1.88-2.72 2.06-2.39 4.3-3.05 7.41-1.47 1.83.93 4.24 1.21 6.34 1.05 5.01-.4 9.97-1.51 14.98-1.82 5.37-.33 10.78-.07 16.61-.07 2.52-9 1.06-20.04 9.22-28.08-3.98-3.13-3.3-6.67-1.87-10.29.37-.93.91-1.8 1.26-2.74 1.53-4.1 3.49-8.23-1.08-11.98 3.37-1.25 6.07-2.55 8.93-3.18 1.26-.28 3.11.44 4.18 1.32 3.03 2.51 5.95 4.42 9.8 1.63.42-.3 1.06-.43 1.59-.43 7.73.01 14.64 2.07 20.18 7.8-3.4 4.07-7.39 5.01-12.41 3.77-4.19-1.03-8.49-1.81-12.78-2.11-1.72-.12-3.67 1.14-5.3 2.13-1.4.86-2.4 2.35-3.73 3.36-3.59 2.75-6.33 5.5-2.81 10.33.73 1 .21 3.03.02 4.56-.96 7.98-2 15.96-3.03 24.06 4.59 2.15 8.87 3.67 14.15 2.26 2.97-.79 6.53.53 9.8 1.03 4.11.63 8.02 2.92 12.44 1.18.73-.29 2.17.82 3.1 1.53 2.14 1.65 4.07 3.52 7.21 2.13.55-.25 1.75.96 2.64 1.49.01.49.03.99.04 1.48-2.9 1.14-5.78 2.36-8.72 3.37-1.02.35-2.22.14-3.33.26-6.31.7-6.31.71-9.86-3.63-1.14 1.24-2.11 3.15-3.5 3.54-1.45.41-3.32-.6-4.98-1.09-5.43-1.62-10.71-.24-15.14 2.35-2.22 1.29-3.6 5.32-3.93 8.28-1.02 9.1-1.35 18.27-1.92 27.42-.04.64.01 1.43.35 1.93 4.08 6 1.29 12.37.89 18.56-.08 1.27-1.71 2.45-2.73 3.81 0 .01-.08.27.01.43 3.24 5.34 3.31 10.91 2.43 17.01-.77 5.3-.19 10.87.32 16.27.66 6.95-.27 9.36-6.95 13.34-.7-2.81-1.49-5.4-1.96-8.04-.29-1.63-.28-3.38-.05-5.02.89-6.32-.17-12.15-3.53-17.64-.68-1.11-1.01-2.89-.64-4.11 1.81-6.06 1.63-12.14.58-18.24-.48-2.79-.11-4.78 2.74-6.28 2.77-1.46 2.89-3.8.69-6.02-5.02-5.06-4.23-11.54-4.12-17.71.02-1.04 2.73-2.04 4.33-3.15-.73-.5-1.63-1.1-2.51-1.73-2.69-1.92-3.96-4.48-3.52-7.81.07-.55.14-1.11.2-1.67 1.19-10.67-1.23-13.61-11.92-14.2-4.12-.23-8.26-.19-12.39-.16-.82.01-1.77.34-2.42.84-3.28 2.48-6.96 3.38-11.01 3.32-18.01-.29-36.02-.52-54.03-.83-1.32-.02-2.68-.28-3.93-.71-3.4-1.16-6.66-1.56-9.9.58-.68.45-2.14.6-2.71.18-2.76-2.06-5.24-.79-7.88.16-2.92 1.05-5.89 1.98-8.9 2.68-.7.16-2.11-.65-2.46-1.37-1.93-4.01-3.63-8.13-5.43-12.24 4.08-.99 4.08-.99 9.07 2.87 10-7.09 21.31-7.02 33.02-5.85 10.03 1 18.58-2.83 26.09-10.7-.83-.54-1.64-.93-2.3-1.51-4.5-3.96-4.21-6.1.93-9.17 1.02-.61 2.21-2.15 2.11-3.16-.16-1.7-.87-3.76-2.09-4.83-1.4-1.23-4.59-.69-3.75-3.92.47-1.87 1.46-3.59 2.16-5.23zm2.81-10.07c1.38-.78 2.43-1.37 3.94-2.22-2.15-1.04-3.71-1.79-6.07-2.93.91 2.2 1.44 3.49 2.13 5.15z"/><path d="m269.47 369.64c-8.59 3.1-16.55 6.89-25.64 4.77-3.92-.92-4.18-1.43-1.55-4.33 1.38-1.53 1.38-2.71.84-4.68-.75-2.73-.7-5.72-.66-8.6.09-7.59.37-15.19.55-22.78.02-.66.05-1.47-.28-1.96-3.86-5.55-1.79-11.71-1.68-17.6.05-2.51 1.34-4.99 1.94-7.51.17-.71.17-1.94-.25-2.24-4.72-3.46-2.11-9.09-3.87-13.45-.34-.84 2.42-3.26 4.1-4.47.82-.59 2.9-.58 3.57.06.95.89 1.86 2.84 1.51 3.94-1.74 5.46-.11 10.23 2.06 15.12.75 1.7.82 3.93.54 5.81-.98 6.64-1.88 13.16-.41 19.93.65 3 .02 6.49-.83 9.54-.69 2.46-.82 4.47.5 6.62.99 1.61.93 2.97.03 4.89-3.05 6.5-1.52 14.11 8.5 13.45 4-.28 7.83-.44 11.03 3.49z"/><path d="m216.92 375.13c-.37-2.51-.68-4.57-1.05-7.02 4.59-.84 8.92-1.94 13.32-2.36 4.19-.39 5.45 2.09 4.64 8.6-5.46.26-10.99.51-16.91.78z"/><path d="m211.3 372.59c-4.65.61-5.47-.45-3.7-5.23 1.34 1.89 2.47 3.49 3.7 5.23z"/></g></svg>