<svg enable-background="new 0 0 400 400" viewBox="0 0 400 400" xmlns="http://www.w3.org/2000/svg"><path d="m183.5 150.07c-1.49-2.16.7-5.06 1.7-8.21.92-2.89 1.46-5.97 1.73-9 .55-6.12.53-12.31 1.33-18.39.23-1.73 2.57-3.11 3.73-4.8.81-1.17 2.03-2.78 1.75-3.85-2.75-10.53-.78-21.18-1.18-31.75-.07-1.96-.96-3.94-1.74-5.81-1.37-3.29-2.93-6.49-4.41-9.72-2.89-6.28-5.73-12.57-8.68-18.81-1.65-3.49.02-6.42 3.78-6.17.83.06 1.85.72 2.35 1.42 1.98 2.71 3.61 5.67 5.71 8.28 1.84 2.29 4.13 4.23 6.22 6.32.12-.35.24-.7.36-1.05 2.14-.63 4.28-1.26 6.52-1.92 0 .2.03-.14 0-.15-4.17-.87-4.68-3.74-4.03-7.27.86-4.69 1.71-9.38 2.55-13.99 6.02.45 9.38 3.66 9.45 9.04.04 3.21-.71 6.43-1.01 9.65-.36 3.75-.78 7.55 2.16 10.89 4.35-3.07 5.13-9.25 10.8-11.34.6 2.12.88 4.13 1.75 5.85.72 1.44 2.13 2.54 3.23 3.8 1-.88 2.11-1.67 2.98-2.67 2-2.31 3.88-4.73 6.15-7.53 4.77 5.66 6.5 11.36 5.28 17.7-1.12 5.8-2.69 11.53-4.31 17.23-.86 3.03-.88 5.78.27 8.78 1.3 3.4 2.03 7 3.17 11.09 4.37.53 9.32 1.17 14.29 1.74 8.45.97 16.9 1.85 25.34 2.91 1.48.19 2.91 1.01 4.31 1.65 3.38 1.54 5.98 4.84 10.24 4.48.4-.03 1.27.8 1.25 1.21-.3 8.27 5.22 14.86 6.46 22.65.72 4.52 1.38 9.08 1.6 13.65.13 2.58-.62 5.22-1.08 7.82-1.12 6.38-2.05 12.8-3.54 19.1-.69 2.92-2.18 5.81-3.93 8.28-1.28 1.81-3.37 1.38-3.96-1-.47-1.89-1.1-4.32-.34-5.86 5.25-10.57 2.34-21.05-.07-31.47-1.01-4.39-3.17-8.5-4.53-12.82-1.06-3.38-1.88-6.87-2.45-10.37-.35-2.14-1.27-2.99-3.34-3.41-5.91-1.2-11.76-2.74-17.68-3.89-1.6-.31-3.6-.15-5.03.57-3.43 1.73-6.81 1.86-10.4.92-1.51-.39-3.08-.87-4.6-.81-3.58.14-5.22.49-6.75 4.84-3.2 9.17-3.39 17.86.78 26.78 1.37 2.93 1.2 6.55 2 9.8.33 1.36 1.03 3.02 2.1 3.73 6.26 4.19 15.07 3.07 20.14-2.41 1.59-1.72 3.07-3.56 4.41-5.48 2.31-3.3 3.03-6.85 1.5-10.79-1.21-3.12-2.2-6.34-3.08-9.57-.95-3.46.54-5.76 4.03-6.31.83-.13 2.08.12 2.61.69 3.78 4.11 6.76 8.45 6.01 14.62-.79 6.52-.05 12.91 3.44 18.8.85 1.42 1.18 3.41 1.08 5.09-.28 4.6.48 8.87 2.92 12.81.29.47.74 1 .72 1.49-.26 6.98 5.36 12.45 5.07 19.37-.24 5.8 2.79 9.24 7.34 12.18 2.62 1.69 4.98 4.03 6.86 6.53 1.62 2.15 1.08 4.21-1.94 5.42-5.78 2.3-11.52 2.18-17.45.85-5.34-1.19-10.75-2.06-16.13-3.02-6.62-1.19-12.08 1.33-16.81 5.66-3.71 3.4-7.04 7.21-10.81 10.54-2.67 2.36-5.79 4.21-9.01 6.5-1.8-4.25-1.07-7.33.58-10.21 7.36-12.85 9.8-26.93 10.31-41.46.19-5.46.03-10.93.03-16.96-7.42 1.2-10.05-4.11-13.01-9-.81-1.34-1.58-2.73-2.59-3.92-5.36-6.35-6.14-13.92-5.86-21.74.23-6.34.2-12.72 3.88-18.43.73-1.13.1-3.18 0-4.8-.05-.77-.35-1.52-.5-2.29-1.41-7.13-3.1-8.84-10.27-8-6.18.73-12.23 2.52-18.33 3.9-.55.13-1 .73-1.68 1.25.68.82 1.17 1.53 1.78 2.13 2.24 2.23 2.27 4.6.86 7.33-.95 1.85-2 3.89-2.12 5.89-.84 13.92-2.59 27.7-5.36 41.37-.55 2.71-.67 5.57-.57 8.35.13 3.68 3.33 5.15 5.95 6.6 2.37 1.31 4.46-.12 6.14-2.05 3.3-3.78 3.3-4.42.84-8.96-.78-1.43-1.42-3.19-1.36-4.77.25-6.55.34-13.14 4.75-18.76 1.24-1.58 1.67-4.01 1.94-6.11.81-6.4 1.17-12.86 2.11-19.23.27-1.83 1.91-3.46 3.41-6 3.93 7.38 7.71 13.81 4.66 21.18-4.16 10.08-4.34 20.14-2 30.57.78 3.47 1.9 6.5 4.1 9.34 1.28 1.65 1.83 4 2.29 6.12 1.02 4.69 1.87 9.43 2.6 14.18.23 1.49.15 3.14-.26 4.59-2.43 8.58-5.3 17.05-7.37 25.72-.97 4.04-.98 8.48-.53 12.64.81 7.45-.26 14.29-3.42 21.16-4.55 9.89-7.82 20.24-7.76 31.33.01 1.1.1 2.23.33 3.31 1.59 7.52 3.85 14.95 4.72 22.55 1.27 11.1 5.23 21.64 5.7 32.93.27 6.59 8.24 9.39 13.87 5.99 4.28-2.58 7.31-5.91 9.36-10.49 2.37-5.29 5.44-10.27 7.94-15.52 1.72-3.61 2.97-7.43 4.45-11.16.41-1.03.64-2.24 1.36-2.99.59-.62 1.8-.99 2.66-.88.55.07 1.24 1.17 1.36 1.9.33 1.98.71 4.03.51 6-1.49 14.77-5.83 28.67-13.67 41.31-5.7 9.2-12.72 11.8-23.23 9.23-.74-.18-1.51-.43-2.14-.84-4.96-3.22-9.77-6.68-14.84-9.69-7.76-4.6-12.63-11.92-18.22-18.58-.41-.49-.65-1.19-.79-1.84-1.61-7.27-5.42-13.37-9.96-19.14-1.13-1.43-1.98-3.29-2.34-5.08-1.19-5.9-3.3-11.29-7.01-16.11-.86-1.11-1.3-3.22-.88-4.52 2.31-7.17.28-14.49 1.14-21.67.53-4.42 1.26-8.83 2.26-13.17.73-3.17 1.94-6.3 6.37-6.95-2.77-2.36-2.1-4.52-.97-7.05 4.08-9.23 5.95-19.15 8.83-28.76 1.92-6.4 1.72-12-.53-18.03-5.06-13.57-3.78-27.52-2.06-41.46.12-1 .13-2.04.44-2.98.76-2.48 1.69-4.91 2.92-8.36zm-4.1 118.02c2.39 8.41 6.02 9.68 12.69 4.59.53-.41.98-.92 1.52-1.32 6.02-4.35 6.68-11.58 9.68-17.58 3.69-7.39.92-14.87 1.71-22.12-4.27-1.58-7.9-1.25-10.35 2.12-1.42 1.96-2.33 4.54-2.69 6.96-.72 4.73-1.59 9.19-5.49 12.51-1.4 1.19-2.45 2.8-3.64 4.19 4.06 4.22 3.23 6.67-3.43 10.65zm48.28-209.86c-2.24-.15-4.54-1.04-5.56-.26-6.52 5.03-12.9 10.38-15.54 18.6-1.73 5.4-3.24 10.96-1.83 16.73.25 1.02 1.3 2.7 1.85 2.66 5.08-.46 10.16-1.12 15.19-1.96 2.39-.4 3.11-2.04 3.21-4.58.42-10.16-1.84-20.53 2.68-31.19zm-26.64 284c.48-.07.96-.14 1.45-.2 0-1.27.16-2.56-.03-3.79-.54-3.65-1.22-7.27-1.85-10.91-1.98-11.57-4-23.13-5.92-34.71-.54-3.26-2.27-5.1-5.54-5.16-7.29-.14-9.51 2.5-8.35 9.68.04.22.08.44.12.66 3.06 15.24 9.58 28.99 18 41.93.6.9 1.41 1.67 2.12 2.5zm-8.35-150.95c0 5.3-.13 11.43.05 17.55.11 3.57 3.83 7 6.95 6.89 8.52-.28 8.76-.47 10.38-9.31.42-2.3.77-4.62.9-6.95.28-4.95-1.97-8.62-6.26-10.93-.9-.48-2.3-.46-3.33-.17-2.78.78-5.47 1.82-8.69 2.92zm69.46 20.79c6.06-2.39 12.04-4.76 18.48-7.3-.57-1.71-1.27-4.27-2.29-6.7-1.98-4.71-9.5-7.07-13.95-4.4-2.68 1.61-5.25 3.4-7.8 5.2-2.21 1.56-1.67 8.7.67 10.07 1.68.99 3.29 2.1 4.89 3.13zm-7.83-41.63c.93 3.83 1.68 7.07 2.53 10.27.18.69.65 1.7 1.16 1.83 3.41.86 6.85 1.8 10.33 2.09 1.31.11 3.54-1.12 4.01-2.28 2.38-5.95-3.12-14.43-9.47-14.39-2.73.02-5.46 1.54-8.56 2.48z" fill="#010100"/><path d="m100.57 123.26c.1-1.35.81-3.15.2-3.95-1.82-2.38-.36-3.59 1.09-5.03 1.27-1.26 2.41-2.67 3.76-3.83 3.09-2.66 5.02-5.79 5.33-10 .1-1.39 1.11-2.91 2.09-4.02 8.28-9.41 16.64-18.75 25-28.09 2.42-2.7 6.19-2.35 7.92.9 5.48 10.32 9.2 20.94 7.4 33.06-.68 4.59.58 9.47.98 14.55-1.89 0-4.12.22-6.28-.1-.92-.14-2.13-1.25-2.43-2.17-1.54-4.65-2.94-9.36-4.15-14.11-1.27-4.96-3.54-7.71-7.43-7.85-1.21-.04-2.91.61-3.62 1.54-3.94 5.15-7.75 10.41-11.38 15.79-.94 1.39-1.45 3.34-1.43 5.03.03 2.7-.94 4.64-2.77 6.51-2.42 2.47-4.68 5.12-6.84 7.83-1.17 1.46-2.21 3.12-2.91 4.85-2.37 5.8-1.71 7.38 3.25 11.07 3.06 2.28 6.27 3.77 10.1 3.72 6.21-.07 11.77 2.16 17.33 4.61 1.5.66 3.4.42 5.12.57 2.97.26 5.95.66 8.92.66 1.32 0 2.64-.82 3.95-1.29.18-.07.3-.32.44-.49 3.96-4.77 8.72-9.08 8.69-15.97 6.73 1.36 9.62 4.25 9.38 10.49-.15 4.02-1.72 7.97-2.58 11.97-.43 2-1.11 4.06-.99 6.05.19 3.11.99 6.17 1.47 9.26 1.01 6.51-1.71 11.82-5.68 16.58-1.54 1.84-3.74 1.64-5.26-.13-4.78-5.56-7.24-12.11-6.58-19.42.28-3.1-.63-4.94-3.35-5.56-6.16-1.41-12.38-2.55-17.7 2.48-.97.92-2.04 1.78-3.2 2.44-4.8 2.76-7.47 6.92-9.34 12.1-1.03 2.87-3.63 5.24-5.75 7.64-1.19 1.35-1.66 2.4-.77 4.11 4.34 8.32 8.54 16.71 12.92 24.99.57 1.07 1.97 1.7 2.98 2.55 3.22 2.7 6.62 5.22 9.6 8.17 3.15 3.13 6.52 3.38 9.49.06 1.42-1.58 2.76-3.24 4.06-4.91 2.15-2.76 5.31-3.67 8.18-1.75 2.31 1.55 2.28 3.98 1.38 6.56-2.29 6.53-4.58 13.07-6.52 19.71-1.04 3.58-3.34 4.57-6.52 4.25-4.8-.48-9.42-1.35-12.54-5.78-2.88-4.08-5.94-8.07-9.27-11.79-1.53-1.71-3.97-2.57-5.87-3.99-1.52-1.14-3.26-2.29-4.2-3.86-4.64-7.75-9.16-15.57-13.47-23.51-1.53-2.81-2.38-6-3.44-9.05-1.83-5.28-3.59-10.58-5.37-15.87-.11-.32-.11-.7-.29-.96-2.8-4.04-4.49-8.33-3.2-13.35.07-.29-.02-.74-.22-.96-3.98-4.3-1.88-9-.87-13.6 1.05-4.79 2.63-9.51.89-14.48-.19-.55-.12-1.37.16-1.88 2.09-3.8 4.2-7.6 6.48-11.28.51-.82 1.74-1.2 2.63-1.78.34.25.68.48 1.03.71zm6.77 55.65c5.47-4.79 10.98-9.6 16.97-14.84-2.04-1.84-3.51-4.05-5.5-4.76-4.79-1.69-9.8-2.78-14.79-3.8-.79-.16-2.31 1.09-2.81 2.05-3.43 6.53-.82 15.58 6.13 21.35z" fill="#010100"/><g fill="#fcfafa"><path d="m342.2 3.2-6.3 9.2h6.1v1.2h-8.2v-.5l6.2-9.1h-5.7v-1.2h7.8v.4z"/><path d="m344 13.7v-10.9h3.1c1.6 0 3 .5 4.1 1.4 1.1 1 1.6 2.2 1.6 3.9s-.5 3-1.6 4-2.5 1.5-4.2 1.5h-3zm1.4-9.6v8.4h1.6c1.4 0 2.5-.4 3.2-1.1.8-.8 1.2-1.8 1.2-3.2s-.4-2.4-1.2-3.1-1.8-1-3.1-1z"/><path d="m356.3 2.8v10.9h-1.4v-10.9z"/><path d="m366.6 13.2c-.8.4-1.8.6-3 .6-1.6 0-2.8-.5-3.7-1.5s-1.4-2.3-1.4-3.9c0-1.7.5-3.2 1.6-4.2s2.4-1.6 4-1.6c1 0 1.9.1 2.6.4v1.5c-.8-.4-1.6-.6-2.6-.6-1.2 0-2.2.4-3 1.2s-1.1 1.9-1.1 3.3c0 1.3.4 2.3 1.1 3.1s1.6 1.1 2.8 1.1c1.1 0 2-.2 2.8-.7v1.3z"/><path d="m368.2 13c0-.3.1-.5.3-.6.2-.2.4-.3.6-.3.3 0 .5.1.7.3s.3.4.3.6-.1.5-.3.6c-.2.2-.4.3-.7.3s-.5-.1-.6-.3c-.2-.2-.3-.4-.3-.6z"/><path d="m381.1 13.7h-1.7l-5.5-8.4c-.2-.2-.3-.5-.4-.7 0 .2.1.8.1 1.5v7.6h-1.4v-10.9h1.8l5.3 8.3c.3.4.4.6.4.8 0-.3-.1-.8-.1-1.6v-7.5h1.4v10.9z"/><path d="m389.7 13.7h-5.8v-10.9h5.6v1.2h-4.2v3.5h3.9v1.2h-3.9v3.7h4.4z"/><path d="m398.4 4.1h-3.1v9.6h-1.4v-9.6h-3.1v-1.3h7.7v1.3z"/></g></svg>