<svg enable-background="new 0 0 400 400" viewBox="0 0 400 400" xmlns="http://www.w3.org/2000/svg"><g fill="#fbfafa"><path d="m37.59 393.81c-.92.31-1.52.05-2-.78-.7-1.2-1.52-2.34-2.47-3.78v4.59c-.55.03-.95.05-1.41.07-.03-.37-.06-.64-.06-.91 0-1.91 0-3.81 0-5.7 1.13-.41 1.77-.03 2.29.91.62 1.11 1.38 2.14 2.31 3.19v-4.2h1.35v6.61z"/><path d="m12.94 393.88v-6.75c1.9.19 3.93-.54 5.37 1.29.8 1.01.78 2.88.03 3.97-1.37 1.97-3.4 1.51-5.4 1.49m1.45-1.22c2.04.12 2.92-.58 2.89-2.21-.03-1.51-.98-2.19-2.89-2z"/><path d="m11.81 393.87h-5.49c.68-2.18 2.47-3.48 3.51-5.45h-3.08v-1.21h5.29c-.71 2.13-2.44 3.48-3.47 5.51.86 0 1.63.04 2.39-.01.79-.05 1.14.21.85 1.16"/><path d="m39.33 393.86v-6.61h3.7v1.07h-2.22v1.52c.68.04 1.34.09 2.07.13v1.07c-.72.05-1.38.09-2.1.14v1.48h2.4v1.19h-3.85z"/><path d="m27.71 388.56c-1.15-.3-2.46-.61-3.1.64-.37.73-.41 1.93-.06 2.67.63 1.35 1.99.93 3.17.68.35.94-.01 1.32-.93 1.46-1.62.25-3.05-.27-3.76-1.48-.73-1.24-.6-3.03.31-4.17.88-1.11 2.71-1.7 4-1.16.32.13.44.74.65 1.12-.1.08-.19.16-.28.24"/><path d="m49.15 387.24v1.07c-.59.02-1.17.05-1.87.08v5.44h-1.48v-5.44h-1.85c-.05-.4-.08-.73-.13-1.15z"/><path d="m20.06 387.21h1.33v6.62h-1.33z"/><path d="m30.68 393.25c-.49.38-.8.79-1.05.76-.32-.05-.6-.45-.9-.7.26-.24.51-.64.8-.67.29-.04.62.3 1.15.61"/></g><path d="m181.94 100.89c-2.88-1.63-3.55-3.88-3.51-6.7.27-17.35.5-34.69.59-52.04.02-3.04.66-5.63 2.46-8.1 1.97-2.7 3.65-5.6 5.59-8.62 4.07 2.19 5.7 5.82 6.09 9.86.51 5.33.49 10.72.71 16.08.04.89.14 1.78.2 2.68.32 4.84 2.29 8.36 7.16 10.16 2.8 1.04 5.27 2.94 7.99 4.25 4.39 2.11 7.96 5.14 11.49 8.49 3.6 3.43 8.08 5.94 12.19 8.83 7.63 5.37 15.08 10.93 19.57 19.45 8.19 15.53 12.05 31.93 9.83 49.52-.08.66-.09 1.49-.48 1.93-3.01 3.42-1.57 6.88-.12 10.28 2.77 6.5 3.09 13.32 3.57 20.29 1.09 15.48-1.59 30.54-3.77 45.69-.25 1.75-.03 3.84.73 5.42 2.03 4.24 2.71 8.56 2.78 13.25.13 8.79-.6 17.4-2.99 25.88-2.49 8.81-.41 17.57.64 26.31 1.12 9.33 2.15 18.68 3.76 27.93 1.34 7.68 3.34 15.26 5.27 22.83 1.68 6.59 3.73 13.1 2.56 20.22-4.63.61-8.39.6-11.8-3.79-4.02-5.17-7.18-10.04-8.45-16.85-2.17-11.59-6.1-22.84-9.27-34.24-.23-.84-.51-1.77-.39-2.6 1.49-10.07-1.63-19.77-2.25-29.66-.17-2.68.69-5.41.76-8.13.14-5.13.02-10.27.07-15.4.1-10.39-.01-20.79.45-31.16.36-8 .23-15.87-2.05-23.6-.9-3.05-2.53-4.04-5.5-2.85-2.01.8-3.78 2.22-5.69 3.29-3 1.67-6.12 3.14-9.03 4.94-2.41 1.49-5.21 2.93-6.72 5.15-2.18 3.2-4.7 3.67-8.03 3.16-.86-4.17-.19-7.11 3.4-10.18 11.76-10.07 20.99-22.25 27.58-36.34 1.69-3.61 1.79-6.97.49-10.91-1.91-5.8-4.68-10.61-9.41-14.6-5.72-4.83-10.92-10.27-16.44-15.35-1.71-1.58-3.83-2.71-5.56-4.27-1.36-1.23-2.39-2.81-3.78-4.49 5.31-2.85 9.72-2.18 13.8.36 4.86 3.03 9.61 6.13 15.41 7.14.87.15 1.65 1.04 2.39 1.68 2.72 2.36 3.43 2.62 7.01 2.14-.44-1.81-.98-3.57-1.29-5.38-3.26-19.28-14.96-32.76-30.17-43.79-4.15-3.01-8.44-5.83-12.92-8.92-2.23 5.01-2.36 9.9-1.94 14.79.43 5.12 1.03 10.25 1.85 15.32 1.42 8.81 1.3 17.6.13 26.41-.12.88-.52 1.99-.15 2.64 3.42 6.07 1.15 12.32.33 18.35-1.06 7.84-.71 15.59-.46 23.42.22 6.79-.34 13.6-.37 20.4-.02 4.79-.15 9.65.58 14.36.45 2.92 1.92 5.98 3.76 8.33 9.44 12.08 19.08 24.01 28.79 35.87 2.34 2.86 3.91 5.82 4.41 9.51.53 3.86 1.54 7.65 2.4 11.8-2.77 1.23-5.47 2.55-8.26 3.59-.67.25-1.93-.16-2.5-.7-6.94-6.61-14.05-12.92-18.9-21.57-2.99-5.32-8.05-9.48-12.89-14.96-1.38 4.46-3.02 8.04-3.55 11.78-1.64 11.5-2.85 23.07-4.25 34.61-.2 1.65-.32 3.35-.86 4.9-4.85 13.81-9.77 27.6-14.75 41.37-.59 1.64-1.53 3.23-2.62 4.61-3.1 3.93-6.36 7.74-10.1 12.26-1.18-6.23-3.23-11.59-.41-17.22.59-1.17 1.11-2.56 1.07-3.83-.36-11.83 4.01-22.84 5.85-34.28 1.18-7.38 2.38-14.79 2.9-22.23.47-6.85-1.07-7.67-7.72-5.28-8.63 3.1-16.96 6.76-24.9 11.45-3.32 1.97-7.55 2.52-11.44 3.33-.92.19-2.62-.92-3.11-1.88-.36-.69.41-2.4 1.17-3.13 1.77-1.69 3.75-3.21 5.81-4.54 3.09-2 5.29-4.27 4.58-8.38-.13-.75.93-1.75 1.54-2.55.25-.32.76-.47 1.17-.62 13.86-5.14 24.49-15.01 35.48-24.32.95-.81 1.56-2.39 1.73-3.7 2.43-19.53 4.91-39.05 7.03-58.62.62-5.76.12-11.63.19-17.45.15-12.53.39-25.06.49-37.6.03-3.13-.26-6.26-.52-9.38-.44-5.63.65-10.91 3.52-16.1z" fill="#010000"/></svg>