<svg enable-background="new 0 0 400 400" viewBox="0 0 400 400" xmlns="http://www.w3.org/2000/svg"><g fill="#fbfafa"><path d="m37.59 393.81c-.92.31-1.52.05-2-.78-.7-1.2-1.52-2.34-2.47-3.78v4.59c-.55.03-.95.05-1.41.07-.03-.37-.06-.64-.06-.91 0-1.91 0-3.81 0-5.7 1.13-.41 1.77-.03 2.29.91.62 1.11 1.38 2.14 2.31 3.19v-4.2h1.35v6.61z"/><path d="m12.94 393.88v-6.75c1.9.19 3.93-.54 5.37 1.29.8 1.01.78 2.88.03 3.97-1.37 1.97-3.4 1.51-5.4 1.49m1.45-1.22c2.04.12 2.92-.58 2.89-2.21-.03-1.51-.98-2.19-2.89-2z"/><path d="m11.81 393.87h-5.49c.68-2.18 2.47-3.48 3.51-5.45h-3.08v-1.21h5.29c-.71 2.13-2.44 3.48-3.47 5.51.86 0 1.63.04 2.39-.01.79-.05 1.14.21.85 1.16"/><path d="m39.33 393.86v-6.61h3.7v1.07h-2.22v1.52c.68.04 1.34.09 2.07.13v1.07c-.72.05-1.38.09-2.1.14v1.48h2.4v1.19h-3.85z"/><path d="m27.71 388.56c-1.15-.3-2.46-.61-3.1.64-.37.73-.41 1.93-.06 2.67.63 1.35 1.99.93 3.17.68.35.94-.01 1.32-.93 1.46-1.62.25-3.05-.27-3.76-1.48-.73-1.24-.6-3.03.31-4.17.88-1.11 2.71-1.7 4-1.16.32.13.44.74.65 1.12-.1.08-.19.16-.28.24"/><path d="m49.15 387.24v1.07c-.59.02-1.17.05-1.87.08v5.44h-1.48v-5.44h-1.85c-.05-.4-.08-.73-.13-1.15z"/><path d="m20.06 387.21h1.33v6.62h-1.33z"/><path d="m30.68 393.25c-.49.38-.8.79-1.05.76-.32-.05-.6-.45-.9-.7.26-.24.51-.64.8-.67.29-.04.62.3 1.15.61"/></g><path d="m207.88 25.01c7.11 1.69 10.95 6.49 12.79 12.55 2.65 8.75 4.82 17.68 6.6 26.65 1.12 5.65 2.84 10.76 6.98 14.83 3 2.96 4.22 6.43 3.63 10.59-1.29 9.09 3.02 17 5.45 25.29 4.6 15.7 8.71 31.5 8.27 48.04-.14 5.24-.29 10.57-1.26 15.69-1.43 7.55-1.13 14.96.91 22.2 2.02 7.15.56 13.22-2.75 19.73-9.01 17.72-17.18 35.88-26.12 53.64-2.68 5.32-6.61 10.05-10.31 14.79-10.6 13.58-21.55 26.9-32.01 40.59-4.26 5.57-7.32 12.04-11.45 17.71-5.12 7.03-10.54 13.88-16.31 20.37-2.57 2.88-6.33 4.7-9.91 6.65.8-4.53.72-8.96 4.17-12.52 10.62-10.96 16.82-24.66 23.12-38.28 2.58-5.58 5.34-11.07 7.8-16.7 2.43-5.56 5.76-10.33 10.84-13.76 3.19-2.16 5.09-4.93 4.34-9-.61-3.31 1.53-5.59 3.38-7.69 3.74-4.25 4.24-8.42 2.59-13.97-5.77-19.38-10.97-38.93-16.22-58.46-1.73-6.42-8.38-9.4-13.71-3.66-4.59 4.94-9.97 7.05-17.18 4.29 1.9-5.72 1.25-11.92 6.18-17.18 14.61-15.57 28.6-31.73 42.92-47.57 3.22-3.56 6.86-6.73 10.23-10.16 2.49-2.54 5.25-4.96 7.18-7.89 2.89-4.39 4.24-9.21 1.87-14.53-5.52-12.35-5.42-25.71-6.43-38.81-.63-8.12-2.17-15.92-5.37-23.39-2.83-6.57-1.91-13.11-.22-20.04zm6.13 205.97c1.86-1.02 3.24-1.98 4.77-2.58 3.24-1.27 4.56-3.67 5.42-6.95 2.86-10.9 6.11-21.7 9.05-32.57.43-1.6.49-3.61-.08-5.13-2.93-7.83-4.97-15.73-3.63-24.18.09-.54.05-1.12-.03-1.67-.62-4.47-6.99-7.38-10.66-4.91-7.22 4.87-14.48 9.7-21.7 14.58-7.72 5.22-8.18 5.41-4.9 14.11 4.88 12.92 10.44 25.6 15.89 38.3 1.62 3.74 3.84 7.22 5.87 11z" fill="#010000"/></svg>