<svg enable-background="new 0 0 400 400" viewBox="0 0 400 400" xmlns="http://www.w3.org/2000/svg"><path d="m268.1 205.06c5.28-1.15 10.5-2.29 16.63-3.63 1.94 6.71 4.49 13.19 5.65 19.92 4.41 25.57 4.58 51.21-.47 76.74-1.64 8.31-4.6 16.14-10.91 22.24-.16.15-.32.32-.44.51-7.2 11.58-17.94 17.82-30.7 22.01-14.63 4.8-28.85 10.88-43.17 16.57-1.69.67-3.27 2.19-4.36 3.7-2.09 2.89-3.88 6.01-5.61 9.14-1.02 1.85-1.99 2.44-4.2 1.7-9.64-3.23-19.36-6.19-29.02-9.37-1.41-.46-2.85-1.35-3.87-2.42-9.91-10.34-20.04-20.5-29.51-31.24-10.24-11.6-16.47-25.47-20.32-40.37-5.38-20.79-6.49-41.69-1.2-62.72 1.3-5.17 3.4-9.71 7.04-13.8 5.71-6.43 10.86-13.36 16.23-20.1 5.61-7.04 12.67-12.26 20.57-16.42 3.29-1.73 6.31-.18 9.19 1.29 2.53 1.29 3.13 3.71 2.78 6.31-.92 6.88-2.1 13.61-6.28 19.55-6.69 9.51-13.15 19.19-19.46 28.95-2.72 4.2-5 8.71-7.18 13.23-4.22 8.74-2.53 17.7-.55 26.61 1.31 5.89 3.06 11.72 3.9 17.67 1.85 13.05 10.22 22.64 17.11 32.97 1.62 2.43 4.8 3.99 7.5 5.51 7.86 4.44 15.65 9.1 23.85 12.82 6.8 3.09 13.65 2.26 20.55-1.51 9.69-5.3 19.94-9.58 29.88-14.44 2.58-1.26 5.11-2.77 7.31-4.6 5.67-4.73 11.26-9.57 16.65-14.61 5.62-5.24 8.67-11.77 8.97-19.57 1.03-26.61 2.15-53.22 3.24-79.83.01-.87.12-1.76.2-2.81z" fill="#010102"/><path d="m223.53 138.93c-6.59 2.33-12.71 4.37-18.73 6.66-8.46 3.22-16.74 6.94-25.31 9.81-4.22 1.41-8.92 1.89-13.4 1.87-3.55-.02-5.36-2.64-5.83-6.26-.78-6.06.1-7.88 5.3-10.73 16.96-9.31 33.93-18.6 50.9-27.91.97-.53 1.92-1.1 3.21-1.83-1.7-4.97-3.47-9.88-5.04-14.85-1.93-6.11-4.61-11.49-9.19-16.36-7.29-7.75-13.18-16.72-16.46-27.01-3.04-9.57-.93-18.52 4.16-27.31 5.92 4.19 11.22 8.78 14.87 14.87 11.05 18.41 22.22 36.76 32.67 55.51 2.54 4.56 2.78 10.52 3.56 15.92 2.5 17.49 2.21 35.07.54 52.59-3.04 31.77-8.06 63.22-16.55 94.04-.47 1.72-.97 3.44-1.48 5.16-1.37 4.59-2.57 5.38-7.38 4.37-.77-.16-1.67-1.32-1.9-2.18-3.84-14.24-4.27-28.64-2.52-43.27 1.86-15.54 3.01-31.16 4.6-46.73 1.1-10.79 2.41-21.57 3.61-32.35.11-1.1.2-2.19.37-4.01z" fill="#010102"/><g fill="#fcfbfa"><path d="m385.2 377.6.6-.7c.6.4 1.3.9 1.9 1.5l-.6.7c-.8-.5-1.4-1-1.9-1.5zm.3 7.1c.6-1.4 1.1-2.9 1.5-4.5.3.1.6.3.9.4-.5 1.4-1 2.9-1.5 4.4zm.2-10.1.6-.6c.7.5 1.3 1.1 1.9 1.6l-.7.7c-.6-.6-1.2-1.2-1.8-1.7zm8.4-.8h.8v.9h1.8v.7h-1.8v1.8h-.8v-.3h-1.2v.9h3.3v2.6h-.8v-.4h-2.5c0 .3 0 .6-.1.8h3.4v.7h-3.5c0 .3-.1.6-.1.8h4v.7h-3.5c.7.9 1.9 1.3 3.6 1.5-.2.2-.4.5-.6.9-1.9-.3-3.2-1.1-3.8-2.3-.5 1.1-1.8 2-3.9 2.4-.2-.3-.4-.5-.6-.8 1.9-.4 3.1-.9 3.6-1.7h-3.2v-.7h3.5c.1-.2.1-.5.2-.8h-3.3v-.7h3.4c0-.2 0-.5 0-.8h-2.4v.3h-.8v-2.6h3.3v-.9h-1.2v.3h-.8v-1.8h-1.8v-.7h1.8v-.9h.8v.9h3.2zm-4.4 5.5h2.4c0-.3 0-.6 0-.9h-2.4zm1.2-3.1h3.2v-.8h-3.2zm4.4 2.2h-2.4v.9h2.5v-.9z"/><path d="m389.2 385.8h.9v1.5h1.9v-1.5h.9v1.5h2.7v6h1.1v.9h-11.3v-.9h1.1v-6h2.7zm.2 8.7.5.8c-1.2.6-2.5 1.3-4 1.9-.2-.3-.3-.6-.6-.8 1.6-.6 3-1.3 4.1-1.9zm-2-4.3h1.9v-2.1h-1.9zm0 3.1h1.9v-2.2h-1.9zm2.7-3.1h1.9v-2.1h-1.9zm0 3.1h1.9v-2.2h-1.9zm2.4 1.3c1.4.6 2.7 1.2 4.1 1.8l-.5.9c-1.5-.7-2.8-1.4-4.1-1.9zm2.2-6.5h-1.9v2.1h1.9zm-1.9 5.2h1.9v-2.2h-1.9z"/></g></svg>