<svg enable-background="new 0 0 400 400" viewBox="0 0 400 400" xmlns="http://www.w3.org/2000/svg"><path d="m121.45 154.37c5.52 6.3 5.09 13.34 3.59 20.75-1.23 6.08-2.27 12.29-2.5 18.47-.21 5.6 2.53 10.28 7.09 13.8 10.27 7.94 21.03 15.05 33.35 20.27-1.19 4.96 2.44 7.28 6.2 9.49 2.27 1.34 4.41 2.75 4.48 5.79.07 2.83-3.13 6.26-7.28 7.32-2.81.73-5.33.43-7.27-2.44-5.09-7.53-10.69-14.71-18.37-19.81-3.31-2.2-7.05-3.76-11.61-6.14-.9 5.36-1.92 9.86-2.36 14.42-.67 6.89-.72 13.85-1.47 20.73-.48 4.37-2.04 6.1-5.88 7.93-1.63-6.38-3.26-12.6-4.79-18.84-.96-3.91-1.86-7.83-2.61-11.78-.47-2.48-2.03-3.27-4.11-2.64-4.74 1.45-9.64 2.48-12.93 6.95-2.98 4.04-6.43 7.75-9.87 11.42-3.1 3.3-7.07 4.99-11.68 5.26-.99-2.33-.25-3.98 1.48-5.64 8.72-8.39 15.24-18.37 20.9-29 2.51-4.71 5.61-9.12 8.45-13.65 1.43-2.27 2.95-4.48 4.34-6.77 1.68-2.8 2.06-5.67 1.13-8.96-.56-1.97-.04-4.29.17-6.43.61-6.37 1.3-12.72 1.96-19.08-.48-.31-.96-.61-1.44-.92-1.58.86-3.19 1.68-4.74 2.6-2.85 1.71-5.53 3.75-8.52 5.17-3.45 1.63-6.48 3.47-7.85 7.24-.11.31-.26.63-.47.89-8.13 9.89-18.2 17.24-29.69 23.36-.74-1.49-1.22-2.44-1.89-3.79 7.02-1.91 9.94-7.81 13.7-12.9.76-1.03 1.85-1.95 2.98-2.57 3.06-1.67 5.81-3.45 7.74-6.63.86-1.42 3.38-1.79 5.1-2.72 1.22-.66 3-1.17 3.46-2.22 3.87-8.71 11.19-13.92 18.51-19.32 3.51-2.59 6.24-6.26 9.29-9.46 3.14-3.3 5.93-7.01 9.42-9.89 12.59-10.42 25.29-20.69 38.18-30.73 4.37-3.41 9.31-6.13 14.18-8.82 2.08-1.15 2.78-2.3 2.69-4.65-.57-14.76-1.32-29.53-1.28-44.29.01-6.82 1.66-13.64 2.54-20.25 8.08-.53 13.79 4.81 14.76 12.97 1.1 9.3 1.38 18.53-2.66 27.36-.42.91-.38 2.17-.17 3.19 1.14 5.7 2.31 11.4 3.66 17.05.31 1.31 1.1 2.83 2.16 3.57 7.3 5.14 14.66 10.19 22.12 15.08 5.51 3.62 11.42 6.66 16.77 10.49 4.97 3.57 10.24 5.42 16.27 5.06 2.48-.15 3.8.54 3.82 3.22.02 4.69 2.55 7.47 6.5 9.93 8.52 5.32 16.78 11.07 24.91 16.99 3.22 2.34 5.69 5.7 8.69 8.38 3.38 3.03 7.06 5.74 10.45 8.76 1.98 1.76 3.92 3.68 5.45 5.83 3.27 4.58 7.21 8.22 12.63 9.97 3.36 1.09 5.06 3.22 5.36 6.75.15 1.86.8 3.68 1.32 5.95-5.21-.47-10.21.05-13.7-4.79-4.19-5.82-9.98-9.41-16.9-11.31-1.56-.43-3.03-1.43-4.35-2.41-7.27-5.4-14.48-10.89-21.99-16.54-1.71 2.64-3.4 5.09-4.87 7.66-.33.58-.02 1.6.16 2.38.77 3.32 2.12 6.6 2.29 9.94.27 5.46 1.76 9.92 5.44 14.26 5.47 6.46 9.97 13.73 14.91 20.64.7.99 1.41 2.46 2.36 2.69 3.99.98 5.14 4.39 6.78 7.36 2.9 5.27 5.71 10.59 8.8 16.35-5.11-.5-9.38-.67-12.97-4.8-6.67-7.68-14.02-14.77-21.09-22.1-.66-.68-1.4-1.29-2.65-2.44-.72 12.28-4.18 23.59-1.54 35.51.88 3.95-1.06 8.66-2.28 12.86-.42 1.43-2.6 2.34-4.66 4.04-1.36-8.62-2.6-16.18-3.74-23.75-1.74-11.6-4.14-23.11-3.53-34.98.22-4.34-2.71-7.38-6.04-10.06-6.62 6.41-9.06 16.84-20.03 19.92.35-2.5.28-4.63.98-6.46 3.27-8.64 6.27-17.33 11.21-25.34 4.43-7.18 7.96-15 11.16-22.84 1.96-4.79 1.7-10.05-1.34-14.74-.36-.56-.72-1.17-.86-1.81-1-4.44-3.78-6.17-8.24-5.91-1.21.07-2.59-.63-3.68-1.31-10.91-6.77-22.25-12.86-31.7-21.84-2.63-2.5-6.58-3.62-9.96-5.3-2.02-1-3.24-.12-3.54 1.96-.49 3.42-1.33 6.87-1.18 10.28.54 12.4.95 24.83 2.3 37.15 2.1 19.08 2.12 38.18 2.56 57.31.14 5.98 2.82 12.1 5.21 17.78 10.29 24.46 24.63 46.5 40.46 67.72 8.61 11.54 16.61 23.58 24.18 35.84 5.08 8.22 7.62 17.63 8.61 27.3.16 1.56-.74 3.23-1.38 5.79-2.79-2.46-4.66-4.01-6.42-5.68-18.67-17.74-30.67-40.31-44.37-61.63-9.68-15.05-19.1-30.27-28.63-45.41-1.89-3-6.03-3.64-8.13-.72-4.87 6.8-11.65 12.45-12.99 21.47-.25 1.72-1.59 3.43-2.8 4.83-5.42 6.27-9.39 13.23-11.4 21.34-.38 1.54-1.98 3.27-3.46 3.96-3.45 1.62-5.83 3.9-7.06 7.52-2.97 8.75-9.54 14.99-15.23 21.87-1.66 2.01-3.01 4.41-3.94 6.85-2.11 5.53-3.71 11.25-5.84 16.77-1.07 2.78-2.58 5.47-4.35 7.86-1.15 1.56-3.12 2.52-4.72 3.74-.24-.22-.49-.44-.73-.66 2.54-7.7 5.01-15.42 7.65-23.08 1.42-4.13 1.81-8.79 5.76-11.77.64-.48.66-1.83.91-2.78 1-3.73 1.64-7.61 3.04-11.18 2.57-6.55 5.83-12.83 8.34-19.4 2.61-6.82 6.06-12.89 11.94-17.4.77-.59 1.41-1.47 1.84-2.34 4.5-9.23 8.95-18.49 13.42-27.74.39-.8.58-1.81 1.2-2.36 7.24-6.47 9.56-15.71 13.7-23.93 1.08-2.15 2.77-3.99 4-6.07.81-1.38 1.92-2.99 1.83-4.43-.6-9.91-.79-19.92-2.44-29.67-2.87-17.03-4.74-34.07-5.14-51.36-.21-9.11-2.07-18.18-3.14-27.28-.21-1.78-1-2.44-2.82-2.49-3.21-.09-6.22-.03-8.52 2.75-.76.91-1.92 1.59-3.02 2.08-9.54 4.22-16.33 11.97-24.15 18.43-4.46 3.68-9.39 6.8-14.24 9.99-3.93 2.53-7.6 5.2-9.64 9.84z" fill="#010102"/><g fill="#fcfbfa"><path d="m385.2 377.6.6-.7c.6.4 1.3.9 1.9 1.5l-.6.7c-.8-.5-1.4-1-1.9-1.5zm.3 7.1c.6-1.4 1.1-2.9 1.5-4.5.3.1.6.3.9.4-.5 1.4-1 2.9-1.5 4.4zm.2-10.1.6-.6c.7.5 1.3 1.1 1.9 1.6l-.7.7c-.6-.6-1.2-1.2-1.8-1.7zm8.4-.8h.8v.9h1.8v.7h-1.8v1.8h-.8v-.3h-1.2v.9h3.3v2.6h-.8v-.4h-2.5c0 .3 0 .6-.1.8h3.4v.7h-3.5c0 .3-.1.6-.1.8h4v.7h-3.5c.7.9 1.9 1.3 3.6 1.5-.2.2-.4.5-.6.9-1.9-.3-3.2-1.1-3.8-2.3-.5 1.1-1.8 2-3.9 2.4-.2-.3-.4-.5-.6-.8 1.9-.4 3.1-.9 3.6-1.7h-3.2v-.7h3.5c.1-.2.1-.5.2-.8h-3.3v-.7h3.4c0-.2 0-.5 0-.8h-2.4v.3h-.8v-2.6h3.3v-.9h-1.2v.3h-.8v-1.8h-1.8v-.7h1.8v-.9h.8v.9h3.2zm-4.4 5.5h2.4c0-.3 0-.6 0-.9h-2.4zm1.2-3.1h3.2v-.8h-3.2zm4.4 2.2h-2.4v.9h2.5v-.9z"/><path d="m389.2 385.8h.9v1.5h1.9v-1.5h.9v1.5h2.7v6h1.1v.9h-11.3v-.9h1.1v-6h2.7zm.2 8.7.5.8c-1.2.6-2.5 1.3-4 1.9-.2-.3-.3-.6-.6-.8 1.6-.6 3-1.3 4.1-1.9zm-2-4.3h1.9v-2.1h-1.9zm0 3.1h1.9v-2.2h-1.9zm2.7-3.1h1.9v-2.1h-1.9zm0 3.1h1.9v-2.2h-1.9zm2.4 1.3c1.4.6 2.7 1.2 4.1 1.8l-.5.9c-1.5-.7-2.8-1.4-4.1-1.9zm2.2-6.5h-1.9v2.1h1.9zm-1.9 5.2h1.9v-2.2h-1.9z"/></g></svg>