<svg enable-background="new 0 0 400 400" viewBox="0 0 400 400" xmlns="http://www.w3.org/2000/svg"><g fill="#010100"><path d="m229.56 263.51c-3.87-5.49-4.9-10.72-6.08-15.95-1.49-6.62-3.5-13.13-4.87-19.77-.97-4.68-.71-9.65-1.95-14.23-2.88-10.65-6.16-21.21-9.62-31.69-1.79-5.43-8.56-8.06-13.93-3.95-5.25 4.02-5.29 6.76-3.7 12.14 3.69 12.53 7.67 24.98 11.71 37.4 4.47 13.75 5.07 27.87 4.18 42.12-.14 2.17-1.35 4.27-2.28 7.04-4.62-4.49-5.53-9.44-6.46-14.5-2.56-13.94-5.01-27.92-8.11-41.75-1.85-8.23-4.84-16.21-7.36-24.28-.29-.94-.74-1.89-1.31-2.69-2.21-3.08-4.27-3.07-6.36-.01-3.12 4.55-4.39 9.7-5.01 15.1-1 8.76-2.4 17.48-3.11 26.25-.22 2.77 1.13 5.7 1.96 8.5.37 1.25 1.66 2.3 1.8 3.52.69 6.07 3.74 11.17 6.31 16.49 2.04 4.24 2.17 7.21.53 10.42-5.68-4.58-6.72-13.45-15.1-15.97-1.96 4.25-3.92 8.47-5.85 12.7-1.51 3.32-3.37 6.32-6.89 7.89-3.08 1.37-4.06 1.03-4.66-2.25-.33-1.79-.59-4.08.23-5.52 5.34-9.4 6.08-20.02 8.55-30.19 2.14-8.79 4.56-17.52 6.56-26.34 1.88-8.27 3.46-16.61 4.98-24.96.49-2.68 1.42-4.57 3.88-6.1 8.44-5.27 16.68-10.87 25.06-16.23 1.69-1.08 2.04-2.09 1.6-4.09-.92-4.26-2.72-7.92-5.49-11.27-2.54-3.06-5.86-3.52-8.97-.88-1.1.94-2.18 2.08-3.48 2.55-6.38 2.31-10.75 7.08-15.06 11.94-2.74 3.1-5.84 5.59-10.05 6.17-.94.13-2.33-.1-2.89-.73-1.76-1.98-1.03-9.09.93-10.88 9.35-8.52 18.45-17.34 28.17-25.41 5.81-4.82 12.61-8.46 18.98-12.61 3.94-2.56 7.9-5.09 11.86-7.62 4.67-2.97 10.3-.43 11.05 5 1.27 9.19 2.68 18.37 3.69 27.59.38 3.51 0 7.13-.35 10.67-.38 3.9-2.74 6.6-5.82 8.95-4.46 3.4-4.76 6.05-1.79 10.92 1.34 2.19 2.57 4.47 4.07 6.55 3.47 4.82 5.03 10.1 5.98 16.02 1.18 7.32 4.22 14.33 6.08 21.57 3.06 11.88 5.17 23.88 1.78 36.07-.56 2.02-2.01 3.79-3.39 6.3zm-22.9-134.44c-4.18 1.17-5.88 4.95-8.02 8.11-1.01 1.5-1.74 3.81-1.4 5.5 1.32 6.48 5.83 11.01 10.02 15.74 6.14-5.31 5.53-23.42-.6-29.35z"/><path d="m237.24 72.09c2.7-4.91 2.99-9.77 1.26-14.76-2.57-7.42.03-13.52 4.6-19.31 4.31 2.22 6.33 5.68 6.6 10.26.21 3.45.14 6.95.71 10.34.35 2.06 1.7 3.95 2.72 6.19 5.7-4.73 7.53-12.23 14.32-15.19 1.86 2.46 1.25 4.83-.03 6.97-4.17 7.01-8.32 14.05-12.81 20.86-2.42 3.67-3.85 7.31-3.79 11.8.06 4.56-.36 9.2-1.2 13.68-.57 3.03-2.24 5.84-3.41 8.75-.37-.08-.74-.17-1.11-.25-1.98-5.88-3.55-11.94-6.06-17.58-1.91-4.29-4.81-8.21-7.65-12.01-2.33-3.12-5.24-5.81-7.86-8.72-3.8-4.22-5-9.17-3.84-14.65.21-1 1.19-2.55 1.87-2.58 1.36-.06 3.26.34 4.05 1.29 3.43 4.13 6.53 8.52 9.77 12.8.54.71 1.16 1.32 1.86 2.11z"/><path d="m153.98 51.51c2.02-1.74 3.81-3.28 5.6-4.83.47.15.94.3 1.41.45.04 2.41.5 4.92.02 7.22-.57 2.69-1.65 5.4-3.07 7.76-3.98 6.65-3.93 13.81-3.42 21.15.47 6.81.77 13.63 1.08 20.44.05 1.1.13 2.47-.44 3.25-.82 1.13-2.15 2.35-3.41 2.54-1.01.15-2.93-.92-3.26-1.87-2.02-5.76-4.28-11.54-5.36-17.51-1.58-8.65-4.21-16.22-11.78-21.67-4.7-3.38-5.91-8.93-6.25-15.67 3.14.87 6.04 1.13 8.32 2.46 2.42 1.42 4.26 3.84 7.09 6.54 0-5.63-.03-10.36.01-15.09.04-5.55-.06-11.11.35-16.63.12-1.56 1.84-3.01 2.83-4.51 1.65 1.5 4.23 2.73 4.76 4.55.9 3.11.58 6.59.63 9.92.07 4.48.53 8.74 4.89 11.5z"/><path d="m217.83 317.13c-.59 2.29-.74 4.82-1.85 6.82-2.17 3.88-5.01 7.38-7.35 11.17-2.16 3.49-4.12 7.11-6 10.76-1.47 2.86-2.76 5.83-3.99 8.81-.49 1.19-.79 2.53-.86 3.83-.2 3.45-.11 6.93-.39 10.37-.23 2.89-1.85 4.87-4.98 6.01-1.99-8.42-3.94-16.65-5.88-24.88-.31-1.3-.36-2.74-.96-3.88s-1.62-2.15-2.66-2.95c-2.34-1.8-5.29-3.04-7.14-5.22-3.95-4.68-7.48-9.73-10.92-14.81-1.19-1.76-1.58-4.06-2.39-6.26 3.21-.92 5.31-.21 7.36 1.81 5.09 5.01 10.37 9.82 15.82 14.94 2.65-4.71 2.97-9.38 1.71-14.14-1.58-5.95-.78-11.22 3.69-15.89 4.25 3.11 4.96 7.58 5.2 12.21.18 3.46-.01 6.95.4 10.37.18 1.47 1.46 2.82 2.24 4.22 1.24-.76 2.68-1.33 3.67-2.33 2.28-2.3 4.14-5.04 6.54-7.18 2.15-1.92 4.8-3.27 7.23-4.87.51.36 1.01.72 1.51 1.09z"/></g><path d="m6.4 11.7c-1-.8-1.9-1.6-2.9-2.3l.6-.7c.9.7 1.9 1.4 2.9 2.2zm-2.1 8.3c.7-2.1 1.4-4.2 2-6.4.2.1.6.3 1 .4-.7 2.3-1.3 4.4-1.9 6.4zm3-12.8c-1.1-.9-2.1-1.7-2.9-2.4l.6-.7c1 .8 2 1.5 3 2.4zm1.4-1.3v-.9h10.2v.9c-.9 4.2-2.3 7.3-4.1 9.4 1.3 1.4 3.2 2.7 5.7 4-.2.2-.4.5-.7.9-2.5-1.4-4.4-2.7-5.7-4.2-1.4 1.5-3.5 3-6.1 4.4 0 0 0 0-.1-.1-.3-.4-.5-.7-.7-.8 2.7-1.3 4.7-2.8 6.2-4.2-1.8-2.2-3-5.3-3.7-9.4zm9.2 0h-7.1c.6 3.8 1.7 6.7 3.4 8.7 1.7-2 2.9-4.8 3.7-8.7z" fill="#fafbfa"/><path d="m31.6 3.6h.9v2.3h4.1v9.1h1.7v.9h-16.6v-.9h1.7v-9.1h4.1v-2.3h.9v2.3h3.1v-2.3zm-4 13.3.6.8c-1.9.9-3.8 1.9-5.8 2.8-.2-.3-.3-.6-.5-.9 2-.9 3.9-1.8 5.7-2.7zm-3.2-10.1v3.7h3.1v-3.7zm0 4.5v3.7h3.1v-3.7zm4.1-4.5v3.7h3.1v-3.7zm0 4.5v3.7h3.1v-3.7zm9.1 9.1c-2.1-1.1-4.1-2-5.8-2.7l.5-.8c2.2.9 4.1 1.8 5.8 2.6zm-1.9-13.6h-3.1v3.7h3.1zm-3.2 4.5v3.7h3.1v-3.7z" fill="#fafbfa"/></svg>