<svg enable-background="new 0 0 400 400" viewBox="0 0 400 400" xmlns="http://www.w3.org/2000/svg"><g fill="#010102"><path d="m208.8 160.93c.7-.47 1.55-.8 2.07-1.43 1.39-1.69 3.26-2.62 4.9-1.19 1.6 1.4 1.13 3.43-.43 5.05-1.89 1.95-1.35 3.35.88 4.76 3.33 2.11 4.06 6.14 2.81 9.83-.57 1.68.15 3.8.3 5.9-1.57.06-2.88-.68-3.36-3.12-.71-3.61-2.58-6.39-6.94-7.24-.37 1.09-.88 2.16-1.1 3.29-.89 4.57-1.44 9.21-2.57 13.71-1.5 5.96-3.78 11.73-5.05 17.72-.92 4.33-3.15 6.36-7.42 6.81-1.83-2.18-1.63-4.6-.61-7.11 1.25-3.09 2.76-6.07 1.73-9.65-.3-1.05.32-2.39.63-3.58 1.89-7.25 3.93-14.46 5.65-21.74.61-2.57 1.77-3.79 4.36-4.15 3.77-.53 4.32-1.97 2.13-4.98-1.83-2.52-2.52-5.04-1.14-8.12 1.51-3.38 1.18-6.82-1.18-9.81-2.06-2.59-2.98-5.43-2.53-8.72.39-2.82-.44-5.22-2.24-7.42-1.34-1.64-2.3-3.6-3.68-5.2-2.58-3.01-3.55-6.17-2.51-10.17.31-1.19-.99-2.88-1.75-4.24-.62-1.11-1.51-2.07-2.33-3.17 2.02-.32 3.43-.54 4.85-.76.14-.31.29-.62.43-.93-5.2-3.68-4.7-8.63-3.56-13.69.16-.71.85-1.31 1.29-1.96.7.58 1.86 1.05 2.02 1.75 1.26 5.3 2.35 10.65 3.43 15.99.79 3.92.97 8.06 2.39 11.72 1.08 2.79 3.69 4.99 5.61 7.45.56-.1 1.12-.21 1.69-.31 1.25-3.95 2.76-7.85 3.68-11.87.94-4.13 1.32-8.39 1.93-12.6.09-.66.35-1.51.06-1.97-2.71-4.24-1.97-9.04-2.52-13.66-.58-4.87-4.14-7.97-8.08-11.08-2.83 3.41-5.58 6.72-8.33 10.04-.3-.05-.6-.1-.89-.15.16-1.72.21-3.46.5-5.17.22-1.31.97-2.55 1.08-3.85.35-4.43-3.11-7.14-7.41-5.75-2.45.79-4.57 1.18-6.14-1.97 4.07-1.79 6.95-5.98 12.34-4.78.9.2 2.51-1.6 3.4-2.76 1.48-1.93 3.11-3.12 5.65-2.66 2.43.44 4.17-.57 5.85-2.35 3.33-3.52 6.31-7.69 11.92-7.87.55-.02 1.31-.58 1.56-1.09 1.63-3.28 4.93-3.82 7.82-5.22 4.66-2.25 9.09-4.98 14.07-7.76.38.96 1.64 2.59 1.49 4.09-.38 3.83-.88 7.78-2.24 11.34-2.51 6.54-5.59 12.87-8.61 19.2-1.96 4.1-4.07 8.15-6.46 12.01-.87 1.4-2.66 2.39-4.23 3.14-.81.39-2.08-.17-3.14-.3.23-1.04.11-2.39.73-3.06 6.29-6.79 11.73-14.15 14.82-22.95 1.16-3.3 1.63-6.85 2.41-10.28-.31-.35-.63-.7-.94-1.05-2.01.76-4.16 1.29-6.01 2.33-5.64 3.16-11.25 6.4-16.72 9.85-3.52 2.22-6.76 4.88-10.32 7.49 3.26 3.82 5.76 6.97 8.5 9.89 1.85 1.98 2.99 4.03 2.9 6.83-.06 2 .43 4 .52 6.01.16 3.43.23 6.86 4.74 7.79-.76 2.99-1.66 5.65-2.07 8.37-.51 3.37-.58 6.8-.89 10.2-.1 1.09-.19 2.21-.54 3.24-.56 1.69-1.17 3.41-2.03 4.96-4.62 8.24-6.24 16.83-3.21 25.98 1.04 3.15.09 5.58-2.08 7.85-.98 1.02-1.7 2.29-2.54 3.45.21.29.44.57.66.85z"/><path d="m225.48 311.23c8.32 2.45 8.79 3.24 6.52 10.63-1.05 3.41-2.35 6.75-3.65 10.08-2.38 6.07-2.42 6.06-9.39 5.92-.78-4.64.29-9.04 1.85-13.37.38-1.05.88-2.05 1.33-3.08.94-2.17 2.46-4.86.28-6.5-2.26-1.69-5.36-2.35-8.19-3.11-.53-.14-1.74 1.2-2.23 2.08-1.63 2.9-3.61 5.38-6.81 6.62-2.13.82-2.96 2.42-3.28 4.61-.43 2.93-6.58 8.2-9.48 8.09-1.23-.05-2.41-1.09-3.65-1.2-2.33-.2-3.63.61-2.72 3.39 2.03 6.15 1.6 6.68-4.67 8.09-1.19.27-2.36 1.12-3.27 1.99-.95.91-1.35 2.47-2.38 3.19-1.37.96-3.09 1.68-4.72 1.86-.51.06-1.47-1.88-1.84-3.03-.87-2.65-1.51-5.38-2.23-8.08-.08-.31-.09-.64-.15-1.14 1.18-.54 2.37-1.09 3.37-1.54-1.55-14.08 5.31-26.4 6.95-39.79h8.45c-.8 2.61-1.64 4.95-2.21 7.35-.36 1.52-.97 3.47-.36 4.64 1.89 3.6 1.52 7.04.54 10.71-1.09 4.07-.28 5.55 3.97 6.12 4.77.65 9.25.67 12.55-4.42 4.07-6.27 8.78-12.18 13.73-17.79 3.52-3.98 7.75-7.39 11.98-10.64.98-.75 3.29.08 4.94.4 1.28.25 2.5.83 4.88 1.66-.32-2.25-.27-3.84-.8-5.21-1.01-2.61-1.21-4.8 1.82-6.04 2.87-1.18 4.96-4.44 9.64-3.13-.81 1.6-1.45 2.99-2.2 4.32-1.66 2.95-3.61 5.78-5 8.85-1.14 2.52-1.53 5.36-2.47 7.98-.98 2.74-2.59 4.65-5.82 5.37-1.76.39-3.16 2.38-5.28 4.12z"/><path d="m229.82 234.1c3.98 2.87 4.13 5.78.93 8.96-4.85 4.81-9.83 9.49-14.6 14.37-3.52 3.6-7.23 7.13-10.07 11.24-3.33 4.81-7.61 7.48-13.09 8.99-4.66 1.28-5.44 3.23-3.89 7.73 1.99 5.78.22 7.94-6.49 7.46 0-4.54-.09-9.11.08-13.67.03-.91.9-1.98 1.66-2.65 4.8-4.2 9.61-8.4 14.55-12.43 4.97-4.06 9.04-8.8 12.96-13.9 3.4-4.42 8.22-7.86 12.75-11.27 2.89-2.17 3.72-4.43 3.31-7.93-.82-7.1-.99-14.28-1.79-21.38-.29-2.6-1.86-5.03-2.43-7.63-.62-2.82-.76-5.75-1.11-8.64.56-.17 1.11-.35 1.67-.52 1.3 2.56 3.14 5 3.8 7.72 1.45 5.96 2.31 12.07 3.41 18.11.08.44.07.9.18 1.33 1.33 4.93 2.53 9.85-1.83 14.11z"/><path d="m133.43 90.33c.79-.42 1.71-1.33 2.29-1.15 4.12 1.28 6.33-1.71 8.99-3.74.27-.2.53-.42.8-.61 4.1-3 4.49-2.91 7.28 1.59-6.84 3.6-8.11 5.97-7.38 13.81.16 1.67.38 3.33.62 4.99 1.15 7.83.67 9.74-4.48 17.43.84.94 1.72 1.91 2.75 3.05-1.16 1.38-2.28 2.72-3.51 4.19.96 1.29 1.87 2.51 2.9 3.89-1.64 1.93-3.21 3.78-4.9 5.77 2.11 1.66 4.23 2.18 6.58 1.08 2.21-1.05 4.48-2.04 6.54-3.34 7.56-4.77 15.03-9.67 22.55-14.51.98-.63 2-1.2 3.47-1.3-.47.64-.87 1.35-1.42 1.9-3.25 3.23-6.68 6.3-9.78 9.67-3.71 4.04-7.77 7.23-13.33 8.35-1.36.27-2.51 1.7-3.69 2.68-3.16 2.61-6.06 5.61-9.48 7.8-2.88 1.85-4.85.4-4.84-3.09 0-1.31.63-2.61.71-3.92.16-2.61.04-5.24.21-7.85.11-1.72.59-3.4.79-5.12.28-2.36.86-4.77.61-7.08-.4-3.65-1.72-7.2-2.03-10.85-.26-3.03-.15-6.31.75-9.19 1.53-4.91 1.14-9.14-2.27-13.04-.28-.34-.41-.79-.73-1.41z"/><path d="m184.61 269.4c-2.68-6.71-2.15-13.53-.29-20.31 2.32-8.5 5.1-16.85 5.13-25.85 0-1.34 2.47-3.44 4.12-3.82 2.72-.64 5.63 2.25 5.6 4.95-.02 1.41-.39 2.88-.89 4.22-.86 2.29-1.8 4.58-2.95 6.74-2.51 4.76-4.78 9.43-3.69 15.17.36 1.91-.73 4.12-1.19 6.18-.64 2.85-1.14 5.75-2.06 8.51-.55 1.65-1.78 3.06-2.71 4.58-.36-.12-.72-.24-1.07-.37z"/><path d="m216.52 339.39c6.45 7.41 5.99 15.56-.73 22.78-2.49 2.68-4.71 5.27-5.21 9.08-.15 1.14-1.34 2.15-2.56 3.99-1.31-4.91-3.33-8.61-1.39-13.19 1.75-4.11 2.77-8.42 7.33-10.62.83-.4 1.17-2.17 1.39-3.37.47-2.58.72-5.2 1.17-8.67z"/><path d="m162.21 82.12c-.15-.07-1.02-.51-1.9-.95.79-.58 1.53-1.56 2.39-1.67 4.86-.65 7.5-4.57 11.02-7.18 1.3-.96 2.71-2.88 4.06-.75.58.93-.05 3.28-.92 4.34-2.69 3.29-9.28 6.01-14.65 6.21z"/><path d="m258.92 25.1c1.5 1.53 1.98 2.63.01 3.84-2.45 1.5-4.79 3.18-7.67 5.12.28-5.56 4.94-6.29 7.66-8.96z"/></g><path d="m385.2 377.6.6-.7c.6.4 1.3.9 1.9 1.5l-.6.7c-.8-.5-1.4-1-1.9-1.5zm.3 7.1c.6-1.4 1.1-2.9 1.5-4.5.3.1.6.3.9.4-.5 1.4-1 2.9-1.5 4.4zm.2-10.1.6-.6c.7.5 1.3 1.1 1.9 1.6l-.7.7c-.6-.6-1.2-1.2-1.8-1.7zm8.4-.8h.8v.9h1.8v.7h-1.8v1.8h-.8v-.3h-1.2v.9h3.3v2.6h-.8v-.4h-2.5c0 .3 0 .6-.1.8h3.4v.7h-3.5c0 .3-.1.6-.1.8h4v.7h-3.5c.7.9 1.9 1.3 3.6 1.5-.2.2-.4.5-.6.9-1.9-.3-3.2-1.1-3.8-2.3-.5 1.1-1.8 2-3.9 2.4-.2-.3-.4-.5-.6-.8 1.9-.4 3.1-.9 3.6-1.7h-3.2v-.7h3.5c.1-.2.1-.5.2-.8h-3.3v-.7h3.4c0-.2 0-.5 0-.8h-2.4v.3h-.8v-2.6h3.3v-.9h-1.2v.3h-.8v-1.8h-1.8v-.7h1.8v-.9h.8v.9h3.2zm-4.4 5.5h2.4c0-.3 0-.6 0-.9h-2.4zm1.2-3.1h3.2v-.8h-3.2zm4.4 2.2h-2.4v.9h2.5v-.9z" fill="#fcfbfa"/><path d="m389.2 385.8h.9v1.5h1.9v-1.5h.9v1.5h2.7v6h1.1v.9h-11.3v-.9h1.1v-6h2.7zm.2 8.7.5.8c-1.2.6-2.5 1.3-4 1.9-.2-.3-.3-.6-.6-.8 1.6-.6 3-1.3 4.1-1.9zm-2-4.3h1.9v-2.1h-1.9zm0 3.1h1.9v-2.2h-1.9zm2.7-3.1h1.9v-2.1h-1.9zm0 3.1h1.9v-2.2h-1.9zm2.4 1.3c1.4.6 2.7 1.2 4.1 1.8l-.5.9c-1.5-.7-2.8-1.4-4.1-1.9zm2.2-6.5h-1.9v2.1h1.9zm-1.9 5.2h1.9v-2.2h-1.9z" fill="#fcfbfa"/></svg>