<svg enable-background="new 0 0 400 400" viewBox="0 0 400 400" xmlns="http://www.w3.org/2000/svg"><g fill="#010102"><path d="m148.65 373.92c-6.21-12.54-13.95-24.31-16.75-38.05-1.18-5.8-.59-11.95-.87-17.94-.07-1.53.04-3.27-.64-4.54-1.56-2.9-1.53-5.59-.41-8.61 1.16-3.14 1.83-6.45 2.89-9.63.44-1.32 1.45-2.44 2-3.73.72-1.71 1.66-3.48 1.78-5.27.52-7.95 2.74-15.33 6.67-22.23.38-.66 1.02-1.66.79-2.09-2.69-4.99-.17-10.13-.58-15.16-.13-1.62-.59-3.22-.83-4.83-.3-2.08-1.08-4.28-.69-6.24 1.03-5.24 2.56-10.39 3.93-15.56.14-.52.46-1.02.8-1.45 4.86-6.12 9.66-12.31 14.67-18.31 1.7-2.03 3.73-3.97 6-5.31 7.96-4.71 15.79-9.75 25.02-11.8 1.09-.24 2.15-.59 3.22-.92 8.23-2.53 9.49-4.42 6.89-12.45-3.49-10.77-3.81-22-5.27-33.06-.85-6.41-1.45-7.06-7.74-5.93-.66.12-1.33.18-2 .2-10.71.27-21.43.41-32.14.87-3.41.15-6.82.98-10.15 1.83-5.93 1.51-7.09.97-9.01-5.11 3.12-2.41 6.65-1.95 10.21-1.43 2.42.36 4.88.91 7.3.83 4.7-.15 7.39-2.55 8.47-7.14.38-1.62.78-3.32.69-4.97-.54-10.58 1.76-20.71 5.12-30.57 3.99-11.75 2.79-23.9 3.58-35.9.08-1.18-1.11-2.44-1.9-4.06-6.51 6.43-12.46 12.73-21.39 15.13-1.74-2.63-.8-5.85 1.07-6.78 6.15-3.06 8.47-9.28 12.7-13.87 4.54-4.92 8.65-10.29 14.66-12.78 2.93 3.9 5.72 7.55 8.43 11.27.34.46.44 1.27.33 1.85-2.15 11.18-3.98 22.37-5.17 33.74-1.04 9.91-4.51 19.57-6.91 29.34-1.57 6.4-3.13 12.8-4.91 20.04 3 .26 5.74.95 8.35.62 5.64-.72 11.24-1.86 16.8-3.07 1.08-.24 2.44-1.41 2.77-2.44.93-2.96 2.02-6.08 1.96-9.11-.41-19.43 5.92-37.16 13.3-54.65 3.04-7.21 6.25-14.35 9.63-21.4 4.83-10.07 7.63-10.51 15.03-1.39 3.64 4.48 4.05 9 3.75 14.51-.32 5.92 1.21 11.93 1.79 17.92.52 5.31.97 10.64 1.22 15.97.13 2.71-1.37 4.61-4.33 5.58-3.14-9.41-6.73-18.71-9.2-28.3-1.08-4.2-.24-8.9-3.33-13.09-1.15 2.46-2.23 4.73-3.27 7.01-3.58 7.82-7.17 15.65-10.72 23.48-.41.9-1.01 1.98-.83 2.83 2.01 9.03-1.52 17.47-2.63 26.16-.42 3.32-1.25 6.6-1.56 9.93-.09.97.7 2.57 1.52 2.96 2.19 1.03 4.57 1.88 6.95 2.19 3.51.46 6.44 1.52 8.52 4.57.8 1.18 1.95 2.15 3.01 3.14 5.85 5.42 9.34 11.91 9.32 20.06 0 2.12-.08 4.29.26 6.37 1.58 9.7-2.14 17.91-7.43 25.49-1.99 2.85-5.08 4.98-7.81 7.26-1.41 1.17-1.85 2.22-1.22 4.01 1.23 3.47 2.11 7.07 3.36 10.54.63 1.74 1.58 3.43 2.69 4.92 4.24 5.7 8.02 11.67 9.37 18.72.51 2.66-.12 5.55-.23 8.33-.55.13-1.11.26-1.66.39-6.44-10.82-13.17-21.48-19.18-32.52-2.92-5.35-5.86-9.82-12.51-9.98-1.07-.03-2.53.38-3.17 1.13-2.97 3.47-6.52 4.3-10.87 3.4-5.81-1.2-7.91.06-8.29 6.05-.35 5.41.44 10.89.78 16.34.09 1.45.39 2.88.53 4.33.43 4.53 1.01 8.76 3.99 12.74 3.76 5.03 5.36 15.57 4.32 22.44-1.41-.79-3.09-1.16-3.63-2.14-3.22-5.87-6.35-11.81-9.17-17.88-2.83-6.11-4.99-12.39-3.8-19.41.54-3.16.53-6.53.03-9.68-.23-1.49-1.96-3.11-3.42-3.95-2.06-1.19-2.84.99-3.74 2.31-2.77 4.07-5.38 8.26-8.28 12.23-1.26 1.73-3.12 3.01-4.65 4.56-.6.6-1.26 1.28-1.51 2.06-2.96 9.17-4.2 18.5-2.61 28.1.47 2.85 1.62 5.02 4.44 6.15 2.43.98 2.99 2.79 1.24 4.74-1.67 1.87-1.15 3.43.13 5.01 1.69 2.08 3.61 3.99 5.24 6.12 7.14 9.27 14.21 18.59 21.3 27.9.27.35.51.74.66 1.15 4.42 11.58 9.06 23.09 13.1 34.8 1.39 4.02 1.29 8.55 1.79 12.86.08.68-.3 1.4-1.36 2.4-1.38-2.57-3.11-5.02-4.07-7.74-2.82-8-5.19-16.17-8.05-24.15-.95-2.64-2.88-4.93-4.31-7.41-1.11-1.91-2.25-3.82-3.2-5.81-1.24-2.6-2-5.5-4.95-6.89-.44-.21-.84-.79-.99-1.28-2.13-7.06-7.61-11.72-12.18-17.03-3.71-4.31-7.52-8.55-12.08-13.72-.97 4.23-1.73 7.6-2.5 10.96-.24 1.07-.19 2.37-.79 3.17-4.72 6.17-5.29 13.04-4.81 20.58 1.03 16.12 2.58 32.11 6.97 47.7.52 1.86 1.52 3.65 2.6 5.27 3.44 5.12 3.56 10.57 1.76 16.2zm74.36-238.21c-3.33-1.65-6.53-3.24-9.73-4.82-3.39-1.68-5.43-.51-5.1 3.29.66 7.67 1.33 15.36 2.56 22.94.58 3.54 2.41 6.89 3.79 10.28 1.01 2.46 3.07 2.63 4.95 1.38 3.3-2.2 6.32-4.38 6.2-9.36-.15-6.51-1.38-13.22 1.4-19.53 1.12-2.53.71-4.44-1.59-6.17-.73.59-1.5 1.21-2.48 1.99z"/><path d="m262.06 109.42c3.85 1.46 5.05 3.83 5.03 6.63-.03 3.9-.41 7.8-.82 11.68-.45 4.22-1.16 8.42-1.66 12.64-.57 4.84 1.29 8.19 6.09 9.34 4.64 1.1 9.48 1.44 14.26 1.75.94.06 2.6-1.35 2.9-2.38 1.36-4.71 2.34-9.53 3.48-14.3.83-3.49 1.79-6.9 5.68-9.19.43 6.86 2.04 13.21.4 19.82-2.84 11.48-4.69 23.2-9.86 34.04-1.49 3.13-3.64 5.12-6.75 5.19-6.33.15-12.67-.2-18.99-.63-1.19-.08-2.57-1.31-3.39-2.37-4.46-5.83-5.58-12.69-4.94-19.72.7-7.66 2.14-15.25 3.14-22.88.49-3.77.4-7.63 1.12-11.35 1.18-6.05 2.81-12.02 4.31-18.27zm14.28 67.75c1.64-.97 4.55-1.72 5.67-3.56 2.23-3.66 3.52-7.9 5.07-11.95.28-.72.16-2.31-.18-2.43-3.71-1.4-7.42-2.98-11.28-3.71-2.59-.49-5.41.49-8.14.52-3.47.04-4.79 1.13-5.04 4.63-.12 1.78-.69 3.63-.38 5.32.49 2.74.73 6.61 2.53 7.79 2.99 1.97 7.14 2.19 11.75 3.39z"/><path d="m97.89 155.18c3.71.46 5.01 2.13 5.52 4.5.28 1.3.31 2.67.37 4.01.36 8.34 3.03 11.15 11.45 11.72 2.9.2 5.85-.17 8.71.23 2.08.29 4.04 1.44 6.08 2.15 1.08.38 2.32 1.05 3.27.79.68-.19 1.33-1.67 1.42-2.62.36-4.01.46-8.04.74-12.05.11-1.55-.01-3.36.76-4.55.9-1.41 2.53-2.51 4.09-3.2.33-.15 2.35 1.95 2.47 3.12.48 4.74.57 9.53.71 14.3.32 10.59-4.4 19.75-8.72 28.88-3.82 8.07-11.22 9.59-19.39 8.51-3.21-.42-6.43-.86-9.59-1.58-6.04-1.37-8.84-6.97-6.8-12.88.27-.79-.21-2.21-.84-2.86-2.28-2.36-2.19-4.82-1.73-7.93.69-4.7.25-9.55.46-14.33.21-5.31.65-10.61 1.02-16.21zm23.49 45.25c2.3-.8 5.24-1.67 8.05-2.88.85-.36 1.67-1.56 1.87-2.51.63-3.06.98-6.18 1.38-9.28.32-2.48-.84-3.61-3.3-3.25-5.9.86-11.73.44-17.64-.25-2.64-.31-6.04.93-8.1 2.65-.96.8.16 4.5.81 6.75 1.12 3.87 3.96 6.08 7.87 6.9 2.72.58 5.44 1.13 9.06 1.87z"/><path d="m235.53 353.02c-.76-2.9-1.34-5.85-2.3-8.68-3.08-8.98-6.53-17.84-9.42-26.87-2.41-7.55-4.27-15.27-6.29-22.94-.48-1.82-.99-3.77-.85-5.61.61-8.05-3.44-14.87-5.19-22.22-3.74-.16-5.64 2.23-7.93 4.17-2.21 1.86-4.83 3.25-7.27 4.84-.46-.32-.91-.64-1.37-.97.46-2.01.42-4.34 1.48-5.96 4.33-6.63 8.95-13.08 13.59-19.51 1.09-1.5 1.85-2.74.61-4.45-.31-.43-.58-1.02-.58-1.54-.04-8.24-.03-16.48-.03-24.73.37-.2.74-.41 1.11-.61.97 1.37 2.34 2.61 2.83 4.14 1.4 4.33 2.46 8.78 3.62 13.19.17.63.33 1.34.2 1.95-1.23 6.11-2.56 12.19-3.73 18.31-.15.79.43 1.78.83 2.61 1.24 2.59 2.81 5.05 3.79 7.74 7.26 19.81 11.27 40.42 14.88 61.14.88 5.05 2.64 9.96 3.41 15.02.54 3.53.1 7.22.1 10.84-.48.03-.99.09-1.49.14z"/><path d="m146.41 312.81c9.13 1.57 22.21 17.83 21.68 26.95-9.1-1.78-22.59-18.54-21.68-26.95z"/></g><path d="m385.2 377.6.6-.7c.6.4 1.3.9 1.9 1.5l-.6.7c-.8-.5-1.4-1-1.9-1.5zm.3 7.1c.6-1.4 1.1-2.9 1.5-4.5.3.1.6.3.9.4-.5 1.4-1 2.9-1.5 4.4zm.2-10.1.6-.6c.7.5 1.3 1.1 1.9 1.6l-.7.7c-.6-.6-1.2-1.2-1.8-1.7zm8.4-.8h.8v.9h1.8v.7h-1.8v1.8h-.8v-.3h-1.2v.9h3.3v2.6h-.8v-.4h-2.5c0 .3 0 .6-.1.8h3.4v.7h-3.5c0 .3-.1.6-.1.8h4v.7h-3.5c.7.9 1.9 1.3 3.6 1.5-.2.2-.4.5-.6.9-1.9-.3-3.2-1.1-3.8-2.3-.5 1.1-1.8 2-3.9 2.4-.2-.3-.4-.5-.6-.8 1.9-.4 3.1-.9 3.6-1.7h-3.2v-.7h3.5c.1-.2.1-.5.2-.8h-3.3v-.7h3.4c0-.2 0-.5 0-.8h-2.4v.3h-.8v-2.6h3.3v-.9h-1.2v.3h-.8v-1.8h-1.8v-.7h1.8v-.9h.8v.9h3.2zm-4.4 5.5h2.4c0-.3 0-.6 0-.9h-2.4zm1.2-3.1h3.2v-.8h-3.2zm4.4 2.2h-2.4v.9h2.5v-.9z" fill="#fcfbfa"/><path d="m389.2 385.8h.9v1.5h1.9v-1.5h.9v1.5h2.7v6h1.1v.9h-11.3v-.9h1.1v-6h2.7zm.2 8.7.5.8c-1.2.6-2.5 1.3-4 1.9-.2-.3-.3-.6-.6-.8 1.6-.6 3-1.3 4.1-1.9zm-2-4.3h1.9v-2.1h-1.9zm0 3.1h1.9v-2.2h-1.9zm2.7-3.1h1.9v-2.1h-1.9zm0 3.1h1.9v-2.2h-1.9zm2.4 1.3c1.4.6 2.7 1.2 4.1 1.8l-.5.9c-1.5-.7-2.8-1.4-4.1-1.9zm2.2-6.5h-1.9v2.1h1.9zm-1.9 5.2h1.9v-2.2h-1.9z" fill="#fcfbfa"/></svg>