<svg enable-background="new 0 0 400 400" viewBox="0 0 400 400" xmlns="http://www.w3.org/2000/svg"><g fill="#fbfafa"><path d="m37.59 393.81c-.92.31-1.52.05-2-.78-.7-1.2-1.52-2.34-2.47-3.78v4.59c-.55.03-.95.05-1.41.07-.03-.37-.06-.64-.06-.91 0-1.91 0-3.81 0-5.7 1.13-.41 1.77-.03 2.29.91.62 1.11 1.38 2.14 2.31 3.19v-4.2h1.35v6.61z"/><path d="m12.94 393.88v-6.75c1.9.19 3.93-.54 5.37 1.29.8 1.01.78 2.88.03 3.97-1.37 1.97-3.4 1.51-5.4 1.49m1.45-1.22c2.04.12 2.92-.58 2.89-2.21-.03-1.51-.98-2.19-2.89-2z"/><path d="m11.81 393.87h-5.49c.68-2.18 2.47-3.48 3.51-5.45h-3.08v-1.21h5.29c-.71 2.13-2.44 3.48-3.47 5.51.86 0 1.63.04 2.39-.01.79-.05 1.14.21.85 1.16"/><path d="m39.33 393.86v-6.61h3.7v1.07h-2.22v1.52c.68.04 1.34.09 2.07.13v1.07c-.72.05-1.38.09-2.1.14v1.48h2.4v1.19h-3.85z"/><path d="m27.71 388.56c-1.15-.3-2.46-.61-3.1.64-.37.73-.41 1.93-.06 2.67.63 1.35 1.99.93 3.17.68.35.94-.01 1.32-.93 1.46-1.62.25-3.05-.27-3.76-1.48-.73-1.24-.6-3.03.31-4.17.88-1.11 2.71-1.7 4-1.16.32.13.44.74.65 1.12-.1.08-.19.16-.28.24"/><path d="m49.15 387.24v1.07c-.59.02-1.17.05-1.87.08v5.44h-1.48v-5.44h-1.85c-.05-.4-.08-.73-.13-1.15z"/><path d="m20.06 387.21h1.33v6.62h-1.33z"/><path d="m30.68 393.25c-.49.38-.8.79-1.05.76-.32-.05-.6-.45-.9-.7.26-.24.51-.64.8-.67.29-.04.62.3 1.15.61"/></g><path d="m226.98 372.62c1.64-2.36 2.82-4.07 3.94-5.69-.53-.57-.69-.86-.82-.86-5.13.36-7.45-2.32-8.17-7.13-1.82-12.14-4.05-24.22-5.55-36.4-.54-4.41 1.4-9.17.64-13.49-.88-5.01 2.91-6.86 4.32-10.25.36-.06.73-.12 1.09-.17 1.69 3.79 4.02 7.43 4.94 11.4 1.98 8.58 3.39 17.3 4.72 26.01.63 4.11 1.94 8.25.23 12.55-.39.98 1.1 2.58 1.29 3.96.4 2.86.52 5.75.78 8.97 3.1-.09 5.61-.9 6.97-3.95.31-.7.64-1.76 1.18-1.92 3.59-1.08 4.34-3.86 5.48-7.05 1.39-3.91 4.08-7.37 6.36-10.93 1.93-3.02 2.85-6.84 6.51-8.58.2-.1.25-.59.31-.91 1.11-5.77 2.22-11.54 3.35-17.46-3.14-1.48-6.94-2.72-10.12-4.87-8.98-6.06-18.21-11.89-26.36-18.96-6.28-5.44-12.91-10.23-19.6-15.04-2.41-1.73-4.31-4.21-6.31-6.47-1.68-1.9-3.3-3.47-6.21-3.06-1.18.17-2.5-.61-4.4-1.13.34 1.66.58 2.85.87 4.27-10.17 7.27-20.44 14.62-30.73 21.95-.44.32-1.04.66-1.53.62-5.56-.43-9.76 2.88-14.18 5.31-4.99 2.74-9.75 5.91-14.49 9.07-1.81 1.21-3.28 2.93-4.19 3.76 1.58 4.75 2.74 8.78 4.26 12.66 1.74 4.44 3.82 8.75 5.74 13.12.67 1.53 1.7 3.02 1.89 4.61.51 4.26 2.05 7.86 5.57 10.62.59-.85 1.22-1.76 1.82-2.64-2.15-3.23-2.04-3.84 1.37-5.31 3.7-1.61 7.52-2.93 7.86-7.95.06-.86 1.3-1.72 2.14-2.42 1.63-1.36 4.54-2.4 4.82-3.95.92-5.18 6.19-5.56 8.66-8.93 2.57-3.5 5.67-6.63 8.66-9.8 1.37-1.45 3.04-2.6 5.42-4.6.23 2.21 1 4 .44 5.1-3.82 7.4-7.9 14.66-11.96 21.93-1.17 2.1-2.52 4.11-3.83 6.12-.65 1-1.3 2.05-2.16 2.86-8.23 7.84-18.03 13.52-27.42 19.77-2.44 1.63-7.4.53-8.75-2.05-1.38-2.63-2.42-5.44-3.6-8.18-.13-.3-.04-.76-.24-.96-4.96-5.05-4.84-12.92-9.91-17.95-.79-.79-.99-2.22-1.34-3.39-2.55-8.57-5.18-17.11-7.52-25.74-.61-2.26-.61-4.82-.29-7.17 1.37-10.29 3.34-20.51 4.31-30.83.42-4.46-1.03-9.11-1.66-13.66-.36-2.59-.28-4.93 1.23-7.35 1.13-1.82 1.17-4.28 1.96-6.35 1.2-3.16 1.91-6.85 6.09-7.38 1.38-5.03 3.13-9.73 7.77-12.71.36-.23.68-.58.93-.94 3.89-5.55 7.17-11.68 11.78-16.55 6.87-7.26 11.29-16.06 16.98-24.04.9-1.26 2.07-2.32 2.73-3.04 2.19 1.06 3.94 1.91 5.68 2.75.48-1.11.95-2.22 1.43-3.33-.23-.13-.47-.27-.7-.4-.57.53-1.15 1.06-1.59 1.47-1.42-.68-2.77-1.33-4.43-2.13.44-.78.77-1.76 1.41-2.43 4.27-4.45 6.37-9.91 7.55-15.82 1.63-8.16 4.42-15.88 8.45-23.2 1.42-2.59 2.25-5.61 2.84-8.53.92-4.57 2.02-8.95 4.76-11.42 0-3.07-.25-5.22.04-7.28 1.45-10.06 3.06-20.09 4.59-30.14.1-.65.26-1.45-.01-1.98-2.67-5.14-1.86-10.71-1.95-16.14-.04-2.42-.72-4.21-2.52-5.87-2.2-2.04-4.34-4.24-6.08-6.67-2.64-3.71-3.35-7.89-1.58-12.9.59.95.87 1.53 1.27 2.01.44.52 1.24 1.44 1.48 1.33 3.31-1.57 4.54 1.28 6.08 2.96 3.66 3.99 8.46 7.09 10.21 12.64.09.28.41.54.69.71 9.39 5.69 13.61 15.5 19.05 24.25 3.71 5.96 6.76 12.35 9.99 18.6.4.78.05 1.94.05 3.79 4.43 3.33 7.9 8.45 8.39 15.28.02.22 0 .49.12.65 2.09 2.93 3.89 6.15 6.39 8.69 3.09 3.14 5.16 6.54 6.25 10.84.63 2.48 2.55 4.62 3.73 6.98s2.1 4.86 3.26 7.23c.84 1.72 2.15 3.25 2.77 5.03.99 2.82 1.54 5.79 2.34 8.67.38 1.38.56 3.08 1.47 4 4.19 4.24 5.45 9.67 6.5 15.16 1.42 7.43 4.11 14.13 9.51 19.65 3.11 3.18 2.78 4.83-1.24 9.09 3.81 2.77 4.03 6.53 3.49 10.94-.3 2.44.98 5.22 2.02 7.64 2.24 5.23 3.23 10.47 2.56 16.24-.48 4.14.44 8.42.47 12.64.05 7.11.35 14.15-2.49 21.08-1.49 3.64-.98 8.08-1.52 12.13-.37 2.74-.98 5.45-1.51 8.17-.17.87-.76 1.78-.61 2.57.94 4.71-1.2 8.74-2.63 12.95-2.59 7.6-4.84 15.33-7.78 22.8-5.7 14.51-15 26.64-26.09 37.43-2.65 2.58-5.69 4.78-8.65 7.04-2.57 1.94-6.88.6-7.53-1.62zm-48.41-220.18c.41-2.22.83-4.45 1.29-6.95-1.12.22-1.92.38-2.68.52-.66-1.24-1.22-2.3-1.83-3.44-1.87 1.02-2.43 2.2-.61 3.52 2.46 1.79 2.84 4 1.83 6.69-.17.45-.02 1.01-.02 1.87.86-.93 1.49-1.62 2.13-2.31.71.94 1.43 1.89 2.64 3.49-1.82 1.7-3.87 3.49-5.75 5.43-.64.67-.82 1.76-1.29 2.61-2.15 3.87-1.69 9.4-7.25 11.15-.89.28-2.01 1.45-2.11 2.31-.42 3.69-3.53 6.56-2.92 10.63.19 1.28-.86 3.17-1.93 4.12-2.45 2.19-5.26 3.98-8.27 6.19.06.39.82 1.97.33 2.88-2.71 5.01-5.58 9.95-8.73 14.7-.95 1.44-2.93 2.25-4.54 3.17-.5.28-1.83-.24-1.93-.02-1.74 4.04-6.22 6.19-7.04 10.95-.78 4.53-2.22 8.88-6.83 11.36-.93.5-1.14 2.35-1.68 3.58.27.11.53.23.8.34.79-1.24 1.59-2.49 2.66-4.16.93 3.66 2.08 6.7-.27 10.12-1.45 2.11-2 4.85-2.96 7.31-.84 2.14-1.7 4.27-2.78 7 .26.3 1.11 1.27 1.53 1.75 3.56-2.85 6.49-5.6 9.81-7.74 3.78-2.44 4.33-2.11 7.49 2.37 1.1-.76 2.05-1.42 3.01-2.08-.44-.49-.88-.99-1.32-1.48-.76.11-1.51.22-3.23.47 1-2.02 1.58-4.49 2.38-4.57 2.76-.26 3.69-2.18 5.04-3.93.54-.7 1.56-1.01 2.34-1.53 1.02-.68 2.33-1.2 2.96-2.15 2.76-4.14 4-4.16 6.83.15.3.45.64.86 1.14 1.52 1.13-.75 2.14-1.43 3.19-2.13-1.99-1.19-3.59-2.14-5.43-3.24 1.25-1.55 2.2-3.82 3.35-3.93 2.86-.27 3.91-2.78 5.83-4.02 3.74-2.42 7.01-5.8 9.9-9.26 5.56-6.63 10.61-13.69 16.13-20.36 1.49-1.8 3.81-2.99 5.9-4.21 1-.58 2.34-.58 3.64-.87-2.32-5.23-2.02-6.17 1.69-9.28.89-.74 1.2-2.21 1.67-3.39.35-.88.26-2.07.83-2.71 3.76-4.27 7.9-8.24 9.61-13.93.15-.48.67-.85 1.14-1.43 1.39 1.8 4.49 2.06 3.54 5.41-1.56 5.48-2.85 11.04-4.41 16.52-.3 1.07-1.34 1.91-1.96 2.91-.74 1.2-1.4 2.45-2.1 3.67 1.37.75 2.8 2.22 4.1 2.11 3.21-.26 4.65 1.37 6.41 3.65 4.91 6.39 7.67 14.52 15.11 18.9.58.34.73 1.36 1.2 1.97 1.69 2.17 3.34 4.38 5.17 6.43 1.48 1.66 3.26 3.05 4.74 4.71.48.54.34 1.6.64 2.36.32.82.64 1.86 1.3 2.28.91.59 2.49.35 3.15 1.06 2.42 2.6 5.72 3.7 8.56 5.55 4.54 2.96 9.57 5.48 11.41 10.93 2.79-.36 4.05-1.74 3.96-4.11-.41-10.92-.79-21.85-1.39-32.77-.2-3.67-3.62-6.79-2.06-10.89.16-.42-.58-1.14-.84-1.75-.91-2.13-1.68-4.33-2.73-6.39-1.07-2.1-2.12-4.35-3.73-6.01-1.58-1.63-2.69-3.07-2.5-5.45.53-6.81-.65-13.22-3.96-19.34-1.32-2.45-1.51-5.5-2.32-8.24-.24-.8-.84-1.51-1.32-2.22-.99-1.48-2.23-2.83-2.99-4.42-4.19-8.74-7.48-18.01-12.54-26.2-8.91-14.44-15.91-29.73-22.74-45.16-.63-1.41-1.5-2.72-2.31-4.05-2.46-4.07-4.92-8.15-7.44-12.19-1.1-1.77-2.34-3.45-3.52-5.18-.49.16-.98.32-1.47.48 0 3.09-.47 6.26.09 9.24 1.35 7.17.19 13.76-3.44 19.98-1 1.71-2.2 3.31-3.58 5.36 1.06.37 2.57.89 4.31 1.5-2.34 7.48-4.67 14.8-6.92 22.14-.83 2.7-1.48 5.46-5.67 5.6 4.4 3.02 1.2 5.78.67 8.59-.67 3.56-2.42 5.55-7.05 4.28 4.87 4.2 4.87 4.2 2.75 9.65-.36.91-.78 1.8-1.2 2.77-.94-.27-1.77-.52-2.61-.76zm59.18 132.23c5.84-3.77 6.35-3.63 9.46 2.04.27.48.98.76 1.54 1.04 1.16.58 2.45.94 3.52 1.65 3.26 2.16 6.43 4.47 9.67 6.66 1.73 1.17 6.96.28 7.43-1.46 1.63-6.02 3.12-12.08 4.34-18.19.48-2.43-.96-4.27-3.03-5.87-5.29-4.09-10.79-8.06-15.37-12.87-6.12-6.43-12.44-12.5-19.73-17.58-1.79-1.25-3.26-3-4.74-4.65-2.83-3.15-5.49-6.46-8.35-9.58-4.07-4.45-8.21-8.83-12.39-13.17-1.75-1.82-3.7-3.46-5.66-5.28-1.16 1.37-2.03 2.38-2.89 3.4-8.38 9.87-16.05 20.35-26.6 28.26-9.82 7.36-19.32 15.16-28.67 23.12-3 2.55-5.45 4.39-9.2 1.97-.13-.09-.42.06-.63.11-3.68 5.49-6.74 6.7-11.58 4.63-4.16 2.57-1.16 7.24-2.75 10.58-1.88-.58-1.42-4.64-3.76-2.97 2.1 4.45 3.85 8.74 6.13 12.72 1.07 1.87 3 3.41 4.85 4.62 1.54 1.01 3.53 1.33 5.32 1.95-1.09-6.51 4.69-7.01 8.41-8.77 3.94-1.86 7.77-4.86 11.78-3.9 3.42-3.16 6.11-6.59 9.61-8.62 4.37-2.54 6.72-6.97 11.27-9.6 5.9-3.4 10.25-9.49 15.25-14.44 2.09-2.06 6.44-1.45 8.81-.27 2.67 1.33 5.63 1.9 7.31 4.72.05.09.46-.1.64-.02.96.41 2.07.68 2.8 1.35 1.8 1.67 3.39 3.56 5.12 5.32 2.78 2.84 5.07 6.17 9.32 7.31 7.18 1.92 9.54 8.61 13.17 13.99.19.29-.21.99-.4 1.8zm-110.78-54.51c-1.07-5.1 2.64-6.68 5.94-8.24-1.02-1.76-1.92-3.31-2.75-4.75-.88 1.77-1.41 3.65-2.58 4.99-2.49 2.85-5.34 5.38-7.95 8.13-.37.39-.5 1.6-.2 1.89.4.4 1.41.53 1.99.32 1.88-.66 3.68-1.53 5.55-2.34zm-7.2 13.45c.9-2.9 4.14-5.04.75-7.52-2.44-1.79-4.52.64-5.15 2.03-1.67 3.72 2.65 3.39 4.4 5.49zm11.69-28.79c6.52-2.27 7.08-3.16 4.78-8.08-1.62 2.73-3.12 5.26-4.78 8.08zm47.32 11.32c5.99-2.07 5.99-2.07 5.96-3.49-1.29-.11-2.53-.21-3.95-.33-.55 1.06-1.2 2.28-2.01 3.82zm-36.69-17.93c-.6.05-1.19.09-1.79.14.18 2 .36 4.01.54 6.01.59-.05 1.18-.09 1.76-.14-.16-2.01-.33-4.01-.51-6.01z" fill="#010000"/></svg>