<svg enable-background="new 0 0 400 400" viewBox="0 0 400 400" xmlns="http://www.w3.org/2000/svg"><g fill="#010100"><path d="m335.73 202.17c.53 5.02.54 5.07-4.5 6.3-10.95 2.68-22.04 3.72-33.28 2.47-1.11-.12-2.28-.22-3.28-.66-12.04-5.23-25.03-5.52-37.73-7.26-8.09-1.11-16.19-2.32-24.32-2.88-11.87-.82-23.68.12-35.29 2.96-2.96.73-4.32 2.21-4.32 5.6.01 7.94-.67 15.88-.75 23.82-.03 2.73 1.02 5.45 1.36 8.21.41 3.29.99 6.64.79 9.92-.46 7.59-1.35 15.15-2.04 22.73-.08.88-.29 1.88.02 2.64 3.49 8.81 2.3 17.9 1.42 26.87-1.76 18.01-3.76 36.01-6.07 53.96-.56 4.33-2.39 8.58-4.15 12.65-1.19 2.76-3.43 4.93-7.01 5.46-8.78-14.68-12.95-30.16-8.53-47.12 1.26-4.85 1.6-9.6 1.38-14.56-.92-20.12-1.99-40.25-2.23-60.38-.09-7.85 1.91-15.73 2.87-23.6.77-6.36 1.22-12.74-1.13-18.9-1.9-4.97-5.76-7.52-10.95-8.08-1.55-.17-3.15-.17-4.69.02-14.66 1.81-29.26-.53-43.88-.41-7.52.06-15.04 1.72-22.55 2.68-9.59 1.22-18.14-1.62-25.88-7.01-1.68-1.17-2.62-3.41-4.03-5.34 4.46-2.89 8.65-4.41 13.42-4.16 3.46.18 6.94.47 10.38.21 2.35-.18 4.64-1.21 6.96-1.85.94-.26 2.05-.97 2.79-.69 10.24 3.86 20.79 1.87 31.25 1.9 11.51.03 23.03.31 34.54.38 1.99.01 4.02-.26 5.97-.7 3.86-.87 6.52-3.22 6.75-7.31.38-6.8 1.19-13.7.46-20.41-1.15-10.58.03-21 .55-31.47.87-17.77 1.76-35.55 3.23-53.28.71-8.49.41-17.29 4.32-25.29.15-.3.21-.66.41-.92 1.11-1.43 2.61-4.17 3.32-3.98 2.09.55 4.71 1.86 5.59 3.63 1.37 2.76 2.05 6.16 2.03 9.27-.19 24.72-.65 49.44-.93 74.16-.04 3.91.14 7.86.68 11.72.84 5.99.31 11.77-1.28 17.57-.36 1.3-.13 2.9.27 4.23 1.62 5.35 3.53 10.61 5.09 15.97.67 2.32 1.71 3.2 4.2 3.09 15.76-.68 31.53-1.05 47.28-1.9 5.9-.32 11.54-.2 17.03 2.2 11.1 4.86 23.1 5 34.84 6.15 10.88 1.07 21.03 3.66 30.34 9.66 2.35 1.51 5.92 1.16 9.28 1.73z"/><path d="m271.24 337.68c0 9.51-.08 19.02.06 28.52.03 2.28-.82 3.92-2.77 4.34-2.99.66-6.11.82-9.18.95-.46.02-1.17-1.19-1.44-1.95-3.08-8.62-6.42-17.18-8.96-25.96-.82-2.83.62-6.27.83-9.44.14-2.05.04-4.14-.15-6.19-.57-5.97-1.46-11.92-1.82-17.9-.42-6.92-.07-13.89-.65-20.79-.92-11.1 2.95-21.39 4.84-32.01.7-3.96 1.67-7.87 2.54-11.79.99-4.5 4.48-5.76 7.92-2.92 4.28 3.53 6.52 7.8 5.41 13.54-2.15 11.11.46 22.03 1.3 33.04 1.25 16.16 2.02 32.35 2.99 48.53-.3.01-.61.02-.92.03z"/><path d="m111.27 240.61c6.7 3.08 9.81 8.73 10.52 15.39.73 6.84.39 13.8.5 20.71.01.67-.23 1.34-.19 2 1.02 17.3-3.05 34-5.95 50.84-2.3 13.34-6.5 25.96-13.19 37.79-1.56 2.75-3.71 3.28-6.06 2.82-1.07-.21-2.23-2.25-2.54-3.64-.69-3.14-1.36-6.41-1.19-9.59.84-15.97 2.09-31.91 2.92-47.88.32-6.17 2.02-11.8 4.44-17.4.94-2.17 1-4.77 1.2-7.2.76-9.48 1.35-18.97 2.13-28.44.49-6.01 3.31-11 7.41-15.4z"/><path d="m256.16 25.54c4.11.37 6.83 2.66 9.07 5.47 5.34 6.71 8.55 13.89 8.02 23.02-1.33 22.89-1.81 45.82-2.76 68.73-.05 1.25-1.01 2.87-2.04 3.6-2.62 1.86-5.52 3.31-8.85 5.24-1.64-5.43-3.27-10.48-4.69-15.59-4.1-14.78-7.67-29.63-7.73-45.13-.04-10.35 3.05-20.05 5.42-29.92 1.22-5.07 2.35-10.18 3.56-15.42zm4.47 35.92c.46.08.92.16 1.39.24.42-2.22 1.09-4.44 1.12-6.67.01-.63-1.81-1.3-3.49-2.4.4 3.61.69 6.22.98 8.83zm4.06 28.37c.18.34.36.69.55 1.03 1.42 0 2.88.18 4.25-.08.65-.12 1.37-1.02 1.6-1.72.18-.53-.18-1.68-.62-1.89-.67-.31-1.76-.32-2.4.04-1.22.69-2.26 1.73-3.38 2.62z"/><path d="m104.13 126c2.07-14.04 4.09-27.85 6.15-41.66 1.34-8.96 2.82-17.89 4.09-26.85.4-2.82 1.86-4.57 4.46-5.04 2.45-.44 5.49 2.13 6.06 4.82.25 1.18.3 2.46.14 3.65-2.61 18.48-5.24 36.96-7.95 55.42-1.13 7.74-2.65 15.43-3.61 23.19-.36 2.94-2.2 3.22-4.12 3.12-1-.05-2.59-1.31-2.8-2.27-1.01-4.76-1.65-9.59-2.42-14.38z"/></g><path d="m6.4 11.7c-1-.8-1.9-1.6-2.9-2.3l.6-.7c.9.7 1.9 1.4 2.9 2.2zm-2.1 8.3c.7-2.1 1.4-4.2 2-6.4.2.1.6.3 1 .4-.7 2.3-1.3 4.4-1.9 6.4zm3-12.8c-1.1-.9-2.1-1.7-2.9-2.4l.6-.7c1 .8 2 1.5 3 2.4zm1.4-1.3v-.9h10.2v.9c-.9 4.2-2.3 7.3-4.1 9.4 1.3 1.4 3.2 2.7 5.7 4-.2.2-.4.5-.7.9-2.5-1.4-4.4-2.7-5.7-4.2-1.4 1.5-3.5 3-6.1 4.4 0 0 0 0-.1-.1-.3-.4-.5-.7-.7-.8 2.7-1.3 4.7-2.8 6.2-4.2-1.8-2.2-3-5.3-3.7-9.4zm9.2 0h-7.1c.6 3.8 1.7 6.7 3.4 8.7 1.7-2 2.9-4.8 3.7-8.7z" fill="#fafbfa"/><path d="m31.6 3.6h.9v2.3h4.1v9.1h1.7v.9h-16.6v-.9h1.7v-9.1h4.1v-2.3h.9v2.3h3.1v-2.3zm-4 13.3.6.8c-1.9.9-3.8 1.9-5.8 2.8-.2-.3-.3-.6-.5-.9 2-.9 3.9-1.8 5.7-2.7zm-3.2-10.1v3.7h3.1v-3.7zm0 4.5v3.7h3.1v-3.7zm4.1-4.5v3.7h3.1v-3.7zm0 4.5v3.7h3.1v-3.7zm9.1 9.1c-2.1-1.1-4.1-2-5.8-2.7l.5-.8c2.2.9 4.1 1.8 5.8 2.6zm-1.9-13.6h-3.1v3.7h3.1zm-3.2 4.5v3.7h3.1v-3.7z" fill="#fafbfa"/></svg>