<svg enable-background="new 0 0 400 400" viewBox="0 0 400 400" xmlns="http://www.w3.org/2000/svg"><g fill="#010100"><path d="m152.83 216.41c4.14-1.16 8.09-2.31 12.07-3.37 2.82-.76 4.37-2.63 4.77-5.42.69-4.92 1.78-9.79-1.26-14.56-.85-1.34-.49-3.99.2-5.67 1.8-4.35 3.12-8.58 1.33-13.26-.25-.65-.17-1.62.13-2.26 5.9-12.35 6.36-25.96 9.13-39.03.32-1.49.5-3 .78-4.7-3.31-.62-6.24-1.4-9.21-1.62-1.1-.08-2.52.92-3.4 1.81-1.96 2.01-3.46 2.19-5.22.04-2.03-2.49-4.62-4.88-3.12-8.58.35-.85 1.32-1.87 2.17-2.04 7.66-1.61 15.32-3.17 23.04-4.45 2.13-.35 4.47.1 6.63.58 6.02 1.35 11.94 1.14 17.9-.29 3.8-.91 7.65-1.68 11.52-2.22 4.94-.7 9.32.85 12.78 4.4 2.76 2.83 2.43 5.04-1.28 6.2-4.64 1.46-9.53 2.11-14.32 3.05-2.51.49-5.05.87-7.58 1.26-2.7.41-3.51 2.16-3.15 4.58.26 1.76.48 3.6 1.17 5.21 2.78 6.55 5.84 12.98 8.59 19.54 1.24 2.95 2.11 6.08 2.91 9.19 1.6 6.25 2.75 12.63 4.65 18.78 1.58 5.13 2.46 10.11 1.57 15.48-.4 2.42.1 5.03.45 7.51.26 1.87.72 3.77 1.46 5.5 2.75 6.46 2.75 12.66-1.14 18.71-.57.89-.83 2.12-.84 3.19-.11 12.86-5.19 24.64-7.97 36.92-.12.53-.28 1.29-.65 1.48-4.04 2.1-3.28 6.17-4.19 9.62-.73 2.72-1.93 5.33-3.07 7.93-.49 1.11-1.47 1.98-2.03 3.07-1.86 3.6-1.35 4.51 2.07 6.47 5.15 2.96 10.32 4.43 16.26 2.49 1.48-.49 3.61.06 5.12.79 2.34 1.13 3.32 2.84 2.65 5.96-1.86 8.68-5.39 16.37-10.7 23.52-6.72 9.07-12.93 18.52-19.16 27.94-2.14 3.23-3.56 6.93-5.5 10.31-.81 1.42-1.91 2.86-3.24 3.74-2.16 1.43-4.27 1.45-5.97-1.18-4.26-6.59-7.98-13.31-9.84-21.11-.83-3.47-3.45-6.7-5.81-9.58-2.99-3.63-4.71-7.53-4.56-12.19.17-5.07-2.4-9.01-5.39-12.62-4.11-4.95-2.64-10.83-3.2-16.36-.05-.51.76-1.28 1.35-1.64 4-2.42 9.74-1.49 12.94 2.01.22.24.54.38.92.64 4.17-2.57 8.8-2.81 13.57-2.5 2 .13 4.1.27 5.99-.21 1.2-.3 2.44-1.59 3-2.75.28-.59-.7-2.12-1.47-2.83-3.85-3.53-6.3-7.82-7.35-12.89-1.53-7.36-3.19-14.63-8.35-20.54-.6-.69-.68-2.12-.53-3.14.65-4.45.09-8.63-2.08-12.62-.45-.83-.96-2.16-.61-2.82 1.75-3.3-.56-5.31-1.91-7.83-3.38-6.32-8.54-9.22-15.57-9.87-5.24-.46-6.9-2.57-7.45-7.77zm58.71-32.59c.29-5.38.27-10.5-3.39-15.2-5.11-6.56-8.93-13.85-9.88-22.35-.12-1.08-.46-2.29-1.11-3.13-1.2-1.55-2.54-3.08-4.1-4.23-1.75-1.3-3.17-.87-4 1.44-1.09 3.05-1.46 6.52-4.88 8.4-.6.33-.15 2.49-.26 3.79-.25 3.07-.37 6.16-.89 9.19-.45 2.63-1.6 5.14-2.01 7.76-.27 1.74-.4 3.98.46 5.33 3.46 5.41 3.81 10.96 1.88 16.88-.38 1.16-.67 2.41-.65 3.61.02 1.49 0 3.22.71 4.42 2.37 4.02 4.19 8.09 3.92 12.91-.04.73.86 2.17 1.34 2.18 5.55.09 11.19.5 16.64-.28 4.55-.65 7.52-3.77 8.14-8.87.5-4.17 2.95-8.37-1.47-11.95-.5-.41-.41-1.67-.43-2.54-.06-2.44-.02-4.9-.02-7.36zm11.26 132.6c-3.27-5.6-3.27-5.48-8.94-5.69-2.3-.08-4.58-.8-6.86-1.24-2.83-.55-5.63-1.46-8.48-1.61-7.59-.4-15.2-.3-22.78-.75-3.35-.2-4.16 1.37-4.03 4.09.06 1.19.34 2.42.8 3.52 1.97 4.72 4.18 9.33 6.05 14.09 2.93 7.48 5.38 15.17 10.84 21.39 1.26 1.44 2.36 1.68 4.04 1.06 6.22-2.3 11.32-6.07 14.24-12.06 4.02-8.28 8.28-16.34 15.12-22.8zm-9.97-79.81c.23-.19.46-.38.69-.56-1.5-2.2-2.57-4.97-4.59-6.48-3.44-2.57-7.4-4.5-11.28-6.39-3.41-1.66-6.66.19-7.78 3.89-1.31 4.36-1.86 8.62.19 12.97.9 1.89 1.24 4.04 1.88 6.06 2.27 7.22 4.43 14.48 6.88 21.65 1.02 2.97 3.33 3.19 5.04.51 1.24-1.92 2.19-4.14 2.76-6.35 1.96-7.54 3.69-15.14 5.51-22.72.22-.87.47-1.73.7-2.58z"/><path d="m261.65 136.42c1.64 1.2 3.79 2.07 4.81 3.66 3.2 5.01 5.37 10.62 3.22 16.52-5.45 14.95-6.61 30.58-7.35 46.19-.25 5.34 1.91 10.89 3.49 16.19.81 2.7 3.13 4.58 6.38 4.82 3.02-5.91 2.05-13.24 7.13-18.46 4.59-4.71 8.62-9.96 12.89-14.97.39.04.77.09 1.16.13 0 2.11.56 4.41-.09 6.28-3.19 9.15-3.13 18.73-3.8 28.17-.47 6.69-3.29 12.49-5.49 18.53-1.04 2.86-.88 4.78 1.31 7.06 5.7 5.96 11.21 12.11 16.6 18.36 1.71 1.99 2.8 4.51 4.14 6.74-3.04 3.58-6.25 2.25-9.33.83-3-1.38-5.75-3.42-8.85-4.46-3.63-1.22-7.23 1.28-8.21 5.11-.44 1.73-.84 3.49-1.03 5.26-.6 5.76-2.6 11.01-5.17 16.16-.9 1.8-1.28 4.3-.84 6.25.89 3.97.65 7.66-.54 11.51-1.08 3.48-2.22 7.14.91 10.37.4.42.66 1.36.48 1.89-.54 1.65-1.03 4.33-2.06 4.59-2.76.71-2.01-2.2-2.47-3.67-.7-2.23-.9-4.63-1.7-6.82-.54-1.46-1.48-3.13-2.73-3.89-2.36-1.44-3.16-3.38-3.09-5.87.38-13.76.52-27.54 1.39-41.27.23-3.62 1.54-6.87-.85-10.31-.64-.92-.1-3.2.63-4.42 2.82-4.67 2.63-9.41.69-14.17-1.77-4.34-3.64-8.67-5.83-12.81-4.2-7.97-5.41-16.37-5.02-25.29.27-6.22-.39-12.48-.57-18.72-.04-1.41-.37-3.28.36-4.18 3.47-4.28 2.69-9.04 1.89-13.73-.54-3.14-.2-5.92 1.3-8.7 1.06-1.96 1.82-4.08 2.72-6.13 2.22-5.08 5.36-9.98 2.4-16.02.36-.23.74-.48 1.12-.73zm8.96 93.21c-1.11 1.7-1.87 2.85-2.63 4 1.82.32 3.64.63 5.46.95.09-.35.19-.69.28-1.04-.81-1.01-1.62-2.03-3.11-3.91z"/><path d="m96.38 274.94c-.45-3.49-.63-6.44 1.92-9 1.49-1.5 2.63-3.33 3.93-5.02 5.86-7.58 5.91-12.14 0-19.81-2.59-3.37-5.43-6.54-8.08-9.87-.58-.73-1.33-1.84-1.15-2.58.92-3.92-1.2-6.86-2.71-10.09-1.44-3.06-2.47-6.32-3.67-9.5.33-.29.67-.58 1-.88 1.24.68 2.65 1.17 3.7 2.07 4.87 4.12 9.9 8.1 14.34 12.65 2.58 2.64 4.09 6.3 6.21 9.41 1.44 2.13 3.1 4.11 5.1 6.74 2.53-3.4 4.44-5.96 6.34-8.52 3.53-4.76 7.15-9.46 10.51-14.34.84-1.22 1.31-3.07 1.16-4.54-.79-7.56-1.86-15.09-2.78-22.64-.15-1.21-.29-2.52.01-3.66 1.62-6.13 3.38-12.22 5.16-18.56 2.9.93 5.59 3.14 5.27 6.4-1.19 12.37 2.9 23.85 5.24 35.64.78 3.95.14 7.52-1.81 11.24-5.17 9.83-10.5 19.44-18.33 27.5-4.7 4.84-5.82 10.7-4.12 17.39 2.19 8.64 4.7 17.26 4.08 26.39-.13 1.96.97 4.09 1.77 6.02 1.65 4 1.52 7.8-.57 11.6-1.81 3.3-2.13 6.83-1.03 10.4 1.88 6.1 1.18 11.81-1.66 17.53-1.39 2.81-1.82 6.09-2.84 9.69-3.6 2-5.25-.33-5.14-5.98.08-4.01.66-8.04.33-12.01-1.34-16.16-2.63-32.34-4.59-48.43-1.19-9.74-2.63-11.57-12.13-7.32-1.69.76-3.47 1.33-5.46 2.08z"/><path d="m164.75 108.12c.38-2.98.39-5.62 1.11-8.05.99-3.34 2.31-6.51.7-10.03-.32-.69-.1-1.78.19-2.56 4.54-12.25 8.47-24.82 15.94-35.69 2.37-3.44 4.89-5.92 5.13-10.84.26-5.32 3.36-10.51 5.53-16.62 1.91 1.7 4.27 2.78 4.74 4.4 3.04 10.56 10.54 18.59 15.51 28.05 5.91 11.26 12.44 22.19 18.81 33.21 2.73 4.72 4.19 9.63 3.1 15.06-.19.97-.95 1.83-1.44 2.73-.85-.51-1.95-.83-2.51-1.56-9.15-11.87-18.32-23.74-27.27-35.76-1.9-2.55-2.78-5.85-4.53-8.54-.93-1.43-2.57-2.68-4.16-3.27-.8-.3-2.8.77-3.26 1.71-5.46 11.13-10.79 22.33-16.03 33.57-1.31 2.82-2.05 5.89-3.27 8.76-1.32 3.09-3.64 5.04-8.29 5.43z"/></g><path d="m6.4 11.7c-1-.8-1.9-1.6-2.9-2.3l.6-.7c.9.7 1.9 1.4 2.9 2.2zm-2.1 8.3c.7-2.1 1.4-4.2 2-6.4.2.1.6.3 1 .4-.7 2.3-1.3 4.4-1.9 6.4zm3-12.8c-1.1-.9-2.1-1.7-2.9-2.4l.6-.7c1 .8 2 1.5 3 2.4zm1.4-1.3v-.9h10.2v.9c-.9 4.2-2.3 7.3-4.1 9.4 1.3 1.4 3.2 2.7 5.7 4-.2.2-.4.5-.7.9-2.5-1.4-4.4-2.7-5.7-4.2-1.4 1.5-3.5 3-6.1 4.4 0 0 0 0-.1-.1-.3-.4-.5-.7-.7-.8 2.7-1.3 4.7-2.8 6.2-4.2-1.8-2.2-3-5.3-3.7-9.4zm9.2 0h-7.1c.6 3.8 1.7 6.7 3.4 8.7 1.7-2 2.9-4.8 3.7-8.7z" fill="#fafbfa"/><path d="m31.6 3.6h.9v2.3h4.1v9.1h1.7v.9h-16.6v-.9h1.7v-9.1h4.1v-2.3h.9v2.3h3.1v-2.3zm-4 13.3.6.8c-1.9.9-3.8 1.9-5.8 2.8-.2-.3-.3-.6-.5-.9 2-.9 3.9-1.8 5.7-2.7zm-3.2-10.1v3.7h3.1v-3.7zm0 4.5v3.7h3.1v-3.7zm4.1-4.5v3.7h3.1v-3.7zm0 4.5v3.7h3.1v-3.7zm9.1 9.1c-2.1-1.1-4.1-2-5.8-2.7l.5-.8c2.2.9 4.1 1.8 5.8 2.6zm-1.9-13.6h-3.1v3.7h3.1zm-3.2 4.5v3.7h3.1v-3.7z" fill="#fafbfa"/></svg>