<svg enable-background="new 0 0 400 400" viewBox="0 0 400 400" xmlns="http://www.w3.org/2000/svg"><path d="m111.25 315.47c-4.29-6.38-6.53-12.84-6.79-20.15-.35-9.93-1.25-19.84-1.85-29.77-.11-1.87-.54-4.07.23-5.58 6.07-11.95 4.4-24.53 3.51-37.11-1.58-22.55-3-45.1-4.49-67.66-1.71-26.01-3.43-52.03-5.13-78.04-.39-6-.73-12.01-1.11-18.34 9.99 6.6 19.94 12.54 29.16 19.45 9.55 7.15 12.39 22.33 6.63 32.53-1.57 2.78-2.62 5.93-3.48 9.03-1.53 5.49-1.67 10.78 1.31 16.17 4.76 8.6 8.97 17.5 13.2 26.38.72 1.51.86 3.69.4 5.31-3.03 10.64-6.36 21.19-9.41 31.82-.4 1.4-.11 3.25.47 4.63.98 2.36 2.33 4.59 3.73 6.74 1.89 2.92 2.38 5.8 2.16 9.4-.17 2.79 1.68 6.24 3.65 8.51 4.01 4.63 3.25 9.66 1.59 14.37-4.1 11.63-9.55 22.65-17.55 32.2-5.67 6.77-7.33 14.94-8.11 23.37-.6 6.53-3.25 11.92-8.12 16.74zm11.85-66.65c2.86-1.56 5.69-3.05 8.45-4.67.59-.34 1.16-1.1 1.3-1.76 1-4.78 2.13-9.56 2.64-14.4.16-1.47-1.13-3.96-2.42-4.55-2.87-1.33-6.16-1.77-9.97-2.74zm-1.68-91.37c-.47 9.44-.94 18.88-1.41 28.42 3.72-.46 6.22-1.84 7.1-5.64.88-3.79 2.31-7.45 3.32-11.22 1.98-7.39-1.02-11.29-9.01-11.56zm3.11-52.1c-1.98-3.56-3.75-6.75-5.61-10.1-3.45 1.56-6.63 3-10.1 4.56 2.84 3.56 5.39 6.76 8.05 10.09 2.61-1.54 4.98-2.95 7.66-4.55z" fill="#010100"/><path d="m245.42 80.62c6.68-4.8 10.57-10.47 10.29-18.38-.13-3.51 1.03-6.5 3.1-9.32 4.86-6.64 8.37-13.98 10.99-21.77.6-1.79 1.35-3.53 2.1-5.47 6.33 1.01 10.63 4.57 12.62 10.29 2.01 5.78 3.39 11.8 4.69 17.8 1.54 7.07 3.84 13.75 8.02 19.71 2.1 2.99 2.8 6.37 2.19 9.9-.2 1.15-1.08 2.55-2.06 3.11-1.5.86-3.19.77-4.18-1.25-2.3-4.71-4.8-9.32-7.01-14.07-1.87-4.02-4.39-7.19-8.7-8.78-2.05-.76-3.47-.56-4.99 1.16-7.88 8.99-14.55 18.63-15.02 31.05-.21 5.54.43 11.18 1.32 16.68.87 5.38.25 10.29-1.72 15.34-1.27 3.25-2.02 6.87-2.17 10.36-.18 4.35 3.07 6.46 7.34 5.42.54-.13 1.12-.59 1.58-.48 1.94.46 4.25.58 5.67 1.74 2.01 1.65 1.76 4.2.38 6.43-2.58 4.15-5.66 8.08-7.7 12.48-3.51 7.58-6.78 15.32-9.34 23.25-1.26 3.91-1.01 8.41-.92 12.63.1 4.31 2.98 5.59 6.63 3.24 1.59-1.03 3.01-2.34 4.59-3.38 2.23-1.47 4.61-2.22 7.75-.51-3.9 7.03-3.72 16.14-12.01 20.75-2.23 1.24-4.12 3.07-6.16 4.63-3.51 2.67-7.53 3.27-11.76 2.66-.79-.12-1.8-.83-2.16-1.55-7.21-14.25-14.43-28.5-21.46-42.84-4.91-10.03-7.67-20.67-8.27-31.86 2.27-1 3.82-.37 4.83 1.63 2.54 5.07 5.44 10 7.47 15.27 2.35 6.12 5.98 10.58 12.36 12.92 3.65-5.84 6.11-11.69 3.71-18.69-1.92-5.61-1.21-11.24.55-16.81 3.61-11.43 5.97-23.02 2.9-34.95-.96-3.73-2.66-7.31-4.33-10.81-2.45-5.14-4.91-10.32-7.88-15.16-2.05-3.34-4.61-6.61-7.64-9.03-3.08-2.45-4.98-1.65-7.08 1.69-1.37 2.17-2.93 4.35-3.68 6.75-1.81 5.85-5.57 9.54-11.24 11.49-3.83-5.18-4.24-12.17.04-18.1 5.24-7.26 6.08-15.17 5.32-23.61-.13-1.45-.29-2.92-.16-4.35.67-7.88 4.43-11.59 13.42-13.37 7.89 16.21 13.73 33.71 27.78 46.16z" fill="#010100"/><path d="m265.19 326.74c-3.81-8.54-4.93-17.25-5.44-26.09-.44-7.58-.51-15.21-1.43-22.73-.73-5.99-3.37-11.31-9.1-15.07-8.24 9.07-16.62 17.91-24.53 27.15-5.74 6.7-10.78 13.99-16.25 20.92-5.44 6.9-7.4 14.93-7.81 23.45-.35 7.26-.13 14.55-.71 21.79-.67 8.33-5.09 14.55-12.24 19.21-3.77-6.74-3.85-13.61-2.34-20.64.85-3.93 1.66-7.88 2.8-11.73 1.52-5.14 1.58-10.12.67-15.48-.88-5.18-.93-10.73-.12-15.93 1.8-11.56.81-23.02-.44-34.45-.74-6.73.06-13.03 1.81-19.48 1.34-4.91 1.78-10.08 2.61-15.13.22-1.32.28-2.68.63-3.97 1.71-6.4 2.76-7.18 9.35-7.18 13.99 0 27.98-.04 41.97.05 1.59.01 3.52.28 4.72 1.18 6.66 5.02 14.11 4.88 21.77 3.83 1.22-.17 2.44-.37 3.66-.45 7-.41 10.75 4.41 8.65 11.24-.29.95-1.19 1.84-2.01 2.49-5.45 4.34-8.08 9.37-7.17 16.86 1.78 14.68 2.24 29.47-.34 44.16-1.07 6.07-3.65 11.44-8.71 16zm-58.47-42.5c5.06-4.16 9.27-7.98 13.85-11.3 5.8-4.2 7.91-10.35 9.44-16.77 1.1-4.61-.65-6.66-5.12-8.17-6.47-2.18-11.71 1.15-17.21 3.4-.49.2-.92 1.2-.93 1.84-.04 10.02-.03 20.04-.03 31z" fill="#010100"/><path d="m265.18 330.92c4.59 3.88 5.6 7.22 4.42 13.98-1.66 0-3.35 0-5.37 0 .31-4.66.62-9.1.95-13.98z" fill="#010100"/><g fill="#fcfafa"><path d="m342.2 3.2-6.3 9.2h6.1v1.2h-8.2v-.5l6.2-9.1h-5.7v-1.2h7.8v.4z"/><path d="m344 13.7v-10.9h3.1c1.6 0 3 .5 4.1 1.4 1.1 1 1.6 2.2 1.6 3.9s-.5 3-1.6 4-2.5 1.5-4.2 1.5h-3zm1.4-9.6v8.4h1.6c1.4 0 2.5-.4 3.2-1.1.8-.8 1.2-1.8 1.2-3.2s-.4-2.4-1.2-3.1-1.8-1-3.1-1z"/><path d="m356.3 2.8v10.9h-1.4v-10.9z"/><path d="m366.6 13.2c-.8.4-1.8.6-3 .6-1.6 0-2.8-.5-3.7-1.5s-1.4-2.3-1.4-3.9c0-1.7.5-3.2 1.6-4.2s2.4-1.6 4-1.6c1 0 1.9.1 2.6.4v1.5c-.8-.4-1.6-.6-2.6-.6-1.2 0-2.2.4-3 1.2s-1.1 1.9-1.1 3.3c0 1.3.4 2.3 1.1 3.1s1.6 1.1 2.8 1.1c1.1 0 2-.2 2.8-.7v1.3z"/><path d="m368.2 13c0-.3.1-.5.3-.6.2-.2.4-.3.6-.3.3 0 .5.1.7.3s.3.4.3.6-.1.5-.3.6c-.2.2-.4.3-.7.3s-.5-.1-.6-.3c-.2-.2-.3-.4-.3-.6z"/><path d="m381.1 13.7h-1.7l-5.5-8.4c-.2-.2-.3-.5-.4-.7 0 .2.1.8.1 1.5v7.6h-1.4v-10.9h1.8l5.3 8.3c.3.4.4.6.4.8 0-.3-.1-.8-.1-1.6v-7.5h1.4v10.9z"/><path d="m389.7 13.7h-5.8v-10.9h5.6v1.2h-4.2v3.5h3.9v1.2h-3.9v3.7h4.4z"/><path d="m398.4 4.1h-3.1v9.6h-1.4v-9.6h-3.1v-1.3h7.7v1.3z"/></g></svg>