<svg enable-background="new 0 0 400 400" viewBox="0 0 400 400" xmlns="http://www.w3.org/2000/svg"><path d="m374.8 390.4.4-.4c.7.5 1.3 1 1.8 1.4l-.5.5c-.5-.6-1.1-1.1-1.7-1.5zm1 7.3-.6-.3c.5-1.4 1.1-2.8 1.5-4.3.2.1.4.2.6.3-.5 1.3-1 2.8-1.5 4.3zm-.4-10.3.4-.4c.4.3 1 .8 1.7 1.4l-.5.5c-.4-.5-1-1-1.6-1.5zm2.5.3h1.7v-1h.6v1h3.5v-1h.6v1h1.8v.5h-1.8v1.4h-2v1h3.2v2h-3.2v.9h3.3v.5h-3.4c0 .3-.1.6-.1.9h4v.5h-3.7c.7.9 1.9 1.5 3.8 1.7-.1.2-.2.4-.3.6-2.1-.4-3.5-1.1-4-2.1-.4 1-1.8 1.7-4 2.2-.1-.2-.2-.4-.3-.6 2.1-.4 3.4-1 3.8-1.8h-3.4v-.5h3.6c.1-.3.1-.6.2-.9h-3.3v-.5h3.4c0-.3 0-.6 0-.9h-3.2v-2h3.3v-1h-2.1v-1.4h-1.7v-.5zm1.1 3.5v1h2.7c0-.3 0-.4 0-.4 0-.1 0-.2 0-.2 0-.1 0-.2 0-.3h-2.7zm1.2-3v.9h3.5v-.9zm4.7 3h-2.6v.6.4h2.6z" fill="#fbfcfa"/><path d="m393.6 386.7h.6v1.5h2.7v6.1h1.1v.6h-11v-.6h1.1v-6.1h2.7v-1.5h.6v1.5h2.1v-1.5zm-2.7 8.8.4.6c-1.2.6-2.5 1.3-3.8 1.9-.1-.2-.2-.4-.3-.6 1.2-.6 2.5-1.2 3.7-1.9zm-2.2-6.7v2.4h2.1v-2.4zm0 3v2.5h2.1v-2.5zm2.8-3v2.4h2.1v-2.4zm0 3v2.5h2.1v-2.5zm6 6.1c-1.4-.7-2.7-1.3-3.9-1.8l.3-.6c1.5.6 2.7 1.2 3.9 1.7zm-1.2-9.1h-2.1v2.4h2.1zm-2.1 3v2.5h2.1v-2.5z" fill="#fbfcfa"/><g fill="#010101"><path d="m214.07 333.17c-.27-2.34-.64-4.06-.65-5.78-.15-18.17 1.79-36.18 4.53-54.11.15-.96.37-2.08.96-2.79 3.05-3.67 2.64-7.64 1.99-12.04-.66-4.43-1.07-9.3.07-13.53 3.93-14.51 4.4-29.09 2.99-43.92-1.27-13.36-2.29-26.75-3.24-40.13-.18-2.49-.84-3.94-3.39-4.45-6.12-1.22-12.21-2.64-18.34-3.8-6.64-1.26-9.7-5.67-8.31-12.45 13.05-1.84 26.17-2.8 39.33-1.19 1.88.23 3.49 2.19 5.36 3.08 1.8.85 3.78 1.9 5.67 1.89 9.61-.07 19.23-.48 28.84-.7 1.31-.03 2.7.17 3.92.63 8.3 3.13 16.85 5.08 25.65 6.17 2.91.36 5.97 1.35 8.43 2.9 1.92 1.2 3.03 3.71 4.5 5.63-.27.4-.54.79-.81 1.19-7.54-.71-15.06-1.51-22.61-2.1-5.79-.45-11.6-.77-17.4-.88-8.44-.16-14.21 4.34-16.98 11.83-5.46 14.77-10.27 29.78-15.33 44.69-.21.61-.36 1.38-.17 1.95 1.38 4.11-.09 7.83-1.18 11.72-2.86 10.2-5.79 20.41-7.94 30.77-1.03 4.95-.24 10.25-.46 15.39-.64 14.52-1.04 29.08-4.74 43.26-1.36 5.23-3.45 10.17-7.42 14.06-.85.84-1.84 1.53-3.27 2.71zm21.6-157.73c5.78-4.72 8-10.32 6.71-17.32-.55-3-2.22-4.8-5.1-5.47-3.45-.81-5.76 1.37-5.11 4.79 1.11 5.91 2.29 11.79 3.5 18z"/><path d="m96.58 130.59c2.57 5.17 3.2 10.35 3.24 15.61.06 8.05-.11 16.1.04 24.14.04 2.14.89 4.27 1.62 7.53 4.06-2.38 7.85-3.89 10.73-6.42 9.21-8.12 17.38-17.28 22.05-28.78 3.82-9.39 6.66-19.19 9.94-28.8.5-1.47 1.02-2.93 1.54-4.43 4.35 3.5 4.81 4.24 2.88 8.94-2.67 6.46-1.52 13.24-2.19 19.86-.33 3.22-.33 6.48-.26 9.72.09 4.01-.45 7.7-2.99 11.05-.68.9-.75 2.82-.29 3.93 1.17 2.84.76 5.17-.64 7.86-5.51 10.61-10.7 21.37-16.16 32.01-1.09 2.13-2.61 4.16-4.33 5.81-5.65 5.42-11.15 11.08-17.34 15.82-6.17 4.73-7.91 11.02-8.57 18.03-.31 3.33-.22 6.7-.38 10.05-.21 4.47-1.97 6.62-6.4 7.13-1.67.19-4.8-.29-4.95-.98-.49-2.22-1.75-4.72 1-6.98 4.34-3.56 5.19-6.84 2.9-10.84-5.77-10.04-6.56-20.69-4.64-31.8 1.58-9.13 3.42-18.23 4.5-27.42.61-5.15-.21-10.46-.17-15.7.06-10.16.23-20.32.49-30.47.02-.81 1-1.92 1.82-2.32 1.96-.98 4.11-1.63 6.56-2.55zm30.6 40.62c-.27.13-.61.22-.84.42-8.39 7.23-16.81 14.42-25.14 21.71-3.66 3.2-3.69 11.69-.1 15.54 8.73-9.76 17.46-19.5 26.17-29.26 3.6-4.03 3.57-4.05-.09-8.41z"/><path d="m246.61 111.08c-7.53-1.54-15.14-2.79-22.54-4.8-2.27-.61-3.92-3.38-5.93-5.05-3.48-2.89-4.78-6.55-4.06-10.95.38-2.31-.65-3.62-2.63-4.76-4.25-2.44-4.66-3.14-3.23-8.09 1.54-5.35 3.51-10.58 5.49-15.8 2.21-5.85 4.43-11.71 7.04-17.38 2.28-4.94 4.81-9.81 7.8-14.34 2.11-3.19 5.74-4.78 9.65-4.34 13.55 1.5 27.09 3.16 40.61 4.88 1.06.13 2.27.98 2.96 1.85 5.92 7.41 8.35 16.17 9.45 25.38.13 1.12-.44 2.39-.87 3.52-2.56 6.67-5.36 13.26-7.72 20-1.52 4.34-3.74 8.06-7.08 11.16-4.92 4.55-9.7 9.25-14.76 13.64-3.97 3.41-8.76 4.85-14.18 5.08zm1.72-19.2c2.59-1.28 5.61-2.08 7.66-3.95 3.95-3.59 7.33-7.82 11.01-11.72 1.91-2.02 2.94-4.23 3.1-7.11.23-4.23.97-8.43 1.51-12.64.87-6.82-1.85-12.05-8.39-13.76-6.86-1.8-13.99-2.57-21.03-3.65-.93-.14-2.41.26-2.94.94-6.7 8.82-14.76 16.86-15.55 28.96-.3 4.55 4.49 16 8.78 17.77 4.91 2.04 10.12 3.34 15.85 5.16z"/><path d="m95.64 25.48c4.55 1.67 6.74 4.95 7.42 9.05.56 3.37.42 6.88.43 10.33.01 2.9-.43 5.81-.25 8.7.31 5.12 3.45 7.31 7.95 5.04 7.12-3.59 13.84-7.87 15.99-16.46.57-2.27 1.21-4.53 2-6.73 1.46-4.09 3.91-5.95 8.84-6.62.15 3.1.65 6.2.38 9.23-1.27 14.23-2.68 28.45-4.24 42.65-.17 1.56-1.34 3.3-2.55 4.42-7.44 6.94-15.07 13.68-22.51 20.61-1.71 1.59-3.38 2.28-5.68 1.98-2.1-.28-4.24-.19-6.36-.33-3.99-.27-4.88-1.14-5.36-5.17-.08-.66-.2-1.38-.04-2 1.51-5.81.04-11.17-1.85-16.66-.77-2.25-.18-5.05.09-7.56 1.74-16.22 3.55-32.43 5.35-48.65.05-.45.18-.87.39-1.83zm10.2 65.67c3.83-3.73 7.75-7.35 11.43-11.21 1.49-1.57 2.76-3.51 3.6-5.5 1.88-4.43.39-6.54-4.46-6.55-.99 0-2.15.5-2.95 1.12-2.38 1.85-4.61 3.88-6.92 5.82-4.38 3.69-4.83 11.58-.7 16.32z"/><path d="m134.6 229.08c3.6 2.75 5.18 6.3 4.94 10.17-.4 6.55-1.29 13.09-2.33 19.57-.25 1.55-1.7 3.12-2.98 4.26-11.24 10.08-22.62 20.02-33.81 30.16-1.61 1.46-2.91 3.64-3.55 5.74-1.7 5.55-2.88 11.25-4.41 16.85-2.4 8.76-.28 17.31 1.08 25.88 1.03 6.53.05 12.26-5.45 16.56-.5.39-1.1.64-2 1.14-.54-4.5-1-8.67-1.57-12.83-.61-4.43-1.03-8.91-2.1-13.23-1.42-5.71-.67-11.25.04-16.92.74-5.86 1.25-11.77 1.4-17.67.23-8.83.06-17.68.06-26.52 0-4.52 1.14-6.13 5.51-7.34 1.38-.38 2.89-.55 4.31-.42 10.35.9 17.86-4.13 23.83-11.79 5.08-6.52 9.67-13.42 14.49-20.15.77-1.1 1.58-2.16 2.54-3.46zm-25.76 50.15c-1.01-2.66-1.17-5.15-4.4-6.03-3.44-.94-5.69.78-6.86 3.17-.89 1.81-.18 4.41-.18 7.13 4.18-1.57 7.58-2.83 11.44-4.27z"/><path d="m91.26 120.93c-.29-2.13-.58-4.27-.89-6.61 2.61.18 4.63.65 4.63 3.46-.01 2.21-1.1 3.52-3.74 3.15z"/><path d="m236.54 56.53c4.65-1.84 8.62-3.58 12.71-4.99 4.05-1.39 14.54 2.31 17.1 5.79 2.05 2.78 1.83 4.36-.87 6.4-6.2 4.69-18.55 5.1-24.62.25-1.97-1.58-2.75-4.64-4.32-7.45z"/></g></svg>