<svg enable-background="new 0 0 400 400" viewBox="0 0 400 400" xmlns="http://www.w3.org/2000/svg"><path d="m6.8 9.5c.6.3 1.3.7 2.1 1.1-.4.4-.7.8-.9 1.2-.7-.4-1.3-.8-1.8-1.1s-1.1-.6-1.6-.8c.2-.4.5-.8.7-1.2.4.2.8.5 1.5.8zm.9 6.9c-.3.6-.5 1.1-.7 1.7s-.4 1.1-.6 1.7c-.6-.4-1.1-.7-1.6-1 .7-1 1.2-1.8 1.5-2.4.3-.5.6-1.1.8-1.7.3-.6.5-1.2.8-1.8.3.3.8.6 1.3.8-.7 1.3-1.2 2.2-1.5 2.7zm.1-11c.4.3 1 .7 1.7 1.1-.5.2-.8.6-1.1 1.1-.5-.6-1-1-1.4-1.2s-.9-.6-1.5-.8c.2-.4.5-.7.9-1.1.5.3.9.6 1.4.9zm10.5 13.1c1 .4 2 .6 3.1.7-.4.4-.7.8-.8 1.3-.9-.2-1.9-.6-3-.9-1-.4-2-.9-2.8-1.6-.5.4-1.1.9-1.9 1.3s-1.9.9-3.3 1.2c-.1-.3-.5-.8-1.1-1.3 1 0 2.1-.3 3.2-.8 1.2-.5 1.9-1 2.3-1.7h-3.2c-.4 0-1 0-2 .1v-1.2c1 0 1.7.1 2 .1h3.3v-1h-2.3c-.2 0-.9 0-2 .1v-1.2c1.2 0 1.9.1 2 .1h2.3v-.8h-4.1c0-.7.1-1.2.1-1.6 0-.5 0-1.1-.1-1.8h4.1v-.7h-2.5c0-.6.1-1.1.1-1.6v-.6h-.5c-.4 0-1 0-1.8.1v-1.3c1.2 0 1.9.1 2.1.1h.2c0-.3 0-.8-.1-1.4h1.4c0 .6-.1 1-.1 1.4h3.4c0-.4 0-.8-.1-1.3h1.5c0 .4-.1.9-.1 1.3.7 0 1.5 0 2.5-.1v1.2c-1 0-1.8-.1-2.5-.1v.6c0 .3 0 .8.1 1.5h-2.5v.8h4.1c0 .7-.1 1.3-.1 1.8s0 1 .1 1.5h-4.1v.8h1.4c.8 0 1.8 0 2.9-.1v1.2c-1 0-1.9-.1-2.8-.1h-1.5v1h3.2c.3 0 1 0 2.1-.1v1.2c-1.1 0-1.8-.1-2.1-.1h-3.4l-.1.1c1.4 1 2.4 1.5 3.4 1.9zm-4.1-6.7v-1.3h-2.7v1.3zm2.2-4.1v-1.1h-3.4v1.1zm1.9 4.1v-1.3h-2.8v1.3z" fill="#fafbfa"/><path d="m37 6.7v2.3 5.4c1 0 1.8 0 2.2-.1v1.3c-.6 0-1.5-.1-2.5-.1h-11.9c-.7 0-1.3 0-1.8.1v-1.3c.5 0 1.1.1 2 .1v-5.2c0-1 0-1.8-.1-2.5h3.7c0-1.3 0-2.1-.1-2.5h1.5c0 .4-.1 1.3-.1 2.5h2.2c0-1.2 0-2.1-.1-2.6h1.5c0 .4-.1 1.3-.1 2.6zm-12.3 13.7c-.3-.4-.7-.8-1.1-1.1 1.1-.4 2.1-.9 2.9-1.3.8-.5 1.5-1 2.1-1.6.4.4.9.8 1.3 1.1-2.5 1.4-4.2 2.4-5.2 2.9zm3.9-10.1v-2.4h-2.2v2.4zm0 4.1v-2.9h-2.2v2.9zm3.5-4.1v-2.4h-2.2v2.4zm0 4.1v-2.9h-2.2v2.9zm.4 2.9 1-1.1c.6.3 1.4.7 2.5 1.3s2 1.1 2.7 1.5c-.4.4-.8.8-1.1 1.3-.8-.8-2.5-1.7-5.1-3zm3.1-7v-2.4h-2.1v2.4zm0 4.1v-2.9h-2.1v2.9z" fill="#fafbfa"/><g fill="#010103"><path d="m49.47 93.16c-.05-.58-.19-1.13-.13-1.65 1.07-8.93-.63-17.03-6.93-23.84-.6-.65-.86-1.82-.91-2.77-.47-9.5-.91-19-1.17-28.51-.03-.96.99-2.42 1.9-2.87 5.11-2.52 10.31-4.86 15.54-7.12 1.04-.45 2.39-.62 3.51-.42 12.55 2.21 25.08 4.55 37.62 6.78 1.86.33 3.78.37 5.68.37 60.33.02 120.66.02 180.99.02 1.01 0 2.12-.28 3.01.05 12.45 4.51 24.73-.53 37.09-.53 3.98 0 8.07.17 11.91 1.09 4.89 1.17 7.41 5.06 8.67 9.79.45 1.7-.01 2.56-1.8 3.2-13.05 4.66-25.89 9.95-39.13 13.98-7.07 2.16-14.77 2.27-22.19 3.21-22.29 2.82-44.57 5.84-66.91 8.27-11.65 1.27-23.42 1.5-35.15 2.14-7.26.4-14.55.4-21.77 1.14-4.01.42-8 1.73-11.82 3.14-3.2 1.18-6.21 2.1-9.71 1.6-9.23-1.31-18.03-.16-26.69 3.81-15.77 7.23-32.94 7.7-49.86 9.08-3.74.3-7.55.04-11.75.04z"/><path d="m146.55 317.74c30.12 0 60.23 0 90.35-.01 1.23 0 2.62.29 3.66-.17 10.66-4.78 22.07-4.11 33.29-4.63 21-.99 42.01-1.95 63.02-2.73 3.3-.12 6.68.55 9.93 1.26 3.12.68 6.29 2 6.55 5.78.25 3.72-.4 7.32-3.81 9.82-8.26 6.06-17.65 9.25-27.68 10.19-11.46 1.07-22.98 1.7-34.49 2.17-12.49.51-24.67 2.79-36.61 6.21-15.39 4.42-31.21 5.6-47 7.15-19.04 1.86-38.13 3.33-57.09 5.8-7.2.94-14.17 3.97-21.11 6.42-5.25 1.86-10.37 3.23-16 1.92-5.83-1.36-11.25 1.13-16.71 2.5-10.08 2.54-20.03 5.71-30.55 5.79-1.55.01-3.54-.63-4.58-1.7-7.31-7.55-12.59-16.26-13.97-26.91-1.32-10.18 1.99-19.21 7.33-27.6.55-.87 2.47-1.21 3.76-1.21 30.58-.07 61.15-.05 91.71-.05zm-62.68 25.49c-2.35-1.69-4.29-3.08-6.59-4.73-.36 2.76-.65 4.98-.99 7.56 2.69-1 4.93-1.84 7.58-2.83z"/><path d="m55.78 220.91c0-6.39.21-11.98-.08-17.53-.17-3.24-.43-6.85-1.94-9.58-2.89-5.21-2.57-10.53-2.11-15.99.06-.67.6-1.52 1.17-1.9 4.34-2.92 8.49-6.31 13.22-8.39 3.27-1.44 7.36-1.41 11.08-1.35 7.46.12 14.94 1.24 22.38 1.01 18.44-.57 36.87-1.72 55.3-2.53 30.95-1.35 61.9-2.62 92.86-3.93 4.47-.19 8.96-.2 13.4-.66 4.06-.42 7.5.26 10.14 3.58 2.08 2.62 4.51 3.02 7.59 1.58 12.02-5.64 24.61-6.7 37.65-4.7 6.27.96 12.48-.01 18.5-2.07 6.17-2.11 14.1 3.26 14.4 9.73.13 2.75.02 5.52.02 8.6-6.93-.43-13.26-.94-19.6-1.16-2.52-.09-5.14.19-7.59.8-9 2.23-17.88 5.04-26.95 6.91-7.08 1.47-14.36 2.26-21.6 2.69-30 1.79-59.42 7.37-88.97 12.42-26.46 4.52-52.08 11.65-77.35 20.49-12.25 4.28-24.96 6.15-38 4.26-.55-.08-1.37.09-1.63-.22-3.22-3.9-7.35-3.58-11.89-2.06zm45.99-18.63c-3.34-1.4-5.93-2.48-8.9-3.72v8.83c2.98-1.71 5.55-3.19 8.9-5.11z"/></g></svg>