<svg enable-background="new 0 0 400 400" viewBox="0 0 400 400" xmlns="http://www.w3.org/2000/svg"><path d="m5.17 384 .55-.58c.85.61 1.65 1.24 2.4 1.87l-.59.64c-.83-.73-1.62-1.38-2.36-1.93m1.22 9.53-.82-.34c.71-1.76 1.37-3.64 1.98-5.63.24.13.5.25.76.36-.6 1.67-1.24 3.54-1.92 5.61m-.5-13.5.57-.54c.56.44 1.31 1.06 2.26 1.87l-.64.64c-.68-.66-1.41-1.32-2.19-1.97m3.25.46h2.24v-1.36h.77v1.36h4.57v-1.36h.76v1.36h2.28v.69h-2.28v1.84h-2.64v1.26h4.18v2.64h-4.21c0 .45-.02.86-.05 1.21h4.32v.69h-4.38c-.04.34-.1.75-.19 1.22h5.15v.69h-4.82c.87 1.19 2.51 1.92 4.93 2.19-.17.31-.3.57-.37.76-2.77-.49-4.52-1.41-5.26-2.76-.56 1.26-2.3 2.23-5.24 2.9-.12-.24-.26-.48-.43-.72 2.73-.55 4.38-1.34 4.96-2.38h-4.38v-.69h4.65c.1-.38.17-.79.21-1.22h-4.32v-.69h4.4c.03-.34.05-.75.05-1.21h-4.2v-2.64h4.23v-1.26h-2.69v-1.84h-2.24zm1.46 4.46v1.29h3.45c.01-.4.02-.57.01-.53v-.32-.45h-3.46zm1.55-2.59h4.57v-1.19h-4.57zm6.11 2.59h-3.42v.77c-.01.19-.01.37-.02.53h3.44z" fill="#fafafc"/><path d="m32.63 379.16h.82v1.98h3.54v7.89h1.46v.78h-14.37v-.78h1.46v-7.89h3.54v-1.98h.82v1.98h2.73zm-3.49 11.48.5.73c-1.61.82-3.28 1.63-5 2.41-.13-.27-.28-.55-.44-.82 1.75-.72 3.4-1.49 4.94-2.32m-2.78-5.55h2.73v-3.18h-2.73zm0 3.95h2.73v-3.2h-2.73zm3.54-3.95h2.73v-3.18h-2.73zm0 3.95h2.73v-3.2h-2.73zm7.89 4.68c-1.84-.92-3.51-1.7-5.02-2.32l.45-.73c1.89.8 3.57 1.55 5.04 2.23zm-1.62-11.81h-2.73v3.18h2.73zm-2.73 7.13h2.73v-3.2h-2.73z" fill="#fafafc"/><path d="m211.89 347.62c-.5 4.93-1.06 9.86-1.49 14.8-.21 2.44.35 5.06-.38 7.3-.61 1.88-2.27 3.98-4.03 4.82-4.29 2.06-6.27.77-6.77-3.92-.55-5.23-.9-10.47-1.32-15.71-.13-1.67-.16-3.35-.34-5.02-.34-3.19-.83-6.36-4.65-7.33-3.27-.83-7.64.88-9.57 3.98-4.28 6.87-10.26 10.37-18.46 9.94-2.89-.15-5.8-.02-8.8-.02-.84-4.25-.66-7.33 3.01-10.24 12.02-9.52 23.73-19.43 35.46-29.32 1.08-.91 1.97-2.72 1.99-4.13.16-11.3.01-22.61.15-33.92.03-2.24-.71-3.61-2.57-4.55-3.09-1.56-6.19-3.09-9.29-4.62-1.3-.64-2.75-1.07-3.87-1.93-2.71-2.07-2.98-5.06-2.66-8.2.3-2.92 2.96-2.16 4.59-2.99.58-.3 1.28-.39 1.94-.5 5.65-.91 6.99-4.32 3.45-9.01-3.84-5.09-7.56-10.3-11.68-15.16-7.74-9.12-14.19-19.12-18.65-30.1-4.52-11.11-13.13-16.76-23.51-20.81-2.08-.81-4.29-1.39-6.24-2.44-8.49-4.58-12.99-12.11-13.61-21.39-.66-9.92-.59-19.94.04-29.87.31-4.88 2.3-9.75 4.08-14.42 1.46-3.83 1.12-6.8-1.35-10.12-3.93-5.29-7.06-11.18-11.08-16.4-6.34-8.24-7.06-17.48-5.46-27.1 1.71-10.32 5.39-20.04 10.12-29.37.96-1.9 1.97-2.2 4.15-2 8.9.79 15.19 5.4 20.59 12.17 7.41 9.29 15.26 18.26 18.11 30.21 1.98 8.31 2.26 16.53-1.66 24.54-2.4 4.91-4.21 10.11-6.51 15.08-1.03 2.23-.93 4.06.63 5.84 2.43 2.77 4.78 5.63 7.39 8.22 4.72 4.68 7.7 10.25 8.18 16.82.7 9.58 1.17 19.19 1.35 28.79.12 6.55 2.23 12.33 5.84 17.54 6.11 8.82 12.53 17.42 16.53 27.52 1.77 4.46 3.54 8.95 5.74 13.21 3.11 6.02 7.63 10.68 14.66 12.87 5.29-8.51 13.04-15.41 15.57-25.6.33-1.33 1.38-2.53 2.27-3.65 4.3-5.44 8.62-10.88 13.03-16.24 1.33-1.61 1.92-3.11 1.16-5.17-4.99-13.66-3.53-27.94-2.74-41.88.36-6.39 4.7-12.6 7.51-18.77 1.7-3.75 4.35-7.09 5.82-10.91 2.09-5.42 2.1-10.71-1.98-15.73-5.05-6.21-6.44-13.69-5.52-21.54 1.35-11.56 2.85-23.16 8.6-33.55 1.85-3.33 4.9-5.98 7.14-9.13 1.44-2.03 2.84-4.28 3.46-6.64 1.02-3.93 4.16-6.65 8.27-6.33 11.05.86 19.22 8.32 22.04 20.3 2.45 10.38 3.93 20.89 3.48 31.6-.04.89-.13 1.82.04 2.68 2.23 11.57-3.61 20.37-9.92 29.01-.66.9-1.3 1.89-2.18 2.54-4.51 3.34-4.09 7.29-1.73 11.65 1.86 3.43 3.51 6.98 5.32 10.45 4.51 8.66 4.5 17.3-.97 25.39-9.1 13.45-17.3 27.39-25.3 41.51-3.69 6.51-9.22 12.04-14.21 17.75-7.43 8.5-15.59 16.41-20.9 26.57-.67 1.29-1.31 2.59-2.01 3.86-1.58 2.89-2.67 5.44.05 8.67 2.34 2.78 1.32 7.66-1.89 9.45-6.48 3.61-8.15 8.76-7.93 15.94.37 12.18-.45 24.38-.56 36.58-.01 1.52.88 3.44 2 4.5 5.51 5.25 11.31 10.19 16.87 15.39 3.72 3.49 6.7 7.55 7.63 12.74.87 4.88-2.84 8.77-7.64 7.37-3.43-1.01-6.64-3.09-9.63-5.15-2.83-1.95-5.24-4.51-7.84-6.79-.47.02-.92.04-1.36.07zm58.98-291.14c-5.1 4.65-11.37 8.13-11.62 16.48-.22 7.11-1.95 14.18.83 21.17 2.36 5.93 5.14 6.76 10.17 2.73 1.21-.97 2.26-2.16 3.26-3.35 1.58-1.88 3.28-3.72 4.52-5.81 1.15-1.94 2.15-4.14 2.5-6.34.42-2.61.31-5.37.02-8.02-.77-6.93-2.33-13.51-9.68-16.86zm-149.27-8.85c-11.17 10.81-8.13 33.3 6.24 45.77 2.2-1.45 5.61-2.46 6.58-4.58 3.09-6.76 4.94-14.13 2.19-21.45-3-7.98-8.77-14.09-15.01-19.74zm16.03 78.13c-10.64 11.6-8.5 31.18 4.23 41 4.12 3.18 6.29 2.41 6.58-2.88.4-7.34.59-14.73.2-22.07-.38-7.29-4.04-12.83-11.01-16.05zm113.79 52.21c2.9-2.78 6.54-4.89 8.07-8.03 3.73-7.6 6.51-15.67 9.57-23.59.33-.87.31-2.29-.19-2.99-2.77-3.9-5.75-7.65-8.69-11.5-9.64 12.84-17.83 33.48-8.76 46.11z" fill="#010101"/></svg>