<svg enable-background="new 0 0 400 400" viewBox="0 0 400 400" xmlns="http://www.w3.org/2000/svg"><path d="m374.8 390.4.4-.4c.7.5 1.3 1 1.8 1.4l-.5.5c-.5-.6-1.1-1.1-1.7-1.5zm1 7.3-.6-.3c.5-1.4 1.1-2.8 1.5-4.3.2.1.4.2.6.3-.5 1.3-1 2.8-1.5 4.3zm-.4-10.3.4-.4c.4.3 1 .8 1.7 1.4l-.5.5c-.4-.5-1-1-1.6-1.5zm2.5.3h1.7v-1h.6v1h3.5v-1h.6v1h1.8v.5h-1.8v1.4h-2v1h3.2v2h-3.2v.9h3.3v.5h-3.4c0 .3-.1.6-.1.9h4v.5h-3.7c.7.9 1.9 1.5 3.8 1.7-.1.2-.2.4-.3.6-2.1-.4-3.5-1.1-4-2.1-.4 1-1.8 1.7-4 2.2-.1-.2-.2-.4-.3-.6 2.1-.4 3.4-1 3.8-1.8h-3.4v-.5h3.6c.1-.3.1-.6.2-.9h-3.3v-.5h3.4c0-.3 0-.6 0-.9h-3.2v-2h3.3v-1h-2.1v-1.4h-1.7v-.5zm1.1 3.5v1h2.7c0-.3 0-.4 0-.4 0-.1 0-.2 0-.2 0-.1 0-.2 0-.3h-2.7zm1.2-3v.9h3.5v-.9zm4.7 3h-2.6v.6.4h2.6z" fill="#fbfcfa"/><path d="m393.6 386.7h.6v1.5h2.7v6.1h1.1v.6h-11v-.6h1.1v-6.1h2.7v-1.5h.6v1.5h2.1v-1.5zm-2.7 8.8.4.6c-1.2.6-2.5 1.3-3.8 1.9-.1-.2-.2-.4-.3-.6 1.2-.6 2.5-1.2 3.7-1.9zm-2.2-6.7v2.4h2.1v-2.4zm0 3v2.5h2.1v-2.5zm2.8-3v2.4h2.1v-2.4zm0 3v2.5h2.1v-2.5zm6 6.1c-1.4-.7-2.7-1.3-3.9-1.8l.3-.6c1.5.6 2.7 1.2 3.9 1.7zm-1.2-9.1h-2.1v2.4h2.1zm-2.1 3v2.5h2.1v-2.5z" fill="#fbfcfa"/><g fill="#010106"><path d="m229.46 195.26c.13 2.88.26 5.31.35 7.74.68 19.53-.13 38.93-5.65 57.85-.87 3-1.85 5.99-3.05 8.87-4.14 9.92-12.21 14.57-22.4 15.76-14.67 1.71-28.65-1.96-42.47-6.28-.87-.27-1.7-1.39-2.12-2.32-5.48-11.99-10.92-24-16.27-36.05-.56-1.27-.69-2.81-.7-4.23-.07-7.59-.03-15.19-.03-23.41-2.58.58-4.8 1.07-7.01 1.58-6.32 1.45-12.66 2.79-18.93 4.42-1.58.41-3.29 1.46-4.3 2.73-12.83 16.12-20.18 34.72-23.74 54.8-3.5 19.75-7.35 39.41-16.17 57.57-5.71 11.74-12.23 23.11-18.67 34.48-2.92 5.16-9.67 7.55-16.55 6.58-.86-3.7-.25-6.47 3.2-9.1 11.47-8.76 19.27-20.55 25.07-33.52 11.03-24.65 18.91-50.26 19.81-77.47.24-7.39-1.52-14.86-2.4-22.29-.37-3.11-.51-6.3-1.34-9.28-.94-3.36.49-4.22 3.33-5.36 18.92-7.6 38.89-10.89 58.74-14.7 13.61-2.61 27.21-5.27 40.8-8.02 1.14-.23 2.53-1.05 3.09-2.01 3.38-5.78 6.56-11.68 10.01-17.92-12.36-6.65-24.6-13.24-36.91-19.85-5.8 6.12-11.58 12.03-17.14 18.13-6.4 7.02-14.39 9.46-23.6 8.79-.67-.05-1.34-.15-1.99-.3-.3-.07-.57-.29-1.12-.59 3.13-3.49 6.17-6.89 9.22-10.29 21.21-23.67 42.4-47.36 63.68-70.96.88-.97 2.64-1.69 3.95-1.64 4.86.19 8.99 1.65 11.8 6.3 3.02 5 7.27 8.84 12.53 11.79 28.97 16.23 57.81 32.67 86.69 49.05 1.16.66 2.32 1.34 3.53 2.05-4.3 1.48-14.59-.54-25.79-4.67-8.38-3.09-17.03-5.47-25.27-8.86-8.22-3.37-16.08-7.6-24.53-11.66-7.72 14.88-15.66 30.19-23.87 45.99 8.51-1.3 16.44-2.5 24.37-3.73 15.02-2.33 30.05-4.65 45.06-7.06 2.36-.38 4.01.21 5.53 2.05 4.89 5.93 6.99 12.96 7.83 20.37 2.1 18.57 7.8 36.18 13.5 53.85 6.56 20.34 11.87 41.02 14.18 62.34.85 7.89.94 15.86 1.76 23.75.38 3.67-.9 5.36-4.34 5.84-.65.09-1.29.27-2.36.5-1.82-7.78-3.78-15.44-5.41-23.17-4.79-22.75-9.25-45.56-14.24-68.27-3.68-16.75-8.81-33.07-18.25-47.65-7.99-12.34-8.48-12.54-23.11-12.54-5.9.02-11.83.02-18.3.02zm-70.31 42c4.16-.48 8.02-.92 11.89-1.37 14.2-1.64 28.39-3.32 42.6-4.86 2.27-.25 3.41-1.13 3.63-3.39.47-4.99 1.3-9.97 1.44-14.97.28-9.48-5.52-14.04-14.92-12.15-7.66 1.54-15.33 3.03-23 4.55-9.28 1.84-18.56 3.7-28.24 5.63 2.21 8.89 4.35 17.52 6.6 26.56zm42.55-76.8c2.39-8.59 4.82-16.78 6.91-25.06 1.04-4.12-.8-7.66-4.22-9.84-3.92-2.49-8.17-4.5-12.41-6.41-.91-.41-2.81.12-3.6.89-6.97 6.76-13.81 13.67-20.67 20.55-2.35 2.35-1.24 8.04 1.88 9.11 10.34 3.53 20.71 6.95 32.11 10.76zm-42.52 92.2c2.29 4.07 4.79 7.47 6.21 11.28 2.75 7.34 7.51 9.37 15.23 9.03 9.41-.41 17.83-2.35 25.17-8.31.76-.62 1.65-1.28 2.04-2.13 1.82-3.95 3.57-7.93 5.18-11.97 1.08-2.7.02-4.82-2.73-5.41-2.88-.62-5.96-1.12-8.85-.77-5.3.65-10.53 1.94-15.78 2.99-8.62 1.72-17.24 3.45-26.47 5.29z"/><path d="m99.7 96.27c-6.54-23.46-12.95-46.47-19.54-70.15 8.74 4.38 15.04 10.46 18.08 18.97 2.61 7.3 3.82 15.1 5.63 22.69 1.93 8.06 4.85 15.57 11.31 21.24 2.59 2.27 5.13 3.09 8.78 2.19 42.26-10.37 85.08-17.89 127.94-25.22 15.64-2.68 31.28-5.44 46.91-8.18 11.95-2.1 22.69 6.01 23.39 18.25.46 8.02.39 16.13-.14 24.15-.65 9.87.87 19.29 3.58 28.73 3.98 13.85 7.74 27.78 11.07 41.8 1.41 5.93 1.59 12.17 2.11 18.28 1.02 11.93 1.38 23.94 3.02 35.77 1.1 7.9 3.88 15.58 6.02 23.33 5 18.09 10.07 36.17 15.1 54.25.27.96.47 1.93.68 2.84-2.78 2.63-4.9 1.89-7.84-.2-5.51-3.93-8.21-8.84-9.78-15.45-9.15-38.48-18.86-76.83-28.15-115.28-1.96-8.13-2.87-16.51-4.47-24.74-.28-1.44-1.31-3.07-2.5-3.94-29.76-21.89-61.16-41.3-92.43-60.89-1.21-.76-3.18-.94-4.61-.6-28.14 6.77-56.24 13.69-84.39 20.45-2.51.6-3.75 1.82-4.64 4.08-10.1 25.78-22.96 50.17-37.18 73.88-6.8 11.34-13.93 22.45-23.56 31.67-4.21 4.04-8.83 7.49-14.74 9.68-.77-3.31-1.63-6.42-2.14-9.57-.14-.85.58-2.06 1.26-2.77 22.03-23.21 38-50.19 49.6-79.85 2.47-6.32 4.24-12.92 6.29-19.25-5.18-3.32-6.24-3.15-10.12.33-9.63 8.63-20.46 14.39-33.88 13.64-1.22-.07-2.44-.42-3.65-.4-5.26.11-7.47-3.48-9.6-7.77 17.52-7.32 34.9-14.58 52.59-21.96zm207.31 19.54c-1.38-9.65-2.56-19.16-4.13-28.61-1.76-10.65-13.22-17.1-22.77-14.13-3.72 1.15-7.65 1.61-11.47 2.42-8.37 1.76-16.73 3.54-25.64 5.42 1.38.99 2.25 1.66 3.16 2.26 14.4 9.65 28.98 19.04 43.13 29.05 5.29 3.75 10.59 4.64 17.72 3.59z"/></g></svg>