<svg enable-background="new 0 0 400 400" viewBox="0 0 400 400" xmlns="http://www.w3.org/2000/svg"><g fill="#fafafb"><path d="m12.4 4.8-6.1 9h6v1.2h-8v-.5l6.1-8.9h-5.7v-1.2h7.6v.4z"/><path d="m14 15v-10.6h3c1.6 0 2.9.5 4 1.4s1.6 2.2 1.6 3.8-.5 3-1.6 3.9-2.4 1.5-4 1.5zm1.4-9.4v8.2h1.6c1.3 0 2.4-.4 3.1-1.1s1.1-1.8 1.1-3.1-.4-2.3-1.2-3-1.8-1-3.1-1z"/><path d="m26.1 4.4v10.6h-1.4v-10.6z"/><path d="m36.1 14.6c-.8.4-1.8.6-2.9.6-1.5 0-2.7-.5-3.6-1.4s-1.4-2.2-1.4-3.8c0-1.7.5-3.1 1.5-4.1s2.3-1.6 3.9-1.6c1 0 1.8.1 2.5.4v1.4c-.8-.4-1.6-.6-2.5-.6-1.2 0-2.1.4-2.9 1.2s-1.1 1.8-1.1 3.2c0 1.3.3 2.3 1 3s1.6 1.1 2.7 1.1c1 0 2-.2 2.7-.7v1.3z"/><path d="m37.6 14.3c0-.2.1-.5.3-.6s.4-.3.6-.3c.3 0 .5.1.6.3s.3.4.3.6-.1.4-.3.6-.4.3-.6.3c-.3 0-.5-.1-.6-.3s-.3-.4-.3-.6z"/><path d="m50.2 15h-1.6l-5.3-8.2c-.2-.2-.3-.5-.4-.7 0 .2.1.7.1 1.5v7.4h-1.4v-10.6h1.7l5.2 8.1c.2.4.4.6.4.7 0-.3-.1-.8-.1-1.5v-7.3h1.4z"/><path d="m58.6 15h-5.7v-10.6h5.5v1.2h-4.1v3.4h3.8v1.2h-3.8v3.6h4.3z"/><path d="m67.1 5.6h-3.1v9.4h-1.4v-9.4h-3v-1.2h7.5z"/></g><path d="m144.83 366.16c-1.88 2.93-3.19 5.28-4.83 7.37-.48.61-1.87.68-2.85.69-4.7.03-9.4-.08-14.1-.08-13.31 0-26.62-.04-39.92.07-13.2.11-26.4.39-39.61.59-.88.01-1.77-.08-3.5-.17 0-3.41-.07-6.77.02-10.13.08-2.79.55-5.57.51-8.35-.34-25.4-1-50.8-1.1-76.2-.21-57.42-.11-114.85-.23-172.28-.05-23.94-.37-47.87-.51-71.81-.02-3.57.29-7.13.46-10.86h314.75c0 4.18.03 8.18 0 12.18-.18 22.05-.37 44.1-.61 66.14-.02 1.44-.57 2.87-.99 4.87 2.44 3.1 2.39 7.27 1.91 11.6-.45 3.99-.86 8.02-.84 12.04.13 23.28.37 46.56.63 69.84.24 21.48 1.3 42.99.49 64.43-.41 10.95.07 21.8.1 32.7.08 22.69-.09 45.38-.18 68.06-.01 2.34-.21 4.67-.34 7.39-4.85 0-9.49.01-14.14 0-26.97-.1-53.94-.27-80.92-.29-24.4-.02-48.8.1-73.2.21-10.38.05-20.76.27-31.15.28-.86 0-1.83-.84-2.56-1.49-2.34-2.12-4.63-4.32-7.29-6.8zm-21.82-85.43c-1 3.5-1 3.5 2.76 3.32-2.18 4.49 1.32 5.95 4.05 7.86 3.11 2.18 6.21 4.39 9.12 6.44-.16 1.18-.74 2.41-.35 3.1 2.12 3.84 4.4 7.41 9.58 7.81 2.3.18 4.88 1.09 6.67 2.51 4.19 3.32 7.97 7.14 11.82 10.67 1.38-.23 2.55-.44 3.96-.67-.35 3.8 2.2 3.78 4.57 4.09 3.45.45 6.89 1 11.09 1.62-3.56 4.17-6.35 7.44-9.15 10.72.23.3.47.61.7.91 2.35-2.78 4.76-5.15 8.43-2.44.34.25 1.24-.41 1.88-.4 1.03.02 2.12.07 3.06.43 3.61 1.36 7.37-.8 10.97.54.07.03.23-.06.29-.14 2.01-2.5 4.46-4.31 7.22-6.04 1.8-1.13 3.01-1.67 4.97-1.24 4.27.94 8.45 1.83 12.02-2.2 1.13-1.28 3.47-1.49 5.96-2.47.07-.25.64-1.4.71-2.58.35-5.71 4.12-8.15 8.99-9.27 4.66-1.07 7.91-3.86 10.8-7.61-2.58-2.9-1.29-5.31 1.03-7.54 1.05-1.01 2.22-1.9 3.19-2.98 3.61-4.05 5.5-8.9 5.71-14.26.14-3.46-.35-6.94-.58-10.81 1.77.7 2.68 1.07 4 1.59-.9-4.46-7.64-6.76-2.17-12.31-4.87 1.87-4.79 1.86-5.44-2.69-.83-5.88-6.31-8.05-9.74-11.85-.15-.17-.65 0-.97-.05-1.79-.32-3.61-.53-5.35-1.02-1.59-.45-3.05-1.36-4.64-1.78-1.87-.5-3.82-.68-5.74-1.01.03-.24.06-.48.08-.73-1.53.91-3.05 1.82-4.58 2.74.06-.28.11-.55.17-.83-4.12-1.53-8.25-3.06-12.56-4.66-1.01.49-3.06 2.05-3.58 1.65-2.93-2.3-4.88-.12-7.07 1.23-1.01-5.31-6.43-7.64-10.86-4.87-2.23-1.4-2.24-.58-5.18-.62-4.74-.07-9.85-.49-14.1-2.36-4.11-1.81-7.47-2.75-11.04.2-1.59-1.52-3.13-3.15-4.85-4.55-.61-.5-1.69-.67-2.52-.59-2.48.24-4.94.65-7.39 1.04-2.29.37-4.86.25-6.78 1.31-4.43 2.45-8.54 5.47-12.98 8.39-.39-.32-1.16-.96-1.86-1.53-3.92 1-1.38 3.52-1.33 5.28-1.16 0-2.64-.43-3.11.07-2.45 2.65-4.94 5.35-6.84 8.39-1.67 2.67-2.58 5.81-3.94 9.04 1.13 1.57 2.58 3.42 3.82 5.41.43.69.4 1.71.41 2.58.02 1.52-.69 3.42-.02 4.49 1.77 2.9 4.14 5.45 6.69 8.67zm22.08-152.15c.28.29.55.58.83.88 3.82-1.25 3.91-.81 3.79 3.28-.07 2.5-.43 4.91-.6 7.32-.27 3.86-.66 8.14 1.93 11.73 1.09 1.51 1 2.8-.39 4.39-2.78 3.16-2.3 5.89.85 8.66 1.31 1.15 2.71 2.39 3.53 3.88 1.44 2.61 2.82 5.06 6.48 5.03-.6 1.12-1.02 1.9-1.45 2.72 1.28.45 2.32.82 3.39 1.2-1.91 3.12-1.84 3.48 1.18 6.54-.66.79-1.32 1.6-2.24 2.71 1.44.54 2.67.8 3.65 1.43.91.59 1.54 1.6 2.34 2.48.45.06 1.4-.06 2.05.33 2 1.17 3.81 2.67 5.82 3.81 4.1 2.32 4.74 6.24 1.47 9.83-3.91-4.11-5.16-4.06-10.02.54-.01 1.24-.1 2.54-.77 3.38-3.72 4.62-3.77 4.62.61 8.06 2.93 2.3 7.02 2.22 9.85-.13.84-.7 1.83-1.77 2.73-1.75 2.76.06 5.59.27 8.25.97 2.59.69 4.53.62 5.9-2.48.9 1.28 1.6 2.27 2.3 3.26 2.3-1.66 4.16-3.11 6.14-4.36.71-.45 1.84-.78 2.59-.55 4.23 1.28 7.6-.5 8.62-4.76.49-2.03.91-4.08 1.37-6.18 5.04 2.07 9.84-2.67 10.54-9.95.84.17 1.68.34 2.54.51-.26-3.66-.82-7.03-.6-10.35.09-1.43 1.8-2.74 2.74-4.13.63-.93 1.21-1.89 2.33-3.67-1.73.49-2.39.68-2.77.79-.98-4.3-1.97-8.59-2.91-12.9-.08-.37.09-.82.24-1.2 1.58-4.26 1.34-5.29-2.28-7.84-2.9-2.04-5.17-4.44-5.23-7.08-2.11-.79-3.88-1-4.92-1.99-.74-.71-.53-2.44-.69-3.73-.12-.93.11-2.57-.27-2.71-3.2-1.23-3.3-4.49-4.31-6.85-2.75-6.41-7.2-8.42-12.73-5.42-1-1.56-1.66-3.47-3-4.5-2.5-1.94-5.37-3.37-4.15-6.77-6.21-2.08-10.85 2.58-16.5 2.92-2.33.14-4.01.11-5.77-1.38-1.24-1.05-2.63-2.34-4.11-2.61-3.24-.59-6.59-.59-9.9-.83-.09-.37-.17-.73-.26-1.1-1.65 1.8-4.2 3.38-4.72 5.47-.6 2.4.58 5.24 1.01 8.01-1.25 1.34-2.86 3.22-4.48 5.09zm140.5 79.02c1.77.68 3.84.83 4.25 1.74 1.67 3.66 5.23 4.82 8.17 6.73.68.44 2.33-.7 3.57-.99 1.06-.24 2.22-.58 3.24-.38 1.93.36 3.83.99 5.68 1.67 1.4.51 3.38.91 3.94 1.97 4.44 8.32 13.73 11.61 19.31 19.83 1.65-2.34 2.88-4.09 4.11-5.84-.85-.34-1.69-.67-2.54-1.01-2.24-4.23-4.84-8.37-8.08-11.93-3.43-3.77-7.46-7-11.13-10.37.62-1.33 1.07-2.3 1.67-3.59-3.36-.24-5.48-1.67-5.65-6.22-2.93 2.56-5.08 4.45-7.32 6.41-1.95-2.79-2.86 1.52-5.16 1.39-.1-2.06.33-4.37-.45-6.13-.92-2.06-2.9-3.64-4.46-5.47.52-1.02 1.01-1.98 1.39-2.72-2.81-1.04-5.49-2.04-8.17-3.03.33-.28.65-.57.98-.85 0-1.78 0-3.57 0-5.35-.95.77-1.91 1.54-3 2.43-.91-.75-2.5-1.45-3.03-2.64-.99-2.22-4.04-2.83-3.99-5.89.03-1.99-.76-4.01-1.35-5.97-.41-1.37-1.54-2.66-1.53-3.98.01-2.49-.84-3.73-3.67-3.43 1.33-4.89-2.39-6.8-4.87-9.34-1.62-1.67-3.15-3.1-1.99-5.77.3-.69-.09-2.07-.66-2.67-2.24-2.36-4.33-4.61-2.02-8.1.23-.34-.07-1.05-.16-1.58-.37-2.21-.76-4.41-1.14-6.62-.79-.67-2.34-1.32-2.64-2.34-1.43-4.89-5.36-7.55-8.84-10.64-1.74-1.55-3.94-2.93-1.75-5.77.28-.37-.35-1.4-.49-2.14-.15-.82-.61-1.92-.26-2.45 2.26-3.42 1.07-6.62-.32-9.85-1.07-2.48-1.06-4.73 1.56-6.27-3.73-3.82-3.32-9.26 1.03-13.9-4.53-2.31-6.59-8.71-13.2-7.27-3.51-2.69-5.55-.24-7.77 2.1-3.22 3.4-3.35 4.46-.33 8.38-2.92 1.65.19 4.34-.72 5.76-2.14 3.36-.07 5.49 1.38 7.83 1.75 2.81 1.65 5.41-.77 7.54-2.69 2.37-1.59 4.24.39 6.09.96.89 2.14 1.55 3.21 2.31-1.99 3.4-1.78 4.17 1.32 5.03-.89 3.65 1.58 9.12 4.28 9.52-1.07 3.19.64 5.57 2.56 7.64 2.25 2.43 5.18 4.33 4.31 8.25 1.67.11 2.84.19 3.11.21.39 2.34.04 4.91 1.16 6.08 2.49 2.61 3.89 5.29 3.92 8.88.01 1.11.77 2.31 1.44 3.3 1.37 2.03 2.18 3.93-.42 5.63 2.26 2.84 4.25 5.39 6.3 7.9 1.62 1.98 2.97 4.56 5.07 5.69 2.31 1.24 2.78 2.79 2.58 4.79-.3 3 .71 5.17 3.19 6.81.82.54 1.47 1.34 2.26 2.08-.44 1.03-.85 1.99-1.27 2.94.29-.16.58-.31.87-.47 2.4 2.6 4.8 5.21 7.34 7.96-.01 0 .61-.29 1.7-.82-1.5 4.84.92 5.48 4.49 4.74-.3 1.06-.54 1.87-.63 2.16zm-215.7 26.07c.51.19 1.02.37 1.54.56 4.56-4.4 9.17-8.76 13.68-13.22 4.45-4.41 8.2-9.24 8.89-15.8.04-.42.69-.77 1.05-1.16.81-.89 1.62-1.8 2.44-2.68.49-.53 1-1.05 1.53-1.54 1.43-1.29 3.12-2.37 4.25-3.88 1.85-2.46 3.33-5.19 5.07-7.95-1.88-1.73-1.1-3.25.54-5.14 2.95-3.38 7.54-5.97 6.44-11.67-.1-.52.45-1.25.87-1.76 2.09-2.54 3.04-5.32 2.58-8.67-.15-1.06.27-2.69 1.03-3.3 3.17-2.51.96-8.04 5.55-9.64.16-.05.18-.63.19-.96.01-2.52.01-5.05.01-8.62 1.09-1.03 3.1-2.93 5.26-4.96-2.72-2-1.89-3.91-.37-6.04 1.46-2.05 4-4.11 1.01-6.7 1.05-1.52 1.92-2.79 2.87-4.17-2.13-1.8-1.81-3.61-.61-5.69 1.55-2.68 3.24-5.38 2.51-8.79-.13-.62.25-1.74.75-2.06 4.03-2.51 3.07-7.03 3.29-10.35.45-6.78-.67-13.66-1.16-20.75-1.85 0-4.62-.82-5.97.21-1.71 1.3-2.28 4.11-3.33 6.28-.2.4-.27.96-.58 1.19-2.82 2.08-2.26 4.18.16 6.19-1.92 2.37-3.66 4.51-5.37 6.6.91 1.44 1.66 2.65 2.42 3.87-.88.8-1.62 1.46-2.31 2.09 1.83 4.9.87 9.3-2.74 12.42 2.59 1.93.84 3.56-.11 5.34.1 1.65-.23 3.2-.63 4.74-.54 2.09-1.86 4.31-1.5 6.21.46 2.42-.08 4.06-1.8 5.21-2.91 1.96-4.29 3.97-1 7.11-4.84 4.13-5.84 9.33-5.09 15.24.18 1.4-.81 3.36-1.89 4.43-2.64 2.62-4.02 5.07-.65 8-2.12 2.36-4.11 4.34-5.79 6.56-.81 1.07-1.82 3.08-1.36 3.81 2.19 3.51.09 3.62-2.65 3.43-.14 1.15.09 2.41-.44 3.04-2.54 2.99-4.33 6.14-5.12 10.15-.45 2.28-3.07 4.05-4.37 6.25-1.22 2.06-1.97 4.39-2.93 6.6.28.14.56.29.84.43-1.15.6-2.29 1.2-3.44 1.81.31 1.75.32 3.57-.57 4.35-6.19 5.44-9.05 12.92-12.59 19.98-.51.94-.29 2.25-.4 3.4zm255.64-64.97c2.37 2.16 4.77 4.37 7.25 6.63 2.01-1.3 3.75-2.42 5.45-3.51-.85-1.68-1.53-3.03-2.23-4.42.65-.46 1.06-.66 1.35-.97.68-.71 1.3-1.48 1.94-2.22-1-.33-2.01-1-2.98-.93-2.19.16-4.35.68-7 1.13 4.23 7-2.5 2.33-3.78 4.29zm-24.13 23.53c.38.31.77.62 1.15.93 1.76-1.46 3.53-2.91 5.41-4.48-1.57-1.98-2.85-3.59-4.25-5.34-1.05.79-1.87 1.42-3.12 2.36 1.15.72 1.99 1.24 2.56 1.6-.7 1.98-1.23 3.45-1.75 4.93zm4.33-154.1c-2.75 2.38-2.36 4.48-.4 6.28.76.7 2.18.68 3.3.99.17-.33.35-.66.52-.99-1.12-2.05-2.24-4.11-3.42-6.28zm-254.21-5.27c-.1-.34-.21-.68-.31-1.03-1.27-.07-2.53-.14-4.57-.25 1.12.94 1.67 1.4 2.39 2.01-1.37.61-2.42 1.07-3.48 1.54.17.31.34.63.5.94 1.82-1.06 3.64-2.14 5.47-3.21z" fill="#010105"/><path d="m207.62 320.29c-2.49 1.85-6.74 1.75-8.51-.3-1.69-1.95-3.12-2.19-4.77-.26-4.29-3.41-4.29-3.41-6.44-2.32-.23-.95-.46-1.89-.82-3.32-1.22.92-2.07 1.55-3.04 2.29-2.06-.83-3.84-4.57-6.31-1.21-1.56-1.34-2.83-2.92-4.47-3.69-1.56-.73-3.51-.61-5.56-.89.31-1.3-.87-1.81-2.87-2.47-2.07-.68-3.89-2.5-5.51-4.12-2.56-2.56-5.22-4.1-8.81-2.28-.93-1.76 1.36-5.1-2.13-4.74-.31-1.27-.27-2.49-.85-3.22-1.72-2.19-4-4-5.49-6.33-2.13-3.32-5.04-6.08-5.59-10.58-.33-2.74-3.25-5.16-5.08-7.83 1.07-1.58 2.68-3.14.26-5.06-.36-.28.13-2.02.59-2.88.68-1.26 1.7-2.33 2.61-3.53 2.05 1.36 3.42 2.28 5.07 3.38 1.36-1.66 2.67-3.26 3.99-4.86-.14-.36-.27-.73-.41-1.09-1.46.37-2.92.75-4.87 1.25 2.76-2.57 1.98-5.28.5-8.38.74.25 1.89.29 2.14.8 1.35 2.61 2.36 2.14 4.16.25 2.06-2.17 4.31-4.59 8-2.12.83.56 2.78-.55 4.53-.96 1.52 3.1 3.67 2.98 5.93.3 3.43 3.41 7.63 1.93 11.03 1.07 2.44-.62 4.26-1.22 6.52.4.62-.86 1.16-1.6 1.69-2.32.24 0 .57-.09.66.01 2.84 3.36 6.97.79 10.24 2.24 1.26.56 2.67.81 4.88 1.46 1.39-.63 3.67-1.66 6.36-2.87.88.58 2.17 1.43 3.45 2.29 1.47 1 2.87 2.27 4.79.89.24-.17.77-.32.94-.18 3.75 3.03 8.85.63 12.81 3.2 1.09.71 3.03.11 4.58-.29 4.67 1.9 6.63 8.16 12 8.7 1.23 2.26 2.34 4.46 3.58 6.58 2.36 4.05 1.38 8.42 1.3 12.7-.02.99.3 2.01.15 2.97-.21 1.32-.59 2.66-1.14 3.88-.99 2.2-4.06 3.84-1.59 6.91.25.31-.27 1.56-.76 2.07-7.41 7.76-14.87 15.48-22.55 23.45-2.92-3.29-5.07-2.42-7.21-.57-.76.65-1.73 1.05-2.48 1.71-1.86 1.63-3.66 1.92-5.5-.13zm-58.96-65.55c-1.28 1.57-2.32 2.85-3.35 4.11 1.63 1.55 6.17 1.38 8.84-.25-1.78-1.26-3.49-2.46-5.49-3.86z" fill="#010105"/><path d="m182.09 150.19c-2.48-1.59-4.21-4.43-8.16-3.35-1.21.33-3.22-2.3-4.82-3.53 2.04-3.82 4.67-4.99 8.64-4.2 2.84.56 5.88.11 8.92.11 1.57 3.94 6.27 6.07 10.16 4.1-.29 1.15-.53 2.05-.51 1.99 1.25 1.99 2.11 3.44 3.05 4.83.72 1.06 1.52 2.09 2.35 3.07 1.27 1.51 2.36 3.39 3.99 4.33 1.21.7 3.14.14 4.75.14.15-.33.3-.66.44-.98.26.72.91 1.56.73 2.13-1.04 3.24-.48 5.72 2.51 7.71.79.52 1.42 2.29 1.16 3.19-.8 2.68-2.3 5.15-3.11 7.83-.69 2.27-.81 4.72-1.04 6.17-2.87 2.71-5.3 4.99-7.96 7.51-2.15-1.46-4.58-1.77-6.66.98-1.32-1.35-2.44-3.17-4.49-.95-.36.39-2.07.14-2.67-.38-4.39-3.75-8.75-7.55-12.92-11.54-1.83-1.75-3.26-3.94-4.69-6.05-.52-.77-1-2.13-.67-2.81 1.19-2.44.72-4.14-1.39-5.76-.37-.28-.13-2.07.39-2.63 1.12-1.19 2.61-2.03 4.04-3.09 1.22.96 2.33 1.83 3.32 2.61 2.12-1.8 4.11-3.5 6.56-5.59.4 1.54.63 2.39.95 3.62 2.63-2.23 6.36-3.18 6.12-7.15-.13-1.94-6.59-3.42-8.99-2.31z" fill="#010105"/></svg>