<svg enable-background="new 0 0 400 400" viewBox="0 0 400 400" xmlns="http://www.w3.org/2000/svg"><g fill="#010102"><path d="m226.92 365.29c-1.74-5.76-3.97-10.54-4.49-15.5-.9-8.52-1.1-17.15-.93-25.72.26-12.91 10.19-22.63 21.45-25.67 3.77-1.02 7.66-1.59 11.44-2.56 12.49-3.21 15.71-8.42 16.62-18.46.52-5.68.72-11.4.72-17.1 0-1.35-1.03-3.13-2.15-3.97-4.4-3.3-9.59-3.86-14.72-2.59-6.17 1.53-12.27 2.29-18.52.94-9.25-1.99-18.24.48-27.3 1.54-8 .94-15.95 2.25-23.94 3.23-2.33.29-3.57 1.13-3.94 3.54-.35 2.31-1.08 4.56-1.68 6.83-.58 2.17-1.08 4.99-3.79 4.81-2.68-.18-5.89-.93-7.79-2.63-3.76-3.36-5.71-8.1-5.66-13.22.16-15.09-.17-30.24 1.03-45.26 1.22-15.24 4.08-30.34 6.08-45.52.34-2.59 1.59-3.44 3.97-3.92 28.49-5.78 56.96-11.7 85.46-17.41 2.98-.6 3.91-1.91 3.86-4.65-.19-9.53-2.36-18.61-6.32-27.23-.79-1.71-2.37-3.31-3.98-4.33-8.94-5.69-18.35-8.85-28.84-4.24-.51.22-1.11.36-1.5.72-8 7.43-17.68 5.29-27.22 5.11.08-4.26.59-7.6 4.3-10.41 6.41-4.86 12.3-10.41 18.32-15.76 6.14-5.47 12.9-9.25 21.48-8.49 2.82.25 5.32.8 7.27 3.35 2.27 2.97 6.05 4.24 11.58 4.7-.29-3.33-.54-6.61-.86-9.88-.6-6.01-1.14-12.03-1.92-18.02-.24-1.81-.98-3.64-1.84-5.28-2.02-3.85-4.26-7.59-6.73-11.94 3.35-.57 6.36-1.02 9.35-1.59 11.24-2.15 22.53-3.65 34.01-3.07 5.8.29 9.32 2.95 11.39 8.81-3.98 1.34-7.96 2.69-11.95 4.02-11.38 3.77-15.86 10.59-14.83 22.6.58 6.8 1.15 13.6 1.73 20.4.01.09.13.17.79.99 2.65-.45 5.96-.47 8.82-1.63 5.57-2.26 10.9-5.12 16.3-7.8 5.26-2.61 10.62-4.7 16.65-4.48 4.76.17 8.74 1.25 10.67 6.33.94 2.48 2.29 4.92 3.91 7.02 5.28 6.85 4.5 14.89 5.08 23.17-4.43-.32-8.63-.56-12.81-.99-.74-.08-1.49-.91-2.05-1.55-2.45-2.77-4.79-5.62-7.23-8.39-4.47-5.07-10.54-5.12-15.03-.17-6.62 7.29-13.32 14.52-19.8 21.94-1.17 1.35-1.76 3.43-2.05 5.26-.35 2.18-.08 4.47-.08 6.7 0 4.17.78 5.14 4.94 5.94.87.17 1.89.38 2.66.09 9.09-3.39 18.69-1.18 27.94-2.57 9.06-1.36 18.07-3.09 27.13-4.48 7.93-1.22 15.85-1.1 23.63 1.09 6.67 1.87 9.65 8.07 6.59 14.2-5.66 11.37-8.67 23.5-10.15 35.96-1.3 10.99-1.69 22.08-2.68 33.1-.15 1.67-1.02 3.7-2.24 4.79-9.95 8.87-21.93 13.72-34.76 16.47-7.31 1.57-14.78 2.48-22.21 3.38-2.57.31-4.05 1.49-5.24 3.54-4.32 7.46-3.88 15.37-2.58 23.49 1.1 6.83 2.16 13.71 2.41 20.6.32 8.76-6.94 16.35-16.43 17.64-5.63.77-11.42.51-17.01 1.45-4.35.73-8.54 2.5-12.71 4.03-1.02.38-1.9 1.53-2.52 2.52-4.18 6.62-5.2 13.96-4.58 21.6.6 7.5-.64 14.35-6.77 19.42-2.04 1.68-4.41 2.96-7.75 5.16zm40.31-133.67c-.2-1.34-.31-2.22-.47-3.09-1.45-8.25-2.95-16.41-1.78-24.95.9-6.62.83-13.4.78-20.1-.03-5.1-1.49-9.92-4.62-14.12-1.24-1.66-2.54-2.53-4.79-2.21-7.63 1.08-15.35 1.65-22.93 2.98-17.27 3.04-33.11 9.38-46.16 21.53-1.1 1.02-2.01 2.67-2.24 4.15-1.18 7.63-2.11 15.29-3.11 22.94-.86 6.57-1.29 13.1.59 19.63.89 3.09 2.39 3.77 5.53 3.34 15.18-2.1 30.4-3.92 45.61-5.85 11.08-1.4 22.16-2.8 33.59-4.25zm76.79-47.24c-.41-8.37-.77-16.75-1.31-25.12-.07-1.07-.94-2.78-1.74-2.98-2.1-.53-4.41-.71-6.57-.44-3.99.49-7.94 1.3-11.87 2.14-12.67 2.7-25.32 5.48-37.99 8.2-3.25.7-4.5 2.41-4.18 5.89.95 10.35 1.31 20.77 2.45 31.1.85 7.64 2.55 15.18 3.89 22.76.34 1.94 1.41 2.76 3.49 2.58 4.34-.36 8.72-.38 13.06-.79 11.06-1.06 22.03-2.6 31.68-8.73 1.4-.89 2.69-2.34 3.45-3.82 4.9-9.69 5.13-20.24 5.64-30.79z"/><path d="m23.22 208.45c.62-17.22 1.09-32.99 5.37-48.33 1.62-5.8 3.9-7.09 9.69-5.93 12.41 2.49 24.89 2.59 37.38.78 14.2-2.06 28.08-1.44 41.58 3.91 4.36 1.73 8.9 2.99 13.32 4.55 2.93 1.03 5.75 2.52 6.4 5.81.35 1.79.25 4.14-.66 5.62-2.11 3.41-3.5 6.85-3.85 10.89-.84 9.58-1.96 19.13-2.95 28.69-.08.78-.18 1.6-.01 2.34.9 3.94-.05 7.06-2.85 10.21-1.55 1.75-2.24 4.98-2.03 7.44.58 6.76-.32 13.08-3.37 19.15-1.2 2.39-2.25 4.89-3.02 7.45-2.92 9.73-10.26 14.31-19.48 15.67-16.15 2.38-32.11.28-47.82-3.81-.73-.19-1.43-.6-2.05-1.05-15.72-11.48-24.23-26.83-24.91-46.39-.21-6.15-.53-12.29-.74-17zm19.13-9.63c.25.11.51.22.76.33.31 2.09.56 4.2.98 6.27.14.67.66 1.72 1.14 1.8 5.24.88 10.49 1.79 15.78 2.21 1.12.09 3.21-1.63 3.45-2.8 1.37-6.78 2.49-13.62 3.36-20.48.44-3.48-.2-6.92-2.75-9.7-1.5-1.64-3-2.34-5.29-1.21-2.99 1.48-6.2 2.52-9.26 3.86-.86.38-1.99.99-2.26 1.76-2.06 5.95-3.96 11.97-5.91 17.96zm47.47 7.15c1.2.34 2.13.71 3.1.85 1.1.16 2.23.18 3.34.15 9.05-.25 14.21-4.52 15.75-13.3.5-2.83.55-5.76.56-8.65.02-4.69-2.46-7.71-6.77-9.34-5.55-2.11-7.12-1.78-11.1 2.35-1.24 1.29-2.54 2.52-3.7 3.88-.54.63-1.13 1.49-1.14 2.26-.08 7.24-.04 14.48-.04 21.8zm-26.3 35.52c.18-10.2-2.22-12.86-10.54-13.7-.44-.04-.89-.06-1.34-.1-6.18-.49-10.28 3.52-9.57 9.57.22 1.83.75 3.8 1.72 5.34 2.67 4.25 5.36 8.56 8.63 12.33 1.37 1.58 4.28 2.68 6.41 2.55 2.41-.15 3.53-2.65 3.71-5.27.3-4.23.77-8.45.98-10.72zm23.21 14.23c3.84-1.72 7.11-3.12 10.31-4.66.74-.35 1.48-1.07 1.82-1.81 2.07-4.44 4.09-8.91 6-13.42 1.07-2.54.53-5-1.62-6.66-5.47-4.23-8.15-5.19-14.23-.49-1.67 1.3-4.08 3.26-4.04 4.87.15 7.22 1.07 14.4 1.76 22.17z"/><path d="m233.71 209.41c.84 2.68-1.13 4.22-3.83 5.38-5.11 2.18-10.26 1.94-15.33.06-3.13-1.16-5.06-6.12-3.46-9.8 1.44-3.32 3.69-6.31 5.66-9.39.31-.48 1.03-.88 1.62-.99 7.88-1.36 14.19 3.42 15.1 11.38.1.89.13 1.79.24 3.36z"/><path d="m311.78 178.41c3.91.84 7.93 1.35 11.71 2.6 6.94 2.3 8.21 7.8 8.49 14.47.03.65-1.04 1.54-1.79 2.01-3.22 2-6.6 3.75-9.75 5.86-3.83 2.56-7.92 2.84-12.21 1.94-.75-.16-1.77-.78-1.99-1.42-2.59-7.42-4.1-14.79-.21-22.39 1.39-2.74 3.18-3 5.75-3.07z"/></g><path d="m6.4 11.7c-1-.8-1.9-1.6-2.9-2.3l.6-.7c.9.7 1.9 1.4 2.9 2.2zm-2.1 8.3c.7-2.1 1.4-4.2 2-6.4.2.1.6.3 1 .4-.7 2.3-1.3 4.4-1.9 6.4zm3-12.8c-1.1-.9-2.1-1.7-2.9-2.4l.6-.7c1 .8 2 1.5 3 2.4zm1.4-1.3v-.9h10.2v.9c-.9 4.2-2.3 7.3-4.1 9.4 1.3 1.4 3.2 2.7 5.7 4-.2.2-.4.5-.7.9-2.5-1.4-4.4-2.7-5.7-4.2-1.4 1.5-3.5 3-6.1 4.4 0 0 0 0-.1-.1-.3-.4-.5-.7-.7-.8 2.7-1.3 4.7-2.8 6.2-4.2-1.8-2.2-3-5.3-3.7-9.4zm9.2 0h-7.1c.6 3.8 1.7 6.7 3.4 8.7 1.7-2 2.9-4.8 3.7-8.7z" fill="#fafbfa"/><path d="m31.6 3.6h.9v2.3h4.1v9.1h1.7v.9h-16.6v-.9h1.7v-9.1h4.1v-2.3h.9v2.3h3.1v-2.3zm-4 13.3.6.8c-1.9.9-3.8 1.9-5.8 2.8-.2-.3-.3-.6-.5-.9 2-.9 3.9-1.8 5.7-2.7zm-3.2-10.1v3.7h3.1v-3.7zm0 4.5v3.7h3.1v-3.7zm4.1-4.5v3.7h3.1v-3.7zm0 4.5v3.7h3.1v-3.7zm9.1 9.1c-2.1-1.1-4.1-2-5.8-2.7l.5-.8c2.2.9 4.1 1.8 5.8 2.6zm-1.9-13.6h-3.1v3.7h3.1zm-3.2 4.5v3.7h3.1v-3.7z" fill="#fafbfa"/></svg>