<svg enable-background="new 0 0 400 400" viewBox="0 0 400 400" xmlns="http://www.w3.org/2000/svg"><path d="m5.17 384 .55-.58c.85.61 1.65 1.24 2.4 1.87l-.59.64c-.83-.73-1.62-1.38-2.36-1.93m1.22 9.53-.82-.34c.71-1.76 1.37-3.64 1.98-5.63.24.13.5.25.76.36-.6 1.67-1.24 3.54-1.92 5.61m-.5-13.5.57-.54c.56.44 1.31 1.06 2.26 1.87l-.64.64c-.68-.66-1.41-1.32-2.19-1.97m3.25.46h2.24v-1.36h.77v1.36h4.57v-1.36h.76v1.36h2.28v.69h-2.28v1.84h-2.64v1.26h4.18v2.64h-4.21c0 .45-.02.86-.05 1.21h4.32v.69h-4.38c-.04.34-.1.75-.19 1.22h5.15v.69h-4.82c.87 1.19 2.51 1.92 4.93 2.19-.17.31-.3.57-.37.76-2.77-.49-4.52-1.41-5.26-2.76-.56 1.26-2.3 2.23-5.24 2.9-.12-.24-.26-.48-.43-.72 2.73-.55 4.38-1.34 4.96-2.38h-4.38v-.69h4.65c.1-.38.17-.79.21-1.22h-4.32v-.69h4.4c.03-.34.05-.75.05-1.21h-4.2v-2.64h4.23v-1.26h-2.69v-1.84h-2.24zm1.46 4.46v1.29h3.45c.01-.4.02-.57.01-.53v-.32-.45h-3.46zm1.55-2.59h4.57v-1.19h-4.57zm6.11 2.59h-3.42v.77c-.01.19-.01.37-.02.53h3.44z" fill="#fafafc"/><path d="m32.63 379.16h.82v1.98h3.54v7.89h1.46v.78h-14.37v-.78h1.46v-7.89h3.54v-1.98h.82v1.98h2.73zm-3.49 11.48.5.73c-1.61.82-3.28 1.63-5 2.41-.13-.27-.28-.55-.44-.82 1.75-.72 3.4-1.49 4.94-2.32m-2.78-5.55h2.73v-3.18h-2.73zm0 3.95h2.73v-3.2h-2.73zm3.54-3.95h2.73v-3.18h-2.73zm0 3.95h2.73v-3.2h-2.73zm7.89 4.68c-1.84-.92-3.51-1.7-5.02-2.32l.45-.73c1.89.8 3.57 1.55 5.04 2.23zm-1.62-11.81h-2.73v3.18h2.73zm-2.73 7.13h2.73v-3.2h-2.73z" fill="#fafafc"/><path d="m82.43 267.13c6.81 0 13.5.11 20.18-.02 13.31-.26 26.61-.65 39.92-1 4.35-.11 6.14-1.4 6.25-5.95.15-6.01-.44-12.03-.75-18.05-.09-1.67-.41-3.32-.44-4.99-.26-16-.2-32.01-.84-47.99-.27-6.76-2.11-13.45-2.95-20.21-.34-2.72-1.82-3.35-4.03-3.18-8.47.63-16.93 1.28-25.39 2.01-5.3.46-10.51.52-15.43-1.92-2.16-1.07-3.48-2.53-3.24-5.26.13-1.47-.33-3.13-.95-4.51-1.59-3.55-1.4-6.99.33-10.35 12.63-24.58 20.25-51.06 28.7-77.18 2.34-7.23 2.3-15.21 3.62-22.79.76-4.38 2.01-8.68 3.13-12.99.46-1.76 1.64-2.4 3.56-2.11 12.98 2.02 25.85.19 38.77-1.07 4.95-.48 10.1-.47 14.98.36 7.13 1.22 13.87.52 20.86-.97 5.47-1.17 11.24-1.31 16.88-1.3 4.74.01 9.35.3 13.74-2.02.86-.45 2.57-.35 3.3.24 1.99 1.58 4.24 3.26 5.35 5.43 3.54 6.93 6.86 13.99 9.79 21.2 4.54 11.17 8.68 22.51 13.02 33.77 3.09 8.03 6.44 15.97 9.28 24.08 3.17 9.06 8.43 16.98 12.83 25.38 2.47 4.7 4.14 9.82 5.95 14.84.45 1.25.07 2.81.07 4.44-8.28.76-16.38 1.65-24.49 2.22-9.25.65-18.53.95-27.79 1.59-1.19.08-3 1.08-3.31 2.04-.84 2.59-1.61 5.44-1.39 8.1 1.29 15.82 2.45 31.68 4.47 47.42 1.75 13.61 4.6 27.08 6.96 40.61 1.28 7.31 5.89 8.24 11.78 8.09 4.2-.11 8.36-1.32 12.56-1.88 2.25-.3 4.63-.72 6.8-.32 8.46 1.55 16.88 3.37 25.3 5.15 5.01 1.06 7.55 5.84 5.45 10.43-1.95 4.25-2.81 8.54-1.03 12.98 2.49 6.2 1.69 12.5.99 18.84-.2 1.77-.47 3.58-.34 5.35 1.35 17.38-3.7 33.9-6.79 50.67-.58 3.16-3.36 3.56-6.02 3.47-1.08-.04-2.17-.53-3.19-.98-3.89-1.73-7.79-1.73-12.06-1.42-11.35.82-22.76 1.02-34.15 1.14-9.95.1-19.91-.24-29.87-.4-8.05-.13-16.1-.32-24.16-.4-1.18-.01-2.53.2-3.53.77-3.74 2.16-7.74 2.33-11.93 2.52-9.48.43-18.93 1.3-28.39 2.08-11.86.98-23.71 1.13-35.47-.8-7.07-1.16-13.82.54-20.57 1.73-4.72.83-9.1.45-12.78-2.06-2.23-1.52-4.22-4.56-4.74-7.22-1.42-7.33-2.03-14.82-2.93-22.25-2.03-16.73.36-33.26 2.27-49.82.83-7.22 1.07-14.5 1.59-21.75.05-1.01.13-1.99.27-3.79zm38.59-123.21c2.3-.17 3.62-.29 4.94-.36 13.5-.76 27-1.82 40.51-2.19 16.99-.47 34-.34 51.01-.57 2.75-.04 5.52-.44 8.22-.95 2.69-.5 5.29-1.64 7.99-1.98 7.74-.97 15.57-1.17 22.82-4.78 3.38-1.68 3.91-4.02 3.02-7.06-.52-1.79-1.58-3.43-2.45-5.11-1.68-3.28-3.56-6.46-5.05-9.82-8.29-18.81-16.54-37.63-24.65-56.52-1.22-2.85-2.72-4.08-5.9-4.02-17.66.34-35.32.33-52.97.83-5.07.14-10.13 1.45-15.15 2.47-2.61.53-4.18 2.26-5.36 4.92-10.55 23.88-16.64 49.3-25.68 73.7-1.22 3.36-.86 7.33-1.3 11.44zm109.55 100.86c-.5-5.34-1.66-10.26-1.28-15.06.86-10.73-.24-21.11-2.9-31.5-2.37-9.29-4.63-18.68-3.23-28.47.86-5.99-.82-8.47-6.79-9.85-2.46-.57-5.13-.98-7.61-.66-13.19 1.69-26.35 3.65-39.52 5.45-1.97.27-2.75.9-2.9 3.12-.29 4.32-1.18 8.59-1.76 12.89-.4 2.97-1.06 5.96-.96 8.92.59 18.11 1.41 36.21 2 54.32.09 2.66 1.12 3.09 3.42 3.07 14.1-.08 28.2.19 42.29-.14 6.53-.15 13.05-1.38 19.24-2.09z" fill="#010101"/></svg>