<svg enable-background="new 0 0 400 400" viewBox="0 0 400 400" xmlns="http://www.w3.org/2000/svg"><path d="m374.8 390.4.4-.4c.7.5 1.3 1 1.8 1.4l-.5.5c-.5-.6-1.1-1.1-1.7-1.5zm1 7.3-.6-.3c.5-1.4 1.1-2.8 1.5-4.3.2.1.4.2.6.3-.5 1.3-1 2.8-1.5 4.3zm-.4-10.3.4-.4c.4.3 1 .8 1.7 1.4l-.5.5c-.4-.5-1-1-1.6-1.5zm2.5.3h1.7v-1h.6v1h3.5v-1h.6v1h1.8v.5h-1.8v1.4h-2v1h3.2v2h-3.2v.9h3.3v.5h-3.4c0 .3-.1.6-.1.9h4v.5h-3.7c.7.9 1.9 1.5 3.8 1.7-.1.2-.2.4-.3.6-2.1-.4-3.5-1.1-4-2.1-.4 1-1.8 1.7-4 2.2-.1-.2-.2-.4-.3-.6 2.1-.4 3.4-1 3.8-1.8h-3.4v-.5h3.6c.1-.3.1-.6.2-.9h-3.3v-.5h3.4c0-.3 0-.6 0-.9h-3.2v-2h3.3v-1h-2.1v-1.4h-1.7v-.5zm1.1 3.5v1h2.7c0-.3 0-.4 0-.4 0-.1 0-.2 0-.2 0-.1 0-.2 0-.3h-2.7zm1.2-3v.9h3.5v-.9zm4.7 3h-2.6v.6.4h2.6z" fill="#fbfcfa"/><path d="m393.6 386.7h.6v1.5h2.7v6.1h1.1v.6h-11v-.6h1.1v-6.1h2.7v-1.5h.6v1.5h2.1v-1.5zm-2.7 8.8.4.6c-1.2.6-2.5 1.3-3.8 1.9-.1-.2-.2-.4-.3-.6 1.2-.6 2.5-1.2 3.7-1.9zm-2.2-6.7v2.4h2.1v-2.4zm0 3v2.5h2.1v-2.5zm2.8-3v2.4h2.1v-2.4zm0 3v2.5h2.1v-2.5zm6 6.1c-1.4-.7-2.7-1.3-3.9-1.8l.3-.6c1.5.6 2.7 1.2 3.9 1.7zm-1.2-9.1h-2.1v2.4h2.1zm-2.1 3v2.5h2.1v-2.5z" fill="#fbfcfa"/><g fill="#010106"><path d="m182.13 319.84c5.67 1.86 11.17 3.75 16.74 5.38.93.27 2.32-.33 3.25-.91 10.66-6.59 19.71-14.96 27.58-24.72 4.27-5.3 8.99-10.23 13.94-15.82 1.32 4.39.51 8.13-.65 11.73-4.6 14.27-11.56 27.07-23.15 37.03-15.29 13.13-30.59 26.24-48.37 36.02-5.98 3.29-12.22 5.97-19.11 6.68-.26-.25-.52-.5-.77-.75.83-.96 1.48-2.2 2.51-2.84 8.36-5.19 16.84-10.19 25.19-15.42 7.56-4.73 13.54-10.94 17.24-19.37-4.11-1.63-8.13-3.22-12.14-4.83-7.91-3.18-12.62-8.92-12.84-17.51-.07-2.8 1.19-5.83 2.53-8.4 1.66-3.2 1.63-5.88-.1-9.02-1.01-1.84-1.39-4.22-1.44-6.38-.82-34.62 2.04-69.11 3.71-103.65.35-7.15.77-14.31.94-21.46.03-1.39-.51-3.26-1.48-4.13-6.95-6.26-9.18-13.88-8.28-23.09.37-3.77 1.03-6.75 4.17-8.76 4.41-2.81 8.79-5.73 13.49-7.96 1.88-.89 4.58-.26 6.88-.01 7.13.78 13.59 3.41 19.64 7.26 11.48 7.32 10.55 18.51 4.96 28.12-.84 1.44-1.81 2.91-3.04 4-4.93 4.35-4.86 9.67-3.07 15.25 2.86 8.92 5.45 17.97 8.95 26.64 4.49 11.1 8.62 22.22 7.56 34.37-1.37 15.76-6.42 30-18.23 41.3-5.81 5.57-11.4 11.4-16.73 17.43-5.83 6.59-8.87 14.46-9.88 23.82zm4.36-34.67c7.2-7.63 14.36-15.17 21.46-22.77.65-.7 1.12-1.67 1.4-2.6 2.93-9.54 5.07-19.07 3.48-29.28-2.3-14.83-4.69-29.58-10.57-43.5-2.25-5.32-4.99-10.36-9.14-15.13-.96 2.23-1.78 3.91-2.41 5.66-4.16 11.67-4.86 23.81-4.76 36.04.15 18.45.37 36.9.54 55.34.04 5.32 0 10.65 0 16.24z"/><path d="m151.99 123.31c-1.69-5.32-.78-9.77 1.42-14.35 12.75-26.47 25.33-53.03 37.98-79.56.51-1.08 1.08-2.13 1.98-3.9 5.97 9.13 14.59 15.49 18.02 25.99 6.03 18.48 12.78 36.71 19.08 55.11 1.28 3.75 1.89 7.72 2.82 11.63-7.07 1.11-7.3 1-10.17-4.6-.36-.7-.79-1.37-1.02-2.11-2.84-9.04-9.8-12.65-18.46-13.68-10.4-1.23-20.79-1.08-30.94 1.84-1.54.44-3.17 1.7-4.06 3.04-2.79 4.18-5.22 8.6-7.84 12.89-2.08 3.39-4.73 6.15-8.81 7.7zm59.85-35.57c-5.28-13.7-6.05-28.17-17.65-38.05-1.75 1.86-3.81 3.39-5.01 5.43-4.14 7.02-8.21 14.09-11.81 21.39-1.53 3.1-2 6.78-2.64 10.25-.34 1.86.59 3.01 2.84 3.08 6.92.21 13.85 1.02 20.75.78 4.33-.15 8.6-1.78 13.52-2.88z"/></g></svg>