<svg enable-background="new 0 0 400 400" viewBox="0 0 400 400" xmlns="http://www.w3.org/2000/svg"><path d="m374.8 390.4.4-.4c.7.5 1.3 1 1.8 1.4l-.5.5c-.5-.6-1.1-1.1-1.7-1.5zm1 7.3-.6-.3c.5-1.4 1.1-2.8 1.5-4.3.2.1.4.2.6.3-.5 1.3-1 2.8-1.5 4.3zm-.4-10.3.4-.4c.4.3 1 .8 1.7 1.4l-.5.5c-.4-.5-1-1-1.6-1.5zm2.5.3h1.7v-1h.6v1h3.5v-1h.6v1h1.8v.5h-1.8v1.4h-2v1h3.2v2h-3.2v.9h3.3v.5h-3.4c0 .3-.1.6-.1.9h4v.5h-3.7c.7.9 1.9 1.5 3.8 1.7-.1.2-.2.4-.3.6-2.1-.4-3.5-1.1-4-2.1-.4 1-1.8 1.7-4 2.2-.1-.2-.2-.4-.3-.6 2.1-.4 3.4-1 3.8-1.8h-3.4v-.5h3.6c.1-.3.1-.6.2-.9h-3.3v-.5h3.4c0-.3 0-.6 0-.9h-3.2v-2h3.3v-1h-2.1v-1.4h-1.7v-.5zm1.1 3.5v1h2.7c0-.3 0-.4 0-.4 0-.1 0-.2 0-.2 0-.1 0-.2 0-.3h-2.7zm1.2-3v.9h3.5v-.9zm4.7 3h-2.6v.6.4h2.6z" fill="#fbfcfa"/><path d="m393.6 386.7h.6v1.5h2.7v6.1h1.1v.6h-11v-.6h1.1v-6.1h2.7v-1.5h.6v1.5h2.1v-1.5zm-2.7 8.8.4.6c-1.2.6-2.5 1.3-3.8 1.9-.1-.2-.2-.4-.3-.6 1.2-.6 2.5-1.2 3.7-1.9zm-2.2-6.7v2.4h2.1v-2.4zm0 3v2.5h2.1v-2.5zm2.8-3v2.4h2.1v-2.4zm0 3v2.5h2.1v-2.5zm6 6.1c-1.4-.7-2.7-1.3-3.9-1.8l.3-.6c1.5.6 2.7 1.2 3.9 1.7zm-1.2-9.1h-2.1v2.4h2.1zm-2.1 3v2.5h2.1v-2.5z" fill="#fbfcfa"/><path d="m122.25 374.6c-2.18-4.32-1.44-8.69-.68-12.91 1.15-6.34 3.08-12.29 6.22-18.18 3.39-6.35 4.89-13.83 6.46-20.99 2.42-11.09 5.94-21.72 10.69-32.04 7.53-16.34 14.53-32.93 22.13-49.23 3.3-7.07 7.58-13.68 11.32-20.55.66-1.22 1.33-2.7 1.25-4.02-.88-14.75-1.9-29.48-2.89-44.22-.03-.44-.15-.88-.4-2.21-1.78.78-3.66 1.11-4.85 2.19-9.42 8.6-18.73 17.33-28.03 26.08-.86.8-1.73 1.9-1.97 3-.94 4.4-3.74 7.41-6.73 10.52-5.03 5.24-9.69 10.83-14.53 16.25-1.04 1.17-2.04 2.41-3.27 3.36-3.08 2.39-6.84 2.52-9.76.6-1.65-1.09-2.66-4.38-2.54-6.61.19-3.72 1.42-7.41 2.43-11.06.22-.78 1.23-1.57 2.05-1.93 6.02-2.66 10.98-6.68 14.31-12.28 7.53-12.65 17.8-22.85 28.04-33.21 6.48-6.55 12.07-14.05 17.59-21.47 3.25-4.37 4.25-9.64 3.98-15.26-.64-13.08-.9-26.17-1.31-39.26-.12-3.79-2.74-5.94-6.56-5.61-13.92 1.23-27.83 2.52-41.77 3.47-3.61.25-7.41-.25-10.93-1.17-5.75-1.49-8.71-6.19-8.49-12.14.07-1.78.61-2.69 2.53-3.24 11.06-3.17 22.39-4.35 33.82-4.57 6.47-.12 12.95.26 19.42.6 6.34.33 10.38-2.22 11.13-8.44.71-5.84.62-11.8.48-17.7-.14-6.26 1.28-11.71 6.18-15.96 1.56-1.35 3.06-1.53 4.87-.64 6.62 3.29 8.16 9.35 8.71 15.93.49 5.79.87 11.59 1.31 17.38.04.55.21 1.1.36 1.63 1.46 5.3 2.11 5.88 7.61 5.77 21.36-.41 42.73-.95 64.09-1.27 5.09-.08 10.24.16 15.27.87 3.68.52 7 2.38 8.88 5.96 1.02 1.94 1.01 3.36-1.35 4.56-8.99 4.58-18.59 6.23-28.53 6.47-20.8.51-41.6 1.03-63.16 1.56-.39 5.27-1.8 10.83-.99 16.04 1.66 10.63 1.56 21.1.51 31.72-.5 5.04 1.02 9.42 6.14 12.22 13.37 7.31 24.1 18.14 35.78 27.67 12.31 10.03 24.18 20.61 36.12 31.08 1.96 1.72 3.73 3.94 4.82 6.29 1.67 3.61.12 5.26-3.73 6.18-4.67 1.11-8.17-.38-12.08-2.84-21.59-13.61-40.19-31.03-60.22-46.61-.61-.48-1.23-.95-2.43-1.87-.62 2.91-1.64 5.44-1.62 7.97.08 9.71.49 19.43.79 29.14.03 1 .35 2.02.23 3-1.01 8.88 1.44 16.81 5.52 24.68 11.83 22.8 18.78 47.56 28 71.42 2.85 7.37 5.61 14.69 9.53 21.69 7.18 12.82 9.88 27.23 12.29 41.6.2 1.21.55 2.46.44 3.65-.17 1.76 1.6 4.1-1.37 5.15-2.76.98-4.93 1.31-7.23-1.58-9.8-12.33-16.56-26.19-22.07-40.83-5.82-15.47-12.09-30.78-17.99-46.23-2.31-6.05-3.94-12.36-6.27-18.39-1.43-3.7-3.19-7.43-5.58-10.56-2.74-3.58-4.7-3.12-6.9.71-4.14 7.17-8.43 14.25-12.34 21.54-2.14 3.99-3.6 8.34-5.41 12.5-.49 1.12-1.04 2.22-1.73 3.23-5.35 7.86-10.84 15.63-16.07 23.57-1.56 2.37-2.67 5.11-3.57 7.83-3.69 11.13-6.86 22.44-10.93 33.43-2.64 7.24-7.54 13.1-15.02 16.57z" fill="#010106"/></svg>