<svg enable-background="new 0 0 400 400" viewBox="0 0 400 400" xmlns="http://www.w3.org/2000/svg"><g fill="#010106"><path d="m174.27 236.74c-3.6-7.17-4.29-14.4-2.77-21.82 1.75-8.53 2.8-16.97-.27-25.46-1.34-3.7-3.46-6.63-7.13-7.96-6.67-2.41-11.78-6.6-15.92-12.29-2.56-3.52-5.39-6.88-8.38-10.06-3.66-3.89-5.39-8.69-7.04-13.56-3.7-10.92-5-22.23-5.13-33.69-.17-14.77.06-29.55-.32-44.32-.19-7.47-1.67-14.91-1.96-22.38-.21-5.21.36-10.48 1.03-15.67.51-4.01 2.34-4.83 6.39-3.55 10.34 3.26 20.65 6.63 31.01 9.81 9.33 2.87 18.47 5.87 26.06 12.53 4.01 3.52 9.17 2.82 13.48-.4 9.89-7.36 21.37-11.23 33.12-14.05 6.54-1.57 13.45-1.63 20.2-2.29 2.99-.29 4.7 1.53 5.98 3.99 3.58 6.83 2.9 14.1 2.23 21.35-.2 2.22-1.16 4.46-.98 6.62 1.28 15.16-3.38 29.43-6.4 43.94-1.69 8.1-3.36 16.21-5.39 24.22-3.38 13.37-8.87 25.76-18.15 36.2-5.52 6.21-7.93 13.43-6.98 21.66.58 5.1 1.81 10.15 2.19 15.26.45 5.89.6 11.83.28 17.72-.21 4-1.97 7.54-7.28 9.14-1.83-6.2-3.96-12.15-5.27-18.27-1.12-5.22-1.21-10.65-1.89-15.96-.76-5.9-3.47-9.38-9.33-10.29-5.01-.77-10.21-.41-15.31-.28-.78.02-2.03 1.42-2.21 2.34-1.54 7.76-2.93 15.56-4.26 23.36-.81 4.73-1.11 9.56-2.21 14.22-.95 4.06-2.94 7.73-7.39 9.94zm12.76-107.34v.66c10.06 0 20.13-.11 30.19.04 6.28.09 12.57.47 18.39-2.41 1.18-.59 2.37-2.02 2.7-3.29 1.58-6.05 2.75-12.21 4.33-18.26.59-2.24-.07-3.57-1.95-4.26-4.28-1.57-8.55-3.9-12.95-4.21-14.26-1.02-28.57-1.29-42.86-1.81-.88-.03-1.76.27-2.65.38-6.63.84-13.24 2.04-19.9 2.39-6.92.36-13.23 1.95-18.75 6.18-.74.57-1.79 1.5-1.75 2.21.4 6.42-.63 13 2.22 19.17 1.06 2.31 2.35 3.32 5.05 3.28 12.64-.16 25.29-.07 37.93-.07zm-34.54 17.35c4.57 6.41 8.54 12.07 12.64 17.64.59.8 1.74 1.39 2.75 1.66 7.43 2.01 14.89 3.9 22.33 5.85 8.12 2.13 15.28.17 21.48-5.27 4.62-4.04 9.04-8.31 13.55-12.47 2.17-2 2.79-4.72 1.42-6.97-.98-1.6-3.39-3.08-5.27-3.23-6.21-.49-12.48-.58-18.71-.41-14.39.39-28.77.96-43.14 1.6-2.21.09-4.36.97-7.05 1.6zm37.2-68.07c-2.35-6.06-3.23-12.38-6.7-16.53-9.78-11.7-23.21-17.41-38.16-19.6-2.34-.34-4.96 2-5.1 4.65-.59 10.9.49 21.65 3.26 32.22.49 1.85 1.47 2.63 3.65 2.39 5.44-.59 10.92-.8 16.39-1.19 8.45-.6 16.91-1.23 26.66-1.94zm38.1 2.94c.02.14.05.27.07.41 3.75-.43 7.6-.46 11.21-1.4 5.19-1.36 9.42-4.03 9.69-10.33.2-4.68.83-9.34 1.01-14.02.07-1.85-.32-3.82-.94-5.57-1.23-3.43-3.22-4.11-6.43-2.49-10.25 5.21-20.49 10.44-30.74 15.65-4.27 2.17-4.76 3.05-4.27 7.84.57 5.71 3.47 8.57 9.05 8.99 3.78.28 7.56.61 11.35.92z"/><path d="m93.26 153.48c3.16.4 4.88 2.02 5.35 4.7.73 4.18 1.84 8.42 1.69 12.59-.47 13.18 1.04 26.1 3.65 38.97 1 4.92 1.24 9.98 1.96 14.96.46 3.13 1.97 5.44 5.43 5.73 6.99-9.5 13.59-19.22 23.72-25.42 4.53 3.16 4.05 11.06.93 14.5-2.98 3.28-5.44 7.11-7.67 10.97-2.67 4.62-4.85 9.52-7.58 14.97 5.87 2.25 11.33 4.4 16.83 6.44 3.77 1.4 7.64 2.54 11.36 4.04 1.72.7 3.39 1.79 4.75 3.06 3.17 2.94 2.67 5.91-1.12 7.88-5.48 2.85-10.97 2.24-16.57.27-4.09-1.44-8.2-3.07-12.44-3.7-5.06-.75-6.26.87-7.12 5.79-.68 3.9-2.05 7.68-3.05 11.53-.5 1.93-1.15 3.87-1.24 5.83-.76 16.43-1.59 32.81-4.57 49.07-.91 4.95 1.06 10.38 1.31 15.61.21 4.33.21 8.74-.4 13.02-.68 4.74-3.49 8.32-8.84 11.05-1.33-5.06-3.48-9.7-3.61-14.4-.41-14.63-.16-29.28.05-43.91.11-7.83.69-15.65.97-23.47.54-14.87 1.02-29.75 1.5-44.63.04-1.21.16-2.59-.32-3.63-6.01-13.08-6.59-27.28-8.6-41.19-1.95-13.49-2.38-26.97.81-40.36.8-3.44 1.86-6.84 2.82-10.27z"/><path d="m217.23 271.9c6.57-1.83 12.48-.33 18.41.53 3.87.56 7.75 1.11 11.58 1.85 8.18 1.57 15.96-.44 24.2-2.46-5.18-20.41-8.92-41.08-19.29-60.87 5.05.97 9.03 1.62 12.94 2.57.72.17 1.31 1.44 1.71 2.32 4 8.85 7.87 17.76 11.93 26.59 2.31 5.01 4.91 9.9 7.67 15.43 2.57-4.66 3.72-8.4.36-12.44 5.04-2.46 5.99-6.71 5.99-11.39.02-18.91.03-37.82.05-56.72 0-1.19 0-2.37 0-3.85 3.9.83 5.74 3.38 6.5 6.45 1.49 6.06 2.83 12.19 3.77 18.36 2.58 16.84 4.17 33.74 1.78 50.77-1.15 8.23-3.97 15.95-8.59 22.7-5.21 7.61-6.17 14.97-2.09 23.3 2.38 4.84 2.48 10.15 2.6 15.62.13 6.03 1.89 12.13 3.64 17.99 2.53 8.48 1.26 17.06 1.46 25.59.09 3.83-1.91 5.28-5.44 5.33-2.49.04-3.73-.89-4.33-3.48-4.86-21.01-9.97-41.95-14.72-62.98-.74-3.27-2.26-3.81-5.12-4.09-12.67-1.23-25.34-2.52-37.96-4.15-5.45-.7-10.17-3.41-13.71-7.76-1.21-1.54-2.12-3.31-3.34-5.21z"/></g><path d="m385.2 377.6.6-.7c.6.4 1.3.9 1.9 1.5l-.6.7c-.8-.5-1.4-1-1.9-1.5zm.3 7.1c.6-1.4 1.1-2.9 1.5-4.5.3.1.6.3.9.4-.5 1.4-1 2.9-1.5 4.4zm.2-10.1.6-.6c.7.5 1.3 1.1 1.9 1.6l-.7.7c-.6-.6-1.2-1.2-1.8-1.7zm8.4-.8h.8v.9h1.8v.7h-1.8v1.8h-.8v-.3h-1.2v.9h3.3v2.6h-.8v-.4h-2.5c0 .3 0 .6-.1.8h3.4v.7h-3.5c0 .3-.1.6-.1.8h4v.7h-3.5c.7.9 1.9 1.3 3.6 1.5-.2.2-.4.5-.6.9-1.9-.3-3.2-1.1-3.8-2.3-.5 1.1-1.8 2-3.9 2.4-.2-.3-.4-.5-.6-.8 1.9-.4 3.1-.9 3.6-1.7h-3.2v-.7h3.5c.1-.2.1-.5.2-.8h-3.3v-.7h3.4c0-.2 0-.5 0-.8h-2.4v.3h-.8v-2.6h3.3v-.9h-1.2v.3h-.8v-1.8h-1.8v-.7h1.8v-.9h.8v.9h3.2zm-4.4 5.5h2.4c0-.3 0-.6 0-.9h-2.4zm1.2-3.1h3.2v-.8h-3.2zm4.4 2.2h-2.4v.9h2.5v-.9z" fill="#fcfbfa"/><path d="m389.2 385.8h.9v1.5h1.9v-1.5h.9v1.5h2.7v6h1.1v.9h-11.3v-.9h1.1v-6h2.7zm.2 8.7.5.8c-1.2.6-2.5 1.3-4 1.9-.2-.3-.3-.6-.6-.8 1.6-.6 3-1.3 4.1-1.9zm-2-4.3h1.9v-2.1h-1.9zm0 3.1h1.9v-2.2h-1.9zm2.7-3.1h1.9v-2.1h-1.9zm0 3.1h1.9v-2.2h-1.9zm2.4 1.3c1.4.6 2.7 1.2 4.1 1.8l-.5.9c-1.5-.7-2.8-1.4-4.1-1.9zm2.2-6.5h-1.9v2.1h1.9zm-1.9 5.2h1.9v-2.2h-1.9z" fill="#fcfbfa"/></svg>