<svg enable-background="new 0 0 400 400" viewBox="0 0 400 400" xmlns="http://www.w3.org/2000/svg"><path d="m12.4 4.8-6.1 9h6v1.2h-8v-.5l6.1-8.9h-5.7v-1.2h7.6v.4z" fill="#fafafb"/><path d="m14 15v-10.6h3c1.6 0 2.9.5 4 1.4s1.6 2.2 1.6 3.8-.5 3-1.6 3.9-2.4 1.5-4 1.5zm1.4-9.4v8.2h1.6c1.3 0 2.4-.4 3.1-1.1s1.1-1.8 1.1-3.1-.4-2.3-1.2-3-1.8-1-3.1-1z" fill="#fafafb"/><path d="m26.1 4.4v10.6h-1.4v-10.6z" fill="#fafafb"/><path d="m36.1 14.6c-.8.4-1.8.6-2.9.6-1.5 0-2.7-.5-3.6-1.4s-1.4-2.2-1.4-3.8c0-1.7.5-3.1 1.5-4.1s2.3-1.6 3.9-1.6c1 0 1.8.1 2.5.4v1.4c-.8-.4-1.6-.6-2.5-.6-1.2 0-2.1.4-2.9 1.2s-1.1 1.8-1.1 3.2c0 1.3.3 2.3 1 3s1.6 1.1 2.7 1.1c1 0 2-.2 2.7-.7v1.3z" fill="#fafafb"/><path d="m37.6 14.3c0-.2.1-.5.3-.6s.4-.3.6-.3c.3 0 .5.1.6.3s.3.4.3.6-.1.4-.3.6-.4.3-.6.3c-.3 0-.5-.1-.6-.3s-.3-.4-.3-.6z" fill="#fafafb"/><path d="m50.2 15h-1.6l-5.3-8.2c-.2-.2-.3-.5-.4-.7 0 .2.1.7.1 1.5v7.4h-1.4v-10.6h1.7l5.2 8.1c.2.4.4.6.4.7 0-.3-.1-.8-.1-1.5v-7.3h1.4z" fill="#fafafb"/><path d="m58.6 15h-5.7v-10.6h5.5v1.2h-4.1v3.4h3.8v1.2h-3.8v3.6h4.3z" fill="#fafafb"/><path d="m67.1 5.6h-3.1v9.4h-1.4v-9.4h-3v-1.2h7.5z" fill="#fafafb"/><g fill="#010105"><path d="m283.25 326.61c-.39-4.02-.78-8.03-1.23-12.63-.28-.05-1.51-.28-1.94-.36-1.39-3.04-2.56-5.62-3.76-8.26.46.08 1.11.2 1.8.33-.65-5.24-.65-5.24-5.68-7.83-6.03 3.23-11.55 6.31-17.2 9.1-1.45.71-4.47 1.2-4.83.61-1.2-1.96-1.75-4.43-2.08-6.77-.19-1.34 1.27-3.32.71-4.1-.99-1.39-2.95-2.1-5.42-3.68.4 3.62.7 6.29 1 8.93-3.62 1.17-6.63.89-9.03-2.46-.99-1.38-2.74-2.21-4.33-3.42-1.34 2.36-4.57 3.48-3.13 6.88.1.24-.07.71-.27.93-2.46 2.7-2.64 5.78-1.93 9.22.48 2.32-.27 4.4-1.98 6.39-1.03 1.2-.88 3.42-1.2 4.85-1.16.67-2.29 1.56-3.57 1.97-1.2.39-2.79.78-3.81.31-5.7-2.64-10.09-.43-14.2 3.34-1.23 1.13-2.53 2.19-3.78 3.26-1.25-.53-2.44-1.05-3.81-1.63.6-3.03-1.61-4.05-3.91-4.74-2.5-.76.87-5.4-3.02-4.49.11-1.75.19-3.23.28-4.7-.3-.07-.6-.14-.9-.21 2.61-3.03 4.48-7.03 9.48-6.92.52.01 1.36-.5 1.54-.96 2.03-5.31 7.56-6.19 11.54-8.95.81-.56 2.93.76 3.81 1.66 1.7 2.86 3.41 5.72 5.09 8.54 2.19-.85 2.3-.85 2.94-7.92.24-2.68.23-5.51-.35-8.12-.64-2.92-2.05-5.68-3.22-8.76-.14.07.24-.08.57-.3 1.36-.9 3.96-2.14 3.82-2.66-.54-2.06-1.47-4.67-3.11-5.65-4.59-2.74-4.82-2.65-4.61-8.06.1-2.68.37-5.44-.13-8.02-.45-2.33-1.86-4.47-2.85-6.7-.49-.08-.97-.17-1.46-.25-2.07 2.34-4.1 4.7-6.2 7-2.03 2.23-4.12 4.4-6.1 6.5-5.92-3.12-7.52-7.36-4.47-12.8-4.61-3.27-8.89-6.3-12.55-8.9-2.41 2.43-4.36 4.43-6.36 6.38-1.26 1.23-2.59 2.2-4.32.6-.34-.31-1.09-.51-1.5-.36-3.3 1.26-4.94-.84-6.41-3.15-.65-1.03-1.01-2.24-1.55-3.34-1.61-3.3-1.61-3.29-5.91-3.35 3.21-3.39 1.7-6.79 1.18-10.45-.55-3.95.46-8.11.66-12.18.1-2.06-.09-4.13-.53-6.2 1.67-3.03 7.07-2.33 7.56-7.36 1 .1 1.86.34 2.68.25 1.22-.13 2.92-.12 3.48-.87.59-.8.56-2.71-.02-3.6-1.21-1.86-2.72-3.76-4.56-4.94-2.16-1.39-3.75-2.61-3.48-5.47.08-.84-.83-1.78-1.29-2.67-.33.01-.65.01-.98.02-.57 1.59-.9 3.33-1.77 4.75-1.6 2.61-3.35 5.16-5.35 7.48-1.84 2.13-2.67 3.89.47 5.7-.76 1-1.42 1.86-2.2 2.89.7.88 1.44 1.81 1.56 1.97-1.1 1.9-2.74 3.42-2.58 4.72.32 2.5 1.66 4.87 2.63 7.42-.06 1.21-.08 2.87-.26 4.5-.13 1.12-.22 2.39-.79 3.3-2.89 4.64-5.92 9.19-9.01 13.93 1.75 1.31 3.12 2.78 5.27.88.4-.36 1.46-.06 2.19.05 1.82.29 3.62.66 5.71 1.05.43 2.61.91 5.46 1.45 8.71 2.21 0 4.43.17 6.62-.04 2.66-.25 4.62.85 5.22 3.19 1.07 4.19 1.93 8.5 2.17 12.8.06 1.01-2.57 2.56-4.22 3.15-1.2.43-2.82-.32-4.54-.58.47-1.05.89-1.99 1.31-2.94-5.14-6.47-6.89-7.5-13.54-7.88.27-.96.53-1.87.83-2.94-.84-.11-1.57-.2-2.54-.33.65-2.91-1.04-3.56-3.45-3.88-2.76-.37-5.47-1.13-8.3-1.75.4-.92.8-1.82 1.28-2.89-.75-.51-1.44-1.04-2.17-1.49-3.38-2.09-4.01-5.74-1.86-9.17.64-1.02.3-2.6.71-3.83.36-1.07 1.14-2 1.32-3.22 5.88-2.02 3.98-7.82 3.75-11.29s2.38-8.95-3.53-11.04c.89-1.92 1.86-3.79 2.64-5.74 1.52-3.81 1.04-4.61-3.17-5.49 3.12-5.42-2.7-8.46-3.2-13.04 4.57-2.62 4.99-6.34 1.02-10.21-.42-.41-.73-1.13-.74-1.72-.09-6.79-.13-13.58-.15-20.37-.02-7.56-5.69-15.28-13.65-17.98-.27 4.94-4.4 5.19-7.81 6.72-1.47.66-2.48 2.84-3.21 4.54-.75 1.74-1.48 2.87-3.58 2.74-5.57-.35-5.58-.3-6.33 5.64.85.14 1.7.27 2.59.41-.06.32-.09.64-.19.95-.29.91-.99 1.88-.83 2.7.26 1.38 1.47 2.19 1.19 4.18-.26 1.91 2.23 1.61 3.5.4 2.5-2.4 4.94-4.88 7.23-7.48 1.41-1.61 3.01-2.61 4.88-1.47 1.1.67 1.96 2.13 2.42 3.42 1.62 4.56 3.56 9.11 4.37 13.84.88 5.14.69 10.47.79 15.72.01.59-1.1 1.23-1.73 1.8-3.34 2.99-3.23 5.13.33 7.68 1.45 1.04 2.88 2.14 4.19 3.35 3.95 3.65 3.93 3.68 1.16 8.16-.23.38-.77.96-.67 1.11 2.58 3.71-2.4 4.65-2.58 7.13-.25 3.41-.06 6.89.32 10.29.65 5.9.82 6-4.61 8.28-2.84 1.19-5.89 1.88-9.45 2.99.29 2.93.68 7.02-2.91 9.94-3.5-.86-2.83-.82-3.12 3.05-.33 4.43-.72 10-3.43 12.8-3.23 3.34-5.1 6.74-6.87 10.77-.86 1.96-3.65 3.05-5.54 4.57-1.47 1.18-2.88 2.43-4.92 4.16 1.78.48 2.51.87 3.21.83 5.67-.36 9.76 3.35 14.58 5.23 3.74 1.46 8.75 1.76 12.5.51 4.18-1.39 5.4-6.3 5.61-10.7.12-2.52-3.98-4.8-6.6-3.84-1.28-1.48-2.59-3-3.9-4.53.27.02.53.03.8.04.44-2.34.7-4.73 1.39-6.99.4-1.31 1.34-3.28 2.29-3.44 3.31-.56 3.36-2.26 2.2-4.74 1.53-.23 2.86-.39 4.17-.63 3.69-.7 6.94-.83 9.96 2.42 2.64 2.84 4.17 2.27 9.73-2.09-.71 1.92-1.15 3.1-1.6 4.31 2.4 3.1 2.2 3.69-1.02 5.78-1.72 1.12-3.14 2.71-4.89 4.26 2.61 3.02 1.28 4.83-1.21 6.68-1.82 1.35-3.21 3.28-4.82 4.98 1.96 1.6 3.36 3.11 5.08 4.01 1.22.64 3.32 1.1 4.21.48 1.05-.74 1.22-2.73 1.96-4.67 1.95-.16 2.37-6.06 7.07-2.94.08.34.29 1.26.5 2.18.17-.17.34-.35.51-.52 1.18.99 2.28 2.08 3.54 2.94 3.01 2.06 6.41 5.94 9.08 5.51 3.06-.5 5.35.64 7.97.8 5.62.34 7.33 3.63 4.83 8.78-.38.79-.97 1.47-1.3 1.95.74 4.39 6.86 6.49 4.48 11.41 1.64 2.98 3.3 5.61 4.53 8.44.49 1.11.55 3.17-.14 3.87-1.22 1.25-2.72 3.05-5.18 1.44-.73-.48-2.3.32-4.02.63-.38-.26-1.29-.89-2.34-1.62-.83.57-1.72 1.17-2.61 1.78 4.16-4.77-2.3-7.63-2.14-11.66.01-.18-1.28-.66-1.9-.58-3.24.44-4.74-1.37-4.76-4.14-.03-3.69-1.68-5.99-4.68-7.88-1.26-.8-2-2.48-2.83-3.85-.5-.82-.72-1.81-1.06-2.73-.97.5-1.97.96-2.9 1.53-.34.21-.53.67-.87 1.12.8 1 1.56 1.95 2.45 3.05-.56.74-1.13 1.49-1.77 2.33 1.83 2.83 3.59 5.56 5.57 8.63-.3.67-.89 2.05-1.54 3.52 1.44.7 2.61 1.27 4.06 1.98-.43.68-.74 1.18-1.2 1.89.78.7 2.62 1.25 1.24 3.09-.12.17 1.06 1.55 1.83 2.11 3.01 2.2 2.66 5.18 1.96 8.2-.11.48-.82.97-1.35 1.16-.6.22-1.33.09-2 .14-6.74.54-7.56 1.44-7.98 9.73 1.53-1.02 2.61-1.62 3.55-2.39 1.46-1.2 2.74-2.91 4.85-1.05.16.14.51.34.58.28 3.28-2.72 4.99.75 7.39 1.73 1 .41 2.42-.2 3.81-.37 3.22 4.23 3.21 4.57-.65 8.62 2.92 3.11-1.93 8.56 3.93 11.5.77-1.23 1.6-2.56 2.74-4.39 1.05 2.31 1.66 3.67 2.28 5.02-.21-.02-.43-.04-.64-.05-.11 1.32-.77 3.41-.21 3.83 1.53 1.13 3.81 2.45 5.39 2.05 3.01-.75 4.07.18 4.69 2.91-10.19-1.98-20.17-.6-30.15.14-2 .15-4.01.93-4.27-2.41-.14-1.8-8.45-5.07-10.13-4.09-1.58.92-3.18 2.07-4.27 3.5-1.35 1.75-2.69 2.64-5 2.6-7.39-.14-14.78.03-22.16-.12-1.47-.03-2.92-.95-4.31-2.04-5.71 4.88-12.25 2.29-18.93 1.56.34-4.26.65-8.24.96-12.2 4.07-.11 2.5-.43 3.22-4.09.86-4.35-2.8-5.76-3.08-8.72-.42-4.38-.61-8.91.12-13.2.24-1.4 3.61-2.92 5.7-3.18 3.41-.43 4.65-1.48 5.7-4.66 1.78-5.4-.91-9.48-3.09-13.83-1.37-2.73-.58-6.79 1.91-8.7-1.39-.54-2.58-1-4.03-1.57-1.71 4.9-3.36 9.63-5.02 14.37-.56 0-1.12 0-1.68 0-.52-1.72-1.74-3.56-1.47-5.14 2.87-16.27.97-32.59.78-48.89-.03-2.55.08-4.52 2.13-6.8 2.61-2.91 1.03-6.95-.12-10.46-.17-.51-.56-.94-.91-1.5.55-.86 1.09-1.7 1.75-2.74-3.92-4.12-3.77-9.36-3.85-14.06 3.35-.4 6.55-.36 9.42-1.31 1.23-.41 2.16-2.77 2.58-4.41 1.23-4.86.71-5.59-4.34-7.28-.07.76-.13 1.46-.19 2.06-2.15.73-4.27 1.45-6.63 2.24-.33-6.07-.67-12.07-.96-18.08-.03-.63.01-1.63.37-1.85 3.46-2.02 3.69-5.62 4.71-8.9.48-1.56 1.56-2.93 2.32-4.32-.57-4.98-1.14-9.98-1.8-15.68-1.89 1.21-2.78 1.79-4.48 2.89-.54-2.01-1.34-3.65-1.35-5.29-.19-22.16-.24-44.32-.38-66.48-.14-23.95-.34-47.9-.5-71.85-.01-1.54 0-3.08 0-5.04 2.98.22 5.61.55 8.25.6 7.25.11 14.51.21 21.76.13 18.12-.2 36.24-.57 54.37-.74 12.76-.12 25.52-.06 38.28.03 1.45.01 2.89.73 3.47.88 5.56-.34 10.39-.83 15.22-.89 10.74-.13 21.49-.06 32.24-.03 3.18.01 4.4 1.7 3.93 4.91-.15 1.01.06 2.2.48 3.15.84 1.94 2.35 3.68 2.83 5.68.85 3.54 4.14 4.1 6.44 5.65 1.88 1.28 3.78-.18 4.77-2.28.89-1.88 1.12-3.43-.9-4.96-2.25-1.71-4.18-3.83-6.46-5.98 5.18-3.91 9.55-6.89 15.79-6.31 6.33.59 12.75 0 19.13.2 2.2.07 4.35 1.27 6.55 1.44 1.63.13 3.33-.58 5.54-1.03-.79 8.59 1.98 17.48-3.01 25.51 4.35 4.45 4.36 7.27.34 12.13-.94 1.13-1.66 2.44-2.82 4.16-1.1.57-2.98 1.53-4.86 2.49.14.36.28.72.42 1.08 1.01-.23 2.03-.46 3.32-.76-1.02 1.92-1.96 3.68-2.92 5.47 4.71 2.23 5.63 1.73 6.53-2.55.26-1.25 1.3-2.33 2.74-3.24.07.94.19 1.88.2 2.82.1 11.19.23 22.38.2 33.57 0 1.77-.85 3.52-1.15 5.3-.14.83.05 1.73.2 2.58.71 3.82 1.92 7.61 2.1 11.44.31 6.59-.05 13.2-.05 19.8 0 2.45-.22 4.57-3.03 5.55-1.09.38-1.94 1.44-2.38 1.78 1.24 1.91 2.16 3.17 2.91 4.52 3.27 5.86 3.05 12.25 2.71 18.65-.43 7.93-1 15.86-1.16 23.8-.07 3.49.72 7.01 1.13 10.51.16 1.32.55 2.63.53 3.94-.12 6.94-.51 13.87-.48 20.81.02 5.57.56 11.14.78 16.72.21 5.27-1.48 9.59-6.39 12.27-1.02.56-1.85 1.45-3.56 2.83 2.63.44 4.32.71 6 1.01 2.44.43 3.94 1.37 3.78 4.38-.39 7.37 0 14.8-.71 22.13-.85 8.82 1.47 17.34 1.6 26.02.07 5.03-.19 10.06-.25 15.08-.02 1.76-.67 2.66-2.55 2.75-2.33.11-4.65.44-7.22.7-.98-2.9-1.92-5.7-2.98-8.86 1.07.23 1.78.38 2.49.53 3.01-5.71 3.06-5.82-.9-10.14-.72-.79-1.99-1.38-3.06-1.49-2.22-.23-4.47-.07-6.71-.07-.67 0-1.33 0-2.16 0-2.02 3.32-.55 8.46-5.35 10.21-.79-.72-1.65-1.5-2.51-2.28zm-124.35-205.04c-2.57 3.23-4.6 6.32-7.21 8.79-1.12 1.06-3.57 1.32-5.24 1.02-1.78-.33-2.83-1.73-1.83-4.09.66-1.55.57-3.55.36-5.29-.27-2.31.29-3.98 2.05-5.59 3.38-3.1 6.57-6.4 9.76-9.71 1.78-1.85 4.98-3.3 2.4-6.77-.15-.2.14-.79.31-1.16 1.94-4.3.53-8.79-3.81-11.48.27 1.14.49 2.06.72 2.99-.31-.11-.62-.22-.93-.33-.93 2.07-2.71 4.19-2.6 6.19.21 3.6-.89 6.21-3.66 8.07-5.9 3.98-11.93 7.78-17.91 11.65-.18.12-.47.36-.57.3-3.65-2.29-4.34 1.92-6.87 2.75.83.97 1.4 1.62 1.95 2.29 1.83 2.23 4.64 4.23 5.23 6.75.76 3.23 3.19 2.51 4.82 3.61 1.86 1.26 3.4 3.76 5.3 4.01 5 .66 9.21 2.15 12.33 6.3 1.74 2.32 3.84 4.38 5.64 6.66 1.93 2.44 4.22 3.95 7.47 3.57.28-.03.59.18.84.26v2.78c4.07-.79 5-.12 6.12 3.94.19.68.74 1.33 1.29 1.81 3.02 2.63 6.88 2.3 10.64-1.01-.39-.77-.81-1.6-1.2-2.37 4.53-4.54 4.53-4.54 2.97-6.96-3.6 3.42-8.4 5.63-12.59 3.35-4.05-2.2-6.87-6.67-10.07-9.98 4.06-6.41 4.03-6.22 10.6-5.17 2.09.33 4.39-.64 7.23-1.12 2.53 2.17 5.65 4.85 8.93 7.67-2.37 3.03-.32 5.19 1.76 6.37.95.54 3.2-1.23 5.5-2.23.51-.05 1.9-.31 3.28-.3 2.9.02 5.77.64 8.69-.53.65-.26 2.02 1.56 3.18 2.21 1 .57 2.17 1.22 3.26 1.21 4.15-.06 8.3-.38 12.45-.56.41-.02.86.19 1.25.37 3.16 1.41 6.36 2.77 9.44 4.33.66.34 1.39 1.53 1.29 2.22-.33 2.23-1.04 4.4-1.55 6.6-.05.22.29.54.45.82.84-.47 1.64-.9 2.45-1.35 2.51 5.33 14.32 7.49 20.62 3.99 5.21 3.6 9.36 2.38 15.11-4.57-1.56-2.36-3.45-4.63-4.68-7.22-1.16-2.44-1.63-5.2-2.46-7.99 3.84-3.76 7.56-7.48 11.38-11.08 1.56-1.47 3.38-2.68 5.37-4.23-.58-1.88-1.7-4.4-2.05-7.02-.33-2.44.17-4.99.3-7.55-2.8-2.72-6.08-5.77-9.18-9-1.68-1.75-3.22-3.7-4.49-5.77-1.49-2.44-1.39-6.03-5.2-6.74-.36-.07-.72-.86-.83-1.38-.87-4.26-3.88-6.94-7.04-9.45-1.66-1.32-2.4-2.78-1.96-4.92.62-3.04-.83-4.8-3.65-5.87-1.49-.56-3.05-1.42-4.12-2.57-2.71-2.9-5.16-6.04-7.73-9.07-1.83-2.15-3.78-3.86-6.39-1.44-1.09-1.18-1.8-2.65-2.9-3.03-4.55-1.58-7.15-5.14-9.83-8.76-2.14-2.89-5.65-4.18-8.56-2.87-4.58 2.08-8.74 5.18-12.79 8.24-1.25.94-1.54 3.15-2.11 4.41-1.6.97-3.09 1.87-4.03 2.43-3.44-2.39-6.85-4.62-10.1-7.05-1.64-1.23-2.94-2.89-4.49-4.25-.68-.59-1.57-1.02-2.43-1.29-.94-.3-2.21 0-2.91-.53-4.07-3.09-8.35-1.13-12.48-.53-2.84.41-3.61 2.83-2.36 5.95.41-.1.84-.17 1.26-.3 6.07-1.96 10.43-.54 14.3 4.39.7.9 2.4 1.94 3.22 1.66 4.38-1.49 5.46 1.46 6.75 4.44 1.25 2.89 2.64 5.72 4.34 9.38-.64 2.76-1.25 6.82-5.46 8.85-.39.19-.72.94-.71 1.42.02 4.62-2.88 7.8-5.3 11.27-.72 1.03-.87 2.55-1.05 3.87-.55 4.27.49 8.89-3.87 12.12-3.68 2.73-4.48 6.99-4.86 11.34-.19 2.21-.75 4.38-1.14 6.57-.4.01-.8.02-1.2.03-1.21-1.29-2.42-2.57-3.63-3.86-1.27-1.34-2.55-2.73-4.58-4.91zm67.91 151.85c3.21 4.61 3.24 4.6 9.53-1.42 4.82 2.24 8.93-.25 9.46-5.75.58-5.87.75-6.06 6.42-6.92.32-.05.66-.17.93-.35 2.65-1.84 3.21-.12 3.44 2.2 2.69-1.84 3.21.72 4.19 2.02 3.31 4.44 7.94 4.94 11.85.99 1.79-1.81 3.25-3.95 5-6.11 1.34.93 2.74 1.9 4.24 2.93-2.39 2.7-4.52 5.11-6.86 7.74 1.11.36 1.91.63 2.71.89-.32.14-.64.29-.96.43.94 2.45 1.88 4.9 2.84 7.43 2.39-.84 4.28-1.28 5.92-2.16.82-.44 1.63-1.66 1.72-2.6.43-4.23-2.49-5.82-6.28-6.81 1.29-1.4 2.27-2.62 3.4-3.69 2.52-2.38 3.11-4.8.56-7.55-.49-.53-.8-1.3-1.01-2.01-.43-1.48-.74-3-1.24-5.06.13-.11 1.12-.71 1.75-1.57.4-.55.53-2.05.29-2.18-2.53-1.31-5.15-2.46-7.77-3.6-.83-.36-1.97-.31-2.54-.87-1.25-1.25-2.22-2.78-3.3-4.19-.23.43-.46.87-.69 1.3-2.9.2-5.86.85-8.67.43-1.72-.25-3.63-1.81-2.7-4.5 1.2-3.46 1.83-7.05 4.96-9.65 2.63-2.19 2.06-6.14-.81-8.02-1.49-.97-3.23-1.55-4.74-2.48-1.87-1.15-4.47-2.11-5.25-3.83-1.73-3.8-4.9-4.59-8.24-5.41-2.39-.58-4.81-1.12-7.25-1.36-2.35-.23-2.69-1.39-2.34-3.4.43-2.49.65-5.02.93-7.23 1.75-.73 3.95-1.22 5.61-2.44 1.87-1.37 5.59-1.84 7.33-.24 2.66 2.45 6.6 2.44 9.23-.01.48-.45 1.01-.86 1.61-1.36 2.58 1.81 5.11 3.59 7.81 5.48-1.29 1.03-2.33 1.87-3.38 2.7s-2.07 1.72-3.18 2.47c-1.95 1.32-1.84 2.89-.66 4.6 2.22 3.22 4.67 2.83 7.06-1.19-.55-.86-1.12-1.76-1.74-2.72 1.2-1.42 2.25-2.67 3.29-3.91.92.67 1.61 1.17 2.35 1.71 1.96-1.67 3.81-3.25 5.8-4.95 1.23 1.46 2.3 2.72 3.64 4.3-4.31 2.58-2.61 6.84-3.2 10.41-.61 3.72-.29 7.58-.75 11.34-.34 2.85 2.02 5.52 4.83 4.74 2.3-.64 4.5-1.61 6.9-2.5.92.72 1.95 1.54 3.03 2.4-.96.75-2.4 1.32-2.47 2.01-.41 4.31-1.09 8.76 2.08 12.5 3.56 4.21 3.62 6.17 0 11.1 5.33 2.5.34 8.15 3.56 11.53-2.7 3.14.8 3.91 1.43 5.02 2.31-3.03 4.48-6.06 6.85-8.93 1.42-1.72 3.14-3.19 4.72-4.78 2.3-2.32 2.21-5.5-.26-7.67-.66-.58-1.42-1.05-1.59-1.17-.15-1.68-.32-2.83-.32-3.97 0-.77-.03-1.83.43-2.26 4.19-3.91 3.08-9.01 3.19-13.81.03-1.06-.32-2.3-.92-3.16-.69-.98-1.9-2.3-2.79-2.23-.87.07-1.83 1.59-2.37 2.66-.57 1.12-.7 2.47-1.21 4.46-5.67-4-10.82-7.64-16.31-11.52 3.55-3.65 6.77-6.74 9.69-10.08 1.06-1.22 1.88-3.03 1.98-4.63.26-3.82.17-8.02-2.95-10.62-3-2.5-6.57-4.62-10.25-5.9-3.47-1.2-7.21-1.45-9.18-4.95-2.87.99-5.97 1.2-7.78 2.84-3.98 3.6-7.88 2.53-12.09 1.22-.73-.23-1.62-.01-2.43.08-2.8.32-5.62 1.1-8.37.91-4.05-.29-8.05-1.27-12.08-1.96.04-.28.08-.57.11-.85-.81.55-1.62 1.09-2.46 1.66-3.43-2.94-6.73-5.77-10.21-8.76-.49 1.28-.88 2.28-1.26 3.25-1.19-.53-2.29-1.02-3.47-1.54-.17 3.6-.31 6.57-.45 9.54-.15 1.13-1.05 2.12-1.96 3.1-.3.33-.55.79-.93.95-.72.31-1.63.81-2.25.61-3.72-1.22-4.52-2.72-3.89-6.52.08-.51.05-1.13-.18-1.57-1.53-2.95-.19-6.02-.18-8.98.01-2.73-1.67-5.16-4.62-4.69-2.03.32-4.37 1.13-6.07.46-2.79-1.1-4.92-.38-7.24.79-.13.07-.4-.14-.45-.16.22-1.05.43-2.06.64-3.08-1.12.36-1.58.89-1.75 1.49-.84 3.03-2.82 3.75-5.87 4.02-3.9.34-7.72 1.73-12.09 2.79.63 2.05.89 3.53 1.54 4.8.62 1.2 1.66 2.17 3.07 3.93 3.07 1.41 6.13-1.05 8.52-2.9 3.29 1.47 5.97 2.66 9.01 4.02-.43 1.3-.97 2.91-1.63 4.87 1.28 1.86 2.85 4.04 4.31 6.28 1.89 2.9 1.68 5.78-.49 8.38-1.29 1.55-2.65 3.04-3.85 4.66-.47.64-.71 1.52-.83 2.33-.28 1.8-.15 3.7-.67 5.41-.8 2.64-1.99 5.16-3.03 7.76 8.55 2.38 9.2 3.59 6.17 9.6.95 3.74 2.27 6.82 2.37 9.93.08 2.66-.07 5.06 1.83 7.16.29.32.33 1.2.1 1.59-1.33 2.25.13 3.77 1.61 4.74.89.59 3.05.59 3.73-.08 3.39-3.31 6.47-6.94 9.69-10.44.78-.84 1.6-2.16 2.51-2.26 3.03-.32 6.21.31 9.13-.34 3.41-.75 5.9.12 8.29 2.29.22.2.89.1 1.25-.07 1.79-.88 2.81.09 4 1.3 1.48 1.49 3.17 2.79 4.9 3.99 2.15 1.49 4.42 2.8 7.61 4.79-2.38 1.24-4.5 3.22-5.63 2.76-3.13-1.26-4.5.13-6.09 2.26-1.31 1.75-3 3.23-4.32 4.98-1.07 1.41-2.08 2.95-2.72 4.59-.68 1.75-.89 3.65-1.43 6zm-105.28-214.33c.82 3.87-.83 7.71 1.66 11.41 1.35 2.01-2.84 7.03-5.21 6.9-3.44-.19-6.86-.52-10.3-.8-.03.05.11-.36.39-.62 3.49-3.21 4.4-7.6 5.35-11.93.27-1.24.45-3.22-.24-3.82-3.12-2.72-2.34-6.25-2.58-9.61-.42-5.91-2.82-9.08-8.65-10.79-.29 4.4-1.1 8.71-.71 12.9.38 4.04-1.75 6.97-6.02 6.78-1.18-.05-2.4.5-3.65.79.56 1.42 1.48 2.62 1.18 3.19-2.33 4.51 3.4 8.61.59 13.11-.14.22.56 1.26 1.08 1.55 1.04.59 2.19 1.16 3.36 1.32 4.56.61 7.36 3.44 9.45 7.2.31.57.19 1.38.27 2.07-.61-.04-1.23-.04-1.84-.12-2.19-.31-3.88 1.29-3.44 3.37.84-.57 1.65-1.12 1.88-1.27 1.6.48 2.76 1.24 3.71 1.04 4.52-.94 8.11 1.01 9.39 5.34.35 1.17.62 2.43 1.25 3.45 2.63 4.27 6.82 5.45 9.92 1.33.71-.94 1.41-1.89 2.18-2.92.97.84 1.8 1.56 2.69 2.34 2.6-1.53 5.41-2.91 4.77-6.51-.33-1.85-1.41-3.56-2.22-5.5-1.24.86-1.95 1.36-2.64 1.84-2.57-1.36-4.14-5.64-7.64-2.48-2.31-2.02-4.46-3.9-7.03-6.14 1.58-.91 2.75-2.08 3.34-1.84 3.2 1.31 5.07-.97 7.24-2.34 2.7-1.7 3.42-4.3 1.47-6.69-1.71-2.1-1.17-3.98-.82-6.23.34-2.19-.02-4.5-.12-6.76-.15-3.22-2.57-3.53-4.68-3.56.65-1.98 1.45-3.75 1.79-5.6.78-4.28-2.3-6.4-5.17-8.59-1.91-1.46-4.04-1.04-5.06 1.22-1.04 2.32-1.83 4.75-2.69 7.02 2.23 1.82 1.95 1.82 1.92 4.78-.01 1.34 1.13 2.92 2.18 3.95.79.78 2.27.81 3.65 1.22zm149.53 16.79c-1.86-2.44-3.5-.13-5.13.89-.71.45-1.49 1.84-1.29 2.51.63 2.04 1.26 5.08 2.72 5.67 5.23 2.1 10.21-.81 12.52-6.38.36-.86 1.22-1.85 2.06-2.11 4.27-1.33 7.13-4.83 10.93-6.86.43-.23.88-.89.89-1.36.08-3.37.04-6.74.04-10.72-2.49.91-4.3 1.57-6.36 2.32-.53-.97-1.05-1.93-1.56-2.89-1.88-3.5-4.13-3.76-6.83-.88-.75.8-1.62 1.81-2.6 2.03-3.99.89-4.02 3.86-4.1 6.97-.06 2.19-.31 4.39-.55 6.57-.16 1.29-.45 2.58-.74 4.24zm-17.37 215.84c.54.12 1.88.31 3.14.74 1.36.47 2.6 1.39 3.98 1.68 1.16.25 2.69.29 3.66-.28 3.32-1.93 3.26-3.9.07-8.26-.95.37-1.9.73-2.85 1.1-.16-.22-.31-.44-.47-.66 1.43-1.28 2.95-2.48 4.26-3.87.6-.64 1.31-1.83 1.09-2.46-.89-2.58-1.77-5.29-3.31-7.49-1.81-2.59-4.3-4.71-6.36-6.88-2.03 5.41-8.18 5.2-12.07 7.36 0 3.73-.24 7.08.06 10.37.37 4 1.87 4.72 5.76 2.8.89 1.7 1.77 3.41 3.04 5.85zm37.16-251.27c-1.08-1.82-1.59-2.68-2.09-3.53-.09.37-.18.73-.27 1.1-1.93.21-3.93.18-5.77.72-1.14.33-2.92 1.57-2.87 2.29.18 2.52 1.04 4.99 1.8 8.15-.06.23-.36 1.42-.66 2.62.29.11.57.21.86.32 1.45-1.33 2.91-2.66 3.75-3.43 2.23.26 3.75.46 5.28.6 1.14.11 2.28.13 3.42.2.96.06 2.07.45 2.86.11 2.72-1.17 5.33-2.59 8.2-4.02-.82-1.26-1.35-2.05-1.84-2.8.64-.83 1.18-1.51 2.01-2.59-2.71-3.18-5.4-6.35-7.65-8.99-2.36 3.1-4.37 5.74-7.03 9.25zm-140.57 124.87c-.16-.31-.31-.62-.47-.92-2.12 1.64-4.5 3.05-6.26 5.01-1.19 1.32-2.52 3.87-1.99 5.08.8 1.83 2.14 4.74 5.55 3.33.58-.24 1.65.34 2.33.79 1.49.98 2.86 2.15 4.32 3.18 1.29.91 2.33 2.4 4.35.98 1.73-1.22 3.34-2.15 2.68-4.71-.27-1.04-.36-2.35.02-3.31 1.86-4.65-1.04-7.44-3.2-9.96-2.8.21-5.06.37-7.33.53zm-53.78 182.96c.98-.27 1.88-.51 3.57-.97-.77 1.24-1.08 2.03-1.63 2.57-1.68 1.65-3.71 3.01-5.14 4.85-1.98 2.55-1.18 5.68 1.28 7.62.8.63 1.23 1.75 2 2.91 1.32.34 3.18.82 5.08 1.31 1.87-3.28 3.81-6.71 6.04-10.62-1.58-1.23-3.54-2.76-5.51-4.29.28-.1.57-.2.85-.3-.47-1.65-.95-3.31-1.37-4.8 1.24-2.32 6.33.19 6.2-5.13-1.29.87-2.17 1.46-2.78 1.87-1.37-1.7-2.42-3.46-3.93-4.65-.69-.54-2.86-.42-3.33.19-2.1 2.72-3.14 5.83-1.33 9.44zm6.25-125.12c2.86 5.45 2.84 5.4 8.25 3.66 2.35-.75 3.33-2.26 3.6-4.63.3-2.62 1.4-5.24 1.22-7.79-.14-1.9-1.62-3.8-2.87-5.42-.22-.28-2.44.56-3.36 1.32-1.88 1.55-3.54 3.37-5.21 5.17-.56.6-1.07 1.42-1.19 2.2-.28 1.81-.31 3.66-.44 5.49zm-18.97-126.66c.36 2.1.78 3.68.88 5.29.19 3.02 1.72 4.15 4.71 3.41 1.06-.26 2.29-.5 3.27-.2 2.6.78 4.99.19 6.15-1.95.88-1.61.47-3.93.64-5.93-.11.01-.23.02-.34.02.44-1.32.88-2.63 1.32-3.95-.3-.15-.6-.3-.9-.45-2.77 1.43-4.62 4.57-8.65 3.72-1.52-.32-3.51 1.59-5.41-.2-.32-.3-1.4.2-1.67.24zm51.82 263.84c5.34-2.28 5.97-2.95 5.92-6.12-.06-3.47-6.05-9.11-9.49-8.98-1.76.07-3.52.01-5.51.01.12 1.92.26 4.19.34 5.65 5.74 1.11 6.13 6.13 8.74 9.44zm154.26-240.16c1.32.84 2.47 1.52 3.56 2.28 3.74 2.6 7.45 5.34 12.38 4.57.87-.14 2.2-1 2.31-1.69.48-3.06-3.25-6.52-6.01-5.26-2.21 1.01-3.25.09-4.67-.92-3.77-2.7-3.78-2.7-7.57 1.02zm11.44 44.84c-3.23-1.6-3.01 1.73-4.3 3.38-1.23 1.56-.69 2.85.49 4.11.92.98 1.76 2.03 2.69 3 1.87 1.93 4.23 1.67 6.29-.68 1.74-1.99.61-3.31-.92-4.8-1.57-1.52-2.84-3.33-4.25-5.01zm-160.48-99.3c1.65 1.36 3.19 2.8 4.9 3.99.83.58 2.41 1.29 2.91.93 1.62-1.19 3.25-2.66 4.16-4.4.42-.8-.59-3.37-1.37-3.57-1.64-.43-3.55.14-5.34.37-.38.05-.71.45-1.11.72-.74-.71-1.41-1.35-2.15-2.05-.76 1.54-1.38 2.79-2 4.01zm-5.96-14.05c1.12 1.32 2.01 3.29 3.46 3.87 1.85.74 4.19.64 6.22.3.72-.12 1.87-2.32 1.56-3.02-.67-1.52-1.91-3.1-3.34-3.9-3.34-1.87-5.86-.21-7.9 2.75zm4.58 278.31c0-3.78.18-6.77-.09-9.73-.11-1.12-1.72-3.12-1.9-3.04-1.76.79-4.78 1.98-4.75 2.96.1 2.76 1.23 5.59 2.48 8.14.43.87 2.4.99 4.26 1.67zm4.47-293.16c.15.35.3.7.45 1.05 2.72 0 5.46.18 8.15-.1.92-.1 2.57-1.65 2.44-2.03-.51-1.46-1.36-3.06-2.57-3.95-.94-.69-3.11-1.04-3.83-.44-1.81 1.49-3.12 3.61-4.64 5.47zm25.86 32.54c-2.9-1.67-5.43-3.13-7.95-4.58-2.98 6.22-2.01 7.85 4.78 7.78.98-.01 1.97-.1 3.17-.16 0-1.33 0-2.49 0-3.04zm6.21 121.2c-1.23-3.54-2.25-6.49-3.42-9.85-4.3 4.99-4.69 7.27-2.3 11.34 1.93-.5 3.92-1.02 5.72-1.49zm114.85-93.68c-1.67 2.72-.44 5.22 1.27 6.43 2.63 1.86 5.43.49 7.93-1.54-1.06-1.39-1.99-2.62-2.96-3.91-1.49.49-2.83.94-4.15 1.38-.74-.85-1.38-1.57-2.09-2.36zm-177.97 92.86c1.28-2.27 2.62-3.71 2.84-5.3.31-2.23-.56-4.36-2.96-5.31-3.6 2.9-3.6 2.9.12 10.61zm191.11 93.93c3.05-.42 5.48-.59 5.37-3.67-.12-3.17-2.69-4.07-5.37-5.42zm-67.53-241.65c1-.53 2.05-1.1 3.1-1.66-.14-.38-.29-.77-.43-1.15-1.2 0-2.72-.43-3.51.14-.62.45-.65 2.19-.43 3.26.58 2.89 1.43 5.72 2.2 8.69 4.09-2.26 3.95-3.63-.93-9.28zm25.92 21.88c-3.04-3.75-4.32-3.98-9.2-1.83 3.19 5.45 3.32 5.48 9.2 1.83zm-166.66 71.74c1.47 1.66 2.65 2.98 3.91 4.4 1.39-.91 2.55-1.67 3.84-2.52-1.47-1.85-2.7-3.4-4.1-5.15-1.3 1.18-2.43 2.19-3.65 3.27zm26.38 224.45c-1.53 1.3-2.75 2.35-4.26 3.64 1.89.56 3.29.97 4.59 1.35-.45 1.4-.82 2.56-1.19 3.72.24.14.48.29.71.43 1.27-.95 2.53-1.91 3.92-2.96-1.32-2.18-2.46-4.04-3.77-6.18zm43.96-138.85v7.89c4.26-2.48 4.55-5.08 0-7.89zm47.23 95.73c-1.33-1.07-2.47-1.97-4.34-3.47-.72 2.56-2.14 5.84-1.64 6.16 2.8 1.83 3.98-1.2 5.98-2.69zm-69.61-163.62c-.76-1.04-1.32-1.82-1.87-2.57-3.21 1.85-3.21 1.85-1.65 4.61 1.05-.6 2.09-1.21 3.52-2.04z"/><path d="m259.42 344.56c-5.95.09-7.09 1.32-8.56 6.95-.68 2.58-2.31 4.96-3.76 7.28-1.25 2-3.69 3.47-2.21 6.4.12.24.06.82-.12.94-3.84 2.63-6.26 7.49-11.71 7.55-5.14.06-10.28.08-15.41-.04-1.17-.03-3.17-.47-3.34-1.1-.57-2.2-.58-4.56-.64-6.87-.01-.54.85-1.07.92-1.65.32-2.89.67-5.8.71-8.7.03-2.97-.09-5.98-.52-8.91-.44-2.97.71-4.43 3.52-4.76 1.77-.21 3.56-.18 5.32-.45 1.73-.27 3.59-.47 5.1-1.26 4.38-2.3 7.26-1.93 11.31 1.28 1.19.95 3.27 1.48 4.75 1.21 2.78-.51 5.39-1.9 8.14-2.65 3.75-1.02 4.96 1.84 6.5 4.78z"/><path d="m283.18 326.55c-.22 2.77-.65 5.54-.6 8.3.07 3.29-.95 5.8-3.62 7.81-1.01.76-1.55 2.14-2.62 3.71 2.47.43 4.12.71 5.77 1 .1-.23.21-.47.31-.7-.58-.69-1.16-1.39-1.73-2.08.19-.25.39-.51.58-.76.81.54 1.82.93 2.36 1.67.49.66.77 1.76.61 2.56-1.07 5.28 1.9 8 6 10.32 1.9 1.08 3.64 2.61 5.1 4.25 1.95 2.2 5.24 4.11 2.2 7.97 3.49-.2 6.35-.21 9.16-.56 2.37-.3 3.3.57 3.31 2.67-3.88 1.92-7.4-1.41-11.47.06-3.59 1.29-7.84.73-12.34 1.03.42-1.86.68-2.99.98-4.3-1.86-1.91-5.77-2.18-5.31-6.33.33-3.04.07-6.15.07-9.59-.16-.07-.95-.78-1.54-.63-5.61 1.4-8.72-2.43-12.19-5.6-2.2-2.01-2.34-5.28-.01-6.9 3.28-2.29 6.84-4.35 3.6-9.18-.12-.18.2-.62.25-.94.03-.2-.05-.42-.1-.79-2.76-.59-5.56-1.19-8.63-1.85 2.98-2.2 5.3-3.92 7.18-5.32 2.68 1.27 4.99 2.37 7.85 3.73.02.08.18.92.37 1.86 1.58-.45 3.05-.87 4.53-1.29 0-.06-.07-.12-.07-.12z"/><path d="m166.09 341.7c1.11-.89 2.05-1.64 2.96-2.37 4.59 2.99 9.34 4.1 14.54 2.36.31-.1.89-.29.92-.23 1.51 3.02 4.84.39 6.8 2.17.31.28 1.39-.09 2.02-.37 5.04-2.27 9.35-1.07 11.82 3.62.62 1.17.51 2.74.65 4.13.18 1.86.04 3.78.44 5.59.55 2.5-.34 4.26-2.7 3.64-3.64-.96-5.39.62-6.84 3.46-.44.87-1.06 1.65-1.64 2.53-.17-3.21.6-6.46-.67-7.95-1.49-1.74-4.78-1.93-7.47-2.86.07-.28.24-.98.18-.73-1.23-1.79-2.28-2.92-2.86-4.26-1.03-2.38-3.2-3.17-6.46-1.91.47-3.26-1.78-3-3.83-3.03-4.83-.1-5.5-.41-7.86-3.79z"/><path d="m177.45 291.63c1.02-1.17 1.5-1.73 2.08-2.39-.57-.88-1.15-1.78-1.97-3.05 1.13.14 1.84.22 2.69.33.13-.6.28-1.31.49-2.25 1.2.06 2.45-.07 3.6.21 2.61.63 4.88.19 6.77-1.71 2.12-2.13 4.02-1.86 6.36-.1 3 2.26 3.13 2.07 6.72.66 2.69 2.1 2.98 4.93 2.22 8.02-.18.73-.58 1.64-1.16 1.98-2.2 1.26-4.99.92-6.78 3.61-1.19 1.8-4.05 2.4-5.89 3.87-1.85 1.48-3.63 1.99-5.39.37-3.3-3.05-6.44-6.3-9.74-9.55z"/><path d="m265.54 361.02c.59 1.51 1.64 2.84 1.32 3.62-1.12 2.78.46 4.09 2.21 5.62.85.74 1.37 1.86 1.65 3.42-6.18-3.13-13.81 2.7-19.53-3.73 3.7-2.61 2.28-5.6 1.09-8.73 1-.7 1.97-1.39 3.05-2.15 2.25 1.6 4.41 3.14 6.59 4.7 1.11-.85 2.07-1.58 3.62-2.75z"/><path d="m239.87 330.45c1.08-3.11-4.14-5.22-1.27-7.29-.98-2.98-2.01-5.28-2.43-7.67-.29-1.66 2.24-2.72 3.94-1.84 3.12 1.62 4.64 4.87 4.05 8.65-.05.32.03.66.07.99.55 4.44.16 5.16-4.36 7.16z"/><path d="m224.9 327.24c1.66-1.57 3.4-3.22 5.64-5.33.39 2.72.67 4.67.96 6.7-2.36-.5-4.28-.89-6.6-1.37z"/><path d="m254.43 324.73c2.89.32 4.92.55 7.6.85-1.17 1.14-2.46 2.41-3.98 3.9-1.2-1.57-2.12-2.78-3.62-4.75z"/><path d="m223.24 56.76c-.45 1.35-.78 1.94-.81 2.54-.12 2.29-.11 4.59-.22 6.88-.13 2.64-1.95 5.29.4 7.96.43.49-.25 2.41-.91 3.31-2.32 3.2-1.91 6.45-.78 9.88 2.59 7.84 2.55 7.85-4.66 11.52-.4.2-.81.38-1.21.57-1.67-1.5-1.67-1.5-7.98-.94-2.37 6.73-7.29 8.1-12.44 3.29 1.89-2.22 1.82-4.19-.3-6.53-2.88-3.18-2.11-6.25.76-7.86.97-2.66 1.52-4.76 2.47-6.65 2.44-4.9 6.61-9.02 5.88-15.29-.14-1.16 1.92-2.89 3.31-3.86 2.49-1.73 3.9-3.66 2.37-7.42 5 .92 9.47 1.74 14.12 2.6z"/><path d="m238.54 115.41c.37.17 1.25.56 2.4 1.08.6-.85 1.18-1.67 1.79-2.53 2.07.63 3.28 4.18 5.37 1.18v7.3c-3.16 3.47-2.44 10.36 2.23 13.85 1.03-1.1 2.3-2.09 3.06-3.38.56-.95.65-2.29.62-3.44-.04-1.4-.43-2.79.05-4.44-.83-.7-1.66-1.39-2.72-2.28 1.58-1.5 2.92-3.02 4.5-4.21 1.69-1.26 3.65-3.12 5.44-3.06 2.56.09 4.92 4.79 4.81 7.79-.07 1.78-.01 3.56-.01 5.57.67.14 1.48.31 2.07.43-1.99 3.47-4 6.95-5.89 10.25-1.14.11-2.81.25-4.48.44-.55.06-1.17.49-1.61.33-6.49-2.37-11.92 3.09-18.44 2.12-.09-.71-.22-1.77-.38-3.02-.82.36-1.58.71-2.97 1.33.52-5.17 1.02-9.9 1.44-14.63.08-.86-.33-1.77-.21-2.62.18-1.26.56-2.52 1-3.72.48-1.32 1.13-2.57 1.93-4.34z"/><path d="m231.04 98.31c-2.08-3.05-4.47-6.61-3.04-11.82.78-2.84.15-6.28-.55-9.28-.85-3.63.93-6.38 2.14-9.63 3.81 1.35 8.46 1.42 8.89 7.27.07.9 2.12 1.65 3.62 2.73.34.72.78 2.19 1.64 3.35 1.2 1.6 2.51 3.26 4.13 4.38 3.7 2.57 3.75 6.22 3.38 10.02-.06.64-.97 1.58-1.61 1.7-2.27.43-4.59.65-6.9.79-3.61.21-7.22.3-11.7.49z"/><path d="m211.67 107.85c1.5 1.47 2.78 3.34 4.55 4.34 3.95 2.23 5.69 4.97 4.23 9.61-.43 1.36.47 3.15.81 5.01-.62.67-1.44 1.57-2.4 2.61.79.89 1.57 1.77 2.62 2.96-3.17.97-6.09 1.91-9.04 2.73-.57.16-1.27-.12-1.91-.21-1.38-.18-2.76-.37-4.41.19-1.11-1.53-3.39-3.33-3.11-4.54.92-3.96-2.88-5.86-3.2-9.16-.18-1.84-.94-3.63-1.41-5.36 5.74.49 5.74.49 7.06-5.18.82-3.51 2.15-4.24 6.21-3z"/><path d="m185.82 114.88c1.97.74 3.82 1.44 5.94 2.23-1.58 2.45-1.38 4.41.45 6.75.87 1.11.44 3.94-.39 5.45-.69 1.26-2.77 1.84-4.33 2.51-.46.2-1.32-.18-1.84-.52-2.47-1.66-4.06-10.24-2.4-12.72.81-1.2 1.64-2.36 2.57-3.7z"/><path d="m269.06 250.81c.76 1.82 1.51 3.63 2.34 5.62-1.45.82-2.68 1.51-3.92 2.21-2.32-4.41-2.03-5.93 1.58-7.83z"/></g></svg>