<svg enable-background="new 0 0 400 400" viewBox="0 0 400 400" xmlns="http://www.w3.org/2000/svg"><g fill="#010106"><path d="m176.82 25.49c9.35-.11 16.71 2.8 21.85 9.66 1.77 2.37 2 6.04 2.5 9.18.38 2.42 1.33 3.54 3.76 4.25 5.22 1.54 10.21 3.85 15.44 5.3 4.59 1.27 9.44 1.58 14.09 2.69 12.69 3.04 25.59 5.53 37.94 9.65 15.92 5.31 25.16 17.36 29.76 33.37 1.4 4.87 1.59 9.36 1.06 14.37-.51 4.83.84 9.93 1.82 14.82 1.04 5.21 1.42 10.31.57 15.61-.43 2.66-.2 5.64.57 8.23 3.18 10.6 5 21.35 3.96 32.39-.85 9.03 1.93 17.47 3.49 26.12 1.63 9.05 2.87 18.11 1.36 27.31-.14.87-.25 1.86.02 2.66 2.14 6.4 1.13 12.56-1.42 18.56-2.51 5.91-2.63 11.84-.69 17.93 2.76 8.65 1.23 17.05-1.9 25.25-.41 1.09-1.75 2.11-2.9 2.56-1.52.6-3.28.8-4.94.81-1.08 0-2.37-.39-3.19-1.07-3.56-2.95-5.42-6.39-5.34-11.47.23-14.32-.11-28.65-.54-42.96-.16-5.34-1.49-10.65-1.73-15.99-.29-6.56-.64-13.23.21-19.7.88-6.69.15-13.12-.56-19.67-1.24-11.34-2.21-22.71-3.42-34.05-.32-2.99-.88-5.99-1.73-8.88-1.87-6.39-2.44-12.86-2.6-19.51-.1-4-1.88-7.99-3.02-11.95-2.42-8.37-4.17-17.03-7.6-24.96-2.98-6.88-8.63-12.25-16.56-13.63-18.6-3.26-37.22-6.47-55.89-9.24-13.74-2.03-27.2.29-40.37 4.33-.71.22-1.45.69-1.94 1.24-4.69 5.26-10.8 7.26-17.58 7.99-1.52.16-3.11 1.01-4.39 1.93-1.81 1.29-3.47 2.84-5.02 4.45-3.84 3.98-8.21 6.46-13.89 7.29-2.54.37-5.52 2.75-6.91 5.05-5.74 9.48-7.68 20.19-8.56 31.07-1.22 15.05-2.57 30.11-3.16 45.19-.31 8 .8 16.06 1.39 24.09.48 6.58.86 13.19 1.78 19.72.85 6.05-1.65 11.23-3.65 16.47-1.9 5-2.33 9.83-1.47 15.03.53 3.17.43 6.47.39 9.71-.05 3.68-1.99 5.96-5.84 7.28-4.9 1.69-6.63 1.24-9.52-1.77-1.97-2.05-2.86-4.23-3.01-7.09-.48-8.82-1.29-17.63-1.92-26.45-.08-1.09-.21-2.38.26-3.28 2.27-4.4 1.88-9.09 1.97-13.77.39-19.35 1.03-38.69 1.24-58.04.09-8.15-.66-16.32-1.03-24.47-.56-12.54 2.72-24.29 6.8-36 2.93-8.39 8.13-14.86 14.83-20.23 9.94-7.98 20.16-15.62 30.2-23.47 6.65-5.2 14.5-6.73 22.55-7.55 6.9-.7 13.43-2.09 18.95-6.71 3.19-2.66 4.14-5.76 3.61-9.8-.4-3.11-.08-6.34-.08-9.85z"/><path d="m157.44 327.46c-9.5-9.59-12.09-21.96-14.81-34.37-1.21-5.53-3.27-10.86-4.88-16.3-.3-1-.82-2.34-.41-3.08 3.21-5.84 3.23-12.2 3.49-18.58.31-7.47-.07-15.13 1.51-22.34 2.62-11.96 2.22-10.22 12.28-9.07 4.63.53 9.06 1.89 12.47 5.2 4.46 4.33 9.79 5.65 15.8 5.99 11.24.63 22.37.62 33.12-3.26 1.84-.66 3.48-1.9 5.16-2.96 2.07-1.31 3.96-2.98 6.15-4.03 7.66-3.69 14.62 0 15.84 8.45 1.65 11.4-.59 22.49-3.11 33.52-1.17 5.11-2.57 10.18-3.98 15.24-2.26 8.11-5.32 15.8-10.28 22.76-5.06 7.09-9.54 14.58-14.4 22.08 5.88 5.92 11.87 11.49 19.73 14.64 2.59 1.04 5.38 1.92 7.54 3.58 2.38 1.82 4.49 4.24 6.02 6.82.84 1.41.95 4.18.09 5.46-1.52 2.27-3.8 3.45-7.17 2.23-14.06-5.07-28.6-8.88-41.87-16.04-.59-.32-1.32-.48-1.78-.92-5.75-5.47-12.36-4-18.96-2.34-1.02.26-2.04.92-2.84 1.65-9.19 8.35-18.39 16.7-27.44 25.2-1.57 1.48-2.57 3.61-3.7 5.51-1.43 2.4-7.42 3.7-9.59 1.99-5.02-3.95-5.43-7.51-1.46-12.48 8.37-10.49 16.73-21 25.09-31.5.76-.95 1.5-1.91 2.39-3.05zm24.16-54.29v.34c5.36 0 10.73.12 16.09-.03 7.8-.21 15.33-1.6 22.04-5.95 3.43-2.23 4.85-5.79 4.12-10.11-.68-4.07-3.16-6.4-7.09-6.95-2.62-.36-5.34-.4-7.97-.13-12.38 1.25-24.69 5.02-37.19 1.5-4.17-1.18-6.98.61-8.3 3.58-1.9 4.29-2.78 9.08-3.69 13.74-.37 1.9.83 3.14 3.23 3.19 6.26.11 12.51.53 18.76.82zm4.14 44.77c5.39-.73 10.55.08 13.99-3.75 3.95-4.39 7.42-9.25 10.81-14.11 2.04-2.92 2.2-6.43.52-9.57-1.52-2.85-4.58-3.06-7.41-2.78-12.79 1.31-25.57 2.79-38.36 4.11-2.4.25-2.95 1.35-2.69 3.51.76 6.36 3.23 12.07 6.68 17.36.71 1.1 2.16 2.05 3.44 2.38 4.53 1.17 9.13 2.03 13.02 2.85z"/><path d="m179.72 121.58c-3.47-2.03-6.85-1.79-10.27-.81-9.03 2.59-17.71 1.46-26.05-2.59-3.59-1.75-6.03-4.52-6.49-9.66 11.09-1.43 22.11-2.94 33.15-4.26 11.21-1.34 22.41-2.91 33.67-3.62 8.09-.51 16.27.09 24.4.48 2.95.14 4.53 2.31 4.6 5.27.06 2.77-.22 5.3-3.76 6.06-5.34 1.15-10.58 2.84-15.94 3.82-8.9 1.62-12.12 8.16-7.51 16.05.52.9 1.62 1.47 2.5 2.15 4.68 3.62 9.56 7.02 14.03 10.89 9.41 8.15 11.68 18.93 10.51 30.76-.38 3.89-1.36 7.73-1.6 11.62-.24 3.85-.33 7.82.31 11.6 1.16 6.86-1.24 10.51-8.02 10.94-.54.03-1.46-.3-1.63-.71-1.24-2.93-3.19-5.89-3.29-8.9-.23-6.91.3-13.86.84-20.77.55-7.04-.29-13.58-4.86-19.31-2.21-2.77-4.96-4.8-8.4-5.04-8.47-.58-17.01-.98-25.24 1.77-1.47.49-2.74 1.72-3.97 2.77-1.61 1.37-2.85 3.42-4.68 4.26-8.11 3.73-12.87 10.44-16.99 17.9-1.86 3.37-4.8 4.31-7.89 2.87-2.03-.95-3.54-5.37-2.34-8.06 2.07-4.65 3.98-9.28 7.75-13.13 9.89-10.09 18.94-20.89 24.48-34.16.43-1.03.86-2.07 1.2-3.13.49-1.56.93-3.17 1.49-5.06z"/></g><path d="m385.2 377.6.6-.7c.6.4 1.3.9 1.9 1.5l-.6.7c-.8-.5-1.4-1-1.9-1.5zm.3 7.1c.6-1.4 1.1-2.9 1.5-4.5.3.1.6.3.9.4-.5 1.4-1 2.9-1.5 4.4zm.2-10.1.6-.6c.7.5 1.3 1.1 1.9 1.6l-.7.7c-.6-.6-1.2-1.2-1.8-1.7zm8.4-.8h.8v.9h1.8v.7h-1.8v1.8h-.8v-.3h-1.2v.9h3.3v2.6h-.8v-.4h-2.5c0 .3 0 .6-.1.8h3.4v.7h-3.5c0 .3-.1.6-.1.8h4v.7h-3.5c.7.9 1.9 1.3 3.6 1.5-.2.2-.4.5-.6.9-1.9-.3-3.2-1.1-3.8-2.3-.5 1.1-1.8 2-3.9 2.4-.2-.3-.4-.5-.6-.8 1.9-.4 3.1-.9 3.6-1.7h-3.2v-.7h3.5c.1-.2.1-.5.2-.8h-3.3v-.7h3.4c0-.2 0-.5 0-.8h-2.4v.3h-.8v-2.6h3.3v-.9h-1.2v.3h-.8v-1.8h-1.8v-.7h1.8v-.9h.8v.9h3.2zm-4.4 5.5h2.4c0-.3 0-.6 0-.9h-2.4zm1.2-3.1h3.2v-.8h-3.2zm4.4 2.2h-2.4v.9h2.5v-.9z" fill="#fcfbfa"/><path d="m389.2 385.8h.9v1.5h1.9v-1.5h.9v1.5h2.7v6h1.1v.9h-11.3v-.9h1.1v-6h2.7zm.2 8.7.5.8c-1.2.6-2.5 1.3-4 1.9-.2-.3-.3-.6-.6-.8 1.6-.6 3-1.3 4.1-1.9zm-2-4.3h1.9v-2.1h-1.9zm0 3.1h1.9v-2.2h-1.9zm2.7-3.1h1.9v-2.1h-1.9zm0 3.1h1.9v-2.2h-1.9zm2.4 1.3c1.4.6 2.7 1.2 4.1 1.8l-.5.9c-1.5-.7-2.8-1.4-4.1-1.9zm2.2-6.5h-1.9v2.1h1.9zm-1.9 5.2h1.9v-2.2h-1.9z" fill="#fcfbfa"/></svg>