<svg enable-background="new 0 0 400 400" viewBox="0 0 400 400" xmlns="http://www.w3.org/2000/svg"><path d="m96.32 48.65c8.03-5.35 16.73-5.55 25.46-4.5 9.32 1.12 18.59 2.72 27.84 4.32 13.17 2.27 26.33 1.71 39.45-.1 21.85-3.01 43.44-7.27 64.29-14.67 5.05-1.79 10.17-3.6 14.84-6.16 4.92-2.69 9.75-1.84 14.65-.96 1.24.22 2.55 1.74 3.25 2.98 1.2 2.15.85 3.81-2.01 4.71-14.7 4.64-29.32 9.56-44.03 14.18-12.15 3.82-24.41 7.28-36.55 11.12-1.68.53-3.53 2.02-4.34 3.56-3.33 6.28-4.31 13.13-3.82 20.17.29 4.19 3.93 6.93 7.74 5.22 7.81-3.5 16.2-2.96 24.27-4.49 5.34-1.01 10.57-2.84 15.66-4.79 7.6-2.92 15.44-4.39 23.51-4.99 3.01-.22 5.31.68 6.38 3.68.78 2.17.68 3.78-1.8 5.21-13.94 8.05-29.06 12.57-44.7 15.74-4.81.97-9.69 1.85-14.3 3.46-12.88 4.5-19.08 15.12-17.19 28.68.44 3.18.36 6.48 3.65 8.53 2.99 1.86 5.96 2.73 9.53 1.96 12.89-2.77 25.83-5.32 38.73-8.05 28.65-6.08 54.92 16.12 59.23 40.4.27 1.5.28 3.16-.06 4.63-2.32 9.89-1.23 19.67.13 29.58.96 7.06.72 14.28 1.09 21.43.09 1.8-.46 2.71-2.38 2.74-2.22.04-4.43.26-6.75.41-2.45-7.31-4.84-14.41-7.22-21.5-1.54-4.6-3.81-5.89-8.58-4.77-1.18.28-2.31.83-3.44 1.3-13.74 5.63-27.38 11.54-41.27 16.76-5.15 1.94-10.92 2.22-16.39 3.34-2.29.47-4.54 1.16-6.81 1.74-8.09 2.08-9.44 7.15-8.85 13.94.53 6.09 2.09 12.11 3.41 18.11.21.95 1.43 2.25 2.34 2.39 4.36.66 8.77 1.3 13.16 1.3 2.96 0 5.93-1.01 8.87-1.7 5.49-1.29 7.56-3.68 8.28-9.29.17-1.33.08-2.86.73-3.91.75-1.22 2.07-2.33 3.39-2.83.57-.22 1.99 1.05 2.65 1.93 6.54 8.77 10.56 18.77 12.57 29.37 3.1 16.36 5.48 32.86 8.13 49.3.19 1.2.35 2.5.13 3.67-1.67 8.87.6 17.19 2.91 25.66 1.22 4.49.83 9.44 1 14.18.07 1.85-1.08 2.38-3.01 2.64-4.98.66-8.23-1.03-10.42-5.59-2.22-4.63-4.91-9.03-7.32-13.57-4.41-8.29-13.93-11.4-22.27-7.22-1.7.85-3.32 1.91-5.1 2.54-6.33 2.24-7.75 7.48-8.27 13.27-.15 1.66.1 3.36.02 5.03-.17 3.53-2.99 6.18-6.43 5.82-.8-.08-1.85-1.17-2.15-2.01-1.71-4.84-3.24-9.74-4.8-14.63-.44-1.38-.74-2.81-1.17-4.19-1.95-6.3-7.73-9.45-14.87-6.28-7.08 3.14-10.62 8.01-11.68 15.3-.45 3.13-2.93 3.71-5.47 3.92-2.33.19-5.02.54-5.78-2.53-1.28-5.16-2.85-10.34-3.29-15.59-.78-9.33 1.11-18.82-1.42-28.07-2.07-7.54-4.23-15.05-6.42-22.55-2.12-7.24-3.68-14.51-2.73-22.14.28-2.25 1.11-3.49 3.46-4.15 6.22-1.75 6.19-1.88 9.42 3.6 2.1 3.57 3.97 7.29 6.37 10.65 1.09 1.53 3.12 3.14 4.86 3.32 4.87.49 9.83.39 14.74.19.94-.04 2.15-1.43 2.69-2.48 2.93-5.67 2.44-11.75 1.56-17.75-1.36-9.29-2.88-18.56-4.56-27.79-.23-1.28-1.55-2.99-2.72-3.36-3.9-1.23-7.96-1.93-11.95-2.85-9.78-2.27-19.6-4.39-29.33-6.88-6.44-1.65-12.83-1.86-19.21-.27-1.48.37-3.16 1.65-3.91 2.98-5.33 9.48-6.33 19.69-5.88 30.48.4 9.65-.72 19.39-1.53 29.06-.2 2.44-1.38 5.07-2.87 7.04-1.2 1.58-3.42 2.8-5.4 3.27-2.8.66-4.54-.57-5.21-3.89-1.98-9.86-2.55-19.81-1.7-29.74 2.01-23.21-.14-46.29-1.71-69.39-.25-3.69-1.79-7.37-3.16-10.89-3-7.69-2.53-15.39-.27-23.03 1.49-5.02 3.01-10.2 5.65-14.65 1.72-2.9 5.26-4.92 8.31-6.81 8.7-5.37 18.1-7.76 28.48-6.86 10.24.89 20.57.77 30.82 1.55 4.72.36 7.13-2 8.83-5.58 2.43-5.12 1.9-10.49.28-15.71-.28-.89-1.9-1.7-3.03-1.94-15.41-3.29-30.87-6.37-46.27-9.73-10.36-2.26-20.68-4.75-30.96-7.38-3.78-.97-6.77-3.3-8.65-6.93-.92-1.78-.55-2.81 1.1-3.83 3.23-2.01 6.66-2.37 10.32-1.8 24.31 3.75 48.61 7.49 72.93 11.19 4.24.65 6.21-.67 6.35-5.38.18-5.65-.56-11.34-.92-17.01-.01-.22-.11-.43-.15-.65-1.5-7.65-3.09-9.66-10.98-9.55-17.08.23-33.45-4.36-50.16-6.51-3.76-.48-7.56-.69-11.33-1.12-4.01-.45-6.84-2.53-8.51-6.56zm162.28 126.88c.01.19.03.38.04.57 3.69 0 7.42.35 11.06-.09 4.84-.58 10.05-1.22 12.5-6.34 2.9-6.07 1.22-11.36-4.65-15.03-6.32-3.95-13.28-6.36-20.65-7.51-7.82-1.22-15.36.7-22.91 2.16-10.91 2.11-21.47 5.14-30.8 11.65-3.46 2.41-4.27 5.54-4.32 9.17-.06 4.2 3.21 8.67 6.24 8.66 6.71-.03 13.44.09 20.13-.36 11.12-.74 22.23-1.89 33.36-2.88zm-54.34 45.12c1.37-.16 2.47-.2 3.53-.43 8.95-1.95 17.93-3.75 26.82-5.93 15.54-3.82 30.33-9.28 42.58-20.13 1.83-1.62 3.63-3.37 2.3-5.58-.99-1.64-3.26-3.38-5.07-3.49-6-.38-12.11-.52-18.08.13-10.1 1.1-20.18 2.6-30.17 4.45-7.44 1.38-14.75 3.49-22.07 5.48-.97.26-2.36 1.76-2.29 2.58.65 7.54 1.58 15.07 2.45 22.92zm-48.78-37.43c.05-.31.1-.62.15-.94 8.13 0 16.07-.91 23.26-5.13 3.12-1.83 3.71-3.59 2.18-6.92-.59-1.29-1.41-2.61-2.46-3.53-3.96-3.44-7.96-6.84-12.15-9.99-1.42-1.07-3.36-1.73-5.14-1.97-5.75-.79-11.54-1.31-17.32-1.9-4.22-.43-8.5-1.4-12.66-1.04-8.09.69-15.87 2.44-18.08 12.22-.68 3.01-1.96 5.89-2.58 8.91-.4 1.93.59 3.37 2.84 3.72 13.98 2.16 27.97 4.37 41.96 6.57zm20.86 37.52c2.48-.27 5.47-.7 8.47-.87 2-.12 2.65-1.19 2.97-2.93 2.25-12.25-7.8-23.66-20.35-22.95-7.48.43-15.01.65-22.39 1.8-5.42.85-10.73 2.77-15.88 4.77-2.9 1.13-3.11 3.84-.71 5.84 2.45 2.05 5.11 4.07 8.01 5.36 12.49 5.57 25.75 8.02 39.88 8.98zm54.56 108.29c4.11-.99 9.4-2.14 14.59-3.63 1.18-.34 2.59-1.68 2.94-2.84 1.41-4.68 1.15-9.35-1.99-13.35-2.1-2.67-4.65-3.97-8.48-3.07-3.11.73-6.56.21-9.84.01-1.88-.11-3.71-.79-5.59-1.03-3.21-.41-8.13 2.48-8.51 4.91-1.02 6.49 2.39 11.3 5.97 16.12 2.63 3.55 6.38 1.58 10.91 2.88zm-48.28-1.72c3.66-1.15 7.55-1.86 10.94-3.57 4.94-2.49 5.6-4.8 4.22-10.1-1.58-6.04-9.45-11.34-14.96-9.7-7.64 2.28-10.6 8.23-8.99 15.46 1.02 4.63 4.51 7.25 8.79 7.91zm38.47-36.33c6.34.15 11.04-1.6 14.92-5.36 2.8-2.72 2.13-7.75-1.16-9.43-5.6-2.87-11.75-2.18-16.56 1.93-1.44 1.23-2.95 2.46-4.07 3.96-.64.86-1.03 2.4-.73 3.39 1.53 5.08 2.3 5.49 7.6 5.51z" fill="#010100"/><g fill="#fcfbfa"><path d="m377.9 391.2c-.2.3-.4.5-.6.8-.7-.6-1.4-1-2.2-1.5.2-.3.4-.5.5-.8.6.4 1.4.8 2.3 1.5zm-1.8 6.1c-.2-.2-.5-.4-.9-.6.4-.6.8-1.2 1.2-1.9s.7-1.3.9-1.9c.3.3.5.5.8.7-.7 1.3-1.4 2.6-2 3.7zm2.2-9c-.3.3-.5.5-.6.8-.6-.6-1.3-1.1-2-1.5.3-.3.5-.5.6-.7.6.5 1.3.9 2 1.4zm.3.2v-.9h2 4.5c-.3 1.3-.6 2.5-1 3.6s-.9 2.1-1.4 3c.4.5 1 1 1.6 1.4s1.2.8 1.9 1.1c-.3.2-.5.4-.8.8-.4-.3-1-.7-1.6-1.2s-1.2-1.1-1.6-1.6c-.5.6-1.1 1.1-1.7 1.6s-1.4.9-2.1 1.4c-.1-.3-.3-.5-.7-.8.6-.2 1.2-.5 1.9-1s1.4-1.1 2-1.8c-.5-.8-.9-1.6-1.2-2.5s-.6-2-.8-3.2c-.4.1-.7.1-1 .1zm2.5 2.7c.3 1 .7 1.7 1 2.2.3-.5.6-1.1 1-2s.6-1.9.9-3h-3.2-.4c.1.9.3 1.8.7 2.8z"/><path d="m396.5 388.5v1.5 3.6h1.5v.9c-.4 0-1 0-1.7 0h-7.9c-.5 0-.9 0-1.2 0v-.9h1.3v-3.5c0-.7 0-1.2 0-1.6h2.4c0-.8 0-1.4 0-1.7h1c0 .3-.1.8-.1 1.7h1.5c0-.8 0-1.4 0-1.7h1c0 .3-.1.9-.1 1.7zm-8.2 9.2c-.2-.3-.5-.5-.8-.8.8-.3 1.4-.6 1.9-.9s1-.7 1.4-1.1c.3.3.6.5.9.8-1.6 1-2.8 1.6-3.4 2zm2.6-6.8v-1.6h-1.5v1.6zm0 2.7v-1.9h-1.5v1.9zm2.4-2.7v-1.6h-1.5v1.6zm0 2.7v-1.9h-1.5v1.9zm.2 2 .7-.8c.4.2.9.5 1.6.8s1.3.7 1.8 1c-.3.3-.5.5-.8.8-.4-.3-1.5-1-3.3-1.8zm2-4.7v-1.6h-1.4v1.6zm0 2.7v-1.9h-1.4v1.9z"/></g></svg>