<svg enable-background="new 0 0 400 400" viewBox="0 0 400 400" xmlns="http://www.w3.org/2000/svg"><g fill="#fafafb"><path d="m12.4 4.8-6.1 9h6v1.2h-8v-.5l6.1-8.9h-5.7v-1.2h7.6v.4z"/><path d="m14 15v-10.6h3c1.6 0 2.9.5 4 1.4s1.6 2.2 1.6 3.8-.5 3-1.6 3.9-2.4 1.5-4 1.5zm1.4-9.4v8.2h1.6c1.3 0 2.4-.4 3.1-1.1s1.1-1.8 1.1-3.1-.4-2.3-1.2-3-1.8-1-3.1-1z"/><path d="m26.1 4.4v10.6h-1.4v-10.6z"/><path d="m36.1 14.6c-.8.4-1.8.6-2.9.6-1.5 0-2.7-.5-3.6-1.4s-1.4-2.2-1.4-3.8c0-1.7.5-3.1 1.5-4.1s2.3-1.6 3.9-1.6c1 0 1.8.1 2.5.4v1.4c-.8-.4-1.6-.6-2.5-.6-1.2 0-2.1.4-2.9 1.2s-1.1 1.8-1.1 3.2c0 1.3.3 2.3 1 3s1.6 1.1 2.7 1.1c1 0 2-.2 2.7-.7v1.3z"/><path d="m37.6 14.3c0-.2.1-.5.3-.6s.4-.3.6-.3c.3 0 .5.1.6.3s.3.4.3.6-.1.4-.3.6-.4.3-.6.3c-.3 0-.5-.1-.6-.3s-.3-.4-.3-.6z"/><path d="m50.2 15h-1.6l-5.3-8.2c-.2-.2-.3-.5-.4-.7 0 .2.1.7.1 1.5v7.4h-1.4v-10.6h1.7l5.2 8.1c.2.4.4.6.4.7 0-.3-.1-.8-.1-1.5v-7.3h1.4z"/><path d="m58.6 15h-5.7v-10.6h5.5v1.2h-4.1v3.4h3.8v1.2h-3.8v3.6h4.3z"/><path d="m67.1 5.6h-3.1v9.4h-1.4v-9.4h-3v-1.2h7.5z"/></g><path d="m186.42 361.63c2.24 2.14 5.6 3.18 8.06 1.44 2.03-1.43 3.19-4.68 3.85-7.34.9-3.64 1.08-7.48 1.32-11.25.07-1.14-.67-2.33-.59-3.39 0-1.93-.02-3.87.02-5.8.01-.39.13-.88.38-1.16 3.3-3.58 2.46-7.79 2.16-12.07-.18-2.58-.01-5.48 1.01-7.79 3.31-7.47 4.77-15.49 4.03-23.24-.63-6.65.79-12.77 1.28-19.13.01-.11-.02-.25.03-.33 5.46-8.27 2.26-17.99 4.35-26.94 1.43-6.1 4.05-12.76 1.36-19.57-.55-1.4.78-3.79 1.72-5.47 1.09-1.95 1.77-3.52 1.51-6.06-.43-4.15.64-8.44.8-12.68.1-2.73-.3-5.47-.44-8.2-.08-1.55-.11-3.11-.15-4.66-.09-3.45-.24-6.91-.23-10.36 0-2.74.26-5.47.29-8.21.01-.94-.27-1.9-.48-2.83-.14-.63-.75-1.47-.53-1.82 2.01-3.18-.38-5.52-1.49-8.03-1.81-4.07-1.84-9-.44-11.43-.41-3.41-1.07-5.9-.91-8.33.26-3.96-.03-7.69-1.24-11.52-.85-2.68-.57-5.72-.78-8.6-.25-3.44-1.08-6.59-4.28-8.8-5.21 5.17-11.2 9.71-15.22 15.6-2.8 4.1-6.94 7.66-7.85 13.31-.44 2.73-3.54 4.99-5.33 7.54-1.4 1.99-2.66 4.09-3.95 6.15-.17.27-.31.64-.3.95.15 3.19.32 6.38.53 9.56.06.86.45 1.72.39 2.56-.46 6.66-1.31 13.32-1.35 19.98-.02 2.91-.12 6.33.51 8.72 1.8 6.89 1.04 13.15-.04 19.98-.66 4.15-.34 8.71-1.32 13.04-.11.5-.07 1.2.21 1.61 2.85 4.23 1.52 8.48.26 12.78-.23.78-.25 1.71-.08 2.52.82 3.89 2.19 7.64-.18 11.64-.65 1.1.62 3.21.61 4.85-.03 2.69-.39 5.39-.6 8.08-.04.53-.08 1.07-.02 1.59.3 2.71.62 5.41.97 8.11.31 2.35.74 4.68.98 7.03.11 1.07-.05 2.18-.21 3.26-.58 3.94-2.75 7.58-.32 11.94 1.25 2.24.38 5.65.5 8.53.1 2.67-.11 5.41.47 7.97.47 2.08 1.1 3.8-.8 5.43-.34.29-.63 1.27-.45 1.44 2.72 2.71.36 4.36-.49 5.29.84 6.61 1.58 12.39 2.37 18.69-.36.32-1.19 1.04-1.98 1.74 1.65 3.79 1.38 9.44-.43 10.24-3.15 1.39-6.95-.38-9.2-4.39 2.53-2.7 1.86-5.85 1.14-9.07-.43-1.92-.53-3.92-.68-5.89-.25-3.25-.9-6.57-.51-9.75.43-3.5-.95-7.18 1.4-10.58 1.71-2.48-1.74-10.7-4.62-11.39-1.14-.27-2.52.68-3.79.69-2.79.01-5.59-.18-8.38-.37-3.63-.25-4.8.94-4.38 4.67.31 2.77.74 5.53 1.02 8.31.05.49-.25 1.12-.59 1.52-1.71 2.02-1.92 3.9.16 5.83.35.32.61 1.16.44 1.55-2.62 6.17.23 12.79-1.65 19.05-.83 2.76-.86 5.76-1.58 8.56-.2.76-1.52 1.61-2.41 1.73-1.46.19-2.99-.19-5.09-.39.3-3.58.61-7.49.96-11.39.1-1.11.78-2.43.39-3.29-2.2-4.8.61-9.94-1.2-14.72-.2-.52-.55-1.22-.36-1.6 1.9-3.78.07-7.65.34-11.48.24-3.41-.15-6.86-.32-10.3-.25-5.11-.59-10.22-.83-15.33-.14-2.9-.32-5.82-.2-8.72.1-2.5.6-4.98 1-7.97-.34-1.92-1.02-4.52-1.22-7.16-.52-6.61-.83-13.24-1.21-19.87-.03-.54-.01-1.13.18-1.62 1.6-4.15 2.44-8.18-1.15-11.87-.34-.34.03-1.37.06-2.11-4.59-1.52-4.45-1.69-3.72-6.59.49-3.24.37-6.63.08-9.92-.34-3.88.47-4.73 4.12-3.88.96.22 2.14-.53 3.48-.91 1.91 1.88 2.91 4.4 2.63 7.53-.61 6.91 1.65 13.15 4.72 19.18.43.84.75 1.94.59 2.82-.48 2.69-1.04 5.22 1.6 7.29.47.37.33 1.87.09 2.74-.55 2.04-1.47 3.99-2 6.04-.59 2.27-.91 4.6-1.41 7.22-.28 0-1.14 0-2.01 0-.06.21-.11.42-.17.63 2.07.77 4.15 1.54 6.54 2.42 2.77-3.14 6.23-3.05 10.21-1.71 4.92 1.65 8.92-1.92 8-6.93-1.27-6.89-1.05-13.61-.03-20.59.95-6.5.59-13.35-.21-19.92-1.3-10.66-.91-21.2.48-31.77.09-.67.29-1.36.19-2-1.66-10.19 1.04-20.02 2.4-29.96.16-1.13.15-2.63-.46-3.47-2.77-3.84-2.46-7.95-1.59-12.21.79-3.88-.15-6.01-3.87-7.37-3.01-1.11-6.22-1.9-9.41-2.28-5.46-.65-8.64 2.54-7.68 7.99.55 3.12-1.6 6.22.42 9.41.34.54-2.38 3.01-3.69 4.6-1.16-1.19-3.19-2.28-3.35-3.59-1.01-8.3-1.62-16.66-2.34-24.99-.08-.88.32-1.9 0-2.64-2.51-5.79-.57-10.98 1.61-16.35.86-2.12.71-4.82.47-7.2-.87-8.74-.03-17.35.78-26.06.34-3.63 1.12-7.84-.41-11.72-.51-1.28-.51-2.89-.33-4.3.72-5.6-.42-10.77-2.39-16.04-1.23-3.28-.88-7.15-1.21-10.5 2.51.47 4.52.85 6.7 1.26-.04.26-.17 1.23-.3 2.19.27-.09.55-.18.82-.27.71 1.67 1.79 3.29 2.04 5.02.4 2.86 1.32 4.96 5.17 5.31-1.09 1.7-1.86 2.91-2.82 4.41 1.83 2.37 3.69 5.17 5.96 7.59 1.92 2.04 1.05 3.76.69 5.99-.26 1.63 3.18 2.95 1.12 5.75-1.11 1.5-.36 4.72-1.61 5.7-6.23 4.91-4.88 11.97-5.9 18.37-.49 3.04 1.09 4.59 3.9 5.17 3.03.63 6.05 1.26 9.59 2-.4.23-.19.14-.02.01 4.43-3.52 6.79-7.63 4.8-13.58-.63-1.87-.13-4.21.16-6.29.55-3.92 1.98-7.76.14-11.77-.46-1 .02-2.41.04-3.63.13-7.85-.81-15.38-6.4-21.53-2.36-2.6-3.39-5.46-1.69-9.08 3.63.24 7.08.15 8.8 4.69 1.16 3.07 3.6 5.63 5.17 8.57.49.92.04 2.36-.02 3.56-.01.2-.34.4-.31.57.61 3.87 1.24 7.75 1.9 11.61.24 1.4.6 2.78.91 4.17.37 1.67.75 3.33.95 4.21 0 3.93.04 7.13-.01 10.34-.03 1.98-.64 4.06-.19 5.9.86 3.51-.18 6.64-.72 9.99-.46 2.83.93 5.92 1.2 8.92.36 4.09.43 8.2.64 12.3.14 2.85.4 5.7.43 8.55.02 1.43-.51 2.86-.51 4.29 0 1.36.37 2.72.58 4.08 1.69-.51 3.6-.7 5.01-1.63 1.22-.8 1.88-2.46 2.78-3.74 3.86-5.49 8.28-10.69 11.41-16.57 2.59-4.87 5.85-8.55 10.14-11.89 2.44-1.9 4.58-4.71 3.27-8.97-.91-2.97.26-6.52.12-9.8-.14-3.41-.72-6.8-1.11-10.2-.14-1.2-.35-2.4-.4-3.6-.28-7.8-.86-15.6-.59-23.38.08-2.38 1.95-5.56 3.97-6.8 2.35-1.45 6.11 2.2 6.57 6.27.41 3.65.16 7.36.29 11.04.15 4.2-1.76 8.52 1.31 12.59.87 1.16.32 3.49.2 5.27-.22 3.17-.59 6.33-.92 9.5-.07.63-.55 1.61-.31 1.83 2.63 2.34 1.07 4.9.63 7.46-.33 1.89-.3 3.85 1.91 4.86.39.18.99.58.98.84-.23 4.09 3.59 3.8 5.64 5.48 2.46 2.02 5.05 4.34 6.43 7.1 1.4 2.79 2.46 5.16 6.44 5.09-1.04 1.17-1.74 1.95-2.62 2.94 1.28.79 2.34 1.59 3.5 2.14 2.78 1.3 4.68 3.14 5.26 6.36.2 1.09 1.29 2.32 2.3 2.92 5.64 3.36 7.24 8.84 7.94 14.76.28 2.37-1.61 2.24-2.94 1.64-4.15-1.87-8.93-2.97-9.54-8.97-.19-1.84-1.96-3.71-3.38-5.21-2.78-2.91-6.04-5.38-8.68-8.4-1.62-1.84-2.73-4.27-3.59-6.6-.76-2.07-3.3-3.86-6.02-2.93-.83.28-1.65 2.52-1.43 3.66 1.01 5.25 2.33 10.44 3.65 15.62 1.4 5.51 3.02 10.96 4.35 16.49.36 1.49-.03 3.15-.05 4.73-.01.81-.02 1.64.11 2.43.09.53.76 1.31.61 1.47-2.83 3.14.3 6.21.15 9.33-.12 2.4 1.19 4.83 1.53 7.3.23 1.67-.13 3.41.03 4.98.36 1.87.65 3.77 1.11 5.61.26 1.07.68 2.14 1.25 3.07 1.78 2.9 2.09 5.8 1.55 9.24-.57 3.64 0 7.46.18 11.2.1 2.23.28 4.47.64 6.67.82 4.92 1.78 9.82 2.69 14.73.1.54.34 1.07.37 1.61.13 2.14.21 4.29.7 6.43-1.3 1.58-.71 3.15-.26 5.26 1.74 8.17 3.13 16.44 4.16 24.73.27 2.21-1.88 4.71 1.27 6.73-2.82 1.88-2.33 4.15-1.33 6.55.9 2.17 1.61 4.41 2.53 6.57.87 2.04 1.49 3.94-.28 5.89-.41.45-.65 1.63-.35 2.05 2.14 3.06 1.27 6.18.51 9.36-.62 2.56-.64 4.96 2.74 6.19-1.13 1.51-2.1 2.82-3.19 4.28.85.69 1.61 1.3 2.47 1.99-1.7 7.98-1.53 15.96.11 24.35-.43.14-1.54.52-2.79.94.81 1.1 1.6 2.16 2.46 3.31-.57.52-1.11 1.02-1.82 1.67 3.31 2.58 3.19 5.78 1.78 9.26-.5 1.24-.81 2.55-1.18 3.84-1.03 3.58 1.26 6.23 4.97 6.47 2.66.17 5.27 1.15 7.89 1.8.97.24 1.9.69 2.88.86 4.78.79 5.69 1.98 5.29 7.91-13.21 0-26.47 0-39.74 0-.39-.83-.91-1.91-1.43-2.99-.16.39-.32.78-.49 1.18-1.55.01-3.1.02-4.65.03-1.34 0-2.71-.18-4.02.04-1.17.2-2.26.84-3.73 1.42.29-1.28.5-2.22.81-3.56-6.07 3.1-11.89-.94-17.71.62-2.79.75-5.93-.07-7.97 3.12-.44.69-3.49.51-4.74-.25-3.02-1.84-5.69-4.26-8.5-6.44.38-.56.76-1.12 1.14-1.67 3.5-1.35 7.11-2.61 11.18-4.03zm42.13 1.81c2.16-1.87 4.31-3.51 6.16-5.44 1-1.04 1.46-2.59 2.19-3.9 2.8-4.95-2.91-8.67-1.93-13.35-3.8-4.52-3.89-9.7-2.83-15.16.18-.92-.5-1.99-.41-2.95.46-4.62 1.02-9.23 1.59-13.83.19-1.5.76-3 .73-4.48-.1-4.02-.54-8.02-.63-12.04-.13-5.79.43-11.63-1.77-17.22-.3-.75 0-1.74.03-2.61.08-2.64.67-5.39.15-7.91-1.09-5.26 1.1-11.04-2.61-15.88-.38-.5-.08-1.53-.08-2.31 0-3.47.29-6.97-.09-10.39-.38-3.4-1.43-6.73-2.29-10.53-4.05 3.8-5.32 6.75-5.66 12.23-.51 8.3-1 16.6-1.55 24.89-.06.86-.34 1.76-.73 2.53-1.35 2.68-3.14 5.28-.7 8.29.23.28.2.84.15 1.26-.27 2.15-.69 4.28-.86 6.43-.25 3.21 1.13 6.74-2.24 9.28-.44.33-.24 1.68-.13 2.53.6 4.67.8 9.21-.78 13.87-1.12 3.3-1.22 6.96-1.7 10.47-.09.63.31 1.32.27 1.97-.14 1.9.18 4.11-.7 5.61-3.14 5.37-3.65 11.09-3.65 17.11 0 3.82-.77 7.66-1.38 11.46-.1.6-1.23 1.04-1.45 1.22 2.39 2.7 4.83 5.45 7.48 8.44 3.35-3.07 6.1-1.71 8.46 1.17 3.54-3.78 3.54-3.78 6.96-.76zm-65.98-88.99c-3.38-.77-6.13-1.39-8.69-1.97-2.13.34-4.33.86-6.55 1.02-4.2.3-8.37 4.18-5.6 9.11.32.58.53 1.46.33 2.05-1.48 4.44-.7 8.5 1.7 12.42.94 1.53 1.76 2.08 3.74 1.57 3.41-.88 6.89-3.21 10.53-.48.19.14.7.06.94-.1 2.11-1.46 4.47-2.73 6.14-4.59.65-.72-.28-2.84-.47-4.32-.06-.43-.23-.95-.06-1.3 2.54-5.33-1.21-9.54-2.01-13.41zm-16.42-155.84c.18-.3.35-.6.53-.9 1.78.12 3.55.27 5.33.37 2.85.15 5.8.75 8.52.21 1.57-.31 3.3-2.24 4-3.85.89-2.04.76-4.51 1.15-6.79.67-3.9.02-4.9-3.81-6.03-1.78-.52-3.49-1.27-5.23-1.91.02.35.04.71.06 1.06-2.11.24-4.23.75-6.33.67-2.97-.12-6.43 1.96-6.65 4.64-.36 4.38.21 8.64 2.43 12.53z" fill="#010105"/></svg>