<svg enable-background="new 0 0 400 400" viewBox="0 0 400 400" xmlns="http://www.w3.org/2000/svg"><path d="m192.53 337.67c-36.82-.05-72.48-6.72-107.18-18.82-1.24-.43-2.39-1.2-3.47-1.98-4.54-3.27-8.86-6.87-13.57-9.86-6.66-4.23-11.13-10.2-14.92-16.89-10.94-19.33-17.6-40.29-23.39-61.57-3.5-12.87-6.18-25.92-6.41-39.3-.08-4.61.52-9.41 1.82-13.82 3.44-11.68 7.41-23.2 11.23-34.76.41-1.23.96-2.59 1.86-3.46 16.16-15.65 32.42-31.17 51.44-43.49 8.57-5.55 17.54-9.69 27.54-11.69 4.94-.99 9.86-2.25 13.81-5.64 7.66-6.56 17.16-7.74 26.54-9.94 25.67-6.03 50.98-2.22 76.27 1.83 19.87 3.18 39.6 7.22 58.71 13.74 20.41 6.97 39.69 16.23 54.8 31.98 5.44 5.67 9.59 12.94 13.05 20.1 8.61 17.83 11.41 37.05 11.57 56.7.01 1-.48 2.22-1.14 2.98-3.02 3.49-4.18 7.61-4.31 12.07-.15 5.26.11 10.53-.27 15.77-.23 3.14-.88 6.42-2.15 9.28-4.94 11.13-10.35 22.05-15.29 33.19-2.44 5.5-5.68 10.27-9.81 14.63-24.82 26.19-54.07 44.89-89.43 53.41-18.84 4.54-38.02 5.5-57.3 5.54zm-58.78-80.95c1.41-2.51 2.83-4.77 3.97-7.17 1.14-2.38 2.77-3.84 5.39-4.5 6.06-1.52 12-3.62 18.13-4.8 10.21-1.96 20.38-2.18 29.21 4.67 12.27 9.52 20.83 21.15 20.96 37.52.05 6.46 2.18 12.32 6.16 17.4.76.97 2.29 1.87 3.48 1.89 22.68.42 44.3-4.02 64.19-15.16 14.41-8.08 27.43-17.8 34.22-33.72.48-1.12 1.05-2.25 1.78-3.22 5.03-6.78 6.88-14.37 5.82-22.7-.01-.11-.02-.23 0-.34.3-1.95-.52-2.94-2.38-3.71-8.04-3.33-16.42-5.13-25.04-5.86-9.42-.8-16.23 3.29-20.47 11.62-3.2 6.29-2.85 12.99-1.83 19.69.67 4.37-.47 8.24-3.17 11.61-.84 1.05-2.71 2.55-3.38 2.24-2.51-1.15-6.44-.33-7.11-4.4-1.24-7.61-2.8-15.18-3.57-22.83-.64-6.37-.27-13 3.61-18.43 10.29-14.38 23.47-24.65 41.72-26.29 9.01-.81 17.55-2.31 24.46-8.61.91-.83 1.68-2.4 1.64-3.6-.34-10.78-2.85-21.04-8.4-30.37-7.79-13.1-18.88-22.88-31.84-30.61-3.12-1.86-6.54-4.2-9.94-4.41-8.03-.5-15.32-2.69-22.24-6.56-1.85-1.03-3.79-1.93-5.74-2.77-6.75-2.9-13.8-5.15-21.12-3.6-7.74 1.64-15.29 4.23-22.9 6.46-.92.27-2.18.65-2.54 1.36-3.33 6.5-8.03 12.41-8.25 20.25-.28 10.27 3.82 14.84 14.1 15.44 5.36.32 10.75.57 16.03 1.44 5.32.87 10.52 2.47 15.8 3.76-1.29 6.28-3.66 10.73-9.18 13.22-2.92 1.32-5.42 3.53-8.15 5.28-1.01.65-2.14 1.59-3.22 1.6-6.78.09-13.8 1.07-20.3-.32-19.39-4.17-31.17-17.4-38.4-35.13-1.05-2.56-1.27-5.62-1.21-8.44.16-7.35.68-14.69 1.09-22.74-7.75.61-15.09.94-22.37 1.82-14.07 1.7-27 6.22-37.38 16.44-11.24 11.07-22.52 22.1-33.7 33.23-.82.82-1.33 2.32-1.35 3.51-.12 7.16-.09 14.33-.03 21.49.01 1.08.23 2.24.68 3.21 3.07 6.58 6.18 13.15 9.39 19.66.44.89 1.37 1.85 2.28 2.14 11.83 3.74 21.75 2.12 28.15-10.14 4.5-8.62 9.27-17.1 13.88-25.66.71-1.32 1.18-2.56 3.19-2.06 4.21 1.05 8.47 1.87 13.18 2.89-.31 4.08-.42 8.08-.94 12.04-1.73 13.27-6.68 25.06-16.84 34.13-13.11 11.7-28.57 17.64-46.13 18.06-4.21.1-8.43.01-13.67.01.82 6.19.97 11.93 2.43 17.33 3.14 11.6 10.59 20.85 17.97 30 3.76 4.66 7.35 9.57 13.17 12.14 15.41 6.8 31.34 11.95 47.93 14.79 9.47 1.62 18.93 1.5 28.06-2.28 1.89-.78 2.7-1.78 2.89-3.88.64-7.35 1.61-14.68 2.24-22.03.12-1.37-.44-3.11-1.29-4.2-4.68-5.95-11.02-8.96-18.46-9.73-8.62-.93-17.05-2.42-24.66-8.07z" fill="#010106"/><g fill="#fcfbfa"><path d="m385.2 377.6.6-.7c.6.4 1.3.9 1.9 1.5l-.6.7c-.8-.5-1.4-1-1.9-1.5zm.3 7.1c.6-1.4 1.1-2.9 1.5-4.5.3.1.6.3.9.4-.5 1.4-1 2.9-1.5 4.4zm.2-10.1.6-.6c.7.5 1.3 1.1 1.9 1.6l-.7.7c-.6-.6-1.2-1.2-1.8-1.7zm8.4-.8h.8v.9h1.8v.7h-1.8v1.8h-.8v-.3h-1.2v.9h3.3v2.6h-.8v-.4h-2.5c0 .3 0 .6-.1.8h3.4v.7h-3.5c0 .3-.1.6-.1.8h4v.7h-3.5c.7.9 1.9 1.3 3.6 1.5-.2.2-.4.5-.6.9-1.9-.3-3.2-1.1-3.8-2.3-.5 1.1-1.8 2-3.9 2.4-.2-.3-.4-.5-.6-.8 1.9-.4 3.1-.9 3.6-1.7h-3.2v-.7h3.5c.1-.2.1-.5.2-.8h-3.3v-.7h3.4c0-.2 0-.5 0-.8h-2.4v.3h-.8v-2.6h3.3v-.9h-1.2v.3h-.8v-1.8h-1.8v-.7h1.8v-.9h.8v.9h3.2zm-4.4 5.5h2.4c0-.3 0-.6 0-.9h-2.4zm1.2-3.1h3.2v-.8h-3.2zm4.4 2.2h-2.4v.9h2.5v-.9z"/><path d="m389.2 385.8h.9v1.5h1.9v-1.5h.9v1.5h2.7v6h1.1v.9h-11.3v-.9h1.1v-6h2.7zm.2 8.7.5.8c-1.2.6-2.5 1.3-4 1.9-.2-.3-.3-.6-.6-.8 1.6-.6 3-1.3 4.1-1.9zm-2-4.3h1.9v-2.1h-1.9zm0 3.1h1.9v-2.2h-1.9zm2.7-3.1h1.9v-2.1h-1.9zm0 3.1h1.9v-2.2h-1.9zm2.4 1.3c1.4.6 2.7 1.2 4.1 1.8l-.5.9c-1.5-.7-2.8-1.4-4.1-1.9zm2.2-6.5h-1.9v2.1h1.9zm-1.9 5.2h1.9v-2.2h-1.9z"/></g></svg>