<svg enable-background="new 0 0 400 400" viewBox="0 0 400 400" xmlns="http://www.w3.org/2000/svg"><g fill="#010106"><path d="m256.63 290.4c-1.66-1.01-3.89-1.64-4.86-3.1-2.95-4.43-5.64-9.07-8-13.85-2.46-5-4.59-10.18-6.55-15.4-1.48-3.93-4.56-5.79-8.18-5.91-15.74-.54-31.48-1.92-47.24-.16-4.21.47-6.98 2.1-8.85 6.25-2.58 5.73-5.08 11.67-10.58 15.62-1.61 1.15-2.09 3.84-3.67 5.07-1.49 1.16-3.75 1.34-5.66 1.94-.34-1.64-1.16-3.37-.9-4.9.37-2.12 1.28-4.27 2.43-6.11 4.95-7.94 11.39-14.91 14.69-23.93 5.06-13.84 5.7-27.93 3.07-42.27-.16-.85-.92-1.75-1.64-2.29-1.6-1.21-3.36-2.21-5.06-3.3-7.53-4.82-12.51-11.13-13.42-20.49-.79-8.11-3.26-16.11-3.54-24.2-.65-18.7-.43-37.43-.56-55.9 7.01-1.73 12 2.62 11.83 9.23-.06 2.12-.44 4.24-.37 6.36.07 2.15.79 3.87 3.56 3.85 11.87-.07 23.73-.03 35.6-.04.43 0 .86-.14 1.64-.27-1.33-6.2-2.57-12.32-3.96-18.39-3.67-15.97-4.77-31.96-.86-48.07 1.58-6.5 2.89-13.06 4.53-19.53.48-1.9 1.72-3.61 2.7-5.58 3.45.8 5.15 3.2 6.11 6.11 7.69 23.25 9.76 46.73 2.82 70.57-1.43 4.91-2.63 9.88-4.06 15.29 1.22.29 2.66.89 4.12.94 6.34.24 12.7.54 19.04.38 4.08-.11 8.15-.9 12.19-1.58 1.97-.34 2.96-1.65 2.68-3.86-.21-1.65.22-3.4-.09-5.02-1.03-5.49 1.9-9.92 3.67-14.66.79-2.11 2.7-2.31 4.11-1.2 2.55 2.01 5.38 3.93 5.08 7.99-.59 7.92-1.11 15.85-1.34 23.79-.15 5.13-.1 10.32.52 15.41 1.05 8.75-2.08 17.01-2.44 25.58-.38 9.12-2.16 17.87-6.12 26.25-1.94 4.11-5.57 5.64-8.82 7.81-2.09 1.4-2.91 2.71-2.82 5.35.5 15.09 2.67 29.81 8.06 44 1.3 3.43 1.92 7.13 3.17 10.59 1.11 3.1 2.38 6.21 4.06 9.02 4.01 6.73 4.68 14.06 4.83 21.56-.31.33-.62.69-.92 1.05zm-9.43-139.38c-.63-5.74-1.5-13.52-2.3-21.29-.17-1.62-.71-2.35-2.51-2.27-7.7.33-15.41.7-23.12.72-13.53.03-27.05-.22-40.58-.29-5.52-.03-10.97-1.46-16.61.33-3.49 1.11-4.23 2.77-4.58 6.06-.5 4.75 2.44 8.85 1.48 13.75-2.03 10.38.84 20.51 2.76 30.64.1.51.46.99.77 1.44 5.8 8.59 13.7 14.37 24.04 15.38 10.49 1.03 21.09 1.1 31.64 1.13 2.24.01 4.5-1.97 6.72-3.09.67-.34 1.53-1.4 1.79-1.25 2.5 1.44 3.7-.81 5.19-1.81 2.76-1.85 6.6-3.43 7.77-6.09 4.35-9.91 7.98-20.17 7.54-33.36zm-40.23 54.98c0-.3 0-.61 0-.91-4.8 0-9.61-.08-14.41.03-2.47.06-5.09.32-5.7 3.46-1.97 10.07-3.89 20.15-5.77 30.24-.29 1.58.14 2.76 2.12 3.06 14.08 2.09 28.22 3.63 42.4 1.66 8.44-1.17 7.49.16 6.12-9.28-1.16-8.01-5.76-15.24-5.19-23.74.18-2.72-1.94-4.59-5.14-4.53-4.81.07-9.62.01-14.43.01z"/><path d="m134.85 374.7c.24-10.93 2.56-21.19 7.58-30.32 5.96-10.83 12.16-21.68 21.21-30.47 7.24-7.04 15.81-12.07 24.85-16.27 11.14-5.18 22.39-10.14 34.78-11.81 5.69-.77 8.35 1.57 6.96 7.03-3.36 13.18-6.07 26.61-12.79 38.66-6.19 11.1-13.82 20.7-26.14 25.83-6.78 2.82-12.91 7.2-19.71 9.94-10.99 4.44-22.29 8.12-34.44 7.63-.65-.03-1.3-.12-2.3-.22zm50.14-25.87c2.61-1.38 6.06-2.16 7.81-4.31 4.91-6.04 9.41-12.47 13.49-19.1 2.64-4.29 2-9.08-1.91-12.51-3.13-2.75-6.83-4.88-10.4-7.08-.74-.46-2.16-.3-3.07.06-9.68 3.84-15.32 12.38-22.32 19.34-.22.21-.26.61-.37.92-2.61 7.21-.07 15.41 7.05 17.84 1.44.49 2.62 1.69 4 2.39 1.63.81 3.35 1.44 5.72 2.45zm-11.91 7.79c-5.38-4.63-10.4-8.95-15.45-13.3-4.76 6.07-8.62 12.91-7.93 22.07 8.57-2.29 16.92-3.08 23.38-8.77zm32.71-56.73c2.26 2.81 4.28 5.19 6.16 7.68 1.2 1.59 2.51 1.62 3.5.14 1.48-2.21 3-4.51 3.85-6.99 1.15-3.34-.96-5.28-4.32-4.21-2.96.95-5.85 2.14-9.19 3.38z"/><path d="m180.75 318.83c7.76.18 13.6 4.83 14.24 10.88.09.89-.86 2.5-1.67 2.77-2.36.79-5.46 2.21-7.24 1.32-3.99-2-7.57-5-10.88-8.07-1.68-1.56-1.54-3.9 1.24-5.02 1.73-.7 3.41-1.49 4.31-1.88z"/></g><path d="m385.2 377.6.6-.7c.6.4 1.3.9 1.9 1.5l-.6.7c-.8-.5-1.4-1-1.9-1.5zm.3 7.1c.6-1.4 1.1-2.9 1.5-4.5.3.1.6.3.9.4-.5 1.4-1 2.9-1.5 4.4zm.2-10.1.6-.6c.7.5 1.3 1.1 1.9 1.6l-.7.7c-.6-.6-1.2-1.2-1.8-1.7zm8.4-.8h.8v.9h1.8v.7h-1.8v1.8h-.8v-.3h-1.2v.9h3.3v2.6h-.8v-.4h-2.5c0 .3 0 .6-.1.8h3.4v.7h-3.5c0 .3-.1.6-.1.8h4v.7h-3.5c.7.9 1.9 1.3 3.6 1.5-.2.2-.4.5-.6.9-1.9-.3-3.2-1.1-3.8-2.3-.5 1.1-1.8 2-3.9 2.4-.2-.3-.4-.5-.6-.8 1.9-.4 3.1-.9 3.6-1.7h-3.2v-.7h3.5c.1-.2.1-.5.2-.8h-3.3v-.7h3.4c0-.2 0-.5 0-.8h-2.4v.3h-.8v-2.6h3.3v-.9h-1.2v.3h-.8v-1.8h-1.8v-.7h1.8v-.9h.8v.9h3.2zm-4.4 5.5h2.4c0-.3 0-.6 0-.9h-2.4zm1.2-3.1h3.2v-.8h-3.2zm4.4 2.2h-2.4v.9h2.5v-.9z" fill="#fcfbfa"/><path d="m389.2 385.8h.9v1.5h1.9v-1.5h.9v1.5h2.7v6h1.1v.9h-11.3v-.9h1.1v-6h2.7zm.2 8.7.5.8c-1.2.6-2.5 1.3-4 1.9-.2-.3-.3-.6-.6-.8 1.6-.6 3-1.3 4.1-1.9zm-2-4.3h1.9v-2.1h-1.9zm0 3.1h1.9v-2.2h-1.9zm2.7-3.1h1.9v-2.1h-1.9zm0 3.1h1.9v-2.2h-1.9zm2.4 1.3c1.4.6 2.7 1.2 4.1 1.8l-.5.9c-1.5-.7-2.8-1.4-4.1-1.9zm2.2-6.5h-1.9v2.1h1.9zm-1.9 5.2h1.9v-2.2h-1.9z" fill="#fcfbfa"/></svg>