<svg enable-background="new 0 0 400 400" viewBox="0 0 400 400" xmlns="http://www.w3.org/2000/svg"><path d="m63.02 294.87c-4.04-14.11-5.62-28.26-3.11-42.6 2.74-15.63 5.69-31.24 9.21-46.71 1.32-5.79 4.59-11.12 6.79-16.73.72-1.82 1.23-3.85 1.24-5.79.08-24.74.45-49.48-.12-74.21-.26-11.35-2.36-22.67-3.73-33.99-1.84-15.1-3.79-30.18-5.67-45.28-.13-1.08-.13-2.18-.2-3.56 10.11.53 19.85 1.53 28.66 6.47 6.45 3.62 9.56 9.1 8.67 16.7-1.61 13.65 1.78 25.74 11.69 35.63.88.88 2.16 1.68 3.35 1.86 36.59 5.6 73.16 11.28 109.8 16.56 17.64 2.54 35.37 3.62 53.07-.27 4.92-1.08 7.71-3 8.77-8.47 2.74-14.14 6-28.2 9.54-42.17 3.78-14.92 15.27-17.87 27.73-16.33.84.1 1.99 1.97 2.1 3.11.56 5.67 1.11 11.37 1.13 17.06.1 23.96-.79 47.89-3.7 71.69-.67 5.49-1.41 10.88-5.05 15.69-1.97 2.61-2.12 6.63-2.92 10.05-.27 1.16-.09 2.46.05 3.68.85 7.69-1.17 14.51-4.64 21.47-2.38 4.78-3.04 10.7-3.36 16.17-1.11 19.44 1.78 38.62 4.77 57.75 2.77 17.67 5.27 35.4 8.63 52.97 1.73 9.06 5.27 17.76 7.64 26.71 2.43 9.16 4.92 18.36 6.42 27.69.67 4.17-.78 8.76-1.68 13.07-.43 2.04-1.99 2.77-4.38 1.78-7.12-2.96-14.38-5.57-21.51-8.5-1.31-.54-2.6-1.72-3.34-2.94-2.82-4.7-6.07-9.29-7.91-14.37-2.3-6.35-3.65-13.1-4.86-19.78-1.22-6.7-1.69-13.53-2.62-20.29-1.6-11.68-8.07-20.4-17.09-27.45-1.01-.79-2.69-.98-4.06-.99-11.75-.07-23.52.27-35.26-.11-22.8-.74-45.64-1.23-68.36-3.13-10.88-.91-21.64-4.38-32.22-7.5-11.56-3.41-23.17-4.71-35.13-3.72-2.63.22-4.56 1.15-6.18 3.32-2.8 3.77-6.15 7.15-8.78 11.02-5.58 8.24-13.42 12.58-23.38 14.44zm165.46-41.68c18.7-.03 36.28-4.51 52.74-13.42 1.85-1 2.66-2.12 2.81-4.36.62-9.71 1.66-19.4 2.31-29.1.87-12.83 1.87-25.66 2.16-38.51.19-8.06-1.39-16.01-4.91-23.45-1.1-2.33-2.56-3.52-5.3-3.63-6.26-.25-12.52-.65-18.74-1.33-12.12-1.32-24.18-3.1-36.31-4.26-20.5-1.96-40.98-3.86-60.88-9.55-1.44-.41-3.1-.45-4.59-.22-15.03 2.31-30.04 4.76-45.08 7.03-2.34.35-3.49 1.13-3.91 3.56-3.23 18.49-7.01 36.9-9.73 55.46-2.18 14.86 1.5 28.68 11.01 40.59.97 1.21 2.85 2.21 4.4 2.38 23.94 2.53 47.62 6.57 71.07 11.96 14.17 3.25 28.25 6.96 42.95 6.85z" fill="#010102"/><g fill="#fafbfa"><path d="m6.4 11.7c-1-.8-1.9-1.6-2.9-2.3l.6-.7c.9.7 1.9 1.4 2.9 2.2zm-2.1 8.3c.7-2.1 1.4-4.2 2-6.4.2.1.6.3 1 .4-.7 2.3-1.3 4.4-1.9 6.4zm3-12.8c-1.1-.9-2.1-1.7-2.9-2.4l.6-.7c1 .8 2 1.5 3 2.4zm1.4-1.3v-.9h10.2v.9c-.9 4.2-2.3 7.3-4.1 9.4 1.3 1.4 3.2 2.7 5.7 4-.2.2-.4.5-.7.9-2.5-1.4-4.4-2.7-5.7-4.2-1.4 1.5-3.5 3-6.1 4.4 0 0 0 0-.1-.1-.3-.4-.5-.7-.7-.8 2.7-1.3 4.7-2.8 6.2-4.2-1.8-2.2-3-5.3-3.7-9.4zm9.2 0h-7.1c.6 3.8 1.7 6.7 3.4 8.7 1.7-2 2.9-4.8 3.7-8.7z"/><path d="m31.6 3.6h.9v2.3h4.1v9.1h1.7v.9h-16.6v-.9h1.7v-9.1h4.1v-2.3h.9v2.3h3.1v-2.3zm-4 13.3.6.8c-1.9.9-3.8 1.9-5.8 2.8-.2-.3-.3-.6-.5-.9 2-.9 3.9-1.8 5.7-2.7zm-3.2-10.1v3.7h3.1v-3.7zm0 4.5v3.7h3.1v-3.7zm4.1-4.5v3.7h3.1v-3.7zm0 4.5v3.7h3.1v-3.7zm9.1 9.1c-2.1-1.1-4.1-2-5.8-2.7l.5-.8c2.2.9 4.1 1.8 5.8 2.6zm-1.9-13.6h-3.1v3.7h3.1zm-3.2 4.5v3.7h3.1v-3.7z"/></g></svg>