<svg enable-background="new 0 0 400 400" viewBox="0 0 400 400" xmlns="http://www.w3.org/2000/svg"><g fill="#fafafb"><path d="m12.4 4.8-6.1 9h6v1.2h-8v-.5l6.1-8.9h-5.7v-1.2h7.6v.4z"/><path d="m14 15v-10.6h3c1.6 0 2.9.5 4 1.4s1.6 2.2 1.6 3.8-.5 3-1.6 3.9-2.4 1.5-4 1.5zm1.4-9.4v8.2h1.6c1.3 0 2.4-.4 3.1-1.1s1.1-1.8 1.1-3.1-.4-2.3-1.2-3-1.8-1-3.1-1z"/><path d="m26.1 4.4v10.6h-1.4v-10.6z"/><path d="m36.1 14.6c-.8.4-1.8.6-2.9.6-1.5 0-2.7-.5-3.6-1.4s-1.4-2.2-1.4-3.8c0-1.7.5-3.1 1.5-4.1s2.3-1.6 3.9-1.6c1 0 1.8.1 2.5.4v1.4c-.8-.4-1.6-.6-2.5-.6-1.2 0-2.1.4-2.9 1.2s-1.1 1.8-1.1 3.2c0 1.3.3 2.3 1 3s1.6 1.1 2.7 1.1c1 0 2-.2 2.7-.7v1.3z"/><path d="m37.6 14.3c0-.2.1-.5.3-.6s.4-.3.6-.3c.3 0 .5.1.6.3s.3.4.3.6-.1.4-.3.6-.4.3-.6.3c-.3 0-.5-.1-.6-.3s-.3-.4-.3-.6z"/><path d="m50.2 15h-1.6l-5.3-8.2c-.2-.2-.3-.5-.4-.7 0 .2.1.7.1 1.5v7.4h-1.4v-10.6h1.7l5.2 8.1c.2.4.4.6.4.7 0-.3-.1-.8-.1-1.5v-7.3h1.4z"/><path d="m58.6 15h-5.7v-10.6h5.5v1.2h-4.1v3.4h3.8v1.2h-3.8v3.6h4.3z"/><path d="m67.1 5.6h-3.1v9.4h-1.4v-9.4h-3v-1.2h7.5z"/></g><path d="m58.3 275.41c0-3.24-.26-6.51.12-9.7.17-1.44 1.39-2.93 2.47-4.08 12.23-12.93 18.66-28.66 22.66-45.93-5.64-2.67-11.47-3.67-17.37-3.05-5.53.58-11.01 1.83-16.44 3.09-11.35 2.63-20.01-.1-27.85-9.25 4.77-4.02 10.27-6.82 16.18-8.15 8.25-1.86 16.72-2.72 25.07-4.15 7.03-1.21 14.11-2.29 21-4.08 5.27-1.37 6.03-2.79 4.47-8.11-1.71-5.86-3.95-11.62-6.58-17.13-3.18-6.64-7.16-12.9-10.49-19.48-1.44-2.85-2.3-6.04-3.05-9.17-.57-2.35.28-4.5 2.68-5.57 2.23-1 3.68.22 5.16 1.84 7.02 7.68 14.23 15.2 21.18 22.94 2.04 2.28 3.73 4.99 5.08 7.74 2.78 5.72 5.13 11.66 7.89 17.4.47.97 2.1 2.01 3.16 1.97 14.08-.46 28.16-1.05 42.24-1.73 23.41-1.13 46.04-6.27 68.14-13.82 10.04-3.43 19.89-7.4 29.78-11.25 1.26-.49 2.48-1.52 3.32-2.61 12.98-16.98 25.87-34.03 38.88-50.98 1.15-1.5 2.89-2.74 4.61-3.6 18.1-9.07 37.41-14.61 57.02-19.24 4.46-1.05 8.43.84 11.97 3.05 3.06 1.91 2.58 7.89-.4 10.08-10.67 7.86-23.05 10.82-35.81 13.23-8.83 1.67-17.44 4.58-26.04 7.29-1.6.5-3.11 2.46-3.92 4.12-2.27 4.6-4.33 9.33-6.15 14.13-5.22 13.74-13.88 25.24-23.47 36.07-8.42 9.5-19.42 15.57-30.91 20.26-6.06 2.47-13.2 2.15-19.72 3.68-16.42 3.84-32.68 8.37-49.15 11.93-12.54 2.71-25.31 4.41-37.99 6.47-7.17 1.17-14.39 2.08-21.56 3.27-1.43.24-2.97.96-4.07 1.91-8.31 7.21-13.59 16.55-17.9 26.45-4.12 9.45-9.07 18.32-17.37 24.69-4.99 3.83-10.53 6.94-15.82 10.37-.36-.29-.69-.6-1.02-.9z" fill="#010105"/><path d="m206.61 227.12c7.96 4.75 15.42 8.82 22.44 13.55 3.12 2.1 3.14 6.01 2.07 9.54-.48 1.59-1.16 3.18-2.04 4.58-5.73 9.12-7.3 19.25-7.76 29.78-.24 5.54-1.12 11.09-2.24 16.53-2.03 9.84-9.24 14.85-18 18.11-10.53 3.91-21.17 2.15-31.78.37-.99-.17-1.94-.58-2.93-.69-12.45-1.46-18.2-10.28-21.34-20.8-2.47-8.29-3.15-17.11-4.78-25.66-1.06-5.59-2.44-11.12-3.57-16.7-.2-.98-.13-2.18.27-3.08 1.63-3.65 3.4-7.24 5.21-10.81.95-1.87 1.83-3.89 3.24-5.39 2.49-2.66 4.83-2.65 7.5-.2 9.22 8.45 19.92 9.21 31.38 6.18.97-.26 1.95-.52 2.94-.68 8.86-1.47 16.01-5.38 19.39-14.63zm-7.28 50.09c0-1.1-.01-1.54 0-1.99.3-9.57-5.31-13.94-14.53-11.37-3.12.87-6.33 1.38-9.43 2.29-3.62 1.07-7.2 2.3-10.72 3.65-2.74 1.06-4.25 2.93-3.64 6.2.61 3.28.49 6.73 1.35 9.94 2.13 7.97 6.9 13.26 15.42 14.02 6.61.6 12.26-1.57 17.43-5.47 1.99-1.5 3.1-3.32 3.23-5.88.19-4.02.61-8.02.89-11.39z" fill="#010105"/></svg>