<svg enable-background="new 0 0 400 400" viewBox="0 0 400 400" xmlns="http://www.w3.org/2000/svg"><g fill="#fafafb"><path d="m12.4 4.8-6.1 9h6v1.2h-8v-.5l6.1-8.9h-5.7v-1.2h7.6v.4z"/><path d="m14 15v-10.6h3c1.6 0 2.9.5 4 1.4s1.6 2.2 1.6 3.8-.5 3-1.6 3.9-2.4 1.5-4 1.5zm1.4-9.4v8.2h1.6c1.3 0 2.4-.4 3.1-1.1s1.1-1.8 1.1-3.1-.4-2.3-1.2-3-1.8-1-3.1-1z"/><path d="m26.1 4.4v10.6h-1.4v-10.6z"/><path d="m36.1 14.6c-.8.4-1.8.6-2.9.6-1.5 0-2.7-.5-3.6-1.4s-1.4-2.2-1.4-3.8c0-1.7.5-3.1 1.5-4.1s2.3-1.6 3.9-1.6c1 0 1.8.1 2.5.4v1.4c-.8-.4-1.6-.6-2.5-.6-1.2 0-2.1.4-2.9 1.2s-1.1 1.8-1.1 3.2c0 1.3.3 2.3 1 3s1.6 1.1 2.7 1.1c1 0 2-.2 2.7-.7v1.3z"/><path d="m37.6 14.3c0-.2.1-.5.3-.6s.4-.3.6-.3c.3 0 .5.1.6.3s.3.4.3.6-.1.4-.3.6-.4.3-.6.3c-.3 0-.5-.1-.6-.3s-.3-.4-.3-.6z"/><path d="m50.2 15h-1.6l-5.3-8.2c-.2-.2-.3-.5-.4-.7 0 .2.1.7.1 1.5v7.4h-1.4v-10.6h1.7l5.2 8.1c.2.4.4.6.4.7 0-.3-.1-.8-.1-1.5v-7.3h1.4z"/><path d="m58.6 15h-5.7v-10.6h5.5v1.2h-4.1v3.4h3.8v1.2h-3.8v3.6h4.3z"/><path d="m67.1 5.6h-3.1v9.4h-1.4v-9.4h-3v-1.2h7.5z"/></g><path d="m60.89 374.83c-.59-116.54-1.18-232.77-1.77-349.16 6.09.41 11.98 1.87 17.41.85 4.55-.86 8.78.17 13.14-.2 3.31-.28 6.68.42 10.03.43 3.72 0 7.44-.36 11.16-.43 2.28-.04 4.58.32 6.85.23 1.59-.06 3.17-.87 4.74-.82 6.78.21 13.55.74 20.33.88 3.03.06 6.07-.56 9.12-.82.77-.07 1.59-.06 2.33.13 2.08.52 3.35 1.44 1.61 3.71-.6.78-.93 1.76-1.68 3.23.82.38 1.73.81 2.59 1.21-.99 1.63-1.61 2.66-2.36 3.88 1.68 1.55 3.29 3.04 5.12 4.73 2.14-3.18 4.13-6.12 6.2-9.18-.66-.93-1.29-1.82-1.85-2.59.59-.83 1.73-1.74 1.59-2.35-.85-3.63 1.52-3.26 3.69-3.23 4.7.07 9.47-.35 14.08.32 11.42 1.68 22.84-.34 34.25.52 5.13.38 10.32.07 15.39.07-.04.65-.11 1.85-.18 3.04 1.38-.38 2.77-.76 4.61-1.26-.79 1.29-1.44 2.34-2.09 3.4.12.19.24.39.35.58 3.13-2.2 6.25-4.4 9.38-6.6.25.32.5.64.75.95-.68.78-1.35 1.55-2.27 2.6 3.75 1.46 5.35-2.51 8.77-3-2.9 3.08-5.48 5.82-8.07 8.56.26.34.53.69.79 1.03 1.86-1.22 3.72-2.43 5.57-3.65.11.07.23.15.34.22-1.52 1.73-3.05 3.46-4.57 5.18.08.29.16.57.24.86 1.67-.23 3.34-.46 5.44-.75.98.96 2.3 3.18 4.41.23-1.17-.68-2.35-1.36-3.52-2.04.35-.48.69-.96 1.04-1.44 1.03.2 2.05.41 3.07.61.31-2.98.62-5.94.96-9.26 2.49.17 5.01.5 7.52.5 5.16 0 10.32-.15 15.48-.27 3.92-.1 7.83-.28 11.75-.36.75-.01 1.57.16 2.25.47 3.29 1.48 3.28 1.51 6.21-.04.57.43 1.2.88 1.8 1.38.51.43.98.91 1.7 1.58-1.55 1.73-3.08 3.42-4.73 5.26 1.64.36 3.01.66 4.99 1.1.74-2.33 1.65-5.21 2.88-9.07 1.6.12 4.46.02 7.08.76.59.17.34 3.29.5 5.34.61-.16 1.84-.49 3.73-1-.59.94-1.01 1.31-1.02 1.71-.04.9.11 1.8.19 2.71.86-.25 1.94-.27 2.55-.8 2.78-2.42 5.37-5.06 8.15-7.48.95-.83 2.25-1.26 3.93-2.16.2 2.66.64 4.76.46 6.81-.93 10.74-1.14 21.44.62 32.12.05.33.19.68.13.99-.68 4.07-1.39 8.13-2.14 12.48 3.01 4.37 3.09 12.14-.29 17.07.89-.12 1.5-.21 2.51-.35v2.92c0 13.66.04 27.31-.06 40.97-.01 1.69-.79 3.38-1.38 5.72.24.44.89 1.67 1.62 3.01-1.57.48-2.8.85-4.89 1.49 6.09 4.32 4.4 9.94 4.34 15.54-.25 21.71 0 43.43-.06 65.14-.02 7.52-.59 15.05-.57 22.57.02 7.02.72 14.04.75 21.06.15 33.13.18 66.26.25 99.39 0 .87-.1 1.74-.16 2.8-91.02-.03-181.85-.03-273.08-.03zm13.24-53.55c.52 2.99.84 5.48 1.44 7.91.21.84.94 1.77 1.7 2.17.34.18 1.4-.77 1.98-1.36 1.39-1.42 2.47-3.27 4.07-4.34 2.66-1.78 6.3-2.3 6.69-6.82 1.28 1.46 2 2.28 2.79 3.19 1.21-1 2.31-1.91 3.3-2.72 1.04.7 1.95 1.32 3.26 2.2-.33-1.91-.52-3.07-.68-4h30.17c.14 1.93.42 3.58.34 5.23-.14 3.19.59 6.23-1.77 9.43-2.71 3.69-8.31 6.4-6.01 12.73-1.31.46-2.55.9-2.96 1.04-.63 5.58-5.09 7.89-7.99 11.19.35.05.69.09 1.04.14v8.09c2.9-1.72 5.47-3.25 8.7-5.17 0-.01.29-.96.5-1.69 1.13.33 2.11.61 3.39.99-.33-1.82-.54-3-.82-4.56 4.73 2.87 5.76-1.68 7.29-2.3.27-3.82.47-6.68.7-9.97 1.02-1.13 3.36-2.52 3.6-4.21.61-4.28 4.04-6.26 6.19-9.28.48-.68 1.26-1.85 1.01-2.25-2.37-3.9.7-5.34 3.03-7.19 2.16-1.71 4.25-3.51 6.75-5.58 4.28 2.67 5.59-2.42 7.95-3.97 3.66.46 6.85.85 10.03 1.25-.01.2-.01.4-.02.6 1.06-.58 2.12-1.16 3.13-1.72.89.72 1.7 1.91 2.37 1.84 2.72-.3 5.41-.96 8.1-1.53.58-.12 1.38-.79 1.65-.6 4.26 3.03 6.69.25 8.92-2.88 1.09.74 2 1.36 3.01 2.04 2.22-1.55 4.48-3.61 6.61-.01 2.43-2.74 3.03-2.82 6.26-.96 2.06-1.45 4.13-2.9 6.19-4.35.17.23.33.45.5.68-.61.99-1.22 1.98-1.83 2.97.19.19.37.38.56.57 2.15-1.15 4.29-2.3 6.61-3.53-.24 1.44-.41 2.47-.71 4.3 4.25-4.46 9.21-2.51 13.45-3.8.34 1.01.58 1.71.95 2.82 2.95-2.55 7.31-2.95 7.95-7.23 3.13.63 5.96 1.2 9.44 1.9.32-.2 1.35-.85 2.38-1.5.04.29.09.58.13.86 2.15-.12 4.45-.8 6.41-.25 4.27 1.2 7.08-.33 9.2-3.73 1.42.77 2.71 1.46 3.24 1.75 3.63-2.99 6.66-5.48 9.92-8.17.44.17 1.51.57 2.08.79.27-1.49.2-2.78.75-3.69 1.15-1.9 2.56-3.67 4-5.38 1.65-1.97 3.09-3.9 1.31-6.34 2.43-2.84 5.96-4.99 3.69-9.51 1.1-.32 2.02-.59 3.4-1-1.5-2.23-2.89-4.28-3.93-5.82.17-1.61.2-2.91.46-4.15.17-.8.56-1.6 1.03-2.27 1.54-2.18 3.22-4.25 4.7-6.47.31-.46.18-1.51-.15-2.03-.94-1.47-2.09-2.81-3.37-4.48 1.98-.77 3.19-1.25 4.65-1.82-.67-.94-1.21-1.7-1.77-2.49.71-1.09 1.37-2.11 2.07-3.19-1.65-1.92-3.23-3.77-4.63-5.41.97-2.43 1.83-4.57 2.74-6.84-1.11.09-1.89.14-2.91.22.67-1.14 1.16-1.97 1.58-2.69-1.22-2.12-4.13-3.56-.85-6.92-1.68.59-2.43.85-3.68 1.29.15-1.65.71-3.07.29-4.06-1.78-4.13-.98-8-.01-11.91-.27-2.04-.55-4.08-.78-5.84-1.35 0-2.42 0-4.22 0 1.48-1.33 2.37-2.13 3.28-2.95-.8-1.06-1.52-2.03-2.33-3.1.77-.84 1.41-1.59 2.1-2.29 3.46-3.51 3.44-4.05-.32-7.34-1.8-1.58-2.65-6.88-1.86-9.2.42-1.24.3-2.84-.06-4.14-.52-1.89-1.63-3.62-2.2-5.51-.44-1.47-.45-3.07-.63-4.51 1.05-2.98 1.8-6.33 3.37-9.23 1.71-3.14-2.48-6.42.65-9.28.07-.06-.53-.7-.61-1.11-.13-.72-.38-1.62-.08-2.17 1.29-2.4 1.15-4.39-1.44-5.85 2-1.91 3.54-3.69.64-5.73.79-1 1.44-1.83 2.06-2.62-2.26-2.92-2.22-2.91-1.08-5.98.29-.79.26-1.7.33-2.56.11-1.27.19-2.54.28-3.8.32-.03.64-.06.95-.08-.58-.76-1.15-1.51-1.87-2.45 1.28-.42 2.31-.76 3.15-1.03.35-2.78 1.1-5.47.9-8.09-.2-2.47-1.4-4.87-1.98-6.73 1.95-.63 3.15-1.02 4.36-1.41-1.6-2.41.94-3.07 1.96-4.14 2.53-2.67 4.69-5.36 3.71-9.37 1.25-.14 2.3-.26 3.2-.36-.09-1.12-.16-2-.26-3.36 3.87 2.42 4.87-1.19 6.56-1.95 0-2.27.7-4.57-.13-5.91-2.28-3.66.57-5.34 2.3-7.36 2.5-2.92 5.29-5.59 7.96-8.37-.01-.41-.02-.81-.04-1.22-3.05 3.43-5.21 2.12-7.09-.59-2.16 1.86-4.15 3.58-6.21 5.36-2.99-4.37-6.36 1.54-8.81-.77-.53 1.3-.66 2.59-1.36 3.14-3.97 3.11-5.94 7.14-6.18 11.78-.86.35-2.31.64-2.32.98-.12 3.98-3.84 5.21-5.82 7.71-1.88 2.37-2.83 4.32.29 6.49-2.2 2.32-4.31 4.47-6.32 6.71-1.37 1.53-3.82 3.13-.29 5.04.26.14.38.82.34 1.22-.36 3.23-.09 6.63-3.48 8.79-1.83 1.17-3.29 2.94-4.92 4.45 1.06 1.36 1.73 2.23 2.3 2.96-.73 1.58-1.38 2.96-2.22 4.77 2.13-.32 3.53-.53 5.59-.85-2.45 2.26-4.29 3.96-5.64 5.21.7 3.97 1.2 6.87 1.77 10.12-5.84 6.17-5.84 6.17-2.4 9.18-2.67 1.48-5.09 2.82-7.43 4.11 2.69 3.35 6.14 9.38 6.63 11.72.92-.36 1.81-.7 3.06-1.19-.73 1.24-1.21 2.05-1.35 2.28.78 2.03 2.22 4.03 1.72 4.86-.98 1.63-.8 2.47.21 3.79.34.45.06 1.44-.05 2.16-.42 2.84-.89 5.67-1.4 8.87.27.28.87.92 1.51 1.58-3.12 4.44 2.17 6.59 2.62 10.09-.58.55-1.19 1.12-1.8 1.7.99 1.91 3.07 3.55.61 5.64-.21.18.03 1.03.23 1.51.8 1.99 1.66 3.96 2.47 5.86.33-.19.9-.52 1.47-.85-3.47 3.33-.34 4.9 2.14 6.83-4.75 2.08-.79 5.46-1.77 8.03-1.54 4.06 2.33 5.26 3.9 7.75-1.16.46-2.18.87-3.41 1.36 1.39 2.19 4.09 3.96 1.87 6.94-.19.26.14 1.15.48 1.51 1.93 2.08 1.14 3.59-1 4.81.63 1.06 1.18 1.98 1.7 2.84-5.38 6.93-5.38 6.93-2.26 9.91-3.06.99-2.86 3.39-2 5.5 1.71 4.23 1.4 8.46.86 12.8-.16 1.29.22 2.64.33 3.97.05.64.33 1.49.04 1.9-2.18 3-4.48 5.92-6.65 8.75.36 1.24.71 2.45 1.2 4.13-4.35-2.36-2.92 1.99-3.8 2.5-3.31-.52-6.78-2.18-8.7-1.1-2.91 1.63-5.42 1.54-8.27 1.2-3.87-.45-7.69-.77-9.8 2.91-1.58-.31-2.8-.79-3.99-.73-3.13.16-6.82 1.74-9.21.56-2.97-1.46-4.25-.33-6.21.66-1.69-.19-3.3-.08-4.78.42-1.76.6-3.93 2.64-5 2.12-3-1.43-4.25.62-6.11 1.83-.93.61-2.66 1.47-3.13 1.09-2.77-2.22-5.61.07-8.44-.28-5.24-.65-10.69.36-16.36.69.31-1.57.41-2.12.54-2.79-5.61 3.26-11.45 2.39-17.27 1.92-5.94-.49-12.02-.57-16.31-6.03-1.65 2.31-3.56 1.9-5.2.37-1.86-1.73-3.59-3.64-5.14-5.66-2.5-3.26-4.8-6.67-7.18-10.02-.1-1.41-.42-2.8-1.14-3.94-2.2-3.5-4.56-6.91-7.01-10.59.22-.09-.33.14-.25.1-2.62-6.01-5.19-11.92-8-18.37.18-.72.58-2.3 1.14-4.57-2.14 1.15-3.4 1.83-5.09 2.75.57-1.95.94-3.22 1.31-4.49-2.5 1.41-4.56 2.98-6.34 4.81-.56.57-.79 2.53-.48 2.73 4.32 2.66.48 3.56-1.3 5.05.9.79 1.66 1.45 2.4 2.09-.75.98-1.48 1.93-2.2 2.87l1.2.18c0 1.66-.04 3.33.02 4.98.03.62.42 1.23.46 1.85.08 1.17.08 2.36 0 3.53-.04.62-.63 1.48-.39 1.81 2.28 3.16 2.18 7.31 3.89 10.39 2.95 5.3 6.29 10.69 11.92 14.11-.88 2.56-3.25 5.38.16 6.86-.2 2.74-.35 4.86-.47 6.53-1.35 0-2.95-.5-3.6.08-4.4 3.92-9.72 2.91-14.69 3.25.16.94.34 2.01.53 3.07-.12.4-.25.79-.37 1.19-2.63-4.3-3.95-.57-5.34-.32-5.44-2.22-10.47-.81-15.49-.4.14 4.53-6.51 6.45-3.38 11.51-1.61.64-2.85 1.09-3.72 1.41zm116.08-259.89c.63-1.39 3.49-3.6.15-5.02-.36-2.6-1.51-5.07-.73-6.45 2.45-4.33-1.09-5.57-3.05-7.86-.71.64-1.24 1.11-1.78 1.6-.22-1.22-.42-2.33-.73-4.03-2.49 1.65-4.41 2.92-5.92 3.92-1.55-.42-2.71-.74-3.87-1.05-.21.96-.33 1.95-.65 2.87-.79 2.27-1.68 4.5-2.73 7.31 4.23 2.97-3.06 4.49-2.09 7.27.94.78 2.17 1.29 2.29 2 .36 2.09-1.86 4.35.39 6.38-2.17 3 1.02 4.53 1.85 6.7.33.88 1.13 1.72 1.13 2.58 0 4-1.37 7.91-.14 12.03.53 1.79.38 4.2-.42 5.87-1.24 2.62-3.42 4.54-3.47 7.99-.05 2.92-1.77 5.82-2.6 8.28-1.98.74-3.98 1.49-5.98 2.25-.59-.73-1.21-1.5-2.32-2.86-1.77 1.72-3.42 3.26-4.99 4.87-1.89 1.94-3.62 4.07-6.82 2.36-.47-.25-1.5.14-2.07.53-6.21 4.24-12.71 3.72-19.9 1.35-.28 1.61-.58 3.34-.88 5.05-.79-.42-1.57-.83-3.16-1.68.45 2.02 1.06 3.21.85 4.22-.23 1.09-1.24 2.02-1.99 3.13.77.92 1.53 1.83 2.3 2.75-.74 1.07-1.36 1.97-1.99 2.88.9 1.81 1.01 3.6 1.22 5.38.05.39.36.83.68 1.09 2.03 1.69 6.78 1.3 8.32-.28 3.1.31 6.23 1.55 8.51.65 3.73-1.48 6.92-4.35 10.41-6.69.75.55 1.54 1.12 2.35 1.71 1.97-1.54 3.63-2.28 6.36-1.62 2.01.49 5.81 1.58 6.82-2.69 1.39.85 2.71 1.66 4.13 2.53-.71.82-1.32 1.52-1.66 1.92.59 1.67 1.04 2.98 1.5 4.28-1.3.26-2.6.52-3.98.8.39.54.92 1.27 1.41 1.96-1 1.18-1.85 2.18-2.7 3.18 1.55 1.86 2.94 3.54 4.52 5.44-1.65.23-2.8.4-3.96.56.29.18.58.35.88.53-.73 2.04-1.47 4.08-2.31 6.43-1.55-1.07-2.46-1.69-3.43-2.36-.86.68-1.72 1.36-2.57 2.03-.01-.28-.02-.56-.03-.83-1.66-.15-3.66-.93-4.9-.28-1.65.86-2.7 2.85-4.09 4.43-2.22-.99-4.32-1.94-6.47-2.9-.21 1.31-.39 2.44-.65 4.06-1.35-1.16-2.18-1.86-2.29-1.96-2.4 0-4.28-.56-5.49.11-3.37 1.85-6.47 4.2-9.66 6.38-.06.04.15.41.15.62 0 3.14.12 6.3-.09 9.43-.14 2.08.86 3.14 2.87 2.81 1.41-.23 2.89-.05 4.34-.05 2.12-.15 4.07-3.67 6 .02 3.84-.36 4.61-8.32 10-3.18 2.67-1.11 4.51-4.75 8.25-2.72.17.09.82-.37.99-.7 1.11-2.21 2.63-1.25 3.87-.37 1.5 1.06 2.8 2.42 4.29 3.73.13-.06.44-.18.7-.36 4.96-3.37 8.7-8.36 15.83-8.54 3.9-.1 9.17.39 11.87-4.38.07-.13.42-.09.63-.15 2.91-.86 5.83-1.72 9.21-2.71 2 1.5 1.99 1.46 5.31.38.7-.23 1.53-.25 2.28-.16 3.34.4 6.55.5 8.77-3.53 2.02 7.11 7.73 2.08 10.96 4.18.82-1.12 1.28-2.47 2.12-2.78 5.43-1.98 7.59-7.19 11.28-10.79-1.56.67-3.12 1.34-4.68 2.01-.12-.28-.24-.56-.35-.84.57-.96 1.13-1.92 1.81-3.07-1.65.08-3.24.65-4.03.09-2.1-1.5-3.63-.78-5.44.36-1.85 1.16-3.79 3.21-6.02.39-.24-.31-1.06-.26-1.6-.22-4.6.37-9.27.42-13.78 1.26-4.42.83-8.98-.97-13.27.97-.08.04-.32-.27.17.16-.42-2.77-.73-4.82-1.03-6.81.49-.97 1.02-2.01 1.55-3.04-.22-.11-.44-.21-.66-.32-.8.5-1.61 1.01-3.17 1.99 2.61-4.19 2.61-4.19-.71-7.83 1.52-1.85 3.08-3.74 4.67-5.69-.09-.7-.23-1.75-.47-3.53 3.46 4.19 3.62 4.19 6.16 1.08h12.54c-.59 1.2-1.41 2.89-2.23 4.57.37.27.73.54 1.1.81 2.26-1.77 4.52-3.53 6.83-5.33.43.53 1.05 1.31 1.08 1.34 4.23-.64 7.83-1.19 11.8-1.79.3.37.92 1.11 1.62 1.94 1.8-1.35 3.48-2.61 5.18-3.89-.59-1.28-1.06-2.31-1.67-3.64h5.72c-3.1-3.27-6.48-5.86-5.02-10.57-3.89.44-7.27 1.39-10.48.99-2.52-.31-3.87.22-5.46 1.9-.77.82-2.57 1.54-3.46 1.19-1.99-.78-3.32-.51-4.76.94-1.08 1.1-2.38 1.98-3.42 2.82-.38-1.32-.72-3.48-1.06-3.47-2.72.01-5.43.42-8.58.75-1.26-3.27-4.06-.49-6.45-.34.37-1.35.66-2.41 1.08-3.92-1.45.24-2.33.29-3.14.54-2.14.64-3.1-.64-3.14-2.33-.1-4.49.26-9 .13-13.49-.09-3.28-.67-6.55-1.05-9.81-.06-.52-.52-1.24-.32-1.51 2.57-3.4.74-6.92.59-10.46-.14-3.37.83-6.78 1.12-10.2.02-1.05-.52-2.14-.93-3.85zm-13.69 209.77c-.22.58-.63 1.64-.93 2.43h15.49c.7.45 1.91 1.21 3.13 1.99 1.15-.97 2.18-1.83 3.46-2.91 1.55 3.13 3.34 1.24 4.91.16 1.58-1.09 2.93-2.51 4.6-3.99 3.5 2.29 6.02.97 7.76-2.79.3-.66 1.09-1.1 1.68-1.61 4.89-4.23 9.79-8.46 14.7-12.7.93.08 2.23.2 2.98.27 0-2-.04-3.25.01-4.5.1-2.57 1.09-5.53.14-7.59-1.17-2.54-.08-3.66 1.08-5.24.97-1.32 1.92-2.66 2.88-4-.83-.98-1.46-1.73-2.09-2.46 3.5-4.18 3.46-4.5-.65-6.87 2.35-2.7 1.51-6.54-2.09-9.25 1.68-5.57 2.35-11.18-.06-16.8-.29-.69-.17-1.8.19-2.48 1.36-2.61.32-4.3-1.92-5.54-2.01-1.12-4.09-2.1-6.27-3.21-2.09 3.39-6.74 5.27-4.18 10.21.07.14-.09.43-.2.61-1.71 2.65 1.43 5.94-1.11 8.51-.11.11.46.75.51 1.17.18 1.48.3 2.97.38 4.46.06 1.07.01 2.14.01 4.06-1.7.53-4 1.21-6.26 1.97-.62.21-1.28.52-1.72.99-5.08 5.42-11.7 1.9-17.52 3-1.52.29-3.19-.23-4.79-.37-1.45.08-3.32-1.27-4.21-.79-2.78 1.49-4.3-.31-5.89-1.67-3.48-2.97-6.79-6.14-10-9.07 2.05-3.27 1.08-6.66-1.96-9.28-2.03-1.75-4.11-2.35-5.87.36-1.16-.77-2.19-1.46-3.8-2.52.17 2.25.71 3.84.27 5.07-.49 1.39-2.3 2.33-2.73 3.72-.41 1.3.23 2.93.4 4.42-1.16 6.19-.38 12.43.28 18.7-.44 1.41-.42 2.8-.45 4.19-.03 1.03-.24 2.07-.17 3.1.09 1.41-.11 3.65.63 4.07 4.07 2.28 3.57 5.69 2.57 9.1-1.27 4.3.03 7.31 3.89 9.29-2.3 4.15-2.19 4.28 3.15 4.26-1.01 2.24.78 7.56 3.82 9.41 1.32.79 3.52.12 5.95.12zm136.29-55.29c-1.49.98-2.88 1.5-3.54 2.5-.26.4 1.06 1.85 1.3 2.25 0 1.81.03 3.21-.01 4.61s.09 2.88-.29 4.19c-.4 1.35-1.34 2.54-2.16 4.02.76.15 1.34.27 1.41.28.55 2.99 1.06 5.75 1.48 8.08 1.27.09 2.3.17 3.91.29-1.3 1.46-2.01 2.26-2.73 3.06.74 1.91.67 3.69.77 5.46.06 1.02.08 2.27.66 2.99 1.65 2.09 3.58 3.96 6.01 6.58 1.48-1.88 3.35-3.3 3.86-5.11 1.18-4.15 1.38-8.58 2.6-12.71.66-2.26 1.2-3.98-.89-5.41 1.65-3.83.64-6.96-2.94-8.98-1.84-1.04-2.5-2.53-2.14-4.44.68-3.64-.87-5.41-4.41-5.77-.51-.05-1-.38-1.26-.48.21-1.31.4-2.4.51-3.49 0-.04-1.07-.33-1.12-.23-.46.88-.81 1.82-1.02 2.31zm-5.73-44.34v11.6c-1.51 1.6-3.69 3.91-5.91 6.26 3.34 1.85 6.33 3.51 9.81 5.45 1.67-1.17 3.69-2.59 5.93-4.16h2.59c.43-2.31.73-3.93 1.12-6.03-5.39-3.2-4.53-8.84-3.96-14.29-1.46-.41-2.6-.73-3.76-1.05.28-.66.47-1.1.98-2.28-2.96 1.96-5.25 3.48-6.8 4.5zm-228.55 13.08c-3.5 5.24-1.49 10.14-1.37 15.57-1.78-1.6-2.75-2.48-4.09-3.68.21 2.83.36 4.95.53 7.21h4.29c-2.53 2.91-2.59 4.03-.35 6.08.68.63 1.95.61 2.39.74-.44-8.41-3.54-16.29 4.22-22.9-.33-.12-.65-.24-.98-.36-.96.65-1.91 1.3-2.89 1.97-.55-1.45-.99-2.62-1.75-4.63zm241.4 92.66c.77-.85 1.4-1.55 2.18-2.39-.92-.43-1.58-.74-1.93-.91.19-3.22.44-6.18.47-9.15.01-.6-.83-1.21-1.26-1.79-5.22 2.71-5.51 3.8-1.99 6.93-2.8 3.21-2.8 3.21 2.53 7.31zm-37.22 76.75c.19-.36.39-.72.58-1.09 1.67-.12 3.34-.42 4.99-.31 1.96.14 2.54-.67 2.5-2.47-.03-1.4.28-2.81.21-4.2-.04-.7-.58-1.38-.88-2.06-3.19 2.28-6.02 4.3-9.16 6.54.42.88 1.09 2.24 1.76 3.59zm-206.32-101.2c3.23-2.31 2.53-4.39-.9-6.36 1.43-1.01 2.53-1.79 3.76-2.66-1.07-1.13-1.79-1.88-2.63-2.77-.84 1.47-1.76 2.55-2.12 3.8-.92 3.13-1.99 6.45.03 9.45.56.83 2.42.8 3.69 1.1.1.02.32-.49.57-.9-.77-.52-1.47-1.01-2.4-1.66zm230.82-85.64c.32-1.51.29-2.94.91-3.96 1.26-2.09.36-2.97-1.61-3.9-1.01 4.28-3.58.1-5.27 1.08.27 4.12 3.26 5.52 5.97 6.78zm12.82-103.19c2.33-1.38 4.3-2.4 6.07-3.69.52-.38.91-1.96.65-2.19-.64-.57-2.17-1.2-2.51-.89-1.87 1.71-4.46 3.08-4.21 6.77zm-95.73-29.38c3.03 1.44 4.99-.35 5.56-1.68.47-1.11-1.11-3.1-1.78-4.7-.38.08-.76.17-1.14.25 1.51 2.83.49 4.7-2.64 6.13zm86.7 264.58c.36.18.72.37 1.09.55 4.64-3.09 4.77-3.38 2.15-6.6-1.18 2.21-2.21 4.13-3.24 6.05zm-.04-5.81c4.74-4.55 4.74-4.55 2.64-6.45-.69 2.17-5.09 2.56-2.64 6.45zm8.29-251.8c1.24-.81 2.41-1.32 3.2-2.19.48-.53.51-1.61.45-2.42-.02-.34-.78-.86-1.24-.89-1.67-.11-3.37 3.35-2.41 5.5zm-5.99 100c5.23-.35 7.16-2.39 5.68-5.96-1.88 1.97-3.66 3.84-5.68 5.96zm8.22 141.93.63-1.17c-1.32-1.46-2.65-2.91-3.97-4.37-.28.08-.56.16-.85.24 0 .94-.39 2.31.08 2.75 1.15 1.07 2.71 1.72 4.11 2.55zm-4.56-154.44c.04-.41.08-.81.12-1.22-2.34-1.79-3.47-1.83-7.43.37 2.43.28 4.87.56 7.31.85zm-243.8 110.92c.33.29.65.59.98.88 1.57-1.05 3.14-2.1 4.99-3.33-1.06-.74-1.81-1.26-2.78-1.94-1.18 1.62-2.18 3-3.19 4.39zm173.67-196.64c.22.36.43.73.65 1.09 1.64-.97 3.27-1.94 5.13-3.04-.76-.92-1.29-1.54-1.92-2.3-1.39 1.53-2.63 2.89-3.86 4.25zm-169.4 138.56c-3 1.06-5.3 1.88-7.65 2.71 2.26.69 4.61 1.82 6.77-.28.57-.55.62-1.66.88-2.43zm108.32-150.39c.23.21.46.42.69.63 1.6-.81 3.2-1.62 4.76-2.42-.53-.92-.96-1.65-1.56-2.68-1.64 1.89-2.76 3.18-3.89 4.47zm-115.35 205.43c1.41-.85 2.99-1.8 4.57-2.75-.27-.26-.55-.53-.82-.79-3.55.52-4.51 1.63-3.75 3.54z" fill="#010105"/><path d="m193.86 259.01c-3.57-2.23-5.6-1.55-9 3.36-.76-1.54-.52-3.83-3.61-3.03-1.71.45-5.5-6.16-5.22-8.31.07-.55.34-1.21.14-1.63-2.46-5.18-.3-10.58-1.34-16.83 4 3.16 6.28 1.17 8.45-1.28.28-.32.77-.75 1.08-.7 2.67.49 5.3 1.13 7.97 1.63.93.18 1.95.29 2.87.11 3.52-.68 6.96-1.96 10.62-.5.67.27 1.67-.37 2.53-.47.97-.11 1.95-.08 2.93-.11.91-.02 1.87.13 2.73-.09 2.45-.63 4.2-.4 5.06 2.48.4 1.33 1.65 2.42 2.78 4-.39.68-1.1 1.91-1.86 3.24.77.72 1.52 1.42 2.27 2.13-.12.2-.24.4-.36.6-.62-.29-1.24-.57-2.23-1.03-1.64 5.61-4.81 10.18-9.89 13.21-2.03 1.21-4.02 1.94-6.66 2.15-2.46.19-4.48-.36-6.72-.59-.75-.09-1.63 1.03-2.54 1.66z" fill="#010105"/></svg>