<svg enable-background="new 0 0 400 400" viewBox="0 0 400 400" xmlns="http://www.w3.org/2000/svg"><path d="m374.8 390.4.4-.4c.7.5 1.3 1 1.8 1.4l-.5.5c-.5-.6-1.1-1.1-1.7-1.5zm1 7.3-.6-.3c.5-1.4 1.1-2.8 1.5-4.3.2.1.4.2.6.3-.5 1.3-1 2.8-1.5 4.3zm-.4-10.3.4-.4c.4.3 1 .8 1.7 1.4l-.5.5c-.4-.5-1-1-1.6-1.5zm2.5.3h1.7v-1h.6v1h3.5v-1h.6v1h1.8v.5h-1.8v1.4h-2v1h3.2v2h-3.2v.9h3.3v.5h-3.4c0 .3-.1.6-.1.9h4v.5h-3.7c.7.9 1.9 1.5 3.8 1.7-.1.2-.2.4-.3.6-2.1-.4-3.5-1.1-4-2.1-.4 1-1.8 1.7-4 2.2-.1-.2-.2-.4-.3-.6 2.1-.4 3.4-1 3.8-1.8h-3.4v-.5h3.6c.1-.3.1-.6.2-.9h-3.3v-.5h3.4c0-.3 0-.6 0-.9h-3.2v-2h3.3v-1h-2.1v-1.4h-1.7v-.5zm1.1 3.5v1h2.7c0-.3 0-.4 0-.4 0-.1 0-.2 0-.2 0-.1 0-.2 0-.3h-2.7zm1.2-3v.9h3.5v-.9zm4.7 3h-2.6v.6.4h2.6z" fill="#fbfcfa"/><path d="m393.6 386.7h.6v1.5h2.7v6.1h1.1v.6h-11v-.6h1.1v-6.1h2.7v-1.5h.6v1.5h2.1v-1.5zm-2.7 8.8.4.6c-1.2.6-2.5 1.3-3.8 1.9-.1-.2-.2-.4-.3-.6 1.2-.6 2.5-1.2 3.7-1.9zm-2.2-6.7v2.4h2.1v-2.4zm0 3v2.5h2.1v-2.5zm2.8-3v2.4h2.1v-2.4zm0 3v2.5h2.1v-2.5zm6 6.1c-1.4-.7-2.7-1.3-3.9-1.8l.3-.6c1.5.6 2.7 1.2 3.9 1.7zm-1.2-9.1h-2.1v2.4h2.1zm-2.1 3v2.5h2.1v-2.5z" fill="#fbfcfa"/><g fill="#010106"><path d="m261.28 201.47c-2.86 8.69-9.28 13.44-16.42 17.46-8.98 5.05-14.92 13.39-22.16 20.33-13.96 13.39-27.87 26.85-42.2 39.84-6.38 5.78-13.96 10.07-22.5 12.21-.52.13-1.06.19-2.42.42 4.03-8.14 4.74-16.81 11.47-23.42 29.15-28.63 57.86-57.69 86.84-86.49 2.05-2.03 2.43-3.71 1.67-6.38-7.02-24.6-14.14-49.17-20.78-73.88-4.83-17.99-8-36.29-5.87-55.05.78-6.87 2-13.69 3.02-20.53.38-.19.76-.38 1.15-.57 2.14 2.26 4.61 4.3 6.37 6.83 5.76 8.29 8.19 18.03 11.65 27.35 6.67 17.99 8.33 36.76 9.32 55.67.41 7.85 1.73 15.39 4.44 22.88 10.13 27.94 19.87 56.01 29.69 84.06.61 1.75.99 3.69.99 5.55.08 15.44.06 30.89.02 46.33 0 1.31-.03 2.78-.59 3.91-8.89 17.92-17.19 36.18-30.21 51.69-11.02 13.12-21.96 26.34-36.84 35.43-10.5 6.42-21.95 9.75-34.53 10.21.58-4.71 1.28-8.35 6.22-11.08 12.33-6.82 22.3-16.8 32.07-26.83 14.62-14.99 28.87-30.32 39.47-48.59 1.46-2.51 2.62-5.19 3.96-7.76 3.66-7.02 3.24-14.3 2.01-21.85-2.43-15.01-4.42-30.09-6.68-45.13-.2-1.35-.84-2.78-1.68-3.86-2.27-2.89-4.76-5.6-7.48-8.75z"/><path d="m99.29 153.36c0-2.42-.15-4.44.06-6.42.1-.98.63-2.18 1.36-2.8 26.13-21.74 52.31-43.42 78.78-65.36 3.38 3.96 6.66 7.82 10.27 12.05-7.93 8.04-15.53 16.06-23.49 23.72-10.62 10.22-20.94 20.86-33.8 28.45-9.65 5.69-19.94 9.49-31.2 10.36-.52.04-1.06 0-1.98 0z"/><path d="m227.19 275.27c5.15 5.16 6.67 11.36 3.55 17.33-5.02 9.58-10.08 19.09-19.2 25.85-6.54 4.85-12.28 10.76-18.43 16.14-5.75 5.03-12.36 8.37-19.88 9.94-2.64.55-4.03.07-5.32-2.72-1.85-4-1.4-6.49 1.74-9.82 9.9-10.5 19.25-21.51 28.88-32.27 8.4-9.39 18.11-17.27 28.66-24.45z"/><path d="m118.29 232.18c3.71-8.45 5.71-16.77 12.76-23.21 16.36-14.93 32.39-30.18 51.27-41.13 3.03 2.68 6 5.3 9.38 8.29-10.13 10.6-20 20.92-29.86 31.25-6.58 6.89-13.54 13.34-21.93 18.02-6.57 3.67-13.48 6.18-21.62 6.78z"/></g></svg>