<svg enable-background="new 0 0 400 400" viewBox="0 0 400 400" xmlns="http://www.w3.org/2000/svg"><path d="m374.8 390.4.4-.4c.7.5 1.3 1 1.8 1.4l-.5.5c-.5-.6-1.1-1.1-1.7-1.5zm1 7.3-.6-.3c.5-1.4 1.1-2.8 1.5-4.3.2.1.4.2.6.3-.5 1.3-1 2.8-1.5 4.3zm-.4-10.3.4-.4c.4.3 1 .8 1.7 1.4l-.5.5c-.4-.5-1-1-1.6-1.5zm2.5.3h1.7v-1h.6v1h3.5v-1h.6v1h1.8v.5h-1.8v1.4h-2v1h3.2v2h-3.2v.9h3.3v.5h-3.4c0 .3-.1.6-.1.9h4v.5h-3.7c.7.9 1.9 1.5 3.8 1.7-.1.2-.2.4-.3.6-2.1-.4-3.5-1.1-4-2.1-.4 1-1.8 1.7-4 2.2-.1-.2-.2-.4-.3-.6 2.1-.4 3.4-1 3.8-1.8h-3.4v-.5h3.6c.1-.3.1-.6.2-.9h-3.3v-.5h3.4c0-.3 0-.6 0-.9h-3.2v-2h3.3v-1h-2.1v-1.4h-1.7v-.5zm1.1 3.5v1h2.7c0-.3 0-.4 0-.4 0-.1 0-.2 0-.2 0-.1 0-.2 0-.3h-2.7zm1.2-3v.9h3.5v-.9zm4.7 3h-2.6v.6.4h2.6z" fill="#fbfcfa"/><path d="m393.6 386.7h.6v1.5h2.7v6.1h1.1v.6h-11v-.6h1.1v-6.1h2.7v-1.5h.6v1.5h2.1v-1.5zm-2.7 8.8.4.6c-1.2.6-2.5 1.3-3.8 1.9-.1-.2-.2-.4-.3-.6 1.2-.6 2.5-1.2 3.7-1.9zm-2.2-6.7v2.4h2.1v-2.4zm0 3v2.5h2.1v-2.5zm2.8-3v2.4h2.1v-2.4zm0 3v2.5h2.1v-2.5zm6 6.1c-1.4-.7-2.7-1.3-3.9-1.8l.3-.6c1.5.6 2.7 1.2 3.9 1.7zm-1.2-9.1h-2.1v2.4h2.1zm-2.1 3v2.5h2.1v-2.5z" fill="#fbfcfa"/><g fill="#010106"><path d="m111.63 180.99c10.42 2.06 20.08 4.62 29.91 5.77 14.42 1.69 28.95 2.48 43.45 3.47 21.15 1.44 41.47 6.17 61.49 15.2-7.16 1.99-13.67 3.76-20.15 5.6-4.3 1.22-8.5 2.83-12.85 3.78-5.26 1.14-8.06 4.6-8.71 9.41-1.21 8.84-1.74 17.76-2.68 26.64-.36 3.44 1.15 5.24 4 7.11 8.95 5.9 17.97 11.81 26.27 18.55 12.44 10.09 14.44 16.8 8.15 31.4-5.33 12.37-11.17 24.87-18.99 35.71-9.47 13.11-22.39 23.19-37.69 29.34-11.13 4.48-22.41 2.88-33.51-.68-.71-.23-1.38-.74-1.92-1.27-15.48-15.14-29.94-31.18-41.53-49.53-8.85-14.01-12.38-29.34-9.35-45.91.68-3.74 1.17-7.53 1.44-11.31.17-2.36 1.11-3.81 3.07-5.1 7.48-4.94 14.96-9.84 23.81-12.02.97-.24 1.97-.56 2.95-.56 6.26-.02 9.52-3.74 11.36-9.17 3.06-9.03 3.52-18.42 3.48-27.83 0-1.06-1.09-2.36-2.02-3.15-8.85-7.55-17.78-15.02-26.68-22.52-1.02-.82-1.97-1.73-3.3-2.93zm96.44 158.5c-.98-1.04-1.37-1.58-1.86-1.97-8.78-6.92-18.69-10.61-29.94-11.02-10.14-.37-20.28-1.07-30.39-1.92-4.18-.35-8.29-1.47-12.7-2.28.21.68.26 1.13.47 1.47 7.74 12.81 15.48 25.62 23.29 38.38.53.86 1.54 1.68 2.5 1.97 9.55 2.92 18.7 2.23 26.52-4.43 7.47-6.37 14.51-13.23 22.11-20.2zm-50.29-89.85h33.11c0-14.83 0-29.34 0-44.26-6.22 0-12.25.23-18.26-.08-4.38-.22-7.75 1.19-11.38 3.62-4.81 3.21-6.73 6.55-5.83 12.55 1.39 9.26 1.63 18.69 2.36 28.17zm-38.8 55.9c9.91-1.81 19.55-3.55 29.16-5.41.56-.11 1.34-1.26 1.33-1.91-.14-7.24-.19-14.5-.8-21.71-.18-2.11-1.52-4.69-3.18-5.99-5.52-4.33-12.39-4.33-18.9-3.97-2.44.13-4.81 3.02-7.04 4.86-1.8 1.49-3.4 3.23-4.97 4.97-.53.58-1.07 1.58-.94 2.26 1.68 8.86 3.49 17.69 5.34 26.9zm80.48 10.91c8.04 0 15.74.06 23.44-.1.68-.01 1.73-1.29 1.93-2.15 1.17-4.88 2.47-9.77 3.08-14.74.74-6.05-.71-11.58-5.9-15.54-7.5-5.73-16.19-8.83-25.38-11.91.96 14.92 1.88 29.41 2.83 44.44zm-36.05-10.93c6.3-.89 11.95-1.59 17.54-2.57.79-.14 1.84-1.61 1.91-2.53.51-6.68.94-13.37 1.05-20.07.03-1.73-.76-3.85-1.91-5.15-4.1-4.63-9.68-6.74-15.84-8.67-.92 13.13-1.81 25.78-2.75 38.99z"/><path d="m88.28 24.94c21.75 8.08 42.7 16.2 63.91 23.56 7.3 2.53 15.26 3.19 22.93 4.68 27.09 5.27 53.19 13.29 78.24 25.19 29.61 14.06 46.49 37.38 52.55 68.85 2.4 12.46 2.92 25.28 4.27 37.94.1.97.01 1.97.01 3.42-5.54-1.87-10.69-3.61-16.05-5.42.69-4.02 1.49-7.92 2.02-11.86 3.37-25.33-5.59-45.52-25.4-61.32-15.86-12.65-33.46-21.41-53.54-24.83-4.84-.82-9.77-1.04-14.64-1.69-2.32-.31-3.49.57-4.75 2.55-8.41 13.33-16.71 26.75-25.64 39.73-6.6 9.6-15.51 16.67-26.99 19.96-6.73 1.93-6.72 1.94-9.8-4.22-2.81-5.63-2.79-5.61 1.8-10 15.74-15.06 30.37-31.03 40.75-50.43.52-.97 1.05-1.94 1.78-3.29-6.21-1.74-12.2-3.34-18.14-5.1-13.5-3.99-27.15-7.56-40.42-12.23-16.7-5.86-27.04-18.25-32.89-35.49z"/></g></svg>