<svg enable-background="new 0 0 400 400" viewBox="0 0 400 400" xmlns="http://www.w3.org/2000/svg"><g fill="#fafafb"><path d="m12.4 4.8-6.1 9h6v1.2h-8v-.5l6.1-8.9h-5.7v-1.2h7.6v.4z"/><path d="m14 15v-10.6h3c1.6 0 2.9.5 4 1.4s1.6 2.2 1.6 3.8-.5 3-1.6 3.9-2.4 1.5-4 1.5zm1.4-9.4v8.2h1.6c1.3 0 2.4-.4 3.1-1.1s1.1-1.8 1.1-3.1-.4-2.3-1.2-3-1.8-1-3.1-1z"/><path d="m26.1 4.4v10.6h-1.4v-10.6z"/><path d="m36.1 14.6c-.8.4-1.8.6-2.9.6-1.5 0-2.7-.5-3.6-1.4s-1.4-2.2-1.4-3.8c0-1.7.5-3.1 1.5-4.1s2.3-1.6 3.9-1.6c1 0 1.8.1 2.5.4v1.4c-.8-.4-1.6-.6-2.5-.6-1.2 0-2.1.4-2.9 1.2s-1.1 1.8-1.1 3.2c0 1.3.3 2.3 1 3s1.6 1.1 2.7 1.1c1 0 2-.2 2.7-.7v1.3z"/><path d="m37.6 14.3c0-.2.1-.5.3-.6s.4-.3.6-.3c.3 0 .5.1.6.3s.3.4.3.6-.1.4-.3.6-.4.3-.6.3c-.3 0-.5-.1-.6-.3s-.3-.4-.3-.6z"/><path d="m50.2 15h-1.6l-5.3-8.2c-.2-.2-.3-.5-.4-.7 0 .2.1.7.1 1.5v7.4h-1.4v-10.6h1.7l5.2 8.1c.2.4.4.6.4.7 0-.3-.1-.8-.1-1.5v-7.3h1.4z"/><path d="m58.6 15h-5.7v-10.6h5.5v1.2h-4.1v3.4h3.8v1.2h-3.8v3.6h4.3z"/><path d="m67.1 5.6h-3.1v9.4h-1.4v-9.4h-3v-1.2h7.5z"/></g><path d="m143.26 177.08c2.69.2 5.39.5 8.09.57 1.03.03 2.07-.47 3.1-.73-.35-1.09-.51-2.28-1.07-3.24-1.4-2.39-2.98-4.67-4.49-7 .37-.3.74-.6 1.11-.89 1.01.72 2.17 1.3 3.02 2.18 2.33 2.41 4.69 4.83 6.73 7.48 1.52 1.97 3.12 2.16 5.25 1.44 3.91-1.33 7.95-2.33 11.74-3.93 1.33-.56 3.13-2.69 2.92-3.74-1.06-5.3-2.63-10.51-4.26-15.68-.17-.54-2.06-1.08-2.84-.79-1.61.61-2.95 1.87-4.49 2.71-1.32.72-2.71 1.53-4.15 1.72-.79.1-1.73-1-2.61-1.57.54-.73.93-1.7 1.64-2.14 2.92-1.79 5.94-3.41 9.15-5.22-4.35-2.44-7.85-5.23-9.12-10.1 4.32 2.19 8.7 3.99 12.62 6.5 4.19 2.68 8.05 1.29 12.08.17.83-.23 1.64-.51 2.45-.77.16.31.32.62.48.92-4.03 2.23-8.05 4.46-12.21 6.77.08.32.09.79.3 1.13 4.96 7.95 6.05 16.94 6.93 25.98.09.89.16 1.81.01 2.67-2.31 13.72-4.15 27.54-9.52 40.55-1.98 4.81-2.53 10.08-.57 14.71 1.36 3.22 4.73 5.68 7.54 8.09.46.39 3.18-.91 3.98-2.05 2.44-3.48 4.45-7.27 6.61-10.9 1.55 3.73.95 7.6-1.75 10.98-2.61 3.26-6.04 5.89-10.43 4.34-4.76-1.68-8.48-5.03-9.69-10.2-2.18-9.32-1.22-18.4 2.76-27.14.36-.8.75-1.58 1.64-3.44-5.11.98-9.68 1.16-13.55 2.89-2.07.92-2.93 4.53-4.4 6.89-.75 1.21-1.65 2.33-2.48 3.49-.39-.19-.78-.38-1.17-.57.39-1.53.71-3.07 1.18-4.57 1.13-3.58.77-4.03-2.88-4.38-1.79-.17-3.52-.85-5.28-1.3.07-.37.14-.74.21-1.11 1.51 0 3.03.15 4.51-.05 1.11-.15 2.49-.46 3.13-1.22.35-.41-.43-1.99-.95-2.9-.77-1.31-1.77-2.49-2.67-3.73.15-.28.3-.57.44-.85 1.18.47 2.46.79 3.52 1.45 1.03.63 1.96 1.52 2.73 2.47 2.1 2.56 4.1 3.21 7.36 1.4 2.82-1.57 6.37-1.79 9.54-2.79.83-.26 1.97-1.1 2.08-1.82 1.22-7.46 2.25-14.94 3.46-23.25-3.78.97-6.72 1.83-9.71 2.45-3.37.7-6.78 1.49-10.2 1.65-2.66.12-2.92 2.05-3.75 3.6-1.19 2.22-2.37 4.28-6.09 3.77.72-1.48 1.14-2.67 1.83-3.68 1.95-2.86 1.52-4.03-1.97-4.67-2.65-.49-5.32-.86-7.98-1.29.05-.42.09-.84.14-1.26z" fill="#010105"/><path d="m217.22 333.42c4.32.71 8.34 5.25 8.15 8.69-.05.85-.58 1.98-1.25 2.43-4.45 2.91-9.36 4.3-14.67 3.46-4.55-.72-8.3-9.87-6.04-14.47 1.32-2.67 2.72-5.3 4.43-8.59-4.38.65-8.05 1.01-11.61 1.83-1.01.23-1.82 1.74-2.51 2.81-2.13 3.31-3.37 7.34-7.7 9.3 1.51-3.65 2.89-7.01 4.18-10.13-4.6-.57-8.71-1.03-12.8-1.66-.45-.07-.74-1.15-1.15-1.83 3.61-.22 6.94-.42 11-.67-2.68-3.07-4.64-5.32-7.04-8.07 4.44.09 7.21 1.87 9.61 4.26 2.34 2.34 4.81 3.14 8.11 2.03 2.73-.92 5.66-1.47 8.53-1.69 4.57-.36 6.67-3.3 7.9-7.07 2.04-6.29.64-12.39-1.7-18.3-.27-.68-1.57-1.44-2.3-1.36-5.54.6-11.06 1.33-16.56 2.2-.85.14-1.55 1.21-2.33 1.84-4.09 3.29-8.8 4.52-13.89 4.47-.15-.3-.3-.61-.45-.91 3.79-1.62 7.59-3.24 11.38-4.86-5.3-3.02-11.59-.46-16.27-5.46h15.22c-2.1-3.58-3.91-6.65-5.71-9.72.3-.27.6-.54.9-.82 1 .51 2.14.87 2.98 1.58 1.45 1.22 2.93 2.5 4.03 4.02 5.01 6.89 11.86 5.34 18.59 4.12.67-.12 1.66-1.32 1.64-1.98-.2-4.54-.63-9.06-.97-13.47-6.68-.83-12.93 1.48-18.89-.5.01-.31.02-.62.03-.94 3.45-.29 7.04-.09 10.32-1.01 3.15-.88 7.18.68 10.09-3.34-5.68-2.55-10.96-4.87-16.17-7.31-1.27-.6-2.34-1.62-3.5-2.45.26-.51.52-1.02.78-1.53 3.45 1.05 6.92 2.01 10.33 3.18 1.68.57 3.2 1.61 4.84 2.29 4.31 1.79 8.65 2.67 13.36 1.27 3.84-1.14 7.85-1.74 11.79-2.55.57-.12 1.18-.02 1.77-.02.12.35.25.69.37 1.04-3.39 1.33-6.75 2.76-10.18 3.96-1.78.62-3.7.82-5.55 1.27-3.27.79-5.21 3.24-5.3 6.59-.23 8.61.91 16.9 5.2 24.59 1.93 3.46 1.95 7.33.85 11.1-1.47 5.03-3.04 9.96-6.54 14.16-2.12 2.53-3.34 5.79-5.16 8.6-2.19 3.39-.6 6.25 1.19 8.93 1.65 2.46 4.39 2.37 7.01 1.99 3.52-.51 4.93-2.85 3.75-6.29-.51-1.54-1.24-3.01-2.09-5.01z" fill="#010105"/><path d="m213.73 26.08c.2 1.49.82 2.84.41 3.68-1.41 2.87-2.65 6.14-4.91 8.22-9.37 8.6-10.66 19.83-10.5 31.37.03 2.32 2.99 4.7 4.81 6.87 1.2 1.43 2.94 2.4 4.12 3.84.56.68.39 1.97.55 2.99-1.15-.01-2.49.35-3.41-.11-2.15-1.07-4.11-2.55-6.75-4.25-2.74 18.52-14.02 28.28-30.2 33.26-.39-.37-.78-.73-1.17-1.1.68-.7 1.25-1.56 2.05-2.06 2.84-1.76 5.81-3.31 8.64-5.1 1.5-.95 1.82-2.19.72-3.95-1.16-1.86-1.88-4-2.68-6.06-1.21-3.1-2.64-3.9-5.66-2.53-2.33 1.05-4.47 2.5-6.69 3.79-2.63 1.52-5.05 1.5-7.47-1.15 3.13-1.66 6.19-3.15 9.12-4.87 3.57-2.11 7.07-4.34 10.52-6.64 4.16-2.78 8.24-5.67 12.32-8.56 2.51-1.77 2.63-3.83.6-6.22-1.59-1.87-3.31-3.69-4.5-5.8-.92-1.63-1.11-3.66-1.62-5.52.31-.19.63-.38.94-.58 3.34 3.05 6.67 6.09 10.21 9.32.94-5.75 1.68-10.77 2.6-15.76.91-4.95 2.98-9.25 6.92-12.64 3.54-3.05 6.81-6.43 11.03-10.44zm-30.33 56.44c-1.57 1.12-3.26 2.18-4.75 3.47-.53.46-1.03 1.66-.79 2.19 1.42 3.26 3.06 6.43 4.71 9.82 5.51-5.18 5.67-10.7.83-15.48zm9.8-6.85c-4.44 2.31-4.7 4.09-1.46 9.9.46-3.11.92-6.23 1.46-9.9z" fill="#010105"/><path d="m246.21 25.23c.06 1.21.47 2.54.1 3.6-.88 2.5-1.67 5.25-3.31 7.24-4.96 6.01-6.81 13.02-7.31 20.48-.59 8.61-.88 17.25-1.3 25.87-.13 2.6.82 4.43 2.94 6.26 2.72 2.35 4.92 5.39 6.95 8.41.65.97.02 2.79-.02 4.22-1.55-.58-3.27-.91-4.6-1.82-1.29-.88-2.17-2.35-3.62-4.02-.36 1.05-.56 1.41-.59 1.78-.7 8.69-6.04 14.54-12.43 19.48-5.99 4.64-12.35 8.82-18.64 13.05-.89.6-2.36.62-3.49.47-.61-.08-1.29-1.05-1.54-1.76-.1-.3.82-.97 1.29-1.46.07-.07.21-.05.32-.09 8.9-3.35 9.29-4.26 6.8-13.31-.77-2.79-2.12-3.69-4.81-2.9-1.18.34-2.4.82-3.58.79-1.51-.04-3-.54-4.51-.84 0-.34.01-.68.01-1.03.87-.38 1.71-.91 2.62-1.13 10.2-2.43 18.09-9.03 26.5-14.67 1.01-.68 1.85-1.63 2.67-2.53 1.66-1.83 1.98-3.43-.24-5.35-2.69-2.34-4.56-5.34-5.12-8.91.26-.25.53-.5.79-.76 2.24 1.64 4.48 3.29 7.39 5.43.35-4.26 1.14-8.42.96-12.55-.65-14.62 3.43-27.8 11.42-39.89.98-1.48 2.15-2.83 3.24-4.24.37.08.74.13 1.11.18zm-25.48 87.11c-.4-1.65-.69-3.3-1.21-4.88-.61-1.84-1.03-4.25-3.76-3.73-2.8.54-4.16 2.91-3.61 5.68.3 1.53.75 3.02 1.12 4.54.42 1.68 1.2 3.03 3.21 2.4 2.02-.63 4.09-1.33 4.25-4.01zm7.65-15.93c-4.2 2.12-6.37 6.18-5.55 10.18.37 1.81 1.45 2.29 2.84 1.39 2.1-1.35 3.77-9.04 2.71-11.57z" fill="#010105"/><path d="m249.05 153.09c-5.44 1.19-10.88 2.4-16.33 3.57-3.86.82-5.25 2.9-4.43 6.79.09.43.23.88.45 1.26 4.43 8.04 4.52 16.58 1.98 25.02-2.71 8.99.46 17.18 2.41 25.55 1.13 4.86 1.54 9.54.58 14.52-1.33 6.89-.49 11.44 1.81 14.88-3.23.2-3.29.22-4.38-2.42-2.26-5.48-2.02-11.13-1.03-16.82.19-1.1.62-2.22.53-3.29-.16-2-.88-3.54-3.45-2.55-1.56.6-3.16 1.14-4.79 1.5-2.23.49-3.89 1.42-4.38 3.88-.14.7-.71 1.43-1.29 1.9-2.56 2.07-5.18 4.06-7.82 6.03-.36.27-.98.19-1.86.34 2.31-3.13 4.38-5.92 6.44-8.71-.18-.26-.36-.52-.54-.78-2.82.28-5.63.69-8.45.76-1.04.03-2.1-.76-3.16-1.18.87-.65 1.65-1.55 2.62-1.9 2.69-.95 5.47-1.68 8.59-2.6-2.59-2.27-4.82-4.23-7.05-6.18.37-.53.74-1.05 1.11-1.58 2.86 1.51 5.79 2.89 8.56 4.55 3.88 2.32 10.32 1.62 12.93-1.98.8-1.1.91-3.39.32-4.67-2.61-5.67-2.47-11.46-1.71-17.42.48-3.77-.29-4.69-4.14-4.51-2.63.13-5.28.81-7.82 1.58-.84.25-1.53 1.45-2.03 2.35-2.09 3.81-4.38 7.41-8.62 9.56 1.78-3.57 3.56-7.14 5.55-11.13-9.94.46-9.94.46-10.57-1.26 2.96-1.03 5.94-2.07 9.11-3.17-2.03-2.58-3.65-4.64-5.26-6.69.27-.37.54-.73.81-1.1 1.26.71 2.8 1.15 3.72 2.17 5.04 5.55 12.63 6.72 18.83 2.7 1.81-1.17 2.77-5.37 1.46-8.42-1.67-3.89-3.6-7.7-5.76-11.33-.5-.84-2.55-1.42-3.63-1.13-4.52 1.17-8.94 2.72-13.4 4.12-.43.13-.87.37-1.29.33-.78-.07-1.55-.3-2.32-.47.53-.66.93-1.69 1.61-1.93 3.36-1.2 6.83-2.09 10.2-3.29 1.84-.65 3.54-1.69 5.43-2.61-5.32-1.75-10.24-3.33-15.12-5.04-.61-.21-.97-1.11-1.68-1.99 5.49 1.03 10.59 1.93 15.66 2.95 9.18 1.86 18.22.27 27.29-.94 1.37-.18 2.78-.03 4.17-.03.01.27.07.54.14.81z" fill="#010105"/><path d="m208.06 359.66c6.22-.91 12.44-1.9 18.68-2.66.83-.1 1.8.92 2.7 1.42-.64.67-1.15 1.66-1.93 1.98-5.59 2.28-11.37 3.01-17.32 1.65-.85-.19-1.6-.8-2.4-1.21.1-.4.18-.79.27-1.18z" fill="#010105"/><path d="m208.27 374.14c6.01-3.96 20.77-4.96 23.6-1.83-7.87 3.03-15.72 2.81-23.6 1.83z" fill="#010105"/><path d="m237.5 247.56c2.44-.74 5.13-1 7.12-2.32 2.05-1.35 3.41-3.74 5.38-6.04 1.81 2.61 2.27 4.24.41 6-4.92 4.66-9.17 5.48-12.91 2.36z" fill="#010105"/></svg>