<svg enable-background="new 0 0 400 400" viewBox="0 0 400 400" xmlns="http://www.w3.org/2000/svg"><g fill="#fafafb"><path d="m12.4 4.8-6.1 9h6v1.2h-8v-.5l6.1-8.9h-5.7v-1.2h7.6v.4z"/><path d="m14 15v-10.6h3c1.6 0 2.9.5 4 1.4s1.6 2.2 1.6 3.8-.5 3-1.6 3.9-2.4 1.5-4 1.5zm1.4-9.4v8.2h1.6c1.3 0 2.4-.4 3.1-1.1s1.1-1.8 1.1-3.1-.4-2.3-1.2-3-1.8-1-3.1-1z"/><path d="m26.1 4.4v10.6h-1.4v-10.6z"/><path d="m36.1 14.6c-.8.4-1.8.6-2.9.6-1.5 0-2.7-.5-3.6-1.4s-1.4-2.2-1.4-3.8c0-1.7.5-3.1 1.5-4.1s2.3-1.6 3.9-1.6c1 0 1.8.1 2.5.4v1.4c-.8-.4-1.6-.6-2.5-.6-1.2 0-2.1.4-2.9 1.2s-1.1 1.8-1.1 3.2c0 1.3.3 2.3 1 3s1.6 1.1 2.7 1.1c1 0 2-.2 2.7-.7v1.3z"/><path d="m37.6 14.3c0-.2.1-.5.3-.6s.4-.3.6-.3c.3 0 .5.1.6.3s.3.4.3.6-.1.4-.3.6-.4.3-.6.3c-.3 0-.5-.1-.6-.3s-.3-.4-.3-.6z"/><path d="m50.2 15h-1.6l-5.3-8.2c-.2-.2-.3-.5-.4-.7 0 .2.1.7.1 1.5v7.4h-1.4v-10.6h1.7l5.2 8.1c.2.4.4.6.4.7 0-.3-.1-.8-.1-1.5v-7.3h1.4z"/><path d="m58.6 15h-5.7v-10.6h5.5v1.2h-4.1v3.4h3.8v1.2h-3.8v3.6h4.3z"/><path d="m67.1 5.6h-3.1v9.4h-1.4v-9.4h-3v-1.2h7.5z"/></g><path d="m159.95 31.61c11.9 5.3 19.27 13.65 21.38 26.61 2.46 15.05 4.48 30.13 3.71 45.4-.39 7.7.93 14.8 4.32 21.68.8 1.62.88 3.87.57 5.71-1.03 5.94-2.16 11.89-3.71 17.72-1.03 3.87-.74 7.37.53 11.08.68 2 .84 4.37.52 6.47-1.96 13.16-4.12 26.29-6.25 39.42-.19 1.19-.37 2.62-1.11 3.43-6.36 6.97-8.91 15.63-11.17 24.44-7.2 28.03-21.4 52.21-40.93 73.31-8.51 9.19-17.78 17.67-26.46 26.72-7.97 8.31-15.82 16.76-23.33 25.48-7.21 8.38-16.4 6.77-24.87 3.51-.57-.22-1.06-1.64-.95-2.42.6-4.32 1.35-8.62 2.18-12.9.15-.78.79-1.65 1.46-2.1 10.66-7.1 18.13-17.23 25.71-27.2 4.23-5.57 9.24-10.17 14.67-14.57 23.39-18.95 34.95-43.82 35.98-73.78.08-2.18-1.08-2.59-2.61-3.1-12.93-4.28-25.76-8.94-38.83-12.76-9.65-2.82-15.07-9.48-19.04-17.94-2.62-5.6-3.17-11.61-2.88-17.72.54-11.4 1.06-22.81 1.68-34.2.06-1.15.31-2.69 1.08-3.36 8.34-7.26 16.51-14.78 25.33-21.42 7.7-5.79 16.83-7.9 26.59-7.5 5.1.21 10.33.05 15.33-.87 5.31-.98 8.96-4.58 11.2-9.67 5.04-11.45 4.86-23.18 2.71-35.21-2.18-12.15.48-23.5 7.19-34.26zm-68.38 129.27c-.18 13.79 5.71 22.34 13.03 30.16 1.64 1.75 3.51 4.01 5.62 4.46 6.16 1.34 12.49 2.51 18.76 2.56 5.04.04 10.52-2 12.39-7.1 4.03-10.98 7.53-22.19 10.53-33.5 2.48-9.38-1.71-17.65-10.24-22.22-1.19-.64-2.77-.98-4.09-.84-11.27 1.23-22.07 4.09-32.69 8.2-9.88 3.82-14.3 10.31-13.31 18.28z" fill="#010105"/><path d="m294.5 374.02c-3.97.43-7.63 1.03-11.3 1.11-1.03.02-2.43-1.24-3.1-2.28-11.92-18.58-21.05-38.46-26.28-59.91-5.77-23.66-10.84-47.48-16.23-71.23-3.41-15.04-6.6-30.14-10.38-45.08-1.75-6.9-.47-13.58-.06-20.32.8-13.4 2.37-26.77 2.77-40.17.18-5.91-1.4-11.96-2.77-17.81-1.02-4.4-.54-8.11 1.49-12.15 1.44-2.87 2.06-6.41 2.09-9.67.11-11.85-.1-23.7-.35-35.54-.25-12.24 2.61-23.46 10.1-33.35 1.15-1.52 2.24-2.28 4.18-1.6 1.57.55 3.27.73 4.87 1.23 11.61 3.65 17.61 12.59 15.88 24.63-1.11 7.72-3.23 15.29-4.64 22.98-1.73 9.41-2.45 18.83.32 28.25 1.24 4.23 3.31 6.47 8.12 7.28 12.22 2.04 24.63 3.87 36.36 7.66 30.22 9.76 42.08 38.97 34.72 67.52-.16.62-.49 1.29-.94 1.74-7.43 7.43-14.46 15.34-22.45 22.1-9.46 8-20.8 11.51-33.38 10.44-6.11-.52-12.08-.05-17.24 3.93-1.76 1.35-2.65 2.64-1.91 5.05 1.04 3.41 1.49 6.99 2.42 10.44 2.25 8.37 3.7 16.83 2.96 25.51-.94 10.92 1.66 21.28 4.53 31.65 2.98 10.76 5.93 21.54 8.44 32.42 1.12 4.86 1.11 9.99 1.71 14.98.12 1.03.35 2.43 1.06 2.96 8.28 6.16 9.66 14.86 9.22 24.28-.03.86-.12 1.74-.21 2.95zm-29.14-201.33h-.01c.49 7.25 1.02 14.49 1.43 21.74.11 1.85.73 2.76 2.67 3.05 11.88 1.74 23.5.76 34.42-4.24 3.88-1.78 8.53-4.58 10.09-8.12 2.87-6.5 4.38-13.82 5.23-20.95.96-8.02-2.1-15.08-9.97-18.37-5.89-2.46-12.21-4.37-18.51-5.25-14.27-2-14.31-1.68-24.9 7.83-.08.07-.21.13-.25.22-.54 1.34-1.58 2.7-1.52 4.02.27 6.7.84 13.39 1.32 20.07z" fill="#010105"/></svg>