<svg enable-background="new 0 0 400 400" viewBox="0 0 400 400" xmlns="http://www.w3.org/2000/svg"><path d="m5.17 384 .55-.58c.85.61 1.65 1.24 2.4 1.87l-.59.64c-.83-.73-1.62-1.38-2.36-1.93m1.22 9.53-.82-.34c.71-1.76 1.37-3.64 1.98-5.63.24.13.5.25.76.36-.6 1.67-1.24 3.54-1.92 5.61m-.5-13.5.57-.54c.56.44 1.31 1.06 2.26 1.87l-.64.64c-.68-.66-1.41-1.32-2.19-1.97m3.25.46h2.24v-1.36h.77v1.36h4.57v-1.36h.76v1.36h2.28v.69h-2.28v1.84h-2.64v1.26h4.18v2.64h-4.21c0 .45-.02.86-.05 1.21h4.32v.69h-4.38c-.04.34-.1.75-.19 1.22h5.15v.69h-4.82c.87 1.19 2.51 1.92 4.93 2.19-.17.31-.3.57-.37.76-2.77-.49-4.52-1.41-5.26-2.76-.56 1.26-2.3 2.23-5.24 2.9-.12-.24-.26-.48-.43-.72 2.73-.55 4.38-1.34 4.96-2.38h-4.38v-.69h4.65c.1-.38.17-.79.21-1.22h-4.32v-.69h4.4c.03-.34.05-.75.05-1.21h-4.2v-2.64h4.23v-1.26h-2.69v-1.84h-2.24zm1.46 4.46v1.29h3.45c.01-.4.02-.57.01-.53v-.32-.45h-3.46zm1.55-2.59h4.57v-1.19h-4.57zm6.11 2.59h-3.42v.77c-.01.19-.01.37-.02.53h3.44z" fill="#fafafc"/><path d="m32.63 379.16h.82v1.98h3.54v7.89h1.46v.78h-14.37v-.78h1.46v-7.89h3.54v-1.98h.82v1.98h2.73zm-3.49 11.48.5.73c-1.61.82-3.28 1.63-5 2.41-.13-.27-.28-.55-.44-.82 1.75-.72 3.4-1.49 4.94-2.32m-2.78-5.55h2.73v-3.18h-2.73zm0 3.95h2.73v-3.2h-2.73zm3.54-3.95h2.73v-3.18h-2.73zm0 3.95h2.73v-3.2h-2.73zm7.89 4.68c-1.84-.92-3.51-1.7-5.02-2.32l.45-.73c1.89.8 3.57 1.55 5.04 2.23zm-1.62-11.81h-2.73v3.18h2.73zm-2.73 7.13h2.73v-3.2h-2.73z" fill="#fafafc"/><g fill="#010101"><path d="m207.46 347.64c2.84 1.54 1.81 3.65.64 5.86-2.28 4.31-4.71 8.56-6.64 13.02-1.61 3.7-3.89 6.44-8 8.13-3.46-4.99-7.85-8.94-7.87-16.18-.04-14.53 1.42-28.78 4.78-42.87 5.4-22.69 7.18-45.68 5.7-68.94-.15-2.34-.03-4.7-.16-7.05-.13-2.19.01-3.95 2.24-5.4 1.06-.69 1.52-2.9 1.58-4.45.5-11.71.77-23.42 1.24-35.13.2-5.03.75-10.04.96-15.07.04-1.07-.35-2.62-1.12-3.18-10.37-7.62-13.56-18.98-16.31-30.65-1.61-6.83-3.65-13.56-5.18-20.4-.46-2.06-.43-4.56.3-6.51 1.79-4.74 2.37-9.44 1.66-14.46-1.31-9.31.63-10.78 9.94-9.7 5.85.67 9.45 2.68 10.04 8.92.21 2.18 1.19 4.29 1.82 6.44 1.16 3.92 3.1 5.45 7.18 5.65.78.04 1.6.11 2.34-.07 7.11-1.73 14.16-1.37 21.23.32.98.23 2.19-.13 3.2-.5 3.04-1.1 5.97-2.59 9.08-3.44 2.14-.59 4.49-.44 6.76-.47 2.52-.04 5.05.26 7.56.09 1.99-.13 3.94-.93 5.93-1.09 8.84-.71 9.27-4.63 10.65-11.16.64-3.04 2.27-5.95 3.87-8.68.49-.84 2.45-1.37 3.59-1.18 3.96.66 6.96 3.19 7.9 6.92 1.2 4.8 2.15 9.86 2 14.77-.51 16.56-2.15 33.03-7.11 48.96-.45 1.44-1.41 2.72-2.2 4.04-.57.95-1.56 1.75-1.84 2.77-1.38 5.01-3.39 9.66-6.71 13.71-.38.46-.4 1.25-.48 1.9-.06.55 0 1.12.06 1.67 1.42 12.21.11 24.02-4.81 35.4-.71 1.63-.73 3.71-.57 5.55.56 6.69 1.74 13.35 1.88 20.03.11 5.31-.97 10.65-1.53 15.98-2.53 23.72-3.55 47.49-2.57 71.35.35 8.46-.1 16.99-.83 25.43-.42 4.89-3.1 8.85-8.41 10.15-2.06.5-3.98.29-4.37-2.19-.67-4.24-1.32-8.51-1.53-12.79-.22-4.34.18-8.7.15-13.05-.03-3.58-2.25-5.75-5.55-6.03-4.18-.36-8.49-.47-12.63.13-5.73.84-11.31 2.7-17.03 3.64-5.68.93-9.4 3.67-10.83 9.81zm25.47-177.68c.36-.04 1.03-.07 1.69-.19 15.58-2.72 26.01-12.17 32.97-25.78 1.74-3.4 2.26-7.45 3.09-11.25.43-1.96-.32-3.27-2.76-3.59-4.75-.62-9.43-1.71-14.16-2.43-1.45-.22-3.02 0-4.48.29-5.1 1.04-10.14 2.97-15.26 3.14-8.14.27-15.94 1.07-23.4 4.66-4.65 2.24-5.16 2.65-4.31 7.73 1.38 8.22 6.87 14.08 11.45 20.54 3.75 5.29 9.01 6.53 15.17 6.88zm-10.92 148.55c0-.05 0-.11 0-.16 3.23-.21 6.53-.12 9.69-.7 6.33-1.17 12.61-2.62 18.86-4.2.97-.25 2.26-1.74 2.31-2.71.38-7.71.33-15.41-1.96-22.92-1.18-3.87-3.37-6.88-7.11-8.4-7.36-2.99-14.81-5.07-22.5-.81-2.04 1.13-4.39 1.73-6.38 2.93-1.18.71-2.44 1.98-2.79 3.24-1.14 4.08-2.26 8.23-2.67 12.42-.55 5.61-.73 11.29-.46 16.92.14 2.91 1.91 5.06 5.65 4.46 2.39-.39 4.9-.07 7.36-.07zm31.54-62.38c0-6.75.08-13.32-.06-19.88-.03-1.5-.61-3.13-1.4-4.42-.62-1.01-1.88-2.11-2.98-2.27-7.07-1-13.87-.51-20.53 2.79-5.57 2.77-8.72 6.48-8.6 12.8.08 3.99-.15 7.98.06 11.96.04.74 1.57 2.06 2.32 2 10.35-.87 20.67-1.94 31.19-2.98zm-32.09-44.32c2.27.44 4.37 1.33 6.37 1.14 6.41-.6 12.77-1.68 19.16-2.42 4.93-.57 7.19-3.28 7.17-8.14-.01-4.24.36-8.49.02-12.7-.29-3.59-2.59-5.44-5.1-4.77-7.44 1.98-14.88 3.96-22.25 6.17-1.07.32-2.32 1.78-2.53 2.89-1.09 5.7-1.86 11.46-2.84 17.83z"/><path d="m112.79 56.89c1.76-1.83 4.38-3.37 5.13-5.54 3.06-8.92 9.22-12.69 18.33-13.79 16.86-2.02 33.59-5.04 50.45-7.1 17.09-2.09 34.25-3.56 51.39-5.19 2.29-.22 4.82-.31 6.92.43 7.46 2.61 15.11.76 22.63 1.43 4 .35 8.05.5 11.97 1.26 4.03.79 7.05 3.21 8.61 7.23.76 1.97.5 3.17-1.49 4.36-7.25 4.3-15.32 5.88-23.29 4.64-14.15-2.2-27.54 1.57-41.17 3.62-9.84 1.48-19.64 3.2-29.43 4.95-3.05.55-6 1.63-9.03 2.37-9.75 2.38-19.57 4.52-29.24 7.15-4.36 1.19-8.72 2.9-12.57 5.23-1.95 1.18-3.58 4.1-3.97 6.46-1.79 10.81-3.09 21.69-4.55 32.55-.1.77-.17 1.57-.09 2.34 1.48 14.98-1.63 29.65-3.03 44.42-2.4 25.26-6.12 50.41-5.17 75.92.83 22.5-1.24 44.94-2.21 67.41-.76 17.76-.26 35.58-.22 53.38.01 3.87-.93 7.28-3.56 10.16-4.4 4.81-8.38 4.15-12.72-.52-6.38-6.86-7.02-13.96-5.07-22.88 1.91-8.73 1.42-17.99 2-27.02.09-1.34-.08-2.79.39-3.98 1.73-4.39 2.59-8.69.14-13.13-.37-.67-.06-1.74.02-2.62.42-4.43 1.22-8.85 1.25-13.27.14-19.47-.11-38.95.17-58.42.08-5.63 1.61-11.22 2.22-16.86.25-2.34-.09-4.76-.34-7.12-.28-2.63-1.27-5.27-1.07-7.85.71-9.25 1.78-18.47 2.71-27.71.09-.89.34-1.82.16-2.66-3.36-14.89-.16-29.61 1.23-44.34.81-8.56 2.96-17.02 3.37-25.58.36-7.43-.86-14.93-1.38-22.4-.18-2.55-.36-5.11-.55-7.66.35.11.7.22 1.06.33z"/></g></svg>