<svg enable-background="new 0 0 400 400" viewBox="0 0 400 400" xmlns="http://www.w3.org/2000/svg"><path d="m374.8 390.4.4-.4c.7.5 1.3 1 1.8 1.4l-.5.5c-.5-.6-1.1-1.1-1.7-1.5zm1 7.3-.6-.3c.5-1.4 1.1-2.8 1.5-4.3.2.1.4.2.6.3-.5 1.3-1 2.8-1.5 4.3zm-.4-10.3.4-.4c.4.3 1 .8 1.7 1.4l-.5.5c-.4-.5-1-1-1.6-1.5zm2.5.3h1.7v-1h.6v1h3.5v-1h.6v1h1.8v.5h-1.8v1.4h-2v1h3.2v2h-3.2v.9h3.3v.5h-3.4c0 .3-.1.6-.1.9h4v.5h-3.7c.7.9 1.9 1.5 3.8 1.7-.1.2-.2.4-.3.6-2.1-.4-3.5-1.1-4-2.1-.4 1-1.8 1.7-4 2.2-.1-.2-.2-.4-.3-.6 2.1-.4 3.4-1 3.8-1.8h-3.4v-.5h3.6c.1-.3.1-.6.2-.9h-3.3v-.5h3.4c0-.3 0-.6 0-.9h-3.2v-2h3.3v-1h-2.1v-1.4h-1.7v-.5zm1.1 3.5v1h2.7c0-.3 0-.4 0-.4 0-.1 0-.2 0-.2 0-.1 0-.2 0-.3h-2.7zm1.2-3v.9h3.5v-.9zm4.7 3h-2.6v.6.4h2.6z" fill="#fbfcfa"/><path d="m393.6 386.7h.6v1.5h2.7v6.1h1.1v.6h-11v-.6h1.1v-6.1h2.7v-1.5h.6v1.5h2.1v-1.5zm-2.7 8.8.4.6c-1.2.6-2.5 1.3-3.8 1.9-.1-.2-.2-.4-.3-.6 1.2-.6 2.5-1.2 3.7-1.9zm-2.2-6.7v2.4h2.1v-2.4zm0 3v2.5h2.1v-2.5zm2.8-3v2.4h2.1v-2.4zm0 3v2.5h2.1v-2.5zm6 6.1c-1.4-.7-2.7-1.3-3.9-1.8l.3-.6c1.5.6 2.7 1.2 3.9 1.7zm-1.2-9.1h-2.1v2.4h2.1zm-2.1 3v2.5h2.1v-2.5z" fill="#fbfcfa"/><g fill="#010106"><path d="m158.73 131.3c-1.17-6.27-1.97-12.16-5.96-17.37-6.18-8.07-11.71-16.63-17.67-25.21-5.41 8.95-9.7 18.63-20.82 22.39.28-4.26.47-7.97 3.14-11.49 9.48-12.47 18.64-25.19 27.91-37.82.77-1.05 1.51-2.11 2.59-3.63-5.92-.45-11.22-.86-16.53-1.26-10.49-.79-20.98-1.45-31.45-2.45-3.34-.32-4.78.82-5.04 3.95-.51 6.12-1.71 12.27-1.37 18.34.78 13.61 2.59 27.16 3.49 40.77.82 12.5.78 25.07 1.53 37.58.49 8.25 2.12 16.43 2.54 24.67.94 18.43 1.64 36.89 2.09 55.34.51 21.04.87 42.08.88 63.13.01 18.57-.38 37.15-.95 55.71-.2 6.6-2.4 12.84-6.76 18.32.32-5.83.48-11.68.97-17.5 3.13-37.19 3.51-74.42 2.77-111.73-.47-23.67-3.46-47.08-5.37-70.6-1.83-22.53-3.84-45.05-5.58-67.59-1.32-17.07-2.37-34.17-3.53-51.25-.06-.87-.01-1.75-.01-3.52 4.73-.43 9.44-1.2 14.14-1.21 16.12-.02 32.23.24 48.35.39 24.84.23 49.69.52 74.53.65 21.37.11 42.74.02 64.1.02.01.39.02.78.02 1.17-37.94 2.33-75.87 4.65-114.46 7.02 15.41 12.85 30.17 25.51 39.82 43.31-3.17.86-5.26.44-7.3-1.45-4.51-4.17-9.23-8.13-14.16-12.43-7.82 13.78-15.53 27.35-23.29 41.03 6.51 2.33 12.6 4.83 18.88 6.71 12.12 3.63 16.52 12.15 17.34 24.14.53 7.69-3.34 13.07-8.55 16.21-7.43 4.47-9.19 9.82-9.5 18.05-1.05 28.28-2.96 56.54-4.92 84.78-1.8 25.9-4.09 51.77-6.14 77.65-.08.99-.01 1.98-.01 3.29 9.91 1.11 19.75 2.21 29.59 3.32.03.31.07.62.1.94-3.93.73-7.83 1.67-11.79 2.16-10.48 1.3-20.92 1.28-31.37-.81-12.87-2.58-19.35-11.18-21.48-23.15-1.3-7.31-1.18-14.93-1.12-22.41.29-34.36.77-68.73 1.2-103.09.08-6.6.04-13.22.38-19.81.48-9.3-2.42-17.4-9.09-23.65-7.81-7.33-8.23-15.63-4.75-24.83.56-1.48 1.71-2.8 2.8-4 6.13-6.75 14.51-8.81 22.89-10.88 2.28-.54 4.5-1.23 6.92-1.9zm11.97 228.1c.58-7.94 1.14-15.5 1.69-23.07 1.49-20.54 3.17-41.06 4.41-61.61 1.31-21.86 4.52-43.66 2.34-65.66-.77-7.75-.98-15.55-1.48-23.89-9.55 0-18.76 0-28.29 0-.6 10.36-1.21 20.85-1.81 31.34-1.48 25.81-2.98 51.62-4.43 77.43-.6 10.61-1.56 21.22-1.49 31.82.06 10.67 2.69 20.85 9.79 29.32.85 1.01 2.23 1.96 3.49 2.17 5.06.85 10.16 1.41 15.78 2.15zm-40.41-202.85c.06 1.34.13 2.68.19 4.02.31 7.21 3.68 12.38 10.02 15.86 17.88 9.81 40.57 6.31 54.84-8.6.46-.48.95-.98 1.21-1.57 4.26-9.82-.9-22.73-11-26.13-6.51-2.2-13.35-3.53-20.12-4.85-6.2-1.21-12.05-.36-17.42 3.62-3.65 2.72-7.71 5.04-11.88 6.86-5.01 2.2-6.88 5.57-5.84 10.79zm27.41-98.28c-5.66 6.67-11.35 13.27-16.85 20.01-.49.6-.11 2.3.37 3.22 5.08 9.84 10.25 19.62 15.4 29.42 1.91 3.63 3.8 7.26 6.07 11.59 1.39-1.68 2.5-2.71 3.24-3.95 5.44-9.12 10.62-18.39 16.25-27.39 3.21-5.13 3.22-9.82-.18-14.64-6.07-8.6-14.71-13.81-24.3-18.26z"/><path d="m308.19 232.63c-3.58-.08-6.26-.77-8.61-3.41-9.37-10.54-13.36-22.99-12.75-36.78.46-10.47 1.99-20.89 2.95-31.34.6-6.56 1.42-13.14 1.35-19.7-.03-3.3-1.43-6.77-2.92-9.82-1.9-3.89-4.77-6.51-9.76-6.93-10.22-.86-20.39-2.46-31.01-3.81-.35 3.69-.72 7.08-.99 10.48-1.61 19.97-3.16 39.94-4.82 59.9-.22 2.63.26 4.12 3.02 5.31 8.61 3.72 16.37 8.79 22.13 16.41 7.63 10.1 7.95 21.32 5.57 33.25-4.17 20.94-8.15 41.92-11.58 62.99-.87 5.36.52 11.11 1.07 16.66.96 9.57 2 19.14 3.21 28.68.2 1.6 1.11 3.37 2.23 4.54 4.93 5.15 10.06 10.12 15.11 15.15-.16.32-.32.64-.49.96-1.41-.49-3.02-.69-4.2-1.51-3.77-2.61-7.57-5.23-11.01-8.25-4.87-4.28-7.06-10.27-8.93-16.23-3.81-12.09-3.41-24.58-2.4-36.96 1.22-15.05 3.18-30.03 4.63-45.06.13-1.35-.75-3.26-1.81-4.17-4.22-3.64-9.37-3.49-14.61-3.29-3.95.16-8.13.22-11.84-.91-2.92-.89-5.26-3.66-7.86-5.6.23-.4.45-.8.68-1.21 8.42 1.47 16.85 2.84 25.24 4.43 7.67 1.46 11.54-.56 13.64-8.03 1.05-3.71 1.36-7.63 2.04-11.65-14.08-3.76-27.64-7.37-41.2-10.99.03-.19.07-.38.1-.56 12.59 1.34 25.18 2.68 38.32 4.08-.81-5.49-1.5-10.65-2.42-15.77-.14-.79-1.23-1.48-1.99-2.08-7.57-5.91-16.48-8.17-25.73-9.76-3.69-.64-7.31-1.99-10.81-3.39-1.72-.69-3.1-2.24-4.64-3.39.12-.27.24-.54.37-.8 5.51.28 11.03.56 16.18.83 7.57-40.47 7.77-81.25 7.4-122.33 6.76 2.78 9.16 8.66 7.48 15.9-1.18 5.09-2.52 10.24-2.81 15.41-.43 7.67 1.57 10.37 9.18 11.92 6.19 1.27 12.61 1.51 18.95 1.87 8.69.48 15.92 3.52 20.59 11.15.91 1.49 1.4 3.56 1.29 5.31-1.17 17.64-1.86 35.35-3.97 52.88-2.05 17.1 3.72 30.9 14.64 43.29.59.63 1.06 1.36 1.79 2.33z"/><path d="m159.78 25.4c28.06-.81 55.16 1.63 82.84 1.78-3.2 2.77-8.75 5-13.94 5.11-8.02.17-16.05.14-24.06-.2-10.81-.46-21.59-1.77-32.42-.14-4.99.74-8.88-1.39-12.42-6.55z"/><path d="m178.74 159.76c-9.31.77-18.61 1.53-28.21 2.33-.77-1.82-1.52-3.61-2.56-6.06 10.67.7 21.06-1.89 30.77 3.73z"/></g></svg>