<svg enable-background="new 0 0 400 400" viewBox="0 0 400 400" xmlns="http://www.w3.org/2000/svg"><path d="m282.67 30.76c5.68 2.41 7.09 5.02 6.26 10.36-.68 4.42-2.38 8.18-5.43 11.6-9.22 10.36-14.11 22.94-17.69 36.1-.88 3.23-1.3 6.61-2.38 9.76-1.05 3.07.16 4.43 2.74 5.67 9.5 4.57 19.63 6.66 29.97 8.08 10.95 1.5 21.94 2.87 32.81 4.82 6.12 1.1 9.02 3.47 11.39 7.54-8.91 1.49-17.5 3.51-26.19 4.21-7.96.64-16.07.26-24.06-.38-10.3-.83-19.19 2.66-27.47 8.02-5.52 3.57-10.62 7.81-15.83 11.86-5.12 3.98-10.08 8.16-15.22 12.12-3.35 2.59-6.16 5.46-7.17 9.91 9.58 5.02 19.64 8.3 30.08 10.36 13.99 2.76 27.01 7.79 38.98 15.59 1.74 1.13 2.82 2.35 2.8 4.5-.01 1.44.35 2.89.4 4.34.24 6.37 1.82 12.27 5.18 17.78 5.76 9.43 5.97 19.41 2.49 29.69-3.73 11.01-7.43 22.02-10.94 33.09-.47 1.47-.28 3.55.42 4.93 5.85 11.44 11.19 23.25 18.18 33.97 3.8 5.83 10.1 10.34 15.99 14.42 5.64 3.9 12.14 6.62 18.39 9.6 9.75 4.65 18.27 10.72 25.02 20.33-5.63-1.07-10.58-1.98-15.53-2.95-8.23-1.6-16.4-3.57-24.69-4.74-5.56-.78-9.44-4.24-13.99-6.75-6.11-3.37-10.37-7.93-11.4-15.01-.92-6.33-5.2-10.24-9.93-13.67-5.43-3.94-8.36-8.94-9.54-15.66-1.69-9.66-4.41-19.13-6.75-28.96-.96.2-1.81.28-2.6.54-16.4 5.56-32.95 10.74-49.12 16.9-7.76 2.96-15.33 7.08-22.01 11.99-4.7 3.46-7.94 9.02-11.52 13.88-5.55 7.53-10.5 9.42-19.31 6.57-.91-.29-1.45-1.75-2.15-2.67-.05-.07-.01-.22-.01-.33-.32-10.49-.43-10.7 8.83-15.51 19.54-10.14 39.26-19.94 58.8-30.09 9.33-4.85 18.36-10.28 26.05-17.61 1.28-1.22 2.4-2.61 3.76-4.1-5.95-5.93-12.72-10.11-20.34-12.89-10.93-3.99-22.39-6.28-33.89-5.6-9.15.54-18.21 3.27-27.23 5.37-9.19 2.14-17.38-1.96-21.07-11.21 9.18-.89 18.29-1.78 27.4-2.65 15.59-1.49 31.18-2.99 46.77-4.4 1.73-.16 3.58.02 5.25.5 11.07 3.16 22.12 6.37 33.13 9.73 2.26.69 3.81.21 5.39-1.35 3.55-3.51 4.07-7.82 3.39-12.42-.29-1.99-.94-3.92-1.28-5.9-1.59-9.14-6.53-15.27-15.09-19.29-8.75-4.11-17.27-7.07-27.28-6.42-9.97.64-19.73-2.22-29.08-5.78-3.51-1.34-6.77-1.47-10.39-.61-6.63 1.57-13.35 2.82-20.05 4.08-1.5.28-3.15.28-4.65 0-6.45-1.22-9.63-7.67-6.67-13.57.41-.82 1.71-1.26 2.67-1.73 21.1-10.25 41.21-22.04 58.71-37.88.5-.45.96-.94 1.45-1.4 4.93-4.74 7.76-10.09 7.86-17.37.34-27.23 12.11-50.5 26.33-72.79 3.51-5.54 7.3-10.94 11.06-16.52z" fill="#010100"/><path d="m108.31 361.89c-4.47-6.38-6.35-12.81-7.51-19.4-3.28-18.59-4.86-37.36-2.18-56.11.93-6.49 4.11-12.69 6.5-18.92.89-2.31.89-4.02-.59-6.14-3.33-4.81-4.63-10.34-4.76-16.17-.13-5.88-1.83-11.13-5.77-15.7-3.91-4.54-9.32-6.27-14.62-7.65-11.33-2.95-22.83-5.26-34.28-7.74-12.74-2.76-20.34-10.59-22.57-23.41-.11-.66-.17-1.34-.36-1.98-.74-2.5-.04-3.96 2.44-5.27 19.96-10.56 39.97-21.02 59.67-32.04 17.97-10.05 29.01-26.03 36.73-45.47-5.79 0-11.14-.51-16.36.1-12.98 1.52-25.07 6.32-37.31 10.63-6.06 2.13-12.43 3.74-18.79 4.6-8.07 1.09-13.04-3.03-13.85-10.15-.27-2.34.39-3.46 2.8-4.26 25.46-8.38 50.84-16.97 76.31-25.29 3.03-.99 3.9-2.44 3.98-5.41.35-13.42.91-26.84 1.39-40.26.03-.88.11-1.76.17-2.7 10.51 6.83 16.64 21.37 14.58 33.32-1.39 8.03-2.88 16.16-3.03 24.27-.15 7.99.93 16.08 2.24 23.99.91 5.47.07 9.38-4.34 13.14-5.85 4.99-11.03 10.79-16.8 16.55 2.34 1.92 4.51 3.71 6.61 5.44-22.18 11.94-44.97 22.68-60.79 43.99 1.82 1.11 2.83 1.75 3.87 2.35 16.91 9.85 33.8 19.74 50.76 29.48 2.09 1.2 2.98 2.42 2.97 4.9-.1 23.84-.05 47.68-.09 71.53 0 1.18-.03 2.63-.67 3.5-5.08 6.94-5.39 14.76-4.34 22.8 1.12 8.56 2.31 17.1.22 25.67-.53 2.37-1.31 4.69-2.23 7.81z" fill="#010100"/><g fill="#fcfbfa"><path d="m377.9 391.2c-.2.3-.4.5-.6.8-.7-.6-1.4-1-2.2-1.5.2-.3.4-.5.5-.8.6.4 1.4.8 2.3 1.5zm-1.8 6.1c-.2-.2-.5-.4-.9-.6.4-.6.8-1.2 1.2-1.9s.7-1.3.9-1.9c.3.3.5.5.8.7-.7 1.3-1.4 2.6-2 3.7zm2.2-9c-.3.3-.5.5-.6.8-.6-.6-1.3-1.1-2-1.5.3-.3.5-.5.6-.7.6.5 1.3.9 2 1.4zm.3.2v-.9h2 4.5c-.3 1.3-.6 2.5-1 3.6s-.9 2.1-1.4 3c.4.5 1 1 1.6 1.4s1.2.8 1.9 1.1c-.3.2-.5.4-.8.8-.4-.3-1-.7-1.6-1.2s-1.2-1.1-1.6-1.6c-.5.6-1.1 1.1-1.7 1.6s-1.4.9-2.1 1.4c-.1-.3-.3-.5-.7-.8.6-.2 1.2-.5 1.9-1s1.4-1.1 2-1.8c-.5-.8-.9-1.6-1.2-2.5s-.6-2-.8-3.2c-.4.1-.7.1-1 .1zm2.5 2.7c.3 1 .7 1.7 1 2.2.3-.5.6-1.1 1-2s.6-1.9.9-3h-3.2-.4c.1.9.3 1.8.7 2.8z"/><path d="m396.5 388.5v1.5 3.6h1.5v.9c-.4 0-1 0-1.7 0h-7.9c-.5 0-.9 0-1.2 0v-.9h1.3v-3.5c0-.7 0-1.2 0-1.6h2.4c0-.8 0-1.4 0-1.7h1c0 .3-.1.8-.1 1.7h1.5c0-.8 0-1.4 0-1.7h1c0 .3-.1.9-.1 1.7zm-8.2 9.2c-.2-.3-.5-.5-.8-.8.8-.3 1.4-.6 1.9-.9s1-.7 1.4-1.1c.3.3.6.5.9.8-1.6 1-2.8 1.6-3.4 2zm2.6-6.8v-1.6h-1.5v1.6zm0 2.7v-1.9h-1.5v1.9zm2.4-2.7v-1.6h-1.5v1.6zm0 2.7v-1.9h-1.5v1.9zm.2 2 .7-.8c.4.2.9.5 1.6.8s1.3.7 1.8 1c-.3.3-.5.5-.8.8-.4-.3-1.5-1-3.3-1.8zm2-4.7v-1.6h-1.4v1.6zm0 2.7v-1.9h-1.4v1.9z"/></g></svg>