<svg enable-background="new 0 0 400 400" viewBox="0 0 400 400" xmlns="http://www.w3.org/2000/svg"><path d="m6.8 9.5c.6.3 1.3.7 2.1 1.1-.4.4-.7.8-.9 1.2-.7-.4-1.3-.8-1.8-1.1s-1.1-.6-1.6-.8c.2-.4.5-.8.7-1.2.4.2.8.5 1.5.8zm.9 6.9c-.3.6-.5 1.1-.7 1.7s-.4 1.1-.6 1.7c-.6-.4-1.1-.7-1.6-1 .7-1 1.2-1.8 1.5-2.4.3-.5.6-1.1.8-1.7.3-.6.5-1.2.8-1.8.3.3.8.6 1.3.8-.7 1.3-1.2 2.2-1.5 2.7zm.1-11c.4.3 1 .7 1.7 1.1-.5.2-.8.6-1.1 1.1-.5-.6-1-1-1.4-1.2s-.9-.6-1.5-.8c.2-.4.5-.7.9-1.1.5.3.9.6 1.4.9zm10.5 13.1c1 .4 2 .6 3.1.7-.4.4-.7.8-.8 1.3-.9-.2-1.9-.6-3-.9-1-.4-2-.9-2.8-1.6-.5.4-1.1.9-1.9 1.3s-1.9.9-3.3 1.2c-.1-.3-.5-.8-1.1-1.3 1 0 2.1-.3 3.2-.8 1.2-.5 1.9-1 2.3-1.7h-3.2c-.4 0-1 0-2 .1v-1.2c1 0 1.7.1 2 .1h3.3v-1h-2.3c-.2 0-.9 0-2 .1v-1.2c1.2 0 1.9.1 2 .1h2.3v-.8h-4.1c0-.7.1-1.2.1-1.6 0-.5 0-1.1-.1-1.8h4.1v-.7h-2.5c0-.6.1-1.1.1-1.6v-.6h-.5c-.4 0-1 0-1.8.1v-1.3c1.2 0 1.9.1 2.1.1h.2c0-.3 0-.8-.1-1.4h1.4c0 .6-.1 1-.1 1.4h3.4c0-.4 0-.8-.1-1.3h1.5c0 .4-.1.9-.1 1.3.7 0 1.5 0 2.5-.1v1.2c-1 0-1.8-.1-2.5-.1v.6c0 .3 0 .8.1 1.5h-2.5v.8h4.1c0 .7-.1 1.3-.1 1.8s0 1 .1 1.5h-4.1v.8h1.4c.8 0 1.8 0 2.9-.1v1.2c-1 0-1.9-.1-2.8-.1h-1.5v1h3.2c.3 0 1 0 2.1-.1v1.2c-1.1 0-1.8-.1-2.1-.1h-3.4l-.1.1c1.4 1 2.4 1.5 3.4 1.9zm-4.1-6.7v-1.3h-2.7v1.3zm2.2-4.1v-1.1h-3.4v1.1zm1.9 4.1v-1.3h-2.8v1.3z" fill="#fafbfa"/><path d="m37 6.7v2.3 5.4c1 0 1.8 0 2.2-.1v1.3c-.6 0-1.5-.1-2.5-.1h-11.9c-.7 0-1.3 0-1.8.1v-1.3c.5 0 1.1.1 2 .1v-5.2c0-1 0-1.8-.1-2.5h3.7c0-1.3 0-2.1-.1-2.5h1.5c0 .4-.1 1.3-.1 2.5h2.2c0-1.2 0-2.1-.1-2.6h1.5c0 .4-.1 1.3-.1 2.6zm-12.3 13.7c-.3-.4-.7-.8-1.1-1.1 1.1-.4 2.1-.9 2.9-1.3.8-.5 1.5-1 2.1-1.6.4.4.9.8 1.3 1.1-2.5 1.4-4.2 2.4-5.2 2.9zm3.9-10.1v-2.4h-2.2v2.4zm0 4.1v-2.9h-2.2v2.9zm3.5-4.1v-2.4h-2.2v2.4zm0 4.1v-2.9h-2.2v2.9zm.4 2.9 1-1.1c.6.3 1.4.7 2.5 1.3s2 1.1 2.7 1.5c-.4.4-.8.8-1.1 1.3-.8-.8-2.5-1.7-5.1-3zm3.1-7v-2.4h-2.1v2.4zm0 4.1v-2.9h-2.1v2.9z" fill="#fafbfa"/><path d="m171.81 226.06c3.46-1.84 5.05-.98 6.55 1.21 4.23 6.18 8.74 12.17 12.94 18.37 5.03 7.43 11.17 13.31 20.77 16.05 2.91-8.47 6.62-16.71 8.34-25.35.95-4.76-.85-10.41-2.51-15.28-2.39-7.02-4.37-14.54-10.17-19.76-7.41-6.67-15.13-13.11-25.45-14.76-2.8-.45-5.83-.35-8.63.18-7.58 1.42-15.11 3.11-22.61 4.9-1.62.39-3.2 1.42-4.51 2.51-3.77 3.15-7.25 6.65-11.12 9.67-3.08 2.41-6.79 3.27-10.97 2.41.28-4.1.95-7.74 4.65-10.43 6.05-4.41 11.74-9.31 17.77-13.74 4.52-3.32 9.44-5.98 15.15-6.76.88-.12 1.74-.41 2.6-.64 7.78-2.08 8.23-2.77 6.82-10.54-.14-.77-.4-1.55-.37-2.31.21-6.66-3.93-10.22-9.51-11.65-18.94-4.86-27.1-19.94-34.68-35.68-.36-.75-.45-1.76-.34-2.6.63-4.65 1.82-9.28 1.94-13.94.12-4.65-.8-9.32-1.26-13.96 4.46-1.98 5.33-1.39 8.83 1.4 4.41 3.52 5.23 8 5.03 13.03-.11 2.9 1.28 4.21 3.98 4 6.89-.56 13.79-1.08 20.62-2.1 1.29-.19 3.18-2.56 3.19-3.93.01-3.96-.62-7.96-1.4-11.86-.19-.97-1.78-1.86-2.91-2.42-9.63-4.73-19.43-9.14-28.9-14.16-4.78-2.54-9.25-5.85-13.36-9.39-2.33-2-3.65-5.16-5.43-7.8.23-.46.45-.92.68-1.39 2.97.26 6.19-.13 8.86.9 5.88 2.27 11.62 5.02 17.17 8.02 6.48 3.51 13.23 5.43 20.56 4.9 1.18-.08 2.77-1.35 3.28-2.47 2.37-5.18 1.92-10.71 1.27-16.17-.79-6.56-.15-12.88 2.42-18.97 5.33 1.22 8.05 4.62 8.51 10.79.18 2.44-.27 4.91-.23 7.37.04 2.55-.06 5.2.6 7.62 1.14 4.21 5.47 5.19 9.07 2.7 6.33-4.37 12.69-8.73 19.34-12.56 1.88-1.08 4.96-3.84 7.23-.15 1.96 3.19.47 6.84-2.92 9.5-6.95 5.44-13.95 10.84-20.51 16.73-7.33 6.58-9.8 15.23-8.99 24.94.18 2.18.86 3.54 3.33 3.66 1.77.09 3.52.78 5.29.81 1.76.03 3.54-.46 5.31-.7 1.74-.23 3.49-.53 5.24-.61.86-.04 1.74.36 2.61.56 9.03 2.11 13.67-.79 15.9-9.92.66-2.71 1.07-5.56 2.26-8.02 1.1-2.28 3.08-4.13 4.91-6.47 3.83 6.21 4.46 12.11 3 18.19-2.84 11.77-6.24 23.33-14.11 32.97-.91 1.12-1.73 2.36-2.38 3.65-4.09 8.13-10.29 13.46-19.03 16.55-6.12 2.16-7.57 8.3-8.24 14.28-.05.44-.03.9-.01 1.34.11 4.14-1.12 9.1.74 12.17 1.72 2.82 6.84 3.49 10.36 5.31 13.34 6.89 25.81 14.86 34.05 27.96.82 1.31 1.57 2.74 1.97 4.22.72 2.65-.42 3.71-3.17 4-1.53.16-2.98 1.08-4.88 1.82-.02-.01-.46-.31-.87-.64-.43-.34-.82-.72-1.6-1.41-.82 1.75-1.55 3.28-2.24 4.76 3.82 3.13 7.46 3.69 11.59-.98 1.22 5.87 2.92 10.71 3.1 15.59.29 7.88-.43 15.79-.68 23.7-.07 2.19-1.29 3.19-3.26 3.57-3.12.6-4.32 2.57-5.18 5.61-1.1 3.91-2.97 7.67-4.96 11.24-1.2 2.16-1.27 3.71.08 5.73 5.39 8.08 10.32 16.49 16.05 24.31 10.68 14.58 19.81 30.04 28.06 46.08 2.3 4.47 5.05 8.71 7.28 13.21 1.44 2.91 2.32 6.11 3.45 9.18-.35.28-.7.57-1.05.85-1.82-.85-3.74-1.53-5.44-2.58-6.92-4.29-13.52-9.19-20.72-12.94-10.92-5.68-19.3-13.3-24.48-24.7-2.89-6.36-7.2-12.08-10.82-18.12-2.93-4.88-5.7-9.87-8.74-14.68-1.15-1.83-2.59-3.72-4.37-4.84-2.25-1.41-4.37-1.06-6.82 1.04-10.28 8.84-22.04 14.76-35.74 16.19-.87.09-2.01.24-2.62-.2-1.95-1.41-2.89-.08-4.26.98-1.23.95-2.82 1.77-4.33 1.96-6.2.78-12.43 1.29-18.65 1.91-.2-.29-.4-.59-.6-.88.88-.63 1.68-1.51 2.66-1.85 8.44-2.93 17.09-5.34 25.32-8.77 5.82-2.42 11.1-6.15 16.59-9.34 3.86-2.24 7.71-4.51 11.5-6.87 1.98-1.23 4.05-2.45 5.67-4.08 2.59-2.6 3.57-5.57 2.01-9.42-2.8-6.94-4.97-14.12-7.7-21.09-2.02-5.16-4.6-10.11-6.74-15.23-2.1-5.08-4.01-10.29-6.03-15.49zm-1.35-102.2c.04-4.83-1.28-6.62-6.02-7.71-4.36-1-8.67-1.5-13.05.37-3.79 1.62-4.34 3.3-1.5 6.55 4.02 4.61 9.44 6.19 15.21 6.51 4.12.22 5.32-1.35 5.36-5.72zm16.09-2.66c0 1.11-.04 2.23.01 3.34.17 4.68 1.96 5.83 6.25 3.76 1.57-.75 2.98-1.94 4.27-3.14 1.87-1.74 3.79-3.52 5.27-5.58.98-1.37 2.03-3.57 1.57-4.86-.45-1.25-2.72-2.29-4.34-2.57-2.49-.44-5.11-.24-7.67-.16-4.37.13-5.7 2.42-5.36 9.21z" fill="#010103"/></svg>