<svg enable-background="new 0 0 400 400" viewBox="0 0 400 400" xmlns="http://www.w3.org/2000/svg"><path d="m6.8 9.5c.6.3 1.3.7 2.1 1.1-.4.4-.7.8-.9 1.2-.7-.4-1.3-.8-1.8-1.1s-1.1-.6-1.6-.8c.2-.4.5-.8.7-1.2.4.2.8.5 1.5.8zm.9 6.9c-.3.6-.5 1.1-.7 1.7s-.4 1.1-.6 1.7c-.6-.4-1.1-.7-1.6-1 .7-1 1.2-1.8 1.5-2.4.3-.5.6-1.1.8-1.7.3-.6.5-1.2.8-1.8.3.3.8.6 1.3.8-.7 1.3-1.2 2.2-1.5 2.7zm.1-11c.4.3 1 .7 1.7 1.1-.5.2-.8.6-1.1 1.1-.5-.6-1-1-1.4-1.2s-.9-.6-1.5-.8c.2-.4.5-.7.9-1.1.5.3.9.6 1.4.9zm10.5 13.1c1 .4 2 .6 3.1.7-.4.4-.7.8-.8 1.3-.9-.2-1.9-.6-3-.9-1-.4-2-.9-2.8-1.6-.5.4-1.1.9-1.9 1.3s-1.9.9-3.3 1.2c-.1-.3-.5-.8-1.1-1.3 1 0 2.1-.3 3.2-.8 1.2-.5 1.9-1 2.3-1.7h-3.2c-.4 0-1 0-2 .1v-1.2c1 0 1.7.1 2 .1h3.3v-1h-2.3c-.2 0-.9 0-2 .1v-1.2c1.2 0 1.9.1 2 .1h2.3v-.8h-4.1c0-.7.1-1.2.1-1.6 0-.5 0-1.1-.1-1.8h4.1v-.7h-2.5c0-.6.1-1.1.1-1.6v-.6h-.5c-.4 0-1 0-1.8.1v-1.3c1.2 0 1.9.1 2.1.1h.2c0-.3 0-.8-.1-1.4h1.4c0 .6-.1 1-.1 1.4h3.4c0-.4 0-.8-.1-1.3h1.5c0 .4-.1.9-.1 1.3.7 0 1.5 0 2.5-.1v1.2c-1 0-1.8-.1-2.5-.1v.6c0 .3 0 .8.1 1.5h-2.5v.8h4.1c0 .7-.1 1.3-.1 1.8s0 1 .1 1.5h-4.1v.8h1.4c.8 0 1.8 0 2.9-.1v1.2c-1 0-1.9-.1-2.8-.1h-1.5v1h3.2c.3 0 1 0 2.1-.1v1.2c-1.1 0-1.8-.1-2.1-.1h-3.4l-.1.1c1.4 1 2.4 1.5 3.4 1.9zm-4.1-6.7v-1.3h-2.7v1.3zm2.2-4.1v-1.1h-3.4v1.1zm1.9 4.1v-1.3h-2.8v1.3z" fill="#fafbfa"/><path d="m37 6.7v2.3 5.4c1 0 1.8 0 2.2-.1v1.3c-.6 0-1.5-.1-2.5-.1h-11.9c-.7 0-1.3 0-1.8.1v-1.3c.5 0 1.1.1 2 .1v-5.2c0-1 0-1.8-.1-2.5h3.7c0-1.3 0-2.1-.1-2.5h1.5c0 .4-.1 1.3-.1 2.5h2.2c0-1.2 0-2.1-.1-2.6h1.5c0 .4-.1 1.3-.1 2.6zm-12.3 13.7c-.3-.4-.7-.8-1.1-1.1 1.1-.4 2.1-.9 2.9-1.3.8-.5 1.5-1 2.1-1.6.4.4.9.8 1.3 1.1-2.5 1.4-4.2 2.4-5.2 2.9zm3.9-10.1v-2.4h-2.2v2.4zm0 4.1v-2.9h-2.2v2.9zm3.5-4.1v-2.4h-2.2v2.4zm0 4.1v-2.9h-2.2v2.9zm.4 2.9 1-1.1c.6.3 1.4.7 2.5 1.3s2 1.1 2.7 1.5c-.4.4-.8.8-1.1 1.3-.8-.8-2.5-1.7-5.1-3zm3.1-7v-2.4h-2.1v2.4zm0 4.1v-2.9h-2.1v2.9z" fill="#fafbfa"/><g fill="#010103"><path d="m200.31 124.47c16.88 3.35 32.83 1.42 48.77.36 10.83-.72 21.64-1.92 32.47-2.18 6.32-.15 12.72.83 19 1.87 4.57.75 6.7 4.56 7.92 8.7.17.59-.62 1.81-1.28 2.25-5.46 3.67-11.05 5.82-17.95 3.57-8.52-2.77-17.48-2.37-26.3-1.66-17.17 1.38-34.33 2.85-51.46 4.64-3.13.33-6.36 1.98-9.01 3.8-1.43.98-2.32 3.56-2.46 5.49-1 14.29-1.66 28.6-2.64 42.89-.18 2.64.59 4.08 3.02 4.57 3.05.61 6.26 1.81 9.19 1.36 11.47-1.76 22.75.09 34.11.88 3.28.23 6.8.32 9.89-.59 7.53-2.2 14.59.16 21.8 1.35 2.87.47 5.68 1.37 8.56 1.64 3.02.28 4.76 1.94 5.69 4.48 3.26 8.89 4.4 17.97 1.95 27.3-.34 1.28-.46 2.64-.47 3.97-.05 4.93-.18 9.86.01 14.78.42 10.46-.49 20.76-2.95 30.95-.48 1.98-.38 4.29.14 6.27 2.01 7.63 2.1 15.2.11 22.82-.45 1.73-.94 3.5-.99 5.27-.22 7.31-3.88 13.2-7.89 18.84-1.29 1.81-3.64 2.87-6.13 4.74-1.24-9.66-2.27-18.19-3.51-26.7-.2-1.38-1.06-2.95-2.1-3.87-24.98-22.11-50.04-44.13-75.03-66.22-1.57-1.39-2.81-1.43-4.76-.8-6.37 2.07-11.18 5.85-15.53 10.99-16.69 19.75-33.84 39.1-50.56 58.83-4.17 4.92-7.58 10.54-10.85 16.13-1.47 2.51-1.59 5.78-2.55 8.62-.56 1.66-1.31 3.41-2.46 4.68-3.13 3.48-6.84 3.09-8.33-1.19-1.48-4.25-2.79-8.84-2.77-13.27.22-37.61.1-75.21-2.13-112.78-.15-2.46.64-3.5 2.69-4.56 9.44-4.87 19.57-6.73 30.01-7.63 18.05-1.56 36.08-3.33 54.14-4.9 2.52-.22 3.73-1.49 3.98-3.67.67-5.77 1.55-11.55 1.59-17.34.07-9.17-.58-18.34-.69-27.51-.04-3.32-1.67-4.78-4.56-4.98-2.76-.19-5.56-.08-8.33.16-6.11.52-12.22 1.9-18.29 1.69-13.34-.48-26.28.84-38.88 5.45-5.92 2.17-11.51.82-16.48-2.82-1.47-1.08-2.78-2.65-3.59-4.28-2.12-4.32-.75-8.01 3.84-8.92 9.51-1.89 19.12-3.42 28.73-4.69 9.97-1.32 19.99-2.34 30.02-3.15 3.74-.3 7.57.35 11.35.58 1.89.11 3.8.43 5.68.35 5.18-.23 8.5-2.71 9.59-7.74.75-3.46.77-7.09 1-10.65.87-13.21-2.55-25.71-6.5-38.1-.41-1.27-1.45-2.5-2.51-3.38-8.25-6.82-17.98-9.83-28.48-10.45-12.38-.73-24.59.5-36.45 4.26-1.4.44-2.68 1.49-3.82 2.48-4.31 3.73-8.72 7-14.95 6.16-7.3-.98-7.86-7.14-4.65-11.09 6.03-7.43 13-14.17 20.03-20.71 4.24-3.95 9.68-5.47 15.73-5.53 17.22-.17 34.49-.12 51.65-1.4 22.41-1.67 44.75-4.45 67.09-6.93 12.26-1.36 24.51-2.5 36.81-.94 3.61.46 7.32 1.35 10.59 2.87 2.34 1.08 4.57 3.22 5.93 5.45 4.6 7.54 8.9 15.29 10.52 24.15.32 1.75.61 3.55.57 5.31-.02.85-.72 2.23-1.35 2.38-.9.22-2.39-.14-2.98-.82-2.29-2.6-4.65-5.23-6.38-8.2-3.95-6.77-10.37-8.69-17.41-9.71-12.07-1.75-23.55 1.27-35.02 4.35-1.51.4-3.01.86-4.5 1.32-18.44 5.74-24.03 9.78-34.71 25.8-1.42 2.13-2.28 5-2.4 7.57-.56 12.4-.79 24.79-1.13 36.99zm55.55 168.03c.65.2 1.5.76 1.88.53 2.84-1.74 5.6-.87 8.41 0 6.56 2.03 8.38.65 8.27-6.27-.01-.89-.13-1.78-.27-2.67-.75-4.77-.98-9.45.16-14.28 1.09-4.64 2.4-9.56 1.9-14.16-1.16-10.6-4.66-20.88-3.14-31.84.6-4.34-2.19-6.78-6.55-7.03-17.18-1.02-34.4-1.7-51.55-3.12-6.31-.52-10.91 2.06-15.76 5.15.15.54.25.97.4 1.38 3.77 10.24 9.56 19.33 17.33 26.85 13.26 12.83 27.05 25.11 40.51 37.73 1.25 1.17 2.31 3.1 2.41 4.73.03.83-2.3 1.79-4 3zm-146.23 8.94c.42.1.84.2 1.27.3 9.81-5.24 17.57-12.84 24.54-21.4 9.95-12.23 19.84-24.52 30.14-36.46 5.01-5.81 9.61-11.76 12.78-18.73 1.33-2.93 4.33-5.84 1.88-9.25-2.5-3.48-6.51-2.37-9.97-1.9-8.3 1.14-16.6 2.37-24.84 3.85-10.55 1.9-21.08 3.97-30.74 9.03-2.24 1.17-3.2 2.56-3.17 5.21.15 12.31.32 24.62-.03 36.92-.22 7.67-1.44 15.3-2.01 22.97-.23 3.13.08 6.3.15 9.46z"/><path d="m160.88 320.6c1.05.51 1.92.79 2.62 1.3 7.87 5.75 16.23 4.46 24.64 1.67 8.86-2.95 17.05-7.22 24.57-13.16 3.64 2.88 7.46 5.47 10.67 8.67 1.35 1.34 1.92 4 1.92 6.06-.02 6.7-.09 13.45-.83 20.1-1.92 17.27.31 12.72-14.34 22.64-11.09 7.51-23.24 9.39-36.19 6.83-1.3-.26-2.72-1.07-3.62-2.04-10.79-11.58-15.58-25.58-16.21-41.17-.04-.92.3-2 .82-2.76 1.8-2.68 3.79-5.24 5.95-8.14zm24.78 46.52c16.5-1.49 24.44-6.99 26.88-22.14 1.65-10.22-5.08-17.64-14.28-15.45-4.89 1.16-9.78 2.36-14.57 3.87-3.82 1.21-7.84 2.68-9.55 6.71-2.57 6.06-2.89 12.35-.55 18.65 2.6 7.04 4.61 8.45 12.07 8.36z"/></g></svg>