<svg enable-background="new 0 0 400 400" viewBox="0 0 400 400" xmlns="http://www.w3.org/2000/svg"><g fill="#fafafb"><path d="m12.4 4.8-6.1 9h6v1.2h-8v-.5l6.1-8.9h-5.7v-1.2h7.6v.4z"/><path d="m14 15v-10.6h3c1.6 0 2.9.5 4 1.4s1.6 2.2 1.6 3.8-.5 3-1.6 3.9-2.4 1.5-4 1.5zm1.4-9.4v8.2h1.6c1.3 0 2.4-.4 3.1-1.1s1.1-1.8 1.1-3.1-.4-2.3-1.2-3-1.8-1-3.1-1z"/><path d="m26.1 4.4v10.6h-1.4v-10.6z"/><path d="m36.1 14.6c-.8.4-1.8.6-2.9.6-1.5 0-2.7-.5-3.6-1.4s-1.4-2.2-1.4-3.8c0-1.7.5-3.1 1.5-4.1s2.3-1.6 3.9-1.6c1 0 1.8.1 2.5.4v1.4c-.8-.4-1.6-.6-2.5-.6-1.2 0-2.1.4-2.9 1.2s-1.1 1.8-1.1 3.2c0 1.3.3 2.3 1 3s1.6 1.1 2.7 1.1c1 0 2-.2 2.7-.7v1.3z"/><path d="m37.6 14.3c0-.2.1-.5.3-.6s.4-.3.6-.3c.3 0 .5.1.6.3s.3.4.3.6-.1.4-.3.6-.4.3-.6.3c-.3 0-.5-.1-.6-.3s-.3-.4-.3-.6z"/><path d="m50.2 15h-1.6l-5.3-8.2c-.2-.2-.3-.5-.4-.7 0 .2.1.7.1 1.5v7.4h-1.4v-10.6h1.7l5.2 8.1c.2.4.4.6.4.7 0-.3-.1-.8-.1-1.5v-7.3h1.4z"/><path d="m58.6 15h-5.7v-10.6h5.5v1.2h-4.1v3.4h3.8v1.2h-3.8v3.6h4.3z"/><path d="m67.1 5.6h-3.1v9.4h-1.4v-9.4h-3v-1.2h7.5z"/></g><path d="m22.38 44.9c14.08 1.82 27.76-.32 41.46-.37.45 0 .93-.16 1.34-.05 10.42 2.94 21.01-.34 31.6.97s21.46.34 32.21.28c2.9-.02 5.8-.55 8.69-.5 6.34.1 12.67.54 19.01.61 5.11.06 10.24-.07 15.34-.43 3.35-.23 6.46-.29 9.84.75 2.63.81 5.85-.5 8.82-.6 2.38-.08 4.78.32 7.17.39 4.88.14 9.75.27 14.63.3 12.51.06 25.01.06 37.52.09.67 0 1.34.09 2.01.08 29.47-.27 58.93.98 88.4.16 8.73-.24 17.47.14 26.19-.13 3.31-.1 4.68 1.34 4.67 4.14-.02 4.55-.54 9.1-.7 13.66-.23 6.36-.49 12.73-.44 19.1.07 8.73.58 17.45.61 26.18.02 4.89-.88 9.78-.74 14.66.26 8.93.98 17.85 1.51 26.78.01.22.1.46.04.67-3.58 13.11.24 26.37-.79 39.56-.51 6.56.06 13.2.01 19.8-.01 1.76-.53 3.5-.78 5.26-.18 1.31-.5 2.64-.42 3.94.35 6.12.94 12.24 1.15 18.36.05 1.48-.99 3.01-1.62 4.76 2.56 1.19 1.86 3.49 1.7 6.18-.58 9.8-.76 19.64-.82 29.46-.03 5.59.54 11.18.68 16.77.05 1.98-.4 3.96-.59 5.95-.08.87-.19 1.76-.07 2.62.34 2.45 1.14 4.89 1.13 7.33-.06 13.2-.32 26.4-.51 39.59-.02 1.11 0 2.22 0 3.69-1.25.07-2.43.18-3.61.18-47.47.01-94.94.05-142.41-.07-4.59-.01-9.18-1.07-13.78-1.61-.53-.06-1.09.02-1.63.09-3.93.52-7.86 1.49-11.79 1.52-18.58.16-37.19.65-55.75-.1-16.33-.66-32.67.48-48.89-.26-14.35-.65-28.58 1.35-42.85.08-1.06-.09-2.1-.41-3.52-.7 2.46-2.57 3.73-8.48 2.11-10.85-.57-.83-3.74-1.14-4.31-.47-1.61 1.89-3.64 4.29-.77 6.92.3.28.45.73.82 1.36-6.73 4.39-13.9 4.68-21.27 2.95-.65-.15-1.22-2.14-1.23-3.27-.05-16.45 0-32.91.04-49.36.05-25.86.11-51.71.16-77.57.06-34.47.09-68.95.16-103.42.05-24.06.17-48.13.26-72.19.01-1.09.01-2.19.01-3.24zm83.53 216.98c.89 1.92 1.8 3.95 2.77 5.96 1.36 2.83 1.04 5.38-1.77 6.95-2.15 1.2-1.98 2.82-.86 4.1 3.07 3.48 5.68 6.94 3.87 11.94-.07.18-.02.52.1.64 2.54 2.51 2.99 5.43 3.09 9.01.06 2.2 1.08 4.02-1.39 5.48 1.76 2.45 3.38 4.71 5.06 7.05 1.31-.91 2.47-1.72 3.6-2.52 2.98 1.82 5.64 4.33 8.74 5.1 2.77.69 6.02-.51 10.22-1.02 3.78 2.23 6.72 1.41 11.47-5.03 3.12-4.24-2.28-5.1-3.53-8.13-2.8 4.31-5.7 2.48-8.42.58-1.73-1.21-3.36-2.63-4.75-4.21-3.04-3.44-5.88-7.04-8.83-10.56-2.22-2.64-5.84-4.64-4.04-9.08.02-.04-.13-.15.33.33-1.9 0-3.29 0-4.69 0 .26-.35.52-.71.79-1.06-.27-1.28-.39-2.62-.84-3.83-.38-1.03-1.15-1.91-1.74-2.86-2.16-3.43-2.01-5.35.7-8.3.91-.99 1.95-1.86 2.81-2.88.48-.56 1.16-1.75.99-1.94-2.29-2.43.35-4.04.87-5.98.51-1.91 1.32-3.8 1.47-5.74.28-3.46-1.78-7.05.56-10.45.14-.21-.18-.89-.45-1.2-1.77-2.03-1.49-3.92-.01-6.02.5-.71.62-1.99.4-2.88-.98-3.91-.13-7.08 3.52-9.27-1.15-.72-2.89-1.3-2.89-1.89-.01-3.68.21-7.38.68-11.03.24-1.87 1.84-3.75 1.61-5.46-.78-5.67-1.1-11.22.62-16.77.2-.64-.02-1.64-.43-2.19-1.24-1.68-1.12-3.11-.01-4.85.62-.99 1.09-3.25.68-3.52-2.35-1.57-1.34-3.44-1.06-5.37.13-.9.09-2.19-.45-2.76-2.63-2.82-4.52-5.48-3.74-9.91.32-1.82-2.43-4.17-3.98-6.6.23-.58.67-1.65 1.18-2.93-1.62-.17-2.93-.31-4.29-.45 0-1.27 0-2.51 0-4.1-3.39 2.41-5.16.1-6.87-1.72-3.73-3.97-6.87-8.62-12.63-10.07-.57-.14-1.26-1-1.36-1.61-.48-2.9-2.18-2.06-4-1.59-1.38.36-3.12.87-4.25.34-3.28-1.52-5.5-.43-7.35 1.94 2.26 4.64 4.47 9.21 6.7 13.8 2.62-2.82 4.17.84 6.16 2.12 2.64 1.7 5.01 4.31 7.43.19 1.13 2.22 2.17 4.26 3.21 6.31.64 1.65.94 4.49 2.07 4.86 2.15.72 4.77.03 7.55-.09-.06.32-.34 1.33-.42 2.35-.12 1.42-.23 2.86-.11 4.27.25 2.95.69 5.87.95 8.82.04.48-.54 1-.61 1.52-.18 1.36-.65 2.88-.26 4.08.69 2.11 3.07 4.25 2.74 6-.81 4.29 1.68 7.53 2.27 11.3.19 1.24-.25 2.6-.46 3.89-.31 1.85-.68 3.7-1.03 5.55-.32 1.74-1.59 3.86-.99 5.08 1.57 3.2.24 3.99-2.82 4.17.74 1.79 1.29 3.36 2.01 4.84 1.54 3.17 2.14 6.73 1.35 9.89-.62 2.44-1.16 4.22 1.04 5.98-3.04 2.6-5.07 5.26-3.13 9.21.2.41.07 1.25-.23 1.6-2.9 3.35-.62 5.97 1.31 8.43 1.82 2.31 1.49 4.4-.2 6.33-1.75 2.03-3.81 3.75-6.03 5.86zm166.7-163.05c-2.17-1.63-3.44-3.43-.67-5.62.25-.2.35-.82.26-1.19-1.01-4.36-1.15-8.4.08-13.03 1.05-3.94-.83-8.76-1.81-13.1-.49-2.18-2.07-2.95-4.28-1.28-3.03 2.3-4.86 10.48-3.12 14.48.31.71.61 1.85.26 2.33-2.54 3.57-.04 7.59-1.09 11.41-.45 1.63-.27 3.44-1.57 4.93-1.59 1.83-3.46 3.55-2.89 6.41.79 3.97-1.79 6.78-3.72 9.7-.41.62-2.17.46-3.31.47-.74.01-1.49-.32-3.13-.72 1.15 1.77 1.63 2.51 2.59 3.97-1.46-.54-2.28-.63-2.79-1.07-1.88-1.63-3.57-3.5-5.51-5.06-4.26-3.42-8.83-.05-13.24-.44-1.05-.09-2.37-.09-3.06-.7-1.97-1.73-3.68-3.75-5.46-5.62-1.54 1.14-2.69 1.99-3.15 2.33-1.83-.12-3.28-.66-3.9-.17-2.15 1.72-.95 6.28 1.62 7.46 2.4 1.1 4.65 2.52 6.97 3.8.47.26.97.69 1.44.66 3.71-.21 7.41-.52 11.13-.8.39.59.76 1.15 1.11 1.72 3.4 5.56 3.39 5.52 10.09 4.28.76-.14 1.74.19 2.45.59 6.06 3.38 11.29 7.32 11.33 15.28 0 1.05 1.62 2.09 2.49 3.13.92-.91 2.42-1.69 2.65-2.75.76-3.58 2.65-6.29 5.19-8.76.78-.75 1.69-2.24 1.43-3.02-.8-2.45-1.3-4.57.67-6.74.47-.51.31-1.74.21-2.61-.32-2.91-.43-5.66 2.9-7.07.31-.13.56-.68.62-1.07.41-2.66-2.06-6.76-4.78-7.79.61-1.31 1.21-2.61 1.99-4.34zm-66.93 85.79c-.25-2.91.04-5.13-.7-6.93-1.42-3.45-3.48-6.62-5.16-9.96-1.05-2.08-1.62-4.44-2.89-6.35-1.9-2.85-4.12-1.8-6.58-.25-2.68 1.7-1.29 3.38-.5 5.1.77 1.7 2.53 3.3 2.52 4.94 0 3.22 1.56 5.18 3.64 7.16 1.86 1.77 3.66 3.63 5.33 5.58.56.66 1.05 1.78.91 2.57-.64 3.57-1.52 7.1-2.28 10.65-.11.5-.18 1.24.09 1.54 2.47 2.74 1.3 5.85 1.11 8.92-.16 2.64-.02 5.3.08 7.95.17 4.53.81 9.08.53 13.58-.41 6.45-1.49 12.86-2.24 19.29-.06.53.12 1.13.32 1.64.99 2.48.06 4.47-1.34 6.5-.76 1.1-1.14 2.51-1.49 3.84-.48 1.83-.34 3.96-1.22 5.53-2.97 5.25-4.7 10.56-2.43 16.5-.58.55-1.05 1.03-1.55 1.47-2.32 2-4.37 4.01-1.66 7.23.38.46.45 1.76.09 2.16-2.4 2.71-.88 4.81 1.15 6.97-3.16 1.61-1.72 3.62-.96 5.75.66 1.87 1.84 3.08 3.62 2.52 1.24-.39 2.45-1.72 3.09-2.93.58-1.09.64-2.65.45-3.93-.82-5.63.22-10.9 2.83-15.87 3.93-7.46 5.1-15.57 4.18-23.69-.55-4.8.51-8.98 1.72-13.31 1.35-4.84 3.09-9.57 4.34-14.43 2.13-8.34.47-17.1 2.55-25.48.07-.27-.1-.67-.29-.91-3.61-4.45-2.36-10.1-3.43-15.14-.78-3.55-.34-7.1-3.83-8.21zm90.58 94.49c-3.44.47-3.89-1.79-3.87-3.98.03-4.47.37-8.93.54-13.4.04-.97.31-2.39-.21-2.86-2.35-2.13-1.31-4.37-.73-6.75.45-1.83.73-3.73.77-5.61.06-2.57-.17-5.14-.31-8.45-.94.19-2.9-.02-3.76.85-4.23 4.28-8.17 8.85-12.26 13.38 2.75 3.81 5.66 7.26 7.91 11.1 2.31 3.95 4.09 8.57 2.3 13-1.43 3.53-1.33 6.13.57 9.3 2.51 4.18 1.97 5.58-1.98 8.3-.79.55-1.54 1.17-2.3 1.74.87 1.5 1.59 2.72 2.39 4.09-2.53 1.16-4.2 2.52-4.18 5.56.02 2.21-2.46 3.08-4.73 2.19-.69-.27-1.51-.24-2.36-.35.24 1.65.41 2.82.67 4.63-1.62-1.06-3.16-2.3-3.32-2.14-1.56 1.55-3.06 3.23-4.18 5.11-.41.68-.1 2.39.51 2.97 2.46 2.36 11.87 2.92 13.92.26 2.62-3.4 5.26-6.39 9.29-8 .18-.07.34-.3.44-.5 1.08-2.19 1.95-4.51 3.29-6.53 1.1-1.65 1.74-2.85.33-4.71-.71-.94-.82-2.52-.81-3.8.03-2.77 1.06-5.76.29-8.23-.92-2.92-.67-4.88 1.78-7.17zm-200.8-196.72c2.77 1.24 5.31 1.84 7.1 3.33 2.1 1.74 3.62 4.21 5.28 6.45 3.44 4.65 7.9 7.09 13.78 6.8 2.28-.11 4.57-.02 7.18-.02-.8 1.12-1.34 1.88-1.88 2.64.19.34.38.69.58 1.03 2.75-1.19 5.49-2.38 8.56-3.71-.47 1.2-.8 2.04-1.14 2.89 5.69 1.84 6.25-3.03 8.51-5.93-1.39-1.95-2.73-3.83-4.22-5.92-2.49 2.53-4.37 1.46-6.18-.65-2.62-3.05-5.88-4.95-9.92-5.74-1.24-.24-2.23-1.75-3.62-2.91-2.47 2.35-3.79-1.18-5.95-2.4-2 2.71-4.16 1.67-6.67.48-4.02-1.9-5.81-6.97-10.82-7.4-.27-.02-.28-1.29-.7-1.68-.75-.7-1.89-1.8-2.57-1.62-3.52.93-6.96 2.21-10.74 3.48 3.1 5.74 4.52 13.03 13.81 8.94-.28 1.39-.43 2.14-.39 1.94zm-20.18 229.17c-2.76 4.88 1.34 7.34 5.23 9.77-3.08 4.04-1.83 8.6 2.55 10.66.97.46 1.47 1.85 2.42 2.43 1.35.82 2.91 1.76 4.4 1.78 1.77.02 3.56-.87 5.34-1.37 7.97-6.07 4.46-12.43-.76-18.67-.91.43-1.91.91-3.26 1.55.85-4.41-1.2-8.07-5.2-9.68-2.47-1-5.16-1.48-7.62-2.5-2.28-.95-4.27-.41-5.13 1.49-.42.88 1.14 2.67 2.03 4.54zm88.66-43.65c.31-.01.62-.02.93-.04.14-2.27.54-4.55.37-6.79-.2-2.66-1.19-4.99-4.61-4.78-.28.02-.8-.23-.84-.43-.73-3.76-4.46-4.32-6.82-6.27-2.83-2.32-5.68-5.15-10.01-3.87-.16.05-.47-.41-.81-.71.44-.94.88-1.88 1.5-3.22-2.64.4-4.84.73-7.53 1.13-.57.66-2.05 1.8-2.7 3.31-.52 1.22-.48 3.07.1 4.27.8 1.66 2.33 2.96 3.49 4.35 3.26 2.49 6.55 5.01 9.91 7.58.84-1.18 1.57-2.22 2.57-3.63.44.95.95 1.51.88 1.98-.7 4.33.06 5.32 4.25 6.66 2.81.9 5.44 2.39 8.19 3.49.83.33 1.82.25 3.42.44-1.09-1.66-1.69-2.56-2.29-3.47zm153.57-92.69c.66 3.01-.47 7.38-3.41 10.71-.75.85-1.26 2.24-1.26 3.37 0 2.31.43 4.63.67 6.78 6.88 1.15 7.34-4.27 9.14-8.32-.77-1.02-1.56-2.08-1.92-2.55 1.54-3.88 3.91-7.23 4.03-10.66.28-7.82 3.42-13.85 8.89-19.04.97-.92 1.83-1.98 2.56-3.09.45-.68.88-1.65.75-2.39-.42-2.36-1.1-4.68-1.9-7.87-4.12 3.81-7.74 7.06-11.21 10.48-.54.53-.7 1.9-.44 2.69.78 2.45-.22 4.11-1.58 6.07-1.45 2.09-2.4 4.62-3.17 7.08-.67 2.16-.79 4.49-1.15 6.74zm-52.73-12.95c-1.94-2.71.2-7.15-3.4-7.94-4.94 6.23-9.66 12.19-14.67 18.51.73 1.51 2.54 2.44 5.15 2.73 1.85.21 3.83 1.09 5.33 2.23 3.23 2.47 5.23 2.36 7.27-1.02 1.54.88 3.06 1.81 4.65 2.62 2.72 1.38 4.52-.63 5.97-2.2 1.55-1.68.54-3.41-1.11-4.87-2.79-2.47-5.42-5.12-7.95-7.54.8-1.81 1.37-3.13 1.95-4.45-.18-.09-.37-.18-.55-.27-.77.63-1.52 1.26-2.64 2.2zm-8.63 98.08c-1.69-2.7-4.24-5.1-4.62-7.79-.5-3.6-.16-7.43 2.54-10.87 3.45-4.4 2.55-6.41-2.71-8.72-4.29 3.29-5.96 10.49-3.62 16.5-5.4 3.16-2.37 9.1-4.15 13.64-.3.77.48 2.16 1.09 3.05 1.25 1.84 2.78 3.48 4.07 5.29 1.16 1.63 2.52 1.42 3.66.32 1.4-1.36 3.11-2.84 3.6-4.58.6-2.21.14-4.73.14-6.84zm-193.1-79.34c-.98-.69-1.95-1.4-2.94-2.07-.88-.59-1.82-1.1-2.67-1.72-1.23-.9-2.4-1.88-4.19-3.29-.69-.15-2.33-.55-3.99-.86-.81-.15-1.99-.52-2.43-.14-3.07 2.71-5.41 6.82-1.53 10.94.74.79 1.81 1.79 1.78 2.67-.06 2.27 1.34 2.89 2.91 3.9 2.56 1.67 4.88 1 7.55.47 7.15-1.43 8.59-3.64 5.51-9.9zm259.32 40.81c-1.04 3.1-1.89 5.49-2.62 7.92-.21.69-.32 1.59-.05 2.23 1.68 4.04 3.48 8.04 5.27 12.12 4.62-1.07 5.4-2.68 3.21-7.22-.47-.98-1.29-2.29-.99-3.07 2.1-5.41-2.29-7.87-4.82-11.98zm-259.96-113.23c-.24-.17-.48-.33-.71-.5-2.24 1.46-4.24 1.72-6.26-.26-.48-.47-2.33-.3-2.93.25-1.49 1.37-2.62 3.14-4.15 5.06 4.32 1.34 8.08 2.5 12.4 3.83.63-3.2 1.14-5.79 1.65-8.38zm185.26 179.81c.03 3.43 2.72 7.26 4.44 6.37 1.57-.82 3.11-2.9 3.41-4.65.49-2.83-2.48-6.28-4.61-5.98-2.54.36-3.42 2.19-3.24 4.26zm-137.57 36.75c-2.21-.15-5.01 2.06-4.29 3.96.7 1.85 2.58 3.91 4.37 4.45.99.3 3.34-2.06 4.2-3.69.8-1.49-2.32-4.58-4.28-4.72zm180.01-221.69c-1.6 0-3.17-.48-4.01.1-1.98 1.37-3.69 3.18-5.3 4.99-.22.25.7 2.22 1.19 2.26 2.66.23 5.36.11 8.04.11-3.36-2.5-.21-4.62.08-7.46zm-234.81-22.24c1.42 1.75 2.38 2.94 3.34 4.12.86-1.44 1.71-2.88 2.57-4.32-.26-.27-.53-.54-.79-.81-1.25.25-2.5.5-5.12 1.01zm9.3 17.69c1.83-.86 3.58-1.68 5.32-2.51-.84-2.52-2.14-2.7-3.74-1.28-1.05.94-3.83 1.23-1.58 3.79zm170.37 72.28c-.48.25-.95.51-1.43.76.45 1.42.65 3.01 1.45 4.2.37.55 1.9.32 2.91.44.13-.31.27-.61.4-.92-1.11-1.5-2.22-2.99-3.33-4.48zm-138.19 110.38c-2.09-1.7-3.65-2.97-5.54-4.51v5.6c1.83-.37 3.39-.67 5.54-1.09zm-33.53-154.98c2.52 1.52 4.46-.23 6.94-.5-.84-1.17-1.45-2.01-1.82-2.53-1.66.98-3.08 1.82-5.12 3.03zm26.92-68.37c.26 0 .51 0 .77-.01-.08-1.5-.15-3-.23-4.5-1.06.09-2.12.18-3.48.29 1.31 1.89 2.13 3.05 2.94 4.22zm250.07-.84c-.36 0-.71.01-1.07.01v7.71c.36 0 .71-.01 1.07-.01 0-2.56 0-5.14 0-7.71zm-286.93 31.73c1.29-.64 2.44-1.21 3.73-1.85-1.53-2.73-3.07-1.93-4.83-.48.36.76.67 1.42 1.1 2.33z" fill="#010105"/></svg>