<svg enable-background="new 0 0 400 400" viewBox="0 0 400 400" xmlns="http://www.w3.org/2000/svg"><path d="m129.1 248.41c-6.45-3.63-12.58-7.04-18.68-10.52-11.63-6.64-21.3-15.12-26.51-27.9-3.33-8.17-3.65-16.71-3.78-25.37-.23-15.34 4.09-29.83 7.79-44.45 4.25-16.79 8.47-33.59 12.84-50.34 1.24-4.75 3.13-9.32 4.47-14.04 1.86-6.54 3.85-13.08 5.05-19.76.58-3.25-.34-6.83-.88-10.21-.38-2.41-1.51-4.7-1.87-7.11-.88-5.87 4.79-13.45 10.01-13.67 7.15-.29 13.65 6.08 13.89 13.6.19 5.92.46 11.84.58 17.76.09 4.45 2.23 7.13 6.58 7.83 8.15 1.31 16.34 2.4 24.48 3.76 3.39.56 6.89 1.12 10.01 2.46 5.2 2.23 7.15 8.25 4.73 13.35-.38.79-1.32 1.42-2.14 1.87-7.1 3.94-14.68 2.86-22.29 2.24-8.35-.68-16.73-1.05-25.11-1.38-1.01-.04-2.76.82-2.97 1.58-2 7.31-3.73 14.7-5.65 22.48 6.63 1.59 12.99 3.11 19.35 4.64 14.45 3.47 28.92 6.88 43.34 10.48 2.39.6 3.84.2 4.73-2.04 1.23-3.09 2.85-6.11 3.55-9.32.83-3.84 2.98-5.85 6.53-6.76 1.19-.3 2.39-.57 3.61-.73 6.21-.79 10.13 3.48 8.88 9.77-.32 1.63-.85 3.26-1.58 4.75-6.48 13.28-7.98 27.6-8.81 42.05-.69 11.93-.49 23.95-3.91 35.59-2.23 7.59-2.41 7.9-10.58 11.4-1.86-3.89-3.87-7.79-5.6-11.8-1.36-3.17-2.26-6.54-3.64-9.7-.41-.94-1.64-1.91-2.65-2.13-15.62-3.33-31.21-6.78-46.91-9.66-7.56-1.39-15.33-1.58-23-2.42-2.26-.25-3.2.73-3.77 2.74-1.4 4.95-1.07 9.73 1.04 14.4 2.12 4.68 3.61 9.83 6.57 13.9 3.15 4.33 7.46 7.93 11.69 11.33 17.58 14.15 36.78 13.29 56.74 5.93 9.78-3.61 18.35-9.08 26.5-15.42 4.2-3.27 9.13-4.98 14.85-5.2 0 3.79.14 7.36-.09 10.91-.07 1.03-1.05 2.14-1.87 2.96-8.84 8.93-19.7 15.03-30.25 21.57-1.79 1.11-3.59 2.2-6.1 3.75 5.54 2.75 10.51 5.11 15.38 7.67 5.03 2.64 10.23 5.07 14.87 8.3 10.17 7.08 13.48 17.5 12.54 29.36-.62 7.79-2.29 15.49-2.81 23.28-.76 11.37 1.4 22.48 4.06 33.51 2.25 9.32 1.93 18.62-.8 27.85-.5 1.68-1.08 3-3.09 2.68-2.24-.35-4.72 1.84-6.66-1.66-6.53-11.82-9.62-24.6-10.39-37.85-.9-15.51-1.14-31.07-1.27-46.62-.06-7.15-3.34-12.21-9.26-15.07-8.33-4.03-16.94-7.63-25.73-10.48-4.42-1.43-9.5-.93-14.29-1.02-.92-.02-2.1 1.11-2.76 2.01-6.35 8.52-12.68 17.06-18.89 25.68-5.31 7.38-11.22 13.97-20.27 16.8-5.87 1.84-6.51 1.43-7.84-4.58-1.29-5.78.12-11.1 2.63-16.22 5.54-11.3 12.24-21.84 20.72-31.19 1.58-1.72 2.99-3.57 4.69-5.62zm51.72-102.87c-.69-.3-1.07-.53-1.49-.64-15.48-3.87-30.96-7.75-46.45-11.57-.95-.23-2.01-.23-2.98-.08-6.07.92-12.11 2.08-18.2 2.81-3.66.43-3.75 3.29-3.98 5.57-.16 1.54.81 4.13 2.02 4.72 5.3 2.58 10.7 5.6 16.39 6.63 14.3 2.58 28.53 5.16 42.16 10.41 2.27.87 5.02.7 7.55.65 2.09-.04 3.34-1.18 3.5-3.6.32-4.89.95-9.77 1.48-14.9z" fill="#010102"/><path d="m250.19 141.26c9.9 0 19.27.01 28.65 0 2.91 0 5.84-.27 8.72-.01 3.22.29 4.66-1.37 5.56-4.05 1.86-5.49 1.17-11.03.52-16.6-.99-8.53-4.72-16.02-8.73-23.4-2.75-5.08-2.24-9.98 1.1-14.43 3.01-4.02 8.65-5.22 14.06-3.21 1.29.48 2.61 1.7 3.27 2.92 6.27 11.59 9.31 24.18 10.52 37.16 1.82 19.54 2.19 39.12-1.11 58.55-1.1 6.46-2.93 12.89-5.23 19.03-1.11 2.96-3.94 5.35-6.26 7.75-4.59 4.73-9.14 9.55-14.11 13.86-9.59 8.3-24.9 7.63-34.99-1.55-1.41-1.28-2.56-2.87-4.07-4-11.24-8.37-15.03-20.76-17.8-33.51-4.87-22.43-4.53-45.03-1.86-67.75 1.03-8.74.8-17.65.9-26.48.03-2.64.71-4.49 3.07-5.67.49-.25.99-.57 1.36-.98 4.26-4.66 8.96-3.16 13.62-.89 2.86 1.39 4.57 3.36 4.36 7.08-.87 15.41-1.47 30.83-2.04 46.25-.11 3.32.32 6.67.49 9.93zm29.63 18.01c-3.07.29-6.01.33-8.85.87-6.22 1.19-12.42 2.54-18.56 4.07-.89.22-2.09 1.85-2.04 2.76.67 11.51 3.37 22.34 11.52 31.06.99 1.06 2.47 1.94 3.87 2.3 8.61 2.21 20.35-3.61 23.56-11.89 2.21-5.72 4.02-11.61 5.69-17.51.68-2.42.71-5.08.64-7.62-.03-.86-1.2-2.31-2.01-2.43-4.64-.72-9.32-1.12-13.82-1.61z" fill="#010102"/><g fill="#fafbfa"><path d="m6.4 11.7c-1-.8-1.9-1.6-2.9-2.3l.6-.7c.9.7 1.9 1.4 2.9 2.2zm-2.1 8.3c.7-2.1 1.4-4.2 2-6.4.2.1.6.3 1 .4-.7 2.3-1.3 4.4-1.9 6.4zm3-12.8c-1.1-.9-2.1-1.7-2.9-2.4l.6-.7c1 .8 2 1.5 3 2.4zm1.4-1.3v-.9h10.2v.9c-.9 4.2-2.3 7.3-4.1 9.4 1.3 1.4 3.2 2.7 5.7 4-.2.2-.4.5-.7.9-2.5-1.4-4.4-2.7-5.7-4.2-1.4 1.5-3.5 3-6.1 4.4 0 0 0 0-.1-.1-.3-.4-.5-.7-.7-.8 2.7-1.3 4.7-2.8 6.2-4.2-1.8-2.2-3-5.3-3.7-9.4zm9.2 0h-7.1c.6 3.8 1.7 6.7 3.4 8.7 1.7-2 2.9-4.8 3.7-8.7z"/><path d="m31.6 3.6h.9v2.3h4.1v9.1h1.7v.9h-16.6v-.9h1.7v-9.1h4.1v-2.3h.9v2.3h3.1v-2.3zm-4 13.3.6.8c-1.9.9-3.8 1.9-5.8 2.8-.2-.3-.3-.6-.5-.9 2-.9 3.9-1.8 5.7-2.7zm-3.2-10.1v3.7h3.1v-3.7zm0 4.5v3.7h3.1v-3.7zm4.1-4.5v3.7h3.1v-3.7zm0 4.5v3.7h3.1v-3.7zm9.1 9.1c-2.1-1.1-4.1-2-5.8-2.7l.5-.8c2.2.9 4.1 1.8 5.8 2.6zm-1.9-13.6h-3.1v3.7h3.1zm-3.2 4.5v3.7h3.1v-3.7z"/></g></svg>