<svg enable-background="new 0 0 400 400" viewBox="0 0 400 400" xmlns="http://www.w3.org/2000/svg"><g fill="#010102"><path d="m52.9 321.74c9.69 1.64 18.91 3.2 28.42 4.81.32-1.26.6-2.42.91-3.57 1.37-5.16 2.58-10.37 4.17-15.46 2.64-8.47 1.8-17.05 1.19-25.65-.31-4.35-.84-8.7-1.01-13.06-.08-2.12-.9-3.07-2.81-3.87-15.8-6.65-26.91-23.72-26.19-40.69.14-3.34 1.78-6.6 2.71-9.91 2.54-9.01 7.45-16.34 15.15-21.77 1.54-1.09 2.69-2.76 4.28-3.77 8.92-5.66 9.47-14.45 8.26-23.41-.72-5.33-2.78-10.54-4.69-15.63-3.22-8.57-6.92-16.96-10.14-25.54-.86-2.29-1.95-3.36-4.31-3.8-8.1-1.49-9.83-3.87-8.63-12.17.9-6.26 2.97-12.08 7.05-17.14 11.09-13.78 21.91-27.77 33.12-41.45 3.3-4.03 4.72-8.23 4.36-13.25-.31-4.32 1.24-7.84 4.65-10.87.34.38.67.64.87.98 11.68 20.11 26.5 37.96 40.48 56.41 6.1 8.05 11.75 16.41 13.81 26.56.56 2.79.52 5.71.79 9.08-3.13 0-5.91.61-8.23-.17-2.3-.77-4.13-2.94-6.77-4.96-.41 3.42-.96 6.3-1.06 9.2-.67 18.7 1.53 37.06 6.77 55.05.99 3.4 2.73 5.8 6.13 7.36 5.68 2.6 11.11 5.76 16.69 8.59 6.6 3.35 10.37 8.34 9.76 16.06-.1 1.22-.11 2.47 0 3.69 1.04 11.21-2.7 21.37-6.98 31.38-.44 1.02-1.52 1.9-2.51 2.52-6.85 4.23-13.73 8.42-20.66 12.52-1.58.93-2.03 1.85-1.71 3.73 2.93 17.43 5.7 34.88 8.63 52.31.2 1.19 1.19 3.02 2.01 3.13 1.16.16 2.81-.7 3.71-1.64 3.3-3.43 9.63-4.29 13.52-1.39.68.5 1.18 1.91 1.02 2.76-.94 5.06-2.05 10.08-3.22 15.09-.21.91-.84 1.8-1.48 2.52-8.81 9.83-17.63 19.64-26.49 29.42-10.65 11.75-21.37 13.15-34.46 4.17-10.95-7.51-22.87-13.06-34.95-18.41-6.41-2.84-12.79-5.95-18.66-9.74-6.99-4.49-11.73-10.97-13.5-20.02zm100.59-94.49c.34.09.69.17 1.03.26-.53-6-1.42-12-1.47-18.01-.05-5.66-3.26-8.27-7.86-9.87-2.18-.76-4.56-1.12-6.87-1.25-6.36-.36-12.76-.17-19.09-.78-14.61-1.41-27.17 2.49-37.22 13.45-.75.82-1.52 2.06-1.5 3.09.18 8.96 1.67 17.66 7.2 25.03 2.44 3.26 5.01 7.31 8.46 8.78 16.93 7.22 33.46 6.56 48.97-4.41 5.6-3.96 10.65-8.02 8.35-16.29zm-44.96-163.63c-5.77 7.51-10.87 14.74-16.62 21.41-4.22 4.89-6.12 9.83-4.99 16.33.55 3.14 1.59 4.3 4.51 4.2 12.91-.41 25.09-3.67 36.66-9.34 1.96-.96 2.55-2.27 1.56-4.31-5.17-10.67-12.63-19.6-21.12-28.29zm-9.54 83.41c10.85-1.82 21.18-3.49 31.48-5.38.83-.15 1.94-1.82 1.96-2.81.1-4.9.12-9.82-.34-14.69-.22-2.33-1.35-4.66-2.47-6.78-1.22-2.31-3.13-2.96-5.89-2-7.04 2.46-14.2 4.6-21.32 6.86-2.18.7-4.37 1.39-6.58 2.1 1.07 7.72 2.09 14.99 3.16 22.7zm3.88 176.4c15.07-.59 29.74-1.16 44.76-1.75-.28-2.22-.5-4-.81-6.41-1.21 1.38-1.83 2.37-2.7 2.97-.66.45-1.83.78-2.48.5-2.44-1.06-4.75-2.39-7.06-3.59 1.43-4.26 2.29-4.74 6.15-3.96 1.92.39 3.87.63 5.91.95-.66-6.93-1.73-8.36-7.77-10.12-2.85-.83-6.01-2.4-8.64-1.83-8.07 1.73-15.95 4.3-23.88 6.66-.75.22-1.73 1.15-1.82 1.85-.65 4.73-1.1 9.5-1.66 14.73zm5.57-142.81c7.59-.88 14.58-1.63 21.55-2.55.88-.12 2.28-1 2.37-1.67.56-4.41 1.17-8.87 1.09-13.3-.06-3.68-3.65-6.09-7.07-5.08-6.82 2.02-13.59 4.25-20.73 6.51.93 5.39 1.84 10.61 2.79 16.09zm20.61 94.32c.39-.15.78-.29 1.17-.44 2.58 2.68 5.15 5.35 8.18 8.49.42-.47 1.62-1.21 1.92-2.22 1.11-3.72.61-7.35-1.77-10.48-1.5-1.98-3.3-3.49-6.25-2.8-7.27 1.69-14.6 3.14-21.88 4.81-.75.17-1.78 1.07-1.88 1.75-.36 2.42-.63 4.91-.44 7.33.17 2.12.47 4.89 3.41 4.9 4.11.01 8.23-.43 12.33-.85 1.83-.19 2.66-1.23 2.9-3.35.26-2.43 1.5-4.76 2.31-7.14zm-9.8 70.6c6.05 9.44 15.76 10.73 23.38 3.22 2.93-2.89 2.22-6.26-1.91-7.39-7.55-2.07-15.21-3.89-21.14 3.7-.07.09-.12.18-.33.47z"/><path d="m198.55 359.89c-1.2-4.2-.62-7.86.97-11.2 11.58-24.44 18-50.72 27.22-75.99.29-.81.65-1.86.37-2.56-2.85-7.33-1.92-14.93-.86-22.26 2.25-15.68-.96-30.61-4.37-45.69-1.95-8.61-6.34-15.99-10.45-23.46-5.8-10.55-9.54-21.42-8.71-33.57.77-11.32 2.44-22.46 7.17-32.91.77-1.7 1.77-3.37 2.97-4.78 4.93-5.8 10.01-11.46 14.95-17.25 1.46-1.71 2.74-3.03 5.32-2.14 2.68.93 5.23 2.03 5.58 5.09.52 4.7.35 8.97-3.94 12.68-9.1 7.86-13.86 18.2-14.78 30.22-.09 1.15.37 3.25.9 3.36 1.56.33 3.63.42 4.89-.37 4.61-2.89 9.23-5.49 14.89-5.33 5.72.16 10.95 4.97 11.32 10.67.06.94-.66 2.31-1.45 2.86-3.49 2.4-7.38 3.51-11.69 3.42-6.35-.13-12.84 5.86-13.27 12.14-.05.72.58 1.62 1.12 2.24 4.05 4.63 8.03 9.34 12.29 13.78 4.19 4.36 9.53 6.96 15.28 8.69 4.22 1.27 7.82 3.26 9.49 7.71 1.49 3.99 1.06 5.2-2.99 6.22-2.47.62-5.06.8-7.6 1.01-2.56.2-5.16-.04-7.69.31-5.27.73-5.92 1.75-5.45 6.9 1.16 12.7 3.06 25.4 3.15 38.11.07 9.74-1.26 19.71-3.6 29.18-3.52 14.29-8.46 28.24-12.82 42.33-.23.74-.57 1.46-.97 2.13-5.07 8.67-10.17 17.32-15.25 25.99-2.92 4.96-6.49 9.31-11.99 12.47z"/><path d="m308.51 178.09c11.31 7.73 22.14 15.12 32.94 22.5-3.32 5.13-9.87 7.5-15.82 6.14-7.39-1.69-14.24-4.59-20.12-9.5-1.02-.85-2.1-1.65-3.51-2.75-2.7 4.94-3.39 10.01-2.91 15.26.66 7.12 1.61 14.21 2.16 21.33.16 2.03-.27 4.29-1.05 6.19-2.64 6.44-3.06 13.19-3.61 20-1.52 18.93-5.01 37.41-13.2 54.78-3.48 7.37-6.25 15.07-9.73 22.44-1.79 3.8-4.15 7.41-6.76 10.71-1.44 1.83-3.91 2.85-5.92 4.23-.26-.26-.53-.52-.79-.78.58-2.23 1.04-4.5 1.76-6.68 4.86-14.75 9.81-29.46 14.62-44.22.89-2.73 1.77-5.64 1.71-8.45-.32-16.39 3.53-32.21 6.5-48.11 2.22-11.84 1.88-23.55.83-35.41-1.64-18.61-3.05-37.25-4.4-55.89-.13-1.85.44-4.02 1.39-5.62 4.46-7.53 8.19-15.34 10.79-23.74 1.03-3.33 3.42-6.23 5.08-9.38 1.13-2.16 2.63-2.3 4.7-1.47 7.93 3.18 9.83 14.73 4.63 19.6-6.23 5.83-10.85 12.99-10.32 22.09.41 7.15-.39 7.24 7.09 7.55 5.07.21 10.26-1.55 15.34-2.7 2.71-.61 5.23-2.02 7.93-2.65 4.71-1.11 6.54.83 5.6 5.62-.65 3.3-2.05 5.83-5.33 7.55-6.41 3.36-12.57 7.23-19.6 11.36z"/><path d="m115.49 235.42c-3.17-.52-6.36-.93-9.49-1.63-.77-.17-1.85-1.21-1.92-1.93-.26-2.92-.42-5.91-.09-8.81.11-.93 1.75-2.19 2.86-2.4 4.6-.87 9.28-1.25 13.89-2.07 5.34-.95 10.15.93 14.89 2.75 1.42.54 2.65 2.66 3.07 4.28.2.8-1.45 2.45-2.61 3.17-6.27 3.89-13.12 6.03-20.6 6.64z"/></g><path d="m6.4 11.7c-1-.8-1.9-1.6-2.9-2.3l.6-.7c.9.7 1.9 1.4 2.9 2.2zm-2.1 8.3c.7-2.1 1.4-4.2 2-6.4.2.1.6.3 1 .4-.7 2.3-1.3 4.4-1.9 6.4zm3-12.8c-1.1-.9-2.1-1.7-2.9-2.4l.6-.7c1 .8 2 1.5 3 2.4zm1.4-1.3v-.9h10.2v.9c-.9 4.2-2.3 7.3-4.1 9.4 1.3 1.4 3.2 2.7 5.7 4-.2.2-.4.5-.7.9-2.5-1.4-4.4-2.7-5.7-4.2-1.4 1.5-3.5 3-6.1 4.4 0 0 0 0-.1-.1-.3-.4-.5-.7-.7-.8 2.7-1.3 4.7-2.8 6.2-4.2-1.8-2.2-3-5.3-3.7-9.4zm9.2 0h-7.1c.6 3.8 1.7 6.7 3.4 8.7 1.7-2 2.9-4.8 3.7-8.7z" fill="#fafbfa"/><path d="m31.6 3.6h.9v2.3h4.1v9.1h1.7v.9h-16.6v-.9h1.7v-9.1h4.1v-2.3h.9v2.3h3.1v-2.3zm-4 13.3.6.8c-1.9.9-3.8 1.9-5.8 2.8-.2-.3-.3-.6-.5-.9 2-.9 3.9-1.8 5.7-2.7zm-3.2-10.1v3.7h3.1v-3.7zm0 4.5v3.7h3.1v-3.7zm4.1-4.5v3.7h3.1v-3.7zm0 4.5v3.7h3.1v-3.7zm9.1 9.1c-2.1-1.1-4.1-2-5.8-2.7l.5-.8c2.2.9 4.1 1.8 5.8 2.6zm-1.9-13.6h-3.1v3.7h3.1zm-3.2 4.5v3.7h3.1v-3.7z" fill="#fafbfa"/></svg>