<svg enable-background="new 0 0 400 400" viewBox="0 0 400 400" xmlns="http://www.w3.org/2000/svg"><g fill="#fafafb"><path d="m12.4 4.8-6.1 9h6v1.2h-8v-.5l6.1-8.9h-5.7v-1.2h7.6v.4z"/><path d="m14 15v-10.6h3c1.6 0 2.9.5 4 1.4s1.6 2.2 1.6 3.8-.5 3-1.6 3.9-2.4 1.5-4 1.5zm1.4-9.4v8.2h1.6c1.3 0 2.4-.4 3.1-1.1s1.1-1.8 1.1-3.1-.4-2.3-1.2-3-1.8-1-3.1-1z"/><path d="m26.1 4.4v10.6h-1.4v-10.6z"/><path d="m36.1 14.6c-.8.4-1.8.6-2.9.6-1.5 0-2.7-.5-3.6-1.4s-1.4-2.2-1.4-3.8c0-1.7.5-3.1 1.5-4.1s2.3-1.6 3.9-1.6c1 0 1.8.1 2.5.4v1.4c-.8-.4-1.6-.6-2.5-.6-1.2 0-2.1.4-2.9 1.2s-1.1 1.8-1.1 3.2c0 1.3.3 2.3 1 3s1.6 1.1 2.7 1.1c1 0 2-.2 2.7-.7v1.3z"/><path d="m37.6 14.3c0-.2.1-.5.3-.6s.4-.3.6-.3c.3 0 .5.1.6.3s.3.4.3.6-.1.4-.3.6-.4.3-.6.3c-.3 0-.5-.1-.6-.3s-.3-.4-.3-.6z"/><path d="m50.2 15h-1.6l-5.3-8.2c-.2-.2-.3-.5-.4-.7 0 .2.1.7.1 1.5v7.4h-1.4v-10.6h1.7l5.2 8.1c.2.4.4.6.4.7 0-.3-.1-.8-.1-1.5v-7.3h1.4z"/><path d="m58.6 15h-5.7v-10.6h5.5v1.2h-4.1v3.4h3.8v1.2h-3.8v3.6h4.3z"/><path d="m67.1 5.6h-3.1v9.4h-1.4v-9.4h-3v-1.2h7.5z"/></g><path d="m243.17 192.32c1.76 3.45 1.14 5.89-1.8 8.51-9.78 8.7-19.25 17.76-28.91 26.6-1.43 1.31-1.67 2.41-1.19 4.32 2.11 8.35 5.82 15.73 11.02 22.68 10.93 14.6 21.32 29.6 31.92 44.44.58.81 1.12 1.65 2.07 3.05-3.67.37-6.92.89-10.16.91-.89 0-1.88-1.41-2.65-2.32-9.15-10.73-18.14-21.6-27.47-32.18-3.83-4.34-8.33-8.11-12.63-12.02-.53-.48-1.88-.64-2.55-.32-5.04 2.46-9.16 5.49-11.91 10.99-6.14 12.27-13.04 24.19-20.07 35.99-3.13 5.25-7.87 9.14-14.34 10.85-2.38-3.24-2.8-6.84-.95-10.28 2.48-4.61 5.18-9.15 8.3-13.34 11.17-14.99 19.18-31.43 23.65-49.58.16-.65.22-1.32.28-1.99 1.07-11.06.43-12.33-9.66-16.68-6.77-2.92-13.75-5.35-20.51-8.29-3.67-1.59-7.34-3.43-10.51-5.83-2.84-2.15-5-5.2-7.46-7.85.22-.51.45-1.02.67-1.52 4.1.28 8.31.06 12.27.95 5.87 1.31 11.52 3.54 17.34 5.11 5.04 1.36 10.17 2.46 15.3 3.45 2.38.46 3.75-.56 4.29-3.32 1.43-7.28 1.69-7.39-4.69-11.46-4.7-3-9.75-5.45-14.51-8.36-11.32-6.92-17.47-17.18-14.27-30.74 1.1-4.66 1.39-9.51 2.24-14.23.24-1.32.92-2.73 1.81-3.74 7.06-7.95 14.22-15.82 21.34-23.71.14-.15.19-.39.27-.57-4.11-3.75-8.38-7.34-12.3-11.27-7.76-7.8-12.02-17.01-11.41-28.33.59-10.95.65-21.92 1.05-32.88.23-6.29.47-6.46 7.07-8.43 1.76 7.13 3.69 14.21 5.18 21.38.66 3.19 1.64 4.35 5.2 4.04 7.9-.68 15.86-.83 23.79-.93 2.35-.03 3.44-1.08 4.3-2.91 1.78-3.79 1.1-7.61.36-11.5-.97-5.12-1.72-10.29-2.57-15.49 8.96-.59 15.78 4.71 16.8 13.24 1.79 14.97 1.32 29.93-1.59 44.76-.31 1.6-1.02 3.19-1.85 4.61-4.52 7.72-9.13 15.39-13.88 23.38.89.5 1.68 1.03 2.53 1.43 6.98 3.28 14.04 6.39 20.92 9.88 1.94.98 4.11 2.73 4.86 4.64 3.07 7.77 5.69 15.72 8.3 23.67.37 1.12 0 2.66-.44 3.86-3 8.06-6.06 16.11-9.26 24.09-.53 1.31-1.69 2.6-2.9 3.36-4.44 2.81-9.07 5.31-13.54 8.08-5.03 3.12-6.98 10.81-4.22 16.05.96 1.82 7.41 2.28 9.47.75 5.21-3.86 10.34-7.84 15.72-11.45 3.54-2.4 7.47-4.09 11.88-3.55zm-57.5-97.41c2.62-1.07 5.56-1.7 7.79-3.31 3.23-2.33 6-5.32 8.88-8.11 3.07-2.97 2.97-6.82 2.6-10.63-.24-2.41-1.78-3.78-4.21-4.05-9.07-1.01-18.1-2.18-26.59 2.94-2.03 1.22-3.26 2.43-3.81 4.6-2.11 8.45 5.67 17.7 15.34 18.56zm-2.44 34.83c-5.22 4.31-9.62 7.9-13.96 11.58-.62.53-1.09 1.42-1.3 2.24-1.47 5.57-1.44 11.12 1.18 16.34 2.05 4.08 4.42 8 6.77 11.93.47.78 1.37 1.68 2.19 1.81 3.48.56 7 .85 10.96 1.29-.21-12.62.21-24.8-2.34-36.78-.59-2.73-2.16-5.24-3.5-8.41zm19.93-.15c-2.8 16.16-4.81 31.3 1.86 46.66 4.84-3.73 9.04-6.89 13.11-10.2.74-.6 1.23-1.82 1.34-2.81.66-6.12 1.1-12.26 1.77-18.37.39-3.52-.78-6.32-3.75-8-4.43-2.5-9.07-4.63-14.33-7.28z" fill="#010105"/><path d="m156.43 373.66c0-2.37 0-4.36 0-6.6 10.3-2.3 20.52-4.63 30.75-6.86 8.39-1.83 8.79-1.85 7.42-10.51-1.97-12.43.38-24.48 2.24-36.61.56-3.64 1.14-7.28 1.83-11.74.83 1.57 1.35 2.45 1.78 3.37 3.8 8.21 7.26 16.61 11.49 24.59 3.72 7.02 3.95 14.56 4.76 22.07.56 5.17.44 5.4 5.68 5.57s10.5-.21 15.75-.23c3.34-.01 6.1 1.15 7.69 4.38.9 1.82.67 2.97-1.3 4.01-8.41 4.47-17.46 6.96-26.78 8.28-19.22 2.72-38.51 3.64-57.83.92-1.1-.15-2.18-.39-3.48-.64z" fill="#010105"/></svg>