<svg enable-background="new 0 0 400 400" viewBox="0 0 400 400" xmlns="http://www.w3.org/2000/svg"><path d="m374.8 390.4.4-.4c.7.5 1.3 1 1.8 1.4l-.5.5c-.5-.6-1.1-1.1-1.7-1.5zm1 7.3-.6-.3c.5-1.4 1.1-2.8 1.5-4.3.2.1.4.2.6.3-.5 1.3-1 2.8-1.5 4.3zm-.4-10.3.4-.4c.4.3 1 .8 1.7 1.4l-.5.5c-.4-.5-1-1-1.6-1.5zm2.5.3h1.7v-1h.6v1h3.5v-1h.6v1h1.8v.5h-1.8v1.4h-2v1h3.2v2h-3.2v.9h3.3v.5h-3.4c0 .3-.1.6-.1.9h4v.5h-3.7c.7.9 1.9 1.5 3.8 1.7-.1.2-.2.4-.3.6-2.1-.4-3.5-1.1-4-2.1-.4 1-1.8 1.7-4 2.2-.1-.2-.2-.4-.3-.6 2.1-.4 3.4-1 3.8-1.8h-3.4v-.5h3.6c.1-.3.1-.6.2-.9h-3.3v-.5h3.4c0-.3 0-.6 0-.9h-3.2v-2h3.3v-1h-2.1v-1.4h-1.7v-.5zm1.1 3.5v1h2.7c0-.3 0-.4 0-.4 0-.1 0-.2 0-.2 0-.1 0-.2 0-.3h-2.7zm1.2-3v.9h3.5v-.9zm4.7 3h-2.6v.6.4h2.6z" fill="#fbfcfa"/><path d="m393.6 386.7h.6v1.5h2.7v6.1h1.1v.6h-11v-.6h1.1v-6.1h2.7v-1.5h.6v1.5h2.1v-1.5zm-2.7 8.8.4.6c-1.2.6-2.5 1.3-3.8 1.9-.1-.2-.2-.4-.3-.6 1.2-.6 2.5-1.2 3.7-1.9zm-2.2-6.7v2.4h2.1v-2.4zm0 3v2.5h2.1v-2.5zm2.8-3v2.4h2.1v-2.4zm0 3v2.5h2.1v-2.5zm6 6.1c-1.4-.7-2.7-1.3-3.9-1.8l.3-.6c1.5.6 2.7 1.2 3.9 1.7zm-1.2-9.1h-2.1v2.4h2.1zm-2.1 3v2.5h2.1v-2.5z" fill="#fbfcfa"/><g fill="#010106"><path d="m241.3 373.75c-5.51-8.79-7.83-18.41-7.84-28.44-.02-23.49.13-46.98.57-70.46.61-33.33 1.52-66.66 2.38-99.99.06-2.19-.41-3.45-2.67-4.22-6.03-2.05-11.89-4.55-18.55-3.32-1.08.2-3.41-1.14-3.55-2.03-1.14-7.02-1.93-14.1-2.63-21.18-.04-.45 1.51-1.48 2.35-1.52 5.01-.21 10.05-.44 15.05-.22 5.97.26 10.91-1.29 14.87-6.58-6.5-2.21-12.58-4.36-18.72-6.32-2.02-.65-3.11-1.56-3.48-3.8-2.58-15.76-5.68-31.46-7.77-47.28-.74-5.59.51-11.56 1.57-17.23 1.27-6.8 3.26-13.46 5.05-20.15.25-.95.88-2.15 1.68-2.57 11.45-5.99 22.65-3.15 33.77 1.19.04.02.02.21.05.54-8.42 1.42-16.87 2.79-25.3 4.33-1.1.2-2.61 1.07-2.97 2-2.71 6.96-5.18 14.02-7.72 21.04.17.33.34.67.51 1 2.34-.84 4.88-1.36 6.98-2.61 3.93-2.32 7.6-5.07 12.03-8.07 2.44 2.88 4.81 5.68 7.39 8.72 3.48-5.62.76-13.36 7.84-16.56 2.43 3.73 3.28 7.71 2.8 12.13-1.2 11.1-2.25 22.22-3.34 33.34-1.38 14.02-2.71 28.05-4.11 42.08-.32 3.19-6.7 9.24-10.18 9.57-5.12.48-10.26.71-15.38 1.12-2.88.23-6.19.11-7.27 3.59-1.15 3.72.67 7 2.55 10.06.35.56 1.57.78 2.4.82 5.13.26 10.27.33 15.4.65 2.2.14 4.48.45 6.52 1.22 3.84 1.43 4.75 3.39 4.5 7.44-1.98 31.37-3.96 62.75-5.85 94.12-.8 13.29-1.89 26.59-1.95 39.89-.06 13.52.95 27.04 1.57 40.56.4 9.06.95 18.1 1.45 27.14zm-22.93-278.15c.71 2.68 1.16 4.99 1.97 7.16.33.87 1.32 1.8 2.21 2.11 7.39 2.58 14.46 2.06 21.08-2.42 1.87-1.27 3.76-2.81 2.54-5.06-.79-1.46-2.8-2.71-4.49-3.16-7.71-2.01-15.23.5-23.31 1.37zm4.77 15.58c-.71 2.56-1.37 4.56-1.8 6.61-.7 3.27 1.02 5.85 3.72 6.73 5.22 1.7 10.69 2.62 16.45 3.95-.23-2.21-.33-3.87-.58-5.5-.47-3.08-1.42-6.02-4.62-7.26-4.15-1.59-8.41-2.9-13.17-4.53zm25.12-23.87c-10.01-5.84-19.72-7.21-29.6-2.05.07 3.17 1.42 4.85 4.85 4.77 4.9-.11 9.84.43 14.71 0 3.4-.31 6.7-1.77 10.04-2.72zm-25.22-11.29c1.29.58 2.43 1.55 3.54 1.51 6.37-.18 12.73-.59 19.09-.97.53-.03 1.05-.38 2-.74-1.91-1.04-3.36-1.85-4.83-2.62-3.26-1.7-6.68-4.94-9.75-4.64-3.26.33-6.19 4.02-9.26 6.25-.08.07-.12.19-.79 1.21z"/><path d="m192.89 291.34c-7.15.75-14.23 1.92-21.33 2.13-8.8.26-17.63-.21-26.44-.52-2.83-.1-5.21-1.3-6.17-4.69 4.85-1.32 9.74-2.77 14.69-3.94 2.28-.54 3.21-1.4 3.36-3.94.89-15.19 2.5-30.36 2.93-45.55.39-14.08-.36-28.19-.68-42.28-.77-34.01-1.63-68.02-2.31-102.03-.07-3.74-.86-6.71-3.35-9.7-6.46-7.75-7.97-17.34-8.69-27.01-.69-9.22-.55-9.35 8.84-9.96 9.14-.6 18.29-1 27.45-1.32 2.32-.08 4.68.39 7 .74 4.04.61 7.08 2.97 7.89 6.82.85 4.04.6 8.31.83 12.48.01.1-.08.21-.1.32-1.26 10.53-5.87 19.21-13.96 26.15-1.11.95-1.77 3.11-1.68 4.66.84 13.74 1.91 27.46 2.89 41.19.14 2.01.28 4.02.28 6.03.02 46.23.06 92.46-.08 138.69-.01 3.37 1.09 5.03 4.17 5.54 3.03.48 4.46 2.22 4.46 6.19zm-26.49-207.3c-.07 1.17-.17 2.14-.18 3.1-.13 12.98-.29 25.96-.35 38.94-.27 50.7-.54 101.4-.74 152.1-.03 7.81-1.38 6.1 6.81 7.08 3.7.44 6.36-2.07 6.58-5.8.59-10.28 1.32-20.55 1.74-30.84.56-13.52 1.12-27.05 1.21-40.58.06-9.28-.7-18.56-1.05-27.84-.9-23.48-1.54-46.97-2.82-70.42-.36-6.58-2.3-13.14-4.08-19.55-.87-3.07-3.32-5.45-7.12-6.19zm5.3-6.27c.01-.06.03-.13.04-.19 2.12-.1 4.25-.06 6.35-.33 10.36-1.35 14.5-6.49 13.74-16.85-.31-4.21-2.28-7.26-5.75-9.66-10.66-7.38-22.88-3.39-30.57 2.96-.62.51-1.21 1.41-1.28 2.17-.33 3.66-.78 7.35-.61 11 .24 5.2 3.4 8.67 8.48 9.67 3.16.61 6.4.83 9.6 1.23z"/><path d="m190.53 28.32c-13.91 1.08-27.82 2.16-42.01 3.26 0-1.87 0-3.6 0-5.92 13.95.73 28.04 1.47 42.13 2.2-.05.15-.08.31-.12.46z"/><path d="m179.08 62.78c-7.41 1.77-9.5 1.08-12.17-4.02 5.88-1.54 9.92-.21 12.17 4.02z"/></g></svg>