<svg enable-background="new 0 0 400 400" viewBox="0 0 400 400" xmlns="http://www.w3.org/2000/svg"><path d="m374.8 390.4.4-.4c.7.5 1.3 1 1.8 1.4l-.5.5c-.5-.6-1.1-1.1-1.7-1.5zm1 7.3-.6-.3c.5-1.4 1.1-2.8 1.5-4.3.2.1.4.2.6.3-.5 1.3-1 2.8-1.5 4.3zm-.4-10.3.4-.4c.4.3 1 .8 1.7 1.4l-.5.5c-.4-.5-1-1-1.6-1.5zm2.5.3h1.7v-1h.6v1h3.5v-1h.6v1h1.8v.5h-1.8v1.4h-2v1h3.2v2h-3.2v.9h3.3v.5h-3.4c0 .3-.1.6-.1.9h4v.5h-3.7c.7.9 1.9 1.5 3.8 1.7-.1.2-.2.4-.3.6-2.1-.4-3.5-1.1-4-2.1-.4 1-1.8 1.7-4 2.2-.1-.2-.2-.4-.3-.6 2.1-.4 3.4-1 3.8-1.8h-3.4v-.5h3.6c.1-.3.1-.6.2-.9h-3.3v-.5h3.4c0-.3 0-.6 0-.9h-3.2v-2h3.3v-1h-2.1v-1.4h-1.7v-.5zm1.1 3.5v1h2.7c0-.3 0-.4 0-.4 0-.1 0-.2 0-.2 0-.1 0-.2 0-.3h-2.7zm1.2-3v.9h3.5v-.9zm4.7 3h-2.6v.6.4h2.6z" fill="#fbfcfa"/><path d="m393.6 386.7h.6v1.5h2.7v6.1h1.1v.6h-11v-.6h1.1v-6.1h2.7v-1.5h.6v1.5h2.1v-1.5zm-2.7 8.8.4.6c-1.2.6-2.5 1.3-3.8 1.9-.1-.2-.2-.4-.3-.6 1.2-.6 2.5-1.2 3.7-1.9zm-2.2-6.7v2.4h2.1v-2.4zm0 3v2.5h2.1v-2.5zm2.8-3v2.4h2.1v-2.4zm0 3v2.5h2.1v-2.5zm6 6.1c-1.4-.7-2.7-1.3-3.9-1.8l.3-.6c1.5.6 2.7 1.2 3.9 1.7zm-1.2-9.1h-2.1v2.4h2.1zm-2.1 3v2.5h2.1v-2.5z" fill="#fbfcfa"/><path d="m157.71 313.32c5.1-4.51 9.83-8.72 14.58-12.91 9.15-8.08 18.35-16.09 27.4-24.28 1.16-1.05 2.06-2.89 2.21-4.45.72-7.22 1.14-14.48 1.71-22.45-5.4-.11-10.55-.78-15.55-.19-10.42 1.23-20.76 3.13-31.13 4.74-14.67 2.28-26.46-2.69-36.38-14.59 2.5 0 4.33-.04 6.17.01 20.05.45 40.06.03 59.91-3.13 17.56-2.79 32.44-11.14 45.58-22.78 3.92-3.47 7.63-7.26 10.89-11.34 4.88-6.09 5.89-13.23 3.64-20.64-2.48-8.17-6.1-15.44-14.45-19.54-5.48-2.69-10.47-6.37-16.08-9.85-1.45 8.75-3.05 17.04-4.13 25.41-.58 4.49-2.3 7.7-5.92 10.57-7.05 5.57-13.83 11.48-22.82 13.67-10.41 2.53-20.36-.07-30.32-2.91-4.65-1.32-7.61-3.99-9.93-8.13-4.12-7.38-7.53-14.92-7.8-24.19 4.74 3.17 9.79 5.96 14.14 9.59 5.73 4.8 11.37 9.9 19.06 10.48 14.17 1.06 25.01-6.64 24.2-22.04-.35-6.68-2.21-13.01-5.51-18.82-.79-1.39-2.3-2.74-3.78-3.32-11.24-4.39-22.49-8.77-33.87-12.78-11.6-4.09-17.99-12.74-21.69-23.82-2.71-8.13-1.5-16.48-.2-24.61 1.46-9.14 3.71-18.17 5.9-27.17.42-1.7 1.86-3.59 3.37-4.53 12.63-7.85 25.32-15.67 39.87-19.63 13.11-3.57 26.26-5.67 39.55-.7 7.14 2.67 12.54 7.14 15.78 14.44-8.44 4.55-17.2 8.17-26.45 10.25-9.48 2.12-14 6.42-13.79 19.2.1 6.43 2.76 9.87 8.77 11.91 6.75 2.29 13.2 1.85 19.72-.3 7.59-2.51 15.59-4.14 22.13-10.63-.54 7.01-1.06 12.51-6.48 17.32-11.41 10.13-24.26 12.67-38.7 10.19-2.42-.42-4.83-1.11-7.27-1.22-5.48-.25-8.12-3.75-10.32-8.13-3.1-6.19-4.8-12.71-5.4-19.58-.71-8.18-3.7-15.13-11.26-19.76-5.56 6.1-8.89 13.22-10.09 21.2-1.74 11.52-1.06 23.01 2.04 34.26.44 1.59 1.79 3.37 3.21 4.19 23.47 13.49 48.71 22.85 74.2 31.64 7.16 2.47 14.4 5.02 21.08 8.53 18.31 9.61 24.01 24.7 17.34 44.2-.61 1.8-1.36 3.55-2.06 5.31-3 7.53-7.31 13.59-14.94 17.58-7.58 3.97-14.33 9.51-21.56 14.19-8.12 5.26-10.31 13.12-9.97 22.08.13 3.45.82 6.88 1.15 10.34.42 4.43 2.27 7.45 6.66 9.34 6.46 2.77 12.68 6.13 18.88 9.45 5.3 2.84 9.52 6.93 12.65 13.05-5.46-.44-10.93-.75-16.36-1.38-3.54-.41-7.01-1.51-10.56-1.88-6.61-.69-9.86 2.41-9.86 9.04-.01 7.05.06 14.11-.05 21.16-.03 1.86.6 2.72 2.3 3.46 14.61 6.37 27.59 15.25 38.97 26.36 3.29 3.21 5.8 7.23 8.35 11.25-9.15.16-17.39-2.1-24.95-6.61-3.35-2-6.28-4.71-9.64-6.69-4.98-2.94-10.16-5.54-15.28-8.24-2.04-1.08-3.6-.54-5.31 1.15-6.9 6.85-13.65 13.93-21.11 20.13-6.63 5.5-14.23 9.83-23.15 10.64-3.59.33-7.24.05-10.86.05.01-.28.01-.55.02-.83 4.49-3.57 9.15-6.94 13.43-10.75 6.69-5.95 12.94-12.4 19.7-18.26 6.98-6.04 9.76-13.71 9.88-22.57.13-8.73.11-17.46-.07-26.18-.02-1.09-1.17-2.62-2.18-3.07-.77-.34-2.39.43-3.23 1.17-3.27 2.88-6.29 6.05-9.57 8.92-9.75 8.52-21.01 11.43-34.41 8.41z" fill="#010106"/></svg>