<svg enable-background="new 0 0 400 400" viewBox="0 0 400 400" xmlns="http://www.w3.org/2000/svg"><path d="m374.8 390.4.4-.4c.7.5 1.3 1 1.8 1.4l-.5.5c-.5-.6-1.1-1.1-1.7-1.5zm1 7.3-.6-.3c.5-1.4 1.1-2.8 1.5-4.3.2.1.4.2.6.3-.5 1.3-1 2.8-1.5 4.3zm-.4-10.3.4-.4c.4.3 1 .8 1.7 1.4l-.5.5c-.4-.5-1-1-1.6-1.5zm2.5.3h1.7v-1h.6v1h3.5v-1h.6v1h1.8v.5h-1.8v1.4h-2v1h3.2v2h-3.2v.9h3.3v.5h-3.4c0 .3-.1.6-.1.9h4v.5h-3.7c.7.9 1.9 1.5 3.8 1.7-.1.2-.2.4-.3.6-2.1-.4-3.5-1.1-4-2.1-.4 1-1.8 1.7-4 2.2-.1-.2-.2-.4-.3-.6 2.1-.4 3.4-1 3.8-1.8h-3.4v-.5h3.6c.1-.3.1-.6.2-.9h-3.3v-.5h3.4c0-.3 0-.6 0-.9h-3.2v-2h3.3v-1h-2.1v-1.4h-1.7v-.5zm1.1 3.5v1h2.7c0-.3 0-.4 0-.4 0-.1 0-.2 0-.2 0-.1 0-.2 0-.3h-2.7zm1.2-3v.9h3.5v-.9zm4.7 3h-2.6v.6.4h2.6z" fill="#fbfcfa"/><path d="m393.6 386.7h.6v1.5h2.7v6.1h1.1v.6h-11v-.6h1.1v-6.1h2.7v-1.5h.6v1.5h2.1v-1.5zm-2.7 8.8.4.6c-1.2.6-2.5 1.3-3.8 1.9-.1-.2-.2-.4-.3-.6 1.2-.6 2.5-1.2 3.7-1.9zm-2.2-6.7v2.4h2.1v-2.4zm0 3v2.5h2.1v-2.5zm2.8-3v2.4h2.1v-2.4zm0 3v2.5h2.1v-2.5zm6 6.1c-1.4-.7-2.7-1.3-3.9-1.8l.3-.6c1.5.6 2.7 1.2 3.9 1.7zm-1.2-9.1h-2.1v2.4h2.1zm-2.1 3v2.5h2.1v-2.5z" fill="#fbfcfa"/><g fill="#010106"><path d="m185.59 231.55c1.41-23.7-4.16-47.43 2.93-70.55 5.85.62 9.21 3.74 9.34 9.47.15 6.69-.51 13.4-.7 20.11-.08 2.76.08 5.53.21 8.3.12 2.53.35 5.06.57 8.16 2.27 1.85 5.52 1.24 8.41.41 6.11-1.76 12.08-4.01 18.1-6.08.52-.18 1.1-.39 1.45-.77 1.5-1.64.98-12.39-.6-14.05-3.17-3.32-6.68-6.49-6.76-11.55-.02-1.24.43-3.11 1.29-3.61 1.59-.92 3.44-1.72 5.44.16 4.4 4.13 9.11 7.93 13.64 11.93 3.83 3.39 5.36 7.9 5.76 12.82.08.92-.51 2.2-1.22 2.83-2.49 2.24-4.92 4.69-7.8 6.31-9.84 5.53-19.76 11.01-31.34 12.08-3.22.3-4.48 2.55-5.31 5.27-2.12 6.92-.8 9.64 6.38 10.33 8.21.79 16.53.41 24.77 1.02 3.81.28 7.6 1.55 11.29 2.71 2.19.69 3.37 2.47 3 5-.28 1.91-.99 2.86-3.22 2.88-11.52.1-23.04.4-34.56.61-4.53.08-8.05 3.45-8.03 8.03.01 2.44.21 4.97.87 7.3 2.66 9.43 2.28 18.92.03 28.23-2.09 8.66-.69 17.11.16 25.63.55 5.49 1.25 6.24 6.93 6.7 3.88.31 7.81.1 11.71-.15 1.06-.07 2.08-1.07 3.09-1.69 1.5-.94 2.87-2.13 4.46-2.84 2.89-1.29 5.12-.48 7.82 1.54 6.84 5.1 6.89 11.62 4.87 18.62-1.98 6.86-4.46 13.58-6.89 20.31-.5 1.39-1.56 2.71-2.67 3.72-4.39 3.99-8.8 7.97-13.43 11.67-1.64 1.3-3.96 2.54-5.94 2.48-8.25-.24-16.59-.36-24.69-1.72-8.43-1.42-14.8-6.75-18.76-14.36-5.71-10.96-8.66-22.75-9.1-35.09-.09-2.45.68-6.81 1.79-7.06 2.75-.62 6.6-.31 8.78 1.29 6.34 4.65 13.1 2.68 19.78 2.35.52-.03 1.37-2.01 1.34-3.06-.42-17.34-.97-34.68-1.46-52.02-.16-5.48-.29-10.97-.33-16.45-.01-1.94-.65-2.96-2.6-3.63-5.81-2-11.44-4.55-17.3-6.34-7.21-2.2-11.1-7.38-13.2-14-2.44-7.69-2.67-15.65-.64-23.52.28-1.08 1.49-2.47 2.5-2.7 1.84-.41 4.11-.74 4.89 2.03 1.39 4.93 3.17 9.77 4.18 14.77 2.6 12.86 4.6 14.82 17.77 15.96.9.06 1.78.12 3 .21zm16.33 101.85c0-.34 0-.69 0-1.03-3.69 0-7.41.32-11.05-.08-4.13-.46-7.6.58-11.09 2.66-1.92 1.14-2.33 2.31-1.96 4.3.96 5.16 1.68 10.38 2.76 15.51.25 1.18 1.36 2.79 2.4 3.08 6.84 1.96 13.69 4.29 20.7 5.1 3.73.43 7.83-1.84 11.68-3.13.9-.3 1.99-1.46 2.14-2.37 1.21-7.01 2.29-14.05 3.24-21.1.27-2-.93-2.98-3.07-2.95-5.25.06-10.5.01-15.75.01z"/><path d="m190.5 82.38c-2.17.58-4.47.8-6.37 1.79-4.63 2.42-9.22 4.96-13.56 7.86-12.3 8.24-25.52 14.16-40 17-2.06-4.16-1.7-5.34 1.28-8 17.48-15.58 37.68-27.23 57.34-39.66 3.14-1.99 4.61-4.43 4.67-7.86.05-3.01.03-6.06-.44-9.02-1.03-6.53 0-12.41 4.24-17.68 1.52-1.89 2.95-1.98 4.89-.94 3.47 1.86 4.95 4.95 4.75 8.61-.33 6.02-.93 12.04-1.75 18.02-.4 2.94.03 5.31 1.68 7.84 4.48 6.85 8.64 13.83 15.87 18.35 10.02 6.27 19.88 12.79 29.81 19.21 3.85 2.49 4.27 4.15 1.96 8.78-5.83-1.31-11.79-2.62-17.73-4-.49-.11-.99-.56-1.32-.98-5.79-7.38-14.18-10.68-22.39-14.23-2.13-.92-4.34-1.68-6.95-2.67-.58 4.43-.74 8.7-1.76 12.75-1.77 6.97-.12 12.27 5.37 17.12 4.82 4.25 8.51 9.79 15.43 11.16 1.08.21 2.02 1.33 2.92 2.16 6.9 6.39 13.66 12.93 20.72 19.15 3.15 2.78 6.87 4.92 10.36 7.32.73.5 1.6.8 2.35 1.29 2.58 1.67 4.03 5.91 2.84 8.22-1.03 2.01-5.14 3.58-7.77 2.44-3.77-1.64-7.67-3.31-10.93-5.75-14.78-11.06-29.36-22.38-43.99-33.64-5.67-4.36-9.67-4.28-14.84.54-10.48 9.77-20.91 19.58-31.37 29.37-.73.69-1.46 1.46-2.34 1.88-2.04.98-4.39 1.78-6-.4-2.21-3-1.71-5.36.43-7.47 3.96-3.91 8.02-7.77 11.5-12.1 9.82-12.21 19.41-24.6 28.94-37.04 1.18-1.54 1.92-3.75 2.06-5.7.31-4.3.1-8.66.1-13.72z"/><path d="m152.92 284.18c.81-5.91-.08-12.45 3.75-18.09 1.22-1.8 1.9-4.09 4.95-3.29 3.11.82 6.17 1.63 7.03 5.26.3 1.25.15 2.64.02 3.95-.34 3.3-1.08 6.6-1.11 9.9-.06 5.48-2.86 9.28-6.9 12.36-3.19 2.43-5.87 1.37-6.61-2.46-.46-2.4-.72-4.85-1.13-7.63z"/><path d="m229.71 264.33c11.52 5.37 17.94 13.69 20.44 25.08.75 3.39-2.53 5.87-5.81 4.61-.1-.04-.21-.09-.29-.16-6.94-5.92-13.04-12.52-15.23-21.68-.53-2.18.49-4.73.89-7.85z"/></g></svg>