<svg enable-background="new 0 0 400 400" viewBox="0 0 400 400" xmlns="http://www.w3.org/2000/svg"><path d="m148.55 344.12c1.06-4.43 1.28-8.85 5.74-11.1.38-.19.79-.57.92-.95 1.84-5.52 6.91-6.82 11.41-8.96 1.44-.68 3.01-1.7 3.81-3 5.6-9.13 12.82-16.91 19.96-24.79 1.12-1.23 1.91-3.3 1.87-4.96-.24-12.64-.62-25.28-1.21-37.91-.15-3.19-1.38-6.31-1.8-9.51-.48-3.65-.94-7.36-.77-11.01.17-3.62 1.14-7.21 1.89-11.58-3.57 0-7.33-.41-10.97.08-10.17 1.38-20.29 3.14-30.44 4.73-2.82.44-3.95 2.01-3.6 4.85.37 2.99.52 6.01.83 9 .54 5.1-.65 7.25-5.63 9.64-4.22-5.12-6.73-11.14-7.04-17.66-.52-11.27-.31-22.57-.41-33.86-.02-2.33 0-4.67 0-6.89 5.11-1.15 5.23-1.1 6.72 3.11 1.72 4.84 3.63 9.63 5.03 14.57.94 3.31 2.91 4.5 6.03 4.47 8.6-.08 17.21-.18 25.81-.29.89-.01 1.78-.18 2.67-.25 7.74-.66 8.46-.93 8.31-8.77-.28-14.97-1.12-29.93-1.76-44.9-.37-8.72-.73-17.44-1.21-26.15-.98-17.64-2.19-35.26-2.95-52.91-.19-4.51.79-9.11 1.52-13.62.57-3.47 2.2-6.4 5.06-8.77 3.7-3.06 6.94-6.68 10.62-9.76 1.87-1.56 4.3-2.45 6.44-3.7.71-.41 1.72-.86 1.94-1.51.88-2.61 3.03-3.18 5.25-4.11 3.02-1.26 6-2.84 8.65-4.75 4.69-3.4 9.62-6.1 15.34-7.18 1.18-.22 2.46-.25 3.64-.07 3.19.5 4.34 2.13 2.82 4.86-1.4 2.52-3.28 5.2-5.66 6.67-8.55 5.3-17.25 10.38-26.16 15.05-10.78 5.65-15.56 14.94-17.27 26.35-.45 2.96-.6 5.96-.91 9.13 4.28.84 7.81-.57 11.18-2.21 5.82-2.85 11.49-6 17.28-8.91 1.67-.84 3.58-1.84 5.31-1.73 1.68.1 4.11 1.15 4.73 2.47.99 2.12-.31 4.13-2.61 5.39-7.75 4.23-15.53 8.41-23.07 12.97-3.7 2.24-7.04 5.14-10.29 8.02-.99.87-1.67 2.73-1.58 4.07.74 10.48 1.7 20.95 2.61 31.62 7.41-.33 13.48-3.57 19.48-7.3 6.23-3.88 12.42-8.15 19.2-10.71 6.81-2.57 6.31-2.21 10.01 4.78-6.7 5.73-14.56 9.43-22.5 13.08-5.36 2.46-10.47 5.46-15.61 8.38-7.6 4.33-9.84 11.53-9.78 19.63.04 4.79.57 9.59 1.13 14.36 1.02 8.66 2.1 17.31.07 26.57 3.43.27 6.53.93 9.55.67 10.35-.89 20.67-2.18 31.02-3.16 3.6-.34 5.67-2.3 5.9-5.6.27-3.95-.26-7.94-.26-11.91 0-1.73.46-3.46.72-5.19 2.25.62 5.44.55 6.54 2.03 1.8 2.41 3.18 5.86 3.1 8.82-.34 12.51 3.72 24.27 5.37 36.42.42 3.13-.07 6.4-.4 9.58-.06.58-1.45 1.58-2.01 1.45-1.31-.3-3.13-.84-3.64-1.84-3.34-6.57-6.61-13.2-9.44-20-1.46-3.52-3.6-4.71-7.15-4.37-8.68.82-17.37 1.49-26.04 2.34-4.32.42-8.62 1.11-13.41 1.74 0 2.44-.09 4.74.02 7.03.64 13.4 1.25 26.79 2.04 40.18.65 11.15 1.49 22.29 2.38 33.42.07.86.99 1.98 1.81 2.4 14.83 7.57 29.72 15.02 44.57 22.56 2.58 1.31 5.14 2.74 7.52 4.38 2.81 1.94 4.28 4.76 4.31 8.46-5.58 2.28-10.81.86-15.82-1.44-11.89-5.46-23.68-11.1-35.52-16.66-1.09-.51-2.2-.96-3.74-1.63v6.29c0 11.19-.09 22.39.05 33.58.05 3.77.57 7.56 1.1 11.31.34 2.43.15 4.46-2.47 5.94-5.57-5.86-8.5-12.76-8.74-20.98-.29-10.16-.86-20.32-1.41-30.47-.13-2.39-.69-4.75-3.44-5.6-2.87-.89-4.59.74-6.65 2.55-7.64 6.7-15.41 13.28-23.42 19.53-3.39 2.61-7.49 4.35-12.49 4.1z" fill="#010102"/><g fill="#fafbfa"><path d="m6.4 11.7c-1-.8-1.9-1.6-2.9-2.3l.6-.7c.9.7 1.9 1.4 2.9 2.2zm-2.1 8.3c.7-2.1 1.4-4.2 2-6.4.2.1.6.3 1 .4-.7 2.3-1.3 4.4-1.9 6.4zm3-12.8c-1.1-.9-2.1-1.7-2.9-2.4l.6-.7c1 .8 2 1.5 3 2.4zm1.4-1.3v-.9h10.2v.9c-.9 4.2-2.3 7.3-4.1 9.4 1.3 1.4 3.2 2.7 5.7 4-.2.2-.4.5-.7.9-2.5-1.4-4.4-2.7-5.7-4.2-1.4 1.5-3.5 3-6.1 4.4 0 0 0 0-.1-.1-.3-.4-.5-.7-.7-.8 2.7-1.3 4.7-2.8 6.2-4.2-1.8-2.2-3-5.3-3.7-9.4zm9.2 0h-7.1c.6 3.8 1.7 6.7 3.4 8.7 1.7-2 2.9-4.8 3.7-8.7z"/><path d="m31.6 3.6h.9v2.3h4.1v9.1h1.7v.9h-16.6v-.9h1.7v-9.1h4.1v-2.3h.9v2.3h3.1v-2.3zm-4 13.3.6.8c-1.9.9-3.8 1.9-5.8 2.8-.2-.3-.3-.6-.5-.9 2-.9 3.9-1.8 5.7-2.7zm-3.2-10.1v3.7h3.1v-3.7zm0 4.5v3.7h3.1v-3.7zm4.1-4.5v3.7h3.1v-3.7zm0 4.5v3.7h3.1v-3.7zm9.1 9.1c-2.1-1.1-4.1-2-5.8-2.7l.5-.8c2.2.9 4.1 1.8 5.8 2.6zm-1.9-13.6h-3.1v3.7h3.1zm-3.2 4.5v3.7h3.1v-3.7z"/></g></svg>