<svg enable-background="new 0 0 400 400" viewBox="0 0 400 400" xmlns="http://www.w3.org/2000/svg"><g fill="#fafafb"><path d="m12.4 4.8-6.1 9h6v1.2h-8v-.5l6.1-8.9h-5.7v-1.2h7.6v.4z"/><path d="m14 15v-10.6h3c1.6 0 2.9.5 4 1.4s1.6 2.2 1.6 3.8-.5 3-1.6 3.9-2.4 1.5-4 1.5zm1.4-9.4v8.2h1.6c1.3 0 2.4-.4 3.1-1.1s1.1-1.8 1.1-3.1-.4-2.3-1.2-3-1.8-1-3.1-1z"/><path d="m26.1 4.4v10.6h-1.4v-10.6z"/><path d="m36.1 14.6c-.8.4-1.8.6-2.9.6-1.5 0-2.7-.5-3.6-1.4s-1.4-2.2-1.4-3.8c0-1.7.5-3.1 1.5-4.1s2.3-1.6 3.9-1.6c1 0 1.8.1 2.5.4v1.4c-.8-.4-1.6-.6-2.5-.6-1.2 0-2.1.4-2.9 1.2s-1.1 1.8-1.1 3.2c0 1.3.3 2.3 1 3s1.6 1.1 2.7 1.1c1 0 2-.2 2.7-.7v1.3z"/><path d="m37.6 14.3c0-.2.1-.5.3-.6s.4-.3.6-.3c.3 0 .5.1.6.3s.3.4.3.6-.1.4-.3.6-.4.3-.6.3c-.3 0-.5-.1-.6-.3s-.3-.4-.3-.6z"/><path d="m50.2 15h-1.6l-5.3-8.2c-.2-.2-.3-.5-.4-.7 0 .2.1.7.1 1.5v7.4h-1.4v-10.6h1.7l5.2 8.1c.2.4.4.6.4.7 0-.3-.1-.8-.1-1.5v-7.3h1.4z"/><path d="m58.6 15h-5.7v-10.6h5.5v1.2h-4.1v3.4h3.8v1.2h-3.8v3.6h4.3z"/><path d="m67.1 5.6h-3.1v9.4h-1.4v-9.4h-3v-1.2h7.5z"/></g><path d="m255.65 95.01c1.07.15 2.05.44 3.03.4 3-.12 3.74 1.47 3.78 4.17.11 7.92.16 15.85.72 23.75.28 3.95 1.53 7.85 2.47 11.74.67 2.73 2.59 3.87 5.4 4.05 10.71.67 21.44 1.13 32.1 2.29 10.3 1.12 20.69 2.35 30.73 4.77 8.19 1.97 13.72 7.84 15.15 16.59.2 1.24-.4 3.12-1.31 3.95-7.57 6.89-11.22 15.39-11.34 25.57-.21 17.12-.26 34.25-.95 51.35-.3 7.28-4.84 12.96-10.52 17.2-5.81 4.35-12.06 8.11-18.19 12.01-4.7 2.99-6.84 7.2-6.57 12.69.38 7.7 1.15 15.41 1.07 23.1-.06 5.99-.9 12.01-1.83 17.95-2.22 14.19-1.47 28.33.19 42.48.32 2.75.37 5.32-3.17 5.88-4.17.67-6.61-.58-7.09-4.25-1.22-9.29-2.11-18.62-3.06-27.95-.1-.96.2-2.01.47-2.97 1.57-5.54 2.03-11.1 1.31-16.88-.97-7.76-1.35-15.59-2.09-23.39-.18-1.87-.78-3.7-1.25-5.53-.69-2.68-2.13-3.99-5.09-2.97-7.56 2.62-15.57 1.2-23.25 2.4-9.14 1.43-18.11 3.92-27.2 5.74-3.93.79-7.96 1.18-11.97 1.53-1.91.16-2.91.94-3.07 2.75-.5 5.66-.97 11.32-1.41 16.99-.27 3.56-.14 7.18-.79 10.66-.72 3.87-3.15 6.59-7.49 7.51-4.28-7.28-6.1-15.33-6.43-23.58-.89-21.79-1.26-43.61-2.11-65.4-.19-4.84-1.53-9.63-2.32-14.44-.18-1.08-.84-2.58-.38-3.19 2.86-3.76 1.59-7.7.68-11.53-1.64-6.93-.98-13.85.15-20.65 1.53-9.23 3.64-18.37 5.74-27.5.36-1.57 1.65-3.15 2.91-4.26 4.02-3.55 8.45-6.67 12.33-10.36 5.33-5.06 11.67-7.76 18.69-9.15 8.53-1.69 14.66-5.94 16.36-14.98.86-4.61 1.62-9.24 2.24-13.89 1.03-7.75 1.92-15.53 2.88-23.29.04-.44.28-.83.48-1.36zm-6.31 86.05c.11-.01.22-.02.33-.03 0-3.13.23-6.28-.1-9.37-.16-1.52-.98-3.4-2.14-4.29-3.44-2.64-7.87-3.84-11.73-2.34-5.98 2.31-11.53 5.74-17.19 8.84-3.21 1.76-3.82 4.82-3.9 8.29-.07 3.31-.39 6.72-1.31 9.88-4.39 15.15-5.49 30.55-4.1 46.18 1.15 12.92 2.53 25.82 3.58 38.75.28 3.41 2.39 3.79 4.78 3.66 1.73-.09 3.41-.97 5.12-1.47 3.09-.92 6.14-2.16 9.3-2.66 7.73-1.2 15.53-1.96 23.28-3.06 9.13-1.3 18.11-3.13 25.61-9.03.75-.59 1.57-1.73 1.53-2.57-.32-6.35-.68-12.7-1.36-19.02-1.14-10.58-6.19-17.77-17.53-18.43-1.11-.06-2.22-.3-3.31-.54-5.96-1.3-8.6-4.62-8.65-10.7-.02-2.57-.16-5.14-.35-7.7-.58-8.13-1.23-16.26-1.86-24.39zm45.28 75.26c1.04-.32 1.58-.45 2.09-.65.73-.29 1.46-.58 2.14-.95 8.74-4.84 14.65-12.67 21-20.02.54-.62.69-1.64.89-2.5 2.43-10.29 3.64-20.73 2.97-31.28-.7-11.02-2.23-21.99-.77-33.09.7-5.3-.86-7.51-6.07-9.12-3.5-1.08-7.22-1.42-10.81-2.25-2.81-.65-5.06.09-7.55 1.52-2.72 1.56-6.04 3.26-8.97 3.04-7.53-.54-13.53 1.57-18.42 7.28-1.87 2.18-4.77 3.71-6.05 6.14-6.57 12.55-2.94 27.44 8.76 35.24 5.76 3.84 10.01 8.47 13.13 14.68 2.55 5.07 4.57 10.07 5.16 15.74.54 5.32 1.6 10.57 2.5 16.22z" fill="#010105"/><path d="m83.77 150.82c7.45-2.57 14.73-5.09 22.26-7.69-.48-8.6-.9-17.07-1.5-25.54-.06-.86-1.05-2.15-1.85-2.37-3.4-.96-6.86-1.91-10.36-2.27-6.1-.63-12.29-.5-18.37-1.29-7.92-1.03-12.79-6.04-15-13.52-1.42-4.81-2.28-9.79-3.6-14.64-.67-2.46-1.82-4.78-2.66-7.2-.36-1.02-.76-2.14-.67-3.18.41-5.12.97-10.23 1.5-15.58 2.09-.24 4.06-.46 6.43-.73.53 1.62 1.15 3.24 1.59 4.91 2.47 9.29 4.64 18.66 7.39 27.86 3.7 12.36 3.89 12.11 16.57 11.97 5.95-.07 11.05-2.52 16.34-4.53.78-.3 1.25-2.05 1.42-3.2 2.49-16.91 4.61-33.87 7.51-50.7.95-5.49 3.9-10.63 5.95-15.93.92-2.38 2.56-2.41 4.57-1.38 2.95 1.51 4.23 4.07 4 7.17-.29 4-1.02 7.98-1.5 11.97-.4 3.31-.99 6.63-1.02 9.95-.12 12.87.05 25.75-.12 38.62-.04 2.98 1.13 4.57 3.82 4.67 4.32.17 8.67.03 12.99-.2 1.88-.1 3.71-.84 5.59-1.11 13.97-1.97 16.81-12.34 16.9-21.93.01-1.57.09-3.15-.13-4.69-1.36-9.43.69-18.43 3.4-27.33.64-2.12 1.94-4.04 2.93-6.06.49.04.99.07 1.48.11 1.48 5.4 2.96 10.79 4.43 16.19 4.08 14.92-.91 28.78-5.38 42.58-.7 2.18-4 3.7-6.34 5.13-6.14 3.77-13.13 4.77-20.08 6.09-3.88.74-7.73 2.18-11.31 3.91-5.69 2.74-9.4 6.82-8.45 13.96.48 3.6-.12 7.37-.42 11.05-.16 2.02.43 2.88 2.51 3.43 7.51 2 14.86.42 22.29-.41 6.53-.73 13.12-1.05 19.69-1.34 2.38-.1 4.71.57 5.74 3.41-4.21 4.57-9.4 7.39-15.59 8.29-8.08 1.17-16.18 2.21-24.26 3.36-1.42.2-2.9.5-4.18 1.11-2.25 1.07-3.6 2.6-3.09 5.56 1 5.84 1.75 11.73 2.3 17.63.29 3.16 1.95 5.09 4.68 5.74 3.87.92 7.92 1.95 11.82 1.7 9.34-.59 18.75-1.29 27.47-5.37 2.86-1.34 5.46-.3 6.88 2.37 1.07 2.01 1.91 4.37 2.03 6.62.87 15.74 1.86 31.48 2.14 47.24.21 11.61-.56 23.24-.99 34.86-.03.87-.57 2.11-1.26 2.51-3.43 1.98-6.88 5.03-10.53 5.34-11.28.97-21.38 5.22-31.62 9.35-1.91.77-4.1 1.31-6.14 1.27-14.87-.31-29.75-1.18-44.62-1.09-8.77.06-16.54 3.76-22.31 10.64-1.72 2.04-3.15 4.4-2.14 7.64.77 2.46-4.42 7.58-7.09 7.29-.93-.1-2.01-.91-2.59-1.71-3.36-4.61-3.67-9.96-3.37-15.4.2-3.69.38-7.39.84-11.04 1-7.97-1.52-15.5-2.58-23.22-.79-5.82-1.21-11.76-1.07-17.63.26-10.73.93-21.47 1.69-32.18.58-8.18-2.71-15.56-4.37-23.27-.6-2.77-.01-3.97 2.86-4.28 3.51 5.52 8.93 7.14 15.07 6.56 8.43-.8 16.81-2.02 25.24-2.89 3.88-.4 7.81-.4 11.71-.56 1.12-.05 2.24.04 3.36-.02 8.33-.4 9.75-2.04 8.71-10.19-.59-4.66-1.39-9.3-1.8-13.97-.2-2.26-1.25-3.7-3.22-4.07-3.25-.6-6.61-1.25-9.86-1.01-6.51.5-9.4-.86-12.66-7.34zm23.91 126.47c7.56-.44 14.05-.62 20.51-1.23 14.42-1.35 27.87-5.41 39.08-15.09 1.24-1.07 2.48-2.81 2.65-4.35.71-6.64 1.8-13.39 1.31-19.99-.9-12.02-2.73-23.98-4.47-35.92-.24-1.62-1.9-3.53-3.42-4.35-1.87-1.01-4.29-1.42-6.47-1.38-9.72.15-19.44.46-29.15.91-5.46.25-11.14.04-16.28 1.56-5.62 1.66-11.02 2.52-16.76 1.82-1.09-.13-2.23-.06-3.32.1-6.97 1-13.95 1.99-20.9 3.1-4.51.72-9 1.6-13.47 2.54-1.9.4-3.04 1.55-3 3.78.14 9.15-.24 18.34.35 27.46.73 11.19 3.12 22.09 7.73 32.46 2.53 5.7 4.63 6.84 11.88 6.92 3.12.03 6.26-.43 9.37-.23 8.47.53 16.93 1.3 24.36 1.89z" fill="#010105"/><path d="m113.56 261.45c-6.28-1.2-14.05-2.59-21.76-4.28-1.26-.28-2.74-1.64-3.26-2.87-1.75-4.09-3.24-8.3-4.6-12.54-2.6-8.08 1.76-14.48 5.38-21.01.32-.57 1.23-.88 1.92-1.16 5.15-2.14 10.37-4.14 15.47-6.4 3.78-1.67 7.53-2.55 11.66-1.5 8.97 2.27 18.16 3.85 26.9 6.78 10.28 3.45 11.92 8.68 7.93 18.82-2.62 6.66-7.01 12.09-11.98 16.78-2.96 2.8-7.6 4.19-11.73 5.27-4.6 1.2-9.47 1.31-15.93 2.11zm5.09-10.9c10.56.04 21.66-7.54 24.92-16.51 1.23-3.4.77-5.11-2.63-6.31-3.22-1.13-6.67-1.92-10.07-2.19-10.22-.8-20.51-3.49-30.66.34-1.77.67-4.51 1.74-4.73 2.99-1.01 5.76-1.33 11.64-1.81 17.49-.15 1.76.84 2.52 2.64 2.63 7.68.49 15.36 1.07 22.34 1.56z" fill="#010105"/></svg>