<svg enable-background="new 0 0 400 400" viewBox="0 0 400 400" xmlns="http://www.w3.org/2000/svg"><path d="m6.8 9.5c.6.3 1.3.7 2.1 1.1-.4.4-.7.8-.9 1.2-.7-.4-1.3-.8-1.8-1.1s-1.1-.6-1.6-.8c.2-.4.5-.8.7-1.2.4.2.8.5 1.5.8zm.9 6.9c-.3.6-.5 1.1-.7 1.7s-.4 1.1-.6 1.7c-.6-.4-1.1-.7-1.6-1 .7-1 1.2-1.8 1.5-2.4.3-.5.6-1.1.8-1.7.3-.6.5-1.2.8-1.8.3.3.8.6 1.3.8-.7 1.3-1.2 2.2-1.5 2.7zm.1-11c.4.3 1 .7 1.7 1.1-.5.2-.8.6-1.1 1.1-.5-.6-1-1-1.4-1.2s-.9-.6-1.5-.8c.2-.4.5-.7.9-1.1.5.3.9.6 1.4.9zm10.5 13.1c1 .4 2 .6 3.1.7-.4.4-.7.8-.8 1.3-.9-.2-1.9-.6-3-.9-1-.4-2-.9-2.8-1.6-.5.4-1.1.9-1.9 1.3s-1.9.9-3.3 1.2c-.1-.3-.5-.8-1.1-1.3 1 0 2.1-.3 3.2-.8 1.2-.5 1.9-1 2.3-1.7h-3.2c-.4 0-1 0-2 .1v-1.2c1 0 1.7.1 2 .1h3.3v-1h-2.3c-.2 0-.9 0-2 .1v-1.2c1.2 0 1.9.1 2 .1h2.3v-.8h-4.1c0-.7.1-1.2.1-1.6 0-.5 0-1.1-.1-1.8h4.1v-.7h-2.5c0-.6.1-1.1.1-1.6v-.6h-.5c-.4 0-1 0-1.8.1v-1.3c1.2 0 1.9.1 2.1.1h.2c0-.3 0-.8-.1-1.4h1.4c0 .6-.1 1-.1 1.4h3.4c0-.4 0-.8-.1-1.3h1.5c0 .4-.1.9-.1 1.3.7 0 1.5 0 2.5-.1v1.2c-1 0-1.8-.1-2.5-.1v.6c0 .3 0 .8.1 1.5h-2.5v.8h4.1c0 .7-.1 1.3-.1 1.8s0 1 .1 1.5h-4.1v.8h1.4c.8 0 1.8 0 2.9-.1v1.2c-1 0-1.9-.1-2.8-.1h-1.5v1h3.2c.3 0 1 0 2.1-.1v1.2c-1.1 0-1.8-.1-2.1-.1h-3.4l-.1.1c1.4 1 2.4 1.5 3.4 1.9zm-4.1-6.7v-1.3h-2.7v1.3zm2.2-4.1v-1.1h-3.4v1.1zm1.9 4.1v-1.3h-2.8v1.3z" fill="#fafbfa"/><path d="m37 6.7v2.3 5.4c1 0 1.8 0 2.2-.1v1.3c-.6 0-1.5-.1-2.5-.1h-11.9c-.7 0-1.3 0-1.8.1v-1.3c.5 0 1.1.1 2 .1v-5.2c0-1 0-1.8-.1-2.5h3.7c0-1.3 0-2.1-.1-2.5h1.5c0 .4-.1 1.3-.1 2.5h2.2c0-1.2 0-2.1-.1-2.6h1.5c0 .4-.1 1.3-.1 2.6zm-12.3 13.7c-.3-.4-.7-.8-1.1-1.1 1.1-.4 2.1-.9 2.9-1.3.8-.5 1.5-1 2.1-1.6.4.4.9.8 1.3 1.1-2.5 1.4-4.2 2.4-5.2 2.9zm3.9-10.1v-2.4h-2.2v2.4zm0 4.1v-2.9h-2.2v2.9zm3.5-4.1v-2.4h-2.2v2.4zm0 4.1v-2.9h-2.2v2.9zm.4 2.9 1-1.1c.6.3 1.4.7 2.5 1.3s2 1.1 2.7 1.5c-.4.4-.8.8-1.1 1.3-.8-.8-2.5-1.7-5.1-3zm3.1-7v-2.4h-2.1v2.4zm0 4.1v-2.9h-2.1v2.9z" fill="#fafbfa"/><g fill="#010103"><path d="m203.41 267.71c2.67 1.9 5.38 3.76 8.01 5.71 5.1 3.77 10.17 7.58 15.25 11.39 1.94 1.46 3.1.47 3.85-1.31.47-1.11.97-2.36.93-3.52-.34-8.47-.38-16.91-4.49-24.81-2.71-5.21-4.7-10.85-6.47-16.46-1.44-4.59-3.3-8.69-7-11.9-1.58-1.37-2.86-3.09-5.01-5.46 4.91-1.05 9.07-2.28 13.31-2.8 16.37-2.02 32.58.75 48.83 2.16 1.18.1 2.56 1.85 3.25 3.15 2.97 5.64 2.78 5.59-1.4 10.33-9.62 10.91-19.11 21.94-28.68 32.9-2.85 3.27-2.78 6.94-1.51 10.71.25.75 1.42 1.73 2.12 1.7 2.16-.12 4.62-.13 6.37-1.18 4.39-2.65 8.45-5.83 12.63-8.82 2.27-1.63 4.45-3.36 6.75-4.95 1.7-1.18 3.33-1.13 4.61.74 1.23 1.78 1.45 3.66-.24 5.14-4.87 4.28-9.66 8.69-14.86 12.55-5.01 3.73-10.55 6.75-15.69 10.32-1.14.79-2.19 2.54-2.27 3.9-.57 9.83-.78 19.68-1.35 29.51-.15 2.55.72 4.16 3 4.24 4.32.16 8.66-.07 12.97-.44.75-.06 1.68-1.48 1.99-2.45.9-2.75 1.28-5.68 2.35-8.35.58-1.45 2.16-2.51 3.28-3.75 1.07 1.08 2.91 2.06 3.07 3.26.53 3.92 1.09 8.03.47 11.89-1.57 9.83-3.98 19.41-9.53 28.01-5.03 7.79-11.55 12.84-21.04 12.68-5.1-.09-10.54-.25-15.16-2.07-3.84-1.52-7.77-4.9-9.82-8.5-7.34-12.87-8.24-26.7-3.81-40.82.31-1 1.6-2.31 2.5-2.36 1.3-.07 3.12.5 3.88 1.46 1.71 2.17 3.06 4.67 4.27 7.18 1.59 3.31 4.19 4.64 7.61 4.03 1.13-.2 2.64-1.32 2.98-2.34.8-2.41 1.29-5 1.39-7.54.24-6.15.06-12.31.31-18.46.12-3.04-1.04-5-3.48-6.63-5.3-3.54-10.49-7.24-15.73-10.88-4.26-2.96-7.61-6.6-8.8-11.82-.34-1.5-.41-3.06-.61-4.59.33-.25.65-.5.97-.75zm38.16 72.37c-.04-.27-.09-.54-.13-.8-6.45 1.1-12.9 2.18-19.33 3.32-2.11.37-2.72 1.8-2.79 3.88-.28 8.5 3.95 13.58 12.86 15.34 13.96 2.75 20.67-6.23 22.37-17.74.35-2.35-.65-3.95-3.27-3.98-3.24-.05-6.47-.02-9.71-.02zm-3.05-86.37c2.66-2.17 4.73-4.28 7.18-5.79 5.51-3.41 7.42-8.68 8.25-14.63.64-4.58-1.66-7.3-6.31-7.46-1.67-.06-3.38.04-4.99-.3-3.54-.75-9.88 3.14-10.21 6.8-.69 7.71 1.19 14.8 6.08 21.38z"/><path d="m116.62 286.75c3.66.49 6.65.5 9.39 1.34 6.48 2 12.84 4.4 19.91 6.86.78-2.92 2.17-5.77 2.16-8.62-.01-6.8-.6-13.61-1.15-20.4-.08-1.03-1.04-2.12-1.85-2.93-7.71-7.64-13.96-16.27-18.03-26.38-.65-1.62-.93-3.39-1.5-5.54 3.99-.4 7.6-.79 11.23-1.11 10.47-.92 20.93-2.09 31.42-2.55 4.12-.18 8.33 1.11 12.44 2.03 1.15.26 2.32 1.41 3.04 2.46 1.25 1.83 1.66 3.74-1.16 4.76-4.52 1.62-7.48 4.95-10.18 8.79-1.84 2.62-4.17 5.02-6.68 7.02-6.09 4.83-7.69 11.17-7.08 18.5.41 4.9.65 9.82.94 14.73.18 3.01 1.9 3.87 4.7 2.41 4.25-2.23 8.5-4.47 12.84-6.51.87-.41 3.02-.16 3.08.12.35 1.57.95 4.09.17 4.75-5.43 4.61-10.99 9.14-16.92 13.06-2.34 1.54-3.75 2.93-3.79 5.6-.07 4.02.08 8.04-.13 12.05-.17 3.31-.73 6.61-1.16 10.32 3.74.34 7.48.93 11.21.87 1.19-.02 2.46-1.66 3.5-2.74 3.68-3.81 6.71-3.6 9.76.78.77 1.1 1.81 2.1 2.24 3.32.46 1.29.56 2.81.44 4.2-.13 1.52-1.15 3.04-1 4.48.87 8.53-1.92 16.56-5.76 23.44-3.78 6.77-9.76 13.06-19.01 12.99-5.69-.05-11.53.3-17.02-.84-6.42-1.34-10.97-6.24-13.36-12.12-4.25-10.43-4.48-21.35-1.46-32.24.99-3.56 3.18-4.21 6.12-1.92 2.78 2.16 5.77 3.65 9.28 2.41 1.26-.44 2.83-1.67 3.14-2.83.76-2.86 1.01-5.89 1.2-8.87.2-3.12-.43-6.38.26-9.35.76-3.28-.57-4.41-3.2-5.26-5.52-1.79-11.05-3.57-16.52-5.5-5.16-1.79-9.53-4.49-11.51-11.58zm37.06 77.79c2.11-.09 4.34.2 6.3-.39 2.02-.6 5.03-1.71 5.44-3.19 1.64-5.99 2.56-12.19 3.43-18.35.16-1.11-.89-3.2-1.8-3.49-2.15-.68-4.59-.86-6.86-.66-3.32.29-6.64.95-9.89 1.73-3.01.72-5.97 1.71-8.88 2.78-2 .74-2.95 2.17-2.13 4.48 1.11 3.13 1.81 6.43 3.1 9.48 2.08 4.86 4.79 9.11 11.29 7.61zm-12.11-124.65c-.13.54-.26 1.09-.4 1.63 2.41 2.58 4.86 5.12 7.2 7.75 1.68 1.88 3.88 1.98 5.37.55 2.69-2.58 5.12-5.52 7.19-8.63 1.41-2.11.24-3.85-2.34-3.58-5.69.61-11.34 1.5-17.02 2.28z"/><path d="m243.19 28.62c1.64 2.87 2.74 4.8 4.08 7.14-2.94 2.19-5.8 4.46-8.8 6.51-1.58 1.08-1.81 2.09-1.23 3.91 1.88 5.89 3.86 11.59 8.99 15.67 1.97 1.57 3.46 3.8 4.99 5.86 2.22 3 2.67 5.23 2.12 8.96-3.39-.28-6.14-1.73-8.33-4.3-3.55-4.18-6.99-8.45-10.65-12.52-1.23-1.37-2.9-2.48-4.56-3.33-4.68-2.4-7.51-1.29-11.87 1.42-9.9 6.16-11.56 15.68-11.93 25.99-.04 1.23-.08 2.46-.08 3.69-.02 5.84.84 7.04 6.69 7.77 4.2.53 8.47.52 12.71.79 1.22.08 2.52.09 3.62.52.73.29 1.61 1.24 1.67 1.95.08.91-.42 2.57-.99 2.73-3.05.84-6.3 2.12-9.31 1.75-11.57-1.41-15.59 1.76-15.81 13.34-.17 8.99 3.1 12.38 12.25 12.59 2.46.06 5-.39 7.36.07 3.03.6 5.91 1.89 8.86 2.88-.03.62-.05 1.24-.08 1.86-3.94.86-7.86 1.91-11.84 2.52-3.3.51-6.71.25-10.01.78-5.22.84-6.81 2.54-7.72 7.75-.42 2.41-.53 4.89-.71 7.34-.36 4.82-2.04 6.63-7.58 7.49-.35-2.83-.8-5.65-1-8.48-.12-1.66.29-3.35.26-5.02-.09-4.49-.88-5.59-5.17-6.18-5.95-.81-11.94-1.31-17.92-1.94-.89-.09-2.02.08-2.6-.4-.93-.78-1.93-1.95-2.08-3.07-.12-.86.83-2.51 1.61-2.74 3.6-1.05 7.29-1.87 11-2.48 3.29-.54 6.66-.54 9.95-1.06 3.28-.52 5.19-2.76 5.31-6.01.17-4.68 0-9.38-.1-14.07-.04-1.87-.96-3.25-2.94-3.38-5.08-.33-10.17-.71-15.26-.73-3.86-.02-5.83-.92-6.61-3.71-.52-1.85-.29-3.04 1.94-3.23 4.22-.36 8.44-.75 12.65-1.22 2.43-.28 4.85-.7 7.25-1.15 2.47-.47 3.09-2.1 2.9-4.47-.43-5.56-.45-11.16-1.07-16.7-.96-8.5-5.43-15.08-12.49-19.69-3.21-2.09-8.45-.3-10.47 3.07-5.56 9.29-10.96 18.68-16.64 27.89-.77 1.25-2.71 2.09-4.25 2.39-.64.12-2.04-1.54-2.42-2.62-1.12-3.18-1.26-6.06 1.96-8.63 4.62-3.68 5.59-9.49 7.45-14.74.92-2.62 1.5-5.51 3.04-7.71 2.66-3.81 3.57-7.71 3.14-12.27-.22-2.32-.64-4.01-2.86-5.12-1.69-.84-3.2-2.05-4.79-3.09-2.85-1.87-4.02-4.39-2.89-8.25 5.17 2.47 10.29 4.85 15.34 7.36 4.7 2.33 9.25 5 14.03 7.16 5.23 2.36 9.43 5.87 13.19 10.1 4.04 4.55 7.92 4.95 12.93 1.35 6.63-4.76 13-9.93 19.86-14.32 4.91-3.1 10.45-5.26 15.91-7.97z"/></g></svg>