<svg enable-background="new 0 0 400 400" viewBox="0 0 400 400" xmlns="http://www.w3.org/2000/svg"><g fill="#010100"><path d="m225.08 242.93c-4.96 2.8-9.6-.5-14.4-1.81-4.72-1.29-9.25-3.43-14.02-4.42-5.2-1.08-10.1-.37-14.87 3.03-7.71 5.49-17.1 7-26.19 8.81-6.71 1.33-13.3 2.6-19.31 6.2-2.41 1.45-5.48 1.84-8.28 2.57-11.71 3.04-15.11 8.01-13.59 19.87 1.01 7.9 2.31 16.02-.58 23.6-2.38 6.24-1.86 12.44-2.32 18.73-.35 4.75-1.39 9.48-2.49 14.14-1.53 6.5-3.36 12.92-5.14 19.35-.35 1.25-.85 2.62-1.7 3.55-2.67 2.94-6.24 2.52-7.29-1.18-1.03-3.66-2.24-7.95-1.28-11.38 5.32-19.17 5.39-38.95 7.6-58.47.49-4.32.53-8.7.66-13.05.06-2.23-.88-3.67-3.33-4.29-3.09-.78-5.03-2.76-4.68-6.31.11-1.11.17-2.29-.12-3.34-1.56-5.79 1.43-8.84 6.4-10.44 10.08-3.26 20.08-6.93 30.37-9.34 12.31-2.89 23.87-7.16 34.83-13.5 8.2-4.75 16.88-8.67 25.45-12.72 1.55-.73 3.8-.86 5.45-.37 6.83 2.05 13.29 4.8 16.82 11.71.6 1.18 1.52 2.19 2.58 2.36 2.59.47 5.47.38 7.7 1.54 4.54 2.36 8.7 5.44 13.08 8.12 1.68 1.03 3.45 2.05 5.32 2.58 4.94 1.4 9.94 2.66 14.96 3.73 2.81.6 5.03 1.74 6.28 4.37 1.14 2.41 3.18 3.42 5.65 3.46 4.73.09 8.91 1.72 13.01 3.91 2.65 1.41 5.62 2.23 8.27 3.64 1.72.91 3.48 2.15 4.59 3.7 2.26 3.16 1.92 4.74-1.45 6.64-2.6 1.47-3.51 3.25-3.1 6.2 1.31 9.41 2.4 18.86 3.62 28.28.72 5.59 1.05 11.14-1.15 16.53-.26.64-.29 1.54-.05 2.19 3.43 9.56 3.62 19.52 3.53 29.48-.01 1.73-1.6 3.42-1.72 5.19-.16 2.38.25 4.84.68 7.21.46 2.58 1.51 5.09 1.73 7.68.16 1.89-.1 4.58-2.74 4.61-2.51.03-5.15-.77-5.76-3.97-1.61-8.45-3.95-16.84-4.66-25.37-1.14-13.8-1.14-27.69-1.79-41.54-.07-1.57-1.19-3.1-1.81-4.65-.47-1.17-1.23-2.34-1.32-3.54-.47-6.58-.51-13.2-1.2-19.76-1.11-10.7-6.68-16.42-17.34-17.57-8.33-.9-15.12-5.13-22.19-8.96-2.46-1.33-5.43-1.71-7.96-2.96-1.65-.84-2.91-2.44-4.75-4.04z"/><path d="m134.01 370.71c.01-3.65 1.07-6.38 3.96-8.57 6.32-4.8 12.48-9.83 18.63-14.86 5-4.09 9.2-8.8 11.09-15.21.61-2.05.41-3.44-1.52-4.83-3.9-2.81-7.62-5.88-11.29-8.99-4.26-3.61-5.42-8.21-4.07-13.45 4.13-.99 7.16-.07 10.07 2.99 4.6 4.86 10.07 8.49 17.16 8.83 1.85.09 2.87-.37 3.57-2.13 1.2-3 2.63-5.92 4.15-9.28-2.3-1.48-4.48-3.25-6.95-4.39-5.38-2.48-7.39-7-7.65-12.38-.29-6.02-.08-12.07-.07-18.1.01-2.64 1.15-4.52 3.84-5.11 3.91-.85 7.83-1.68 11.77-2.39 3.4-.61 6.95-.65 10.21-1.64 2.85-.86 5.33-.96 8.05.16 2.37.97 4.94 1.44 7.31 2.42 1.93.8 3.92 1.76 5.45 3.13 3.86 3.46 4.02 6.04 1.12 10.27-.8 1.17-1.58 2.36-2.49 3.73 1.07.56 1.85.94 2.6 1.36 1.28.72 3.66 1.55 3.61 2.21-.17 2.46-.38 5.63-1.93 7.16-4.6 4.55-8.87 9.79-16.05 10.84-2.06.3-3.9 2.17-6.16 3.51 1.62 1.7 2.66 2.8 3.65 3.84-2.66 2.41-5.22 4.74-7.69 6.97 2.58 3.66 5.26 4.1 8.85 3.16 9.93-2.59 19.96-4.8 29.95-7.16 1.8 4.36 1.6 4.97-1.91 7.84-5.83 4.77-12.68 6.87-19.97 7.98-3.2.49-6.33 1.42-9.53 1.87-10.16 1.42-16.66 8.54-23.64 14.94-.4.36-.76.89-.88 1.4-1.28 5.31-5.21 8.47-9.38 11.33-5.61 3.86-11.16 7.87-17.09 11.19-5.16 2.94-10.94 3.41-16.77 1.36zm59.31-82.75c2.95-1.18 6.08-2.05 8.78-3.64 1.99-1.18 5.13-4.27 4.8-4.84-1.39-2.47-3.85-4.35-5.98-6.38-.37-.35-1.03-.39-1.56-.57-7.02-2.46-7.44-2.36-11.91 3.41-1.16 1.5-3.07 2.79-1.31 5.14 1.92 2.54 1.94 7.11 7.18 6.88z"/><path d="m151.17 111.19c-3.38 2.84-6.94 2.98-10.65 2.21-3.72-.77-7.39-1.8-11.13-2.41-4.11-.67-6.35.77-7.7 4.71-2.49 7.23-1.06 14.43.78 21.47 2.36 9 5.35 17.79 11.77 24.94-4.46 2.61-5.35 2.55-8.58-.66-3.89-3.86-7.79-7.72-11.55-11.71-6.73-7.14-9.28-15.85-9.43-25.47-.06-3.8-.39-7.6-.75-11.39-.42-4.52-.33-8.95 1.9-13.05 1.57-2.89-.58-5.07-1.16-7.58-.3-1.32-.47-3.3.26-4.14 8.69-9.92 12.54-21.92 15.88-34.35 2.63-9.77 6.38-19.23 9.58-28.68 5.43.84 7.83 3.22 7.65 7.67-.13 3.08-.96 6.15-1.67 9.18-1.07 4.57-2.31 9.09-3.48 13.64-.96 3.74.07 6.68 3.69 8.26 4.9 2.14 9.89 4.05 14.82 6.11 3.08 1.29 6.17 2.57 9.16 4.04 1.01.5 1.74 1.58 2.97 2.74-6.44 2.57-12.63 2.76-18.84 2.76-3.36 0-6.71-.22-10.07-.19-6.4.05-9.72 3.17-10.23 9.51-.08 1 .01 2.02-.05 3.02-.2 3.34 1.11 5.41 4.28 7.01 7.58 3.84 14.91 8.13 22.55 12.36z"/><path d="m285.13 89.12c-4.86-1.32-9.12-.16-13.3 1.55-3 1.23-5.89 2.74-8.95 3.78-4.01 1.37-6.25.59-8.75-2.75 3.35-2.68 6.78-5.29 10.07-8.08 3.4-2.89 6.87-5.75 9.91-8.99 3.15-3.35 4.25-7.17 2.26-11.93-4.26-10.18-8.05-20.57-12.25-31.43 4.03 2.63 7.81 5.06 11.53 7.56.38.26.79.99.69 1.38-.96 3.89 2.19 4.54 4.48 5.97.96.6 2.01 1.45 2.43 2.43 2.2 5.21 4.37 10.45 6.25 15.78 2.12 5.99 4.1 12.03 5.82 18.15 1.9 6.78 3.42 13.66 5.1 20.49.24.97 1 2.32.62 2.86-2.91 4.11.1 8.16-.1 12.21-.34 6.93.13 14.03-1.3 20.72-1.07 5.03-3.82 10.21-7.2 14.12-4.26 4.92-9.76 8.86-15.05 12.77-4.88 3.6-10.5 4.71-16.4 2.95-1.12-3.17-.03-4.84 2.75-6.26 10.72-5.48 15.53-15.37 18.62-26.27 1.23-4.34 1.65-8.9 2.64-14.55-4.88.99-8.75 1.71-12.6 2.59-2.82.64-5.57 1.88-8.41 2.09-1.52.11-3.16-1.38-4.75-2.15.71-1.34 1.11-3.02 2.17-3.96 6.81-5.98 13.71-11.86 20.71-17.63 1.82-1.5 2.62-3.06 2.56-5.4-.06-2.55.27-5.11.45-8z"/><path d="m231.49 25.69c5.03 2.01 7.31 5.61 8.26 10.28-5.28 1.45-5.47 1.47-4.86 6.92.36 3.28-.3 5.13-3.79 6.03-1.54.4-3.17 2.03-3.94 3.52-2.49 4.78-4.82 9.55-9.55 12.65-2.33 1.52-1.27 3.81-.23 5.31 1.63 2.35 3.65 4.52 5.87 6.34 4.27 3.5 8.71 6.89 10.7 12.2.83 2.2 1.34 5.5.26 7.19-1.49 2.34-4.8 2.33-7.71 1.51-4.05-1.15-7.81-2.71-10.45-6.21-.27-.35-.67-.61-.91-.98-4.98-7.42-11.93-6.15-18.89-4.08-1.25.37-2.22 2.05-3.1 3.29-3.45 4.85-7.44 8.89-13.82 9.94-1.03-3.88-.55-7.49 1.4-10.75 3.24-5.43 6.66-10.75 10.12-16.04 1.77-2.7 1.56-5.41-.82-7.81-4.72-4.77-9.51-9.48-14.05-14.42-3.87-4.21-6.09-9.31-6.87-15.21 3.51-1.01 6.67-1.41 9.99 1.1 4.45 3.36 9.44 6.01 13.94 9.31 2.15 1.57 4.04 3.74 5.46 6 2.1 3.33 5.45 4.14 8.42 1.42 9.09-8.3 18.47-16.34 24.57-27.51z"/><path d="m172.96 199.04c-4.14-4.38-3.4-12.76 1.09-16.13 3.21-2.42 6.5-4.83 9.26-7.72 3.34-3.5 5.73-6.98-.73-11.06-4.07-2.56-8.11-5.16-12.15-7.76-4.05-2.61-7.12-6.06-9.32-11.03 6.11 0 11.94-.04 17.77.06.61.01 1.19.94 1.82 1.4 4.13 3.05 8.18 6.23 12.45 9.07 2.87 1.91 5.47 1.61 8.34-1.04 5.82-5.38 12-10.39 18.28-15.24 4.01-3.09 12.07.58 12.31 5.49.07 1.4-.72 3.26-1.75 4.21-3.45 3.18-7.19 6.04-10.8 9.06-.85.72-1.64 1.53-2.37 2.37-4.58 5.25-4.46 7 .94 11.02 4.58 3.41 9.26 6.66 13.86 10.04 4.43 3.26 7.81 7.26 9.35 12.72.63 2.22-.14 3.43-2.13 3.48-2.16.05-4.65.04-6.43-.96-5.23-2.91-10.31-6.14-15.2-9.6-4.89-3.47-9.89-6.49-15.85-7.66-2.55-.5-4.64-.08-6.78 1.7-7.23 5.98-14.64 11.74-21.96 17.58z"/></g><path d="m377.9 391.2c-.2.3-.4.5-.6.8-.7-.6-1.4-1-2.2-1.5.2-.3.4-.5.5-.8.6.4 1.4.8 2.3 1.5zm-1.8 6.1c-.2-.2-.5-.4-.9-.6.4-.6.8-1.2 1.2-1.9s.7-1.3.9-1.9c.3.3.5.5.8.7-.7 1.3-1.4 2.6-2 3.7zm2.2-9c-.3.3-.5.5-.6.8-.6-.6-1.3-1.1-2-1.5.3-.3.5-.5.6-.7.6.5 1.3.9 2 1.4zm.3.2v-.9h2 4.5c-.3 1.3-.6 2.5-1 3.6s-.9 2.1-1.4 3c.4.5 1 1 1.6 1.4s1.2.8 1.9 1.1c-.3.2-.5.4-.8.8-.4-.3-1-.7-1.6-1.2s-1.2-1.1-1.6-1.6c-.5.6-1.1 1.1-1.7 1.6s-1.4.9-2.1 1.4c-.1-.3-.3-.5-.7-.8.6-.2 1.2-.5 1.9-1s1.4-1.1 2-1.8c-.5-.8-.9-1.6-1.2-2.5s-.6-2-.8-3.2c-.4.1-.7.1-1 .1zm2.5 2.7c.3 1 .7 1.7 1 2.2.3-.5.6-1.1 1-2s.6-1.9.9-3h-3.2-.4c.1.9.3 1.8.7 2.8z" fill="#fcfbfa"/><path d="m396.5 388.5v1.5 3.6h1.5v.9c-.4 0-1 0-1.7 0h-7.9c-.5 0-.9 0-1.2 0v-.9h1.3v-3.5c0-.7 0-1.2 0-1.6h2.4c0-.8 0-1.4 0-1.7h1c0 .3-.1.8-.1 1.7h1.5c0-.8 0-1.4 0-1.7h1c0 .3-.1.9-.1 1.7zm-8.2 9.2c-.2-.3-.5-.5-.8-.8.8-.3 1.4-.6 1.9-.9s1-.7 1.4-1.1c.3.3.6.5.9.8-1.6 1-2.8 1.6-3.4 2zm2.6-6.8v-1.6h-1.5v1.6zm0 2.7v-1.9h-1.5v1.9zm2.4-2.7v-1.6h-1.5v1.6zm0 2.7v-1.9h-1.5v1.9zm.2 2 .7-.8c.4.2.9.5 1.6.8s1.3.7 1.8 1c-.3.3-.5.5-.8.8-.4-.3-1.5-1-3.3-1.8zm2-4.7v-1.6h-1.4v1.6zm0 2.7v-1.9h-1.4v1.9z" fill="#fcfbfa"/></svg>