<svg enable-background="new 0 0 400 400" viewBox="0 0 400 400" xmlns="http://www.w3.org/2000/svg"><path d="m5.17 384 .55-.58c.85.61 1.65 1.24 2.4 1.87l-.59.64c-.83-.73-1.62-1.38-2.36-1.93m1.22 9.53-.82-.34c.71-1.76 1.37-3.64 1.98-5.63.24.13.5.25.76.36-.6 1.67-1.24 3.54-1.92 5.61m-.5-13.5.57-.54c.56.44 1.31 1.06 2.26 1.87l-.64.64c-.68-.66-1.41-1.32-2.19-1.97m3.25.46h2.24v-1.36h.77v1.36h4.57v-1.36h.76v1.36h2.28v.69h-2.28v1.84h-2.64v1.26h4.18v2.64h-4.21c0 .45-.02.86-.05 1.21h4.32v.69h-4.38c-.04.34-.1.75-.19 1.22h5.15v.69h-4.82c.87 1.19 2.51 1.92 4.93 2.19-.17.31-.3.57-.37.76-2.77-.49-4.52-1.41-5.26-2.76-.56 1.26-2.3 2.23-5.24 2.9-.12-.24-.26-.48-.43-.72 2.73-.55 4.38-1.34 4.96-2.38h-4.38v-.69h4.65c.1-.38.17-.79.21-1.22h-4.32v-.69h4.4c.03-.34.05-.75.05-1.21h-4.2v-2.64h4.23v-1.26h-2.69v-1.84h-2.24zm1.46 4.46v1.29h3.45c.01-.4.02-.57.01-.53v-.32-.45h-3.46zm1.55-2.59h4.57v-1.19h-4.57zm6.11 2.59h-3.42v.77c-.01.19-.01.37-.02.53h3.44z" fill="#fafafc"/><path d="m32.63 379.16h.82v1.98h3.54v7.89h1.46v.78h-14.37v-.78h1.46v-7.89h3.54v-1.98h.82v1.98h2.73zm-3.49 11.48.5.73c-1.61.82-3.28 1.63-5 2.41-.13-.27-.28-.55-.44-.82 1.75-.72 3.4-1.49 4.94-2.32m-2.78-5.55h2.73v-3.18h-2.73zm0 3.95h2.73v-3.2h-2.73zm3.54-3.95h2.73v-3.18h-2.73zm0 3.95h2.73v-3.2h-2.73zm7.89 4.68c-1.84-.92-3.51-1.7-5.02-2.32l.45-.73c1.89.8 3.57 1.55 5.04 2.23zm-1.62-11.81h-2.73v3.18h2.73zm-2.73 7.13h2.73v-3.2h-2.73z" fill="#fafafc"/><g fill="#010101"><path d="m288.68 168.93c-2.62-.65-5.54-.76-7.79-2.04-5.6-3.19-11.19-6.54-16.23-10.52-7.63-6.03-14.76-12.69-22.15-19.03-8.7-7.47-14.46-17.29-21.14-26.37-.85-1.15-1.67-2.32-2.56-3.55-10.51 11.38-24.45 13.21-38.35 14.83-9.43 1.1-9.46.81-11.55 9.99-.17.75-.32 1.51-.5 2.42 12.32 5.27 24.56 10.37 38.2 10.6 3.75.06 7.5.53 10.89 3.37-5.97 2.34-11.73 2.28-17.4.97-8.59-1.99-17.08-4.39-25.62-6.55-.99-.25-2.77-.51-2.97-.12-.51.97-.66 2.39-.38 3.47 2.12 8.17 5.74 10.15 14.11 8.62 3.16-.58 6.51-.09 9.77-.09.06.34.12.69.18 1.03-2.55 1.03-5.16 1.92-7.62 3.14-2.41 1.19-4.65 2.72-7.51 4.43 4.65 3.67 8.81 4.77 13.53 3.15 1.9-.65 3.71-1.55 5.62-2.18 2.73-.9 4.82-.15 6.18 3.35-2.76.87-5.52 1.54-8.09 2.65-1.48.64-2.67 1.98-3.98 3 .99 1.2 1.75 2.84 3.02 3.54 11.74 6.48 24.41 9.73 37.76 10.55 1.53.09 3.03.86 4.54 1.32-.09.37-.19.74-.28 1.11-6.06 0-12.13.25-18.17-.05-11.43-.57-21.83-4.38-31.37-10.66-4.29-2.83-8.91-2.45-13.54-.95-6.9 2.24-13.78 4.55-20.7 6.76-2.64.84-4.86.44-6.15-3.19 5.61-1.74 11.15-3.36 16.63-5.18 3.48-1.16 7.04-2.28 10.25-3.99 3.5-1.87 3.3-3.04 1.14-6.2-2.13-3.12-4-3.2-7.63-1.99-6.3 2.1-13.05 2.86-19.62 4.12-3.18.61-6.47.82-9.57 1.68-2.77.76-4.17-.37-5.65-2.88 11.88-2.84 23.51-5.63 35.98-8.62.79-1.5.21-3.72-1.39-6.24-2.13-3.36-3.65-7.12-5.58-11.02-12.87 6.33-24.81 15.31-40.08 14.28-.13-.32-.26-.64-.4-.96 3.05-1.42 6.06-2.93 9.16-4.24 4.53-1.91 9.15-3.6 13.67-5.52 3.29-1.4 6.4-3.2 9.72-4.51 6.53-2.58 7.41-7.98 7.11-13.91-.04-.77-1.4-2.01-2.27-2.12-5.31-.69-10.64-1.27-15.98-1.62-10.71-.71-21.43-1.11-32.12-1.96-2.16-.17-4.2-1.8-6.29-2.76.14-.47.29-.94.43-1.41 2.46.14 4.93.29 7.39.41 12.51.6 25.01 1.47 37.52 1.69 11.21.2 12.84-1.37 15.7-12.26.65-2.48 1.19-5.01 1.6-7.54.68-4.19-.92-5.62-5.32-4.85-5.17.9-10.31 2.09-15.51 2.72-8.76 1.06-17.56 1.77-26.35 2.64-3.33.33-6.65.84-9.98.99-2.18.1-4.38-.29-6.57-.47-.03-.49-.06-.97-.08-1.46 1.97-.61 3.91-1.47 5.92-1.78 18.12-2.77 36.25-5.51 54.41-8.09 2.74-.39 4.12-1.25 4.56-4.11.52-3.39 1.57-6.69 2.49-10.45-7.11.65-13.87 1.24-20.63 1.9-7.9.77-15.83 1.39-23.69 2.48-5.05.7-10.02 2.08-15.01 3.21-2.73.62-5.45 1.52-8.15-.95 6.66-4.04 13.74-6.63 21.18-8.17 12.26-2.53 24.54-5.04 37.18-4.72 1.43.04 2.91-.18 4.3-.53 5.25-1.34 5.88-2.57 4.2-7.69-.52-1.59-1.02-3.19-1.53-4.79-1.56-4.85-3.12-9.42-7.28-13.15-4.45-3.99-6.96-9.51-5.82-16.32 4.57 1.9 7.82 5.1 10.58 8.69 6.57 8.57 12.54 17.51 13.17 28.8.13 2.26 1.27 3.25 3.23 3.52 6.64.93 13.29 1.74 19.93 2.67 2.65.37 5.28.92 7.92 1.39 3.66.65 6.27 2.43 7.64 6.13.63 1.69 2.08 3.14 3.34 4.52 4.99 5.44 6.11 10.07 2.61 16.47-2.52 4.6-1.76 7.48 1.47 11.56 14.19 17.92 29.71 34.35 48.97 46.93 3.28 2.14 6.65 4.15 9.78 6.49 1.7 1.27 2.98 3.11 4.45 4.7-.33.46-.61.97-.88 1.47zm-76.56-68.72c-2.1-1.5-3.9-3.27-6.07-4.24-7.91-3.53-16.43-3.99-24.92-4.03-2.24-.01-4.14 1.33-4.68 4-1.07 5.24-2.34 10.45-3.46 15.68-.68 3.15.59 4.54 3.67 3.83 5.86-1.36 11.73-2.73 17.52-4.38 6.75-1.94 12.65-5.45 17.94-10.86zm5.37-6.14c-2.95-14.68-17.51-20.65-36.25-21.07-.92 4.64-3.07 9.19-1.19 14.33 2.85 0 5.53.09 8.2-.02 7.9-.31 15.54.09 22.28 5.16 1.6 1.21 4.24 1.03 6.96 1.6z"/><path d="m145.57 229.84c1.2 3.08 1.97 6.43 3.68 9.19 3.38 5.45 4.51 11.03 3.11 17.29-1.93 8.66-4.39 17.11-9.06 24.74-4.42 7.22-10.59 12.2-18.73 14.61-1.53-2.61-.74-4.27 1.05-6.12 16.8-17.38 21.05-40.85 11.37-62.59-.66-1.48-1.69-2.89-2.86-4.02-4.11-3.96-8.3-7.84-12.56-11.64-5.52-4.93-9.73-10.74-12.45-17.65-.77-1.96-2.06-3.72-2.77-5.7-.62-1.71-.75-3.6-1.09-5.41.37-.12.74-.24 1.1-.35 4.1 5.69 8.23 11.37 12.3 17.08 3.35 4.71 6.41 9.49 12.33 11.76 3.23 1.24 5.76 4.21 8.82 6.04 8.88 5.33 18.73 5.37 28.64 4.9 7.7-.37 15.4-.63 23.08-1.26 3.94-.32 7.84-1.3 11.73-2.08 1.19-.24 2.3-.87 3.49-1.18 11.83-3.09 22.09-8.9 30.53-17.77 2.04-2.15 3.73-4.63 5.57-6.96 3.68 3.19 3.48 9.32-.79 12.29-7.62 5.3-15.06 10.93-23.02 15.65-7.39 4.38-10.15 11.06-10.22 18.72-.07 7.88 1.28 15.77 2.07 23.65.38 3.78 1.12 7.54 1.25 11.33.15 4.29 1.48 7.99 3.86 11.51 2.3 3.41 4.29 7.03 6.62 10.89-3.04.48-5.23.43-7.29-2.06-4.34-5.27-7.8-10.97-9.41-17.58-1.87-7.7-4.26-15.46-4.67-23.28-.37-6.88 1.65-13.89 2.68-20.84.18-1.19.71-2.33 1.25-4.04-6.87.63-13.39 1.15-19.89 1.83-6.41.68-6.83 1.1-7.99 7.42-.4 2.2-.58 4.44-.81 6.66-.39 3.84.53 6.98 3.41 9.98 8.7 9.05 9.33 20.23 6.9 31.72-1.26 5.98-3.49 11.76-5.34 17.61-.22.71-.72 1.41-1.25 1.94-6.34 6.28-8.2 14.03-8.05 22.68.12 6.79-.17 13.61-.63 20.39-.16 2.32-1.37 4.56-2.09 6.84-.42 0-.84-.01-1.26-.01-.62-3.52-1.7-7.03-1.79-10.57-.4-15.16 3.12-29.74 7.34-44.14 1.24-4.22 4.01-8.08 4.76-12.34 1.68-9.59.71-19.16-2.37-28.45-.33-.98-1.09-1.81-1.95-3.19-4.56 6.91-7.47 13.95-7.71 21.59-.25 8.34.51 16.71.95 25.06.12 2.39.44 4.7-2.12 6.59-3.38-4.55-5.13-9.67-5.54-15.12-.6-8.03-1.02-16.11 2.1-23.85.36-.89.52-2.02.31-2.93-1.1-4.61.18-8.8 1.85-13.02 2.91-7.35 5.7-14.75 8.61-22.33-8.51-1.43-17.17-2.89-25.83-4.35-.42.31-.82.59-1.22.87z"/><path d="m112.07 364.83c15.96-.7 31.7-1.42 47.44-2.08 13.51-.56 27.02-1.27 40.54-1.51 10.28-.19 20.57.22 30.86.4 1.34.02 2.82-.08 3.96.46 1.17.56 2.66 1.76 2.79 2.83.18 1.39-.44 3.74-1.44 4.24-2.81 1.42-5.94 2.67-9.03 2.95-4.19.37-8.5-.64-12.71-.34-9.57.68-19.11 1.82-28.67 2.71-2.77.26-5.56.38-8.35.43-16.75.31-33.49.58-50.24.83-2 .03-4.04.06-6-.28-6.9-1.19-7.41-1.84-9.15-10.64z"/></g></svg>