<svg enable-background="new 0 0 400 400" viewBox="0 0 400 400" xmlns="http://www.w3.org/2000/svg"><path d="m5.17 384 .55-.58c.85.61 1.65 1.24 2.4 1.87l-.59.64c-.83-.73-1.62-1.38-2.36-1.93m1.22 9.53-.82-.34c.71-1.76 1.37-3.64 1.98-5.63.24.13.5.25.76.36-.6 1.67-1.24 3.54-1.92 5.61m-.5-13.5.57-.54c.56.44 1.31 1.06 2.26 1.87l-.64.64c-.68-.66-1.41-1.32-2.19-1.97m3.25.46h2.24v-1.36h.77v1.36h4.57v-1.36h.76v1.36h2.28v.69h-2.28v1.84h-2.64v1.26h4.18v2.64h-4.21c0 .45-.02.86-.05 1.21h4.32v.69h-4.38c-.04.34-.1.75-.19 1.22h5.15v.69h-4.82c.87 1.19 2.51 1.92 4.93 2.19-.17.31-.3.57-.37.76-2.77-.49-4.52-1.41-5.26-2.76-.56 1.26-2.3 2.23-5.24 2.9-.12-.24-.26-.48-.43-.72 2.73-.55 4.38-1.34 4.96-2.38h-4.38v-.69h4.65c.1-.38.17-.79.21-1.22h-4.32v-.69h4.4c.03-.34.05-.75.05-1.21h-4.2v-2.64h4.23v-1.26h-2.69v-1.84h-2.24zm1.46 4.46v1.29h3.45c.01-.4.02-.57.01-.53v-.32-.45h-3.46zm1.55-2.59h4.57v-1.19h-4.57zm6.11 2.59h-3.42v.77c-.01.19-.01.37-.02.53h3.44z" fill="#fafafc"/><path d="m32.63 379.16h.82v1.98h3.54v7.89h1.46v.78h-14.37v-.78h1.46v-7.89h3.54v-1.98h.82v1.98h2.73zm-3.49 11.48.5.73c-1.61.82-3.28 1.63-5 2.41-.13-.27-.28-.55-.44-.82 1.75-.72 3.4-1.49 4.94-2.32m-2.78-5.55h2.73v-3.18h-2.73zm0 3.95h2.73v-3.2h-2.73zm3.54-3.95h2.73v-3.18h-2.73zm0 3.95h2.73v-3.2h-2.73zm7.89 4.68c-1.84-.92-3.51-1.7-5.02-2.32l.45-.73c1.89.8 3.57 1.55 5.04 2.23zm-1.62-11.81h-2.73v3.18h2.73zm-2.73 7.13h2.73v-3.2h-2.73z" fill="#fafafc"/><g fill="#010101"><path d="m242.38 119.31c-1.78-.81-3.72-1.37-5.3-2.46-9.49-6.54-18.91-13.17-28.32-19.83-1.73-1.22-3.22-2.77-4.91-4.05-1.27-.96-2.69-1.74-4.77-3.06-.61 14.6-1.18 28.29-1.74 41.96 2.37.41 4.53.78 6.68 1.15-6.75 6.75-16.66 5.24-23.21 11.11.08.31.15.63.23.94 5.32-.95 10.62-2.01 15.96-2.8 2.73-.4 5.56-.54 8.3-.32.96.08 1.8 1.6 2.69 2.46-.86.55-1.67 1.45-2.59 1.58-5.3.75-10.65 1.15-15.93 1.99-4.11.65-8.15 1.76-12.15 3.16 8.1 4.48 16.56 4.38 25.11 3.12 7.16-1.05 14.26-1.4 21.23 1.01 1.53.53 2.97 1.3 4.96 2.18-7.18 3.51-14.15 3.42-21.2 3.07-9.93-.49-19.87-.79-29.79-1.33-2.99-.16-5.97-.76-8.93-1.31-4.92-.91-7.19.42-8 5.4-1.07 6.61-.65 13.16 1.92 19.45.3.72.68 1.41.96 2.14 4.94 13.02 11.41 25.03 20.87 35.51 5.35 5.93 10.02 12.71 11.04 21.11.59 4.85-.56 8.96-3.93 12.94-3.55 4.2-6.25 9.21-8.87 14.1-5 9.35-9.91 18.76-14.41 28.35-4.22 8.99-8.19 18.13-11.66 27.43-6.13 16.39-16.81 29.96-26.52 44.13-1.63 2.38-4.12 4.17-6.54 5.96-.32-4.14.24-7.47 2.92-10.87 5.16-6.55 10.3-13.35 14-20.77 10.23-20.49 19.87-41.28 29.46-62.08 5.58-12.11 8.56-24.97 8.57-38.33 0-3.23-1.37-6.52-2.39-9.69-4.43-13.75-10-27.02-17.04-39.66-.57-1.03-.82-2.3-.96-3.49-.85-7.55-1.52-15.12-2.44-22.67-.72-5.91 2.1-10.44 5.57-14.57 4.89-5.8 10.95-10.2 17.97-13.18 2.06-.87 4.12-1.72 6.19-2.57 7.83-3.18 7.49-3.18 7.67-11.49.21-9.93 1.41-19.84 1.53-29.77.05-4.45-1.11-9.03-2.41-13.34-1.05-3.48-4.08-3.72-6.61-1.09-10.65 11.03-21.15 22.2-32.06 32.96-4.07 4.01-9.12 7.04-13.72 10.51-.33-.26-.66-.53-1-.79.34-.84.49-1.86 1.06-2.51 12.7-14.45 25.45-28.86 38.2-43.27.37-.42.78-.8 1.16-1.21 4.6-4.98 3.72-9.09-2.61-11.59-2.19-.87-4.16-.77-5.76 1.66-9.12 13.92-19.7 26.59-32.48 37.36-2.18 1.84-3.54 4.63-5.59 6.66-1.47 1.46-3.47 2.39-5.57 3.18.32-5.6 3.51-9.45 6.92-13.03 5.71-5.99 11.79-11.63 17.51-17.61 8.14-8.5 12.95-18.92 16.74-29.9 1.66-4.81 3.65-9.49 8.2-13.15.28 4.5.7 9 .79 13.51.15 6.91 2.97 10.34 9.84 11.14 1.03.12 2.87-.59 3.18-1.37 1.37-3.45 2.88-7.01 3.29-10.65.62-5.5.38-11.1.52-17.27 4.24 2 5.28 5.02 5.57 8.45.13 1.56-.16 3.16.08 4.69.15.96.82 2.49 1.44 2.59.98.15 2.37-.42 3.14-1.15 2.22-2.13 4.22-4.49 6.84-7.34.57 2.17 1.05 3.39 1.2 4.64 1.12 9.66 7.73 16.52 12.85 23.93 2.97 4.3 8.39 6.86 12.55 10.39 2.8 2.38 5.42 5.01 7.93 7.7 1.17 1.25 1.9 2.92 2.41 4.75-18.29-7.23-30.47-20.93-39.79-37.4-5.95.77-8.48 4.4-9.19 9.67-.25 1.88-.46 3.77-.54 5.67-.25 5.95 1.76 10.36 6.94 14.11 11.14 8.07 21.76 16.85 32.45 25.52 2.13 1.73 3.61 4.26 5.39 6.42-.36.39-.73.8-1.1 1.21z"/><path d="m219.95 172c3.06 3.04 3.68 6.22 3.23 9.63-2.15 16.38-2.15 32.77-.23 49.17 1.58 13.5.52 26.84-2.99 39.92-1.11 4.16-4.42 7.19-8.48 8.36-1.75.51-4.73-.6-6.14-1.99-4.81-4.76-6-11.11-6.17-17.6-.33-12.75-.57-25.51-.67-38.27-.03-3.79.26-7.62.87-11.37 1.64-10.17.74-20.32-.06-30.46-.29-3.74-1.51-7.4-2.43-11.71 3.44 1.75 5.39 4.3 6.27 7.31 1.05 3.61 1.81 7.41 1.94 11.15.39 11.18.28 22.38.62 33.56.13 4.26 1.21 4.93 5.45 4.88 4.86-.05 5.02-.1 5.28-5.01.7-13.75 1.26-27.5 2.01-41.25.12-2.12.98-4.21 1.5-6.32zm-12.6 99.37c5.89-1.92 8.1-5.47 8.57-10.5.51-5.44 1.67-10.84 1.86-16.28.11-3.34-.86-6.79-1.78-10.06-.5-1.79-2.16-2.94-4.24-1.92-2.15 1.05-5.71.07-5.77 4.18-.12 7.48-.63 14.95-.48 22.42.08 4.02 1.18 8.03 1.84 12.16z"/><path d="m270.73 31.8c-7.35 0-14.51-.18-21.65.04-9.6.3-19.19 1.32-28.79 1.31-11.16-.01-22.31-.75-33.47-1.24-11.94-.52-23.88-1.07-35.81-1.74-1.43-.08-2.81-1-4.06-2.11 9.14-2.26 18.12-3.42 27.32-3.02 16.2.7 32.41 1.03 48.61 1.62 14.75.54 29.5 1.21 44.25 1.84 1.89.08 4.04-.05 3.6 3.3z"/></g></svg>