<svg enable-background="new 0 0 400 400" viewBox="0 0 400 400" xmlns="http://www.w3.org/2000/svg"><path d="m237.95 103.9c2.94 0 5.3-.18 7.62.08 1.16.13 2.59.77 3.29 1.66 4.77 6.07 9.42 12.24 14.01 18.44.76 1.03 1.31 2.36 1.51 3.62 1.7 10.49 3.36 20.98 4.85 31.5.18 1.28-.33 3.07-1.19 4-4.99 5.35-5.3 11.85-4.9 18.55.04.67.67 1.39 1.18 1.93 14.46 15.35 21.3 34.03 24.32 54.54 2.26 15.32 1.28 30.52.09 45.83-.63 8.08.5 16.29.87 24.45.18 3.9.44 7.79.69 12.31-4.98-.66-9.69-1.22-14.36-1.99-.57-.09-1.21-1.23-1.41-1.98-6.33-24.1-12.93-48.14-18.69-72.38-1.73-7.29-.86-15.16-1.56-22.73-.48-5.2-1.19-10.46-2.57-15.48-1.63-5.95-4.67-7.78-10.82-6.66-3.77.68-7.59 2.03-10.95 3.88-13.39 7.4-27.72 10.57-42.88 10.13-10.85-.31-21.68-1.1-32.03-4.86-11.7-4.26-19.89-14.73-20.25-26.24 5.08-.9 9.89.08 14.49 2.2 4.57 2.11 9.12 4.26 13.56 6.61 5.03 2.67 10.32 3.16 15.9 2.84 8.26-.47 16.61-.03 24.79-1.06 6.32-.8 12.55-2.96 18.6-5.12 3.77-1.34 5.39-6.31 3.94-9.97-.28-.7-1.12-1.34-1.85-1.67-8.9-3.92-17.8-7.84-26.77-11.58-.86-.36-2.5.11-3.29.77-3.32 2.82-6.28 6.07-9.69 8.76-4.52 3.56-10.82 3.35-15.23-.2-.71-.57-1.23-1.59-1.45-2.49-1.79-7.11-1.47-14.11.78-21.15 5.77-18.09 11.7-36.14 16.85-54.41 3.08-10.94 4.59-22.32 7.19-33.41 2.93-12.49 7.94-24.18 14.75-35.08 1.36-2.17 5.4-2.3 8.62-.31 2.47 1.53 1.99 3.43.72 5.45-.42.66-.82 1.34-1.25 1.99-3.86 5.73-5.98 11.79-6.68 18.9-1.12 11.29-3.82 22.43-5.8 33.64-.39 2.19-.83 4.43-.76 6.63.35 12.57-.23 25.03-2.99 37.35-.32 1.41-.27 3.26.39 4.49 8.02 14.96 20.04 24.58 37.11 27.26 3.18.5 5.4-.45 6.85-3.73 2.36-5.3 3.3-10.38 1.77-16.22-1.57-6.01-2.52-12.3-2.81-18.5-.25-5.31-.61-10.43-2.81-15.33-.68-1.52-1.06-3.15-1.75-5.26z" fill="#010106"/><path d="m165.54 355.5c0-11.21.05-22.05-.02-32.88-.04-5.59-.38-11.18-.38-16.77 0-2.24-.84-3.16-2.94-2.85-3.52.52-7.1.9-10.53 1.83-5.49 1.5-10.85 3.49-16.31 5.08-2.4.7-3.58 2.12-4.42 4.41-5.64 15.3-11.41 30.56-17.14 45.83-.63 1.69-1.07 3.13-3.55 3.17-2.58.04-3.52-1.13-4.33-3.17-3.02-7.55-3.39-15.24-1.23-23.02 2.77-10.01 5.65-19.99 8.61-29.95.34-1.15 1.35-2.27 2.33-3.04 8.6-6.76 18.55-10.59 29.05-13.25 6.87-1.73 13.45-4.25 19.11-8.63 1.38-1.07 2.59-2.76 3.13-4.41 3.11-9.54 5.99-19.15 8.92-28.68 8.34.3 12.6 4.41 13.06 12.37.08 1.34.05 2.69.14 4.02 1.11 15.32 4.11 17.74 16.43 23.07 4.25 1.84 9.05 2.37 13.53 3.75 3.82 1.18 7.71 2.37 11.25 4.17 9.56 4.86 13.83 13.41 13.76 23.62-.06 8.54-1.58 17.08-2.66 25.6-.92 7.32-2.18 14.59-3.19 21.9-.73 5.25-9.57 11.01-13.12 7.62-3.37-3.22-4.28-9.04-6.14-13.77-.12-.31.77-1.02 1.17-1.56 3.99-5.41 5.33-11.52 4.43-18.09-1.08-7.97-2.23-15.94-3.6-23.87-.29-1.68-1.31-3.53-2.56-4.7-6.93-6.5-15.43-9.17-24.77-9.6-7.61-.35-7.59-.39-10.22 6.74-3.19 8.64-3.35 17.73-4.32 26.73-.4 3.71-1.41 7.47-2.83 10.93-1.62 4.03-4.97 6.47-10.66 7.4z" fill="#010106"/><g fill="#fcfbfa"><path d="m385.2 377.6.6-.7c.6.4 1.3.9 1.9 1.5l-.6.7c-.8-.5-1.4-1-1.9-1.5zm.3 7.1c.6-1.4 1.1-2.9 1.5-4.5.3.1.6.3.9.4-.5 1.4-1 2.9-1.5 4.4zm.2-10.1.6-.6c.7.5 1.3 1.1 1.9 1.6l-.7.7c-.6-.6-1.2-1.2-1.8-1.7zm8.4-.8h.8v.9h1.8v.7h-1.8v1.8h-.8v-.3h-1.2v.9h3.3v2.6h-.8v-.4h-2.5c0 .3 0 .6-.1.8h3.4v.7h-3.5c0 .3-.1.6-.1.8h4v.7h-3.5c.7.9 1.9 1.3 3.6 1.5-.2.2-.4.5-.6.9-1.9-.3-3.2-1.1-3.8-2.3-.5 1.1-1.8 2-3.9 2.4-.2-.3-.4-.5-.6-.8 1.9-.4 3.1-.9 3.6-1.7h-3.2v-.7h3.5c.1-.2.1-.5.2-.8h-3.3v-.7h3.4c0-.2 0-.5 0-.8h-2.4v.3h-.8v-2.6h3.3v-.9h-1.2v.3h-.8v-1.8h-1.8v-.7h1.8v-.9h.8v.9h3.2zm-4.4 5.5h2.4c0-.3 0-.6 0-.9h-2.4zm1.2-3.1h3.2v-.8h-3.2zm4.4 2.2h-2.4v.9h2.5v-.9z"/><path d="m389.2 385.8h.9v1.5h1.9v-1.5h.9v1.5h2.7v6h1.1v.9h-11.3v-.9h1.1v-6h2.7zm.2 8.7.5.8c-1.2.6-2.5 1.3-4 1.9-.2-.3-.3-.6-.6-.8 1.6-.6 3-1.3 4.1-1.9zm-2-4.3h1.9v-2.1h-1.9zm0 3.1h1.9v-2.2h-1.9zm2.7-3.1h1.9v-2.1h-1.9zm0 3.1h1.9v-2.2h-1.9zm2.4 1.3c1.4.6 2.7 1.2 4.1 1.8l-.5.9c-1.5-.7-2.8-1.4-4.1-1.9zm2.2-6.5h-1.9v2.1h1.9zm-1.9 5.2h1.9v-2.2h-1.9z"/></g></svg>