<svg enable-background="new 0 0 400 400" viewBox="0 0 400 400" xmlns="http://www.w3.org/2000/svg"><path d="m12.4 4.8-6.1 9h6v1.2h-8v-.5l6.1-8.9h-5.7v-1.2h7.6v.4z" fill="#fafafb"/><path d="m14 15v-10.6h3c1.6 0 2.9.5 4 1.4s1.6 2.2 1.6 3.8-.5 3-1.6 3.9-2.4 1.5-4 1.5zm1.4-9.4v8.2h1.6c1.3 0 2.4-.4 3.1-1.1s1.1-1.8 1.1-3.1-.4-2.3-1.2-3-1.8-1-3.1-1z" fill="#fafafb"/><path d="m26.1 4.4v10.6h-1.4v-10.6z" fill="#fafafb"/><path d="m36.1 14.6c-.8.4-1.8.6-2.9.6-1.5 0-2.7-.5-3.6-1.4s-1.4-2.2-1.4-3.8c0-1.7.5-3.1 1.5-4.1s2.3-1.6 3.9-1.6c1 0 1.8.1 2.5.4v1.4c-.8-.4-1.6-.6-2.5-.6-1.2 0-2.1.4-2.9 1.2s-1.1 1.8-1.1 3.2c0 1.3.3 2.3 1 3s1.6 1.1 2.7 1.1c1 0 2-.2 2.7-.7v1.3z" fill="#fafafb"/><path d="m37.6 14.3c0-.2.1-.5.3-.6s.4-.3.6-.3c.3 0 .5.1.6.3s.3.4.3.6-.1.4-.3.6-.4.3-.6.3c-.3 0-.5-.1-.6-.3s-.3-.4-.3-.6z" fill="#fafafb"/><path d="m50.2 15h-1.6l-5.3-8.2c-.2-.2-.3-.5-.4-.7 0 .2.1.7.1 1.5v7.4h-1.4v-10.6h1.7l5.2 8.1c.2.4.4.6.4.7 0-.3-.1-.8-.1-1.5v-7.3h1.4z" fill="#fafafb"/><path d="m58.6 15h-5.7v-10.6h5.5v1.2h-4.1v3.4h3.8v1.2h-3.8v3.6h4.3z" fill="#fafafb"/><path d="m67.1 5.6h-3.1v9.4h-1.4v-9.4h-3v-1.2h7.5z" fill="#fafafb"/><g fill="#010105"><path d="m208.12 372.83c2.65-.53 4.97-.99 7.2-1.43-.14-1.6-.29-3.24-.41-4.64-1.66.12-3.57.26-5.48.4.02-.11.04-.22.05-.33-1.38.41-2.75.82-4.59 1.38-.02.09-.18.82-.39 1.77-.76-.47-1.42-1.13-2.17-1.25-.44-.07-1.01.75-2.02.8.28-.85.56-1.7.99-3.03-2.05.2-3.91.38-6.68.64-.45.53-1.52 1.81-2.97 3.55 2.11.88 3.92 1.63 6.04 2.52-.44 1.32-1.22 1.86-3.6 1.22-2.46-.67-5.25-.15-8.09-.15 0-1.31 0-2.5 0-3.69 5.35-.59 6.29-1.31 7.28-5.53-.2-.03-.46-.15-.59-.07-1.06.71-2.09 1.45-3.13 2.18-.12-1.2-.36-2.4-.31-3.6.06-1.2.41-2.4.67-3.76-.92-.49-1.77-.95-2.76-1.48.5-.88.99-1.73 1.6-2.79-.96-.36-1.84-.69-2.76-1.04.22-.68.44-1.36.63-1.97-1.18-.2-2.16-.37-3.14-.54.35-.59.7-1.18 1.1-1.85-.77-.14-1.62-.3-3.3-.61 0 3.59.15 6.92-.08 10.22-.09 1.23-1.16 2.37-1.64 3.61-.46 1.2-.74 2.46-1.16 3.9-.4-.41-.98-1.03-1.68-1.76-1.55 1.98-2.73 4.65-5.23.42-1.37-2.33-4.39-2.33-6.36-.05-1.22-1.29-2.26-2.57-3.49-3.63-1.81-1.57-3.2-3.6-4.72-5.18-1.89-1.96-5.86-2.51-8.94-2.53-1.82-.01-2.5-.23-2.69-1.71-.2-1.53.03-3.11-.08-4.66-.25-3.29-.95-6.58-.78-9.84.11-2.1-.55-4.3 1.25-6.57 1.14-1.44.28-4.65-.04-7.02s-1.49-4.66-1.56-7.01c-.18-6.55.22-13.12-.04-19.67-.12-2.97.13-5.52 2.25-7.68 4.54-4.64 5.85-10.17 5.14-16.54-.41-3.64-1.41-7.62 1.93-10.76.27-.25-.35-1.45-.63-2.51 5.33-4.16 10.57-9.29 18.71-8.9 4.35 7.95 12.06 11.15 17.26 6.53.82.63 1.68 1.28 2.64 2 2.72-3.54 3.98.96 5.9.56 3.92-1.28 7.84-2.56 11.85-3.87.23.85.43 1.58.77 2.87 5.4-5.3 11.69-2.09 17.05-2.31 1.25 1.39 2.23 2.47 3.19 3.56.5.57 1.1 1.12 1.41 1.8 1.52 3.36 2.96 6.75 4.42 10.14.13.31.39.72.29.94-1.7 3.78 1.19 5.63 3.51 7.89-.9.68-1.65 1.24-2.55 1.92.37.23.68.33.82.54.6.87 1.62 1.77 1.63 2.67.02 2.41-.37 4.83-.65 7.24-.1.88-.35 1.74-.47 2.61-.2 1.45-.35 2.9-.19 4.44-1.06 1.96-3.96 3.06-1.85 6.52.67 1.11-.99 3.64-1.47 5.15 1.52 1.02 2.99 2.01 4.1 2.75-.19 3.02-.37 5.73-.53 8.44-.07 1.17-.43 2.46-.06 3.48.64 1.76 1.47 3.61 2.73 4.94 2.01 2.12 4.77 3.24 6.19 6.31.87 1.89 3.73 2.89 6.45 1.32 1.6-.93 3.54-1.3 5.65-1.47 2.81-4.47 3.94-9.46 2.69-15.23-.84-3.9-.13-8.12-.31-12.18-.04-.89-.69-1.96-1.38-2.56-1.81-1.56-4.08-2.79-1.84-5.66.23-.3.13-1.09-.11-1.48-1.19-1.95-3.68-3.5-1.54-6.35.19-.25-1.01-1.54-.82-2.38 0-1.5-.01-2.99 0-4.49.02-2.08.17-4.17.05-6.24-.08-1.41-.27-2.89-.81-4.17-1.12-2.68-2.58-5.21-3.75-7.87-.36-.82-.29-1.85-.34-2.79-.07-1.24-.31-2.54-.02-3.7.39-1.51 1.23-2.9 1.94-4.49-.57-.14-1.26-.32-1.93-.49 1.07-7.41-.73-13.83-6.45-18.87-1.85-1.63-2.84-3.21-.35-5.29-2.63-3.12-5-6.23-7.7-9.03-2.76-2.87-4.24-6.15-4.8-10.06-.15-1.06-1.29-2.02-2.11-2.92-.89-.98-1.92-1.84-2.89-2.74-.76-.71-1.52-1.42-2.6-2.42 2.3-2.4-.55-4.04-2.31-5.94-.75-.82-1.65-1.51-2.53-2.19-8.72-6.63-9.98-11.44-5.6-21.48.12-.28.25-.6.23-.89-.13-3.58-.14-3.58 2.23-6.32-.61-.38-1.21-.75-1.77-1.1.56-.88 1.68-1.92 1.48-2.46-1.29-3.42 1.54-4.92 2.87-7.21 1.17-2.01 1.69-4.4 2.48-6.62.07-.21.03-.51.16-.63 4.87-4.46 3.38-11.43 6.53-16.6.72-1.18.37-2.97.98-4.26.52-1.1 1.65-1.96 2.63-2.78.46-.38 1.72-.41 1.73-.63.1-3.41 3.16-4.86 4.62-7.33.59-1 .42-2.57.27-3.84-.19-1.62-.7-3.2-1.06-4.74 6.25-2.75 7.79-7.55 5.1-15.03 8.74-6.8 10.55-9.55 8.08-12.28 2.45-4.05 2.49-6.06.11-8.7 2.13-1.43 1.87-3.14.81-5.2-1.13-2.2-3.71-3.96-1.48-7.33.7-1.06-1.4-3.96-1.88-5.16.92-3.48 1.74-6.27 2.33-9.12.1-.51-.75-1.74-1.19-1.75-4.7-.13-9.4-.08-14.39-.08-.37 2.92-2.48 5.45-.19 8.45-2.05 2.24-4.21 4.55-2.42 8.21.5 1.02.87 2.9-1.36 3.37-.3.06-.59 1.1-.56 1.67.1 1.99.21 4 .58 5.96.22 1.19.92 2.29 1.55 3.76-1.98 4.58-3.88 9.67-1.17 15.61-.88 2.12-3.62 3.67-4.65 5.83-1.76 3.7-5.26 3.95-8.02 5.45-1.2.65-3.49-.7-5.29-1.15-.76-.19-1.51-.4-2.5-.66.35-.67.77-1.49 1.15-2.22-1.85-1.9-3.51-3.9-5.47-5.54-3.32-2.78-4.7-6.55-5.9-10.47-.16-.52-.23-1.12-.54-1.54-1.58-2.14-1.6-2.13-.59-3.34 0-3.23.07-5.82-.03-8.41-.05-1.33-.41-2.65-.67-4.24.29-1.59.9-3.53.92-5.49.01-1.04-.8-2.23-1.52-3.13-1.31-1.65-2.82-3.13-4.34-4.78-2.11 1.8-4.03 3.19-5.6 4.89-.86.93-1.5 2.37-1.62 3.64-.35 3.64-.38 7.31-.56 11.58 2.03.92 2.43 3.49 1.66 6.32-.55 2.02.07 3.3 1.17 5.08 1.44 2.34 1.45 5.51 2.47 8.17 1.27 3.32-.13 5.51-2.4 7.62-1.06.99-1.82 2.32-2.95 3.2-.74.58-1.92.58-2.85.95-.73.29-1.35.83-2.07 1.15-1.63.71-3.25 1.75-4.95 1.93-2.62.28-5.35.19-7.96-.22-1.46-.23-3.17-1.1-4.03-2.23-.89-1.18-.9-3.04-1.36-4.85-.73-.16-1.67-.37-2.49-.56 0-3.03.19-5.93-.04-8.8-.58-7.37.73-14.73.15-22.08-.17-2.1-.77-4.17-1.09-6.26-.16-1.03-.14-2.08-.21-3.29-2.69-1.19-5.7-2.53-9.03-4.01 1.34-1.42 2.61-2.78 3.96-4.22-.46-.73-.9-1.44-1.34-2.15.14-.14.27-.29.41-.43.68.54 1.36 1.08 2.29 1.83-.47-2.45 5.92-2.51 1.94-5.83 1.62-1.51 3.14-2.93 4.79-4.47 1.3 2.02 2.89 1.47 4.57-.71.37 2.98-2.5 6.71 2.4 7.64-1.02 1.69-2 3.31-2.99 4.94.32.29.63.58.95.87 2.62-2.22 5.23-4.43 8.44-7.15.31.86.62 1.69.98 2.68 3.24-4.71 2.04-7.96-2.87-10.49.53-2.34 1.05-4.61 1.67-7.34-5.47.13-2.5 4.45-4.65 6.06-6.94-3.04-14.09-6.18-21.05-9.23-.7 1.07-1.41 2.14-1.91 2.9-1.82-1.24-3.35-2.29-5.34-3.64 1.7-.09 2.94-.15 4.71-.25-1.37-.84-2.4-1.46-3.55-2.16 3.28-.5 6.42 2.62 9.65-.14.71.59 1.46 1.21 2.04 1.7 6.61-2.66 12.98-4.22 18.21-.41 3.44-.97 5.95-1.68 7.97-2.25 1.45 1.93 2.4 3.19 3.44 4.57-.55.65-1.26 1.49-1.94 2.29 4.38 8.09 5.47 8.42 12.19 3.68-2.18-2.3-4.36-4.61-6.72-7.11 1.34-1.13 2.33-1.96 3.31-2.79.03.31.06.62.09.93 2.83.13 5.65.26 9.06.41v8.09c1.89.96 4.09 2.28 6.45 3.2 2.21.86 4.01 1.89 5.25 4.07 1.34 2.36 5.56 1.72 7.23-.41 2.22-2.83.58-5.67.6-8.45.02-2.65 3.55-7.55 6.27-7.73 1.9-.13 3.8-.13 5.71-.13 10.97-.01 21.93-.01 33.17-.01.19.79.41 1.71.53 2.25 3.91-.72 7.75-1.73 11.65-2.06 3.75-.32 7.56.07 10.88.13 1.86 1.82 3.55 3.47 5.12 5.01-1.16 2.79-2.49 6.08-3.92 9.33-.24.54-.95 1.29-1.39 1.26-2.62-.2-5.22-.59-8.21-.97-2.35 2.79-4.87 5.77-7.15 8.47 3.74 2.97 7.6 4.82 9.5 7.88 2.23 3.58-.54 7.56-1.39 10.23-4.12-.09-7.63-.44-11.08-.1-1.12.11-1.76 1.77-2.1 3.64-.45 2.46.63 5.93-2.73 7.77-2.84 1.57-3.88 8.02-1.93 10.52.52.66 1.69.81 2.8 1.3-.66.88-1.23 1.65-1.86 2.49 2.99 4.41 12.05 7.06 5.1 13.8-.3 2.47-.5 4.04-.76 6.19.04.03.69.56 1.55 1.26-3.01 1.19-8.05-.79-7.67 4.76 1.51.33 2.84.6 4.16.92.31.08.56.47.86.5 1.5.15 4.01-.27 4.35.4 1.49 3.04 2.37 6.38 3.52 9.76 2.7 0 3.29-.91 4.25-7.37 1.93 1.96 3.56 4.69 5.95 5.79 3.4 1.57 4.22-3.16 6.23-3.79 1.69.65 2.93 1.13 4.33 1.67.11.57.36 1.82.77 3.86 2.18-2.27 3.56-3.71 5-5.21 3.84 1.68 3.42 5.38 3.55 8.36.08 1.93-1.47 3.83-3.95 4.55-2.13.62-3.5 2.16-2.44 3.8-1.44.42-2.77 1.1-4.12 1.11-1.35.02-2.72-.63-4.17-1v6.35c.35.32 1.33 1.2 2.72 2.46-2.05.31-3.37.51-4.9.74.11-.51.24-1.07.33-1.45-1.82-1.14-3.57-2.23-5.31-3.32.21-.1.42-.2.64-.31-.71-1.39-1.2-2.96-2.18-4.12-1.36-1.61-2.93-3.86-4.69-4.16-4.03-.69-5.09-4.23-7.64-6.23-1.56-1.22-4.18-1.12-6.33-1.55-2.19-.44-3.7-.17-5.7 1.67-2.2 2.02-5.95 2.34-9.16 3.45-.54-1.56-.84-2.43-1.17-3.38-2.89 4.06-2.89 4.06.72 8.48-1.65 1.97-5.12 3.32-2.9 7.15-4.05 1.53-2.01 5.48-2.58 8.4-.52 2.64.18 5.52-.2 8.1-.58 1.42-1.45 2.79-1.67 4.26-.35 2.42-.01 4.96-.43 7.36-.97 5.56.67 10.09 4.52 14.1.69.71.54 2.26.7 3.44.41 2.99 1.18 5.99 1.05 8.96-.19 4.7 3.45 6.75 5.79 9.75.39.5.24 1.42.21 1.21 5.64 2.55 10.83 4.9 16.87 7.64-2.9-4.18-.31-5.6 2.69-7.62-.87 2.04-1.47 3.45-2.07 4.86.21.18.43.37.64.55.72-.65 1.44-1.3 2.33-2.1.61.26 1.46.63 3.07 1.33-.49-1.49-.76-2.3-1.02-3.11.04-.04.12-.19.19-.18 2.1.24 4.2.51 6.3.73 1.06.11 2.38.56 3.16.11 3.06-1.74 5.28-.5 7.44 1.56-1.57 1.21-3.1 2.4-4.63 3.59-.01-.21-.03-.43-.04-.64-1.45.21-3 .16-4.31.71-1.54.65-2.76 2.31-4.3 2.62-1.4.29-3.05-.64-4.59-1.03.01-.36.01-.72.02-1.08-.55.6-1.1 1.21-2.18 2.4-.44-1.01-.8-1.83-1.16-2.65-.3.19-.6.38-.9.57.32.98.63 1.95.73 2.26-3.77.81-7.49 1.61-11.68 2.52 3.78 3.88 3.87 3.88 9.86.81-.19 3.13 2.85 5.88-.03 9.08-.33.37.88 2.11 1.36 3.19-.21 2.22-.43 4.58-.65 7 3.79-.12 4.51-1.7 2.81-5.74.75-.66 1.59-1.38 2.63-2.29.99 2.88 2.77 3.59 5.68 2.86 1.16-.29 2.75 1.1 4.46 1.87 1.1-.91 2.38-3.5 4.69-.38.81-2.11 1.5-3.89 2.18-5.67.13.06.27.11.4.17.09-.57.08-1.61.29-1.66 4.19-.96 8.4-1.81 12.55-2.67 1.7 5.12 1.53 5.9-2.03 9.21.71.88 1.43 1.79 2.31 2.88-2.73 1.93-5.35 3.83-8.03 5.63-.47.31-1.18.32-1.79.34-1.3.05-2.6.01-4.38.01-.66-2.52-3.1-4.29-6.18-5.15-.92-.26-2.14-.05-3.04.35-2.86 1.28-5.53 1.71-7.95-.82-3.92 5.29-4.15 7.36-1.2 11.63-.98 1.46-1.97 2.94-3.02 4.51 3.84 1.73 1.2 2.93-.1 4.07 1.09 1.85 2.1 3.57 3.62 6.14.78-2.16 1.27-3.26 1.56-4.4.49-1.96.97-3.49 3.69-3.25 1.07.1 2.29-1.44 3.5-2.28 1.57 2.87 2.76-.28 4.25-.63 3.59 2.08 3.87 1.99 9.08-3.06.67.46 1.37.95 2.95 2.04.78-2.51 1.46-4.69 2.13-6.83.16.15.97.92 1.95 1.84.78-.37 1.63-.77 2.48-1.17.11.1.22.21.33.31-.64.77-1.29 1.53-1.92 2.29 3.71 4.04 4.47 8.84 2.76 17.7-2.49.74-3.32-.46-4.02-2.78-.9-3.02-2.44-5.86-4.04-9.56-2.82 3.01-6.22 4.99-6.4 7.23-.25 3.15-2.4 4.31-3.73 6.63.51 1.14 1.09 2.43 2.03 4.53-1.44-.52-2.2-.8-3.05-1.11-.45 1.1-1.76 2.72-1.4 3.72.67 1.82 2.33 3.27 4.17 5.63 1.03-1.84 1.57-2.82 2.12-3.8.34.18.68.36 1.03.53-.12.89-.24 1.79-.38 2.74 2.73 1.88 3.68-.95 5.02-2.43 2.84 2.69 5.54 5.25 8.37 7.93-1.09.84-2.27 1.87-3.57 2.72-2.6 1.7-4.18 3.49-3.56 7.13.53 3.12-2.06 2.59-3.99 1.67-1.93 5.39-1.01 7.87 2.99 9.15 2.05-2.01 4.03-3.96 6.15-6.04 1.42 2.36 2.42 4.01 3.25 5.39-2.43 1.65-4.45 3.02-6.98 4.74 8.35 6.31 6.6 14.58 6.27 22.42-.05 1.2-1.42 2.37-2.25 3.5-1.13 1.51-2.33 2.97-3.5 4.45.29.27.58.53.87.8 1.15-.87 2.3-1.73 3.45-2.6.14.11.28.22.42.32-.67.9-1.35 1.81-2.06 2.76-.17 1.75 6.66 2.3 1.01 5.16 3.18 3.89 3.3 6.49.21 9.75.37.74.78 1.56 1.19 2.38-.26.28-.52.55-.79.83-2.45-2-4.89-4.01-8.18-6.7-5.34 1.8-7.53-4.84-11.8-7.45-2.35 3.84-4.58 7.5-6.9 11.29-3.39-1.76-6.33-3.29-8.58-4.47-2.59.41-4.63.73-7.22 1.14 0-1.95-.11-3.16.02-4.34.27-2.41-.46-4.23-2.3-5.92-.8-.74-.78-2.38-1.1-3.62-.15-.57-.21-1.16-.31-1.74-.66.24-1.32.48-2.24.82.42-.77.78-1.44 1.19-2.19-.37-.21-.9-.72-1.09-.61-4.88 2.73-9.94-.99-14.84.46-.1.03-.2.08-1.18.45.48 2.02 1.12 4.18 1.44 6.38.1.7-.42 1.84-1.01 2.24-1.43.96-3.07 1.59-4.49 2.29-2.2-1.17-3.25.37-4.54 2.14 1.09.76 2.05 1.44 3.27 2.29-.87 1.12-1.74 2.22-2.6 3.34-.75.99-2.14 1.81-.68 3.37.2.22-.46 1.52-.98 2.08-.82.9-1.86 1.6-2.92 2.47.86 1.17 1.43 1.93 2.05 2.77-.37.16-.66.41-.94.4-5.51-.26-11.02-.57-16.54-.79-.43-.02-.86.63-1.34.79-2.17.71-3.22-.13-3.22-2.17zm-17.97-33.67c1.04-.29 2.01-.85 2.9-.75 3.6.37 7-2.42 7.01-6 .02-8.62.18-17.24-.1-25.85-.09-2.72-1.38-5.4-2.16-8.08-.08-.27-.48-.45-.75-.65-2.25-1.64-4.5-3.27-6.47-4.7-4.26 1.07-5.19 3.6-4.54 7.39 1.4 8.12-1.79 15.73-3.95 23.19-1.04 3.59.27 3.91 1.69 5.37-.06 1.34 0 2.68.67 3.56 1.77 2.29 3.81 4.38 5.7 6.52zm-22.16-11.02c-.3.32-.6.64-.9.95-.99.38-1.95.95-2.98 1.11-3.46.55-5.78 1.92-5.92 5.94-.05 1.56-1.18 3.07-1.79 4.61-.27.69-.88 1.56-.66 2.08 1.15 2.83 2.51 5.57 3.82 8.4 5.04-2.24 9.58-4.25 15.26-6.77-1.97-1.53-3.6-2.55-4.92-3.88-1.3-1.31-2.29-2.92-3.51-4.52 1.47-.46 2.7-.73 2.69-.85-.27-2.36-.7-4.71-1.09-7.07zm104.59-281.23c1.62-2.18 3.51-4.16 4.61-6.5.43-.91-.56-3.39-1.54-3.88-2.44-1.23-3.98-2.48-3.95-5.48.01-.85-2.37-2.53-2.48-2.44-3.39 2.86-6.77 5.75-9.77 9-.63.68.32 2.74.38 4.16.03.67-.34 1.36-.52 2.01 2.74 1.05 5.29 2.03 7.89 3.02 2.73-3.11 3.58-3.13 5.38.11zm-90.94 232.22c.5 2.91.88 5.15 1.15 6.74 4.07 1.01 7.64 1.22 9.78-2.81 1.63 1.72 3.05 3.43 4.74.9 1.63-2.45.9-7.98-1.15-10.05-1.88-1.89-4.32-1.62-5.77.58-1.45 2.21-2.97 4.38-4.47 6.59-1.36-.61-2.45-1.11-4.28-1.95zm119.77 51.04c-2.02-1.98-3.71-3.79-5.58-5.4-1.88-1.62-3.88-3.12-5.94-4.51-.45-.3-1.73-.14-2.02.25-1.14 1.54-3.11 3.5-2.79 4.85.58 2.51 1.83 5.21 5.15 5.94 2.19.48 4.25 1.59 6.81 2.59 1.3-1.1 3.06-2.6 4.37-3.72zm-87.45 23.53c.23-1.54.41-2.57.54-3.61.19-1.59.33-3.19.53-5.17.99-.11 2.69-.29 4.4-.47-8.1-6.71-7.59-6.94-13.13-3.8 1.66 2.82 2.11 5.64.33 8.75-1.14 1.98-.23 3.85 2.12 4.23 1.93.32 3.94.07 5.21.07zm4.62-58.61c-2.26 1.48-5.87 2.62-6.09 4.24-.43 3.16 1.02 6.59 1.7 9.9.53-.17 1.05-.34 1.71-.55-.87-1.06-1.54-1.86-2.19-2.64 1.58-1.54 2.68-3.82 4.87-1.67 1.04-1.69 1.98-3.23 3.08-5.01-.65-.9-1.56-2.16-3.08-4.27zm55.36 52.87c-.33-.2-.66-.41-.98-.61-.48.63-.97 1.26-1.58 2.05-1.32-1.61-2.44-2.96-3.5-4.25.61-.89 1.07-1.56 1.91-2.78-4.39-.15-5.19 3.26-7.28 5.14 3.49.7 5.86 4.96 9.86 2.57.7-.41 1.06-1.4 1.57-2.12zm-109.01-27.39c-2.49-.5-4.7-.95-6.85-1.39-2.41 5.72-2.12 6.51 2.44 7.67 1.42-2.02 2.8-3.99 4.41-6.28zm-4.46-22.75c-1.06 3.18-2.07 6.18-3.23 9.67 7.44-1.71 8.06-4.09 3.23-9.67zm58.24 59.08c1.89 2.14 3.65 4.13 5.4 6.12.34-.17.68-.35 1.02-.52.73-3.1-2.85-4.65-3.1-7.65-1.23.76-2.07 1.28-3.32 2.05zm-16.54-66.46c2.87 1.36 5.44 2.56 7.32-1.61-2.69-.54-5.17-1.17-7.32 1.61zm25.18-251.03c.09.46.18.92.28 1.39 1.9.4 3.81.8 5.71 1.2.22-.38.45-.76.67-1.14-.94-1.01-1.75-2.63-2.85-2.86-1.12-.24-2.53.88-3.81 1.41zm48.72 242c-.1 1.18-.17 1.92-.24 2.75-1.09-.27-2.06-.52-3.84-.97 1.01 1.75 1.62 2.82 2.35 4.07 1.84-.99 3.34-1.8 5.1-2.74-1.17-1.08-2.05-1.9-3.37-3.11zm-20.8-236.45c-.36-1.46-.72-2.75-.98-4.06-.11-.55-.02-1.13-.02-1.7-.6.06-1.33-.08-1.75.22s-.8 1.08-.72 1.58c.26 1.73.74 3.42 1.15 5.21.83-.45 1.7-.92 2.32-1.25zm-83.67 253.75c-.19-.23-.38-.47-.57-.7-2.01 1.26-4.02 2.52-6.03 3.78 4.29 2.2 5.24-.76 6.6-3.08zm11.48-256.13c.06.33.12.66.19.99 1.8-.14 3.62-.13 5.37-.5.5-.11.77-1.31 1.15-2.02-.68-.07-1.43-.34-2.04-.16-1.59.46-3.12 1.11-4.67 1.69zm36.24 268.25c-.27.12-.54.24-.81.37.1 4.22.29 4.45 4.25 4.05-1.29-1.66-2.36-3.04-3.44-4.42z"/><path d="m93.15 234.75c-.71-1.9-1.4-3.8-2.12-5.69-.31-.8-.62-1.61-1-2.38-.49-1.01-1.16-1.94-1.57-2.97-3.31-8.37 3.92-11.13 8.25-15.63.79.55 1.49 1.03 2.4 1.67 1.98-2.29 3.93-4.55 5.84-6.75-2-.98-3.75-2.24-5.69-2.7-3.86-.91-4.98-2.9-4.07-6.73.26-1.08-1.15-2.55-1.86-3.99-2.77-.42-6.24-4.29-6.66-8.65-.14-1.47 1.63-3.11 2.52-4.68.37.2.74.39 1.1.59-.39 1.01-.78 2.02-1.43 3.73 1.56-.56 2.65-.96 3.88-1.4 1.44 1.21 2.97 2.5 4.88 4.1 1.58-2.35 3.07-4.59 4.77-7.12-1.32-.22-2.15-.37-2.99-.51-1.52-2.36 2.28-8.44 7.01-11.07.13.77.26 1.49.42 2.39 1.78-.78 3.49-1.2 2.15-3.82-.36-.71.57-2.2 1.13-3.21.64-1.16 1.53-2.18 2.32-3.28-1.77-2.6-3.72-3.52-6.42-1-.85-1.94-3.85-2.79-1.65-5.52.11-.13-1.11-1.34-1.65-2.74.89.25 1.78.61 2.69.72 1.08.13 2.19.03 3.11.03 1.48 1.15 2.99 2.32 4.71 3.65 1.69-1.61 3.21-3.04 5.22-4.95-.12 1.22-.18 1.82-.27 2.69.63.13 1.44.29 2.57.53-.58 5.13-.33 10.08 4.97 13.36-3.22 4.05-.63 6.49 1.93 8.35-.22 3.26-5.18 4.43-2.51 8.24-2.21 1.58-2.43 3.31-2.28 6.44.25 5.12.8 11.03-4.06 15.28-2.13 1.86-3.58 4.5-4.66 7.13-1.59.57-3.18 1.14-5.18 1.86-1.29-1.14-2.84-2.51-4.66-4.11-2.05 3.68 2.11 3.88 2.8 6.05-1.64.91-3.36 1.88-5.86 3.28.05 1.11.14 2.99.23 4.88.91-.12 1.81-.25 2.89-.39.23.62.56 1.54 1.08 2.95 3.94-3.77 7.69-7.34 11.53-11.01.59.46 1.18.91 1.71 1.33 1.55-.35 1.66-6.57.75-7.81h11.35c.06.32.13.64.19.96.8-1.05 1.59-2.09 2.51-3.3-2.28-2.37-1.74-3.96 1.07-5.61 3.1-1.83 4.68-8.28 3.77-11.66-.43-1.6-.12-3.44.07-5.15.35-3.14.42-3.13-.58-4.43.3-1.44.48-2.53.77-3.59 1.63-6.06-2.81-11.42-2.26-17.04.56-5.7-2.91-7.85-6.2-10.67-1.02-.87-2.01-1.77-3.2-2.83.58-.8 1.12-1.57 1.67-2.33-.31.06-.63.11-.94.17-.51-2.32-1.03-4.65-1.62-7.33-.6.13-1.49.33-2.55.56-.68-2.01-1.39-4.12-2.19-6.47-.97.55-1.78 1.01-2.63 1.49-1.13-.49.8-4.04-2.68-2 2.07-2.75 3.03-6.18 7.05-4.97.33-4.25-4.46-8.64-8.35-8.05-2.88.44-6.75-3.81-6.06-6.61.3-1.23.47-2.5.57-3.77.01-.17-.69-.61-1.02-.56-.54.07-1.41.34-1.49.68-.37 1.49-.41 3.06-.74 4.56-.42 1.96-.95 3.91-1.52 5.84-.49 1.65-1.09 3.26-1.75 5.2-.23-.11-1.21-.57-2.04-.95v7.45c1.23.34 3.17.87 5.64 1.55 0 .04.05 1 .11 1.95.12 2.06-.37 2.59-2.72 2.08-2.64-.58-5.52-.29-8.27-.05-7.58.65-9.83-1.54-9.1-9.13.22-2.3 1.75-3.1 4.9-2.62.35-1.47.35-3.16 1.13-4.34 2.1-3.18 1.62-6.79 1.49-10.08-.15-3.68.32-6.45 3.4-8.77 1.83-1.38 3.11-3.47 4.75-5.13.72-.73 1.71-1.18 3.26-2.2.25 2.42.42 4.1.61 5.93.54.4 1.53 1.13 2.53 1.86 5.03 1.67 9.03.72 9.72-3.12.79-4.46 3.8-9.23.11-13.94 2.41-2.15 7.03-3.01 5.59-7.42-.93-2.87-5.66-4.68-8.42-3.51 1.04-1.13 1.63-1.76 2.46-2.67-2.73-1.57-3.18-3.81-2.53-6.62.67-2.9-1.52-3.75-3.74-3.99-1.62-.17-2.36.49-1.61 2.49 1.69 4.51.78 9.04-.12 13.51-.4.23-.79.46-1.19.7.83.47 2.38.96 2.37 1.41-.14 4.18-.31 8.4-1.03 12.5-.2 1.14-2.26 1.95-3.38 2.83-2.17-1.54-4.14-2.93-6.16-4.37-.13-1.83 3.21-4.25-.72-5.61-.72-.25-1.69.22-2.54.35-.12.35-.25.69-.37 1.04-.35-.68-.58-1.46-1.08-2.01-.51-.56-1.31-1.28-1.9-1.22-.49.05-1.08 1.1-1.25 1.8-.32 1.32-.36 2.71-.55 4.34-1.57-3.63-2.86-6.81-4.31-9.91-2.26-4.81-1.55-10.78 2-14.73-.84-.33-1.61-.63-3.59-1.41 2.47-1.36 4.11-2.56 5.95-3.17 1.13-.37 2.56.16 3.85.29.09-.27.17-.55.26-.82.83 1.03 1.66 2.06 2.83 3.49-2.82 1.73-5.43 3.33-8.76 5.37 1.44 1.6 3.24 3.61 5.66 6.3.69-1.14 1.07-1.81 1.49-2.45 2.72-4.21 6.33-7.48 10.62-10.05 1.78-1.07 3.05-2.3 1.69-4.62-.27-.45.11-1.88.43-1.97.98-.27 2.07-.1 3.39-.1-.18-.89-.38-1.89-.58-2.92 3.22 3.31 6.43 6.61 10.08 10.36-.62 1.29-1.56 3.27-2.74 5.72.94 2.52 5.95 3.68 4.83 9.45 3.93-3.52 7.36-6.59 10.33-9.25 1.74 1.62 3.41 2.81 4.54 4.39.74 1.04.97 2.64.95 3.98-.03 2.06-.69 4.21 2.23 4.37v4.38c-1.84 2.03-4.77 4.07-5.9 6.84-.96 2.36.14 5.57.34 8.62-.95-.31-1.88-.61-2.82-.91-.17.25-.33.5-.5.75 1.31 1.4 2.63 2.79 3.94 4.19-.24.02-.47.04-.71.06v17.84c-.4.16-.81.33-1.21.49.8.55 1.6 1.11 2.55 1.76-.52.66-1.05 1.34-1.35 1.72 2.09 2.82 4.09 5.52 6.08 8.21-2.21 3.02-1.34 4.48 2.47 5.9.07.2.24.47.17.61-1.52 2.98-.91 5.3 1.68 7.5 4.16 3.54 8.13 7.3 12.09 11.06 1.34 1.27 2.58 2.72 3.53 4.28.52.86.36 2.13.5 3.22-.31.11-.61.21-.92.32.79.75 1.57 1.49 2.16 2.05-.17 3.02-.33 5.75-.49 8.47-.48.11-.96.23-1.44.34 1.06 1.27 2.17 2.51 3.16 3.83.41.54.55 1.28.82 1.92.86 2.01 1.72 4.02 2.65 6.19-1.86 1.25-4.39 2.57-2.43 6.59 1.16 2.39.8 5.28-2.24 7.11-1.66 1-3.07 2.67-4.11 4.33-.78 1.24-.79 2.96-1.27 5-.98.58-2.61 1.56-3.4 2.04-1.6 2.2-2.95 3.61-3.76 5.29-.96 1.97-1.46 4.16-2.25 6.56.04.02-.65-.23-1.49-.53v2.37c-.99.05-1.86.1-2.73.14.14.23.28.47.42.7-1.1.88-2.26 1.69-3.26 2.67-.7.69-1.6 1.55-1.7 2.42-.47 4.19-5.14 7.9-9.79 7.16.66.87 1.14 1.5 1.69 2.22-.7.93-1.43 1.91-2.26 3.02.75.88 1.46 1.7 2.34 2.74-.7.66-1.38 1.29-2.22 2.08.74.93 1.48 1.85 2.3 2.88-.79.88-1.52 1.7-2.32 2.6 1 .92 1.95 1.79 3.11 2.85-2.13 1.57-4.09 3.01-5.33 3.93-2.62-2.28-4.95-4.3-7.7-6.69-.47 1.68-.71 2.56-1 3.59-2.92-1.16-4.71-2.61-3.82-6.07.28-1.09-.34-2.54-.86-3.67-1.16-2.52-2.51-4.95-3.87-7.6 2.6-2.41 5.12-4.75 7.88-7.31-1-.89-1.89-1.67-2.81-2.49-1.88 1.22-3.62 2.34-5.06 3.27-3.2-.64-6.3-1.27-9.39-1.89-.13.32-.25.65-.38.97 0-.67 0-1.33 0-2.6-1.39.67-2.53 1.17-3.62 1.77-.78.43-1.58 1.51-2.21 1.4-3.63-.64-2.35 1.52-1.81 3.31-.6-.14-1.01-.24-1.42-.33zm5.83-47.92c1.85-1.73 3.44-3.21 5.7-5.32-6.43 1.57-7.3 2.42-5.7 5.32zm11.74-34.06c-.09.3-.18.61-.28.91 1.31.48 2.61 1.11 3.96 1.3.24.03.73-1.76 1.29-3.17-2.19.42-3.58.69-4.97.96z"/><path d="m98.43 270.76c3.3 3.82 6.61 7.64 9.91 11.46.35-.09.69-.18 1.04-.26-1.37-6.05 1.32-10.9 3.92-15.83.74-1.41.54-3.39 1.44-4.63 2.6-3.61 3.59-3.67 9.36-1.61-.53.87-1.05 1.7-1.46 2.37.51 1.25.97 2.38 1.67 4.09 2.08.28 4.71.99 3.85 4.87h2.25c0 3.11-.25 6.21.07 9.25.31 2.84 1.23 5.61 2.06 9.16-1.21.97-1.88 4.39-5.59 4.82-.54 3.56 2.83 6.09 7.91 5.05-.94 1.88-2.01 3.7-2.77 5.65-.56 1.43-.74 3.01-1.02 4.54s-.04 3.39-.84 4.54c-.77 1.11-2.45 2.97-3.79-.29-.47-1.14-2.95-1.44-4.59-2.17-.47 1.04-.87 1.95-1.04 2.32-1.6.47-2.82.82-4.63 1.35-.47-.67-1.33-1.9-1.97-2.81 1.45-1.44 2.73-2.72 4.8-4.78-4.38-1.95-7.97-3.55-11.45-5.09-.93 1.45-1.71 2.65-2.67 4.14 2.59 2.28 5.65 4.98 8.71 7.67-.47.32-.95.63-1.42.95v3.7c1.07-.27 2.14-.55 3.31-.85 2.6 1.65 5.46 3.47 8.69 5.52-1.17-.28-1.99-.48-2.64-.64.24 3.55.47 6.88.69 10.19 1.29.18 2.72.37 4.78.66.36-.27 1.31-1 2.48-1.88 1.64 1.84 3.17 3.55 4.79 5.36-4.24 1.3-6.68 7.28-4.35 10.6-.7.87-1.45 1.81-2.72 3.39.84.33 1.78.7 2.72 1.07-.26.33-.52.66-.78 1-.88-.44-1.74-1.21-2.63-1.24s-1.82.67-3.08 1.19c-1.38-1.52-2.86-3.15-4.43-4.88-.78.72-1.49 1.37-2.53 2.34-.31-.67-.57-1.23-1.04-2.26-.69 2.08-1.14 3.44-1.72 5.2 2.46.65 4.78 1.27 8.04 2.13-1.58 1.9-2.91 3.49-3.75 4.49-2.18-1.67-3.71-2.85-5.24-4.02 1.06 4.91-1.55 8.13-2.93 11.93-.88-.58-1.45-.96-2.17-1.44-.28 1.17-.51 2.09-.78 3.23-1.24-.82-2.25-1.5-3.6-2.39-.6 1.15-1.13 2.17-1.82 3.49 1.36.6 2.53 1.12 3.69 1.64-1.5 2.68-2.73 2.73-4.06 1.02-4.55.53-8.62 1-13.38 1.55 1.3-3.49 2.12-6.02 3.22-8.42.34-.74 1.37-1.35 2.21-1.65 1.9-.66 4.04-.77 5.76-1.71.95-.52 1.88-2.36 1.68-3.37-.23-1.15-1.58-2.51-2.74-2.92-1.74-.6-3.74-.43-5.99-.62v3.16c-.93.23-1.97.49-3.56.89 0-10.17 0-19.98 0-30.55.69-.08 1.97-.21 3.24-.36.21-.03.5-.12.6-.28.31-.51.91-1.43.78-1.55-2.12-2.06 3.78-5.44-1.14-6.88-.54-.16-1.27.36-2.08.62-.31-1.04-.71-2.4-1.15-3.87 2.33-1.18 4.12-4.08 7.05-.63.19-.29.38-.58.57-.87-1.11-2.21-2.21-4.43-3.32-6.64-.29.1-.59.2-.88.29.36-.74.71-1.48 1.19-2.48-1.02.05-1.77.09-2.19.11-.92-4.51-1.63-9.03-2.8-13.42-.81-3.08-1.77-5.99-.06-9.05.28-.5.31-1.41.04-1.92-2.13-4.07-.79-8.1.12-12.1.4-1.73.87-4.07 3.54-1.89.15.12.49.26.54.2 2.57-2.59 4.12.53 6.13 1.08.01.03-.05-.03-.05-.03zm10.13 43.41c-2.88-4.21-6.38-4.09-12.23.43 1.26 2.59 2.53 5.22 3.55 7.32 4.09-.5 7.52-.91 11.49-1.4-1.86-1.62-3.26-2.84-4.81-4.19.73-.79 1.38-1.49 2-2.16zm-17.15 27.61c1.21 1.92 2.27 3.58 3.44 5.44-1.01.42-1.86.77-2.94 1.22 1.22 1.02 2.22 1.85 3.97 3.31 2.81-4.77 5.36-9.11 8-13.59-2.7 0-4.51 0-6.32 0-.03-.24-.06-.49-.09-.73-1.97 1.41-3.93 2.82-6.06 4.35zm20.24-2.57c5.44-3.42 5.71-3.76 4.62-7.46-.23-.77-1.54-1.23-2.3-1.8-1.74 2.16-3.21 3.99-4.68 5.82.05.24.1.49.15.73 1.14-.34 2.28-.69 3.48-1.05-.44 1.28-.86 2.52-1.27 3.76z"/><path d="m249.24 147.44c3.94-2.62 5.73-8.43 11.65-10.26-.11 5.4 3.3 7.71 7.67 9.39 2.29.88 5.13 1.8 3.21 5.53-.36.71.68 2.14 1.13 3.4-1.15 1.25-2.56 2.53-3.65 4.05-.89 1.24-1.65 2.69-1.99 4.16-.51 2.24.73 4.72-3.06 5.87-2.74.83-2.38 4.05.16 5.77 1.19.81 2.48 1.49 3.67 2.2 3.7-3.22 4.79-8.76 2.13-11.74 3.25-.76 6.07-2.97 9.56-.87.49.29 1.76-.71 2.85-1.2 1.61 1.32 2.07 2.97.62 5.24-.44.69.21 2.08.5 4.07-2.71.29-5.64.5-8.52.98-1.12.18-2.68.69-3.1 1.52-1.24 2.46-2.5 5.1-2.75 7.77-.11 1.25 2.08 2.71 3.24 4.08.07-.38.13-.76.2-1.14 1.43-.47 2.88-.87 4.28-1.41 2.7-1.05 5.37-2.17 8.49-3.44 1.62 1.53 6.61-1.91 7.49 4.07-2.45 0-4.63 0-7.29 0-.58.8-1.49 2.06-2.16 2.98.36 1.94.67 3.59 1.04 5.58.19-.02.97-.09 1.56-.14.17 1.42.33 2.85.54 4.67-3.3 1.3-4.92 6.17-10.2 5.39-1 1.75-2.11 3.69-3.21 5.64.25.19.5.37.75.56-1.25 0-2.5 0-3.75 0-.2-.29-.39-.58-.59-.87.87-.01 1.75-.02 1.67-.02-3.8-3.03-7.06-5.63-10.22-8.15 1.84-5.13-.12-9.51-.63-14.06-.44-3.93-3.77-5.95-4.35-9.52-.49-3.02-1.47-5.63-.72-9.1 1.07-4.94.41-10.41-3.26-14.78-.54-.64-.77-1.56-1.14-2.34-.52-1.17-1.07-2.3-1.82-3.88z"/><path d="m210.86 137.09c-2.56 3.33-4.81 6.25-7.15 9.29 1.16.82 1.84 1.3 2.51 1.78-.42-.33-.84-.67-1.26-1-3.44 3.78-6.88 7.57-10.35 11.37-.65-.26-1.97-1.31-3.1-1.12-3.33.55-5.53-.98-7.69-3.09-1.44-1.41-3.19-2.52-4.5-4.02-1.02-1.17-1.58-2.74-1.77-4.56-1.4-1.85-2.76-3.73-4.21-5.53-.97-1.21-1.94-2.48-3.15-3.42-4.66-3.6-4.76-7.95-.15-11.52 1.41-1.1 2.94-2.08 4.23-3.3 1.42-1.35 2.6-1.67 3.86.65 2.22-3.1 4.93-3.09 8.06-2.2 1.64.47 3.55-.06 5.32.07 1.41.11 2.8.54 4.19.83 1.1.22 2.33.87 3.27.59 3.04-.92 5.57-.43 8.14 1.43.97.71 2.59.53 4.11.79-.2.38-.69 1.29-1.19 2.23 2.98 4.99 3.02 7.22-.07 9.03.43.81.88 1.65.9 1.7z"/><path d="m188.42 200.85c2.87.43 5.69 2.5 8.89.46.39-.25 2.53 1.35 3.12 2.48 1.37 2.61 5.98 5.02 8.65 4.02 1.46 6.36 5.92 10.43 11.21 14.09-.85 1.01-1.53 1.81-2.35 2.79.66.83 1.32 1.66 1.87 2.36-1.93 1.48-3.65 3.03-5.59 4.21-1.8 1.1-3.93 1.65-5.73 2.74-1.67 1.01-3.1 2.43-4.68 3.71-3.67-2.95-7.28-6.36-12.69-7.23-2.46-.4-4.74-2.55-6.86-4.22-2.45-1.92-4.63-4.19-6.96-6.33.95-1.37 1.57-2.26 2.26-3.26-.74-.63-1.49-1.26-2.24-1.9.32.11.63.22.95.33 1.45-2.83 2.89-5.66 4.34-8.49.88-1.72 1.19-3.92 3.96-3.88.59-.02 1.19-1.18 1.85-1.88z"/><path d="m104.7 31.46c.26 1.09.52 2.18.86 3.59-1.43 1.34-3.12 2.92-4.78 4.49-1.35-1.12-2.4-2.36-3.74-2.99-1.05-.49-2.46-.25-3.71-.25-.98 0-1.95.12-3.41.22-.49.81-1.24 2.03-2.07 3.39 1.69 2.26 3.35 4.47 4.6 6.14-1.64 2.45-3.12 4.66-4.93 7.38-.44-9.65-.85-18.59-1.28-27.85h31.96c-2.06 3.82.13 6.47 2.9 9.05-3.06 2.69-5.88 5.17-9.19 8.07.58-1.91.96-3.2 1.52-5.05-1.64.98-2.55 1.52-3.46 2.06-.47-1.02-.97-2.03-1.41-3.07-.8-1.87-1.56-3.76-2.34-5.65-.51.16-1.02.31-1.52.47z"/><path d="m93.14 234.75c2.01 1.74 3.91 1.81 5.57-.28 2.93 3.42 3.79 7.57 3.66 12-.17 5.63-4.18 8.85-8.09 12.74-.48-3.11-5.57-2.66-4.62-7.07-.29-.06-.96-.19-1.66-.33-.24-4.86.12-9.44 5.36-12.05-.37-.12-.75-.24-1.12-.36.31-1.55.61-3.1.91-4.65z"/><path d="m90.45 166.52c-.7-1.7-.93-3.05-1.68-3.97-3.51-4.25-2.51-14.45 1.98-16.8.18.83.35 1.6.57 2.57.95-.28 1.87-.56 3.74-1.11-1.07 1.49-1.68 2.34-2.9 4.03 1.85-.43 3.01-.69 4.51-1.04 2.39 2.1 5.07 4.45 7.99 7.02-2.2 1.94 1.25 6.32-3.79 7.44.1-.96.16-1.64.22-2.18-5.82-4.53-8.38.39-10.64 4.04z"/><path d="m303.97 156.46c3.14 3.21 3.03 9.06-.7 12.34-2.25 1.99-4.5 3.98-6.87 6.09-1.97-2.4-3.8-4.64-5.51-6.73.42-1.25.81-2.32 1.13-3.4.76-2.53 2.69-3.41 5.02-4.27 2.33-.85 4.39-2.5 6.93-4.03z"/><path d="m304.73 56.25c-3.73-1.71-6.6-.7-9.27 1.81.29-.61.57-1.22.9-1.93-2.66-1.75-5.38-3.54-8.24-5.41 1.19-.78 2.3-1.51 3.93-2.59-.61 1.41-1.01 2.34-1.4 3.26.22.25.44.5.66.74 4.54-3.34 7.48-8.6 11.96-12.01.33.14.67.27 1 .41.16 2.53.37 5.06.45 7.59.07 2.44.01 4.87.01 8.13z"/><path d="m297.27 98.26c-3.72-1-1.7-5.69-3.6-8.15 1.05-1.1 2.03-2.14 2.59-2.72h6.09c.1-.28.19-.56.29-.84.8 1.02 1.69 1.98 2.38 3.06 1.69 2.64 1 4.75-1.84 5.97-1.74.75-3.45 1.56-5.91 2.68z"/><path d="m304.12 216.57c.82 1.64 1.36 2.75 1.91 3.85-1.17-.02-2.53.35-3.47-.12-2.86-1.43-5.56-3.18-8.51-4.91 2.76-3.01 4.89-5.33 6.78-7.4-1.46-3.47-4.8 2.15-5.65-1.53 2.36-1.23 4.57-2.38 6.85-3.57-.13 2.41-.29 5.15-.46 8.23 1.07.97 2.48 2.24 3.95 3.57-.67.91-1.3 1.75-1.4 1.88z"/><path d="m294.8 74.29c1-1.44 1.81-2.62 2.86-4.15-1.31-.13-2.28-.22-3.26-.32.02-.33.04-.66.06-.99h5.91c-.7-1.24-1.11-1.97-1.74-3.09 2.03-.31 3.91-.6 6.54-1-1.01 1.44-1.55 2.21-2.18 3.12 3.3 1.89 1.8 4.44.38 6.28-2.47 3.19-5.57 1.14-8.57.15z"/><path d="m287.48 369.1c2.08-1.67 3.82-3.09 5.75-4.64 1.6.67 2.79 1.72 2.86 4.24.05 1.8 1.42 3.57 2.4 5.82-.69 0-2.1.26-2.23-.04-1.38-3.17-4.35-3.51-7.1-4.32-.58-.18-1.07-.67-1.68-1.06z"/><path d="m242.87 364.74c1.72-2.4 3.25-5.03 6.25-6.23 2.03-.82 4.13-1.17 5.4 2.54-2.03.16-3.91.2-5.74.51-.78.14-1.5.8-2.16 1.34-.99.82-1.9 1.75-2.84 2.63-.31-.26-.61-.53-.91-.79z"/><path d="m276.29 77.93c-.44 2.36 2.82 5.51-1.79 7.05-.77-1.23-2.32-2.62-2.09-3.61.34-1.48 1.93-2.67 2.98-3.99.3.18.6.36.9.55z"/><path d="m144.72 54.81c-2.09 1.64-3.18 2.49-4.2 3.29-.93-.5-2.07-1.11-3.91-2.1.59-.59 1.37-2.03 2.31-2.14 1.58-.18 3.26.48 5.8.95z"/><path d="m98.49 270.82c1.16-1.62 2.31-3.23 3.84-5.36 1.11 1.63 1.94 2.85 2.74 4.01-1.93 2.72-4.32 1.8-6.63 1.29-.01 0 .05.06.05.06z"/><path d="m261.52 372.02c-1.73-.61-2.95-1.04-4.21-1.48-.07-.95-.15-2.02-.25-3.35 1.58.53 3.07 1.02 4.75 1.58-.08.9-.18 1.97-.29 3.25z"/><path d="m284.93 111.08c4.24-1.25 1.77-3.38 1.21-5.27.25-.15.5-.3.74-.45.84 1.21 2.44 2.51 2.32 3.62s-1.96 2.03-3.04 3.03c-.41-.31-.82-.62-1.23-.93z"/><path d="m103.44 143.25c-1.29 1.57-2.58 3.14-3.86 4.7-.39-.32-.78-.64-1.18-.96 1.33-1.53 2.66-3.06 4-4.6.35.29.7.58 1.04.86z"/></g></svg>