<svg enable-background="new 0 0 400 400" viewBox="0 0 400 400" xmlns="http://www.w3.org/2000/svg"><g fill="#010106"><path d="m61.65 301.71c-6.38-2.29-8.41-7.66-7.79-12.93 1.4-11.94-1.03-23.41-2.6-35.02-1.99-14.72-2.33-29.4-.45-44.17.38-2.96-1.08-6.16-1.77-9.24-.22-.96-.72-1.86-1.08-2.8-1.08-2.87-.4-4.61 2.7-5.92 8.54-3.62 16.77-8 25.42-11.31 5.47-2.09 11.44-2.9 17.22-4.11 6.55-1.37 9.75-4.85 9.9-11.73.13-5.91 2.35-10.37 8.08-13.24 4.63 4.46 10.97 7.46 12.96 14.57.54 1.92 1.72 3.64 2.38 5.53 1.27 3.6 3.72 5.89 7.13 7.55 11.37 5.49 22.65 11.19 34.01 16.7 1.9.92 2.89 2.1 3.26 4.18 1 5.5 2.5 10.92 3.2 16.45.52 4.16.35 8.45.08 12.66-1.17 18.54-2.63 37.06-3.62 55.61-.21 3.89-2.21 5.07-5.16 5.71-4.89 1.05-9.42-.82-13.46-3.03-1.97-1.08-3.13-4.15-4.04-6.56-3.47-9.13-2.52-18.47-.87-27.81 2.65-15.03 1.91-30.09.34-45.16-.31-2.96-2.07-4.89-4.84-5.86-.94-.33-1.95-.53-2.94-.67-8.26-1.15-12.69 2.08-12.86 10.47-.11 5.16 1.01 10.43 2.14 15.52.82 3.71 1.03 7.14-.06 10.82-.61 2.05-.55 4.4-.31 6.56.36 3.19.23 6.1-1.42 9.02-1.24 2.2-1.88 4.76-2.63 7.21-2.15 7.02-6.88 10.25-14.19 10.41-6.47.14-7.15-.1-9.22-6.33-2.4-7.23-2.76-14.65-2.47-22.2.53-13.97.8-27.96 1.34-41.93.13-3.33-1.66-4.95-4.34-4.44-5.87 1.11-11.69 2.68-17.36 4.56-1.27.42-2.04 2.79-2.76 4.38-4.75 10.51-6.06 21.69-6.02 33.07.05 13.99.25 27.98.37 41.97.01.89.09 1.86-.24 2.64-2.64 6.32-5.33 12.56-8.03 18.87z"/><path d="m262.65 25.02c7.57 5.58 15.03 10.4 21.61 16.21 3.19 2.82 4.71 7.5 7.01 11.33 1.6 2.67 2.73 6.76 5.01 7.57 2.49.89 6.1-1.18 9.18-2.11 4.81-1.46 9.54-3.21 14.39-4.53 2.55-.69 5.28-1.01 7.93-1.01 3.22 0 5.08 1.98 5.67 5.14.39 2.1-.13 3.37-2.3 4.45-6.79 3.4-13.58 6.88-20.06 10.82-9.68 5.89-9.93 6.98-7.41 17.74 1.94 8.27 3.86 16.54 5.73 24.83 1.24 5.52 6.06 8.4 9.18 12.54.4.53 2.14.27 3.19.07 5.37-1.06 10.7-2.36 16.09-3.3 2.72-.47 5.62-.82 8.28-.34 1.83.33 3.67 1.94 4.98 3.44 1.45 1.65 1.27 3.37-.69 5.15-7.73 7-16.46 12.31-26.04 16.29-14.04 5.82-28.21 11.36-42.09 17.53-6.14 2.73-11.75 2.07-17.43-.35-5.24-2.23-10.33-4.82-15.4-7.41-.96-.49-1.74-1.65-2.24-2.68-1.67-3.41-2.81-7.13-4.81-10.31-5.08-8.1-4.85-16.79-2.3-25.23 2.8-9.27 6.83-18.18 10.44-27.2.43-1.07 1.46-1.96 2.33-2.8 5.25-5.04 10.52-10.05 15.8-15.06 3.93-3.73 4.3-7.05 1.56-11.86-5.94-10.45-8.53-21.77-8.51-33.73 0-.67.08-1.34.2-2 .11-.79.32-1.54.7-3.19zm18.13 67.8c-6.26 3.65-9.83 8.5-11.29 14.95-.79 3.47-2.05 6.84-2.84 10.32-1.89 8.32-3.14 16.71-1.1 25.19.23.97 1.14 2.34 1.96 2.52 8.83 1.95 17.46 1.83 25.58-2.93 3.23-1.89 4.63-4.25 3.39-7.95-3.88-11.61-7.62-23.27-11.63-34.84-.89-2.57-2.68-4.82-4.07-7.26z"/><path d="m110.73 44.08c3.69 0 7.42.3 11.07-.06 7.37-.73 14.11 1.05 20.03 5.14 6.86 4.73 13.54 9.8 19.87 15.22 3.73 3.19 5.32 7.94 5.72 12.89.34 4.25-.24 8.14-3.8 11.22-2.95 2.55-5.76 5.35-8.24 8.36-8.88 10.84-21.05 15.33-34.23 17.18-19.79 2.78-39.04.42-57.21-8.41-16.7-8.11-25.23-27.71-19.72-45.43.35-1.13 1.65-2.4 2.78-2.78 11.85-4.02 23.63-8.36 35.7-11.57 6.25-1.66 13.06-1.31 19.62-1.73 2.8-.18 5.61-.03 8.41-.03zm-15.94 50.87v.42c2.91 0 5.85.26 8.72-.05 6.64-.72 13.5-.88 19.81-2.79 9.37-2.84 9.52-3.81 10.6-13.89.54-5-1.42-9.18-5.82-12.02-6.1-3.93-12.91-5.24-19.88-4.26-8.4 1.18-16.68 3.17-25.01 4.83-.75.15-1.65.23-2.18.69-5.98 5.07-9.41 11.28-8.14 19.38.72 4.59 3.94 7.51 8.5 7.67 4.46.13 8.93.02 13.4.02z"/><path d="m301.99 279.72c-2.32-.31-4.77-.56-7.19-.99-5.34-.95-9.67-3.14-12.76-8.1-4.01-6.44-8.86-12.35-13.17-18.62-1.08-1.57-1.92-3.59-2.08-5.46-1.29-15.38-2.42-30.77-3.51-46.17-.06-.88.56-2.5 1.1-2.62 2.29-.48 4.43-2.86 7.06-.32 4.55 4.38 9.61 8.49 15.97 9.33 4.85.64 9.99.06 14.87-.76 6.6-1.1 13.1-2.85 19.58-4.56 1.46-.39 2.75-1.65 3.98-2.68 1.78-1.48 3.19-3.61 5.19-4.58 7.13-3.46 11.83-1.6 15.34 5.51 2.5 5.05 3.33 10.08 2.16 15.82-3 14.67-5.43 29.45-8.13 44.18-.17.94-.45 2.07-1.09 2.68-10.38 10.01-22.6 16.15-37.32 17.34zm8.47-22.28c5.23.03 15.62-5.75 16.9-10.63 1.4-5.29 1.33-10.99 1.72-16.52.07-1-.67-2.11-1.21-3.07-.89-1.6-1.95-2.1-4.07-1.59-5.4 1.29-10.97 1.88-16.41 3.01-5.43 1.13-10.79 2.55-16.18 3.87-2.46.6-2.82 2.37-2.71 4.62.55 11.26 10.2 20.24 21.96 20.31z"/><path d="m343.08 339.35c-.86 3.66-1.61 7.35-2.62 10.96-.88 3.11-2.5 6.07-3.03 9.22-1.25 7.43-6.14 10.67-12.73 12.83-9.06 2.97-18.21 4.38-27.73 3.46-12.36-1.19-24.74-2.26-37.11-3.28-2.18-.18-3.21-.73-3.69-3.18-.52-2.61.71-3.3 2.49-4.19 4-2 7.8-4.49 11.95-6.07 5.44-2.07 7.55-6.16 7.78-11.35.22-5-.1-10.05-.52-15.05-.11-1.31-1.23-2.85-2.34-3.7-2.56-1.97-5.49-3.45-8.09-5.38-1.66-1.23-3.4-2.68-4.38-4.44-1.98-3.55-.71-5.75 2.98-7.28 8.36-3.47 16.64-4.49 25.72-2.45 9.23 2.08 18.81 2.67 28.26 3.74 15.73 1.81 22.7 9.8 23.06 26.16zm-44.46-1.55c.29 3.05.21 5.45.78 7.69 1.09 4.27 3.54 7.77 7.76 9.38 4.34 1.67 8.11-.29 10.68-3.56 2.05-2.61 3.57-5.89 4.45-9.12 1.77-6.53-1.16-11.13-7.65-12.92-1.49-.41-3.06-.54-4.59-.83-4.43-.84-7.29 2.4-10.4 4.47-1.13.75-.81 3.63-1.03 4.89z"/></g><path d="m385.2 377.6.6-.7c.6.4 1.3.9 1.9 1.5l-.6.7c-.8-.5-1.4-1-1.9-1.5zm.3 7.1c.6-1.4 1.1-2.9 1.5-4.5.3.1.6.3.9.4-.5 1.4-1 2.9-1.5 4.4zm.2-10.1.6-.6c.7.5 1.3 1.1 1.9 1.6l-.7.7c-.6-.6-1.2-1.2-1.8-1.7zm8.4-.8h.8v.9h1.8v.7h-1.8v1.8h-.8v-.3h-1.2v.9h3.3v2.6h-.8v-.4h-2.5c0 .3 0 .6-.1.8h3.4v.7h-3.5c0 .3-.1.6-.1.8h4v.7h-3.5c.7.9 1.9 1.3 3.6 1.5-.2.2-.4.5-.6.9-1.9-.3-3.2-1.1-3.8-2.3-.5 1.1-1.8 2-3.9 2.4-.2-.3-.4-.5-.6-.8 1.9-.4 3.1-.9 3.6-1.7h-3.2v-.7h3.5c.1-.2.1-.5.2-.8h-3.3v-.7h3.4c0-.2 0-.5 0-.8h-2.4v.3h-.8v-2.6h3.3v-.9h-1.2v.3h-.8v-1.8h-1.8v-.7h1.8v-.9h.8v.9h3.2zm-4.4 5.5h2.4c0-.3 0-.6 0-.9h-2.4zm1.2-3.1h3.2v-.8h-3.2zm4.4 2.2h-2.4v.9h2.5v-.9z" fill="#fcfbfa"/><path d="m389.2 385.8h.9v1.5h1.9v-1.5h.9v1.5h2.7v6h1.1v.9h-11.3v-.9h1.1v-6h2.7zm.2 8.7.5.8c-1.2.6-2.5 1.3-4 1.9-.2-.3-.3-.6-.6-.8 1.6-.6 3-1.3 4.1-1.9zm-2-4.3h1.9v-2.1h-1.9zm0 3.1h1.9v-2.2h-1.9zm2.7-3.1h1.9v-2.1h-1.9zm0 3.1h1.9v-2.2h-1.9zm2.4 1.3c1.4.6 2.7 1.2 4.1 1.8l-.5.9c-1.5-.7-2.8-1.4-4.1-1.9zm2.2-6.5h-1.9v2.1h1.9zm-1.9 5.2h1.9v-2.2h-1.9z" fill="#fcfbfa"/></svg>