<svg enable-background="new 0 0 400 400" viewBox="0 0 400 400" xmlns="http://www.w3.org/2000/svg"><g fill="#fafafb"><path d="m12.4 4.8-6.1 9h6v1.2h-8v-.5l6.1-8.9h-5.7v-1.2h7.6v.4z"/><path d="m14 15v-10.6h3c1.6 0 2.9.5 4 1.4s1.6 2.2 1.6 3.8-.5 3-1.6 3.9-2.4 1.5-4 1.5zm1.4-9.4v8.2h1.6c1.3 0 2.4-.4 3.1-1.1s1.1-1.8 1.1-3.1-.4-2.3-1.2-3-1.8-1-3.1-1z"/><path d="m26.1 4.4v10.6h-1.4v-10.6z"/><path d="m36.1 14.6c-.8.4-1.8.6-2.9.6-1.5 0-2.7-.5-3.6-1.4s-1.4-2.2-1.4-3.8c0-1.7.5-3.1 1.5-4.1s2.3-1.6 3.9-1.6c1 0 1.8.1 2.5.4v1.4c-.8-.4-1.6-.6-2.5-.6-1.2 0-2.1.4-2.9 1.2s-1.1 1.8-1.1 3.2c0 1.3.3 2.3 1 3s1.6 1.1 2.7 1.1c1 0 2-.2 2.7-.7v1.3z"/><path d="m37.6 14.3c0-.2.1-.5.3-.6s.4-.3.6-.3c.3 0 .5.1.6.3s.3.4.3.6-.1.4-.3.6-.4.3-.6.3c-.3 0-.5-.1-.6-.3s-.3-.4-.3-.6z"/><path d="m50.2 15h-1.6l-5.3-8.2c-.2-.2-.3-.5-.4-.7 0 .2.1.7.1 1.5v7.4h-1.4v-10.6h1.7l5.2 8.1c.2.4.4.6.4.7 0-.3-.1-.8-.1-1.5v-7.3h1.4z"/><path d="m58.6 15h-5.7v-10.6h5.5v1.2h-4.1v3.4h3.8v1.2h-3.8v3.6h4.3z"/><path d="m67.1 5.6h-3.1v9.4h-1.4v-9.4h-3v-1.2h7.5z"/></g><path d="m268.34 249c-14.06 3.09-27.43 6.79-40.07 13.11-12.44 6.21-25.27 11.65-38.67 17.76 3.87-6.67 8.86-10.98 14.94-13.66 6.62-2.92 13.69-4.79 20.37-7.59 7.5-3.15 14.83-6.71 22.13-10.3 6.9-3.39 9.12-9.8 9.96-16.8.79-6.55-.22-12.98-2.48-19.13-5.48-14.88-11.13-29.7-16.73-44.55-.11-.3-.35-.56-.55-.88-17.62-.56-35.24-1.12-52.87-1.69-.04-.15-.07-.31-.11-.46 1.2-.43 2.39-.92 3.62-1.28 13.41-3.92 26.8-7.87 40.24-11.68 2.42-.68 3.33-1.75 3.42-4.35.35-10.74.97-21.46 1.51-32.19.06-1.19.22-2.38.33-3.57.37-.05.75-.09 1.12-.14 1.24 5.94 2.47 11.88 3.72 17.82.78 3.7 1.25 7.51 2.44 11.08 1.6 4.8 7.18 9.08 12.5 8.14 10.55-1.86 21.12-3.6 31.73-5.03 4.47-.6 9.11-.77 13.59-.3 3.97.41 6.77 3.18 8.61 7.64-5.16.81-10.04 1.64-14.94 2.32-11.73 1.62-23.5 2.95-35.18 4.85-4.98.81-9.51 3.22-12.95 7.22-1.72 2.01-2.31 3.9-1.24 6.67 7.18 18.66 14.15 37.39 21.33 56.48 6.68-2.06 13.27-4.04 19.8-6.17.85-.28 1.51-1.28 2.14-2.05 15.36-18.37 30.79-36.69 45.93-55.24 1.8-2.2 2.46-5.69 2.76-8.67.44-4.43.19-8.94.05-13.41-.19-5.91 2.14-10.56 6.97-14.69 1.13 4.84 2.5 9.22 3.11 13.7.84 6.17 4.88 8.69 10.18 9.96 2.04.49 4.21.49 6.33.57 5.41.2 8.86 2.73 10.75 8.1-9.02 2.64-14.48-4.85-21.74-7.57-2.44 5.56-4.6 11.27-7.36 16.68-10.81 21.18-25.27 39.23-45.51 52.24-7.71 4.96-15.25 10.2-22.98 15.13-2 1.28-2.21 2.59-1.76 4.7 2.44 11.45 4.74 22.94 6.55 34.59-3.65-9.06-7.28-18.12-10.99-27.36z" fill="#010105"/><path d="m46.41 355.04c-4.24-13.51-8.75-26.95-12.66-40.56-4.64-16.14-8.06-32.61-8.96-49.41-1.04-19.49 4.02-37.91 11.59-55.66 3.24-7.59 6.89-15.04 10.83-22.29 2.43-4.47 5.52-8.65 8.73-12.62 11.56-14.32 17.05-30.88 17.51-49 .21-8.31-1.16-16.68-1.99-25-.5-4.94-2.54-9.01-8.18-10.92-12.28 9.73-24.95 19.75-38.12 30.16.72-4.55 1.61-7.78 5.35-10.39 10.41-7.28 19.86-15.66 25.89-27.21.1-.2.21-.39.33-.58 2.55-4.05 2.62-7.49-.67-11.67-6.63-8.43-12.52-17.44-18.71-26.22-.63-.89-1.23-1.81-2.11-3.13 7.13 1.5 12.54 5.21 16.54 10.3 5.5 7 10.72 14.33 15.12 22.06 7.58 13.31 14.19 27.14 18.28 42 .49 1.77.68 3.79.36 5.58-1.54 8.58-3.23 17.13-5.04 25.66-.35 1.64-1.22 3.35-2.31 4.64-26.53 31.45-42.8 67.54-49.13 108.16-2.33 14.94.28 29.28 4.48 43.62 4.9 16.72 9.05 33.66 13.53 50.5.14.52.24 1.05.36 1.58-.34.14-.68.27-1.02.4z" fill="#010105"/><path d="m183.84 282.48c-4.35 1.99-8.63 4.14-13.07 5.89-2.39.95-2.94 2.28-2.39 4.57 1.09 4.56 2.06 9.15 3.14 13.71.96 4.07-.02 6.14-3.42 7.09-2.82.78-4.5.53-5.57-2.97-10.07-32.89-20.65-65.62-30.44-98.59-2.49-8.37-2.37-17.48-4.14-26.11-1.24-6.02-.66-10.3 5.99-12.11 1-.27 2.08-1.09 2.67-1.96 4.33-6.35 10.1-4.66 16.74-2.89-3.64 1.25-6.65 2.06-9.45 3.35-1.45.67-3 1.98-3.64 3.39-5.5 12.26-5.81 25.1-2.26 37.73 4.05 14.38 9.26 28.44 13.9 42.66 2.39 7.32 4.77 14.65 6.91 22.05.73 2.52 1.61 3.61 4.48 3.5 6.78-.27 13.58-.09 20.37-.09.05.25.12.52.18.78z" fill="#010105"/></svg>