<svg enable-background="new 0 0 400 400" viewBox="0 0 400 400" xmlns="http://www.w3.org/2000/svg"><g fill="#010102"><path d="m150.76 221.64v4.47 102.77c0 8.5.05 17-.02 25.5-.06 6.54-2.18 11.37-6.19 14.23-1.06-48.97-2.11-97.79-3.17-146.86-6.09 1.04-10.84 2.57-13.6 7.84-2.94 5.64-6.19 11.12-9.34 16.66-1.75 3.08-3.56 6.12-5.34 9.17-.47-.13-.94-.25-1.41-.38.55-3.62.56-7.44 1.78-10.83 2.53-7.03 5.64-13.85 8.66-20.69.5-1.14 1.68-2.05 2.71-2.86 3.34-2.63 6.82-5.09 10.1-7.79 1.53-1.26 3.01-2.74 4.07-4.39 2.63-4.1 1.94-6.68-2.58-8.01-7.76-2.28-12.28-7.17-13.04-15.15-.7-7.33.43-14.21 6.07-19.78 5.75-5.68 9.17-12.58 9.99-20.73.24-2.43-.23-3.93-2.81-4.76-2.86-.92-5.56-2.33-8.33-3.52-6.22-2.66-9.82-8.72-8.73-15.3 1.3-7.92 4.02-15.43 8.58-22.02 4.51-6.52 6.68-13.57 6.78-21.38.15-11.52.37-23.04.44-34.57.02-3.23-.72-6.48-.54-9.69.16-2.73 1.15-5.4 1.77-8.1.64-.03 1.28-.05 1.92-.08.77 2.4 2.19 4.79 2.2 7.19.09 12.64-.26 25.29-.29 37.93-.02 8.39.12 16.78.52 25.16.07 1.42 1.52 3.13 2.8 4.08 6.31 4.72 10 11.12 11.93 18.53 1.47 5.62.94 11-4.61 14.48-4.85 3.04-7.01 7.18-5.93 12.88.02.11.01.22 0 .34-.54 5.3.32 9.59 4.93 13.51 5.6 4.78 8.7 11.64 9.66 19.06.39 3.03.04 6.24-.45 9.29-.77 4.82-3.79 8.03-7.87 10.67-2.07 1.34-3.66 3.75-4.79 6.01-.42.84.8 2.97 1.81 3.93 1.34 1.27 3.16 2.11 4.88 2.9 12.81 5.89 19.19 16.72 22.26 29.74 1.53 6.48 1.96 13.23 2.76 19.88.09.77-.64 1.64-.99 2.46-.7-.56-1.77-.97-2.06-1.7-2.84-7.15-5.91-14.24-8.21-21.57-2.64-8.45-7.92-14.28-16.32-18.52zm-7.21-63.45c-5.6 5.36-7.03 11.96-9 18.35-1.3 4.21-.41 7.79 1.94 11.4 2.03 3.1 4.69 3.43 7.83 2.73 3.67-.82 6.33-3.32 6.73-6.47.88-6.92-.13-13.62-3.12-19.9-1.03-2.15-2.8-3.95-4.38-6.11zm-6.96-56.77c-1.29 1.5-2.63 2.74-3.58 4.23-3.05 4.74-5.8 9.71-5 15.6.62 4.59 3.11 8.5 8.89 8.67 5.85.18 8.73-1.74 10.19-7.39 2.02-7.82-2.21-16.5-10.5-21.11z"/><path d="m212.08 176.2c-5.43 9.3-8.8 19.19-10.08 29.7-1.75 14.43-3.1 28.91-4.71 43.35-.29 2.65-.99 5.25-1.49 7.84-3.64-5.54-2.37-11.64-2.31-17.64.05-5.24-.18-10.49-.35-15.74-.49-14.46 3.46-28.13 7.79-41.64 2.29-7.15 3.78-14.18 2.99-21.66-.17-1.65-.03-3.33-.03-5.84 1.21 1.44 1.98 2.41 2.81 3.33 4.71 5.21 8.93 11.03 14.28 15.48 9.67 8.03 13.69 18.46 15.19 30.35.89 6.99 2.06 13.96 2.47 20.98 1.78 30.5 6.6 60.89 3.32 91.61-.54 5.11.82 10.43 1.27 15.65.72 8.41.3 16.66-1.86 24.94-1.28 4.91-1.03 10.21-1.67 15.3-.13 1.06-1.17 2.02-1.79 3.02-.47-.15-.93-.29-1.4-.44 0-7.79-.14-15.58.02-23.37.61-29.27-2.86-58.27-5.43-87.34-1.44-16.36-1.96-32.79-3.06-49.18-.62-9.24-.94-18.59-5.36-27.1-2.45-4.75-5.83-8.66-10.6-11.6z"/><path d="m178.5 42.11c5.59-.32 10.68-.64 15.78-.89 23.22-1.13 46.44-2.28 69.66-3.31 2.53-.11 5.12.3 7.63.78 2.04.39 3.78 1.39 3.79 3.97.01 2.39-.79 4.33-3.21 4.85-3.02.64-6.13 1.25-9.2 1.22-10.83-.11-21.65-.68-32.47-.74-11.62-.06-23.25.25-34.88.39-3.68.04-4.18.55-3.03 4.09.86 2.64 2.02 5.2 3.26 7.69 7.76 15.63 10.85 32.05 8.8 49.43-.4 3.43-.27 6.92-.44 10.38-.11 2.31-.95 4.08-4.05 4.52-.25-29.25-11.65-55.44-21.64-82.38z"/><path d="m172.2 148.99c-.22-1.06-.4-1.81-.52-2.57-1.05-6.59-.69-7.21 6.17-7.1 22.77.37 45.21-3.58 67.82-5.18 4.01-.28 8.01-.9 12.03-1.01 4.48-.12 7.43 2.21 7.56 5.47.07 1.75-.35 3-2.41 3.32-7.93 1.24-15.84 3.66-23.76 3.64-21.85-.06-43.57 1.44-65.28 3.42-.42.05-.86.01-1.61.01z"/><path d="m281.04 100.02c-6.06 1.73-12.12.6-18.2-.05-9.63-1.02-18.38-4.56-26.66-9.33-2.53-1.46-4.07-.94-5.6 1.16-2.82 3.88-5.62 7.79-8.51 11.61-2.67 3.53-5.5 6.92-10.62 9.41 1.42-4.17 2.29-7.51 3.66-10.62 3.27-7.43 6.91-14.71 10.1-22.17.93-2.17.89-4.77 1.22-7.19.24-1.72.37-3.45.63-5.96 1.29 1.42 2.11 2.26 2.85 3.16 2.42 2.93 4.77 5.92 7.22 8.82 3.95 4.68 8.56 8.41 14.53 10.35 3.6 1.17 7.13 2.61 10.58 4.17 4.96 2.25 10.11 3.33 15.53 3.54 1.29.05 2.53 1.11 3.8 1.7-.18.47-.35.93-.53 1.4z"/></g><path d="m6.4 11.7c-1-.8-1.9-1.6-2.9-2.3l.6-.7c.9.7 1.9 1.4 2.9 2.2zm-2.1 8.3c.7-2.1 1.4-4.2 2-6.4.2.1.6.3 1 .4-.7 2.3-1.3 4.4-1.9 6.4zm3-12.8c-1.1-.9-2.1-1.7-2.9-2.4l.6-.7c1 .8 2 1.5 3 2.4zm1.4-1.3v-.9h10.2v.9c-.9 4.2-2.3 7.3-4.1 9.4 1.3 1.4 3.2 2.7 5.7 4-.2.2-.4.5-.7.9-2.5-1.4-4.4-2.7-5.7-4.2-1.4 1.5-3.5 3-6.1 4.4 0 0 0 0-.1-.1-.3-.4-.5-.7-.7-.8 2.7-1.3 4.7-2.8 6.2-4.2-1.8-2.2-3-5.3-3.7-9.4zm9.2 0h-7.1c.6 3.8 1.7 6.7 3.4 8.7 1.7-2 2.9-4.8 3.7-8.7z" fill="#fafbfa"/><path d="m31.6 3.6h.9v2.3h4.1v9.1h1.7v.9h-16.6v-.9h1.7v-9.1h4.1v-2.3h.9v2.3h3.1v-2.3zm-4 13.3.6.8c-1.9.9-3.8 1.9-5.8 2.8-.2-.3-.3-.6-.5-.9 2-.9 3.9-1.8 5.7-2.7zm-3.2-10.1v3.7h3.1v-3.7zm0 4.5v3.7h3.1v-3.7zm4.1-4.5v3.7h3.1v-3.7zm0 4.5v3.7h3.1v-3.7zm9.1 9.1c-2.1-1.1-4.1-2-5.8-2.7l.5-.8c2.2.9 4.1 1.8 5.8 2.6zm-1.9-13.6h-3.1v3.7h3.1zm-3.2 4.5v3.7h3.1v-3.7z" fill="#fafbfa"/></svg>