<svg enable-background="new 0 0 400 400" viewBox="0 0 400 400" xmlns="http://www.w3.org/2000/svg"><g fill="#fafafb"><path d="m12.4 4.8-6.1 9h6v1.2h-8v-.5l6.1-8.9h-5.7v-1.2h7.6v.4z"/><path d="m14 15v-10.6h3c1.6 0 2.9.5 4 1.4s1.6 2.2 1.6 3.8-.5 3-1.6 3.9-2.4 1.5-4 1.5zm1.4-9.4v8.2h1.6c1.3 0 2.4-.4 3.1-1.1s1.1-1.8 1.1-3.1-.4-2.3-1.2-3-1.8-1-3.1-1z"/><path d="m26.1 4.4v10.6h-1.4v-10.6z"/><path d="m36.1 14.6c-.8.4-1.8.6-2.9.6-1.5 0-2.7-.5-3.6-1.4s-1.4-2.2-1.4-3.8c0-1.7.5-3.1 1.5-4.1s2.3-1.6 3.9-1.6c1 0 1.8.1 2.5.4v1.4c-.8-.4-1.6-.6-2.5-.6-1.2 0-2.1.4-2.9 1.2s-1.1 1.8-1.1 3.2c0 1.3.3 2.3 1 3s1.6 1.1 2.7 1.1c1 0 2-.2 2.7-.7v1.3z"/><path d="m37.6 14.3c0-.2.1-.5.3-.6s.4-.3.6-.3c.3 0 .5.1.6.3s.3.4.3.6-.1.4-.3.6-.4.3-.6.3c-.3 0-.5-.1-.6-.3s-.3-.4-.3-.6z"/><path d="m50.2 15h-1.6l-5.3-8.2c-.2-.2-.3-.5-.4-.7 0 .2.1.7.1 1.5v7.4h-1.4v-10.6h1.7l5.2 8.1c.2.4.4.6.4.7 0-.3-.1-.8-.1-1.5v-7.3h1.4z"/><path d="m58.6 15h-5.7v-10.6h5.5v1.2h-4.1v3.4h3.8v1.2h-3.8v3.6h4.3z"/><path d="m67.1 5.6h-3.1v9.4h-1.4v-9.4h-3v-1.2h7.5z"/></g><path d="m241.71 64.79c-1.33 2.68-2.31 5.62-4.06 7.99-3.13 4.21-6.68 8.12-10.13 12.08-4.14 4.75-9.33 7.94-15.27 9.95-7.83 2.65-15.54 5.77-23.53 7.82-8.41 2.16-17.03 3.63-25.64 4.83-11.29 1.57-21.07 6.37-30.2 12.84-9.99 7.07-16.38 16.64-19.48 28.43-.48 1.81-.75 3.73-.76 5.6-.07 10.74.29 21.5-.13 32.23-.39 10.09.89 19.77 4.27 29.28.67 1.89.14 4.25-.01 6.38-.09 1.32-.68 2.61-.73 3.92-.5 13.19-.73 26.4-1.45 39.58-.57 10.41 1.74 20.46 3.03 30.64.66 5.21 1.81 10.38 2.18 15.6.17 2.5-.6 5.25-1.62 7.59-.86 1.97-2.57 3.64-4.12 5.24-6.24 6.45-12.38 6.8-19.32 1.21-1.68-1.36-2.29-7.73-.35-10.45 3.84-5.37 3.76-10.94 2.15-16.94-1.3-4.85-2.39-9.78-3.19-14.74-.8-4.94-1.55-9.94-1.61-14.93-.19-17.79-.27-35.59-.02-53.38.25-18.04-.67-35.99-2.81-53.9-.88-7.35.58-14.49 3.5-21.26.58-1.35 2.18-2.22 2.92-3.53 2.24-3.98 4.47-7.98 6.38-12.12 2.75-5.97 6-11.48 11.52-15.35 1.64-1.15 3.25-2.43 4.62-3.89 8.61-9.19 20.46-12.43 31.47-17.2 6.05-2.62 6.07-2.56 6.07-8.97 0-6.71-.08-13.43.05-20.14.04-2.11-.57-3.48-2.6-4.01-5.15-1.35-10.26-3.35-15.49-3.81-10.25-.89-20.5-1.23-30.4-4.53-2.09-.7-4.67-.32-6.95.04-6.38 1.02-12.19-.65-17.82-3.35-2.88-1.38-4.01-3.78-3.53-6.9.45-2.89 1.32-5.14 4.94-5.64 4.3-.6 8.58-1.64 12.7-3.01 8.2-2.73 16.39-2.31 24.81-1.33 9.53 1.11 19.16 1.86 28.75 1.93 11.11.09 22.08.46 32.95 3.06 10.64 2.55 21.6 3.92 32.02 7.09 6.47 1.97 12.45 5.97 18.22 9.71 5.53 3.59 7.68 9.39 7.83 15.9.27.14.56.29.84.44zm-65.79 3.88c.81 2.63 1.35 5.38 2.49 7.85 1.06 2.3 2.53 4.43 5.8 4.15 7.01-.61 13.66-2.28 19.58-6.24 4.1-2.74 4.61-5.93 1.28-9.62-1.3-1.43-3.1-2.67-4.91-3.32-4.3-1.56-8.74-2.72-13.13-4.01-.52-.15-1.12-.22-1.64-.12-6.32 1.24-8.91 4.5-9.47 11.31z" fill="#010105"/><path d="m314.64 375.02c-3.25 0-6.48.1-9.7-.06-.86-.04-1.84-.72-2.5-1.38-6.84-6.77-13.92-13.32-20.34-20.47-8.31-9.27-11.96-20.7-12.17-32.94-.19-11.17.69-22.36 1.08-33.54.04-1.2.01-2.4.01-3.6-3.46-.07-5.56 1.3-7.85 3.76-4.36 4.7-9.3 8.99-14.51 12.74-4.5 3.25-9.96 3.65-15.47 2.41-1.71-.39-2.62-1.08-2.4-2.9.01-.11 0-.22-.01-.34-.19-3.57-1.58-7.72-.23-10.56 1.28-2.69 5.64-3.77 8.28-5.99 6.99-5.9 13.92-11.88 20.58-18.15 2.91-2.74 2.99-6.42.94-9.78-.47-.77-1.73-1.22-2.71-1.51-5.04-1.46-10.15-2.69-15.16-4.24-6.79-2.1-10.55-7.7-10.15-15.16 3.5 0 7.06.17 10.59-.03 9.03-.53 17.86.4 26.36 3.55 2.89 1.07 4.49.02 5.61-2.42.56-1.21 1.1-2.49 1.28-3.79 1.11-8.06 1.12-16.12-1.64-23.85-.76-2.14-2.73-4.03-4.53-5.59-10.25-8.9-21.95-14.34-35.76-15.06-6.67-.35-13.3-1.54-19.92-2.34-.12-3.47 5.16-9.32 9.65-10.86 4.74-1.62 9.49-3.21 14.54-4.91-1.34-7.13-2.62-14.02-3.92-20.91-.48-2.53-1.13-5.03-1.45-7.57-.27-2.14-1.15-3.06-3.38-3.15-8.71-.33-17.43-.67-26.12-1.31-3.29-.24-6.65-.99-9.75-2.11-3.11-1.13-5.15-3.53-4.75-7.66 5.2-1.51 10.57-2.9 15.83-4.62 10.99-3.6 22.21-6.48 33.74-6.71 6.78-.13 13.79 1.22 20.37 3.05 5.97 1.66 7.47 6.44 3.51 11.21-4.58 5.51-5.22 11.41-4.93 18.02.3 6.81.24 13.66-.02 20.47-.11 2.95.94 4.31 3.52 5.49 5.79 2.64 11.39 5.71 17.12 8.49 9.32 4.54 13.97 12.57 16.2 22.14 1.49 6.41 2.22 13 3.28 19.51.09.55.27 1.14.16 1.66-2.02 9.62-1.82 19.63-5.29 29.05-.86 2.33-.38 5.54.42 8.05 5.14 16.06 6.17 32.31-.1 48.01-4.27 10.69-5.36 20.65-.44 31.08.7 1.47 1.43 3.05 2.55 4.18 4.94 5.03 9.94 10 15.08 14.83 4.61 4.34 5.98 9.46 4.5 15.81z" fill="#010105"/><path d="m131.04 184.79c0-3.65-.57-7.18.12-10.45 1.32-6.3 3.31-12.23 8.2-17.19 3.92-3.97 6.4-9.35 9.6-14.05 2.38-3.5 4.89-6.92 7.36-10.36 1.05-1.47 2.27-1.88 3.98-.89 2.9 1.67 6 3.01 8.81 4.81 4.41 2.84 5.9 6.94 4.15 11.92-1.04 2.97-2.58 5.82-4.25 8.5-2.09 3.36-2.1 6.7-.9 10.27 6.06 18.01 8.09 36.66 7.93 55.5-.06 7.51-1.85 15.02-2.93 22.51-.83 5.74-1.81 11.47-2.66 17.21-.82 5.53-4.63 8.2-10 6.9-.51-.12-1.11-.35-1.43-.73-4.08-4.81-7.52-9.8-5.38-16.66 2.55-8.17.55-16.44.35-24.67-.19-7.81-.21-15.62-.49-23.42-.26-7.02-.61-14.04-1.32-21.03-.18-1.75-1.6-3.63-2.95-4.93-1.62-1.56-3.32-2.02-5.06.69-2.88 4.49-7.59 5.85-13.13 6.07z" fill="#010105"/></svg>