<svg enable-background="new 0 0 400 400" viewBox="0 0 400 400" xmlns="http://www.w3.org/2000/svg"><path d="m374.8 390.4.4-.4c.7.5 1.3 1 1.8 1.4l-.5.5c-.5-.6-1.1-1.1-1.7-1.5zm1 7.3-.6-.3c.5-1.4 1.1-2.8 1.5-4.3.2.1.4.2.6.3-.5 1.3-1 2.8-1.5 4.3zm-.4-10.3.4-.4c.4.3 1 .8 1.7 1.4l-.5.5c-.4-.5-1-1-1.6-1.5zm2.5.3h1.7v-1h.6v1h3.5v-1h.6v1h1.8v.5h-1.8v1.4h-2v1h3.2v2h-3.2v.9h3.3v.5h-3.4c0 .3-.1.6-.1.9h4v.5h-3.7c.7.9 1.9 1.5 3.8 1.7-.1.2-.2.4-.3.6-2.1-.4-3.5-1.1-4-2.1-.4 1-1.8 1.7-4 2.2-.1-.2-.2-.4-.3-.6 2.1-.4 3.4-1 3.8-1.8h-3.4v-.5h3.6c.1-.3.1-.6.2-.9h-3.3v-.5h3.4c0-.3 0-.6 0-.9h-3.2v-2h3.3v-1h-2.1v-1.4h-1.7v-.5zm1.1 3.5v1h2.7c0-.3 0-.4 0-.4 0-.1 0-.2 0-.2 0-.1 0-.2 0-.3h-2.7zm1.2-3v.9h3.5v-.9zm4.7 3h-2.6v.6.4h2.6z" fill="#fbfcfa"/><path d="m393.6 386.7h.6v1.5h2.7v6.1h1.1v.6h-11v-.6h1.1v-6.1h2.7v-1.5h.6v1.5h2.1v-1.5zm-2.7 8.8.4.6c-1.2.6-2.5 1.3-3.8 1.9-.1-.2-.2-.4-.3-.6 1.2-.6 2.5-1.2 3.7-1.9zm-2.2-6.7v2.4h2.1v-2.4zm0 3v2.5h2.1v-2.5zm2.8-3v2.4h2.1v-2.4zm0 3v2.5h2.1v-2.5zm6 6.1c-1.4-.7-2.7-1.3-3.9-1.8l.3-.6c1.5.6 2.7 1.2 3.9 1.7zm-1.2-9.1h-2.1v2.4h2.1zm-2.1 3v2.5h2.1v-2.5z" fill="#fbfcfa"/><g fill="#010106"><path d="m169.01 164.12c13.2 2.86 25.48 2.91 37.63-.65 10.91-3.2 21.87-5.54 33.34-4.85 9.49.57 18.44 3.38 27.35 6.3 3.1 1.02 4.95 3.68 6.03 7.14-4.56 2.8-9.41 3.33-14.45 2.23-6.33-1.39-12.56-3.24-18.92-4.4-2.84-.52-6.04-.36-8.84.39-12.08 3.23-23.97 7.25-36.13 10.1-11.38 2.67-23.04 3.35-34.57.34-1.5-.39-3.05-1.39-4.11-2.54-5.27-5.72-7.46-12.13-5.06-20.02 5.39-17.74 3.54-36.14 4.58-54.29 1-17.32-7.21-30.28-18.88-41.54-3.79-3.66-8.85-6.01-13.38-8.88-3.66-2.31-5.53-5.55-4.98-9.85.12-.98 1.26-2.32 2.21-2.62 4.4-1.38 8.54.27 12.16 2.36 17.32 9.98 27.65 25.62 34.26 43.96 1.18 3.28 1.6 6.99 1.65 10.51.18 14.55.04 29.1.14 43.65.01 1.21.91 2.41 1.4 3.61 1.05-.75 2.4-1.3 3.11-2.3 2.72-3.83 4.9-8.09 7.9-11.65 6.61-7.83 7.35-16.94 6.79-26.51-1.1-18.77-5.51-36.87-10.68-54.84-2.28-7.93-4.17-15.98-6.45-24.84 5.21 2.48 9.82 4.53 14.26 6.92.96.52 1.52 2.2 1.84 3.45 3.17 12.44 6.41 24.86 9.31 37.36 3.79 16.33 4.61 32.99 4.7 49.68.02 3.76 1.49 5.43 4.72 6.5 8.58 2.84 17.24 2.24 25.85.47 6.34-1.31 12.55-3.28 18.91-4.47 3.35-.63 6.97-.73 10.32-.17 8.45 1.4 13.53 8.13 14.38 18.62-2.47-.34-4.86-.63-7.23-1.01-6.95-1.12-13.87-2.5-20.86-3.32-2.67-.31-5.55.36-8.22 1.03-15.29 3.88-30.8 5.31-46.55 4.64-1.63-.07-3.68.81-4.92 1.94-6.14 5.55-12.05 11.32-18.61 17.55z"/><path d="m182.84 215.26c9.61 9.71 6.7 21.68 8.47 32.84 3-.57 5.64-.9 8.16-1.65.81-.24 1.61-1.53 1.84-2.47 1.63-6.72 3.04-13.49 4.66-20.21.65-2.69 1.41-5.41 2.57-7.9 1.25-2.69 3.59-4.15 6.85-4.06 2.04 5.03 2.79 10.15 2.36 15.47-.21 2.56-.58 5.16-.3 7.68.14 1.26 1.42 3.12 2.48 3.36 1.26.28 3.35-.47 4.21-1.5 3.15-3.77 6.03-7.78 8.82-11.83.75-1.1 1.09-2.65 1.17-4.01.4-6.8.64-13.6.94-20.37 6.49-.77 10.36 1.35 12.31 7.1.88 2.61 1.48 5.46 1.45 8.2-.1 8.61-2.12 16.85-6.25 24.43-.94 1.73-2.64 3.32-4.37 4.29-6.62 3.72-13.32 7.33-20.16 10.64-2.87 1.39-3.67 3.13-3.62 6.17.18 11.19.07 22.38.07 33.57 0 6.4-1.85 12.34-4.65 18.01-1.91 3.86-5.05 6.34-9 8.14-4.04 1.84-8 4-11.68 6.48-4.31 2.9-5.24 5.72-3.67 10.68 1.41 4.46 3.3 8.78 5.02 13.14.19.48.64.91 1.05 1.24 6.69 5.34 13.86 9.14 22.87 8.58 5.23-.33 10.52-.05 15.75.35 4.67.36 9.06 1.62 10.83 7.06-5.5 3.84-11.59 5.65-17.98 6.09-12.44.86-24.35-1.22-34.88-8.34-6.66-4.5-9.99-11.58-13.15-18.63-4.95-11.05-5.26-22.73-4.42-34.56 1.1-15.4 2.02-30.81 3.14-46.21.16-2.24-.63-3.46-2.4-4.62-4.39-2.88-8.49-6.25-13.03-8.88-7.44-4.32-11.31-10.83-12.96-18.99-2.26-11.19-2.14-22.17 2.3-32.93 1.1-2.65 2.49-2.94 4.85-2.01 3.66 1.45 4.96 4.36 4.95 7.96-.02 4.69-.58 9.4-.32 14.07.24 4.31.92 8.67 1.98 12.86 1.67 6.61 6.92 9.59 12.98 11.29.67.19 2.32-.87 2.5-1.59 1-4.1 1.73-8.27 2.45-12.44.53-3.07.5-6.3 1.47-9.21.84-2.53 2.73-4.68 4.34-7.29zm1.2 97.12c11.49-2.75 12.19-3.46 14.41-13.91.19-.87.43-1.75.51-2.63.79-8.53 1.9-17.05 2.17-25.59.13-4.27-2.32-7.89-6.66-9.61-2.5-.99-7.62 1.6-7.93 4.2-1.37 11.42-2.86 22.84-3.76 34.3-.34 4.33.79 8.76 1.26 13.24z"/></g></svg>