<svg enable-background="new 0 0 400 400" viewBox="0 0 400 400" xmlns="http://www.w3.org/2000/svg"><path d="m374.8 390.4.4-.4c.7.5 1.3 1 1.8 1.4l-.5.5c-.5-.6-1.1-1.1-1.7-1.5zm1 7.3-.6-.3c.5-1.4 1.1-2.8 1.5-4.3.2.1.4.2.6.3-.5 1.3-1 2.8-1.5 4.3zm-.4-10.3.4-.4c.4.3 1 .8 1.7 1.4l-.5.5c-.4-.5-1-1-1.6-1.5zm2.5.3h1.7v-1h.6v1h3.5v-1h.6v1h1.8v.5h-1.8v1.4h-2v1h3.2v2h-3.2v.9h3.3v.5h-3.4c0 .3-.1.6-.1.9h4v.5h-3.7c.7.9 1.9 1.5 3.8 1.7-.1.2-.2.4-.3.6-2.1-.4-3.5-1.1-4-2.1-.4 1-1.8 1.7-4 2.2-.1-.2-.2-.4-.3-.6 2.1-.4 3.4-1 3.8-1.8h-3.4v-.5h3.6c.1-.3.1-.6.2-.9h-3.3v-.5h3.4c0-.3 0-.6 0-.9h-3.2v-2h3.3v-1h-2.1v-1.4h-1.7v-.5zm1.1 3.5v1h2.7c0-.3 0-.4 0-.4 0-.1 0-.2 0-.2 0-.1 0-.2 0-.3h-2.7zm1.2-3v.9h3.5v-.9zm4.7 3h-2.6v.6.4h2.6z" fill="#fbfcfa"/><path d="m393.6 386.7h.6v1.5h2.7v6.1h1.1v.6h-11v-.6h1.1v-6.1h2.7v-1.5h.6v1.5h2.1v-1.5zm-2.7 8.8.4.6c-1.2.6-2.5 1.3-3.8 1.9-.1-.2-.2-.4-.3-.6 1.2-.6 2.5-1.2 3.7-1.9zm-2.2-6.7v2.4h2.1v-2.4zm0 3v2.5h2.1v-2.5zm2.8-3v2.4h2.1v-2.4zm0 3v2.5h2.1v-2.5zm6 6.1c-1.4-.7-2.7-1.3-3.9-1.8l.3-.6c1.5.6 2.7 1.2 3.9 1.7zm-1.2-9.1h-2.1v2.4h2.1zm-2.1 3v2.5h2.1v-2.5z" fill="#fbfcfa"/><g fill="#010106"><path d="m160.67 194.08c-2.32-2-1.48-3.16-.15-4.31 9.49-8.17 18.89-16.43 28.5-24.45 1.97-1.65 2.85-3.05 2.22-5.58-2.9-11.7-.31-23.38.22-35.07.04-.78.12-1.56.25-3.16-3.34-.15-6.63-.64-9.86-.38-14.82 1.17-29.62 2.56-44.43 3.85-3.79.33-7.58.66-11.37.81-1.41.06-3.21.05-4.15-.73-1.21-1-2.15-2.77-2.38-4.33-.1-.73 1.61-2.19 2.74-2.52 1.99-.6 4.16-.73 6.26-.81 20.89-.83 41.77-1.73 62.27-6.45 1.98-.46 2.71-1.3 2.79-3.32.27-7.15 1.26-14.32.94-21.44-.29-6.66-1.59-13.32-3-19.86-1.9-8.82-4.39-17.52-6.5-26.31-.5-2.09-.48-4.3-.11-6.53 14.05 20.62 15.36 44.09 15.98 68.75.74-1.79 1.23-2.72 1.51-3.7 5.53-18.72 15.32-35.44 24.61-52.39.21-.39.39-.86.72-1.13 7.53-6.31 15.03-12.64 22.67-18.8.86-.69 2.53-.36 3.83-.5-.47 1.25-.62 2.82-1.47 3.7-12.43 12.82-24.1 26.3-32.34 42.22-5.17 9.99-9.12 20.62-13.59 30.98-1.05 2.43-1.98 4.91-3.08 7.66 8.67-.51 16.92-.97 25.17-1.48 3.73-.23 5.69 1.63 5.07 5.36-.34 2.06-1.16 4.1-2.09 5.98-3.95 7.92-4.85 16.17-3.14 24.79 1.9 9.58 4.27 18.96 9.93 27.19 2.07 3.01 3.73 6.31 5.65 9.62-4.68-.18-15.85-15.57-19.99-26.95-4.1-11.24-3.37-22.58-1.03-34.64-1.57-.34-3.36-1.1-5.11-1.03-5.36.23-10.72.65-16.04 1.27-3.12.37-2.49 3.25-2.74 5.3-.51 4.2-.98 8.42-1.17 12.64-.25 5.55-.24 11.11-.29 16.67-.01.63.35 1.26.57 2 5.68.91 8.08-5.95 13.55-5.53.66 2.31.46 4.13-1.96 5.58-2.18 1.32-4.06 3.15-6.03 4.79-2.68 2.23-2.81 4.92-1.28 7.83.52.98 1.09 1.99 1.85 2.79 8.21 8.55 16.28 17.25 24.81 25.48 2.71 2.62 6.73 3.85 10.03 5.92 2.13 1.34 4.03 3.03 6.04 4.57-.2.4-.4.81-.6 1.21-1.62 0-3.42.47-4.81-.08-5.14-2.03-10.7-3.29-14.84-7.37-1.11-1.1-2.26-2.2-3.52-3.11-9.43-6.89-17.08-15.41-23.31-25.25-.72-1.13-1.57-2.18-2.38-3.25-.13-.17-.34-.28-1.2-.95-3.49 2.09-7.45 4.06-10.97 6.65-7.92 5.8-15.6 11.91-23.25 17.8z"/><path d="m206.77 200.46c-.74.65-1.32 1.15-1.9 1.66-3.93 3.47-4.16 6.26-1.1 10.46 4.03 5.53 6.32 11.72 4.88 18.55-.52 2.48-2.44 4.86-4.22 6.83-6.17 6.84-14.76 8.36-23.25 9.83-2.5.43-3.3 1.44-3.34 3.91-.09 6.38-.37 12.76-.76 19.12-.11 1.83-.75 3.66-1.29 5.44-1.58 5.21-5.08 8.73-9.85 11.23-1.96 1.02-3.71 2.45-5.51 3.66.69 4.47 2.07 8.31 5.35 11.41 2.35 2.22 4.51 4.7 6.42 7.31 6.98 9.55 17.15 15.23 26.4 22.04 5.22 3.85 10.49 7.64 15.56 11.67 6.44 5.12 13.35 9.34 21 12.4 12.03 4.81 24.03 9.71 36 14.67 1.41.59 2.56 1.81 3.83 2.73-.15.49-.3.98-.44 1.47-2.61-.26-5.5.1-7.8-.89-19.36-8.36-39.49-15.01-57.77-25.79-17.57-10.37-33.18-23.15-47.3-37.82-9.17-9.53-11.01-21.64-11.92-34.03-.11-1.57.76-3.21 1.18-4.82.22-.84.57-1.68.62-2.54.36-5.64.66-11.29.95-16.93.06-1.24.01-2.49.01-4.28-6.48 3.29-12.44 1.78-18.28.6-6.25-1.26-10.6-6.35-10.69-12.91-.08-5.67.7-11.37 1.26-17.04.08-.86.96-1.68 1.56-2.45 1.44-1.85 3.2-3.5 4.34-5.5 2.23-3.92 1.14-5.54-3.36-6.13-1.88-.25-3.68-1.11-5.97-1.84 4.07-4.01 7.35-4.84 12.24-1.8 2.43 1.51 4.26 5.13 4.88 8.11.8 3.82-.55 7.36-4.33 9.98-5.96 4.13-6.49 10.69-4.91 16.9.6 2.38 4.09 4.97 6.74 5.69 4.87 1.31 10.09 1.35 15.17 1.84 2.48.24 3.48-1.5 3.6-3.5.48-8.02 1.11-16.06 1.01-24.09-.05-4.28-1.56-8.54-2.21-12.83-.16-1.06.48-2.23.74-3.35 1.14.64 2.93 1.02 3.29 1.96 1.32 3.41 2.54 6.95 3.11 10.56 1.19 7.67 1.4 15.37-.94 22.95-.36 1.16-.64 2.43-.59 3.63.11 2.49 1.01 4.37 4.08 4.06 1.22-.13 2.46-.02 3.69-.02 4.69 0 5.8-1.29 6.19-6.14 1.04-12.8 2.24-25.59 3.39-38.38.03-.29.23-.56.4-.98 2.63.81 3.04 2.85 2.94 5.02-.28 5.92-.75 11.82-1.02 17.74-.29 6.15-.32 12.31-.69 18.45-.17 2.81 1.25 3.59 3.4 2.95 5.45-1.62 11.07-3.03 16.11-5.53 3.93-1.95 5.69-6.38 4.55-10.67-1.15-4.34-3.19-8.53-5.39-12.47-2.71-4.85-1.61-10.96 2.99-13.49 2.59-1.44 4.89-1.06 6.95 1.39zm-47.95 84.56c2.63-1.69 4.94-2.69 6.63-4.33 7.88-7.66 8.31-17.56 7.82-27.63-.14-2.85-1.98-3.92-4.85-3.74-1.99.13-4.01-.21-6.01-.38-2.23-.2-3.58.68-4.12 2.94-2.59 10.76-2.06 21.46.53 33.14z"/><path d="m146.89 169.03c-6.62-.08-12-2.84-16.52-7.29-1.17-1.15-1.78-3.1-2.16-4.8-.95-4.25-1.52-8.59-2.44-12.84-.47-2.15.29-3.31 2.27-3.59 6.71-.98 13.42-1.92 20.15-2.74 5.76-.7 11.53-1.54 17.31-1.71 3.6-.11 7.44.37 10.75 1.67 1.27.5 2.1 4.08 1.88 6.12-1.31 12.23-8.68 20.47-20.69 23.41-3.46.82-7.03 1.18-10.55 1.77zm2.4-7.01c2.81-.35 5.3-.44 7.67-1 6.07-1.44 10.81-4.58 13.02-10.81 1.44-4.05-.48-6.6-4.81-6.12-1.78.2-3.58.24-5.33.57-7.43 1.4-14.88 2.69-22.23 4.42-2.85.67-4.14 3.86-2.62 6.34 1.25 2.04 3.29 4.07 5.46 4.97 2.81 1.15 6.09 1.18 8.84 1.63z"/></g></svg>