<svg enable-background="new 0 0 400 400" viewBox="0 0 400 400" xmlns="http://www.w3.org/2000/svg"><path d="m77.93 374.59c-2.92-6.23-2.9-6.21 1.53-11.01 15.38-16.65 26.36-36.01 35.01-56.83 6.44-15.49 11.71-31.33 15.56-48.53-5.74 2.52-11.51 2.92-16.21 6.85-11.67 9.77-25.51 13.32-40.37 13.55-1.83-5.41-1.87-5.48 2.7-8.09 21.68-12.36 41.51-27.24 60.01-43.92 1.05-.94 1.85-2.82 1.8-4.22-.83-20.24-1.87-40.47-2.72-60.71-.12-2.75-1.25-4.18-3.77-4.58-1.86-.29-3.92-.87-5.61-.36-6.06 1.84-11.99 3.86-17.15 7.99-12.4 9.93-26.4 16.31-42.53 17.06-5.11.23-6.81-2.25-4.87-7.07 1.57-3.91 3.68-6.95 8.16-8.92 19.95-8.79 38.44-20.06 54.53-34.97.41-.38.77-.81 1.18-1.19 4.8-4.48 6.56-9.33 5.17-16.35-3.93-19.84-6.99-39.87-10.14-59.86-.87-5.5-1.24-11.15 2.28-16.19 1.65-2.37 3.84-3.31 6.61-3.15 5.75.32 8.48 2.94 10.51 8.29 6.99 18.46 6.98 37.92 8.52 57.16.83 10.41 2.13 20.69 7.15 30.12 1.35 2.54 3.14 3.95 6.01 4.68 17.01 4.3 33.96 8.81 50.94 13.24 7.49 1.96 15.09 2.94 23.15 2.88.87-7.65 2.21-15.05 2.46-22.49.49-14.62 5.2-28.04 10.71-41.27 2.22-5.33 3.54-10.78 3.84-16.54.07-1.4.61-2.83 1.16-4.15 5.15-12.38 10.3-24.76 15.6-37.09.66-1.55.34-4.36 3.57-3.82 4.11.69 7.04 2.85 7.07 5.97.02 1.95-.49 3.98-1.09 5.86-1.87 5.84-4.39 11.53-5.74 17.48-2.37 10.41-4.07 20.98-6.12 31.84 7.06-3.94 14.93-5.77 21.13-11.71 7.06-6.77 15.09-12.61 23.07-18.34 5.19-3.73 11.41-4.95 17.89-4.45 1.86.14 2.89.66 2.96 2.7.08 2.23.69 4.48.51 6.67-.1 1.13-1.22 2.43-2.22 3.19-16.69 12.61-33.75 24.76-50.04 37.86-7.5 6.03-13.61 13.82-20.17 20.97-2.12 2.32-3.04 5.25-3.18 8.59-.27 6.48-.89 12.95-1.62 19.4-.26 2.29.54 3.48 2.39 4.56 7.77 4.53 16.35 6.45 25.01 8.36 4.99 1.1 9.93 2.62 14.71 4.42 2.13.8 3.84 2.74 6.25 4.54-6.88 3.71-13.44 4.73-20.13 4.95-5.81.19-11.63.06-17.44.08-.67 0-1.34.06-2.01.15-5.57.74-5.74 1.3-5.34 6.82.78 10.82 1.18 21.67 1.87 32.5.15 2.42.54 4.91 1.33 7.18 4.1 11.82 8.36 23.59 12.57 35.38 1.33 3.72 5.76 4.71 8.73 2.02 4.65-4.2 9.23-8.48 14.06-12.47 4.79-3.96 10.34-5.52 16.62-4.5 2.03.33 2.7.96 2.91 3.11.49 5.13-.84 9.1-4.77 12.75-5.23 4.86-9.84 10.39-14.71 15.65-.61.66-1.15 1.37-1.7 2.08-4.67 6.16-4.39 11.64.9 17.53 6.76 7.53 12.92 15.49 16.6 25.02 1.3 3.37 1.9 7 2.91 10.84-4.5-.03-7.37-.87-10.16-4.15-5.92-6.97-12.63-13.28-19.1-19.78-1.33-1.33-2.96-2.4-4.55-3.44-6.24-4.08-6.86-3.87-11.9 1.37-6.43 6.7-12.92 13.35-19.64 19.76-4.33 4.13-9.56 6.93-15.41 8.54-2.72.75-3.94-.18-4.43-2.79-.85-4.47.75-8.3 2.73-12.15 5.96-11.58 14.64-21.15 23.1-30.81 3.49-3.98 3.65-6.89 1.19-11.28-9.95-17.79-17.06-36.7-20.43-56.83-1.12-6.66-1.08-13.56-1.12-20.35-.01-2.41-.61-3.43-2.8-3.96-6.8-1.64-13.42-.85-19.69 1.92-10.62 4.7-21.13 9.66-31.63 14.64-5.53 2.62-11 5.37-16.33 8.38-1.46.82-2.76 2.62-3.3 4.24-5.98 17.79-10.92 35.99-17.9 53.38-7.39 18.4-13.64 37.47-24.73 54.18-3.37 5.07-7.38 9.89-11.85 14.01-5.71 5.27-9.69 11.7-13.92 17.98-3.88 5.75-8.7 9.56-16.13 9.63zm147.19-199.9c-.57-2.55-.77-4.6-3.87-5.3-17.76-4-35.46-8.25-53.2-12.35-.99-.23-2.33-.27-3.11.23-3.8 2.44-7.41 5.09-6.41 10.56.21 1.18-.17 2.45-.14 3.68.16 6.24-.14 12.56.71 18.71.95 6.86 2.58 7.45 8.99 5.11.42-.15.84-.3 1.26-.45 18.48-6.7 36.96-13.39 55.77-20.19z" fill="#010102"/><g fill="#fafbfa"><path d="m6.4 11.7c-1-.8-1.9-1.6-2.9-2.3l.6-.7c.9.7 1.9 1.4 2.9 2.2zm-2.1 8.3c.7-2.1 1.4-4.2 2-6.4.2.1.6.3 1 .4-.7 2.3-1.3 4.4-1.9 6.4zm3-12.8c-1.1-.9-2.1-1.7-2.9-2.4l.6-.7c1 .8 2 1.5 3 2.4zm1.4-1.3v-.9h10.2v.9c-.9 4.2-2.3 7.3-4.1 9.4 1.3 1.4 3.2 2.7 5.7 4-.2.2-.4.5-.7.9-2.5-1.4-4.4-2.7-5.7-4.2-1.4 1.5-3.5 3-6.1 4.4 0 0 0 0-.1-.1-.3-.4-.5-.7-.7-.8 2.7-1.3 4.7-2.8 6.2-4.2-1.8-2.2-3-5.3-3.7-9.4zm9.2 0h-7.1c.6 3.8 1.7 6.7 3.4 8.7 1.7-2 2.9-4.8 3.7-8.7z"/><path d="m31.6 3.6h.9v2.3h4.1v9.1h1.7v.9h-16.6v-.9h1.7v-9.1h4.1v-2.3h.9v2.3h3.1v-2.3zm-4 13.3.6.8c-1.9.9-3.8 1.9-5.8 2.8-.2-.3-.3-.6-.5-.9 2-.9 3.9-1.8 5.7-2.7zm-3.2-10.1v3.7h3.1v-3.7zm0 4.5v3.7h3.1v-3.7zm4.1-4.5v3.7h3.1v-3.7zm0 4.5v3.7h3.1v-3.7zm9.1 9.1c-2.1-1.1-4.1-2-5.8-2.7l.5-.8c2.2.9 4.1 1.8 5.8 2.6zm-1.9-13.6h-3.1v3.7h3.1zm-3.2 4.5v3.7h3.1v-3.7z"/></g></svg>