<svg enable-background="new 0 0 400 400" viewBox="0 0 400 400" xmlns="http://www.w3.org/2000/svg"><g fill="#010102"><path d="m121.89 136.48c5.97-1.1 11.71-2.55 17.53-3.15 9.23-.95 18.51-1.34 27.78-1.92 4.65-.29 5.84 1.38 5.56 6.02-1.13 18.98-1.81 37.99-3.11 56.96-1.6 23.37 1.44 46.48 3.23 69.67 1.32 17.07 2.62 34.14 4.24 51.19 1.17 12.36 3 24.65 4.25 37 .7 6.89.81 13.84 1.16 20.77.02.49-.2.99-1.06 1.64-.33-1.27-.8-2.51-.98-3.8-2.94-21.04-5.85-42.09-8.76-63.14-1.27-9.2-2.76-18.37-3.74-27.6-.72-6.77-.29-13.67-1.2-20.4-3.33-24.58-4.57-49.24-3.79-74.01.45-14.43 1.22-28.85 4.6-42.98.23-.96.3-1.96.5-3.37-12.75.82-25.29 1.62-38.3 2.46 2.62 8.2 5.12 16.01 7.91 24.75 1.48-1.53 2.78-2.37 3.37-3.56 5.03-10.17 13.64-16.61 23.82-22.28-.1 1.04.14 2.3-.36 3.08-4.73 7.43-9.34 14.86-17.14 19.81-6.88 4.37-9.61 10.74-8.13 19.3 1.27 7.32 1.32 14.9 1.39 22.38.22 23.4.04 46.8.38 70.19.1 7.01 2.05 14 2.02 21-.08 18.12-.87 36.23-1.22 54.35-.07 3.89.49 7.79.81 11.69.23 2.79.59 5.58-2.33 8.25-.53-6.66-1.26-12.79-1.46-18.94-.56-17.56-.75-35.14-1.38-52.7-.84-23.04-2.2-46.06-2.9-69.11-.57-18.89-3.72-37.59-3.42-56.59.13-7.84-2.88-15.77-4.78-23.59-1.02-4.2-2.73-8.24-4.49-13.37z"/><path d="m197.45 59.26c-.77-6.78-3.09-12.92-7.3-18.49-2.45-3.25-4.44-6.86-6.48-10.4-.48-.83-.34-2.01-.56-3.55 1.21.45 1.88.54 2.34.9 12.53 9.79 19.76 22.38 19.76 38.53 0 17.22-.28 34.45-.46 51.67-.04 3.99.49 4.86 4.53 4.39 6.2-.72 12.33-1.97 18.51-2.99 0-4.6.11-8.81-.08-13-.04-.92-1.08-1.85-1.78-2.67-4.26-5.03-8.66-9.95-12.79-15.08-1.31-1.63-1.94-3.82-2.88-5.75.31-.3.62-.6.93-.91 1.13.62 2.47 1.03 3.36 1.9 3.76 3.66 7.38 7.46 11.09 11.24 4.17-5.5 3.07-17.04-1.05-21.75-4.39-5.02-8.18-10.58-11.98-16.08-1.14-1.64-1.45-3.85-2.15-5.8.3-.28.61-.55.91-.83 1.03.72 2.23 1.28 3.07 2.17 3.81 4.07 7.52 8.23 11.46 12.57 2.4-5.44 2.49-10.73 1.35-16.06-1.2-5.61-3.17-10.85-6.8-15.5-1.73-2.22-2.49-5.21-3.68-7.84.44-.32.88-.64 1.32-.95 1.77 1.39 3.73 2.61 5.27 4.22 6.58 6.84 9.13 15.29 10.24 24.56 1.76 14.83.48 29.45-1.63 44.11-.76 5.27-.55 10.69-.66 16.04-.07 3.26 2.13 4.65 4.96 4.7 2.77.06 5.56-.41 8.33-.73 3.76-.43 7.08.26 9.87 3.46-4.81 2.84-9.94 3.49-15.12 4.13-4.53.56-5.99 2.53-5.89 6.94.04 1.75.56 2.92 2.41 2.86 3.88-.13 7.77-.21 11.62-.64 4.8-.54 7.04.77 8.15 5.95-2.44.48-4.88 1.39-7.3 1.35-17.3-.26-34.32 2.08-51.31 4.98-2.25.38-4.67.12-6.95-.23-1.06-.16-1.97-1.26-3.67-2.43 4.6-1.62 8.23-3 11.94-4.17 3.85-1.21 1.75-4.28 2.08-6.5.35-2.32-1.82-2.27-3.24-2.34-1.63-.08-3.36.14-4.93.62-4.48 1.39-5.74.65-6.3-4.1-.09-.75-.01-1.52-.01-2.39 3.78-.73 7.42-1.29 10.96-2.21.93-.24 2.01-1.46 2.26-2.42.5-1.92.38-4 .66-5.99 1.53-10.58-3.53-18.79-9.55-26.65-2.09-2.73-4.33-5.39-3.81-9.61 5.54 1.97 7.98 7.3 12.36 10.21 3.42-6.35 1.23-17.6-4.27-22.06-2.78-2.26-5.82-4.26-8.3-6.8-2.66-2.73-4.79-5.97-7.67-9.64 5.16-1.24 7.55 1.46 10.16 3.48 2.62 2.02 5.18 4.13 7.77 6.19.33-.21.63-.41.93-.61zm9.69 80.83c6.51-.96 12.85-1.82 19.17-2.85 1.93-.31 2.98-1.54 3.02-3.75.07-5.08-2.49-7.38-7.56-6.38-2.95.58-5.86 1.37-8.79 2.06-7.54 1.76-7.54 1.76-5.84 10.92z"/><path d="m235.47 366.56c-.37-7.7-.77-15.39-1.11-23.09-.92-20.69-1.59-41.4-2.78-62.07-.88-15.3-2.5-30.56-3.62-45.86-.37-5.01-.23-10.07-.25-15.1-.03-7.28-.55-14.61.12-21.82.92-9.85-2.12-18.46-6.48-26.89-1.42-2.76-3.73-3.99-6.85-4.4-3.26 7.82-2.77 17.62-11.86 22.36-1.93-2.15-2-3.69-.39-6.18 1.68-2.59 2.73-5.96 2.92-9.05.48-7.74 2.78-14.89 5.73-22.01 4.36 4.86 8.67 9.64 12.96 14.44 3.05 3.41 6.61 6.52 8.96 10.37 1.88 3.08 3.2 7.06 3.21 10.64.08 23.06-.37 46.12-.42 69.19-.01 5.34 1.16 10.68 1.24 16.03.31 22.05.4 44.1.57 66.15.05 6.94.18 13.88.08 20.81-.03 2.22-.68 4.42-1.05 6.63-.33-.06-.65-.11-.98-.15z"/><path d="m144.3 128.61c-.96-32.03-1.92-64.06-2.88-96.09.36-.06.72-.11 1.09-.17 3.05 3.14 4.1 7.21 4.42 11.42.4 5.35.34 10.74.56 16.1.34 8.43.37 8.42 8.72 8.43 6.72 0 13.44-.16 20.15.08 3.05.11 6.49-.14 9.39 3.68-3.74 1.22-6.88 2.85-10.16 3.17-6.33.62-12.72.63-19.09.66-5.62.03-6.66.9-6.99 6.39-.65 10.84-1.42 21.67-2.05 32.51-.16 2.67.22 5.38-.03 8.04-.19 2.07-.98 4.08-1.51 6.11-.55-.11-1.09-.22-1.62-.33z"/><path d="m266.82 188.28c-4.93 1.75-8.39-.17-10.99-2.55-5.08-4.66-9.82-9.76-14.27-15.04-3.16-3.74-3.85-8.54-3.22-13.33.14-1.06 1.54-2.23 2.65-2.76.57-.27 2.17.5 2.58 1.22 1.09 1.91 2.22 3.97 2.57 6.1 1.23 7.51 5.22 13.12 11.02 17.77 3.19 2.57 6.14 5.44 9.66 8.59z"/><path d="m173.33 204.75c.39-1.17.44-2.66 1.21-3.45 7.14-7.32 9.27-16.66 10.56-26.25.77-5.73.91-11.54 1.33-17.29 3.49.64 6.64 4.63 6.73 9.22.05 2.42-.17 4.97-.89 7.27-2.57 8.23-5.71 16.21-11.13 23.1-1.09 1.38-1.61 3.21-2.68 4.61-1.06 1.38-2.48 2.49-3.74 3.72-.46-.32-.93-.62-1.39-.93z"/><path d="m270.71 224.71c-2.23-.9-4.63-1.53-6.67-2.76-7.64-4.61-13.98-10.7-18.55-18.36-2.19-3.67-1.41-6.82 1.9-11.22 1.31 1.52 3.18 2.74 3.57 4.32 1.16 4.66 4 8.13 6.95 11.63 4.42 5.26 8.76 10.58 13.13 15.87-.11.18-.22.35-.33.52z"/><path d="m184.33 225.79c.16-1.23-.05-2.68.52-3.67 5.24-9.02 10.62-17.96 15.86-26.78 2.3 2.43 3.07 8.54 1 11.75-2.6 4.03-4.98 8.23-7.96 11.97-2.28 2.86-5.33 5.11-8.04 7.64-.46-.29-.92-.6-1.38-.91z"/></g><path d="m6.4 11.7c-1-.8-1.9-1.6-2.9-2.3l.6-.7c.9.7 1.9 1.4 2.9 2.2zm-2.1 8.3c.7-2.1 1.4-4.2 2-6.4.2.1.6.3 1 .4-.7 2.3-1.3 4.4-1.9 6.4zm3-12.8c-1.1-.9-2.1-1.7-2.9-2.4l.6-.7c1 .8 2 1.5 3 2.4zm1.4-1.3v-.9h10.2v.9c-.9 4.2-2.3 7.3-4.1 9.4 1.3 1.4 3.2 2.7 5.7 4-.2.2-.4.5-.7.9-2.5-1.4-4.4-2.7-5.7-4.2-1.4 1.5-3.5 3-6.1 4.4 0 0 0 0-.1-.1-.3-.4-.5-.7-.7-.8 2.7-1.3 4.7-2.8 6.2-4.2-1.8-2.2-3-5.3-3.7-9.4zm9.2 0h-7.1c.6 3.8 1.7 6.7 3.4 8.7 1.7-2 2.9-4.8 3.7-8.7z" fill="#fafbfa"/><path d="m31.6 3.6h.9v2.3h4.1v9.1h1.7v.9h-16.6v-.9h1.7v-9.1h4.1v-2.3h.9v2.3h3.1v-2.3zm-4 13.3.6.8c-1.9.9-3.8 1.9-5.8 2.8-.2-.3-.3-.6-.5-.9 2-.9 3.9-1.8 5.7-2.7zm-3.2-10.1v3.7h3.1v-3.7zm0 4.5v3.7h3.1v-3.7zm4.1-4.5v3.7h3.1v-3.7zm0 4.5v3.7h3.1v-3.7zm9.1 9.1c-2.1-1.1-4.1-2-5.8-2.7l.5-.8c2.2.9 4.1 1.8 5.8 2.6zm-1.9-13.6h-3.1v3.7h3.1zm-3.2 4.5v3.7h3.1v-3.7z" fill="#fafbfa"/></svg>