<svg enable-background="new 0 0 400 400" viewBox="0 0 400 400" xmlns="http://www.w3.org/2000/svg"><g fill="#fafafb"><path d="m12.4 4.8-6.1 9h6v1.2h-8v-.5l6.1-8.9h-5.7v-1.2h7.6v.4z"/><path d="m14 15v-10.6h3c1.6 0 2.9.5 4 1.4s1.6 2.2 1.6 3.8-.5 3-1.6 3.9-2.4 1.5-4 1.5zm1.4-9.4v8.2h1.6c1.3 0 2.4-.4 3.1-1.1s1.1-1.8 1.1-3.1-.4-2.3-1.2-3-1.8-1-3.1-1z"/><path d="m26.1 4.4v10.6h-1.4v-10.6z"/><path d="m36.1 14.6c-.8.4-1.8.6-2.9.6-1.5 0-2.7-.5-3.6-1.4s-1.4-2.2-1.4-3.8c0-1.7.5-3.1 1.5-4.1s2.3-1.6 3.9-1.6c1 0 1.8.1 2.5.4v1.4c-.8-.4-1.6-.6-2.5-.6-1.2 0-2.1.4-2.9 1.2s-1.1 1.8-1.1 3.2c0 1.3.3 2.3 1 3s1.6 1.1 2.7 1.1c1 0 2-.2 2.7-.7v1.3z"/><path d="m37.6 14.3c0-.2.1-.5.3-.6s.4-.3.6-.3c.3 0 .5.1.6.3s.3.4.3.6-.1.4-.3.6-.4.3-.6.3c-.3 0-.5-.1-.6-.3s-.3-.4-.3-.6z"/><path d="m50.2 15h-1.6l-5.3-8.2c-.2-.2-.3-.5-.4-.7 0 .2.1.7.1 1.5v7.4h-1.4v-10.6h1.7l5.2 8.1c.2.4.4.6.4.7 0-.3-.1-.8-.1-1.5v-7.3h1.4z"/><path d="m58.6 15h-5.7v-10.6h5.5v1.2h-4.1v3.4h3.8v1.2h-3.8v3.6h4.3z"/><path d="m67.1 5.6h-3.1v9.4h-1.4v-9.4h-3v-1.2h7.5z"/></g><path d="m61.37 312.38c5.97-.84 7.75-4.9 8.36-10.16.52-4.51.86-9.25 5.75-11.81-4.09-2.9-3.96-2.82-1.67-6.68.58-.98.22-2.72-.12-4-.3-1.14-1.17-2.13-1.85-3.28.45-.72.92-1.47 1.4-2.22.47-.75.95-1.5 1.47-2.31-.93-1.33-1.82-2.61-2.85-4.07.59-.84 1.19-1.71 2.38-3.42-2.47-.27-4.38-.48-6.85-.75-.88-1.57-2.06-4.09-3.62-6.34-1.71-2.48-3.87-4.23-7-1.08-3.43-3.67-6.75-7.22-10.15-10.87.81-1.15 1.5-2.13 2.34-3.33-1.27-.52-2.34-.96-3.49-1.43 0-1.26 0-2.46 0-3.89-1.86-.32-3.7-.64-5.56-.96 2.57-4.35 1.17-8.94-3.34-11.39-2.36-1.28-4.74-2.54-6.94-4.07-3.17-2.21-5.21-4.95-4.59-9.32.22-1.52-1.31-3.29-2.09-5.06 2.31-2.01 4.94-4.29 7.79-6.77 2.19 2.03 4.54 1.56 7.3 1.44 4.86-.21 9.23 2.37 12 6.75 1.13 1.78 1.82 3.84 2.94 5.63 1.25 2.02 2.88 3.81 4.11 5.84 1.01 1.68 1.88 3.5 2.47 5.36 1.36 4.27 2.5 8.6 3.67 12.68 2.32.37 5.34.88 8.36 1.34.74.11 1.51.13 2.26.09 2.6-.12 5.22-.17 7.8-.48 1.44-.17 3.52-.38 4.07-1.3.97-1.62 1.68-3.98 1.27-5.74-1.39-5.98-2.85-11.8 1.24-17.46-.82-1.18-1.7-2.45-2.72-3.91 3.89-3.5 2.08-7.83 1.53-11.91-.08-.57-2.22-1.55-2.75-1.23-1.94 1.15-3.06.2-4.79-.56-2.04-.9-4.64-.54-7.17-.75.29-1.02.78-2.68 1.31-4.53-5.14-1.11-10.14-2.31-15.19-3.17-1.25-.21-2.67.97-4.04 1.04-1.21.06-3.39-.29-3.54-.87-.89-3.47-3.74-4.14-6.42-5.15-2.96-1.12-6.79-6.2-6.28-9.19.26-1.54 1.91-2.84 2.94-4.27-2.83-3.88-4.13-4.41-8.78-3.21-1.96.5-3.42.2-4.61-1.57-.99-1.47-2.23-2.78-3.45-4.27.84-1.36 1.64-2.66 2.5-4.05-.7-.95-1.36-1.84-2-2.74-.58-.81-1.14-1.64-1.84-2.63 2.05-1.32 5.32-1.67 4.23-5.4-1.12-.48-2.31-1-3.51-1.51.28-.1.56-.19.85-.29-.43-3.09-.96-6.17-1.25-9.28-.08-.82.34-1.9.9-2.52.8-.89 1.95-1.48 3.03-2.25-1.24-1.61-2.05-2.52-2.68-3.54-.36-.59-.82-1.66-.55-2.02 1.76-2.38 1.27-4.8.6-7.35-.2-.76-.1-1.94.37-2.49 2.05-2.41 1.86-4.82.48-7.4-.25-.47-.51-1.37-.29-1.58 2.87-2.76.27-5.02-.77-7.17 3.8-5.83 10.07-5.3 12.94.36 1.1 2.18 2.66 4.13 4.1 6.13 1.4 1.94 2.36 3.82 2.06 6.46-.16 1.34 1.09 3.02 2.06 4.28 4.59 6 4.85 9.94.84 16.32-3.71 5.9-1.98 14.41 3.7 18.27 1.1.75 2.14 1.6 3.3 2.47-1.61 2.78-1.89 4.93 2.18 5.19.51.03 1.33.68 1.42 1.15.55 2.79 2.45 2.88 4.76 2.92 4.37.06 5.59 1.23 6.06 5.77.25 2.36 1.12 3.73 3.44 4.64 5.71 2.24 11.3 4.79 17.22 7.33 1.37-1.91 2.83-3.73 4-5.72.38-.64.36-2.03-.08-2.56-1.41-1.66-1.76-3.13-.58-5.12.38-.64.08-2.08-.43-2.77-.7-.95-1.89-1.54-2.88-2.29 4.71-4.6 4.71-4.6.33-9.36.81-.53 2.01-.9 2.39-1.68.62-1.28 1.43-3.63.9-4.11-3.5-3.11-2.21-5.73.9-8.72-1.42-.92-2.64-1.71-3.92-2.55 1.31-2.52 2.33-4.47 3.34-6.41-1.37-1.21-2.71-2.39-4.3-3.79 1.75-1.35 3.05-2.34 4.46-3.43-1.1-2.31-2.14-4.5-3.22-6.76 1.32-1.11 2.49-2.1 3.98-3.36-2.17-2.08-4.15-4.17-6.35-6-1.75-1.46-2.58-3.06-1.8-5.23.81-2.27.11-4.1-1.24-5.89-1.48-1.96-2.75-4.09-4.3-5.99-2.67-3.3-3.42-7.17-2.53-11.06.49-2.15 2.42-3.97 3.9-5.02 1.92-.44 3.89-1.38 5.76-1.21 4.24.39 8.47 1.14 12.6 2.15 1.5.37 2.64 2.04 4.08 2.87 3.25 1.86 4.35 3.98 3.54 8.1-.49 2.49 1.8 5.71 3.27 8.36 1.23 2.22 3.12 4.08 4.65 6.15 2.8 3.78 3.4 7.55 2.35 12.47-.66 3.09-.58 6.8-.76 10.23-.17 3.24 2.27 6.57-.33 9.85-.21.26-.17.96.04 1.26 1.57 2.24 1.4 4.23.24 6.77-.53 1.14 1.14 3.29 1.93 5.27-2.02 2.15-1.7 4.48-.91 7.73.89 3.63-.64 7.85-1.09 11.82-.12 1.08-.52 2.4-.07 3.23 1.31 2.44 2.03 4.66-.02 7.08-.13.15 1.25 2.11 1.54 2.01 2.82-.9 6.69.4 8.01-4.02.26-.86 3.03-.98 4.86-1.5-.1-.67-.24-1.61-.43-2.92 1.77-.71 3.6-1.43 5.58-2.22-.46-1.19-.89-2.31-1.37-3.54 3.02-.56 6.06 4.47 8.89.11 1.81-2.79 3.21-5.78-.38-9.01 2.83-.22 5-.39 7.92-.61-1.26-1.98-1.89-2.97-2.68-4.22 1.06.07 1.97-.13 2.54.22 4.95 2.99 6.27-1.84 8.65-4.07 2.2-2.07.88-4.56-.41-6.4-.89-1.28-2.69-2.06-4.24-2.72-3.12-1.33-3.37-2.04-.98-4.91-1.31-.77-2.58-1.51-3.63-2.12-.33-2.09-.69-4.32-1.12-6.98 1.89-2.62 1.75-5.47-.31-8.61-.51-.78-.19-2.4.24-3.44.87-2.12 1.91-4.06-.42-5.95-.39-.32-.69-1.38-.47-1.7 3.25-4.64-1.47-6.87-3.02-10.02-.3-.61-1.26-.89-1.55-1.08 5.25-10.42.96-17.34-7.62-23.33 2.29-.59 3.94-.57 4.97-1.36 4.05-3.08 9.69-1.12 12.72-3.87 2.86.21 4.95.15 6.93.59 1.47.32 3.54.93 4.07 2.03 2.45 5.12 6.16 10.47 6.11 15.71-.05 4.91 2.26 7.7 4.07 11.27 3.31 6.51 6.51 13.07 4.53 20.75-.03.11-.08.25-.04.33 1.81 2.87 2.15 5.65.31 8.8-.3.51 1.87 2.47 3.13 4.06-1.03 1.22-2.16 2.55-3.44 4.07 2.03 2.22 2.4 4.52 1.42 7.56-.51 1.58 1.33 3.83 1.85 5.85.29 1.12.04 2.38.01 3.58-.03 1.14-.42 2.4-.07 3.4.9 2.58.37 4.56-1.74 6.23-1.05.83-1.93 1.89-3.02 2.66-2.53 1.79-3.6 4.14-3.2 7.22s-.92 5.31-3.31 7.22c-5.33 4.27-10.48 8.76-15.83 12.99-1.48 1.17-3.5 1.63-5.15 2.61-.88.52-1.52 1.46-2.55 2.5-2.86 1.02-7.1 1.47-9.82 3.73-4.29 3.57-8.82 1.76-13.23 2.19-1.89.18-2.95.33-3.4 2.57-.27 1.35-1.71 2.91-3.02 3.53-4.31 2.04-5.7 5.09-5.35 9.84.47 6.46.38 12.99.02 19.46-.22 3.98.98 6.41 4.89 7.4 3.54-3.61 3.54-3.61 9 .22 10.21-9.42 21.22-18.11 29.22-29.78 1.19-1.73 2.55-2.49 4.69-2.54 4.68-.1 9.35-.49 14.02-.78 2.4-.15 3.89 1.1 5.21 2.96 1.54 2.18 3.31 4.19 5.16 6.48-7.62 5.94-15.16 11.71-22.55 17.67-1.46 1.18-2.38 3.05-3.5 4.64-.5.72-.73 1.7-1.35 2.25-8.66 7.58-17.31 15.17-26.13 22.56-.94.79-3 .8-4.33.43-2.46-.69-4.35-.31-6.02 1.58-.37.42-.89.69-1.27 1.1-2.91 3.17-6.24 4.34-10.72 3.81-5.93-.69-6.77.08-7.94 5.94-1.37 6.86-2.25 13.82-3.41 20.72-.16.96-.56 1.91-1.01 2.78-.81 1.59-2.29 3.05-2.52 4.7-.53 3.81.31 7.8-1.86 11.41-.23.38.93 1.59 1.55 2.58-1.12.14-2.09.26-3.06.37.26.19.52.39.78.58-1.63 2.88-3.3 5.74-4.87 8.65-2.87 5.29-5.67 10.61-8.51 15.92-1.42 2.65-2.56 5.51-4.33 7.9-2.84 3.83-6.2 7.04-11.68 6.46-1.74-.19-3.58.18-5.33.53-6.18 1.23-6.61 1.07-9.47-4.62 0-2.02-.14-4.05.05-6.05.12-1.19.5-2.54 1.22-3.45 1.09-1.39 2.68-2.37 3.88-3.69 2.99-3.27 2.91-4.72-.22-8.85 6.88-2.54 7.05-9.82 10.3-14.91.5-.74-.77-2.57-1.36-4.23z" fill="#010105"/><path d="m304.64 319.33c-2.27-1.99-4.43-2.93-7.62-1.76-1.43.52-3.82-1.26-5.65-2.23-1.42-.75-2.46-.83-4.18-.46-3.17.67-6.58.19-10.03.19-.09-1.03-.16-1.72-.22-2.37-.39-.05-.64-.16-.82-.09-4.24 1.65-6.87-1.12-9.71-3.46-2.23-1.84-4.36-4.98-7.76-.18-.14-2.74-.23-4.46-.32-6.16-2.37-.49-4.69-.8-6.89-1.48-2.07-.64-3.4-1.81-2.65-4.5.31-1.11-.25-2.88-1.04-3.82-3.02-3.59-5.25-7.45-5.8-12.2-.45-3.92-2.16-7.25-5.15-9.83-2.55-2.21-3.35-4.96-2.57-8.12.9-3.61.12-6.4-3.29-7.99 0-.43-.09-.73.01-.85 4.32-4.82 2.03-9.75.25-14.65-.8-2.21-1.81-4.27.47-6.4.53-.49-.09-2.2-.17-3.36-.12-1.6-.43-3.23-.28-4.8.12-1.28 1.47-2.79 1.08-3.71-.95-2.28-2.51-4.33-3.99-6.34-.49-.66-1.51-.92-2.28-1.38-4.39-2.61-4.67-4.03-2.67-8.69.56-1.32-.14-3.18-.32-5.6 2.19-1.44 2.28-3.67.31-7.12-1.48-2.59-1.16-6.22-1.7-9.8 2.49-1.65 2.71-3.95.39-6.59-.47-.53-.9-1.66-.65-2.17 2.22-4.6-.93-8.97-.45-13.55.49-4.65.07-9.39.16-14.09.02-.81.59-1.6.87-2.42.22-.67.76-1.68.5-2-1.98-2.37-1.09-4.85-.55-7.36.18-.85.52-2.1.1-2.58-2.7-3.15-.72-5.26 1.3-7.19-1.42-1.91-2.77-3.72-4.64-6.23 4.44-.03 4.32-2.15 4.06-4.57-.33-3.03-.9-6.14-.49-9.1.53-3.84 1.13-7.47-1.1-10.98-.45-.72-.8-1.72-.7-2.54.61-5.07-.61-9.48-4.85-12.92.16-.25.33-.5.49-.74h6.8c.48-.82 1.26-2.16 2.02-3.47 5.53 3 6.7-3.46 10.61-4.54 3.07 2.85 5.86 5.95 5.5 11.1-.29 4.21.61 8.49.51 12.73-.17 6.9-.56 13.8-1.18 20.68-.25 2.81 0 4.85 2.63 6.48 3.55 2.19 6.33 5.16 8.37 8.93 1.95 3.6 4.43 4.14 8.46 3.17 1.37-.33 2.99.49 4.51.59 1.81.12 3.63.03 6.08.03 1.1 2.23 2.37 5.17 3.99 7.91.53.9 1.88 1.52 2.98 1.83 1.03.29 2.23.1 3.33-.06 6.42-.95 12.37.35 18.14 3.22 1.57.78 3.64.5 5.44.88 1.23.26 2.6.54 3.56 1.27 3.2 2.45 6.31 5.02 9.3 7.72 1.42 1.28 2.63 1.49 4.1.36 1.99-1.54 3.95-1.25 6.27-.54 1.57.48 3.51-.24 5.49-.45 1.68 4.32 1.74 4.35 9.4 4.25.28-4.06 2.36-8.01.36-12.26-1.28-2.73.86-3.72 2.73-4.35 2.18-.73 4.53-.97 7.83-1.62-2.36-3.19-4.44-5.94-6.42-8.75-.56-.79-.83-1.78-1.51-3.27-5.53-1.05-3.7-7.11-5.71-10.25 3.55-3.18 6.78-6.07 10.36-9.27-4.85-4.36-8.98-8.07-12.21-10.97.15-3.2.52-5.51.3-7.76-.46-4.66 3.92-10.52 8.54-11.05.78-.09 1.57-.08 2.34-.17 3.1-.39 4.74.97 7.02 3.36 6.14 6.43 6.22 14.58 8.09 22.27.16.65-.03 1.53-.38 2.12-1.38 2.36-2.22 4.54.21 6.85.59.56.64 1.83.71 2.78.14 1.98.12 3.98.16 5.97.01.43.18 1.07-.04 1.26-3.09 2.72-1.36 5.95-1.16 9.09.38 6.03.41 12.08.8 18.11.15 2.39.84 4.75 1.3 7.12.06.33.35.69.27.95-2.35 7.45 1.7 15.07-.59 22.56-.47 1.53-.36 3.41.04 4.98 1.5 5.98-1.19 12.24 1.31 18.12-3.17 9.37 2.08 18.43 1.04 27.75-.14 1.3 1.03 2.75.93 3.99-.13 1.52-.81 3.29-.27 4.52 1.07 2.44 1.62 4.7-.05 6.9-2.15 2.82-.48 4.6 1.94 6.57-3.24 1.49-2.73 3.49-1.44 5.88.57 1.05.91 2.94.35 3.76-1.66 2.44-.74 4.39.05 6.78 1.15 3.47 1.73 7.16 2.3 10.79.14.89-.45 2.29-1.17 2.84-7.07 5.45-9.52 12.79-9.17 21.39.04 1.1-.18 2.2-.3 3.55-6.39-1.08-5.75 5.43-9.05 8.09-2.34-1.03-4.69-1.35-6.77.99-.39.44-1.81.41-2.5.07-4.59-2.2-8.6-.87-12.53 1.7-1.47.96-2.83 1.89-4.73.13-.7-.65-3.22-.21-4.26.59-1.66 1.26-2.75.77-4.15-.08-1.43-.87-2.94-1.6-4.41-2.41-3.9-2.11-3.9-2.11-7.92.48zm5.92-27.85c1.37-2.46 3-2.62 5.36-1.74 1.57.59 3.72.48 5.33-.11 2.32-.84 3.94-.49 5.73 1.1 2.99 2.63 5.9 5.7 10.61 4.07.42-.15 1.04.4 1.57.43 1.17.08 2.44.32 3.51-.02 4.27-1.36 6.28-4.2 5.38-8.83-.21-1.08.05-2.24-.04-3.35-.7-8.26 1.74-16.75-1.78-24.83-.23-.53.09-1.32.19-1.98.33-2.32.93-4.64.97-6.96.07-4.39-2.09-8.98 1.33-13.03-1.52-2.95-.98-6.27-1.58-9.27-1.16-5.85-2.79-11.42-.21-17.24.22-.51-.09-1.27-.19-1.9-.59-3.83-1.15-7.67-1.79-11.49-.55-3.32-1.2-6.63-1.88-10.39-3.56 1.62-6.24 2.86-9.05.38-.64-.57-2.31.07-3.51.08-1.15.01-2.52.33-3.41-.18-5.74-3.25-11.42-6.61-17.01-10.1-1.8-1.12-3.24-1.44-5.18-.28-.96.57-3.47.57-3.57.27-1.15-3.53-4.2-2.03-6.4-2.68-.98-.29-2.19-.54-2.81-1.24-3.36-3.74-6.58-7.61-9.92-11.54-2.24 1.81-3.78 3.06-5.22 4.23-4.06-2.14-8.02-4.18-11.93-6.32-.63-.34-1.41-1.02-1.5-1.64-.63-4.21-4.42-4.59-7.25-6.1-.54-.29-1.63-.19-2.11.19-2.08 1.62-4.63 3-4.6 6.17.02 2.1.42 4.21.25 6.28-.27 3.07-1.57 6.12.49 9.09.2.29-.05 1.22-.38 1.52-1.88 1.65-1.09 3.33-.29 5.11 1.07 2.4 1.19 4.68-.84 6.82-.47.49-.15 1.72-.24 3.31 1.74-1.44 2.6-2.14 2.73-2.25 2.43.46 4.54 1.58 5.85.97 3.98-1.83 7.12-1.03 10.09 1.77 1.68 1.58 3.49 2.21 5.79 1.27 1.98-.81 3.7-.2 5.61.88 1.64.94 4.07 1.48 5.82.99 2.03-.57 3.41-.43 5.3.39 5.59 2.43 11.26 5.37 17.47 1.48.51-.32 1.49-.19 2.14.04 3.34 1.2 6.63 2.27 9.89-.86 2.64 4.48 5.93 7.93 9.12 11.48 5.05 5.62 7.87 13.18 5.43 21.62-5.94.12-11.94.2-16.7-4.61-.35-.36-.98-.71-1.43-.66-4.48.54-8.94 1.18-13.42 1.76-.6.08-1.58.19-1.78-.12-2.21-3.32-4.89-2.08-7.63-.99-.59.24-1.47.5-1.91.24-4.55-2.7-10.53-3.29-13.21-8.76-.99-2.03-2.15-2.69-4.17-1.22-.6.43-1.93.8-2.27.49-3.58-3.34-8.31-2.89-12.56-3.87-4.76-1.11-9.11 3.9-7.94 8.7.72 2.97 2.11 5.94-.18 8.94-.27.36.44 1.84 1.06 2.44 1.44 1.41 2.03 2.63.87 4.63-.47.82.13 2.3.33 3.46.26 1.53 1.4 3.83.8 4.43-3.59 3.58.92 7.8-1.25 11.32 2.81 5.07 1.61 10.48 1.23 15.78-.13 1.91.75 2.63 2.3 2.97 4.32.95 7.65 3.39 10.57 6.63 2.17 2.41 4.73 4.46 6.89 6.87 1.77 1.99 3.4 2.66 5.61.78 1.61-1.37 3.15-1.08 5.17-.33 2.97 1.1 6.3 1.98 9.41 1.77 6.02-.38 11.8-.45 16.94 3.74z" fill="#010105"/></svg>