<svg enable-background="new 0 0 400 400" viewBox="0 0 400 400" xmlns="http://www.w3.org/2000/svg"><path d="m5.17 384 .55-.58c.85.61 1.65 1.24 2.4 1.87l-.59.64c-.83-.73-1.62-1.38-2.36-1.93m1.22 9.53-.82-.34c.71-1.76 1.37-3.64 1.98-5.63.24.13.5.25.76.36-.6 1.67-1.24 3.54-1.92 5.61m-.5-13.5.57-.54c.56.44 1.31 1.06 2.26 1.87l-.64.64c-.68-.66-1.41-1.32-2.19-1.97m3.25.46h2.24v-1.36h.77v1.36h4.57v-1.36h.76v1.36h2.28v.69h-2.28v1.84h-2.64v1.26h4.18v2.64h-4.21c0 .45-.02.86-.05 1.21h4.32v.69h-4.38c-.04.34-.1.75-.19 1.22h5.15v.69h-4.82c.87 1.19 2.51 1.92 4.93 2.19-.17.31-.3.57-.37.76-2.77-.49-4.52-1.41-5.26-2.76-.56 1.26-2.3 2.23-5.24 2.9-.12-.24-.26-.48-.43-.72 2.73-.55 4.38-1.34 4.96-2.38h-4.38v-.69h4.65c.1-.38.17-.79.21-1.22h-4.32v-.69h4.4c.03-.34.05-.75.05-1.21h-4.2v-2.64h4.23v-1.26h-2.69v-1.84h-2.24zm1.46 4.46v1.29h3.45c.01-.4.02-.57.01-.53v-.32-.45h-3.46zm1.55-2.59h4.57v-1.19h-4.57zm6.11 2.59h-3.42v.77c-.01.19-.01.37-.02.53h3.44z" fill="#fafafc"/><path d="m32.63 379.16h.82v1.98h3.54v7.89h1.46v.78h-14.37v-.78h1.46v-7.89h3.54v-1.98h.82v1.98h2.73zm-3.49 11.48.5.73c-1.61.82-3.28 1.63-5 2.41-.13-.27-.28-.55-.44-.82 1.75-.72 3.4-1.49 4.94-2.32m-2.78-5.55h2.73v-3.18h-2.73zm0 3.95h2.73v-3.2h-2.73zm3.54-3.95h2.73v-3.18h-2.73zm0 3.95h2.73v-3.2h-2.73zm7.89 4.68c-1.84-.92-3.51-1.7-5.02-2.32l.45-.73c1.89.8 3.57 1.55 5.04 2.23zm-1.62-11.81h-2.73v3.18h2.73zm-2.73 7.13h2.73v-3.2h-2.73z" fill="#fafafc"/><g fill="#010101"><path d="m184.02 319.88c-12.46 18.76-29.62 28.94-51.95 29.99-.24-.28-.48-.43-.51-.61-1.32-7.57-1.13-7.28 5.39-11.36 19.85-12.38 37.26-27.52 50.18-47.21 2.84-4.33 4.01-9.83 5.55-14.91.93-3.07-.36-4.83-3.93-5.69-25.32-6.06-50.58-12.38-75.85-18.63-5.58-1.38-9.48-5.6-9.62-11.4-.15-6.46.31-12.94.69-19.4.07-1.22.82-2.55 1.61-3.56 5.7-7.33 11.45-14.62 17.29-21.84 1.02-1.26 2.41-2.34 3.82-3.16 12.56-7.31 25.28-14.35 37.72-21.87 8.84-5.34 14.79-12.89 15.25-23.8.17-4.05-.89-6.84-4.87-9.16-21.55-12.54-42.85-25.51-64.3-38.22-2.2-1.31-3.05-2.55-2.13-5.04 1.02-2.75.39-5.36-.83-8.02-2.6-5.68-5.49-11.3-5.64-17.76-.02-.99 0-1.99 0-3.35 4.59.41 9 .7 13.37 1.28.83.11 1.75 1.2 2.23 2.07 3.6 6.57 6.96 13.27 10.68 19.76 1.58 2.76 3.45 5.56 5.82 7.63 9.63 8.41 19.98 15.85 31.83 20.89 2.65 1.13 5.48 1.95 8.3 2.56 5.85 1.26 9.52-2.44 8.34-8.46-.64-3.28-2.24-6.42-2.54-9.7-.68-7.55-.98-15.15-1.17-22.74-.42-16.78-.69-33.56-1-50.34-.02-.86.09-1.72.14-2.71 4.44.61 7.63 2.86 9.94 6.37 3.14 4.78 4.38 10.05 4.98 15.77 1.19 11.45 3.29 22.8 4.61 34.24.95 8.21 1.35 16.5 1.8 24.76.48 8.86 3.75 12.1 12.59 10.69 8.78-1.41 17.59-3.09 25.56-7.55 6.53-3.66 13.19-7.09 19.88-10.45 5.08-2.55 8.89-6.35 11.73-11.17 2.67-4.52 5.1-9.19 7.87-13.65 1.15-1.86 2.68-3.63 4.42-4.95 3.24-2.44 7.22-1.22 9.3 2.21 4.18 6.89 1.65 13.66-.18 20.42-.21.78-1.37 1.39-2.2 1.89-20.63 12.35-41.24 24.71-61.93 36.96-3.74 2.21-7.78 3.91-11.67 5.87-3.59 1.82-5.72 4.86-7.13 8.53-.61 1.58-.42 2.59 1.21 3.53 6.42 3.71 12.84 6.9 20.52 7.65 4.87.48 9.88 2.3 14.25 4.6 15.06 7.95 28.45 18.15 39.33 31.4 1.41 1.72 2.54 3.68 3.79 5.53 6.04 8.9 6.93 18.57 4.57 28.85-.92 4.02-1.38 8.17-1.74 12.28-.2 2.34-1.08 3.84-2.97 5.21-5.44 3.93-10.86 7.9-16.05 12.15-9.93 8.13-21.54 11.47-34.04 12.56-4.01.35-8.03.6-12.01 1.17-4.5.65-7 3.24-7.51 7.7-.78 6.76 1.2 13.11 3.56 19.27.61 1.59 2.56 2.75 4.07 3.88 10.57 7.9 21.25 15.66 31.77 23.63 5.28 4 10.11 8.52 13.03 14.66 1.46 3.07 1.15 4.08-2.25 4.52-2.81.37-5.76 0-8.61-.35-5.87-.72-10.99-2.98-15.71-6.78-8.36-6.74-17.11-12.97-25.71-19.41-.87-.65-1.78-1.25-2.91-2.05-3.38 7.4-6.68 14.59-9.92 21.82-.3.67-.21 1.54-.23 2.32-.19 7.05-.39 14.09-.54 21.14-.17 8.31-3.79 12.54-11.98 13.88-1.52.25-3.06.35-4.76.53-1-8.03.37-15.57 2.22-23.08 1.15-4.66 2.56-9.29 3.27-14.02 1.14-7.37-1.35-13.41-8.09-17.77zm31.58-62.96c9.23-1.05 18.15-1.61 26.89-3.19 7.25-1.31 13.28-5.06 16.5-12.31 1.08-2.44 2.54-4.74 4.07-6.94 5.88-8.45 6.01-17.89 4.33-27.39-2.13-12.03-10.52-18.96-20.88-24.11-7.89-3.92-15.69-8.04-23.51-12.1-2.17-1.13-4.29-2.35-6.47-3.55-3.2 2.49-6.41 4.76-9.31 7.36-.92.83-1.57 2.62-1.44 3.87 1.06 9.67 2.34 19.31 3.56 28.96 2.02 16.09 4.06 32.16 6.26 49.4zm-15.34-2.26c-1.99-1.45-3.49-2.8-5.2-3.75-2.76-1.52-3.86-3.72-3.83-6.81.04-5.03-.19-10.06-.19-15.09.01-9.16.48-18.34 0-27.48-.2-3.82-1.9-7.79-3.76-11.23-1.71-3.17-4.82-4.59-8.86-3.56-5.19 1.32-10.52 2.11-15.77 3.21-2.39.5-5.01.72-7.06 1.89-10.4 5.89-20.67 12.03-30.93 18.16-.82.49-1.82 1.63-1.79 2.43.28 8.04.38 16.13 4.03 23.6 1.18 2.41 2.67 4.15 5.49 4.89 4.31 1.13 8.46 2.89 12.77 4.02 14.14 3.69 28.29 7.36 42.52 10.7 3.93.93 8.15 1.04 12.58-.98z"/><path d="m238.36 227.71c-3.04.68-4.76-.71-6.24-3.23-2.84-4.85-5.76-9.55-4.77-15.58.5-3.03 3.95-5.71 6.87-4.7 4.51 1.57 9.08 3.13 13.28 5.35 2.18 1.15 4.16 3.45 5.26 5.7 2.17 4.45 1.51 5.71-2.89 7.96-3.69 1.89-7.43 3.68-11.14 5.51-.12-.33-.24-.67-.37-1.01z"/><path d="m176.83 221.69c-.12 1.39-.22 2.73-.35 4.06-.68 6.82-1.84 7.82-8.78 7.47-.62-.03-1.37-.19-1.82-.58-2.88-2.47-5.81-4.9-8.5-7.57-3.63-3.59-3.57-7.25-.09-10.85 1.09-1.13 2.29-2.17 3.25-3.4 2.15-2.77 4.46-4.26 8.25-2.89 4.05 1.47 6.8 3.81 7.54 8.12.32 1.87.34 3.79.5 5.64z"/></g></svg>