<svg enable-background="new 0 0 400 400" viewBox="0 0 400 400" xmlns="http://www.w3.org/2000/svg"><g fill="#010100"><path d="m134.83 210.09c.79-3.42 1.26-6.96 2.44-10.24 2.37-6.62 4.95-13.19 7.82-19.61 1.2-2.69 3.18-5.12 5.15-7.35 7.47-8.44 13.95-17.83 23.28-24.53.82-.59 1.38-2.02 1.45-3.11.51-7.37.96-14.74 1.17-22.12.04-1.24-.86-3.02-1.88-3.68-2.56-1.67-8-.54-10.19 1.69-8.13 8.33-16.27 16.65-24.37 25.01-.77.79-1.29 1.83-1.92 2.75-.37-.26-.74-.52-1.11-.78.39-.98.59-2.1 1.2-2.92 8.38-11.44 16.12-23.39 27.19-32.65 3.57-2.98 6.42-6.86 9.37-10.51.79-.98 1.12-2.66 1.02-3.97-.57-8-3.64-15.16-7.86-21.86-1.48-2.36-2.88-2.38-4.63-.15-5.38 6.87-10.89 13.66-16.02 20.71-3.92 5.38-8.9 8.11-15.49 7.44-6.42-.66-13.12-.98-17.66-6.54-1.38-1.7-2.01-4.01-3.1-6.27 3.78-.87 6.23-.45 8.7 1.82 5.6 5.14 15.92 5.24 21.57.14 5.3-4.78 10.6-9.76 12.11-17.26.81-4.01.35-4.85-3.56-4.8-5.34.07-10.68.64-16.02 1.02-5.02.35-7.16-.74-7.96-4.14-.07-.3.06-.66.12-1.18 7.41-2.64 15.16-3.4 22.98-3.71 9.69-.38 11.76-3.95 7.77-12.87-1.72-3.84-4.39-6.5-8.09-8.01-5.88-2.4-11.9-4.45-17.83-6.72-3.33-1.27-6.76-2.39-9.84-4.12-1.87-1.05-3.15-3.14-4.7-4.77.2-.22.39-.44.59-.66 6.07 1.15 12.11 2.62 18.23 3.37 7.47.92 14.48 2.78 20.62 7.25 5.35 3.89 8.45 8.87 7.31 15.78-.05.33-.08.67-.13 1-.8 5.34-.13 9.98 5.57 12.49 1.4.62 2.46 1.98 3.85 2.67 6.65 3.31 8.38 9.37 9.17 16 .25 2.11.39 4.24.7 6.34.79 5.33 2.57 10.22 6.97 13.7 3.83 3.02 6.39 7.98 12.23 8.05.7.01 1.49.93 2.07 1.58 4.87 5.42 8.19 11.72 10.03 18.74.46 1.77 1.23 4.15-2.01 4.49-5.33-12.14-13.32-21.04-27.24-23.13-2.97 5.21-3.39 10.6-3.2 16.13.15 4.14.1 8.3.53 12.4.19 1.82 1.02 3.83 2.17 5.25 6.33 7.83 14.44 13.65 22.66 19.3 5.22 3.59 9.42 7.91 10.94 14.3.25 1.07.35 2.17.53 3.29-3.07 1-5.04.07-7.16-2.16-4.98-5.24-10.33-10.14-15.58-15.12-.62-.59-1.54-.9-2.36-1.24-7.91-3.27-11.34-1.66-13.83 6.5-.14.47-.16 1.15.08 1.55 4.15 6.85 4.12 14.55 4.31 22.12.45 18.35.6 36.7.96 55.05.29 14.43 1.07 28.86.97 43.28-.06 8.81-1.08 17.64-2.24 26.39-1.44 10.9-.06 21.65.47 32.48.29 5.92-.86 11.9-1.37 17.85-.55.04-1.1.08-1.65.13-.53-1.92-1.36-3.81-1.52-5.76-.41-5.01-.69-10.04-.74-15.06-.11-13.52.73-27.11-.28-40.56-1.52-20.29-.26-40.47.25-60.71.68-26.86.21-53.71-2.45-80.49-.15-1.56.02-3.19-.39-4.67-.39-1.38-1.08-3.26-2.14-3.71-1.14-.48-3.24-.01-4.3.82-10.32 8.14-19.3 17.19-21.95 30.94-1.26 6.53-4.23 12.49-9.6 16.89-.33.27-.69.51-1.04.76-.4-.11-.77-.22-1.14-.33z"/><path d="m245.22 186.26c7.12-5.78 18.06-8.27 18.03-21.09-3.25-.27-6.51-.7-9.79-.76-4.47-.09-8.95.29-13.41.12-4.36-.17-8.68-.81-11.13-5.93 13.01-.5 25.59-.98 38.68-1.49 0-4.44.05-8.75-.06-13.06-.02-.64-.73-1.33-1.24-1.89-.97-1.08-2.13-2.01-3.01-3.16-3.99-5.22-8.95-8.32-15.76-8.65-3.8-.18-5.03-2.08-5.37-6.37 10.82 1.38 21.21 3.63 29.76 10.83 3.1 2.6 5.2 6.27 4.44 10.38-1.48 7.99-.03 15.68 2.08 23.18 3.14 11.18 1.64 22.31 1.21 33.57-.67 17.31-1.23 34.68 1.95 51.87.28 1.53.29 3.12.29 4.68.02 37.16.02 74.32-.01 111.49 0 1.37-.25 2.75-.39 4.12-.44.06-.88.12-1.32.18-.58-2.46-1.61-4.91-1.65-7.38-.18-9.5.33-19.03-.11-28.52-.93-19.89-2.25-39.77-3.55-59.65-.19-2.93-.51-5.57 3.19-7.03-3.6-2.63-3.67-6.15-3.72-9.8-.34-22.82-.74-45.65-1.22-68.47-.06-2.89-.73-5.76-1.11-8.64-.44-3.35-2.22-5.77-5.02-7.35-2.73 2.57-5.2 5.34-8.12 7.51-2.54 1.89-5.5 3.3-8.42 4.59-3.03 1.34-4.83.04-5.22-3.28z"/><path d="m222.82 25.32c2.92 2.25 4.19 4.98 4.53 7.93.45 3.86.24 7.8.55 11.69.37 4.54.82 9.09 1.6 13.57.44 2.55 1.9 3.63 5.06 3.03 6.65-1.27 13.4-3.37 20.23-1.6 4.6 1.19 9.21 2.72 13.47 4.81 4.25 2.09 6.03 6.17 5.8 10.92-.05.94-.63 2.33-1.34 2.63-.64.27-1.99-.46-2.68-1.11-3.24-3.08-6.33-6.32-9.54-9.44-3.38-3.29-7.38-4.49-12.02-3.27-1.08.29-2.22.37-3.26.77-3.74 1.44-8.21 1.33-10.7 5.43-3.29 5.4-4.67 11.12-3.4 17.33 1.01 4.94 1.14 9.78-.99 14.46-.62 1.36-1.5 2.61-2.27 3.9-.35-.04-.7-.09-1.05-.13-.36-3.93-1.15-7.88-1-11.8.34-9.06.34-17.9-2.04-26.9-1.65-6.22-.84-13.11-.95-19.71-.09-7.33 0-14.65 0-22.51z"/></g><path d="m377.9 391.2c-.2.3-.4.5-.6.8-.7-.6-1.4-1-2.2-1.5.2-.3.4-.5.5-.8.6.4 1.4.8 2.3 1.5zm-1.8 6.1c-.2-.2-.5-.4-.9-.6.4-.6.8-1.2 1.2-1.9s.7-1.3.9-1.9c.3.3.5.5.8.7-.7 1.3-1.4 2.6-2 3.7zm2.2-9c-.3.3-.5.5-.6.8-.6-.6-1.3-1.1-2-1.5.3-.3.5-.5.6-.7.6.5 1.3.9 2 1.4zm.3.2v-.9h2 4.5c-.3 1.3-.6 2.5-1 3.6s-.9 2.1-1.4 3c.4.5 1 1 1.6 1.4s1.2.8 1.9 1.1c-.3.2-.5.4-.8.8-.4-.3-1-.7-1.6-1.2s-1.2-1.1-1.6-1.6c-.5.6-1.1 1.1-1.7 1.6s-1.4.9-2.1 1.4c-.1-.3-.3-.5-.7-.8.6-.2 1.2-.5 1.9-1s1.4-1.1 2-1.8c-.5-.8-.9-1.6-1.2-2.5s-.6-2-.8-3.2c-.4.1-.7.1-1 .1zm2.5 2.7c.3 1 .7 1.7 1 2.2.3-.5.6-1.1 1-2s.6-1.9.9-3h-3.2-.4c.1.9.3 1.8.7 2.8z" fill="#fcfbfa"/><path d="m396.5 388.5v1.5 3.6h1.5v.9c-.4 0-1 0-1.7 0h-7.9c-.5 0-.9 0-1.2 0v-.9h1.3v-3.5c0-.7 0-1.2 0-1.6h2.4c0-.8 0-1.4 0-1.7h1c0 .3-.1.8-.1 1.7h1.5c0-.8 0-1.4 0-1.7h1c0 .3-.1.9-.1 1.7zm-8.2 9.2c-.2-.3-.5-.5-.8-.8.8-.3 1.4-.6 1.9-.9s1-.7 1.4-1.1c.3.3.6.5.9.8-1.6 1-2.8 1.6-3.4 2zm2.6-6.8v-1.6h-1.5v1.6zm0 2.7v-1.9h-1.5v1.9zm2.4-2.7v-1.6h-1.5v1.6zm0 2.7v-1.9h-1.5v1.9zm.2 2 .7-.8c.4.2.9.5 1.6.8s1.3.7 1.8 1c-.3.3-.5.5-.8.8-.4-.3-1.5-1-3.3-1.8zm2-4.7v-1.6h-1.4v1.6zm0 2.7v-1.9h-1.4v1.9z" fill="#fcfbfa"/></svg>