<svg enable-background="new 0 0 400 400" viewBox="0 0 400 400" xmlns="http://www.w3.org/2000/svg"><path d="m5.17 384 .55-.58c.85.61 1.65 1.24 2.4 1.87l-.59.64c-.83-.73-1.62-1.38-2.36-1.93m1.22 9.53-.82-.34c.71-1.76 1.37-3.64 1.98-5.63.24.13.5.25.76.36-.6 1.67-1.24 3.54-1.92 5.61m-.5-13.5.57-.54c.56.44 1.31 1.06 2.26 1.87l-.64.64c-.68-.66-1.41-1.32-2.19-1.97m3.25.46h2.24v-1.36h.77v1.36h4.57v-1.36h.76v1.36h2.28v.69h-2.28v1.84h-2.64v1.26h4.18v2.64h-4.21c0 .45-.02.86-.05 1.21h4.32v.69h-4.38c-.04.34-.1.75-.19 1.22h5.15v.69h-4.82c.87 1.19 2.51 1.92 4.93 2.19-.17.31-.3.57-.37.76-2.77-.49-4.52-1.41-5.26-2.76-.56 1.26-2.3 2.23-5.24 2.9-.12-.24-.26-.48-.43-.72 2.73-.55 4.38-1.34 4.96-2.38h-4.38v-.69h4.65c.1-.38.17-.79.21-1.22h-4.32v-.69h4.4c.03-.34.05-.75.05-1.21h-4.2v-2.64h4.23v-1.26h-2.69v-1.84h-2.24zm1.46 4.46v1.29h3.45c.01-.4.02-.57.01-.53v-.32-.45h-3.46zm1.55-2.59h4.57v-1.19h-4.57zm6.11 2.59h-3.42v.77c-.01.19-.01.37-.02.53h3.44z" fill="#fafafc"/><path d="m32.63 379.16h.82v1.98h3.54v7.89h1.46v.78h-14.37v-.78h1.46v-7.89h3.54v-1.98h.82v1.98h2.73zm-3.49 11.48.5.73c-1.61.82-3.28 1.63-5 2.41-.13-.27-.28-.55-.44-.82 1.75-.72 3.4-1.49 4.94-2.32m-2.78-5.55h2.73v-3.18h-2.73zm0 3.95h2.73v-3.2h-2.73zm3.54-3.95h2.73v-3.18h-2.73zm0 3.95h2.73v-3.2h-2.73zm7.89 4.68c-1.84-.92-3.51-1.7-5.02-2.32l.45-.73c1.89.8 3.57 1.55 5.04 2.23zm-1.62-11.81h-2.73v3.18h2.73zm-2.73 7.13h2.73v-3.2h-2.73z" fill="#fafafc"/><g fill="#010101"><path d="m267.12 69.03c-10.54 3.96-20.89 7.84-31.24 11.72-4.76 1.78-5.43 3.47-3.85 8.18.62 1.85.64 3.94.72 5.93.26 6.24.46 12.48.62 18.72.13 5.36.68 10.77.15 16.06-.89 8.75 1.17 17.32 5.28 24.21 7.46 12.51 9.54 26.38 13.18 39.87 2.11 7.84 3.75 16.16 1.46 24.21-1.72 6.05-4.65 11.82-7.47 17.49-3.95 7.95-9.9 13.66-18.52 16.89-17.04 6.4-33.96 13.15-50.76 20.16-14.06 5.86-19.54 16.6-16.91 31.57 1.19 6.76 4.39 9.19 11.16 7.38 5.35-1.44 10.68-3.42 15.59-5.98 13.98-7.28 27.78-14.9 41.55-22.57 2.88-1.6 5.52-3.79 7.88-6.11 4.33-4.26 8.29-3.68 10.82 1.81 2.57 5.57 1.5 11.13.27 16.74-.32 1.46-.47 3.06-.24 4.52.67 4.29.26 8.34-1.05 12.53-2.8 8.96-7.31 16.63-13.21 24.08-9.77 12.32-20.33 23.8-31.66 34.62-1.57 1.49-3.56 2.74-5.58 3.5-2.38.89-3.99-.66-3.41-3.19.36-1.56 1.27-3.06 2.21-4.39.69-.97 1.82-1.64 2.78-2.4 12.93-10.1 23.01-22.81 31.78-36.43 7.58-11.77 9.79-25.24 9.48-39.13-2.82-.95-4.69 0-6.82 1.68-2.94 2.33-6.38 4.04-9.67 5.92-3 1.71-6.05 3.32-9.1 4.94-5.61 2.97-11.25 5.89-16.85 8.88-2.35 1.25-4.76 2.46-6.91 4-8.84 6.34-18.46 8.19-28.95 5.35-4.74-1.28-9.77-7.38-9.67-12.29.24-11.85 1.53-23.55 9.58-33.07 2.54-3.01 6.13-5.12 9.14-7.74 1.49-1.3 2.93-2.73 4.11-4.31 5.95-7.94 10.22-16.71 13.15-26.21 1.21-3.91 3.16-7.62 4.98-11.31 7.02-14.25 12.81-28.99 18.25-43.92 5.34-14.64 10.24-29.3 12.31-44.8.16-1.21.35-2.44.35-3.66-.04-14.33-.11-28.65-.19-42.98-.02-3.38-1.08-4.37-4.51-3.81-2.97.48-5.89 1.31-8.82 2.02-5.22 1.26-9.81-.16-13.69-3.63-4.66-4.16-7.81-9.47-8.25-15.67-.49-6.89 3.27-12 8.89-15.72 1.3-.86 2.68-1.66 4.12-2.23 12.17-4.8 22.76-12.34 33.69-19.31 3.37-2.15 7.06-3.86 10.7-5.53 1.1-.51 2.69-.59 3.82-.2.95.33 1.96 1.54 2.18 2.53.15.68-.82 1.98-1.61 2.44-5.12 2.97-10.29 5.87-15.55 8.61-1.77.92-2.33 2.03-2.27 3.94.26 8.16.48 16.33.52 24.5.01 2.87 1.18 3.88 3.83 3.36 2.4-.47 4.84-.89 7.13-1.69 4.85-1.7 9.57-3.75 14.42-5.43 4.36-1.51 9.24.94 10.66 5.35zm-39.38 88.03c-.55 1.45-1.09 2.78-1.58 4.13-5.72 15.6-10.65 31.5-18.86 46.11-4.81 8.55-9.14 17.34-11.91 26.89-1.3 4.48-4.14 8.52-6.4 12.7-1.99 3.67-4.41 7.17-3.6 12.74 12.66-4.83 25.09-8.89 36.91-14.27 9.9-4.51 17.46-12.13 20.84-22.91 4.06-12.97 1.31-25.87-1.38-38.6-1.4-6.61-4.05-12.97-6.22-19.4-1.27-3.72-3.11-6.95-7.8-7.39zm-7.01-88.6c-.29-4.9-.5-9.8-.92-14.69-.27-3.2-4-4.79-6.6-2.9-4.51 3.27-8.83 6.84-13.53 9.81-3.55 2.25-4.26 5.29-3.56 8.86.44 2.25 1.46 4.42 2.42 6.53 1.33 2.92 3.61 3.94 6.8 3.14 3.02-.76 6.14-1.16 9.13-2 6.27-1.75 6.52-2.21 6.26-8.75z"/><path d="m148.45 43.78c3.26.18 5.81 2.19 7.81 4.73 2.2 2.79 4.07 5.86 5.97 8.88 2.36 3.77 4.64 7.59 6.9 11.42 7.84 13.34 13.62 27.37 12.56 43.22-.36 5.41-1.42 10.9-3.1 16.06-.89 2.73-3.5 5.15-5.84 7.1-4.08 3.38-5.14 7.17-4.03 12.32 1.19 5.55 2 11.28 2.08 16.95.08 6.11-.7 12.26-1.42 18.35-1.16 9.75-2.27 19.53-4.08 29.17-.74 3.93-3.18 7.57-4.98 11.27-2.49 5.12-5.09 10.19-7.69 15.26-1.51 2.95-2.88 3.12-4.26.08-2.74-6.07-5.09-12.33-7.53-18.53-.57-1.44-.62-3.11-1.3-4.48-6.29-12.74-7.47-26.64-8.48-40.39-.54-7.36 1.02-14.92 2.06-22.32.76-5.38 2.29-10.64 3.31-15.98.23-1.2-.12-2.54-.38-3.78-.13-.62-.56-1.26-1.03-1.71-9.73-9.34-9.06-21.01-7.29-32.86 1.83-12.33 5.32-24.21 10.4-35.58 1.02-2.28 3.13-4.06 4.29-6.3 2.16-4.13 3.97-8.43 6.03-12.88zm-9.86 129.98c0 16.45 3.54 31.82 9.94 44.72.3.6.67 1.16 1.07 1.7 1.85 2.49 2.57 2.43 3.77-.32 4.72-10.88 8.75-21.87 9.49-33.97.71-11.49-.68-22.76-2.08-34.06-.4-3.21-4.98-7.05-7.99-7.36-2.87-.3-7.93 3.31-9.31 6.27-3.66 7.85-5.52 16.01-4.89 23.02zm14.24-111.66c-3.96 7.18-7.93 13.67-11.15 20.52-1.77 3.77-2.53 8.1-3.17 12.26-.22 1.4 1.24 4.35 2.13 4.43 7.09.66 14.31 1.58 21.34.91 8.66-.82 9.34-1.63 7.05-10.59-2.64-10.33-8.66-19.17-16.2-27.53zm2.17 71.15c.35-.03 1.25-.02 2.12-.21 6.46-1.37 15.66-14.72 14.51-21.17-.11-.64-.92-1.5-1.56-1.67-10.52-2.78-21-1.63-31.41.67-.95.21-2.18 1.93-2.24 3-.54 9.55 8.59 19.23 18.58 19.38z"/></g></svg>