<svg enable-background="new 0 0 400 400" viewBox="0 0 400 400" xmlns="http://www.w3.org/2000/svg"><path d="m111.34 328.51c14.63-3.48 28.63-8.78 43.73-10.17 10.73-.99 21.4-3.27 31.89-5.84 6.93-1.69 12.66-6.24 17.35-11.63 5.54-6.37 6.22-13.9 3.9-21.77-1.76-6-3.64-11.98-5.67-17.89-.46-1.35-1.55-2.69-2.72-3.54-3.5-2.57-7.18-4.9-10.11-6.88-8.93 6.93-17.3 13.82-26.08 20.13-9.73 6.99-20.69 11.11-32.8 11.3-3.76.06-7.54-.8-11.28-1.42-.59-.1-1.49-1.2-1.44-1.76.2-2.18-1.78-4.79.88-6.5 3.28-2.1 6.46-4.86 10.08-5.85 20.81-5.68 36.2-19.41 51.33-33.63.82-.77 1.52-1.66 2.39-2.36 6.39-5.11 7.73-11.97 6.92-19.62-1.01-9.58-2.07-11.48-11.57-13.48-6.24-1.31-12.84-1.01-19.28-1.24-.79-.03-2.06 1.01-2.36 1.82-1.81 4.9-3.77 9.8-4.96 14.87-1.44 6.08-3.78 10.94-10.44 12.56-2.23.54-4.02.14-4.44-2.11-.55-2.97-1.25-6.22-.6-9.06 1.95-8.61.4-11.14-8.44-10.55-5.42.36-10.75 1.92-16.13 2.88-5.44.98-8.88-1.31-8.91-6.17-.01-1.24.9-2.99 1.93-3.65 7.07-4.52 14.06-9.23 21.51-13.03 6.36-3.25 8.07-8.45 8.52-14.73.05-.67.01-1.34.01-2.01.03-6.19 1.7-8.43 8.18-10.59 3.45 7.63 6.93 15.31 10.54 23.3 8.42-2.85 16.67-5.59 24.85-8.51.78-.28 1.68-1.73 1.61-2.58-.4-5.4-.3-11-1.78-16.13-2.49-8.68-6.07-17.04-9.11-25.56-1.15-3.23-3.91-4.14-6.67-4.07-7.36.18-14.72.77-22.06 1.35-.74.06-1.67 1.08-2.04 1.87-2.74 5.98-5.32 12.04-8.01 18.04-1.87 4.16-3.58 8.43-5.87 12.35-1.69 2.89-4.36 5.07-8.65 5.57-.24-1.74-.63-3.4-.63-5.07 0-1.06.36-2.28.96-3.17 5.73-8.49 5.2-17.95 4.57-27.5-.54-8.25-.8-16.51-1.18-24.93 2.45-.5 4.61-1.1 6.82-1.33.97-.11 2.33.19 2.99.84 5.19 5.02 11.37 6.85 18.44 6.22 2.56-.23 5.14-.32 7.71-.33 3.31-.01 4.91-2.22 4.82-4.87-.1-2.88-.7-6.21-2.29-8.49-5.43-7.77-7-15.92-3.69-24.78 3.75-10.05 7.49-20.12 11.86-29.9 1.62-3.63 5.02-6.46 7.76-9.85 4.93 3.81 9.15 7.7 11.68 13.1 1.38 2.93 2.83 5.85 3.95 8.88 1.78 4.81 4.25 9.06 8.27 12.36.83.68 1.52 1.67 1.94 2.66 2.96 7 5.89 14.01 8.68 21.08.45 1.15.38 2.64.17 3.9-.76 4.52-1.71 9.01-2.56 13.51-.75 3.98 2.2 6.88 6.29 6.19 2.2-.37 4.38-.88 6.59-1.16 2.9-.37 5.14.92 6.25 3.51 1.18 2.74 2.4 5.61 2.76 8.52 1.05 8.56.84 16.78-2.75 25.21-3.67 8.61-9.55 14.92-15.94 21.14-4.74 4.61-7.54 10-6.47 16.77.18 1.15 1.27 2.76 2.26 3.05 3.6 1.07 7.31 2.16 11.03 2.32 5.19.22 9.29 1.98 12.8 6.3-6.08 4.49-11.15 10.4-19.27 11.28-3.49.38-5.14 2.69-4.62 5.71.72 4.09 1.79 8.29 3.61 11.99 5.68 11.53 11.54 22.94 15.33 35.31 3.31 10.79 4.64 21.71 2.28 32.76-.73 3.41-2.56 7.12-5.03 9.53-12.5 12.26-19.08 27.33-22.1 44.23-1 5.59-.58 6.24 4.36 8.96 7.26 3.99 14.76 4.84 22.63 2.03 1.99-.71 4.06-1.57 6.11-1.65 2.48-.1 5.26-.02 7.44 1 5.38 2.51 5.73 6.74 1.02 10.02-8.41 5.86-18 7.67-28.02 7.49-3.55-.06-7.14-.56-10.61-1.32-9.9-2.18-16.43-8.01-18.76-18.12-.78-3.38-1.23-6.89-2.52-10.07-1.35-3.34-3.28-6.52-5.42-9.44-1.8-2.45-4.4-3.1-7.72-2.52-12.54 2.22-25.14 4.15-37.75 5.95-3.04.43-6.27.29-9.32-.2-5.98-.94-8.56-4.15-8.93-10.83zm79.95-237.26c-1.64-6.23-2.95-12.58-5.04-18.67-1.66-4.84-5.34-8.22-10.44-9.64-.9-.25-2.48-.46-2.8-.01-1.95 2.77-4.82 5.59-5.18 8.65-.99 8.61 1.5 16.83 5.29 24.56 1.63 3.33 6.14 4.76 10.18 3.61 4.4-1.23 7.31-4.57 7.99-8.5zm5.24 65.88c3.38-2.26 6.35-4.4 9.47-6.29 5.51-3.35 7.35-8.76 8.27-14.6.55-3.51-.92-6.2-4.16-8.04-4.81-2.72-9.99-3.5-15.41-3.92-3.09-.24-4.26 1.07-4.88 3.61-.26 1.08-.58 2.18-.65 3.28-.65 9.43 3.14 17.57 7.36 25.96z" fill="#010100"/><path d="m276.6 273.45c-8.89-13.36-18.93-25.81-23.9-41.2-.89-2.74-2.86-3.94-5.28-3.52-3.45.59-6.87 1.66-10.15 2.92-2.74 1.05-5.12 1.53-7.36-.84-3.45-3.66-3.14-5.64 1.29-7.85 4.8-2.4 9.68-4.65 14.34-7.3 1.41-.8 2.89-2.6 3.13-4.14.54-3.38.51-6.89.35-10.32-.23-4.85 1.37-8.03 5.81-9.84.91-.37 2.55-.01 3.34.64 1.8 1.49 3.27 3.36 4.88 5.07 1.53 1.62 3.07 3.22 4.6 4.83 7.67-6.88 7.22-20.7-.72-26.81-2.57-1.98-5.38-3.69-7.74-5.89-4-3.73-8.66-5.39-14-5.18-3.72.15-5.22-1.75-5.55-5.15-.38-3.93-.28-7.27 2.79-10.72 8.8-9.89 11.96-21.84 11.7-35.05-.32-15.96-5.53-30.68-10.06-45.66-2.25-7.45-4.04-15.12-5.14-22.82-.98-6.88 1.19-13.44 4.53-19.48 10.22 1.6 17.48 8.1 19.49 18.82 1.76 9.42 2.25 19.07 3.48 28.6.84 6.54 2.04 13.03 2.97 19.55.71 4.95 4.11 8.31 6.79 12.13 2.17 3.09 4.93 6.02 6.17 9.47 1.96 5.46 1.62 8.19-4.37 9.47-2.73.59-5.42 1.35-8.13 1.99-3.79.9-5.41 2.58-5.6 6.47-.25 5.15.3 10.02 5.21 13.29 4 2.66 7.85 5.55 11.69 8.44 9.8 7.39 13.77 20.21 9.79 31.72-2.7 7.81-5.5 15.6-8.37 23.35-.53 1.42-1.45 2.77-2.45 3.92-6.23 7.2-8.94 15.08-5.42 24.47 2.35 6.28 4.55 12.61 6.54 19.01.98 3.16 1.69 6.51 1.85 9.8.18 4.57-1.66 6.5-6.5 7.81z" fill="#010100"/><g fill="#fcfbfa"><path d="m377.9 391.2c-.2.3-.4.5-.6.8-.7-.6-1.4-1-2.2-1.5.2-.3.4-.5.5-.8.6.4 1.4.8 2.3 1.5zm-1.8 6.1c-.2-.2-.5-.4-.9-.6.4-.6.8-1.2 1.2-1.9s.7-1.3.9-1.9c.3.3.5.5.8.7-.7 1.3-1.4 2.6-2 3.7zm2.2-9c-.3.3-.5.5-.6.8-.6-.6-1.3-1.1-2-1.5.3-.3.5-.5.6-.7.6.5 1.3.9 2 1.4zm.3.2v-.9h2 4.5c-.3 1.3-.6 2.5-1 3.6s-.9 2.1-1.4 3c.4.5 1 1 1.6 1.4s1.2.8 1.9 1.1c-.3.2-.5.4-.8.8-.4-.3-1-.7-1.6-1.2s-1.2-1.1-1.6-1.6c-.5.6-1.1 1.1-1.7 1.6s-1.4.9-2.1 1.4c-.1-.3-.3-.5-.7-.8.6-.2 1.2-.5 1.9-1s1.4-1.1 2-1.8c-.5-.8-.9-1.6-1.2-2.5s-.6-2-.8-3.2c-.4.1-.7.1-1 .1zm2.5 2.7c.3 1 .7 1.7 1 2.2.3-.5.6-1.1 1-2s.6-1.9.9-3h-3.2-.4c.1.9.3 1.8.7 2.8z"/><path d="m396.5 388.5v1.5 3.6h1.5v.9c-.4 0-1 0-1.7 0h-7.9c-.5 0-.9 0-1.2 0v-.9h1.3v-3.5c0-.7 0-1.2 0-1.6h2.4c0-.8 0-1.4 0-1.7h1c0 .3-.1.8-.1 1.7h1.5c0-.8 0-1.4 0-1.7h1c0 .3-.1.9-.1 1.7zm-8.2 9.2c-.2-.3-.5-.5-.8-.8.8-.3 1.4-.6 1.9-.9s1-.7 1.4-1.1c.3.3.6.5.9.8-1.6 1-2.8 1.6-3.4 2zm2.6-6.8v-1.6h-1.5v1.6zm0 2.7v-1.9h-1.5v1.9zm2.4-2.7v-1.6h-1.5v1.6zm0 2.7v-1.9h-1.5v1.9zm.2 2 .7-.8c.4.2.9.5 1.6.8s1.3.7 1.8 1c-.3.3-.5.5-.8.8-.4-.3-1.5-1-3.3-1.8zm2-4.7v-1.6h-1.4v1.6zm0 2.7v-1.9h-1.4v1.9z"/></g></svg>