<svg enable-background="new 0 0 400 400" viewBox="0 0 400 400" xmlns="http://www.w3.org/2000/svg"><path d="m146.44 264.04c4.2 3.21 9.48 3.65 14.71 3.18 7.67-.7 15.27-2.14 22.94-3.01 9.56-1.08 19.14-1.93 28.72-2.81 23.51-2.16 47-4.53 70.54-6.32 17.24-1.31 34.17-4.08 50.94-8.16 2.75-.67 5.8-.73 8.62-.36 6.61.87 10.73 6.84 9.43 13.39-4.45 22.37-8.97 44.72-13.53 67.06-.28 1.36-.94 2.76-1.78 3.88-4.73 6.24-9.53 12.44-14.44 18.54-.82 1.01-2.21 1.91-3.48 2.16-27.22 5.32-54.47 10.35-82.17 12.76-26.52 2.31-52.96 5.53-79.44 8.33-1.78.19-3.57.18-5.36.23-33.55.83-67.11 1.64-100.66 2.54-1.88.05-2.77-.46-3.52-2.15-4.03-9.03-5.72-18.61-6.41-28.33-1.74-24.52-.56-48.96 2.22-73.38.72-6.38-.33-12.95-.5-19.43-.88-32.1-2.09-64.2-2.42-96.31-.13-12.93 1.95-25.86 2.53-38.82.55-12.4.62-24.82.62-37.24 0-12.8.6-25.51 4.18-37.88 1.12-3.86 2.46-7.66 3.86-11.42 1.1-2.94 4.97-4.99 8.01-4.59 29.94 3.96 59.84 8.32 89.85 11.68 16.69 1.87 32.06 7.77 47.77 12.79.68.22 1.44 1.06 1.63 1.76.77 2.8 1.47 5.63 1.9 8.5.14.92-.38 2.21-1.03 2.95-5.83 6.63-8.35 14.47-9.85 23.07-1.94 11.1-5.02 22-7.36 33.03-3.43 16.18-6.55 32.43-10.01 48.61-.52 2.42-1.86 4.78-3.28 6.86-7.92 11.6-10.76 24.84-12.72 38.4-1.75 12.16-3.26 24.37-5.44 36.46-.87 4.73-3.28 9.19-5.07 14.03zm-1.98-79.97c-9.18-.57-17.87-1.11-26.56-1.64-16.85-1.03-33.71-2.03-50.56-3.13-2.01-.13-3.15.36-3.53 2.45-.93 5.16-2.38 10.26-2.87 15.46-2.54 26.63-.36 53.19 1.73 79.73.68 8.59 1.81 17.1.28 25.73-1.02 5.79-.36 11.46 2.89 16.87.6-.64.99-1.02 1.36-1.44 11.86-13.41 23.83-26.73 35.53-40.27 9.33-10.79 20.12-20.47 26.31-33.73.37-.79 1.17-1.38 1.58-2.16.97-1.83 2.18-3.63 2.66-5.6 1.46-5.97 2.62-12.01 3.9-18.02 2.39-11.23 4.78-22.48 7.28-34.25zm85.77 163.36c-.44-.62-.6-.92-.83-1.16-19.38-20.18-38.77-40.36-58.17-60.53-.52-.54-1.2-1.25-1.85-1.3-4.22-.3-8.53-1.04-12.67-.51-10.42 1.34-20.77 3.21-31.12 5.04-1.62.29-3.41 1.16-4.55 2.31-6.61 6.69-13.04 13.54-19.54 20.34-10.52 11-21.05 21.99-31.57 32.99-2.02 2.12-1.49 8.4.88 8.84 7.46 1.39 15.02 3.72 22.47 3.47 19.89-.66 39.73-2.64 59.61-3.79 17.74-1.02 35.5-1.89 53.26-2.3 8.11-.16 16.02-.65 24.08-3.4zm-146.02-302.56c.34 4.92 1.87 8.61 4.72 11.86 2.86 3.27 5.48 6.77 8.18 10.18 3.81 4.81 7.65 9.6 11.37 14.48 4.86 6.38 10.3 12.44 14.28 19.34 8.07 13.98 16.13 27.85 28.2 38.88.8.73 1.65 1.78 2.58 1.91 4.37.61 6.78-1.5 7.41-6 2.39-17.16 4.83-34.31 7.24-51.47.97-6.95 1.91-13.9 2.92-21.28-9.55-2.93-18.77-6.5-28.32-8.51-13.22-2.78-26.68-4.39-40.04-6.49-6.05-.95-12.09-1.89-18.54-2.9zm-14.61 23.02c-.62 2.06-1.1 3.4-1.43 4.77-5.31 21.66-7.26 43.68-6.6 65.91.17 5.83 1.78 11.65 3.09 17.38.28 1.24 2.03 2.78 3.34 3.05 19.87 4.1 39.88 7.05 60.25 6.26 3.67-.14 7.31-1.04 11.49-1.67-23.59-32.2-46.64-63.65-70.14-95.7zm199.98 274.61c14.02-2.24 27.81-4.4 41.57-6.73 1.06-.18 2.23-1.38 2.82-2.41 2.61-4.55 5.14-9.16 7.42-13.87.65-1.34.91-3.34.4-4.68-1.71-4.54-1.34-8.87.15-13.35 2.29-6.88 4.73-13.73 6.49-20.75 1.75-6.95-1.67-12.12-8.8-12.4-5.3-.21-10.83 1.08-16 2.58-6.96 2.02-11.71 6.7-13.41 14.07-1.99 8.62-6.43 16.02-11.07 23.47-4.16 6.68-7.39 13.98-10.52 21.23-1.74 4.05-1.55 8.5.95 12.84zm-69.68-63c-.14.28-.28.56-.42.84.78.61 1.62 1.16 2.34 1.83 10.22 9.55 20.33 19.22 30.69 28.63 3.26 2.96 7.01 5.46 10.8 7.72 5.08 3.03 7.84 1.85 9.89-3.72 4.17-11.32 8.31-22.65 12.46-33.98 1.76-4.8.11-7.16-5.08-6.97-6.46.23-12.93.4-19.35 1.04-13.79 1.39-27.56 3.05-41.33 4.61z" fill="#010102"/><g fill="#fafbfa"><path d="m6.4 11.7c-1-.8-1.9-1.6-2.9-2.3l.6-.7c.9.7 1.9 1.4 2.9 2.2zm-2.1 8.3c.7-2.1 1.4-4.2 2-6.4.2.1.6.3 1 .4-.7 2.3-1.3 4.4-1.9 6.4zm3-12.8c-1.1-.9-2.1-1.7-2.9-2.4l.6-.7c1 .8 2 1.5 3 2.4zm1.4-1.3v-.9h10.2v.9c-.9 4.2-2.3 7.3-4.1 9.4 1.3 1.4 3.2 2.7 5.7 4-.2.2-.4.5-.7.9-2.5-1.4-4.4-2.7-5.7-4.2-1.4 1.5-3.5 3-6.1 4.4 0 0 0 0-.1-.1-.3-.4-.5-.7-.7-.8 2.7-1.3 4.7-2.8 6.2-4.2-1.8-2.2-3-5.3-3.7-9.4zm9.2 0h-7.1c.6 3.8 1.7 6.7 3.4 8.7 1.7-2 2.9-4.8 3.7-8.7z"/><path d="m31.6 3.6h.9v2.3h4.1v9.1h1.7v.9h-16.6v-.9h1.7v-9.1h4.1v-2.3h.9v2.3h3.1v-2.3zm-4 13.3.6.8c-1.9.9-3.8 1.9-5.8 2.8-.2-.3-.3-.6-.5-.9 2-.9 3.9-1.8 5.7-2.7zm-3.2-10.1v3.7h3.1v-3.7zm0 4.5v3.7h3.1v-3.7zm4.1-4.5v3.7h3.1v-3.7zm0 4.5v3.7h3.1v-3.7zm9.1 9.1c-2.1-1.1-4.1-2-5.8-2.7l.5-.8c2.2.9 4.1 1.8 5.8 2.6zm-1.9-13.6h-3.1v3.7h3.1zm-3.2 4.5v3.7h3.1v-3.7z"/></g></svg>