<svg enable-background="new 0 0 400 400" viewBox="0 0 400 400" xmlns="http://www.w3.org/2000/svg"><path d="m5.17 384 .55-.58c.85.61 1.65 1.24 2.4 1.87l-.59.64c-.83-.73-1.62-1.38-2.36-1.93m1.22 9.53-.82-.34c.71-1.76 1.37-3.64 1.98-5.63.24.13.5.25.76.36-.6 1.67-1.24 3.54-1.92 5.61m-.5-13.5.57-.54c.56.44 1.31 1.06 2.26 1.87l-.64.64c-.68-.66-1.41-1.32-2.19-1.97m3.25.46h2.24v-1.36h.77v1.36h4.57v-1.36h.76v1.36h2.28v.69h-2.28v1.84h-2.64v1.26h4.18v2.64h-4.21c0 .45-.02.86-.05 1.21h4.32v.69h-4.38c-.04.34-.1.75-.19 1.22h5.15v.69h-4.82c.87 1.19 2.51 1.92 4.93 2.19-.17.31-.3.57-.37.76-2.77-.49-4.52-1.41-5.26-2.76-.56 1.26-2.3 2.23-5.24 2.9-.12-.24-.26-.48-.43-.72 2.73-.55 4.38-1.34 4.96-2.38h-4.38v-.69h4.65c.1-.38.17-.79.21-1.22h-4.32v-.69h4.4c.03-.34.05-.75.05-1.21h-4.2v-2.64h4.23v-1.26h-2.69v-1.84h-2.24zm1.46 4.46v1.29h3.45c.01-.4.02-.57.01-.53v-.32-.45h-3.46zm1.55-2.59h4.57v-1.19h-4.57zm6.11 2.59h-3.42v.77c-.01.19-.01.37-.02.53h3.44z" fill="#fafafc"/><path d="m32.63 379.16h.82v1.98h3.54v7.89h1.46v.78h-14.37v-.78h1.46v-7.89h3.54v-1.98h.82v1.98h2.73zm-3.49 11.48.5.73c-1.61.82-3.28 1.63-5 2.41-.13-.27-.28-.55-.44-.82 1.75-.72 3.4-1.49 4.94-2.32m-2.78-5.55h2.73v-3.18h-2.73zm0 3.95h2.73v-3.2h-2.73zm3.54-3.95h2.73v-3.18h-2.73zm0 3.95h2.73v-3.2h-2.73zm7.89 4.68c-1.84-.92-3.51-1.7-5.02-2.32l.45-.73c1.89.8 3.57 1.55 5.04 2.23zm-1.62-11.81h-2.73v3.18h2.73zm-2.73 7.13h2.73v-3.2h-2.73z" fill="#fafafc"/><g fill="#010101"><path d="m144.84 238.08c.31 4.98.61 9.96.94 14.94.08 1.11.37 2.21.42 3.33.12 2.58.46 5.36-2.73 6.48-3.1 1.09-6.45-.76-8.43-3.57-4.63-6.57-5.76-13.38-3.31-21.14.83-2.65.16-5.96-.46-8.83-.45-2.11-2.12-3.1-4.65-2.08-3.41 1.37-6.98 2.37-10.49 3.49-4.04 1.29-7.78 2.9-11.23 5.65-7.15 5.69-16.89 8.11-24.15 6.78-.11-.19-.24-.37-.31-.57-1.53-4.49.44-6.88 4.39-9.15 11.14-6.39 21.99-13.25 33.42-20.21-2.86-2.33-5.4-4.46-8-6.51-1.4-1.11-2.83-2.23-4.38-3.1-17.91-10.04-23.12-27.13-25.5-45.79-2.05-16.04 1.4-31.14 8.13-45.61 1.01-2.18 2.44-4.27 4.07-6.03 6.16-6.64 12.48-13.13 19.1-20.06-18.46-11.05-28.49-26.92-28.57-48.69 3-1.43 5.49-1.7 7.55 1.74 3.31 5.56 7.22 10.78 10.31 16.46 5.03 9.27 11.82 15.58 22.08 19.38 3.2-6.01 2.92-12.43 2.01-18.82-1.45-10.11-2.92-20.17-.12-30.27 5.33-.51 10.66 3.15 12.6 9.35 1.49 4.78 2.04 9.85 3.4 14.68 1.07 3.8 2.73 7.43 4.32 11.63 7.85-7.29 14.4-14.35 15.41-25.73 3.22.79 6.79.76 9.13 2.43 4.79 3.43 4.85 7.07 1.15 11.76-5.48 6.94-10.9 13.94-16.63 20.66-2.06 2.42-4.92 4.18-7.48 6.14-2.91 2.23-3.01 5.49.05 7.79 15.96 12 27.05 27.8 35.62 45.56 7.97 16.53 8.4 33.05 1.55 50.3-4.52 11.39-10.11 21.57-19.86 29.12-2.6 2.01-5.35 3.89-8.24 5.44s-3.2 2.92-.59 5.14c11.58 9.88 23.15 19.78 34.77 29.61 1.52 1.29 3.36 2.21 4.96 3.41 1.04.79 2.21 1.63 2.83 2.73 1.75 3.08.6 5.44-2.86 6.07-5.49 1-10.47-.75-15.04-3.5-9.58-5.75-19.03-11.73-28.55-17.6-1.79-1.11-3.62-2.17-5.42-3.25-.42.17-.81.31-1.21.44zm-17.34-115.3c.34-.07.68-.15 1.02-.22-1.19-4.8-2.19-9.66-3.64-14.39-.69-2.27-2.67-2.99-5.17-2.39-3.04.73-6.2.95-9.21 1.76-1.27.34-2.69 1.39-3.34 2.52-4.94 8.51-7.51 17.86-9.23 27.47-.98 5.45-1.34 10.91 1.01 16.13.43.95 1.52 2.2 2.38 2.25 5.98.4 12.02 1.01 17.97.61 6.37-.43 6.85-1.71 7.01-7.96.22-8.59.78-17.18 1.2-25.78zm43.49 35.32c2.09-16.93-10.74-41.66-23.57-45.57-.14.53-.33 1.04-.39 1.56-1.2 10.44-2.41 20.88-3.56 31.32-.6 5.46 4.01 8.37 6.28 12.43.11.2.61.24.93.24 6.78.02 13.57.02 20.31.02zm-40.58 43.34c-.55-6.3-.81-12.21-1.65-18.04-1.27-8.91-6.6-14.19-15.47-15.72-2.86-.49-5.79-.52-8.66-.98-2.24-.35-3.24.81-4.05 2.57-2.3 4.95-1.25 10.2 3.62 14.9 4.58 4.43 9.59 8.41 14.29 12.71 3.13 2.86 6.81 4.07 11.92 4.56zm14.45 4.6c1.84-.75 2.97-1.05 3.95-1.63 9.6-5.64 15.25-14.1 17.51-24.89.2-.96-.1-2.29-.66-3.12-3.68-5.4-16.76-7.17-21.6-2.9-.69.61-1.05 1.93-1.06 2.93-.06 4.91-.15 9.84.15 14.74.3 4.75 1.07 9.47 1.71 14.87z"/><path d="m193.26 59.56c5.94-.48 10.94-.56 16.3 2.1 12.68 6.29 25.85 11.59 39.34 17.51 0-17.05 0-33.33 0-49.72 7.35 3.14 16.75 13.43 12.85 22-.98 2.16-.62 3.79 1.84 4.74 2.04.79 2.3 2.47 1.88 4.45-1.08 5.06-.67 5.92 3.75 8.68 11.22-7.15 18.13-18.23 25.78-28.66 6.18 6.16 6.13 13.77.77 20.1-10.48 12.37-20.65 25-30.94 37.54-.69.85-1.23 1.83-2.45 3.66 3.96 1.08 7.45 1.95 10.89 2.98 2.71.82 5.48 1.62 8.01 2.85 2.29 1.11 4.21 2.99 6.47 4.19 9.07 4.84 15.38 12.02 20.25 21.1 3.98 7.42 7.47 14.14 7.06 23.28-.46 10.26.12 20.54-2.17 30.67-3.53 15.61-12.08 27.37-26.42 34.81-3.04 1.58-6.15 3.35-8.59 5.71-2.61 2.52-2.34 3.9.65 5.69 6.81 4.08 13.54 8.32 20.02 12.91 5.25 3.71 9.68 8.29 10.58 15.41-3.59 1.19-6.95.68-10.14-.74-3.57-1.58-6.96-3.57-10.52-5.19-4.44-2.03-8.97-3.87-14.61-6.28.61 5.05 1.05 9.06 1.6 13.05.38 2.77 1.15 5.5 1.34 8.27.39 5.58-4.07 8.86-9.28 6.89-.74-.28-1.34-1.35-1.67-2.19-3.19-8-4.64-16.27-4.36-24.92.26-8.05-2.07-10.27-10.14-9.87-5 .25-9.58 1.25-13.77 4.91-6.21 5.42-14.32 7.14-22.29 8.51-2.94.51-6.01.53-8.98.32-1.1-.08-2.35-1.29-3.11-2.3-2.09-2.77-1.17-4.77 1.85-6.21 7.25-3.46 14.54-6.89 21.66-10.6 4.13-2.15 8.13-4.65 11.9-7.38 1.69-1.22 2.69-3.4 4.07-5.24-4.95-3.75-9.7-6.93-13.98-10.65-11.1-9.66-16.15-22.51-18.63-36.62-.25-1.43-.45-2.87-.75-4.3-2-9.53.06-18.11 3.79-27.17 4.68-11.34 13.34-18.82 21.24-27.23 3.83-4.08 7.85-7.98 11.73-12.02.73-.77 1.34-1.76 1.71-2.75.96-2.56.38-4.06-2.51-5.29-14.09-5.99-28.07-12.24-42.03-18.54-1.35-.61-2.69-1.98-3.33-3.33-2.31-4.8-4.33-9.76-6.66-15.13zm106.88 103c-.29-12.43-4.17-22.86-11.02-32.14-4.81-6.51-11.55-9.86-19.65-10.56-2.21 5.09-3.11 10.09-1.59 15.24 2.16 7.31 2.27 14.74 1.83 22.24-.1 1.75-.02 3.51-.02 5.22zm-51.04-41.03c-3.72 3.49-7.23 6.74-10.69 10.05-.54.52-.97 1.25-1.2 1.97-2.04 6.25-4.47 12.43-5.85 18.83-.76 3.52.15 7.44.57 11.15.08.69 1.49 1.83 2.2 1.77 6.3-.59 12.58-1.41 19.23-2.2 0-9.44.07-18.58-.03-27.73-.06-4.82-.49-9.62-4.23-13.84zm22.85 92.82c5.35-1.87 9.01-4.26 11.75-7.99 2.98-4.04 6.57-7.76 8.84-12.17 2.14-4.15 3.05-8.97 4.13-13.58.2-.84-1.22-2.83-2.18-3.04-7.5-1.71-15.04-1.76-22.44.66-2.03.66-2.86 2.13-2.72 4.39.32 5.35.24 10.73.67 16.07.39 5.06 1.23 10.08 1.95 15.66zm-15.25-4.14c-1.31-10.3-2.55-20.46-3.98-30.59-.09-.67-1.56-1.7-2.32-1.65-5.36.38-10.7.99-16.49 1.58.75 2.12 1.03 3.57 1.72 4.79 4.13 7.38 8.41 14.69 12.52 22.08 1.8 3.24 4.33 4.6 8.55 3.79z"/><path d="m234.18 270.12c4.1.8 6.17 3.28 7.46 6.55 3.72 9.45 4.75 19.41 4.16 29.35-1.03 17.49-5.71 34.36-10.44 51.14-.67 2.36-3.28 4.13-4.81 6.31-6.53 9.32-16.39 11.39-26.72 12.21-10.69.84-21.21-.45-30.39-6.23-6.89-4.34-14.03-8.98-16.1-17.9-.08-.32-.22-.63-.37-.93-6.03-12.67-8.61-25.93-7.41-39.99.24-2.78-.66-5.75-1.46-8.51-1.07-3.67-.69-6.93 1.11-10.31 1.57-2.93 2.64-6.12 3.89-9.21 1.46-3.59 2.74-3.86 5.35-1.04 4.26 4.6 8.39 9.32 12.79 13.77 1.1 1.11 3.01 2.01 4.56 2.01 14.88 0 29.76-.27 44.64-.31 3.42-.01 5.83-1.2 7.98-3.87 3.48-4.34 4.63-9.34 5.08-14.65.25-2.67.44-5.33.68-8.39zm-56.48 38.45c-.01-.07-.01-.13-.02-.2-1.3.16-2.8-.04-3.87.54-7.12 3.88-10.49 11.08-9.24 19.13 1.55 9.98 7.1 17.69 13.91 24.69.52.53 1.27.95 1.99 1.16 5.58 1.61 11.14 3.33 16.79 4.66 5.42 1.27 11.14.34 14.82-3.46 6.89-7.1 13.57-14.62 15.54-24.98.93-4.9 1.94-9.71-.6-14.39-1.04-1.92-2.01-3.83-4.82-4.01-14.83-.94-29.66-2.07-44.5-3.14z"/><path d="m208.08 331.48c-.36 8.12-4.69 11.47-12.27 9.7-2.91-.68-5.94-1.48-8.48-2.96-1.96-1.15-3.74-3.22-4.7-5.3-1.43-3.1.34-5.51 3.72-5.58 3.66-.08 7.09-.55 10.03-3.05.58-.5 1.88-.46 2.75-.25 1.72.43 3.34 1.26 5.06 1.73 3.24.89 4.7 2.79 3.89 5.71z"/></g></svg>