<svg enable-background="new 0 0 400 400" viewBox="0 0 400 400" xmlns="http://www.w3.org/2000/svg"><g fill="#fafafb"><path d="m12.4 4.8-6.1 9h6v1.2h-8v-.5l6.1-8.9h-5.7v-1.2h7.6v.4z"/><path d="m14 15v-10.6h3c1.6 0 2.9.5 4 1.4s1.6 2.2 1.6 3.8-.5 3-1.6 3.9-2.4 1.5-4 1.5zm1.4-9.4v8.2h1.6c1.3 0 2.4-.4 3.1-1.1s1.1-1.8 1.1-3.1-.4-2.3-1.2-3-1.8-1-3.1-1z"/><path d="m26.1 4.4v10.6h-1.4v-10.6z"/><path d="m36.1 14.6c-.8.4-1.8.6-2.9.6-1.5 0-2.7-.5-3.6-1.4s-1.4-2.2-1.4-3.8c0-1.7.5-3.1 1.5-4.1s2.3-1.6 3.9-1.6c1 0 1.8.1 2.5.4v1.4c-.8-.4-1.6-.6-2.5-.6-1.2 0-2.1.4-2.9 1.2s-1.1 1.8-1.1 3.2c0 1.3.3 2.3 1 3s1.6 1.1 2.7 1.1c1 0 2-.2 2.7-.7v1.3z"/><path d="m37.6 14.3c0-.2.1-.5.3-.6s.4-.3.6-.3c.3 0 .5.1.6.3s.3.4.3.6-.1.4-.3.6-.4.3-.6.3c-.3 0-.5-.1-.6-.3s-.3-.4-.3-.6z"/><path d="m50.2 15h-1.6l-5.3-8.2c-.2-.2-.3-.5-.4-.7 0 .2.1.7.1 1.5v7.4h-1.4v-10.6h1.7l5.2 8.1c.2.4.4.6.4.7 0-.3-.1-.8-.1-1.5v-7.3h1.4z"/><path d="m58.6 15h-5.7v-10.6h5.5v1.2h-4.1v3.4h3.8v1.2h-3.8v3.6h4.3z"/><path d="m67.1 5.6h-3.1v9.4h-1.4v-9.4h-3v-1.2h7.5z"/></g><path d="m92.82 375.03c0-116.62 0-232.92 0-349.37h207.91c0 8.69-.01 17.3 0 25.9.03 13.21.07 26.42.12 39.63.01 1.58-.08 2.79-1.77 3.88-1.23.79-1.62 2.88-2.39 4.39.31.22.62.44.93.67.99-.22 1.99-.43 2.96-.64v94.99c-2.15 1-5.63-.82-5.78 3.24.15.14.29.37.46.39 5.61.7 5.51.7 5.45 6.52-.08 8.38.15 16.76-.04 25.13-.25 11.03-.88 22.05-1.18 33.07-.2 7.57-.07 15.15-.16 22.72-.24 19.13-.6 38.27-.73 57.4-.04 5.46.62 10.92.81 16.38.13 3.73 0 7.47 0 11.21 0 2.42-.95 3.6-3.62 3.64-13.2.19-26.4.78-39.61.8-50.65.1-101.3.05-151.95.05-3.84 0-7.7 0-11.41 0zm130.5-202.51c2.01 4.7 6.28 4.2 10.06 4.95 1.47.29 2.91 1.07 4.17 1.92 1.18.79 2.01 2.66 3.18 2.84 3.15.49 3.44 2.67 3.8 5 4.4-.6 7.08.62 7.02 3.72-.07 3.94 2.98 5.06 5.34 6.75.78.56 2.27.18 3.43.13.68-.03 1.34-.26 2.14-.43-.53 4.38.73 7.79 3.19 8.3 3.73.79 4.73-2.48 6.94-5.02-3.33-.76-5.43-2.31-4.86-5.76.03-.17-.16-.41-.31-.55-3.06-3.06-6.04-6.19-9.21-9.12-1.68-1.55-3.68-2.75-5.54-4.11-.05.18-.1.36-.15.54-.78-1.75-1.57-3.51-2.35-5.26-2.04 0-3.73-.65-5.4-1.37-1.26-.54-2.75-1.95-3.66-1.63-2.38.84-3.63-.14-4.77-1.82-1.13-1.66-2.39-2.21-4.54-1.76-1.3.27-2.91-.78-4.33-1.35-4.03-1.63-7.1-6.72-11.45-3.77-3.33-1.31-5.86-2.31-8.08-3.18-.18-2.68-.43-5.32-.49-7.97-.01-.62.49-1.71.93-1.81 3.02-.71 2.26-2.76 1.87-4.78-.92-.2-1.84-.4-2.63-.57-.26-1.95-.48-3.69-.7-5.32 2.45-2.79 7.25-2.53 8.28-7.1 2.13 1.61 3.96 3.08 5.88 4.41 2.38 1.66 3.83 1.13 4.65-1.55.22-.73.47-1.46.74-2.3 4.48 1.1 8.6 1.13 11.8-2.65 4.58 1.45 4.94 1.09 4.82-3.59-.04-1.41.47-3.16 1.37-4.19 1.71-1.97 4.01-3.41 5.84-5.29 2.77-2.85 5.45-5.81 7.98-8.88 1.52-1.84 3.09-3.83 3.89-6.03 1.07-2.91 1.91-5.53 5.28-4.89.99-2.01 1.92-3.61 2.56-5.31.4-1.07.89-2.81.38-3.37-.85-.94-2.62-1.83-3.75-1.59-2.84.61-5.59 1.75-8.25 2.95-.61.28-1.27 1.95-.99 2.45 1.25 2.2-.33 3.23-1.41 4.62-1.12 1.43-1.77 4.03-3.07 4.37-3.92 1.02-4.24 4.11-5.24 7-.57 1.65-1.12 4.38-2.13 4.61-4.2.95-5.25 7.74-10.88 5.72-.3-.11-.86.63-1.34.91-1.7.99-3.41 1.94-5.22 2.97.11.53.3 1.42.6 2.84-1.52-.69-2.55-1.16-3.04-1.39-2.35 1.24-4.17 2.54-6.19 3.17-1.88.59-4.17.01-5.92.77-1.79.78-2.84.54-4.08-.65-.87-.84-1.86-1.55-2.67-2.21 1.34-3.83 2.58-7.37 3.81-10.9-1.1-.2-2.03-.09-2.47-.51-1.15-1.1-1.46-8.25-.26-9.15 3-2.22 2.78-5.33 2.97-8.47.11-1.68.82-3.33 1.25-4.99-.07-1.34-1.33-2.58-1.7-4.05-.92-3.64.04-7.07 1.86-10.32.96-1.7 1.25-4.09 2.63-5.17 2.17-1.71 2.45-3.5 2.03-5.85-.45-2.53-2.02-3.85-4.46-4.37-.57-.12-1.51-.43-1.56-.77-.5-3.03-3.09-2.87-5.18-3.9-1.92 9.05-3.69 17.77-5.68 26.44-.35 1.53-1.65 2.85-2.78 4.71.03.04.55.95 1.32 1.53 2.56 1.91 2.42 4.46 2.05 7.2-.25 1.82-.2 3.69-.31 6.19-4.22 4.23-4.22 4.37-.7 9.55.14 1.79.28 3.57.45 5.79-1.04 1.41-2.36 3.36-3.84 5.18-1.85 2.28-3.92 2.37-5.9.3-1.32-1.37-2.42-2.95-3.78-4.27-.65-.62-1.86-1.38-2.5-1.16-4.22 1.46-6.82-.38-8.33-3.56-1.34.21-2.52.8-3.21.45-3.57-1.82-7.09-3.76-10.45-5.93-.9-.59-1.7-2.18-1.63-3.25.17-2.64-.73-4.51-2.75-6.09-1.58-1.24-3.01-2.66-4.51-4.01.32-1.1.61-2.09.95-3.27-1.23-.17-2.17-.3-2.89-.39-1.62-6.41-3.19-12.58-4.85-19.17-2.41 1.44-4.04 2.4-5.66 3.38-4.04 2.46-4.24 4.57-1.18 8.28 1.16 1.4 2.92 3.77 2.44 4.79-1.41 3.04.28 4.51 1.87 6.34.42.49 1 1.32.84 1.75-1.16 3.1 1.31 4.37 2.92 6.03 2.65 2.73 5.37 5.39 8.05 8.1.21.21.32.53.48.79-.58.89-1.11 1.72-1.64 2.54.25-.02.5-.04.75-.06.37 1.73.74 3.46.96 4.49 2.42.36 5.22.69 7.99 1.22 1.96.37 3.93 1.6 5.78 1.4 3.07-.33 5.54.51 7.74 2.33 2.24 1.85 4.14 4.12 7.59 3.21.63-.16 1.51.75 2.31 1.08 1.54.63 3.1 1.19 5.09 1.94 0-.06-.27 1.44.04 1.57 4.92 2.09 5.53 5.55 4.22 10.36-.64 2.37.58 5.18.35 7.74-.38 4.31-3.08 5.74-6.71 3.98-1-.49-2.14-.75-3.06-1.35s-1.65-1.49-2.91-2.69c-3.2 0-7.12.11-11.03-.04-2.41-.1-4.2.35-5.64 2.57-.63.98-2.57 1.96-3.57 1.69-3.61-.98-6.04.34-7.88 3.35-4.01-3.01-5.66.51-7.68 2.23-4.9 0-9.58 0-14.65 0 .47 1.44.73 2.23.96 2.95-4.89 2.34-9.6 4.59-14.78 7.06 1.89 2.15 3.48 3.95 5.07 5.76 3.06-.64 6-1.26 9.38-1.97 1.93 4.26 5.12-1.45 7.4-.1 1.34-2.65 2.53-5.05 3.79-7.41.17-.31.74-.56 1.12-.57 2.22-.05 4.45.13 6.65-.05 1.7-.14 4.09-.12 4.92-1.17 2.76-3.45 6.1-4.05 10.26-4.31 4.88-.31 9.14.74 13.56 2.81 1.33-.81 2.8-1.84 4.4-2.61.66-.32 1.93-.41 2.36-.01 3.15 2.95 6.17 6.05 8.85 8.74-2.28 5.72-1.77 10.7-.64 15.89-2.22 2.63-4.5 5.57-7.05 8.26-1.59 1.68-1.57 3.16-.13 4.65 1.39 1.44 3.26 2.47 4.44 4.04 1.01 1.34 2.29 4.26 1.85 4.65-3.13 2.75-3.85 6.31-3.89 9.88-5.38 0-10.35 0-15.38 0-.47-.76-.98-1.58-1.78-2.87-1.65 1.52-2.92 3.16-4.59 4.09-1.45.81-4.44 1.61-4.86 1.04-3.08-4.23-7.06-2.5-11.6-2.55 1.45 2.04 3.1 3.41 3.38 5.01.29 1.63-.76 3.5-1.07 4.67-2.49 1.33-4.69 2.51-6.88 3.69.03-.27.05-.55.08-.82-1.48-.27-3.32-1.2-4.36-.64-1.39.74-2.15 2.64-3.38 4.3-1.89-2.53-3.57-1.32-5.22.03-2.23 1.82-4.46 3.66-6.32 5.19.54 2.66 1.07 5.24 1.57 7.72 3.92 2.14 8.04 4.39 12.95 7.07.75-1.6 1.88-3.18 2.21-4.91.76-3.88 1.76-4.69 5.57-5.3 2.17-.34 4.47-1.38 6.17-2.77 2.22-1.82 3.82-4.36 5.84-6.45.67-.7 1.95-1.52 2.68-1.31 2.44.69 3.61-.36 4.85-2.27 2.15-3.34 4.93-3.55 7.79-.78 1.2 1.16 2.03 2.73 3.32 3.76.73.58 2.13.78 3.07.54 1.82-.47 3.53-1.37 6.05-2.4-1.02 3.63-.74 5.72 2.05 6.85 1.81.74 1.22 1.61.28 3.02-1.44 2.15-2.98 4.65-3.19 7.11-.48 5.64-.2 11.35-.21 17.03-.01 6.02 0 12.03 0 18.28-.75-.53-1.49-1.06-2.24-1.6-.01.23-.02.47-.04.7-1.78.23-3.56.47-5.53.73-.16.23-.56.83-.97 1.43-2.02-.91-3.77-3.81-5.83-.81s-3.69 2.37-5.21-.21c-1.29-2.2-2.91-2.01-4.4-.67-1.88 1.7-3.45 3.73-5.5 6.01-.88-.79-1.87-1.76-2.95-2.62-.64-.5-1.73-1.33-2.11-1.12-2.01 1.16-4.17 2.34-5.63 4.06-.59.7.48 2.79.99 5.13-1.95.3-4.18.63-6.4.97-.71-.06-1.22.68-1.85 1.3-.72.7-1.57 1.25-2.31 1.93-2.26 2.08-1.96 3.73.7 4.99 1.55.73 2.93 1.81 4 2.48 1.44.26 2.91.09 3.63.74 3.48 3.11 5.02 3.24 8.37-.06 1.88-1.85 3.57-3.9 5.36-5.87 2.57 2.84 5.9 3.58 7.5 1.31 1.53-2.17 3.32-2.24 5.47-2.2 2.8.05 5.61.18 8.39-.03 2.99-.23 5.21.63 6.82 3.88-1.8 1.12-3.63 2.26-6.13 3.81 1.06.8 1.99 1.61 3.03 2.26 1.86 1.17 3.58 2.34 2.37 4.96-.63 1.37-.45 1.96 1.23 2.62 1.17.46 1.75 2.43 2.1 2.96-2.56 1.52-4.31 2.55-6.09 3.61 1.2 1.9 2.11 3.35 3.02 4.8-4.39-2.16-5.61 2.18-8.02 3.59-.59.35-.46 1.93-.8 3.66 1.69-1.07 2.52-1.6 3.52-2.23 1.02.91 2.01 1.79 3.12 2.77-2.24 2.71-1.88 4.83 1.11 6.61.58.35.9 1.6.88 2.42-.05 2.14-1.05 4.5-.43 6.36 1.61 4.78 1.48 8.76-3.78 11.89 3.29.79 5.48 3.54 8.45.91.38-.34 1.49.28 2.21.17.98-.15 2.13-.33 2.84-.93 1.36-1.14 2.67-2.47 3.59-3.97.55-.9.89-2.71.37-3.36-2.27-2.85-1.11-5.01.38-7.74 1.1-2.02.9-4.75 1.27-7.17-1.57-.25-2.49-.39-3.53-.55 4.49-5.63 4.32-8.16-.12-12.95.72-1.99 1.84-3.66 1.78-5.28-.07-2-1.13-3.96-1.99-6.65 1.74.62 2.45.88 3.89 1.39-1.3-2.48-2.75-4.2-3.06-6.11-.35-2.12.41-4.41.53-6.63.03-.59-.49-1.21-.74-1.82-.89-2.22-.31-3.49 2.26-3.34 3.11.18 6.22.42 9.31.63 1.35 4.56 3.79 7.06 9.26 4.61-.7 1.82-1.08 2.81-1.45 3.77 2.22 2.88 2.2 2.89 3.34 7.17.13.49.56.98.98 1.32 1.83 1.47 3.85 2.75 5.53 4.37 1.53 1.48 2.7 3.32 4.03 5 2.52 1.01 4.88 2.39 6.85 4.19 2.14 1.95 3.93 4.29 5.9 6.48-1.67 2.32-5.96 3.81-2.13 7.68 1.15-.61 2.21-1.19 3.24-1.74-.71-3.85.31-4.41 4.83-3.81 1.74.23 3.63-.69 5.45-1.08-.73-1.59-1.11-3.54-2.28-4.69-1.91-1.86-3.43-3.51-2.43-5.33-2.54-1.88-4.93-3.28-6.87-5.15-3.96-3.79-7.56-7.96-11.55-11.71-1.66-1.56-3.94-2.46-6.5-3.99.1-5.63-5.63-8-9.53-11.74-.91.41-1.8.81-3.08 1.38.52-1.55.84-2.53 1.26-3.76-1.25.2-2.17.34-2.28.36-3.13-3.83-7.08-4.63-11.4-5.68 1.75-3.46-.27-5.44-3.17-6.89.84-1.35 1.45-2.36 2.19-3.54-4.97-2.7-4.01-7.32-2.44-10.86 1.61-3.63 2.17-6.17-1.39-8.54 1.41-2.13 4.07-4.71 3.57-5.67-1.44-2.81.29-5.14 0-7.62-.21-1.78-.37-3.56-.64-6.16.7-1.09 2.88-2.99 3.04-5.03.33-4.33 3.88-4.32 6.34-5.22.94-.35 3.01 1.97 4.37 3.28 1.03.99 1.57 2.55 2.67 3.41 1.15.9 2.78 1.9 4.08 1.76 3.47-.38 4.53 1.43 5.1 4.27.31 1.55.57 3.29 1.45 4.52 1.43 2 3.54 3.51 5.01 5.49 2.12 2.86 3.82 6.16 7.42 3.99 1.9 2.16 3.28 4.05 4.99 5.59 2.12 1.9 4.87 3.19 6.69 5.31 2.65 3.08 4.41 6.62 8.87 8.14 4.26 1.45 6.66 1.45 9.42-2.62-2.17-2.78-4.46-5.53-6.52-8.45-1.35-1.92-2.81-2.77-5.28-2.64-1.4.07-3.13-1-4.25-2.05-2.43-2.29-4.18-5.52-6.92-7.23-3.4-2.12-6.32-4.04-5.99-8.88-4.17 2.22-5.34-.46-6.31-3.2-3.23 1.34-6.96-.52-6.73-3.15.43-4.98.03-5.27-4.69-3.37-.6-.64-1.18-1.32-1.84-1.92-.74-.68-1.63-1.21-2.31-1.94-.96-1.02-2.15-2.03-2.62-3.28-1.38-3.66-2.75-4.45-6.6-3.24-.62.19-1.26.33-1.83.48-.62-.94-.98-2.1-1.73-2.49-4.62-2.38-3.1-6.13-2.49-9.79.18-1.06-.28-2.2-.31-3.31-.06-2.39-3.55-4.43-1.53-6.69 2.7-3.03.87-6.4 1.7-9.49.03-.11.08-.21.14-.3 1.41-2.12.35-3.68-1.02-5.34-.71-.86-1.39-2.13-1.32-3.16.2-2.71.22-5.45 1.97-7.92.99-1.4.56-4.23 1.71-4.99 1.2-.8 3.56 0 5.37.32 1.55.28 3.58.41 4.43 1.42 1.7 2.01 3.1 2 4.98.19zm-109.18 95.2c.38 4.75 2.56 7.25 6.12 8.44 1.87.62 3.97.57 5.88 1.11 1.24.35 2.33 1.22 4.23 2.26.79-.2 2.48-.62 3.79-.95 2.68-8.22-6.01-5.9-8.14-9.61-.38-.66-1.58-1.15-2.42-1.19-3.03-.14-6.08-.06-9.46-.06zm-11.54-5.13c-1.34.51-3.28.98-4.88 1.99-.86.54-1.15 2.01-1.7 3.05 1.18.55 2.49 1.74 3.51 1.53 3.2-.66 6.15.28 7.75 3.66 2.29-2.02 4.43-3.9 7.26-6.4-4.59-1.47-8.16-2.61-11.94-3.83zm19.55-126.36c-2.39-1.68-4.38-3.91-6.76-4.45-1.48-.34-3.72 1.68-5.21 3.07-.44.41.11 2.74.88 3.43 3.36 2.99 7.07 2.46 11.09-2.05zm26.34 177.81c.3 1.72.33 3.48.66 3.54 4.74.8 4.27 6.19 7.54 8.49 1.47 1.04 2.27 2.27 3.49 1.9.81-2.05 1.43-3.62 2.13-5.39-1.53-1.63-3.2-3.41-4.86-5.16-2.78 1.13-2.78 1.13-8.96-3.38zm-21.75-23.33c1.54-.85 2.95-1.51 4.23-2.37 2.09-1.4.66-2.92-.06-4.31-.82-1.57-1.93-1.46-3.26-.46-1.74 1.3-3.58 2.46-5.9 4.03 2.47 2.71 4.62 5.07 6.76 7.42.22-.16.44-.32.67-.48-.79-1.24-1.58-2.47-2.44-3.83zm-21.73-86.11c3.18 1.41 3.74 5.73 7.88 4.76 2.64-.62 4.74-2 6.16-5.3-3.64.19-6.58.34-9.62.49 0-.71 0-1.67 0-3.37-1.67 1.3-2.75 2.14-4.42 3.42zm20.61 5.82c.38-1.31.66-2.24 1.07-3.64-3.25.81-5.83 1.46-7.88 1.97.74 1.94 1.18 3.09 1.74 4.53 2-.53 4.38 2.38 6.4-.63.58-.86 1.07-1.79 1.89-3.17-1.34.39-2.13.62-3.22.94zm14.28 98.64c-.46.01-.92.02-1.38.02-1.65 2.08-3.3 4.16-5.39 6.79.74.86 1.8 2.09 2.85 3.32 1.54-1.83 3.44-3.48 4.46-5.55.58-1.15-.31-3.03-.54-4.58zm77.31 28.66c1.78-.98 3.67-2.71 3.33-5.56-.1-.86-2.19-2.35-2.84-2.12-2.41.89-4.4 2.52-4.14 5.29 1.12.74 1.98 1.31 3.65 2.39zm-44.13-17.54c.52 1.02 1.03 1.89 1.43 2.81 1.1 2.56 3 2.8 5.2 1.71 2.09-1.03 1.45-2.45.6-4.15-1.25-2.49-2.58-2.72-4.64-.98-.54.46-1.52.38-2.59.61zm-44.21-186.84c-.26.15-.52.29-.77.44-.1 1.87-.36 3.76-.21 5.62.07.87.89 2.33 1.45 2.37 1.17.08 2.53-.4 3.53-1.07.36-.24.22-1.88-.21-2.54-1.11-1.71-2.51-3.23-3.79-4.82zm-23.24 193.15c-.07.8-.62 2.19-.16 2.95.78 1.27 2.6 3.23 3.29 2.98 1.75-.63 3.11-2.32 5.02-3.93-2.99-.73-5.08-1.24-8.15-2zm187.24-291.41c.48-1.68 1.27-3.08 1.15-4.4-.12-1.24-1.14-2.43-1.9-3.55-.13-.19-1.32-.05-1.41.18-.89 2.15-1.65 4.35-2.47 6.59 1.53.4 3 .77 4.63 1.18zm-57.14 323c-.55 2.05-1.38 3.89-1.48 5.76-.16 3.07 2.17 2.67 4.29 2.64.63-3.33 1.07-6.39-2.81-8.4zm-79.99-19.28c.76 1.17 1.17 2.33 1.99 2.96 1.99 1.54 3.44-3.11 5.69-.66.02.02.46-.22.49-.37.12-.71.47-1.86.16-2.09-1.06-.79-2.4-1.8-3.56-1.73-1.56.11-3.04 1.16-4.77 1.89zm-35.68-22.37c.49 1.37.66 2.84 1.45 3.76.65.75 2.05.86 3.12 1.25.1-.98.45-2.02.22-2.92-.31-1.22-1.06-2.32-1.69-3.6-1.19.57-2.05.99-3.1 1.51zm121.47-160.26c-2.65 0-4.59 0-6.54 0 .2.98.12 2.57.66 2.83 2.02.96 4.06.92 5.88-2.83zm-58.01 210.15c.17-.19.34-.38.51-.58-1.32-.9-2.56-2.03-4.02-2.57-.5-.18-1.55 1.15-2.35 1.78.67.45 1.3 1.18 2.03 1.3 1.24.22 2.55.07 3.83.07zm114.99-251.27c-1.7-2.69-3.12-1.59-4.11-.14-.5.73-.61 2.7-.27 2.88 3.11 1.61 2.28-2.67 4.38-2.74zm-146.08 222.24c.31.15.63.3.94.45.82-1.55 1.64-3.09 2.9-5.48-2.31.5-3.5.75-4.75 1.02.37 1.65.64 2.83.91 4.01zm1.69 22.71c-.37.13-.73.26-1.1.39.22.95.16 2.46.72 2.74 1.15.58 2.63.51 3.97.7.12-.44.24-.88.37-1.33-1.32-.83-2.64-1.67-3.96-2.5zm21.65-8.18c-1.56-.85-2.48-1.69-2.87-1.49-1.11.58-2 1.58-2.97 2.41.63.43 1.39 1.33 1.88 1.21 1.12-.29 2.1-1.08 3.96-2.13zm44.1-33.3c-.39-.12-.77-.24-1.16-.36-.43.95-1.46 2.37-1.16 2.75.73.94 2.08 1.4 3.18 2.06.19-.27.37-.53.56-.8-.48-1.21-.95-2.43-1.42-3.65z" fill="#010105"/></svg>