<svg enable-background="new 0 0 400 400" viewBox="0 0 400 400" xmlns="http://www.w3.org/2000/svg"><path d="m374.8 390.4.4-.4c.7.5 1.3 1 1.8 1.4l-.5.5c-.5-.6-1.1-1.1-1.7-1.5zm1 7.3-.6-.3c.5-1.4 1.1-2.8 1.5-4.3.2.1.4.2.6.3-.5 1.3-1 2.8-1.5 4.3zm-.4-10.3.4-.4c.4.3 1 .8 1.7 1.4l-.5.5c-.4-.5-1-1-1.6-1.5zm2.5.3h1.7v-1h.6v1h3.5v-1h.6v1h1.8v.5h-1.8v1.4h-2v1h3.2v2h-3.2v.9h3.3v.5h-3.4c0 .3-.1.6-.1.9h4v.5h-3.7c.7.9 1.9 1.5 3.8 1.7-.1.2-.2.4-.3.6-2.1-.4-3.5-1.1-4-2.1-.4 1-1.8 1.7-4 2.2-.1-.2-.2-.4-.3-.6 2.1-.4 3.4-1 3.8-1.8h-3.4v-.5h3.6c.1-.3.1-.6.2-.9h-3.3v-.5h3.4c0-.3 0-.6 0-.9h-3.2v-2h3.3v-1h-2.1v-1.4h-1.7v-.5zm1.1 3.5v1h2.7c0-.3 0-.4 0-.4 0-.1 0-.2 0-.2 0-.1 0-.2 0-.3h-2.7zm1.2-3v.9h3.5v-.9zm4.7 3h-2.6v.6.4h2.6z" fill="#fbfcfa"/><path d="m393.6 386.7h.6v1.5h2.7v6.1h1.1v.6h-11v-.6h1.1v-6.1h2.7v-1.5h.6v1.5h2.1v-1.5zm-2.7 8.8.4.6c-1.2.6-2.5 1.3-3.8 1.9-.1-.2-.2-.4-.3-.6 1.2-.6 2.5-1.2 3.7-1.9zm-2.2-6.7v2.4h2.1v-2.4zm0 3v2.5h2.1v-2.5zm2.8-3v2.4h2.1v-2.4zm0 3v2.5h2.1v-2.5zm6 6.1c-1.4-.7-2.7-1.3-3.9-1.8l.3-.6c1.5.6 2.7 1.2 3.9 1.7zm-1.2-9.1h-2.1v2.4h2.1zm-2.1 3v2.5h2.1v-2.5z" fill="#fbfcfa"/><g fill="#010106"><path d="m51.57 129.2c12.36.88 24.4 1.81 36.44 2.52 1.26.07 3.1-.8 3.79-1.83 3.43-5.09 6.64-10.33 9.78-15.6 2.34-3.93 5-7.42 9.38-9.23 1.75-.72 2.97-.52 4.23 1.19 3.57 4.84 5.59 10.26 6.02 16.13 1.36 18.48 5.81 36.42 9.2 54.54 1.56 8.35 3.55 16.63 4.84 25.02.69 4.49.52 9.16.37 13.73-.42 12.56.54 25.02 2.04 37.47.68 5.64-.76 10.91-3.78 15.67-.54.84-1.85 1.61-2.86 1.68-11.48.79-11.49.75-15.09-10.12-3.79-11.45-8.42-14.91-20.58-15.1-7.15-.11-14.3-.02-21.63-.02-1.6 5.92-1.59 11.73.39 17.05 3.34 8.97 7.48 17.65 11.42 26.4.56 1.25 1.86 2.19 2.88 3.21 5.44 5.47 11.02 10.82 16.31 16.43 3.05 3.24 4.92 7.18 4.59 11.87-.19 2.69-1.18 4.35-4.03 5.34-8.21 2.86-15.62-.29-23.17-2.56-.74-.22-1.26-1.22-1.83-1.9-10.46-12.55-20.96-25.07-31.31-37.72-1.17-1.43-1.86-3.55-2.09-5.43-3.5-28.87-6.3-57.84-10.54-86.6-2.37-16.1-6.84-31.91-10.8-47.74-4.72-18.84-1.54-36.83 4.92-54.58.32-.87 1.09-1.67 1.83-2.28 9.06-7.3 18.11-14.62 27.27-21.79 8.2-6.42 17.69-9.9 27.91-11.45 1-.15 2.22.18 3.15.66 7.19 3.65 10.88 9.75 11.7 17.6.12 1.11-.78 2.86-1.75 3.47-9.6 6.11-19.19 12.28-29.05 17.95-6.03 3.47-12.34 6.32-16.08 12.66-4.23 7.19-4.82 14.93-3.87 23.36zm34.77 27.43c-9.7-2.28-18.71.06-27.33 4.63-.88.47-1.82.93-2.78 1.14-2.94.64-3.73 2.45-3.66 5.32.48 17.73 5.48 34.3 12.51 50.38.84 1.92 2.05 2.54 4.15 2.3 6.77-.77 13.57-1.26 20.35-2.02 7.52-.85 14.26-3.64 19.81-8.9.83-.79 1.59-1.91 1.84-3 1.67-7.29 3.29-14.6 4.66-21.95.29-1.54-.14-3.53-.94-4.91-3.33-5.82-7.25-11.31-10.31-17.26-2.29-4.46-5.18-6.48-10.2-5.79-2.62.36-5.34.06-8.1.06z"/><path d="m193.12 39.9c23.74.99 39.88 12.86 49.86 33.72 5.76 12.05 9.59 24.58 8.9 38.13-.72 14.1 2.4 27.83 4 41.7 2 17.34 4.22 34.65 6.6 51.94 3.26 23.74 10.57 46.14 25.45 65.17 5.97 7.63 14.01 13.76 21.59 19.98 9.37 7.68 19.81 13.83 30.92 18.7 19.33 8.47 28.95 23.74 31.38 44.17.65 5.51-5.26 10.63-11.02 9.21-5.83-1.44-11.56-3.29-17.32-5.04-.71-.21-1.33-.81-1.91-1.32-15.44-13.57-32.36-25.04-49.89-35.69-16.57-10.06-30.36-23.19-39.73-40.12-5.25-9.49-8.83-20.02-12.17-30.41-7.14-22.19-10.41-45.29-15.06-68.07-4.47-21.88-3.82-44.09-5.21-66.17-.37-5.92-.44-11.86-.79-17.78-.07-1.27-.59-2.59-1.18-3.75-4.69-9.18-11.31-16.88-18.55-24.1-5.05-5.04-9.66-10.4-10.61-17.81-.36-2.83-.09-5.77.14-8.64.21-2.86 1.21-5.13 4.6-3.82z"/><path d="m199.97 326.13c-5.25-.82-10.62-2.2-15.54-6.27-6.29-5.21-9.71-11.18-11.06-19.25-2.1-12.53-5.24-24.9-8.05-37.3-.42-1.84-.15-2.92 1.59-3.74 1.91-.9 3.92-1.78 5.54-3.1 3.65-2.96 6.85-2.17 10.57.06 9.42 5.67 16.21 13.59 20.93 23.37 5.07 10.48 9.02 21.37 11.31 32.83.48 2.41.2 4.21-1.72 5.93-3.81 3.39-7.13 7.54-13.57 7.47z"/><path d="m339.69 242.78c-1.12 0-2.28-.2-3.35.03-5.17 1.14-7.64-1.76-9.82-5.86-4.51-8.48-5.17-17.52-4.17-26.74 1.22-11.26 3.76-22.25 8.65-32.54.74-1.55 2.21-2.99 3.7-3.9 2.85-1.74 6.06-2.87 8.92-4.6 2.04-1.24 3.43-.72 5.07.56 5 3.89 7.25 9.35 8.29 15.26.93 5.26 1.18 10.64 1.7 15.97.5 5.14-1.71 9.63-3.74 14.08-2.66 5.83-3.96 11.57-2.81 18.14.48 2.73-1.79 6-3.03 8.93-.2.48-1.55.62-2.38.65-2.33.07-4.68.02-7.03.02z"/><path d="m324.17 84.77c-.92 8.84-1.71 16.51-2.55 24.16-.09.86-.28 1.84-.78 2.5-4.69 6.22-16.86 8.04-23.2 3.38-.95-.7-1.6-2.08-1.96-3.27-4.54-15.23-2.74-30.19 1.48-45.23 1.94-6.91 8.1-8.78 12.58-12.67.55-.48 2.34.18 3.41.65 4.55 1.98 7.39 5.74 8.29 10.34 1.37 6.98 1.95 14.11 2.73 20.14z"/><path d="m177.75 143.22c-6.69-.96-12.77-1.78-18.82-2.74-.73-.12-1.56-.85-1.98-1.52-6.27-10-10.33-20.78-10.69-32.69-.17-5.51 1.76-10.5 4.86-15.07 1.06-1.57 2.12-1.86 3.91-1.32 5.01 1.52 9.12 4.35 12.14 8.51 7.77 10.67 12.08 22.59 11.94 35.89-.03 2.84-.84 5.67-1.36 8.94z"/></g></svg>