<svg enable-background="new 0 0 400 400" viewBox="0 0 400 400" xmlns="http://www.w3.org/2000/svg"><g fill="#fafafb"><path d="m12.4 4.8-6.1 9h6v1.2h-8v-.5l6.1-8.9h-5.7v-1.2h7.6v.4z"/><path d="m14 15v-10.6h3c1.6 0 2.9.5 4 1.4s1.6 2.2 1.6 3.8-.5 3-1.6 3.9-2.4 1.5-4 1.5zm1.4-9.4v8.2h1.6c1.3 0 2.4-.4 3.1-1.1s1.1-1.8 1.1-3.1-.4-2.3-1.2-3-1.8-1-3.1-1z"/><path d="m26.1 4.4v10.6h-1.4v-10.6z"/><path d="m36.1 14.6c-.8.4-1.8.6-2.9.6-1.5 0-2.7-.5-3.6-1.4s-1.4-2.2-1.4-3.8c0-1.7.5-3.1 1.5-4.1s2.3-1.6 3.9-1.6c1 0 1.8.1 2.5.4v1.4c-.8-.4-1.6-.6-2.5-.6-1.2 0-2.1.4-2.9 1.2s-1.1 1.8-1.1 3.2c0 1.3.3 2.3 1 3s1.6 1.1 2.7 1.1c1 0 2-.2 2.7-.7v1.3z"/><path d="m37.6 14.3c0-.2.1-.5.3-.6s.4-.3.6-.3c.3 0 .5.1.6.3s.3.4.3.6-.1.4-.3.6-.4.3-.6.3c-.3 0-.5-.1-.6-.3s-.3-.4-.3-.6z"/><path d="m50.2 15h-1.6l-5.3-8.2c-.2-.2-.3-.5-.4-.7 0 .2.1.7.1 1.5v7.4h-1.4v-10.6h1.7l5.2 8.1c.2.4.4.6.4.7 0-.3-.1-.8-.1-1.5v-7.3h1.4z"/><path d="m58.6 15h-5.7v-10.6h5.5v1.2h-4.1v3.4h3.8v1.2h-3.8v3.6h4.3z"/><path d="m67.1 5.6h-3.1v9.4h-1.4v-9.4h-3v-1.2h7.5z"/></g><path d="m267.04 374.74c-46.51 0-92.57 0-139.3 0 0-9.67-.14-19.16.14-28.64.04-1.48 2.02-2.9 3.35-4.69-.15-.36-.25-1.53-.85-1.89-2.96-1.82-2.4-4.68-2.42-7.37-.14-17.24-.27-34.48-.32-51.72 0-.96.46-2.15 1.12-2.78.3-.28 1.65.54 2.77.95 1.9-1.84 1.72-3.21-.47-5.47-1.92-1.99-3.65-5.16-3.67-7.83-.3-36.16-.26-72.33-.36-108.5-.02-8.1-.94-16.26-.17-24.27.81-8.43-.33-16.73-.1-25.1.49-17.48.15-34.98.15-52.47 0-9.81 0-19.63 0-29.37h139.96c0 8.36.04 17.05-.01 25.74-.03 4.58-.23 9.15-.3 13.73-.06 4.58-.07 9.15-.06 13.73.01 3.54.13 7.09.12 10.63-.02 7.56-.19 15.13-.12 22.69.14 15.74.39 31.48.59 47.21.05 3.81.05 7.61.14 11.42.05 2.07-.2 3.51-2.94 3.15-1.06-.14-2.25.72-4.46 1.51 2.71 2.02 4.74 3.54 7.19 5.37.02 63.94.02 128.75.02 193.97zm-56.35-47.26c-.2.22-.4.45-.6.67.8 1.33 1.6 2.65 2.38 3.99.3.51.57 1.03.79 1.58.52 1.32.73 2.87 1.55 3.95 2.69 3.5 1 7.54 1.51 11.29.09.68-1.97 1.66-3.04 2.5-.3-.44-.61-.88-.52-.76-2.72.8-5.2 1.61-7.73 2.27-2.11.55-5.48 4.18-5.27 5.79.17 1.31.24 2.64.35 3.95 1.49-1.18 3.22-2.55 4.94-3.91.01.37.01.74.02 1.11 1.6.43 3.81 1.71 4.66 1.1 1.51-1.09 4.48-2.32 2.01-5.93 3.04.76 5.52 2.08 7.77 1.77 3.28-.45 6.41-2.08 9.6-3.21 1.5-.11 3.05-.33 4.28-1.07 1.47-.88 2.58-2.33 4-3.32 1.87-1.31 3.89-2.42 4.97-3.08 2.24.58 4.06 1.65 5.19 1.16 1.08-.47 1.44-2.58 2.12-3.97-.38-.42-.75-.83-1.13-1.25-1.7.64-3.4 1.3-5.11 1.92-.43.16-.9.29-1.35.28-2.11-.07-4.23-.13-6.33-.32-2.91-.26-6.12.67-8.23-2.6-.94-1.46-2.5-2.57-3.92-3.64-.99-.74-2.25-1.13-3.56-1.76.19-2.05 1.78-4.73-.96-6.95-.36-.29-.62-1-.57-1.48.36-3.31-3.73-5.56-2.15-9.14.04-.1-.23-.36-.38-.52-2.04-2.15-1.63-4.15.18-6.25 3.24-3.73 3.19-4.31-.14-8.03-.52-.58-1.27-1.07-1.54-1.76-.51-1.28-.67-2.69-1.12-3.99-1.05-2.99 2.39-6.25-.56-9.13-.16-.15-.04-.64.02-.95.71-3.35 1.51-6.68 2.12-10.04.14-.76-.29-1.66-.56-2.46-1-2.93-2.08-5.83-3.08-8.75-.36-1.05-.97-2.21-.81-3.22.53-3.45.71-6.68-.77-10.1-1.25-2.87-1.45-6.2-2.25-9.91.82-1.67 2.24-3.9 2.94-6.34.27-.94-.97-3.29-1.75-3.4-3.72-.53-7.53-.72-11.29-.61-3.13.09-6.26.98-8.52-2.22-.39-.55-1.37-.99-2.07-.97-4.88.18-6.92-3.64-9.23-6.75-1.29-1.73-2.28-4.16-2.25-6.26.03-2.36-.4-5.19 2.19-7.14.58-.44.33-3.35-.46-3.97-3.66-2.89-1.49-4.99.54-7.26.74-.82 1.47-1.65 2.12-2.37 1.66.39 3.12.73 3.69.87 1.65 3.15 2.7 6.05 4.5 8.38 2.52 3.27 5.34 2.9 7.6-.76.48-.78-.04-2.18-.09-3.29-.4 0-.79 0-1.19-.01 1.63-1.83 2.4-3.62.13-5.42-.28-.22-.35-.79-.4-1.21-.53-4.05-1.02-8.1-1.57-12.15-.23-1.72-.39-3.19 2.18-2.43 2.11.63 2.49-.53 2.87-2.44.82-4.11-.87-6.86-3.95-8.69 1.01-1.99 2.56-3.66 2.48-5.25-.1-1.93-1.37-3.94-2.52-5.65-1.52-2.26-2.8-2.08-4.15.36-1.53 2.76-2.69 5.77-4.51 8.31-3.65 5.1-3.6 4.78-8.14.58-1.11-1.03-4.16-.65-5.94.05-.75.29-1.12 3.34-.56 4.68.58 1.41 2.48 2.27 3.65 3.24 1.98-.46 4.28-1 6.08-1.42.91 1.94 1.69 3.26 2.16 4.68.45 1.38 1.24 3.73.73 4.11-1.19.89-3.63 1.65-4.56 1.01-1.88-1.29-3.1-3.55-4.61-5.45-5.08 3.8-6.17 6.73-3.98 10.35-.76 2.15-.97 4.27-2.1 5.6-1.85 2.16-1.47 3.93-.45 6.17.59 1.3.85 2.9.76 4.34-.3 4.96-2.43 9.73-1.54 14.83.12.69-.22 1.71.15 2.06 1.94 1.87 1.95 4.03 1.7 6.5-.43 4.32 1.4 5.9 5.7 5.1.86 5.12 6.56 4.57 9.4 7.87 2.06 2.39 5.22 4.89 4.65 8.12-.19 1.07-1.82 2.24-1.58 2.97 1.17 3.6-1.63 4.68-3.53 6.44-.91.84-2.06 1.9-2.2 2.99-.43 3.23-.31 6.54-3.13 8.93-.3.26-.18 1.02-.26 1.53 2.65.6 5.35 3.39 7.53-.28 1.43-2.41 4.55-4.11 3.53-7.55 5.24-1.98 1.95-6.13 2.25-9.94 2.28.43 4.39.55 6.3 1.24 3.18 1.15 5.75 5.02 4.74 8.19-1.27 4.01-.03 7.46 1.06 11.02.36 1.19 1.46 2.15 2.34 3.4-.21.8-1.22 2.45-.76 3.23 2.17 3.71 2.32 7.79 2.85 11.82.2 1.54-.05 3.39.73 4.53.96 1.42.85 2.3.43 3.83-1.04 3.79-3.43 6.45-6.31 8.8-3.03 2.47-3.12 4.23-.26 6.69 1.23 1.06 2.66 2.01 3.53 3.32 1.41 2.13 2.36 4.55 3.66 6.75.25.39 1.26.35 1.91.51zm-36.91-278.78c.69 3.24 1.96 5.1 5.27 4.89.79-.05 1.79.61 2.42 1.22 1.61 1.58 3.07 3.32 4.54 4.93-.52 1-1.44 2.37-1.95 3.87-.35 1.01.04 2.26-.23 3.31-.22.87-.94 1.62-1.43 2.43-.62-.65-1.29-1.25-1.86-1.95-.69-.85-1.1-2.06-1.95-2.6-1.26-.8-1.64-1.72-1.97-3.14-1.13-4.82-6.84-7.58-10.83-5.04.68.62 1.41 1.09 1.84 1.74.46.69 1.06 1.65.89 2.33-1.14 4.74-.17 6.47 4.24 7.88 1.35 1.59 3.01 2.79 4.53 4.14.74.65 1.82 1.65 1.73 2.36-.32 2.71 1.23 4.07 3.07 5.46 1.57 1.19 3.01 2.54 5.15 4.36-1.35.95-2.34 1.64-3.35 2.36.35.98.67 1.88.98 2.77-1.98 1.27-3.75 2.41-5.87 3.77-.59-.73-1.55-3.02-2.7-3.12-3.11-.26-6.31.28-9.43.82-.72.12-1.22 1.52-1.79 2.29-1.57-.2-3.4-.44-5.28-.69-.2 1.35.01 2.67-.53 3.17-2.22 2.03-2.88 4.68-4.1 7.21-1.85 3.83.1 7.57-1.55 11.08-.35.75.9 2.26 1.44 3.5-.62 2-1.88 4.4-2 6.84-.15 3.19-.88 6.5 1.95 9.55 1.18 1.27.77 5.04-.21 7.02-1.37 2.76-2.03 6.27-.15 8.71.84 1.09 1.69 9.62 1.05 10.67-.11.18-.42.26-.48.43-.37 1.08-1.3 2.48-.93 3.22 1.67 3.38 2.42 6.72 1.68 10.5-.93 4.74-.86 9.78-2.48 14.24-1.42 3.92.87 5.88 1.86 8.84 1.17 3.51.37 7.7.31 11.59 0 .34-.95.6-1.15 1.03-.74 1.63-3.45 3.33.17 4.79-.89.98-1.64 1.8-2.35 2.58 2.02 4.03 2.04 4.04 6.78 2.02-1.8-.73-3.11-1.27-5.01-2.04 1.58-1.26 2.74-2.45 4.13-3.24 2.44-1.38 2.72-2.66.12-4.18 1.58-2.29 4.73-3.8 3.3-7.33-.09-.22.16-.65.35-.91 4.15-5.76-.3-11.33-.58-16.96-.1-2.01-1.18-7.92.49-9.23 2.72-2.14 1.61-3.85 0-5.82 1.37-2.12 2.85-4.23.33-6.5-.2-.18-.35-.73-.23-.9 1.86-2.6-.11-4.85-.51-7.28-.2-1.24.46-2.61.66-3.93.24-1.53 1.15-3.72.47-4.49-3.59-4.08-.77-7.63 0-10.54-.84-5.71-1.6-10.7-2.27-15.7-.17-1.25-.41-2.74.09-3.77 2.51-5.18 4.61-10.62 8.21-13.92-.23-2.38-.73-5.09-.46-5.17 2.17-.63 4.48-.77 7.02-1.09.02-.06.06-.93.38-1.04 1.05-.38 2.2-.65 3.29-.59.38.02.88 1.1 1 1.75.16.9.01 1.86-.01 2.79 1.11-.3 2.23-.59 3.34-.92 1.77-.52 4.17-2.05 5.17-1.41 2.99 1.94 4.09.26 5.33-1.9 2.29 1.94 4.46 3.78 6.7 5.68.68-1.41 1.42-2.95 2.21-4.59 1.36 1.11 2.38 1.94 2.91 2.38 2.63-.77 4.92-1.12 6.88-2.11 2.04-1.04 7.06-1.5 9.03-.49.9.46 2.12.49 3.14.37.32-.04.86-1.67.67-1.84-.89-.76-1.99-1.73-3.05-1.78-3.72-.18-7.66.54-9.78-3.75-.07-.15-.39-.18-.75-.33-2.84 1.72-5.67 2.39-8.04-1.03-.27-.39-1.25-.61-1.77-.47-3.66.99-6.95.59-9.99-2.5 2.75-2.21 1.63-5.91 3.22-8.93 1.24-2.37 2.24-4.62 4.52-6.04 1.72-1.07 2.4-2.17 1.82-4.38-.6-2.29-1.14-5.02-.43-7.14 1.31-3.93 3.54-7.56 5.48-11.52-.45-.6-1.03-1.39-1.33-1.8-1.67-.1-2.92-.33-4.13-.21-1.38.13-3.16.12-4.04.95-3.94 3.72-3.86 8.16-.13 12.17.06.07.05.21-.02-.12-1.39 2.83-2.62 5.34-3.93 8-.61-.58-1.78-1.55-2.79-2.66-1.01-1.1-1.87-2.34-2.53-3.17.77-1.64 2.29-3.41 1.88-4.29-1.89-4.05-1.3-8.87-4.42-12.6-1.87-2.24-2.79-5.28-4.32-8.35-1.29 1.22-2.13 2.01-2.97 2.8.32.1.65.19.97.29-.18 3.12-.36 6.25-.53 9.12-1.58.46-2.98.87-4.42 1.28zm37.31 114.68c-1.5.53-2.76.65-3.53 1.32-.89.79-2.16 2.48-1.86 3.06 2.3 4.49-.42 7.58-2.43 11.04-.6 1.03-.64 3.63-.19 3.82 2.95 1.3 3.03 4.92 3.08 6.39.16 4.73.82 9.12 2.58 13.51.98 2.45 4.06 3.91 6.33 2.66 1.07-.59 2.44-.7 3.69-.86 1.79-.22 3.77.13 5.36-.53 1.72-.71 2.28-6.58.51-7.98-1.18-.93-3.83-1-5.31-.33-1.95.88-2.85.43-3.86-1.02-.57-.82-1.03-1.79-1.77-2.41-2.61-2.18-2.13-4.42-.26-6.67 2.12-2.53 4.06-5.54 8.03-3.86-.32 2.85-.85 6.02-.92 9.2-.01.67 1.81 2.08 2.48 1.92 1.54-.38 2.89-1.52 4.91-2.71-2.43-1.05-3.73-1.62-6.08-2.63 2.36-1.27 3.87-2.08 5.66-3.04-.17-1.77-.39-4.08-.6-6.39-.14.07-.65.32-1.15.58-.33-.11-.66-.21-1-.32.88-3.73 1.99-7.43 2.55-11.2.27-1.84-.29-3.88-.8-5.74-.37-1.36-1.25-2.57-2.08-4.22-1.78-.21-4.44 2.37-5.23 5.78-.77 3.34-.99 6.96-5.02 9.29-1.03-2.87-2.04-5.71-3.09-8.66zm40.57-49.68c-.79.65-1.31 1.28-1.97 1.57-7.05 3.08-10.26 9.03-8.55 16.35.52 2.24 2.44 4.55 2.07 6.53-.64 3.44 1.16 4.76 3.3 6.51 1.36-1.42 2.58-2.68 3.8-3.95.32.24.64.48.96.72-.46 1.03-.64 2.41-1.42 3.03-1.81 1.45-1.59 3.15-.67 4.62 1.21 1.92 3.08 2.14 4.64.29 1.44-1.69 3.33-3.43 3.77-5.42.47-2.14-.42-4.63-.95-6.91-.09-.37-1.44-.72-2.14-.62-1.17.17-2.28.71-3.42 1.1-.1-.29-.19-.57-.29-.86 1.8-1.95 3.61-3.9 5.27-5.7-1.91-3.7-1.25-7.33.15-10.51.83-1.89.71-2.88-.61-3.97-1.22-1-2.56-1.81-3.94-2.78zm-65.44-9.12c-1.18 1.66-2.49 3.23-3.47 4.99-.45.8-.25 1.95-.34 2.95 1.07.08 2.84.59 3.09.18 1.99-3.32 5.1-2.21 7.75-2.31.36 3.25 2.71 2.29 4.48 2.06 2.43-.32 4.62-.84 6.8 1.22 2.03 1.92 7.05.86 8.32-.93-.85-2.32-1.55-4.35-2.34-6.34-.19-.47-.65-1.11-1.07-1.18-3.35-.54-6.59-2.42-10.16-.43-1.01.57-2.61.15-3.93.1-2.06-.07-4.11-.21-6.17-.3-.94-.04-1.89-.01-2.96-.01zm30.13 16.47c-1.25 0-2.58-.05-3.92.01-2.99.12-6.26-1.19-8.77 1.72-.14.17-1.58-.56-2.22-1.1-.81-.68-1.34-2.18-2.15-2.31-3.28-.5-6.62-.83-9.94-.76-1.24.02-2.47 1.28-4 2.14-.51-.84-1.18-1.92-2.33-3.8-.46 2.4-.78 4.07-1.14 5.97 3.02.47 5.91 1.26 8.8 1.27 2.73 0 5.48-.47 7.67 1.51 2.14 1.93 4.01 1.1 6.01-.06.55-.32 1.27-.8 1.77-.66 1.95.54 3.85 1.3 6.41 2.21 5.56-2.27 5.56-2.27 3.81-6.14zm-73.9-24.33c1.61-.94 4.02-1.63 4.11-2.54.24-2.5-.43-5.11-.92-7.64-.07-.35-1.12-.71-1.72-.72-3.3-.05-4.3 3.62-7.07 4.55-.19.06-.25 1.79.16 2.16 1.62 1.46 3.45 2.69 5.44 4.19zm32.47 60.96c.65-1.43 2.26-3.35 2.15-5.16-.12-2-1.54-4.14-2.91-5.79-.98-1.19-2.87-1.6-3.91.39-1.11 2.13-2.41 4.43-.33 6.64 1.21 1.29 2.8 2.22 5 3.92zm68.59-83.29c.26-.2.52-.4.78-.59-1-1.28-2.01-2.56-3.01-3.85-1.18 1.73-3.2 3.43-3.28 5.22-.07 1.57 2.23 4.7 3.16 4.58 2.71-.34 2.66-3.04 2.35-5.36zm9.38 15.31c-.42-.14-.84-.29-1.26-.43-1.79 1.76-3.69 3.44-5.33 5.34-.61.71-.63 1.93-.91 2.92 1.14.23 2.76 1.04 3.32.57 1.62-1.36 3.02-3.12 4.1-4.95.5-.88.08-2.29.08-3.45zm-97.15 154.11c-1 2.64-4.99 2.92-3.52 6.71.98 2.53 2.54 2.54 3.92 2.22.84-2.6 1.53-4.75 2.28-7.08-.66-.45-1.47-1.01-2.68-1.85zm-10.28-55.22c-2.14 1.57-3.13 6-1.96 7.1.62.59 1.87 1.17 2.49.92.7-.28 1.54-1.61 1.41-2.31-.37-1.88-1.21-3.67-1.94-5.71zm63.1-31.34c2.22-2.9 2.3-5.99.59-6.32-.99-.19-2.28 1.15-3.43 1.8.89 1.41 1.77 2.82 2.84 4.52zm44.58 21.55c-.17-.36-.33-.73-.5-1.09-1.92-.07-4.33-2.49-5.51.85-.25.71.98 1.95 1.53 2.95 1.5-.9 2.99-1.8 4.48-2.71zm-97.74 48.72c-.2.7-.41 1.4-.61 2.1 1.53.63 3.06 1.25 4.59 1.88.27-.95.54-1.9.81-2.86-1.59-.37-3.19-.75-4.79-1.12zm20.19-123.01c-.36.3-.71.61-1.07.91.46 1.77.92 3.54 1.37 5.32l1.35.09c.45-1.16 1.5-2.51 1.2-3.43-.37-1.15-1.85-1.95-2.85-2.89zm78.93-61.42c3.99-2.93 3.98-3.35 0-6.13zm-51.02 166.5c1.63-1.55 2.8-2.67 3.98-3.79-.13-.25-.27-.5-.4-.75-1.34.09-2.68.19-4.16.29.19 1.39.34 2.45.58 4.25zm45.78 31.76c.73-.56 1.65-.93 1.65-1.32.01-1.24-.25-2.49-.57-3.7-.04-.17-.94-.12-1.44-.18-.02 1.01-.1 2.02-.05 3.03.03.62.22 1.23.41 2.17z" fill="#010105"/><path d="m249.94 134.42c-1.9-1.83-3.8-3.67-5.43-5.24 1.95-.95 3.48-1.7 5.58-2.72.22 2.25.45 4.68.68 7.11-.27.29-.55.57-.83.85z" fill="#010105"/></svg>