<svg enable-background="new 0 0 400 400" viewBox="0 0 400 400" xmlns="http://www.w3.org/2000/svg"><path d="m167.47 373.92c-3.7 1.91-5.94.85-7.81-2.27-2.66-4.47-3.76-9.3-3.94-14.39-.26-7.4-2.02-14.28-5.95-20.68-3.86-6.28-7.29-12.83-10.91-19.26-2.23-3.96-4.27-5.05-8.76-4.07-2.48.54-4.87 1.61-7.24 2.57-5.62 2.28-9.14 1.24-12.82-4.11 7.41-4.13 14.8-8.24 22.45-12.5-5.07-9.73-8.81-20.09-18.69-26.14-.95-.58-1.91-1.17-2.91-1.66-5.78-2.82-6.78-2.6-10.93 2.27-1.45 1.7-2.81 3.49-4.34 5.12-2.28 2.43-3.56 5.18-4.27 8.5-1.46 6.88-4.93 12.92-9.18 18.45-3.22 4.2-7.83 5.67-13.9 5.97.51-2.02.54-3.89 1.39-5.27 7.9-12.87 15.93-25.65 23.92-38.47.59-.94 1.13-1.9 1.8-3.02-5.03-4.9-11.14-7.6-17.75-8.94-9.08-1.84-18.26-3.23-27.4-4.78-4.26-.72-7.47-2.69-9.02-7.58 5.85.63 11.35 1.2 16.84 1.82 7.34.83 14.73 1.35 21.98 2.64 6.47 1.15 12.82 3.04 19.15 4.84 1.99.56 2.99.26 4.04-1.53 4.52-7.72 9.21-15.34 13.79-23.02 2.91-4.89 1.65-9.12-3.74-10.47-5.03-1.26-10.31-1.59-15.49-2.18-4.65-.53-9.31-.95-13.98-1.28-4.33-.31-8.67-.57-13.01-.63-3.42-.04-5.96-1.28-8.21-5.07 8.52-.39 16.39-.83 24.26-1.09 6.36-.21 11.83-2.2 15.93-7.26.48-.58.83-1.27 1.4-2.16-4.59-4.08-8.86-8.4-13.66-12.01-7.72-5.81-10.88-13.85-12.73-22.93 2.6-.71 4.52-.38 6.38 1.69 3.59 3.99 7.22 8.02 11.34 11.43 3.11 2.58 6.96 4.32 10.59 6.22.64.34 2.4-.1 2.71-.69 4.37-8.07 7.17-16.59 6.84-25.92-.08-2.37-1.23-3.86-3.41-4.82-11.01-4.83-19.01-12.89-24.23-23.59-4.51-9.25-5.25-19.34-5.61-29.43-.07-2.02.19-4.05.3-6.08.48-.07.96-.14 1.45-.21 2.08 4.97 4.29 9.9 6.2 14.93 2.02 5.33 3.6 10.82 5.63 16.14 3.37 8.79 12.3 14.8 21.74 14.64 1.01-.02 2.62-1.12 2.89-2.04 1.47-4.88 3.03-9.79 3.75-14.81.87-6.12.46-12.31-2.03-18.12-.58-1.36-1.61-2.72-2.79-3.61-6.84-5.17-12.15-11.6-15.84-19.27-6.05-12.59-12.25-25.12-17.6-38-2.47-5.95-6.54-7.67-12.07-8.09-1.67-.13-3.36-.01-5.03-.14-3.93-.31-7.02-2-8.87-5.65 1.08-2.15 2.71-2.64 5-2.36 21.09 2.64 42.19 5.16 63.28 7.79 16.53 2.06 33.06 4.2 49.58 6.4 3.93.52 7.63 1.74 9.74 5.83-4.47 1.57-8.69 3.79-13.14 4.4-4.08.56-8.41-.49-12.59-1.08-9.12-1.27-11.54.39-13.86 9.35-3.79 14.59-8.37 29.02-11.35 43.77-2.18 10.78-2.31 21.97-3.4 32.97-.18 1.81.6 2.97 2.28 2.99 2.97.04 6.13.35 8.87-.53 5.52-1.77 10.91-4.03 16.14-6.53 3.31-1.58 5.19-.94 6.55 2.56-5.77 5.22-12.43 9.13-19.91 11.67-6.14 2.08-12.26 4.07-17.42 8.33-4.52 3.74-7.57 7.94-7.84 14.06-.19 4.23-.91 8.46-1.75 12.62-.57 2.81.75 3.45 2.97 3.41 4.77-.09 8.82-2.06 12.53-4.94 6.62-5.14 13.21-10.33 20-15.25 2.18-1.59 4.92-2.4 7.39-3.56 1.57 2.52.98 4.16-.35 6.18-5.6 8.51-12.86 14.98-21.97 19.57-7.47 3.77-14.83 7.78-22.06 11.99-2.07 1.21-4.04 3.2-5.16 5.3-1.46 2.76 1.02 5.01 4.2 4.73 2.42-.22 5.12-.18 7.34.67 7.52 2.86 14.99 5.89 22.25 9.34 3.12 1.48 6.37 3.63 8.38 6.35 8.25 11.12 12.24 23.99 13.96 37.59.38 3.03-1.88 4.88-4.19 3.55-.92-.53-1.46-2.05-1.79-3.23-1.87-6.78-3.15-13.77-5.59-20.33-1.41-3.81-4.33-7.2-7.08-10.34-2.09-2.38-4.91-2.81-8.47-2.21-8.34 1.41-14.75 5.22-19.46 12.16-2.63 3.87-5.75 7.46-7.98 11.54-2.81 5.15-1.92 7.38 2.47 11 4.89 4.04 9.64 8.26 14.37 12.5.68.61 1.03 1.7 1.32 2.63 1.22 3.95 2.21 7.97 3.55 11.88 1.76 5.13 4.55 8.77 10.78 9.41 9.22.95 18.35 2.77 27.5 4.31 1.51.25 3.05.75 4.39 1.48 13.29 7.27 21.19 18.32 22.81 33.48.74 6.88 1.01 13.82 1.33 20.73.14 2.93-2.75 5.99-5.93 6.28-2.81.26-4.36-1.36-5.41-3.98-3.39-8.49-5.14-17.37-3.66-26.3 2.14-12.88-4.29-19.1-14.75-23.17-6.98-2.72-14.13-1.54-21.23-1.71-.63-.01-1.75 1.17-1.86 1.91-.38 2.62-.81 5.33-.51 7.92.49 4.2 1.49 8.35 2.4 12.5.15.71.74 1.56 1.37 1.9 4.14 2.24 4.3 2.86 1.29 6.65.07.18.08.48.21.55 4.87 2.63 6.58 7.02 7.49 12.22 1.1 6.39 2.83 12.65 4.32 19.06zm-68.7-334.31c.03 9.95 1.63 18.26 6.86 25.55 4.04 5.63 8.12 11.24 12.21 16.85.52.71 1.06 1.59 1.8 1.92 3.74 1.67 12.41-.85 14.08-4.75 3.58-8.34 6.4-17.01 5.65-26.28-.23-2.84-1.22-6.19-4.52-6.84-11.81-2.31-23.69-4.27-36.08-6.45z" fill="#010100"/><path d="m262.79 75.62c2.69 5.46 5.41 10.9 8.02 16.39.25.52-.06 1.51-.42 2.07-2.59 3.94-1.45 8.17 2.73 10.29 8.15 4.14 17.13 4.84 25.9 6.49 15.74 2.97 26.45 11.36 29.54 27.83.93 4.94 1.98 9.86 3.21 14.74.75 2.98 1.42 5.72-2.64 7.78 5.35-.07 4.17 3.79 5.05 6.53 1.69 5.28 3.48 10.55 5.7 15.62 1.94 4.43 4.53 8.57-1.04 12.22 4.16 5.39 8.09 10.27 11.73 15.36.9 1.26 1.51 3.31 1.2 4.78-2.59 12.25-2.6 24.63-2.79 37.05-.06 3.77-2.4 7.51-3.71 11.25-.48 1.38-.29 2.53-.03 4.03.52 3.05-.5 6.52-1.51 9.6-.57 1.73-.64 2.95-.37 4.79.47 3.25.3 7.04-1.04 9.95-.86 1.87-4.29 2.56-6.67 3.84-2.84-4.84-2.94-9.66-2.68-14.43.36-6.47 1.41-12.91 1.64-19.39.3-8.25.07-16.52.07-25.54-5.67 0-11.57-.22-17.44.06-7.34.35-14.66 1.04-21.98 1.72-6.08.57-11.18-1.34-16.08-5.96 6.39-.77 12.27-1.5 18.16-2.2 11.33-1.34 22.67-2.64 33.99-4.03 1.04-.13 2.36-.54 2.94-1.3 1.32-1.72 2.84-3.62 3.23-5.65 1.62-8.31.43-9.93-7.31-13.25-8.18-3.51-16.93-3.95-25.52-5.32-7.83-1.25-15.66-2.57-23.44-4.13-4.95-.99-8.37-3.94-9.77-9.39 5.48.79 10.63 1.84 15.82 2.23 12.71.96 25.45 1.64 38.18 2.39 2.81.17 4.28-1.44 3.13-3.93-1.12-2.43-2.68-5.03-4.77-6.57-10.87-7.98-23.45-10.54-36.68-10.9-6.38-.18-12.5-1.39-16.93-6.68-.34-.41-.62-.86-1.5-2.12 5.37-.36 10.11-1.2 14.78-.88 11.37.77 22.72 1.97 34.05 3.23 2.65.29 3.72-.58 3.36-2.95-.56-3.73-1.23-7.48-2.27-11.11-1.08-3.75-2.9-7.29-3.95-11.04-1.92-6.85-5.64-12.65-11.41-16.43-3.63-2.39-8.4-3.59-12.8-4.14-6.74-.84-13.61-.67-20.42-.88-3-.09-5.4.97-6.8 3.84-1.36 2.81-2.7 5.64-4.22 8.36-1.67 3.01-3.05 6.42-5.45 8.72-2.72 2.6-3.7 5.46-3.86 8.84-.13 2.69-1.26 4.55-3.43 6.11-3.07 2.21-5.94 4.69-9.64 7.65 1.18-4.59 2.12-8.31 3.11-12.02 2.23-8.42 4.27-16.91 6.82-25.23 1.49-4.86 4.26-9.34 5.73-14.21 2.96-9.84 5.43-19.83 8.11-29.75.37-1.36.79-2.7 1.19-4.05.38-.09.78-.18 1.18-.28z" fill="#010100"/><g fill="#fcfbfa"><path d="m377.9 391.2c-.2.3-.4.5-.6.8-.7-.6-1.4-1-2.2-1.5.2-.3.4-.5.5-.8.6.4 1.4.8 2.3 1.5zm-1.8 6.1c-.2-.2-.5-.4-.9-.6.4-.6.8-1.2 1.2-1.9s.7-1.3.9-1.9c.3.3.5.5.8.7-.7 1.3-1.4 2.6-2 3.7zm2.2-9c-.3.3-.5.5-.6.8-.6-.6-1.3-1.1-2-1.5.3-.3.5-.5.6-.7.6.5 1.3.9 2 1.4zm.3.2v-.9h2 4.5c-.3 1.3-.6 2.5-1 3.6s-.9 2.1-1.4 3c.4.5 1 1 1.6 1.4s1.2.8 1.9 1.1c-.3.2-.5.4-.8.8-.4-.3-1-.7-1.6-1.2s-1.2-1.1-1.6-1.6c-.5.6-1.1 1.1-1.7 1.6s-1.4.9-2.1 1.4c-.1-.3-.3-.5-.7-.8.6-.2 1.2-.5 1.9-1s1.4-1.1 2-1.8c-.5-.8-.9-1.6-1.2-2.5s-.6-2-.8-3.2c-.4.1-.7.1-1 .1zm2.5 2.7c.3 1 .7 1.7 1 2.2.3-.5.6-1.1 1-2s.6-1.9.9-3h-3.2-.4c.1.9.3 1.8.7 2.8z"/><path d="m396.5 388.5v1.5 3.6h1.5v.9c-.4 0-1 0-1.7 0h-7.9c-.5 0-.9 0-1.2 0v-.9h1.3v-3.5c0-.7 0-1.2 0-1.6h2.4c0-.8 0-1.4 0-1.7h1c0 .3-.1.8-.1 1.7h1.5c0-.8 0-1.4 0-1.7h1c0 .3-.1.9-.1 1.7zm-8.2 9.2c-.2-.3-.5-.5-.8-.8.8-.3 1.4-.6 1.9-.9s1-.7 1.4-1.1c.3.3.6.5.9.8-1.6 1-2.8 1.6-3.4 2zm2.6-6.8v-1.6h-1.5v1.6zm0 2.7v-1.9h-1.5v1.9zm2.4-2.7v-1.6h-1.5v1.6zm0 2.7v-1.9h-1.5v1.9zm.2 2 .7-.8c.4.2.9.5 1.6.8s1.3.7 1.8 1c-.3.3-.5.5-.8.8-.4-.3-1.5-1-3.3-1.8zm2-4.7v-1.6h-1.4v1.6zm0 2.7v-1.9h-1.4v1.9z"/></g></svg>