<svg enable-background="new 0 0 400 400" viewBox="0 0 400 400" xmlns="http://www.w3.org/2000/svg"><g fill="#fafafb"><path d="m12.4 4.8-6.1 9h6v1.2h-8v-.5l6.1-8.9h-5.7v-1.2h7.6v.4z"/><path d="m14 15v-10.6h3c1.6 0 2.9.5 4 1.4s1.6 2.2 1.6 3.8-.5 3-1.6 3.9-2.4 1.5-4 1.5zm1.4-9.4v8.2h1.6c1.3 0 2.4-.4 3.1-1.1s1.1-1.8 1.1-3.1-.4-2.3-1.2-3-1.8-1-3.1-1z"/><path d="m26.1 4.4v10.6h-1.4v-10.6z"/><path d="m36.1 14.6c-.8.4-1.8.6-2.9.6-1.5 0-2.7-.5-3.6-1.4s-1.4-2.2-1.4-3.8c0-1.7.5-3.1 1.5-4.1s2.3-1.6 3.9-1.6c1 0 1.8.1 2.5.4v1.4c-.8-.4-1.6-.6-2.5-.6-1.2 0-2.1.4-2.9 1.2s-1.1 1.8-1.1 3.2c0 1.3.3 2.3 1 3s1.6 1.1 2.7 1.1c1 0 2-.2 2.7-.7v1.3z"/><path d="m37.6 14.3c0-.2.1-.5.3-.6s.4-.3.6-.3c.3 0 .5.1.6.3s.3.4.3.6-.1.4-.3.6-.4.3-.6.3c-.3 0-.5-.1-.6-.3s-.3-.4-.3-.6z"/><path d="m50.2 15h-1.6l-5.3-8.2c-.2-.2-.3-.5-.4-.7 0 .2.1.7.1 1.5v7.4h-1.4v-10.6h1.7l5.2 8.1c.2.4.4.6.4.7 0-.3-.1-.8-.1-1.5v-7.3h1.4z"/><path d="m58.6 15h-5.7v-10.6h5.5v1.2h-4.1v3.4h3.8v1.2h-3.8v3.6h4.3z"/><path d="m67.1 5.6h-3.1v9.4h-1.4v-9.4h-3v-1.2h7.5z"/></g><path d="m237.61 96.7c4.77 5.23 9.39 10.71 14.46 15.73 7.68 7.61 13.11 16.65 17.8 26.23 8.3 16.97 14.21 34.78 17.23 53.41 2.87 17.66-.24 34.53-8.87 50.26-7.93 14.46-14.52 29.45-18.51 45.51-.45 1.81-.75 3.74-.67 5.6.5 11.51 1.14 23.02 1.72 34.53.06 1.22.01 2.44.01 4.05-2.45.32-4.96.82-7.47.87-.76.01-1.78-1.09-2.28-1.92-7.07-11.87-9.61-24.76-7.88-38.37 1.37-10.74 2.73-21.56 5.24-32.06 1.5-6.27 4.94-12.15 7.99-17.96 12.56-23.89 13.96-48.25 4.29-73.5-6.54-17.09-14.39-33.46-24.32-48.81-1.13-1.75-2.72-3.24-4.27-4.67-11.08-10.17-20.95-21.38-30.38-33.1-12.19-15.14-12.01-30.8-3.52-47.21 1.47-2.83 3.43-5.46 5.48-7.93 1.85-2.23 4.18-2.03 5.57.59 1 1.88 1.65 4.26 1.54 6.36-.35 6.47-.71 12.99-1.86 19.34-1.69 9.33 1.71 16.71 7.78 23.18 3.77 4.02 8.59 3.4 11.21-1.48 3.92-7.27 7.3-14.83 11.17-22.13 1.87-3.53 4.09-6.94 6.62-10.01 1.38-1.67 3.75-2.51 6.04-3.95 2.53 7.25 2.84 13.99.9 20.42-3.03 10.04-6.76 19.87-10.46 29.69-.96 2.57-2.92 4.75-4.56 7.33z" fill="#010105"/><path d="m108.91 166.74c6.85 1.01 11.79 4.19 15.65 9.09 1.58 2.01 2.79 4.31 4.26 6.43 1.59 2.29 3.09 4.69 4.97 6.73 5.31 5.77 7.61 6.24 14.53 2.54 6.11-3.27 11.93-7.05 18.02-10.35 1.83-.99 4.13-1.13 6.22-1.66-.15 2.22.01 4.52-.54 6.63-.4 1.5-1.52 3.03-2.73 4.07-4.93 4.21-10.04 8.22-15.04 12.36-1.38 1.14-2.66 2.4-3.9 3.68-4.38 4.5-6.11 9.18-4.5 15.95 6.73 28.16 12.73 56.49 19.09 84.73.39 1.74 1.35 3.57 2.58 4.86 3.16 3.31 6.57 6.39 9.96 9.47 2 1.81 4.09 2.13 6.7.74 5.42-2.88 11.07-5.35 16.53-8.15 1.76-.9 3.25-2.33 4.87-3.5 4.3-3.09 8.79-3.22 10.77-.32 3.76 5.51 3.18 10.91-1.58 14.13-7.41 5.01-14.8 10.07-22.31 14.93-2 1.29-2.7 2.57-2.15 4.9 1.59 6.74 3.04 13.51 4.47 20.28.34 1.63.55 3.31.56 4.98.02 3.37-1.77 5.42-5.02 6.2-4.07.97-5.84.25-7.72-3.09-2.2-3.9-4.56-7.71-6.54-11.71-6.26-12.63-14.18-24.03-24.51-33.71-1.03-.96-1.81-2.28-2.43-3.57-3.04-6.35-5.59-12.97-9.06-19.07-5.01-8.83-6.51-18.32-7.35-28.21-1.78-20.96-3.96-41.88-6.03-62.81-.13-1.3-.66-2.59-1.14-3.82-5.07-13.02-10.17-26.02-15.26-39.03-.4-1.06-.78-2.11-1.37-3.7z" fill="#010105"/><path d="m106.89 114.57c11.13 2.42 21.43 4.95 31.84 6.86 13.08 2.4 25.53 6.46 37.29 12.64 13.95 7.33 26.32 16.42 34.75 30.18 9.31 15.2 12.09 31.25 7.38 48.54-1.94 7.11-3.71 14.27-5.49 21.42-.39 1.58-.95 2.51-2.83 2.55-2.75.06-5.5.48-8.65.79.59-7.69 1.11-15.02 1.71-22.34 1.53-18.48-2.71-35.43-14.38-49.96-5.58-6.95-13.45-11.54-21.5-15.16-9.65-4.34-19.66-7.88-29.58-11.6-10.71-4.01-20.79-8.89-27.64-18.59-.58-.82-1.1-1.68-1.59-2.56-.38-.65-.66-1.37-1.31-2.77z" fill="#010105"/></svg>