<svg enable-background="new 0 0 400 400" viewBox="0 0 400 400" xmlns="http://www.w3.org/2000/svg"><path d="m374.8 390.4.4-.4c.7.5 1.3 1 1.8 1.4l-.5.5c-.5-.6-1.1-1.1-1.7-1.5zm1 7.3-.6-.3c.5-1.4 1.1-2.8 1.5-4.3.2.1.4.2.6.3-.5 1.3-1 2.8-1.5 4.3zm-.4-10.3.4-.4c.4.3 1 .8 1.7 1.4l-.5.5c-.4-.5-1-1-1.6-1.5zm2.5.3h1.7v-1h.6v1h3.5v-1h.6v1h1.8v.5h-1.8v1.4h-2v1h3.2v2h-3.2v.9h3.3v.5h-3.4c0 .3-.1.6-.1.9h4v.5h-3.7c.7.9 1.9 1.5 3.8 1.7-.1.2-.2.4-.3.6-2.1-.4-3.5-1.1-4-2.1-.4 1-1.8 1.7-4 2.2-.1-.2-.2-.4-.3-.6 2.1-.4 3.4-1 3.8-1.8h-3.4v-.5h3.6c.1-.3.1-.6.2-.9h-3.3v-.5h3.4c0-.3 0-.6 0-.9h-3.2v-2h3.3v-1h-2.1v-1.4h-1.7v-.5zm1.1 3.5v1h2.7c0-.3 0-.4 0-.4 0-.1 0-.2 0-.2 0-.1 0-.2 0-.3h-2.7zm1.2-3v.9h3.5v-.9zm4.7 3h-2.6v.6.4h2.6z" fill="#fbfcfa"/><path d="m393.6 386.7h.6v1.5h2.7v6.1h1.1v.6h-11v-.6h1.1v-6.1h2.7v-1.5h.6v1.5h2.1v-1.5zm-2.7 8.8.4.6c-1.2.6-2.5 1.3-3.8 1.9-.1-.2-.2-.4-.3-.6 1.2-.6 2.5-1.2 3.7-1.9zm-2.2-6.7v2.4h2.1v-2.4zm0 3v2.5h2.1v-2.5zm2.8-3v2.4h2.1v-2.4zm0 3v2.5h2.1v-2.5zm6 6.1c-1.4-.7-2.7-1.3-3.9-1.8l.3-.6c1.5.6 2.7 1.2 3.9 1.7zm-1.2-9.1h-2.1v2.4h2.1zm-2.1 3v2.5h2.1v-2.5z" fill="#fbfcfa"/><g fill="#010106"><path d="m176.37 142.61c21.15-8.99 43.66-9.47 66.33-11.78-1.1-3.67-2.13-7.15-3.18-10.62-.65-2.14-1.6-4.23-1.93-6.41-.62-4.01-3.22-5.87-6.78-6.13-6.43-.47-12.9-.82-19.34-.63-8.15.25-16.29 1.1-24.43 1.67-7.15.5-11.98-2.31-13.19-7.66-.09-.42-.05-.87-.11-2.02 7.17-1.4 14.31-3.56 21.55-4.05 19.52-1.33 39.08-2.08 58.64-2.81 9.15-.34 18.32-.2 27.48-.1 2.29.03 4.9.24 6.77 1.36 1.63.98 2.84 3.22 3.48 5.16.73 2.19-1.13 3.62-3 4.14-4.8 1.32-9.64 2.75-14.56 3.38-4.41.56-8.97-.19-13.41.2-5.25.46-10.44 1.54-16.38 2.45 1.57 3.36 2.66 5.74 3.77 8.11 1.23 2.63 2.89 5.15 3.64 7.91 1.82 6.76 6.91 8.43 12.77 8.29 6.45-.15 12.88-1.13 19.33-1.6 3.87-.29 7.79-.64 11.65-.35 4.61.35 8.12 2.89 10.52 7.05-4 4.07-9.1 5.66-14.48 6.27-8.67.98-17.36 1.73-26.06 2.42-5.14.41-6.4 2.09-5.08 6.99 2.21 8.18 5.34 16.28 6.24 24.61 1.61 14.89 2.58 29.93 2.37 44.9-.11 8.44-2.61 16.98-4.87 25.25-9.88 36.09-28.77 66.98-54.9 93.58-.37.37-.8.68-1.32 1.11-2.16-3.32-1.08-6.06.69-8.84 7.5-11.8 15.61-23.27 22.27-35.53 9.15-16.84 19.22-33.36 23.81-52.31 3.68-15.19 3.78-30.61 2.83-46.06-.98-15.89-3.48-31.54-8.17-46.82-1.03-3.34-2.83-5.03-6-5.17-9.25-.41-18.5-.8-27.76-.87-10.94-.09-21.89.26-32.84.21-2.94-.04-5.37-1.48-6.35-5.3z"/><path d="m94.93 25.34c9.17 6.96 16.06 14.97 21.21 24.33 11.29 20.49 17.11 42.58 18.72 65.88.95 13.72 2.53 27.4 3.26 41.13.24 4.56-1.55 9.19-1.9 13.82-.87 11.48-1.76 22.97-2.06 34.46-.41 16.1-.45 32.22-.35 48.33.12 21.28 6.78 40.82 18.01 58.55 8.77 13.86 18.68 27.03 28.66 40.07 3.6 4.71 8.86 8.14 13.36 12.16 3 2.68 5.13 5.82 5.46 11.19-5.15-2.32-10.09-3.81-14.19-6.55-5.56-3.71-10.47-8.38-15.66-12.64-7.91-6.49-13.63-14.8-18.87-23.4-10.09-16.57-18.36-34.06-24.34-52.5-2.18-6.72-2.44-14.06-3.59-21.11-.95-5.84-2.32-11.67-.07-17.53.15-.39.21-.97.03-1.31-4.15-7.77-1.24-15.83-.78-23.7 1.02-17.86 3.06-35.67 3.75-53.54.69-18.02-1.14-35.97-3.76-53.82-.47-3.17-.6-6.49-.2-9.65.49-3.79.03-7.18-1.41-10.73-8.24-20.28-16.31-40.63-24.43-60.96-.24-.58-.41-1.19-.85-2.48z"/><path d="m215.31 167.95c3.65 6.28 5.15 13.26 5.9 20.36 1.55 14.77 1.24 29.49-2.52 43.95-.83 3.17-1.9 6.63-3.93 9.07-5.68 6.84-11.7 7.82-19.75 3.98-.95-.45-1.82-1.26-2.5-2.09-7.42-9.1-10.78-19.76-11.26-31.3-.62-14.88 1.39-29.43 6.7-43.43.38-1.01.83-2 1.42-3.39 5.08 8.73 6.15 17.56 4.23 26.88-.54 2.61-1.07 5.28-1.1 7.93-.04 4.11 2.11 6.73 6.14 6.98 3.74.24 7.55-.21 11.29-.68.79-.1 1.78-1.53 2.04-2.52 1.74-6.54.66-13.05-.2-19.61-.51-3.83-.64-7.78-.35-11.63.13-1.7 1.75-3.29 2.7-4.92.39.16.79.29 1.19.42zm-16.79 67.8c3.53-1.97 7.15-3.74 10.5-5.93 2.85-1.87 2.9-5.1 2.62-8.1-.25-2.67-2.4-3.99-4.71-3.91-3.96.12-7.93.68-11.83 1.41-1.03.19-2.73 1.88-2.58 2.53 1.14 4.91 1.59 10.22 6 14z"/><path d="m87.83 291.8c2.64-9.34 4.81-18.11 7.62-26.68 2.73-8.31 2.11-16.28-.92-24.24-2.17-5.68-3.87-11.44-3.46-17.61.12-1.76.33-3.52.55-5.75 5.98 2.83 9.98 7.08 12.17 12.68 1.69 4.32 3.1 8.93 3.57 13.52 1.4 13.68.82 27.24-4.12 40.33-.86 2.29-2.12 3.66-4.57 4.29-3.44.88-6.78 2.15-10.84 3.46z"/><path d="m172.53 286.94c-.39.33-.46.43-.55.47-4.52 2.03-8.34 1.46-11.17-2.94-.12-.18-.31-.33-.47-.48-11.37-10.5-16.28-23.18-13.43-38.67 1.13-6.15 1.49-12.45 2.73-18.57.75-3.72 2.51-7.24 4.1-11.65 5.45 6.25 6.99 12.32 5.54 19.35-1.42 6.87-3.68 13.83-3.51 20.7.23 9.34 1.9 18.84 12.21 23.5 3.32 1.51 4.66 4.62 4.55 8.29z"/><path d="m100.1 108.01c5.98 5.22 9.41 11.5 10.36 18.69 2.56 19.37-.98 37.86-9.83 55.2-1.31 2.56-4.8 4.01-7.55 6.19-1.88-3.12-2.21-6.12-.76-8.44 6.7-10.77 6.64-23.27 9.55-35.01 1.57-6.36-.29-12.16-1.72-18.08-1.47-5.99-1.58-11.94-.05-18.55z"/><path d="m170.55 183.29c-3.6 2.18-5.21 1.61-7.02-1.22-9.73-15.28-11.42-31.98-8.89-49.34 1.11-7.65 3.22-15.16 4.96-23.1 3.39 2.23 4.37 5.02 4.29 8.13-.2 8.37-.59 16.74-.83 25.11-.15 5.03-.63 10.11-.11 15.08.44 4.23 1.96 8.38 3.22 12.5 1.32 4.33 2.91 8.58 4.38 12.84z"/></g></svg>