<svg enable-background="new 0 0 400 400" viewBox="0 0 400 400" xmlns="http://www.w3.org/2000/svg"><path d="m374.8 390.4.4-.4c.7.5 1.3 1 1.8 1.4l-.5.5c-.5-.6-1.1-1.1-1.7-1.5zm1 7.3-.6-.3c.5-1.4 1.1-2.8 1.5-4.3.2.1.4.2.6.3-.5 1.3-1 2.8-1.5 4.3zm-.4-10.3.4-.4c.4.3 1 .8 1.7 1.4l-.5.5c-.4-.5-1-1-1.6-1.5zm2.5.3h1.7v-1h.6v1h3.5v-1h.6v1h1.8v.5h-1.8v1.4h-2v1h3.2v2h-3.2v.9h3.3v.5h-3.4c0 .3-.1.6-.1.9h4v.5h-3.7c.7.9 1.9 1.5 3.8 1.7-.1.2-.2.4-.3.6-2.1-.4-3.5-1.1-4-2.1-.4 1-1.8 1.7-4 2.2-.1-.2-.2-.4-.3-.6 2.1-.4 3.4-1 3.8-1.8h-3.4v-.5h3.6c.1-.3.1-.6.2-.9h-3.3v-.5h3.4c0-.3 0-.6 0-.9h-3.2v-2h3.3v-1h-2.1v-1.4h-1.7v-.5zm1.1 3.5v1h2.7c0-.3 0-.4 0-.4 0-.1 0-.2 0-.2 0-.1 0-.2 0-.3h-2.7zm1.2-3v.9h3.5v-.9zm4.7 3h-2.6v.6.4h2.6z" fill="#fbfcfa"/><path d="m393.6 386.7h.6v1.5h2.7v6.1h1.1v.6h-11v-.6h1.1v-6.1h2.7v-1.5h.6v1.5h2.1v-1.5zm-2.7 8.8.4.6c-1.2.6-2.5 1.3-3.8 1.9-.1-.2-.2-.4-.3-.6 1.2-.6 2.5-1.2 3.7-1.9zm-2.2-6.7v2.4h2.1v-2.4zm0 3v2.5h2.1v-2.5zm2.8-3v2.4h2.1v-2.4zm0 3v2.5h2.1v-2.5zm6 6.1c-1.4-.7-2.7-1.3-3.9-1.8l.3-.6c1.5.6 2.7 1.2 3.9 1.7zm-1.2-9.1h-2.1v2.4h2.1zm-2.1 3v2.5h2.1v-2.5z" fill="#fbfcfa"/><path d="m186.13 24.97c6.7 3.08 10.57 8.44 12.37 15.14 2.09 7.76 3.36 15.74 5.47 23.5 1.24 4.57 3.05 9.07 5.21 13.29 3.51 6.86 7.32 13.59 11.41 20.12 2.35 3.76 3.15 7.36 2.19 11.67-.4 1.8-.06 3.98.58 5.76 2.42 6.73 4.94 13.43 7.75 20 1.24 2.89 1.63 5.5.07 8.26-1.83 3.24-1.33 5.92 1.4 8.52 3.29 3.14 5.1 7.18 6.61 11.48 5.13 14.54 11 28.84 15.61 43.53 2.79 8.89 3.75 18.35 5.65 27.52.45 2.15 1.09 4.35 2.11 6.28 4.95 9.39 10.8 18.39 14.91 28.13 4.32 10.22 7.13 21.09 10.44 31.73 3.45 11.09 6.82 22.2 10 33.36 2.81 9.87 9.52 14.55 19.37 15.53 5.67.56 11.33 1.28 17 1.87 7.85.81 10.77 4.73 9.64 12.44-.72 4.9-2.67 7.78-7.94 9.05-11.19 2.71-22.46 3.44-33.61 1.28-20.7-4.02-41.42-2.92-62.13-1.17-23.02 1.94-45.79-.72-68.64-2.39-9.82-.72-19.65-2.34-29.43-2.08-10.67.28-21.33 2.09-31.95 3.52-9.4 1.26-18.71 3.33-28.14 4.27-8.22.82-16.24-1.03-23.83-4.41-5.93-2.63-8.4-9.74-5.14-15.26.52-.88 1.95-1.35 3.06-1.72 12.83-4.26 25.71-8.37 38.49-12.78 2.13-.74 4.34-2.35 5.66-4.17 5.83-8.08 7.38-17.53 8.28-27.23.87-9.34 2.06-18.66 3.51-27.93.44-2.86 1.58-6.02 3.41-8.17 6.31-7.41 7.58-16.42 9.15-25.45 2.89-16.63 5.57-33.31 9.08-49.81 1.83-8.58 5.2-16.84 7.93-25.23 2.11-6.48 4.2-12.97 6.5-19.39 3.25-9.09 5.12-18.21 5.4-28.05.3-10.64 2.88-21.24 4.81-31.79 2.44-13.39 4.08-26.98 9.24-39.76 4.41-10.92 10.55-20.69 18.5-29.46zm85.31 318.12c-6.38-16.05-12.62-31.83-18.97-47.56-.32-.8-1.52-1.66-2.4-1.75-22.12-2.34-44.21-5.22-66.4-6.55-10.33-.62-20.86 1.68-31.27 2.88-5.86.68-11.13 3.09-15.98 6.49-1.7 1.19-2.5 2.49-2.57 4.65-.17 5.7-.61 11.39-1 17.07-.58 8.62-.66 17.18 1.83 25.61.56 1.91 1.43 2.6 3.31 3.04 24.44 5.65 49.08 4.94 73.71 2.07 13.56-1.58 26.98-3.61 40.66-1.19 6.76 1.19 13.05-.83 19.08-4.76zm-26.88-74.41c-2.97-10.27-5.65-20.29-8.79-30.16-4.22-13.27-11.28-17.46-23.04-17.12-10.38.29-20.78.47-31.16.18-8.59-.24-17.17-1.19-25.74-1.95-2.02-.18-2.97.46-3.74 2.31-5.19 12.43-7.97 25.35-7.76 38.81.05 2.94 1.03 5.92 1.98 8.75.31.92 1.88 1.98 2.91 2.01 23.45.75 46.91 1.58 70.37 1.88 8.34.09 16.71-1.11 24.97-4.71zm-55.36-164.53c-.75 1.38-1.5 2.6-2.09 3.89-11.73 25.45-19.89 52.15-27.4 79.06-.33 1.18-.2 2.7.24 3.86 1.32 3.44 2.82 6.81 4.44 10.12.4.82 1.48 1.82 2.28 1.86 11.5.53 23.01 1.19 34.52 1.21 6.09.01 11.83-2.13 16.95-5.65 1.7-1.17 2.28-2.29 1.42-4.43-2.03-5.08-3.77-10.27-5.58-15.44-6.93-19.77-15.83-38.96-16.47-60.51-.16-5.58-3.51-10.23-8.31-13.97z" fill="#010106"/></svg>