<svg enable-background="new 0 0 400 400" viewBox="0 0 400 400" xmlns="http://www.w3.org/2000/svg"><path d="m374.8 390.4.4-.4c.7.5 1.3 1 1.8 1.4l-.5.5c-.5-.6-1.1-1.1-1.7-1.5zm1 7.3-.6-.3c.5-1.4 1.1-2.8 1.5-4.3.2.1.4.2.6.3-.5 1.3-1 2.8-1.5 4.3zm-.4-10.3.4-.4c.4.3 1 .8 1.7 1.4l-.5.5c-.4-.5-1-1-1.6-1.5zm2.5.3h1.7v-1h.6v1h3.5v-1h.6v1h1.8v.5h-1.8v1.4h-2v1h3.2v2h-3.2v.9h3.3v.5h-3.4c0 .3-.1.6-.1.9h4v.5h-3.7c.7.9 1.9 1.5 3.8 1.7-.1.2-.2.4-.3.6-2.1-.4-3.5-1.1-4-2.1-.4 1-1.8 1.7-4 2.2-.1-.2-.2-.4-.3-.6 2.1-.4 3.4-1 3.8-1.8h-3.4v-.5h3.6c.1-.3.1-.6.2-.9h-3.3v-.5h3.4c0-.3 0-.6 0-.9h-3.2v-2h3.3v-1h-2.1v-1.4h-1.7v-.5zm1.1 3.5v1h2.7c0-.3 0-.4 0-.4 0-.1 0-.2 0-.2 0-.1 0-.2 0-.3h-2.7zm1.2-3v.9h3.5v-.9zm4.7 3h-2.6v.6.4h2.6z" fill="#fbfcfa"/><path d="m393.6 386.7h.6v1.5h2.7v6.1h1.1v.6h-11v-.6h1.1v-6.1h2.7v-1.5h.6v1.5h2.1v-1.5zm-2.7 8.8.4.6c-1.2.6-2.5 1.3-3.8 1.9-.1-.2-.2-.4-.3-.6 1.2-.6 2.5-1.2 3.7-1.9zm-2.2-6.7v2.4h2.1v-2.4zm0 3v2.5h2.1v-2.5zm2.8-3v2.4h2.1v-2.4zm0 3v2.5h2.1v-2.5zm6 6.1c-1.4-.7-2.7-1.3-3.9-1.8l.3-.6c1.5.6 2.7 1.2 3.9 1.7zm-1.2-9.1h-2.1v2.4h2.1zm-2.1 3v2.5h2.1v-2.5z" fill="#fbfcfa"/><g fill="#010106"><path d="m288.85 191.43c-2.72-8.38-5.59-16.7-8.04-25.14-.62-2.12.22-4.64.24-6.98.05-4.93-2.1-6.69-6.88-5.79-6.92 1.29-13.87 2.48-20.76 3.91-1.53.32-3.16 1.16-4.3 2.23-4 3.75-7.66 7.87-11.72 11.54-3.46 3.13-5.53 6.65-6.26 11.37-1.01 6.5-1.32 6.45-7.82 6.43-1.11 0-2.22 0-4.18 0 .13-2.68-.09-5.2.44-7.55.83-3.69 2.08-7.3 3.32-10.89.34-.98 1.17-1.88 1.97-2.59 5.11-4.53 10.07-9.26 15.49-13.39 3.6-2.74 7.82-4.72 11.9-6.76 2.12-1.06 3.11-2.1 2.23-4.57-.77-2.14.19-5.23-3.27-5.73-.98-.14-2.32-.08-3.01.49-11.45 9.4-24.44 9.01-37.54 5.28-5.11-1.45-9.76-4.71-14.39-7.52-1.52-.92-2.31-3.04-3.65-4.92 5.01-1.13 9.2-.68 13.12 1.17 6.86 3.24 13.78 4.07 21.14 1.83 3.5-1.06 7.3-1.12 10.83-2.11 2.4-.67 4.84-1.84 6.78-3.39 2.56-2.05 2.48-4.15.16-6.48-7.66-7.69-9.36-16.98-7.58-27.26.29-1.65.78-3.3.82-4.96.1-5.24 3.04-8.03 7.69-9.59 10.69-3.58 21.42-7.04 32.01-10.9 3.69-1.35 7.04-3.67 10.46-5.69 1.82-1.07 3.42-2.52 5.22-3.63 3.28-2.04 7.37-1.14 9.65 2 1.83 2.51 1.33 5.32-1.35 7.15-4.25 2.9-8.39 6-12.86 8.53-3.4 1.93-4.23 4.59-3.19 7.82 1.47 4.55 3.52 8.9 5.15 13.4 1.65 4.54 4.31 6.6 9.55 6.74 5.23.15 10.57 1.68 15.57 3.42 5.38 1.87 8.59 6.16 8.66 12.02.09 8.15-.57 16.23-7.45 22.01-2.2 1.85-4.75 3.31-7.22 4.81-3.92 2.38-7.82 4.82-11.91 6.88-2.77 1.4-4.12 3.52-4.03 6.33.19 6.01.54 12.02 1.14 17.99.67 6.4-1.18 10.62-6.13 12.49zm-33.33-68.85c9.43-.65 16.84-4.42 23.39-10.12.45-.39.88-1.11.88-1.68.06-7.79-.76-15.47-4.97-22.23-3.21-5.16-11.67-8.11-15.76-5.35-7.12 4.81-11.52 10.02-9.49 19.57 1.41 6.61 3.87 13.01 5.95 19.81zm57.59 2.65c-.63-4.07-2.05-6.82-5.51-8.12-2.39-.9-4.89-1.52-7.37-2.13-3.18-.79-6.02-.63-8.3 2.39-.92 1.21-2.71 2.04-4.27 2.46-8.51 2.26-14.73 8.3-21.67 13.1-2.5 1.73-2.2 4.74-.85 7.31 2.09 3.98 3.64 4.77 6.92 3.66 4.66-1.57 9.3-2.8 14.36-2.74 8.93.1 16.51-3.64 22.82-9.79 1.67-1.63 2.59-4.06 3.87-6.14z"/><path d="m342.33 276.14c-3.46 2.46-2.23 5.84-1.69 8.91.74 4.17 1.94 8.26 2.83 12.41.47 2.21.45 4.46-2.41 5-2.58.49-5.75 2.2-7.38-1.32-2.42-5.23-6.47-7.52-11.89-9.01-9.67-2.65-19.11-6.15-28.66-9.24-6.15-1.99-11.79-1.05-17.74 1.76-5.33 2.52-11.39 3.61-17.23 4.91-4.13.92-8.4 1.29-12.64 1.6-3.62.27-5.26 2.41-6.23 5.48-.23.74-.33 1.54-.6 2.27-.62 1.68-.46 4.25-3.18 3.96-2.43-.26-5.15-.91-5.69-3.82-.89-4.82-2.24-9.76-1.9-14.55.94-13.13 2.58-26.22 4.17-39.3.18-1.49 1.51-3.24 2.81-4.13 9.25-6.31 20-8.65 30.67-11.17 7.65-1.81 15.19-2.46 23.16-.93 8.96 1.72 18.26 1.54 27.31 2.89 13.02 1.94 22.93 11.22 22.86 26.98 0 5.97.3 11.84 3.43 17.3zm-95.12-23.07c26.9 1.54 52.51 3.48 78.17-.99-3.47-4.95-8.21-8.39-13.94-10.22-12.38-3.95-24.99-5.94-37.96-3.19-8.33 1.77-16.68 3.6-23.31 9.47-1.21 1.07-1.77 2.89-2.96 4.93zm82.52 20.66c-.36-2.09-.6-4.2-1.11-6.25-.59-2.36-2.12-3.4-4.71-3.29-3.55.16-7.12-.15-10.68-.06-4.66.12-9.33.26-13.95.79-1.39.16-3.63 1.56-3.72 2.55-.16 1.87.5 4.21 1.66 5.7 1.31 1.69 3.39 3.02 5.4 3.88 7.6 3.25 15.35 5.6 23.59 1.96 2.37-1.05 4.12-2.29 3.52-5.28zm-52.88-9.49c-8.37 0-16.73-.29-25.05.16-2.87.16-6.85 1.44-8.16 3.54-1.7 2.75-1.37 6.82-1.63 10.34-.14 1.89 1.13 2.7 3.08 2.51 2.77-.28 5.58-.29 8.34-.65 7.61-.98 14.86-2.9 20.89-8.08 2.13-1.84 3.2-3.89 2.53-7.82z"/><path d="m114.16 110.36c2.25 2.86 4.98 5.22 6.32 8.21 3.74 8.34 7.06 16.87 10.26 25.44 2.73 7.31 5.07 14.76 7.56 22.16 7.12 21.21 9.71 43.15 9.79 65.39.02 5.6-2.01 11.19-2.86 16.81-.34 2.26-.13 4.62.02 6.92.46 7.02.9 14.04 1.57 21.04 1.47 15.57 7.31 24.35 22.18 28.76 5.65 1.68 7.61 4.64 7.34 9.66-.15 2.83-1.38 4.62-4.16 4.33-3.82-.39-7.81-.76-11.31-2.18-4.52-1.84-8.66-4.64-12.88-7.16-1-.59-1.86-1.59-2.49-2.59-6.57-10.35-10.4-21.72-12.32-33.77-.12-.75-.18-1.59.03-2.3 2.24-7.59 1.68-15.29.79-22.97-1.74-15.05-1.48-30.12-1.36-45.23.05-5.8-1.69-11.64-2.84-17.42-.91-4.6-2.41-9.09-3.2-13.71-1.78-10.33-6.29-19.48-11.53-28.38-3.7-6.29-6.71-12.84-8.12-20.1-.66-3.38-.37-6.08 2.52-8.28 1.39-1.07 2.53-2.48 4.69-4.63z"/><path d="m255.73 315.72c2.67 0 5.12-.1 7.55.06.74.05 1.82.65 2.07 1.28 1.2 2.97 3.57 2.8 6.07 2.67 8.36-.43 16.73-.95 25.1-1.13 2.5-.05 4-1.09 5.76-2.61 1.91-1.66 4.58-4 6.54-3.69 3.53.56 6.46 3.43 6.83 7.37.32 3.39-.23 6.86-.34 10.3-.07 2.19-.64 4.58.04 6.53 2.43 6.95-1 12.88-2.8 19.08-1.49 5.12-5.04 8.68-9.73 10.93-5.9 2.84-11.91 5.47-17.96 7.96-1.18.49-3.02.38-4.17-.2-9.81-4.95-17.92-11.49-21.76-22.43-4.13-11.75-5.14-23.63-3.2-36.12zm28.2 44.56c10.03-.83 17.74-6.56 20.3-18.8 1.22-5.82-.39-8.78-6.24-9.48-9.02-1.08-17.77.52-25.98 4.5-.86.42-1.55 1.81-1.74 2.86-1 5.48 1.19 10.23 3.51 15.01 2.16 4.46 5.84 5.8 10.15 5.91z"/><path d="m174.64 163.66c-1.16 2.2-1.95 4.51-3.42 6.24-1.72 2.03-5.37 1.71-6.65-.5-4.06-7.04-8.09-14.1-11.77-21.34-1.8-3.54-2.12-7.5-.24-11.31.95-1.92 2.1-2.45 4.51-2.02 7.11 1.27 11.05 5.34 12.77 12.16 1.39 5.49 3.1 10.88 4.8 16.77z"/><path d="m107.12 192.45c0 1.12.28 2.33-.07 3.33-.52 1.5-1.15 3.59-2.31 4.09-2.2.96-4.52.94-6.17-1.94-3.97-6.97-8.99-13.39-10.56-21.54-.78-4.03 2.06-9.04 5.89-10.19 1.96-.59 7.55 2.22 8.5 4.83 1.61 4.38 2.91 8.89 4.01 13.42.63 2.58.63 5.32.91 7.98-.06.01-.13.02-.2.02z"/><path d="m169.16 242.04c.55-1.97.57-4.4 1.77-5.81 2.41-2.8 4.45-2.59 7.44-.19 7.21 5.77 11.61 20.96 8.64 29.8-1.05 3.14-4.18 3.93-6.4 1.5-6.5-7.14-10.82-15.27-11.45-25.3z"/><path d="m99.76 248.28c5.21 2.25 8.3 5.6 9.11 11.02 1.23 8.27 2.66 16.51 4.03 24.75.37 2.21-1.4 3.87-3.91 3.17-3-.83-5.9-1.96-7.1-5.41-3.13-9.03-5.69-18.12-4.07-27.84.15-.88.35-1.76.63-2.6.33-.92.77-1.81 1.31-3.09z"/></g></svg>