<svg enable-background="new 0 0 400 400" viewBox="0 0 400 400" xmlns="http://www.w3.org/2000/svg"><g fill="#fafafb"><path d="m12.4 4.8-6.1 9h6v1.2h-8v-.5l6.1-8.9h-5.7v-1.2h7.6v.4z"/><path d="m14 15v-10.6h3c1.6 0 2.9.5 4 1.4s1.6 2.2 1.6 3.8-.5 3-1.6 3.9-2.4 1.5-4 1.5zm1.4-9.4v8.2h1.6c1.3 0 2.4-.4 3.1-1.1s1.1-1.8 1.1-3.1-.4-2.3-1.2-3-1.8-1-3.1-1z"/><path d="m26.1 4.4v10.6h-1.4v-10.6z"/><path d="m36.1 14.6c-.8.4-1.8.6-2.9.6-1.5 0-2.7-.5-3.6-1.4s-1.4-2.2-1.4-3.8c0-1.7.5-3.1 1.5-4.1s2.3-1.6 3.9-1.6c1 0 1.8.1 2.5.4v1.4c-.8-.4-1.6-.6-2.5-.6-1.2 0-2.1.4-2.9 1.2s-1.1 1.8-1.1 3.2c0 1.3.3 2.3 1 3s1.6 1.1 2.7 1.1c1 0 2-.2 2.7-.7v1.3z"/><path d="m37.6 14.3c0-.2.1-.5.3-.6s.4-.3.6-.3c.3 0 .5.1.6.3s.3.4.3.6-.1.4-.3.6-.4.3-.6.3c-.3 0-.5-.1-.6-.3s-.3-.4-.3-.6z"/><path d="m50.2 15h-1.6l-5.3-8.2c-.2-.2-.3-.5-.4-.7 0 .2.1.7.1 1.5v7.4h-1.4v-10.6h1.7l5.2 8.1c.2.4.4.6.4.7 0-.3-.1-.8-.1-1.5v-7.3h1.4z"/><path d="m58.6 15h-5.7v-10.6h5.5v1.2h-4.1v3.4h3.8v1.2h-3.8v3.6h4.3z"/><path d="m67.1 5.6h-3.1v9.4h-1.4v-9.4h-3v-1.2h7.5z"/></g><path d="m196.14 241.71c-4.3-.23-8.01-.45-11.72-.64-3.96-.2-7.94-.19-11.87-.65-1.25-.15-2.37-1.5-3.94-2.57 5.14-3.63 10.6-4.31 16.14-4.45 9.15-.22 18.39.45 27.44-.56 8.46-.94 16.71-.41 25.03.48 1.84.2 3.58 1.28 5.36 1.96v1.43c-3.31 1.03-6.58 2.28-9.96 2.99-2.16.45-3.14 1.42-3.29 3.48-.33 4.56-.31 8.85 4.32 11.76 3.3 2.07 6.34 4.61 9.3 7.16 4.65 4.02 7.43 8.76 7.39 15.37-.06 11.63.86 23.26.97 34.89.08 8.03-.28 16.09-.87 24.1-.5 6.77-.12 13.34 1.37 19.98.87 3.86 1.17 7.97.95 11.93-.26 4.65-2.35 6.86-5.06 6.73-2.07-.1-4.76-4.23-4.86-7.55-.15-4.7-.18-9.4-.39-14.09-.57-12.55-.14-25.05 1.65-37.5.8-5.54.53-6.08-5.15-6.19-6.92-.13-13.85.3-20.76.73-.96.06-2.42 1.35-2.66 2.31-1.14 4.65-2.51 9.35-2.74 14.09-.56 11.72-.53 23.47-.75 35.21-.02 1.11 0 2.26-.24 3.33-.58 2.53-2.1 4.64-4.82 4.14-2.65-.48-3.03-3.12-2.64-5.39 2.85-16.29 2.28-32.77 2.77-49.18.03-.98-.1-1.97-.18-3.42-6.16.39-12.13.77-18.11 1.16-2.34.15-4.7.59-7.02.45-3.57-.22-5.55 1.44-6.15 4.71-1.18 6.35-2.1 12.75-3.25 19.11-1.78 9.88-3.51 19.77-5.57 29.59-.81 3.84-3.97 4.96-8.71 3.4.99-4.38 1.96-8.83 3.03-13.25.5-2.06 1.05-4.13 1.81-6.1 5.05-13.04 4.41-26.82 5.25-40.38.85-13.85 1.3-27.73 2.18-41.57.28-4.43 2.03-8.34 6.41-10.62 4.93-2.57 9.38-6.1 15.17-6.82.72-.09 1.6-1.14 1.9-1.93.79-2.08 1.3-4.25 2.27-7.63zm28.07 4.72c-.29-.08-.58-.15-.88-.23.01-4.74-2.09-6.54-6.69-5.75-3.19.55-6.44.91-9.55 1.76-1.21.33-2.53 1.6-3.06 2.78-1.27 2.84-1.71 6.09-3.18 8.8-2.94 5.42-2.38 10.76-.55 16.2.93 2.74 1.99 5.45 3.14 8.1.76 1.76 1.25 3.85 4.09 3.47 3.24-.42 7.21-.26 8.29-3.82 3.13-10.33 5.64-20.85 8.39-31.31zm-36.56 60.99c2.18-.28 5.75-.56 9.24-1.26 3.6-.73 7.12-1.82 10.64-2.87.9-.27 2-.76 2.44-1.49 3.71-6.23-.03-12.8-7.2-12.89-6.8-.09-13.61-.24-20.41-.43-3.23-.09-4.7 1.04-5.18 4.25-.21 1.44-.49 2.87-.56 4.32-.45 9.93-1.52 9.91 11.03 10.37zm39.94-3.36c0 .09.01.17.01.26 3.45-.2 7.02.06 10.33-.74 2.56-.61 5.74-1.96 7-4 3.55-5.71-1.23-12.95-8.03-12.72-4.47.15-8.94.4-13.38.91-1.8.2-4.65.79-5.05 1.91-1.5 4.15-2.79 8.61-.97 13.04.33.81 1.77 1.58 2.73 1.63 2.44.14 4.91-.16 7.36-.29zm1.22-45.27c-2 4.92-4.13 9.58-5.75 14.41-.8 2.38-1.12 5.49 1.85 6.77 5.8 2.49 11.84 3.39 17.68.05.83-.47 1.65-2.19 1.43-3.08-2.08-8.28-6.24-14.98-15.21-18.15zm-46.73 25.63c3.88-1.23 7.82-2.31 11.61-3.79.95-.37 2.1-2.07 1.98-3-.43-3.18-1.06-6.42-2.23-9.39-1.61-4.1-5.37-5.26-9.25-3.34-1.8.89-3.64 1.71-5.39 2.7-.71.4-1.67 1.09-1.76 1.74-.42 3.3-1.01 6.67-.72 9.95.36 3.96 1.56 4.59 5.76 5.13z" fill="#010105"/><path d="m220.7 162.74c-8.34 4.86-17.23 5.72-26.36 6.22-12.81.7-25.59 2-38.39 2.96-2.33.18-4.69.01-7.03-.05-3.04-.08-4.45-1.61-4.01-4.86 5.32-2.43 11.06-1.89 16.72-1.92.44 0 .89.12 1.33.14 8.54.34 9.8-1.11 8.37-9.39-.34-1.96-.32-3.99-.49-6.35-2.45-.54-5.02-1.14-7.61-1.67-5.12-1.05-8.64-3.85-10.35-8.92-2.25-6.67-3.17-13.2-1.58-20.37 1.41-6.36 1.23-13.1 1.48-19.68.65-17.56 1.15-35.13 1.71-52.69.06-1.94 0-3.98 3.18-3.56.14 2.99.33 5.99.41 8.99.31 12.31.58 24.62.9 36.92.04 1.44.16 2.92.53 4.3.7 2.62 2.06 4.04 5.26 3.81 6.35-.46 12.75-.58 19.11-.46 2.76.05 4.17-1.21 5.17-3.34 3.5-7.36 3.55-15.1 2.59-22.99-.39-3.18-.52-6.41-.56-9.62-.07-5.8-.16-11.61.11-17.4.16-3.48.97-6.93 1.54-10.69 4.64 1.88 5.16 5.02 5.12 8.58-.22 17.01-.39 34.02-.54 51.03-.05 5.99 1.89 7.46 7.36 4.65 3.87-1.99 7.19-5.11 10.59-7.92.69-.57.92-1.99.96-3.04.41-9.73.79-19.46 1.02-29.19.06-2.44-.68-4.89-.68-7.33 0-1.24.84-2.47 1.3-3.7 1.33.64 3.38.95 3.87 1.99 1.9 4.08 3.93 8.04 3.27 13.02-2.07 15.58-1.32 31.26-1.04 46.92.16 8.66-.73 17.26-4.46 25.23-1.09 2.33-2.75 4.58-4.66 6.29-3.16 2.82-6.73 5.17-10.14 7.71-3.69 2.74-5.63 8.8-3.92 12.93.28.69 1.52 1.41 2.29 1.39 3.89-.11 7.78-.52 11.67-.7 2.27-.1 4.82-.63 5.96 2.76zm-40.74-42.65c.02-.13.03-.25.05-.38.78 0 1.57.03 2.35-.01 9-.45 8.06-1.12 8.33-8.82.12-3.27-1.22-6.13-4.43-7.23-9.03-3.1-17.96-2-26.19 2.35-1.85.98-2.71 4.91-2.93 7.58-.24 2.77 2.47 3.69 4.91 4.04 5.96.87 11.94 1.65 17.91 2.47zm5.4 6.83c-1.67-.41-2.71-.84-3.78-.9-7.02-.36-14.05-.65-21.08-.9-.61-.02-1.26.32-1.84.6-3.14 1.52-2.22 4.17-1.29 6.3 1.21 2.76 2.48 6.56 4.75 7.54 3.56 1.54 8.77 2.7 11.85 1.15 5.11-2.56 8.97-7.48 11.39-13.79zm.91 9.85c-6.3 5.21-8.2 12.42-8.97 19.94-.6 5.87 1.29 7.55 6.99 7.23 1.55-.09 3.32-.03 4.55-.77 1.56-.93 3.67-2.54 3.78-3.99.39-5.29.38-10.66-.13-15.94-.32-3.39-2.7-5.77-6.22-6.47zm10.32-18.65c6.77 1.89 12.64 1.67 16.93-.53 4.15-2.13 5.91-11.31 2.71-14.68-.61-.65-1.77-1.2-2.62-1.12-4.96.45-9.93.99-14.84 1.8-.85.14-2.03 1.7-2.09 2.66-.23 3.87-.09 7.77-.09 11.87zm-.98 9.23c.96 4.84 1.84 9.27 2.78 13.97 6.75-1.12 12.21-3.55 15.17-9.9 1.77-3.81.93-5.61-3.27-5.53-4.76.09-9.5.91-14.68 1.46z" fill="#010105"/><path d="m234.84 24.97c3.67.48 4.73 2.49 4.77 5.45.44 34.7.79 69.4 1.47 104.09.12 5.98 1.63 11.94 2.52 17.91 1.71 11.46-.37 22.54-3.74 33.4-1.46 4.68-1.89 9.93-6.39 13.29-6.17 4.61-12.95 7.76-20.68 7.79-9.39.04-18.78-.68-28.17-.75-6.35-.05-12.77-.05-19.03.82-8.54 1.19-13.55 7.79-13.28 16.54.49 16.11 1.22 32.22 1.61 48.33.45 18.62-1.13 37.09-3.87 55.52-1.43 9.62-1.91 19.37-2.94 29.05-.26 2.41.22 6.14-3.21 6.09-3.53-.05-2.87-4.05-2.78-6.16.33-7.13.99-14.28 2.12-21.32 3.71-23.03 6.38-46.1 4.98-69.5-.77-12.83-1.4-25.67-1.7-38.51-.11-4.53.98-9.09 1.45-13.64.65-6.19 4.24-10.58 9.14-13.72 2.41-1.55 5.64-2.46 8.53-2.52 10.72-.23 21.45-.15 32.16.15 6.03.17 12.03.98 18.05 1.54 10.07.94 15.18-2.01 16.85-11.96 1.43-8.51 1.82-17.38 1.28-26.01-1.69-27.09.01-54.17-.4-81.25-.14-9.29-.55-18.57-1.07-27.84-.52-9 .28-17.83 2.33-26.79z" fill="#010105"/></svg>