<svg enable-background="new 0 0 400 400" viewBox="0 0 400 400" xmlns="http://www.w3.org/2000/svg"><path d="m374.8 390.4.4-.4c.7.5 1.3 1 1.8 1.4l-.5.5c-.5-.6-1.1-1.1-1.7-1.5zm1 7.3-.6-.3c.5-1.4 1.1-2.8 1.5-4.3.2.1.4.2.6.3-.5 1.3-1 2.8-1.5 4.3zm-.4-10.3.4-.4c.4.3 1 .8 1.7 1.4l-.5.5c-.4-.5-1-1-1.6-1.5zm2.5.3h1.7v-1h.6v1h3.5v-1h.6v1h1.8v.5h-1.8v1.4h-2v1h3.2v2h-3.2v.9h3.3v.5h-3.4c0 .3-.1.6-.1.9h4v.5h-3.7c.7.9 1.9 1.5 3.8 1.7-.1.2-.2.4-.3.6-2.1-.4-3.5-1.1-4-2.1-.4 1-1.8 1.7-4 2.2-.1-.2-.2-.4-.3-.6 2.1-.4 3.4-1 3.8-1.8h-3.4v-.5h3.6c.1-.3.1-.6.2-.9h-3.3v-.5h3.4c0-.3 0-.6 0-.9h-3.2v-2h3.3v-1h-2.1v-1.4h-1.7v-.5zm1.1 3.5v1h2.7c0-.3 0-.4 0-.4 0-.1 0-.2 0-.2 0-.1 0-.2 0-.3h-2.7zm1.2-3v.9h3.5v-.9zm4.7 3h-2.6v.6.4h2.6z" fill="#fbfcfa"/><path d="m393.6 386.7h.6v1.5h2.7v6.1h1.1v.6h-11v-.6h1.1v-6.1h2.7v-1.5h.6v1.5h2.1v-1.5zm-2.7 8.8.4.6c-1.2.6-2.5 1.3-3.8 1.9-.1-.2-.2-.4-.3-.6 1.2-.6 2.5-1.2 3.7-1.9zm-2.2-6.7v2.4h2.1v-2.4zm0 3v2.5h2.1v-2.5zm2.8-3v2.4h2.1v-2.4zm0 3v2.5h2.1v-2.5zm6 6.1c-1.4-.7-2.7-1.3-3.9-1.8l.3-.6c1.5.6 2.7 1.2 3.9 1.7zm-1.2-9.1h-2.1v2.4h2.1zm-2.1 3v2.5h2.1v-2.5z" fill="#fbfcfa"/><g fill="#010106"><path d="m312.78 372.94c-7.65-.45-15.22-.83-20.53-6.77-9.74-10.91-19.16-22.13-26.46-34.92-2.13-3.72-5.34-3.89-8.57-1.17-3.4 2.85-4.71 6.39-5.53 10.62-.73 3.74-2.14 7.55-4.1 10.81-4.52 7.51-10.18 14.19-17.24 19.5-2.34 1.76-5.15 2.89-8.23 4.57-.1-4.98-.03-8.88 2.41-12.66 8.79-13.63 16.96-27.61 22.7-42.89 3.91-10.4 4.27-20.47-1.17-30.42-1.92-3.51-4.46-6.83-5.6-10.57-3.29-10.79-1.32-21.01 4.78-30.43 2.79-4.31 5.69-8.54 8.73-13.1-8.1-4.69-15.82-9.63-23.97-13.73-6.72-3.38-10.92-8.38-14.6-14.83-4.35-7.62-6.27-14.99-5.04-23.77 1.44-10.28 1.53-20.75 2.48-31.1.29-3.17 1.35-6.31 2.33-9.37 4.08-12.67 8.33-25.29 8.33-38.84 0-.75.18-1.58.51-2.25 8.62-17.39 13.16-36.32 20.39-54.22 3.04-7.51 6.92-14.69 10.5-22.2 6.75 2.72 11.35 6.6 14.04 12.38 3.05 6.58 5.44 13.48 8.68 19.96 5.09 10.18 10.65 20.13 16 30.18.37.69.82 1.39.94 2.14 1.48 9.43 6.4 17.39 11.23 25.25 4.16 6.76 6.67 13.81 6.79 21.7.12 8.55 2.63 16.46 5.86 24.27.73 1.77.95 4.3.25 6-2.1 5.03-.49 9.94-.25 14.89.45 9.03-.34 17.8-3.74 26.33-3.61 9.05-10.35 14.05-19.5 16.16-2.35.54-3.9 1.56-5.24 3.58-.89 1.34-2.53 2.37-4.06 3.06-2.12.96-4.45 1.48-6.68 2.2-4.34 1.39-6.05 5.05-4.4 9.38.12.31.22.67.44.9 5.52 5.72 5.69 12.56 4.62 19.9-.69 4.74.05 9.71-.85 14.38-.86 4.4-2.72 8.69-4.7 12.75-3.29 6.74-3.62 13.13.7 19.52.6.88 1.37 2.19 1.12 3.01-1.04 3.44.83 5.57 2.95 7.64 4.3 4.21 7.64 9.04 9.41 14.82 2.76 8.98 8.41 15.9 15.34 21.94 4.14 3.62 7.06 8.04 8.65 13.32.15.51.15 1.07.28 2.08zm-56.79-189.91c-.04-.01-.08-.01-.12-.02 0-.45-.01-.89 0-1.34.18-5.07-.94-9.49-5.61-12.45-4.93-3.12-9.58-2-14.14.7-.74.44-1.5 1.41-1.63 2.23-1.49 9.27-3.1 18.52-1.11 27.97 1.3 6.16 2.44 7.66 8.65 8.81 2.38.44 4.87.36 7.31.42 2.7.07 3.89-1.27 4.15-4 .71-7.45 1.65-14.88 2.5-22.32zm18.51 28.98c3.51-2.27 6.44-3.7 8.8-5.78 6.07-5.32 9.97-11.95 10.65-20.17.31-3.75.85-7.56.51-11.27-.28-3.07-1.77-6.63-5.13-7.09-4.8-.66-9.75-.17-14.95-.17-1.87 14.65-4.92 28.92.12 44.48zm-20.41-63.25c.57-18.26 1.13-35.89 1.66-53.52.07-2.44-1.23-3.91-3.64-4.59-4.58 5.18-6.7 11.37-7.87 17.91-1.09 6.06.29 12.48-2.72 18.29-.76 1.47-1.09 3.16-1.55 4.77-1.02 3.54-2.08 7.07-2.96 10.65-.9 3.64.79 7.06 3.54 7.04 4.57-.03 9.12-.36 13.54-.55zm23.43-48.46c-.4.19-.81.38-1.21.57-.17.51-.41 1.01-.49 1.54-1.35 9.39-3 18.76-3.9 28.2-.48 5.05.22 10.24.64 15.35.24 2.85 2.04 4.12 5.05 4.13 4.68.02 8.45-1.84 11.65-5.01.6-.6.99-1.75.94-2.62-.59-10.88-2.46-21.56-6.49-31.7-1.47-3.72-4.09-6.99-6.19-10.46z"/><path d="m183.39 345.62c-4.9-1.42-9.63-2.72-14.31-4.19-.98-.31-1.9-1.12-2.61-1.92-9.43-10.64-18.82-21.3-28.18-32-.94-1.07-1.74-2.34-2.34-3.63-2.63-5.68-5.31-11.34-7.66-17.13-1.06-2.62-1.36-5.54-2.08-8.3-.33-1.27-.72-2.55-1.27-3.74-2-4.36-4.12-8.67-6.12-13.04-2.63-5.75-3.42-11.68-2.02-17.95.82-3.7 1.26-7.51 1.57-11.29.12-1.46-.39-3.07-.95-4.48-1.18-2.98-1.6-5.85-.84-9.1 2.77-11.77 2.19-23.78 2.12-35.75-.01-2.54.43-5.09.68-7.64.44-4.41 1.34-8.83 1.26-13.24-.23-12.3-.12-24.69-1.59-36.87-1-8.3-4.17-16.38-6.84-24.41-1.83-5.49-4.61-10.66-6.7-16.08-2.9-7.53-7.07-14.16-12.81-19.85-4.41-4.37-6.39-9.62-5.05-15.88.84-3.89 3.17-4.74 6.78-3.13 6.85 3.06 11.53 8.27 15.38 14.43 8.79 14.09 16.34 28.71 20.45 44.97.81 3.22 3.41 5.96 5.06 8.99.66 1.23 1.27 2.61 1.4 3.98 1.04 10.89 2.23 21.78 2.81 32.7.37 7 .05 14.06-.43 21.07-.39 5.54-1.35 11.06-2.32 16.55-2.22 12.53-1.93 25.07 1.03 37.32 1.83 7.58 2.12 14.84.93 22.45-2.74 17.56 2.12 33.27 11.93 47.82 7.22 10.71 15.73 20.08 26.53 27.19 6.96 4.57 9.9 11 6.19 22.15z"/><path d="m190.3 113.32c.41 9.46-1.34 18.44-5.13 27.11-1.27 2.9-3.45 4.08-6.18 4.35-2.74.27-5.49.31-7.39-2.62-2.62-4.05-3.36-8.39-3.18-13.08.47-12.73 1.02-25.46 1.12-38.19.03-4.2 3.1-5.91 5.17-8.48.32-.39 1.7-.12 2.52.11 7.81 2.17 10.81 8.21 11.85 15.45.73 5.06.83 10.23 1.22 15.35z"/><path d="m185.34 242.27c0 5.93-.13 11.87.06 17.79.08 2.47-.7 4.14-2.87 5.07-2.53 1.08-5.07 2.25-7.72 2.92-2.27.57-3.84-.44-3.97-3.14-.57-12.05-1.59-24.1-1.68-36.15-.06-8.24 1.03-16.5 1.87-24.73.45-4.42 4.83-6.39 8.74-4.27 6.87 3.72 7.89 6.7 6.98 14.42-1.09 9.3-1.37 18.7-2 28.05.2.02.4.03.59.04z"/><path d="m72.88 160.82c1.89-11.22 3.85-22.42 5.64-33.65.5-3.17 2.89-3.96 5.22-4.94 2.14-.9 4.06-2.98 6.73-.93 2.61 2 2.65 4.58 2.46 7.51-.91 14.06-1.68 28.12-2.51 42.19-.12 2.12-.47 4.26-.33 6.36.25 3.57-1.95 5.06-4.77 5.85-2.93.82-5.25-.49-6.86-2.95-3.85-5.86-4.42-12.54-4.75-19.27-.27-.07-.55-.12-.83-.17z"/><path d="m91.51 297.68c-2.71 0-5.4.17-8.04-.09-.91-.09-2.05-1.08-2.52-1.97-3.93-7.37-4.32-15.41-3.96-23.49.39-8.64 1.89-17.11 5.46-25.05.91-2.02 2.54-3.72 3.92-5.68 3.82 2.33 4.98 5.68 5.65 8.99 3.08 15.06 2.77 30.18.26 45.3-.09.62-.46 1.21-.77 1.99z"/></g></svg>