<svg enable-background="new 0 0 400 400" viewBox="0 0 400 400" xmlns="http://www.w3.org/2000/svg"><path d="m374.8 390.4.4-.4c.7.5 1.3 1 1.8 1.4l-.5.5c-.5-.6-1.1-1.1-1.7-1.5zm1 7.3-.6-.3c.5-1.4 1.1-2.8 1.5-4.3.2.1.4.2.6.3-.5 1.3-1 2.8-1.5 4.3zm-.4-10.3.4-.4c.4.3 1 .8 1.7 1.4l-.5.5c-.4-.5-1-1-1.6-1.5zm2.5.3h1.7v-1h.6v1h3.5v-1h.6v1h1.8v.5h-1.8v1.4h-2v1h3.2v2h-3.2v.9h3.3v.5h-3.4c0 .3-.1.6-.1.9h4v.5h-3.7c.7.9 1.9 1.5 3.8 1.7-.1.2-.2.4-.3.6-2.1-.4-3.5-1.1-4-2.1-.4 1-1.8 1.7-4 2.2-.1-.2-.2-.4-.3-.6 2.1-.4 3.4-1 3.8-1.8h-3.4v-.5h3.6c.1-.3.1-.6.2-.9h-3.3v-.5h3.4c0-.3 0-.6 0-.9h-3.2v-2h3.3v-1h-2.1v-1.4h-1.7v-.5zm1.1 3.5v1h2.7c0-.3 0-.4 0-.4 0-.1 0-.2 0-.2 0-.1 0-.2 0-.3h-2.7zm1.2-3v.9h3.5v-.9zm4.7 3h-2.6v.6.4h2.6z" fill="#fbfcfa"/><path d="m393.6 386.7h.6v1.5h2.7v6.1h1.1v.6h-11v-.6h1.1v-6.1h2.7v-1.5h.6v1.5h2.1v-1.5zm-2.7 8.8.4.6c-1.2.6-2.5 1.3-3.8 1.9-.1-.2-.2-.4-.3-.6 1.2-.6 2.5-1.2 3.7-1.9zm-2.2-6.7v2.4h2.1v-2.4zm0 3v2.5h2.1v-2.5zm2.8-3v2.4h2.1v-2.4zm0 3v2.5h2.1v-2.5zm6 6.1c-1.4-.7-2.7-1.3-3.9-1.8l.3-.6c1.5.6 2.7 1.2 3.9 1.7zm-1.2-9.1h-2.1v2.4h2.1zm-2.1 3v2.5h2.1v-2.5z" fill="#fbfcfa"/><g fill="#010106"><path d="m330.28 40.64c2.86 4.28 3.7 8.85 3.77 13.32.14 10.05.18 20.14-.63 30.14-.44 5.45-3.49 10.69-3.97 16.15-1.1 12.33-1.41 24.73-1.84 37.11-.04 1.28 1.01 2.93 2.05 3.85 10.33 9.09 20.62 18.24 31.23 27.01 5.11 4.22 6.35 9.41 5.04 15.24-2.28 10.13-4.83 20.21-7.75 30.17-2.79 9.54-4.29 19.17-3.99 29.1.21 7.05-1.27 13.77-4.23 20.17-.33.71-.52 1.64-1.08 2.05-5.71 4.19-10.2 10.07-17.46 12.12-6.12 1.73-12.19 3.69-18.18 5.84-3.45 1.24-6.82 2.82-9.98 4.66-3.75 2.17-6.19 5.33-7.64 9.71-4.76 14.43-7.1 29.27-8.92 44.28-1.81 14.97-10.76 25.05-23.89 33.08.2-4.41.29-8.22.56-12.02 1.12-15.82 4.9-31.07 9.53-46.19 2.35-7.67 3.59-15.67 5.71-23.42 1.29-4.71 3.15-9.28 4.99-13.81 1.34-3.3 3.7-5.64 7.17-7.04 6.42-2.58 12.72-5.46 19.06-8.26 10.39-4.6 18.15-11.59 21.4-22.94 5.82-20.32 8.25-40.92 5.78-62.01-.61-5.21-2.49-9.39-7.03-12.62-6.19-4.4-11.88-9.49-17.84-14.22-7.99-6.34-11.76-14.45-10.46-24.68.15-1.16.55-2.47 1.28-3.35 6.06-7.29 8.52-15.84 9.05-25.1.44-7.71.74-15.43 1.37-23.12.2-2.46.89-5.04 2-7.24 4.33-8.58 8.91-17.03 13.41-25.52.38-.73.87-1.44 1.49-2.46z"/><path d="m90.12 374.29c-3.23-8.97-6.48-17.98-9.72-26.99-1.17-3.26-2.08-6.64-3.53-9.77-4.06-8.72-5.06-17.94-5.19-27.4-.35-24.53-3.08-48.88-5.84-73.22-.23-2.06-.21-4.28.27-6.28 7.45-31.53 15.15-63.01 22.44-94.57 2.5-10.81 1.68-21.84-.38-32.67-2.49-13.06-5.13-26.1-8.17-39.04-1.16-4.93-3.74-9.51-5.44-14.34-1.39-3.94-3-7.94-3.46-12.03-.51-4.59 5.05-8.32 9.15-6.1 4.03 2.19 8.36 4.84 10.99 8.43 11 15 18.71 31.46 19.36 50.52.08 2.46.23 4.92.38 7.37.46 7.48.87 14.93-.94 22.35-.65 2.67-1.02 5.61-.62 8.3 1.9 12.73-.47 25.03-3.99 37.06-5.14 17.57-10.56 35.09-16.66 52.34-2.56 7.25-3.15 14.1-2.21 21.56 3.28 26.07 6.21 52.19 9.31 78.28 1.11 9.33 2.73 18.62 3.28 27.98.33 5.59-.95 11.27-1.54 16.91-.18 1.67-.48 3.32-.76 4.97-.87 5.07-1.07 5.25-6.73 6.34z"/><path d="m218 25.12c8.19 3.8 11.16 8.77 10.2 17.2-.46 3.98-.88 8.08-2.16 11.84-2.06 6.08-1.65 12.3-2.28 18.49-1.62 16.08-2.19 32.42-7.81 47.81-2.05 5.63-5.2 10.86-8 16.2-.58 1.11-1.66 2.15-2.77 2.77-4.09 2.28-8.09 4.94-12.47 6.44-15.11 5.17-22.09 16.17-24.49 31.35-2.57 16.24-2.29 32.55-2.54 48.87-.12 7.61.09 15.22-.01 22.82-.03 2.24.64 3.84 2.48 5.07 5.66 3.79 11.39 7.47 16.89 11.48 3.22 2.35 6.17 5.1 8.95 7.96.92.95 1.37 2.83 1.28 4.23-1.76 26.23-3.64 52.45-5.51 78.66-.2 2.84-3.27 5.57-6.75 5.87-2.1.18-4.29.28-6.32-.15-1.28-.27-2.88-1.32-3.42-2.46-2.83-5.95-4.09-12.37-3.7-18.9.5-8.47 1.78-16.89 2.29-25.35.6-10.03 1.03-20.09.97-30.13-.04-6.45-4.12-10.17-10.64-9.92-9.13.35-17.47-6.42-17.89-17.39-.22-5.76.89-11.57 1.2-17.36.73-13.73 1.06-27.49 2.07-41.2 1.52-20.62 4.98-40.84 14.62-59.48.8-1.54 2.23-3.07 3.76-3.88 8.58-4.56 17.23-9.02 25.98-13.25 3.13-1.51 5.12-3.76 6.69-6.68 5.83-10.85 8.18-22.66 9.33-34.73 1.75-18.38 3.68-36.71 9.38-54.4.16-.51.37-1.01.67-1.78z"/><path d="m202.56 172.58c3.07 6.21 6.15 12.04 8.85 18.05 2.69 5.98 7.3 8.28 13.57 8.47 11.17.33 22.34.7 33.49 1.38 10.27.63 20.51 1.69 30.76 2.53.98.08 1.98.01 3.26.01 3.09-10.69 6.18-21.39 9.33-32.29 4.69.62 8.34 3.03 10.19 6.9 2.23 4.65 4.32 9.7 4.91 14.75 1.74 14.86 1.41 29.7-3.49 44.11-2.11 6.21-7.31 9.48-12.44 12.55-1.92 1.15-4.84.61-7.46.85-.88-9.99-1.69-19.21-2.5-28.48-25.15-3.68-50.6-3.48-75.46-9.52-3.36 4.95-4.75 10.64-5.58 16.53-.37 2.65-.51 5.43-1.48 7.87-.77 1.93-2.35 3.86-4.09 5-3.44 2.27-5.09 1.67-7.38-1.77-2.17-3.26-4.1-6.71-6.58-9.72-2.8-3.4-3.27-6.88-2.6-11.13 2.13-13.36 4.04-26.76 5.75-40.18.36-2.87 1.35-4.18 4.1-4.56 1.53-.2 3-.81 4.85-1.35z"/><path d="m49.62 79.32c13.53 5.08 20.32 15.69 19.24 29.73-.9 11.62-3.17 22.95-7.27 33.93-1.54 4.13-5.08 3.46-7.94 4.13-.89.21-2.71-1.82-3.48-3.17-3.59-6.33-4.9-13.36-5.73-20.49-1.36-11.73-1.45-23.42 1.73-34.9.86-3.08 2.24-6.02 3.45-9.23z"/><path d="m118.18 301.55c-2.56-8.82-5.32-17.41-7.41-26.15-.63-2.62.41-5.75 1.09-8.55 1.7-6.92 3.63-13.78 5.49-20.74 5.81.85 9.67 3.9 12.35 8.39 3.91 6.55 6.55 13.72 5.64 21.35-.58 4.86-3.29 9.42-4.42 14.26-1.55 6.62-6.6 8.96-12.74 11.44z"/><path d="m262.81 100.39c-4.53-7.63-5.93-15.78-5.97-24.25-.04-8.64 2.03-16.76 6.17-24.37.83-1.53 1.54-2 3.35-1.56 6.78 1.65 10.96 6 12.61 12.51 2.36 9.32 2.69 18.78-.1 28.1-.44 1.46-1.85 3.01-3.23 3.72-4.14 2.15-8.47 3.9-12.83 5.85z"/><path d="m134.82 66.33c8.19.99 13.51 5 15.76 12.29 2.88 9.33 3.41 18.86.33 28.32-.31.97-.98 2.1-1.81 2.58-4.53 2.61-9.17 5.05-14.13 7.74-7.9-17.05-5.35-33.78-.15-50.93z"/><path d="m36.06 247.15c5.18 1.09 8.55 3.86 10.15 8.15 4.67 12.56 6.16 25.32 1.16 38.21-.81 2.08-1.9 4.06-2.57 6.18-1.03 3.25-2.97 5.39-6.72 6.19-3.95-5.94-7.7-12.17-8.14-19.65-.79-13.36 3.03-26.04 6.12-39.08z"/><path d="m244.77 323.37c-.84 6.64-1.72 13.27-2.48 19.92-.29 2.54-1.58 3.54-4.01 3.09-2.93-.54-6.31 1.46-8.8-1.58-4.11-5.03-6.87-10.66-5.8-17.26 1.14-7.04 2.5-14.11 4.62-20.9.77-2.45 3.73-4.74 6.25-5.89 1.14-.52 3.99 1.57 5.44 3.08 3.25 3.41 3.85 7.96 4.21 12.45.19 2.33.03 4.69.03 7.04.18 0 .36.02.54.05z"/><path d="m254.06 253.15c-.76 4.73-1.22 10.1-2.63 15.22-.67 2.43-2.82 4.76-4.87 6.42-2.85 2.31-6.84 1.27-8.97-1.74-3.76-5.32-4.46-11.4-3.87-17.6.61-6.33 1.37-12.68 2.74-18.87.55-2.47 2.82-4.61 4.51-6.74.32-.4 1.66-.23 2.43.01 4.96 1.55 7.77 5.26 8.86 10.06.93 4.1 1.17 8.37 1.8 13.24z"/><path d="m255.86 178.39c-3.35-3.76-4.82-8.07-5.52-12.61-1.42-9.17-.92-18.3 1.31-27.3 1.27-5.14 6.59-6.89 10.68-3.65 3.88 3.07 6.59 7.15 6.58 11.98-.02 7.32-.93 14.64-1.6 21.95-.25 2.73-1.81 4.59-4.43 5.73-2.34 1.03-4.5 2.48-7.02 3.9z"/></g></svg>