<svg enable-background="new 0 0 400 400" viewBox="0 0 400 400" xmlns="http://www.w3.org/2000/svg"><path d="m12.4 4.8-6.1 9h6v1.2h-8v-.5l6.1-8.9h-5.7v-1.2h7.6v.4z" fill="#fafafb"/><path d="m14 15v-10.6h3c1.6 0 2.9.5 4 1.4s1.6 2.2 1.6 3.8-.5 3-1.6 3.9-2.4 1.5-4 1.5zm1.4-9.4v8.2h1.6c1.3 0 2.4-.4 3.1-1.1s1.1-1.8 1.1-3.1-.4-2.3-1.2-3-1.8-1-3.1-1z" fill="#fafafb"/><path d="m26.1 4.4v10.6h-1.4v-10.6z" fill="#fafafb"/><path d="m36.1 14.6c-.8.4-1.8.6-2.9.6-1.5 0-2.7-.5-3.6-1.4s-1.4-2.2-1.4-3.8c0-1.7.5-3.1 1.5-4.1s2.3-1.6 3.9-1.6c1 0 1.8.1 2.5.4v1.4c-.8-.4-1.6-.6-2.5-.6-1.2 0-2.1.4-2.9 1.2s-1.1 1.8-1.1 3.2c0 1.3.3 2.3 1 3s1.6 1.1 2.7 1.1c1 0 2-.2 2.7-.7v1.3z" fill="#fafafb"/><path d="m37.6 14.3c0-.2.1-.5.3-.6s.4-.3.6-.3c.3 0 .5.1.6.3s.3.4.3.6-.1.4-.3.6-.4.3-.6.3c-.3 0-.5-.1-.6-.3s-.3-.4-.3-.6z" fill="#fafafb"/><path d="m50.2 15h-1.6l-5.3-8.2c-.2-.2-.3-.5-.4-.7 0 .2.1.7.1 1.5v7.4h-1.4v-10.6h1.7l5.2 8.1c.2.4.4.6.4.7 0-.3-.1-.8-.1-1.5v-7.3h1.4z" fill="#fafafb"/><path d="m58.6 15h-5.7v-10.6h5.5v1.2h-4.1v3.4h3.8v1.2h-3.8v3.6h4.3z" fill="#fafafb"/><path d="m67.1 5.6h-3.1v9.4h-1.4v-9.4h-3v-1.2h7.5z" fill="#fafafb"/><g fill="#010105"><path d="m228.92 302.49c2.28 1.07 4.57 2.14 7.04 3.3-2.67 4.22-5.1 8.07-7.78 12.3 2.7 1.05 5.08 2.23 7.6 2.91 4.87 1.31 6.67.26 8.02-4.63.8-2.9 1.43-5.89 1.71-8.87.21-2.25 1.14-3.62 2.94-4.86 1.29-.89 2.16-2.39 3.61-4.09 3.13.16 5.98 5.66 10.95 2.02v10.32c.19.06.38.12.58.18.87-1.72 1.73-3.44 2.7-5.37 2.12.8 4.16 1.58 6.37 2.41-.2 2.04-.38 4.02-.57 6.01.14.08.28.16.42.24 1.69-2.9 3.31-5.84 5.11-8.68.51-.8 1.72-1.93 2.27-1.76.91.27 1.58 1.44 2.28 2.29.45.55.78 1.19 1.17 1.79.59-.48 1.19-.96 1.87-1.51.26.31.66.78 1.71 2.02-.68-4.23-3.71-5.8-5.58-8.53 1.09.2 1.94.36 3.08.58.36-2.9.7-5.74 1.05-8.55 3.75.59 4.02-3.66 6.71-4.83.45.68.92 1.39 1.53 2.33 1.36-1.59 2.51-3.22 3.94-4.54 2.08-1.92 1.09-3.89.37-5.85-.68-1.85-1.57-3.63-2.36-5.43 1.07-.41 2.19-.84 3.31-1.27 2.91 9.1 2.47 11.97-2.66 15.72 2.4 1.15 4.64 2.23 6.25 3 .74 20.08 1.47 40.05 2.22 60.26-5.04.97-10.69.86-13.57 5.93-1.21 2.14-1.15 5.01-1.72 7.77 2.32.49 3.92.83 5.73 1.22.22-1.14.41-2.09.59-3.01 6.27-1.25 6.92-1.89 5.57-5.41 3.79 1.34 3.93 5.33.17 9.39.95.86 1.89 1.72 3.06 2.79-6.86 4.37-14.43 4.84-22.41 5.4 0-2.28 0-4.44 0-6.91-4.21-.39-8.05-.75-12.29-1.14v5.37c-.26.14-.52.27-.78.41-.35-.81-.69-1.62-1.05-2.46-9.28 8.77-19.75 4.11-29.5 4.89-.13-.28-.27-.56-.4-.84 2.51-2.12 4.97-4.32 7.55-6.35 2.74-2.16 3.87-5.2 2.96-8.14 1.18.66 2.56 2.09 3.49 1.84 2.37-.63 4.93-1.59 6.69-3.2 2.62-2.38 4.62-5.45 6.9-8.21.69-.84 1.45-1.63 2.61-2.91-.19 2.2-.33 3.77-.52 6.08 1.86-2.21 3.28-3.9 5.08-6.04 2.14 5.06 5.06 3.1 8.7 1.66-5.46-1.44-10.23-2.69-15-3.95-.01-.28-.02-.56-.03-.84 5.77.4 11.29.14 14.52-4.22 0-2.91 0-5.06 0-7.21 2.89 3.28 6.52 3.23 10 3.04 1.36-.08 3.3-1.04 3.79-2.13.41-.9-.92-2.59-1.68-4.43 4.32-2.41 6.44-6.41 3.43-12.37-.42 1.65-.78 3.05-1.21 4.74-1.62-.27-3.12-.51-5.02-.83.92-1.22 1.61-2.14 2.3-3.05-3.04 2.31-4-1.06-6.16-2.32-.66 1.65-1.28 3.21-2.05 5.14 1.2-.12 2.02-.21 3.88-.4-1.82 1.57-2.93 2.53-4.04 3.48-.37-.2-.73-.4-1.1-.59.48-2.64.8-5.33 1.5-7.91.47-1.72 1.86-2.15 3.44-1.11 1.88 1.23 3.74 2.09 5.78.26 2.22-1.99 1.49-4.17.45-6.7-2.5 1.36-4.91 2.68-7.53 4.1-.43-.73-.86-1.44-1.4-2.35-4.89 2.43-9.72 4.9-9.63 11.61 2.43.41 4.56.77 6.69 1.13-.03.42-.06.84-.09 1.26-2.9.29-5.8.57-8.69.86-1.3-1.82-.14-5.54-3.93-4.84-2.52.46-4.84 1.38-4.36 4.66-6.72 2.2-7.49 3.32-7.23 11.51-1.2-2.42-1.99-4.01-2.95-5.96-.4 1.14-.68 1.92-.95 2.71-1.11 3.31-3.39 4.76-6.9 4.59-2.79-.13-5.6-.1-8.38.1-1.29.09-2.54.75-4.24 1.28.88.43 1.37.67 1.97.96-.47.75-.94 1.49-1.37 2.18.6 1.33 18.64.78 19.8-.05 1.93 1.27 3.6 2.37 5.48 3.61-5.26 2.87-10.79 5.89-16.8 9.16 1.42.36 2.31.58 3.59.9-7.53 5.65-15.4 5.28-23.14 2.98 8.53-4.02 8.53-4.02 15.62-2.68 1.56-3.45-1.76-4.26-3.43-6.14.86-.44 1.62-.84 2.37-1.22-.15-1.57-4.09-1.07-5.41.64-.13.17-.28.34-.55.66-3.32-5.98-8.02-1.69-12.52-1.85-1.47-4.9-2.98-9.96-4.58-15.28-1.32 1.14-2.39 2.06-3.58 3.09-2.21-2.96-4.33-5.79-6.54-8.74-1.2 1.08-2.19 1.96-3.52 3.16-1.55-4.86-3.01-9.43-4.56-14.28-1.3 1.18-2.36 2.13-3.41 3.08-.21-.08-.43-.16-.64-.25.57-1.8 1.14-3.6 1.71-5.4.4.05.81.11 1.21.16-1.78-4.42-3.55-8.84-5.53-13.75 2.45-.48 4.69-1 6.95-1.33 1.76-.26 3.63-.04 5.33-.49 1.24-.33 2.28-1.4 3.41-2.14-.86-.93-1.71-1.86-2.01-2.18.71-4.28 1.41-8.46 2.07-12.65.29-1.81-.5-2.65-2.39-2.72-1.77-.06-3.54-.41-6.2-.74-1.49 4.86-3 9.77-4.57 14.87-1.06-1.03-2.45-3.48-4.17-3.73-1.61-.24-3.55 1.84-5.35 2.9.13.28.26.56.39.85-.43-.3-.86-.6-1.62-1.12-.31 4.06-.59 7.72-.88 11.6h3.71c-1.54 7.44-2.42 14.83 4.51 20.65-6.92 5.66-8.21 13.56-9.85 21.33-.58 2.73-1.23 5.46-2.08 8.12-.7 2.2-1.1 4.01 1.26 4.14-.42 3.06-.5 5.98-1.34 8.66-.38 1.21-2.26 1.94-3.02 2.54-.96-1.31-1.56-2.12-2.16-2.94-.24.15-.47.29-.71.44v2.38c-1.1 0-2.15 0-3.4 0 .55-1.8 1.03-3.38 1.62-5.34-4.65.28-9.72-3.52-12.94 2.93-1.47-5.47-1.22-6.11 3.88-9.95.1 1.05.19 1.98.29 2.94 1.47.32 2.76.61 4.34.96.6-1.94 1.15-3.71 1.65-5.33-2.13-1-4.04-1.89-6.03-2.82-.06.87-.12 1.85-.22 3.31-1.63-1.84-3.03-3.41-4.62-5.2h10.06c-1.9-1.72-3.08-2.79-4.49-4.07.9-.29 1.66-.53 2.74-.88-.63-.76-1.21-1.45-1.88-2.26 1.89-1.66 3.72-3.27 5.54-4.87-3.34-3.15-3.9-7.07-3.62-11.27.03-.52-.31-1.08-.24-1.58.14-.94.22-2.41.76-2.63.77-.33 1.93.26 3.15.51-2.07-5.78-1.98-11.55 3.12-16.85-2.98-.81-5.27-1.43-7.94-2.15-.68 2.35-1.32 4.56-2.12 7.31-.85-3.37-1.19-6.66-5.41-6.5-2.99.11-5.99.02-9.05.02 0-1.63 0-3.01 0-4.96 1.09 1 1.78 1.64 2.49 2.29 1.81-3.05.14-4.86-6.31-6.91-1.25 6.7-2.49 13.38-3.62 19.45-3.35.8-4.14 3.75-6.32 5.71 1.13.52 1.98.91 2.81 1.29-.07.33-.06.57-.17.7-2.18 2.46-2.67 5.17-1.9 8.41 1.11 4.67-.01 6.32-4.31 6.87-.35 1.94-.71 3.99-1.12 6.26-.99-.15-1.95-.29-2.92-.44-1.01 1.23.78 7.06 2.57 8.04-6.33 2.49-6.97 9.19-10.19 12.98 2.28 2.47 4.19 4.54 6.26 6.79.3-.72.57-1.99 1.28-2.94.99-1.32 2.12-3 3.53-3.45 3.03-.95 4.55-2.42 3.95-5.69-.14-.75.04-1.55.08-2.33.27.18.54.35.81.53 1.18-1.46 3.07-2.79 3.37-4.41.44-2.37.01-5.13-4.23-5.22 1.43-.94 2.23-1.46 3.43-2.25.12 4.44 3.97 3.92 6.56 5.12-1.19 1.31-2.13 2.35-3.57 3.94 1.28.98 2.38 1.83 3.48 2.68l.07-.07c-2.77.29-5.54.59-8.31.88-.02.31-.04.61-.05.92 2.33 1.67 4.67 3.34 7 5l-.08-.05c-.56 1.65-1.22 1.44-2.27.29-1.08-1.17-2.41-2.11-3.94-3.42-1.2 3.43-2.19 6.25-3.28 9.36 2.72 1.56 5.37 3.08 8.73 5.01-3.68.26-6.6.46-9.7.68-.83-2.54-1.63-4.95-2.55-7.76-.81.95-1.56 1.6-2.04 2.42-1.35 2.31-3.37 2.93-5.87 3.87-5.24 1.98-10.1.11-15.09.19-3.44.06-2.41-3.44-3.9-5.3 1.02-.58 1.84-1.04 2.83-1.6-2.93-1.88-3.43-4.56-2.8-7.63.04-.22.08-.44.11-.66.83-6.85-.37-8.71-8.56-12.87 4.47-.75 4.96-3.86 4.76-7.22-.04-.75-.92-1.44-1.63-2.47.97-2.39.47-3.42-3.08-4.39 4.2-3.62 5.18-8.19 5.24-13.34.06-4.87-2.45-8.34-4.66-11.41 1.41-1.24 3.47-2.2 3.96-3.69.66-2.01.76-4.71-.1-6.55-.77-1.65-3.17-2.54-5.02-3.9 1.26-1.32 2.49-2.6 3.93-4.11-.88-.54-1.64-1-2.65-1.62.89-1 1.73-1.96 2.76-3.12-.95-.77-1.85-1.49-3.02-2.44.47-1.14 1.09-2.3 1.44-3.55.72-2.55 1.28-4.71-1.16-7.25-1.75-1.82-2.43-5.28-2.46-8.01-.12-10.05.61-20.12.32-30.16-.57-20.02-1.6-40.03-2.45-60.04-.09-2.06-.61-4.31 1.67-4.28.43-4.56.85-8.69 1.19-12.83.15-1.89.29-3.8.2-5.68-.84-16.41-1.74-32.81-2.61-49.22-.15-2.91-.21-5.82-.37-8.72-.14-2.55.09-4.78 1.43-7.26 1.2-2.23.73-5.39.84-8.15.14-3.34.01-6.69.19-10.02.08-1.54.04-2.61-.92-4.14-1.12-1.76-.93-4.49-.92-6.79.01-1.92.59-3.84.91-5.76.36.02.71.03 1.07.05-.75-.64-1.51-1.27-2.82-2.38 1.16-.6 2.16-1.12 3.19-1.66-4.53-4.09-3.92-5.47 2.93-9.61-1.98-3.35-3.94-6.69-6.01-10.21 9.5-1.25 17.95-.01 23.35 3.47 2.89-4.44 7.45-3.42 11.72-3.08.98.08 1.85 1.5 2.78 2.3-5.14-.52-10.64-2.2-13.46 4.58-1.25-.94-2.09-1.56-3.11-2.32-.1 1.52-.18 2.93-.29 4.53 1-.14 1.68-.24 2.82-.4-.96 1.31-1.64 2.26-2.56 3.52-2.63-3.62-5.05-6.94-7.47-10.26.6 4.17-2.68 5.31-4.79 7.14-2.17 1.89-4.43 3.67-7.44 6.15 3.97.95 7.09 1.69 10.6 2.53-1.38 1.56-2.26 2.55-3.11 3.51.88 1.31 1.67 2.49 2.47 3.67-.14 2.21-.29 4.41-.44 6.77.33.28 1.09.93 1.85 1.58 0 0 .14-.09.14-.09-2.63.53-5.25 1.06-7.39 1.49.53 2.96 1.71 5.56 1.21 7.78-.51 2.3.06 3.58 1.42 4.97 1 1.02 2.04 2.01 3.07 3.01-1.78.89-3.57 1.78-5.36 2.67 1.45 2.53 3.66 1.99 5.54 1.13.41-.19-.14-2.48-.25-3.8 1.73.2 3.45.41 5.57.66-.55 2.18-.45 4.84-1.73 6.06-1.29 1.23-3.94 1.03-6.41 1.55 1.16.74 2.06 1.31 3.14 2-1.83 1.23-3.35 2.24-5.15 3.45 2.09 1.68 3.78 3.05 5.42 4.38 1.67-1.18 3.02-2.12 4.48-3.15.84 1.04 1.56 1.94 2.43 3.02 1.48-1.81 2.8-3.42 4.07-4.98-1.93-1.33-3.63-2.5-5.38-3.71-1.54 1.83-2.88 3.41-4.21 4.99-.34-.27-.67-.54-1.01-.81 1.51-3.88 6.02-5.44 8.31-8.84-1.22-.42-2.25-.77-3.7-1.26 1.81-.86 3.24-1.54 4.94-2.35-.71 3.48 1.48 6.96 4.48 7.8 2.92.82 4.24.11 5.46-3.03-.99.34-1.92.65-2.85.97-.48-.96-.91-1.82-1.38-2.76-.75.89-1.37 1.64-2.3 2.74-.33-1.31-.56-2.2-.79-3.09.29.22.57.45.86.67 3.14-2.26 6.23-4.6 9.44-6.75.99-.66 2.41-1.34 3.46-1.13 2.21.44 4.31 1.47 7.27 2.55-3.99 1.92-7.24 3.32-10.31 5.04-1.02.57-1.58 1.96-2.35 2.97.3.27.6.54.9.8 4.71-2.92 9.42-5.84 15-9.3-1.83-1.6-3.16-3.05-4.76-4.07-1.38-.87-3.07-1.25-5.46-2.16-.98.7-2.91 2.08-5.01 3.58-2.87-1.99-3.08-7.53-8.36-7.48.55-.91.93-1.54 1.3-2.17 7.88-1.55 15.77-2.96 24.5-1.84-1.52.95-2.41 1.51-4.21 2.63 3.12 1.76 5.63 3.17 8.39 4.72-.93 3.35 3.38 2.83 4.3 4.38-.57 2.43-1.03 4.39-1.5 6.35l.07-.07c-1.2-2.34-2.39-4.68-3.44-6.73-1.01 1.58-2.16 3.37-3.4 5.31 7.08 1.76 5.08 9.18 7.99 14.19.1-1.3.18-2.24.25-3.17 5.28.27 6.38 4.32 7.6 8.27 1.2-.41 2.12-.72 3.04-1.03-2.05-4.93-2.05-5.09-.04-7.01 2.9-2.8 2.78-6.52-.34-9.19-2.98-2.54-5.99-5.03-8.99-7.54-4.12-3.44-4.14-3.62-.61-8.11-2.25-1.52-4.47-3.02-6.83-4.62.87-2.26 2.58-1.16 4.02-.07 2.07 1.56 3.96 2.45 5.77-.38 1.24 2.87 1.24 2.87-2.09 10.91 8.14 2.23 8.06 2.27 12.01 10.05 1.05 2.06 2.69 3.81 4.06 5.71-1.43.96-2.86 1.91-4.6 3.06 1.62.71 3.28 1.43 5.11 2.23-.26.58-.52 1.15-.6 1.35-1.76-.72-3.35-1.38-4.97-2.04-3.25 4.78 2.03 6.88 2.66 10.28-.96.75-1.89 1.48-2.83 2.21.89 1.07 1.64 1.97 2.76 3.33-1.36-.33-2.14-.51-2.86-.68-1.68 3.16-.31 4.66 2.49 5.25 2.65.56 2.8 2.05 2.48 4.43-.45 3.38-3.5 2.22-5.47 3.53 1.93 1.11 3.63 2.09 5.66 3.26-2.6 1.11-4.91 2.09-8.07 3.44 4.04.46 7.17.81 10.3 1.16-1.54 6.94-1.54 6.94.97 7.27 1.57-3.62 3.11-7.17 4.74-10.93-2.62-1.35-5.36-2.77-8.5-4.39 1.29-.47 2.08-.9 2.92-1.03 2.7-.41 3.59-1.66 3.23-4.54-.48-3.86-.26-7.81-.38-11.71-.18-5.64-.61-11.2-5.1-15.42.27-3.42.06-6.96 3.02-9.61.47-.42.34-1.69.23-2.53-.28-2.1-.97-4.17-1.04-6.27-.17-5.34-4.57-7.64-7.52-11.99-.5 3.42-.85 5.83-1.3 8.89-1.88-2.52-3.47-4.27-4.62-6.28-1.27-2.22-2.95-2.59-5.29-2.31-5.77.69-11.56 1.21-17.34 1.75-5.4.5-10.8.95-16.36 1.44-.1-2.18-.18-3.96-.3-6.67-2.3 3.48-4.5 2.95-6.97 1.91-2.66-1.12-5.46-1.89-8.19-2.83.81-5.33 4.05-8.76 8.6-11.32 1.84 1.4 3.6 2.73 5.44 4.13 1.63-2.25 3.09-4.28 4.62-6.39 2.59 1.94 4.95 3.48 7.03 5.33 3.21 2.84 6.75 3.37 10.91 2.82 2.21-.29 4.59.73 7.19 1.21 1.08-2.09 1.32-2.47 4.44-1.36 4.23 1.5 8.26 3.58 12.65 5.52 1.26-3.38 4.88-3.48 8.22-3.66 1.55-5.94 1.05-7.3-4.42-10.92 2.92-2.5 5.71-4.89 8.49-7.27-.17-.23-.35-.47-.52-.7-4.08 1.92-9.67.39-12.14 5.89.59-.46 1.17-.93 2.07-1.64v6.33c-5.59 1.88-7.88.82-8.82-4.21-1.12 1.05-2.14 2.01-3.5 3.27 1.24.32 1.92.5 2.95.76-.99 1.18-1.8 2.14-2.37 2.81-1.3-.91-2.32-1.61-3.57-2.49.8-.43 1.4-.76 2.93-1.6-1.63-.24-2.87-.68-3.06-.41-2.34 3.42-4.59 1.22-6.88.02-1.15-.6-2.32-1.16-3.54-1.77-.76.98-1.37 1.76-1.51 1.94.35 1.82.59 3.07.65 3.37-2.99.58-5.09.99-7.48 1.45-.47-1.04-1.1-2.39-1.71-3.73 1.8-1.27 3.25-2.31 5.07-3.6-3.22-2.07.02-3.16.65-4.47-2.15-.72-4.13-1.39-6.12-2.06.32-.07.74-.04.94-.24 2.88-2.79 3.26-2.74 5.23.86 1.05-.83 2.08-1.66 3.21-2.55.71.88 1.33 1.65 2.07 2.55 4.97-4.64 11.03-3.13 16.8-2.64 1.29.11 2.41 2.26 3.87 3.73.85-.93 1.92-2.12 3.17-3.5.73.83 1.43 1.62 2.26 2.56 1.06-.87 2.05-1.69 3.17-2.6.49.74.89 1.32 1.3 1.93 3.5-3.31 7.09-3.09 9.14.63 1.28-.85 2.55-1.69 4.28-2.84.6.95 1.25 1.97 2.01 3.18.96-1.21 1.56-1.97 2.5-3.15.67 1.14 1.27 2.17 1.95 3.34 1.46-1.35 2.34-2.16 3.46-3.2.86 1.39 1.65 2.67 2.6 4.19 1.14-.75 2.23-1.48 3.32-2.19 1.02-.67 2.05-1.33 3.18-2.07 1.2.94 2.32 1.83 3.54 2.79.64-.8 1.27-1.57 2-2.49.47.83.88 1.57 1.37 2.44 1.33-.85 2.63-1.67 4.11-2.6.45.77.87 1.49 1.73 2.97.51-1.16.92-2.1 1.51-3.43.89 1.55 1.29 2.26 1.74 3.05 1.45-.88 2.72-1.64 3.99-2.41.2.21.41.42.61.63-.92 1.06-1.85 2.11-2.94 3.36 1.37.87 2.6 1.58 3.95-.35.95-1.35 2.11-2.56 3.27-3.94.78 1.02 1.39 1.81 2.19 2.85 2.49-.91 5.07-1.85 7.86-2.87.73 1.31 1.42 2.54 2.23 3.99.85-1.32 1.62-2.51 2.51-3.88 1.05.93 2.02 1.79 3.1 2.74 1.03-.85 1.97-1.62 3.12-2.56.43.52.87 1.05 1.07 1.28 1.2-.45 2.39-.9 3.58-1.35.11.24.21.48.32.73-.75.98-1.51 1.95-2.26 2.93.15.37.29.73.44 1.1 1.21-.32 2.69-.31 3.6-1.02 6.94-5.44 14.98-4.62 22.85-3.81 2.29.24 4.37 2.55 6.79 4.07.97-1.26 1.97-2.56 3.31-4.31.69 1.13 1.3 2.15 1.98 3.26 1.52-1.26 2.52-2.09 3.75-3.12 1.01 1.59 1.94 3.04 3.01 4.72.46-1.22.85-2.22 1.38-3.63.47 5.25 4.68 1.67 6.77 3.52v123.43c-1.93.8-3.68 1.52-5.79 2.39 8.92 8.8 7.39 18.6 6.14 27.81-2.47.69-4.23 1.18-6.39 1.78-.4-.34-1.32-1.13-2.83-2.41.7 2.91 1.52 5 1.23 7.51-.31 2.72 3.39 3.84 5.63 2 .49-.4.96-.82 1.95-1.65-.44 2.13-.74 3.61-1.11 5.4-2.25-.49-4.3-.93-6.35-1.39-2.54-.57-5.18-1.77-6.71 1.83-.23.55-1.81.42-2.64.85-1.04.54-2.23 1.15-2.81 2.08-.25.4 1.1 1.6 1.33 2.53.89 3.5 3.72 4.28 6.62 5.02 2.68-5.47 6.55-6.06 10.84-1.44.81.88.84 2.6.97 3.96.16 1.65.04 3.32.04 5.16-1.86 0-3.47 0-5.37 0 .94-2.46 1.82-4.73 2.77-7.22-.85-.35-1.63-.67-2.64-1.09-.22 1.19-.39 2.12-.64 3.5-1.45-1.14-2.7-2.13-4.3-3.4-1.5 4.63-2.94 9.03-4.51 13.87-1.24-1.04-2.2-1.85-3.45-2.9 2.02-1.7 3.87-3.26 6.18-5.2-2.52-1.58-4.15-2.6-6.06-3.79-.44 5.53-4.49 7.07-8.85 8.82-.98-1.81-1.97-3.64-2.8-5.17-1.79.94-3.62 1.71-5.23 2.81-1.6 1.1-2.97 2.53-4.65 3.99 4.51 2.93 11.4.83 12.58 7 2.75-.87 5.43-1.86 8.2-2.38.27-.05 1.08 2.74 1.75 4.47-4.82-.79-6.82 1.75-5.33 5.98.47 1.34 1.14 2.62 1.86 4.24.58-1.1.98-1.86 1.45-2.75 1.23.33 2.4.62 3.56.96 2.62.78 4.95 1.38 5.92-2.43.26-1.02 2.21-1.98 3.54-2.26 1.81-.39 3.76-.1 6.02-.1-.26 1.49-.47 2.64-.74 4.2-2.47-.87-4.72-1.67-6.59-2.33-2.74 1.56 1.03 8.44-6.44 6.44 1.5 2.22 3 4.43 4.63 6.85-3.31.77-3.74-1.26-4.26-3.25-1.3-4.92-1.3-4.76-6.44-4.29-3.29.3-6.37.45-6.69 4.76 2.45 1.52 2.45 1.52 4.89-1.4.52.41 1.29 1.29 1.55 1.17 3.33-1.68 2.94.7 2.97 2.63.03 1.68.04 3.36.09 5.03.01.18.2.36.43.77.7-.67 1.36-1.29 2.08-1.98 1.11 1.02 2.08 1.91 3.33 3.05 1.21-1.94 2.3-3.7 3.42-5.5.72 2.01.89 4.56 2.22 5.55 1.04.78 3.52-.39 5.11-.64v34.51c-.21.01-.42.02-.63.04-.94-5.36-2.02-10.71-2.72-16.1-.17-1.31.95-2.76 1.36-4.19.24-.82.25-1.71.35-2.49-2.39.66-4.27 1.17-6.14 1.68-.13-.28-.25-.56-.38-.84 2.17-2.27 4.34-4.54 6.51-6.81-.14-.14-.28-.27-.42-.4-.62.54-1.24 1.07-1.45 1.25-3.22-1.53-6.11-3.17-9.18-4.29-3.01-1.11-6.21-1.7-8.98-1.65-1.23.61-2.49 1.78-3.68 1.72-5.59-.3-5.58-.42-6.79-5.59-1.03 1.13-1.73 2.4-2.8 2.91-.98.46-2.35.1-3.56.1-.2-.36-.4-.71-.59-1.07 3.96-3.62 7.93-7.23 11.87-10.83-5.31-4.6-7.03-3.56-12.32 7.67-1.06-1.27-2.05-2.46-3.05-3.65-.93-1.11-1.87-2.23-3.09-3.69-1.09 1.32-2.11 2.56-3.29 3.99-.68-.61-1.35-1.22-2.19-1.98-.37 3.37 3.03 6.74-.42 9.85-.69-.8-1.39-1.61-2.23-2.58-.76 1.07-1.38 1.96-2.19 3.1-2.12-1.12-4.15-2.19-6.22-3.28.32-3.1 1.34-5.01 4.99-3.53 0-1.34 0-2.26 0-3.18-.25-.19-.49-.39-.74-.58-.36.8-.71 1.61-1.15 2.61-1-1.28-1.59-2.04-2.17-2.78-.32.2-.56.27-.63.42-3.19 6.76-3.19 6.77 2 11.93 1.48 1.47 3.04 2.87 4.21 5.05-6.3-.29-12.59-.57-18.89-.86-.08.15-.15.3-.23.45 2.23 1.25 4.46 2.5 6.11 3.43 2.93-.98 5.35-2.09 7.86-2.42.68-.09 1.66 2.23 2.07 2.81-1.7 1.63-2.99 2.88-4.29 4.12.23.25.46.5.69.74.48-.42.95-.83 1.9-1.66v8.32c2.97-.67 5.71-1.97 8.25-1.67 2.75.33 5.33 2.17 8.2 3.45-1.7 2.92-6.79 3.79-5.06 8.41.24.65 1.49.92 2.46 1.48-.85 1.01-1.82 2.16-3.01 3.56 2.32 1.16 4.46 2.23 6.79 3.4-2.85 2.46-5.74 3.47-9.09 1.96-1.98-.9-3.49-.53-4.37 1.44-2.33 5.16-4.63 10.34-6.82 15.56-.77 1.83-1.19 3.8-1.76 5.68-5.94-1.35-5.94-1.35-5.61-7.24 1.02-.12 2.08-.24 3.38-.39.7-2.7 1.42-5.49 2.21-8.54-3.55.64-5.57-.75-6.17-4.09-.61-3.37-1.83-6.75 1.77-9.48.98-.74 1.12-2.57 1.42-4.35-1.55 1.6-2.58 1.24-3.61-.2-.08 1.2-.15 2.4-.26 4.1-2.18-.56-4.16-1.06-6.83-1.74 1.52-.23 2.37-.35 3.88-.58-3.8-1.86-5.58-4.37-3.67-8.66-2.71 1.26-4.7 2.19-6.81 3.17-.67-.91-1.26-1.71-2.05-2.79-.49.89-.91 1.67-1.4 2.56-2.01-1.74-3.75-4.33-6.95-1.74 1.1.68 2.11 1.32 3.32 2.07-1.39.79-2.62 1.49-4.02 2.28 1.38 2.56 2.68 4.98 4.15 7.72-1.43.16-2.56.28-3.87.43 2.44 2.69 5.36 3.35 8.57 2.92 3.26-.44 4.33.93 3.59 3.99-2.89-1.49-3.55-1.18-3.57 1.9-.02 2.97.09 5.94.15 8.89-1.88-1.08-4.5-2.58-7.12-4.08-.27.38-.54.75-.8 1.13 1.21.87 2.32 1.93 3.64 2.56 3.72 1.77 5.58 4.33 5.32 8.71-.34 5.79-.08 11.62.54 17.62.64-1.69 1.08-3.49 1.97-5.03.67-1.16 2.34-2.97 2.83-2.76 1.4.59 2.66 1.91 3.53 3.24 1.4 2.16 2.45 4.55 3.64 6.84.3-.09.6-.17.9-.26-.84 2.11-1.67 4.22-2.51 6.32.28.18.55.36.83.53 1.19-1.6 2.59-3.09 3.49-4.85.86-1.66 1.46-3.56 1.69-5.42.47-3.85 2.46-5.41 5.42-4.98-.22 2.08-.43 4.13-.64 6.18.29.05.58.1.87.15.49-.86.94-1.74 1.46-2.57 1.25-2.01 2.68-2.72 4.98-1.22 1.57 1.02 3.54 1.45 5.74 2.3.36-3.08.49-5.42.96-7.69.26-1.25 1.32-2.34 1.58-3.6.24-1.16-.09-2.43-.22-4.38-2.48 2.21-4.53 4.04-7.2 6.42 2.04.47 3.05.7 4.18.96-.25.85-.47 1.58-.81 2.71-1.78-.86-3.34-1.61-5.05-2.43.85-7.15 5.88-9.21 12.25-9.87-1.17-2.24-2.12-4.06-3.32-6.34-.85 1.91-1.47 3.29-2.4 5.38-1.05-1.35-1.86-2.4-2.68-3.45 1.6-2.22 3.22-4.42 4.87-6.69 1.88 1.36 3.38 2.45 5.2 3.77 1.74-4.72-3.81-4.05-3.89-6.99-3.19 1.33-5.96 2.48-8.27 3.45.54 1.11 1.1 2.01 1.41 2.98.36 1.13.5 2.33.73 3.5-.49-.25-.97-.5-1.67-.85-.18 4.22-.8 8.18-5.52 9.99.48 1.22.92 2.33 1.55 3.93-1.42-.44-2.48-.77-3.78-1.18-.05.99-.09 1.92-.11 2.49-1.98.97-3.75 1.82-5.51 2.7-2.11 1.06-4.02 1-5.7-.92 4.07-1.24 4.47-2.12 3.04-6.79-.93.69-1.82 1.35-2.7 2-.79.58-1.58 1.17-2.58 1.91-2.39-6.65.47-13.2-.21-19.61-2.94 2.55-.77 7.76-5.58 9.15-.56-2.15-1.05-3.99-1.69-6.43 3.84-6.23 5.34-8.46-.81-17.57-1.71.98-3.43 1.96-5.44 3.11-.71-3.35-1.37-6.47-2.11-9.95 2.42-.34 4.59-.64 7.14-1-.36 1.14-.64 1.98-1.15 3.58 2.07-1.07 3.6-1.87 5.2-2.69v9.68c1.46-1.53 2.4-2.52 3.61-3.78 1.79 2.56 3.5 4.99 5.04 7.19-1.12 1.63-2.12 3.07-3.12 4.51-3.33-1.27-2.85 1.66-3.72 3.19 1.56-.12 2.94-.5 4.25-1.04.32-.18.29-.94.39-1.39zm63.07-6.82c-4.49.35-4.88 4.05-6.17 7.01.17.36.35.72.52 1.08 2.32-.7 4.64-1.4 7.2-2.18-.53-1.98-1.07-3.98-1.6-5.98 1.5.3 2.99.61 4.57.93 0-1.53 0-2.91 0-4.51-1.52.34-2.81.63-4.09.93.21.22.42.44.64.66-.36.69-.72 1.37-1.07 2.06zm-16.11-255.24c-4.2-.91-8.39-1.81-12.57-2.71-1.38 2.44-2.56 4.53-3.78 6.68-1.05-.55-1.85-.98-2.65-1.4-.33.25-.65.49-.98.74 1.19 1.97 2.38 3.94 3.85 6.38 2.89-2.75 5.46-5.2 7.84-7.48.29 2.3.5 4.86.97 7.37.28 1.51.63 3.2 3.07 2.12.72-.32 1.94.48 2.02.5 2-1.22 3.59-2.07 5.04-3.11.93-.67 1.67-1.62 2.49-2.45 2.48.89 4.95 1.77 7.76 2.78-3.97 3.3-3.96 3.81.1 7.78-1.34.64-2.46 1.17-3.58 1.7-.58-1.31-1.23-2.59-1.69-3.93-.16-.46.04-1.14.28-1.62.95-1.96.21-3.4-1.63-3.93-1.04-.29-2.34.34-3.16.5.32 2.23.53 3.71.78 5.41-4.33.38-8.08.71-11.86 1.07-.66-.83-1.31-1.67-2.19-2.79-1.85 4.97-3.95-.31-6.09.04 1.26 1.96 2.42 3.77 3.39 5.28 1.74-.92 3.35-1.77 4.96-2.62.79.57 1.51 1.46 2.39 1.66 2.72.6 5.56.75 8.26 1.42 2.61.65 5.1 1.75 7.95 2.76.4-.58 1.26-1.84 2.26-3.29 2.57 2.17 5.01 4.24 7.58 6.42 3.25-3.33 4.92-6.78 4.2-11.56-1.34.83-2.27 1.41-3.54 2.21-.56-3.32-1.08-6.4-1.71-10.07-.97 1.56-1.59 2.54-2.25 3.6-2.83-1.06-3.94-2.73-3.69-5.71.12-1.43-.68-3.24-1.67-4.31-.44-.48-2.38.48-3.65.69-1.17.19-2.36.38-3.53.34-1.67-.07-3.32-.31-4.97-.47zm-50.68 200.5c-1.07-.22-2.2-.78-3.19-.6-2.42.43-3.77-.42-4.09-2.91-3.07 2.13-4.02 7.29-9.23 5.46-.88 1.19-1.87 2.52-2.88 3.87-1.18-.92-2.19-1.69-3.45-2.67v3.26c2.2.95 4.71 1.27 5.94 2.7 3.29 3.81 6.49 3.17 10.05.83.16-.11.43-.06-.03-.01 2.27 1.91 4.21 3.53 6.47 5.43-1.66 1.52-2.9 2.83-4.31 3.91-2.87 2.17-4 4.79-2.97 8.38.29 1.01-.22 2.26-.25 2.45 1.86 1.17 3.49 2.32 5.25 3.21.53.27 1.43-.17 2.16-.29.07-.31.14-.61.21-.92-.56-.38-1.13-.74-1.67-1.15-2.74-2.13-3.17-4.58-1.35-7.62 1.26-2.1 2.17-4.41 3.26-6.61 2.02-4.09 3.11-4.71 7.48-4.11.89.12 1.72.61 2.15.77 1.42-2.54 2.68-4.81 3.95-7.09-.68-.27-2.01-.39-2.65-1.11-1.71-1.94-3.38-1.31-5.03-.23-2.56 1.68-3.89.56-4.77-1.87-.38-1.04-.76-2.09-1.15-3.16 1.59-.67 3.17-1.33 4.76-2-.12-.32-.23-.63-.35-.95-1.48-.27-2.95-.55-4.92-.91.26 1.65.44 2.8.61 3.94zm-31.85-127.04c-.98-.84-1.95-1.69-2.93-2.53.04-.33.09-.67.13-1 2.7-.32 5.41-.64 8.11-.96.1.34.21.68.31 1.02.69-1.32 1.39-2.64 2.04-3.9-1.17-.88-2.01-1.52-3.04-2.29 1.09-.84 1.92-1.48 2.82-2.18-.91-.56-1.43-.88-2.32-1.43 3.13-1.15 5.8-2.13 8.77-3.23-10.06-3.94-14.55-5.49-20.29 1.76-1.23 1.56-1.47 2.34.42 3.05.89-1.47 1.66-2.97 2.66-4.3.42-.56 1.33-.76 2.01-1.13.11.75.5 1.6.27 2.23-.68 1.87-1.6 3.65-2.67 6.02.98.65 2.07 1.37 3.54 2.34-3.64 1.67-6.65 3.05-10.07 4.62 2.38 1.35 4.4 2.51 6.44 3.64 4.19 2.32 4.28 2.6 2.6 6.22-2.6.87-4.49 1.51-6.94 2.33 1.52 1.22 2.36 1.89 2.49 1.99-.16 5.32-.84 10.02-.31 14.59.8 6.84 1.48 13.39-4.34 18.57 2.81 3.13 5.39 6.01 8 8.92 2.05-1.6 3.79-2.96 5.56-4.35 1.63 1.53 3.06 2.87 4.53 4.24 1.27-1.08 2.34-2 3.41-2.91 3.55 4.4 10.38 4.78 13.45-.1-7.21 3.83-11.3.91-14.16-4.9-.06-.11-.37-.1-.75-.18-.43.89-.88 1.82-1.32 2.75-.2-.04-.4-.07-.6-.11 0-2.13 0-4.25 0-6.38-2.78 4.19-5.85 7.52-10.98 8.18 0-1.43 0-2.81 0-4.11 2.19-.43 4.1-.8 6.96-1.37-1.82-2.78-3.23-4.93-4.7-7.17.2-.18.91-.83 1.5-1.37-6.42-7.61-1.38-16.92-4.8-25.04 1.66.45 2.71.74 3.98 1.09.82-2.1 1.77-4.01 2.31-6.03.36-1.35.15-2.86.2-4.3 2-.16 4-.32 6.93-.55-1.7-1.52-2.66-2.38-3.73-3.33-.63 1.01-1.24 1.98-1.97 3.15-.73-2.97-1.07-3.09-3.52-1.56zm-15.78-75.1c-2.14 4.11-4.61 8.17-1.92 13.16 1.08-.91 2.14-1.8 3.43-2.9 1.7 3.4 4.51 3.72 7.73 3.59 4.7-.19 9.52.38 12.87-4.06.23-.31 1.06-.42 1.5-.27 5.53 1.85 11.94 1.11 16.68 5.95.46-2.25.86-4.17 1.35-6.54 1.84.41 3.91.33 5.12 1.31 1.23 1 1.61 3.04 2.4 4.7.79-1.78 1.62-3.64 2.31-5.21 6 2.2 11.59 4.24 17.54 6.42 2.24-3.78 5.21-6.95 10.73-3.09-1.25-2.7-2.78-4.65-3.79-6.84-1.23-2.67-.26-4.9 2.25-6.63.98.92 1.83 1.72 3.09 2.9.39-2.18.69-3.88 1.04-5.84.67.64 1.24 1.18 2.03 1.95 1.21-2.14 2.2-4.13 3.44-5.95.44-.65 1.56-1.34 2.24-1.23 2.82.47 5.58 1.23 8.58 1.94-.68 1.4-1.15 2.36-1.75 3.59 3.46 1.43 6.71 2.77 9.85 4.07.94-1.11 1.64-1.94 2.58-3.05 2.14 3.25 8.59 3.43 5.66 9.57 1.36-1.6 2.73-3.21 4.05-4.76.69 1.45 1.16 2.44 1.76 3.71-2.24 2.85-2.22 2.94 2.07 6.69.79-2.88 1.6-5.82 2.47-8.96-.68-.86-1.54-1.96-1.88-2.39.9-2.07 1.55-3.57 2.19-5.07-.34-.17-.69-.35-1.03-.52-.6.66-1.2 1.33-1.89 2.09-.43-1.48-.78-2.69-1.26-4.36-1.23 2.53-2.24 4.6-3.41 7.01-2.26-2.93-4.36-5.65-6.6-8.54-3.09 1.5-6.04 2.93-8.07 3.91-2.71-2.18-4.62-4.38-7.04-5.47-2.35-1.07-5.21-1.04-7.86-1.41-.79-.11-1.92-.26-2.4.17-2.03 1.82-4.03 3.72-5.75 5.83-5.44 6.68-10.06 6.92-16.25.49-2.28 3.05-2.54 9.88-9.21 4.71-.14 1.49-.23 2.45-.35 3.74-5.6-2.06-11-4.04-16.4-6.03.08-.2.15-.4.23-.6 1.81-.42 3.62-.83 6.04-1.39-1.82-1.95-3.29-3.53-4.9-5.27-1.24 1.38-2.29 2.55-3.53 3.93-.44-1.25-.76-2.15-1.5-4.23-.83 8.36-8.45 7.91-12.61 11.7 6.78 1.97 10.91-1.71 14.31-6.32 1.33 2.53 2.43 4.61 3.7 7.03-.67 1.17-1.64 2.86-2.63 4.59.85.33 1.39.54 2.31.89-1.76.51-3.11.9-4.37 1.26-1.99-3.06-5.9-4.99-11.69-5.94-.81 1.27-1.62 2.54-2.49 3.91-3.39-1.82-6.52-3.5-9.92-5.33-.98 2.51-1.89 4.82-3.15 8.01-.48-3.57-.82-6.12-1.24-9.17-1.99 2.3-3.6 4.17-5.65 6.55-.45-3.26-.79-5.68-1.11-8.08 1.77-.97 3.54-1.95 5.54-3.05-.95-1.33-1.52-2.13-2.24-3.14-1.18 2.36-2.19 4.32-3.2 6.27zm106.51 58.99c-1.63-2.35-3.26-4.69-4.93-7.09-1.42 1.15-2.48 2.02-4.04 3.28 0-2.55 0-4.42 0-6.96-2.93 1.11-5.41 2.05-7.89 3 .11-.48.24-1.09.4-1.77-1.41-.24-2.78-.48-4.17-.72.01 5.51 1.15 6.67 6.06 7.35 2.66.37 5.24 1.34 8.24 2.14-1.26 1.56-2.07 2.56-2.93 3.62 12.61 3.3 15.18 4.48 17.84 8.21-2.14.37-4.25.73-6.9 1.18 2.53 2.17 4.83 3.68 6.51 5.71 1.67 2.02 2.7 4.57 4.22 7.26.35-.04 1.34-.13 2.31-.29.94-.16 1.86-.39 2.85-.61-1.87-3.11-1.31-9.35.43-11.54-.75-1.58-1.73-2.78-1.76-4.01-.03-.99 1.08-2.02 1.91-3.41-.19-.24-.79-1.03-1.51-1.95.78-.22 1.45-.41 2.22-.62-.87-1.18-1.63-2.21-2.39-3.25.94-.81 1.67-1.44 2.43-2.1-.83-.76-1.53-1.41-2.27-2.09.76-.53 1.36-.94 2.42-1.67-4.91-1.45-8.22-3.81-7.56-9.68 1.68 1.83 3.13 3.41 4.97 5.42.65-2.99 1.15-5.33 1.47-6.79-.55-1.85-1.16-2.95-1.14-4.05.02-2.47.34-4.94.58-7.4.03-.36.37-.67.46-1.03.13-.54.16-1.1.23-1.65-.78-.04-1.91-.41-2.26-.04-.81.87-1.29 2.06-1.8 3.17-1.17 2.56-2.28 5.15-3.84 8.71-3.19-3.77-5.75-6.8-8.37-9.9-1.23 1.6-2.73 3.54-4.22 5.49-2.46 3.19-5.33 3.36-7.99.25-2.44-2.87-5.64-3.7-9.05-3.22-2.26.32-4.47 1.41-6.55 2.44-2.69 1.33-4.93.97-7.02-1.08-.52-.51-1.12-.93-1.66-1.38-3.79 3.29-5.42 9.91-12.65 7.08.98-1.35 2.14-2.5 2.72-3.89.38-.91.22-2.99-.19-3.13-2.68-.94-5.81-2.58-8.17-1.88-2.63.77-4.53.69-6.77-.38-.68-.32-1.56-.53-2.28-.4-3.13.58-5.56.06-6.26-4.2-.58 2.52-.99 4.32-1.48 6.46-3.43-1.55-7.73-1.1-8.1-6.5-1.17 1.62-2.06 2.86-3.05 4.25-2.96-2.69-5.75-5.22-8.49-7.7-5.78 2.88-7.34 8.16-8.73 13.48-.48 1.84.41 3.12 2.53 2.87 3.2-.37 6.12 0 8.23 3.02.73-1.89 1.32-3.39 2.11-5.43.52 1.5.82 2.34 1.1 3.18.31.96.51 1.95.9 2.88 1.2 2.86 4.83 4.42 6.13 2.53 1.52-2.21 3.36-2.53 5.74-2.31 2.33.22 4.68.1 7.02.19 5.96.24 11.92.51 18.31.79-1.24 1.82-2.16 3.17-3.05 4.47 3.82 4.34 14.53 1.91 17.25-4 1.65 2.64 3.21 5.14 5.2 8.31.49-3.76.87-6.67 1.29-9.87 4.82.35 9.41.68 14.72 1.07-1.8 2.48-3.17 4.37-4.57 6.29 5.05-1.56 5.97-3.02 5.26-8.3-1.05-.37-2.1-.74-3.42-1.21 3.88-2.23 4.59 2.07 6.8 2.64 2.02-2.34 4.02-4.67 5.55-6.45 2.59.82 4.62 1.46 6.66 2.11.16-.34.33-.68.49-1.03 1.07 1.53 2.14 3.05 3.32 4.73-2.59.89-4.86 1.67-7.13 2.46 5.48.52 6.51 4 5.66 8.77 2.68-.3 4.83-.55 7.1-.8v6.2c-.58.34-1.49.89-2.37 1.41-.86-1.06-1.54-1.9-2.31-2.86-.62.93-1.13 1.66-1.6 2.42-.51.84-.98 1.71-1.47 2.59 4.55 1.52 4.76 2.04 2.61 5.27-2.33-1-4.58-1.96-6.95-2.97.88-1.09 1.61-2 1.98-2.46-1.77-.96-3.41-1.84-5.06-2.74h7.6c.63-1.27 1.58-3.17 2.97-5.95-3.82 1.93-6.67 3.35-9.49 4.84-.39.21-.63.8-.96 1.22zm-176.8 19.16c.33-2.45 1.4-4.06 3.86-5.21 2.48-1.16 4.52-3.26 6.92-5.08-2.83-1.99-5.07-3.61-7.37-5.14-.49-.33-1.28-.54-1.82-.39-3.71 1.01-7.4 2.13-11.24 3.26.62 3.8 1.18 7.25 1.76 10.82 2.81-.35 5.45-1.2 7.07 1.7.07.12.62-.04.95-.07-.19.82-.38 1.63-.67 2.89-1.41-1.57-2.48-2.78-3.53-3.95-4.04 1.97-4.25 3.22-1.7 10.88 3.09-.32 7.07.42 9.32-1.21 4.14-3.01 6.79-.33 10 .88.18.07.42-.06.64-.1.68-.85 1.36-1.69 2.14-2.67 1.57 2.26 3.02 4.34 4.16 5.99 3.58-1.23 6.74-2.33 9.91-3.42.04.27.08.54.12.81.72-1.4 1.44-2.79 2.55-4.93 1.23 4.69 3.91 6.74 7.58 7.82 1.37.4 3.18.96 3.77 2.01.95 1.71 1.06 3.89 1.53 5.87-.27.09-.55.19-.82.28-.62-.58-1.23-1.15-1.91-1.79-2.06 2.53-1.77 7.29-6.82 6.36.42.76.66 1.2 1.01 1.83-10.75-.91-21.11-1.76-31.47-2.72-1.17-.11-2.29-.82-4.26-1.56-4.04 1.02-7.56 3.81-9.24 8.91-.72 2.18-2.24 4.09-3.26 6.18-.31.63-.19 1.47-.27 2.21.22.03.45.06.67.09.64-.88 1.29-1.77 2.36-3.23 2.54 1.7 4.97 3.32 7.4 4.94-.14.3-.28.61-.42.91 1.4-.28 2.8-.56 4.87-.97-3.91-1.63-3.33-3.93-1.94-6.39 9.79 1.01 18.48 4.34 25.42 12.04.5-1.93.88-3.38 1.34-5.15 1.26 1.41 2.32 2.59 3.41 3.79 1.19-1.27 2.17-2.32 3.71-3.96v8.1c2.44-.44 4.52-.81 6.72-1.21 1.23 3.01.15 5.32-3.88 6.75-3.11 1.1-6.3 1.98-9.45 2.96 1.1 1.19 2.22 2.07 3.28 1.99 2.2-.15 4.37-.79 6.54-1.26 4.91-1.07 7.78-5.34 6.64-10.15-.51-2.16-.8-4.82-4.15-4.51-.41 3.31-.43 3.32-3.84 1.99 2.29-3.8-.45-9.89 6.88-12.03-3.66-1.46-6.41-2.54-9.15-3.63.18-.34.36-.68.53-1.02.92.39 1.84.79 2.77 1.18 1.79-3.03 3.48-5.86 5.41-9.13.21 1.41.34 2.23.52 3.41 1.55-1.77 2.85-3.26 4.3-4.92 1.39 1.04 2.68 2.01 3.98 2.98-.17.35-.33.71-.5 1.06-1.3-.45-2.61-.9-3.86-1.34-.34 1.46-.75 3.19-1.18 5.03-1.23.17-2.38.33-3.83.52.91 2.04 1.68 3.77 2.62 5.9.96-1.22 1.59-2.03 2.31-2.95-1.16-.45-1.98-.76-2.71-1.04 2.09-1.2 3.97-2.28 5.86-3.37-.11-.32-.22-.64-.33-.96.63.71 1.27 1.42 1.89 2.12-1 1.1-1.84 2.03-2.87 3.16 2.81.81 5.24 1.51 8.12 2.34-1.17.55-1.93.91-2.99 1.41 3.03.82 4 2.66 2.93 5.05-.9 2.01-2.41 3.74-3.77 5.78 4.09 1.29 4.19 4.52 4.19 7.89-2.24.42-4.63.42-6.52 1.39-1.22.63-1.82 2.63-2.36 4.14-.07.2 1.8 1.34 2.89 1.65 1.48.42 3.06.47 4.74.7.28-1.02.53-1.91.83-3.03.85.56 1.43.94 1.79 1.18-.92 1.16-1.5 2.33-2.43 2.94-1.38.89-3.16 2.15-4.51 1.89-3.49-.67-5.42.8-7.18 3.61 1.78.58 3.31 1.07 5.06 1.64-1.78 2.21-3.38 4.19-5.16 6.38 1.72.46 3.16.84 5.17 1.37-4.58 3.74-8.74 7.15-13.66 11.17.88-4.3.14-6.8-4.1-7.04 1.01-1.31 1.74-2.26 2.62-3.4.95 1.84 1.78 3.43 2.54 4.9 1.08-1.44 1.81-3.48 3.1-3.94 3.5-1.24 3.25-3.93 3.3-6.59.06-2.78-2.4-2.85-4.17-3.58-1.52-.62-3.08-1.13-5.12-1.86 2.35-1.98 4.34-3.66 6.41-5.41.84 1.03 1.49 1.82 2.14 2.61 1.82-3.23 3.5-6.19 5.32-9.4-4.21 2.2-8.09 3.9-11.58 6.18-2.1 1.37-3.6 3.65-5.36 5.52 0 0 .08-.08.08-.08-1.66-1.07-3.32-2.14-4.98-3.21-.82 1.09-1.66 2.2-2.49 3.31 1.42 3.42-.25 6.5-.61 9.68-1.37-.79-2.41-1.38-3.44-1.97-.41.4-.81.81-1.22 1.21 4.49-.53 2.04 2.43 2.55 3.59 6.02.2 3.93-5.4 6.23-8.1 1.1 1.93 2.17 3.81 3.33 5.85.8-.99 1.44-1.77 2.25-2.76.6 1.27 1.02 2.17 1.52 3.24-3.46 1.51-6.72 3.36-10.23 4.3-1.68.45-4.79-.23-5.54-1.45-1.21-1.96-2.75-4.92.41-7.11.63-.44 1.03-1.19 1.66-1.96-3.98.41-6.79 2.08-8.75 5.27-.93 1.51-2.17 2.84-3.27 4.25-2.3 2.86-4.6 5.71-6.96 8.64 4.53 1.89 4.68 2.24 2.95 4.97-.29-.78-.68-1.85-1.07-2.92-.92.62-1.89 1.17-2.74 1.88-.67.56-1.17 1.31-1.89 2.13-.26-.93-.46-1.61-.69-2.43-.82.38-1.45.67-2.23 1.04 1.64-4.91 2.31-5.75 6.17-7.94 3.58-2.03 4.37-4.05 3.7-8.07-.42-2.5-1.02-5.26-.39-7.59 1.13-4.15-.02-7.54-2.26-11.14 2.42-.73 4.6-1.38 6.76-2.03 1.5 4.19 4.69 5.78 14.28 7.32.74-1.75 1.5-3.53 2.42-5.68-7.67 2.98-13.01.83-15.53-5.92-.99.9-1.94 1.77-3.17 2.9-1.44-1.51-2.65-2.99-4.08-4.2-.63-.53-1.9-.93-2.57-.65-4.42 1.85-8.75 3.91-13.28 5.97 1.5 3.08 2.91 5.97 4.37 8.95-1.1 1.27-2.16 2.5-3.19 3.69 1.2 1.56 2.22 2.88 3.07 3.99-1.16 3.04-3.12 5.83-3.13 8.63-.03 7.77.1 15.73 6.08 21.95.4.42.68 1.28.56 1.83-.53 2.54-1.23 5.05-2.06 8.33 2.71 2.84 4.11 7.54 4.22 12.51.13 6.25-.32 12.51-.32 18.77 0 8.48-.82 17.14.63 25.38 1.06 6.02 1.05 10.36-4.13 13.9-.1.07-.03.39-.05.71 2.94 1.66 5.92 3.34 9.24 5.23-1.61.53-2.75.9-4.02 1.31v5.3c1.08.49 2.05.92 3.35 1.51-.93 1.09-1.65 1.94-2.38 2.78.72.82 1.45 1.65 2.05 2.33-1.03 1.58-2.98 3.25-2.72 4.43.93 4.25 2.61 8.33 4.14 12.88 5.08-4.72 9.72-9.04 14.71-13.67-4.05-1.17-3.42-3.83-2.82-6.5.22-.98.36-1.98.54-2.97 1.07-5.86 2.13-11.72 3.24-17.79.93.66 1.45 1.03 1.55 1.1 2.11-5.95 4.32-11.67 6.12-17.52 1.13-3.67 1.73-7.51 2.35-11.32.16-.98-.2-2.52-.9-3.08-3.77-3.05-4.48-6.21-.48-9.94-.14-.3-.28-.59-.42-.89-4.53-.33-9.06-.67-13.66-1-.32-2.35-.47-4.59-.97-6.75-.51-2.21.18-3.7 2.03-4.8.86-.51 1.9-.84 2.57-1.52.31-.32-.05-1.31-.15-1.99-.02-.12-.29-.2-.46-.32-.37.43-.72.84-1.04 1.21-.9-.71-1.8-1.41-2.94-2.31-1.63 7.64-9.12 8.23-13.08 12.83-.23-.16-.47-.32-.7-.49.32-5.05.64-10.1 1-15.72 2.27 1.49 4.09 2.7 5.94 3.91 2.76-5.61 6.76.1 10.08-1.32-.83-1.74-2.02-3.66 1.05-4.6 2.55 4.25 5.06 8.45 7.71 12.87.85-1.51 1.49-2.63 2.18-3.84 5.23 8.22 5.23 8.22 13.51 3.27.19-.11.37-.25.57-.35 3.02-1.52 5.85-.16 6.52 3.17.62 3.07 1.16 6.15 1.76 9.22.8 4.06 1.99 4.96 6.18 4.66.13.86.25 1.71.42 2.85 4.47-3.67 7.89-7.49 7.11-13.31-.72-5.3-.23-9.99 5.48-13.03-3.62-1.36-6.56-2.45-9.85-3.68.93-.8 1.42-1.25 1.93-1.67 3.75-3.05 4.05-4.26 2.3-9.16-1.36-3.79-3.54-5.1-7.63-5.21-4.25-.11-8.48-.6-13.18-.95-.18.22-.84 1.07-1.59 2.04-.74-1.11-1.35-2.02-2.15-3.2-3.48 2.11-8.62 1.53-9.68 7.25 1.6 1.32 3.31 2.72 5.09 4.17.85-1 1.6-1.89 2.35-2.77.87.8 1.56 1.43 2.38 2.18.27-1.39.47-2.47.59-3.07h12.07c.77-1.45 1.41-2.64 2.05-3.84.28.15.57.3.85.45-.18.79-.36 1.58-.56 2.48 1.99.09 3.71.17 5.92.26-1.1 1.24-1.87 2.11-2.71 3.05.98.9 1.8 1.66 2.77 2.55-3.75 1.53-7.18 2.94-11 4.5 2.69 1.95 4.93 3.57 7.42 5.38-2.56 1.63-4.85 3.1-7.19 4.59.69.74 1.15 1.23 1.6 1.72-5.48-3.35-4.83-8.71-4.66-14.14-1.98 2.92-3.63 5.9-5.06 8.98-1.54 3.32-3.8 5.36-7.83 5.24-.1-1.34-.19-2.54-.29-3.77-1.74-.57-3.4-1.12-5.05-1.66.02-.28.04-.56.06-.84 2.33-.11 4.65-.23 7.15-.35.36-.79.88-1.91 1.57-3.42.87 2.06 1.52 3.63 2.42 5.74 2.39-4.6 4.51-8.68 6.9-13.26-3.47.66-6.31 1.22-9.16 1.73-6.21 1.11-7.98.11-10.18-6.07-4.79 5.05-7.96 1.68-11.07-2.04-.34-.41-.82-.69-1.66-1.38-1.07 6.35-5.34 2.32-8.65 2.62 1.04 2.04 1.48 4.07 2.74 5.08 1.5 1.2 3.66 1.76 5.61 2.06.55.08 1.39-1.72 2.51-3.19 3.45 2.28 7.21 4.76 11.12 7.34-1.14.94-1.85 1.52-2.55 2.1-4.85-5.91-7.75-6.69-10.5-3.04-1.74-.76-3.42-2.06-5.16-2.15-2.97-.14-4.37-1.87-5.72-4-.56-.89-1.12-1.79-1.79-2.85-2.66 5.68-2.66 5.68-4.16 5.59 4.15-3.55 1.51-6.48-1.1-9.52 3.81.21 6.92.49 10.04.52 1.61.02 3.68.12 4.71-.78.81-.71.34-2.88.51-5.45 3.23 3.62 6.1 6.82 8.16 9.13 3.77-1.36 6.61-2.4 9.58-3.47-14.86-1.24-14.13-1.95-16.46-10.77-1.14.92-2.22 1.79-3.44 2.78-1.14-1.18-2.14-2.2-3.17-3.28 1.05-1.15 2.02-2.21 3.11-3.39-1.08-.53-2.01-.99-2.68-1.32.81-2.43 1.52-4.58 2.25-6.72.69 1.83 1.39 3.67 2.19 5.79 6.58-.46 13.18-.98 18.95-5.24 1.28 2.8 2.36 5.37 3.63 7.84.4.77 1.38 1.87 1.98 1.8 3.75-.43 7.49-1.03 11.16-1.88.82-.19 1.7-1.46 2-2.4 1.04-3.34 1.85-6.76 2.78-10.28-1.15-.32-2.56-.71-4.37-1.21 1.88-1.29 3.33-2.28 4.9-3.36-.91-1.36-1.73-2.59-2.56-3.82 2.4.44 5.32.95 6.22 2.58 1.52 2.76 1.93 6.21-.97 8.97-.57.54-1.06 1.82-.82 2.46 1.17 3.08 2.61 6.06 3.95 9.08 2.05-.43 3.63-.75 5.75-1.2-3.79-4.6 1.69-11.1-4.35-14.35 1.19-1.8 2.94-3.24 2.97-4.72.22-8.51-.05-17.05-4.16-24.83-.89-1.69-.99-2.9-.18-4.58 3.26-6.81 3.56-14.1 3.5-21.74-2.92 2.37.1 8.81-6.58 8.34 1.02-2.75 1.94-5.21 2.9-7.79-1.43-.84-2.72-1.59-4.12-2.4 1.38-1.52 2.54-2.8 3.88-4.27-4.09-.78-8.12-2.76-9.68 3.43-3.17-4.15-5.93-7.77-8.32-10.9-5.79.73-6.11-5.22-9.97-6.83-.65 5.69-5.78 6.67-9.53 9.32-.87-3.23-7.18-6.54-10.07-5.43-4.61 1.78-6.34 1.28-9.52-2.7-.5-.43-1.05-.82-1.54-1.26zm80.52 67.26c-1.05.83-2.1 1.67-3.48 2.76-.43-.5-1.37-1.6-2.69-3.14-.49 1.25-1.45 2.44-1.19 3.25 2.46 7.8 5.12 15.54 7.71 23.25.57-1.05 1.28-2.36 2.2-4.05 7.76 6.49 16.31 5.54 24.69 2.88 3.4-1.08 6.08-.84 8.81.85 1.72 1.06 3.17 2.57 4.78 3.91.4-1.24.45-2.9 1.31-3.69 1.26-1.16 3.03-2.07 4.71-2.36.8-.14 2.3 1.21 2.77 2.22 2.5 5.33 2.41 5.35 8.18 3.91.83-.21 1.8-.33 2.6-.11 3.43.95 6.8 2.09 10.23 3.04 1 .28 2.35.54 3.16.11 4.89-2.62 9.68-5.45 14.71-8.32-.98-1.35-1.74-2.39-2.84-3.92-.17 1.59-.27 2.53-.47 4.39-1.3-1.57-2.95-2.71-2.81-3.57.36-2.32.86-5.71 2.43-6.54 4.24-2.25 6.38 2.03 8.96 4.62 1.79-5.92 2.02-6.09 14.41-10.93-.84-1.45-5.5-3.47-8.18-3.27-.62.04-1.17 1.08-2.05 1.96 1.95.18 3.19.3 4.67.44-4.6 4.71-9.66 5.77-14.39 3.14.86-.61 1.65-1.18 2.66-1.9-1.1-.81-2.08-1.52-3.23-2.35-1.84 3.6-3.6 7.03-5.54 10.83-2.49-4.37-6.03-2.14-9.17-2.66-.4 2.99-.76 5.61-1.16 8.53-1.28-1.01-2.35-1.86-3.46-2.74-.78 1.02-1.42 1.84-2.08 2.71-.77-.95-1.38-1.72-2.17-2.7-1.1 2.7-2.1 5.14-3.2 7.83-1.47-4.32-4.6-.71-6.77-1.92 1.29-.64 2.53-1.26 3.85-1.92-.95-1.5-1.78-2.81-2.68-4.22 2.46-.99 5.66-.95 5.82-5.47-2.89.33-5.65.69-8.41.94-1.2.11-2.43-.16-3.62-.03-1.36.15-2.7.56-4.05.85.32 1.37.64 2.73.97 4.15.14 0-.5.19-.91-.03-6.61-3.58-13.69-3.36-20.93-3.13-4.04.13-8.12-1.16-12.19-1.77-1.75-.26-3.51-.42-5.71-.68-.16-.32-.64-1.3-1.12-2.28-.18.07-.36.14-.55.22.4 1.43.79 2.86 1.19 4.28-.27-.28-.55-.57-.82-.85-1.18 1.71-2.36 3.42-3.54 5.13-.3-1.58-.16-2.79 0-3.99.31-2.36 1.58-5.21.69-6.96-.94-1.85-3.94-2.65-6.02-3.93-.14-.09-.2-.33-.34-.58.95-.53 1.88-1.05 2.19-1.23 2.76 1.49 5 2.69 7.51 4.04.57-2.89 1.03-5.21 1.49-7.52.29.06.58.12.86.17.46.82.91 1.65 1.4 2.52 2.65-1.08 5.11-2.09 7.79-3.18.66 1.21 1.19 2.2 1.8 3.32-2.89.4-5.33.73-7.76 1.06.02.14.04.28.05.42 1.26.15 2.52.3 3.89.46-1.06 4.44-3.28.54-5.26 1.09-.52 1.23-1.14 2.71-1.86 4.44 3.54.72 6.17 3.86 10.16 2.42-.77-.83-1.38-1.5-2.16-2.34 3.86-1.64 5.99-6.11 11.25-4.9.39 2.24.81 4.63 1.29 7.36h6.23c.14-1.81.26-3.53.47-6.22.76 1.44 1.14 2.17 1.54 2.93 1.48-1.63 2.42-2.66 3.66-4.02-.05 3.7 1.85 4.48 4.63 4.22 2.11-.19 4.25-.18 6.34-.46 1.17-.16 2.29-.75 3.77-1.26-1.07-1.22-1.67-1.91-2.47-2.82h4.18c-.47 1.16-.86 2.12-1.34 3.3 3.21-.23 6.11-.47 9-.64 2.83-.17 6.04.43 6.49-3.84.04-.41.94-.72 1.67-1.25-1.04 4.2 1.94 5.1 4.82 6.5.65-2.7 1.22-5.1 1.96-8.17 1.74 2.23 3.01 3.86 3.81 4.88 4.72-1.26 8.97-2.39 13.35-3.56 1.69-7.02 1.59-7.92-1.58-11.19 2.23.34 4.78 1.89 5.09-1.92 1.94.55 3.52.99 5.12 1.44-1.72 2.51-3.31 4.83-5.04 7.35 4.46.92 3.58-3.64 5.9-4.76.6.85 1.23 1.76 1.97 2.82 1.09-.4 2.1-.76 3.34-1.22-1.14-.55-1.96-.94-2.89-1.39 5.56-4.64 6.98-15 2.67-18.26 1.07 7.1 1.07 7.1-4.14 10.69-.51-.95-.83-2.53-1.61-2.81-3.63-1.3-2.77 3.24-5.26 4.22 1.45-2.67.82-4.64-.79-5.41 1.83-1.71 4.08-3.21 5.51-5.28 3.12-4.51 5.83-9.32 8.75-14.06-8.98 2.29-12.55 9.91-15.75 17.83-1.35-.86-2.27-1.45-3.44-2.2-.3 1.44-.75 2.6-.74 3.77.01 2.16-1.08 3.17-2.99 3.85-4.83 1.72-9.61 3.57-8.4 10.21-10.25 1.11-20.04 2-29.78 3.28-11.33 1.49-22.43 1.94-32.79-4.95.41 1.55.7 2.63 1.09 4.1-6.25-1.22-12.89 1.48-17.79-4.56-1.13 1.73-2.09 3.19-3.05 4.65zm40.42-30.32c1.54-1.01 3.09-2.03 5.15-3.38-3.05-.9-5.55-1.63-8.85-2.61 1.8-1.35 3.2-3.22 4.29-3.06 4.92.75 9.49 2.5 11.52 8.44.73-1.91 1.12-2.92 1.6-4.18 2.72.48 5.8.27 7.82 1.62 1.53 1.02 1.71 4.05 2.39 5.89 6.01 1.54 5.25 7.95 8.25 10.8 2.93-2.84 5.92-5.74 8.93-8.67-1.25-1.6-2.6-3.34-4.05-5.18 1.3-1.12 2.39-2.05 3.49-3 1.9 1.03 3.64 1.97 5.91 3.19 3.14-5.84 6.17-11.47 9.35-17.39-.44-.71-1.13-1.84-1.89-3.07.99-1.12 1.95-2.2 2.9-3.28-1.15-.72-2.32-1.46-3.66-2.31 1.09-.82 1.87-1.41 2.87-2.16-.81-.75-1.47-1.36-2.14-1.97-.88 1.04-1.57 1.84-2.4 2.82-3.2-4.52-6.12-8.89-9.34-13.04-1.06-1.37-2.77-2.51-4.41-3.1-3.88-1.4-7.91-2.42-12.38-3.74 1.45-.8 2.28-1.27 2.79-1.55-1.88-.84-4.39-1.23-5.57-2.69-1.22-1.51-1.16-4.06-1.74-6.49-2.49 2.89-4.79 5.57-7.09 8.24-3.75-2.82-3.82-2.93-7.68-.48-4.13 2.63-7.74 1.32-11.2-.72.03-2.61 3.91-4.03 1.66-7.4-.91 1.62-1.57 2.8-2.22 3.95-2.62-1.34-3.71-5.67-7.83-3.1.71.5 1.32.93 2.03 1.43-.89 1.14-1.61 2.07-2.3 2.95-1.5-.69-2.75-1.27-4-1.84-.07.15-.14.3-.21.45 1.53 1.42 3.06 2.85 4.76 4.42-2.33 1.73-4.44 3.29-6.98 5.18 1.44.37 2.33.6 3.16.81.55-1.06.97-1.86 1.5-2.88 1.23 1.5 2.21 2.7 2.83 3.45-1.6 2.24-2.99 4.18-4.43 6.19-1.09-.72-2-1.32-3.05-2.01.72-1.16 1.35-2.16 2.13-3.42-3.96-.92-4.65-3.16-3-6.47.35-.71.16-1.69.26-3.24-4.87 7.5-4.9 8.05-.82 13.83-.94.65-1.93 1.35-3.27 2.27 1.76.58 2.9.96 4.29 1.43-.83 2.88-1.44 6.1-4.59 6.87-2.95.72-4.79 1.93-5.34 5.26-1.21-1.52-2.16-2.7-3.11-3.89-.37-.02-.74-.03-1.11-.05-.17 1.25-.63 2.55-.45 3.75.43 2.85 2.56 2.68 5.08 1.76-.75 5.72 5.67 11.18-.9 16.28.35.74.71 1.52 1.22 2.6-4.25.12-2.17 2.34-1.63 4.4 1.54-1.4 2.91-2.65 4.48-4.08 3.37 4.03 6.64 7.93 9.9 11.83 2.74-2.46 2.74-2.46 6.95-2.35 2.34.06 5.68-2.65 6.15-4.91.7-3.37-2.02-3.43-4-4.2-.49-.19-1.02-.29-1.04-.3.38-2.21.51-4.26 1.14-6.14.45-1.32 1.41-3.26 2.44-3.46 4.44-.87 8.98-1.23 13.5-1.68.18-.02.44.89.67 1.37-.25.28-.5.56-.75.84-1.75-.01-3.53.18-5.24-.08-2.72-.41-4.73.16-5.95 2.84-.53 1.18-1.41 2.21-2.31 3.57 2.56.57 4.82 1.06 7.07 1.56-.59 1.42-1.01 2.43-1.43 3.43-1.1 1.19-2.2 2.38-3.43 3.71 6.98 1.19 13.32 2.26 19.66 3.34-.02.39-.03.77-.05 1.16-3.1-.66-6.3-1.65-7.91 2.35-3.37-4.83-5.41-5.82-11.61-4.02-2.05.6-3.44 3.47-5.24 5.41.56.65 1.19 1.38 2.14 2.47 1.44-1.61 2.63-3.09 3.98-4.42 2.34-2.29 5.66-1.96 7.74.58.91 1.12 1.9 2.22 3.04 3.08.82.61 2.09 1.79 2.59-.56.1-.48 1.24-.78 1.92-1.11 5.34-2.54 6.14-4 5.52-10.52-1.41 1.27-2.68 2.43-4.08 3.7-4.27-3.57-8.53-6.52-13.95-1.25-.19-1.73-.32-2.9-.44-4.07zm-27.96 93.22c-2.08-1.34-5.67-2.71-3.57-7.18-2.06-.65-4.1-1.3-7.15-2.27 5.27-3.79 9.74-7.01 14.27-10.27-4.71-2.38-8.98-7.1-15.03-2.93-1.26.87-2.88 1.66-3.5 2.9-1.01 2.01-1.29 4.3 1.46 5.67.45.22.63 1.34.65 2.05.16 6.03.51 12.07.24 18.09-.12 2.77-.7 6.22-2.45 8.06-3.39 3.58-1.1 6.6-.82 10.41 1.38-1.27 2.26-2.08 3.18-2.93.89 1.06 1.67 1.98 2.61 3.09 6.61-5.14 13.1-10.17 20.04-15.56-5.47-1.29-10.38-2.44-15.28-3.59-.12-.31-.24-.62-.37-.93 1.91-1.55 3.81-3.08 5.72-4.61zm-73-158.54c.05.47.1.95.14 1.42-1.75-.92-3.49-1.84-5.19-2.75-1.88.81-4.18 1.79-6.43 2.76 2.68 3.31 13.37 2.76 18.7-.91 3.37 1.62 6.58 3.16 9.8 4.71-1.55-4.57 2.78-8.12.86-12.42-3.95 0-8.33-.86-12.1.31-2.41.75-3.89 4.49-5.78 6.88zm3.47 27.94c.16.11.32.21.48.32.79-.62 1.69-1.14 2.34-1.89 2.29-2.66 4.75-2.94 7.96-1.47 1.48.68 4.1.73 5.3-.15 4.76-3.5 9.5-7.19 11.64-13.42-4.96-.55-3.24-5.58-5.34-7.71-1.22.94-2.12 2.07-3.27 2.43-1.28.4-2.78.09-4.17.09.62 2.09 1.23 4.13 1.94 6.5 1.45-1.75 2.63-3.16 4-4.81 1.59 1.98 2.95 3.66 4.4 5.46-3.21 2.88-6.06 5.56-9.08 8.05-.74.61-2.04.92-3.01.8-8.07-.98-16.13-2.09-24.23-3.16 3.36 4.09 7.85 5.25 13.43 4.1-.96 1.95-1.67 3.41-2.39 4.86zm159.15 17.63c0 .34-.01.69-.01 1.03 6.16-1.7 5.28 5.95 10.07 6.33-1.48 1.58-2.64 2.84-3.9 4.19 4.34 1.6 7.76-.44 7.28-4.26-.78-6.27-3.05-12.02-6.81-17.11-1.65 1.09-3.09 2.04-4.92 3.25 1.9.12 3.39.21 5.1.31-.34 2.07-.65 3.95-1.03 6.22-.96-1.09-1.57-1.8-2.32-2.65-1.26.99-2.36 1.84-3.46 2.69zm-129.25 21.76c.18-.93.31-1.63.37-1.93-2.44 0-4.69 0-7.09 0-.26.85-.65 2.15-1.09 3.6-.74-.63-1.2-1.02-2.1-1.78.18 1.74.31 2.89.45 4.19 3.92-.09 5.14 1.63 4.63 5.3-.2 1.41 1.14 3.03 1.97 5.03.01-.03-.27.59-.64 1.41 1.88-.89 3.44-1.63 4.82-2.29-1.32-2.1-2.55-4.06-3.86-6.13.47-.34 1.37-.98 2.35-1.69-1.16-2.08-2.27-4.06-3.62-6.47 1.48.29 2.43.49 3.81.76zm28.11-119.09c-1.08-1.61-1.86-2.91-2.8-4.08-.23-.29-1.04-.29-1.49-.14-.27.09-.59.85-.47 1.12.81 1.75 1.74 3.45 2.73 5.35 2.82-.74 5.93-1.43 6.52 4.08 1.82-1.06 4.1-1.64 4.29-2.63.53-2.74.18-5.64.18-9.11-1.97 1.74-3.34 2.96-4.72 4.17-1.07-.8-1.95-1.45-2.93-2.19-.43 1.18-.83 2.21-1.31 3.43zm-65.23 152.22c.11-2.22.22-4.3.29-5.65-1.76-.98-3.12-1.53-4.21-2.41-1.22-.99-2.19-2.28-3.27-3.44-.28.18-.57.35-.85.53 2.25 2.23-1.41 7 3.87 7.8-.42 2.76-.83 5.53-1.37 9.09 2.88-2.01 1.43-6.05 5.54-5.92zm152.34 175.81c.53.49 1.06.98 1.58 1.46 6.57-2.19 11.57-6.07 13.65-12.77-3.77 2.31-7.68 4.71-11.62 7.12.02.03.55.62.87.98-1.64 1.17-3.06 2.19-4.48 3.21zm-7.12-48.27c-2.65.42-4.82.98-7.02 1.07-3.1.12-3.42 1.63-2.6 4.32 2.71-.77 5.36-1.27 7.79-2.28 4.12-1.71 4.25-3.5.7-8.7-1.32.84-2.64 1.68-4.53 2.88.18.36.65 1.32 1.12 2.28 1.16-.58 2.33-1.16 3.59-1.8.17.38.46 1.06.95 2.23zm-22.74-82.66c3.97-.41 7.77-.81 12.21-1.27-11.68-4.12-13.66-6.11-17.19-4.03 1.75 1.86 3.55 3.77 4.98 5.3zm-137.79 111.25c2.92.87 4.95 2.57 5.15 5.98 1.75-2.73 3.51-5.45 5.37-8.35-4.2-1.4-7.75-1.79-10.52 2.37zm96.56-117.36c2.87 1.03 5.7 2.05 8.47 3.04.79-1.49 1.33-2.5 1.87-3.51-4.07-4.26-8.14-4.19-10.34.47zm83.01 146.16c3.79-2.18 7.39-4.14 10.85-6.32.59-.37.59-1.69.86-2.56-.24-.13-.48-.26-.72-.39-1.45 2.4-3.39 3.12-6.2 2.93-1.97-.14-4.03 1.16-6.16 1.85.56 1.83.9 2.96 1.37 4.49zm-175.27-10.16c2.48-1.04 4.69-1.96 7.21-3.01-1.46-1.33-2.62-2.39-3.84-3.51 1.25-.78 2.23-1.39 3.6-2.25-1.7-.35-2.86-.59-4.25-.88-.83 3.25-5.24 5.07-2.72 9.65zm145.24-162.12c2.03-4.68 1.03-6.4-3.51-6.21-2.6.11-5.19.49-8.35.81 4.28 1.95 7.97 3.63 11.86 5.4zm-107.25-170.63c-1.55-1.09-3.08-2.17-4.69-3.32-1.15.75-2.26 1.47-3.33 2.17 1.72.78 3.28 1.17 4.42 2.08 1.17.92 1.93 2.35 2.46 3.02 2.65-1.82 4.58-3.15 6.8-4.68-.12-.24-.65-1.27-1.26-2.47-1.53 1.13-2.78 2.03-4.4 3.2zm140.16 57.06c-7.6-.93-7.85-4.22-3.18-9.48-1.03-.38-1.85-.69-2.71-1-1.66 4.09 1.08 9.5-5 11.64 7.4 2.11 9.18 1.85 10.89-1.16zm-45.23-56.77c1.7 4.75 4.03 5.86 9.56 4.55-2.91-2.18-4.87-5.86-9.56-4.55zm-143.73 205.33c-7.27 5.64-7.88 6.57-5.81 9.03 2.89-2.33 7.8-3.22 5.81-9.03zm25.5 102.56c1.47-1.85 2.82-3.54 4.32-5.43-1.72-.89-3.04-1.57-4.62-2.39-.52 2.87-4.22 5.24.3 7.82zm120.37-167.36c2.37-1.33 6 .1 5.86-3.74-.03-.8-3.57-1.47-5.86-2.34zm-139.79 194.59c1.34 2.4 2.36 4.24 3.57 6.41 1.47-1.95 2.62-3.47 4.11-5.45-2.79-.34-4.91-.61-7.68-.96zm169.26-135.92c-1.64-.92-10.27.05-11.86 1.77.39.69.79 1.43.88 1.57 4-1.21 7.62-2.32 10.98-3.34zm-167.91 15.74c.34.26.68.51 1.03.77 1.32-1.47 2.88-2.82 3.82-4.5.26-.47-1.3-1.96-2.52-3.66-.99 3.12-1.66 5.26-2.33 7.39zm188.42 65.68c1.69-2.32 6.23-3.14 4.43-7.51-1.98 2.73-3.97 5.47-6.06 8.34.88.96 1.81 1.98 2.74 3 .29-.21.59-.42.88-.63-.61-.99-1.23-1.97-1.99-3.2zm-96.35-275.13c2.61-1.05 4.34-1.74 6.53-2.62-1.75-1.17-2.91-1.95-4.43-2.97-.69 1.81-1.24 3.29-2.1 5.59zm13.49 250.81c.27 1.04.64 2.45.88 3.33 2.23-.8 3.98-1.43 5.73-2.06.07-.23.14-.46.21-.69-2.15-.18-4.31-.37-6.82-.58zm25.69-47.41h7.06c-2.33-1.24-4.69-3.68-7.06 0zm55.88 89.43c-.14.54-.28 1.08-.42 1.62 2.07-.01 3.24 3.79 6.77.65-2.53-.91-4.44-1.59-6.35-2.27zm-199.42-274.47c-.49-2.32-.84-3.95-1.32-6.19-1.37 1.45-2.3 2.43-3.4 3.59 1.67.92 2.9 1.59 4.72 2.6zm143.82 238.06c-3.06.81-5.51 2-3.89 6.08 1.46-2.28 2.68-4.18 3.89-6.08zm-8-257.72h3.46c-1.16-1.47-2.36-3-3.57-4.53-.18.13-.36.25-.54.38.22 1.38.43 2.75.65 4.15z"/><path d="m284.48 264.53c.19 1.88.26 3.79.61 5.64.79 4.18.68 4.37-2.44 4.26-1.4 1.61-2.19 3.37-3.18 3.5-3.82.47-7.7.46-11.56.53-.85.02-1.7-.35-3.34-.72 1.58 1.69 2.62 2.79 3.88 4.15-1.1.49-2.03.9-3.14 1.39 1.09 3.49 2.15 6.87 3.2 10.23 2.09.33 2.55-4.29 5.4-1.29-.81.93-1.64 1.89-2.71 3.12 2.5 1.09 4.87 2.13 7.37 3.22-.32.72-.59 1.32-.89 1.99-1.05-.83-2.03-1.6-3.06-2.42-3.76 7.83-4.14 8-9.5 3.88 1.11-1.79 2.26-3.64 3.46-5.56-1.9-.64-4.18-1.4-6.69-2.24.66-1.4 1.26-2.66 2.01-4.25-1.39-.15-2.52-.28-4.22-.47 1.04-.66 1.65-1.06 1.65-1.06.17-2.3-.06-4.24.5-5.92 1.7-5.15 1.56-6.05-3.05-9.71.8-1.22 1.62-2.48 2.83-4.34 1.46 7.01 6.87 7.68 12.03 8.65 2.52.47 3.77-1.3 2.96-4.14 3.02.01 5.35-.82 5.16-4.57-1.72-.27-3.38-.79-5.01-.71-1.02.05-2.45.74-2.91 1.57-1.4 2.59-3.51 2.36-5.79 2-2.36-.38-1.74-2.22-1.76-3.68-.05-3.66-.02-7.33-.02-11.7 10.64 4.41 22.09.61 31.36 5.12-3.33 5.08-6.58 10.03-9.96 15.18 1.4.62 2.38 1.05 4.18 1.85-4.43.72-5 7.11-10.85 5.03 4.56-6.81 8.95-13.35 13.74-20.5-.75-.48-1.56-1.02-2.56-1.66-2.79 5.68-6.24-.22-9.65.66.72 1.08 1.37 2.07 2.03 3.06-.01.01-.08-.09-.08-.09zm-12.36-5.04c-.16 2.74-.28 4.91-.42 7.25 2.22-1.24 4.38-2.44 7.11-3.97-2.55-1.25-4.46-2.19-6.69-3.28z"/><path d="m207.98 360.8c2.67-4.17 7.04-4.46 9.48-.53 2.9 4.67 7.57 5.56 12.45 5.99 1.76.16 3.54.03 6.1.03-.91 1.12-1.4 2.32-2.02 2.39-3.37.38-6.3 1.28-8.03 4.55-.22.41-1.16.43-2.08.73.13-1.99.25-3.69.36-5.4-.24-.18-.47-.35-.71-.53-1.18 1.75-2.35 3.51-3.53 5.26-1.58-4.3-1.58-4.3-10.85-5.61-1.05 1.75-1.05 1.75 1.68 6.39-2.69.41-5.29.81-6.74 1.03-3.19-2.8-5.7-5.01-8.51-7.48.24-1.15.58-2.75.98-4.64-11.94-1.56-8.5-10.35-7.97-17.71 1.47.9 3.16 1.94 5.01 3.08-1.04 1.75-2.09 3.51-3.31 5.55 1.65.12 2.95.21 4.76.34-1.5 1.28-2.71 2.32-4.47 3.83 1.97-.24 3.3-.4 5.1-.62-.82.89-1.36 1.48-1.41 1.53 1.12 2.14 1.75 4.32 3.15 5.74 1.44 1.47 3.57 2.35 5.53 3.18.65.28 1.69-.36 2.47-1.39-.86-.42-1.72-.84-2.91-1.42 2-1.58 3.8-3.01 5.61-4.43.82 1.83 1.64 3.65 2.47 5.48 1.65-.85 3.3-1.7 4.95-2.55-.08-.3-.16-.6-.24-.9-2.46-.61-4.89-1.25-7.32-1.89z"/><path d="m248.49 273.57c0-2.66 0-4.75 0-6.8 3.97-1.66 4.77-6.91 1.59-9.86 6.49-.32 7.06-.92 8.76-9.1 7.09 3.87 4.02 14.5-3.7 24.83-.98-.6-1.98-1.21-3.1-1.89-1.03.82-2.06 1.64-3.55 2.82z"/><path d="m149.88 338.17c-.58.24-1.35.56-2.18.91-.67-4.6-1.32-9-2.02-13.79-1.81.68-2.71 1.02-4.15 1.55-.69-2.33-1.32-4.49-1.82-6.16 2.01-1.1 3.64-2.01 5.8-3.19 1.71 2.03 3.9 4.63 6.09 7.23l1.05-.72c.35-1.77.69-3.54 1.08-5.5.91.36 1.59.63 2.74 1.09.24-2.8.47-5.43.78-9.11 1.24 2.97 3.06 5.27 2.77 7.26-.28 1.94-2.72 3.57-4.42 5.58.79.28 1.51.54 2.56.91-1.66.52-3.03.94-4.57 1.42.89 1.48 2.06 2.76 2.45 4.24.42 1.56.09 3.32.09 5.31-2.73-3.69-2.25-9.43-7.8-11.25-.2 2.9-2.09 5.55 1.02 8.27 1.01.85.39 3.54.53 5.95z"/><path d="m276.46 292.78c.45-3.18.75-5.34 1.18-8.38-2.14 1.95-3.77 3.43-5.75 5.24-1.04-3.35-1.98-6.37-3.1-9.98 3.97.84 7.37 1.56 9.79 2.07 1.01 2.19 1.31 4.3 2.41 4.89 2.07 1.11 4.46 1.64 6.55-.9 2.28-2.78 5.06-5.15 8.06-8.14.43 2.56.74 4.37 1.11 6.56-4.93.24-8.67 2.4-12.14 5.7-1.74 1.65-4.85 1.83-8.11 2.94z"/><path d="m206.71 345.64c-1.68 3.33.74 4.51 3.04 5.97-.99.51-1.86.96-2.91 1.5-2.02-2.14-4.52-2.07-7.42-.24 1.87-4.58-1.8-4.71-4.77-5.94 1.82-1.45 3.43-2.73 5.29-4.22.62 1.29 1.13 2.35 1.64 3.42 1.52-.14 3.1-.3 5.13-.49z"/><path d="m141.5 335.91v5.18c.99.24 2.02.49 3.05.74-.43 4.24-1.48 5.39-4.99 5.35-.47-5.69-1.73-11.59 5.15-14.98v5.6c-.91-.54-1.8-1.07-3.21-1.89z"/><path d="m156.04 374.1c-2.74 0-5.15 0-7.56 0 .95-3.6 3.56-5.41 8.45-5.57-.28 1.76-.55 3.45-.89 5.57z"/><path d="m295.68 230.99c0-2.56 0-4.88 0-7.2.14-.06.28-.12.42-.19.53 1.62 1.07 3.24 1.76 5.34 1.72-1.64 3.21-3.06 4.76-4.54.45 4.87.17 5.13-6.94 6.59z"/><path d="m186.27 365.87c.46.82.99 1.77 1.5 2.67-1.27 1.99-2.57 4.01-3.87 6.03.28-3.16-2.67-7.19 2.37-8.7z"/><path d="m226.64 354.75c-4.47.65-4.47.65-5.64-5.75 2.83.46 2.83.46 5.64 5.75z"/><path d="m284.55 264.63c.47-.31 1.13-1 1.37-.87 1.37.7 2.63 1.59 4.1 2.53-1.07 1.4-2 2.6-3.16 4.13-.88-2.18-1.63-4.02-2.39-5.88.01-.01.08.09.08.09z"/><path d="m143.5 356.82c.6.07 1.2.15 1.77.22.02 1.87-3.7 2.75-.74 5.07-.92.53-1.66.96-2.41 1.4 0 0 .08.05.08.05-.47-1.52-.95-3.05-1.44-4.6.96-.75 1.88-1.48 2.8-2.2z"/><path d="m265.55 333.55c.59 2.04 1.18 4.08 1.96 6.75-1.8-.93-2.96-1.52-4.37-2.25.62-1.65 1.16-3.11 1.71-4.58.24.03.47.05.7.08z"/><path d="m147.23 365.37c-.52-2.13-.84-3.43-1.31-5.39 1.84.8 2.96 1.3 4.34 1.9-.93 1.06-1.75 2.01-3.03 3.49z"/><path d="m236.93 141.82c3.3-1.84 6.71-3.52 9.87-5.57 2.33-1.51 4.5-1.55 6.9-.54-1.36 1.38-2.95 2.53-3.88 4.08-.92 1.54-1.18 3.48-1.76 5.38 4.43.76 2.33-3.89 4.63-5.76 2.12 4.3 4.25 8.62 6.43 13.05.83-2.37 1.72-4.93 2.71-7.76 1.11.39 2.16.63 3.08 1.12 1.06.56 2.95 1.67 2.84 1.97-.52 1.48-1.27 3.34-2.5 4-3.11 1.66-6.53 2.76-9.91 4.11-.1-5.25-.67-5.66-5.64-6.78-3.5-.78-6.86-2.14-10.57-3.34.6-.7 1.11-1.3 1.79-2.1-1.68-.37-3.21-.7-4.74-1.03.25-.28.5-.56.75-.83z"/><path d="m116.7 63.25c-1.22.05-2.43.16-3.65.13-1.74-.05-3.48-.21-5.38-.34-1.44 5.45-.28 7.68 6.39 11.07-.28.77-.57 1.57-.98 2.72-1.4-1.28-2.61-2.38-4.02-3.66-.51.71-.98 1.35-1.54 2.12-1.07-2.21-2.09-4.31-3.37-6.96-.74 2.29-1.3 4.03-1.94 6.04-1.25-.78-2.43-1.52-3.39-2.13 1.61-1 3.11-1.94 5.03-3.14-1.68-1.29-2.53-1.94-3.54-2.71.64-.67 1.13-1.19 1.84-1.94-1.25-.63-2.37-1.2-3.84-1.94 1.75-1.03 3.22-1.9 4.7-2.77 0 0-.13.09-.13.09 2.27-1.39 4.17-1.47 6.55.37 2.01 1.56 4.81 2.07 7.27 3.05z"/><path d="m116.57 312.53c-1.06-.8-2.01-1.52-3.18-2.4 1.33-1.69 2.6-3.22 3.78-4.81 2.88-3.88 2.15-7.35-2.02-9.72-1.17-.66-2.35-1.3-3.55-1.87s-2.44-1.04-3.78-1.61c2.21-3.76 4.29-7.3 6.71-11.42-1.63-.35-2.86-.62-4.17-.9.32-1.01.69-2.16.88-2.77 2.47.15 4.79.64 6.96.26.94-.16 1.67-2.07 2.3-3.29.96-1.86 1.75-3.82 2.86-6.3.82 1.56 1.38 2.64 2.09 3.98-.98.25-1.76.44-2.69.67.53 1.15.99 2.15 1.6 3.48.63-1.05 1.13-1.9 1.53-2.57 3.1 1.81 6.15 3.58 9.51 5.54-2.45 2.29-4.98 4.65-7.51 7.01-.32-.24-.64-.49-.96-.73 1.22-1.9 2.44-3.79 3.76-5.85-.63-.37-1.51-1.11-2.52-1.42-1.13-.35-2.37-.3-3.57-.43 0 1.02-.1 2.05.03 3.06.49 3.92-2.48 2.69-4.19 3.16.42-1.98.82-3.87 1.23-5.77-.39-.17-.77-.34-1.16-.51-2.21 3.92-4.41 7.84-6.82 12.11 1.42.19 2.44.32 3.71.49-.5 1.04-.92 1.9-1.33 2.77 3.4 1.76 4.38 4.12 3.9 8.72-.46 4.37-.75 8.77-1.11 13.15-.05.55-.1 1.09-.17 1.82-.93.05-1.76.09-2.88.15.26-1.4.48-2.56.76-4z"/><path d="m107.7 256.23c2.07-1.74 3.91-3.3 6.02-5.08-.26 1.98-.46 3.54-.66 5.1.26.24.53.48.79.72 1.85-1.07 3.69-2.15 5.11-2.97.46 1.52 1.07 3.55 1.68 5.57.26-.04.51-.09.77-.13-.61 1.64-1.21 3.29-1.9 5.15-.8-.48-1.39-1.15-1.83-1.06-6.03 1.23-6.93-4.19-9.98-7.3z"/><path d="m113.39 333.78c-1.23-2.4-2.33-4.55-3.47-6.8 2.9-3.32 5.52-6.98 11.15-5.53-1.03 1.45-1.91 2.69-2.95 4.15.93.82 1.88 1.66 3.05 2.69-2.55 1.81-5.03 3.55-7.78 5.49z"/><path d="m171.98 239.42c-.74 2.51-1.16 4.81-2.14 6.85-.41.85-2 1.12-3.06 1.66-.44-.95-1.25-1.9-1.26-2.86-.03-2.18.34-4.37.58-7.01 1.84.43 3.67.85 5.88 1.36z"/><path d="m108.52 186.3c-.89 1.44-1.63 2.64-2.56 4.15 1.05.19 1.93.35 3.34.6-1.18 1.02-2.09 1.82-3.07 2.67-1.31-1.01-2.52-1.94-3.9-3.01 1.38-1.05 2.51-1.91 3.82-2.91-.74-.48-1.4-.9-2.33-1.5z"/><path d="m133.77 227.86c3.98 4.02 5.38 7.39 3.29 9.82.89-4.37-5.67-5.24-3.29-9.82z"/><path d="m112.01 303.68c-1.41.2-3.04.42-4.69.65.1-3.48.1-3.48 4.27-5 .13 1.36.26 2.73.42 4.35z"/><path d="m106.54 182.77c-2.13 0-3.53 0-5.17 0 0-1.83 0-3.67 0-6.31 1.79 2.19 3.23 3.95 5.17 6.31z"/><path d="m113.68 267.53c-1.34 1.27-2.49 2.36-3.88 3.68-.26-1.06-.55-2.25-.91-3.68z"/><path d="m208.51 140.64c1.96-.42 3.97-.71 5.87-1.32 1.19-.38 2.21-1.26 3.31-1.92-.15-.28-.29-.56-.44-.84-.81.15-1.61.29-2.33.42.87-3.3-2.76-3.68-3.82-6.63 1.39-.86 3.04-1.88 4.64-2.87-2.53-2.5-2.51-2.67 1.36-7.29 2.41 1.39 4.88 2.82 7.5 4.34 1.75-2.76 3.84-4.12 7.18-.63-1.78 1.1-3.45 2.14-5.12 3.17-.19-.26-.38-.51-.57-.77.49-.25.98-.49 1.77-.89-3.91-.63-7.3-1.18-10.88-1.76v7.26c1.14-.43 2.11-.8 3.46-1.3-.45 1.29-.8 2.29-1.25 3.55.87.44 1.68.85 2.41 1.22 10.19-7.79 10.19-7.79 11.67-4.05.55-.8 1.03-1.49 2.1-3.03 1.5 1.25 2.78 2.32 4.06 3.38-.2.46-.39.93-.59 1.39.49-.57.97-1.13 1.28-1.49-2.8-3.17-5.28-6.13-7.95-8.9-.61-.63-1.86-.64-2.83-.91-3.98-1.08-7.97-2.15-12.23-3.29.68-1.03 1.21-1.84 1.85-2.82 4 3.93 8.82 2.71 13.58 2.86.38-2.23.72-4.29 1.14-6.78 3.28 4.03 5.76 9.43 12.46 5.46.39 1.65.7 3 1.11 4.75-3.22-.11-6.32 1.6-8.55-2.11-.43-.71-2.51-.43-3.98-.63 3.35 6.24 6.54 12.03 11.8 16.05-.75.69-1.87 1.72-3.03 2.78-1.33-3.45-3.97-3.46-6.99-.04-1.59-4.82-4.56-1.27-6.45-1.3-.59-1.69-1.16-3.31-1.74-4.94-.41.11-.82.21-1.23.32v8.87c-1.43-1.15-2.32-1.87-3.39-2.72-2.48 3.06-4.98 6.13-7.48 9.2-1.04-3.75-4.96-4-7.65-5.85z"/><path d="m253.35 113.02c-4.67-4.63-10.41-1.18-15.21-3.86.84 0 1.28-.04 1.7.01.55.06 1.14.37 1.64.26 1.33-.29 2.63-.75 3.94-1.14-.41-1.29-.82-2.57-1.38-4.34.09-.04.9-.47 1.71-.89-.13.32-.26.64-.39.96 3.88 2.66 7.75 5.32 11.8 8.1.73-1.31 1.2-2.16 1.89-3.39 1.24.98 2.41 1.91 3.75 2.97-3.25 1.9-1.68 4.56-1.14 6.79.27 1.11 1.81 1.91 2.89 2.95 2.05-2.82 1.69-4.54-1.55-5.8 1.76-.97 2.85-1.57 4.56-2.51-.72 4.28-1.37 7.85-1.89 11.45-.13.9-.21 2.16.28 2.75 2.4 2.88 5 5.58 7.54 8.35.39-.21.78-.42 1.17-.64 0-1.72.09-3.46-.02-5.17-.22-3.6-.12-3.73 4.1-3.08-1.31 2.83-3.23 5.9 1.58 7.88-5.51.38-5.56.44-6.27 6.66-4.4-2.9-8.24-2.24-11.25 2.41-.26-.39-.53-.78-.79-1.17 2.37-2.65 4.74-5.31 7.49-8.39-3.03-2.69-6.34-5.63-10.4-9.23 2.1-.38 2.99-.54 4.99-.9-5.75-1.71-5.13-6.38-6.77-10.96-.98 5.64-2.4 9.94-8.78 9.54.89-3.35-.29-7.51 4.81-9.61z"/><path d="m217.35 154.63c-1.34 1.13-2.42 2.05-3.69 3.12-.46-.86-.9-1.67-1.46-2.72-1.27.86-2.53 1.7-3.6 2.43-.99-2-1.52-4.39-3-5.71-1.47-1.32-3.9-1.56-6.1-2.35 1.52-2.34 3.25-5.01 5.15-7.95 3.72 2.14 7.6 3.77 10.62 6.39 1.5 1.29 1.42 4.41 2.08 6.79z"/><path d="m208.6 140.55c-2.17-.83-4.52-1.39-6.46-2.6-1.19-.75-1.75-2.5-2.59-3.81.21-.2.42-.39.63-.59.89.29 1.79.57 2.97.95.49-1.3.97-2.6 1.53-4.09-1.27-.82-2.46-1.58-3.8-2.44 2.59-2.49 3.25.52 4.19 1.24 3.35-5.31 6.67-10.55 10.46-16.56.61 2.08.9 3.08 1.26 4.29-1.16 0-2.1 0-3.16 0-.46 5.98-2.06 11.27-7.57 14.43.83 3.15 1.64 6.21 2.45 9.28 0-.01.09-.1.09-.1z"/><path d="m217.44 107.35c4.72 7.56 9.91 2.1 15.31 1.07-.74 1.78-1.14 3.31-1.96 4.54-.51.77-1.76 1.68-2.52 1.55-3.3-.54-6.62-1.21-9.75-2.34-1.02-.37-1.46-2.32-2.17-3.55.37-.43.73-.85 1.09-1.27z"/><path d="m261.83 128.59c.39 2.19.79 4.45 1.26 7.09-2.39-.27-4.56-.44-6.69-.8-.45-.07-.99-.77-1.1-1.27-.09-.39.31-1.08.69-1.34 1.82-1.24 3.71-2.36 5.84-3.68z"/><path d="m246.37 125.99c3.19-.48 4.77 1.52 5.29 4.8-1.05.35-2.19.72-3.01.99-.76-1.94-1.54-3.92-2.28-5.79z"/><path d="m257.9 139c3.01 2.29 2.89 4.47 0 6.96 0-2.4 0-4.57 0-6.96z"/><path d="m265.34 205.78c.98 1.44 1.96 2.89 2.84 4.2.81-.1 1.51-.19 2.2-.28v.63c-3.1 1.67-6.2 3.34-9.78 5.26 0-2.7 0-4.76 0-6.55 1.5-1.02 3.04-2.09 4.74-3.26z"/><path d="m187.69 184.32c.75-.6 1.5-1.2 2.48-1.97.89 1.88 1.71 3.6 2.52 5.32-.27.21-.54.43-.8.64-1.36-1.37-2.72-2.74-4.08-4.1-.01-.01-.12.11-.12.11z"/><path d="m140.3 158.42c-2.12.13-4.64.28-7.63.47.29-3.7.56-7.16.82-10.62.12-.01.24-.01.36-.02.3 1.58.59 3.16.95 5.07 1.14-.89 1.97-1.55 2.52-1.98.99 2.33 1.93 4.58 2.98 7.08z"/><path d="m139.73 184.61c.65.41 1.68.7 1.88 1.27.75 2.23 1.96 3.34 4.43 3.89 1.27.28 2.34 2.51 2.98 4.08.21.52-1.2 1.7-1.38 1.93-2.75-2.84-5.04-5.38-7.53-7.7-1.32-1.23-1.66-2.22-.31-3.54.01-.01-.07.07-.07.07z"/><path d="m223.92 77.19c-2.93 1.2-5.13 2.11-7.53 3.09-.91-1.95-2-3.14-4.35-2.03-1.64.78-3.55 1-5.58.75 1.12-.59 2.24-1.18 3.61-1.91-1.31-1.7-2.54-3.3-4.21-5.48-.41 2.47-.7 4.17-1.1 6.6-1.16-1.27-1.9-2.13-2.7-2.94-1.62-1.66-2.85-4.32-5.87-1.53-.62.58-2.67-.39-3.99-.63.09-1.04.16-1.88.24-2.82 1.41-.74 3.21-1.69 5.23-2.76 1.06 1.11 2.04 2.95 3.44 3.37 1.25.38 2.98-.81 4.98-1.47.87 1.42 2.33 3.2 5.29 1.57.58-.32 2.07 1.05 3.29 1.72 2.86-2.58 2.86-2.58 6.45-.51-.91 1.07-1.84 2.16-3.02 3.55 1.88.47 3.4.84 5.82 1.43z"/><path d="m248.64 73.83c.25 1.73.49 3.46.78 5.5.96-.32 1.83-.61 2.69-.9 0 .16.09.45-.01.54-3.27 3.11-5.04 8.81-11.96 6.48 2.63-4.02 5.18-7.91 7.72-11.79.26.06.52.12.78.17z"/><path d="m234.49 80.89c-2.94-1.95-5.21-3.46-7.73-5.13 2.46-3.88 6.27-4.59 10.32-5.31.41 1.09.74 1.99 1.22 3.29-5.11-.21-3.1 3.83-3.81 7.15z"/><path d="m294.34 113.19c1.73-.36 3.26-.69 5.05-1.06-.71 2.1-1.5 4.43-2.35 6.93-1.8-2.59-3.42-4.93-5.16-7.43 1.29-1.3 2.96-2.98 4.75-4.8 2.2 3.16-1.84 3.69-2.29 6.36z"/><path d="m236.05 41.31c1.57 1.09 2.81 1.96 4.39 3.06 1.01-2 1.93-3.82 3.21-6.35 2.22 2.41 4.23 4.6 6.25 6.78-.19.21-.38.43-.57.64-2.12-.94-4.23-1.88-6.33-2.82-1.49 4.13-1.39 5.73.55 7.37-5.09 1.84-5.42 1.85-9.82-1.45-.55-.41-.95-1.81-.67-2.4.75-1.67 1.9-3.15 2.99-4.83z"/><path d="m230.29 45.48c-1.38.99-2.09 1.49-2.26 1.61-2.71-1.57-5.06-2.94-7.42-4.32.05-.14.09-.28.14-.42 2.96.98 5.92 1.94 9.54 3.13z"/><path d="m148.11 79.43c.22-.01.45-.02.67-.02 8.14.23 9.16 1.28 9.33 9.79-3.03-.52-2.84-2.82-3.06-5.02-.12-1.2-.73-2.36-1.12-3.53-.47.07-.93.14-1.4.22-.26 1.89-.52 3.78-.8 5.8-.65-.44-1.35-.91-2.21-1.48.57-1.17 1.09-2.24 1.61-3.32-1-.85-1.99-1.68-2.97-2.51.01 0-.05.07-.05.07z"/><path d="m123.95 31.53c-.99.69-1.97 1.38-3.14 2.19-.53-.71-1.02-1.37-2.06-2.76 2.09-.27 3.58-.46 5.08-.65.04.41.08.81.12 1.22z"/><path d="m194.43 228.08c-1.51 2.6-2.79 4.82-4.39 7.58-1.61-2.73-3.01-5.12-4.58-7.79 1.68-.8 3.04-1.45 5.06-2.41.58 1.06 1.18 2.15 1.78 3.23.24-.14.49-.28.73-.43.1-1.02.19-2.04.32-3.43 1.93.53 3.69 1.01 5.4 1.48-.72 1.3-1.36 2.45-2.05 3.68-.53-.43-1.26-1.06-2.27-1.91z"/><path d="m166.91 105.89c.8-1.75 1.6-3.5 2.42-5.3 2.37 2.71 2.35 2.77-2.42 5.3z"/><path d="m224.76 253.25c-5.17-9.44-4.85-8.43-1.67-10.79.26 1.16.22 2.47.83 3.31.66.92 1.92 1.4 3.18 2.25-.75 1.69-1.5 3.35-2.34 5.23z"/><path d="m207.9 248.12c3.22-.74 5.82-1.34 8.42-1.93.18.25.36.5.54.75-1.36 1.37-2.72 2.73-4.3 4.32-1.22-.83-2.66-1.8-4.66-3.14z"/><path d="m281.26 47.15c-2.86.68-5.72 1.36-9.44 2.24.9-3.31 1.55-5.94 2.38-8.51.1-.32 1.11-.35 1.7-.52 2.9 1.89 5.81 3.78 8.93 5.81-1.27.35-2.42.66-3.57.98z"/><path d="m297.73 57.05c3.88 2.11.26 3.61.29 5.97-3.03-2.19-5.54-4.01-8.79-6.36 2.32-.54 3.66-.86 4.87-1.14.77 1.75 1.41 3.19 2.04 4.62.35-.09.69-.19 1.04-.28.15-.79.31-1.59.55-2.81z"/></g></svg>