<svg enable-background="new 0 0 400 400" viewBox="0 0 400 400" xmlns="http://www.w3.org/2000/svg"><g fill="#fafafb"><path d="m12.4 4.8-6.1 9h6v1.2h-8v-.5l6.1-8.9h-5.7v-1.2h7.6v.4z"/><path d="m14 15v-10.6h3c1.6 0 2.9.5 4 1.4s1.6 2.2 1.6 3.8-.5 3-1.6 3.9-2.4 1.5-4 1.5zm1.4-9.4v8.2h1.6c1.3 0 2.4-.4 3.1-1.1s1.1-1.8 1.1-3.1-.4-2.3-1.2-3-1.8-1-3.1-1z"/><path d="m26.1 4.4v10.6h-1.4v-10.6z"/><path d="m36.1 14.6c-.8.4-1.8.6-2.9.6-1.5 0-2.7-.5-3.6-1.4s-1.4-2.2-1.4-3.8c0-1.7.5-3.1 1.5-4.1s2.3-1.6 3.9-1.6c1 0 1.8.1 2.5.4v1.4c-.8-.4-1.6-.6-2.5-.6-1.2 0-2.1.4-2.9 1.2s-1.1 1.8-1.1 3.2c0 1.3.3 2.3 1 3s1.6 1.1 2.7 1.1c1 0 2-.2 2.7-.7v1.3z"/><path d="m37.6 14.3c0-.2.1-.5.3-.6s.4-.3.6-.3c.3 0 .5.1.6.3s.3.4.3.6-.1.4-.3.6-.4.3-.6.3c-.3 0-.5-.1-.6-.3s-.3-.4-.3-.6z"/><path d="m50.2 15h-1.6l-5.3-8.2c-.2-.2-.3-.5-.4-.7 0 .2.1.7.1 1.5v7.4h-1.4v-10.6h1.7l5.2 8.1c.2.4.4.6.4.7 0-.3-.1-.8-.1-1.5v-7.3h1.4z"/><path d="m58.6 15h-5.7v-10.6h5.5v1.2h-4.1v3.4h3.8v1.2h-3.8v3.6h4.3z"/><path d="m67.1 5.6h-3.1v9.4h-1.4v-9.4h-3v-1.2h7.5z"/></g><path d="m40.18 374.52c0-6.49-.03-12.84.05-19.2.01-.61.54-1.44 1.07-1.79 3.26-2.15 4.62-4.43 3.27-7.64-4.29-10.18-4.59-20.91-4.59-31.64.02-95.36.12-190.73.2-286.09 0-.98.11-1.96.2-3.27h4.47c60.11 0 120.22.02 180.33-.04 4.23 0 8.43-.46 10.58 4.85 3.54-4.37 7.92-4.72 12.49-4.72 26.75 0 53.5-.03 80.25-.15 2.42-.01 3.71.5 4.7 2.95 1.83 4.53 8.14 6.57 12.15 3.85 1.29-.88 1.5-3.35 2.35-5.44-1.96-.34-3.23-.57-4.5-.79-.01-.09-.01-.17-.02-.26h9.56v46.51c-4.4 2.59-4.71 6.49-1.01 10.68.91 1.03 1.41 2.86 1.34 4.28-2.37 47.19.76 94.37.09 141.56-.68 47.22-.15 94.47-.15 141.7v4.64c-104.2.01-208.23.01-312.83.01zm198.22-258.07c-2.89.91-3.4 2.46-2.48 4.97.99 2.72 1.57 5.59 2.33 8.39 1.51 5.55 2.97 6.6 8.45 4.51 2.62-1 4.88-3.32 6.87-5.44 1.31-1.41 1.79-3.57 2.75-5.34 2.32-4.25 4.71-8.46 7.21-12.92 3.73 4.61 3.72 4.61.72 8.46-.25.33-.47.77-.5 1.17-.33 4.2-.62 8.41-.99 13.6 6.24-5.46 10.1-2.24 14.14 2.04 1.3 1.38 3.96 1.81 6.07 2.02 2.32.22 4.72-.32 7.74-.59-6.42 7.26-13.88 11.81-21.79 15.83-4.11 2.1-8.08 2.53-12.53 1.36-4.1-1.07-8.33-1.68-12.53-2.28-8.06-1.15-16.01-.96-23.64 2.9 9.21 4.98 18.53 8.87 28.25 3.7 2.93 1.65 5.28 3.22 7.83 4.37 3.76 1.7 7.67 3.08 11.5 4.63 5.6 2.26 9.97 5.88 12.55 11.47.27.58.7 1.09 1.17 1.8 1.74-1.03 3.29-2.17 5.02-2.9 2.47-1.04 3.26-3.01 2.4-5.11-1.16-2.8-3-5.33-4.55-7.97-.6-.34-.42-1.11-.16-1.84 2.84-8.23 5.2-9 12.32-4.07 3.47 2.41 6.15 1.86 8.47-1.74 2.71-4.2 8.31-5.56 12.82-3.1 3.2-2.54 4.46-5.83 4.52-9.94.06-4.05.76-8.1 1.18-12.15.34-.01.69-.03 1.03-.04 1.28 1.88 2.55 3.75 4.01 5.9 1.85-2.57 3.48-4.83 5.61-7.8-3.8 0-6.52 0-9.5 0 .55-1.24.94-2.11 1.45-3.24-1.97-.32-3.73-.61-5.48-.9-1.87-.31-3.77-.56-5.61-1-.76-.18-1.77-.61-2.07-1.22-1.33-2.7-.26-7.14 2.46-8.65 7.53-4.17 12.07-11.19 17.33-17.54.57-.69.61-1.83.9-2.75-1.97.68-3.19 2.38-4.38 2.36-4.34-.06-8.68-.68-12.94-1.09.86-1.76 1.47-3 2.07-4.24-.29-.14-.57-.28-.86-.41-.76.71-1.52 1.43-2.36 2.21-4.32-3.88-8.47-7.61-12.87-11.57 2.97-1.72 5.84-3.06 8.31-4.91 3-2.24 1.64-5.66 2.25-9.25-2.55 1.53-4.41 2.64-6.44 3.86-3.01-9.29-5.89-18.15-8.81-27.17-4.17 1.13-7.89 2.13-11.79 3.19.9 1.91 1.85 3.46 2.38 5.14 1.44 4.56 4.34 9.43 3.7 13.73-1.3 8.7-4.56 17.1-7.17 26.17-3.5-3.7-6.6-6.9-9.6-10.18-2.95-3.23-7.07-5.81-6.56-11.15-.88 1.48-1.76 2.96-3.09 5.2-.76-1.14-1.23-1.89-1.76-2.6-5.73-7.8-13.29-13.49-21.38-18.57-2.08-1.31-4.21-2.6-6.05-4.22-1.24-1.09-2.58-2.62-2.85-4.14-.68-3.83-.84-7.75-1.1-11.65-.25-3.71-1.8-5.35-5.7-6.95-3.28-1.34-5.08.14-6.62 2.59-2.26 3.58-4.52 7.17-6.62 10.85-2.32 4.04-4.46 8.19-6.83 12.57-1.94-2.38-3.5-4.28-5.47-6.7-1.67 7.82-3.26 14.83-1.35 21.97.94 3.51.48 6.64-2 8.99-4.61 4.36-9.4 8.57-14.44 12.4-2.27 1.73-2.79 3.77-2.56 6.03.14 1.41 1.43 2.71 2.3 4.21-1.85 1.38-4.06 3.04-6.38 4.77 3.03 6.84 5.94 13.42 9.19 20.74 2.53-5.35 6.98-5.59 11.28-6.3 5.56-.91 7.62 2.76 9.41 7.62 3.08-5.11 9.55-7.71 6.41-15.42 3.11 1.6 5.34 2.76 7.76 4 1.23-2.27 2.34-4.32 3.27-6.03-1.34-2.31-2.87-4.29-3.7-6.54-1.61-4.38-2.23-4.95-6.7-4.31-.86.12-1.71.28-2.64.44-.76-1.81-1.3-3.53-2.16-5.07-1.39-2.48-1.12-4.49.88-6.56 3.51-3.62 5.49-8.04 6.48-12.99.62-3.06 1.87-5.99 2.47-9.05.93-4.7 2.5-4.69 6.69-4.38 1.78.13 3.95.88 5.15 2.12 7.15 7.39 15.54 14.18 14.47 26.19-.07.81.65 2.15 1.37 2.5 5.67 2.75 5.98 2.76 4.41 8.9-1.24 4.83-3.2 9.49-5.04 14.15-.58 1.48-1.8 2.7-2.82 4.17-1.69-1.55-3.06-2.86-4.48-4.21zm-30.17 77.87c-3.9 6.33-7.96 12.84-11.94 19.41-3.99 6.59-7.94 13.2-11.8 19.86-.69 1.19-1.06 2.64-1.29 4.02-1.17 7.08-2.14 14.18-7.51 19.69-.61.63-.6 2.24-.35 3.27 1.13 4.55 2.22 9.13 3.77 13.55 1.53 4.37 3.34 8.7 5.5 12.79 2.01 3.81 4.64 7.3 7.02 10.91.35.54.77 1.13 1.31 1.42 8.5 4.64 17.03 9.24 25.66 13.9 1.04-1.2 1.8-2.33 2.8-3.2 2.56-2.21 2.61-4.53 1.48-7.66-3.5-9.66-6.63-19.45-9.91-29.19-.34-1-.76-1.98-1.13-2.9-5.91 1.3-6.78 2.12-8.19 7.4-.23.86-.36 1.83-.84 2.53-1.48 2.11-3.11 4.12-4.69 6.16-2.67-1.89-5.39-3.72-7.98-5.71-.54-.41-.56-1.44-.94-2.11-1.58-2.78-3.24-5.52-4.81-8.32-.46-.82-1.04-1.78-1-2.65.46-11.95 3.26-23.19 10.24-33.16 1.06-1.51 2.17-3.33 2.28-5.07.38-5.83 3.2-9.14 8.95-10 2.71-.41 3.05-2.18 3.13-4.6.1-2.96.52-6 1.36-8.84 1.24-4.18 1.79-4.27 6.01-3.33 6.39 1.41 10.77 5.61 14.78 10.41.77.92 2 2.01 3.05 2.04 2.24.08 4.5-.48 6.97-.81-4.95-6.05-24.2-18.07-31.93-19.81zm-72.97-119.64c-.15.1-.3.2-.45.3.38 1.01.74 2.03 1.14 3.03 3.1 7.65 6.49 15.21 9.25 22.98 3.64 10.22 10.91 18.12 16.53 27.07.32.51 1.32 1.01 1.82.86.56-.16 1.21-1.02 1.3-1.64.25-1.73.62-3.54-2-4.16-.79-.19-1.57-1.57-1.85-2.55-1.03-3.64-1.38-7.54-2.87-10.97-1.68-3.88-.66-6.72 1.89-9.4 1.75-1.84 3.75-3.43 5.61-5.1-1.96-4.83-3.88-6.66-6.43-5.42-5.97 2.9-10.07 0-13.88-3.98-3.43-3.59-6.71-7.34-10.06-11.02zm47.37 97.46c17.19-9.72 25.4-27.14 37.8-39.93-2.46-2.41-4.56-4.47-6.75-6.61-.59.69-1.4 1.6-2.18 2.53-8.48 10.23-16.74 20.65-25.53 30.59-3.52 3.98-4.32 8-3.34 13.42zm-70.86-121.45c-.3.15-.59.29-.89.44-.79 5.04-.7 4.98 2.27 9.35.66.96.62 2.49.65 3.77.12 5.22-.29 10.49.3 15.65.66 5.75 2.2 11.4 3.47 17.66 1.4-1.8 2.23-3.17 3.34-4.23 3.62-3.47 4-6.81 1.91-11.71-3.23-7.56-5-15.73-7.59-23.58-.83-2.56-2.28-4.91-3.46-7.35zm123.5 53.24c2.02-1.69 3.95-3.18 5.73-4.85.63-.59 1.42-1.82 1.18-2.33-.38-.82-1.45-1.56-2.38-1.84-1.91-.57-3.92-.81-5.89-1.19-4.96-.97-7.09.63-7.59 5.65-.37 3.72-.79 7.44-1.23 11.43 1.32.49 3.06 1.15 4.05 1.52 3.71-1.78 6.85-3.29 10.19-4.89-1.42-1.22-2.65-2.29-4.06-3.5zm81.58-55.65c4.97-.35 4.25 3.26 4.14 6.48 1.79.28 3.38.53 5.68.9-1.56-4.57-2.9-8.48-4.28-12.51-3.5 1.97-4.17 2.01-6.64-.37-2.36-2.27-4.48-4.78-7.16-7.67.51 1.73.84 2.86 1.22 4.14-1.43.85-2.8 1.56-4.06 2.44-1.94 1.36-.08 10.53 2.18 10.93 4.41.81 6.13-.03 8.92-4.34zm-196.02 76.22c4.28-4.95 2.85-9.74 1.79-14.29-1.56-6.68-5.01-9.99-9.71-9.75-.3 2.6-.61 5.23-.93 7.97 1.1.4 2.01.96 2.96 1.04 3.3.25 4.04 2.42 4.36 5.18.34 2.98.91 5.94 1.53 9.85zm-.29 32.43c-1.53 3.36-4.22 6.45-3.98 9.3.46 5.57 2.56 11 4.11 16.98 3.55-4.2 4.39-8.07 2.63-12.64-.76-1.98-1.6-4.71-.82-6.32 1.48-3.01.33-4.75-1.94-7.32zm21.66 19.34c-3.76 9.95.43 16.79 5.34 23.4.32.44 1.26.41 1.92.6.22-.78.78-1.63.62-2.33-1.05-4.8-2.01-9.64-3.51-14.3-.77-2.41-2.6-4.47-4.37-7.37zm189.09-88.76c1.28-.4 2.42-.76 3.67-1.15-.5-4.09-2.45-6.71-6.24-8.04-5.83-2.06-7.57 3.31-10.8 5.91-.63.51-.66 1.78-.96 2.71 8.82-4.63 10.89-4.62 14.33.57zm-253.68 36.47c-4.25 7.54-9.83 13.93-11.21 23.19 5.15-7.02 9.93-13.54 14.73-20.09-1.25-1.11-2.16-1.91-3.52-3.1zm133.84 219.33c.37.09.73.17 1.1.26 4.47-3.06 8.93-6.12 13.69-9.38-2.31-1.24-4.34-2.32-6.56-3.51-2.63 3.05-5.27 5.9-7.61 8.98-.65.87-.43 2.42-.62 3.65zm-99.59-216.21c-2.95-.96-5.03-1.4-6.9-2.28-4.21-1.96-5.42 1.97-7.33 3.91-.72.73.28 3.14.55 5.21 4.81-2.4 8.84-4.42 13.68-6.84zm-50.09 107.63c2.67-2.03 5.27-3.76 7.52-5.86.95-.88 1.39-2.51 1.62-3.87.14-.77-.39-2.18-.99-2.45-.99-.44-2.82-.69-3.37-.12-3.14 3.24-6.93 6.35-4.78 12.3zm268.67-182.46c6.84.56 10.75-1.07 14.57-5.73-.7-.91-1.42-1.85-2.24-2.92-1.87 2.28-3.55 4.31-5.23 6.36-.73-.51-1.15-.89-1.65-1.13-1.68-.81-3.39-1.56-5.09-2.34-.11 1.88-.23 3.75-.36 5.76zm-85.56 247.84c-8.7 6-8.25 4.36-6.32 11.71 2.97-2.5 5.82-4.91 8.76-7.39-.94-1.65-1.68-2.97-2.44-4.32zm-45.8 55.46c.37.15.74.3 1.11.46 2.72-.92 5.5-1.7 8.14-2.83.95-.41 2.08-1.61 2.14-2.51.06-.87-.99-2.13-1.88-2.63-.67-.38-2.05-.1-2.79.38-1.95 1.26-3.83 2.68-5.53 4.27-.69.64-.81 1.88-1.19 2.86zm59.84-76.94c-.72 5.01-6.55 7.76-3.18 13.24 4.2-2.91 5.87-8.6 3.18-13.24zm91.52-180.95c-3.28-4.88-7.96-2.5-11.89-4.8.14 2.59.23 4.17.32 5.84 3.92-.35 7.43-.67 11.57-1.04zm-271.17 112.08c-6.34 5.28-6.34 5.28-4.33 9.64 2.73-2.41 5.42-4.78 8.25-7.28-1.51-.92-2.65-1.6-3.92-2.36zm11.76-102.86c4.01-1.57 5.8-4.34 5.67-7.91-.05-1.28-1.84-2.5-2.84-3.74-.29.17-.58.33-.87.5-.64 3.59-1.27 7.19-1.96 11.15zm194.73 213.97c-2.9-2.11-5.09-3.71-7.61-5.55-.83 2.62-1.53 4.83-2.4 7.56 3.44-.7 6.25-1.26 10.01-2.01zm-57.02 1.26c.29.66.34 1.14.55 1.22 2.73 1.02 8.35-2.82 8.24-5.74-.03-.79-.96-2.17-1.48-2.18-.81-.01-2.02.77-2.35 1.52-.65 1.48-.81 3.18-1.18 4.83-1.29.12-2.38.22-3.78.35zm-41.62-294.14c-1.31 4.69-5.32 4.17-8.81 4.53 1.38 2.41 3.62 2.53 10.41.82-.54-1.79-1.07-3.57-1.6-5.35zm-115.47 228.2v9.66c1.98-.34 3.75-.65 5.94-1.02-1.99-2.9-3.7-5.38-5.94-8.64zm51.17-110.25c-.24.22-.48.43-.72.65v6.58c3.58.3 3.62-2.14 3.29-4.13-.19-1.14-1.67-2.07-2.57-3.1zm197.66-79.08c-1.63-1.63-3.32-3.33-4.68-4.69.22 1.43.53 3.47.87 5.72 1.75-.48 3.13-.85 3.81-1.03zm-237.12 137.62c.39 1.41.68 2.47 1.03 3.74 5.93-5.28 5.93-5.28 4.03-8.31-.35 2.98-1.26 5.27-5.06 4.57zm144.15 93.21c2.55 3.57 4.24.82 6.38-.15-.74-1.17-1.32-2.1-1.99-3.17-1.48 1.12-2.81 2.13-4.39 3.32zm.92-172.71c-2.2-1.17-3.72-1.97-5.42-2.88v4.87c1.76-.64 3.25-1.19 5.42-1.99zm-10.7 107v7.29c1.24-.92 2.07-1.54 2.91-2.16-.93-1.65-1.69-2.99-2.91-5.13zm38.6-88.79c4.43-2.69 4.55-3.19 1.55-5.93-.5 1.94-.99 3.82-1.55 5.93zm-118.15-21.21c-.36 1.93-.6 3.27-.93 5.03 1.62-.4 2.77-.69 4.34-1.07-1.24-1.45-2.14-2.49-3.41-3.96zm10.15 87.51c1.46-.74 2.61-1.33 4.11-2.09-1.57-1.1-2.67-1.87-4.11-2.88z" fill="#010105"/></svg>