<svg enable-background="new 0 0 400 400" viewBox="0 0 400 400" xmlns="http://www.w3.org/2000/svg"><g fill="#fafafb"><path d="m12.4 4.8-6.1 9h6v1.2h-8v-.5l6.1-8.9h-5.7v-1.2h7.6v.4z"/><path d="m14 15v-10.6h3c1.6 0 2.9.5 4 1.4s1.6 2.2 1.6 3.8-.5 3-1.6 3.9-2.4 1.5-4 1.5zm1.4-9.4v8.2h1.6c1.3 0 2.4-.4 3.1-1.1s1.1-1.8 1.1-3.1-.4-2.3-1.2-3-1.8-1-3.1-1z"/><path d="m26.1 4.4v10.6h-1.4v-10.6z"/><path d="m36.1 14.6c-.8.4-1.8.6-2.9.6-1.5 0-2.7-.5-3.6-1.4s-1.4-2.2-1.4-3.8c0-1.7.5-3.1 1.5-4.1s2.3-1.6 3.9-1.6c1 0 1.8.1 2.5.4v1.4c-.8-.4-1.6-.6-2.5-.6-1.2 0-2.1.4-2.9 1.2s-1.1 1.8-1.1 3.2c0 1.3.3 2.3 1 3s1.6 1.1 2.7 1.1c1 0 2-.2 2.7-.7v1.3z"/><path d="m37.6 14.3c0-.2.1-.5.3-.6s.4-.3.6-.3c.3 0 .5.1.6.3s.3.4.3.6-.1.4-.3.6-.4.3-.6.3c-.3 0-.5-.1-.6-.3s-.3-.4-.3-.6z"/><path d="m50.2 15h-1.6l-5.3-8.2c-.2-.2-.3-.5-.4-.7 0 .2.1.7.1 1.5v7.4h-1.4v-10.6h1.7l5.2 8.1c.2.4.4.6.4.7 0-.3-.1-.8-.1-1.5v-7.3h1.4z"/><path d="m58.6 15h-5.7v-10.6h5.5v1.2h-4.1v3.4h3.8v1.2h-3.8v3.6h4.3z"/><path d="m67.1 5.6h-3.1v9.4h-1.4v-9.4h-3v-1.2h7.5z"/></g><path d="m286.24 265.39c1.28 2.86 2.85 5.99 6.61 7.21 2.43.79 4.83 2.09 7.3 2.26 5.82.38 11.86-5.25 12.37-11.11.06-.67-.25-1.5-.65-2.07-1.03-1.46-2.02-3.03-3.37-4.15-1.42-1.19-3.21-1.95-4.88-2.82-2.14-1.11-4.57-1.81-6.42-3.26-2.98-2.34-5.38-5.45-8.43-7.67-2.61-1.9-5.03-4.4-8.76-4.46-2.3-.04-6.16-5.21-6.64-7.4-.55-2.5-1.76-4.85-3.11-8.37 0-4.12-.14-9.65.07-15.17.08-2.02.64-4.21 1.64-5.95 1.63-2.83 1.16-5.44.47-8.35-.64-2.73-1.5-5.82-.83-8.37 2.04-7.71 2.55-15.38 1.81-23.27-.27-2.85.41-5.78.43-8.67.04-3.77.33-7.62-.32-11.28-1.6-8.94-.1-17.5 2.18-26.06.86-3.24 1.46-6.54 2.12-9.83.13-.63.2-1.75-.1-1.91-3.9-2.13-3.01-6.35-4.19-9.22 3.49-1.57 6.96-3.13 9.69-4.36 2.22 0 4.08.54 5.28-.12 2.25-1.25 3.74-3.29 1.75-5.83 2.28-.44 4.54-.87 7.26-1.4.25.33.8 1.08 1.4 1.89-3.76 1.16-3.9 2.07-.97 7.79 1.68-1.51 3.34-2.81 4.66-4.41.19-.23-1.28-1.84-2.06-2.92 1.07-.94 2.44-2.24 3.9-3.4 3.76-2.97 3.21-7.25 2.77-11.06-.2-1.72-2.48-3.74-4.3-4.6-2.72-1.28-3.02-3.52-3.67-5.81-.66-2.3-2.11-3.6-4.59-3.65-1.81-.03-3.25.33-3.9 2.33-.45 1.37-1.34 2.59-1.79 3.96-.91 2.75-2.34 4.38-5.59 3.87-.82-.13-2.34.65-2.66 1.4-1.79 4.11-5.38 5.74-9.14 7.31-2.16.9-4.25 1.98-6.39 2.95-2.95 1.34-6.61-.49-6.39-3.65.2-2.93-1.21-4.53-3.2-5.71-3.83-2.27-4.6-5.69-4.38-9.68.11-2.12 2.78-3.83 4.84-3.61 1.28.14 3.14-.24 3.88-1.12 1.24-1.46 1.92-3.46 2.59-5.32.49-1.35.31-2.96.89-4.24 1.13-2.49 2.15-4.84-.3-7.19 3.86-.51 7.4-.99 11.31-1.51.97 3.09 4.3 3.49 7.72 3.71.19 1.06.18 2.17.59 3.08 1.23 2.71.03 4.65-3 4.62-5.27-.05-6.63 1.03-7.15 6.32-.22 2.22.37 4.52.23 6.76-.07 1.08-.96 2.1-1.79 3.78 3.03.37 5.84.83 8.67.99.86.05 2.12-.46 2.6-1.14 3.34-4.64 6.3-9.43 4.99-15.62-.42-1.95 3.99-6.32 6.3-6.41 2.9-.11 5.83.01 8.71-.28 3.27-.32 5.6-2.13 6.61-5.35.99-3.17-.45-5.37-2.96-7.14-1.53-1.08-3.02-2.24-4.53-3.36.27-.46.53-.91.8-1.37 3.13-.2 6.26-.4 9.44-.61-.84 4.42.2 5.68 7.43 8.62 1.04-2.71 2.07-5.4 3.25-8.47h11.55c-1.34 2.56-2.46 4.93-3.8 7.17-1.61 2.69-4.21 3.42-7.22 3.28-5.15-.25-7.2 2.18-6.2 7.08.19.94-.16 1.99.01 2.95.18 1.02.48 2.62 1.1 2.82 1.07.34 3.11.24 3.54-.44 1.64-2.56 2.38-5.84 6.6-5.19.55.09 1.3-1.1 1.99-1.72 1.99 1.77 1.42 3.24.15 5.2-1.86 2.88-3.43 6.02-4.65 9.23-1.65 4.37-.84 5.39 4.39 6.38-.2-.69-.52-1.26-.47-1.8.11-1.28-.04-3.21.69-3.69 3.24-2.13 6.75-3.84 9.84-5.52 1.53 1.95 2.75 3.5 4.15 5.27-1.25 1.67-.84 3.47 0 5.92 1.06 3.09.56 6.74.61 10.15.03 1.75-.31 3.49-.32 5.24-.03 7.07-.6 14.22.26 21.19.45 3.63-.35 4.8-3.84 5.49 1.23.89 2.17 1.45 2.95 2.17.54.5 1.39 1.53 1.22 1.81-2.19 3.76.67 7.64-.56 11.69-1.01 3.3 1.05 7.42.71 11.08-.39 4.19-.9 8.14-.1 12.45.64 3.44-.7 7.25-1.15 10.82.41 1.86 1.25 3.88 1.24 5.9-.09 18.92-.33 37.83-.5 56.75-.04 4.42-2.67 6.68-7.08 5.83-3.2-.62-5.53-2.3-6.01-5.8-5.48-.53-8.15 2.55-6.87 7.64.26 1.06-.29 2.33-.5 3.5-.71 3.85-1.55 7.67 1.61 11 1.69 1.77 3.12 1.63 4.33-.31.88-1.4 1.46-2.99 2.17-4.49.79-1.67 1.58-3.33 2.54-5.35 2.88 3.16 5.29 6.16 10.25 3.43 0 3.14.05 5.63-.01 8.11-.1 4.43-.25 8.86-.42 13.29-.12 2.93-.35 5.86-.46 8.79-.03.75.13 1.52.29 2.27.21.98.75 1.95.71 2.9-.9 18.89.65 37.79-.96 56.71-1.02 11.98.04 24.13.11 36.2.01.79-.4 1.58-.61 2.37-1.2-.43-2.39-.86-4.49-1.61-1.73 3.85-3.56 7.92-5.24 11.67-8.21 0-16.67-.03-25.13.01-12.97.05-25.95.18-38.92.23-20.69.09-41.39.16-62.08.14-.95 0-2.35-.7-2.77-1.49-1.59-2.98-4.26-2.46-6.77-2.45-2.2.01-4.19.37-4.73 3.16-.12.61-1.39 1.42-2.13 1.43-12.18.09-24.35.06-36.89.06.39-1.99.6-3.05.88-4.48-2.1-.19-4.15-.45-6.21-.53-.55-.02-1.42.36-1.64.8-2.1 4.3-6.12 4.59-10.04 4.61-5.14.02-10.28-.57-15.42-.58-18.13-.01-36.27.11-54.4.2-5.05.03-10.09-1.12-15.16.5-2.56.82-3.93-.41-3.92-3.55.08-29.56.07-59.11-.04-88.67-.13-38.17-.39-76.35-.53-114.52-.01-2.55.56-5.1.66-7.65.08-1.95-.12-3.91-.27-5.86-.1-1.22-.49-2.42-.49-3.63-.03-34.93-.02-69.86-.02-104.79 0-.66.07-1.32.14-2.4 2.98.3 5.67-.01 8.82.76 2.97.72 6.85 1.91 10.69.07 13.19-6.34 26.62-12.18 39.99-18.15 1.42-.63 3.03-.82 5.04-1.33-.39 3.7-.7 6.65-1.12 10.55.68 1.08 2.39 1.03 3.68-.72 2.06-2.8 3.78-5.85 5.96-9.27h9.97c.38 1.05.78 2.15 1.04 2.84 3.93-1.34 7.69-2.61 11.91-4.05.12 2.1.18 3.17.2 3.53 1.27 1.36 2.12 2.31 3.02 3.21.85.84 1.63 1.96 2.68 2.37 6.85 2.7 13.68 5.5 20.69 7.68 2.32.72 5.32.25 6.43-3.21.37-1.14 1.73-2.14 2.87-2.82 1.32-.79 2.99-.99 4.35-1.72 2.44-1.31 4.62-1.41 6.54.79 4.26-4.33 4.26-4.31 10.25-1.75.58.25 1.4.42 1.93.2 4.27-1.79 6.15.96 7.9 4.03.44.77.8 1.64 1.39 2.28 2.02 2.16 4.14 1.7 5.15-1.06.73-1.99 1.53-3.97 2.09-6.02.32-1.17.22-2.46.33-4.02-.04.01.57-.32.73-.16 2.57 2.37 5.12 4.75 7.58 7.23.9.91 1.45 2.19 2.39 3.04.19.18 1.91-.65 2.09-1.27.63-2.12.79-4.38 1.34-6.54.32-1.25.77-2.63 1.6-3.55 1.39-1.52 3.03-1.97 4.23.43.3.6.72 1.13 1.09 1.69 2.34 3.52 5.89 4.23 9.22 1.53.85-.69.87-2.42 1.5-4.42 4.16-.21 8.84-.46 13.36-.69-1.1 3.79-1.85 6.82-2.88 9.74-.63 1.77-1.17 3.47-4.02 1.69-1.94-1.21-4.9-.77-7.84-1.12-.26 2.17-.45 4.02-.7 5.86-.43 3.27-2.36 4.52-5.55 3.67-.72-.19-1.6-.5-2.22-.27-4.77 1.81-8.06 1.69-13.95-1.08.24 2.45.43 4.35.54 5.46-5.34 5.81-10.65 11.7-16.13 17.41-.78.81-2.49 1.22-3.67 1.07-2.5-.33-2.99.81-3.36 2.93-.4 2.23-1.41 4.34-2.13 6.51-.17.51-.53 1.14-.37 1.55 1.36 3.48-.93 5.47-3.03 7.47-2.74 2.61-3.95 5.58-2.83 9.36 1.39 4.66 2.35 9.49 4.22 13.94.82 1.96 3.19 3.93 5.27 4.58 4.01 1.25 8.29 1.77 12.5 2.15 1.58.14 3.27-.94 5.26-1.57.23.24.8.86 1.35 1.44 4.45-1.72 8.66-3.66 13.06-4.92 2.3-.66 4.95-.12 7.5-.12 1.06 1.26 2.38 2.94 3.82 4.5 1.39 1.5 1.89 6.41.59 8.84-.84 1.57-1.77 3.16-2.98 4.43-2.93 3.08-3.98 6.58-3.27 10.76.44 2.62.6 5.3.78 6.94-1.67 1.86-3.22 2.88-3.71 4.27-1.31 3.69-3.7 5.39-7.51 6.04-2.43.42-4.64 1.99-7 2.93-.79.32-1.72.32-2.6.41-.32.03-.81-.28-.95-.15-3.75 3.53-9.08.87-13.35 3.77-4.29 2.9-9.64 4.27-14.59 6.14-2 .75-2.71 2.23-1.54 4.04 4.08 6.27 9.78 8.9 17.16 7.56.97-.17 1.93-.95 2.66-1.68 1.18-1.17 2.18-2.53 3.33-3.89 5.79 2.92 10.31-.19 14.96-2.82 1.03-.58 2.15-1.05 3.28-1.37 1.8-.51 3.7-.7 5.47-1.28 2.65-.86 5.48.32 6.41 2.91 1.12 3.12 2.55 6.18 3.23 9.39 1.27 5.99-1.68 10.8-5.29 15.52-.38-.16-1.1-.65-1.28-.5-3.93 3.36-9.12 2.17-13.51 3.82-2.87 1.08-5.72 2.19-8.58 3.28-.1.04-.24.08-.33.04-6.37-2.69-8.32 3.76-12.37 5.68.41 1.43.87 2.55 1.04 3.72.44 3.15 2.21 4.78 5.36 4.61 6.29-.34 12.65-.33 18.86-1.25 4.76-.71 9.33-2.63 14.47-4.15 2.94 5.01 3.02 11.04 1.95 17.15-.4 2.27-2.43 4.64-1.99 6.57.59 2.6-.9 3.29-2.06 4.61-1.8 2.05-3.86 3.13-6.74 2.83-2.39-.25-11.23 6.01-12.01 8.26-.62 1.77-1.07 3.6-1.63 5.54 1 .49 1.88.93 2.99 1.48-.23.85-.46 1.73-.72 2.71 3.12 1.63 6.13 3.37 9.27 4.8 4.26 1.94 6.11 1.22 9.24-2.09 1.63-1.72 3.91-2.83 5.83-4.17 1.54 2.11 2.52 3.41 3.44 4.75.43.63 1.15 1.43 1.03 2.02-.62 3.04.46 5.51 1.46 8.36 1.57 4.48 1.77 9.46 2.33 14.26.38 3.31 3.45 3.46 5.33 5 .33.27.78.39 1.26.62 2.83-2.54 5.78-4.94 8.42-7.65 1.8-1.85 1.8-4.39 2.26-6.91.72-3.87-1.67-5.51-3.25-7.81-2.27-3.31-2.23-6.8-.94-10.25.46-1.23 2.1-2.02 2.61-2.47 3.67 1.53 6.55 2.8 9.64 4.16zm-157.23-76.09c.23.16.45.31.68.47-.07 1.29.37 2.99-.29 3.8-2.95 3.62-6.12 7.07-9.41 10.38-.82.83-2.41 1.29-3.63 1.27-3.47-.06-6.95-.79-10.41-.66-4.79.18-9.55.93-14.33 1.37-.92.08-2.16.19-2.75-.3-3.19-2.67-7.05-1.74-9.86-.56-2.48 1.04-5.22 4.39-5.52 6.98-.4 3.42-.71 7.88 2.61 9.77 2.39.18 4.49-.3 5.56.54 2.61 2.05 5 3.5 8.45 2.22 1.05-.39 2.43.17 3.65.12.96-.04 2.34-.02 2.8-.61 2.02-2.58 4.2-1.65 6.53-.74 2.5.98 5.01 1.94 7.58 2.68.88.25 2.26.17 2.91-.37 3.46-2.86 7.42-4.38 11.82-4.34 1.72.02 4 .59 5.01 1.77 1.38 1.62 1.62 3.89.28 6.22-1.02 1.77-1.17 4.05-1.71 6.1.34.18.67.35 1.01.53-4.77 2.79-10.29 4.55-13.03 10-.61 1.21-2.62 1.64-3.79 2.66-.77.66-1.43 1.66-1.71 2.63-.56 1.92-.8 3.92-1.23 5.88-.6 2.74 1.5 6.04 3.99 7.26 5.3 2.59 9.25-.05 13.2-2.96 1.68-1.24 3.37-3.7 4.89-3.58 1.45.11 2.71 2.86 4.02 4.47.09.11-.01.38-.02.57-3.11 3.83-3.1 3.93.71 5.45-1.41 5.68 1.9 10.15 4.41 14.87 2.12 3.99 5.69 4.52 9.04 1.34 1.62-1.54 3.23-3.1 4.85-4.64 2.83-2.7 3.16-4.74 1.27-8.17-.41-.74-.96-1.39-1.38-1.99.74-1.38 1.36-2.54 2.02-3.78-4.16-2.92-1.08-6.49-1.63-9.74 4.05-.19 4.9 2.58 5.75 5.33 1.29-.73 2.31-1.3 3.42-1.92.53 1.21.98 2.23 1.43 3.25.47 1.08.93 2.16 1.42 3.3.75-.41 1.15-.6 1.53-.83 4.76-2.86 6.05-2.53 9.29 2.06.73 1.03 1.77 2.11 2.9 2.56 4.39 1.71 8.58 1.04 12.36-1.79.58-.44 1.43-1.18 1.38-1.69-.46-4.35.94-9.34-4.13-12.18-3.05-1.71-5.77-4.43-9.02-5.28-3.19-.83-5.69-1.88-7.95-4.28-2.41-2.57-4.24-6.37-7.52-5.64-4.15-3.69-7.58-6.76-11.81-10.52-.28-3.77-.55-8.66-1.06-13.52-.16-1.5-.64-3.23-1.58-4.35-2.51-2.96-2.42-6.29-2.19-9.78.19-2.9.13-5.82.3-8.72.58-10.05-.12-20.02-1.34-29.99-.26-2.12.16-4.32.31-7.28 2.46 1.49 4.27 2.04 5.23 3.26 2.92 3.73 6.71 4.34 11.01 3.89 1.33-.14 2.71.15 4.02-.07 1.13-.19 2.4-.58 3.23-1.3 4.9-4.26 9.63-8.72 14.53-12.97 1.94-1.68 1.77-3.02.14-4.53-3.21.8-6.26 1.57-9.31 2.33-.31-.36-.63-.72-.94-1.09 1.87-3.65 3.49-7.45 5.7-10.88 1.07-1.66.65-2.36-.48-3.27-1.03-.83-2.13-1.58-3.23-2.38-1.54.92-3.37 1.49-4.28 2.73-.78 1.06-.5 2.9-.58 3.49-1.58 1.92-3.05 3.26-3.93 4.91-1.32 2.45-2.22 5.12-3.31 7.7-2.31 5.47-2.31 5.47-8.52 4.61-.84-3.92-1.41-7.78.8-11.61 1.84-3.2 3.31-6.55 2.93-10.48-.09-.95.82-2.32 1.67-2.99 3.73-2.93 4.34-7.44 5.96-11.41.31-.75-.46-2.66-1.2-3-2.27-1.03-2.6-2.84-2.14-4.7.57-2.31 1.69-4.48 2.75-7.16-.43-.5-1.28-1.52-2.16-2.52-4.58-5.2-5.67-5.31-11.49-1.45-.76.51-1.84.84-2.74.78-2.45-.16-4.93-.38-7.3-.99-1.03-.26-2.4-1.4-2.6-2.35-1.46-6.9-5.15-12.23-10.77-16.34-.43-.31-.71-.82-1.02-1.19 2.32-5.78 2.53-5.74 8.22-5.17 1.98.2 4.18-.39 6.08-1.14 3.23-1.27 6.24-2.65 9.96-2.04 5.37.87 7.35-.4 9.91-5.23 1.04-1.97 2.12-3.91 3.27-6.04-2.46-2.7-4.92-5.39-7.38-8.09-.14.36-.28.72-.43 1.07-1.83-.18-3.81-.9-5.45-.43-4.16 1.19-8.15 1.76-12.26-.08-.55-.24-1.52.16-2.17.5-3.2 1.7-6.31 3.58-9.53 5.22-3.76 1.92-7.65 3.6-11.42 5.51-2.78 1.4-5.43 3.04-8.19 4.49-1.14.6-2.36 1.11-3.6 1.42-1.57.39-3.21.52-5.42.85-.25-.18-1.13-.82-2.65-1.93-.68.96-1.7 1.79-1.9 2.78-.96 4.84-4.99 7.58-7.41 11.4-2.96 4.67-6.16 9.33-6.39 15.22-.08 2.07-.51 4.12-.78 6.18.26 1.59.8 3.48.15 4.78-1.13 2.26-.59 3.82.92 5.36 1.76 1.78 2.33 3.62 1.14 6.01-.31.62.03 1.9.53 2.51 1.13 1.37 2.64 2.43 3.81 3.78 1.51 1.75 2.98 2.03 5.25 1.26 5.49-1.87 9.61-.43 12.99 4.02 2.28 3.01 5.51 3.45 8.65 1.11.68.46 1.39.94 1.96 1.33 1.15-.53 2.12-1.31 3.12-1.35 1.16-.04 2.34.84 3.52.86 4.52.1 4.52.03 3.91 3.73 1.29 1.86 2.39 3.44 3.2 4.61-1.69 3.43-3.12 6.33-4.56 9.23-.59 1.26-1.46 2.44-1.82 3.75-1.91 7.05-10.94 11.66-17.89 9.46-4.26-1.35-8.72-2.01-12.18 2.33-1.36 1.7-3.23 2.98-4.91 4.48-2.66-2.28-5.1-3.84-7.1-.16-1.2-.54-2.25-1.46-3.15-1.33-3.99.56-8.84-.64-10.77 4.72-.13.38-.56.82-.92.91-2.38.57-1.71 2.24-1.35 3.71.72 2.92 2.86 4.42 5.58 5.25.84.26 1.8.31 2.52.75 6.83 4.15 9.8 3.81 14.74-1.84.85.69 1.7 1.39 2.53 2.06 1-.69 1.89-1.3 2.7-1.86 3.82 2.54 5.6 2.25 8.44-1.15.41-.49 1.01-1.36 1.33-1.28 3.23.81 7.09-1.5 9.65 2.02 2.6-.84 4.57-2.34 7.68-2.22 4.82.19 5.46-.03 6.29 5.03.28 1.72 1.01 3.36 1.61 5.28-.6.4-1.34 1.05-2.08 1.7zm95.42 84.86c-2.96-.74-5.32-1.35-7.69-1.92-4.6-1.1-6.09-.52-8.39 3.61-.81 1.44-1.59 3.06-1.75 4.67-.4 4.1-.24 8.25-.68 12.34-.43 3.96-.96 7.99-2.21 11.74-.67 2.01-1.34 3.44-.74 5.74.62 2.39-.04 5.16-.42 7.73-.34 2.29-1.29 4.49-1.6 6.78-.7 5.22-4.04 8.56-9.16 8.34-3.86-.17-6.6 1.34-8.93 4.26-.91 1.14-2.26 2.3-3.61 2.64-4.81 1.19-6.38 5.26-3.19 9.15 1.19 1.46 2.77 2.6 4.11 3.94 3.88 3.9 6.15 4.17 11.06 1.29.62-.37 1.44-.8 2.08-.69 4.06.69 8.07 1.85 12.15 2.22 6.19.56 12.39.93 18.52-1.09 2.75-.91 6.09-1.75 8.7-1.02 5.57 1.57 10.95.94 16.45.44.94-.09 1.97.05 2.85.38 4.5 1.68 9.7-.25 12.09-4.58 2.06-3.73.93-9.55-2.21-12.36-4.01-3.61-7.93-.88-11.94-.14-2.08.38-4.56.91-6.33.15-3.24-1.39-6.34-2.29-9.91-2.43-5.49-.22-7.7-2.84-8.1-8.23-.27-3.68-.32-7.4-.99-11.01-.5-2.7-2.92-5.14-.6-8.08.2-.25-.37-1.02-.39-1.55-.14-3.39-.55-6.82-.24-10.18.3-3.29 1.47-6.48 2.02-9.76.2-1.21.15-2.94-.56-3.75-2.33-2.65-2.54-5.29-.39-8.63zm16.97 18.32c-.54.69-1.34 2.11-2.5 3.12-6.05 5.3-6.67 11.7-4.52 19.02.72 2.46 1.64 4.38 3.5 6.18 2.77 2.69 5.16 5.77 7.74 8.66.42.47.92 1.02 1.48 1.16 4.44 1.16 9.52-2.33 10.68-6.75.69-2.62 2.13-5.08 3.45-7.49 1.1-2.01 2.52-3.85 3.66-5.55-1.02-1.2-2.32-2.03-2.3-2.82.08-2.74-1.85-3.75-3.7-4.04-3.73-.58-5.52-2.82-6.81-6.02-.57-1.42-1.53-2.75-2.56-3.9-.59-.66-1.64-1.1-2.55-1.25-1.56-.26-3.19-.21-5.57-.32zm-45.5 10.02c-1.23-4.57-2.32-9.19-3.81-13.68-.33-1.01-2.07-2.22-3.14-2.2-5.4.1-9.26 3.44-12.95 6.9-.39.36-.39 1.18-.5 1.8-.46 2.72-.99 5.44-1.31 8.17-.33 2.81-1.02 5.76-.53 8.46.77 4.22 2.63 4.83 6.73 3.18.38-.15.8-.35 1.18-.31 9.62 1.01 13.61-2.54 14.33-12.32zm-11.95-232.44c-1.52-1.65-2.84-3.3-4.38-4.71-1.61-1.47-3.42-2.72-5.57-4.4-1.1 3.92-2.85 7.26-2.68 10.49.12 2.36 2.29 5.32 4.4 6.7 2.42 1.58 5.12-.02 6.78-2.54.3-.46.37-1.14.75-1.47.77-.64 1.67-1.47 2.54-1.49.53-.01 1.25 1.26 1.59 2.08.33.8.3 1.75.41 2.63.55 4.42 1.67 5.25 6 4.5.21-1.42.17-2.91.66-4.19 2.28-5.97.97-10.68-4.36-14.66-1.96 2.27-3.93 4.52-6.14 7.06zm-94.39-21.8c-1.3.58-3.02 1.15-4.52 2.08-1.35.83-2.85 1.84-3.57 3.17-1.15 2.1-2.16 4.49-2.38 6.83-.16 1.68 1.08 3.5 1.69 5.25.04.68.71 1.06 1.42 1.38 4.26 1.99 6.35.77 7.06-3.93.23-1.52.91-2.96 1.29-4.47.2-.81.34-1.69.24-2.5-.29-2.32-.71-4.63-1.23-7.81zm32.65 4.73c1.02-1.12 2.34-2.77 3.87-4.21 2.45-2.3 1.27-4.74.34-7.05-.99-2.46-3.01-1.79-5.1-1.49-2.46.36-3.84 1.25-4.02 3.85-.06.83-.45 1.8-1.01 2.41-2.29 2.45-.61 3.38 1.45 4.3 1.41.64 2.79 1.36 4.47 2.19zm48.55 231.86c8.26-1.98 8.8-2.61 8.34-8.66-.2-2.61-1.8-4.49-4.1-4.52-2.21-.02-4.79 1.02-4.78 4.07 0 2.94.33 5.88.54 9.11zm106.8-66.6c-1.5 1.85-2.33 2.88-2.73 3.37.73 1.89 1.52 3.23 1.76 4.66.48 2.95 2.38 4.2 5.12 3.04 1.29-.54 2.53-1.17 4.58-2.12-3.1-3.17-5.75-5.88-8.73-8.95zm-75.38-170.05c2.05-1.56 3.95-3 5.91-4.49-1.77-2.11-3.26-3.89-4.69-5.6-5.54 2.9-5.81 5.04-1.22 10.09zm-19.36 181.98c3.38 4.93 4.43 5.03 10.1 1.08-.91-2.95-2.62-4.93-6.1-5.21-.2 1.13-.36 2.08-.57 3.29-.65-.53-1.11-.91-1.72-1.41-.59.77-1.17 1.53-1.71 2.25zm-39.76 81.79c2.8-2.36 6.16-3.9 5.05-7.85-.37-1.32-2.22-3.09-3.39-3.09-1.55 0-3.2 1.4-2.74 3.75.43 2.18.67 4.39 1.08 7.19zm-75.64-84.35c2.89 1.14 5.51 1.27 6.93-1.81.49-1.07.51-3.07-.16-3.77-.91-.93-3.13-1.79-4.02-1.3-2.42 1.35-3.79 3.67-2.75 6.88zm-7.24 85.29c1.1 2.3 2.05 4.28 3 6.26 4.43-2.33 4.87-6.62.93-9.53-1.21 1.01-2.47 2.06-3.93 3.27zm184.48-136.64c-3.21 1.1-6.14 2.18-5.39 6.33 5.56.16 7.9-.5 5.39-6.33zm-136.5-36.22c4.31.65 5.81-.97 5.74-3.95-.07-2.88-2.28-2.95-4.4-3.22-.5 2.64-.92 4.87-1.34 7.17zm5.8-87.6c-1.21-1.38-2.32-2.64-3.79-4.32-.64 3.57-1.14 6.36-1.66 9.27 3.04-.35 3.04-.35 5.45-4.95zm-27.4 187.4c1.52-.4 3.71-.41 4.04-1.19.55-1.31 0-3.14-.31-4.7-.05-.25-1.44-.55-1.98-.32-2.43 1.06-2.58 3.08-1.75 6.21zm217.63-189.16c-2.66-1.7-4.73-3.2-6.2-.7-.47.81 1.12 2.83 1.77 4.3 1.38-1.13 2.78-2.26 4.43-3.6zm-35.1 262.33c3.57-.07 6.12-3.26 5.38-5.72-.47-1.56-1.65-2.08-2.57-.58-1.13 1.8-1.78 3.9-2.81 6.3zm12.43 19.66c-.49.16-.99.33-1.48.49.47 1.64.8 3.34 1.48 4.89.25.58 1.31.81 2 1.21.36-.95 1.28-2.17.97-2.81-.66-1.41-1.94-2.53-2.97-3.78zm-216.7-266.76c.09.43.19.87.28 1.3 1.62-.2 3.5.04 4.75-.74.87-.54.86-2.48 1.24-3.8-.33-.11-.65-.22-.98-.32-1.76 1.19-3.53 2.38-5.29 3.56zm270.56 27.05c-1.12-2.28-2.04-4.14-2.95-6-.42.11-.84.21-1.26.32.12 2.21.24 4.42.39 7.2 1.73-.69 2.5-1 3.82-1.52zm-2.48 54.28c-1.81-1.53-3.15-2.65-4.48-3.78-.23.27-.46.55-.68.82.82 1.78.68 4.69 5.16 2.96zm-120.74-102.98c-3.78.54-4.65 2.01-2.86 5.62 1.05-2.07 1.83-3.59 2.86-5.62z" fill="#010105"/><path d="m242.46 95.2c-1.92.92-3.77 2.31-5.79 2.64-2.92.47-5.79.53-6.69 3.08-2.64.19-4.7.63-6.66.39-1.79-.22-4.51-.74-5.05-1.93-1.72-3.79-5.19-6.89-4.3-11.89.73-4.08 1.87-5.26 5.93-5.2 2.55.04 5.15-1.1 7.66-1.92 6.7-2.17 7.65-1.91 11.72 3.7.66.9 1.55 1.73 1.9 2.74.41 1.16.36 2.48.48 3.73.11 1.25.17 2.5.26 3.76.17.29.36.59.54.9z" fill="#010105"/><path d="m295.89 32.36c-4.06-1.18-4.16-1.3-4.72-6.7 3.93-1.03 6.76.85 8.52 2.6-1.08 1.16-2.14 2.3-3.8 4.1z" fill="#010105"/><path d="m336.45 37.02c1.97-1.73 3.39-3.4 5.2-4.29.51-.25 2.14 1.77 3.53 2.99-3.14.46-5.48.81-8.73 1.3z" fill="#010105"/><path d="m284.13 32.9c-.54 1.63-1.08 3.26-1.62 4.9-.82-.38-1.64-.77-2.47-1.15.76-1.51 1.52-3.02 2.28-4.52.6.25 1.21.51 1.81.77z" fill="#010105"/><path d="m116.17 84.61c1.94 1.17 4.05 2.61 2.86 6.09-.3.87.72 2.24 1.26 3.32 1.11 2.21 2.97 4.05 1.88 7.07-.32.9 1.25 2.68 2.24 3.81 2.73 3.11 2.6 3.9-1.17 5.08-.85.27-1.79.45-2.51.94-5.33 3.64-10.63 1.79-15.85-.13-4.73-1.75-5.94-7.97-2.63-11.66.76-.85 1.11-2.65.81-3.78-1.38-5.06 2.07-9.55 7.35-9.52 1.68.01 3.37-.69 5.76-1.22z" fill="#010105"/><path d="m155.01 115.61c1.34 1.48 2.45 2.7 4.1 4.51-2.14 2.01-3.98 4.2-6.29 5.64-.84.52-3.23-.36-4.09-1.33-.53-.6.08-2.89.87-3.86 1.52-1.84 3.53-3.28 5.41-4.96z" fill="#010105"/></svg>