<svg enable-background="new 0 0 400 400" viewBox="0 0 400 400" xmlns="http://www.w3.org/2000/svg"><path d="m6.8 9.5c.6.3 1.3.7 2.1 1.1-.4.4-.7.8-.9 1.2-.7-.4-1.3-.8-1.8-1.1s-1.1-.6-1.6-.8c.2-.4.5-.8.7-1.2.4.2.8.5 1.5.8zm.9 6.9c-.3.6-.5 1.1-.7 1.7s-.4 1.1-.6 1.7c-.6-.4-1.1-.7-1.6-1 .7-1 1.2-1.8 1.5-2.4.3-.5.6-1.1.8-1.7.3-.6.5-1.2.8-1.8.3.3.8.6 1.3.8-.7 1.3-1.2 2.2-1.5 2.7zm.1-11c.4.3 1 .7 1.7 1.1-.5.2-.8.6-1.1 1.1-.5-.6-1-1-1.4-1.2s-.9-.6-1.5-.8c.2-.4.5-.7.9-1.1.5.3.9.6 1.4.9zm10.5 13.1c1 .4 2 .6 3.1.7-.4.4-.7.8-.8 1.3-.9-.2-1.9-.6-3-.9-1-.4-2-.9-2.8-1.6-.5.4-1.1.9-1.9 1.3s-1.9.9-3.3 1.2c-.1-.3-.5-.8-1.1-1.3 1 0 2.1-.3 3.2-.8 1.2-.5 1.9-1 2.3-1.7h-3.2c-.4 0-1 0-2 .1v-1.2c1 0 1.7.1 2 .1h3.3v-1h-2.3c-.2 0-.9 0-2 .1v-1.2c1.2 0 1.9.1 2 .1h2.3v-.8h-4.1c0-.7.1-1.2.1-1.6 0-.5 0-1.1-.1-1.8h4.1v-.7h-2.5c0-.6.1-1.1.1-1.6v-.6h-.5c-.4 0-1 0-1.8.1v-1.3c1.2 0 1.9.1 2.1.1h.2c0-.3 0-.8-.1-1.4h1.4c0 .6-.1 1-.1 1.4h3.4c0-.4 0-.8-.1-1.3h1.5c0 .4-.1.9-.1 1.3.7 0 1.5 0 2.5-.1v1.2c-1 0-1.8-.1-2.5-.1v.6c0 .3 0 .8.1 1.5h-2.5v.8h4.1c0 .7-.1 1.3-.1 1.8s0 1 .1 1.5h-4.1v.8h1.4c.8 0 1.8 0 2.9-.1v1.2c-1 0-1.9-.1-2.8-.1h-1.5v1h3.2c.3 0 1 0 2.1-.1v1.2c-1.1 0-1.8-.1-2.1-.1h-3.4l-.1.1c1.4 1 2.4 1.5 3.4 1.9zm-4.1-6.7v-1.3h-2.7v1.3zm2.2-4.1v-1.1h-3.4v1.1zm1.9 4.1v-1.3h-2.8v1.3z" fill="#fafbfa"/><path d="m37 6.7v2.3 5.4c1 0 1.8 0 2.2-.1v1.3c-.6 0-1.5-.1-2.5-.1h-11.9c-.7 0-1.3 0-1.8.1v-1.3c.5 0 1.1.1 2 .1v-5.2c0-1 0-1.8-.1-2.5h3.7c0-1.3 0-2.1-.1-2.5h1.5c0 .4-.1 1.3-.1 2.5h2.2c0-1.2 0-2.1-.1-2.6h1.5c0 .4-.1 1.3-.1 2.6zm-12.3 13.7c-.3-.4-.7-.8-1.1-1.1 1.1-.4 2.1-.9 2.9-1.3.8-.5 1.5-1 2.1-1.6.4.4.9.8 1.3 1.1-2.5 1.4-4.2 2.4-5.2 2.9zm3.9-10.1v-2.4h-2.2v2.4zm0 4.1v-2.9h-2.2v2.9zm3.5-4.1v-2.4h-2.2v2.4zm0 4.1v-2.9h-2.2v2.9zm.4 2.9 1-1.1c.6.3 1.4.7 2.5 1.3s2 1.1 2.7 1.5c-.4.4-.8.8-1.1 1.3-.8-.8-2.5-1.7-5.1-3zm3.1-7v-2.4h-2.1v2.4zm0 4.1v-2.9h-2.1v2.9z" fill="#fafbfa"/><g fill="#010103"><path d="m96.42 283.46c3.82 2.29 7.68 4.27 11.18 6.79 3.75 2.7 5.74 6.76 5.51 11.34-.37 7.34-1.22 14.66-1.96 21.97-.08.81-.6 1.73-1.2 2.29-6.3 5.85-12.66 11.64-19.58 17.98-.44-3.75-.85-6.87-1.18-10-1.33-12.91-3.07-25.79-3.78-38.73-.34-6.26 1.2-12.63 2-18.93.75-5.88 1.75-11.73 2.42-17.61.12-1.08-.43-2.63-1.23-3.37-5.91-5.49-13.25-7.07-20.88-6.04-6.59.89-12.99 3.15-19.54 4.43-4.76.93-9.63 1.73-14.45 1.73-3.43 0-5.38-2.84-5.77-6.36-.62-5.64.24-7.63 4.06-9.3 11.71-5.12 23.82-8.36 36.73-7.88 13.29.5 18.66-5.81 21.52-17.54 2.96-12.14 2.74-12.18-8.69-17.27-10.11-4.5-20.13-9.19-30.34-13.45-4.45-1.85-7.65-4.77-10.45-8.51-9.03-12.06-14.14-25.67-15.27-40.57-1.12-14.71-1.43-29.48-2.22-44.22-.16-2.87.82-4.59 3.44-5.68 1.63-.68 3.09-1.76 5.16-2.98 1.88 4.84 3.79 9.42 5.44 14.09 4.85 13.71 7.33 27.87 7.87 42.38.43 11.7 6.6 19.37 16.98 24 7.78 3.47 16.1 4.57 24.49 5.11.8.05 2.35-1.37 2.47-2.25 1.07-8.06 2.56-16.14 2.63-24.23.1-11.61-1.31-23.24-1.28-34.85.02-12.39 3.56-23.82 12.11-33.27.37-.4.51-1.01.94-1.91 8.1 8.96 14.91 17.6 16.84 28.99.88 5.21.1 10.39-3.42 14.59-3.84 4.58-3.92 8.85-1.83 14.56 2.65 7.23 3.42 15.15 5.1 23.25 3.4.42 7.48 1.01 11.58 1.34.92.07 2.2-.5 2.82-1.21 12.23-14.03 21.33-29.68 25.28-48.13 1.29-6.05-.45-11.35-2.68-16.54-1.8-4.2-1.36-7.3 1.51-10.89 4.79-6 9-12.45 13.72-19.1 5.67 8 11.12 15.6 16.43 23.3.5.72.29 2.17.01 3.16-5.86 20.87-11.78 41.72-17.71 62.56-.27.95-.58 2-1.2 2.71-8.15 9.35-16.04 18.96-24.68 27.83-4.3 4.41-9.8 7.79-15.13 11.03-8.99 5.47-13.78 13.39-15.44 23.56-.43 2.64.23 4.33 2.6 5.75 6.5 3.89 13.46 5.63 21.02 5.97 5.84.26 11.78 1.04 17.41 2.57 3.59.98 6.68 3.77 10.37 5.98-6.58 5.35-13.61 7.74-20.98 9.3-6.55 1.39-13.14 2.65-19.7 4-4.09.85-6.75 2.93-8.17 7.25-2.53 7.74-5.85 15.22-8.63 22.89-.84 2.3-2.04 3.75-4.35 4.6-2.78 1.04-5.45 2.41-7.9 3.52z"/><path d="m371.9 309.36c-10.51 6.69-21.17 10.32-32.92 9.73-29.31-1.45-58.58.06-87.87.57-20.07.35-39.97-1.61-59.58-6.11-.92-.21-2.05-1.03-2.43-1.86-1.52-3.34-2.78-6.81-4.35-10.76 25.75-3.4 51.18-6.75 76.85-10.14.45-7.16 1.07-14.16 1.3-21.18.32-9.73.28-19.47.53-29.2.06-2.32-.8-3.07-3.03-3.29-12.13-1.22-24.27-2.33-36.33-4.04-4.64-.66-9.41-2.15-13.52-4.38-5.64-3.07-7.21-8.7-6.7-15.23 20.42-1.16 40.7-2.32 61.64-3.51-2.47-49.37 3.63-98.05 6.6-146.89 7.97.32 13.43 4.27 15.39 11.53 1.33 4.95 2.24 10.05 2.84 15.14 1.86 15.77 4.05 31.53 4.99 47.37.64 10.87-.35 21.87-1.04 32.78-.73 11.61-2.03 23.18-2.92 34.78-.09 1.2.63 2.85 1.53 3.67 7.73 7.06 17.1 8.89 27.15 7.79 5.88-.65 11.67-2.11 17.55-2.78 11.1-1.26 21.33.88 30.79 9.23-8.78 2.77-16.82 5.61-25.04 7.82-11.06 2.99-22.4 4.09-33.86 4.27-13.34.21-20.42 6.26-22.79 19.44-1.81 10.04-.87 20.08.74 30.05.16.97 1.31 2.02 2.26 2.59 10.2 6.07 21.48 7.97 33.12 8.33 8.15.25 16.32.11 24.45.6 6.66.4 13.09 2.16 18.33 6.57 2.31 1.97 4.08 4.55 6.32 7.11z"/></g></svg>