<svg enable-background="new 0 0 400 400" viewBox="0 0 400 400" xmlns="http://www.w3.org/2000/svg"><g fill="#fafafb"><path d="m12.4 4.8-6.1 9h6v1.2h-8v-.5l6.1-8.9h-5.7v-1.2h7.6v.4z"/><path d="m14 15v-10.6h3c1.6 0 2.9.5 4 1.4s1.6 2.2 1.6 3.8-.5 3-1.6 3.9-2.4 1.5-4 1.5zm1.4-9.4v8.2h1.6c1.3 0 2.4-.4 3.1-1.1s1.1-1.8 1.1-3.1-.4-2.3-1.2-3-1.8-1-3.1-1z"/><path d="m26.1 4.4v10.6h-1.4v-10.6z"/><path d="m36.1 14.6c-.8.4-1.8.6-2.9.6-1.5 0-2.7-.5-3.6-1.4s-1.4-2.2-1.4-3.8c0-1.7.5-3.1 1.5-4.1s2.3-1.6 3.9-1.6c1 0 1.8.1 2.5.4v1.4c-.8-.4-1.6-.6-2.5-.6-1.2 0-2.1.4-2.9 1.2s-1.1 1.8-1.1 3.2c0 1.3.3 2.3 1 3s1.6 1.1 2.7 1.1c1 0 2-.2 2.7-.7v1.3z"/><path d="m37.6 14.3c0-.2.1-.5.3-.6s.4-.3.6-.3c.3 0 .5.1.6.3s.3.4.3.6-.1.4-.3.6-.4.3-.6.3c-.3 0-.5-.1-.6-.3s-.3-.4-.3-.6z"/><path d="m50.2 15h-1.6l-5.3-8.2c-.2-.2-.3-.5-.4-.7 0 .2.1.7.1 1.5v7.4h-1.4v-10.6h1.7l5.2 8.1c.2.4.4.6.4.7 0-.3-.1-.8-.1-1.5v-7.3h1.4z"/><path d="m58.6 15h-5.7v-10.6h5.5v1.2h-4.1v3.4h3.8v1.2h-3.8v3.6h4.3z"/><path d="m67.1 5.6h-3.1v9.4h-1.4v-9.4h-3v-1.2h7.5z"/></g><path d="m347.59 374.96c-8.73.14-16.76-.9-24.91-.15-8.3.76-16.74-.08-25.12-.14-8.27-.06-16.53-.01-24.8-.01-.03-4.4-.82-5.46-5.09-6.32.11.58.1 1.1.29 1.52 1.24 2.71-.18 5.17-3.2 5.16-21.04-.09-42.07-.24-63.11-.39-9.29-.07-18.57-.22-27.86-.25-34.02-.1-68.04-.21-102.06-.19-6.55 0-13.11.53-19.66.8-.67.03-1.34-.09-2.01-.15-2.99-.23-4.45-1.29-4.13-4.82.75-8.35 1.04-16.75 1.42-25.13.15-3.42.03-6.85.03-10.74 1.59.11 2.92.21 4.14.3 1.05-1.04 2.25-2.22 3.53-3.49-1.1-4.94-4.16-6.7-9.49-4.57 1.49-50.2-.15-100.1.14-150.02.29-50.11.06-100.23.06-150.79 4.68 0 9.01.01 13.35 0 24.51-.07 49.05-.99 73.5.17 10.49.5 21.02 1.16 31.54 1.23 15.83.11 31.7-.91 47.46.09 7.52.48 14.82-1.09 22.32-.25 7.41.82 14.98.16 22.47.15 7.61-.01 15.22 0 22.83-.05 7.49-.04 14.99-.15 22.48-.21.89-.01 1.77.08 2.63.12.85 4.27.73 3.8 4.68 1.81 2.84-1.43 6.48-1.64 9.78-1.71 4.46-.1 8.92.66 13.39.68 3.85.02 7.71-.48 12.04-.78.33 1.61 1.07 3.65 1.09 5.7.07 7.14-.14 14.29-.17 21.43-.05 9.73-.13 19.47-.01 29.2.42 33.34 1.06 66.68 1.35 100.02.15 16.66-1.41 33.41-.11 49.96 1.15 14.65-1.26 29.16.48 43.8 1.29 10.82.45 21.9.48 32.86.04 13.54.07 27.08-.03 40.62-.03 3.44-.78 6.88-.83 10.32-.04 2.63.54 5.27.77 7.91.17 1.95.22 3.93.34 6.31zm-233.42-89.01c-2.15 1.11-4.49 2.83-7.1 3.48-1.8.45-3.98-1.75-5.99.16-2.78-2.29-5.25.04-7.8.59-2.09.45-4.59 5.06-3.43 6.71.89 1.28 2.74 2.3 4.32 2.59 1.91.35 3.99-.18 6-.33 1.47.11 3.23-.63 4.24-.06 1.9 1.07 3.14.45 4.41-.65 3-2.61 6.14-2.6 9.91-1.65 3.08.78 6.09 3.88 9.7 1.24.24-.17.97.48 1.51.55 1.76.25 3.54.41 5.3.61.11-.39.22-.79.33-1.18 2.36 1.98 4.73 3.96 6.68 5.59 1.94-.72 4.08-2.08 4.62-1.61 2.55 2.22 4.24.78 6.2-1 2.45 3.15 4.88 1.86 7.19 0 2.52-2.03 4.77-1.42 6.85.59.78.75 1.28 1.78 2 2.81 2.08-1.72 3.5-2.9 4.93-4.08-.07-.36-.14-.73-.22-1.09-3.79 2.32-6.96 2.28-9.12-1.68.66-1.54 1.31-3.09 1.97-4.63-.22-.15-.44-.29-.65-.44-.73.51-1.47 1.02-2.55 1.77-.68-4.09-3.31-4.14-6.31-3.63-3.34.56-6.49.17-8.91-2.55-2.37-2.67-4.68-5.38-6.34-7.28.47-3.08 1.34-5.35 1.02-7.44-.82-5.31-2.19-10.55-3.48-16.47 5.25-3.43 4.92-9.78 4.81-15.87-.07-3.98-1.21-7.94-1.38-11.93-.2-4.79.03-9.63 3.94-13.24-1.04-1.31-1.99-2.3-2.67-3.43-.52-.86-1.17-2.05-.95-2.88 1.39-5.18 7.34-9.75 12.31-9.89-.06-.99-.13-1.98-.19-2.98.92.13 1.83.36 2.75.36 1.19-.01 2.37-.23 3.55-.32.95-.07 1.91-.1 2.86-.13 1.25-.05 2.94.42 3.69-.22 2.87-2.45 5.44-5.26 8.12-7.93-4.49-.59-8.44-.78-9.6-5.24-1.78.16-3.05.34-4.31.37-1.42.03-2.84-.12-4.25-.09-.64.02-1.57.64-1.87.39-2.35-1.92-3.93-.08-5.63 1.04-4.77 3.14-6.08 3.05-10.23-1-1.2-1.17-2.4-2.38-3.37-3.73-.62-.86-1.42-2.32-1.09-2.99 1.8-3.67-1.3-5.03-2.75-7.18-1.49.73-2.74 1.34-4 1.95-.2-.16-.4-.32-.6-.48.5-1.07 1-2.13 1.6-3.42-.34-.45-.93-1.23-1.51-2 4.62-3.68 4.5-7.06-.02-13.17.33-1.72.78-3.09.81-4.46.02-1.22-.84-2.56-.57-3.66.94-3.83 2.2-7.58 3.5-11.9-.17-.23-.83-1.12-1.21-1.65.6-2.49 1.13-4.65 1.72-7.09 1.62-.11 4.66 1.1 4.85-2.55.17-3.29 1.93-4.71 4.98-4.92 0-2.82 0-5.4 0-8.24h3.7c-.4-1.27-.71-2.28-1.09-3.48 6.52 2.68 7.07-3.67 10.57-6.1-2.91-2.12-1.72-3.86.01-5.71 1.13-1.21 2.86-2.69 2.81-3.99-.13-3.06 1.62-4.98 2.96-7.24.38-.64.85-1.55.66-2.13-1.08-3.28.81-5.47 2.84-7.34 3.9-3.59 4.22-7.76 2.69-12.58-5.33.39-9.64 2.86-13.66 6.66 3.2 2.45 2.15 4.82-.04 6.92-1.9 1.83-4.04 3.4-6.03 5.06 1.48 4.16.97 6.09-2.27 8.97-2.55 2.26-2.47 2.8.59 3.88-.01.32-.02.64-.02.96-1.27-.08-2.54-.16-4.32-.27-2.77 2.53-5.96 5.45-9.25 8.46-2.46-2.17-4.7-4.16-6.95-6.14-1.41.67-2.67 1.27-4.89 2.32-.58-2.72-1.12-4.95-1.51-7.2-.85-4.93-.85-5.01 3.77-6.93 2.6-1.08 3.12-3.12 1.93-5.12-1.99-3.36-1.01-7.94-4.52-10.6-.21-.16-.18-.62-.28-.94-.52-1.56-1.04-3.11-1.56-4.67-.19.08-.38.15-.56.23.35-1.4.7-2.8.95-3.76-2.99-.81-5.42-1.46-8.31-2.24-.65 3.92-1.29 7.79-1.99 12 1.43 1.28 3.15 2.82 4.94 4.42-.43.67-.69 1.17-1.04 1.6-2.95 3.6-3.74 7.17-1.16 11.56 1.92 3.27 4.57 6.95.91 10.34 2.67.59 5.05 1.12 8.15 1.8-1.82 2.48-3.04 4.13-4.35 5.92 1.12.35 2.26.71 3.87 1.22-2.43 3.96.53 6.4 2.44 9.18.63.92 1.37 1.78 1.94 2.74.31.53.59 1.24.51 1.82-.61 4.14-4.1 7.69-8.34 8.62-1.4.31-2.79.61-4.19.92.2.2.4.39.6.59-1.41 2.04-2.82 4.09-4.4 6.38-1.77-3.06-3.97-4.42-7.35-4.03-1.18.13-2.74-.81-3.74-1.7-3.77-3.34-7.38-6.85-11.04-10.32-6.47-6.13-6.68-6.12-12.14.87-.13.16-.13.41-.1.32 1.81 3.18 3.43 6.22 5.23 9.15 2.3 3.75 4.47 7.74 9.21 8.94 2.52.64 3.74 1.82 2.14 5 2.91-1.52 5.81 5.19 8.05-2.13 1.71 2.05 3.15 3.34 4.04 4.93.97 1.73 1.26 3.83 2.18 5.59.38.73 2.01 1.63 2.4 1.39 2.09-1.3 3.04.26 3.73 1.48.5.88.21 2.24.17 3.38-.02.52-.57 1.2-.39 1.52 1.84 3.29 1.39 7.65 4.99 10.17 1.43 1 2.48 2.57 3.57 3.99 1.72 2.23.63 4.91-2.17 4.93-1.93.01-2.54.95-3.5 2.34-.98 1.42-2.72 3.17-4.19 3.24-3.45.15-6.95-.63-10.25-1.02-2.09.36-4.38.31-6.26 1.17-2.53 1.16-5.03 2.73-6.92 4.72-.7.74-.14 3.57.77 4.71 1.32 1.65 3.47 2.63 5.33 3.94.91-.78 1.62-1.4 2.34-2.02.09.39.18.77.27 1.16 1.98-.17 3.96-.37 5.94-.49.53-.03 1.25-.06 1.57.25 2.43 2.33 4.61 1.19 6.71-.53 4.84 3.54 10.24 4.79 15.96 5.02 1.73 2.8-1 7.84 4.83 8.66-.58 1.47-1.38 2.65-1.42 3.86-.04 1.06.78 2.15.89 2.43-1.65.29-4.13.53-4.13.76.01 4.22-.38 8.63.75 12.61 1.3 4.59 1.29 8.49-1.09 12.3.51 1.64.45 3.29.72 4.9.15.92.72 1.84 1.3 2.6.31.39 1.43.31 1.56.66 1.59 4.43 2.09 8.93.5 13.51-.21.62-.2 1.37-.09 2.03.2 1.21.83 2.4.78 3.58-.1 2.56-.93 5.15-.71 7.66.3 3.46-.51 5.73-3.2 8.28-2.28 2.16-3.49 3.3-6.09.52.02.49.04.98.05 1.48-1.95-.17-3.94-.28-5.88-.38zm164.33-115.89c-3.05 2.98-5.33 1.24-7.88-.73-2.75-2.13-5.17-5.62-9.6-3.67-.33.15-1.07-.25-1.42-.59-4.76-4.58-9.49-9.2-14.13-13.72-1.42.45-2.56.81-3.61 1.13 0-1.54 0-2.97 0-4.81-1.74.95-2.83 1.55-3.97 2.17-.49-1.45-.88-2.59-1.28-3.74-.16.23-.32.46-.48.69-1.79-.89-3.98-1.41-5.29-2.76-2.58-2.67-5.02-5.11-9.1-3.98-.57-5.23-8.76-14.32-13.04-14.53-.36-6.56-2.81-12.22-7.84-16.54.19-1.18.85-2.53.47-3.42-1.82-4.17-4.4-7.84-8.78-9.69-3.45-1.46-6.84.7-6.86 4.46-.01 1.76.79 3.55 1.38 5.27.53 1.55 2.12 3.27 1.76 4.49-.99 3.38.83 5 2.98 6.73 1.91 1.54 3.71 3.24 5.68 4.71 4.48 3.34 2.95 8.62 4.26 12.98.12.4-.57 1.18-1.04 1.62-2.96 2.7-5.96 5.35-8.27 7.4-4.37-.24-7.87-.42-11.66-.63.33 1.16.56 1.98.81 2.85-.98.47-1.83.88-2.62 1.26.54 3.02 3.05 5.56 8.45 9.17 1.78 1.19 3.02.75 4.4-.48.22-.2.89-.04 1.27.13 2.65 1.18 4.31-.25 6.09-1.97 2.5-2.42 4.72-5.21 8.99-4.93 1.38.09 3.66-1.42 2.65-4.28-.77-2.17 2.27-5.27 3.74-5.22 1.52 4.49 2.94 8.69 4.38 12.92 3.64-1.22 4.34-.83 11.59 7.03.81-.42 1.65-.87 2.92-1.54.48 1.45.89 2.68 1.16 3.49 1.37.35 2.56.65 4.02 1.02-.77 1.17-1.3 1.98-1.82 2.76 2.86 2.93 2.82 3.57-.55 7.59 5.98 3.06 6.41 7.62 3.43 13.09-.33.6.06 1.6.17 3.25 2.7-1.31 6.41-2.07 6.62-3.38.78-5.03 5.24-6.03 7.93-9.16.96 1.14 1.72 2.03 2.85 3.38 2.57-4.6 6.11-.78 9.3-1.54.33.99.66 1.99 1 3 .18-.25.37-.49.55-.74 2.2 1.08 4.55 1.93 6.55 3.3 2.58 1.76 4.76 4.04 8.4 2.96.79-.23 2.13.62 2.91 1.31 2.64 2.35 5.15 4.85 7.74 7.31.65-.45 1.41-.98 2.19-1.52 2.25 4.14 6.26 4.85 11.36 1.56-.46 2.22-.78 3.73-1.15 5.52 2.76-1.43 5.17-3.1 7.85-3.96 3.81-1.22 5.49-4.84 3.46-8.07-.55-.87-.58-2.22-.46-3.31.19-1.67-.17-2.11-1.95-1.99-1.34.09-3.23-.2-4.01-1.09-2.12-2.41-4.19-3.59-6.98-1.43-2.8-3.43-5.7-5.44-10.11-3.46-.74.33-2.07-.64-3.49-1.13-4.02 1.72-7.19.19-11.92-6.54zm-.82 126.2c.32.07.64.13.96.2.87-2.62 1.92-5.19 2.54-7.87.44-1.87.86-4.09.25-5.77-.77-2.13-1.78-3.97-.91-6.31.25-.66.19-1.67-.16-2.26-2.8-4.73-6.53-8.36-12.22-9.95v21.73c-2.05 2.58-4.31 5.43-6.65 8.38-2.31-1.66-4.54-3.27-6.7-4.83-1.07.78-1.92 1.41-2.8 2.05-1.96-1.68-3.71-3.25-5.55-4.7-.62-.49-1.89-1.14-2.2-.89-2.54 2.05-3.81-.01-5.3-1.44-1.94-1.86-3.74-3.9-5.85-5.52-1.34-1.03-3.63-2.44-4.65-1.94-3.22 1.56-4.52-.79-6.55-2.1-3.44-2.22-5.45-7.96-11.2-4.8-3.81-1.67-5.15 1.85-7.47 3.3 2.33 5.07 9.97 5.89 9.15 12.19 4.03-.5 5.53 3.27 8.4 3.78-.61 1.92-1.09 3.42-1.56 4.91.33.12.66.25.99.37.6-.88 1.24-1.74 1.8-2.65 2.65-4.29 4.33-4.3 7.67-.3.93 1.11 2.34 2.05 3.71 2.5 2.63.86 5.9.24 7.23 3.74.18.47 1.37.73 2.12.78 1.94.12 3.97-.25 5.83.16 4.09.9 8.35 6.37 8.83 10.64-1.15.18-2.6-.03-3.38.6-4.51 3.65-8.83 7.54-13.29 11.25-1.34 1.12-2.94 1.94-4.42 2.9-.2-.24-.39-.48-.59-.72-.29.82-.59 1.63-.57 1.59-2.23.97-3.92 1.37-5.22 2.31-3.53 2.56-6.7 5.66-10.38 7.95-5.23 3.26-10.78 5.98-16.2 8.94-.77.32-1.33 1.45-1.35 2.59-.02.9.62 1.81.96 2.71 2.85-1.18 3.6 2 5.56 2.65 1.69.56 3.48 1.44 5.17 1.31 6.22-.47 11.17-3.29 14.97-8.42 1.16-1.56 3.55-2.33 5.51-3.14 2.13-.88 4.42-1.38 7.37-2.27 1.65 1.8 3.8.15 6.02-1.24 7.14-4.48 12.73-10.58 17.54-17.37 1.33-1.87 1.73-4.4 2.58-6.62.26-.68.47-1.45.94-1.98 2.61-2.98 5.29-5.9 7.9-8.79-.89-1.41-1.47-2.33-2.05-3.24.29-.22.45-.43.64-.47 1.19-.27 2.39-.5 3.69-.77-.18-.6-.33-1.13-.51-1.64-.19-.51-.4-1.02-.6-1.53zm-79.18-67.64c-.04-.23-.09-.46-.13-.69 1.74.21 3.48.4 5.22.65.49.07 1.12.61 1.41.44 2.88-1.63 5.69-3.39 8.56-5.04 1.02-.59 2.13-1.33 3.24-1.39 1.49-.08 3.01.44 4.52.7-.24 1.22-.45 2.24-.65 3.26.34.26.68.51 1.02.77 3.07-3.06 6.14-6.12 9.33-9.3 4.38 4.63 9.11 9.61 13.85 14.62-2.4 2.69-2.4 3.36.68 6.27 1.05.99 2.21 1.9 3.42 2.68 4.64 2.94 8.01 6.62 7.86 12.56-.01.43.5.86.88 1.48 2.08-1.27 3.95-2.41 5.47-3.34-.61-2.15-1.06-3.9-1.61-5.63-.62-1.95-1.02-4.05-2.06-5.76-1.08-1.77-2.81-3.13-4.05-4.45.57-1.51 1.74-3 1.44-4.07-1.58-5.56-3.39-11.07-5.44-16.49-.67-1.78-1.24-3.07-.01-4.85.48-.7.33-2.72-.24-3.12-3.54-2.43-3.69-5.69-2.53-9.27-1.96-1.13-3.65-2.1-5.45-3.14-1.64 1.87-3.17 3.62-4.7 5.37-1.12-.38-2.24-.75-3.4-1.14-.43 1.19-.8 2.22-1.25 3.45-4.09-1.92-2.45 2.34-4.02 3.39-2.66-2.48-4.48.14-6.62 1.18-1.42.69-2.93 1.2-4.39 1.83-1.16.5-2.64.77-3.36 1.65-2.04 2.48-4.45 3.81-7.65 4.21-1.21.15-2.27 1.46-3.41 2.24-5.4-.29-6.55 5.31-9.89 7.52 1.48 1.27 2.72 2.34 3.96 3.41zm116.41-7.84c.8 1.14 1.55 2.11 2.2 3.13 1.24 1.95 3.28 3.85 3.47 5.91.43 4.67 4.45 1.6 6.04 3.36 1.37-1.27 2.94-2.39 4.03-3.87.54-.74.2-2.14.25-3.21 1.02-.34 1.89-.63 2.18-.73.39-2.14.68-3.77 1.07-5.89-4.33-3.81.96-7.11 1.38-11.14-.7.59-1.41 1.18-2.24 1.87-.71-1.42-1.34-2.68-2.15-4.3-5.46 5.02-10.79 9.89-16.23 14.87zm-56.3-151.53c-7.66 4.26-9.24 9.93-3.93 13.61-.26 1.18-.52 2.37-.97 4.44 1.18-.88 1.56-1.24 2-1.48.43-.22.93-.31 1.7-.56-2.15 3.43-2.15 3.43-.65 5.19 1.11-.69 2.4-1.23 3.31-2.14.66-.67 1.42-2.33 1.12-2.7-1.88-2.25-.33-3.73.92-5.24 4.2-5.06 4.19-5.3-1.18-9.4-.79-.58-1.59-1.17-2.32-1.72zm53.58 261.21c.99-.32 1.23-.34 1.39-.47 2.86-2.16 5.71-4.31 8.55-6.5 3.27-2.52 3.57-5.16.5-7.97-1.59-1.46-3.66-2.6-5.72-3.25-.96-.3-2.71.61-3.5 1.5-.54.62-.52 2.61.05 3.18 2.37 2.34.36 3.84-.81 5.42-.67.9-1.74 1.5-3.11 2.62 2.04.27 3.45.46 5.11.69-.84 1.64-1.48 2.89-2.46 4.78zm2.27 9.16c1.35.6 2.68 1.12 3.94 1.78 2.78 1.45 4.62-.08 5.04-2.38.33-1.81-.28-5.08-1.43-5.6-1.91-.87-4.69-.45-6.91.16-2.62.71-5.02 2.2-7.85 3.5 0 .1.02 1.15.11 2.19.09 1.13-.1 2.98.44 3.24 1.74.83 3.86 1.55 5.39-.6.51-.71.86-1.53 1.27-2.29zm-98.57-301.88c.97 2.27 1.85 4.33 2.7 6.31 1.93-.52 4.01-1.68 5.95-1.48 3.66.37 5.9-.71 6.77-4.3.7-2.89-.04-3.7-2.96-3.31-1.87.25-4.27 1.29-5.51.51-3.83-2.41-5.03.81-6.95 2.27zm-151.46 310.74c3.73 2.07 5.87 2.02 9.16.28.79-.42 1.98-.02 2.94-.2 1.07-.2 2.96-.58 2.99-.98.13-1.93-.05-3.95-.57-5.82-.15-.54-1.75-.74-2.72-.97-.78-.19-1.65-.05-2.38-.33-1.32-.51-2.57-1.23-4.17-2.02-.05 4.46-1.23 8.01-5.25 10.04zm187.33-313.93c.82 1.92 1.86 3.17 1.73 4.28-.69 5.98.77 8.28 6.12 9.69 1.16-2.11 2.23-4.07 3.6-6.56-1.94-2.25-4.12-4.78-6.53-7.58-.09-.31-.32-1.14-.56-1.97-1.48.73-2.97 1.46-4.36 2.14zm-84.26 219.4c-3.15-2.22-3.73-4.77-2.54-8.12.93-2.63-.15-4.32-3.1-4.53-.88-.06-1.75-.22-2.29-.29-1.52 1.41-2.83 2.62-4.19 3.88 2.72 2.02 1.77 4.14-.94 6.83 5.09-.45 8.3 3.9 13.06 2.23zm-8.15 92.61c1.45 1.86 2.64 4.18 4.53 5.53 1.14.81 3.64.65 5.01-.07 1.24-.66 2.15-2.57 2.49-4.1.28-1.27-.47-2.78-.76-4.18-2.9-3.93-6.41-3.08-11.27 2.82zm41.53-143.34c-1.16-3.61-4.82-3.74-7.06-2.99-2.39.8-4.07 3.73-6.01 5.77-.1.1.17.6.33.89 1.33 2.38 2.32 5.23 6.12 3.55 1.26-.56 2.77-.57 4.37-.88-2.49-3.41 1.49-4.15 2.25-6.34zm33.03 47.73c3.6 5.22 4.08 5.67 8.83 3.54 1.46-.66 2.36-3.44 2.73-5.39.46-2.41-1.64-3.41-3.63-4.07-5.28-1.73-5.84 2.98-7.93 5.92zm-137.74-26.61c-2.21 1.7-4.16 3.53-6.43 4.83-1.96 1.12-3.83 5.12-2.77 7.39 1.41-.92 2.81-1.84 4.85-3.19-1.09 2.41-1.79 3.95-2.48 5.48 8.79-5.23 10.21-8.47 6.83-14.51zm45.52-162.37c2.28-2.01 4.08-3.35 4.41-6.8.43-4.63-.14-6.14-4.89-5.29-1.28.23-2.53.59-3.8.89.31.11.63.22.94.32-.21 1.83-.5 3.67-.59 5.51-.04.76.11 1.73.57 2.28.92 1.1 2.11 1.97 3.36 3.09zm163.62 106.47c3.89 6.86 7.23 7.77 12.94 3.7-2.83-6.84-7.92-8.37-12.94-3.7zm-128.28 136.55c2.3-.63 4.04-1.11 5.78-1.58 3-.81 4.49-3.49 2.95-5.32-1.6-1.9-9.27-2.61-11.38-.95.69.78 1.37 1.56 2.14 2.43-2.83 2.51-1.05 4.12.51 5.42zm-67.42-271.84c-1.09 1.53-3.85 3.98-3.39 5.05 1.09 2.53 3.71 4.41 5.71 6.55.18-.18.36-.37.54-.55-.19-.95-.38-1.91-.57-2.86 2.57 2.51 3.84.46 4.68-.21-.51-2.39-.88-4.11-1.18-5.55-1.76-.73-3.44-1.44-5.79-2.43zm-48.51 11.84c.29-2.45 1-5.06.81-7.6-.24-3.21-3.48-4.35-5.99-2.4-.78.6-1.51 1.27-2.33 1.95 1.32 3.52 1.12 8.04 7.51 8.05zm254.37 237.8c2.01-1.88 6.58-1.51 6.36-5.51-.09-1.59-2.94-4.07-4.69-4.22-1.81-.16-3.83 2.03-5.4 2.97 1.42 2.56 2.46 4.46 3.73 6.76zm-96.98 23.17c1.16-2.9 2.39-5.98 3.73-9.33-4.63-1.57-6.37 4.16-10.95 4.89 4.43 2.54-2.24 3.55-.94 5.26 3.27-.32 5.86-.59 8.16-.82zm9.69-219.79c-.22 4.18-2.12 8.32 2.22 11.37 1.59-1.15 3.1-2.25 4.29-3.11-.69-3.01-1.26-5.53-1.88-8.26-1.23 0-2.76 0-4.63 0zm-122.37 180.45c.2.14.41.29.61.43 2.4-1.6 4.83-3.17 7.2-4.8 2.12-1.46 2.14-2.93-.03-4.25-2.03-1.22-4.04-1.78-5.85.62-1.19 1.58-2.68 2.92-4.25 4.6 1.36.46 2.36.81 3.33 1.14-.36.79-.69 1.52-1.01 2.26zm159.92-167.4c1.41 1.22 3.48 4.3 4.86 4.01 5.56-1.15 5.35-4.62 1.89-8.24.81-.9 1.44-1.6 2.18-2.43-.82-.52-1.42-.9-1.34-.86-2.46 2.45-4.63 4.59-7.59 7.52zm-69.38 133.62c-1.97-1.29-3.97-2.6-6.01-3.94-4.06 1.91-4.76 3.23-2.99 5.52.73.95 1.22 2.08 2.08 3.59 4.15.6 4.26.53 6.92-5.17zm-117.87 121.19c-2.62 1.79-5.33 3.54-7.91 5.45-1.76 1.3-.64 2.64.68 2.91 2.29.47 4.71.38 7.07.45.38.01.88-.26 1.14-.56 1.06-1.22.5-6.56-.98-8.25zm-22.27-176.79c5.57.52 7.67-.03 8.32-2.92.28-1.24-.87-3.01-1.79-4.23-.45-.6-2.05-.97-2.76-.64-4.08 1.9-4.63 3.16-3.77 7.79zm132.02-1.83c.66-1.4 1.93-2.79 1.76-3.98-.33-2.34-1.08-4.81-2.37-6.77-1.15-1.75-3.04-1.3-4.04 0 .54 1.81 1.58 3.37 1.3 4.64-1.02 4.66-.84 5.2 3.35 6.11zm81.53-86.07c.25.23.5.45.75.68.53-2.74 5.92-1.08 4.41-5.33-.8-2.26.94-6.05-3.72-6.52-1.46 2.43-3.03 5.05-4.76 7.94 1.75.25 3.1.44 4.52.65-.47 1.03-.83 1.8-1.2 2.58zm54.2 261.4c-3.16 2.47-5.41 4.09-7.46 5.93-.54.49-.8 1.74-.59 2.46.14.49 1.36 1.01 2.04.94 2.27-.23 4.52-.72 7.14-1.17-.36-2.64-.68-4.95-1.13-8.16zm12.96-182.03c-5.75 2.12-6.27 6.23-1.55 10.53 3.67-2.31 3.84-3.33 1.55-10.53zm-251.77 33.01c.84 1.42 1.21 2.08 1.62 2.72 2.72 4.32 4.58 4.41 7.63.3.33-.45.35-1.12.52-1.69-.65-.13-1.3-.35-1.95-.36-.96-.01-1.92.14-2.4.18.14-1.57.24-2.67.34-3.76-1.79.82-3.58 1.63-5.76 2.61zm227.73-76.8c1.74-.66 3.3-.91 4.36-1.76.99-.8 2.23-3.08 2.03-3.26-1.36-1.25-3-2.27-4.7-3.02-.68-.3-1.77.16-2.61.45-.26.09-.5.78-.44 1.14.39 2.1.87 4.19 1.36 6.45zm-227.38 195.85c-2.79 1.19-4.37 3.05-3.6 6.01.25.95 1.66 2.47 2.11 2.34 1.93-.59 3.7-1.7 5.94-2.84-1.87-2.32-3.17-3.94-4.45-5.51zm55.07-152.77c3.02.88 4.38 5.38 8.04 2.46 1.16-.93 2.4-2.47.75-4.32-2.34-2.63-3.19-2.52-8.79 1.86zm-71.42-16.3c-.89-.74-2.16-2.63-3.23-2.51-1.54.16-4.09 1.75-4.11 2.76-.03 1.52 1.49 4 2.85 4.42 2.36.73 3.57-1.49 4.49-4.67zm32.58 193.72c.09-.38.18-.75.26-1.13-2.31-1.95-4.61-3.9-7.47-6.32-.4 3.33-.69 5.78-1.07 8.95 3.24-.59 5.76-1.04 8.28-1.5zm191.28-5.13c-1.97-1.82-3.51-3.42-5.25-4.78-.59-.46-1.94-.71-2.41-.35-.53.4-.8 1.72-.56 2.42.74 2.18 1.77 4.25 2.83 6.69 1.73-1.28 3.3-2.44 5.39-3.98zm-225.55-281.84c1.59-1.57 4.22-3.16 4.01-4.17-.38-1.81-2.45-3.27-4.02-5.11-1.66 1.93-2.86 3.33-4.11 4.79 1.35 1.47 2.47 2.69 4.12 4.49zm170.07 62.82c-1.96-5.59-4.63-5.87-9.14-1.18 2.29 3.68 2.51 3.71 9.14 1.18zm77.62 81.04c-1.14 1.09-2.31 1.98-3.16 3.1-.43.57-.49 1.63-.3 2.37.07.28 1.39.49 2.02.31 1.87-.51 3.69-1.24 5.93-2.02-1.7-1.42-3.05-2.55-4.49-3.76zm-44.73-171.31c-.3.2-.61.39-.91.59.78 1.21 2.32 2.56 2.14 3.59-.24 1.3-1.89 2.34-2.93 3.5.29.37.57.74.86 1.12 1.71-1.05 4.46-1.77 4.91-3.21.95-3.04-2.23-4.05-4.07-5.59zm-2.66 125.23c1.77-.64 3.41-1.03 4.83-1.82.67-.37 1.5-1.8 1.27-2.19-.45-.79-1.59-1.68-2.42-1.66-3.23.1-4.3 2.1-3.68 5.67zm-193.12-126.59c-2.36 1.73-2.08 4.06.73 7.88 1.02-.79 2.05-1.58 3.26-2.52-1.37-1.85-2.61-3.52-3.99-5.36zm-.06 288.86c.37.34.74.68 1.11 1.01 1.66-1.72 3.43-3.37 4.9-5.24.25-.31-.78-1.62-1.51-3.05-1.78 2.89-3.14 5.08-4.5 7.28zm9.77-99.82c.35-.34.71-.69 1.06-1.03-.89-1.61-1.64-3.33-2.78-4.73-.19-.23-2.05.89-3.14 1.38-.08.42-.16.83-.24 1.25 1.7 1.05 3.4 2.09 5.1 3.13zm158.13-136.39c-.75.87-1.53 1.78-2.5 2.91 1.37 1.72 2.67 3.36 3.97 5 0-1.79-.69-3.01-1.21-4.3-.46-1.14 3.33-2.47-.26-3.61zm-74.91 58.9c.21.42.43.84.64 1.25 2.19-.53 4.74-.41 5.5-3.45-.21-.38-.43-.75-.64-1.13-1.84 1.11-3.67 2.22-5.5 3.33zm-16.33-90.77c.3.31.59.61.89.92 1.4-.78 2.8-1.56 4.67-2.6-1.01-.89-1.67-1.47-2.33-2.06-1.08 1.25-2.15 2.49-3.23 3.74zm-.75-5.87c3.89 1.85 4.44-.92 6.17-3.38-3.07.08-4.36 1.7-6.17 3.38z" fill="#010105"/></svg>