<svg enable-background="new 0 0 400 400" viewBox="0 0 400 400" xmlns="http://www.w3.org/2000/svg"><path d="m6.8 9.5c.6.3 1.3.7 2.1 1.1-.4.4-.7.8-.9 1.2-.7-.4-1.3-.8-1.8-1.1s-1.1-.6-1.6-.8c.2-.4.5-.8.7-1.2.4.2.8.5 1.5.8zm.9 6.9c-.3.6-.5 1.1-.7 1.7s-.4 1.1-.6 1.7c-.6-.4-1.1-.7-1.6-1 .7-1 1.2-1.8 1.5-2.4.3-.5.6-1.1.8-1.7.3-.6.5-1.2.8-1.8.3.3.8.6 1.3.8-.7 1.3-1.2 2.2-1.5 2.7zm.1-11c.4.3 1 .7 1.7 1.1-.5.2-.8.6-1.1 1.1-.5-.6-1-1-1.4-1.2s-.9-.6-1.5-.8c.2-.4.5-.7.9-1.1.5.3.9.6 1.4.9zm10.5 13.1c1 .4 2 .6 3.1.7-.4.4-.7.8-.8 1.3-.9-.2-1.9-.6-3-.9-1-.4-2-.9-2.8-1.6-.5.4-1.1.9-1.9 1.3s-1.9.9-3.3 1.2c-.1-.3-.5-.8-1.1-1.3 1 0 2.1-.3 3.2-.8 1.2-.5 1.9-1 2.3-1.7h-3.2c-.4 0-1 0-2 .1v-1.2c1 0 1.7.1 2 .1h3.3v-1h-2.3c-.2 0-.9 0-2 .1v-1.2c1.2 0 1.9.1 2 .1h2.3v-.8h-4.1c0-.7.1-1.2.1-1.6 0-.5 0-1.1-.1-1.8h4.1v-.7h-2.5c0-.6.1-1.1.1-1.6v-.6h-.5c-.4 0-1 0-1.8.1v-1.3c1.2 0 1.9.1 2.1.1h.2c0-.3 0-.8-.1-1.4h1.4c0 .6-.1 1-.1 1.4h3.4c0-.4 0-.8-.1-1.3h1.5c0 .4-.1.9-.1 1.3.7 0 1.5 0 2.5-.1v1.2c-1 0-1.8-.1-2.5-.1v.6c0 .3 0 .8.1 1.5h-2.5v.8h4.1c0 .7-.1 1.3-.1 1.8s0 1 .1 1.5h-4.1v.8h1.4c.8 0 1.8 0 2.9-.1v1.2c-1 0-1.9-.1-2.8-.1h-1.5v1h3.2c.3 0 1 0 2.1-.1v1.2c-1.1 0-1.8-.1-2.1-.1h-3.4l-.1.1c1.4 1 2.4 1.5 3.4 1.9zm-4.1-6.7v-1.3h-2.7v1.3zm2.2-4.1v-1.1h-3.4v1.1zm1.9 4.1v-1.3h-2.8v1.3z" fill="#fafbfa"/><path d="m37 6.7v2.3 5.4c1 0 1.8 0 2.2-.1v1.3c-.6 0-1.5-.1-2.5-.1h-11.9c-.7 0-1.3 0-1.8.1v-1.3c.5 0 1.1.1 2 .1v-5.2c0-1 0-1.8-.1-2.5h3.7c0-1.3 0-2.1-.1-2.5h1.5c0 .4-.1 1.3-.1 2.5h2.2c0-1.2 0-2.1-.1-2.6h1.5c0 .4-.1 1.3-.1 2.6zm-12.3 13.7c-.3-.4-.7-.8-1.1-1.1 1.1-.4 2.1-.9 2.9-1.3.8-.5 1.5-1 2.1-1.6.4.4.9.8 1.3 1.1-2.5 1.4-4.2 2.4-5.2 2.9zm3.9-10.1v-2.4h-2.2v2.4zm0 4.1v-2.9h-2.2v2.9zm3.5-4.1v-2.4h-2.2v2.4zm0 4.1v-2.9h-2.2v2.9zm.4 2.9 1-1.1c.6.3 1.4.7 2.5 1.3s2 1.1 2.7 1.5c-.4.4-.8.8-1.1 1.3-.8-.8-2.5-1.7-5.1-3zm3.1-7v-2.4h-2.1v2.4zm0 4.1v-2.9h-2.1v2.9z" fill="#fafbfa"/><g fill="#010103"><path d="m140.35 366.7c-.31-1.96-.49-3.06-.72-4.51 4.68-1.61 9.27-3.27 13.92-4.76 1.82-.59 2.7-1.46 2.79-3.5.37-8.59 1.02-17.17 1.34-25.77.46-12.3.86-24.6.99-36.9.05-4.44-.82-8.89-1.15-13.34-.3-4.01-.57-8.04-.65-12.06-.45-23.37-.87-46.73-1.18-70.1-.03-2.35-.61-3.66-3.03-3.71-3.79-.08-7.58-.07-11.36-.15-2.89-.06-5.88.23-8.64-.41-2.17-.5-4.07-2.2-6.09-3.36.07-.49.15-.99.22-1.48 2.91-.81 5.79-2.02 8.75-2.32 4.55-.46 9.16-.42 13.74-.37 5.55.05 6.6-.97 6.98-6.4.61-8.8 1.66-17.58 2.08-26.39.23-4.88-.44-9.8-.69-14.7-.45-8.92-1.08-17.85-1.3-26.78-.22-9.26.1-18.52-.1-27.78-.11-5.13-.84-10.24-1.2-15.36-.29-4.11-.45-8.23-.66-12.35-.06-1.23-.01-2.47-.21-3.67-.48-2.81-1.63-4.5-5.09-4.22-7.34.59-14.71.8-22.07.98-1.04.03-2.95-.9-2.99-1.5-.1-1.31.38-3.52 1.25-3.9 2.92-1.27 6.08-2.36 9.23-2.69 13.44-1.42 26.91-2.59 40.38-3.74 3.44-.29 6.95-.46 10.36-.11 1.42.14 2.7 1.78 4.04 2.74-.96 1.16-1.71 2.98-2.91 3.37-3.36 1.09-6.89 1.69-10.38 2.31-3.28.58-6.63.79-9.9 1.42-2.19.42-3.23 1.82-3.18 4.33.12 6.6-.78 13.29.01 19.79 1.73 14.29-.85 28.54.03 42.72 1.38 22.32.47 44.67 1.73 66.98.15 2.74 1.08 3.92 3.62 3.98 3.12.08 6.23.01 9.35.09 1.99.05 4.1-.1 5.92.51 1.07.36 2 1.97 2.35 3.2.14.48-1.38 1.91-2.33 2.14-4.99 1.21-10.02 2.27-15.07 3.17-2.67.47-3.56 1.61-3.57 4.44-.04 11.52.43 23.12-.85 34.52-1.7 15.15.3 30.15.14 45.22-.01 1.07 1.55 2.62 2.74 3.14 3.97 1.76 14.65-1.2 16.74-4.97 1.1-1.99 1.32-4.94.84-7.23-.63-2.99-2.62-5.67-3.55-8.64-4.46-14.19-4.46-28.18 2.6-41.64.91-1.74 2.65-3.05 4-4.56.51.22 1.02.45 1.53.67-.55 2.95-.4 6.27-1.76 8.77-5.99 11.05-3.53 21.86.4 32.62 2 5.46 4.64 10.69 4.17 16.74-.72 9.24-2.54 12.3-13.13 14.95-2.52.63-5.33.26-7.99.11-4.87-.27-6.1.71-6.03 5.47.28 20.25.65 40.5.87 60.75.03 2.47 1.1 3.57 3.28 3.6 2.89.04 5.79-.32 8.69-.27 1.3.02 2.59.64 3.89.98-.57 1.26-.8 3.16-1.77 3.68-4.27 2.29-8.62 5.45-13.2 5.96-8.61.96-17.38.29-26.22.29z"/><path d="m230.61 309.97c1.29 2.91 2.07 5.44 3.42 7.61 5.27 8.46 3.15 20.75-5.15 26.47-4.76 3.28-9.94 6.02-15.1 8.68-4.28 2.21-6.76 5.05-6.08 10.2.35 2.63.14 5.36-.09 8.03-.18 2.12-1.21 3.76-3.61 4.24-2.58.51-3.61-1.1-4.57-2.97-2.62-5.1-3.44-10.37-1.5-15.89 1.57-4.45 4.72-7.66 8.87-9.49 4.48-1.97 9.32-3.1 13.9-4.87 2.14-.83 4.24-2.04 5.99-3.51 2.57-2.18 3.36-4.87 3.05-8.58-.69-8.28-5.63-14.47-9.31-21.28-.48-.89-2.85-1.46-4.04-1.12-3.9 1.11-7.91 2.07-10.86 5.42-1.08 1.23-3.28 1.48-5.25 2.29-.52-7.54 1.62-10.83 7.62-12.8 9.13-2.99 9.2-3.02 5.84-11.81-2.05-5.37-1.47-10.54.74-15.62 1.81-4.16 5.25-6.21 9.72-6.83 1.55 1.72 1.33 3.11-.09 4.94-5.38 6.92-5.79 14.55-1.27 21.76.79 1.25 2.01 2.45 3.31 3.13 6.29 3.26 12.55 2.54 18.61-.71.99-.53 1.77-1.68 2.33-2.71 3.7-6.76 4.91-13.98 2.77-21.4-2.01-6.96-3.94-14.07-7.06-20.55-7.45-15.46-13.26-31.42-17.87-47.95-7.95-28.53-14.39-57.25-13.5-87.08.37-12.4.59-24.99 2.97-37.09 2.74-13.94 6.11-28.08 13.52-40.52 2.97-4.99 7.49-9.08 11.49-13.4.8-.86 2.43-.94 3.68-1.39.27.29.53.58.8.87-.55 1.23-.82 2.73-1.69 3.66-6.87 7.37-10.26 16.62-14.47 25.51-7.81 16.46-8.07 34.15-9.67 51.68-1.34 14.72 2.22 29.18 2.33 43.83.14 18.57 6.01 36.12 10.28 53.88 2.45 10.19 7.26 19.85 11.43 29.57 3.61 8.41 7.93 16.51 11.73 24.84 5.13 11.24 5 23 2.99 34.89-.11.66-.12 1.56-.54 1.9-5.21 4.21-9.03 10.31-16.09 12.03-2.81.7-5.65 1.27-9.58 2.14z"/><path d="m268.68 133.07c0 2.81.4 4.85-.07 6.66-2.75 10.69-1.55 21.19.77 31.78 1.41 6.43.87 12.78-2.41 18.84-4.3 7.94-16.53 11.74-23.82 6.38-3.19-2.34-5.89-6.11-5.74-10.77.1-3.12.28-6.26.62-9.36 1.17-10.58-.94-20.64-4.66-30.46-.79-2.07-1.5-4.17-2.31-6.44 2.52-.84 4.34-.61 5.46 1.77 2.61 5.53 5.35 11 7.78 16.6 2.23 5.15 4.95 7.08 10.07 5.91 1.44-.33 3.4-1.77 3.71-3.04 1.25-5.17 2.07-10.46 2.82-15.74.69-4.79 2.86-8.56 7.78-12.13zm-23.03 47.76c-.09 1.32-.23 2.44-.24 3.55-.04 4.74 2.39 7.44 7.1 7.94 7.62.81 11.73-3.03 11.8-11.15.03-3.32-.91-6.34-4.21-7.72-3.65-1.53-7.24-2.98-11.4-.59-3.62 2.08-2.65 5.24-3.05 7.97z"/></g></svg>