<svg enable-background="new 0 0 400 400" viewBox="0 0 400 400" xmlns="http://www.w3.org/2000/svg"><path d="m205.06 259.59c-7.13 9.67-13.88 19-20.82 28.18-5.59 7.39-11.32 14.69-17.19 21.86-2.03 2.49-4.61 4.54-7.05 6.68-.99.87-2.23 1.94-3.41 2.01-3.14.19-6.66.67-9.3-.55-1.2-.56-1.43-5.04-.81-7.41 2.33-8.92 6.15-17.33 12.15-24.36 11.18-13.09 19.26-27.9 26.19-44.12-2.33.39-4.17.63-5.98 1.02-6.35 1.35-12.23.03-17.74-3.13-4.05-2.32-5.86-7.74-4.18-11.99.19-.48.52-1.12.93-1.25 3.78-1.23 7.52-2.88 11.41-3.38 3.71-.47 7.58.27 11.37.51 6.56.41 13.41-2.04 12.91-10.31-.09-1.51.3-3.05.5-4.81-6.74-1.21-13.34-1.89-19.65-3.64-14.55-4.06-26.29-12.12-32.17-26.55-4.26-10.45-1.7-20.53 3.44-30.26 3.85-7.29 9.5-11.78 17.49-13.61 1.64-.38 3.52-1.29 4.53-2.56 2.02-2.56 4.41-3.14 7.36-2.67.77.12 1.61.37 2.33.19 1.97-.47 4.36-.65 5.66-1.9.73-.7-.01-3.48-.73-5.02-4.62-9.93-9.54-19.72-14.09-29.68-1.29-2.82-3.14-4.32-5.99-4.53-6.24-.45-12.5-.63-18.75-1.04-2.66-.18-5.39-.34-7.91-1.09-4.38-1.3-6.54-5.34-5.44-9.75.23-.92 1.14-1.94 2-2.38 4.28-2.15 8.62-4.2 13.01-6.12 4.08-1.79 5.71-4.36 5.02-8.71-.15-.94-.5-2.12-1.18-2.66-3.89-3.05-4.1-7.45-4.84-11.9 5.96-2.74 11.67-6.3 18.27-2.15 1.32.83 2.64 1.94 3.47 3.24 1.49 2.35 2.91 4.83 3.82 7.44 1.76 5.04 5.76 7.02 10.39 7.84 9.83 1.76 19.62.88 29.3-1.27.85-.19 1.8-1.53 2.06-2.51 1.23-4.64 2.32-9.33 3.32-14.03 1.34-6.32 4.27-11.69 8.82-16.28 1.32-1.33 2.37-1.52 4.09-.76 9.69 4.26 12.92 10.83 10.18 21.1-.43 1.62-.84 3.25-1.27 4.86-1.24 4.62-1.08 5.27 3.07 7.81 1.78 1.09 4.03 1.47 5.74 2.65 1.41.97 3.01 2.49 3.36 4.03 1.04 4.62-1.12 7.83-5.58 9.31-4.03 1.34-8.13 2.51-12.04 4.11-1.57.64-3.51 2.02-3.96 3.48-3.63 11.72-6.95 23.54-10.32 35.34-.2.71-.03 1.53-.03 2.57 5 1.22 9.96 2.47 14.93 3.65 29.94 7.12 38.64 30.06 31.06 55.36-1.01 3.38-2.81 5.74-5.73 7.81-10.9 7.76-22.71 13.36-35.83 16.09-2.55.53-3.71 1.76-3.94 4.45-.3 3.53-1.11 7.02-1.82 11.26 4.48.54 8.74 1.25 13.03 1.51 4.57.28 9.18-.15 13.73.24 4.65.39 6.98 2.96 7.18 6.98.11 2.12-.57 3.66-2.39 5.13-4.95 3.98-10.12 6.55-16.78 6.21-4.8-.24-7.49 4.01-6.19 8.84 3.4 12.63 6.99 25.2 10.25 37.86.7 2.71.85 5.8.29 8.51-.31 1.51-2.42 3.19-4.08 3.76-2.06.7-4.51.37-5.79-2.07-2.89-5.52-5.87-11.01-8.6-16.61-2.63-5.41-4.9-10.99-7.54-16.4-.8-1.62-2.31-2.93-3.54-4.43zm13.66-119.19c-.61 5.56-1.28 10.65-1.69 15.77-.62 7.78-1.51 15.59-1.45 23.38.06 8.8 1.53 9.71 10.1 8.74.33-.04.67-.05 1-.12 9.75-2.17 18.65-5.16 21.58-16.57 1.89-7.37 1.4-14.1-3.62-19.81-6.68-7.63-15.59-10.76-25.92-11.39zm-23.22 28.09c-.66-5.71-1.48-12.48-2.21-19.25-.4-3.66-2.83-5.3-5.96-4.81-5.13.81-10.52 1.61-15.09 3.86-3.89 1.91-8.17 5.29-9.74 9.07-1.9 4.58-1.55 10.29-1.37 15.48.11 3.39 1.53 6.9 5 8.6 8.14 3.98 16.81 5.95 25.86 6.38 1.88.09 2.62-.63 2.69-2.47.19-5.25.5-10.5.82-16.86zm4.15-57.66c.72-.61 1.1-.85 1.37-1.19.41-.52.91-1.05 1.09-1.66 2.22-7.32 4.55-14.6 6.45-22 .48-1.88-.17-4.23-.88-6.15-.41-1.1-2.15-2.62-3.04-2.46-4.79.82-9.53 2.03-14.23 3.32-.74.2-1.74 1.61-1.65 2.34 1.25 10.09 4.18 19.55 10.89 27.8z" fill="#010102"/><path d="m208.8 327.29c0 5.37-.33 10.76.07 16.1.66 8.77 3.54 11.44 12.38 12.04 3.55.24 7.14.04 10.71.02 7.77-.04 13.82 6.67 12.84 14.33-.09.67-.65 1.38-1.18 1.87-3.73 3.43-8.01 5.57-13.14 4-11.64-3.56-23.39-2.46-35.23-1.59-13.78 1.01-27.25-.69-39.92-6.64-1.01-.47-2.38-1.79-2.32-2.62.18-2.45-1.36-5.16 1.55-7.33 6.79-5.06 14.56-5.82 22.59-5.95 6.92-.11 6.89-.17 8.09-7.01 1.08-6.16 2.04-12.36 3.42-18.46.86-3.79.82-7.27-1.23-10.6-1.01-1.64-.63-2.73.84-3.95 2.92-2.43 5.66-5.09 8.48-7.64.49-.45.98-1.05 1.57-1.21 2.09-.56 9.88 4.69 9.94 6.88.15 5.92.05 11.84.05 17.76z" fill="#010102"/><g fill="#fafbfa"><path d="m6.4 11.7c-1-.8-1.9-1.6-2.9-2.3l.6-.7c.9.7 1.9 1.4 2.9 2.2zm-2.1 8.3c.7-2.1 1.4-4.2 2-6.4.2.1.6.3 1 .4-.7 2.3-1.3 4.4-1.9 6.4zm3-12.8c-1.1-.9-2.1-1.7-2.9-2.4l.6-.7c1 .8 2 1.5 3 2.4zm1.4-1.3v-.9h10.2v.9c-.9 4.2-2.3 7.3-4.1 9.4 1.3 1.4 3.2 2.7 5.7 4-.2.2-.4.5-.7.9-2.5-1.4-4.4-2.7-5.7-4.2-1.4 1.5-3.5 3-6.1 4.4 0 0 0 0-.1-.1-.3-.4-.5-.7-.7-.8 2.7-1.3 4.7-2.8 6.2-4.2-1.8-2.2-3-5.3-3.7-9.4zm9.2 0h-7.1c.6 3.8 1.7 6.7 3.4 8.7 1.7-2 2.9-4.8 3.7-8.7z"/><path d="m31.6 3.6h.9v2.3h4.1v9.1h1.7v.9h-16.6v-.9h1.7v-9.1h4.1v-2.3h.9v2.3h3.1v-2.3zm-4 13.3.6.8c-1.9.9-3.8 1.9-5.8 2.8-.2-.3-.3-.6-.5-.9 2-.9 3.9-1.8 5.7-2.7zm-3.2-10.1v3.7h3.1v-3.7zm0 4.5v3.7h3.1v-3.7zm4.1-4.5v3.7h3.1v-3.7zm0 4.5v3.7h3.1v-3.7zm9.1 9.1c-2.1-1.1-4.1-2-5.8-2.7l.5-.8c2.2.9 4.1 1.8 5.8 2.6zm-1.9-13.6h-3.1v3.7h3.1zm-3.2 4.5v3.7h3.1v-3.7z"/></g></svg>