<svg enable-background="new 0 0 400 400" viewBox="0 0 400 400" xmlns="http://www.w3.org/2000/svg"><g fill="#010106"><path d="m198.29 252.86c-1.01-1.79-2.27-3.49-2.98-5.39-2.13-5.64-4.12-11.33-6.01-17.05-1.51-4.56-1.58-9.13.06-13.78 1.19-3.36 2.11-6.85 2.71-10.36.53-3.08 2.18-4.81 5.03-5.47 4.01-.93 8.02-1.98 12.09-2.46 6.87-.8 13.79-1.19 20.87-1.76 3.06-12.8 7.87-25.61 4.05-39.26-1.04-3.73-2.57-7.38-4.3-10.85-1.69-3.39-6.24-3.82-8.78-1.01-3.61 3.98-7.48 7.8-10.49 12.21-2 2.93-2.87 6.7-3.93 10.19-1.26 4.19-2.53 8.29-6.4 11.52-.9-4.41.07-8.29 1.55-11.94 3.78-9.32 7.8-18.46 14.53-26.25 2.75-3.19 4.18-7.53 6.09-11.41.92-1.87.09-3.01-1.82-3.85-4.19-1.84-8.32-3.84-12.38-5.95-1.32-.69-2.7-1.72-3.45-2.96-5.14-8.55-7.96-17.92-9.41-27.74-.06-.41.08-.86.21-2.14 9.29-1.07 18.66-2.16 27.89-3.22 0-4.11.35-8.14-.06-12.09-1.63-15.56 5.39-27.75 15.06-38.79 2.57-2.94 6.27-4.94 9.6-7.13 1.77-1.16 4.15-1.5 5.3.7 1.17 2.24-.16 4.16-2.36 5.12-4.97 2.19-7.61 5.92-8.95 11.19-.77 3.03-3.09 5.65-4.54 8.53-5.02 9.98-5.64 20.79-5.92 31.77 5.93 2.37 11.89 3.39 18.14 2.6 6.82-.86 9.35 1.29 9.51 8.11.15 6.47-2.33 11.78-5.82 17.3-4.55 7.2-10.8 11.35-18.15 14.62-3.98 1.77-5.12 5.47-5.5 9.33-.09.92 1.26 2.16 2.19 2.98 8.21 7.19 12.14 15.79 9.58 26.87-1.03 4.45-1.81 9.02-2.08 13.56-.28 4.88.02 9.82.37 14.71.22 3.07 2.66 4.92 6.54 4.91 3.79-.01 7.57-.52 11.36-.81.66-.05 1.5-.39 1.94-.1 5.34 3.43 11.72 6.46 12.53 13.4.34 2.92-2.14 7.4-4.71 9.11-3.51 2.35-8.28 3-12.61 3.88-4.15.84-8.42 1.03-12.64 1.55-2.07.26-2.98 1.29-2.95 3.58.13 9.17.01 18.35.09 27.53.02 1.88.6 3.74.79 5.63 1.58 15.12 3.08 30.24 4.69 45.35 1.66 15.55 3.41 31.1 5.13 46.65.75 6.73.6 13.37-2.08 20.62-1.85-6.1-5.42-10.66-3.94-17.24.97-4.33-.59-9.27-1.22-13.91-1.41-10.3-2.99-20.58-4.39-30.88-.3-2.19-.48-4.52-.09-6.67 1.25-6.85.7-13.57-.81-20.27-2.94-13.06-3.07-26.41-3.97-39.67-.4-5.8-.63-11.62-1.24-17.4-.13-1.18-1.41-2.8-2.52-3.2-2.39-.85-5.01-1.4-7.53-1.41-7.37-.01-14.75.15-22.1.56-4.39.24-5.26 1.2-4.9 5.68.28 3.51 1.35 6.97 2.22 10.41.62 2.48 1.68 4.87 2.17 7.37.29 1.49-.16 3.11-.28 4.68-.3.07-.64.13-.98.2zm-.81-35.44h34.89c-.19-2.77-.24-5.32-.56-7.83-.46-3.64-2.55-5.78-6.25-6.34-7.89-1.2-15.56-.8-22.76 3.07-6.48 3.48-6.53 3.61-5.32 11.1zm55.75-12.08c-3.13-.17-5.57-.4-8.02-.42-3.61-.03-4.97 1.54-4.7 5.09.16 2.11.15 4.24.43 6.33.11.81.64 1.93 1.29 2.24 4.99 2.36 16.1.68 19.47-3.48 1.46-1.81 1.92-4.95 1.67-7.37-.1-.96-3.28-1.89-5.17-2.3-1.8-.4-3.76-.09-4.97-.09zm-38.78-115.83c0-.04 0-.09 0-.13-1.9 0-3.85-.29-5.67.08-2.09.42-4.6.9-4.76 3.79-.15 2.74-.65 6.43 2.41 7.27 4.19 1.16 8.82 1.54 13.17 1.16 5.9-.51 6.69-2.3 5.16-8.01-.69-2.57-2.26-4.05-4.96-4.15-1.79-.06-3.57-.01-5.35-.01zm18.57 11.46h19.93c.12-1.55.34-2.87.3-4.18-.09-2.81-.68-5.75-3.96-6.13-5.12-.58-10.31-.56-15.58-.8-.25 4.02-.45 7.33-.69 11.11zm-23.48 6.88c2.39 2.59 4.34 4.69 6.29 6.79.38.41.72.87 1.14 1.21 3.3 2.66 8.98 2.41 9.49-.62.39-2.33.06-5.4-1.25-7.2-1.06-1.44-4.07-2.01-6.2-1.97-2.94.07-5.86 1.06-9.47 1.79zm24.05 10.83c4.42-2.14 8.06-3.58 11.3-5.64 1.34-.85 1.83-3.03 2.71-4.6-1.25-.66-2.45-1.51-3.78-1.92-1.36-.42-2.87-.3-4.27-.6-4.18-.87-5.99 0-6.64 4.28-.37 2.57.39 5.29.68 8.48z"/><path d="m154.79 92.22c.74 1.35 1.89 2.63 2.14 4.07.63 3.62 1.14 7.31 1.18 10.98.31 27.18.49 54.36.72 81.55.01.89-.18 1.89.15 2.66 2.73 6.37.75 12.66.09 19.06-.69 6.75-.61 13.59-.54 20.39.28 27.4.88 54.81.9 82.21 0 7.44-1.62 14.87-2.56 22.3-.07.51-.68.96-1.03 1.44-.42-.53-.99-.99-1.2-1.59s-.06-1.33-.06-2c0-7.27.15-14.55-.03-21.82-.4-15.86-.89-31.73-1.49-47.58-.73-19.12-1.58-38.23.4-57.32 2.27-21.87 1.7-43.78.81-65.69-.45-10.95-1.19-21.89-1.51-32.84-.15-5.11.41-10.23.64-15.35.46-.16.92-.31 1.39-.47z"/><path d="m182.41 77.62c-3.43.68-6.83 1.68-10.29 1.99-12.83 1.16-25.63.78-38.36-1.25-3.26-.52-3.24-.66-4.62-4.13 18.02-4.24 35.7-3.31 53.19 1.58.03.6.06 1.2.08 1.81z"/><path d="m120.98 150.77c.57-1.71.86-3.59 1.75-5.11 6.72-11.4 11.82-23.25 11.23-36.88-.17-3.84-.45-7.73.02-11.51.32-2.53 2.49-3.02 4.47-1.37.65.54 1.11 1.69 1.11 2.56-.04 4.9-.21 9.8-.41 14.69-.49 12.05-5.18 22.78-10.88 33.09-1.21 2.18-3.85 3.56-5.84 5.3-.48-.27-.96-.52-1.45-.77z"/><path d="m140.4 55.84c-.26-1.3-.48-2.35-.68-3.34 10.21-5.54 28.21-5.43 32.08.6-10.18 5.28-20.81 2.94-31.4 2.74z"/><path d="m182.72 145.03c-.77-.47-1.99-.78-2.24-1.44-5.29-14.38-10.23-28.84-8.65-44.55.01-.1.1-.19.21-.4 3.6.17 4.07 2.64 4.16 5.54.19 5.9.69 11.8.63 17.69-.05 5.41 1.53 10.29 3.61 15.13 1.04 2.42 1.94 4.91 2.9 7.37-.19.22-.4.44-.62.66z"/></g><path d="m385.2 377.6.6-.7c.6.4 1.3.9 1.9 1.5l-.6.7c-.8-.5-1.4-1-1.9-1.5zm.3 7.1c.6-1.4 1.1-2.9 1.5-4.5.3.1.6.3.9.4-.5 1.4-1 2.9-1.5 4.4zm.2-10.1.6-.6c.7.5 1.3 1.1 1.9 1.6l-.7.7c-.6-.6-1.2-1.2-1.8-1.7zm8.4-.8h.8v.9h1.8v.7h-1.8v1.8h-.8v-.3h-1.2v.9h3.3v2.6h-.8v-.4h-2.5c0 .3 0 .6-.1.8h3.4v.7h-3.5c0 .3-.1.6-.1.8h4v.7h-3.5c.7.9 1.9 1.3 3.6 1.5-.2.2-.4.5-.6.9-1.9-.3-3.2-1.1-3.8-2.3-.5 1.1-1.8 2-3.9 2.4-.2-.3-.4-.5-.6-.8 1.9-.4 3.1-.9 3.6-1.7h-3.2v-.7h3.5c.1-.2.1-.5.2-.8h-3.3v-.7h3.4c0-.2 0-.5 0-.8h-2.4v.3h-.8v-2.6h3.3v-.9h-1.2v.3h-.8v-1.8h-1.8v-.7h1.8v-.9h.8v.9h3.2zm-4.4 5.5h2.4c0-.3 0-.6 0-.9h-2.4zm1.2-3.1h3.2v-.8h-3.2zm4.4 2.2h-2.4v.9h2.5v-.9z" fill="#fcfbfa"/><path d="m389.2 385.8h.9v1.5h1.9v-1.5h.9v1.5h2.7v6h1.1v.9h-11.3v-.9h1.1v-6h2.7zm.2 8.7.5.8c-1.2.6-2.5 1.3-4 1.9-.2-.3-.3-.6-.6-.8 1.6-.6 3-1.3 4.1-1.9zm-2-4.3h1.9v-2.1h-1.9zm0 3.1h1.9v-2.2h-1.9zm2.7-3.1h1.9v-2.1h-1.9zm0 3.1h1.9v-2.2h-1.9zm2.4 1.3c1.4.6 2.7 1.2 4.1 1.8l-.5.9c-1.5-.7-2.8-1.4-4.1-1.9zm2.2-6.5h-1.9v2.1h1.9zm-1.9 5.2h1.9v-2.2h-1.9z" fill="#fcfbfa"/></svg>