<svg enable-background="new 0 0 400 400" viewBox="0 0 400 400" xmlns="http://www.w3.org/2000/svg"><g fill="#010106"><path d="m281.93 358.99c-.77-6.48-1.25-13.17-2.41-19.74-1.71-9.68-3.9-19.26-5.86-28.89-.22-1.09-.44-2.2-.46-3.3-.25-11.64-.53-23.27-.61-34.91-.01-1.75.9-3.54 1.51-5.26 1.37-3.87 3.62-7.62 4.05-11.58.82-7.65.72-15.4.77-23.11.01-1.13-.99-2.73-1.98-3.24-.68-.36-2.39.5-3.22 1.27-6.73 6.25-13.27 12.82-22.22 15.82-3.82 1.28-7.94 1.65-11.61 2.38-2.48-4.54-1.43-7.11 1.67-10.25 10.05-10.18 19.91-20.58 29.19-31.46 9.68-11.37 10.53-24.84 7.66-39.02-1.36-6.72-4.35-11.5-10.63-14.68-9.29-4.7-18.43-9.61-28.62-12.12-.54-.13-1.09-.25-1.64-.35-5.69-.99-5.71-1-8.45 3.94-3.98 7.18-9.7 12.3-17.14 15.92-6.79 3.31-13.26 7.33-19.66 11.37-1.3.82-2.48 3.18-2.35 4.72.71 8.9 1.81 17.76 2.81 26.63.2 1.81 1.25 2.8 3.16 2.68 2.66-.17 5.63.36 7.92-.65 7.2-3.2 14.16-6.96 21.19-10.55.78-.4 1.39-1.13 2.15-1.6 1.99-1.24 4.17-2.04 6.18-.32 1.21 1.04 0 5.52-1.47 6.92-12.46 11.86-27.88 17.78-44.06 22.37-11.63 3.3-22.97 3.54-34.6-.23-16.18-5.24-19.6-18.56-18.14-30.52 3.56-29.15 13.27-56.33 25.68-82.58 12.16-25.71 22.4-52.13 31.72-78.95.51-1.47 1.08-2.91 1.67-4.51 2.82 1.88 4.51 4.37 4.55 7.56.15 11.84.45 23.69.06 35.51-.33 10.2 1.79 19.23 9.05 26.76 10.96 11.36 21.79 22.84 32.78 34.16 1.24 1.27 3.04 2.29 4.76 2.75 10.57 2.85 21.48 4.88 30.49 11.62 5.18 3.88 10.16 8.08 14.76 12.62 1.63 1.6 2.13 4.56 2.69 7 3.13 13.72 2.67 27.48.72 41.35-1.9 13.5-3.07 27.11-4.62 40.66-.13 1.16-.43 2.43-1.06 3.39-2.76 4.22-2.64 7.55-.06 12.1 1.22 2.15 2.12 4.75 2.26 7.2.53 9.35.67 18.72.98 28.08.64 19.62-.35 39.13-3.62 58.52-.58 3.41-1.89 5.29-5.94 4.52zm-98.78-263.92c-.31.36-.5.51-.59.7-7.44 15.87-14.89 31.75-22.31 47.64-.94 2.01 3.28 15.45 5.14 16.66.37.24.79.41 1.2.6 7.06 3.38 14.34 3.86 21.38.44 11.93-5.8 21.64-14.56 30.61-24.19.41-.44.69-1.16.73-1.77.39-6.08.61-12.12-5.07-16.34-.62-.46-1.04-1.16-1.58-1.73-8.52-8.97-17.54-17.24-29.51-22.01zm-29.59 70.37c-1.12 2.93-2.68 6.3-3.68 9.82-2.12 7.48-5.27 14.8-4.43 22.85.5 4.8 1.7 9.87 5.92 12.25 8.91 5.02 18.34 5.05 27.5.12.73-.39 1.49-1.76 1.38-2.55-1.39-10.41-2.89-20.8-4.49-31.17-.13-.86-1.01-1.94-1.82-2.31-6.65-3.04-13.37-5.94-20.38-9.01z"/><path d="m244.59 370.63c-6.01 1.32-12.11 2.67-18.21 3.97-.51.11-1.15.09-1.62-.11-6.95-2.94-14.05-1.34-21.12-.75-19.78 1.66-39.55 1.74-59.26-.85-4.53-.6-9.01-1.65-13.47-2.68-3.76-.88-3.73-1-3.37-5.23 5.4-.91 10.85-2.02 16.36-2.66 2.69-.32 3.78-1.75 4.17-3.97.95-5.39 1.88-10.79 2.55-16.21.65-5.21 1.1-10.46 1.32-15.71.05-1.22-.85-3.09-1.87-3.65-8.01-4.41-16.71-6.8-25.69-8.31-2.14-.36-3.24.54-4.28 2.26-4.92 8.17-11.33 14.4-22.18 15.88.57-1.83.58-3.84 1.6-4.82 5.5-5.31 7.42-12.05 9.49-19.17 2.47-8.5 1.33-15.86-2.79-23.31-3.6-6.51-6.11-13.43-6.16-21.02 0-.56-.02-1.12.02-1.68.01-.18.2-.34.58-.94 3.41 3.27 6.61 6.65 10.13 9.66 4.28 3.65 7.43 7.9 9.09 13.32.46 1.5 1.66 2.85 2.75 4.07 7.74 8.7 17.13 14.75 28.28 18.31 5.94 1.9 11.6 4.68 17.44 6.91 1.1.42 2.81.65 3.66.09 5.8-3.83 12.3-4.41 18.95-4.58 2.34-.06 4.69-.26 7.01-.59 11.34-1.65 18.05-9.13 22.86-18.69 1.95-3.87 3.03-8.17 4.83-12.12 1.32-2.91 2.83-5.88 4.89-8.27 2.54-2.93 4.75-2.44 7.14.54 3.78 4.7 2.66 9.98.28 14.21-3.32 5.89-2.77 9.75 2.03 14.59 4.24 4.28 7.44 9.82 10.14 15.29 1.69 3.41 1.79 7.69 2.17 11.62.11 1.12-1.05 2.98-2.09 3.45-1.74.78-3.22-.17-4.3-2.03-2.86-4.93-5.79-9.84-9.04-14.52-1.75-2.52-4.04-4.77-6.42-6.74-2.33-1.92-4.76-1.86-7.05.68-2.61 2.91-5.47 5.62-8.4 8.2-2.03 1.78-2.96 3.89-2.86 6.46.45 12.01 4.01 23.3 8.29 34.38.49 1.28 2.4 2.38 3.88 2.84 4.35 1.37 8.8 2.46 13.25 3.5 5.63 1.3 7.71 3.6 7.02 8.38zm-69.49-8.69c4.19-.2 7.61.04 10.86-.61 5.75-1.14 11.41-2.75 17.07-4.32 1.94-.54 2.31-1.86 1.54-3.88-3.04-8.03-5.93-16.12-8.79-24.21-.59-1.67-1.35-2.47-3.27-2.57-7.58-.4-15.15-1.03-22.72-1.51-3.03-.19-5.95 2.57-6.21 5.55-.31 3.67-.9 7.33-1.04 11-.23 5.77-.2 11.56-.28 17.34-.03 2.02 1.13 2.69 2.98 2.76 3.56.12 7.13.32 9.86.45z"/><path d="m178.74 289.57c-6.08-1.29-12.21-2.41-18.23-3.93-3.56-.9-6.14-5.27-5.63-8.89.1-.71.8-1.62 1.46-1.91 2.03-.88 4.15-2.06 6.27-2.14 8.89-.34 17.8-.43 26.69-.38 2.7.02 5.61.74 6.3 3.96.68 3.21.01 6.1-2.93 8.28-3.66 2.72-8.25 4.3-13.93 5.01z"/><path d="m181.62 136.44c.12-1.22.07-2.48.39-3.64.75-2.81 2.28-4.88 5.6-4.44 2.63.35 5.33.63 7.84 1.42 4.07 1.27 5.17 5.13 2.05 7.95-3.23 2.92-6.96 5.33-10.62 7.74-1.6 1.06-3 .23-3.56-1.6-.74-2.42-1.38-4.86-2.06-7.29.12-.05.24-.09.36-.14z"/></g><path d="m385.2 377.6.6-.7c.6.4 1.3.9 1.9 1.5l-.6.7c-.8-.5-1.4-1-1.9-1.5zm.3 7.1c.6-1.4 1.1-2.9 1.5-4.5.3.1.6.3.9.4-.5 1.4-1 2.9-1.5 4.4zm.2-10.1.6-.6c.7.5 1.3 1.1 1.9 1.6l-.7.7c-.6-.6-1.2-1.2-1.8-1.7zm8.4-.8h.8v.9h1.8v.7h-1.8v1.8h-.8v-.3h-1.2v.9h3.3v2.6h-.8v-.4h-2.5c0 .3 0 .6-.1.8h3.4v.7h-3.5c0 .3-.1.6-.1.8h4v.7h-3.5c.7.9 1.9 1.3 3.6 1.5-.2.2-.4.5-.6.9-1.9-.3-3.2-1.1-3.8-2.3-.5 1.1-1.8 2-3.9 2.4-.2-.3-.4-.5-.6-.8 1.9-.4 3.1-.9 3.6-1.7h-3.2v-.7h3.5c.1-.2.1-.5.2-.8h-3.3v-.7h3.4c0-.2 0-.5 0-.8h-2.4v.3h-.8v-2.6h3.3v-.9h-1.2v.3h-.8v-1.8h-1.8v-.7h1.8v-.9h.8v.9h3.2zm-4.4 5.5h2.4c0-.3 0-.6 0-.9h-2.4zm1.2-3.1h3.2v-.8h-3.2zm4.4 2.2h-2.4v.9h2.5v-.9z" fill="#fcfbfa"/><path d="m389.2 385.8h.9v1.5h1.9v-1.5h.9v1.5h2.7v6h1.1v.9h-11.3v-.9h1.1v-6h2.7zm.2 8.7.5.8c-1.2.6-2.5 1.3-4 1.9-.2-.3-.3-.6-.6-.8 1.6-.6 3-1.3 4.1-1.9zm-2-4.3h1.9v-2.1h-1.9zm0 3.1h1.9v-2.2h-1.9zm2.7-3.1h1.9v-2.1h-1.9zm0 3.1h1.9v-2.2h-1.9zm2.4 1.3c1.4.6 2.7 1.2 4.1 1.8l-.5.9c-1.5-.7-2.8-1.4-4.1-1.9zm2.2-6.5h-1.9v2.1h1.9zm-1.9 5.2h1.9v-2.2h-1.9z" fill="#fcfbfa"/></svg>