<svg enable-background="new 0 0 400 400" viewBox="0 0 400 400" xmlns="http://www.w3.org/2000/svg"><path d="m6.8 9.5c.6.3 1.3.7 2.1 1.1-.4.4-.7.8-.9 1.2-.7-.4-1.3-.8-1.8-1.1s-1.1-.6-1.6-.8c.2-.4.5-.8.7-1.2.4.2.8.5 1.5.8zm.9 6.9c-.3.6-.5 1.1-.7 1.7s-.4 1.1-.6 1.7c-.6-.4-1.1-.7-1.6-1 .7-1 1.2-1.8 1.5-2.4.3-.5.6-1.1.8-1.7.3-.6.5-1.2.8-1.8.3.3.8.6 1.3.8-.7 1.3-1.2 2.2-1.5 2.7zm.1-11c.4.3 1 .7 1.7 1.1-.5.2-.8.6-1.1 1.1-.5-.6-1-1-1.4-1.2s-.9-.6-1.5-.8c.2-.4.5-.7.9-1.1.5.3.9.6 1.4.9zm10.5 13.1c1 .4 2 .6 3.1.7-.4.4-.7.8-.8 1.3-.9-.2-1.9-.6-3-.9-1-.4-2-.9-2.8-1.6-.5.4-1.1.9-1.9 1.3s-1.9.9-3.3 1.2c-.1-.3-.5-.8-1.1-1.3 1 0 2.1-.3 3.2-.8 1.2-.5 1.9-1 2.3-1.7h-3.2c-.4 0-1 0-2 .1v-1.2c1 0 1.7.1 2 .1h3.3v-1h-2.3c-.2 0-.9 0-2 .1v-1.2c1.2 0 1.9.1 2 .1h2.3v-.8h-4.1c0-.7.1-1.2.1-1.6 0-.5 0-1.1-.1-1.8h4.1v-.7h-2.5c0-.6.1-1.1.1-1.6v-.6h-.5c-.4 0-1 0-1.8.1v-1.3c1.2 0 1.9.1 2.1.1h.2c0-.3 0-.8-.1-1.4h1.4c0 .6-.1 1-.1 1.4h3.4c0-.4 0-.8-.1-1.3h1.5c0 .4-.1.9-.1 1.3.7 0 1.5 0 2.5-.1v1.2c-1 0-1.8-.1-2.5-.1v.6c0 .3 0 .8.1 1.5h-2.5v.8h4.1c0 .7-.1 1.3-.1 1.8s0 1 .1 1.5h-4.1v.8h1.4c.8 0 1.8 0 2.9-.1v1.2c-1 0-1.9-.1-2.8-.1h-1.5v1h3.2c.3 0 1 0 2.1-.1v1.2c-1.1 0-1.8-.1-2.1-.1h-3.4l-.1.1c1.4 1 2.4 1.5 3.4 1.9zm-4.1-6.7v-1.3h-2.7v1.3zm2.2-4.1v-1.1h-3.4v1.1zm1.9 4.1v-1.3h-2.8v1.3z" fill="#fafbfa"/><path d="m37 6.7v2.3 5.4c1 0 1.8 0 2.2-.1v1.3c-.6 0-1.5-.1-2.5-.1h-11.9c-.7 0-1.3 0-1.8.1v-1.3c.5 0 1.1.1 2 .1v-5.2c0-1 0-1.8-.1-2.5h3.7c0-1.3 0-2.1-.1-2.5h1.5c0 .4-.1 1.3-.1 2.5h2.2c0-1.2 0-2.1-.1-2.6h1.5c0 .4-.1 1.3-.1 2.6zm-12.3 13.7c-.3-.4-.7-.8-1.1-1.1 1.1-.4 2.1-.9 2.9-1.3.8-.5 1.5-1 2.1-1.6.4.4.9.8 1.3 1.1-2.5 1.4-4.2 2.4-5.2 2.9zm3.9-10.1v-2.4h-2.2v2.4zm0 4.1v-2.9h-2.2v2.9zm3.5-4.1v-2.4h-2.2v2.4zm0 4.1v-2.9h-2.2v2.9zm.4 2.9 1-1.1c.6.3 1.4.7 2.5 1.3s2 1.1 2.7 1.5c-.4.4-.8.8-1.1 1.3-.8-.8-2.5-1.7-5.1-3zm3.1-7v-2.4h-2.1v2.4zm0 4.1v-2.9h-2.1v2.9z" fill="#fafbfa"/><g fill="#010103"><path d="m318.57 337.06c-2.14.3-4.28.93-6.41.86-9.83-.36-19.7-.5-29.47-1.48-16.24-1.63-32.4-.7-48.59.47-6.81.49-13.68.43-20.41 1.42-10.59 1.55-21.14 3.54-31.61 5.77-14.74 3.15-29.75 5.4-43.74 11.36-9.25 3.94-18.26 8.41-27.45 12.5-8.23 3.67-16.9 5.83-25.84 6.81-1.53.17-3.09.02-5.52.02.97-1.58 1.4-2.98 2.34-3.71 5.07-3.87 10.24-7.61 15.44-11.3 1.07-.76 2.37-1.24 3.63-1.67 23.44-8.12 46.88-16.24 70.36-24.26 2.24-.76 3.02-1.77 3.19-4.21 1.79-26-.95-51.89-1.72-77.83-.11-3.58-.45-7.16-.38-10.73.05-2.46-1.13-3.86-3.26-3.62-5.87.65-11.7.22-16.29 6.09-13.83 17.71-30.33 32.57-50.54 42.84-6.53 3.32-13.53 5.16-20.94 4.6-.21-.29-.41-.58-.62-.87.93-.83 1.77-1.79 2.8-2.48 12.3-8.36 24.79-16.46 36.89-25.1 7.87-5.62 14.81-12.35 18.76-21.5 2.4-5.54 2.35-5.57-2.75-8.38-13.13-7.22-26.25-14.46-39.42-21.61-2.74-1.49-5.73-2.51-8.49-3.96-4.86-2.55-5.6-4.31-4.33-10.68 4.93.91 10.02 1.4 14.83 2.84 9.58 2.85 18.62 6.95 26.57 13.2 7.15 5.63 15.84 7.17 24.45 8.47 12.93 1.95 25.93 3.51 38.91 5.06 12.14 1.45 23.85-.32 35.04-5.35 3.47-1.56 6.94-3.09 10.44-4.58 9.16-3.9 17.9-8.32 25.97-14.4 7.55-5.68 16.13-10 24.31-14.82 10.17-5.99 17.44-14.48 22.52-25.69-3.25-1.06-6.22-2.31-9.32-3-11.56-2.57-23.17-4.95-34.76-7.44-3.07-.66-5.3-.05-7.6 2.51-5.97 6.66-12.14 13.18-18.68 19.28-7.23 6.74-15.69 10.43-26.05 10.42-8.31-.01-16.61 2.01-24.94 2.83-2.52.25-5.29-.08-7.69-.9-15.4-5.27-28.64-14.14-40.04-25.57-5.04-5.05-9.8-5.79-16.58-3.94-15.4 4.21-31.05 7.59-46.67 10.91-4.86 1.03-9.98 1.03-14.99 1.08-1.94.02-3.89-1.14-5.84-1.77.02-.38.04-.76.06-1.14 1.54-.36 3.08-.74 4.63-1.09 14.71-3.35 29.61-6.05 44.1-10.19 20.28-5.8 39.3-14.7 57.43-25.57 6.3-3.77 13.2-6.54 19.81-9.8 5.63-2.78 7.49-6.77 5.7-12.63-.4-1.31-1.4-2.49-2.28-3.61-2.35-3-2.59-4.74-.61-9.46 2.88 2.38 6.11 4.18 8.11 6.89 3.64 4.94 8.15 8.33 13.6 11.03 18.03 8.93 35.75 18.51 53.94 27.1 6.65 3.14 14.23 4.43 21.49 6.15 9.88 2.33 19.81 4.56 29.81 6.24 5.59.94 11.38.57 17.06 1.02 4.98.4 9.51 2.13 13.57 5.64-3.45 2.4-7.09 3.57-10.9 2.92-6.79-1.17-11.51.65-15.15 6.96-7.31 12.67-19.08 21.55-28.67 32.29-5.88 6.59-12.49 12.15-19.87 16.86-1.97 1.26-2.32 2.8-2.54 4.96-.71 6.92 1.72 12.45 5.36 18.34 7.24 11.71 17.92 19.6 28.35 27.75 9.69 7.57 20.04 14.29 30.09 21.39.99.7 1.95 1.44 3.15 2.34-3.86 2.12-7.6 1.87-11.08.25-8-3.73-15.87-7.68-22.56-13.69-7.41-6.66-14.97-13.15-22.64-19.51-4.96-4.11-9.23-8.66-12.57-14.22-3.73-6.22-7.9-12.18-12.04-18.48-7.22 2.28-14.34 4.49-21.43 6.81-.76.25-1.71.98-1.9 1.68-.77 2.72-2.35 5.8-1.7 8.24 2.38 8.95.66 17.78.2 26.65-.16 3.02-.81 6.04-.66 9.03.61 12.55-6.15 22.61-11 33.31-2.62 5.78-5.39 11.5-8.16 17.39 6.86 3.46 13.68 2.97 20.52 1.41 25.23-5.75 50.45-4.28 75.55.56 6.13 1.18 11.91 4.2 17.86 6.37-.03.44-.08.88-.14 1.32zm-132.07-162.57c23.48-.32 41.35-8.68 56.53-23.27 2.09-2 .77-8.77-1.92-10.15-11.91-6.14-23.66-12.61-35.82-18.2-4.98-2.29-10.87-2.24-16.11.49-6.93 3.61-13.76 7.4-20.62 11.14s-13.68 7.56-20.57 11.23c-1.72.92-2.25 2.05-1.52 3.77.6 1.43 1.02 3.12 2.05 4.17 4.3 4.37 8.2 9.6 13.37 12.54 8.14 4.6 16.63 9.52 24.61 8.28zm22.89 62.84c-2.69-.21-5.69-.47-8.69-.66-2.56-.16-5.13-.31-7.7-.32-2.78-.01-6.45 3.61-6.53 6.34-.35 11.84-.69 23.68-1 35.53-.02.87-.03 1.88.35 2.61 2.03 3.86 1.33 7.77.55 11.75-.9 4.6-1.62 9.24-2.41 13.86-1.2 6.96-.49 13.5 3.56 19.58 1.69 2.53 3.64 2.89 5.33.93 3.9-4.52 8.82-8.87 10.81-14.22 9.05-24.32 14.19-49.21 5.73-75.4z"/><path d="m62.57 132.79c-.6-1.86-1.08-3.31-1.64-5.03 3.06-1.37 5.98-2.71 8.92-4 27.86-12.13 54.35-26.73 79.17-44.28 18.54-13.11 32.67-30.04 42.69-50.43.73-1.48.63-4.03 3.59-3.46 3.18.61 5.78 2.71 5.86 5.56.05 1.84-.57 3.71-.98 5.54-.95 4.23-2.07 8.42-2.89 12.68-.41 2.14.56 3.7 2.65 4.86 6.94 3.84 13.54 8.4 20.71 11.72 5.82 2.69 12.26 4.06 18.47 5.86 15.45 4.49 30.92 8.91 46.4 13.3 1.92.55 3.91.92 5.9 1.14 11.88 1.32 23.77 2.51 35.64 3.88 4.44.51 8.72 1.68 12.39 5.04-9.24 3.65-18.38 3.49-27.7 2.3-12.08-1.54-24.19-2.85-36.32-3.94-7.27-.66-14.26-1.77-21.14-4.56-16.87-6.84-33.96-13.14-50.93-19.74-2.04-.79-4.01-1.94-5.78-3.24-3.69-2.71-7.53-3.52-12-2.23-4.84 1.4-8.73 3.57-12.02 7.75-10.08 12.79-23.01 22.2-37.75 28.92-23.37 10.66-46.93 20.93-70.41 31.35-.8.36-1.65.6-2.83 1.01z"/><path d="m213.52 149.18c-11.69 4.44-23.53 6.33-35.76 3.24-1.14-.29-1.78-2.5-3.09-4.46 9-1.92 15.95-7.62 24.8-6.67 2.77.3 5.56.66 8.24 1.37 3.11.82 5.17 2.9 5.81 6.52z"/></g></svg>