<svg enable-background="new 0 0 400 400" viewBox="0 0 400 400" xmlns="http://www.w3.org/2000/svg"><path d="m5.17 384 .55-.58c.85.61 1.65 1.24 2.4 1.87l-.59.64c-.83-.73-1.62-1.38-2.36-1.93m1.22 9.53-.82-.34c.71-1.76 1.37-3.64 1.98-5.63.24.13.5.25.76.36-.6 1.67-1.24 3.54-1.92 5.61m-.5-13.5.57-.54c.56.44 1.31 1.06 2.26 1.87l-.64.64c-.68-.66-1.41-1.32-2.19-1.97m3.25.46h2.24v-1.36h.77v1.36h4.57v-1.36h.76v1.36h2.28v.69h-2.28v1.84h-2.64v1.26h4.18v2.64h-4.21c0 .45-.02.86-.05 1.21h4.32v.69h-4.38c-.04.34-.1.75-.19 1.22h5.15v.69h-4.82c.87 1.19 2.51 1.92 4.93 2.19-.17.31-.3.57-.37.76-2.77-.49-4.52-1.41-5.26-2.76-.56 1.26-2.3 2.23-5.24 2.9-.12-.24-.26-.48-.43-.72 2.73-.55 4.38-1.34 4.96-2.38h-4.38v-.69h4.65c.1-.38.17-.79.21-1.22h-4.32v-.69h4.4c.03-.34.05-.75.05-1.21h-4.2v-2.64h4.23v-1.26h-2.69v-1.84h-2.24zm1.46 4.46v1.29h3.45c.01-.4.02-.57.01-.53v-.32-.45h-3.46zm1.55-2.59h4.57v-1.19h-4.57zm6.11 2.59h-3.42v.77c-.01.19-.01.37-.02.53h3.44z" fill="#fafafc"/><path d="m32.63 379.16h.82v1.98h3.54v7.89h1.46v.78h-14.37v-.78h1.46v-7.89h3.54v-1.98h.82v1.98h2.73zm-3.49 11.48.5.73c-1.61.82-3.28 1.63-5 2.41-.13-.27-.28-.55-.44-.82 1.75-.72 3.4-1.49 4.94-2.32m-2.78-5.55h2.73v-3.18h-2.73zm0 3.95h2.73v-3.2h-2.73zm3.54-3.95h2.73v-3.18h-2.73zm0 3.95h2.73v-3.2h-2.73zm7.89 4.68c-1.84-.92-3.51-1.7-5.02-2.32l.45-.73c1.89.8 3.57 1.55 5.04 2.23zm-1.62-11.81h-2.73v3.18h2.73zm-2.73 7.13h2.73v-3.2h-2.73z" fill="#fafafc"/><g fill="#010101"><path d="m106.35 320.66c-.18-2.24-.2-4.14-.52-6-.39-2.2.48-3.45 2.26-4.67 10.13-6.98 20.17-14.08 30.24-21.15 1.17-.82 2.29-1.71 3.23-2.41-7.27-12.49-10.35-25.18-5.35-39.41 5.67 3.08 8.22 7.44 8.68 13.21.38 4.78.75 9.57 1.36 14.32.62 4.77 3.3 8.35 6.94 11.45 8.72 7.44 18.94 11.72 29.85 14.6 14.49 3.83 29.17 6.05 44.12 3.74 5.11-.79 10.06-2.79 15.01-4.48 1.26-.43 2.4-1.61 3.29-2.69 3.82-4.68 7.5-9.47 11.28-14.18 3.52-4.39 7.57-7.96 13.57-8.33 1.09-.07 2.18-.01 3.53-.01.36 2.91.83 5.54.93 8.19.03.77-.87 1.69-1.53 2.35-4.06 3.95-4.22 6.64-1.72 11.63 3.99 7.96 7.59 16.12 11.55 24.63-3.23.1-5.52-.23-7.02-2.8-1.8-3.08-3.67-6.14-5.66-9.1-1.55-2.3-3.07-4.72-5.08-6.58-3.6-3.34-6.33-3.38-10.45-.89-7.08 4.28-14.23 8.45-21.19 12.92-1.48.95-2.82 2.86-3.27 4.58-2.04 7.78-.43 15.54.58 23.3.72 5.54 1.37 11.1 1.77 16.67.14 2.03.73 3.16 2.72 3.46 8.48 1.27 16.97 2.45 25.43 3.82 2.95.48 5.93 1.13 8.7 2.21 2.23.87 3.73 2.75 3.31 5.72-11.47-.58-22.84-1.51-34.21-1.66-22.38-.29-44.76-.13-67.14-.2-2.9-.01-5.81-.48-8.7-.38-4.53.15-9.05.73-13.59.89-2.83.1-5.7-.1-8.51-.46-2.56-.32-3.23-1.99-2.3-4.45 8.39-2.67 17.14-2.41 25.82-2.93 6.88-.42 13.72-1.44 20.59-2.15 2.06-.21 2.74-1.29 2.78-3.3.24-14.43.54-28.86.89-43.29.04-1.71-.51-2.55-2.13-3.2-6.22-2.49-12.33-5.27-18.56-7.73-5.75-2.27-11.35-4.73-15.86-9.09-1.39-1.34-2.57-1.13-4.17-.38-5.42 2.53-10.07 5.96-14.37 10.17-6.16 6.02-12.85 11.52-21.64 13.46-.76.17-1.52.35-2.3.44-.9.09-1.78.09-3.16.16zm117.57 43.41c-1.54-14.98-2.96-29.1-4.53-43.21-.1-.86-1.25-1.99-2.16-2.32-3.88-1.43-7.84-2.62-11.78-3.87-3.71-1.17-8.75 2.43-8.95 6.31-.35 6.93-.97 13.85-1.05 20.78-.07 6.13.39 12.27.74 18.39.19 3.38 1.99 4.71 5.52 4.42 5.12-.42 10.28-.38 15.42-.5 2.1-.04 4.2 0 6.79 0z"/><path d="m245.92 66.22c4.73-.9 9.04-2.14 13.43-2.49 13.81-1.12 27.51-.28 40.86 3.67 2.12.63 4.13 2.45 5.62 4.2 1.71 2.01 2.88 4.51 4.11 6.89 5.41 10.51 4.46 20.74-2.67 29.89-2.09 2.69-6.27 4.11-9.77 5.28-5.76 1.92-6.87 5.73-2.44 10.32 2.65 2.73 5.5 5.27 8.11 8.03 2.23 2.35 4.2 4.94 6.36 7.36 6.29 7.09 7.11 15.01 4.19 23.8-1.98 5.95-4.73 11.08-9.43 15.48-7.33 6.86-14.23 14.21-21.08 21.57-5.95 6.4-6.48 14.34-4.93 22.39 1.52 7.88 3.66 15.64 5.59 23.74-1.38.56-2.78 1.13-4.23 1.72-7.08-7.67-9.71-16.86-10.43-26.77-.89-12.37 2.43-23.59 8.97-34.09 4.42-7.1 4.34-7.53-2.13-12.91-4.87-4.04-7.16-8.99-9.31-14.85-3.53-9.59-1.13-18.47.58-27.62.96-5.16 1.98-10.3 3.06-15.9-6.56-.77-12.95-1.43-19.3-2.31-4.16-.58-8.6-.76-12.34-2.42-5.71-2.53-9.76-7.47-11.38-13.47-5.67-20.99-17.96-38.59-28.52-57.08-2.72-4.76-4.95-9.53-3.27-15.4 3.59 1.11 6.07 3.45 7.85 6.48 6.78 11.56 13.81 22.99 20.05 34.83 3.2 6.07 4.94 12.92 7.32 19.42 1.27 3.46 2.72 6.88 3.69 10.42.96 3.54 3.18 5.83 6.48 6.56 5.74 1.27 11.63 2.94 17.4 2.76 11.03-.35 22.03-1.84 33.03-2.93 4.81-.48 7.61-3.52 9.04-7.87 3.28-10.01-3.19-18.1-12.92-18.97-1.99-.18-4.02-.17-6.02 0-4.67.39-9.11-.4-13.39-2.22-4.73-2.02-9.58-2.72-14.73-1.99-3.82.54-5.47-.75-7.45-5.52zm32.96 54.76c-1.93 7.51-3.94 14.21-5.32 21.03-1.94 9.6 1.15 17.93 7.81 24.88 2.82 2.94 6.46 5.57 10.71 3.8 10.43-4.35 13.96-18.75 9.51-26.02-5.66-9.27-13.97-15.84-22.71-23.69z"/><path d="m109.34 57.76c2.18 1.51 4.06 2.52 5.56 3.92 9.56 8.89 16.75 19.45 21.6 31.54.66 1.63.7 3.72.41 5.5-3.54 21.61-7.26 43.2-10.73 64.82-.36 2.25.04 4.94.96 7.03 4.84 10.9 12.71 19.64 21.03 27.94 7.81 7.79 17.41 12.33 27.72 16.23 7.39 2.8 12.71 2.93 17.42-3.68.5-.7 1.33-1.16 2.19-1.88 3.07 5.24 3.31 10.44.68 15.66-1.71 3.38-3.68 6.64-5.71 9.85-4 6.33-8.21 12.52-12.15 18.89-3.34 5.41-7.53 9.36-14.43 9.74-.39-5.61-.74-10.86 3.01-15.88 4.73-6.33 8.68-13.25 13.2-20.29-4.54-2.1-8.77-4.34-13.21-6.05-9.55-3.68-17.66-9.19-24.64-16.76-6.97-7.55-14.69-14.41-21.92-21.74-1.17-1.19-1.9-3.17-2.11-4.88-.89-7.29-1.76-14.61-2.19-21.94-.77-13.21.97-26.09 5.96-38.45 1.21-3 1.79-6.28 3.19-9.17 3.33-6.84 1.43-13.11-1.89-19.09-2.21-3.98-5.05-7.62-7.8-11.27-4.27-5.72-7.14-11.83-6.15-20.04z"/><path d="m158 34.49c6.41 5.02 13.33 9.52 19.11 15.19 7.8 7.65 15.14 15.87 21.9 24.47 5.45 6.94 6.97 15.03 5.71 24.27-2.51 18.48-3.73 37.14-5.47 55.72-.18 1.89-.29 3.79-.47 5.68-.98 10.37 4.62 19.31 14.32 23.22 3.08 1.24 6.19 2.64 8.9 4.52 3.3 2.29 5.08 5.75 5.54 10.34-5.14-1.37-10.07-1.65-14.27-4.96-3.49-2.75-7.52-4.81-11.26-7.25-1.87-1.22-3.73-2.48-5.44-3.9-3.84-3.22-5.62-6.96-5.7-12.41-.22-15.59 1.35-31.04 2.18-46.55.36-6.81-.06-13.65.15-20.47.14-4.67.91-9.32 1.09-14 .08-2-.15-4.27-1.03-6.01-4.27-8.39-10.8-14.99-17.43-21.55-4.68-4.63-9.33-9.36-13.34-14.55-2.48-3.22-3.73-7.39-5.53-11.13.35-.2.7-.41 1.04-.63z"/><path d="m189.47 282.95c0-3.55-.57-6.51.12-9.14 1.28-4.83 3.21-9.5 5.06-14.16 1.98-4.98 4.08-9.92 6.35-14.77.99-2.12 2.55-3.97 3.93-6.06 3.58 2.22 5.48 4.99 5.62 8.26.36 8.45 4.24 14.99 9.73 21.09 2.7 3 4.54 6.81 6.56 10.37.62 1.08.55 2.55.79 3.81-6.25 2.01-6.41 1.99-10.09-3.09-2.42-3.35-4.59-6.9-7.19-10.09-1.43-1.77-3.53-3-5.43-4.56-4.68 6.23-6.29 14.6-15.45 18.34z"/><path d="m145.41 53.77c7.45 12.43 14.89 24.58 22 36.92 1.45 2.52 1.84 5.71 2.39 8.65.22 1.19-.47 3.64-.74 3.64-1.77-.01-3.61-.34-5.28-.96-.82-.3-1.38-1.42-1.97-2.23-8.11-11.18-14.78-23.11-19.24-36.23-.29-.84-.56-1.7-.77-2.56-1.03-4.21-1.02-4.21 3.61-7.23z"/><path d="m217.53 139.45c2.3 1.93 4.13 3.19 5.63 4.76 8.41 8.78 16.67 17.71 25.15 26.43 2.83 2.91 3.21 6.11 2.53 9.68-4.08 2.08-7.11.91-9.95-2.36-5.12-5.89-10.69-11.4-15.73-17.36-4.83-5.74-8.12-12.26-7.63-21.15z"/><path d="m109.47 214.77c3.28-3.3 6.55-4.52 11.06-2.28 10.78 5.34 21.31 10.93 28.79 20.78 1.26 1.67 2.24 3.55 3.46 5.53-3.3 1.83-6.4 1.53-9.15-.01-6.02-3.37-12.08-6.74-17.71-10.71-5.73-4.06-10.96-8.83-16.45-13.31z"/><path d="m190.08 205.76c-1.63-.64-3.12-.85-4.09-1.68-5.45-4.62-10.91-9.25-16.1-14.16-5.04-4.77-7.88-10.67-7.77-17.83 10.69.28 28.99 21.82 27.96 33.67z"/><path d="m242.17 244.84c-.69.26-.89.39-1.1.4-7.56.51-7.62.53-10.9-6.24-3.26-6.72-6.65-13.39-9.42-20.31-1.09-2.71-.65-6.03-.4-9.22 14.71 7.45 17.61 21.74 21.82 35.37z"/><path d="m101.52 117.66c-2.58.04-4.57-.75-6.13-3.07-4.05-6.01-8.45-11.79-12.44-17.84-3.46-5.25-4.76-10.98-2.45-17.15.36.06.68.03.77.15 6.13 8.22 12.3 16.41 18.32 24.71 2.54 3.49 3.03 7.91 1.93 13.2z"/></g></svg>