<svg enable-background="new 0 0 400 400" viewBox="0 0 400 400" xmlns="http://www.w3.org/2000/svg"><g fill="#010102"><path d="m80.18 251.98c1.2-31.54 2.39-63.08 3.63-94.62.56-14.19.84-28.41 1.96-42.55.76-9.54 4.74-17.96 11.38-25.2 18.83-20.56 37.44-41.31 56.07-62.04 1.5-1.67 2.93-2.3 5.19-2.05 10.07 1.15 18.43 4.94 23.91 14.01 7.76 12.84 18.31 23.37 28.49 34.24 8.55 9.13 16.68 18.69 24.47 28.48 4.27 5.36 4.93 12.15 4.04 18.9-.59 4.43-1.65 8.79-2.27 13.22-.53 3.74-1.13 7.53-1.01 11.27.65 19.45 1.89 38.88 2.17 58.33.15 10.59-1.52 21.19-1.79 31.8-.17 6.77.91 13.56 1.1 20.36.42 15.1.5 30.21 1.01 45.31.18 5.31 1.26 10.59 1.85 15.9.28 2.51.97 5.15.48 7.54-1.85 9.03 1.32 17.51 2.35 26.22.21 1.77.64 3.52.96 5.28.78 4.37 2.82 6 7.36 5.92 1.01-.02 2.24-.32 2.97.14 1.21.77 2.38 1.93 2.94 3.2.2.46-1.23 2.25-2.18 2.51-4.38 1.21-8.82 2.74-13.3 2.96-10.6.52-21.24.43-31.87.45-24.63.05-49.27.15-73.9-.05-10.59-.09-20.93 1.42-31.35 2.92-5.51.79-11.28-.1-16.93-.43-2.68-.15-4.27-2.05-5.59-4.28-4.36-7.35-6.05-15.41-5.89-23.79.22-11.63.86-23.26 1.33-34.89.81-19.7 1.62-39.38 2.42-59.06zm12.87-44.28c-.95 3.8-2.35 7.09-2.5 10.44-.49 10.83-.72 21.68-.68 32.51.08 21.59-.15 43.16-1.77 64.71-.92 12.16-.66 24.37 1.68 36.44.44 2.24 1.36 3.65 3.63 4.62 10.5 4.47 21.47 6.26 32.76 5.62 8.7-.5 17.35-1.72 26.03-2.57 16.21-1.59 32.35-.84 48.52.97 9.23 1.03 18.53.92 27.68-1.35 2.06-.51 3.2-1.38 3.92-3.46 3.07-8.78 2.15-17.65.86-26.53-1.66-11.38-3.73-22.7-5.08-34.11-1.07-9.1-1.26-18.3-2-27.44-.08-1.01-1.04-2.45-1.95-2.81-12.94-5.24-25.9-10.41-38.94-15.39-3.72-1.42-7.69-2.19-11.53-3.29-1.91-.55-3.92-.92-5.69-1.78-11.98-5.77-23.9-11.66-35.85-17.5-12.75-6.23-25.5-12.44-39.09-19.08zm131.37-81.23c.32-.02.64-.03.96-.05 0-2.79.01-5.59 0-8.38-.04-8.17-2.15-15.22-7.92-21.67-12.6-14.08-24.49-28.8-36.61-43.31-3.01-3.6-5.46-7.72-8.74-11.03-2.85-2.87-6.44-5.07-9.89-7.26-.77-.49-2.84-.15-3.46.56-4.5 5.09-9.32 10.03-12.97 15.7-3.51 5.46-7.21 10.35-12.7 13.92-2.19 1.42-4.18 3.33-5.81 5.38-2.56 3.22-4.53 6.9-7.1 10.11-6.23 7.77-12.88 15.21-18.94 23.11-4.43 5.77-7.64 12.11-7.41 19.91.28 9.39.1 18.81-.42 28.19-.26 4.74 1.57 7.7 5.4 9.79 1.85 1.01 3.78 2.01 5.8 2.55 10.31 2.78 19.84 7.44 29.46 11.91 24.51 11.39 48.55 23.89 74.18 32.75 2.93 1.01 5.99 1.94 9.06 2.24 5.87.57 9.47-2.95 9.47-8.72 0-13.32.08-26.64-.04-39.96-.05-5.36-.47-10.71-.83-16.06-.44-6.56-.99-13.12-1.49-19.68zm2.23 125.27c.24-2.43.49-4.75.69-7.08.21-2.45.29-4.92.54-7.37.93-8.99.4-9.96-7.82-13.69-.71-.32-1.43-.62-2.16-.92-16.41-6.79-32.84-13.5-49.21-20.39-9.68-4.07-19.01-9.14-28.94-12.4-9.19-3.02-18.07-6.38-26.39-11.3-2.11-1.25-4.28-2.51-6.59-3.3-4.26-1.46-8.64-2.59-13.34-3.96-1.47 7.76-3.75 14.53-2.28 21.66.3 1.44 1.39 3.17 2.62 3.9 5.09 3.01 10.34 5.76 15.6 8.46 10.33 5.3 20.81 10.34 31.04 15.82 4.57 2.45 9.11 4.62 14.2 5.75 2.56.57 4.99 1.84 7.42 2.93 4.66 2.1 9.07 5.12 13.94 6.3 9.97 2.42 19.42 5.92 28.57 10.44 2.7 1.33 5.49 2.51 8.31 3.58 4.42 1.67 8.93 2.79 13.8 1.57z"/><path d="m324.68 328.04c-14.11.24-25.5-5.73-36.13-14.11-8.02-6.32-11.13-14.9-13.3-24.32-2.36-10.26-.89-19.96 3.21-29.44.71-1.64 1.3-3.35 2.18-4.89 2.66-4.69 5.41-9.31 11.79-9.5 1.53-.05 3.1-.52 4.57-1.02 7.31-2.51 14.25-1.74 21.36 1.27 8.51 3.6 17.87 5.42 24.99 11.77 3.03 2.7 5.71 5.94 7.94 9.33 3.3 5.03 6.17 10.36 9.03 15.66 2.23 4.13 2.35 8.51.91 13-1.87 5.85-3.55 11.76-5.46 17.6-.43 1.3-1.26 2.63-2.27 3.55-8.2 7.45-17.85 11.24-28.82 11.1zm23.35-35.38c.03-6.25-1.45-11.15-4.57-15.41-8.43-11.56-19.88-18.34-33.81-21.25-5.99-1.25-11.37-.38-16.75 2.59-7.92 4.37-11.76 10.47-11.28 19.77.59 11.42 6.37 20.02 13.59 28.03 1.32 1.47 2.85 3.06 4.61 3.76 6.95 2.76 13.95 5.47 21.11 7.61 2.71.81 6.25.89 8.81-.16 13.04-5.38 17.76-11.89 18.29-24.94z"/><path d="m346.54 181.32c-1.12 5.44-1.17 11.42-3.62 16.17-3.12 6.07-8.06 11.3-15.19 13.42-10.86 3.23-21.24 3.16-31.82-2.1-10.37-5.16-18.74-12.26-26.13-20.97-5.59-6.59-6.23-13.28-2.97-21.11 5.62-13.47 15.52-22.04 29.01-26.9 6.76-2.44 13.27-.37 19.66 1.42 18.15 5.06 30.38 21.31 31.06 40.07zm-10.21.01c.44-22.49-26.88-37.26-42.93-31.46-6.84 2.47-12.19 6.25-13.59 14.11-.6 3.38-1.73 6.73-3.1 9.88-1.91 4.4-.86 8.2 2.06 11.4 3.68 4.02 7.79 7.66 11.76 11.42.46.43 1.18.64 1.81.83 6.54 1.89 13.04 3.93 19.64 5.59 9.6 2.42 18.62-2.47 21.81-11.76 1.11-3.25 1.7-6.67 2.54-10.01z"/><path d="m312.72 110.18c-10.96.6-20.81-2.75-30.61-6.33-2.94-1.07-5.73-2.68-8.74-3.39-8.64-2.03-11.62-8.72-13.62-16.13-2.2-8.12.05-15.51 3.68-22.91 4.41-9 11.03-13.05 21.04-14.69 12.59-2.06 24.87-4.12 37.5-1.05 6.55 1.59 12.45 4.28 17.21 9.17.62.63 1.25 1.3 1.67 2.07 3.2 5.75 6.43 11.49 9.48 17.32 2.03 3.88 3.25 7.82.12 11.93-.73.96-.71 2.79-.49 4.14.42 2.57-.23 4.37-2.18 6.21-1.94 1.84-3.24 4.33-4.92 6.46-.51.65-1.26 1.22-2.02 1.53-9.1 3.69-18.55 5.78-28.12 5.67zm-1.78-7.08c12.21.29 19.59-2.51 25.97-7.92 1.21-1.02 2.16-2.54 2.8-4.01 2.94-6.79.1-13.24-1.76-19.57-2.5-8.5-8.38-14.14-17.09-15.79-8.42-1.6-17.05-2.01-25.53-3.37-11.73-1.89-26.58 12.44-27.45 23.57-.09 1.11-.26 2.22-.41 3.33-.74 5.7 2.75 11.55 8.15 13.49 4.31 1.55 8.59 3.25 12.99 4.48 8.6 2.38 17.27 4.48 22.33 5.79z"/><path d="m196.47 300.13c-.78 8.39-2.47 15.86-9.19 21.79-6.48 5.72-13.66 7.39-21.78 5.79-9.54-1.87-19.02-4.01-28.51-6.13-1.01-.23-2.07-.91-2.78-1.68-14.84-16.19-23.93-34.76-22.82-57.23.26-5.18 1.71-10.33 2.93-15.42.68-2.84 3.08-3.69 5.66-2.28 23.44 12.82 46.87 25.63 70.23 38.6 1.57.87 2.97 2.83 3.52 4.57 1.23 3.89 1.87 7.98 2.74 11.99zm-74.1-42.69c-.53 4.98-1.61 9.19-1.28 13.3.87 10.96 4.71 21.04 10.22 30.55 1.63 2.82 3.89 4.5 6.76 5.62 4.2 1.64 7.22.22 8.54-4.08 2.47-8 4.82-16.03 7.37-24 .69-2.16.27-3.69-1.41-5.01-8.87-6.96-18.83-11.87-30.2-16.38zm43.96 63.63c3.76-.96 7.59-1.7 11.25-2.93 7.79-2.61 11.57-8.07 11.47-16.42-.07-5.78-2.06-10.25-7.28-12.93-4.07-2.08-8.25-3.94-12.4-5.86-3.4-1.56-8.11.45-9.34 4.08-2.54 7.5-5 15.02-7.44 22.55-.26.8-.59 2.13-.2 2.5 3.95 3.85 6.79 9.62 13.94 9.01z"/><path d="m181.63 160.57c-13.03-.88-22.94-4.39-32.94-7.56-4.44-1.41-8.27-3.63-11.69-6.86-5.04-4.76-10.31-9.28-15.63-13.71-2.1-1.74-2.89-3.73-2.14-6.15 1.35-4.35 2.82-8.67 4.5-12.9 4.86-12.29 13-22.37 22.32-31.45 3.61-3.52 8.35-5.88 12.6-8.73.44-.3 1.13-.65 1.53-.5 4.95 1.87 10.83 2.71 14.59 5.98 8.66 7.53 16.32 16.23 24.29 24.54.83.86 1.4 2.26 1.52 3.47 1.14 11.23 2.12 22.47 3.22 33.7.46 4.73-4.15 14.15-8.51 15.85-5.13 1.99-10.51 3.34-13.66 4.32zm-51.5-41.74c.76 7.77 4.75 11.86 8.85 15.87.26.26.83.26 1.26.29 6.65.49 13.62-4.18 16.05-10.51 1.87-4.89 3.83-9.76 6.03-14.5 2.25-4.84 4.95-9.47 7.27-14.28 2.24-4.63 1.01-7.58-3.81-9.51-2.17-.87-4.4-1.64-6.66-2.24-.97-.26-2.22-.26-3.12.12-4.74 2-8.61 5.06-11.43 9.46-3.25 5.07-6.94 9.88-9.97 15.08-2.09 3.6-3.38 7.66-4.47 10.22zm53.82-14.76c-3.2 2.66-6.43 5.24-9.53 7.96-1.3 1.14-2.82 2.41-3.41 3.94-3.84 9.89-7.41 19.87-11.17 29.8-.87 2.31.24 3.74 2.09 4.01 6.4.94 12.85 1.95 19.3 2.13 6.64.19 12.07-5.01 12.9-11.59 1.16-9.25-.02-18.3-3.05-27.07-1.28-3.72-3.31-7.07-7.13-9.18z"/><path d="m324.55 288.67c.5 4.38-6.44 8.32-11.76 5.15-2.77-1.65-4.88-4.68-6.75-7.46-1.24-1.84-.31-3.55 2.2-4.03 2.07-.39 4.1-1.03 6.14-1.58 4.97-1.33 10.29 2.81 10.17 7.92z"/><path d="m295.41 74.52c5.55-.92 10.78-2.03 16.07-2.57 4.39-.45 7.11 2.77 6.55 7.2-.1.75-.64 1.67-1.26 2.1-3.03 2.1-6.3 3.31-10.06 2.09-1.38-.45-2.77-.85-4.15-1.26-5.29-1.59-5.29-1.59-7.15-7.56z"/></g><path d="m6.4 11.7c-1-.8-1.9-1.6-2.9-2.3l.6-.7c.9.7 1.9 1.4 2.9 2.2zm-2.1 8.3c.7-2.1 1.4-4.2 2-6.4.2.1.6.3 1 .4-.7 2.3-1.3 4.4-1.9 6.4zm3-12.8c-1.1-.9-2.1-1.7-2.9-2.4l.6-.7c1 .8 2 1.5 3 2.4zm1.4-1.3v-.9h10.2v.9c-.9 4.2-2.3 7.3-4.1 9.4 1.3 1.4 3.2 2.7 5.7 4-.2.2-.4.5-.7.9-2.5-1.4-4.4-2.7-5.7-4.2-1.4 1.5-3.5 3-6.1 4.4 0 0 0 0-.1-.1-.3-.4-.5-.7-.7-.8 2.7-1.3 4.7-2.8 6.2-4.2-1.8-2.2-3-5.3-3.7-9.4zm9.2 0h-7.1c.6 3.8 1.7 6.7 3.4 8.7 1.7-2 2.9-4.8 3.7-8.7z" fill="#fafbfa"/><path d="m31.6 3.6h.9v2.3h4.1v9.1h1.7v.9h-16.6v-.9h1.7v-9.1h4.1v-2.3h.9v2.3h3.1v-2.3zm-4 13.3.6.8c-1.9.9-3.8 1.9-5.8 2.8-.2-.3-.3-.6-.5-.9 2-.9 3.9-1.8 5.7-2.7zm-3.2-10.1v3.7h3.1v-3.7zm0 4.5v3.7h3.1v-3.7zm4.1-4.5v3.7h3.1v-3.7zm0 4.5v3.7h3.1v-3.7zm9.1 9.1c-2.1-1.1-4.1-2-5.8-2.7l.5-.8c2.2.9 4.1 1.8 5.8 2.6zm-1.9-13.6h-3.1v3.7h3.1zm-3.2 4.5v3.7h3.1v-3.7z" fill="#fafbfa"/></svg>