<svg enable-background="new 0 0 400 400" viewBox="0 0 400 400" xmlns="http://www.w3.org/2000/svg"><path d="m6.8 9.5c.6.3 1.3.7 2.1 1.1-.4.4-.7.8-.9 1.2-.7-.4-1.3-.8-1.8-1.1s-1.1-.6-1.6-.8c.2-.4.5-.8.7-1.2.4.2.8.5 1.5.8zm.9 6.9c-.3.6-.5 1.1-.7 1.7s-.4 1.1-.6 1.7c-.6-.4-1.1-.7-1.6-1 .7-1 1.2-1.8 1.5-2.4.3-.5.6-1.1.8-1.7.3-.6.5-1.2.8-1.8.3.3.8.6 1.3.8-.7 1.3-1.2 2.2-1.5 2.7zm.1-11c.4.3 1 .7 1.7 1.1-.5.2-.8.6-1.1 1.1-.5-.6-1-1-1.4-1.2s-.9-.6-1.5-.8c.2-.4.5-.7.9-1.1.5.3.9.6 1.4.9zm10.5 13.1c1 .4 2 .6 3.1.7-.4.4-.7.8-.8 1.3-.9-.2-1.9-.6-3-.9-1-.4-2-.9-2.8-1.6-.5.4-1.1.9-1.9 1.3s-1.9.9-3.3 1.2c-.1-.3-.5-.8-1.1-1.3 1 0 2.1-.3 3.2-.8 1.2-.5 1.9-1 2.3-1.7h-3.2c-.4 0-1 0-2 .1v-1.2c1 0 1.7.1 2 .1h3.3v-1h-2.3c-.2 0-.9 0-2 .1v-1.2c1.2 0 1.9.1 2 .1h2.3v-.8h-4.1c0-.7.1-1.2.1-1.6 0-.5 0-1.1-.1-1.8h4.1v-.7h-2.5c0-.6.1-1.1.1-1.6v-.6h-.5c-.4 0-1 0-1.8.1v-1.3c1.2 0 1.9.1 2.1.1h.2c0-.3 0-.8-.1-1.4h1.4c0 .6-.1 1-.1 1.4h3.4c0-.4 0-.8-.1-1.3h1.5c0 .4-.1.9-.1 1.3.7 0 1.5 0 2.5-.1v1.2c-1 0-1.8-.1-2.5-.1v.6c0 .3 0 .8.1 1.5h-2.5v.8h4.1c0 .7-.1 1.3-.1 1.8s0 1 .1 1.5h-4.1v.8h1.4c.8 0 1.8 0 2.9-.1v1.2c-1 0-1.9-.1-2.8-.1h-1.5v1h3.2c.3 0 1 0 2.1-.1v1.2c-1.1 0-1.8-.1-2.1-.1h-3.4l-.1.1c1.4 1 2.4 1.5 3.4 1.9zm-4.1-6.7v-1.3h-2.7v1.3zm2.2-4.1v-1.1h-3.4v1.1zm1.9 4.1v-1.3h-2.8v1.3z" fill="#fafbfa"/><path d="m37 6.7v2.3 5.4c1 0 1.8 0 2.2-.1v1.3c-.6 0-1.5-.1-2.5-.1h-11.9c-.7 0-1.3 0-1.8.1v-1.3c.5 0 1.1.1 2 .1v-5.2c0-1 0-1.8-.1-2.5h3.7c0-1.3 0-2.1-.1-2.5h1.5c0 .4-.1 1.3-.1 2.5h2.2c0-1.2 0-2.1-.1-2.6h1.5c0 .4-.1 1.3-.1 2.6zm-12.3 13.7c-.3-.4-.7-.8-1.1-1.1 1.1-.4 2.1-.9 2.9-1.3.8-.5 1.5-1 2.1-1.6.4.4.9.8 1.3 1.1-2.5 1.4-4.2 2.4-5.2 2.9zm3.9-10.1v-2.4h-2.2v2.4zm0 4.1v-2.9h-2.2v2.9zm3.5-4.1v-2.4h-2.2v2.4zm0 4.1v-2.9h-2.2v2.9zm.4 2.9 1-1.1c.6.3 1.4.7 2.5 1.3s2 1.1 2.7 1.5c-.4.4-.8.8-1.1 1.3-.8-.8-2.5-1.7-5.1-3zm3.1-7v-2.4h-2.1v2.4zm0 4.1v-2.9h-2.1v2.9z" fill="#fafbfa"/><path d="m173.88 25.45c.76-.17.87-.24.95-.21 8.39 2.9 8.05 2.89 7.81 11.73-.23 8.55.03 17.14.65 25.68.63 8.61 5.64 11.32 13.97 8.83 6.21-1.85 11.24-4.99 15.53-9.85 2.58-2.92 6.05-5.05 9.8-8.08.11 4.83-.21 7.96-3.56 10.53-7.81 5.99-15.4 12.28-22.93 18.63-5.72 4.82-9.86 10.65-10.37 18.49-.13 2.01.51 3.26 2.2 4.41 6.67 4.57 14.24 5.77 22.02 5.95 4.45.1 8.92-.63 13.38-.7 19.75-.33 38.92 2.73 57.59 9.36 10.03 3.56 14.11 10.87 14.26 20.76.21 13.31-.33 26.64-.01 39.94.44 18.22.88 36.47 2.34 54.63.78 9.64 1.07 19.17.58 28.78-.04.74-.13 1.48-.19 2.22-.46.38-.91.77-1.37 1.15-.28-.85-.42-1.78-.85-2.54-2.88-5.03-4.83-10.36-5.01-16.18-.92-29.07-1.69-58.15-2.71-87.22-.22-6.24-.9-12.5-1.92-18.66-1.88-11.4-8.88-18.38-20.05-20.72-5.64-1.18-11.51-1.42-17.29-1.77-14.29-.86-28.58-1.54-42.88-2.27-1.34-.07-2.69.01-4.03.1-10.25.69-15.69 7.23-14.98 17.54.22 3.2-.51 6.45-.64 9.68-.05 1.11 0 2.66.67 3.3 5.28 4.99 12.83 6.17 17.78 1.51 5.57-5.24 12.77-7.17 20.29-7.8 3.23-.27 6.47-.46 9.7-.75 3.05-.27 5.85-.02 8.64 1.68 1.6.97 3.85.95 5.83 1.17 7.78.89 13.57 5.52 15.38 13.18 2.22 9.35.62 17.74-7.31 24.16-3.83 3.1-7.57 6.31-11.22 9.61-5.25 4.75-11.32 6.45-18.28 5.59-2.88-.36-5.83-.17-8.7-.56-4.67-.65-8.27 1.16-11.39 4.35-5 5.12-9.93 10.31-14.98 15.38-3.63 3.65-4.8 7.65-3.28 12.74 1.36 4.52 1.03 4.53 5.81 4.34 10.31-.41 20.54.27 30.66 2.49 7.48 1.64 12.1 6.16 12.85 13.57.61 6.04-.1 12.23-.38 18.34-.05 1.01-1.01 1.95-1.38 2.99-1.18 3.23-3.36 6.53-3.23 9.72.78 18.84-10.5 28.85-25.73 35.84-4.78 2.2-10.14 3.44-15.36 4.29-3.75.61-6.45 2.44-7.14 5.57-1.24 5.62-1.54 11.45-2.01 17.22-.04.54 1.43 1.46 2.34 1.78 6.81 2.35 13.88 1.99 20.93 2 3.44 0 6.94.21 10.31.84 2.83.53 5.08 2.24 5.73 5.5-5.11 3.34-10.68 4.36-16.63 4.25-6.47-.12-12.94.1-19.41.11-2.52 0-4.04 1.3-5.4 3.31-2.94 4.35-6.09 8.56-9.49 13.31-1.94-3.66-3.88-6.88-5.38-10.31-1.05-2.39-2.65-3.26-5.07-3.57-6.21-.8-12.46-1.48-18.57-2.79-3.16-.68-6.21-2.37-9.01-4.08-1.33-.81-1.97-2.75-2.93-4.17.12-.39.24-.79.36-1.18 4.94-.26 9.89-.58 14.84-.77 5.35-.2 10.75.09 16.05-.52 5.06-.58 5.8-1.9 6.36-6.91.51-4.56 1.25-9.09 1.59-13.66.08-1.08-.76-2.82-1.67-3.28-3.68-1.85-7.52-3.39-11.36-4.9-2.7-1.07-5.5-1.87-8.23-2.87-6.61-2.41-11.92-6.23-15.27-12.74-7.03-13.69-12.76-27.79-15.63-43-.79-4.17.68-7.41 3.27-10.03 4.23-4.29 8.68-8.45 13.47-12.09 5.25-4 11.32-5.69 18.03-3.88 2.47.66 5.02 1.25 7.57 1.42 4.53.3 6.15-2.1 5.93-6.53-.32-6.51-3.17-11.53-7.17-16.44-7.28-8.93-14.2-18.16-21.13-27.37-1.61-2.14-3.28-3.28-6.07-3.29-8.32-.04-16.48-.82-24.01-5.02-8.3-4.64-13.86-10.99-12.54-20.97.78-5.9 2.92-11.51 7.3-16.14 10.16-10.74 21.95-14.5 36.14-9.45.31.11.65.17.98.22 5.26.8 9.28 3.02 12.47 7.74 5.01 7.44 12.56 10.8 22.02 10.41.23-2.99.51-5.95.69-8.91.8-13.29 1.52-26.59 2.39-39.88.14-2.18-.58-2.97-2.59-3.81-17.14-7.2-32.56-16.81-43.71-32.19-1.57-2.17-3.58-4.05-4.98-6.32-1.33-2.16-2.11-4.66-3.43-7.7 5.86.44 9.71 2.31 13.02 5.83 7.03 7.49 13.96 15.12 21.54 22.03 2.93 2.67 7.4 3.86 11.35 5.14 2.83.92 4.79-.86 5.88-3.65 2.49-6.4 2.11-12.89 1.15-19.5-1.15-7.94-2.23-15.91-2.83-23.91-.23-3.34.82-6.8 1.29-10.2zm4.05 193.01c1.76-1.09 3.51-1.78 4.73-3 6.97-6.9 13.85-13.9 20.65-20.98.58-.6.6-2.09.39-3.06-1.88-8.5-3.94-16.97-5.78-25.48-.42-1.94-1.34-2.77-3.16-3.25-10.68-2.85-21.35-5.74-31.99-8.74-1.91-.54-2.98-.21-4.13 1.45-4.27 6.16-8.64 12.24-13.12 18.24-1.19 1.6-1.15 2.79-.26 4.47 8.23 15.58 20.71 27.65 32.67 40.35zm63.47-69.35c-5.05 1.09-9.21 2.11-13.42 2.87-4.27.78-8.6 1.27-12.88 1.96-2.17.35-3.71 1.48-3.82 3.9-.21 4.53-1.29 9.25-.42 13.57 2.32 11.46 9.2 17.95 20.54 16.15 10.76-1.71 20.73-12.57 21.43-23.64.06-.92-.2-2.11-.77-2.78-3.7-4.31-7.53-8.52-10.66-12.03zm-95.07 124.42c-9.64.24-13.75 5.57-10.82 14.57.52 1.59 1.26 3.1 1.86 4.66 4.2 10.76 12.82 15.21 23.61 16.32 6.1.63 9.18-1.97 10.11-7.79.82-5.07 1.55-10.17 2.64-15.18.68-3.14-.35-5.18-2.93-6.69-1.25-.73-2.47-1.71-3.83-1.99-6.86-1.41-13.76-2.62-20.64-3.9zm65.53-30.57c-3.39.33-6.05.67-8.72.84s-5.36.09-8.03.28c-7.93.57-9.3 1.82-10.01 9.68-.21 2.36-.63 5.74.66 7 3.69 3.59 7.8 7.41 12.49 9.17 10.01 3.77 19.76 1.45 28.72-4.16.7-.44 1.54-1.19 1.66-1.91.55-3.17 1.26-6.4 1.17-9.59-.14-5.27-2.59-8.22-7.77-9.58-3.52-.92-7.21-1.25-10.17-1.73zm-85.41-72.91c10.18.13 14.79-3.2 18.73-12.56 2.75-6.53.25-12.73-6.37-15.26-2.69-1.03-5.59-1.52-8.36-2.34-8.62-2.54-15.71-1.11-21.57 6.51-4 5.2-4.9 10.01-1.08 15.38 4.95 6.95 12.59 7.24 18.65 8.27zm58.93 123.26c-.39 0-.77 0-1.16.01 1 3.94 1.91 7.9 3.05 11.79.59 2 2.1 2.5 4.21 1.96 6.48-1.65 13.3-2.43 19.42-4.93 3.96-1.62 6.95-5.64 10.33-8.64.24-.21.12-.85.12-1.3.09-5.55-3.24-10.26-8.5-11.91-3.51-1.1-7.16-1.83-10.56-3.19-3.63-1.45-6.28-.41-9.52 1.48-5.81 3.38-9.25 7.49-7.39 14.73zm-53.12-43.07c2.09 3.36 3.86 6.33 5.76 9.21.45.68 1.29 1.27 2.07 1.54 6.21 2.15 12.38 4.48 18.71 6.22 4.82 1.33 9.79 1.03 14.31-1.49.74-.41 1.53-1.66 1.46-2.45-.47-5.11-1.21-10.2-1.78-15.3-.19-1.73-.94-2.45-2.74-2.61-6.23-.56-12.44-1.32-18.66-1.94-.97-.1-2.07-.13-2.95.21-5.29 2.07-10.52 4.28-16.18 6.61z" fill="#010103"/></svg>