<svg enable-background="new 0 0 400 400" viewBox="0 0 400 400" xmlns="http://www.w3.org/2000/svg"><path d="m6.8 9.5c.6.3 1.3.7 2.1 1.1-.4.4-.7.8-.9 1.2-.7-.4-1.3-.8-1.8-1.1s-1.1-.6-1.6-.8c.2-.4.5-.8.7-1.2.4.2.8.5 1.5.8zm.9 6.9c-.3.6-.5 1.1-.7 1.7s-.4 1.1-.6 1.7c-.6-.4-1.1-.7-1.6-1 .7-1 1.2-1.8 1.5-2.4.3-.5.6-1.1.8-1.7.3-.6.5-1.2.8-1.8.3.3.8.6 1.3.8-.7 1.3-1.2 2.2-1.5 2.7zm.1-11c.4.3 1 .7 1.7 1.1-.5.2-.8.6-1.1 1.1-.5-.6-1-1-1.4-1.2s-.9-.6-1.5-.8c.2-.4.5-.7.9-1.1.5.3.9.6 1.4.9zm10.5 13.1c1 .4 2 .6 3.1.7-.4.4-.7.8-.8 1.3-.9-.2-1.9-.6-3-.9-1-.4-2-.9-2.8-1.6-.5.4-1.1.9-1.9 1.3s-1.9.9-3.3 1.2c-.1-.3-.5-.8-1.1-1.3 1 0 2.1-.3 3.2-.8 1.2-.5 1.9-1 2.3-1.7h-3.2c-.4 0-1 0-2 .1v-1.2c1 0 1.7.1 2 .1h3.3v-1h-2.3c-.2 0-.9 0-2 .1v-1.2c1.2 0 1.9.1 2 .1h2.3v-.8h-4.1c0-.7.1-1.2.1-1.6 0-.5 0-1.1-.1-1.8h4.1v-.7h-2.5c0-.6.1-1.1.1-1.6v-.6h-.5c-.4 0-1 0-1.8.1v-1.3c1.2 0 1.9.1 2.1.1h.2c0-.3 0-.8-.1-1.4h1.4c0 .6-.1 1-.1 1.4h3.4c0-.4 0-.8-.1-1.3h1.5c0 .4-.1.9-.1 1.3.7 0 1.5 0 2.5-.1v1.2c-1 0-1.8-.1-2.5-.1v.6c0 .3 0 .8.1 1.5h-2.5v.8h4.1c0 .7-.1 1.3-.1 1.8s0 1 .1 1.5h-4.1v.8h1.4c.8 0 1.8 0 2.9-.1v1.2c-1 0-1.9-.1-2.8-.1h-1.5v1h3.2c.3 0 1 0 2.1-.1v1.2c-1.1 0-1.8-.1-2.1-.1h-3.4l-.1.1c1.4 1 2.4 1.5 3.4 1.9zm-4.1-6.7v-1.3h-2.7v1.3zm2.2-4.1v-1.1h-3.4v1.1zm1.9 4.1v-1.3h-2.8v1.3z" fill="#fafbfa"/><path d="m37 6.7v2.3 5.4c1 0 1.8 0 2.2-.1v1.3c-.6 0-1.5-.1-2.5-.1h-11.9c-.7 0-1.3 0-1.8.1v-1.3c.5 0 1.1.1 2 .1v-5.2c0-1 0-1.8-.1-2.5h3.7c0-1.3 0-2.1-.1-2.5h1.5c0 .4-.1 1.3-.1 2.5h2.2c0-1.2 0-2.1-.1-2.6h1.5c0 .4-.1 1.3-.1 2.6zm-12.3 13.7c-.3-.4-.7-.8-1.1-1.1 1.1-.4 2.1-.9 2.9-1.3.8-.5 1.5-1 2.1-1.6.4.4.9.8 1.3 1.1-2.5 1.4-4.2 2.4-5.2 2.9zm3.9-10.1v-2.4h-2.2v2.4zm0 4.1v-2.9h-2.2v2.9zm3.5-4.1v-2.4h-2.2v2.4zm0 4.1v-2.9h-2.2v2.9zm.4 2.9 1-1.1c.6.3 1.4.7 2.5 1.3s2 1.1 2.7 1.5c-.4.4-.8.8-1.1 1.3-.8-.8-2.5-1.7-5.1-3zm3.1-7v-2.4h-2.1v2.4zm0 4.1v-2.9h-2.1v2.9z" fill="#fafbfa"/><path d="m118.98 263.13c-.04-17.42 4.02-31.36 10.96-44.51.89-1.68 2.6-3.03 4.15-4.25 5.54-4.35 11.17-8.6 16.79-12.85 2.03-1.54 2.8-3.4 2.75-6.03-.17-9.85.05-19.7-.12-29.55-.07-3.91.44-7.55 2.34-10.96 1.9-3.42 2.19-7.08 2.4-10.95 1.12-20.42-2.88-40.32-5.67-60.34-.99-7.09-2.13-14.15-3.01-21.25-.29-2.3-1.18-3.18-3.42-4.08-9.07-3.65-18.03-1.52-27.04-.19-5.8.86-8.46-1.42-8.47-7.25 0-6.13.37-6.62 6.19-8.25 20.77-5.82 41.96-8.96 63.52-9.51 20.52-.52 40.73-3.49 60.95-6.79 6.92-1.13 14.24-.15 21.35.32 4.31.29 8.64 1.19 12.82 2.33 3.54.97 6.46 3.05 7.18 7.16.41 2.34-.21 3.58-2.72 4.36-9.49 2.95-18.84 6.35-28.36 9.2-3.58 1.07-5.84 3.18-6.38 6.48-.82 5.01-1.5 10.18-1.22 15.22.98 17.42 2.97 34.8 3.45 52.22.26 9.53-1.02 19.28-2.93 28.66-2.5 12.27 1.02 23.42 4.39 34.73.3 1 1.43 1.92 2.39 2.53 6.51 4.14 13.13 8.11 19.59 12.33 1.38.9 2.65 2.4 3.31 3.91 6.27 14.38 8.05 29.68 9.01 45.14.14 2.23.14 4.48.36 6.7 1.02 10.62-.2 20.71-4.54 30.72-5.5 12.69-9.59 26-14.88 38.79-6.51 15.78-16.88 28.87-29.85 39.92-.71.61-1.8 1.27-2.63 1.17-9.92-1.17-18.45 3.69-27.55 6.11-1.78.47-3.99.54-5.68-.07-10.72-3.86-21.36-7.93-32-12.01-1.18-.45-2.49-1.18-3.22-2.16-16.2-21.87-29.12-45.57-39.04-70.88-3.57-9.12-5.23-18.71-5.17-26.12zm93.53-33.25c-.14.02-.28.03-.41.05 1.08 9.53 2.14 19.07 3.27 28.6.18 1.54.57 2.91 2.67 3.23 9.39 1.41 18.48.75 27.17-3.32 5.15-2.41 8.5-5.94 7.96-12.15-.28-3.22.02-6.49-.3-9.7-.64-6.35-1.77-12.6-5.1-18.23-1.66-2.79-3.53-5.05-7.22-4.91-5.46.21-10.13-2.16-14.81-4.61-6.05-3.16-6.01-2.98-11.26 1.37-2.1 1.74-3 3.5-2.7 6.28.47 4.44.51 8.92.73 13.39zm-41.15-19.34c-7.77 7.24-14.8 13.77-21.79 20.34-.54.51-.9 1.28-1.17 2-2.09 5.66-4.26 11.29-6.15 17.02-1.83 5.56-1.13 10.97 1.3 16.31 1.25 2.74 3.13 3.91 5.94 3.93 10.05.09 19.77-1.65 29.29-4.87 3.96-1.34 5.64-3.86 5.61-7.93-.09-12.75-1.9-25.21-6.78-37.04-1.33-3.26-3.83-6.05-6.25-9.76zm44.76 100.91c3.91 6.44 3.82 13.34 3.87 20.32.02 3.25 1.29 6.51 2.09 9.74.47 1.88 1.51 2.53 3.69 2.14 7.91-1.42 11.69-5.52 13.28-13.4 1.34-6.62 3.51-13.09 5.43-19.59.87-2.96 2.26-5.77 2.99-8.76.79-3.25.76-6.71 1.69-9.91 1.28-4.39.5-7.75-3.31-10.41-2.26-1.58-2.14-3.77-.34-5.42 2.37-2.17 1.5-4.02.19-6.37-.64.47-1.11.72-1.48 1.09-5.24 5.31-11.09 9.4-18.92 9.7-.87.03-1.74.42-2.57.74-2.94 1.15-4.55 3.05-3.84 6.46.62 2.95.81 6 1.57 8.91 1.48 5.76 1.38 10.94-4.34 14.76zm-37.04-158.1c-.67 10.44-.87 20.47 1.33 30.41.5 2.26 1.46 3.42 4.12 3.08 3.65-.47 7.36-.45 11.05-.65 8.47-.47 16.93-.95 26.3-1.47.72-8.11 1.85-16.08 2.01-24.06.14-7.35-5.94-12.66-12.95-11.79-10.54 1.28-21.03 2.93-31.86 4.48zm1.09-50.06c.82 9.37 1.63 18.54 2.43 27.66.71.07 1.05.17 1.37.13 10.98-1.37 21.96-2.73 32.93-4.17.76-.1 1.86-.68 2.08-1.3 2.88-8.07 4.04-16.31.82-24.52-1.21-3.09-4.11-5.23-7.48-4.59-10.63 2-21.17 4.44-32.15 6.79zm12.83 241.41c-.07-.88-.11-1.63-.19-2.37-1.66-15.56-3.37-31.11-4.96-46.68-.63-6.15-.55-5.98-6.56-7.74-3.12-.91-5.41-.45-7.89 1.61-3.78 3.14-7.98 5.77-11.75 8.92-1.14.95-2.26 3.06-1.98 4.34.76 3.55 1.59 7.4 3.59 10.31 6.82 9.93 14.19 19.48 21.27 29.24 2.22 3.06 5.06 3.12 8.47 2.37zm3.98-263.34c.03.17.06.33.1.5 6.36-1.07 12.75-2.03 19.07-3.27 2.51-.49 3.97-2.18 3.78-5.07-.28-4.12-.15-8.27-.52-12.38-.64-7.02-3.22-9.4-10.19-10.68-7.54-1.38-14.9-.43-22.23 1.18-4.25.93-5.53 2.59-5.85 6.9-.19 2.56-.63 5.17-.34 7.69.46 4.04 1.26 8.08 2.27 12.02.57 2.21 2.33 3.31 4.86 3.16 3.01-.18 6.04-.05 9.05-.05zm-21.33 10.5c-.37 2.52-.62 4.3-.98 6.76 1.71-.93 2.88-1.56 4.35-2.36-1.12-1.47-2.01-2.63-3.37-4.4z" fill="#010103"/></svg>