<svg enable-background="new 0 0 400 400" viewBox="0 0 400 400" xmlns="http://www.w3.org/2000/svg"><path d="m5.17 384 .55-.58c.85.61 1.65 1.24 2.4 1.87l-.59.64c-.83-.73-1.62-1.38-2.36-1.93m1.22 9.53-.82-.34c.71-1.76 1.37-3.64 1.98-5.63.24.13.5.25.76.36-.6 1.67-1.24 3.54-1.92 5.61m-.5-13.5.57-.54c.56.44 1.31 1.06 2.26 1.87l-.64.64c-.68-.66-1.41-1.32-2.19-1.97m3.25.46h2.24v-1.36h.77v1.36h4.57v-1.36h.76v1.36h2.28v.69h-2.28v1.84h-2.64v1.26h4.18v2.64h-4.21c0 .45-.02.86-.05 1.21h4.32v.69h-4.38c-.04.34-.1.75-.19 1.22h5.15v.69h-4.82c.87 1.19 2.51 1.92 4.93 2.19-.17.31-.3.57-.37.76-2.77-.49-4.52-1.41-5.26-2.76-.56 1.26-2.3 2.23-5.24 2.9-.12-.24-.26-.48-.43-.72 2.73-.55 4.38-1.34 4.96-2.38h-4.38v-.69h4.65c.1-.38.17-.79.21-1.22h-4.32v-.69h4.4c.03-.34.05-.75.05-1.21h-4.2v-2.64h4.23v-1.26h-2.69v-1.84h-2.24zm1.46 4.46v1.29h3.45c.01-.4.02-.57.01-.53v-.32-.45h-3.46zm1.55-2.59h4.57v-1.19h-4.57zm6.11 2.59h-3.42v.77c-.01.19-.01.37-.02.53h3.44z" fill="#fafafc"/><path d="m32.63 379.16h.82v1.98h3.54v7.89h1.46v.78h-14.37v-.78h1.46v-7.89h3.54v-1.98h.82v1.98h2.73zm-3.49 11.48.5.73c-1.61.82-3.28 1.63-5 2.41-.13-.27-.28-.55-.44-.82 1.75-.72 3.4-1.49 4.94-2.32m-2.78-5.55h2.73v-3.18h-2.73zm0 3.95h2.73v-3.2h-2.73zm3.54-3.95h2.73v-3.18h-2.73zm0 3.95h2.73v-3.2h-2.73zm7.89 4.68c-1.84-.92-3.51-1.7-5.02-2.32l.45-.73c1.89.8 3.57 1.55 5.04 2.23zm-1.62-11.81h-2.73v3.18h2.73zm-2.73 7.13h2.73v-3.2h-2.73z" fill="#fafafc"/><g fill="#010101"><path d="m220.76 212.34c-1.2-4.73.08-8.02 3.72-10.84 3.7-2.86 6.93-6.32 11.02-10.11-2.1-1.81-3.9-3.71-6.05-5.06-1.14-.71-2.89-.7-4.33-.59-1.42.11-2.8.74-4.19 1.15-4.03 1.2-5.51.23-5.12-4.01.2-2.23 1.32-4.43 2.29-6.52 1.45-3.13 1.05-5.44-1.67-7.54-.8-.61-2.09-.95-2.41-1.73-.77-1.87-1.11-3.92-1.62-5.89 1.52-.34 3.16-1.2 4.54-.9 3.01.67 6.09 1.55 8.76 3.05 3.96 2.22 7.56 2.23 11.36-.09 3.81-2.33 4.92-6 4.77-10.06-.09-2.41-.94-4.79-1.51-7.18-.5-2.11-1.25-4.42 1.28-5.6 2.55-1.19 5.44-1.92 7.86.24 5.63 5.02 12.77 4.49 17.76-1.6.54-.66.61-1.85.63-2.79.07-5.26.06-10.52.09-15.78 0-.19.16-.39.32-.75 3.66.4 6.66 2.41 8.52 5.23 3.05 4.61 6.32 9.42 7.84 14.63 2.76 9.5 4.45 19.33 6.28 29.09.99 5.29.08 10.41-2.75 15.18-1.76 2.97-3.35 6.1-4.56 9.33-2.65 7.06-8.27 11.56-13.65 16.22-8.13 7.02-16.67 13.6-22.77 22.65-.56.83-1.12 1.65-1.87 2.75 4.33 3.47 8.76 5.85 14.45 4.77 1.97-.37 3.98-.85 5.96-.79 6.53.19 11.34 2.76 14.08 9.26 5.38 12.76 8.63 26.09 11.39 39.56 1.95 9.51 3.26 19.16 4.91 28.74.46 2.68-.21 4.6-3.75 5.75-2.55-6.12-5.68-12.17-7.59-18.58-2.93-9.83-4.8-19.98-7.57-29.86-1.71-6.11-4.11-12.04-6.54-17.92-.65-1.57-2.34-2.96-3.88-3.86-6.19-3.61-13.15-4.06-20.09-4.47-2.44-.14-4.95-.12-7.3-.69-4.6-1.11-6.63-4.19-5.66-8.72 1.19-5.61 3.14-10.88 7.69-14.89 2.16-1.9 4.03-4.2 5.75-6.52 2.73-3.66 2.49-7.76.98-11.81-.29-.77-1.26-1.48-2.08-1.81-1.55-.61-3.28-.78-4.82-1.4-2.01-.81-3.21-.21-4.51 1.44-1.93 2.45-4.14 4.7-6.37 6.89-2.69 2.61-5.94 3.33-9.59 2.43zm38.17-28.28c-1.56 1.29-2.95 2.41-4.3 3.56-2.99 2.53-3.14 6.39-.42 10.32 2.98 4.31 2.98 4.31 7.93 1.63.29-.16.58-.33.88-.49 4.29-2.36 4.91-8.19 1.12-11.34-1.61-1.33-3.42-2.42-5.21-3.68zm5.53-19.2c3.17-2.19 6.27-3.88 8.75-6.21 1.56-1.47 2.66-3.82 3.06-5.95.21-1.11-1.29-2.89-2.46-3.79-.78-.61-2.71-.75-3.49-.19-3.53 2.49-6.83 5.3-10.37 8.11 1.52 2.68 2.92 5.18 4.51 8.03zm-20.27 19.19c2.69-1.85 4.9-3.37 7.1-4.88 3.2-2.2 3.65-7.06.4-9.26-1.64-1.11-4.54-1.61-6.34-.95-2.47.91-4.44 3.19-6.76 4.99 1.9 3.42 3.66 6.6 5.6 10.1zm27.26-12.23v3.99c0 1.1-.12 2.24.09 3.3.11.58.75 1.39 1.26 1.47.57.09 1.52-.35 1.83-.85 1.64-2.64.46-6.1-3.18-7.91z"/><path d="m240.72 119.17c-.36-6.28-.74-12.4-1.06-18.53-.32-6.14-.6-12.29-.85-18.44-.08-1.94.01-3.73-2.6-4.28-2.38-.5-4.18-1.99-6.82.55-10.48 10.06-21.08 20.05-32.18 29.42-9.97 8.41-13.15 8.27-24.05 1.44-2.63-1.65-4.65-4.29-7.33-5.81-3.61-2.05-7.59-3.44-12.34-5.53-.47 4.33-1.21 7.5-1.07 10.64.27 6.36 1.27 12.69 1.46 19.04.14 4.4-.24 8.89-1.01 13.22-.53 2.99-2.61 5.35-6.58 6.76-.97-5.22-2.3-10.18-2.73-15.21-.77-9.02-.91-18.09-1.52-27.12-.14-2.03.32-4.69-2.61-5.57-1.83-.55-3.26-.47-4.68 1.27-5.45 6.66-11.01 13.26-16.7 19.71-4.59 5.21-10.08 9.17-17.03 10.72-.54.12-1.09.23-1.65.28-.31.03-.64-.09-1.19-.18.94-6.1 1.86-11.82 6.91-16.42 5.61-5.1 10.55-10.96 15.58-16.66 4.33-4.91 8.95-9.33 15.1-11.91 3.28-1.38 3.46-4.66 3.56-7.38.24-6.57-.1-13.15-.17-19.73-.02-1.89-.15-3.82.14-5.67.87-5.56 5.34-8.38 10.85-6.97.52.13 1.28.29 1.46.66 2.17 4.49 6.19 8.16 5.12 14.04-1.02 5.59-1.38 11.32-1.73 17.01-.08 1.24.77 2.96 1.76 3.76 3.02 2.47 6.43 4.47 9.48 6.91 4.25 3.41 8.49 6.87 12.39 10.67 2.36 2.3 4.47 2.69 7.09.98 1.49-.98 3-1.96 4.34-3.12 12.11-10.45 24.04-21.12 36.34-31.35 6.07-5.04 8.57-11.33 8.43-18.8-.14-7.09.8-13.77 4.6-19.93 1-1.63 1.86-2.09 3.73-1.52 5.24 1.61 7.64 5.39 6.92 11.39-.41 3.44-.74 6.89-1.31 10.31-1.58 9.46 2.66 15.67 10.86 19.64 3.61 1.75 7.3 3.35 11.04 4.82 7.32 2.88 11.1 8.27 11.97 16.86-3.05-.66-5.9-.92-8.45-1.92-3.62-1.43-6.92-3.7-10.56-5.06-3.48-1.3-7.19-2.24-10.88-2.67-2.44-.28-4.53 1.09-4.55 4.17-.05 6.02-.21 12.04-.23 18.07-.01 3.68.45 7.39.15 11.05-.39 4.67-2.59 6.47-7.4 6.39z"/><path d="m169.44 294.12c-2.88 2.83-3.85 5.82-2.52 9.58.73 2.08 1.25 4.36 1.26 6.55.15 18.57.32 37.16-3.26 55.5-.59 3.01-1.79 5.89-3.1 8.82-3.22-5.6-4.41-11.61-4.94-17.82-.8-9.41 1.61-18.44 3.07-27.58 1.65-10.31-.46-21.7-5.47-29.38-4.27 6.39-8.24 12.84-12.72 18.92-5.33 7.22-9.37 14.94-10.75 23.84-.55 3.53-2.26 5.55-5.6 6.57-1.87.57-3.62 1.53-5.71 2.43-1.29-7.73.29-14.66 3.35-21.17 6.87-14.6 15.07-28.44 24.76-41.37.72-.97 1.4-1.97 2.05-2.9-4.36-3.33-8.55-6.48-12.69-9.71-4.79-3.74-7.29-8.59-7.26-14.77.02-4.92-.33-9.84-.3-14.76.04-6.77.12-6.77 6.78-9.23 3.31 6.71 4.32 13.95 5.07 21.28.72 7 5.25 11.86 12.33 12.99-.46-15.04.95-29.72 8.22-43.26 4.24.88 6.8 3.84 6.78 9.11-.01 3.65-.99 7.28-1.39 10.93-.46 4.2-1.07 8.42-1.04 12.63.02 3.6 1.85 6.59 5.28 8.69 4.27-4.83 7.04-10.33 8.79-16.39 1.59-5.48 2.94-11.08 7.18-15.28 1.58-1.56 3.33-2.94 5.93-5.22 1.15 4.17 2.65 7.57 2.89 11.05.3 4.31-.36 8.7-.84 13.03-.12 1.08-1 2.19-1.79 3.05-3.48 3.79-7.23 7.34-10.56 11.26-4.72 5.56-4.59 9.35.07 14.78 7.08 8.25 11.18 17.39 11.05 28.67-.13 10.92 1.16 21.86 1.83 32.85-4.72 2.05-5.02 1.95-6.82-2.72-2.74-7.08-4.08-14.43-3.6-22.01.87-13.27-6.67-21.62-16.33-28.96z"/><path d="m120.95 177.06c12.4-1.22 24.61-2.51 36.84-3.6 8.11-.72 16.24-1.36 24.38-1.61 3.28-.1 6.64.79 9.89 1.54 3.39.78 5.9 2.92 7.86 6.22-7.5 3.36-14.73 6.83-22.15 9.84-3.58 1.46-5.88 3.49-7.06 7.23-1.16 3.7-2.89 7.21-4.45 11.02 5.39 2.26 10.79 2.34 16.23 1.66 2.66-.33 5.27-.99 7.92-1.4 6.04-.95 9.76 2.47 10.55 10.2-4.76 1.07-9.57 2.34-14.45 3.21-19.37 3.47-38.79 6.6-58.56 6.47-.45 0-.89 0-1.34 0-8.47-.11-9.26-.86-10.08-9.84 7.01-3.02 14.37-4.61 22.02-4.92 2.35-.1 4.7 0 7.05-.02 4.84-.05 8.03-2.34 8.52-7.19.42-4.16-.09-8.43-.45-12.63-.07-.8-1.2-2.03-2.01-2.18-5.67-1.02-11.37-1.88-17.08-2.63-1.75-.23-3.58.18-5.35.04-7.01-.57-9.57-4.01-8.28-11.41z"/></g></svg>