<svg enable-background="new 0 0 400 400" viewBox="0 0 400 400" xmlns="http://www.w3.org/2000/svg"><path d="m374.8 390.4.4-.4c.7.5 1.3 1 1.8 1.4l-.5.5c-.5-.6-1.1-1.1-1.7-1.5zm1 7.3-.6-.3c.5-1.4 1.1-2.8 1.5-4.3.2.1.4.2.6.3-.5 1.3-1 2.8-1.5 4.3zm-.4-10.3.4-.4c.4.3 1 .8 1.7 1.4l-.5.5c-.4-.5-1-1-1.6-1.5zm2.5.3h1.7v-1h.6v1h3.5v-1h.6v1h1.8v.5h-1.8v1.4h-2v1h3.2v2h-3.2v.9h3.3v.5h-3.4c0 .3-.1.6-.1.9h4v.5h-3.7c.7.9 1.9 1.5 3.8 1.7-.1.2-.2.4-.3.6-2.1-.4-3.5-1.1-4-2.1-.4 1-1.8 1.7-4 2.2-.1-.2-.2-.4-.3-.6 2.1-.4 3.4-1 3.8-1.8h-3.4v-.5h3.6c.1-.3.1-.6.2-.9h-3.3v-.5h3.4c0-.3 0-.6 0-.9h-3.2v-2h3.3v-1h-2.1v-1.4h-1.7v-.5zm1.1 3.5v1h2.7c0-.3 0-.4 0-.4 0-.1 0-.2 0-.2 0-.1 0-.2 0-.3h-2.7zm1.2-3v.9h3.5v-.9zm4.7 3h-2.6v.6.4h2.6z" fill="#fbfcfa"/><path d="m393.6 386.7h.6v1.5h2.7v6.1h1.1v.6h-11v-.6h1.1v-6.1h2.7v-1.5h.6v1.5h2.1v-1.5zm-2.7 8.8.4.6c-1.2.6-2.5 1.3-3.8 1.9-.1-.2-.2-.4-.3-.6 1.2-.6 2.5-1.2 3.7-1.9zm-2.2-6.7v2.4h2.1v-2.4zm0 3v2.5h2.1v-2.5zm2.8-3v2.4h2.1v-2.4zm0 3v2.5h2.1v-2.5zm6 6.1c-1.4-.7-2.7-1.3-3.9-1.8l.3-.6c1.5.6 2.7 1.2 3.9 1.7zm-1.2-9.1h-2.1v2.4h2.1zm-2.1 3v2.5h2.1v-2.5z" fill="#fbfcfa"/><g fill="#010106"><path d="m238.52 291.2c-2.26-2.09-4.5-3.94-6.48-6.03-6.32-6.65-12.58-13.35-18.81-20.09-5.93-6.42-13-10.82-21.59-12.78-3.1-.71-5.27-.45-7.33 2.55-5.46 7.94-12.38 14.29-21.2 18.59-3.76 1.83-6.9 4.92-10.43 7.25-3.25 2.14-3.73 5.17-2.89 8.49 1.47 5.84 3.35 11.58 4.79 17.43 1.51 6.16 3.37 12.34 3.88 18.61 1.06 12.88-5.54 21.84-16.21 28.27-11.48 6.92-24.03 8.42-36.91 6.49-22.03-3.3-43.22-9.43-62.65-20.71-1.81-1.05-3.53-2.26-5.17-4.01h35.88c.26-5.39.53-10.38.73-15.37.54-13.87.92-27.74 1.67-41.59.2-3.64-.67-5.68-4.38-6.18-.86-.12-1.7-.47-2.76-.78-.85 2.28-1.65 4.45-2.6 7-10.19-10.67-20.19-21.14-29.76-31.15 2.8.43 6.87 1.02 10.93 1.69 9.7 1.6 19.4 3.29 29.12 4.78 1.04.16 2.56-.51 3.34-1.3 2.93-2.99 4.16-6.79 4.58-10.91.69-6.73 3.81-9.28 10.96-9.06.61 4.86 1.05 9.75 1.88 14.57 1.6 9.31 6.08 16.86 14.69 21.26 9.11 4.65 18.41 8.93 27.73 13.41 14.05-19.98 28.31-38.66 38.72-59.85 3.34-6.81 4.07-14.23 4.11-21.59.1-18.79-.24-37.58-.36-56.38-.09-14.44-.11-28.88-.16-43.31 0-1.32 0-2.64 0-4.15-16.67 1.88-32.45 5.9-47.53 12.26-9.76 4.12-19.24 8.95-28.67 13.8-14.4 7.4-29.45 11.99-45.76 10.61-6.73-.57-13.36-2.3-20.03-3.51-.02-.4-.05-.79-.07-1.19.79-.41 1.56-.89 2.38-1.23 44.7-18.81 89.39-37.63 134.13-56.32 2.52-1.05 3.55-2.51 4.1-4.99 2.66-11.89 5.44-23.75 8.2-35.61.18-.76.47-1.49.81-2.56 7.86 6.81 13.33 14.35 11.39 25.32-1.28 7.26-.92 14.34 3.38 20.64 1.21 1.77 2.92 3.41 4.76 4.52 17.9 10.86 37.47 17.26 57.87 21.44 19.87 4.08 36.64 13.34 49.13 29.65.27.35.49.73 1.05 1.55-4.26 0-8.21.39-12.05-.07-13.92-1.67-26.76-6.89-39.47-12.5-14.61-6.44-29.24-12.84-44.02-18.86-4.47-1.82-9.48-2.33-14.76-3.56-.1 1.84-.22 3.01-.22 4.18-.01 42.98.01 85.96-.06 128.95 0 2.33.71 3.93 2.34 5.55 17.39 17.28 34.72 34.61 52.01 51.99 1.54 1.55 2.98 2.28 5.26 1.98 6.65-.9 13.34-1.48 20-2.28.94-.11 2.08-.47 2.67-1.13 3.55-3.87 7.01-7.82 10.38-11.84.66-.79 1.29-2.14 1.09-3.05-1.35-6.16 2.52-10.58 4.73-15.94 2.81 3.16 5.14 6.18 7.89 8.76 3.25 3.04 6.69 5.95 10.36 8.45 4.52 3.08 9.45 3.29 14.73 1.47 7.03-2.41 11.9.61 13.68 8.06-6 2.02-12.08 3.87-18 6.12-3.63 1.38-7.11 3.22-10.5 5.14-2.35 1.32-2.76 3.01-.63 5.37 4.23 4.69 5.14 10.85 6.28 16.74 1.26 6.58 2.13 13.25 2.83 19.92.28 2.62 1.23 4.32 3.42 5.67 3.78 2.32 7.46 4.19 12.27 3.12 1.62-.36 4.26.91 5.49 2.28 2.57 2.85 4.52 6.27 7.37 10.37-15.88 4.62-30.8 9.26-45.88 13.27-13.73 3.65-27.63 6.53-41.98 6.41-14.35-.11-28.22-2.72-41.75-7.37-1.02-.35-2.04-.96-2.8-1.72-2.39-2.36-4.66-4.84-6.96-7.27-8.11-8.58-9.49-18.52-6.34-29.59 1.21-4.26 2.92-8.09 5.53-11.68 6.27-8.68 12.34-17.52 18.63-26.47zm-145.42 46.1c.85 0 1.19.06 1.51-.01 13.64-2.98 27.28-5.92 40.88-9.06 1.03-.24 2.24-1.73 2.52-2.85 1.72-6.83.2-13.13-4-18.66-5.37-7.06-12.44-12.17-20.22-16.24-3.4-1.78-7.05-3.08-10.9-4.73-3.33 17.52-6.53 34.38-9.79 51.55zm207.47-43.89c-8.8 3.49-16.86 6.68-24.83 9.84 0 .64-.08 1 .01 1.29 4.68 14.67 9.36 29.34 14.12 43.99.21.66 1.11 1.55 1.71 1.56 6.79.11 13.57.07 20.94.07-1.48-19.63-2.55-38.85-11.95-56.75zm-44.98 19.86c-7.15 5.57-14.19 11.04-21.2 16.56-.47.37-.74 1.09-.91 1.7-2.29 8.15-1.35 15.57 5.39 21.38 1.3 1.12 3.23 2.06 4.89 2.1 8.61.21 17.23.11 25.84.08 1.06 0 2.12-.17 3.19-.26.41-16.57-5.02-30.3-17.2-41.56z"/><path d="m65.97 71.67c5.56-5.06 10.36-9.67 15.42-13.97 16.06-13.68 33.97-24.3 53.72-31.73 1.31-.49 3.29-.34 4.54.31 4.94 2.58 9.72 5.47 15.14 8.58-5.35 3.28-10.18 6.5-15.23 9.3-17 9.43-33.96 18.99-52.6 24.96-6.46 2.05-13.07 3.5-20.99 2.55z"/><path d="m321.98 221.79c-7.52 1.67-14.29.57-20.58-2.64-6.46-3.3-12.36-7.79-19-10.63-12.52-5.35-21.46-15.13-31.28-23.83-4.57-4.05-8.88-14.22-9.62-21.27.57.2 1.06.3 1.45.54 16.87 10.33 33.91 20.42 50.54 31.12 10.86 7.01 20.03 16.07 28.49 26.71z"/><path d="m331.88 81.56c-11.68-4.18-22.72-8.03-33.65-12.15-2.11-.8-3.83-2.66-5.67-4.11-13.08-10.33-26.15-20.68-39.22-31.03-.51-.4-.96-.87-1.44-1.3.06-.31.13-.62.19-.93 5.54.75 11.16 1.15 16.62 2.32 16.8 3.6 32.59 9.65 45.98 20.77 8.2 6.78 13.85 15.37 17.19 26.43z"/><path d="m59.18 194.81c-.98-3.16-.19-4.98 2.81-6.47 20.53-10.16 40.96-20.51 61.43-30.79 1.17-.59 2.38-1.1 4.13-1.9 0 5.66.07 10.86-.09 16.05-.02.66-1.1 1.55-1.88 1.89-12.54 5.32-25.05 10.71-37.69 15.78-9.19 3.69-18.88 5.1-28.71 5.44z"/></g></svg>