<svg enable-background="new 0 0 400 400" viewBox="0 0 400 400" xmlns="http://www.w3.org/2000/svg"><path d="m116.21 361.51c-1.28-3.84.24-5.35 3.43-6.5 8.92-3.22 18.11-4.01 27.43-3.5 13.06.71 24.43-3.52 34.57-11.37 6.6-5.11 7.68-12.33 6.65-20-.82-6.09-2.58-12.09-2.94-18.19-.38-6.42.2-12.93.72-19.37.62-7.58 1.68-15.11-1.06-22.53-.44-1.21-.33-2.65-.33-3.98-.02-11.64.27-23.29-.1-34.92-.32-10.12-1.38-20.23-2.14-30.65-6.43-.31-11.96-.67-17.51-.82-12.3-.32-24.61-.32-36.9-.86-5.21-.23-10.42-1.29-15.56-2.33-7.66-1.54-15.27-3.37-22.89-5.13-6.11-1.41-8.11-3.88-7.7-9.8 5.88-1.11 11.95-1.95 17.86-3.43 9.43-2.36 18.8-1.94 28.26-.51 8.27 1.25 11.73-3.46 8.91-11.5-.88-2.51-1.32-5.46-.98-8.08 2.08-15.79 2.25-31.48-2.04-46.94-1.88-6.76-4.94-13.06-11.27-16.89-8.79-5.31-13.8-12.77-14.53-23.18-.26-3.75-1.71-7.41-2.26-11.16-.48-3.3-2.22-5.39-5.23-6.22-4.5-1.24-9.11-2.07-13.64-3.24-1.91-.49-3.89-1.12-5.53-2.17-2.5-1.6-4.49-6.8-2.7-8.92 1.82-2.17 5.29-4.14 8.03-4.13 9.94.02 19.91.53 29.8 1.54 18.91 1.95 37.72 4.87 56.66 6.43 14.36 1.18 28.84.81 43.26 1.24 19.24.57 37.9 4.66 56.38 9.7.96.26 1.88.72 2.79 1.13.5.22.95.54 1.37.79-1.04 6.59-3.86 9.86-10.71 11.2-7.98 1.57-16.07 2.58-24.69 3.93 1.02 6.67 2.02 13.59 3.2 20.47.16.95 1.12 1.88 1.92 2.59 3.49 3.15 7.14 6.13 10.53 9.37 1 .95 1.8 2.54 1.93 3.91 1.14 12.46 2.63 24.92 2.95 37.41.27 10.7-.85 21.44-1.38 32.17-.08 1.56-.31 3.12-.42 4.68-.37 5.17 1.68 7.84 6.89 8.35 2.74.27 5.58.01 8.33-.33 5.52-.68 10.14 3.56 9.31 9.01-.15.97-1.64 2.25-2.7 2.47-6.42 1.34-12.92 3.53-19.34 3.35-14.17-.38-28.29-2.08-42.45-3.07-5.56-.39-11.17-.52-16.74-.34-1.06.04-2.82 2.06-2.93 3.29-.47 5.2-.68 10.45-.53 15.66.2 6.81 1.16 13.61 1.21 20.42.16 23.95-.11 47.91.15 71.86.09 8.7 1.11 17.4 1.91 26.08.11 1.22 1.21 2.58 2.21 3.47 10.71 9.48 23.52 14.8 37.05 18.82 18.08 5.37 36.67 7.97 55.24 10.75 6.4.96 12.3 3.14 16.98 8.3-6.99 4.82-14.64 5.86-22.72 5.66-14.52-.36-29.05-.45-43.57-.69-1.1-.02-2.27-.06-3.3-.41-15.18-5.19-30.98-5.21-46.73-5.59-16.77-.4-33.55-.63-50.31-1.3-10.98-.46-21.71-2.73-32.1-6zm60.57-307.85c.12 1.97.25 3.86.36 5.76.54 9.25 3.72 17.13 11.41 22.89 2.66 2 4.88 4.59 7.29 6.93 5.03 4.9 7.69 10.81 7.96 17.89.37 9.72 1.12 19.43 1.4 29.15.29 9.99 2.12 19.97-.88 29.98-1.29 4.32 1.25 7.26 5.65 8.65 1.06.34 2.13.71 3.21.94 8.77 1.87 17.53 3.71 26.47.93 2.98-.93 5.27-2.24 4.73-6.02-.21-1.52.25-3.11.28-4.68.11-6.68 1.07-13.5.03-20-1.29-8.07-2.72-16.04-2.6-24.24.06-3.91-.38-7.82-.36-11.73.02-4.09-1.61-7.08-5.13-9.12-3.29-1.91-5.34-4.77-7.11-8.16-3.5-6.7-4.74-13.83-5.57-21.22-.52-4.61-1.84-9.15-3.07-13.64-.73-2.69-2.64-4.06-5.67-4.26-3.78-.25-7.54-.94-11.27-1.68-9.1-1.78-18.11-2.47-27.13 1.63zm13.67 85.46c-.79-10.54-1.37-18.23-1.95-25.92-.48-6.4-2.24-12.02-7.52-16.44-4.52-3.78-8-8.82-12.54-12.57-5.33-4.41-7.15-9.95-7.45-16.41-.05-1.01.02-2.05-.24-3-1.11-4.05-2.06-8.19-3.62-12.07-.6-1.48-2.55-3.12-4.1-3.39-8.03-1.38-16.14-2.37-24.23-3.43-3.85-.5-5.69.99-5.99 4.87-.65 8.38 2 15.6 7.78 21.71 3.76 3.97 7.55 7.94 11.14 12.07 7.37 8.46 10.8 18.35 10.46 29.58-.13 4.36-.19 8.74.09 13.08.25 3.98-.01 8.48 1.78 11.75 2.08 3.81 2.38 7.21 1.74 11.12-.86 5.29-1.94 10.57-.11 15.91.74 2.16 1.93 3.54 4.26 4.16 7.85 2.09 15.74 3.15 23.88 2.08 2.5-.33 3.83-1.23 4.05-3.84.89-10.69 1.87-21.35 2.57-29.26z" fill="#010102"/><g fill="#fafbfa"><path d="m6.4 11.7c-1-.8-1.9-1.6-2.9-2.3l.6-.7c.9.7 1.9 1.4 2.9 2.2zm-2.1 8.3c.7-2.1 1.4-4.2 2-6.4.2.1.6.3 1 .4-.7 2.3-1.3 4.4-1.9 6.4zm3-12.8c-1.1-.9-2.1-1.7-2.9-2.4l.6-.7c1 .8 2 1.5 3 2.4zm1.4-1.3v-.9h10.2v.9c-.9 4.2-2.3 7.3-4.1 9.4 1.3 1.4 3.2 2.7 5.7 4-.2.2-.4.5-.7.9-2.5-1.4-4.4-2.7-5.7-4.2-1.4 1.5-3.5 3-6.1 4.4 0 0 0 0-.1-.1-.3-.4-.5-.7-.7-.8 2.7-1.3 4.7-2.8 6.2-4.2-1.8-2.2-3-5.3-3.7-9.4zm9.2 0h-7.1c.6 3.8 1.7 6.7 3.4 8.7 1.7-2 2.9-4.8 3.7-8.7z"/><path d="m31.6 3.6h.9v2.3h4.1v9.1h1.7v.9h-16.6v-.9h1.7v-9.1h4.1v-2.3h.9v2.3h3.1v-2.3zm-4 13.3.6.8c-1.9.9-3.8 1.9-5.8 2.8-.2-.3-.3-.6-.5-.9 2-.9 3.9-1.8 5.7-2.7zm-3.2-10.1v3.7h3.1v-3.7zm0 4.5v3.7h3.1v-3.7zm4.1-4.5v3.7h3.1v-3.7zm0 4.5v3.7h3.1v-3.7zm9.1 9.1c-2.1-1.1-4.1-2-5.8-2.7l.5-.8c2.2.9 4.1 1.8 5.8 2.6zm-1.9-13.6h-3.1v3.7h3.1zm-3.2 4.5v3.7h3.1v-3.7z"/></g></svg>