<svg enable-background="new 0 0 400 400" viewBox="0 0 400 400" xmlns="http://www.w3.org/2000/svg"><path d="m112.48 173.02c8.11-1.38 8.19-1.42 11.82 5.33 7.14 13.29 14.01 26.73 21.33 39.92 6.18 11.14 14.22 20.61 26.24 25.97.51.23 1.03.43 1.56.62.2.07.44.05.85.1 2.49-12.81 4.99-25.63 7.47-38.46.96-4.94 1.98-9.87 2.75-14.83.22-1.4 0-3.11-.62-4.37-3.14-6.3-6.3-12.6-9.84-18.68-1.79-3.07-1.95-6.09-1.42-9.33.88-5.38 3-10.23 6.16-14.7 3.03-4.29 5.84-8.74 8.57-13.23.69-1.14 1.1-2.73.97-4.05-1.43-15.14-2.29-30.4-4.85-45.35-1.04-6.09-4.78-12.56-9.15-17.04-7.22-7.39-16.09-13.14-23.99-19.91-3.79-3.24-7.18-7.04-10.26-10.97-1.71-2.17-2.42-5.13-3.82-8.27 7.35.46 13.49 2.4 19.28 5.3 17.9 8.98 33.03 21.26 44.46 37.87 5.29 7.69 7.57 16.25 8 25.54.44 9.49 1.3 18.98 2.25 28.43.31 3.04 1.1 6.19 2.4 8.95 2.96 6.25 6.48 12.23 9.54 18.43 1.01 2.04 1.77 4.43 1.82 6.67.07 3.78-.57 7.56-.82 11.35-.44 6.66-3.49 11.91-8.7 15.88-7.33 5.59-10.71 13.16-11.57 22.09-1.16 12.1-2.3 24.19-3.52 37.02 6.22-1.29 11.43-2.31 16.6-3.53.83-.2 1.52-1.25 2.14-2.01 10.87-13.22 21.94-26.3 32.46-39.8 3.21-4.12 5.21-9.3 7.17-14.24 2.06-5.21 5.5-7.91 11.13-8.18 2.55 3.89 3.25 8.24 1.9 12.49-2.94 9.22-5.91 18.32-12.62 25.94-8.94 10.15-17.25 20.87-25.4 31.68-4.73 6.27-10.76 10.26-17.88 12.99-1.67.64-3.36 1.24-4.96 2.02-10.39 4.99-12.23 9.93-10.27 19.1 1.15 5.4 2.93 10.84 5.43 15.75 4.25 8.36 9.25 16.34 14.02 24.43.66 1.12 1.65 2.12 2.68 2.91 14.85 11.33 29.71 22.67 44.64 33.89 3.75 2.82 7.82 5.19 11.69 7.85 2.94 2.02 4.94 4.72 4.23 8.46-.2 1.08-1.67 2.76-2.5 2.73-3.13-.11-6.61-.1-9.29-1.45-5.45-2.76-10.32-6.66-15.71-9.58-7.74-4.2-15.63-8.14-23.63-11.82-12.33-5.67-22.45-13.76-29.31-25.59-5.49-9.47-10.89-19-16.2-28.58-5.17-9.32-7.39-19.6-9.25-29.96-.46-2.58-1.53-4.02-4.09-4.96-5.76-2.12-11.25-5.06-17.09-6.89-6.25-1.96-10.6-5.94-14.36-10.9-14.92-19.69-25.05-41.43-28.1-66.17-.2-1.66-.22-3.35-.31-5.02-.05-.55-.03-1.1-.03-1.84z" fill="#010102"/><g fill="#fafbfa"><path d="m6.4 11.7c-1-.8-1.9-1.6-2.9-2.3l.6-.7c.9.7 1.9 1.4 2.9 2.2zm-2.1 8.3c.7-2.1 1.4-4.2 2-6.4.2.1.6.3 1 .4-.7 2.3-1.3 4.4-1.9 6.4zm3-12.8c-1.1-.9-2.1-1.7-2.9-2.4l.6-.7c1 .8 2 1.5 3 2.4zm1.4-1.3v-.9h10.2v.9c-.9 4.2-2.3 7.3-4.1 9.4 1.3 1.4 3.2 2.7 5.7 4-.2.2-.4.5-.7.9-2.5-1.4-4.4-2.7-5.7-4.2-1.4 1.5-3.5 3-6.1 4.4 0 0 0 0-.1-.1-.3-.4-.5-.7-.7-.8 2.7-1.3 4.7-2.8 6.2-4.2-1.8-2.2-3-5.3-3.7-9.4zm9.2 0h-7.1c.6 3.8 1.7 6.7 3.4 8.7 1.7-2 2.9-4.8 3.7-8.7z"/><path d="m31.6 3.6h.9v2.3h4.1v9.1h1.7v.9h-16.6v-.9h1.7v-9.1h4.1v-2.3h.9v2.3h3.1v-2.3zm-4 13.3.6.8c-1.9.9-3.8 1.9-5.8 2.8-.2-.3-.3-.6-.5-.9 2-.9 3.9-1.8 5.7-2.7zm-3.2-10.1v3.7h3.1v-3.7zm0 4.5v3.7h3.1v-3.7zm4.1-4.5v3.7h3.1v-3.7zm0 4.5v3.7h3.1v-3.7zm9.1 9.1c-2.1-1.1-4.1-2-5.8-2.7l.5-.8c2.2.9 4.1 1.8 5.8 2.6zm-1.9-13.6h-3.1v3.7h3.1zm-3.2 4.5v3.7h3.1v-3.7z"/></g></svg>