<svg enable-background="new 0 0 400 400" viewBox="0 0 400 400" xmlns="http://www.w3.org/2000/svg"><path d="m30.1 328.68c-5.48-9.09-7.44-18.97-7.29-29.1.15-10.15 1.56-20.27 2.06-30.42.34-6.8.11-13.64.02-20.46-.37-28.43-.78-56.85-1.19-85.28-.07-4.92-.09-9.85-.36-14.77-.12-2.22.78-3.62 2.11-5.3 6.76-8.51 16.1-12.67 25.85-16.57 21.18-8.47 43.51-12.75 65.43-18.5 11.67-3.06 23.27-6.43 34.77-10.05 9.23-2.9 16.68-8.26 21.65-16.94 5.4-9.43 14.78-14.01 24.16-18.36.72-.33 2.26.49 3.11 1.17 10.81 8.7 21.52 17.53 32.36 26.19 1.86 1.48 4.1 2.73 6.37 3.42 28.67 8.65 57.34 17.32 86.12 25.59 5.49 1.58 11.47 1.85 17.23 1.97 7.45.15 12.84 3.38 16.72 9.42 7.06 11 10.89 23.27 11.12 36.14.4 21.91-.17 43.84-.59 65.76-.1 5.09-2.18 10.24-1.74 15.23 1.15 13.12 3.39 26.13 4.76 39.23.56 5.38.74 11.01-.22 16.28-1.43 7.81-9.26 12.18-16.94 10.29-.99-.25-1.98-1.36-2.56-2.31-4.82-7.99-7.46-16.85-8.59-25.94-2.21-17.86-3.97-35.78-5.4-53.72-.95-11.93-1.28-23.92-1.37-35.89-.05-7.58.91-15.16 1.29-22.75.08-1.5-.05-3.21-.7-4.51-2.97-5.99-5.77-12.12-9.36-17.73-4.66-7.31-11.43-11.54-20.37-12.57-25.98-3-50.43-11.65-74.74-20.76-10.77-4.04-21.62-7.89-32.51-11.63-1.75-.6-4-.7-5.76-.16-23.94 7.3-47.84 14.72-71.72 22.23-1.96.62-3.77 1.91-5.45 3.15-9.59 7.06-19.88 12.48-31.9 13.92-2.32.28-4.69.34-7.03.32-7.92-.06-14.25 3.31-19.52 8.96-6.61 7.09-10.7 15.65-14.14 24.56-.46 1.18-.34 2.64-.29 3.96.39 10.96 1.18 21.92 1.16 32.88-.02 9.25-.68 18.52-1.57 27.73-1.38 14.14-3.64 28.2-4.66 42.36-.54 7.52.79 15.16 1.16 22.75.12 2.45.05 4.93-.22 7.37-.66 6.56-4.46 10.87-11.26 12.84z" fill="#010102"/><path d="m183.05 178.24c8.14.12 20.48 8.55 22.79 15.82.77 2.42.77 5.32.32 7.85-1.08 6.16-2.47 12.28-4.03 18.34-1.95 7.62-.54 14.77 2.01 22 7.35 20.83 22.68 34.46 40.9 45.37 10.15 6.08 20.12 12.33 27.05 22.15 3.7 5.25 6.64 11.03 10.08 16.83-6.58 3.88-12.79 4.31-18.68 1.53-7.56-3.57-14.77-7.89-22-12.12-2.57-1.5-4.92-3.49-7.11-5.55-11.99-11.27-23.9-22.62-35.84-33.95-2.32-2.2-6.54-1.83-7.87.98-7.21 15.23-19.2 25.99-32.88 35.04-17.35 11.49-35.68 20.94-56.32 25.06-2.84.57-5.75.92-8.64 1.09-1.23.07-3.14-.22-3.62-1.01-1.01-1.69-1.64-3.51-.22-5.84 3.89-6.39 9.02-11.29 15.48-14.95 8.47-4.79 16.88-9.67 25.31-14.52 9.9-5.69 19.1-12.32 25.26-22.13 3.97-6.32 7-13.23 10.42-19.89 3.01-5.87 5.79-11.87 9.03-17.6 2.8-4.95 2.46-10.39 3.08-15.65 1.84-15.44 3.35-30.92 5.01-46.38.09-.74.29-1.5.47-2.47z" fill="#010102"/><g fill="#fafbfa"><path d="m6.4 11.7c-1-.8-1.9-1.6-2.9-2.3l.6-.7c.9.7 1.9 1.4 2.9 2.2zm-2.1 8.3c.7-2.1 1.4-4.2 2-6.4.2.1.6.3 1 .4-.7 2.3-1.3 4.4-1.9 6.4zm3-12.8c-1.1-.9-2.1-1.7-2.9-2.4l.6-.7c1 .8 2 1.5 3 2.4zm1.4-1.3v-.9h10.2v.9c-.9 4.2-2.3 7.3-4.1 9.4 1.3 1.4 3.2 2.7 5.7 4-.2.2-.4.5-.7.9-2.5-1.4-4.4-2.7-5.7-4.2-1.4 1.5-3.5 3-6.1 4.4 0 0 0 0-.1-.1-.3-.4-.5-.7-.7-.8 2.7-1.3 4.7-2.8 6.2-4.2-1.8-2.2-3-5.3-3.7-9.4zm9.2 0h-7.1c.6 3.8 1.7 6.7 3.4 8.7 1.7-2 2.9-4.8 3.7-8.7z"/><path d="m31.6 3.6h.9v2.3h4.1v9.1h1.7v.9h-16.6v-.9h1.7v-9.1h4.1v-2.3h.9v2.3h3.1v-2.3zm-4 13.3.6.8c-1.9.9-3.8 1.9-5.8 2.8-.2-.3-.3-.6-.5-.9 2-.9 3.9-1.8 5.7-2.7zm-3.2-10.1v3.7h3.1v-3.7zm0 4.5v3.7h3.1v-3.7zm4.1-4.5v3.7h3.1v-3.7zm0 4.5v3.7h3.1v-3.7zm9.1 9.1c-2.1-1.1-4.1-2-5.8-2.7l.5-.8c2.2.9 4.1 1.8 5.8 2.6zm-1.9-13.6h-3.1v3.7h3.1zm-3.2 4.5v3.7h3.1v-3.7z"/></g></svg>