<svg enable-background="new 0 0 400 400" viewBox="0 0 400 400" xmlns="http://www.w3.org/2000/svg"><path d="m341.41 374.61c-3.56-9.87-7.29-19.33-10.39-29-6.38-19.87-14.99-38.69-25.27-56.84-8.92-15.75-17.54-31.7-25.66-47.87-2.8-5.57-3.83-12.05-5.43-18.17-1.19-4.54-1.84-9.21-3.04-13.74-.64-2.43-1.45-5.07-2.99-6.95-9.72-11.9-13.18-26.53-17.6-40.63-8.92-28.45-19.62-56.13-34.38-82.08-3.6-6.32-8.71-11.81-13.31-17.53-1.07-1.33-2.81-2.2-4.37-3.05-5.56-3.01-7.32-2.48-10.52 2.93-13.81 23.4-27.64 46.79-41.42 70.21-.95 1.61-1.72 3.4-2.19 5.21-4.84 18.71-9.37 37.5-14.43 56.15-6.36 23.47-17.6 44.85-31.42 64.52-8.78 12.5-12.39 26.33-15.9 40.43-5.86 23.52-17.47 44.15-30.77 64.02-2.01 3.01-4.52 5.68-6.89 8.61-.42-.59-.64-.76-.64-.92.07-15.89-.29-31.8.34-47.67 1.01-25.22 6.98-49.5 15.27-73.28 6.39-18.36 12.61-36.78 18.69-55.24 1.7-5.18 2.54-10.64 3.94-15.93.44-1.66 1.13-3.46 2.24-4.71 9.53-10.64 16.13-22.92 21.51-36.09 4.38-10.73 9.64-21.12 14.81-31.51 1.56-3.14 3.89-6 6.26-8.63 21-23.26 42.13-46.4 63.11-69.69 1.78-1.97 3.22-2.17 5.43-1.2 7 3.08 12.8 7.81 18.04 13.2 17.68 18.21 33.3 38.01 45.95 60.08 11.28 19.69 23.59 38.85 33.78 59.08 20.8 41.27 36.35 84.56 45.79 129.9 5.51 26.47 8.11 53.26 8.51 80.3.05 3.63-.84 5.42-4.45 5.67-.74.04-1.5.23-2.6.42zm-164.43-310.89c-2.24 1.16-4.05 2.09-6.61 3.42h8.2c-.57-1.22-1.01-2.17-1.59-3.42z" fill="#010102"/><g fill="#fafbfa"><path d="m6.4 11.7c-1-.8-1.9-1.6-2.9-2.3l.6-.7c.9.7 1.9 1.4 2.9 2.2zm-2.1 8.3c.7-2.1 1.4-4.2 2-6.4.2.1.6.3 1 .4-.7 2.3-1.3 4.4-1.9 6.4zm3-12.8c-1.1-.9-2.1-1.7-2.9-2.4l.6-.7c1 .8 2 1.5 3 2.4zm1.4-1.3v-.9h10.2v.9c-.9 4.2-2.3 7.3-4.1 9.4 1.3 1.4 3.2 2.7 5.7 4-.2.2-.4.5-.7.9-2.5-1.4-4.4-2.7-5.7-4.2-1.4 1.5-3.5 3-6.1 4.4 0 0 0 0-.1-.1-.3-.4-.5-.7-.7-.8 2.7-1.3 4.7-2.8 6.2-4.2-1.8-2.2-3-5.3-3.7-9.4zm9.2 0h-7.1c.6 3.8 1.7 6.7 3.4 8.7 1.7-2 2.9-4.8 3.7-8.7z"/><path d="m31.6 3.6h.9v2.3h4.1v9.1h1.7v.9h-16.6v-.9h1.7v-9.1h4.1v-2.3h.9v2.3h3.1v-2.3zm-4 13.3.6.8c-1.9.9-3.8 1.9-5.8 2.8-.2-.3-.3-.6-.5-.9 2-.9 3.9-1.8 5.7-2.7zm-3.2-10.1v3.7h3.1v-3.7zm0 4.5v3.7h3.1v-3.7zm4.1-4.5v3.7h3.1v-3.7zm0 4.5v3.7h3.1v-3.7zm9.1 9.1c-2.1-1.1-4.1-2-5.8-2.7l.5-.8c2.2.9 4.1 1.8 5.8 2.6zm-1.9-13.6h-3.1v3.7h3.1zm-3.2 4.5v3.7h3.1v-3.7z"/></g></svg>