<svg enable-background="new 0 0 400 400" viewBox="0 0 400 400" xmlns="http://www.w3.org/2000/svg"><path d="m117.86 290.87c-1.13-3.67.11-5.79 3.01-7.8 14.66-10.17 30.38-18.44 46.33-26.31 6.18-3.05 11.69-6.99 16.05-12.43 5.47-6.83 7-14.63 5.68-23.05-.21-1.34-1.53-3.08-2.76-3.59-10.62-4.38-21.13-9.2-32.09-12.55-14.87-4.56-22.96-14.55-26.91-29.16 2.82-.77 4.85-.52 7.01 1.62 4.43 4.41 9.16 8.54 13.9 12.62 11.19 9.64 24.57 11.48 39.06 10.72.67-7.83 1.34-15.59 2.01-23.35.14-1.67.25-3.35.44-5.01.58-5.31-2-9.33-7.32-9.14-23.4.81-31.85-15.51-38.85-33.41-1.39-3.54-1.48-7.64-1.81-11.52-.09-1.06.97-3.05 1.75-3.19 2.1-.37 4.6-2.55 6.42.86 3.58 6.69 8.21 12.95 10.88 19.96 4.98 13.11 14.57 13.92 26.6 11.66.8-.15 1.75-1.94 1.84-3.03.65-7.8 1.42-15.61 1.53-23.42.18-12.86-.16-25.73-.18-38.6-.01-3.33-.94-6.03-3.54-8.26-2.38-2.03-4.61-4.25-6.74-6.55-5.96-6.43-13.45-6.32-21.16-4.95-1.09.19-2.11 1.49-2.9 2.49-5.76 7.37-12.04 14.2-20.39 18.66-2.86 1.52-6.14 2.25-9.62 2.86 2.64-6.73 2.52-14.09 8.25-19.45 6.15-5.74 9.7-13.03 9.22-21.85-.14-2.63-.89-4.64-3.03-6.34-3.13-2.49-6.03-5.27-9.03-7.92.08-.34.16-.67.25-1.01 3.25.32 6.68.06 9.7 1.07 5.9 1.96 11.88 4.07 17.28 7.11 11 6.2 21.65 13.03 32.4 19.67 1.09.68 2.06 1.71 2.79 2.78 1.93 2.84 4.4 3.71 7.52 2.31 2.32-1.04 4.78-1.97 6.81-3.46 14.69-10.81 29.31-21.7 43.85-32.71 2.22-1.68 4.25-1.88 6.48-.71 2.39 1.25 1.97 3.62 1.62 5.68-.27 1.61-.92 3.22-1.67 4.68-1.74 3.36-3.64 6.64-5.44 9.89 8.78 10.72 21.34 18.8 22.49 35.07-5.18-2.12-10.45-2.42-14.3-6.59-3.79-4.1-7.92-7.9-11.97-11.76-5.89-5.62-12.78-4.98-19.82-2.94-.78.23-1.47.98-2.05 1.63-6.23 6.89-12.48 13.76-18.58 20.77-.91 1.05-1.42 2.74-1.5 4.17-.91 16.42-1.68 32.85-2.54 49.28-.27 5.09 2.79 8 7.95 7.16 1.72-.28 3.43-.98 5.01-1.77 8.3-4.15 14.39-10.46 18.25-18.92.88-1.93 1.75-3.89 2.87-5.68 1.35-2.17 2.64-4.56 4.54-6.15 1.85-1.54 5.41-3.63 6.49-2.91 1.98 1.32 3.64 4.52 3.71 6.99.1 3.42-.65 7.3-2.35 10.24-4.75 8.22-10.13 16.07-15.37 24-.54.82-1.76 1.31-2.77 1.71-6.96 2.75-13.84 5.77-20.97 8.02-4.79 1.51-7.25 4.57-8.44 8.99-2.85 10.56-1.37 21 .79 31.79 8.19-1.31 16.01-2.5 23.8-3.87.98-.17 1.86-1.19 2.7-1.9 9.33-7.86 18.65-15.73 27.97-23.59 1-.84 2.03-1.65 3.09-2.52 2.75 5.31 1.78 10.54-3.28 14.9-14.29 12.33-28.19 25.17-45.74 33.12-7.94 3.6-9.93 8.15-9.25 16.75.24 2.99 1.36 4.99 4.01 6.73 17.97 11.8 37.42 20.47 57.55 27.74 4.98 1.8 6.37 4.77 4.68 10.21-12.49-2.74-25.01-5.49-37.53-8.24-6.55-1.44-13.14-2.73-19.63-4.41-3.13-.81-5.18.36-7.04 2.46-3.68 4.15-4.92 9.31-5.2 14.58-.8 15.04.69 29.95 3.54 44.71.3 1.53 1.34 3.05 2.39 4.28 12.41 14.56 24.89 29.06 37.1 44.1-2.69-1.04-5.32-2.32-8.08-3.08-10.25-2.8-18.28-8.53-24.97-16.84-4.74-5.89-10.64-10.85-16.09-16.16-1.33-1.3-2.92-2.35-4.24-3.4-6.18 5.59-11.99 11.16-18.15 16.33-8.41 7.05-16.99 14.01-27.45 17.81-5.41 1.96-11.2 2.89-16.81 4.28-2.07.51-3.2-.32-3.43-2.79 4.28-2.5 8.64-5.2 13.13-7.64 9.89-5.37 17.98-12.94 25.37-21.21 8.89-9.95 16.7-20.72 21.64-33.3 4.98-12.67 5.49-25.66 2.93-38.91-.44-2.28-1.96-3.05-3.74-3.09-6.44-.17-12.62.79-17.97 4.85-13.25 10.06-28.15 16.31-44.53 19.08-.66.11-1.34.11-2.01.12-.45.02-.89-.03-1.44-.07z" fill="#010100"/><g fill="#fcfbfa"><path d="m377.9 391.2c-.2.3-.4.5-.6.8-.7-.6-1.4-1-2.2-1.5.2-.3.4-.5.5-.8.6.4 1.4.8 2.3 1.5zm-1.8 6.1c-.2-.2-.5-.4-.9-.6.4-.6.8-1.2 1.2-1.9s.7-1.3.9-1.9c.3.3.5.5.8.7-.7 1.3-1.4 2.6-2 3.7zm2.2-9c-.3.3-.5.5-.6.8-.6-.6-1.3-1.1-2-1.5.3-.3.5-.5.6-.7.6.5 1.3.9 2 1.4zm.3.2v-.9h2 4.5c-.3 1.3-.6 2.5-1 3.6s-.9 2.1-1.4 3c.4.5 1 1 1.6 1.4s1.2.8 1.9 1.1c-.3.2-.5.4-.8.8-.4-.3-1-.7-1.6-1.2s-1.2-1.1-1.6-1.6c-.5.6-1.1 1.1-1.7 1.6s-1.4.9-2.1 1.4c-.1-.3-.3-.5-.7-.8.6-.2 1.2-.5 1.9-1s1.4-1.1 2-1.8c-.5-.8-.9-1.6-1.2-2.5s-.6-2-.8-3.2c-.4.1-.7.1-1 .1zm2.5 2.7c.3 1 .7 1.7 1 2.2.3-.5.6-1.1 1-2s.6-1.9.9-3h-3.2-.4c.1.9.3 1.8.7 2.8z"/><path d="m396.5 388.5v1.5 3.6h1.5v.9c-.4 0-1 0-1.7 0h-7.9c-.5 0-.9 0-1.2 0v-.9h1.3v-3.5c0-.7 0-1.2 0-1.6h2.4c0-.8 0-1.4 0-1.7h1c0 .3-.1.8-.1 1.7h1.5c0-.8 0-1.4 0-1.7h1c0 .3-.1.9-.1 1.7zm-8.2 9.2c-.2-.3-.5-.5-.8-.8.8-.3 1.4-.6 1.9-.9s1-.7 1.4-1.1c.3.3.6.5.9.8-1.6 1-2.8 1.6-3.4 2zm2.6-6.8v-1.6h-1.5v1.6zm0 2.7v-1.9h-1.5v1.9zm2.4-2.7v-1.6h-1.5v1.6zm0 2.7v-1.9h-1.5v1.9zm.2 2 .7-.8c.4.2.9.5 1.6.8s1.3.7 1.8 1c-.3.3-.5.5-.8.8-.4-.3-1.5-1-3.3-1.8zm2-4.7v-1.6h-1.4v1.6zm0 2.7v-1.9h-1.4v1.9z"/></g></svg>