<svg enable-background="new 0 0 400 400" viewBox="0 0 400 400" xmlns="http://www.w3.org/2000/svg"><path d="m270.33 335.83c-7.89 6-16.94 6.89-26.15 7.61-5.19.41-10.34 1.56-15.45 2.63-2.59.54-4.26 2.2-4.27 5.19-.01 5.7-.22 11.39-.25 17.09-.04 5.66-2.22 7.48-7.73 6.31-7.15-1.52-9.72-3.95-9.9-10.42-.34-12.01-1.92-12.1-11.35-21.74-2.1 6.56-7.42 5.61-12.44 5.58-11.28-.06-22.56-.02-34.57-.02 1.45-4.72 2.52-8.54 3.86-12.27.23-.63 1.54-1.09 2.42-1.24 13.22-2.25 26.46-4.43 39.68-6.66 2.06-.35 4.1-.89 6.3-1.37-.66-8.87-1.24-17.45-2.04-26-.08-.82-1.52-2.09-2.42-2.16-5.97-.5-12-1.34-17.93-.93-10.57.75-21.1 2.25-31.63 3.56-2.63.33-4.09-.77-4.01-3.14.14-3.77.69-7.55 1.32-11.28.13-.75 1.33-1.4 2.14-1.93 7.8-5.09 16.6-5.47 25.5-5.34 5.95.09 11.85-.12 17.39-2.71 2.04-.95 3.05-2.04 2.55-4.62-1.16-6.03-1.9-12.15-2.87-18.22-.13-.84-.38-1.88-.96-2.4-6.5-5.78-13.08-11.48-19.65-17.19-.25-.22-.58-.33-.88-.49-6.89-3.54-7.41-3.32-12.53 2.32-5.34 5.88-11.01 11.45-16.36 17.33-7.97 8.76-18.06 11.03-29.3 9.93-2.43-.24-4.84-.71-7.53-1.12 1.73-5.68 3.2-10.8 9.17-13.62 5.32-2.51 10.18-6.06 15.06-9.42 5.18-3.57 8.3-8.48 7.88-15-.09-1.34-.9-3.03-1.93-3.82-3.09-2.38-6.52-4.32-9.7-6.59-1.79-1.28-3.73-2.62-4.96-4.38-4.05-5.82-1.07-12.79 5.91-14.14.79-.15 1.73.28 2.56.57 16.17 5.54 32.34 11.08 48.49 16.68 1.34.46 2.63 1.21 3.77 2.06 6.29 4.73 13.33 7.67 21.06 9.04 2.81.5 4.78-.19 6.99-2.47 17.71-18.23 38.43-31.59 63.34-37.84 4.56-1.15 8.87 0 13.05 1.79 4.67 2 5.29 8.64.96 11.36-7.47 4.68-14.38 10.25-21.86 15.69 1.15 1.06 2.16 2.01 3.2 2.93 9.07 7.99 18.07 16.06 27.27 23.9 2.49 2.12 1.07 4.3.83 6.42-.1.85-1.43 2.14-2.27 2.19-1.24.08-2.54-.77-4.05-1.31-6.29 6.46-14.07 2.83-20.69-2.42-6.4-5.07-12.51-10.49-18.8-15.7-1.11-.92-2.42-1.61-3.68-2.33-7.33-4.24-8.59-4.08-14.66 1.72-3.64 3.48-7.41 6.83-10.91 10.44-1.17 1.2-2.37 3-2.41 4.55-.22 9.59-.11 19.19-.11 29.41 6.24 0 12.46.3 18.63-.08 7.13-.44 14.21-1.88 21.34-2.17 8.56-.35 12.52 4.58 11.04 13.06-.2 1.12-1.35 2.37-2.39 2.99-9.29 5.51-19.3 5.49-29.56 3.7-4.96-.86-9.82-.61-14.13 2.53-1.78 1.3-2.51 2.81-2.16 5.15 1.21 8.07 2.26 16.17 3.19 24.28.22 1.89 1.02 2.66 2.7 3.24 7.93 2.71 16.02 2.63 24.21 1.79 3.11-.32 6.27-.6 9.37-.39 6.34.4 10.99 3.43 13.31 9.89z" fill="#010100"/><path d="m257.61 37.18c-.16 1.33-.2 2.69-.51 3.98-2.97 12.47-7.28 24.51-14.23 35.26-2.81 4.35-7.72 7.38-11.81 10.85-1.58 1.34-2.14 2.72-2.32 4.8-.51 5.88-1.49 11.71-2.24 17.57-.14 1.09-.52 2.38-.12 3.28 3.67 8.26 2.8 17.14 3.57 25.77.72 8.02 1.04 16.08 1.5 24.12.25 4.45-1.79 8.07-4.73 8.57-4.6.78-8.54-1.56-10.12-5.91-4.11-11.33-4.56-23.19-5.2-35.04-.43-7.95-1.33-15.82-4.68-23.21-.94-2.07-1.96-3.02-4.55-2.59-9.82 1.61-19.81 2.37-29.5 4.51-6.64 1.47-13.33 3.78-18.43 8.94-4.71 4.77-9.55 9.41-14.32 14.12-.39.39-.67.89-1.03 1.33-5.01 6.05-4.49 12.24-1.8 19.34 3.07 8.09 4.94 16.66 6.91 25.13.71 3.06.89 6.86-2.52 8.76-3.35 1.86-6.62.36-9.81-1.29-9.83-5.06-13.17-14.54-16.12-24.04-3.21-10.36-3.16-20.96-.15-31.43.53-1.83 1.6-3.69 2.89-5.09 6.59-7.16 13.24-14.26 20.09-21.16 1.46-1.47 3.75-2.44 5.82-2.96 18.53-4.67 37.18-8.82 54.75-16.69 8.22-3.68 16.08-7.89 22.93-13.75 7.02-6 10.3-13.97 10.95-23 .54-7.53 2.49-14.28 8.57-19.32 4.76-3.95 10.84-3.19 14.14 2.18 1.24 2.01 1.67 4.51 2.48 6.79-.13.06-.27.12-.41.18z" fill="#010100"/><g fill="#fcfbfa"><path d="m377.9 391.2c-.2.3-.4.5-.6.8-.7-.6-1.4-1-2.2-1.5.2-.3.4-.5.5-.8.6.4 1.4.8 2.3 1.5zm-1.8 6.1c-.2-.2-.5-.4-.9-.6.4-.6.8-1.2 1.2-1.9s.7-1.3.9-1.9c.3.3.5.5.8.7-.7 1.3-1.4 2.6-2 3.7zm2.2-9c-.3.3-.5.5-.6.8-.6-.6-1.3-1.1-2-1.5.3-.3.5-.5.6-.7.6.5 1.3.9 2 1.4zm.3.2v-.9h2 4.5c-.3 1.3-.6 2.5-1 3.6s-.9 2.1-1.4 3c.4.5 1 1 1.6 1.4s1.2.8 1.9 1.1c-.3.2-.5.4-.8.8-.4-.3-1-.7-1.6-1.2s-1.2-1.1-1.6-1.6c-.5.6-1.1 1.1-1.7 1.6s-1.4.9-2.1 1.4c-.1-.3-.3-.5-.7-.8.6-.2 1.2-.5 1.9-1s1.4-1.1 2-1.8c-.5-.8-.9-1.6-1.2-2.5s-.6-2-.8-3.2c-.4.1-.7.1-1 .1zm2.5 2.7c.3 1 .7 1.7 1 2.2.3-.5.6-1.1 1-2s.6-1.9.9-3h-3.2-.4c.1.9.3 1.8.7 2.8z"/><path d="m396.5 388.5v1.5 3.6h1.5v.9c-.4 0-1 0-1.7 0h-7.9c-.5 0-.9 0-1.2 0v-.9h1.3v-3.5c0-.7 0-1.2 0-1.6h2.4c0-.8 0-1.4 0-1.7h1c0 .3-.1.8-.1 1.7h1.5c0-.8 0-1.4 0-1.7h1c0 .3-.1.9-.1 1.7zm-8.2 9.2c-.2-.3-.5-.5-.8-.8.8-.3 1.4-.6 1.9-.9s1-.7 1.4-1.1c.3.3.6.5.9.8-1.6 1-2.8 1.6-3.4 2zm2.6-6.8v-1.6h-1.5v1.6zm0 2.7v-1.9h-1.5v1.9zm2.4-2.7v-1.6h-1.5v1.6zm0 2.7v-1.9h-1.5v1.9zm.2 2 .7-.8c.4.2.9.5 1.6.8s1.3.7 1.8 1c-.3.3-.5.5-.8.8-.4-.3-1.5-1-3.3-1.8zm2-4.7v-1.6h-1.4v1.6zm0 2.7v-1.9h-1.4v1.9z"/></g></svg>