<svg enable-background="new 0 0 400 400" viewBox="0 0 400 400" xmlns="http://www.w3.org/2000/svg"><path d="m179.69 374.81c-.19-1.41-.75-2.63-.41-3.49 1.43-3.66 1.71-7.95 5.44-10.43.55-.36.95-.95 1.47-1.37 6.58-5.28 11.46-11.75 14.61-19.64.89-2.23 2.78-4.37 4.75-5.81 4.71-3.43 8.1-7.74 11.26-12.59 2.95-4.53 7.1-8.3 10.81-12.32 4.14-4.48 8.02-9.24 9.49-15.22 1.4-5.7 1.97-11.6 3.05-18.3-5.26 2.5-10.2 2.96-13.59 7.48-3.49 4.66-8.19 8.32-14.09 9.76-1.39.34-4.24-.05-4.34-.54-.56-2.66-3.39-5.19-.47-8.25 9.13-9.54 17.87-19.47 27.25-28.76 5.31-5.25 6.04-11.13 4.99-17.81-.26-1.65-.54-3.34-1.12-4.9-4.17-11.33-5.48-23.24-7.13-35.07-.35-2.52-1.55-3.52-3.66-3.14-7.8 1.4-15.58 2.93-23.3 4.67-.91.2-1.74 1.94-2.11 3.12-3 9.68-4.93 19.46-3.12 29.71.4 2.26-.37 4.75-.76 7.11-.9 5.6-2.07 11.15-2.78 16.77-.49 3.92-1.37 7.54-3.2 11.13-3.53 6.95-6.25 14.31-9.81 21.24-2.79 5.44-6.11 10.63-9.56 15.69-4.22 6.19-8.75 12.17-13.28 18.14-3.62 4.77-8.4 7.16-15.13 6.49.76-2.17 1.21-4.11 2.08-5.84 5.07-10 10.92-19.52 18.05-28.19 4.45-5.42 7.85-11.35 9.99-18.05.66-2.08 2.15-3.87 3.06-5.89.7-1.55 1.54-3.26 1.52-4.88-.04-3.77.17-7.37 2.59-10.47 2.04-2.61 1.8-5.48 1.48-8.55-.28-2.69.02-5.49.44-8.18.38-2.41 1.07-4.83 2-7.08 2.49-6.03 2.12-12.15 1.37-18.43-.4-3.33-2.16-5.05-4.96-5.25-3.74-.27-7.57-.04-11.29.5-16.78 2.41-31.71-6.36-37.21-22.31-1.56-4.53-2.9-9.21-3.63-13.93-2.41-15.8-5.15-31.59-6.45-47.49-.67-8.18.99-16.67 2.42-24.88 1.01-5.83 2.58-11.52 2.18-17.53-.25-3.71.9-6.78 3.8-9.51 5.61-5.29 11.04-10.81 16.19-16.56 11.78-13.16 26.46-21.04 43.54-24.81 8.51-1.88 16.99-3.9 25.51-5.75 1.23-.27 2.71-.25 3.88.17 10.48 3.84 21.04 7.51 31.34 11.8 11.46 4.76 16.87 14.12 18.06 26.16.08.83.06 1.9-.38 2.53-3.52 4.95-7.34 9.58-14.43 7.91-1.34-.32-3.08-1.04-3.66-2.11-1.66-3.01-2.81-6.3-4.16-9.48-.82-1.95-1.36-4.08-2.5-5.82-2.43-3.7-5.3-3.46-7.54.3-9.26 15.53-13.88 32.68-16.7 50.28-.7 4.37 1.44 9.17 2.15 13.79.21 1.39-.01 2.85.02 4.27.04 1.52-.19 3.16.28 4.55 4.88 14.62 9.88 29.2 14.84 43.79.25.74.78 1.55.66 2.22-.87 4.69 1.93 7.93 4.16 11.48 1.05 1.67 1.83 3.62 2.3 5.55 4.68 19.32 10.36 38.43 12.1 58.38 1.08 12.41 1.69 24.79-.36 37.14-.17 1.03-1.03 1.93-1.56 2.9-.3.54-.95 1.26-.8 1.63 1.27 3.05-.65 5.12-2.09 7.36-3.32 5.18-6.74 10.3-9.95 15.54-6.3 10.3-13.56 19.7-23.81 26.44-3.51 2.31-6.4 5.09-7.48 9.45-.29 1.19-1.68 2.32-2.83 3.05-5.31 3.39-10.35 7.02-13.61 12.62-.42.73-1.15 1.46-1.91 1.78-4.48 1.93-9.02 3.72-13.96 5.73zm1.9-254.16c4.49-1.55 8.03-2.58 11.41-3.98 7.8-3.23 12.81-8.87 13.85-17.45.41-3.42.39-6.91.35-10.36-.1-8.15 1.24-16.01 4.35-23.56 2.45-5.95 4.86-11.92 7.4-17.83.87-2.02.39-3.46-1.27-4.65-2.16-1.55-4.3-2.62-7.07-1.1-2.54 1.39-5.31 2.34-7.93 3.58-9.19 4.37-15.04 11.19-16.52 21.6-.45 3.21-1.32 7.01-3.4 9.18-3.07 3.2-3.74 6.61-3.73 10.53.02 6.48-.16 12.98.27 19.44.3 4.73 1.44 9.4 2.29 14.6zm-40.37 24.88c-.1.71-.23 1.05-.19 1.36 1.8 13.01 5.43 25.51 10.62 37.56.47 1.09 1.68 2.06 2.78 2.66 7.67 4.19 15.84 4.06 24.11 2.43 4.71-.93 4.76-1.01 4.11-5.66-.37-2.64-.74-5.33-1.56-7.86-3.1-9.63-7.75-18.74-9.03-28.99-.47-3.77-4.38-6.48-7.35-5.95-7.78 1.39-15.54 2.93-23.49 4.45zm26.13-86.53c-7.4 7-15.05 13.72-22.03 21.09-2.52 2.66-4.21 6.7-4.89 10.37-1.26 6.77-1.27 13.77-2.22 20.61-.86 6.22-1.3 12.31 2.1 17.91.65 1.07 2.44 2.24 3.55 2.11 5.31-.62 10.68-1.27 15.82-2.66 7.21-1.95 7.44-2.86 5.77-10.05-1-4.3-2.56-8.45-1.22-13.14.78-2.73.55-5.91.14-8.79-1.39-9.68-1.85-19.17 3.43-28.02.68-1.14 1.21-2.41 1.58-3.69.62-2.19.45-4.21-2.03-5.74zm26.71 123.38c9.4 1.89 17.87-.09 25.93-4.64 2.02-1.14 2.45-2.38 1.74-4.6-3.67-11.56-9.17-22.47-11.28-34.62-1.07-6.18-10.01-9.48-16.04-6.74-3.64 1.65-7.05 3.79-10.73 5.8 2.68 7.89 5.11 15.66 7.98 23.27 2.48 6.58 4.41 13.09 2.29 20.14-.09.3.04.65.11 1.39z" fill="#010106"/><g fill="#fcfbfa"><path d="m385.2 377.6.6-.7c.6.4 1.3.9 1.9 1.5l-.6.7c-.8-.5-1.4-1-1.9-1.5zm.3 7.1c.6-1.4 1.1-2.9 1.5-4.5.3.1.6.3.9.4-.5 1.4-1 2.9-1.5 4.4zm.2-10.1.6-.6c.7.5 1.3 1.1 1.9 1.6l-.7.7c-.6-.6-1.2-1.2-1.8-1.7zm8.4-.8h.8v.9h1.8v.7h-1.8v1.8h-.8v-.3h-1.2v.9h3.3v2.6h-.8v-.4h-2.5c0 .3 0 .6-.1.8h3.4v.7h-3.5c0 .3-.1.6-.1.8h4v.7h-3.5c.7.9 1.9 1.3 3.6 1.5-.2.2-.4.5-.6.9-1.9-.3-3.2-1.1-3.8-2.3-.5 1.1-1.8 2-3.9 2.4-.2-.3-.4-.5-.6-.8 1.9-.4 3.1-.9 3.6-1.7h-3.2v-.7h3.5c.1-.2.1-.5.2-.8h-3.3v-.7h3.4c0-.2 0-.5 0-.8h-2.4v.3h-.8v-2.6h3.3v-.9h-1.2v.3h-.8v-1.8h-1.8v-.7h1.8v-.9h.8v.9h3.2zm-4.4 5.5h2.4c0-.3 0-.6 0-.9h-2.4zm1.2-3.1h3.2v-.8h-3.2zm4.4 2.2h-2.4v.9h2.5v-.9z"/><path d="m389.2 385.8h.9v1.5h1.9v-1.5h.9v1.5h2.7v6h1.1v.9h-11.3v-.9h1.1v-6h2.7zm.2 8.7.5.8c-1.2.6-2.5 1.3-4 1.9-.2-.3-.3-.6-.6-.8 1.6-.6 3-1.3 4.1-1.9zm-2-4.3h1.9v-2.1h-1.9zm0 3.1h1.9v-2.2h-1.9zm2.7-3.1h1.9v-2.1h-1.9zm0 3.1h1.9v-2.2h-1.9zm2.4 1.3c1.4.6 2.7 1.2 4.1 1.8l-.5.9c-1.5-.7-2.8-1.4-4.1-1.9zm2.2-6.5h-1.9v2.1h1.9zm-1.9 5.2h1.9v-2.2h-1.9z"/></g></svg>