<svg enable-background="new 0 0 400 400" viewBox="0 0 400 400" xmlns="http://www.w3.org/2000/svg"><path d="m174.92 302.98c-.83-7.31-1.59-13.84-2.31-20.38-.99-9.01-2.12-18.01-2.86-27.03-.31-3.75-.01-7.59.39-11.35.55-5.15-1.34-8.16-6.37-9.19-12.59-2.57-25.16-5.26-37.8-7.53-3.67-.66-7.58-.15-11.37-.03-2.94.09-5.34-.56-6.47-3.59-.74-2.01-.56-3.54 1.14-5.34 8.96-9.44 20.84-13.12 32.65-16.93 10.72-3.46 21.52-6.67 32.34-10 0-3.78-.26-7.16.07-10.48.39-4.05 1.29-8.06 1.91-12.09.14-.91.45-2.26-.02-2.73-4.29-4.42-2.86-9.22-1.23-14.39 3.69.64 7.33 1.17 10.9 1.96.96.21 1.95 1.06 2.56 1.88 3.45 4.72 4.52 9.73 2.32 15.47-1.22 3.17-2.01 6.67-2.11 10.05-.14 4.58 2.27 6.29 6.77 5.08 4.08-1.1 8.02-2.72 12.01-4.14 12.53-4.46 25.06-8.91 37.55-13.46 1.4-.51 2.81-1.41 3.81-2.5 4.18-4.52 8.01-9.37 12.36-13.72 2.89-2.89 4.18-6.24 3.73-9.95-1.13-9.18-2.61-18.33-4.14-27.46-.57-3.41-1.73-6.71-2.46-10.09-1.77-8.16-4.69-15.77-9.54-22.68-3.27-4.66-6.32-9.53-8.98-14.56-5.3-10.01-14.25-13.36-24.67-14.01-9.48-.59-19-.6-28.48-1.25-6.91-.47-13.77-1.68-20.67-2.33-1.89-.18-3.95.17-5.77.78-10.97 3.67-19.42 10.59-25.91 20.13-2.5 3.69-5.86 6.8-8.32 10.51-3.41 5.16-4.4 11.15-4.7 17.27-.82 17.1-4.45 33.44-13.3 48.34-.9 1.51-1.8 3.02-3.29 4.36.44-7.61.89-15.22 1.31-22.83.64-11.51.73-23.08 2.03-34.51 1.13-9.95 3.58-19.75 5.53-29.6.18-.92.77-1.9 1.46-2.56 11.84-11.29 23.83-22.46 38.96-29.32 6.19-2.81 12.61-5.3 19.18-6.97 3.98-1.01 8.44-.36 12.67-.14 13.2.68 26.31 1.84 38.88 6.5 5.21 1.93 10.62 3.33 15.9 5.09.99.33 1.91 1.12 2.65 1.91 8.81 9.39 17.81 18.61 26.23 28.34 2.66 3.07 4 7.42 5.45 11.37 5.44 14.74 5.79 30.22 6.19 45.67.13 5.03-.08 10.07-.1 15.11 0 1.11-.12 2.32.25 3.33 3.1 8.54 2.79 17.42 2.44 26.22-.62 15.39 1.37 30.46 3.68 45.64 2.66 17.47 3.96 35.23 1.14 52.84-1.24 7.77-3.11 15.74-6.43 22.79-2.74 5.81-5.54 11.33-6.4 17.76-.56 4.2-1.47 8.37-2.55 12.47-.45 1.72-1.45 3.49-2.67 4.79-6.97 7.39-14.11 14.62-21.15 21.94-13.26 13.79-28.56 24.05-47.85 27.06-3.19.5-6.63-.06-9.89-.58-2.85-.45-5.66-1.37-8.37-2.38-3.73-1.38-7.35-3.06-11.04-4.57-2.79-1.14-5.51-2.74-8.42-3.21-9.88-1.6-17.59-6.47-24.1-13.97-12.76-14.69-22.75-30.73-25.99-50.26-.76-4.61-1.03-9.29-1.51-13.87 5.37-1.4 6.02-1.13 8.56 2.96 6.31 10.17 12.65 20.32 18.93 30.51 6.66 10.79 15.85 18.67 27.27 24.1 8.04 3.82 16.37 3.99 24.92 2.54 13.83-2.35 27.17-6.45 40.29-11.29 1.08-.4 2.23-1.15 2.87-2.07 6.28-8.99 12.67-17.91 18.6-27.12 5.07-7.87 7.22-16.8 7.49-26.12.03-1.05-.74-2.76-1.57-3.09-15.37-6.17-28.84-15.7-42.93-24.13-5.92-3.54-12.57-5.15-19.41-6.01-1.95-.24-2.87.37-3.32 2.24-2.78 11.69-4.55 23.49-4.05 35.55.02.56.08 1.12.22 1.66.48 1.89 1.84 4.09 1.28 5.56-.61 1.58-3 2.49-4.64 3.66-3.69 2.67-7.42 5.31-11.73 8.37zm87.54-49.21c1.2-19.99 2.46-39.98 3.55-59.97.14-2.51-.26-5.18-1-7.59-1.33-4.35-5.95-6.15-9.93-4.01-10.44 5.59-20.92 11.13-31.22 16.98-6.86 3.9-13.92 7.01-21.66 8.74-3.4.76-6.57 2.59-10.4 4.17 1.47 1.91 2.37 3.66 3.78 4.78 3.67 2.9 7.37 5.84 11.4 8.19 5.11 2.98 10.73 5.08 15.8 8.11 9.87 5.9 19.54 12.15 29.24 18.33 3.16 2 6.25 3.92 10.44 2.27z" fill="#010102"/><g fill="#fafbfa"><path d="m6.4 11.7c-1-.8-1.9-1.6-2.9-2.3l.6-.7c.9.7 1.9 1.4 2.9 2.2zm-2.1 8.3c.7-2.1 1.4-4.2 2-6.4.2.1.6.3 1 .4-.7 2.3-1.3 4.4-1.9 6.4zm3-12.8c-1.1-.9-2.1-1.7-2.9-2.4l.6-.7c1 .8 2 1.5 3 2.4zm1.4-1.3v-.9h10.2v.9c-.9 4.2-2.3 7.3-4.1 9.4 1.3 1.4 3.2 2.7 5.7 4-.2.2-.4.5-.7.9-2.5-1.4-4.4-2.7-5.7-4.2-1.4 1.5-3.5 3-6.1 4.4 0 0 0 0-.1-.1-.3-.4-.5-.7-.7-.8 2.7-1.3 4.7-2.8 6.2-4.2-1.8-2.2-3-5.3-3.7-9.4zm9.2 0h-7.1c.6 3.8 1.7 6.7 3.4 8.7 1.7-2 2.9-4.8 3.7-8.7z"/><path d="m31.6 3.6h.9v2.3h4.1v9.1h1.7v.9h-16.6v-.9h1.7v-9.1h4.1v-2.3h.9v2.3h3.1v-2.3zm-4 13.3.6.8c-1.9.9-3.8 1.9-5.8 2.8-.2-.3-.3-.6-.5-.9 2-.9 3.9-1.8 5.7-2.7zm-3.2-10.1v3.7h3.1v-3.7zm0 4.5v3.7h3.1v-3.7zm4.1-4.5v3.7h3.1v-3.7zm0 4.5v3.7h3.1v-3.7zm9.1 9.1c-2.1-1.1-4.1-2-5.8-2.7l.5-.8c2.2.9 4.1 1.8 5.8 2.6zm-1.9-13.6h-3.1v3.7h3.1zm-3.2 4.5v3.7h3.1v-3.7z"/></g></svg>