<svg enable-background="new 0 0 400 400" viewBox="0 0 400 400" xmlns="http://www.w3.org/2000/svg"><g fill="#010102"><path d="m109.67 273.02c1.3-4.44 2.45-8.92 3.94-13.3 1.51-4.43 3.37-8.75 5.04-13.12.28-.72.45-1.5.56-2.27.78-5.41-.23-6.73-5.76-6.45-3.42.18-6.85.9-10.19 1.74-6.84 1.71-9.86-1.23-8.09-8.34 5.99-.91 12.12-1.55 18.12-2.82 14.04-2.96 12.56-4.88 9.61-15.26-1.19-4.18-3.02-8.18-4.28-12.34-1.5-4.94.23-6.95 5.4-6.69 3.53.18 6.24.97 7.56 5.06 1.75 5.4 4.44 10.49 6.58 15.76.72 1.77 1.57 2.35 3.51 1.93 6.55-1.42 13.14-2.74 19.73-3.95 2.17-.4 3.28-1.48 3-3.59-.93-7.07-1.95-14.13-2.99-21.19-.56-3.76-1.35-7.48-1.83-11.24-.25-1.94-.92-3.5-2.97-3.14-5.07.89-10.14 1.88-15.09 3.27-4.69 1.32-9.12 3.71-13.85 4.69-6.32 1.31-12.83 1.77-19.27 2.46-.93.1-2.61-.4-2.77-.95-.37-1.27-.56-3.22.16-4.06 3.13-3.69 6.03-7.47 11.13-9.19 15.56-5.24 30.97-10.94 46.39-16.57 2.38-.87 4.72-2.09 6.78-3.57 4.38-3.14 4.24-8.8-.04-12.18-4.57-3.61-9.74-5.37-15.55-5.25-15.15.33-29.69-3.38-44.26-6.79-5.74-1.34-6.97-5.61-3.2-10.25.66-.81 2.32-1.24 3.47-1.15 11.25.86 22.54 1.56 33.74 2.93 13 1.58 25.74 4.57 38.02 9.24 1.87.71 3.85 1.35 5.49 2.44 4.04 2.69 5.97 3.91 4.73 9.81-.87 4.15-1.28 8.4-2.16 12.55-.33 1.55-1.14 3.16-2.17 4.37-4.21 4.94-8.64 9.69-12.84 14.63-.85 1-1.51 2.53-1.51 3.82 0 2.89-.11 5.97.83 8.62 5.03 14.14 6.05 29.06 9.07 43.59.97 4.69 3.75 8.99 5.53 13.53.67 1.71 1.17 3.6 1.22 5.42.11 3.68-.44 7.4-.2 11.07.66 9.98-4.31 17.46-10.93 23.84-3.78 3.65-8.45 6.67-13.2 8.96-11.02 5.31-19.19 13.36-23.57 24.57-2.14 5.48-2.55 11.76-3.02 17.74-.8 10.01-1.15 20.06-1.45 30.1-.24 8.13-2.92 11.56-10.92 13.13-4.16.81-6.43-.79-5.36-4.85 4.25-16.24.79-32.77 2.29-49.08.55-5.99 1.59-11.96 2.78-17.86.78-3.87 2.94-6.94 6.1-9.66 9.76-8.4 19.58-16.52 31.03-22.72 10.46-5.66 13.67-14.93 11.08-26.55-.91-4.1-1.14-8.38-1.33-12.59-.08-1.91-.68-3.31-2.39-3.37-3.38-.13-6.99-.49-10.11.5-5.84 1.84-11.42 4.51-17.04 6.98-1.05.46-2.05 1.43-2.66 2.42-4.08 6.64-8.47 13.15-11.96 20.1-4.07 8.1-10.81 12.43-18.62 15.71-.43-.22-.87-.43-1.31-.64z"/><path d="m283.85 302.44c-5.08-4.45-9.67-8.61-14.46-12.54-.74-.61-2.62-.62-3.52-.12-5.8 3.24-12.03 4.73-18.58 5.14-3.49.22-7.43.15-8.8 4.1-1.48 4.27-.15 8.41 2.66 11.91 11.82 14.74 27.93 18.21 45.69 17.29 2.34-.12 4.69-.38 7.03-.38 1.07 0 2.26.23 3.2.73 2.57 1.36 2.56 3.45.06 4.98-7.12 4.37-15.07 6.07-23.21 7.11-2.22.28-4.47.35-6.67.7-10.82 1.67-19.93-3.96-29.66-6.92-.4-.12-.83-.43-1.07-.78-5.66-8.27-12.37-15.89-15.19-25.87-2.3-8.14-.75-16.24-.23-24.34.77-12.05 2.34-24.06 2.7-36.12.38-12.92-1-25.69-7.63-37.32-2.47-4.34-3.11-9.05-1.52-13.93 1.53-4.7 4.43-6.05 8.77-3.91 10.44 5.16 21.33 4.61 32.49 3.26 7.73-.93 15.61-.83 23.42-.86 1.54-.01 4.47 1.75 4.38 2.31-.36 2.22-1.12 5.42-2.72 6.18-4.05 1.92-8.57 3.39-13.02 3.77-5.17.44-10.48-.23-15.68-.88-9.58-1.19-15.06 3.23-15.41 12.9-.06 1.68-.05 3.36.04 5.03.43 7.97 3.15 11.29 11.08 12.61 2.9.48 6 .07 8.97-.29.99-.12 2.12-1.14 2.7-2.06 1.06-1.69 1.48-3.83 2.71-5.35 1.04-1.3 2.76-2.58 4.32-2.78 1.17-.15 3.07 1.11 3.77 2.28 3.71 6.19 5.25 12.6 3.94 20.14-.87 5.03.41 10.64 1.65 15.77 2.38 9.85 5.48 19.53 8.12 29.33.54 2.01.45 4.23.4 6.34-.01 1.07-.59 2.12-.73 2.57zm-49.6-31.68c.34 6.1 2.76 8.91 8.58 8.09 4.43-.63 8.71-2.46 13-3.9.72-.24 1.57-1.09 1.73-1.81 1.13-4.92 1.82-9.88.22-14.85-2.43-7.51-8.48-9.72-15.48-10.72-2.33-.33-3.66.21-4.11 2.55-1.31 6.88-2.63 13.76-3.94 20.64z"/><path d="m162.48 25.24c1.21 1.43 2.8 2.56 3.33 4.06 4.17 11.75 8.94 23.39 9.27 36.12.28 10.83-.03 11.16-10.99 15.26-9.68-8.49-10.83-41.03-1.61-55.44z"/><path d="m207.54 47.6c6.44 2.41 9.78 7.29 11.07 13.48 2.13 10.22 5.06 20.05 9.84 29.42 1.23 2.41.23 6.32-.64 9.27-.41 1.39-2.6 1.98-4.76.49-11.05-7.59-14.73-18.9-16.37-31.33-.94-7.11-1.28-14.19.86-21.33z"/><path d="m123.01 43.66c6.12 2.96 8.38 7.05 6.64 12.95-1.44 4.89-3.52 9.61-5.54 14.3-2.07 4.81-4.23 9.61-6.74 14.2-.97 1.77-2.79 3.72-4.6 4.24-4.58 1.3-5.75-.04-5.3-4.72.12-1.29.16-2.8-.39-3.9-2.04-4.09-1.07-8.01.89-11.52 4.78-8.59 9.95-16.96 15.04-25.55z"/></g><path d="m6.4 11.7c-1-.8-1.9-1.6-2.9-2.3l.6-.7c.9.7 1.9 1.4 2.9 2.2zm-2.1 8.3c.7-2.1 1.4-4.2 2-6.4.2.1.6.3 1 .4-.7 2.3-1.3 4.4-1.9 6.4zm3-12.8c-1.1-.9-2.1-1.7-2.9-2.4l.6-.7c1 .8 2 1.5 3 2.4zm1.4-1.3v-.9h10.2v.9c-.9 4.2-2.3 7.3-4.1 9.4 1.3 1.4 3.2 2.7 5.7 4-.2.2-.4.5-.7.9-2.5-1.4-4.4-2.7-5.7-4.2-1.4 1.5-3.5 3-6.1 4.4 0 0 0 0-.1-.1-.3-.4-.5-.7-.7-.8 2.7-1.3 4.7-2.8 6.2-4.2-1.8-2.2-3-5.3-3.7-9.4zm9.2 0h-7.1c.6 3.8 1.7 6.7 3.4 8.7 1.7-2 2.9-4.8 3.7-8.7z" fill="#fafbfa"/><path d="m31.6 3.6h.9v2.3h4.1v9.1h1.7v.9h-16.6v-.9h1.7v-9.1h4.1v-2.3h.9v2.3h3.1v-2.3zm-4 13.3.6.8c-1.9.9-3.8 1.9-5.8 2.8-.2-.3-.3-.6-.5-.9 2-.9 3.9-1.8 5.7-2.7zm-3.2-10.1v3.7h3.1v-3.7zm0 4.5v3.7h3.1v-3.7zm4.1-4.5v3.7h3.1v-3.7zm0 4.5v3.7h3.1v-3.7zm9.1 9.1c-2.1-1.1-4.1-2-5.8-2.7l.5-.8c2.2.9 4.1 1.8 5.8 2.6zm-1.9-13.6h-3.1v3.7h3.1zm-3.2 4.5v3.7h3.1v-3.7z" fill="#fafbfa"/></svg>