<svg enable-background="new 0 0 400 400" viewBox="0 0 400 400" xmlns="http://www.w3.org/2000/svg"><path d="m374.8 390.4.4-.4c.7.5 1.3 1 1.8 1.4l-.5.5c-.5-.6-1.1-1.1-1.7-1.5zm1 7.3-.6-.3c.5-1.4 1.1-2.8 1.5-4.3.2.1.4.2.6.3-.5 1.3-1 2.8-1.5 4.3zm-.4-10.3.4-.4c.4.3 1 .8 1.7 1.4l-.5.5c-.4-.5-1-1-1.6-1.5zm2.5.3h1.7v-1h.6v1h3.5v-1h.6v1h1.8v.5h-1.8v1.4h-2v1h3.2v2h-3.2v.9h3.3v.5h-3.4c0 .3-.1.6-.1.9h4v.5h-3.7c.7.9 1.9 1.5 3.8 1.7-.1.2-.2.4-.3.6-2.1-.4-3.5-1.1-4-2.1-.4 1-1.8 1.7-4 2.2-.1-.2-.2-.4-.3-.6 2.1-.4 3.4-1 3.8-1.8h-3.4v-.5h3.6c.1-.3.1-.6.2-.9h-3.3v-.5h3.4c0-.3 0-.6 0-.9h-3.2v-2h3.3v-1h-2.1v-1.4h-1.7v-.5zm1.1 3.5v1h2.7c0-.3 0-.4 0-.4 0-.1 0-.2 0-.2 0-.1 0-.2 0-.3h-2.7zm1.2-3v.9h3.5v-.9zm4.7 3h-2.6v.6.4h2.6z" fill="#fbfcfa"/><path d="m393.6 386.7h.6v1.5h2.7v6.1h1.1v.6h-11v-.6h1.1v-6.1h2.7v-1.5h.6v1.5h2.1v-1.5zm-2.7 8.8.4.6c-1.2.6-2.5 1.3-3.8 1.9-.1-.2-.2-.4-.3-.6 1.2-.6 2.5-1.2 3.7-1.9zm-2.2-6.7v2.4h2.1v-2.4zm0 3v2.5h2.1v-2.5zm2.8-3v2.4h2.1v-2.4zm0 3v2.5h2.1v-2.5zm6 6.1c-1.4-.7-2.7-1.3-3.9-1.8l.3-.6c1.5.6 2.7 1.2 3.9 1.7zm-1.2-9.1h-2.1v2.4h2.1zm-2.1 3v2.5h2.1v-2.5z" fill="#fbfcfa"/><g fill="#010106"><path d="m174.19 342.78c-4.43-1.47-8.91-2.84-13.28-4.47-1.17-.43-2.15-1.56-3.03-2.53-8.53-9.49-17.06-18.98-25.47-28.58-1.61-1.83-3.05-2.34-5.47-1.81-14.52 3.13-29.08 6.07-43.82 8.59 1.2-.49 2.39-1 3.6-1.46 10.67-4.01 21.32-8.09 32.03-11.96 2.11-.76 2.88-1.93 3.36-3.98 4.69-20.13 9.44-40.26 14.31-60.34.6-2.45.26-3.67-2.2-4.49-11.14-3.73-20.01-10.52-27.27-19.75-5.82-7.41-7.16-15.45-4.87-24.32 2.09-8.11 4.23-16.21 6.52-24.27.31-1.1 1.37-2.35 2.41-2.82 9.09-4.17 18.31-7.88 28.66-6.78 3.14.33 5.09-1.44 6.3-4.05 3.31-7.11 3.13-14.79 3.34-22.38.02-.74-1.27-2.08-2.08-2.19-2.91-.4-6.01-1-8.8-.4-5.22 1.13-10.29 2.99-15.38 4.67-.96.32-1.95 1.05-2.56 1.86-3.46 4.6-5.56 5.06-10.39 1.93-1.4-.91-2.67-1.99-4.46-3.34 3.8-1.46 7.18-2.78 10.57-4.06 4.91-1.85 9.8-3.8 14.78-5.45 2.2-.73 3.62-2 3.77-4.14.46-6.54 1.45-13.17.85-19.64-.94-10.11-3.2-20.08-4.53-30.16-.95-7.23-1-14.55 1.61-21.54.95-2.54 2.43-4.87 3.9-7.75 2.42 5.99 4.27 11.33 6.7 16.39 4.82 10.07 9.09 12.16 20.1 10.54.55-.08 1.12-.11 1.67-.2 9.09-1.51 11.78-4.4 12.71-13.7.17-1.67.24-3.35.27-5.03.11-6.34 3.45-10.89 7.99-14.87 2.34 2.32 4.55 4.5 6.98 6.91-4.88 6.21-7.41 13.24-6.98 21.13.36 6.59 1.15 13.16 1.32 19.76.1 3.83-.14 7.81-1.12 11.49-2.44 9.17-5.33 18.23-8.16 27.3-.58 1.87-.25 3.07 1.13 4.43 6.64 6.5 13.18 13.11 19.74 19.68.76.76 1.46 1.57 2.53 2.72-7.37.37-13.36-2.12-18.96-5.65-5.42-3.41-10.69-7.06-16.29-10.78-5.66 6.33-9.02 14.41-9.66 23.59-.07.96 1.03 2.31 1.95 2.98 5.24 3.81 10.61 7.46 15.91 11.19 12.98 9.13 15.26 21.25 10.68 35.82-2.31 7.35-5.66 13.03-12.65 17.02-8.92 5.09-17.17 11.33-25.81 16.93-1.88 1.22-2.75 2.66-3.07 4.8-2.61 17.59-5.33 35.16-7.86 52.76-.19 1.34.5 3 1.22 4.25 7.95 13.81 19.35 24.84 29.73 36.7 2.64 3.02 5.33 5.99 8 8.98-.12.12-.29.29-.47.47zm-33.8-253.84c-.43 8.68 1.73 16.47 7.45 23.07.81.94 2.68 1.68 3.86 1.45 6.24-1.21 12.43-2.73 18.61-4.25.83-.2 1.99-.93 2.17-1.62 1.89-7.32 4.24-14.6 5.19-22.05.96-7.55-1.75-11.29-9.26-12.75-7.94-1.54-16.14-1.77-24.25-2.37-.63-.05-1.86 1.37-1.98 2.23-.73 5.4-1.22 10.85-1.79 16.29zm-29.12 95.77c6.4 1.53 12.82 3.69 19.41 4.39 3.84.4 7.95-1.47 11.89-2.52.7-.19 1.51-1.35 1.6-2.14.65-5.66 1.31-11.34 1.62-17.02.31-5.73-8.21-10.78-13.28-8.04-3.15 1.7-6.32 3.34-9.42 5.13-3.53 2.03-8.19 3.42-10.15 6.5-2.01 3.15-1.35 8-1.84 12.1-.03.19.04.42.17 1.6zm67.47 6.31c-.76-15.06-11.55-22.01-22.33-29.58-1.2 9.5-2.35 18.53-3.53 27.86 8.8.59 17.32 1.15 25.86 1.72zm-37.44 24.58c-.69-5.78-1.16-11.07-2.02-16.3-.39-2.39-2.13-3.71-4.82-3.8-2.55-.09-5.11-.55-7.63-1.02-5.09-.96-10.15-2.04-15.79-3.19 3.99 7.99 7.64 15.4 11.44 22.72.4.76 1.67 1.49 2.56 1.51 5.02.16 10.05.08 16.26.08zm32.59-5.32c-1.34-4.34-2.42-8.6-6.65-10.03-5.1-1.73-10.49-2.65-16.08-4-.59 7.8-1.14 15.04-1.72 22.75 8.48-3.02 16.32-5.82 24.45-8.72z"/><path d="m230.65 75.95c3.57-.78 7.46-1.31 11.13-2.51 6.48-2.1 8.59-6.46 6.93-13.11-2.51-10.07-4.97-20.16-7.41-30.25-.36-1.51-.49-3.07-.81-5.17 1.61.32 3.01.44 4.29.89 12.44 4.34 22.87 11.61 31.16 21.84 2.59 3.19 4.06 6.93 3.9 11.17-.1 2.73-.99 4.7-3.74 6.08-9.09 4.56-18.03 9.42-27.02 14.18-.95.5-1.87 1.08-3.24 1.87 23.07 10.39 45.64 20.56 68.21 30.72-.05.33-.09.66-.14 1-4.41-.45-8.91-.54-13.22-1.46-4.45-.95-8.75-2.66-13.08-4.14-7.03-2.4-10.01-.3-9.91 7.06 0 .11.01.22.01.34-.12 5.36 1.22 9.45 6.91 11.89 5.91 2.53 11.31 6.25 16.94 9.45-.08.34-.15.69-.23 1.03-4.33-.84-8.74-1.42-12.98-2.58-5.97-1.63-7.46-1.21-10.52 4.16-2.88 5.06-2.88 5.06 1.46 8.63 4.75 3.9 9.5 7.8 14.04 12.16-8.84-2.51-17.68-5.02-26.52-7.53-1.4-.4-2.79-.8-4.19-1.2-5.34-1.5-7.93.55-8.34 6.32-.65 9.13.42 18.07 2.46 26.95 1.97 8.59 1.27 17-2.29 26.11-8.06-45.28-15.94-89.67-23.8-133.9zm41.77 41.76c0-4.74.46-9-.18-13.07-.36-2.24-2.12-5.08-4.05-6.09-7.15-3.71-14.64-6.77-22.4-10.25 2.22 7.78 4.31 15.26 6.55 22.7.23.75 1.23 1.57 2.04 1.8 5.65 1.63 11.36 3.11 18.04 4.91zm-19.76-78.67c1.82 9.08 3.49 17.4 5.23 26.04 4.89-2.46 9.35-4.69 13.72-6.89-2.71-9.84-10.7-14.02-18.95-19.15zm3.46 82.58c-.57 5.69-1.13 11.24-1.71 16.98 4.8.57 9.18 1.09 13.56 1.61 1.31-10.27-1.14-13.42-11.85-18.59z"/><path d="m275.69 374.32c-4.29-2.05-8.79-3.75-12.82-6.23-7.52-4.64-14.7-9.8-22.15-14.56-1.36-.87-3.32-1.3-4.94-1.16-6.61.59-12.03 3.82-16.87 8.21-5.5 4.98-11.64 4.76-18.61 1.96 1.73-.89 2.98-1.58 4.26-2.19 9.88-4.72 19.75-9.48 29.69-14.08 1.86-.86 2.64-1.8 2.76-3.92 1.6-30.39 3.29-60.78 5.05-91.16.11-1.93-.57-2.8-2.12-3.62-5.14-2.71-10.21-5.54-15.24-8.93 2.42.16 4.85.36 7.27.47 6.85.31 8.49-.69 11.34-6.95.77-1.69 1.43-3.43 2.42-5.8 2.12 4.72 3.82 8.91 5.89 12.92.73 1.41 2.16 2.77 3.6 3.44 4.24 1.97 8.65 3.58 12.97 5.83-4.45 0-8.9 0-13.9 0-1.16 7.98-3.09 15.66-3.23 23.37-.42 24.06-.19 48.12-.07 72.19.01 1.57.82 3.48 1.89 4.65 7 7.7 14.18 15.24 21.29 22.83.65.7 1.25 1.44 1.88 2.16-.12.19-.24.38-.36.57z"/><path d="m220.93 316.48c-.5 4.04-.93 8.09-1.56 12.11-.12.74-1.01 1.39-1.6 2.03-3.1 3.36-6.42 6.55-9.28 10.1-3.57 4.42-8.04 7.31-13.31 9.28-2.01-2.98-2.1-5.27.71-8.09 7.74-7.76 15.11-15.89 22.59-23.91.59-.63.88-1.53 1.31-2.31.38.27.76.53 1.14.79z"/><path d="m283.57 338.88c-4.36-5.98-8.85-11.52-12.62-17.52-2.93-4.66-2.87-10.19-2.44-15.65 8.87 5.32 16.65 22.25 15.06 33.17z"/></g></svg>