<svg enable-background="new 0 0 400 400" viewBox="0 0 400 400" xmlns="http://www.w3.org/2000/svg"><g fill="#010106"><path d="m211.72 132.85c10.09 1.53 20.21.8 30.36.04 4.53-.34 9.15-.09 13.67.39 2.04.21 3.95 1.63 6.59 2.8-1.56.88-2.25 1.48-3.05 1.7-4.32 1.2-5.41 4.29-6.5 8.42-5.36 20.41-1.49 40 4.58 59.39 2.92 9.34 6.69 18.41 10.27 28.14-1.3-.79-2.92-1.33-3.89-2.44-7.92-9.08-12.62-19.71-14.67-31.53-1.7-9.8-3.88-19.58-4.73-29.46-.64-7.37.39-14.9.9-22.34.29-4.27.29-5.18-3.82-5.11-9.36.17-18.71 1.01-28.05 1.74-.67.05-1.74 1.4-1.77 2.18-.72 20.79-1.33 41.59-1.95 62.39-.02.56-.05 1.15.1 1.67.27.9.68 1.77 1.03 2.65.83-.43 1.82-.68 2.45-1.31 5.73-5.65 11.4-11.36 17.2-17.16 1.6 2.58.93 4.34-.81 6.37-5.67 6.63-11.21 13.38-16.62 20.22-2.85 3.6-4.09 7.53-3.29 12.47 1.65 10.15 2.18 20.48 3.86 30.62.9 5.44 3.27 10.64 4.91 15.97 1.84 5.95 3.61 11.92 5.43 17.88.19.63.39 1.29.75 1.83 6.01 9.03 11.91 18.14 18.12 27.04 5.96 8.54 13.9 15.14 22.17 21.34 11.19 8.38 22.42 16.71 33.63 25.05.42.31.91.54 1.37.81-.16.36-.32.72-.47 1.08-1.89-.23-4 0-5.63-.77-3.82-1.8-7.53-3.89-11.06-6.2-4.77-3.11-9.02-7.13-14.03-9.73-15.64-8.13-27.64-19.99-37.12-34.62-8.65-13.34-16.85-26.95-21.75-42.2-4.12-12.84-5.82-26.17-7.3-39.52-.22-1.97-.51-3.93-.87-6.75-10.54 7.68-20.6 15.01-30.67 22.34-.31-.21-.62-.43-.93-.64.63-1.12 1.04-2.48 1.93-3.34 8.92-8.64 17.98-17.15 26.84-25.86 1.26-1.24 2.15-3.35 2.29-5.13 1.82-22.87 3.48-45.74 5.18-68.62.14-1.9-.03-3.87.44-5.68.89-3.43-1.02-4.4-3.73-4.81-1.21-.18-2.5-.41-3.66-.16-12.09 2.63-24.32 1.15-36.49 1.25-10.52.08-21.04-.44-31.55-.29-5.56.08-11.09 1.2-16.66 1.49-2.02.1-4.61-.26-6-1.48-1.52-1.33-2.39-3.86-2.62-5.96-.09-.8 2.28-2.15 3.73-2.76 1.28-.53 2.85-.5 4.29-.5 14.51-.01 29.03.12 43.54.02 13.2-.09 26.4-.32 39.59-.71 3.19-.09 6.41-.82 9.49-1.7.91-.26 2.12-2.19 1.94-3.12-2.12-10.83-3.61-21.9-6.98-32.35-4.28-13.26-10.07-26.04-15.39-38.95-.73-1.76-2.75-2.95-3.77-4.65-1.62-2.7-2.9-5.6-3.84-8.79 3.94.25 6.39 2.36 8.37 5.19 10.08 14.45 17.6 30.03 21.59 47.29 2.43 10.52 4.55 20.99 2.8 31.85-.12.76-.06 1.56-.04 2.34.01.2.17.4.3.68z"/><path d="m132.62 264.02c-1.29 4.7-.52 8.72 1.25 12.75 2.14 4.87 3.99 9.88 5.93 14.84.19.48.14 1.05.21 1.57-.26.25-.52.51-.77.76-1.08-.92-2.53-1.63-3.17-2.79-5.14-9.29-10.15-18.65-15.15-28.01-.46-.86-.89-1.89-.85-2.82.46-10.66 1.57-21.24 6.28-31 1.37-2.84 3.91-5.1 5.66-7.79 3.65-5.61 7.16-11.31 10.63-17.03.68-1.12 1.01-2.49 1.35-3.78 1.82-6.97.59-8.81-6.46-8.53-7.47.3-14.92 1.22-22.39 1.67-4.67.28-9.39.47-14.05.14-4.06-.29-4.51-1.9-2.35-5.25 1.88-2.91 3.96-3.56 7.65-3.26 10.44.84 20.96.97 31.44.91 12.62-.08 25.25-.65 37.87-.98 4.49-.12 8.3 1.37 11.71 5.43-12.7 2.84-25.19.73-37.67 1.76-.69 5.56-1.36 10.97-2.01 16.39-.05.43-.16 1.03.06 1.31 4.09 5.14 3.24 11.43 4.24 17.31.59 3.47 1.37 7.11 3.03 10.15 5 9.09 5.82 19.46 9.39 28.89 3.77 9.95.64 19.61.98 29.38.37 10.28-4.66 18.96-8.27 28.01-1.1 2.77-3.95 4.8-5.8 7.31-8.76 11.9-19.76 21.08-32.73 28.16-5.86 3.2-11.24 7.3-16.8 11.04-3.01 2.02-5.28 2.59-8.32 1.68.55-.64.93-1.27 1.47-1.67 1.52-1.14 3.04-2.3 4.67-3.28 18.3-11.01 33.28-26 48.14-41 3.65-3.69 5.75-9.3 7.53-14.39 4.59-13.09 4.55-26.81 4.16-40.48-.03-.94-1.33-2.41-2.31-2.67-4.51-1.21-9.1-2.17-13.7-3.06-3.48-.67-7.02-1.09-10.85-1.67zm18.49-17.3c-1.28-3.97-2.98-7.39-3.39-10.96-.59-5.15-.25-10.41-.32-15.62-.03-2.17 1.01-4.7-2-6.25-1.35 1.47-2.96 2.67-3.82 4.27-2.87 5.29-5.81 10.58-8.05 16.15-1.09 2.7-.8 6.01-.82 9.04 0 .68 1.3 1.87 2.1 1.95 5.31.59 10.64.95 16.3 1.42zm5.92 16.08c-1.07-2.89-1.86-5.21-2.79-7.47-.31-.74-.92-1.84-1.51-1.92-6.8-.9-13.62-1.63-20.82-2.45.25 3.13.46 5.65.68 8.35 8.14 1.16 16.06 2.29 24.44 3.49z"/><path d="m215.41 126.51c.28-2.81.02-4.9.73-6.58 4.81-11.43 4.7-23.84 7.34-35.68 2.69-12.11 6.27-23.94 15.06-33.36 5.64-6.04 10.96-12.41 17-18.02 3.18-2.95 7.48-4.82 11.49-6.7 1.33-.62 4.2-.35 4.89.6 1.42 1.94-.45 3.38-2.23 4.34-12.77 6.88-22.08 17.26-29.6 29.42-5.48 8.86-6.9 19.03-9.25 28.89-1.84 7.71-3.37 15.5-5.59 23.1-1.53 5.23-4.23 10.01-9.84 13.99z"/><path d="m103.35 164.27c5.87-.5 11.55-1.71 17.12-1.32 13.47.94 26.79-.28 40.17-1.25 5.42-.39 10.94-.01 16.34.66 1.57.19 2.86 2.61 4.28 4-1.08 1.1-1.97 2.7-3.28 3.17-2.25.81-4.77 1.27-7.16 1.25-13.97-.11-27.94-.47-41.91-.59-3.33-.03-6.66.52-9.99.86-1.33.14-2.65.58-3.97.6-6.83.09-8.97-1.09-11.6-7.38z"/></g><path d="m385.2 377.6.6-.7c.6.4 1.3.9 1.9 1.5l-.6.7c-.8-.5-1.4-1-1.9-1.5zm.3 7.1c.6-1.4 1.1-2.9 1.5-4.5.3.1.6.3.9.4-.5 1.4-1 2.9-1.5 4.4zm.2-10.1.6-.6c.7.5 1.3 1.1 1.9 1.6l-.7.7c-.6-.6-1.2-1.2-1.8-1.7zm8.4-.8h.8v.9h1.8v.7h-1.8v1.8h-.8v-.3h-1.2v.9h3.3v2.6h-.8v-.4h-2.5c0 .3 0 .6-.1.8h3.4v.7h-3.5c0 .3-.1.6-.1.8h4v.7h-3.5c.7.9 1.9 1.3 3.6 1.5-.2.2-.4.5-.6.9-1.9-.3-3.2-1.1-3.8-2.3-.5 1.1-1.8 2-3.9 2.4-.2-.3-.4-.5-.6-.8 1.9-.4 3.1-.9 3.6-1.7h-3.2v-.7h3.5c.1-.2.1-.5.2-.8h-3.3v-.7h3.4c0-.2 0-.5 0-.8h-2.4v.3h-.8v-2.6h3.3v-.9h-1.2v.3h-.8v-1.8h-1.8v-.7h1.8v-.9h.8v.9h3.2zm-4.4 5.5h2.4c0-.3 0-.6 0-.9h-2.4zm1.2-3.1h3.2v-.8h-3.2zm4.4 2.2h-2.4v.9h2.5v-.9z" fill="#fcfbfa"/><path d="m389.2 385.8h.9v1.5h1.9v-1.5h.9v1.5h2.7v6h1.1v.9h-11.3v-.9h1.1v-6h2.7zm.2 8.7.5.8c-1.2.6-2.5 1.3-4 1.9-.2-.3-.3-.6-.6-.8 1.6-.6 3-1.3 4.1-1.9zm-2-4.3h1.9v-2.1h-1.9zm0 3.1h1.9v-2.2h-1.9zm2.7-3.1h1.9v-2.1h-1.9zm0 3.1h1.9v-2.2h-1.9zm2.4 1.3c1.4.6 2.7 1.2 4.1 1.8l-.5.9c-1.5-.7-2.8-1.4-4.1-1.9zm2.2-6.5h-1.9v2.1h1.9zm-1.9 5.2h1.9v-2.2h-1.9z" fill="#fcfbfa"/></svg>