<svg enable-background="new 0 0 400 400" viewBox="0 0 400 400" xmlns="http://www.w3.org/2000/svg"><path d="m12.4 4.8-6.1 9h6v1.2h-8v-.5l6.1-8.9h-5.7v-1.2h7.6v.4z" fill="#fafafb"/><path d="m14 15v-10.6h3c1.6 0 2.9.5 4 1.4s1.6 2.2 1.6 3.8-.5 3-1.6 3.9-2.4 1.5-4 1.5zm1.4-9.4v8.2h1.6c1.3 0 2.4-.4 3.1-1.1s1.1-1.8 1.1-3.1-.4-2.3-1.2-3-1.8-1-3.1-1z" fill="#fafafb"/><path d="m26.1 4.4v10.6h-1.4v-10.6z" fill="#fafafb"/><path d="m36.1 14.6c-.8.4-1.8.6-2.9.6-1.5 0-2.7-.5-3.6-1.4s-1.4-2.2-1.4-3.8c0-1.7.5-3.1 1.5-4.1s2.3-1.6 3.9-1.6c1 0 1.8.1 2.5.4v1.4c-.8-.4-1.6-.6-2.5-.6-1.2 0-2.1.4-2.9 1.2s-1.1 1.8-1.1 3.2c0 1.3.3 2.3 1 3s1.6 1.1 2.7 1.1c1 0 2-.2 2.7-.7v1.3z" fill="#fafafb"/><path d="m37.6 14.3c0-.2.1-.5.3-.6s.4-.3.6-.3c.3 0 .5.1.6.3s.3.4.3.6-.1.4-.3.6-.4.3-.6.3c-.3 0-.5-.1-.6-.3s-.3-.4-.3-.6z" fill="#fafafb"/><path d="m50.2 15h-1.6l-5.3-8.2c-.2-.2-.3-.5-.4-.7 0 .2.1.7.1 1.5v7.4h-1.4v-10.6h1.7l5.2 8.1c.2.4.4.6.4.7 0-.3-.1-.8-.1-1.5v-7.3h1.4z" fill="#fafafb"/><path d="m58.6 15h-5.7v-10.6h5.5v1.2h-4.1v3.4h3.8v1.2h-3.8v3.6h4.3z" fill="#fafafb"/><path d="m67.1 5.6h-3.1v9.4h-1.4v-9.4h-3v-1.2h7.5z" fill="#fafafb"/><g fill="#010105"><path d="m117.11 374.46c.19-1.35.37-2.58.54-3.82-1.05.27-2.13.44-3.12.84-.69.28-1.24.89-1.86 1.35-.04-.36-.08-.72-.12-1.08-2.22 0-4.45.12-6.66-.05-1.28-.1-2.53-.68-4.32-1.19-.57.68-1.56 1.87-2.65 3.19-1.25-1.06-2.25-1.9-3.43-2.91-1.18.63-2.43 1.3-3.87 2.07-1.5-1.4-3.02-2.83-4.46-4.18-.49 1.26-.65 2.9-1.52 3.48-.66.44-2.21-.6-3.39-.69-.94-.07-2.26-.05-2.83.51-2.79 2.78-6.09 3.16-9.82 3.11-13.08-.16-26.17-.06-39.96-.06 0-5.6.01-11.02 0-16.45-.09-32.01-.26-64.01-.19-96.02.01-4.11 1.22-8.21 1.96-12.82-1.81-1.04-2.17-3.54-2.17-6.39-.16-65.67-.35-131.35-.54-197.02-.02-5.48.18-10.98-.09-16.45-.16-3.32 1.38-4.5 4.24-4.51 9.62-.04 19.25.02 28.87.05 1.12 0 2.23.13 3.35.13 38.27.08 76.55.11 114.82.24 53.93.18 107.87.44 161.8.66 7.47.03 14.95 0 22.64 0 0 3.2-.01 5.85 0 8.5.17 34.23.35 68.46.52 102.68.05 9.82.37 19.57-.86 29.44-1.09 8.78.03 17.83.08 26.76.01.96-.35 2.14-.96 2.86-2.32 2.72-4.81 5.3-7.1 8.93.99-.17 1.98-.41 2.98-.5.89-.09 1.79-.02 2.29-.02-.64 2.26-1.06 3.75-1.48 5.23 1.02-.12 2.05-.25 3.07-.37.26 4.96-5.12 6.03-7.87 9.62 3.15 2.38 5.19 5.16.43 8.73.37.18.75.37 1.12.55 1.54-.75 3.08-1.49 4.63-2.24.26.16.52.32.77.47-.78 1.11-1.55 2.21-2.54 3.61h4.31c-.29 10.61 2.75 21.38.45 32.32-.39 1.83-.41 3.77-.39 5.65.15 12.29.31 24.57.56 36.86.14 7.14.6 14.27.65 21.4.1 15.65.03 31.29.03 47.52-82.89.01-165.73.01-247.91.01zm25.84-251.97c1.18-2.33 2.21-4.37 3.52-6.95-2.43.68-4.48 1.91-5.27 1.35-2.44-1.74-4.24-1.39-6.18.76-2.04-2.92-4.08-2.05-6.2-.24-1.92 1.63-4.68 2.77-5.73 4.81-2.15 4.17-4.64 5.93-9.5 5.08-.24-.04-.54.27-1.05.55.79.49 1.44.89 2.35 1.44-2.42 2.45-4.06 4.91-2.32 8.21.12.23.02.76-.18.94-3.58 3.27-.59 5.09 1.67 7.07-.4.54-.74.98-1.07 1.43-1.85 2.51-5.55 4.42-2.74 8.48.18.26-.28 1.01-.53 1.49-2.01 3.77-1.54 9.45 1.15 12.63-1.22 1.82-2.41 3.71-3.72 5.52-2.14 2.97 1.13 3.94 1.89 6.02 1.48-.66 2.73-1.22 4.15-1.86v8.56c-1.68-.32-3.29-.64-4.91-.95-.22.34-.45.68-.67 1.02 5.27 2.28 5.44 6.97 5.35 11.51 1.97-.9 3.32-1.52 4.66-2.13-2.25 4.73-.43 8.79-.43 12.82 1.44-.64 2.52-1.12 3.97-1.76-.59 1.96-.95 3.17-1.32 4.38.28.16.55.32.83.48 3.81-3.36 7.62-6.71 11.73-10.33-4.05-3.68-1.41-6.04 1.33-8.43 2.02-1.76 3.97-3.6 6.04-5.48-2.67-3.43-5.01-6.41-7.33-9.4-1.83-2.37-.38-5.85 2.75-6.64-2.15 3.53-2.15 3.53.09 5.69 2.45-2.56 4.89-5.13 7.35-7.71-.83-1.42-1.5-2.57-2.16-3.71.38-1.85 3.79-3.31.64-5.67-.74 1.13-1.44 2.2-2.15 3.28-.32.01-.65.02-.97.03-.12-.93-.67-2.16-.27-2.74 1.75-2.55 3.78-4.91 5.72-7.35 1.28.65 2.22 1.12 3.38 1.71-1.2.87-2.15 1.56-3.09 2.24.13.37.27.74.4 1.11 1.26-.41 2.52-.82 3.8-1.23.25 1.44.5 2.88.77 4.45 1.39-1.01 2.4-1.69 3.36-2.45.94-.74 1.82-1.54 2.91-2.48 1.55 1.77 3.28 2.54 5.3.54.31-.31 1.3-.31 1.69-.04.36.25.65 1.24.44 1.59-1.13 1.88-2.43 3.66-3.43 5.12-2.07-1.2-3.35-1.94-4.63-2.69-.41.31-.82.62-1.23.93 5.22 2.12-.23 5.2 1.25 8.26 1.96-3.83 4.11-6.49 8.67-6.12-1.75 7.59-9.1 9.75-13.15 14.49 1.67 1.76 3.2 3.39 4.81 5.09 5.1-2.92 5.85-3.9 4.39-5.9-1.43.66-2.84 1.31-4.26 1.96-.14-.31-.28-.61-.43-.92 2.73-2.97 5.24-6.16 8.13-8.96.22.22.44.45.66.67-.61 1.95-1.21 3.9-1.82 5.85.32.1.64.2.95.3.98-.68 1.95-1.36 2.89-2 3.12 2.61 3.12 2.61 5.16.94-.95-.73-1.88-1.46-2.79-2.17 4.92-8 7.06-9.76 10.01-8.32-.62 1.03-1.24 2.05-1.9 3.14 1.3 1.53 2.5 2.94 3.1 3.65 2.3-.24 3.8-.39 5.3-.54.05.34.09.67.14 1.01-1.79 1.63-3.59 3.25-5.43 4.93 1.93 2.49 3.48 4.86 5.4 6.87 2.51 2.62 3.73 5.14 1.01 8.3-.08.09.1.39.31 1.12 4.03-2.28 7.37-1.75 9.29 3.3-2.56 2.37-5.35 4.94-7.9 7.3-1.32-.37-2.68-.76-4.49-1.27.98 1.95 1.55 3.09 2.12 4.24-6.1-3.77-7.7 2.49-11.05 4.33-5.57-4.83-7.66 1.77-11.37 3.56-.76-.52-1.56-1.06-2.28-1.56-4.87 2.82-4.87 2.82-4.52 4.38 1.33-.15 2.6-.29 3.88-.43.23.45.47.9.7 1.35-2.3 1.78-4.59 3.56-7.67 5.95 3.13 2.54 5.55 4.5 8.04 6.51-.78.84-2.04 2.2-3.37 3.65 1.23 1.07 2.3 2 3.49 3.03-1.88 1.99-3.55 3.96-5.44 5.68-1.86 1.69-2.14 3.7-.58 5.29 2.23 2.28 4.9 4.16 7.53 6.01.45.32 1.88-.13 2.39-.66 1.05-1.1 1.68-2.59 2.68-3.75.78-.92 1.85-1.59 2.79-2.38.21.26.42.52.63.78-.79 2.71-4.82 3.87-3.82 7.71h5.5c-1.06 1.9-1.87 3.36-2.78 5 1.18-.45 2.35-.9 3.52-1.35l.54.54c-.65 1.17-1.3 2.34-2.01 3.6 1.09 1.16 2.2 2.34 3.08 3.28-1.41 2.12-2.59 3.89-3.76 5.66 1.42.92 2.29 1.49 2.77 1.8-.47 1.78-.83 3.17-1.36 5.18 2.26-1.35 3.57-2.14 4.89-2.93.35.31.7.61 1.05.92-2.71 1.6-2.08 3.27-.96 5.23.46.8.08 2.19-.16 3.25-.21.91-.76 1.75-.99 2.25h5.64c.02.24.04.47.06.71-1.11.8-2.23 1.61-3.76 2.71 2.21 2.38 3.99 4.7 6.16 6.56 4.17 3.55 4.26 3.44 2.51 8.37-.05.14.19.38.23.46 1.36-.62 2.71-1.23 4.77-2.17-3.68 9.13 2.94 12.38 7.43 16.58.57.53 2.06.07 3.42.07-1.14-2.07-1.93-3.49-2.71-4.91.31-.18.63-.36.94-.54.87.62 1.75 1.23 2.58 1.82 6.74-4.26 8.25-5.89 7.53-8.13-.87.78-1.72 1.54-2.58 2.3-.52-.04-1.05-.07-1.57-.11 3.82-3.57 1.44-6.61-.44-10.47 2.17 1.16 3.29 1.76 4.61 2.47.08-1.58.14-2.87.2-4.15h5.66c-1.56-1.84-2.42-2.85-3.44-4.04 2.17-2.35 4.25-4.62 6.34-6.88-.89-1.15-1.62-2.08-2.43-3.12 2.8-3.29 5.51-6.4 8.12-9.6.57-.69 1.25-1.88 1.02-2.53-.97-2.68-1.33-6.04-5.18-6.06.56-1.54 1.04-2.86 1.53-4.19-2.17.39-3.6.64-5.93 1.06 1.33-2.24 2.02-3.42 2.73-4.63-1.36-.63-2.45-1.13-3.53-1.62.9-1.85 1.71-3.52 2.53-5.2-1.11-.19-1.42.11-1.8.28-.74.34-1.51.61-2.27.92-.1-.89-.35-1.79-.26-2.66.12-1.05.53-2.07.95-3.6-1.81.93-2.71 4.16-4.68 1.04 1.34-1.98 2.69-3.98 4-5.91-1.63 0-3.62.12-3.64-.02-.22-1.65-.14-3.33-.14-5.34-.9.65-1.86 1.34-2.82 2.04-.98-1.13-1.84-2.12-2.73-3.15-1.12 1.18-2.1 2.21-3.08 3.24-.38-.08-.75-.15-1.13-.23.1-1.06-.15-2.33.35-3.13 1.25-1.97 2.73-3.84 4.34-5.54.98-1.03 2.37-1.66 3.58-2.47-2.16 6.06-2.16 6.06-.87 7.49 3.79-3.58 7.58-7.16 11.54-10.91-.93-.74-1.57-1.24-2.07-1.63-1.22.87-2.17 1.55-3.12 2.23-.2-.24-.4-.49-.61-.73 4.64-5.09 9.29-10.19 13.84-15.19 1.35.49 2.47.9 3.59 1.31.08-.19.16-.38.24-.56-.64-.7-1.28-1.4-1.87-2.03 1.14-2.6 4.14-4.81.79-7.72-.27-.23.05-1.63.49-2.11 2.51-2.68 5.14-5.26 7.77-7.83.24-.24.84-.26 1.23-.18 4.05.84 8.09 1.73 12.13 2.6-.19.76-.46 1.84-.71 2.85 1.44-.28 2.91-1.03 3.47-.6 4.01 3.09 7.8.82 11.71.05 0-1.28 0-2.35 0-3.66 4.09 3.24 5.33-1.08 7.87-2.37-1.05-1.46-1.94-2.68-2.8-3.87 1.04-1.22 1.89-2.22 2.73-3.2-1-1.39-1.88-2.63-2.83-3.96 1.53-1.74 2.92-3.31 4.27-4.85 4.16 2.59 4.16 2.59 5.54 1.73-1-1.13-1.99-2.27-2.99-3.4 1.27-1.38 2.35-2.54 3.99-4.32-2.48.33-4.05.54-6.56.88 1.74-2.22 2.91-3.71 4.03-5.13 1.61.84 2.82 1.47 4.68 2.44-2.46-7.35-6.71-12.23-12.72-15.6 2.32-3.81 3.4.76 5.96.21-.9-3.27-4.47-4.19-5.79-6.56 2.73-2.84 5.42-5.64 8.2-8.53.77.24 2.11.67 3.45 1.1.08-.21.17-.42.25-.63-.58-.73-1.17-1.45-1.45-1.8.77-2.25 1.38-4.05 2.11-6.17-2.09.87-3.36 1.4-4.63 1.92-.11-.27-.22-.55-.33-.82.52-.85 1.05-1.69 1.98-3.2-3.73-3.96-7.52-7.98-10.71-11.36-2.67.21-4.56.35-6.36.49.94-1.89 1.66-3.32 2.57-5.14-2.22.69-3.74 1.15-5.25 1.62-.15-.28-.29-.57-.44-.85.45-.81.91-1.62.96-1.71-3.91-1.97-7.64-3.85-11.31-5.69.81 3.56 7.97 5.04 3.28 10.4 1.49 1.97 2.9 3.83 4.28 5.65 1.77-.29 2.9-4.19 5.21-.65-1.41 1.53-2.8 3.05-3.74 4.07-2.1-.98-3.65-1.71-5.21-2.44-.24.21-.48.42-.72.63 7.09 6.34-.53 8.29-3.86 11.95 2.54-.63 4.34-1.08 5.53-1.38v11.57c1.13-.33 2.31-.68 4.33-1.28-2.82 4.25-8.56 6.12-5.19 11.55-1.63-.42-2.96-.77-4.3-1.12-.1.29-.21.58-.31.87.97.85 1.94 1.7 3.01 2.64-1.26 1.41-2.34 2.62-3.8 4.26 1.4.55 2.33 1.13 3.31 1.24 1.09.13 2.22-.17 3.21-.27-.59 1.52-1.03 2.64-1.69 4.32 2.36-1.08 3.74-1.71 5.12-2.34.14.23.28.46.41.69-.86 1.53-1.71 3.05-2.58 4.6.99.93 1.87 1.76 2.7 2.54-1.89 4.32-4.49 5.33-8.17 3.12-3.69 3.93-7.41 7.9-11.01 11.73.57 1.35.99 2.35 1.41 3.35-3.18-1.4-5.92-3.02-8.03-5.23-.79-.82-.2-3.04-.08-4.6.05-.58.57-1.12.88-1.68-.41-.23-.82-.47-1.23-.7-.8 1.45-2.63 3.36-2.23 4.28 1.57 3.56-.26 5.64-2.26 7.98-1.58-.85-3-1.63-4.79-2.6-1.03 1.32-1.98 2.54-3.04 3.91-3-2.5-5.71-4.75-8.14-6.77.84-2.31 1.49-4.13 2.32-6.41-2.56 1.29-4.35 2.19-6.14 3.09 2.76-6.14 2.76-6.14-.63-7.92 1.81-1.99 3.58-3.93 5.13-5.64 1.54.91 2.78 1.64 4.03 2.38.18-.3.36-.59.55-.89-.95-.9-1.9-1.79-2.83-2.67 1.34-1.77 2.59-3.42 4.06-5.36-2.78-.31-3.74 4.33-6.62 1.36 2.31-3.13 4.39-5.96 6.46-8.79-2.84-.09-4.05 3.59-6.88 1.36.19-2.17 4.34-3.72.74-6.41-1.78 2.49-3.43 4.81-5.1 7.15-1.68-1.05-3.07-1.92-4.6-2.89-1.64 2.99-3.76 2.28-5.65.79-1.99-1.57-3.83-3.37-5.53-5.25-.42-.47-.06-1.64-.06-2.56 2.01.92 3.53 1.62 5.04 2.32-.71-3.58-5.27-4.62-3.85-9.15.89 1.24 1.51 2.12 2.27 3.18 1.03-.48 1.94-.9 3.51-1.63-1.58-1.09-2.69-1.86-3.89-2.69 1.64-2.07 2.96-3.74 4.29-5.41.23.14.46.28.69.42-.59 1.52-1.19 3.04-1.78 4.57 3.37 1.72 2.97-.97 3.22-2.47 2.12 1.22 3.99 2.3 5.86 3.38.21-.3.42-.61.63-.91-.89-1.09-1.78-2.17-2.77-3.38 1.12-1.68 2.21-3.32 3.4-5.12 2.23 1.12 4.17 2.09 5.95 2.98 1.04-1.12 1.83-1.98 2.62-2.83.17.17.35.34.52.51-.67 1.5-1.35 2.99-2.1 4.68 2.68-.62 4.61-1.07 6.04-1.4 0-6 6.41-6.95 9.32-10.71-.38 1.58-.77 3.16-1.24 5.13 3.95-1.87 5.28-6.59 9.98-7.21-.62 2.9-4.06 4.05-2.25 7.3 1.79-1.11 3.35-2.08 4.88-3.03-.86-2.15-1.59-3.98-2.33-5.82.26-.13.51-.27.77-.4.9.53 1.8 1.06 2.65 1.57 3.48-2.45 6.73-4.75 10.16-7.17-.81-.9-1.37-1.52-1.97-2.19-1.93 1.22-2.83 5.43-6.05 1.71 1.08-3.65 2.19-7.38 3.42-11.52-.76.09-1.85.19-2.92.35-.84.12-1.96.72-2.45.38-3.69-2.57-7.25-1.08-10.93-.1-.93.25-2.18-.37-3.18-.83-.28-.13-.18-1.1-.26-1.71-1.16-.62-2.66-1.42-4.44-2.37-2.43 4.09-5.59-.9-9.46.65 1.63.9 2.69 1.48 3.76 2.07-2.58 2.49-3.18 2.32-6.17-.91.48-1.51.92-2.88 1.5-4.69-2.06 1.11-3.36 1.82-4.66 2.52-.18-.26-.35-.51-.53-.77 2.3-3.13 4.59-6.26 6.95-9.46 1.53.86 2.87 1.61 5.16 2.89-.83-2.03-1.3-3.17-1.79-4.37.52-.78 1.11-1.6 1.63-2.45 1.46-2.36 3.87-4.31 2.11-7.76-.76-1.49 3.2-5.06 5.08-4.93-.81 1.67-1.62 3.34-2.43 5.02.26.14.52.28.77.42 1.65-1.47 3.29-2.94 4.53-4.04-.37-1.89-.64-3.31-.83-4.27 1.94.34 3.33.59 4.72.83.08-.29.16-.58.24-.87-3.62-4.38-7.24-8.76-10.99-13.3-1.51 1.11-2.82 2.09-4.35 3.21-.96-1.23-1.84-2.36-2.72-3.49-.92-1.18-1.83-2.37-2.49-3.22-2.21 1.21-3.93 2.16-5.84 3.21-1.12-5.01-4.4-6.97-8.51-5.73-2.1.64-4.21 1.26-6.46 1.93-.5-1.77-.91-3.2-1.4-4.94-2.29 1.76-4.3 3.31-6.36 4.89-1.06-1.02-2-1.91-3.01-2.88-1.98 1.64-3.71 3.24-5.62 4.58-1.3.92-2.83 2.04-4.29 2.09-4.6.15-7.74 2.18-9.89 6.21.73.69 1.79 1.24 1.89 1.92.12.85-.61 2.61-.89 2.59-3.38-.21-6.75-.68-10.13-1.08.01-.31.02-.62.03-.93-.83.72-1.65 1.44-2.11 1.83-1.82-.42-3.62-1.46-4.6-.94-2.57 1.35-4.51 1.05-6.34-1.12-3.89 3.67-7.6 7.18-11.46 10.83 1.64.33 3.02.61 4.66.95-.77.97-1.36 1.71-2.03 2.55 2.65 3.44 5.23 6.79 7.79 10.11 1.25-.79 2.26-1.42 3.79-2.39 1.04 1.26 1.85 2.72 3.08 3.6.95.68 2.42.83 3.66.86 1.85.05 3.71-.22 5.56-.35.05.33.1.67.16 1 1.16-.8 2.33-1.6 3.5-2.41 1.29 1.12 2.46 2.12 3.53 3.04 2.3-.41 3.3-4.94 6.49-1.6-.5.4-1.02.66-1.33 1.08-.57.78-1.01 1.65-1.51 2.48.91-.06 1.82-.19 2.72-.16 2.84.1 5.67.27 8.85.43-1.38 2.6-2.28 4.28-3.38 6.35 1.58-.65 2.32-.95 3.06-1.25-.05.84.17 1.82-.19 2.5-.89 1.67-2.14 3.15-3.03 4.82-.38.72-.22 1.73-.32 2.7 2.15-.1 2.54-4.05 5.04-1.18-.78 1.01-1.51 1.96-2.31 2.99 1.05.99 2.01 1.89 3.21 3.01-2.18 1.64-2.61 5.09-7.11 5.27 1.35-1.84 2.15-2.94 3.52-4.81-2.02.3-3.36.5-4.79.71 0-1.64 0-3.16 0-5.66-2.54 2.73-4.51 4.86-6.89 7.41-1.86-1.78-3.95-3.77-5.88-5.61.81-1.39 1.45-2.49 2.49-4.28-2.28 1.47-3.76 2.43-5.45 3.52 2.33 2.14 4.61 4.24 7.14 6.56-3.42 2.37-3.33 5.59-2.32 8.97-1.85-.57-3.27-1.01-5.08-1.56.98 2.12 1.57 3.38 2.16 4.65-.19.34-.39.67-.58 1.01-3.11-4.13-5.82.42-8.96-.19-.2-1.08-.38-2.06-.59-3.24-1.83 1.22-2.46 4.35-5.28 2.45.7-1.06 1.36-2.05 2.08-3.14-.97-.61-1.82-1.11-2.88-1.73zm-50.06 24.04c-2.2-1.74-4.21-3.34-6.2-4.92.51-1.25.98-2.4 1.74-4.27-4.9 3.25-3.89-.69-4.25-2.57-2.77.72-3.52 4.93-6.86 3.59.43-1.42.81-2.67 1.32-4.32-2.36.88-3.81 1.43-5.25 1.97-.18-.32-.37-.63-.55-.95 1.36-1.43 2.72-2.85 4.09-4.28 2.83-2.96 2.83-2.96 1.22-4.58-1.33.93-2.63 1.84-3.93 2.75-.21-.26-.41-.52-.62-.79 1.58-2.38 3.16-4.75 4.68-7.04-.84-1.4-1.52-2.53-2.22-3.69.8-.91 1.51-1.72 2.03-2.31-.48-1.97-.88-3.61-1.47-6.01 2.01 1.18 3.22 1.9 4.22 2.49 2.37-1.83 4.6-3.55 6.82-5.27-.27-.35-.54-.69-.81-1.04-1.19-.47-2.39-.94-3.83-1.5.58-.77 1.06-1.4 1.6-2.12 2.06 1.93 3.93 2.84 5.75.25-.91-1.16-1.82-2.31-2.72-3.46.16-.34.33-.67.49-1.01 3.59 3.97 5.94 1.23 8.28-.68-.65-7.67-6.74-7.59-11.34-8.29.21-1.74.35-3 .58-4.92-2.09 1.24-3.23 1.91-4.37 2.59-.18-.2-.35-.4-.53-.6.64-1.5 1.28-2.99 1.98-4.62-1.83-1.52-3.68-3.07-5.58-4.65-.75.48-1.63 1.04-2.3 1.47-.61-2.26-1.16-4.32-1.86-6.94.65-.91 1.77-2.5 2.89-4.09-.17-.22-.34-.44-.51-.65-7.86 4.94-8.77-3.98-13.85-6.01 2.15-1.06 3.55-1.75 5.04-2.49-2.54-2.37-4.54-2.28-6.6.3-1.82 2.27-3.96 4.24-6.99 1.41-.28-.26-1.13.1-2.07.21.97 1.29 1.69 2.24 2.46 3.28-2.13 2.42-4.18 4.74-5.9 6.68.65 1.87 1.15 3.33 1.6 4.6-1.88-.19-3.34-.34-4.54-.46.13 1.8.66 3.17.2 3.98-1.11 1.95-.43 3.27.66 4.86.57.83.56 2.07 1 3.95-2.28-1.28-3.44-1.92-4.59-2.57-.16.2-.31.41-.47.61.68 1.05 1.37 2.1 2.14 3.29-.92.64-1.74 1.21-3.26 2.25 2.16 1.19 3.55 1.95 5.01 2.76-1.46 2.69-2.97 5.46-4.32 7.93.36-.03 1.6-.14 3.02-.27-3.55 5.62-3.77 11.35-.8 16.63-1.19 1.27-2.39 2.55-3.72 3.96 1.03.66 1.84 1.18 2.74 1.77-1.39 2.22-2.76 4.26-3.95 6.41-.42.76-.36 1.79-.52 2.69h2.97c.86 1.66 1.88 3.62 2.91 5.58-.9.98-1.64 1.79-2.44 2.67.83 1.18 1.59 2.26 2.32 3.29-2.18 4.24-3.16 4.5-5.67 1.49-.95.49-1.93.99-3.38 1.74 1.79.64 2.83 1.01 3.88 1.39-.32.58-.61 1.09-.88 1.58 1.19.41 2.21.76 3.23 1.11.08.31.15.61.23.92-1.24.51-2.48 1.01-3.06 1.25-.2 1.47-.44 2.81-.56 4.15-.09 1.02-.08 2.05-.04 3.08.06 1.67.2 3.34.26 5.01.12 3.46.72 6.71-1.52 10.18-1.32 2.04-.24 5.64-.24 8.67h3.2c-1 1.21-1.65 2-2.29 2.78 1.12 1.44 2.06 2.66 3.08 3.96-1.1 1.16-2.09 2.19-3.08 3.22 1.02 1.88 1.99 4.12 1.31 5.57-1.43 3.03-1.41 5.06 1.88 6.41-.94.83-1.74 1.54-2.66 2.34 1.86 2.23 2.11 4.24.06 6.35-.42.44.01 1.71.08 3.18 2.01-1.58 3.15-3.95 5.31-1.33-2.44 2.28-1.26 4.6.42 6.62 1.71 2.05 3.9 3.7 5.63 5.74.84 1 1.1 2.49 1.87 4.35 2.73.47 1.75 3.33 1.77 5.73 2.58-.48 4.72-4.71 7.5-.6.99-.52 1.94-1.02 3.29-1.73.68 1.62 1.27 3 1.86 4.4 1.65-1.39 3.33-2.8 4.97-4.19 1.23.93 2.27 1.72 3.26 2.46 6.27-4.28 6.27-4.28 6.22-7.05-1.89 1.27-3.57 2.4-5.25 3.53.34-3.95 5.68-5.22 3.33-9.84-.4.23-.67.43-.97.55-.91.36-1.83.68-2.74 1.02.34-1.03.42-2.3 1.09-3.04 1.38-1.55 3.07-2.82 5.15-4.67-4.94-1.79-5.86 3.72-8.32 4.06-.28-2.74-.54-5.31-.84-8.24 1.32.83 2.23 1.41 3.16 1.99 1.91-1.35 3.72-2.63 5.7-4.03-2.25-2.07-4.16-4.03-1.39-6.82.28-.28.28-1.22.03-1.58-1.49-2.12-.07-3.5 1.08-5.02 1.19-1.58 2.28-3.22 3.41-4.83-1.58-2.26-3.01-4.3-4.11-5.87 1.79-.64 3.31-1.18 4.82-1.72-.95-1.36-1.89-2.72-3.03-4.36 2.85-3.05 6.13-6.54 9.53-10.17-.98-.65-1.78-1.18-3.24-2.15 2.07-2.03 4-3.77 5.74-5.7.6-.66.71-1.77 1.04-2.68-.29-.1-.58-.2-.88-.3-.81.89-1.63 1.79-2.59 2.85-1-.73-1.91-1.39-2.94-2.14 1.6-1.8 2.97-3.34 4.15-4.67 1.49 1.01 2.66 1.8 3.82 2.59-1.48-3.87-1.48-3.87-.07-5.56.91.62 1.79 1.32 2.77 1.83.37.19 1.15.09 1.43-.19.26-.26.24-.97.12-1.43-.5-1.97-1.09-3.91-1.73-6.18-.58-.11-1.79-.35-2.93-.57.78-1.51 1.38-2.67 1.97-3.82-.2-.14-.4-.29-.6-.43-.96.6-1.96 1.22-3.18 1.96zm214.32-15.01c-1.51-2.49-2.94-3.17-4.46-1.17.73 1.6 1.34 2.96 1.96 4.32-.34.17-.68.34-1.02.51-.95-.86-1.9-1.71-3.01-2.71-1.39 2.1-4.64 2.86-3.84 6.57 1.14-.57 1.9-.96 2.31-1.17.65 3.61 1.31 7.24 1.98 10.95 3.78-2.13 4.62-1 6.01 7.96 3.56-2.69 5.8-.39 8.12 1.87-.9 1.5-1.71 2.83-2.51 4.17.24.24.47.49.71.73 1.45-.74 2.9-1.49 4.87-2.5-.18 2.44-.31 4.27-.38 5.22h4.97c-.43 1.3-.87 2.6-1.45 4.36.91-.17 2.14-.4 3.75-.7.06 1.18.14 2.61.19 3.66 1.53-.08 3.01-.15 3.99-.2-.41 1.86-.73 3.29-1.08 4.85 1.92-.76 3.15-1.25 4.66-1.84-.44 1.98-.71 3.15-1.16 5.2 2.82-1.56 4.63-2.56 7-3.87-2.22-2.07-3.99-3.89-5.94-5.51-1.71-1.42-1.57-2.34-.06-3.07 1.25 1.07 2.21 2.01 3.33 2.73.15.1 1.56-1.12 1.46-1.35-.51-1.25-1.32-2.39-2.15-3.78.42-.52 1.19-1.45 1.98-2.43-1.54-2.28-2.85-4.47-.75-7.09.38-.47.41-1.9.05-2.18-2.88-2.21-.95-4.3.3-6.3-1.16-.95-2.07-1.69-3-2.44.97-1.73 1.84-3.27 2.77-4.93-1.71-1.99-3.38-3.92-5.06-5.88.89-1.6 1.71-3.05 2.38-4.26-.72-1.5-1.34-2.76-1.95-4.03.28-.11.55-.22.83-.32 1.02.58 2.03 1.17 3.05 1.75-2.71-2.68-.48-5.04.2-7.34-1.42-.36-2.71-.69-3.99-1.01.57-3 4.69-4.19 3.94-8.07-1.48.85-2.59 1.48-3.7 2.12-.19-.25-.39-.51-.58-.76.91-1.07 1.81-2.15 2.74-3.2 3.49-3.94 3.35-3.84.19-8.09-2.49-3.35-4.58-6.99-7.04-10.79-5.76 3.75-5.61-4.19-9.47-5.28-.82.73-1.78 1.59-3.29 2.92-.97-1.46-1.83-2.76-2.72-4.11-1.86 1.47-3.24 2.56-4.63 3.65-.15-.09-.31-.18-.46-.26.68-1.53 1.36-3.07 2.04-4.61-3.18-.56-9.51 6.01-8.83 9.02 1.27-.77 2.54-1.54 3.81-2.32.16.21.33.41.49.62-.51 1.19-1.02 2.37-1.34 3.11 1.46 1.89 2.68 3.47 3.94 5.09 3.1-1.84 3.1-1.84 4.69-.34-1.66 2.58-7.15 3.11-4.37 8.07 1.32-1.06 2.61-2.1 4.24-3.4-.52 2.88-.88 4.89-1.35 7.46 2.1-1.14 3.2-1.74 4.29-2.33.14.21.29.43.43.64-1.39 1.97-2.79 3.94-4.4 6.22 1.75.43 3.07.75 4.64 1.13-.76 1.15-1.36 2.05-1.46 2.2.38 2.42.65 4.09.91 5.77-.39.14-.78.27-1.17.41-.57-.92-1.15-1.83-1.48-2.36-5.11 1-3.66 5.21-5.12 8.72zm-192.04 197.43c-.42-2.39-.68-3.87-1.05-5.91.91-1.17 1.4-3.67 3.91-4.39-.19.96-.8 1.64-1.08 2.44-.27.79-.21 1.7-.3 2.56.75-.27 1.65-.36 2.22-.84 2.75-2.28 5.5-4.59 8.07-7.07.82-.8 1.07-2.18 1.89-3.97-1.95.77-2.88 1.13-3.81 1.5.92-2.38 2.56-4.05 3.36-6.06.78-1.95.68-4.24.94-6.11.72.22 1.81.55 2.9.89.07-.25.15-.5.22-.76-.83-1.03-1.66-2.06-2.44-3.02 1.04-1.64 1.98-3.11 3.23-5.07-2.59.15-3.12 4.17-5.76 1.44 1.46-1.35 3.41-2.9.98-4.79-1.58-1.22-2.23-4.95-5.74-2.55 1.19.91 2.24 1.7 3.5 2.65-.59.93-1.13 1.79-1.76 2.79-1.62-1.73-2.92-3.28-4.39-4.64-1.55-1.43-3.16-2.85-4.95-3.92-.79-.47-2.69-.49-3.1.04-3.53 4.66-9.02 4.27-13.82 5.51-2.42.62-5.42-.2-7.45.92-4.45 2.45-8.46 5.73-11.83 8.1-.19 1.85-.29 2.78-.39 3.71-.09.91-.43 1.88-.23 2.73.68 2.94 2.28 5.13 5.04 6.7 5.73 3.26 6.44 5.56 3.85 12.42 2.29-.4 4-.7 6.11-1.08-5.69 6.51-5.73 6.54-1.08 13.48.97 1.45 2.32 2.63 3.3 3.72-.29 1.81-.57 3.54-.85 5.26.3.18.6.35.9.53 2.62-2.76 5.51-2.39 9.19.02-1.4-2.87-3.69-4.59-.68-6.44.68.95 1.36 1.89 2.12 2.94.65-.69 1.16-1.23 1.72-1.83-.88-.94-1.62-1.73-2.45-2.6 2.39-2.67 4.7-5.24 6.99-7.79-1.23-1.57-2.35-3.01-3.48-4.45.3-.24.6-.49.91-.73 1.43 1 2.88 1.99 5.29 3.67zm201.91-23.41c-1.32-1.25-2.41-2.3-3.23-3.07.79-1.98 1.43-3.57 2.19-5.46-2.09.68-3.41 1.11-4.72 1.53-.25-.44-.49-.87-.74-1.31 2.81-2.64 5.46-5.49 8.49-7.84 1.81-1.4 1.48-2.04.15-3.08-1.85.71-2.98 4.14-5.49 1.09.92-1.24 1.77-2.39 2.74-3.69-1.72-2.16-3.36-4.22-5.07-6.36-1.27 1.16-2.31 2.11-3.46 3.16-3.65-2.46-7.13-6.61-10.82-1.58.72 4.43 1.37 8.43 2.04 12.52-3.93 3.77-5.51 3.77-9.6.11-.72-.65-1.84-.86-3.07-1.41.79 2 1.33 3.35 1.86 4.7-.29.1-.58.2-.87.3-1.04-.8-2.09-1.6-3.38-2.58-1.84 2-3.54 3.86-5.25 5.72.29.3.58.6.87.9 1.25-.6 2.49-1.2 3.74-1.79.54 1.26 1.09 2.52 1.63 3.77 3.51-1.77 4.07 2.56 6.58 3.44-.87 1.57-1.57 2.82-2.55 4.59 3.32 3.39 6.7 6.85 10.01 10.24-.83 1.16-1.7 2.38-2.57 3.6.3.23.61.46.91.69.85-.54 1.7-1.08 2.55-1.62 1.35 1.03 2.49 1.93 3.65 2.8 1.23.92 2.48 1.81 3.68 2.68 4.24-4.27 4.52-4.2 7.51 1.37.46-.75.94-1.75.63-2.31-2.14-3.92-1.73-6.01 2.44-7.93 2.48-1.14 3.41-2.52 2.59-5.08-5.55 2.97-5.55 2.97-6.77 1.99 1.16-.88 2.29-1.73 4.02-3.04-1.76-1.23-3.02-2.12-4.35-3.05 1.39-1.49 2.43-2.64 3.66-4zm-203.17-58.48c-2.26 1.21-3.65 1.97-5.05 2.72-.22-.36-.45-.73-.67-1.09 1.24-.95 2.49-1.9 3.85-2.93-.74-1.03-1.5-2.09-2.36-3.3-1.41.82-2.6 1.51-3.75 2.18-.9-.96-1.63-1.76-2.51-2.7-1.95 2.21-3.79 4.29-5.78 6.54 1.54 1.76 2.96 3.39 4.39 5.03 1.34-1.21 2.38-2.16 3.65-3.3 2.61 3.69 5.04 2.19 7.25-.04.57-.58.57-1.72.98-3.11zm151.58 80.27c.37.28.75.56 1.12.84 2.75-2.42 5.49-4.84 8.99-7.93-4.3-.34-7.26-3.4-11.07-.87 1.21 1.36 2.29 2.57 2.99 3.37-.78 1.78-1.41 3.19-2.03 4.59zm-117.8-212.58c2.65-2.43 4.93-4.35 6.98-6.5.62-.65.6-1.9.87-2.88-1.03-.08-2.2-.5-3.08-.17-4.41 1.63-5.06 2.96-4.77 9.55zm121.36 240.3c-3.3-2.87-5.78-.25-8.7.5.83 1.53 1.55 2.85 2.41 4.43 2.2-1.73 4.18-3.28 6.29-4.93zm-91.77-170.59c-.98-1.19-1.94-2.37-2.82-3.44 1.2-1.57 2.21-2.9 3.22-4.22-.32-.29-.64-.58-.95-.86-1.63 1.21-3.26 2.42-4.84 3.59 2.72 6.01 2.72 6.01 5.39 4.93zm91.88 146.81c.4.12.8.25 1.21.37 4.73-4.32 4.73-4.32 1.68-7.27-1.03 2.46-1.96 4.68-2.89 6.9zm64.99-143.14c-1.42-2.65-2.7-1.29-3.98-.11-1.25 1.15-3.22 2.13-.74 4.22 1.59-1.38 3.17-2.76 4.72-4.11zm-252.68-70.06c1.63-1.44 3.1-2.75 4.57-4.05-.11-.33-.21-.67-.32-1-.92.19-2.09.09-2.69.63-1.14 1.01-3.5 1.75-1.56 4.42zm67.83 58.35c-.28-.19-.57-.39-.85-.58-1.39 1.25-2.78 2.5-4.88 4.38 1.71.23 3.02.73 3.28.39 1-1.25 1.66-2.77 2.45-4.19zm-74.34-131.61c-.26.25-.53.49-.79.74.82 1.71 1.63 3.42 2.45 5.13.38-.03.76-.05 1.14-.08.07-.99.53-2.22.11-2.93-.66-1.14-1.91-1.93-2.91-2.86zm136.02 103.63c-1.89 1.21-3.73 2.38-5.56 3.55.37.34.73.69 1.1 1.03 1.49-1.53 4.65-1.52 4.46-4.58zm120.09 218.41c-1.23-.22-2.6-.47-4.98-.9 1.7 2.15 2.76 3.5 4.23 5.36.34-2.05.51-3.1.75-4.46z"/><path d="m193.4 190.83c2.24-2.49 4.35-4.84 7.13-7.92-.16 2.23-.28 3.87-.44 6.16.21.23.94 1.04 2.16 2.38-3.29-.22-6.06-.42-8.85-.62z"/><path d="m139.41 151.07c1.01 1.55 1.6 2.46 2.21 3.41-2.35 2.14-4.6 4.18-7.46 6.79-.49-5.04 3.53-6.6 5.25-10.2z"/><path d="m222.38 202.03c4.97-2.82 5.03-2.98 3.09-7.71 1.42.9 2.57 1.63 3.88 2.46.68-.78 1.37-1.58 2.13-2.46.1 2.83-5.11 7.47-9.1 7.71z"/><path d="m183.04 168.04c-1.09.98-2.13 1.91-3.45 3.09-1.57-3.72 1.59-3.99 3.36-5.55 1.43 1.87 2.75 3.61 4.07 5.34-.25.24-.5.48-.75.72-.98-1.1-1.97-2.2-3.23-3.6z"/><path d="m156.54 246.88c3.91.4 3.91.4 5.43-4.83.14 1.09.78 2.52.32 3.2-.95 1.4-2.39 2.55-3.84 3.47-.41.26-1.55-.65-2.35-1.02.14-.28.29-.55.44-.82z"/><path d="m261.88 178.08c-.62-1.19-1.05-2.02-1.6-3.08 1.85-.69 3.51-1.31 5.17-1.93.24.32.48.64.73.95-1.35 1.27-2.7 2.55-4.3 4.06z"/><path d="m263.34 148.46c-1.67 1.45-3.35 2.9-5.02 4.35.13-3.04 1.3-5.02 4.05-5.46.32.37.65.74.97 1.11z"/><path d="m206.4 190.73c1.22-1.65 2.44-3.31 3.78-5.13.71.79 1.27 1.41 2.11 2.34-1.86 1.21-3.56 2.32-5.25 3.42-.21-.21-.43-.42-.64-.63z"/><path d="m170.49 216.17c-2.1 1.6-3.82 2.91-5.66 4.31-.31-2.97 2.66-5.44 5.66-4.31z"/><path d="m135.76 171.8c1.1-1.4 2.2-2.8 3.3-4.2.48.36.95.72 1.43 1.08-1.08 1.46-2.15 2.93-3.23 4.39-.51-.43-1.01-.85-1.5-1.27z"/><path d="m251.8 187.33c-.3-2.05 1.14-3.58 4.3-3.25-1.64 1.23-3.06 2.31-4.3 3.25z"/><path d="m117.75 150.83c-1.4-1.12-2.41-1.93-3.34-2.67 1.8-.95 3.05-1.62 4.46-2.36-.32 1.42-.64 2.88-1.12 5.03z"/><path d="m202.17 232.12c-1.74 2.2-3.48 4.4-5.22 6.6-.42-.33-.84-.66-1.26-.99 1.9-2.05 3.79-4.11 5.69-6.16.26.18.52.36.79.55z"/><path d="m263.92 169.52c.4-1.31.71-2.31 1.02-3.32.23-.05.45-.09.68-.14.22.65.81 1.67.6 1.88-1.22 1.2-2.6 2.25-4.03 3.18-.11.08-1.02-1.05-2.11-2.21 1.72.28 2.6.42 3.84.61z"/><path d="m157.1 129.24c-.53 1.11-1.04 2.23-1.66 3.29-.04.06-.96-.4-1.47-.61.55-1.12 1.1-2.25 1.65-3.37.49.23.99.46 1.48.69z"/><path d="m233.94 113.57c-.15.79-.03 1.97-.5 2.29-.93.65-2.19.83-3.31 1.2-.17-.4-.34-.79-.51-1.19 1.16-.87 2.32-1.74 3.48-2.6z"/><path d="m187.38 177.05c-1.23 1.77-2.47 3.55-3.88 5.58-.75-.94-1.21-1.51-1.52-1.91 1.62-1.44 3.13-2.8 4.65-4.15.25.16.5.32.75.48z"/><path d="m69.64 201.32c1.42-1.24 2.79-2.55 4.32-3.64.24-.17 1.18.63 2.23 1.23-2.31 1.37-4.02 2.39-5.74 3.41-.27-.33-.54-.66-.81-1z"/><path d="m315.86 134.23c1.79-1.35 3.33-3.28 6.34-1.83-1.92.94-3.84 1.88-5.76 2.81-.19-.32-.39-.65-.58-.98z"/><path d="m310.43 309.45c-3.95-.08-2.12 5.97-7.26 3.73 1.05-1.82 2.07-3.59 3.25-5.63 1.22.59 2.13 1.02 4.01 1.9z"/></g></svg>