<svg enable-background="new 0 0 400 400" viewBox="0 0 400 400" xmlns="http://www.w3.org/2000/svg"><g fill="#010100"><path d="m216.65 122.75c-3.27 3.85-6.98 5.34-11.07 5.59-7.22.43-14.04 2.22-20.81 4.73-5.42 2.02-11.14 3.23-16.77 4.63-1.62.4-2.21.94-2.07 2.67.8 9.59 1.41 19.19 2.29 28.78.12 1.34 1.04 2.9 2.08 3.8 3.77 3.27 8.41 4.6 13.29 4.9 7.26.44 13.75 2.94 19.6 7.1 3.16 2.24 6.46 3.1 10.33 3.01 3.77-.09 7.61.29 11.31 1.02 2.14.42 4.07 1.93 6.29 3.05-4.26 5.45-8.92 8.24-15.43 7.76-7.25-.53-14.55-.32-21.78-.97-3.58-.33-7.09-1.75-10.57-2.9-4.75-1.57-9.66-2.89-14.07-5.16-4.88-2.52-10.09-4.92-13.2-9.87-.67-1.07-1.17-2.51-1.11-3.75.88-15.87-1.9-31.45-3.61-47.11-1.04-9.56-1.85-19.16-2.58-28.75-.21-2.81-.89-4.7-4.1-4.82-4.67-.18-8.12-2.93-11.42-5.79-1.85-1.6-3.76-2.23-6.13-1.84-1.43.24-2.93.6-4.33.4-4.96-.7-7.27 2.62-9.48 6.04-2.11 3.27-1.67 5.7.52 8.9 6.1 8.96 15.33 14.23 23.68 20.56 1.51 1.15 3.11 2.26 4.33 3.68 1.7 1.97.96 4.15-1.56 4.13-4.07-.03-8.17-.56-12.19-1.25-3.06-.53-5.99-1.85-9.05-2.43-4.1-.78-6.84 1.28-7.18 5.43-.39 4.66.53 8.97 3.56 12.86 4.13 5.29 9.08 9.5 14.7 13.09 3.39 2.17 6.48 4.77 6.68 9.28-3.53 1.76-6.12.87-8.87-1.6-3.73-3.36-7.94-6.18-11.93-9.25-9.32-7.17-14.75-16.18-14.22-28.42.64-14.85 1.09-29.71 1.19-44.57.05-7.02-1.41-14.05-1.25-21.06.18-7.66.36-15.62 2.56-22.84 1.93-6.31 6.64-11.83 12.5-15.62.9-.58 3.28.18 4.33 1.08 1.06.91 2.21 3.2 1.76 4.12-2.72 5.56-2.6 11.28-2.44 17.25.12 4.51-1.34 9.05-1.79 13.61-.15 1.5.16 3.61 1.13 4.57 7.3 7.23 14.72 14.34 22.31 21.26 2.29 2.09 5.14 1.6 7.78-.09 4.35-2.77 5.82-2.7 7.66 2.05 2.15 5.56 3.52 11.48 4.62 17.36.77 4.13.66 8.45.7 12.68.04 4.65.81 5.43 5.31 5.6 9.8.36 18.9-3.06 28.29-4.93 4.52-.9 9.25-1.11 13.86-.94 2.07.07 4.07 1.84 6.35 2.97z"/><path d="m213.59 156.47c8.85-2.24 17.54-4.31 26.61-3.15 1.76.23 3.62.5 5.18 1.26 7.43 3.66 15.36 3.72 23.32 3.4 5.76-.23 8.83-3.31 8.36-9-.47-5.77-1.83-11.46-2.7-17.2-1.57-10.26-3.07-20.54-4.59-30.81-.18-1.2-.29-2.41-.44-3.71-3.13-.54-5.56-.02-7.63 2.41-4.27 5-8.76 9.82-13.06 14.8-2.11 2.44-8.38 3.66-10.67 1.62-1.33-1.18-1.52-2.86.02-4.38 5.02-4.94 9.56-10.46 15.08-14.75 7.41-5.77 9.55-12.86 7.87-21.59-.44-2.29-1.16-4.55-2.01-6.73-1.51-3.86-4.81-5.94-8.92-5.43-3.92.49-7.53 1.59-9.98 5.27-2.85 4.28-5.92 8.44-9.27 12.34-1.92 2.23-4.41 4.12-6.97 5.6-2.44 1.4-4.94-.63-4.26-3.35.64-2.56 1.46-5.2 2.83-7.43 6.01-9.83 12.12-19.6 18.48-29.21 2.1-3.18 3.06-6.32 2.56-10.03-.23-1.74-.19-3.51-.29-5.56 4.88.32 8.16 2.69 10.75 6.03 1.77 2.29 3.14 4.89 4.74 7.31 4.63 6.99 9.48 13.84 13.9 20.96 4.56 7.35 8.33 15.27 9.41 23.86.8 6.34.04 12.91-.36 19.36-.36 5.93.4 11.68 1.03 17.55.71 6.57 3.12 12.41 4.53 18.63 1.31 5.78-.24 11.33-2.48 16.65-.37.87-1.56 1.51-2.51 1.99-3.98 2.03-7.91 4.23-12.07 5.84-3.99 1.55-5.34 4.54-5.62 8.29-1.37 18.18-2.94 36.36-3.78 54.56-.23 4.95 1.75 10.02 2.88 15 .88 3.9 2.27 7.71 2.93 11.64.51 3.08-1.3 4.99-4.75 5.64-2.9-8.16-5.91-16.19-8.6-24.33-1.67-5.04-2.42-6.48-8.58-4.5-9.29 2.99-18.72 2.77-28.24 2.55-3.77-.09-7.58.34-11.32.85-2.87.39-5.51 1.28-7.5 3.87-1.62 2.1-3.87 3.98-6.96 2.53-2.85-1.34-3.26-3.97-3.45-6.76-.22-3.17.7-5.43 3.62-7.21 5.95-3.63 12.37-4.99 19.2-4.98 11.96.01 23.92.6 35.8-1.6 2.81-.52 4.77-1.5 5.26-4.18 1.7-9.43 3.01-18.94 4.84-28.34 1.3-6.66.04-12.83-2.49-18.87-.54-1.29-1.78-2.32-2.84-3.33-.54-.51-1.45-.61-2.08-1.05-7.28-4.99-15.22-4.76-23.43-3.23-7.6 1.39-10.54-.98-11.35-9.1z"/><path d="m137.85 300.04c-2.19 7.8 3.19 11.38 7.69 14.93 3.36 2.65 7.71 4.01 11.43 6.25 2.04 1.23 3.9 2.93 5.47 4.75 1.41 1.64.68 3.54-1.38 3.7-2.56.2-5.51.23-7.72-.84-6.01-2.93-11.78-6.36-17.5-9.85-1.85-1.13-2.86-1.23-4.51.32-2.85 2.67-5.95 5.1-9.14 7.35-2.05 1.44-4.45 2.38-7.24 3.83.5-6.02.95-11.05 6-14.43 1.51-1.01 2.73-3.03 3.27-4.84 2.48-8.2 3.27-16.66 2.68-25.2-.11-1.66-.86-3.48-1.84-4.85-4.84-6.68-5.98-13.86-3.27-21.6 2.22-6.32 4.52-12.61 7.04-18.81.61-1.49 1.99-3.24 3.41-3.74 8-2.76 16-5.67 24.24-7.49 3.7-.82 7.98.52 11.87 1.43 1.11.26 2.39 2.42 2.46 3.77.06 1.25-1.16 3.43-2.22 3.72-6.63 1.84-13.38 3.23-20.08 4.83-2.27.54-4.59 1.03-6.71 1.95-4.92 2.14-6.76 5.39-6.49 10.72.12 2.46-.11 4.99.41 7.35.31 1.42 1.6 2.83 2.82 3.73.45.33 2.18-.58 2.99-1.31 6.45-5.81 14.07-9.07 22.59-10.13 2.15-.27 4.46.65 6.68 1.09 1.84.37 3.64 1.08 5.49 1.23 2.71.22 4.34 1.4 5 4.52-5.38.75-10.64 1.35-15.85 2.26-6.31 1.1-10.98 4.87-14.36 10.1-2.12 3.28-1.44 5.63 1.86 7.85 3.98 2.68 8.19 5.05 12.08 7.85 1.93 1.39 3.84 3.2 4.94 5.26 1.64 3.08.46 4.63-3.01 4.48-7.04-.3-14.06-.84-21.1-1.03-2.75-.05-5.5.58-8 .85z"/><path d="m271.8 314.8c7.47-2.02 13.81-9.19 13.61-15.61-.07-2.15-.98-4.58-2.25-6.33-3.49-4.78-7.39-9.27-11.1-13.89-.41-.51-.67-1.13-1.28-2.2 1.37-.28 2.59-.94 3.53-.66 3.95 1.18 7.99 2.29 11.66 4.1 5.43 2.67 8.08 7.38 7.42 13.48-.52 4.88-1.31 9.75-2.36 14.54-.46 2.1-1.68 4.1-2.84 5.97-4.21 6.73-8.64 13.32-12.72 20.12-.78 1.3-.9 3.54-.36 5 2.82 7.65 5.96 15.17 8.95 22.76.65 1.66 1.29 3.36 1.61 5.1.67 3.62-3.17 7.99-6.7 7.66-.64-.06-1.38-.71-1.79-1.29-1.48-2.09-3.05-4.17-4.2-6.44-4.2-8.36-9.1-16.47-10.69-25.9-.43-2.57-2.42-2.84-4.19-3.05-11.49-1.4-19.27-8.75-26.82-16.5-.7-.72-1.3-1.54-1.9-2.35-.25-.34-.38-.78-.68-1.41 4.44-1.5 8.56-.66 12.43 1.13 3.23 1.49 6.18 3.56 9.27 5.35 4.75 2.76 7.82 1.63 8.75-3.77.59-3.46.26-7.1.06-10.65-.05-.92-1.06-1.89-1.83-2.63-3.39-3.26-7-6.3-10.23-9.7-1.81-1.91-3.22-4.28-4.41-6.64-.54-1.07-.61-3.45-.03-3.79 1.47-.87 3.4-1.06 5.18-1.23.63-.06 1.43.62 1.99 1.13 5.31 4.81 10.61 9.63 15.83 14.53.85.8 1.36 2.02 1.85 3.13 1.45 3.27 2.79 6.57 4.24 10.04z"/></g><path d="m377.9 391.2c-.2.3-.4.5-.6.8-.7-.6-1.4-1-2.2-1.5.2-.3.4-.5.5-.8.6.4 1.4.8 2.3 1.5zm-1.8 6.1c-.2-.2-.5-.4-.9-.6.4-.6.8-1.2 1.2-1.9s.7-1.3.9-1.9c.3.3.5.5.8.7-.7 1.3-1.4 2.6-2 3.7zm2.2-9c-.3.3-.5.5-.6.8-.6-.6-1.3-1.1-2-1.5.3-.3.5-.5.6-.7.6.5 1.3.9 2 1.4zm.3.2v-.9h2 4.5c-.3 1.3-.6 2.5-1 3.6s-.9 2.1-1.4 3c.4.5 1 1 1.6 1.4s1.2.8 1.9 1.1c-.3.2-.5.4-.8.8-.4-.3-1-.7-1.6-1.2s-1.2-1.1-1.6-1.6c-.5.6-1.1 1.1-1.7 1.6s-1.4.9-2.1 1.4c-.1-.3-.3-.5-.7-.8.6-.2 1.2-.5 1.9-1s1.4-1.1 2-1.8c-.5-.8-.9-1.6-1.2-2.5s-.6-2-.8-3.2c-.4.1-.7.1-1 .1zm2.5 2.7c.3 1 .7 1.7 1 2.2.3-.5.6-1.1 1-2s.6-1.9.9-3h-3.2-.4c.1.9.3 1.8.7 2.8z" fill="#fcfbfa"/><path d="m396.5 388.5v1.5 3.6h1.5v.9c-.4 0-1 0-1.7 0h-7.9c-.5 0-.9 0-1.2 0v-.9h1.3v-3.5c0-.7 0-1.2 0-1.6h2.4c0-.8 0-1.4 0-1.7h1c0 .3-.1.8-.1 1.7h1.5c0-.8 0-1.4 0-1.7h1c0 .3-.1.9-.1 1.7zm-8.2 9.2c-.2-.3-.5-.5-.8-.8.8-.3 1.4-.6 1.9-.9s1-.7 1.4-1.1c.3.3.6.5.9.8-1.6 1-2.8 1.6-3.4 2zm2.6-6.8v-1.6h-1.5v1.6zm0 2.7v-1.9h-1.5v1.9zm2.4-2.7v-1.6h-1.5v1.6zm0 2.7v-1.9h-1.5v1.9zm.2 2 .7-.8c.4.2.9.5 1.6.8s1.3.7 1.8 1c-.3.3-.5.5-.8.8-.4-.3-1.5-1-3.3-1.8zm2-4.7v-1.6h-1.4v1.6zm0 2.7v-1.9h-1.4v1.9z" fill="#fcfbfa"/></svg>