<svg enable-background="new 0 0 400 400" viewBox="0 0 400 400" xmlns="http://www.w3.org/2000/svg"><path d="m6.8 9.5c.6.3 1.3.7 2.1 1.1-.4.4-.7.8-.9 1.2-.7-.4-1.3-.8-1.8-1.1s-1.1-.6-1.6-.8c.2-.4.5-.8.7-1.2.4.2.8.5 1.5.8zm.9 6.9c-.3.6-.5 1.1-.7 1.7s-.4 1.1-.6 1.7c-.6-.4-1.1-.7-1.6-1 .7-1 1.2-1.8 1.5-2.4.3-.5.6-1.1.8-1.7.3-.6.5-1.2.8-1.8.3.3.8.6 1.3.8-.7 1.3-1.2 2.2-1.5 2.7zm.1-11c.4.3 1 .7 1.7 1.1-.5.2-.8.6-1.1 1.1-.5-.6-1-1-1.4-1.2s-.9-.6-1.5-.8c.2-.4.5-.7.9-1.1.5.3.9.6 1.4.9zm10.5 13.1c1 .4 2 .6 3.1.7-.4.4-.7.8-.8 1.3-.9-.2-1.9-.6-3-.9-1-.4-2-.9-2.8-1.6-.5.4-1.1.9-1.9 1.3s-1.9.9-3.3 1.2c-.1-.3-.5-.8-1.1-1.3 1 0 2.1-.3 3.2-.8 1.2-.5 1.9-1 2.3-1.7h-3.2c-.4 0-1 0-2 .1v-1.2c1 0 1.7.1 2 .1h3.3v-1h-2.3c-.2 0-.9 0-2 .1v-1.2c1.2 0 1.9.1 2 .1h2.3v-.8h-4.1c0-.7.1-1.2.1-1.6 0-.5 0-1.1-.1-1.8h4.1v-.7h-2.5c0-.6.1-1.1.1-1.6v-.6h-.5c-.4 0-1 0-1.8.1v-1.3c1.2 0 1.9.1 2.1.1h.2c0-.3 0-.8-.1-1.4h1.4c0 .6-.1 1-.1 1.4h3.4c0-.4 0-.8-.1-1.3h1.5c0 .4-.1.9-.1 1.3.7 0 1.5 0 2.5-.1v1.2c-1 0-1.8-.1-2.5-.1v.6c0 .3 0 .8.1 1.5h-2.5v.8h4.1c0 .7-.1 1.3-.1 1.8s0 1 .1 1.5h-4.1v.8h1.4c.8 0 1.8 0 2.9-.1v1.2c-1 0-1.9-.1-2.8-.1h-1.5v1h3.2c.3 0 1 0 2.1-.1v1.2c-1.1 0-1.8-.1-2.1-.1h-3.4l-.1.1c1.4 1 2.4 1.5 3.4 1.9zm-4.1-6.7v-1.3h-2.7v1.3zm2.2-4.1v-1.1h-3.4v1.1zm1.9 4.1v-1.3h-2.8v1.3z" fill="#fafbfa"/><path d="m37 6.7v2.3 5.4c1 0 1.8 0 2.2-.1v1.3c-.6 0-1.5-.1-2.5-.1h-11.9c-.7 0-1.3 0-1.8.1v-1.3c.5 0 1.1.1 2 .1v-5.2c0-1 0-1.8-.1-2.5h3.7c0-1.3 0-2.1-.1-2.5h1.5c0 .4-.1 1.3-.1 2.5h2.2c0-1.2 0-2.1-.1-2.6h1.5c0 .4-.1 1.3-.1 2.6zm-12.3 13.7c-.3-.4-.7-.8-1.1-1.1 1.1-.4 2.1-.9 2.9-1.3.8-.5 1.5-1 2.1-1.6.4.4.9.8 1.3 1.1-2.5 1.4-4.2 2.4-5.2 2.9zm3.9-10.1v-2.4h-2.2v2.4zm0 4.1v-2.9h-2.2v2.9zm3.5-4.1v-2.4h-2.2v2.4zm0 4.1v-2.9h-2.2v2.9zm.4 2.9 1-1.1c.6.3 1.4.7 2.5 1.3s2 1.1 2.7 1.5c-.4.4-.8.8-1.1 1.3-.8-.8-2.5-1.7-5.1-3zm3.1-7v-2.4h-2.1v2.4zm0 4.1v-2.9h-2.1v2.9z" fill="#fafbfa"/><g fill="#010103"><path d="m165.92 25.72c6.24 2.67 10.86 6.67 12.61 13.41 1.52 5.81 3.76 11.27 8.17 15.53.95.92 2.36 1.71 3.65 1.89 9.42 1.25 18.88 2.25 28.31 3.5 2.74.36 5.44 1.15 8.1 1.95 8.65 2.6 17.33 5.1 25.87 8.03 7.7 2.64 15.49 5.24 22.79 8.8 16.66 8.12 32.43 22.22 27.81 50.34-.56 3.42-.58 6.92-1.16 10.34-.28 1.62-1.36 3.1-1.91 4.7-.39 1.12-.81 2.38-.67 3.52.36 2.97 1.33 5.88 1.5 8.85.82 14.08 1.27 28.16-.75 42.21-.37 2.57-.11 5.41.56 7.93 4.32 16.29 6.22 32.94 7.97 49.63 1.43 13.67 5.32 26.71 10.89 39.26.49 1.1 1.34 2.05 2.11 2.99 10.49 12.86 19.97 26.42 27.99 40.95 2.23 4.03 3.75 8.45 5.31 13.22-5.97-3.47-10.34.2-14.89 2.49-1.69.85-2.76.62-4.12-.57-4.73-4.12-9.68-7.98-14.32-12.18-4.63-4.2-7.31-9.89-8.42-15.74-3.06-16.13-11.21-30.33-16.49-45.6-2.84-8.24-6.26-16.27-9.14-24.5-1.16-3.33-1.98-6.88-2.27-10.39-2.76-33.36-4.75-66.75-5.1-100.24-.08-8.17-.3-16.34-.73-24.5-.12-2.22-.81-4.66-1.98-6.54-4.97-8.03-10.74-15.41-18.41-21.14-6.53-4.87-13.82-7.77-21.87-8.68-13.77-1.56-27.58-2.84-41.34-4.52-17.3-2.11-34.38-.51-51.42 2.38-3.31.56-6.6 1.25-9.92 1.71-7.83 1.09-15.31 3.08-21.97 7.57-1.29.87-2.73 1.53-4.1 2.29-5.76 3.2-12.53 5.39-17.01 9.88-4.47 4.49-6.83 11.18-9.79 17.07-5.82 11.55-12.58 22.39-21.67 31.71-.91.94-1.29 3.06-.98 4.42 1.61 7.08 3.38 14.14 5.38 21.12 1 3.46 1.22 6.77.14 10.18-.93 2.95-.78 5.78.11 8.82 3.88 13.15 4.25 26.66 3.82 40.25-1.26 39.26-2.49 78.53-3.73 117.79-.18 5.79-1.23 11.3-4.48 16.26-1.79 2.73-4.19 4.13-7.38 3.45-3.38-.71-7.1-1.48-7.75-5.72-.41-2.69-.75-5.67-.02-8.21 1.94-6.79 2.68-13.56 1.77-20.55-1.09-8.33.34-16.52 1.77-24.67 2.33-13.29 2.62-26.69 2.71-40.13.13-19.04.45-38.08-2.71-56.94-2.68-15.99-5.81-31.91-8.32-47.92-2.39-15.22-.19-30.1 4.59-44.64.3-.91.89-1.8 1.54-2.52 8.38-9.32 16.74-18.66 25.23-27.89 8.2-8.91 17.74-15.94 28.96-20.73 16.14-6.89 32.17-14.03 48.21-21.13 5.53-2.44 9.38-6.77 12.31-11.9.67-1.18.98-2.81.83-4.16-.52-4.81 1.18-8.8 3.81-12.73z"/><path d="m182.75 184.63c2.5-.28 4.25-.47 6.41-.71-.52 4.31-1.29 8.36-1.42 12.43-.09 2.79 0 5.94 1.2 8.35 9.08 18.34 22.2 33.08 39.61 44.07 6.11 3.85 12 8.25 17.24 13.19 3.21 3.02 5.1 7.5 7.32 11.46.36.65-.32 2.56-1.07 3.03-4.11 2.59-8.52 3.2-13.09 1.1-7.3-3.36-14.39-6.81-20.36-12.6-7.56-7.34-16.41-13.14-26.14-17.37-6.34-2.76-12.99-3.39-19.67-1.46-2.4.69-4.73 1.95-6.81 3.37-18.85 12.81-38.53 23.94-60.57 30.35-2.15.62-4.46 1.57-6.39-.95-1.97-2.57-3.4-5.2-1.65-8.28 1.46-2.56 2.92-5.44 5.16-7.19 9.78-7.63 19.99-14.72 29.76-22.36 5.71-4.46 11.01-9.47 16.28-14.45 7.24-6.85 9.69-16.06 10.85-25.4 1.2-9.62 1.61-19.38 1.7-29.08.11-12.11 1.09-23.94 7.33-34.66 1.73-2.96 3.95-5.69 6.29-8.21.78-.85 2.75-1.24 3.94-.94 3.44.88 7.89 1.3 9.8 3.65 1.77 2.17.89 6.59 1 10.03.32 9.62.6 19.23.74 28.85.02 1.45-.52 3.07-1.27 4.34-1.78 3.04-3.86 5.94-6.19 9.44zm5.15-38.32c-.96-1.24-1.93-2.49-2.96-3.83-1.55 1.13-2.85 2.07-4.12 2.99 2.13 3.28 4.32 3.7 7.08.84z"/></g></svg>