<svg enable-background="new 0 0 400 400" viewBox="0 0 400 400" xmlns="http://www.w3.org/2000/svg"><path d="m374.8 390.4.4-.4c.7.5 1.3 1 1.8 1.4l-.5.5c-.5-.6-1.1-1.1-1.7-1.5zm1 7.3-.6-.3c.5-1.4 1.1-2.8 1.5-4.3.2.1.4.2.6.3-.5 1.3-1 2.8-1.5 4.3zm-.4-10.3.4-.4c.4.3 1 .8 1.7 1.4l-.5.5c-.4-.5-1-1-1.6-1.5zm2.5.3h1.7v-1h.6v1h3.5v-1h.6v1h1.8v.5h-1.8v1.4h-2v1h3.2v2h-3.2v.9h3.3v.5h-3.4c0 .3-.1.6-.1.9h4v.5h-3.7c.7.9 1.9 1.5 3.8 1.7-.1.2-.2.4-.3.6-2.1-.4-3.5-1.1-4-2.1-.4 1-1.8 1.7-4 2.2-.1-.2-.2-.4-.3-.6 2.1-.4 3.4-1 3.8-1.8h-3.4v-.5h3.6c.1-.3.1-.6.2-.9h-3.3v-.5h3.4c0-.3 0-.6 0-.9h-3.2v-2h3.3v-1h-2.1v-1.4h-1.7v-.5zm1.1 3.5v1h2.7c0-.3 0-.4 0-.4 0-.1 0-.2 0-.2 0-.1 0-.2 0-.3h-2.7zm1.2-3v.9h3.5v-.9zm4.7 3h-2.6v.6.4h2.6z" fill="#fbfcfa"/><path d="m393.6 386.7h.6v1.5h2.7v6.1h1.1v.6h-11v-.6h1.1v-6.1h2.7v-1.5h.6v1.5h2.1v-1.5zm-2.7 8.8.4.6c-1.2.6-2.5 1.3-3.8 1.9-.1-.2-.2-.4-.3-.6 1.2-.6 2.5-1.2 3.7-1.9zm-2.2-6.7v2.4h2.1v-2.4zm0 3v2.5h2.1v-2.5zm2.8-3v2.4h2.1v-2.4zm0 3v2.5h2.1v-2.5zm6 6.1c-1.4-.7-2.7-1.3-3.9-1.8l.3-.6c1.5.6 2.7 1.2 3.9 1.7zm-1.2-9.1h-2.1v2.4h2.1zm-2.1 3v2.5h2.1v-2.5z" fill="#fbfcfa"/><g fill="#010106"><path d="m164.93 43.03c1.34 3.1 2.63 5.34 3.3 7.75 2.35 8.49 3.51 17.07 1.39 25.83-.42 1.71-.59 3.54-.54 5.3.34 11.86 1.12 23.71 1.09 35.57-.05 16.89-.52 33.78-1.16 50.65-.16 4.23 1.12 7.4 4.43 9.42 4.16 2.53 8.65 4.56 13.08 6.61 5.16 2.38 10.54 4.3 15.58 6.9 2.68 1.38 4.84 3.78 7.24 5.72-.12.38-.23.75-.35 1.13-3.11 0-6.41.66-9.3-.14-5.13-1.42-10-3.79-15.02-5.63-3.34-1.23-6.71-2.48-10.18-3.27-4.11-.94-6.13.84-6.07 5.16.21 16.11.5 32.21.8 48.32.44 23.57 4.18 46.79 8.76 69.8 1.77 8.92 6.53 17.26 10.05 25.81 1.53 3.72 3.67 7.21 4.93 11 1.21 3.63 3.59 5.57 6.98 6.45 3.79.98 5.57 3.4 5.93 7.41-4.06 2.56-8.63 3.64-13.33 3.22-16.28-1.47-32.39.5-48.54 1.9-10.19.88-20.29.68-30.31-1.88-3.31-.84-3.4-3.36-3.62-5.56-.09-.89 1.9-2.46 3.22-2.9 2.4-.81 4.99-1.1 7.53-1.41 1.43-.18 2.9.05 4.36.07 9.21.12 10.12-.3 11.27-9.33 3.31-25.89 9.55-51.18 14.89-76.67 3-14.31 4.21-28.99 6.48-43.46 2.08-13.24-.91-26.27-.51-40.65-6.75 3.18-12.6 5.81-18.34 8.66-3.69 1.84-7.11 4.24-10.85 5.98-6.06 2.82-11.93 5.72-14.91 12.33-3.06-3.69-2.55-7.84 1.11-10.5 13.39-9.75 26.77-19.51 40.21-29.17 1.8-1.29 2.6-2.7 2.72-4.92 1.18-21.57 2.3-43.14 3.76-64.68.95-13.88.87-27.72-.11-41.58-.45-6.43 1.05-12.48 4.03-19.24zm-20.77 311.59c10.26 0 20.18.29 30.07-.16 3.53-.16 6.98-2.12 10.57-3.29-15.92-27.27-19.26-56.92-23.92-86.36-5.55 29.83-11.11 59.66-16.72 89.81z"/><path d="m203.68 162.55c7.66-4.23 14.88-5.96 22.43-6.22 10.95-.37 21.85-.5 32.6-3.39 8.48-2.28 15.6 4.33 14.38 12.96-1.02 7.17-3.08 14.2-4.04 21.38-1.37 10.31-2.29 20.68-3.16 31.04-.82 9.67-4.31 18.43-8.43 27.03-2.42 5.04-4.56 10.22-7.33 15.06-1.92 3.35-4.76 6.15-7.05 9.3-1.43 1.97-2.95 4.01-3.79 6.25-1.18 3.14-.96 5.98 1.96 8.71 8.38 7.83 14.27 17.6 18.71 28 8.33 19.51 15.99 39.3 23.93 58.98.12.29.11.64.22 1.31-1.98.55-3.97 1.11-6.07 1.7-.36-.65-.71-1.09-.85-1.59-3.66-12.62-9.38-24.37-15.32-36.02-5.68-11.15-11.02-22.48-17.14-33.38-2.69-4.79-6.79-8.83-10.52-12.97-3.36-3.73-7.62-6.1-12.63-7.14-1.4-.29-2.98-1.2-3.83-2.32-1.36-1.79-1.66-3.69.81-5.37 5.64-3.83 11.14-7.87 16.65-11.89 6.59-4.81 11.35-10.9 13.63-18.92 2.82-9.88 6.01-19.65 8.91-29.51.37-1.25.33-2.91-.2-4.08-5.01-11.1-10.08-22.17-15.37-33.14-.91-1.88-2.99-3.18-4.44-4.82-5.85-6.64-13.03-8.09-21.37-5.86-1.82.49-4.16.33-5.87-.41-2.31-.99-4.22-2.84-6.82-4.69z"/><path d="m273.33 64.82c3.55 2.54 4.73 5.94 5.05 9.47 1.25 13.56-.14 27.05-5.52 39.44-2.36 5.43-8.1 9.68-12.95 13.69-9.12 7.55-16.21 7.29-26.81 1.86-11.8-6.03-15.77-16.42-17.57-28.27-1.34-8.83-2.2-17.73-3.31-26.98 1.26-.26 2.62-.54 4.63-.96 2.91 8.55 5.76 16.98 8.64 25.39 1.8 5.27 3.12 10.8 5.59 15.74 4.81 9.6 14.28 9.9 21.94 7.14 2.58-.93 4.43-4.27 6.27-6.76 8.48-11.43 11.53-24.77 13.11-38.56.42-3.55.6-7.12.93-11.2z"/><path d="m243.78 25.05c5.2 4.64 6.84 9.85 7.14 15.57.93 18.07 1.95 36.15 2.54 54.23.19 5.65-.76 11.36-1.46 17.01-.1.84-1.6 1.91-2.62 2.14-1.71.39-4.08 1.28-4.84-1.32-.78-2.63-1.45-5.43-1.43-8.14.06-10.16.56-20.33.64-30.49.12-14.98.03-29.96.03-44.95 0-1.07 0-2.15 0-4.05z"/></g></svg>