<svg enable-background="new 0 0 400 400" viewBox="0 0 400 400" xmlns="http://www.w3.org/2000/svg"><g fill="#fafafb"><path d="m12.4 4.8-6.1 9h6v1.2h-8v-.5l6.1-8.9h-5.7v-1.2h7.6v.4z"/><path d="m14 15v-10.6h3c1.6 0 2.9.5 4 1.4s1.6 2.2 1.6 3.8-.5 3-1.6 3.9-2.4 1.5-4 1.5zm1.4-9.4v8.2h1.6c1.3 0 2.4-.4 3.1-1.1s1.1-1.8 1.1-3.1-.4-2.3-1.2-3-1.8-1-3.1-1z"/><path d="m26.1 4.4v10.6h-1.4v-10.6z"/><path d="m36.1 14.6c-.8.4-1.8.6-2.9.6-1.5 0-2.7-.5-3.6-1.4s-1.4-2.2-1.4-3.8c0-1.7.5-3.1 1.5-4.1s2.3-1.6 3.9-1.6c1 0 1.8.1 2.5.4v1.4c-.8-.4-1.6-.6-2.5-.6-1.2 0-2.1.4-2.9 1.2s-1.1 1.8-1.1 3.2c0 1.3.3 2.3 1 3s1.6 1.1 2.7 1.1c1 0 2-.2 2.7-.7v1.3z"/><path d="m37.6 14.3c0-.2.1-.5.3-.6s.4-.3.6-.3c.3 0 .5.1.6.3s.3.4.3.6-.1.4-.3.6-.4.3-.6.3c-.3 0-.5-.1-.6-.3s-.3-.4-.3-.6z"/><path d="m50.2 15h-1.6l-5.3-8.2c-.2-.2-.3-.5-.4-.7 0 .2.1.7.1 1.5v7.4h-1.4v-10.6h1.7l5.2 8.1c.2.4.4.6.4.7 0-.3-.1-.8-.1-1.5v-7.3h1.4z"/><path d="m58.6 15h-5.7v-10.6h5.5v1.2h-4.1v3.4h3.8v1.2h-3.8v3.6h4.3z"/><path d="m67.1 5.6h-3.1v9.4h-1.4v-9.4h-3v-1.2h7.5z"/></g><path d="m233.38 287.18c.99-3.86-1.31-4.91-4.15-5.58-3.12-.73-5.67-2.15-7.53-5.02-2.52-3.88-7-3.45-10.89-4.14-.44-.08-1.42.86-1.58 1.48-.82 3.16-1.99 6.36-2.05 9.56-.22 11.05.25 22.11-.17 33.14-.14 3.78-2.16 7.47-3.28 11.22-.28.95-.83 2.19-.46 2.88 1.73 3.27-.31 5.73-1.3 8.52-.71 2.01-.79 4.25-1.08 6.4-.12.86.25 1.9-.11 2.59-1.94 3.75-4.03 7.41-6.25 11.42-2.86-3.09-5.42-5.85-7.98-8.62 4.23-3.68 4.22-3.68 2.24-9.27-.18-.5-.32-1.1-.22-1.6 1.19-6.2 2.55-12.38 3.59-18.61.59-3.52.73-7.11.98-10.68.07-.99.12-2.17-.34-2.96-1.84-3.15-1.42-5.77.02-9.2 1.26-3.01.8-7.08.07-10.45-.35-1.62-2.93-3.14-4.82-3.87-1.05-.41-3.2.51-4.12 1.51-9.37 10.09-18.79 20.14-27.72 30.62-2.56 3.01-3.45 7.4-5.32 11.04-.64 1.25-1.78 2.47-3 3.16-2.02 1.14-4.38 1.6-5.18 4.32-.13.46-2.71.88-2.95.52-1.8-2.74-3.39-5.63-4.81-8.58-.21-.44.74-1.47 1.21-2.19 4.41-6.7 8.81-13.41 13.27-20.07 1.61-2.4 3.18-4.87 5.13-6.97 7.87-8.48 15.26-17.29 20.08-27.95 1.05-2.33 2.01-4.7 3.09-7.22-5.47-3.69-11.14-3.36-16.9-1.9-.63.16-1.02 1.12-1.63 1.55-1.73 1.22-3.57 2.29-5.25 3.57-1.34 1.02-2.52 2.26-4.31 3.9-2.04-.21-5.33.06-8.09-1.02-1.86-.73-2.98-3.35-4.86-5.66 6.05-5.72 11.82-11.26 17.7-16.68 1.74-1.61 3.92-2.03 6.21-.97 2.82 1.31 5.47.8 7.93-.88 2.42-1.66 4.87-2.18 7.93-2.4 3.9-.29 7.85-2.41 11.39-4.43 2.95-1.68 5.33-4.36 7.94-6.58-8.26-11.14-10.55-11.72-20.22-5.1-1.72-2.71-4.21-2.35-6.94-1.73-3.99.91-7.42 2.55-10.75 5.07-4.34 3.28-9.38 5.6-13.94 8.6-4.91 3.23-9.78 6.58-14.37 10.24-2.47 1.97-4.55 4.69-.84 7.76-3.73 4.17-4.65 9.04-4.82 14.15-.15 4.59-.48 9.17-.42 13.76.03 2.4.77 4.79 1.14 7.19.27 1.74.75 3.52.63 5.25-.66 9.15-1.52 18.29-2.22 27.44-.49 6.42-2.66 12.2-6.35 17.43-5.74 8.15-11.3 16.37-14.12 26.11-.94 3.24-3.17 5.62-6.38 6.93-2.44 1-4.52 1.1-5.7-1.88-.4-1.02-1.14-1.9-1.85-3.04 3.44-1.53 4.36-4.53 5.16-7.75 2.14-8.55 4.24-17.15 10.5-23.91.5-.54.75-1.35 1.02-2.07 2.22-5.83 4.43-11.66 6.83-18.01-.68-.51-1.84-1.38-3.14-2.35 1.48-2.28 2.74-4.22 4.31-6.66-.87-.51-1.82-1.05-2.83-1.64 1.22-1.46 2.06-2.47 3.12-3.75-2.78-2.44-1.98-5.17-.96-8.17.46-1.36-.44-3.14-.51-4.74-.08-1.68.12-3.36.11-5.04 0-1.28-.12-2.57-.22-3.85-.03-.43-.24-.86-.26-1.29-.16-3.97-.31-7.93-.44-11.9-.02-.66-.12-1.42.15-1.97 2.42-4.94 2.12-9.97.39-14.96-1.25-3.61.08-6.29 2.98-9.02-1.96-1.26-3.69-2.37-4.81-3.08 2.37-4.51 4.51-9.08 7.1-13.37 2.05-3.39 4.64-6.45 7.56-10.42 1.91 5.52 5.33 8.33 10 8.19 4.27-.13 8.86-.04 12.47-3.43 2.02-1.89 4.26-4.13 6.78-4.79 4.61-1.21 9.45-1.33 13.51-4.43.8-.61 2.79.2 4.18.54 2.68.66 4.75 0 5.61-2.73.69-2.18 2.03-2.52 4.05-2.38 2.67.18 5.37.16 8.05.01 2.58-.14 4.06-1.68 4.39-4.25.29-2.26-.19-3.73-2.93-4.15-6.74-1.04-13.42-2.46-20.14-3.58-1.45-.24-3 .1-4.95.2-1.04-3.36-4.44-3.8-7.63-4.87-2.46-.83-4.92-2.14-6.89-3.82-7.67-6.52-15.15-13.26-22.8-20.01-.65.55-1.2 1.02-2.22 1.89-.66-4.65-6.13-5.53-6.58-10.32-.19-1.98-.28-3.25 1.32-4.64 1.38-1.19 2.47-1.35 4.16-.76 5.98 2.07 10.95 5.24 15.69 9.7 4.18 3.93 9.83 6.17 14.09 10.62 3.81 3.97 9.3 6.36 14.1 9.36 2.46 1.54 4.97 3.02 7.58 4.27 2.89 1.38 5.94 2.48 8.28-1.2 2.25 1.2 4.3 2.29 6.35 3.38 3.79-3.55 3.93-7.77 1.81-11.75-1.98-3.71-1.89-7.24-.96-11 1.27-5.15.83-10.14-.67-15.21-.91-3.06-1.13-6.35-1.47-9.56-.32-2.93.75-5.27 3.74-6.66.94.76 1.91 1.67 3 2.4 2.94 1.97 4.63 4.36 3.41 8.1-.29.91-.47 2.47.02 2.92 3.18 2.83 1.14 6.13 1.25 9.28.24 6.59.38 13.27 1.71 19.68.49 2.34 3.98 4.59 6.6 5.81 2.54 1.19 5.7-1.24 7.15-3.94.91-1.7 2.18-3.31 3.6-4.63 1.78-1.65 4.24-2.72 3.59-5.83-.06-.29.1-.68.27-.94 2.81-4.25 5.23-8.86 8.61-12.6 2.15-2.38 5.68-3.55 8.66-5.12.49-.26 1.58.03 2.06.44 1.84 1.59 1.63 9.69.04 11.54-7.52 8.72-14.96 17.5-22.39 26.29-.79.93-1.41 2.03-1.96 3.12-2.41 4.81-1.48 7.09 3.46 8.76 1.9.65 3.76 1.44 5.67 2.06 4.71 1.52 6.64 5.05 6.88 9.67.05.9-.54 2.12-1.23 2.73-3.9 3.39-8.65 4.62-13.69 4.58-5.5-.04-9.66 2.29-12.96 6.59 1.35 2.55 2.54 5.19 4.12 7.58.51.78 2.12 1.41 3.06 1.23 3.15-.61 6.23-1.58 9.32-2.47 2.55-.74 5.09-2.28 7.6-2.2 4.9.14 7.94-2.23 10.72-5.72 1.1-1.38 2.68-2.37 4.25-3.32 1.82-3.86-2-6.21-3.13-9.95 3.13-2.3 6.4-4.59 9.54-7.05 1.47-1.15 2.75-2.56 4.03-3.94 4.2-4.55 8.36-9.13 13.04-14.25 2.25 5.86 3.86 10.73 5.97 15.35 2.88 6.29 6.27 12.34 9.17 18.62.94 2.03 1 4.47 1.52 6.7.77 3.31.72 7.22 2.53 9.81 6.53 9.33 7.96 20.38 11.44 30.73.49 1.46 1.03 3.07 2.05 4.14 3.29 3.45 4.65 7.54 4.62 12.16-.03 4.49 1.26 8.55 3.45 12.44.6 1.06.99 2.74.58 3.78-1.31 3.33-.41 6.13 1.44 8.8 1.95 2.82 1.96 6.33.41 8.59-1.49 2.19-4.78 3.3-7.48 4.39-.68.27-2.16-1.35-3.21-2.18-.52-.41-.84-1.06-1.33-1.51-3.29-2.97-4.4-6.53-4.24-11.03.11-3.42-.79-7.06-2.01-10.31-2.78-7.43-6.16-14.63-9.02-22.02-1.27-3.28-2.06-6.78-2.74-10.24-.39-1.97-.81-3.53-2.75-4.6-.91-.5-1.68-1.78-1.95-2.84-.78-3.02-1.32-6.11-1.85-9.2-.89-5.16-5.01-8.8-10.23-8.92-.43-.01-1.03-.03-1.26.22-2.75 3-6.16 2.31-9.41 1.49-2.61-.65-4.58.02-6.39 1.73-1.36 1.3-2.64 1.62-4.47.58-.81-.46-2.67-.2-3.36.46-4.49 4.25-9.74 6.46-15.89 7-2.97.26-6.29.79-7.13 4.48-.82 3.6.58 6.47 3.4 8.86 2.97 2.52 5.51 5.54 9.82 5.94.95.09 2.08 1.26 2.61 2.22 1.53 2.77 3.55 4.77 6.63 5.74.91.29 1.71 1 2.47 1.63 3.57 3 7.19 5.95 10.61 9.13 1.08 1.01 2.02 2.56 2.27 4 .46 2.63.39 5.35.47 8.03.07 2.17-.77 3.23-3.08 2.32-.51-.2-1.21-.58-1.58-.4-4.22 2.08-5.35-1.1-7.06-3.81-1.19-1.88-3.04-3.35-4.61-4.99-.45-.48-.96-.9-1.44-1.36-1.45-1.38-2.9-2.77-4.35-4.15-.37.21-.78.43-1.18.65zm15.76-69.2c3.45 2.47 6.31 5.15 9.7 6.68 1.85.84 4.76.18 6.8-.7.73-.31.41-3.28.38-5.03-.03-1.63-.7-3.31-.44-4.86.82-4.8.71-5.32-3.72-8.07-4.09 3.85-8.22 7.73-12.72 11.98z" fill="#010105"/><path d="m273.44 139.45c-6.54-7.27-12.91-14.48-19.45-21.53-1.27-1.37-3.18-2.13-4.8-3.17-.54-.35-1.4-.55-1.6-1.03-2.12-5.19-7.11-9.11-6.8-15.37.01-.11-.04-.22-.07-.33-1.16-4.53-4.51-8.24-4.26-13.44.1-2.02-2.26-4.45-4-6.2-3.74-3.76-4.34-8.71-5.68-13.39-.15-.54.61-1.56 1.2-2.05 1.62-1.37 3.37-2.57 5.4-4.1 4.88 5.92 9.71 11.75 14.49 17.61.32.39.44 1.02.48 1.54.82 11.21 7.07 20.03 13.02 28.88 3.12 4.63 6.83 5.08 11.54-.19 3.99-4.47 5.17-10.05 5.27-15.88.14-8.26.23-16.52.33-24.78 0-.22-.05-.47.02-.67 2.65-7.79-.5-15.91 1.39-23.83.68-2.86-.35-6.19-.9-9.25-.4-2.26 1.4-6.65 3.45-6.41 1.79.21 4.4 2.02 4.8 3.59.87 3.41 1.28 6.69 4.77 8.6.41.22.43 1.43.4 2.17-.88 19.49-3.45 38.73-8.97 57.5-.33 1.13-.74 2.52-.38 3.53 1.27 3.56.72 6.81-1.05 9.96-2.98 5.31-2.34 11.01-1.88 16.68.65 7.73.68 7.73-6.72 11.56z" fill="#010105"/><path d="m81.41 99.81c6.26-1.08 7.77-.37 9.62 5.16 1.35 4.04 3.48 8.17.78 12.53-.14.23-.15.82.01.94 3.17 2.38 1.54 5.43 1.33 8.34-.09 1.24.1 2.9.87 3.72 1.97 2.1 2.33 4.44 2.15 7.09-.47 6.78.15 13.3 3.47 19.49 1.01 1.89.96 4.61.68 6.87-.59 4.94 1.61 8.57 4.58 12.09 2.51 2.98 4.8 6.16 7.19 9.24 1.09 1.4.97 2.51-.05 4.13-2.7 4.28-3.92 8.7.06 13.17.65.73.4 2.57.05 3.75-.18.58-1.51 1.12-2.35 1.15-3.45.13-6.91.05-11.01.05 2.17-3.82-.79-5.12-2.67-7.11-1.07-1.14-1.74-2.73-2.34-4.22-.83-2.07-1.41-4.23-2.34-7.1.24-.33 1.08-1.47 2.05-2.79-3.06-3-6.81-5.57-7.17-10.56 2.62-.87 2.47-2.82 2.03-5.07-.48-2.44-.6-4.94-.93-7.4-.42-3.13-.88-6.26-1.35-9.38-.1-.65-.61-1.44-.39-1.89 1.89-3.69-.64-6.63-1.44-9.88-.51-2.08-.47-4.29-.7-6.43-.16-1.51-.27-3.04-.57-4.53-.8-3.91-2.31-7.79-2.42-11.72-.16-6.55.54-13.14.86-19.64z" fill="#010105"/><path d="m138.21 55.65c-.56 12.77.45 24.02 1.81 35.26.13 1.1.37 2.36-.01 3.32-.98 2.5-1.21 4.48.44 7.07.93 1.46-.27 4.27-.47 6.48-.16 1.78-.85 3.77-.3 5.3 2.45 6.78-1.29 12.62-2.57 18.8-.7 3.37-3.58 4.59-6.77 3.69-2.66-.75-3.74-3.53-3.57-6.64.15-2.8-.36-5.73-1.1-8.46-1.22-4.52-1.5-8.93-.55-13.54.36-1.77.05-3.77-.34-5.59-.63-2.94-.35-5.96-.69-8.77-.72-6.06.85-11.71 1.23-17.54.13-2.01-1.14-4.07-1.44-6.15-.29-2-.14-4.07-.17-6.11 0-.21.25-.47.19-.63-2.48-6.09.66-12.52-1.1-18.62-.48-1.68-1.27-3.43-2.4-4.73-2.71-3.12-1.73-6.23-.38-9.35 1.15-2.68 6.28-3.26 7.75-.78 2.03 3.45 3.99 7.03 5.36 10.77 2.12 5.77 3.7 11.72 5.08 16.22z" fill="#010105"/><path d="m143.46 129.44c6.36-2.16 10.27-6.86 13.54-12.16.92-1.49 1.56-3.18 2.12-4.85.63-1.9.39-4.58 1.64-5.71 5.83-5.29 3.49-13.49 7.4-19.48 1.45-2.23 1.62-5.48 1.83-8.3.29-4.01.13-8.05.05-12.07-.05-2.83-.14-5.46 2.46-7.57.83-.68.9-2.68.79-4.04-.28-3.34-.91-6.64-1.31-9.97-.45-3.77 1-6.12 3.78-6.28 5.12-.3 8.91 2.31 8.58 6.2-1.17 13.7-2.46 27.39-3.81 41.07-.14 1.38-.81 2.8-1.55 4.01-1.4 2.26-2.52 4.46-1.51 7.22.18.49-.23 1.23-.47 1.81-1.7 4.1-3.62 8.12-5.1 12.29-1.39 3.95-2.72 7.81-6.33 10.35-.36.25-.92.61-.92.92-.08 4.11-3.65 5.92-5.69 8.72-2.96 4.07-8.05 5.74-12.78 4.26-.67-.21-1.37-1.01-1.62-1.7-.5-1.35-.68-2.8-1.1-4.72z" fill="#010105"/></svg>