<svg enable-background="new 0 0 400 400" viewBox="0 0 400 400" xmlns="http://www.w3.org/2000/svg"><g fill="#fafafb"><path d="m12.4 4.8-6.1 9h6v1.2h-8v-.5l6.1-8.9h-5.7v-1.2h7.6v.4z"/><path d="m14 15v-10.6h3c1.6 0 2.9.5 4 1.4s1.6 2.2 1.6 3.8-.5 3-1.6 3.9-2.4 1.5-4 1.5zm1.4-9.4v8.2h1.6c1.3 0 2.4-.4 3.1-1.1s1.1-1.8 1.1-3.1-.4-2.3-1.2-3-1.8-1-3.1-1z"/><path d="m26.1 4.4v10.6h-1.4v-10.6z"/><path d="m36.1 14.6c-.8.4-1.8.6-2.9.6-1.5 0-2.7-.5-3.6-1.4s-1.4-2.2-1.4-3.8c0-1.7.5-3.1 1.5-4.1s2.3-1.6 3.9-1.6c1 0 1.8.1 2.5.4v1.4c-.8-.4-1.6-.6-2.5-.6-1.2 0-2.1.4-2.9 1.2s-1.1 1.8-1.1 3.2c0 1.3.3 2.3 1 3s1.6 1.1 2.7 1.1c1 0 2-.2 2.7-.7v1.3z"/><path d="m37.6 14.3c0-.2.1-.5.3-.6s.4-.3.6-.3c.3 0 .5.1.6.3s.3.4.3.6-.1.4-.3.6-.4.3-.6.3c-.3 0-.5-.1-.6-.3s-.3-.4-.3-.6z"/><path d="m50.2 15h-1.6l-5.3-8.2c-.2-.2-.3-.5-.4-.7 0 .2.1.7.1 1.5v7.4h-1.4v-10.6h1.7l5.2 8.1c.2.4.4.6.4.7 0-.3-.1-.8-.1-1.5v-7.3h1.4z"/><path d="m58.6 15h-5.7v-10.6h5.5v1.2h-4.1v3.4h3.8v1.2h-3.8v3.6h4.3z"/><path d="m67.1 5.6h-3.1v9.4h-1.4v-9.4h-3v-1.2h7.5z"/></g><path d="m194.81 375.15c-4.21-2.59-8.25-4.98-12.16-7.56-.92-.61-1.79-1.79-2.01-2.84-.68-3.27-1.25-6.59-1.47-9.92-.29-4.33-1.8-8-4.92-11.33-8.46 7.62-18.19 13.02-28.31 17.74-5.81 2.71-11.83 4.86-18.4 4.35-2.18-.17-4.32-.81-6.65-1.28.93-4.28 1.76-7.94 6.47-9.12 1.53-.38 3.04-1.55 4.15-2.75 7.72-8.35 17.65-13.63 26.99-19.76 4.65-3.05 9.3-6.23 13.4-9.95 3.97-3.6 5.62-8.57 5.07-14.02-.1-1.02-.89-2.61-1.67-2.84-13.06-3.78-22.77-13.12-33.63-20.45-5.09-3.43-9.21-8.4-13.45-12.97-2.89-3.11-2.67-5.17-.2-8.7.32-.46.66-.9 1-1.35 3.53-4.69 3.62-4.61 8.28-1.13 1.22.91 3.07 1 4.64 1.42 2.51.67 5.32.79 7.48 2.05 8.4 4.88 16.6 10.11 25.31 15.48 1.23-16.31.52-32.64 9.58-47.2 5.94 2.11 9.95 6.02 11.51 12.02.95 3.65 1.17 7.49 1.64 11.25.79 6.4 1.52 12.8 2.41 20.35 3.18-2.15 5.52-3.69 7.81-5.3 1.46-1.03 2.73-2.36 4.28-3.21 9.25-5.07 19.26-7.64 29.7-8.78 2.27-.25 3.78.34 4.59 2.72.79 2.31 1.99 4.47 3.18 7.09-2.88 1.83-5.71 3.56-8.44 5.41-.98.66-2.23 1.51-2.51 2.51-1.03 3.63-3.68 4.57-6.94 5.19-1.9.36-3.86 1.2-5.43 2.32-7.02 5-13.91 10.16-20.83 15.3-.89.66-1.73 1.43-2.45 2.28-2.88 3.41-2.57 6.72.41 9.99 10.68 11.72 22.96 21.16 37.61 27.5 6.31 2.73 11.17 7.34 14.2 13.7.97 2.03.84 3.3-1.18 4.72-4.84 3.4-8.53 2.6-13.39-.9-8.21-5.91-17.31-10.6-26.12-15.65-2.79-1.6-5.78-2.94-8.82-4.01-5.23-1.83-6.42-1.3-6.89 4.22-.43 5.05-.13 10.24.45 15.3.71 6.5 1.09 12.73-4.29 18.11z" fill="#010105"/><path d="m153.96 233.41c-6.53-.54-12.88-1.06-19.22-1.59-.43-.04-.89-.15-1.27-.35-9.74-5.23-19.46-10.52-29.22-15.71-5.78-3.08-9.66-7.89-11.11-14.06-1.99-8.45-2.79-17.18-4.78-25.63-3.46-14.76-.97-29.38.25-44.05 1.46-17.61 3.02-35.22 4.49-52.83.58-6.92 3.28-12.9 7.74-18.49 3.25 4.08 6.32 8.04 9.53 11.88.89 1.06 2.08 2.09 3.34 2.58 15.37 5.98 28.79 15.22 41.96 24.91 2.35 1.73 2.5 4.09 1.86 6.24-.32 1.06-2.41 1.89-3.85 2.28-9.47 2.51-18.12-.42-26.53-4.37-3.84-1.8-7.53-3.91-11.93-6.21-.93 2.92-2.32 5.66-2.6 8.5-.64 6.31-.76 12.68-1.02 19.03-.07 1.83.86 2.9 2.65 3.7 12.75 5.7 25.43 11.56 38.16 17.31 2.23 1.01 4.54 1.91 6.89 2.58 5.21 1.49 8.95 4.06 8.54 10.22-.07.97.25 1.98.42 3.2-5.54 2.78-11.39 2.95-16.93 1.07-12.25-4.16-24.31-8.88-36.44-13.37-1.04-.38-2.07-.79-3.37-1.29-1.72 9.76-1.55 19.24.76 28.66 1.59 6.51 3.34 12.99 5.08 19.47.28 1.05.76 2.13 1.42 2.97 6.29 7.97 13.85 14.18 23.79 17.09 2.03.6 4.02 1.4 5.94 2.28 5.64 2.6 7.64 7.6 5.45 13.98z" fill="#010105"/><path d="m247.44 125.21c9.43 11.53 12.4 23.65 9.74 37.2-.34 1.75-.97 3.47-1.17 5.23-.29 2.63 1.02 4.48 3.36 5.65 2.19 1.09 3.64.09 5.26-1.4 7.84-7.18 15.76-14.27 23.72-21.3 1.58-1.4 3.44-2.51 5.26-3.59 4.98-2.98 9.96-1.62 13.33 3.29 1.08 1.57.85 2.58.05 4.16-4.58 9.05-12.24 15.64-18.39 23.43-6.18 7.83-13.7 13.48-22.86 17.43-8.31 3.58-8.1 3.96-9.38 12.84-.73 5.09-1.7 10.15-2.45 15.23-.34 2.33-1.61 3.32-3.84 3.28-2.89-.05-7.24-3.33-8.03-6.17-1.93-6.89-3.96-13.75-5.6-20.71-.63-2.66-1.99-3.81-4.35-4.76-5.98-2.42-12.5-4.24-17.57-7.98-6.21-4.58-11.43-10.64-16.59-16.49-4.07-4.63-5.51-10.46-4.5-16.64.2-1.24 1.09-3.14 1.95-3.32 1.48-.31 3.58.02 4.75.94 3.88 3.03 7.21 6.79 11.22 9.59 3.6 2.52 6.68 5.18 9.59 8.6 4.55 5.36 11.27 7.72 19.33 8.62.62-7.93 1.21-15.57 1.81-23.2.52-6.57.75-13.17 1.69-19.68.46-3.31 2.23-6.4 3.67-10.25z" fill="#010105"/><path d="m260.4 59.3c-.55 4.46-1.01 8.38-5.6 11.25-11.27 7.05-22.07 14.85-33.17 22.18-2.2 1.45-3.41 3.18-3.57 5.63-.3 4.45-.53 8.91-.58 13.37-.07 5.72-3.36 8.54-8.9 7.12-1.03-.26-2.14-1.56-2.55-2.63-2.55-6.67-4.99-13.38-7.3-20.14-.78-2.29-2.03-3.74-4.27-4.73-15.25-6.78-27.74-17.36-39.47-28.97-1.92-1.9-2.69-4.05-1.8-6.69 1.36-4.02 2.56-4.73 6.51-3.24 12 4.55 23.97 9.22 35.95 13.84 1.03.4 2.08.77 3.27 1.2 3.09-5.46 3.71-11.23 3.4-17.23-.22-4.33-.69-8.71-.33-13 .39-4.71 2.94-8.55 6.89-11.79 5.1 7.06 8.27 14.66 9.19 23.13.42 3.88.37 7.81.65 11.71.25 3.36 1.09 6.66 4.66 7.85 3.6 1.2 6.74.26 9.77-2.46 7.27-6.54 15.76-9.54 25.62-7.12.53.12 1 .43 1.63.72z" fill="#010105"/></svg>