<svg enable-background="new 0 0 400 400" viewBox="0 0 400 400" xmlns="http://www.w3.org/2000/svg"><path d="m6.8 9.5c.6.3 1.3.7 2.1 1.1-.4.4-.7.8-.9 1.2-.7-.4-1.3-.8-1.8-1.1s-1.1-.6-1.6-.8c.2-.4.5-.8.7-1.2.4.2.8.5 1.5.8zm.9 6.9c-.3.6-.5 1.1-.7 1.7s-.4 1.1-.6 1.7c-.6-.4-1.1-.7-1.6-1 .7-1 1.2-1.8 1.5-2.4.3-.5.6-1.1.8-1.7.3-.6.5-1.2.8-1.8.3.3.8.6 1.3.8-.7 1.3-1.2 2.2-1.5 2.7zm.1-11c.4.3 1 .7 1.7 1.1-.5.2-.8.6-1.1 1.1-.5-.6-1-1-1.4-1.2s-.9-.6-1.5-.8c.2-.4.5-.7.9-1.1.5.3.9.6 1.4.9zm10.5 13.1c1 .4 2 .6 3.1.7-.4.4-.7.8-.8 1.3-.9-.2-1.9-.6-3-.9-1-.4-2-.9-2.8-1.6-.5.4-1.1.9-1.9 1.3s-1.9.9-3.3 1.2c-.1-.3-.5-.8-1.1-1.3 1 0 2.1-.3 3.2-.8 1.2-.5 1.9-1 2.3-1.7h-3.2c-.4 0-1 0-2 .1v-1.2c1 0 1.7.1 2 .1h3.3v-1h-2.3c-.2 0-.9 0-2 .1v-1.2c1.2 0 1.9.1 2 .1h2.3v-.8h-4.1c0-.7.1-1.2.1-1.6 0-.5 0-1.1-.1-1.8h4.1v-.7h-2.5c0-.6.1-1.1.1-1.6v-.6h-.5c-.4 0-1 0-1.8.1v-1.3c1.2 0 1.9.1 2.1.1h.2c0-.3 0-.8-.1-1.4h1.4c0 .6-.1 1-.1 1.4h3.4c0-.4 0-.8-.1-1.3h1.5c0 .4-.1.9-.1 1.3.7 0 1.5 0 2.5-.1v1.2c-1 0-1.8-.1-2.5-.1v.6c0 .3 0 .8.1 1.5h-2.5v.8h4.1c0 .7-.1 1.3-.1 1.8s0 1 .1 1.5h-4.1v.8h1.4c.8 0 1.8 0 2.9-.1v1.2c-1 0-1.9-.1-2.8-.1h-1.5v1h3.2c.3 0 1 0 2.1-.1v1.2c-1.1 0-1.8-.1-2.1-.1h-3.4l-.1.1c1.4 1 2.4 1.5 3.4 1.9zm-4.1-6.7v-1.3h-2.7v1.3zm2.2-4.1v-1.1h-3.4v1.1zm1.9 4.1v-1.3h-2.8v1.3z" fill="#fafbfa"/><path d="m37 6.7v2.3 5.4c1 0 1.8 0 2.2-.1v1.3c-.6 0-1.5-.1-2.5-.1h-11.9c-.7 0-1.3 0-1.8.1v-1.3c.5 0 1.1.1 2 .1v-5.2c0-1 0-1.8-.1-2.5h3.7c0-1.3 0-2.1-.1-2.5h1.5c0 .4-.1 1.3-.1 2.5h2.2c0-1.2 0-2.1-.1-2.6h1.5c0 .4-.1 1.3-.1 2.6zm-12.3 13.7c-.3-.4-.7-.8-1.1-1.1 1.1-.4 2.1-.9 2.9-1.3.8-.5 1.5-1 2.1-1.6.4.4.9.8 1.3 1.1-2.5 1.4-4.2 2.4-5.2 2.9zm3.9-10.1v-2.4h-2.2v2.4zm0 4.1v-2.9h-2.2v2.9zm3.5-4.1v-2.4h-2.2v2.4zm0 4.1v-2.9h-2.2v2.9zm.4 2.9 1-1.1c.6.3 1.4.7 2.5 1.3s2 1.1 2.7 1.5c-.4.4-.8.8-1.1 1.3-.8-.8-2.5-1.7-5.1-3zm3.1-7v-2.4h-2.1v2.4zm0 4.1v-2.9h-2.1v2.9z" fill="#fafbfa"/><g fill="#010103"><path d="m147.38 35.04c1.19 1.06 2.55 1.93 3.46 3.15 6.49 8.71 11.34 17.84 11.57 29.3.71 34.68 2 69.34 3.05 104.01.1 3.36 0 6.72.29 10.06.18 2.14-.76 3.26-2.39 4.31-4.24 2.74-9 3.45-13.82 3.29-18.06-.61-35.54 3.65-53.23 6.1-11.85 1.64-23.6 4.08-35.48 5.28-5.43.55-11.08-1.01-16.62-1.65-3.78-.44-7.53-1.05-11.32-1.41-2.05-.2-3.12-.97-3.58-3.1-.5-2.32 1.11-2.78 2.49-3.22 3.17-1.01 6.41-2.41 9.64-2.5 8.34-.22 15.99-2.86 23.71-5.53 1.86-.64 4.26-.82 6.08-.22 4.18 1.37 8.12.66 12.16-.23 9.93-2.19 19.81-4.68 29.83-6.36 7.69-1.29 15.56-1.43 23.33-2.29 2.05-.23 4.15-.99 6-1.95 4.31-2.22 5.91-5.78 5.11-10.79-3.75-23.57-5.34-47.32-6.26-71.15-.59-15.2-1.44-30.4-2.41-45.58-.21-3.27.14-5.57 3.51-6.81 1.68-.61 3.14-1.72 4.88-2.71z"/><path d="m236.51 25.14c7.64.48 11.59 4.07 11.5 11.13-.54 41.84 5.57 83.25 7.79 124.91.24 4.59 4.18 7.32 9.59 6.72 7.89-.87 15.77-1.85 23.66-2.7 3.11-.33 6.24-.59 9.37-.59 16.68-.02 33.36.05 50.04.08 3 0 5.84.33 7.82 2.96 1.09 1.44 1.21 2.66-.37 4.01-5.03 4.29-10.43 6.63-17.38 6.43-7.32-.22-14.69.96-22.01 1.72-21.58 2.26-43.16 4.64-64.74 6.88-1.06.11-2.44-.36-3.27-1.05-3.09-2.58-6.44-5.03-8.87-8.17-1.8-2.33-3.09-5.6-3.29-8.54-.77-11.37-1.16-22.76-1.39-34.15-.27-12.85-.05-25.71-.37-38.56-.32-12.87-1.51-25.72-1.4-38.58.07-8.9 1.69-17.8 2.63-26.69.18-1.88.44-3.75.69-5.81z"/><path d="m157.48 374.42c-3.37 1.21-5.27-.04-6.93-2.66-4.19-6.6-5.43-13.82-5.26-21.48.21-9.72.67-19.48.14-29.17-.43-8-2.26-15.92-3.24-23.91-1.24-10.21-2.25-20.45-3.4-31.04-1.96-.19-3.92-.53-5.89-.55-24.73-.26-49.46-.57-74.19-.6-4.54-.01-9.07 1.19-13.61 1.86-6.91 1.02-10.13-.82-12.91-7.29 4.59-5.77 10.86-7.05 17.81-7.5 20.43-1.32 40.83-3.04 61.24-4.58 1.11-.08 2.27-.21 3.35-.01 6.72 1.29 12.99-.16 19.29-2.51 6.07-2.26 12.25-2.79 17.69 2.44.66-.62 1.18-1.14 1.73-1.63 2.37-2.08 5.3-2.08 7.41.19 1.44 1.55 2.74 3.25 3.94 4.99 1.65 2.4 1.77 4.78.31 7.52-2.68 5.01-3.8 10.46-3.55 16.18.5 11.29 1.29 22.59 1.31 33.88.01 5.97-1.11 11.98-2.14 17.9-.72 4.14-1.09 8.13.09 12.23 1.46 5.11 1.6 10.22.4 15.52-1.5 6.62-2.41 13.39-3.59 20.22z"/><path d="m244.93 287.24c3.75 2.12 4.78 5.41 4.64 9.21-.85 23.15-1.61 46.3-2.79 69.44-.09 1.86-2.78 4.18-4.8 5.19-2.26 1.12-4.99.72-6.82-1.83-4.92-6.87-6.75-14.6-6.14-22.86.55-7.47 1.99-14.88 2.3-22.35.4-9.37-.16-18.77.06-28.15.32-13.74.94-27.48 1.54-41.21.04-.92.81-2.04 1.57-2.66 4.13-3.34 8.96-4.92 14.22-5.35 29.77-2.42 59.52-4.96 89.31-7.17 6.99-.52 14.06-.05 21.09.22 3.49.13 6.22 3.96 5.55 7.45-.15.77-1.09 1.58-1.87 2.01-5.66 3.14-11.95 4.06-18.19 3.74-20.43-1.06-39.94 4.11-59.62 8.18-6.9 1.42-13.8 2.85-20.68 4.36-1.15.25-2.57.61-3.24 1.43-5.43 6.67-10.71 13.47-16.13 20.35z"/></g></svg>