<svg enable-background="new 0 0 400 400" viewBox="0 0 400 400" xmlns="http://www.w3.org/2000/svg"><g fill="#fafafb"><path d="m12.4 4.8-6.1 9h6v1.2h-8v-.5l6.1-8.9h-5.7v-1.2h7.6v.4z"/><path d="m14 15v-10.6h3c1.6 0 2.9.5 4 1.4s1.6 2.2 1.6 3.8-.5 3-1.6 3.9-2.4 1.5-4 1.5zm1.4-9.4v8.2h1.6c1.3 0 2.4-.4 3.1-1.1s1.1-1.8 1.1-3.1-.4-2.3-1.2-3-1.8-1-3.1-1z"/><path d="m26.1 4.4v10.6h-1.4v-10.6z"/><path d="m36.1 14.6c-.8.4-1.8.6-2.9.6-1.5 0-2.7-.5-3.6-1.4s-1.4-2.2-1.4-3.8c0-1.7.5-3.1 1.5-4.1s2.3-1.6 3.9-1.6c1 0 1.8.1 2.5.4v1.4c-.8-.4-1.6-.6-2.5-.6-1.2 0-2.1.4-2.9 1.2s-1.1 1.8-1.1 3.2c0 1.3.3 2.3 1 3s1.6 1.1 2.7 1.1c1 0 2-.2 2.7-.7v1.3z"/><path d="m37.6 14.3c0-.2.1-.5.3-.6s.4-.3.6-.3c.3 0 .5.1.6.3s.3.4.3.6-.1.4-.3.6-.4.3-.6.3c-.3 0-.5-.1-.6-.3s-.3-.4-.3-.6z"/><path d="m50.2 15h-1.6l-5.3-8.2c-.2-.2-.3-.5-.4-.7 0 .2.1.7.1 1.5v7.4h-1.4v-10.6h1.7l5.2 8.1c.2.4.4.6.4.7 0-.3-.1-.8-.1-1.5v-7.3h1.4z"/><path d="m58.6 15h-5.7v-10.6h5.5v1.2h-4.1v3.4h3.8v1.2h-3.8v3.6h4.3z"/><path d="m67.1 5.6h-3.1v9.4h-1.4v-9.4h-3v-1.2h7.5z"/></g><path d="m26.61 208.24h4.56c17.91 0 35.82-.21 53.73.11 6.77.12 12.86-1.42 18.56-4.72 13.26-7.7 25.11-17.21 32.3-30.95 6.2-11.85 8.63-24.87 6.9-38.37-.2-1.53-.75-3.04-1.32-4.48-2.77-6.95-5.95-13.77-8.34-20.85-3.1-9.15-8.06-17.22-13.78-24.79-2.93-3.88-7.06-6.83-10.39-10.44-9.53-10.33-21.36-16.59-34.55-21.04-13.86-4.67-27.46-10.1-41.12-15.32-4.24-1.62-8.45-3.49-11.47-8.75 3.03-.66 5.57-1.89 7.93-1.62 17.31 2.01 34.6 4.29 51.87 6.62 1.93.26 3.79 1.29 5.59 2.15 10.2 4.83 20.71 9.13 30.44 14.76 8.07 4.67 16.42 9.88 22.52 16.74 11.01 12.4 20.33 26.55 23.36 43.21 3.38 18.55 5.14 37.4 7.64 56.11.71 5.29 1.49 10.57 2.35 15.84.77 4.73 2.03 9.41 2.47 14.16 1.06 11.67 6.74 21.64 11.2 32.09 6.83 16.05 19.07 27.95 30.49 40.52 1.85 2.03 3.53 4.37 4.67 6.85 2.18 4.78 5.29 8.67 9.18 12.18 14.88 13.4 30.85 25.23 49.07 33.66 7.78 3.61 15.86 6.88 24.14 9.01 5.71 1.48 12.01.59 18.02 1.07 3.53.28 7.06.97 10.48 1.89 1.1.3 2.31 1.84 2.57 3.01.16.7-1.26 2.13-2.27 2.65-9.35 4.81-19.48 6.43-29.83 6.87-15.39.65-30.74-.11-45.38-5.23-7-2.45-13.19-7.26-20.22-9.61-12.42-4.16-21.23-13.38-31.47-20.59-.18-.13-.36-.27-.51-.43-8.28-9.06-16.82-17.89-24.74-27.25-6.6-7.8-11.38-16.78-14.98-26.42-5.87-15.7-12.03-31.28-18.06-46.92-2.01-5.2-4.2-5.96-8.87-3.06-4.65 2.89-10.02 5.1-13.75 8.91-4.47 4.56-10.01 6.55-15.38 9.07-2.84 1.34-6.08 2.11-9.22 2.47-8.88 1.02-17.78 2.02-26.7 2.43-14.18.65-27.18-4.02-39.25-10.84-3.44-1.94-5.32-6.59-8.44-10.7z" fill="#010105"/><path d="m32.23 366.66c12.59-4.16 23.31-11.34 33.09-20.31 3.96-3.64 9.41-5.62 13.62-9.03 10.95-8.89 21.55-18.21 29.02-30.44 4.13-6.76 6.33-14.96 6.05-22.01-3.6.88-7.19 1.57-10.65 2.64-8.32 2.57-16.61 5.26-24.87 8.02-3.24 1.09-6.37 1.65-9.81.87-3.8-.87-7.7-1.37-11.58-1.85-2.52-.31-3.33-1.81-3.64-4.03-.31-2.21.11-3.57 2.47-4.62 14.49-6.45 28.9-13.07 43.29-19.73 3.74-1.73 7.8-3.29 10.81-5.95 2.25-1.99 3.67-5.49 4.37-8.56 1.86-8.14 6.99-11.87 15.2-10.31 2.85.54 5.7 1.11 8.55 1.7 3.87.8 5.98 2.67 5.27 6.35-1.98 10.29.42 20.23 1.44 30.31.14 1.39-.12 2.89-.49 4.26-2.2 8.08-4.29 16.2-6.83 24.18-1.2 3.75-3.03 7.38-5.1 10.74-2.8 4.56-6.12 8.81-9.19 13.22-12.62 18.1-30.07 28.76-51.36 33.77-7.69 1.81-15.22 4.31-22.83 6.5-4.5 1.29-8.96 1.57-13.48-.06-2.74-.98-3.98-2.62-3.35-5.66z" fill="#010105"/><path d="m342.71 277.89c-15.31-1.15-30.07-4.49-44.99-6.67-13.78-2.02-26.53-7.11-39.08-12.62-3.97-1.74-7.11-5.65-10.26-8.93-4.99-5.2-9.28-10.8-9.6-18.59-.13-3.17-1.32-6.32-2.13-9.45-1.22-4.73.29-8.99 2.86-12.68 1.15-1.65 3.76-3.05 5.78-3.16 5.78-.32 11.6.16 17.41.18 6.04.03 10.57 1.84 13.49 7.82 3.62 7.41 8.22 14.35 12.33 21.52 2.14 3.73 5.03 6.56 9.1 8.03 4.37 1.58 8.27 3.84 11.54 7.21.78.81 2.06 1.46 3.17 1.58 5.24.53 10 2.38 14.39 5.1 5.18 3.22 11.1 3.17 16.78 4.11 6.4 1.06 12.85 1.76 19.23 2.9 2.48.44 5.1 1.27 7.1 2.69 1.23.87 1.69 3.18 1.89 4.91.06.51-1.85 1.66-2.97 1.85-8.65 1.51-17.35 2.83-26.04 4.2z" fill="#010105"/><path d="m314.76 123.88c-30.66-.78-60.47-5.04-88.42-18.91-16.04-7.96-23.42-20.53-24.12-37.85-.07-1.83.55-2.6 2.2-3.01 2.93-.72 5.8-1.7 8.75-2.31 2.75-.57 5.86-1.74 8.29-.98 5.41 1.69 10.48 4.34 14.06 9.21 2.3 3.13 4.66 6.49 7.75 8.7 10.16 7.29 20.6 14.22 31.07 21.08 8.25 5.4 17.81 6.14 27.29 7.11 9.79 1 19.58 2.02 29.33 3.34 3.04.41 6.03 1.63 8.89 2.84 2.69 1.13 2.67 3.02.18 4.66-7.7 5.07-16.29 6.54-25.27 6.12z" fill="#010105"/><path d="m356.72 186.26c-8.48 5.05-17.01 7.63-25.94 8.61-23.51 2.58-46.65.29-69.4-6.07-1.76-.49-3.4-1.59-4.95-2.62-4.74-3.15-9.26-6.66-14.15-9.56-9.67-5.74-16.81-20.73-14.78-31.75.75-4.03 2.06-4.99 6.2-4.47 5.55.7 11.1 1.36 16.62 2.23 1.2.19 2.61.91 3.34 1.84 8.57 10.86 20.68 17.18 32.28 23.62 7.49 4.16 16.76 5.28 25.34 7.28 12.51 2.92 25.13 5.36 37.67 8.13 2.46.54 4.78 1.68 7.77 2.76z" fill="#010105"/><path d="m57 172.76c.54-4.06 1.99-6.73 5.27-8.54 3.71-2.04 7.14-4.59 10.71-6.89 11.33-7.3 15.26-19 9.91-31.43-2.13-4.96-5.21-9.61-8.46-13.96-7.83-10.47-16.05-20.65-24.03-31-.92-1.19-1.66-2.7-1.93-4.16-.63-3.48.88-5.06 4.45-4.74 5.12.46 10.28.81 15.3 1.82 2.35.47 4.87 1.93 6.55 3.67 12.29 12.74 23.93 25.98 30.56 42.81 5.12 13 3.06 25.42-2.77 37.57-.37.76-1.07 1.41-1.75 1.96-11.11 9.12-23.46 14.59-38.24 12.91-1.77-.19-3.57-.02-5.57-.02z" fill="#010105"/></svg>