<svg enable-background="new 0 0 400 400" viewBox="0 0 400 400" xmlns="http://www.w3.org/2000/svg"><g fill="#fafafb"><path d="m12.4 4.8-6.1 9h6v1.2h-8v-.5l6.1-8.9h-5.7v-1.2h7.6v.4z"/><path d="m14 15v-10.6h3c1.6 0 2.9.5 4 1.4s1.6 2.2 1.6 3.8-.5 3-1.6 3.9-2.4 1.5-4 1.5zm1.4-9.4v8.2h1.6c1.3 0 2.4-.4 3.1-1.1s1.1-1.8 1.1-3.1-.4-2.3-1.2-3-1.8-1-3.1-1z"/><path d="m26.1 4.4v10.6h-1.4v-10.6z"/><path d="m36.1 14.6c-.8.4-1.8.6-2.9.6-1.5 0-2.7-.5-3.6-1.4s-1.4-2.2-1.4-3.8c0-1.7.5-3.1 1.5-4.1s2.3-1.6 3.9-1.6c1 0 1.8.1 2.5.4v1.4c-.8-.4-1.6-.6-2.5-.6-1.2 0-2.1.4-2.9 1.2s-1.1 1.8-1.1 3.2c0 1.3.3 2.3 1 3s1.6 1.1 2.7 1.1c1 0 2-.2 2.7-.7v1.3z"/><path d="m37.6 14.3c0-.2.1-.5.3-.6s.4-.3.6-.3c.3 0 .5.1.6.3s.3.4.3.6-.1.4-.3.6-.4.3-.6.3c-.3 0-.5-.1-.6-.3s-.3-.4-.3-.6z"/><path d="m50.2 15h-1.6l-5.3-8.2c-.2-.2-.3-.5-.4-.7 0 .2.1.7.1 1.5v7.4h-1.4v-10.6h1.7l5.2 8.1c.2.4.4.6.4.7 0-.3-.1-.8-.1-1.5v-7.3h1.4z"/><path d="m58.6 15h-5.7v-10.6h5.5v1.2h-4.1v3.4h3.8v1.2h-3.8v3.6h4.3z"/><path d="m67.1 5.6h-3.1v9.4h-1.4v-9.4h-3v-1.2h7.5z"/></g><path d="m270.62 204.97c-4.94-9.15-10.07-18.17-11.04-28.85-.22-2.39.36-4.15 2.44-5.72 17.44-13.15 31.86-29.41 46.46-45.48 3.26-3.59 9.32-2.3 10.99 2.21 10.25 27.65 20.41 55.33 30.86 82.91 3.56 9.39 3.55 18.81 1.78 28.38-1.53 8.27-2.82 16.51-1.81 24.96.99 8.26-1.06 16.09-4.34 23.48-5.93 13.37-12.29 26.55-18.5 39.8-1.14 2.43-2.48 4.76-3.57 7.2-4.02 8.99-8.3 17.77-14.34 25.67-2.52 3.3-3.95 7.46-5.76 11.29-1.98 4.2-3.32 4.75-7.45 2.76-5.24-2.52-10.48-5.02-15.7-7.58-4.02-1.97-4.35-6.17-1.29-9.26 3.35-3.39 7.13-6.83 9.11-11.01 8.44-17.74 16.85-35.53 24.2-53.74 8.84-21.91 9.73-44.87 5.77-68-1.81-10.56-4.03-21.06-6.54-31.46-.95-3.94-3.11-7.64-5.01-11.3-1.8-3.48-4.02-4.17-7.49-2.29-7.45 4.05-14.09 9.04-18.47 16.6-2.35 4.09-5.09 7.92-10.3 9.43z" fill="#010105"/><path d="m109.56 352.83c-2.9 1.71-5.45 2.31-8.36.62-6.41-3.72-13.42-4.57-20.7-3.95-1.21.1-2.43.01-3.89.01-2.6-11.16-4.95-22.18-7.75-33.07-2.39-9.28-5.51-18.38-7.95-27.65-3.75-14.25-7.26-28.57-10.74-42.88-1.85-7.6-3.62-15.09-7.56-22.08-1.67-2.96-1.81-7.45-1.12-10.95 2.04-10.29 6.81-19.62 12.22-28.51 6.44-10.59 13.55-20.77 19.94-31.39 4.77-7.92 8.97-16.19 13.19-24.43 2.2-4.3 1.82-8.85.17-13.36-.56-1.53-1.02-3.28-.86-4.85.72-6.99 6.06-9.74 12.29-5.75 6.47 4.14 12.58 8.93 18.45 13.9 12.02 10.19 23.81 20.65 35.63 31.07 7.68 6.77 6.71 11.47-2.57 15.44-3.18 1.36-6.41 1.28-9.39-.38-4.69-2.6-9.22-5.46-13.87-8.13-4.55-2.62-9.1-5.24-13.78-7.6-.84-.42-2.82.03-3.41.76-3.33 4.16-6.55 8.43-9.51 12.87-1.78 2.68-3.01 5.73-4.48 8.62-3.67 7.24-8.07 13.98-14.29 19.27-3.91 3.33-5.59 7.59-5.48 12.39.21 9.37.3 18.8 1.45 28.07 3.54 28.52 8.69 56.78 15.89 84.63 1.79 6.91 3.7 13.84 6.22 20.51 1.47 3.89 4.25 7.3 6.48 10.9 1.23 1.98 2.51 3.92 3.78 5.92z" fill="#010105"/><path d="m194.21 198.15c8.44 4.14 15.24 10.18 20.46 17.6 7.76 11.05 14.81 22.61 22.16 33.95 1.88 2.9 3.57 5.93 5.62 8.7 6.72 9.06 13.62 18 20.34 27.07 1.24 1.67 2.14 3.68 2.81 5.67 1.97 5.83-3.5 13.35-9.67 13.17-1.44-.04-3.2-.91-4.2-1.96-15.64-16.47-31.22-33-46.71-49.61-1.79-1.92-3.32-2.73-5.66-1.25-2.71 1.71-5.53 3.26-8.18 5.06-1.66 1.13-3.01 2.68-4.62 3.88-10.89 8.11-19.51 18.36-27.48 29.2-1.54 2.09-3.15 3.07-5.85 2.79-3.66-.39-7.37-.41-11.06-.39-2.14.01-3.42-.88-3.92-2.85-1.27-4.92-1.89-9.43 1.56-14.23 17.57-24.42 34.8-49.09 52.15-73.67.68-1.02 1.42-1.99 2.25-3.13z" fill="#010105"/><path d="m200.03 56.9c-7.35 7.83-14.27 15.6-21.63 22.93-8.24 8.21-16.8 16.09-25.35 23.98-4 3.69-6.46 2.9-7.51-2.35-.44-2.21-.58-4.78.11-6.87 2.39-7.3 5.2-14.33 9.82-20.76 7.32-10.19 15.54-19.31 25.52-26.88 7.51-5.69 13.56-12.6 17.27-21.62 9.01 3.51 16.99 8.17 23.12 15.04 7.43 8.32 14.16 17.29 20.88 26.21 6.52 8.66 12.72 17.57 18.88 26.49 1.42 2.05 2.6 4.51 3.07 6.94 1.17 6.12-3.06 8.3-7.89 7.72-4.8-.58-8.97-2.42-12.57-6.2-13.57-14.27-27.48-28.22-41.26-42.29-.71-.71-1.45-1.38-2.46-2.34z" fill="#010105"/></svg>