<svg enable-background="new 0 0 400 400" viewBox="0 0 400 400" xmlns="http://www.w3.org/2000/svg"><path d="m374.8 390.4.4-.4c.7.5 1.3 1 1.8 1.4l-.5.5c-.5-.6-1.1-1.1-1.7-1.5zm1 7.3-.6-.3c.5-1.4 1.1-2.8 1.5-4.3.2.1.4.2.6.3-.5 1.3-1 2.8-1.5 4.3zm-.4-10.3.4-.4c.4.3 1 .8 1.7 1.4l-.5.5c-.4-.5-1-1-1.6-1.5zm2.5.3h1.7v-1h.6v1h3.5v-1h.6v1h1.8v.5h-1.8v1.4h-2v1h3.2v2h-3.2v.9h3.3v.5h-3.4c0 .3-.1.6-.1.9h4v.5h-3.7c.7.9 1.9 1.5 3.8 1.7-.1.2-.2.4-.3.6-2.1-.4-3.5-1.1-4-2.1-.4 1-1.8 1.7-4 2.2-.1-.2-.2-.4-.3-.6 2.1-.4 3.4-1 3.8-1.8h-3.4v-.5h3.6c.1-.3.1-.6.2-.9h-3.3v-.5h3.4c0-.3 0-.6 0-.9h-3.2v-2h3.3v-1h-2.1v-1.4h-1.7v-.5zm1.1 3.5v1h2.7c0-.3 0-.4 0-.4 0-.1 0-.2 0-.2 0-.1 0-.2 0-.3h-2.7zm1.2-3v.9h3.5v-.9zm4.7 3h-2.6v.6.4h2.6z" fill="#fbfcfa"/><path d="m393.6 386.7h.6v1.5h2.7v6.1h1.1v.6h-11v-.6h1.1v-6.1h2.7v-1.5h.6v1.5h2.1v-1.5zm-2.7 8.8.4.6c-1.2.6-2.5 1.3-3.8 1.9-.1-.2-.2-.4-.3-.6 1.2-.6 2.5-1.2 3.7-1.9zm-2.2-6.7v2.4h2.1v-2.4zm0 3v2.5h2.1v-2.5zm2.8-3v2.4h2.1v-2.4zm0 3v2.5h2.1v-2.5zm6 6.1c-1.4-.7-2.7-1.3-3.9-1.8l.3-.6c1.5.6 2.7 1.2 3.9 1.7zm-1.2-9.1h-2.1v2.4h2.1zm-2.1 3v2.5h2.1v-2.5z" fill="#fbfcfa"/><g fill="#010106"><path d="m204.2 247.24c-12.56 13.38-24.45 20.53-35.77 21.44 1.66-7.11 2-14.2 8.03-19.89 6.42-6.06 10.52-14.07 13.92-23.18-3.75-.52-7.16-1.54-10.48-1.34-7.69.46-15.35 1.41-22.99 2.42-1.32.17-2.89 1.33-3.63 2.49-3.4 5.38-6.59 10.9-9.76 16.43-2.63 4.57-5.8 8.46-11.02 10.27-2.47.86-3.73.17-4.28-2.37-1-4.67-.29-9.09 1.52-13.44 3.22-7.73 7.02-15.28 9.45-23.25 5.94-19.47 6.31-38.98-1.72-58.14-.21-.51-.34-1.06-.53-1.69 4.64-3.91 9.95-3.97 15.49-2.74 3.89.86 7.6.37 10.96-1.74.77-.49 1.56-1.67 1.57-2.54.12-8.39.07-16.77.07-25.6-4.54 1.25-8.8 2.39-13.04 3.59-14.95 4.22-29.89 8.47-44.84 12.7-5.37 1.52-5.37 1.52-7.94-3.88 5.97-3.2 11.82-6.68 17.96-9.55 14.64-6.86 26.6-17.68 39.94-26.46 4.55-3 9.32-5.75 14.23-8.09 5.09-2.42 10.57-2.7 16.05-1.09 1.98.58 2.96 1.59 3.29 3.92 1.4 9.87-.61 19.37-2.57 28.91-1.51 7.34-1.85 14.64 1.3 21.73 1 2.24 2.28 3.45 5.05 3.3 5.25-.27 10.53-.24 15.78-.01 2.67.12 3.77-.91 4.41-3.32 2.39-8.97 1.14-17.77-1.06-26.52-2.28-9.06-4.08-18.14-2.24-27.52.41-2.08.93-4.15 1.61-6.16 1.28-3.81 1.93-4.19 5.83-2.76 2.06.75 4.18 1.79 5.79 3.23 4.67 4.18 9.93 7.16 15.81 9.24 9.9 3.5 19.79 7.06 29.64 10.71 10.09 3.74 19.29 8.85 26.13 17.79-3.7 2.93-8 3.57-12.13 2.92-9.92-1.57-19.76-3.64-29.61-5.64-6.88-1.39-13.72-2.99-20.79-4.54-1.47 9.34-1.63 18.31.68 27.19.17.67 1.75 1.52 2.52 1.39 4.48-.74 8.98-1.56 13.36-2.75 2.67-.72 5.12-2.22 7.71-3.27 4.82-1.94 9.41-1.41 13 2.39 7.5 7.95 9.46 13.23 5.05 24.13-1.31 3.24-1.98 6.92-2.07 10.42-.18 6.93.21 13.87.45 20.81.04 1.06.48 2.15.92 3.14 7.03 15.77 9.67 32.47 10.62 49.53.02.31-.15.63-.34 1.38-2.23 0-4.56.14-6.85-.08-.73-.07-1.73-1-1.99-1.76-4.14-11.86-11.62-21.88-17.8-32.62-.97-1.69-1.97-2.19-4-1.82-12.44 2.23-24.89 4.35-37.38 6.31-2.96.46-3.9 2-3.88 4.57 9.03 6.42 18.22 12.6 27 19.31 5.11 3.91 9.88 8.41 14.19 13.2 2.2 2.44 3.13 6.06 4.48 9.21.87 2.04-.18 3.34-2.23 3.48-2.53.17-5.18.45-7.61-.07-11.54-2.46-21.85-7.65-31.37-14.58-4.43-3.22-9.15-6.04-13.89-9.14zm9.22-75.74c-.48 7.9-1.05 15.58-1.35 23.27-.1 2.53.4 5.1.82 7.63.46 2.76 1.89 4.39 5.05 3.85 7.79-1.33 15.67-2.22 23.35-3.99 4.56-1.05 8.8-3.45 13.09-5.21-1.7-9.27-3.24-17.83-4.87-26.37-.17-.88-.76-2.26-1.36-2.38-4.04-.79-8.25-2.24-12.17-1.72-7.58 1.02-15 3.2-22.56 4.92zm-39.42 36.86c.03.24.05.47.08.71 5.63-.73 11.28-1.3 16.86-2.31 1.23-.22 2.95-1.93 3.11-3.12.74-5.73 1.21-11.52 1.36-17.3.07-2.5-.59-5.12-1.41-7.52-1.7-5-5.07-6.68-10.13-5.43-5.1 1.26-10.19 2.53-15.28 3.82-6.98 1.77-7.12 1.76-8.03 8.94-.79 6.21-1.42 12.46.62 18.61.83 2.49 2.16 3.96 5.11 3.65 2.55-.26 5.14-.05 7.71-.05z"/><path d="m305.44 98c.15 8.22-3.82 9.87-11.08 9.58-3.73-.15-7.65-1.73-11.01-3.54-18.87-10.19-37.54-20.78-56.42-30.96-7.59-4.1-14.09-9.39-20.06-15.51-1.75-1.79-3.92-3.41-6.2-4.41-4.7-2.06-8.33-.82-11.85 2.81-12.7 13.07-26.94 24.26-42.65 33.43-3.04 1.78-7.34 1.32-11.02 2.1-2.23.47-4.57.98-6.52 2.07-8.26 4.66-16.27 9.8-24.65 14.23-3.04 1.61-6.86 1.75-10.32 2.56-2.22.52-3.22-.73-3.3-2.65-.18-4.38.64-8.47 4.52-11.21 16.06-11.38 32.27-22.56 48.16-34.18 8.11-5.94 15.65-12.67 23.45-19.03 8.73-7.11 18.38-12.75 28.78-16.97 4.25-1.73 8.6.22 11.37 3.13 17.92 18.81 41.53 29.35 62.69 43.4 9.72 6.45 20.55 11.22 30.93 16.66 3.83 2.01 5.37 4.3 5.18 8.49z"/><path d="m177.9 282.82c2.94 0 5.85-.2 8.7.12.89.1 2.04 1.47 2.35 2.48 2.61 8.31 5.32 16.61 7.46 25.05 1.21 4.76 4.35 7.01 8.51 7.12 6.22.17 12.47-.59 18.68-1.2.64-.06 1.5-1.74 1.62-2.74 1.26-10.55 2.38-21.11 3.55-31.67.11-.97.25-1.94.43-3.33 3.96 1.29 7.68 2.38 11.28 3.77.78.3 1.49 1.62 1.66 2.57 1.39 7.83 3.6 15.22 7.32 22.43 2.39 4.64 2.58 10.58 3.04 16 .9 10.45 1.36 20.94 1.85 31.42.16 3.39-1.17 6.24-4.03 8.38-2.05 1.54-3.98 3.3-5.69 5.21-7.03 7.84-15.8 8.39-24.9 5.34-8.24-2.76-16.22-6.37-24.17-9.91-1.66-.74-2.92-2.69-4.03-4.31-6.31-9.22-9.47-19.69-11.55-30.5-2.63-13.66-4.18-27.42-2.89-41.36.07-.78.13-1.56.26-2.33.12-.76.32-1.5.55-2.54zm30.25 64.96c2.33-.84 4.21-1.51 6.09-2.19 6.08-2.21 6.41-2.76 5.46-9.16-.07-.44-.01-1.01-.26-1.3-.87-.99-1.8-2.6-2.81-2.68-3.71-.32-7.46-.13-11.55-.13 1.02 5.19 2 10.09 3.07 15.46z"/></g></svg>