<svg enable-background="new 0 0 400 400" viewBox="0 0 400 400" xmlns="http://www.w3.org/2000/svg"><path d="m374.8 390.4.4-.4c.7.5 1.3 1 1.8 1.4l-.5.5c-.5-.6-1.1-1.1-1.7-1.5zm1 7.3-.6-.3c.5-1.4 1.1-2.8 1.5-4.3.2.1.4.2.6.3-.5 1.3-1 2.8-1.5 4.3zm-.4-10.3.4-.4c.4.3 1 .8 1.7 1.4l-.5.5c-.4-.5-1-1-1.6-1.5zm2.5.3h1.7v-1h.6v1h3.5v-1h.6v1h1.8v.5h-1.8v1.4h-2v1h3.2v2h-3.2v.9h3.3v.5h-3.4c0 .3-.1.6-.1.9h4v.5h-3.7c.7.9 1.9 1.5 3.8 1.7-.1.2-.2.4-.3.6-2.1-.4-3.5-1.1-4-2.1-.4 1-1.8 1.7-4 2.2-.1-.2-.2-.4-.3-.6 2.1-.4 3.4-1 3.8-1.8h-3.4v-.5h3.6c.1-.3.1-.6.2-.9h-3.3v-.5h3.4c0-.3 0-.6 0-.9h-3.2v-2h3.3v-1h-2.1v-1.4h-1.7v-.5zm1.1 3.5v1h2.7c0-.3 0-.4 0-.4 0-.1 0-.2 0-.2 0-.1 0-.2 0-.3h-2.7zm1.2-3v.9h3.5v-.9zm4.7 3h-2.6v.6.4h2.6z" fill="#fbfcfa"/><path d="m393.6 386.7h.6v1.5h2.7v6.1h1.1v.6h-11v-.6h1.1v-6.1h2.7v-1.5h.6v1.5h2.1v-1.5zm-2.7 8.8.4.6c-1.2.6-2.5 1.3-3.8 1.9-.1-.2-.2-.4-.3-.6 1.2-.6 2.5-1.2 3.7-1.9zm-2.2-6.7v2.4h2.1v-2.4zm0 3v2.5h2.1v-2.5zm2.8-3v2.4h2.1v-2.4zm0 3v2.5h2.1v-2.5zm6 6.1c-1.4-.7-2.7-1.3-3.9-1.8l.3-.6c1.5.6 2.7 1.2 3.9 1.7zm-1.2-9.1h-2.1v2.4h2.1zm-2.1 3v2.5h2.1v-2.5z" fill="#fbfcfa"/><g fill="#010106"><path d="m252.95 375.1c-2.3-8.31-2.84-16.02-2.85-23.82-.02-14.59 3.31-28.61 7.11-42.55 4.95-18.16 8.55-36.57 10.19-55.34.01-.11.04-.22.05-.33.15-1.68-8.05-14.18-9.62-14.22-4.4-.14-8.39 1.19-11.56 4.36-14.43 14.38-28.83 28.8-43.21 43.23-.86.87-1.48 1.98-2.21 2.97-.32-.25-.65-.49-.97-.74 5.54-11.87 11.08-23.74 16.62-35.61 5.56-11.93 11.12-23.86 16.82-36.08-6.41-3.48-12.36-7.32-18.78-10.05-6.59-2.79-8.97-6.8-8.32-14 .49-5.45-.86-11.09-1.62-16.62-3.17-23.04 2.56-44.25 12.29-64.93 5.23-11.13 12.17-20.03 22.44-27.06 14.85-10.17 28.92-21.48 43.37-32.23 1.08-.8 2.57-1.44 3.89-1.49 14.01-.53 27.98.15 41.78 2.68 11.55 2.11 20.57 8.21 27.1 18.9-4.24-.93-7.87-1.9-11.56-2.51-14.86-2.48-29.8-3.56-44.73-.93-11.52 2.03-20.88 7.57-26.58 18.55 12.2 7.32 24.27 14.57 36.53 21.92 7.78-7.79 15.5-15.53 23.22-23.27.19.13.37.26.56.39-.3.91-.55 1.84-.92 2.72-4.77 11.57-9.52 23.15-14.38 34.68-.72 1.7-1.79 3.36-3.06 4.7-17.21 18.07-34.46 36.11-51.78 54.08-1.74 1.81-2.61 3.66-2.77 6.14-.61 9.6-1.45 19.19-1.99 28.8-.06 1.08 1.02 2.54 1.98 3.29 6.68 5.24 13.64 10.14 20.18 15.55 5.91 4.89 9.92 11.22 11.4 18.88.32 1.68.37 3.64-.16 5.23-12.42 37.44-24.93 74.85-37.43 112.26-.2.59-.48 1.15-1.03 2.45zm11.26-225.5c8.09-6.74 17.4-14.43 26.59-22.25.96-.82 1.57-2.45 1.71-3.78.92-8.44-3.25-14.43-10.36-17.91-9.71-4.75-19.8-8.71-29.8-12.82-.98-.4-2.8.15-3.72.9-4.61 3.72-9.12 7.57-13.5 11.57-1.02.94-1.85 2.57-1.96 3.94-.6 7.12 1.95 13.33 6.95 18.19 7.7 7.47 15.78 14.55 24.09 22.16zm-37.99-18.03c-8.53 17.12-9.49 36.18.13 48.44 8.79-5.6 17.59-11.2 26.57-16.91-9-10.63-17.73-20.94-26.7-31.53z"/><path d="m196.43 97.04c-9.56 3.84-18.52 7.85-27.77 11.02-6.3 2.16-10.35 5.76-13.57 11.66-10.55 19.33-21.72 38.33-32.65 57.46-.5.87-.97 1.75-1.45 2.62 5.89 5.21 15.09 4.84 21.15.58 8.33-5.85 16.75-11.56 25.14-17.32 2.19-1.5 4.43-2.94 7.24-4.8-1.66 6.6-3.08 12.55-4.72 18.44-.28 1.02-1.39 1.95-2.33 2.63-13.22 9.6-26.49 19.11-39.67 28.76-1.33.97-2.53 2.57-3.04 4.12-3.9 11.75-4.29 23.95-4.17 36.16.13 13.42.87 26.85.88 40.27.01 16.9-2.47 33.43-8.91 49.19-.36.89-.83 1.74-1.69 3.54-.82-8.59-1.55-16.19-2.26-23.79-2.41-25.95-4.81-51.91-7.2-77.86-.81-8.8-1.65-17.6-2.31-26.41-.2-2.61-1.11-4.12-3.58-5.34-9.38-4.65-19.05-8.28-29.46-9.74-4.92-.69-9.09-2.94-12.73-6.27-6.98-6.39-11.35-14.48-15.74-23.7 1.86.72 2.94 1.15 4.02 1.55 13.19 4.88 26.33 9.93 39.61 14.55 5.27 1.84 10.88 2.67 16.52 1.24 1.18-.3 2.34-.74 3.45-1.25 1.76-.81 2.33-1.85 1.4-3.95-7.63-17.27-15.08-34.63-22.71-51.9-.61-1.37-2-2.66-3.36-3.4-10.11-5.52-20.3-10.88-30.45-16.31-.94-.5-1.83-1.09-3.41-2.05 8.77-1.81 16.81-3.48 24.86-5.12 22.45-4.59 44.87-9.31 67.36-13.67 4.99-.97 10.23-.95 15.35-.86 9.6.16 19.23.25 28.76 1.24 6.45.65 12.15 3.94 17.44 8.71zm-107.59 22c8.26 14.83 16.28 29.25 24.4 43.83.6-.45.99-.66 1.27-.96 10.87-11.74 19.14-25.25 26.32-39.44 1.76-3.49 2.16-7.47-.76-10.73-3.36-3.76-8.22-5.74-12.72-4.55-12.82 3.41-25.38 7.74-38.51 11.85z"/><path d="m191.54 45.54c-7.08 3.51-14.44 4.8-21.87 5.58-26.84 2.81-53.6.75-80.34-1.7-14.71-1.34-29.31-3.36-43.51-7.65-.85-.26-1.69-.57-3.45-1.17 3.65-1.59 6.6-3 9.63-4.17 13.11-5.03 26.98-5.98 40.76-7.39 5.56-.57 11.16-.9 16.66-1.86 7.76-1.36 15.23-.19 22.9.92 10.71 1.55 21.59 1.84 32.37 2.93 10.79 1.09 19.77 5.78 26.85 14.51z"/></g></svg>