<svg enable-background="new 0 0 400 400" viewBox="0 0 400 400" xmlns="http://www.w3.org/2000/svg"><path d="m374.8 390.4.4-.4c.7.5 1.3 1 1.8 1.4l-.5.5c-.5-.6-1.1-1.1-1.7-1.5zm1 7.3-.6-.3c.5-1.4 1.1-2.8 1.5-4.3.2.1.4.2.6.3-.5 1.3-1 2.8-1.5 4.3zm-.4-10.3.4-.4c.4.3 1 .8 1.7 1.4l-.5.5c-.4-.5-1-1-1.6-1.5zm2.5.3h1.7v-1h.6v1h3.5v-1h.6v1h1.8v.5h-1.8v1.4h-2v1h3.2v2h-3.2v.9h3.3v.5h-3.4c0 .3-.1.6-.1.9h4v.5h-3.7c.7.9 1.9 1.5 3.8 1.7-.1.2-.2.4-.3.6-2.1-.4-3.5-1.1-4-2.1-.4 1-1.8 1.7-4 2.2-.1-.2-.2-.4-.3-.6 2.1-.4 3.4-1 3.8-1.8h-3.4v-.5h3.6c.1-.3.1-.6.2-.9h-3.3v-.5h3.4c0-.3 0-.6 0-.9h-3.2v-2h3.3v-1h-2.1v-1.4h-1.7v-.5zm1.1 3.5v1h2.7c0-.3 0-.4 0-.4 0-.1 0-.2 0-.2 0-.1 0-.2 0-.3h-2.7zm1.2-3v.9h3.5v-.9zm4.7 3h-2.6v.6.4h2.6z" fill="#fbfcfa"/><path d="m393.6 386.7h.6v1.5h2.7v6.1h1.1v.6h-11v-.6h1.1v-6.1h2.7v-1.5h.6v1.5h2.1v-1.5zm-2.7 8.8.4.6c-1.2.6-2.5 1.3-3.8 1.9-.1-.2-.2-.4-.3-.6 1.2-.6 2.5-1.2 3.7-1.9zm-2.2-6.7v2.4h2.1v-2.4zm0 3v2.5h2.1v-2.5zm2.8-3v2.4h2.1v-2.4zm0 3v2.5h2.1v-2.5zm6 6.1c-1.4-.7-2.7-1.3-3.9-1.8l.3-.6c1.5.6 2.7 1.2 3.9 1.7zm-1.2-9.1h-2.1v2.4h2.1zm-2.1 3v2.5h2.1v-2.5z" fill="#fbfcfa"/><g fill="#010106"><path d="m192.18 149.31c7.62 2.34 14.57 4.38 21.45 6.64 3.28 1.08 6.47 2.48 9.63 3.87 6.76 2.97 9.48 7.93 8 15.09-1.47 7.09-3.88 13.71-9.73 18.63-3.56 3-6.76 6.44-10.03 9.6 6.67 7 14.68 8.67 23.38 9.31 13.43.99 26.82 2.66 40.22 4.38-17.33 8.67-35.9 4.13-54.32 5.09-.71 4.92-1.41 9.83-2.13 14.86 8.69 3.55 17.48 4.2 26.5 3.64 4.76-.3 9.63-.38 14.33.27 5.17.72 8.92 4.34 10.88 9.2-12.16 1.84-24.22 2.56-36.31-.04-5.99-1.29-9.34.31-11.92 5.87-2.88 6.22-3.32 12.9-3.46 20.28 5.08.15 9.96.57 14.82.39 7.7-.3 15.39-1.27 23.09-1.39 3.23-.05 6.57 1.06 9.68 2.16 1.62.57 2.84 2.26 5.04 4.12-7.69.86-14.28 1.6-20.88 2.32-20.24 2.22-40.47 4.4-60.7 6.73-.92.11-2.27 1.32-2.46 2.22-.72 3.5-.96 7.09-1.57 10.61-.33 1.91.29 2.91 2.05 3.55 5.77 2.09 11.52 4.23 17.27 6.37 3.47 1.29 6.8 2.76 8.3 7.08-7.02 1.09-13.72 1.59-20.5.33-4.09-.76-5.91-.04-6.86 3.84-1.18 4.84-1.63 9.88-2.11 14.86-.07.77 1.2 1.98 2.12 2.49 6.44 3.57 12.96 7.01 19.26 11.06-5.5-1.34-11.07-2.47-16.47-4.12-2.87-.87-4.16.07-5.69 2.29-4.9 7.06-9.98 13.99-15.12 20.88-1.01 1.36-2.58 2.31-4.6 4.05 1.9-9.48 3.6-18.01 5.32-26.53 1.84-9.09 4.12-18.13 5.35-27.3.57-4.27-.6-8.86-1.46-13.22-2.8-14.24-8.5-27.49-14.05-40.8-4.74-11.38-6.85-23.13-3.43-35.37 1.14-4.07 3.11-7.43 6.35-10.35 7.07-6.35 13.78-13.11 20.66-19.67 1.78-1.7 1.93-3.43 1.51-5.94-1.35-8.04-2.33-16.16-3.1-24.28-.8-8.48-2.49-10.48-11.29-11.06-3.2-.21-6.49.01-9.65.55-7 1.19-13.26-.4-20.04-4.67 4.69-.72 8.53-1.33 12.37-1.89 7.97-1.15 15.95-2.19 23.89-3.52.96-.16 2.32-1.71 2.41-2.72 1.88-20.72 3.61-41.46 5.3-62.2.07-.89-.2-2.11-.79-2.69-6.21-6.08-9.94-13.71-13.73-21.33-2.89-5.82-7.14-10.21-13.48-12.34-2.27-.76-3.72-.3-5.55 1.43-6.9 6.5-13.87 12.97-21.28 18.86-3.19 2.53-7.53 3.61-11.37 5.36-1.2-2.88-.27-4.25 1.69-5.54 8.05-5.29 14.57-12.19 20.13-19.99 5.08-7.13 6.68-14.6 1.29-22.4-.31-.45-.48-.99-.95-1.98 5.21.49 9.53 2.31 13.66 4.65 7.47 4.23 12.91 10.57 17.98 17.34 3.28 4.38 6.91 8.5 10.47 12.65 1.08 1.26 2.42 2.33 3.73 3.37 5.96 4.72 6.65 4.7 12.44 0 13.73-11.14 27.46-22.28 41.19-33.42 1.01-.82 2.04-1.61 3.48-2.75-.3 3.22-.71 5.85-.76 8.48-.13 6.39 2.15 11.87 5.94 17.06 4.93 6.75 9.28 13.91 13.84 20.93.51.79.75 1.76 1.13 2.69-6.03 1.19-6.32 1.02-9.33-3.32-5.97-8.61-12.51-16.63-22.21-21.43-6.33-3.13-6.35-3.27-11.08 1.86-9.3 10.09-18.09 20.67-22.25 33.96-2.25 7.18-3.45 14.83-4.01 22.35-.94 12.9-1.03 25.88-1.48 38.64zm18 126.33c-.59-6.82-.96-13.24-1.78-19.61-.48-3.68-3.12-6.12-6.75-6.55-6.2-.72-12.45-.96-18.68-1.36-.53-.03-1.14.1-1.61.35-5.3 2.83-10.58 5.7-16.22 8.74 3.04 4.38 6.25 8.29 8.66 12.64 2.6 4.7 5.96 6.27 11.31 5.92 7.99-.51 16.05-.13 25.07-.13zm-.88-37.22c.62-6.68-.19-12.34-2.5-18.02-2.2-5.43-9.44-9.91-15.09-9.26-.71.08-1.45.52-2.05.96-6.39 4.71-12.76 9.43-19.09 14.22-.71.54-1.49 1.51-1.53 2.31-.18 3.2-.07 6.42-.07 9.79zm-10.72-46.09c1.8-.77 3.45-1.42 5.05-2.16 3.82-1.78 9.15-2.65 11-5.66 1.97-3.2.74-8.43.72-12.77-.01-1.87-.04-4-.93-5.5-.53-.89-2.78-.67-4.2-1.14-2.11-.7-4.2-1.5-6.25-2.37-2.41-1.03-4.77-2.2-6.99-3.22-6.42 11.28-3.52 21.94 1.6 32.82z"/><path d="m122.44 90.85c7.11 6.91 13.28 14.35 24.09 14.16.6-5.27 1.19-10.45 1.79-15.63 5.95.22 11.38 3.92 12.42 10.67 1.62 10.54 1.88 21.29 2.66 31.96.04.57-.32 1.31-.73 1.76-5.69 6.27-18.74 9.01-26.44 5.46-7.47-3.44-11.38-9.99-13.75-17.33-3.24-10.01-2.01-20.21-.04-31.05zm15.05 20.11c-2.44 1.87-4.87 3.73-7.36 5.64 1.84 3.87 3.54 7.46 5.3 11.16 5.57-1.88 10.83-3.67 16.65-5.63-5.15-3.95-9.74-7.46-14.59-11.17z"/><path d="m217.36 86.82c3.02 9.06 9.19 11.95 17.48 12.21 6.25.2 6.24.63 9.17-4.96.66-1.26 1.29-2.55 2.22-4.4.32 1.05.55 1.5.57 1.94.5 12.28.92 24.57 1.52 36.84.11 2.26-.76 3.35-2.54 4.48-6.45 4.08-13.3 4.05-20.35 2.3-.74-.18-1.52-.86-1.97-1.53-9.63-14.24-11.71-29.58-6.1-46.88zm16.26 38.8c8.48 0 8.71-.24 8.73-8.9 0-.22 0-.45 0-.67.01-3.14-.4-6.12-3.78-7.51-3.41-1.4-6.79-2.25-9.74 1.1-.87.99-1.96 1.87-3.1 2.53-2.82 1.62-3.13 3.53-1.92 6.56 2.73 6.82 2.54 6.89 9.81 6.89z"/></g></svg>