<svg enable-background="new 0 0 400 400" viewBox="0 0 400 400" xmlns="http://www.w3.org/2000/svg"><path d="m6.8 9.5c.6.3 1.3.7 2.1 1.1-.4.4-.7.8-.9 1.2-.7-.4-1.3-.8-1.8-1.1s-1.1-.6-1.6-.8c.2-.4.5-.8.7-1.2.4.2.8.5 1.5.8zm.9 6.9c-.3.6-.5 1.1-.7 1.7s-.4 1.1-.6 1.7c-.6-.4-1.1-.7-1.6-1 .7-1 1.2-1.8 1.5-2.4.3-.5.6-1.1.8-1.7.3-.6.5-1.2.8-1.8.3.3.8.6 1.3.8-.7 1.3-1.2 2.2-1.5 2.7zm.1-11c.4.3 1 .7 1.7 1.1-.5.2-.8.6-1.1 1.1-.5-.6-1-1-1.4-1.2s-.9-.6-1.5-.8c.2-.4.5-.7.9-1.1.5.3.9.6 1.4.9zm10.5 13.1c1 .4 2 .6 3.1.7-.4.4-.7.8-.8 1.3-.9-.2-1.9-.6-3-.9-1-.4-2-.9-2.8-1.6-.5.4-1.1.9-1.9 1.3s-1.9.9-3.3 1.2c-.1-.3-.5-.8-1.1-1.3 1 0 2.1-.3 3.2-.8 1.2-.5 1.9-1 2.3-1.7h-3.2c-.4 0-1 0-2 .1v-1.2c1 0 1.7.1 2 .1h3.3v-1h-2.3c-.2 0-.9 0-2 .1v-1.2c1.2 0 1.9.1 2 .1h2.3v-.8h-4.1c0-.7.1-1.2.1-1.6 0-.5 0-1.1-.1-1.8h4.1v-.7h-2.5c0-.6.1-1.1.1-1.6v-.6h-.5c-.4 0-1 0-1.8.1v-1.3c1.2 0 1.9.1 2.1.1h.2c0-.3 0-.8-.1-1.4h1.4c0 .6-.1 1-.1 1.4h3.4c0-.4 0-.8-.1-1.3h1.5c0 .4-.1.9-.1 1.3.7 0 1.5 0 2.5-.1v1.2c-1 0-1.8-.1-2.5-.1v.6c0 .3 0 .8.1 1.5h-2.5v.8h4.1c0 .7-.1 1.3-.1 1.8s0 1 .1 1.5h-4.1v.8h1.4c.8 0 1.8 0 2.9-.1v1.2c-1 0-1.9-.1-2.8-.1h-1.5v1h3.2c.3 0 1 0 2.1-.1v1.2c-1.1 0-1.8-.1-2.1-.1h-3.4l-.1.1c1.4 1 2.4 1.5 3.4 1.9zm-4.1-6.7v-1.3h-2.7v1.3zm2.2-4.1v-1.1h-3.4v1.1zm1.9 4.1v-1.3h-2.8v1.3z" fill="#fafbfa"/><path d="m37 6.7v2.3 5.4c1 0 1.8 0 2.2-.1v1.3c-.6 0-1.5-.1-2.5-.1h-11.9c-.7 0-1.3 0-1.8.1v-1.3c.5 0 1.1.1 2 .1v-5.2c0-1 0-1.8-.1-2.5h3.7c0-1.3 0-2.1-.1-2.5h1.5c0 .4-.1 1.3-.1 2.5h2.2c0-1.2 0-2.1-.1-2.6h1.5c0 .4-.1 1.3-.1 2.6zm-12.3 13.7c-.3-.4-.7-.8-1.1-1.1 1.1-.4 2.1-.9 2.9-1.3.8-.5 1.5-1 2.1-1.6.4.4.9.8 1.3 1.1-2.5 1.4-4.2 2.4-5.2 2.9zm3.9-10.1v-2.4h-2.2v2.4zm0 4.1v-2.9h-2.2v2.9zm3.5-4.1v-2.4h-2.2v2.4zm0 4.1v-2.9h-2.2v2.9zm.4 2.9 1-1.1c.6.3 1.4.7 2.5 1.3s2 1.1 2.7 1.5c-.4.4-.8.8-1.1 1.3-.8-.8-2.5-1.7-5.1-3zm3.1-7v-2.4h-2.1v2.4zm0 4.1v-2.9h-2.1v2.9z" fill="#fafbfa"/><g fill="#010103"><path d="m206.01 374.55c0-1.09 0-2.18 0-3.27 0-19.59-.95-39.24.31-58.74.98-15.16.2-30.15-.32-45.2-.32-9.27-1.69-18.51-1.97-27.78-.41-13.52-.66-27.07-.28-40.59.67-23.82 2.16-47.62 2.63-71.44.12-6.17-1.5-12.66-3.63-18.54-3.68-10.16-8.37-19.96-12.92-30.56 13.59-1.72 26.75-3.62 39.96-5.01 16.35-1.72 32.72-3.32 49.13-4.36 6.53-.41 13.16.8 19.74 1.27.02.47.05.93.07 1.4-3.01.57-6 1.29-9.03 1.67-4.43.55-8.94.59-13.33 1.35-4.91.84-5.46 2.15-3.76 6.71 1.17 3.14 2.34 6.28 3.5 9.43 2.56 6.96-1.61 18.86-8.11 22.38-1.53.83-3.84 1.26-5.43.75-6.21-1.99-12.05-1.09-17.91 1.21-2.28.9-4.67 1.52-7.02 2.26-6.94 2.17-10.35 7.57-9.3 14.83.54 3.76 1.63 7.51 1.66 11.27.04 5.2-.51 10.43-1.13 15.61-.3 2.49.02 4.39 2.62 4.86 2.36.43 3.62-1.01 4.11-3.36.83-4.04 1.86-8.05 2.98-12.85.99 1.63 1.84 2.69 2.33 3.91 2.29 5.6-.18 14.44-4.99 18.2-2.25 1.76-5.61 1.43-7.47-.8-4.37-5.26-6.84-11.18-6.44-18.18.36-6.25.5-12.52.77-18.78.03-.76.06-1.61.39-2.26 2.14-4.14 4.34-8.26 6.56-12.36 1.7-3.13 3.85-5.77 7.62-6.48 6.24-1.18 12.44-2.93 18.73-3.41 12.7-.98 18.4-8.92 14.61-21.32-.49-1.6-1.21-3.14-1.59-4.77-1.25-5.3-3.11-5.86-8.98-5.37-4.11.35-8.14 1.53-12.25 1.89-14.26 1.24-28.54 2.29-42.81 3.4-5.91.46-7.95 3.12-5.78 8.76 3.81 9.9 8.15 19.59 12.14 29.43.73 1.8 1.2 3.86 1.2 5.79.07 44.21.11 88.43-.02 132.64-.02 5.89-1.48 11.78-1.5 17.68-.03 10.4 1.06 20.81.73 31.19-.51 15.75-1.81 31.48-2.83 47.22-.38 5.81-.88 11.6-1.37 17.4-.09 1.02-.37 2.03-.56 3.04-.35-.04-.71-.08-1.06-.12z"/><path d="m211.41 51.3c-4.45 2.46-9.41 2.79-14.37 3.28-5.2.51-10.51.79-15.52 2.11-2.62.69-5.32 2.96-6.95 5.25-8.91 12.51-12.06 26.83-11.63 41.92.29 10.04 1.64 20.05 2.08 30.09.33 7.47-.14 14.97-.05 22.45.06 5.36.37 10.72.78 16.06.08 1.08 1.08 2.9 1.75 2.94 1.26.08 2.95-.54 3.81-1.47 4.23-4.52 6.97-9.97 7.7-16.09 1.13-9.42 1.73-18.91 2.68-28.35.23-2.31.96-4.57 1.46-6.86.46.02.92.05 1.39.07.55 3.08 1.35 6.13 1.61 9.24 1.03 12.16.08 24.16-4.16 35.69-.89 2.41-2.6 4.64-4.35 6.56-2.93 3.22-6.1 6.25-9.38 9.13-2.2 1.93-3.15 4.12-3.19 6.99-.14 11.29-.18 22.59-.64 33.87-.61 14.83-1.57 29.65-2.38 44.48-.31-.01-.62-.02-.93-.04-.49-12.31-1-24.62-1.47-36.93-.49-12.75-.91-25.5-1.52-38.24-.06-1.16-.99-2.88-1.97-3.29-15.74-6.72-20.79-20.3-22.58-35.65-.91-7.83-.69-15.79-.8-23.7-.02-1.57.79-3.14 1.37-5.26 3.92 10.44 6.84 20.32 5.82 31-.51 5.33.89 10.33 3.29 15.2 1.71 3.47 3.76 6.18 7.34 7.78 2.02.9 3.88 2.19 6 3.42 2.28-3.78 3.57-7.76 2.85-11.91-3.18-18.44-1.37-37.08-2.38-55.61-.69-12.65-1.55-25.25-5.26-37.44-1.96-6.44-6.3-10.85-12.62-13.41-8.18-3.31-16.21-1.97-24.33.21-3.42.92-7 1.9-10.47 1.79-3.4-.11-6.76-1.59-10.08-3.02 4.83-3.25 10.04-4.38 15.43-4.89 30.62-2.89 61.24-5.81 91.86-8.63 3.19-.29 6.44-.04 9.66-.04.06.44.11.87.15 1.3zm-41.38 6.44c-7.56 1.64-14.27 3.1-21.36 4.64 3.01 6.09 5.83 11.81 9.08 18.39 5.98-7 11.43-13.31 12.28-23.03z"/><path d="m181.49 239.51c3.49 7.15 2.66 14.33 2.28 21.6-.67 13.05-.74 26.14-1.17 39.2-.08 2.38-.42 4.82-1.09 7.1-.78 2.67-2.48 5.1-3.05 7.78-1.86 8.86-17.41 14.33-24.4 9.82-1.69-1.09-3.5-2.49-4.41-4.2-5.87-11.01-8.21-23.06-10.17-35.25-2.72-16.95-.36-33.96-.83-50.93 0-.15.21-.31.95-1.31 1.63 8.18 3.65 15.61 4.44 23.17.73 6.95.1 14.04.11 21.07.01 8.65 2.03 10.79 10.55 9.89 6.76-.72 13.46-2.15 20.14-3.48.91-.18 1.85-1.46 2.32-2.45 3.52-7.46 2.56-15.28 1.59-23.07-.78-6.45.05-12.65 2.74-18.94zm-35.5 61.56c.35 6.43 5.43 12.31 11.46 17.44 2.53 2.15 8.77 1.98 10.42.17 5.1-5.6 9.97-11.19 10.21-19.55.17-5.8-2.69-9.33-8.43-8.56-6.3.85-12.58 1.8-18.86 2.78-4.81.75-4.83.84-4.8 7.72z"/><path d="m259.95 240.06c-3.1-6.53-2.44-13.45-2.04-20.37.3-5.24.36-10.49.51-15.73.12-4.28-1.67-7.76-4.52-10.83-4.27-4.6-4.7-8.62-.44-13.24 3.97-4.31 5.04-8.91 4.63-14.58-.95-13.4-.65-26.81 1.08-40.16.14-1.09.35-2.18.56-3.43 3.33 1.17 3.87 3.94 3.87 6.54 0 3.78-.44 7.58-.96 11.33-.69 5.01-.86 9.9.12 14.95.93 4.79 1.4 9.78 1.18 14.64-.22 4.83 1.85 7.96 5.54 10.22 2.37 1.45 2.99 3.29 2.98 5.84-.01 5.32-1.65 9.56-6.92 11.75-2.59 1.08-3.32 2.97-3.13 5.84.47 7.36.84 14.75.66 22.12-.12 5.04-1.22 10.06-1.89 15.1-.42 0-.82 0-1.23.01z"/><path d="m227.04 257.25c22.1-3.61 44.22-5.67 66.52-.65-5.31 2.55-10.06 5.56-16.4 5.38-8.31-.24-16.68.99-25.01 1.72-4.56.4-9.1 1.21-13.66 1.54-1.32.1-2.75-.76-4.06-1.34-1.1-.49-2.14-1.17-3.14-1.85-1.6-1.08-3.15-2.24-4.73-3.37.15-.46.31-.94.48-1.43z"/><path d="m182.02 28.73c-7.18 1.31-13.47 2.88-19.84 3.54-12.56 1.31-25.18 2.13-37.77 3.12-3.48.27-3.49.21-4.28-3.13 6.53-1.01 13-2.19 19.52-2.97 10.76-1.29 21.55-2.4 32.34-3.42 3.15-.3 6.48-.54 10.03 2.86z"/></g></svg>