<svg enable-background="new 0 0 400 400" viewBox="0 0 400 400" xmlns="http://www.w3.org/2000/svg"><g fill="#010102"><path d="m285.33 320.77c-2.17 2.81-3.55 2.9-6.7.49-.97-.74-1.77-1.72-2.76-2.44-3.85-2.79-7.29-2.44-10.36 1.04-8.58 9.74-17.08 19.56-25.77 29.2-2.21 2.45-5.03 4.35-7.7 6.61-2.12-3.49-2.08-6.74-.67-9.75 2.98-6.34 5.9-12.66 11.25-17.65 6.7-6.26 12.83-13.04 16.52-21.75 2.62-6.17.81-11.59-2.3-16.52-12.39-19.61-17.98-41.38-22.03-63.91-4.62-25.72-7.36-51.59-8.58-77.65-.09-1.98-.85-3.02-2.47-3.89-4.48-2.41-9.24-2.01-14.08-1.9-5.44.12-10.89-.43-16.34-.56-4.56-.11-9.18-.45-13.69.04-12.66 1.39-25.1 1.74-37.55-2.2-3.73-1.18-8.35.28-12.54.73-6 .66-11.99 1.52-17.98 2.26-.75.09-1.74.24-2.27-.13-5.66-3.91-11.91-1.79-17.93-1.87-3.57-.05-7.19.21-10.7-.31-5.64-.85-7.88-4.14-7.43-10.37 6.11-.59 12.33-.96 18.47-1.85 10.65-1.54 21.16-1.12 31.63 1.25 2.06.47 4.03.71 5.66-1.52.62-.85 2.56-1.02 3.9-1.03 29.56-.05 59.13-.04 88.69-.04h4.41c-.37-4.78-.5-9.33-1.12-13.8-1.59-11.58.2-22.96 1.43-34.42 1.09-10.21 1.73-20.47 2.37-30.73.32-5.15 1.89-7 7.47-7.56 3.03 5.82 4.4 12.07 4.24 18.65-.14 5.82-.55 11.63-.66 17.44-.08 4.02 1.07 5.84 5 6.21 3.17.3 6.81.01 9.63-1.32 7.52-3.54 14.21-8.37 19.43-15.06 2.4-3.08 5.01-6.1 7.98-8.61 6.44-5.45 8.14-12.58 7.96-20.45-.1-4.5 1.4-7.99 5.08-10.69 2.15-1.58 3.81-1.27 5.65.36 3.49 3.11 3.8 7.28 2.68 11.16-2.68 9.34-5.91 18.52-9.01 27.74-.33.99-1.23 1.82-1.97 2.64-7.37 8.22-15.91 15-25.2 20.95-7.06 4.52-13.93 9.36-20.74 14.27-1.22.88-2.3 2.74-2.43 4.24-.52 6-.65 12.04-.93 18.24 8.63 2.26 17.03 4.58 25.49 6.61 2.22.53 2.97 1.61 3.62 3.64 3.26 10.2 6.61 20.38 10.18 30.47 2.09 5.9 5.87 10.76 10.52 14.95 1.74 1.57 3.59 3.1 5.04 4.93 4.28 5.43 9.99 7.01 16.6 7.1 2.07.03 4.73 1.06 6.06 2.56 2.7 3.05 1.74 5.04-3.11 7.68-2.88-3.06-6.81-2.87-10.74-2.77-3.53.09-6.75-.73-9.81-2.71-6.76-4.37-13.47-8.92-20.64-12.54-6.72-3.4-10.02-8.96-12.25-15.52-1.57-4.65-2.66-9.46-4.08-14.16-2.2-7.31-6.84-10.81-14.06-10.39-.65 6.22-1.34 12.51-1.98 18.82-.56 5.57-.91 11.16-1.66 16.7-.3 2.24.18 3.82 1.65 5.43 2.32 2.54 3.56 5.14 1.44 8.73-1.45 2.46-.95 5.26.73 7.93 1.45 2.3 2.61 4.94 3.22 7.58 2.35 10.24 4.42 20.54 6.61 30.82.16.76.21 1.63.62 2.25 4.99 7.63 6.08 16.77 9.7 24.9 1.6 3.58 3.94 6.97 6.53 9.93 1.83 2.09 4.26 2.32 6.3-.73 3.29-4.93 6.98-9.59 10.47-14.37 3.8-5.2 8.45-8.87 15.47-8.72.57 3.61.65 6.83-1.77 9.89-2.35 2.97-4.16 6.37-6.4 9.44-1.84 2.52-3.07 5.07-2.75 8.33.11 1.06-.5 2.41-1.2 3.3-1.79 2.28-4.04 4.23-5.68 6.6-1.68 2.43-3.12 5.1-4.12 7.87-.41 1.13.21 3.15 1.08 4.13 6.02 6.78 12.21 13.41 18.42 20.02.81.86 2 1.37 3.01 2.05 2.95 2 5.99 3.88 8.8 6.07 1.17.91 2.07 2.36 2.69 3.75 1.2 2.66.08 8.1-1.63 9.06-2.54 1.42-8.58.61-10.53-1.4-5.06-5.23-10.19-10.4-15.1-15.76-.99-1.08-1.7-2.96-1.6-4.39.19-2.23-.57-3.14-2.68-3.62z"/><path d="m157.19 374.95c-4.9-7.44-7.28-15.57-7.41-24.17-.31-20.72-5.21-40.76-8.42-61.06-2.16-13.68-3.58-27.48-5.17-41.24-1.08-9.33-1.7-18.72-2.85-28.04-.77-6.24-3.6-11.87-7.64-16.54-5.02-5.81-10.53-11.23-16.08-16.56-6.36-6.11-14.59-7.26-22.94-7.92-4.55-.36-6.56-3.5-4.85-7.69.41-.99 1.71-2.1 2.76-2.28 16.2-2.77 32.4-5.53 48.65-7.91 2.76-.4 5.77 1.07 8.69 1.52 1.92.29 3.94.65 5.82.36 4.41-.68 8.74-2.16 13.16-2.48 3.69-.27 7.46.63 11.2 1.07 2.77.33 5.54.73 8.31 1.12 5 .7 8.19 3.7 10.73 8.9-3.92 2.43-7.57 5.66-11.83 7.09-4.95 1.66-8.7 4.41-12 8.12-4.61 5.18-9.36 10.25-13.61 15.71-1.21 1.56-1.28 4.32-1.21 6.51.49 15.54 1.1 31.07 1.8 46.6.16 3.47-.33 6.68-2.28 9.56-1.44 2.13-1.38 4.25-.77 6.68 2.66 10.62 5.16 21.28 7.68 31.93 3.31 13.99 2.74 28.19 2.45 42.41-.14 7.12.41 14.26.87 21.38.26 3.94-.33 5.09-5.06 6.93zm-31.21-192.27c3.93 5.04 7.46 9.57 11.15 14.3 3.56-5.1 6.92-9.91 10.65-15.25-2.54-.87-4.76-2.39-6.78-2.16-4.82.54-9.54 1.91-15.02 3.11z"/><path d="m99.32 320.39c-2.06 0-3.71 0-5.57 0-1.24-5.03-2.34-10.04-3.72-14.98-4.18-14.99-7.74-30.1-8.03-45.76-.16-8.43.83-16.7 5.11-24.69 5.51 4.59 8.63 10.35 10.77 16.73 2.7 8.07 3.22 16.44 3.07 24.84-.22 12.18-.71 24.36-1.12 36.54-.09 2.36-.33 4.69-.51 7.32z"/><path d="m189.01 98.63c-4.52 2.19-7.96 3.99-11.54 5.49-1 .42-2.45.14-3.57-.21-6.38-2.01-12.93-2.22-19.55-2.32-15.22-.21-30.33-1.46-45.32-4.45-4.66-.93-5.13-4.21-6.7-7.44 4.09-2.61 8.64-2.91 13.15-3.71 12.57-2.23 24.92.63 37.36 1.2 7.03.32 14.07.74 21.03 1.65 3.11.4 6.32 1.69 9 3.35 2.28 1.42 3.85 3.95 6.14 6.44z"/><path d="m201.09 307.92c-3.2 1.99-5.37 1.18-6.43-2.22-1.65-5.3-4.13-10.57-4.57-15.99-1.06-13-1.75-25.91-5.07-38.7-2.31-8.9-2.95-18.36-.53-27.6.3-1.17.66-2.32 1.29-4.55 3.23 2.22 6.5 3.67 8.65 6.12 4.53 5.17 6.92 11.35 6.8 18.44-.15 9.51-.13 19.03 0 28.54.07 4.96-.27 9.77-2.07 14.47-.49 1.29-.29 3.1.2 4.45 2.05 5.6 2.32 11.32 1.73 17.04z"/></g><path d="m6.4 11.7c-1-.8-1.9-1.6-2.9-2.3l.6-.7c.9.7 1.9 1.4 2.9 2.2zm-2.1 8.3c.7-2.1 1.4-4.2 2-6.4.2.1.6.3 1 .4-.7 2.3-1.3 4.4-1.9 6.4zm3-12.8c-1.1-.9-2.1-1.7-2.9-2.4l.6-.7c1 .8 2 1.5 3 2.4zm1.4-1.3v-.9h10.2v.9c-.9 4.2-2.3 7.3-4.1 9.4 1.3 1.4 3.2 2.7 5.7 4-.2.2-.4.5-.7.9-2.5-1.4-4.4-2.7-5.7-4.2-1.4 1.5-3.5 3-6.1 4.4 0 0 0 0-.1-.1-.3-.4-.5-.7-.7-.8 2.7-1.3 4.7-2.8 6.2-4.2-1.8-2.2-3-5.3-3.7-9.4zm9.2 0h-7.1c.6 3.8 1.7 6.7 3.4 8.7 1.7-2 2.9-4.8 3.7-8.7z" fill="#fafbfa"/><path d="m31.6 3.6h.9v2.3h4.1v9.1h1.7v.9h-16.6v-.9h1.7v-9.1h4.1v-2.3h.9v2.3h3.1v-2.3zm-4 13.3.6.8c-1.9.9-3.8 1.9-5.8 2.8-.2-.3-.3-.6-.5-.9 2-.9 3.9-1.8 5.7-2.7zm-3.2-10.1v3.7h3.1v-3.7zm0 4.5v3.7h3.1v-3.7zm4.1-4.5v3.7h3.1v-3.7zm0 4.5v3.7h3.1v-3.7zm9.1 9.1c-2.1-1.1-4.1-2-5.8-2.7l.5-.8c2.2.9 4.1 1.8 5.8 2.6zm-1.9-13.6h-3.1v3.7h3.1zm-3.2 4.5v3.7h3.1v-3.7z" fill="#fafbfa"/></svg>