<svg enable-background="new 0 0 400 400" viewBox="0 0 400 400" xmlns="http://www.w3.org/2000/svg"><path d="m6.8 9.5c.6.3 1.3.7 2.1 1.1-.4.4-.7.8-.9 1.2-.7-.4-1.3-.8-1.8-1.1s-1.1-.6-1.6-.8c.2-.4.5-.8.7-1.2.4.2.8.5 1.5.8zm.9 6.9c-.3.6-.5 1.1-.7 1.7s-.4 1.1-.6 1.7c-.6-.4-1.1-.7-1.6-1 .7-1 1.2-1.8 1.5-2.4.3-.5.6-1.1.8-1.7.3-.6.5-1.2.8-1.8.3.3.8.6 1.3.8-.7 1.3-1.2 2.2-1.5 2.7zm.1-11c.4.3 1 .7 1.7 1.1-.5.2-.8.6-1.1 1.1-.5-.6-1-1-1.4-1.2s-.9-.6-1.5-.8c.2-.4.5-.7.9-1.1.5.3.9.6 1.4.9zm10.5 13.1c1 .4 2 .6 3.1.7-.4.4-.7.8-.8 1.3-.9-.2-1.9-.6-3-.9-1-.4-2-.9-2.8-1.6-.5.4-1.1.9-1.9 1.3s-1.9.9-3.3 1.2c-.1-.3-.5-.8-1.1-1.3 1 0 2.1-.3 3.2-.8 1.2-.5 1.9-1 2.3-1.7h-3.2c-.4 0-1 0-2 .1v-1.2c1 0 1.7.1 2 .1h3.3v-1h-2.3c-.2 0-.9 0-2 .1v-1.2c1.2 0 1.9.1 2 .1h2.3v-.8h-4.1c0-.7.1-1.2.1-1.6 0-.5 0-1.1-.1-1.8h4.1v-.7h-2.5c0-.6.1-1.1.1-1.6v-.6h-.5c-.4 0-1 0-1.8.1v-1.3c1.2 0 1.9.1 2.1.1h.2c0-.3 0-.8-.1-1.4h1.4c0 .6-.1 1-.1 1.4h3.4c0-.4 0-.8-.1-1.3h1.5c0 .4-.1.9-.1 1.3.7 0 1.5 0 2.5-.1v1.2c-1 0-1.8-.1-2.5-.1v.6c0 .3 0 .8.1 1.5h-2.5v.8h4.1c0 .7-.1 1.3-.1 1.8s0 1 .1 1.5h-4.1v.8h1.4c.8 0 1.8 0 2.9-.1v1.2c-1 0-1.9-.1-2.8-.1h-1.5v1h3.2c.3 0 1 0 2.1-.1v1.2c-1.1 0-1.8-.1-2.1-.1h-3.4l-.1.1c1.4 1 2.4 1.5 3.4 1.9zm-4.1-6.7v-1.3h-2.7v1.3zm2.2-4.1v-1.1h-3.4v1.1zm1.9 4.1v-1.3h-2.8v1.3z" fill="#fafbfa"/><path d="m37 6.7v2.3 5.4c1 0 1.8 0 2.2-.1v1.3c-.6 0-1.5-.1-2.5-.1h-11.9c-.7 0-1.3 0-1.8.1v-1.3c.5 0 1.1.1 2 .1v-5.2c0-1 0-1.8-.1-2.5h3.7c0-1.3 0-2.1-.1-2.5h1.5c0 .4-.1 1.3-.1 2.5h2.2c0-1.2 0-2.1-.1-2.6h1.5c0 .4-.1 1.3-.1 2.6zm-12.3 13.7c-.3-.4-.7-.8-1.1-1.1 1.1-.4 2.1-.9 2.9-1.3.8-.5 1.5-1 2.1-1.6.4.4.9.8 1.3 1.1-2.5 1.4-4.2 2.4-5.2 2.9zm3.9-10.1v-2.4h-2.2v2.4zm0 4.1v-2.9h-2.2v2.9zm3.5-4.1v-2.4h-2.2v2.4zm0 4.1v-2.9h-2.2v2.9zm.4 2.9 1-1.1c.6.3 1.4.7 2.5 1.3s2 1.1 2.7 1.5c-.4.4-.8.8-1.1 1.3-.8-.8-2.5-1.7-5.1-3zm3.1-7v-2.4h-2.1v2.4zm0 4.1v-2.9h-2.1v2.9z" fill="#fafbfa"/><g fill="#010103"><path d="m32.92 221.91c6.32 2.62 11.89 4.87 17.4 7.27.8.35 1.47 1.31 1.88 2.15 2.74 5.62 5.47 11.25 8 16.98.4.92.13 2.59-.49 3.43-3.64 4.99-2.62 10.79 2.77 14.23 4.83 3.09 10.29 3.88 15.8 3.3 7.21-.76 14.36-2.14 21.54-3.19 3.4-.5 4.84-2.71 4.77-5.8-.06-2.42-.8-4.82-1.09-7.24-.52-4.28-1.44-8.6-1.31-12.87.41-13.53 1.28-27.04 1.82-40.57.05-1.2-.7-2.85-1.63-3.62-9.78-8.02-19.42-16.23-29.64-23.66-4.61-3.35-10.27-5.44-15.71-7.38-5.21-1.85-8.43-4.46-7.84-10.42.15-1.52-.31-3.09-.56-5.29 3.88-.42 7.61-1.24 11.31-1.12 6.92.22 13.81 1.23 20.73 1.44 4.29.13 8.8.05 12.84-1.16 2.65-.8 4.97-3.52 6.85-5.86 1.63-2.03 1.33-4.49.18-7.18-9.75-22.91-24.38-42.93-37.76-63.65-2.12-3.28-7.18-4.59-10.65-7.12-2.06-1.5-4.31-3.3-5.39-5.5-2.69-5.49-2.03-6.97 3.02-10.29.65-.43 1.38-.77 1.97-1.27 7.42-6.42 15.99-8.94 25.81-9.04 11.5-.12 22.98-1.59 34.49-1.99 5.54-.19 11.12 1 16.69 1.08 10.51.15 21.03-.13 31.54-.1 8.53.03 17.05.44 24.83 4.48 2.33 1.2 4.34 3 6.89 4.8-6.34 6.19-10.41 13.94-18.66 17.21-12.04 4.76-20.62 13.09-26.63 24.51-6.43 12.2-17.37 20.63-26.65 30.41-1.89 2-2.51 3.95-1.72 6.29 1.32 3.89 2.97 7.67 4.38 11.54 1.63 4.48 3.1 9.03 4.78 13.49.39 1.03 1.16 2.14 2.08 2.7 5.6 3.44 11.72 4.05 17.7 1.66 5.25-2.09 10.17-5.04 15.14-7.77 8.02-4.41 15.95-8.97 23.95-13.41 1.06-.59 2.28-.97 3.48-1.2 3.37-.65 5.89 1.54 5.27 4.9-.34 1.87-1.24 3.86-2.47 5.31-6.73 7.94-13.05 16.36-20.66 23.37-5.97 5.5-13.36 9.65-20.57 13.58-7.41 4.03-14.69 7.99-20.5 14.29-2.69 2.91-4.38 6.11-5.17 9.93-3.76 18.16-4.61 36.59-5.26 55.04-.04 1.09 1.17 2.61 2.21 3.28 6.33 4.09 13.46 4.37 20.69 3.98.22-.01.44-.09.67-.08 6.94.08 12.33-2.65 16.72-8.16 2.97-3.73 6.73-6.86 10.3-10.09 5.28-4.78 13.48-5.83 19.72-2.49 1.27.68 2.28 2.1 3.07 3.39 4.96 8.03 5.32 16.87 3.2 25.62-2.36 9.75-5.15 19.46-8.74 28.81-1.99 5.18-5.83 9.71-9.12 14.33-5.38 7.57-11.22 14.81-16.43 22.49-6.6 9.72-16.11 13.44-27.2 14.02-12.06.63-24.13.96-36.2 1.32-1.49.04-3.14-.31-4.48-.96-11.04-5.42-22.02-10.94-33-16.47-.96-.48-2.04-1.12-2.59-1.98-7.92-12.57-16.24-24.94-20.41-39.46-1.65-5.74-2.96-11.48-2.08-17.49 1.9-12.92-.25-25.64-1.76-38.39-.7-5.86-1.36-11.73-2.12-18.36zm80.89 65.14c0-.26 0-.52 0-.78-8.82-.34-17.72-.09-26.45-1.19-8.22-1.04-15.14 1.49-21.93 5.27-.87.49-1.76 1.71-1.88 2.68-1.47 12.07 4.1 21.34 12.1 29.57.51.52 1.35.77 2.07 1.04 6.69 2.52 13.38 5.03 20.08 7.51.82.3 1.72.57 2.58.55 11.29-.26 22.29-2.07 32.43-7.26 9.3-4.76 17.55-10.72 20.88-21.45.82-2.65 2.23-5.11 3.36-7.67 1.66-3.74.76-6.06-3.12-7.4-1.56-.54-3.28-.82-4.93-.83-11.73-.07-23.46-.04-35.19-.04zm3.21-232.6c-6.92-1.29-12.59 1.74-18.3 4.96-7.33 4.13-8.1 5.75-4.61 13.68 1.19 2.71 2.96 5.22 4.74 7.62 2.86 3.85 5.98 7.5 8.93 11.29 3.86 4.96 10.15 4.66 12.59-1.02 4.22-9.82 8.06-19.81 11.89-29.78 1.27-3.3.55-4.53-2.98-5.18-4.04-.74-8.17-1.06-12.26-1.57z"/><path d="m272.97 275.62c1.4-24.23 3.01-48.46 4.11-72.7.44-9.59-.23-19.22-.47-28.84-.03-1.32-.39-2.65-.73-3.95-2.14-8.15-9.88-10.71-16.24-5.04-10.17 9.06-22.51 12.43-35.49 14.35-2.76.41-5.56.59-8.35.68-4.12.13-7.07-3.17-6.41-7.29.81-5.09 2.35-9.65 6.25-13.63 9.47-9.66 18.63-19.66 27.53-29.86 8.69-9.96 19.42-17.5 29.45-25.87 1.88-1.57 2.78-3.15 2.9-5.59 1.07-21.68 2.22-43.35 3.41-65.02.32-5.73 1.6-7.54 7.37-7.58 3.53-.03 7.5 1.43 10.46 3.42 1.65 1.11 2.2 4.7 2.21 7.17 0 3.19-.95 6.4-1.66 9.56-2.33 10.41.4 20.44 2.2 30.53 1.64 9.24 3.34 18.48 5.15 27.69.3 1.55 1.07 3.19 2.09 4.38 7.79 9.03 17.66 15.38 27.93 21.16 7.79 4.38 15.85 8.38 21.66 15.53 3.42 4.21 5.38 8.92 5.48 14.43.04 2.12-.76 3-2.76 3.29-5.98.87-11.52-.85-17.05-2.7-7.29-2.44-14.5-5.18-21.89-7.26-3.36-.94-7.09-.91-10.63-.78-5.84.22-9.48 3.95-9.06 9.71.38 5.32.52 11.09 2.68 15.77 7.55 16.31 9.59 33.87 12.92 51.16.78 4.06 1.33 8.17 2.23 12.2.35 1.56 1.16 3.14 2.14 4.42 5.66 7.31 9.07 15.32 8.56 24.78-.18 3.33.23 6.7.38 10.05.21 4.67 1.69 8.74 5.55 11.68 1.59 1.21 2.16 2.66 1.34 4.65-4.64 11.25-4.4 22.89-2.48 34.59.78 4.78.19 9.26-1.25 13.83-2.04 6.5-3.83 13.08-5.55 19.67-.6 2.31-1.62 4.03-3.72 5.21-1.85 1.04-3.54 2.36-5.37 3.42-2.67 1.55-4.87 3.47-8.47.6-2.34-1.87-6.39-1.51-9.62-2.38-1.28-.34-2.69-1.05-3.53-2.03-18.89-22.24-26-48.19-24.11-76.96.36-5.47.57-10.95.85-16.42.02-.03 0-.03-.01-.03z"/></g></svg>