<svg enable-background="new 0 0 400 400" viewBox="0 0 400 400" xmlns="http://www.w3.org/2000/svg"><path d="m374.8 390.4.4-.4c.7.5 1.3 1 1.8 1.4l-.5.5c-.5-.6-1.1-1.1-1.7-1.5zm1 7.3-.6-.3c.5-1.4 1.1-2.8 1.5-4.3.2.1.4.2.6.3-.5 1.3-1 2.8-1.5 4.3zm-.4-10.3.4-.4c.4.3 1 .8 1.7 1.4l-.5.5c-.4-.5-1-1-1.6-1.5zm2.5.3h1.7v-1h.6v1h3.5v-1h.6v1h1.8v.5h-1.8v1.4h-2v1h3.2v2h-3.2v.9h3.3v.5h-3.4c0 .3-.1.6-.1.9h4v.5h-3.7c.7.9 1.9 1.5 3.8 1.7-.1.2-.2.4-.3.6-2.1-.4-3.5-1.1-4-2.1-.4 1-1.8 1.7-4 2.2-.1-.2-.2-.4-.3-.6 2.1-.4 3.4-1 3.8-1.8h-3.4v-.5h3.6c.1-.3.1-.6.2-.9h-3.3v-.5h3.4c0-.3 0-.6 0-.9h-3.2v-2h3.3v-1h-2.1v-1.4h-1.7v-.5zm1.1 3.5v1h2.7c0-.3 0-.4 0-.4 0-.1 0-.2 0-.2 0-.1 0-.2 0-.3h-2.7zm1.2-3v.9h3.5v-.9zm4.7 3h-2.6v.6.4h2.6z" fill="#fbfcfa"/><path d="m393.6 386.7h.6v1.5h2.7v6.1h1.1v.6h-11v-.6h1.1v-6.1h2.7v-1.5h.6v1.5h2.1v-1.5zm-2.7 8.8.4.6c-1.2.6-2.5 1.3-3.8 1.9-.1-.2-.2-.4-.3-.6 1.2-.6 2.5-1.2 3.7-1.9zm-2.2-6.7v2.4h2.1v-2.4zm0 3v2.5h2.1v-2.5zm2.8-3v2.4h2.1v-2.4zm0 3v2.5h2.1v-2.5zm6 6.1c-1.4-.7-2.7-1.3-3.9-1.8l.3-.6c1.5.6 2.7 1.2 3.9 1.7zm-1.2-9.1h-2.1v2.4h2.1zm-2.1 3v2.5h2.1v-2.5z" fill="#fbfcfa"/><path d="m138.03 370.37c10.99-4.19 21.65-7.9 32.01-12.31 9.98-4.24 19.72-9.09 27.44-17.09 9.22-9.55 14.83-21.13 19.24-33.77-5.03-1.34-9.86-.6-14.64.26-8.46 1.51-16.28 4.81-23.66 9.11-9.28 5.4-19.03 8.81-29.97 8.01-6.99-.51-13.56-2.39-20.94-5.57 5.12-2.43 9.39-4.66 13.82-6.52 15.05-6.33 30.91-9.55 46.94-12.15 4.15-.67 8.35-1.81 12.19-3.5 9.41-4.13 13.37-12.08 11.18-22.18-.9-4.12-2.44-8.11-3.95-12.07-.52-1.36-1.65-2.66-2.83-3.57-11.99-9.33-25.04-12.12-39.65-6.74-11.92 4.4-23.9 4.05-35.66-.95-.4-.17-.77-.42-1.61-.87 1.37-.92 2.47-1.71 3.62-2.44 15.62-9.83 32.2-16.7 51.12-15.43 13.18.89 24.81 6.28 35.67 13.46.78.52 1.28 1.52 1.79 2.37 2.81 4.71 5.59 9.43 8.35 14.16 2.85 4.87 6.9 8.21 12.47 9.38.98.21 2.7-.4 3.24-1.2 9.53-14.24 16.98-29.43 20.33-46.37 2.72-13.75.14-26.91-4.97-39.71-.32-.8-.94-1.53-1.55-2.15-10.54-10.67-21.11-21.31-31.67-31.96-.38-.39-.84-.71-1.37-1.15-3.88 8.62-5.8 17.59-5.92 26.8-.11 8.75-6.42 16.71-18.36 19.09 0-1.36 0-2.65 0-3.94 0-35.82-.04-71.64.07-107.46.01-2.68-.86-3.91-3.2-4.99-11.67-5.36-23.26-10.9-35.12-16.49-3.97 6.34-6.24 13.21-7.42 20.37-1.07 6.49-1.42 13.1-2.15 19.64-.4 3.55-.62 7.16-1.47 10.6-1.62 6.59-6.91 10.67-13.67 10.75-3.21.04-6.42-.37-10.03-.6.42-7.31.78-14.21 1.22-21.09.93-14.74 1.93-29.48 2.84-44.22.36-5.76-3.83-12.86-8.8-15.17-5.57-2.59-6.96-4.97-6.24-11.02.21-1.75.68-3.47 1.1-5.59 1.39.38 2.54.64 3.65 1.01 40.39 13.44 80.79 26.87 121.17 40.33 10.25 3.41 18.65 9.61 25.69 17.64 4.31 4.92 6.37 10.7 5.16 17.76-4.19-.93-8.28-1.81-12.36-2.74-6.86-1.56-13.77-2.97-20.56-4.82-3.06-.83-5.9-2.53-8.8-3.92-1.47-.71-2.84-1.61-4.63-2.64-.07 1.61-.16 2.69-.16 3.77-.01 9.74.07 19.48-.06 29.22-.03 2.33.68 3.93 2.37 5.51 13.36 12.46 26.11 25.5 36.8 40.39 5.43 7.56 10.38 15.4 13.1 24.41 3.8 12.63 2.92 25.4-.42 37.78-3.6 13.34-8.4 26.36-12.86 39.45-.66 1.93-2.23 3.58-3.52 5.24-16.54 21.25-31.41 43.5-41.86 68.49-5.15 12.31-15.34 19.2-27.22 23.9-16.46 6.52-33.81 8.21-51.31 8.83-4.05.15-2.6-3.65-3.97-5.34z" fill="#010106"/></svg>