<svg enable-background="new 0 0 400 400" viewBox="0 0 400 400" xmlns="http://www.w3.org/2000/svg"><g fill="#fafafb"><path d="m12.4 4.8-6.1 9h6v1.2h-8v-.5l6.1-8.9h-5.7v-1.2h7.6v.4z"/><path d="m14 15v-10.6h3c1.6 0 2.9.5 4 1.4s1.6 2.2 1.6 3.8-.5 3-1.6 3.9-2.4 1.5-4 1.5zm1.4-9.4v8.2h1.6c1.3 0 2.4-.4 3.1-1.1s1.1-1.8 1.1-3.1-.4-2.3-1.2-3-1.8-1-3.1-1z"/><path d="m26.1 4.4v10.6h-1.4v-10.6z"/><path d="m36.1 14.6c-.8.4-1.8.6-2.9.6-1.5 0-2.7-.5-3.6-1.4s-1.4-2.2-1.4-3.8c0-1.7.5-3.1 1.5-4.1s2.3-1.6 3.9-1.6c1 0 1.8.1 2.5.4v1.4c-.8-.4-1.6-.6-2.5-.6-1.2 0-2.1.4-2.9 1.2s-1.1 1.8-1.1 3.2c0 1.3.3 2.3 1 3s1.6 1.1 2.7 1.1c1 0 2-.2 2.7-.7v1.3z"/><path d="m37.6 14.3c0-.2.1-.5.3-.6s.4-.3.6-.3c.3 0 .5.1.6.3s.3.4.3.6-.1.4-.3.6-.4.3-.6.3c-.3 0-.5-.1-.6-.3s-.3-.4-.3-.6z"/><path d="m50.2 15h-1.6l-5.3-8.2c-.2-.2-.3-.5-.4-.7 0 .2.1.7.1 1.5v7.4h-1.4v-10.6h1.7l5.2 8.1c.2.4.4.6.4.7 0-.3-.1-.8-.1-1.5v-7.3h1.4z"/><path d="m58.6 15h-5.7v-10.6h5.5v1.2h-4.1v3.4h3.8v1.2h-3.8v3.6h4.3z"/><path d="m67.1 5.6h-3.1v9.4h-1.4v-9.4h-3v-1.2h7.5z"/></g><path d="m34.68 24.89h4.31c24.96 0 49.92-.11 74.88.07 7.01.05 14.01 1.23 21.03 1.42 5.45.14 10.91-.61 16.37-.68 4.19-.05 8.39.5 12.58.53 6.11.04 12.23-.23 18.35-.2 2.5.01 5 .53 7.5.69 1.88.12 3.79.21 5.66.04 10.4-.95 20.76-.66 31.12.6 1.75.21 3.62-.5 5.43-.79.76-.12 1.51-.39 2.26-.37 11.16.25 22.33.51 33.49.83 3.57.1 7.42 1.34 10.65.37 4.05-1.21 7.59.69 11.39.25 3.88-.45 7.81-.48 11.72-.49 1.47 0 2.94.73 4.43.86 1.61.14 3.26-.02 4.89-.07 2.06-.07 4.12-.31 6.18-.23 7.69.27 15.38.86 23.07.9 5.96.03 11.92-.57 18.25-.91v3.13c0 64.35.01 128.71-.04 193.06 0 1.72-.67 3.44-1.12 5.6 4.56 10 1.27 20.44-.01 30.6.64 1.61 1.86 3.22 1.84 4.82-.26 35.87-.66 71.75-1.05 107.62-.01.64-.13 1.28-.22 2.09-107.77 0-215.37 0-322.95 0-.01-116.52-.01-232.86-.01-349.74zm55.32 237.01c-1.39-.46-2.13-.97-2.81-.9-5.41.57-9.99 5.57-10.18 11.18-.07 2.03-.61 4.45 2.07 5.42 2.71.98 5.53 1.62 7.75-.94 3.3-3.8 7.26-6.18 12.37-6.51.98-.06 1.97-.44 2.89-.82 4.07-1.7 5.3-3.85 4.61-8.29-.28-1.76.21-2.72 1.97-3.2 4.67-1.26 8.33-4.1 11.67-7.5 2.35-2.39 4.92-4.56 7.39-6.83 1.67.5 3.22.43 4.7.08 3.34-.79 5.2.65 5.11 4.05-.07 2.64-.18 5.29-.08 7.93.16 4.19.49 8.38.7 12.57.05 1.08-.09 2.17-.15 3.27 1.55.46 2.79.82 3.37.99.31 1.79.73 3.06.7 4.32-.1 3.44.7 7.52-.86 10.17-2.66 4.54-6.87 8.17-10.37 12.23-.38.44-.37 1.2-.64 1.77-.65 1.39-1.12 2.94-2.08 4.07-1.43 1.69-4.42 2.93-4.62 4.61-.6 5.07-5.17 5.98-7.04 8.46-1.98-.38-3.26-.63-4.55-.88-.07.3-.15.6-.22.9.92.58 1.84 1.16 2.99 1.88-2.01 3.54-3.96 6.98-5.85 10.32-2.49.8-5.84 1.01-7.97 2.73-3.96 3.22-7.28 7.25-10.73 11.07-1.44 1.6-.68 2.86 1.32 2.75 2.52-.14 5.02-.73 7.53-1.14 1.29-.21 2.66-.87 3.84-.61 6.46 1.43 9.87-.53 11.49-6.89.41-1.62.75-3.27 1.19-4.89 1.01-3.78 3.77-5.16 7.31-3.68.57-1.32.84-2.89 1.75-3.91 3.71-4.19 7.5-8.28 7.76-14.36 3.8 1.71 5.54.63 5.88-3.38.11-1.22-.02-2.6.51-3.62.43-.82 1.99-1.93 2.5-1.7 3.28 1.48 3.5-.78 4.13-2.92.73-2.49 1.7-4.91 2.78-7.98 4.78 5.33 8.58 10 8.25 16.83-.14 3-.01 6.19 3.13 7.98 3.38 1.92 5.12 4.79 5.44 8.63.07.88.15 1.91.64 2.57.62.84 1.57 1.7 2.54 1.95 1.74.45 3.6.45 6.17.71.4-.35 1.55-1.36 3.08-2.71.99 3.53 1.87 6.69 2.82 10.1 1.91-.93 2.9-1.41 3.95-1.93.39 1.16.73 2.2.79 2.37 2.19.43 3.79 1.02 5.36.93.71-.04 2.06-1.63 1.9-2.13-.96-3.04-1.96-6.16-3.56-8.89-1.45-2.47-3.68-4.48-5.56-6.7-1.81-2.14-.69-6.34 2.06-6.65 3.46-.39 6.91-.28 9.66-2.95.26-.25 1.22.28 1.86.36 3.02.38 6.05.91 9.08 1 1.29.04 2.73-1.5 3.87-1.24 2.47.55 4.79 1.78 6.42 2.44 2.59 0 4.62-.16 6.61.04 3.22.32 6.43.85 9.63 1.36.73.12 1.7.27 2.09.78 3.01 3.87 6.43 4.29 9.64 1.76 2.41.97 4.28 2.33 6.17 2.37 5.92.11 11.84-.33 17.77-.4.89-.01 2.12.58 2.64 1.3 2.06 2.84 5.45 3.7 9.14 2.05 2.07-.93 4.74-4.97 4.4-6.66-.46-2.22-5.98-6.46-8.15-6.21-4.49.52-8.59-.39-12.26-3.07.36-1.11.66-2.02 1.07-3.3-3.33 0-6.37 0-9.4 0-1.99.77-3.81 1.77-6.3-.06-.86-.63-2.7.07-4.92.22-.78-.73-2.24-2.09-3.83-3.58-2.63 1.2-5.23 2.46-7.9 3.55-.85.35-1.9.45-2.81.33-2.51-.32-5.08-1.45-7.47-1.13-6.26.83-10.97-1.08-14.93-5.99-1.63-2.03-2.91-3.74-2.61-6.45.68-6.17 1.19-12.36 1.82-19.01 2.81-.19 3.18-3.24 3.45-6 .27-2.81-1.46-4.45-4.12-5.36-.52-.18-1.06-2.28-.81-2.47 2.59-1.97 1.15-3.9-.46-6.46 1.42-1.03 2.83-2.06 4.6-3.34-1.9-1.58-3.43-2.86-5.14-4.28 2.52-1.58 4.67-2.93 6.75-4.24-.84-2.45-2.61-4.88-2.15-6.76 1.37-5.5-1.65-8.13-5.49-10.6-3.06-1.98-7.89-.21-8.14 3.28-.33 4.61-.08 9.27-.08 13.33-1.36 2.99-2.55 5.61-3.78 8.3 1.06 1.17 2.09 2.3 2.5 2.76-.77 2.6-2.21 4.79-1.77 6.5 1.12 4.41 1.77 8.4-1.65 12.14-.7.77-.73 2.15-1.3 4.02 5.23-1.82 5.33 1.49 5.65 4.45.35 3.22.7 6.46.83 9.69.44 11.4.17 8.84-7.92 12.95-.96.49-2.39.04-3.61.01-1.11-.03-2.23-.2-3.32-.08-.96.11-2.29 1.07-2.78.72-2.98-2.14-5.08-1.12-6.66 1.6-1.58-.78-2.8-1.77-4.13-1.97-2.69-.39-3.51-2.09-4.33-4.34-.76-2.1-1.82-4.38-3.43-5.8-2-1.75-3.09-3.57-3.51-6.12-.28-1.7-.6-3.8-1.72-4.9-4.84-4.73-5.97-11.13-8.24-17.02-.47-1.22-1.12-2.38-1.57-3.61-.4-1.1-.91-2.27-.9-3.4.03-2.45.58-4.91.51-7.36-.06-2.29.02-5.01-1.15-6.75-1.68-2.5-1.04-3.94.64-5.76 3.71-4.01 3.63-6-.19-9.95-1.06-1.1-2.81-2.3-2.85-3.5-.2-6.23-.24-12.5.3-18.71.18-2.01 2.06-4.05 3.56-5.73 1.28-1.43 3.18-2.3 4.7-3.55 1.34-1.09 2.39-2.31 1.24-4.28-1.09-1.88-2.17-3.25-4.73-2.72-1.23.25-2.79.04-3.89-.54-1.99-1.06-3.72-.75-5.23.54-1.46 1.25-2.65 2.82-4.12 4.43-2.68-1.8-5.06-.86-7.19 1.79-.56.7-1.66 1.08-2.58 1.34-4.15 1.16-8.36 2.1-12.46 3.42-1.15.37-1.98 1.76-3.13 2.85-3.39-1.72-6.53.35-7.97 4.86-4.37 2.01-7.96 3.74-11.61 5.34-3.89 1.7-7.95 3.05-11.71 4.99-3.6 1.85-6.91 4.26-10.87 6.75.3-1.32.46-2.05.63-2.78-.22-.18-.45-.35-.67-.53-1.11 1.24-3.03 2.38-3.18 3.73-.46 4.12-2.61 6.6-5.96 8.66-2.39 1.47-2.42 3.68-.32 6.52 2.22-1.92 4.24-3.68 6.86-5.95 2.06.22 4.99-1.94 6.68-6.06 4.61 1.86 6.82-2.53 10.27-4.18.69 1.07 1.34 2.08 2.72 4.22 1.21-1.71 2.03-3.23 3.18-4.42 1.29-1.33 2.73-3.08 4.36-3.42 5.56-1.15 9.97-4.3 14.65-7.14 2.1-1.27 4.79-1.54 7.15-2.41 1.37-.51 2.75-1.16 3.92-2.03.92-.68 1.51-1.8 2.54-3.1 2.54 3.73 5.15 2.64 7.98.03 1.52 3.84 3.44.63 5.37.47 1.69 3.83 3.34 7.54 5.09 11.5-3.62 1.24-4.81 3.82-3.18 7.95.44 1.12-.19 3.26-1.1 4.17-1.57 1.57-3.6 2.89-5.68 3.67-3.5 1.31-7.48 1.6-9.32 5.67-.21.46-1.1.59-1.65.91-1.36.78-3.01 1.32-4.02 2.43-4.34 4.8-8.49 9.77-12.79 14.77-1.24-.6-2.32-1.11-3.22-1.55.28-1.23.5-2.22.73-3.21-.39-.12-.77-.24-1.16-.36-.62 1.89-1.18 3.81-1.87 5.68-.78 1.95-1.63 3.84-2.48 5.91zm73.75-116.9c2.29 1.57 4.15 3.04 6.19 4.16.71.39 2.3.32 2.77-.2 2.67-2.89 5.61-3.76 9.57-2.99 3.36.66 7.28-.86 9.45 3.25.19.37.91.62 1.39.64 2.42.08 4.87-.15 7.27.12 3.14.34 6.23 1.08 9.35 1.58 1.39.22 3.32.9 4.12.26 2.62-2.07 4.53-.73 6.59.65 1.66 1.12 3.16 1.72 5.11.25.76-.58 2.34-.09 3.68-.09-.73 3.24-1.87 5.4-5 6.13-.93.22-1.49 1.71-2.39 2.38-1.43 1.07-3.04 2.81-4.51 2.75-4.39-.19-8.74-1.12-14.06-1.89.75 2.67 1.17 4.17 1.77 6.29-.91 1.21-2.08 3.34-3.79 4.88-2.12 1.91-4.73 4.76-7.03 4.66-4.71-.19-7.88 1.11-10.42 4.88-.51.76-1.58 1.2-2.47 1.64-7.12 3.51-14.26 6.97-21.37 10.48-1.48.73-2.79 1.36-4.14-.31-.32-.4-1.47-.55-1.96-.29-.56.29-1.28 1.42-1.11 1.75 1.71 3.3-1.14 4.79-2.63 6.7-3.19 4.09-2.57 5.94 2.46 7.85 2.94 1.11 5.67 2.77 9.16 4.52 2.3-.7 2-3.1 1.76-5.68-.23-2.38-.05-4.8-.05-7.81 1.19.89 1.63 1.21 2.06 1.55 3.18 2.48 3.95 2.16 5.24-1.45.33-.92 1.72-1.82 2.77-2.05 2.55-.55 4.96-.87 5.89-3.97.23-.77 1.78-1.41 2.82-1.62 1.4-.28 2.9-.07 4.35-.07 5.74 0 5.79.01 6.9-5.72.47-2.42 1.44-3.23 3.94-2.29 1.25.47 2.82.02 4.23.18 1.23.14 2.43.55 4.3.99 5.65-5.23 11.95-11.06 18.2-16.84 1.18.52 2.08.92 3.21 1.42.81-1.8 1.58-3.5 2.37-5.27 4.08 3.34 5.44-2.48 8.67-2.4.6.82 1.25 1.7 2.15 2.93 1.98-3.64 4.83-5.48 8.79-4.99 1.64.2 3.32.49 4.85 1.09 2.46.96 4.47.7 6.47-1.1.69-.62 2.16-1.18 2.86-.87 4.84 2.2 9.08 1.5 12.77-2.2 6.47 5.13 11.88 5.29 15.21.31.88 1.08 1.71 2.1 2.54 3.12 3.55 4.37 7.38 4.94 12.1 1.79.71-.48 1.42-.97 2.15-1.48 2.32 2.32 4.46 4.72 7.81 1.96.18-.15.61-.18.83-.08 4.62 2.17 9.17.56 13.64-.45 6.92-1.56 7.09-2.04 5.64-8.79-.04-.19-.25-.35-.57-.77-3.45.64-7.03 1.31-10.94 2.04-3.57-2.64-6.54-2.59-8.82.54-2.16-.3-4.36-.73-6.58-.9-6.25-.49-12.52-3.04-18.79.07-.56.28-1.53-.08-2.24-.33-4.01-1.4-8.01-2.81-11.97-4.35-.79-.31-1.83-1.14-1.93-1.85-.35-2.37-.33-4.79-.47-7.72 4.78 1.67 8.02.09 10.93-3.03.68-.73 2.47-.78 3.66-.61 2.39.35 3.97-.31 5.92-1.93 2.95-2.46 6.64-4.04 10.02-5.98.17-.1.46.04.66-.03 1.4-.51 3.09-.7 4.12-1.62 2.81-2.53 5.81-4.36 9.62-5 2.97-.5 4.72-2.23 4.32-5.67-.09-.81.91-1.92 1.66-2.61.7-.65 1.73-.93 2.64-1.39-2.34-3.24-2.55-3.26-7.93-.61-1.21-.88-2.44-1.78-3.58-2.62-.43.28-.64.37-.8.52-3.48 3.16-6.92 6.36-10.45 9.47-.78.69-1.81 1.2-2.81 1.5-1.88.57-3.81 1.05-5.76 1.35-1.88.29-3.89.72-5.7.37-3.71-.72-6.63 1.79-5.56 5.31.67 2.21.04 2.47-2.03 2.28-1.36-.12-2.92.39-4.16 1.06-1.34.72-2.42 1.94-3.84 3.14-2.52-3.38-4.75-1.62-6.66.46-2.11 2.3-3.95 4.84-5.87 7.31-2.75 3.53-6.07 5.53-10.75 4.39-.93-.23-2.37-.34-2.91.18-2.78 2.69-6.6-.82-9.3 1.74-6.29-2.67-14.44-.86-18.72-8.02-2.22 1.43-4.18 2.7-6.15 3.97.01-.31.02-.61.02-.92-2.42-.34-5.03-1.42-7.2-.85-3.69.97-5.97.2-7.8-3.04-.67-1.19-2.39-3.11-2.8-2.92-2.63 1.21-5.08.13-7.6.05-5.44-.16-10.88-.05-16.33-.04-1.78 0-3.62-.25-5.33.11-3.14.66-5.43-.29-7.37-2.71-.66-.82-1.63-1.95-2.47-1.96-6.45-.06-12.92.04-19.01 3.1.75 4.25 3.14 7.13 6.14 9.56.61.5 2.28.76 2.6.39 2.29-2.69 4.06-1.2 5.89.65 2.89-1.43 5.78-2.95 8.82.58.69-1.21 1.2-2.06 1.71-2.92zm119.79 127.43c.24.48.49.96.73 1.43 1.59.27 3.43 1.21 4.71.7 4.94-1.96 8.42-5.72 11.03-10.32.91-1.61 2.16-3.02 3.09-4.62.79-1.36 1.84-2.84 1.93-4.31.31-5.24.15-10.52.42-15.77.06-1.22.82-2.92 1.79-3.49 3.8-2.23 4.81-5.58 4.9-9.63.03-1.59.41-3.3 1.08-4.74 2.35-4.99 4.9-9.88 7.35-14.82.18-.37.19-.86.18-1.3-.05-2.71-.12-5.42-.2-8.13-.12-3.79.28-7.7-.59-11.31-.54-2.27-2.62-4.65-4.67-5.96-3.06-1.96-6.64.8-6.4 3.6-1.47 1.1-3.1 1.69-3.46 2.73-.78 2.26-1.19 4.74-1.23 7.14-.05 2.89.5 5.79.66 8.69.17 3.22-.11 6.33-3.88 7.91 2.27 3.24.04 3.98-2.28 4.76-2.08.7-4.06 1.78-6.18 2.25-2.94.65-6.3 1.93-8.89 1.09-5.54-1.78-10.21-1.61-14.59 2.39-2.8 2.56-9.05 3.11-12.56 1.77-1.21-.46-2.99.24-4.4.72-2.21.75-4.26 2.18-6.51 2.58-3.69.65-7.49.7-11.37 1.01-.1 1.43-.19 2.6-.27 3.76-.19-.26-.37-.53-.56-.79-2.63 1.06-5.26 2.11-7.96 3.2 4.79 8.27 5.1 8.4 10.67 3.84.78 3.04 1.46 5.65 2.36 9.13 2.7-1.79 5.1-3.39 7.3-4.85 1.35.2 2.7.41 4.06.61-2.1-3.43.14-4.88 2.76-7.93 2.08 2.49 3.96 4.74 5.89 7.05 1.01-.87 2.16-2.16 3.58-3 1.76-1.06 4-2.78 5.58-2.39 3.38.85 5.11-1.1 6.87-2.87 3.14-3.16 2.99-3.3 6.13.05 1.25-1.08 2.5-2.18 3.76-3.26 2.19-1.89 7.5-.06 8.1 2.83.11.5.13 1.33-.16 1.57-3.12 2.47-2.6 6.26-2.75 9.36-.2 4.23-1.75 6.94-4.92 9.55-4.06 3.35-8.46 6.32-10.8 11.63-.99 2.24-5.08 4.87-7.18 4.44-3.16-.64-4.42.56-6.29 2.17-1.04.89-2.48 1.51-3.84 1.79-4.05.84-8.12 1.57-12.22 2.11-2.3.3-3.73 1.25-4.13 3.57.73.61 1.47 1.24 2.34 1.97-2.89 3.18-.15 4.86 1.6 7.19.59-1.69 1.06-3.03 1.4-4.02 2.54.51 4.86 1.15 7.21 1.41 2.93.32 5.88.38 8.83.42.83.01 1.67-.39 2.49-.67 2.46-.85 4.86-2.05 7.39-2.5 2.68-.48 4.63-1.28 6.22-3.74 1.49-2.28 3.88-4.01 5.88-6zm-101.56-147.36c1.84-.93 3.38-2.36 4.92-2.36 4.72.01 9.44.63 14.16.83.75.03 1.87-.66 2.27-1.35 2.72-4.63 6.65-4.69 9.45-.04 2.34 3.89 5.37 4.17 8.73.94 1.59-1.52 3.21-3.2 5.14-4.14 4.37-2.12 6.22-6.43 9.68-9.61.93.56 2.25 1.37 3.58 2.17-.11-.31-.22-.63-.33-.94 9.85-4.25 19.7-8.51 29.83-12.89-4.14-3.33-4.14-3.33-3.31-4.49 2.7 0 5.46.82 6.84-.22 1.55-1.16 1.84-3.99 2.68-6.09 1.59-.09 3.12-.18 4.66-.27.1-.75.16-1.29.25-1.81s.23-1.04.42-1.9c-3.07 2.01-3.06 1.94-7.83 1.42-.88-.1-1.99.44-2.75 1.01-3.48 2.61-7.06 5.14-10.25 8.09-2.19 2.02-3.97 3.9-6.81 1.29-1.16 1.25-2.13 2.3-3.11 3.36-.06-.31-.13-.62-.19-.93-1.94.13-4.66-.51-5.66.52-3.24 3.33-7.08 2.64-10.89 2.66-5.5.03-6.67-1.22-6.52-6.88.03-1.11.25-2.22.35-3.33.29-3.11.77-6.22.78-9.33.01-2.3-.82-4.46-3.37-5.49-.94 3.13-1.78 6.02-2.68 8.88-1.73 5.48-5.26 10.45-4.74 16.59.04.46-.36 1.06-.72 1.44-2.04 2.2-4.13 4.35-5.89 6.19-6.58-1.55-12.53-2.21-17.42 1.54-2.69-.98-5.2-2.9-7.12-2.42-6.19 1.53-12.16-2.7-18.26-.27-.49.19-1.4-.52-2.05-.92-1.8-1.12-3.65-2.21-5.32-3.5-1.2-.93-2.16-2.17-3.22-3.27-.56-.77-1.79-.82-2.61-1.41-3.03-2.19-5.88-4.61-8.88-6.84-1.62-1.21-2.69-.66-3 1.34-.68 4.51.15 5.97 4.69 8.14-.7.98-1.38 1.96-2.07 2.93-.23.31-.45.61-.68.92 3.11 2.73 6.22 5.48 9.35 8.18.66.57 1.58 1.51 2.17 1.37 5.21-1.2 9.16 5.3 14.66 2.34.38-.2 1.48.8 2.16 1.34 3.05 2.43 6.06 4.9 8.91 7.21zm-52.74-7.45c-.13.36-.27.72-.4 1.08-2.4-.35-4.82-.59-7.19-1.06-3.42-.69-6.81-1.56-10.22-2.3-.4-.09-.86.25-1.3.26-3.39.09-6.81.45-10.16.15-5.22-.46-10.48-1.03-15.59-2.17-4.68-1.04-8.52-.41-11.79 3.15-.12.13-.42.1-.63.14-1.31-1.08-2.76-1.66-4.23-1.75-1.54-.09-3.1.32-4.66.47-3.81.37-3.75.33-2.22 3.75.39.86.44 1.97.35 2.93-.25 2.78.8 4.76 3.35 6.01 1.13-.64 2.27-1.3 3.64-2.07 1.92 2.9 3.77 5.69 6.01 9.07 1.65-1.01 3.84-2.42 6.09-3.71.78-.45 1.96-1.12 2.55-.83 2.92 1.4 5.77 1.56 8.78.44.43-.16 1.02.14 1.37.2.3 1.49.56 2.75.91 4.52 2.13-1.83 3.68-4.08 5.71-4.64 1.91-.53 4.32.72 7.04 1.29.84-1.69 1.95-3.95 3.31-6.69 1.34.77 2.9 1.25 3.85 2.29 4.01 4.35 3.97 4.4 8.25.59.5-.45 1.6-.98 1.92-.76 4.32 3.01 6.28-.93 9.26-2.76-1.44-2.71-2.72-5.16-4-7.6zm156.01 74.26c3.76-.44 6.88-.42 9.75-1.27 2.22-.66 4.17-2.34 6.08-3.78.32-.24.1-1.86-.38-2.37-1.52-1.63-3.28-3.03-4.78-4.38-1.22.83-3.19 3.09-4.22 2.72-4.77-1.72-7.33.98-10.1 3.89-.63.67-1.89 1.26-2.73 1.11-4.28-.72-8.52-1.7-12.75-2.58 1.46-5.42 1.45-5.45-2.94-6.24-.37 1.11-.74 2.25-1.13 3.39-.41 1.23-.83 2.46-1.07 3.14-2.02.13-3.59 0-5.01.39-2 .55-3.88 1.95-5.53-.71-.21-.34-1.79.04-2.68.27-3.13.83-5.71 3.19-9.5 2.46-1.44-.28-3.95 1.74-4.87 3.35-.47.82 1.22 4.12 2.4 4.41 3.09.74 6.54 1.02 9.62.39 2.54-.51 4.39-.55 6.01 1.52 1.12-.93 2.04-1.7 2.98-2.49 1.46.9 2.77 1.71 4.07 2.51 1.27-.9 2.43-1.72 3.55-2.51 5.51 4.06 5.51 4.05 10.23-.97.43-.46 1.01-1.07 1.54-1.09 3.65-.13 7.64 1.39 10.57-2.49.49.72.89 1.33.89 1.33zm-212.9-28.29c1.31 1.8 1.14 5.86 4.58 5.25 4.24-.75 8.3 3.75 12.4.05.23-.2 1.03.29 1.57.37 3.3.47 6.62 1.38 9.9 1.27 5.5-.19 10.94-1.01 16.52-.44 4.53.46 9.15.07 13.73.02 2.48-.03 4.96-.15 7.44-.22.89-.02 1.45 1.23 2.42 1.84 1.6 1.01 3.46 2.11 5.22 2.12.7.01 1.58-2.72 2.08-4.3.31-.99.06-2.15.06-3.23-2.43 0-5.16.85-6.47-.15-4.69-3.57-9.68-4.76-15.37-3.89-.62.09-1.3-.39-1.95-.39-1.95.02-3.9.15-5.85.24-.01.33-.02.66-.02.99-1.51-.88-3.02-1.76-4.1-2.4-1.48.67-2.5 1.53-3.52 1.53-3.84 0-7.68-.37-11.52-.42-4.33-.06-8.66-.04-12.99.16-2.96.14-5.91.63-8.86.97-1.51.17-3.01.36-5.27.63zm156.92-114.4c-.16 2.04.23 4.14-.57 5.58-1.2 2.15-2.15 4-1.46 6.55.25.92-.27 2.17-.73 3.14-1.08 2.3-1.07 6.82.36 7.35 2.8 1.03 4.95-.35 6.74-2.42.15-.17.32-.33.42-.52 3.02-5.46 6.27-10.8 8.93-16.43 1.12-2.36-.41-4.68-2.71-6.12-2.46-1.53-2.74.95-4 1.93-1.19.93-2.99 1.19-4.56 1.48-.77.14-1.64-.35-2.42-.54zm114.22 277.59c.08-.26.16-.52.24-.78-.65-.8-1.17-2.12-1.97-2.32-3.71-.92-7.65-2.23-10.21 2.32-.42.75-1.22 1.3-1.83 1.95-2.45 2.6-2.03 4.73 1.13 6.59 2.13 1.25 4.12 2.73 6.17 4.1.28.49.57.98.85 1.47 1.7-2.22 3.32-4.5 5.12-6.63 1.76-2.08 3.71-4.01 5.75-6.19-1.95-.18-3.6-.35-5.25-.51zm-49.77-269.24c-.41-.79-.78-2.13-1.63-3.02-1.53-1.6-3.4-2.88-5.03-4.4-1.65-1.53-3.01-.5-4.03.59-2.47 2.62-1.55 8.3 1.65 10.23 1.47.89 2.33 1.73 1.31 3.41-1.42 2.34-.53 4.4 1.53 5.3 2.4 1.05 3.79-1.1 4.37-3.01.83-2.76 1.16-5.68 1.83-9.1zm-250.21 244.73c-.49.23-.98.45-1.46.68.86 2.84 1.71 5.68 2.32 7.7.22 2.29-.2 4.46.64 5.18 1.32 1.14 2.52 3.66 5.29 2 2.33-1.4 2.43-3.37 1.95-5.47-.31-1.36-.99-2.8-1.94-3.8-2.13-2.23-4.52-4.21-6.8-6.29zm5.45 20.73c.57 2.24.94 3.69 1.4 5.5-1.89-.55-2.9-.84-4.64-1.34 6.26 9.52 4.91 9.2 10.44 6.45-.25-1.77-.98-3.44-.55-4.71.53-1.55 2.05-2.76 3.23-4.23-1.23-1.58-2.48-3.17-4.14-5.29-.43 2.29-.7 3.74-1 5.34-1.66-.6-3.04-1.1-4.74-1.72zm8.11-18.85c.22.77.54 1.87.86 2.98-.26-.09-.52-.18-.77-.27-.63 1.38-1.26 2.77-1.73 3.8 2.71.88 4.57 1.49 6.97 2.28.55-.88 2.3-2.62 1.96-3.28-1.11-2.14-.4-3.45.73-5.14.43-.64.17-2.36-.41-2.88-.53-.48-2-.24-2.91.09-1.44.53-2.77 1.4-4.7 2.42zm271.7 37.9c-3.7 3.3-4.7 5.61-3.08 7.98.54.79 2.18 1.5 3.08 1.28 6.25-1.5 6.23-1.59 6.08-5.97-2.08-1.12-3.99-2.16-6.08-3.29zm-8.49-6.25c-3.01 2.7-4.34 5.25-1.76 8.83.94 1.3.73 3.39 1.17 5.09.33 1.26.86 2.47 1.3 3.7 1.18-.59 2.35-1.18 4.04-2.02-3.38-2.45-4.37-4.84-2.33-6.78-.35-2.88-.6-4.94-.94-7.72.08.03-.63-.49-1.48-1.1zm30.29-200.41c.87-3.29 1.76-6.32 2.4-9.41.13-.64-.52-1.67-1.11-2.14-.36-.29-1.5-.08-1.96.3-4.97 4.17-4.91 6.7.67 11.25zm-41.89 201.07c-.28-.16-.56-.32-.84-.47-.12 4.6-3.72 2.76-5.9 3.73.12 1.37.23 2.66.37 4.29 2.33-.22 4.32-.41 5.87-.55.19-2.71.35-4.85.5-7zm31.74-59.4c.4.12.8.23 1.21.35 2.01-1.01 2.21-2.45 1.24-4.66-.65-1.49-.6-3.28-.87-4.94-.29 0-.57.01-.86.01-.24 3.08-.48 6.16-.72 9.24zm-255.24 24.76c-1.32 2.27-2.33 4-3.33 5.73.26.2.53.4.79.59 1.65-.99 3.31-1.97 5.09-3.04-.8-1.03-1.33-1.71-2.55-3.28zm230.93-26.23c3.21-1.24 3.16-3.35 2.27-6.02-2.07 1.67-4.66 2.84-2.27 6.02z" fill="#010105"/></svg>