<svg enable-background="new 0 0 400 400" viewBox="0 0 400 400" xmlns="http://www.w3.org/2000/svg"><g fill="#fafafb"><path d="m12.4 4.8-6.1 9h6v1.2h-8v-.5l6.1-8.9h-5.7v-1.2h7.6v.4z"/><path d="m14 15v-10.6h3c1.6 0 2.9.5 4 1.4s1.6 2.2 1.6 3.8-.5 3-1.6 3.9-2.4 1.5-4 1.5zm1.4-9.4v8.2h1.6c1.3 0 2.4-.4 3.1-1.1s1.1-1.8 1.1-3.1-.4-2.3-1.2-3-1.8-1-3.1-1z"/><path d="m26.1 4.4v10.6h-1.4v-10.6z"/><path d="m36.1 14.6c-.8.4-1.8.6-2.9.6-1.5 0-2.7-.5-3.6-1.4s-1.4-2.2-1.4-3.8c0-1.7.5-3.1 1.5-4.1s2.3-1.6 3.9-1.6c1 0 1.8.1 2.5.4v1.4c-.8-.4-1.6-.6-2.5-.6-1.2 0-2.1.4-2.9 1.2s-1.1 1.8-1.1 3.2c0 1.3.3 2.3 1 3s1.6 1.1 2.7 1.1c1 0 2-.2 2.7-.7v1.3z"/><path d="m37.6 14.3c0-.2.1-.5.3-.6s.4-.3.6-.3c.3 0 .5.1.6.3s.3.4.3.6-.1.4-.3.6-.4.3-.6.3c-.3 0-.5-.1-.6-.3s-.3-.4-.3-.6z"/><path d="m50.2 15h-1.6l-5.3-8.2c-.2-.2-.3-.5-.4-.7 0 .2.1.7.1 1.5v7.4h-1.4v-10.6h1.7l5.2 8.1c.2.4.4.6.4.7 0-.3-.1-.8-.1-1.5v-7.3h1.4z"/><path d="m58.6 15h-5.7v-10.6h5.5v1.2h-4.1v3.4h3.8v1.2h-3.8v3.6h4.3z"/><path d="m67.1 5.6h-3.1v9.4h-1.4v-9.4h-3v-1.2h7.5z"/></g><path d="m79.6 373.83c0-11.03 0-22 0-33.25.77.68 1.46 1.29 2.09 1.86 1.83-1.95 3.63-3.87 5.35-5.7-1.37-.66-3.19-1.54-5.26-2.54-.57.5-1.37 1.2-2.72 2.38.59-104.15 1.18-207.7 1.77-311.65 5.77.29 11.2.7 16.64.8 6.8.13 13.61-.19 20.39.17 1.59.08 3.09 2.09 4.85 3.36 5.36-3.97 12.06-3.48 18.74-2.74 2.37.26 3.39 1.09 2.15 4.05-.69 1.66.92 4.28 1.49 6.47.32-.06.64-.12.97-.18-.4.79-.81 1.57-1.66 3.22 1.66 0 3.17.46 4.02-.1 1.75-1.15 3.23-2.76 4.66-4.32 2.52-2.76 2.42-3.68-.42-6.16 4.64-2.7 9.76-3.09 14.85-3.14 6.03-.05 12.07.36 18.11.51 2.04.05 3.51.61 4.66 2.55.78 1.32 2.44 2.13 3.76 3.2 1.12-.93 1.96-1.64 2.95-2.47-.62-.43-1.1-.77-1.68-1.17.31-.26.54-.6.78-.62 5.66-.3 11.31-.57 16.97-.81 1.23-.05 2.46.09 3.69.08 3.33-.04 6.84-.67 8.88 3.43 3.08-3.64 6.7-3.67 10.68-3.51 10.27.42 20.56.52 30.84.55 7.49.02 14.99-.55 22.48-.37 6.07.15 12.11 1.18 18.18 1.5 1.76.09 3.57-.95 5.38-1.47v10.4c-.26.21-.53.43-.79.64-1.34-1.09-2.68-2.18-4.29-3.49-1.81 1.32-3.79 2.78-5.78 4.23 3.6 4.66 7.4 4.34 11.93 1.25-.35 33.61-.7 66.54-1.04 99.85-2.41-.3-4.45-.56-6.82-.85.92 1.6 1.45 2.54 2.19 3.83-1.49.11-2.44.19-3.45.26-.23 1.45-.46 2.83-.73 4.51 1.58.53 3.22 1.08 4.81 1.61 1.33-2.36 2.55-4.52 3.66-6.49.29 3.03.6 5.68.78 8.34.2 2.88.39 5.77.37 8.65-.02 3.24-.07 6.51-.5 9.72-.27 1.96-1.3 3.82-2.16 6.22-1.39-2.14-2.18-3.36-3.12-4.8 2.56-3.93-.1-7.19-2.2-10.43-.37-.57-2.64-.77-2.86-.42-.76 1.23-1.8 3.23-1.3 4.13 1.36 2.43.73 4.47.02 6.74-1.39 4.42.89 8.03 2.86 11.64.27.49 1.29.71 1.99.81 2.61.37 2 1.6.98 3.22.47.09 1.07.21 2.01.39-.56 2.55-.91 5.18-1.8 7.62-.34.94-2.04 2.13-2.9 1.98-1.4-.24-3.59-1.35-3.74-2.35-.58-3.88-1.66-7.38-4.29-10.34-.07-.08-.16-.2-.15-.3.62-6.69-3.99-12.72-2.49-19.5.18-.83.83-1.61 1.42-2.27 1.47-1.63 1.07-3.76-1-4.47-2.53-.87-4.77-1.43-7.38.71-2.03 1.67-5.11 2.07-6.99 2.76-2.99-3.21-5.74-6.15-8.56-9.17-1.31.98-2.1 1.57-2.65 1.98-1.32-.96-2.49-1.87-3.72-2.7-1.88-1.26-3.11-2.64-2.6-5.25.67-3.41-1.19-4.91-4.67-4.12-1.31.29-2.65.5-3.91.92-1.77.6-2.79.01-4.33-1.14-2.29-1.71-5.28-2.67-8.1-3.45-4.18-1.16-6.59-7.18-4.06-10.82 2.61-3.75 3.63-6.96 3.42-11.7-1.41.62-2.77.89-3.68 1.68-1.84 1.62-3.4 3.56-5.16 5.28-.78.77-1.75 1.89-2.64 1.9-3.35.04-5.08 1.58-5.4 4.81-.1.98-.19 2.07.14 2.95 1.4 3.7 2.97 7.34 4.55 11.19-2.36.19-3.66-3.76-5.8-.65-7.26-8.3-7.26-8.3-7.32-11.54-8.74.28-12.42-5.01-13.29-13.2-1.11.44-1.99.78-2.21.87-1.91-3.18-3.67-6.09-5.43-9.01-.37.13-.75.25-1.12.38-.24 3.8-.48 7.61-.74 11.67 2.99-.46 3.8 1.06 4.6 3.33 1.12 3.15 2.96 6.05 4.73 9.52-.28.98-.81 2.8-1.34 4.62.27.09.55.19.82.28-.95.75-2.19 1.31-2.78 2.27-2.46 4.02-5.58 6.31-10.52 4.89-.3-.09-.77-.09-.98.09-1.94 1.64-4.38 3-5.61 5.07-1.67 2.83-3.82 4.08-6.85 4.66-3.26.62-6.46 1.6-9.69 2.41-.52.13-1.4.47-1.53.29-2.01-2.79-4.93.34-7.23-1.13-.52-.33-1.93.74-3.05 1.21-.74-.57-1.53-1.18-1.7-1.3-4.85 1.75-9.27 3.34-13.7 4.94-.31.11-.85.34-.9.27-2.54-3.86-4.21-.14-6.19.7-.51.21-1.23.87-1.43.73-3.87-2.81-5.37.97-7.65 2.93-2.31-2.09-4.51-3.94-8.01-2.91-1.11.33-2.74-1.13-4.33-1.87-1.99 1.9-4.48 3.69-1.83 6.74-3.04 2.17-5.97 4.25-9.36 6.66 1.81 2.09 3.46 4 5.58 6.44.62-1.87.91-2.76 1.26-3.8 1.17 0 2.42-.18 3.59.03 4.58.84 8.27-.06 11.01-4.28 1.39-2.15 3.61-2.7 5.48.32.88-1.33 1.59-2.4 2.29-3.45 4.85 2.09 6.92 1.69 8.62-.98 4.28.28 8.15.53 12.44.8 1.73 3.11 3.12 3.49 8.37 1.55 3.07 3.57 6.36 7.09 9.21 10.92.73.98.11 2.98.11 5.11 3.81 3.32 2.5 7.81 1.17 12.42-.49 1.71-.23 3.63-.49 5.43-.21 1.46-.57 2.91-1.07 4.3-.45 1.26-1.17 2.43-2.02 4.14-.32.05-1.27.18-2.16.31-.09.37-.25.62-.19.79 2.13 5.69.47 9.95-4.53 13.36-2.46 1.68-4.44 4.07-6.68 6.19-.95-.48-1.82-.92-2.77-1.4-2.19 1.84-4.32 3.62-6.45 5.41-.01-.32-.02-.65-.04-.97-1.47-.2-3.06-.88-4.39-.53-8.04 2.14-9.58 3.79-10.28 11.03 2.47-.24 4.79-.46 7.62-.74 1.16 1.56 1.16 1.56 5.09-1.45 2.02 0 3.88-.57 4.96.1 3.68 2.29 6.23-2.29 9.58-1.2 1.63.53 3.28.98 5.18 1.03 1.29.39 2.85.45 3.83 1.24 4.33 3.46 5.29 7.47 3.59 13.06-.19.61.08 1.42.31 2.07 2.08 5.96.48 8.52-4.37 9.46-1.84.36-3.54 1.44-5.35 2.05-.65.22-1.44-.03-2.16.02-1.26.09-2.53.41-3.77.32-2.15-.16-4.46-.15-6.39-.95-3-1.24-4.87-.83-6.64 2.01-1.49 2.4-2.65 5.48-6.36 5.58-.81.02-4.35 7.24-4.4 8.09-.12 2.03-.39 4.06-.44 6.06-.24 3.6-1.27 7.39-.48 10.74.69 2.92-.97 6.5 2.14 8.88 1.23.94 2.2 2.23 3.21 3.43.39.47.94 1.38.75 1.68-2.55 4.13-.18 8.32-.26 12.46-.04 2.3-.13 4.61-.18 6.91-.01.53-.14 1.19.12 1.57 1.82 2.62 3.71 5.2 5.61 7.77 1.69 2.29 5.77 1.87 8.38-1.17 1.66-1.93 3.05-4.18 4.16-6.47.45-.94-.15-2.39-.3-3.91.96.29 2.02.61 3.43 1.03 2-3.72 8.05-4.53 8.26-10.18 5.65-.25 7.24-2.06 7.54-7.72.07-1.32.91-2.9 1.9-3.81 1.87-1.74 4.09-3.12 6.21-4.57 1.43-.98 2.43-2.32 4.89-1.1 1.47.73 4.09-1.17 6.32.17 1.9 1.15 4.27 1.71 5.85 3.16 2.79 2.56 5.08 5.66 7.71 8.41 2.07 2.16 3.6 4.41 3.83 7.55.09 1.16 1.05 2.42 1.93 3.34 4.34 4.58 8.29 9.33 10.03 15.62.41 1.5 1.69 2.87 2.84 4.02 1.74 1.73 3.72 2.71 5.49.01 3.84 1.82 4.22 1.64 7.88-3.59-.61-.84-1.24-1.71-1.97-2.73 1.79-.98 3.43-1.89 5.21-2.86-2.33-8.72-.81-17.59-1.3-26.37-.09-1.56-.93-3.09-.98-4.65-.05-1.46.24-3.05.83-4.38 1.58-3.56.54-11.68-1.11-13.19-.36-2.54-.59-4.15-.92-6.52.32-.46 1.14-1.62 1.97-2.79-.28.04-.56.09-.85.13-.76-3.15-1.82-6.27-2.19-9.47-.44-3.72-1.07-6.97-5-8.67-1.82-.79-3.33-2.28-5.12-3.18-1.09-.55-2.45-.56-3.84-1.12-1.67-.3-3.39-.98-5.02-.82-3.64.35-7.23 1.12-10.84 1.7-2.19.35-4.46.41-6.56 1.03-5.87 1.73-8.99-3.65-13.63-5.02-.02-3.66-3.74-3.91-5.5-5.96 2.64-3.99 2.26-6.2-1.25-9.54-1.14-1.09-1.78-2.71-3.05-4.73 4.23-.8 7.78-1.47 11.32-2.14.13.33.26.66.4.98.76-2.07 1.51-4.13 2.48-6.8-1.8 0-3.27 0-5.36 0 .31-3.44-.68-8.18 1.24-10.43 4.04-4.74-1.42-7.76-.74-11.61.2-1.16-.35-2.45.17-4.01-.69-.44-1.38-.87-2.01-1.27.03-.28.02-.46.06-.48 4.95-1.54-.42-6.45 2.78-8.63.29-.2.05-1.26-.04-1.91-.78-5.65-1.53-11.31-2.41-16.94-.2-1.3-.85-2.54-1.36-3.99 2.93-1.01 3.13-3.38 2.73-6.15-.22-1.54-.85-3.43 1.8-3.85.54-.09 1.06-1.12 1.34-1.81 1.79-4.44 5.43-5.56 9.75-5.56 3.99 0 7.98-.13 11.96-.04.76.02 1.61.63 2.23 1.17 2.35 2.05 4.63 4.19 7.11 6.45.81-1.11 1.52-2.09 2.32-3.18-.78-.72-1.47-1.36-1.56-1.44 1.79-4.26 3.41-8.09 5.13-12.19 2.25 2.34 3.95.54 5.82-.78 3.16-2.24 8.01-1.83 10.8.58 1.75 1.51 3.59 3.17 6.25 1.35.45-.3 1.95.21 2.41.79 1.9 2.38 4.1 3.33 6.97 1.98 1.16 4.16 7.52 7.18 11.79 5.4.51 1.73 1.01 3.42 1.52 5.13 1.08.35 2.47.81 4.31 1.41-1.06 1.22-1.68 1.93-2.48 2.86 2.33.97 4.57 1.9 6.88 2.86-1.14 1.38-2.22 2.69-2.82 3.41 1.17 1.59 2.05 2.78 2.91 3.97.13.18.18.42.32.59 4.28 5.26 2.17 11.12 1.31 16.72-.29 1.86-2.21 3.5-3.48 5.16-.27.35-1.27.67-1.41.52-2.28-2.51-3.68-.2-5.29.89-.78-.43-1.81-1.41-2.3-1.19-4.64 2.1-7.65-1.73-11.23-3.11-2.91-1.12-5.69-3.03-8-5.16-2.38-2.18-4.85-3.56-7.9-4.64-2.42-.86-5.39-2.24-5.54-5.87-.02-.58-1.12-1.13-1.75-1.66-2.94-2.49-5.85-5.01-8.83-7.44-2.06-1.68-4.21-3.24-6.32-4.86-.3.26-.6.53-.91.79 0 2.65-.01 5.3.02 7.95 0 .42.08.97.34 1.23 3.3 3.25 6.62 6.49 10 9.65 1.45 1.36 3.16 2.44 4.59 3.81 1.34 1.29 2.25 3.2 4.68 2.11.35-.16 1.07.17 1.46.48 2.71 2.08 5.32 4.28 8.08 6.27.94.67 2.37 1.36 3.36 1.13 2.45-.59 4.14.29 5.59 1.99 1.89 2.23 3.93 2.67 6.05.71 2.65 2.44 4.79 5.7 7.73 6.77 2.77 1.01 6.91 2.31 9.23-1.61 10.42 5.4 16.19-.16 20.69-9.08.94 1.34 1.56 2.2 2.58 3.65.6-1.02 1.1-1.85 1.6-2.69.42.15.84.3 1.26.46-.71 4.16-1.27 8.35-2.21 12.45-.27 1.16-1.15 2.42-3.29 1.52-1.43-.6-3.47.24-5.26.43-.79 1.9-1.64 3.94-2.66 6.39 1.05 1.57 2.34 3.49 3.71 5.54-1.61 3.82-1.83 3.77-5.08 1.31-1.38-1.05-3.43-2.01-4.96-1.75-.95.16-1.5 2.69-2.19 4.07-.7.34-2.49 1.02-2.44 1.21.48 1.79.85 4.5 2.07 5.02 2.27.96 4.91 3.14 7.74.72.25-.21 1.29.63 2 .81.94.24 1.93.32 3.56.57.69 1.68 1.72 4.18 2.96 7.21-1.8-.16-2.72-.25-4.3-.39.44 2.24.26 4.6 1.34 5.92 1.12 1.36 3.43 2.17 5.31 2.36 1.72.18 3.55-.78 5.73-1.33.12-.48.37-1.54.66-2.71h4.43c-.93-1.54-1.57-2.61-2.22-3.68 5.31-5.67 4.42-9.64-2.79-11.5 0 1.37.19 2.71-.07 3.97-.17.82-.99 1.51-1.52 2.25-.7-.51-1.64-.87-2.05-1.55-1.18-1.93-2.15-4-3.15-5.9 0-1.81 0-3.77 0-6.25 1.61-.21 3.84-.49 6.06-.77.28 1.68.52 3.14.76 4.6.33 0 .67 0 1-.01.7-2.85 1.46-5.68 2.05-8.55.13-.64-.34-1.41-.57-2.11-.31-.94-1.15-2.02-.9-2.76 1.15-3.48.72-7.82 4.92-9.8.58-.27 1.02-.82 2.46-2.01 0 6.1-.04 11.39.01 16.68.06 5.71.4 11.42.26 17.12-.1 4.33.41 9.28-1.5 12.78-1.87 3.43-.41 4.51 1.06 6.65.64.94.46 2.57.36 3.86-.39 4.98-1.22 9.95-1.29 14.93-.12 8.05.24 16.11.4 24.17 0 .22.1.49.01.66-2.24 4.25-1.18 8.6-.64 13.27-2-1.73-4-3.47-6.66-5.77-.71 3.04-1.24 5.04-1.62 7.07-.44 2.34-1.59 3.4-4.14 3.33-3.71-.1-5.61 2.52-4.54 5.81.03.1.18.25.16.28-2.98 3.6 1.04 7.4-.32 11.03-.88 2.36-1.83 4.7-2.95 7.56.9.84 2.26 2.12 3.82 3.58 1.9-1.8 3.72-3.52 6.02-5.7.6 3.23 1.18 6 1.58 8.79.07.48-.47 1.33-.95 1.55-1.81.83-3.71 1.45-5.56 2.19-2.58 1.02-3.13-1.17-4.3-2.57-1.82-2.16-4.51-2.23-6.68-.38-3.33 2.84-6.67 2.7-9.8-.43-1.19-1.19-2.33-2.42-3.58-3.54-.54-.48-1.47-1.15-1.94-.98-2.65.97-3.96-.37-4.89-2.75-1.01.44-1.88.81-2.48 1.07-5.24-3.8-6.17-9.26-6.54-14.95-.06-.89.11-2.18-.39-2.59-3.76-3.1-3.86-7.39-3.9-12.09 3.42-1.47 4.16-4.55 3.6-8.36-.24-1.62.2-3.34.19-5.01-.01-1.4.3-3.35-.47-4.09-2.17-2.1-5.04-2.78-8.08-2.06-.35.08-.85.58-.85.89-.08 3.33-1.76 5-5.03 5.45-.49.07-1.11 1.51-1.13 2.33-.11 4.48-.17 8.96.02 13.43.06 1.43.94 2.82 1.55 4.56-2.85 2.56-1.27 4.98.9 7.47 1.91 2.2 3.62 4.57 5.42 6.87.38-.28.77-.56 1.15-.85-1.38 1.02-2.77 2.04-4.44 3.28 0 0-.78-.58-1.34-1-1.62.52-3.09.99-5.24 1.67-.2.95-.57 2.77-.9 4.35 1.83.85 3.39 1.9 5.1 2.27 1.23.27 2.78-.09 3.96-.64 1.99-.92 1.92-1.08 3.77 1.18-1.36.22-2.68.16-3.69.7-.9.48-2.23 1.92-2.04 2.4 1.41 3.46-1.55 4.14-3.31 5.94-.32-1.05-.56-1.83-.97-3.15-1.2.63-2.25 1.05-3.12 1.71-.34.26-.28 1.04-.42 1.58-.75 2.78-.45 6.49-4.73 5.47-.28 2.01-.5 3.6-.83 5.98.33.36 1.28 1.4 3.02 3.31-4.19 1.1-7.77 2.8-11.36 2.81-6.66.02-13.31-1.06-19.98-1.44-2.42-.14-4.87.66-7.31.67-38.29.04-76.58.03-114.87.02-.45-.06-.88-.19-1.81-.34zm113.56-279.24c1.69-2.71 2.77-4.33 3.72-6.02.52-.92 1.02-1.94 1.17-2.97.52-3.73.89-7.48 1.32-11.22.31.31.61.62.92.93 1.53.15 3.42.92 4.49.29 1.46-.86 2.3-2.78 3.16-3.93 1.64.22 3.16.9 4.32.5 5.11-1.74 6.35-7.51 2.64-11.33-.36-.37-.9-.91-.84-1.29.62-4.37.69-8.98 2.21-13.03 1.67-4.43 1.44-5.87-3.95-6.97-2.7 6.61-7.99 10.97-13.92 14.73-.64.4-1.29 1.01-1.57 1.67-.32.74-.3 1.65-.31 2.49-.03 1.54.34 3.18-.04 4.62-.88 3.33-2.92 6.55-2.95 9.83-.02 2.79-.16 4.61-2.81 5.51.19 4.39.26 8.54.63 12.65.08 1.14 1.09 2.21 1.81 3.54zm66.23 194.28c-6.49-4.37-7.91-4.76-12.82-3.59.69 4.53 1.91 6.08 5.05 6.33 1.22.09 2.46-.02 3.69.03 3 .14 4.54 2.51 3.52 5.26-.21.56-.03 1.26-.03 2.34 1.3-.97 2.04-1.53 2.93-2.2 1.34 3.56 4 4.17 7.14 4 2.65-.14 5.32.02 7.96-.17 1.48-.11 3.89-.3 4.21-1.11.93-2.39 1.99-5.45 1.2-7.6-1.01-2.74-3.76-4.84-5.77-7.22-.99.82-1.74 1.44-2.59 2.15-.64-.41-1.2-.75-1.74-1.11-5.17-3.49-5.17-3.49-10.04.64-.85.71-1.71 1.42-2.71 2.25zm33.02 18.32c2.06-2.45 4.13-4.91 6.2-7.36.39-.01.78-.01 1.17-.02.54 2.33 1.09 4.67 1.68 7.19 2.29-2.07 4.55-4.1 7.18-6.47-.53-2.01-1.25-4.72-2.17-8.19-1.87 5.03-4.88 2.54-7.56 2.52-.11-1.2-.21-2.15-.33-3.43-2.71 0-5.21 0-8.05 0 .4-.8.68-1.15.75-1.54.16-.86.21-1.74.3-2.61-.8.14-1.68.12-2.38.46-1.29.62-2.48 1.46-3.03 1.79-.41 1.76-.71 2.88-.92 4.01-.19 1.04-.28 2.11-.39 3.16-.1.91-.22 1.83-.24 2.74-.02 1.06-.35 2.61.2 3.08 1.19 1.02 2.86 1.48 4.27 2.14.87 1.73 1.81 3.7 2.87 5.58.17.3 1.22.5 1.36.33.36-.42.7-1.19.54-1.64-.19-.63-.88-1.1-1.45-1.74zm-64.75-226.24c.3.93.44 2.19.77 2.25 3.64.58 2.5 3.29 2.1 5.18-.66 3.11.11 5.43 2.52 7.38.78.63 1.3 1.58 2.11 2.15 3.32 2.38 2.02 5.38 1.27 8.35-.31 1.23-.4 2.51-.63 4.02 7.07-2 3.06-9.71 7.96-12.35-.72-.94-1.25-1.66-1.8-2.36-3.57-4.55-7.76-8.74-7.99-15.1-.03-.76-1.02-1.88-1.8-2.14-4.25-1.4-5.67-4.59-5.97-8.65-.06-.82-.43-1.62-.71-2.64-1.51.67-2.9 1-3.88 1.82-.73.61-1.5 2.04-1.25 2.77 1.21 3.56 2.75 7 4.21 10.59 1.32-.54 2.12-.87 3.09-1.27zm84.77-17.15c-2.73-2.95-5.07-5.46-7.52-8.1 2.22-1.39 2.75-3.01 1.12-4.8-1.5-1.64-3.18-2.24-5.16-.43-1.45 1.32-3.16 2.36-4.63 3.44 2.43 6.48 9.67 6.47 13.49 10.83.19.24 1.5-.51 2.7-.94zm-175.6 147.89c-1.7 1.32-3.08 2.39-4.43 3.44.5 1.35.92 2.47 1.33 3.58-.32-.06-.63-.13-.95-.19-.67 2.24-1.35 4.48-1.98 6.6 1.61.63 2.61 1.33 3.58 1.3 1-.03 2.87-1.03 2.83-1.15-.75-2.5 1.23-3.77 2.29-5.43 2.31-3.61-1.02-5.33-2.67-8.15zm6.16-150.78c1.59-1.68 3.22-2.67 3.69-4.06.78-2.29.89-4.83 1.12-7.28.12-1.33.19-2.8-.28-3.99-.23-.58-2.22-1.19-2.58-.86-1.18 1.06-2.72 2.52-2.76 3.88-.14 3.64.42 7.32.81 12.31zm.99 79.39c-1.36-.51-2.64-.67-3.44-1.38-.91-.81-1.37-2.11-2.07-3.26-2.19 2.05-2.81 9.58-1.4 14.98.68-.47 1.5-.75 1.84-1.32 1.75-2.94 3.37-5.96 5.07-9.02zm6.89-78.12c2.07 4.25 2.96 4.55 8.25 2.92.69-1.72 1.33-3.31 1.99-4.95-2.98-2.36-5.04-1.98-10.24 2.03zm24.37-32.35c-.54-.46-1.07-1.23-1.41-1.15-3.02.67-6.06 1.32-8.97 2.33-2.36.82-2.62 2.66-.98 4.64.53.65 1.1 1.27 1.77 2.03.14-.44.3-.73.29-1-.02-.36-.19-.71-.43-1.55 5.27 1.52 6.73-2.86 9.73-5.3zm-66.28 316.2c.1-.28.21-.56.31-.84-1.77-1.54-3.54-3.09-5.34-4.65-1.77 1.45-3.3 2.7-4.77 3.91-.97-.76-1.71-1.34-2.91-2.29-.77 1.84-1.39 3.31-2.42 5.76 2.73-.4 5.06-.05 5.87-1 1.89-2.2 3.78-1.67 5.95-1.21 1.07.23 2.2.22 3.31.32zm-12.24-292.06c-5.21 3.93-5.21 3.93-7.66.41-.98 1.72.48 4.8 2.47 5.52 1.42.52 2.74 1.32 4.82 2.35 2.94-1.37 3.01-1.81.37-8.28zm94.05 42.3c-.09 1.62-.08 3.05-.29 4.44-.16 1.03-1.19 2.48-.83 2.95 1.26 1.59 2.94 2.85 4.53 4.15.1.08.99-.45 1.17-.85 1.17-2.69-1.7-9.34-4.58-10.69zm-67.32-40.64c-4.22 1.74-4.99 2.54-4.01 4.58.88 1.85 2.34 3.45 3.73 5 .33.37 1.52.33 2.07.03.48-.26.99-1.27.85-1.76-.75-2.58-1.7-5.1-2.64-7.85zm19.32 43.55c.79-4.23 2.75-8.37-2.35-10.4-.87.68-1.81 1.42-3.08 2.42 2.38 2.37.72 7.5 5.43 7.98zm-36.55-46.44c.42.47.66.86 1.01 1.11.62.44 1.31.79 1.97 1.18-.06-.83.13-1.79-.23-2.46-.71-1.33-1.73-2.5-2.56-3.65-6.27 2.5-7.72 4.8-5.65 8.8 1.83-1.67 3.62-3.3 5.46-4.98zm160.07 130.85c-.43 1.97-1.27 3.76-1.03 5.41.19 1.37 1.64 2.57 2.54 3.84 1.12-.91 2.88-1.61 3.24-2.76.92-2.92-1.16-5.6-4.75-6.49zm-110.57-100.74c-2.03-2.43-3.28-4.68-5.19-5.98s-3.45-2.45-4.23-4.75c-.35-1.03-1.82-1.67-2.78-2.49 1.13 5.06 6.51 7.7 5.44 13.7 2.11-.14 4.02-.28 6.76-.48zm86.35-17.66c.64.57.93 1.04 1.31 1.12 1.17.24 2.37.33 3.56.48 0-1.04.39-2.37-.1-3.07-.74-1.04-2.23-2.43-3.17-2.28-2.48.4-4.84 1.54-7.39 2.44 1.63 1.27 2.84 4.07 5.79 1.31zm-29.52 304.98c0-1.75 0-3.58 0-4.53-2.11-.59-3.89-1.09-6.28-1.76-.1 1.22-.72 2.78-.21 3.72 1.29 2.37 3.36 3.8 6.49 2.57zm46.71-124.42c.22.2.44.41.66.61.91-.81 2.41-1.49 2.61-2.44.57-2.73-2.03-5.56-5.6-6.67 0 1.28.1 2.58-.03 3.86-.09.9-.49 1.78-.75 2.66 1.04-.27 2.07-.54 3.11-.8.38-.1.77-.18 1.55-.37-.64 1.3-1.09 2.22-1.55 3.15zm-10.87-23.82c-1.88 3.61-1.29 5.86 2.1 7.57 1.8.91 2.93 1.04 4.25-.71-2.08-2.24-4.09-4.42-6.35-6.86zm19.96-183.23c.41.24.83.48 1.24.72 1.22-1.36 2.86-2.57 3.45-4.16.21-.59-1.93-2.61-3.28-3.01-1.12-.33-2.66.78-4.02 1.25.08.28.16.56.24.84 1.02.33 2.04.67 2.93.96-.19 1.21-.37 2.31-.56 3.4zm-6.19 239.65c.87-2.68-.37-4.29-2.53-4.72-1.36-.27-2.94.57-4.88 1.02.92 1.41 1.18 2.31 1.65 2.45 1.81.53 3.69.82 5.76 1.25zm20.95-31.98c.18-.4.35-.81.53-1.21-1.36-.83-2.85-2.47-4.04-2.28-1.63.27-3.04 1.93-4.54 3 .53.53 1.11 1.55 1.59 1.51 2.17-.18 4.31-.66 6.46-1.02zm-195.38-37.63c2.38 1.3 4.1 4.31 7.05 1.83.41-.35.22-2.22-.32-2.75-2.38-2.34-3.78-2.1-6.73.92zm16.27-105.63c1.57-.32 3.03-.69 4.5-.88 1.26-.16 2.54-.12 3.81-.18.03-.37.07-.74.1-1.11-1.12-.66-2.93-2.12-3.26-1.84-2.28 1.94-3.84.23-5.61-.92-.08.52-.2.83-.16 1.13.19 1.3.42 2.61.62 3.8zm151.66 111.97 1.56 1.2c1.78-1.02 3.56-2.05 5.33-3.07-1.59-.95-3.17-1.91-4.76-2.86-.7 1.58-1.42 3.15-2.13 4.73zm-150.87-132.76c-2.18 1.22-3.65 2.04-5.77 3.21 1.62 1 3.05 2.01 4.61 2.71.24.11 1.44-1.12 1.64-1.89.47-1.68.91-3.6-.48-4.03zm158.14 97.85c-5.88 1.3-6.54 2.23-5.38 7.67 2.11-3 3.74-5.33 5.38-7.67zm-49.33-74.92c1.55-1.96 2.72-3.38 3.75-4.9.05-.08-1.28-1.45-1.52-1.33-1.54.75-2.96 1.76-4.5 2.74.66 1.03 1.14 1.76 2.27 3.49zm86.5 162.29c.31.14.63.29.94.43 1.68-1.17 3.35-2.35 5.04-3.53-1.3-2.45-3.18-1.97-4.48-.78-.91.85-1.02 2.56-1.5 3.88zm-37.72-39.14c-.07-.41-.14-.83-.21-1.24-1.15.12-2.42-.03-3.42.41-1.74.78-2.55 2.17-1.28 4.27 1.71-1.2 3.31-2.32 4.91-3.44zm-75.55 118.97c1.84-1.43 3.08-2.2 4.06-3.23.41-.44.42-1.42.32-2.11-.04-.27-1.15-.73-1.32-.58-1.55 1.33-3.6 2.46-3.06 5.92zm94.34-127.12c-3.28-4.22-3.28-4.22-5.49-2.96 1.43 1.66 1.64 5.06 5.49 2.96zm-45.54.91c.81 5.48.88 5.52 5.8 4.22-2.01-1.46-3.66-2.66-5.8-4.22zm-140.13-71.43c.17.28.34.56.51.83 1.3-.11 2.61-.22 4.32-.36-.53-1.56-.91-2.68-1.49-4.38-1.41 1.65-2.37 2.78-3.34 3.91zm-3.01 202.59c-.99-1.44-1.56-2.27-2.13-3.1-1.28.92-2.57 1.84-3.85 2.76.14.22.28.44.42.65 1.43-.09 2.86-.17 5.56-.31zm108.01-314.65c-.17-.35-.34-.7-.5-1.04-1.57.97-3.15 1.92-4.67 2.96-.06.04.41.87.64 1.33 1.47-.87 2.94-1.73 4.39-2.62.13-.09.1-.42.14-.63zm-48.68 227.98c3.32.86 4.23-1.24 5.71-2.62-3.27-2.22-3.64.95-5.71 2.62z" fill="#010105"/><path d="m133.33 316.26c.17-2.09.15-4.06.52-5.96.72-3.78-.27-7.85 2.83-11.28 1.25-1.38 1.01-4.18 1.27-6.35.11-.97-.51-2.04-.32-2.97.36-1.81.8-4.87 1.68-5.04 1.78-.35 3.88.87 6.15 1.53 1.51-1.41 3.6-3.49 5.84-5.41 2.66-2.28 11.3-2.87 14.17-.87 1.5 1.05 2.58 1.23 4.14.11 2.04-1.46 4.82-.19 5.65 2.25.28.82.83 1.59 1.39 2.27 2.15 2.62 2.56 5.53 1.95 8.8-.32 1.7-.06 3.51-.67 4.74-1.15 1.17-2.49 2.22-3.39 3.56-.99 1.46-1.54 3.21-2.33 4.81-.34.69-.65 1.7-1.23 1.93-6.81 2.78-9.73 9.56-14.74 14.18-.08.08-.14.18-.22.25-1.59 1.51-3.03 4.05-4.79 4.28-3.1.42-6.45-.34-9.57-1.1-1.16-.28-2.02-1.92-2.93-3.02-1.9-2.28-3.72-4.61-5.4-6.71z" fill="#010105"/><path d="m193.55 299.72c-.97-.2-1.95-.41-2.08-.44-.9-2.38-1.77-4.22-2.26-6.15-.38-1.47-.24-3.07-.4-4.6-.13-1.34-.34-2.67-.6-4.67 4.58-5.19 11.5-7.61 16.69-5.22.64-.5 1.32-1.03 2-1.57-.04.28-.08.55-.12.83 2.51.65 5.01 1.31 7.32 1.91.98 1.33 2.11 2.85 3.58 4.84.23.54.41 2.05 1.25 2.84 5.33 4.96 7.11 10.79 5.38 17.9-.47 1.95.11 4.15.21 6.24.44.23.89.46 1.33.7-2.99 2.49-5.62 6.11-9.05 7.17-3.56 1.1-7.89-.28-11.36-.53-4.28-6.3-8.4-12.37-12.53-18.43.24-.27.44-.54.64-.82z" fill="#010105"/><path d="m311.62 366.78c-.43 1.59-1.03 2.89-1.09 4.21-.11 2.45-1.1 3.35-3.57 2.98-1.95-.3-3.96-.26-5.76-.36-.48-1.7-.9-3.18-1.2-4.23.91-2.88 1.75-5.56 2.65-8.42 4.41-.6 5.15-.1 6.8 4.05.33.84 1.6 1.33 2.17 1.77z" fill="#010105"/><path d="m252.88 367.87c1.47-1.61 2.89-3.16 4.22-4.62 3.14 1.75 6.36 3.15 9.05 5.22 1.22.94 1.39 3.23 2.17 5.25-5.38-1.03-12.08 1.99-15.44-5.85z" fill="#010105"/><path d="m305.37 342.04c5.13-2.5 1.38-6.69 2.39-10.26 1.24-.2 2.7-.43 4.71-.75.21 4.7.41 9.06.65 14.38-1.52-1.25-2.38-1.95-3.42-2.81-.68.48-1.46 1.02-2.5 1.75-.61-.78-1.24-1.57-1.83-2.31z" fill="#010105"/><path d="m313.32 355.33c-2.94.35-4.1-1.21-3.88-3.25.14-1.3 1.57-2.45 2.42-3.67.57 1.04 1.41 2.03 1.65 3.14.24 1.14-.1 2.4-.19 3.78z" fill="#010105"/><path d="m290.2 364.64c2.06.59 3.86 1.1 5.69 1.62-1.94 3.62-2.63 3.78-6.72 1.48.31-.94.64-1.93 1.03-3.1z" fill="#010105"/></svg>