<svg enable-background="new 0 0 400 400" viewBox="0 0 400 400" xmlns="http://www.w3.org/2000/svg"><path d="m213.69 81.37c-.73-4.65-1.57-8.7-1.94-12.8-.26-2.83-.32-5.82.33-8.55 2.7-11.4 5.71-22.73 8.66-34.32 7.67 1.31 14.98 3.2 17.93 11.09 1.37 3.67 1.39 8.1 1.05 12.09-.55 6.43-2.39 12.76-2.75 19.18-.2 3.48 1.06 7.28 2.54 10.54 1.62 3.58 4.7 5.51 9.1 5.6 21.13.46 42.26 1.06 63.38 1.85 14.27.53 24.05 8.23 26.15 20.99.95 5.77.84 11.82.41 17.69-.24 3.28-1.76 6.63-3.36 9.6-3.17 5.91-6.71 11.62-10.27 17.31-.9 1.43-2.26 2.78-3.72 3.63-8.6 5-17.51 9.5-25.9 14.83-7.12 4.52-14.72 6.57-22.96 7.37-9.23.89-18.41 2.35-27.63 3.43-2.96.35-4.7 2.26-5.02 4.66-.61 4.46-1.09 9.11-.49 13.52 1 7.4 2.85 14.7 4.46 22.01.22.99.92 2.04 1.7 2.71 5.31 4.56 11.23 6.24 18.03 3.57 18.72-7.34 37.6-5.7 56.24-.11 9.38 2.81 17.83 7.82 23.69 16.19 3.54 5.05 5.2 10.6 4.51 16.77-.84 7.56-1.64 15.13-2.69 22.66-.22 1.6-1.21 3.24-2.25 4.53-1.47 1.81-3.14 3.59-5.07 4.86-1.55 1.03-3.66 1.89-5.45 1.77-5.69-.38-6.03-.97-6.03-6.68 0-8.73-.1-17.46.06-26.19.05-2.67-.94-4.41-2.92-5.97-4.52-3.55-9.86-5.29-15.34-5.04-12.38.56-24.73 1.81-37.08 2.83-1.78.15-3.53.81-5.3.79-6.99-.05-11.58 3.28-14.77 9.36-1.06 2.01-1.1 3.08.19 4.92 12.05 17.23 26.58 32.26 41.12 47.33 4.53 4.7 8.32 10.2 11.95 15.66 1.6 2.4 2.37 5.57 2.81 8.5 1.09 7.25-1.45 10.31-9.08 8.41-5.44-1.36-11.04-4.28-15.22-8.01-12.02-10.71-23.38-22.18-34.94-33.41-1-.97-1.7-2.34-2.31-3.63-5.91-12.53-11.69-25.13-17.72-37.6-.83-1.72-2.61-3.65-4.34-4.15-4.25-1.23-8.74-2.41-13.09-2.28-8.93.26-17.83 1.41-26.74 2.13-2.08.17-2.99 1.08-3.53 3.15-3.15 12.11-6.39 24.2-9.82 36.23-.64 2.23-2.06 4.39-3.6 6.17-2.55 2.96-5.34 5.76-8.28 8.33-6.28 5.47-11.11 11.82-13.71 19.84-.36 1.11-2.09 2.38-3.29 2.5-4.4.44-7.95 2.22-11.39 4.99-10.1 8.15-20.25 16.24-30.73 23.88-7.13 5.2-15.38 8.06-24.25 9.08-2.06.24-3.28-.38-4.65-1.75-4.94-4.96-6.17-11.26-6.57-17.82-.05-.78.91-1.93 1.7-2.39 3.09-1.79 6.22-3.56 9.48-5.01 18.91-8.4 34.59-21.21 49.21-35.57 7.91-7.77 15.11-16 18.7-26.65 1.63-4.82 2.27-9.98 3.41-14.97.46-2.04-.37-2.93-2.27-3.66-12.43-4.71-25.25-5.36-38.33-4.3-6.43.52-13.01 1.36-19.32.52-10.89-1.46-18.7-8.4-25.41-16.75-3.98-4.95-5.56-10.33-6.49-16.71-1.77-12.13 2.53-22.65 6.15-33.51.34-1.01 1.13-1.91 1.87-2.72 5.97-6.52 11.92-13.06 18.02-19.46 1.06-1.12 2.7-2.01 4.22-2.32 12.71-2.59 25.48-4.88 38.14-7.64 2.24-.49 4.06-2.81 6.1-4.24 4.05-2.85 4.72-6.48 3.82-11.31-2.18-11.76-3.82-23.62-5.52-35.46-.4-2.79-1.41-3.84-4.38-3.93-16.41-.52-32.57 1.88-48.81 3.64-5.82.63-11.86.4-17.67-.42-6.4-.91-9.67-5.09-10.13-10.8-.2-2.46.49-3.75 3.12-4.5 20.74-5.91 41.41-12.08 62.17-17.92 3.09-.87 4.02-2.42 4.45-5.22 1.38-8.98.43-17.84-.99-26.71-.39-2.41-.68-4.9-.54-7.32.29-5.08 3.02-7.37 8.12-7.21 10.44.32 17.27 5 20.77 15.28 2.15 6.31 3.19 12.99 4.83 19.49.68 2.7 1.78 5.3 2.39 8.02.9 4 3.55 5.97 7.31 6.18 8.13.45 16.27.88 24.4.76 10.23-.18 20.49-.92 31.37-1.43zm-98.55 159.48c9.63.62 17.36-3.53 24.27-9.63.98-.87 1.68-2.36 1.96-3.68 1.7-8.09 1.5-16.23.02-24.32-1.28-7.03-4.66-12.81-11.04-16.38-1.29-.72-3.18-1.02-4.63-.72-8.19 1.72-16.31 3.82-24.51 5.5-3.39.7-6.06 2.1-7.85 5.02-2.21 3.61-5.38 5.58-9.61 5.53-2.59-.03-3.02 1.39-3.28 3.55-.63 5.09-1.37 10.18-2.36 15.21-1.06 5.38 2.44 14.25 7.07 17.1.45.27 1.03.39 1.57.44 9.46.81 18.93 1.59 28.39 2.38zm148.72-87.99c3.56-.53 6.49-.71 9.28-1.42 11.02-2.79 20.49-8.63 29.54-15.28.44-.32.98-.75 1.1-1.22 1.63-6.59 3.82-13.13 4.58-19.83.73-6.41-4.21-9.73-10.46-8.27-8.03 1.87-16.11 4.51-24.42 2.75-5.94-1.26-10.81.35-15.45 3.51-3.41 2.32-6.43 5.24-9.92 7.41-6.89 4.3-8.48 10.31-6.49 17.74.17.65.29 1.31.51 1.94 1.48 4.27 3.09 8.72 7.9 10.07 4.67 1.32 9.59 1.83 13.83 2.6zm-106.44-40.23c3.15 6.67 6.7 13.05 9.21 19.81 2.94 7.9 6.95 15 12.67 21.12.92.99 2.6 1.74 3.95 1.77 7.72.17 15.45.08 23.17.08h8.53c3.17-10.61 3.15-10.61.42-20.79-.55-2.05-.7-4.21-1.33-6.23-1.3-4.14-2.47-8.38-4.29-12.3-2.51-5.42-6.83-8.85-13.06-9.11-6.92-.29-13.86-.71-20.78-.52-6.8.18-14.17-.75-18.49 6.17zm19.28 77.14c.87 15.12 1.74 29.86 2.55 44.6.09 1.71.58 2.72 2.5 2.77 7.82.19 15.64.66 23.46.61 5.13-.03 9.87-1.88 13.83-5.24.89-.75 1.71-2.15 1.72-3.27.14-8.93.43-17.87-.02-26.78-.44-8.68-4.34-12.41-12.61-15.17-10.86-3.63-20.9.05-31.43 2.48z" fill="#010106"/><g fill="#fcfbfa"><path d="m385.2 377.6.6-.7c.6.4 1.3.9 1.9 1.5l-.6.7c-.8-.5-1.4-1-1.9-1.5zm.3 7.1c.6-1.4 1.1-2.9 1.5-4.5.3.1.6.3.9.4-.5 1.4-1 2.9-1.5 4.4zm.2-10.1.6-.6c.7.5 1.3 1.1 1.9 1.6l-.7.7c-.6-.6-1.2-1.2-1.8-1.7zm8.4-.8h.8v.9h1.8v.7h-1.8v1.8h-.8v-.3h-1.2v.9h3.3v2.6h-.8v-.4h-2.5c0 .3 0 .6-.1.8h3.4v.7h-3.5c0 .3-.1.6-.1.8h4v.7h-3.5c.7.9 1.9 1.3 3.6 1.5-.2.2-.4.5-.6.9-1.9-.3-3.2-1.1-3.8-2.3-.5 1.1-1.8 2-3.9 2.4-.2-.3-.4-.5-.6-.8 1.9-.4 3.1-.9 3.6-1.7h-3.2v-.7h3.5c.1-.2.1-.5.2-.8h-3.3v-.7h3.4c0-.2 0-.5 0-.8h-2.4v.3h-.8v-2.6h3.3v-.9h-1.2v.3h-.8v-1.8h-1.8v-.7h1.8v-.9h.8v.9h3.2zm-4.4 5.5h2.4c0-.3 0-.6 0-.9h-2.4zm1.2-3.1h3.2v-.8h-3.2zm4.4 2.2h-2.4v.9h2.5v-.9z"/><path d="m389.2 385.8h.9v1.5h1.9v-1.5h.9v1.5h2.7v6h1.1v.9h-11.3v-.9h1.1v-6h2.7zm.2 8.7.5.8c-1.2.6-2.5 1.3-4 1.9-.2-.3-.3-.6-.6-.8 1.6-.6 3-1.3 4.1-1.9zm-2-4.3h1.9v-2.1h-1.9zm0 3.1h1.9v-2.2h-1.9zm2.7-3.1h1.9v-2.1h-1.9zm0 3.1h1.9v-2.2h-1.9zm2.4 1.3c1.4.6 2.7 1.2 4.1 1.8l-.5.9c-1.5-.7-2.8-1.4-4.1-1.9zm2.2-6.5h-1.9v2.1h1.9zm-1.9 5.2h1.9v-2.2h-1.9z"/></g></svg>