<svg enable-background="new 0 0 400 400" viewBox="0 0 400 400" xmlns="http://www.w3.org/2000/svg"><path d="m5.17 384 .55-.58c.85.61 1.65 1.24 2.4 1.87l-.59.64c-.83-.73-1.62-1.38-2.36-1.93m1.22 9.53-.82-.34c.71-1.76 1.37-3.64 1.98-5.63.24.13.5.25.76.36-.6 1.67-1.24 3.54-1.92 5.61m-.5-13.5.57-.54c.56.44 1.31 1.06 2.26 1.87l-.64.64c-.68-.66-1.41-1.32-2.19-1.97m3.25.46h2.24v-1.36h.77v1.36h4.57v-1.36h.76v1.36h2.28v.69h-2.28v1.84h-2.64v1.26h4.18v2.64h-4.21c0 .45-.02.86-.05 1.21h4.32v.69h-4.38c-.04.34-.1.75-.19 1.22h5.15v.69h-4.82c.87 1.19 2.51 1.92 4.93 2.19-.17.31-.3.57-.37.76-2.77-.49-4.52-1.41-5.26-2.76-.56 1.26-2.3 2.23-5.24 2.9-.12-.24-.26-.48-.43-.72 2.73-.55 4.38-1.34 4.96-2.38h-4.38v-.69h4.65c.1-.38.17-.79.21-1.22h-4.32v-.69h4.4c.03-.34.05-.75.05-1.21h-4.2v-2.64h4.23v-1.26h-2.69v-1.84h-2.24zm1.46 4.46v1.29h3.45c.01-.4.02-.57.01-.53v-.32-.45h-3.46zm1.55-2.59h4.57v-1.19h-4.57zm6.11 2.59h-3.42v.77c-.01.19-.01.37-.02.53h3.44z" fill="#fafafc"/><path d="m32.63 379.16h.82v1.98h3.54v7.89h1.46v.78h-14.37v-.78h1.46v-7.89h3.54v-1.98h.82v1.98h2.73zm-3.49 11.48.5.73c-1.61.82-3.28 1.63-5 2.41-.13-.27-.28-.55-.44-.82 1.75-.72 3.4-1.49 4.94-2.32m-2.78-5.55h2.73v-3.18h-2.73zm0 3.95h2.73v-3.2h-2.73zm3.54-3.95h2.73v-3.18h-2.73zm0 3.95h2.73v-3.2h-2.73zm7.89 4.68c-1.84-.92-3.51-1.7-5.02-2.32l.45-.73c1.89.8 3.57 1.55 5.04 2.23zm-1.62-11.81h-2.73v3.18h2.73zm-2.73 7.13h2.73v-3.2h-2.73z" fill="#fafafc"/><g fill="#010101"><path d="m242.56 257.64c-8.45 5.39-16.67 7.13-25.26 7.51-3.91.17-7.83.21-11.74.36-10.17.39-20.33.82-30.49 1.22-1.43.06-2.86.01-4.55.01.25-2.42.32-4.75.8-6.99.19-.92 1.1-2.08 1.95-2.4 2.27-.85 4.66-1.44 7.05-1.88 2.4-.44 4.93-.3 7.29-.89 4.29-1.07 4.86-2.16 4.46-6.59-.21-2.34-.14-4.74-.64-7.01-.21-.94-1.58-2.27-2.44-2.29-2.18-.04-4.41.45-6.56.95-1.95.45-3.79 1.4-5.75 1.74-4.33.76-6.19-.69-6.89-4.99-.32-1.93-.68-3.86-1.18-6.7-3.39 5.56-5.94 10.68-9.36 15.12-4.37 5.67-4.4 11.3-2.65 17.89 1.26 4.73.77 9.91 1.23 14.87.13 1.41.62 2.92 1.38 4.11 6.02 9.44 15.97 10.28 25.65 11.07 11.46.94 22.98 1.35 34.48 1.64 2.9.07 5.98-.8 8.73-1.89 10.71-4.22 21.35-8.62 31.92-13.17 1.65-.71 3.17-2.32 4.14-3.88 1.4-2.26 2.32-4.83 3.3-7.33 2.19-5.58 4.68-7.23 11.01-7.11 1.14 2.29 2.69 4.49 3.31 6.92.47 1.86.23 4.23-.54 6.01-2.11 4.92-4.66 9.65-7.18 14.74 2.85 1.67 5.59 3.31 8.37 4.89 7.29 4.15 14.59 8.27 21.89 12.41 3.24 1.84 3.46 5.67.44 7.97-3.53 2.7-7.6 3.02-11.47 1.45-4.52-1.83-8.95-4.06-13.03-6.71-4.96-3.22-9.46-7.16-14.31-10.56-1.17-.82-3.1-1.31-4.45-.99-9.78 2.33-19.49 4.99-29.26 7.35-2.53.61-3.24 2.28-3.29 4.33-.13 5.35-.47 10.76.07 16.06.91 8.89 2.49 17.72 3.65 26.59.25 1.89 1.04 2.83 2.81 3.09 3.75.55 7.5 1.2 11.26 1.59 2.44.25 4.93 0 7.38.2 5.18.42 7.7 3.38 7.06 8.53-.14 1.14-1.31 2.9-2.25 3.07-4.23.78-8.54 1.12-12.83 1.57-4.97.52-10.13.28-14.87 1.6-12.01 3.32-23.99 3.92-36.19 1.62-1.16-.22-2.47-.2-3.59.11-15.54 4.28-31.29 2.97-47.03 1.82-2.56-.19-5.09-.86-7.65-.99-4.9-.23-8.18-3.11-10.46-6.88-1.24-2.04-1.12-4.89-1.66-7.66 11.05-.81 21.07-1.64 31.12-2.21 2.47-.14 3.69-.71 4.37-3.32 2.91-11.25 6.39-22.36 9.03-33.66 1.09-4.67.67-9.72.76-14.59.01-.76-.75-1.97-1.43-2.24-7.99-3.09-15.01-4.85-23.47 3.17-7.64 7.24-15.45 14.29-22.97 21.65-2.78 2.72-5.31.95-7.67.09-.97-.35-1.94-3.12-1.54-4.34 1.37-4.18 2.77-8.56 5.24-12.11 3.18-4.55 7.33-8.44 11.21-12.47 1.84-1.91 3.8-3.95 6.13-5.07 3.67-1.76 5.53-4.31 5.36-8.26-.26-6.02 2.08-9.52 9.12-8.87-1.55-4.82-2.91-9.03-4.26-13.24-1.2-3.72-2.56-7.41-3.53-11.19-.82-3.19-2.9-4.92-5.86-5.07-3.06-.16-6.28.01-9.21.83-4.07 1.14-7.97 2.92-11.83 4.68-.95.43-2.12 1.89-2.06 2.8.28 4.04-1.63 6.97-4.42 9.35-3.43 2.93-7.15 5.52-10.74 8.27-.48-.26-.97-.51-1.45-.77.38-4.39.62-8.79 1.19-13.15.67-5.08 1.82-10.09 2.35-15.18.16-1.56-.68-3.49-1.64-4.84-3.9-5.47-7.69-11.07-12.15-16.05-4.2-4.69-5.32-9.96-4.7-15.75.96-8.87 2.24-17.71 3.48-26.55 1.37-9.73 2.96-19.44 4.21-29.19.35-2.7 1.02-4.71 4.17-5.67 8.6 8.91 20.1 13.98 30.36 20.91 4.8 3.24 9.38 2.28 13.83.13 4.21-2.03 8.05-4.81 12.07-7.23 2.01-1.2 3.97-2.97 6.14-3.32 3.66-.6 7.62-.92 11.15-.07 1.55.37 2.4 3.87 3.47 6 .65 1.29 1.02 2.73 1.69 4.01.97 1.84.86 3.39-.14 5.31-.92 1.77-1.46 3.99-1.39 5.99.36 10.4 1.33 20.8 1.32 31.2 0 5.4-1.57 10.8-2.43 16.19-.19 1.19-.39 2.38-.69 4.19 6.29-1.11 12.21-2.02 18.02-3.36.81-.19 1.57-2.56 1.58-3.92.06-7.6-.25-15.21-.16-22.81.05-4.1.24-8.29 1.14-12.26.54-2.38 2.58-4.42 4.22-7.08 5.34 6.34 8.07 12.86 9.05 20.03 1.22 8.97 1.96 18 3.08 26.98 1.55 12.45 10.05 18.24 21.01 21.61 3.3 1.02 6.74 1.81 9.76 3.38 2.15 1.17 3.76 3.43 6.05 5.57zm-87.69-84.65c-7.1 4.19-13.99 8.09-20.71 12.28-4.01 2.5-7.98 2.18-11.71.11-2.56-1.42-4.46-4-6.89-5.72-3.14-2.23-6.43-4.29-9.85-6.04-.89-.46-2.94.06-3.71.85-6.37 6.55-7.2 14.69-6.16 23.26.36 2.97 1.85 4.37 5.13 4.11 14.24-1.11 28.58-1.39 42.72-3.22 12.04-1.55 9.69.11 14.45-12.76 1.79-4.81.29-8.92-3.27-12.87zm-53.78 43.12c-.34 4.44 1.09 7.85 4.11 9.65 5.74 3.41 11.62 7.45 17.95 8.81 11.5 2.46 22.7.27 32.22-7.42.78-.63 1.38-1.74 1.61-2.74 1.73-7.28-1.87-11.41-9.36-11.22-6.13.16-12.39.7-18.37-.27-9.82-1.57-18.67 2.43-28.16 3.19zm91.56 142.2c.02.15.03.31.05.46 6.56-.52 13.18-.62 19.65-1.67 6.12-.99 6.62-2.3 5.66-8.44-1.18-7.62-5.45-10.32-13.12-8.85-4.59.87-9.33.92-13.97 1.55-4.18.57-8.42 1.07-12.45 2.25-4.37 1.28-5.79 10.02-2.32 13.05.6.52 1.59.78 2.42.84 4.69.32 9.39.55 14.08.81zm5.77-30.1c3.19-.27 6.19-.47 9.18-.79 1.32-.15 2.68-.39 3.9-.89 1.16-.48 2.76-1.12 3.13-2.09 2.58-6.75-2.07-15.62-9.23-16.5-5.89-.72-11.97-.2-17.94.2-1.66.11-3.97 1.37-4.67 2.76-1.62 3.25-2.61 6.85-3.52 10.39-.82 3.19.62 5.01 3.97 5.4 5.11.58 10.22 1.03 15.18 1.52z"/><path d="m260.42 250.09c-3.17-4.62-3.28-9.47-2.51-14.43 1.62-10.44-2.25-18.58-10.36-24.96-1.93-1.52-3.96-2.93-5.89-4.45-8.64-6.78-12.76-15.83-13.49-26.66-.56-8.36-1.29-16.72-2.06-25.07-.14-1.53-.53-3.19-1.34-4.45-.74-1.16-2.08-2.44-3.35-2.68-9.33-1.79-18.75-3.16-27.11-8.18-.83-.5-1.9-.64-2.87-.89-.63-.16-1.28-.21-2.61-.42 0 3.42-.12 6.61.03 9.79.18 3.8.67 7.58.86 11.38.14 2.69.24 5.59-2.9 6.84-2.45.98-6.24-.46-7.52-3.49-1.98-4.67-3.32-9.61-4.83-14.48-.49-1.59-.51-3.33-1-4.91-1.34-4.28-3.01-5.39-7.41-4.91-9.78 1.06-19.54 2.38-29.34 3.2-3.6.3-7.4-.07-10.92-.92-4.03-.98-6.6-3.9-7.48-9.06 7.8-1.88 15.48-3.66 23.13-5.59 6.05-1.53 12.11-3.08 18.03-5.02 1.81-.59 4.69-2.95 4.46-3.79-.85-3.12-.63-7.05-4.49-8.8-3.15-1.43-6.19-3.11-9.27-4.7-10.13-5.2-20.61-9.84-28.99-18.62-6.34 6.61-14.08 10.97-18.97 18.7-4.39 6.94-9.83 13.22-14.96 19.68-1.07 1.34-2.79 2.16-4.47 3.41-1.7-4.43-1.36-8.58.01-12.58 1.92-5.6 4.13-11.1 6.33-16.59.39-.99 1.21-1.86 2-2.62 5.34-5.1 10.72-10.17 16.11-15.22.89-.83 1.81-1.8 2.91-2.22 6.43-2.46 9.07-7.91 11.08-13.84 1.18-3.49 2.2-7.04 3.21-10.58 1.68-5.88 4.97-10.77 9.4-14.83 3.35-3.07 7.88-3.4 11.73-2.09 6.56 2.24 11.02-.36 15.24-4.69.94-.96 1.82-1.97 2.69-3 3.22-3.84 5.71-4.11 9.69-.97.78.62 1.6 1.3 2.13 2.13 4.07 6.4 10.39 7.97 17.34 8.26 5.14.21 10.28.34 15.41.71 2.32.17 4.79.43 6.84 1.39 2 .94 4.04 2.53 5.21 4.38 2.27 3.58 1.24 5.39-2.85 6.29-6.46 1.42-12.87 1.14-19.26-.43-2.06-.51-4.11-1.13-6.2-1.47-6.14-1.02-9.7 1.88-10.01 8.11-.09 1.77-.01 3.55-.01 6.22 6.22.68 12.25 1.4 18.3 1.98 3 .28 6.06.08 9.04.46 6.29.8 9.08 4.58 7.98 11.44-7.55 0-15.23 0-22.92 0-8.04.01-8.04.01-9.15 7.95-.23 1.66-.47 3.32-.72 4.98-.69 4.59-.7 4.62 3.93 5.76 6.51 1.61 12.86.46 19.2-1.15 4.64-1.18 9.31-2.48 14.04-3.03 5.55-.64 8.66 1.97 9.93 7.62-14.58 4.76-29.19 9.53-44.17 14.43.18 2.44.27 5.33.69 8.17.11.75 1.13 1.62 1.93 1.98 11.31 5.15 22.76 9.86 35.11 11.96 3.9.66 7.22.43 10.36-2.79 4.27-4.37 9.63-3.12 12.55 2.3 2.01 3.74 3.95 7.52 6.08 11.19.83 1.43 1.93 2.77 3.17 3.86 4.83 4.27 6.13 4.01 10.53-.6 5.31-5.56 10.36-11.56 16.43-16.16 8.19-6.2 12.32-4.75 16.25 4.59 1.67 3.98 3.26 8.29 3.47 12.52.42 8.29 2.4 16.22 5.2 23.81 3.83 10.42 4.15 20.57.9 31.06-1.12 3.62-1.37 7.5-2.47 11.12-1.81 5.98-.69 11.59.85 17.42 1.17 4.46 1.41 9.2 1.65 13.84.05 1.02-1.46 2.45-2.6 3.06-.46.24-2.22-1-2.72-1.93-2.33-4.33-4.43-8.77-6.61-13.18-1.24-2.5-2.37-5.06-3.71-7.51-3.11-5.69-9.55-5.97-13.42-.54-3.37 4.73-6.54 9.62-9.88 14.38-2.6 3.72-6.04 6.48-10.59 8.13zm36.87-75.69c-.88-4.77-1.24-9.62-2.82-14.05-.85-2.37-3.63-4.24-5.9-5.82-.76-.53-3.15.08-3.9.95-4.83 5.56-9.57 11.22-14.04 17.07-3.18 4.17-3.41 4.55-8.4 2.6-2.16-.84-4.36-1.89-6.15-3.33-3.92-3.14-7.55-6.64-11.39-9.89-1.38-1.17-2.99-2.05-4.5-3.07-.57 1.71-1.5 3.39-1.65 5.13-.55 6.45-1.17 12.96 1.59 19.16.78 1.76 1.76 2.78 4.01 2.74 18.14-.26 35.29-5.06 53.15-11.49zm-43.92 25.62c1.62 1.43 2.45 2.71 3.59 3.1 7.14 2.46 14.23 5.25 21.57 6.91 8.4 1.89 17.47-3.7 20.07-11.35 1.55-4.55-.31-6.9-5.13-6.31-2.32.28-4.61.85-6.91 1.29-10.71 2.05-21.42 4.1-33.19 6.36zm-88.16-142.35c-.08-5.8-.99-8.27-3.97-9.6-4.22-1.88-8.2-2-12.17 1.17-3.65 2.91-7.94 5.03-11.6 7.93-1.9 1.51-3.43 3.79-4.46 6.02-1.26 2.75 1.5 7.11 4.01 6.62 7.77-1.5 15.56-2.99 23.2-4.99 4.89-1.27 5.06-2.08 4.99-7.15zm.1 20.29c-5.7 0-10.77.06-15.84-.03-1.89-.03-3.79-.3-5.66-.63-1.86-.33-2.58.54-3.07 2.17-1.06 3.55 1.39 8.53 5.6 10.2 4.66 1.85 9.43 3.51 14.28 4.76 2.41.62 5.11.11 8.13.11-1.32-6.34-2.42-11.67-3.44-16.58z"/><path d="m238.28 232.32c.01 5.85-2.68 7.71-8.05 5.5-7.33-3-11.95-9.11-16.46-15.12-1.17-1.55-1.42-5.08-.44-6.68 1.8-2.94 5.5-3.48 8.45-1.68 4.35 2.65 8.78 5.37 12.47 8.83 2.32 2.17 3.32 5.74 4.92 8.68-.3.15-.59.31-.89.47z"/></g></svg>