<svg enable-background="new 0 0 400 400" viewBox="0 0 400 400" xmlns="http://www.w3.org/2000/svg"><g fill="#fafafb"><path d="m12.4 4.8-6.1 9h6v1.2h-8v-.5l6.1-8.9h-5.7v-1.2h7.6v.4z"/><path d="m14 15v-10.6h3c1.6 0 2.9.5 4 1.4s1.6 2.2 1.6 3.8-.5 3-1.6 3.9-2.4 1.5-4 1.5zm1.4-9.4v8.2h1.6c1.3 0 2.4-.4 3.1-1.1s1.1-1.8 1.1-3.1-.4-2.3-1.2-3-1.8-1-3.1-1z"/><path d="m26.1 4.4v10.6h-1.4v-10.6z"/><path d="m36.1 14.6c-.8.4-1.8.6-2.9.6-1.5 0-2.7-.5-3.6-1.4s-1.4-2.2-1.4-3.8c0-1.7.5-3.1 1.5-4.1s2.3-1.6 3.9-1.6c1 0 1.8.1 2.5.4v1.4c-.8-.4-1.6-.6-2.5-.6-1.2 0-2.1.4-2.9 1.2s-1.1 1.8-1.1 3.2c0 1.3.3 2.3 1 3s1.6 1.1 2.7 1.1c1 0 2-.2 2.7-.7v1.3z"/><path d="m37.6 14.3c0-.2.1-.5.3-.6s.4-.3.6-.3c.3 0 .5.1.6.3s.3.4.3.6-.1.4-.3.6-.4.3-.6.3c-.3 0-.5-.1-.6-.3s-.3-.4-.3-.6z"/><path d="m50.2 15h-1.6l-5.3-8.2c-.2-.2-.3-.5-.4-.7 0 .2.1.7.1 1.5v7.4h-1.4v-10.6h1.7l5.2 8.1c.2.4.4.6.4.7 0-.3-.1-.8-.1-1.5v-7.3h1.4z"/><path d="m58.6 15h-5.7v-10.6h5.5v1.2h-4.1v3.4h3.8v1.2h-3.8v3.6h4.3z"/><path d="m67.1 5.6h-3.1v9.4h-1.4v-9.4h-3v-1.2h7.5z"/></g><path d="m71.06 25.32h250.6v62.1c-1.22-.76-2.65-2.25-4.27-2.49-1.52-.22-3.45.55-4.82 1.46-2.26 1.5-2.2 5.21-.23 8.91 2.21 4.14 3.44 4.53 9.79 2.88v276.45c-83.45 0-166.87 0-250.28 0 0-3.08.08-5.96-.02-8.83-.17-4.64-.55-9.28-.66-13.93-.06-2.56.36-5.12.36-7.69.01-11.29-.06-22.57-.09-33.86-.02-5.92.04-11.84-.03-17.77-.05-4.24-.3-8.48-.33-12.72-.01-2.55.17-5.1.39-7.64.22-2.59 1.67-5.21-.47-7.68-.24-.27-.15-.86-.14-1.3.9-39.4-.06-78.8.06-118.2.12-39.39.03-78.79.03-118.18.01-.45.07-.89.11-1.51zm159.81 221.86c-3.03.5-4.65-1.25-6.95-2.79-4.62-3.1-11.55-.45-15.35 4.42.91 2.37 2.03 4.59 2.57 6.95.42 1.8 1.3 2.11 2.88 2.51 1.83.47 3.61 1.51 5.17 2.63 2.98 2.14 5.79 4.5 9.22 7.21-.85 11.66.63 13.05-5.5 18.69-.09 1.54-.1 2.61-.22 3.68-.09.85-.51 1.7-.43 2.52.23 2.47 1.24 5.04.83 7.37-.55 3.07-1.51 6.55-3.51 8.76-1.94 2.14-2.7 4.63-2.92 6.82-.58 5.63-6.18 10.77-1.86 16.9.08.11-.1.42-.2.62-2.38 4.22-.42 8.48.03 12.68.21 1.95 4.59 2.81 6.01 1.36 1.84-1.86 3.7-3.7 5.45-5.64.39-.43.64-1.31.49-1.85-.66-2.35-.19-4.09 1.97-5.47.48-.31.3-1.66.47-2.88-1.44.73-2.26 1.14-3.07 1.56-.16-.18-.33-.35-.49-.53 1.29-1.71 2.58-3.41 3.83-5.06-.66-1-1.21-1.82-1.75-2.62 1.72-2.7 5.58-4.45 3.32-8.64-.17-.31.95-1.32 1.49-1.99 1.7-2.09 3.62-4.14 1.13-7.04 1.34-.43 2.48-.8 2.73-.88.76-2.12.94-3.88 1.89-4.95 1.9-2.15 2.38-4.09.61-5.92.41-1.39 1.17-2.52.93-3.37-.73-2.59.57-4.16 2.03-5.98 1.36-1.68 3.51-4.05 3.11-5.54-.86-3.22.83-4.75 2.55-6.46 1.84-1.85 2.05-3.33-.39-4.72-.14-.08-.17-.35-.26-.52.56-.81 1.1-1.6 1.65-2.4-.37.04-.74.08-1.11.13-.59-1.96-1.71-3.95-1.64-5.89.1-3.13 2.28-5.99 1.44-9.39-.29-1.17-.07-2.55.24-3.76.56-2.23.72-5.1 2.2-6.44 2.28-2.06 5.53-3.06 8.37-4.51.05-.3.03-1.45.3-1.52 2.01-.51 4.37-1.61 6.06-.99 2.26.83 4.01 3.04 5.94 4.63 1.01-.47 2.21-1.54 3.32-1.46 4.62.32 9.49-2.32 10.92-6.6.47-1.39-.07-3.1.22-4.58.78-3.99-2.37-8.57-6.24-8.62-3.57-.05-7.17-.12-10.71.27-2.12.23-4.14 1.77-6.24 1.88-2.35.12-3.89.57-5.24 2.67-1.65 2.55-5.62 2.93-9.04 1.33-2.18-1.02-3.23-4.16-2.04-6.79 1.84-1.19 4.55-2.6 4.66-4.19.3-4.22-3.59-2.48-6.44-2.67 1.02-1.17 1.57-1.84 2.16-2.47 2.25-2.4 5.72-4.22 3.57-8.58-.3-.6.62-2.11 1.33-2.84.92-.95 2.21-1.53 3.35-2.27-.45-.25-.9-.49-1.35-.74-.36-3.19-.73-6.38-1.15-10.04 5.62 2.93 13.83-3.24 13.74-9.86 5.5 2.79 7.59-2.85 10.66-4.1.54-1.65.75-2.8 1.27-3.79 1.58-2.98 6.48-4.68 3.54-9.42-.19-.31.53-1.14.72-1.75.08-.27-.14-.62-.27-1.13-.8.1-1.55.19-2.9.36 2.5-2.7 2.09-4.91-.84-5.56-8.11-1.8-16.36-3.27-23.38 3.09-1.17 1.06-1.66 2.85-2.47 4.3.35.22.69.44 1.04.66-2.82 1.06-2.81 3.29-3.02 5.74-.19 2.3-.76 4.93-2.11 6.7-2.36 3.1-3.47 6.1-2.14 9.83.19.52.32 1.08.36 1.64.11 1.59-.22 2.95-2.21 1.98-2.42-1.18-2.79.44-3.46 2.08-.92 2.26-2.04 4.43-3.35 7.22-3.52-4.55-6.18-8.9-11.97-7.57-1.59.37-3.71.91-4.44 2.08-3.19 5.13-.68 13.69 4.35 15.95 1.61 5.31 3.22 10.61 5.12 16.87 1.6 1.12 4.24 2.95 6.9 4.8-.34.65-.49 1.09-.76 1.43-3.71 4.59-5.15 9.65-4.05 15.59.4 2.16-.41 4.58-.67 6.87zm-107.06-102.9c-.23.15-.47.3-.7.45.09 1.49.07 2.99.31 4.45.29 1.8.89 3.55 1.21 5.34.49 2.82.39 5.83 1.39 8.44.98 2.57 2.75 4.39 2.58 7.8-.45 8.99-.07 18.06.53 27.06.24 3.6 1.63 7.21 3.01 10.61 1.01 2.5.34 4.39-2.48 4.7-1.5.17-3.01.32-4.74.51 1.69 2.4.91 3.12-1.44 2.94.13 2.13.38 4.25.32 6.36-.02.85-.5 2.11-1.15 2.43-2.58 1.28-5.32 2.26-7.45 3.14.93 4.43 1.72 8.45 2.64 12.44.9 3.95 1.93 7.88 2.9 11.77-.39.18-.08.09.18-.09 3.52-2.45 6.56-5.74 11.48-5.6.85.03 1.92-2.01 2.61-3.25 1.09-1.96 1.48-4.55 3.01-5.97 2.98-2.78 3.39-5.78 2.45-9.39-.42-1.6-1.35-3.6-.78-4.82 1.59-3.42-.41-5.23-2.37-7.21-.99-.99-2.11-1.85-3.18-2.77.62-.87 1.05-1.53 1.54-2.13.49-.59 1.06-1.13 1.59-1.69.15.11.3.22.44.33-.34 1.03-.67 2.05-1.17 3.56 5.69-3.82 6.96-5.52 7.24-9.38.9.27 1.79.54 3.76 1.13-1.07-2.97-1.57-5.33-2.72-7.31-1.92-3.33-1.87-5.98.94-9.23 1.05 1.74 4.01 2.2 3.25 5.4-1.28-.62-2.19-1.06-3.1-1.51-.25.29-.5.57-.75.86 1.24 1.02 2.65 1.89 3.69 3.09 3.1 3.57 6.21 6.33 11.08 2.61.81-.62 2.28-.39 2.67-.44 1.93-5-2.79-11.24 4.83-14.03-1.16-1.32-1.96-2.21-2.72-3.08 2.71-3.29 1.6-7.12-1.78-8.45 0-1.71-.07-3.18.02-4.65.06-.89.07-2.04.6-2.58 2-2.02 2.3-4.38 2.29-7.06-.01-1.96.7-3.91.93-5.89.13-1.11-.07-2.26-.13-3.55-1.79.49-2.82.77-4.48 1.22.95-1.26 1.5-1.98 2-2.64-.76-1.09-1.37-1.98-2.04-2.94 1.04-.9 1.87-1.63 2.56-2.22-1.45-5.85-6.48-2.63-10.12-4.25-1.24 3.04-3.29 5.95-3.48 8.98-.35 5.54-5.16 9.68-4.27 15.53.14.94-1.35 2.1-.04 3.41.23.23-.36 1.28-.58 1.95-.4.09-.8.18-1.2.26-1.06-2.8-2.11-5.59-3.17-8.39-.26-.7-.34-1.88-.8-2.05-3.1-1.14-2.18-2.69-.73-4.52.31-.39.04-1.22.11-1.84.09-.85-.06-2.04.44-2.5 4.08-3.75 3.09-8.3 2.27-12.86-.03-.18.14-.4.25-.68.86.28 1.73.57 2.9.95 0-1.46 0-2.59 0-2.98 2.08-.42 3.71-.75 5.04-1.02 1.03.41 1.99 1.15 2.87 1.08 2.05-.17 4.07-.73 6.61-1.23 0-2.32 0-5.24 0-8.19.29.04 1.07.16 1.69.25 1.74-4.04.19-6.89-2.55-9.55-1.24-1.2-2.69-2.75-2.94-4.31-1.01-6.31-1.38-12.77-6.94-17.23-.17-.14-.29-.34-.4-.54-2.05-3.74-6.3-3.43-8.89-2.8-2.34.57-4.64 4.14-5.53 6.86-.71 2.17-1.3 4.07-2.89 5.71-1.87 1.93-3.71 3.9-5.37 6-.76.96-1.08 2.27-1.76 3.8-.45.03-1.54.11-2.95.2.67 1.3 1.26 2.36 1.76 3.46.45.98 1.2 2.03 1.13 3-.32 4.55-.92 9.08-1.31 13.62-.07.83.53 1.71.56 2.57.03 1.13.01 2.37-.41 3.39-.44 1.07-1.39 1.93-2.12 2.89.78.94 1.36 1.6 1.95 2.27zm93.26 17.92c2.08-3.49 3.19-3.95 6.35-3.18.83.2 1.78.11 2.64-.04 4.96-.86 10.39.21 14.69-3.46 3.32 1.3 4.92-2.18 5.43-3.45 1.28-3.19.27-6.77-2.53-9.22-.89-.78-2.44-1.11-3.69-1.12-2.52-.01-5.12.85-7.53.44-4.5-.77-8.94-.98-13.45-.43-1.28.16-2.62-.14-3.93-.17-.61-.01-1.23.14-1.84.2-2.91.28-5.81.58-8.73.79-.33.02-.72-.76-1.05-.73-2.8.24-5.39-1.42-8.43-.34-2.49.89-5.41.57-8.14.78-.06-.35-.11-.7-.17-1.06-1.36.97-2.67 2.04-4.1 2.88-2.77 1.62-2.42 3.53-.93 5.86.88 1.36 1.22 3.06 2.06 4.46 1.02 1.71 1.92 3.67 4.47 3.66 4.77-.03 10.24 3.34 11.47 7.77 1.31 4.72 5.5 7.14 7.76 11.06 1.28 2.22 3.11 4.12 5 6.56.49 0 1.73.16 2.92-.04 1.14-.19 2.95-.51 3.17-1.2.77-2.36 1.3-4.9 1.29-7.37 0-2.41-.77-4.82-1.16-6.98 1.83-.25 3.28-.45 4.73-.65.02-.37.03-.74.05-1.12-2.04-1.28-4.1-2.53-6.35-3.9zm-5.08-40.29c-.33-.08-.66-.15-.99-.23-.41-1.57-1.42-3.29-1.09-4.69.72-3.05-.79-5.61-4-5.78-1.26-.07-2.51-.3-3.22-.38 0-2.29.03-4.05-.01-5.81-.05-2.33-.02-4.67-.27-6.98-.68-6.42 5.47-10.04 6.48-15.99.38-2.27.45-3.69-.86-5.18.9-1.22 1.62-2.2 2.39-3.25-.82-.97-1.6-1.88-2.52-2.98 2.85-2.19 1.73-4.43-.23-6.16-3.08-2.72-6.43-5.16-9.71-7.65-1.61-1.23-3.19-2.81-5.04-3.36-4.31-1.29-9.73 3.11-9.56 7.71.14 3.97 1.03 7.92 1.13 11.89.1 3.9-.34 7.82-.61 11.72-.12 1.78.33 2.99 2.25 3.49 2.19.57 3.01 2.03 2.55 4.31-.72 3.54-.15 6.71 2.33 9.63.87 1.02.55 3.03.84 4.57.24 1.31.14 3.11.95 3.81 3.07 2.67 4.15 5.87 3.84 9.79-.1 1.3.17 2.62.27 3.94.25-.23.51-.45.76-.68 1.5.94 3.36 1.59 4.41 2.89 2.07 2.56 3.9 2.13 5.81.16 1.47-1.48 2.74-3.18 4.1-4.79zm-84.32-53.59c-.4 4.04-.82 7.8-1.12 11.56-.1 1.2.04 2.44.19 3.65.25 1.98 1.32 2.72 3.42 2.62 5.84-.29 10.22-2.84 12.58-7.29 2.03 0 3.39-.12 4.71.05.68.09 1.89.78 1.85 1.05-.66 4.64 3.69 6.29 5.17 9.88 1.12-1.19 1.88-1.99 2.66-2.82 1.02.59 1.95 1.12 2.68 1.54 1.39-1.09 2.58-2.03 3.82-3-.46-.86-.89-1.68-1.47-2.78 1.57-.47 2.86-.86 4.4-1.33-1.6-1.84-2.98-3.42-4.33-4.98.55-.74 1-1.35 1.52-2.05-1.88-2.62-3.77-5.12-5.48-7.73-.35-.53-.38-1.77-.01-2.19 1.57-1.76.4-2.93-.51-4.37-1.3-2.06-3.62-3.67-2.72-6.82.28-.99-.63-2.57-1.45-3.48-.28-.31-2.12.35-2.91.98-3.71 2.97-6.59 6.98-11.54 8.34-4.41 1.21-6.97 4.43-8.3 8.73-.99.14-1.98.28-3.16.44zm168.43 5.47c-.21-.1-.43-.21-.64-.31.4-.53.96-1.01 1.18-1.61 1.48-4.01 1.03-9.06-3.27-9.98-2.23-.48-4.51-.7-6.16-.94-2.27 2.32-4.39 4.37-6.36 6.57-.61.68-1.17 1.79-1.08 2.63.66 5.78 3.07 11.36 1.68 17.38-.29 1.25.23 2.67.18 4-.09 2.44-.33 4.88-.51 7.31-.16 2.08-.35 4.16-.47 6.24-.15 2.55-.23 5.09-.35 7.76.27 1.73.44 3.73.97 5.62.17.63 1.2 1.21 1.95 1.43.48.14 1.15-.58 1.76-.64 3.88-.4 5.66-2.39 5.55-6.26-.04-1.56-.49-3.34.1-4.63 1.37-2.98.38-5.39-1.11-7.79-1.05-1.7-1.02-3.09.11-4.88.87-1.38.88-3.3 1.3-5.1 1.44-1.56 3.15-3.31 4.73-5.17 1.68-1.97 3.16-4.05.91-5.24-.2-2.74-.34-4.56-.47-6.39zm-39.78 33.49c1.17-3.27 2.42-6.14 3.15-9.13.36-1.48.33-3.7-.54-4.7-1.56-1.78-3.87-2.92-5.92-4.25-.38-.25-1.26-.35-1.5-.11-2.83 2.85-6.18 4.96-7.37 9.51-1.57 5.97 3.85 10.28 2.65 15.87-.05.23.43.52.52.83.72 2.37 1.55 4.72 2.05 7.13.3 1.45.05 3.02.05 3.56 2.78 1.55 4.86 2.51 6.71 3.8 2.2 1.52 4.13 3.42 6.32 4.96.74.52 2.25.94 2.82.55 2.96-2.03 5.73-4.33 8.58-6.56-4.25-5.05-4.25-5.05-9.5-6.97 1.99-6-3.63-7.68-6.15-11.24.34-.64.76-1.42 1.26-2.35-1.37-.38-2.42-.69-3.13-.9zm-91.91 129.01c-.9-2.24-1.65-3.95-2.26-5.71-.33-.93-.45-1.93-.62-2.91-.24-1.31-.54-2.62-.65-3.95-.26-3.24-.39-6.5-.64-9.74-.09-1.15.02-2.73-.66-3.33-2.05-1.83-4.26-3.82-6.77-4.66-1.41-.47-4.84.88-5.11 1.97-1.17 4.71-2.07 9.68 1.18 14.31-2.14 2.58-1.95 5.48-2.12 8.78-.4 7.74 1.79 13.28 8.38 17.5 1.82 1.16 3.04 1.76 4.61.57 1.56-1.19 2.89-2.7 4.21-4.16.97-1.08 1.77-2.33 2.83-3.76-4.42-1.33 1.92-4.02-.63-5.97-.75.45-1.46.88-1.75 1.06zm77.67-172.75c-.89-4.64 1.07-8.61-1.75-11.84-.09-.1.15-.64.37-.84 2.22-2.05-.12-3.06-1.18-3.78-1.14-.78-2.49-.95-3.7-2.14-1.06-1.04-4.04-1.18-5.57-.45-2.17 1.04-5.49 9.46-4.82 12.73.51 2.52-.01 5.26-.1 7.9-.1 2.86-.29 5.73-.32 8.59-.02 1.61.22 3.23.34 4.85-.38.29-.75.59-1.13.88 1.62.77 3.19 1.7 4.88 2.27 1.11.37 2.44.43 3.6.24 1.28-.21 2.64-.66 3.7-1.39 4.12-2.84 3.4-6.99 1.79-10.53-1.62-3.58-.25-6.04 1.25-8.89.77.69 1.4 1.27 2.64 2.4zm-143.92 48.81c.91 1.19 2.06 2.7 3.21 4.21.14.18.26.36.41.53 2.63 2.88 6.43 2.81 8.62-.25 1.24-1.73 2.49-2.78 4.94-2.58 3.31.27 5.45-2.44 4.83-5.24.73-.61 1.62-1.04 2.06-1.76.93-1.52 1.57-3.21 2.42-4.78.42-.77 1.63-1.89 1.48-2.08-2.19-2.85.69-5.14.92-7.75-2.51-1.48-4.9-2.89-6.5-3.84-3.67 1.73-6.77 3.09-9.74 4.69-.69.37-.99 1.52-1.42 2.34-1.45 2.78-2.27 6.26-4.47 8.17-2.76 2.39-6.27 3.85-6.76 8.34zm99.06 101.34c2.47 1.74 4.62 3.23 6.74 4.76 1.64 1.18 2.85 3.29 5.47 2.24.41-.17 1.21.41 1.74.78 3.54 2.48 6.37 5.87 11.61 5.52 3.26-.22 5.75-1.56 4.57-4.71-.71-1.9-2.07-3.7-3.53-5.16-3.08-3.07-6.37-5.94-9.66-8.79-2.51-2.17-4.25-6.2-8.79-3.92-.22.11-.63-.16-.95-.26-3.82-1.18-5.89-.04-6.71 3.97-.4 1.97-.37 4.02-.49 5.57zm-17.91-102.19c.05-.27.11-.54.16-.81 3.01.69 5.99 1.29 7.31-2.69-1.11.11-2.02.21-2.57.26-.39-1.34-.4-2.69-1.07-3.46-4.55-5.21-9.22-10.32-13.92-15.4-.66-.71-1.63-1.23-2.56-1.54-.59-.2-1.52-.08-2.02.29-4.66 3.39-5.54 5.89-4.15 11.37.52 2.05 1.08 3.86 3.92 3.47.73-.1 1.9.66 2.37 1.36 1.13 1.69 1.97 3.57 3.12 5.73 2.16.25 4.98.41 4.84 3.86 2.27.13 4.24.23 6.6.37-.83-1.14-1.43-1.97-2.03-2.81zm-54.98 259.39c-1.9-2.86 1.36-3.7 2.68-5.23 1.28-1.48 2.5-2.81.88-4.55-2.7-2.9-5.67-4.96-10.13-4.68-4.48.28-6.31 3.7-8.41 5.38-.27 2.45-.71 4.09-.55 5.67.15 1.46.57 3.7 1.51 4.1 2.08.89 4.58 1.2 6.87 1.07 2.34-.15 4.62-1.11 7.15-1.76zm-2.81-92.24c1.03-4.4-1.41-7.35-5.44-7.09-1.41.09-3.25.39-4.2-.33-2.52-1.92-4.08-.5-5.74 1.02-1.28 1.17-2.47 2.44-3.81 3.77 1.03.86 1.85 1.56 2.15 1.81v4.12c.95-.56 1.54-.91 2.17-1.28 1.2 3.62 3.01 4.4 6.5 3.28.78-.25 1.77.17 2.66.24 1.15.09 2.64.62 3.4.1 1.84-1.26 3.33-3.01 5.4-4.98-1.55-.34-2.25-.48-3.09-.66zm60.45-101.83c2.3-.87 4.82-1.41 6.82-2.72 1.34-.88 3.01-3.26 2.65-4.3-.9-2.57-2.51-6.28-4.52-6.78-4.74-1.18-10.31-2.41-13.89 2.99-.6.91-1.11 2.51-.71 3.32.66 1.33 2.84 2.14 3.06 3.4.71 4.15 3.59 3.5 6.59 4.09zm49.17-72.2c-.33-.47-1.33-1.71-2.12-3.08-1.19-2.06-3.26-1.75-5.1-2.2-3.04-.74-5.41 1.13-5.05 4.22.27 2.32.57 4.63 1.01 6.92.47 2.5 3.22 4.11 5.7 3.5 4.75-1.17 5.4-2.12 5.56-9.36zm-29.37 178.29c1.37-.54 2.71-1.17 4.11-1.58 2.08-.62 3.51-2.94 2.43-4.16-.38-.43-1.09-.79-1.16-1.26-.81-5.07-4.63-7.4-8.71-9.29-.6-.28-2.91 1.24-2.98 2.05-.22 2.63-.05 5.37.49 7.96.69 3.28 2.68 5.75 5.82 6.28zm102.32 12.85c1.14 1.62 2.08 2.97 3.04 4.32.45.63.79 1.43 1.39 1.84.73.5 1.72 1.02 2.52.92 2.72-.33 4.53-3.13 3.79-6-.66-2.57-2.71-2.95-5-2.46-1.82.37-3.62.86-5.74 1.38zm-149.13-14.63c2.97.45 6.8-2.22 6.55-4.83-.13-1.44-1.15-3.07-2.28-4-.49-.4-2.44.52-3.41 1.26-1.2.91-2.09 2.24-3.05 3.43-.14.17.06.61.11.93.9.04 1.77.08 2.89.13-.33 1.23-.57 2.15-.81 3.08zm130.46-96.11c-2.7-5.62-4.36-6.94-9.25-.09 4.31.02 1.6 3.24 2.76 5.63 2.28-1.94 4.34-3.7 6.49-5.54zm-58.87 185.5c.06-.51.12-1.01.19-1.52-3.02-.82-6.01-1.93-9.09-2.3-.96-.11-2.21 1.73-3.19 2.8-.14.15.51 1.48.78 1.47 3.77-.06 7.54-.27 11.31-.45zm-42.12-246.11c1.25 1.07 2.63 2.23 3.87 3.29.99-1.3 1.79-2.35 2.7-3.54-1.24-1.46-2.63-3.1-3.84-4.54-.93 1.63-1.72 3.01-2.73 4.79zm90.85 5.2c.19.39.37.78.56 1.18.98.04 1.96.09 2.96.13-.65.9-1.28 1.76-1.91 2.63.32.27.64.55.96.82 1.43-1.58 3.04-3.04 4.12-4.83.21-.36-1.95-2.96-2.47-2.79-1.55.49-2.83 1.84-4.22 2.86zm-134.03 146.99c-.86-.45-1.64-.87-2.42-1.28-.17.19-.34.37-.51.56.64 1.18 1.29 2.37 1.59 2.93 2.66-.18 4.72-.33 6.73-.46-2.01-4.11-2.28-4.22-5.39-1.75z" fill="#010105"/><path d="m146.56 172.89c-2.43 2.79-1.86 4.76 1.59 5.94-.15.25-.31.5-.47.75-1.03.12-2.57.72-2.98.28-1.07-1.16-2.26-2.8-2.2-4.2.05-1.16 1.79-2.26 2.79-3.38.42.2.84.4 1.27.61z" fill="#010105"/><path d="m147.86 131.39c-1.6-1.69-2.62-2.76-3.89-4.1 1.36-.91 2.4-1.61 3.89-2.6z" fill="#010105"/></svg>