<svg enable-background="new 0 0 400 400" viewBox="0 0 400 400" xmlns="http://www.w3.org/2000/svg"><path d="m374.8 390.4.4-.4c.7.5 1.3 1 1.8 1.4l-.5.5c-.5-.6-1.1-1.1-1.7-1.5zm1 7.3-.6-.3c.5-1.4 1.1-2.8 1.5-4.3.2.1.4.2.6.3-.5 1.3-1 2.8-1.5 4.3zm-.4-10.3.4-.4c.4.3 1 .8 1.7 1.4l-.5.5c-.4-.5-1-1-1.6-1.5zm2.5.3h1.7v-1h.6v1h3.5v-1h.6v1h1.8v.5h-1.8v1.4h-2v1h3.2v2h-3.2v.9h3.3v.5h-3.4c0 .3-.1.6-.1.9h4v.5h-3.7c.7.9 1.9 1.5 3.8 1.7-.1.2-.2.4-.3.6-2.1-.4-3.5-1.1-4-2.1-.4 1-1.8 1.7-4 2.2-.1-.2-.2-.4-.3-.6 2.1-.4 3.4-1 3.8-1.8h-3.4v-.5h3.6c.1-.3.1-.6.2-.9h-3.3v-.5h3.4c0-.3 0-.6 0-.9h-3.2v-2h3.3v-1h-2.1v-1.4h-1.7v-.5zm1.1 3.5v1h2.7c0-.3 0-.4 0-.4 0-.1 0-.2 0-.2 0-.1 0-.2 0-.3h-2.7zm1.2-3v.9h3.5v-.9zm4.7 3h-2.6v.6.4h2.6z" fill="#fbfcfa"/><path d="m393.6 386.7h.6v1.5h2.7v6.1h1.1v.6h-11v-.6h1.1v-6.1h2.7v-1.5h.6v1.5h2.1v-1.5zm-2.7 8.8.4.6c-1.2.6-2.5 1.3-3.8 1.9-.1-.2-.2-.4-.3-.6 1.2-.6 2.5-1.2 3.7-1.9zm-2.2-6.7v2.4h2.1v-2.4zm0 3v2.5h2.1v-2.5zm2.8-3v2.4h2.1v-2.4zm0 3v2.5h2.1v-2.5zm6 6.1c-1.4-.7-2.7-1.3-3.9-1.8l.3-.6c1.5.6 2.7 1.2 3.9 1.7zm-1.2-9.1h-2.1v2.4h2.1zm-2.1 3v2.5h2.1v-2.5z" fill="#fbfcfa"/><path d="m205.34 131.26c-10.24 4.17-20.14 7.74-29.6 12.24-4.33 2.06-7.7 6.08-11.69 8.96-11 7.93-20.33 17.49-28.32 28.41-4.43 6.06-10.44 8.06-17.72 6.81-4.98-.86-11.61-8.64-11.44-13.72.1-2.9.32-5.84.95-8.65.3-1.32 1.47-2.71 2.63-3.54 22.75-16.28 45.61-32.42 68.32-48.75 5.9-4.24 11.47-8.94 17.05-13.61 4.44-3.72 5.92-8.85 5.77-14.43-.03-1.04-1.14-2.32-2.1-3.02-10.86-7.9-22.99-13.34-35.47-18.04-8.91-3.35-17.79-6.74-25.54-12.45-5.47-4.04-10.09-8.83-12.63-14.92 3.45-3.61 6.64-7.21 10.16-10.45.8-.74 2.86-.6 4.16-.24 25.03 6.91 49.3 16.02 73.51 25.33 10.58 4.07 19.03 10.66 25.48 19.96 2.39 3.44 3.94 7.04 3.41 11.26-1.62 13.09-3.32 26.16-4.92 39.25-.35 2.87-.67 5.77-.6 8.65.98 43.19 2.02 86.38 3.06 129.58.16 6.6.48 13.2.44 19.8-.01 2.47 1.11 3.66 3.05 4.59 6.18 2.96 12.46 1.98 18.69.31 3.12-.84 6.13-2.11 9.19-3.17 2.22-.77 4.4-1.69 6.67-2.24 6.82-1.66 10.34 1.16 10.34 8.15.01 8.81-.65 9.76-8.82 12.68-10.31 3.68-20.6 7.46-30.98 10.96-2.65.89-4.04 2.44-4.95 4.88-3.09 8.34-1.63 16.51.68 24.69 1.15 4.08 2.43 8.15 3.09 12.32 1.78 11.26-7.55 21.98-18.87 21.98-.78 0-1.6-.15-2.35.02-6.1 1.43-9.74-2.07-12.43-6.65-1.1-1.87-1.41-4.49-1.32-6.74.29-7.48.91-14.96 1.44-22.43.37-5.18.34-10.3-2.16-15.07-1.53-2.92-3.39-4.29-7.2-3.67-14.01 2.26-28.08 4.23-42.17 5.86-4.12.48-8.52-.05-12.58-1.01-5.42-1.28-7.78-6.88-5.57-11.97.35-.81 1.23-1.55 2.05-1.96 8.92-4.41 17.7-9.16 26.9-12.92 4.53-1.85 9.81-1.88 14.77-2.61 4.2-.63 8.42-1.3 12.65-1.57 4.57-.29 7.08-3.1 7.93-6.91 1.09-4.87 1.28-9.95 1.69-14.95.05-.58-.89-1.72-1.47-1.79-2.6-.31-5.56-1.17-7.79-.3-8.38 3.27-16.23 2.18-23.96-1.7-7.18-3.6-14.43-7.11-21.43-11.05-5.15-2.91-8.07-7.08-7.5-13.73.66-7.67.25-15.44.1-23.16-.05-2.37.73-3.93 2.48-5.44 6.18-5.35 12.21-10.87 18.37-16.24 1.23-1.07 2.75-1.89 4.24-2.59 6.89-3.21 13.9-6.17 20.71-9.53 6.26-3.08 10.37-8.38 13.46-14.5.34-.67.62-1.49.57-2.22-.75-12.74-1.58-25.46-2.43-38.75zm4.96 97.4c-.36-2.53-.58-5.1-1.11-7.59-.88-4.1-5.62-7.27-10.43-5.32-7.27 2.94-13.78 6.86-19.23 12.49-.68.71-1.47 1.87-1.36 2.7 1.28 9.18 3.87 11.43 13.14 11.67 1.34.04 2.68.05 4.02-.04 9.7-.64 14.7-5.37 14.97-13.91z" fill="#010106"/></svg>