<svg enable-background="new 0 0 400 400" viewBox="0 0 400 400" xmlns="http://www.w3.org/2000/svg"><path d="m169.72 275.07c-8.15-4.49-13.71-1.95-19.6 3.84-12.29 12.07-25.37 23.33-38.14 34.92-.9.82-1.84 1.59-3.47 3 2.41-8.41 4.44-16.02 6.87-23.49.46-1.42 2.46-2.44 3.91-3.41 14.01-9.34 26.13-20.71 36.1-34.26 8.54-11.61 11.39-24.82 10.12-39.06-.2-2.23-1.03-3.49-3.29-4.34-8.78-3.31-8.63-3.3-14.95 3.64-7.9 8.67-15.09 18.12-24.96 24.75-4.96 3.33-10.34 6.03-15.55 9.02-.53-.85-.74-1.11-.86-1.4-2.13-5.21-2.07-5.15 1.91-9.25 15.33-15.78 29.56-32.44 39.68-52.16 4.74-9.23 7.56-19.08 8.3-29.51.15-2.04-.36-3.3-1.92-4.55-7.52-6.01-15.04-12.01-22.4-18.2-5.62-4.73-9.19-10.85-11.39-18.7 4.33.74 8.29 1.15 12.12 2.1 16.07 4 30.72 11.5 45.45 18.78 7.95 3.93 16.14 7.12 25.06 8.15 9.18 1.06 17.1-2.9 20.66-10.81-9.73-8.08-19.62-16.11-29.31-24.38-7.9-6.75-15.9-13.45-23.18-20.85-3.82-3.88-6.44-9.05-9.08-13.91-1.15-2.12-2.47-5.06.31-7.34 3.37-2.76 7.07-5.47 11.55-3.32 5.43 2.61 10.55 5.85 15.74 8.95.9.53 1.45 1.66 2.12 2.54 15.39 20.33 33.61 37.72 54.49 52.34 2.06 1.44 4.41 2.49 6.79 3.81 4.03-7.8 4.24-15.51 1.91-23.41-2.66-9-5.32-18-8.14-26.95-.44-1.39-1.58-2.64-2.61-3.76-8.75-9.59-17.63-19.11-23.24-31.03-3-6.35-4.24-13.13-3.75-21.39 4.82 3.43 9.26 6.14 13.17 9.46 9.89 8.41 16.85 19.1 22.38 30.69 8.64 18.09 15.1 36.85 15.6 57.15.12 4.77-.63 9.58-1.22 14.34-.12.98-1.18 2.37-2.08 2.63-3.81 1.13-7.69 2.17-11.62 2.73-3.92.56-8.02 5.87-6.75 9.55.23.67 1.24 1.19 2 1.53 9.67 4.32 14.42 11.67 14.82 22.33.38 10.15.42 20.48 2.41 30.37 6.39 31.78 13.92 63.32 20.42 95.08 4.71 23.01 6.3 46.32 3.78 69.79-.1.96-.35 1.9-1.06 2.85-3.17-11.15-6.35-22.31-9.51-33.46-4.69-16.56-9.41-33.11-13.98-49.7-.64-2.31-.71-4.85-.62-7.27.51-13.42 1.21-26.83 1.69-40.26.06-1.79-.45-3.76-1.21-5.4-2.11-4.56-4.2-9.17-6.81-13.46-4.74-7.76-6.42-16.27-7.41-25.13-1.2-10.78-2.84-21.51-4.17-32.28-.3-2.39-1.19-3.37-3.71-3.54-18.3-1.26-36.59-2.72-54.89-3.94-1.49-.1-3.47.72-4.54 1.8-8.84 8.89-10.77 19.44-6.99 31.22.03.11.1.21.11.32 1.32 8.19 4.91 13.69 14.41 13.24 2-.09 4.41 1.44 6.1 2.85 11.77 9.83 23.39 19.83 35.06 29.78 1.27 1.08 2.51 2.18 3.77 3.28-.06.35-.12.71-.18 1.06-3.51-.44-7.3-.18-10.48-1.44-12.35-4.91-24.51-10.31-36.75-15.52-1-.43-2.03-.78-3.3-1.26-1.46 7.92-2.97 15.47-4.13 23.08-.17 1.12 1.05 2.8 2.08 3.71 16.81 14.95 33.7 29.82 50.57 44.71.82.72 1.6 1.49 2.94 2.73-7.01-1.28-13.28-1.75-18.83-5.86-7.99-5.92-16.49-11.15-24.78-16.67-1-.67-2.04-1.29-3.23-2.04-8.04 10.2-11.71 21.54-9.85 34.25 1.05 7.16 3.27 14.15 4.54 21.28 1.66 9.28 1.01 18.5-1.92 27.5-.34 1.06-.79 2.09-1.23 3.11-.06.14-.37.16-.87.36-3.71-28.85-7.38-57.63-10.98-85.91z" fill="#010100"/><g fill="#fcfbfa"><path d="m377.9 391.2c-.2.3-.4.5-.6.8-.7-.6-1.4-1-2.2-1.5.2-.3.4-.5.5-.8.6.4 1.4.8 2.3 1.5zm-1.8 6.1c-.2-.2-.5-.4-.9-.6.4-.6.8-1.2 1.2-1.9s.7-1.3.9-1.9c.3.3.5.5.8.7-.7 1.3-1.4 2.6-2 3.7zm2.2-9c-.3.3-.5.5-.6.8-.6-.6-1.3-1.1-2-1.5.3-.3.5-.5.6-.7.6.5 1.3.9 2 1.4zm.3.2v-.9h2 4.5c-.3 1.3-.6 2.5-1 3.6s-.9 2.1-1.4 3c.4.5 1 1 1.6 1.4s1.2.8 1.9 1.1c-.3.2-.5.4-.8.8-.4-.3-1-.7-1.6-1.2s-1.2-1.1-1.6-1.6c-.5.6-1.1 1.1-1.7 1.6s-1.4.9-2.1 1.4c-.1-.3-.3-.5-.7-.8.6-.2 1.2-.5 1.9-1s1.4-1.1 2-1.8c-.5-.8-.9-1.6-1.2-2.5s-.6-2-.8-3.2c-.4.1-.7.1-1 .1zm2.5 2.7c.3 1 .7 1.7 1 2.2.3-.5.6-1.1 1-2s.6-1.9.9-3h-3.2-.4c.1.9.3 1.8.7 2.8z"/><path d="m396.5 388.5v1.5 3.6h1.5v.9c-.4 0-1 0-1.7 0h-7.9c-.5 0-.9 0-1.2 0v-.9h1.3v-3.5c0-.7 0-1.2 0-1.6h2.4c0-.8 0-1.4 0-1.7h1c0 .3-.1.8-.1 1.7h1.5c0-.8 0-1.4 0-1.7h1c0 .3-.1.9-.1 1.7zm-8.2 9.2c-.2-.3-.5-.5-.8-.8.8-.3 1.4-.6 1.9-.9s1-.7 1.4-1.1c.3.3.6.5.9.8-1.6 1-2.8 1.6-3.4 2zm2.6-6.8v-1.6h-1.5v1.6zm0 2.7v-1.9h-1.5v1.9zm2.4-2.7v-1.6h-1.5v1.6zm0 2.7v-1.9h-1.5v1.9zm.2 2 .7-.8c.4.2.9.5 1.6.8s1.3.7 1.8 1c-.3.3-.5.5-.8.8-.4-.3-1.5-1-3.3-1.8zm2-4.7v-1.6h-1.4v1.6zm0 2.7v-1.9h-1.4v1.9z"/></g></svg>