<svg enable-background="new 0 0 400 400" viewBox="0 0 400 400" xmlns="http://www.w3.org/2000/svg"><g fill="#010102"><path d="m241.08 289.71c1.43 3.97 3.26 7.49 3.94 11.21 1.78 9.78 7.62 17.31 13.18 24.97 5.32 7.33 11.17 14.28 16.52 21.59 3.92 5.35 6.99 11.19 7.99 17.9.73 4.89-1.78 7.53-6.68 6.19-3.35-.91-7.01-2.37-9.44-4.72-12.75-12.33-24.53-25.59-32.46-41.61-2.92-5.9-4.1-12.67-5.89-19.1-1.31-4.74-2.09-9.63-3.57-14.31-.57-1.8-2.08-3.95-3.71-4.64-2.9-1.23-6.2-1.77-9.38-2.05-3.78-.33-7.61-.08-11.41-.08-3.96 0-6.65 2.07-6.22 5.94.55 4.91-1.46 8.37-4.52 11.65-.45.49-.79 1.1-1.24 1.58-6.21 6.67-10.66 14.32-12.63 23.26-1.41 6.37-5.76 9.97-11.38 12.21-7.77 3.1-15.83 4.72-24.23 3.61-1.92-5.67-1.85-5.56 2.97-8.76 10.68-7.1 20.8-14.86 27.6-26.03 3.68-6.04 5.25-12.73 5.27-20.41-4.06-.39-8.01-.92-11.97-1.11-6.81-.32-13.65-.24-20.45-.7-3.06-.21-6.2-.98-9.04-2.15-1.51-.63-2.87-2.48-3.52-4.09-.78-1.94-.37-3.85 2.33-4.59 2.46-.68 4.83-1.76 7.15-2.87 3.13-1.5 6.15-2.44 9.54-.64.76.41 2.41.2 3.05-.38 3.54-3.18 7.76-3.06 12.03-2.85 4.14.2 7.41-1.27 9.63-4.69-3.77-9.6-11.23-14.77-20.8-16.65-8.55-1.68-13.8-6.2-16.03-14.86 11.83-.4 23.6-1.67 34.63 2.98 6.28 2.65 11.51 7.29 14.64 13.57 2.48 4.99 4.36 10.29 6.62 15.39.4.89 1.36 2.17 2.08 2.19 8.7.15 17.39.1 26.51.1.82-8.62 1.74-17.83 2.51-27.05.06-.72-.73-1.8-1.43-2.25-2.34-1.53-4.72-3.03-7.24-4.22-12.9-6.11-19.66-16.89-22.63-30.25-2.16-9.7-4.32-19.51-5.03-29.38-.29-4.07 2.56-8.87 5.13-12.53 3.57-5.08 8.4-9.25 12.35-14.08 2.74-3.35 3.27-6.99.34-10.97-6.45-8.76-8.02-19.54-11.47-29.53-.72-2.08-1.54-3.17-3.82-3.23-2.11-.05-4.21-.64-6.33-.7-5.85-.16-11.06-2.01-16.08-5.02-2.09-1.26-4.91-1.3-7.37-1.96-4.21-1.12-8.47-2.1-12.59-3.49-5.49-1.85-9.03-5.56-9.84-11.67 4.45 0 8.74-.14 13.01.03 10.62.42 21.22 1.05 31.84 1.39 1.04.03 2.46-1.1 3.12-2.09 4.41-6.58 4.18-14.14 4.31-21.63.18-9.85.43-19.69.67-29.54.03-1.1.13-2.2.22-3.64 5.34.72 10.23 2.01 14.28 5.4 3.26 2.73 4.17 5.92 1.88 9.45-5.15 7.94-2.97 16.38-2.5 24.75.09 1.68.56 3.38.37 5.01-.58 5.13 2.56 7.67 6.34 9.9 2.18-4.4 3.9-8.97 6.55-12.91 2.9-4.3 6.09-8.81 10.19-11.79 4.62-3.35 8.04-7.11 10.48-12.16 2.13-4.4 3.97-4.86 9.21-2.8-2.15 6.03-1.79 12.78-5.96 18.37-2.31 3.1-4.09 6.66-5.76 10.18-2.72 5.72-5.97 10.96-10.88 15.11-2.73 2.31-5.05 5.11-7.81 7.37-6.49 5.3-7.79 12.38-4.86 19.36 3.29 7.84 8.2 15.02 12.61 22.37.47.78 2.26 1.07 3.43 1.06 2.67-.02 5.35-.65 8-.53 4.91.22 9.51-.47 13.91-2.8 1.48-.78 3.43-1.01 5.15-.97 5.14.13 10.28.42 15.41.85 1.91.16 2.83-.5 3.54-2.16.84-1.95 2.01-3.74 2.88-5.68 1.85-4.1 4.08-7.8 7.64-10.8 4.49-3.79 6-8.91 4.23-14.58-3.43-10.98-7.13-21.87-10.6-32.83-1.14-3.61-2.31-7.31-2.67-11.04-.2-2.01.68-4.96 2.15-6.09 2.06-1.59 4.61-.51 6.96 1.2 5.03 3.67 8.04 7.96 7.64 14.53-.14 2.25 1.04 4.76 2.14 6.87 3.46 6.63 7.18 13.13 11.22 20.46 1.9-1.6 3.9-2.77 5.19-4.48 4.92-6.52 9.38-13.39 14.45-19.79 3.54-4.47 5.53-9.32 6.23-14.86.25-1.98.74-3.93 1.12-5.85 8.7-.29 11.09 6.43 9.94 13.57-1.45 8.98-4.32 17.63-10.83 24.78-4.39 4.82-7.86 10.51-11.49 15.98-1.76 2.66-1.1 4.96 2.15 6.34 5.96 2.53 11.84 5.23 17.75 7.87 4.94 2.2 6.85 5.15 6.29 9.49-.26 1.99-1.06 3.11-3.19 3.64-9.22 2.31-17.95.53-26.58-2.71-3.34-1.26-6.68-2.61-10.15-3.37-4.87-1.08-9.13.51-12.26 4.43-5.05 6.33-6.87 13.25-4.28 21.31 1.2 3.72 1.11 7.85 1.74 11.77.18 1.12.54 2.38 1.24 3.24 6.69 8.26 8.57 16.97 3.2 26.72-1.88 3.41-3.56 7.02-4.67 10.74-2.1 7.02-5.94 12.65-11.77 16.99-.27.2-.52.43-.75.67-9.21 10.06-20.22 17.45-32.93 22.42-1.37.53-2.68 2.27-3.19 3.73-1.58 4.53-2.76 9.2-4.1 13.82-1.41 4.89-.98 5.9 3.56 8.49 8.87 5.06 18.44 6.28 28.51 5.73 8.59-.47 17.21-.47 25.82-.38 6.15.06 10.57 3.29 12.22 8.25 1.49 4.48.1 7.59-4.24 9.29-9.53 3.73-19.29 3.41-29.07 1.37-10.48-2.18-20.95-3.64-31.56-.9-1.61.41-3.18 1-4.3 1.36zm-15.32-110.02c8.55.62 11.69-1.43 13.88-7.66 1-2.84 2.28-5.61 2.95-8.52.8-3.44 1.32-6.99 1.45-10.5.05-1.43-.97-3.95-1.96-4.2-5.53-1.42-11.33-4.91-16.48 1.21-1.62 1.92-3.92 3.29-6 4.8-6.49 4.72-8.97 11.34-9.05 19.06-.03 2.47.84 4.23 3.8 4.47 4.45.37 8.87 1.03 11.41 1.34zm37.5-23.68c-2.55 3.67-5.26 7.35-7.68 11.2-.61.97-.58 2.55-.4 3.78.47 3.19 1.33 6.33 1.77 9.53.26 1.93 1.13 2.69 2.98 2.82 3.67.25 7.34.93 11 .83 2.94-.08 5.94-.77 8.73-1.73 1.02-.35 2.12-2.24 2.14-3.45.23-11.83-6.18-19.75-18.54-22.98zm-45.13 40.93c-1.56 0-3.13 0-4.69 0-3.48.01-4.72 1.44-4.02 4.92.26 1.28.92 2.51 1.58 3.66 1.33 2.33 2.89 4.52 4.15 6.88 2.87 5.34 10.93 6.47 15.16 2.27 2.5-2.49 1.02-5 .57-7.48-1.88-10.35-2.26-10.61-12.75-10.25zm31.92 23.38c6.8-4.14 13.48-8.18 20.13-12.27 2.18-1.34 2.29-3.33 0-4.54-1.6-.84-3.58-1.06-5.43-1.31-3.3-.45-7.29-2.01-9.76-.73-2.62 1.37-3.54 5.71-5.68 8.36-3.03 3.78-2.26 7.01.74 10.49z"/><path d="m46.33 223.21c8.04-2.86 15.96-5.91 24.05-8.42 2.17-.67 4.85.26 7.28.54 4.67.54 9.32 1.51 13.99 1.61 4.96.1 10-.21 14.9-1.02 11.27-1.87 24.71 7.99 25.74 19.31.09.97-.2 2.31-.85 2.94-5.09 4.97-7.83 11.08-7.6 18.05.58 17.36-4.46 33.57-9.46 49.82-.23.75-.49 1.49-.65 2.25-2.27 10.8-7.4 20.13-13.68 29.15-7.74 11.13-14.9 22.62-25.73 31.15-1.49 1.18-3.14 2.21-4.44 3.58-3.45 3.63-7.17 1.91-10.82.68-.63-.21-1.3-1.28-1.37-2.01-.16-1.76-.55-3.85.19-5.27 2.86-5.49 5.94-10.9 9.34-16.08 1.43-2.18 3.76-3.82 5.82-5.53 15.51-12.82 22.44-30.18 23.85-49.38 1.29-17.46.36-35.09.24-52.65-.01-.93-1.52-2.51-2.52-2.68-8.91-1.49-17.87-2.59-26.78-4.09-4.48-.75-8.98-1.74-13.23-3.28-3.87-1.39-6.7-4.36-8.27-8.67z"/><path d="m98.84 180.06c-12.21-.5-24.76-3.06-36.95-7.36-.76-.27-1.65-1.51-1.66-2.31-.03-1.81-.87-3.8 1.71-5.15 7.44-3.88 15.31-6.08 23.56-7.28 5.74-.84 11.47-1.82 17.16-2.99 4.97-1.02 9.73-2.91 15.05-1.3 1.92.58 4.39-.33 6.53-.88 2.27-.58 4.03-.01 4.44 2.21.88 4.8 1.45 9.67 1.97 14.52.06.57-.86 1.46-1.53 1.86-9.09 5.48-18.89 8.53-30.28 8.68z"/></g><path d="m6.4 11.7c-1-.8-1.9-1.6-2.9-2.3l.6-.7c.9.7 1.9 1.4 2.9 2.2zm-2.1 8.3c.7-2.1 1.4-4.2 2-6.4.2.1.6.3 1 .4-.7 2.3-1.3 4.4-1.9 6.4zm3-12.8c-1.1-.9-2.1-1.7-2.9-2.4l.6-.7c1 .8 2 1.5 3 2.4zm1.4-1.3v-.9h10.2v.9c-.9 4.2-2.3 7.3-4.1 9.4 1.3 1.4 3.2 2.7 5.7 4-.2.2-.4.5-.7.9-2.5-1.4-4.4-2.7-5.7-4.2-1.4 1.5-3.5 3-6.1 4.4 0 0 0 0-.1-.1-.3-.4-.5-.7-.7-.8 2.7-1.3 4.7-2.8 6.2-4.2-1.8-2.2-3-5.3-3.7-9.4zm9.2 0h-7.1c.6 3.8 1.7 6.7 3.4 8.7 1.7-2 2.9-4.8 3.7-8.7z" fill="#fafbfa"/><path d="m31.6 3.6h.9v2.3h4.1v9.1h1.7v.9h-16.6v-.9h1.7v-9.1h4.1v-2.3h.9v2.3h3.1v-2.3zm-4 13.3.6.8c-1.9.9-3.8 1.9-5.8 2.8-.2-.3-.3-.6-.5-.9 2-.9 3.9-1.8 5.7-2.7zm-3.2-10.1v3.7h3.1v-3.7zm0 4.5v3.7h3.1v-3.7zm4.1-4.5v3.7h3.1v-3.7zm0 4.5v3.7h3.1v-3.7zm9.1 9.1c-2.1-1.1-4.1-2-5.8-2.7l.5-.8c2.2.9 4.1 1.8 5.8 2.6zm-1.9-13.6h-3.1v3.7h3.1zm-3.2 4.5v3.7h3.1v-3.7z" fill="#fafbfa"/></svg>