<svg enable-background="new 0 0 400 400" viewBox="0 0 400 400" xmlns="http://www.w3.org/2000/svg"><path d="m198.21 223.06c-1.6 3.79-2.69 7.78-4.82 11.1-4.93 7.71-10.23 15.18-15.64 22.56-1.9 2.6-3.41 5.05-3.71 8.37-.39 4.33-1.53 4.91-5.86 4.53-1.63-.15-3.31.21-5.37.36 0-3.68-1.26-7.24 2.11-10.49 1.75-1.69 2.85-4.31 3.61-6.7 4.98-15.67 9.59-31.44 10.92-47.94.11-1.34.31-2.68.31-4.01.03-9.47.01-18.94.01-28.98-1.27.21-3.26.27-5.06.87-8.11 2.73-15.67.53-23.08-2.51-3.03-1.24-4.14-5.37-2.89-9.97.78-2.86 3.51-1.97 5.58-2.44 2.09-.47 4.08-1.35 6.1-2.09.91-.34 1.75-1.05 2.68-1.17 9.28-1.16 18.58-2.2 27.87-3.35 5.66-.7 11.28-1.94 16.95-2.17 5.75-.24 11.6.11 17.3.95 2.14.32 3.97 2.75 5.94 4.21-.06.44-.13.89-.19 1.33-3.57 1.72-7.03 3.78-10.75 5.09-5.68 2.01-11.5 3.66-17.34 5.13-2.47.62-3.2 1.73-2.46 3.96.98 2.95 2 5.9 3.12 8.8 1.96 5.07 4.09 10.07 6 15.16 3.45 9.2 6.79 18.44 10.14 27.67.45 1.24.83 2.54 1.05 3.84.92 5.37 1.84 10.75 2.6 16.14.46 3.28.54 6.61.97 9.89.58 4.42 1.29 8.83 2 13.23 1.25 7.65-.95 14.92-4.38 21.27-6.68 12.34-7.14 12.09-20.81 15.25-.43.1-.96.3-1.31.14-5.63-2.51-11.34.7-17.04-.24-2-.33-4.41.39-6.32 1.29-4.02 1.89-8.09 3.86-11.67 6.45-3.53 2.55-4.35 6.48-3.42 10.83.83 3.9 1.22 7.9 2.01 11.82.24 1.16.93 2.71 1.86 3.17 5.43 2.69 11.07 4.28 17.06 1.6.6-.27 1.31-.71 1.88-.59 7.74 1.53 15.62 2.6 23.14 4.86 8.56 2.58 8.92 10.53 7.6 17.41-.04.22-.05.53-.19.63-4.49 3.09-3.87 8.47-5.72 12.74-1.72 3.97-3.71 4.8-6.83 2.55-.73-.53-1.63-1.6-1.56-2.33.28-2.85.37-5.91 1.53-8.43 2.24-4.87-.71-11.14-6.12-11.89-.88-.12-1.82-.17-2.67.02-7.14 1.61-14.36 1.06-21.32-.38-10.42-2.16-19.34-8.09-22.45-18.19-2.65-8.62-4.04-18.44 1.6-27.23 2.17-3.38 3.99-6.98 6.03-10.44 1.42-2.41 3.44-3.35 6.39-3.27 12.76.36 25.49.16 37.98-3.11 1.94-.51 2.99-1.37 3.82-3.19.9-1.96 2.48-3.6 3.58-5.49.92-1.58 2.1-3.28 2.24-5 .32-4.16.08-8.36.13-12.55.01-.75.27-1.54.56-2.25.96-2.37.42-4.1-1.04-6.38-1.69-2.64-1.84-6.24-2.89-9.34-.76-2.22-1.96-4.3-2.88-6.47-.67-1.59-1.39-3.18-1.77-4.85-.74-3.22-.45-6.8-3.52-9.09-.43-.31-.99-.44-1.59-.69z" fill="#010106"/><path d="m202.23 118.23c-5.59.27-11.19.34-16.75.85-4.36.4-8.37-.34-12.42-1.86-4.81-1.82-9.67-3.56-14.63-4.86-4.24-1.1-6.86-3.73-9.25-7.14-4.4-6.28-5.91-12.9-4.74-20.61.86-5.66.44-11.56.14-17.33-.56-10.68 1.17-21.03 4.65-30.99 2-5.73 6.26-9.83 12.87-10.29 22-1.53 43.82-.54 65.25 5.07 6.33 1.66 12.25 4.55 16.87 9.26 1.79 1.83 3.25 4.73 3.44 7.24.97 12.93 1.55 25.89 2.1 38.85.1 2.26-.31 4.62-.94 6.8-.86 3-1.95 5.97-3.3 8.78-3.89 8.06-9.42 14.46-18.86 15.76-4.29.59-8.69.37-13.04.45-3.79.07-7.59.02-11.39.02zm37.22-46.14c-.19-.02-.38-.03-.58-.05 0-4.59.03-9.17-.02-13.76-.01-.97-.24-1.96-.47-2.91-.49-1.98-.99-3.96-1.58-5.91-.44-1.43-.67-3.2-1.64-4.15-2.04-2.01-4.27-4.28-6.85-5.18-4.99-1.72-10.24-2.93-15.47-3.7-10.03-1.48-20.11-2.75-30.21-3.66-8.45-.76-16.23 1.36-22.51 7.46-.92.89-1.77 2.05-2.18 3.25-3.87 11.29-5.12 22.83-3.21 34.68.87 5.38 1.49 10.79 2.37 16.17.24 1.51.55 3.44 1.57 4.32 5.13 4.42 9.98 9.53 17.46 9.73 12.85.33 25.7.73 38.55.81 4.3.03 8.6-.81 12.9-1.3.42-.05.87-.3 1.19-.59 3.93-3.62 8.23-7.02 8.78-12.91.67-7.42 1.26-14.86 1.9-22.3z" fill="#010106"/><g fill="#fcfbfa"><path d="m385.2 377.6.6-.7c.6.4 1.3.9 1.9 1.5l-.6.7c-.8-.5-1.4-1-1.9-1.5zm.3 7.1c.6-1.4 1.1-2.9 1.5-4.5.3.1.6.3.9.4-.5 1.4-1 2.9-1.5 4.4zm.2-10.1.6-.6c.7.5 1.3 1.1 1.9 1.6l-.7.7c-.6-.6-1.2-1.2-1.8-1.7zm8.4-.8h.8v.9h1.8v.7h-1.8v1.8h-.8v-.3h-1.2v.9h3.3v2.6h-.8v-.4h-2.5c0 .3 0 .6-.1.8h3.4v.7h-3.5c0 .3-.1.6-.1.8h4v.7h-3.5c.7.9 1.9 1.3 3.6 1.5-.2.2-.4.5-.6.9-1.9-.3-3.2-1.1-3.8-2.3-.5 1.1-1.8 2-3.9 2.4-.2-.3-.4-.5-.6-.8 1.9-.4 3.1-.9 3.6-1.7h-3.2v-.7h3.5c.1-.2.1-.5.2-.8h-3.3v-.7h3.4c0-.2 0-.5 0-.8h-2.4v.3h-.8v-2.6h3.3v-.9h-1.2v.3h-.8v-1.8h-1.8v-.7h1.8v-.9h.8v.9h3.2zm-4.4 5.5h2.4c0-.3 0-.6 0-.9h-2.4zm1.2-3.1h3.2v-.8h-3.2zm4.4 2.2h-2.4v.9h2.5v-.9z"/><path d="m389.2 385.8h.9v1.5h1.9v-1.5h.9v1.5h2.7v6h1.1v.9h-11.3v-.9h1.1v-6h2.7zm.2 8.7.5.8c-1.2.6-2.5 1.3-4 1.9-.2-.3-.3-.6-.6-.8 1.6-.6 3-1.3 4.1-1.9zm-2-4.3h1.9v-2.1h-1.9zm0 3.1h1.9v-2.2h-1.9zm2.7-3.1h1.9v-2.1h-1.9zm0 3.1h1.9v-2.2h-1.9zm2.4 1.3c1.4.6 2.7 1.2 4.1 1.8l-.5.9c-1.5-.7-2.8-1.4-4.1-1.9zm2.2-6.5h-1.9v2.1h1.9zm-1.9 5.2h1.9v-2.2h-1.9z"/></g></svg>