<svg enable-background="new 0 0 400 400" viewBox="0 0 400 400" xmlns="http://www.w3.org/2000/svg"><g fill="#fafafb"><path d="m12.4 4.8-6.1 9h6v1.2h-8v-.5l6.1-8.9h-5.7v-1.2h7.6v.4z"/><path d="m14 15v-10.6h3c1.6 0 2.9.5 4 1.4s1.6 2.2 1.6 3.8-.5 3-1.6 3.9-2.4 1.5-4 1.5zm1.4-9.4v8.2h1.6c1.3 0 2.4-.4 3.1-1.1s1.1-1.8 1.1-3.1-.4-2.3-1.2-3-1.8-1-3.1-1z"/><path d="m26.1 4.4v10.6h-1.4v-10.6z"/><path d="m36.1 14.6c-.8.4-1.8.6-2.9.6-1.5 0-2.7-.5-3.6-1.4s-1.4-2.2-1.4-3.8c0-1.7.5-3.1 1.5-4.1s2.3-1.6 3.9-1.6c1 0 1.8.1 2.5.4v1.4c-.8-.4-1.6-.6-2.5-.6-1.2 0-2.1.4-2.9 1.2s-1.1 1.8-1.1 3.2c0 1.3.3 2.3 1 3s1.6 1.1 2.7 1.1c1 0 2-.2 2.7-.7v1.3z"/><path d="m37.6 14.3c0-.2.1-.5.3-.6s.4-.3.6-.3c.3 0 .5.1.6.3s.3.4.3.6-.1.4-.3.6-.4.3-.6.3c-.3 0-.5-.1-.6-.3s-.3-.4-.3-.6z"/><path d="m50.2 15h-1.6l-5.3-8.2c-.2-.2-.3-.5-.4-.7 0 .2.1.7.1 1.5v7.4h-1.4v-10.6h1.7l5.2 8.1c.2.4.4.6.4.7 0-.3-.1-.8-.1-1.5v-7.3h1.4z"/><path d="m58.6 15h-5.7v-10.6h5.5v1.2h-4.1v3.4h3.8v1.2h-3.8v3.6h4.3z"/><path d="m67.1 5.6h-3.1v9.4h-1.4v-9.4h-3v-1.2h7.5z"/></g><path d="m274.61 362.26c1.18-.35 2.34-.7 3.74-1.11-.4-1.1-.75-2.12-1.13-3.14-1.37-3.62-2.68-7.27-4.17-10.85-.55-1.31-1.53-2.45-2.32-3.66-.29.16-.57.31-.86.47.98-1.91 1.96-3.82 3.12-6.08-1.74-.16-3.02-.27-4.29-.38.02-.4-.05-.71.05-.78 3.44-2.27 4.01-5.23 3.51-9.3-.59-4.83.13-9.81.24-14.73.03-1.23.14-2.57-.28-3.66-1.07-2.78-.08-4.94 1.44-7.15.79-1.15 1.88-2.13.5-4.06-1.52-2.11 2.7-8.72 5.38-9.28 3.92-.81 7.51-2.18 9.34-6.23.6-1.31 1.62-2.43 2.23-3.74 1.54-3.32 3.9-5.56 7.44-6.73.96-.32 2.3-1.54 2.32-2.37.12-8.4 3.62-16.08 4.9-24.2.81-5.15.24-10.51.89-15.71.45-3.6 1.73-7.14 3.03-10.56.67-1.77.81-3.09-.4-4.55-.71-.86-1.22-1.87-1.86-2.79-1.73-2.49-3.75-4.9-1.72-8.39-1.38-.51-2.36-1.01-3.41-1.22-2.34-.47-3.84-1.74-4.3-4.1-.47-2.44-1.99-3.55-4.37-3.86-2.32-.31-4.7-.55-6.91-1.27-2.05-.67-4.09-1.69-5.8-3-2.19-1.67-4.08-3.47-6.88.17-.13-2.08-.21-3.44-.32-5.26-2.3 1.78-4.3 3.34-6.47 5.02-.58-.51-1.13-.99-1.77-1.55-.5.56-1.01 1.12-1.63 1.81-2.39-2.28-6.43-2.7-7.06-7.28 1.84-1.76 3.99-3.8 6.2-5.91 1.1.78 1.99 1.42 2.88 2.05.05-.24.1-.47.15-.71 1.42.13 2.86.44 4.26.34 1.11-.08 2.46-.39 3.23-1.1 4-3.74 7.85-7.64 11.87-11.6-.71-1.32-1.32-2.46-2.03-3.79 7.92-3.53 7.72-11.54 10.85-18.83-1.41.48-1.89.57-2.27.8-.34.21-.57.59-1.7.75 0-2.71-1.01-6.1.25-7.96 1.73-2.56 2.84-4.88 2.88-7.89.04-2.57.35-5.13.35-7.7 0-1.02-.28-2.24-.87-3.03-3.54-4.74-7.05-9.46-12.32-12.63-2.02-1.21-3.29-3.67-5.37-6.11-2.39.85-1.73-2.55-2.98-3.39-1.86-.28-3.72-.57-6.2-.94-.02.02-.54.65-.52.63-2.11-.93-3.89-2.37-5.67-2.38-15.67-.08-31.33.07-47 .23-.72.01-1.71.58-2.11 1.2-1.51 2.35-2.92 4.77-4.15 7.28-.38.79-.06 1.92-.06 2.97-.99-.06-2.28-.13-3.67-.21 1.94 5.32.62 6.86-5.98 7.61-1.21-1.4-2.32-2.7-3.61-4.2.43-.95 1.03-2.27 1.28-2.81-.77-2.08-1.32-3.54-1.83-5-.11-.31.03-.9-.11-.96-4-1.78-1.93-5.56-2.84-8.35-.5-1.53-1.55-2.88-2.36-4.31-1.81-3.23-4.44-6.28-5.19-9.74-.63-2.93-2-2.54-2.84-2.88-.66-2.88-.99-5.91-2.15-8.58-.47-1.08-2.72-1.78-4.2-1.86-.77-.04-1.92 1.53-2.39 2.59-1.03 2.34-1.9 4.79-2.53 7.27-.44 1.73-.36 3.59-.48 4.96-1.37 2.01-2.95 3.86-3.99 5.99-1.23 2.49-2.02 5.19-2.92 7.82-.19.54-.14 1.24.01 1.81.53 2.06 1.46 4.07 1.63 6.15.14 1.76-.58 3.58-.92 5.38-.38-.01-.76-.03-1.14-.04 1.01 1.55 2.22 3.01 2.95 4.68.51 1.16.93 2.94.4 3.88-2.68 4.76.02 7.96 2.9 11.36-.7.66-1.39 1.33-2.23 2.12.69.59 1.33 1.15 1.97 1.71-2.25 5.19-2.25 5.19-.89 6.69-2.34 1.89-2.22 3.78.26 5.54-.51 1.06-.97 2.04-1.42 2.98 3.58 2.68 3.43 2.56.26 5.84-1.17 1.21-2.05 3.32-2 4.98.19 6.14.82 12.26 1.3 18.39.3 3.84-.42 7.36-3.31 10.13 2.84 3.38 2.71 5.23-.46 7.47 1.04 4.88-2.82 10.78-7.51 12.18-1.61.48-3.05 2.02-4.23 3.37-2.99 3.45-4.06 3.65-7.36.78-4.86-4.23-5.07-5.48-1.87-11.09.25-.43.37-.93.78-2-1.5.56-2.45.91-3.69 1.36 0-3.67-.01-7.21.01-10.75 0-.43.04-1.14.28-1.25 5.09-2.28 1.33-4.61.08-6.92-.05-.09-.04-.21-.09-.5.52-.68 1.12-1.47 1.84-2.41-2.64-4.82-2.3-9.5.89-13.42-1.94-5.78-3.78-11.26-5.72-17.03 2.9-1.44 3.46-4.74 3.66-8.35.63-11.51-.42-22.95-1.28-34.4-.13-1.7.74-3.47 1.32-5.91-.05-.02-.89-.37-1.76-.74 1.89-2.2 3.32-3.86 5.33-6.2-4.31.94-5.63-1.44-6.94-3.96-1.08-2.08-2.35-4.06-3.51-6.11-.94-1.66-2.62-3.34.94-5.16-2.95 0-4.92 0-7.13 0 .28.69.51 1.25.49 1.2-3.53 1.87-6.85 4.04-10.47 5.41-2.84 1.08-6.04 1.47-9.11 1.62-5.22.25-10.47.07-16.16.07.88 1.82 1.82 3.76 2.75 5.7 1.22 2.55 2.59 5.05 3.61 7.69.76 1.96 1.12 4.09 1.54 6.17.34 1.66.51 3.36.76 5.04-.3.12-.59.25-.89.37 1 .37 2 .74 2.21.82.25 1.86.49 3.3.62 4.74.16 1.75.44 3.53.29 5.27-.21 2.4.24 4.19 2.96 4.89-.83.97-1.59 1.86-2.34 2.73 2.11 2.24 2.11 2.24 6.7-1.85-.61 1.58-1.22 3.15-1.99 5.14.35.61.92 1.6 1.78 3.09-4 0-7.53.09-11.06-.08-.64-.03-1.34-1.08-1.83-1.78-1.19-1.71-2-3.79-3.47-5.18-3.43-3.24-5.58-3.22-9.7-.57-2.26-3.6-3.88-4.01-9.02-1.95 1.13 2.93 2.26 5.87 3.5 9.11-.8 1.06-1.87 2.46-3.14 4.14 1.38.55 2.56 1.02 3.73 1.48-.24.13-.49.25-.73.38.53 1.62.8 3.4 1.64 4.84 1.75 2.98 3.78 5.81 5.75 8.66 1.83 2.64 1.72 4.68-1.56 6-.91.37-1.7 1.02-2.65 1.61-.58-.68-1.07-1.26-1.74-2.04-.38 1.16-.7 2.15-1.13 3.45-.92-2.33-1.72-4.36-2.59-6.57-1.09.73-2 1.33-3.15 2.1-2.26-2.44-4.51-4.87-6.89-7.43.73-1.32 1.41-2.54 2.09-3.76-.19-.27-.37-.55-.56-.82-1.1.66-2.21 1.31-3.32 1.97-1.8-4.04-1.65-7.82.53-9.49-.6-.91-1.2-1.83-1.86-2.81 1.67-1.79 3.26-3.51 5.12-5.51-.87-.19-1.52-.33-2.27-.5 1.47-2.88-.02-4.71-2.04-6.73 1.17.61 2.33 1.21 3.73 1.93.36-.5.83-1.17 1.34-1.88-6.22-2.81-6.93-4.85-3.21-9.25-.54-.61-1.1-1.23-1.73-1.95.3-.25.51-.5.78-.63 3.89-1.96 4.17-3.97 3.24-7.94-.81-3.45-.04-7.24-.21-10.87-.19-4.06-.87-8.11-.9-12.17-.01-2.11.93-4.23 1.54-6.76-.24-.19-1-.81-1.26-1.02.43-3.07.79-5.71 1.16-8.34.24-.05.48-.09.73-.14-.9-1.38-1.81-2.77-2.71-4.15l.96.33c1.78-3.97 3.64-7.91 5.3-11.93 1.06-2.57 1.75-5.3 2.72-7.91.95-2.58 2.37-4.39 5.65-3.97 2.39.3 3.79-.98 3.58-3.63-.09-1.1-.02-2.22-.02-3.49.76-.16 1.38-.4 2-.4 21.6.05 43.21.04 64.81.31 2.95.04 5.87 1.46 8.81 2.24-.03.33-.05.65-.08.98.76-.72 1.52-1.44 2.28-2.15.28.11.55.22.83.33-.44 1.46-.89 2.91-1.56 5.12 1.07 2.67 2.5 6.21 3.89 9.77.11.27.08.71-.08.95-1.88 2.89-.48 4.76 1.59 6.9.97 1 .82 3.07 1.26 5 4.32-2.37 5.78.55 7.05 4.32-.64.54-1.41 1.18-2.17 1.82 2.23 2.02 5.61.87 6.99-2.47.37-.89.5-1.96.47-2.94-.13-3.98-.17-3.98 3.67-5.36-1.29-1.58-2.56-3.13-4.17-5.11 7.5-4.81 4.49-12.53 5.17-19.5h151.82v86.53c-.87-.34-1.99-.79-3.54-1.4.16 1.81.27 3 .4 4.37h3.45v259.77c-88.89 0-178.04 0-267.17 0-.68-3.89-.68-3.89 5.63-5.17-3.01-2.45-5.6-4.56-8.22-6.7-1.17.68-2.19 1.27-3.68 2.13-.35-16.36-.69-32.29-1.06-49.15 2.4.78 4.29 1.39 6.18 2-.03.29-.05.58-.08.88.81-.48 1.61-.97 2.42-1.45.84.73 1.65 1.45 3.01 2.64-.81-4.55 1.18-5.93 4.92-6.38 2.83-.34 2.98-2.48.49-5.74 5.52-2.25 6.77-6.74 6.89-12.21.06-2.9 1.55-5.76 2.28-8.67.41-1.63.59-3.32 1.04-5.96 5.59-3.7 9.43-12.94 7.22-21.21-.85-3.19-.47-7.63-5.03-9.01-.34-.1-.47-.87-.73-1.3-.66-1.09-1.07-2.62-2.04-3.17-4.69-2.67-4.91-3.92-.85-7.42.59-.5 1.15-1.03 1.83-1.64-.61-1.24-1.19-2.43-1.84-3.73.68-.81 1.39-1.65 2.09-2.49-1.82-3.7-.07-6.7 2.08-9.83-.95-.57-1.75-1.05-1.98-1.19-1.64-6.05-7.25-7.75-10.8-11.27-2.67-2.65-2.88-2.44-6.49-1.26 1.24-4.24 2.03-8.33-.07-12.46-.29-.56.86-1.86 1.51-3.14-3.95-2.1.79-5.29-.72-8.13 1.09-.27 2.31-.57 3.75-.93-.58-1.32-1.05-2.41-1.59-3.64 2.79-2.12 5.01-5.23 9.19-4.58.41.06.99-.01 1.28-.26 4.05-3.53 8.12-7.04 12-10.75.47-.44.15-2.15-.3-3.02-1.22-2.35-.54-3.77 1.77-4.68 3.78 3.65 3.85 4.26.92 8.27-.77 1.05-1.96 1.89-.41 3.37.3.29-.57 1.8-.95 2.89 1.93 1 4 1.82 5.77 3.07 1.71 1.2 3.1 2.83 4.91 4.54-2.68 1.37-3.35 2.79-1.85 5.44.93 1.65.56 4.1.57 6.19.01 3.1.18 6.07 3.69 7.88-3.24 4.03-2.41 8.56-2 12.97.23 2.52.45 4.74-2.83 5.42 1.15 1.88 2.19 3.58 3.44 5.6-1.47.15-2.62.27-4.13.42 1.55 3.45 3.15 6.73 4.47 10.12.35.9.24 2.36-.28 3.16-2.35 3.61-2.26 7.19.2 10.74.63.91.43 2.39.69 4.11 1.26-.23 2.8-.5 4.34-.78l.72.6c-1.94 1.78-3.89 3.56-5.83 5.33.2.32.41.64.61.96 1.53-.48 3.06-.96 4.58-1.44.11.3.22.59.32.89-.97.65-1.93 1.31-2.12 1.44 0 2.49-.24 4.45.1 6.31.17.97 1.35 1.76 2.57 3.24-.3.5-1.13 1.85-2.13 3.47 2.25-.74 4.33-1.43 6.06-2 .51 1.54.99 3.03 1.73 5.26-.9.82-2.41 2.22-3.89 3.58.09.19.13.35.18.36 5.59.77 9.36 3.11 10.71 9.3.47 2.17 3.99 3.83 6.37 5.31.65.41 2.22-.64 3.82-1.17 1.67.99 2.96 2.51 2.33 5.37-.22 1.01.57 2.59 1.39 3.41 3.75 3.72 8.35 4.9 13.81 3.74-.6 1.1-1.07 1.94-1.62 2.94 3.17.95 6.15 1.86 9.15 2.7.62.17 1.51.34 1.94.03 4.8-3.33 10.24-2.05 15.34-1.82 5.18.24 9.08-.97 11.99-5.33.98-1.46 2.41-2.62 3.64-3.93 1.96 2.37 3.74 2.33 6.06.49 2.74-2.19 6.22-3.65 8.47-6.23 2.86-3.27 4.81-7.34 7.1-11.1.15-.25-.02-.93-.27-1.16-4.31-3.86-4.25-9.37-5.52-14.72-2.51 1.66-4.9 3.25-7.49 4.96-.51-1.23-.67-2.58-1.42-3.16-1.05-.8-3.24-1.78-3.72-1.34-2.19 1.99-3.77 1.17-5.39-.48-4.25 1.22-5.93 4.52-7.26 8.2-2.42 6.72-5.22 8.84-12.32 8.1-4.84-.51-9.58-1.99-14.35-3.11-1.73-.41-2.61-1.51-2.39-3.42.14-1.29.13-2.28-1.69-2.94-1.8-.66-1.26-5.61.86-8.23-1.35-1.74-2.61-3.74-4.23-5.35-2.16-2.14-2.7-4.59-.41-6.66 2.49-2.25 4.41-5.23 9.05-4.6 2.08.28 4.51-.81 6.83.58.38.23 1.57-.89 2.41-1.41 2.8 3.08 9.07 2.93 11.64-.34 1.6 1.1 3.19 2.94 5.43.88.35-.32 2.12.17 2.49.76 1.47 2.3 3.14 2.3 5.66 1.85 1.42-.26 3.22 1.62 5.11 2.67-1.21 1.76-2.07 3.01-3.05 4.44 1.69.67 3.21 1.28 4.91 1.95.4-1.27.73-2.32.98-3.13.95-.05 2.25.22 2.55-.21.42-.6.11-1.73.11-3.6 2.43-2.59 5.23-6.57 8.96-9.23 2.46-1.76 6.25-1.75 9.49-2.21.5-.07 1.05 2.06 1.9 2.44 4.17 1.86 6.43 5.13 8.11 9.22.48 1.18 2.71 1.64 3.85 2.27.13 1.82.33 3.51.37 5.19.06 2.88.51 5.87-.1 8.62-.84 3.78-.61 6.67 2.56 7.91.16 2.1.5 3.63.33 5.1-.21 1.8-.28 4.37-1.41 5.15-2.18 1.5-1.98 3.28-1.99 5.25-.01 1.45.28 2.95.04 4.36-.44 2.66.16 4.39 3.01 4.43-.49 5.07 3.85 10.11.21 14.29.36 2.74.42 4.99.98 7.1.77 2.9 1.52 5.72.22 8.64 4.36 4.74 3.58 11.32 6 16.75.67 1.51 1.76 2.84 2.72 4.35-.52.81-1.05 1.65-1.58 2.48h.76v7.72c2.01 1.58 4.28 5.18 9.09 2.93.15 1.56.28 2.85.44 4.45 2.75-.11 5.7.65 7.18-3.08 1.66 1.38 3.18 2.65 4.71 3.91.33-.05.67-.1 1-.15-.07-1.24-.14-2.48-.23-4.2.67-.18 1.99-.53 3.65-.97-.36-.74-.67-1.33-1.04-2.07zm-201.21-27.4c5.87-2.99 4.3-7.47 2.6-12.29-2.8 2.51-5.42 4.87-8.03 7.22-.87-.7-1.6-1.29-2.26-1.81-7.46 6.29-1.33 11.56.75 17.39 3.1-2.39 6.01-4.62 8.96-6.89-.63-1.14-1.17-2.1-2.02-3.62zm257.59-230.79c-5.13-1.23-3.27 4.05-5.51 5.57 3.99.28 3.24-4.11 5.51-5.57zm-257.69 8.35c-.55-2.01-1.01-3.7-1.48-5.39-.37-.01-.73-.02-1.1-.03-.55 1.78-1.1 3.57-1.67 5.42zm253.05-71.29c1.45 1.94 2.31 3.1 3.67 4.92.59-1.43 1.03-2.48 1.46-3.52-1.45-.39-2.9-.79-5.13-1.4z" fill="#010105"/><path d="m211.14 174.8c-1.62 6.09 3.19 7.39 6.02 10.32 2.25-1.63 4.31-3.12 6.38-4.61 2.05 3.13 2.12 3.1 8.71-3.21 1.74.45 3.37.87 5.54 1.43.02.18.13 1.26.24 2.35 2.51-.7 4.78 2.2 5.23 7.01 1.42-1.05 2.63-1.95 3.84-2.85 1.15-.86 2.3-1.73 3.22-2.42 2.18 1.82 4.18 3.5 6.27 5.25-.09.12-.33.48-.62.79-2.19 2.38-4.39 4.76-6.73 7.29-1.99-1.97-4.01-1.92-6.19-.36-3 2.14-6.1 4.13-9.37 6.32.64.85 1.2 1.6 1.76 2.35-.36-.3-.73-.61-1.09-.91-4.78 5.33-9.52 10.68-14.35 15.96-1.96 2.14-4.43 3.94-2.87 7.47.2.44-.54 1.3-.86 2-.35-.23-.5-.31-.63-.41-3.38-2.66-3.22-6.68-4.41-10.29-.91-2.76-4.09-4.77-6.35-7.21-1.43 1.49-2.26 2.36-2.87 3-7.79-3.32-6.13-9.74-5.25-15.67-4.08-2.12-5.21-5.81-3.02-9.18-3.08-2.62-.81-5.96-1.03-8.93-.27-3.64.28-7.34.46-11.02.01-.22-.08-.44-.08-.66-.01-.55-.16-1.5.03-1.58 4.85-1.93.15-9.58 6.81-10.59 2.29 3.49 4.73 7.21 7.47 11.4-.65 1.27-1.69 3.32-2.87 5.64 1.53.95 2.62 4.7 6.61 1.32z" fill="#010105"/><path d="m264.3 120.43c-.34 1.05-.68 2.09-1.09 3.38 2.72 1.76 3.95 4.09 2.87 7.57-.35 1.11.79 2.69 1.33 4.29-1.79 2.06-3.74 4.2-5.55 6.46-.53.66-.65 1.64-.96 2.47.96-.11 1.92-.2 2.87-.34.32-.05.61-.25 1.89-.79-1.04 1.64-1.47 2.68-2.21 3.42-2.92 2.93-5.84 5.87-8.96 8.58-.82.71-2.32.9-3.5.87-1.42-.03-2.83-.54-4.37-.36-2.14-2.86-5.12-3.12-8.58-2.43-4.87.96-5.36.4-5.92-4.34-.19-1.64-.88-3.46-1.93-4.71-2.7-3.24-4.3-6.55-3.75-10.99.38-3.02-.3-6.18-.52-9.55 3.53.19 4.6-1.7 4.85-4.89.18-2.36.78-4.87 4.35-4.82.95.01 1.92-1.86 3.13-3.12 1.77.71 3.85 1.46 5.85 2.37 3.31 1.51 6.67 2.52 10.34 1.6 3.06-.76 5 .44 6.32 3.26.48 1.02 1.72 1.68 2.61 2.5.33-.14.63-.28.93-.43z" fill="#010105"/><path d="m279.02 240.65c-1.96 1.61-3.75 3.57-5.96 4.7-1.44.73-3.51.1-5.27.33-2.76.36-2.45-2.08-3.28-3.42-1.81-2.91-3.5-5.9-5.24-8.87 2.23-2.39 6.9.04 7.12-4.71.86.59 1.49 1.02 2.09 1.44.82-.89 1.59-1.72 2.36-2.56.35-.04.71-.09 1.06-.13-1.8 3.64-.07 4.18 2.54 4.55 1.45.2 2.76 1.43 4.13 2.19-.31.52-.62 1.04-.94 1.57-1.25-.76-2.5-1.52-4.03-2.46-.73 1.06-1.58 2.3-2.33 3.4 2.71.95 5.22 1.84 7.73 2.72.01.41.02.83.02 1.25z" fill="#010105"/><path d="m100.27 148.92c-.92.99-1.89 2.03-2.93 3.14-4.07-3.4-7.49-6.8-6.98-12.59.25-2.83 1.11-3.9 5.11-4.16-4.34 6.67 2.04 9.16 4.8 13.61z" fill="#010105"/><path d="m63.04 374.92c-1.59 0-2.43 0-3.41 0 0-1.63 0-3.13 0-4.64 4-.37 1.52 3.26 3.41 4.64z" fill="#010105"/></svg>