<svg enable-background="new 0 0 400 400" viewBox="0 0 400 400" xmlns="http://www.w3.org/2000/svg"><g fill="#010106"><path d="m163.12 375.78c-2.19-5.5-2.16-10.55-1.13-15.47 1.7-8.09 3.85-16.08 5.9-24.09 1.88-7.36 2.13-14.64.77-22.22-2.71-15.08-4.74-30.27-7.08-45.42-1.48-9.58-6.92-16.82-13.94-23.03-9.77-8.65-20.79-15.49-32.16-21.8-4.09-2.27-4.52-8.27-1.28-11.76 4.56-4.91 9.11-9.87 13.12-15.22 5.91-7.87 5.43-15.69-.79-23.32-5.8-7.11-11.5-14.32-17.48-21.27-1.57-1.82-3.88-3.19-6.12-4.19-3.14-1.4-6.53-2.25-10.2-3.47.79-4.14 1.45-8.19 2.41-12.17.22-.9 1.35-1.7 2.24-2.3 6.5-4.36 13.17-8.48 19.53-13.05 3.03-2.18 5.84-4.89 8.12-7.85 2.42-3.15 1.78-5.33-.67-8.39-11.74-14.6-22.36-29.98-28.8-47.74-3.05-8.41-2.82-6.19 4.23-9.63 7.96-3.88 16.75-4.53 25.42-5.57 6.31-.76 12.53-2.26 18.83-3.13 2.9-.4 6-.56 8.84.01 8.62 1.73 17.24 2.48 26.01 1.57 4.46-.46 6.37 1.11 6.19 5.63-.23 5.72-1.55 10.94-5.23 15.86-8.24 10.99-15.87 22.45-23.59 33.83-1.53 2.25-2.36 4.98-3.83 8.19 3.07.93 5.62 2.08 8.28 2.41 2.62.32 5.36-.06 8.01-.37 10.26-1.21 17.12 6.16 13.77 15.88-3.15 9.15-7.14 18.08-11.53 26.7-11.57 22.7-23.56 45.19-35.5 67.99.81.86 1.62 1.76 2.47 2.62 9.97 9.98 19.98 19.92 29.88 29.97 1.45 1.47 2.72 3.28 3.58 5.16 8.15 17.92 12.09 36.89 13.81 56.4 1.18 13.38.94 26.77-3.42 39.52-2.98 8.73-7.32 17.03-11.61 25.23-1.06 1.99-4.34 2.83-7.05 4.49zm-43.38-239.4c.71 3.44.99 6.14 1.85 8.65 2.79 8.15 8.41 14.42 14.16 20.55 2.75 2.93 6.15 3.16 9.07.34 1.64-1.58 2.89-3.67 3.97-5.71 2.55-4.84 4.92-9.77 7.3-14.7 2.95-6.14 5.92-12.28 8.71-18.5 1.71-3.83 1.05-6.54-2.01-8.14-3.74-1.95-7.74-3.14-11.85-1.02-9.42 4.87-18.84 9.74-28.15 14.82-1.38.75-2.16 2.6-3.05 3.71zm-2.7-80.65c.11 1.19.19 2.41.35 3.62.09.66.31 1.3.47 1.95 2.62 10.71 9.44 18.79 16.56 26.74 1.77 1.98 3.71 2.38 5.54.95 3.19-2.51 6.41-5.14 8.95-8.27 3.44-4.23 6.41-8.87 9.27-13.52 2.41-3.91 4.38-8.09 6.98-12.95-16.74-.41-32.36-4.35-48.12 1.48z"/><path d="m193.34 87.84c9.04-3.78 18.49-4.86 27.84-6.49 4.81-.84 9.64-1.99 14.21-3.68 4.14-1.53 4.48-3.2 2.04-6.82-3.91-5.83-8.09-11.47-12.02-17.28-2.44-3.6-4.89-7.24-6.85-11.1-2.84-5.61-2.32-11.22 1.22-16.75 9.25 3.81 16.1 9.99 19.85 19.3 3.65 9.07 7.81 17.77 14.54 25.1 2.32 2.53 4.93 4 8.15 3.84 7.45-.36 14.88-1.08 22.33-1.58 3.1-.21 6.26-.65 9.31-.28 5.27.64 8.61 5.58 7.51 10.77-.16.75-1.61 1.66-2.54 1.76-9.56 1.05-19.14 1.95-28.71 2.91-.99.1-1.97.29-3.65.54.77 4.78 1.29 9.41 2.28 13.95 2.68 12.23 5.92 24.34 8.29 36.62 6.89 35.74-1.5 67.93-23.64 96.57-8.41 10.88-17.19 21.49-26.11 31.95-3.83 4.48-9.15 7.06-15.53 8.82 1.17-4.21 1.15-8.24 4.29-11.44 12.35-12.55 22.64-26.56 29.26-43 7.38-18.34 12.31-37.42 14.63-57 .92-7.76-.75-15.83-1.27-23.76-.29-4.45-.64-8.9-.95-13.3-7.39-1.18-8.97-.63-12.43 5.47-2.14 3.78-3.67 7.89-5.56 11.81-10.06 20.77-25.45 37.14-42.72 52.01-3.52 3.03-6.73 6.55-9.48 10.3-2.64 3.59-5.86 5.66-10.56 6.68 0-3.6-.06-7 .05-10.39.02-.65.54-1.47 1.08-1.9 14.33-11.38 24.95-25.95 34.56-41.23 8.93-14.18 17.18-28.79 25.79-43.18 2.01-3.36 4.56-6.42 6.29-9.9 1.65-3.34 2.63-7.02 3.76-10.6.72-2.29-.29-3.39-2.69-3.86-8.99-1.74-17.79-.41-26.65 1.06-5.37.9-10.83 1.61-16.27 1.7-5.17.08-8.14-2.62-9.65-7.62z"/><path d="m241.72 277.2c-8.83 8.64-18.96 13.1-30.83 13.91-3.53.24-4.93-.97-4.76-4.63 10.22-5.34 20.57-10.76 31.09-16.25 1.55 2.39 2.99 4.62 4.5 6.97z"/></g><path d="m385.2 377.6.6-.7c.6.4 1.3.9 1.9 1.5l-.6.7c-.8-.5-1.4-1-1.9-1.5zm.3 7.1c.6-1.4 1.1-2.9 1.5-4.5.3.1.6.3.9.4-.5 1.4-1 2.9-1.5 4.4zm.2-10.1.6-.6c.7.5 1.3 1.1 1.9 1.6l-.7.7c-.6-.6-1.2-1.2-1.8-1.7zm8.4-.8h.8v.9h1.8v.7h-1.8v1.8h-.8v-.3h-1.2v.9h3.3v2.6h-.8v-.4h-2.5c0 .3 0 .6-.1.8h3.4v.7h-3.5c0 .3-.1.6-.1.8h4v.7h-3.5c.7.9 1.9 1.3 3.6 1.5-.2.2-.4.5-.6.9-1.9-.3-3.2-1.1-3.8-2.3-.5 1.1-1.8 2-3.9 2.4-.2-.3-.4-.5-.6-.8 1.9-.4 3.1-.9 3.6-1.7h-3.2v-.7h3.5c.1-.2.1-.5.2-.8h-3.3v-.7h3.4c0-.2 0-.5 0-.8h-2.4v.3h-.8v-2.6h3.3v-.9h-1.2v.3h-.8v-1.8h-1.8v-.7h1.8v-.9h.8v.9h3.2zm-4.4 5.5h2.4c0-.3 0-.6 0-.9h-2.4zm1.2-3.1h3.2v-.8h-3.2zm4.4 2.2h-2.4v.9h2.5v-.9z" fill="#fcfbfa"/><path d="m389.2 385.8h.9v1.5h1.9v-1.5h.9v1.5h2.7v6h1.1v.9h-11.3v-.9h1.1v-6h2.7zm.2 8.7.5.8c-1.2.6-2.5 1.3-4 1.9-.2-.3-.3-.6-.6-.8 1.6-.6 3-1.3 4.1-1.9zm-2-4.3h1.9v-2.1h-1.9zm0 3.1h1.9v-2.2h-1.9zm2.7-3.1h1.9v-2.1h-1.9zm0 3.1h1.9v-2.2h-1.9zm2.4 1.3c1.4.6 2.7 1.2 4.1 1.8l-.5.9c-1.5-.7-2.8-1.4-4.1-1.9zm2.2-6.5h-1.9v2.1h1.9zm-1.9 5.2h1.9v-2.2h-1.9z" fill="#fcfbfa"/></svg>