<svg enable-background="new 0 0 400 400" viewBox="0 0 400 400" xmlns="http://www.w3.org/2000/svg"><g fill="#fafafb"><path d="m12.4 4.8-6.1 9h6v1.2h-8v-.5l6.1-8.9h-5.7v-1.2h7.6v.4z"/><path d="m14 15v-10.6h3c1.6 0 2.9.5 4 1.4s1.6 2.2 1.6 3.8-.5 3-1.6 3.9-2.4 1.5-4 1.5zm1.4-9.4v8.2h1.6c1.3 0 2.4-.4 3.1-1.1s1.1-1.8 1.1-3.1-.4-2.3-1.2-3-1.8-1-3.1-1z"/><path d="m26.1 4.4v10.6h-1.4v-10.6z"/><path d="m36.1 14.6c-.8.4-1.8.6-2.9.6-1.5 0-2.7-.5-3.6-1.4s-1.4-2.2-1.4-3.8c0-1.7.5-3.1 1.5-4.1s2.3-1.6 3.9-1.6c1 0 1.8.1 2.5.4v1.4c-.8-.4-1.6-.6-2.5-.6-1.2 0-2.1.4-2.9 1.2s-1.1 1.8-1.1 3.2c0 1.3.3 2.3 1 3s1.6 1.1 2.7 1.1c1 0 2-.2 2.7-.7v1.3z"/><path d="m37.6 14.3c0-.2.1-.5.3-.6s.4-.3.6-.3c.3 0 .5.1.6.3s.3.4.3.6-.1.4-.3.6-.4.3-.6.3c-.3 0-.5-.1-.6-.3s-.3-.4-.3-.6z"/><path d="m50.2 15h-1.6l-5.3-8.2c-.2-.2-.3-.5-.4-.7 0 .2.1.7.1 1.5v7.4h-1.4v-10.6h1.7l5.2 8.1c.2.4.4.6.4.7 0-.3-.1-.8-.1-1.5v-7.3h1.4z"/><path d="m58.6 15h-5.7v-10.6h5.5v1.2h-4.1v3.4h3.8v1.2h-3.8v3.6h4.3z"/><path d="m67.1 5.6h-3.1v9.4h-1.4v-9.4h-3v-1.2h7.5z"/></g><path d="m235.75 362.77c0 2.05.02 4.39-.01 6.73-.04 2.89-5.02 6.32-7.61 5-1.69-.86-2.74-.1-4.23.25-2.62.62-5.45.42-8.19.37-.41-.01-.89-1.05-1.18-1.69-.83-1.83-1.6-3.69-2.36-5.55-.63-1.52-1.48-2.39-3.32-1.75-.64.23-1.76.17-2.19-.25-3.21-3.08-6.65-6.03-9.32-9.54-1.67-2.2-3.17-3.85-5.95-4.15-2.2-.24-3.32-2.05-4.9-3.21-3.55-2.62-4.53-6.76-7.31-9.69-2.92-3.09-5.76-6.26-8.7-9.33-.48-.5-1.31-.66-2.33-1.14 1.81-3.49.71-6.67-1.97-9.18-2.39-2.23-5.16-4.03-7.18-5.57-1.06-2.22-1.73-4.21-2.88-5.88-1.39-2.01-3.15-3.78-4.83-5.58-1.55-1.66-2.17-3.17-2.1-5.78.07-2.7-1.75-6.05-3.78-8.05-2.88-2.83-5.15-5.3-3.97-9.65.25-.92-.19-2.19-.66-3.13-3.51-7.08-10.1-10.85-16.37-14.9-.79-.51-2.21-.41-3.21-.15-4.16 1.1-7.25-.49-9.63-3.71-2.06-2.78-4.19-4.98-8.12-4.96-1.25 0-3.39-1.81-3.59-3.04-.58-3.47-2.75-4.82-5.61-5.8-1.72-.59-3.34-1.15-3.15-3.63.05-.6-1.32-1.59-2.22-1.91-2.19-.79-4.12-1.56-2.72-4.65-1.38 0-2.34 0-3.33 0-1.25-2.85-2.25-5.83-3.8-8.48-1.53-2.62-2.94-5.73-7.09-5.59.12-1.21.22-2.26.33-3.42-2.18-1.42-5.02-1.45-5.95-5.03-.71-2.73-3.74-4.9-5.89-7.18-.64-.68-1.77-.88-3.13-1.5-.2-2.16-.56-4.81-.66-7.48-.09-2.29-1.12-3.75-3.15-4.66-.81-.36-1.63-.78-2.31-1.34-2.57-2.1-2.51-5.26.11-7.12 1.46-1.04 2.92-2.1 4.47-2.96 4.74-2.63 7.32-2.01 11.11 1.72 7.09 6.97 10.87 16.07 15.96 24.31 4.25 6.88 9.5 12.61 16.4 16.89 1.66 1.03 3.09 2.53 4.41 4 4.85 5.4 9.42 11.05 14.5 16.23 2 2.04 5.03 3.06 7.94 4.74 1.72-5.5-.44-9.52-2.31-13.69-1.44-3.21-2.71-6.57-3.44-10-1.08-5.07-1.62-10.25-2.47-15.95 2.42-1.59 1.65-3.87-.77-5.93-2.91-2.49.38-4.4-.3-6.46-.53-2.21-1.14-4.41-1.56-6.64-.53-2.83-.9-5.7-1.37-8.54-.11-.65-.56-1.36-.42-1.93 1.31-5.43-1.09-10.34-1.98-15.47-.34-1.99.1-4.1 0-6.15-.06-1.25-.18-2.68-.82-3.68-2.18-3.4-2.5-6.95-2-10.87.28-2.21-.22-4.57-.71-6.8-.42-1.91-1.21-3.48.09-5.6.63-1.03-.6-3.24-1.06-4.89-.61-2.2-1.67-4.36-1.86-6.59-.51-5.87-5.62-9.87-11.51-8.9-.96.16-2.25-.65-3.14-1.33-3.4-2.58-6.6-5.21-11.47-3.9-1.31.35-3.04-1.15-4.65-1.55-2.51-.63-5.27-.6-7.56-1.64-3.65-1.65-7.19-3.7-10.39-6.09-1.27-.95-1.67-2.68-3.89-1.99-.85.26-2.58-.21-2.95-.87-2.03-3.66-4-7.39-5.49-11.29-.65-1.7 3.83-5.46 6-5.73 7.64-.93 14.39.68 19.77 6.56 3.06 3.35 7.58 2.92 11.39 4.31 2.48.9 5.12 1.67 7.25 3.13 3.67 2.52 7.58 1.15 11.37 1.23.37.01 1.14-2.41 1.09-3.68-.06-1.81-1.05-3.61-1.04-5.41.04-4.99 1.03-10.04.46-14.94-.63-5.41 1.97-10.03 2.28-15.12.22-3.56.46-7.13.54-10.7.05-2.12-1.1-4.23.91-6.27.57-.58-.35-2.63-.59-3.98 1.9-.84 3.77-1.66 5.64-2.49.07-.5.14-1.01.21-1.51 3.57 2.54 7.3 4.88 10.64 7.7 2.26 1.91 2.38 4.4 1.48 7.57-1.06 3.72-.53 7.89-.82 11.85-.13 1.84-.19 3.81-.92 5.44-1.27 2.86-2.03 5.55-.87 8.66.43 1.16.14 2.62.05 3.93-.29 4.49-1.94 8.91-.11 13.51.56 1.4.07 3.34-.31 4.95-.76 3.26.52 5.47 3.24 6.99 2.54 1.42 5.16 3.19 7.06.67 2.92.27 5.23.27 7.44.75 2.35.5 4.57 1.57 6.9 2.17 2.07.54 4.22.79 6.33 1.18 1.14.21 2.27.48 3.42.68.7.13 1.51.45 2.11.24 6.23-2.23 12.41-.96 18.5.47 1.2.28 2.24 2.03 2.97 3.32.58 1.02.59 2.37.86 3.57 1.47 6.52-1.3 10.19-8.11 10.72-2.89.23-5.46.44-8.42-1.24-2.56-1.45-6.32-.79-9.55-1.05-6.8-.54-13.64-.78-20.39-1.7-3.47-.47-5.06.95-5.29 3.77-.35 4.29-2.23 8.65.49 12.96.8 1.26.63 3.26.57 4.9-.11 2.75-.12 5.34 2.16 7.41.46.41.62 1.39.58 2.09-.2 3.39-.74 6.76-.76 10.15-.03 6.38.88 12.38 3.86 18.41 2.28 4.61 3 10.48 2.74 15.71-.31 6.36 1.33 12.33 1.84 18.49.49 5.91 1.29 11.79 1.84 17.69.18 1.93.52 3.87 2.71 3.94 1.19.04 2.9-.9 3.55-1.92 2.62-4.14 5.3-8.31 7.26-12.78 2.74-6.27 6.39-11.68 11.64-16.1 1.2-1.01 1.63-2.94 2.37-4.47.33-.69.38-1.55.82-2.14 5.2-7.13 10.16-14.46 15.81-21.22 2.86-3.43 6.91-5.89 10.57-8.61 1.77-1.32 3.63-1.28 5.3.64 1.45 1.68 3.38 2.96 4.79 4.67 1.58 1.92 2.02 3.97.19 6.32-2.4 3.08-5.2 6.19-6.44 9.77-2.64 7.66-11.23 10.41-13.86 17.94-.8 2.29-2.2 4.41-3.59 6.43-1.28 1.86-2.97 3.43-4.36 5.22-.81 1.04-1.39 2.27-2.06 3.41-.64 1.09-1.15 2.27-1.91 3.26-3.1 4.04-6.29 8.02-9.43 12.03-.2.26-.48.65-.4.89 1.62 5.23-2.47 8.21-5.12 11.21-4.2 4.76-4.55 9.76-2.89 15.24 1.54 5.13 3.06 10.34 5.39 15.13 1.26 2.59 4.19 4.37 6.65 6.81-2.87 2.74-.71 5.27 1.16 7.81 5.23 7.1 10.57 14.13 15.67 21.32 1.56 2.2 2.23 5.02 3.75 7.25 5.31 7.79 12.31 13.78 20.36 18.64 1.76 1.06 3.43 2.61 4.55 4.32 4.74 7.2 10.9 13.05 17.49 18.43 1.61 1.32 4.2 1.47 6.92 2.34z" fill="#010105"/><path d="m344.97 248.48c-1.75 1.51-2.88 3.89-.87 6.92.32.48-.14 1.5-.25 2.26-.15 1-.72 2.14-.41 2.96 3 7.9-1.12 15.02-2.32 22.44-1.02 6.28-2.19 12.54-3.29 18.81-.46 2.6-.21 4.91 2.72 6.22-1.82 2.97-3.76 5.69-5.22 8.65-2.4 4.87-5.21 9.74-2.93 15.59.3.77-.23 1.94-.56 2.86-1.5 4.09-3.07 8.16-4.6 12.23-.73 1.93-1.36 3.64-.62 6 .43 1.37-1.56 3.52-2.52 5.28-.11.21-.62.18-.94.3-10.19 3.79-12.96 2.59-17.35-7.67-.24-.57-.17-1.58.19-2.05 7.42-9.66 8.5-21.14 9.53-32.65.5-5.56 1.11-11.11 1.67-16.66.11-1.11.65-2.41.26-3.3-1.65-3.8-2.49-7.5-.75-11.56.3-.71-.71-1.98-1.13-3.01 3.08-5.29 1.62-14.68-2.83-18.72-.87-.79-1.4-1.96-2.03-2.99-1.91-3.09-3.7-6.26-5.76-9.24-.56-.8-1.95-1-2.91-1.56-.7-.41-1.49-.83-1.96-1.46-1.46-1.98-2.63-4.19-4.21-6.06-1.47-1.74-3.43-3.07-4.97-4.76-2.83-3.08-5.42-6.37-8.29-9.41-1.12-1.19-2.7-1.96-4.1-2.89-.63-.42-1.65-.57-1.94-1.13-4.55-8.66-13.41-13.03-19.71-19.93-5.27-5.78-10.57-11.55-16.07-17.11-2.59-2.62-3.09-5.78-3.68-9.08-.99-5.54-3-6.94-8.59-6.12-2.32.34-4.67.55-6.97 1.02-2.85.58-4.73-.63-5.39-3.2-1.36-5.32-1.62-10.6 1.98-15.34.68-.89 1.24-1.86 1.86-2.79 1.19-1.78 2.03-4.57 3.63-5.11 3.38-1.14 7.17-1.52 10.77-1.42 3.35.09 6.6 2.2 10.13.5.42-.2 1.33.18 1.79.57 5.09 4.31 11.64 4.75 17.62 5.61 5.54.79 11.41-.89 17.15-1.36 1.1-.09 2.39.13 3.35.65 1.76.96 3.43 2.13 4.95 3.44 1.86 1.6 3.82 1.92 6.2 1.6.93-.12 2.67.76 2.93 1.56 1.46 4.42 5.7 5.42 8.91 7.65.36.25 1.17.29 1.54.05 3.11-1.94 5.97-.55 8.99.34 5.06 1.5 10.18 2.89 15.34 3.97 3.85.81 6.64 3.04 8.24 6.23 4.34 8.7 6.94 17.89 6.01 27.79-.11 1.2-.24 2.66.3 3.63 2.03 3.67 1.11 7.31.58 11.08-.36 2.56 0 5.22.04 7.84.01.55.19 1.14.04 1.63-1.67 5.28-3.56 10.49-4.99 15.83-.34 1.31.8 3 1.44 5.07zm-17.29-33.77c2.41-1.94 1.92-3.98.43-6.36-.52-.83-.12-2.44.24-3.58.65-2.07 2.17-4.01-.17-6.06-.4-.35-.2-1.63.03-2.4 1.24-4.22.43-7.49-3.49-9.34-3.22-1.52-6.93-2.35-10.51-2.73-6.07-.65-11.47-1.78-15.36-7.3-3.14-4.46-10.97-4.43-14.78-.58-.36.37-.93.98-1.23.89-3.33-.98-7.22.57-10.13-2.47-1.29-1.34-3.01-2.33-4.67-3.24-.74-.41-2.08-.66-2.64-.27-2.13 1.49-3.95.97-5.83-.31-1.93-1.31-3.45-1.07-4.64 1.29 1.15 1.26 2.12 2.68 3.41 3.68 3.7 2.88 6.32 6.43 8.36 10.68 1.03 2.14 3.19 4.49 5.35 5.19 5.7 1.84 9.03 5.77 11.99 10.57 2.45 3.97 4.73 8.39 8.18 11.33 7.08 6.04 14.1 12.02 19.84 19.41.74.95 2.54 1.03 3.77 1.68 3.47 1.84 6.06-.86 8.93-1.77 3.4-1.08 5.01-4.72 3.91-8.11-.3-.93-.81-1.8-1.2-2.64 3.01-3.72 3.03-4.28.21-7.56z" fill="#010105"/><path d="m226.89 113.67c2.36-1.41 1.52-3.29 1.8-5.28.77-5.51-1.79-10.84-.22-16.23.17-.58.36-1.51.06-1.83-2.47-2.61-.3-3.9 1.63-5.42-.42-.68-.7-1.42-1.22-1.91-1.9-1.8-1.81-3.61-.31-5.6 1.11-1.48.96-2.96.68-4.88-.64-4.39-1.51-8.99 1.09-13.25.33-.54-.14-2.07-.73-2.57-1.15-.97-2.73-2.29-3.97-2.13-2.71.34-5.38 2.05-7.74-.67-2.95-3.4-4.74-7.31-4.55-11.9.03-.69.72-1.6 1.36-1.96 3.1-1.75 6.15-3.46 10.07-2.46 4.87 1.25 9.44-.03 13.83-2.34 1.01-.53 2.89-.85 3.59-.29 2.72 2.2 4.95 1.25 7.46-.7 2.19 3.32 4.76 2.87 7.7.93.86-.57 2.54-.52 3.57-.09 2.08.87 3.95 1.89 5.53-1.09 2.21 2.69 4.49 2.87 7.19 1.29.91-.53 2.4-.3 3.58-.1 1.64.28 3.21 1 4.86 1.27 5.99 1.01 10.5 3.98 14.37 8.79 2.27 2.82 6.17 4.27 9.18 6.56 1.53 1.17 3.35 2.59 3.93 4.28 2.17 6.32 4.74 12.69 5.49 19.23.61 5.38-1.28 11.02-1.84 16.56-.5 4.94-2.28 9.22-5.41 13.07-1.69 2.08-3.29 4.28-4.55 6.64-4.56 8.49-11.09 14.75-20.17 18.07-2.64.97-5.52 1.47-8.33 1.69-4.11.33-8.25.24-12.38.27-.96.01-2.11.09-2.84-.38-4.18-2.72-8.45-1.8-12.91-.92-2.64.52-5.47.13-8.21.01-2.99-.13-6.14.09-8.94-.76-5.44-1.65-10.5 2.47-16.06.27-4.96-1.97-9.12-8.7-7.35-13.72 1.22-3.48 10.22-7.36 13.62-5.83 2.44 1.1 4.84 2.29 7.14 3.38zm21.08-1.34c1.02 0 2.58-.03 4.14 0 6.02.12 12.17-.49 18.01.6 4.85.91 8.6-.38 10.9-3.72 4.76-6.91 11.64-12.76 12.11-22.14.15-2.97 1.56-5.86 1.83-8.84.21-2.33.04-4.95-.85-7.07-3.73-8.86-11.79-13.18-19.54-17.73-.41-.24-1.09.04-1.63-.02-1.03-.11-2.04-.36-3.07-.43-.8-.06-1.82-.23-2.37.17-3.03 2.14-5.91 3.22-8.44-.57-1.62 1.11-2.98 2.04-4.33 2.97-.01-.3-.02-.59-.02-.89-1.57-.26-3.69-1.25-4.57-.59-1.34 1-1.98 3.1-2.6 4.84-.31.87.14 1.98.17 2.99.11 4.91.36 9.82.26 14.72-.14 6.26-.63 12.51-.83 18.78-.04 1.26.21 2.74.88 3.77 1.05 1.61.75 2.74-.19 4.22-.73 1.15-1.32 2.63-1.3 3.95 0 1.46.79 2.91 1.44 4.99z" fill="#010105"/></svg>