<svg enable-background="new 0 0 400 400" viewBox="0 0 400 400" xmlns="http://www.w3.org/2000/svg"><path d="m374.8 390.4.4-.4c.7.5 1.3 1 1.8 1.4l-.5.5c-.5-.6-1.1-1.1-1.7-1.5zm1 7.3-.6-.3c.5-1.4 1.1-2.8 1.5-4.3.2.1.4.2.6.3-.5 1.3-1 2.8-1.5 4.3zm-.4-10.3.4-.4c.4.3 1 .8 1.7 1.4l-.5.5c-.4-.5-1-1-1.6-1.5zm2.5.3h1.7v-1h.6v1h3.5v-1h.6v1h1.8v.5h-1.8v1.4h-2v1h3.2v2h-3.2v.9h3.3v.5h-3.4c0 .3-.1.6-.1.9h4v.5h-3.7c.7.9 1.9 1.5 3.8 1.7-.1.2-.2.4-.3.6-2.1-.4-3.5-1.1-4-2.1-.4 1-1.8 1.7-4 2.2-.1-.2-.2-.4-.3-.6 2.1-.4 3.4-1 3.8-1.8h-3.4v-.5h3.6c.1-.3.1-.6.2-.9h-3.3v-.5h3.4c0-.3 0-.6 0-.9h-3.2v-2h3.3v-1h-2.1v-1.4h-1.7v-.5zm1.1 3.5v1h2.7c0-.3 0-.4 0-.4 0-.1 0-.2 0-.2 0-.1 0-.2 0-.3h-2.7zm1.2-3v.9h3.5v-.9zm4.7 3h-2.6v.6.4h2.6z" fill="#fbfcfa"/><path d="m393.6 386.7h.6v1.5h2.7v6.1h1.1v.6h-11v-.6h1.1v-6.1h2.7v-1.5h.6v1.5h2.1v-1.5zm-2.7 8.8.4.6c-1.2.6-2.5 1.3-3.8 1.9-.1-.2-.2-.4-.3-.6 1.2-.6 2.5-1.2 3.7-1.9zm-2.2-6.7v2.4h2.1v-2.4zm0 3v2.5h2.1v-2.5zm2.8-3v2.4h2.1v-2.4zm0 3v2.5h2.1v-2.5zm6 6.1c-1.4-.7-2.7-1.3-3.9-1.8l.3-.6c1.5.6 2.7 1.2 3.9 1.7zm-1.2-9.1h-2.1v2.4h2.1zm-2.1 3v2.5h2.1v-2.5z" fill="#fbfcfa"/><g fill="#010106"><path d="m248.86 272.96c11.77 5.77 23.78 9.75 36.37 12.08 6.69 1.24 13.5 2.08 19.36 6.07 9.26 6.31 13.82 15.64 15.28 26.16.76 5.46-1.5 11.27-1.75 16.96-.25 5.62-2.77 9.41-6.96 12.94-12.75 10.73-26.61 19.3-42.95 23.26-10.99 2.67-21.97 1.99-33.77-1.14 1.93-.73 3.09-1.18 4.26-1.61 11.93-4.46 23.93-8.71 35.75-13.42 12.04-4.8 19.07-14.83 24.98-25.66 2.93-5.37 3.32-11.39 1.83-17.32-.32-1.29-1.84-2.71-3.16-3.27-14-6.05-28.58-10.3-43.45-13.59-4.96-1.1-9.73-2.63-13.57-6.18-7.14-6.59-7.5-15.09-6.66-23.9.44-4.67 2.22-8.53 5.3-12.28 10.85-13.22 16.22-28.7 17.19-45.69 1.77-30.98 5.19-61.76 10.96-92.26.41-2.16-.14-4.65-.75-6.84-2.99-10.77-5.7-21.64-9.38-32.18-3.81-10.92-2.72-21.6-.32-32.4 1.11-4.99 2.66-9.89 4.12-15.23 5.9 2.82 9.91 6.97 11.51 12.73 1.45 5.23 2.08 10.74 2.59 16.17 1.02 10.9 3.56 21.16 8.66 31.05 11.27 21.85 21.89 44.07 29.49 67.53 3.03 9.34 5.2 18.96 7.67 28.47.33 1.26.28 2.67.16 3.99-.88 9.59-1.79 19.17-2.78 28.74-.11 1.02-.63 2.15-1.3 2.94-5.71 6.76-11.45 13.49-17.3 20.12-.89 1-2.36 1.59-3.65 2.12-9.4 3.86-18.99 7.31-28.19 11.58-8.78 4.04-15.39 10.65-19.54 20.06zm24.41-40.57c6.6-4.43 12.55-8.36 18.4-12.43.82-.57 1.3-1.77 1.7-2.77 2.7-6.62 5.41-13.24 7.96-19.91.58-1.51.94-3.28.79-4.86-1.61-16.46-5.47-32.36-12.58-47.35-1.11-2.35-2.84-4.41-4.28-6.61-.29.09-.58.18-.87.26-3.67 30.93-7.34 61.85-11.12 93.67z"/><path d="m131.59 25.99c3.38 5.36 5.1 11 5.72 16.88 1.84 17.49-1.66 34.28-7.37 50.69-.75 2.15-2.61 3.88-3.79 5.9-2.66 4.55-3.32 9.33-1.96 14.52 12.09 46.27 24.1 92.57 36.21 138.84.35 1.35 1.45 2.66 2.52 3.66 3.74 3.5 8.1 6.47 11.27 10.41 2.07 2.57 3.28 6.43 3.47 9.79.36 6.68-.34 13.4-.42 20.11-.02 2.05-.99 2.87-2.65 3.68-12.27 5.96-25.31 9.34-38.57 12.17-14.16 3.01-21.15 10.67-23.69 24.79-.37 2.06.31 3 1.73 4.16 12.71 10.41 27.28 16.75 43.12 20.81 7.74 1.98 15.16 5.25 22.62 8.21 2.3.91 4.24 2.72 6.1 4.8-.93.07-1.86.15-2.8.2-24.23 1.14-46.88-5.43-69.13-14.09-3.59-1.4-6.55-3.11-8.46-6.53-.92-1.65-2.05-3.21-3.24-4.69-6.56-8.13-7.8-17.36-5.48-27.22.4-1.72 1.39-3.5 2.6-4.81 3.49-3.78 7.42-7.16 10.81-11.02 3.31-3.77 7.31-6.1 12.02-7.45 6.33-1.82 12.6-3.9 19-5.42 8.88-2.11 15.36-7.39 21.06-14.68-5.66-2.31-11.11-4.55-16.57-6.77-16.26-6.58-32.54-13.11-48.76-19.8-1.71-.71-3.41-2.13-4.46-3.67-5.79-8.49-11.84-16.82-15.05-26.8-3.49-10.83-3.83-21.71-1.36-32.77 3.26-14.57 8.18-28.54 14.71-41.97 8.26-17 13.55-34.9 16.49-53.6 2.06-13.14 4.91-26.15 7.46-39.21.21-1.08.6-2.17 1.15-3.11 4.82-8.19 9.69-16.35 14.56-24.52.26-.46.63-.85 1.14-1.49zm-17.4 121.08c-9.52 14.46-15.61 28.93-18.47 44.8-2.18 12.1-.97 23.68 5.23 34.36 2.43 4.18 5.23 8.69 9.04 11.39 5.39 3.83 11.83 6.21 17.89 9.04 4.88 2.27 9.89 2.07 15.2.29-1.9-8.36-3.57-16.56-5.64-24.66-4.78-18.71-9.49-37.45-14.81-56.01-1.82-6.42-5.36-12.35-8.44-19.21z"/><path d="m203.8 25.15c6.78 11.69 13.7 22.79 19.78 34.33 7.24 13.75 13.65 27.93 17.14 43.2 4.05 17.68 3.24 35.26-3.39 52.12-2.61 6.63-6.42 12.87-7.02 20.08-.76 9.12-1.11 18.3-1.13 27.45-.02 9.56-.16 18.99-4.24 27.93-3.87 8.48-10.23 14.27-18.71 17.78-.8.33-2.48-.32-3.17-1.06-11.14-11.81-19.07-25.01-20.86-41.76-2.3-21.47-10.13-41.5-19.62-60.63-5.87-11.83-5.01-23.25-2.57-35.15 3.92-19.15 12.1-36.91 18.45-55.26 6.83-7.77 9.51-18.63 18.44-24.82 1.91-1.35 3.99-2.45 6.9-4.21zm-7.21 94.2c0 .23-.01.45-.01.68-4.92 0-9.84-.12-14.75.05-2.8.1-7.98 4.23-7.91 6.23.23 6.99 1.12 13.78 5.4 19.74 2.55 3.55 5.47 5.57 10.04 5.19 3.78-.31 7.6-.03 11.4-.07 6.78-.06 12.96-2.18 18.67-5.7.87-.54 1.84-1.46 2.08-2.38 1.02-3.87 2.23-7.78 2.54-11.74.53-6.82-2.9-10.52-9.71-11.05-5.91-.44-11.83-.64-17.75-.95zm-.1-56.25c-8.01 13.88-17.18 27.03-17.53 44.18 9.23.54 18.03 1.54 26.81 1.35 4.49-.1 8.98-2.23 13.37-3.73.77-.27 1.62-2.09 1.45-3.02-.58-3.17-1.46-6.3-2.47-9.37-3.91-12.03-10.83-21.88-21.63-29.41zm8.21 162.51c6.59-4.39 6.9-4.31 8.61-11.21 1.95-7.9 3.62-15.9 4.73-23.95.62-4.54.54-9.41-.43-13.87-1.36-6.25-6.68-8.68-12.39-10.44-5.06-1.56-6.48 2.76-9.03 5.16-1.28 1.21-2.76 3.06-2.78 4.63-.07 7.67-.3 15.43.71 23 1.28 9.56 5.14 18.39 10.58 26.68z"/></g></svg>