<svg enable-background="new 0 0 400 400" viewBox="0 0 400 400" xmlns="http://www.w3.org/2000/svg"><g fill="#fafafb"><path d="m12.4 4.8-6.1 9h6v1.2h-8v-.5l6.1-8.9h-5.7v-1.2h7.6v.4z"/><path d="m14 15v-10.6h3c1.6 0 2.9.5 4 1.4s1.6 2.2 1.6 3.8-.5 3-1.6 3.9-2.4 1.5-4 1.5zm1.4-9.4v8.2h1.6c1.3 0 2.4-.4 3.1-1.1s1.1-1.8 1.1-3.1-.4-2.3-1.2-3-1.8-1-3.1-1z"/><path d="m26.1 4.4v10.6h-1.4v-10.6z"/><path d="m36.1 14.6c-.8.4-1.8.6-2.9.6-1.5 0-2.7-.5-3.6-1.4s-1.4-2.2-1.4-3.8c0-1.7.5-3.1 1.5-4.1s2.3-1.6 3.9-1.6c1 0 1.8.1 2.5.4v1.4c-.8-.4-1.6-.6-2.5-.6-1.2 0-2.1.4-2.9 1.2s-1.1 1.8-1.1 3.2c0 1.3.3 2.3 1 3s1.6 1.1 2.7 1.1c1 0 2-.2 2.7-.7v1.3z"/><path d="m37.6 14.3c0-.2.1-.5.3-.6s.4-.3.6-.3c.3 0 .5.1.6.3s.3.4.3.6-.1.4-.3.6-.4.3-.6.3c-.3 0-.5-.1-.6-.3s-.3-.4-.3-.6z"/><path d="m50.2 15h-1.6l-5.3-8.2c-.2-.2-.3-.5-.4-.7 0 .2.1.7.1 1.5v7.4h-1.4v-10.6h1.7l5.2 8.1c.2.4.4.6.4.7 0-.3-.1-.8-.1-1.5v-7.3h1.4z"/><path d="m58.6 15h-5.7v-10.6h5.5v1.2h-4.1v3.4h3.8v1.2h-3.8v3.6h4.3z"/><path d="m67.1 5.6h-3.1v9.4h-1.4v-9.4h-3v-1.2h7.5z"/></g><path d="m295.38 210.94c7.17 6.2 14.91 11.05 23.29 14.87 7.45 3.4 14.97 6.72 20.49 13.06 2.69 3.09 4.98 6.52 7.62 10.03-6.36 2.95-11.92 2.23-17.37-.51-5.29-2.66-10.55-5.39-15.84-8.05-1.18-.6-2.45-1.03-3.91-1.64-1.77 2.54-3.51 5-5.19 7.48-4.82 7.13-9.65 14.26-14.4 21.45-.97 1.47-1.81 3.12-2.3 4.8-1.8 6.16.4 10.13 6.64 11.04 5.39.79 10.89.83 16.34 1.05 2.56.1 5.14-.31 7.71-.25 7.38.16 11.58 4.26 12.32 12.13-9.22 3.18-18.4 6.45-28.56 5.63-5.64-.46-11.34-.08-17.18-.08-.36 2.24-.54 3.99-.95 5.69-.58 2.36.26 3.69 2.46 4.65 7.72 3.34 15.76 3.75 24.02 3.28 4.65-.27 9.41-.35 13.99.34 6.23.93 10.31 4.96 12.62 11.23-4.95 1.6-9.8 3.19-14.67 4.69-.58.18-1.4.08-1.94-.21-8.6-4.51-17.36-2.53-26.14-.74-7.66 1.57-8.02 1.49-8.61 9.48-.42 5.64.24 11.36.46 17.05.1 2.79.48 5.59.37 8.37-.08 1.85-.58 3.77-1.28 5.5-1.08 2.65-3.4 3.69-6.16 3.91-2.6.21-3.65-1.58-4.81-3.43-4.59-7.36-4.09-15.26-3.06-23.4.55-4.37.07-8.89-.08-13.33-.08-2.22-1.24-3.13-3.67-3.2-10.84-.28-21.68-.69-32.51-1.27-8.41-.45-14.3-3.65-18.49-9.7 3.99-3.1 8.65-4.63 13.52-4.95 6.23-.41 12.5.01 18.74-.2 5.68-.19 11.35-.72 17.02-1.12 1.86-.13 2.73-1.05 2.71-3.04-.02-1.78.16-3.6.55-5.33.78-3.4-.82-4.77-3.88-5.63-8.08-2.29-16.15-1.59-24.31-.66-4.73.54-9.62 1.08-14.29.51-6.65-.81-10.11-5.07-11.19-12.42 5-.79 10.01-1.6 15.03-2.36 6.64-.99 13.26-2.09 19.93-2.84 3.4-.38 6.89.03 10.32-.2 1.65-.11 3.92-.39 4.68-1.46.64-.89-.11-3.32-.95-4.61-2.68-4.12-5.55-8.14-8.62-11.99-3.47-4.34-7.23-8.45-10.87-12.67-1.46-1.69-3.37-3.17-4.29-5.11-1.59-3.35-4.06-3.82-7.18-3.26-1.32.24-2.61.6-3.93.85-3.31.62-5.86 1.82-7.33 5.38-1.42 3.44-3.9 6.3-8.5 5.64-6.09-.88-10.54-7.92-8.23-13.51.46-1.11 1.68-2.02 2.75-2.73 13.47-9.04 26.98-18.02 40.47-27.03 1.01-.67 1.99-1.4 3.12-2.2-3.25-7.01-9.19-10.17-16.12-11.33-3.88-.65-8.03-.23-11.98.28-1.93.25-3.91 1.53-5.49 2.81-4.76 3.85-10.12 5.46-16.09 5.32-1.89-5.69-1.9-5.7 2.49-9.08 13.93-10.71 27.87-21.4 41.81-32.11.79-.6 1.54-1.26 2.06-1.69-6.23-5.2-12.5-10.2-18.49-15.5-7.92-7-12.63-16.01-14.33-26.3-.63-3.8.7-7.93 1.22-11.9.32-2.44.94-4.84 1.2-7.28.47-4.34 1.7-8.14 5.27-11.12 1.22-1.02 1.43-3.24 2.07-4.93.97-2.54 1.44-5.42 2.93-7.6 8.79-12.87 20.47-23.03 31.75-33.58 2.92-2.73 5.07-6.25 7.83-9.17.87-.92 2.64-1.68 3.83-1.49 4.56.74 8.68 2.87 11.22 6.73 7.41 11.26 17.82 19.7 26.87 29.42 8.54 9.18 16.6 18.88 20.65 31.06 3.61 10.83 3.47 21.51-2.16 31.81-2.09 3.82-4.15 7.7-5.79 11.72-1.7 4.18-4.46 7-8.45 8.98-3.9 1.94-7.73 4.06-11.38 6.43-2.11 1.37-4.1 3.16-5.59 5.18-2.1 2.86-1.59 4.34 1.39 6.17 10.97 6.72 22 13.33 32.88 20.18 3.29 2.07 6.32 4.64 9.16 7.31 1.9 1.78 3.25 4.14 4.8 6.18-4.59 4.62-12.96 4.41-18.39-.04-1.9-1.56-3.74-3.24-5.81-4.53-6.04-3.79-18.63-1.97-23.04 3.41-1.27 1.59-1.86 3.74-2.8 5.68zm-4.51 22.14c-1.39-2.02-2.38-4.83-4.35-6.06-4.03-2.51-8.56-4.25-12.96-6.12-.68-.29-1.91.22-2.68.7-5.68 3.57-11.26 7.3-16.98 10.81-1.73 1.07-2.13 2.42-1.27 3.88 1.96 3.33 3.83 6.82 6.4 9.65 3.68 4.04 8.05 7.43 11.92 11.3 3.18 3.19 6.33 3.25 8.73-.54 2.63-4.15 5.18-8.38 7.33-12.78 1.56-3.16 2.41-6.67 3.86-10.84zm-7.75-122.17c.41.06.83.12 1.24.18 4.91-4.37 9.83-8.75 14.74-13.12 4.93-4.38 5.11-4.93 2.56-11.08-.76-1.84-1.65-3.75-2.95-5.22-3.69-4.17-7.54-8.21-11.51-12.11-.81-.8-2.58-1.34-3.61-1.03-1.74.54-3.16 1.66-3.03 4.14.31 6.13.04 12.3.45 18.43.44 6.62 1.39 13.21 2.11 19.81zm-22.85-34.16c-4.98 4.68-9.71 9.11-14.42 13.56-4.49 4.24-4.77 5.59-1.83 11.1.99 1.85 2.22 3.7 3.77 5.08 4.67 4.16 9.54 8.12 14.37 12.09.51.42 1.49.78 1.98.56.5-.22.93-1.2.93-1.84.05-9.73.17-19.46-.07-29.18-.09-4.12-1.05-8.19-4.73-11.37zm-25.4 35.48c-.93 8.24-1.27 15.3 1.13 22.27 3.23 9.39 11.31 12.65 19.6 15.61 3.74 1.33 7.22.48 10.97-2.18-7.25-14.57-18.4-25.45-31.7-35.7zm54.31 74.42c-5.45-4.4-10.27-8.39-15.23-12.19-.73-.56-2.31-.66-3.17-.27-4.97 2.27-9.86 4.73-14.74 7.19-.73.37-1.6.99-1.85 1.69-1.32 3.71.57 8.36 4.24 9.85 4.01 1.63 8.14 3.07 12.33 4.16 1.53.4 3.7.04 5.02-.82 4.47-2.91 8.7-6.2 13.4-9.61zm22.56-75.85c-.46.04-.92.09-1.38.13-6.17 5.52-12.77 10.64-18.35 16.7-3.1 3.37-5.61 8.12-6.38 12.6-1.02 5.93 1.16 7.34 6.17 5.73 12.42-4.01 20.51-14.89 21.86-27.15.29-2.57-1.24-5.33-1.92-8.01z" fill="#010105"/><path d="m50.07 305.58c8.46-4.85 17.37-6.24 26.42-7.18 15.04-1.55 30.1-2.57 45.23-2.04 3.23.11 4.21-1.72 4.09-4.37-.09-1.87-.54-3.79-1.21-5.54-2.34-6.16-3.02-12.55-3.18-19.08-.46-19.24-1.14-38.48-1.54-57.72-.06-3.02-1.17-4.46-3.94-4.47-8.36-.04-16.72.04-25.08.14-5.57.06-11.16.65-16.69.21-4.73-.37-8.62-2.87-10.69-7.72 16.94-10.94 36-9.17 54.92-9.31.08-1.24.17-2.22.19-3.19.32-13.76.97-27.52.78-41.28-.09-6.18-1.81-12.35-2.89-18.5-1.03-5.83-2.05-11.68-3.39-17.44-.35-1.49-1.58-3.25-2.9-3.96-8.48-4.59-17.11-4.69-25.57.13-1.26.72-2.36 1.99-3.12 3.26-2.23 3.74-4.03 7.75-6.44 11.37-1.29 1.95-3.23 3.84-5.31 4.82-5.04 2.37-7.75.84-8.83-4.53-1.59-7.93-.34-15.06 4.87-21.7 18.03-22.97 35.79-46.16 53.66-69.27.68-.88 1.4-1.73 2.37-2.92 6.85 4.92 14.05 9.32 20.22 14.87 3.13 2.81 4.53 7.61 6.49 11.62 7.2 14.75 19.32 25.32 31.02 36.16 4.88 4.52 8 9.46 8.69 16.03.4 3.81-1.67 5.98-5.43 4.86-2.95-.88-6.16-2.06-8.33-4.09-4.49-4.21-9.73-6-15.55-6.03-5.56-.03-11.13.63-16.7 1.03-2.49.18-3.88 1.65-4.89 3.91-3.19 7.16-3.8 14.75-3.37 22.36.63 11.05 1.85 22.06 2.71 33.09.63 8.02 1.08 16.06 1.66 24.79 5.16.72 10.41 1.87 15.71 2.09 7.03.29 14.09-.39 21.13-.15 4.3.14 8.69.8 12.81 2.01 4.52 1.33 7.46 4.67 8.46 9.87-6.57.64-13.01 1.29-19.44 1.9-10.69 1.02-21.39 1.96-32.07 3.06-5.65.58-8.5 3.7-8.43 9.51.05 4.01.73 8.01 1.04 12.03.22 2.77.69 5.6.38 8.33-1.46 13.18-.42 26.11 3.54 38.76 1.95 6.24 2.07 12.55 1.1 18.88-.41 2.65.55 3.75 2.89 4.1 9.16 1.38 18.33 2.75 27.5 4.08 5.19.75 10.48 1.04 15.56 2.26 2.77.67 5.56 2.44 7.66 4.42 2.56 2.41 1.77 4.68-1.53 5.92-9.9 3.71-20.29 4.65-30.7 4.67-13.42.03-26.84-1.07-40.25-.87-14.97.22-29.93 1.28-44.89 2.11-6.81.38-13.61 1.05-20.4 1.7-1.85.18-2.85-.34-3.56-2.11-1.42-3.63-3.11-7.15-4.78-10.88zm97.12-226.79c-4.8-6.02-9.03-11.62-13.61-16.92-1.78-2.06-4.33-3.46-6.59-5.09-2.02-1.46-3.62-1.15-5.43.79-6.18 6.61-12.44 13.16-18.93 19.46-2.56 2.48-2.77 4.78-1.12 7.98 14.96-2.05 29.97-4.09 45.68-6.22z" fill="#010105"/><path d="m48.16 279.71c-1.34-4.8-1.5-8.6 2.09-12.59 4.37-4.86 8.65-10.25 11.26-16.17 5.28-11.94 14.38-19.44 25.52-25.04 2.04-1.03 4.71-1.47 6.99-1.21 6.11.68 8.17 5.52 4.5 10.6-7.22 9.96-14.41 19.95-22.11 29.54-6.2 7.72-15.3 10.99-24.43 13.91-1.16.37-2.36.6-3.82.96z" fill="#010105"/><path d="m53.97 179.11c-.31-.28-.99-.85-1.62-1.46-.14-.13-.1-.43-.2-.63-2.18-4.42-1.9-7.83 2.39-11.38 5.18-4.29 8.68-10.15 10.62-16.76 1.74-5.9 6.06-9.59 11.24-12.24 3.75-1.92 7.75-3.44 11.76-4.78 4.32-1.45 8.88 2.87 7.93 7.37-1.08 5.11-3.33 9.45-7.18 13.28-4.23 4.21-8.5 8.79-11.25 14-4.36 8.26-11.1 11.47-19.7 12.31-1.12.1-2.23.16-3.99.29z" fill="#010105"/><path d="m153.76 228.73c2.41-2.24 4.75-2.45 7.54-.67 15.08 9.65 28.17 21.28 37.06 37.06 1.22 2.16 1.75 4.7 2.6 7.06-.24.36-.49.73-.73 1.09-2.94-.69-6.22-.77-8.76-2.18-6.33-3.49-12.53-7.2-17.15-13.14-2.78-3.58-6.32-6.64-9.78-9.63-5.98-5.16-10.09-11.28-10.78-19.59z" fill="#010105"/></svg>