<svg enable-background="new 0 0 400 400" viewBox="0 0 400 400" xmlns="http://www.w3.org/2000/svg"><g fill="#fafafb"><path d="m12.4 4.8-6.1 9h6v1.2h-8v-.5l6.1-8.9h-5.7v-1.2h7.6v.4z"/><path d="m14 15v-10.6h3c1.6 0 2.9.5 4 1.4s1.6 2.2 1.6 3.8-.5 3-1.6 3.9-2.4 1.5-4 1.5zm1.4-9.4v8.2h1.6c1.3 0 2.4-.4 3.1-1.1s1.1-1.8 1.1-3.1-.4-2.3-1.2-3-1.8-1-3.1-1z"/><path d="m26.1 4.4v10.6h-1.4v-10.6z"/><path d="m36.1 14.6c-.8.4-1.8.6-2.9.6-1.5 0-2.7-.5-3.6-1.4s-1.4-2.2-1.4-3.8c0-1.7.5-3.1 1.5-4.1s2.3-1.6 3.9-1.6c1 0 1.8.1 2.5.4v1.4c-.8-.4-1.6-.6-2.5-.6-1.2 0-2.1.4-2.9 1.2s-1.1 1.8-1.1 3.2c0 1.3.3 2.3 1 3s1.6 1.1 2.7 1.1c1 0 2-.2 2.7-.7v1.3z"/><path d="m37.6 14.3c0-.2.1-.5.3-.6s.4-.3.6-.3c.3 0 .5.1.6.3s.3.4.3.6-.1.4-.3.6-.4.3-.6.3c-.3 0-.5-.1-.6-.3s-.3-.4-.3-.6z"/><path d="m50.2 15h-1.6l-5.3-8.2c-.2-.2-.3-.5-.4-.7 0 .2.1.7.1 1.5v7.4h-1.4v-10.6h1.7l5.2 8.1c.2.4.4.6.4.7 0-.3-.1-.8-.1-1.5v-7.3h1.4z"/><path d="m58.6 15h-5.7v-10.6h5.5v1.2h-4.1v3.4h3.8v1.2h-3.8v3.6h4.3z"/><path d="m67.1 5.6h-3.1v9.4h-1.4v-9.4h-3v-1.2h7.5z"/></g><path d="m262.62 87.87c.61.42 1.61 1.11 2.96 2.03 3.23-4.29 6.49-8.5 9.61-12.81 1.36-1.88 2.59-3.22 5.16-1.89.88.46 2.39-.29 3.26.17 1.3.7 3.25 2 3.22 3-.12 4.2-.99 8.38-1.33 12.59-.12 1.48.47 3.01.76 4.52.06.31.31.61.3.91-.17 5.2-.47 10.4-.53 15.59-.02 2.2.44 4.4.7 6.76-1.25.16-2.32.31-3.6.47.68 4.7-3.44 6.61-5.46 9.78-1.32 2.07-2.03 4.53-3.19 6.72-1.12 2.12-2.3 4.25-3.76 6.13-3.18 4.07-3.11 7.05.64 10.71-.83 1.93-1.97 2.19-4.17 1.75-4-.79-8.13-.98-12.22-1.18-3.84-.18-7.69-.04-12.17-.04.06.42.24 1.68.45 3.22-2.17.25-4.4 2.06-6.96-1.07-1.83-2.24-4.91-2.89-8.28-2.36-6.71 1.06-13.57 2.21-19.63-2.65-.9-.72-2.66-.38-4.53-.59-1.65-.48-3.83-1.55-6.07-1.66-2.93-.16-4.63-1.64-6.38-3.69-3.34-3.95-6.92-7.7-10.39-11.54-.24.2-.48.4-.72.6.3-.93.6-1.86.9-2.77-3.86-1.73-4.22-3.31-1.96-7.06.36-.59.45-1.89.06-2.29-1.65-1.71-1.27-3.32-.41-5.21.37-.81-.03-1.95-.02-2.94.01-.88.11-1.75.21-3.17-5.02-.59-8.86-3.81-11.76-8.03-2.43 1.81-4.56 3.41-6.95 5.2-.54-.67-1.32-1.65-1.85-2.31-2.4.56-4.58 1.11-6.79 1.57-2.6.54-4.7 1.7-5.15 4.52-.33 2.08-.39 4.21-.45 6.31-.11 4.04.69 7.9-.33 12.17-.9 3.8-1.59 8.4.35 12.71.91 2.02.43 4.69.44 7.07.01 2.68-.09 5.36-.24 8.03-.1 1.88-.45 3.75-.54 5.64-.1 1.86-.02 3.73-.07 5.63-.07 1.99-.24 3.98-.19 5.97.2 7.48.64 14.96.63 22.44 0 3.12-1.68 6.36-1.2 9.33.84 5.14 2.76 10.11 4.19 15.03 3.9-.69 6.63-.42 8.68 2.5.29.41 2.37.03 3.25-.55 3.65-2.43 3.59-2.51 6.86-1.29.6-.71 1.23-1.47 1.87-2.22 2.31 2.41 5.16 2.51 7.37.06 2.24-2.48 4.37-5.08 6.29-7.81.94-1.33 2.55-2.73.54-4.88-.61-.65.66-3.05.88-3.9-.12-2.14-.11-3.65-.31-5.14-.17-1.26-.22-2.82-.97-3.68-2.8-3.19-5.85-6.17-8.86-9.18-2.51-2.52-5.38-4.77-4.5-9.05.14-.68-.84-1.68-1.45-2.41-1.39-1.69-2.94-3.28-.84-5.5.19-.2.29-.62.25-.91-.45-3.5-.33-7.24-1.58-10.43-1.46-3.7-.16-6.4 1.32-9.5 1.3.91 2.55 1.68 3.66 2.59 1.74 1.44 2.07 3.14 1.33 5.39-.5 1.5-.62 3.46-.09 4.92 1.44 3.92 2.13 8.27 5.68 11.2.53.43.45 1.63.59 2.49.24 1.43.24 2.93.68 4.29.96 2.96 4.19 3.74 7.47 1.29-.53 1.62-.86 2.61-1.18 3.6 4.06.68 5.15-.73 5.94-8.06 4.86 2.13 6.95-1.19 8.2-3.75 5.3.21 9.89.66 14.46.46 2.58-.11 4.86-.46 6.65 1.86.39.5 1.04.99 1.65 1.11 5.84 1.1 11.71 1.68 17.35-.8.67-.29.86-1.69 1.41-2.86.84.35 1.8.74 2.76 1.14 4.15-3.44 8.89-4.17 14.19-3.47 2.73-1.18 5.76-2.49 8.92-3.85-.3-.7-.68-1.6-1.05-2.45 1.39-.41 2.7-.8 4.46-1.32 4.75 4.07 5.81 14.24 1.69 20.36-.5.74-.28 1.95-.44 2.94-.15.94-.05 2.15-.6 2.75-2.08 2.3-2.63 4.47-2 7.79.68 3.6-.26 7.56-.75 11.32-.81 6.13-1.13 12.2.02 18.36.4 2.15-.51 4.54-.8 6.83-.1.82-.23 1.65-.17 2.47.14 1.85.68 3.73.52 5.55-.24 2.85.56 4.75 3.35 5.76 2.91 1.05 4.97 3.05 5.62 6.16.24 1.17.27 2.48.01 3.63-.74 3.23-2.55 4-5.64 2.41-1.67 3.33-3.24 2.33-5.05-.08-3.15-4.21-6.55-8.24-9.72-12.43-1.58-2.09-3.21-2.77-5.76-1.65-1.38.61-3.1.46-5.19.72-3.27 8.52-5.07 17.46-.65 27.1 1.6 3.48.89 8.05 1.08 12.14.08 1.84-.14 3.71-.35 5.55-.23 2.03-.58 4.05-.92 6.07-.07.42-.59.94-.46 1.2 1.75 3.69-1.3 6.28-2.18 9.41 5.94 4.4 3.43 10.77 3.27 16.25-.07 2.39-3.49 4.68-5.38 7.02-.25-.19-.5-.37-.75-.56.57-.98 1.15-1.96 1.89-3.24-1.46-.32-2.8-.62-4.44-.99.51-1.1.95-2.04 1.43-3.05-.79-.51-1.53-.99-2.21-1.43-.08-.29-.21-.51-.18-.71.75-4.37.59-8.66-1.11-12.83-.19-.47-.36-1.22-.13-1.57 2.24-3.41.36-6.69-.22-10.01-.11-.61-.41-1.38-.16-1.83 2.74-4.98 1.18-9.01-3.07-12.86.96-.1 1.55-.27 2.09-.19 2.17.35 2.9 0 2.04-2.49-.7-2.03-.58-4.36-.71-6.56-.2-3.54-.35-7.08-.41-10.63-.01-.73.32-1.57.76-2.17 1.83-2.51 1.44-7.48-.23-9.09.24-4.15 1.32-7.98.36-11.21-.73-2.47-4.05-4.17-6.17-6.17-4.89 3.84-9.23 9.68-8.99 11.96-.93.33-1.86.67-2.76.99-.25 4.52-5.98 11.05-10.12 11.61.98 5.32-3.51 7.06-6.63 9.24-2.34 1.64-5.6 1.97-8.89 3.03 1.06-4.86 1.88-9.09 5.44-12.56 5.52-5.38 10.59-11.22 15.95-16.98-.44-.96-.86-1.84-1.44-3.1 1.07.07 1.91.29 2.68.13.62-.13 1.14-.73 1.71-1.11-2.11-2.18.84-2.76 1.25-4.13.92-3.03 1.6-6.15 2.17-9.27.04-.24-1.82-1.34-2.26-1.09-2.25 1.29-3.43-.24-5.03-1.28-1.37-.9-3.08-1.5-4.71-1.73-4.22-.6-8.48-.93-12.35-1.33-1.9 2.68-3.85 5.95-6.31 8.77-2.64 3.02-6.08 5.37-8.6 8.47-2.44 3-5.62 2.19-8.13 1.76-4.63-.79-5.35-1.03-7.95 2.62-.32.45-.66.89-1.12 1.52-4.62-3.98-7.65 3.37-13.1.78 3.19 4.81-.52 6.85-2.16 9.81.87.57 1.66 1.09 2.78 1.83-.89 1.59-1.78 3.19-2.76 4.96.52.8 1.18 1.82 1.91 2.95-.66.81-1.27 1.56-1.71 2.1 1.77 5.11 3.69 9.92 2.67 15.27-.08.43-.16.93-.04 1.33 1.42 4.8 1.74 9.56.23 14.45-.27.89.79 2.19 1.26 3.36-1.59 2.48-.3 8.04 2.27 9.45-1.42 5.07-.41 6.92 3.51 10.55 4.93 4.57 10 7.05 15.64 3.84 2.48 2.12 4.54 3.58 6.21 5.4 1.15 1.25 2.51 3.1 2.34 4.5-.13 1.02-2.51 2.03-4.06 2.55-2.15.72-4.47.96-7.05 1.48-2-2.04-7.36-1.95-11.43.72-.95-.66-1.94-1.34-3-2.07-1.55 1.27-3 2.46-4.51 3.7-.55-3.34-2.04-3.19-6.21.22-4.45.34-8.17-2.55-12.49-1.1-.71.24-1.82-.73-3.04-1.28-.73.77-1.71 1.8-2.86 3.02-2.02-1.72-4.02-1.97-5.38 1.17-1.24-1.49-2.16-2.58-3.77-4.51-.75 1.49-1.39 2.77-2.04 4.06-.44-.34-.88-.69-1.32-1.03.83-1.31 1.66-2.62 2.49-3.94-.1-.2-.2-.4-.3-.61-1.47.74-2.94 1.49-5.3 2.68 1.1-1.83 1.81-3.01 2.6-4.32-1.25 0-2.44 0-3.91 0 2.14-1.98 4.05-3.74 6.08-5.62.67 1.3 1.4 2.74 2.38 4.66 1.21-1.53 2.24-2.84 2.65-3.36 5.15 0 9.39.19 13.59-.17.77-.07 1.35-2.41 2.23-4.12.9.58 1.92 1.24 3.61 2.34-.51-1.78-.88-3.09-1.3-4.58.99-1.04 2.5-2.48 3.85-4.08 1.61-1.91 1.54-3.68-1.24-4.88.84-1.08 1.48-1.91 2.31-2.98-4.02-.11-4.06-2.72-4.11-5.63-.07-3.74-.72-7.48-.73-11.21 0-2.14.78-4.29 1.21-6.43.09-.43.31-.86.26-1.27-.37-3.21-.84-6.41-1.17-9.63-.06-.62.34-1.3.58-1.93.15-.38.64-.76.58-1.08-.45-2.6-.72-5.28-1.58-7.75-1.54-4.41-3.85-8.43-1.38-13.48 2.26-4.62-.77-9.87-5.77-11.3-4.87-1.4-7.84-1.08-10.64 1.39-1.94-2.04-3.91-4.1-5.18-5.44-3.29.66-5.96 1.2-8.9 1.79-.14-1.51-.25-2.69-.39-4.2-.67.34-1.21.61-1.65.83-1.8-2.75-3.59-5.51-5.38-8.26.31-.4.63-.8.94-1.2 1.44.56 2.88 1.11 4.83 1.86-.5-1.13-.86-1.93-1.22-2.74 1.83-.33 3.73-.67 6.18-1.12-.38 1.24-.71 2.31-1.31 4.25 1.63-.7 2.73-1.18 4.05-1.75.75 1.02 1.55 2.35 2.6 3.45 1.58 1.67 3.2 3.27 5.6.8.54-.55 2.12-.08 3.54-.08.09-.69.23-1.71.26-1.98 2.04-.91 3.91-1.35 5.26-2.44 1.81-1.45 3.15-3.48 4.83-5.11 1.41-1.36 2.34-2.66 1.12-4.59-.17-.27-.39-.82-.29-.91 3.98-3.61.2-8.23 1.6-12.17.64-1.79 1.1-3.65 1.87-6.25-2.46-2.35-2.31-6.08-1.75-10.12.3-2.17-.66-4.51-1.08-6.96 2.67-1.52 1.56-3.41.5-4.58.28-2.23.48-3.77.67-5.31-1.42-.08-2.85-.16-4.28-.24.35-.57 1.07-1.74 1.94-3.15-.66-.58-1.36-1.19-2.24-1.95 1.12-1.35 2.23-2.67 3.56-4.27-1.27-.18-2.19-.31-3.36-.48.49-3.48 1.19-6.77 1.34-10.09.11-2.33-.79-4.7-.77-7.04.02-2.45.64-4.9.91-7.36.1-.89.14-1.86-.1-2.71-1.14-4.07-2.71-8.13.9-12.1-4.92-2.12-6.66-8.58-13.24-8.4.45-1.24.76-2.09 1.16-3.17-1.25.19-2.31.36-3.5.54-.34-1.64-.54-3.19-.98-4.65-.56-1.83-.01-2.93 1.7-3.74 1.76-.84 5.78-1.3 7.91-1.31 2.41-.01 4.82-.61 8.12-1.08 2.7 2.6 5.38-.31 8.12-2.32 4.24-3.12 2.72-7.3 2.05-11.29-5.61-1.15-6.33-2.87-3.27-8.71-1.59.72-2.76 1.24-3.68 1.66-.41-2.22-.25-4.64-1.33-6.22-1.17-1.72-3.49-2.65-5.38-3.98-3.78 3.16-7.72 5.78-9.54 10.67-.81 2.15-3.08 3.76-5.33 6.35.13 3.96-4.81 8.14-2.51 13.99.29.06 1.34.29 3.46.75-3.17 1.58-5.41 2.91-7.82 3.83-2.68 1.03-4.74 2.4-5.42 5.39-.09.41-.9.66-.84.62-1.85 3.1-3.46 5.74-5.01 8.41-1.24 2.12-2.41 4.28-3.8 6.74-3.01-1.35-4.52.98-5.52 4.22-1.43 4.67-3.7 8.8-7.56 12-.79.66-.92 2.11-1.59 3.79-1.43.32-3.54.79-5.65 1.26-.16-.37-.32-.74-.48-1.1.99-1.12 1.98-2.25 3.17-3.6-.75-.51-1.48-1-2.2-1.49 2.07-2.36 4.03-4.58 5.92-6.87.06-.07-.65-.78-1.01-1.2 3.88-1.27 11.15-13.59 11.1-19.19 1.42-.53 3.03-1.01 4.51-1.76.55-.28 1.21-1.62 1.09-1.74-2.32-2.34.27-3.52 1.18-4.98 1.13-1.82 3.37-3.25 1.17-5.89h8.91c-1.66-1.5-3.39-2.42-4.12-3.85-1.45-2.87-1.16-5.54 1.57-8.01 2.89-2.61 5.27-5.78 7.4-8.16 0-2.45 0-4.3 0-6.43 4.31.01 5.04-2.43 4.37-5.77-.4-1.97.3-3.17 2.18-3.89 1.13-.43 2.16-1.14 3.23-1.73-.26-.21-.51-.43-.77-.64 2.09-2.95 4.18-5.9 6.27-8.85-.3-.24-.6-.47-.9-.71 2.38-1.44 4.76-2.87 7.58-4.57.54 1.67.92 3.14 1.51 4.52.31.73 1.02 1.87 1.51 1.85 4.03-.15 3.36 2.64 2.84 4.8-.62 2.59-.46 4.41 2.69 4.94-.7 1.31-1.27 2.38-1.84 3.44.22-.01.44-.03.65-.04.3 1.6.9 3.21.85 4.8-.12 3.47 2.03 5.49 4.18 7.65 2.21 2.22 4.27 4.58 6.73 7.26-.31.13.24-.1.78-.34 2.7 5.53 6.04 8.86 8.23 8.07 1.15 3.11 1.96 6.6 6.38 6.68.36.01.69 1.39 1.06 2.19 5.26.8 10.53 1.02 13.97-4.45 1.72-2.73 1.61-3.97.18-6.06.31-3.82.36-6.87.88-9.83.36-2.05.91-4.38 2.19-5.9 2.58-3.05 5.72-5.63 8.81-8.58 4.12 4.76 8.24 9.32 12.08 14.1.72.89.35 2.65.5 4.24h3.26c3.25 7.71 8.71 13.71 16.13 18.66-.13-1.18-.23-2.04-.23-2.09 1.79-1.28 4.44-2.18 4.88-3.72.78-2.74 2.55-5.95-.7-8.8-1.29-1.13-1.64-3.34-2.53-5.29.41-.49 1.03-1.23 1.75-2.11-.94-.84-1.76-1.56-2.71-2.4.8-1.1 1.57-2.15 2.34-3.2-.34-.01-.68-.02-1.03-.03 0-5.83 0-11.66 0-17.76-1.08.1-1.74.17-2.92.28.94-4.22 1.8-8.11 2.76-12.4-.69.18-1.96.51-3.69.95.8-1.22 1.47-2.24 2.27-3.45-.4-.61-.89-1.35-1.38-2.09.16-.18.32-.37.48-.55.74.45 1.47.9 2.59 1.58-.07-1.06.23-2.27-.23-2.71-2.21-2.13-1.58-3.53 1.25-4.7-1.74-1.86-3.3-3.53-5.45-5.83 4.48 0 8.23-.32 11.89.1 3.37.39 3.38 3.4 3.37 6.03-.02 7.82.03 15.63-.19 23.44-.11 3.8 1.42 7.82-1.17 11.4-.15.21.01.64.03.97.41 5.1.94 10.19 1.21 15.29.32 5.91 3.06 9.7 8.23 10.73.75.15 1.66-.1 2.4-.41 1.97-.81 3.96-1.63 5.79-2.7.98-.62 1.64-1.74 2.61-2.8zm-13.41 120.12c.1.39.2.77.31 1.16 1.94-.42 3.89-.83 5.83-1.27 2.09-.48 4.77-.34 6.13-1.61 3.25-3.05 3.57-12.63.73-17.7 1.05-.79 2.69-1.5 3.43-2.74.72-1.21 1.09-3.21.57-4.42-.69-1.6-7.93-2.84-9.77-2.31-3.43.98-6.87 2.02-10.38 2.64-3.38.6-7.13 1.66-10.2.76-2.71-.8-4.3-.11-6.32 1.12-.89-.74-1.72-1.43-2.55-2.12-1.41.67-3.13 1.09-3.85.43-4.68-4.31-9.41-1.06-14.11-.37-1.4.2-2.78.55-4.5.9-.76 1.56-1.28 4.26-2.91 5.62-2.98 2.47-3.22 5.64-3.77 8.89-.95 5.66.24 7.71 5.77 9.39 4.55 1.38 9.13 2.68 13.77 3.71 1.25.28 2.76-.57 4.15-.91 1.22.07 2.45-.18 3.69-.22.79-.03 1.6.24 2.39.4.88.17 1.75.38 2.62.57 1.19.26 2.39.46 3.56.8.84.24 1.78 1.12 2.41.91 4.3-1.4 9.69 1.46 13-3.63zm-20.88-78.82c-5.9-1.88-11.3-4.15-14.36-8.63-2.42.31-4.26 1.08-5.66.59-1.51-.53-2.61-2.24-3.96-3.5-.9.63-1.81 1.27-2.78 1.95-1.1-.93-2.18-1.84-3.22-2.72-7.87 5.41-7.97 11.75-.41 17.23-.32.87-.64 1.74-.94 2.56 4.06 2.96 6.88 7.43 12.38 7.65.57.02 1.07.78 1.67 1.06.56.26 1.21.51 1.8.49 3.59-.13 7.48 1 10.3-2.54.33-.41 1.5-.15 2.28-.22 1.53-.12 3.05-.25 4.64-.38.33-1.9.62-3.54.93-5.26.85-.34 1.74-.69 2.21-.87-1.75-2.64-3.42-5.18-4.88-7.41zm-12.65-14.2c4.78-2.53 5.3-3.17 4.04-7.82-.61-2.25-2.13-4.34-3.54-6.27-2.35-3.22-6.34-5.53-5.3-10.5.12-.59-.62-1.37-.98-2.1-.98.53-1.84.99-3.48 1.86.88-1.51 1.28-2.19 1.99-3.42-3.49-1.42-6.67-2.72-9.49-3.87-1.6 2.28-2.98 4.24-4.67 6.65-.32.1-1.35.41-2.88.87.68 2.75.6 5.83 2.06 7.71 3.9 5 8.47 9.48 12.77 14.16.3-.26.61-.52.91-.78.82-.56 1.64-1.12 2.52-1.73 1.06.92 2.08 1.79 3.08 2.66s2.01 1.74 2.97 2.58zm54.82-.03c6.25-3.41 6.48-3.84 5.57-10.51-.1-.77-.18-1.57-.43-2.3-1.18-3.53-4.39-4.97-7.84-3.88-1.09.34-2.45-.18-3.68-.3-.3-.03-.59-.07-.89-.1-.13 1.05-.24 2.01-.42 3.46-6.49-2.31-11.67.74-13.47 5.9-1.52 4.35-.05 10.01 5.29 12.98 1.1-.57 2.27-1.16 3.4-1.74 5.4 4.22 5.4 4.22 11.3.43.75-.48 1.46-1.01 2.23-1.54-.38-.86-.73-1.64-1.06-2.4zm-117.05 214.81c.17-.34.35-.69.52-1.03-1.53-1.15-3.05-2.3-4.76-3.58 1.97-1.32 3.79-2.54 5.68-3.8-2.89-.85-5.83-1.71-9.28-2.72 1.13 1.76 2.58 3.02 2.62 4.33.04 1.34-1.29 2.71-2.02 4.07 1.4.25 2.89.33 4.23.81 1.08.4 2 1.27 3.01 1.92zm100.87-192.21c1.94-1.45 3.67-2.74 5.18-3.87-1.67-1.69-3.12-3.16-4.75-4.81-1.25 1.45-2.54 2.95-3.89 4.52 1.18 1.41 2.23 2.68 3.46 4.16zm-114.25-25.95c.52-1.06 1.14-2.33 1.75-3.55-3.42-2.51-3.66-4.29-1.15-8.52-.8-.26-1.56-.51-2.24-.73-.5 3.49-.96 6.71-1.41 9.9.66.63 1.75 1.66 3.05 2.9zm-13.34-52.39c4.59.52 8.3.95 12.59 1.44-1.38-1.92-2.39-3.32-3.21-4.46-3.05.98-5.76 1.85-9.38 3.02zm15.05 180.17c.97.87 1.86 1.66 2.81 2.51 1.88-1.86 4.5-3.45 1.98-7.07-1.68 1.6-3.24 3.08-4.79 4.56zm-.64-16.96c-.12-.31-.23-.61-.35-.92-2.38 1.04-4.76 2.07-7.17 3.12 2.1 2.3 3.56 1.88 7.52-2.2zm-3.71 104.21c-.15.24-.29.47-.44.71 1.18.84 2.32 1.73 3.56 2.45.21.12.83-.47 1.07-.62-.25-1.01-.44-1.79-.63-2.54-1.19 0-2.38 0-3.56 0z" fill="#010105"/><path d="m240.7 338.75c.34-.18 1.19-.64 2.18-1.18-.86-1.27-1.66-2.46-2.22-3.29 1.42-2.26 2.72-4.32 4.15-6.6 1.6 2.25 3.69 4.4 4.76 6.98.77 1.87.08 4.3.25 6.47.09 1.09.52 2.21 1.02 3.19.27.52 1.24.67 1.55 1.19 2.68 4.42 6.61 7.04 11.43 8.74 1.03.36 1.43 2.53 2.33 4.28.71-.33 2.16-.99 3.74-1.72.43.88.62 2.04 1.24 2.34 1.05.52 2.36.61 3.57.68 1.17.07 2.38-.25 3.54-.11.56.06 1.25 1.25 1.52 1.13 4.04-1.84 4.23 2.2 5.82 3.86 2.66 2.77 6.19 3.15 9.53.58.67.45 1.39.94 2.28 1.54.87-.48 1.83-1 2.91-1.6 5.15 4.12 11.04-.77 16.73 1.67-.27 1.22-.61 2.81-.97 4.44-4.37 1.3-8.66 2.58-13.35 3.97 0-1.82 0-2.99 0-4.54-1.12.58-1.93 1-2.89 1.5-.5-1.08-.95-2.05-1.48-3.18-1.14 1.07-2.17 2.04-3.36 3.17-.23-1.56-.42-2.83-.66-4.39-4.65 3.66-4.64 3.64-9.65.58-.53-.33-1.52-.75-1.8-.52-2.47 2.03-3.81-.32-5.53-1.38-1.12.51-2.23 1.02-3.66 1.68.22-1.04.39-1.82.49-2.29-4.06-1.18-8.82.65-12.16-3.49.53-.63 1.06-1.27 1.87-2.25-3.11-.48-5.88-.91-9.21-1.43-.03-.07-.35-.87-.41-1.02-5.61-.18-3.42-5.59-5.76-7.56-.36.11-.86.27-1.06.33-.39-1.5-.76-2.97-1.25-4.85-1.19.86-1.87 1.35-2.35 1.71-.97-2.69-1.96-5.39-3.14-8.63z" fill="#010105"/><path d="m104.59 191.77c-.77-.33-1.61-.7-1.76-.76-2.74 1.57-5.09 2.92-7.42 4.26-3.58-2.4-1.61-6.04-2.05-9.02-.37-2.73 6.26 2.31 3.55-3.23 3.61-.54 3.78-.89 1.53-3.78 1.4-2.36 6.71-2.14 4.29-7.08 3.21.02 4.9-.59 3.49-4.2-.46-1.17 1.19-3.45 2.31-4.89 1.29-1.65 3.05-2.93 4.56-4.33-2.47-3.6-1.94-7.04 1.23-9.22-.44-.46-.87-.91-1.29-1.36 1.77-2.47 3.32-5.44 6.88-2.11.47-.8.78-1.34 1.08-1.84 4.49 1.25 3.53 5.46 4.8 8.66-1.82.91-5.29.71-3.33 4.44.13.25-.9 1.17-1.45 1.72-1.58 1.59-3.15 3.06-2.42 5.76.22.8-.75 1.97-1.28 2.91-1.54 2.74-4.54 4.74-4.12 8.5.06.56-.83 1.22-1.29 1.83-2.15 2.83-4.49 5.54-6.37 8.53-.78 1.25-.59 3.09-.94 5.21z" fill="#010105"/><path d="m178.15 253.78c1.8 2.74 2.8 7.34 7.77 9.21-.14.37-.43 1.1-.71 1.82l.61-.61c1.19 1.59 2.5 3.12 3.55 4.8 1.26 2.02 2.8 3.64 1.99 6.8-.57 2.2 1.53 5.08 2.78 8.62-2.6 1.1-6.13 2.59-9.83 4.16-1.79-3.57.24-9.27-6.72-7.55.89-1.38 1.39-2.16 1.96-3.05-2.63-2.81-5.15-5.65-7.83-8.31-1.8-1.79-3.14-3.49-1.39-6.72-1.33.17-2.67.34-3.88.5-.79-4.67 1.61-8.11 5.06-10.97 1.92.37 3.85.75 6.64 1.3z" fill="#010105"/><path d="m98.57 284.64c1.43-3.05 2.6-5.53 3.95-8.41.3.02 1.36.11 2.72.21 0-1.16-.09-2.27.03-3.35.08-.7.4-1.91.75-1.96 4.57-.67 4.97-4.95 7.23-7.84-.97-.66-1.77-1.21-2.82-1.93 1.57-2.4 3.1-4.74 4.69-7.17.62.05 1.43 0 2.16.19 1.61.43 4.22.61 4.56 1.56.79 2.2 1.94 4.94-.56 7.13-.48.42-.96 1.06-1.07 1.67-.74 3.83-2.31 7.01-5.65 9.38-.87.61-.94 2.65-1 4.05-.29 6.62-4.74 9.92-9.97 13.02-1.86-2.43-3.61-4.72-5.02-6.55z" fill="#010105"/></svg>