<svg enable-background="new 0 0 400 400" viewBox="0 0 400 400" xmlns="http://www.w3.org/2000/svg"><g fill="#010102"><path d="m237.7 327.66c-8.31-6.58-16.72-13.24-25.3-20.04-1.7 3.89-3.39 7.42-4.72 11.07-.32.89.21 2.59.95 3.27 3.79 3.48 7.83 6.68 11.67 10.11 3.36 3 5.4 6.73 5.59 11.28-4.01 1.9-7.33.92-11.05-2.97-3.25-3.39-6.6-6.69-9.88-10.05-4.4-4.51-9.46-4.73-14.74-2.01-4.17 2.15-8.15 4.66-12.22 7.01-.75.43-1.53.83-2.3 1.24-2.01-4.4-.07-7.66 5.48-13.29 3.44-3.49 7.38-6.53 11.33-9.47 6.36-4.73 9.98-11.03 11.54-18.65 1.12-5.48 2.11-10.98 3.34-16.43.46-2.03-.05-2.99-2.01-3.74-9.72-3.73-19.74-6.2-30.15-5.53-15.18.96-22.3-5.39-26.75-19.5-2.81-8.91-3.46-18.06-.16-27.29 2.04-5.7 4-11.06 8.26-15.73 5.04-5.52 8.92-12.06 10.69-19.53.38-1.58.42-3.24.62-4.9-6.26-1.62-11.63.29-16.91 2.49-.83.34-1.48 1.36-1.97 2.21-3.66 6.27-7.16 12.64-10.9 18.86-2.18 3.62-4.37 7.34-7.23 10.39-2.09 2.24-5.26 3.47-7.95 5.14-.32-.26-.63-.51-.95-.77.37-2.24.39-4.61 1.16-6.7 4.3-11.62 8.7-23.2 13.31-34.7.6-1.49 2.46-3.12 4.01-3.45 5.31-1.15 10.72-2.08 16.14-2.5 6.74-.52 10.35-4.06 10.28-11.34-5.18.72-10.32 1.47-15.47 2.13-4.77.61-9.54 1.29-14.33 1.64-5.38.38-9.21-2.2-11.57-6.98-3.55-7.18-2.64-14.56-.7-21.91.54-2.05 4.38-2.69 6.05-1.25 4.22 3.64 7.69 7.87 9.48 13.18 1.38 4.11 4.5 5.79 8.18 5.48 6.08-.51 12.11-1.76 18.13-2.91.74-.14 1.52-1.51 1.77-2.44 1.57-5.83 3.13-11.66 4.39-17.56.52-2.44 1.73-3.86 3.96-4.39 4.67-1.1 9.33-2.4 14.07-2.97 8.64-1.06 17.33-1.69 26.01-2.39 1.29-.1 2.71.19 3.94.64 3.4 1.25 4.14 5.03 1.53 7.68-4.1 4.17-8.49 8.15-7.89 15.52 4.08-.24 8.27-.29 12.4-.77 4.32-.5 8.6-1.46 12.9-2.15 6.87-1.11 9.99 1.96 9.11 8.88-.01.11-.03.22-.05.33-.67 6.25-3.03 10.84-10 12.23-5.23 1.04-10.32 2.89-15.39 4.62-2.29.78-4.61 1.86-6.49 3.34-3.19 2.52-2.92 5.62.46 7.89 12.71 8.55 24.21 18.49 33.69 30.55 8.47 10.78 9.8 22.97 5.77 35.86-.34 1.1-1.28 2.05-2.05 2.98-7.01 8.42-15.67 14.51-25.9 18.43-1.77.68-3.42 1.65-5.11 2.51-.16.08-.22.35-.44.75 1.06.56 2.08 1.16 3.14 1.66 12.61 6.02 25.25 11.98 37.82 18.08 1.4.68 2.74 1.91 3.59 3.22 2.91 4.51 5.67 9.12 8.35 13.77 4.66 8.07 5.66 16.13.98 24.79-6.11 11.31-11.59 22.94-20.44 32.54-3.65 3.96-7.16 7.94-13.25 9.44 1.74-6.09 2.31-11.78 5.85-17.15 5.95-9 10.62-18.86 15.75-28.39 1.7-3.15 1.06-6.07-.19-9.51-4.06-11.2-11.63-18.81-21.73-24.73-6.71-3.93-13.14-8.08-21.07-8.95-.75-.08-1.51-.09-2.09-.12-.27.25-.39.3-.43.4-3.09 9.2-3.06 9.17 4.21 15.47 3.63 3.15 7.29 6.3 10.67 9.71 3.29 3.33 5.17 7.46 5.89 12.16.37 2.37-.29 3.64-2.68 4.21zm-66.42-70.96c-.05.31-.11.62-.16.93 1.79.58 3.55 1.47 5.39 1.69 20.3 2.39 39.87-.77 58.94-7.84 6.52-2.42 10.85-6.39 11.11-13.77.02-.55.24-1.09.39-1.63 1.98-7.49.21-14.09-4.49-20.14-7.49-9.63-16.42-17.81-26.28-24.82-5.76-4.1-12.37-7.04-18.66-10.38-3.32-1.76-6.37-.84-9.37 1.18-8.88 5.98-14.42 15.06-20.25 23.47-5.19 7.5-8.05 16.65-11.73 25.16-2.68 6.19-2.59 12.37.95 18.35 1.11 1.87 2.26 2.25 4.35 1.55 11.97-4.03 23.98-7.92 35.98-11.86 3.37-1.1 4.7-3.8 3.88-7.92-.66-3.29-3.21-2.88-5.55-2.81-3.58.11-7.03-.18-10.53-2.66 7.6-8.86 8.3-19.88 10.42-31.47 2.88 2.55 5.36 4.41 7.41 6.65 3.39 3.72 6.48 7.71 9.75 11.54 3.44 4.03 3.4 8.79.07 12.94-.77.96-1.32 2.59-1.12 3.76.98 5.64 3.9 7.22 9.4 5.41 1.59-.53 3.16-1.14 4.78-1.58 4.63-1.24 9.22-1.26 13.66.65-.12 4.62-1.67 6.49-5.78 7.46-11.41 2.69-22.84 5.28-34.19 8.19-9.5 2.44-18.91 5.28-28.37 7.95zm8.87-87.4c6.62.29 12.75-.21 18.33-3.47 1.09-.64 2.6-2.27 2.41-3.08-.46-1.89-1.46-4.06-2.95-5.17-1.31-.97-3.63-1.03-5.42-.82-3.41.4-6.8 1.16-10.13 2.05-.88.23-2.04 1.42-2.13 2.26-.28 2.62-.11 5.29-.11 8.23zm3.28-20.3c5.28-.97 10.6-2.16 15.98-2.87 3.21-.42 3.07-2.19 2.64-4.44-.49-2.57-3.09-4.83-5.08-4.13-3.98 1.4-8 2.8-11.78 4.66-3.67 1.81-3.68 2.55-1.76 6.78zm29.11 9.06c1.38.92 2.22 1.96 2.93 1.88 5.44-.62 10.85-1.46 16.97-2.33-6.76-3.44-9.56-3.37-19.9.45z"/><path d="m250.78 117.68c-3.28.8-5.7.21-8.09-2.46-5.29-5.91-11.69-8.48-19.88-5.99-6.93 2.1-13.23-.35-18.82-4.58-.7-.53-1.12-1.59-1.38-2.49-5.15-18.23-5.18-36.89-4.46-55.59.28-7.24 2.63-13.97 6.88-21.52 2.99 2.08 5.84 4.36 8.96 6.16 8.34 4.82 16.96 6.83 26.06 1.83 3.42-1.88 7.07-2.72 10.36.04 3.4 2.85 4.61 6.9 3.07 10.94-4.69 12.33-4.24 25.3-4.98 38.07-.29 4.99 1.21 10.13 2.24 15.13 1.42 6.86 2.1 13.66.04 20.46zm-40.47-40.12c-2.01 6.07-2.19 11.99.31 17.98 1.03 2.48 2.63 3.6 5.19 3.96 6.87.95 13.35-.24 19.53-3.25 5.78-2.82 6.13-3.56 4.8-9.8-1.15-5.37-3.69-8.55-8.3-8.79-7.12-.38-14.27-.1-21.53-.1zm27.94-17.37c.05 0 .11-.01.16-.01-.2-2.33-.44-4.65-.6-6.99-.28-4.21-2.66-6.57-6.66-7.13-3.63-.51-7.32-.71-10.99-.9-.79-.04-1.71.39-2.41.85-4.64 3-7.66 6.9-7.03 12.85.15 1.42-.38 2.94-.13 4.33.18 1.04.93 2.6 1.72 2.81 5.37 1.43 10.76 3.05 16.25 3.67 7.28.83 9.6-1.63 9.69-8.8 0-.23 0-.46 0-.68z"/><path d="m129.45 122.29c-2.5-13.21-4.94-26.05-7.35-38.9-2.57-13.73-5.1-27.47-7.67-41.21-.8-4.27 2.6-7.61 6.25-5.43 9.15 5.45 17.05 1.33 25.02-2.44 5.34-2.53 10.38-5.7 15.66-8.37 1.1-.56 2.8-.59 4-.19 3.28 1.08 6.46 2.5 9.66 3.81 3.27 1.33 4.95 3.95 3.21 6.83-6.04 9.99-3.98 20.7-3.77 31.36.11 5.53.15 11.44-1.62 16.54-2.05 5.9-5.13 11.79-11.93 14.38-6.89 2.63-13.52 5.89-20.38 8.6-3.64 1.44-5.32 4.26-5.62 7.63-.31 3.67-2.09 5.71-5.46 7.39zm1.08-55.09c9.26-3.53 18.02-6.87 26.77-10.21 5.28-2.01 7.2-5.28 6.34-10.81-.53-3.46-4.25-7-7.07-6.31-9.84 2.41-19.22 5.94-27.2 12.43-.76.62-1.38 2.1-1.23 3.05.6 3.84 1.51 7.63 2.39 11.85zm2.81 19.71c.47 2.18.78 4.4 1.46 6.51.73 2.28 1.95 3.41 4.74 2.09 6.56-3.12 13.29-5.86 19.92-8.84.94-.42 2.2-1.16 2.42-2 .83-3.11 1.66-6.3 1.79-9.49.14-3.46-4.34-6.7-7.5-5.7-6.85 2.17-13.33 5.03-19.05 9.61-2.7 2.16-3.69 4.58-3.78 7.82z"/></g><path d="m6.4 11.7c-1-.8-1.9-1.6-2.9-2.3l.6-.7c.9.7 1.9 1.4 2.9 2.2zm-2.1 8.3c.7-2.1 1.4-4.2 2-6.4.2.1.6.3 1 .4-.7 2.3-1.3 4.4-1.9 6.4zm3-12.8c-1.1-.9-2.1-1.7-2.9-2.4l.6-.7c1 .8 2 1.5 3 2.4zm1.4-1.3v-.9h10.2v.9c-.9 4.2-2.3 7.3-4.1 9.4 1.3 1.4 3.2 2.7 5.7 4-.2.2-.4.5-.7.9-2.5-1.4-4.4-2.7-5.7-4.2-1.4 1.5-3.5 3-6.1 4.4 0 0 0 0-.1-.1-.3-.4-.5-.7-.7-.8 2.7-1.3 4.7-2.8 6.2-4.2-1.8-2.2-3-5.3-3.7-9.4zm9.2 0h-7.1c.6 3.8 1.7 6.7 3.4 8.7 1.7-2 2.9-4.8 3.7-8.7z" fill="#fafbfa"/><path d="m31.6 3.6h.9v2.3h4.1v9.1h1.7v.9h-16.6v-.9h1.7v-9.1h4.1v-2.3h.9v2.3h3.1v-2.3zm-4 13.3.6.8c-1.9.9-3.8 1.9-5.8 2.8-.2-.3-.3-.6-.5-.9 2-.9 3.9-1.8 5.7-2.7zm-3.2-10.1v3.7h3.1v-3.7zm0 4.5v3.7h3.1v-3.7zm4.1-4.5v3.7h3.1v-3.7zm0 4.5v3.7h3.1v-3.7zm9.1 9.1c-2.1-1.1-4.1-2-5.8-2.7l.5-.8c2.2.9 4.1 1.8 5.8 2.6zm-1.9-13.6h-3.1v3.7h3.1zm-3.2 4.5v3.7h3.1v-3.7z" fill="#fafbfa"/></svg>