<svg enable-background="new 0 0 400 400" viewBox="0 0 400 400" xmlns="http://www.w3.org/2000/svg"><g fill="#fafafb"><path d="m12.4 4.8-6.1 9h6v1.2h-8v-.5l6.1-8.9h-5.7v-1.2h7.6v.4z"/><path d="m14 15v-10.6h3c1.6 0 2.9.5 4 1.4s1.6 2.2 1.6 3.8-.5 3-1.6 3.9-2.4 1.5-4 1.5zm1.4-9.4v8.2h1.6c1.3 0 2.4-.4 3.1-1.1s1.1-1.8 1.1-3.1-.4-2.3-1.2-3-1.8-1-3.1-1z"/><path d="m26.1 4.4v10.6h-1.4v-10.6z"/><path d="m36.1 14.6c-.8.4-1.8.6-2.9.6-1.5 0-2.7-.5-3.6-1.4s-1.4-2.2-1.4-3.8c0-1.7.5-3.1 1.5-4.1s2.3-1.6 3.9-1.6c1 0 1.8.1 2.5.4v1.4c-.8-.4-1.6-.6-2.5-.6-1.2 0-2.1.4-2.9 1.2s-1.1 1.8-1.1 3.2c0 1.3.3 2.3 1 3s1.6 1.1 2.7 1.1c1 0 2-.2 2.7-.7v1.3z"/><path d="m37.6 14.3c0-.2.1-.5.3-.6s.4-.3.6-.3c.3 0 .5.1.6.3s.3.4.3.6-.1.4-.3.6-.4.3-.6.3c-.3 0-.5-.1-.6-.3s-.3-.4-.3-.6z"/><path d="m50.2 15h-1.6l-5.3-8.2c-.2-.2-.3-.5-.4-.7 0 .2.1.7.1 1.5v7.4h-1.4v-10.6h1.7l5.2 8.1c.2.4.4.6.4.7 0-.3-.1-.8-.1-1.5v-7.3h1.4z"/><path d="m58.6 15h-5.7v-10.6h5.5v1.2h-4.1v3.4h3.8v1.2h-3.8v3.6h4.3z"/><path d="m67.1 5.6h-3.1v9.4h-1.4v-9.4h-3v-1.2h7.5z"/></g><path d="m128.13 327.51c19.58-7.06 39.08-13.33 57.97-21.08 26.31-10.8 50.22-25.65 69.26-47.22 10.01-11.34 16.24-24.92 20.03-39.45 5.36-20.59 9.21-41.52 10.45-62.76.49-8.39-1.07-16.91-1.91-25.34-.11-1.14-1.27-2.57-2.33-3.16-13.33-7.45-27.68-8.61-42.3-5.7-17.32 3.45-34.48 7.65-51.75 11.34-2.48.53-5.24.24-7.79-.15-2.86-.44-5.75-1.13-8.42-2.22-11.57-4.71-23.71-3.31-35.7-3.67-6.58-.2-13.24-1.27-19.72-.59-13.3 1.41-23.98 8.01-32.17 19.33 7.68 5.05 15.57 10.12 23.32 15.4 4.69 3.2 9.41 6.45 13.64 10.21 2.14 1.9 3.65 4.83 4.7 7.58 2.3 5.99 1.53 8.07-3.33 12.1-15.76 13.08-31.51 26.17-47.27 39.25-.58.48-1.13 1.01-1.89 1.71 8.82 6.9 18.46 11.62 29.14 14.18 4.02.96 8.16 1.41 12.15 2.46 12.51 3.28 19.33 12.15 23.2 24.23-1.03.69-2.11 1.42-3.21 2.13-15.93 10.36-32.16 20.31-47.69 31.23-9.79 6.89-18.76 15.14-22.01 27.47-1.36 5.16-2.58 10.46-2.88 15.76-.67 11.75-5.92 20.06-16.85 25.1-4.72-8.02-8.05-16.55-8.6-25.6-.87-14.15-.89-28.37-.88-42.56.05-55.63.25-111.26.43-166.89.01-1.65-.17-3.59.58-4.92 9.7-17.21 9.38-36.13 9.07-54.89-.29-18.03 1.64-35.46 9.26-52.03 1.26-2.74 2.56-2.81 4.81-1.68 4.96 2.5 7 6.96 8.32 11.98 1.67 6.36 2.95 12.87 5.24 19.01 1.35 3.61 3.86 7.09 6.64 9.82 15.01 14.74 31.71 27.27 50.51 36.83 12.43 6.32 25.76 9.91 39.68 9.95 8.33.02 16.67-1.68 25-2.64 22.33-2.59 44.66-5.18 66.99-7.8 19.88-2.33 39.73-5 59.66-6.91 9.4-.9 18.99-.96 28.41-.3 7.04.49 11.14 5.89 11.03 12.31-12.19 2.98-24.37 6.34-36.72 8.81-5.55 1.11-7.68 3.31-8.57 8.98-5.38 34.13-10.91 68.24-17.19 102.21-1.38 7.46-5.48 14.61-9.22 21.41-11.09 20.18-27.91 34.64-47.44 46.33-18.02 10.79-36.97 19.37-56.99 25.77-9.46 3.02-18.63 6.95-27.87 10.63-7.27 2.9-14.66 3.66-22.38 2.48-3.11-.48-5.22-1.54-5.54-4.96-.1-1.08-.53-2.14-.87-3.48zm-37.26-53.47c-5.12-6.76-10.56-12.51-18.95-14.48-3.09-.73-5.66-.67-6.78 3.05-.54 1.81-1.6 3.46-2.11 5.27-2.64 9.34-2.54 18.28 4.16 26.39 7.97-6.81 15.77-13.47 23.68-20.23zm9.49-163.08c-8.94-7.01-17.29-13.55-25.64-20.1-9.43 13.44-11.38 21.83-3.64 32.9 9.55-4.18 19.13-8.36 29.28-12.8zm-33.13 96.88c.24.08.47.17.71.25 6.85-7.46 13.58-15.04 20.63-22.3 2.55-2.63 2.51-4.93.79-7.65-.77-1.21-1.52-2.61-2.64-3.4-5.69-4.01-11.51-7.85-17.8-12.11-.59 15.61-1.14 30.41-1.69 45.21z" fill="#010105"/><path d="m248.38 131.47c8.09 9.75 12.28 20.62 10.14 32.61-2.41 13.47-6.43 26.66-9.79 39.96-.57 2.27-1.61 4.45-1.96 6.74-.73 4.8-3.81 7.39-7.69 9.78-15.69 9.62-30.75 6.53-45.63-1.86-.72-.41-1.25-1.24-1.75-1.96-11.19-16.1-14.89-33.94-12.31-53.21.59-4.42 1.49-8.81 2.09-13.23.51-3.78 3.84-2.72 5.98-3.43.79-.26 2.48.91 3.18 1.85 3.41 4.56 6.62 9.27 9.91 13.92 5.47 7.73 13 10.36 22.23 9.37 10.52-1.12 10.52-.99 14.25-10.85 3.28-8.67 6.57-17.33 9.87-25.99.42-1.12.89-2.23 1.48-3.7zm-45.72 62.68c2.4 8.13 8.03 12.17 15.77 13.89 7.66 1.7 14.94-3.6 15.09-11.2.07-3.8-1.39-5.97-5.13-6.68-3.71-.7-7.56-.7-11.26-1.46-6.09-1.24-10.55 1.3-14.47 5.45z" fill="#010105"/></svg>