<svg enable-background="new 0 0 400 400" viewBox="0 0 400 400" xmlns="http://www.w3.org/2000/svg"><g fill="#fafafb"><path d="m12.4 4.8-6.1 9h6v1.2h-8v-.5l6.1-8.9h-5.7v-1.2h7.6v.4z"/><path d="m14 15v-10.6h3c1.6 0 2.9.5 4 1.4s1.6 2.2 1.6 3.8-.5 3-1.6 3.9-2.4 1.5-4 1.5zm1.4-9.4v8.2h1.6c1.3 0 2.4-.4 3.1-1.1s1.1-1.8 1.1-3.1-.4-2.3-1.2-3-1.8-1-3.1-1z"/><path d="m26.1 4.4v10.6h-1.4v-10.6z"/><path d="m36.1 14.6c-.8.4-1.8.6-2.9.6-1.5 0-2.7-.5-3.6-1.4s-1.4-2.2-1.4-3.8c0-1.7.5-3.1 1.5-4.1s2.3-1.6 3.9-1.6c1 0 1.8.1 2.5.4v1.4c-.8-.4-1.6-.6-2.5-.6-1.2 0-2.1.4-2.9 1.2s-1.1 1.8-1.1 3.2c0 1.3.3 2.3 1 3s1.6 1.1 2.7 1.1c1 0 2-.2 2.7-.7v1.3z"/><path d="m37.6 14.3c0-.2.1-.5.3-.6s.4-.3.6-.3c.3 0 .5.1.6.3s.3.4.3.6-.1.4-.3.6-.4.3-.6.3c-.3 0-.5-.1-.6-.3s-.3-.4-.3-.6z"/><path d="m50.2 15h-1.6l-5.3-8.2c-.2-.2-.3-.5-.4-.7 0 .2.1.7.1 1.5v7.4h-1.4v-10.6h1.7l5.2 8.1c.2.4.4.6.4.7 0-.3-.1-.8-.1-1.5v-7.3h1.4z"/><path d="m58.6 15h-5.7v-10.6h5.5v1.2h-4.1v3.4h3.8v1.2h-3.8v3.6h4.3z"/><path d="m67.1 5.6h-3.1v9.4h-1.4v-9.4h-3v-1.2h7.5z"/></g><path d="m177.96 263.67c.84-3.83 2.11-7.63 2.42-11.51.45-5.61 3.28-9.77 6.6-13.93.69-.87.1-2.76.1-4.75 4.06-.96 5.19-4.91 6.5-8.93.84-2.57 2.71-4.8 3.63-7.37.62-1.74.35-3.79.55-5.7.1-1.02.02-2.63.59-2.93 3.34-1.8 3.29-4.69 2.98-7.79-.09-.88-.01-1.78-.01-3.11 3.81.32 4.91-1.89 6.07-5.21 1.13-3.21 4.08-5.77 6.4-8.85-2.4-1.42-1.78-3.18-.82-5.31.61-1.35.32-3.11.38-4.68.03-.73-.37-1.61-.09-2.17 3.17-6.35 4.18-13.08 3.96-20.11-.04-1.1.71-2.29 1.27-3.34 1.98-3.69 3.39-7.28 2.41-11.78-.69-3.17.02-6.67.21-10.01.07-1.3-3.46-6.31-4.91-6.24-10.3.47-16.78-5.35-22.15-13.13-.5-.72-1.13-1.52-1.88-1.87-2.48-1.15-2.27-3-2.07-5.28.16-1.82-.08-4.18-1.15-5.5-3.63-4.49-3.75-9.28-2.46-14.51.25-1.01-.2-2.2-.35-3.31-.06-.43-.41-1.04-.24-1.24 2.5-2.93.12-5.1-1.02-7.53-.51-1.09-.79-2.34-.94-3.55-.57-4.45 1.8-7 6.2-6.78.32.02.66.11.95.26 2.92 1.54 5.9 7.24 5.59 10.67-.05.56-.07 1.13-.2 1.67-2.36 9.34 1.53 12.86 11.35 13.31 4.33.2 8.7-.45 13.04-.85.92-.08 2-.53 2.64-1.17 1.78-1.8 3.5-2.29 6.02-1.3 1.14.45 2.87-.57 4.62-1 1.24 2.55 3.04 2.62 5.42.75 2.2-1.73 4.36-.3 6.09 1.01 1.58 1.21.93 3.73-.98 4.44-2.22.82-4.24 1.63-6.97.82-1.79-.53-4.29 1.31-6.47 2.06-.78.27-2 .9-2.3.61-3.79-3.58-7.87-.99-11.83-.74-2.81.17-5.68.78-8.42.43-5.45-.7-7.28.45-8.34 5.9-.98 5.04-.76 9.41 4.51 12.21 2.93 1.56 5.58 3.65 8.35 5.51 2.25 1.51 4.5 1.65 7.25 1.1 1.88-.38 4.3.65 6.16 1.65 2.61 1.41 4.7 1.45 6.88-.66 2.16-2.1 4.55-3.1 7.31-.82.36.29 1.23.14 1.8-.03 8.65-2.65 13.81-9.75 19.87-15.68.39-.38.53-1.21.48-1.81-.19-2.78-.48-5.55-.82-9.14-2.56-.12-5.37-.37-8.17-.33-2.38.03-4.11-.62-4.78-2.65 3.06-2.43 5.85-4.8 8.81-6.92.77-.55 2.18-.68 3.14-.43 2.81.74 3.44.2 3.11-2.6-.18-1.58.02-3.25.32-4.83 1-5.34 2.12-10.65 3.19-15.98 5.98 1.29 8.56 5.15 8.15 11.17-.69 10.02-.83 20.08-1.39 30.11-.11 1.87-.74 3.96-1.8 5.47-4.44 6.31-9.13 12.44-13.88 18.82-5-2.11-8.21 1.67-12.08 4.03-.65-1-1.21-1.93-1.84-2.8-1.57-2.19-3.69-2.34-5.67-.64-2.18 1.88-4.41 3.74-6.79 5.37-3.5 2.39-4.21 4.34-2.67 8.4.19.49.49 1.31.28 1.53-2.45 2.47-1.22 5.44-1.35 8.26-.07 1.46-1.03 2.86-1.53 4.31-.51 1.49-.93 3.01-.82 4.83-.51 1.16-1.01 2.32-1.52 3.48 1.23.39 2.49 1.19 3.69 1.1 5.12-.38 10.23-.92 15.31-1.65 1.02-.15 1.89-1.37 2.98-2.22.84.49 1.81 1.42 2.92 1.64 1.55.31 4.11.73 4.64-.02 2.18-3.09 5.35-2.2 8.13-2.82 1.83 3.64 2.56 3.79 7.05 1.56 5.21 1.82 6.26 6.69 7.59 11 1.42 4.63.93 9.46-1.13 14 3.02 3.08 3.11 9.19.14 12.43-2.12 2.31-4.42 4.47-6.38 6.9-3.25 4.04-6.86 7.24-12.4 7.54-1.1.06-2.33.89-3.18 1.71-3.2 3.06-7.12 3.83-11.32 4.16-1.85.14-3.65.93-5.96 1.56-1.24-1.07-2.88-2.25-4.78.59-1.32 1.97-2.71 1.47-5.64-1.67-.55.81-.93 1.93-1.68 2.3-.73.36-2.52.23-2.66-.14-1.09-2.84-2.97-1.66-4.95-1.45-5.36.57-8.4 3.22-9.06 8.65-.56 4.55-4.41 6.84-7.24 9.73-2.25 2.29-3.12 4.72-3.6 7.88-1.36 8.92-5.3 16.8-11.71 23.19-1.67 1.67-4.35 2.31-6.57 3.43-.38-.27-.73-.53-1.08-.78zm52.32-100.34c-6.29 5.7-12.49 11.02-10.37 20.77.29 1.32-.71 2.92-1.11 4.4-1.2 4.48-2.58 8.92-3.5 13.45-.45 2.21.99 4 3.27 4.35 1.93.3 4.1.51 5.89-.08 5.07-1.66 11.07.87 15.51-3.53.29-.29 1.1.02 1.64-.09 2.81-.58 5.76-.86 8.39-1.91 3.61-1.45 6.89-3.74 10.49-5.22 3.53-1.46 3.59-7.03 8.43-6.8.27.01.64-1.32.9-2.04.82-2.28 1.69-4.55 2.37-6.87.26-.89.33-1.97.08-2.85-1.77-6.14-3.65-12.26-5.62-18.82-1.88-.29-4.67-1.37-7.25-.98-4.65.69-9.15 2.33-13.75 3.42-1.02.24-2.18-.19-3.29-.24-1.32-.05-2.67-.15-3.97 0-3.17.37-4.27 2.9-5.12 5.71-1.04-.93-1.78-1.59-2.99-2.67z" fill="#010105"/><path d="m76.8 229.11c2.95 1.74 5.16 3.16 2.65 5.56-.82.78-3.05.84-4.24.31-1.67-.74-2.97-2.32-4.38-3.5 1.2-2.39 2.08-4.17 3-6-2.08-1.82-4.13-3.62-6.43-5.63 6.7-7.11 6.31-15.65 4.75-23.91-1.54-8.17 0-16 .53-23.99.13-2.03-.33-4.1-.96-6.16 1.86-3.01 1.52-6.21.37-9.54-.91-2.64-.25-5.17.09-7.9.43-3.42 2.29-7.43-.12-11.02-.23-.34-.49-.93-.35-1.21 3.87-7.85.34-15.7.13-23.55-.07-2.71.58-5.43.82-8.15.08-.96-.03-1.95-.14-2.91-.5-4.41-1.44-8.82-1.48-13.23-.16-19.36-.07-38.72-.07-58.08 0-4.57 2.22-6.12 6.03-3.65 2.94 1.91 5.31 4.69 7.86 7.16.43.42.7 1.2.72 1.82.14 5.2.34 10.41.25 15.61-.09 5.13-.48 10.25-.78 15.37-.05.77-.07 1.83-.55 2.23-3.14 2.67-2.39 6.41-.58 8.43 2.02 2.24 5.63 3.67 8.75 4.15 3.87.59 7.99.11 11.92-.47 1.52-.22 2.81-1.98 4.2-3.04 3.42 3.67 3.43 3.67 7.52.82 2.13 3.38 4.95 1.44 7.92.61.47 1.4.74 2.71 1.33 3.85 1.06 2.04.06 3.01-1.57 4-3.89 2.35-7.94 1.52-12.08 1.03-2.07-.25-4.23.43-6.35.43-3.06 0-6.11-.32-9.17-.35-1.54-.02-3.18.05-4.61.55-1.55.54-2.8 2.03-4.36 2.43-5.14 1.32-6.45 4.64-5.72 9.47.6 3.97 1.06 7.98 1.31 11.99.15 2.43-.03 4.93-.38 7.35-.55 3.84.81 5.76 4.73 5.98.98.06 2.31.1 2.92-.46 2.9-2.66 6.38-1.62 9.69-1.93 4.75-.44 9.48-1.14 14.21-1.73.22-.03.44-.13.66-.13 5.31.18 10.61.38 15.98.57-.89 5.31-3.44 7.21-8.1 6.44-.33-.05-.75-.31-.97-.19-5.74 3.15-11.7-.48-17.52.59-2.31.42-4.43.44-6.14 2.63-.74.95-3.06 1.12-4.57.92-7.81-1.01-11.33 1.89-11 9.77.32 7.66 1.08 15.3 1.45 22.96.12 2.4-.42 4.84-.76 8.22.32.03 1.57.22 2.82.27 1.53.06 3.06.02 4.64.36 2.57-.88 5.08-2.29 7.75.01.3.26 1.08.48 1.18.35 2.39-2.94 5.06-.47 7.59-.44 2.45.02 4.96.34 6.5-2.35.3-.52 1.27-.94 1.92-.93 5.35.07 10.12 1.4 13.13 6.84-3.73 1.49-4.51 4.56-4.17 8.31.25 2.79-2.51 5.69.26 8.44-2.82 2.9-.53 6.19-.56 9.26-.02 2.86.39 5.85 1.27 8.56 1.61 4.97 1.33 9.65-.8 14.33-1.06 2.34-2.01 4.73-3 7.1-1.01 2.44-2.83 4.91-5.32 4.07-1.6-.54-3.26-3.65-3.28-5.62-.12-11.82-1.45-23.68.85-35.47 1.01-5.17.09-9.71-2.22-15.8-1.94-.28-3.48-.71-5.01-.67-3.19.09-6.61-1.53-9.52 1.1-.22.2-.78.41-.89.31-3.7-3.55-6.84 1.67-10.45.8-.38-.09-1.95 2.45-2.02 3.81-.34 7.59-.66 15.2-.46 22.79.16 7.4 2.57 15.23-6.62 20.05z" fill="#010105"/><path d="m260.06 316.06c-1.8-2.96-1.03-3.91.66-4.81 1.25-.67 2.23-1.85 3.32-2.81-.09-.46-.18-.91-.27-1.37-2.52-.34-5.04-.78-7.57-.98-2.09-.17-4-.22-2.61-2.89-1.74-1.55-3.4-3-5.02-4.5-1.5-1.38-2.86-2.63-5.3-1.96-.84.23-2.52-.86-3.09-1.79-1.6-2.59-2.12-5.99-5.82-6.75-.8-4.43-5.22-5.04-8.18-7.55 2.36-1.26 3.07-3.2 1.17-4.81-5.8-4.92-6.78-12.13-9.51-18.46 4.01-3.48 7.11-3.03 9.13 1.47 1.73 3.86 3.01 7.92 4.65 11.83 1.16 2.77 2.51 5.46 3.93 8.11.44.82 1.42 1.98 2.09 1.94 4.08-.22 5.42 3.05 7.16 5.56 1.97 2.85 4.66 5.64 7.94 7.32 1.99 1.02 3.8 2.47 5.87 3.2 2.06.73 4.43.58 6.54 1.23 3.03.94 5.99 2.13 8.86 3.47.9.42 1.42 1.65 1.57 1.84 3.5-.94 6.29-1.54 8.96-2.47 1.03-.36 2.31-1.29 2.61-2.23 1.07-3.39 1.99-6.86.1-10.39-.38-.7.14-1.89.29-2.85.03-.18.31-.31.45-.48 4.51-5.47 4.51-5.47 9.42-.7 2.17 2.11 6.84 2.61 9.21.9.46-.33.67-1.07.88-1.65.93-2.58 1.54-5.32 2.78-7.74 4.01-7.87 3.82-10.18-2.2-16.86 2.83-2.71 1.67-5.4-.22-8.13-2.28-3.32-5-6.48-6.54-10.12-1.77-4.22-6.4-4.36-8.82-7.41-.21-.27-1.05-.12-1.58-.05-4.9.71-7.89-1.66-8.71-6.89 6.22 1.33 12.97 1.59 18.54 4.28 5.54 2.67 9.95 7.74 14.75 11.87.63.55.8 1.78.94 2.73.28 1.99-.28 4.45.69 5.93 4.32 6.6 1.54 14.34 3.82 21.22.3.9-.26 2.17-.63 3.2-1.12 3.04-2.5 5.99-3.5 9.06-1.65 5.11-4.54 9.04-9.24 11.84-3.86 2.3-4.19 6.74-1.17 10.12 1.12 1.25 2.16 2.59 3.39 3.72 1.8 1.64 2.61 3.37 1.94 5.91-.29 1.1.34 2.54.81 3.73 1.29 3.3 2.58 6.6 4.11 9.79 2.64 5.52 5.39 10.99 8.22 16.42 2.15 4.12.26 7.96-.53 11.89-.07.34-.87.61-.87.89.12 3.89.32 7.78.53 12.2-1.37 1.04-3.22 2.44-5.26 3.99-1.9-2.63-3.69-5.03-5.37-7.51-.41-.6-.82-1.53-.64-2.14 1.03-3.5-.92-5.91-2.6-8.59-.78-1.23-.69-3.04-.91-4.59-.21-1.5.01-3.14-.53-4.5-2.1-5.27-5.01-10.29-4.42-16.31.05-.55-.38-1.34-.84-1.71-2.23-1.77-3.35-3.8-2.06-6.64.12-.27.13-.84-.04-.96-4.59-3.46-2.42-9.5-5.25-13.58-.64-.92-1.97-2.13-2.83-2.01-7.15.95-14.26 2.2-21.38 3.31-.51.08-1.14-.01-1.6-.25-2.84-1.44-5.81-.1-7.13 2.93-.55 1.23-1.84 2.14-3.09 3.54z" fill="#010105"/><path d="m165.55 268.77c3.6 2.14 6.96 4.14 10.86 6.47-.01 2.5-.12 5.61-4.07 7.21-1.19.48-2.09 2.22-2.66 3.58-2.04 4.86-3.5 10.13-10.27 10.33-.57.02-1.31 1.11-1.64 1.85-5.67 12.53-16.58 18.41-28.73 23.11-.65-1.04-.97-2.07-1.68-2.6-2.93-2.24-2.86-2.74.15-4.51 2.09-1.23 3.81-3.08 5.87-4.37 1.53-.95 2.38-2.95 5.27-2.12 1.35.39 4.98-2.58 5.37-4.48.58-2.81 1.99-3.56 4.45-4.14-.74-1.94-1.4-3.66-2.05-5.37 8.25-6.9 15.32-14.52 19.13-24.96z" fill="#010105"/><path d="m281.7 276.45c1.19-4.02-3-5.27-4-7.76-2.87-7.15-10.75-9.62-13.82-16.32-.53-1.15-2.05-1.86-3.15-2.73-.42-.34-1.32-.5-1.36-.83-.57-4.21-4.4-4.64-7.16-6.27-3.25-1.92-4.07-3.88-2.76-8.79 4.43 2.77 9.01 4.94 12.72 8.12 6.29 5.37 12.38 11.06 17.87 17.22 2.92 3.29 5.01 7.66 6.37 11.89 1.4 4.38.55 4.9-4.71 5.47z" fill="#010105"/></svg>