<svg enable-background="new 0 0 400 400" viewBox="0 0 400 400" xmlns="http://www.w3.org/2000/svg"><g fill="#fafafb"><path d="m12.4 4.8-6.1 9h6v1.2h-8v-.5l6.1-8.9h-5.7v-1.2h7.6v.4z"/><path d="m14 15v-10.6h3c1.6 0 2.9.5 4 1.4s1.6 2.2 1.6 3.8-.5 3-1.6 3.9-2.4 1.5-4 1.5zm1.4-9.4v8.2h1.6c1.3 0 2.4-.4 3.1-1.1s1.1-1.8 1.1-3.1-.4-2.3-1.2-3-1.8-1-3.1-1z"/><path d="m26.1 4.4v10.6h-1.4v-10.6z"/><path d="m36.1 14.6c-.8.4-1.8.6-2.9.6-1.5 0-2.7-.5-3.6-1.4s-1.4-2.2-1.4-3.8c0-1.7.5-3.1 1.5-4.1s2.3-1.6 3.9-1.6c1 0 1.8.1 2.5.4v1.4c-.8-.4-1.6-.6-2.5-.6-1.2 0-2.1.4-2.9 1.2s-1.1 1.8-1.1 3.2c0 1.3.3 2.3 1 3s1.6 1.1 2.7 1.1c1 0 2-.2 2.7-.7v1.3z"/><path d="m37.6 14.3c0-.2.1-.5.3-.6s.4-.3.6-.3c.3 0 .5.1.6.3s.3.4.3.6-.1.4-.3.6-.4.3-.6.3c-.3 0-.5-.1-.6-.3s-.3-.4-.3-.6z"/><path d="m50.2 15h-1.6l-5.3-8.2c-.2-.2-.3-.5-.4-.7 0 .2.1.7.1 1.5v7.4h-1.4v-10.6h1.7l5.2 8.1c.2.4.4.6.4.7 0-.3-.1-.8-.1-1.5v-7.3h1.4z"/><path d="m58.6 15h-5.7v-10.6h5.5v1.2h-4.1v3.4h3.8v1.2h-3.8v3.6h4.3z"/><path d="m67.1 5.6h-3.1v9.4h-1.4v-9.4h-3v-1.2h7.5z"/></g><path d="m89.3 149.76c9.93 3.55 20.02 3 30.21 1.88 5.62-.62 11.38-1.54 16.91-.89 8.62 1.01 13.74 9.94 11.92 18.51-1.57 7.4-4.61 13.93-8.4 20.54-7.22 12.59-17.64 21.57-29.44 29.18-8.97 5.78-12.06 13.72-10.53 23.79.26 1.73 1.46 3.76 2.86 4.82 8.37 6.34 17.67 10.99 27.79 13.71 12.6 3.39 17.99 12.23 19.55 24.37.29 2.28-.45 3.69-2.2 5.1-13.46 10.93-26.74 22.1-40.32 32.88-6.1 4.85-10.84 10.66-14.47 17.4-2.64 4.9-6.52 6.89-11.83 6.24-1.08-.13-2.52-1.02-2.97-1.96-2.59-5.45-4.98-10.99-7.31-16.55-.33-.78-.36-2.06.07-2.71 5.4-8.04 6.09-17.08 4.85-26.16-2.41-17.67-3.43-35.37-3.28-53.2.2-23.95-.07-47.9.14-71.85.05-5.84-.84-11.21-3.3-16.52-1.01-2.18-1.5-5-1.13-7.35 1.57-9.89 1.82-19.75 1.24-29.74-.93-15.73-1.06-31.52-2.11-47.24-.41-6.05-2.09-12.1-3.78-17.97-3.07-10.65-.94-20.33 4.64-29.51.43-.71 1.76-1.37 2.57-1.28 7.83.91 12.28 5.49 13.62 13.39.59 3.5 1.36 7.04 2.61 10.34 1.17 3.08 3.58 4.68 7.26 4.87 13.62.7 27.26 1.39 40.82 2.75 10.71 1.07 18.23 8.51 19.52 18.24.19 1.46-.25 3.36-1.1 4.55-4.37 6.09-8.42 12.56-13.64 17.84-5.2 5.26-11.43 9.63-17.65 13.71-4.92 3.23-10.44 5.56-15.81 8.06-14.42 6.73-18.9 14.44-17.31 30.76zm27-81.2c-6.25.61-11.76.76-17.12 1.74-10.83 1.99-10.79 2.86-13.47 12.14-2.24 7.75-1.84 15.3 3.35 21.94.77.98 2.3 1.76 3.56 1.89 6.4.68 11.95-1.83 16.66-5.75 6.77-5.63 13.16-11.73 19.64-17.71.73-.67 1.33-1.85 1.38-2.82.22-4.6-2.22-8.3-6.62-9.77-2.62-.87-5.41-1.23-7.38-1.66zm-22.21 141.47c2.52-1.37 4.49-2.39 6.41-3.5 9.06-5.26 15.49-13.42 22.88-20.56 3.99-3.86 4.39-8.3 3.95-13.17-.21-2.36-1.54-3.78-4.09-4.11-11.39-1.45-22.17.84-32.93 5.19 1.23 11.81 2.47 23.66 3.78 36.15zm39.41 72.08c-5.83-3.19-10.82-6.41-16.19-8.75-6.28-2.74-12.67-3.17-18.67 1.46-1.56 1.2-2.16 2.18-2.03 4.05.32 4.46.44 8.94.68 13.4.22 4.07.5 8.14.78 12.53 15.62-1.54 24.54-12.59 35.43-22.69z" fill="#010105"/><path d="m293.05 372.23c-5.08.82-9.47 1.7-13.9 2.13-1.04.1-2.52-1.08-3.31-2.06-10.74-13.33-21.45-26.68-32.01-40.15-1.64-2.09-2.93-2.19-5.28-1.41-8.16 2.71-15.49 6.35-21.18 13.23-2.93 3.54-7.12 6.09-10.93 8.81-5.9 4.21-12.62 4.88-19.56 3.63-1.14-.21-2.66-1.22-3.01-2.21-.68-1.96-1.5-4 .91-5.98 9.42-7.74 18.63-15.74 27.92-23.64 5.78-4.92 11.56-9.86 17.45-14.88-2.8-6.6-5.4-13.11-8.32-19.49-1.98-4.32-3.34-8.69-3.49-13.48-.58-18.35-1.15-36.7 3.11-54.76.89-3.79 2.47-7.41 3.52-11.17.89-3.21 2.75-3.63 5.73-2.97 10.32 2.3 19.72 6.68 28.21 12.79 23.26 16.76 43.4 36.52 58.5 61.17 3.36 5.48 8.1 10.1 11.9 15.34 1.44 1.98 2.65 4.51 2.89 6.89.57 5.79-1.45 7.62-7.05 8.81-4.36.93-7.24 0-9.79-3.85-3.45-5.21-7.49-10.03-11.37-14.95-4.31-5.46-9.91-6.97-16.47-4.95-1.14.35-2.27.97-3.18 1.73-5.49 4.59-10.94 9.24-16.36 13.92-4.4 3.8-7.35 8.49-7.53 14.42-.05 1.66.74 3.63 1.77 4.99 7.57 9.97 15.46 19.7 22.88 29.78 2.68 3.64 4.46 7.98 6.39 12.11.82 1.75.99 3.81 1.56 6.2zm-57.72-103.97c-.27.06-.54.12-.81.18 1.27 5.62 1.7 11.6 3.97 16.78 4.6 10.47 5.27 12.15 16.84 5.76 7.04-3.89 12.86-9.94 19.45-14.7 2.98-2.15 3.21-4.41 1.94-7.41-5.31-12.61-13.83-22.27-26.13-28.44-1.18-.59-2.55-.79-3.8-1.26-1.89-.71-3-.1-4.05 1.65-5.08 8.46-7.43 17.62-7.41 27.44z" fill="#010105"/><path d="m194.17 178.4c-.47-4.45-.93-8.32-1.24-12.19-.05-.63.55-1.31.86-1.96.04-.08.18-.12.29-.17 14.24-6.23 23.42-18.36 33.87-29 1.63-1.66 3.22-3.36 5.38-5.62-7.17-7-13.99-14.09-21.3-20.63-4.95-4.44-10.9-5.89-17.77-4.29-8.72 2.03-8.8 1.69-13.54-5.74-.48-.75-.94-1.51-1.58-2.55 2.56-1.82 5.08-3.64 7.63-5.42 11.01-7.65 21.86-15.57 33.14-22.81 5.02-3.22 10.91-5.08 16.43-7.48.75-.33 1.81-.54 2.53-.27 9.52 3.52 19.07 6.96 28.47 10.78 6.14 2.5 8.88 7.62 8.9 14.13.03 10.69-1.26 21.19-5.01 31.27-1.91 5.13-3.86 10.25-6.04 15.27-1 2.3-.61 3.81 1.05 5.62 11.16 12.13 18.56 26.48 24.02 41.87 1.18 3.33 1.67 6.95 2.18 10.48.24 1.64 1.24 3.9-1.74 4.57-2.63.59-4.9 2.61-7.47-1-8.58-12.02-17.59-23.72-26.43-35.55-2.14-2.87-4.17-5.83-6.49-8.55-.66-.78-2.35-1.43-3.24-1.14-3.67 1.22-7.47 2.4-10.76 4.38-12.93 7.78-25.69 15.86-38.51 23.83-1.01.64-2.07 1.25-3.63 2.17zm63.46-87.53c-.63-1.84-.9-3.93-1.97-5.47-2.84-4.08-15.03-6.85-19.52-4.64-3.9 1.92-7.79 3.87-11.59 5.99-1.07.6-2.09 1.68-2.62 2.79-2.36 4.92-1.24 8.74 3.49 12.18 5.95 4.33 11.96 8.59 17.95 12.88 3.02 2.16 5.9 1.59 7.48-1.84 3.19-6.91 5.86-14 6.78-21.89z" fill="#010105"/></svg>