<svg enable-background="new 0 0 400 400" viewBox="0 0 400 400" xmlns="http://www.w3.org/2000/svg"><path d="m36.29 131.76c-3.46-6.37-4.67-12.87-2.69-20.01 5.96-21.56 16.87-40.83 27.81-60.03 4.32-7.58 11.57-12.75 19.25-16.84 5.6-2.98 11.55-5.33 17.33-7.97 7.17-3.28 14.49-1.77 21.76-.61 12.5 1.99 24.31 6.09 35.12 12.66 13.52 8.21 20.41 20.67 22.96 36.11 2 12.11 3.99 24.35 7.54 36.06 4.72 15.54 8.62 17.85 25.09 18.51 21.65.87 42.75-3.15 63.46-9.28 1.1-.33 2.15-1.15 2.99-1.98 3.57-3.55 7.06-7.18 10.71-10.93 5.07 4.18 9.17 1.32 12.61-1.87 13.62-12.64 27.05-25.48 40.44-38.37 2.81-2.7 5.14-5.9 7.64-8.91 3.39-4.07 7.76-5.86 13.26-5.87 1.04 5.88.05 11.57-1.65 17.07-3.27 10.56-6.87 21.02-10.3 31.53-.66 2.02-1.48 4.06-1.65 6.14-.53 6.36-3.68 11.28-7.79 15.87-2.68 3-4.86 6.45-7.58 9.41-3.46 3.75-7.1 7.36-10.92 10.75-3.15 2.8-3.19 4.24.59 6.42 4.65 2.68 9.22 5.52 14.03 7.9 3.43 1.7 5.67 4.26 7.21 7.58 5.78 12.44 9.15 25.48 8.76 39.25-.11 3.7-1.18 7.48-2.38 11.04-6.1 18.2-18.08 33.05-28.2 48.96-1.61 2.53-3.3 5-5.79 7.45-.59-4.9-1.46-9.8-1.71-14.72-.39-7.59.31-15.28-.62-22.78-2.68-21.56-20.26-32.94-37.25-34.67-20.86-2.13-40.94 2.04-60.41 9.44-.82.31-1.73 1.71-1.75 2.62-.13 8.28-.16 16.57.01 24.85.02 1.15 1.02 2.88 2 3.3 2.83 1.21 6.01 2.91 8.84 2.6 15.29-1.69 29.06 3.46 42.88 8.65 1.04.39 2.11.69 3.34 1.08 2.27-2.51 2.57-5.51 1.8-8.45-1.24-4.72-3.54-8.44-8.21-11.15-7.23-4.19-14.67-6.06-22.91-5.8-3.42.11-6.94-.33-10.3-1.06-3.51-.76-5.93-3.04-6.49-7.15 7.03-2.45 14.29-3.28 21.69-2.65 10.16.88 19.67 3.95 28.54 9.02 7.21 4.12 13.13 15.16 11.87 23.28-1.65 10.63-1.63 21.13.59 31.68 1.88 8.97 3.06 18.09 5.24 26.98 4.19 17.06 14.67 30.19 27.45 41.68 9.17 8.24 19.59 14.43 31.29 18.44 3.17 1.08 6.37 2.33 7.09 7.28-5.05.19-9.94.92-14.72.47-16.7-1.59-32.53-6.9-48.32-12.22-5.05-5.04-11.9-8.39-12.65-17.03-1.25-14.37-3.38-28.66-4.93-43.01-.55-5.11-.45-10.28-.75-15.42-.22-3.78-3.12-5.65-6.51-3.86-12.41 6.52-23.55 1.91-34.17-4.21-7.45-4.29-6.99-12.95-5.36-18.87.18-.64 1.46-1.4 2.18-1.36 1.01.06 2.29.57 2.92 1.33 3.27 3.97 6.33 8.11 9.54 12.12 5.49 6.86 13.55 5.57 18.52 2.58 2.26-1.36 3.26-4.82 4.79-7.27-8.49-7-36.47-16.89-52.56-18.69-1.77 9.76-3.6 19.52-5.23 29.32-.15.88.73 2.24 1.52 2.92 8.69 7.41 17.29 14.92 26.24 22.01 7.83 6.2 10.73 14.4 10.62 23.86-.05 4.78-.89 9.56-1.65 14.3-.21 1.3-1.41 2.44-2.15 3.65-.53-.13-1.06-.26-1.59-.39-.34-2.69-1.14-5.43-.93-8.08.95-11.75-4.21-20.47-13.6-26.62-5.64-3.69-12.05-6.2-18.5-9.44-5.89 10.63-11.26 20.59-9.65 32.7.28 2.1 1.17 3.54 3.24 4.16 3.21.95 6.38 2.04 9.63 2.82 4.07.98 7.4 2.95 9.89 6.39-5.58 4.61-11.78 6.63-18.81 4.87-1.91-.48-4.1-1.52-5.27-3-3.38-4.27-6.66-8.7-9.33-13.43-3.05-5.4-2.95-11.2-.96-17.18 3.39-10.17 6.66-20.4 9.46-30.74 3.05-11.31 1.57-22.59-2.87-33.19-4.09-9.76-9.08-19.15-14-28.54-2.24-4.28-5.7-7.69-10.23-9.71-3.54 3.34-3.76 4.69-1.5 8.37 1.64 2.67 2.34 5.42 1.37 8.62-1.26 4.17-1.91 8.53-3.3 12.64-2.63 7.81-2.71 15.74-2.11 23.82.22 2.91-.41 5.92-.97 8.83-1.57 8.2-6.1 14.79-11.86 20.57-2.89 2.9-3.97 6.22-4.14 10.21-.07 1.68-.95 3.68-2.12 4.9-2.77 2.9-5.78 5.62-8.97 8.06-4.41 3.36-6 7.89-6.33 13.11-.03.54-.02 1.15.2 1.63 3.61 8.05 12.96 12.6 21.61 10.53 3.15-.76 6.24-1.86 9.43-2.3 1.96-.27 4.06.4 6.56.71-5.84 9.19-22.22 14.68-31.39 11.26-.31-.12-.71-.16-.92-.38-6.79-7.02-15.03-13.06-17.08-23.43-.5-2.51-.21-5.35.43-7.86 1.07-4.21 2.72-8.27 4.13-12.4 1.75-5.12.4-7.78-4.89-9.24-3.89-1.07-7.56-2.6-9.55-6.25-1.34-2.47-2.8-5.41-2.65-8.05.27-4.93 1.4-9.88 2.72-14.67.77-2.78 4.02-2.82 5.57-.34 3.08 4.93 6.04 9.94 9.18 14.83 4.47 6.96 14.89 7.92 20.6 1.91 2.08-2.19 4-4.53 5.85-6.91 7.36-9.46 9.35-20.18 6.79-31.71-1.62-7.3-3.35-14.62-5.84-21.65-2.51-7.09-1.66-14.38-2.67-21.53-.24-1.71-1.01-3.59-2.13-4.89-2.78-3.21-5.91-6.11-8.87-9.17-5.55-5.71-8.45-12.5-8.44-20.52.02-11.3-.28-22.61.03-33.9.38-13.99-5.75-24.02-17.65-30.8-3.4-1.94-6.9-3.7-10.43-5.37-4.75-2.25-9.73-2.23-14.77-1.16-9.51 2.03-19.31 3.23-28.45 6.33-7.7 2.61-15.09 7-17.47 16.04-.92 3.32-2.89 5.44-6.37 6.41zm66.16-48.53c4.02 0 7.7.13 11.36-.03 4.57-.21 8.31-2.4 11.43-5.61.71-.73 1.29-1.82 1.43-2.82.92-6.81-2.51-13.83-8.71-16.62-2.66-1.19-6.07-1.81-8.87-1.29-2.91.55-5.57 2.71-8.19 4.38-.69.44-1.3 1.75-1.2 2.57.8 6.42 1.79 12.8 2.75 19.42z" fill="#010100"/><g fill="#fcfbfa"><path d="m377.9 391.2c-.2.3-.4.5-.6.8-.7-.6-1.4-1-2.2-1.5.2-.3.4-.5.5-.8.6.4 1.4.8 2.3 1.5zm-1.8 6.1c-.2-.2-.5-.4-.9-.6.4-.6.8-1.2 1.2-1.9s.7-1.3.9-1.9c.3.3.5.5.8.7-.7 1.3-1.4 2.6-2 3.7zm2.2-9c-.3.3-.5.5-.6.8-.6-.6-1.3-1.1-2-1.5.3-.3.5-.5.6-.7.6.5 1.3.9 2 1.4zm.3.2v-.9h2 4.5c-.3 1.3-.6 2.5-1 3.6s-.9 2.1-1.4 3c.4.5 1 1 1.6 1.4s1.2.8 1.9 1.1c-.3.2-.5.4-.8.8-.4-.3-1-.7-1.6-1.2s-1.2-1.1-1.6-1.6c-.5.6-1.1 1.1-1.7 1.6s-1.4.9-2.1 1.4c-.1-.3-.3-.5-.7-.8.6-.2 1.2-.5 1.9-1s1.4-1.1 2-1.8c-.5-.8-.9-1.6-1.2-2.5s-.6-2-.8-3.2c-.4.1-.7.1-1 .1zm2.5 2.7c.3 1 .7 1.7 1 2.2.3-.5.6-1.1 1-2s.6-1.9.9-3h-3.2-.4c.1.9.3 1.8.7 2.8z"/><path d="m396.5 388.5v1.5 3.6h1.5v.9c-.4 0-1 0-1.7 0h-7.9c-.5 0-.9 0-1.2 0v-.9h1.3v-3.5c0-.7 0-1.2 0-1.6h2.4c0-.8 0-1.4 0-1.7h1c0 .3-.1.8-.1 1.7h1.5c0-.8 0-1.4 0-1.7h1c0 .3-.1.9-.1 1.7zm-8.2 9.2c-.2-.3-.5-.5-.8-.8.8-.3 1.4-.6 1.9-.9s1-.7 1.4-1.1c.3.3.6.5.9.8-1.6 1-2.8 1.6-3.4 2zm2.6-6.8v-1.6h-1.5v1.6zm0 2.7v-1.9h-1.5v1.9zm2.4-2.7v-1.6h-1.5v1.6zm0 2.7v-1.9h-1.5v1.9zm.2 2 .7-.8c.4.2.9.5 1.6.8s1.3.7 1.8 1c-.3.3-.5.5-.8.8-.4-.3-1.5-1-3.3-1.8zm2-4.7v-1.6h-1.4v1.6zm0 2.7v-1.9h-1.4v1.9z"/></g></svg>