<svg enable-background="new 0 0 400 400" viewBox="0 0 400 400" xmlns="http://www.w3.org/2000/svg"><g fill="#010100"><path d="m195.28 350.71c.96-1.85 2.56-.86 4.55.11 5.07 2.45 7.36 7.16 10.65 11.63-8.04 2.27-15.44 1.42-22.34-1.8-9.41-4.39-18.54-9.4-27.77-14.16-.58-.3-1.15-.73-1.58-1.23-2.32-2.69-4.62-2.23-7.37-.48-14.93 9.46-29.93 18.8-44.92 28.16-4.31 2.69-9.16.68-10.36-4.26-.31-1.29-.58-2.59-.7-3.12 10.03-6.16 19.97-11.74 29.32-18.19 6.68-4.6 12.68-10.23 18.72-15.69 1.24-1.12 1.93-3.54 1.86-5.32-.45-11.96-1.17-23.92-1.82-35.87-.04-.75-.03-1.85-.48-2.17-2.85-2.03-1.64-4.39-.98-6.91.7-2.67 1.3-5.45 1.35-8.2.17-8.27.06-16.54.06-25.06-9.34-2.28-18.56-4.44-27.72-6.84-1.68-.44-3.4-1.59-4.6-2.89-5.58-6.04-10.29-12.62-12.59-20.72-2.57-9.03-.67-17.73 1.55-26.44 1.96-7.68 5.35-14.5 10.59-20.63 7.63-8.92 14.72-18.31 21.98-27.55.71-.9 1.51-2.15 1.44-3.19-.49-7.8-1.19-15.58-1.83-23.39-4.27-.65-7.54-.27-10.95 2.75-8.98 7.95-18.83 14.8-30.08 19.26-3.27 1.3-6.81 1.93-10.32 2.89-1.01-3.09-.42-5.01 1.62-7 9.69-9.45 19.22-19.05 28.78-28.63.78-.78 1.39-1.73 2.34-2.94-1.74-1.62-3.34-3.31-5.13-4.76-5.41-4.37-8.95-9.65-8.7-16.91.02-.56-.02-1.13-.12-1.67-1.92-9.86-4.69-14.33-17.59-11.87-6.64 1.27-9.46-.29-10.8-6.08-.4-1.74-.14-3.04 1.59-3.38 3.89-.77 7.83-1.34 11.76-1.9 1.09-.15 2.24.17 3.34.04 6.86-.84 9.52-3.58 10.39-10.88.4-3.33.42-6.7.72-10.04.35-3.93 1.94-6.33 5.55-8.41 3.05 4.92 5.27 9.87 4.22 16-1.64 9.58 1.06 12.59 10.74 11.43 7.64-.92 15.18-2.69 22.75-4.17 1.82-.36 1.92-.87 1.17-2.69-.14-.33-.13-.92.07-1.17 2.88-3.57 1.28-7.45.81-11.24-.3-2.42-.62-4.85-.94-7.34 1.22-.47 2.22-1.07 3.29-1.21 2.05-.27 3.96-2.7 6.17-.64 2.94 2.73 5.35 5.77 4.95 10.14-.07.77-.28 1.54-.47 2.3-2.13 8.33-.24 11.66 8.09 13.5 2.35.52 4.9.58 7.31.36 6.06-.55 9.34.8 13.36 6.14-3.9 2.48-8.16 3.45-12.67 3.51-4.58.06-9.16-.06-13.74.06-2.71.07-4.58 1.08-4.57 4.38.01 3.79-.75 7.6-.55 11.37.29 5.44-.72 10.38-3.59 15.01-1.04 1.67-1.7 3.58-2.79 5.94 6.34 2.39 12.36 4.67 18.39 6.94 3.76 1.41 7.65 2.55 11.24 4.29 4.35 2.11 7.32 5.73 9.39 10.14.95 2.03.37 3.03-1.43 3.97-5.09 2.69-10.09 2.02-15.21.01-4.98-1.95-10.03-3.75-15.12-5.36-1.86-.59-3.94-.47-7.09-.79 5.96 5.59 4.04 12.24 4.91 18.25.68 4.73 2.15 8.36 6.95 10.44 4.49 1.95 8.53 4.92 12.97 7.01 8.92 4.2 15.55 10.82 20.85 18.9 6.05 9.22 11.3 18.77 12 30.17.22 3.52-.14 6.72-2.94 9.14-4.12 3.56-4.25 8.58-5.26 13.35-.33 1.54-1.47 3.06-2.61 4.24-1.22 1.27-2.96 2.02-4.29 3.2-8.68 7.68-18.68 13.03-29.62 16.63-2.98.98-4.02 2.4-4.1 5.67-.1 4.19-1.61 8.34-1.93 12.55-.32 4.17-.03 8.41.22 12.6.19 3.21 1.02 6.4 1.05 9.61.13 12.2.09 24.4.01 36.6-.01 2 .49 3.13 2.39 4.17 12.07 6.64 24 13.45 36.21 20.33zm-6.01-156.52c-4.48-8.45-8.74-16.52-13.04-24.57-.19-.36-.59-.7-.97-.88-5.15-2.33-10.32-4.62-15.7-7.02-4.21 9.32-5.74 18.64-4.09 28.39.31 1.82 1.18 3.61 2.13 5.22.45.76 1.72 1.55 2.56 1.48 9.54-.76 19.08-1.69 29.11-2.62zm-47.37-130.1c-7.49.66-14.18.61-20.57 1.97-10.8 2.3-10.13 2.74-8.72 11.94.02.11.02.22.04.33 1.52 8.25 5.93 12.78 14.07 14.29 1.01.19 2.41.14 3.18-.42 8.05-5.86 12.41-14.08 14.65-23.57.19-.79-.05-1.9-.51-2.56-.66-.94-1.7-1.6-2.14-1.98zm12.79 166.65c5.11-.57 9.84-.41 14.11-1.74 6.59-2.05 12.87-5.09 19.24-7.8.8-.34 1.82-1.18 1.93-1.91.5-3.26.7-6.56 1.03-10.01-8.31-.72-16.22-1.99-24.1-1.81-3.68.08-7.3 2.97-10.92 4.65-.26.12-.32.81-.35 1.24-.31 5.56-.6 11.13-.94 17.38zm-19.64-69.04c-8.27 9.8-15.97 18.8-23.5 27.95-2.52 3.06-1.09 6.96 2.92 7.62 5.49.9 11.07 1.43 16.63 1.59 2.33.07 4.75-1.07 7-1.99.74-.3 1.6-1.68 1.5-2.45-1.37-10.61-2.91-21.2-4.55-32.72zm-23.13 56.7c2.2 6.5 7.78 9.01 12.18 12.66.22.18.64.16.97.15 5.44-.21 10.88-.43 16.07-.63-.34-4.79-.62-9.23-.98-13.66-.31-3.85-4.07-7.46-6.99-6.44-7.04 2.46-13.98 5.19-21.25 7.92z"/><path d="m243.93 162.78c-2.96 3.67-5.54 6.86-8.11 10.06-2.3 2.87-2.05 7.92.93 9.56 7.76 4.28 10.99 11.75 14.35 19.22 1.68 3.74 3.58 7.38 5.32 11.09.36.77.75 1.7.65 2.51-.88 7.6 1.84 14.47 3.9 21.55 1.22 4.18 1.61 8.75 1.59 13.13-.13 23.84-.5 47.67-.81 71.51-.01.88-.09 1.78-.26 2.65-.83 4.25-1.58 8.52-2.63 12.71-.46 1.83-1.15 4.02-2.49 5.11-1.84 1.49-4.7-.32-4.93-2.85-.58-6.46-1.6-12.95-1.42-19.4.17-5.86 2.17-11.66 2.53-17.54 1.39-22.63 1.43-45.3-4.4-67.37-2.69-10.19-7.47-19.84-11.38-29.71-.39-.99-1.31-1.78-2.01-2.65-4.41-5.49-8.82-10.99-13.26-16.46-4.2-5.19-4.81-11.16-3.82-17.46.33-2.1.86-4.16 1.26-6.25 1.14-5.95 3.93-10.54 9.23-13.99 5.8-3.76 10.91-8.57 16.56-12.59 10.95-7.81 12.97-15.71 8.66-29.71-1.01-3.3-3-5.78-5.38-8.27-10.71-11.21-24.43-15.21-39.17-16.94-1.89-.22-3.77-.47-5.66-.74-6.29-.89-10.47-5.6-10.78-12.82 3.62-.14 7.37-.97 10.84-.3 10.51 2.01 21.04 4.16 31.33 7.07 12.49 3.52 20.87 12.44 27.75 23.06 3.09 4.76 4.55 9.8 4.84 15.4.08 1.56.96 3.55 2.15 4.52 5.01 4.09 9.89 8.56 15.5 11.63 18.06 9.86 26.74 25.6 30.01 45.16 1.23 7.36 2.77 14.67 4.15 22 .14.75.46 1.61.23 2.26-2.74 7.82-.19 15.49.64 23.19.57 5.33 1.64 10.62 2.1 15.96.13 1.54-.79 3.41-1.76 4.75-1.36 1.89-1.76 3.69-1.24 5.92.91 3.92 1.83 7.85 2.38 11.83.41 2.94.74 6.04.23 8.92-1.47 8.3-.46 16.51.25 24.74.33 3.9.76 7.8 1.04 11.7.4 5.63.36 5.63-5.09 8.03-3-5.02-3.98-10.62-4.17-16.29-.43-12.75-.79-25.51-.72-38.26.17-31.03-3.14-61.65-10.81-91.73-1.53-6.02-3.19-12.61-6.86-17.34-6.83-8.8-16-15.19-27.05-18.25-1.66-.46-2.71.19-3.82 1.74-1.84 2.59-4.39 4.68-6.37 7.19-1.17 1.47-2.14 3.27-2.62 5.07-.43 1.61.46 3.02 2.25 3.72 1.87.73 3.69 1.61 5.47 2.54 6.78 3.54 11.97 8.64 14.72 15.88 4.88 12.84 9.95 25.62 14.29 38.64 1.63 4.88 2.24 10.4 1.96 15.56-1.69 30.88-1.35 61.75-.65 92.64.03 1.12-.73 2.67-1.63 3.32-1.73 1.24-2.61-.39-3.71-1.59-3.22-3.52-3.97-7.41-3.81-12.21.42-12.28 0-24.59.05-36.88.04-10.4-.03-20.82.45-31.2.74-15.97-2.15-31.15-8.69-45.69-1.83-4.08-3.82-8.1-5.34-12.3-2.29-6.29-6.95-9.74-13.05-11.48-4.61-1.3-9.33-2.23-13.71-3.27z"/><path d="m222.21 311.57c-.41 5.53-5.78 9.04-11.32 7.33-2.82-.87-5.77-2.17-7.95-4.09-4.42-3.89-8.48-8.22-12.43-12.6-2.64-2.94-3.74-6.59-2.75-10.58.28-1.12.92-2.14 1.4-3.21 1.49.67 2.86-.8 4.75.59 8.36 6.13 17.04 11.83 25.68 17.57 2.04 1.35 3.63 2.61 2.62 4.99z"/><path d="m78.17 313.81c8.43-5.71 16.81-11.39 25.19-17.05.45-.31 1.02-.44 1.55-.63 5.54-2.03 7.9-.84 8.73 5.03.38 2.69-.15 5.56-.57 8.29-.11.7-1.35 1.28-2.15 1.79-3.93 2.5-7.88 4.98-11.85 7.43-5.04 3.11-10.71 2.7-16.27 2.71-.45 0-1.02-.79-1.32-1.32-1.05-1.85-1.99-3.74-3.31-6.25z"/></g><path d="m377.9 391.2c-.2.3-.4.5-.6.8-.7-.6-1.4-1-2.2-1.5.2-.3.4-.5.5-.8.6.4 1.4.8 2.3 1.5zm-1.8 6.1c-.2-.2-.5-.4-.9-.6.4-.6.8-1.2 1.2-1.9s.7-1.3.9-1.9c.3.3.5.5.8.7-.7 1.3-1.4 2.6-2 3.7zm2.2-9c-.3.3-.5.5-.6.8-.6-.6-1.3-1.1-2-1.5.3-.3.5-.5.6-.7.6.5 1.3.9 2 1.4zm.3.2v-.9h2 4.5c-.3 1.3-.6 2.5-1 3.6s-.9 2.1-1.4 3c.4.5 1 1 1.6 1.4s1.2.8 1.9 1.1c-.3.2-.5.4-.8.8-.4-.3-1-.7-1.6-1.2s-1.2-1.1-1.6-1.6c-.5.6-1.1 1.1-1.7 1.6s-1.4.9-2.1 1.4c-.1-.3-.3-.5-.7-.8.6-.2 1.2-.5 1.9-1s1.4-1.1 2-1.8c-.5-.8-.9-1.6-1.2-2.5s-.6-2-.8-3.2c-.4.1-.7.1-1 .1zm2.5 2.7c.3 1 .7 1.7 1 2.2.3-.5.6-1.1 1-2s.6-1.9.9-3h-3.2-.4c.1.9.3 1.8.7 2.8z" fill="#fcfbfa"/><path d="m396.5 388.5v1.5 3.6h1.5v.9c-.4 0-1 0-1.7 0h-7.9c-.5 0-.9 0-1.2 0v-.9h1.3v-3.5c0-.7 0-1.2 0-1.6h2.4c0-.8 0-1.4 0-1.7h1c0 .3-.1.8-.1 1.7h1.5c0-.8 0-1.4 0-1.7h1c0 .3-.1.9-.1 1.7zm-8.2 9.2c-.2-.3-.5-.5-.8-.8.8-.3 1.4-.6 1.9-.9s1-.7 1.4-1.1c.3.3.6.5.9.8-1.6 1-2.8 1.6-3.4 2zm2.6-6.8v-1.6h-1.5v1.6zm0 2.7v-1.9h-1.5v1.9zm2.4-2.7v-1.6h-1.5v1.6zm0 2.7v-1.9h-1.5v1.9zm.2 2 .7-.8c.4.2.9.5 1.6.8s1.3.7 1.8 1c-.3.3-.5.5-.8.8-.4-.3-1.5-1-3.3-1.8zm2-4.7v-1.6h-1.4v1.6zm0 2.7v-1.9h-1.4v1.9z" fill="#fcfbfa"/></svg>