<svg enable-background="new 0 0 400 400" viewBox="0 0 400 400" xmlns="http://www.w3.org/2000/svg"><path d="m374.8 390.4.4-.4c.7.5 1.3 1 1.8 1.4l-.5.5c-.5-.6-1.1-1.1-1.7-1.5zm1 7.3-.6-.3c.5-1.4 1.1-2.8 1.5-4.3.2.1.4.2.6.3-.5 1.3-1 2.8-1.5 4.3zm-.4-10.3.4-.4c.4.3 1 .8 1.7 1.4l-.5.5c-.4-.5-1-1-1.6-1.5zm2.5.3h1.7v-1h.6v1h3.5v-1h.6v1h1.8v.5h-1.8v1.4h-2v1h3.2v2h-3.2v.9h3.3v.5h-3.4c0 .3-.1.6-.1.9h4v.5h-3.7c.7.9 1.9 1.5 3.8 1.7-.1.2-.2.4-.3.6-2.1-.4-3.5-1.1-4-2.1-.4 1-1.8 1.7-4 2.2-.1-.2-.2-.4-.3-.6 2.1-.4 3.4-1 3.8-1.8h-3.4v-.5h3.6c.1-.3.1-.6.2-.9h-3.3v-.5h3.4c0-.3 0-.6 0-.9h-3.2v-2h3.3v-1h-2.1v-1.4h-1.7v-.5zm1.1 3.5v1h2.7c0-.3 0-.4 0-.4 0-.1 0-.2 0-.2 0-.1 0-.2 0-.3h-2.7zm1.2-3v.9h3.5v-.9zm4.7 3h-2.6v.6.4h2.6z" fill="#fbfcfa"/><path d="m393.6 386.7h.6v1.5h2.7v6.1h1.1v.6h-11v-.6h1.1v-6.1h2.7v-1.5h.6v1.5h2.1v-1.5zm-2.7 8.8.4.6c-1.2.6-2.5 1.3-3.8 1.9-.1-.2-.2-.4-.3-.6 1.2-.6 2.5-1.2 3.7-1.9zm-2.2-6.7v2.4h2.1v-2.4zm0 3v2.5h2.1v-2.5zm2.8-3v2.4h2.1v-2.4zm0 3v2.5h2.1v-2.5zm6 6.1c-1.4-.7-2.7-1.3-3.9-1.8l.3-.6c1.5.6 2.7 1.2 3.9 1.7zm-1.2-9.1h-2.1v2.4h2.1zm-2.1 3v2.5h2.1v-2.5z" fill="#fbfcfa"/><g fill="#010106"><path d="m267.93 374.59c0-4.71 0-9.06 0-13.41 0-14.67-.04-29.33.06-44 .01-1.54.47-3.4 1.41-4.56 7.57-9.46 10.04-20.25 8.95-32.11-1.08-11.7-2.14-23.4-3.04-35.12-.16-2.14-.92-3.4-2.65-4.6-10.51-7.29-20.74-14.98-28.36-25.44-2.59-3.56-4.87-7.61-6.17-11.78-1.07-3.46-1.48-7.74-.45-11.14 5.22-17.25 2.56-33.9-3.05-50.35-1.46-4.28-3.73-8.33-6.01-12.27-3.93-6.77-7.99-13.48-12.29-20.01-5.47-8.31-6.21-17.31-4.61-26.75 1.89-11.12 1.92-11.14 11.7-16.69 23.54-13.35 47.1-26.68 70.65-40.02.67-.38 1.37-.72 2.37-1.24v21.03c-7.36 2.27-14.96 4.41-22.43 6.96-8.78 2.99-17.53 6.09-26.13 9.56-14.74 5.96-20.7 16.24-19.92 33.21.22 4.76 1.39 8.85 5.04 12.24 4.84 4.48 9.33 9.33 14.07 13.91 2.77 2.67 6.32 3.3 9.66 1.72 6.04-2.85 11.96-6 17.68-9.45 1.77-1.06 2.71-3.48 4.05-5.26 5.72-7.59 9.42-8.9 18.53-6.59.11.03.21.08.32.1 8.86 1.75 16.39 5.39 21.06 13.73 1.65 2.94 4.15 5.41 6.38 8.24 2.09-5.14 3.76-9.98 5.97-14.56 3.52-7.32 6.32-8.71 14.2-7.01 4.11.89 8.06 2.5 12.38 3.88-2.46 9.21-5.24 17.94-7.07 26.87-2.84 13.9-10.44 25.58-16.72 37.87-10.42 20.41-21.09 40.69-31.83 60.94-1.35 2.54-.74 3.75 1 5.63 5.86 6.31 11.64 12.7 17.12 19.34 7.99 9.68 12.31 21.2 15.48 33.17.26.98-.61 2.74-1.5 3.45-15.04 12.01-30.21 23.88-45.23 35.91-1.53 1.22-3.01 3.18-3.4 5.02-1.55 7.42-2.63 14.95-3.94 22.42-.56 3.18-.9 6.46-1.98 9.46-1.74 4.91-5.61 7.3-11.3 7.7zm17.71-260.33c-9.71 7.82-19.37 15.62-29.06 23.39-6.53 5.23-6.46 5.18-3.78 13.19.68 2.02 1.68 2.45 3.6 2.45 21.94-.06 43.89-.03 65.83-.05.69 0 1.37-.19 2.09-.29-12.92-12.93-25.65-25.66-38.68-38.69zm-28.37 74.69c21.32-4.65 42.43-9.25 64.08-13.97-5.19-4.86-10.75-8.03-16.94-8.85-9.61-1.27-19.35-1.63-29.05-2.09-5.99-.29-12-.05-18.09-.05zm46 17.86c-5.69-.84-11.24-1.36-16.64-2.53-5.46-1.18-10.21-.31-14.99 2.55-4.53 2.72-9.43 4.82-14.42 7.32 2.01 2.9 3.85 5.3 5.41 7.86 1.17 1.94 2.7 2.62 4.89 2.79 15.38 1.22 26.64-5.74 35.75-17.99zm-2.95 88.44c.24.16.47.31.71.47 3.83-3.88 7.56-7.86 11.53-11.58 1.73-1.62 1.73-2.93.82-4.93-3.9-8.51-7.64-17.08-11.46-25.63-.33-.74-.81-1.42-1.59-2.76-.01 15.34-.01 29.89-.01 44.43z"/><path d="m203.32 302.69c0-8.31.34-16.79-.07-25.24-1.17-24.03-2.29-48.07-6.66-71.8-1.8-9.8-4.22-19.44-9.23-28.22-1.05-1.84-2.26-2.59-4.43-2.81-22-2.17-43.99-4.5-65.98-6.98 9.84-1.72 19.74-2.01 29.69-1.31 2.67.19 5.4.46 8.03.13 6.49-.81 10.58-5.04 13.42-10.53 1.52-2.94 2.52-6.15 4.09-10.09-9.39-2.44-18.24-5.11-27.25-6.99-13.29-2.77-26.75-4.39-40.34-2.48-12.12 1.71-23.42 5.64-33.51 12.76-8.59 6.06-17.25 12.03-25.89 18.04-.87.6-1.77 1.17-2.32 2.01 3.78-4.08 7.39-8.35 11.38-12.21 24-23.17 48.11-46.22 72.1-69.4 1.77-1.71 3.3-2.05 5.6-1.51 19.97 4.68 34.51 16.77 45.8 33.33 11.95 17.54 18.77 37.24 24.16 57.53 5.94 22.39 10.79 45.02 13.25 68.09 1.87 17.51 2.52 35.06-.44 52.53-.19 1.1-1.37 2.42-2.42 2.89-2.43 1.09-5.06 1.74-7.62 2.54-.19.06-.43-.07-1.36-.28zm-103.16-177.82c.56 1.13 1.05 1.88 1.33 2.7 1.26 3.71 3.54 4.39 7.42 3.77 11.14-1.78 22.37-2.96 33.56-4.41 4.76-.62 9.5-1.32 14.89-2.07-8.76-7.54-16.87-14.52-25.1-21.61-10.73 7.23-21.28 14.33-32.1 21.62z"/></g></svg>