<svg enable-background="new 0 0 400 400" viewBox="0 0 400 400" xmlns="http://www.w3.org/2000/svg"><path d="m374.8 390.4.4-.4c.7.5 1.3 1 1.8 1.4l-.5.5c-.5-.6-1.1-1.1-1.7-1.5zm1 7.3-.6-.3c.5-1.4 1.1-2.8 1.5-4.3.2.1.4.2.6.3-.5 1.3-1 2.8-1.5 4.3zm-.4-10.3.4-.4c.4.3 1 .8 1.7 1.4l-.5.5c-.4-.5-1-1-1.6-1.5zm2.5.3h1.7v-1h.6v1h3.5v-1h.6v1h1.8v.5h-1.8v1.4h-2v1h3.2v2h-3.2v.9h3.3v.5h-3.4c0 .3-.1.6-.1.9h4v.5h-3.7c.7.9 1.9 1.5 3.8 1.7-.1.2-.2.4-.3.6-2.1-.4-3.5-1.1-4-2.1-.4 1-1.8 1.7-4 2.2-.1-.2-.2-.4-.3-.6 2.1-.4 3.4-1 3.8-1.8h-3.4v-.5h3.6c.1-.3.1-.6.2-.9h-3.3v-.5h3.4c0-.3 0-.6 0-.9h-3.2v-2h3.3v-1h-2.1v-1.4h-1.7v-.5zm1.1 3.5v1h2.7c0-.3 0-.4 0-.4 0-.1 0-.2 0-.2 0-.1 0-.2 0-.3h-2.7zm1.2-3v.9h3.5v-.9zm4.7 3h-2.6v.6.4h2.6z" fill="#fbfcfa"/><path d="m393.6 386.7h.6v1.5h2.7v6.1h1.1v.6h-11v-.6h1.1v-6.1h2.7v-1.5h.6v1.5h2.1v-1.5zm-2.7 8.8.4.6c-1.2.6-2.5 1.3-3.8 1.9-.1-.2-.2-.4-.3-.6 1.2-.6 2.5-1.2 3.7-1.9zm-2.2-6.7v2.4h2.1v-2.4zm0 3v2.5h2.1v-2.5zm2.8-3v2.4h2.1v-2.4zm0 3v2.5h2.1v-2.5zm6 6.1c-1.4-.7-2.7-1.3-3.9-1.8l.3-.6c1.5.6 2.7 1.2 3.9 1.7zm-1.2-9.1h-2.1v2.4h2.1zm-2.1 3v2.5h2.1v-2.5z" fill="#fbfcfa"/><g fill="#010106"><path d="m163.27 120.75c-7.01-4.12-13.71-8.15-20.53-11.96-.92-.51-2.58-.35-3.63.12-7.25 3.23-14.38 6.7-21.63 9.92-2.84 1.26-5.81 2.45-8.84 3.01-6.07 1.13-11.21-3.35-11.11-9.47.01-.82 1.01-1.86 1.81-2.4 12.64-8.46 25.33-16.84 38.01-25.25 9.88-6.55 19.79-13.06 29.59-19.73 1.25-.85 2.31-2.4 2.81-3.85 4.11-11.93 8.07-23.92 12.18-36.19 5.26 2.91 10.35 5.64 15.33 8.55.84.49 1.54 1.63 1.83 2.61 1.27 4.39 2.71 8.78 3.45 13.28 1.25 7.61 4.76 13.82 10.14 19.21 8.93 8.94 17.94 17.82 26.55 27.07 6.27 6.73 10.43 14.77 12.06 23.96.25 1.4.3 2.84.48 4.64-4.77 0-9.23.1-13.67-.08-.9-.04-1.87-1.05-2.63-1.8-2.93-2.92-5.72-5.99-8.69-8.88-5.17-5.02-12.98-4.95-17.91.33-3.35 3.59-6.41 7.45-9.42 11.33-1.77 2.29-1.88 4.73-.28 7.46 3.05 5.2 5.88 10.55 8.55 15.96 1.26 2.56 3.06 4.22 5.53 5.51 9.68 5.04 20.11 7.33 30.83 8.59 7.55.88 15.16 1.42 21.78 5.85 5.8 3.87 8.69 9.34 9.69 16.8-4.21.15-8.17.55-12.11.39-16.93-.7-33.04-5.34-49-10.59-13.12-4.31-26.45-7.5-40.32-7.95-12.05-.39-24.02.6-35.31 4.94-6.52 2.51-10.29 8.38-12.75 14.84-3 7.87-2.01 15.89-.47 23.83 1.93 9.98 4.21 19.89 6.25 29.85.44 2.17.79 4.44.65 6.64-.22 3.37-1.36 6.53-5.02 7.58-3.64 1.04-6.89-.18-9.36-2.95-9.91-11.08-15.19-24.17-16.08-38.93-1.1-18.21 2.81-35.34 12.02-51.14.94-1.62 2.56-3.1 4.22-3.98 7.79-4.14 15.62-8.25 23.61-12 10.85-5.12 17.12-13.94 21.39-25.12zm24.22-55.22c-6.59 7.72-12.9 15.08-19.14 22.51-.43.51-.65 1.8-.31 2.28 4.54 6.45 9.2 12.81 13.87 19.27 8.08-5.6 15.85-10.97 23.78-16.46-6.1-9.27-11.99-18.2-18.2-27.6zm-3.66 84.8c-2.65-2.84-5.24-5.63-7.92-8.5-1.59 3.11-3.25 6.34-5.15 10.03 4.92-.57 9.29-1.08 13.07-1.53z"/><path d="m262.88 212.63c-6.56 5.1-12.72 9.63-20.95 10.73-2.34.31-5.27 2.53-6.38 4.68-3.76 7.3-6.83 14.96-10.27 22.73 6.46 2.49 12.29 3.45 18.19 2.5 6.27-1.01 11.69.75 16.9 3.87.66.4 1.34.76 1.29.73 4.6-5.35 8.68-10.76 13.45-15.48 4.74-4.7 10.66-5.94 17.01-3.02 3.48 1.6 4.52 7.75 1.76 10.31-9.76 9.02-13.28 20.63-13.96 33.44-.68 12.85-1.01 25.73-2.21 38.53-.87 9.28-5.69 17.11-11.81 23.99-10.66 12-24.61 18.7-39.4 23.94-9.03 3.2-18.37 4.78-27.93 5.16-1.2.05-2.45-.17-3.62-.46-2.82-.7-5.57-1.99-8.42-2.2-11.12-.84-14.41-8.8-16.86-17.76-1.73-6.34-1.39-12.71.15-18.93 1.65-6.71 3.82-13.3 5.98-19.87.39-1.19 1.76-2.2 2.89-2.97 5-3.38 10.18-6.49 15.11-9.96 11.7-8.22 16.73-19.71 15.93-33.83-.45-8.04-.9-16.08-1.66-24.09-.92-9.69 3.13-17.28 9.96-23.46 3.76-3.41 8.09-6.33 12.53-8.82 6.9-3.86 14.12-7.17 20.53-10.38 4.08 3.65 7.8 7.02 11.79 10.62zm-3.15 80.91c-.79-4.5-1.07-8.54-2.26-12.29-1.9-6.03-7.24-8.62-12.37-11.55-4.26-2.42-7.43-.31-10.95 1.17-1.44.61-3.01 1.04-4.25 1.94-.87.63-1.85 1.95-1.8 2.9.32 5.24.86 10.47 1.55 15.68.11.8 1.4 2.05 2.16 2.07 8.95.13 17.88.08 27.92.08zm-43.08 55.33c-2.49-6.39-4.7-12.58-7.33-18.57-1.23-2.81-3.02-5.48-5.03-7.81-2.96-3.43-3.31-3.08-7.18-.7-3.4 2.08-5.04 4.57-4.71 8.68.22 2.75-.3 5.58-.71 8.34-.79 5.37 1.26 9.88 4.1 14.15.41.62 1.72 1.18 2.41 1 6.13-1.59 12.22-3.35 18.45-5.09zm22.32-7.22c4.45-4.51 8.8-8.28 12.32-12.71 2.2-2.77 3.4-6.45 4.54-9.89.83-2.5-.37-4.86-3.05-5.49-8.07-1.9-16.27-1.99-24.96-1.29 3.75 9.88 7.33 19.32 11.15 29.38z"/><path d="m128.51 298.88c.6-3.96 1.05-7.82 1.85-11.6.21-1 1.42-1.92 2.36-2.61 6.97-5.04 13.96-10.08 21.04-14.97 1.76-1.22 2.37-2.56 2.51-4.67.88-12.85-.8-25.44-3.7-37.89-2.52-10.84.36-20.05 8.57-27.27 4.31-3.8 9.38-6.78 14.3-9.83 3.25-2.02 7.04-1.14 10.01 1.73 2.55 2.47 3.06 5.99 1.2 9.54-3.87 7.43-7.68 14.89-11.81 22.18-1.66 2.93-2.14 5.75-1.57 8.95 1.58 8.9 3.03 17.83 4.71 26.72 1.77 9.35-.12 17.96-4.71 26.12-.27.48-.61.97-1.03 1.29-12.87 9.7-27.35 13.7-43.73 12.31z"/></g></svg>