<svg enable-background="new 0 0 400 400" viewBox="0 0 400 400" xmlns="http://www.w3.org/2000/svg"><path d="m5.17 384 .55-.58c.85.61 1.65 1.24 2.4 1.87l-.59.64c-.83-.73-1.62-1.38-2.36-1.93m1.22 9.53-.82-.34c.71-1.76 1.37-3.64 1.98-5.63.24.13.5.25.76.36-.6 1.67-1.24 3.54-1.92 5.61m-.5-13.5.57-.54c.56.44 1.31 1.06 2.26 1.87l-.64.64c-.68-.66-1.41-1.32-2.19-1.97m3.25.46h2.24v-1.36h.77v1.36h4.57v-1.36h.76v1.36h2.28v.69h-2.28v1.84h-2.64v1.26h4.18v2.64h-4.21c0 .45-.02.86-.05 1.21h4.32v.69h-4.38c-.04.34-.1.75-.19 1.22h5.15v.69h-4.82c.87 1.19 2.51 1.92 4.93 2.19-.17.31-.3.57-.37.76-2.77-.49-4.52-1.41-5.26-2.76-.56 1.26-2.3 2.23-5.24 2.9-.12-.24-.26-.48-.43-.72 2.73-.55 4.38-1.34 4.96-2.38h-4.38v-.69h4.65c.1-.38.17-.79.21-1.22h-4.32v-.69h4.4c.03-.34.05-.75.05-1.21h-4.2v-2.64h4.23v-1.26h-2.69v-1.84h-2.24zm1.46 4.46v1.29h3.45c.01-.4.02-.57.01-.53v-.32-.45h-3.46zm1.55-2.59h4.57v-1.19h-4.57zm6.11 2.59h-3.42v.77c-.01.19-.01.37-.02.53h3.44z" fill="#fafafc"/><path d="m32.63 379.16h.82v1.98h3.54v7.89h1.46v.78h-14.37v-.78h1.46v-7.89h3.54v-1.98h.82v1.98h2.73zm-3.49 11.48.5.73c-1.61.82-3.28 1.63-5 2.41-.13-.27-.28-.55-.44-.82 1.75-.72 3.4-1.49 4.94-2.32m-2.78-5.55h2.73v-3.18h-2.73zm0 3.95h2.73v-3.2h-2.73zm3.54-3.95h2.73v-3.18h-2.73zm0 3.95h2.73v-3.2h-2.73zm7.89 4.68c-1.84-.92-3.51-1.7-5.02-2.32l.45-.73c1.89.8 3.57 1.55 5.04 2.23zm-1.62-11.81h-2.73v3.18h2.73zm-2.73 7.13h2.73v-3.2h-2.73z" fill="#fafafc"/><g fill="#010101"><path d="m161.19 246.23c3.38-1.4 6.68-2.76 10.77-4.45 0-8.76-.03-18.33.02-27.9.01-2.27-1.24-3.42-3.11-4.19-1.34-.55-2.67-1.15-4.04-1.62-4.55-1.55-7.08-4.56-7.9-9.42-1.15-6.83-2.8-13.57-4.16-20.36-.88-4.35-3.41-7.41-7.15-9.6-.77-.45-1.56-.88-2.31-1.37-1.5-.98-4.16-1.72-2.54-4.03.68-.98 3.56-1.37 4.87-.78 3.8 1.73 7.33 4.08 10.93 6.25.42.25.73.84.91 1.34 2.26 6.25 4.07 12.61 4.58 19.28.12 1.55.6 3.07.82 4.61.56 3.87 2.61 6.13 6.32 7.79 10.97 4.9 22.35 4.73 33.76 3.09 7.65-1.09 12.26-6.14 13.7-13.74 1.29-6.8 2.26-13.67 3.45-20.5.29-1.64.81-3.26 1.4-4.82 1.85-4.92 5-6.75 10.18-5.75.9.17 2.04 1.14 2.3 1.98.17.56-.89 2.03-1.64 2.25-5.62 1.63-7.05 6.04-7.62 11.04-.85 7.54-1.62 15.1-2.43 22.65-.55 5.15-3.27 8.76-8.01 10.71-2.8 1.15-3.71 3.04-3.6 5.98.26 6.66-.93 13.45 1.87 19.87.13.29.13.67.08.99-.79 4.65-.25 8.4 5.51 9.29.71.11 1.56 1.66 1.66 2.61.07.63-.96 1.82-1.7 2.02-2.42.67-4.91 1.19-7.41 1.39-2.32.18-4.68-.12-7.03-.21-3.2-.12-4.85 1.68-5.05 4.61-.9 13.55 3.32 22.48 15.74 28.79 2.7 1.37 6.55 1.32 9.7.83 6.63-1.03 13.03-2.99 18.51-7.27 6.94-5.43 10.17-16.25 6.9-25.42-1.11 1.75-2 3.15-2.89 4.55-2.44 3.86-6.04 5.66-10.49 5.23-1.62-.15-3.13-1.39-4.7-2.13.06-.41.12-.82.18-1.23 2.65-1.07 5.32-2.1 7.95-3.22 3.11-1.32 5.31-5.28 4.54-8.5-.18-.77-1.15-1.63-1.95-1.91-1.88-.66-3.93-.87-5.82-1.51-1.48-.5-2.84-1.37-4.25-2.08.04-.45.08-.91.12-1.36 2.41-.38 4.8-.93 7.22-1.11 4.62-.34 5.7-1.76 4.39-6.23-2.05-7.01-2.28-7.14-9.61-7.73-2.89-.23-6.22.07-7.49-4.03 4.92-1.44 9.69-2.78 14.77-1.51 5.03 1.25 7.66 4.33 8.07 9.51.11 1.45.26 2.93.08 4.36-.55 4.43.86 8.01 4.05 11.12.95.93 1.52 2.47 1.8 3.83 1.63 7.82 1.63 15.77-1.31 23.16-2.62 6.58-7.13 12.31-13.42 15.83-11.36 6.35-23.23 8.73-35.8 2.04-.56 1.01-1.28 1.79-1.43 2.67-1.78 10.38-3.54 20.79-.77 31.26.54 2.03 1.32 4.07 2.43 5.85 5.6 9 10.83 18.29 17.21 26.7 4.07 5.37 8.73 10.77 15.43 13.47.69.28 1.38.85 1.8 1.47.57.84 1.49 2.36 1.2 2.7-.68.8-2.09 1.65-3.01 1.46-1.91-.38-3.92-1.09-5.49-2.23-12.9-9.31-22.93-21.19-30.84-34.92-.86-1.49-2.06-2.77-3.68-4.93-2.78 4.5-5.04 8.4-7.53 12.14-4.15 6.23-8.28 12.57-14.68 16.74-1.68 1.1-4.26.9-6.45 1.07-.52.04-1.24-.73-1.62-1.29-.16-.24.16-1.14.5-1.35 8.95-5.53 13.1-15.04 19.01-23.06 4.24-5.74 6.82-12.38 7.6-19.49.42-3.83.44-7.81-.1-11.62-.8-5.72-2.23-11.36-3.49-17.47-1.69.47-3.16.59-4.34 1.24-12.17 6.69-24.42 6.42-35.98-.78-7.25-4.51-10.49-12.24-11.96-20.59-1.65-9.38-1.21-18.8.3-28.06.73-4.48 3.2-8.81 5.49-12.87 1.72-3.04 8.06-4.05 11.24-2.28.8.45 1.71 1.59 1.69 2.39-.02.83-1.03 2.26-1.74 2.35-7.32.95-7.44 7.36-9.77 12.15 3.03 3.25 8.8-1.11 11.06 4.74-3.26.87-6.38 1.61-9.44 2.57-1.42.44-3.71 1.14-3.86 2.02-.43 2.46-.1 5.11.32 7.62.08.49 1.96 1 2.97.94 2.78-.16 5.53-.78 8.31-.87 1.24-.04 2.5.76 3.76 1.18-.56 1.33-.82 3.51-1.74 3.84-2.95 1.06-6.15 1.89-9.26 1.94s-3.55 1.19-2.64 3.62c2.06 5.5 4.58 11.05 9.4 14.38 3.19 2.21 7.65 3.08 11.66 3.51 16.68 1.79 28.68-12.56 26.42-29.92-.74-5.66-2.39-6.77-8.19-6.65-6.25.12-12.51-.15-18.76-.26-2.43-.04-3.81-1.39-4.75-4.4zm19.49-3.55c7.35 0 14.67.08 21.99-.11.78-.02 2.02-1.53 2.17-2.49.31-1.95-.02-4-.01-6.01.02-5.69.16-11.37.06-17.06-.03-1.82.52-4.43-2.54-4.53-6.35-.2-12.7-.27-19.06-.31-2.02-.02-3.15.86-3.47 3.15-1.32 9.25-.69 18.42.86 27.36z"/><path d="m189.68 190.79c-3.93-1.83-6.19-4.87-8.05-8.62-4.06-8.19-8.78-16.06-12.73-24.3-2.43-5.06-4.97-10.25-4.67-16.24.05-1.01-1.14-2.36-2.1-3.09-9.81-7.44-11.67-14.88-6.99-26.41 5.31-13.08 13.78-23.95 23.19-34.19 1.69-1.84 4.04-2.6 6.37-1.31 1.92 1.06 3.85 2.34 5.27 3.97 3.39 3.87 7.42 7.57 9.5 12.12 4.39 9.55 10.63 18.47 11.77 29.27.27 2.52-.78 5.17-1.24 7.76-.56 3.14-1.91 6.36-1.58 9.39 1.08 10.04-.37 19.3-5.9 27.92-1.53 2.38-2.38 5.32-2.99 8.13-1.41 6.47-5.83 10.89-9.85 15.6zm-8.89-79.09v.27c-5.67 0-11.35-.1-17.02.05-2.5.07-3.95 1.26-3.76 4.25.2 3.1-.28 6.24-.39 9.37-.12 3.39 2.2 7.13 5.41 8.35 9.76 3.72 19.87 4.65 29.93 1.96 10.3-2.75 12.48-10.14 10.23-19.48-.88-3.66-3.48-4.92-7.02-4.82-5.79.18-11.58.05-17.38.05zm8.77 69.44c.58-1.18 1.13-2.26 1.64-3.35 4.8-10.32 9.86-20.52 10.41-32.25.19-4.06-.92-5.38-4.68-4.05-6.5 2.28-13.1 2.49-19.82 1.43-4.9-.77-5.37-.33-4.7 4.46.09.66.28 1.31.48 1.95 3.43 11 7.6 21.63 16.67 31.81zm9.04-76.53c-1.23-5.45-9.17-16.47-13.46-18.93-1.42-.82-2.58-1.02-3.79.38-4.68 5.38-9.45 10.69-14.08 16.12-.47.55-.22 1.71-.35 3.09 10.82-2.32 21.16 2.69 31.68-.66z"/><path d="m240.82 80.67c-3.84.61-5.75-.66-7.7-2.9-4.85-5.55-10-10.85-15.19-16.1-.88-.89-2.53-1.38-3.84-1.41-5.48-.15-10.96-.03-16.44-.07-10.81-.09-21.62-.21-32.43-.34-4.66-.05-8.57.9-11.54 5.21-2.44 3.54-5.78 6.69-10.53 7.05-1.07.08-2.75-.56-3.16-1.37-.39-.77.18-2.59.93-3.26 10.92-9.76 21.98-19.35 32.91-29.11 3.41-3.05 6.48-6.47 9.75-9.68 4.39-4.33 6.39-4.6 10.82-.2 7.69 7.64 15.14 15.52 22.5 23.48 6.4 6.92 12.6 14.03 18.75 21.18 1.88 2.19 3.31 4.78 5.17 7.52zm-31.76-26.89c.2-.47.39-.94.59-1.41-3.44-3.43-6.76-6.99-10.35-10.25-2.71-2.46-5.69-4.65-8.68-6.77-1.66-1.17-3.29-1.02-5.09.47-6.1 5.08-12.39 9.92-18.59 14.88-.38.3-.59.8-1.34 1.85 14.91.42 29.19.82 43.46 1.23z"/></g></svg>