<svg enable-background="new 0 0 400 400" viewBox="0 0 400 400" xmlns="http://www.w3.org/2000/svg"><path d="m5.17 384 .55-.58c.85.61 1.65 1.24 2.4 1.87l-.59.64c-.83-.73-1.62-1.38-2.36-1.93m1.22 9.53-.82-.34c.71-1.76 1.37-3.64 1.98-5.63.24.13.5.25.76.36-.6 1.67-1.24 3.54-1.92 5.61m-.5-13.5.57-.54c.56.44 1.31 1.06 2.26 1.87l-.64.64c-.68-.66-1.41-1.32-2.19-1.97m3.25.46h2.24v-1.36h.77v1.36h4.57v-1.36h.76v1.36h2.28v.69h-2.28v1.84h-2.64v1.26h4.18v2.64h-4.21c0 .45-.02.86-.05 1.21h4.32v.69h-4.38c-.04.34-.1.75-.19 1.22h5.15v.69h-4.82c.87 1.19 2.51 1.92 4.93 2.19-.17.31-.3.57-.37.76-2.77-.49-4.52-1.41-5.26-2.76-.56 1.26-2.3 2.23-5.24 2.9-.12-.24-.26-.48-.43-.72 2.73-.55 4.38-1.34 4.96-2.38h-4.38v-.69h4.65c.1-.38.17-.79.21-1.22h-4.32v-.69h4.4c.03-.34.05-.75.05-1.21h-4.2v-2.64h4.23v-1.26h-2.69v-1.84h-2.24zm1.46 4.46v1.29h3.45c.01-.4.02-.57.01-.53v-.32-.45h-3.46zm1.55-2.59h4.57v-1.19h-4.57zm6.11 2.59h-3.42v.77c-.01.19-.01.37-.02.53h3.44z" fill="#fafafc"/><path d="m32.63 379.16h.82v1.98h3.54v7.89h1.46v.78h-14.37v-.78h1.46v-7.89h3.54v-1.98h.82v1.98h2.73zm-3.49 11.48.5.73c-1.61.82-3.28 1.63-5 2.41-.13-.27-.28-.55-.44-.82 1.75-.72 3.4-1.49 4.94-2.32m-2.78-5.55h2.73v-3.18h-2.73zm0 3.95h2.73v-3.2h-2.73zm3.54-3.95h2.73v-3.18h-2.73zm0 3.95h2.73v-3.2h-2.73zm7.89 4.68c-1.84-.92-3.51-1.7-5.02-2.32l.45-.73c1.89.8 3.57 1.55 5.04 2.23zm-1.62-11.81h-2.73v3.18h2.73zm-2.73 7.13h2.73v-3.2h-2.73z" fill="#fafafc"/><g fill="#010101"><path d="m107.61 98.11c-8.04 1.27-15.95 2.57-23.87 3.73-2.4.35-4.88.53-7.3.38s-4.12-1.91-3.91-4.23c.25-2.8.54-6.23 2.22-8.16 9.2-10.58 15.3-23.06 22.56-34.85 4.41-7.17 10.3-13.43 15.45-20.15 1.65-2.15 3.64-2.14 5.96-1.54 7.16 1.86 12.67 5.99 16.68 12.14 1.71 2.62 3.2 5.38 4.82 8.06 5.78 9.51 12.1 18.54 21.02 25.48 3.44 2.68 6.64 5.72 7.85 10.2.6 2.23 1.64 4.41-.93 6.31-3.26 2.41-6.02 2.77-8.99 1.3-3.47-1.72-7-3.46-10.69-4.52-3.68-1.06-6.28.83-6.51 4.66-.17 2.82.3 5.82 1.13 8.54 3.2 10.38 7.51 20.15 13.52 29.38 7.49 11.5 13.96 23.68 20.33 35.86 1.38 2.64.96 6.58.41 9.77-.86 5.04-2.13 10.1-3.94 14.87-1.82 4.8-2.79 9.63-2.95 14.68-.35 10.91-4.86 20.83-7.24 31.26-.07.32-.17.75-.4.91-5.11 3.43-5.71 9.03-6.99 14.33-1 4.16-3.43 7.39-6.54 10.28-3.26 3.03-7.5 5.69-5.59 11.81-5.13-1.69-9.59-3.06-13.97-4.68-.9-.33-1.64-1.46-2.17-2.38-4.94-8.64-10.33-17.07-14.52-26.06-2.64-5.67-3.59-12.16-5.02-18.35-.62-2.66-1.55-4.75-4.04-6.11-1.66-.91-3.02-2.34-4.68-3.25-12.83-7.07-16.61-19.2-18.24-32.52-.14-1.17.16-2.44.47-3.61 3.38-12.86 6.79-25.72 10.26-38.56.37-1.36.98-2.8 1.9-3.83 5.15-5.77 8.01-12.46 9.27-20.09 1.1-6.8 2.93-13.47 4.64-21.06zm-13.05 87.15c4.03 5.61 7.85 10.98 11.76 16.28.55.75 1.47 1.37 2.35 1.73 14.06 5.82 27.91 5.12 41.39-1.74 2.16-1.1 4.53-2.96 5.45-5.06 1.68-3.84 2.67-8.06 3.34-12.22.98-6.05-5.76-11.53-11.8-10.45-8.55 1.52-17.16 2.91-25.81 3.68-9.37.81-18.3 2.61-26.68 7.78zm27.6-66.65c-.26 1.36-.52 2.77-.8 4.18-1.85 9.15-4.21 18.28-10.44 25.42-4.3 4.93-3.14 10.48-4.58 16.27 14.75-2.75 28.85-5.38 42.73-7.97.92-3.29.09-5.55-1.99-7.67-7.34-7.46-13.25-15.97-17.34-25.61-1.48-3.49-3.8-4.9-7.58-4.62zm15.87-39.9c-3.98-9.71-9.89-16.39-19.25-19.67-.76-.27-2.19-.11-2.64.42-4.93 5.79-9.77 11.65-14.49 17.6-.7.89-1.24 3.06-.78 3.5 1.15 1.08 2.94 2.12 4.45 2.08 3.78-.1 7.55-.79 11.32-1.26 6.87-.85 13.72-1.71 21.39-2.67zm-8.41 156.3c.49 2.39.73 4.4 1.34 6.3 1.28 4 5.26 5.59 8.98 3.62 1.05-.56 1.96-1.48 2.75-2.4 1.38-1.61 2.86-3.22 3.82-5.08.78-1.52 1.15-3.39 1.2-5.12.14-5.64-3.24-8.81-7.97-11.16-3.11-1.54-6.35-.85-7.39 2.46-1.2 3.8-1.89 7.77-2.73 11.38z"/><path d="m243.81 164.93c-5.21-1-10.19-2.03-15.19-2.89-3.29-.57-6.7-.6-9.92-1.43-3.98-1.03-6.72-3.77-8.54-8.56 5.84-1.87 11.4-4.56 17.22-5.32 11.82-1.54 23.77-2.17 35.69-2.91 8.48-.53 16.98-.95 25.47-.8 4.71.09 9.48 1.15 14.04 2.43 1.63.46 3.84 2.87 3.8 4.34-.06 2.26-1.24 5.47-2.99 6.49-3.03 1.77-6.84 2.28-10.37 3.12-2.04.48-4.27.25-6.24.9-3.6 1.18-5.14 3.75-4.59 7.42 1.71 11.37-.72 22.5-1.82 33.71-.06.62-.35 1.45-.82 1.75-3.1 2.04-2.39 4.93-1.95 7.83 2.97 19.38 2.34 38.76-.06 58.15-.7 5.66-1.35 11.35-1.51 17.04-.16 5.85-1.81 11.16-4.17 16.42-2.46 5.5-4.91 11.04-6.89 16.73-4.91 14.13-13.4 25.94-23.3 36.88-4.36 4.81-8.8 9.54-13.32 14.19-1.46 1.51-3.11 3.16-5 3.82-1.8.63-4.1.33-6.01-.19-.43-.11-.22-2.84-.18-4.36.26-9.34 6.8-15.2 12.15-21.7 2.7-3.28 5.62-6.34 5.7-11.01.02-.99.89-2.02 1.48-2.95 11.04-17.32 17.49-36.18 18.51-56.71.72-14.62.85-29.27 1.47-43.9.4-9.6 1.35-19.18 1.76-28.78.26-6.11-1.16-12-3.9-17.48-.38-.76-1.83-1.54-2.67-1.43-3 .39-5.5 1.56-7.68 4.1-5.36 6.24-11.83 10.41-20.61 7.72-1.15-.35-2.38-1.53-2.85-2.63-.26-.62.78-2.07 1.56-2.8 4.92-4.57 10.04-8.91 14.86-13.57 3.54-3.42 5.74-7.68 6.87-13.62z"/><path d="m269.24 122.53c-13.09-.31-25.87-2.14-37.36-8.94-2.34-1.39-4.53-3.68-5.81-6.08-7.46-13.94-10.44-29.18-11.92-44.72-.56-5.86-.29-11.83.04-17.72.1-1.86 1.24-4.05 2.58-5.4 5.31-5.33 11.94-8.45 19.03-10.86 7.47-2.54 14.82-3.99 22.9-3.31 11.77.98 23.64.94 35.47.89 9.46-.05 15.89 4.33 21.25 11.75 4.84 6.71 6.65 13.2 3.56 21.29-2.88 7.56-3.1 15.7-3.06 23.82.01 3.18-1.06 6.69-2.63 9.49-3.93 7.01-8.31 13.78-12.79 20.46-1.1 1.64-3.14 2.81-4.97 3.78-8.21 4.34-17.09 5.74-26.29 5.55zm30.82-50.38c-.09-.01-.18-.02-.27-.03 0-3.13.29-6.29-.07-9.38-.57-4.85-1.41-9.69-2.5-14.45-.27-1.19-1.85-2.72-3.04-2.94-8.78-1.63-17.61-2.99-26.44-4.37-.95-.15-1.99-.03-2.93.21-5.07 1.29-10.16 2.54-15.18 4.03-3.09.91-6.12 2.08-9.04 3.43-.83.38-1.61 1.76-1.7 2.75-.74 8.12-1.29 16.26-1.94 24.39-.6 7.53.56 14.75 4.11 21.42.95 1.79 2.75 3.66 4.58 4.35 4.35 1.63 8.89 3.15 13.47 3.7 12.68 1.5 24.82-.21 35.14-8.52 1.73-1.39 3.25-3.81 3.62-5.97 1.08-6.15 1.51-12.41 2.19-18.62z"/><path d="m282.97 85.78c-3.72 0-7.06.05-10.4-.04-.83-.02-1.8-.32-2.44-.82-3.38-2.64-7.19-3.94-11.44-4.2-2.98-.18-4.29-1.91-4.42-4.82-.36-7.61 4.64-13.08 12.4-13.39 1.67-.06 3.36-.01 5.01.22 10.17 1.4 14.16 6.7 12.7 16.87-.28 1.98-.88 3.91-1.41 6.18z"/></g></svg>