<svg enable-background="new 0 0 400 400" viewBox="0 0 400 400" xmlns="http://www.w3.org/2000/svg"><path d="m5.17 384 .55-.58c.85.61 1.65 1.24 2.4 1.87l-.59.64c-.83-.73-1.62-1.38-2.36-1.93m1.22 9.53-.82-.34c.71-1.76 1.37-3.64 1.98-5.63.24.13.5.25.76.36-.6 1.67-1.24 3.54-1.92 5.61m-.5-13.5.57-.54c.56.44 1.31 1.06 2.26 1.87l-.64.64c-.68-.66-1.41-1.32-2.19-1.97m3.25.46h2.24v-1.36h.77v1.36h4.57v-1.36h.76v1.36h2.28v.69h-2.28v1.84h-2.64v1.26h4.18v2.64h-4.21c0 .45-.02.86-.05 1.21h4.32v.69h-4.38c-.04.34-.1.75-.19 1.22h5.15v.69h-4.82c.87 1.19 2.51 1.92 4.93 2.19-.17.31-.3.57-.37.76-2.77-.49-4.52-1.41-5.26-2.76-.56 1.26-2.3 2.23-5.24 2.9-.12-.24-.26-.48-.43-.72 2.73-.55 4.38-1.34 4.96-2.38h-4.38v-.69h4.65c.1-.38.17-.79.21-1.22h-4.32v-.69h4.4c.03-.34.05-.75.05-1.21h-4.2v-2.64h4.23v-1.26h-2.69v-1.84h-2.24zm1.46 4.46v1.29h3.45c.01-.4.02-.57.01-.53v-.32-.45h-3.46zm1.55-2.59h4.57v-1.19h-4.57zm6.11 2.59h-3.42v.77c-.01.19-.01.37-.02.53h3.44z" fill="#fafafc"/><path d="m32.63 379.16h.82v1.98h3.54v7.89h1.46v.78h-14.37v-.78h1.46v-7.89h3.54v-1.98h.82v1.98h2.73zm-3.49 11.48.5.73c-1.61.82-3.28 1.63-5 2.41-.13-.27-.28-.55-.44-.82 1.75-.72 3.4-1.49 4.94-2.32m-2.78-5.55h2.73v-3.18h-2.73zm0 3.95h2.73v-3.2h-2.73zm3.54-3.95h2.73v-3.18h-2.73zm0 3.95h2.73v-3.2h-2.73zm7.89 4.68c-1.84-.92-3.51-1.7-5.02-2.32l.45-.73c1.89.8 3.57 1.55 5.04 2.23zm-1.62-11.81h-2.73v3.18h2.73zm-2.73 7.13h2.73v-3.2h-2.73z" fill="#fafafc"/><g fill="#010101"><path d="m189.36 287.94c.39-3.06.63-6.17 1.26-9.19.21-.99 1.29-1.99 2.23-2.6 9.31-6 18.71-11.84 27.97-17.92 1.26-.83 2.32-2.6 2.65-4.11.88-4.03 1.23-8.18 1.95-12.25.34-1.94-.28-3.11-1.93-4.13-5-3.08-10.08-3.39-15.32-.76-6.09 3.06-12.05 6.42-18.29 9.14-3.95 1.72-8.25 2.76-12.5 3.6-1.33.26-3.48-.76-4.38-1.89-1.34-1.69-.37-3.38 1.34-4.82 9.11-7.7 19.81-12.5 30.63-17.11 4.31-1.84 8.85-3.2 13-5.35 2.69-1.39 5.08-3.59 7.19-5.82 1.76-1.87 1.45-4.19-1.28-4.96-4.8-1.35-9.67-2.57-14.58-3.37-8.81-1.43-16.92-4.16-21.71-12.26-5.96-10.08-5.61-20.9-2.58-31.82.14-.5.53-.98.91-1.37 8.91-9.18 17.78-18.36 31.12-21.09 3.1-.64 7.1-1.35 8.72-3.51 1.52-2.03.49-6.01.51-9.14.03-5.04-.06-10.08.04-15.11.04-1.83-.33-3.03-2.34-3.33-3.97-.59-6.01-3.6-8.58-6.31-6.75-7.12-7.14-16.38-9.26-25.06-1.66-6.81-4.37-8.72-11.41-7.5-7.86 1.36-10.33.03-13.05-7.53 2.86-.61 5.63-1.28 8.43-1.78 1.98-.35 4.01-.39 5.99-.71 5.06-.83 7.49-3.53 7.29-8.66-.19-4.68-.81-9.35-1.28-14.02-.66-6.51 1.56-9.67 7.7-10.74 4.46 6.73 8.52 13.58 6.75 22.28-.3 1.49-.09 3.13.1 4.67.39 3.17 1.65 5.12 5.47 5.35 10.16.6 20.29 1.59 30.42 2.62 2.46.25 3.3-.62 3.87-2.82 1.24-4.76 2.65-9.47 4.15-14.15.75-2.34.75-5.1 3.52-6.54.56-.29.89-2.49.43-3-2.84-3.13-.34-5.28 1.11-7.65.34-.56.79-1.07 1.16-1.56 5.88 1.62 9.21 6.87 8.2 12.8-.94 5.51-1.97 11-2.82 16.52-.59 3.83.29 5.37 4.04 6.46 2.54.74 5.26.91 7.91 1.25 5.48.69 8.58 3.04 9.74 7.34.45 1.67.24 2.79-1.63 3.29-1.29.35-2.54.86-3.76 1.41-2.65 1.2-5.03 1.56-8.16.69-3.86-1.08-8.19-.58-12.32-.53-.78.01-1.76.95-2.27 1.72-1.71 2.6-3.19 5.37-4.88 7.99-2.34 3.62-4.06 8.21-7.35 10.55-8.7 6.19-11.71 14.93-13.02 24.65-.55 4.06-.37 8.24-.16 12.35.05 1.01 1.33 2.49 2.36 2.83 5.29 1.78 10.66 3.36 16.05 4.83 17.51 4.77 27.67 26.1 19.38 43.83-3.63 7.75-9.95 12.98-16.05 18.16-3.29 2.8-8.86 2.76-13.18 4.54-3.43 1.42-6.65 3.48-9.68 5.63-1.77 1.25-1.88 3.06-.45 5.23 2.21 3.34 4.78 5.98 8.26 8.06 9.89 5.9 19.64 12.05 29.42 18.14 5.29 3.3 7.19 5.77 7.76 10.18-7.02-.28-13.98 1.48-20.57-3.24-6.88-4.93-14.47-8.86-22.41-13.63-1.03 2.41-2.43 4.5-2.77 6.76-.63 4.17-.72 8.44-.86 12.68-.03.91.53 1.91 1.03 2.74 3.11 5.18 5.89 10.61 9.53 15.39 3.21 4.21 7.55 7.54 11.12 11.51 1.96 2.18 3.46 4.81 4.93 7.37.32.55-.14 1.98-.7 2.53-2.94 2.86-6.73 2.73-9.87.09-8.58-7.21-17.35-14.11-28.17-17.82-4-1.37-7.86-1.56-11.65.53-3.87 2.13-7.84 4.09-11.56 6.46-4.59 2.88-8.08 3.91-12.86 2.99zm34.35-136.84c-8.79 2.85-16.4 6.43-22.99 11.95-.83.69-2.02 1.62-2.06 2.48-.26 5.82-.56 11.99 3.41 16.66 3.88 4.56 8.33 8.88 13.26 12.22 5.51 3.74 12.64 3.92 12.33-5.84-.27-8.8-.61-17.61-1.34-26.39-.3-3.67-1.68-7.26-2.61-11.08zm17.2 44.79c4.65-2.29 8.57-3.69 11.86-5.99 3.63-2.54 6.77-5.81 9.95-8.95 6.01-5.92 5.87-14.46-.35-20.16-4.96-4.54-10.74-7.41-17.47-8.58-3.13-.54-4.11.51-4.73 3.28-2.06 9.26-2.35 18.61-1.44 27.99.36 3.8 1.3 7.55 2.18 12.41zm9.32-122.45c-2.26-.37-3.44-.61-4.63-.74-5.32-.59-10.67-1-15.96-1.76-3.94-.57-6.98 1.77-8.48 4.23-2.39 3.92-.62 8.4 1.33 12.43 1.72 3.55 4.9 4.71 8.32 4.2 2.62-.4 5.36-1.62 7.48-3.23 3-2.27 5.69-5.05 8.1-7.95 1.57-1.91 2.4-4.41 3.84-7.18z"/><path d="m189.38 108.55c-5.36 4.92-11.38 7.39-17.83 9.11-3 .8-5.88 2.07-8.8 3.16-2.97 1.1-4.07 3.36-3.63 6.35.67 4.53 1.28 9.08 2.26 13.54 3.87 17.52 1.86 34.43-5.03 50.86-1.51 3.61-3.74 6.47-7.58 8.01-2.89 1.16-5.47 3.14-8.39 4.19-5.17 1.86-7.07 5.75-7.6 10.73-.31 2.84-1.42 5.1-4 6.58-1.77 1.02-3.29 1.06-4.07-1-1.25-3.31-2.23-6.73-3.38-10.08-.5-1.45-.79-3.23-1.8-4.21-5.98-5.79-7.16-13.05-7.2-20.9-.02-2.89-1.19-5.76-1.82-8.65-.31-1.41-.87-2.83-.83-4.23.25-8.46.5-16.93 1.04-25.37.22-3.41 2-6.16 4.63-8.6 3.95-3.65 7.38-7.77 8.3-13.44.32-1.96-.21-3.04-2.02-3.49-3.9-.96-7.82-1.83-11.72-2.79-1.94-.48-3.96-.84-5.77-1.65-3.07-1.37-3.94-3.66-3.05-6.88 1.41-5.12 3.68-9.59 7.54-13.52 8.78-8.94 17.29-18.15 25.57-27.56 3.37-3.83 5.98-8.35 8.65-12.74 1.43-2.35 3.06-2.73 5.25-1.6 1.46.76 3.31 1.48 4.08 2.76 3.61 5.99 9.03 10.37 13.35 15.65 7.07 8.62 13.1 18.1 19.4 27.32 1.73 2.57 2.92 5.52 4.45 8.45zm-44.88-34.37c-8.51 9.09-16.74 17.76-24.8 26.6-2.79 3.06-1.48 6.02 2.78 6.46 7.56.79 15.13 1.48 22.72 1.96 7.1.45 13.71-1.3 19.88-5.36-3.42-12.2-12.05-20.65-20.58-29.66zm-2.9 50.09c-6.01 7.44-11.27 14.4-17.04 20.9-3.23 3.64-2.71 7.33-1.62 11.19.73 2.58 2.59 4.27 5.55 4.62 6.87.81 13.27-.67 19.5-3.45 2.14-.96 2.92-2.5 3-4.71.3-7.98-1.42-15.53-4.9-22.65-.99-2.02-2.75-3.66-4.49-5.9zm-9.56 66.87c6.97-2.55 12.15-6.28 13.29-13.86.51-3.35-.21-4.77-3.5-5.64-5.47-1.43-10.71-1.11-15.83 1.65-1.68.9-2.17 1.84-2.18 3.57-.01 6.41 4.25 10.23 8.22 14.28z"/><path d="m223.13 311.92c4.75.04 8.02 3 8.35 7.92.22 3.33-.1 6.7-.35 10.04-.44 5.89.32 11.57 2.46 17.1.87 2.23 2.27 3.7 4.54 3.88 5.32.43 10.65.69 15.98.86 2.67.08 5.38-.47 8.03-.23 5.57.5 8.51 6.54 5.61 11.33-.39.64-1.38 1.06-2.17 1.28-12.81 3.57-25.51 7.68-38.51 10.34-5.75 1.18-12.3.18-18.16-1.22-10.19-2.43-20.15-5.87-30.16-9.06-1.46-.47-2.93-1.67-3.84-2.93-2.17-3.01-.64-6.05 3.02-6.36 8.25-.69 16.5-1.27 24.74-2.11 1.3-.13 2.76-1.12 3.66-2.14 1.69-1.92 2.71-4.49 4.56-6.19 4.6-4.21 6.84-9.37 7.98-15.38 1.1-5.78 2.83-11.45 4.26-17.13z"/><path d="m183.38 334.45c-1.85-8.03 2.05-14.04 5.9-19.84.53-.79 4.33-.2 6.01.79 1.52.89 3.3 3.38 3.05 4.83-.72 4.22-2.35 8.3-3.75 12.39-.19.56-1.07 1.19-1.68 1.24-3.09.29-6.18.4-9.53.59z"/><path d="m247.63 325.95c.13-1.67-.17-3.55.51-4.95.67-1.38 2.29-3.12 3.59-3.21 4.54-.28 9.07 5.15 8.48 9.65-.19 1.44-.46 2.87-.8 4.28-1.34 5.54-1.4 5.58-6.45 5.25-2.57-.17-5.16-3.27-5.43-6.66-.12-1.44-.02-2.9-.02-4.35.04 0 .08-.01.12-.01z"/></g></svg>