<svg enable-background="new 0 0 400 400" viewBox="0 0 400 400" xmlns="http://www.w3.org/2000/svg"><path d="m374.8 390.4.4-.4c.7.5 1.3 1 1.8 1.4l-.5.5c-.5-.6-1.1-1.1-1.7-1.5zm1 7.3-.6-.3c.5-1.4 1.1-2.8 1.5-4.3.2.1.4.2.6.3-.5 1.3-1 2.8-1.5 4.3zm-.4-10.3.4-.4c.4.3 1 .8 1.7 1.4l-.5.5c-.4-.5-1-1-1.6-1.5zm2.5.3h1.7v-1h.6v1h3.5v-1h.6v1h1.8v.5h-1.8v1.4h-2v1h3.2v2h-3.2v.9h3.3v.5h-3.4c0 .3-.1.6-.1.9h4v.5h-3.7c.7.9 1.9 1.5 3.8 1.7-.1.2-.2.4-.3.6-2.1-.4-3.5-1.1-4-2.1-.4 1-1.8 1.7-4 2.2-.1-.2-.2-.4-.3-.6 2.1-.4 3.4-1 3.8-1.8h-3.4v-.5h3.6c.1-.3.1-.6.2-.9h-3.3v-.5h3.4c0-.3 0-.6 0-.9h-3.2v-2h3.3v-1h-2.1v-1.4h-1.7v-.5zm1.1 3.5v1h2.7c0-.3 0-.4 0-.4 0-.1 0-.2 0-.2 0-.1 0-.2 0-.3h-2.7zm1.2-3v.9h3.5v-.9zm4.7 3h-2.6v.6.4h2.6z" fill="#fbfcfa"/><path d="m393.6 386.7h.6v1.5h2.7v6.1h1.1v.6h-11v-.6h1.1v-6.1h2.7v-1.5h.6v1.5h2.1v-1.5zm-2.7 8.8.4.6c-1.2.6-2.5 1.3-3.8 1.9-.1-.2-.2-.4-.3-.6 1.2-.6 2.5-1.2 3.7-1.9zm-2.2-6.7v2.4h2.1v-2.4zm0 3v2.5h2.1v-2.5zm2.8-3v2.4h2.1v-2.4zm0 3v2.5h2.1v-2.5zm6 6.1c-1.4-.7-2.7-1.3-3.9-1.8l.3-.6c1.5.6 2.7 1.2 3.9 1.7zm-1.2-9.1h-2.1v2.4h2.1zm-2.1 3v2.5h2.1v-2.5z" fill="#fbfcfa"/><g fill="#010106"><path d="m248.97 134.76c-4.34 1.12-7.33.38-9.67-3.68-3.34-5.81-8.32-8.46-15.3-6.1-3.69 1.24-7.61 1.77-11.41 2.71-3.2.79-4.18 3.16-2.51 5.98 3.01 5.08 6.07 10.14 9.24 15.43-4.03 2.3-7.89 4.51-11.82 6.76-6.55-10.05-11.52-21.82-26.39-22.96-.09 1.74-.21 2.93-.21 4.11-.01 13.1-.46 26.22.16 39.29.38 8.09-2.33 14.78-6.07 21.48-5.39 9.65-12.24 18.15-19.93 26.03-9.65 9.88-13.89 22.13-15.73 35.54-.53 3.84.26 6.89 2.33 10.01 2.58 3.88 4.83 7.97 7.55 12.52-3.03-.42-5.48-.52-7.79-1.15-2.09-.57-3.01.23-3.98 1.88-4.14 7.04-8.37 14.02-12.58 21.02-.32.53-.7 1.03-1.62 1.33.4-4.63.74-9.26 1.23-13.89 1-9.56-4.27-14.08-13.58-11.56-6.59 1.79-10.92-.66-13.72-7.86 4.4-1.59 8.8-3.16 13.18-4.77 1.36-.5 2.66-1.17 4.01-1.7 7.8-3.04 12.56-8.47 14.07-16.88 1.29-7.14 3.01-14.21 4.72-21.27.53-2.17-.28-3.13-1.93-4.31-8.18-5.84-16.47-11.56-24.26-17.9-3.8-3.1-6.59-7.44-10.37-11.84 6.08-.2 10.71-.79 15.23 3.65 6.66 6.55 14.8 11.38 24.57 11.8 3.83.16 7.73-.69 11.56-1.35 1.05-.18 2.12-1.15 2.89-2.01 10.51-11.83 13.33-25.63 10.64-40.97-1.83-10.41-4.71-20.44-9.21-30.02-.82-1.75-1.81-2.49-3.71-2.66-8.68-.79-16.87 1.16-24.96 4.02-6.98 2.47-13.21 1.25-18.43-4.2-.29-.3-.5-.67-.97-1.31 8.6-.5 16.29-2.76 23.11-7.61 8.1-5.76 13.11-13.18 12-23.52-.23-2.11-1.44-4.4-2.87-6.03-5.08-5.8-10.46-11.34-15.71-17-9.96-10.74-11.36-23.24-7.92-36.93.95-3.76 2.52-5.84 6.47-6.81 6.5-1.6 12.87-3.76 19.19-5.98 3.04-1.06 5.8-.91 8.79-.01 9.68 2.92 18.43 7.77 26.13 14.08 13.66 11.19 26.99 22.82 40.09 34.67 3.61 3.27 6.72 7.65 8.65 12.12 4.63 10.79 11.88 19.58 19.36 28.33 4.73 5.51 7.23 12.03 7.48 19.52zm-91.54-90.99c-3.32 9.94-6.59 19.18-9.47 28.54-1.27 4.13-.94 8.43.95 12.45 3.78 8.05 9.74 14.34 16.23 20.57 2.65-1.99 5-4.09 7.65-5.68 7.86-4.72 11.4-12.3 13.92-20.56 1.76-5.76.78-10.98-3.37-15.58-7.15-7.9-15.94-13.56-25.91-19.74zm-39.54 3.88c6.5 10.05 12.8 19.78 19.54 30.21 1.99-2.1 4.66-3.67 5.35-5.87 2.08-6.57 3.7-13.33 4.89-20.12 1.14-6.52-3.13-12.45-9.57-14.21-.74-.2-1.76-.05-2.45.32-5.81 3.1-11.57 6.28-17.76 9.67zm80.6 69.88c2.17-1.29 4.01-2.55 5.99-3.53 2.01-1 2.94-2.33 2.95-4.68.01-3.78.5-7.56.6-11.34.18-6.54-3.26-11.15-9.79-13.16-4.46 10.79-7.36 21.53.25 32.71z"/><path d="m228.5 321.73c.33-12.27.77-24.22.92-36.17.09-6.86-.98-13.58-3.92-19.91-1.83-3.94-4.23-6.7-9.04-7.35-6.81-.92-13.51-2.61-20.26-3.98-.06-.34-.13-.68-.19-1.02 5.4-1.78 10.72-3.9 16.23-5.22 4.96-1.19 10.12-1.81 15.22-2.14 5.46-.35 9.04-2.92 11.13-7.74 2.87-6.59 3.24-13.59 3.43-20.85-11.96-2.87-23.74-5.7-35.53-8.53-.06-.28-.12-.56-.18-.83 3.97-1.22 7.87-2.92 11.94-3.57 13.89-2.22 27.86-4.03 41.78-6.09 10.72-1.59 21.45-3.16 32.11-5.09 3.49-.63 5.64 1.28 6.97 3.34.69 1.07-.7 4.49-2.13 5.71-5.74 4.92-8.04 11.11-9.12 18.41-.73 4.96-3.03 9.71-4.86 14.47-.43 1.11-1.71 2.02-2.78 2.75-10.39 6.99-20.75 14.02-31.28 20.8-2.65 1.7-3.84 3.71-4 6.69-.42 7.93-1.04 15.85-1.39 23.78-.54 12.35-4.32 23.22-13.85 31.61-.31.29-.66.52-1.2.93zm22.36-78.49c7.68-2.3 12.79-5.53 19.54-12.18 3.58-3.52 3.86-6.87.43-10.64-4.81-5.28-11.32-6.05-18.25-6.64-.58 10.01-1.14 19.58-1.72 29.46z"/><path d="m127.89 327.61c4.53 0 8.06-.13 11.58.09.86.05 1.78 1.11 2.44 1.91 2.33 2.84 4.41 5.9 6.86 8.63 2.26 2.52 4.97 2.99 8.49 1.97 5.54-1.61 11.3-2.58 17.02-3.45 2.27-.35 3.59-1.11 4.53-3.19 1.65-3.65 3.55-7.19 5.34-10.76 4.33 1.29 7.68 5.17 7.68 9.84 0 3.74-.75 7.51-1.46 11.21-1.18 6.13-2.57 12.23-3.94 18.32-.23 1.04-.6 2.23-1.3 2.96-7.07 7.3-15.13 11.3-25.81 9.19-10.07-1.99-17.95-6.77-21.69-16.29-3.82-9.68-6.41-19.83-9.74-30.43zm25.02 33.15c4.81-1.82 9.2-3.49 13.8-5.23-5.27-7.45-12.51-8.65-20.77-8.69 2.38 4.75 4.59 9.17 6.97 13.92z"/></g></svg>