<svg enable-background="new 0 0 400 400" viewBox="0 0 400 400" xmlns="http://www.w3.org/2000/svg"><g fill="#fafafb"><path d="m12.4 4.8-6.1 9h6v1.2h-8v-.5l6.1-8.9h-5.7v-1.2h7.6v.4z"/><path d="m14 15v-10.6h3c1.6 0 2.9.5 4 1.4s1.6 2.2 1.6 3.8-.5 3-1.6 3.9-2.4 1.5-4 1.5zm1.4-9.4v8.2h1.6c1.3 0 2.4-.4 3.1-1.1s1.1-1.8 1.1-3.1-.4-2.3-1.2-3-1.8-1-3.1-1z"/><path d="m26.1 4.4v10.6h-1.4v-10.6z"/><path d="m36.1 14.6c-.8.4-1.8.6-2.9.6-1.5 0-2.7-.5-3.6-1.4s-1.4-2.2-1.4-3.8c0-1.7.5-3.1 1.5-4.1s2.3-1.6 3.9-1.6c1 0 1.8.1 2.5.4v1.4c-.8-.4-1.6-.6-2.5-.6-1.2 0-2.1.4-2.9 1.2s-1.1 1.8-1.1 3.2c0 1.3.3 2.3 1 3s1.6 1.1 2.7 1.1c1 0 2-.2 2.7-.7v1.3z"/><path d="m37.6 14.3c0-.2.1-.5.3-.6s.4-.3.6-.3c.3 0 .5.1.6.3s.3.4.3.6-.1.4-.3.6-.4.3-.6.3c-.3 0-.5-.1-.6-.3s-.3-.4-.3-.6z"/><path d="m50.2 15h-1.6l-5.3-8.2c-.2-.2-.3-.5-.4-.7 0 .2.1.7.1 1.5v7.4h-1.4v-10.6h1.7l5.2 8.1c.2.4.4.6.4.7 0-.3-.1-.8-.1-1.5v-7.3h1.4z"/><path d="m58.6 15h-5.7v-10.6h5.5v1.2h-4.1v3.4h3.8v1.2h-3.8v3.6h4.3z"/><path d="m67.1 5.6h-3.1v9.4h-1.4v-9.4h-3v-1.2h7.5z"/></g><path d="m81.98 311.76c1.13-4.51 1.75-9.23 3.49-13.48 3.47-8.47 7.48-16.72 11.4-25 4.84-10.24 9.39-20.62 10.69-31.97.93-8.11 1.1-16.3 1.58-24.45.45-7.6 1.4-15.21 1.16-22.79-.23-7.1-1.86-14.15-2.65-21.25-1.12-10.11-2.51-20.23-2.93-30.38-.67-16.1 3.96-31.38 8.33-46.67 1.44-5.06 3.77-9.38 7.22-13.37 8.49-9.82 16.54-20.03 25.09-29.79 3.05-3.49 6.84-6.44 10.65-9.13 7.44-5.24 14.79-10.51 20.25-18.64 3.3 3.19 6.57 6.03 9.47 9.21 12.49 13.75 25.3 27.23 37.17 41.5 12.71 15.29 19.59 33.34 20.38 53.26.24 6.13-1.64 12.37-2.65 18.54-1.4 8.5-2.94 16.97-4.32 25.47-.3 1.85-.34 3.78-.2 5.65 1.12 15.18 1.96 30.39 3.6 45.52 1.07 9.87 3.32 19.61 5.05 29.41 1.88 10.68 3.33 21.47 5.78 32.02 2.14 9.22 5.41 18.19 8.19 27.26.35 1.15.72 2.3 1.16 3.69-1.67.48-3.12.89-4.8 1.37-3.86-8.9-7.15-17.85-11.51-26.24-6.09-11.7-6.63-24.49-8.5-37.02-3.18-21.35-6.36-42.72-8.85-64.16-.7-6.06.88-12.41 1.62-18.61 1.32-11 3-21.95 4.15-32.96 1.13-10.82-1.29-21.22-5.45-31.1-8.45-20.08-19.68-38.45-35.61-53.54-4.17-3.95-9.26-6.96-14.08-10.18-.81-.54-2.65-.46-3.5.11-24.15 16.22-41.99 37.83-55.02 63.77-8.11 16.15-8.48 32.47-4.17 49.57 4.77 18.93 8.57 38.11 5.83 57.75-1.55 11.15-3.56 22.36-6.73 33.14-4.72 16.06-10.35 31.87-16.23 47.55-1.78 4.75-5.51 8.83-8.7 12.94-1.26 1.62-3.51 2.48-5.31 3.69-.36-.24-.71-.47-1.05-.69z" fill="#010105"/><path d="m149.65 369.29c-2.36-9.92-1.38-19.55 2.95-28.76 3.77-8.02 6.25-16.25 5.7-25.23-.22-3.64-.82-7.02-3.69-9.7-11.87-11.11-14.8-26.15-17.7-41.11-2.07-10.67-3.25-21.44-2.19-32.37.39-3.98 1.79-6.01 5.81-7.57 10.7-4.16 21.33-6.62 32.94-4.87 7.82 1.17 15.83 1.11 23.76 1.52 7.38.38 11.06 3.11 13.47 10.22 2.56 7.58 1.94 15.3.5 22.9-2.36 12.41-5.12 24.74-7.77 37.08-.25 1.16-.69 2.43-1.44 3.31-9.6 11.31-11.15 24.11-6.73 37.8 2.12 6.56 5.07 12.85 7.6 19.28 1.88 4.77 3.89 9.5 5.45 14.37.99 3.11.61 6.24-3.06 8.63-1.62-2.52-3.33-4.93-4.8-7.48-5.86-10.19-8.89-21.4-11.95-32.64-2.02-7.42-4.66-14.67-7.03-22-.61-1.88-1.8-2.82-3.87-3.08-3.3-.42-6.55-1.21-10.72-2.02-1.78 8.04-3.62 15.83-5.22 23.66-1.88 9.19-3.26 18.49-5.48 27.59-.93 3.84-3.45 7.29-5.24 10.92-.43-.16-.86-.3-1.29-.45zm-3.33-111.42c.03 9.89 6.28 15.48 15.78 14.6 4.45-.41 8.83-1.42 13.28-1.89 6.99-.74 13.94-.68 20.86 2.36-3.32 2.3-6.63 4.86-10.35 5.79-4.69 1.18-9.71 1.02-14.59 1.44-6.6.57-13.2 1.15-19.91 1.73 2.85 9 5.75 16.83 16.35 16.99 1.66.03 3.31.5 4.98.71 9.51 1.23 19.56-3.11 23.15-13.6 1.59-4.65 3.46-9.25 4.45-14.03.72-3.51.56-7.31.12-10.9-.32-2.63-2.03-4.36-5.29-4.53-5.57-.28-11.15-1.85-16.67-1.6-10.68.51-21.32 1.9-32.16 2.93zm54.96-12.56c0-1.46.11-2.48-.02-3.46-1.18-9.5-4.85-13.71-14.41-13.34-3.89.15-7.81-.22-11.71-.55-3.66-.31-7.43-1.69-10.93-1.15-5.7.88-11.23 2.89-16.79 4.53-.7.21-1.54 1.01-1.73 1.7-.68 2.47-1.26 4.99-1.61 7.53-.64 4.55 2.25 7.67 6.83 7.45 9.26-.45 18.53-.93 27.79-1.43 7.45-.41 14.91-.85 22.58-1.28z" fill="#010105"/><path d="m153.81 211.05c-2.96-6.56-.65-15.38 4.84-19.4 11.31-8.29 20.55-18.31 25.58-31.62 2.44-6.45 2.42-13.19.41-19.78-.45-1.49-1.77-3-3.1-3.88-2.78-1.84-5.83-3.27-8.95-4.98-5.42 6.15-9.75 12.88-12.94 20.31-3.86 9.01-8.22 17.65-15.6 24.38-.55.5-1.14.96-1.93 1.61-1.9-4.26-1.79-8.43-.08-12.22 2.05-4.54 4.53-8.97 7.4-13.04 4.14-5.86 8.65-11.42 9.84-18.81 1.24-7.77-1.29-11.48-9.02-12.67-4.79-.74-9.43-1.67-13.17-6.62 6.18-1.15 11.79-2.5 17.47-3.18 16.1-1.92 32.24-3.61 48.37-5.27 2.64-.27 6.14-1.33 7.25 2.25 1.04 3.36-2.68 3.9-4.57 5.14-3.06 2.01-6.44 3.57-9.79 5.07-4.03 1.81-5.4 3.58-5.35 7.95.05 3.97.68 7.55 3.99 10.55 3.3 3 4.14 7.37 3.87 11.75-.45 7.2-2.34 13.95-5.3 20.63-4.04 9.14-9.82 16.54-17.58 22.76-6.63 5.32-12.74 11.27-19.09 16.94-.81.74-1.67 1.4-2.55 2.13z" fill="#010105"/><path d="m264.74 126.42c19.03 12.33 35.34 27.39 46.89 47.38-4.41-.76-8.54-1.01-12.14-4.4-7.13-6.71-14.84-12.82-22.44-19.01-5.22-4.25-9.5-9.14-11.62-15.61-.82-2.51-1.21-5.17-1.79-7.76.36-.2.73-.4 1.1-.6z" fill="#010105"/><path d="m256.81 149.33c17.09 9.97 28.43 24.95 37.59 41.85-.21.3-.42.61-.62.91-3.39-.29-6.79-.52-10.16-.92-.66-.08-1.37-.72-1.85-1.28-5.77-6.83-11.57-13.64-17.23-20.56-4.69-5.73-7.44-12.31-7.73-20z" fill="#010105"/><path d="m291.59 237.64c-4.99.22-8.09-1.46-10.41-6.06-6.8-13.47-14.18-26.64-21.32-39.93-.51-.96-.97-1.94-1.55-3.14 11.18 5.57 31.86 36.15 33.28 49.13z" fill="#010105"/><path d="m158.54 97.3c-.87-3.51-1.64-6.62-2.5-10.11 10.61-2.8 20.42-7.83 31.67-6.57 3.56.4 4.61 1.3 4.75 5.13-.65.27-1.34.61-2.07.85-10.46 3.53-20.93 7.04-31.85 10.7z" fill="#010105"/></svg>