<svg enable-background="new 0 0 400 400" viewBox="0 0 400 400" xmlns="http://www.w3.org/2000/svg"><path d="m129.65 347.17c7.63-4.75 16.07-6.1 24.64-7.15 10.19-1.24 20.36-2.65 30.79-4.02 0-4.54.12-8.78-.09-13.01-.05-.94-1.09-2.19-2-2.65-5.48-2.75-11.1-5.24-16.6-7.95-4.19-2.07-8.43-4.09-12.34-6.61-2.82-1.82-4.6-4.73-5.21-8.61 4.6.66 8.89 1.26 13.17 1.92.5.08 1.1.39 1.4.78 4.6 6.02 11.46 5.81 17.96 6.48.75.08 2.23-.96 2.33-1.63.4-2.71.72-5.51.45-8.22-.88-8.94-5.84-16.56-8.45-24.96-2.41-7.75-5.55-15.27-8.7-23.77-2.76 1.6-5.25 2.7-7.34 4.31-6.78 5.23-13.42 10.65-20.41 16.24-1.83-3.35-2.04-5.25-.25-8.04 6.04-9.39 11.59-19.09 17.21-28.74 2.34-4.01 3.04-8.29 1.54-12.87-.62-1.89-.74-3.95-1.11-5.93-.46-2.46.58-4.22 2.79-5.07 2.29-.89 4.48-.71 5.53 2.02 2.88 7.49 5.67 15.01 8.6 22.48.84 2.15 1.79 4.34 3.09 6.23 5.06 7.34 10.28 14.58 16.02 22.67 4.83-8.8 9.61-16.84 13.76-25.21 10.46-21.09 16.81-43.51 21.03-66.6 1.39-7.58 3.35-15.06 4.8-22.63.29-1.52.03-3.77-.93-4.79-7.05-7.46-10.04-15.98-9.63-26.39.59-14.94-3.17-29.52-5.18-44.25-1.01-7.41-1.4-14.92-1.8-22.4-.13-2.44-.93-3.79-3.23-4.28-7.65-1.65-15.13.03-22.61 1.27-.6.1-1.24 1.14-1.48 1.87-.64 1.9-.95 3.92-1.63 5.81-1.26 3.5-.85 6.76-.04 10.39 1.23 5.52 1.41 11.28 1.92 16.95.45 5.02.9 10.04 1 15.07.03 1.76-.78 3.65-1.59 5.3-.9 1.83-1.4 3.39-.05 5.22 2.98 4.03 3.43 8.41 2.23 13.28-1.1 4.44-1.61 9.02-2.25 13.56-.29 2.07-1.13 3.29-3.19 4.14-5.47 2.26-10.78 4.91-16.23 7.24-4.16 1.77-8.04 3.77-10.89 7.49-.79 1.03-2.38 1.72-3.72 2.02-11.67 2.55-19.85 10.91-28.99 17.56-2.29 1.67-3.81 5.1-4.58 8.01-2.13 8.08-4.25 16.24-5.25 24.5-.57 4.7.82 9.71 1.79 14.49 1.01 4.94 2.29 9.61.39 14.79-.72 1.98.93 4.86 1.62 7.3.63 2.22.97 4.12.13 6.62-.7 2.07.27 5.16 1.44 7.29 1.19 2.17 2.41 3.9 1.27 6.45-1.41 3.15-1.33 6.34.42 9.35 1.52 2.64 1.29 5.11.31 7.95-.95 2.78-1.62 5.89-1.44 8.8.79 12.55-3.98 24.21-5.39 36.37-.85 7.36-5.66 9.52-11.73 12.01.9-6.06 1.52-11.68 2.59-17.22 3.93-20.33 4.14-40.96 4.32-61.51.08-9.52-2.65-19.03-3.55-28.6-1.18-12.47-1.83-24.99-2.68-37.49-.04-.64.06-1.37.33-1.95 4.4-9.56 8.92-19.15 15.95-27.06 3.28-3.7 7.79-6.33 11.88-9.26 2.01-1.44 2.31-2.84 1.94-5.32-1.04-6.96-1.36-14.01-2.24-21-.9-7.19-2.04-14.36-3.24-21.51-.73-4.34-2.78-8.69 1.7-13.1-5.06-.07-5.15-3.39-5.82-6.44-3.7-16.92-7.49-33.81-11.15-50.74-.21-.96.21-2.85.76-3.03 1.97-.66 4.46-1.61 6.16-.95 8.79 3.45 11.73 8.79 11.34 18.79-.17 4.34-.61 8.82.22 13.02 1.71 8.65 3.55 9.41 10.62 8.51 9.76-1.23 19.49-2.69 29.2-4.26 1.13-.18 2.51-1.49 2.98-2.61 2.08-4.9 1.07-9.9-.25-14.78-.21-.78-1.54-1.53-2.49-1.78-3.24-.86-6.53-1.5-9.81-2.21-3.48-.75-6.13-2.57-7.87-6.05 3.93-3.02 8.51-3.56 13.17-3.9 12.15-.9 24.31-1.75 36.45-2.79 2.98-.26 5.88-1.32 8.86-1.76 2.48-.36 5.07-.72 7.52-.4 5.83.75 9.52 4.51 9.53 10.35.01 4.52-.92 9.08-1.83 13.54-.26 1.26-1.92 2.24-3.22 3.67 4.11 1.93 4.5 6.09 5.49 10.03.22.88 1.49 2.07 2.35 2.13 10.07.75 19.8-1.32 29.39-4.04.75-.21 1.46-2.01 1.49-3.09.32-11.41.49-22.83.7-34.24.02-.89 0-1.78 0-3.19 2.77 1.07 5.34 1.8 7.6 3.07.86.48 1.33 2.17 1.45 3.36 1.3 12.24 2.83 24.47 3.64 36.74 1.25 18.86 2.01 37.75 2.94 56.64.06 1.32.02 2.74-.39 3.96-6.24 18.49-6.46 37.37-3.42 56.38 2.03 12.69 4.84 25.25 6.75 37.96 1.58 10.5 2.25 21.13 3.55 31.67 1.34 10.87 3.11 21.68 4.34 32.56.47 4.15.04 8.43-.21 12.64-.13 2.16-1.24 2.63-3.15 1.23-2.98-2.18-5.14-4.64-5.7-8.57-1.38-9.5-3.17-18.94-4.61-28.44-.34-2.23-1.07-3.61-3.21-4.54-4.3-1.88-8.56-3.89-12.68-6.13-8.03-4.38-15.84-9.19-23.97-13.37-3.68-1.89-7.88-2.84-11.93-3.89-1.06-.27-2.81.34-3.63 1.15-10.57 10.57-19.02 22.58-23.84 36.84-2.98 8.81-2.73 17.81-.6 26.82.55 2.34 1.98 3.82 4.12 3.57 3.69-.43 7.54-.93 10.92-2.37 6.97-2.96 13.66-6.56 20.48-9.9 2.13 4.47 1.87 5.38-1.49 7.85-9.88 7.25-20.57 13.04-31.85 17.77-1.33.56-2.65 1.14-4.31 1.87 2.48 5.96 4.85 11.82 7.41 17.61.32.72 1.51 1.28 2.41 1.5 13.27 3.31 25.2 9.58 36.93 16.39 6.18 3.58 12.69 6.59 18.95 10.04 3.88 2.14 4.73 4.44 3.76 9.88-3.5-1.24-7.32-1.79-10.18-3.73-13.39-9.07-28.69-13.99-43.21-20.58-2.79-1.27-4.52 0-5.23 2.34-.76 2.52-.84 5.25-1.12 7.9-.18 1.66.14 3.46-.39 4.97-.41 1.17-1.64 2.52-2.79 2.87-3.24.98-9.41-2.28-10.46-5.54-.85-2.62-1.18-5.42-1.6-8.17-.25-1.65-.1-3.36-.34-5.01-.59-4-1.82-5.07-5.75-4.65-15.01 1.6-30.01 3.33-45.01 4.94-3.41.36-6.5-.19-8.27-3.84zm143.53-103.46c-1.31-11.85-2.28-22.97-3.82-34.01-2.57-18.47-8.01-36.48-8.88-55.24-.1-2.23-1.03-4.63-2.22-6.54-2.03-3.26-5.26-3.48-8.23-1.07-4.79 3.89-7.01 8.98-7.85 15.05-.54 3.93-1.61 7.92-3.23 11.53-6.04 13.46-9.75 27.54-11.73 42.08-.28 2.03.75 4.6 1.97 6.38 2.9 4.24 7.14 6.94 11.84 9.02 5.3 2.34 11 4.23 15.6 7.59 4.82 3.5 10.08 3.78 16.55 5.21zm-97.45-152.36c0-3 .16-5.03-.03-7.02-.48-4.88-4.91-7.47-9.7-6.41-4.87 1.08-9.87 1.82-14.84 2.16-5.12.35-10 1.1-14.25 4.16-.71.51-1.66 1.64-1.51 2.22 1.66 6.46 3.43 12.88 5.4 19.25.25.8 1.79 1.67 2.76 1.69 7.77.2 15.51-.54 22.67-3.66 11.07-4.82 9.01-3.22 9.5-12.39zm89.4-14.09c-2.85.16-5.51-.16-7.89.53-8.34 2.43-16.59 5.19-24.84 7.91-.66.22-1.57 1.19-1.54 1.76.25 4.08.54 8.17 1.18 12.21.34 2.2 2.01 3.32 4.4 3.25 2.9-.1 5.86.32 8.7-.1 6.16-.92 12.29-2.11 18.35-3.51 1.15-.26 2.83-1.99 2.81-3.01-.14-6.22-.71-12.44-1.17-19.04zm-33.5 41.73c.76 2.44 1.68 4.51 2.02 6.66.71 4.52 3.91 6.38 7.72 6.33 6.15-.08 12.31-.8 18.39-1.75 1.26-.2 2.07-2.69 3.3-3.9.66-.65 2.16-.59 2.6-1.28.93-1.43 1.69-3.11 1.95-4.78.16-1.03-.41-2.8-1.21-3.24-3.7-2.04-7.58-3.78-11.43-5.52-.62-.28-1.53-.28-2.18-.05-6.92 2.41-13.83 4.91-21.16 7.53zm-55.61 5.14c-.85-2.35-1.03-4.86-2.07-5.3-2.73-1.14-5.94-2.14-8.78-1.79-3.67.46-7.32 1.96-10.69 3.61-3.15 1.54-6.47 3.41-8.62 6.03-1.01 1.23.54 4.58.93 6.96.05.33.1.66.18.99 1.86 8.12 2.97 8.9 10.37 4.81 5.42-3 10.32-6.97 15.27-10.75 1.46-1.12 2.31-3.04 3.41-4.56z" fill="#010100"/><g fill="#fcfbfa"><path d="m377.9 391.2c-.2.3-.4.5-.6.8-.7-.6-1.4-1-2.2-1.5.2-.3.4-.5.5-.8.6.4 1.4.8 2.3 1.5zm-1.8 6.1c-.2-.2-.5-.4-.9-.6.4-.6.8-1.2 1.2-1.9s.7-1.3.9-1.9c.3.3.5.5.8.7-.7 1.3-1.4 2.6-2 3.7zm2.2-9c-.3.3-.5.5-.6.8-.6-.6-1.3-1.1-2-1.5.3-.3.5-.5.6-.7.6.5 1.3.9 2 1.4zm.3.2v-.9h2 4.5c-.3 1.3-.6 2.5-1 3.6s-.9 2.1-1.4 3c.4.5 1 1 1.6 1.4s1.2.8 1.9 1.1c-.3.2-.5.4-.8.8-.4-.3-1-.7-1.6-1.2s-1.2-1.1-1.6-1.6c-.5.6-1.1 1.1-1.7 1.6s-1.4.9-2.1 1.4c-.1-.3-.3-.5-.7-.8.6-.2 1.2-.5 1.9-1s1.4-1.1 2-1.8c-.5-.8-.9-1.6-1.2-2.5s-.6-2-.8-3.2c-.4.1-.7.1-1 .1zm2.5 2.7c.3 1 .7 1.7 1 2.2.3-.5.6-1.1 1-2s.6-1.9.9-3h-3.2-.4c.1.9.3 1.8.7 2.8z"/><path d="m396.5 388.5v1.5 3.6h1.5v.9c-.4 0-1 0-1.7 0h-7.9c-.5 0-.9 0-1.2 0v-.9h1.3v-3.5c0-.7 0-1.2 0-1.6h2.4c0-.8 0-1.4 0-1.7h1c0 .3-.1.8-.1 1.7h1.5c0-.8 0-1.4 0-1.7h1c0 .3-.1.9-.1 1.7zm-8.2 9.2c-.2-.3-.5-.5-.8-.8.8-.3 1.4-.6 1.9-.9s1-.7 1.4-1.1c.3.3.6.5.9.8-1.6 1-2.8 1.6-3.4 2zm2.6-6.8v-1.6h-1.5v1.6zm0 2.7v-1.9h-1.5v1.9zm2.4-2.7v-1.6h-1.5v1.6zm0 2.7v-1.9h-1.5v1.9zm.2 2 .7-.8c.4.2.9.5 1.6.8s1.3.7 1.8 1c-.3.3-.5.5-.8.8-.4-.3-1.5-1-3.3-1.8zm2-4.7v-1.6h-1.4v1.6zm0 2.7v-1.9h-1.4v1.9z"/></g></svg>