<svg enable-background="new 0 0 400 400" viewBox="0 0 400 400" xmlns="http://www.w3.org/2000/svg"><path d="m374.8 390.4.4-.4c.7.5 1.3 1 1.8 1.4l-.5.5c-.5-.6-1.1-1.1-1.7-1.5zm1 7.3-.6-.3c.5-1.4 1.1-2.8 1.5-4.3.2.1.4.2.6.3-.5 1.3-1 2.8-1.5 4.3zm-.4-10.3.4-.4c.4.3 1 .8 1.7 1.4l-.5.5c-.4-.5-1-1-1.6-1.5zm2.5.3h1.7v-1h.6v1h3.5v-1h.6v1h1.8v.5h-1.8v1.4h-2v1h3.2v2h-3.2v.9h3.3v.5h-3.4c0 .3-.1.6-.1.9h4v.5h-3.7c.7.9 1.9 1.5 3.8 1.7-.1.2-.2.4-.3.6-2.1-.4-3.5-1.1-4-2.1-.4 1-1.8 1.7-4 2.2-.1-.2-.2-.4-.3-.6 2.1-.4 3.4-1 3.8-1.8h-3.4v-.5h3.6c.1-.3.1-.6.2-.9h-3.3v-.5h3.4c0-.3 0-.6 0-.9h-3.2v-2h3.3v-1h-2.1v-1.4h-1.7v-.5zm1.1 3.5v1h2.7c0-.3 0-.4 0-.4 0-.1 0-.2 0-.2 0-.1 0-.2 0-.3h-2.7zm1.2-3v.9h3.5v-.9zm4.7 3h-2.6v.6.4h2.6z" fill="#fbfcfa"/><path d="m393.6 386.7h.6v1.5h2.7v6.1h1.1v.6h-11v-.6h1.1v-6.1h2.7v-1.5h.6v1.5h2.1v-1.5zm-2.7 8.8.4.6c-1.2.6-2.5 1.3-3.8 1.9-.1-.2-.2-.4-.3-.6 1.2-.6 2.5-1.2 3.7-1.9zm-2.2-6.7v2.4h2.1v-2.4zm0 3v2.5h2.1v-2.5zm2.8-3v2.4h2.1v-2.4zm0 3v2.5h2.1v-2.5zm6 6.1c-1.4-.7-2.7-1.3-3.9-1.8l.3-.6c1.5.6 2.7 1.2 3.9 1.7zm-1.2-9.1h-2.1v2.4h2.1zm-2.1 3v2.5h2.1v-2.5z" fill="#fbfcfa"/><path d="m97.62 348.96c-3.7-5.95-4.51-12.2-3.91-18.68.84-9.01 2.57-18.01 2.55-27.01-.01-7.6-.79-15.62-3.3-22.72-4.86-13.73-3.34-26.7 1.07-40 1.91-5.76 6.25-9.37 9.82-13.75 3.13-3.83 6.89-6.5 11.57-8.15 4.42-1.56 8.58-3.83 13-5.39 7.22-2.55 13.48-6.57 18.8-11.96 8.96-9.07 17.77-18.29 26.52-27.55 1.81-1.92 3.13-4.31 5.27-7.32-6.62-1.59-12.56-2.97-18.48-4.45-2.26-.57-4.61-1.07-6.67-2.09-3.32-1.65-4.43-4.56-3.87-9.03 5.9-.72 11.87-1.46 17.84-2.18 4.69-.57 10.03-5.14 10.5-9.89.48-4.98.28-10.04.01-15.04-.05-.9-1.8-2.07-2.98-2.49-7.44-2.62-15.15-2.58-22.89-1.91-6.12.53-12.23 1.49-18.36 1.61-8.37.16-14.11-4.14-16.46-11.22-.81-2.45-.45-3.82 2.09-4.92 6.86-2.98 14.04-3.36 21.36-3.35 8.58.01 17.23.34 25.73-.56 7.86-.83 10.44-4.73 10.23-12.66-.02-.79-.78-1.79-1.48-2.31-8.73-6.45-17.49-12.85-26.31-19.17-.88-.63-2.21-.74-3.36-.88-.75-.09-1.54.26-2.32.3-5.18.32-8.95 2.65-12.37 6.71-4.3 5.1-9.38 9.61-14.43 14.02-5.71 4.99-12.52 7.59-20.57 7.97.29-7.14-1.01-13.83 3.07-20.55 9.23-15.18 17.67-30.84 26.34-46.37 1.05-1.89 2.07-2.39 4.21-1.95 8.5 1.74 15.54 6.05 21.85 11.8 7.36 6.7 14.74 13.39 22.16 20.02 4.54 4.05 9.6 3.83 14.66 1.21 3.96-2.05 7.53-5.08 11.68-6.5 4.83-1.66 8.15-4.74 11.42-8.28 3.71-4.03 7.55-7.96 11.47-11.79 5.28-5.17 11.64-7.43 19.01-6.17 1.44.25 3.07.93 4.06 1.95 5.46 5.61 10.95 11.21 16.03 17.15 5.95 6.97 7.47 15.27 5.95 25.18-1.97-.85-3.87-1.27-5.26-2.35-8.85-6.85-18.53-11.69-29.88-12.36-6.4-.38-12.12 1.28-16.52 6.44-2.75 3.23-5.83 6.18-8.8 9.23-5.32 5.47-7.08 12.3-7.32 19.62-.03.79 1.42 2.22 2.34 2.36 7.06 1.03 14.14 2.01 21.24 2.61 6.23.52 12.55.11 18.74.87 6.11.74 11.35 3.36 12.96 10.42-6.23 3.04-12.8 4.26-19.48 4.85-9.13.8-18.32 1.02-27.41 2.11-4.11.49-8.06 2.41-12.03 3.84-1.89.68-2.56 2.16-2.23 4.29.75 4.86 1.37 9.75 1.86 14.64.18 1.84 1.03 2.47 2.7 2.67 5.21.64 10.4 1.43 15.61 2.05 4.95.59 8.67 2.63 10.18 8.13-5.94 3.36-11.93 6.58-17.74 10.11-4.19 2.54-8.38 5.2-12.1 8.35-3.84 3.24-3.51 4.69.5 7.65 8.37 6.19 16.7 12.42 25.13 18.51 1.37.99 3.16 1.75 4.82 1.89 8.58.72 17.23.8 25.75 1.9 6.47.83 13.12 2.04 19.09 4.54 10.6 4.42 17.42 12.92 18.72 24.37 2.64 23.43 8.23 46.19 14.02 68.94 3.23 12.68 3.49 25.41.43 38.2-.54 2.27-1.48 3.74-3.7 4.63-2.78 1.12-5.43 2.57-8.63 4.12-.65-4-1.61-7.68-1.78-11.4-.36-7.84-3.82-14.13-8.99-19.65-13.3-14.18-29.76-21.77-49.1-23.32-2.06-.17-3.21.42-4.18 2.31-4.66 9.04-9.48 17.99-14.37 27.23 4.99 4.63 9.98 9.26 14.98 13.88 9.54 8.81 19.13 17.56 28.58 26.46 1.05.99 1.8 2.77 1.89 4.24.26 3.89.09 7.81.09 12.35-3.79-.95-7.25-1.99-10.78-2.66-4.55-.87-8.14-3.1-11.55-6.23-11.95-10.97-24.16-21.67-36.19-32.56-1.54-1.39-2.79-1.56-4.75-.95-4.65 1.45-8.6 3.78-12.45 6.85-9.54 7.58-19.47 14.67-29.34 21.82-2.58 1.87-5.55 3.21-9.04 5.19 0-3.82-.14-6.88.09-9.92.07-.9 1.05-1.86 1.82-2.55 6.82-6.14 14.04-11.88 20.42-18.45 4.29-4.41 7.49-9.91 11-15.03 1.35-1.98.69-3.66-1.1-5.51-4.11-4.25-7.65-9.06-11.75-13.32-3.07-3.18-6.49-6.09-10.11-8.62-1.19-.83-3.81-.75-5.2 0-10.34 5.55-20.63 11.22-30.71 17.23-2.21 1.32-4.12 3.91-5.12 6.35-2.43 5.97-4.31 12.17-6.28 18.32-1.75 5.44-4.54 10.11-9.58 13.68zm58.61-91.92c2.23 5.69 3.91 11.16 6.45 16.2 5.56 11.04 13.85 20.1 23.04 28.12 5.02 4.38 10.45 4.32 14.41-.08 2.07-2.3 4.24-4.71 5.51-7.47 2.93-6.38 5.63-12.9 7.86-19.56 1.77-5.26 2.78-10.77 3.97-16.21.85-3.84-.89-6.84-4.35-8.07-4.78-1.7-9.75-3.02-14.75-3.87-4.04-.69-8.59-1.6-12.28-.43-9.86 3.12-19.39 7.3-29.86 11.37zm54.11-28.93c-4.07-9.73-8.28-18.58-14.45-26.33-1.38-1.73-3.17-3.13-4.81-4.64-2.67-2.45-5.67-3.5-9.12-1.74-3.65 1.86-7.53 3.44-10.8 5.83-4.58 3.35-8.71 7.32-12.97 11.1-.56.5-1.22 1.65-1.01 2.12 1.61 3.57.83 6.85-.35 10.37-1.3 3.85 1.52 6.85 5.58 6.57 11.36-.78 22.73-1.49 34.09-2.25 4.4-.3 8.82-.66 13.84-1.03zm26.53 28.81c-.88 4.36-.02 7.83 2.09 11.04 4.44 6.75 10.11 11.43 18.54 11.96 1.32.08 2.63.76 3.94.74 4.53-.07 9.07-.13 13.57-.57 3.14-.31 4.03-2.32 3.33-5.46-1.7-7.7-6.05-12.8-13.74-14.86-9.03-2.41-18.22-3.29-27.73-2.85zm-3.83-35.33c1.37 5.9 2.6 11.57 4.08 17.18.23.87 1.5 1.92 2.41 2.06 3.31.49 6.67.64 10.02.89 6.42.48 12.84.94 19.76 1.44-4.47-8.94-8.65-17.44-13.02-25.84-.41-.78-1.9-1.23-2.96-1.41-7.5-1.31-13.56 2.64-20.29 5.68zm-86.46 53.26c-.26-.18-.52-.37-.77-.55.48-5.62-5.19-10.3-10.47-8.93-6.62 1.71-12.54 4.42-17.94 8.56-3.63 2.78-6.08 5.68-4.22 10.62.65 1.73.4 3.79.95 5.58.28.9 1.51 2.26 2.15 2.17 3.9-.49 8.12-.58 11.52-2.25 5.26-2.58 10.08-6.15 14.81-9.68 1.74-1.28 2.67-3.65 3.97-5.52zm-8.05-47.71c-7.01 4.57-13.12 9.11-19.74 12.71-5.25 2.86-7.89 6.83-8.57 12.49-.11.88-.39 1.8-.26 2.65.19 1.26.67 2.47 1.12 4.01 8.6-3.65 16.81-7.09 24.97-10.66.69-.3 1.37-1.44 1.43-2.23.41-6.02.68-12.04 1.05-18.97z" fill="#010106"/></svg>