<svg enable-background="new 0 0 400 400" viewBox="0 0 400 400" xmlns="http://www.w3.org/2000/svg"><g fill="#010100"><path d="m121.12 98.11c10.46-11.87 20.46-23.18 30.42-34.53 7.6-8.66 14.91-17.59 24.29-24.5 9.15-6.74 19.19-11.37 30.43-13.28 6.38-1.08 19.49 4.92 22.32 10.65 3.19 6.45 1.61 13.1-.12 19.65-1.51 5.72-3.02 11.44-4.35 17.2-.17.73.61 2.33 1.2 2.47 2.33.54 4.84 1.22 7.12.86 14.11-2.27 28.16-4.86 42.25-7.24 7.27-1.23 14.57-2.25 21.86-3.32 2.4-.35 4.9-.63 5.6 2.58.18.83.01 2.04-.5 2.66-4.66 5.68-10.65 9.09-17.96 10.11-5.24.73-10.5 1.57-14.45 5.5-.91.91-1.59 2.66-1.44 3.92.5 4.44 1.47 8.82 2.14 13.24.3 1.96 1.17 3.14 3.22 3.03 6.79-.35 13.58-.75 20.36-1.17 5.88-.36 11.75-.97 17.63-1.06 1.53-.02 3.08 1.47 4.62 2.26-.06.51-.13 1.02-.19 1.53-14.28 4.28-28.57 8.55-43.03 12.88.78 8.03 1.45 15.93 2.41 23.79.12.97 1.82 2.45 2.82 2.48 5.44.14 10.89-.07 16.34-.22 3-.08 6-.43 9-.39 1.15.01 2.43.56 3.4 1.22 2.86 1.97 2.76 5.21-.17 6.91-6.49 3.78-13.66 3.91-20.84 3.55-11.06-.54-21.88.69-32.43 4.07-4.88 1.56-5.69 4.65-3.15 8.92 2.32 3.9 4.32 8.08 5.8 12.36 1.85 5.34 4.67 9.23 10.41 10.67 5.74 1.45 11.45 3.01 17.1 4.78 3.17.99 6.31 2.24 9.21 3.84 2.45 1.35 3.41 3.85 2.59 6.66-.81 2.78-3.43 3.01-5.48 2.74-3.24-.43-6.44-1.48-9.54-2.59-4.18-1.5-8.13-3.7-12.38-4.89-4.79-1.35-7.24.2-8.26 5.11-.76 3.67-.6 7.53-.88 11.31-.24 3.22.02 6.61-.97 9.59-.99 2.99-3.24 5.57-5.18 8.73-3.51-3.48-4.41-6.78-4.07-10.49 1.17-12.98-1.34-25.63-3.61-38.27-2.15-11.94-9-20.57-19.25-26.96-6.61-4.12-13.29-8.43-18.97-13.7-7.96-7.39-14.94-15.86-17.37-26.93-.64-2.89-.53-6-.39-8.99.06-1.16 1.15-2.26 1.78-3.39.96-1.71 2.22-3.32 2.84-5.15.92-2.72.14-4.9-2.69-6.32-11.87-5.95-23.69-12-35.51-18.04-1.98-1.01-3.5-.79-4.89 1.08-1.06 1.43-2.31 2.76-3.68 3.9-3.38 2.84-4.87 6.41-5.13 10.78-.21 3.65-2.13 5.66-5.79 5.63-3.51-.03-7.1-.68-10.49-1.62-1.5-.43-2.57-2.25-4-3.61zm97.19-48.21c.2-.12.4-.24.61-.37-1.16-2.19-1.9-4.79-3.57-6.47-2.15-2.16-4.91-3.86-7.68-5.23-1.46-.72-3.65-.83-5.23-.33-7.5 2.36-13.66 6.86-19.28 12.32-5.92 5.75-12.02 11.34-18.35 16.63-3.78 3.16-4.21 4.81-.51 8.32.96.91 2.08 1.72 3.26 2.32 9.84 5 19.74 9.86 29.54 14.93 2.53 1.31 4.3.64 5.79-1.3 1-1.3 1.81-2.8 2.46-4.32 1.09-2.56 2-5.2 2.96-7.82 3.2-8.68 6.41-17.36 9.57-26.05.31-.82.3-1.75.43-2.63zm-8.61 82.15c1.77 4.17 4.4 7.41 8.03 9.82 3.73 2.47 7.74 4.59 11.16 7.42 3.38 2.8 6.95 4.27 11.27 4.27 5.84 0 11.7-.08 16.96-3.02 1.12-.63 2.61-2.47 2.38-3.35-1.51-5.81-.56-11.47.13-17.23.59-4.94-1.63-7.19-6.63-7.57-1.33-.1-2.69 0-4.01.18-5.98.83-11.97 1.61-17.92 2.63-7.37 1.26-14.63 2.99-21.37 6.85zm1.07-16.1c7.86-.47 15.81-.51 23.62-1.56 6.35-.85 12.56-2.84 18.77-4.52.96-.26 2.2-1.47 2.35-2.4.82-5.27.55-10.51-1.74-15.43-1.65-3.54-5.11-5.53-8.29-4.89-9.09 1.83-18.17 3.7-27.25 5.61-.8.17-1.96.51-2.22 1.1-3.01 6.74-7.58 13.1-5.24 22.09z"/><path d="m180.27 338.29c1.28-4.92 2.19-9.97 3.91-14.72 3.76-10.4 7.98-20.63 11.92-30.97.91-2.39 1.72-4.87 2.16-7.38.57-3.25-.49-4.24-3.69-4.33-6.59-.19-13.22-.14-19.77-.78-4.02-.39-7.91-1.97-11.91-2.83-4.45-.96-8.98-1.61-13.42-2.59-6.46-1.43-8.7-4.1-9.74-10.68-.62-3.9 2.45-6.03 3.97-8.89.16-.3 1.28-.26 1.88-.11 1.62.41 3.47.59 4.75 1.52 8.03 5.81 17.64 6.58 26.79 8.96 18.84 4.9 37.74 3.82 56.64 1.08 12.15-1.76 24.04-.77 35.94 1.75 5.9 1.25 11.88 2.13 17.82 3.2 5.82 1.05 11.04 3.38 15.82 6.91 6.79 5.02 7.74 12.35 8.61 19.91 2.48 21.66 5.25 43.29 7.61 64.96.36 3.3-.65 6.8-1.38 10.12-.2.9-1.93 2.28-2.57 2.1-1.82-.54-4.14-1.36-4.97-2.81-1.51-2.65-2.87-5.82-2.91-8.78-.18-15.65-5.24-30.35-8.21-45.45-.42-2.13-.59-4.44-.24-6.57 1-5.99-2.04-10.66-4.91-15.22-6.73-10.67-17.1-15.31-29.25-16.51-5.23-.52-10.52-1.28-15.72-.99-7.55.43-15.04 2.27-22.59 2.48-8.15.23-12.25 3.99-13.57 11.69-1.23 7.19-6.17 12.41-9.94 18.25-1.15 1.77-2.09 3.71-2.89 5.67-2.43 5.97-6.16 10.57-11.92 13.86-2.84 1.62-4.76 4.86-7.09 7.36-.35-.06-.74-.14-1.13-.21z"/><path d="m74.07 62.4c3.42-4.75 7.61-5.26 12.09-3.19 6.05 2.79 12.02 5.78 17.88 8.94 3.51 1.89 6.75 4.28 10.46 6.66-4.24 2.57-8.44 2.99-12.77 2.36-6.38-.93-12.75-1.99-19.1-3.09-.75-.13-1.63-.71-2.05-1.35-2.26-3.43-4.4-6.95-6.51-10.33z"/><path d="m180.29 214.04c-2.73-10.72-5.25-20.59-7.81-30.6 2.02-1.13 3.8-2.29 5.71-3.13.76-.33 1.96-.26 2.71.12 4.37 2.22 6.95 5.82 7.58 10.71.92 7.21-.32 14.01-4.34 20.13-.71 1.08-2.23 1.64-3.85 2.77z"/><path d="m180.86 70.13c6.24-7.93 12.12-15.52 18.15-22.98 2.16-2.67 4.44-2.65 7.18-.45 2.48 1.99 3.42 5.91 1.54 8.05-4.78 5.44-7.54 11.78-9.35 18.7-1.03 3.96-3.54 4.84-7.19 2.96-2.38-1.23-4.81-2.38-7.13-3.72-1.18-.69-2.16-1.72-3.2-2.56z"/></g><path d="m377.9 391.2c-.2.3-.4.5-.6.8-.7-.6-1.4-1-2.2-1.5.2-.3.4-.5.5-.8.6.4 1.4.8 2.3 1.5zm-1.8 6.1c-.2-.2-.5-.4-.9-.6.4-.6.8-1.2 1.2-1.9s.7-1.3.9-1.9c.3.3.5.5.8.7-.7 1.3-1.4 2.6-2 3.7zm2.2-9c-.3.3-.5.5-.6.8-.6-.6-1.3-1.1-2-1.5.3-.3.5-.5.6-.7.6.5 1.3.9 2 1.4zm.3.2v-.9h2 4.5c-.3 1.3-.6 2.5-1 3.6s-.9 2.1-1.4 3c.4.5 1 1 1.6 1.4s1.2.8 1.9 1.1c-.3.2-.5.4-.8.8-.4-.3-1-.7-1.6-1.2s-1.2-1.1-1.6-1.6c-.5.6-1.1 1.1-1.7 1.6s-1.4.9-2.1 1.4c-.1-.3-.3-.5-.7-.8.6-.2 1.2-.5 1.9-1s1.4-1.1 2-1.8c-.5-.8-.9-1.6-1.2-2.5s-.6-2-.8-3.2c-.4.1-.7.1-1 .1zm2.5 2.7c.3 1 .7 1.7 1 2.2.3-.5.6-1.1 1-2s.6-1.9.9-3h-3.2-.4c.1.9.3 1.8.7 2.8z" fill="#fcfbfa"/><path d="m396.5 388.5v1.5 3.6h1.5v.9c-.4 0-1 0-1.7 0h-7.9c-.5 0-.9 0-1.2 0v-.9h1.3v-3.5c0-.7 0-1.2 0-1.6h2.4c0-.8 0-1.4 0-1.7h1c0 .3-.1.8-.1 1.7h1.5c0-.8 0-1.4 0-1.7h1c0 .3-.1.9-.1 1.7zm-8.2 9.2c-.2-.3-.5-.5-.8-.8.8-.3 1.4-.6 1.9-.9s1-.7 1.4-1.1c.3.3.6.5.9.8-1.6 1-2.8 1.6-3.4 2zm2.6-6.8v-1.6h-1.5v1.6zm0 2.7v-1.9h-1.5v1.9zm2.4-2.7v-1.6h-1.5v1.6zm0 2.7v-1.9h-1.5v1.9zm.2 2 .7-.8c.4.2.9.5 1.6.8s1.3.7 1.8 1c-.3.3-.5.5-.8.8-.4-.3-1.5-1-3.3-1.8zm2-4.7v-1.6h-1.4v1.6zm0 2.7v-1.9h-1.4v1.9z" fill="#fcfbfa"/></svg>