<svg enable-background="new 0 0 400 400" viewBox="0 0 400 400" xmlns="http://www.w3.org/2000/svg"><g fill="#fafafb"><path d="m12.4 4.8-6.1 9h6v1.2h-8v-.5l6.1-8.9h-5.7v-1.2h7.6v.4z"/><path d="m14 15v-10.6h3c1.6 0 2.9.5 4 1.4s1.6 2.2 1.6 3.8-.5 3-1.6 3.9-2.4 1.5-4 1.5zm1.4-9.4v8.2h1.6c1.3 0 2.4-.4 3.1-1.1s1.1-1.8 1.1-3.1-.4-2.3-1.2-3-1.8-1-3.1-1z"/><path d="m26.1 4.4v10.6h-1.4v-10.6z"/><path d="m36.1 14.6c-.8.4-1.8.6-2.9.6-1.5 0-2.7-.5-3.6-1.4s-1.4-2.2-1.4-3.8c0-1.7.5-3.1 1.5-4.1s2.3-1.6 3.9-1.6c1 0 1.8.1 2.5.4v1.4c-.8-.4-1.6-.6-2.5-.6-1.2 0-2.1.4-2.9 1.2s-1.1 1.8-1.1 3.2c0 1.3.3 2.3 1 3s1.6 1.1 2.7 1.1c1 0 2-.2 2.7-.7v1.3z"/><path d="m37.6 14.3c0-.2.1-.5.3-.6s.4-.3.6-.3c.3 0 .5.1.6.3s.3.4.3.6-.1.4-.3.6-.4.3-.6.3c-.3 0-.5-.1-.6-.3s-.3-.4-.3-.6z"/><path d="m50.2 15h-1.6l-5.3-8.2c-.2-.2-.3-.5-.4-.7 0 .2.1.7.1 1.5v7.4h-1.4v-10.6h1.7l5.2 8.1c.2.4.4.6.4.7 0-.3-.1-.8-.1-1.5v-7.3h1.4z"/><path d="m58.6 15h-5.7v-10.6h5.5v1.2h-4.1v3.4h3.8v1.2h-3.8v3.6h4.3z"/><path d="m67.1 5.6h-3.1v9.4h-1.4v-9.4h-3v-1.2h7.5z"/></g><path d="m122.26 374.54c-.62-4.67-.14-8.28 2.95-11.85 2.77-3.21 4.51-7.42 6.25-11.38 2.82-6.44 6.65-12.05 11.55-17.12 11.54-11.93 22.24-24.6 30.52-39.04 2.68-4.67 4.03-10.1 5.89-15.22 1.26-3.48-.14-5.98-3.47-7.11-5.58-1.9-11.17-3.92-16.92-5.18-22.8-4.99-42.58-26.15-46.24-50.43-1.08-7.19-.24-14.68-.14-22.04.02-1.14.64-2.33 1.21-3.38 3.76-6.95 7.61-13.85 11.38-20.79 2.61-4.81 4.72-9.94 7.8-14.41 2.48-3.6 5.74-6.86 9.24-9.5 10.75-8.12 23.13-12.45 36.34-14.68 4.87-.82 7.63-4.56 7.14-9.47-1.1-11.01-2.33-22-3.58-33.65-25.34 14.65-50.29 29.07-75.39 43.59-6.62-3.94-3.5-13.08.59-17.98 6.32-7.57 14.79-12.21 23.3-16.68 7.93-4.16 14.73-9.5 20.7-16.2 4.38-4.9 9.32-9.39 14.47-13.48 6.65-5.28 9.21-12.4 10.54-20.26 1.29-7.7 2.45-15.42 3.69-23.29 5.67.89 9.24 3.85 11.32 8.22 1.86 3.9 2.97 8.16 4.32 12.29.59 1.8 1.19 3.65 1.41 5.52 1.54 12.97 10.23 19.94 20.99 25.13 19.22 9.28 38.48 18.5 57.75 27.68 2.92 1.39 6 2.45 8.99 3.67 3.41 1.4 5.32 3.92 5.74 7.98-7.64 2.42-15.46 3.01-22.95.35-9.88-3.52-19.49-7.81-29.12-11.98-9.95-4.3-19.79-8.86-29.68-13.3-1.1-.49-2.22-.95-3.98-1.7-.57 2.84-1.58 5.42-1.51 7.96.27 10.28.86 20.55 1.36 30.82.1 2.04 1.11 3.31 3.06 4.32 11.71 6.07 23.36 12.27 34.97 18.53 1.94 1.04 3.88 2.31 5.39 3.89 5.12 5.32 10.06 10.81 15.04 16.27.9.99 1.65 2.12 2.44 3.21 3.87 5.31 6.21 10.87 3.08 17.44-1.25 2.63-.81 5.03.99 7.43 3.1 4.11 2.33 8.89.95 13.21-2.03 6.36-5.11 12.38-7.24 18.71-5.03 15.03-15.88 25.06-28.36 33.73-6.6 4.59-13.36 8.96-20.1 13.47.82.77 1.66 1.56 2.46 2.32-3.1 4.68-3.05 4.64.34 9.09 12.01 15.78 24.81 30.87 38.57 45.16 7.67 7.97 12.95 17.36 14.54 28.53.07.53.08 1.06.15 2-5.17-1.16-10.06-2.16-14.88-3.4-.93-.24-1.74-1.3-2.4-2.14-15.63-19.88-31.22-39.79-46.86-59.65-1.02-1.3-2.23-2.55-3.61-3.43-2.64-1.69-5.28-1.15-6.95 1.3-11.3 16.49-24.76 31.18-38.04 46.03-5.52 6.17-10.71 12.64-16.19 18.84-5.28 5.97-11.69 10.25-19.81 12.05zm66.22-172.97c0-1.94.02-3.6 0-5.25-.2-11.85-.6-23.69-.49-35.54.03-3.91-1.61-6.06-4.9-6.83-4.32-1-8.77-1.43-13.19-1.96-.77-.09-1.69.45-2.44.87-5.06 2.85-10.21 5.56-15.09 8.68-3.64 2.33-8.09 4.52-10.11 7.99-4.06 6.98-7.11 14.65-9.73 22.32-1.02 2.98 0 6.78.61 10.12.17.95 2.2 2.27 3.33 2.22 17.17-.74 34.34-1.69 52.01-2.62zm-32.6 19.08c-.04-.33-.08-.65-.12-.98-4.19.42-8.6.15-12.53 1.4-8.29 2.63-8.94 1.99-4.89 10.68 2.6 5.57 7.56 10.07 11.64 14.9 1.41 1.67 3.13 3.36 5.07 4.22 5.7 2.53 11.56 4.75 17.42 6.9 4.13 1.52 8.37 1.75 12.26-.67 1.06-.66 2.06-2.1 2.28-3.32 1.06-5.93 2.11-11.89 2.64-17.88.42-4.85.24-9.77-.02-14.64-.06-1.02-1.59-2.73-2.54-2.8-4.2-.32-8.46-.45-12.65-.1-6.21.53-12.37 1.51-18.56 2.29zm61.44-19.03c2.57-.18 6.63-.14 10.57-.81 7.23-1.23 14.4-2.82 21.57-4.36 3.48-.75 4.01-2.99 3.23-6.25-2.52-10.43-9.19-17.96-17.01-24.66-5.85-5.01-12.44-8.68-20.22-9.8-4.91-.71-8.31 2.07-8.38 6.82-.04 2.68-.28 5.36-.27 8.04.05 8.02-.36 16.1.43 24.05.73 7.16 1.32 7.1 10.08 6.97zm-10.22 16.67c.95 13.19 1.87 26.06 2.81 39.09 6.62-.07 11.59-2.99 16.47-6.5 8.93-6.42 15.7-14.25 18.8-25.11 1.42-4.99-.16-8.73-5.4-9.41-3.75-.49-7.65-.06-11.33-.81-7.44-1.49-14.02 1.83-21.35 2.74z" fill="#010105"/></svg>