<svg enable-background="new 0 0 400 400" viewBox="0 0 400 400" xmlns="http://www.w3.org/2000/svg"><path d="m190.12 302.38h55.05c10.39 0 20.78-.15 31.16.08 2.93.07 6.01.87 8.7 2.06 1.89.83 3.67 2.63 4.74 4.45 2.28 3.87 1.24 6.11-2.86 7.83-10.33 4.34-21.19 3.81-32.04 3.72-34.67-.28-69.35-.6-104.02-.59-10.16 0-20.31 1.08-30.47 1.63-7.86.42-15.32-1.26-22.41-4.57-.88-.41-1.56-1.7-1.89-2.72-.36-1.14-.21-2.44-.26-3.66-.22-4.82 3.09-8.22 8.05-8.23 28.74-.01 57.49 0 86.25 0z" fill="#010103"/><path d="m180.81 86.41c17.46 0 34.93.04 52.39-.02 7.93-.02 15.87-.43 23.8-.28 6.54.12 10.65 3.65 12.25 9.51.49 1.81.3 3.05-1.25 4.36-4.1 3.48-8.82 5.52-14.08 5.49-10.39-.07-20.78-.64-31.18-.9-11.3-.29-22.59-.46-33.89-.68-23.6-.45-47.2-.88-70.81-1.35-3.34-.07-5.29-1.91-5.98-5.43-.54-2.78 1.31-7.25 3.73-7.92 4.14-1.15 8.39-2.58 12.62-2.65 17.47-.3 34.94-.13 52.4-.13z" fill="#010103"/><g fill="#fcfbfa"><path d="m377.9 391.2c-.2.3-.4.5-.6.8-.7-.6-1.4-1-2.2-1.5.2-.3.4-.5.5-.8.6.4 1.4.8 2.3 1.5zm-1.8 6.1c-.2-.2-.5-.4-.9-.6.4-.6.8-1.2 1.2-1.9s.7-1.3.9-1.9c.3.3.5.5.8.7-.7 1.3-1.4 2.6-2 3.7zm2.2-9c-.3.3-.5.5-.6.8-.6-.6-1.3-1.1-2-1.5.3-.3.5-.5.6-.7.6.5 1.3.9 2 1.4zm.3.2v-.9h2 4.5c-.3 1.3-.6 2.5-1 3.6s-.9 2.1-1.4 3c.4.5 1 1 1.6 1.4s1.2.8 1.9 1.1c-.3.2-.5.4-.8.8-.4-.3-1-.7-1.6-1.2s-1.2-1.1-1.6-1.6c-.5.6-1.1 1.1-1.7 1.6s-1.4.9-2.1 1.4c-.1-.3-.3-.5-.7-.8.6-.2 1.2-.5 1.9-1s1.4-1.1 2-1.8c-.5-.8-.9-1.6-1.2-2.5s-.6-2-.8-3.2c-.4.1-.7.1-1 .1zm2.5 2.7c.3 1 .7 1.7 1 2.2.3-.5.6-1.1 1-2s.6-1.9.9-3h-3.2-.4c.1.9.3 1.8.7 2.8z"/><path d="m396.5 388.5v1.5 3.6h1.5v.9c-.4 0-1 0-1.7 0h-7.9c-.5 0-.9 0-1.2 0v-.9h1.3v-3.5c0-.7 0-1.2 0-1.6h2.4c0-.8 0-1.4 0-1.7h1c0 .3-.1.8-.1 1.7h1.5c0-.8 0-1.4 0-1.7h1c0 .3-.1.9-.1 1.7zm-8.2 9.2c-.2-.3-.5-.5-.8-.8.8-.3 1.4-.6 1.9-.9s1-.7 1.4-1.1c.3.3.6.5.9.8-1.6 1-2.8 1.6-3.4 2zm2.6-6.8v-1.6h-1.5v1.6zm0 2.7v-1.9h-1.5v1.9zm2.4-2.7v-1.6h-1.5v1.6zm0 2.7v-1.9h-1.5v1.9zm.2 2 .7-.8c.4.2.9.5 1.6.8s1.3.7 1.8 1c-.3.3-.5.5-.8.8-.4-.3-1.5-1-3.3-1.8zm2-4.7v-1.6h-1.4v1.6zm0 2.7v-1.9h-1.4v1.9z"/></g></svg>