<svg enable-background="new 0 0 400 400" viewBox="0 0 400 400" xmlns="http://www.w3.org/2000/svg"><path d="m186.04 95.6c-8.79-.37-17.25-.96-25.72-1.03-20.26-.15-40.53.06-60.79-.15-3.71-.04-7.54-.95-11.07-2.17-4.1-1.42-5.7-6.1-3.96-10.02.24-.53.83-1.16 1.35-1.28 4.24-.92 8.5-2.44 12.76-2.46 50.15-.17 100.31-.05 150.46-.15 13.53-.03 27.06-.7 40.59-.75 4.3-.01 8.71.64 12.87 1.75 5.06 1.35 7.91 5.14 8.72 10.58-7.41 4.18-15.5 6.08-23.78 6.16-14.75.13-29.51-.55-44.26-.7-13.51-.14-27.02-.03-40.95-.03-.21 4.41-.53 8.5-.59 12.59-.2 12.97-.61 25.94-.32 38.9.17 7.44 2.82 14.09 9.22 18.89 6.88 5.17 13.59 10.59 20.12 16.2 8.95 7.68 12.15 18.17 13.61 29.42 2.45 18.94-2.39 36.48-10.81 53.09-10.52 20.73-20.97 41.55-32.65 61.63-7.62 13.09-17.24 25.04-26.23 37.31-3.4 4.64-7.98 8.21-13.52 10.14-1.63.57-4.13 1.14-5.17.34-2.16-1.67-3.14-4.54-1.93-7.28 1.43-3.25 2.71-6.89 5.1-9.35 23.99-24.66 39.15-54.81 53.68-85.38 5.47-11.51 11.55-22.79 14.17-35.39 1.29-6.2 2.06-12.56 2.52-18.88.57-7.97-3.58-14.88-5.88-22.19-.32-1.01-1.67-1.75-2.64-2.49-7.13-5.41-14.32-10.74-21.44-16.17-6.76-5.15-10.76-12.15-13.06-20.19-.36-1.26-.4-2.64-.4-3.97-.03-17.58-.02-35.16-.02-52.74.02-1.31.02-2.62.02-4.23z" fill="#010103"/><path d="m118.19 38.11c0-1.44 0-2.55 0-3.66-.01-6.56 1.92-8.45 8.73-8.45 36.15-.01 72.3-.02 108.44.01 8.71.01 17.44-.02 26.14.35 5.18.22 8.1 2.69 8.76 6.35.39 2.16-.01 3.78-2.27 4.95-5.72 2.96-11.79 4.09-18.13 4.11-16.88.06-33.76-.05-50.63.16-13.53.17-27.05.98-40.57 1-12.42.01-24.8-.96-36.95-3.86-1.08-.26-2.14-.58-3.52-.96z" fill="#010103"/><g fill="#fcfbfa"><path d="m377.9 391.2c-.2.3-.4.5-.6.8-.7-.6-1.4-1-2.2-1.5.2-.3.4-.5.5-.8.6.4 1.4.8 2.3 1.5zm-1.8 6.1c-.2-.2-.5-.4-.9-.6.4-.6.8-1.2 1.2-1.9s.7-1.3.9-1.9c.3.3.5.5.8.7-.7 1.3-1.4 2.6-2 3.7zm2.2-9c-.3.3-.5.5-.6.8-.6-.6-1.3-1.1-2-1.5.3-.3.5-.5.6-.7.6.5 1.3.9 2 1.4zm.3.2v-.9h2 4.5c-.3 1.3-.6 2.5-1 3.6s-.9 2.1-1.4 3c.4.5 1 1 1.6 1.4s1.2.8 1.9 1.1c-.3.2-.5.4-.8.8-.4-.3-1-.7-1.6-1.2s-1.2-1.1-1.6-1.6c-.5.6-1.1 1.1-1.7 1.6s-1.4.9-2.1 1.4c-.1-.3-.3-.5-.7-.8.6-.2 1.2-.5 1.9-1s1.4-1.1 2-1.8c-.5-.8-.9-1.6-1.2-2.5s-.6-2-.8-3.2c-.4.1-.7.1-1 .1zm2.5 2.7c.3 1 .7 1.7 1 2.2.3-.5.6-1.1 1-2s.6-1.9.9-3h-3.2-.4c.1.9.3 1.8.7 2.8z"/><path d="m396.5 388.5v1.5 3.6h1.5v.9c-.4 0-1 0-1.7 0h-7.9c-.5 0-.9 0-1.2 0v-.9h1.3v-3.5c0-.7 0-1.2 0-1.6h2.4c0-.8 0-1.4 0-1.7h1c0 .3-.1.8-.1 1.7h1.5c0-.8 0-1.4 0-1.7h1c0 .3-.1.9-.1 1.7zm-8.2 9.2c-.2-.3-.5-.5-.8-.8.8-.3 1.4-.6 1.9-.9s1-.7 1.4-1.1c.3.3.6.5.9.8-1.6 1-2.8 1.6-3.4 2zm2.6-6.8v-1.6h-1.5v1.6zm0 2.7v-1.9h-1.5v1.9zm2.4-2.7v-1.6h-1.5v1.6zm0 2.7v-1.9h-1.5v1.9zm.2 2 .7-.8c.4.2.9.5 1.6.8s1.3.7 1.8 1c-.3.3-.5.5-.8.8-.4-.3-1.5-1-3.3-1.8zm2-4.7v-1.6h-1.4v1.6zm0 2.7v-1.9h-1.4v1.9z"/></g></svg>