<svg enable-background="new 0 0 400 400" viewBox="0 0 400 400" xmlns="http://www.w3.org/2000/svg"><path d="m243.84 125.6c1.45 6.33 2.76 12.05 4.08 17.78 1.25 5.44 2.72 10.84 3.72 16.32 2.48 13.68-3.18 25.41-9.46 36.86-2.47 4.49-5.62 8.62-8.5 12.88-9.56 14.13-14.57 29.76-16.07 46.71-1.56 17.58-1.93 35.07 1.85 52.44 3.19 14.63 6.51 29.23 9.65 43.87.51 2.37.56 4.88.51 7.32-.05 2.43-1.23 4.49-3.77 4.91-2.5.42-5.04.53-7.02-1.9-5.08-6.26-7.71-13.56-9.36-21.28-4.14-19.37-7.62-38.81-8.62-58.67-1.22-24.23 2.19-47.51 12.63-69.55.79-1.68 1.98-3.24 3.25-4.6 13.14-14.11 19.95-30.57 18.79-50.02-.54-9.05-3.14-17.58-7.09-25.69-.35-.73-1.88-1.33-2.8-1.26-7.28.57-13.25 4.26-19.22 8.11-6.19 3.99-12.58 7.67-18.97 11.34-2.62 1.51-5.39 1.48-7.8-.64-3.09-2.71-3.23-6.25.09-8.56 8.7-6.07 17.5-12 26.41-17.73 2.09-1.34 4.8-1.74 7.24-2.52 5.04-1.62 5.91-4.26 2.59-8.23-7.06-8.44-9.97-17.91-7.05-28.74 1.83-6.79 3.88-13.52 5.93-20.25.31-1.02.94-2.06 1.69-2.82 9.49-9.69 19.11-19.42 31.02-26.02 7.94-4.39 16.68-7.49 25.35-10.32 2.78-.91 6.56.53 9.66 1.56 2.9.97 2.9 3.82 2.83 6.53-.08 2.63-2.11 2.6-3.71 2.99-14.96 3.63-28.3 10.37-39.67 20.79-6.19 5.67-12.41 11.36-15.49 19.52-3.11 8.24-3.09 16.66.32 24.55 1.84 4.26 5.64 7.72 8.83 11.3.59.66 2.48.4 3.72.21 6.62-1.05 13.18-2.85 19.83-3.21 18.39-.99 33.26 6.25 44.65 20.67.73.93 1.16 2.16 1.52 3.31 1.39 4.48 2.74 8.98 4.02 13.49 5.15 18.22 2.09 35.3-8 51-6.54 10.17-13.09 20.23-18.12 31.29-8.23 18.1-8.21 36.59-3.72 55.46 4.59 19.3 12.57 37.22 22.05 54.54 3.35 6.11 6.14 12.42 6.7 19.51.26 3.3-2.77 6.17-5.84 4.81-2.82-1.25-5.97-3-7.64-5.44-14.68-21.35-24.61-44.81-29.99-70.15s-2.4-49.82 8.2-73.4c.71-1.57 1.99-2.93 3.16-4.25 13.03-14.71 20.76-31.48 19.76-51.53-.35-7.13-2.2-14.06-5.99-20.06-3.42-5.41-9.01-8.77-15.02-10.74-9.87-3.21-20.11-2.26-31.13-2.49z" fill="#010103"/><path d="m125.26 58.88c-.65 9.28-1.34 17.97-1.85 26.68-1.55 26.25-3.37 52.5-4.44 78.77-.88 21.46-.84 42.97-1.21 64.45-.31 18.46-1 36.93-.84 55.39.17 19.69 1.19 39.37 1.72 59.06.09 3.22-.14 6.5-.73 9.66-.7 3.69-5.44 6.5-9.07 5.66-.72-.17-1.41-.99-1.88-1.67-3.37-4.82-5.01-10.32-5.05-16.08-.17-23.16-.19-46.33-.08-69.49.11-24.51.1-49.03.72-73.53.65-25.62 1.97-51.22 3-76.83.79-19.57 1.54-39.14 2.45-58.71.12-2.5-.86-3.68-3.05-3.71-4.56-.07-9.13-.05-13.68.25-6.23.41-10.79-4.73-8.03-10.28 1.16-2.35 5.32-4.38 8.2-4.51 11.5-.52 23.05-.54 34.55-.13 8.12.29 16.38.81 24.26 2.61 15.04 3.42 19.01 8.35 19.85 24.7.68 13.26-.34 26.62-.68 39.93-.59 22.71-1.17 45.42-1.9 68.13-.35 11.06-1.43 22.12-1.46 33.18-.11 37.53 4.73 74.52 12.67 111.14 3.29 15.18 6.42 30.4 9.61 45.61.18.86.19 1.75.28 2.54-.28.25-.42.45-.61.52-7.86 3.04-8.26 2.78-12.67-4.52-6.87-11.36-9.48-24.06-11.66-36.86-6.88-40.35-10.3-80.99-10.13-121.93.11-27.31-.14-54.62.14-81.93.15-14.99 1.14-29.97 1.62-44.96.13-4.01-.03-8.06-.41-12.06-.55-5.86-3.13-8.2-8.9-8.8-6.78-.7-13.53-1.48-20.74-2.28z" fill="#010103"/><g fill="#fcfbfa"><path d="m377.9 391.2c-.2.3-.4.5-.6.8-.7-.6-1.4-1-2.2-1.5.2-.3.4-.5.5-.8.6.4 1.4.8 2.3 1.5zm-1.8 6.1c-.2-.2-.5-.4-.9-.6.4-.6.8-1.2 1.2-1.9s.7-1.3.9-1.9c.3.3.5.5.8.7-.7 1.3-1.4 2.6-2 3.7zm2.2-9c-.3.3-.5.5-.6.8-.6-.6-1.3-1.1-2-1.5.3-.3.5-.5.6-.7.6.5 1.3.9 2 1.4zm.3.2v-.9h2 4.5c-.3 1.3-.6 2.5-1 3.6s-.9 2.1-1.4 3c.4.5 1 1 1.6 1.4s1.2.8 1.9 1.1c-.3.2-.5.4-.8.8-.4-.3-1-.7-1.6-1.2s-1.2-1.1-1.6-1.6c-.5.6-1.1 1.1-1.7 1.6s-1.4.9-2.1 1.4c-.1-.3-.3-.5-.7-.8.6-.2 1.2-.5 1.9-1s1.4-1.1 2-1.8c-.5-.8-.9-1.6-1.2-2.5s-.6-2-.8-3.2c-.4.1-.7.1-1 .1zm2.5 2.7c.3 1 .7 1.7 1 2.2.3-.5.6-1.1 1-2s.6-1.9.9-3h-3.2-.4c.1.9.3 1.8.7 2.8z"/><path d="m396.5 388.5v1.5 3.6h1.5v.9c-.4 0-1 0-1.7 0h-7.9c-.5 0-.9 0-1.2 0v-.9h1.3v-3.5c0-.7 0-1.2 0-1.6h2.4c0-.8 0-1.4 0-1.7h1c0 .3-.1.8-.1 1.7h1.5c0-.8 0-1.4 0-1.7h1c0 .3-.1.9-.1 1.7zm-8.2 9.2c-.2-.3-.5-.5-.8-.8.8-.3 1.4-.6 1.9-.9s1-.7 1.4-1.1c.3.3.6.5.9.8-1.6 1-2.8 1.6-3.4 2zm2.6-6.8v-1.6h-1.5v1.6zm0 2.7v-1.9h-1.5v1.9zm2.4-2.7v-1.6h-1.5v1.6zm0 2.7v-1.9h-1.5v1.9zm.2 2 .7-.8c.4.2.9.5 1.6.8s1.3.7 1.8 1c-.3.3-.5.5-.8.8-.4-.3-1.5-1-3.3-1.8zm2-4.7v-1.6h-1.4v1.6zm0 2.7v-1.9h-1.4v1.9z"/></g></svg>