<svg enable-background="new 0 0 400 400" viewBox="0 0 400 400" xmlns="http://www.w3.org/2000/svg"><g fill="#010103"><path d="m187.85 201.64c.58-14.62 1.14-28.79 1.73-43.77-4.05 0-7.91.09-11.76-.02-15.54-.41-31.08-.78-46.6-1.43-2.81-.12-5.7-1.13-8.31-2.27-3.01-1.32-3.93-4.08-3.42-7.29.32-2.04 1.36-3.03 3.46-3.84 7.89-3.04 15.92-1.53 23.9-1.25 27.6.97 55.2 1.91 82.79 3.2 7.45.35 14.93 1.47 22.26 2.93 15.61 3.11 24.31 15.27 22.42 31.07-.59 4.97-2.03 9.83-2.93 14.77-.86 4.73-3.71 7.82-7.51 10.53-12.51 8.91-26.48 11.85-41.59 11.1-17.43-.87-34.89-1.17-52.23 1.15-4.7.63-9.42 2.05-13.82 3.86-8.23 3.37-10.28 7.26-10.11 16.14.08 4.21 1.42 6.9 5.59 8.67 8.57 3.64 17.34 5.72 26.66 5.85 11.51.16 23.05.21 34.53.95 19.08 1.23 32.89 10.93 41.98 27.58 10.25 18.77 15.13 38.8 14.47 60.23-.3 9.84-.13 19.7 0 29.54.04 2.75-.97 4.93-3.37 5.48-1.96.44-4.31-.29-6.33-.95-.63-.21-.97-1.89-1.08-2.94-1.46-13.68-2.56-27.4-4.33-41.03-1.77-13.6-3.58-27.17-9.84-39.82-7-14.13-18-22.49-33.32-24.51-11.05-1.45-22.28-1.41-33.43-2.15-8.69-.57-17.55-.41-26-2.18-13.78-2.89-22.98-16.69-20.69-30.58.98-5.95 2.88-12.46 6.48-17.04 3.16-4.03 9-6.83 14.18-8.19 8.14-2.14 16.7-2.74 25.11-3.71 3.52-.42 7.12-.08 11.11-.08zm16.88-1.26c10.16 0 19.97.18 29.78-.07 6-.15 11.46-2.45 16.77-5.27 5.23-2.78 7.71-6.93 8.35-12.71 1.23-11.04-2.67-18.16-13.5-20.46-11.19-2.38-22.71-3.23-34.11-4.62-2.37-.29-4.81-.04-7.29-.04z"/><path d="m192.34 25.09c12.19.65 21.66 5.57 29.33 13.49 9.96 10.28 19.36 21.09 28.99 31.69 17 18.72 33.97 37.48 50.98 56.19 4.12 4.53 7.65 9.37 8.94 15.49.95 4.53-2.45 7.74-6.89 6.24-2.22-.75-4.55-2.05-6.09-3.76-23.76-26.5-47.37-53.13-71.07-79.67-5.21-5.83-10.53-11.58-16.02-17.13-3.55-3.58-8-5.59-13.16-5.95-5.56-.4-9.95 1.08-13.89 5.5-22.63 25.39-45.58 50.5-68.26 75.85-4.54 5.07-8.27 10.85-12.55 16.16-3.24 4.02-6.76 7.81-12.15 9.02-4.49 1.01-7.85-2.4-6.22-6.76 1.2-3.2 2.7-6.53 4.9-9.08 24.62-28.56 49.31-57.07 74.21-85.4 7.47-8.5 15.87-16.12 26.39-20.91 1.08-.5 2.24-.85 2.56-.97z"/><path d="m191.07 94.72c10.95 0 21.91-.08 32.86.07 2.18.03 4.39.8 6.52 1.45 2.63.8 4 2.67 4.09 5.48.09 2.8-1.73 3.79-3.99 4.55-8.27 2.77-16.84 3.42-25.46 3.58-14.99.27-29.97.19-44.76-2.76-6.03-1.2-6.02-1.28-5.42-8.48.18-2.12 3.87-4.4 7.29-4.41 9.62-.02 19.24-.01 28.87-.01z"/></g><path d="m377.9 391.2c-.2.3-.4.5-.6.8-.7-.6-1.4-1-2.2-1.5.2-.3.4-.5.5-.8.6.4 1.4.8 2.3 1.5zm-1.8 6.1c-.2-.2-.5-.4-.9-.6.4-.6.8-1.2 1.2-1.9s.7-1.3.9-1.9c.3.3.5.5.8.7-.7 1.3-1.4 2.6-2 3.7zm2.2-9c-.3.3-.5.5-.6.8-.6-.6-1.3-1.1-2-1.5.3-.3.5-.5.6-.7.6.5 1.3.9 2 1.4zm.3.2v-.9h2 4.5c-.3 1.3-.6 2.5-1 3.6s-.9 2.1-1.4 3c.4.5 1 1 1.6 1.4s1.2.8 1.9 1.1c-.3.2-.5.4-.8.8-.4-.3-1-.7-1.6-1.2s-1.2-1.1-1.6-1.6c-.5.6-1.1 1.1-1.7 1.6s-1.4.9-2.1 1.4c-.1-.3-.3-.5-.7-.8.6-.2 1.2-.5 1.9-1s1.4-1.1 2-1.8c-.5-.8-.9-1.6-1.2-2.5s-.6-2-.8-3.2c-.4.1-.7.1-1 .1zm2.5 2.7c.3 1 .7 1.7 1 2.2.3-.5.6-1.1 1-2s.6-1.9.9-3h-3.2-.4c.1.9.3 1.8.7 2.8z" fill="#fcfbfa"/><path d="m396.5 388.5v1.5 3.6h1.5v.9c-.4 0-1 0-1.7 0h-7.9c-.5 0-.9 0-1.2 0v-.9h1.3v-3.5c0-.7 0-1.2 0-1.6h2.4c0-.8 0-1.4 0-1.7h1c0 .3-.1.8-.1 1.7h1.5c0-.8 0-1.4 0-1.7h1c0 .3-.1.9-.1 1.7zm-8.2 9.2c-.2-.3-.5-.5-.8-.8.8-.3 1.4-.6 1.9-.9s1-.7 1.4-1.1c.3.3.6.5.9.8-1.6 1-2.8 1.6-3.4 2zm2.6-6.8v-1.6h-1.5v1.6zm0 2.7v-1.9h-1.5v1.9zm2.4-2.7v-1.6h-1.5v1.6zm0 2.7v-1.9h-1.5v1.9zm.2 2 .7-.8c.4.2.9.5 1.6.8s1.3.7 1.8 1c-.3.3-.5.5-.8.8-.4-.3-1.5-1-3.3-1.8zm2-4.7v-1.6h-1.4v1.6zm0 2.7v-1.9h-1.4v1.9z" fill="#fcfbfa"/></svg>