<svg enable-background="new 0 0 400 400" viewBox="0 0 400 400" xmlns="http://www.w3.org/2000/svg"><g fill="#010103"><path d="m120.77 57.43c-.51 8.82-1.1 16.94-1.42 25.08-1.94 49.54-3.74 99.09-5.75 148.63-1.53 37.71-1.8 75.4.17 113.1.17 3.33-.14 6.7-.4 10.03-.2 2.62-1.57 4.37-4.36 4.69-2.68.3-4.87.09-6.26-2.94-3.31-7.2-4.41-14.69-4.25-22.52.31-14.65.5-29.31.62-43.96.28-32.24.03-64.49.85-96.71.99-39.16 2.87-78.3 4.35-117.44.19-5.03.22-10.08.61-15.1.18-2.28-.81-3.27-2.71-3.27-4 0-8.09-.21-11.97.56-5.65 1.12-9.38-1.63-8.68-9.14.05-.54.54-1.32 1.02-1.51 4.31-1.69 8.2-4.51 13.25-4.19 14.27.91 28.56 1.57 42.83 2.46 2.2.14 4.35.97 6.51 1.53 9.65 2.51 15.08 8.48 16.72 18.56 1.86 11.39 1.42 22.74 1.04 34.15-.99 30.09-2.03 60.17-2.69 90.27-.42 19.13-.6 38.28-.18 57.4.51 23.44 4.43 46.5 9.21 69.42 3.62 17.4 6.93 34.87 10.37 52.31.62 3.14-.63 5.13-3.91 6.35-2.53.94-6.3-.5-7.77-3.07-4.47-7.86-7.56-16.29-8.85-25.18-3.61-24.9-7.38-49.79-10.18-74.79-4.88-43.5-3.36-87.17-2.26-130.81.5-19.8 1.63-39.6 1.81-59.4.06-6.37-1.98-12.77-3.19-19.14-.14-.72-1.05-1.47-1.78-1.85-1.68-.86-3.42-1.95-5.23-2.15-5.72-.64-11.49-.92-17.52-1.37z"/><path d="m248.46 225.8c-3.93 8.96-7.41 18.04-11.82 26.65-6.54 12.76-16.71 22.91-25.72 33.88-6.45 7.86-12.64 15.94-19.22 23.68-5.08 5.98-10.24 7.1-16.67 4.12 2.28-6.2 3.29-12.54 8.7-17.78 16.02-15.51 30.98-32.09 41.97-51.68 3.51-6.26 5.79-13.29 8.08-20.15 2.27-6.81 2.61-13.7-.88-20.49-7.66-14.95-5.83-30.9-4.38-46.73.88-9.6 2.7-19.04 6.78-27.9.65-1.41 1.4-2.77 2.08-4.08 5.48 1.03 9 4.95 8.82 11.45-.21 7.9-1.44 15.77-2.22 23.66-.59 5.9-1.29 11.79-1.72 17.7-.85 11.51 3.9 21.07 10.71 29.87 6.16 7.95 13.02 15.45 18.3 23.94 8.77 14.09 9.9 29.34 4.15 45.08-6.62 18.1-16.91 33.92-29.11 48.71-10.82 13.12-21.16 26.64-31.78 39.93-1.81 2.26-3.71 4.57-5.99 6.31-1.66 1.27-3.97 2.21-6.04 2.31-4.84.23-5.66-1.27-5.61-6.01.04-4.06 1.88-6.67 4.52-9.49 21.97-23.43 42.03-48.29 56.15-77.39 2.76-5.7 5.08-11.76 6.49-17.91.98-4.28.93-9.21-.16-13.47-3.06-12-5.88-15.81-15.43-24.21z"/><path d="m216.74 79.14c-.91 24.39-1.02 48.8-5.39 72.91-2.64 14.58-6.98 28.64-14.62 41.52-3.31 5.58-6.29 11.35-9.7 16.86-2.19 3.53-5.42 6.04-9.83 5.94-1.09-.02-2.93-1.22-3.07-2.09-.45-2.77-.6-5.7-.19-8.47.28-1.88 1.52-3.72 2.64-5.37 10.04-14.81 14.97-31.5 18.81-48.77 3.6-16.21 3.53-32.64 4.46-49.02 1-17.53 1.81-35.08 2.6-52.62.22-4.79-.19-9.62.2-14.38.23-2.71 1.5-5.33 2.3-7.99.73-2.45 2.23-2.32 4.11-1.31 3.39 1.82 5.45 4.75 6.23 8.33.8 3.68 1.32 7.5 1.38 11.26.18 11.05.07 22.13.07 33.2z"/><path d="m311.61 215.53c-3.11-.5-6.11-.84-9.03-1.54-1.05-.25-2.08-1.21-2.82-2.09-12.46-14.87-19.87-32.22-23-51.1-2.87-17.3-4.94-34.81-5.99-52.31-1.26-21.1-1.39-42.29-1.32-63.44.02-5.85 2.48-11.69 3.85-17.53.47-2.01 1.81-2.22 3.56-1.63 3.9 1.33 6.26 4.02 6.48 8.1.35 6.7.42 13.41.57 20.12.5 21.38.52 42.78 1.68 64.12.58 10.66 3.37 21.18 4.96 31.8 1.92 12.8 5.24 25.18 10.99 36.81 2.42 4.9 5.42 9.51 8.18 14.25 2.55 4.39 4.22 8.89 1.89 14.44z"/></g><path d="m377.9 391.2c-.2.3-.4.5-.6.8-.7-.6-1.4-1-2.2-1.5.2-.3.4-.5.5-.8.6.4 1.4.8 2.3 1.5zm-1.8 6.1c-.2-.2-.5-.4-.9-.6.4-.6.8-1.2 1.2-1.9s.7-1.3.9-1.9c.3.3.5.5.8.7-.7 1.3-1.4 2.6-2 3.7zm2.2-9c-.3.3-.5.5-.6.8-.6-.6-1.3-1.1-2-1.5.3-.3.5-.5.6-.7.6.5 1.3.9 2 1.4zm.3.2v-.9h2 4.5c-.3 1.3-.6 2.5-1 3.6s-.9 2.1-1.4 3c.4.5 1 1 1.6 1.4s1.2.8 1.9 1.1c-.3.2-.5.4-.8.8-.4-.3-1-.7-1.6-1.2s-1.2-1.1-1.6-1.6c-.5.6-1.1 1.1-1.7 1.6s-1.4.9-2.1 1.4c-.1-.3-.3-.5-.7-.8.6-.2 1.2-.5 1.9-1s1.4-1.1 2-1.8c-.5-.8-.9-1.6-1.2-2.5s-.6-2-.8-3.2c-.4.1-.7.1-1 .1zm2.5 2.7c.3 1 .7 1.7 1 2.2.3-.5.6-1.1 1-2s.6-1.9.9-3h-3.2-.4c.1.9.3 1.8.7 2.8z" fill="#fcfbfa"/><path d="m396.5 388.5v1.5 3.6h1.5v.9c-.4 0-1 0-1.7 0h-7.9c-.5 0-.9 0-1.2 0v-.9h1.3v-3.5c0-.7 0-1.2 0-1.6h2.4c0-.8 0-1.4 0-1.7h1c0 .3-.1.8-.1 1.7h1.5c0-.8 0-1.4 0-1.7h1c0 .3-.1.9-.1 1.7zm-8.2 9.2c-.2-.3-.5-.5-.8-.8.8-.3 1.4-.6 1.9-.9s1-.7 1.4-1.1c.3.3.6.5.9.8-1.6 1-2.8 1.6-3.4 2zm2.6-6.8v-1.6h-1.5v1.6zm0 2.7v-1.9h-1.5v1.9zm2.4-2.7v-1.6h-1.5v1.6zm0 2.7v-1.9h-1.5v1.9zm.2 2 .7-.8c.4.2.9.5 1.6.8s1.3.7 1.8 1c-.3.3-.5.5-.8.8-.4-.3-1.5-1-3.3-1.8zm2-4.7v-1.6h-1.4v1.6zm0 2.7v-1.9h-1.4v1.9z" fill="#fcfbfa"/></svg>