<svg enable-background="new 0 0 400 400" viewBox="0 0 400 400" xmlns="http://www.w3.org/2000/svg"><path d="m328.75 161.03c-.18 22.34-3.81 43.91-14.75 63.71-2.3 4.16-5.15 8.11-8.24 11.73-5.07 5.96-10.42 11.7-15.87 17.33-10.86 11.22-24.5 15.26-39.67 13.98-11.98-1.01-23.47-4.46-34.56-9.09-1.38-.58-2.77-1.49-3.77-2.6-7.58-8.38-15.24-16.71-22.49-25.38-2.37-2.83-3.88-6.51-5.27-10-15.7-39.46-18.62-79.61-5.96-120.46 1.88-6.06 4.17-12.09 7.13-17.69 1.56-2.96 4.78-5.19 7.58-7.31 8.86-6.73 19.18-9.84 29.99-11.69 20.87-3.57 41.74-3.26 62.35 1.21 14.64 3.17 27.3 10.41 33.2 25.04 3.34 8.29 5.37 17.31 6.66 26.19 2.16 14.91 3.26 29.97 4.81 44.96-.38.02-.76.05-1.14.07zm-72.06-82.92v74.49c18.43-.36 36.6-.72 54.67-1.07 2.42-11.87-.74-36.96-5.81-49.83-3.51-8.9-9.81-14.76-18.47-18.3-9.68-3.97-19.88-4.91-30.39-5.29zm-.07 90.5v84.38c4.03-1.99 7.71-3.79 11.37-5.63 10.42-5.26 20.16-11.93 26.86-21.3 11.49-16.07 18.45-33.93 15.18-54.43-.4-2.49-1.11-3.33-3.69-3.31-15.55.12-31.1.05-46.65.07-.97 0-1.95.14-3.07.22zm-65.8-16c16.39-.36 32.65-.72 49.24-1.09 0-1.77 0-3.1 0-4.42 0-16.33-.02-32.66.01-48.99.01-4.81.36-9.61.25-14.42-.08-3.62-2.68-6.06-6.15-5.47-6.36 1.09-12.94 1.89-18.88 4.21-9.83 3.85-17.96 9.89-20.03 21.42-.69 3.83-2.14 7.51-3.12 11.3-3.14 12.24-5.04 24.54-1.32 37.46zm49.17 98.1c-.67-27.45-1.34-53.59-1.92-79.73-.05-2.41-1.29-2.63-3.21-2.62-12.97.05-25.94.02-38.91.02-1.65 0-3.3 0-5.88 0 .75 7.5 1.06 14.63 2.25 21.6 3.15 18.41 12.57 33.67 24.57 47.6 4.17 4.85 9.06 8.64 14.81 11.24 2.38 1.08 5.17 1.22 8.29 1.89z" fill="#010103"/><path d="m110.29 41.67c-.32 4.52-.67 8.73-.92 12.95-2.01 33.74-4.34 67.46-5.89 101.22-.97 21.12-.74 42.3-1.06 63.45-.33 21.71-.92 43.42-.95 65.13-.02 20.03.62 40.06.82 60.09.03 3.31-.57 6.67-1.21 9.94-.53 2.72-2.54 4.13-5.33 4.24-2.63.1-4.59-.6-5.83-3.35-3.33-7.39-4.75-15.1-4.65-23.16.19-15.31.34-30.63.52-45.94.54-45.33.74-90.66 1.77-135.97.54-24.04 2.52-48.05 3.85-72.08.61-10.95 1.14-21.91 1.87-32.85.16-2.45-.74-3.68-2.98-3.83-3.89-.26-7.79-.34-11.68-.45-2.23-.06-4.5.23-6.7-.05-4.84-.62-8.63-6.78-5.99-10.55 1.58-2.25 5.16-4.29 7.89-4.35 20.78-.47 41.62-1.74 62.23 2.33.98.19 1.94.55 2.92.76 13.25 2.9 17.28 12.73 18.66 24.65 2.53 21.84.95 43.56-1.78 65.26-.11.89-.32 1.77-.36 2.66-1.09 23.12-3.04 46.24-3.06 69.36-.04 43.96 4.2 87.58 14.25 130.49 2.88 12.28 5.99 24.51 8.97 36.77.42 1.74.79 3.49 1.05 5.26 1.13 7.77-1.62 10.97-9.44 10.74-.84-.02-1.88-1.25-2.41-2.16-6.6-11.36-10.48-23.73-12.53-36.6-3.95-24.84-8.4-49.64-11.1-74.62-4.41-40.86-6.59-81.86-3.76-123 1.68-24.33 3.12-48.68 3.82-73.05.18-6.45-2.75-13-4.34-19.48-.11-.44-.91-.96-1.44-1.03-8.29-.97-16.62-1.85-25.21-2.78z" fill="#010103"/><g fill="#fcfbfa"><path d="m377.9 391.2c-.2.3-.4.5-.6.8-.7-.6-1.4-1-2.2-1.5.2-.3.4-.5.5-.8.6.4 1.4.8 2.3 1.5zm-1.8 6.1c-.2-.2-.5-.4-.9-.6.4-.6.8-1.2 1.2-1.9s.7-1.3.9-1.9c.3.3.5.5.8.7-.7 1.3-1.4 2.6-2 3.7zm2.2-9c-.3.3-.5.5-.6.8-.6-.6-1.3-1.1-2-1.5.3-.3.5-.5.6-.7.6.5 1.3.9 2 1.4zm.3.2v-.9h2 4.5c-.3 1.3-.6 2.5-1 3.6s-.9 2.1-1.4 3c.4.5 1 1 1.6 1.4s1.2.8 1.9 1.1c-.3.2-.5.4-.8.8-.4-.3-1-.7-1.6-1.2s-1.2-1.1-1.6-1.6c-.5.6-1.1 1.1-1.7 1.6s-1.4.9-2.1 1.4c-.1-.3-.3-.5-.7-.8.6-.2 1.2-.5 1.9-1s1.4-1.1 2-1.8c-.5-.8-.9-1.6-1.2-2.5s-.6-2-.8-3.2c-.4.1-.7.1-1 .1zm2.5 2.7c.3 1 .7 1.7 1 2.2.3-.5.6-1.1 1-2s.6-1.9.9-3h-3.2-.4c.1.9.3 1.8.7 2.8z"/><path d="m396.5 388.5v1.5 3.6h1.5v.9c-.4 0-1 0-1.7 0h-7.9c-.5 0-.9 0-1.2 0v-.9h1.3v-3.5c0-.7 0-1.2 0-1.6h2.4c0-.8 0-1.4 0-1.7h1c0 .3-.1.8-.1 1.7h1.5c0-.8 0-1.4 0-1.7h1c0 .3-.1.9-.1 1.7zm-8.2 9.2c-.2-.3-.5-.5-.8-.8.8-.3 1.4-.6 1.9-.9s1-.7 1.4-1.1c.3.3.6.5.9.8-1.6 1-2.8 1.6-3.4 2zm2.6-6.8v-1.6h-1.5v1.6zm0 2.7v-1.9h-1.5v1.9zm2.4-2.7v-1.6h-1.5v1.6zm0 2.7v-1.9h-1.5v1.9zm.2 2 .7-.8c.4.2.9.5 1.6.8s1.3.7 1.8 1c-.3.3-.5.5-.8.8-.4-.3-1.5-1-3.3-1.8zm2-4.7v-1.6h-1.4v1.6zm0 2.7v-1.9h-1.4v1.9z"/></g></svg>