<svg enable-background="new 0 0 400 400" viewBox="0 0 400 400" xmlns="http://www.w3.org/2000/svg"><path d="m205.83 135.09c-6.18 7.47-11.75 14.32-17.46 21.06-4.05 4.78-8.89 8.48-15.11 10.08-4.44 1.15-7.83-1.69-6.4-6.02 1.3-3.94 3.06-8.17 5.84-11.1 13.63-14.38 27.47-28.58 41.69-42.37 5-4.85 11.28-8.4 17.06-12.41 1.77-1.22 2.74-2.52 3.11-4.75 1.81-11.1.53-22.1-.67-33.13-1.16-10.77.41-21.17 4.56-31.12 5.09-.3 8.5 1.63 9.15 6.38.82 6.05.74 12.24.9 18.37.36 13.76.7 27.53.89 41.3.03 2.25.85 3.41 2.69 4.46 21.59 12.31 39.01 29.49 55.36 47.85 4.41 4.95 7.76 10.68 9.51 17.19.98 3.63-.52 5.74-4.37 5.94-3.61.19-6.45-1.54-8.85-4.07-7.79-8.19-15.57-16.4-23.36-24.6-.44-.47-.93-.89-1.84-1.75-.63 6.09-1.39 11.6-1.75 17.13-1 15.51-2.4 31.02-2.55 46.55-.11 11.03 1.65 22.08 2.4 33.13.84 12.39 1.48 24.79 2.24 37.85 4.48.2 9.22.45 13.96.61 6.48.22 12.99.06 19.43.64 5.04.46 7.66 3.14 8.33 6.95.4 2.25-.19 3.76-2.37 4.89-6.2 3.21-12.86 4-19.59 3.35-22.27-2.18-44.49.03-66.71.66-21.07.6-42.05.61-62.82-3.72-4.41-.92-2.42-4.32-3.31-6.58-.87-2.2.79-2.81 2.52-3.41 6.86-2.37 13.84-2 20.9-1.36 3.31.3 6.68-.04 10.02-.03 3.68.01 5.02-1.8 5.39-5.45 1.53-15.25 3.89-30.43 4.96-45.71 1.79-25.69 2.81-51.44-1.56-77.03-.53-3.09-1.36-6.1-2.19-9.78zm58.19 135.83c-.09-1.62-.13-2.73-.22-3.84-.84-10.93-2.05-21.84-2.43-32.78-.56-15.98-.59-31.99-.73-47.99-.09-10.29-.39-20.6.14-30.86.49-9.59 1.85-19.14 3.05-28.68.42-3.32-.55-5.88-2.75-8.19-6.34-6.68-14.59-8.72-23.3-9.54-.83-.08-1.85.64-2.6 1.22-4.62 3.53-9.15 7.18-13.81 10.67-1.55 1.16-1.88 2.27-1.54 4.22 3.77 21.73 7.07 43.62 6.7 65.66-.35 21.1-2.66 42.16-4.11 63.25-.4 5.85-.81 11.71-1.23 17.9 14.53-.36 28.47-.7 42.83-1.04z" fill="#010103"/><path d="m115.53 58.05c-.77 11.96-1.46 22.99-2.19 34.03-4.3 65.25-4.91 130.64-6.68 195.98-.54 19.88 1.06 39.82 1.55 59.74.07 2.98-.45 6-.98 8.95-.43 2.43-2.02 3.95-4.64 4.07-2.49.11-4.38-.51-5.67-3.06-4.26-8.4-4.96-17.27-4.39-26.46.44-7.14.58-14.31.61-21.46.11-23.61-.25-47.23.22-70.84.8-39.95 2-79.89 3.21-119.83.57-18.91 1.48-37.81 2.41-56.7.13-2.65-.77-3.91-3.14-3.95-4.33-.06-8.68.01-13 .29-5.85.37-10.51-4.85-8.1-10.19.97-2.15 4.65-3.42 7.36-4.35 2.13-.73 4.65-.44 6.99-.41 13.65.17 27.3.18 40.94.69 7.19.27 14.07 2.31 20.37 6.05 2.99 1.77 4.34 4.21 5.26 7.6 3.85 14.33 2.67 28.89 2.4 43.4-.39 21.26-1.01 42.52-1.69 63.78-.5 15.53-1.99 31.07-1.73 46.59.48 28.21 2.58 56.39 7.31 84.22 2.64 15.51 7.31 30.66 10.64 46.06 1.86 8.61 2.88 17.4 4.25 26.12.5 3.19-.15 5.13-4.07 5.57-6.5.73-4.55 1.89-7.63-3.51-6.86-12.04-10.15-25.24-12.13-38.82-3.09-21.25-6.59-42.46-9.02-63.78-3.48-30.6-5.57-61.29-3.78-92.15 1.71-29.6 3.35-59.21 4.33-88.83.25-7.55-1.8-15.27-3.56-22.73-.41-1.73-3.81-3.51-6.07-3.9-6.26-1.11-12.62-1.47-19.38-2.17z" fill="#010103"/><g fill="#fcfbfa"><path d="m377.9 391.2c-.2.3-.4.5-.6.8-.7-.6-1.4-1-2.2-1.5.2-.3.4-.5.5-.8.6.4 1.4.8 2.3 1.5zm-1.8 6.1c-.2-.2-.5-.4-.9-.6.4-.6.8-1.2 1.2-1.9s.7-1.3.9-1.9c.3.3.5.5.8.7-.7 1.3-1.4 2.6-2 3.7zm2.2-9c-.3.3-.5.5-.6.8-.6-.6-1.3-1.1-2-1.5.3-.3.5-.5.6-.7.6.5 1.3.9 2 1.4zm.3.2v-.9h2 4.5c-.3 1.3-.6 2.5-1 3.6s-.9 2.1-1.4 3c.4.5 1 1 1.6 1.4s1.2.8 1.9 1.1c-.3.2-.5.4-.8.8-.4-.3-1-.7-1.6-1.2s-1.2-1.1-1.6-1.6c-.5.6-1.1 1.1-1.7 1.6s-1.4.9-2.1 1.4c-.1-.3-.3-.5-.7-.8.6-.2 1.2-.5 1.9-1s1.4-1.1 2-1.8c-.5-.8-.9-1.6-1.2-2.5s-.6-2-.8-3.2c-.4.1-.7.1-1 .1zm2.5 2.7c.3 1 .7 1.7 1 2.2.3-.5.6-1.1 1-2s.6-1.9.9-3h-3.2-.4c.1.9.3 1.8.7 2.8z"/><path d="m396.5 388.5v1.5 3.6h1.5v.9c-.4 0-1 0-1.7 0h-7.9c-.5 0-.9 0-1.2 0v-.9h1.3v-3.5c0-.7 0-1.2 0-1.6h2.4c0-.8 0-1.4 0-1.7h1c0 .3-.1.8-.1 1.7h1.5c0-.8 0-1.4 0-1.7h1c0 .3-.1.9-.1 1.7zm-8.2 9.2c-.2-.3-.5-.5-.8-.8.8-.3 1.4-.6 1.9-.9s1-.7 1.4-1.1c.3.3.6.5.9.8-1.6 1-2.8 1.6-3.4 2zm2.6-6.8v-1.6h-1.5v1.6zm0 2.7v-1.9h-1.5v1.9zm2.4-2.7v-1.6h-1.5v1.6zm0 2.7v-1.9h-1.5v1.9zm.2 2 .7-.8c.4.2.9.5 1.6.8s1.3.7 1.8 1c-.3.3-.5.5-.8.8-.4-.3-1.5-1-3.3-1.8zm2-4.7v-1.6h-1.4v1.6zm0 2.7v-1.9h-1.4v1.9z"/></g></svg>