<svg enable-background="new 0 0 400 400" viewBox="0 0 400 400" xmlns="http://www.w3.org/2000/svg"><path d="m287.56 57.88c4.48 7.48 6.23 15.37 3.95 23.81-1.86 6.9-3.94 13.75-6.32 20.48-.84 2.39-2.5 4.77-4.4 6.45-8.94 7.91-19.35 12.31-32.02 12.16-.6 14.53-1.2 28.98-1.8 43.53 5.71 1.8 10.98.69 16.41-.27 8.96-1.58 13.15-7.1 14.47-15.53.91-5.85 1.58-11.75 2.76-17.54.52-2.54 1.66-5.17 3.21-7.24 2.41-3.22 5.07-2.79 6.71.81 6.7 14.74 4.03 28.79-4.36 41.73-4.06 6.26-11.28 9.01-18.55 10.54-6.12 1.29-12.3 2.37-18.5 3.24-2.25.32-2.9 1.21-3.22 3.3-1.79 11.81-1.84 11.81 7.36 19.54 3.34 2.81 6.56 5.8 10.09 8.34 10.05 7.21 13.77 17.8 15.86 29.23 1.56 8.53.29 16.93-1.8 25.24-3.8 15.1-5.56 30.34-2.98 45.87 1.19 7.19 5.15 13.08 9.15 18.83 3.83 5.49 8.27 10.57 12.52 15.76 5.59 6.83 10.21 14.15 11.94 22.96.8 4.05-2.34 6.8-6.35 5.46-1.43-.48-2.94-1.29-3.97-2.37-15.72-16.52-28.66-34.76-36.41-56.52-4.51-12.65-3.97-25.27-1.94-38.04 1.16-7.27 2.85-14.48 4.66-21.62 4.1-16.24-3.35-31.03-15.13-40.3-3.25-2.55-6.69-4.86-10.33-7.49-4.5 4.19-8.74 8.64-13.48 12.47-13.77 11.15-19.95 26.29-23.2 43.03-3.59 18.47-2.83 36.91.27 55.39 2.38 14.22 4.25 28.54 6.27 42.82.86 6.12-1.7 9.18-7.17 9.09-2.06-.03-3.21-.86-4.16-2.67-3.41-6.52-4.07-13.67-4.93-20.76-1.86-15.31-4.2-30.59-5.33-45.95-1.89-25.56 2.49-50.15 13.66-73.37.67-1.39 1.51-2.76 2.54-3.89 8.15-8.93 16.44-17.73 24.47-26.76 1.58-1.78 2.58-4.32 3.18-6.68.9-3.56 1.22-7.27 1.85-11.35-5.08-.94-10.08-1.88-15.08-2.78-3.08-.56-6.2-.93-9.25-1.6-8.58-1.9-13.57-8.12-16.9-15.47-4.85-10.7-5.33-22.14-3.14-33.54.36-1.88 3.3-3.85 5.47-4.64s3.76.83 4.2 3.47c1.41 8.6 3.34 17.13 4.48 25.77.85 6.45 4.67 10.11 10.08 12.21 6.32 2.45 13.05 2.71 19.95 2.11.13-.66.31-1.18.33-1.7.3-13.09.53-26.18.9-39.27.06-2.04-.4-2.96-2.58-3.33-4.51-.76-8.95-1.99-13.45-2.83-13.81-2.58-21.8-11.63-26.23-24.16-3.48-9.84-3.13-20-.86-30.14.64-2.86 1.53-5.08 5.09-4.76 1.07.09 2.17-.27 3.36-.44 3.64 8.47 6.14 17.11 5.96 26.11-.32 16.14 7.34 19.88 21.48 22.25 1.96.33 3.97.33 6.2.51.29-4.97.42-9.77.88-14.53 1.18-12.13 2.49-24.25 3.8-36.37.78-7.18 4.48-12.78 9.77-17.44 4.92-4.33 10.33-7.75 16.81-9.37 4.66-1.16 9.16-2.95 13.84-4 2.4-.54 5.08-.39 7.53.04 2.66.47 4.06 2.38 4.22 5.28.16 2.87-.85 4.36-3.61 5.47-9.84 3.97-19.53 8.33-29.36 12.34-2.4.98-4.14 2.4-4.71 4.77-1.49 6.16-3.43 12.34-3.91 18.6-.81 10.47-.56 21.02-.9 31.54-.08 2.38.88 3.18 3.04 3.28 12.36.55 22.6-4.91 25.79-19.29 1.4-6.3 1.69-12.83 2.76-19.21.9-5.11 3.22-9.28 9.06-10.61z" fill="#010103"/><path d="m124.23 64.44c-.5 7.72-.92 14.96-1.44 22.2-4.16 57.97-5.59 116.03-5.58 174.13.01 26.18.39 52.37.55 78.55.01 2.11-.25 4.25-.61 6.33-.47 2.68-2.36 3.89-4.97 4.17-2.51.28-4.05-.54-5.16-3.05-2.53-5.73-3.95-11.63-3.94-17.86.01-13.42-.01-26.83.17-40.25.6-44.76.99-89.53 2.06-134.28.67-27.85 2.42-55.68 3.71-83.52.21-4.57-.47-5.83-5.05-6.46-3.63-.49-7.36-.24-11.04-.36-4.41-.14-6.56-2.31-6.69-6.66-.1-3.26 3.07-6.14 7.53-6.22 10.62-.18 21.25-.39 31.86-.06 7.01.21 13.99 1.28 20.97 2.08 1.42.16 2.78.81 4.17 1.23 7.04 2.11 11.24 6.58 12.79 13.97 2.1 10.06 2.87 20.19 2.31 30.37-1.42 25.68-3.74 51.32-4.57 77.02-.66 20.32-.12 40.72.77 61.05.68 15.4 2.11 30.84 4.38 46.08 2.64 17.79 6.47 35.4 9.98 53.05.8 4.03 2.63 7.85 3.51 11.88.73 3.34.86 6.84 1.08 10.27.21 3.16-1.74 4.75-4.59 5.09-2.82.34-5.58.15-7.12-2.95-4.52-9.1-7.14-18.81-8.9-28.73-8.7-49-14.16-98.34-13.97-148.16.06-15.85 2.03-31.69 2.83-47.54.74-14.64 1.13-29.3 1.58-43.95.15-5.03.16-10.07-.04-15.09-.08-1.95-.67-3.99-1.47-5.79-1.17-2.66-3.03-4.31-6.37-4.5-6.12-.38-12.21-1.3-18.74-2.04z" fill="#010103"/><g fill="#fcfbfa"><path d="m377.9 391.2c-.2.3-.4.5-.6.8-.7-.6-1.4-1-2.2-1.5.2-.3.4-.5.5-.8.6.4 1.4.8 2.3 1.5zm-1.8 6.1c-.2-.2-.5-.4-.9-.6.4-.6.8-1.2 1.2-1.9s.7-1.3.9-1.9c.3.3.5.5.8.7-.7 1.3-1.4 2.6-2 3.7zm2.2-9c-.3.3-.5.5-.6.8-.6-.6-1.3-1.1-2-1.5.3-.3.5-.5.6-.7.6.5 1.3.9 2 1.4zm.3.2v-.9h2 4.5c-.3 1.3-.6 2.5-1 3.6s-.9 2.1-1.4 3c.4.5 1 1 1.6 1.4s1.2.8 1.9 1.1c-.3.2-.5.4-.8.8-.4-.3-1-.7-1.6-1.2s-1.2-1.1-1.6-1.6c-.5.6-1.1 1.1-1.7 1.6s-1.4.9-2.1 1.4c-.1-.3-.3-.5-.7-.8.6-.2 1.2-.5 1.9-1s1.4-1.1 2-1.8c-.5-.8-.9-1.6-1.2-2.5s-.6-2-.8-3.2c-.4.1-.7.1-1 .1zm2.5 2.7c.3 1 .7 1.7 1 2.2.3-.5.6-1.1 1-2s.6-1.9.9-3h-3.2-.4c.1.9.3 1.8.7 2.8z"/><path d="m396.5 388.5v1.5 3.6h1.5v.9c-.4 0-1 0-1.7 0h-7.9c-.5 0-.9 0-1.2 0v-.9h1.3v-3.5c0-.7 0-1.2 0-1.6h2.4c0-.8 0-1.4 0-1.7h1c0 .3-.1.8-.1 1.7h1.5c0-.8 0-1.4 0-1.7h1c0 .3-.1.9-.1 1.7zm-8.2 9.2c-.2-.3-.5-.5-.8-.8.8-.3 1.4-.6 1.9-.9s1-.7 1.4-1.1c.3.3.6.5.9.8-1.6 1-2.8 1.6-3.4 2zm2.6-6.8v-1.6h-1.5v1.6zm0 2.7v-1.9h-1.5v1.9zm2.4-2.7v-1.6h-1.5v1.6zm0 2.7v-1.9h-1.5v1.9zm.2 2 .7-.8c.4.2.9.5 1.6.8s1.3.7 1.8 1c-.3.3-.5.5-.8.8-.4-.3-1.5-1-3.3-1.8zm2-4.7v-1.6h-1.4v1.6zm0 2.7v-1.9h-1.4v1.9z"/></g></svg>