<svg enable-background="new 0 0 400 400" viewBox="0 0 400 400" xmlns="http://www.w3.org/2000/svg"><path d="m200.16 177.37h33.29c.43-2.53 1.15-5.11 1.27-7.72.83-17.53-.52-34.88-4.34-52.03-.97-4.36-3.26-7.23-7.03-9.91-6.14-4.36-11.72-9.61-17.13-14.9-4.11-4.02-5-9.38-3.9-14.98 1.69-8.57 5.32-15.78 13.65-19.91 3.49-1.73 6.76-3.95 10-6.14 3.72-2.51 6.22-5.93 7.16-10.65-9.4 0-18.54.05-27.68-.03-3.11-.03-6.29-.06-9.32-.65-5.74-1.13-9.12-4.81-10.25-10.97 5.45-1.82 10.35-4.8 16.51-4.59 22.02.75 44.08.79 66.08 1.94 9.84.51 19.91 1.12 29.27 5.1 6.24 2.66 10.27 7.44 11.65 13.84 3 13.95.69 27.58-4.12 40.78-.81 2.23-3.11 4.39-5.28 5.6-12.89 7.22-26.56 8.5-40.89 5.06-3.4-.82-4.6-2.46-4.62-5.62-.01-1.22-.16-2.44-.3-4.44 4.22-.79 8.4-1.92 12.65-2.28 4.67-.4 9.42.19 14.08-.2 3.03-.25 6.22-1.02 8.91-2.39 3.65-1.86 5.67-5.06 5.54-9.55-.16-5.48.14-10.96.26-16.45.17-7.48-1.75-10.66-8.95-12.81-4.89-1.46-10-2.51-15.08-2.89-6.78-.52-13.63-.17-20.45-.29-1.73-.03-2.61.45-3.02 2.26-.68 3.05-1.92 5.99-2.48 9.05-.75 4.05-2.95 6.98-6.3 9.03-4.37 2.67-8.78 5.32-13.38 7.56-7.2 3.51-10.03 11.98-5.91 18.9.54.91 1.55 1.58 2.43 2.24 5 3.76 10.13 7.37 15.02 11.27 3.41 2.72 5.39 6.32 6.14 10.8 1.08 6.5 2.68 12.91 4.15 19.8h42.43c.78-5.1 1.63-10.49 2.44-15.89.69-4.61 2.59-8.26 7.28-10.01 1.97-.74 3.47-.42 3.95 1.58 1.27 5.29 3.25 10.64 3.21 15.95-.07 8.91-1.08 17.88-2.43 26.7-2.48 16.17-1.77 32.37-1.39 48.59.63 26.64.81 53.29 1.83 79.91.35 9.1 2.62 18.12 4.03 27.17 2.69 17.26 4.74 34.58 5.11 52.08.1 4.71-3.52 3.92-5.83 5.23-2.55 1.45-3.39-.61-4.37-2.14-6.38-9.83-9.19-20.89-10.03-32.36-1.83-24.89-3.25-49.81-4.84-74.72-.06-.88-.18-1.76-.31-3.03-12.74-.34-25.4-.69-38.59-1.04 0 7.13.05 13.82-.01 20.51-.22 23.4-.56 46.8-.68 70.2-.04 8.05.53 16.11.56 24.16.01 2.39-.48 4.96-1.42 7.14-1.43 3.3-4.56 3.92-7.91 3.82-2.92-.09-3.39-2.51-3.83-4.37-.92-3.89-1.79-7.89-1.83-11.86-.39-35.04-.58-70.09-.84-105.13-.01-.78-.08-1.55-.15-2.71-11.48-.58-22.92-1.16-34.66-1.75-.48 6.07-.98 11.84-1.4 17.61-1.66 22.78-3.14 45.57-5.03 68.32-.55 6.65-1.9 13.28-3.46 19.79-1.23 5.12-4.94 7.26-9.52 6.07-1.25-.32-2.92-1.65-3.14-2.77-.65-3.23-1.22-6.66-.82-9.89 3.89-31.88 8.17-63.71 7.92-95.95-.07-8.47 1.31-16.94 1.95-25.42 1.48-19.51-.22-38.91-1.71-58.35-1.5-19.53-2.44-39.1-3.75-58.64-.27-4.02 3.18-3.27 5.06-4.54 1.99-1.34 2.73.33 3.66 1.56 6.3 8.33 7.98 18.12 8.62 28.13.84 13.17 1.37 26.37 2.04 39.55.04.78.13 1.55.23 2.67zm88.12 15.9c-12.75 0-25.09 0-37.59 0v40.63c12.07 0 23.9.03 35.73-.09.63-.01 1.77-1.35 1.78-2.08.11-12.53.08-25.05.08-38.46zm-54.9-.64c-11 0-21.47 0-32.19 0-.35 14.06-.7 27.89-1.06 42.2 11.56-.35 22.77-.69 34.28-1.04-.35-13.96-.69-27.47-1.03-41.16zm16.09-46.64c.36 10.8.7 21.03 1.03 30.71 10.98 0 21.58.09 32.17-.03 5.76-.07 5.75-.22 5.98-6.14.08-1.9.25-3.79.36-5.69.34-5.77.67-11.54 1.03-17.77-13.56-.37-26.78-.71-40.57-1.08z" fill="#010103"/><path d="m114.06 47.35c-.38 14.02-.75 27.55-1.11 41.08-1.08 41.07-2.34 82.14-3.18 123.21-.87 42.31-1.32 84.62-1.99 126.94-.06 3.9-.18 7.82-.62 11.68-.28 2.46-1.79 4.19-4.44 4.87-3.01.78-5.55.4-6.54-2.76-1.42-4.53-3.46-9.2-3.44-13.81.11-23.84.83-47.68 1.25-71.52.47-26.75.56-53.51 1.3-80.26 1.25-44.99 2.84-89.96 4.44-134.94.13-3.53-1.29-4.64-4.28-4.74-3.12-.1-6.25-.01-9.38-.1-5.16-.16-8.27-5.17-6.02-9.76.34-.69 1.25-1.21 2.01-1.55 4.69-2.12 9.44-4.05 14.77-3.67 11.7.82 23.43 1.41 35.11 2.5 3.24.3 6.45 1.77 9.5 3.11 7.78 3.41 10.29 10.25 11.51 18.01 3.11 19.87 2.1 39.68-.03 59.57-.93 8.64-.55 17.43-.61 26.16-.32 44.11-.88 88.22 1.36 132.3.61 12.05 2.13 24.08 3.62 36.07 1.83 14.75 4.19 29.44 6.02 44.19.47 3.82-.08 7.8-.4 11.68-.06.69-1.25 1.69-2.04 1.83-1.63.29-3.4.35-5 0-1.18-.26-2.64-1.07-3.19-2.06-5.09-9.27-7.37-19.36-8.39-29.8-1.99-20.27-4.57-40.5-5.86-60.81-1.39-21.99-2.26-44.06-2.16-66.09.2-45.34 1.19-90.67 1.89-136 .05-3.46.52-6.92.55-10.38.02-1.99-.22-4.05-.76-5.96-1.07-3.78-2.65-6.81-7.59-6.97-5.32-.16-10.63-1.27-16.3-2.02z" fill="#010103"/><g fill="#fcfbfa"><path d="m377.9 391.2c-.2.3-.4.5-.6.8-.7-.6-1.4-1-2.2-1.5.2-.3.4-.5.5-.8.6.4 1.4.8 2.3 1.5zm-1.8 6.1c-.2-.2-.5-.4-.9-.6.4-.6.8-1.2 1.2-1.9s.7-1.3.9-1.9c.3.3.5.5.8.7-.7 1.3-1.4 2.6-2 3.7zm2.2-9c-.3.3-.5.5-.6.8-.6-.6-1.3-1.1-2-1.5.3-.3.5-.5.6-.7.6.5 1.3.9 2 1.4zm.3.2v-.9h2 4.5c-.3 1.3-.6 2.5-1 3.6s-.9 2.1-1.4 3c.4.5 1 1 1.6 1.4s1.2.8 1.9 1.1c-.3.2-.5.4-.8.8-.4-.3-1-.7-1.6-1.2s-1.2-1.1-1.6-1.6c-.5.6-1.1 1.1-1.7 1.6s-1.4.9-2.1 1.4c-.1-.3-.3-.5-.7-.8.6-.2 1.2-.5 1.9-1s1.4-1.1 2-1.8c-.5-.8-.9-1.6-1.2-2.5s-.6-2-.8-3.2c-.4.1-.7.1-1 .1zm2.5 2.7c.3 1 .7 1.7 1 2.2.3-.5.6-1.1 1-2s.6-1.9.9-3h-3.2-.4c.1.9.3 1.8.7 2.8z"/><path d="m396.5 388.5v1.5 3.6h1.5v.9c-.4 0-1 0-1.7 0h-7.9c-.5 0-.9 0-1.2 0v-.9h1.3v-3.5c0-.7 0-1.2 0-1.6h2.4c0-.8 0-1.4 0-1.7h1c0 .3-.1.8-.1 1.7h1.5c0-.8 0-1.4 0-1.7h1c0 .3-.1.9-.1 1.7zm-8.2 9.2c-.2-.3-.5-.5-.8-.8.8-.3 1.4-.6 1.9-.9s1-.7 1.4-1.1c.3.3.6.5.9.8-1.6 1-2.8 1.6-3.4 2zm2.6-6.8v-1.6h-1.5v1.6zm0 2.7v-1.9h-1.5v1.9zm2.4-2.7v-1.6h-1.5v1.6zm0 2.7v-1.9h-1.5v1.9zm.2 2 .7-.8c.4.2.9.5 1.6.8s1.3.7 1.8 1c-.3.3-.5.5-.8.8-.4-.3-1.5-1-3.3-1.8zm2-4.7v-1.6h-1.4v1.6zm0 2.7v-1.9h-1.4v1.9z"/></g></svg>