<svg enable-background="new 0 0 400 400" viewBox="0 0 400 400" xmlns="http://www.w3.org/2000/svg"><path d="m232.39 264.37c0-20.06 0-40.17 0-61.1-8.57-.06-17.47-.05-26.37-.21-7.24-.13-14.52-.09-21.71-.83-4.32-.45-7.93-2.96-9.51-7.51-.71-2.05-.48-3.46 1.69-4.66 5.91-3.26 12.26-3.84 18.82-3.82 11.29.05 22.57-.04 33.86-.1 1.19-.01 2.38-.23 3.67-.36 0-11.49 0-22.66 0-34.51-5.82-.67-11.64-1.56-17.5-1.94-7.71-.51-15.33-.83-22.62-4.02-7.79-3.42-12.4-9.01-14.39-17.25-5.47-22.6-6.68-45.34-2.43-68.22 1.22-6.56 3.04-13.09 5.41-19.33.94-2.48 3.92-4.39 6.31-6.1 7.94-5.68 17.33-6.67 26.64-8.13 15.15-2.39 30.12-.02 45.15 1.03 6.25.44 12.5 1.67 18.72 1.44 8.47-.32 13.43 4.54 17.99 10.36 7.07 9.03 10.11 19.67 11.02 30.84 1.51 18.39.25 36.59-3.78 54.69-2.63 11.8-10.42 17.62-20.81 21.37-10.21 3.68-20.79 5.21-31.59 5.29-2.69.02-3.37.93-3.33 3.52.14 9.4.12 18.81.01 28.21-.03 2.24.57 3.25 2.94 3.27 10.62.07 21.24.07 31.84.44 5.76.2 11.6.59 17.2 1.82 4.57 1 7.53 4.52 8.45 9.58-6.87 3.61-14.15 5.16-21.72 4.95-9.05-.25-18.08-.98-27.13-1.36-2.33-.1-4.67.37-7.01.5-1.78.1-2.49.86-2.55 2.72-.59 19.57-1.26 39.14-1.92 59.01.86.11 1.7.3 2.54.31 20.36.24 40.73.35 61.08.78 3.94.08 7.92 1.16 11.75 2.23 2.78.78 4.35 3 4.4 6.07.04 2.97-1.38 5.02-4.18 5.62-5.41 1.16-10.95 3.14-16.32 2.82-34.12-2.03-68.25-.84-102.37-1.11-9.16-.07-18.32.67-27.48.51-4.41-.08-8.79-1.45-13.2-2.08-2.96-.42-3.96-2.01-4.14-4.91-.31-5-.34-5.4 4.36-7.1 9.16-3.31 18.7-2.81 28.21-2.74 13.08.08 26.15.01 40 .01zm-42.37-168.71c0 6.49-.49 12.67.11 18.74 1.13 11.44 6.25 17.37 16.41 19.78 7.84 1.86 15.72 3.52 23.85 1.37 2-.53 2.64-1.32 2.57-3.41-.39-11.63-.61-23.26-.91-34.89-.01-.52-.22-1.04-.35-1.59-13.88 0-27.62 0-41.68 0zm58.93 39.78c8.95.52 17.78 1.18 26.38-1.21 7.56-2.1 13.12-6.44 14.31-14.93.48-3.42 1.68-6.73 2.12-10.15.42-3.29.43-6.65.35-9.98-.06-2.62-1.45-3.74-4.34-3.7-11.96.17-23.91.07-35.87.08-.97 0-1.94.11-2.95.17zm-15.94-55.56c-.35-13.24-.69-26.14-1.03-39.13-10.92-.58-21.4-.6-31.32 3.67-2.28.98-5.1 2.19-6.2 4.13-5.69 10.02-6.34 20.89-4.53 32.36 14.36-.35 28.41-.68 43.08-1.03zm16.01-39.33v40.35c14.18-.35 28.1-.69 42.31-1.03.31-9.01.34-17.69-2.76-26.05-1.67-4.53-4.75-7.73-9.33-9.5-9.72-3.75-19.85-3.65-30.22-3.77z" fill="#010103"/><path d="m107.47 45.86c-.54 10.33-1.19 19.59-1.48 28.86-1.93 61.97-4.11 123.94-5.52 185.92-.64 27.84.32 55.72.5 83.59.02 2.56-.17 5.15-.55 7.68-.57 3.81-5.6 7.12-9.1 5.99-.74-.24-1.5-1.38-1.67-2.23-1.6-7.74-4.23-15.49-4.35-23.27-.39-23.83-.06-47.68.46-71.51 1.2-54.83 2.58-109.66 4.09-164.48.41-14.88 1.41-29.74 2.46-44.59.26-3.65-.97-5.34-4.27-5.59-4.22-.31-8.47-.3-12.71-.43-5.22-.16-7.91-2.72-8.3-7.74-.16-2.07.51-3.08 2.55-3.97 6.48-2.81 13.09-4.09 20.19-3.81 13.06.51 26.2-.06 39.07 2.83 3.13.7 6.2 1.94 9.08 3.37 5.73 2.86 9.64 7.13 11.27 13.71 2.97 11.98 3.78 24.13 3.06 36.32-.87 14.61-2.73 29.16-3.74 43.77-.65 9.48-.48 19.01-.8 28.52-.52 15.32-1.64 30.64-1.58 45.95.07 18.68.46 37.4 1.88 56.01 1.94 25.31 4.79 50.56 7.71 75.79.83 7.16 3.35 14.12 4.93 21.2 1.15 5.14.83 10.27-1.46 15.08-.4.84-1.83 1.53-2.87 1.68-6.58.95-8.98-3.22-10.87-8.6-3.67-10.47-4.72-21.34-5.87-32.25-1.56-14.91-3.48-29.77-5.06-44.68-3.46-32.54-5.14-65.14-3.04-97.87 1.08-16.86 1.7-33.75 2.36-50.63.85-21.91 1.81-43.81 2.14-65.73.11-7.07-1.56-14.17-2.49-21.25-.44-3.32-2.61-5.3-5.75-5.69-6.62-.81-13.28-1.3-20.27-1.95z" fill="#010103"/><g fill="#fcfbfa"><path d="m377.9 391.2c-.2.3-.4.5-.6.8-.7-.6-1.4-1-2.2-1.5.2-.3.4-.5.5-.8.6.4 1.4.8 2.3 1.5zm-1.8 6.1c-.2-.2-.5-.4-.9-.6.4-.6.8-1.2 1.2-1.9s.7-1.3.9-1.9c.3.3.5.5.8.7-.7 1.3-1.4 2.6-2 3.7zm2.2-9c-.3.3-.5.5-.6.8-.6-.6-1.3-1.1-2-1.5.3-.3.5-.5.6-.7.6.5 1.3.9 2 1.4zm.3.2v-.9h2 4.5c-.3 1.3-.6 2.5-1 3.6s-.9 2.1-1.4 3c.4.5 1 1 1.6 1.4s1.2.8 1.9 1.1c-.3.2-.5.4-.8.8-.4-.3-1-.7-1.6-1.2s-1.2-1.1-1.6-1.6c-.5.6-1.1 1.1-1.7 1.6s-1.4.9-2.1 1.4c-.1-.3-.3-.5-.7-.8.6-.2 1.2-.5 1.9-1s1.4-1.1 2-1.8c-.5-.8-.9-1.6-1.2-2.5s-.6-2-.8-3.2c-.4.1-.7.1-1 .1zm2.5 2.7c.3 1 .7 1.7 1 2.2.3-.5.6-1.1 1-2s.6-1.9.9-3h-3.2-.4c.1.9.3 1.8.7 2.8z"/><path d="m396.5 388.5v1.5 3.6h1.5v.9c-.4 0-1 0-1.7 0h-7.9c-.5 0-.9 0-1.2 0v-.9h1.3v-3.5c0-.7 0-1.2 0-1.6h2.4c0-.8 0-1.4 0-1.7h1c0 .3-.1.8-.1 1.7h1.5c0-.8 0-1.4 0-1.7h1c0 .3-.1.9-.1 1.7zm-8.2 9.2c-.2-.3-.5-.5-.8-.8.8-.3 1.4-.6 1.9-.9s1-.7 1.4-1.1c.3.3.6.5.9.8-1.6 1-2.8 1.6-3.4 2zm2.6-6.8v-1.6h-1.5v1.6zm0 2.7v-1.9h-1.5v1.9zm2.4-2.7v-1.6h-1.5v1.6zm0 2.7v-1.9h-1.5v1.9zm.2 2 .7-.8c.4.2.9.5 1.6.8s1.3.7 1.8 1c-.3.3-.5.5-.8.8-.4-.3-1.5-1-3.3-1.8zm2-4.7v-1.6h-1.4v1.6zm0 2.7v-1.9h-1.4v1.9z"/></g></svg>