<svg enable-background="new 0 0 400 400" viewBox="0 0 400 400" xmlns="http://www.w3.org/2000/svg"><g fill="#010103"><path d="m188.92 215.26c.33-4.1.78-7.77.83-11.44.02-.96-.95-2.5-1.83-2.83-8.47-3.23-12.6-9.47-13.59-18.29-.63-5.6-.86-11.03.51-16.63 4.08-16.73 7.87-33.52 11.64-50.32.38-1.71.24-3.78-.35-5.44-8.02-22.54-16.28-44.99-24.17-67.57-1.32-3.77-1.76-8.09-1.52-12.09.3-4.97 4.35-6.49 8.46-3.64 4.02 2.8 5.4 7.28 6.95 11.58 6.13 17.04 12.19 34.1 18.29 51.15.15.41.41.77.86 1.59 3.32-9.38 6.51-18.39 9.68-27.4 3.2-9.07 6.3-18.17 9.62-27.19.91-2.49 2.18-4.96 3.8-7.03 1.15-1.47 3.05-2.73 4.85-3.24 3.6-1.01 5.22.42 5.97 4.09 1.48 7.17-.61 13.72-3.17 20.24-3.88 9.87-7.83 19.71-11.49 29.66-3.67 9.96-7.12 20.01-10.42 30.1-.67 2.04-.67 4.58-.16 6.69 3.9 16.18 8.08 32.3 11.99 48.48 1.68 6.97 1.23 14-.45 20.96-1.07 4.45-2.73 8.53-6.8 11.13-4.25 2.71-5.62 6.66-5.13 11.49.12 1.2.02 2.43.02 3.91 5.61-.47 10.45-.69 14.22-6.19 3.85-5.62 5.74-11.11 6.09-17.86 1.16-22.81 2.91-45.58 4.28-68.38.39-6.47.16-12.98.35-19.47.06-1.99.33-4.04.92-5.94.94-2.99 3.27-4.27 6.36-4.59 3.24-.33 3.9 2.07 4.81 4.16 3.25 7.4 2.66 15.21 1.61 22.83-2.34 17.04-2.93 34.12-1.95 51.26.8 14.02-1.57 27.35-7.09 40.25-3.35 7.83-9.25 12.33-17.13 14.72-3.2.97-6.42 1.93-9.51 3.17-.89.36-1.93 1.65-2 2.57-.45 6.35-.67 12.72-.99 19.89 5.7.23 11.21.52 16.73.66 2.79.07 5.64-.47 8.37-.06 2.33.34 4.9 1.16 6.71 2.6 4.41 3.51 3.8 6.77-1.21 9.15-5.38 2.55-11.09 2.15-16.81 2.14-11.4-.03-22.8.05-34.2.25-9.9.18-19.67-.55-29.18-3.44-.83-.25-2.05-1.3-2.03-1.93.07-1.81-1.33-4.47 1.42-5.22 4.69-1.29 9.47-2.57 14.29-3.02 5.44-.5 10.96.09 16.44-.11 5.94-.21 6.12-.56 6.12-6.37 0-3.81-.21-7.63.07-11.42.21-2.74-.97-3.68-3.37-4.19-3.71-.8-7.37-1.84-11.05-2.8-12.5-3.25-20.18-11.17-22.49-23.9-4.75-26.16-7.2-52.57-7.21-79.14 0-9 1.56-18.02 2.7-26.99.44-3.48 2.91-4.97 6.34-5.16 2.79-.15 4.69.93 5.13 3.59.89 5.37 1.86 10.78 2.09 16.2.57 13.41.62 26.83 1.11 40.24.4 10.85.81 21.72 1.82 32.52.6 6.4 2.02 12.78 3.74 18.99 1.49 5.4 4.81 9.45 10.97 10.44 2.94.44 5.78 1.6 9.14 2.59zm5.48-72.38c-2.44 8.91-5.02 17.78-7.28 26.73-1.35 5.35-.43 10.62 1.52 15.75.79 2.07 1.96 2.57 4.07 2.15 10.09-1.99 11.18-3.25 10.46-13.79-.72-10.7-4.26-20.68-8.77-30.84z"/><path d="m106.51 75.72c-.18 2.7-.41 5.02-.47 7.34-1.25 49.35-2.59 98.69-3.66 148.04-.57 26.52-.79 53.05-.93 79.58-.06 11.52.57 23.05.69 34.58.03 3.1-.32 6.28-1.02 9.3-.94 4.03-5.92 5.96-9.41 3.82-.7-.43-1.08-1.58-1.34-2.48-3.01-10.44-3.55-21.14-3.4-31.92.56-41.75.89-83.51 1.72-125.25.77-39.17 2.07-78.33 3.13-117.49.13-4.63-1.11-5.9-5.75-5.98-.78-.01-1.57.01-2.35.09-6.07.6-8.96-2.14-8.68-8.38.03-.66.41-1.7.89-1.88 3.07-1.16 6.2-2.94 9.34-3.01 9.83-.21 19.68.22 29.52.47 1.55.04 3.11.37 4.64.69 11.21 2.35 16.79 7.73 17.9 19.11.81 8.29.44 16.73.11 25.08-.71 17.56-1.82 35.1-2.63 52.65-2.31 49.59-.11 99.16 1.37 148.71.41 13.84 2.33 27.64 3.6 41.46.66 7.13 1.35 14.26 2.14 21.38.3 2.75-1.35 4.28-3.47 4.44-2.18.17-5.19.64-6.01-2.71-2.35-9.55-4.95-19.05-6.93-28.67-4.56-22.21-6.54-44.75-6.53-67.38.01-18.91.8-37.82 1.46-56.73 1.62-46.1 2.32-92.2 1.45-138.33-.04-2.32-.6-3.37-3.01-3.77-4.05-.7-8.02-1.78-12.37-2.76z"/><path d="m276.74 198.12c-1.57 11.61-3.14 22.32-4.44 33.07-2.03 16.91-7.99 32.44-15.83 47.43-7.09 13.56-13.81 27.32-20.62 41.02-2.8 5.64-6.03 10.69-12.57 12.68-2.32.71-3.48.01-4.58-1.91-1.93-3.39-1.45-6.65.17-9.92 7.95-16.02 15.88-32.05 23.88-48.04 5.85-11.7 12.34-23.24 14.52-36.28 1.88-11.22 2.74-22.63 3.76-33.99 1.37-15.27 2.23-30.58 3.77-45.83.57-5.68 3.09-10.99 7.41-14.98 6.99-6.44 14.03-12.95 23.08-16.46 3.72-1.44 7.67-2.57 11.61-3.04 2.61-.31 5.61.34 8.06 1.42 4.04 1.78 4.38 6.35.64 8.48-7.46 4.24-14.85 8.79-22.78 11.97-12.19 4.88-16.13 13.27-15.33 25.63.18 2.75 2 5.38 3 8.09 2.16 5.86 5.45 10.88 10.06 15.18 3.01 2.8 5.49 6.19 8.11 9.39 6.57 8.03 8.41 17.55 8.76 27.6.53 15.27-3.15 29.85-8.2 43.95-11.48 32.08-23.63 63.93-35.53 95.86-.98 2.62-3.06 3.81-5.78 3.63-2.82-.18-4.78-1.38-5.26-4.55-.85-5.62.18-11.01 2.26-16.09 5.59-13.64 11.64-27.09 17.25-40.73 8.21-19.98 15.29-40.34 19.48-61.59 1.85-9.37 2.59-18.86.98-28.36-.3-1.79-1.09-3.65-2.15-5.13-4.28-5.99-8.76-11.85-13.73-18.5z"/></g><path d="m385.2 377.6.6-.7c.6.4 1.3.9 1.9 1.5l-.6.7c-.8-.5-1.4-1-1.9-1.5zm.3 7.1c.6-1.4 1.1-2.9 1.5-4.5.3.1.6.3.9.4-.5 1.4-1 2.9-1.5 4.4zm.2-10.1.6-.6c.7.5 1.3 1.1 1.9 1.6l-.7.7c-.6-.6-1.2-1.2-1.8-1.7zm8.4-.8h.8v.9h1.8v.7h-1.8v1.8h-.8v-.3h-1.2v.9h3.3v2.6h-.8v-.4h-2.5c0 .3 0 .6-.1.8h3.4v.7h-3.5c0 .3-.1.6-.1.8h4v.7h-3.5c.7.9 1.9 1.3 3.6 1.5-.2.2-.4.5-.6.9-1.9-.3-3.2-1.1-3.8-2.3-.5 1.1-1.8 2-3.9 2.4-.2-.3-.4-.5-.6-.8 1.9-.4 3.1-.9 3.6-1.7h-3.2v-.7h3.5c.1-.2.1-.5.2-.8h-3.3v-.7h3.4c0-.2 0-.5 0-.8h-2.4v.3h-.8v-2.6h3.3v-.9h-1.2v.3h-.8v-1.8h-1.8v-.7h1.8v-.9h.8v.9h3.2zm-4.4 5.5h2.4c0-.3 0-.6 0-.9h-2.4zm1.2-3.1h3.2v-.8h-3.2zm4.4 2.2h-2.4v.9h2.5v-.9z" fill="#fcfbfa"/><path d="m389.2 385.8h.9v1.5h1.9v-1.5h.9v1.5h2.7v6h1.1v.9h-11.3v-.9h1.1v-6h2.7zm.2 8.7.5.8c-1.2.6-2.5 1.3-4 1.9-.2-.3-.3-.6-.6-.8 1.6-.6 3-1.3 4.1-1.9zm-2-4.3h1.9v-2.1h-1.9zm0 3.1h1.9v-2.2h-1.9zm2.7-3.1h1.9v-2.1h-1.9zm0 3.1h1.9v-2.2h-1.9zm2.4 1.3c1.4.6 2.7 1.2 4.1 1.8l-.5.9c-1.5-.7-2.8-1.4-4.1-1.9zm2.2-6.5h-1.9v2.1h1.9zm-1.9 5.2h1.9v-2.2h-1.9z" fill="#fcfbfa"/></svg>