<svg enable-background="new 0 0 400 400" viewBox="0 0 400 400" xmlns="http://www.w3.org/2000/svg"><path d="m178.32 198.98c-4.06.42-7.77.7-11.45 1.22-2.76.38-5.45 1.23-8.21 1.56s-4.09-1.39-4.41-3.95c-.66-5.21 1.15-8.28 6.01-10.33 4.43-1.87 8.83-3.81 13.29-5.59 1.68-.67 2.21-1.5 1.71-3.28-2.25-7.96-4.49-15.91-6.54-23.92-.71-2.79-1.08-5.71-1.19-8.59-.12-3.13 1.44-5.46 4.66-6.08 3.06-.58 6.11-.67 7.48 3.09 2.25 6.18 4.6 12.33 6.75 18.55 1.5 4.33 2.77 8.73 4.07 13.12.56 1.89 1.62 2.34 3.51 1.9 9.91-2.29 19.86-4.42 29.75-6.77 1.24-.29 2.69-1.29 3.3-2.38 3.76-6.7 2.3-13.92 1.65-21.02-.04-.48-1.28-1.1-2.03-1.24-5.17-.91-10.34-1.89-15.55-2.49-12.8-1.47-20.51-8.84-24.76-20.58-3.05-8.43-4.27-17.19-4.32-26.03-.08-15.02 1.61-29.87 4.27-44.7 2.05-11.42 8.87-17.5 18.9-21.18 10.46-3.84 21.4-4.58 32.39-4.45 7.15.08 14.33.32 21.42 1.16 19.52 2.3 27.15 9.4 32.84 28.34 4.4 14.65 3.63 29.74 1.68 44.65-1.09 8.37-3.46 16.59-5.39 24.85-2.16 9.26-9.03 13.62-17.37 16.44-8.15 2.75-16.51 3.87-25.54 3.19-.37 6.77-.72 13.28-1.08 19.93 7.69 1.8 15.15 1.76 22.56.63 8.16-1.24 15.67-.28 22.82 4.24 10.3 6.51 12.62 18.3 10.79 28.28-1.04 5.71-2.27 11.44-4.01 16.97-5.26 16.73-4.88 33.71-1.24 50.45 5.49 25.25 12.42 50.12 24.12 73.39 3.17 6.3 5.06 12.9 3.45 20.45-2.65 0-5.33.23-7.94-.11-1.03-.14-2.13-1.4-2.78-2.42-11.32-17.69-19.3-36.83-24.02-57.25-4.02-17.43-7.89-34.9-11.11-52.49-1.73-9.45.53-18.93 2.6-28.24 1.62-7.3 3.5-14.57 4.72-21.94 2.32-14.01-6.75-18.55-17.35-17.68-6.57.54-13.12 1.37-19.66 2.27-.81.11-1.97 1.32-2.11 2.16-2.78 16.54-5.4 33.11-8.13 49.66-.27 1.61-.96 3.18-1.62 4.7-2.43 5.63-5.15 11.15-7.34 16.87-1.96 5.12-1.23 10.5.6 15.47 1.43 3.89 5.5 4.94 9.1 5.08 3.61.14 7.32-.74 10.87-1.63 1-.25 1.93-2.02 2.3-3.27 2.62-8.84 2.33-17.88 1.9-26.98-.26-5.53-.42-11.23.6-16.62 1.23-6.49 8.52-11.66 15.1-11.81.79-.02 2.15.71 2.29 1.31.55 2.42 1.72 5.38.86 7.33-5.37 12.12-4.2 24.68-3.73 37.34.21 5.74-.86 11.55-1.54 17.3-.13 1.1-.94 2.28-1.76 3.1-8.99 9-19.55 11.33-31.74 7.77-12.47-3.65-19.31-11.96-21.03-24.56-.41-3.01-.14-6.37.8-9.26 2.76-8.48 6.34-16.7 8.95-25.22 2.01-6.57 3.4-13.39 4.42-20.19 1.1-7.38 1.44-14.86 2.16-22.86-4.82.95-9.26 1.83-13.71 2.71-5.48 1.09-10.94 2.32-16.46 3.24-2.37.4-3.05 1.26-2.91 3.71.9 15.65 1.97 31.3 2.24 46.96.13 7.65-1.13 15.35-2.14 22.98-2.76 20.85-5.46 41.72-8.72 62.49-1.26 8.02-3.67 15.89-6.08 23.67-1.43 4.62-3.91 8.84-9.31 10.15-2.44.59-3.9.07-4.99-2.42-2.39-5.44-2.15-10.92-.66-16.41 6.78-24.99 11.64-50.4 13.98-76.13 1.35-14.86.32-29.95.14-44.93-.1-7.48-.69-14.96-1.12-23.68zm66.99-106.47v36.77c6.36.51 12.42.01 18.39-1.63 6.97-1.91 12.1-5.49 12.58-13.54.36-5.89 1.14-11.76 1.42-17.65.13-2.69-1.31-4.18-4.43-4.02-4.91.24-9.84.06-14.77.06-4.32.01-8.66.01-13.19.01zm-17.07 35.99c0-12.07 0-23.89 0-35.77-9.88 0-19.23 0-28.86 0-.72 8.92-.91 17.5 2.39 25.92 1.78 4.56 4.74 7.35 9.27 8.79 5.78 1.85 11.54 3.73 17.2 1.06zm49.83-51.97c-.68-6.99-.84-13.27-2.06-19.34-.67-3.32-2.42-7.09-4.9-9.24-7.17-6.22-16.17-5.71-24.88-5.71v34.3c10.44-.01 20.57-.01 31.84-.01zm-48.93-34.72c-4.06.35-7.39.16-10.42 1.02-4.6 1.31-9.01 3.31-13.46 5.11-.85.35-2.01.99-2.22 1.73-2.12 7.5-5.04 14.87-4.41 22.9.35 4.53.39 4.54 5 4.29 1.23-.07 2.46-.03 3.69-.03h21.81c.01-12 .01-23.12.01-35.02z" fill="#010103"/><path d="m121.31 50.48c-6.67-.94-13.07-1.84-20.15-2.84 0 4.93.06 9.47-.01 14.02-1.08 67.27-2.39 134.53-3.15 201.8-.3 25.96.67 51.92.98 77.89.04 3.55.03 7.19-.69 10.64-.75 3.57-6.61 5.99-9.76 4.38-.74-.38-1.18-1.54-1.54-2.43-3.44-8.55-4.56-17.57-4.52-26.65.18-48.81.43-97.62.92-146.43.43-42.98 1.18-85.96 1.93-128.94.06-3.38-1.47-4.74-4.24-5.25-1.73-.32-3.56-.21-5.34-.12-3.73.19-4.58-.45-5-4.1-.63-5.46 2.85-9.89 8.44-9.9 12.74-.03 25.51-.08 38.23.62 7.21.4 14.28 2.49 17.9 9.88 1.06 2.16 2.07 4.62 2.11 6.96.35 18.79.73 37.58.59 56.37-.21 30-1.23 59.99-1.12 89.99.08 22.26 1.39 44.52 2.17 66.79.46 13.09.51 26.21 1.53 39.25 1.32 16.84 3.43 33.61 5.21 50.41.59 5.56 1.05 11.15 1.89 16.67.36 2.4-.64 3.48-2.44 4.48-4.32 2.41-9.57.55-10.42-4.17-2.18-12.2-4.19-24.44-5.96-36.7-1.86-12.84-3.42-25.72-5-38.6-3.13-25.49-3.93-51.09-3.35-76.75.7-30.77 1.62-61.55 1.8-92.33.17-24.83-.62-49.67-1.01-74.94z" fill="#010103"/><g fill="#fcfbfa"><path d="m385.2 377.6.6-.7c.6.4 1.3.9 1.9 1.5l-.6.7c-.8-.5-1.4-1-1.9-1.5zm.3 7.1c.6-1.4 1.1-2.9 1.5-4.5.3.1.6.3.9.4-.5 1.4-1 2.9-1.5 4.4zm.2-10.1.6-.6c.7.5 1.3 1.1 1.9 1.6l-.7.7c-.6-.6-1.2-1.2-1.8-1.7zm8.4-.8h.8v.9h1.8v.7h-1.8v1.8h-.8v-.3h-1.2v.9h3.3v2.6h-.8v-.4h-2.5c0 .3 0 .6-.1.8h3.4v.7h-3.5c0 .3-.1.6-.1.8h4v.7h-3.5c.7.9 1.9 1.3 3.6 1.5-.2.2-.4.5-.6.9-1.9-.3-3.2-1.1-3.8-2.3-.5 1.1-1.8 2-3.9 2.4-.2-.3-.4-.5-.6-.8 1.9-.4 3.1-.9 3.6-1.7h-3.2v-.7h3.5c.1-.2.1-.5.2-.8h-3.3v-.7h3.4c0-.2 0-.5 0-.8h-2.4v.3h-.8v-2.6h3.3v-.9h-1.2v.3h-.8v-1.8h-1.8v-.7h1.8v-.9h.8v.9h3.2zm-4.4 5.5h2.4c0-.3 0-.6 0-.9h-2.4zm1.2-3.1h3.2v-.8h-3.2zm4.4 2.2h-2.4v.9h2.5v-.9z"/><path d="m389.2 385.8h.9v1.5h1.9v-1.5h.9v1.5h2.7v6h1.1v.9h-11.3v-.9h1.1v-6h2.7zm.2 8.7.5.8c-1.2.6-2.5 1.3-4 1.9-.2-.3-.3-.6-.6-.8 1.6-.6 3-1.3 4.1-1.9zm-2-4.3h1.9v-2.1h-1.9zm0 3.1h1.9v-2.2h-1.9zm2.7-3.1h1.9v-2.1h-1.9zm0 3.1h1.9v-2.2h-1.9zm2.4 1.3c1.4.6 2.7 1.2 4.1 1.8l-.5.9c-1.5-.7-2.8-1.4-4.1-1.9zm2.2-6.5h-1.9v2.1h1.9zm-1.9 5.2h1.9v-2.2h-1.9z"/></g></svg>