<svg enable-background="new 0 0 400 400" viewBox="0 0 400 400" xmlns="http://www.w3.org/2000/svg"><g fill="#010103"><path d="m259.23 278.84c-10.85-6.99-22.4-10.33-34.31-12.65-6.25-1.22-12.55-2.21-18.8-3.43-1.95-.38-3.92-.97-5.71-1.83-3.51-1.69-5.11-5.44-3.78-9.03.31-.85 1.72-1.59 2.75-1.82 8.16-1.84 16.25-.79 24.27.95 15.92 3.46 31.37 8.16 45.03 17.5 3.24 2.21 6.74.94 6.9-2.87.22-5.15.35-10.85-1.63-15.36-1.38-3.14-6.11-5.4-9.83-6.75-3.76-1.37-8.11-1.14-12.2-1.6-7.87-.88-15.74-1.72-23.6-2.68-1.06-.13-2.16-.68-3.04-1.31-3.57-2.53-3.25-7 .62-8.86 2.41-1.16 5-2 7.3-3.35 1.25-.73 2.71-2.13 2.91-3.41.54-3.37.44-6.85.62-10.96-5.77 0-11 .04-16.22-.01-6.38-.07-12.76-.08-19.12-.4-2.55-.13-3.64.84-4.15 3.13-1.76 7.96-3.49 15.93-5.44 23.85-.66 2.68-1.67 5.35-3.04 7.73-.89 1.54-2.53 2.88-4.15 3.72-4.15 2.14-6.81 1.02-7.38-3.52-.46-3.66-.77-7.84.51-11.14 7.41-19.17 7.6-39.17 7.49-59.21-.09-16.91-.37-33.78 3.08-50.49.75-3.63 3.29-2.59 5.25-3.2 2.08-.65 3.5-.04 4.41 2.21 3.15 7.79 3.44 15.87 2.88 24.09-.42 6.31-.77 12.63-1.16 19.16h35.38c0-15.77 0-31.48 0-46.73-6.89 0-13.22.09-19.53-.05-2.17-.05-4.5-.26-6.46-1.1-10.99-4.72-21.9-9.61-32.79-14.53-2.12-.96-4.16-2.19-6.05-3.57-1.12-.82-2.14-2.02-2.73-3.28-2.34-5.01-.76-7.93 4.62-7.43 4.93.45 9.93 1.64 14.55 3.42 8.23 3.17 16.09 7.3 24.31 10.49 3.75 1.45 7.97 1.92 12.02 2.2 1.48.1 3.33-1.45 4.47-2.73.34-.38-1.04-2.53-1.89-3.67-3.08-4.11-6.49-7.99-9.37-12.23-5.39-7.96-6.87-16.75-3.92-25.94 2.79-8.71 5.42-17.58 9.36-25.77 2.05-4.25 6.61-7.43 10.41-10.64 1.82-1.54 6 1.17 6 4.03.01 3.03-.32 6.33-1.54 9.05-3.21 7.13-7 13.99-10.52 20.98-3.91 7.76-3.21 15.26 2.09 22.02 5.31 6.77 11.04 13.23 16.69 19.73.55.63 1.95 1.04 2.77.83 6.17-1.58 12.39-3.06 18.37-5.2 1.82-.65 3.69-3.06 4.2-5.02.66-2.52.82-5.68-2.03-7.55-5.24-3.43-10.68-6.57-15.71-10.28-2.68-1.98-5.19-4.61-6.83-7.49-1.8-3.14-.82-4.49 2.74-5 2.06-.29 4.24-.3 6.3.02 12.82 2 21.41 9.99 27.97 20.48 3.1 4.96.99 16.45-2.95 20.83-6.93 7.7-15.99 10.74-25.75 12.44-1.21.21-2.4.53-3.59.82-.2.05-.36.22-.71.44v22.17h36.35c.63-4.63 1.13-9.38 1.97-14.06.32-1.78 1.07-3.75 2.27-5.04 3.52-3.8 7.17-3.07 9.01 1.63 3.64 9.28 3.16 18.85 1.84 28.46-.21 1.54-.44 3.11-.4 4.66.47 16.56.67 33.13 1.68 49.66.33 5.44 2.54 10.84 4.37 16.09 2.44 7 4.86 13.89 4.19 21.52-.28 3.19-2.3 4.1-4.67 4.83-2.25.69-3.94.05-5.32-2.14-5.94-9.43-8.85-19.96-11.58-30.58-.25-.96-.5-1.92-.76-2.9-12.48 0-24.76 0-37.37 0-.31 4.53-.73 8.96-.82 13.39-.01.71 1.33 1.84 2.24 2.1 6.86 2.02 13.77 3.88 20.66 5.78 8.81 2.43 15.85 11.44 16.08 20.55.18 7.34-.76 14.51-3.38 21.39-.74 1.94-1.85 3.74-2.9 5.82 12.64 15.9 18.51 34.94 21.84 54.84 1.21 7.21.89 14.69.99 22.06.04 3.07-4.47 6.44-7.4 5.73-.88-.22-1.69-1.38-2.23-2.28-4.51-7.54-5.94-16.03-7.78-24.45-2.36-10.78-4.86-21.57-8.12-32.1-1.61-5.22-5.03-9.88-7.73-14.98-3.47 1.33-6.64 2.38-9.67 3.73-11.9 5.3-24.45 5.8-37.16 5.14-10.73-.56-20.96-3.47-30.87-7.31-3.95-1.53-7.53-4.31-10.86-7.03-2.75-2.25-3.85-7.72-2.62-9.5 1.29-1.89 6.41-2.83 9.79-1.48 3.21 1.28 6.29 2.89 9.4 4.42 18.01 8.82 36.48 9.56 55.36 3.18.98-.31 1.86-.74 3.26-1.33zm-60.16-81.44c12.68-.37 24.81-.72 36.73-1.06 0-5.29 0-10.22 0-15.15-12.21 0-23.88 0-35.73 0-.33 5.45-.66 10.65-1 16.21zm87.78-1.07c-.86-5.37-1.65-10.28-2.44-15.17-11.23 0-22.12 0-33.09 0v16.23c11.82-.36 23.39-.7 35.53-1.06zm-35.56-29.47h34.54c-.51-4.94-.96-9.23-1.43-13.7-11.12 0-22.01 0-33.11 0z"/><path d="m153.87 374.83c-5.77-6.73-8.79-14.72-9.55-23.45-3.36-38.76-9.02-77.34-8.19-116.42.9-42.17 1.13-84.36 1.66-126.54.05-3.8.35-7.61.27-11.41-.12-5.35-2.46-7.68-7.68-8.14-4.45-.39-8.9-.83-13.71-1.28-.21 2.62-.46 5.14-.6 7.68-2.66 47.38-3.47 94.82-3.69 142.27-.15 33.12-.16 66.23-.31 99.35-.03 5.79-.21 11.61-.81 17.36-.15 1.45-1.95 3.41-3.41 3.91-3.58 1.21-5.21.5-6.51-2.96-3.55-9.52-4.16-19.43-3.99-29.41.6-36.58 1.27-73.17 1.99-109.75.82-41.61 1.68-83.23 2.69-124.84.09-3.59-1.22-4.58-4.31-4.48-2.68.09-5.36.16-8.04.32-3.7.22-5.19-1-5.46-4.64-.42-5.62.29-6.55 5.67-8.24 8.23-2.58 16.67-1.23 25-1.2 6.33.02 12.76.6 18.95 1.89 9.11 1.9 15.15 7.31 17.31 16.93 2.26 10.05 2.89 20.17 2.4 30.35-.59 12.28-1.75 24.53-2.67 36.79-.06.78-.14 1.56-.14 2.34.02 25.74-.32 51.49.18 77.22.47 24.05 1.42 48.1 2.99 72.1.61 9.4 3.4 18.66 5.34 27.95 1.92 9.22 3.57 18.45 2.48 27.93-.75 6.79-.73 6.79-7.86 8.37z"/><path d="m225.7 317.73c14.65 0 29.29-.08 43.94.1 1.96.02 4.25.9 5.79 2.13 4.13 3.29 3.53 7.38-1.31 9.13-3.01 1.09-6.26 1.99-9.42 2.08-20.11.58-40.23 1.31-60.34 1.15-8.28-.07-16.53-2.24-24.81-3.38-2.14-.3-2.57-1.44-2.56-3.43.02-6.58 1.61-8.22 8.45-8.23 13.42-.01 26.85 0 40.27 0-.01.15-.01.3-.01.45z"/></g><path d="m385.2 377.6.6-.7c.6.4 1.3.9 1.9 1.5l-.6.7c-.8-.5-1.4-1-1.9-1.5zm.3 7.1c.6-1.4 1.1-2.9 1.5-4.5.3.1.6.3.9.4-.5 1.4-1 2.9-1.5 4.4zm.2-10.1.6-.6c.7.5 1.3 1.1 1.9 1.6l-.7.7c-.6-.6-1.2-1.2-1.8-1.7zm8.4-.8h.8v.9h1.8v.7h-1.8v1.8h-.8v-.3h-1.2v.9h3.3v2.6h-.8v-.4h-2.5c0 .3 0 .6-.1.8h3.4v.7h-3.5c0 .3-.1.6-.1.8h4v.7h-3.5c.7.9 1.9 1.3 3.6 1.5-.2.2-.4.5-.6.9-1.9-.3-3.2-1.1-3.8-2.3-.5 1.1-1.8 2-3.9 2.4-.2-.3-.4-.5-.6-.8 1.9-.4 3.1-.9 3.6-1.7h-3.2v-.7h3.5c.1-.2.1-.5.2-.8h-3.3v-.7h3.4c0-.2 0-.5 0-.8h-2.4v.3h-.8v-2.6h3.3v-.9h-1.2v.3h-.8v-1.8h-1.8v-.7h1.8v-.9h.8v.9h3.2zm-4.4 5.5h2.4c0-.3 0-.6 0-.9h-2.4zm1.2-3.1h3.2v-.8h-3.2zm4.4 2.2h-2.4v.9h2.5v-.9z" fill="#fcfbfa"/><path d="m389.2 385.8h.9v1.5h1.9v-1.5h.9v1.5h2.7v6h1.1v.9h-11.3v-.9h1.1v-6h2.7zm.2 8.7.5.8c-1.2.6-2.5 1.3-4 1.9-.2-.3-.3-.6-.6-.8 1.6-.6 3-1.3 4.1-1.9zm-2-4.3h1.9v-2.1h-1.9zm0 3.1h1.9v-2.2h-1.9zm2.7-3.1h1.9v-2.1h-1.9zm0 3.1h1.9v-2.2h-1.9zm2.4 1.3c1.4.6 2.7 1.2 4.1 1.8l-.5.9c-1.5-.7-2.8-1.4-4.1-1.9zm2.2-6.5h-1.9v2.1h1.9zm-1.9 5.2h1.9v-2.2h-1.9z" fill="#fcfbfa"/></svg>