<svg enable-background="new 0 0 400 400" viewBox="0 0 400 400" xmlns="http://www.w3.org/2000/svg"><path d="m191.05 88.92c-6.19 0-11.98.06-17.77-.01-16.33-.19-32.66-.39-48.99-.69-4.9-.09-9.85-.15-14.66-.93-2.12-.35-4.57-2.05-5.79-3.87-2.53-3.78-1.34-6.03 2.69-7.93 5.7-2.69 11.56-3.47 17.85-3.45 42.08.17 84.17.06 126.25.11 9.95.01 19.91.15 29.85.55 4.53.18 8.59 1.84 10.36 6.63 1.36 3.69.66 5.27-2.92 6.72-8.04 3.26-16.5 3.82-25.03 3.62-17.89-.42-35.77-.94-53.66-1.41-.76-.02-1.52.13-2.5.23-1.51 11.81-3 23.52-4.59 35.96 11.07 2.03 21.79 4.15 32.56 5.93 17.34 2.87 28.64 12.92 34.31 29.18 1.26 3.62.78 8.2-.03 12.11-2.74 13.24-8.9 24.57-18.5 34.44-8.18 8.42-14.26 18.71-18.85 29.57-9.33 22.07-7.38 43.42 5.2 63.8 3.88 6.28 7.74 12.57 11.72 18.79 1.13 1.77 2.58 3.35 4 4.92 10.12 11.2 20.41 22.25 30.32 33.63 2.65 3.05 4.43 6.98 6.13 10.72 2.06 4.54-1.26 9.02-6.25 8.42-2.2-.27-4.72-1.2-6.31-2.68-22.76-21.14-41.12-45.66-55.38-73.24-13.06-25.26-12.47-50.69-.62-76.19 2.65-5.7 5.96-10.74 10.57-15.27 8.21-8.07 15.77-16.89 20.83-27.37 1.75-3.62 2.74-7.87 2.95-11.89.32-6.25-1.98-11.51-7.18-15.77-10.55-8.64-22.83-11.93-35.98-13.01-4.79-.39-9.6-.67-14.4-.72-1.4-.01-3.1.59-4.16 1.5-10.87 9.32-22.07 18.34-32.25 28.37-4.78 4.71-8.1 11.2-11.12 17.36-7.37 15.04-10.12 31.36-12.28 47.83-2.57 19.67.33 39.07 2.37 58.52 1.89 18.13 3.85 36.26 5.77 54.39.47 4.43 1.3 8.88 1.21 13.3-.12 5.83-2.78 7.9-8.42 7.08-1.29-.19-2.86-1.27-3.55-2.4-4.4-7.18-5.18-15.29-5.91-23.48-1.33-14.92-2.98-29.8-4.56-44.7-2.81-26.58-3.35-53.17.72-79.65 1.91-12.44 7.69-23.77 11.43-35.67 4.7-14.96 15.17-25.33 25.73-35.7 7.01-6.89 14.83-12.96 22.37-19.29 1.73-1.45 2.73-2.97 2.96-5.28 1.03-10.68 2.24-21.35 3.51-33.08z" fill="#010103"/><path d="m203.15 43.16c-10.28.4-20.55.93-30.83 1.15-12.57.27-25-.96-37.21-4.15-1.62-.42-2.52-1.05-2.48-2.88.03-1.32-.25-2.67-.54-3.98-.41-1.9.45-2.7 2.14-3.47 5.57-2.55 11.25-3.65 17.46-3.6 28.75.23 57.51.05 86.27.16 4.33.02 8.71.57 12.99 1.31 4.98.86 7.2 4.48 5.96 9.38-.24.97-1.35 1.96-2.31 2.46-6.38 3.34-13.34 3.29-20.29 3.27-10.39-.04-20.78-.01-31.17-.01.01.12.01.24.01.36z" fill="#010103"/><g fill="#fcfbfa"><path d="m385.2 377.6.6-.7c.6.4 1.3.9 1.9 1.5l-.6.7c-.8-.5-1.4-1-1.9-1.5zm.3 7.1c.6-1.4 1.1-2.9 1.5-4.5.3.1.6.3.9.4-.5 1.4-1 2.9-1.5 4.4zm.2-10.1.6-.6c.7.5 1.3 1.1 1.9 1.6l-.7.7c-.6-.6-1.2-1.2-1.8-1.7zm8.4-.8h.8v.9h1.8v.7h-1.8v1.8h-.8v-.3h-1.2v.9h3.3v2.6h-.8v-.4h-2.5c0 .3 0 .6-.1.8h3.4v.7h-3.5c0 .3-.1.6-.1.8h4v.7h-3.5c.7.9 1.9 1.3 3.6 1.5-.2.2-.4.5-.6.9-1.9-.3-3.2-1.1-3.8-2.3-.5 1.1-1.8 2-3.9 2.4-.2-.3-.4-.5-.6-.8 1.9-.4 3.1-.9 3.6-1.7h-3.2v-.7h3.5c.1-.2.1-.5.2-.8h-3.3v-.7h3.4c0-.2 0-.5 0-.8h-2.4v.3h-.8v-2.6h3.3v-.9h-1.2v.3h-.8v-1.8h-1.8v-.7h1.8v-.9h.8v.9h3.2zm-4.4 5.5h2.4c0-.3 0-.6 0-.9h-2.4zm1.2-3.1h3.2v-.8h-3.2zm4.4 2.2h-2.4v.9h2.5v-.9z"/><path d="m389.2 385.8h.9v1.5h1.9v-1.5h.9v1.5h2.7v6h1.1v.9h-11.3v-.9h1.1v-6h2.7zm.2 8.7.5.8c-1.2.6-2.5 1.3-4 1.9-.2-.3-.3-.6-.6-.8 1.6-.6 3-1.3 4.1-1.9zm-2-4.3h1.9v-2.1h-1.9zm0 3.1h1.9v-2.2h-1.9zm2.7-3.1h1.9v-2.1h-1.9zm0 3.1h1.9v-2.2h-1.9zm2.4 1.3c1.4.6 2.7 1.2 4.1 1.8l-.5.9c-1.5-.7-2.8-1.4-4.1-1.9zm2.2-6.5h-1.9v2.1h1.9zm-1.9 5.2h1.9v-2.2h-1.9z"/></g></svg>