<svg enable-background="new 0 0 400 400" viewBox="0 0 400 400" xmlns="http://www.w3.org/2000/svg"><g fill="#010103"><path d="m121.42 103.82c6.89 1.08 9.31 3.46 9.39 10.12.16 14.54-.19 29.1.16 43.63.18 7.46.79 15.02 2.29 22.31 2.93 14.26 10.05 20.21 24.55 21.13 7.46.47 14.98.13 22.46.35 11.52.35 23.03.82 34.54 1.33 14.19.62 28.38 1.2 42.56 2.02 15.97.92 26.12 12.22 25.53 28.17-.07 1.9-.3 3.79-.59 5.67-1.45 9.39-6.06 15.77-15.73 18.6-7.69 2.24-15.34 4.25-23.33 4.16-18.72-.22-37.35.56-55.88 3.49-7.04 1.11-14.12 2.77-18.48 8.42-3.79 4.91-6.85 10.93-8.35 16.93-2.43 9.7-3.67 19.75-4.76 29.73-1.69 15.46-2.75 30.98-4.28 46.45-.19 1.97-1.18 4.18-2.49 5.66-3.57 4.03-7.46 3.29-9.79-1.49-3.11-6.37-1.76-12.97-.83-19.46 2.48-17.27 4.78-34.58 7.97-51.72 1.95-10.5 5.38-20.73 8.27-31.05.3-1.06 1.37-2 2.27-2.78 11.88-10.3 25.89-15.45 41.43-16.05 15.75-.61 31.53-.54 47.29-.88 6.76-.14 13.33-1.13 19.26-4.86 4.1-2.57 5.81-6.02 5.02-10.74-.15-.88-.39-1.74-.61-2.61-2.29-8.85-4.55-10.84-13.57-11.94-25.38-3.12-50.83-3.84-76.37-2.62-14.99.71-29.66-.93-43.58-7.28-7.01-3.19-11.83-8.12-13.9-15.38-1.79-6.3-3.69-12.75-4.09-19.23-1-16.3-1.33-32.65-1.62-48.99-.13-7.31 1.48-14.41 5.26-21.09z"/><path d="m73.66 118.67c3.62-5.85 5.52-11.63 11.31-15.04 6.15-3.63 11.95-7.9 17.67-12.19 4.82-3.61 10.09-6.02 15.78-7.87 21.04-6.82 42-13.92 63.07-20.66 3.01-.96 3.91-2.55 4.37-5.3 1.73-10.26 3.62-20.48 5.47-30.72.09-.53.34-1.03.58-1.74 6.39 2.89 8.55 8.03 9.43 14.42.69 5.02 2.11 10.01 3.84 14.78.63 1.74 2.87 3.45 4.74 4.09 26.34 9.02 52.41 18.68 77.78 30.22 11.7 5.32 22.63 11.72 31.7 20.98.45.46.88.95 1.09 2.27-6.5-1.11-13.04-2-19.48-3.38-15.88-3.4-30.28-10.72-44.97-17.3-13.9-6.23-28.17-12-43.19-14.23-10.68-1.58-21.87-.77-32.74.16-15.3 1.31-29.47 6.9-43.35 13.36-19.76 9.19-39.7 17.99-59.57 26.93-.86.39-1.79.63-3.53 1.22z"/><path d="m211.09 181.45c-13.55-.7-25.9-5.14-37.21-11.86-14.4-8.54-19.9-31.6-11.34-45.93 1.98-3.32 5.59-5.73 8.59-8.38 8.95-7.91 19.1-13.54 31.27-13.75 7.45-.13 14.95.75 22.37 1.67 14.44 1.8 23.91 10.79 30.98 22.69 5.79 9.73 5.49 19.84.48 29.79-1.11 2.21-3.1 4.07-4.93 5.82-8.07 7.72-16.83 14.47-27.77 17.6-4.04 1.16-8.29 1.59-12.44 2.35zm1.01-14.96c3.73-.61 7.65-.7 11.15-1.94 8.72-3.1 17.04-7.04 20.69-16.56 4.6-12.02 1.38-20.32-10.33-25.4-5.71-2.48-11.7-4.45-17.73-5.97-9.75-2.45-19.53-2.98-28.47 2.94-5.06 3.36-10.69 6.08-13.13 12.37-3.84 9.9.72 23.9 9.49 27.73 8.99 3.91 18.39 6.27 28.33 6.83z"/></g><path d="m385.2 377.6.6-.7c.6.4 1.3.9 1.9 1.5l-.6.7c-.8-.5-1.4-1-1.9-1.5zm.3 7.1c.6-1.4 1.1-2.9 1.5-4.5.3.1.6.3.9.4-.5 1.4-1 2.9-1.5 4.4zm.2-10.1.6-.6c.7.5 1.3 1.1 1.9 1.6l-.7.7c-.6-.6-1.2-1.2-1.8-1.7zm8.4-.8h.8v.9h1.8v.7h-1.8v1.8h-.8v-.3h-1.2v.9h3.3v2.6h-.8v-.4h-2.5c0 .3 0 .6-.1.8h3.4v.7h-3.5c0 .3-.1.6-.1.8h4v.7h-3.5c.7.9 1.9 1.3 3.6 1.5-.2.2-.4.5-.6.9-1.9-.3-3.2-1.1-3.8-2.3-.5 1.1-1.8 2-3.9 2.4-.2-.3-.4-.5-.6-.8 1.9-.4 3.1-.9 3.6-1.7h-3.2v-.7h3.5c.1-.2.1-.5.2-.8h-3.3v-.7h3.4c0-.2 0-.5 0-.8h-2.4v.3h-.8v-2.6h3.3v-.9h-1.2v.3h-.8v-1.8h-1.8v-.7h1.8v-.9h.8v.9h3.2zm-4.4 5.5h2.4c0-.3 0-.6 0-.9h-2.4zm1.2-3.1h3.2v-.8h-3.2zm4.4 2.2h-2.4v.9h2.5v-.9z" fill="#fcfbfa"/><path d="m389.2 385.8h.9v1.5h1.9v-1.5h.9v1.5h2.7v6h1.1v.9h-11.3v-.9h1.1v-6h2.7zm.2 8.7.5.8c-1.2.6-2.5 1.3-4 1.9-.2-.3-.3-.6-.6-.8 1.6-.6 3-1.3 4.1-1.9zm-2-4.3h1.9v-2.1h-1.9zm0 3.1h1.9v-2.2h-1.9zm2.7-3.1h1.9v-2.1h-1.9zm0 3.1h1.9v-2.2h-1.9zm2.4 1.3c1.4.6 2.7 1.2 4.1 1.8l-.5.9c-1.5-.7-2.8-1.4-4.1-1.9zm2.2-6.5h-1.9v2.1h1.9zm-1.9 5.2h1.9v-2.2h-1.9z" fill="#fcfbfa"/></svg>