<svg enable-background="new 0 0 400 400" viewBox="0 0 400 400" xmlns="http://www.w3.org/2000/svg"><g fill="#010103"><path d="m206.04 198.17c-6.85 0-13.22-.08-19.58.09-.89.02-2.23 1.04-2.55 1.91-4.33 11.48-11.58 20.8-20.55 29.01-14.26 13.05-20.63 29.66-22.69 48.65-1.71 15.76.18 31.27 1.13 46.87.76 12.5 1.96 24.98 2.8 37.48.18 2.65-.16 5.37-.58 8.01-.39 2.46-1.7 4.36-4.46 4.79-2.7.42-4.62-.32-6.11-2.86-2.93-4.99-3.83-10.38-4.32-16.02-1.25-14.37-3.16-28.7-4.02-43.09-1.69-28.03 1.9-55.16 15.87-80.14.91-1.62 2.16-3.1 3.48-4.42 6.23-6.27 12.76-12.26 18.72-18.77 3.08-3.36 5.2-7.61 7.91-11.69-4.07-2.01-7.32-3.43-10.4-5.17-9.32-5.24-15.41-12.65-16.28-23.81-1.29-16.61-2.9-33.2-4.24-49.8-.43-5.3 1.11-10.22 4.23-14.52.56-.78 2.23-1.37 3.18-1.14 4.96 1.17 7.5 5.1 7.25 10.96-.17 3.91-.77 7.81-.74 11.71.06 7.88.52 8.23 8.15 8.23h70.18 4.3c.46-4.84.97-9.57 1.35-14.32.17-2.11.01-4.25.1-6.38.27-6.12 3.06-9.36 9.39-10.7 3.31 5.48 4.91 11.62 5.39 17.96 1.69 22.05-2.44 43.18-10.8 63.53-.81 1.97-2.65 3.82-4.47 5.01-3.73 2.43-7.78 4.39-11.71 6.53-6.84 3.73-7.7 12.33-2.01 17.5 6.87 6.24 13.47 12.77 20.22 19.14 7.79 7.35 8.7 16.18 5.73 25.91-1.75 5.73-4.22 10.85-8.83 15.06-3.92 3.59-7.12 8.01-10.46 12.21-6.67 8.37-7.75 17.76-4.97 27.9 1.27 4.62 3.17 8.52 6.89 11.88 11.87 10.72 23.46 21.75 35.03 32.79 1.81 1.72 3.34 3.94 4.34 6.22.67 1.52.85 4.63.05 5.13-1.98 1.25-4.73 2.11-7 1.81-2.39-.32-4.96-1.75-6.78-3.42-12.96-11.85-26.13-23.49-38.44-36-7.21-7.33-10.73-16.95-10.45-27.54.04-1.42.43-2.84.78-4.23.22-.86.72-1.64.99-2.49 3.66-11.8 9.09-22.44 18.93-30.45 2.28-1.85 3.96-4.56 5.56-7.09 4.69-7.38 3.98-13.36-2.22-19.63-7.56-7.64-15.25-15.15-22.72-22.86-1.28-1.32-2.18-3.34-2.52-5.18-.88-4.69-1.36-9.48-2.05-14.57zm-49.71-50.16c1.59 8.5 2.93 16.52 4.64 24.45 1.25 5.8 5.29 8.81 10.93 10.48 8.28 2.44 16.68 3.13 25.2 2.88 10.34-.3 20.53-1.49 29.97-6.17 1.36-.67 3.18-1.47 3.68-2.67 3.41-8.18 5.81-16.65 5.85-25.62.01-2.73-1.44-3.42-4.07-3.41-24.06.1-48.11.06-72.17.06-1.09 0-2.17 0-4.03 0z"/><path d="m222.38 55.15c.03-9.21 1.53-17.99 6.09-26.16 1.35-2.43 2.6-2.24 4.45-1 3.45 2.31 5.03 5.8 5.21 9.68.23 5-.37 10.04-.19 15.05.26 7.22.61 14.46 1.55 21.61.31 2.38 2.03 5.19 3.98 6.62 6.64 4.88 13.37 9.77 20.6 13.67 11.98 6.46 24.4 12.1 36.59 18.19 2.79 1.39 5.45 3.08 8.01 4.86 3.89 2.7 5.88 7.62 4.42 10.32-1.31 2.42-7.36 3.66-11.2 1.67-9.22-4.77-18.31-9.8-27.37-14.86-10.63-5.93-21.12-12.14-31.8-17.98-11.57-6.33-18.15-15.79-19.24-28.99-.35-4.22-.74-8.45-1.1-12.68z"/><path d="m161.02 24.97c7.09 2.1 9.86 7.46 9.8 13.63-.1 9.45-1.34 18.89-2.13 28.34-.08 1-.38 1.98-.48 2.98-1.02 10-5.61 17.48-13.97 23.47-11.34 8.12-23.51 14.61-35.78 21.04-7.32 3.84-14.52 7.91-21.96 11.5-3.03 1.46-6.5 2.12-9.84 2.73-2.91.53-5.45-1.17-5.75-3.85-.21-1.87 1.11-4.62 2.64-5.86 9.72-7.83 20.73-13.57 32.12-18.56 10.24-4.49 20.29-9.22 29.42-15.86 10.59-7.7 13.59-18.19 12.07-30.37-1.13-9.03-1.33-17.82 2.43-26.32.43-.99.96-1.93 1.43-2.87z"/></g><path d="m385.2 377.6.6-.7c.6.4 1.3.9 1.9 1.5l-.6.7c-.8-.5-1.4-1-1.9-1.5zm.3 7.1c.6-1.4 1.1-2.9 1.5-4.5.3.1.6.3.9.4-.5 1.4-1 2.9-1.5 4.4zm.2-10.1.6-.6c.7.5 1.3 1.1 1.9 1.6l-.7.7c-.6-.6-1.2-1.2-1.8-1.7zm8.4-.8h.8v.9h1.8v.7h-1.8v1.8h-.8v-.3h-1.2v.9h3.3v2.6h-.8v-.4h-2.5c0 .3 0 .6-.1.8h3.4v.7h-3.5c0 .3-.1.6-.1.8h4v.7h-3.5c.7.9 1.9 1.3 3.6 1.5-.2.2-.4.5-.6.9-1.9-.3-3.2-1.1-3.8-2.3-.5 1.1-1.8 2-3.9 2.4-.2-.3-.4-.5-.6-.8 1.9-.4 3.1-.9 3.6-1.7h-3.2v-.7h3.5c.1-.2.1-.5.2-.8h-3.3v-.7h3.4c0-.2 0-.5 0-.8h-2.4v.3h-.8v-2.6h3.3v-.9h-1.2v.3h-.8v-1.8h-1.8v-.7h1.8v-.9h.8v.9h3.2zm-4.4 5.5h2.4c0-.3 0-.6 0-.9h-2.4zm1.2-3.1h3.2v-.8h-3.2zm4.4 2.2h-2.4v.9h2.5v-.9z" fill="#fcfbfa"/><path d="m389.2 385.8h.9v1.5h1.9v-1.5h.9v1.5h2.7v6h1.1v.9h-11.3v-.9h1.1v-6h2.7zm.2 8.7.5.8c-1.2.6-2.5 1.3-4 1.9-.2-.3-.3-.6-.6-.8 1.6-.6 3-1.3 4.1-1.9zm-2-4.3h1.9v-2.1h-1.9zm0 3.1h1.9v-2.2h-1.9zm2.7-3.1h1.9v-2.1h-1.9zm0 3.1h1.9v-2.2h-1.9zm2.4 1.3c1.4.6 2.7 1.2 4.1 1.8l-.5.9c-1.5-.7-2.8-1.4-4.1-1.9zm2.2-6.5h-1.9v2.1h1.9zm-1.9 5.2h1.9v-2.2h-1.9z" fill="#fcfbfa"/></svg>