<svg enable-background="new 0 0 400 400" viewBox="0 0 400 400" xmlns="http://www.w3.org/2000/svg"><g fill="#010103"><path d="m266.1 56.49c-2.22 8.98-4.18 18.03-6.73 26.92-4.49 15.67-9.66 31.16-13.93 46.89-4.13 15.23-5.85 30.76-2.46 46.46 1.89 8.72 5.92 16.34 12.12 22.8 13.35 13.91 28.14 25.81 45.86 33.89 5.45 2.48 10.55 5.87 15.45 9.36 4.54 3.23 7.96 7.57 8.68 13.42.74 5.99-2.19 8.96-8.01 7.54-4.74-1.16-9.42-2.84-13.89-4.82-15.61-6.9-29.05-17.12-41.98-28.05-5.3-4.48-10.39-9.2-15.74-13.62-13.95-11.52-20.02-26.79-21.32-44.33-1.1-14.75 1.22-29.19 3.95-43.63 4.37-23.18 8.81-46.33 16.79-68.62 1.43-3.99 3.38-7.8 4.77-11.79 1.48-4.25 4.89-3.88 8.22-3.91 3.33-.04 5.6 1.65 6.57 4.71.66 2.09.77 4.36 1.13 6.56.18.06.35.14.52.22z"/><path d="m177.93 148.76c0 18.76-2.19 33.93-11.54 46.86-4.87 6.74-11.07 12.57-16.98 18.5-15.52 15.56-33.37 27.66-53.99 35.49-2.07.79-4.26 1.44-6.45 1.71-4.33.53-6.54-1.44-6.9-5.74-.49-5.82 2.26-9.88 7.07-12.71 6.36-3.75 12.71-7.51 19.19-11.03 16.24-8.82 29.16-21.42 40.69-35.55 10.25-12.56 12.81-27.42 12.34-43.18-.49-16.17-6.73-30.92-10.82-46.21-3.06-11.44-6.44-22.8-9.31-34.28-.96-3.84-1.16-7.98-1-11.96.28-6.86 7.34-11.3 13.8-8.94.72.26 1.33 1.36 1.63 2.19 7.85 22.06 13.66 44.65 17.43 67.77 2.18 13.35 5.03 26.61 4.84 37.08z"/><path d="m207.17 235.27c-.36 4.67-.4 9.62-1.18 14.45-.96 5.94-4.56 10.1-10.21 12.33-6.82 2.69-13.11 6.08-18.43 11.32-9.64 9.48-12.5 31.61 2.73 42.87 6.93 5.13 14.21 9.1 23.24 7.1 8.51-1.89 16.09-6.27 20.82-13.23 5.51-8.11 6.86-17.64 2.46-27.17-1.12-2.43-2.45-4.79-3.24-7.32-1.04-3.32.32-6.01 3.46-7.88 4.1-2.44 6.14-2.44 9.07.1 4.98 4.32 6.7 10.24 7.57 16.39 1.69 11.9.52 23.79-6.76 33.41-14.58 19.26-33.84 26.98-55.83 18.87-7.96-2.93-14-7.34-18.31-14.62-4.6-7.76-8.66-15.63-9.78-24.73-1.17-9.54 2.01-18.04 6.01-26.41 3.12-6.52 7.3-11.79 13.97-15.17 5.27-2.67 10.17-6.08 15.08-9.4 1.21-.82 2.28-2.43 2.6-3.86 2.49-11 1.27-22.01-.15-33.03-.61-4.76-.85-9.58-.97-14.38-.07-3.02.85-5.78 4.08-7.05 3.63-1.43 6.77-.32 7.94 3.76 1.68 5.88 3.03 11.92 3.78 17.98 1.04 8.41 1.39 16.92 2.05 25.67z"/></g><path d="m385.2 377.6.6-.7c.6.4 1.3.9 1.9 1.5l-.6.7c-.8-.5-1.4-1-1.9-1.5zm.3 7.1c.6-1.4 1.1-2.9 1.5-4.5.3.1.6.3.9.4-.5 1.4-1 2.9-1.5 4.4zm.2-10.1.6-.6c.7.5 1.3 1.1 1.9 1.6l-.7.7c-.6-.6-1.2-1.2-1.8-1.7zm8.4-.8h.8v.9h1.8v.7h-1.8v1.8h-.8v-.3h-1.2v.9h3.3v2.6h-.8v-.4h-2.5c0 .3 0 .6-.1.8h3.4v.7h-3.5c0 .3-.1.6-.1.8h4v.7h-3.5c.7.9 1.9 1.3 3.6 1.5-.2.2-.4.5-.6.9-1.9-.3-3.2-1.1-3.8-2.3-.5 1.1-1.8 2-3.9 2.4-.2-.3-.4-.5-.6-.8 1.9-.4 3.1-.9 3.6-1.7h-3.2v-.7h3.5c.1-.2.1-.5.2-.8h-3.3v-.7h3.4c0-.2 0-.5 0-.8h-2.4v.3h-.8v-2.6h3.3v-.9h-1.2v.3h-.8v-1.8h-1.8v-.7h1.8v-.9h.8v.9h3.2zm-4.4 5.5h2.4c0-.3 0-.6 0-.9h-2.4zm1.2-3.1h3.2v-.8h-3.2zm4.4 2.2h-2.4v.9h2.5v-.9z" fill="#fcfbfa"/><path d="m389.2 385.8h.9v1.5h1.9v-1.5h.9v1.5h2.7v6h1.1v.9h-11.3v-.9h1.1v-6h2.7zm.2 8.7.5.8c-1.2.6-2.5 1.3-4 1.9-.2-.3-.3-.6-.6-.8 1.6-.6 3-1.3 4.1-1.9zm-2-4.3h1.9v-2.1h-1.9zm0 3.1h1.9v-2.2h-1.9zm2.7-3.1h1.9v-2.1h-1.9zm0 3.1h1.9v-2.2h-1.9zm2.4 1.3c1.4.6 2.7 1.2 4.1 1.8l-.5.9c-1.5-.7-2.8-1.4-4.1-1.9zm2.2-6.5h-1.9v2.1h1.9zm-1.9 5.2h1.9v-2.2h-1.9z" fill="#fcfbfa"/></svg>