<svg enable-background="new 0 0 400 400" viewBox="0 0 400 400" xmlns="http://www.w3.org/2000/svg"><path d="m234.83 239.03c-5.72.09-9.85 1.72-12.96 6.82-6.85 11.24-10.08 23.4-10.43 36.33-.51 18.23-.5 36.47-.8 54.7-.11 6.57-2.87 10.05-8.39 10.58-1 .1-2.84-.76-3.04-1.51-1.25-4.69-3.2-9.53-2.98-14.22 1.02-22.58 2.93-45.12 3.96-67.7.46-10.07 5.8-18.17 9.22-27.05.63-1.63 2.96-2.57 4.45-3.9 5.31-4.74 11.4-7.8 18.55-8.43 2.65-.23 3.22-1.54 3.12-3.95-.18-4.22-.05-8.46-.05-13-6.41 0-12.52-.06-18.64.01-20.25.23-40.51.58-60.76.69-2.93.02-3.94.78-3.89 3.71.06 3.23-.54 6.48-.5 9.71.01.94 1.04 2.33 1.93 2.7 2.68 1.1 5.47 2.09 8.31 2.6 10.92 1.96 16.7 9.1 20.68 18.88 6.7 16.45 7.63 33.7 8.08 51.06.27 10.4.55 20.81.27 31.21-.15 5.52-1.49 11.01-2.3 16.51-.27 1.83-1.33 2.74-3.22 2.63-2.17-.13-4.93 1.42-6.04-1.8-.97-2.82-2.17-5.71-2.34-8.63-1.03-17.87-1.79-35.76-2.66-53.65-.26-5.37-.67-10.73-.85-16.09-.26-7.63-3.26-14.35-6.98-20.75-2.98-5.13-7.88-7.28-14.29-7.6 0 6.76.04 13.33-.01 19.9-.21 33.47-.42 66.93-.7 100.4-.03 3.23-.27 6.5-.8 9.68-.68 4.11-2.82 5.8-6.28 5.5-2.7-.23-4.39-1.29-5-4.31-2.88-14.37-3.13-28.9-2.87-43.46.45-24.84 1.03-49.68 1.46-74.52.08-4.55-.13-9.14-2.62-13.05-9.91 1.29-13.49 8.72-16.86 16.23-3.89 8.67-4.38 17.9-4.52 27.25-.17 11.74-.88 23.47-1.24 35.21-.19 6.15-.07 12.31-.18 18.46-.04 2.1-.07 4.29-.64 6.28-.86 3-4.37 5.62-7.5 4.98-1.66-.34-3.34-2.57-4.24-4.33-3-5.87-1.95-12.27-1.62-18.49.9-17.31 2.14-34.59 3.02-51.9.62-12.16 3.73-23.6 9.32-34.35.92-1.76 2.92-2.96 4.46-4.39 5.63-5.21 12.04-8.82 19.85-9.43 2.1-.17 2.53-1.31 2.48-3.15-.09-3.13-.13-6.27.01-9.4.1-2.17-.67-2.98-2.85-2.98-7.05-.02-14.1-.12-21.14-.34-2.21-.07-4.46-.36-6.59-.94-3.37-.91-5.04-3.44-5.72-6.78-.41-2.02.09-3.35 2.26-3.58 6.1-.66 12.19-1.34 18.3-1.85 4.12-.34 8.26-.4 12.39-.61 2.43-.12 3.45-1.24 3.37-3.86-.18-6.13-.06-12.28-.06-19.07-3.78 0-7.21.05-10.65-.01-13.09-.21-26.18-.37-39.26-.73-2.86-.08-5.84-.57-8.5-1.55-1.7-.63-3.41-2.26-4.26-3.89-1.68-3.22-1.02-5.1 2.44-6.09 5-1.43 10.19-2.96 15.32-3.02 13.31-.17 26.62.44 39.93.74 1.21.03 2.41 0 3.94 0 .35-5.24.68-10.21 1.05-15.68-3.48-.2-6.67-.48-9.87-.53-5.37-.09-10.75.06-16.12-.05-5.87-.12-9.29-2.89-10.26-7.74-.42-2.08.12-3.36 2.22-3.6 6.31-.71 12.63-1.39 18.96-1.93 4.11-.36 8.25-.47 12.37-.68 2.15-.11 2.72-1.29 2.73-3.33.04-5.54.14-5.62-5.09-6.86-12.88-3.07-20.53-11.23-23.33-24.01-2.89-13.18-2.8-26.39-.22-39.65.75-3.86 3.83-3.24 6.14-3.78.9-.21 2.62 1.2 3.29 2.28 5.56 8.93 6.02 18.66 4.65 28.81-1.47 10.89 3.04 18.25 13.72 22.81.49-3.29 1.18-6.43 1.39-9.6 1.06-15.9 1-31.77-2.3-47.45-1.33-6.32-3.02-7.95-9.52-7.78-4.06.11-8.15 1.16-12.12 2.2-6.8 1.78-13.52 3.91-20.29 5.82-1.05.3-2.24.44-3.31.28-2.2-.32-4.73-.58-5.14-3.41-.38-2.62.07-5.09 2.62-6.73 9.58-6.15 20.15-9.49 31.3-11.3 7.46-1.21 14.48.1 21.17 3.36 5.27 2.57 8.84 6.83 9.37 12.66.87 9.43 1.26 18.92 1.56 28.39.35 11.03.38 22.07.56 33.39 5.14-1.36 9.14-3.23 10.22-8.45 1.54-7.42 3.09-14.83 4.45-22.28.86-4.72 1.05-9.57 2.13-14.23 1.02-4.39 3.57-7.91 8.52-9.21 3.34 5.38 5.08 11.27 5.4 17.44.74 14.28-2.28 27.89-9.33 40.3-2.75 4.84-8.16 7.14-13.49 8.75-6.1 1.84-7.9 3.93-8.51 10.73 27.57.81 55.12 1.61 82.95 2.43.28-3.63.54-6.93.8-10.36-2.64-.79-5.08-1.55-7.53-2.26-11.94-3.44-18.12-12.16-21.09-23.53-3.09-11.78-3.08-23.78-.52-35.6 1.59-7.35-.36-5.93 8.48-7.8 3.11 6.07 4.82 12.61 5.24 19.43.28 4.46.02 8.95.01 13.43-.01 10.45 4.6 17.25 14.95 21.41.53-3.83 1.31-7.5 1.51-11.21.85-15.68.96-31.33-2.93-46.71-1.42-5.59-1.72-6.22-7.55-5.58-7.5.82-14.9 2.65-22.34 4.05-4.48.84-8.93 1.9-13.44 2.41-2.73.31-4.99-1.14-5.98-3.94-.94-2.65-.86-4.65 2.18-6.31 15.86-8.66 32.63-11.94 50.5-9.11 1.35.21 2.8 1.31 3.74 2.4 7.7 8.91 9.75 19.57 9.46 30.99-.33 12.75-.47 25.51-.69 38.27-.02 1.22 0 2.43 0 3.66 6.35-.27 10.2-3.17 12.25-9.04 1.99-5.69 2.77-11.42 2.83-17.42.06-6.35.56-12.72 1.31-19.03.55-4.6 4.26-7.58 8.26-7.11 1.07.13 2.7 1.13 2.9 2 1.34 5.72 3.24 11.51 3.29 17.3.09 10.52-1.6 20.94-5.12 30.98-2.65 7.57-8.87 11.44-15.46 14.81-2.36 1.21-5.03 1.88-7.63 2.5-2.21.52-2.69 1.7-2.69 3.8 0 8.58-.03 8.46 8.27 10.79 4.92 1.39 9.93 2.78 14.51 4.98 4.66 2.24 7.75 6.19 8.71 11.62.76 4.28 2.16 8.45 2.92 12.74.53 2.95 1.96 4.64 4.68 5.79 10.96 4.65 18.74 13.22 26.22 22.01 3.71 4.36 5.55 9.61 4.59 15.85-3.1 0-6.11.14-9.09-.08-.93-.07-1.95-.94-2.65-1.71-4.06-4.48-7.8-9.27-12.1-13.49-3.44-3.38-7.52-6.09-11.48-9.23-1.95 4.19-3.39 7.58-5.08 10.84-3.07 5.91-8 9.52-14.44 11.06-4.88 1.17-9.78 2.26-14.99 3.46 0 5.64-.08 11.22.1 16.79.02.68 1.29 1.64 2.16 1.93 4.02 1.37 8.11 2.52 12.16 3.79 5.81 1.82 10.15 5.4 13.18 10.73 7.01 12.34 10.34 25.71 10.71 39.76.46 17.67.64 35.35.63 53.03 0 4.41-1.09 8.85-2.03 13.21-.2.94-1.97 2.16-3.01 2.16-2.07-.01-5.04 2.07-6.12-1.28-1.22-3.77-2.51-7.72-2.62-11.62-.49-16.55-.4-33.12-.84-49.68-.3-11.45-2.04-22.68-6.37-33.43-3.11-7.73-8.78-11.51-17.41-12.34 0 6.69.03 13.27 0 19.85-.14 27.54-.32 55.08-.44 82.62-.03 8.04.36 16.1.05 24.13-.21 5.29-3.42 8.34-8.17 8.54-1.1.05-2.95-.9-3.26-1.8-1.17-3.34-2.5-6.83-2.59-10.29-.31-11.18-.02-22.38-.09-33.58-.17-28.54-.41-57.09-.62-85.63.01-1.25.01-2.46.01-3.73zm.49-65.11c-27.76-.92-55.16-1.83-82.58-2.73v22.67c27.73-.57 55.14-1.14 82.58-1.71 0-6.19 0-11.96 0-18.23zm-82.74-16.77h82.74c0-4.59 0-8.92 0-13.66-27.63-.81-55.12-1.61-82.74-2.41zm97.79 16.54v17.3c4.76-1.66 9.58-2.68 13.62-5.03 1.97-1.15 3.1-4.68 3.51-7.31.42-2.69-2.28-3.56-4.57-3.83-4.07-.46-8.15-.74-12.56-1.13zm.09-28.95v14.79h18.45c-2.08-9.69-8.7-15.06-18.45-14.79z" fill="#010103"/><g fill="#fcfbfa"><path d="m385.2 377.6.6-.7c.6.4 1.3.9 1.9 1.5l-.6.7c-.8-.5-1.4-1-1.9-1.5zm.3 7.1c.6-1.4 1.1-2.9 1.5-4.5.3.1.6.3.9.4-.5 1.4-1 2.9-1.5 4.4zm.2-10.1.6-.6c.7.5 1.3 1.1 1.9 1.6l-.7.7c-.6-.6-1.2-1.2-1.8-1.7zm8.4-.8h.8v.9h1.8v.7h-1.8v1.8h-.8v-.3h-1.2v.9h3.3v2.6h-.8v-.4h-2.5c0 .3 0 .6-.1.8h3.4v.7h-3.5c0 .3-.1.6-.1.8h4v.7h-3.5c.7.9 1.9 1.3 3.6 1.5-.2.2-.4.5-.6.9-1.9-.3-3.2-1.1-3.8-2.3-.5 1.1-1.8 2-3.9 2.4-.2-.3-.4-.5-.6-.8 1.9-.4 3.1-.9 3.6-1.7h-3.2v-.7h3.5c.1-.2.1-.5.2-.8h-3.3v-.7h3.4c0-.2 0-.5 0-.8h-2.4v.3h-.8v-2.6h3.3v-.9h-1.2v.3h-.8v-1.8h-1.8v-.7h1.8v-.9h.8v.9h3.2zm-4.4 5.5h2.4c0-.3 0-.6 0-.9h-2.4zm1.2-3.1h3.2v-.8h-3.2zm4.4 2.2h-2.4v.9h2.5v-.9z"/><path d="m389.2 385.8h.9v1.5h1.9v-1.5h.9v1.5h2.7v6h1.1v.9h-11.3v-.9h1.1v-6h2.7zm.2 8.7.5.8c-1.2.6-2.5 1.3-4 1.9-.2-.3-.3-.6-.6-.8 1.6-.6 3-1.3 4.1-1.9zm-2-4.3h1.9v-2.1h-1.9zm0 3.1h1.9v-2.2h-1.9zm2.7-3.1h1.9v-2.1h-1.9zm0 3.1h1.9v-2.2h-1.9zm2.4 1.3c1.4.6 2.7 1.2 4.1 1.8l-.5.9c-1.5-.7-2.8-1.4-4.1-1.9zm2.2-6.5h-1.9v2.1h1.9zm-1.9 5.2h1.9v-2.2h-1.9z"/></g></svg>