<svg enable-background="new 0 0 400 400" viewBox="0 0 400 400" xmlns="http://www.w3.org/2000/svg"><g fill="#010103"><path d="m292.85 374.67c-3.29-6.82-4.58-14-4.87-21.23-.73-18.22-.95-36.46-1.49-54.68-.94-31.43-1.95-62.86-2.96-94.28-.97-30.2-1.98-60.39-2.98-90.59-.45-13.53-.84-27.06-1.41-40.58-.29-6.78-2.11-13.17-5.2-19.28-3.9-7.72-9.98-11.86-18.58-12.21-13.29-.54-26.58-1.08-39.87-1.45-10.17-.29-20.36-.5-30.53-.41-6.03.05-12.04.88-18.07 1.13-8.26.34-16.57.07-24.78.82-4.82.44-9.53 2.25-14.22 3.65-1.05.31-2.01 1.37-2.71 2.3-6 7.92-8.96 16.93-9.26 26.82-2.13 70.23-4.24 140.47-6.33 210.7-.77 25.95-1.46 51.9-2.3 77.85-.09 2.75-.75 5.52-1.46 8.19-.68 2.54-2.61 3.71-5.27 3.85-2.73.14-4.24-1.1-5.29-3.57-2.83-6.65-2.33-13.57-2.06-20.5.59-14.97 1.32-29.93 1.75-44.9 1.22-42.28 2.36-84.56 3.45-126.84.54-21.03.52-42.08 1.46-63.09.6-13.39 2.68-26.7 3.76-40.08.92-11.43 2.92-22.61 6.46-33.5.54-1.67 1.73-3.35 3.06-4.53 8.01-7.14 17.85-9.63 28.18-11.3 17.05-2.75 34.14-1.72 51.24-1.39 17.78.34 35.59.33 53.33 1.29 7.84.42 15.51 3.36 23.36 4.25 8.64.97 13.09 6.37 16.65 13.26 3.98 7.71 5.55 16.05 5.96 24.59 1.59 32.63 3.28 65.26 4.51 97.91 1.84 48.98 3.47 97.96 4.86 146.96.53 18.79.13 37.6.26 56.41.02 2.27-.7 3.23-2.94 3.41-1.87.14-3.7.64-5.71 1.02z"/><path d="m256.29 237.62c1 18.92-1.84 37.23-9.53 54.64-.74 1.67-1.92 3.29-3.27 4.53-13.76 12.69-30.24 16.9-48.43 14.67-8.29-1.02-16.43-3.18-24.66-4.7-7.53-1.39-12.71-6.1-17.36-11.72-5.87-7.09-8.05-15.6-9.53-24.37-3.12-18.58-2.19-37.26-.99-55.92.5-7.81.76-15.76 2.56-23.31 1.69-7.05 4.22-14.38 8.31-20.24 4.33-6.19 11.74-9.45 19.1-11.86 12.36-4.04 25.01-4.55 37.8-3.09 4.66.53 9.33 1.14 13.92 2.06 14.79 2.96 23.82 12.28 26.68 26.72 2.53 12.8 3.81 25.85 5.32 38.83.52 4.53.08 9.17.08 13.76zm-98.7 16.85c.96 7.53 1.48 15.04 2.96 22.36 1.85 9.14 6.86 16.11 16.64 17.96 8.09 1.52 16.28 2.82 24.48 3.44 6.93.52 13.79-.81 20.3-3.56 6.82-2.87 11.98-7.21 14.14-14.6 1.31-4.5 3.05-8.88 4.27-13.4 1.04-3.84 1.95-7.8.25-12.2-27.58 0-55.18 0-83.04 0zm.44-45.55v31.12c27.88-.34 55.83-.68 84.02-1.02-.86-9.24-1.79-18.01-2.42-26.8-.18-2.51-.99-3.13-3.41-3.13-15.31.03-30.63-.12-45.94-.16-10.5-.04-21-.01-32.25-.01zm1.27-13.27c26.99-.36 53.22-.71 79.47-1.07-.71-10.01-8.48-19.59-18.2-22.31-5.15-1.44-10.43-2.59-15.72-3.27-13.75-1.77-26.82.07-38.15 8.83-5.61 4.33-6.7 10.64-7.4 17.82z"/><path d="m198.25 114.33c17.45 0 34.9-.03 52.35.03 2.45.01 4.99.07 7.32.72 2.17.6 4.49 1.63 6.08 3.16 3.84 3.72 3.06 6.59-1.8 8.64-7.36 3.1-15.12 2.47-22.81 2.55-14.64.16-29.28.34-43.92.59-19.66.33-39.35 1.68-58.85-2.25-5.36-1.08-5.14-1.1-6.1-6.04-.52-2.64.53-3.37 2.57-4.4 4.82-2.42 9.76-3.27 15.16-3.2 16.66.23 33.33.08 50 .08z"/><path d="m197.8 67.65c15.32 0 30.64-.08 45.96.05 5.02.04 10.05.43 15.04 1 4.54.52 7.07 2.88 7.73 6.28.45 2.34-.12 3.56-2.66 4.3-15.77 4.62-31.88 5.28-48.16 4.85-21.23-.57-42.46-.67-63.68-1.37-6.07-.2-12.09-1.77-18.14-2.71-2.16-.34-3-1.56-2.71-3.72.15-1.1.11-2.24.01-3.35-.17-1.86.4-2.93 2.43-3.18 4.18-.52 8.34-1.67 12.51-1.72 17.22-.2 34.45-.08 51.68-.08-.01-.13-.01-.24-.01-.35z"/></g><path d="m385.2 377.6.6-.7c.6.4 1.3.9 1.9 1.5l-.6.7c-.8-.5-1.4-1-1.9-1.5zm.3 7.1c.6-1.4 1.1-2.9 1.5-4.5.3.1.6.3.9.4-.5 1.4-1 2.9-1.5 4.4zm.2-10.1.6-.6c.7.5 1.3 1.1 1.9 1.6l-.7.7c-.6-.6-1.2-1.2-1.8-1.7zm8.4-.8h.8v.9h1.8v.7h-1.8v1.8h-.8v-.3h-1.2v.9h3.3v2.6h-.8v-.4h-2.5c0 .3 0 .6-.1.8h3.4v.7h-3.5c0 .3-.1.6-.1.8h4v.7h-3.5c.7.9 1.9 1.3 3.6 1.5-.2.2-.4.5-.6.9-1.9-.3-3.2-1.1-3.8-2.3-.5 1.1-1.8 2-3.9 2.4-.2-.3-.4-.5-.6-.8 1.9-.4 3.1-.9 3.6-1.7h-3.2v-.7h3.5c.1-.2.1-.5.2-.8h-3.3v-.7h3.4c0-.2 0-.5 0-.8h-2.4v.3h-.8v-2.6h3.3v-.9h-1.2v.3h-.8v-1.8h-1.8v-.7h1.8v-.9h.8v.9h3.2zm-4.4 5.5h2.4c0-.3 0-.6 0-.9h-2.4zm1.2-3.1h3.2v-.8h-3.2zm4.4 2.2h-2.4v.9h2.5v-.9z" fill="#fcfbfa"/><path d="m389.2 385.8h.9v1.5h1.9v-1.5h.9v1.5h2.7v6h1.1v.9h-11.3v-.9h1.1v-6h2.7zm.2 8.7.5.8c-1.2.6-2.5 1.3-4 1.9-.2-.3-.3-.6-.6-.8 1.6-.6 3-1.3 4.1-1.9zm-2-4.3h1.9v-2.1h-1.9zm0 3.1h1.9v-2.2h-1.9zm2.7-3.1h1.9v-2.1h-1.9zm0 3.1h1.9v-2.2h-1.9zm2.4 1.3c1.4.6 2.7 1.2 4.1 1.8l-.5.9c-1.5-.7-2.8-1.4-4.1-1.9zm2.2-6.5h-1.9v2.1h1.9zm-1.9 5.2h1.9v-2.2h-1.9z" fill="#fcfbfa"/></svg>