<svg enable-background="new 0 0 400 400" viewBox="0 0 400 400" xmlns="http://www.w3.org/2000/svg"><g fill="#010101"><path d="m199.61 244.14c-1.08 1.45-1.72 2.5-2.54 3.38-16.61 17.88-33.29 35.7-49.85 53.63-5.24 5.67-10.14 11.65-15.28 17.41-4.02 4.5-7.39 5.55-13.9 4.42-.01-5.01-.87-9.64 3.5-14.28 25.83-27.49 51.29-55.35 76.8-83.14 1.09-1.19 2.24-3.06 2.13-4.52-.84-11.27-1.97-22.52-3.03-33.77-.05-.52-.23-1.02-.47-2.09-10.55 7.69-22.42 12.58-31.99 21.27-7.85 7.12-16.38 13.52-24.85 19.92-2.51 1.89-5.76 2.97-8.82 3.92-3.84 1.19-6.23-.84-5.55-4.84.37-2.14 1.5-4.68 3.13-5.99 20.59-16.52 40.26-34.24 62.9-48.06 1.79-1.09 2.31-2.14 1.71-4.34-2.78-10.11-5.3-20.3-7.94-30.52-.5.11-.91.08-1.1.26-12.71 12.46-27.98 21.58-42 32.33-3.99 3.06-7.74 6.53-12.04 9.07-2.72 1.6-6.23 2.29-9.44 2.52-3.42.25-5.58-2.98-4.16-6.16 1.14-2.54 2.82-5.28 5.04-6.8 16.23-11.18 32.31-22.54 46.96-35.78 5.46-4.94 10.67-10.17 16-15.26-.07-.34-.14-.67-.21-1.01-3.24 0-6.48.03-9.72-.01-14.32-.17-28.64-.32-42.96-.61-2.3-.05-4.69-.48-6.85-1.25-3.8-1.35-5.18-4.51-3.92-8.34.24-.73.86-1.63 1.52-1.89 5.29-2.04 10.42-4.08 16.41-4.04 38.4.22 76.79.1 115.19.14 3.46 0 6.94.18 10.38.59 3.97.47 7.24 2.18 8.88 6.19.95 2.32.53 3.88-1.74 5.26-6.59 3.98-13.78 5.23-21.27 4.76-8.81-.56-17.58-1.83-26.39-2.21-6-.26-12.06.23-18.05.85-5.23.54-8.84 5.92-7.12 10.87 8.69 24.88 8.96 51.23 13.7 76.79.33 1.76.4 3.57.8 5.31.2.9.66 2.08 1.35 2.41.53.25 1.67-.52 2.42-1.02 5.38-3.58 10.65-7.33 16.12-10.74 1.63-1.02 3.78-1.4 5.75-1.65 4.66-.6 8.34.82 11.19 4.96 4.75 6.91 6.65 14.73 7.26 22.76 1.23 15.95 1.96 31.95 2.69 47.93.68 14.87 1.38 29.75 1.52 44.64.06 6.18-1.34 12.37-2.04 18.56-.42 3.65-3.54 3.01-5.69 3.19-1.16.1-3.19-1.32-3.56-2.47-1.2-3.67-2.45-7.52-2.55-11.32-.69-26.74-.99-53.49-1.68-80.24-.21-8.04-1.2-16.06-1.98-24.07-.32-3.22-1.41-6.22-4.9-7.36-3.77-1.23-7.5-.57-10.43 1.88-4.55 3.79-8.79 7.97-12.98 12.17-.86.86-1.32 2.53-1.3 3.81.1 7.39.84 14.79.52 22.15-.54 12.39-1.53 24.77-2.67 37.12-1.29 14.04-2.63 28.09-4.6 42.05-1.1 7.81-3.18 15.55-5.47 23.12-1.79 5.92-5.61 8.41-10.4 8.47-2.2.02-3.51-.7-4.18-2.92-1.52-5.02-1.46-10.02.39-14.83 8.56-22.18 11.65-45.48 13.38-68.92.76-10.29-.7-20.75-1.18-31.13-.06-.57-.35-1.07-.84-2.53z"/><path d="m114.53 198.98c-.87 33.24-1.43 66.49-2.76 99.71-.5 12.6-2.73 25.13-4.24 37.68-1.17 9.77-2.4 19.54-3.69 29.3-.22 1.64-.72 3.29-1.35 4.82-1.97 4.77-5.49 5.97-9.99 3.33-.79-.46-1.38-1.63-1.63-2.59-1.73-6.68-.44-13.32.31-19.99 2.27-20.12 4.87-40.22 6.51-60.4 3.76-46.26 3.05-92.6 2.23-138.95-.33-18.79-.1-37.61.68-56.38.4-9.55 1.74-19.26 4.23-28.47 2.08-7.71 5.6-15.12 12.16-20.77 12.69-10.93 27.47-16.67 43.81-18.5 25.88-2.9 51.84-2.52 77.72-.1 15.51 1.45 29.26 7.77 39.96 19.24 7.64 8.19 12.06 18.53 13.28 29.56 1.4 12.64 1.75 25.44 1.88 38.18.32 29.1.14 58.21.33 87.32.16 24.63.3 49.27.97 73.89.2 7.42 2.24 14.79 3.28 22.2 2.92 20.84 6.06 41.65 6.09 62.77 0 3.02-.19 6.04-.38 9.06-.18 2.92-2.56 5.51-5.45 5.76-2.63.23-4.54-.76-5.03-3.67-1.72-10.24-3.74-20.44-5.15-30.73-2.15-15.63-3.83-31.31-5.81-46.96-2.92-23.04-3.68-46.18-3.47-69.38.19-21.05.13-42.1.5-63.15.34-19.25 1.23-38.49 1.63-57.74.24-11.26-1.62-22.26-4.84-33.07-3.96-13.29-12.6-21.53-25.84-25.21-13.01-3.62-26.34-5.11-39.75-5.86-15.87-.89-31.75-1.3-47.55 1.18-10.44 1.64-20.56 4.4-29.94 9.35-1.97 1.04-3.64 2.93-5.05 4.74-8.1 10.38-12.45 22.26-12.86 35.36-.6 19.12-.86 38.26-1.04 57.4-.17 17.02-.03 34.04-.03 51.06.1 0 .19.01.28.01z"/><path d="m142.87 77.32c0-2.93 0-5.49 0-8.73 4.34-.69 8.69-1.95 13.05-1.97 28.65-.11 57.29.02 85.94.17 3.7.02 7.46.43 9.68 4.14 2.07 3.46 1.86 5.11-1.78 6.46-3.81 1.42-7.9 2.78-11.9 2.9-22.02.63-44.04.99-66.07 1.19-9.76.09-19.38-1.37-28.92-4.16z"/></g><path d="m6.4 11.7c-1-.8-1.9-1.6-2.9-2.3l.6-.7c.9.7 1.9 1.4 2.9 2.2zm-2.1 8.3c.7-2.1 1.4-4.2 2-6.4.2.1.6.3 1 .4-.7 2.3-1.3 4.4-1.9 6.4zm3-12.8c-1.1-.9-2.1-1.7-2.9-2.4l.6-.7c1 .8 2 1.5 3 2.4zm1.4-1.3v-.9h10.2v.9c-.9 4.2-2.3 7.3-4.1 9.4 1.3 1.4 3.2 2.7 5.7 4-.2.2-.4.5-.7.9-2.5-1.4-4.4-2.7-5.7-4.2-1.4 1.5-3.5 3-6.1 4.4 0 0 0 0-.1-.1-.3-.4-.5-.7-.7-.8 2.7-1.3 4.7-2.8 6.2-4.2-1.8-2.2-3-5.3-3.7-9.4zm9.2 0h-7.1c.6 3.8 1.7 6.7 3.4 8.7 1.7-2 2.9-4.8 3.7-8.7z" fill="#fbfafa"/><path d="m31.6 3.6h.9v2.3h4.1v9.1h1.7v.9h-16.6v-.9h1.7v-9.1h4.1v-2.3h.9v2.3h3.1v-2.3zm-4 13.3.6.8c-1.9.9-3.8 1.9-5.8 2.8-.2-.3-.3-.6-.5-.9 2-.9 3.9-1.8 5.7-2.7zm-3.2-10.1v3.7h3.1v-3.7zm0 4.5v3.7h3.1v-3.7zm4.1-4.5v3.7h3.1v-3.7zm0 4.5v3.7h3.1v-3.7zm9.1 9.1c-2.1-1.1-4.1-2-5.8-2.7l.5-.8c2.2.9 4.1 1.8 5.8 2.6zm-1.9-13.6h-3.1v3.7h3.1zm-3.2 4.5v3.7h3.1v-3.7z" fill="#fbfafa"/></svg>