<svg enable-background="new 0 0 400 400" viewBox="0 0 400 400" xmlns="http://www.w3.org/2000/svg"><path d="m361.2 9.6.8-1c.9.7 1.9 1.4 2.9 2.3l-.9 1.1c-1-1-2-1.8-2.8-2.4zm.5 10.6c.9-2.1 1.6-4.3 2.3-6.7.4.2.8.4 1.3.6-.7 2.1-1.5 4.3-2.2 6.6zm.4-15.2.9-.9c1 .8 2 1.6 2.8 2.4l-1 1c-.9-.9-1.8-1.7-2.7-2.5zm12.5-1.2h1.2v1.4h2.7v1.1h-2.7v2.7h-1.2v-.6h-1.8v1.3h4.9v3.8h-1.2v-.5h-3.7c0 .4-.1.9-.1 1.2h5.1v1h-5.2c0 .5-.1.9-.2 1.2h6v1h-5.2c1.1 1.3 2.9 2 5.5 2.2-.4.4-.7.8-.9 1.3-2.9-.5-4.8-1.6-5.7-3.5h-.1c-.8 1.7-2.7 2.9-5.9 3.6-.2-.4-.6-.8-.9-1.1 2.8-.6 4.6-1.4 5.4-2.5h-4.8v-1h5.3c.1-.3.2-.7.2-1.2h-4.9v-1h5c0-.4 0-.8.1-1.2h-3.5v.5h-1.2v-3.8h4.9v-1.3h-1.8v.5h-1.2v-2.7h-2.7v-1h2.6v-1.4h1.2v1.4h4.7v-1.4zm-6.6 8.3h3.6c0-.4 0-.9 0-1.4h-3.6zm1.9-4.6h4.7v-1.3h-4.7zm6.6 3.2h-3.7v1.4h3.7z" fill="#fbfcfa"/><path d="m385.3 3.8h1.3v2.2h2.8v-2.2h1.3v2.2h4.1v9.1h1.7v1.3h-16.9v-1.3h1.7v-9.1h4.1v-2.2zm.4 13.1.7 1.2c-1.8.9-3.8 1.9-6 2.9-.2-.4-.5-.8-.8-1.3 2.3-1 4.3-1.9 6.1-2.8zm-3.1-6.4h2.8v-3.2h-2.8zm0 4.6h2.8v-3.3h-2.8zm4-4.6h2.8v-3.2h-2.8zm0 4.6h2.8v-3.3h-2.8zm3.7 1.9c2.1.9 4.1 1.8 6.1 2.7l-.7 1.3c-2.2-1.1-4.2-2-6.1-2.9zm3.2-9.7h-2.8v3.2h2.8zm-2.8 7.8h2.8v-3.3h-2.8z" fill="#fbfcfa"/><g fill="#010102"><path d="m207.86 179.09c-7.02 0-13.67 0-20.91 0 0 8.23.05 16.71-.01 25.18-.12 16.67.11 33.36-.6 50.01-.52 12.27-2.33 24.49-3.54 36.73-1.46 14.69-2.49 29.44-4.49 44.06-1.29 9.47-3.76 18.81-6.19 28.08-.72 2.75-2.71 5.47-4.81 7.48-3.98 3.81-7.9 2.28-9.09-2.99-1.39-6.16.54-11.96 1.54-17.88 3.72-22.03 8.22-43.98 10.82-66.14 1.84-15.7 1.08-31.7 1.49-47.68-8.26-1.54-15.96-2.92-23.62-4.43-11.3-2.22-19-11.07-19.68-22.65-.54-9.14.48-18.09 3.91-26.66.48-1.18 1.26-2.35 2.18-3.23 8.06-7.69 18.13-10.83 28.83-12.2 7.41-.95 14.89-1.33 22.34-1.96.87-.07 1.75-.13 2.89-.21.57-5.74 1.13-11.36 1.71-17.2-8.42-1.85-16.52-4.03-24.76-5.32-9.16-1.44-15.08-6.89-18.77-14.61-6.39-13.34-7.09-27.55-2.8-41.55 4.15-13.56 15.33-19.85 28.16-23.19 5.44-1.42 11.26-1.72 16.92-1.87 12.4-.32 24.79-.66 37.04 2.35 11.63 2.86 19.46 9.93 23.7 20.77 4.88 12.47 4.84 25.29 1.27 38.19-3.56 12.86-13.04 19.18-24.99 22.23-6.64 1.69-13.65 1.89-21.05 2.83-.31 5.03-.65 10.63-1 16.42 6.6.6 12.82 1.03 19.01 1.75 10.04 1.15 19.7 3.72 29.02 7.77 8.59 3.74 12.35 10.41 13.37 19.28 1.26 10.94-2.56 20.95-5.53 31.12-.19.66-.9 1.2-1.44 1.72-.31.3-.8.41-1.15.68-8.73 6.75-18.82 8.78-29.57 8.58-1.21-.02-2.43.14-4.2.25-.19 7.21-.82 14.34-.47 21.42.71 14.64 1.43 29.31 3.12 43.85 1.58 13.64 4.38 27.13 6.7 40.68 1.13 6.61 2.65 13.17 3.43 19.82.36 3.07-.2 6.45-1.19 9.41-.49 1.45-2.79 2.88-4.49 3.2-2.16.41-4.18-.6-5.49-2.93-3.43-6.09-4.6-12.74-5.72-19.49-2.44-14.66-5.7-29.21-7.54-43.95-1.95-15.62-3.31-31.39-3.74-47.12-.71-25.39-.45-50.8-.59-76.2-.02-1.32-.02-2.64-.02-4.4zm-7.59-45.85c13.77 0 23.4-2.46 32.01-7.77 1.07-.66 2.17-1.66 2.7-2.76 4.38-9.23 5.78-19.02 4.48-29.09-1.29-9.98-7.58-15.55-17.57-16.24-1.34-.09-2.67-.25-4.01-.38-13.89-1.32-27.78-3.68-41.7-.33-11.71 2.82-16.55 5.46-18.42 16.3-1.84 10.68-2.03 21.17 3.46 30.99.63 1.12 1.92 2.2 3.13 2.62 12.36 4.27 25.12 6.33 35.92 6.66zm-28 46.91c-7.53-1.93-14.04.95-20.54 3.51-5.18 2.04-8.61 5.37-8.78 11.58-.2 7.05-.99 14.08 2.92 20.49.48.78 1.27 1.86 2 1.92 8.07.67 16.15 1.17 24.41 1.72-.01-13.23-.01-26.03-.01-39.22zm50.76 40.38c8.19-1.18 15.7-2.22 23.19-3.43.8-.13 1.89-1.12 2.1-1.92 1.17-4.42 2.66-8.86 3-13.37.52-6.81-1.05-13.29-7.31-17.31-6.37-4.09-13.57-5.3-20.98-5.09z"/><path d="m293.53 374.41c-1.59-9.2-3.53-18.47-4.74-27.84-2.37-18.3-4.34-36.65-6.45-54.98-2.88-25.06-3.27-50.22-2.93-75.41.23-17.23.14-34.47.47-51.7.37-19.35 1.13-38.7 1.56-58.05.27-12.14-1.16-24.05-4.76-35.75-3.95-12.85-12.19-21.41-25.03-24.71-10.46-2.69-21.17-4.75-31.9-5.93-16.8-1.85-33.71-2.01-50.58-.25-11.3 1.18-22.2 3.91-32.63 8.53-3.47 1.54-6.27 3.66-8.53 6.73-7.87 10.66-12.42 22.59-12.66 35.79-.68 36.69-.93 73.39-1.55 110.08-.55 32.22-.98 64.45-2.25 96.65-.55 14.04-3.02 28.01-4.65 42.01-.98 8.44-1.94 16.89-3.09 25.31-.33 2.39-.95 4.87-2.05 6.99-1.89 3.64-6.09 4.64-9.48 2.39-.92-.61-1.45-2.13-1.74-3.33-1.82-7.38-.16-14.66.72-21.98 1.82-15.21 3.45-30.44 5.23-45.66 4.33-37 3.46-74.18 3.72-111.3.17-24.83-1.12-49.68-.73-74.51.24-14.93 1.95-29.9 3.94-44.73 2.03-15.12 10.15-26.48 23.54-34.3 10.97-6.4 22.77-9.83 35.16-11.32 25.55-3.08 51.17-2.4 76.69.06 15.57 1.5 29.42 7.94 40.19 19.54 6.65 7.16 10.05 16.31 12.28 25.76 3.2 13.53 2.6 27.35 2.71 41.09.39 48.33 1.07 96.67.93 145-.05 18.05 3.49 35.55 5.34 53.31 1.76 16.89 2.92 33.85 4.32 50.77.06.77-.02 1.57-.08 2.35-.72 8.98-.74 8.99-10.97 9.39z"/><path d="m227.28 106.54c-6.71 4.23-13.28 5.67-19.94 6.17-11.42.87-22.8.42-33.88-3.02-1.52-.47-3.23-.71-2.97-2.87.29-2.4-1.9-5.57 1.84-6.96 2.44-.91 4.97-2.1 7.49-2.17 9.95-.27 19.92-.42 29.87-.03 4.01.16 8.17 1.38 11.86 3.01 2.23 1.01 3.71 3.72 5.73 5.87z"/></g></svg>