<svg enable-background="new 0 0 400 400" viewBox="0 0 400 400" xmlns="http://www.w3.org/2000/svg"><g fill="#010103"><path d="m261.77 220v20.22c4.33.35 8.62.96 12.92.98 6.93.04 13.86-.5 20.79-.41 2.95.04 6.15.5 8.76 1.75 2.34 1.12 4.27 3.41 5.96 5.51 1.67 2.07.88 3.71-1.64 4.83-8.06 3.6-16.62 4.52-25.25 4.43-14.87-.16-29.74-.93-44.61-1.07-8.24-.08-16.49.61-24.97.96-.36 7.2-.7 13.98-1.09 21.56 4.21 0 8.18-.02 12.15 0 25.74.14 51.48.29 77.21.45 2.35.02 4.74-.06 7.02.37 2.02.38 4.24.99 5.82 2.21 4.23 3.26 3.59 7.08-1.3 8.87-11.38 4.18-23.22 4.09-35.11 3.89-21.02-.35-42.04-.54-63.06-.77-.76-.01-1.53.23-2.64.41 0 1.34-.04 2.64.01 3.93.58 17.78 1.23 35.56 1.72 53.35.1 3.67-.2 7.37-.57 11.03-.26 2.58-1.41 4.75-4.35 5.25-2.96.49-5.48-.2-6.46-3.3-.93-2.94-1.98-5.99-2.1-9.03-.74-18.9-1.24-37.8-1.82-56.7-.12-3.78-1.41-5.57-5.22-6.05-2.62-.33-5.33.07-8 .18-2.68.11-5.2-.14-6.65-2.85-2.27-4.25-.86-7.56 3.83-8.54 3.93-.82 7.92-1.41 11.91-1.9 2.8-.35 4.13-1.24 4.21-4.52.46-18.45.38-36.98 2.11-55.33 1.75-18.55 5.57-36.9 8.14-55.38 1.61-11.55 6.54-21.47 13.28-30.74 2.49-3.43 4.65-7.11 6.95-10.67 1.01-1.56 1.04-2.85-.35-4.44-3.53-4.03-6.81-8.28-10.36-12.64-3.53 3.4-6.88 6.66-10.27 9.87-3.64 3.44-7.73 6.06-12.83 6.76-3.41.47-6.01-1.64-5.41-5.07.41-2.4 1.43-5.15 3.1-6.81 16.87-16.81 32.77-34.68 52.29-48.63 3.35-2.4 3.85-5.93 3.95-9.5.08-3.22-.33-6.47-.68-9.69-.59-5.51.49-10.71 3.01-15.57.41-.78 2.12-1.5 3.03-1.31 4.57.98 7.33 4.63 7.08 9.64-.22 4.45-.93 8.88-1.43 13.32-.04.33-.06.67-.09 1-.51 5.93.8 10.4 6.72 13.79 11.18 6.4 21.26 14.46 30.47 23.54 6.94 6.84 10.97 14.69 8.63 24.7-.35 1.49-1.35 3.06-2.49 4.09-5.21 4.7-11.49 7.07-18.32 8.45-6.05 1.22-11.99 2.98-17.98 4.51.03.4.07.81.1 1.21 6.87 1.66 13.77 3.2 20.6 5.03 5.6 1.5 11.32 2.87 16.55 5.25 3.25 1.48 5.82 4.62 8.43 7.27 1.37 1.39.69 2.67-1.13 3.62-5.04 2.62-10.24 2.91-15.62 1.53-10.28-2.64-20.56-5.3-30.84-7.95-.63-.16-1.28-.27-2.47-.51-.6 8.02-1.18 15.84-1.8 24.08 4.97.28 9.63.64 14.3.78 4.92.15 9.88-.21 14.76.26 3.01.29 6.23 1.22 8.74 2.83 1.47.94 2.02 3.75 2.31 5.81.08.56-2.21 1.73-3.56 2.17-7.89 2.58-16.06 2.59-24.24 2.48-3.35-.04-6.69-.01-10.49-.01-.6 7.4-1.2 14.68-1.87 22.93 7.03 0 13.69-.07 20.35.02 5.47.07 10.93.29 16.39.56 1.2.06 2.45.43 3.55.93 1.64.76 3.68 1.16 3.52 3.8-.16 2.61.45 5.11-2.87 6.66-6.51 3.05-13.24 2.58-20.08 2.35-6.74-.21-13.53-.03-20.65-.03zm.08-106.46c3.66 0 6.33.12 8.99-.02 7.05-.37 14.06-.89 20.33-4.75 1.66-1.02 2.26-2.13 1.39-3.78-1.39-2.65-2.55-5.56-4.48-7.78-8.77-10.13-19.68-17.45-31.71-23.19-.72-.34-2.11-.35-2.64.11-7.62 6.71-15.15 13.53-22.84 20.43 4.84 7.21 9.54 14.2 14.25 21.21 3.92-2.23 4.77-5.57 5.12-9.28.39-4.1.78-8.23 1.6-12.26.71-3.49 3.18-4.4 6.51-2.89 2.44 1.11 3.42 3.16 3.45 5.67.07 5.35.03 10.7.03 16.53zm-21.2 19.13c-10.7 9.54-15 22.21-17.71 35.9h26.71c0-1.56.03-2.65-.01-3.74-.21-6.37-.98-12.77-.5-19.09.5-6.67-1.85-10.85-8.49-13.07zm9.15 72.59c-.38-7.93-.73-15.13-1.09-22.53-9.07 0-17.78-.03-26.48.05-.68.01-1.87.7-1.94 1.21-1.07 7.13-1.99 14.28-2.93 21.27zm-.33 34.97c0-7.01 0-13.31 0-19.73-10.51-.34-20.77-.7-31.03-.92-.77-.02-2.22.98-2.23 1.53-.16 6.43-.1 12.86-.1 19.12z"/><path d="m149.8 139.51c21.69-2.62 27.46-24.36 24.35-38.26-2.95-13.18-5.54-26.44-8.11-39.7-.99-5.11 1.43-8.94 5.6-9.45 2.3-.28 4.21.16 5.59 2.58 6.5 11.39 10.07 23.61 10.62 36.68.61 14.65-.89 29.04-5.98 42.9-.52 1.41-1.42 2.75-2.41 3.9-1.31 1.51-3.09 2.64-4.32 4.21-6.16 7.88-14.32 11.73-24.17 12.26-3.15.17-4.21 1.78-5.11 4.82-7.51 25.41-10.91 51.38-10.85 77.8.06 29.25 3.6 58.07 12.84 85.91 4.43 13.33 10.12 26.24 15.14 39.38.94 2.46 1.69 5.09 1.91 7.69.21 2.57-.83 5.06-3.79 5.52-2.7.42-5.09.01-6.8-2.9-11.91-20.26-19.35-42.2-24.75-64.91-5.81-24.44-9.4-49.19-10.02-74.33-.44-18.04 2.43-35.65 6.9-53.05 6.36-24.75 9.67-50.02 12.84-75.31 1.16-9.24-.42-18.16-4.77-26.35-5.54-10.46-11.52-20.68-17.31-31.01-.44-.78-.93-1.53-1.28-2.35-1.41-3.28-.35-6.48 1.73-8.69.9-.96 4.37-.53 5.97.43 3.26 1.97 6.82 4.2 8.9 7.25 7.38 10.84 13.27 22.57 17.19 35.11 4.36 13.93 3.91 28.25 2.23 42.56-.7 5.75-1.43 11.5-2.14 17.31z"/><path d="m111.76 340.11c-2.36 0-4.49-.14-6.59.04-2.12.19-3.15-.76-4.13-2.53-7.56-13.56-11.96-28.15-13.92-43.44-4.06-31.67-2.57-63.11 4.3-94.32 1.94-8.83 3.47-17.76 4.99-26.68.5-2.94 1.43-6.37 4.36-6.09 2.48.24 5.62 2.73 6.78 5.06 1.27 2.54 1.12 6.11.7 9.11-3.16 22.46-6.7 44.86-9.79 67.32-1.96 14.26 1.11 28.28 2.94 42.34 1.4 10.74 4.61 20.89 8.83 30.8 2.48 5.82 3.25 11.81 1.53 18.39z"/><path d="m158.98 171.75c7.53.96 10.17 6.43 9.29 15.43-1.95 20.02-3.78 40.09-4.49 60.17-.53 15.1 4.37 29.55 8.86 43.85 2.37 7.55 5.68 14.8 8.15 22.32 1.3 3.96 1.92 8.18 2.5 12.33.37 2.62-1.04 4.73-3.72 5.13-2.61.39-4.98-.28-6.55-2.93-6.54-11-11.74-22.59-15.41-34.85-8.62-28.76-10.28-57.97-5.75-87.63.84-5.5.72-11.15 1-16.74.3-5.62 2.65-12.29 6.12-17.08z"/><path d="m123.9 117.15c.02 6.82-1.32 13.5-4.7 19.32-2.12 3.65-5.67 6.56-8.88 9.48-3.38 3.08-7.05 5.86-10.72 8.6-5.9 4.41-12.65 5.77-19.93 5.49-3.35-.13-3.09-2.54-3.83-4.51-.72-1.91-.1-3.02 1.65-4.03 5.6-3.25 11.11-6.67 16.65-10.03 14.13-8.57 19.27-21.28 14.83-37.23-2.3-8.25-5.9-15.84-11.82-22.27-4.5-4.89-8.14-10.46-9.14-17.22-.25-1.71.26-3.92 1.22-5.35 1.57-2.32 4.1-1.48 6-.29 2.52 1.58 5.35 3.16 7.05 5.47 10.32 14 17.59 29.47 21.22 46.55.19.87.32 1.77.38 2.65.07 1.13.02 2.25.02 3.37z"/></g><path d="m377.9 391.2c-.2.3-.4.5-.6.8-.7-.6-1.4-1-2.2-1.5.2-.3.4-.5.5-.8.6.4 1.4.8 2.3 1.5zm-1.8 6.1c-.2-.2-.5-.4-.9-.6.4-.6.8-1.2 1.2-1.9s.7-1.3.9-1.9c.3.3.5.5.8.7-.7 1.3-1.4 2.6-2 3.7zm2.2-9c-.3.3-.5.5-.6.8-.6-.6-1.3-1.1-2-1.5.3-.3.5-.5.6-.7.6.5 1.3.9 2 1.4zm.3.2v-.9h2 4.5c-.3 1.3-.6 2.5-1 3.6s-.9 2.1-1.4 3c.4.5 1 1 1.6 1.4s1.2.8 1.9 1.1c-.3.2-.5.4-.8.8-.4-.3-1-.7-1.6-1.2s-1.2-1.1-1.6-1.6c-.5.6-1.1 1.1-1.7 1.6s-1.4.9-2.1 1.4c-.1-.3-.3-.5-.7-.8.6-.2 1.2-.5 1.9-1s1.4-1.1 2-1.8c-.5-.8-.9-1.6-1.2-2.5s-.6-2-.8-3.2c-.4.1-.7.1-1 .1zm2.5 2.7c.3 1 .7 1.7 1 2.2.3-.5.6-1.1 1-2s.6-1.9.9-3h-3.2-.4c.1.9.3 1.8.7 2.8z" fill="#fcfbfa"/><path d="m396.5 388.5v1.5 3.6h1.5v.9c-.4 0-1 0-1.7 0h-7.9c-.5 0-.9 0-1.2 0v-.9h1.3v-3.5c0-.7 0-1.2 0-1.6h2.4c0-.8 0-1.4 0-1.7h1c0 .3-.1.8-.1 1.7h1.5c0-.8 0-1.4 0-1.7h1c0 .3-.1.9-.1 1.7zm-8.2 9.2c-.2-.3-.5-.5-.8-.8.8-.3 1.4-.6 1.9-.9s1-.7 1.4-1.1c.3.3.6.5.9.8-1.6 1-2.8 1.6-3.4 2zm2.6-6.8v-1.6h-1.5v1.6zm0 2.7v-1.9h-1.5v1.9zm2.4-2.7v-1.6h-1.5v1.6zm0 2.7v-1.9h-1.5v1.9zm.2 2 .7-.8c.4.2.9.5 1.6.8s1.3.7 1.8 1c-.3.3-.5.5-.8.8-.4-.3-1.5-1-3.3-1.8zm2-4.7v-1.6h-1.4v1.6zm0 2.7v-1.9h-1.4v1.9z" fill="#fcfbfa"/></svg>