<svg enable-background="new 0 0 400 400" viewBox="0 0 400 400" xmlns="http://www.w3.org/2000/svg"><path d="m236.19 139.61c-6.31 12.75-12.6 24.97-18.47 37.4-14.92 31.61-34.88 59.84-57.24 86.52-10.21 12.18-20.2 24.54-30.34 36.77-4.67 5.63-9.69 10.93-16.62 13.8-1.64.68-4.91 1.3-5.18.78-1.11-2.13-2.33-5.02-1.69-7.06 1.09-3.49 2.95-7.13 5.5-9.72 21.32-21.66 41.49-44.27 58.4-69.6 4.09-6.12 7.67-12.58 11.61-19.08-7.86-6.71-15.58-12.99-22.93-19.69-6.51-5.94-12.8-12.16-18.8-18.62-3.02-3.26-5.05-7.37-5.22-12.51 5.06.02 9.65-.85 14.18 3.35 12.46 11.57 25.5 22.53 38.31 33.73.5.44 1.03.84 1.74 1.42.49-.72.96-1.28 1.29-1.92 10.6-20.19 21.15-40.41 31.81-60.56 1.09-2.06 1.04-3.2-.85-4.73-4.52-3.66-8.9-7.51-13.21-11.42-11.4-10.31-16.11-23.53-15.59-38.52.61-17.69 6.53-33.91 15.26-49.15 1.04-1.82 2.4-3.7 4.1-4.81 1.21-.79 3.32-.69 4.87-.33 2.22.51 4.23 1.77 4.32 4.47.05 1.32-.04 2.72-.46 3.96-3.21 9.52-6.01 19.22-9.91 28.46-7.25 17.18-4.56 32.52 7.15 46.57 6.46 7.76 14.34 13.8 23.49 18.09 13.23 6.2 25.79 13.35 36.62 23.35 8.3 7.66 12.15 16.99 10.17 27.99-1.25 6.95-3.31 13.98-6.33 20.34-20.46 43.03-48.1 81.65-74.96 120.73-11.09 16.13-22.15 32.29-33.54 48.21-1.94 2.72-5.25 4.71-8.31 6.3-1.55.81-4.53.72-5.84-.29-2.32-1.78-2.76-4.95-1.54-7.7 1.76-3.97 3.52-8.06 6.03-11.57 31.09-43.4 60.23-88.12 89.37-132.82 6.52-10 12.04-20.67 17.61-31.25 5.09-9.66 4.21-19.44-.94-28.89-.67-1.24-1.72-2.33-2.78-3.29-9.03-8.17-19.41-14.15-31.08-18.71z" fill="#010103"/><g fill="#fcfbfa"><path d="m385.2 377.6.6-.7c.6.4 1.3.9 1.9 1.5l-.6.7c-.8-.5-1.4-1-1.9-1.5zm.3 7.1c.6-1.4 1.1-2.9 1.5-4.5.3.1.6.3.9.4-.5 1.4-1 2.9-1.5 4.4zm.2-10.1.6-.6c.7.5 1.3 1.1 1.9 1.6l-.7.7c-.6-.6-1.2-1.2-1.8-1.7zm8.4-.8h.8v.9h1.8v.7h-1.8v1.8h-.8v-.3h-1.2v.9h3.3v2.6h-.8v-.4h-2.5c0 .3 0 .6-.1.8h3.4v.7h-3.5c0 .3-.1.6-.1.8h4v.7h-3.5c.7.9 1.9 1.3 3.6 1.5-.2.2-.4.5-.6.9-1.9-.3-3.2-1.1-3.8-2.3-.5 1.1-1.8 2-3.9 2.4-.2-.3-.4-.5-.6-.8 1.9-.4 3.1-.9 3.6-1.7h-3.2v-.7h3.5c.1-.2.1-.5.2-.8h-3.3v-.7h3.4c0-.2 0-.5 0-.8h-2.4v.3h-.8v-2.6h3.3v-.9h-1.2v.3h-.8v-1.8h-1.8v-.7h1.8v-.9h.8v.9h3.2zm-4.4 5.5h2.4c0-.3 0-.6 0-.9h-2.4zm1.2-3.1h3.2v-.8h-3.2zm4.4 2.2h-2.4v.9h2.5v-.9z"/><path d="m389.2 385.8h.9v1.5h1.9v-1.5h.9v1.5h2.7v6h1.1v.9h-11.3v-.9h1.1v-6h2.7zm.2 8.7.5.8c-1.2.6-2.5 1.3-4 1.9-.2-.3-.3-.6-.6-.8 1.6-.6 3-1.3 4.1-1.9zm-2-4.3h1.9v-2.1h-1.9zm0 3.1h1.9v-2.2h-1.9zm2.7-3.1h1.9v-2.1h-1.9zm0 3.1h1.9v-2.2h-1.9zm2.4 1.3c1.4.6 2.7 1.2 4.1 1.8l-.5.9c-1.5-.7-2.8-1.4-4.1-1.9zm2.2-6.5h-1.9v2.1h1.9zm-1.9 5.2h1.9v-2.2h-1.9z"/></g></svg>