<svg enable-background="new 0 0 400 400" viewBox="0 0 400 400" xmlns="http://www.w3.org/2000/svg"><g fill="#010103"><path d="m107.36 40.93c-8.03-.37-15.62-.66-23.19-1.09-1.87-.11-3.8-.43-5.55-1.07-4-1.47-5.8-6.18-3.96-10.02.25-.53.83-1.14 1.37-1.27 3.78-.93 7.57-2.41 11.38-2.47 17.23-.26 34.47-.23 51.7-.03 4.08.05 8.16 1.07 12.2 1.87 2.91.57 4.26 2.56 4.28 5.57.02 2.9-1.57 4.32-4.16 4.71-7.61 1.16-15.23 2.23-22.85 3.31-1.86.26-3.73.43-5.85.66v3.22c0 15 .07 29.99-.06 44.98-.02 2.63.78 3.6 3.34 3.62 6.14.05 12.28.23 18.42.36 2.57.05 5.21-.26 7.68.27 2.2.47 4.56 1.47 6.2 2.95 4.18 3.78 3.4 7.05-1.76 8.91-6.46 2.32-13.16 2.21-19.89 2.02-4.23-.12-8.46-.02-13.07-.02-.08 1.62-.18 2.8-.18 3.98-.09 33.35-.17 66.69-.26 100.04-.13 49.12-.25 98.24-.47 147.37-.02 3.55-.53 7.14-1.24 10.62-.81 3.92-3.36 5.85-7.24 5.38-1.4-.17-3.16-1.55-3.84-2.85-3.21-6.22-3.74-13.08-3.7-19.92.06-10.96.64-21.92.65-32.88.07-68.6 0-137.19.13-205.79.01-3.79-1.52-5.09-4.77-5.81-6.45-1.43-12.67.12-18.94 1.17-7.46 1.26-12.63-1.17-15.12-6.87-1.19-2.72-.88-4.28 1.99-5.79 6.61-3.5 13.31-2.68 20.27-1.73 4.12.56 8.41.03 12.6-.29.81-.06 2.15-1.45 2.18-2.26.66-16.77 1.16-33.53 1.71-50.85z"/><path d="m165.43 95.76c12.37-.83 24.73-1.67 37.47-2.53.35-17.25.7-34.52 1.07-52.78-6.49 0-12.71.07-18.92-.03-2.9-.04-5.84-.14-8.67-.67-5.25-.99-7.79-5.54-6.16-10.63.2-.63.76-1.46 1.31-1.62 3.43-.96 6.91-2.45 10.38-2.49 18.24-.2 36.49-.08 54.73.08 2.99.03 6.03.57 8.93 1.33 1.61.42 3.33 1.5 4.39 2.79 2.56 3.13 1.8 5.55-1.86 7.18-6.28 2.81-13 3.11-19.71 3.25-9.4.2-9.41.12-9.55 9.46-.2 13.54-.34 27.08-.6 40.62-.04 2.1.52 3.12 2.74 3.15 6.37.08 12.73.27 19.09.41 2.57.06 5.17-.11 7.69.24 5.43.73 8.36 3.94 9.16 9.69-7.66 4.47-16.12 4.51-24.64 4.26-3.24-.09-6.49.15-9.72-.02-2.94-.15-3.73.97-3.72 3.89.08 17.12-.08 34.25-.13 51.37-.17 63.13-.31 126.25-.49 189.38-.01 5.25-.01 10.51-.38 15.74-.37 5.14-2.61 7.01-7 7.28-2.79.18-4.01-1.05-4.83-3.46-3.09-9.07-3.36-18.44-3.16-27.86.33-14.99 1-29.98 1.03-44.97.12-61.9.03-123.8.12-185.69 0-3.05-.88-4.85-3.87-4.88-6.79-.05-13.57.13-20.36.27-1.56.03-3.11.39-4.67.42-8.82.2-11.97-3.76-9.67-13.18z"/><path d="m286.86 172.92c-3.35 7.89-6.37 15.35-9.68 22.67-2.06 4.56-4.33 9.07-6.93 13.35-7.94 13.1-16.05 26.1-24.19 39.07-1.9 3.02-4.04 5.92-6.35 8.64-1.26 1.49-2.95 2.81-4.71 3.65-3.15 1.5-7.01 1.38-9.05-1.09-1.34-1.63-1.21-5.55-.24-7.79 1.88-4.35 4.26-8.75 7.44-12.21 10.59-11.56 17.72-25.18 24.63-39 4.39-8.79 9.06-17.44 13.53-26.18 1.17-2.28 2.27-4.62 3.07-7.04 1.05-3.15.49-5.99-1.73-8.74-5.99-7.41-8.2-16.08-5.92-25.22 2.2-8.84 5.53-17.41 8.43-26.07.34-1.03 1.04-1.98 1.71-2.86 6.84-8.99 13.74-17.94 20.58-26.92 5.2-6.84 11.21-12.77 18.74-17.04 4.06-2.3 7.59-2.03 9.62.72 1.92 2.61 1.34 8.37-1.19 10.95-4.62 4.71-9.49 9.2-13.91 14.1-8.53 9.47-17.5 18.63-23.64 29.96-5.68 10.49-6.42 21.48-2.45 32.72.42 1.19 1.31 2.34 2.25 3.22 4.17 3.9 8.28 7.88 12.69 11.49 11.58 9.51 16.53 22.14 17.92 36.61 1.87 19.58-3.19 37.71-11.58 55.09-10.98 22.78-22.75 45.13-36.97 66.1-4.39 6.48-9 12.82-13.65 19.12-3.23 4.38-7.49 6.81-13.07 5.25-1.12-.31-2.67-2.01-2.61-2.99.14-2.46.57-5.18 1.8-7.25 5.13-8.64 10.26-17.33 16.01-25.56 16.44-23.49 29.51-48.75 40.01-75.35 6.49-16.45 6.08-33.23.68-49.96-.26-.82-.64-1.73-1.24-2.3-3.13-2.98-6.38-5.86-10-9.14z"/></g><path d="m385.2 377.6.6-.7c.6.4 1.3.9 1.9 1.5l-.6.7c-.8-.5-1.4-1-1.9-1.5zm.3 7.1c.6-1.4 1.1-2.9 1.5-4.5.3.1.6.3.9.4-.5 1.4-1 2.9-1.5 4.4zm.2-10.1.6-.6c.7.5 1.3 1.1 1.9 1.6l-.7.7c-.6-.6-1.2-1.2-1.8-1.7zm8.4-.8h.8v.9h1.8v.7h-1.8v1.8h-.8v-.3h-1.2v.9h3.3v2.6h-.8v-.4h-2.5c0 .3 0 .6-.1.8h3.4v.7h-3.5c0 .3-.1.6-.1.8h4v.7h-3.5c.7.9 1.9 1.3 3.6 1.5-.2.2-.4.5-.6.9-1.9-.3-3.2-1.1-3.8-2.3-.5 1.1-1.8 2-3.9 2.4-.2-.3-.4-.5-.6-.8 1.9-.4 3.1-.9 3.6-1.7h-3.2v-.7h3.5c.1-.2.1-.5.2-.8h-3.3v-.7h3.4c0-.2 0-.5 0-.8h-2.4v.3h-.8v-2.6h3.3v-.9h-1.2v.3h-.8v-1.8h-1.8v-.7h1.8v-.9h.8v.9h3.2zm-4.4 5.5h2.4c0-.3 0-.6 0-.9h-2.4zm1.2-3.1h3.2v-.8h-3.2zm4.4 2.2h-2.4v.9h2.5v-.9z" fill="#fcfbfa"/><path d="m389.2 385.8h.9v1.5h1.9v-1.5h.9v1.5h2.7v6h1.1v.9h-11.3v-.9h1.1v-6h2.7zm.2 8.7.5.8c-1.2.6-2.5 1.3-4 1.9-.2-.3-.3-.6-.6-.8 1.6-.6 3-1.3 4.1-1.9zm-2-4.3h1.9v-2.1h-1.9zm0 3.1h1.9v-2.2h-1.9zm2.7-3.1h1.9v-2.1h-1.9zm0 3.1h1.9v-2.2h-1.9zm2.4 1.3c1.4.6 2.7 1.2 4.1 1.8l-.5.9c-1.5-.7-2.8-1.4-4.1-1.9zm2.2-6.5h-1.9v2.1h1.9zm-1.9 5.2h1.9v-2.2h-1.9z" fill="#fcfbfa"/></svg>