<svg enable-background="new 0 0 400 400" viewBox="0 0 400 400" xmlns="http://www.w3.org/2000/svg"><g fill="#010103"><path d="m206.21 374.93c-3.29 0-5.97.13-8.62-.07-.93-.07-2.13-.74-2.65-1.52-17.55-25.81-35.25-51.55-48.79-79.79-8.75-18.25-14.62-37.55-17.65-57.52-2.23-14.69-3.31-29.58-4.38-44.42-.76-10.48-.71-21.01-.93-31.53-.12-5.9-3.01-8.05-8.65-6.59-4.98 1.29-8.31 4.41-11.13 8.52-8.21 11.94-11.79 25.29-11.89 39.57-.12 16.67.24 33.35.28 50.02.01 5.25-.26 10.51-.6 15.75-.09 1.39-.49 3.27-1.45 3.97-1.84 1.34-4.13 2.49-6.34 2.72-1.1.11-2.86-1.76-3.58-3.12-3.38-6.41-3.5-13.48-2.62-20.35 2.27-17.85 2.15-35.73 1.68-53.64-.34-12.9 1.86-25.54 8.78-36.36 5.91-9.24 14.44-16.49 24.82-20.88 4.43-1.88 17.44 2.04 20.56 5.73 2 2.36 3.19 4.94 3.14 8.21-.3 18.5 1.85 36.85 3.6 55.22 1.19 12.58 1.61 25.25 5.06 37.51.91 3.22 1.9 6.42 3.11 10.49 1-2.14 1.76-3.56 2.33-5.05 4.65-12.12 5.48-24.88 5.82-37.63.37-13.87.22-27.76.24-41.63.01-7.75.45-15.43 3.18-22.8 2.94-7.93 7.59-11.03 15.99-9.93 4.61.6 9.13 2.01 13.63 3.28 1.18.33 2.28 1.36 3.15 2.3 12.61 13.68 20.57 29.58 21.66 48.31.94 16.18 1.38 32.4 1.54 48.61.09 8.68-.55 17.4-1.48 26.03-.54 5.07-3.03 6.42-8.03 5.58-.74-.12-1.71-1.15-1.89-1.92-.91-3.89-2.09-7.81-2.26-11.76-1.03-23.93-1.67-47.87-2.73-71.8-.41-9.32-3.55-18.01-8.6-25.83-4.21-6.52-10.71-9.15-18.64-9.53-.25 5.12-.54 10.1-.72 15.08-.73 20.81-1.35 41.62-2.19 62.42-.2 4.9-.97 9.79-1.66 14.66-1.39 9.79-6.08 17.9-13.12 24.69-1.7 1.64-1.7 3.11-.93 5.29 6.24 17.74 16.65 33.37 24.97 50.05 3.56 7.13 7.83 13.66 13.26 19.6 6.13 6.7 11.22 14.26 13.53 23.28.54 2.05.75 4.16 1.2 6.78z"/><path d="m286.1 171.46c-2.99 8.88-5.83 17.8-8.98 26.61-7.38 20.63-14.29 41.47-25.51 60.46-3.92 6.64-8.3 13.01-12.54 19.46-6.14 9.34-12.36 18.63-18.5 27.96-3.28 4.99-7.17 9.05-13.75 8.51-1.21-.1-2.99-1.26-3.34-2.31-.67-2.03-1.24-4.62-.53-6.47 1.49-3.93 3.12-8.19 5.92-11.17 25.82-27.53 42.1-60.39 53.94-95.71 4.37-13.02 7.83-26.35 11.58-39.57.31-1.11.13-2.81-.54-3.67-7.85-9.96-9.97-22.22-12.79-33.93-2.17-9.01 1.25-17.93 5.98-25.92 8.01-13.52 19.6-23.75 31.5-33.65 3.18-2.64 6.61-4.98 9.98-7.39 3.01-2.16 7.34-1.83 9.39.63 1.78 2.13.86 5.82-1.93 8.65-10.05 10.2-20.06 20.45-30.06 30.7-12.86 13.18-13.3 28.12-5.86 43.94 1.68 3.57 4.02 6.97 6.65 9.92 8.67 9.74 16.08 20.31 22.7 31.54 8.39 14.23 10.76 29.05 8.02 45.45-5.17 30.9-15.3 59.65-32.68 85.84-10.14 15.29-19.63 31.01-29.63 46.39-1.69 2.6-4.22 4.97-6.89 6.53-1.78 1.04-5.03 1.35-6.69.39-2.39-1.39-2.81-4.6-1.51-7.26 1.91-3.91 4.01-7.75 6.29-11.45 11.44-18.57 23.37-36.86 34.35-55.7 10.76-18.46 18.3-38.39 22.32-59.4 4.1-21.45-1.16-40.83-14.99-57.81-.35-.43-.71-.86-1.11-1.26-.15-.14-.41-.16-.79-.31z"/><path d="m143.3 24.88c6.15 1.45 9.33 5.18 9.55 10.3.29 6.87-.68 13.78-.87 20.67-.13 4.67.02 9.37.3 14.03.16 2.77 1.69 4.53 4.56 5.47 9.89 3.24 18 9.52 25.48 16.4 9.55 8.78 18.68 18.02 27.7 27.34 2.16 2.23 3.58 5.39 4.68 8.37 1.56 4.22-2.38 8.46-6.85 7.39-2.04-.49-4.16-1.73-5.65-3.22-10.58-10.62-20.89-21.51-31.53-32.06-6.97-6.91-15.23-11.46-25.47-10.74-8.19.58-15.45 3.02-21.62 9.15-9.75 9.68-19.97 18.93-30.39 27.9-3.26 2.81-7.77 4.22-11.79 6.09-2.44 1.14-3.75-.29-4.44-2.54-1.06-3.42-.33-6.55 2.17-8.94 13.45-12.81 26.85-25.7 40.65-38.13 3.09-2.78 7.56-4.4 11.67-5.6 5.95-1.73 7.61-5.02 7.35-11.1-.41-9.58.04-19.24.8-28.81.31-3.96 2.36-7.8 3.7-11.97z"/></g><path d="m385.2 377.6.6-.7c.6.4 1.3.9 1.9 1.5l-.6.7c-.8-.5-1.4-1-1.9-1.5zm.3 7.1c.6-1.4 1.1-2.9 1.5-4.5.3.1.6.3.9.4-.5 1.4-1 2.9-1.5 4.4zm.2-10.1.6-.6c.7.5 1.3 1.1 1.9 1.6l-.7.7c-.6-.6-1.2-1.2-1.8-1.7zm8.4-.8h.8v.9h1.8v.7h-1.8v1.8h-.8v-.3h-1.2v.9h3.3v2.6h-.8v-.4h-2.5c0 .3 0 .6-.1.8h3.4v.7h-3.5c0 .3-.1.6-.1.8h4v.7h-3.5c.7.9 1.9 1.3 3.6 1.5-.2.2-.4.5-.6.9-1.9-.3-3.2-1.1-3.8-2.3-.5 1.1-1.8 2-3.9 2.4-.2-.3-.4-.5-.6-.8 1.9-.4 3.1-.9 3.6-1.7h-3.2v-.7h3.5c.1-.2.1-.5.2-.8h-3.3v-.7h3.4c0-.2 0-.5 0-.8h-2.4v.3h-.8v-2.6h3.3v-.9h-1.2v.3h-.8v-1.8h-1.8v-.7h1.8v-.9h.8v.9h3.2zm-4.4 5.5h2.4c0-.3 0-.6 0-.9h-2.4zm1.2-3.1h3.2v-.8h-3.2zm4.4 2.2h-2.4v.9h2.5v-.9z" fill="#fcfbfa"/><path d="m389.2 385.8h.9v1.5h1.9v-1.5h.9v1.5h2.7v6h1.1v.9h-11.3v-.9h1.1v-6h2.7zm.2 8.7.5.8c-1.2.6-2.5 1.3-4 1.9-.2-.3-.3-.6-.6-.8 1.6-.6 3-1.3 4.1-1.9zm-2-4.3h1.9v-2.1h-1.9zm0 3.1h1.9v-2.2h-1.9zm2.7-3.1h1.9v-2.1h-1.9zm0 3.1h1.9v-2.2h-1.9zm2.4 1.3c1.4.6 2.7 1.2 4.1 1.8l-.5.9c-1.5-.7-2.8-1.4-4.1-1.9zm2.2-6.5h-1.9v2.1h1.9zm-1.9 5.2h1.9v-2.2h-1.9z" fill="#fcfbfa"/></svg>