<svg enable-background="new 0 0 400 400" viewBox="0 0 400 400" xmlns="http://www.w3.org/2000/svg"><g fill="#010103"><path d="m157.51 148.76c-5.52 0-9.35 1.84-11.96 6.7-5.26 9.79-7.57 20.46-8.42 31.21-2.14 27.11-3.53 54.28-5.04 81.43-.5 9.04-.17 18.12-.73 27.15-.34 5.5-3.79 8.71-8.15 8.46-1.04-.06-2.49-.97-2.94-1.89-3.08-6.29-3.61-13.1-3.41-19.97.57-19.69 1.06-39.38 1.82-59.06.95-24.61 5.29-48.65 12.8-72.11.45-1.4 1.63-2.59 2.56-3.82.6-.8 1.45-1.42 2.04-2.23 4.33-5.93 10.05-9.74 17.27-11.14 3.31-.64 4.73-2.76 4.89-5.82.22-4.35.47-8.71.28-13.05-.37-8.66-.23-17.21 3.4-25.28 6.92.26 11.26 4.92 10.96 12.51-.22 5.56-1.71 11.08-1.91 16.64-.5 13.78-.03 15.24 13.3 19.56 7.21 2.34 11.28 7.45 14.14 13.81 8.35 18.55 12.03 38.18 12.11 58.39.12 29.76-.31 59.53-.47 89.3-.01 1.72-.46 2.51-2.33 2.9-7.28 1.52-7.49 1.5-9.31-5.88-.43-1.72-.58-3.53-.65-5.31-.67-16.54-1.09-33.1-1.99-49.63-1.09-20-2.34-40-3.98-59.97-.79-9.61-2.93-19.06-9.06-26.97-2.56-3.3-5.86-5.71-10.37-7.06 0 10.81.03 21.31-.01 31.81-.18 46.12-.43 92.24-.53 138.36-.03 12.19.62 24.39.51 36.57-.03 3.56-1.44 7.16-2.61 10.61-.45 1.33-1.85 2.54-3.11 3.35-3.54 2.28-5.5 1.61-7.17-2.17-3.17-7.18-3.24-14.76-2.95-22.4.38-9.95.96-19.91.98-29.86.1-53.63.05-107.26.05-160.88-.01-1.42-.01-2.84-.01-4.26z"/><path d="m269.4 141.15c-3.93 26.58-7.79 52.68-11.66 78.78-3.03 20.47-6.13 40.92-9.07 61.4-1.59 11.06-2.77 22.19-4.42 33.24-.44 2.91-1.63 5.83-3.07 8.42-1.03 1.85-2.78 3.89-4.66 4.57-7.2 2.61-9.49 1.83-9.45-5.16.03-5.5 1.5-11 2.4-16.49 2.67-16.21 5.57-32.38 8.04-48.62 3-19.79 5.8-39.62 8.39-59.46 2.15-16.41 3.87-32.88 5.78-49.33.43-3.67.77-7.35 1.32-10.99.38-2.46-.34-3.91-2.43-5.54-4.28-3.33-8.66-6.83-11.95-11.07-6.06-7.8-6.22-22.39-.1-30.09 3.77-4.74 8.86-8.52 13.69-12.31 13.2-10.35 27.23-19.25 43.9-23 6.98-1.57 13.99-3.11 21.24-1.79 2.35.43 4.25 1.07 4.98 3.72.78 2.84-.27 4.57-2.56 6.19-7.15 5.05-15.25 7.77-23.48 10.44-9.86 3.2-19.65 6.71-29.21 10.71-6.97 2.92-11.8 8.73-16.13 14.79-3.14 4.4-2.27 13.8 2.88 17.55 7.82 5.7 15.84 10.8 24.7 14.72 5.08 2.25 10.08 4.9 14.62 8.07 11.72 8.17 17.82 19.78 19.19 33.89 1.23 12.67-.11 25.24-1.65 37.81-.81 6.65-.74 13.42-1.58 20.06-1.5 11.86-3.18 23.7-5.16 35.49-5.62 33.52-11.49 67.01-17.08 100.53-.48 2.86-1.53 4.14-4.24 4.43-1.21.13-2.4.48-3.89.79-3.16-6.2-3.53-12.88-2.57-19.5 3.71-25.67 7.83-51.28 11.52-76.95 2.77-19.26 5.24-38.57 7.59-57.89 1.21-9.97 2.45-19.99 2.62-30.01.2-11.4-1.71-22.54-9.2-31.91-5.18-6.5-11.58-11.41-19.3-15.49z"/><path d="m85.2 254.06c.4-33.24.44-66.49 1.35-99.72.48-17.63 2.16-35.26 3.98-52.82.59-5.64 3.31-11.08 5.21-16.56.37-1.07 1.34-2.03 2.24-2.81 8.42-7.24 18.32-10.87 29.24-12.26 16.63-2.1 33.27-1.62 49.92-.65 1.45.08 2.92.04 4.36-.15 7.13-.96 8.17-2.18 8.17-9.28 0-4.03-.13-8.07.05-12.09.1-2.12-.66-3.66-2.5-4.21-3.26-.99-6.63-2.15-9.98-2.26-21.7-.7-43.4-1.2-65.1-1.64-8.83-.18-17.66.01-26.49-.06-2.34-.02-4.71-.2-7.01-.6-2.92-.51-5.22-2.03-6.06-5.09-.73-2.63-.29-4.2 2.63-5.74 7.82-4.12 16.08-3.21 24.29-3.07 21.14.36 42.29.77 63.43 1.36 8.04.23 16.09.79 24.09 1.62 8.97.93 14.63 6.04 16.97 14.84 2.75 10.35 1.13 20.42-2.4 30.28-.35.98-1.52 1.86-2.52 2.4-12.53 6.72-25.95 8.74-39.98 7.44-12.68-1.18-25.21-.78-37.65 2.34-9.08 2.28-13.95 8.11-16.2 16.85-3.96 15.36-3.13 31.11-3.98 46.72-3.39 62.42-1.95 124.9-2.17 187.35-.03 8.39.56 16.77.69 25.16.04 2.2-.29 4.48-.88 6.61-1.08 3.96-3.88 6.11-7.94 6.7-1.94.28-3.38-.18-3.75-2.26-1.21-6.68-3.25-13.37-3.33-20.07-.22-17.56.53-35.13.7-52.7.15-15.22.03-30.44.03-45.66.2.03.4.03.59.03z"/></g><path d="m385.2 377.6.6-.7c.6.4 1.3.9 1.9 1.5l-.6.7c-.8-.5-1.4-1-1.9-1.5zm.3 7.1c.6-1.4 1.1-2.9 1.5-4.5.3.1.6.3.9.4-.5 1.4-1 2.9-1.5 4.4zm.2-10.1.6-.6c.7.5 1.3 1.1 1.9 1.6l-.7.7c-.6-.6-1.2-1.2-1.8-1.7zm8.4-.8h.8v.9h1.8v.7h-1.8v1.8h-.8v-.3h-1.2v.9h3.3v2.6h-.8v-.4h-2.5c0 .3 0 .6-.1.8h3.4v.7h-3.5c0 .3-.1.6-.1.8h4v.7h-3.5c.7.9 1.9 1.3 3.6 1.5-.2.2-.4.5-.6.9-1.9-.3-3.2-1.1-3.8-2.3-.5 1.1-1.8 2-3.9 2.4-.2-.3-.4-.5-.6-.8 1.9-.4 3.1-.9 3.6-1.7h-3.2v-.7h3.5c.1-.2.1-.5.2-.8h-3.3v-.7h3.4c0-.2 0-.5 0-.8h-2.4v.3h-.8v-2.6h3.3v-.9h-1.2v.3h-.8v-1.8h-1.8v-.7h1.8v-.9h.8v.9h3.2zm-4.4 5.5h2.4c0-.3 0-.6 0-.9h-2.4zm1.2-3.1h3.2v-.8h-3.2zm4.4 2.2h-2.4v.9h2.5v-.9z" fill="#fcfbfa"/><path d="m389.2 385.8h.9v1.5h1.9v-1.5h.9v1.5h2.7v6h1.1v.9h-11.3v-.9h1.1v-6h2.7zm.2 8.7.5.8c-1.2.6-2.5 1.3-4 1.9-.2-.3-.3-.6-.6-.8 1.6-.6 3-1.3 4.1-1.9zm-2-4.3h1.9v-2.1h-1.9zm0 3.1h1.9v-2.2h-1.9zm2.7-3.1h1.9v-2.1h-1.9zm0 3.1h1.9v-2.2h-1.9zm2.4 1.3c1.4.6 2.7 1.2 4.1 1.8l-.5.9c-1.5-.7-2.8-1.4-4.1-1.9zm2.2-6.5h-1.9v2.1h1.9zm-1.9 5.2h1.9v-2.2h-1.9z" fill="#fcfbfa"/></svg>