<svg enable-background="new 0 0 400 400" viewBox="0 0 400 400" xmlns="http://www.w3.org/2000/svg"><path d="m361.2 9.6.8-1c.9.7 1.9 1.4 2.9 2.3l-.9 1.1c-1-1-2-1.8-2.8-2.4zm.5 10.6c.9-2.1 1.6-4.3 2.3-6.7.4.2.8.4 1.3.6-.7 2.1-1.5 4.3-2.2 6.6zm.4-15.2.9-.9c1 .8 2 1.6 2.8 2.4l-1 1c-.9-.9-1.8-1.7-2.7-2.5zm12.5-1.2h1.2v1.4h2.7v1.1h-2.7v2.7h-1.2v-.6h-1.8v1.3h4.9v3.8h-1.2v-.5h-3.7c0 .4-.1.9-.1 1.2h5.1v1h-5.2c0 .5-.1.9-.2 1.2h6v1h-5.2c1.1 1.3 2.9 2 5.5 2.2-.4.4-.7.8-.9 1.3-2.9-.5-4.8-1.6-5.7-3.5h-.1c-.8 1.7-2.7 2.9-5.9 3.6-.2-.4-.6-.8-.9-1.1 2.8-.6 4.6-1.4 5.4-2.5h-4.8v-1h5.3c.1-.3.2-.7.2-1.2h-4.9v-1h5c0-.4 0-.8.1-1.2h-3.5v.5h-1.2v-3.8h4.9v-1.3h-1.8v.5h-1.2v-2.7h-2.7v-1h2.6v-1.4h1.2v1.4h4.7v-1.4zm-6.6 8.3h3.6c0-.4 0-.9 0-1.4h-3.6zm1.9-4.6h4.7v-1.3h-4.7zm6.6 3.2h-3.7v1.4h3.7z" fill="#fbfcfa"/><path d="m385.3 3.8h1.3v2.2h2.8v-2.2h1.3v2.2h4.1v9.1h1.7v1.3h-16.9v-1.3h1.7v-9.1h4.1v-2.2zm.4 13.1.7 1.2c-1.8.9-3.8 1.9-6 2.9-.2-.4-.5-.8-.8-1.3 2.3-1 4.3-1.9 6.1-2.8zm-3.1-6.4h2.8v-3.2h-2.8zm0 4.6h2.8v-3.3h-2.8zm4-4.6h2.8v-3.2h-2.8zm0 4.6h2.8v-3.3h-2.8zm3.7 1.9c2.1.9 4.1 1.8 6.1 2.7l-.7 1.3c-2.2-1.1-4.2-2-6.1-2.9zm3.2-9.7h-2.8v3.2h2.8zm-2.8 7.8h2.8v-3.3h-2.8z" fill="#fbfcfa"/><g fill="#010102"><path d="m305.4 330.87c-9.09 1.29-11.46-.32-11.21-9.31.22-7.78 1.31-15.6 2.78-23.25 4.41-22.96 6.2-46.1 6.01-69.44-.1-11.53-.02-23.06-.02-34.59 0-1.2 0-2.4 0-4.12-7.6 0-14.81 0-22.35 0-.88 8.98-1.79 18.19-2.68 27.41-2.38 24.61-4.83 49.22-7.11 73.84-1.78 19.27-3.31 38.57-5.05 57.84-.44 4.89-1.02 9.8-2.06 14.59-1.05 4.79-3.8 8.56-8.71 10.29-1.77.62-3 .44-4-1.57-3.34-6.71-3.05-13.75-1.66-20.69 4.75-23.65 6.15-47.68 8.41-71.61 1.7-17.93 3.46-35.86 4.87-53.82.91-11.49 1.24-23.02 1.82-34.53.03-.64-.08-1.28-.14-2.09-7.96 0-15.75 0-23.88 0-.6 6.05-1.38 12.01-1.75 18-1.09 17.49-5.08 34.49-8.47 51.59-3.5 17.65-7.15 35.27-10.8 52.9-.47 2.28-1.13 4.58-2.06 6.71-.7 1.59-1.73 3.21-3.03 4.32-3.73 3.21-9.12 1.4-9.2-3.39-.09-5.74.26-11.7 1.71-17.23 6.86-26.14 9.99-52.94 14.64-79.47 1.76-10.02 3.8-20.05 4.54-30.17.72-9.88.24-19.89-.24-29.81-.5-10.35-.36-20.54 2.62-30.58.66-2.2 1.85-2.86 3.81-2.81 2.16.05 5-1.4 5.9 1.96 1.12 4.16 2.59 8.38 2.76 12.61.4 10.15.13 20.33.13 30.79h23.91c.18-4.24.75-8.66.46-13.02-.49-7.47-1.12-14.97-2.45-22.31-.84-4.65-2.81-9.15-4.69-13.54-4.58-10.66-9.63-21.13-14.08-31.84-3.72-8.96-1.66-17.19 4.06-24.87 7.14-9.6 17.44-14.11 28.15-17.82 6.74-2.34 13.8-3.74 20.7-5.64 5.66-1.56 11.14-.42 16.44 1.38 1.26.43 2.52 2.51 2.74 3.98.31 2.13-.68 4.16-3.14 4.91-8.75 2.7-17.47 5.5-26.25 8.1-5.77 1.71-11.84 2.63-17.4 4.84-10.77 4.28-15.11 16.54-9.8 26.81 3.38 6.52 6.98 12.95 10.85 19.2 4.74 7.67 6.47 16.17 7.3 24.88.97 10.22 1.43 20.49 2.11 30.75.06.87.11 1.74.17 2.87 7.25.58 14.34 1.14 21.78 1.74.27-5.95.56-11.61.76-17.28.34-9.51.71-19.01.89-28.53.07-3.71 1.97-6.38 4.36-8.74 2.28-2.24 5.6-1.29 7.13 1.76 3.95 7.85 4.93 16.31 4.23 24.85-1.98 24.36-1.62 48.77-1.59 73.15.03 26.06-2.88 51.79-7.13 77.44-1.57 9.49-2.94 19.01-4.41 28.51-.17 1.31-.43 2.62-.68 4.05z"/><path d="m98.89 132.54c1.16 9.63 1.86 19.34 3.62 28.86 1.81 9.79 8.28 15.45 17.98 18.12 11.66 3.21 23.35 3.68 35.24 2.29 6.09-.71 12.14-.55 17.83 1.9 9.29 4 13.73 11.8 15.59 21.23 1.08 5.51 1.56 11.18-1.26 16.4-.79 1.46-2.15 2.93-3.61 3.68-9.54 4.9-18.96 10.16-28.85 14.26-14.84 6.16-20.21 17.7-22.15 32.71-1.78 13.75 1.89 26.61 3.82 39.8 2.27 15.52 6.2 30.65 10.62 45.67.47 1.6.79 3.27.93 4.93.45 5.58-2.06 8.03-7.55 7.15-1.14-.18-2.48-1.34-3.07-2.42-6.37-11.69-10.09-24.32-12.92-37.24-3.71-16.97-6.07-34.08-6.57-51.5-.29-10.36 2.66-19.77 5.68-29.4 1.76-5.63 4.88-9.43 9.49-13.04 11.22-8.8 23.37-15.63 36.83-20.17 2.35-.79 3.35-2.01 3.25-4.58-.13-3.12.06-6.28.42-9.38.27-2.29-.57-3.35-2.71-3.64-7.96-1.09-15.9-2.42-23.9-3.2-10.02-.98-20.08-1.47-30.12-2.22-9.67-.72-16.25-6.27-21.32-13.98-5.39-8.2-7.84-17.49-9.45-27.02-2.18-12.89-3.15-25.78 1-38.52.14-.42.18-.91.42-1.27 1.03-1.55 2-4.23 3.21-4.35 3.12-.32 6.05 1.33 7.06 4.54.89 2.83 1.23 5.89 1.41 8.88.23 3.79.06 7.61.06 11.41-.33.03-.65.06-.98.1z"/><path d="m139.36 24.94c6.96 1.31 9.83 4.39 9.8 10.4-.01 3.67-.68 7.34-1.03 11-.17 1.78-.39 3.56-.44 5.35-.25 8.39.92 9.8 9.04 11.53 14.21 3.03 27.44 8.7 40.22 15.43 2.51 1.32 4.75 3.37 6.74 5.43 2.67 2.75 3.14 5.82 2.02 9.32-7.09.84-13.69-1.3-20.18-3.73-9.72-3.64-19.39-7.45-29.06-11.23-14.41-5.63-28.2-3.31-41.31 3.79-9.8 5.31-19.71 10.07-30.85 11.63-2.33.33-5.06 1.76-6.93-1.33-1.6-2.65-.12-8.32 3.01-9.81 12.21-5.81 24.36-11.75 36.77-17.08 3.99-1.72 8.71-1.84 13.13-2.43 2.48-.33 3.88-1.29 4.08-3.88.55-7.13.92-14.29 1.85-21.37.57-4.35 2.04-8.59 3.14-13.02z"/><path d="m153.24 163.02c-9.51-.14-18.96-2.21-26.14-8.08-8.97-7.34-12.23-17.54-9.66-29.57 2.42-11.36 10.8-16.5 20.04-20.13 15.99-6.27 30.7-2.56 43.63 8.38 4.66 3.94 7.23 9.3 7.21 15.32-.03 9.48-1.96 18.31-10.24 24.63-7.4 5.66-15.3 9.58-24.84 9.45zm-1.69-13.88c6.78-.14 12.6-2.17 17.93-5.73 6.79-4.53 7.62-13.3 1.7-18.93-1.45-1.38-3.08-2.62-4.81-3.63-10.42-6.09-18.59-6.57-27.62-.61-1.77 1.17-3.41 2.53-5.02 3.92-5.22 4.5-4.66 15.55 1.18 19.41 5.09 3.37 10.75 5.41 16.64 5.57z"/></g></svg>