<svg enable-background="new 0 0 400 400" viewBox="0 0 400 400" xmlns="http://www.w3.org/2000/svg"><g fill="#010103"><path d="m271.57 175.56c-2.66 9.55-5.19 18.55-7.69 27.56-8.21 29.62-16.4 59.24-24.62 88.85-2.09 7.53-4.09 15.09-6.42 22.56-.85 2.72-2.12 5.52-3.92 7.68-1.35 1.63-3.75 2.91-5.87 3.28-3.69.66-5.24-.95-5.69-4.67-.76-6.3.77-12.2 3-18.01 10.28-26.73 19.14-53.92 25.58-81.85 3.74-16.22 7.3-32.49 11.01-48.72.43-1.87.1-3.08-1.47-4.31-3.87-3.04-7.57-6.29-11.35-9.46-5.56-4.66-8.3-10.55-7.17-17.79.71-4.51 1.97-8.93 3.11-13.36.23-.9.89-1.8 1.58-2.44 17.12-15.72 36.87-26.35 59.85-30.48 4.79-.86 9.77-.78 14.67-.93 1.4-.04 3.27.18 4.12 1.06 1.5 1.56 2.79 3.61 3.34 5.68.22.83-1.55 2.65-2.79 3.32-12.89 7.04-26.97 10.61-41.09 14.14-5.27 1.32-10.62 2.93-15.44 5.37-9.74 4.92-13.55 13.77-11.22 24.44.23 1.06 1.08 2.16 1.95 2.89 7.92 6.71 16.85 11.75 26.43 15.7 8.52 3.51 16.04 8.45 21.79 15.75 9.08 11.53 11.66 24.82 9.41 38.95-5.67 35.56-11.97 71.02-22.57 105.51-4.59 14.94-10.13 29.58-15.42 44.3-.59 1.64-2.05 3.23-3.52 4.22-2.95 1.99-5.66.81-6.66-2.58-1.65-5.57-1.22-11.17.64-16.52 10.69-30.7 16.31-62.7 24.33-94.09 3.07-12.01 5.81-24.12 8.07-36.31 1.52-8.24 1.86-16.65-.1-25.01-1.61-6.89-5.16-12.38-11.09-16.15-4.69-2.97-9.6-5.59-14.78-8.58z"/><path d="m190.08 189.4c-6.7 0-13.51.03-20.31 0-28.76-.14-57.52-.28-86.28-.47-2.21-.02-4.49-.23-6.61-.79-1.43-.38-2.88-1.31-3.95-2.37-3.66-3.63-3.17-6.14 1.41-8.31 7.07-3.35 14.64-2.62 22.11-2.72 22.82-.32 45.65-.65 68.47-.99 18.34-.28 36.71-1.31 54.94 1.66 2.97.48 5.96 1.07 8.79 2.03 1.09.37 2.24 1.82 2.55 2.99 1.21 4.54.68 5.7-3.98 6.82-3.19.77-6.61.6-9.93.78-.65.04-1.32-.23-1.99-.31-7.88-.92-9.32-.1-9.61 7.61-.58 15.64-.82 31.3-.93 46.95-.08 10.55-.73 20.96-3.46 31.24-3.96 14.92-13.45 24.44-27.79 29.31-9.58 3.25-18.74 7.11-26.97 13.2-6.08 4.49-8.51 10.62-8.97 17.56-.33 4.96.46 10.02.96 15.01.69 6.98.34 13.86-1.69 20.59-1.14 3.8-3.4 5.64-6.53 5.75-2.15.08-3.46-.69-4.39-2.77-3.39-7.62-3.8-15.65-3.12-23.71 1-11.72 3.04-23.29 7.39-34.3.65-1.66 1.9-3.28 3.29-4.42 8.12-6.64 17.49-11.12 26.92-15.57 6.54-3.08 12.86-6.71 18.99-10.56 5.6-3.52 8.11-9.2 8.41-15.66.86-18.88 1.6-37.77 2.23-56.66.25-7.02.05-14.07.05-21.89z"/><path d="m151.25 117.43c-9.69 11.41-21.32 19.86-34.54 25.96-4.45 2.05-9.6 2.66-14.5 3.57-1.1.2-3.29-.86-3.58-1.77-.66-2.1-2.1-4.71 1.07-6.44 7.44-4.05 14.97-7.98 22.2-12.39 5.4-3.29 10.67-6.94 15.45-11.06 2.31-1.99 3.86-5.24 4.94-8.22 3.65-9.98 2.72-20.43 2.88-31.94-6.45 2.17-12.34 3.78-17.92 6.12-7.33 3.07-14.11 7.11-20.04 12.62-3.32 3.08-7.21 5.78-11.26 7.79-2.83 1.4-6.38 1.82-9.61 1.82-3.1.01-4.67-2.68-3.6-5.69.73-2.03 1.86-4.19 3.42-5.62 11.84-10.72 24.91-19.76 39.24-26.78 4.84-2.37 10.38-3.41 15.7-4.65 2.81-.65 4.08-2.06 4.13-4.72.06-3.12.14-6.26-.11-9.37-.54-6.68-.23-13.14 2.99-19.26 1.05-2 2.26-2.12 4.06-1.54 4.35 1.4 6.94 4.54 6.92 9.21-.01 3.34-.6 6.67-.91 10.01-.16 1.67-.33 3.34-.37 5.02-.2 8.02.78 9.72 8.36 11.82 18.7 5.17 34.42 15.77 49.87 26.9 2.24 1.62 4 3.89 6.05 5.78 2.36 2.17 2.34 4.97 2.02 7.76-.09.78-1.01 2.01-1.66 2.1-2.67.33-5.65 1.04-8.03.22-3.29-1.13-6.58-3.07-9.13-5.44-12.98-12.07-28.91-18.36-45.53-23.88-1.72 5.6-1.5 11.18-.52 16.68.9 5.05 2.46 9.97 3.48 15 .91 4.49 3.4 7.61 7.25 9.89 6.73 3.99 13.47 7.97 20.1 12.11 3.4 2.13 6.87 4.29 9.77 7.02 2.42 2.28 4.05 5.39 6.21 8.4-6.67 3.41-12.68 3.19-18.24.36-12.31-6.26-25.16-11.89-33.42-23.89-.83-1.19-1.94-2.18-3.14-3.5z"/><path d="m155.57 218.72c.71-6.24 1.35-11.99 2.04-17.74.48-4.05 2.27-6.2 5.58-7.08 2.71-.72 4.76-.14 5.35 2.8 1.15 5.67 2.71 11.34 3.02 17.07.62 11.45-1.18 22.71-3.92 33.86-2.88 11.73-10.84 17.59-21.97 19.8-10.35 2.05-20.51.34-30.37-2.97-1.58-.53-2.9-2.37-3.95-3.88-5.27-7.58-7.98-16.21-9.79-25.13-2.29-11.27-3.32-22.58.22-33.83.5-1.59.91-3.29 1.78-4.68.94-1.5.7-4.46 3.7-3.88 3.09.6 5.8 1.91 6.64 5.34.24.96.19 2 .14 3-.09 1.79-.32 3.57-.4 5.35-.43 9.09.34 9.98 9.17 10.42 10.72.54 21.44 1.02 32.76 1.55zm-.19 15.05c-13.17 0-25.61 0-38.39 0 1.26 5.23 2.49 10.42 3.8 15.59.14.54.72 1.2 1.24 1.37 9.44 3.11 18.87 4.9 28.02-.9.72-.46 1.69-1.05 1.88-1.76 1.2-4.5 2.21-9.04 3.45-14.3z"/></g><path d="m385.2 377.6.6-.7c.6.4 1.3.9 1.9 1.5l-.6.7c-.8-.5-1.4-1-1.9-1.5zm.3 7.1c.6-1.4 1.1-2.9 1.5-4.5.3.1.6.3.9.4-.5 1.4-1 2.9-1.5 4.4zm.2-10.1.6-.6c.7.5 1.3 1.1 1.9 1.6l-.7.7c-.6-.6-1.2-1.2-1.8-1.7zm8.4-.8h.8v.9h1.8v.7h-1.8v1.8h-.8v-.3h-1.2v.9h3.3v2.6h-.8v-.4h-2.5c0 .3 0 .6-.1.8h3.4v.7h-3.5c0 .3-.1.6-.1.8h4v.7h-3.5c.7.9 1.9 1.3 3.6 1.5-.2.2-.4.5-.6.9-1.9-.3-3.2-1.1-3.8-2.3-.5 1.1-1.8 2-3.9 2.4-.2-.3-.4-.5-.6-.8 1.9-.4 3.1-.9 3.6-1.7h-3.2v-.7h3.5c.1-.2.1-.5.2-.8h-3.3v-.7h3.4c0-.2 0-.5 0-.8h-2.4v.3h-.8v-2.6h3.3v-.9h-1.2v.3h-.8v-1.8h-1.8v-.7h1.8v-.9h.8v.9h3.2zm-4.4 5.5h2.4c0-.3 0-.6 0-.9h-2.4zm1.2-3.1h3.2v-.8h-3.2zm4.4 2.2h-2.4v.9h2.5v-.9z" fill="#fcfbfa"/><path d="m389.2 385.8h.9v1.5h1.9v-1.5h.9v1.5h2.7v6h1.1v.9h-11.3v-.9h1.1v-6h2.7zm.2 8.7.5.8c-1.2.6-2.5 1.3-4 1.9-.2-.3-.3-.6-.6-.8 1.6-.6 3-1.3 4.1-1.9zm-2-4.3h1.9v-2.1h-1.9zm0 3.1h1.9v-2.2h-1.9zm2.7-3.1h1.9v-2.1h-1.9zm0 3.1h1.9v-2.2h-1.9zm2.4 1.3c1.4.6 2.7 1.2 4.1 1.8l-.5.9c-1.5-.7-2.8-1.4-4.1-1.9zm2.2-6.5h-1.9v2.1h1.9zm-1.9 5.2h1.9v-2.2h-1.9z" fill="#fcfbfa"/></svg>