<svg enable-background="new 0 0 400 400" viewBox="0 0 400 400" xmlns="http://www.w3.org/2000/svg"><g fill="#010101"><path d="m148.41 348.33c-1.96-6.47-1.5-12.99.2-19.44 3.57-13.51 5.52-27.16 4.28-41.16-.72-8.13-1.67-16.26-1.81-24.4-.09-5.08 1-10.21 1.85-15.26.17-1 1.58-2.26 2.64-2.54 1.68-.44 3.94-1.15 4.75 1.51 1.6 5.21 3.38 10.38 4.6 15.68 1.09 4.76 1.53 9.68 2.3 14.8 6.14-1.88 12.03-3.59 17.83-5.56.87-.29 1.87-1.8 1.87-2.74-.01-3.2-.21-6.44-.76-9.59-.56-3.17-1.62-6.25-2.49-9.36-2.31-8.33 3.94-18.44 11.85-21.44 12.17-4.61 24.7-7.22 37.74-4.22 1.76.41 3.7 1.28 4.92 2.55 2.84 2.94 1.72 7.3-2.21 8.07-5.45 1.07-11.03 1.5-16.56 2.17-4.53.55-9.11.83-13.59 1.64-1.89.34-3.72 1.53-5.34 2.66-2.17 1.52-3.43 3.32-2.71 6.5 1.46 6.42 2.26 12.99 3.46 19.48.17.92.88 2.25 1.61 2.46 7.81 2.31 15.68 4.43 24.26 6.8 0-5.08.02-9.73-.01-14.39-.02-2.01-.28-4.03-.22-6.03.16-5.26 3.13-7.32 8.04-5.47.9.34 1.92 1.53 2.11 2.47 5.48 27.37 6.49 54.83 1.23 82.35-1 5.25-2.74 10.36-4.19 15.52-.85 3.02-3.08 4.26-6.05 4.23-3.1-.04-4.8-1.79-4.76-4.82.09-7.58-.04-15.19.62-22.72 1.05-11.9 2.68-23.74 4.1-35.93-8.69-2.46-16.8-4.76-25.42-7.21v3.78c0 21.38.03 42.76-.03 64.14-.01 3.01-.37 6.02-.71 9.01-.12 1.08-.52 2.19-1.03 3.17-1.32 2.55-3.72 2.86-6.3 2.96-2.44.09-2.87-1.7-3.52-3.35-3.94-10.05-3.77-20.56-3.61-31.1.22-14.54.25-29.08.34-43.63.01-1.44-.13-2.89-.23-4.96-4.35 1.64-8.35 3.14-12.35 4.65-8.14 3.07-8.01 3.09-8.77 11.76-1.01 11.47-2.1 22.93-3.51 34.36-.34 2.77-1.74 5.55-3.17 8.03-2.35 4.17-6.19 5.57-11.25 4.57z"/><path d="m149.54 84.87c-.32-4.96-1.19-8.95-4.76-12.43-7.92-7.74-15.39-15.94-23.04-23.96-2.94-3.09-2.24-6.63 1.85-8.01 5.29-1.78 10.23.07 13.9 3.57 6.06 5.78 11.47 12.24 17.1 18.46 5.13 5.67 7.86 12.7 10.71 19.61.86 2.1 1.94 2.79 4.2 2.73 6.13-.17 12.27-.06 18.7-.06.57-6.46.93-12.7 1.74-18.87.68-5.17 1.28-10.48 2.99-15.36 2.68-7.63 8.34-13.08 15.84-15.98 8.52-3.29 17.25-6.08 25.99-8.76 4.8-1.47 9.63.49 11.09 3.85.97 2.23 1.02 4.02-1.35 5.76-5.35 3.94-11.38 6.01-17.68 7.73-4.59 1.26-9.12 2.97-13.44 4.96-6.12 2.82-9.92 7.86-10.39 14.59-.48 6.88-.11 13.82-.11 20.98 7.91.35 15.81.7 23.86 1.06 3.4-10.44 8.71-19.72 15.18-28.37 6.17-8.24 13.8-14.34 24.2-16.17 1.54-.27 3.81-.17 4.76.77 1.85 1.81 2.93 4.54 1.28 7.03-1.32 1.99-3.02 4.05-5.05 5.18-12.26 6.82-17.07 19.62-25.64 30.62 4.9.33 8.87.73 12.85.83 6.14.15 12.31-.16 18.44.2 5.21.31 8.26 3.47 8.89 8.02.27 1.98-.28 3.45-2.24 3.83-6.54 1.26-13.12 3.33-19.68 3.35-17.22.07-34.44-.81-51.66-1.25-4.66-.12-5.23.01-5.42 4.64-.29 7.34.24 14.71.3 22.07.03 3.56.19 7.19-.49 10.64-.38 1.93-1.97 4.29-3.67 5.17-3.89 1.99-6.33 2.02-8.1-2.76-3.05-8.23-2.67-16.7-1.86-25.2.3-3.11.89-6.21.92-9.32.04-3.72-1.69-5.25-5.39-5.25-20.82.02-41.64.13-62.46.04-3.54-.01-7.11-.6-10.59-1.31-2.67-.55-3.93-2.58-4.21-5.38-.28-2.82 1.34-3.92 3.48-4.96 6.67-3.25 13.68-2.77 20.72-2.06 5.99.61 11.98 1.32 18.24-.23z"/><path d="m182.05 155.82c-11.62 3.39-23.06 6.8-34.56 10.04-4.44 1.25-7.98 3.78-10.43 7.43-2.83 4.23-5.02 8.88-7.96 14.2 2.27-.74 3.97-.85 5.08-1.71 10.96-8.54 23.91-11.8 37.16-14.32 1.75-.33 3.53-.55 5.31-.67 3.57-.25 5.62 1.22 6.53 4.64.86 3.25-.45 5.52-3.54 6.58-8.21 2.82-16.39 5.78-24.72 8.2-7.71 2.24-14.35 5.95-20.03 12.05 5.45 3.24 10.91 4.26 16.83 2.44 5.76-1.78 11.48-3.76 17.34-5.1 2.42-.55 5.39-.23 7.73.68 3.85 1.49 3.98 5.81.54 8.15-12.5 8.52-26.25 11.43-41.17 9.1-2.19-.34-4.4-.49-6.76-.75-.21.98-.47 1.71-.51 2.45-.54 10.95-1.41 21.9-1.5 32.85-.22 26.86-.14 53.73-.03 80.59.03 8.72.59 17.44.75 26.16.05 2.55-.13 5.2-.82 7.62-.59 2.06-1.74 4.2-3.23 5.73-4.13 4.21-7.6 3.65-9-1.91-1.59-6.33-2.88-12.94-2.88-19.43-.03-28.42.84-56.85.59-85.27-.14-16.55 1.64-32.82 4.21-49.06.92-5.86 1.06-11.33-1.33-17.01-1.22-2.88-1.2-6.65-.66-9.84.85-5.03 2.26-10.04 4.12-14.79 1.18-2.99 3.22-5.92 5.58-8.12 9.68-9.02 20.33-16.67 33.71-18.98 5.42-.94 11.1-1.02 16.6-.6 5.54.43 6.85 2.53 7.05 8.65z"/><path d="m214.3 200.67c5.44-1.93 10.49-.65 15.63.59 6.04 1.46 12.14 2.86 18.29 3.64 3.1.39 6.38-.63 10.38-1.11-4.73-4.87-9.63-8.07-15.12-10.14-8.99-3.39-18.13-6.38-27.2-9.54-3.21-1.12-5.93-2.8-6.66-6.41-.55-2.7.05-4.75 3.22-5.54 6.2-1.53 12.27-1.1 18.12 1.15 10.61 4.09 21.45 7.72 31.7 14.71-1.99-6.12-2.52-11.73-7.93-15.69-8.71-6.38-18.59-9.05-28.87-10.97-2.96-.55-5.97-.93-8.89-1.66-1.36-.34-3.13-1-3.72-2.06-1.16-2.12-2.73-5.01-2.08-6.85.68-1.89 3.82-4.15 5.85-4.12 17.88.27 35.12 3.11 48.6 16.35 8.99 8.83 12.86 20.03 12.91 32.48.01 2.92-1.31 5.82-1.84 8.76-.57 3.12-1.75 6.42-1.24 9.4 4.31 25.41 4.7 51.01 4.25 76.65-.46 26.52-1.26 53.04-1.77 79.56-.06 3.3-1.63 5.02-4.43 5.76-2.86.75-4.87-.71-5.53-3.46-1.17-4.85-2.87-9.76-2.92-14.65-.16-17 .59-34.01.46-51.02-.21-28.2-.83-56.4-1.29-84.6-.08-4.65-1.51-5.91-6.03-4.77-11.93 3.01-23.35.38-34.58-3.21-6.76-2.14-9.73-6.88-9.31-13.25z"/><path d="m296.08 161.06c-3.3-1.26-7.51-2.42-11.28-4.41-7.69-4.06-15.74-7.8-22.57-13.07-10.25-7.91-21.67-14.85-28.14-26.81-.95-1.76-1.69-3.64-2.36-5.53-1.21-3.42 1.34-6.52 4.82-5.42 2.99.94 6.31 2.27 8.37 4.48 15.18 16.32 33.41 28.14 53.53 37.3 3.51 1.6 6.22 3.78 7.27 7.75.58 2.19.09 3.45-2.09 3.98-2.16.53-4.33 1-7.55 1.73z"/><path d="m87.39 158.94c-.33-4.87 1.04-8.23 5.65-10.39 4.84-2.26 9.18-5.56 13.91-8.08 16.4-8.74 31.17-19.64 44.39-32.69 1.02-1.01 2.56-2.02 3.9-2.08 4.64-.21 6.95 2.69 5.51 7.1-.84 2.58-2.16 5.25-3.98 7.24-12.31 13.5-26.12 25.07-43 32.62-4.17 1.86-8.07 4.32-12.24 6.18-4.67 2.08-9.47 2.1-14.14.1z"/></g><path d="m6.4 11.7c-1-.8-1.9-1.6-2.9-2.3l.6-.7c.9.7 1.9 1.4 2.9 2.2zm-2.1 8.3c.7-2.1 1.4-4.2 2-6.4.2.1.6.3 1 .4-.7 2.3-1.3 4.4-1.9 6.4zm3-12.8c-1.1-.9-2.1-1.7-2.9-2.4l.6-.7c1 .8 2 1.5 3 2.4zm1.4-1.3v-.9h10.2v.9c-.9 4.2-2.3 7.3-4.1 9.4 1.3 1.4 3.2 2.7 5.7 4-.2.2-.4.5-.7.9-2.5-1.4-4.4-2.7-5.7-4.2-1.4 1.5-3.5 3-6.1 4.4 0 0 0 0-.1-.1-.3-.4-.5-.7-.7-.8 2.7-1.3 4.7-2.8 6.2-4.2-1.8-2.2-3-5.3-3.7-9.4zm9.2 0h-7.1c.6 3.8 1.7 6.7 3.4 8.7 1.7-2 2.9-4.8 3.7-8.7z" fill="#fbfafa"/><path d="m31.6 3.6h.9v2.3h4.1v9.1h1.7v.9h-16.6v-.9h1.7v-9.1h4.1v-2.3h.9v2.3h3.1v-2.3zm-4 13.3.6.8c-1.9.9-3.8 1.9-5.8 2.8-.2-.3-.3-.6-.5-.9 2-.9 3.9-1.8 5.7-2.7zm-3.2-10.1v3.7h3.1v-3.7zm0 4.5v3.7h3.1v-3.7zm4.1-4.5v3.7h3.1v-3.7zm0 4.5v3.7h3.1v-3.7zm9.1 9.1c-2.1-1.1-4.1-2-5.8-2.7l.5-.8c2.2.9 4.1 1.8 5.8 2.6zm-1.9-13.6h-3.1v3.7h3.1zm-3.2 4.5v3.7h3.1v-3.7z" fill="#fbfafa"/></svg>