<svg enable-background="new 0 0 400 400" viewBox="0 0 400 400" xmlns="http://www.w3.org/2000/svg"><path d="m361.2 9.6.8-1c.9.7 1.9 1.4 2.9 2.3l-.9 1.1c-1-1-2-1.8-2.8-2.4zm.5 10.6c.9-2.1 1.6-4.3 2.3-6.7.4.2.8.4 1.3.6-.7 2.1-1.5 4.3-2.2 6.6zm.4-15.2.9-.9c1 .8 2 1.6 2.8 2.4l-1 1c-.9-.9-1.8-1.7-2.7-2.5zm12.5-1.2h1.2v1.4h2.7v1.1h-2.7v2.7h-1.2v-.6h-1.8v1.3h4.9v3.8h-1.2v-.5h-3.7c0 .4-.1.9-.1 1.2h5.1v1h-5.2c0 .5-.1.9-.2 1.2h6v1h-5.2c1.1 1.3 2.9 2 5.5 2.2-.4.4-.7.8-.9 1.3-2.9-.5-4.8-1.6-5.7-3.5h-.1c-.8 1.7-2.7 2.9-5.9 3.6-.2-.4-.6-.8-.9-1.1 2.8-.6 4.6-1.4 5.4-2.5h-4.8v-1h5.3c.1-.3.2-.7.2-1.2h-4.9v-1h5c0-.4 0-.8.1-1.2h-3.5v.5h-1.2v-3.8h4.9v-1.3h-1.8v.5h-1.2v-2.7h-2.7v-1h2.6v-1.4h1.2v1.4h4.7v-1.4zm-6.6 8.3h3.6c0-.4 0-.9 0-1.4h-3.6zm1.9-4.6h4.7v-1.3h-4.7zm6.6 3.2h-3.7v1.4h3.7z" fill="#fbfcfa"/><path d="m385.3 3.8h1.3v2.2h2.8v-2.2h1.3v2.2h4.1v9.1h1.7v1.3h-16.9v-1.3h1.7v-9.1h4.1v-2.2zm.4 13.1.7 1.2c-1.8.9-3.8 1.9-6 2.9-.2-.4-.5-.8-.8-1.3 2.3-1 4.3-1.9 6.1-2.8zm-3.1-6.4h2.8v-3.2h-2.8zm0 4.6h2.8v-3.3h-2.8zm4-4.6h2.8v-3.2h-2.8zm0 4.6h2.8v-3.3h-2.8zm3.7 1.9c2.1.9 4.1 1.8 6.1 2.7l-.7 1.3c-2.2-1.1-4.2-2-6.1-2.9zm3.2-9.7h-2.8v3.2h2.8zm-2.8 7.8h2.8v-3.3h-2.8z" fill="#fbfcfa"/><g fill="#010102"><path d="m300.78 160.12c-7.81 0-15.16 0-22.95 0-.2 3.33-.44 6.63-.6 9.93-.86 17.66-1.32 35.35-2.64 52.97-1.25 16.72-3.35 33.38-5.14 50.06-1.85 17.24-3.59 34.49-5.75 51.69-1.97 15.64-4.41 31.22-6.76 46.81-.12.79-1.16 1.8-1.99 2.06-6.13 1.97-7.84 1.21-8.49-5.26-.6-5.95-.8-12.14.14-18 3.84-23.77 5.66-47.74 7.78-71.69 2.1-23.85 4.46-47.67 6.37-71.53 1.2-14.92 1.78-29.9 2.67-45.39-8.46-.62-16.63-1.21-25.12-1.83-.26 9.61-.38 18.98-.79 28.34-.82 18.33-1.18 36.71-2.92 54.96-1.26 13.2-4.62 26.18-6.7 39.32-1.57 9.93-2.35 19.98-3.91 29.91-.86 5.45-3.04 10.33-9.39 11.74-2.77.61-4.08-.07-4.63-2.98-1.62-8.59-.2-16.99 1.66-25.28 7.92-35.31 11.56-71.05 11.18-107.22-.21-20.59-.72-41.18-.45-61.76.09-6.94 2.12-13.86 3.31-20.78.6-3.5 3.57-2.17 5.64-2.62 1.87-.41 2.95.16 3.78 2.13 3.24 7.69 2.31 15.53 1.56 23.47-.39 4.18-.09 8.45.18 12.67.05.76 1.42 1.97 2.27 2.04 7.13.62 14.28.98 21.41 1.53 1.71.13 2.34-.38 2.65-2.07 1.42-7.64.55-15.15-1.13-22.62-.78-3.49-1.76-6.93-2.63-10.4-2.12-8.45-5.4-15.99-12.32-22.03-4.8-4.19-8.49-9.79-12.15-15.11-6.81-9.91-5.41-20.49-.12-30.2 2.88-5.29 9.13-7.81 15.14-9.16 14.97-3.36 30.18-3.63 45.4-2.7 6.47.39 10.04 3.67 11.37 9.96-6.08 1.15-12.12 2.7-18.25 3.34-9.44 1-18.95 1.37-28.43 2.02-1.11.08-2.23.21-3.32.43-5.08 1.04-10.28 2.51-11.58 8.23-1.37 6.03-.03 11.7 4.9 16.15 3.98 3.6 7.69 7.5 11.61 11.17 8.73 8.16 12.78 18.32 13.49 30.11.6 9.82 1.62 19.62 2.32 29.44.17 2.38.97 3.21 3.44 3.25 5.59.08 11.19.34 16.74.92 2.84.29 3.61-.82 3.62-3.25.03-7.6.01-15.21.13-22.81.05-3.01.05-6.1.78-8.98.54-2.14 1.82-4.44 3.46-5.9 3.52-3.13 6.24-2.2 7.92 2.18 2.91 7.58 3.24 15.5 3.09 23.47-.49 26.4-1.22 52.79-1.48 79.2-.22 23.54-2.12 46.9-5.28 70.22-1.35 9.96-1.39 20.09-2.47 30.09-.69 6.41-2.26 12.73-3.34 19.1-.34 2.01-1.4 2.67-3.35 2.89-6.19.69-7.35.49-7.83-5.68-.53-6.82-.43-13.9.78-20.63 5.98-33.3 7.58-66.86 7.13-100.6-.18-13.76-.03-27.53-.03-41.3.02-1.24.02-2.46.02-4.02z"/><path d="m212.55 78.62c-7.77 5.51-17 1.88-25.37 4.39-.46 11.53-.95 22.92-1.28 34.31-.02.79.97 1.89 1.78 2.38 3.44 2.08 7.11 3.8 10.45 6.02 1.75 1.16 3.48 2.86 4.39 4.71 3.52 7.19 4.07 15.01 4.34 22.88.55 15.76-1.9 31.22-4.23 46.71-2.73 18.13-4.61 36.42-8.23 54.37-6 29.79-15.84 58.4-29.49 85.63-.59 1.17-1.36 2.76-2.39 3.1-2.11.69-4.52 1.04-6.68.71-.73-.11-1.73-2.84-1.48-4.16 1.24-6.44 2.43-12.94 4.43-19.16 7.05-21.9 14.83-43.56 21.59-65.55 9.8-31.9 12.12-64.73 10.67-97.91-.24-5.48-.26-10.96-.4-16.44-.14-5.46-.15-5.46-5.68-6.58-2.19 6.44-4.21 12.94-6.63 19.28-1.14 2.98-2.99 5.7-4.63 8.47-.44.74-1.19 1.56-1.96 1.77-2.5.68-5.28 1.85-7.55 1.27-1.11-.28-2.06-4.12-1.8-6.18.48-3.82 1.26-7.87 3.07-11.2 5.9-10.91 7.42-22.62 7.43-34.71.01-8.95-.04-17.91-.07-26.86 0-.65-.14-1.29-.26-2.33-10.59 0-21.03 0-31.89 0-.34 6.14-.7 12.36-1.03 18.58-.25 4.69-.38 9.39-.74 14.08-.14 1.83.33 2.91 2.07 3.62 1.75.72 3.32 1.94 5.1 2.53 5.98 1.96 9 6.56 10.37 12.18 1.42 5.83 2.63 11.81 3.04 17.78.85 12.53-.16 25-1.99 37.45-1.53 10.4-1.86 20.98-3.68 31.32-2.35 13.3-4.98 26.62-8.72 39.58-5.63 19.51-12.31 38.72-18.59 58.05-1.9 5.84-3.74 11.72-6.05 17.4-1.05 2.59-2.85 5.07-4.85 7.05-3.12 3.07-6.48 1.94-7.59-2.21-1.2-4.5-.91-9.06 1.01-13.15 12.63-26.95 17.34-56.29 25.76-84.51 4.02-13.49 5.19-27.43 7.28-41.23.55-3.61-.4-4.81-4.35-5.86-7.67-2.04-15.35-4.02-23.04-5.97-6.04-1.53-11.55-4.04-16.48-7.94-4.86-3.85-6.71-8.9-7.16-14.88-1.15-15.17 1.35-30.13 2.45-45.17.82-11.27 1.98-22.51 2.93-33.77.3-3.6-.88-5.12-4.55-5.7-2.42-.39-4.89-.41-7.35-.58-2.65-.18-4.75-1.21-5.86-3.76-1.46-3.35-.8-4.57 2.49-6.1 5.08-2.36 10.31-3.09 15.91-3.06 34.13.19 68.27.14 102.41.2 1.56 0 3.13.16 4.67.42 5.17.88 7.43 3.23 8.41 8.73zm-67.35 103.44c.45-10.84 1.11-21.1 1.2-31.36.04-5.26-1.34-10.43-4.46-14.87-.62-.89-1.77-1.41-2.67-2.11-.66.9-1.67 1.7-1.93 2.7-2.6 9.99-7.82 18.68-13.18 27.34-1.18 1.91-2.33 2.32-4.33 1.71-3.2-.98-4.76-2.97-4-6.65 1.08-5.24 2.48-10.42 4.05-15.53 3.66-11.9 4-24.23 4.73-36.48.47-7.84.09-15.74.09-23.77-4.52 0-8.5 0-12.59 0-.18 1.12-.39 2.09-.5 3.07-2.32 21.45-4.72 42.89-6.89 64.35-.66 6.54-1.29 13.27 2.39 19.28 1.11 1.82 2.61 4.26 4.36 4.7 10.93 2.76 21.98 5.03 33.73 7.62z"/><path d="m145.01 26.32c14.19 0 28.37-.07 42.56.04 5.22.04 7.81 2.47 8.82 7.4.39 1.93.01 3.42-2.01 3.88-4.1.92-8.22 2.23-12.36 2.38-15.61.57-31.24.66-46.86 1.09-12.66.35-25.24.14-37.58-3.25-1.6-.44-3.24-.68-2.98-2.8.29-2.35-2.06-5.56 1.92-6.8 2.49-.77 5.05-1.8 7.6-1.83 13.63-.18 27.27-.09 40.91-.09-.02-.01-.02-.01-.02-.02z"/></g></svg>