<svg enable-background="new 0 0 400 400" viewBox="0 0 400 400" xmlns="http://www.w3.org/2000/svg"><path d="m361.2 9.6.8-1c.9.7 1.9 1.4 2.9 2.3l-.9 1.1c-1-1-2-1.8-2.8-2.4zm.5 10.6c.9-2.1 1.6-4.3 2.3-6.7.4.2.8.4 1.3.6-.7 2.1-1.5 4.3-2.2 6.6zm.4-15.2.9-.9c1 .8 2 1.6 2.8 2.4l-1 1c-.9-.9-1.8-1.7-2.7-2.5zm12.5-1.2h1.2v1.4h2.7v1.1h-2.7v2.7h-1.2v-.6h-1.8v1.3h4.9v3.8h-1.2v-.5h-3.7c0 .4-.1.9-.1 1.2h5.1v1h-5.2c0 .5-.1.9-.2 1.2h6v1h-5.2c1.1 1.3 2.9 2 5.5 2.2-.4.4-.7.8-.9 1.3-2.9-.5-4.8-1.6-5.7-3.5h-.1c-.8 1.7-2.7 2.9-5.9 3.6-.2-.4-.6-.8-.9-1.1 2.8-.6 4.6-1.4 5.4-2.5h-4.8v-1h5.3c.1-.3.2-.7.2-1.2h-4.9v-1h5c0-.4 0-.8.1-1.2h-3.5v.5h-1.2v-3.8h4.9v-1.3h-1.8v.5h-1.2v-2.7h-2.7v-1h2.6v-1.4h1.2v1.4h4.7v-1.4zm-6.6 8.3h3.6c0-.4 0-.9 0-1.4h-3.6zm1.9-4.6h4.7v-1.3h-4.7zm6.6 3.2h-3.7v1.4h3.7z" fill="#fbfcfa"/><path d="m385.3 3.8h1.3v2.2h2.8v-2.2h1.3v2.2h4.1v9.1h1.7v1.3h-16.9v-1.3h1.7v-9.1h4.1v-2.2zm.4 13.1.7 1.2c-1.8.9-3.8 1.9-6 2.9-.2-.4-.5-.8-.8-1.3 2.3-1 4.3-1.9 6.1-2.8zm-3.1-6.4h2.8v-3.2h-2.8zm0 4.6h2.8v-3.3h-2.8zm4-4.6h2.8v-3.2h-2.8zm0 4.6h2.8v-3.3h-2.8zm3.7 1.9c2.1.9 4.1 1.8 6.1 2.7l-.7 1.3c-2.2-1.1-4.2-2-6.1-2.9zm3.2-9.7h-2.8v3.2h2.8zm-2.8 7.8h2.8v-3.3h-2.8z" fill="#fbfcfa"/><g fill="#010102"><path d="m130.6 113.67c1.22-7.23 2.1-13.98 3.57-20.6 1.24-5.57 4.6-9.89 9.77-12.58 5.45-2.83 10.74-6.09 16.44-8.28 9.26-3.56 13.98-9.96 14.43-20.63-5.54-.78-11.19-2.02-16.88-2.28-8.15-.37-16.34.07-24.5-.06-2.43-.04-2.64 1.52-3.17 3.07-5.63 16.27-14.05 30.94-25.65 43.65-7.38 8.09-16.53 13.2-27.62 14.27-3.13-4.73-2.57-8.9 1.77-11.95 17.25-12.1 27.95-29.28 37.1-47.67.14-.27.08-.65.11-.95-8.28-1.96-16.54-3.85-24.75-5.9-2.7-.67-5.39-1.56-7.91-2.72-7.03-3.23-8.94-8.38-5.76-16.31 3.41.83 7.31.99 10.38 2.68 12.44 6.85 25.97 6.59 39.49 7.04 13.85.47 27.7 1.23 41.55 1.93 1.55.08 3.1.45 4.61.83 11.02 2.83 15.99 10.74 13.97 21.95-1.15 6.43-3.79 11.65-8.65 16.45-7.7 7.61-15.81 14.05-26.31 17.11-3.01.88-4.82 2.82-5.22 5.88-.6 4.62-1.03 9.25-1.54 14.01 8.77 1.95 16.92 3.77 25.08 5.58 12.23 2.72 22.8 14.55 24.39 26.96 1.17 9.1-.62 17.58-4.74 25.63-.66 1.28-1.9 2.45-3.15 3.2-2.77 1.67-5.8 2.9-8.59 4.55-4.6 2.73-9.33 4.76-15.67 3.43 1.36 6.56 2.09 12.56 3.89 18.21 3.78 11.81 7.92 23.51 12.31 35.11 2.63 6.94 1.83 13.4-1.34 19.73-2.8 5.59-6.03 10.97-8.91 16.52-.74 1.43-1.19 3.15-1.26 4.75-.34 7.71-.26 15.45-.77 23.15-1.04 15.89 4.01 30.45 9.62 44.83 2.84 7.27 6.65 14.15 10.05 21.2 1.81 3.76 1.54 6.76-.86 8.48-2.8 1.99-7.03 1.34-9.52-1.51-12.55-14.35-18.92-31.45-22.06-49.95-2.64-15.52-3.6-31.11-1.37-46.77.25-1.74.71-3.51 1.42-5.12 2.72-6.25 5.12-12.7 8.5-18.59 4.14-7.21 3.53-14.29 1.11-21.6-1.54-4.66-2.96-9.42-5.07-13.83-8.33-17.41-11.65-35.73-11.42-54.94.13-10.6-.8-21.21-1.25-32.04-4.98-.6-9.73-1.18-15.42-1.87 0 5.21.09 10.2-.02 15.19-.41 19.69-.29 39.42-1.59 59.05-.62 9.45-3.6 18.82-6.2 28.03-1.5 5.33-4.13 10.39-6.67 15.35-2.68 5.23-3.63 10.62-3.71 16.44-.19 14.1-1.21 28.19-1.03 42.28.24 18.45 1.31 36.89 2.03 55.33.09 2.24.24 4.47.33 6.71.1 2.68-.59 4.94-3.52 5.71-2.81.74-5.71 1.2-7-2.34-1.55-4.26-3.83-8.53-4.13-12.91-1.35-19.74-2.38-39.5-2.99-59.28-.55-18.13-.26-36.32 4.22-54.04 1.63-6.44 4.45-12.65 7.31-18.69 5.15-10.88 8.23-22.05 7.73-34.23-.25-6.18.2-6.15-5.69-7.92-4.7-1.41-9.79-2.18-13.95-4.56-11.38-6.51-14.49-17.23-13.27-29.62.23-2.33.74-4.64 1.25-6.92 2.13-9.44 7.47-16.29 16.4-20.29 7.98-3.58 15.93-7.11 24.97-6.85 1.87.04 3.76-.34 5.33-.49zm32.09 54.89c3-.26 5.57-.04 7.82-.77 4.98-1.63 9.68-3.43 10.57-10 1.91-14.16-6.03-25.93-19.44-27.73.34 12.63.69 25.24 1.05 38.5zm-47.99-38.28c-4.96 2.59-9.39 4.89-13.8 7.21-.38.2-.74.51-1 .85-4.26 5.63-4.52 17.74-.52 23.58 3.18 4.65 9.92 7.63 14.45 6.16.82-.27 1.87-1.58 1.86-2.39-.23-11.59-.62-23.18-.99-35.41z"/><path d="m310.57 54.76c-7.88 2.08-14.98 5.27-23.47 5.14-11.54-.18-23.16 1.39-34.64 2.94-5.61.76-10.28 4.28-13.74 8.97-2.72 3.69-3.95 7.66-3.87 12.46.11 6.92 2.16 12.58 7.41 17.08 5.6 4.8 11.2 9.58 16.75 14.44 2.52 2.21 5.06 4.43 7.32 6.89 3.42 3.73 6.04 7.87 7.06 13.07 1.39 7.12 3.59 14.08 5 21.2.82 4.12.78 8.41 1.16 13.02 6.63-1.78 13.31-3.79 20.09-5.32 3.39-.76 5.02-2.43 5.19-5.78.22-4.35.48-8.69.7-13.03.18-3.44-.07-6.97.6-10.31.75-3.76 4.41-5.94 8.17-5.29.95.16 2.04 1.22 2.5 2.15 2.92 5.8 4.13 12.06 4.09 18.5-.05 7.05-.6 14.09-.71 21.13-.35 23.16-.08 46.34-1.07 69.48-.8 18.86-3.06 37.65-4.7 56.48-.94 10.81-1.69 21.64-3.03 32.41-.7 5.61-2.19 11.18-3.95 16.57-.53 1.62-3.01 3.21-4.86 3.62-2.11.47-4.15-.63-5.18-3.21-2.83-7.08-2.35-14.23-1.11-21.48 3.21-18.62 6.85-37.2 7.39-56.16.38-13.64.57-27.29.67-40.94.11-15.67.02-31.34.02-47.01 0-1.32 0-2.64 0-4.54-3.48 1.11-6.51 2.04-9.52 3.04-3.82 1.26-7.56 2.8-11.45 3.78-2.75.69-3.35 2.15-3.5 4.71-1.03 17.31-1.77 34.66-3.45 51.91-2.15 22.15-5.15 44.21-7.67 66.33-1.57 13.78-2.65 27.62-4.47 41.36-.93 7.04-2.94 13.95-4.64 20.88-.71 2.9-2.81 4.22-5.9 4.5-1.99.18-3.19-.32-3.41-2.12-.7-5.73-2.11-11.56-1.6-17.2 1.1-12.23 3.4-24.36 4.89-36.56 1.74-14.32 3.15-28.68 4.67-43.03 1.73-16.35 3.68-32.69 5.06-49.07 1.07-12.7 1.43-25.47 2.02-38.21.03-.65-.66-1.77-1.22-1.93-10.2-2.85-20.43-5.59-30.99-8.44-.13 1.34-.29 2.29-.32 3.24-.42 16.44-.79 32.89-1.26 49.33-.69 24.32-3.5 48.35-9.01 72.09-2.01 8.67-2.51 17.69-3.93 26.52-.45 2.83-1.36 5.66-2.55 8.28-1.79 3.94-5.04 5.74-9.49 5.45-2.29-.14-2.98-.9-2.93-3.27.33-14.73 2.76-29.16 5.98-43.47 4.37-19.47 6.73-39.14 7.95-59.07 1.27-20.65.24-41.13-1.26-61.68-1.01-13.77-.35-27.48 2.87-41.02.88-3.7 3.66-2.91 5.87-3.67 2.21-.75 2.92.97 3.79 2.39 3.33 5.4 3.05 11.21 2.34 17.23-.43 3.72-.31 7.6.27 11.29.26 1.65 1.95 3.69 3.52 4.41 9.5 4.37 19.78 5.01 30.7 6.03-.27-5-.2-9.56-.84-14.02-.73-5.06-1.77-10.13-3.25-15.03-1.69-5.61-4.78-10.31-9.43-14.29-8.15-6.97-15.69-14.67-23.63-21.89-9.73-8.84-10.57-19.33-7.06-31.29 3.85-13.11 13.89-19.14 25.35-23.79 11.17-4.53 23.03-5.3 34.91-5.66 5.03-.15 10.07-.22 15.11-.1 7.74.16 12.19 3.22 13.69 9.56z"/></g></svg>