<svg enable-background="new 0 0 400 400" viewBox="0 0 400 400" xmlns="http://www.w3.org/2000/svg"><path d="m194.5 25.02c7.83 1.05 11.25 5.42 10.48 12.51-.59 5.44-1.35 10.89-1.45 16.35-.1 5.68.26 5.74 5.85 5.98 13.76.6 27.33 2.28 40.83 5.32 22.6 5.08 37 18.47 42.35 40.79 3.09 12.89 5.47 26.1 6.53 39.3 1.39 17.37 1.73 34.87 1.5 52.31-.27 21.26-4.23 42.01-11.45 62.08-.44 1.23-1.06 2.51-1.94 3.44-8.73 9.26-18.15 17.58-30.04 22.7-12.72 5.48-25.39 11.08-38.02 16.76-2.83 1.27-5.54 2.9-8.07 4.7-5.32 3.78-6.48 9.6-6.26 15.51.4 10.49 1.53 20.95 2.04 31.44.19 3.96-.35 8-.91 11.95-.22 1.56-1.1 3.38-2.28 4.36-1.99 1.64-4.45 2.71-6.72 4.02-1.24-2.16-3.33-4.22-3.59-6.49-1.6-13.99-3.02-28.01-4.01-42.05-.5-7.09 1.26-14.01 4.2-20.52.56-1.24 1.63-2.36 2.7-3.24 12.24-10.01 26.41-16.11 41.38-20.79 15.07-4.71 27.97-12.92 37.89-25.41 3.83-4.83 6.34-10.4 6.89-16.51 1.99-22.49 5.89-44.85 4.71-67.57-1.15-22.16-2.9-44.21-10.39-65.36-.45-1.26-1.06-2.48-1.38-3.77-2.08-8.44-8.11-13.23-15.32-17.15-12.13-6.6-25.26-9.62-38.81-10.87-17.53-1.62-35.1-2.04-52.57.6-8.5 1.29-16.9 3.27-25.36 4.85-10.67 2-16.81 9.31-21.97 18.08-7.73 13.15-11.68 27.37-11.87 42.49-.31 24.73-.34 49.46-.06 74.19.13 11.4 1.01 22.83 6.1 33.41 2.05 4.25 4.69 7.88 8.1 11.3 11.17 11.23 25.42 17.27 39.06 24.4 2.44 1.28 4.28 5.18 3.34 7.73-.28.75-1.37 1.4-2.22 1.72-5.12 1.87-10.28 1.42-14.98-.99-6.75-3.47-13.3-7.35-19.85-11.2-15.17-8.9-24.52-22.19-28.99-39.03-3.34-12.59-5.37-25.32-4.91-38.45.21-6.1-.77-12.25-1.27-18.38-2.67-32.81 2.77-64.41 14.19-95.11.34-.91.91-1.81 1.6-2.49 12.89-12.75 27.37-22.91 45.79-25.51 10.06-1.42 20.27-1.79 30.41-2.51 5.5-.39 6.03-.66 6.13-6.33.11-6.25-.38-12.52.01-18.75.21-3.35 1.71-6.61 2.61-9.81z" fill="#010103"/><path d="m144.37 180.98c3.63 7.19 4.59 14.69 5.08 22.3.39 6.02.24 12.13 1.27 18.04 1.82 10.41 5.7 13.98 17.94 15.47 3.41.41 6.93-.2 10.39-.07 3.44.14 6.86.63 10.59.99.34-22.13.68-44.13 1.03-66.88-5.19 0-10.07.04-14.94-.01-11.19-.12-22.39-.13-33.57-.53-3.62-.13-7.3-1.05-10.77-2.16-3.95-1.26-5.58-6.59-3.3-9.98.47-.7 1.61-1.19 2.51-1.31 7.85-1.03 15.69-2.36 23.58-2.82 10.6-.62 21.25-.54 31.87-.79 1.43-.03 2.85-.25 4.4-.39 0-11.55 0-22.82 0-34.34-4.59-1.48-9.29-1.1-13.74.2-5.66 1.65-11.11 4-16.68 5.98-7.68 2.72-15.33 5.55-23.1 7.96-2.2.68-4.89.42-7.21-.07-2.64-.55-3.91-2.74-4.3-5.41-.37-2.52.61-4.14 2.72-5.57 11.62-7.88 24.75-11.8 38.28-14.59 6.78-1.4 13.66-2.35 20.51-3.45 4.11-.66 5.37-1.94 5.39-6.09.01-1.44-.2-2.93-.61-4.3-1.52-5.02.53-8.64 4.16-11.72 5.9 2.68 7.22 5.16 5.98 11.07-.11.55-.32 1.08-.4 1.63-1.03 6.5.4 8.77 6.8 9.58 14.92 1.89 28.47 8.32 42.66 12.61 3.74 1.13 7.37 2.64 11.14 3.66 2.48.68 3.77 1.92 4.1 4.5.25 1.96.94 3.87 1.47 5.94-5.58 3.07-11.35 3.25-17.02 1.54-7.05-2.12-14.1-4.43-20.81-7.41-8.56-3.8-17.62-4.75-26.92-6.18v35c7.24 0 14.47-.07 21.69.02 8.72.11 17.48-.01 26.16.71 3.84.32 7.8 1.97 11.2 3.9 4.02 2.28 3.58 6.69-.47 8.95-6.89 3.84-14.37 4.69-22.09 4.19-8.7-.56-17.39-1.42-26.1-1.69-8.96-.28-8.94-.03-9.16 8.81-.45 18.24-.93 36.47-1.39 54.7-.03 1.1 0 2.21 0 3.83 6.38-.6 12.55-1.16 18.72-1.76 2.89-.28 5.79-.94 8.67-.87 3.29.08 4.74-1.74 6.04-4.26 4.11-7.98 4.98-16.58 5.46-25.36.3-5.53.88-11.12 2.12-16.51.96-4.16 3.74-6.01 7.62-6.76 4.14 6.88 5.82 14.48 5.48 22.4-.45 10.66-2.38 21.1-6.47 31.04-.37.91-.76 1.95-1.46 2.57-7.62 6.87-15.5 12.93-26.41 13.94-21.67 2.01-43.1 1.12-64.38-3.57-12.55-2.77-18.75-11.26-21.23-23.1-2.82-13.47-1.73-26.94.72-40.33.16-.87 1.33-1.82 2.26-2.23 1.27-.57 2.78-.66 4.52-1.02z" fill="#010103"/><g fill="#fcfbfa"><path d="m385.2 377.6.6-.7c.6.4 1.3.9 1.9 1.5l-.6.7c-.8-.5-1.4-1-1.9-1.5zm.3 7.1c.6-1.4 1.1-2.9 1.5-4.5.3.1.6.3.9.4-.5 1.4-1 2.9-1.5 4.4zm.2-10.1.6-.6c.7.5 1.3 1.1 1.9 1.6l-.7.7c-.6-.6-1.2-1.2-1.8-1.7zm8.4-.8h.8v.9h1.8v.7h-1.8v1.8h-.8v-.3h-1.2v.9h3.3v2.6h-.8v-.4h-2.5c0 .3 0 .6-.1.8h3.4v.7h-3.5c0 .3-.1.6-.1.8h4v.7h-3.5c.7.9 1.9 1.3 3.6 1.5-.2.2-.4.5-.6.9-1.9-.3-3.2-1.1-3.8-2.3-.5 1.1-1.8 2-3.9 2.4-.2-.3-.4-.5-.6-.8 1.9-.4 3.1-.9 3.6-1.7h-3.2v-.7h3.5c.1-.2.1-.5.2-.8h-3.3v-.7h3.4c0-.2 0-.5 0-.8h-2.4v.3h-.8v-2.6h3.3v-.9h-1.2v.3h-.8v-1.8h-1.8v-.7h1.8v-.9h.8v.9h3.2zm-4.4 5.5h2.4c0-.3 0-.6 0-.9h-2.4zm1.2-3.1h3.2v-.8h-3.2zm4.4 2.2h-2.4v.9h2.5v-.9z"/><path d="m389.2 385.8h.9v1.5h1.9v-1.5h.9v1.5h2.7v6h1.1v.9h-11.3v-.9h1.1v-6h2.7zm.2 8.7.5.8c-1.2.6-2.5 1.3-4 1.9-.2-.3-.3-.6-.6-.8 1.6-.6 3-1.3 4.1-1.9zm-2-4.3h1.9v-2.1h-1.9zm0 3.1h1.9v-2.2h-1.9zm2.7-3.1h1.9v-2.1h-1.9zm0 3.1h1.9v-2.2h-1.9zm2.4 1.3c1.4.6 2.7 1.2 4.1 1.8l-.5.9c-1.5-.7-2.8-1.4-4.1-1.9zm2.2-6.5h-1.9v2.1h1.9zm-1.9 5.2h1.9v-2.2h-1.9z"/></g></svg>