<svg enable-background="new 0 0 400 400" viewBox="0 0 400 400" xmlns="http://www.w3.org/2000/svg"><g fill="#010103"><path d="m190.5 234.26c-4.83 1.37-9.35 2.56-13.8 3.97-.83.26-1.52 1.27-2.09 2.06-8.85 12.21-10.48 25.94-7.96 40.31 3.22 18.37 8.91 35.94 17.12 52.77 3.01 6.16 4.79 12.98 6.56 19.65 1.47 5.56-.61 8.67-4.9 8.36-1.37-.1-3.19-.91-3.88-1.99-3.18-4.96-6.77-9.84-8.87-15.27-7.93-20.54-15.04-41.37-19.47-63.03-3.32-16.24-1.55-31.67 6.85-45.99 1.88-3.2 5.39-5.55 8.44-7.92 7.96-6.19 17.47-8.82 27.03-11.28 2.81-.72 6.5-.79 8.1-2.63 1.57-1.8 1.08-5.46 1.36-8.32.39-3.9.65-7.81.96-11.71.03-.44 0-.88 0-2.2-5.96-.59-11.88-1.42-17.83-1.7-5.24-.24-10.15-1.1-14.72-3.84-6.26-3.75-10.01-9.11-11.14-16.31-2.67-17.03-5.3-34.05-4.11-51.4.76-11.04 2.77-21.74 8.18-31.53.86-1.55 2.26-3.29 3.81-3.87 5.1-1.88 10.32-3.54 15.61-4.76 3.5-.81 5.55-2 5.56-6.01.02-8.7.49-17.39.54-26.09.04-7.17 1.27-13.98 4.7-20.28 6.37 1.05 10.16 5.43 10.05 12.63-.1 6.35-1.2 12.68-1.54 19.04-.23 4.34.11 8.7.13 13.05.01 4.18 2.48 6.3 6.15 7.27 3.13.82 6.34 1.34 9.49 2.06 6 1.38 10.43 4.5 13 10.43 4.03 9.3 5.82 19.03 6.19 29.03.57 15.35-.11 30.69-2.74 45.83-1.42 8.19-4.67 15.62-12.71 19.74-4 2.05-5.35 5.23-5.33 9.77.04 6.81-.39 13.68-1.36 20.41-.41 2.84-2.56 5.51-4.23 8.06-.75 1.14-2.15 2.02-3.45 2.61-5.42 2.49-6.65 6.86-5.44 12.15 2.91 12.62 5.27 25.43 9.17 37.74 4.64 14.68 10.82 28.87 15.94 43.42 1.04 2.94.72 6.56.23 9.75-.21 1.34-2.35 3.05-3.86 3.34-1.31.25-3.69-.86-4.34-2.06-4.48-8.22-9.48-16.31-12.7-25.04-5.79-15.7-10.71-31.74-15.43-47.8-1.71-5.83-1.77-12.15-2.6-18.24-.16-1.3-.4-2.58-.67-4.18zm-16.99-95.23c-.66 8.27-1.04 16.72 1.1 25.08 1.6 6.23 5.03 10.26 11.87 11.42 7.98 1.35 15.85 2.72 23.85.5 7.49-2.07 10.2-5.24 11.07-12.89.13-1.11.31-2.21.45-3.32.89-6.71 1.78-13.43 2.75-20.8-17.15.01-33.85.01-51.09.01zm52.14-14.61c-.33-6.44-.6-11.88-.89-17.33-.04-.78-.08-1.57-.23-2.33-1.72-8.68-6.85-14.07-14.38-14.54-7.13-.44-14.29-.66-21.44-.55-5.67.09-10.84 3.12-12.66 7.96-2.84 7.57-3.89 15.81-3.03 24.09.21 2.02.85 2.93 3.09 2.86 5.81-.19 11.63-.15 17.44-.16 10.5-.01 21 0 32.1 0z"/><path d="m270.13 113.83c-.56 8.52-.77 16.22-1.64 23.84-2.26 19.77-4.72 39.51-10.64 58.64-1.95 6.29-3.36 12.75-5.02 19.12-1.24 4.73-3.67 8.32-8.78 9.57-2.45.6-4.23-.09-4.3-2.6-.15-5.43-.74-11.04.36-16.26 2.25-10.7 5.21-21.27 8.4-31.73 3.16-10.35 5.06-20.85 5.61-31.61.34-6.59.2-13.21.6-19.8.46-7.57 1.36-15.11 1.88-22.68.13-1.9.03-4.07-.75-5.75-4.43-9.62-8.17-19.35-7.98-30.19.21-11.62 2.57-22.65 8.83-32.58 1.29-2.04 2.97-4.49 5.02-5.21 2.02-.71 4.91.12 7.08 1.05 2.35 1.01 2.68 3.53 1.81 5.82-1.39 3.65-3.01 7.22-4.57 10.8-8.43 19.33-3.51 43.35 11.93 57.73 6.38 5.95 12.86 11.8 19.32 17.67 8.66 7.86 12.72 18.02 14.13 29.27 1.87 14.93.97 29.81-3.96 44.08-2.87 8.31-6.94 16.19-13.11 22.76-8.23 8.78-15.37 18.33-20.24 29.44-6.22 14.17-5.22 28.53-1.28 43.01 3.79 13.93 10.59 26.53 17.1 39.27 5.39 10.55 10.95 21.02 16.1 31.69 1.51 3.12 2.11 6.76 2.68 10.23.36 2.2-.04 4.81-2.69 5.53-2.67.72-5.48.39-7.25-2.14-3.21-4.57-6.82-8.97-9.25-13.94-8.74-17.86-17.35-35.8-25.44-53.96-4.77-10.71-8.54-21.89-9.17-33.81-.74-14.25 3.86-27.12 10.86-39.18 1.92-3.31 5.2-5.82 7.73-8.8 11.67-13.73 19.81-29.17 22.68-47.14 2.22-13.89.34-27.41-3.72-40.72-.22-.71-.69-1.43-1.24-1.94-6.77-6.31-13.6-12.59-21.09-19.48z"/><path d="m126 25.67c6.91 1.33 10.64 5.77 13.2 11.37 6.25 13.73 6.77 27.86 2.61 42.25-.09.32-.17.65-.31.96-4.77 10.21-5.52 20.74-4.13 31.93 2.23 17.98 2.92 36.15 5.21 54.12 1.09 8.55 4.45 16.79 6.61 25.22 1.88 7.34 3.59 14.73 5.22 22.13.35 1.59.11 3.35-.01 5.01-.44 6.08-.47 5.98-6.4 6.03-2.02.02-2.93-.81-3.85-2.44-7.19-12.75-10.59-26.68-13.49-40.88-3.98-19.49-5.66-39.17-6.06-59-.04-2.12-.25-4.25-.4-6.37-.02-.32-.16-.63-.43-1.66-1.65.97-3.32 1.57-4.48 2.7-6.26 6.09-12.4 12.3-18.55 18.5-.61.61-1.34 1.37-1.47 2.15-1.74 11.03-4.12 21.98-3.07 33.3 1.22 13.14 6.12 24.98 12.81 36.03 4.26 7.04 9.88 13.24 14.6 20.02 10.21 14.63 16.11 30.61 14.51 48.79-.74 8.36-3.65 16.08-6.69 23.79-9.75 24.71-21.74 48.3-35.37 71.08-.82 1.38-2.13 2.63-3.49 3.49-3.68 2.31-6.6 1-7.73-3.19-1.27-4.7.48-8.74 2.56-12.8 8.04-15.72 16.36-31.31 23.86-47.29 4.59-9.77 8.14-20.06 11.67-30.28 4.15-12.02 1.29-23.45-4.44-34.24-2.82-5.31-6.3-10.29-9.67-15.28-4.94-7.32-10.08-14.51-15.09-21.79-7.52-10.95-10.24-23.45-11.38-36.37-1.35-15.4.64-30.36 6.63-44.68.66-1.58 1.69-3.15 2.91-4.35 7.26-7.14 14.71-14.1 21.94-21.27 8.29-8.22 14.02-17.95 16.45-29.46 1.55-7.33.19-14.45-1.85-21.5-1.37-4.72-2.96-9.38-4.04-14.16-.89-3.97-.41-7.96 1.61-11.86z"/></g><path d="m385.2 377.6.6-.7c.6.4 1.3.9 1.9 1.5l-.6.7c-.8-.5-1.4-1-1.9-1.5zm.3 7.1c.6-1.4 1.1-2.9 1.5-4.5.3.1.6.3.9.4-.5 1.4-1 2.9-1.5 4.4zm.2-10.1.6-.6c.7.5 1.3 1.1 1.9 1.6l-.7.7c-.6-.6-1.2-1.2-1.8-1.7zm8.4-.8h.8v.9h1.8v.7h-1.8v1.8h-.8v-.3h-1.2v.9h3.3v2.6h-.8v-.4h-2.5c0 .3 0 .6-.1.8h3.4v.7h-3.5c0 .3-.1.6-.1.8h4v.7h-3.5c.7.9 1.9 1.3 3.6 1.5-.2.2-.4.5-.6.9-1.9-.3-3.2-1.1-3.8-2.3-.5 1.1-1.8 2-3.9 2.4-.2-.3-.4-.5-.6-.8 1.9-.4 3.1-.9 3.6-1.7h-3.2v-.7h3.5c.1-.2.1-.5.2-.8h-3.3v-.7h3.4c0-.2 0-.5 0-.8h-2.4v.3h-.8v-2.6h3.3v-.9h-1.2v.3h-.8v-1.8h-1.8v-.7h1.8v-.9h.8v.9h3.2zm-4.4 5.5h2.4c0-.3 0-.6 0-.9h-2.4zm1.2-3.1h3.2v-.8h-3.2zm4.4 2.2h-2.4v.9h2.5v-.9z" fill="#fcfbfa"/><path d="m389.2 385.8h.9v1.5h1.9v-1.5h.9v1.5h2.7v6h1.1v.9h-11.3v-.9h1.1v-6h2.7zm.2 8.7.5.8c-1.2.6-2.5 1.3-4 1.9-.2-.3-.3-.6-.6-.8 1.6-.6 3-1.3 4.1-1.9zm-2-4.3h1.9v-2.1h-1.9zm0 3.1h1.9v-2.2h-1.9zm2.7-3.1h1.9v-2.1h-1.9zm0 3.1h1.9v-2.2h-1.9zm2.4 1.3c1.4.6 2.7 1.2 4.1 1.8l-.5.9c-1.5-.7-2.8-1.4-4.1-1.9zm2.2-6.5h-1.9v2.1h1.9zm-1.9 5.2h1.9v-2.2h-1.9z" fill="#fcfbfa"/></svg>