<svg enable-background="new 0 0 400 400" viewBox="0 0 400 400" xmlns="http://www.w3.org/2000/svg"><path d="m361.2 9.6.8-1c.9.7 1.9 1.4 2.9 2.3l-.9 1.1c-1-1-2-1.8-2.8-2.4zm.5 10.6c.9-2.1 1.6-4.3 2.3-6.7.4.2.8.4 1.3.6-.7 2.1-1.5 4.3-2.2 6.6zm.4-15.2.9-.9c1 .8 2 1.6 2.8 2.4l-1 1c-.9-.9-1.8-1.7-2.7-2.5zm12.5-1.2h1.2v1.4h2.7v1.1h-2.7v2.7h-1.2v-.6h-1.8v1.3h4.9v3.8h-1.2v-.5h-3.7c0 .4-.1.9-.1 1.2h5.1v1h-5.2c0 .5-.1.9-.2 1.2h6v1h-5.2c1.1 1.3 2.9 2 5.5 2.2-.4.4-.7.8-.9 1.3-2.9-.5-4.8-1.6-5.7-3.5h-.1c-.8 1.7-2.7 2.9-5.9 3.6-.2-.4-.6-.8-.9-1.1 2.8-.6 4.6-1.4 5.4-2.5h-4.8v-1h5.3c.1-.3.2-.7.2-1.2h-4.9v-1h5c0-.4 0-.8.1-1.2h-3.5v.5h-1.2v-3.8h4.9v-1.3h-1.8v.5h-1.2v-2.7h-2.7v-1h2.6v-1.4h1.2v1.4h4.7v-1.4zm-6.6 8.3h3.6c0-.4 0-.9 0-1.4h-3.6zm1.9-4.6h4.7v-1.3h-4.7zm6.6 3.2h-3.7v1.4h3.7z" fill="#fbfcfa"/><path d="m385.3 3.8h1.3v2.2h2.8v-2.2h1.3v2.2h4.1v9.1h1.7v1.3h-16.9v-1.3h1.7v-9.1h4.1v-2.2zm.4 13.1.7 1.2c-1.8.9-3.8 1.9-6 2.9-.2-.4-.5-.8-.8-1.3 2.3-1 4.3-1.9 6.1-2.8zm-3.1-6.4h2.8v-3.2h-2.8zm0 4.6h2.8v-3.3h-2.8zm4-4.6h2.8v-3.2h-2.8zm0 4.6h2.8v-3.3h-2.8zm3.7 1.9c2.1.9 4.1 1.8 6.1 2.7l-.7 1.3c-2.2-1.1-4.2-2-6.1-2.9zm3.2-9.7h-2.8v3.2h2.8zm-2.8 7.8h2.8v-3.3h-2.8z" fill="#fbfcfa"/><g fill="#010102"><path d="m108.66 118.85c3.05 12.57 2.94 24.91 3.9 37.16.55 7.09 1.88 14.15 3.36 21.11 1.44 6.78 5.65 11 12.91 11.61 1.75.15 3.48.56 5.39.88 2.19-8.89 2.35-17.71 1.95-26.53-.55-12.18-1.73-24.33-1.98-36.51-.18-8.31 1.72-16.39 6.06-23.77 5.46 2.37 7.11 6.72 7.13 12 .06 13.66.07 27.31.18 40.97.08 10.52.27 21.04.42 31.56.01.65.11 1.3.2 2.33 4.31-.88 8.44-1.66 12.53-2.64.86-.21 1.66-1.07 2.28-1.81 5.28-6.34 7.88-13.68 8.03-21.92.19-10.29.23-20.59.71-30.87.16-3.39 1.23-6.82 2.42-10.03.53-1.43 2.23-2.81 3.73-3.41 3.23-1.3 4.32-.55 5.18 2.83 5.08 19.97 4.94 39.79-1.14 59.59-3.83 12.47-12.04 19.08-24.89 20.34-8.74.85-9.09 1.23-9.32 9.99-.13 5.02-.02 10.04-.02 15.78 6.06.14 12.27.37 18.48.41 6.93.05 13.87-.34 20.78-.01 4.77.23 9.23 1.83 11.96 6.34 1.15 1.9 1.16 3.25-.95 4.69-5.35 3.66-11.28 4.65-17.55 4.46-8.94-.28-17.88-.65-26.83-.83-5.31-.11-6.27.97-6.27 6.19 0 29.45-.02 58.9.02 88.35.01 6.71.38 13.43.31 20.14-.02 2.39-.27 5.14-1.47 7.06-.98 1.57-3.43 2.6-5.42 3.08-2.31.56-3.41-1.62-3.8-3.43-.87-4.13-1.9-8.33-1.91-12.51-.15-34.37-.12-68.75-.03-103.13.01-2.93-.53-4.01-3.78-4.65-8.08-1.59-16.07-.07-24.08-.29-5.13-.14-10.29-.15-15.36-.83-2.11-.28-4.42-1.79-5.9-3.41-3.29-3.58-2.47-7.16 2.11-8.49 4.77-1.39 9.78-2.46 14.73-2.64 10.59-.39 21.2-.12 32.01-.12 0-8.06 0-15.18 0-22.74-2.94-.71-6-1.73-9.15-2.17-13.65-1.9-20.7-10.49-23.6-23.18-4.32-18.9-4.47-37.94-1.32-57.01.18-1.07 1.51-2.3 2.6-2.78 1.56-.69 3.41-.76 5.39-1.16z"/><path d="m306.04 364.68c-2.28-12.39-5.22-24.49-6.62-36.77-3.79-33.35-6.92-66.78-10.32-100.18-.12-1.21-.37-2.4-.62-3.94-3.75.8-7.28 1.89-10.88 2.25-10.1 1.03-20.21 2.09-30.35 2.51-6.48.27-10.13-2.82-10.7-7.45-.34-2.7.18-4.43 3.46-4.69 9.58-.74 19.18-1.47 28.7-2.71 4.58-.6 9.08-2.14 13.48-3.64 3.01-1.03 4.41-3.68 3.51-6.76-2.4-8.24-5.02-16.43-7.72-24.58-.33-.99-1.64-1.78-2.65-2.4-7.96-4.86-16.74-6.66-25.94-6.9-3.57-.09-7.19-.11-10.68-.73-2.33-.41-4.8-1.43-6.65-2.88-4.23-3.32-3.52-7.23 1.36-9.21 5.55-2.26 11.42-2.7 17.17-1.75 9.68 1.59 19.28 3.73 28.87 5.85 1.59.35 3.42 1.48 4.32 2.81 3.39 4.95 6.48 10.12 9.61 15.25.74 1.22 1.2 2.61 2.57 3.96.62-4.17 1.57-8.33 1.79-12.52.77-15.13.48-30.24-3.25-45.04-.46-1.83-1.9-3.8-3.45-4.92-7.65-5.52-16.51-5.31-25.44-5.17-7.81.12-15.64-.29-23.44-.74-4.44-.26-6.21-2.35-6.18-6.33.03-4.23 2.12-6.99 6.36-7.01 14.98-.08 29.99-.45 44.79 2.66 13.52 2.84 20.42 11.6 22.99 24.75 3.11 15.89 2.1 31.86 1.74 47.86-.25 11.21-4.03 21.2-9.03 30.9-1.62 3.14-1.81 6.2-1.38 9.65 2.99 23.64 5.78 47.3 8.67 70.95 1.85 15.1 3.75 30.19 5.65 45.28 1.15 9.14 1.71 18.25.11 27.42-.44 2.54-1.51 3.7-4.04 3.72-1.55.01-3.1.25-5.81.5z"/><path d="m313.31 70c-6.15 3.62-12.69 5.7-19.52 5.92-9.59.31-19.21-.48-28.8-.23-9.93.26-19.94.53-29.71 2.07-6.25.99-9.34 6.8-10.37 12.79-1.03 6.04-1.54 12.22-1.63 18.35-.41 27.76-.89 55.53-.79 83.29.11 30.89.79 61.78 1.27 92.67.3 19.4-.91 38.69-3.93 57.88-1.2 7.62-1.97 15.31-3.14 22.94-.33 2.16-1.07 4.38-2.12 6.3-1.71 3.13-5.51 4.23-8.72 2.66-.75-.37-1.5-1.63-1.49-2.48.1-20.16 1.02-40.28 3.84-60.27.22-1.54.32-3.12.32-4.68.02-47.93 0-95.85.02-143.78.01-17.13-.15-34.26.18-51.38.26-13.09 2.86-25.78 8.72-37.62.78-1.57 2.23-3.05 3.74-3.96 10.03-6.05 21.29-8.35 32.68-9.03 14.49-.87 29.05-.75 43.57-.75 3.15 0 6.38 1.07 9.42 2.11 3.17 1.1 5.5 3.38 6.46 7.2z"/><path d="m119.75 24.99c7.47 1.76 11.15 6.69 12.64 13.12 2.97 12.85 2.97 25.73-1.5 38.31-.83 2.32-2.34 4.64-4.13 6.34-10.53 10-22.05 18.58-36.11 23.05-2.54.81-5.21 1.22-7.83 1.76-2.31.47-4.45.05-5.09-2.48-.63-2.47-.92-5.16 1.68-6.94 2.95-2.02 5.94-3.98 8.91-5.97 9.39-6.26 18.75-12.57 28.19-18.74 1.8-1.18 2.49-2.44 2.5-4.61.07-13.08.3-26.16.5-39.25.02-1.41.15-2.83.24-4.59z"/><path d="m149.64 60.5c.34-10.44 1.92-20.71 5.61-30.5.75-1.99 3.18-4.46 5.06-4.66 2.96-.31 5.71 2.14 6.18 5.16.59 3.78.5 7.75.1 11.58-.77 7.2-2.02 14.35-2.97 21.54-.57 4.26 1.04 7.82 4.55 10.14 6.5 4.29 13.17 8.31 19.79 12.42 4.53 2.82 9.4 5.2 13.49 8.55 2.32 1.9 3.6 5.24 4.91 8.14 1.11 2.45-.05 4.38-2.85 4.04-4.04-.48-8.45-.65-11.95-2.43-14.06-7.15-27.97-14.87-38-27.45-2.59-3.25-2.74-8.49-3.87-12.85-.3-1.16-.05-2.45-.05-3.68z"/></g></svg>