<svg enable-background="new 0 0 400 400" viewBox="0 0 400 400" xmlns="http://www.w3.org/2000/svg"><path d="m189.94 189.47c.36-21.88.71-43.45 1.07-65.43-1.32-.06-2.5-.16-3.68-.17-12.43-.08-24.86-.14-37.29-.23-17.13-.13-34.25-.29-51.38-.44-7.15-.06-14.31.09-21.45-.27-6.67-.33-9.82-3.02-10.78-8.07-.39-2.02.19-3.06 2.16-3.77 9.4-3.39 19.19-4.6 29.04-4.61 29.33-.01 58.66.36 87.99.59 1.32.01 2.64 0 4.75 0 .1-10.66.18-21.02.31-31.37.14-11.07.12-22.15.57-33.21.27-6.75 2.8-12.71 6.8-17.91 1.86 2.69 4.3 4.92 5.09 7.63 1.63 5.64 3.25 11.52 3.33 17.32.24 17.56-.25 35.14-.46 52.71-.01 1.21 0 2.43 0 4.37 4.87 0 9.52-.02 14.17 0 28.55.14 57.1.24 85.65.5 4.79.04 9.59.7 14.36 1.26 1.51.18 3.07.75 4.41 1.49 2.5 1.38 3.24 3.76 3.35 6.52s-1.48 4.32-3.72 4.87c-4.18 1.02-8.48 2.25-12.73 2.26-24.29.07-48.59-.21-72.88-.33-9.29-.05-18.59-.01-27.89-.01-1.21 0-2.41 0-4.18 0v65.73c4.35 0 8.91-.04 13.47.01 21.83.25 43.65.46 65.48.83 4.12.07 8.26.65 12.34 1.31 3.16.51 5.68 2.14 6.24 5.67.47 2.94.2 5.1-3.29 6.55-9.43 3.91-19.16 3.87-29.04 3.4-11.4-.55-22.81-1.22-34.21-1.23-36.39-.03-72.78.14-109.17.43-11.11.09-22.12-.25-33.03-2.6-2.22-.48-2.89-1.33-2.99-3.49-.28-5.92-.38-5.95 5.29-7.83 11.38-3.76 23.14-3.52 34.9-3.29 18.57.36 37.15.68 55.72 1.01.42.03.85-.09 1.68-.2z" fill="#010103"/><path d="m198.51 273.01c17.47 0 34.94-.09 52.41.08 3.31.03 4.15-1.03 4.17-4.15.06-10.41.21-20.82.7-31.21.16-3.37 1.05-6.85 2.32-10 1.34-3.31 4.39-4.28 7.83-3.53 1.94.42 2.98 1.36 3.58 3.38 3.58 12.11 2.9 24.33 1.37 36.61-.21 1.66-.48 3.34-.42 5.01.98 27.15-2.13 54.09-4.25 81.08-.49 6.3-3.79 10.89-9.04 14.76-8.7 6.42-18.66 7.58-28.79 8.51-18.52 1.7-37.1 2.96-55.61.66-9.93-1.24-19.69-3.89-29.48-6.1-1.33-.3-2.66-1.6-3.54-2.77-7.68-10.19-11.64-21.93-13-34.42-2.63-24.21-1.81-48.51-1-72.78.33-9.84 1.14-19.67 1.38-29.51.08-3.33 2.39-4.52 4.46-5.59.87-.45 3.18.98 4.3 2.09 5.73 5.69 5.91 12.89 5.3 20.34-.52 6.34-.77 12.71-1.12 19.06-.02.44.04.9.09 1.34.8 6.7 1.3 7.15 7.96 7.15 16.79-.01 33.58-.01 50.38-.01zm56.15 14.86c-37.6 0-74.84 0-112.71 0-.41 13.11-1.29 26.07-1.04 39 .13 6.47 2.1 12.95 3.65 19.32 1.27 5.21 4.34 8.89 10.22 9.38 1.54.13 3.03.8 4.56 1.09 20.82 3.95 41.81 4.56 62.86 2.6 9.16-.85 18.17-2.61 26.47-6.88 1.08-.56 2.31-1.58 2.67-2.66 1.2-3.59 2.69-7.27 2.89-10.98.67-12.38.92-24.79 1.12-37.19.07-4.54-.44-9.1-.69-13.68z" fill="#010103"/><g fill="#fcfbfa"><path d="m385.2 377.6.6-.7c.6.4 1.3.9 1.9 1.5l-.6.7c-.8-.5-1.4-1-1.9-1.5zm.3 7.1c.6-1.4 1.1-2.9 1.5-4.5.3.1.6.3.9.4-.5 1.4-1 2.9-1.5 4.4zm.2-10.1.6-.6c.7.5 1.3 1.1 1.9 1.6l-.7.7c-.6-.6-1.2-1.2-1.8-1.7zm8.4-.8h.8v.9h1.8v.7h-1.8v1.8h-.8v-.3h-1.2v.9h3.3v2.6h-.8v-.4h-2.5c0 .3 0 .6-.1.8h3.4v.7h-3.5c0 .3-.1.6-.1.8h4v.7h-3.5c.7.9 1.9 1.3 3.6 1.5-.2.2-.4.5-.6.9-1.9-.3-3.2-1.1-3.8-2.3-.5 1.1-1.8 2-3.9 2.4-.2-.3-.4-.5-.6-.8 1.9-.4 3.1-.9 3.6-1.7h-3.2v-.7h3.5c.1-.2.1-.5.2-.8h-3.3v-.7h3.4c0-.2 0-.5 0-.8h-2.4v.3h-.8v-2.6h3.3v-.9h-1.2v.3h-.8v-1.8h-1.8v-.7h1.8v-.9h.8v.9h3.2zm-4.4 5.5h2.4c0-.3 0-.6 0-.9h-2.4zm1.2-3.1h3.2v-.8h-3.2zm4.4 2.2h-2.4v.9h2.5v-.9z"/><path d="m389.2 385.8h.9v1.5h1.9v-1.5h.9v1.5h2.7v6h1.1v.9h-11.3v-.9h1.1v-6h2.7zm.2 8.7.5.8c-1.2.6-2.5 1.3-4 1.9-.2-.3-.3-.6-.6-.8 1.6-.6 3-1.3 4.1-1.9zm-2-4.3h1.9v-2.1h-1.9zm0 3.1h1.9v-2.2h-1.9zm2.7-3.1h1.9v-2.1h-1.9zm0 3.1h1.9v-2.2h-1.9zm2.4 1.3c1.4.6 2.7 1.2 4.1 1.8l-.5.9c-1.5-.7-2.8-1.4-4.1-1.9zm2.2-6.5h-1.9v2.1h1.9zm-1.9 5.2h1.9v-2.2h-1.9z"/></g></svg>