<svg enable-background="new 0 0 400 400" viewBox="0 0 400 400" xmlns="http://www.w3.org/2000/svg"><path d="m220.41 327.97c.35-44.39.7-88.66 1.05-133.82-5.37 0-10.47.1-15.57-.02-10.29-.23-20.57-.59-30.86-.87-4.26-.12-8.18-1.2-11.52-3.95-3.37-2.77-4.07-8.12-1.39-11.5.53-.67 1.68-1.12 2.58-1.17 9.58-.61 19.16-1.19 28.75-1.63 7.7-.35 15.4-.53 23.1-.74 2.31-.06 2.76-1.3 2.99-3.42 2.84-25.59 1.07-51.2.62-76.81-.26-14.62 1.05-29.03 5.92-42.98 1-2.85 2.38-3.22 4.9-2.2 5.07 2.06 6.9 6.23 7.13 11.18.26 5.91.09 11.83.09 17.75 0 30.56 0 61.12.01 91.68 0 .44.08.88.14 1.52 8.18 1.83 16.39 2.72 24.83 2.32 7.8-.37 15.66-.35 23.44.24 5.99.46 10.29 3.92 12.2 9.98.68 2.16.33 3.42-1.65 4.7-8.49 5.49-17.82 6.07-27.46 5.03-8.77-.94-17.5-2.57-26.4-1.11-2.85.47-4.04 1.41-4.05 4.62-.13 31.45-.45 62.9-.72 94.35-.09 10.52-.19 21.04-.29 31.56-.01 1.22 0 2.43 0 4.45 3.85 0 7.49-.05 11.12.01 22.15.36 44.3.62 66.45 1.21 4.16.11 8.41 1.19 12.4 2.49 4.42 1.43 6.88 7.46 5.2 11.72-.32.82-1.29 1.49-2.1 1.99-6.41 3.93-13.57 5.64-20.89 5.07-40.47-3.14-81-1.5-121.5-1.84-12.86-.11-25.73.68-38.57.24-7.76-.27-15.47-2.06-23.17-3.33-.79-.13-1.87-1.23-2.03-2.03-.5-2.51-.83-5.1-.78-7.66.02-.88 1.21-2.23 2.13-2.51 5.53-1.67 11.08-4.1 16.72-4.39 13.61-.69 27.27-.43 40.91-.38 11.41.04 22.82.33 34.23.5.53.02 1.07-.12 2.04-.25z" fill="#010103"/><path d="m65.44 112.26c7.52 1.69 11.56 7.12 11.45 16.21-.08 6.46-1.31 12.91-1.52 19.38-.23 7.24.09 14.5.25 21.75.02.96.46 1.92.73 2.96 21.31.34 42.43.68 64.1 1.03.28-6.3.68-12.3.8-18.3.18-9.17-.01-18.36.34-27.52.12-3.04 1.11-6.16 2.28-9.02.71-1.73 2.27-3.38 3.87-4.42 3.62-2.34 6.78-1.44 8.07 2.58 1.46 4.53 2.97 9.28 3.03 13.96.22 15.77-.08 31.55-.39 47.32-.4 20.02-.28 40.09-1.78 60.04-1.01 13.41-4.4 26.64-6.85 39.93-.24 1.3-1.14 2.67-2.11 3.63-8.25 8.18-18.33 12.34-29.85 12.58-14.1.29-27.88-1.75-40.97-7.31-1.42-.6-2.86-1.77-3.68-3.06-7.02-10.99-10.73-23.32-11.46-36.09-1.24-21.54-1.42-43.14-1.78-64.72-.25-15.33.08-30.66-.12-45.99-.12-8.76 1.19-17.09 5.59-24.94zm75.26 81.54c-1.16-.33-1.47-.5-1.78-.5-19.8-.02-39.6-.02-59.4-.07-1.97-.01-2.46.9-2.51 2.65-.43 14.86-1.22 29.72-1.24 44.58-.01 9.54 1.92 18.88 6.5 27.48 1.16 2.17 2.6 3.57 5.08 4.38 10.54 3.45 21.29 3.9 32.14 2.36 6.04-.86 11.73-3.01 16.37-7.14 1.17-1.04 2.18-2.87 2.29-4.4.98-13.72 1.94-27.45 2.48-41.19.37-9.36.07-18.74.07-28.15z" fill="#010103"/><g fill="#fcfbfa"><path d="m385.2 377.6.6-.7c.6.4 1.3.9 1.9 1.5l-.6.7c-.8-.5-1.4-1-1.9-1.5zm.3 7.1c.6-1.4 1.1-2.9 1.5-4.5.3.1.6.3.9.4-.5 1.4-1 2.9-1.5 4.4zm.2-10.1.6-.6c.7.5 1.3 1.1 1.9 1.6l-.7.7c-.6-.6-1.2-1.2-1.8-1.7zm8.4-.8h.8v.9h1.8v.7h-1.8v1.8h-.8v-.3h-1.2v.9h3.3v2.6h-.8v-.4h-2.5c0 .3 0 .6-.1.8h3.4v.7h-3.5c0 .3-.1.6-.1.8h4v.7h-3.5c.7.9 1.9 1.3 3.6 1.5-.2.2-.4.5-.6.9-1.9-.3-3.2-1.1-3.8-2.3-.5 1.1-1.8 2-3.9 2.4-.2-.3-.4-.5-.6-.8 1.9-.4 3.1-.9 3.6-1.7h-3.2v-.7h3.5c.1-.2.1-.5.2-.8h-3.3v-.7h3.4c0-.2 0-.5 0-.8h-2.4v.3h-.8v-2.6h3.3v-.9h-1.2v.3h-.8v-1.8h-1.8v-.7h1.8v-.9h.8v.9h3.2zm-4.4 5.5h2.4c0-.3 0-.6 0-.9h-2.4zm1.2-3.1h3.2v-.8h-3.2zm4.4 2.2h-2.4v.9h2.5v-.9z"/><path d="m389.2 385.8h.9v1.5h1.9v-1.5h.9v1.5h2.7v6h1.1v.9h-11.3v-.9h1.1v-6h2.7zm.2 8.7.5.8c-1.2.6-2.5 1.3-4 1.9-.2-.3-.3-.6-.6-.8 1.6-.6 3-1.3 4.1-1.9zm-2-4.3h1.9v-2.1h-1.9zm0 3.1h1.9v-2.2h-1.9zm2.7-3.1h1.9v-2.1h-1.9zm0 3.1h1.9v-2.2h-1.9zm2.4 1.3c1.4.6 2.7 1.2 4.1 1.8l-.5.9c-1.5-.7-2.8-1.4-4.1-1.9zm2.2-6.5h-1.9v2.1h1.9zm-1.9 5.2h1.9v-2.2h-1.9z"/></g></svg>