<svg enable-background="new 0 0 400 400" viewBox="0 0 400 400" xmlns="http://www.w3.org/2000/svg"><path d="m361.2 9.6.8-1c.9.7 1.9 1.4 2.9 2.3l-.9 1.1c-1-1-2-1.8-2.8-2.4zm.5 10.6c.9-2.1 1.6-4.3 2.3-6.7.4.2.8.4 1.3.6-.7 2.1-1.5 4.3-2.2 6.6zm.4-15.2.9-.9c1 .8 2 1.6 2.8 2.4l-1 1c-.9-.9-1.8-1.7-2.7-2.5zm12.5-1.2h1.2v1.4h2.7v1.1h-2.7v2.7h-1.2v-.6h-1.8v1.3h4.9v3.8h-1.2v-.5h-3.7c0 .4-.1.9-.1 1.2h5.1v1h-5.2c0 .5-.1.9-.2 1.2h6v1h-5.2c1.1 1.3 2.9 2 5.5 2.2-.4.4-.7.8-.9 1.3-2.9-.5-4.8-1.6-5.7-3.5h-.1c-.8 1.7-2.7 2.9-5.9 3.6-.2-.4-.6-.8-.9-1.1 2.8-.6 4.6-1.4 5.4-2.5h-4.8v-1h5.3c.1-.3.2-.7.2-1.2h-4.9v-1h5c0-.4 0-.8.1-1.2h-3.5v.5h-1.2v-3.8h4.9v-1.3h-1.8v.5h-1.2v-2.7h-2.7v-1h2.6v-1.4h1.2v1.4h4.7v-1.4zm-6.6 8.3h3.6c0-.4 0-.9 0-1.4h-3.6zm1.9-4.6h4.7v-1.3h-4.7zm6.6 3.2h-3.7v1.4h3.7z" fill="#fbfcfa"/><path d="m385.3 3.8h1.3v2.2h2.8v-2.2h1.3v2.2h4.1v9.1h1.7v1.3h-16.9v-1.3h1.7v-9.1h4.1v-2.2zm.4 13.1.7 1.2c-1.8.9-3.8 1.9-6 2.9-.2-.4-.5-.8-.8-1.3 2.3-1 4.3-1.9 6.1-2.8zm-3.1-6.4h2.8v-3.2h-2.8zm0 4.6h2.8v-3.3h-2.8zm4-4.6h2.8v-3.2h-2.8zm0 4.6h2.8v-3.3h-2.8zm3.7 1.9c2.1.9 4.1 1.8 6.1 2.7l-.7 1.3c-2.2-1.1-4.2-2-6.1-2.9zm3.2-9.7h-2.8v3.2h2.8zm-2.8 7.8h2.8v-3.3h-2.8z" fill="#fbfcfa"/><g fill="#010102"><path d="m253.62 179.53c-4.81 1.61-9.12 3.16-13.51 4.47-1.84.55-2.12 1.54-1.98 3.21.68 8.25 1.18 16.52 1.94 24.77.32 3.44-.13 6.47-1.71 9.65-8.21 16.51-17.35 32.69-23.99 49.83-9.58 24.73-13.29 50.53-7.4 77.02 1.24 5.56 2.23 11.21 2.8 16.87.26 2.62-.16 5.69-1.36 8-1.95 3.78-7.75 3.51-9.42-.41-1.59-3.75-2.81-7.78-3.38-11.81-1.37-9.74-2.47-19.53-3.31-29.33-2.03-23.92.78-47.21 10.78-69.19 4.01-8.82 9.43-17 14.12-25.52 4-7.27 7.67-14.74 8.47-23.14.33-3.48.03-7.12-.59-10.57-.71-3.93-2.09-7.73-3.34-12.17-5.4 1.96-10.58 3.92-15.82 5.7-4.42 1.5-8.84 3.26-13.41 4.02-4.4.74-6.39-1.58-6.4-6.01-.01-2.3.72-3.75 3.19-4.72 29.3-11.6 58.54-23.37 87.82-35.03 9.01-3.59 11.85-8.19 10.63-17.92-.72-5.76-.21-9.29 2.08-14.33 5.68.39 9.85 4.01 10.74 10.06 1.11 7.49.81 14.98-1.85 22.17-.44 1.2-1.61 2.4-2.76 3.01-8.36 4.51-16.76 8.98-25.26 13.22-2.73 1.36-3.9 3.24-3.58 6.07.88 7.78 4.07 14.6 9.25 20.4 5.88 6.58 12.08 12.88 17.94 19.48 7.12 8.03 7.03 17.16 2.88 26.35-1.99 4.4-4.78 8.56-7.78 12.37-8.5 10.79-16.47 21.83-19.16 35.68-1.26 6.46-.79 12.61 2 18.93 5.17 11.71 10.76 22.86 19.85 32.26 5.78 5.97 10.22 13.27 15.08 20.1 1.33 1.88 2.23 4.15 2.92 6.36.41 1.32.57 3.7-.14 4.19-1.49 1.03-3.66 1.59-5.49 1.48-1.5-.09-3.17-1.18-4.35-2.27-15.66-14.49-28.7-31.03-38.39-50.09-8.78-17.26-6.83-34.39 1.09-51.34 2.04-4.37 4.65-8.22 8.14-11.74 6.4-6.45 12.22-13.57 13.77-22.93 1.13-6.83-.64-13.06-5.63-18.17-6.1-6.24-12.24-12.46-18.18-18.86-1.44-1.55-2.5-3.64-3.17-5.66-1.54-4.67-2.72-9.43-4.13-14.46z"/><path d="m159.4 178.94c0-8.3-.08-16.77.04-25.23.05-3.22.3-6.48.96-9.61.34-1.62 1.5-3.31 2.77-4.45 3.46-3.1 7.08-2.26 8.44 2.1 1.02 3.27 1.81 6.75 1.86 10.15.25 16.78.31 33.57.25 50.35-.04 11.93-1.25 23.72-6.81 34.55-1.04 2.02-2.89 4-4.87 5.08-11.93 6.52-24.83 7.16-37.87 5.04-6.01-.97-11.84-3.14-17.66-5.02-1.27-.41-2.55-1.76-3.2-3.01-5.78-11.1-7.31-23.18-7.45-35.44-.2-16.9-.28-33.81.1-50.71.1-4.65 1.95-9.28 3.09-13.9.46-1.85 1.71-1.94 3.38-1.4 4.87 1.59 8.17 5.58 8.05 11.15-.1 4.89-1.29 9.75-1.51 14.64-.21 4.65.07 9.34.45 13.99.07.8 1.7 2.11 2.61 2.12 15.23.13 30.46.08 45.68.06.32.01.64-.16 1.69-.46zm-24.62 14.95c-7.28 0-14.55-.07-21.83.08-.99.02-2.79 1.11-2.8 1.73-.14 8.36-.35 16.75.13 25.09.38 6.63 4.07 10.88 11.08 11.57.66.07 1.31.31 1.97.42 9.21 1.63 18.37 2.51 27.48-.79 4.02-1.46 6.83-3.51 6.95-8.2.05-2.11.79-4.19.91-6.3.37-6.47.71-12.94.81-19.42.04-2.74-1.14-4.41-4.55-4.26-6.7.29-13.43.08-20.15.08z"/><path d="m294.28 52.99c0 2.91-.19 5.83.04 8.72.47 5.89-2.68 8.72-7.76 10.81-12.31 5.06-25.21 7.72-38.19 10.11-14.61 2.69-29.3 4.87-43.63 9.09-4.47 1.32-9.52 1.01-14.29.92-4.23-.08-3.54-4.57-5.07-7.02-.23-.37 1.46-2.64 2.62-3.07 5.72-2.14 11.46-4.36 17.37-5.8 23.78-5.79 47.62-11.38 71.48-16.84 3.61-.82 4.95-2.62 4.61-5.97-.34-3.44-.77-6.88-1.36-10.29-.98-5.69-.51-11.1 2.3-16.27 1.08-1.99 2.54-2.49 3.9-.93 2.14 2.46 4.75 5.06 5.55 8.03 1.62 5.99 2.15 12.28 3.13 18.44-.22.02-.46.05-.7.07z"/><path d="m296.89 97.61c1.04 8.83-2.96 14.44-10.46 18.79-14.19 8.23-29.58 13.06-45.23 17.32-10.98 3-21.96 5.99-33.04 8.58-4.62 1.08-9.49 1.08-14.24 1.59-3.13.33-5.11-1.1-5.15-4.18-.04-2.75.98-5.08 4.13-6.08 8.72-2.77 17.38-5.75 26.07-8.63 19.72-6.54 39.44-13.08 59.16-19.62 3.79-1.26 5.23-3.02 5.06-7.14-.12-2.76-.72-5.53-1.34-8.24-1.07-4.61 0-8.81 1.92-12.98.87-1.89 1.97-2.11 3.7-1.44 5.49 2.14 7.52 6.76 8.43 12.01.57 3.31.67 6.69.99 10.02z"/><path d="m133.21 69.83c-13.98 0-27.96-.22-41.93.11-5.79.14-8.87-5.43-5.79-9.77 1.48-2.09 5.19-3.38 8-3.6 6.56-.52 13.19-.17 19.79-.16 20.59.03 41.18.05 61.77.15 2.33.01 4.68.4 6.96.88 2.87.61 4.61 2.62 5.55 5.31.85 2.44.56 4.39-1.94 5.98-3.47 2.2-7.19 2.91-11.17 2.91-13.75 0-27.5 0-41.25 0 .01-.61.01-1.21.01-1.81z"/><path d="m86.15 109.22c4.72-.57 9.65-1.65 14.59-1.69 21.94-.19 43.88-.11 65.82-.05 3.35.01 6.72.23 10.03.73 1.8.27 3.74.97 5.18 2.06 4.09 3.1 3.54 6.75-1.13 8.5-10.62 4-21.72 3.85-32.81 3.66-16.2-.27-32.41-.58-48.61-.91-1.78-.04-3.57-.27-5.34-.55-7.94-1.26-9.13-2.95-7.73-11.75z"/></g></svg>