<svg enable-background="new 0 0 400 400" viewBox="0 0 400 400" xmlns="http://www.w3.org/2000/svg"><g fill="#010103"><path d="m226.67 238.08c-5.4 0-10.51.04-15.62-.01-14.77-.13-29.54-.24-44.31-.49-2.77-.05-5.57-.53-8.28-1.16-3.37-.79-5.19-3.3-4.72-6.69.17-1.23 1.28-2.76 2.39-3.37 4.67-2.58 9.68-3.41 15.11-3.39 35.93.18 71.87.09 107.8.09 9.5 0 19-.19 28.49.11 5.38.17 8.52 2.96 9.02 6.92.32 2.55-.24 4.38-3.1 5.41-7.85 2.84-15.94 3.17-24.14 3.09-15.76-.15-31.52-.18-47.28-.33-1.91-.02-2.87.48-3.02 2.54-.38 5.35-.92 10.69-1.43 16.43 5.45 1.78 10.92 3.57 16.4 5.34 10.48 3.38 17.22 13.91 15.31 24.81-1.02 5.8-3 11.43-4.53 17.14-2.29 8.52-2.83 17.11-1.93 25.93.58 5.62 3.6 9.44 7.21 13.15 6.03 6.19 13.47 10.23 21.12 14.02 3.78 1.87 7.55 4.02 10.75 6.72 2.6 2.2 4.32 5.42 6.62 8.43-5.49 3.66-10.62 3.95-15.5 1.93-17.05-7.04-32.12-16.71-41.57-33.31-4.27-7.51-5.64-15.43-3.64-23.92 2.46-10.45 4.63-20.96 7.26-31.36.95-3.78-.36-6.25-2.95-8.52-4.27-3.73-9.57-4.66-14.91-5.36-6.64-.87-12.78.09-18.4 4.28-4.83 3.6-9.96 6.86-15.21 9.83-7.75 4.38-11.58 11.37-14.48 19.37-4.18 11.52-4.05 23.5-4.53 35.44-.33 8.05-.44 16.12-.91 24.16-.14 2.38-.67 5.04-1.94 6.94-.97 1.44-3.38 2.51-5.22 2.63-2.32.16-3.78-1.44-4.45-4.07-3.96-15.6-3.67-31.24-.87-46.94 2.18-12.25 5.33-24.24 10.55-35.58.89-1.93 2.3-3.9 4.01-5.11 7.75-5.49 15.35-11.32 23.64-15.87 11.48-6.28 16.53-15.8 17.26-29.23z"/><path d="m298.97 75.68c-18.38 6.62-37.25 2.29-56.24 3.62v22.37c3.03 0 6.46-.04 9.89.01 13.98.17 27.97.29 41.95.61 3.89.09 7.79.67 11.63 1.35 1.43.25 2.96 1.17 3.98 2.23 2.88 3.01 2.25 5.64-1.39 7.47-7.66 3.85-15.9 3.16-24.04 3.11-28.87-.19-57.74-.52-86.62-.59-8.04-.02-16.08 1.03-24.12.92-4.03-.05-8.11-1.37-12.04-2.54-4.01-1.19-1.53-4.74-2.1-7.19-.53-2.31 1.48-2.34 2.92-2.73 10.52-2.88 21.26-2.37 32.01-2.17 10.5.2 21.01.04 31.87.04.48-7.24.96-14.33 1.46-21.85-1.69-.09-3.2-.22-4.71-.26-14.54-.35-29.08-.62-43.61-1.08-2.16-.07-4.4-.75-6.41-1.61-2.48-1.07-3.01-3.3-2.64-5.91.35-2.53 1.35-4.08 4.13-4.29 7.34-.56 14.66-1.51 22-1.82 9.38-.39 18.79-.36 28.18-.39 2.66-.01 3.99-1.09 3.95-3.7-.08-5.81-.16-11.61-.36-17.42-.19-5.68.76-11.11 2.95-16.36.79-1.89 1.81-2.16 3.61-1.56 5.72 1.9 8.32 6.98 7.43 14.05-.76 6.09-1.18 12.22-1.72 18.33-.07.77.09 1.56.13 2.34.18 3.05 1.54 4.48 4.85 4.4 9.38-.23 18.78-.34 28.16-.2 5.45.08 10.97.27 16.31 1.25 4.69.85 7.93 3.97 8.59 9.57z"/><path d="m133.06 139.95c0-5.78.04-11.9-.01-18.01-.05-4.92-.49-9.85-.25-14.76.31-6.51 3.77-10.24 9.93-11.35 2.86 3.94 4.74 8.46 4.69 13.3-.26 23.37-.24 46.77-1.51 70.1-.49 9.09-4.01 18.02-6.33 26.98-.33 1.26-1.51 2.44-2.57 3.36-9.16 7.99-20.07 9.82-31.72 8.65-2.87-.29-5.69-1.14-8.55-1.57-9.64-1.45-14.44-7.93-15.7-16.71-2.41-16.7-4.76-33.47-5.81-50.29-.86-13.79.12-27.71.44-41.56.06-2.77.45-5.63 1.29-8.26 1.06-3.31 2.97-4.91 6.48-3.27 5.03 2.36 7 6.61 6.88 11.69-.13 5.35-1.22 10.66-1.49 16.01-.23 4.44.02 8.92.31 13.37.05.82 1.34 2.22 2.08 2.24 13.53.33 27.06.49 40.59.67.17.01.37-.17 1.25-.59zm-42.55 14.37c0 11.5-.54 22.46.25 33.32.35 4.74 3.29 9.34 5.35 13.86.49 1.07 2.14 2.19 3.32 2.27 5.52.4 11.19 1.25 16.59.45 11.58-1.72 12.83-2.94 15.25-13.64 2.54-11.21 1.7-22.67.52-34.05-.24-2.3-1.61-2.23-3.25-2.23-8.95.03-17.89.01-26.84.01-3.56.01-7.12.01-11.19.01z"/><path d="m200.51 182.26c6.37.39 12.82.74 19.25 1.18 2.67.18 5.37.31 7.97.88 2.9.63 4.71 2.51 4.52 5.75-.17 2.96-1.27 5.1-4.59 5.56-7.08.98-14.12 2.56-21.22 2.97-15.97.93-31.99 1.4-47.76-2.34-4.73-1.12-6.87-4.87-5.36-8.65.77-1.91 1.98-2.6 4.04-2.78 9.13-.81 18.24-1.81 27.68-2.78 0-5.66 0-11.28 0-17.39-4.44-.24-8.88-.47-13.31-.72-2.01-.12-4.03-.14-6.01-.47-4.05-.67-6.48-3.17-6.65-7.21-.05-1.23.8-2.98 1.8-3.69 4.07-2.85 8.75-2.95 13.53-2.44 11.14 1.19 12.05-.17 12.06-10.83.01-5.47-.67-11.01 2.18-16.07 1.03-1.83 2.26-3.56 3.37-5.27 5.79 1.9 8.89 6.97 8.25 12.73-.52 4.64-.84 9.31-1.06 13.98-.15 3.28 1.91 4.99 4.92 5.16 3.55.2 7.17.28 10.67-.2 8.32-1.15 11.56 1.24 12.5 10.66-3.75.75-7.57 1.75-11.46 2.23-3.76.47-7.58.37-11.37.58-1.82.1-2.69 1.05-2.83 2.99-.36 4.91-.93 9.8-1.39 14.7-.01.33.12.66.27 1.47z"/><path d="m283.74 182.81c7.27 0 13.84-.07 20.42.03 2.66.04 5.34.28 7.96.75 1.25.22 2.64.92 3.49 1.85 4.84 5.25 4.62 7.99-1.3 9.88-5.09 1.62-10.73 2.19-16.11 2.1-17.77-.28-35.52-1.13-53.29-1.6-2.68-.07-4.5-1.14-5.02-3.43-.46-2.01-.15-4.3.34-6.34.14-.6 2.04-1.01 3.16-1.1 9.12-.78 18.24-1.46 27.69-2.19.28-5.91.56-11.67.86-18.01-5.75-.43-11.27-.76-16.78-1.28-2.41-.23-4.9-.56-7.15-1.38-2.71-.99-4.02-3.58-3.5-6.22.32-1.61 1.99-3.58 3.52-4.17 2.61-1 5.58-1.27 8.41-1.4 2.99-.13 6.02.57 8.99.35 4.91-.38 6-1.54 6.53-6.36.54-4.99.53-10.06 1.36-14.99.56-3.31 2.15-6.45 3.29-9.69 6.19 2.48 8.68 7.12 7.74 12.94-.65 4.05-1.03 8.16-1.3 12.26-.22 3.32 1.86 5.03 4.91 5.09 4.67.09 9.37-.03 14.03-.4 5.8-.45 9.89 1.82 11.33 6.68.53 1.8.29 3.08-1.46 4.24-4.28 2.82-8.85 3.19-13.81 2.71-3.51-.34-7.1.02-10.64.3-.72.06-1.88 1.07-1.96 1.75-.66 5.51-1.11 11.05-1.71 17.63z"/></g><path d="m385.2 377.6.6-.7c.6.4 1.3.9 1.9 1.5l-.6.7c-.8-.5-1.4-1-1.9-1.5zm.3 7.1c.6-1.4 1.1-2.9 1.5-4.5.3.1.6.3.9.4-.5 1.4-1 2.9-1.5 4.4zm.2-10.1.6-.6c.7.5 1.3 1.1 1.9 1.6l-.7.7c-.6-.6-1.2-1.2-1.8-1.7zm8.4-.8h.8v.9h1.8v.7h-1.8v1.8h-.8v-.3h-1.2v.9h3.3v2.6h-.8v-.4h-2.5c0 .3 0 .6-.1.8h3.4v.7h-3.5c0 .3-.1.6-.1.8h4v.7h-3.5c.7.9 1.9 1.3 3.6 1.5-.2.2-.4.5-.6.9-1.9-.3-3.2-1.1-3.8-2.3-.5 1.1-1.8 2-3.9 2.4-.2-.3-.4-.5-.6-.8 1.9-.4 3.1-.9 3.6-1.7h-3.2v-.7h3.5c.1-.2.1-.5.2-.8h-3.3v-.7h3.4c0-.2 0-.5 0-.8h-2.4v.3h-.8v-2.6h3.3v-.9h-1.2v.3h-.8v-1.8h-1.8v-.7h1.8v-.9h.8v.9h3.2zm-4.4 5.5h2.4c0-.3 0-.6 0-.9h-2.4zm1.2-3.1h3.2v-.8h-3.2zm4.4 2.2h-2.4v.9h2.5v-.9z" fill="#fcfbfa"/><path d="m389.2 385.8h.9v1.5h1.9v-1.5h.9v1.5h2.7v6h1.1v.9h-11.3v-.9h1.1v-6h2.7zm.2 8.7.5.8c-1.2.6-2.5 1.3-4 1.9-.2-.3-.3-.6-.6-.8 1.6-.6 3-1.3 4.1-1.9zm-2-4.3h1.9v-2.1h-1.9zm0 3.1h1.9v-2.2h-1.9zm2.7-3.1h1.9v-2.1h-1.9zm0 3.1h1.9v-2.2h-1.9zm2.4 1.3c1.4.6 2.7 1.2 4.1 1.8l-.5.9c-1.5-.7-2.8-1.4-4.1-1.9zm2.2-6.5h-1.9v2.1h1.9zm-1.9 5.2h1.9v-2.2h-1.9z" fill="#fcfbfa"/></svg>