<svg enable-background="new 0 0 400 400" viewBox="0 0 400 400" xmlns="http://www.w3.org/2000/svg"><g fill="#010103"><path d="m220.25 135.89c0-3.47 0-6.58 0-10.48-5.47 0-10.9.03-16.33-.01-12.87-.09-25.74-.08-38.6-.43-3.38-.09-6.81-1.09-10.07-2.15-2.68-.87-3.8-3.17-3.85-6.08-.05-2.98 2.33-3.33 4.17-4.04 7.8-3 15.99-2.75 24.17-2.69 13.38.1 26.77.03 40.63.03 0-3.42.25-6.21-.14-8.9-.12-.87-1.83-1.96-2.96-2.16-8.14-1.44-16.29-3.06-24.51-3.86-8.26-.8-13.1-5.74-15.98-12.54-4.95-11.67-3.81-23.92-1.52-35.99.5-2.62 3.42-3.44 6.21-3.63 2.67-.18 3.32 1.53 3.58 3.41.8 5.62 1.38 11.27 2.09 16.91.6 4.74 1.06 9.5 1.94 14.18.52 2.76 2.52 4.6 5.26 5.61 7.98 2.93 16.12 1.74 24.23.96.57-.05 1.26-1.35 1.47-2.17 2.4-9.75 1.63-19.54.39-29.35-1.21-9.51.84-18.39 5.14-26.98 3.75.61 6.13 2.91 7.19 6.01 1.28 3.76 2.37 7.77 2.49 11.7.26 8.49-.18 16.99-.28 25.49-.06 5.23-.01 10.46-.01 16.35 6.12-.72 11.28-1.32 16.43-1.94 2.89-.35 5.76-.97 8.65-1.03 2.98-.06 4.58-1.39 5.07-4.18.91-5.16 1.84-10.32 2.58-15.5.57-3.97.74-8 1.36-11.97.23-1.48 1.02-2.98 1.91-4.22 3.01-4.19 6.9-4.09 8.65.62 1.61 4.31 3.15 9.1 2.87 13.56-.45 7.16-2.04 14.32-3.85 21.31-2.06 7.95-8.12 12.23-15.82 13.75-7.66 1.51-15.47 2.28-23.22 3.37-1.53.22-3.06.42-4.7.65v10.43c6.3 0 12.42-.09 18.54.02 13.19.24 26.39.48 39.58.99 2.82.11 5.77 1.01 8.34 2.23 1.4.66 2.95 2.73 2.96 4.18.02 2.33-.85 4.8-3.81 5.64-9.94 2.84-20.07 2.8-30.28 2.55-11.38-.28-22.77-.06-34.49-.06-.3 3.24-.63 6.73-1.03 10.99 7.89 0 15.35-.06 22.81.01 12.98.14 25.95.34 38.92.57 1.78.03 3.55.37 5.32.62 3.61.52 5.31 2.93 6.13 6.24.41 1.68-.1 2.58-1.73 3.36-8.22 3.93-16.95 4.7-25.85 4.44-13.64-.39-27.28-.77-40.91-1.31-2.61-.1-4.15.86-4.58 3.24-.52 2.83-.8 5.71-.96 8.59-.11 1.88.34 3.8.22 5.69-.19 2.81-1.82 4.51-4.66 4.85-2.79.33-5.56.28-6.4-3.17-.68-2.81-1.11-5.68-1.55-8.54-.33-2.09-.34-4.24-.78-6.3-.63-2.97-2.35-4.39-5.7-4.36-18.8.14-37.61.11-56.41.02-2.65-.01-5.46-.25-7.89-1.19-1.73-.67-3.44-2.46-4.23-4.18-1.05-2.29-.37-4.37 2.51-5.52 8.33-3.33 17.03-3.36 25.76-3.33 14.2.06 28.4.11 42.6.14.88.01 1.76-.26 2.93-.45z"/><path d="m233.34 306.32c1.83.11 3.43.55 4.85.23 6.25-1.4 12.08-3.51 16.66-8.48 7.09-7.69 13.6-15.73 17.81-25.38 1.11-2.54 3.17-2.89 5.2-2.5 1.15.22 2.75 1.77 2.89 2.88.45 3.68 1.39 7.79.26 11.09-5.43 15.89-16.46 26.85-31.86 33.31-3.14 1.32-6.72 1.6-10.08 2.41-4.61 1.11-6.21 2.69-6.15 7.38.12 9.72.7 19.43.84 29.15.05 3.53-.19 7.19-1.08 10.58-1.25 4.72-4.29 6.89-9.64 7.94-2.69-4.69-3.97-9.9-4.04-15.24-.09-6.58.58-13.17.71-19.76.1-4.79-.14-9.59-.21-14.39-.04-2.8-1.21-4.43-4.13-5.13-3.35-.8-6.58-2.14-9.87-3.23-12.85-4.26-29.05-22.76-31.39-36.11-.4-2.25-.29-4.7.14-6.95.27-1.39 1.33-3.2 2.51-3.7 2.04-.87 4.17-.66 5.74 1.76 3.76 5.81 8.35 11.15 11.6 17.22 5.3 9.92 13.81 14.78 24.53 17.76.31-7.44.67-14.63.84-21.83.02-.67-1-1.64-1.76-2.02-2.89-1.45-5.81-2.92-8.85-4-4.1-1.45-7.15-4.12-9.58-7.54-7.43-10.41-13.19-21.55-14.26-34.57-.17-2.09.16-4.24.32-6.35.22-2.92 1.83-4.15 4.76-4.43 1.89-.18 2.8.41 3.79 1.86 4.94 7.22 7.61 15.36 10.04 23.64 1.85 6.3 5.07 11.68 10.98 15.04 1.05.6 2.18 1.07 4.22 2.06.9-9 2.74-17.53 2.37-25.96-.51-11.51 4.8-18.39 14.39-22.99 3.51-1.69 7.16-3.15 10.86-4.39 4.42-1.49 8.38.89 9.24 5.03.44 2.11-.35 3.23-2.03 4.4-4.67 3.26-9.26 6.65-13.76 10.13-4.44 3.44-6.54 8.19-6.67 13.72-.15 6.23-.03 12.47-.03 19.01 2.93-.47 5.69-.72 8.33-1.42 1.13-.3 2.29-1.34 2.98-2.35 4.55-6.66 6.79-14.27 8.88-21.94 1.66-6.08 4.24-11.58 10.18-14.7 3.62-1.91 4.38-1.58 5.81 2.27 2.12 5.72 2.12 11.56-.28 17.04-3.35 7.66-6.87 15.31-11.11 22.5-2.9 4.92-7.58 8.42-13.32 10.17-10.41 3.16-10.37 3.21-10.85 14.07-.19 4.08-.5 8.19-.78 12.71z"/><path d="m176.24 206.38c2.69-.39 5.45-.5 8.04-1.22 6.12-1.7 11.36-5.01 16.25-9.08 2.44-2.03 5.35-3.67 8.31-4.85 3.88-1.55 6.99 1.32 6.11 5.53-.4 1.91-1.17 4.01-2.44 5.42-6.33 7.07-13.34 13.49-22.76 15.91-5.23 1.34-10.82 1.46-16.26 1.72-2.93.14-4.42.8-5.41 3.93-8.14 25.8-11.72 52.22-11.84 79.23-.06 14.54-.75 29.07-1.38 43.6-.13 3.06-1.11 6.13-2 9.1-.8 2.69-2.92 3.83-5.71 3.67-2.74-.15-4.3-1.3-5.03-4.24-3.11-12.5-2.36-25.05-1.21-37.68 1.25-13.7 2.2-27.42 3.26-41.14.7-9.03.83-18.15 2.19-27.08 1.07-7.01 2.97-14.08 5.7-20.62 3.32-7.95 2.05-13.92-4.18-19.74-7.25-6.78-7.22-14.87-4.02-24.02 5.24-14.98 16.94-23.09 29.79-30.19 2.95-1.63 6.45-.74 9.13 1.32 2.97 2.29 2.84 4.58-.06 6.94-5.89 4.81-11.82 9.58-17.73 14.36-7.53 6.08-9.58 12.85-6.55 22.01.32.97 1.12 1.77 1.7 2.65.8-.63 1.71-1.15 2.38-1.9 6.08-6.84 11.86-13.98 18.25-20.51 6.61-6.74 14.99-10.26 24.38-11.62 3.31-.48 4.88 1 5.89 3.52 1.04 2.59.14 4.49-2.27 6.22-8.16 5.86-16.27 11.83-24.12 18.1-3.35 2.68-6.02 6.22-9 9.37.19.43.39.86.59 1.29z"/><path d="m242.69 190.61c4.49.58 8.61 1.36 12.25 4.95 6.92 6.81 15.64 10.56 26.33 12.67-1.17-2.41-1.82-4.18-2.81-5.73-6.71-10.56-17.31-16.34-27.94-21.76-4.88-2.49-5.23-6.08-5.06-10.38.03-.64 1.16-1.78 1.77-1.78 3.29.02 6.77-.29 9.83.66 12.37 3.85 21.17 12.58 29.09 22.32 3.02 3.71 5.93 7.5 9.04 11.45 2.43-2.9 3.82-6.04 3.55-9.61-.55-7.15-2.77-13.56-9.06-17.83-4.25-2.89-8.58-5.68-12.77-8.67-4.11-2.93-5.63-6.58-4.36-10.67.27-.88 1.74-2.05 2.6-2.01 17.8.8 36.52 18.59 38.08 36.35.83 9.47-3.27 17.45-9.3 24.29-2.52 2.86-3.5 5.09-2.02 8.73 6.74 16.54 7.51 34.13 8.84 51.63 1.37 17.96 3.17 35.88 4.35 53.85.48 7.33.13 14.75-.42 22.09-.35 4.74-3.56 7.45-7.44 7.76-1.77.14-3.14-.2-3.58-2.1-1.26-5.4-3.35-10.77-3.54-16.21-.42-12.06.31-24.16.24-36.24-.12-18.98-3.56-37.6-6.77-56.22-.82-4.74-1.53-9.49-2.4-14.22-.38-2.06-.87-4.14-1.58-6.11-1.89-5.25-5.95-6.85-11.23-6.73-12.53.29-22.62-5.34-31.52-13.54-5.54-5.11-6.97-11.16-4.17-16.94z"/><path d="m138.99 144.13c-.15 16.1-.34 32.13-3.38 48.09-1.56 8.19-5.73 12.5-13.27 14.6-11.08 3.09-21.91 2.57-32.38-2.26-3.89-1.79-5.63-5.51-6.2-9.41-2.94-20.14-5.78-40.3-5.28-60.73.21-8.41 1.42-16.68 4.53-24.6.99-2.52 2.34-2.75 4.59-1.79 4.52 1.93 6.88 5.91 6.46 11.73-.27 3.79-.81 7.55-1.22 11.33-.06.56-.12 1.11-.16 1.67-.62 9.64.41 10.78 9.79 10.78 6.26 0 12.53-.08 18.79.04 2.25.05 3.33-.69 3.37-2.97.08-5.69.2-11.38.33-17.08.07-2.78-.1-5.62.42-8.32.36-1.86 1.41-3.84 2.73-5.22 3.69-3.87 6.82-3.35 8.57 1.62 1.23 3.51 2.01 7.33 2.19 11.04.36 7.15.12 14.32.12 21.48zm-44.57 14.16c0 8.28-.31 16.41.15 24.49.18 3.19 2 6.31 3.21 9.41.29.75 1.03 1.69 1.74 1.86 6.69 1.67 13.41 2.56 19.98-.52 2.08-.97 3.09-2.42 3.04-4.98-.18-8.94-.06-17.88-.08-26.82 0-1.09-.11-2.17-.17-3.44-9.35 0-18.45 0-27.87 0z"/></g><path d="m385.2 377.6.6-.7c.6.4 1.3.9 1.9 1.5l-.6.7c-.8-.5-1.4-1-1.9-1.5zm.3 7.1c.6-1.4 1.1-2.9 1.5-4.5.3.1.6.3.9.4-.5 1.4-1 2.9-1.5 4.4zm.2-10.1.6-.6c.7.5 1.3 1.1 1.9 1.6l-.7.7c-.6-.6-1.2-1.2-1.8-1.7zm8.4-.8h.8v.9h1.8v.7h-1.8v1.8h-.8v-.3h-1.2v.9h3.3v2.6h-.8v-.4h-2.5c0 .3 0 .6-.1.8h3.4v.7h-3.5c0 .3-.1.6-.1.8h4v.7h-3.5c.7.9 1.9 1.3 3.6 1.5-.2.2-.4.5-.6.9-1.9-.3-3.2-1.1-3.8-2.3-.5 1.1-1.8 2-3.9 2.4-.2-.3-.4-.5-.6-.8 1.9-.4 3.1-.9 3.6-1.7h-3.2v-.7h3.5c.1-.2.1-.5.2-.8h-3.3v-.7h3.4c0-.2 0-.5 0-.8h-2.4v.3h-.8v-2.6h3.3v-.9h-1.2v.3h-.8v-1.8h-1.8v-.7h1.8v-.9h.8v.9h3.2zm-4.4 5.5h2.4c0-.3 0-.6 0-.9h-2.4zm1.2-3.1h3.2v-.8h-3.2zm4.4 2.2h-2.4v.9h2.5v-.9z" fill="#fcfbfa"/><path d="m389.2 385.8h.9v1.5h1.9v-1.5h.9v1.5h2.7v6h1.1v.9h-11.3v-.9h1.1v-6h2.7zm.2 8.7.5.8c-1.2.6-2.5 1.3-4 1.9-.2-.3-.3-.6-.6-.8 1.6-.6 3-1.3 4.1-1.9zm-2-4.3h1.9v-2.1h-1.9zm0 3.1h1.9v-2.2h-1.9zm2.7-3.1h1.9v-2.1h-1.9zm0 3.1h1.9v-2.2h-1.9zm2.4 1.3c1.4.6 2.7 1.2 4.1 1.8l-.5.9c-1.5-.7-2.8-1.4-4.1-1.9zm2.2-6.5h-1.9v2.1h1.9zm-1.9 5.2h1.9v-2.2h-1.9z" fill="#fcfbfa"/></svg>