<svg enable-background="new 0 0 400 400" viewBox="0 0 400 400" xmlns="http://www.w3.org/2000/svg"><g fill="#010103"><path d="m205.92 272.68c-.81-8.87-1.6-17.07-2.29-25.28-.63-7.44-1.63-14.9-1.56-22.35.07-7.14 4.32-11.68 10.31-12.59 3.62 5.37 4.62 11.42 4.7 17.79.25 19.41 2.72 38.59 7.18 57.46 1.35 5.69 4.1 11.05 6.62 17.63 2.41-3.74 4.31-6.52 6.02-9.4 9.15-15.42 13.61-32.24 14.74-50.02.55-8.58.86-17.18 1.4-25.76.09-1.4.44-3.19 1.37-4.04 1.71-1.56 3.83-3.09 6.01-3.54 1.02-.21 2.95 1.89 3.82 3.34 3.67 6.13 4.08 12.92 3.33 19.82-1.19 11.01-2.5 22.01-3.74 33.01-.1.86-.01 1.74-.01 2.86 9.86-.28 19.91-.37 28.25-5.7 6.58-4.2 10.55-11.59 9.74-19.56-.72-7.08-3.11-14.13-5.7-20.83-3.45-8.94-8.45-17.3-11.63-26.31-4.5-12.78-6.94-26.05-2.53-39.46 1.27-3.86 3.32-7.57 5.6-10.95 2.12-3.16 4.86-3.58 7.58-2.11 3.76 2.03 5.18 5.01 4.05 8.61-4.22 13.42-5.79 27.06-.93 40.51 2.52 6.96 6.55 13.41 10.22 19.91 4.75 8.42 7.99 17.28 8.24 26.97.5 19.89-8.39 32.15-26.61 39.47-8.64 3.47-17.6 5.09-26.91 4.42-2.44-.18-3.81.75-5.09 2.81-4.43 7.12-9.15 14.07-13.62 21.16-1.42 2.25-2.63 4.68-3.58 7.16-1.3 3.4-.51 6.28 2.08 9.15 12.98 14.4 28.73 24.76 46.31 32.58 2.35 1.04 4.7 2.13 6.88 3.46 1.49.91 2.98 2.09 3.95 3.5 2.41 3.5 1.62 5.92-2.2 7.71-4.19 1.97-8.51 1.93-12.73.33-10.88-4.13-21.61-8.45-30.06-17.05-4.06-4.13-8.9-7.48-13.35-11.24-8.33-7.05-14.84-15.37-18.83-25.68-3.63-9.38-7.94-18.49-11.5-27.89-1.33-3.53-3.36-4.68-6.78-4.97-10.2-.87-20.06-3.2-29.44-7.44-18.51-8.38-23.25-20.99-20.52-39.41.87-5.9 3.56-11.77 6.47-17.07 5.62-10.24 10.79-20.63 13.51-32.02 2.37-9.94 3.7-19.86-.37-29.94-1.6-3.96-1.45-8.67-1.82-13.06-.07-.88 1.04-2.6 1.74-2.67 1.93-.19 4.76-.49 5.75.61 10.43 11.43 14.55 24.6 10.13 39.92-3.69 12.83-8.69 25.09-14.98 36.88-4.94 9.26-7.31 19.23-6.13 29.77.87 7.75 7.6 14.45 15.26 15.76 6.82 1.18 13.64 2.36 21.65 3.74z"/><path d="m147.93 57.61c3.38 4.99 5 10.33 4.86 16.03-.55 22.59-.76 45.21-2.17 67.75-.64 10.16-3.76 20.17-5.91 30.22-.25 1.15-1.39 2.27-2.38 3.07-6.42 5.23-13.9 8-22.08 7.33-8.09-.67-16.09-2.48-24.15-3.66-7.49-1.1-10.71-6.33-12.33-12.84-1.21-4.87-1.94-9.88-2.65-14.85-2.86-19.97-4.42-40.08-3.79-60.23.29-9.2 2.32-18.36 3.69-27.51.26-1.72 1.12-3.36 1.67-4.96 5.59.27 9.97 4.18 10.29 10.14.29 5.42-.55 10.9-.77 16.35-.23 5.8-.34 11.61-.47 17.41-.05 2.49.77 3.66 3.71 3.72 13.19.23 26.39.69 39.57 1.27 2.84.12 2.88-1.61 2.92-3.34.2-7.93.08-15.88.45-23.81.25-5.2.77-10.44 1.88-15.51.81-3.55 3.67-5.81 7.66-6.58zm-53.86 64.21c-.2 3.88-.53 7.32-.53 10.76-.01 8.47-.26 16.93 2.38 25.22 1.73 5.42 4.56 8.62 10.51 9.41 8.16 1.08 16.17 2.15 23.99-1.54 2.07-.98 3.34-2.25 3.92-4.56 2.57-10.35 4.19-20.8 3.75-31.49-.08-1.96-.61-3.99-1.37-5.81-.36-.88-1.72-1.9-2.64-1.91-13.17-.12-26.36-.08-40.01-.08z"/><path d="m236.44 39.33c-6.33 8.16-12.42 16.01-18.51 23.87-10 12.91-20.08 25.75-29.95 38.77-3.64 4.8-6.72 10.02-10.13 14.99-2.31 3.37-5.36 5.39-9.68 4.51-3.74-.76-5.31-2.54-4.04-6.12 1.55-4.36 3.61-8.7 6.26-12.46 10.57-14.97 21.56-29.64 32.19-44.56 7.69-10.79 15.61-21.29 26.41-29.25 6.17-4.55 10.14-4.61 16.06.48 3.03 2.6 5.84 5.6 8.19 8.82 15.01 20.61 29.86 41.33 44.77 62.01 3.3 4.58 5.96 9.47 6.67 15.17.51 4.11-2.79 7-6.62 5.44-2.24-.91-4.52-2.57-5.93-4.51-17.88-24.61-35.6-49.33-53.36-74.02-.64-.93-1.32-1.81-2.33-3.14z"/><path d="m257.67 138.22c-7.24.5-14.48 1.05-21.73 1.48-3.88.23-6.52 2.23-7.17 5.87-.76 4.24-1.23 8.63-1.01 12.92.41 8.14 1.39 16.25 2.15 24.38.42 4.49-.6 6.63-3.68 7.64-3.56 1.17-7.23.17-8.71-3.59-2.09-5.34-3.9-10.99-4.57-16.66-1.24-10.53-1.66-21.17-2.22-31.77-.21-3.94 2.32-6.89 5.27-8.83 2.99-1.97 6.56-3.95 10-4.21 15.02-1.15 30.09-2.52 45.09.45 2.17.43 4.41.59 4.65 3.66.25 3.06-.32 5.93-3.29 7-3.07 1.12-6.46 1.43-9.74 1.9-1.64.24-3.35.04-5.02.04-.01-.1-.01-.19-.02-.28z"/><path d="m233.89 96.74c8.16 0 16.33-.14 24.49.07 3.42.09 6.87.7 10.21 1.51 1.47.36 3.03 1.56 3.95 2.82 2.42 3.32 1.85 5.57-2.08 6.29-9.31 1.7-18.68 3.54-28.09 4.04-12.81.68-25.72.63-38.38-2.32-5.48-1.28-5.48-1.28-4.94-8.27.17-2.24 3.02-4.09 6.66-4.11 9.39-.07 18.79-.03 28.18-.03z"/></g><path d="m385.2 377.6.6-.7c.6.4 1.3.9 1.9 1.5l-.6.7c-.8-.5-1.4-1-1.9-1.5zm.3 7.1c.6-1.4 1.1-2.9 1.5-4.5.3.1.6.3.9.4-.5 1.4-1 2.9-1.5 4.4zm.2-10.1.6-.6c.7.5 1.3 1.1 1.9 1.6l-.7.7c-.6-.6-1.2-1.2-1.8-1.7zm8.4-.8h.8v.9h1.8v.7h-1.8v1.8h-.8v-.3h-1.2v.9h3.3v2.6h-.8v-.4h-2.5c0 .3 0 .6-.1.8h3.4v.7h-3.5c0 .3-.1.6-.1.8h4v.7h-3.5c.7.9 1.9 1.3 3.6 1.5-.2.2-.4.5-.6.9-1.9-.3-3.2-1.1-3.8-2.3-.5 1.1-1.8 2-3.9 2.4-.2-.3-.4-.5-.6-.8 1.9-.4 3.1-.9 3.6-1.7h-3.2v-.7h3.5c.1-.2.1-.5.2-.8h-3.3v-.7h3.4c0-.2 0-.5 0-.8h-2.4v.3h-.8v-2.6h3.3v-.9h-1.2v.3h-.8v-1.8h-1.8v-.7h1.8v-.9h.8v.9h3.2zm-4.4 5.5h2.4c0-.3 0-.6 0-.9h-2.4zm1.2-3.1h3.2v-.8h-3.2zm4.4 2.2h-2.4v.9h2.5v-.9z" fill="#fcfbfa"/><path d="m389.2 385.8h.9v1.5h1.9v-1.5h.9v1.5h2.7v6h1.1v.9h-11.3v-.9h1.1v-6h2.7zm.2 8.7.5.8c-1.2.6-2.5 1.3-4 1.9-.2-.3-.3-.6-.6-.8 1.6-.6 3-1.3 4.1-1.9zm-2-4.3h1.9v-2.1h-1.9zm0 3.1h1.9v-2.2h-1.9zm2.7-3.1h1.9v-2.1h-1.9zm0 3.1h1.9v-2.2h-1.9zm2.4 1.3c1.4.6 2.7 1.2 4.1 1.8l-.5.9c-1.5-.7-2.8-1.4-4.1-1.9zm2.2-6.5h-1.9v2.1h1.9zm-1.9 5.2h1.9v-2.2h-1.9z" fill="#fcfbfa"/></svg>