<svg enable-background="new 0 0 400 400" viewBox="0 0 400 400" xmlns="http://www.w3.org/2000/svg"><g fill="#010103"><path d="m271.97 240.11c6.78-6.4 11.69-13.84 15.6-21.93 4.39-9.1 8.46-18.44 7.7-28.84-.36-4.95-1.58-9.91-3.07-14.66-.71-2.24-2.66-4.39-4.58-5.9-9.96-7.81-21.53-9.48-33.87-9.12-11.61.34-23.26-.1-34.87-.52-2.56-.09-5.24-1.2-7.56-2.4-2.95-1.53-3.92-5.25-2.38-8.15.4-.74 1.7-1.36 2.62-1.41 6.69-.4 13.39-.66 20.09-.94 5.69-.24 5.53-.24 5.93-5.74 2.44-33.55.83-67.14 1.41-100.71.07-3.84 1.46-7.84 3.02-11.43 1.49-3.42 4.18-3.92 6.93-1.34 1.69 1.58 3.01 4.28 3.21 6.59.51 6.01.37 12.07.39 18.11.04 11.53.1 23.06-.05 34.59-.04 2.8.94 3.78 3.57 3.84 8.13.18 16.27.45 24.4.71 6.03.19 12.08.16 18.08.71 5.14.48 8.26 3.27 8.9 6.87.35 1.99-.05 3.21-2.23 4.08-7.15 2.86-14.52 3.35-22.08 2.84-7.36-.5-14.73-.89-22.1-1.17-2.09-.08-4.21.4-6.63.67-.6 13.57-1.18 26.95-1.8 41.11 6.6 1.11 13.18 2.09 19.71 3.35 5.89 1.14 11.91 2.06 17.54 4.02 10.27 3.57 15.28 11.88 17.61 22 3.02 13.15.74 26.05-2.33 38.84-2.49 10.37-6.93 19.74-14.56 27.51-4.77 4.87-9.12 10.17-13.44 15.45-.88 1.08-1.41 3.06-1.11 4.41 5.8 25.96 11.74 51.9 17.65 77.84 1.81 7.95 3.73 15.87 5.3 23.86.46 2.32.22 4.94-.34 7.26-.77 3.22-3.43 4.35-6.58 4.76-3.11.41-3.98-1.64-4.98-3.84-5.95-13.02-8.88-26.93-11.83-40.81-4.34-20.44-8.52-40.92-12.78-61.38-.2-.97-.52-1.92-.71-2.64-13.67 5.48-27.23 10.89-40.76 16.36-3.19 1.29-6.31 1.43-9.42-.06-4.19-2.01-4.85-6.91-.92-9.29 5.03-3.04 10.24-6.06 15.75-7.99 10.65-3.72 20.62-8.54 29.77-15.12 1.66-1.19 2.41-2.09 1.68-4.29-2.76-8.38-5.33-16.82-7.84-25.28-.6-2.02-1.69-3.09-3.7-3.21-7.46-.45-14.92-.82-22.37-1.29-2.1-.13-4.37-.08-6.23-.89-1.81-.79-3.67-2.28-4.68-3.96-2.21-3.67-1.37-5.98 2.67-7.32 13.57-4.51 27.18-4.39 40.19 1.64 5.61 2.6 7.86 8.67 9.79 14.3 1.99 5.81 3.55 11.76 5.32 17.64.21.73.58 1.4.97 2.27z"/><path d="m198.89 49.65c-8.29 5.01-17.33 6.83-26.7 6.73-11.4-.13-22.8-1.01-34.2-1.14-5.56-.06-11.17.55-16.66 1.42-2.51.4-4.94 1.94-7.17 3.34-2.5 1.56-3.5 3.98-3.64 7.08-.33 7.15-1.08 14.28-1.65 21.42-.13 1.65-.19 3.3-.33 5.67 5.76 0 11.21-.06 16.66.01 15.55.2 31.11.36 46.66.74 2.95.07 4-.87 4.05-3.68.11-5.59.39-11.17.57-16.76.17-5.35 2.39-8.9 6.46-10.41 1.92-.71 3.22-.5 4.44 1.44 2.74 4.34 3.79 9.11 3.66 14.07-.15 5.69-.86 11.36-1.24 17.05-.65 9.94-.84 19.92-1.98 29.8-.83 7.16-2.81 14.19-4.44 21.24-.25 1.07-1.22 2.11-2.1 2.87-6.63 5.68-14.42 8.37-23.09 8.68-14.3.51-28.6.96-42.89 1.52-5.87.23-6.78 1.34-6.82 7.28-.17 27.2.21 54.43-.76 81.6-.67 18.86-3.04 37.67-4.98 56.46-1.03 10-2.68 19.95-4.29 29.88-.42 2.59-1.32 5.32-2.78 7.45-1.2 1.75-3.4 3.39-5.45 3.89-4.13 1-5.49-.59-5.39-4.78.59-23.81 5.18-47.12 8.5-70.59.9-6.39.87-12.93.92-19.41.25-31.23.54-62.47.52-93.7-.02-20.59-.72-41.19-.78-61.78-.04-14.75 2.06-29.24 7.43-43.08.81-2.09 2.62-4.17 4.52-5.38 7.05-4.47 15.05-6.44 23.28-6.73 18.33-.65 36.68-.92 55.02-1.28 2-.04 4.05.16 5.99.6 4.47 1.05 7.46 3.75 8.66 8.48zm-89.25 97.6c11.45 0 22.51.06 33.57-.02 9.45-.07 18.77-1.09 27.34-5.48 1.23-.63 2.75-2 2.91-3.2 1.17-8.62 2.12-17.26 2.92-25.92.26-2.78-.89-4.33-4.32-4.3-19.69.18-39.38.08-59.07.09-1.07 0-2.14.12-3.34.19-.01 12.67-.01 25.04-.01 38.64z"/><path d="m128.08 169.56c6.92 1.13 10.48 5.14 10.71 12.13.23 7.15-.09 14.31-.13 21.47-.03 4.67-.01 9.35-.01 14.28h44.14c.11-8.16.15-16.18.36-24.19.12-4.9.16-9.85.88-14.68.58-3.92 2.93-6.95 7.1-8.11 1.99-.55 3.26-.29 4.23 1.86 2.5 5.56 3.44 11.37 2.93 17.34-.57 6.67-1.99 13.3-2.25 19.97-.52 13.28-.66 26.59-.64 39.88.02 11.52-1.91 22.7-5.07 33.7-.36 1.25-1.57 2.42-2.65 3.28-9.16 7.35-19.85 8.8-31.06 7.56-4.97-.55-9.84-1.94-14.78-2.79-3.68-.63-5.78-3-7.59-5.97-5.3-8.68-8.29-18.2-8.74-28.23-.73-16.64-.83-33.31-1.04-49.97-.1-7.83-.23-15.69.38-23.48.35-4.77 2.11-9.42 3.23-14.05zm11.17 62.62c.29 9.42.17 18.61 1 27.71.5 5.45 2.4 10.79 3.88 16.12.27.99 1.39 2.08 2.38 2.48 10.06 4.09 20.02 3.74 29.85-.89 1.96-.92 2.63-2.3 2.84-4.43.64-6.45 1.55-12.87 2.38-19.3.92-7.17 2.03-14.33.42-21.7-14.27.01-28.43.01-42.75.01z"/></g><path d="m385.2 377.6.6-.7c.6.4 1.3.9 1.9 1.5l-.6.7c-.8-.5-1.4-1-1.9-1.5zm.3 7.1c.6-1.4 1.1-2.9 1.5-4.5.3.1.6.3.9.4-.5 1.4-1 2.9-1.5 4.4zm.2-10.1.6-.6c.7.5 1.3 1.1 1.9 1.6l-.7.7c-.6-.6-1.2-1.2-1.8-1.7zm8.4-.8h.8v.9h1.8v.7h-1.8v1.8h-.8v-.3h-1.2v.9h3.3v2.6h-.8v-.4h-2.5c0 .3 0 .6-.1.8h3.4v.7h-3.5c0 .3-.1.6-.1.8h4v.7h-3.5c.7.9 1.9 1.3 3.6 1.5-.2.2-.4.5-.6.9-1.9-.3-3.2-1.1-3.8-2.3-.5 1.1-1.8 2-3.9 2.4-.2-.3-.4-.5-.6-.8 1.9-.4 3.1-.9 3.6-1.7h-3.2v-.7h3.5c.1-.2.1-.5.2-.8h-3.3v-.7h3.4c0-.2 0-.5 0-.8h-2.4v.3h-.8v-2.6h3.3v-.9h-1.2v.3h-.8v-1.8h-1.8v-.7h1.8v-.9h.8v.9h3.2zm-4.4 5.5h2.4c0-.3 0-.6 0-.9h-2.4zm1.2-3.1h3.2v-.8h-3.2zm4.4 2.2h-2.4v.9h2.5v-.9z" fill="#fcfbfa"/><path d="m389.2 385.8h.9v1.5h1.9v-1.5h.9v1.5h2.7v6h1.1v.9h-11.3v-.9h1.1v-6h2.7zm.2 8.7.5.8c-1.2.6-2.5 1.3-4 1.9-.2-.3-.3-.6-.6-.8 1.6-.6 3-1.3 4.1-1.9zm-2-4.3h1.9v-2.1h-1.9zm0 3.1h1.9v-2.2h-1.9zm2.7-3.1h1.9v-2.1h-1.9zm0 3.1h1.9v-2.2h-1.9zm2.4 1.3c1.4.6 2.7 1.2 4.1 1.8l-.5.9c-1.5-.7-2.8-1.4-4.1-1.9zm2.2-6.5h-1.9v2.1h1.9zm-1.9 5.2h1.9v-2.2h-1.9z" fill="#fcfbfa"/></svg>