<svg enable-background="new 0 0 400 400" viewBox="0 0 400 400" xmlns="http://www.w3.org/2000/svg"><path d="m361.2 9.6.8-1c.9.7 1.9 1.4 2.9 2.3l-.9 1.1c-1-1-2-1.8-2.8-2.4zm.5 10.6c.9-2.1 1.6-4.3 2.3-6.7.4.2.8.4 1.3.6-.7 2.1-1.5 4.3-2.2 6.6zm.4-15.2.9-.9c1 .8 2 1.6 2.8 2.4l-1 1c-.9-.9-1.8-1.7-2.7-2.5zm12.5-1.2h1.2v1.4h2.7v1.1h-2.7v2.7h-1.2v-.6h-1.8v1.3h4.9v3.8h-1.2v-.5h-3.7c0 .4-.1.9-.1 1.2h5.1v1h-5.2c0 .5-.1.9-.2 1.2h6v1h-5.2c1.1 1.3 2.9 2 5.5 2.2-.4.4-.7.8-.9 1.3-2.9-.5-4.8-1.6-5.7-3.5h-.1c-.8 1.7-2.7 2.9-5.9 3.6-.2-.4-.6-.8-.9-1.1 2.8-.6 4.6-1.4 5.4-2.5h-4.8v-1h5.3c.1-.3.2-.7.2-1.2h-4.9v-1h5c0-.4 0-.8.1-1.2h-3.5v.5h-1.2v-3.8h4.9v-1.3h-1.8v.5h-1.2v-2.7h-2.7v-1h2.6v-1.4h1.2v1.4h4.7v-1.4zm-6.6 8.3h3.6c0-.4 0-.9 0-1.4h-3.6zm1.9-4.6h4.7v-1.3h-4.7zm6.6 3.2h-3.7v1.4h3.7z" fill="#fbfcfa"/><path d="m385.3 3.8h1.3v2.2h2.8v-2.2h1.3v2.2h4.1v9.1h1.7v1.3h-16.9v-1.3h1.7v-9.1h4.1v-2.2zm.4 13.1.7 1.2c-1.8.9-3.8 1.9-6 2.9-.2-.4-.5-.8-.8-1.3 2.3-1 4.3-1.9 6.1-2.8zm-3.1-6.4h2.8v-3.2h-2.8zm0 4.6h2.8v-3.3h-2.8zm4-4.6h2.8v-3.2h-2.8zm0 4.6h2.8v-3.3h-2.8zm3.7 1.9c2.1.9 4.1 1.8 6.1 2.7l-.7 1.3c-2.2-1.1-4.2-2-6.1-2.9zm3.2-9.7h-2.8v3.2h2.8zm-2.8 7.8h2.8v-3.3h-2.8z" fill="#fbfcfa"/><g fill="#010102"><path d="m69.23 266.08c-1.14-4.89-.15-8.46 4.24-11.77 15.17-11.44 32.2-19.23 49.61-26.35 8.48-3.47 17.06-6.67 25.59-10.02 11.37-4.46 23.57-4.97 35.32-7.62.95-.21 2.35-1.42 2.39-2.22.45-9.84.69-19.68.97-29.52.01-.31-.16-.62-.35-1.35-5.81 1.06-11.74 1.6-17.34 3.26-14 4.17-27.87 8.8-41.76 13.36-7.11 2.33-14.05 5.26-21.25 7.24-5.22 1.43-10.72 1.94-16.14 2.47-2.84.28-5.37-.97-6.03-4.17-.63-3.06-.06-5.43 3.15-7.22 12.89-7.19 26.88-11.49 40.76-16.11 18.28-6.08 37.04-10.24 55.89-14.06.42-.08.82-.23 1.47-.42.57-27.2 1.13-54.34 1.71-82.04-6.45 1.46-12.61 2.44-18.52 4.25-17.51 5.38-34.91 11.12-52.38 16.64-6.8 2.15-13.66 4.11-20.52 6.07-1.16.33-2.44.34-3.66.4-6.49.27-8.91-2.55-7.38-8.87.25-1.04 1.34-2.33 2.33-2.67 24.7-8.56 49.39-17.17 74.21-25.38 7.19-2.38 14.74-3.71 22.18-5.2 2.61-.52 3.74-1.89 3.98-4.16.41-3.88.79-7.79.78-11.69-.01-8.23.55-16.3 4.58-23.7 6.37.77 10.18 4.57 10.22 10.78.03 4.23-.87 8.45-.97 12.69-.09 4.21.11 8.46.63 12.64.14 1.14 1.8 2.9 2.88 3 20.49 1.76 39 10.34 58.14 16.69 10.39 3.45 20.7 7.13 31.06 10.69 4.83 1.66 8.45 4.44 9.62 9.74.5 2.27-.27 3.48-2.38 4.37-4.44 1.85-8.95 2.21-13.4.56-5.95-2.21-11.65-5.13-17.67-7.1-21.66-7.11-43.41-13.95-65.12-20.89-.52-.17-1.06-.26-1.88-.46-.1.9-.24 1.61-.24 2.33-.34 25.29-.63 50.58-1.07 75.86-.05 2.74.82 3.82 3.44 4.6 26.89 7.97 53.74 16.06 80.57 24.21 3.3 1 6.49 2.42 9.63 3.87 1.69.78 3.35 1.85 4.7 3.13 2.52 2.41 4.74 5.8 3.21 8.91-1.6 3.25-5.66 4.47-9.37 3.94-3.39-.49-6.73-1.62-9.96-2.82-26.36-9.86-52.54-20.25-80.13-26.34-.21-.05-.44-.01-1.01-.01-.25 7.69-.53 15.36-.73 23.04-.08 2.99-1.11 7.03.39 8.71 1.69 1.89 5.74 1.74 8.79 2.33 8.67 1.7 17.49 2.81 25.98 5.13 7.38 2.02 14.49 5.16 21.56 8.18 18.29 7.81 36.51 15.77 54.7 23.78 4.65 2.05 8.22 5.3 9.82 10.41.65 2.09.19 3.36-1.72 4.39-3.6 1.95-7.36 2.1-11.02.67-4.26-1.66-8.48-3.51-12.49-5.71-29.83-16.32-61.67-26.52-95.13-32.14-16.56-2.78-32.33.19-47.74 5.65-23 8.15-45.4 17.68-65.91 31.18-6.03 3.97-12.58 6.31-19.98 5.16-.42-.07-.84-.21-1.25-.32z"/><path d="m191.07 252.22c14.31.42 26.51.52 38.67 1.22 10.31.6 20.44 2.84 29.82 7.18 5.83 2.7 9.34 8.19 12.16 13.89 4.55 9.21 5.98 19.12 6.38 29.25.57 14.49-.53 28.75-4.32 42.85-3.53 13.13-12.45 20.18-24.98 22.8-23.82 4.99-47.88 7.75-72.28 5.5-16.52-1.52-32.74-4.57-48.49-9.84-1.17-.39-2.32-1.3-3.12-2.27-7.08-8.62-10.75-18.75-12.49-29.59-3.05-19.03-2.36-37.85 3.48-56.37 1.33-4.21 3.65-7.37 7.09-10.18 10.05-8.22 21.73-11.68 34.38-12.52 11.92-.79 23.87-1.37 33.7-1.92zm7.41 106.23c5.47 0 10.95.06 16.42-.01 6.37-.08 12.8.26 19.07-.58 5.79-.78 11.47-2.7 17.08-4.5 4.24-1.36 7.31-4.27 8.23-8.87 1.45-7.31 3.4-14.6 4.05-21.99 1.04-11.86.33-23.76-3.81-35.08-3.14-8.59-7.94-15.91-17.89-17.72-5.05-.92-10.16-2.23-15.23-2.18-23.58.22-47.15.72-70.72 1.42-6.64.2-12.94 2.38-18.66 5.93-3.59 2.22-6.27 4.92-7.59 9.25-3.36 11.06-4.44 22.33-4.25 33.8.18 10.97 2.21 21.53 7.04 31.48.91 1.88 2.14 2.8 4.11 3.41 20.31 6.36 41.23 5.99 62.15 5.64z"/><path d="m287.71 155.31c-.06 4.13-3.04 6.78-6.07 5.89-2.97-.88-6.09-2.32-8.34-4.39-6.43-5.88-12.26-12.41-18.69-18.29-4.62-4.22-10.25-6.58-16.67-4.67-2.11.63-4.13 2.05-5.83 3.53-3.11 2.71-5.73 6.03-9 8.5-2.22 1.68-5.11 2.69-7.86 3.4-3.69.95-7.06-1.92-6.42-5.64.44-2.59 1.53-5.53 3.31-7.34 7.39-7.5 15.34-14.35 25-18.95 2.53-1.2 4.77-1.34 7.36-.54 10.59 3.27 19.38 9.56 27.82 16.45 5.31 4.34 10.28 9.05 13.23 15.38 1.17 2.47 1.72 5.24 2.16 6.67z"/><path d="m181.79 148.53c-5.32.1-10.1.14-13.96-4.65-2.66-3.31-6.53-5.76-10.14-8.16-6.79-4.52-15.12-3.16-20.61 2.82-4.69 5.1-9.4 10.21-14.42 14.99-4.67 4.45-10.25 6.13-17.02 3.54 2.56-6.43 3.36-13.22 9.1-18.23 9.44-8.24 18.25-17.27 30.37-21.64 2.18-.79 4.87-1.13 7.09-.62 10.22 2.31 18.82 7.65 25.76 15.43 4.18 4.64 5.79 10.17 3.83 16.52z"/><path d="m196.72 341.36c-12.69 0-23.36-1.93-33.56-6.47-3.23-1.44-5.18-3.62-6.37-6.8-4.22-11.28-3.75-22.61 1.5-33.17 1.72-3.46 6.61-5.75 10.5-7.66 7.22-3.53 15.22-3.47 23.03-3.05 10.14.55 20.32 1.17 30.34 2.71 9.62 1.48 14.7 7.88 16.26 17.53 1.46 9-1.73 17.23-3.63 25.68-.19.85-1.41 1.62-2.33 2.14-11.58 6.58-24.17 9.02-35.74 9.09zm.99-14.69c.01-.15.03-.29.04-.44 2.12 0 4.28.25 6.36-.05 5.71-.81 11.42-1.71 17.05-2.92 1.12-.24 2.69-2 2.72-3.09.15-4.67-.1-9.36-.4-14.04-.21-3.21-2.11-5.51-5.09-6.45-2.5-.79-5.25-1.47-7.82-1.27-12.58.95-25.14 2.19-37.7 3.42-.78.08-1.93.81-2.16 1.49-1.9 5.62-2.53 11.28-.38 17.04.92 2.47 2.43 3.86 5.06 4.11 7.45.71 14.88 1.46 22.32 2.2z"/></g></svg>