<svg enable-background="new 0 0 400 400" viewBox="0 0 400 400" xmlns="http://www.w3.org/2000/svg"><g fill="#010103"><path d="m137.62 246.12c-2.85.45-5.63.72-8.29 1.42-.86.23-1.79 1.52-2.04 2.49-2.81 10.96-3.35 22.16-2.25 33.32 1.56 15.9 3.86 31.74 5.49 47.63.38 3.66-.38 7.53-1.16 11.19-.57 2.65-2.87 3.81-5.63 3.87-2.72.07-4.23-1.2-5.23-3.72-4.25-10.68-5.43-21.91-5.8-33.22-.58-17.78-.76-35.57-1.11-53.36-.02-.99 0-1.97 0-3.22-3.25.55-5.29 2.09-6.78 4.63-4.1 7.03-5.92 14.75-6.28 22.74-.78 17.28.93 34.39 3.54 51.47.7 4.6.01 9.54-.77 14.2-.57 3.42-3.39 4.69-6.67 3.63-1.04-.34-2.35-1.52-2.55-2.52-4.19-21.29-8.64-42.61-8.19-64.43.16-7.83 2.08-15.66 3.51-23.43 1.8-9.8 8.74-15.04 17.24-18.96 8.3-3.83 17.19-4.68 26.03-5.95 1.08-.16 2.15-.33 3.62-.56-1-3.46-1.83-6.68-2.92-9.8-.27-.77-1.31-1.59-2.15-1.81-5.8-1.54-11.57-3.36-17.47-4.29-17.78-2.83-25.65-13.69-26.64-29.7-.91-14.81.28-29.51 1.42-44.23 1.69-21.86 3.24-43.74 5.23-65.58 1.1-12.02 3.07-23.96 4.42-35.96.3-2.68 1.62-4.63 3.8-4.68 1.9-.04 4.31 1.27 5.63 2.75 1.18 1.33 1.71 3.73 1.63 5.62-.36 8.26-.92 16.51-1.64 24.74-1.74 19.95-3.6 39.89-5.4 59.83-.03.32.08.65.16 1.31 3.61.29 7.26.5 10.89.9 15.12 1.63 30.61 1.79 45.25 5.37 17.4 4.26 31.88 13.86 38.09 32.46 4.99 14.96 7.38 30.39 9.28 45.93 1.07 8.74 1.62 17.56 2.09 26.36.14 2.49-.77 5.05-1.26 7.57-.58 2.98-2.85 3.98-5.44 3.89-2.51-.09-4.36-.9-5-4.16-3.49-17.75-4.19-35.74-5.12-53.73-.91-17.48-8.7-31.17-23.27-40.92-.98-.66-2.2-1.08-3.37-1.33-10.03-2.18-20-4.93-30.14-6.26-9.94-1.3-20.08-1.15-30.13-1.61-.64-.03-1.29.11-2.19.2-.58 5.86-1.15 11.6-1.79 18.1 9.91 1.73 19.5 3.88 29.22 4.97 12.03 1.34 23.14 4.61 33.2 11.5 8.1 5.55 11.78 13.7 13.48 22.76 4.78 25.61 9.71 51.23 10.97 77.31.42 8.76-.77 17.61-1.43 26.4-.08 1.05-1.45 2.79-2.29 2.83-2.3.11-5.36 2.12-6.8-1.28-1.25-2.95-2.44-6.08-2.78-9.22-2.84-26.69-5.38-53.42-8.25-80.11-.85-7.89-2.41-15.69-6.85-22.58-4.08-6.32-10.41-9.6-17.15-11.58-7.14-2.09-14.62-3.06-21.98-4.33-6.04-1.04-12.13-1.79-18.87-2.77 0 3.53-.14 6.91.03 10.28.45 8.82 6.62 12.61 13.9 15.1 3.57 1.22 7.33 2.02 11.07 2.59 14.49 2.19 22.15 8.78 25.07 23.07 1.69 8.29 2.2 16.83 3.25 25.25 1.76 14.09 3.84 28.15 5.21 42.28 2.1 21.73 3.6 43.5 1.64 65.34-.22 2.45-.87 4.87-.94 7.31-.11 3.75-1.82 5.54-5.53 5.04-1.14-.15-2.56-.68-3.21-1.53-3.25-4.23-4.38-9.22-4.57-14.46-.38-10.62-.52-21.25-1.2-31.85-1.67-26.24-3.59-52.46-5.42-78.69-.06-.55-.24-1.07-.41-1.82z"/><path d="m206.9 275.25c-3.49-5.36-2.56-10.51 2.85-16.15 8.33-8.69 15.68-18.05 21.04-28.9 6.96-14.1 9.57-29.25 10.68-44.7.45-6.19.07-12.44.07-19.03-2.99.84-6.1 1.62-9.15 2.58-5.65 1.77-11.23 3.75-16.91 5.41-2.33.68-4.83 1.03-7.25 1.04-3.23.01-5.32-1.73-6.34-4.95-1.06-3.35.36-5.06 3.13-6.67 12.52-7.3 26.2-11.33 40.16-14.59 12.85-3.01 25.62-6.29 37.47-12.3 2.48-1.26 4.87-2.74 7.2-4.28 5.06-3.33 7.21-8.1 7.57-14.13.25-4.27 1.41-8.5 2.28-12.72.53-2.55 2.15-2.59 4.31-1.78 4.85 1.8 7.26 5.63 7.11 10.34-.19 5.85-.88 11.84-2.49 17.44-.86 2.99-3.76 5.73-6.35 7.83-9.43 7.63-20.74 11.76-31.8 16.27-3.71 1.51-7.65 2.47-11.43 3.82-.78.28-1.87 1.14-1.93 1.8-.88 10.35-1.62 20.71-2.4 31.26 4.38 0 8.48.21 12.56-.04 14.13-.85 24.89 4.52 31.55 17.14 3.92 7.43 3.12 15.46 1.55 23.31-1.76 8.77-5.73 16.44-11.21 23.67-16.04 21.19-19.63 44.01-7.54 68.49 4.07 8.25 8.76 15.99 14.86 22.94 4.37 4.98 7.81 10.66 8.31 17.59.23 3.13-1.59 4.98-4.65 4.23-2.09-.52-4.46-1.4-5.87-2.9-15.27-16.33-27.1-34.67-32.03-56.83-2.89-12.95-1.62-25.54 3.82-37.69.78-1.73 1.56-3.48 2.1-5.29 1.38-4.57 3.86-8.3 7.01-11.95 9.9-11.5 13.57-24.96 10.88-39.97-.23-1.31-1.26-2.78-2.35-3.59-6.94-5.13-14.94-5.94-23.29-5.62-6.77.26-6.54.14-8.87 6.4-6.23 16.78-12.99 33.35-23.87 47.79-5.3 6.97-12.01 12.24-20.78 14.73z"/><path d="m145.55 60.56c-4.45 0-8.95.36-13.35-.1-4.48-.47-7.97-2.87-9.37-7.5-.54-1.79-.23-2.96 1.84-3.88 5.18-2.32 10.39-3.56 16.16-3.35 10.78.4 21.38 1.48 31.71 4.75 7.25 2.29 11.16 6.96 11.79 14.57.58 6.96-1.33 13.53-3.54 19.99-.3.88-1.46 1.61-2.38 2.11-7.82 4.17-16.28 5.07-24.99 5.21-5.1.08-10.2 1.01-15.29 1.56-2.12.23-3.1 1.5-3.21 3.57-.03.56-.12 1.11-.2 1.66-1.06 7.18-1.18 7.55 5.92 9.74 6.04 1.86 12.39 2.75 18.61 4.04 4.92 1.02 9.86 1.95 14.76 3.05 1.51.34 2.98.98 4.36 1.68 4.1 2.08 5.89 4.5 5.24 7.3-.81 3.5-4.14 3.4-6.67 4.02-7.17 1.75-14.25.46-21.16-1.57-7.5-2.2-14.86-4.86-22.39-6.95-8.79-2.44-12.51-9.02-13.04-17.08-.33-5.01 1.06-10.5 3.08-15.16 1.11-2.58 4.87-4.5 7.85-5.69 9.31-3.73 19.16-3.95 29.05-3.37 1 .06 2.01.14 3.01.07 6.56-.47 8.11-2.28 7.63-8.77s-.87-7.27-7.41-8.38c-5.92-1-11.97-1.27-17.96-1.87-.01.12-.03.24-.05.35z"/><path d="m306.29 80.58c-.18 2.11-.34 4.23-.53 6.34-.69 7.53-6.09 11.58-11.53 15.61-7.81 5.79-16.63 9.36-25.75 12.64-14.47 5.21-28.65 11.24-42.93 16.99-6.09 2.46-12.29 4.05-18.93 3.46-2.58-.23-4.69-1-4.84-3.95-.14-2.75-.45-5.77 2.86-7.12 9.6-3.9 18.98-8.65 28.9-11.4 19.82-5.48 38.01-14.31 55.66-24.51 3.95-2.28 3.44-6.62 3.9-10.46.41-3.51 1.06-7 1.76-10.46.51-2.54 2.09-2.64 4.25-1.73 4.44 1.86 6.39 5.39 6.92 9.89.18 1.54.03 3.13.03 4.69.07 0 .15.01.23.01z"/><path d="m288.11 25.19c7.45.47 11.82 4.29 12.82 11.52.65 4.7.49 9.59.11 14.35-.4 5.06-2.9 9.03-7.04 12.37-10.55 8.54-22.72 13.6-35.4 17.84-12.71 4.24-25.3 8.84-38.02 13.02-3.11 1.02-6.56 1.57-9.82 1.45-5.76-.21-5.58-.54-7.05-6.15-.56-2.16.11-3.26 1.77-4 8.74-3.91 17.33-8.26 26.32-11.48 14.4-5.15 29.11-9.42 43.61-14.28 6.29-2.11 11.61-5.69 12.72-12.88.43-2.78-.39-5.74-.39-8.61.01-4.37.24-8.75.37-13.15z"/></g><path d="m377.9 391.2c-.2.3-.4.5-.6.8-.7-.6-1.4-1-2.2-1.5.2-.3.4-.5.5-.8.6.4 1.4.8 2.3 1.5zm-1.8 6.1c-.2-.2-.5-.4-.9-.6.4-.6.8-1.2 1.2-1.9s.7-1.3.9-1.9c.3.3.5.5.8.7-.7 1.3-1.4 2.6-2 3.7zm2.2-9c-.3.3-.5.5-.6.8-.6-.6-1.3-1.1-2-1.5.3-.3.5-.5.6-.7.6.5 1.3.9 2 1.4zm.3.2v-.9h2 4.5c-.3 1.3-.6 2.5-1 3.6s-.9 2.1-1.4 3c.4.5 1 1 1.6 1.4s1.2.8 1.9 1.1c-.3.2-.5.4-.8.8-.4-.3-1-.7-1.6-1.2s-1.2-1.1-1.6-1.6c-.5.6-1.1 1.1-1.7 1.6s-1.4.9-2.1 1.4c-.1-.3-.3-.5-.7-.8.6-.2 1.2-.5 1.9-1s1.4-1.1 2-1.8c-.5-.8-.9-1.6-1.2-2.5s-.6-2-.8-3.2c-.4.1-.7.1-1 .1zm2.5 2.7c.3 1 .7 1.7 1 2.2.3-.5.6-1.1 1-2s.6-1.9.9-3h-3.2-.4c.1.9.3 1.8.7 2.8z" fill="#fcfbfa"/><path d="m396.5 388.5v1.5 3.6h1.5v.9c-.4 0-1 0-1.7 0h-7.9c-.5 0-.9 0-1.2 0v-.9h1.3v-3.5c0-.7 0-1.2 0-1.6h2.4c0-.8 0-1.4 0-1.7h1c0 .3-.1.8-.1 1.7h1.5c0-.8 0-1.4 0-1.7h1c0 .3-.1.9-.1 1.7zm-8.2 9.2c-.2-.3-.5-.5-.8-.8.8-.3 1.4-.6 1.9-.9s1-.7 1.4-1.1c.3.3.6.5.9.8-1.6 1-2.8 1.6-3.4 2zm2.6-6.8v-1.6h-1.5v1.6zm0 2.7v-1.9h-1.5v1.9zm2.4-2.7v-1.6h-1.5v1.6zm0 2.7v-1.9h-1.5v1.9zm.2 2 .7-.8c.4.2.9.5 1.6.8s1.3.7 1.8 1c-.3.3-.5.5-.8.8-.4-.3-1.5-1-3.3-1.8zm2-4.7v-1.6h-1.4v1.6zm0 2.7v-1.9h-1.4v1.9z" fill="#fcfbfa"/></svg>