<svg enable-background="new 0 0 400 400" viewBox="0 0 400 400" xmlns="http://www.w3.org/2000/svg"><path d="m361.2 9.6.8-1c.9.7 1.9 1.4 2.9 2.3l-.9 1.1c-1-1-2-1.8-2.8-2.4zm.5 10.6c.9-2.1 1.6-4.3 2.3-6.7.4.2.8.4 1.3.6-.7 2.1-1.5 4.3-2.2 6.6zm.4-15.2.9-.9c1 .8 2 1.6 2.8 2.4l-1 1c-.9-.9-1.8-1.7-2.7-2.5zm12.5-1.2h1.2v1.4h2.7v1.1h-2.7v2.7h-1.2v-.6h-1.8v1.3h4.9v3.8h-1.2v-.5h-3.7c0 .4-.1.9-.1 1.2h5.1v1h-5.2c0 .5-.1.9-.2 1.2h6v1h-5.2c1.1 1.3 2.9 2 5.5 2.2-.4.4-.7.8-.9 1.3-2.9-.5-4.8-1.6-5.7-3.5h-.1c-.8 1.7-2.7 2.9-5.9 3.6-.2-.4-.6-.8-.9-1.1 2.8-.6 4.6-1.4 5.4-2.5h-4.8v-1h5.3c.1-.3.2-.7.2-1.2h-4.9v-1h5c0-.4 0-.8.1-1.2h-3.5v.5h-1.2v-3.8h4.9v-1.3h-1.8v.5h-1.2v-2.7h-2.7v-1h2.6v-1.4h1.2v1.4h4.7v-1.4zm-6.6 8.3h3.6c0-.4 0-.9 0-1.4h-3.6zm1.9-4.6h4.7v-1.3h-4.7zm6.6 3.2h-3.7v1.4h3.7z" fill="#fbfcfa"/><path d="m385.3 3.8h1.3v2.2h2.8v-2.2h1.3v2.2h4.1v9.1h1.7v1.3h-16.9v-1.3h1.7v-9.1h4.1v-2.2zm.4 13.1.7 1.2c-1.8.9-3.8 1.9-6 2.9-.2-.4-.5-.8-.8-1.3 2.3-1 4.3-1.9 6.1-2.8zm-3.1-6.4h2.8v-3.2h-2.8zm0 4.6h2.8v-3.3h-2.8zm4-4.6h2.8v-3.2h-2.8zm0 4.6h2.8v-3.3h-2.8zm3.7 1.9c2.1.9 4.1 1.8 6.1 2.7l-.7 1.3c-2.2-1.1-4.2-2-6.1-2.9zm3.2-9.7h-2.8v3.2h2.8zm-2.8 7.8h2.8v-3.3h-2.8z" fill="#fbfcfa"/><g fill="#010102"><path d="m222.06 115.69c.36-9.3.75-17.67.92-26.05.01-.7-1.34-1.97-2.16-2.06-6.11-.65-12.26-.91-18.36-1.64-2.93-.35-6.15-.85-8.58-2.34-7.51-4.6-12.87-11.04-14.47-20.02-.47-2.65-1.01-5.48 2.11-7.06 2.85-1.44 7.07-.25 8.97 2.5.82 1.19 1.43 2.53 2.08 3.83 6.1 12.14 17.44 14.66 28.66 12.15.8-.18 1.94-1.62 1.89-2.4-.54-7.81-.96-15.65-2.11-23.38-.88-5.88-4.91-8.8-10.95-8.73-2.87.03-5.75.68-8.61 1.12-7.48 1.15-14.93 2.59-22.45 3.37-2.29.24-5.19-.7-7.05-2.11-3.45-2.6-3.09-6.41.75-8.41 3.32-1.73 6.98-3.14 10.66-3.81 10.55-1.94 21.15-3.69 31.8-4.96 3.63-.43 7.57.38 11.17 1.33 5.28 1.39 8.77 5.1 9.61 10.55.88 5.72 1.39 11.52 1.68 17.31.25 5.14.04 10.3-.13 15.45-.06 1.95.64 2.92 2.52 3.19 7.59 1.07 15.06.57 21.79-3.25 2.1-1.19 3.6-3.87 4.75-6.18 1.74-3.52 4.09-6.1 7.86-7.27 3.37-1.04 5.79.29 5.99 3.73.41 7.01-1.52 13.39-6.81 18.21-5.96 5.44-12.96 8.07-21.24 7.17-3.4-.37-6.93.04-10.36.43-1 .11-2.62 1.31-2.69 2.12-.73 8.58-1.21 17.17-1.76 25.9 8.75 2.73 17.46 2.52 25.98.38 12.34-3.1 11.16-2.54 13.7-14.46.58-2.73.6-5.59 1.32-8.27.56-2.09 1.42-4.34 2.83-5.9 2.64-2.93 5.55-2.34 7.42 1.1 5.37 9.9 4.11 20.09-.77 29.29-2.98 5.62-9.76 8.1-16.19 9.21-10.67 1.83-21.4 3.26-32.64 4.94-.69 3.97-1.51 8.66-2.34 13.47 9.57 2.47 19.01 2.64 28.52 2.64 6.54 0 13.3.09 19.58 1.65 15.01 3.73 21.73 15.26 23.57 29.43 1.43 10.93 1.28 22.1 1.36 33.17.11 14.78-.33 29.56-.36 44.33-.06 37.96-.02 75.93-.02 113.89v4.15c-1.62.36-3 .72-4.4.99-4.86.94-5.33 1.03-6.42-3.94-1.33-6.08-2.44-12.34-2.5-18.53-.19-21.83.2-43.66.22-65.5.03-29.78-.06-59.56-.13-89.35-.02-8.32-.9-16.49-3.77-24.41-2.33-6.43-6.82-10.21-13.38-11.27-5.5-.89-11.1-1.56-16.66-1.61-21.83-.18-43.66-.11-65.49-.06-7.26.02-14.53.43-21.78.31-5.88-.09-9.11-2.8-10.03-7.56-.35-1.8-.09-3.06 1.71-4.18 6.42-3.98 13.5-4.39 20.71-4.17 10.37.31 20.72 1.99 31.1-.12 2.13-.43 3.2-.91 3.07-3.27-.17-3.01-.16-6.05 0-9.07.1-1.99-.71-3.01-2.56-3.12-6.67-.4-13.34-1.01-20.01-.96-5.28.03-10.54.61-15.47-1.76-6.12-2.94-10.57-7.19-12-14.27-1.53-7.61-2.95-15.08-.83-22.88 1.05-3.86 4.15-3.26 6.61-3.74.74-.15 2.49 1.91 2.82 3.2.95 3.65 1.71 7.41 1.98 11.17.7 9.77 5.19 15.37 14.93 16.22 8.1.74 16.3.17 24.84.17z"/><path d="m257.41 233.29c3.65 7.01 5.03 14.51 5.45 22.09 1.01 18.08-.64 35.93-4.4 53.69-2.72 12.85-10.34 19.36-22.88 21.22-18.25 2.71-36.35 2.39-54.23-2.4-6.34-1.7-12.11-4.63-16.31-10-3.86-4.94-4.84-10.84-5.15-16.75-.95-17.76-1.73-35.54-2.2-53.32-.1-3.79 1.18-7.7 2.25-11.42.75-2.62 2.79-4.62 5.76-4.12 3.07.52 6.17 1.55 7.28 5.07 1.24 3.94 2.38 7.91 3.72 12.39 3.4 0 6.85-.02 10.3 0 18.91.14 37.82.26 56.73.5 2.37.03 3.77-.43 4.1-3.05.27-2.21.95-4.36 1.44-6.54 1.12-5.07 2.58-6.43 8.14-7.36zm-81.98 30.68c0 10.54-.25 20.46.13 30.36.14 3.57 1.39 7.25 2.82 10.59 2.07 4.83 5.7 8.21 11.2 9.09 6.17.99 12.32 2.19 18.5 3.08 12.02 1.74 23.45.41 33.38-7.33 1.05-.82 1.94-2.42 2.08-3.74.77-7.11 1.31-14.25 1.89-21.39.52-6.43.97-12.87 1.48-19.66-23.97-.32-47.63-.66-71.48-1z"/><path d="m137.18 115.13c0-9.05-.1-17.74.04-26.43.07-4.11.19-8.29 1.02-12.29.89-4.3 3.74-7.28 8.53-8.38 2.82 4.09 4.69 8.66 4.67 13.63-.07 22.15.13 44.32-.85 66.44-.37 8.31-3.55 16.51-5.72 24.69-.41 1.54-1.97 2.92-3.28 4.04-8.23 7-17.93 8.12-28.13 6.48-4.5-.72-8.88-2.2-13.37-3.09-3.84-.76-5.72-3.25-7.29-6.56-4.71-9.98-7.25-20.47-7.32-31.45-.12-20.59-.14-41.18.23-61.77.08-4.16 2.06-8.29 3.15-12.38 6.88 1.48 10.83 5.27 10.83 11.38 0 7.12-1.26 14.23-1.52 21.36-.15 4.08.48 8.21 1.06 12.27.11.78 1.59 1.96 2.45 1.97 11.53.13 23.05.09 35.5.09zm-18.4 15.34c0-.19 0-.37 0-.56-4.58 0-9.16-.02-13.73 0-4.95.02-4.35-.45-4.61 4.54-.08 1.45-.27 2.9-.34 4.35-.44 8.53-.37 16.97 3.05 25.06 1.1 2.6 2.72 4.15 5.49 4.7 6.92 1.39 13.81 2.96 20.77.17 2.49-1 4.36-2.35 4.82-5.34.73-4.74 2.03-9.4 2.64-14.15.61-4.74.77-9.55.93-14.33.11-3.24-1.43-4.72-4.94-4.5-4.68.28-9.39.06-14.08.06z"/><path d="m229.17 191.42c6.21 9.87 12.76 18.48 24.04 22.05 4.36 1.38 8.52 3.38 12.87 4.81 3.59 1.18 3.4 4.17 3.49 6.82.1 2.82-1.78 4.75-4.57 4.81-3.65.08-7.41.02-10.96-.75-11.36-2.46-22.01-6.67-29.14-16.43-4.14-5.66-7.41-11.97-10.86-18.11-1.19-2.13-2.61-3.19-5-3.09-5.92.24-11.89.02-17.74.76-8.97 1.14-11.73 6.38-8.41 14.84 2.82 7.18 7.98 12.59 13.45 17.78 2.35 2.23 4.82 4.39 6.83 6.91 2.81 3.51 1.67 5.93-2.68 6.88-5.33 1.15-9.83.23-14.27-3.38-10.92-8.88-19.4-19.04-21.63-33.53-1.62-10.5 1.44-16.33 11.26-20.36 8.39-3.45 17.31-3.49 26.09-3.72 20.8-.56 41.62-.67 62.43-.8 2.74-.02 5.57.65 8.18 1.53 1.55.53 3.13 1.85 4.04 3.24 2.08 3.18 1.48 4.56-1.98 6.11-7.6 3.39-15.55 3.76-23.68 2.84-7.09-.81-14.2-1.42-21.76.79z"/><path d="m237.41 291.44c-5.48 3.48-11.48 4.86-17.59 5.36-10.86.9-21.66.45-31.96-3.68-1.01-.4-2.3-1.57-2.4-2.49-.18-1.81-.86-3.85 1.48-5.34 3.49-2.21 7.02-3.63 11.24-3.57 7.26.1 14.52-.29 21.77-.1 3.52.09 7.11.71 10.49 1.69 3.76 1.11 6.25 3.82 6.97 8.13z"/></g></svg>