<svg enable-background="new 0 0 400 400" viewBox="0 0 400 400" xmlns="http://www.w3.org/2000/svg"><path d="m361.2 9.6.8-1c.9.7 1.9 1.4 2.9 2.3l-.9 1.1c-1-1-2-1.8-2.8-2.4zm.5 10.6c.9-2.1 1.6-4.3 2.3-6.7.4.2.8.4 1.3.6-.7 2.1-1.5 4.3-2.2 6.6zm.4-15.2.9-.9c1 .8 2 1.6 2.8 2.4l-1 1c-.9-.9-1.8-1.7-2.7-2.5zm12.5-1.2h1.2v1.4h2.7v1.1h-2.7v2.7h-1.2v-.6h-1.8v1.3h4.9v3.8h-1.2v-.5h-3.7c0 .4-.1.9-.1 1.2h5.1v1h-5.2c0 .5-.1.9-.2 1.2h6v1h-5.2c1.1 1.3 2.9 2 5.5 2.2-.4.4-.7.8-.9 1.3-2.9-.5-4.8-1.6-5.7-3.5h-.1c-.8 1.7-2.7 2.9-5.9 3.6-.2-.4-.6-.8-.9-1.1 2.8-.6 4.6-1.4 5.4-2.5h-4.8v-1h5.3c.1-.3.2-.7.2-1.2h-4.9v-1h5c0-.4 0-.8.1-1.2h-3.5v.5h-1.2v-3.8h4.9v-1.3h-1.8v.5h-1.2v-2.7h-2.7v-1h2.6v-1.4h1.2v1.4h4.7v-1.4zm-6.6 8.3h3.6c0-.4 0-.9 0-1.4h-3.6zm1.9-4.6h4.7v-1.3h-4.7zm6.6 3.2h-3.7v1.4h3.7z" fill="#fbfcfa"/><path d="m385.3 3.8h1.3v2.2h2.8v-2.2h1.3v2.2h4.1v9.1h1.7v1.3h-16.9v-1.3h1.7v-9.1h4.1v-2.2zm.4 13.1.7 1.2c-1.8.9-3.8 1.9-6 2.9-.2-.4-.5-.8-.8-1.3 2.3-1 4.3-1.9 6.1-2.8zm-3.1-6.4h2.8v-3.2h-2.8zm0 4.6h2.8v-3.3h-2.8zm4-4.6h2.8v-3.2h-2.8zm0 4.6h2.8v-3.3h-2.8zm3.7 1.9c2.1.9 4.1 1.8 6.1 2.7l-.7 1.3c-2.2-1.1-4.2-2-6.1-2.9zm3.2-9.7h-2.8v3.2h2.8zm-2.8 7.8h2.8v-3.3h-2.8z" fill="#fbfcfa"/><g fill="#010102"><path d="m330.26 197.42c0 25.19.36 53.18-.17 81.16-.23 12.15-2.25 24.27-3.48 36.41-.75 7.35-1.24 14.74-2.41 22.02-1.27 7.94-4.48 15.28-10.5 20.75-10.62 9.65-23.48 14.24-37.64 15.98-22.67 2.77-45.37 1.05-68.06.97-13.09-.05-26.18-.3-39.28-.46-17.9-.22-35.8-.44-53.7-.7-1.2-.02-2.45-.26-3.59-.65-9-3.03-18-6.08-26.95-9.26-1.39-.49-2.78-1.45-3.75-2.55-9.17-10.51-13.67-22.84-14.55-36.71-.82-12.95-2.03-25.88-3.05-38.82-.12-1.56-.18-3.13-.19-4.69-.01-54.3-.15-108.6.11-162.9.05-10.93 1.55-21.86 2.6-32.77.69-7.22 1.75-14.41 2.66-21.61.06-.44.27-.86.35-1.29 3.6-19.22 17.7-27.83 34.65-31.51 14.55-3.16 29.67-4.64 44.57-4.97 24.36-.53 48.76.46 73.14.84 12.3.19 24.64-.01 36.9.83 12.47.85 24.97 2.21 37.28 4.35 18.89 3.27 28.5 17.64 30.81 33.33 1.75 11.9 1.84 24.08 2.16 36.15.84 31.08 1.38 62.19 2.09 96.1zm-14.8-4.1c-.52-21.04-.94-35.13-1.19-49.23-.33-18.57-.42-37.14-.81-55.71-.19-8.8-2.35-17.2-5.92-25.3-4.59-10.42-11.91-17.16-23.52-18.46-5.44-.61-10.9-1.29-16.36-1.43-15.66-.39-31.32-.63-46.98-.74-32.54-.23-65.09-1.63-97.62.73-12.52.91-23.95 4.2-33.66 12.39-1.04.87-1.99 2.16-2.37 3.44-4.8 15.8-8 31.97-8.55 48.43-.7 20.79-.82 41.63-.5 62.43.74 48.66.76 97.34 3.17 145.96.61 12.21 3.03 23.48 11.12 32.98.95 1.11 2.37 2.11 3.75 2.52 21.03 6.25 42.53 9.58 64.48 9.42 20.47-.15 40.93-.65 61.39-1.12 17.09-.39 34.19-.75 51.27-1.5 11.01-.49 21.01-4.23 29.39-11.59 1.25-1.1 2.33-2.74 2.78-4.34 6.19-22.2 9.5-44.92 9.99-67.88.61-29.3.14-58.63.14-81z"/><path d="m138.42 146.78c7.74 22.98 3.45 46.84 6.21 70.25h43.92c.35-28.69.71-57.3 1.07-86.68-5.51 0-10.83.05-16.15-.01-18.8-.2-37.6-.35-56.4-.74-3.98-.08-7.97-.96-11.91-1.72-3.22-.62-5-2.71-5.2-6.1-.2-3.46 1.52-5.11 4.7-6.21 10.84-3.78 22.02-3.29 33.21-3.24 16.33.08 32.65-.12 48.98-.08 2.53.01 3.26-1.25 3.66-3.33 1.61-8.43.12-16.72-1.01-25.04-1.47-10.76-.24-20.98 5.94-30.23.25-.37.5-.74.79-1.08.14-.16.36-.25.72-.48 6.72 3.72 9.34 9.94 9.64 17.17.28 6.7-.14 13.43-.18 20.14-.05 7.7-.01 15.39-.01 23.58h4.04c21.38 0 42.77-.08 64.15.06 4.67.03 9.36.66 13.99 1.4 4.88.78 7.46 5.03 6.05 9.73-.28.94-1.49 1.84-2.49 2.3-7.47 3.5-15.49 4.34-23.57 4.25-11.63-.13-23.26-.85-34.89-.95-8.61-.08-17.22.48-25.83.65-2.31.05-2.05 1.54-2.05 2.98-.01 8.06 0 16.12 0 24.19v54.42 4.57h45.32c0-6.98-.06-14.23.01-21.48.1-10.52.04-21.05.56-31.56.21-4.15 1.53-8.33 2.88-12.31.53-1.57 2.32-3.08 3.9-3.84 3.77-1.81 5.27-.91 6.4 3.08 3.29 11.56 3.3 23.45 3.36 35.31.09 18.02.06 36.04-.12 54.06-.2 19.03-.5 38.07-5.62 56.62-.95 3.44-2.35 6.79-3.06 10.27-1.8 8.81-7.96 13.48-15.37 17.3-10.53 5.42-21.81 8.05-33.45 9.1-15.45 1.4-30.87 1.03-45.95-3.09-4.62-1.26-9.07-3.13-13.57-4.79-7.89-2.92-11.07-10.11-14.56-16.77-7.48-14.27-9.37-29.71-8.62-45.6 1.03-21.71 1.14-43.41-.45-65.11-.71-9.69-1.38-19.42-1.3-29.13.05-5.63 1.69-11.23 2.45-16.87.33-2.41 1.6-3.42 3.86-3.76 1.95-.28 3.89-.79 5.95-1.23zm113.5 87.76c-36.24-.36-71.72-.71-107.33-1.06-.14.99-.29 1.64-.31 2.29-.24 12.86-.69 25.73-.62 38.59.05 9.01 1.89 17.74 5.9 25.95 2.57 5.26 6.21 8.92 11.89 10.98 15.2 5.5 30.84 5.97 46.66 4.77 10.8-.81 21.29-2.96 30.59-8.87 2.08-1.32 4.53-3.09 5.31-5.2 2.12-5.73 4.35-11.68 4.89-17.69 1.46-16.36 2.06-32.79 3.02-49.76z"/></g></svg>