<svg enable-background="new 0 0 400 400" viewBox="0 0 400 400" xmlns="http://www.w3.org/2000/svg"><g fill="#fbfafa"><path d="m37.59 393.81c-.92.31-1.52.05-2-.78-.7-1.2-1.52-2.34-2.47-3.78v4.59c-.55.03-.95.05-1.41.07-.03-.37-.06-.64-.06-.91 0-1.91 0-3.81 0-5.7 1.13-.41 1.77-.03 2.29.91.62 1.11 1.38 2.14 2.31 3.19v-4.2h1.35v6.61z"/><path d="m12.94 393.88v-6.75c1.9.19 3.93-.54 5.37 1.29.8 1.01.78 2.88.03 3.97-1.37 1.97-3.4 1.51-5.4 1.49m1.45-1.22c2.04.12 2.92-.58 2.89-2.21-.03-1.51-.98-2.19-2.89-2z"/><path d="m11.81 393.87h-5.49c.68-2.18 2.47-3.48 3.51-5.45h-3.08v-1.21h5.29c-.71 2.13-2.44 3.48-3.47 5.51.86 0 1.63.04 2.39-.01.79-.05 1.14.21.85 1.16"/><path d="m39.33 393.86v-6.61h3.7v1.07h-2.22v1.52c.68.04 1.34.09 2.07.13v1.07c-.72.05-1.38.09-2.1.14v1.48h2.4v1.19h-3.85z"/><path d="m27.71 388.56c-1.15-.3-2.46-.61-3.1.64-.37.73-.41 1.93-.06 2.67.63 1.35 1.99.93 3.17.68.35.94-.01 1.32-.93 1.46-1.62.25-3.05-.27-3.76-1.48-.73-1.24-.6-3.03.31-4.17.88-1.11 2.71-1.7 4-1.16.32.13.44.74.65 1.12-.1.08-.19.16-.28.24"/><path d="m49.15 387.24v1.07c-.59.02-1.17.05-1.87.08v5.44h-1.48v-5.44h-1.85c-.05-.4-.08-.73-.13-1.15z"/><path d="m20.06 387.21h1.33v6.62h-1.33z"/><path d="m30.68 393.25c-.49.38-.8.79-1.05.76-.32-.05-.6-.45-.9-.7.26-.24.51-.64.8-.67.29-.04.62.3 1.15.61"/></g><path d="m196.62 162.26c7.4.77 9.83 3.32 9.97 10.17.01.67.02 1.34.04 2.01.29 9.91 1.16 10.85 10.26 14.42 8.82 3.45 17.8 6.72 26.1 11.21 5.05 2.73 9.49 7.15 13.23 11.63 6.92 8.29 5.11 18.61 1.05 27.2-.23.48-.67.92-1.13 1.2-6.56 4-12.7 9.21-19.8 11.67-11.75 4.07-15.23 15.48-14.74 25.88 5.61 0 11.28-.07 16.94.02 5.7.09 11.43.07 17.09.64 2.61.26 5.39 1.38 7.57 2.87 3.72 2.56 3.12 6.37-.91 8.37-6.6 3.28-13.57 3.07-20.67 2.51-5.43-.43-10.91-.42-16.36-.5-2.2-.04-3.24.88-3.32 3.43-.25 8.38-.85 16.76-1.29 25.14-.06 1.09-.01 2.18-.01 3.87 5.59 0 10.93-.06 16.27.01 13.42.19 26.84.37 40.25.72 3.22.08 6.51.44 9.59 1.3 1.73.48 3.56 1.97 4.54 3.52 1.98 3.11 1.37 4.57-1.83 6.35-6.19 3.43-12.93 3.9-19.83 3.81-29.53-.39-59.06-.72-88.58-1.02-9.29-.09-18.58.12-27.86-.09-2.9-.07-4.59.98-5.15 3.56-.8 3.69-1.55 7.43-1.77 11.19-.3 4.9.19 9.85-.14 14.75-.35 5.24-3.45 7.33-8.13 6.1-1.99-.52-3.14-1.56-3.67-3.74-2.41-9.92-2.18-19.96-1.92-30.04.37-14.31.27-28.65 1.14-42.94.85-13.93 1.99-27.93 4.36-41.66 1.04-6.06 4.73-12.04 8.43-17.19 7.37-10.24 17.53-17.33 28.84-22.89 8.56-4.2 15.37-10.32 18.88-19.53 2.2-5.76 1.81-11.63.86-17.53-.91-5.66.08-11.08 1.7-16.42zm9.76 161.41c-.58-10.32-1.12-20.34-1.81-30.34-.04-.61-1.31-1.59-2.05-1.62-5.22-.24-10.48-.71-15.66-.28-8.47.71-16.91 2.11-25.22-.83-5.16-1.83-6-5.26-2.12-9.28 1.33-1.38 3.25-2.56 5.09-2.98 2.9-.67 5.97-.89 8.95-.82 8.49.21 16.97.8 25.46.98 6.38.13 6.99-.44 8.85-6.6 1.61-5.34 2.92-10.77 4.63-16.08 1.61-5.01 4.37-8.95 9.52-11.4 7.25-3.45 14.08-7.78 21.2-11.51 2.17-1.14 2.74-2.46 2.43-4.75-1.12-8.44-5.02-14.76-13.36-17.63-7.07-2.43-14.24-4.6-21.3-7.08-2.2-.77-3.44-.25-4.8 1.51-7.04 9.12-15.69 16.45-25.24 22.87-6.02 4.05-11.57 8.8-17.53 12.95-4.96 3.46-7.61 8.2-9.4 13.78-5.47 16.99-7.37 34.5-7.54 52.22-.06 5.93.91 11.87 1.41 17.94 19.94-.36 39.02-.7 58.49-1.05z" fill="#010105"/><path d="m114.11 62.56c8.69 2.28 17.32 3.05 26.06 2.47 7.53-.5 14.93-.64 22.14 2.2 8.97 3.55 14.44 9.74 15.87 19.46 4.05 27.49 6.85 55.08 5.52 82.91-.27 5.55-1.38 11.08-2.36 16.57-.51 2.88-3.25 4.49-6.21 4.31-3.04-.18-4.52-1.58-4.77-4.74-.51-6.67-1.29-13.33-2-20.36-8.15-.49-16.16-1.04-24.19-1.45-8.85-.45-17.66-1.13-25.91-4.72-9.63-4.19-15.31-11.07-16.7-21.97-2.96-23.29-4.18-46.59-2.37-69.99.5-6.44 1.97-12.8 2.91-19.21 1.21-8.32 6.61-13.02 13.76-16.36 7.98-3.72 16.58-4.74 25.15-5.22 12.39-.69 24.82-.76 37.24-.83 3.42-.02 6.9.63 10.24 1.45 1.97.49 3.99 1.61 5.5 2.98 3.89 3.51 3.25 6.46-1.57 8.12-10.72 3.7-21.74 3.82-32.83 2.57-11.14-1.25-22.26-2.57-33.25 1-.21.07-.44.1-.65.16-5.44 1.51-9.34 4.22-9.65 10.6-.17 3.31-1.23 6.55-1.93 10.05zm-.52 14.47c-.57 14.37-1.49 27.53-1.44 40.69.02 5.79 1.59 11.71 3.23 17.34 2.22 7.61 6.73 12.75 15.46 14.01 11.44 1.66 22.74 3.46 34.25.77 2.55-.6 3.7-1.64 3.64-4.48-.24-12.18.11-24.38-.5-36.54-.32-6.39-1.9-12.77-3.44-19.03-1.36-5.55-5.1-9.25-11.02-9.75-13.08-1.12-26.2-1.98-40.18-3.01z" fill="#010105"/><path d="m229.33 96.19c16.71 0 32.36 0 48.02-.01.55 0 1.09-.1 2.46-.24.12-7.8.33-15.58.34-23.37.01-6.37-.52-12.75-.27-19.1.21-5.24 1.81-10.13 6.67-13.23 2.02-1.28 3.86-1.55 4.75 1.07 1.2 3.53 3.21 7.27 2.91 10.74-1.13 12.96 1.35 25.65 1.97 38.47 1.16 23.89-.94 47.35-9.55 69.9-.45 1.18-1.33 2.32-2.27 3.19-14.07 12.87-39.24 15.04-54.93 4.23-2.95-2.03-4.84-6.05-6.46-9.51-4.54-9.72-6.74-20.19-7.41-30.8-.94-14.71-1.28-29.47-1.46-44.22-.12-10.26.43-20.52.73-30.78.15-5.03 2.15-9.26 5.67-12.88 1.33-1.37 2.36-1.26 3.72-.26 4.4 3.21 6.7 7.7 6.59 12.95-.21 9.72-1.04 19.42-1.44 29.13-.2 4.81-.04 9.6-.04 14.72zm.34 14.58c0 3.34-.11 6.9.02 10.45.39 10.9 1.56 21.65 6.97 31.42.81 1.46 2.16 2.86 3.61 3.69 10.39 5.96 23.34 4.76 32.5-3.06 1.33-1.13 2.52-2.91 2.91-4.59 1.73-7.5 3.34-15.05 4.62-22.64.82-4.89 1.71-9.9-.25-15.26-16.65-.01-33.27-.01-50.38-.01z" fill="#010105"/><path d="m120.16 109.37c11.21-4 22.57-3.41 33.91-2.24 3.93.41 7.15 2.47 8.68 6.48.64 1.69.36 2.83-1.36 3.85-10.04 5.93-20.73 6.14-31.75 3.91-.55-.11-1.09-.25-1.62-.43-10.07-3.43-7.94-1.46-7.86-11.57z" fill="#010105"/></svg>