<svg enable-background="new 0 0 400 400" viewBox="0 0 400 400" xmlns="http://www.w3.org/2000/svg"><path d="m208.47 117.7c-.64 7.75-1.37 15.3-1.77 22.88-.04.82 1.6 2.16 2.71 2.55 17.5 6.25 34.75 13.17 50.92 22.31 17.22 9.73 34 20.24 50.88 30.55 4.36 2.67 7.68 6.41 9.34 11.47.88 2.7.06 4.72-2.46 5.17-2.83.51-6.05.8-8.69-.08-3.53-1.17-6.72-3.45-9.96-5.42-20.15-12.29-40.26-24.63-60.39-36.95-.38-.23-.79-.39-1.36-.67-.21.43-.53.78-.54 1.15-.41 14.75-1.82 29.5.72 44.22.39 2.24 1.1 3.7 3.08 5.05 21.39 14.5 42.69 29.14 64.01 43.74 3.37 2.31 5.82 5.16 6.14 9.49.18 2.48-.51 3.93-3.13 4.6-3.3.85-6.27.23-9.01-1.42-9.96-5.99-19.88-12.05-29.76-18.16-4.57-2.82-8.93-5.98-13.55-8.7-10.47-6.17-19.81-13.79-28.73-21.98-3.77-3.46-4.19-8.33-4.79-12.9-2.09-15.82-1.62-31.72-.54-47.59.23-3.45-.93-5.6-3.87-6.45-3.93-1.13-8.05-2.41-12.06-2.31-8.03.19-16.03 1.29-24.04 1.98-2.41.21-3.24 1.3-3.32 3.85-.55 16-1.51 31.98-1.91 47.98-.17 6.93-2.39 12.89-7.14 17.54-5.49 5.37-11.26 10.64-17.63 14.86-11.37 7.52-23.31 14.17-34.97 21.26-4.68 2.84-9.22 5.92-13.85 8.83-3.91 2.46-8.22 3.25-12.82 3.15-2.92-.06-3.85-1.6-3.53-4 .44-3.39 1.75-6.35 4.83-8.39 15.4-10.18 30.88-20.24 46.06-30.74 7.8-5.4 15.06-11.59 22.49-17.51.75-.6 1.4-1.83 1.43-2.78.42-14.86.74-29.73 1.09-45.27-7.11 3.5-14 6.41-20.41 10.13-16.25 9.44-32.21 19.37-48.45 28.81-4.09 2.37-8.79 3.72-13.29 5.33-2.4.86-4.69.5-5.93-2.19-1.33-2.88-.76-6.38 1.34-8.24 11.02-9.75 22.9-18.34 35.88-25.25 17.46-9.3 34.93-18.62 52.8-27.09 7.05-3.34 15.18-4.42 22.82-6.53 1.06-.29 2.12-.6 3.25-.93.57-8.16 1.13-16.15 1.7-24.34-10.25-1.5-20.08-2.93-29.91-4.36-3.65-.53-7.31-1.04-10.96-1.54-4.38-.59-7.06-3.7-9.64-6.75-6.48-7.65-8.89-16.96-9.97-26.62-1.51-13.61-1.76-27.2.41-40.83.59-3.71 4.34-6.44 8.72-5.55.76.15 1.51 1.46 1.85 2.39 3.35 9.09 3.76 18.52 3.39 28.1-.27 7.02-.69 14.18.34 21.07 1.96 13.13 5.92 16.88 20.23 18.16 7.32.66 14.76.02 22.15-.01 1.95-.01 2.88-.74 3.34-2.83 2.62-12.01 2.28-24 .22-36.02-2.16-12.63-1.26-24.96 3.58-36.91.25-.61.55-1.19.86-1.85.42.08.72.14 1.02.2 5.67 1.2 7.3 4.55 7.33 10.39.11 20.7 1.03 41.39 1.31 62.1.05 3.71 1.56 4.97 4.59 4.85 6.69-.28 13.38-.77 20.05-1.39 3.55-.33 7.05-1.25 10.6-1.68 2.79-.34 4.64-1.71 6.19-3.99 4.01-5.86 5.69-12.41 5.66-19.34-.04-9.17-.67-18.35-.67-27.52 0-3.62.77-7.3 1.7-10.82.41-1.54 1.85-3.14 3.25-4.02 3.57-2.25 6.38-1.36 7.26 2.68 1.45 6.63 3.22 13.42 3.06 20.1-.26 11.36-1.75 22.71-3.02 34.03-1.26 11.31-8.66 17.71-18.53 21.75-9.3 3.81-19.26 3.68-29.04 4.5-2.9.23-5.78.45-8.96.7z" fill="#010103"/><path d="m190.15 358.48c0-16.48 0-32.68 0-49.49-3.64-.18-7.26-.49-10.88-.51-11.18-.06-22.37.12-33.55-.11-2.69-.06-5.53-1-7.98-2.2-1.77-.87-3.43-2.6-4.4-4.35-2.31-4.19-1.1-6.8 3.52-7.44 6.41-.89 12.87-1.68 19.32-1.86 10.84-.3 21.69-.08 32.97-.08.21-3.24.59-6.32.57-9.4-.12-15.66-.37-31.31-.54-46.97-.09-8.68.87-17.17 4.16-25.32 1.11-2.74 2.69-3.17 5.16-2.04 5.1 2.34 6.04 6.93 6.07 11.75.12 14.44-.05 28.88.08 43.32.08 8.39.63 16.77.74 25.16.04 3.09 1.31 4.68 4.24 4.68 8.35-.01 16.71-.07 25.06-.3 5.02-.14 10.04-1 15.04-.86 7.5.21 12 3.84 13.42 10.23-5.27 2.91-11.05 4.82-17.04 4.91-8.69.14-17.39-.7-26.1-.91-3.67-.09-7.37.22-11.02.67-.97.12-2.52 1.44-2.56 2.26-.7 16.19-1.21 32.39-1.79 49.19 3.9 0 7.55-.03 11.21 0 23.05.22 46.1.43 69.15.7 2.22.03 4.57.1 6.62.83 1.87.66 3.88 1.91 5.02 3.48 2.7 3.7 2.01 5.69-2.08 7.62-6.74 3.18-13.98 4.24-21.26 3.75-38.13-2.57-76.29-1.19-114.44-1.43-11.4-.07-22.8.68-34.2 1.03-7.88.24-15.61-.58-23.19-2.9-4.13-1.27-2.09-4.84-2.93-7.3-.76-2.23 1.4-2.49 2.76-2.95 10.47-3.57 21.31-3.46 32.19-3.32 18.33.23 36.66.27 55 .38.43.01.87-.11 1.66-.22z" fill="#010103"/><g fill="#fcfbfa"><path d="m385.2 377.6.6-.7c.6.4 1.3.9 1.9 1.5l-.6.7c-.8-.5-1.4-1-1.9-1.5zm.3 7.1c.6-1.4 1.1-2.9 1.5-4.5.3.1.6.3.9.4-.5 1.4-1 2.9-1.5 4.4zm.2-10.1.6-.6c.7.5 1.3 1.1 1.9 1.6l-.7.7c-.6-.6-1.2-1.2-1.8-1.7zm8.4-.8h.8v.9h1.8v.7h-1.8v1.8h-.8v-.3h-1.2v.9h3.3v2.6h-.8v-.4h-2.5c0 .3 0 .6-.1.8h3.4v.7h-3.5c0 .3-.1.6-.1.8h4v.7h-3.5c.7.9 1.9 1.3 3.6 1.5-.2.2-.4.5-.6.9-1.9-.3-3.2-1.1-3.8-2.3-.5 1.1-1.8 2-3.9 2.4-.2-.3-.4-.5-.6-.8 1.9-.4 3.1-.9 3.6-1.7h-3.2v-.7h3.5c.1-.2.1-.5.2-.8h-3.3v-.7h3.4c0-.2 0-.5 0-.8h-2.4v.3h-.8v-2.6h3.3v-.9h-1.2v.3h-.8v-1.8h-1.8v-.7h1.8v-.9h.8v.9h3.2zm-4.4 5.5h2.4c0-.3 0-.6 0-.9h-2.4zm1.2-3.1h3.2v-.8h-3.2zm4.4 2.2h-2.4v.9h2.5v-.9z"/><path d="m389.2 385.8h.9v1.5h1.9v-1.5h.9v1.5h2.7v6h1.1v.9h-11.3v-.9h1.1v-6h2.7zm.2 8.7.5.8c-1.2.6-2.5 1.3-4 1.9-.2-.3-.3-.6-.6-.8 1.6-.6 3-1.3 4.1-1.9zm-2-4.3h1.9v-2.1h-1.9zm0 3.1h1.9v-2.2h-1.9zm2.7-3.1h1.9v-2.1h-1.9zm0 3.1h1.9v-2.2h-1.9zm2.4 1.3c1.4.6 2.7 1.2 4.1 1.8l-.5.9c-1.5-.7-2.8-1.4-4.1-1.9zm2.2-6.5h-1.9v2.1h1.9zm-1.9 5.2h1.9v-2.2h-1.9z"/></g></svg>