<svg enable-background="new 0 0 400 400" viewBox="0 0 400 400" xmlns="http://www.w3.org/2000/svg"><g fill="#010103"><path d="m194.07 94.49c-5.12 0-9.78-.13-14.43.04-4.46.16-8.92.96-13.37.89-5.96-.1-9.09-3.51-8.62-8.75.07-.78.48-2.02 1.02-2.2 4.07-1.39 8.2-3.63 12.33-3.66 34.7-.29 69.4-.15 104.11-.18 11.07-.01 22.14-.21 33.21-.15 2.3.01 4.69.51 6.88 1.27 3.41 1.17 5.18 3.91 5.15 7.47-.01 1-.95 2.46-1.86 2.91-4.56 2.27-9.44 2.18-14.43 1.81-3.97-.29-8.02-.08-11.99.37-1.06.12-2.52 1.78-2.79 2.96-2.82 12.54-5.35 25.14-8.18 37.68-.53 2.38.09 3.63 1.88 5.02 7.61 5.87 13.54 13.03 16.22 22.45 2.33 8.2.99 16.43-.22 24.63-2.36 15.96-9.02 30.61-14.16 45.71-7.75 22.74-15.38 45.53-23.91 67.98-8.62 22.65-18.21 44.94-27.59 67.3-.98 2.34-3.12 4.38-5.15 6.05-2.78 2.28-6.27.88-7.24-2.62-1.25-4.48-.75-8.92.93-13.16 1.52-3.84 3.55-7.47 5.08-11.3 9.06-22.72 18.15-45.44 27.02-68.24s17.56-45.68 26.2-68.57c4.71-12.47 6.8-25.49 6.87-38.77.05-8.9-3.52-15.22-9.96-18.84-.49.97-1.05 1.89-1.45 2.88-5.09 12.49-11.82 24.04-19.5 35.09-1.18 1.7-2.14 3.71-2.64 5.71-9.67 38.42-26.12 74.37-40.39 111.11-6.84 17.6-13.57 35.24-20.69 52.72-1.61 3.94-4.37 7.54-7.15 10.82-1.68 1.98-4.44 3.06-6.76 4.57-3.43-4.54-3.73-9.1-2.22-13.36 2.57-7.24 5.95-14.19 8.82-21.33 6.2-15.44 12.39-30.89 18.4-46.41 7.92-20.42 15.63-40.91 23.56-61.33.83-2.15.51-3.24-1.23-4.73-9.58-8.24-19.55-16.13-28.36-25.14-11.33-11.59-18.3-25.88-18.78-42.27-.23-7.77 1.58-15.77 3.5-23.41 3.36-13.42 7.52-26.64 11.32-39.96.24-.75.3-1.53.57-3.06zm5.14 89.42c1.18-1.81 2.17-3.1 2.92-4.52 4.29-8.09 8.57-16.2 12.77-24.33 1.53-2.97 3.32-5.91 4.2-9.08 2.92-10.55 5.72-21.14 8.06-31.83 1.18-5.39 1.38-11.01 1.81-16.55.15-1.94-1.04-2.88-3.22-2.8-4.47.17-8.95-.04-13.42.13-.94.04-2.37.83-2.7 1.63-7.62 18.44-13.86 37.31-16.09 57.23-1.15 10.26.39 20.21 5.67 30.12zm45.05-88.57c-.15.55-.44 1.38-.59 2.24-1.87 10.79-3.2 21.71-5.77 32.33-1.65 6.79-.35 11.27 5.2 15.41 5.91 4.4 11.22 9.59 12.35 17.53.02.11.35.17 1.27.58 3.22-8.44 6.8-16.73 9.5-25.29 1.94-6.14 2.74-12.65 3.98-19.01 1.51-7.75 2.94-15.51 4.51-23.78-10.4-.01-20.32-.01-30.45-.01zm-34.4 99.16c5.8 5.53 12.17 11.49 18.38 17.61 1.75 1.72 3.37 2.37 4.92 1.56 2.45-10 4.11-19.75 7.27-29 4.34-12.7.29-22.67-7.79-31.89-7.57 13.86-15.09 27.63-22.78 41.72z"/><path d="m118.59 117.45c-6.72 0-13.06.04-19.4-.02-3.9-.04-7.81-.05-11.67-.43-1.57-.16-3.51-.89-4.45-2.04-1.69-2.06-3.13-4.54-3.77-7.07-.14-.57 3.35-2.33 5.34-3.11 5.9-2.31 11.9-.77 17.9-.31 3.53.27 7.11-.01 10.67-.18 2.79-.13 3.72-1.73 4.06-4.53 1.84-14.85.87-29.71.53-44.57-.24-10.14.72-20.07 4.96-29.42 5.43-.08 8.54 2.42 9.13 7.72.38 3.43.29 6.91.29 10.37.02 18.69.06 37.38-.05 56.07-.01 2.44.98 3.78 3.13 3.79 5.76.03 11.53-.2 17.29-.38 2.12-.07 4.32-.71 6.32-.31 2.31.46 4.88 1.3 6.57 2.83 4.54 4.11 3.74 7.86-2.1 8.95-5.97 1.11-12.15 1.22-18.24 1.55-3.97.21-7.97.04-12.4.04 0 10.21.06 19.59-.01 28.97-.13 18.01-.26 36.03-.57 54.04-.05 3.13.74 4.4 4 4.33 8.59-.19 17.19-.19 25.79-.16 2.22.01 4.48.21 6.63.71 4.69 1.08 7.65 3.95 8.4 9.66-4.37 1.25-8.77 2.85-13.3 3.72-12.08 2.33-24.29 1.34-36.47 1.03-12.96-.32-25.94-.23-38.89-.79-4.24-.18-8.44-1.72-12.6-2.82-3.01-.8-1.95-3.46-1.81-5.35.08-1.06 1.21-2.54 2.23-2.96 6.24-2.56 12.79-2.67 19.45-2.21 5.77.4 11.58.39 17.37.38 2.62 0 3.97-1.05 4.01-4.27.41-26.73 1.07-53.47 1.65-80.2.03-.77.01-1.54.01-3.03z"/><path d="m233.87 50.83c-15.98-.33-31.95-.68-47.93-.97-3.5-.06-3.9-2.84-4.65-5.19-.71-2.23.28-3.43 2.55-4.49 5.09-2.37 10.25-3.22 15.85-3.18 26.61.21 53.23.13 79.84.2 2.34.01 4.71.15 7 .58 1.7.32 3.5.94 4.9 1.93 4.4 3.11 4.18 7.6-.73 9.56-3.64 1.45-7.72 2.57-11.59 2.56-15.08-.04-30.16-.62-45.24-1z"/></g><path d="m385.2 377.6.6-.7c.6.4 1.3.9 1.9 1.5l-.6.7c-.8-.5-1.4-1-1.9-1.5zm.3 7.1c.6-1.4 1.1-2.9 1.5-4.5.3.1.6.3.9.4-.5 1.4-1 2.9-1.5 4.4zm.2-10.1.6-.6c.7.5 1.3 1.1 1.9 1.6l-.7.7c-.6-.6-1.2-1.2-1.8-1.7zm8.4-.8h.8v.9h1.8v.7h-1.8v1.8h-.8v-.3h-1.2v.9h3.3v2.6h-.8v-.4h-2.5c0 .3 0 .6-.1.8h3.4v.7h-3.5c0 .3-.1.6-.1.8h4v.7h-3.5c.7.9 1.9 1.3 3.6 1.5-.2.2-.4.5-.6.9-1.9-.3-3.2-1.1-3.8-2.3-.5 1.1-1.8 2-3.9 2.4-.2-.3-.4-.5-.6-.8 1.9-.4 3.1-.9 3.6-1.7h-3.2v-.7h3.5c.1-.2.1-.5.2-.8h-3.3v-.7h3.4c0-.2 0-.5 0-.8h-2.4v.3h-.8v-2.6h3.3v-.9h-1.2v.3h-.8v-1.8h-1.8v-.7h1.8v-.9h.8v.9h3.2zm-4.4 5.5h2.4c0-.3 0-.6 0-.9h-2.4zm1.2-3.1h3.2v-.8h-3.2zm4.4 2.2h-2.4v.9h2.5v-.9z" fill="#fcfbfa"/><path d="m389.2 385.8h.9v1.5h1.9v-1.5h.9v1.5h2.7v6h1.1v.9h-11.3v-.9h1.1v-6h2.7zm.2 8.7.5.8c-1.2.6-2.5 1.3-4 1.9-.2-.3-.3-.6-.6-.8 1.6-.6 3-1.3 4.1-1.9zm-2-4.3h1.9v-2.1h-1.9zm0 3.1h1.9v-2.2h-1.9zm2.7-3.1h1.9v-2.1h-1.9zm0 3.1h1.9v-2.2h-1.9zm2.4 1.3c1.4.6 2.7 1.2 4.1 1.8l-.5.9c-1.5-.7-2.8-1.4-4.1-1.9zm2.2-6.5h-1.9v2.1h1.9zm-1.9 5.2h1.9v-2.2h-1.9z" fill="#fcfbfa"/></svg>