<svg enable-background="new 0 0 400 400" viewBox="0 0 400 400" xmlns="http://www.w3.org/2000/svg"><path d="m193.61 26.35c2.45 12.96 4.85 25.01 6.94 37.11.6 3.45 1.71 5.23 5.46 6.17 13.87 3.47 27.61 7.46 42.43 11.53-3.1.66-5.24 1.21-7.42 1.57-8.05 1.33-16.09 2.78-24.18 3.82-6.23.8-10.55 3.95-12.46 9.72-1.56 4.7-2.23 9.69-3.39 14.97 7.13.87 13.41 1.65 19.7 2.4 5.77.7 11.77.65 17.26 2.29 4.31 1.28 8.32 4.24 11.9 7.15 9.59 7.79 13.37 18.39 13.79 30.48.43 12.42-1.22 24.55-4.91 36.4-.37 1.2-1.21 2.42-2.16 3.24-3.65 3.13-7.36 6.21-11.21 9.08-4.17 3.12-6.31 7.07-6.22 12.31.04 2.1.88 3.11 2.82 3.89 9.44 3.83 18.06 8.88 24.51 17.05 4.93 6.25 7.67 13.35 8.05 21.29.96 19.68 1.61 39.37 2.85 59.03.73 11.57 6.28 21.36 13.53 30.12 6.14 7.41 12.62 14.54 18.94 21.8 1 1.15 1.99 2.32 3.27 3.81-10.75-2.21-19.06-6.86-25.85-15.29-16.21-20.13-25.35-43.25-30.77-68.12-.94-4.32-1.29-8.83-1.39-13.27-.2-9.4-.12-18.81-.02-28.21.02-1.85-.57-2.75-2.25-3.51-6.1-2.77-12.27-5.46-18.14-8.67-7.46-4.08-11.73-10.57-11.89-19.19-.07-3.5-1.48-5.77-4.52-6.58-4.9-1.31-9.95-2.06-15.48-3.15-.32 3.41-.94 5.96-.73 8.44 1.13 13.59 2.42 27.18 3.83 40.75.12 1.12 1.32 2.51 2.38 3.07 6.6 3.47 13.82 4.15 21.15 4.33 6.12.15 11.73 2.06 16.81 5.39-5.81.86-11.5 1.63-17.17 2.57-1.85.31-3.68.96-5.44 1.65-14.85 5.78-20.01 16.36-15.9 33.28 1.65 6.8.06 5.67 7.43 6.8 5.74.88 11.56 1.25 17.32 2.03 5.88.79 8.76 3.16 9.75 7.79-6.97 3.68-14.53 5.6-22.31 6.55-24.26 2.98-48.43 2.58-72.46-2.24-1.18-.24-2.32-.63-3.68-1.76 5.57-1.75 11.04-3.95 16.72-5.14 6.75-1.41 13.65-2.29 20.53-2.78 6.58-.47 9.59-2.45 10.86-9.04 1.84-9.53.34-18.95-1.44-28.31-.15-.78-1.89-1.65-2.99-1.81-11.73-1.74-23.47-3.34-35.21-5-1.6-.23-3.19-.52-5.76-.94 2.25-.76 3.58-1.24 4.93-1.65 11.55-3.51 23.11-6.97 34.63-10.57 1.03-.32 2.44-1.47 2.54-2.36 1.67-15.35 3.17-30.72 4.68-46.09.03-.31-.11-.64-.22-1.25-4.61-.41-9.26-.91-13.93-1.13-.67-.03-1.74 1.14-2.05 1.96-1.9 5.14-4.02 10.24-5.31 15.53-1.51 6.2-5.73 9.36-11.08 11.51-2.89 1.16-5.94 1.94-8.95 2.76-5.75 1.57-9.44 5.32-11.56 10.74-.31.8-.58 1.8-.39 2.58 2.43 9.68.16 18.98-1.69 28.44-1.89 9.64-3.44 19.42-4.06 29.2-.72 11.37-4.46 21.38-10.82 30.56-7.37 10.63-15.98 20.15-26.06 28.32-4.59 3.72-9.76 5.67-16.84 5.63 1.11-1.98 1.61-3.62 2.69-4.68 9.89-9.64 19.18-19.79 26.55-31.51 6.95-11.04 11.24-22.92 11.86-36.19.92-19.79 2.4-39.55 3.79-59.31.11-1.58 1.03-3.38 2.13-4.58 5.02-5.47 11.39-8.93 18.25-11.55 6.31-2.41 9.76-7.12 11.15-13.62.47-2.21-.17-3.21-2.23-3.97-4.72-1.73-9.24-4.08-14.05-5.46-9.93-2.86-15.09-10.17-17.97-19.19-1.78-5.56-2.82-11.59-2.89-17.42-.15-13.44 1.03-26.84 5.03-39.79.52-1.69 1.96-3.51 3.48-4.41 8.86-5.22 18.75-6.99 28.82-8.07 7.33-.79 14.65-1.7 21.96-2.73 1.96-.28 3.83-1.18 5.74-1.8 1.99-.65 2.82-1.9 2.45-4.06-3.01-17.63.01-34.98 2.53-52.35 1.25-8.63 2.35-17.29 3.52-25.94.07-.52.2-1.02.49-2.42zm-52.11 113.46c-.39 1.38-.75 2.51-1.01 3.67-3.7 16.09-3.9 31.76 5.86 46.1.83 1.22 2.39 2.4 3.81 2.71 24.13 5.24 48.36 5.28 72.6.91 7.48-1.35 14.67-3.69 22.2-8.29-2.17-1.36-3.59-2.73-5.27-3.21-4.29-1.22-8.78-1.76-13.03-3.08-12.86-4-23.76-.89-33.09 8.55-.86.87-1.92 1.57-2.7 2.51-1.7 2.04-3.71 2.53-6.41 1.66.61-1.1 1.11-2.07 1.69-3 3.17-5.13 6.45-10.21 9.48-15.42.59-1.01.91-3.04.32-3.75-5.42-6.56-14.54-11-23.54-3.99-1.68 1.3-3.56 2.43-4.96 3.99-5.08 5.65-12.41 6.58-19.07 9.18 5.99-7.57 11.98-15.13 18.14-22.9-8.43-5.27-16.57-10.35-25.02-15.64zm94.65-9.48c-5.3 11.18-10.44 22.04-16 33.79 9.05 4.7 17.87 9.29 27.16 14.12 2.42-11.45 2.71-22.1.75-32.72-1.27-6.82-4.95-12.11-11.91-15.19zm-6.42 3.15c-.52-.79-.89-1.47-1.38-2.05-3.21-3.82-15.62-7.47-20.13-5.83-.86.31-1.57 1.2-2.2 1.94-3.18 3.74-5.97 7.89-9.55 11.19-4.38 4.03-5.01 8.16-2.31 13.16.05.1.05.24.13.3.85.67 1.65 1.8 2.59 1.92 5.34.73 10.34-.56 14.41-4.01 6.26-5.32 12.24-11.01 18.44-16.62zm-84.77 1.17c2.55 4.21 8.8 6.27 22.71 7.83 12.82 1.43 20.54-8.02 30.98-13.85-4.86-1.56-8.75-2.86-12.68-4.05-.92-.28-2.02-.49-2.91-.26-12.7 3.38-25.36 6.86-38.1 10.33z" fill="#010101"/><g fill="#fbfafa"><path d="m6.4 11.7c-1-.8-1.9-1.6-2.9-2.3l.6-.7c.9.7 1.9 1.4 2.9 2.2zm-2.1 8.3c.7-2.1 1.4-4.2 2-6.4.2.1.6.3 1 .4-.7 2.3-1.3 4.4-1.9 6.4zm3-12.8c-1.1-.9-2.1-1.7-2.9-2.4l.6-.7c1 .8 2 1.5 3 2.4zm1.4-1.3v-.9h10.2v.9c-.9 4.2-2.3 7.3-4.1 9.4 1.3 1.4 3.2 2.7 5.7 4-.2.2-.4.5-.7.9-2.5-1.4-4.4-2.7-5.7-4.2-1.4 1.5-3.5 3-6.1 4.4 0 0 0 0-.1-.1-.3-.4-.5-.7-.7-.8 2.7-1.3 4.7-2.8 6.2-4.2-1.8-2.2-3-5.3-3.7-9.4zm9.2 0h-7.1c.6 3.8 1.7 6.7 3.4 8.7 1.7-2 2.9-4.8 3.7-8.7z"/><path d="m31.6 3.6h.9v2.3h4.1v9.1h1.7v.9h-16.6v-.9h1.7v-9.1h4.1v-2.3h.9v2.3h3.1v-2.3zm-4 13.3.6.8c-1.9.9-3.8 1.9-5.8 2.8-.2-.3-.3-.6-.5-.9 2-.9 3.9-1.8 5.7-2.7zm-3.2-10.1v3.7h3.1v-3.7zm0 4.5v3.7h3.1v-3.7zm4.1-4.5v3.7h3.1v-3.7zm0 4.5v3.7h3.1v-3.7zm9.1 9.1c-2.1-1.1-4.1-2-5.8-2.7l.5-.8c2.2.9 4.1 1.8 5.8 2.6zm-1.9-13.6h-3.1v3.7h3.1zm-3.2 4.5v3.7h3.1v-3.7z"/></g></svg>