<svg enable-background="new 0 0 400 400" viewBox="0 0 400 400" xmlns="http://www.w3.org/2000/svg"><path d="m361.2 9.6.8-1c.9.7 1.9 1.4 2.9 2.3l-.9 1.1c-1-1-2-1.8-2.8-2.4zm.5 10.6c.9-2.1 1.6-4.3 2.3-6.7.4.2.8.4 1.3.6-.7 2.1-1.5 4.3-2.2 6.6zm.4-15.2.9-.9c1 .8 2 1.6 2.8 2.4l-1 1c-.9-.9-1.8-1.7-2.7-2.5zm12.5-1.2h1.2v1.4h2.7v1.1h-2.7v2.7h-1.2v-.6h-1.8v1.3h4.9v3.8h-1.2v-.5h-3.7c0 .4-.1.9-.1 1.2h5.1v1h-5.2c0 .5-.1.9-.2 1.2h6v1h-5.2c1.1 1.3 2.9 2 5.5 2.2-.4.4-.7.8-.9 1.3-2.9-.5-4.8-1.6-5.7-3.5h-.1c-.8 1.7-2.7 2.9-5.9 3.6-.2-.4-.6-.8-.9-1.1 2.8-.6 4.6-1.4 5.4-2.5h-4.8v-1h5.3c.1-.3.2-.7.2-1.2h-4.9v-1h5c0-.4 0-.8.1-1.2h-3.5v.5h-1.2v-3.8h4.9v-1.3h-1.8v.5h-1.2v-2.7h-2.7v-1h2.6v-1.4h1.2v1.4h4.7v-1.4zm-6.6 8.3h3.6c0-.4 0-.9 0-1.4h-3.6zm1.9-4.6h4.7v-1.3h-4.7zm6.6 3.2h-3.7v1.4h3.7z" fill="#fbfcfa"/><path d="m385.3 3.8h1.3v2.2h2.8v-2.2h1.3v2.2h4.1v9.1h1.7v1.3h-16.9v-1.3h1.7v-9.1h4.1v-2.2zm.4 13.1.7 1.2c-1.8.9-3.8 1.9-6 2.9-.2-.4-.5-.8-.8-1.3 2.3-1 4.3-1.9 6.1-2.8zm-3.1-6.4h2.8v-3.2h-2.8zm0 4.6h2.8v-3.3h-2.8zm4-4.6h2.8v-3.2h-2.8zm0 4.6h2.8v-3.3h-2.8zm3.7 1.9c2.1.9 4.1 1.8 6.1 2.7l-.7 1.3c-2.2-1.1-4.2-2-6.1-2.9zm3.2-9.7h-2.8v3.2h2.8zm-2.8 7.8h2.8v-3.3h-2.8z" fill="#fbfcfa"/><g fill="#010102"><path d="m261.2 69.83v58.49c2.85-.8 5.58-1.41 8.17-2.39.95-.36 2.03-1.55 2.22-2.52 1.13-5.78 2.13-11.6 2.96-17.43.58-4.07.45-8.27 1.28-12.27.98-4.71 4.35-7.33 9.21-8.24 4.22 7.02 6.08 14.62 4.68 22.54-1.26 7.12-3.61 14.04-5.45 21.06-1.51 5.79-5.82 8.41-11.09 10.06-3.19 1-6.34 2.16-9.54 3.12-2.01.6-2.7 1.8-2.85 3.87-1.18 15.85-2.48 31.68-3.74 47.52-.18 2.22-.34 4.45-.5 6.64 5.51 1.43 6.26 1.09 8.78-3.71 4.29-8.17 5.47-17.17 7.19-26.06.75-3.9 2.03-7.83 3.85-11.33 1.28-2.46 3.89-4.24 6.05-6.46 6.05 7.27 7.3 14.87 5.88 22.85-1.89 10.61-5.17 20.88-10.38 30.32-1.46 2.65-4.71 4.69-7.58 6.1-4.29 2.1-8.93 3.5-13.5 4.97-2.72.87-4.19 2.28-4.75 5.24-5.24 27.69-17.64 52.91-27.55 78.99-4.96 13.06-10.03 26.07-14.97 39.13-2.87 7.58-7.47 13.45-15.37 16.22-.3.11-.64.1-1.08.16-3.11-3.54-3.44-7.66-2.27-11.93.67-2.46 1.79-4.81 2.79-7.17 8.31-19.65 16.69-39.26 24.95-58.93 3.16-7.52 5.73-15.3 9.17-22.69 4.84-10.39 7.14-21.34 8.49-32.59.2-1.66.23-3.41.78-4.96 1.13-3.14-.39-4.51-3.06-5.34-.96-.3-1.89-.74-2.87-.91-11.51-1.98-16.14-10.11-18.39-20.43-1.54-7.08-.39-14.06.88-20.99.97-5.26 2.73-10.38 3.68-15.65.83-4.6 3.28-6.76 8.15-6.72 5.24 7.76 6.04 16.36 3.67 25.43-.54 2.05-1.26 4.06-1.85 6.1-2.31 7.97.01 14.01 7.16 18.28 2.07 1.24 4.32 2.18 6.98 3.5.53-8.03 1.03-15.45 1.49-22.87.64-10.28 1.14-20.56 1.97-30.82.22-2.77-.65-3.85-3.12-4.85-3.71-1.5-7.36-3.31-10.72-5.48-12.89-8.33-15.65-21.04-14.62-35.19.26-3.55 1.21-7.05 1.59-10.6.35-3.32 1.83-5.3 5.25-5.69.87-.1 1.71-.43 2.72-.69 3.91 5.16 6.04 10.93 6.3 17.34.11 2.79-.02 5.6-.27 8.38-.85 9.32 3.43 15.3 13.18 17.64 0-19.42 0-38.73 0-58.67-5.62-.33-11.59-.68-17.57-1.03-2.9-.17-5.81-.34-8.71-.55-.77-.06-1.55-.25-2.3-.47-4.78-1.38-7.09-4.41-6.68-8.71.22-2.22 4.92-5.23 8.43-5.26 16.79-.14 33.58-.41 50.36-.28 10.68.08 21.1 1.88 31.17 5.75 12.37 4.76 19.07 13.59 20.1 26.71 1.36 17.17 3.13 34.33 3.74 51.53.73 20.37.11 40.76-6.25 60.45-1.02 3.16-2.37 6.3-4.07 9.15-6.17 10.35-11.67 21.06-19.44 30.48-13.03 15.77-15.46 33.87-10.35 53.43 3.79 14.49 9.21 28.24 16.84 41.11 6.33 10.68 12.74 21.31 19.09 31.98 1.74 2.93 3.42 6.02 1.4 9.37-1.24 2.04-6.16 1.91-10.1-.02-1.06-.52-2.13-1.3-2.81-2.24-14.38-19.79-26.54-40.8-36.06-63.41-8.91-21.14-7.74-41.86.94-62.54 3.9-9.28 8.65-17.92 15.35-25.75 12.7-14.86 18.71-32.63 18.97-52.17.21-15.33.34-30.68-.05-46.01-.3-11.72-1.61-23.41-2.19-35.13-.39-8.05-5.21-12.19-12.21-13.79-6.7-1.54-13.64-2.17-20.5-2.88-3.52-.39-7.12-.09-11.05-.09z"/><path d="m147.65 86.31c0 3-.09 5.59.04 8.16.06 1.32.61 2.62.77 3.94.94 7.83 4.92 13.45 11.58 17.75 9.02 5.82 17.83 12 26.38 18.48 5.13 3.88 9.88 8.38 14.26 13.1 2.15 2.31 3.07 5.76 4.6 8.81-3.66 1.95-6.79 2.03-9.75.88-2.56-1-4.97-2.5-7.25-4.06-2.67-1.83-5.02-4.14-7.72-5.91-6.6-4.33-7.6-4.14-11.07 2.87-5.79 11.71-11.82 23.35-16.8 35.41-2.67 6.46-3.37 13.72-5.23 21.82 10.13.06 19.03.13 27.92.17 6.02.03 12.09-.42 18.06.15 5.7.55 10.5 3.13 12.19 9.66-6.25 3.48-13.04 4.82-19.98 4.71-8.37-.14-16.73-1.21-25.11-1.41-11.02-.26-11.02-.06-11.78 10.83-.35 5.01-.74 10.02-1.18 15.86 7.08.22 13.96.56 20.84.61 8.71.07 17.44-.51 26.12-.02 5.9.33 11.05 2.9 12.83 9.64-5.54 3.6-11.6 5.34-18.09 5.28-12.2-.1-24.39-.41-36.58-.63-1.33-.02-2.66 0-4.36 0-.27 8.86-.63 17.44-.78 26.03-.35 20.14-.52 40.29-.99 60.43-.07 2.76-1.15 5.65-2.35 8.19-1.02 2.15-3.29 2.86-5.78 2.39-2.53-.48-3.57-2.02-4.21-4.47-3.77-14.42-2.91-29.07-2.7-43.73.22-15.54.05-31.09.05-46.95-7.82-1.96-16.26-1.51-24.72-1.42-9.03.1-18.09-.28-27.1-.93-3.75-.27-7-2.35-8.52-6.21-.73-1.86-.54-3.28 1.46-4.48 4.66-2.78 9.69-4.11 15.02-4.04 8.95.12 17.89.67 26.84.71 5.78.03 11.56-.51 17.48-.81 0-8.16 0-15.95 0-24.75-6.16 0-12.25-.01-18.34 0-8.39.01-16.78.2-25.16-.03-2.71-.08-5.56-.89-8.04-2.03-1.8-.82-3.51-2.49-4.53-4.21-1.82-3.08-1.03-4.76 2.3-6.15 7.45-3.12 15.27-2.76 23.13-2.58 9.91.23 19.83.06 30.39.06-1.66-7.65-.73-14.61-4.1-21.1-6.49-12.49-12.48-25.25-18.69-37.88-.48-.97-1.06-1.89-1.72-3.04-6.17 3.33-12.12 6.62-18.15 9.76-2.56 1.34-5.24 2.52-7.96 3.49-2.41.86-4.92 1.11-6.41-1.74-1.35-2.59-.59-6.87 1.52-8.51 9.11-7.06 18.24-14.1 27.37-21.14 7.98-6.15 16.02-12.22 23.87-18.53 1.27-1.02 2.21-3 2.45-4.67.72-5.07 1.03-10.2 1.55-15.79-3.43 1.26-6.44 2.34-9.44 3.46-10.05 3.75-20.06 7.64-30.19 11.16-2.49.87-5.47.94-8.1.55-1.31-.19-2.81-2.09-3.36-3.54-.73-1.91-.06-3.66 1.93-5.13 8.41-6.19 17.96-9.88 27.66-13.4 5.97-2.17 11.74-4.89 17.61-7.34 4.01-1.68 5.8-4.92 5.77-9.01-.05-6.03-.39-12.05-.74-18.07-.45-7.77.45-15.18 5.03-21.73 5.88.78 9.7 5.15 9.8 12.01.07 5.24-.81 10.48-.88 15.73-.06 5 .33 10.02.66 15.02.16 2.49 1.7 3.75 4.12 4.57 14.39 4.88 28.77 9.81 43.06 14.97 3.73 1.35 7.25 3.41 10.64 5.52 1.39.86 2.55 2.56 3.15 4.13 1.2 3.13-.44 5.36-3.75 5.73-7.12.79-13.7-1.29-20.25-3.67-10.71-3.9-21.44-7.73-32.17-11.57-1.15-.43-2.34-.73-4.42-1.36zm-8.04 33.01c-5.65 4.61-10.88 9.15-16.43 13.27-2.35 1.75-2.41 3.29-1.31 5.56 5.46 11.35 10.87 22.73 16.32 34.09.36.74.9 1.4 1.56 2.41 6.81-13.27 13.42-26.15 20.13-39.22-6.77-5.37-13.4-10.64-20.27-16.11z"/></g></svg>