<svg enable-background="new 0 0 400 400" viewBox="0 0 400 400" xmlns="http://www.w3.org/2000/svg"><g fill="#fbfafa"><path d="m37.59 393.81c-.92.31-1.52.05-2-.78-.7-1.2-1.52-2.34-2.47-3.78v4.59c-.55.03-.95.05-1.41.07-.03-.37-.06-.64-.06-.91 0-1.91 0-3.81 0-5.7 1.13-.41 1.77-.03 2.29.91.62 1.11 1.38 2.14 2.31 3.19v-4.2h1.35v6.61z"/><path d="m12.94 393.88v-6.75c1.9.19 3.93-.54 5.37 1.29.8 1.01.78 2.88.03 3.97-1.37 1.97-3.4 1.51-5.4 1.49m1.45-1.22c2.04.12 2.92-.58 2.89-2.21-.03-1.51-.98-2.19-2.89-2z"/><path d="m11.81 393.87h-5.49c.68-2.18 2.47-3.48 3.51-5.45h-3.08v-1.21h5.29c-.71 2.13-2.44 3.48-3.47 5.51.86 0 1.63.04 2.39-.01.79-.05 1.14.21.85 1.16"/><path d="m39.33 393.86v-6.61h3.7v1.07h-2.22v1.52c.68.04 1.34.09 2.07.13v1.07c-.72.05-1.38.09-2.1.14v1.48h2.4v1.19h-3.85z"/><path d="m27.71 388.56c-1.15-.3-2.46-.61-3.1.64-.37.73-.41 1.93-.06 2.67.63 1.35 1.99.93 3.17.68.35.94-.01 1.32-.93 1.46-1.62.25-3.05-.27-3.76-1.48-.73-1.24-.6-3.03.31-4.17.88-1.11 2.71-1.7 4-1.16.32.13.44.74.65 1.12-.1.08-.19.16-.28.24"/><path d="m49.15 387.24v1.07c-.59.02-1.17.05-1.87.08v5.44h-1.48v-5.44h-1.85c-.05-.4-.08-.73-.13-1.15z"/><path d="m20.06 387.21h1.33v6.62h-1.33z"/><path d="m30.68 393.25c-.49.38-.8.79-1.05.76-.32-.05-.6-.45-.9-.7.26-.24.51-.64.8-.67.29-.04.62.3 1.15.61"/></g><path d="m204.4 263.7c24.32 3.6 47.39 7.02 70.47 10.44v.53c-13.26 2.97-26.51 5.94-39.77 8.91-6.51 1.46-6.8 1.74-6.96 8.62-.29 12.26 3.38 23.82 6.3 35.53 3.84 15.41 10.32 29.73 17.55 43.77.4.77.69 1.59 1.36 3.15-4.64-1.8-8.67-3.27-12.61-4.96-.76-.33-1.32-1.45-1.69-2.33-7.69-17.86-15.67-35.62-22.85-53.68-3.07-7.73-4.56-16.1-6.57-24.24-.53-2.14-1.5-3.2-3.59-3.75-4.11-1.07-8.21-2.21-12.2-3.64-2.05-.73-2.99-.07-4.1 1.49-4.86 6.84-5.39 14.8-5.92 22.72-.93 14.15-3.81 27.7-11.7 39.76-7.24 11.08-16.3 20.38-28.21 28.06.7-1.46 1.03-2.19 1.4-2.9 10.61-20.4 19.4-41.53 23.93-64.15 1.14-5.69.43-11.76.42-17.65 0-2-1.19-2.95-3.3-3.44-16.01-3.66-31.98-7.48-48.03-11.93 5.75-.62 11.49-1.35 17.25-1.83 14.15-1.18 28.31-2.25 42.46-3.37.45-.04.89-.13 1.33-.15 3.87-.17 5.71-2.11 5.73-6.06.01-2.42.53-4.83.85-7.47-9.06-1.69-17.86-3.2-26.6-5-4.35-.9-9.14-.38-12.61-4.37-4.56-5.23-7.67-11.13-8.47-17.93-1.53-12.98.03-25.65 5.17-37.77.16-.39.41-.75 1.04-1.9 1.07 7.31 2.04 13.83 2.99 20.36.36 2.43.95 4.87.99 7.31.2 11.3 8.27 15.61 17.08 18.76 4.89 1.75 10.25 2.22 15.42 3.09.9.15 2.17-.37 2.9-1 4.26-3.64 6.18-12.25 3.85-17.32-.34-.73-1.47-1.23-2.34-1.58-6.33-2.53-12.63-5.15-19.05-7.43-8.16-2.9-12.53-8.96-14.85-16.88-2.23-7.62-1.23-15.35-.35-23 .69-6.05 2.04-12.03 3.1-18.03.5-.04.99-.08 1.49-.12 1.72 6.45 3.54 12.88 5.12 19.37.69 2.81.94 5.73 1.31 8.62 1.23 9.47 5.29 14.51 14.6 16.39 10.53 2.13 9.42 3.2 13.43-7.23 1.52-3.95 1.8-8.53 1.87-12.84.11-6.93-.5-13.86-.64-20.8-.04-2.17-.65-3.02-2.96-3.39-14.46-2.3-28.89-4.8-43.33-7.24-.53-.09-1.06-.24-1.73-.39 16.58-9.53 81.65-9.82 108.45-.01-16.55 2.7-33.1 5.4-49.08 8.01 0 8.13-.08 15.92.03 23.71.07 5.14.31 10.29.72 15.42.08.99 1.19 2.64 1.95 2.72 6.77.7 13.57 1.12 20.49 1.64 4.62-13.14 9.17-26.09 13.87-39.47 3.63 5.88 5.09 12 5.34 18.36.41 10.16-1.22 20.07-4.6 29.66-.41 1.17-1.66 2.44-2.83 2.89-6.65 2.58-13.24 5.63-20.15 7.18-9.96 2.23-14.4 8.41-11.85 21.27 12.47-.57 24.97-1.14 37.7-1.72 3.87-12.36 7.73-24.7 11.59-37.04.28-.04.56-.08.84-.13 1.24 5.54 3 11.02 3.59 16.63.85 8.1.82 16.3 1.22 24.45.12 2.33-.81 3.52-3.05 4.4-10.52 4.11-21.59 5.61-32.65 7.25-5.24.77-10.46 2-14.48 5.63-2.23 2.04-3.76 4.92-6.08 8.04z" fill="#010105"/><path d="m329.06 323.88c-4.99.02-8.26-1.58-10.98-6.08-16.67-27.68-28.63-57.38-37.95-88.14-3.97-13.1-4.61-26.85-3.94-40.57.54-11.16 1.72-22.31-.97-33.41-2.13-8.8-5.39-17.13-10.79-24.35-4.39-5.88-10.67-9.68-18.13-9.35-13.13.58-26.12-.55-39.15-1.67-22.9-1.97-45.26 1.4-67.41 6.96-4.05 1.02-6.94 3.03-9.5 6.2-9.35 11.52-14.29 24.36-14.4 39.44-.29 37.11-6.38 73.23-20.65 107.69-7.05 17.04-17.33 32-30.03 45.32-.35.37-.79.65-1.55 1.27 1.64-6.15 3.35-11.52 7.2-16.41 10.73-13.61 16.58-29.6 20.15-46.34 5.47-25.65 8.78-51.6 8.73-77.88-.02-10.4-.55-20.81-.44-31.21.05-4.76.71-9.59 1.71-14.26 3.18-14.98 13.31-23.62 27.44-27.27 12.41-3.21 25.12-5.3 37.77-7.47 19.58-3.36 39.28-1.23 58.93-.72 14.69.38 29.2 1.94 43.24 6.71 14.23 4.83 22.65 14.3 23.96 29.48.28 3.19-.34 6.46-.53 9.69-.6 10.38-1.93 20.79-1.58 31.14.31 9.44 2.26 18.85 3.79 28.22 3.19 19.41 6.14 38.88 10.01 58.16 3.99 19.84 11.68 38.23 24.77 54.01.13.12.14.36.3.84z" fill="#010105"/><path d="m82.84 122.02c-2.68-2.66-1.96-4.09.11-5.95 13.07-11.72 28.66-19.27 43.99-27.38 15.04-7.95 31.51-11.18 47.52-15.97 5.84-1.75 9.05-6.82 7.79-12.83-.34-1.64-.79-3.26-1.22-4.88-1.73-6.46-3.71-8.03-10.47-6.87-5.91 1.01-11.76 2.57-17.53 4.24-10.93 3.16-21.78 6.6-32.68 9.86-1.23.37-2.57.34-4.23-.21 3.19-2.54 6.31-5.16 9.57-7.59 14.35-10.7 30.85-16.41 47.98-20.75 16.29-4.12 32.77-7.08 49.51-8.51 1.72-.15 3.68-.08 5.23.59 6.64 2.88 13.36 5.67 19.67 9.16 7.13 3.95 11.16 10.54 12.75 18.47.77 3.82.95 7.76 1.56 11.62.59 3.75-1 6.13-3.9 8.43-12.11 9.61-26.02 12.16-41.01 11.43-11.61-.57-23.26-1.34-34.86-.89-18.39.7-35.36 6.95-51.76 15.04-15.92 7.86-32.01 15.35-48.02 22.99zm117.26-53.72c14.69-1.77 28.96-3.5 43.18-5.22.08-11.54-4.79-17.66-15.6-19.26-5.72-.85-11.58-.77-17.32-1.55-5.54-.75-8.17 3.18-11.36 6.3-.44.43-.48 1.45-.42 2.18.44 5.67.96 11.33 1.52 17.55z" fill="#010105"/></svg>