<svg enable-background="new 0 0 400 400" viewBox="0 0 400 400" xmlns="http://www.w3.org/2000/svg"><g fill="#fbfafa"><path d="m37.59 393.81c-.92.31-1.52.05-2-.78-.7-1.2-1.52-2.34-2.47-3.78v4.59c-.55.03-.95.05-1.41.07-.03-.37-.06-.64-.06-.91 0-1.91 0-3.81 0-5.7 1.13-.41 1.77-.03 2.29.91.62 1.11 1.38 2.14 2.31 3.19v-4.2h1.35v6.61z"/><path d="m12.94 393.88v-6.75c1.9.19 3.93-.54 5.37 1.29.8 1.01.78 2.88.03 3.97-1.37 1.97-3.4 1.51-5.4 1.49m1.45-1.22c2.04.12 2.92-.58 2.89-2.21-.03-1.51-.98-2.19-2.89-2z"/><path d="m11.81 393.87h-5.49c.68-2.18 2.47-3.48 3.51-5.45h-3.08v-1.21h5.29c-.71 2.13-2.44 3.48-3.47 5.51.86 0 1.63.04 2.39-.01.79-.05 1.14.21.85 1.16"/><path d="m39.33 393.86v-6.61h3.7v1.07h-2.22v1.52c.68.04 1.34.09 2.07.13v1.07c-.72.05-1.38.09-2.1.14v1.48h2.4v1.19h-3.85z"/><path d="m27.71 388.56c-1.15-.3-2.46-.61-3.1.64-.37.73-.41 1.93-.06 2.67.63 1.35 1.99.93 3.17.68.35.94-.01 1.32-.93 1.46-1.62.25-3.05-.27-3.76-1.48-.73-1.24-.6-3.03.31-4.17.88-1.11 2.71-1.7 4-1.16.32.13.44.74.65 1.12-.1.08-.19.16-.28.24"/><path d="m49.15 387.24v1.07c-.59.02-1.17.05-1.87.08v5.44h-1.48v-5.44h-1.85c-.05-.4-.08-.73-.13-1.15z"/><path d="m20.06 387.21h1.33v6.62h-1.33z"/><path d="m30.68 393.25c-.49.38-.8.79-1.05.76-.32-.05-.6-.45-.9-.7.26-.24.51-.64.8-.67.29-.04.62.3 1.15.61"/></g><path d="m252.1 171.58c0 11.03.11 21.76-.02 32.48-.23 18.79-.47 37.59-.99 56.38-.18 6.34-3.78 11.51-8.06 15.79-3.99 4-8.65 7.37-13.22 10.74-7.83 5.76-15.96 11.1-23.71 16.97-10.07 7.63-13.53 18.45-13.92 30.61-.28 8.54 1.79 16.57 4.47 24.58 1.13 3.36 1.43 7.17 1.27 10.74-.13 2.78-1.77 5.42-5.12 5.78-3.2.34-6.69-2.28-7.69-5.5-3.96-12.75-7.04-25.66-6.8-39.13.16-9.15 2.95-17.58 7.3-25.53.57-1.05 1.48-1.95 2.36-2.78 7.18-6.74 14.27-13.58 21.66-20.09 2.98-2.63 6.6-4.55 10-6.68 2.56-1.6 5.32-2.88 7.83-4.55 5.72-3.81 9.35-8.39 9.43-16.09.27-26.73 1.24-53.46 1.93-80.19.03-1.1 0-2.2 0-3.82-7.43 0-14.66.04-21.89-.01-30.88-.21-61.75-.47-92.63-.65-10.5-.06-21 .27-31.49-.02-2.71-.07-5.78-1.25-7.97-2.88-3.99-2.96-3.01-7.29 1.4-9.33 4.37-2.02 8.83-2.64 13.62-2.63 52.04.1 104.08.06 156.12.06 12.52 0 25.04-.1 37.55.13 3.06.06 6.15 1.04 9.12 1.94 1.54.46 3.02 1.49 4.23 2.59 3.34 3.04 3.16 4.84-.64 7.14-4.53 2.75-9.58 3.68-14.79 3.62-9.27-.1-18.54-.44-27.82-.49-3.54.01-7.1.5-11.53.82z" fill="#010105"/><path d="m197.26 105.37c-11.91 11.57-23.51 22.9-35.19 34.15-3.78 3.64-7.63 7.22-11.71 10.52-1.45 1.17-3.62 1.84-5.52 1.98-3.99.29-5-1.25-5.42-5.15-.45-4.27 1.29-6.9 4.35-9.68 9.94-9.02 19.72-18.23 29.25-27.68 7.24-7.18 12.76-15.56 15.04-25.72.33-1.48.43-3.02.73-5.23-10.33.96-20.31 1.22-30.01 2.96-14.06 2.52-28.01 5.78-41.83 9.4-6.86 1.8-13.25 5.34-20.02 7.59-3.15 1.05-6.71 1.19-10.08 1.18-2.5 0-3.82-2.03-4.32-4.44-.49-2.34.34-3.91 2.35-5.33 10.23-7.23 21.77-11.38 33.76-14.29 12.59-3.06 25.23-6.02 37.97-8.35 9.33-1.7 18.84-2.47 28.3-3.31 3.46-.31 4.96-1.55 5.09-4.99.28-7.48.54-14.97 1.25-22.42.35-3.71 1.64-7.33 2.5-10.92 6.15.74 9.97 4.81 10.14 11.07.13 4.79-.6 9.59-.7 14.39-.06 2.88.21 5.8.59 8.66.4 3.05 2.21 4.55 5.43 4.77 6.58.45 13.23.73 19.69 1.9 9.32 1.69 18.58 3.81 27.72 6.3 14.97 4.08 29.85 8.51 44.71 12.98 4.25 1.28 7.9 3.63 9.76 8.05 1.89 4.45 1.26 6.71-3.41 6.99-4.99.3-10.26-.27-15.1-1.6-16.8-4.61-33.41-9.86-50.18-14.57-12.41-3.48-25.12-5.26-38.62-5.53 1.04 4.26 1.82 8.47 3.14 12.52.72 2.22 1.97 4.52 3.6 6.16 10.18 10.23 20.83 20.02 30.72 30.52 4.68 4.97 8.12 11.13 11.92 16.89.97 1.47 1.82 3.4-.12 5.14-1.87 1.68-3.86 2.91-6.33 1.71-1.96-.96-4.02-2.01-5.56-3.51-14.42-14.07-28.73-28.24-43.08-42.38-.4-.39-.82-.74-.81-.73z" fill="#010105"/><path d="m125.69 213.15c0-9.43.01-16.36 0-23.29-.01-4.36 1.06-8.34 3.47-12.04 1.24-1.9 2.58-2.12 4.5-1.44 4.1 1.44 6.45 4.38 6.57 8.75.06 2.11-.3 4.23-.43 6.34-.12 2.01-.36 4.02-.26 6.02.28 5.49 1.41 6.5 6.88 6.5 13.88 0 27.76-.07 41.63.06 2.73.02 3.77-.83 3.91-3.55.26-5.25.74-10.48 1.2-15.72.34-3.84 2.06-6.78 5.78-8.35 1.97-.84 3.57-.64 4.23 1.59 1.3 4.37 3.04 8.71 3.59 13.19 2.15 17.47.76 34.79-2.76 52.02-1.8 8.81-7.21 14.29-14.86 18.19-12.86 6.56-26.06 5.47-39.59 2.54-16.33-3.54-20.82-16.14-22.71-29.84-1.06-7.73-.89-15.63-1.15-20.97zm15.73 4.72c-.54 9.25-.68 18.03 3.36 26.25.74 1.51 1.91 3.21 3.33 3.91 12.44 6.16 24.88 6.16 37.15-.62.85-.47 1.88-1.07 2.26-1.87 3.52-7.47 5.58-15.31 4.88-23.63-.23-2.72-1.69-4.25-4.92-4.11-6.25.26-12.51.08-18.77.08-8.92-.01-17.85-.01-27.29-.01z" fill="#010105"/></svg>