<svg enable-background="new 0 0 400 400" viewBox="0 0 400 400" xmlns="http://www.w3.org/2000/svg"><g fill="#010103"><path d="m72.75 177.33c-.18-2.62-.57-5.08-.43-7.5.07-1.12.95-2.44 1.84-3.23 11.29-10.02 24.08-17.79 37.43-24.68 13.74-7.09 27.89-13.32 43.14-16.31 9.97-1.96 20.12-2.96 30.17-4.53.98-.15 2.58-1.34 2.59-2.07.17-10.95.12-21.9.12-33.33-5.59-1.19-11.88-.59-18.12.71-12.8 2.67-24.57 8.19-36.32 13.61-12.27 5.67-24.29 11.89-36.42 17.84-.99.48-2.02 1.01-3.09 1.17-4.85.74-6.25-.95-5.34-5.76.81-4.31 2.73-7.43 6.74-9.67 8.78-4.91 17.26-10.35 25.97-15.38 15.07-8.7 31.52-12.98 48.71-14.82 5-.54 9.95-1.53 14.94-2.1 2.43-.28 3.08-1.42 3.17-3.7.35-9.39.53-18.81 1.47-28.15.49-4.88 2.43-9.61 3.7-14.31 7.16 1.16 11.38 5.69 11.59 12.69.17 5.56-.62 11.15-.79 16.73-.11 3.56-.13 7.17.28 10.7.56 4.79 1.61 5.48 6.38 6.09 8.2 1.05 16.52 1.66 24.55 3.48 7.24 1.64 14.55 3.89 21.14 7.24 13.64 6.93 26.86 14.68 40.15 22.28 3.96 2.26 6.64 5.79 6.38 10.66-.06 1.14-1.06 2.68-2.06 3.23-3.54 1.94-7.16 1.44-10.48-.73-3.93-2.57-7.63-5.49-11.65-7.89-14.56-8.73-30.46-14.47-46.38-20.05-6.07-2.13-12.53-3.17-18.84-4.55-1.48-.32-3.13-.15-4.66.09-3.11.49-4.81 1.95-4.71 5.61.25 9.71.08 19.42.08 29.35 7.13.96 13.96 1.97 20.82 2.79 15.39 1.83 29.87 6.59 43.6 13.64 14.8 7.59 29.55 15.3 44.22 23.14 4.08 2.18 7.8 5.21 9.15 9.87 2 6.89.71 8.34-5.86 8.22-2.77-.05-5.61-1.28-8.24-2.4-2.02-.87-3.79-2.36-5.61-3.66-25.39-18.16-53.89-28.7-84.34-34.41-11.2-2.1-22.4-4.07-33.95-3.01-14.68 1.35-28.29 6.26-41.89 11.43-17.53 6.66-34.35 14.55-49.17 26.31-5.62 4.46-12.2 6.43-19.98 5.36z"/><path d="m188.37 359.45c0-14.94 0-28.77 0-43.45-7.48 0-14.83.05-22.17-.01-11.86-.1-23.72-.25-35.58-.46-1.88-.03-3.78-.36-5.64-.75-4.55-.96-6.43-3.13-6.25-7.64.05-1.18.87-2.72 1.83-3.39 5.04-3.53 10.91-4.66 16.88-4.59 9.5.11 19 .83 28.5.98 6.92.11 13.86-.2 20.78-.56.89-.05 2.4-1.5 2.43-2.34.13-4.77.37-9.61-.32-14.3-1.12-7.69 1.42-13.78 6.66-19.25 5.32 2.82 8.05 7.22 8.48 12.94.23 3.1-.12 6.25-.24 9.38-.04 1.12-.25 2.23-.29 3.34-.33 9.41 1.42 11.65 10.75 11.56 12.29-.11 24.58-1.14 36.87-1.17 5.36-.01 10.74 1.45 16.09 2.34.83.14 1.82.65 2.3 1.3 1.76 2.36 3.33 4.86 4.98 7.31-2.16 1.25-4.19 2.94-6.51 3.68-8.79 2.8-17.92 2.17-26.97 2.15-11.95-.02-23.9-.01-36.41-.01v42.36c3.33 0 6.89-.02 10.44 0 24.17.18 48.34.38 72.51.55 4.69.03 9.39-.05 14.08.02 5.75.09 8.52 2.64 9.6 8.28.37 1.91-.27 2.77-1.89 3.65-7.81 4.23-16.28 4.86-24.8 4.23-49.08-3.61-98.23-1.19-147.35-1.75-10.38-.12-20.77 1.03-31.16 1.45-6.65.27-13.12-.78-19.41-3.11-3.74-1.39-2.15-4.63-2.79-7.08-.58-2.24 1.31-2.5 2.72-3.02 9.85-3.59 20.12-4.15 30.43-3.94 15.32.3 30.63.92 45.95 1.25 8.38.2 16.75.05 25.5.05z"/><path d="m186.85 241.81c.56-11.76 1.12-23.44 1.73-36.1-7.35 0-14.35.08-21.36-.02-10.4-.15-20.81-.38-31.21-.71-2.08-.07-4.16-.71-6.21-1.2-2.84-.68-4.2-2.5-4.54-5.47-.35-3.12 1.32-4.23 3.79-5.35 9.03-4.07 18.54-3.55 28.05-3.34 9.17.2 18.35.29 27.51.56 2.33.07 3.14-.71 3.19-3.01.19-8.16.52-16.33.8-24.49.21-6.27 2.17-11.82 6.73-16.27 6.77 2.14 10.25 9.29 9.07 17.69-.85 6.07-1.22 12.21-1.77 18.32-.07.77.08 1.56.17 2.34.35 3.05 1.57 4.36 5.12 4.38 15.43.09 30.88.38 46.29 1.17 3.92.2 7.95 2.09 11.55 3.95 3.37 1.75 2.82 6.25-.62 8.05-8.17 4.27-16.97 4.34-25.87 3.88-11.38-.58-22.76-1.03-34.73-1.57v36.79c4.88 0 10.2-.06 15.51.01 15.89.2 31.78.41 47.67.69 2.56.05 5.16.28 7.67.78 1.58.32 3.27 1.01 4.49 2.04 3.86 3.26 3.33 7.1-1.17 9.17-5.71 2.64-11.8 3.29-18.01 3.2-14.21-.22-28.42-.61-42.63-.63-27.88-.04-55.75.02-83.63.25-7.42.06-14.79.32-21.81-2.49-1.91-.77-3.99-1.17-4.11-4.38-.14-3.7 1.31-5.1 4.52-6.06 10.5-3.13 21.21-2.73 31.96-2.48 13.31.31 26.63.39 39.95.55.54.03 1.07-.12 1.9-.25z"/></g><path d="m385.2 377.6.6-.7c.6.4 1.3.9 1.9 1.5l-.6.7c-.8-.5-1.4-1-1.9-1.5zm.3 7.1c.6-1.4 1.1-2.9 1.5-4.5.3.1.6.3.9.4-.5 1.4-1 2.9-1.5 4.4zm.2-10.1.6-.6c.7.5 1.3 1.1 1.9 1.6l-.7.7c-.6-.6-1.2-1.2-1.8-1.7zm8.4-.8h.8v.9h1.8v.7h-1.8v1.8h-.8v-.3h-1.2v.9h3.3v2.6h-.8v-.4h-2.5c0 .3 0 .6-.1.8h3.4v.7h-3.5c0 .3-.1.6-.1.8h4v.7h-3.5c.7.9 1.9 1.3 3.6 1.5-.2.2-.4.5-.6.9-1.9-.3-3.2-1.1-3.8-2.3-.5 1.1-1.8 2-3.9 2.4-.2-.3-.4-.5-.6-.8 1.9-.4 3.1-.9 3.6-1.7h-3.2v-.7h3.5c.1-.2.1-.5.2-.8h-3.3v-.7h3.4c0-.2 0-.5 0-.8h-2.4v.3h-.8v-2.6h3.3v-.9h-1.2v.3h-.8v-1.8h-1.8v-.7h1.8v-.9h.8v.9h3.2zm-4.4 5.5h2.4c0-.3 0-.6 0-.9h-2.4zm1.2-3.1h3.2v-.8h-3.2zm4.4 2.2h-2.4v.9h2.5v-.9z" fill="#fcfbfa"/><path d="m389.2 385.8h.9v1.5h1.9v-1.5h.9v1.5h2.7v6h1.1v.9h-11.3v-.9h1.1v-6h2.7zm.2 8.7.5.8c-1.2.6-2.5 1.3-4 1.9-.2-.3-.3-.6-.6-.8 1.6-.6 3-1.3 4.1-1.9zm-2-4.3h1.9v-2.1h-1.9zm0 3.1h1.9v-2.2h-1.9zm2.7-3.1h1.9v-2.1h-1.9zm0 3.1h1.9v-2.2h-1.9zm2.4 1.3c1.4.6 2.7 1.2 4.1 1.8l-.5.9c-1.5-.7-2.8-1.4-4.1-1.9zm2.2-6.5h-1.9v2.1h1.9zm-1.9 5.2h1.9v-2.2h-1.9z" fill="#fcfbfa"/></svg>