<svg enable-background="new 0 0 400 400" viewBox="0 0 400 400" xmlns="http://www.w3.org/2000/svg"><path d="m361.2 9.6.8-1c.9.7 1.9 1.4 2.9 2.3l-.9 1.1c-1-1-2-1.8-2.8-2.4zm.5 10.6c.9-2.1 1.6-4.3 2.3-6.7.4.2.8.4 1.3.6-.7 2.1-1.5 4.3-2.2 6.6zm.4-15.2.9-.9c1 .8 2 1.6 2.8 2.4l-1 1c-.9-.9-1.8-1.7-2.7-2.5zm12.5-1.2h1.2v1.4h2.7v1.1h-2.7v2.7h-1.2v-.6h-1.8v1.3h4.9v3.8h-1.2v-.5h-3.7c0 .4-.1.9-.1 1.2h5.1v1h-5.2c0 .5-.1.9-.2 1.2h6v1h-5.2c1.1 1.3 2.9 2 5.5 2.2-.4.4-.7.8-.9 1.3-2.9-.5-4.8-1.6-5.7-3.5h-.1c-.8 1.7-2.7 2.9-5.9 3.6-.2-.4-.6-.8-.9-1.1 2.8-.6 4.6-1.4 5.4-2.5h-4.8v-1h5.3c.1-.3.2-.7.2-1.2h-4.9v-1h5c0-.4 0-.8.1-1.2h-3.5v.5h-1.2v-3.8h4.9v-1.3h-1.8v.5h-1.2v-2.7h-2.7v-1h2.6v-1.4h1.2v1.4h4.7v-1.4zm-6.6 8.3h3.6c0-.4 0-.9 0-1.4h-3.6zm1.9-4.6h4.7v-1.3h-4.7zm6.6 3.2h-3.7v1.4h3.7z" fill="#fbfcfa"/><path d="m385.3 3.8h1.3v2.2h2.8v-2.2h1.3v2.2h4.1v9.1h1.7v1.3h-16.9v-1.3h1.7v-9.1h4.1v-2.2zm.4 13.1.7 1.2c-1.8.9-3.8 1.9-6 2.9-.2-.4-.5-.8-.8-1.3 2.3-1 4.3-1.9 6.1-2.8zm-3.1-6.4h2.8v-3.2h-2.8zm0 4.6h2.8v-3.3h-2.8zm4-4.6h2.8v-3.2h-2.8zm0 4.6h2.8v-3.3h-2.8zm3.7 1.9c2.1.9 4.1 1.8 6.1 2.7l-.7 1.3c-2.2-1.1-4.2-2-6.1-2.9zm3.2-9.7h-2.8v3.2h2.8zm-2.8 7.8h2.8v-3.3h-2.8z" fill="#fbfcfa"/><g fill="#010102"><path d="m137.07 25.09c7.05 1.59 10.22 6.72 9.51 15.21-.42 5.02-1.22 10.01-1.36 15.03-.13 4.4.4 8.81.68 13.79 6.98-1.24 13.11-2.31 19.24-3.43 8.35-1.54 16.69-3.13 25.04-4.68.77-.14 1.55-.27 2.33-.27 8.73.01 7.43-.44 9.99 8.31-4.39 1.84-8.81 3.88-13.37 5.55-6.84 2.5-6.74 2.39-6.91 9.67-.27 11.73-.27 23.5-1.33 35.17-.51 5.65-2.87 11.23-4.96 16.62-1.8 4.65-5.14 8.31-9.39 11.11-4.38 2.89-8.62 5.99-13.24 9.22 1.18 2.34 2.21 4.65 3.48 6.83 4.39 7.51 8.72 15.07 13.34 22.44 4.99 7.94 8.55 16.42 10.91 25.45 1.98 7.61-.05 14.67-3.15 21.47-3.67 8.02-8.03 15.74-11.46 23.86-7.04 16.71-8.32 34.19-5.86 52.03 1.04 7.53 2.16 15.05 3.27 22.58 1.49 10.12 6.11 19.08 10.19 28.28 1.37 3.09 1.82 6.62 2.46 9.99.48 2.54-.33 4.78-3.05 5.54-2.65.74-5.06.12-6.91-2.14-5.59-6.83-9.53-14.55-12.5-22.82-4.24-11.82-5.71-24.13-6.36-36.55-.84-16-.67-31.99 1.85-47.88 1.77-11.14 6.62-21.04 12.29-30.6 4.41-7.43 6.55-15.4 5.87-24.03-.13-1.6-.6-3.31-1.39-4.7-7.39-12.9-14.93-25.72-22.31-38.64-1.17-2.04-2.17-2.58-4.46-1.66-3.73 1.5-7.76 2.46-10.12 6.06-.66 1-1.18 2.7-.78 3.68 6.06 14.9 12.34 29.72 18.44 44.61 1.18 2.87 1.97 5.92 2.7 8.95.64 2.65-.49 4.57-3.09 5.55-2.34.88-4.26 1.02-6.14-1.37-5.21-6.58-8.72-13.97-11.84-21.69-3.13-7.74-6.84-15.24-10.66-23.65-4.43 7.93-7.04 15.33-7.98 23.08-1.15 9.53-1.49 19.15-2.09 28.74-.71 11.39-1.45 22.77-1.93 34.17-.28 6.81-.09 13.64-.1 20.47-.01 5.91-2.27 8.61-7.97 9.73-1.67.33-2.94.11-3.38-1.66-.97-3.87-2.57-7.75-2.64-11.65-.5-27.81 2.22-55.39 5.98-82.93 1.45-10.65 5.95-19.84 10.57-29.08 2.44-4.89 2.75-9.03.54-14.13-5.75-13.26-9.82-27.07-12.26-41.37-1.7-9.98-.33-19.38 4.49-28.25.76-1.4 1.96-2.74 3.27-3.65 8.44-5.88 17.02-11.57 25.42-17.51 1.28-.9 2.37-2.65 2.71-4.19 1.61-7.32 1.01-14.67-.22-22-1.34-8.05.35-15.51 4.64-22.66zm-5.87 64.23c-6.55 4.33-12.62 8.27-18.59 12.36-.77.53-1.16 1.81-1.42 2.82-2.22 8.71-2.03 17.5-.56 26.27 1.77 10.54 5.18 20.5 11.18 29.81 4.37-3.57 8.53-7.12 12.86-10.44 1.82-1.39 2.4-2.85 2.16-5.1-1.91-18.33-3.72-36.67-5.63-55.72zm36.85-10.29c-6.97 1.97-12.95 3.75-18.99 5.3-2.04.53-2.57 1.53-2.58 3.5-.03 10.84-.59 21.69-.14 32.51.28 6.91 1.99 13.76 3.19 21.49 4.04-3.38 6.96-6.13 10.2-8.45 3.79-2.71 6.17-6.37 6.81-10.74 1.3-8.92 2.45-17.89 2.92-26.88.26-5.36-.87-10.8-1.41-16.73z"/><path d="m261.69 196.71c7.33-.72 14.65-1.45 21.99-2.14 2.12-.2 2.98-1.09 3.01-3.4.05-5.59.34-11.19.77-16.76.16-2.14-.58-3.21-2.54-3.49-6.95-.99-13.89-2.08-20.87-2.8-4.88-.51-9.85-.2-14.72-.8-4.17-.51-8.03-2.06-9.83-6.51-.93-2.29-.54-4.07 1.9-4.72 4.82-1.28 9.68-3.06 14.58-3.28 11.9-.53 23.65 1.23 35.11 4.5 1.97.56 4.01 2.03 5.28 3.66 7.06 9.01 7.05 19.28 5.34 30.03-1.58 9.96-7.25 15.27-16.82 17.29-8.61 1.82-17.29 2.57-25.99 1.46-10.73-1.37-21.4-3.17-32.09-4.84-3.69-.57-6.05-2.85-7.98-5.98-4.38-7.13-6.72-14.92-7.3-23.13-.95-13.46-.43-26.85 4.55-39.65.52-1.33 1.55-2.76 2.74-3.49 13.95-8.5 29.07-11.76 45.31-9.89 2.33.27 4.69.43 7.03.37 8.38-.23 13.9-4.91 14.56-13.21.42-5.29-.23-10.69-.74-16-.1-1.02-1.63-2.3-2.77-2.76-10.67-4.3-21.84-5.42-33.24-4.98-5.94.23-11.87.41-17.3-2.72-7.45-4.3-11.47-11.27-12.74-19.23-1.36-8.54-1.45-17.34-1.35-26.02.04-3.24 2.1-6.47 3.34-9.66.67-1.71 1.93-1.86 3.55-1.12 4.89 2.23 6.74 6.42 6.99 11.35.25 4.8-.5 9.69.16 14.4.67 4.77 2.09 9.56 4.05 13.96.93 2.09 3.67 3.92 5.98 4.75 8.96 3.21 18.3 3.83 27.78 3.17 4.53-.31 9.3-.8 13.63.22 10.13 2.38 13.75 10.68 16.44 19.73 3.03 10.23-.19 19.59-3.35 29.01-.32.96-1.29 1.79-2.13 2.46-9.7 7.75-20.81 10.37-33.03 9.12-8.63-.89-17.15-.51-25.57 1.98-3.01.89-5.21 2.5-5.94 5.28-1.38 5.25-3.02 10.62-3.15 15.98-.2 8.81.74 17.64 1.14 26.46.12 2.63 1.27 4.62 3.75 5.35 5.85 1.74 11.71 3.57 17.69 4.76 4.13.82 8.46.63 12.7.89.03.13.06.26.08.4z"/><path d="m255.39 252.34c8.5 0 17.01-.11 25.5.06 2.66.05 3.63-.93 3.67-3.41.1-6.14.19-12.28.43-18.42.11-2.76.18-5.65 1.03-8.22.61-1.85 2.21-3.65 3.84-4.84 3.17-2.32 4.86-1.91 5.82 1.8 1.9 7.32 4.17 14.72 4.65 22.19 1.29 20.28-.54 40.38-5.21 60.25-1.9 8.09-6.47 13.23-13.78 16.32-18.64 7.88-37.2 7.56-55.44-1.2-2.31-1.11-4.33-3.52-5.71-5.79-5-8.3-7.11-17.63-8.02-27.11-1.98-20.65-2.05-41.33 1.2-61.88 1.12-7.09 4.69-7.14 9.17-3.78 4.18 3.15 4.49 7.71 4.01 12.44-.4 3.89-1.05 7.77-1.18 11.67-.32 9.57.11 9.91 9.54 9.91 6.83.01 13.66.01 20.48.01zm-28.65 14.56c0 3.54-.01 6.64 0 9.74.05 8.96.03 17.95 4.47 26.13.73 1.35 2.03 2.77 3.4 3.33 12.33 5.06 24.84 4.72 37.32.62 5.88-1.93 10.22-5.38 10.28-12.35.01-1.43.64-2.84.77-4.28.59-6.54 1.22-13.08 1.59-19.64.14-2.45-1.17-3.73-4.01-3.62-6.03.22-12.08.07-18.11.07-11.64 0-23.26 0-35.71 0z"/></g></svg>