<svg enable-background="new 0 0 400 400" viewBox="0 0 400 400" xmlns="http://www.w3.org/2000/svg"><path d="m361.2 9.6.8-1c.9.7 1.9 1.4 2.9 2.3l-.9 1.1c-1-1-2-1.8-2.8-2.4zm.5 10.6c.9-2.1 1.6-4.3 2.3-6.7.4.2.8.4 1.3.6-.7 2.1-1.5 4.3-2.2 6.6zm.4-15.2.9-.9c1 .8 2 1.6 2.8 2.4l-1 1c-.9-.9-1.8-1.7-2.7-2.5zm12.5-1.2h1.2v1.4h2.7v1.1h-2.7v2.7h-1.2v-.6h-1.8v1.3h4.9v3.8h-1.2v-.5h-3.7c0 .4-.1.9-.1 1.2h5.1v1h-5.2c0 .5-.1.9-.2 1.2h6v1h-5.2c1.1 1.3 2.9 2 5.5 2.2-.4.4-.7.8-.9 1.3-2.9-.5-4.8-1.6-5.7-3.5h-.1c-.8 1.7-2.7 2.9-5.9 3.6-.2-.4-.6-.8-.9-1.1 2.8-.6 4.6-1.4 5.4-2.5h-4.8v-1h5.3c.1-.3.2-.7.2-1.2h-4.9v-1h5c0-.4 0-.8.1-1.2h-3.5v.5h-1.2v-3.8h4.9v-1.3h-1.8v.5h-1.2v-2.7h-2.7v-1h2.6v-1.4h1.2v1.4h4.7v-1.4zm-6.6 8.3h3.6c0-.4 0-.9 0-1.4h-3.6zm1.9-4.6h4.7v-1.3h-4.7zm6.6 3.2h-3.7v1.4h3.7z" fill="#fbfcfa"/><path d="m385.3 3.8h1.3v2.2h2.8v-2.2h1.3v2.2h4.1v9.1h1.7v1.3h-16.9v-1.3h1.7v-9.1h4.1v-2.2zm.4 13.1.7 1.2c-1.8.9-3.8 1.9-6 2.9-.2-.4-.5-.8-.8-1.3 2.3-1 4.3-1.9 6.1-2.8zm-3.1-6.4h2.8v-3.2h-2.8zm0 4.6h2.8v-3.3h-2.8zm4-4.6h2.8v-3.2h-2.8zm0 4.6h2.8v-3.3h-2.8zm3.7 1.9c2.1.9 4.1 1.8 6.1 2.7l-.7 1.3c-2.2-1.1-4.2-2-6.1-2.9zm3.2-9.7h-2.8v3.2h2.8zm-2.8 7.8h2.8v-3.3h-2.8z" fill="#fbfcfa"/><g fill="#010102"><path d="m160.07 371.33c-2.85 0-5.55.21-8.19-.1-1.11-.13-2.35-1.15-3.1-2.1-8.02-10.18-12.42-21.99-14.52-34.58-3.62-21.75-4.32-43.62-1.52-65.54.18-1.41.61-2.83 1.17-4.15 5.96-14.22 11.72-28.54 18.06-42.59 3.66-8.12 2.16-15.21-2.39-22.15-2.02-3.08-4.54-5.84-6.52-8.95-3.35-5.26-6.48-10.66-9.65-16.03-1.19-2.02-2.06-4.25-3.41-6.14-3.63-5.08-5.93-5.31-10.64-1.35-6.37 5.35-6.44 5.38-3.18 13.12 5.64 13.39 11.46 26.7 17 40.12 1.12 2.72 1.67 5.78 1.93 8.73.17 1.96-.53 4.26-3.11 4.47-2.53.2-5.16.22-6.6-2.68-4.71-9.52-9.47-19.01-14.22-28.51-2.44-4.89-4.91-9.76-7.59-15.08-3.69 6.86-5.68 13.78-7.05 20.88-3.44 17.89-3.68 36.04-4.22 54.16-.25 8.26.14 16.54.11 24.82-.01 2.67-.3 5.37-.75 8.01-.48 2.78-1.9 5.12-4.82 5.91-2.72.73-5.45.87-6.44-2.67-1.01-3.62-2.76-7.3-2.71-10.93.44-30.9 1.63-61.8 7.67-92.19 1.56-7.86 5.46-15.35 9.01-22.66 1.66-3.41 2.06-6.2.54-9.47-5.4-11.62-9.28-23.76-11.49-36.34-1.85-10.52-2.73-21.11 2.66-31.14 2.78-5.16 6.71-8.68 12.24-10.82 5.29-2.04 10.31-4.76 15.45-7.17 2.16-1.01 2.94-2.61 2.96-5.05.07-9.51.4-19.01.55-28.51.11-6.8 1.49-13.28 4.41-19.4 6.41.73 10.43 4.84 10.32 11.5-.11 6.12-1.25 12.22-1.6 18.35-.28 4.85-.06 9.72-.06 15.33 8.48-1.74 15.88-3.31 23.3-4.76 7.12-1.39 14.23-3.01 21.42-3.85 6.75-.78 10.53 2.46 11.99 9.28-5.75 2.5-11.52 5.14-17.4 7.5-2.19.88-3.26 2.11-3.29 4.4-.08 7.48-.16 14.95-.29 22.43-.1 5.69.24 11.45-.53 17.05-1.1 7.95-3.82 15.2-10.6 20.57-5.31 4.22-9.94 9.3-15.32 14.42 4.44 7.05 8.45 14.3 13.31 20.92 7.1 9.68 13.34 19.58 14.92 31.79 1.19 9.24-.8 17.81-5.37 25.79-6.93 12.12-12.14 24.87-14.93 38.6-3.16 15.6-2.89 31.09.88 46.56.87 3.58 1.55 7.23 1.93 10.9.85 8.29 4.36 15.66 7.63 23.13 2.21 5.04 3.2 10.22 2.05 16.17zm-52.62-212.19c4.66-3.46 8.42-6.47 12.4-9.13 2.35-1.57 3.01-3.26 2.67-6.1-1.45-12.09-2.71-24.2-3.83-36.32-.36-3.87.06-7.8-.13-11.69-.2-4.2-2.74-5.52-6.17-3.39-3.22 2-6.47 3.97-9.62 6.09-1.05.71-2.14 1.69-2.67 2.81-3.5 7.33-5.53 15.15-3.42 23.08 3.06 11.49 7.01 22.73 10.77 34.65zm29.08-18.49c2.4-2.01 4.32-3.92 6.51-5.42 6.14-4.19 9.14-10.3 9.39-17.32.39-10.7.02-21.44-.27-32.16-.09-3.17-2.61-4.59-5.72-3.66-4.17 1.24-8.27 2.76-12.48 3.84-2.26.58-2.63 1.63-2.53 3.76.38 8.14.69 16.29.73 24.44.05 8.96.24 17.86 4.37 26.52z"/><path d="m197.33 208.37c.57-12.68 1.14-25.27 1.73-38.36-5.92-.2-11.59-.4-17.26-.58-5.23-.17-7.88-2.56-8.61-7.55-.31-2.11.17-3.52 2.39-3.95 5.59-1.09 11.15-2.37 16.77-3.17 6.74-.96 6.75-.78 7.49-7.57.81-7.45 1.58-14.91 2.56-22.34.2-1.55.89-3.37 1.99-4.4 5.2-4.89 10.5-9.69 15.99-14.25 5.35-4.44 8.94-9.44 7.1-16.8-.22-.89-.74-1.97-1.47-2.44-5.87-3.86-11.82-7.6-18.16-11.63-1.16 4.32-2.02 8.34-3.32 12.21-3.39 10.1-10.16 17.73-18.46 24.07-1.36 1.04-3.22 1.61-4.94 1.98-4.95 1.05-8.39-2.76-6.45-7.47 1.33-3.24 3.12-6.58 5.55-9.04 8.04-8.16 12.23-18.05 14.14-29.08.19-1.08-.7-2.59-1.51-3.55-3.28-3.92-7.11-7.43-9.99-11.6-4.02-5.81-2.9-11.93.67-17.65.41-.66 2.09-1.31 2.58-1 2.28 1.42 4.56 2.97 6.4 4.89 1.07 1.12 1.32 3.03 1.91 4.6 1.76 4.73 4.45 8.59 8.88 11.37 9.48 5.94 18.84 12.07 28.09 18.36 3.11 2.11 6.19 4.57 8.49 7.5 5.75 7.36 4.4 19.95-2.36 26.48-3.94 3.81-7.63 7.91-11.76 11.51-8.3 7.24-11.46 16.54-11.61 27.18-.03 2.44-.01 4.88-.01 7.97 6.74.43 13.28.87 19.82 1.28 5.95.37 9.25 3.47 8.86 8.64-.07.96-.97 2.41-1.78 2.66-3.07.93-6.24 1.78-9.42 2.04-3.78.32-7.6-.06-11.41 0-1.98.03-3.95.36-6.1.58-.35 12.88-.69 25.39-1.05 38.8 5.52.19 10.81.36 16.09.55 2.78.1 5.62-.09 8.31.47 3.38.7 5.94 4.38 5.83 7.75-.02.67-.74 1.75-1.33 1.9-4.05 1.04-8.11 2.2-12.24 2.7-4.06.49-8.22.19-12.33.38-1.92.09-2.61 1.22-2.9 3.27-2.65 18.58-2.56 37.28-2.58 55.97-.02 25.18.2 50.36.12 75.54-.01 4.07-.82 8.2-1.75 12.19-.39 1.69-1.79 3.4-3.18 4.56-3.45 2.87-6.71 2.16-7.79-2.08-1.33-5.24-2.47-10.72-2.44-16.1.14-27.54.7-55.07 1.06-82.6.2-15.33.21-30.67.5-46.01.06-2.89-.98-4.33-3.63-4.34-4.45-.03-8.92.07-13.36.43-7.01.56-9.39-1.89-8.33-8.66.39-2.48 1.68-3.32 3.96-3.51 5.8-.48 11.58-1.05 17.37-1.61.9-.07 1.76-.28 2.88-.49z"/><path d="m281.75 75.17c-4.75 9.21-9.14 18.12-13.92 26.82-2.49 4.54-5.96 8.48-10.91 10.57-2.49 1.05-5.4 2.56-7.81.19-2.57-2.53-2.29-5.74-.5-8.66 1.62-2.65 3.2-5.43 5.34-7.63 7.91-8.12 11.82-18.05 13.68-28.95.15-.87-.75-2.15-1.51-2.89-2.15-2.1-4.72-3.81-6.68-6.06-6.62-7.61-7.37-15.37-2.65-24.49 4.84.06 7.79 1.7 9.15 6.18 2.24 7.39 6.73 12.48 13.34 16.41 8.26 4.91 16.1 10.53 24.09 15.89 11.95 8.02 15.04 17.67 9.83 30.99-.55 1.4-1.51 2.73-2.57 3.81-4.55 4.63-9.1 9.28-13.87 13.67-5.88 5.41-8.6 12.11-9.04 19.92-.23 4.12-.45 8.24-.71 12.93 5.54.47 10.73.89 15.92 1.34 2.55.22 5.25.07 7.6.88 1.82.63 3.77 2.19 4.68 3.87 2.22 4.07 1.13 6.68-3.4 7.54-4.56.87-9.3 1.13-13.95 1.09-10.43-.11-10.59-.26-10.83 9.91-.22 9.59-.05 19.19-.05 29.56 4.65.18 9.85.42 15.04.56 1.9.05 3.92-.56 5.67-.09 2.37.64 5.06 1.54 6.67 3.23 3.54 3.71 2.66 6.9-2.18 8.29-3.26.94-6.76 1.11-10.18 1.37-1.87.15-3.79-.36-5.68-.33-8.12.11-8.25.51-9.15 8.54-3.24 28.78-1.86 57.7-2.6 86.55-.39 15.33-.01 30.68-.21 46.02-.04 3.29-.88 6.6-1.65 9.84-.62 2.58-2.82 3.26-5.23 3.3-2.3.04-3.88-.71-4.86-3.11-2.32-5.62-2.83-11.44-2.74-17.42.51-37.16.97-74.33 1.44-111.49.07-5.71-.06-11.43.2-17.13.12-2.66-1.06-3.9-3.35-3.92-4.67-.04-9.36.05-14.02.41-6.9.54-10.24-3.97-7.3-10.38.41-.89 2.02-1.57 3.16-1.72 4.88-.64 9.79-1.04 14.68-1.52 1.77-.17 3.55-.32 5.69-.51.59-12.7 1.17-25.29 1.78-38.53-5.84-.21-11.48-.43-17.11-.6-5.53-.16-8.47-2.89-8.8-8.04-.12-1.86.38-3.03 2.26-3.4 5.81-1.12 11.59-2.42 17.43-3.28 5.98-.88 6.09-.67 6.84-6.69.88-7.11 1.44-14.26 2.48-21.34.35-2.39 1.18-5.21 2.81-6.82 4.99-4.94 10.37-9.5 15.79-13.98 5.2-4.3 8.4-9.29 6.8-16.31-.21-.92-.66-2.05-1.37-2.54-5.93-4.1-11.97-8.11-17.54-11.85z"/></g></svg>