<svg enable-background="new 0 0 400 400" viewBox="0 0 400 400" xmlns="http://www.w3.org/2000/svg"><path d="m361.2 9.6.8-1c.9.7 1.9 1.4 2.9 2.3l-.9 1.1c-1-1-2-1.8-2.8-2.4zm.5 10.6c.9-2.1 1.6-4.3 2.3-6.7.4.2.8.4 1.3.6-.7 2.1-1.5 4.3-2.2 6.6zm.4-15.2.9-.9c1 .8 2 1.6 2.8 2.4l-1 1c-.9-.9-1.8-1.7-2.7-2.5zm12.5-1.2h1.2v1.4h2.7v1.1h-2.7v2.7h-1.2v-.6h-1.8v1.3h4.9v3.8h-1.2v-.5h-3.7c0 .4-.1.9-.1 1.2h5.1v1h-5.2c0 .5-.1.9-.2 1.2h6v1h-5.2c1.1 1.3 2.9 2 5.5 2.2-.4.4-.7.8-.9 1.3-2.9-.5-4.8-1.6-5.7-3.5h-.1c-.8 1.7-2.7 2.9-5.9 3.6-.2-.4-.6-.8-.9-1.1 2.8-.6 4.6-1.4 5.4-2.5h-4.8v-1h5.3c.1-.3.2-.7.2-1.2h-4.9v-1h5c0-.4 0-.8.1-1.2h-3.5v.5h-1.2v-3.8h4.9v-1.3h-1.8v.5h-1.2v-2.7h-2.7v-1h2.6v-1.4h1.2v1.4h4.7v-1.4zm-6.6 8.3h3.6c0-.4 0-.9 0-1.4h-3.6zm1.9-4.6h4.7v-1.3h-4.7zm6.6 3.2h-3.7v1.4h3.7z" fill="#fbfcfa"/><path d="m385.3 3.8h1.3v2.2h2.8v-2.2h1.3v2.2h4.1v9.1h1.7v1.3h-16.9v-1.3h1.7v-9.1h4.1v-2.2zm.4 13.1.7 1.2c-1.8.9-3.8 1.9-6 2.9-.2-.4-.5-.8-.8-1.3 2.3-1 4.3-1.9 6.1-2.8zm-3.1-6.4h2.8v-3.2h-2.8zm0 4.6h2.8v-3.3h-2.8zm4-4.6h2.8v-3.2h-2.8zm0 4.6h2.8v-3.3h-2.8zm3.7 1.9c2.1.9 4.1 1.8 6.1 2.7l-.7 1.3c-2.2-1.1-4.2-2-6.1-2.9zm3.2-9.7h-2.8v3.2h2.8zm-2.8 7.8h2.8v-3.3h-2.8z" fill="#fbfcfa"/><g fill="#010102"><path d="m126.62 94.29c-7.7 0-15.43.38-23.1-.13-5.53-.36-10.98-1.91-16.47-2.92-3.32-.62-1.92-3.49-2.53-5.38-.59-1.83.32-2.71 2.03-3.51 5.05-2.34 10.17-3.45 15.83-3.39 21.15.25 42.31.01 63.46.17 4.43.03 8.92.71 13.24 1.7 1.78.41 3.75 2.13 4.64 3.78 1.72 3.2.77 5.93-2.68 6.88-4.56 1.26-9.35 2.04-14.07 2.24-12.06.51-24.13.57-36.2.83-.27.01-.54.23-1.22.54.92.37 1.5.59 2.08.84 4.38 1.86 5.64 4.19 4.91 9.02-.91 6.04-.73 7.82 1.24 11.13 12.34-2.25 24.73-4.59 37.16-6.72 3.5-.6 7.11-.69 10.67-.85 3.45-.16 5.81 1.17 6 5.04.05.99.4 1.96.7 3.35-5.43 2.64-10.87 5.44-16.44 7.93-2.31 1.03-3.61 2.27-3.61 4.92 0 6.14-.54 12.3-.18 18.4.46 7.58-.05 14.92-2.45 22.17-2.07 6.27-6.22 10.45-12.02 13.24-3.89 1.88-7.76 3.8-12.2 5.98 1.76 2.71 3.01 5.04 4.63 7.08 5.13 6.48 10.67 12.65 15.54 19.31 7.76 10.6 9.73 22.23 4.22 34.49-3.79 8.43-7.64 16.89-12.16 24.94-7.23 12.87-8.55 26.52-5.94 40.6 1.97 10.64 4.68 21.17 7.52 31.63 1.21 4.46 3.72 8.55 5.38 12.91 1.26 3.31 2.14 6.76 3.08 10.18.18.66.05 1.69-.36 2.17-1.59 1.83-8.05 1.61-9.67-.23-11.89-13.5-17.78-29.46-19.56-47.19-1.33-13.2-1.59-26.39.88-39.43 1.09-5.75 3.6-11.24 5.52-16.83 1.63-4.75 3.75-9.07 7.07-13.09 9.44-11.39 9.19-22.95.04-34.44-5.93-7.44-11.95-14.8-17.67-22.4-1.84-2.44-3.52-3-6.1-1.6-.87.48-1.88.7-2.81 1.08-5.36 2.24-6.2 4.36-3.62 9.39 5.63 10.93 11.39 21.79 16.88 32.78 1.46 2.93 2.52 6.18 3.08 9.41.45 2.61-1.07 4.87-3.88 5.48-2.75.59-5.09.19-6.78-2.74-6.36-11.04-12.94-21.96-19.45-32.92-.74-1.24-1.5-2.47-2.43-4.01-4.49 6.88-7.2 14.15-8.99 21.78-2.98 12.75-2.6 25.78-2.9 38.74-.23 10.05-.13 20.12-.63 30.16-.24 4.92-2.82 7.15-6.75 7.32-1.8.08-3.39-.28-3.91-2.31-.88-3.44-2.38-6.88-2.44-10.34-.34-21.72-.28-43.49 4.61-64.78 2.29-9.96 6.19-19.54 9.4-29.29.2-.62.56-1.3 1.06-1.68 3.59-2.77 3.06-5.75 1.41-9.57-3.98-9.22-7.81-18.54-10.94-28.07-2.86-8.71-3.85-17.7.38-26.5 3.26-6.79 8.1-11.54 15.45-13.89 5.5-1.76 10.8-4.17 16.16-6.36 1.85-.75 2.71-2.18 2.41-4.26-.13-.88-.05-1.79-.02-2.68.29-6.57-1.71-13.56 4.37-19.04-.27-.36-.57-.71-.87-1.06zm-5.39 39.73c-6.23 3.91-11.82 7.13-17.06 10.85-1.72 1.22-3.2 3.58-3.65 5.66-3.23 15.03 4.79 26.8 11.21 39.24 4.93-2.69 9.3-5.18 13.77-7.46 1.65-.84 1.79-1.84 1.55-3.48-.91-6.42-1.64-12.86-2.47-19.29-1.04-8.07-2.12-16.14-3.35-25.52zm19.75 41.96c4.27-2.48 7.95-4.77 11.78-6.77 2.12-1.1 3.15-2.65 3.42-4.91 1.06-8.65 2.35-17.28 3.11-25.96.28-3.14-.49-6.43-1.17-9.57-.18-.85-1.94-2.14-2.7-1.97-6.19 1.33-12.32 2.95-18.64 4.53 1.39 14.81 2.76 29.37 4.2 44.65z"/><path d="m259.87 156.86c-5.21.73-9.84 1.49-14.5 1.97-2.41.25-2.9 1.82-3.06 3.62-.51 5.67-.62 11.39-1.44 17.01-.49 3.36-1.64 6.75-3.14 9.8-7.83 15.94-16.18 31.64-23.74 47.71-7.73 16.44-9.41 33.83-6.53 51.77 3.02 18.76 5.7 37.58 8.51 56.38.48 3.2 1.06 6.4 1.21 9.62.08 1.72-.34 3.61-1.07 5.18-2.04 4.43-7.25 4.79-9.92.84-3.63-5.37-4.62-11.51-5.42-17.76-2.39-18.63-5.02-37.22-7.28-55.87-1.7-14.01-1.33-28.06 3.08-41.52 2.59-7.9 6.81-15.28 10.38-22.85 6.52-13.85 13.12-27.65 19.63-41.51.6-1.27.99-2.76 1.02-4.15.12-5.23.05-10.46.05-16.38-5.18.57-9.9 1.14-14.64 1.58-2.88.27-5.81.69-8.66.41-4.6-.46-7.43-6.07-5.33-10.22.35-.68 1.53-1.22 2.39-1.32 12.97-1.58 25.94-3.24 38.94-4.55 10.25-1.03 20.46-1.96 30.14-5.92 4.71-1.93 7.95-4.66 9.39-9.9 1.88-6.87 4.56-13.52 6.88-20.21 5.88.58 9.6 3.77 9.08 9.2-.69 7.16-2.49 14.22-4.01 21.28-.22 1.01-1.42 1.96-2.38 2.62-3.77 2.61-7.71 4.97-11.4 7.69-1.06.78-1.91 2.36-2.11 3.69-2.5 16.17 2.53 30.16 12.47 42.77 3.85 4.88 6.47 10.45 7.51 16.65 1.42 8.42-1.78 15.64-6.33 22.32-3.14 4.61-6.58 9.07-10.28 13.25-18.52 20.94-16.41 48.95-4.52 69.08 1.18 2 2.65 3.88 4.25 5.57 10.14 10.74 20.31 21.46 30.6 32.05 2.17 2.23 2.6 5.22 1.26 6.93-1.25 1.59-4.64 2.5-6.81 2.13-2.82-.48-5.84-2.03-7.96-3.99-15.61-14.44-29.21-30.46-39.02-49.55-8.08-15.72-7.47-31.47-1.21-47.34 3.93-9.98 8.37-19.76 16.28-27.47 1.9-1.85 3.41-4.15 4.88-6.38 5.4-8.23 4.68-17.45-1.69-25.09-8.64-10.36-13.6-22.21-14.32-35.77-.25-4.36-.76-8.67-1.18-13.37z"/><path d="m134.79 41.12c12.19 0 24.38-.08 36.57.06 2.87.03 5.79.53 8.59 1.22 3.87.96 6.3 4.18 6.25 8.11-.01.84-.87 1.96-1.65 2.46-4.54 2.95-9.68 3.98-14.99 4.14-16.64.5-33.28 1.04-49.93 1.32-10.88.18-21.61-1.16-32.15-4.05-4.14-1.13-2.21-4.47-2.99-6.8-.76-2.25.96-2.68 2.56-3.44 5.26-2.5 10.71-3.37 16.55-3.21 10.39.28 20.8.08 31.2.08-.01.03-.01.07-.01.11z"/><path d="m281.23 25.06c6.05 1.07 9.32 4.27 8.51 9.9-1.01 7.12-2.7 14.25-5.15 21-.99 2.72-4.58 4.7-7.31 6.54-8.41 5.65-18.03 8.18-27.82 10.08-12.81 2.49-25.63 4.95-38.48 7.24-2.23.4-4.74.25-6.91-.38-1.78-.51-4.45-1.97-4.6-3.27-.35-2.9.07-5.82 3.86-7.46 12.92-5.58 26.62-8.22 40.18-11.47 8.46-2.02 16.87-4.24 25.25-6.58 1.24-.35 2.63-1.65 3.15-2.85 3.22-7.46 6.2-15.04 9.32-22.75z"/><path d="m215.92 121.01c-7.74.1-9.39-1.09-9.45-5.45-.04-2.75.69-4.62 3.96-5.52 18.51-5.12 36.95-10.5 55.39-15.86 6.04-1.76 9.66-5.93 10.61-12.1.77-5.06 2.06-9.76 5.42-13.82 1.64-1.97 3.18-2.01 5.23-1.01 3.46 1.7 5.51 4.93 4.54 9.17-1.61 7.06-3.76 14-5.85 20.93-.32 1.05-1.37 2.13-2.37 2.69-6.78 3.83-13.33 8.29-20.52 11.09-15.71 6.15-32.27 8.79-46.96 9.88z"/></g></svg>