<svg enable-background="new 0 0 400 400" viewBox="0 0 400 400" xmlns="http://www.w3.org/2000/svg"><g fill="#010103"><path d="m133.46 162.16c-4.29 2.27-9.13 2.97-11.96 7.35-1.04 1.61-1.26 2.74-.52 4.49 5.48 12.97 10.99 25.94 16.19 39.02 1.68 4.22 2.6 8.75 3.59 13.21.48 2.16.66 4.61-2.3 5.52-2.93.9-6.45-.41-7.7-2.92-6.31-12.59-12.59-25.2-18.89-37.8-.64-1.29-1.33-2.55-2.49-4.77-1.74 7.03-3.45 13.17-4.77 19.39-5.14 24.22-6.27 48.78-6.2 73.45.01 4.58-.21 9.17-.58 13.74-.31 3.92-2.44 5.98-5.68 6.38-2.89.36-4.92-.63-5.56-3.46-.83-3.69-1.87-7.44-1.91-11.17-.29-28.35.83-56.62 5.71-84.62.23-1.31.57-2.62 1.07-3.84 3.57-8.68 7.3-17.3 10.73-26.04.71-1.81 1-4.24.43-6.04-3.57-11.17-7.38-22.25-11.23-33.33-4.01-11.53-2.82-22.92.8-34.24.35-1.09 1.42-1.96 2.16-2.93 6.28-8.13 14.59-13.44 24.16-16.69 4.04-1.37 5.46-4.11 5.49-7.79.05-6.81-.04-13.63-.42-20.43-.47-8.35.94-16.99 4.27-23.44 6.25.86 10.2 4.47 10.24 10.75.03 6.11-1.2 12.21-1.54 18.33-.28 4.96-.06 9.94-.06 15.6 5.66-1.06 10.47-1.88 15.24-2.87 8.32-1.73 16.58-3.7 24.93-5.28 2.57-.49 5.37-.39 7.96.07 4.64.81 6.9 4.09 7.7 8.96-4.79 1.58-9.46 3.39-14.29 4.61-3.24.82-4.21 2.54-4.32 5.63-.34 9.83-.67 19.67-1.43 29.47-.47 5.98-1.44 11.97-2.7 17.84-1.49 6.95-5.7 12.24-11.34 16.51-3.3 2.49-6.4 5.25-9.54 7.94-1.81 1.55-2.07 3.28-1.19 5.67 3.84 10.41 9.93 19.47 16.41 28.35 5.99 8.2 9.63 17.46 8.34 27.62-.89 7-2.53 14.31-5.71 20.52-6.87 13.44-10.67 27.68-13.51 42.28-4.1 21.1-1.62 41.62 6.15 61.55 2.96 7.6 6.16 15.11 9.19 22.68 1.37 3.42.68 6.04-1.75 7.35-2.9 1.57-6.36.93-8.42-1.6-9.29-11.42-14.38-24.7-16.62-39.05-3.54-22.58-3.88-45.26-.6-67.9 1.25-8.64 5.24-16.38 9.8-23.72 4.59-7.39 7.79-15.12 7.26-23.98-.12-1.96-.41-4.09-1.28-5.8-7.42-14.53-15-28.99-22.54-43.47-.16-.29-.38-.54-.77-1.1zm-9.44-72.79c-5.35 3.07-9.63 5.67-14.05 8-2.26 1.19-3.5 2.86-4.32 5.2-4.1 11.67-3.22 23.34-.08 35 1.83 6.8 4.52 13.23 8.62 19.15 4.66-3.17 9.15-6.11 13.48-9.28.78-.57 1.34-2.15 1.21-3.16-.6-4.65-1.83-9.24-2.17-13.9-.5-6.91-.24-13.87-.67-20.79-.4-6.51-1.28-13-2.02-20.22zm33.67-9.1c-6.49 1.85-12.71 3.56-18.86 5.48-.67.21-1.4 1.61-1.39 2.45.14 11.06.3 22.12.7 33.18.23 6.22 1.2 12.35 4.39 18.19 2.77-2.17 5.21-4.31 7.89-6.1 2.49-1.66 4.01-3.81 4.54-6.69 1.35-7.35 2.93-14.67 3.9-22.06 1.04-7.98 1.26-16.03-1.17-24.45z"/><path d="m261.28 50.08c0 12.18.01 23.25-.01 34.32-.01 2.51 2.04 2.17 3.36 2.21 7.14.25 14.3.27 21.44.42 4.91.1 9.83.04 14.71.53 3.39.34 6.39 1.95 8.37 5 1.24 1.92 1.21 3.26-1.03 4.59-7.48 4.42-15.48 4.35-23.75 3.49-5.64-.58-11.37-.8-17.03-.57-4.16.17-5.59 2.53-3.79 6.43 2.23 4.84 4.55 9.97 8.1 13.81 13.54 14.62 19.13 32.34 22.47 51.44 3.84 21.95 4.04 44.1 5.21 66.21 1.18 22.35 2.44 44.71 3.04 67.09.42 15.65-.2 31.33-.39 47-.07 6.04-.37 12.08-.34 18.13.01 2.91-1.51 4.38-3.95 5.05-2.48.69-5.12.14-5.91-2.42-1.34-4.3-2.68-8.8-2.83-13.25-.58-17.11-.78-34.24-.93-51.36-.17-18.58.27-37.17-.29-55.73-.65-21.8-1.27-43.64-5.13-65.2-3.73-20.79-10.76-40.25-22.26-58.17-4.29-6.68-6.8-14.52-9.96-21.89-2.67-6.25-2.57-6.29-9.25-6.29-9.96 0-19.93.07-29.89-.05-2.35-.03-3.41.82-3.22 3.01.62 6.88 1.28 13.76 2.12 20.62.09.74 1.42 1.57 2.33 1.91 7.39 2.73 15.09 2.79 22.84 2.58 3.09-.08 6.27.2 9.26.92 1.82.44 3.68 1.76 4.96 3.18 3.31 3.67 2.79 5.58-1.58 7.77-8.9 4.47-18.23 3.98-27.57 2.1-5.24-1.05-10.39-2.64-15.48-4.29-1.38-.45-2.81-1.81-3.5-3.12-4.81-9.15-7.05-19.06-7.77-29.29-1.25-17.67-.32-35.1 6.17-51.88 1.52-3.92 3.64-6.76 7.64-8.63 8.28-3.88 16.77-7.18 25.86-7.81 17.73-1.24 35.5-1.93 53.25-2.68 3.7-.16 7.43.48 10.16 3.49 3.28 3.62 2.85 6.39-1.23 8.85-5.32 3.2-11.18 2.59-16.98 2.53-5.89-.1-11.78-.05-17.22-.05zm-53.49 36.1h39.53c-.59-12.44-1.15-24.26-1.74-36.72-7.92 1.31-15.6 2.07-23 3.96-6.48 1.66-11.8 5.26-12.24 13.13-.12 2.18-1.36 4.29-1.61 6.48-.48 4.47-.65 8.98-.94 13.15z"/><path d="m270.29 222.38c-.38 13.02-1.56 25.92-6.39 38.19-.48 1.21-1.11 2.5-2.03 3.38-17.4 16.78-39.77 18.22-60.18 6.37-3.24-4.9-7.09-9.51-9.58-14.76-4.46-9.42-4.87-19.66-4.19-29.93.81-12.2 2.51-24.25 6.18-35.95.54-1.71 1.62-3.44 2.91-4.68 11.27-10.86 25.15-12.76 39.93-11.29 3.55.35 7.12.8 10.57 1.65 10.03 2.48 14.7 10.3 18.27 19.03 3.67 8.97 4.52 18.42 4.51 27.99zm-67.7 10.43c.3 7.43.61 14.53 4.05 21.07 2.12 4.02 5.07 6.93 9.69 8.08 8.57 2.14 17.12 2.39 25.42-.68 3.26-1.2 7.27-2.97 8.81-5.69 3.64-6.41 5.78-13.57 4.31-21.25-.48-2.5-1.76-3.4-4.41-3.26-8.26.43-16.54.56-24.81.84-7.57.28-15.14.59-23.06.89zm1.14-15.96h51.11c0-3.04.27-5.94-.05-8.77-.8-7.14-2.93-13.8-9.96-17.18-9.21-4.43-18.89-5.63-28.56-1.69-5.49 2.24-9.97 5.61-10.29 12.61-.23 4.96-1.44 9.87-2.25 15.03z"/></g><path d="m377.9 391.2c-.2.3-.4.5-.6.8-.7-.6-1.4-1-2.2-1.5.2-.3.4-.5.5-.8.6.4 1.4.8 2.3 1.5zm-1.8 6.1c-.2-.2-.5-.4-.9-.6.4-.6.8-1.2 1.2-1.9s.7-1.3.9-1.9c.3.3.5.5.8.7-.7 1.3-1.4 2.6-2 3.7zm2.2-9c-.3.3-.5.5-.6.8-.6-.6-1.3-1.1-2-1.5.3-.3.5-.5.6-.7.6.5 1.3.9 2 1.4zm.3.2v-.9h2 4.5c-.3 1.3-.6 2.5-1 3.6s-.9 2.1-1.4 3c.4.5 1 1 1.6 1.4s1.2.8 1.9 1.1c-.3.2-.5.4-.8.8-.4-.3-1-.7-1.6-1.2s-1.2-1.1-1.6-1.6c-.5.6-1.1 1.1-1.7 1.6s-1.4.9-2.1 1.4c-.1-.3-.3-.5-.7-.8.6-.2 1.2-.5 1.9-1s1.4-1.1 2-1.8c-.5-.8-.9-1.6-1.2-2.5s-.6-2-.8-3.2c-.4.1-.7.1-1 .1zm2.5 2.7c.3 1 .7 1.7 1 2.2.3-.5.6-1.1 1-2s.6-1.9.9-3h-3.2-.4c.1.9.3 1.8.7 2.8z" fill="#fcfbfa"/><path d="m396.5 388.5v1.5 3.6h1.5v.9c-.4 0-1 0-1.7 0h-7.9c-.5 0-.9 0-1.2 0v-.9h1.3v-3.5c0-.7 0-1.2 0-1.6h2.4c0-.8 0-1.4 0-1.7h1c0 .3-.1.8-.1 1.7h1.5c0-.8 0-1.4 0-1.7h1c0 .3-.1.9-.1 1.7zm-8.2 9.2c-.2-.3-.5-.5-.8-.8.8-.3 1.4-.6 1.9-.9s1-.7 1.4-1.1c.3.3.6.5.9.8-1.6 1-2.8 1.6-3.4 2zm2.6-6.8v-1.6h-1.5v1.6zm0 2.7v-1.9h-1.5v1.9zm2.4-2.7v-1.6h-1.5v1.6zm0 2.7v-1.9h-1.5v1.9zm.2 2 .7-.8c.4.2.9.5 1.6.8s1.3.7 1.8 1c-.3.3-.5.5-.8.8-.4-.3-1.5-1-3.3-1.8zm2-4.7v-1.6h-1.4v1.6zm0 2.7v-1.9h-1.4v1.9z" fill="#fcfbfa"/></svg>