<svg enable-background="new 0 0 400 400" viewBox="0 0 400 400" xmlns="http://www.w3.org/2000/svg"><g fill="#010103"><path d="m223.53 288.92c-1.83 9.55-3.63 19.08-5.48 28.6-3.27 16.9-6.47 33.8-9.88 50.67-1.05 5.21-3.62 7.04-8.27 7.09-2.02.02-3.01-.78-3.64-2.65-1.93-5.72-1.98-11.58-.27-17.2 7.69-25.3 10.44-51.44 13.45-77.54 3.33-28.86 3.78-57.81 2.56-86.81-.02-.42-.14-.84-.21-1.21-7.14 0-14.14.03-21.13-.01-3.44-.02-6.98.27-10.29-.42-4.35-.91-6.3-6.03-4.16-9.93.39-.71 1.49-1.21 2.36-1.44 9.19-2.45 18.57-2.36 27.99-2.23 11.82.16 23.64.04 35.62.04 0-7.13 0-13.46 0-20.54-6.93 0-13.71 0-20.5 0-5.91 0-11.86.4-17.73-.13-5.8-.52-8.66-3.92-8.45-8.54.08-1.86.67-3.13 2.81-3.33 5.78-.55 11.54-1.5 17.33-1.75 8.26-.37 16.55-.27 24.83-.38.2 0 .4-.16.94-.38.29-5.17.67-10.5.8-15.83.02-.76-1.03-2.02-1.82-2.25-3.3-.96-6.68-1.68-10.06-2.34-1.3-.25-2.69-.03-4.02-.16-11.8-1.2-16.72-5.13-19.55-14.79-1.94-6.6-3.16-13.51-3.77-20.37-.97-10.93-1.05-21.93 1.78-32.68.41-1.58.08-4.1 3.03-4.03 2.62.06 5.53-.7 6.35 3.08.75 3.44 2.12 6.84 2.24 10.29.25 7.26-.34 14.54-.21 21.81.08 4.67.55 9.38 1.35 13.98.97 5.61 4.56 9.26 10.19 10.22 4.36.74 8.83.76 13.59 1.12.09-1.7.19-2.78.2-3.87.25-21.93.53-43.86.7-65.79.04-5.15 1.48-9.65 4.88-13.49 4.57 1.42 7.07 4.54 7.21 9.32.13 4.58.02 9.17.02 13.76v54.73c0 3.96 1.29 5.28 5.34 5.5 10.1.54 17.27-5.38 18.7-15.93.59-4.39.4-8.9.42-13.36.03-7.27-.24-14.54-.02-21.81.11-3.77 1.4-7.32 5.28-9.08 3.38-1.53 4.87-.8 5.83 2.68 4.56 16.5 3.62 32.98-.19 49.44-.18.76-.35 1.52-.54 2.28-2.66 10.68-10.51 16.8-21.62 17.13-3.87.11-7.73.69-11.72 1.07-.51 6.6-.97 12.7-1.48 19.33 4.31.25 8.38.58 12.46.69 6.04.17 12.09.03 18.12.32 2.98.14 6 .71 8.86 1.57 1.59.48 3.19 1.73 4.24 3.07 2.27 2.9 1.69 5.14-1.77 6.33-3.09 1.06-6.39 2-9.63 2.08-10.16.26-20.33.1-30.8.1-.5 6.82-.98 13.37-1.5 20.59 5.13 0 10.1-.05 15.07.01 11.63.15 23.27.29 34.89.61 2.88.08 5.8.59 8.59 1.33 1.51.4 3.11 1.42 4.12 2.63 2.64 3.18 1.96 5.42-1.72 7.21-5.66 2.76-11.71 2.49-17.75 2.45-5.55-.04-11.1-.01-16.95-.01 0 9.63-.19 18.34.04 27.03.53 20.02 1.09 40.04 1.96 60.04.74 17.06 5.06 33.57 8.42 50.22 2.21 10.96 4.6 21.88 6.6 32.87.65 3.58.45 7.34.44 11.02 0 2.6-1.56 4.23-4.09 4.52-2.45.28-4.68.25-6.19-2.62-5.48-10.47-7.81-21.82-9.86-33.28-2.87-16.07-5.81-32.12-8.64-48.19-.31-1.78-.72-2.82-2.84-2.81-13.77.08-27.54.05-41.3.07-.46.02-.89.16-1.56.28zm45.16-14.43c-1.22-16.6-2.39-32.48-3.55-48.29-12.97 0-25.42 0-38.11 0-.58 16.3-1.15 32.34-1.72 48.29zm-2.28-84.59c-13.03 0-25.57 0-38.31 0-.34 7.54-.68 14.85-1 21.95h39.32c-.01-7.63-.01-14.72-.01-21.95z"/><path d="m125.37 161.7c-4.2 3.22-7.94 6.09-11.67 8.97-1.91 1.47-1.42 3.1-.49 4.97 6.34 12.82 12.74 25.61 18.77 38.58 1.43 3.08 1.87 6.76 2.13 10.21.17 2.19-1.36 4.12-3.88 4.32-2.43.19-4.46-.4-5.84-2.91-6.74-12.24-13.63-24.4-20.48-36.58-.59-1.04-1.22-2.06-1.83-3.09-.38-.08-.75-.16-1.13-.24-2.17 6-5.11 11.84-6.33 18.02-1.96 9.94-3.4 20.08-3.94 30.19-.74 13.84-.38 27.73-.64 41.6-.08 4.12-.49 8.26-1.02 12.35-.38 2.92-2.13 4.91-5.22 5.31-2.9.38-5.29-.8-6.14-3.5-1.15-3.66-2.46-7.54-2.34-11.28.49-15.65 1.35-31.29 2.33-46.92 1.32-20.95 5.81-41.13 15.39-59.97 1.55-3.05.46-5.82-.64-8.69-4.22-10.94-8.7-21.79-12.41-32.9-3.2-9.59-3.91-19.49 2.2-28.38 2.54-3.7 5.68-7.4 9.4-9.77 7.03-4.48 14.69-7.95 22.02-11.98.83-.46 1.7-1.77 1.69-2.68-.06-6.7-.24-13.41-.58-20.1-.41-7.94.17-15.62 4.15-22.76 1.11-1.99 2.27-2.3 4.29-1.46 4.77 1.98 6.74 5.84 6.87 10.59.19 6.82-.05 13.64-.09 20.47-.02 3.89 0 7.78 0 11.76 7.96.73 14.76-1.08 21.54-2.91 6.36-1.72 12.6-3.93 19.03-5.26 8.38-1.74 13.65 1.78 14.98 9.47-5.03 1.68-10.08 3.44-15.18 5.02-1.89.58-2.53 1.56-2.74 3.53-1.71 16.24-3.5 32.47-5.47 48.68-.22 1.84-1.36 3.87-2.69 5.21-3.37 3.4-7.04 6.52-10.67 9.65-2.86 2.47-5.86 4.78-9.32 7.59 6.12 9.57 12.14 18.8 17.96 28.15 3.16 5.09 6.54 10.15 8.84 15.64 3.57 8.51.55 16.74-2.84 24.63-2.82 6.56-5.44 13.32-9.18 19.36-7.49 12.1-9.53 25.32-10 39.13-.39 11.62 3.33 22.49 5.55 33.64.28 1.42.77 2.81 1.01 4.24 1.29 7.67 3.98 14.73 7.86 21.54 2.06 3.62 2.57 8.18 3.53 12.37.43 1.88-.68 2.72-2.65 3.42-4.56 1.63-7.21.12-9.98-3.61-10.03-13.52-15.37-28.68-16.74-45.31-1.6-19.49-.9-38.92 2.75-58.16 1.27-6.7 4.79-12.49 8.89-17.86 3.54-4.64 6.95-9.27 8.42-15.1 2.23-8.88-.73-16.73-5.21-23.9-6.84-10.99-14.36-21.57-22.26-33.29zm-19.57-3.4c5.26-3.3 10.12-6.23 14.81-9.43.72-.49 1.04-2.27.83-3.31-2.93-14.37-4.98-28.81-4.15-43.54.07-1.33.1-2.7-.09-4.02-.51-3.67-2.73-4.67-5.76-2.68-4.39 2.89-8.61 6.06-13.18 8.6-3.59 2-5.3 4.78-5.9 8.66-2.68 17.33 5.42 31.33 13.44 45.72zm23.88-67.56c2.77 10.84 1.46 21.44 1.35 32.04-.07 6.38 1.44 12.6 4.84 18.5 3.81-2.9 7.62-5.63 11.21-8.63 1.16-.97 2.34-2.61 2.47-4.03 1.02-11 1.9-22.01 2.54-33.03.13-2.24-.66-4.67-1.56-6.79-.4-.94-2.25-2.02-3.23-1.85-5.69 1.03-11.33 2.41-17.62 3.79z"/><path d="m246.5 235.76c9.45.67 14.78 6.27 14.26 14.97-.35 5.88-6.75 10.47-13.8 9.88-8.93-.74-13.34-5.17-12.78-12.85.52-7.25 5.86-12.46 12.32-12z"/></g><path d="m377.9 391.2c-.2.3-.4.5-.6.8-.7-.6-1.4-1-2.2-1.5.2-.3.4-.5.5-.8.6.4 1.4.8 2.3 1.5zm-1.8 6.1c-.2-.2-.5-.4-.9-.6.4-.6.8-1.2 1.2-1.9s.7-1.3.9-1.9c.3.3.5.5.8.7-.7 1.3-1.4 2.6-2 3.7zm2.2-9c-.3.3-.5.5-.6.8-.6-.6-1.3-1.1-2-1.5.3-.3.5-.5.6-.7.6.5 1.3.9 2 1.4zm.3.2v-.9h2 4.5c-.3 1.3-.6 2.5-1 3.6s-.9 2.1-1.4 3c.4.5 1 1 1.6 1.4s1.2.8 1.9 1.1c-.3.2-.5.4-.8.8-.4-.3-1-.7-1.6-1.2s-1.2-1.1-1.6-1.6c-.5.6-1.1 1.1-1.7 1.6s-1.4.9-2.1 1.4c-.1-.3-.3-.5-.7-.8.6-.2 1.2-.5 1.9-1s1.4-1.1 2-1.8c-.5-.8-.9-1.6-1.2-2.5s-.6-2-.8-3.2c-.4.1-.7.1-1 .1zm2.5 2.7c.3 1 .7 1.7 1 2.2.3-.5.6-1.1 1-2s.6-1.9.9-3h-3.2-.4c.1.9.3 1.8.7 2.8z" fill="#fcfbfa"/><path d="m396.5 388.5v1.5 3.6h1.5v.9c-.4 0-1 0-1.7 0h-7.9c-.5 0-.9 0-1.2 0v-.9h1.3v-3.5c0-.7 0-1.2 0-1.6h2.4c0-.8 0-1.4 0-1.7h1c0 .3-.1.8-.1 1.7h1.5c0-.8 0-1.4 0-1.7h1c0 .3-.1.9-.1 1.7zm-8.2 9.2c-.2-.3-.5-.5-.8-.8.8-.3 1.4-.6 1.9-.9s1-.7 1.4-1.1c.3.3.6.5.9.8-1.6 1-2.8 1.6-3.4 2zm2.6-6.8v-1.6h-1.5v1.6zm0 2.7v-1.9h-1.5v1.9zm2.4-2.7v-1.6h-1.5v1.6zm0 2.7v-1.9h-1.5v1.9zm.2 2 .7-.8c.4.2.9.5 1.6.8s1.3.7 1.8 1c-.3.3-.5.5-.8.8-.4-.3-1.5-1-3.3-1.8zm2-4.7v-1.6h-1.4v1.6zm0 2.7v-1.9h-1.4v1.9z" fill="#fcfbfa"/></svg>