<svg enable-background="new 0 0 400 400" viewBox="0 0 400 400" xmlns="http://www.w3.org/2000/svg"><g fill="#010103"><path d="m250.11 298.56c-7.13-2.96-13.95-5.46-20.48-8.59-7.74-3.7-15.28-7.83-22.78-12-1.94-1.08-3.35-1.3-5.12.05-6.19 4.76-12.44 9.45-18.91 14.35 2.28 3.28 4.33 6.16 6.31 9.1 3 4.45 6.11 8.84 8.84 13.45 1.15 1.94 1.84 4.34 2.08 6.6.35 3.35-1.53 6.54-4.49 7.01-2.31.37-5.82-1.17-7.41-3.03-5-5.86-9.35-12.28-13.96-18.47-.66-.89-1.36-1.76-2.37-3.05-.76 1.23-1.43 2.18-1.98 3.2-5.9 10.79-11.72 21.63-17.73 32.35-.92 1.64-2.52 3.2-4.19 4.05-3.46 1.77-6.62.14-7.8-3.58-1.53-4.77-.71-9.32 1.59-13.61 5.99-11.21 11.24-22.92 20.64-31.92 1.8-1.73 1.83-3.23.82-5.54-4.11-9.4-8.29-18.8-11.65-28.47-1.37-3.94-1.31-8.64-.86-12.89 1.15-10.82 8.93-16.64 17.97-20.25 8.02-3.2 16.6-5.13 25.07-6.97 3.73-.81 4.72-2.6 4.87-5.83.14-3.12.4-6.23.64-9.35.04-.55.1-1.16.37-1.62 1.05-1.81 1.86-4.65 3.36-5.1 2.91-.87 7.3 2.87 7.78 6.06.33 2.18.08 4.45.07 6.68-.02 5.35 1.53 6.7 6.83 6.46 18.32-.85 36.64-1.68 54.96-2.37 3.55-.13 7.17.15 10.68.73 1.98.33 4.18 1.24 5.61 2.6 3.28 3.13 2.47 6.51-1.78 7.83-3.18.99-6.51 1.64-9.83 2.04-3.31.4-4.94 2.06-5.43 5.24-.58 3.76-1.16 7.52-1.96 11.23-1.51 7.02-5.19 12.05-12.45 14.36-10.22 3.25-20.29 6.96-30.42 10.49-1.13.39-2.23.86-3.98 1.54 6.28 2.68 12.01 5.13 17.74 7.57 4.83 2.06 9.76 3.92 14.48 6.2 10.73 5.2 12.49 16.86 4.24 25.59-3.44 3.64-6.5 7.67-9.4 11.76-2.44 3.44-2.93 7.45-1.72 11.56 2.16 7.34 5.28 13.93 12.42 17.92 5.85 3.27 11.63 6.72 17.16 10.5 2.7 1.84 4.86 4.53 7.06 7.01 1.14 1.28.73 2.58-.82 3.59-3.55 2.31-7.45 3.61-11.48 2.21-14.1-4.91-26.82-11.74-34.31-25.63-6.21-11.53-4.67-22.97-.56-34.71 2.34-6.66 7.42-10.99 12.28-16.35zm-75.52-18.56c7.92-5.54 15.61-10.87 23.2-16.34.68-.49 1.08-1.89 1.01-2.82-.51-7.25-1.11-14.49-1.78-21.72-.4-4.38-2.07-5.79-6.38-5.1-6.79 1.09-13.23 3.32-18.94 7.21-2.51 1.71-5.06 3.38-5.66 7.02-1.94 11.84 2.2 21.88 8.55 31.75zm39.1-23.63c.54.24.65.33.75.32 1.55-.2 3.1-.37 4.63-.62 12.27-2.06 24.35-4.7 35.03-11.56.83-.53 1.89-1.08 2.25-1.88 1.41-3.09 3.76-6.25 2.06-9.77-1.55-3.22-5.19-2.92-8.04-2.9-8.02.04-16.04.47-24.05.91-4.98.27-9.95.82-15.27 1.28.91 8.3 1.78 16.26 2.64 24.22z"/><path d="m138.49 101.93c.23-.75.39-1.05.41-1.37.18-3.35 1.63-7.55.14-9.79-1.41-2.11-5.89-2.3-9.08-3.08-14.19-3.47-19.73-9.78-20.67-24.68-.39-6.21-.09-12.5.39-18.72.31-4.02 4.81-6.1 8.31-4.1 1.09.62 2.19 2.03 2.41 3.24 1.14 6.27 2.27 12.56 2.89 18.89.78 8.12 4.78 12.34 12.91 13.1 2.15.2 3.21-.42 3.26-2.55.19-8.47.49-16.94.47-25.41-.02-7.21 1.71-13.88 4.94-20.18 5.65.47 8.78 6.22 8.78 11.18-.01 9.51-.29 19.01-.47 28.52-.01.67-.09 1.34-.12 2.01-.22 5.94 1.02 6.52 6.73 5.81 6.4-.8 9.01-4.2 9.56-10.13.47-5.01 1.1-10 1.73-14.99.7-5.52 3.22-8.59 7.46-9.61 1.86-.45 2.92.09 3.81 1.72 2.93 5.39 4.27 11.11 3.19 17.16-.76 4.28-2.21 8.43-3.16 12.67-2.35 10.54-10.4 13.96-19.65 15.91-6.21 1.3-8.68 4.09-9.26 10.11-.19 1.96.39 2.84 2.26 3.29 7.35 1.77 14.35.22 21.46-1.67 6.23-1.65 9.46-5.23 10.01-11.56.34-3.9.96-7.77 1.41-11.66.72-6.2 3.01-9.25 7.82-9.73 1.09-.11 2.85.71 3.36 1.63 10.12 17.92-.13 41.22-20.13 45.21-8.28 1.65-16.78 2.19-25.76 3.31-.14 2.62-.48 5.93-.37 9.22.02.74 1.52 1.69 2.51 2.1 8.45 3.43 16.41 7.68 23.29 13.74 8.41 7.42 13.93 16.85 18.31 26.98.82 1.89.6 4.37.37 6.52-.2 1.83-.86 3.57-3.36 3.94-2.42.35-4.29.7-6.05-1.8-5.28-7.5-10.78-14.85-16.36-22.13-4.6-6-10.67-10.01-18.25-12.66-.14 2.13-.36 3.98-.38 5.82-.05 7.16.06 14.33-.1 21.49-.05 2.31-.47 4.69-1.21 6.88-1.34 3.97-4.69 5.57-8.57 4.09-.89-.34-1.76-1.92-1.85-2.99-.88-10.7-1.59-21.42-2.34-32.13-.06-.88-.01-1.77-.01-3.26-5.23 2.2-10.79 2.33-14.54 7.11-5.7 7.28-12.63 13.64-16.11 22.54-.35.9-1.72 1.52-2.74 1.99-.77.35-1.76.23-2.64.36-5.34.77-7.2-1.07-6.16-6.5.41-2.15 1.36-4.25 2.36-6.22 2.22-4.39 4.56-8.71 6.98-12.99.64-1.13 1.61-2.15 2.63-2.96 6.39-5.09 12.75-10.22 19.32-15.08 1.9-1.41 4.38-2.13 6.68-2.9 1.75-.59 2.87-1.27 3.01-3.38.16-2.43.8-4.82 1.31-7.69-6.69-.98-13.17-1.99-19.66-2.84-4.66-.61-9.34-1.08-14.01-1.49-8.37-.74-13-5.82-15.48-13.31-2.88-8.69-3.15-17.53-1.12-26.45.1-.44.16-.88.29-1.31.43-1.43.53-3.75 1.41-4.11 1.87-.76 4.16-.64 6.26-.56.58.02 1.42 1.12 1.62 1.86.86 3.21 1.68 6.45 2.19 9.73.31 1.96-.07 4.02 0 6.03.3 9.69 6.09 15.95 15.76 16.72 7.12.57 14.27.75 21.6 1.11z"/><path d="m272.79 153.58c-8.26 2.57-15.89 5.59-23.81 7.25-7.94 1.67-16.16 2.19-24.28 2.78-2.66.19-5.8-.36-8.03-1.71-2.02-1.22-3.4-3.85-4.49-6.13-.86-1.78.19-3.26 2.18-4.15 6.7-2.99 13.78-3.68 20.98-3.67 9.49.01 18.75-1.06 27.36-5.43.6-.3 1.19-.61 1.76-.96.17-.1.26-.35.46-.65-7.4-4.66-15.5-5.52-24.03-5.42-9.25.11-18.53-.39-27.76-1.09-3.43-.26-7.24-1.1-8.14-5.65-.49-2.45-.01-4.37 2.64-4.83 6.69-1.16 13.42-3.04 20.12-2.98 10.24.09 20.51 1.32 30.7 2.55 6.11.74 12.14 2.37 16.05 7.87 4.23-4.33 6.47-16.23 4.03-21.05-.39-.77-1.43-1.33-2.29-1.73-8.49-4.04-17.63-4.8-26.83-4.95-9.73-.17-19.48.05-29.21-.1-2.28-.04-4.66-.61-6.79-1.46-2.87-1.14-3.55-3.7-3.39-6.66.17-3.01 2.67-2.73 4.41-3.11 3.92-.87 7.91-1.63 11.91-1.92 3.55-.26 4.34-1.84 4.24-5.13-.42-13.42-1.02-26.87-.67-40.28.15-5.77 2.42-11.49 3.76-17.23.55-2.37 2.05-2.47 4.07-1.77 5.1 1.77 7.49 5.56 7.05 11.18-.26 3.34-.57 6.7-.47 10.04.15 5 1.79 6.69 6.65 6.65 9.17-.08 18.33-.49 27.5-.59 2.42-.03 4.93.34 7.25 1.03 1.63.48 3.28 1.57 4.43 2.83 3.2 3.5 2.4 6.58-1.94 8.21-8.06 3.03-16.27 1.79-24.53 1.06-5.18-.46-10.44-.06-15.66.13-.74.03-2.02.97-2.08 1.59-.67 6.99-1.16 13.99-1.72 21.35 11.33 1.78 22.31 3.84 33.38 5.17 11.26 1.35 14.95 8 15.7 17.89.48 6.33-.21 12.47-3.18 18.27-1.63 3.17-2.44 6.77-4.18 9.87-2.6 4.61-2 8.65.52 13.06 5.1 8.93 9.99 17.98 14.74 27.1 2.98 5.71 4.67 11.82 4.46 18.39-.07 2.15-1 3.01-2.89 3.32-2.09.35-4.34 2.81-6.21-.26-3.18-5.23-6.67-10.33-9.27-15.84-5.13-10.9-9.76-22.04-14.5-32.84z"/><path d="m123.25 306.38c0 16.67.05 33.35-.05 50.02-.02 2.87-.34 5.85-1.14 8.59-1.35 4.62-5.41 6.72-10.02 5.4-.86-.25-1.92-1.57-2.01-2.48-.83-8.32-2.04-16.66-2.06-25-.06-24.29.26-48.59.65-72.88.31-18.96 2.03-37.77 8.04-55.93.25-.74.57-1.47.73-2.23 2.91-13.66 13.5-19.18 25.08-23.56 12.15-4.59 24.96-5.12 37.69-5.37 27.08-.52 54.17-.66 81.25-.8 3.64-.02 7.34.64 10.89 1.5 1.54.37 3.14 1.79 4.04 3.17 1.86 2.84 1.38 5.33-1.72 6.54-4.2 1.64-8.69 3.32-13.11 3.46-20.33.61-40.69.43-61.03 1.02-15.74.46-31.48 1.35-47.18 2.63-5.12.42-10.32 2.13-15.06 4.23-7.07 3.13-8.97 10.17-10.74 16.93-.76 2.9-1.05 5.95-1.33 8.95-2.18 23.2-2.71 46.46-2.94 69.74.01 2.04.02 4.06.02 6.07z"/></g><path d="m377.9 391.2c-.2.3-.4.5-.6.8-.7-.6-1.4-1-2.2-1.5.2-.3.4-.5.5-.8.6.4 1.4.8 2.3 1.5zm-1.8 6.1c-.2-.2-.5-.4-.9-.6.4-.6.8-1.2 1.2-1.9s.7-1.3.9-1.9c.3.3.5.5.8.7-.7 1.3-1.4 2.6-2 3.7zm2.2-9c-.3.3-.5.5-.6.8-.6-.6-1.3-1.1-2-1.5.3-.3.5-.5.6-.7.6.5 1.3.9 2 1.4zm.3.2v-.9h2 4.5c-.3 1.3-.6 2.5-1 3.6s-.9 2.1-1.4 3c.4.5 1 1 1.6 1.4s1.2.8 1.9 1.1c-.3.2-.5.4-.8.8-.4-.3-1-.7-1.6-1.2s-1.2-1.1-1.6-1.6c-.5.6-1.1 1.1-1.7 1.6s-1.4.9-2.1 1.4c-.1-.3-.3-.5-.7-.8.6-.2 1.2-.5 1.9-1s1.4-1.1 2-1.8c-.5-.8-.9-1.6-1.2-2.5s-.6-2-.8-3.2c-.4.1-.7.1-1 .1zm2.5 2.7c.3 1 .7 1.7 1 2.2.3-.5.6-1.1 1-2s.6-1.9.9-3h-3.2-.4c.1.9.3 1.8.7 2.8z" fill="#fcfbfa"/><path d="m396.5 388.5v1.5 3.6h1.5v.9c-.4 0-1 0-1.7 0h-7.9c-.5 0-.9 0-1.2 0v-.9h1.3v-3.5c0-.7 0-1.2 0-1.6h2.4c0-.8 0-1.4 0-1.7h1c0 .3-.1.8-.1 1.7h1.5c0-.8 0-1.4 0-1.7h1c0 .3-.1.9-.1 1.7zm-8.2 9.2c-.2-.3-.5-.5-.8-.8.8-.3 1.4-.6 1.9-.9s1-.7 1.4-1.1c.3.3.6.5.9.8-1.6 1-2.8 1.6-3.4 2zm2.6-6.8v-1.6h-1.5v1.6zm0 2.7v-1.9h-1.5v1.9zm2.4-2.7v-1.6h-1.5v1.6zm0 2.7v-1.9h-1.5v1.9zm.2 2 .7-.8c.4.2.9.5 1.6.8s1.3.7 1.8 1c-.3.3-.5.5-.8.8-.4-.3-1.5-1-3.3-1.8zm2-4.7v-1.6h-1.4v1.6zm0 2.7v-1.9h-1.4v1.9z" fill="#fcfbfa"/></svg>