<svg enable-background="new 0 0 400 400" viewBox="0 0 400 400" xmlns="http://www.w3.org/2000/svg"><g fill="#010103"><path d="m299.61 369.2c-8.13 5.14-16.93 6.7-25.96 6.08-27.5-1.88-55.02-1.6-82.54-1.43-24.95.15-49.89.94-74.83.91-6.6-.01-13.19-2-19.79-3.02-2.09-.33-2.76-1.54-2.66-3.5.05-1 .04-2.04-.17-3.01-.45-2.02.39-2.94 2.23-3.74 7.51-3.26 15.38-3.55 23.37-3.33 12.3.34 24.6.58 36.9.86 1.22.03 2.43 0 4.04 0 .71-34.77 1.42-69.3 2.14-104.16-5.86-1.56-11.59-3.41-17.46-4.58-18.28-3.66-29.96-14.57-35.98-31.95-6.31-18.22-9.35-36.82-6.41-56.08.28-1.85.57-3.89 1.55-5.4 2.86-4.44 9.12-3.93 11.33 1.1 1.26 2.88 1.78 6.23 1.97 9.41.6 10.05.54 20.15 1.4 30.17 1.13 13.31 5.81 24.98 17.46 32.86 6.85 4.63 14.78 5.72 22.62 6.68 12.75 1.55 25.55 2.94 38.37 3.68 20.52 1.18 40.63-1.28 59.93-8.8 1.2-.47 2.34-1.29 3.26-2.21 10-10.06 14.81-22.52 16.06-36.37.82-9.01.86-18.09 1.4-27.12.15-2.43.61-4.91 1.4-7.21.51-1.48 1.62-3.01 2.88-3.93 3.8-2.75 6.04-2 7.78 2.29 2.96 7.27 4.01 14.92 3.84 22.67-.27 11.79-2.5 23.28-5.48 34.7-4.02 15.43-14.37 24.97-27.8 32.18-7.72 4.14-16.28 4.61-24.56 6.27-2.16.43-2.98 1.08-3.02 3.35-.6 33.12-1.28 66.25-1.94 99.37-.01.55 0 1.1 0 2.31 5.38.34 10.68.95 15.97.93 9.05-.04 18.11-.54 27.16-.73 6.62-.14 13.23.04 19.33 3.1 3.12 1.56 5.46 3.82 6.21 7.65zm-82.31-11.14c-.36-34-.72-67.6-1.08-101.49-13.22-.6-26-1.18-38.9-1.76v104.28c13.31-.34 26.36-.67 39.98-1.03z"/><path d="m206.89 107.85v30.22c6.5 2.36 13.35 2.68 20.02 1.53 7.67-1.32 15.17-3.67 22.71-5.71 11.56-3.13 17.19-11.89 19.39-22.64 1.81-8.82 1.85-18 2.83-27.01.25-2.29.9-4.6 1.74-6.75 1.04-2.67 3.3-3.72 6.15-3.81 2.87-.1 4.03 1.61 5.1 3.91 3.23 6.94 4.08 14.29 2.9 21.65-1.1 6.81-3.11 13.48-4.99 20.14-3.98 14.02-15.03 21.41-26.83 27.98-9.41 5.24-19.73 6.03-30.22 6.12-4.56.04-9.16.41-13.66 1.16-4.69.78-5.47 1.82-5.37 6.43.23 11.41.89 22.81.9 34.22.01 5.86-.65 11.78-1.66 17.56-.64 3.67-3.38 6.17-7.19 7.25-2.21.63-3.39.22-4.19-2.17-3.08-9.13-2.85-18.46-2.3-27.89.55-9.47 1.05-18.96 1-28.43-.03-5.46-.58-5.48-6.04-6.19-11.31-1.47-22.64-2.84-33.92-4.5-17.5-2.58-29.78-12.04-36.28-28.59-5.5-14-6.82-28.35-3.32-43.13.76-3.19 2.14-4.59 5.31-4.5 1.32.04 2.65-.21 4.09-.33 3.01 5.2 4.19 10.78 4.43 16.67.25 6.36.2 12.79 1.14 19.07 1.99 13.37 9.97 22.16 22.82 25.78 12.78 3.6 25.98 4.14 39.61 3.35.35-10.5.69-20.85 1.06-31.97-7.64-1.02-15.02-2.03-22.4-3-12.6-1.65-23.6-6.38-30.93-17.24-7.23-10.71-6.24-22.35-3.22-34.24 3.05-12 11.94-17.91 22.49-21.42 29.49-9.81 58.72-8.95 87.32 3.74 10.85 4.81 16.43 13.36 17.18 25.14.52 8.16-.9 16.05-3.32 23.79-.35 1.11-1.13 2.16-1.93 3.04-10.55 11.66-23.69 18.01-39.38 19.22-3.66.27-7.27 1-11.04 1.55zm-13.68-68.08c-.04.25-.07.51-.11.76-2.46 0-4.92-.04-7.39.01-10.86.2-20.98 3.11-30.17 8.81-2.21 1.37-4.12 3.75-5.32 6.1-2.35 4.58-2.84 9.68-1.87 14.74 1.28 6.65 4.35 11.92 10.97 14.97 14.15 6.52 28.97 8.87 44.4 8.06 12.6-.66 24.28-4 35.24-10.57 7.2-4.31 9.16-10.49 9.19-17.95.04-8.47-3.87-14.52-11.76-17.81-1.85-.77-3.77-1.52-5.73-1.81-12.46-1.84-24.96-3.55-37.45-5.31z"/><path d="m270.21 299.68c0 9.28.05 18.55-.03 27.83-.03 3.2-2.55 5.9-5.41 6.16-3.42.31-5.84-1.43-6.72-4.83-3.71-14.26-3.83-28.77-2.72-43.31.5-6.56 1.55-13.09 2.42-19.62.43-3.2 2.93-6.31 4.96-6.38 3.49-.13 7.23 2.21 7.66 5.76.76 6.28.97 12.64 1.19 18.98.18 5.13.04 10.28.04 15.42-.45-.01-.92-.01-1.39-.01z"/><path d="m138 300.57c0 9.38-.03 18.76.02 28.15.02 3.26-2.25 4.4-4.71 4.52-2.35.11-5.43.44-6.14-3.1-4.18-21.1-5.62-42.26-1.13-63.52.27-1.29.68-2.64 1.38-3.73 2.85-4.46 8.52-4.21 10.61.83 1.36 3.28 1.88 7.13 1.87 10.72-.03 8.71-.6 17.42-.95 26.13-.32 0-.64 0-.95 0z"/></g><path d="m377.9 391.2c-.2.3-.4.5-.6.8-.7-.6-1.4-1-2.2-1.5.2-.3.4-.5.5-.8.6.4 1.4.8 2.3 1.5zm-1.8 6.1c-.2-.2-.5-.4-.9-.6.4-.6.8-1.2 1.2-1.9s.7-1.3.9-1.9c.3.3.5.5.8.7-.7 1.3-1.4 2.6-2 3.7zm2.2-9c-.3.3-.5.5-.6.8-.6-.6-1.3-1.1-2-1.5.3-.3.5-.5.6-.7.6.5 1.3.9 2 1.4zm.3.2v-.9h2 4.5c-.3 1.3-.6 2.5-1 3.6s-.9 2.1-1.4 3c.4.5 1 1 1.6 1.4s1.2.8 1.9 1.1c-.3.2-.5.4-.8.8-.4-.3-1-.7-1.6-1.2s-1.2-1.1-1.6-1.6c-.5.6-1.1 1.1-1.7 1.6s-1.4.9-2.1 1.4c-.1-.3-.3-.5-.7-.8.6-.2 1.2-.5 1.9-1s1.4-1.1 2-1.8c-.5-.8-.9-1.6-1.2-2.5s-.6-2-.8-3.2c-.4.1-.7.1-1 .1zm2.5 2.7c.3 1 .7 1.7 1 2.2.3-.5.6-1.1 1-2s.6-1.9.9-3h-3.2-.4c.1.9.3 1.8.7 2.8z" fill="#fcfbfa"/><path d="m396.5 388.5v1.5 3.6h1.5v.9c-.4 0-1 0-1.7 0h-7.9c-.5 0-.9 0-1.2 0v-.9h1.3v-3.5c0-.7 0-1.2 0-1.6h2.4c0-.8 0-1.4 0-1.7h1c0 .3-.1.8-.1 1.7h1.5c0-.8 0-1.4 0-1.7h1c0 .3-.1.9-.1 1.7zm-8.2 9.2c-.2-.3-.5-.5-.8-.8.8-.3 1.4-.6 1.9-.9s1-.7 1.4-1.1c.3.3.6.5.9.8-1.6 1-2.8 1.6-3.4 2zm2.6-6.8v-1.6h-1.5v1.6zm0 2.7v-1.9h-1.5v1.9zm2.4-2.7v-1.6h-1.5v1.6zm0 2.7v-1.9h-1.5v1.9zm.2 2 .7-.8c.4.2.9.5 1.6.8s1.3.7 1.8 1c-.3.3-.5.5-.8.8-.4-.3-1.5-1-3.3-1.8zm2-4.7v-1.6h-1.4v1.6zm0 2.7v-1.9h-1.4v1.9z" fill="#fcfbfa"/></svg>