<svg enable-background="new 0 0 400 400" viewBox="0 0 400 400" xmlns="http://www.w3.org/2000/svg"><g fill="#010103"><path d="m93.46 127.51c1.45 14.28 2.77 28.4 4.38 42.49.8 7.04 2.79 13.81 6.81 19.79 3.66 5.43 8.64 8.87 15.65 9.88.23-3.86.5-7.5.64-11.14.63-16.09 1.68-32.18 1.69-48.27.01-11.86-3.79-23.1-8.63-33.89-.46-1.02-1.4-2.09-2.39-2.56-16.33-7.74-23.63-29.25-13.93-47.65 3.28-6.22 7.61-12.24 12.67-17.1 7.84-7.53 17.99-8.27 28.34-6.44 2.41.43 4.75 1.34 7.17 1.68 3.92.55 5.9 3.11 7.54 6.33 7.72 15.16 4.54 29.47-3.34 43.41-.34.6-1.05 1-1.59 1.49-.34-.06-.68-.11-1.02-.17 0-2.03.05-4.06-.01-6.09-.16-5.79-.03-11.62-.68-17.36-.31-2.74-1.78-5.56-3.36-7.92-5.4-8.04-14.35-9.42-22.19-3.71-11.57 8.45-14.15 19.45-7.42 32.74 2.51 4.96 5.68 9.4 9.67 13.51 3.51 3.62 6.16 8.58 7.79 13.43 5 14.89 6 30.39 5.74 46.03-.23 13.97-.05 27.95-.05 42.78 3.08-3.36 6.27-6.14 8.6-9.51 9.16-13.19 11.87-28.31 12.02-43.96.07-7.13-.81-14.27-1.25-21.4-.03-.51 0-1.02 0-1.53.29-.06.57-.11.86-.17 2.04 8.42 4.25 16.81 6.09 25.27 3.66 16.84 3.14 33.55-2.36 49.98-.51 1.53-1.4 3.05-2.48 4.24-5.94 6.55-11.92 13.06-18.04 19.44-1.91 1.98-2.8 4.04-2.97 6.79-1.96 32.07-7.51 63.47-18.08 93.88-5.54 15.94-13.46 30.63-24.06 43.96.17-.73.28-1.48.52-2.2 8-24.29 12.62-49.35 16.76-74.5 3.23-19.63 6.1-39.33 9.24-58.98.33-2.09-.31-3.28-1.81-4.56-7.81-6.71-15.57-13.47-23.26-20.32-1.36-1.21-2.55-2.82-3.31-4.48-5.82-12.83-7.7-26.19-6-40.25 1.09-8.98 1.39-18.08 1.53-27.13.05-3.9 1.26-5.78 4.52-5.83z"/><path d="m306.31 365.73c-18.67-18.22-34.63-38.13-40.97-64.09-4.06-16.64-3.47-33.46-2.1-50.38 1.48-18.2 9.41-34.38 14.99-51.3 3.43-10.39 7.26-20.65 10.57-31.08.96-3.02 1.22-6.44.93-9.6-.18-2.03-1.95-3.92-3.01-5.88-1.69 1.22-4.11 2.07-4.94 3.72-2.34 4.67-4.28 9.58-5.92 14.55-6.51 19.73-12.85 39.53-19.25 59.29-.27.83-.62 1.64-1.09 2.42 1.32-19.42 2.71-38.84 7.25-57.81 3.9-16.28 8.82-32.32 12.45-48.66 2.31-10.43 3.1-21.19 4.54-31.81.1-.74-.08-1.51-.14-2.58-37.54 1.05-74.3-5.98-111.48-9.03 2.38-.35 4.75-.72 7.13-1.05 2.55-.35 5.1-.68 7.65-1 14.87-1.88 29.7-4.12 44.61-5.51 9.21-.86 18.55-.6 27.82-.51 13.65.14 27.3.56 40.51 4.65 3.06.95 6.04 2.15 9.91 3.54-5.82 1.98-10.74 3.64-15.64 5.31 0 3.4.12 6.64-.02 9.88-.48 11.39-1 22.78-1.63 34.16-.11 2.01.31 3.16 2.16 4.27 6.27 3.76 8.76 10.07 9.87 16.8.95 5.71 1.08 11.56 1.41 17.36.08 1.4-.34 2.88-.79 4.23-7.9 23.87-16.25 47.6-23.53 71.65-2.21 7.29-1.96 15.46-2.02 23.23-.11 14.18 4.71 27.46 8.5 40.9 1.15 4.09 2.65 8.12 3.31 12.29 2.25 14.2 9.68 26.04 16.72 38.1.74 1.29 1.46 2.62 2.2 3.94z"/><path d="m232.45 94.07c1.23 2.09 3.08 4.05 3.58 6.3 1.27 5.65 1.97 11.42 2.82 17.16.93 6.29 1.63 12.62 2.68 18.9.6 3.6 2.46 6.52 5.29 9.06 2.01 1.8 3.56 4.34 4.69 6.83 8.51 18.69 6.16 36.93-3.55 54.27-7.59 13.55-17.53 25.39-29.88 35.01-13.61 10.6-20.79 25.19-23.89 41.53-1.67 8.85-1.46 18.31-.52 27.33 1.81 17.33 4.77 34.53 7.2 51.8.51 3.64.76 7.32.41 11.34-.65-1.14-1.37-2.25-1.95-3.43-7.09-14.57-11.2-30.12-14.86-45.79-2.88-12.33-5.36-24.76-4.64-37.48.3-5.26 1.37-10.64 3.11-15.61 3.24-9.27 7.19-18.29 10.96-27.37.66-1.58 1.74-3.13 2.98-4.32 8.73-8.35 17.55-16.62 26.37-24.88.8-.75 1.84-1.25 3-2.02-7.6-3.71-14.37-6.8-20.94-10.27-7.06-3.73-13.47-8.38-18.64-14.6-3.94-4.75-5.79-10.26-6.23-16.31-1.23-16.7 2.64-32.65 7.15-48.5.23-.81.81-1.58 1.39-2.22 3.23-3.56 6.51-7.08 9.78-10.62l1.29.6c-.15 3.12-.03 6.28-.49 9.36-1.69 11.39-3.79 22.71-5.26 34.12-.58 4.46-.22 9.12.28 13.63.35 3.09 2.53 5.38 5.85 5.55 3.73.19 7.45.5 9.95-3.67 8.33-13.9 12.28-29.07 14.49-44.97 1.41-10.14 3.97-20.12 6.01-30.17.52-.2 1.05-.38 1.57-.56zm-28.84 86.88c7.56 9.33 14.87 18.34 22.01 27.15 12.13-7.97 15.6-20.03 16.58-33.28.62-8.37-.26-16.39-5.8-23.52-10.98 9.93-21.75 19.67-32.79 29.65z"/><path d="m290.47 51.32c-36.13 8.33-72.24 12.02-108.37.03 36.1-8.49 72.23-10.38 108.37-.03z"/></g><path d="m377.9 391.2c-.2.3-.4.5-.6.8-.7-.6-1.4-1-2.2-1.5.2-.3.4-.5.5-.8.6.4 1.4.8 2.3 1.5zm-1.8 6.1c-.2-.2-.5-.4-.9-.6.4-.6.8-1.2 1.2-1.9s.7-1.3.9-1.9c.3.3.5.5.8.7-.7 1.3-1.4 2.6-2 3.7zm2.2-9c-.3.3-.5.5-.6.8-.6-.6-1.3-1.1-2-1.5.3-.3.5-.5.6-.7.6.5 1.3.9 2 1.4zm.3.2v-.9h2 4.5c-.3 1.3-.6 2.5-1 3.6s-.9 2.1-1.4 3c.4.5 1 1 1.6 1.4s1.2.8 1.9 1.1c-.3.2-.5.4-.8.8-.4-.3-1-.7-1.6-1.2s-1.2-1.1-1.6-1.6c-.5.6-1.1 1.1-1.7 1.6s-1.4.9-2.1 1.4c-.1-.3-.3-.5-.7-.8.6-.2 1.2-.5 1.9-1s1.4-1.1 2-1.8c-.5-.8-.9-1.6-1.2-2.5s-.6-2-.8-3.2c-.4.1-.7.1-1 .1zm2.5 2.7c.3 1 .7 1.7 1 2.2.3-.5.6-1.1 1-2s.6-1.9.9-3h-3.2-.4c.1.9.3 1.8.7 2.8z" fill="#fcfbfa"/><path d="m396.5 388.5v1.5 3.6h1.5v.9c-.4 0-1 0-1.7 0h-7.9c-.5 0-.9 0-1.2 0v-.9h1.3v-3.5c0-.7 0-1.2 0-1.6h2.4c0-.8 0-1.4 0-1.7h1c0 .3-.1.8-.1 1.7h1.5c0-.8 0-1.4 0-1.7h1c0 .3-.1.9-.1 1.7zm-8.2 9.2c-.2-.3-.5-.5-.8-.8.8-.3 1.4-.6 1.9-.9s1-.7 1.4-1.1c.3.3.6.5.9.8-1.6 1-2.8 1.6-3.4 2zm2.6-6.8v-1.6h-1.5v1.6zm0 2.7v-1.9h-1.5v1.9zm2.4-2.7v-1.6h-1.5v1.6zm0 2.7v-1.9h-1.5v1.9zm.2 2 .7-.8c.4.2.9.5 1.6.8s1.3.7 1.8 1c-.3.3-.5.5-.8.8-.4-.3-1.5-1-3.3-1.8zm2-4.7v-1.6h-1.4v1.6zm0 2.7v-1.9h-1.4v1.9z" fill="#fcfbfa"/></svg>