<svg enable-background="new 0 0 400 400" viewBox="0 0 400 400" xmlns="http://www.w3.org/2000/svg"><g fill="#010103"><path d="m277.03 58.47c-1.55 0-2.76 0-3.97 0-42.98 0-85.97-.03-128.95.02-9.84.01-19.68.46-29.51.32-2.78-.04-5.65-1.18-8.27-2.3-1.29-.55-2.38-2.05-3.11-3.37-1.88-3.38-1.32-5.18 2.08-6.97 6.78-3.56 14.13-3.83 21.57-3.53 10.17.41 20.34 1.07 30.51 1.11 38.51.13 77.01.05 115.52.05 4.82 0 5.01-.43 5.59-5.57.45-3.94 1.49-7.81 2.33-11.7.11-.5.55-.93.87-1.46 5.4 1.26 8.18 5.14 8.79 9.95.79 6.27.95 12.7.61 19.02-.37 7.02-1.76 13.97-2.41 20.98-.38 4.16-2.72 6.58-5.96 8.65-5.25 3.34-11.04 4.86-17.16 5.07-9.95.35-19.9.62-29.85.72-28.87.29-57.74.41-86.61.75-5.01.06-10.13.3-15 1.37-12.34 2.73-16.36 7.84-18.01 17.95-1.3 8.01-1.98 16.21-1.98 24.32 0 27.97.58 55.94.65 83.91.08 31 .29 62.02-.48 93-.35 14.36-2.53 28.71-4.62 42.95-.63 4.27-3.22 8.59-5.94 12.09-1.56 2.01-5.19 2.43-7.88 3.56-.88-2.56-2.07-5.06-2.54-7.7-.31-1.78.12-3.84.72-5.6 4-11.71 4.54-23.95 5.03-36.09.9-22.01 1.31-44.05 1.6-66.08.4-30.33.54-60.65.69-90.98.07-15.11-.3-30.22-.09-45.32.13-9.26 2.47-18.2 6.8-26.4 1.26-2.39 3.98-4.12 6.26-5.86 6.88-5.26 15.06-6.71 23.37-7.23 13.94-.87 27.89-1.68 41.85-2 17.79-.41 35.58-.35 53.38-.39 8.5-.02 17.01.4 25.51.24 4.55-.09 9.09-.9 13.62-1.55 2.41-.34 3.53-1.92 3.7-4.42.28-3.66.81-7.32 1.29-11.51z"/><path d="m266.3 297.51c4.31-.92 7.4-1.42 10.38-2.3.96-.28 1.88-1.42 2.4-2.39 4.53-8.51 5.56-17.76 6.02-27.23.28-5.76 1.3-11.5 2.26-17.2.63-3.72 4.22-3.18 6.73-3.59.82-.13 2.39 1.91 2.98 3.24 4.95 11.21 3.75 22.71 1.34 34.24-.16.77-.34 1.53-.51 2.29-1.9 8.73-5.11 16.33-13.72 20.98-4.69 2.54-8.88 5.98-14.34 6.82-2.35.36-2.96 1.5-2.94 3.83.11 15.44.19 30.88-.05 46.32-.05 3.34-1.17 6.76-2.31 9.97-.84 2.37-2.93 3.59-5.68 3.08-2.53-.46-3.95-1.7-4.7-4.4-2.57-9.21-2.3-18.57-2.23-27.97.07-9.61-.13-19.23-.42-28.84-.03-1.01-1.27-2.47-2.29-2.89-3.3-1.35-6.69-2.6-10.16-3.36-7.86-1.72-11.95-7.29-15.07-14-3.5-7.53-3.8-15.64-3.7-23.66.09-6.79 1.04-13.58 1.83-20.34.43-3.68 5.45-6.34 8.74-4.76.68.32 1.18 1.25 1.51 2.01 3.48 7.85 5.08 16.2 3.51 24.57-2.45 13.1 3.89 21.09 15.4 26.22.11-.54.28-1.02.3-1.51.52-14.2.97-28.4 1.58-42.59.09-2.17-.57-3.22-2.58-3.93-7.13-2.5-12.97-6.85-17.86-12.6-6.95-8.16-5.3-18.29-1.07-25.35 1.48-2.48 4.73-3.99 7.33-5.69 14.46-9.47 28.8-6.52 42.68 1.15 8.3 4.58 8.32 12.8 7.37 21.01-.03.22-.14.43-.16.65-.56 6.18-3.25 10.86-8.91 13.89-4.2 2.25-8.16 4.96-12.16 7.58-.69.45-1.44 1.46-1.44 2.22-.08 14.61-.06 29.24-.06 44.53zm-5.64-83.44c-7.04-.65-11.94 4.2-17.66 6.73-.51.23-.78 1.51-.78 2.3 0 5.37 4.5 11.11 9.62 12.61 6.42 1.88 12.33.8 18-2.58 4.92-2.94 6.79-6.86 5.71-12.54-.5-2.64-1.79-4.58-4.65-5.02-3.41-.53-6.83-1.01-10.24-1.5z"/><path d="m135.74 244.55c3.34 7.56 5.13 15.32 5.15 23.47.01 2.46-.08 4.92-.08 7.39 0 10.29 5.63 17.47 16.59 20.34 0-4.84-.07-9.47.01-14.09.18-9.96.33-19.92.72-29.87.09-2.38-.71-3.25-2.82-4.02-2.71-.99-5.36-2.31-7.77-3.89-13.08-8.54-13.05-21.28-8.45-33.17.68-1.75 2.81-3.27 4.63-4.19 5.16-2.61 10.32-5.76 15.85-6.96 4.33-.94 9.28.41 13.85 1.3 6.87 1.34 13.18 4.21 18.88 8.34 5.38 3.89 7.35 9.24 6.11 15.6-1.08 5.53-2.98 10.72-7.99 14.22-2.93 2.04-5.3 4.98-8.4 6.64-3.07 1.65-6.73 2.21-10.19 3.26v47.04c4.11-.86 8.06-1.54 11.91-2.59.96-.26 1.82-1.57 2.38-2.58 3.63-6.59 5.08-13.79 5.74-21.2.42-4.79.62-9.62 1.43-14.34.74-4.28 2.52-8.15 7.27-9.61 2.02-.62 3.22-.18 4.16 1.91 3.14 7.01 3.83 14.42 2.37 21.7-1.75 8.71-3.92 17.48-7.24 25.68-2.35 5.84-7.45 10.18-13.83 12.22-4.67 1.49-9.39 2.82-14.23 4.27 0 4.68-.06 9.25.01 13.82.17 10.73.5 21.47.54 32.2.01 2.64-.53 5.38-1.38 7.88-.69 2.03-1.91 4.12-3.46 5.57-3.5 3.28-5.97 2.66-7.77-1.7-2.75-6.68-2.9-13.7-2.64-20.79.42-11.29.63-22.59 1.09-33.88.1-2.44-.77-3.57-2.97-4.4-4.28-1.62-8.36-3.81-12.7-5.23-5.68-1.86-9.39-5.82-11.61-10.91-2.12-4.86-4.27-10.1-4.52-15.27-.44-8.98.19-18.08 1.09-27.05.67-6.27 1.21-6.22 8.27-7.11zm31.37-8.37c.12-.3.24-.61.36-.91 4.57.18 8.54-1.48 12.1-4.18 5.99-4.53 4.95-12.53-2.04-15.36-7.6-3.08-15.01-3.91-22.87.13-3.89 2-4.57 4.81-5.01 8.16-.41 3.12 1.42 5.64 3.94 6.87 4.34 2.11 9 3.56 13.52 5.29z"/><path d="m204.28 167.92c.36-4.29.69-8.28 1.04-12.48-5.72-1.94-11.3-3.87-16.9-5.72-7.83-2.58-11.73-8.39-12.59-16.16-.78-7 .35-13.96 3.74-20.16 1.35-2.46 3.99-4.47 6.46-6.02 12.44-7.78 25.88-8.44 39.71-4.81 4.95 1.3 9.88 2.91 14.53 5 10.59 4.76 13.98 12.3 11.77 23.72-2.61 13.48-9.52 19.1-22.49 20.88-9.79 1.34-9.79 1.37-10.28 11.1-.07 1.45-.17 2.9-.28 4.7 11.7.35 23.09-.34 34.02-4.59.75-.29 1.38-1.07 1.89-1.76 4.89-6.47 8.2-13.46 7.65-21.88-.16-2.43.18-4.93.55-7.35.28-1.85.73-3.76 1.54-5.43 1.36-2.8 5.67-5.41 8-4.25 1.73.86 3 3.33 3.75 5.36 2.69 7.29 1.94 14.73.36 22.14-.3 1.42-.68 2.83-1.09 4.22-1.8 6-4.69 10.92-10.18 14.72-14.97 10.37-14.81 10.59-33.59 12.31-2.67.24-5.33.73-8.01.79-3.04.08-4.66 1.7-4.82 4.43-.25 4.21-.12 8.45-.04 12.67.05 2.67.76 5.42.3 7.97-.33 1.84-1.74 4.02-3.32 5.01-4.95 3.12-8.37 1.66-9.26-4.05-.66-4.27-.48-8.66-.65-13-.03-.66.12-1.34.18-2 .88-9.64.35-10.36-8.93-11.61-5.65-.76-11.32-1.41-16.98-2.12-12.77-1.6-21.47-8.29-25.5-20.62-3.35-10.24-4.39-20.73-2.97-31.45.46-3.47 2.82-4.48 5.71-5.07 3.08-.63 4.94.62 5.6 3.66.63 2.93 1.44 5.86 1.74 8.83.43 4.33.45 8.71.68 13.07.45 8.55 5.49 15.18 13.69 17.48 8.03 2.25 16.25 3.01 24.97 2.47zm12.34-26.14c7.28-.7 12.78-2.07 18.38-5.34.73-.43 1.66-.98 1.92-1.69 2.44-6.67 2.99-14.7-6.61-17.65-2.13-.65-4.26-1.38-6.43-1.82-9.66-1.94-19.01-1.36-28.14 2.84-9.09 4.18-7.54 11.72-4.42 17.2.59 1.03 1.85 2.12 2.97 2.35 7.42 1.5 14.88 2.77 22.33 4.11z"/></g><path d="m377.9 391.2c-.2.3-.4.5-.6.8-.7-.6-1.4-1-2.2-1.5.2-.3.4-.5.5-.8.6.4 1.4.8 2.3 1.5zm-1.8 6.1c-.2-.2-.5-.4-.9-.6.4-.6.8-1.2 1.2-1.9s.7-1.3.9-1.9c.3.3.5.5.8.7-.7 1.3-1.4 2.6-2 3.7zm2.2-9c-.3.3-.5.5-.6.8-.6-.6-1.3-1.1-2-1.5.3-.3.5-.5.6-.7.6.5 1.3.9 2 1.4zm.3.2v-.9h2 4.5c-.3 1.3-.6 2.5-1 3.6s-.9 2.1-1.4 3c.4.5 1 1 1.6 1.4s1.2.8 1.9 1.1c-.3.2-.5.4-.8.8-.4-.3-1-.7-1.6-1.2s-1.2-1.1-1.6-1.6c-.5.6-1.1 1.1-1.7 1.6s-1.4.9-2.1 1.4c-.1-.3-.3-.5-.7-.8.6-.2 1.2-.5 1.9-1s1.4-1.1 2-1.8c-.5-.8-.9-1.6-1.2-2.5s-.6-2-.8-3.2c-.4.1-.7.1-1 .1zm2.5 2.7c.3 1 .7 1.7 1 2.2.3-.5.6-1.1 1-2s.6-1.9.9-3h-3.2-.4c.1.9.3 1.8.7 2.8z" fill="#fcfbfa"/><path d="m396.5 388.5v1.5 3.6h1.5v.9c-.4 0-1 0-1.7 0h-7.9c-.5 0-.9 0-1.2 0v-.9h1.3v-3.5c0-.7 0-1.2 0-1.6h2.4c0-.8 0-1.4 0-1.7h1c0 .3-.1.8-.1 1.7h1.5c0-.8 0-1.4 0-1.7h1c0 .3-.1.9-.1 1.7zm-8.2 9.2c-.2-.3-.5-.5-.8-.8.8-.3 1.4-.6 1.9-.9s1-.7 1.4-1.1c.3.3.6.5.9.8-1.6 1-2.8 1.6-3.4 2zm2.6-6.8v-1.6h-1.5v1.6zm0 2.7v-1.9h-1.5v1.9zm2.4-2.7v-1.6h-1.5v1.6zm0 2.7v-1.9h-1.5v1.9zm.2 2 .7-.8c.4.2.9.5 1.6.8s1.3.7 1.8 1c-.3.3-.5.5-.8.8-.4-.3-1.5-1-3.3-1.8zm2-4.7v-1.6h-1.4v1.6zm0 2.7v-1.9h-1.4v1.9z" fill="#fcfbfa"/></svg>