<svg enable-background="new 0 0 400 400" viewBox="0 0 400 400" xmlns="http://www.w3.org/2000/svg"><g fill="#010101"><path d="m194.8 25.03c8.03 1.82 11.05 6.43 10.28 14.35-.45 4.64-.81 9.36-.47 14 .34 4.67 1.45 5.6 6.15 5.57 17.56-.11 34.77 2.84 51.86 6.26 20.76 4.16 32.83 19.14 35.17 39.33 1.24 10.71.51 21.66.53 32.51.05 24.96-.04 49.91.02 74.87.07 27.08-.03 54.18.53 81.25.17 8.4 2.34 16.76 3.43 25.15 1.76 13.51 3.42 27.03 5.06 40.55.17 1.42-.15 2.9-.14 4.35.01 3.37-1.34 5.23-4.94 5.76-1.98.29-3.03-.04-4.16-1.57-6.27-8.51-8.51-18.29-9.53-28.57-4.15-41.5-3.37-83.15-4.2-124.76-.77-38.38-1.26-76.76-2-115.13-.11-5.62-3.88-9.4-8.12-12.45-6.64-4.78-14.06-7.71-22.23-8.72-14.64-1.8-29.24-4.35-43.93-5.29-9.84-.62-19.83.91-29.74 1.66-9.48.72-18.93 1.74-28.4 2.5-9.27.74-18.01 3.23-26.28 7.42-1.06.53-2.06 1.35-2.83 2.25-7.28 8.63-10.92 18.62-10.95 29.9-.04 15.33-.02 30.66-.08 46-.19 47.12-.23 94.24-.76 141.35-.09 8.31-2.23 16.59-3.48 24.88-1.44 9.51-2.84 19.02-4.48 28.5-.51 2.93-1.5 5.84-2.74 8.55-1.19 2.59-6.03 5.09-7.5 3.75-1.78-1.62-3.56-4.4-3.51-6.63.14-6 1.22-11.99 1.99-17.98 1.88-14.64 4.29-29.24 5.55-43.93.92-10.78.39-21.7.46-32.55.28-41.52.5-83.04.84-124.56.09-11.4-.18-22.88 1.05-34.18.92-8.44 3.58-16.79 6.34-24.88.95-2.79 4.35-4.91 6.94-6.96 10.15-8.04 22.27-11.56 34.5-14.94 12.82-3.54 25.97-2.61 38.98-3.5 6.67-.46 5.58.93 6.48-6.32.95-7.65 1.75-15.31 2.75-22.95.19-1.61.99-3.15 1.56-4.84z"/><path d="m190.14 215.52c-8.92-.13-17.82-.23-26.72-.4-9.49-.18-18.98-.37-28.46-.68-1.64-.05-3.24-.79-4.88-1.14-3.66-.79-5.06-2.89-4.71-6.7.19-2.03.88-2.92 2.63-3.63 7.66-3.09 15.59-3.23 23.73-3 12.29.35 24.6.02 36.9-.05.53 0 1.07-.2 1.93-.37 0-1.37-.01-2.68 0-4 .2-20.25.12-40.51.78-60.75.21-6.48 2.11-12.96 3.73-19.32 1.67-6.57 6.48-10.84 12.57-13.03 11.56-4.15 23.26-7.9 35.03-11.43 6.03-1.81 11.05 1.76 10.76 6.91-.12 2.17-.85 3.52-3.15 4.44-12.97 5.18-25.83 10.63-38.77 15.88-1.85.75-2.66 1.65-3.04 3.75-4.19 22.82-3.47 45.9-3.96 68.91-.06 2.78-.01 5.57-.01 9.28 5.58 0 11.13-.06 16.67.01 13.53.18 27.06.41 40.6.69 1.31.03 2.85.14 3.87.82 1.42.95 3.14 2.32 3.49 3.8.55 2.34.68 4.85-2.32 6.56-7.19 4.11-14.91 4.21-22.79 3.91-12.05-.46-24.06-2.05-36.17-.75-2.88.31-3.65 1.18-3.64 4.05.1 39.51.04 79.01.08 118.52.01 9.5.49 19 .24 28.48-.15 5.62-3.44 8.83-7.87 8.54-1.21-.08-2.85-1.15-3.42-2.23-3.12-5.94-3.06-12.45-3.04-18.98.16-45.32.23-90.65.32-135.97.02-.32-.1-.65-.38-2.12z"/><path d="m235.13 266.07c.05-11.79 1.34-23.4 4.92-34.7.85-2.69 2.19-5.12 5.15-5.38 3.11-.27 6.84 2.79 7 6.1.24 5.2.18 10.52-.58 15.66-3.04 20.37-2.37 40.55 2.27 60.6 4.02 17.35 6.46 34.91 7.71 52.67.22 3.14-1.36 4.81-3.82 5.44-2.55.65-5.26.71-6.97-2.3-3.81-6.72-5.81-13.98-6.91-21.56-3.5-24.21-7.66-48.35-8.77-72.85-.05-1.22 0-2.45 0-3.68z"/><path d="m161.29 277.07c-.92 30.27-6.76 58.52-15.17 86.32-1.1 3.64-4.64 2.35-7.05 3.22-.49.17-2.04-1.56-2.54-2.67-2.39-5.34-1.92-10.82-.69-16.4 3.83-17.45 7.63-34.9 11.21-52.4 2.37-11.59 1.01-23.11-1.16-34.62-1.74-9.25-2.58-18.6-1.06-28.01.13-.77.23-1.55.41-2.31.88-3.7 3.68-5.02 6.96-3.28 4.72 2.5 6.17 7.03 6.55 11.77 1.05 13.15 1.76 26.32 2.54 38.38z"/><path d="m144.6 192.08c-3.9-7.28-5.49-15.01-5.69-22.98-.3-11.75-.46-23.48-3.47-34.94-.96-3.67-1.97-7.33-2.98-10.99-.92-3.32-.34-6.38 1.4-9.32 2.54-4.3 3.96-4.69 7.56-1.13 1.76 1.74 3.1 4.07 4.13 6.36 7.32 16.29 9.02 33.51 8.23 51.14-.25 5.58-.38 11.18-.34 16.77.02 2.61-.74 3.93-3.5 4.07-1.75.08-3.48.65-5.34 1.02z"/><path d="m241.35 173.96c.64-17.68 1.71-32.53 6.45-46.77 1.67-5.02 4.5-9.68 7.01-14.39.85-1.59 2.01-3.32 4.49-2.52 2.46.8 4.25 2.28 4.38 4.91.16 3 .57 6.23-.29 9-6.38 20.6-7.08 42.03-9.64 63.2-.49 4.08-4.32 6.49-7.98 4.77-1.19-.56-2.52-2.07-2.7-3.31-.88-5.84-1.38-11.74-1.72-14.89z"/></g><path d="m6.4 11.7c-1-.8-1.9-1.6-2.9-2.3l.6-.7c.9.7 1.9 1.4 2.9 2.2zm-2.1 8.3c.7-2.1 1.4-4.2 2-6.4.2.1.6.3 1 .4-.7 2.3-1.3 4.4-1.9 6.4zm3-12.8c-1.1-.9-2.1-1.7-2.9-2.4l.6-.7c1 .8 2 1.5 3 2.4zm1.4-1.3v-.9h10.2v.9c-.9 4.2-2.3 7.3-4.1 9.4 1.3 1.4 3.2 2.7 5.7 4-.2.2-.4.5-.7.9-2.5-1.4-4.4-2.7-5.7-4.2-1.4 1.5-3.5 3-6.1 4.4 0 0 0 0-.1-.1-.3-.4-.5-.7-.7-.8 2.7-1.3 4.7-2.8 6.2-4.2-1.8-2.2-3-5.3-3.7-9.4zm9.2 0h-7.1c.6 3.8 1.7 6.7 3.4 8.7 1.7-2 2.9-4.8 3.7-8.7z" fill="#fbfafa"/><path d="m31.6 3.6h.9v2.3h4.1v9.1h1.7v.9h-16.6v-.9h1.7v-9.1h4.1v-2.3h.9v2.3h3.1v-2.3zm-4 13.3.6.8c-1.9.9-3.8 1.9-5.8 2.8-.2-.3-.3-.6-.5-.9 2-.9 3.9-1.8 5.7-2.7zm-3.2-10.1v3.7h3.1v-3.7zm0 4.5v3.7h3.1v-3.7zm4.1-4.5v3.7h3.1v-3.7zm0 4.5v3.7h3.1v-3.7zm9.1 9.1c-2.1-1.1-4.1-2-5.8-2.7l.5-.8c2.2.9 4.1 1.8 5.8 2.6zm-1.9-13.6h-3.1v3.7h3.1zm-3.2 4.5v3.7h3.1v-3.7z" fill="#fbfafa"/></svg>