<svg enable-background="new 0 0 400 400" viewBox="0 0 400 400" xmlns="http://www.w3.org/2000/svg"><g fill="#010103"><path d="m190.31 60.58c.3-7.73.85-15.42.79-23.1-.03-4.16 1.02-7.71 3.52-10.85.59-.74 1.98-1.42 2.84-1.26 5.44.98 8.72 4.83 8.51 10.37-.19 5.02-1.08 10-1.35 15.02-.17 3.06.25 6.16.45 10.15 8.82 0 17.11-.48 25.32.11 14.14 1.01 28.31 2.21 42.34 4.18 19.1 2.68 28.85 15.4 32.45 33.28 1.51 7.52 1.5 15.34 2.25 23.01 3.34 34.41.33 68.93 1.59 103.37 1.05 28.74 2.35 57.47 3.93 86.19.78 14.16 4.51 27.73 9.65 40.98 1.67 4.3 2.16 9.1 2.76 13.74.33 2.55-.27 5.31-3.12 6.47-3 1.22-5.9.18-7.43-2.29-2.61-4.22-5.55-8.63-6.61-13.36-3.79-16.89-7.93-33.83-9.88-50.98-1.99-17.5-1.85-35.27-2.13-52.93-.58-35.26-.72-70.53-1.24-105.79-.18-12.53-.87-25.05-1.48-37.57-.42-8.56-3.67-16.09-9.18-22.58-1-1.18-2.57-2.14-4.07-2.58-6.43-1.88-12.85-4.18-19.44-5.11-8.48-1.2-17.11-1.43-25.69-1.73-15.65-.54-31.31-1.07-46.96-1.1-8.81-.01-17.62 1.15-26.44 1.5-7.14.29-14.31-.02-21.46.28-9.44.39-18.2 3.42-26.48 7.82-1.08.57-1.96 1.77-2.59 2.88-6.91 12.05-9.64 25.22-9.9 38.93-.46 24.96-.53 49.93-1.13 74.88-.85 35.14-1.85 70.28-3.16 105.4-.62 16.54-1.82 33.1-5.98 49.23-1.08 4.18-2.74 8.27-4.68 12.14-1.68 3.36-4.96 4.07-8.69 2.72-3.4-1.24-3.66-3.98-3.15-6.89 1.68-9.58 4.01-19.08 5.1-28.73 1.78-15.78 3.49-31.62 3.96-47.48 1.4-47.11 2.06-94.23 3.32-141.34.22-8.12 1.95-16.2 2.92-24.31 1.46-12.21 2.51-24.5 6.73-36.19 1.14-3.15 2.24-6.33 3.65-9.36.56-1.2 1.73-2.29 2.89-3.01 10.56-6.58 22.14-9.51 34.5-10.87 16.93-1.87 33.81-3.54 50.86-2.92.54 0 1.08-.18 1.91-.32z"/><path d="m198.25 246.36c10.52 0 21.04-.18 31.55.1 3.6.1 4.39-1.33 4.43-4.41.09-6.04.24-12.09.62-18.12.32-5.07 3.09-7.74 7.62-7.37 1.25.1 2.86 1.15 3.51 2.24 3.07 5.11 3.02 10.86 2.98 16.6-.06 10.29 0 20.57.06 30.86.08 12.42.04 24.77-3.14 36.99-1.95 7.48-5.89 12.33-12.93 15.31-9.42 3.99-19.23 5.69-29.34 6.29-13.05.78-25.87-.07-38.47-4-5.45-1.7-8.69-5.66-12.08-9.62-.64-.74-.63-2.08-.8-3.17-4.56-28.69-3.06-57.61-3.24-86.46-.03-4.52 3.05-6.62 7.29-5.14 4.62 1.62 6.57 4.77 6.22 9.85-.36 5.23-.72 10.46-.92 15.7-.09 2.39.76 3.79 3.75 3.74 10.96-.19 21.93-.08 32.9-.08-.01.25-.01.47-.01.69zm36.19 14.56c-11.65 0-22.71.05-33.76-.02-9.73-.06-19.46-.07-29.18-.43-8.06-.3-8.28-.53-8.84 7.45-.67 9.46-1.84 18.99.37 28.41 1.38 5.86 3.54 11.1 10.87 11.54 11.13.66 22.27 2.11 33.38 1.97 6.88-.09 13.75-2.43 20.6-3.87 2.18-.46 3.2-1.85 3.34-4.29.39-6.92 1.08-13.83 1.63-20.74.51-6.33 1.01-12.67 1.59-20.02z"/><path d="m127.53 151.46c-1.43-1.29-3.2-2.37-4.19-3.93-1.49-2.35.89-3.24 2.33-4.34 4.62-3.53 9.13-7.23 13.92-10.51 15.1-10.34 25.36-25.08 36.05-39.42 2.95-3.96 7.97-3.7 10.07.93.97 2.14.77 4.93.61 7.4-.08 1.33-.99 2.76-1.87 3.87-10.41 13.17-20.63 26.57-35.1 35.7-4.98 3.15-10.36 5.69-15.65 8.31-1.66.82-3.62 1.03-5.44 1.51-.23.17-.48.33-.73.48z"/><path d="m184.82 156.87c-.6 1.9-.87 4-1.85 5.68-8.36 14.36-17.42 28.27-30.73 38.6-5.24 4.07-11.37 7-17.17 10.33-1.33.76-2.92 1.18-4.44 1.45-2.32.41-4.85.79-6.31-1.73-1.34-2.32-.7-4.64.97-6.52 1.77-1.99 3.53-4.24 5.77-5.52 19.16-10.95 31.95-28.03 44.19-45.63 1.48-2.14 2.75-3.52 5.64-2.39 2.76 1.06 3.87 2.82 3.93 5.73z"/><path d="m276 206.07c-3.61-1.09-6.8-1.77-9.77-2.98-21.33-8.67-39.26-22.03-53.89-39.79-3.42-4.15-3.55-7.11-1.17-11 .94-1.53 2-2.18 3.51-1.12 3.46 2.41 7.43 4.43 10.14 7.52 12.72 14.52 28.11 25.4 44.91 34.58 3.1 1.69 5.88 4.05 8.53 6.42.98.88 1.91 3.02 1.48 3.94-.55 1.18-2.5 1.7-3.74 2.43z"/><path d="m212.52 89.88c1.99.95 4.82 1.72 6.88 3.42 2.8 2.31 5.46 5.06 7.4 8.11 6.41 10.08 15.1 17.18 26 21.92 5.31 2.31 10.42 5.13 15.45 8.01 2.95 1.7 4.82 4.38 4.15 8.11-.6 3.31-2.6 4.56-5.82 3.73-.22-.06-.44-.11-.64-.21-19.33-9.45-38.69-18.89-51.52-37.24-2.32-3.31-3.99-7.18-5.36-11.01-.61-1.7-.29-4.3 3.46-4.84z"/></g><path d="m377.9 391.2c-.2.3-.4.5-.6.8-.7-.6-1.4-1-2.2-1.5.2-.3.4-.5.5-.8.6.4 1.4.8 2.3 1.5zm-1.8 6.1c-.2-.2-.5-.4-.9-.6.4-.6.8-1.2 1.2-1.9s.7-1.3.9-1.9c.3.3.5.5.8.7-.7 1.3-1.4 2.6-2 3.7zm2.2-9c-.3.3-.5.5-.6.8-.6-.6-1.3-1.1-2-1.5.3-.3.5-.5.6-.7.6.5 1.3.9 2 1.4zm.3.2v-.9h2 4.5c-.3 1.3-.6 2.5-1 3.6s-.9 2.1-1.4 3c.4.5 1 1 1.6 1.4s1.2.8 1.9 1.1c-.3.2-.5.4-.8.8-.4-.3-1-.7-1.6-1.2s-1.2-1.1-1.6-1.6c-.5.6-1.1 1.1-1.7 1.6s-1.4.9-2.1 1.4c-.1-.3-.3-.5-.7-.8.6-.2 1.2-.5 1.9-1s1.4-1.1 2-1.8c-.5-.8-.9-1.6-1.2-2.5s-.6-2-.8-3.2c-.4.1-.7.1-1 .1zm2.5 2.7c.3 1 .7 1.7 1 2.2.3-.5.6-1.1 1-2s.6-1.9.9-3h-3.2-.4c.1.9.3 1.8.7 2.8z" fill="#fcfbfa"/><path d="m396.5 388.5v1.5 3.6h1.5v.9c-.4 0-1 0-1.7 0h-7.9c-.5 0-.9 0-1.2 0v-.9h1.3v-3.5c0-.7 0-1.2 0-1.6h2.4c0-.8 0-1.4 0-1.7h1c0 .3-.1.8-.1 1.7h1.5c0-.8 0-1.4 0-1.7h1c0 .3-.1.9-.1 1.7zm-8.2 9.2c-.2-.3-.5-.5-.8-.8.8-.3 1.4-.6 1.9-.9s1-.7 1.4-1.1c.3.3.6.5.9.8-1.6 1-2.8 1.6-3.4 2zm2.6-6.8v-1.6h-1.5v1.6zm0 2.7v-1.9h-1.5v1.9zm2.4-2.7v-1.6h-1.5v1.6zm0 2.7v-1.9h-1.5v1.9zm.2 2 .7-.8c.4.2.9.5 1.6.8s1.3.7 1.8 1c-.3.3-.5.5-.8.8-.4-.3-1.5-1-3.3-1.8zm2-4.7v-1.6h-1.4v1.6zm0 2.7v-1.9h-1.4v1.9z" fill="#fcfbfa"/></svg>