<svg enable-background="new 0 0 400 400" viewBox="0 0 400 400" xmlns="http://www.w3.org/2000/svg"><path d="m174.44 226.08c-4.15-1.02-7.86-1.87-11.52-2.86-5.82-1.56-10.13-4.98-12.8-10.46-4.89-10.04-5.95-20.8-5.79-31.71.22-15.13 1.75-30.13 5.2-44.9.67-2.89 1.85-5.18 4.59-6.55 3.28-1.65 6.46-3.54 9.81-5.05 3.95-1.78 5.71-4.9 4.15-8.86-.35-.88-2.22-1.61-3.4-1.63-7.72-.14-15.45.03-23.17-.13-3.1-.06-6.25-.46-9.27-1.14-1.53-.34-3.13-1.39-4.19-2.56-3.1-3.43-1.69-8.04 2.76-8.46 9.89-.94 19.82-1.48 29.74-2.12 5.1-.33 5.96-1.33 4.95-6.45-.32-1.64-.87-3.24-1.41-4.82-1.8-5.3-.22-9.93 2.99-14.11.48-.62 2.52-.96 2.98-.52 2.29 2.17 5.29 4.31 6.19 7.07 1.63 5.02 2.1 10.44 2.79 15.73.87 6.75 1.43 13.55 2.23 20.31.22 1.82.85 3.38 3.29 3.43 9.39.18 18.78.5 28.17.75.54.01 1.08-.11 1.96-.21 1.58-10.19 3.01-20.36 4.81-30.46.66-3.69 2.12-7.25 3.37-10.82.39-1.12 1.09-2.41 2.03-3.01 1.8-1.16 3.83-2.22 5.89-2.55.49-.08 2 2.81 2.13 4.41.35 4.42.62 8.91.17 13.3-.8 7.87-.25 9.08 7.74 9.35 4.54.15 9.1-.78 13.66-1.11 3.21-.23 6.48-.64 9.65-.28 1.94.22 4.07 1.38 5.54 2.74 4.34 4 3.66 7.08-1.72 9.07-6.94 2.57-14.04 2.02-21.21 1.29-3.42-.35-6.9-.13-10.36-.12-2.87 0-4.81 1.25-5.76 4.11-.55 1.66-1.52 3.18-2.44 5.07 1.71.69 3.18 1.51 4.76 1.89 10.79 2.63 15.8 10.53 18.79 20.34 3.74 12.24 3.69 24.8 2.25 37.27-1.15 9.94-3.46 19.76-5.6 29.57-.42 1.93-2.15 3.81-3.72 5.22-6.27 5.63-13.23 9.91-22.48 9.46.26 5.29.85 10.07.66 14.81-.28 7.01 1.46 12.52 8.51 15.43 1.6.66 2.89 2.08 4.27 3.22 8.12 6.71 10.2 13.52 7.07 23.53-.34 1.08-1.2 2.27-2.16 2.83-4.03 2.33-8.04 4.85-12.37 6.49-3.15 1.19-3.77 2.85-2.81 5.54 2.48 7 5.72 13.64 10.99 18.98 7.54 7.65 15.6 14.81 22.84 22.73 4.46 4.88 8.03 10.65 11.53 16.31.92 1.49.88 4.61-.1 6.01-1.72 2.46-4.76 2.13-7.32.78-1.66-.87-3.33-1.89-4.64-3.2-11.32-11.31-22.59-22.67-33.76-34.13-1.51-1.55-2.52-3.65-3.56-5.6-3.67-6.9-7.25-13.84-11.03-21.08-5.54 1.9-11.48 2.31-15.24 7.94-4.15 6.22-8.48 12.26-7.2 20.25.4 2.47 1.5 4.89 2.62 7.18 4.31 8.84 8.78 17.59 13.1 26.42.78 1.58 1.36 3.33 1.64 5.07.43 2.66.12 5.3-2.8 6.5-2.9 1.2-5.39.93-7.74-1.76-10-11.43-17.14-24.28-19.78-39.33-1.62-9.26-.33-18.28 3.45-26.9.39-.89 1.01-1.74 1.71-2.43 10.21-10.06 21.7-17.88 36.01-20.96 5-1.08 9.89-2.67 14.86-4.03-.59-4.55-2.47-7.75-6.72-9.33-1.67-.62-3.22-1.56-4.82-2.36-4.85-2.43-7.63-6.06-8.04-11.75-.56-7.8-1.8-15.55-2.53-23.34-.21-2.24-1.12-2.79-3.14-2.81-4.36-.04-8.72-.18-13.08-.44-1.98-.12-3.21.55-3.81 2.42-2.55 7.86-7.97 13.43-14.15 18.61-8.91 7.48-17.44 15.41-26.22 23.04-2.1 1.82-4.44 3.46-6.92 4.69-1.92.96-4.27 1.74-6.33 1.55-1.93-.18-4.83-1.33-5.35-2.77-1-2.74-1.92-5.9 1.67-8.53 8.66-6.34 16.96-13.16 25.41-19.78 6.8-5.36 12.5-11.72 17.53-19.29zm65.19-70.73c-.5-2.72-.93-4.89-1.3-7.07-1.48-8.73-4.19-12.05-13.07-13.08-8.6-.99-17.35-.97-26.03-1.01-11.6-.04-23.26-.03-34.19 4.82-.94.42-2.31 1.01-2.5 1.77-1.23 4.83-2.18 9.74-3.22 14.56 26.9.01 53.43.01 80.31.01zm-1.41 13.26c-26.54 0-52.65 0-78.91 0v16.88c26.88-.36 53.5-.71 80.34-1.07-.51-5.55-.96-10.54-1.43-15.81zm-77.93 29.48c.56 2.49 1.15 4.53 1.45 6.61.38 2.65 1.59 4.09 4.38 4.48 9.48 1.31 18.91 3.18 28.42 4.11 12.42 1.21 24.69.32 36.62-4.1 4.96-1.84 6.77-5.19 7.43-10.07-26.09-.35-52.07-.69-78.3-1.03z" fill="#010103"/><path d="m292.53 247.39c-.39-35.02-.69-70.05-1.21-105.07-.18-12.3-.77-24.6-1.4-36.89-.47-9.12-3.85-17.2-9.83-24.1-4.13-4.76-9.93-6.03-15.81-7.32-12.69-2.78-25.55-2.54-38.4-2.77-18.12-.33-36.24-.96-54.36-.79-11.36.11-22.79.88-34.04 2.43-6.29.87-12.3 3.86-18.36 6.08-1.15.42-2.11 1.61-2.92 2.64-6.55 8.33-9.23 17.96-9.48 28.43-1 43.06-2.26 86.12-3.02 129.19-.69 38.82-.86 77.66-1.25 116.49-.04 3.58.2 7.17-.05 10.73-.35 5.02-2.58 7.52-6.76 8.36-2.27.46-4.01.11-4.49-2.52-1.14-6.25-3.16-12.48-3.23-18.74-.18-17 .53-34 .79-51 .42-27.97.81-55.95 1.12-83.92.29-25.29.29-50.58.8-75.87.13-6.78 1.62-13.53 2.5-20.29 1.32-10.08 2.2-20.25 4.16-30.2 1.29-6.51 4.12-12.72 6.4-19.01.38-1.05 1.45-1.89 2.3-2.73 6.98-6.92 15.74-8.8 25.19-9.87 18.67-2.13 37.26-5.04 56.14-3.94 2.89.17 3.97-.74 4.07-3.65.2-5.69.54-11.4 1.18-17.06.32-2.85 1.43-5.61 2.19-8.4.59-2.16 1.98-2.33 3.87-1.69 4.27 1.43 6.69 4.46 6.62 9.02-.04 2.78-.55 5.55-.83 8.33-.18 1.78-.42 3.56-.43 5.34-.03 6.9 1.15 8.07 7.92 8.06 17.23-.03 34.51-.63 51.53 2.63 6.08 1.17 12.13 3.09 17.83 5.53 11.4 4.89 16.26 14.98 19.45 26.2 3.26 11.51 4.16 23.34 4.51 35.19.39 13.42.42 26.84.43 40.27.04 67.49.03 134.98-.05 202.48 0 1.73-.46 3.9-1.55 5.11-2.65 2.94-6.49 2.02-7.94-1.62-3.16-7.94-3.93-16.29-3.85-24.71.15-16 .63-31.99.75-47.99.14-17.46.03-34.91.03-52.37-.15.01-.34.01-.52.01z" fill="#010103"/><g fill="#fcfbfa"><path d="m377.9 391.2c-.2.3-.4.5-.6.8-.7-.6-1.4-1-2.2-1.5.2-.3.4-.5.5-.8.6.4 1.4.8 2.3 1.5zm-1.8 6.1c-.2-.2-.5-.4-.9-.6.4-.6.8-1.2 1.2-1.9s.7-1.3.9-1.9c.3.3.5.5.8.7-.7 1.3-1.4 2.6-2 3.7zm2.2-9c-.3.3-.5.5-.6.8-.6-.6-1.3-1.1-2-1.5.3-.3.5-.5.6-.7.6.5 1.3.9 2 1.4zm.3.2v-.9h2 4.5c-.3 1.3-.6 2.5-1 3.6s-.9 2.1-1.4 3c.4.5 1 1 1.6 1.4s1.2.8 1.9 1.1c-.3.2-.5.4-.8.8-.4-.3-1-.7-1.6-1.2s-1.2-1.1-1.6-1.6c-.5.6-1.1 1.1-1.7 1.6s-1.4.9-2.1 1.4c-.1-.3-.3-.5-.7-.8.6-.2 1.2-.5 1.9-1s1.4-1.1 2-1.8c-.5-.8-.9-1.6-1.2-2.5s-.6-2-.8-3.2c-.4.1-.7.1-1 .1zm2.5 2.7c.3 1 .7 1.7 1 2.2.3-.5.6-1.1 1-2s.6-1.9.9-3h-3.2-.4c.1.9.3 1.8.7 2.8z"/><path d="m396.5 388.5v1.5 3.6h1.5v.9c-.4 0-1 0-1.7 0h-7.9c-.5 0-.9 0-1.2 0v-.9h1.3v-3.5c0-.7 0-1.2 0-1.6h2.4c0-.8 0-1.4 0-1.7h1c0 .3-.1.8-.1 1.7h1.5c0-.8 0-1.4 0-1.7h1c0 .3-.1.9-.1 1.7zm-8.2 9.2c-.2-.3-.5-.5-.8-.8.8-.3 1.4-.6 1.9-.9s1-.7 1.4-1.1c.3.3.6.5.9.8-1.6 1-2.8 1.6-3.4 2zm2.6-6.8v-1.6h-1.5v1.6zm0 2.7v-1.9h-1.5v1.9zm2.4-2.7v-1.6h-1.5v1.6zm0 2.7v-1.9h-1.5v1.9zm.2 2 .7-.8c.4.2.9.5 1.6.8s1.3.7 1.8 1c-.3.3-.5.5-.8.8-.4-.3-1.5-1-3.3-1.8zm2-4.7v-1.6h-1.4v1.6zm0 2.7v-1.9h-1.4v1.9z"/></g></svg>