<svg enable-background="new 0 0 400 400" viewBox="0 0 400 400" xmlns="http://www.w3.org/2000/svg"><g fill="#010103"><path d="m307.19 362.68c-1.95.42-3.25.71-4.56.98-5.07 1.04-6.1.52-7.58-4.56-.65-2.22-1-4.61-1.01-6.93-.15-24.96-.07-49.92-.32-74.88-.46-44.99-.99-89.98-1.75-134.96-.21-12.63-1.12-25.26-2.07-37.86-.52-6.93-3.11-13.4-7.63-18.66-2.37-2.75-5.72-5.01-9.07-6.48-9.38-4.11-19.53-4.7-29.58-5.13-11.62-.5-23.26-.52-34.9-.74-1.09-.02-2.18 0-3.7 0 .57 5.29 1.06 10.16 1.66 15.02.07.54.63 1.13 1.12 1.46.53.37 1.23.53 1.88.68 18.58 4.22 34.11 14.86 50.3 24.05 3.67 2.08 7.13 4.78 7.59 9.64.27 2.8-.59 4.92-3.73 4.37-4.57-.79-9.38-1.37-13.5-3.3-5.83-2.73-11.15-6.57-16.64-10-6.84-4.27-13.65-8.57-21.78-10.02-.96-.17-1.94-.24-3.37-.41-.42 5.58-.82 10.89-1.2 16.21-.1 1.45-.11 2.91-.21 4.36-.36 5.1-.38 5.16 4.59 6.84 15.73 5.33 30.88 11.88 44.75 21.1 2.41 1.6 4.74 3.39 6.84 5.38 2.33 2.2 3.45 7.49 2.32 9.3-1.05 1.69-6.03 2.46-9.17 1.28-1.56-.59-3.03-1.42-4.49-2.24-9.14-5.18-18.36-10.22-27.36-15.64-13.86-8.34-28.11-9.25-43.08-3.4-16.58 6.48-32.69 13.9-48.04 22.93-2.38 1.4-5.03 2.37-7.64 3.29-1.21.43-2.73.59-3.95.25-1.87-.51-4.65-1.12-5.19-2.45-1.53-3.76-.14-6.67 2.9-8.29 9.96-5.33 20.08-10.37 29.82-16.06 12.46-7.28 25.64-12.59 39.61-15.98 3.11-.75 4.33-2.01 4.17-5.38-.32-6.58-.09-13.18-.09-20.8-5.84 1.5-11.61 2.12-16.6 4.44-14.48 6.73-28.61 14.2-42.95 21.25-2.76 1.36-5.74 2.48-8.75 3.1-2.62.54-5.76.43-6.76-2.8-.92-2.97-.37-5.69 2.4-8.03 8.68-7.31 18.83-11.9 28.91-16.77 12.95-6.25 26.47-10.77 40.27-14.58 2.02-.56 2.96-1.48 3.31-3.49.83-4.72 1.84-9.42 2.92-14.86-5.27-.44-10.33-1.2-15.39-1.22-19.75-.07-39.31 1.6-58.36 7.32-3.62 1.09-6.2 3.09-8.33 6.21-5.28 7.77-7.55 16.33-7.78 25.61-1.04 42.51-2.37 85.01-3.13 127.52-.68 37.71-.72 75.43-1.14 113.15-.03 2.87-.68 5.75-1.31 8.57-.61 2.74-2.56 3.98-5.38 4.1-2.9.13-4.04-1.43-4.87-3.95-3.22-9.74-3.51-19.78-3.33-29.87.8-43.97 1.73-87.94 2.49-131.92.31-18.24.06-36.49.53-54.73.18-6.89 1.68-13.74 2.55-20.61 1.72-13.52 2.67-27.18 7.35-40.16.99-2.73 1.93-5.49 3.16-8.11.52-1.11 1.59-2.11 2.65-2.79 10.64-6.8 22.49-9.18 34.91-10.59 16.05-1.83 32.06-2.94 48.19-2.53.53.01 1.06-.1 2.51-.25 0-8.34-.38-16.62.19-24.83.22-3.15 2.56-6.19 4.13-9.18.2-.39 1.61-.39 2.37-.21 5.52 1.31 8.36 5.66 7.74 11.59-.56 5.33-1.41 10.66-1.5 16.01-.11 6.13.19 6.09 6.3 6.33 16.31.62 32.64 1.07 48.93 2.02 5.52.32 11.08 1.56 16.42 3.09 15.65 4.47 23.13 16.47 25.96 31.25 2.05 10.69 2.52 21.77 2.84 32.7.99 34.34 1.79 68.68 2.26 103.03.4 29.99.26 59.99.33 89.98.05 13.62.02 27.27.02 41.24z"/><path d="m224.35 205.93c-1.95-.09-3.82-.24-5.69-.25-24.72-.2-49.45-.38-74.17-.57-4.58-.03-9.19.21-13.73-.24-2.28-.22-4.91-1.18-6.55-2.7-3.36-3.13-2.25-7.23 1.73-9.13 4.45-2.12 9.01-2.79 13.93-2.78 36.48.09 72.96-.03 109.45-.02 4.13 0 8.28.16 12.38.66 4.05.49 6.97 2.79 8.46 6.74.75 1.99.52 3.68-1.66 4.27-4.27 1.16-8.57 2.57-12.93 2.95-5.85.5-11.77.12-18.09.12.26 4.73.79 8.5.61 12.24-.59 12.15-1.38 24.3-2.23 36.44-.42 6.02-.87 12.07-1.81 18.02-1.34 8.44-5.69 15.35-11.68 21.42-6.24 6.33-11.88 13.21-13.42 22.35-2.7 16.04-.71 31.18 9.16 44.69 1.25 1.7 2.44 3.5 3.32 5.41 1.54 3.33.88 7.23-1.18 8.67-1.95 1.35-6.65.36-8.9-2.02-7.95-8.41-13.08-18.29-15.48-29.62-2.01-9.5-2.59-19.08-1.18-28.67.48-3.23 2.06-6.32 3.25-9.43 2.45-6.37 5.46-12.27 10.3-17.41 6.37-6.77 11.7-14.52 13.91-23.78.97-4.07 1.13-8.38 1.26-12.59.41-14.18.64-28.37.94-42.56.01-.63 0-1.28 0-2.21z"/><path d="m179.72 234.49c.48-4.21.79-8.1 1.42-11.95.33-2.03.8-4.28 1.94-5.91 2.87-4.09 7.03-3.75 8.69.81 1.55 4.26 2.98 8.76 3.28 13.24.93 14.04-.96 27.85-4.5 41.48-1.33 5.12-4.41 8.22-8.95 10.47-7.77 3.86-15.95 4.05-24.23 2.82-6.95-1.03-13.82-2.57-20.76-3.68-2.67-.43-4.06-1.98-5.23-4.14-4-7.44-5.42-15.56-6.33-23.81-1.18-10.71-1.59-21.41.95-32.01.26-1.08.44-2.23.94-3.21 1.04-2.03.57-5.55 4.6-4.81 4.77.88 7.35 3.34 7.26 7.32-.08 3.23-.52 6.45-.47 9.67.04 2.65 1.21 4.03 4.4 3.97 11.18-.24 22.37-.09 33.55-.1.99.01 1.98-.08 3.44-.16zm-40.07 14.25c.7 6.36 1.43 12.35 1.99 18.35.2 2.13 1.07 3.19 3.2 3.42 3.55.37 7.07 1.12 10.62 1.25 6.7.26 13.45.35 19.75-2.51.98-.44 2.34-1.5 2.37-2.31.2-6 .11-12.01.11-18.19-12.81-.01-25.27-.01-38.04-.01z"/></g><path d="m377.9 391.2c-.2.3-.4.5-.6.8-.7-.6-1.4-1-2.2-1.5.2-.3.4-.5.5-.8.6.4 1.4.8 2.3 1.5zm-1.8 6.1c-.2-.2-.5-.4-.9-.6.4-.6.8-1.2 1.2-1.9s.7-1.3.9-1.9c.3.3.5.5.8.7-.7 1.3-1.4 2.6-2 3.7zm2.2-9c-.3.3-.5.5-.6.8-.6-.6-1.3-1.1-2-1.5.3-.3.5-.5.6-.7.6.5 1.3.9 2 1.4zm.3.2v-.9h2 4.5c-.3 1.3-.6 2.5-1 3.6s-.9 2.1-1.4 3c.4.5 1 1 1.6 1.4s1.2.8 1.9 1.1c-.3.2-.5.4-.8.8-.4-.3-1-.7-1.6-1.2s-1.2-1.1-1.6-1.6c-.5.6-1.1 1.1-1.7 1.6s-1.4.9-2.1 1.4c-.1-.3-.3-.5-.7-.8.6-.2 1.2-.5 1.9-1s1.4-1.1 2-1.8c-.5-.8-.9-1.6-1.2-2.5s-.6-2-.8-3.2c-.4.1-.7.1-1 .1zm2.5 2.7c.3 1 .7 1.7 1 2.2.3-.5.6-1.1 1-2s.6-1.9.9-3h-3.2-.4c.1.9.3 1.8.7 2.8z" fill="#fcfbfa"/><path d="m396.5 388.5v1.5 3.6h1.5v.9c-.4 0-1 0-1.7 0h-7.9c-.5 0-.9 0-1.2 0v-.9h1.3v-3.5c0-.7 0-1.2 0-1.6h2.4c0-.8 0-1.4 0-1.7h1c0 .3-.1.8-.1 1.7h1.5c0-.8 0-1.4 0-1.7h1c0 .3-.1.9-.1 1.7zm-8.2 9.2c-.2-.3-.5-.5-.8-.8.8-.3 1.4-.6 1.9-.9s1-.7 1.4-1.1c.3.3.6.5.9.8-1.6 1-2.8 1.6-3.4 2zm2.6-6.8v-1.6h-1.5v1.6zm0 2.7v-1.9h-1.5v1.9zm2.4-2.7v-1.6h-1.5v1.6zm0 2.7v-1.9h-1.5v1.9zm.2 2 .7-.8c.4.2.9.5 1.6.8s1.3.7 1.8 1c-.3.3-.5.5-.8.8-.4-.3-1.5-1-3.3-1.8zm2-4.7v-1.6h-1.4v1.6zm0 2.7v-1.9h-1.4v1.9z" fill="#fcfbfa"/></svg>