<svg enable-background="new 0 0 400 400" viewBox="0 0 400 400" xmlns="http://www.w3.org/2000/svg"><g fill="#010103"><path d="m89.41 237.04c.33-31.22.45-62.44 1.09-93.66.3-14.73.27-29.59 4.55-43.93 1.37-4.59 2.99-9.13 4.77-13.58 4.58-11.46 13.03-17.78 25.38-19.16 12.22-1.36 24.37-3.45 36.62-4.51 8.45-.73 17-.43 25.5-.18 3.37.1 4.35-1.38 4.5-4.15.28-5.25.23-10.53.77-15.75.51-4.86 1.62-9.66 2.45-14.48.37-2.13 1.6-2.33 3.42-1.73 4.61 1.52 7.55 5.42 7.37 10.82-.15 4.68-1.02 9.33-1.31 14.01-.16 2.66.1 5.36.35 8.02.21 2.34 1.41 3.24 4 3.24 12.86.03 25.76-.22 38.58.7 9.4.67 18.92 2.18 27.98 4.76 16.15 4.59 24.16 16.88 27.11 32.68 1.08 5.78 1.24 11.78 1.38 17.7.92 38.36 2.02 76.73 2.48 115.1.45 38.15.23 76.31.27 114.47.01 7.61-.21 15.22-.13 22.83.03 3.05-1.6 4.61-4.12 5.28-2.73.73-4.63-.38-5.74-3.19-3.61-9.14-4.28-18.69-4.28-28.35-.01-57.85.15-115.7-.1-173.55-.08-19.56-1.05-39.13-1.85-58.68-.33-8.18-3.13-15.74-7.35-22.74-3.84-6.37-10.42-7.64-16.96-8.83-23.98-4.35-48.18-6.36-72.48-4.62-16.42 1.18-32.8 2.09-49.26 1.78-8.17-.16-15.83 2.37-23.24 5.76-5.34 2.45-8.16 7.12-10.07 12.04-2.15 5.54-3.98 11.5-4.39 17.38-3.39 49.37-3.03 98.84-3.8 148.28-.55 35.13-.59 70.28-.86 105.41-.05 6.19-2.28 8.7-7.54 8.85-2.03.06-3.27-.58-3.6-2.53-1.28-7.57-3.46-15.15-3.54-22.74-.18-17.22.87-34.45 1.06-51.67.22-20.36.05-40.73.05-61.09.33.01.64.01.94.01z"/><path d="m153.2 158.9c-6.76-5.94-13.38-11.76-20.38-17.91-2.13 5.12-4.11 9.94-6.15 14.74-.96 2.25-1.88 4.55-3.13 6.65-1.86 3.13-4.75 4.45-8.44 4.5-2.47.04-3.8-1.13-3.67-3.24.27-4.4.07-9.17 1.72-13.08 3.21-7.58 7.41-14.75 11.47-21.94 11.83-21 30.22-34.35 51.97-43.38 13.4-5.56 29.26 6.04 28.39 20.42-.57 9.44-3.97 17.79-10.53 24.76-15.75 16.74-30.36 34.38-42.03 54.26-6.55 11.15-10.98 23.14-13.6 35.86-1.12 5.41-3.22 10.66-5.28 15.82-1.46 3.63-4.48 5.74-8.51 6.23-1.86.23-3.25-.28-3.22-2.3.08-5.53-.29-11.18.71-16.55 1.01-5.42 3.29-10.64 5.33-15.83 2.61-6.65 5.71-13.12 8.26-19.79 3.54-9.26 8.09-17.89 14.45-25.53.89-1.1 1.67-2.32 2.64-3.69zm-13.91-30.09c7.33 6.67 14.4 13.1 21.55 19.6 3.72-4.13 8.11-8.99 12.64-14.01-7.5-6.42-14.69-12.58-22.01-18.84-3.98 4.33-7.75 8.43-12.18 13.25zm25.87-22.03c5.53 5.54 11.01 11.03 16.55 16.58 1.25-1.36 2.65-3.1 4.28-4.62 4.7-4.37 5.34-10.12 5.28-15.96-.04-4.29-4.54-6.75-8.37-4.87-5.99 2.94-11.95 5.97-17.74 8.87z"/><path d="m247.63 174.68c-7.08 1.31-13.83 3.11-20.68 3.67-8.65.7-17.42.93-26.06.32-6.5-.46-9.93-4.6-10.6-10.32 6.79-3.87 14.36-4.38 21.95-4.9 9.13-.63 18.24-1.4 27.36-2.16 1.21-.1 2.39-.47 3.52-.7.08-.38.16-.57.16-.77-.05-6.36-3.49-9.96-9.38-11.65-4.82-1.38-9.63-2.82-14.42-4.31-2.44-.76-5.04-1.36-7.16-2.67-1.67-1.04-3.19-2.87-3.95-4.7-1.48-3.55-.26-5.63 3.44-6.76 5.59-1.69 11.08-.79 16.43 1.04 5.6 1.92 11.17 3.93 16.67 6.12 1.32.53 2.57 1.72 3.38 2.93 3.22 4.81 6.26 9.74 9.46 14.79 5.36-5.56 6.48-11.89 5-18.85-.65-3.06-1.8-6.03-2.23-9.11-1.07-7.76-5.51-12.74-12.59-15.31-2.98-1.08-6.31-1.36-9.51-1.63-4.56-.39-9.16-.38-13.73-.66-1.31-.08-2.68-.38-3.89-.89-3.24-1.36-5.92-5.47-4.48-8.39 1.02-2.05 4.18-4.3 6.39-4.3 10.47 0 21.09-.33 31.19 3.27 10.89 3.88 17.35 11.99 20.43 22.78 3.1 10.83 3.15 21.78.43 32.82-1.17 4.74-4.28 7.86-7.55 10.76-4.23 3.74-5.14 7.47-3.8 13.13 4.66 19.67 8.73 39.49 12.7 59.32.81 4.06.45 8.42.15 12.61-.16 2.25-.95 4.99-3.93 5.11-2.88.12-5.66-.81-6.71-3.93-2.5-7.38-5.5-14.67-7.15-22.24-3.78-17.35-6.86-34.85-10.24-52.29-.11-.67-.35-1.29-.6-2.13z"/><path d="m188.96 250.29c-6.67-1.7-13.12-1.16-19.55-.63-3.78.31-7.55 1.12-11.33 1.17-3.18.05-6.49-.27-9.53-1.15-3.54-1.04-5.56-4.73-5.42-8.42.06-1.65 3.81-4.33 6.58-4.66.77-.09 1.56-.02 2.35-.02 27.29 0 54.59-.02 81.88.03 3.46.01 6.93.29 10.36.69 3.82.45 5.64 2.68 5.6 6.26-.02 2.1-.79 3.44-2.83 4.38-7.1 3.28-14.61 2.84-22.08 2.69-5.36-.1-10.72-.46-16.08-.66-5.47-.2-6.36.62-6.32 5.95.19 24.16.41 48.31.62 72.47.05 5.58.21 11.16.03 16.72-.06 1.67-.63 3.98-1.81 4.82-1.93 1.37-4.53 2.22-6.89 2.35-.95.05-2.44-2.24-2.99-3.73-3.59-9.71-4.09-19.86-3.9-30.07.4-21.35.86-42.71 1.3-64.06.04-1.33.01-2.66.01-4.13z"/><path d="m156.96 272.22c-1.22 11.75-2.44 23.64-3.68 35.54-.77 7.34-1.56 14.67-2.36 22.01-.31 2.88-2.45 4.98-5.33 4.8-2.68-.17-5.18-.58-5.77-4.21-1.84-11.39-1.15-22.75-.03-34.11.88-8.9 1.85-17.79 3.18-26.63.5-3.33 1.97-6.55 3.27-9.71 1.06-2.6 3.06-2.43 5.22-1.2 4.04 2.3 4.51 6.4 5.27 10.34.19.99.15 2.01.23 3.17z"/><path d="m196.31 200.29c10.05 0 20.11-.03 30.16.04 1.2.01 2.46.33 3.57.79 2.88 1.19 4.02 3.84 3.71 6.53-.18 1.59-1.83 3.38-3.3 4.37-1.49.99-3.55 1.47-5.39 1.54-14.29.56-28.58 1.33-42.87 1.24-6.14-.04-12.26-1.99-18.4-3.03-3.39-.57-2.09-3.45-2.6-5.36-.43-1.58-.5-3.08 1.49-4.22 2.79-1.6 5.49-2.59 8.8-2.51 8.27.2 16.55.07 24.82.07.01.17.01.36.01.54z"/><path d="m244.66 333.51c-1.48-9.15-3.31-17.89-4.21-26.73-1.13-11.11-1.64-22.28-2.11-33.44-.15-3.53.34-7.2 1.26-10.6.51-1.87 2.3-4.24 3.97-4.68 1.45-.38 4.29 1.18 5.17 2.67 1.52 2.6 2.65 5.78 2.8 8.78 1.08 20.21 1.85 40.43 2.72 60.65.02.43-.07.87-.13 1.56-2.93.56-5.82 1.1-9.47 1.79z"/></g><path d="m377.9 391.2c-.2.3-.4.5-.6.8-.7-.6-1.4-1-2.2-1.5.2-.3.4-.5.5-.8.6.4 1.4.8 2.3 1.5zm-1.8 6.1c-.2-.2-.5-.4-.9-.6.4-.6.8-1.2 1.2-1.9s.7-1.3.9-1.9c.3.3.5.5.8.7-.7 1.3-1.4 2.6-2 3.7zm2.2-9c-.3.3-.5.5-.6.8-.6-.6-1.3-1.1-2-1.5.3-.3.5-.5.6-.7.6.5 1.3.9 2 1.4zm.3.2v-.9h2 4.5c-.3 1.3-.6 2.5-1 3.6s-.9 2.1-1.4 3c.4.5 1 1 1.6 1.4s1.2.8 1.9 1.1c-.3.2-.5.4-.8.8-.4-.3-1-.7-1.6-1.2s-1.2-1.1-1.6-1.6c-.5.6-1.1 1.1-1.7 1.6s-1.4.9-2.1 1.4c-.1-.3-.3-.5-.7-.8.6-.2 1.2-.5 1.9-1s1.4-1.1 2-1.8c-.5-.8-.9-1.6-1.2-2.5s-.6-2-.8-3.2c-.4.1-.7.1-1 .1zm2.5 2.7c.3 1 .7 1.7 1 2.2.3-.5.6-1.1 1-2s.6-1.9.9-3h-3.2-.4c.1.9.3 1.8.7 2.8z" fill="#fcfbfa"/><path d="m396.5 388.5v1.5 3.6h1.5v.9c-.4 0-1 0-1.7 0h-7.9c-.5 0-.9 0-1.2 0v-.9h1.3v-3.5c0-.7 0-1.2 0-1.6h2.4c0-.8 0-1.4 0-1.7h1c0 .3-.1.8-.1 1.7h1.5c0-.8 0-1.4 0-1.7h1c0 .3-.1.9-.1 1.7zm-8.2 9.2c-.2-.3-.5-.5-.8-.8.8-.3 1.4-.6 1.9-.9s1-.7 1.4-1.1c.3.3.6.5.9.8-1.6 1-2.8 1.6-3.4 2zm2.6-6.8v-1.6h-1.5v1.6zm0 2.7v-1.9h-1.5v1.9zm2.4-2.7v-1.6h-1.5v1.6zm0 2.7v-1.9h-1.5v1.9zm.2 2 .7-.8c.4.2.9.5 1.6.8s1.3.7 1.8 1c-.3.3-.5.5-.8.8-.4-.3-1.5-1-3.3-1.8zm2-4.7v-1.6h-1.4v1.6zm0 2.7v-1.9h-1.4v1.9z" fill="#fcfbfa"/></svg>