<svg enable-background="new 0 0 400 400" viewBox="0 0 400 400" xmlns="http://www.w3.org/2000/svg"><path d="m303.64 372.99c-3.27.56-6.1 1.2-8.96 1.45-.82.07-1.95-.79-2.57-1.53-6.7-7.89-9.08-17.46-10.87-27.37-6.14-33.96-7.65-68.19-6.97-102.63.52-25.96.46-51.93.15-77.89-.07-6.13-1.93-12.3-3.42-18.34-1.13-4.58-4.37-7.61-9.15-8.24-7.07-.94-14.18-2.08-21.28-2.19-38.27-.57-76.54-.84-114.81-1.22-4.47-.04-8.95-.08-13.42-.24-2.03-.07-3.02.42-3.1 2.73-.83 24.6-2.17 49.19-2.55 73.8-.45 28.99-.26 57.99-.05 86.98.13 17.67.97 35.33 1.13 53 .04 4.84-.83 9.8-2.01 14.52-1.04 4.17-4.18 5.97-7.94 5.88-2.01-.05-3.08-.62-3.64-2.92-2.61-10.78-3.41-21.69-2.3-32.66 1.4-13.86.9-27.69.6-41.57-.8-37.15-1.23-74.31-1.53-111.46-.12-14.98-.03-30 .87-44.95.97-16.18 5.2-31.76 11.91-46.54 1.05-2.32 3.66-4.09 5.85-5.71 7.51-5.53 16.48-7.04 25.36-7.71 15.82-1.19 31.7-1.65 47.57-2.24 18.22-.68 36.44-1.28 54.67-1.66 6.02-.13 12.06.83 18.08.71 6.34-.13 12.7-.76 19-1.58 5.42-.71 8.93-4.42 9.34-9.58.48-6.04-.29-12.19-.76-18.27-.07-.85-1.44-1.88-2.43-2.34-6.29-2.92-13.04-2.78-19.76-2.67-13.31.21-26.62.58-39.94.64-23.51.11-47.02-.03-70.53.05-11.62.04-23.25.54-34.87.42-3.34-.04-6.76-1.26-9.96-2.45-1.51-.56-2.89-2.15-3.77-3.6-2.12-3.47-1.31-4.66 2.17-6.56 8.2-4.49 17.02-2.9 25.64-3 10.52-.12 21.04.21 31.55.27 23.84.14 47.68.31 71.52.3 10.74 0 21.49-.8 32.21-.5 7.43.21 14.83 1.67 22.24 2.62 4.74.61 7.82 3.68 9.27 7.82 1.45 4.16 2.72 8.68 2.62 13.01-.18 7.9-1.4 15.77-2.24 23.65-.86 8.04-6.43 11.54-13.38 13.48-2.67.74-5.49 1.22-8.25 1.3-20.57.6-41.15 1.12-61.73 1.57-21.36.47-42.74.45-64.08 1.46-7.91.38-15.91 2.48-23.52 4.88-9.4 2.96-14.72 11.98-14.84 23.78 4.52 0 9.04-.06 13.56.01 28.08.47 56.16 1.23 84.24 1.36 21.88.1 43.54 1.99 64.99 6.14 1.71.33 3.45 1.58 4.74 2.84 6.13 6.01 9.09 13.69 9.52 21.99.84 16.19 1.06 32.41 1.5 48.62 1.15 42.51 2.1 85.03 3.62 127.53.25 6.9 2.96 13.72 4.62 20.55 1.92 7.92 3.96 15.81 6.09 24.26z" fill="#010103"/><path d="m229.87 201.64c.34-6.48.68-12.71.99-18.93.22-4.46.08-8.97.7-13.37.75-5.31 4.1-8.5 8.67-8.76 1.01-.06 2.57.74 3.05 1.6 2.83 5.12 3.81 10.77 3.46 16.53-.4 6.69-1.57 13.34-1.8 20.03-.44 12.97-.37 25.95-.69 38.92-.25 9.77-3.04 18.94-7.47 27.61-.54 1.06-1.4 2.02-2.31 2.81-9.62 8.35-20.77 13.27-33.55 13.41-10.03.11-20.14-.1-30.1-1.24-15.45-1.77-25.51-10.69-29.25-25.81-1.56-6.32-2.28-13.03-2.19-19.54.23-15.81-.31-31.52-2.31-47.22-1-7.85-1.35-15.87 2.54-23.34 2.76-5.3 5.43-5.73 9.51-1.24 3.79 4.18 3.82 9.32 3.57 14.55-.25 5.13-.4 10.27-.48 15.4-.02 1.2.38 2.42.68 3.61.77 3.08 2.42 4.41 5.93 4.41 22.49.04 44.98.35 67.47.57 1 .01 1.99 0 3.58 0zm-77.94 13.99c1.02 10.38 1.37 19.57 3 28.54.95 5.23 3.85 10.12 6.02 15.1.4.91 1.39 1.82 2.32 2.18 15.42 6.02 31.24 7.49 47.29 3.15 8.17-2.21 14.24-6.76 15.92-16.06 1.73-9.55 4.68-18.89 2.99-28.77-.83-4.86-1.54-5.4-6.16-5.26-13.74.41-27.47.85-41.21 1.09-9.7.17-19.4.03-30.17.03z" fill="#010103"/><g fill="#fcfbfa"><path d="m377.9 391.2c-.2.3-.4.5-.6.8-.7-.6-1.4-1-2.2-1.5.2-.3.4-.5.5-.8.6.4 1.4.8 2.3 1.5zm-1.8 6.1c-.2-.2-.5-.4-.9-.6.4-.6.8-1.2 1.2-1.9s.7-1.3.9-1.9c.3.3.5.5.8.7-.7 1.3-1.4 2.6-2 3.7zm2.2-9c-.3.3-.5.5-.6.8-.6-.6-1.3-1.1-2-1.5.3-.3.5-.5.6-.7.6.5 1.3.9 2 1.4zm.3.2v-.9h2 4.5c-.3 1.3-.6 2.5-1 3.6s-.9 2.1-1.4 3c.4.5 1 1 1.6 1.4s1.2.8 1.9 1.1c-.3.2-.5.4-.8.8-.4-.3-1-.7-1.6-1.2s-1.2-1.1-1.6-1.6c-.5.6-1.1 1.1-1.7 1.6s-1.4.9-2.1 1.4c-.1-.3-.3-.5-.7-.8.6-.2 1.2-.5 1.9-1s1.4-1.1 2-1.8c-.5-.8-.9-1.6-1.2-2.5s-.6-2-.8-3.2c-.4.1-.7.1-1 .1zm2.5 2.7c.3 1 .7 1.7 1 2.2.3-.5.6-1.1 1-2s.6-1.9.9-3h-3.2-.4c.1.9.3 1.8.7 2.8z"/><path d="m396.5 388.5v1.5 3.6h1.5v.9c-.4 0-1 0-1.7 0h-7.9c-.5 0-.9 0-1.2 0v-.9h1.3v-3.5c0-.7 0-1.2 0-1.6h2.4c0-.8 0-1.4 0-1.7h1c0 .3-.1.8-.1 1.7h1.5c0-.8 0-1.4 0-1.7h1c0 .3-.1.9-.1 1.7zm-8.2 9.2c-.2-.3-.5-.5-.8-.8.8-.3 1.4-.6 1.9-.9s1-.7 1.4-1.1c.3.3.6.5.9.8-1.6 1-2.8 1.6-3.4 2zm2.6-6.8v-1.6h-1.5v1.6zm0 2.7v-1.9h-1.5v1.9zm2.4-2.7v-1.6h-1.5v1.6zm0 2.7v-1.9h-1.5v1.9zm.2 2 .7-.8c.4.2.9.5 1.6.8s1.3.7 1.8 1c-.3.3-.5.5-.8.8-.4-.3-1.5-1-3.3-1.8zm2-4.7v-1.6h-1.4v1.6zm0 2.7v-1.9h-1.4v1.9z"/></g></svg>