<svg enable-background="new 0 0 400 400" viewBox="0 0 400 400" xmlns="http://www.w3.org/2000/svg"><path d="m276.23 318.38c1.45-9 4.01-17.98 4.13-27 .43-31.22.02-62.46-.1-93.69-.15-39.41-.35-78.81-.51-118.22-.03-6.15 0-12.31 0-18.69 1.79-.49 3.38-.86 4.94-1.37 1.86-.61 3.46-.32 4.13 1.61 1.29 3.74 3.25 7.54 3.36 11.35 1.09 36.03 2.02 72.07 2.66 108.11.5 28.21 1.36 56.46.43 84.64-.65 19.84-.72 39.85-4.56 59.51-1.59 8.15-4.47 16.1-9.34 22.43-7.9 10.26-17.39 18.73-30.91 22.19-18.84 4.82-37.79 6.89-57.14 6.19-17.96-.65-35.48-3.58-52.9-8.19-13.53-3.58-21.87-11.96-28.13-23.71-5.33-10-6.99-20.9-9.08-31.76-2.99-15.58-3.6-31.28-3.54-47.11.19-45.24-.06-90.48.03-135.73.03-15.44.22-30.9.98-46.32.33-6.63 2.22-13.19 3.57-19.75.41-2 6.07-4.67 7.69-3.58.95.64 1.63 2.18 1.8 3.4 1.25 9.4 3.05 18.8 3.33 28.24.49 16.67.06 33.36-2.94 49.86-.2 1.09-.09 2.23-.09 3.35 0 39.31-.04 78.62.05 117.92.01 4.11.98 8.21 1.2 12.34.54 10.28.71 20.58 1.43 30.84.4 5.65 1.63 11.24 2.53 17.16.88-.41 1.32-.52 1.63-.78 14.72-12.24 29.61-24.28 44.04-36.84 6.21-5.41 11.69-11.72 17.08-17.98 7.1-8.25 9.78-18.36 9.85-28.96.12-16.56-.62-33.13-.59-49.7.07-38.63.43-77.26.57-115.89.03-8.06-.58-16.12-.48-24.17.1-8 2.02-15.67 5.32-22.93 6.31.53 9.68 3.84 9.95 10.14.25 5.8.1 11.63.12 17.44.22 55.54.42 111.08.71 166.62.04 8.61.54 17.23.8 25.84.32 10.59 5.63 18.79 12.31 26.48 14.66 16.87 32.39 30.18 50.01 43.64 1.42 1.08 2.88 2.1 4.33 3.15.43-.03.88-.06 1.33-.08zm-152.18 18.35c3.14 3.71 5.48 8.13 9.14 10.4 5.43 3.36 11.62 5.85 17.8 7.57 25.23 7.04 50.95 7.87 76.83 4.75 13.66-1.65 26.47-5.53 36.3-16 .46-.49 1.02-.87 1.54-1.29 4.86-3.97 4.95-8.93.04-12.94-3.03-2.47-6.22-4.75-9.45-6.96-18.35-12.55-35.74-26.2-49.62-43.8-2.45-3.11-4.71-6.38-7.17-9.73-20.47 27.78-47.36 47.99-75.41 68z" fill="#010103"/><g fill="#fcfbfa"><path d="m377.9 391.2c-.2.3-.4.5-.6.8-.7-.6-1.4-1-2.2-1.5.2-.3.4-.5.5-.8.6.4 1.4.8 2.3 1.5zm-1.8 6.1c-.2-.2-.5-.4-.9-.6.4-.6.8-1.2 1.2-1.9s.7-1.3.9-1.9c.3.3.5.5.8.7-.7 1.3-1.4 2.6-2 3.7zm2.2-9c-.3.3-.5.5-.6.8-.6-.6-1.3-1.1-2-1.5.3-.3.5-.5.6-.7.6.5 1.3.9 2 1.4zm.3.2v-.9h2 4.5c-.3 1.3-.6 2.5-1 3.6s-.9 2.1-1.4 3c.4.5 1 1 1.6 1.4s1.2.8 1.9 1.1c-.3.2-.5.4-.8.8-.4-.3-1-.7-1.6-1.2s-1.2-1.1-1.6-1.6c-.5.6-1.1 1.1-1.7 1.6s-1.4.9-2.1 1.4c-.1-.3-.3-.5-.7-.8.6-.2 1.2-.5 1.9-1s1.4-1.1 2-1.8c-.5-.8-.9-1.6-1.2-2.5s-.6-2-.8-3.2c-.4.1-.7.1-1 .1zm2.5 2.7c.3 1 .7 1.7 1 2.2.3-.5.6-1.1 1-2s.6-1.9.9-3h-3.2-.4c.1.9.3 1.8.7 2.8z"/><path d="m396.5 388.5v1.5 3.6h1.5v.9c-.4 0-1 0-1.7 0h-7.9c-.5 0-.9 0-1.2 0v-.9h1.3v-3.5c0-.7 0-1.2 0-1.6h2.4c0-.8 0-1.4 0-1.7h1c0 .3-.1.8-.1 1.7h1.5c0-.8 0-1.4 0-1.7h1c0 .3-.1.9-.1 1.7zm-8.2 9.2c-.2-.3-.5-.5-.8-.8.8-.3 1.4-.6 1.9-.9s1-.7 1.4-1.1c.3.3.6.5.9.8-1.6 1-2.8 1.6-3.4 2zm2.6-6.8v-1.6h-1.5v1.6zm0 2.7v-1.9h-1.5v1.9zm2.4-2.7v-1.6h-1.5v1.6zm0 2.7v-1.9h-1.5v1.9zm.2 2 .7-.8c.4.2.9.5 1.6.8s1.3.7 1.8 1c-.3.3-.5.5-.8.8-.4-.3-1.5-1-3.3-1.8zm2-4.7v-1.6h-1.4v1.6zm0 2.7v-1.9h-1.4v1.9z"/></g></svg>