<svg enable-background="new 0 0 400 400" viewBox="0 0 400 400" xmlns="http://www.w3.org/2000/svg"><path d="m226.38 308c8.21-10.65 16.15-20.91 24.01-31.23.62-.81.86-2.06.92-3.12.94-16.99 2.37-33.97 2.6-50.97.42-30.57.22-61.14.08-91.72-.09-18.92-.82-37.84-.72-56.75.04-7.21 1.31-14.46 2.58-21.6.63-3.53 2.53-6.84 4-10.63 4.92 3.1 6.67 7.51 7.96 12.13 2.89 10.31 2.25 20.89 2.19 31.39-.25 46.8-.57 93.6-.91 140.41-.08 10.19-.44 20.37-.53 30.56-.07 6.78 1.16 13.35 3.84 19.61.39.91.84 1.84 1.44 2.62 7.84 10.35 15.72 20.66 23.57 31.01.33.43.45 1.01.66 1.53.45-.15.89-.29 1.34-.44 1.31-6.52 3-12.99 3.87-19.56 2.27-17.16 2.27-34.33-.05-51.55-.83-6.16-.5-12.53-.24-18.78.99-23.83-2.08-47.37-4.72-70.95-1.71-15.25-3.51-30.5-2.17-45.87.32-3.73 1.35-7.47 2.56-11.03 1.08-3.17 3.49-5.39 7.03-6.43 5.03 7.72 7.75 16.06 8.47 25.15 2.11 26.66 4.33 53.32 6.46 79.98 1.04 13.05 1.98 26.1 2.99 39.37-1.52.33-2.89.63-4.27.94 3.87.17 3.47 2.94 3.47 5.56.01 23.06.38 46.12-.04 69.16-.21 11.84-2.99 23.24-10.14 33.21-2.93 4.08-5.17 8.65-8 12.8-1.2 1.76-2.86 3.56-4.73 4.44-22.02 10.27-44.61 11.95-67.85 4.42-11.09-3.59-16.07-12.36-19.12-22.48-1.53-5.06-2.35-10.55-2.3-15.84.17-17.71-.15-35.34-2.59-52.93-2.38-17.15-1.09-34.42-.98-51.66.14-22.5-.5-45-.37-67.5.03-5.5 1.34-11.09 2.69-16.48 3.33-13.27 3.77-26.82 3.93-40.33.08-6.37 6.79-9.29 10.98-6.75 1.08.66 2.19 1.93 2.49 3.12 2.54 10.03 2.52 20.3.98 30.37-3.12 20.51-4.47 41.11-4.89 61.82-.03 1.42-.29 2.94-.86 4.22-1.78 4.02-1.82 8.11-1.56 12.44 1.26 20.67 2.53 41.35 3.24 62.04.35 10.16-.68 20.36-.78 30.54-.05 5.24.59 10.48 3.47 15.76zm35-19.92c-11.15 13.67-22.11 27.07-32.98 40.55-.54.67-.58 2.06-.35 3 1.74 7.19 6.97 11.99 12.44 16.13 2.32 1.75 6.32 1.31 9.57 1.79 1.43.21 2.89.37 4.34.35 8.02-.09 16.1.38 24.03-.54 7.59-.88 14.59-3.67 15.91-12.93.22-1.51 1.3-2.91 1.47-4.42.15-1.33.02-3.1-.75-4.06-4.85-6-9.91-11.82-14.9-17.71-6.19-7.31-12.39-14.62-18.78-22.16z" fill="#010103"/><path d="m97.33 307.48c9.93-10.59 21.53-20.1 25.38-34.99 1.34-5.17.79-10.87.83-16.33.27-35.72.61-71.44.65-107.15.03-24.51-.46-49.02-.59-73.54-.05-8.63.36-17.26 3.18-25.53.89-2.61 2.19-5.08 3.27-7.52 5.03.98 7.71 3.49 8.15 7.96.39 3.99.41 8.03.41 12.05.02 54.2-.18 108.4.14 162.6.1 16.1 1.64 32.19 2.59 48.29.07 1.14.54 2.43 1.23 3.34 8.67 11.41 17.41 22.75 26.15 34.11.19.25.48.43 1.58 1.38 0-3.25-.06-5.73.01-8.2.94-34.8 2-69.6 2.79-104.41.32-14.19.39-28.41-.12-42.59-.24-6.75-2.22-13.44-3.22-20.18-.8-5.38-1.63-10.79-1.91-16.22-.43-8.16-.08-16.36-.69-24.5-.44-5.74 5.53-9.33 10.71-8.48.73.12 1.48 1.18 1.91 1.97 4.61 8.39 5.75 17.65 5.95 26.95.31 14.35 1.96 28.53 3.56 42.77 1.04 9.26-.17 18.77-.39 28.16-.41 17.55-1.81 35.12.75 52.64.16 1.1.06 2.24.06 3.36 0 19.04-.01 38.07.02 57.11.01 3.34.07 6.47-2.1 9.51-1.15 1.61-1.2 4.28-1.11 6.45.21 5.48-.79 10.62-2.85 15.69-2.39 5.9-4.67 11.87-6.57 17.94-1.53 4.9-4.82 7.89-9.07 10.19-6.45 3.5-13.47 4.8-20.68 5.04-16.43.55-32.6-.98-48.32-6.19-3.75-1.24-6.31-3.45-8.24-6.83-6.23-10.97-9.49-22.96-11.51-35.21-1.59-9.67-3.09-19.59-2.66-29.31.45-10.26-.59-20.31-1.16-30.44-.03-.56-.29-1.2-.1-1.66 3.63-8.98 1.74-18.35 2.02-27.57.47-15.44.91-30.88 1.39-46.32.3-9.62.75-19.24.96-28.87.16-7.13-.86-14.41.25-21.36 1.78-11.19 3.25-22.32 3.19-33.68-.03-5.34 3.36-9.02 8.19-10.74 2.2-.78 3.2-.14 4.15 1.82 3.75 7.74 5.22 15.93 4.71 24.44-1 16.87-2.25 33.73-3.2 50.61-.94 16.77-1.39 33.56-2.52 50.32-.57 8.44-1.47 16.97-3.46 25.16-2.51 10.33-1.26 20.45-.34 30.68.45 5.02.97 10.03 1.48 15.04.09.89-.02 2.15.51 2.58 5.03 4.08 2.94 9.87 3.7 14.94.21 1.42.03 2.89.03 4.34.28.12.59.25.91.38zm34.22-19.74c-11.21 13.54-22.13 26.69-32.96 39.93-.47.57-.29 2.08.11 2.9 1.83 3.71 3.71 7.4 5.85 10.93.79 1.3 2.19 2.71 3.58 3.08 8.28 2.23 16.57 4.58 25 6.1 10.12 1.82 19.88.33 28.37-6.02 4.7-3.52 3.83-9.42 5.44-14.25.11-.33-.49-.96-.84-1.38-11.41-13.64-22.82-27.28-34.55-41.29z" fill="#010103"/><g fill="#fcfbfa"><path d="m377.9 391.2c-.2.3-.4.5-.6.8-.7-.6-1.4-1-2.2-1.5.2-.3.4-.5.5-.8.6.4 1.4.8 2.3 1.5zm-1.8 6.1c-.2-.2-.5-.4-.9-.6.4-.6.8-1.2 1.2-1.9s.7-1.3.9-1.9c.3.3.5.5.8.7-.7 1.3-1.4 2.6-2 3.7zm2.2-9c-.3.3-.5.5-.6.8-.6-.6-1.3-1.1-2-1.5.3-.3.5-.5.6-.7.6.5 1.3.9 2 1.4zm.3.2v-.9h2 4.5c-.3 1.3-.6 2.5-1 3.6s-.9 2.1-1.4 3c.4.5 1 1 1.6 1.4s1.2.8 1.9 1.1c-.3.2-.5.4-.8.8-.4-.3-1-.7-1.6-1.2s-1.2-1.1-1.6-1.6c-.5.6-1.1 1.1-1.7 1.6s-1.4.9-2.1 1.4c-.1-.3-.3-.5-.7-.8.6-.2 1.2-.5 1.9-1s1.4-1.1 2-1.8c-.5-.8-.9-1.6-1.2-2.5s-.6-2-.8-3.2c-.4.1-.7.1-1 .1zm2.5 2.7c.3 1 .7 1.7 1 2.2.3-.5.6-1.1 1-2s.6-1.9.9-3h-3.2-.4c.1.9.3 1.8.7 2.8z"/><path d="m396.5 388.5v1.5 3.6h1.5v.9c-.4 0-1 0-1.7 0h-7.9c-.5 0-.9 0-1.2 0v-.9h1.3v-3.5c0-.7 0-1.2 0-1.6h2.4c0-.8 0-1.4 0-1.7h1c0 .3-.1.8-.1 1.7h1.5c0-.8 0-1.4 0-1.7h1c0 .3-.1.9-.1 1.7zm-8.2 9.2c-.2-.3-.5-.5-.8-.8.8-.3 1.4-.6 1.9-.9s1-.7 1.4-1.1c.3.3.6.5.9.8-1.6 1-2.8 1.6-3.4 2zm2.6-6.8v-1.6h-1.5v1.6zm0 2.7v-1.9h-1.5v1.9zm2.4-2.7v-1.6h-1.5v1.6zm0 2.7v-1.9h-1.5v1.9zm.2 2 .7-.8c.4.2.9.5 1.6.8s1.3.7 1.8 1c-.3.3-.5.5-.8.8-.4-.3-1.5-1-3.3-1.8zm2-4.7v-1.6h-1.4v1.6zm0 2.7v-1.9h-1.4v1.9z"/></g></svg>