<svg enable-background="new 0 0 400 400" viewBox="0 0 400 400" xmlns="http://www.w3.org/2000/svg"><g fill="#010103"><path d="m108.92 135.31c-4.31-1.19-8.03-2.38-11.84-3.23-9.47-2.1-15.01-8.17-18.11-17.06-4.24-12.18-4.68-24.76-4.2-37.44.14-3.79.85-7.56 1.02-11.36.2-4.44 5.74-6.24 9.22-5.14.73.23 1.28 1.43 1.65 2.29 4.22 9.82 5.42 20.08 3.64 30.57-2.23 13.15 6.42 22.22 17.38 26.11 2.04-10.16 2.23-20.37 1.77-30.65-.39-8.6-.97-17.21-.77-25.8.17-7.51 2.99-14.38 7.26-20.61 1.69-2.47 3.74-4.26 6.71-5.18 12.47-3.87 24.84-8.1 37.38-11.7 3.13-.9 6.81-.18 10.19.22 2.6.31 3.86 2.32 4.42 4.87.41 1.88-.02 3.04-1.6 4.26-6.63 5.11-14.47 6.6-22.36 8.41-6.03 1.39-11.84 3.8-17.64 6.06-4.57 1.78-6.62 5.86-6.86 10.36-1.05 19.45-1.8 38.91-2.65 58.36-.01.2.12.41.32 1.01 3.53-.29 7.16-.5 10.76-.97.85-.11 1.7-1.01 2.34-1.74 4.85-5.58 7.74-11.97 7.98-19.46.24-7.61.45-15.22.84-22.82.13-2.55.65-5.09 1.21-7.59.26-1.17.9-2.3 1.58-3.31 1.8-2.65 4.7-3.32 7.43-2.67 1.3.31 2.51 2.46 3.1 4.02 3.31 8.67 2.93 17.61 1.1 26.47-1.95 9.41-4.29 18.74-6.65 28.05-.41 1.6-1.52 3.23-2.75 4.39-5.14 4.83-10.84 8.3-18.25 8.98-8.3.77-8.27 1.17-8.61 9.45-.35 8.42-.35 8.42 7.61 11.52 1.56.61 3.06 1.47 4.68 1.82 10.05 2.2 13.82 9.88 16.01 18.65 3.35 13.45 3.65 27.24 4.02 41 .57 20.92 1.44 41.84 1.76 62.77.22 14.32-.33 28.65-.46 42.98-.03 2.87-2.04 4.22-4.1 4.52-1.78.26-4.87-.44-5.47-1.65-1.83-3.71-3.74-7.85-3.85-11.87-.55-19.8-.46-39.61-.75-59.42-.28-19.14-.57-38.27-1.26-57.4-.2-5.64-1.41-11.32-2.79-16.83-1.87-7.45-7.09-11.79-14.07-12.33v3.64c0 51.84-.01 103.68.01 155.52.01 11.97.27 23.94.11 35.91-.04 2.93-1.07 5.92-2.1 8.72-.53 1.46-1.85 2.82-3.15 3.77-3.21 2.35-5.24 1.68-6.94-1.89-3.11-6.52-3.87-13.45-3.91-20.57-.21-43.54-.44-87.07-.75-130.61-.12-17.46-.48-34.92-.73-52.38-.01-.64-.08-1.29-.13-2.02-2.9.29-4.66 1.5-5.92 4.19-6.01 12.87-9.33 26.51-9.78 40.52-.85 25.94-.8 51.91-.96 77.87-.05 7.6.61 15.21.66 22.81.02 2.97-.37 6.09-1.33 8.88-.61 1.8-2.32 3.65-4.02 4.55-3.46 1.83-5.69.71-7.4-2.84-2.85-5.92-3.34-12.2-3.21-18.65.41-20.7.85-41.39 1.06-62.09.15-15.56-.2-31.14 2.3-46.56 1.71-10.57 3.03-21.25 8.4-30.88 3.61-6.47 9.47-9.62 16.16-11.35 2.25-.59 3.49-1.41 3.76-3.44.61-4.6 1.02-9.25 1.53-14.01z"/><path d="m272.43 158.3c4.9 2.22 9.27 5.17 14.06 6.17 9.87 2.07 15.53 8.68 20.56 16.44 5.86 9.05 7.27 19.29 8.31 29.71 1.27 12.69 3.12 25.31 4.37 38 2.22 22.55 2.37 45.05-.5 67.65-1.44 11.35-.13 23.02-.68 34.52-.33 6.98-1.64 13.94-2.93 20.83-.69 3.73-5.9 5.39-8.92 3.1-.62-.47-.94-1.73-.92-2.61.29-20.36.12-40.74 1.15-61.06.92-18.16 1.05-36.27-.47-54.34-1.42-16.81-3.32-33.62-5.95-50.28-1.07-6.79-4.1-13.44-7.18-19.69-3.87-7.86-11.41-10.96-19.61-12.52-1.98-.38-3.99-.6-5.95-1.03-4.21-.93-7.55.18-11.13 2.83-18.63 13.76-39.06 23.46-62.44 25.63-3.91.36-7.97-.64-11.93-1.23-3.93-.59-2.09-4.14-2.77-6.31-.24-.76 1.01-2.5 1.99-3.06 8.91-5 18.75-6.98 28.66-8.92 16.98-3.32 32.34-9.91 43.32-24 3.8-4.88 6.85-10.34 10.24-15.54-.25-.3-.49-.61-.74-.91-2.81.32-5.66.46-8.43.98-13.5 2.52-27.14 2.58-40.79 2.71-9.38.09-18.77.54-28.15.44-5.4-.05-7.75-2.57-8.34-7.35-.29-2.38.44-3.7 2.83-4.45 8.31-2.63 16.86-3.32 25.49-3.56 13.08-.36 26.18-.43 39.22-1.37 7.07-.51 14.03-2.58 20.95-3.93-1.62-9.81-7.11-16.1-15.68-20.42-9.06-4.57-18.66-6.05-28.55-6.36-9.5-.3-19-.23-28.5-.54-3.09-.1-6.21-.67-9.23-1.39-2.73-.65-3.78-2.86-3.99-5.56-.2-2.68 1.73-3.35 3.62-4.1 9.52-3.8 19.42-5.01 29.6-4.36 15.75 1 31.17 3.64 45.4 10.72 9.53 4.74 17.18 11.73 20.16 22.51.89 3.24 2.7 3.31 5.28 2.61 5.99-1.64 10.01-5.61 13.1-10.79 6.19-10.37 8.17-20.99 1.96-32.08-.75-1.33-1.76-2.61-2.92-3.6-9.97-8.57-21.57-13.23-34.72-13.02-18.56.31-37.11 1.15-55.66 1.75-1.34.04-2.69.1-4.03.06-4.8-.13-7.69-2.55-8.84-7.17-.45-1.8-.18-3.1 1.76-3.61 5.05-1.33 10.06-3.47 15.18-3.76 15.5-.91 31.05-1.59 46.57-1.38 9.33.13 18.73 1.6 27.93 3.34 12.37 2.33 20.56 10.29 25.62 21.57 4.06 9.06 6.74 18.49 6.35 28.55-.29 7.57-2.85 14.19-8.61 19.36-.5.45-1 .9-1.45 1.4-6.64 7.49-14.62 13.02-23.87 16.84-1.49.62-2.96 2.35-3.54 3.9-2.2 5.93-4.05 12-6.26 18.68z"/><path d="m262.07 307.89c3.19-6.15 4.21-12.58 4.31-19.06.23-14.1 0-28.2.14-42.3.03-2.99.67-6 1.3-8.94.6-2.83 2.59-4.32 5.49-4.59 2.18-.2 4.07.17 4.61 2.67.96 4.44 2.69 8.92 2.61 13.35-.35 18-.81 36.03-2.14 53.98-1 13.5-5.55 26.2-12.36 37.97-.6 1.03-1.51 1.93-2.42 2.74-10.41 9.27-22.77 12.42-36.39 11.4-3.11-.23-6.22-.71-9.3-1.19-16.29-2.54-26.16-13.1-30.87-27.72-9.26-28.73-10.44-58.19-4.52-87.85.88-4.42 3.39-5.99 7.85-4.98.88.2 1.79 1.51 2.18 2.51 3.68 9.48 4.19 19.4 3.7 29.41-.67 13.66-1.05 27.3 2.39 40.72.1.41.27.8.62 1.82 2.22-2.21 4.14-4.14 6.09-6.04 12.06-11.77 17.46-26.31 17.43-42.93-.02-13.99-.52-27.98-.58-41.97-.02-6.01 1.5-11.78 4.89-16.83.58-.86 2.43-1.58 3.41-1.32 4.51 1.21 7.02 4.49 7.13 9.06.19 7.93-.35 15.89.01 23.81.66 14.4 1.07 28.87 2.88 43.14 1.75 14.09 9.92 24.82 21.54 33.14zm-59.66 15.06c1.68 3.22 3.71 7.18 5.83 11.1.34.64.94 1.31 1.58 1.59 10.51 4.56 21.32 7.03 32.57 3.15 7.83-2.7 14.44-7.03 16.98-15.89-12.02-6.68-18.93-18.7-28.22-26.94-9.56 8.97-18.91 17.75-28.74 26.99z"/></g><path d="m377.9 391.2c-.2.3-.4.5-.6.8-.7-.6-1.4-1-2.2-1.5.2-.3.4-.5.5-.8.6.4 1.4.8 2.3 1.5zm-1.8 6.1c-.2-.2-.5-.4-.9-.6.4-.6.8-1.2 1.2-1.9s.7-1.3.9-1.9c.3.3.5.5.8.7-.7 1.3-1.4 2.6-2 3.7zm2.2-9c-.3.3-.5.5-.6.8-.6-.6-1.3-1.1-2-1.5.3-.3.5-.5.6-.7.6.5 1.3.9 2 1.4zm.3.2v-.9h2 4.5c-.3 1.3-.6 2.5-1 3.6s-.9 2.1-1.4 3c.4.5 1 1 1.6 1.4s1.2.8 1.9 1.1c-.3.2-.5.4-.8.8-.4-.3-1-.7-1.6-1.2s-1.2-1.1-1.6-1.6c-.5.6-1.1 1.1-1.7 1.6s-1.4.9-2.1 1.4c-.1-.3-.3-.5-.7-.8.6-.2 1.2-.5 1.9-1s1.4-1.1 2-1.8c-.5-.8-.9-1.6-1.2-2.5s-.6-2-.8-3.2c-.4.1-.7.1-1 .1zm2.5 2.7c.3 1 .7 1.7 1 2.2.3-.5.6-1.1 1-2s.6-1.9.9-3h-3.2-.4c.1.9.3 1.8.7 2.8z" fill="#fcfbfa"/><path d="m396.5 388.5v1.5 3.6h1.5v.9c-.4 0-1 0-1.7 0h-7.9c-.5 0-.9 0-1.2 0v-.9h1.3v-3.5c0-.7 0-1.2 0-1.6h2.4c0-.8 0-1.4 0-1.7h1c0 .3-.1.8-.1 1.7h1.5c0-.8 0-1.4 0-1.7h1c0 .3-.1.9-.1 1.7zm-8.2 9.2c-.2-.3-.5-.5-.8-.8.8-.3 1.4-.6 1.9-.9s1-.7 1.4-1.1c.3.3.6.5.9.8-1.6 1-2.8 1.6-3.4 2zm2.6-6.8v-1.6h-1.5v1.6zm0 2.7v-1.9h-1.5v1.9zm2.4-2.7v-1.6h-1.5v1.6zm0 2.7v-1.9h-1.5v1.9zm.2 2 .7-.8c.4.2.9.5 1.6.8s1.3.7 1.8 1c-.3.3-.5.5-.8.8-.4-.3-1.5-1-3.3-1.8zm2-4.7v-1.6h-1.4v1.6zm0 2.7v-1.9h-1.4v1.9z" fill="#fcfbfa"/></svg>