<svg enable-background="new 0 0 400 400" viewBox="0 0 400 400" xmlns="http://www.w3.org/2000/svg"><path d="m251.88 43.61c-8.54-.19-16.53-.38-24.53-.56-9.05-.21-18.13-.02-27.14-.75-7.59-.61-11.3-4.39-12.28-11.06 5.56-1.82 10.6-5.03 16.97-5 35.27.16 70.54.05 105.8.11 4.35.01 8.73.29 13.05.81 2.16.26 4.46.94 6.27 2.1 4.72 3.01 4.28 9.15-.68 11.47-7.43 3.47-15.35 3.65-23.34 3.31-12.74-.55-25.48-1.07-38.22-1.59-1.08-.04-2.17-.01-2.59-.01 0 7.62-.16 14.87.03 22.1.4 14.98.47 29.96 3.73 44.74 1.28 5.8 3.85 10.06 8.95 12.88 7.04 3.88 14.31 7.41 21.07 11.73 4.73 3.03 9.23 6.72 13.01 10.86 5.6 6.14 6.48 14.33 7.46 22.19 2.29 18.25-2.65 35.2-9.63 51.8-12.94 30.78-31.13 58.24-51.65 84.45-14.11 18.01-29.4 34.92-44.42 52.11-4.63 5.3-9.33 10.56-14.25 15.6-3.42 3.5-7.67 5.4-12.77 4.45-3.79-.7-5.93-3.5-4.79-7.22.86-2.79 2.13-5.82 4.13-7.85 18.66-19.05 36.61-38.71 53.23-59.57 18.89-23.71 34.88-49.25 48.72-76.2 6.61-12.88 12.65-25.93 15.53-40.19 2.08-10.29.65-20.26-3.51-29.85-.46-1.06-1.29-2.19-2.25-2.78-6.18-3.78-12.09-8.3-18.74-10.92-15.82-6.23-24.09-17.81-26.71-34.07-2.98-18.47-2.69-37.01-1.02-55.56.18-2.1.32-4.2.57-7.53z" fill="#010103"/><path d="m127.71 53.54c0 12.89.07 25.07-.01 37.26-.18 28.42-.41 56.85-.71 85.27-.03 2.81.43 4.3 3.72 4.25 9.49-.13 18.99-.15 28.47.11 3.74.1 7.49.92 11.17 1.71 1.34.29 2.63 1.26 3.71 2.2 4.6 3.98 4.16 7.16-1.07 10.09-6.01 3.37-12.62 2.79-19.03 2.75-14.87-.09-29.74-.63-44.61-1.03-14.31-.38-28.61-.9-42.92-1.16-3.73-.07-4.17-2.74-4.99-5.19-.88-2.62-.35-4.64 2.47-6.03 6.93-3.4 14.14-3.48 21.61-2.7 6.52.68 13.11 1.11 19.66 1 4.59-.08 4.67-.68 4.73-5.3.53-39.61 1.05-79.21 1.67-118.82.04-2.62-.93-3.35-3.23-3.37-7.93-.06-15.86-.07-23.79-.3-3.77-.11-7.53-.64-11.29-1.02-.54-.05-1.08-.27-1.6-.48-4.05-1.66-7.94-6.39-6.25-9.1 1.5-2.4 5.39-3.96 8.49-4.55 4-.76 8.25-.19 12.39-.19 20.59 0 41.19-.05 61.78.03 5.8.02 11.62.16 17.38.77 4.76.5 6.6 3.36 5.64 8.03-.24 1.17-1.33 2.57-2.4 3.1-7.64 3.79-15.78 3.23-23.98 2.71-5.43-.32-10.89-.04-17.01-.04z" fill="#010103"/><g fill="#fcfbfa"><path d="m377.9 391.2c-.2.3-.4.5-.6.8-.7-.6-1.4-1-2.2-1.5.2-.3.4-.5.5-.8.6.4 1.4.8 2.3 1.5zm-1.8 6.1c-.2-.2-.5-.4-.9-.6.4-.6.8-1.2 1.2-1.9s.7-1.3.9-1.9c.3.3.5.5.8.7-.7 1.3-1.4 2.6-2 3.7zm2.2-9c-.3.3-.5.5-.6.8-.6-.6-1.3-1.1-2-1.5.3-.3.5-.5.6-.7.6.5 1.3.9 2 1.4zm.3.2v-.9h2 4.5c-.3 1.3-.6 2.5-1 3.6s-.9 2.1-1.4 3c.4.5 1 1 1.6 1.4s1.2.8 1.9 1.1c-.3.2-.5.4-.8.8-.4-.3-1-.7-1.6-1.2s-1.2-1.1-1.6-1.6c-.5.6-1.1 1.1-1.7 1.6s-1.4.9-2.1 1.4c-.1-.3-.3-.5-.7-.8.6-.2 1.2-.5 1.9-1s1.4-1.1 2-1.8c-.5-.8-.9-1.6-1.2-2.5s-.6-2-.8-3.2c-.4.1-.7.1-1 .1zm2.5 2.7c.3 1 .7 1.7 1 2.2.3-.5.6-1.1 1-2s.6-1.9.9-3h-3.2-.4c.1.9.3 1.8.7 2.8z"/><path d="m396.5 388.5v1.5 3.6h1.5v.9c-.4 0-1 0-1.7 0h-7.9c-.5 0-.9 0-1.2 0v-.9h1.3v-3.5c0-.7 0-1.2 0-1.6h2.4c0-.8 0-1.4 0-1.7h1c0 .3-.1.8-.1 1.7h1.5c0-.8 0-1.4 0-1.7h1c0 .3-.1.9-.1 1.7zm-8.2 9.2c-.2-.3-.5-.5-.8-.8.8-.3 1.4-.6 1.9-.9s1-.7 1.4-1.1c.3.3.6.5.9.8-1.6 1-2.8 1.6-3.4 2zm2.6-6.8v-1.6h-1.5v1.6zm0 2.7v-1.9h-1.5v1.9zm2.4-2.7v-1.6h-1.5v1.6zm0 2.7v-1.9h-1.5v1.9zm.2 2 .7-.8c.4.2.9.5 1.6.8s1.3.7 1.8 1c-.3.3-.5.5-.8.8-.4-.3-1.5-1-3.3-1.8zm2-4.7v-1.6h-1.4v1.6zm0 2.7v-1.9h-1.4v1.9z"/></g></svg>