<svg enable-background="new 0 0 400 400" viewBox="0 0 400 400" xmlns="http://www.w3.org/2000/svg"><path d="m202.8 40.62c-10.39-.34-20.22-.67-30.04-.98-7.71-.24-15.43-.39-23.14-.73-1.98-.09-3.99-.57-5.88-1.21-2.81-.95-3.85-3.12-3.65-6.06.19-2.78 1.39-4.02 4.2-5.01 7.39-2.63 14.85-1.43 22.28-1.26 20.46.46 40.93 1.05 61.38 1.79 7.57.27 15.32.19 22.63 1.85 17.91 4.06 23.1 18.87 15.94 35.45-.42.96-1.29 1.79-2.1 2.52-6.71 6.07-14.41 10.46-22.78 13.89-6.08 2.49-11.97 5.5-17.79 8.57-11.9 6.28-18.86 16.74-20.25 29.57-1.68 15.51-1.28 31.24-1.71 46.88-.02.76.47 1.77 1.06 2.27 10.6 8.93 21.25 17.8 32.41 27.12.74-5.98 1.42-11.44 2.09-16.9.42-3.44.71-6.9 1.25-10.33.29-1.81-.21-2.8-1.8-3.78-3.71-2.27-7.31-4.75-10.87-7.26-5.85-4.14-8.07-9.87-7.19-17.07 4.22-.96 7.72-1.27 11.58 2.22 7.09 6.41 15.22 11.45 25.22 12.15 2.09.15 4.2.02 7.25.02-3.19-3.97-5.96-7.1-8.37-10.5-4.22-5.95-9.53-10.49-15.89-14.07-6.52-3.67-12.68-7.99-19.15-11.76-2.54-1.48-3.81-3.11-3.38-6.1.25-1.75.04-3.56.04-6.21 3.54.28 6.92.06 10.01.9 8.18 2.23 15.65 5.95 21.84 11.93 4.67 4.51 9.28 9.09 14.08 13.45 5.25 4.77 10.1 9.85 13.42 16.17 1.53 2.92 3.46 2.32 5.4.88 4.92-3.66 7.24-10.61 5.37-16.54-1.56-4.97-4.04-9.21-8.74-12.22-9.97-6.39-19.66-13.23-29.42-19.85 1-4.74 2.07-5.88 6.52-6.08 2.31-.1 4.75.05 6.96.68 12.05 3.43 22.35 9.41 29.36 20.27 3.88 6.01 8.66 11.59 9.23 19.08.65 8.42-.87 16.21-7.66 22.21-2.9 2.57-6.88 5.12-7.79 8.39-.88 3.14 1.53 7.23 2.58 10.88 2.56 8.91 5.67 17.71 7.64 26.75 2.4 11.01 3.74 22.25 5.73 33.36 5.14 28.59 6.25 57.58 8.99 86.41 1.17 12.37 2.81 24.67 2.33 37.11-.13 3.4-.91 6.89-2.11 10.07-.66 1.75-2.59 3.41-4.35 4.27-3.41 1.65-5.96.32-6.43-3.39-1.17-9.3-2.23-18.63-2.92-27.98-2.64-35.69-4.73-71.43-10.75-106.79-2.68-15.76-4.79-31.62-7.74-47.32-1.03-5.5-3.66-10.73-5.91-15.93-.53-1.22-2.43-2.5-3.77-2.58-5.1-.3-10.23-.12-15.81-.12-.59 4.85-1.25 10.02-1.85 15.21-.78 6.78-1.46 13.57-2.27 20.35-.87 7.28-6.55 10.6-11.97 13.88-5.96 3.6-12.74 4.99-19.58 5.28-16.48.72-32.85-.4-49.08-3.59-4.38-.86-7.03-3.19-9.47-6.59-4.37-6.09-5.6-13.11-6.37-20.23-.88-8.04-1.35-16.13-2.06-24.89-1.86 0-4.72 0-7.58 0-4.37 0-8.74.12-13.1-.05-2.2-.08-3.34.69-4.44 2.62-6.46 11.41-9.62 23.82-11.16 36.66-3.98 33.2-7.95 66.41-11.5 99.65-1.46 13.65-1.71 27.43-2.71 41.13-.41 5.67-1.02 11.37-2.12 16.94-.81 4.11-3.13 7.43-7.9 8.02-2.45.3-4.24-.26-4.4-3.09-.49-8.46-1.99-17.01-1.24-25.36 3.78-41.55 7.9-83.08 12.48-124.56 1.22-11.05 4.24-21.94 6.95-32.78 1.99-7.98 4.82-15.75 7.38-23.97-.28-.21-.91-.84-1.67-1.22-13.65-6.97-16.45-26.79-12.44-37.36 1.86-4.9 4.1-9.44 8.2-12.81 5.87-4.83 11.62-9.84 17.76-14.3 5.77-4.19 12.41-5.88 19.67-5.2 3.82.36 4.6 3.23 5.51 5.87.87 2.53.02 4.51-2.65 6.02-7.98 4.51-15.81 9.3-23.65 14.05-9.86 5.97-13.42 13.93-10.4 25.02.74 2.7 3.76 4.78 5.55 6.92 7.13-8.3 13.57-16.17 20.42-23.67 6.65-7.28 13.74-14.16 22.99-18.22 5.82-2.55 11.83-3.95 18.15-3.06.22.28.43.43.47.63 1.77 7.13 1.64 6.95-4.38 11.29-9.97 7.17-20.04 14.27-29.53 22.05-4.58 3.75-7.95 8.98-11.87 13.54.15.36.29.72.44 1.07 2.75 0 5.69.65 8.21-.12 6.81-2.09 13.55-4.39 18.95-9.54 2.54-2.43 5.64-4.44 8.8-6.03 4.31-2.17 8.04.39 7.65 5.25-.17 2.15-1.22 4.58-2.64 6.22-2.78 3.19-6.2 5.82-9.15 8.88-.86.89-1.52 2.5-1.42 3.72.96 11.82 2.09 23.62 3.21 35.78 7.58-9.31 16.42-17.43 19.71-29.22.92-3.29 1.12-6.83 1.24-10.27.45-12.52-.51-25.24 1.45-37.51 1.8-11.24 4.21-22.9 11.89-32.35 1.27-1.56 1.94-4.03 1.97-6.09.17-12.98.09-25.97.09-38.96.06-1.29.06-2.5.06-4.09zm15.37-.86v37.13c9.15-4.8 17.72-9.91 26.79-13.87 6.56-2.86 9.68-6.74 9.59-13.97-.07-5.18.29-5.66-4.91-7.14-10.28-2.9-20.83-1.44-31.47-2.15zm8.94 167.91c-10.19-9.12-19.73-17.66-29.47-26.38-6.81 8.78-13.45 17.35-20.46 26.38z" fill="#010103"/><path d="m187.52 247.38c-12.4 0-24.81.04-37.21-.05-1.98-.01-4-.47-5.93-1.01-3.09-.86-4.3-3.27-4.72-6.27-.39-2.82 1.29-4.19 3.53-4.89 2.47-.77 5.06-1.61 7.61-1.62 12.3-.04 24.61.21 36.91.34 5.03.05 10.1.46 15.1.04 12.89-1.1 25.07 2.37 37.28 5.5 4.43 1.14 6.04 5.64 5.99 9.57-.08 5.38-1.42 10.75-2.43 16.08-.17.92-1.27 1.78-2.12 2.43-6.24 4.77-13.33 7.25-21.16 7.33-10.62.11-21.26-.37-31.85.2-5.22.28-10.54 1.86-15.45 3.79-5.42 2.13-5.71 10.02-.97 13.43 6.47 4.66 13.88 5.85 21.59 6.12 6.48.23 12.96.49 19.44.76 9.09.37 16.85 4.28 22.93 10.57 8.06 8.34 15.39 17.41 22.8 26.36 1.48 1.79 2.26 4.38 2.77 6.73.96 4.42-3.09 7.67-7.39 5.97-1.59-.63-3.11-1.78-4.3-3.04-8.19-8.58-16.23-17.31-24.48-25.83-1.45-1.49-3.56-2.85-5.56-3.22-15.04-2.8-30.08-5.76-45.23-7.85-17.75-2.44-21.81-12.93-19.46-27.95.07-.44.26-.87.27-1.31.21-8.2 5.31-12.4 12.18-15.5 8.86-4 18.22-4.18 27.61-4.3 8.05-.1 16.11.19 24.16.14 2.43-.01 4.88-.47 7.29-.94 3.03-.59 4.69-2.49 4.54-5.67-.16-3.46-2.65-4.53-5.48-4.68-5.13-.26-10.28-.27-15.42-.29-7.6-.04-15.21-.01-22.81-.01-.03-.3-.03-.61-.03-.93z" fill="#010103"/><g fill="#fcfbfa"><path d="m377.9 391.2c-.2.3-.4.5-.6.8-.7-.6-1.4-1-2.2-1.5.2-.3.4-.5.5-.8.6.4 1.4.8 2.3 1.5zm-1.8 6.1c-.2-.2-.5-.4-.9-.6.4-.6.8-1.2 1.2-1.9s.7-1.3.9-1.9c.3.3.5.5.8.7-.7 1.3-1.4 2.6-2 3.7zm2.2-9c-.3.3-.5.5-.6.8-.6-.6-1.3-1.1-2-1.5.3-.3.5-.5.6-.7.6.5 1.3.9 2 1.4zm.3.2v-.9h2 4.5c-.3 1.3-.6 2.5-1 3.6s-.9 2.1-1.4 3c.4.5 1 1 1.6 1.4s1.2.8 1.9 1.1c-.3.2-.5.4-.8.8-.4-.3-1-.7-1.6-1.2s-1.2-1.1-1.6-1.6c-.5.6-1.1 1.1-1.7 1.6s-1.4.9-2.1 1.4c-.1-.3-.3-.5-.7-.8.6-.2 1.2-.5 1.9-1s1.4-1.1 2-1.8c-.5-.8-.9-1.6-1.2-2.5s-.6-2-.8-3.2c-.4.1-.7.1-1 .1zm2.5 2.7c.3 1 .7 1.7 1 2.2.3-.5.6-1.1 1-2s.6-1.9.9-3h-3.2-.4c.1.9.3 1.8.7 2.8z"/><path d="m396.5 388.5v1.5 3.6h1.5v.9c-.4 0-1 0-1.7 0h-7.9c-.5 0-.9 0-1.2 0v-.9h1.3v-3.5c0-.7 0-1.2 0-1.6h2.4c0-.8 0-1.4 0-1.7h1c0 .3-.1.8-.1 1.7h1.5c0-.8 0-1.4 0-1.7h1c0 .3-.1.9-.1 1.7zm-8.2 9.2c-.2-.3-.5-.5-.8-.8.8-.3 1.4-.6 1.9-.9s1-.7 1.4-1.1c.3.3.6.5.9.8-1.6 1-2.8 1.6-3.4 2zm2.6-6.8v-1.6h-1.5v1.6zm0 2.7v-1.9h-1.5v1.9zm2.4-2.7v-1.6h-1.5v1.6zm0 2.7v-1.9h-1.5v1.9zm.2 2 .7-.8c.4.2.9.5 1.6.8s1.3.7 1.8 1c-.3.3-.5.5-.8.8-.4-.3-1.5-1-3.3-1.8zm2-4.7v-1.6h-1.4v1.6zm0 2.7v-1.9h-1.4v1.9z"/></g></svg>