<svg enable-background="new 0 0 400 400" viewBox="0 0 400 400" xmlns="http://www.w3.org/2000/svg"><g fill="#010103"><path d="m256.76 25.15c6.88.92 10.4 4.86 10.18 11.89-.17 5.24-1.07 10.46-1.33 15.7-.15 3.1.3 6.23.49 9.35.12 1.92 1.14 2.57 3.07 2.59 10.06.1 20.12.25 30.18.54 2.99.09 6.02.46 8.93 1.12 1.55.35 3.11 1.35 4.31 2.44 4.05 3.69 3.51 6.36-1.43 8.5-7.47 3.24-15.32 2.52-23.14 2.37-7.01-.13-14.02-.03-21.37-.03-.38 9.65-.72 18.55-1.08 27.82 7.49.97 14.77 1.92 22.04 2.84 4.1.52 8.29.67 12.31 1.56 5.36 1.19 9.28 4.96 12.61 9 9.86 11.95 9.72 25.35 5.06 39.28-2.59 7.73-8 13.38-13.75 18.72-2.68 2.49-3.67 4.96-3.18 8.73 2.98 23.08 5.68 46.19 8.47 69.29 1.65 13.66 3.3 27.32 4.95 40.98 1.17 9.76 2.49 19.5 3.41 29.29.3 3.17-.23 6.46-.79 9.63-.25 1.42-1.25 2.92-2.32 3.96-3.18 3.08-7.25 1.85-8.46-2.28-5.04-17.17-6.96-34.8-8.45-52.56-1.28-15.38-3.12-30.71-4.82-46.05-1.69-15.23-3.5-30.45-5.27-45.67-.06-.54-.16-1.07-.31-2.13-6.18 1.15-12.23 2.03-18.15 3.45-10.4 2.48-20.85 4.21-31.53 2.82-5.76-.75-9.96-3.79-11.29-10.21 3.72-2.79 8.11-4.09 12.63-4.47 5.1-.43 10.27-.46 15.39-.25 8.57.35 16.97.21 24.94-3.62 2.77-1.33 4.11-2.8 2.75-5.87-.4-.91-.71-1.93-.75-2.91-.33-7.68-5.69-10.03-11.98-10.95-3.71-.54-7.56-.08-11.33-.31-8.22-.51-16.44-1.02-24.63-1.85-2.7-.27-4.61-2.16-4.95-5.16-.25-2.24.36-3.69 2.65-4.71 7.1-3.15 14.55-4.32 22.21-4.4 9.21-.1 18.28.87 27.18 3.44 4.97 1.43 8.96 3.91 11.47 8.51 1.97 3.61 3.9 7.24 5.84 10.85 9.32-7.64 12.05-24.98 5.29-36.56-.46-.79-1.47-1.33-2.33-1.8-9.18-5.09-19.05-7.16-29.43-6.01-11.1 1.23-22.17 2.84-33.24 4.35-6.37.87-11.14-1.58-12.42-6.42-.51-1.91-.19-3.33 1.75-3.99 4.95-1.69 9.84-3.66 14.92-4.88 10.68-2.56 10.39-2.6 10.06-13.37-.55-17.77-.6-35.56-.42-53.34.08-6.7 1.85-13.24 5.06-19.22z"/><path d="m157.51 125.94c0 11.78.06 23.18-.01 34.59-.12 17.12-.32 34.24-.54 51.35-.02 1.78-.33 3.57-.68 5.32-1.01 5.04-5.37 7.37-10.13 5.28-.87-.38-1.59-1.73-1.87-2.76-2.87-10.91-3.38-22.03-3.06-33.28.53-19.02.73-38.05 1.05-57.07.01-.75-.15-1.51-.23-2.23-6.75 0-13.32-.03-19.89.01-2.91.02-5.83.41-8.71.21-2.67-.18-3.8 1.21-4.72 3.3-3.78 8.58-4.55 17.72-4.79 26.91-.32 12.08-.3 24.17-.56 36.25-.06 2.66-.51 5.35-1.08 7.96-.61 2.78-2.41 4.38-5.42 4.63-3.02.25-4.38-1.28-5.35-3.9-2.74-7.39-2.2-14.98-1.57-22.57 1-12.03 1.87-24.09 3.28-36.08.87-7.41 2.56-14.73 4.1-22.05.23-1.11 1.49-2.18 2.52-2.9 7.31-5.14 15.47-6.42 24.26-5.77 4.5.33 9.1-.31 13.63-.79 2.59-.27 3.86-1.7 3.84-4.74-.13-16.44-.01-32.89.04-49.33.03-7.86.35-15.71 3.37-23.09.74-1.81 2.49-4.4 3.92-4.5 3.1-.21 5.9 1.72 6.71 5.02.77 3.11 1.3 6.37 1.32 9.57.12 19.93.16 39.86-.04 59.78-.04 3.73 1.46 5.46 4.73 5.94 5.41.79 10.87 1.25 16.28 2.05 5.29.78 10.61 1.56 15.81 2.77 6.44 1.5 10.46 6.06 11.32 12.35 2.72 19.92 6.89 39.75 5.03 60.05-.43 4.67-1.26 9.29-1.9 13.94-.42 3.08-2.8 4.05-5.26 4.12-2.43.07-4.87-.52-5.24-3.89-.73-6.65-2.08-13.25-2.46-19.91-.86-14.85-1.26-29.73-1.91-44.59-.06-1.43-.38-2.89-.82-4.26-1.7-5.27-3.1-6.23-8.6-6.51-6.81-.34-13.62-.79-20.43-1.15-1.77-.11-3.54-.03-5.94-.03z"/><path d="m199.9 259.5c0 6.43.05 12.67-.01 18.91-.22 21.94-.51 43.88-.71 65.81-.07 7.04.16 14.09-.01 21.13-.05 2.17-.6 4.51-1.59 6.42-2.28 4.41-8.71 4.54-10.59.05-1.47-3.5-2.37-7.52-2.38-11.31-.12-31.91.03-63.81.1-95.72.01-4.33-.15-4.95-4.44-4.62-8.67.65-17.31 1.8-25.93 2.99-1.13.16-2.43 1.53-3.04 2.66-3.72 6.86-4.81 14.44-4.98 22.06-.3 13.2-.11 26.4-.19 39.6-.02 3.35-.1 6.73-.56 10.04-.25 1.78-1.01 3.74-2.16 5.11-3.27 3.89-7.55 3.34-9.57-1.22-.93-2.1-1.69-4.51-1.66-6.77.26-17.9.24-35.83 1.38-53.68.48-7.55 3.46-14.95 5.48-22.37.32-1.16 1.42-2.22 2.39-3.07 6.22-5.4 14.06-6.68 21.75-7.99 5.7-.97 11.53-1.34 17.32-1.54 2.87-.1 4.18-1.14 4.3-3.83.16-3.79.35-7.59.3-11.39-.07-5.35.7-10.44 3.31-15.21.95-1.73 1.97-2.04 3.77-1.51 5.53 1.64 7.88 5.31 7.36 11.49-.42 5.1-.82 10.21-.93 15.32-.07 3.64 1.89 5.78 5.7 6 5.91.35 11.81.78 17.72 1.14 5.99.37 11.75 1.7 16.92 4.8 1.39.83 2.67 2.32 3.33 3.8 10.05 22.43 11.86 46.16 10.56 70.27-.29 5.4-1.95 10.75-3.28 16.05-.85 3.4-4.13 1.66-6.26 2.23-.74.2-2.6-1.06-2.77-1.9-1.36-6.65-3.09-13.33-3.45-20.06-.54-10.16.35-20.38-.14-30.55-.33-6.98-1.78-13.92-3.04-20.83-1.41-7.74-3.25-9.8-11.08-10.83-7.39-.92-14.91-.98-22.92-1.48z"/><path d="m215.83 111.59c-1.29-.43-3.27-.72-4.83-1.68-11.82-7.27-23.24-15-32.75-25.34-3.88-4.22-4.89-8.62-3.59-13.83 1.95-7.76 4.6-15.13 11.15-20.49 3.01-2.47 5.72-5.36 8.3-8.3 1.87-2.12 3.73-1.56 5.72-.66 2.08.94 3.34 2.75 2.45 4.88-1.74 4.16-3.74 8.23-5.94 12.17-2.43 4.35-5.72 8.28-7.71 12.8-2.06 4.69-1.37 5.99 2.86 8.9 5.7 3.93 11.59 7.59 17.37 11.39 2.61 1.72 5.31 3.35 7.7 5.34 1.86 1.55 3.77 3.35 4.87 5.45 3.7 7.03 1.9 8.21-5.6 9.37z"/><path d="m97.84 39.67c3.41 1.87 6.63 3.06 9.12 5.12 7.65 6.35 12.99 14.36 16 23.91 1.95 6.19.35 11.89-3.7 16.24-8.48 9.11-18.03 17.15-29.12 22.97-3.35 1.76-7.38 2.28-11.15 3.13-2.31.52-4.38-.31-4.88-2.85-.49-2.48-.92-5.12 1.81-6.88 6.01-3.88 12.06-7.72 17.97-11.75 3.68-2.51 7.45-5.03 10.65-8.09 5.77-5.53 6.2-9.92 1.95-16.74-1.7-2.73-3.86-5.21-6.05-7.58-4.56-4.93-4.9-10.45-2.6-17.48z"/><path d="m132.26 160.46c-.61 8.25-1.38 16.38-4.94 23.92-.75 1.6-2.21 3.14-3.73 4.03-2.88 1.68-5.73.65-6.44-2.55-.79-3.53-1.74-7.52-.83-10.83 2.49-9.12 1.48-17.88-.46-26.85-.65-3.02-.01-6.37.33-9.54.23-2.18 1.75-2.47 3.71-1.86 5.9 1.83 9.5 5.88 10.81 11.74.86 3.91 1.05 7.96 1.55 11.94z"/><path d="m167.05 161.93c.12-7.15 2.48-14.38 6.49-21.16.97-1.64 1.94-1.99 3.77-1.64 7.04 1.38 8.6 3.74 5.47 10.26-1.88 3.92-1.14 7.61-.76 11.43.7 7.01 1.44 14.03 2.46 21 .51 3.47-.96 5.54-3.91 6.35-2.83.77-5.52-.04-7.23-2.81-4.3-6.94-6.15-14.56-6.29-23.43z"/></g><path d="m377.9 391.2c-.2.3-.4.5-.6.8-.7-.6-1.4-1-2.2-1.5.2-.3.4-.5.5-.8.6.4 1.4.8 2.3 1.5zm-1.8 6.1c-.2-.2-.5-.4-.9-.6.4-.6.8-1.2 1.2-1.9s.7-1.3.9-1.9c.3.3.5.5.8.7-.7 1.3-1.4 2.6-2 3.7zm2.2-9c-.3.3-.5.5-.6.8-.6-.6-1.3-1.1-2-1.5.3-.3.5-.5.6-.7.6.5 1.3.9 2 1.4zm.3.2v-.9h2 4.5c-.3 1.3-.6 2.5-1 3.6s-.9 2.1-1.4 3c.4.5 1 1 1.6 1.4s1.2.8 1.9 1.1c-.3.2-.5.4-.8.8-.4-.3-1-.7-1.6-1.2s-1.2-1.1-1.6-1.6c-.5.6-1.1 1.1-1.7 1.6s-1.4.9-2.1 1.4c-.1-.3-.3-.5-.7-.8.6-.2 1.2-.5 1.9-1s1.4-1.1 2-1.8c-.5-.8-.9-1.6-1.2-2.5s-.6-2-.8-3.2c-.4.1-.7.1-1 .1zm2.5 2.7c.3 1 .7 1.7 1 2.2.3-.5.6-1.1 1-2s.6-1.9.9-3h-3.2-.4c.1.9.3 1.8.7 2.8z" fill="#fcfbfa"/><path d="m396.5 388.5v1.5 3.6h1.5v.9c-.4 0-1 0-1.7 0h-7.9c-.5 0-.9 0-1.2 0v-.9h1.3v-3.5c0-.7 0-1.2 0-1.6h2.4c0-.8 0-1.4 0-1.7h1c0 .3-.1.8-.1 1.7h1.5c0-.8 0-1.4 0-1.7h1c0 .3-.1.9-.1 1.7zm-8.2 9.2c-.2-.3-.5-.5-.8-.8.8-.3 1.4-.6 1.9-.9s1-.7 1.4-1.1c.3.3.6.5.9.8-1.6 1-2.8 1.6-3.4 2zm2.6-6.8v-1.6h-1.5v1.6zm0 2.7v-1.9h-1.5v1.9zm2.4-2.7v-1.6h-1.5v1.6zm0 2.7v-1.9h-1.5v1.9zm.2 2 .7-.8c.4.2.9.5 1.6.8s1.3.7 1.8 1c-.3.3-.5.5-.8.8-.4-.3-1.5-1-3.3-1.8zm2-4.7v-1.6h-1.4v1.6zm0 2.7v-1.9h-1.4v1.9z" fill="#fcfbfa"/></svg>