<svg enable-background="new 0 0 400 400" viewBox="0 0 400 400" xmlns="http://www.w3.org/2000/svg"><path d="m122.95 88.82c0-9.66-.04-19.16.01-28.65.04-7.59-.22-15.22.46-22.76.36-4.07 2.4-7.99 3.7-12.06 5.86 1.24 8.83 4.51 10.35 9.34 2.05 6.51 1.17 13.07.3 19.63-1.38 10.33-2.53 20.65-1.23 31.1.32 2.56 1.58 3.91 3.75 4.5 3.87 1.07 7.78 2.05 11.71 2.82 8.69 1.7 14.65 6.34 17.87 14.84 5.87 15.53 9.38 31.58 9.81 48.1.61 23.16.34 46.33.59 69.5.12 10.63.93 21.26.73 31.88-.1 5.03-1.7 10.06-2.92 15.02-.9 3.64-4.32 1.8-6.57 2.32-.8.19-2.37-.91-2.89-1.82-2.97-5.23-3.67-11.02-3.27-16.9 1.58-23.4-.2-46.76-.76-70.13-.37-15.21-.86-30.43-1.7-45.62-.35-6.45-1.5-12.88-2.65-19.26-1.95-10.8-7.74-15.73-18.78-16.43-.99-.06-1.98-.01-3.4-.01 0 6.13.02 12.15 0 18.16-.24 53.73-.5 107.46-.73 161.2-.11 26.31-.15 52.61-.24 78.92-.01 1.78-.04 3.61-.39 5.34-.71 3.49-3.32 5.47-6.69 5.39-1.95-.05-3.56-.62-3.98-2.77-1.15-5.9-3.06-11.78-3.2-17.71-.31-12.52.51-25.06.52-37.6.07-68.63.03-137.26.03-205.88 0-4.78-2.04-6.17-6.76-4.84-4.49 1.26-7.41 3.97-9.46 8.22-3.84 7.99-4.69 16.6-5.21 25.14-1.22 19.98-1.95 40-2.78 60-.49 11.96-.98 23.94-1.09 35.91-.08 8.49.58 16.99.67 25.48.03 2.99-.24 6.09-1.1 8.93-.6 1.98-2.1 4.05-3.78 5.27-3.79 2.75-6.81 1.81-7.98-2.62-1.22-4.61-2.26-9.42-2.29-14.15-.17-29.55-.05-59.1-.01-88.65.02-19.15 2.4-37.91 8.75-56.09 1.74-4.98 4.3-8.95 8.39-12.49 6.07-5.26 12.31-9.49 20.56-10.02.63-.03 1.24-.41 1.66-.55z" fill="#010103"/><path d="m228.51 98.86c-6 0-12 .06-17.99-.02-3.91-.05-7.81-.27-11.71-.48-.77-.04-1.54-.29-2.28-.53-4.21-1.39-6.44-4.46-5.99-8.2.24-1.98 4.86-4.91 7.98-4.86 7.83.13 15.65.35 23.48.54 19.79.48 39.59.94 59.38 1.48 2.9.08 5.8.46 8.69.76 10.37 1.09 15.04 8.4 18.1 17.09 4.19 11.9 3.78 24.19 2.44 36.51-.57 5.22-1.3 10.46-1.38 15.7-.14 9.08-4.83 14.73-12.34 19.15-11.94 7.02-25.1 9.8-38.43 12.22-11.86 2.15-23.75 4.2-35.57 6.57-5.47 1.1-8.51 5.1-8.81 10.68-.11 2 .01 4.03.18 6.03.45 5.37 2.65 9.04 8.07 11.43 9.68 4.27 19.77 6.2 30.09 7.64 8.39 1.17 16.33 3.91 23.63 8.16 4.46 2.6 7.42 6.73 9.27 11.58 4.66 12.21 6.64 25.01 8.64 37.84 3.59 22.97 7.53 45.89 10.98 68.89.71 4.76-.01 9.74-.15 14.61-.06 2.22-1.42 3.05-3.54 3.02-1.11-.02-2.25.09-3.34.29-2.1.4-2.83-.55-3.42-2.51-5.25-17.29-8.12-35.04-10.55-52.89-2.23-16.4-4.05-32.87-6.85-49.17-2.87-16.65-8.83-21.81-26.21-25.62-7.49-1.64-15.39-1.4-22.91-2.94-5.37-1.1-10.63-3.32-15.54-5.82-5.77-2.94-9.93-7.37-10.03-14.62-.05-3.31-1.39-6.59-1.55-9.92-.16-3.27.37-6.58.72-9.86.13-1.21.83-2.37.88-3.57.34-8.35 6.17-11.36 12.9-13.76 3.76-1.34 7.41-3.03 10.95-4.86.92-.48 1.78-2.08 1.8-3.17.32-25.07.52-50.14.73-75.2-.04-.43-.15-.86-.32-2.19zm67.47 42.96c-17.43 0-34.6 0-51.98 0v33.22c6.24-.76 12.23-1.25 18.13-2.27 10.15-1.75 20.2-3.95 29.24-9.25.95-.56 2.1-1.61 2.24-2.57.91-6.18 1.57-12.39 2.37-19.13zm-52.34-43.7c0 9.22.13 17.36-.06 25.48-.07 3.16 1.06 3.94 4.06 3.87 12.29-.29 24.58-.37 36.87-.5 3.75-.04 7.51-.01 11.45-.01.22-3.24.54-5.78.55-8.33.07-11.73-3.14-16.49-14.77-18-12.67-1.64-25.55-1.75-38.1-2.51z" fill="#010103"/><g fill="#fcfbfa"><path d="m377.9 391.2c-.2.3-.4.5-.6.8-.7-.6-1.4-1-2.2-1.5.2-.3.4-.5.5-.8.6.4 1.4.8 2.3 1.5zm-1.8 6.1c-.2-.2-.5-.4-.9-.6.4-.6.8-1.2 1.2-1.9s.7-1.3.9-1.9c.3.3.5.5.8.7-.7 1.3-1.4 2.6-2 3.7zm2.2-9c-.3.3-.5.5-.6.8-.6-.6-1.3-1.1-2-1.5.3-.3.5-.5.6-.7.6.5 1.3.9 2 1.4zm.3.2v-.9h2 4.5c-.3 1.3-.6 2.5-1 3.6s-.9 2.1-1.4 3c.4.5 1 1 1.6 1.4s1.2.8 1.9 1.1c-.3.2-.5.4-.8.8-.4-.3-1-.7-1.6-1.2s-1.2-1.1-1.6-1.6c-.5.6-1.1 1.1-1.7 1.6s-1.4.9-2.1 1.4c-.1-.3-.3-.5-.7-.8.6-.2 1.2-.5 1.9-1s1.4-1.1 2-1.8c-.5-.8-.9-1.6-1.2-2.5s-.6-2-.8-3.2c-.4.1-.7.1-1 .1zm2.5 2.7c.3 1 .7 1.7 1 2.2.3-.5.6-1.1 1-2s.6-1.9.9-3h-3.2-.4c.1.9.3 1.8.7 2.8z"/><path d="m396.5 388.5v1.5 3.6h1.5v.9c-.4 0-1 0-1.7 0h-7.9c-.5 0-.9 0-1.2 0v-.9h1.3v-3.5c0-.7 0-1.2 0-1.6h2.4c0-.8 0-1.4 0-1.7h1c0 .3-.1.8-.1 1.7h1.5c0-.8 0-1.4 0-1.7h1c0 .3-.1.9-.1 1.7zm-8.2 9.2c-.2-.3-.5-.5-.8-.8.8-.3 1.4-.6 1.9-.9s1-.7 1.4-1.1c.3.3.6.5.9.8-1.6 1-2.8 1.6-3.4 2zm2.6-6.8v-1.6h-1.5v1.6zm0 2.7v-1.9h-1.5v1.9zm2.4-2.7v-1.6h-1.5v1.6zm0 2.7v-1.9h-1.5v1.9zm.2 2 .7-.8c.4.2.9.5 1.6.8s1.3.7 1.8 1c-.3.3-.5.5-.8.8-.4-.3-1.5-1-3.3-1.8zm2-4.7v-1.6h-1.4v1.6zm0 2.7v-1.9h-1.4v1.9z"/></g></svg>