<svg enable-background="new 0 0 400 400" viewBox="0 0 400 400" xmlns="http://www.w3.org/2000/svg"><g fill="#010103"><path d="m123.31 25.05c6.71 1.74 10.61 5.85 10.66 13.03.06 8.02-1.19 16.03-1.49 24.06-.23 6.01.13 12.05.25 18.08.04 1.91.93 2.85 2.95 3.38 4.84 1.27 9.78 2.49 14.32 4.53 7.76 3.49 12.61 9.69 14.8 18.01 3.18 12.07 4.66 24.3 5.06 36.79.75 23.81 2.07 47.61 3.13 71.42.12 2.63.02 5.27.77 8.15 4.68-5.79 9.04-11.86 14.1-17.29 7.55-8.1 10.96-18.32 15.52-27.99 2-4.23 4.24-8.36 6.62-12.39.74-1.25 2.13-2.35 3.47-2.98 3.2-1.5 5.05-.53 6 2.85 1.65 5.88.81 11.65-1.64 17.03-3.56 7.83-7.27 15.62-11.52 23.09-1.94 3.4-5.27 6.03-8.05 8.93-4.88 5.09-9.95 10-14.7 15.22-2.22 2.44-4.39 3.92-7.78 2.98-.93-.26-2-.04-3.48-.04 0 3.92-.01 7.89 0 11.86.04 9.28.21 18.57.07 27.85-.04 2.51-.57 5.21-1.65 7.45-.89 1.86-2.66 3.64-4.49 4.64-2.97 1.63-5.22.76-6.17-2.5-1.27-4.35-3.02-9.01-2.56-13.32 1.48-14.02.22-27.96-.14-41.92-.68-26.41-1.42-52.81-2.47-79.21-.41-10.38-1.44-20.76-2.66-31.09-1.19-10-7.67-15.66-18.05-16.35-.07.95-.19 1.9-.19 2.85-.21 62.58-.43 125.16-.61 187.74-.07 25.3.01 50.61-.17 75.91-.02 2.28-1.06 4.75-2.25 6.77-1.31 2.25-3.68 2.96-6.42 2.66-2.7-.3-3.23-2.37-3.59-4.22-1.15-6.02-2.71-12.08-2.84-18.15-.27-12.64.44-25.29.45-37.93.06-70.2.03-140.4.03-210.6 0-1.32 0-2.64 0-3.92-6.27-.64-10.52 1.35-13.97 6.63-5.51 8.44-7.24 17.9-8 27.41-1.44 18.16-2.05 36.39-2.77 54.6-.63 15.99-1.09 31.99-1.34 48-.14 9.17.52 18.35.38 27.52-.07 4.41-.87 8.88-1.9 13.19-.72 3.02-2.93 5.14-6.19 6.03-2.21.6-3.84.36-4.38-2.05-1.22-5.41-3.22-10.84-3.29-16.28-.26-19.8.17-39.6.3-59.41.1-15.89-.16-31.8.28-47.68.59-21.24 5.29-41.65 13.97-61.08.58-1.3 1.84-2.58 3.11-3.24 5.35-2.78 10.64-5.9 16.31-7.78 6.9-2.29 9.12-6.97 8.81-13.44-.37-8.03-.95-16.05-1.66-24.05-.64-7.68 1.22-17.26 5.06-23.75z"/><path d="m236.5 141.36c.34-6.32.74-12.78 1.03-19.23.5-11.4.51-22.85 1.55-34.2.69-7.51 2.21-15.08 4.44-22.29 3.63-11.75 12.81-18.56 23.6-23.3 6.03-2.65 12.22-5 18.49-7 4.62-1.47 9.15.13 13.08 2.59 3.06 1.92 1.99 7.24-1.53 8.69-9.93 4.07-19.84 8.18-29.84 12.07-3.02 1.17-5.04 3.11-6.64 5.77-4.91 8.17-7 17.24-7.49 26.55-.79 15.08-.88 30.2-1.42 45.3-.11 3.1 1.05 4.3 4.01 4.1 11.26-.78 22.51-1.65 33.77-2.28 3.77-.21 7.62-.13 11.33.43 2.2.33 4.5 1.5 6.25 2.92 4.78 3.88 4.29 7-1.27 9.37-7.71 3.29-15.86 3.3-24.07 3.37-8.14.07-16.28.67-24.42 1.13-2.77.15-3.75 1.58-3.85 4.55-.69 22.15-1.62 44.3-2.46 66.44-.05 1.33-.01 2.66-.01 4.45 4.86.99 9.62 2.37 14.46 2.88 13.97 1.46 23.02 9.42 29.29 21.32 3.82 7.25 5.7 15.02 6.21 23.15.97 15.32-1.31 30.05-7.53 44.2-3.05 6.94-8.01 11.66-14.42 15.26-9.39 5.28-19.49 7.67-30.19 7.83-15.73.23-31-2.02-45.44-8.58-1.37-.62-2.71-1.59-3.72-2.71-14.43-15.91-18.57-34.78-15.51-55.53.89-6.05 2.75-11.96 4.11-17.95 2.56-11.31 10.18-18.32 20-23.34 7.24-3.69 14.88-6.11 23.12-6.24 2.2-.03 4.4-.4 6.37-.6 0-24.18 0-48.1 0-72.5-5.34 0-10.23-.17-15.1.04-7.49.32-14.96 1.19-22.44 1.2-3.07.01-6.53-.98-9.12-2.61-4.93-3.1-4.28-7.41.91-9.66 7.99-3.46 16.54-3.68 24.99-4.43 6.32-.54 12.69-.76 19.46-1.16zm.97 153.22c-12.81 0-25.27 0-37.98 0-.99 8.23-.2 16.3 4.78 23.48 1.29 1.86 2.93 3.83 4.88 4.79 4.29 2.12 8.85 3.68 13.35 5.36 4.95 1.84 9.94 2.03 14.97.18 0-11.13 0-22.06 0-33.81zm.12-16.07c-.36-11.01-.71-21.68-1.06-32.3-7.59-.79-16.14.61-22.09 4.16-3.7 2.21-8.03 4.48-10.18 7.91-2.82 4.51-3.95 10.13-5.41 15.38-.48 1.74.27 3.83.47 5.92 13-.36 25.5-.71 38.27-1.07zm15.55 50.55c16.79 1.23 29.8-8.98 32.22-25.19.32-2.12.01-4.43-.45-6.55-.49-2.27-2.03-3.47-4.63-3.38-4.8.16-9.6.04-14.41.04-4.2 0-8.39 0-12.73 0zm.02-82.86v33.38c10.49-.36 20.79-.72 31.02-1.08 1.77-18.06-12.9-33.18-31.02-32.3z"/><path d="m310.65 233.06c-1.36-.71-3.96-1.37-5.58-3.01-13.52-13.67-25.73-28.42-32.86-46.5-2.15-5.45-2.47-11.71-3.08-17.66-.37-3.69 3.32-5.88 6.61-4.07 1.95 1.07 3.88 2.83 4.93 4.76 5.6 10.3 11.14 20.65 16.24 31.21 2.96 6.13 7.77 10.6 12.12 15.51 3.51 3.96 7.05 7.83 7.92 13.33.52 3.35-1.93 6.36-6.3 6.43z"/><path d="m229.05 131.47c-.69.72-1.8 2.92-3.24 3.16-2.19.37-5.83.22-6.75-1.14-11.74-17.25-24.64-33.9-30.96-54.25-.46-1.49-.72-3.05-.91-4.6-.43-3.53 2.14-6.09 5.39-4.84 2.8 1.08 5.79 2.71 7.63 4.96 3.16 3.86 5.52 8.38 8.16 12.66 4.93 8 9.92 15.96 14.67 24.06 3.37 5.76 5.38 12.03 6.01 19.99z"/><path d="m260.14 131.49c.92-9.85 4.19-18.19 9.02-25.98 6.18-9.96 12.29-19.96 18.6-29.83 1.36-2.12 3.1-4.48 5.25-5.47 1.71-.79 4.71-.28 6.4.81 1.55 1 2.91 3.51 2.93 5.38.03 2.29-1.09 4.77-2.26 6.86-8.42 15.11-16.93 30.18-25.55 45.17-1.19 2.07-2.96 3.92-4.79 5.49-2.55 2.17-6.99 1.58-9.07-.96-.43-.53-.49-1.36-.53-1.47z"/></g><path d="m377.9 391.2c-.2.3-.4.5-.6.8-.7-.6-1.4-1-2.2-1.5.2-.3.4-.5.5-.8.6.4 1.4.8 2.3 1.5zm-1.8 6.1c-.2-.2-.5-.4-.9-.6.4-.6.8-1.2 1.2-1.9s.7-1.3.9-1.9c.3.3.5.5.8.7-.7 1.3-1.4 2.6-2 3.7zm2.2-9c-.3.3-.5.5-.6.8-.6-.6-1.3-1.1-2-1.5.3-.3.5-.5.6-.7.6.5 1.3.9 2 1.4zm.3.2v-.9h2 4.5c-.3 1.3-.6 2.5-1 3.6s-.9 2.1-1.4 3c.4.5 1 1 1.6 1.4s1.2.8 1.9 1.1c-.3.2-.5.4-.8.8-.4-.3-1-.7-1.6-1.2s-1.2-1.1-1.6-1.6c-.5.6-1.1 1.1-1.7 1.6s-1.4.9-2.1 1.4c-.1-.3-.3-.5-.7-.8.6-.2 1.2-.5 1.9-1s1.4-1.1 2-1.8c-.5-.8-.9-1.6-1.2-2.5s-.6-2-.8-3.2c-.4.1-.7.1-1 .1zm2.5 2.7c.3 1 .7 1.7 1 2.2.3-.5.6-1.1 1-2s.6-1.9.9-3h-3.2-.4c.1.9.3 1.8.7 2.8z" fill="#fcfbfa"/><path d="m396.5 388.5v1.5 3.6h1.5v.9c-.4 0-1 0-1.7 0h-7.9c-.5 0-.9 0-1.2 0v-.9h1.3v-3.5c0-.7 0-1.2 0-1.6h2.4c0-.8 0-1.4 0-1.7h1c0 .3-.1.8-.1 1.7h1.5c0-.8 0-1.4 0-1.7h1c0 .3-.1.9-.1 1.7zm-8.2 9.2c-.2-.3-.5-.5-.8-.8.8-.3 1.4-.6 1.9-.9s1-.7 1.4-1.1c.3.3.6.5.9.8-1.6 1-2.8 1.6-3.4 2zm2.6-6.8v-1.6h-1.5v1.6zm0 2.7v-1.9h-1.5v1.9zm2.4-2.7v-1.6h-1.5v1.6zm0 2.7v-1.9h-1.5v1.9zm.2 2 .7-.8c.4.2.9.5 1.6.8s1.3.7 1.8 1c-.3.3-.5.5-.8.8-.4-.3-1.5-1-3.3-1.8zm2-4.7v-1.6h-1.4v1.6zm0 2.7v-1.9h-1.4v1.9z" fill="#fcfbfa"/></svg>