<svg enable-background="new 0 0 400 400" viewBox="0 0 400 400" xmlns="http://www.w3.org/2000/svg"><g fill="#010103"><path d="m169.48 113.92c-4.91.82-9.85 1.63-14.78 2.49-.62.11-1.25.46-1.76.85-7.63 5.95-12.44 13.51-12.06 23.45.41 10.6.71 21.26 2.17 31.74 2.43 17.46 3.74 34.96 2.93 52.53-1.25 27.05-2.81 54.08-4.57 81.1-1.03 15.85-2.71 31.66-4.06 47.48-.23 2.69-1.73 4.08-4.25 4.35-2.88.31-5.72-1.48-5.81-4.09-.44-12.61-1.83-25.33-.75-37.83 3.71-42.8 2.71-85.63 2.4-128.48-.14-19.7-.17-39.4-.19-59.1 0-1.17.43-2.38.86-3.5.48-1.25 1.34-2.35 1.76-3.61 4.07-12.18 13.72-17.54 25.14-20.85 12.46-3.61 25.19-3.58 37.94-2.78 4.67.29 8.74 2.34 10.22 7.32.27.93-.31 2.91-.98 3.18-2.83 1.12-5.83 1.81-8.8 2.56-.6.15-1.32-.17-1.99-.25-7.32-.88-8.32-.07-8.23 7.24.37 29.21.1 58.44 1.41 87.61.96 21.53 3.7 43 6.2 64.43 2.37 20.32 5.54 40.55 8.14 60.85.37 2.9-.1 6.06-.89 8.92-1.09 3.98-5.08 5.56-8.87 3.85-.73-.33-1.35-1.35-1.6-2.19-4.82-16-8.02-32.34-9.32-49-1.68-21.52-2.35-43.16-4.85-64.58-4.2-36.01-2.58-72.19-4.64-108.25-.08-1.45-.13-2.9-.24-4.35-.02-.31-.28-.59-.53-1.09z"/><path d="m206.91 25.48c4.57 2.9 6.74 6.95 7.05 11.87.22 3.33-.17 6.69-.28 10.04-.09 2.79-.39 5.6-.21 8.37.4 6.19 1.83 7.31 8.02 7.54 20.67.79 41.33 1.66 62 2.52 5.47.23 10.95.34 16.41.81 4.49.39 6.8 2.63 7.87 6.57.57 2.1.18 3.63-2 4.14-4.11.97-8.27 2.53-12.39 2.48-11.05-.12-22.09-1-33.14-1.51-8.82-.4-17.64-.8-26.46-1.01-29.29-.7-58.58-1.57-87.88-1.81-8.41-.07-17.13.69-25.18 2.95-13.29 3.73-15.85 8.43-16.72 20.34-.52 7.2.29 14.5.58 21.76.67 16.87 1.67 33.74 2.02 50.61.65 30.76 1.47 61.53 1.17 92.29-.2 19.76-1.99 39.53-3.61 59.25-1.19 14.48-3.19 28.9-5.05 43.31-.33 2.55-1.47 5.12-2.73 7.4-1.46 2.65-4.4 2.94-6.83 2.05-1.55-.57-3.41-2.51-3.62-4.04-.51-3.69-.42-7.53-.08-11.27 1.19-13.03 2.89-26.01 3.85-39.05 4.15-55.95 3.8-112 3.01-168.05-.16-10.94-1.46-21.86-1.8-32.81-.43-13.69 1.05-27.25 3.93-40.64.25-1.17 1.16-2.39 2.1-3.17 12.49-10.43 27.22-13.92 43.11-13.8 19.57.15 39.14.2 58.7.48 2.35.03 2.79-1.16 2.89-2.69.25-4.01.37-8.04.32-12.06-.08-7.45.48-14.75 4.04-21.5.21-.41.49-.75.91-1.37z"/><path d="m247.24 122.56c-6.44 1.12-12.61 2.1-18.72 3.34-.95.19-1.92 1.44-2.43 2.43-3.53 6.79-3.16 14.1-2.35 21.35 3.43 30.56 6.66 61.14 10.63 91.62 2.29 17.6 5.74 35.06 8.86 52.55 3.24 18.15 6.76 36.26 10.05 54.4.33 1.81.25 3.81-.18 5.6-.66 2.77-2.63 4.49-5.6 4.32-2.89-.17-5.18-1.07-6.2-4.47-7.25-24.16-11.63-48.9-15.21-73.81-2.22-15.49-4.89-30.93-6.84-46.45-1.66-13.2-2.39-26.51-3.9-39.73-1.16-10.21-2.95-20.34-4.34-30.53-1.82-13.38-2.65-26.74 1.95-39.79.55-1.56 1.68-3.14 2.97-4.18 9.07-7.37 19.87-10.57 31.19-11.99 10.19-1.28 20.46-2.01 30.7-2.8 2.53-.19 5.22-.03 7.65.64 1.88.52 3.98 1.73 5.1 3.28 2.59 3.59 1.82 6.07-2.43 7.07-5.62 1.33-11.4 1.95-17.13 2.83-3.27.5-6.55.92-10.09 1.42 1.05 7.66 1.99 14.72 2.99 21.78 3.92 27.67 8.28 55.29 11.66 83.03 3.22 26.49 9.56 52.29 15.32 78.25 1.83 8.26 3.39 16.62 4.28 25.03.6 5.7-2.53 7.88-7.57 6.27-.98-.31-1.94-1.34-2.48-2.28-5.68-9.86-7.97-20.78-9.89-31.83-7.24-41.74-14.73-83.43-21.69-125.21-2.42-14.54-3.56-29.3-5.29-43.96-.29-2.64-.64-5.27-1.01-8.18z"/></g><path d="m377.9 391.2c-.2.3-.4.5-.6.8-.7-.6-1.4-1-2.2-1.5.2-.3.4-.5.5-.8.6.4 1.4.8 2.3 1.5zm-1.8 6.1c-.2-.2-.5-.4-.9-.6.4-.6.8-1.2 1.2-1.9s.7-1.3.9-1.9c.3.3.5.5.8.7-.7 1.3-1.4 2.6-2 3.7zm2.2-9c-.3.3-.5.5-.6.8-.6-.6-1.3-1.1-2-1.5.3-.3.5-.5.6-.7.6.5 1.3.9 2 1.4zm.3.2v-.9h2 4.5c-.3 1.3-.6 2.5-1 3.6s-.9 2.1-1.4 3c.4.5 1 1 1.6 1.4s1.2.8 1.9 1.1c-.3.2-.5.4-.8.8-.4-.3-1-.7-1.6-1.2s-1.2-1.1-1.6-1.6c-.5.6-1.1 1.1-1.7 1.6s-1.4.9-2.1 1.4c-.1-.3-.3-.5-.7-.8.6-.2 1.2-.5 1.9-1s1.4-1.1 2-1.8c-.5-.8-.9-1.6-1.2-2.5s-.6-2-.8-3.2c-.4.1-.7.1-1 .1zm2.5 2.7c.3 1 .7 1.7 1 2.2.3-.5.6-1.1 1-2s.6-1.9.9-3h-3.2-.4c.1.9.3 1.8.7 2.8z" fill="#fcfbfa"/><path d="m396.5 388.5v1.5 3.6h1.5v.9c-.4 0-1 0-1.7 0h-7.9c-.5 0-.9 0-1.2 0v-.9h1.3v-3.5c0-.7 0-1.2 0-1.6h2.4c0-.8 0-1.4 0-1.7h1c0 .3-.1.8-.1 1.7h1.5c0-.8 0-1.4 0-1.7h1c0 .3-.1.9-.1 1.7zm-8.2 9.2c-.2-.3-.5-.5-.8-.8.8-.3 1.4-.6 1.9-.9s1-.7 1.4-1.1c.3.3.6.5.9.8-1.6 1-2.8 1.6-3.4 2zm2.6-6.8v-1.6h-1.5v1.6zm0 2.7v-1.9h-1.5v1.9zm2.4-2.7v-1.6h-1.5v1.6zm0 2.7v-1.9h-1.5v1.9zm.2 2 .7-.8c.4.2.9.5 1.6.8s1.3.7 1.8 1c-.3.3-.5.5-.8.8-.4-.3-1.5-1-3.3-1.8zm2-4.7v-1.6h-1.4v1.6zm0 2.7v-1.9h-1.4v1.9z" fill="#fcfbfa"/></svg>