<svg enable-background="new 0 0 400 400" viewBox="0 0 400 400" xmlns="http://www.w3.org/2000/svg"><path d="m188.66 240.84c-12.3.36-23.69.79-35.08 1.01-8.93.17-17.89.48-26.79-.07-5-.31-9.9-2.24-15.19-3.52-.3 5.98-.64 12.08-.92 18.18-1.35 29.96-2.68 59.92-4.03 89.89-.27 6.07-2.51 9-7.4 10.69-2.58.89-3.68-.01-4.49-2.26-2.35-6.57-2.84-13.41-2.03-20.21 5.3-44.14 3.65-88.51 4.47-132.79.41-22.26.36-44.54.38-66.81.01-8.61-.44-17.23-.53-25.84-.09-9.3 1.98-18.2 5.61-26.72.53-1.25 1.66-2.36 2.74-3.26 9.76-8.18 21.4-10.39 33.73-11.14 17.75-1.08 35.47-2.78 53.29-2.15.44.02.88-.11 1.46-.19 2.7-13.2-2.31-27.43 5.04-39.99 5.21.83 8.97 4.14 9.56 9.54.52 4.83-.08 9.78-.11 14.68-.02 3.68-.04 7.36.15 11.03.14 2.76 1.56 3.91 4.59 3.89 22.05-.13 44.11-.15 66.16-.02 5.35.03 10.71.68 16.05 1.19 1.28.12 2.65.62 3.73 1.33 3.53 2.34 3.12 7.16-.65 8.93-5.82 2.73-12.04 3.6-18.32 3.2-28.75-1.81-57.48-.07-86.21.11-18.56.12-37.13.5-55.68 1.25-5.02.2-10.09 1.8-14.93 3.39-8.35 2.75-12.05 9.27-12.41 17.68-.22 5.13.36 10.28.38 15.43.15 35.71.25 71.41.36 107.12v4.09c24.46-3.4 48.72-.94 72.89-1.69 1.09-.03 2.17-.13 3.68-.22-.35-12.34-.68-24.47-1.04-37.15-5.55 0-10.78.05-16.01-.01-10.96-.12-21.93-.22-32.88-.5-2.64-.07-5.31-.59-7.86-1.3-2.7-.75-4.24-2.68-4.35-5.67-.11-2.91.87-5.22 3.75-5.93 5.15-1.27 10.38-2.99 15.6-3.11 11.06-.27 22.14.36 33.21.62 1.21.03 2.43 0 4.43 0-.26-3.07-.06-5.9-.79-8.46-2.35-8.27-5.09-16.43-7.54-24.68-.63-2.12-1.96-1.97-3.6-1.9-11.28.51-22.57 1.15-33.86 1.35-3.72.07-7.52-.83-11.18-1.72-1.61-.39-3.21-1.65-4.35-2.93-2.96-3.32-2.24-5.94 1.87-7.37 6.46-2.25 13.13-2.32 19.88-1.86 6.35.44 12.73 1 19.08.84 5.7-.15 6.43-1.34 4.93-6.9-1.31-4.84-3.27-9.5-4.76-14.29-1.02-3.28-2.2-6.62-2.48-10-.38-4.64 3.98-7.99 8.48-6.83.94.24 1.79 1.49 2.36 2.46 6.96 11.9 10.98 24.89 14.1 38.22 2.48 10.58 6.17 20.74 11.43 31.25.59-1.59.97-2.53 1.29-3.49 6.08-18.23 12.13-36.47 18.24-54.69.85-2.54 1.96-4.98 2.96-7.47.21-.52.44-1.03.72-1.51 1.88-3.23 7.19-6.78 8.87-5.3 1.94 1.7 3.76 4.89 3.62 7.32-.28 4.89-1.75 9.75-3.07 14.53-1.39 5.01-3.18 9.92-4.89 15.18 6.74 0 12.84-.14 18.92.04 7.69.22 15.4.47 23.06 1.17 3.27.3 6.2 2.02 6.92 5.85.39 2.07.03 3.53-2.16 4.6-7 3.42-14.42 3.76-21.95 3.31-9.04-.54-18.07-1.21-27.1-1.69-.82-.04-2.24.69-2.47 1.37-3.71 10.76-7.27 21.57-11.12 33.13 3.84 0 7.25-.03 10.65.01 11.52.14 23.06.04 34.56.59 3.99.19 8.08 1.6 11.77 3.24 1.58.7 2.67 3.32 3.22 5.28.7 2.5-1.59 3.28-3.45 4.14-5.72 2.61-11.77 3.42-17.98 3.32-11.97-.19-23.94-.44-35.9-.66-1.21-.02-2.41 0-3.82 0-1.41 12.42-2.79 24.5-4.21 36.97 1.38.07 2.57.17 3.75.18 19.47.23 38.94.36 58.4.75 4.21.08 8.44.86 12.57 1.73 1.6.34 3.31 1.51 4.39 2.79 2.42 2.89 1.43 6.27-2.02 7.73-6.62 2.79-13.64 3.61-20.71 3.42-15.43-.42-30.85-1.14-46.27-1.73-1.23-.05-2.49-.24-3.68-.04-6.17 1.02-6.52 1.86-6.5 7.08.11 29.1.01 58.21.09 87.31.02 7.49.53 14.98.59 22.47.03 3.45-.02 7.02-.86 10.33-.58 2.29-2.15 4.8-4.03 6.17-3.34 2.44-6.32 1.35-7.36-2.59-1.13-4.28-2.07-8.75-2.13-13.16-.41-31.33-.58-62.66-.8-93.98-.07-7.6-.03-15.19-.03-23.58z" fill="#010103"/><g fill="#fcfbfa"><path d="m377.9 391.2c-.2.3-.4.5-.6.8-.7-.6-1.4-1-2.2-1.5.2-.3.4-.5.5-.8.6.4 1.4.8 2.3 1.5zm-1.8 6.1c-.2-.2-.5-.4-.9-.6.4-.6.8-1.2 1.2-1.9s.7-1.3.9-1.9c.3.3.5.5.8.7-.7 1.3-1.4 2.6-2 3.7zm2.2-9c-.3.3-.5.5-.6.8-.6-.6-1.3-1.1-2-1.5.3-.3.5-.5.6-.7.6.5 1.3.9 2 1.4zm.3.2v-.9h2 4.5c-.3 1.3-.6 2.5-1 3.6s-.9 2.1-1.4 3c.4.5 1 1 1.6 1.4s1.2.8 1.9 1.1c-.3.2-.5.4-.8.8-.4-.3-1-.7-1.6-1.2s-1.2-1.1-1.6-1.6c-.5.6-1.1 1.1-1.7 1.6s-1.4.9-2.1 1.4c-.1-.3-.3-.5-.7-.8.6-.2 1.2-.5 1.9-1s1.4-1.1 2-1.8c-.5-.8-.9-1.6-1.2-2.5s-.6-2-.8-3.2c-.4.1-.7.1-1 .1zm2.5 2.7c.3 1 .7 1.7 1 2.2.3-.5.6-1.1 1-2s.6-1.9.9-3h-3.2-.4c.1.9.3 1.8.7 2.8z"/><path d="m396.5 388.5v1.5 3.6h1.5v.9c-.4 0-1 0-1.7 0h-7.9c-.5 0-.9 0-1.2 0v-.9h1.3v-3.5c0-.7 0-1.2 0-1.6h2.4c0-.8 0-1.4 0-1.7h1c0 .3-.1.8-.1 1.7h1.5c0-.8 0-1.4 0-1.7h1c0 .3-.1.9-.1 1.7zm-8.2 9.2c-.2-.3-.5-.5-.8-.8.8-.3 1.4-.6 1.9-.9s1-.7 1.4-1.1c.3.3.6.5.9.8-1.6 1-2.8 1.6-3.4 2zm2.6-6.8v-1.6h-1.5v1.6zm0 2.7v-1.9h-1.5v1.9zm2.4-2.7v-1.6h-1.5v1.6zm0 2.7v-1.9h-1.5v1.9zm.2 2 .7-.8c.4.2.9.5 1.6.8s1.3.7 1.8 1c-.3.3-.5.5-.8.8-.4-.3-1.5-1-3.3-1.8zm2-4.7v-1.6h-1.4v1.6zm0 2.7v-1.9h-1.4v1.9z"/></g></svg>