<svg enable-background="new 0 0 400 400" viewBox="0 0 400 400" xmlns="http://www.w3.org/2000/svg"><path d="m212.35 80.96v28.09c5.17 0 9.72-.05 14.28.01 13.09.16 26.18.28 39.27.61 3.44.09 6.93.56 10.26 1.42 1.64.42 3.41 1.82 4.32 3.27 2.04 3.25 1.54 5.4-2.06 6.52-5.48 1.71-11.19 3.42-16.87 3.66-10.04.43-20.12-.3-30.19-.45-5.9-.09-11.79-.02-17.89-.02-.28 4.1-.55 8.09-.88 13.06 6.95.88 13.74 1.89 20.56 2.55 6.66.64 13.48.24 20 1.5 16.58 3.21 25.72 14.28 28.54 30.35 2.52 14.41.32 28.53-5.4 42.03-3 7.08-9.29 10.7-15.46 14.3-9.09 5.3-19.24 6.99-29.55 7.99-4.79.46-9.57 1.04-14.36 1.43-1.75.14-2.62.76-2.75 2.6-.42 6.14-.94 12.27-1.45 18.82 1.91.12 3.75.33 5.6.35 17.24.17 34.47.23 51.71.52 5.12.08 10.25.65 15.35 1.23 2.54.29 4.59 1.6 5.46 4.31 1.23 3.87.58 5.5-3.17 7.03-9.28 3.79-19.01 3.47-28.77 3.21-14.08-.38-28.16-.56-42.25-.8-1.2-.02-2.41.22-3.97.38v3.7 72.55c0 5.59.16 11.19-.08 16.76-.19 4.44-2.32 6.72-5.68 7.17-1.83.24-3.15-.23-3.55-2.1-1.21-5.67-3.12-11.32-3.33-17.03-.43-11.95.13-23.93.15-35.89.03-14.66-.06-29.31-.11-43.97 0-.54-.14-1.08-.27-2.04-1.36 0-2.67 0-3.97 0-19.03 0-38.07.07-57.1-.06-3.78-.02-7.57-.65-11.31-1.23-2.9-.45-4.89-2.13-5.34-5.22-.34-2.36.28-4.01 2.77-4.99 6.59-2.6 13.45-3.23 20.41-3.27 17.23-.1 34.47-.16 51.7-.24 1.1-.01 2.19-.14 3.49-.23 0-6.75 0-13.3 0-20.09-8.53-2.67-17.38-3.54-26.29-4.2-9.35-.69-18.43-2.57-26.47-7.64-10.55-6.65-16.36-16.47-17.44-28.76-1.27-14.43.31-28.61 5.57-42.22.61-1.57 1.76-3.1 3.03-4.23 8.19-7.3 18.32-10.24 28.8-11.71 9.15-1.28 18.45-1.56 27.69-2.25 1.1-.08 2.21-.01 3.61-.01.61-4.27 1.18-8.29 1.88-13.21-6.99 0-13.55.07-20.12-.02-12.53-.17-25.06-.34-37.58-.73-2.49-.08-5.02-.94-7.4-1.79-2.66-.95-4.09-2.87-3.81-5.96.28-3.11 1.97-4.26 4.87-4.88 10.52-2.25 21.13-1.82 31.76-1.64 9.29.16 18.58.02 27.87.19 2.3.04 3.2-.81 3.46-2.91 1-8.1 2.05-16.19 3.11-24.47-.47-.1-.98-.31-1.48-.3-14.09.29-28.18.6-42.27.93-6.93.16-13.86.39-20.79.58-7.86.22-15.24 2.26-22.06 6.11-1.3.73-2.38 2.31-2.97 3.75-3.71 9.12-3.74 18.75-3.75 28.4-.05 42.86-.11 85.73-.32 128.59-.1 21.04-.25 42.09-.9 63.12-.47 15.32-1.64 30.62-2.84 45.91-.25 3.19-1.78 6.39-3.19 9.35-1.06 2.21-3.34 2.81-5.79 2.2-2.41-.6-3.76-1.68-3.59-4.61.64-11.4 1.18-22.8 1.47-34.22.59-23.05 1.11-46.1 1.44-69.15.5-34.92.94-69.84 1.12-104.76.07-12.75-.59-25.51-1.06-38.26-.45-12 .97-23.64 5.74-34.79 1.4-3.27 3.53-5.51 6.59-7.22 10.01-5.58 20.96-7.75 32.16-8.54 18.74-1.33 37.5-2.36 56.27-3.3 3.05-.15 3.96-1.28 3.75-3.98-.46-6.02-1.01-12.04-1.37-18.06-.35-5.79.88-11.31 3.15-16.66.75-1.77 1.69-2.15 3.33-1.57 3.9 1.37 6.74 3.96 7.05 8.14.42 5.67.35 11.38.31 17.07-.03 3.58-.42 7.15-.59 10.73-.18 3.97.57 4.75 4.5 4.76 23.28.08 46.57.1 69.85.28 2.99.02 6 .66 8.95 1.25 2.7.53 4.21 2.35 4.54 5.13.28 2.36-.17 4.34-2.83 4.85-7.1 1.37-14.2 3.55-21.34 3.75-13.29.36-26.61-.54-39.92-.77-8.01-.18-16.04-.06-23.81-.06zm-11.65 98.59c0-7.69 0-15.04 0-22.39 0-5.8-.65-6.5-6.38-6.2-6.02.31-12.07.5-18.05 1.21-5.84.7-11.86 1.28-17.33 3.25-4.28 1.54-9.13 4.32-11.39 7.98-3.12 5.07-3.75 11.51-2.25 17.86 18.48-.57 36.65-1.13 55.4-1.71zm67.54.95c-.18-1.98-.26-3.74-.5-5.49-1.75-12.65-8.38-19.54-20.95-21.76-3.62-.64-7.25-1.45-10.9-1.71-7.41-.53-14.84-.75-22.29-1.1v30.06zm-123.15 15.13c0 1.57-.1 2.79.02 3.98.66 6.9 4.48 12.01 10.17 15.31 4.49 2.6 9.53 4.41 14.52 5.96 9.25 2.88 18.72 4.49 28.4 2.22.91-.21 2.36-1.08 2.37-1.67.16-7.9.11-15.81.11-24.02-18.61-.6-36.81-1.18-55.59-1.78zm68.12 27.41c8.82-.91 17.16-1.63 25.46-2.7 3.96-.51 7.98-1.28 11.7-2.66 7.01-2.6 12.87-6.85 15.52-14.25.84-2.35.94-4.97 1.44-7.83-18.84.63-36.65 1.22-54.12 1.8z" fill="#010103"/><g fill="#fcfbfa"><path d="m377.9 391.2c-.2.3-.4.5-.6.8-.7-.6-1.4-1-2.2-1.5.2-.3.4-.5.5-.8.6.4 1.4.8 2.3 1.5zm-1.8 6.1c-.2-.2-.5-.4-.9-.6.4-.6.8-1.2 1.2-1.9s.7-1.3.9-1.9c.3.3.5.5.8.7-.7 1.3-1.4 2.6-2 3.7zm2.2-9c-.3.3-.5.5-.6.8-.6-.6-1.3-1.1-2-1.5.3-.3.5-.5.6-.7.6.5 1.3.9 2 1.4zm.3.2v-.9h2 4.5c-.3 1.3-.6 2.5-1 3.6s-.9 2.1-1.4 3c.4.5 1 1 1.6 1.4s1.2.8 1.9 1.1c-.3.2-.5.4-.8.8-.4-.3-1-.7-1.6-1.2s-1.2-1.1-1.6-1.6c-.5.6-1.1 1.1-1.7 1.6s-1.4.9-2.1 1.4c-.1-.3-.3-.5-.7-.8.6-.2 1.2-.5 1.9-1s1.4-1.1 2-1.8c-.5-.8-.9-1.6-1.2-2.5s-.6-2-.8-3.2c-.4.1-.7.1-1 .1zm2.5 2.7c.3 1 .7 1.7 1 2.2.3-.5.6-1.1 1-2s.6-1.9.9-3h-3.2-.4c.1.9.3 1.8.7 2.8z"/><path d="m396.5 388.5v1.5 3.6h1.5v.9c-.4 0-1 0-1.7 0h-7.9c-.5 0-.9 0-1.2 0v-.9h1.3v-3.5c0-.7 0-1.2 0-1.6h2.4c0-.8 0-1.4 0-1.7h1c0 .3-.1.8-.1 1.7h1.5c0-.8 0-1.4 0-1.7h1c0 .3-.1.9-.1 1.7zm-8.2 9.2c-.2-.3-.5-.5-.8-.8.8-.3 1.4-.6 1.9-.9s1-.7 1.4-1.1c.3.3.6.5.9.8-1.6 1-2.8 1.6-3.4 2zm2.6-6.8v-1.6h-1.5v1.6zm0 2.7v-1.9h-1.5v1.9zm2.4-2.7v-1.6h-1.5v1.6zm0 2.7v-1.9h-1.5v1.9zm.2 2 .7-.8c.4.2.9.5 1.6.8s1.3.7 1.8 1c-.3.3-.5.5-.8.8-.4-.3-1.5-1-3.3-1.8zm2-4.7v-1.6h-1.4v1.6zm0 2.7v-1.9h-1.4v1.9z"/></g></svg>