<svg enable-background="new 0 0 400 400" viewBox="0 0 400 400" xmlns="http://www.w3.org/2000/svg"><g fill="#010103"><path d="m222.64 206.57c-6.9 0-12.91 0-18.68 0 0 7.16.16 14.16-.04 21.16-.22 7.47-.48 14.97-1.34 22.38-.51 4.38-2.61 8.31-7.55 10.13-3.44-4.28-4.3-9.33-4.35-14.44-.05-6.15.61-12.3.66-18.45.05-6.14-.39-12.28-.38-18.42.01-2.81-1.35-4.05-3.82-4.51-4.72-.88-9.43-1.89-14.18-2.55-14.82-2.05-23.66-10.93-28.77-24.43-4.77-12.59-4.89-25.62-3.9-38.74.94-12.42 3.05-24.64 7.47-36.35.59-1.55 1.77-3.14 3.12-4.11 9.49-6.85 20.34-10.6 31.84-11.39 20.63-1.42 41.32-2.09 62-2.89 7.26-.28 14.54-.16 21.8.09 5.89.2 9.42 3.12 10.14 7.48.4 2.39-.28 3.72-2.68 4.5-7.69 2.5-15.55 2.94-23.55 2.47-8.59-.5-17.19-.93-25.79-1.09-4.99-.09-5 .17-5 5.02 0 1.23.22 2.51-.04 3.69-1.07 4.94 1.78 7.09 5.68 9.08 10.54 5.35 22.02 7.29 33.37 9.78 2.05.45 4.12.79 6.49 1.25.91-3.97 1.78-7.75 2.63-11.54.58-2.57 2.07-4.15 4.78-4.42 2.2-.22 3.73.37 4.77 2.65 3.01 6.58 3.01 13.46 2.45 20.41-1.02 12.59-2.23 25.16-3.2 37.75-.58 7.48-2.17 14.81-6.25 20.98-2.17 3.29-6.27 5.74-10.01 7.45-5.66 2.58-11.77 4.18-17.68 6.2-5.38 1.84-5.38 1.84-5.38 7.45 0 11.53.09 23.06-.06 34.59-.04 3.21-.61 6.45-1.29 9.59-.49 2.28-1.9 3.97-4.61 4.17-2.79.21-4.6-.73-5.77-3.4-2.44-5.58-2.97-11.39-2.91-17.38.1-11.25.03-22.53.03-34.16zm-69.72-66.1c1.22 9.86 1.71 19.62 3.79 29.04 2.15 9.77 7.93 16.6 18.63 19.17 17.44 4.19 35 6.07 52.85 5.35 8.51-.34 16.83-1.93 24.84-5.1 3.85-1.53 6.51-3.81 7.37-7.88 1.84-8.73 3.88-17.43 5.25-26.23.59-3.77-.16-7.78-.54-11.65-.26-2.72-1.81-4.33-4.76-4.64-2.77-.29-5.49-1.06-8.24-1.5-13.78-2.21-27.05-5.86-39.1-13.26-.93-.57-2.78-.26-3.94.25-11.66 5.1-23.21 10.38-36.01 12.26-6.5.97-12.88 2.66-20.14 4.19zm2.72-13.56c4.65-1.14 9.07-2.27 13.52-3.3 10.33-2.38 20.72-4.46 30.17-9.7 3.21-1.78 5-4.28 6.12-7.52 1.29-3.75.46-5.5-3.47-6.29-12.32-2.5-24.33-.71-35.7 4.11-7.92 3.35-12.83 14.73-10.64 22.7z"/><path d="m268.55 281.5c1.24-5.92 2.43-11.58 3.65-17.41-5.05 0-10.83.06-16.6-.03-2.11-.03-4.28-.15-6.3-.69-3.95-1.06-6.11-6.24-4.13-9.81.36-.65 1.61-1.04 2.49-1.13 7.02-.65 14.06-1.09 21.07-1.81 4.29-.44 8.71-.94 11.71-5.93-4.14-.23-7.73-.53-11.33-.62-5.15-.13-10.31.07-15.44-.22-5.56-.32-8.69-2.95-9.19-7.13-.22-1.86.02-3.39 2.29-3.69 5.5-.73 10.98-1.65 16.5-2.11 3.32-.28 6.71.4 10.05.21 4.41-.26 6.84-2.77 7.22-7.28-5.88-.21-11.75-.37-17.61-.65-3.34-.16-6.72-.24-9.98-.87-2.65-.51-4.57-2.3-4.86-5.29-.38-3.91.36-5.1 4.27-5.48 7.68-.75 15.38-1.33 23.07-1.85 5.35-.37 5.35-.28 7.16-5.46 1.06-3.05 2.15-6.08 3.21-9.06 4.83.25 7.4 1.67 7.65 5.58 1.12 17.49 2.85 35.03-2.06 52.32-1.46 5.14-4.92 7.75-9.77 9.02-1.81.47-3.63.9-5.84 1.44 6.16 4.79 7.77 11.27 7.5 18.15-.35 8.92-1.37 17.82-2.06 26.73-.24 3.18-1.95 5.29-4.47 7.06-6.67 4.66-14.18 6.47-22.15 6.68-4.81.13-9.63-.02-14.44.05-1.44.02-2.93.17-4.28.61-1.54.5-2.46 1.59-1.41 3.35 4.73 7.92 8.08 16.62 14.81 23.41 5.48 5.53 10.64 11.57 12.88 19.38 1.08 3.78-1.54 7.1-5.13 6.27-2.1-.49-4.45-1.39-5.92-2.86-12.66-12.64-24.19-26.09-29.91-43.55-1.61-4.91-3.56-5.97-8.75-5.97-18.25 0-36.5.02-54.75-.01-5.47-.01-10.94-.07-16.4-.32-2.98-.13-5.06-1.75-5.58-4.86-.45-2.67.1-4.61 3.13-5.68 8.31-2.96 16.87-3.15 25.51-3 15.11.25 30.21.44 45.32.65.98.01 1.96-.11 3.32-.19-.44-4.87-.86-9.5-1.34-14.8-7.57 0-14.92.04-22.27-.01-11.64-.08-23.28-.14-34.92-.39-2.64-.06-5.31-.66-7.87-1.37-2.75-.76-3.76-2.96-3.61-5.73.15-2.66 1.32-3.9 4.16-4.58 11.62-2.76 23.36-1.83 35.1-1.85 7.83-.01 15.65-.48 23.48-.59 2.26-.03 2.76-1.16 2.47-2.95-.68-4.18-1.45-8.35-2.24-12.51-1-5.27 1.15-8.07 6.46-7.88 1.15.04 2.89 1 3.28 1.97 1.28 3.18 2.08 6.56 3.01 9.88.21.74.12 1.56.23 2.33 1.21 7.92 1.58 8.19 9.54 8.58 12.07.59 24.13 1.29 36.19 1.92 1.3.09 2.62.03 3.88.03zm-42.82 12.96c1.13 5.11 2.18 9.85 3.22 14.58 6.62.37 12.75.78 18.89 1.04 5.62.24 11.17.03 16.43-2.41 3.15-1.46 5.09-3.37 4.12-7.2-.48-1.91-.54-3.93-.8-6.01-13.92 0-27.65 0-41.86 0z"/><path d="m194.42 59.55c2.16-11.29.38-23 4.57-33.83 5.56.21 9.5 4.14 9.66 10.05.1 4-.56 8.02-.65 12.04-.06 2.55.12 5.14.53 7.66.43 2.62 1.96 3.81 4.93 3.79 23.74-.12 47.47-.09 71.21-.04 2.78.01 5.64.09 8.32.74 1.68.41 3.48 1.64 4.53 3.03 2.54 3.39 1.94 6.22-2 7.54-4.27 1.43-8.86 2.58-13.33 2.64-12.75.18-25.5-.55-38.25-.37-33.12.46-66.23 1.1-99.34 1.95-5.75.15-11.54 1.32-17.18 2.59-2.72.61-5.27 2.38-7.68 3.95-3.55 2.32-5.15 5.45-5.23 10.05-1.16 69.04-2.3 138.08-4 207.11-.5 20.33-2.66 40.63-4.19 60.93-.18 2.39-.94 4.85-1.95 7.03-1.27 2.73-3.72 3.74-6.74 2.95-2.39-.63-3.58-1.72-3.48-4.66 1.56-46.08 2.56-92.19 4.53-138.25 1.47-34.49.03-68.92-.21-103.38-.11-15.4 1.69-30.59 5.84-45.45.47-1.67 1.65-3.44 3.01-4.52 8.4-6.72 18.14-9.78 28.81-10.58 18.97-1.42 37.9-3.42 56.96-2.67.32 0 .64-.14 1.33-.3z"/><path d="m149.04 243.97c-1.02 2.71-.2 4.39 2.71 4.67 5.54.54 11.09.99 16.65 1.4 2 .15 4.04-.13 6.03.07 5.66.57 8.59 3.31 9.77 9.05-4.26 3.23-9.28 4.81-14.5 5.38-7.95.86-15.82.12-23.54-2.27-2.83-.87-4.58-2.5-5.94-4.95-3.81-6.87-5.58-14.34-6.48-22.05-1.3-11.06-1.71-22.11 1.77-32.91.81-2.52 2.07-4.9 3.08-7.24 6.21.66 7.4 1.92 7.67 7.75.23 4.91 1.6 6.7 6.5 7.07 4.55.34 9.15.02 13.73.04 2.66.02 5.37-.14 7.96.33 1.51.27 3.1 1.37 4.16 2.55 3.18 3.53 2.57 5.8-1.77 7.57-6.04 2.46-12.36 2.78-18.78 2.59-2.29-.07-4.69.23-6.88.89-2.39.72-3.69 2.68-4.11 6.14 6.27 0 12.25-.05 18.23.02 3.79.04 7.6-.01 11.34.49 1.73.23 3.61 1.36 4.88 2.63 3.26 3.27 2.43 8.04-1.93 9.09-4.91 1.18-10.1 1.37-15.19 1.63-5.1.26-10.22.06-15.36.06z"/><path d="m207.36 167.46c10.94-.07 21.86-.46 32.62 2.52 3.11.86 3.21 2.75 3.63 5 .48 2.54-1.62 2.61-3.06 3.13-8.11 2.9-16.6 3.38-25.1 3.59-10.62.26-21.26.25-31.54-2.96-1.42-.44-3.33-1.76-3.59-2.98-.54-2.46-1-5.53 2.65-6.55 2.2-.62 4.4-1.58 6.63-1.67 5.9-.23 11.83-.08 17.76-.08z"/><path d="m241.88 150.14c-4.94 1.12-9.84 2.63-14.84 3.29-12.57 1.66-25.17 1.73-37.67-.85-1.53-.31-3.02-.78-4.52-1.23-1.7-.51-3.33-.83-3.32-3.37.01-2.41.57-3.71 2.95-4.8 5.31-2.44 10.76-3.45 16.55-3.3 9.59.24 19.2.16 28.78.63 2.65.13 5.49 1.32 7.76 2.77 1.96 1.26 3.25 3.57 4.84 5.42-.18.49-.36.96-.53 1.44z"/></g><path d="m377.9 391.2c-.2.3-.4.5-.6.8-.7-.6-1.4-1-2.2-1.5.2-.3.4-.5.5-.8.6.4 1.4.8 2.3 1.5zm-1.8 6.1c-.2-.2-.5-.4-.9-.6.4-.6.8-1.2 1.2-1.9s.7-1.3.9-1.9c.3.3.5.5.8.7-.7 1.3-1.4 2.6-2 3.7zm2.2-9c-.3.3-.5.5-.6.8-.6-.6-1.3-1.1-2-1.5.3-.3.5-.5.6-.7.6.5 1.3.9 2 1.4zm.3.2v-.9h2 4.5c-.3 1.3-.6 2.5-1 3.6s-.9 2.1-1.4 3c.4.5 1 1 1.6 1.4s1.2.8 1.9 1.1c-.3.2-.5.4-.8.8-.4-.3-1-.7-1.6-1.2s-1.2-1.1-1.6-1.6c-.5.6-1.1 1.1-1.7 1.6s-1.4.9-2.1 1.4c-.1-.3-.3-.5-.7-.8.6-.2 1.2-.5 1.9-1s1.4-1.1 2-1.8c-.5-.8-.9-1.6-1.2-2.5s-.6-2-.8-3.2c-.4.1-.7.1-1 .1zm2.5 2.7c.3 1 .7 1.7 1 2.2.3-.5.6-1.1 1-2s.6-1.9.9-3h-3.2-.4c.1.9.3 1.8.7 2.8z" fill="#fcfbfa"/><path d="m396.5 388.5v1.5 3.6h1.5v.9c-.4 0-1 0-1.7 0h-7.9c-.5 0-.9 0-1.2 0v-.9h1.3v-3.5c0-.7 0-1.2 0-1.6h2.4c0-.8 0-1.4 0-1.7h1c0 .3-.1.8-.1 1.7h1.5c0-.8 0-1.4 0-1.7h1c0 .3-.1.9-.1 1.7zm-8.2 9.2c-.2-.3-.5-.5-.8-.8.8-.3 1.4-.6 1.9-.9s1-.7 1.4-1.1c.3.3.6.5.9.8-1.6 1-2.8 1.6-3.4 2zm2.6-6.8v-1.6h-1.5v1.6zm0 2.7v-1.9h-1.5v1.9zm2.4-2.7v-1.6h-1.5v1.6zm0 2.7v-1.9h-1.5v1.9zm.2 2 .7-.8c.4.2.9.5 1.6.8s1.3.7 1.8 1c-.3.3-.5.5-.8.8-.4-.3-1.5-1-3.3-1.8zm2-4.7v-1.6h-1.4v1.6zm0 2.7v-1.9h-1.4v1.9z" fill="#fcfbfa"/></svg>