<svg enable-background="new 0 0 400 400" viewBox="0 0 400 400" xmlns="http://www.w3.org/2000/svg"><g fill="#010103"><path d="m198.7 25.06c6.37 1.09 9.62 4.19 10.04 9.72.24 3.09-.29 6.23-.34 9.35-.06 3.56-.19 7.14.11 10.68.29 3.37 2.21 4.83 5.89 4.81 23.29-.15 46.58-.11 69.86-.04 3.79.01 7.59.4 11.37.8 2.99.31 5.32 1.53 5.81 4.98.52 3.63-1.82 4.89-4.54 6.02-7.39 3.07-15.1 2.36-22.82 2.29-19.12-.18-38.24-.12-57.35-.04-11.08.04-22.16.16-33.23.5-15.64.49-31.29 1.1-46.92 1.94-5.81.31-11.61 1.43-16.55 4.86-5.09 3.54-8.46 8.08-8.51 14.71-.25 31.34-.62 62.67-.97 94.01-.44 40.51-.61 81.03-1.49 121.53-.33 15.41-2.28 30.79-3.53 46.18-.29 3.57-.47 7.16-1.11 10.67-1.01 5.56-4.49 8-8.79 6.59-2.25-.74-3.35-1.89-3.24-4.59.67-16.32 1.12-32.66 1.66-48.99 1.03-31.09 1.74-62.2 3.2-93.28 1.55-32.92.01-65.78-.57-98.66-.31-17.28 1.22-34.43 5.88-51.16.44-1.58 1.52-3.26 2.78-4.3 8.79-7.23 19.09-10.36 30.35-11.01 18.65-1.07 37.24-3.28 55.97-2.4 2.15.1 3.03-.7 3.18-2.79.54-7.36 1.05-14.73 1.82-22.06.36-3.41 1.32-6.75 2.04-10.32z"/><path d="m177.99 255.59c-11.23-.35-22.04-.82-32.86-.98-11.26-.17-16.2-4.8-17.06-16.14-.56-7.41.68-14.48 3.44-21.31.4-.98 1.16-1.91 1.98-2.61 7.6-6.54 16.28-10.46 26.42-10.96 4.69-.23 9.36-.97 14.05-1.07 2.78-.05 4.1-.97 4.3-3.71.09-1.21.46-2.4.76-3.91-9.42-.27-18.68-.51-27.93-.81-3.13-.1-6.31-.02-9.35-.62-2.44-.48-5.06-1.43-6.9-3-1.19-1.01-1.47-3.5-1.5-5.33-.04-2.2 1.6-3.21 3.79-3.34 5.8-.34 11.59-.83 17.39-1.06 6.59-.26 13.18-.3 19.77-.44 2.13-.05 3.39-1.12 4.28-3.1 1.64-3.65 3.57-7.17 5.33-10.67 5.27.75 8.41 3.83 9.32 9.28 1.38 8.25-1.05 16.19-2.01 24.26-.98 8.17-5.27 12.92-13.17 14.51-6.77 1.36-13.58 2.54-20.37 3.8-2.08.39-4.22.58-6.24 1.19-7.57 2.29-11.82 10.38-9.4 17.86.25.78 1.19 1.55 1.99 1.9 8.85 3.83 18.22 5.23 27.59 3.57 13.63-2.41 18.48 2.71 20.95 15.46 1.17 6.07-.37 11.76-1.7 17.51-.22.94-1.48 1.99-2.49 2.34-7.89 2.75-15.82 5.34-23.75 7.97-2.75.91-5.61 1.57-8.25 2.73-4.96 2.18-7.83 5.7-8.01 11.59-.48 15.88-1.33 31.75-2.15 47.61-.11 2.06-.4 4.55-1.63 5.98-1.22 1.42-3.67 2.23-5.66 2.41-2.22.2-3.58-1.24-4.25-3.77-5.13-19.21-2.79-38.15 1.68-57.04.49-2.06 1.26-4.07 1.65-6.14 1.61-8.63 7.48-12.63 15.42-14.57 7.38-1.8 14.72-3.77 22.11-5.55 1.84-.44 2.6-1.22 2.5-3.18-.16-3.21-.04-6.46-.04-10.66z"/><path d="m271.42 326.2c-3.31.87-6.49 1.53-9.54 2.54-9.58 3.19-19.48 4.13-29.46 3.9-7.8-.18-15.65-.48-23.34-1.63-5.45-.81-9.95-3.96-11.59-10.04 3.57-3.02 7.72-3.93 12.19-3.54 6.57.58 13.12 1.55 19.7 1.9 11.44.61 22.52-1.1 32.91-6.24.66-.33 1.26-.76 2.21-1.35-6.14-4.02-12.59-5.9-19.4-6.68-9.78-1.13-19.57-2.1-29.33-3.39-4.24-.56-7.89-2.31-9.36-6.99-.76-2.43-.35-3.65 2.21-4.44 7.69-2.37 15.53-2.44 23.27-1.08 10.78 1.9 21.46 4.36 32.15 6.77 2.21.5 4.45 1.51 6.29 2.83 1.87 1.34 3.25 3.36 5.34 5.62 1.14-2.44 2.26-4.21 2.81-6.15 1.81-6.45.2-12.64-1.93-18.7-.33-.94-1.4-1.7-2.27-2.36-6.22-4.71-13.31-6.44-21.06-6.56-9.05-.14-18.1-.66-27.14-1.23-2.18-.14-4.38-.91-6.43-1.73-2.93-1.18-4.66-5.26-3.68-8.19.16-.47.58-1.06 1-1.19 3.41-1.03 6.82-2.64 10.29-2.82 14.96-.8 29.65.92 44.09 5.19 13.34 3.94 20.4 12.68 21.51 26.33.58 7.15.93 14.39-3.43 20.72-5.1 7.42-4.81 15.36-2.4 23.47 1.78 5.99 3.95 11.87 5.7 17.88.83 2.87 1.46 5.9 1.48 8.86.03 4.84-5.65 8.15-9.99 5.98-.8-.4-1.28-1.72-1.6-2.71-3.38-10.53-6.7-21.09-10.04-31.63-.34-1.04-.72-2.07-1.16-3.34z"/><path d="m278.44 193.14c-15.15-.57-30.3-1.14-45.65-1.71-1.35 8.06-2.47 15.91-4.04 23.67-.86 4.22-2.15 8.43-3.87 12.38-1.62 3.72-5.01 5.54-9.11 5.96-2.13.22-3.56-.39-3.5-2.73.06-2.66-.22-5.5.59-7.96 4.23-12.8 4.41-25.93 3.72-39.17-.42-7.9.69-15.57 3.5-22.92 7.27.01 9.6 2.26 9.5 8.96-.02 1.11.01 2.25.2 3.34.79 4.4 1.71 5.09 6.11 5.16 11.41.19 22.82.29 34.21.74 4.1.16 8.22 1.01 12.23 1.98 7.4 1.79 11.39 7.21 10.8 14.79-.23 3.03-.41 6.88-2.24 8.79-4.23 4.39-9.33 8-15.88 8.62-6.12.57-12.24 1.3-18.34 2.05-6.55.81-9.83 4.26-9.6 10.23.04 1.12.77 2.53 1.64 3.25 5.27 4.37 11.53 6.18 18.27 6.67 8.14.58 16.28 1.18 24.41 1.95 1.95.19 3.9.93 5.74 1.69 2.33.96 3.94 2.6 3.51 5.43-.4 2.62-1.57 4.23-4.46 5-11.86 3.18-23.55 1.91-35.13-1.1-5.71-1.49-11.29-3.54-16.85-5.55-6.93-2.51-10.12-8.22-10.49-14.99-.27-4.78 1.12-9.68 2.06-14.47.22-1.09 1.51-2.14 2.55-2.88 7.47-5.28 16.03-7.69 24.86-9.5 4.13-.85 8.16-2.24 12.13-3.69 1.41-.52 2.49-1.94 3.72-2.95-.21-.34-.4-.69-.59-1.04z"/><path d="m232.11 137.56c5.97.82 11.48 1.57 17.29 2.37 0-7.4-.21-14.44.05-21.46.34-9.25.79-18.52 1.75-27.72.34-3.27 2.34-6.36 3.6-9.56 7.67 3.39 10.41 8.76 9.47 16.51-.52 4.29-.5 8.66-.46 13 .02 2.19 1 3.75 3.76 3.52 2.5-.21 5.36.58 5.61-3.3.34-5.35.76-10.69 1-16.04.25-5.51 2.02-8.32 6-9.28 2.09-.51 3.45-.14 4.51 2.08 5.25 10.96 4.24 22.11-.74 32.4-2.4 4.95-8.41 8.18-14.66 8.04-3.41-.08-4.78 1.39-5.32 4.17-.53 2.72-.71 5.51-1.11 8.85 5.48.7 10.63 1.38 15.79 2.01 2.33.28 4.69.34 7 .73 4.14.7 7.19 2.81 8.66 6.97.87 2.47.6 4.23-2.29 4.59-5.52.69-11.08 1.84-16.59 1.72-15.94-.34-31.57-2.94-46.89-7.46-4.46-1.32-7.25-4-8.33-8.24-1.35-5.28-3.08-10.69-3.07-16.04 0-11.26 1.08-22.51 1.61-33.78.17-3.61 3.14-3.12 5.24-3.99 2.24-.93 2.97.78 3.87 2.16 3.56 5.41 3.94 11.51 3.87 17.72-.08 7.94-.12 15.88-.1 23.82 0 2 .3 4 .48 6.21z"/><path d="m157.22 114.67c0-4.88.3-9.55-.07-14.17-.52-6.41.49-12.21 4.98-17.38 5.55 3.92 7.46 9.67 7.44 15.79-.03 8.26-1.06 16.51-1.44 24.77-.23 5-.04 10.01-.04 15.52 6.11-.55 12.16-1.1 19.19-1.73 0-8.41-.08-16.66.03-24.91.07-5.02.11-10.08.74-15.05.48-3.83 2.21-7.3 6.23-8.9 3.42-1.36 4.32-1.02 5.44 2.45 3.28 10.09 3.29 20.51 2.63 30.92-.37 5.89-1.5 11.74-2.34 17.59-.5 3.49-2.55 5.69-5.67 7.32-8.15 4.24-16.9 6.68-25.89 7.78-10.85 1.33-21.78 1.92-32.7 2.66-2.19.15-4.43-.58-6.66-.69-3.79-.18-5.46-1.92-5.44-5.83.01-1.82.34-2.79 1.88-3.76 5.48-3.46 11.48-3.94 17.74-3.75 3.65.11 7.33-.4 10.96-.89.8-.11 2-1.26 2.08-2.03.42-3.86.53-7.76.76-11.87-3.62-.47-6.92-1.27-10.22-1.25-6.05.03-9.64-3.63-12.17-8.17-5.43-9.77-5.62-20.17-1.39-30.37.75-1.81 4.19-2.51 6.55-3.81 3.24 6.22 4.79 12.05 4.81 18.31.06 8.39 2.76 11.06 12.57 11.45z"/></g><path d="m377.9 391.2c-.2.3-.4.5-.6.8-.7-.6-1.4-1-2.2-1.5.2-.3.4-.5.5-.8.6.4 1.4.8 2.3 1.5zm-1.8 6.1c-.2-.2-.5-.4-.9-.6.4-.6.8-1.2 1.2-1.9s.7-1.3.9-1.9c.3.3.5.5.8.7-.7 1.3-1.4 2.6-2 3.7zm2.2-9c-.3.3-.5.5-.6.8-.6-.6-1.3-1.1-2-1.5.3-.3.5-.5.6-.7.6.5 1.3.9 2 1.4zm.3.2v-.9h2 4.5c-.3 1.3-.6 2.5-1 3.6s-.9 2.1-1.4 3c.4.5 1 1 1.6 1.4s1.2.8 1.9 1.1c-.3.2-.5.4-.8.8-.4-.3-1-.7-1.6-1.2s-1.2-1.1-1.6-1.6c-.5.6-1.1 1.1-1.7 1.6s-1.4.9-2.1 1.4c-.1-.3-.3-.5-.7-.8.6-.2 1.2-.5 1.9-1s1.4-1.1 2-1.8c-.5-.8-.9-1.6-1.2-2.5s-.6-2-.8-3.2c-.4.1-.7.1-1 .1zm2.5 2.7c.3 1 .7 1.7 1 2.2.3-.5.6-1.1 1-2s.6-1.9.9-3h-3.2-.4c.1.9.3 1.8.7 2.8z" fill="#fcfbfa"/><path d="m396.5 388.5v1.5 3.6h1.5v.9c-.4 0-1 0-1.7 0h-7.9c-.5 0-.9 0-1.2 0v-.9h1.3v-3.5c0-.7 0-1.2 0-1.6h2.4c0-.8 0-1.4 0-1.7h1c0 .3-.1.8-.1 1.7h1.5c0-.8 0-1.4 0-1.7h1c0 .3-.1.9-.1 1.7zm-8.2 9.2c-.2-.3-.5-.5-.8-.8.8-.3 1.4-.6 1.9-.9s1-.7 1.4-1.1c.3.3.6.5.9.8-1.6 1-2.8 1.6-3.4 2zm2.6-6.8v-1.6h-1.5v1.6zm0 2.7v-1.9h-1.5v1.9zm2.4-2.7v-1.6h-1.5v1.6zm0 2.7v-1.9h-1.5v1.9zm.2 2 .7-.8c.4.2.9.5 1.6.8s1.3.7 1.8 1c-.3.3-.5.5-.8.8-.4-.3-1.5-1-3.3-1.8zm2-4.7v-1.6h-1.4v1.6zm0 2.7v-1.9h-1.4v1.9z" fill="#fcfbfa"/></svg>