<svg enable-background="new 0 0 400 400" viewBox="0 0 400 400" xmlns="http://www.w3.org/2000/svg"><g fill="#010103"><path d="m171.44 198.37c1.28 5.59 2.53 11.02 3.81 16.62h30.37c.08-1.23.2-2.32.22-3.41.16-6.38.19-12.76.51-19.13.12-2.38-.44-3.32-2.96-3.6-9-1-17.98-2.25-26.96-3.43-3.88-.51-7.05-4.1-7.53-8.27-.29-2.54-.73-5.07-1.14-7.59-.58-3.54-3.03-5.05-6.25-4.66-4.97.59-9.91 1.56-14.78 2.73-.8.19-1.6 2.22-1.64 3.43-.61 15.88-1.16 31.76-1.58 47.65-.33 12.53-.39 25.06-.67 37.58-.11 5-2.95 8.05-7.79 8.35-1.01.06-2.73-.79-3.04-1.62-1.13-3.11-2.51-6.38-2.54-9.6-.17-22.16-.24-44.32.12-66.47.15-9.19 2.14-18.21 6.02-26.65.54-1.18 1.71-2.61 2.85-2.9 5.27-1.34 10.62-2.37 15.97-3.39 1.52-.29 3.13-.1 4.69-.25 6.92-.68 7.15-.97 7-8.72-4.67-1-9.41-2.26-14.23-3-10.8-1.66-17.22-7.81-19.63-18.33-2.03-8.87-2.11-17.77.03-26.61 1.28-5.28 1.88-5.62 8-6.05 2.62 5.25 3.63 10.9 3.98 16.75.33 5.55.08 11.22 3.19 16.25 1.77 2.87 3.89 5.02 7.54 5.41 3.41.36 6.78 1.17 11.07 1.95.54-5.73 1.01-11.12 1.58-16.5.53-4.96.86-9.98 1.85-14.85.94-4.63 4.19-7.74 8.8-8.7 7.08-1.47 14.22-3.2 21.4-3.58 17.42-.92 34.87-1.19 52.32-1.57 3.9-.08 7.84.2 11.7.75 4.44.63 6.87 3.15 7.28 6.73.25 2.12-.27 3.48-2.58 4.33-6.34 2.31-12.86 2.76-19.49 2.47-6.81-.3-13.63-.68-20.44-.99-1.11-.05-2.24.03-3.35.09-5.64.31-5.66.31-6.17 5.72-.14 1.54-.18 3.09-.28 5.02 9.01.27 17.82.4 26.61.84 8.81.43 17.61 1.08 26.39 1.84 1.53.13 3.25 1.04 4.4 2.11 2.98 2.78 2.32 5.87-1.4 7.36-10.95 4.39-22.5 5.02-34.01 4.38-8.88-.49-17.75-1.92-26.5-3.57-5.87-1.1-6.89-2.9-7.54-8.93-.26-2.45-.3-4.92-.61-7.36-.73-5.81-3.26-7.87-9.06-7.05-4.09.57-8.16 1.41-12.14 2.5-1.25.34-2.86 1.72-3.12 2.89-1.02 4.66-1.79 9.4-2.22 14.15-.35 3.75-.07 7.56-.07 11.8 5.94.3 11.6.83 17.25.83 15.77 0 31.54-.2 47.31-.35 13.1-.13 26.15.03 39.16 2.03 7.53 1.16 11.99 5.29 13.69 12.33 1.27 5.29 2.37 10.75 2.49 16.16.65 30.21.95 60.42 1.43 90.63.08 4.98-.33 9.77-2.65 14.34-1.52 2.99-4.18 2.23-6.44 2.26-1.04.01-2.7-1.31-3.03-2.36-1.03-3.26-2.1-6.66-2.18-10.03-.32-13.42-.29-26.86-.36-40.29-.08-14.21.1-28.44-.29-42.64-.24-8.7-1.36-17.37-2.07-25.97-9.04-2.81-88.68-4.79-103.59-2.59-.17 1.77-.35 3.62-.57 6.02h4.18c20.82 0 41.64-.1 62.46.07 4.88.04 9.76.93 14.62 1.58 2.69.36 4.74 1.8 4.68 4.78-.06 2.92-1.01 5.07-4.47 6.03-13.31 3.71-26.8 3.02-40.34 2.43-10.73-.47-21.45-.9-32.19-1.15-1.89-.04-4.22.42-5.57 1.57-1.35 1.14-2.09 3.38-2.35 5.24-.08.57 2.21 1.76 3.57 2.19 9.57 3.01 19.46 2.63 29.29 2.36 10.17-.28 20.33-1 30.5-1.26 4.45-.11 8.93.32 13.38.72 2.86.26 5.2 1.52 5.68 4.75.37 2.52-.12 4.3-2.99 5.44-7.72 3.06-15.55 2.29-23.49 1.64-5.05-.41-10.17-.08-15.44-.08-.6 9.11-1.16 17.58-1.77 26.66h34.42c.55-2.82 1.19-6.18 1.86-9.53.22-1.09.39-2.21.77-3.24 1.19-3.19 3.85-3.58 6.83-3.68 2.82-.09 3.02 2.06 3.37 3.76.93 4.59 2.06 9.22 2.2 13.86.36 12.02-1.31 23.84-4.34 35.51-1.97 7.57-6.39 12.71-13.18 16.36-8.86 4.77-18.3 7.17-28.25 7.64-15.93.75-31.49-1.04-46.21-7.66-1.45-.65-2.86-1.76-3.88-2.99-5.78-6.96-8.98-15.12-10.77-23.9-2.41-11.87-2.79-23.74.12-35.6 1.61-6.52 1.88-6.73 9.18-6.79zm49.07 40.04h32.47c-.32-2.7-.57-4.88-.83-7.07-10.66 0-21.1 0-31.64 0zm-44.11-7.17c.29 1.76.61 3.06.69 4.39.14 2.44 1.1 3.55 3.75 3.34 3.55-.29 7.13-.25 10.69-.28 4.84-.04 9.67-.01 14.77-.01-.22-3.01-.39-5.18-.56-7.43-9.93-.01-19.48-.01-29.34-.01zm70.53 21.04c-8.78 0-17.55 0-26.31 0v7.63c2.08.16 3.96.43 5.84.44 6.39.04 12.74-.11 18.54-3.48 1.98-1.15 2.78-2.43 1.93-4.59zm-65.28-.09c-.04 3.01 1.39 4.52 3.97 5.22 3.54.96 7 2.46 10.59 2.9 3.28.4 6.69-.29 10.14-.51-.26-3.08-.44-5.27-.64-7.61-8.13 0-16.01 0-24.06 0z"/><path d="m128.24 354.1c-1.33-8.26-1.17-8.86 6.55-10.69 4.75-1.12 9.7-1.79 14.57-1.87 14.52-.24 29.04-.09 44.06-.09.48-14.58.92-28.26 1.38-42.19-3.25-.51-6.2-.96-9.65-1.5-.69 3.39-1.42 6.72-2.05 10.07-2.19 11.6-4.96 14.81-16.82 15.79-8.62.71-17.41.28-26.04-.5-7.53-.67-7.49-1.2-7.83-9.13 5.65-2.59 11.71-2.93 17.88-2.97 5.69-.04 11.38-.26 17.06-.55 3.01-.15 4.12-1.75 4.43-4.96.62-6.31.57-11.53-6.85-14.11-2.68-.93-4.99-3.79-6.78-6.27-6.11-8.45-5.23-16.39 2.48-24.91 3.98 1.96 6.38 4.95 6.48 9.59.03 1.45.15 2.91.4 4.34.83 4.69 3.18 7.05 7.92 7.55 15.88 1.69 31.75 3.81 47.68 4.73 12.42.72 24.73-1.41 36.75-4.87 2.2-.63 3.45-1.71 3.89-3.91.63-3.17 1.31-6.33 2.04-9.48.35-1.51.58-3.13 1.31-4.46 2.03-3.66 6.45-3.68 8.39-.09 3.99 7.36 4.04 14.77-.18 22.04-.8 1.38-2.05 2.66-3.37 3.57-9.46 6.53-10.05 7.82-8.16 20.16 6.06.35 12.27.71 18.48 1.06 4.23.24 8.52.11 12.68.8 4.4.73 7.43 3.47 8.25 8.33-3.97 2.84-8.55 4.13-13.34 4.68-10.03 1.14-19.84.1-29.44-3.13-6.85-2.3-9.26-7.75-9.91-14.13-.73-7.12-2.68-9.14-10.25-8.94v39.99c6.99 0 13.87.01 20.76 0 11.18-.03 22.36-.12 33.54-.08 1.99.01 4 .45 5.95.89 2.31.52 4.12 1.6 4.32 4.38.19 2.75-.52 4.49-3.39 5.65-6.26 2.54-12.7 3.16-19.36 3.12-14.19-.07-28.38-.06-42.57.17-36.01.57-72.02 1.27-108.02 1.92-1.01.02-2.01 0-3.24 0zm80.39-13.95c6.36-.29 12.18-.56 18.08-.83-.5-13.87-.98-27.23-1.47-40.84-5.89.62-11.4 1.2-16.61 1.75z"/><path d="m294.38 67.55c-7.05 4.56-14.74 5.3-22.68 5.12-11.74-.26-23.48-.64-35.21-.52-26.95.29-53.9.74-80.85 1.38-8.8.21-17.62.96-26.38 1.92-6.19.68-11.78 3.3-15.15 8.8-1.68 2.74-3.14 6.14-3.2 9.27-1.11 66.56-1.72 133.13-3.12 199.68-.46 22.11-2.82 44.18-4.35 66.27-.22 3.12-.42 6.27-1 9.33-.34 1.8-1.15 3.66-2.21 5.15-1.49 2.08-3.7 2.57-6.29 1.91-2.52-.64-3.93-2.02-3.95-4.6-.07-8.6-1.03-17.33.07-25.78 4.46-34.46 5.62-69.06 5.95-103.75.34-35.13 1.28-70.24 1.66-105.37.12-10.73-.85-21.46-1.13-32.19-.24-9.14 1.26-18.05 4.7-26.55.67-1.66 1.83-3.33 3.2-4.48 9.14-7.68 20.07-10.21 31.7-11.12 16.84-1.3 33.64-3.22 50.56-2.37 3.1.16 4.24-1.1 4.49-3.91.61-7.01 1.17-14.03 1.98-21.02.3-2.52 1.32-4.94 1.94-7.43.45-1.83 1.56-1.9 3.04-1.35 4.33 1.6 6.79 4.77 7.1 9.28.23 3.33-.24 6.69-.25 10.04-.02 3.23.02 6.47.28 9.68.23 2.88 1.79 4.07 4.93 4.05 22.27-.13 44.54-.08 66.81-.06 2.91 0 5.81.11 8.72.28 5.87.34 7.81 2.21 8.64 8.34z"/></g><path d="m377.9 391.2c-.2.3-.4.5-.6.8-.7-.6-1.4-1-2.2-1.5.2-.3.4-.5.5-.8.6.4 1.4.8 2.3 1.5zm-1.8 6.1c-.2-.2-.5-.4-.9-.6.4-.6.8-1.2 1.2-1.9s.7-1.3.9-1.9c.3.3.5.5.8.7-.7 1.3-1.4 2.6-2 3.7zm2.2-9c-.3.3-.5.5-.6.8-.6-.6-1.3-1.1-2-1.5.3-.3.5-.5.6-.7.6.5 1.3.9 2 1.4zm.3.2v-.9h2 4.5c-.3 1.3-.6 2.5-1 3.6s-.9 2.1-1.4 3c.4.5 1 1 1.6 1.4s1.2.8 1.9 1.1c-.3.2-.5.4-.8.8-.4-.3-1-.7-1.6-1.2s-1.2-1.1-1.6-1.6c-.5.6-1.1 1.1-1.7 1.6s-1.4.9-2.1 1.4c-.1-.3-.3-.5-.7-.8.6-.2 1.2-.5 1.9-1s1.4-1.1 2-1.8c-.5-.8-.9-1.6-1.2-2.5s-.6-2-.8-3.2c-.4.1-.7.1-1 .1zm2.5 2.7c.3 1 .7 1.7 1 2.2.3-.5.6-1.1 1-2s.6-1.9.9-3h-3.2-.4c.1.9.3 1.8.7 2.8z" fill="#fcfbfa"/><path d="m396.5 388.5v1.5 3.6h1.5v.9c-.4 0-1 0-1.7 0h-7.9c-.5 0-.9 0-1.2 0v-.9h1.3v-3.5c0-.7 0-1.2 0-1.6h2.4c0-.8 0-1.4 0-1.7h1c0 .3-.1.8-.1 1.7h1.5c0-.8 0-1.4 0-1.7h1c0 .3-.1.9-.1 1.7zm-8.2 9.2c-.2-.3-.5-.5-.8-.8.8-.3 1.4-.6 1.9-.9s1-.7 1.4-1.1c.3.3.6.5.9.8-1.6 1-2.8 1.6-3.4 2zm2.6-6.8v-1.6h-1.5v1.6zm0 2.7v-1.9h-1.5v1.9zm2.4-2.7v-1.6h-1.5v1.6zm0 2.7v-1.9h-1.5v1.9zm.2 2 .7-.8c.4.2.9.5 1.6.8s1.3.7 1.8 1c-.3.3-.5.5-.8.8-.4-.3-1.5-1-3.3-1.8zm2-4.7v-1.6h-1.4v1.6zm0 2.7v-1.9h-1.4v1.9z" fill="#fcfbfa"/></svg>