<svg enable-background="new 0 0 400 400" viewBox="0 0 400 400" xmlns="http://www.w3.org/2000/svg"><path d="m175.77 113.22c.36-10.28.86-20.76 1.05-31.24.23-12.86-.16-25.74.47-38.57.27-5.46 2.39-10.83 3.77-16.22.52-2.04 1.8-2.36 3.81-1.63 5.08 1.87 8.45 6.24 8.32 12.53-.12 5.68-1.11 11.33-1.6 17-.53 6.21-1.08 12.44.65 18.93 9.66-1 19.1-1.92 28.54-2.95 9.01-.99 17.99-2.17 27-3.07 2.3-.23 3.99-.94 4.42-3.2 1.25-6.67 2.51-13.34 3.42-20.06.78-5.82 2.98-9.36 7.21-10.67 2.01-.62 3.22-.35 4.25 1.75 3.9 7.92 3.95 16.16 2.5 24.58-.19 1.1-.54 2.19-.62 3.3-.86 10.95-7.47 16.88-17.55 18.97-8.94 1.85-18.04 3.05-27.13 4.02-10.2 1.09-20.46 1.6-31.08 2.4-.35 7.83-.7 15.58-1.08 23.88 5.24 0 10.13-.04 15.02.01 24.95.25 49.91.49 74.86.8 3.35.04 6.72.24 10.03.73 2.05.3 4.24.93 5.94 2.05 5.63 3.72 5.48 9.96-.7 12.11-4.8 1.67-10.25 1.95-15.41 2.01-15.78.17-31.56-.08-47.34-.13-12.43-.04-24.85-.01-37.28-.01-1.21 0-2.42 0-3.82 0-.09 1.16-.22 2.01-.22 2.87.01 13.19-.62 26.43 2.1 39.47.33 1.58 1.24 3.34 2.44 4.38 6.7 5.78 14.98 5.96 23.17 5.86 13.45-.17 26.91.01 40.02 3.16 6.86 1.65 13.69 4.15 19.96 7.38 7.1 3.66 11.14 10.43 13.96 17.84 4.26 11.22 5.7 22.91 6.46 34.8 2.59 40.78 4.66 81.56 3.88 122.44-.06 3.24-.72 4.68-4.18 5.14-5.5.72-6.56.78-7.98-4.52-1.25-4.65-1.69-9.62-1.78-14.47-.24-12.74.26-25.49-.19-38.22-.75-21.13-1.89-42.26-3.11-63.37-.57-9.93-1.16-19.92-2.76-29.71-1.54-9.43-6.93-16.32-16.2-20.23-13.24-5.59-26.89-6.02-40.85-4.73-11.48 1.06-22.43-.64-32.94-5.69-9.01-4.33-13.39-11.74-14.54-21.07-1.4-11.29-3.32-22.57-2.25-34.07.51-5.55-1.41-7.26-6.89-7.26-20.71 0-41.42.09-62.13-.06-5.09-.04-10.21-.64-15.26-1.39-3.11-.46-4.66-2.87-4.96-5.98-.44-4.55.48-5.75 4.95-6.85 11.29-2.78 22.77-3.08 34.33-2.86 15.22.29 30.44.23 45.66.3.3-.01.61-.18 1.66-.48z" fill="#010103"/><path d="m174.67 300.92c0-19.55 0-38.74 0-58.89-6.37-.18-13.12-.63-19.85-.51-9.39.17-18.77 1.15-28.15 1.02-5.26-.07-10.53-1.56-15.75-2.67-1.91-.41-4.33-6.8-3.55-8.59.12-.28.39-.59.66-.68 4.09-1.44 8.18-4.05 12.28-4.07 41.75-.23 83.5-.06 125.26.09 2.75.01 5.59.5 8.23 1.29 3.27.98 4.94 3.64 4.44 6.99-.22 1.46-1.41 3.32-2.68 3.98-7.16 3.69-14.94 4.28-22.85 3.95-12.51-.53-25.03-1-37.55-1.48-1.1-.04-2.2-.01-3.75-.01-.59 19.65-1.17 39.04-1.77 59.11 6.48 0 12.6-.06 18.72.01 11.3.14 22.6.24 33.89.62 3.18.11 6.49.77 9.44 1.93 1.69.67 3.34 2.64 4.04 4.4 1.49 3.78.75 5.03-2.9 6.85-6.47 3.22-13.41 2.96-20.37 2.76-25.6-.72-51.21-1.42-76.82-2.01-15.21-.35-30.43-.51-45.64-.66-2.93-.03-4.38-1.63-4.85-4.11-.46-2.41-.47-4.59 2.57-6.01 9.28-4.32 19.05-4.27 28.92-4.01 11.29.29 22.59.45 33.89.65 1.2.07 2.4.05 4.14.05z" fill="#010103"/><g fill="#fcfbfa"><path d="m377.9 391.2c-.2.3-.4.5-.6.8-.7-.6-1.4-1-2.2-1.5.2-.3.4-.5.5-.8.6.4 1.4.8 2.3 1.5zm-1.8 6.1c-.2-.2-.5-.4-.9-.6.4-.6.8-1.2 1.2-1.9s.7-1.3.9-1.9c.3.3.5.5.8.7-.7 1.3-1.4 2.6-2 3.7zm2.2-9c-.3.3-.5.5-.6.8-.6-.6-1.3-1.1-2-1.5.3-.3.5-.5.6-.7.6.5 1.3.9 2 1.4zm.3.2v-.9h2 4.5c-.3 1.3-.6 2.5-1 3.6s-.9 2.1-1.4 3c.4.5 1 1 1.6 1.4s1.2.8 1.9 1.1c-.3.2-.5.4-.8.8-.4-.3-1-.7-1.6-1.2s-1.2-1.1-1.6-1.6c-.5.6-1.1 1.1-1.7 1.6s-1.4.9-2.1 1.4c-.1-.3-.3-.5-.7-.8.6-.2 1.2-.5 1.9-1s1.4-1.1 2-1.8c-.5-.8-.9-1.6-1.2-2.5s-.6-2-.8-3.2c-.4.1-.7.1-1 .1zm2.5 2.7c.3 1 .7 1.7 1 2.2.3-.5.6-1.1 1-2s.6-1.9.9-3h-3.2-.4c.1.9.3 1.8.7 2.8z"/><path d="m396.5 388.5v1.5 3.6h1.5v.9c-.4 0-1 0-1.7 0h-7.9c-.5 0-.9 0-1.2 0v-.9h1.3v-3.5c0-.7 0-1.2 0-1.6h2.4c0-.8 0-1.4 0-1.7h1c0 .3-.1.8-.1 1.7h1.5c0-.8 0-1.4 0-1.7h1c0 .3-.1.9-.1 1.7zm-8.2 9.2c-.2-.3-.5-.5-.8-.8.8-.3 1.4-.6 1.9-.9s1-.7 1.4-1.1c.3.3.6.5.9.8-1.6 1-2.8 1.6-3.4 2zm2.6-6.8v-1.6h-1.5v1.6zm0 2.7v-1.9h-1.5v1.9zm2.4-2.7v-1.6h-1.5v1.6zm0 2.7v-1.9h-1.5v1.9zm.2 2 .7-.8c.4.2.9.5 1.6.8s1.3.7 1.8 1c-.3.3-.5.5-.8.8-.4-.3-1.5-1-3.3-1.8zm2-4.7v-1.6h-1.4v1.6zm0 2.7v-1.9h-1.4v1.9z"/></g></svg>