<svg enable-background="new 0 0 400 400" viewBox="0 0 400 400" xmlns="http://www.w3.org/2000/svg"><g fill="#010103"><path d="m244.03 148.79c-3.26-.3-6.14-.6-9.04-.84-3.67-.31-7.34-.57-11.89-.92-.34 4.77-1.27 9.43-.87 13.97.9 10.01-1.74 18.61-7.63 26.71-6.64 9.13-12.23 19.03-18.99 28.07-8.88 11.88-11.66 25.39-12.49 39.66-1.49 25.56.64 50.99 2.45 76.44.71 9.93 1.62 19.84 2.23 29.77.19 3.09-.01 6.29-.6 9.32-.86 4.4-5.94 6.53-9.7 4.24-.77-.47-1.32-1.78-1.44-2.77-1.18-9.97-2.33-19.95-3.32-29.94-1.17-11.9-1.96-23.85-3.3-35.73-2.09-18.44-1.25-36.82-.3-55.29.85-16.51 8.78-30.29 14.93-44.81.86-2.03 3.05-3.51 4.64-5.23 8.63-9.29 16.11-19.43 18.73-32.03 1.27-6.1.57-12.62.75-18.95.06-2.01-1-2.65-2.93-2.64-9.28.06-18.55.05-27.83.01-3.35-.02-6.76.16-10.04-.37-7.56-1.2-10.43-5.3-9.53-13.19 13.22-4.24 27.26-1.13 41.06-3.93-2.71-7.23-5.32-14.22-7.95-21.19-3.04-8.05-5.87-16.19-9.21-24.11-6.66-15.81.51-34.36 20.56-38.65 15.38-3.29 30.8-5.52 46.55-5.4 9.5.07 19-.06 28.5.16 2.62.06 5.48.55 7.76 1.74 2.11 1.1 4.05 3.16 5.2 5.27 1.17 2.17.66 4.28-2.45 5.34-7.73 2.65-15.69 3.53-23.76 3.7-12.98.28-25.98.05-38.92.85-7.29.45-14.59 2.11-21.69 3.96-6.84 1.79-10.55 7.71-9.93 14.82.29 3.3.82 6.75 2.1 9.77 5.94 14.11 12.15 28.1 18.35 42.09.36.81 1.51 1.74 2.34 1.78 8.71.49 17.43.86 26.14 1.09.76.02 1.95-.99 2.27-1.78 2.23-5.59 2.49-11.35.61-17.07-.42-1.28-1.44-2.52-2.49-3.41-7.67-6.52-15.49-12.88-23.13-19.44-5.15-4.42-9.52-9.49-11.34-16.27-1.16-4.32.86-6.64 5.18-5.37 3.04.89 6.18 2.27 8.61 4.25 11.08 9.07 21.92 18.44 33.03 27.85 4.94-4.76 9.76-9.52 14.72-14.14 5.9-5.5 11.86-11.02 19.62-13.81 3.85-1.39 7.89-2.26 11.53-3.27.63.57.85.68.93.86 2.98 6.82 3.1 6.98-2.68 11.63-7.58 6.1-15.3 12.03-23.12 17.83-10.43 7.73-16.58 19.05-16.33 31.36 4.33.34 8.73.95 13.13.96 7.83.01 15.66-.58 23.48-.46 4.07.06 8.16.99 12.19 1.78 1.35.27 2.79 1.09 3.76 2.08 5.4 5.51 5.25 7.37-1.28 10.42-7.29 3.4-14.99 3.06-22.72 2.63-7.7-.42-15.42-.73-23.13-1.02-1.32-.05-2.72.04-3.98.41-2.56.75-3.59 1.89-2.63 5.13 2.07 6.98 5.44 12.81 11.02 17.53 3.24 2.73 5.79 6.3 9.12 8.91 10.34 8.11 14.86 19.5 18.53 31.48 4.9 16.01 7.05 32.55 9.25 49.05 1.22 9.17 1.3 18.5 2.03 27.74.96 12.03 2.11 24.04 3.08 36.06 1.07 13.31 1.11 26.58-1.22 39.81-.58 3.31-1.97 4.41-5.13 5.19-3.63.89-4.96-.29-6.02-3.45-3.32-9.93-4.25-20.18-3.63-30.49 1.39-23.13-.51-46.05-3.35-68.96-1.4-11.32-2.24-22.72-3.84-34.01-1.75-12.37-5.65-24.2-11.39-35.26-2.2-4.24-5.93-7.77-9.31-11.29-2.46-2.56-5.48-4.59-8.29-6.82-7.8-6.2-10.56-15.61-15.11-23.86-.79-1.43-.33-3.51-.45-5.55z"/><path d="m141.81 74.68c-14.66 0-28.41.12-42.15-.1-2.65-.04-5.44-1.07-7.88-2.24-2.4-1.15-3.22-3.49-2.73-6.28.49-2.81 2.63-3.14 4.72-3.25 7.81-.4 15.63-.67 23.45-.95 6.37-.22 12.73-.42 19.1-.55 2.93-.06 4.18-1.66 4.45-4.36.69-6.78 1.16-13.6 2.16-20.34.55-3.7 1.98-7.27 2.97-10.74 5.53-.27 9.17 2.67 9.65 8 .46 5.11.46 10.27.46 15.4 0 19.63-1.21 39.13-6.47 58.17-.4 1.46-1.46 3.02-2.67 3.93-9.97 7.51-21.22 11.9-33.67 12.91-15.39 1.25-20.02 12.62-20.95 24.25-.07.85 1.31 2.13 2.31 2.72 10.6 6.2 22.14 10.07 33.85 13.51 5.46 1.6 11.07 2.88 16.28 5.09 14.32 6.08 18.24 17.71 14.64 30.99-1.7 6.27-6.04 11.91-9.63 17.56-5.51 8.68-11.37 17.15-17.14 25.66-6.09 8.98-8.07 19.38-9.72 29.72-2.15 13.46-4.15 27.01-4.94 40.6-.63 10.87.75 21.85 1.06 32.78.17 5.89.08 11.79-.09 17.68-.04 1.38-.74 2.81-1.39 4.08-1.49 2.91-4.08 3.91-7.23 3.92-3 0-3.82-2.53-4.27-4.43-1.15-4.84-2.47-9.86-2.31-14.76.67-19.79 1.49-39.59 3.01-59.32 1.01-13.14 3.28-26.18 5.04-39.26.16-1.19.61-2.37 1.12-3.47 1.23-2.63 2.61-5.19 3.86-7.82 4.32-9.08 8.77-17.97 16.43-24.97 3.41-3.11 6.01-7.23 8.47-11.21 1.79-2.89 3.16-6.19 4.01-9.49 1.83-7.1.76-9.2-5.39-12.86-11.36-6.76-23.66-11.02-36.5-13.88-7.29-1.63-14.45-3.78-19.29-9.92-6.22-7.88-7.6-16.68-4.78-26.48 2.71-9.4 8.25-15.63 16.98-20.04 7.01-3.54 14.28-4.82 21.79-6.04 4.79-.78 9.57-2.05 14.12-3.74 4.6-1.71 7.47-5.53 8.02-10.39.74-6.28.83-12.64 1.25-20.08z"/><path d="m251.3 266.24c-1.15-9.12-2.19-17.75-3.34-26.37-1.16-8.64-2.92-17.24-.98-25.98 1.14-5.12 3.41-9.66 6.93-13.58 1.46-1.63 2.87-2.6 5.2-1.52 2.41 1.12 2.81 2.98 2.56 5.25-.39 3.55-1.03 7.09-1.22 10.65-.84 15.63 1.43 31.02 4.15 46.33.21 1.15 1.86 2.72 3.02 2.9 2.81.44 5.73.31 8.59.15 4.8-.27 8.68 4.08 7.39 8.64-.23.82-1.19 1.72-2.02 2.03-4.59 1.67-9.13 3.97-13.88 4.56-14.65 1.81-29.23.13-43.69-2.39-1.35-.23-3.01-1.76-3.53-3.07-2.46-6.19-5.34-12.36-6.64-18.83-2.8-14-3.31-28.19-.47-42.33 1.03-5.15 2.89-6.5 8.05-5.62.76.13 1.58 1.05 2.01 1.81 3.93 6.92 4.75 14.54 5.07 22.31.4 9.72.96 19.43 1.56 29.14.3 4.89 1.54 5.92 6.46 5.92z"/></g><path d="m377.9 391.2c-.2.3-.4.5-.6.8-.7-.6-1.4-1-2.2-1.5.2-.3.4-.5.5-.8.6.4 1.4.8 2.3 1.5zm-1.8 6.1c-.2-.2-.5-.4-.9-.6.4-.6.8-1.2 1.2-1.9s.7-1.3.9-1.9c.3.3.5.5.8.7-.7 1.3-1.4 2.6-2 3.7zm2.2-9c-.3.3-.5.5-.6.8-.6-.6-1.3-1.1-2-1.5.3-.3.5-.5.6-.7.6.5 1.3.9 2 1.4zm.3.2v-.9h2 4.5c-.3 1.3-.6 2.5-1 3.6s-.9 2.1-1.4 3c.4.5 1 1 1.6 1.4s1.2.8 1.9 1.1c-.3.2-.5.4-.8.8-.4-.3-1-.7-1.6-1.2s-1.2-1.1-1.6-1.6c-.5.6-1.1 1.1-1.7 1.6s-1.4.9-2.1 1.4c-.1-.3-.3-.5-.7-.8.6-.2 1.2-.5 1.9-1s1.4-1.1 2-1.8c-.5-.8-.9-1.6-1.2-2.5s-.6-2-.8-3.2c-.4.1-.7.1-1 .1zm2.5 2.7c.3 1 .7 1.7 1 2.2.3-.5.6-1.1 1-2s.6-1.9.9-3h-3.2-.4c.1.9.3 1.8.7 2.8z" fill="#fcfbfa"/><path d="m396.5 388.5v1.5 3.6h1.5v.9c-.4 0-1 0-1.7 0h-7.9c-.5 0-.9 0-1.2 0v-.9h1.3v-3.5c0-.7 0-1.2 0-1.6h2.4c0-.8 0-1.4 0-1.7h1c0 .3-.1.8-.1 1.7h1.5c0-.8 0-1.4 0-1.7h1c0 .3-.1.9-.1 1.7zm-8.2 9.2c-.2-.3-.5-.5-.8-.8.8-.3 1.4-.6 1.9-.9s1-.7 1.4-1.1c.3.3.6.5.9.8-1.6 1-2.8 1.6-3.4 2zm2.6-6.8v-1.6h-1.5v1.6zm0 2.7v-1.9h-1.5v1.9zm2.4-2.7v-1.6h-1.5v1.6zm0 2.7v-1.9h-1.5v1.9zm.2 2 .7-.8c.4.2.9.5 1.6.8s1.3.7 1.8 1c-.3.3-.5.5-.8.8-.4-.3-1.5-1-3.3-1.8zm2-4.7v-1.6h-1.4v1.6zm0 2.7v-1.9h-1.4v1.9z" fill="#fcfbfa"/></svg>