<svg enable-background="new 0 0 400 400" viewBox="0 0 400 400" xmlns="http://www.w3.org/2000/svg"><path d="m247.37 173.03c2.82 6.98 5.47 13.85 8.41 20.59.69 1.58 2.08 3.19 3.58 4.01 9.2 5.08 18.58 9.84 27.8 14.88 10.77 5.89 15.81 15.81 18.08 27.28 2.14 10.79.47 21.37-6.22 30.05-8.87 11.51-20.01 20.14-35.4 21.3-7.14.54-14.26 1.26-21.38 2.02-.8.08-2.02.79-2.19 1.44-3.68 14.04-12.76 25.27-19.57 37.66-.05.09-.07.21-.2.64 5.96 5.93 12.83 10.97 20.57 14.4 10.7 4.75 21.75 8.7 32.65 13 3.7 1.46 7.11 3.28 9.1 6.99 1.91 3.56 1.61 4.65-1.99 6.54-3.36 1.77-7.01 2.21-10.35.57-18.02-8.84-37.45-14.83-53.97-26.68-1.08-.77-2.11-1.66-3.01-2.64-4.9-5.38-9.53-11.03-14.68-16.15-6.57-6.52-11.39-13.96-14.09-22.81-.59-1.92-1.44-3.76-2.19-5.62-3.26-8.12-3.27-8.07-11.91-8.74-8.81-.69-17.62-1.38-26.42-2.26-19.71-1.98-33.17-14.11-37.42-33.41-2.71-12.3-1.33-24.1 4.62-35.13 1.37-2.55 4.18-4.75 6.84-6.11 5.84-2.97 11.89-5.64 18.07-7.8 6.49-2.27 12.85-4.64 18.17-9.09 1.29-1.08 2.44-2.62 3.06-4.18 2.71-6.84 5.19-13.77 7.73-20.6 7.49.53 10.8 3.95 9.93 11.03-.6 4.95-1.11 10.45-3.62 14.49-3.18 5.13-7.65 10.21-12.79 13.21-9.21 5.39-19.21 9.54-29.13 13.61-8.67 3.56-11.38 9.52-10.44 18.05.6 5.39 2.31 10.67 3.7 15.95.29 1.09 1.19 2.12 2.03 2.95 9.02 8.96 20.06 13.65 32.55 15.05 5.95.67 11.94.92 18.3 1.39-.79-8.98-1.75-17.18-2.15-25.41-.28-5.77-.27-11.64.48-17.35.61-4.64 3.59-8.05 8.65-9.16 3.39 5.35 4.37 11.09 4.63 17.09.8 18.05 3.68 35.83 8.13 53.31 2.38 9.34 7.4 17.41 14.17 24.83 5.54-7.06 9.8-14.55 13.26-22.54 5.04-11.62 6.67-23.75 4.4-36.12-1.3-7.1-4.11-13.91-6.02-20.92-.87-3.2-1.6-6.55-1.6-9.84 0-1.87 1.19-4.12 2.55-5.52 2.81-2.89 4.85-2.56 7.34.61 7.67 9.72 10.75 21.27 12.76 33.13.74 4.37.75 8.93.55 13.37-.15 3.38 1.4 4.6 4.25 4.51 3.33-.11 6.74-.26 9.95-1.08 5.51-1.41 10.89-3.35 16.31-5.09 11.12-3.56 15.79-12.14 17.43-22.86.45-2.94.38-6.06-.06-9-.89-5.84-2.69-11.21-8.42-14.44-9.63-5.43-18.98-11.37-28.72-16.58-7.07-3.78-13.1-8.4-14.02-16.71-.62-5.66.39-11.51.79-17.26.04-.56.84-1.33 1.44-1.52 1.78-.54 3.64-.86 5.68-1.33z" fill="#010103"/><path d="m221.21 129.85c24.22 16.11 48.28 31.12 75.78 39.59 2.63.81 5.09 2.28 7.51 3.65 1.13.64 2.45 1.59 2.87 2.71.91 2.43 1.7 5.07 1.61 7.58-.02.57-4.02 1.79-5.87 1.36-6.27-1.47-12.68-2.91-18.52-5.51-19.3-8.57-38.46-17.5-57.49-26.66-3.82-1.84-6.88-5.26-10.25-8-3.29-2.67-6.19-6.86-9.87-7.71-3.69-.85-8.19 1.43-12.24 2.64-14.44 4.32-27.66 11.31-40.81 18.54-9.46 5.21-16.49 13.34-25.02 19.62-9.36 6.89-18.82 13.65-28.45 20.16-2.8 1.89-6.27 2.9-9.55 3.92-3.61 1.13-6.08-1.09-5.32-4.92.39-1.96 1.48-4.09 2.89-5.49 19.94-19.64 41.42-37.36 66.36-50.32 11.88-6.18 24.41-11.1 36.64-16.6 1.01-.45 2-.95 3.34-1.58-2.02-6.91-4.27-13.67-5.96-20.58-4.94-20.24-9.08-40.65-8.31-61.63.19-5.22 1.97-10.39 3.02-15.54 6.61 1.13 10.5 4.82 11.48 11.11.65 4.16.46 8.46.57 12.69.15 5.92.14 11.85.38 17.76.07 1.73.74 3.45 1.22 5.53 5.83-2.57 11.6-4.51 16.7-7.56 3.84-2.3 4.53-7.11 4.73-11.32.19-4.09-.57-8.21-.88-12.33-.19-2.55-.64-5.14-.38-7.66.17-1.65 1.06-3.48 2.18-4.73 2.89-3.21 5.96-3.23 8.06.42 2.47 4.28 4.76 8.89 5.9 13.66 1.81 7.6 1.1 15.37-1.31 22.84-.47 1.46-1.55 2.99-2.78 3.88-8.7 6.3-17.48 12.49-26.32 18.59-1.79 1.24-2.16 2.31-1.39 4.39 2.47 6.71 4.79 13.48 6.92 20.31.75 2.42 2.13 3.05 4.39 3.14 5.26.21 9.88-1.72 14.33-4.12 7.77-4.19 15.93-7.89 23.04-13.02 5.31-3.83 9.44-9.42 13.69-14.55 2.1-2.54 3.41-5.77 4.82-8.8.82-1.77 1.93-2.27 3.68-1.91 2.05.42 4.47-.31 5.51 2.66 2.16 6.18.05 11.67-3.16 16.51-2.86 4.31-6.89 7.84-10.37 11.75-5.9 6.63-13.01 11.38-21.2 14.86-7.38 3.14-14.47 6.94-22.17 10.67z" fill="#010103"/><g fill="#fcfbfa"><path d="m377.9 391.2c-.2.3-.4.5-.6.8-.7-.6-1.4-1-2.2-1.5.2-.3.4-.5.5-.8.6.4 1.4.8 2.3 1.5zm-1.8 6.1c-.2-.2-.5-.4-.9-.6.4-.6.8-1.2 1.2-1.9s.7-1.3.9-1.9c.3.3.5.5.8.7-.7 1.3-1.4 2.6-2 3.7zm2.2-9c-.3.3-.5.5-.6.8-.6-.6-1.3-1.1-2-1.5.3-.3.5-.5.6-.7.6.5 1.3.9 2 1.4zm.3.2v-.9h2 4.5c-.3 1.3-.6 2.5-1 3.6s-.9 2.1-1.4 3c.4.5 1 1 1.6 1.4s1.2.8 1.9 1.1c-.3.2-.5.4-.8.8-.4-.3-1-.7-1.6-1.2s-1.2-1.1-1.6-1.6c-.5.6-1.1 1.1-1.7 1.6s-1.4.9-2.1 1.4c-.1-.3-.3-.5-.7-.8.6-.2 1.2-.5 1.9-1s1.4-1.1 2-1.8c-.5-.8-.9-1.6-1.2-2.5s-.6-2-.8-3.2c-.4.1-.7.1-1 .1zm2.5 2.7c.3 1 .7 1.7 1 2.2.3-.5.6-1.1 1-2s.6-1.9.9-3h-3.2-.4c.1.9.3 1.8.7 2.8z"/><path d="m396.5 388.5v1.5 3.6h1.5v.9c-.4 0-1 0-1.7 0h-7.9c-.5 0-.9 0-1.2 0v-.9h1.3v-3.5c0-.7 0-1.2 0-1.6h2.4c0-.8 0-1.4 0-1.7h1c0 .3-.1.8-.1 1.7h1.5c0-.8 0-1.4 0-1.7h1c0 .3-.1.9-.1 1.7zm-8.2 9.2c-.2-.3-.5-.5-.8-.8.8-.3 1.4-.6 1.9-.9s1-.7 1.4-1.1c.3.3.6.5.9.8-1.6 1-2.8 1.6-3.4 2zm2.6-6.8v-1.6h-1.5v1.6zm0 2.7v-1.9h-1.5v1.9zm2.4-2.7v-1.6h-1.5v1.6zm0 2.7v-1.9h-1.5v1.9zm.2 2 .7-.8c.4.2.9.5 1.6.8s1.3.7 1.8 1c-.3.3-.5.5-.8.8-.4-.3-1.5-1-3.3-1.8zm2-4.7v-1.6h-1.4v1.6zm0 2.7v-1.9h-1.4v1.9z"/></g></svg>