<svg enable-background="new 0 0 400 400" viewBox="0 0 400 400" xmlns="http://www.w3.org/2000/svg"><path d="m174.29 226.49c6.76 13.22 8.82 27.19 8.82 41.52 0 11.91.41 23.76 4.16 35.16 1.91 5.79 4.56 11.34 6.87 16.99.43.04.86.08 1.29.12 3.75-6.53 7.79-12.9 11.18-19.61 9.48-18.71 13.52-38.72 13.55-59.63 0-3.09.36-6.32 1.32-9.23.57-1.72 2.42-3.4 4.12-4.27 2.02-1.04 3.89-.35 5.14 2.1 4.7 9.2 4.97 18.98 3.69 28.84-.89 6.83-2.6 13.55-4.02 20.66 10.68.96 21.1 1.37 31.32-1.81 4.26-1.33 8.53-2.73 12.62-4.5 13.22-5.74 19.82-20.81 13.15-34.98-.43-.92-1.4-1.73-2.32-2.25-11.38-6.42-22.8-12.79-34.22-19.15-1.66-.92-3.41-1.67-5.09-2.57-11.76-6.31-15.81-15.89-12.08-28.67.56-1.93 1.46-3.76 1.98-5.69.85-3.22 3.1-3.64 5.22-1.98 2.15 1.69 4.2 3.99 5.26 6.46 1.75 4.06 2.36 8.6 4.08 12.68.88 2.1 2.79 4.17 4.78 5.32 10.03 5.85 19.89 12.21 30.48 16.86 15.33 6.73 19.35 16.91 18.12 32.57-.51 6.42-2.32 13.19-5.33 18.83-2.32 4.34-7.13 7.64-11.4 10.57-12.19 8.38-25.95 12.28-40.67 12.9-5.92.25-11.86.31-17.76.79-1.31.11-3 1.36-3.68 2.56-4.23 7.35-8.06 14.93-12.36 22.24-2.02 3.44-5.03 6.3-7.15 9.7-2.45 3.93-2.16 4.93 1.52 7.75 7.81 6 15.74 11.84 23.56 17.82 4.47 3.43 8.68 7.23 10.68 12.66.79 2.14 1.44 6.14.55 6.7-1.96 1.22-5.14 1.46-7.49.85-3.16-.82-6.31-2.42-8.94-4.39-8.42-6.3-16.61-12.9-24.87-19.41-7.34-5.78-12.96-12.93-16.85-21.42-1.82-3.96-3.44-8.02-5.36-11.93-3.37-6.86-6.1-13.92-6.93-21.56-.22-2-1.05-2.61-2.92-2.73-8.26-.53-16.51-1.2-24.77-1.76-19.32-1.31-35.44-8.78-47.13-24.61-6.86-9.29-7.27-19.51-4.22-30.34 4.01-14.23 14.42-20.96 27.75-24.16 6.48-1.55 12.69-3.37 18.34-7.01 5.1-3.28 7.5-8.09 8.64-13.76.33-1.64.28-3.37.71-4.98.52-1.91 1.01-3.98 2.14-5.54 3.6-4.98 7.93-4.48 10.48 1.01 3.63 7.81 1.87 18.7-3.9 25.15-7.09 7.92-15.32 13.94-25.8 16.65-4.54 1.17-8.93 2.89-13.39 4.35-7.62 2.48-12.04 8.01-11.43 15.91.46 5.96 2.08 11.84 3.4 17.71.26 1.17 1.34 2.29 2.3 3.14 7.86 6.97 17.16 10.93 27.5 12.15 8.2.97 16.49 1.21 24.73 1.97 3.23.3 4.22-1.09 4.01-4-.72-10.03-1.55-20.06-2.07-30.1-.18-3.53.1-7.15.75-10.63.74-4.14 3.4-6.92 7.94-8.02z" fill="#010103"/><path d="m202.94 172.27c0 6.32.03 12.45-.01 18.57-.06 10.61-.12 21.23-.31 31.84-.03 1.63-.65 3.28-1.2 4.85-1.33 3.8-4.06 5.54-7.95 4.88-.79-.13-1.67-1.3-2.02-2.19-2.82-7.21-3.55-14.76-3.18-22.41.26-5.25 1.06-10.48 1.16-15.72.1-5.23-.34-10.47-.62-15.7-.12-2.33-1.36-3.43-3.82-3.73-9.52-1.18-19.08-2.22-28.51-3.96-15.55-2.86-25.2-12.06-28.47-27.79-4.28-20.56-6.7-41.3-5.8-62.29.31-7.2 2.15-14.33 3.2-21.51.34-2.34 2.01-2.49 3.69-2.44 1.91.06 4.64-1.53 5.42 1.53 1.41 5.48 3.11 11.02 3.46 16.61.57 9.13.15 18.32.15 27.77h49.33c.56-4.37 1.78-8.99 1.62-13.56-.34-9.58-1.22-19.15-2.22-28.7-1.22-11.68.56-22.69 6.32-33.4 2.18.99 4.4 1.75 6.32 2.97.79.5 1.29 1.98 1.33 3.03.45 11.18.74 22.36 1.16 33.54s.94 22.35 1.44 33.53c.04.87.25 1.73.44 3.05h51.75c.32-7.42.58-15.1 1.01-22.78.31-5.57.45-11.18 1.37-16.66.78-4.63 3.85-7.24 7.58-7.3 1.13-.02 3.01.9 3.31 1.8 1.44 4.41 3.64 9.02 3.42 13.46-1.32 27.63-1.31 55.48-10.01 82.21-.62 1.92-1.77 3.84-3.16 5.31-8.28 8.73-19.21 11.49-30.56 12.9-8.44 1.04-16.94 1.53-25.64 2.29zm.96-55.49v40.62c3.34 0 6.46.12 9.56-.02 9.95-.47 19.8-1.32 29.01-5.8 4.41-2.14 7.48-4.99 8.62-9.87 1.13-4.89 2.7-9.69 3.68-14.6.63-3.17.54-6.49.81-10.32-17.73-.01-34.57-.01-51.68-.01zm-17.76-.4c-15.64 0-30.93 0-46.17 0 .82 7.15 1.4 14.16 2.5 21.09.9 5.65 3.26 11.03 8.36 13.93 11.51 6.55 24.25 5.45 37.08 5.24-.6-13.67-1.19-26.92-1.77-40.26z" fill="#010103"/><g fill="#fcfbfa"><path d="m377.9 391.2c-.2.3-.4.5-.6.8-.7-.6-1.4-1-2.2-1.5.2-.3.4-.5.5-.8.6.4 1.4.8 2.3 1.5zm-1.8 6.1c-.2-.2-.5-.4-.9-.6.4-.6.8-1.2 1.2-1.9s.7-1.3.9-1.9c.3.3.5.5.8.7-.7 1.3-1.4 2.6-2 3.7zm2.2-9c-.3.3-.5.5-.6.8-.6-.6-1.3-1.1-2-1.5.3-.3.5-.5.6-.7.6.5 1.3.9 2 1.4zm.3.2v-.9h2 4.5c-.3 1.3-.6 2.5-1 3.6s-.9 2.1-1.4 3c.4.5 1 1 1.6 1.4s1.2.8 1.9 1.1c-.3.2-.5.4-.8.8-.4-.3-1-.7-1.6-1.2s-1.2-1.1-1.6-1.6c-.5.6-1.1 1.1-1.7 1.6s-1.4.9-2.1 1.4c-.1-.3-.3-.5-.7-.8.6-.2 1.2-.5 1.9-1s1.4-1.1 2-1.8c-.5-.8-.9-1.6-1.2-2.5s-.6-2-.8-3.2c-.4.1-.7.1-1 .1zm2.5 2.7c.3 1 .7 1.7 1 2.2.3-.5.6-1.1 1-2s.6-1.9.9-3h-3.2-.4c.1.9.3 1.8.7 2.8z"/><path d="m396.5 388.5v1.5 3.6h1.5v.9c-.4 0-1 0-1.7 0h-7.9c-.5 0-.9 0-1.2 0v-.9h1.3v-3.5c0-.7 0-1.2 0-1.6h2.4c0-.8 0-1.4 0-1.7h1c0 .3-.1.8-.1 1.7h1.5c0-.8 0-1.4 0-1.7h1c0 .3-.1.9-.1 1.7zm-8.2 9.2c-.2-.3-.5-.5-.8-.8.8-.3 1.4-.6 1.9-.9s1-.7 1.4-1.1c.3.3.6.5.9.8-1.6 1-2.8 1.6-3.4 2zm2.6-6.8v-1.6h-1.5v1.6zm0 2.7v-1.9h-1.5v1.9zm2.4-2.7v-1.6h-1.5v1.6zm0 2.7v-1.9h-1.5v1.9zm.2 2 .7-.8c.4.2.9.5 1.6.8s1.3.7 1.8 1c-.3.3-.5.5-.8.8-.4-.3-1.5-1-3.3-1.8zm2-4.7v-1.6h-1.4v1.6zm0 2.7v-1.9h-1.4v1.9z"/></g></svg>