<svg enable-background="new 0 0 400 400" viewBox="0 0 400 400" xmlns="http://www.w3.org/2000/svg"><path d="m107.21 214.15c2.03-20.24 4.03-40.36 6.06-60.49 1.13-11.19 3.6-22.04 7.92-32.46 1.08-2.61 2.9-3.79 5.66-3.87 2.99-.09 4.29 1.52 4.95 4.25 1.92 7.85.69 15.54-.72 23.27-2.45 13.52-5.39 26.98-7.07 40.59-2.78 22.43-1.97 44.9 1.56 67.25 1.57 9.94 3.02 19.9 4.52 29.85.09.62.25 1.23.49 2.41 4.16-4.13 7.98-7.84 11.67-11.67.53-.55.54-1.64.67-2.5 2.7-17.77 2.77-35.66 2.83-53.58.08-26.08.27-52.16.55-78.24.04-3.77.48-7.61 1.33-11.28.48-2.03 1.85-4.18 3.43-5.56 3.75-3.28 6.78-2.27 8.55 2.3 2.58 6.67 2.2 13.62 2.08 20.55-.16 9.51-.45 19.02-.5 28.53-.08 18.02-.02 36.05-.02 54.07v3.53c.4.13.81.26 1.21.39 3.55-6.88 7.53-13.58 10.57-20.67 9.99-23.31 12.62-47.63 8.72-72.63-.44-2.81-1.85-5.49-2.91-8.19-5.81-14.89-11.8-29.71-17.39-44.67-1.69-4.53-3.13-9.45-3.24-14.23-.23-9.81.29-19.66.96-29.46.29-4.25 2.01-8.3 5.69-11.01 4.14-3.05 6.45-2.34 8.28 2.36 2.83 7.26 2.55 14.68 1.08 22.14-1.62 8.19-2.21 16.4-.49 24.65.29 1.4.73 2.81 1.3 4.12 5.29 12.08 10.42 24.24 16.01 36.17 2.99 6.38 4.65 12.97 5.56 19.89 4.38 33.18-1.14 64.36-18.47 93.23-4.03 6.71-7.83 13.56-11.83 20.29-1.19 2-3.02 3.65-4 5.73-1.7 3.57-3.73 7.24-4.29 11.06-1.49 10.11-6.6 17.2-15.41 22.22-9.75 5.55-9.1 5.69-7.57 16.55 2.47 17.57 10.25 32.96 18.26 48.35 1.64 3.15 3.32 6.42 4.15 9.84 1.41 5.79-2.39 9.55-7.82 8.08-1.26-.34-2.5-1.41-3.37-2.46-9.47-11.49-15.11-24.96-20.16-38.77-8.05-22.02-12.06-44.86-14.1-68.12-.39-4.46-.9-8.91-1.51-13.34-.18-1.28-.76-2.57-1.39-3.72-1.94-3.53-3.94-7.02-6.02-10.47-16.03-26.54-21.5-55.55-19.86-86.11.6-11.25 4.34-21.88 8.23-32.38 1.24-3.35 2.73-6.61 4.05-9.93 2.71-6.81 6.76-12.74 11.21-18.55 7.7-10.04 11.23-21.31 9.68-34.24-1.24-10.28 1.23-20.22 5.14-29.79.79-1.94 1.98-2.15 3.66-1.65 3.39.99 5.95 3.07 6.33 6.63.51 4.75.94 9.6.55 14.34-.97 11.7-2.36 23.37-3.74 35.04-.21 1.79-.93 3.69-1.94 5.19-4.74 7.05-9.58 14.02-14.52 20.93-10.93 15.28-15.64 32.47-15.96 51.04-.31 18.24 2.66 35.86 10.1 52.61.4.88.87 1.75 1.29 2.59z" fill="#010103"/><path d="m251.2 141.77c-7.15-.36-13.84-.7-20.91-1.05-.92 6.74-1.85 13.47-2.75 20.2-1.33 9.98-2.52 19.98-4.04 29.93-.39 2.57-1.59 5.1-2.81 7.45-1.11 2.13-3.14 3.06-5.67 2.67-2.33-.36-3.71-1.55-4.5-3.84-2-5.85-1.68-11.79-.26-17.56 4.8-19.5 3.58-39.37 3.63-59.12.02-7.84-2.39-15.67-3.33-23.55-.53-4.42-.27-8.93-.44-13.39-.13-3.32 1.31-4.72 4.65-5.48 3.33-.76 4.74.2 6.17 3 3.08 5.99 4.41 12.39 5.2 18.97.89 7.44 1.74 14.89 2.76 22.31.13.93 1.12 2.49 1.75 2.5 6.46.19 12.93.11 20.16.11 0-7.79-.05-15.25.01-22.71.15-19.7.36-39.4.52-59.1.05-5.45 1.08-10.61 3.7-15.48 1.21-2.25 2.5-2.36 4.57-1.41 4.2 1.92 6.45 5.33 6.8 9.67.47 5.78.52 11.61.48 17.42-.15 22.72-.43 45.43-.56 68.15 0 .84 1.11 2.42 1.72 2.43 7.8.17 15.61.11 24.1.11.76-5.61 1.66-11.99 2.49-18.38.73-5.65 1.16-11.35 2.18-16.95.47-2.55 1.54-5.37 3.26-7.2 1.65-1.76 4.41-2.65 6.85-3.39.77-.23 2.62 1.04 3.04 2.03 2.75 6.42 2.33 13.11 1.1 19.79-1.42 7.69-3.27 15.31-4.32 23.05-1.97 14.43-.31 28.77 1.62 43.12 1.34 9.96 1.71 20.05 2.56 30.08.25 2.92-1.81 4.06-3.9 4.68-2.05.61-4.31.89-5.87-1.62-4.19-6.74-6.13-14.12-6.46-21.95-.35-8.27-.19-16.56-.74-24.81-.69-10.18-.92-10.13-10.87-10.62-5.13-.25-10.25-.69-15.7-1.07-.25 4.42-.52 8.63-.73 12.84-.48 9.84-.87 19.68-1.43 29.51-.11 2.02.37 3.01 2.45 3.5 3.91.92 7.7 2.48 11.64 3.16 8.08 1.4 14.24 10.52 14.67 18.28.68 12.43-2.69 23.91-7.18 35.2-3.34 8.4-7.69 16.47-10.24 25.09-1.96 6.62-2.02 13.86-2.52 20.85-.16 2.33.66 4.88 1.54 7.12 5.79 14.65 11.52 29.34 17.73 43.82 2.4 5.6 6.2 10.59 8.95 16.07 2.03 4.04 3.58 8.36 4.97 12.68.84 2.59.35 5.39-2.57 6.48-2.83 1.05-5.66.77-7.96-1.74-7.3-7.99-13.21-16.94-18.05-26.57-9.04-18-15.61-36.79-17.86-56.96-1.41-12.66.13-24.76 5.54-36.31 2.6-5.57 5.24-11.12 7.97-16.62 3.75-7.56 5.65-15.5 5.54-23.95-.11-7.78-3.9-12.23-11.66-12.72-7.45-.46-14.72.86-21.55 4-1.05.48-1.97 1.43-2.73 2.35-10.66 12.84-16.3 27.9-19.06 44.12-2.74 16.05-4.12 32.29-2.56 48.48 1.3 13.54 4.04 26.95 6.28 40.39 1.16 6.94 2.76 13.82 3.9 20.76.35 2.13.42 4.71-.5 6.53-.92 1.83-3.04 3.72-4.97 4.2-2.41.59-4.91-.47-6.45-3.11-5.41-9.27-6.66-19.55-7.79-29.93-1.1-10.12-2.82-20.17-3.68-30.31-2.7-31.71-2.26-63.04 11.54-92.78 3.16-6.82 8.03-11.96 13-17.26 4.73-5.04 9.62-9.59 16.58-11.33.84-.21 1.98-1.62 1.97-2.46-.21-14.02-.6-27.99-.97-42.37z" fill="#010103"/><g fill="#fcfbfa"><path d="m377.9 391.2c-.2.3-.4.5-.6.8-.7-.6-1.4-1-2.2-1.5.2-.3.4-.5.5-.8.6.4 1.4.8 2.3 1.5zm-1.8 6.1c-.2-.2-.5-.4-.9-.6.4-.6.8-1.2 1.2-1.9s.7-1.3.9-1.9c.3.3.5.5.8.7-.7 1.3-1.4 2.6-2 3.7zm2.2-9c-.3.3-.5.5-.6.8-.6-.6-1.3-1.1-2-1.5.3-.3.5-.5.6-.7.6.5 1.3.9 2 1.4zm.3.2v-.9h2 4.5c-.3 1.3-.6 2.5-1 3.6s-.9 2.1-1.4 3c.4.5 1 1 1.6 1.4s1.2.8 1.9 1.1c-.3.2-.5.4-.8.8-.4-.3-1-.7-1.6-1.2s-1.2-1.1-1.6-1.6c-.5.6-1.1 1.1-1.7 1.6s-1.4.9-2.1 1.4c-.1-.3-.3-.5-.7-.8.6-.2 1.2-.5 1.9-1s1.4-1.1 2-1.8c-.5-.8-.9-1.6-1.2-2.5s-.6-2-.8-3.2c-.4.1-.7.1-1 .1zm2.5 2.7c.3 1 .7 1.7 1 2.2.3-.5.6-1.1 1-2s.6-1.9.9-3h-3.2-.4c.1.9.3 1.8.7 2.8z"/><path d="m396.5 388.5v1.5 3.6h1.5v.9c-.4 0-1 0-1.7 0h-7.9c-.5 0-.9 0-1.2 0v-.9h1.3v-3.5c0-.7 0-1.2 0-1.6h2.4c0-.8 0-1.4 0-1.7h1c0 .3-.1.8-.1 1.7h1.5c0-.8 0-1.4 0-1.7h1c0 .3-.1.9-.1 1.7zm-8.2 9.2c-.2-.3-.5-.5-.8-.8.8-.3 1.4-.6 1.9-.9s1-.7 1.4-1.1c.3.3.6.5.9.8-1.6 1-2.8 1.6-3.4 2zm2.6-6.8v-1.6h-1.5v1.6zm0 2.7v-1.9h-1.5v1.9zm2.4-2.7v-1.6h-1.5v1.6zm0 2.7v-1.9h-1.5v1.9zm.2 2 .7-.8c.4.2.9.5 1.6.8s1.3.7 1.8 1c-.3.3-.5.5-.8.8-.4-.3-1.5-1-3.3-1.8zm2-4.7v-1.6h-1.4v1.6zm0 2.7v-1.9h-1.4v1.9z"/></g></svg>