<svg enable-background="new 0 0 400 400" viewBox="0 0 400 400" xmlns="http://www.w3.org/2000/svg"><path d="m361.2 9.6.8-1c.9.7 1.9 1.4 2.9 2.3l-.9 1.1c-1-1-2-1.8-2.8-2.4zm.5 10.6c.9-2.1 1.6-4.3 2.3-6.7.4.2.8.4 1.3.6-.7 2.1-1.5 4.3-2.2 6.6zm.4-15.2.9-.9c1 .8 2 1.6 2.8 2.4l-1 1c-.9-.9-1.8-1.7-2.7-2.5zm12.5-1.2h1.2v1.4h2.7v1.1h-2.7v2.7h-1.2v-.6h-1.8v1.3h4.9v3.8h-1.2v-.5h-3.7c0 .4-.1.9-.1 1.2h5.1v1h-5.2c0 .5-.1.9-.2 1.2h6v1h-5.2c1.1 1.3 2.9 2 5.5 2.2-.4.4-.7.8-.9 1.3-2.9-.5-4.8-1.6-5.7-3.5h-.1c-.8 1.7-2.7 2.9-5.9 3.6-.2-.4-.6-.8-.9-1.1 2.8-.6 4.6-1.4 5.4-2.5h-4.8v-1h5.3c.1-.3.2-.7.2-1.2h-4.9v-1h5c0-.4 0-.8.1-1.2h-3.5v.5h-1.2v-3.8h4.9v-1.3h-1.8v.5h-1.2v-2.7h-2.7v-1h2.6v-1.4h1.2v1.4h4.7v-1.4zm-6.6 8.3h3.6c0-.4 0-.9 0-1.4h-3.6zm1.9-4.6h4.7v-1.3h-4.7zm6.6 3.2h-3.7v1.4h3.7z" fill="#fbfcfa"/><path d="m385.3 3.8h1.3v2.2h2.8v-2.2h1.3v2.2h4.1v9.1h1.7v1.3h-16.9v-1.3h1.7v-9.1h4.1v-2.2zm.4 13.1.7 1.2c-1.8.9-3.8 1.9-6 2.9-.2-.4-.5-.8-.8-1.3 2.3-1 4.3-1.9 6.1-2.8zm-3.1-6.4h2.8v-3.2h-2.8zm0 4.6h2.8v-3.3h-2.8zm4-4.6h2.8v-3.2h-2.8zm0 4.6h2.8v-3.3h-2.8zm3.7 1.9c2.1.9 4.1 1.8 6.1 2.7l-.7 1.3c-2.2-1.1-4.2-2-6.1-2.9zm3.2-9.7h-2.8v3.2h2.8zm-2.8 7.8h2.8v-3.3h-2.8z" fill="#fbfcfa"/><g fill="#010102"><path d="m110.86 25.04c4.14.99 6.7 3.63 7.78 7.32 1.06 3.6 2.1 7.43 1.98 11.13-.33 10.27-1.14 20.53-2.03 30.77-.2 2.36-1.17 4.78-2.28 6.9-4.52 8.61-9 17.26-13.93 25.63-7.49 12.73-11.33 26.48-12.19 41.08-1.36 23.21 1.51 45.77 11.36 67.11.7 1.52 1.51 2.99 2.3 4.47.14.27.41.46 1.3 1.42 0-6.18-.04-11.58.01-16.98.23-24.73.45-49.47.74-74.2.07-5.87 2.33-9.12 6.67-10.43 1.96-.59 3.28-.28 4.51 1.56 3.18 4.8 3.94 10.13 3.92 15.69-.12 32.24-.24 64.48-.33 96.71-.04 14.88-.01 29.76-.01 44.64.39.22.79.45 1.18.67 1.71-.99 3.72-1.67 5.06-3.03 3.82-3.87 5.84-8.56 5.93-14.16.57-35.13 1.27-70.27 1.87-105.4.14-8.39-.1-16.78.1-25.16.06-2.74.65-5.57 1.55-8.18 1.39-4.05 4.28-5.68 9.26-5.41 1.06 7.22 2.89 14.56 3.06 21.95.29 12.61-.03 25.27-.87 37.86-1.03 15.36-.98 30.62 1.27 45.86.05.31.23.6.69 1.73 2.34-4.22 4.54-7.86 6.43-11.64 7.84-15.64 10.75-32.45 10.65-49.73-.07-11.38-.92-22.79-2.09-34.12-.48-4.67-2.54-9.22-4.17-13.72-4.13-11.46-8.18-22.96-12.74-34.24-3.34-8.28-3.18-16.88-3.37-25.44-.13-5.89.34-11.85 1.17-17.7.61-4.34 2.83-8 7.59-9.32 1.99-.55 3.31-.29 4.31 1.8 2.35 4.92 3.38 10 2.03 15.31-2.8 11.06-1.24 21.85 2.3 32.34 4.07 12.05 8.85 23.85 13.11 35.83 1.98 5.57 3.42 11.33 5.27 16.95.3.91 1.46 2.19 2.21 2.19 9.73-.07 19.46-.34 29.19-.57.29-.01.58-.22 1.32-.5-4.55-8.57-5.95-18.34-12.6-26.04-6.44-7.46-11.57-16.04-12.63-26.21-.78-7.55 1.32-14.08 6.88-19.81 9.55-9.83 21.42-14.38 34.46-16.5 27.16-4.42 54.31-4.77 81.39.88 3.66.76 5.94 2.28 6.82 6.12.45 1.94.28 3.07-1.3 4.24-3.74 2.76-7.89 3.46-12.4 2.88-8.2-1.05-16.38-2.31-24.6-3.02-14.94-1.29-29.71.87-44.41 3.1-6.68 1.01-13.56 2.2-19.71 4.82-10.61 4.52-14.8 15-11.08 24.91.54 1.45 1.37 2.8 2.19 4.12 8.03 12.88 17.31 25.03 23.07 39.27.33.82 1.79 1.67 2.74 1.68 7.05.14 14.11.16 21.16-.02.92-.02 2.38-1.2 2.62-2.11 3.05-11.46.76-22.38-3.83-32.97-.4-.93-1.44-1.71-2.35-2.28-5.87-3.68-11.8-7.27-17.68-10.94-2.18-1.36-4.36-2.74-6.37-4.32-1.21-.95-2.62-2.14-3.03-3.5-.76-2.55-1.73-5.62-.9-7.84.47-1.28 4.29-1.74 6.61-1.77 2.02-.03 4.17.81 6.06 1.68 7.92 3.66 15.72 7.51 21.82 14.07 2.11 2.27 4.64 4.16 6.79 6.05 6.54-5.02 12.82-10.03 19.29-14.77 5.48-4.01 11.48-6.94 18.46-7.26 3-.14 5.52.22 6.36 3.82.72 3.12-.21 6.07-3.06 7.79-5.84 3.52-11.65 7.12-17.63 10.39-7.95 4.35-12.67 11-13.85 19.8-1.01 7.6-1.16 15.31-1.75 23.72 9.7 0 18.71-.04 27.72.02 3.46.02 6.97-.06 10.34.55 2.43.44 5 1.53 6.94 3.04 4.74 3.7 4.14 6.65-1.31 9.02-7.84 3.41-16.04 2.16-24.16 2.12-5.91-.03-11.83-.01-17.86-.01-.9 11.12.02 21.62 8.2 30.43 11.6 12.49 19.52 27.03 22.13 44.01 2.39 15.59 4.93 31.21 6.03 46.91 1.08 15.37.54 30.85.52 46.29-.03 17.8-.33 35.59-.36 53.39 0 2.58-.62 3.67-3.32 4.15-6.39 1.13-7.07 1.41-8.15-4.97-1.4-8.2-2.04-16.62-2.14-24.95-.35-29.09-.12-58.19-.56-87.28-.17-11.3-2.13-22.5-5.87-33.25-1.13-3.25-2.56-6.44-4.25-9.43-3.9-6.92-7.73-13.9-12.13-20.49-8.23-12.33-13.51-25.67-15.19-40.39-.34-2.98-1.52-4.15-4.69-4.03-6.8.25-13.61.08-20.85.08-.87 6.45-1.68 13.3-2.78 20.1-.53 3.27-1.28 6.58-2.52 9.64-3.69 9.11-7.33 18.27-11.64 27.1-4.15 8.51-4.61 17.67-5.94 26.68-4.83 32.87-5.39 65.99-5.61 99.13-.07 11.08-.19 22.16-.4 33.23-.04 2.33-.37 4.7-.92 6.96-.66 2.68-2.37 4.51-5.33 4.85-2.56.3-4.23-.2-5.48-2.99-2.95-6.62-3.92-13.46-3.63-20.6 1.09-27.17 1.61-54.37 3.39-81.49 1.37-20.85 3.7-41.69 6.86-62.33 1.18-7.69 5.83-14.89 9.1-22.22 2.6-5.8 6.2-11.25 8.09-17.25 1.63-5.19 1.53-10.93 2.11-16.43.26-2.51-1.38-3.6-3.53-4.11-1.3-.31-2.63-.74-3.95-.75-8.82-.07-17.64-.03-26.75-.03-.96 8.64-1.86 17.17-2.88 25.69-1.62 13.52-1.84 27.36-7.42 40.08-6.28 14.32-12.49 28.76-22.52 40.99-3.25 3.97-3.25 8.62-3.4 12.99-.34 10.49-5.97 16.89-14.6 21.53-2.95 1.59-5.78 3.4-8.68 5.09-1.91 1.12-2.57 2.66-2.56 4.96.1 19.93.13 39.86-.01 59.78-.03 3.53-.65 7.13-1.54 10.56-1.14 4.4-5.74 6.12-9.64 3.79-.78-.46-1.26-1.73-1.51-2.72-4.04-16.26-4.53-32.82-3.03-49.37 2.01-22.22 3.57-44.4.94-66.66-.18-1.49-.75-3.03-1.48-4.36-6.01-10.98-12.49-21.71-18.05-32.91-6.43-12.95-9.38-26.99-10.46-41.38-1.07-14.77-.78-29.51 1.71-44.16 1.4-8.26 4.44-15.93 8.52-23.17 4.61-8.17 9.39-16.25 14.27-24.26 5-8.21 6.34-17.04 5.26-26.44-1.26-11.04.54-21.59 5.32-31.7z"/><path d="m248.04 271.92c2.5-10.68 2.63-21.48 1.88-32.33-.68-9.81-1.83-19.62-1.99-29.44-.14-8.98 1.62-17.76 6.43-25.89 5.12 2.37 7.41 6.24 7.36 11.7-.19 21.15-.33 42.3-.48 63.45-.03 4.14.28 8.31-.09 12.42-.32 3.57 1.26 5.81 4.23 6.66 4.68 1.33 9.49 2.34 14.32 2.92 6.48.77 9.58 3.97 9.65 10.52.02 1.99-.74 2.75-2.53 3.17-6.52 1.51-13.08 1-19.23-1.03-13.03-4.31-25.89-9.18-38.72-14.06-1.67-.64-3.09-2.5-4.15-4.11-4.33-6.59-6.42-14.06-7.23-21.76-1.71-16.2-1.41-32.37 1.09-48.52.62-3.98 3.27-3.83 5.81-4.62 2.6-.8 2.98 1.38 3.75 2.83 5.82 10.92 6.09 22.41 3.73 34.27-.95 4.78-1.86 9.77-1.53 14.58.67 9.39 7.61 16.5 17.7 19.24z"/></g></svg>