<svg enable-background="new 0 0 400 400" viewBox="0 0 400 400" xmlns="http://www.w3.org/2000/svg"><path d="m183.95 64.15c3.47-13.11-1.35-27.12 6.72-38.95 6.39.57 9.97 4.06 10 10.29.02 3.67-.8 7.33-.97 11.01-.2 4.23-.16 8.48-.14 12.72.01 2.3 1.11 3.33 3.57 3.79 10.77 1.99 21.57 3.91 32.19 6.51 23.11 5.67 38.91 25.19 41.1 48 1.91 19.88-.65 39.06-9.18 57.26-.69 1.46-1.73 2.87-2.93 3.95-14.22 12.73-31.19 19.5-49.86 22.07-20.66 2.84-41.24 2.42-61.68-2.38-9.23-2.17-17.89-6.01-25.06-11.6-5.56-4.33-9.47-11.25-12.97-17.64-7.27-13.29-8.37-27.91-7.24-42.74.89-11.68 3.63-22.96 8.57-33.62 1-2.17 2.45-4.27 4.15-5.95 7.02-6.93 14.33-13.46 23.73-17.21 7.24-2.89 14.91-2.7 22.42-3.67 5.85-.74 11.76-1.24 17.58-1.84zm61.21 112.24c-18.89-12.92-37.57-25.69-56.21-38.45-16.94 11.92-33.59 23.63-50.2 35.38-1.01.72-1.77 1.8-2.64 2.72 1.05.71 2.01 1.68 3.16 2.11 22.61 8.34 46.04 10.87 69.93 9.21 12.58-.88 24.63-4.14 35.96-10.97zm5.25-81.76c-15.29 11-30.55 21.98-46.02 33.11 1.22.94 1.99 1.57 2.8 2.16 15.07 11.02 30.15 22.04 45.23 33.06 3.58 2.62 4.1 2.48 5.32-1.79 3.72-13.02 5.08-26.36 4.52-39.83-.43-10.21-3.4-19.58-11.85-26.71zm-106.84-8.76c7.92 5.71 15.46 11.32 23.18 16.65 6.98 4.83 14.18 9.33 21.23 14.05 1.83 1.22 3.21 1.17 5.09-.16 8.21-5.82 16.57-11.44 24.87-17.14 6.43-4.42 12.85-8.85 19.47-13.41-6.77-4.34-13.91-6.45-21.45-7.09-16.99-1.43-33.97-.98-50.93.73-7.41.76-14.58 2.24-21.46 6.37zm-16.79 77.78c16.58-11.94 32.57-23.44 48.84-35.16-15.06-11.27-29.6-22.16-44.63-33.41-9.73 22.55-15.28 44.76-4.21 68.57z" fill="#010103"/><path d="m198.65 341.45c7.65 4.61 14.81 9.14 22.2 13.29 5.84 3.28 11.28 6.88 14.81 12.75 1.02 1.69 1.74 3.55 2.62 5.39-3.46 2.78-7.28 3.12-10.66 1.54-7.06-3.29-14.22-6.64-20.64-11-9.78-6.65-19.28-13.86-26.74-23.21-2.1-2.63-3.57-5.93-4.67-9.15-2.79-8.14-5.3-16.38-7.7-24.64-.68-2.35-1.78-3.09-4.17-3.26-10.58-.76-21.23-1.23-31.69-2.83-9.94-1.52-18.88-5.95-26.85-12.3-11.42-9.1-14.43-20.72-11.01-34.48.16-.65.4-1.29.52-1.94 2.24-12.39 11.34-17.34 22.23-19.68 7.35-1.58 14.67-2.88 21.31-6.64 4.45-2.52 7.05-6.15 8.16-11.24.91-4.2 2.54-8.27 4.16-12.28.31-.77 2.12-1.5 3.1-1.35 4.46.72 7.32 4.08 7.33 8.66.01 6.48-1.5 12.64-4.68 18.32-.52.94-1.44 1.67-2.21 2.46-8.37 8.59-18.8 13.09-30.42 14.98-12.46 2.03-17.72 13.25-15.64 23.96.47 2.43 1.97 5.07 3.8 6.74 8.32 7.64 18.56 11 29.61 12 7.45.68 14.92.99 22.91 1.51-.11-2.44-.2-4.28-.28-6.12-.37-9.38-1.09-18.77-.96-28.15.09-6.47 3.47-10.01 9.1-11.32 3.41 3.93 5.36 8.56 5.06 13.76-1.01 17.43 2.76 34.29 6.07 51.16 1.44 7.37 4.37 14.45 6.82 22.27 6.82-6.65 11.48-13.57 15.12-21.13 5.92-12.29 9.61-25.32 11.15-38.83.63-5.5-.37-11.17-.34-16.76.01-2.16.32-4.63 1.41-6.38.88-1.41 3.05-2.27 4.82-2.82 2.12-.66 3.43.74 4.45 2.61 4.64 8.53 4.88 17.52 3.02 26.75-1.01 5.01-2.16 10-3.27 15.1 11.92 1.85 23.29 1.77 34.35-2.57 4.89-1.92 9.83-3.69 14.73-5.59 8.28-3.21 14.44-14.22 9.14-24.57-.48-.94-1.73-1.65-2.78-2.12-12.1-5.52-24.23-10.97-36.35-16.45-1.32-.6-2.64-1.22-3.93-1.88-13.49-6.85-17.79-18.03-12.57-32.24 1.37-3.71 4.59-2.44 7.09-2.8.77-.11 2.25 1.5 2.63 2.6.95 2.72 1.6 5.58 2.13 8.42.92 4.95 2.99 8.88 7.53 11.64 9.74 5.92 20.12 10.14 31.11 13.02 6.69 1.75 13.18 4.09 17.06 10.35 4.88 7.88 5.8 16.29 3.6 25.39-3.74 15.41-15.75 21.43-28.88 26-14.51 5.05-29.57 6.97-44.93 6.01-2.58-.16-4.08.53-5.06 3.07-4.27 11.17-12.47 19.79-19.26 29.33-.93 1.3-1.88 2.53-3.46 4.65z" fill="#010103"/><g fill="#fcfbfa"><path d="m385.2 377.6.6-.7c.6.4 1.3.9 1.9 1.5l-.6.7c-.8-.5-1.4-1-1.9-1.5zm.3 7.1c.6-1.4 1.1-2.9 1.5-4.5.3.1.6.3.9.4-.5 1.4-1 2.9-1.5 4.4zm.2-10.1.6-.6c.7.5 1.3 1.1 1.9 1.6l-.7.7c-.6-.6-1.2-1.2-1.8-1.7zm8.4-.8h.8v.9h1.8v.7h-1.8v1.8h-.8v-.3h-1.2v.9h3.3v2.6h-.8v-.4h-2.5c0 .3 0 .6-.1.8h3.4v.7h-3.5c0 .3-.1.6-.1.8h4v.7h-3.5c.7.9 1.9 1.3 3.6 1.5-.2.2-.4.5-.6.9-1.9-.3-3.2-1.1-3.8-2.3-.5 1.1-1.8 2-3.9 2.4-.2-.3-.4-.5-.6-.8 1.9-.4 3.1-.9 3.6-1.7h-3.2v-.7h3.5c.1-.2.1-.5.2-.8h-3.3v-.7h3.4c0-.2 0-.5 0-.8h-2.4v.3h-.8v-2.6h3.3v-.9h-1.2v.3h-.8v-1.8h-1.8v-.7h1.8v-.9h.8v.9h3.2zm-4.4 5.5h2.4c0-.3 0-.6 0-.9h-2.4zm1.2-3.1h3.2v-.8h-3.2zm4.4 2.2h-2.4v.9h2.5v-.9z"/><path d="m389.2 385.8h.9v1.5h1.9v-1.5h.9v1.5h2.7v6h1.1v.9h-11.3v-.9h1.1v-6h2.7zm.2 8.7.5.8c-1.2.6-2.5 1.3-4 1.9-.2-.3-.3-.6-.6-.8 1.6-.6 3-1.3 4.1-1.9zm-2-4.3h1.9v-2.1h-1.9zm0 3.1h1.9v-2.2h-1.9zm2.7-3.1h1.9v-2.1h-1.9zm0 3.1h1.9v-2.2h-1.9zm2.4 1.3c1.4.6 2.7 1.2 4.1 1.8l-.5.9c-1.5-.7-2.8-1.4-4.1-1.9zm2.2-6.5h-1.9v2.1h1.9zm-1.9 5.2h1.9v-2.2h-1.9z"/></g></svg>