<svg enable-background="new 0 0 400 400" viewBox="0 0 400 400" xmlns="http://www.w3.org/2000/svg"><path d="m361.2 9.6.8-1c.9.7 1.9 1.4 2.9 2.3l-.9 1.1c-1-1-2-1.8-2.8-2.4zm.5 10.6c.9-2.1 1.6-4.3 2.3-6.7.4.2.8.4 1.3.6-.7 2.1-1.5 4.3-2.2 6.6zm.4-15.2.9-.9c1 .8 2 1.6 2.8 2.4l-1 1c-.9-.9-1.8-1.7-2.7-2.5zm12.5-1.2h1.2v1.4h2.7v1.1h-2.7v2.7h-1.2v-.6h-1.8v1.3h4.9v3.8h-1.2v-.5h-3.7c0 .4-.1.9-.1 1.2h5.1v1h-5.2c0 .5-.1.9-.2 1.2h6v1h-5.2c1.1 1.3 2.9 2 5.5 2.2-.4.4-.7.8-.9 1.3-2.9-.5-4.8-1.6-5.7-3.5h-.1c-.8 1.7-2.7 2.9-5.9 3.6-.2-.4-.6-.8-.9-1.1 2.8-.6 4.6-1.4 5.4-2.5h-4.8v-1h5.3c.1-.3.2-.7.2-1.2h-4.9v-1h5c0-.4 0-.8.1-1.2h-3.5v.5h-1.2v-3.8h4.9v-1.3h-1.8v.5h-1.2v-2.7h-2.7v-1h2.6v-1.4h1.2v1.4h4.7v-1.4zm-6.6 8.3h3.6c0-.4 0-.9 0-1.4h-3.6zm1.9-4.6h4.7v-1.3h-4.7zm6.6 3.2h-3.7v1.4h3.7z" fill="#fbfcfa"/><path d="m385.3 3.8h1.3v2.2h2.8v-2.2h1.3v2.2h4.1v9.1h1.7v1.3h-16.9v-1.3h1.7v-9.1h4.1v-2.2zm.4 13.1.7 1.2c-1.8.9-3.8 1.9-6 2.9-.2-.4-.5-.8-.8-1.3 2.3-1 4.3-1.9 6.1-2.8zm-3.1-6.4h2.8v-3.2h-2.8zm0 4.6h2.8v-3.3h-2.8zm4-4.6h2.8v-3.2h-2.8zm0 4.6h2.8v-3.3h-2.8zm3.7 1.9c2.1.9 4.1 1.8 6.1 2.7l-.7 1.3c-2.2-1.1-4.2-2-6.1-2.9zm3.2-9.7h-2.8v3.2h2.8zm-2.8 7.8h2.8v-3.3h-2.8z" fill="#fbfcfa"/><g fill="#010102"><path d="m233.16 162.19c6.88.43 13.64.87 20.41 1.26 4.01.23 8.09-.02 12.02.63 5.64.94 7.83 8.16 3.88 12.32-.7.74-2.23.92-3.39.96-8.49.31-16.98.7-25.48.73-32.57.12-65.15.12-97.72.13-5.03 0-10.07-.26-15.1-.28-1.97-.01-3.15-.76-3.64-2.68-.19-.76-.53-1.47-.75-2.22-2.13-7.31.08-10.35 7.71-10.46 9.17-.13 18.35-.18 27.53-.24 4.97-.03 5.82-1.05 4.91-6-2.24-12.22-9.1-20.46-21.17-23.79-7.08-1.95-14.34-3.28-21.91-4.98-.86 5.63-1.57 10.89-2.5 16.12-1.23 6.93-2.5 13.85-4.07 20.71-.48 2.09-1.77 4.09-3.05 5.88-1.64 2.3-4.11 2.43-6.67 1.74-2.5-.68-3.34-2.43-3.73-4.89-1.42-8.81 1.46-17.05 3.03-25.48 4.26-22.83 6.92-45.76 4.46-69.05-1.01-9.55-5.86-17.76-8.52-26.71-.68-2.3-.64-5.07-.1-7.42.82-3.52 3.48-4.65 6.35-2.55 5.93 4.36 11.71 8.9 12.68 17.15.98 8.31 2.43 16.57 3.72 25.14 7.22.46 14.1-.63 20.91-2.41 1.08-.28 2.13-.69 3.18-1.05 9.4-3.25 16.78-8.26 17.66-19.36.33-4.1 1.33-8.15 1.66-12.25.22-2.71-1.09-4.1-4.27-4.02-9.17.23-18.36.12-27.53.05-2.1-.02-4.24-.3-6.29-.75-2.21-.49-4.5-1.24-4.3-4.22.18-2.69 3.4-5.82 5.92-5.85 7.27-.07 14.55-.09 21.82-.12 31.44-.15 62.89-.31 94.33-.44 8.05-.03 16.11-.2 24.15.12 2.32.09 5.91 1.15 6.54 2.71.85 2.14-.36 5.26-1.17 7.81-.22.69-2.2 1.17-3.36 1.16-11.63-.06-23.27-.25-34.9-.39-1.22-.02-2.44 0-4.02 0-1.05 10.82-1.09 21.14 6.49 29.89.44.5.86 1.18 1.43 1.38 7.48 2.59 14.98 5.12 22.49 7.61.73.24 1.55.23 2.33.28 7.75.45 8.42-.28 9.9-7.73 1.61-8.1 3.37-16.19 5.65-24.11.95-3.3 2.96-6.58 5.29-9.14 3.26-3.58 6.99-2.59 8.99 1.85 1.25 2.78 1.37 5.42.65 8.64-1.9 8.48-3.51 17.11-4.18 25.76-1.03 13.15-1.76 26.38-1.52 39.56.21 11.37 2 22.72 3.01 34.08.58 6.57 1.19 13.15 1.37 19.73.05 1.69-1.16 4.52-2.4 4.9-2.5.78-5.4.3-8.13.17-.36-.02-.78-1.01-.98-1.62-3.42-10.26-5.8-20.65-4.52-31.6.84-7.18-2.15-10.55-9.43-10.52-19.29.07-33.69 12.23-35.67 31.49-.04.54 0 1.08 0 2.37zm42.4-49.19c-.77-5.6-1.72-11.35-2.26-17.13-.22-2.39-1.23-3.42-3.37-3.68-5.77-.7-11.54-1.32-17.31-2.06-11.64-1.51-21.6-6.28-27.84-16.52-5.23-8.58-8.26-18.06-8.18-28.3.01-1.74 0-3.48 0-5.66-12.37 0-24.2 0-36.4 0-.13 1.64-.27 3.51-.42 5.37-.69 9-2.32 17.85-6.73 25.77-5.37 9.64-12.93 16.63-24.57 18.24-8.41 1.16-16.75 2.88-25.09 4.47-.87.16-2.25 1.1-2.27 1.7-.17 6.44-.1 12.89-.1 19.35 3.28-.21 6.11-.85 8.79-.46 5.41.8 10.78 1.98 16.08 3.34 15.03 3.87 24.25 13.55 28.03 28.55 1.15 4.55 2.57 9.03 3.63 13.6.51 2.19 1.56 2.82 3.71 2.8 9.07-.1 18.14-.04 27.2-.04 9.21 0 9.09-.03 11.04-9.22 1.17-5.51 1.66-11.17 5.12-16.12 7.19-10.32 16.87-16.92 28.89-19.92 7.12-1.78 14.44-2.7 22.05-4.08z"/><path d="m170.25 296.99c-1.48-8.89-2.87-17.26-4.25-25.62-1.74-10.5-3.32-21.03-1.59-31.68.32-1.96 1.3-4.17 2.69-5.52 3.33-3.21 6.17-2.31 8.01 1.85 2.2 5 1.88 10.24 2.05 15.49.56 16.79 3.9 33.05 10.63 48.45 2.01 4.6 5.44 8.57 8.45 13.2 9-9.09 15.8-18.57 17.01-30.84.96-9.77.99-19.63 1.54-29.45.25-4.46.61-8.92 1.25-13.34.24-1.67 1.08-3.47 2.19-4.75 3.14-3.61 6.41-3.13 8.39 1.11 3.37 7.21 3.96 14.97 3.29 22.67-1.03 11.79-2.7 23.52-4.11 35.28-.11.88-.25 1.76-.41 2.85 3.87 0 7.6-.03 11.33.01 11.02.12 21.81-1.2 32.41-4.42 3.31-1 5.56-2.68 7.02-5.59 5.54-11.04 3.86-21.64-2.1-31.92-.48-.82-1.43-1.39-2.22-2.01-9.86-7.74-19.48-15.8-29.65-23.12-14.6-10.51-16.67-21.77-11.76-38.58.59-2.03 1.35-4.04 2.26-5.95 1.3-2.75 3.81-2.91 6.52-3.02 2.61-.1 3.49 1.5 3.74 3.38.48 3.59.78 7.24.71 10.86-.05 2.76-1.16 5.51-1.12 8.26.06 4.6 1.56 8.55 5.59 11.55 8.79 6.55 17.54 13.18 25.92 20.24 9.73 8.2 16.71 18.36 18.91 31.2 1.66 9.71-.42 18.9-4.71 27.64-.47.96-1.37 1.74-2.18 2.49-8.73 8.01-19.19 11.5-30.88 12.02-11.93.54-23.78 2.94-35.8 1.48-.86-.1-2.09.28-2.67.89-3.57 3.71-6.99 7.55-10.58 11.46 5.49 4.4 11.54 9.35 17.69 14.17 10.75 8.41 21.56 16.73 32.34 25.1 2.94 2.28 5.05 5 5.06 8.99.01 1.99-.76 3.05-2.67 3.61-5.21 1.53-9.57-.24-13.87-3.05-16.64-10.86-31.33-24.17-46.74-36.59-7.06-5.7-11.5-13.34-16.82-20.33-1.52-1.99-3.11-2.8-5.55-2.94-11.61-.65-23.25-1.12-34.82-2.29-12.77-1.29-24.32-5.81-31.96-16.74-8.62-12.32-7.96-25.59-2.52-39.01 2.57-6.34 6.3-11.47 12.19-15.44 10.48-7.05 20.49-14.8 30.7-22.26 5.86-4.29 7.07-8.48 5.33-15.7-.97-4.04-1.29-8.27-1.54-12.43-.09-1.44.8-3.01 1.48-4.4 1.98-4.07 3.41-4.32 7.09-1.47 3.33 2.57 5.03 6.27 5.26 10.16.46 7.44.42 14.94.08 22.4-.09 2.04-1.67 4.3-3.13 5.94-10.15 11.35-22.35 20.33-35.03 28.5-10.75 6.92-12.64 16.54-11.12 27.92.04.33.19.66.18.99-.53 10.09 6.56 13.58 14.32 16.24 8.73 2.98 17.88 2.41 26.91 2.55 3.42.07 6.86-.28 11.26-.49z"/></g></svg>