<svg enable-background="new 0 0 400 400" viewBox="0 0 400 400" xmlns="http://www.w3.org/2000/svg"><path d="m361.2 9.6.8-1c.9.7 1.9 1.4 2.9 2.3l-.9 1.1c-1-1-2-1.8-2.8-2.4zm.5 10.6c.9-2.1 1.6-4.3 2.3-6.7.4.2.8.4 1.3.6-.7 2.1-1.5 4.3-2.2 6.6zm.4-15.2.9-.9c1 .8 2 1.6 2.8 2.4l-1 1c-.9-.9-1.8-1.7-2.7-2.5zm12.5-1.2h1.2v1.4h2.7v1.1h-2.7v2.7h-1.2v-.6h-1.8v1.3h4.9v3.8h-1.2v-.5h-3.7c0 .4-.1.9-.1 1.2h5.1v1h-5.2c0 .5-.1.9-.2 1.2h6v1h-5.2c1.1 1.3 2.9 2 5.5 2.2-.4.4-.7.8-.9 1.3-2.9-.5-4.8-1.6-5.7-3.5h-.1c-.8 1.7-2.7 2.9-5.9 3.6-.2-.4-.6-.8-.9-1.1 2.8-.6 4.6-1.4 5.4-2.5h-4.8v-1h5.3c.1-.3.2-.7.2-1.2h-4.9v-1h5c0-.4 0-.8.1-1.2h-3.5v.5h-1.2v-3.8h4.9v-1.3h-1.8v.5h-1.2v-2.7h-2.7v-1h2.6v-1.4h1.2v1.4h4.7v-1.4zm-6.6 8.3h3.6c0-.4 0-.9 0-1.4h-3.6zm1.9-4.6h4.7v-1.3h-4.7zm6.6 3.2h-3.7v1.4h3.7z" fill="#fbfcfa"/><path d="m385.3 3.8h1.3v2.2h2.8v-2.2h1.3v2.2h4.1v9.1h1.7v1.3h-16.9v-1.3h1.7v-9.1h4.1v-2.2zm.4 13.1.7 1.2c-1.8.9-3.8 1.9-6 2.9-.2-.4-.5-.8-.8-1.3 2.3-1 4.3-1.9 6.1-2.8zm-3.1-6.4h2.8v-3.2h-2.8zm0 4.6h2.8v-3.3h-2.8zm4-4.6h2.8v-3.2h-2.8zm0 4.6h2.8v-3.3h-2.8zm3.7 1.9c2.1.9 4.1 1.8 6.1 2.7l-.7 1.3c-2.2-1.1-4.2-2-6.1-2.9zm3.2-9.7h-2.8v3.2h2.8zm-2.8 7.8h2.8v-3.3h-2.8z" fill="#fbfcfa"/><g fill="#010102"><path d="m113.74 54.73c-.35 10.11-.71 19.71-1.01 29.31-2.1 68.36-4.08 136.72-6.35 205.07-.68 20.35-2.21 40.68-3.3 61.02-.13 2.44-1.1 4.37-3.47 4.64-2.59.3-5.92 1.45-7.36-2.03-1-2.41-1.87-5.12-1.82-7.67.27-12.75.95-25.5 1.34-38.25.79-25.62 1.65-51.23 2.18-76.85 1.17-56.4 2.16-112.8 3.21-169.2.09-5.03-1.73-6.83-6.76-6.82-.67 0-1.34.04-2.01.08-6.2.45-8.15-1.38-8.06-7.55.04-2.61 3.15-5.95 6.8-6.01 12.84-.23 25.69-.17 38.53.08 2.33.05 4.78 1.22 6.93 2.34 5.91 3.09 9.27 7.51 9.57 14.79 1.83 43.51 3.66 87 3.11 130.57-.34 26.86.15 53.74-.12 80.61-.34 33.91-1.11 67.82-1.59 101.73-.04 3.13-1.89 4.09-4.27 4.59-2.79.58-5.47-1.12-6.21-3.59-4.36-14.51-4.16-29.37-3.48-44.28.49-10.62 1.13-21.25 1.15-31.87.06-59-.03-118-.12-177-.02-16.11-.22-32.22-.35-48.33-.01-1.56-.03-3.15-.28-4.69-.9-5.7-2.89-7.77-8.53-9.02-2.41-.52-4.8-1.04-7.73-1.67z"/><path d="m271.96 159.18c-8.77-5.4-17.56-9.08-27.66-9.29-10.39-.22-20.78-.77-31.16-1.42-6.72-.42-8.85-3.28-7.18-9.34.3-1.09 1.61-2.41 2.69-2.68 23.11-5.86 45.62-4.59 67.26 6.03 1.86.92 3.58 2.24 5.15 3.63 2.73 2.42 5.3 5.04 8.1 7.74 3.15-4.19 3.27-8.64 2.68-13.07-.45-3.41-1.19-6.86-2.4-10.07-.71-1.9-2.26-3.88-3.97-4.94-7.24-4.46-15.42-5.98-23.77-6.1-13.53-.18-27.07.15-40.6-.04-3.61-.05-7.31-.89-10.79-1.94-4-1.2-5.72-5.39-4.13-9.24.29-.69 1.42-1.35 2.24-1.44 8.11-.94 16.23-1.83 24.36-2.56 1.86-.17 3.77.29 6.04.5.21-2.92.6-5.77.59-8.62-.02-11.96.09-23.94-.33-35.89-.39-10.87.18-21.44 5.03-31.44.96-1.99 1.99-2.26 3.88-1.73 6.68 1.89 9.93 7.45 8.83 15.21-.63 4.43-1.69 8.86-1.68 13.29.03 12.23 1.01 12.94 12.6 12.9 4.65-.01 9.3-1.13 13.96-1.61 7.74-.8 12.7 2.62 14.73 10.09-3.83 4.09-8.74 5.49-14.19 5.63-7.49.19-14.97.43-22.46.66-1.09.03-2.18.18-3.43.29v20.61c6.66.88 13.26 1.86 19.9 2.58 5.96.64 11.64 1.97 16.81 5.17 6.14 3.81 10.02 9.23 11.55 16.21 2.22 10.18 2.63 20.48-.27 30.56-.75 2.59-3.37 4.8-5.49 6.79-1.95 1.82-2.85 3.36-2.34 6.28 2.3 12.99 4.78 25.99 6.19 39.09 2.03 18.91 3.19 37.91 4.7 56.87 1.58 19.86 2.62 39.77 4.89 59.55 1.29 11.27 2.25 22.47 1.82 33.77-.12 3.06-1.03 6.15-2.01 9.08-.83 2.48-2.87 3.85-5.62 4.09-2.7.24-4.63-.45-5-3.48-1.05-8.63-2.4-17.24-3.12-25.91-2.63-31.89-5.19-63.78-7.51-95.7-1.42-19.53-2.78-39.06-6.29-58.36-.9-4.93-2.3-9.77-3.53-14.64-.53-2.11-1.81-2.52-4.01-2.14-18.26 3.2-36.55 6.27-54.84 9.33-3.08.52-6.2 1.12-9.3 1.1-2.25-.01-4.73-.56-6.68-1.64-3.67-2.03-3.22-7.71.48-9.66 11.54-6.09 24.02-7.19 36.77-7.41 9.77-.15 19.19-2.41 28.51-6.69z"/><path d="m196.69 185.67c5.64 2.57 8.51 6.99 8.44 12.96-.1 7.68-1.34 15.41-5.43 21.89-2.56 4.05-6.9 7.16-10.89 10.07-2.73 2-6.14 3.26-9.42 4.29-4.36 1.37-6.25 4.59-7.83 8.44-3.71 9.05-2.64 18.23-.97 27.43.78 4.28 2.11 8.47 2.79 12.76.73 4.62 3.74 7.17 7.39 9.33 4.81 2.86 9.12 3.85 14.83 3.33 0-5.93.29-11.93-.07-17.88-.52-8.59-1.77-17.14-2.16-25.73-.15-3.34.82-6.88 1.92-10.1 1.29-3.77 3.71-5.37 7.74-6.26 6.83 13.14 9.24 27.15 7.99 41.86-1.2 14.03.78 27.44 7.64 39.92.32.58.66 1.15 1.24 2.15.53-1.2 1.02-2.01 1.24-2.89 3.2-12.66 6.39-25.33 9.51-38.02.31-1.28.24-2.67.25-4.01.02-7.84-.03-15.67.03-23.51.03-4.4 1.71-7.03 4.9-7.86 2.74-.71 4.85-.32 6.32 2.63 4.79 9.66 4.75 19.9 3.9 30.22-.51 6.24-1.49 12.43-2.24 18.65-.39 3.24.64 4.17 4 3.45 7.86-1.68 13.27-6.25 16.7-13.59 4.33-9.28 3.41-18.74 1.73-28.29-.5-2.86-1.22-5.69-2.04-8.47-1.23-4.2-3.24-7.72-6.73-10.81-6.86-6.06-13.27-12.67-19.52-19.38-8.13-8.73-9.06-18.81-4.5-29.59 1.27-3.01 6.73-3.83 8.22-.92 1.95 3.81 3.63 7.92 4.46 12.1 1.43 7.19 4.07 13.31 10.19 17.82 4.41 3.24 8.51 6.93 12.54 10.63 5.94 5.46 9.42 12.54 11.52 20.13 4.26 15.42 3.75 30.89-3.73 45.08-4.4 8.35-10.26 16.64-20.79 18.58-4.12.76-8.46.46-12.7.4-1.91-.03-2.76.65-3.43 2.34-2.9 7.27-5.85 14.51-8.94 21.7-.77 1.78-.32 2.72.89 4.04 5.64 6.2 11.45 12.29 16.55 18.92 2.34 3.05 3.37 7.19 4.6 10.97.68 2.11-.32 3.14-2.95 3.46-5.87.72-9.61-1.4-13.1-6.16-7.35-10-15.08-19.76-23.21-29.14-5.74-6.61-9.09-14.31-12.06-22.23-1.47-3.92-3.75-5.8-7.7-6.15-1.78-.16-3.54-.56-5.32-.66-16-.92-25.25-10.53-31.08-24.34-4.05-9.58-3.13-19.62-1.55-29.45 1.36-8.47 3.62-16.8 5.78-25.11.45-1.74 1.86-3.67 3.38-4.62 3.48-2.18 7.21-4.04 11.01-5.61 11.1-4.58 14.56-9.41 14.65-21.33-.01-5.37 2.15-9.7 6.01-13.44z"/><path d="m171.59 25.05c6.35 1.78 9.33 5.87 9.38 13.85.06 9.5-.35 19-.52 28.5-.67 36.9-1.36 73.8-1.91 110.7-.05 3.42-1.82 4.56-4.55 5.01-2.82.47-5.33-1.24-5.94-3.89-2.92-12.6-3.84-25.43-3.72-38.3.3-32.99.83-65.97 1.31-98.96.09-6.12 2.11-11.65 5.95-16.91z"/></g></svg>