<svg enable-background="new 0 0 400 400" viewBox="0 0 400 400" xmlns="http://www.w3.org/2000/svg"><g fill="#fbfafa"><path d="m37.59 393.81c-.92.31-1.52.05-2-.78-.7-1.2-1.52-2.34-2.47-3.78v4.59c-.55.03-.95.05-1.41.07-.03-.37-.06-.64-.06-.91 0-1.91 0-3.81 0-5.7 1.13-.41 1.77-.03 2.29.91.62 1.11 1.38 2.14 2.31 3.19v-4.2h1.35v6.61z"/><path d="m12.94 393.88v-6.75c1.9.19 3.93-.54 5.37 1.29.8 1.01.78 2.88.03 3.97-1.37 1.97-3.4 1.51-5.4 1.49m1.45-1.22c2.04.12 2.92-.58 2.89-2.21-.03-1.51-.98-2.19-2.89-2z"/><path d="m11.81 393.87h-5.49c.68-2.18 2.47-3.48 3.51-5.45h-3.08v-1.21h5.29c-.71 2.13-2.44 3.48-3.47 5.51.86 0 1.63.04 2.39-.01.79-.05 1.14.21.85 1.16"/><path d="m39.33 393.86v-6.61h3.7v1.07h-2.22v1.52c.68.04 1.34.09 2.07.13v1.07c-.72.05-1.38.09-2.1.14v1.48h2.4v1.19h-3.85z"/><path d="m27.71 388.56c-1.15-.3-2.46-.61-3.1.64-.37.73-.41 1.93-.06 2.67.63 1.35 1.99.93 3.17.68.35.94-.01 1.32-.93 1.46-1.62.25-3.05-.27-3.76-1.48-.73-1.24-.6-3.03.31-4.17.88-1.11 2.71-1.7 4-1.16.32.13.44.74.65 1.12-.1.08-.19.16-.28.24"/><path d="m49.15 387.24v1.07c-.59.02-1.17.05-1.87.08v5.44h-1.48v-5.44h-1.85c-.05-.4-.08-.73-.13-1.15z"/><path d="m20.06 387.21h1.33v6.62h-1.33z"/><path d="m30.68 393.25c-.49.38-.8.79-1.05.76-.32-.05-.6-.45-.9-.7.26-.24.51-.64.8-.67.29-.04.62.3 1.15.61"/></g><path d="m209.18 334.62c1.13.74 2.22 1.47 3.33 2.17 13.56 8.48 27.14 16.92 40.67 25.46 2.26 1.42 4.71 2.9 6.27 4.97 1.33 1.76 1.95 4.4 1.91 6.64-.01.66-3.32 1.69-5.16 1.8-6.89.41-12.79-2.74-18.64-5.8-19.77-10.31-37.63-23.32-53.91-38.49-2.97-2.77-6.04-3.83-10.15-3.9-11.38-.2-22.78-.78-34.13-1.66-4.06-.32-8.11-1.66-12-3-10.73-3.69-17.02-11.66-18.77-22.5-.78-4.84.44-10.3 1.9-15.13 3.95-13.12 4.19-13.04 15.66-20.43 9.02-5.82 18.04-11.65 27.05-17.48 5.41-3.5 6.61-6.51 4.88-13.06-1.04-3.94-.88-7.46 1.9-10.7 1.36-1.58 2.64-2.03 4.66-1.28 4.46 1.67 6.76 5.02 7.62 9.45.47 2.4.66 4.89.68 7.34.06 6.76-1.35 12.57-8 16.44-8.97 5.22-17.28 11.59-26.31 16.7-11.47 6.49-16.42 15.9-15.31 28.85.22 2.54 1.06 4.16 3.38 5.58 10.32 6.3 21.79 6.87 33.35 7.19 3.33.09 6.67.01 10.62.01-.99-3.87-1.75-7.08-2.63-10.26-2.82-10.28-3.16-20.77-2.33-31.3.45-5.74 3.22-9.08 7.18-9.71 1.8-.29 2.8.16 3.66 1.92 3.66 7.47 4.07 15.52 4.43 23.56.64 14.31 6.12 26.38 17.01 37.04 2.39-1.96 5.2-3.72 7.31-6.11 7.48-8.48 11.74-18.11 10.03-29.8-.46-3.17-.51-6.51-.08-9.69.62-4.63 1.51-9.29 2.99-13.7.56-1.66 3.04-3.59 4.78-3.73 2.66-.21 5.5.79 6.37 4.23 2.46 9.74 2.07 19.5.44 29.3-.95 5.73-1.79 11.48-2.66 17.15.34.29.5.55.67.55 12.17.16 24.41 1.27 36.34-2.11 5.55-1.57 10.84-3.65 12.38-10.33 1.66-7.17.92-14.01-3.68-19.71-2.29-2.84-5.89-4.81-9.2-6.61-7.45-4.04-14.99-7.97-22.7-11.5-9.42-4.31-12.89-9.75-11.84-20.05.25-2.44.93-4.84 1.16-7.28.61-6.45 5.18-8.72 10.67-10.3 2.03 3.69 2.45 7.54 1.51 11.62-1.95 8.41-1.84 8.26 5.76 12.54 9.53 5.36 19.48 10.22 28.21 16.7 14.63 10.87 18.43 26.24 12.16 43.35-.51 1.38-1.51 2.73-2.61 3.72-8.28 7.43-18.23 11.38-29.11 12.49-10.44 1.06-20.98 1.85-31.44 1.57-6.92-.15-11.72 2.41-16.28 7.28z" fill="#010105"/><path d="m315.32 232.05c-4.6 3.6-7.64 3.49-12.33-.57-8.37-7.26-16.71-14.55-24.96-21.94-1.7-1.53-3.16-2.02-5.35-1.2-14.1 5.26-29.03 6.13-43.75 7.93-9.97 1.22-20 2.04-30.02 2.74-2.34.16-4.9-.52-7.13-1.42-3.11-1.25-4.5-4.97-3.04-7.89.47-.94 2-1.57 3.17-1.92 13.16-3.92 26.76-4.96 40.35-6.21 8.98-.83 17.89-2.38 26.85-4.05-6.43-4.72-13.42-8.01-21.03-9.2-8.92-1.41-17.99-1.84-26.98-2.73-7.45-.74-14.9-1.5-22.35-2.32-1.2-.13-2.42-.48-3.54-.95-3.25-1.37-3.55-4.16-3.58-7.25-.03-2.93 2.24-3.02 4-3.61 8.24-2.75 16.79-3.03 25.23-1.91 11.95 1.58 23.95 3.29 35.62 6.19 8.6 2.14 16.69 6.28 25.02 9.52 1.23.48 2.48.91 4.11 1.51.26-6.7.6-13.12.66-19.54.01-.82-1.28-1.96-2.22-2.45-9.55-4.9-19.75-5.67-30.33-5.37-10.36.29-20.75-.35-31.12-.8-2.28-.1-4.55-1.05-6.76-1.79-3.12-1.05-4.22-3.41-3.93-6.57.19-2.05.92-3.21 3.16-4.03 7.52-2.74 15.22-2.1 22.9-1.75 14.05.65 28.2.46 41.97 4.04 1.94.5 3.86 1.14 5.71 1.9 11.59 4.76 16.75 12.04 16.15 24.62-.35 7.3-2.23 14.53-3.24 21.81-.18 1.33.1 3.21.94 4.13 3.93 4.25 7.88 8.56 12.31 12.28 7.42 6.21 10.85 10.51 13.51 18.8z" fill="#010105"/><path d="m226.13 115.48c6.36 3.62 13.28 5.4 20.39 6.14 9.11.94 18.29 1.25 27.42 2.02 8.28.7 16.29 2.45 21.9 9.27 1.92 2.34 2.9 5.45 4.34 8.19 1.04 1.99.23 3.46-1.65 3.86-2.44.52-5 .56-7.52.6-.83.02-1.76-.45-2.49-.92-10.63-6.85-22.71-7.82-34.77-8.03-12.4-.22-23.54-4.86-35-8.52-.69-.22-1.41-.76-1.82-1.35-3.87-5.62-6.44-11.7-4.27-18.57.82-2.6 2.46-5.31 4.5-7.08 6.87-5.97 15.05-8.88 24.17-9.61 12.93-1.04 25.82-2.41 38.73-3.72 4.55-.46 6.44-2.24 7.46-5.97.57-2.08-.09-2.98-2-3.73-8.98-3.57-18.32-3.98-27.75-3.12-11.95 1.09-23.86 1.82-35.75-.61-.82-.17-2.44.86-2.83 1.72-2.29 5.09-4.31 10.3-6.47 15.45-.78 1.85-1.5 3.76-2.58 5.43-.95 1.47-2.14 3.24-3.63 3.79-2.39.88-5.6 1.83-7.52.87-1.33-.66-1.94-4.7-1.4-6.87 2.11-8.45 4.6-16.82 7.36-25.08 2.63-7.85 3.91-15.81 3.57-24.05-.21-5.27 1.18-10.15 3.45-14.86.82-1.7 1.79-1.93 3.45-1.41 5.06 1.57 7.67 5.72 7.02 11.48-.4 3.56-.93 7.1-1.35 10.65-.13 1.11-.17 2.24-.1 3.35.38 5.91.63 5.99 6.45 6.16 17.09.48 34.17 1.03 51.26 1.69 2.65.1 5.33.74 7.88 1.51 13.77 4.16 16.74 15.37 14.55 27.02-.53 2.81-2.33 4.82-5.03 6.3-8.3 4.54-17.22 5.85-26.51 6.07-9.6.23-19.2.81-28.77 1.53-2.73.2-5.44 1.25-8.05 2.22-3.68 1.32-6.14 3.88-6.64 8.18z" fill="#010105"/><path d="m140.34 25.36c8.41 6.75 9.29 15.14 7.41 24.35-.8 3.93-1.91 7.84-2.2 11.81-.34 4.66 2.25 7.87 6.84 8.4 4.05.47 8.21.16 12.31-.13.78-.05 1.96-1.51 2.11-2.46.87-5.4 1.41-10.85 2.23-16.25.35-2.28.54-4.95 1.85-6.61 1.24-1.58 3.78-2.4 5.9-2.94 2.37-.61 3.1 1.59 3.95 3.28 2.4 4.77 2.98 9.85 2.25 15.03-.53 3.75-1.79 7.4-2.24 11.16-.74 6.25-5.02 9.07-10.24 10.53-5.24 1.47-10.71 2.12-16.08 3.12-.22.04-.45.04-.67.08-7.05 1.47-5.59.51-6.04 6.81-.24 3.33-.04 6.68-.04 10.64 5.99.42 12.08.92 18.18 1.24 7.03.36 14.08.35 21.1.89 3.94.3 7.66 1.73 10.27 5.02 2.21 2.79 1.96 3.97-1 5.85-3.86 2.46-8.17 2.94-12.57 2.8-23.81-.76-47.61-1.65-71.42-2.3-6.13-.17-12.3.65-18.43.42-4.19-.16-8.34-1.34-12.5-2.08-2.14-.38-2.89-1.67-2.69-3.82.18-1.87.04-3.78.04-5.87 9.05-2.62 18.07-3.75 27.31-3.17 9 .56 18.01 1.05 27.26 1.59.61-5.75 1.17-10.94 1.76-16.54-5.43-.94-10.64-2.23-15.92-2.68-10.18-.86-16.79-9.67-17.03-18.12-.18-6.35.21-12.72.56-19.07.17-3.14 2.71-4.1 5.34-4.62 2.48-.49 3.98.28 4.99 2.95 2.24 5.92 4.17 11.78 3.15 18.24-.52 3.32 1.28 5.56 4.23 6.35 4.35 1.17 8.85 1.8 14.41 2.88.13-7.56.72-14.12.25-20.61-.6-8.21-.34-16.09 3.74-23.46.48-.86 1.01-1.68 1.63-2.71z" fill="#010105"/><path d="m111.58 187.14c0 6.15.25 12.32-.1 18.46-.2 3.49-1.18 6.99-2.22 10.36-.68 2.2-2.59 3.39-5.04 2.95-2.3-.41-3.92-1.38-4.59-4.09-2.82-11.44-3.32-23.08-2.37-34.68.91-11.11 2.46-22.22 4.46-33.19 1.68-9.2 10.56-17.17 20.02-17.87 10.56-.78 21.2-.75 31.8-.65 10.55.1 17.54 5.92 20.63 15.63 2.45 7.71 4.43 15.75 5.22 23.78 1.43 14.48 1.27 29.05-1.01 43.51-.73 4.62-3.77 7.05-8.44 6.32-.85-.13-1.99-1.52-2.15-2.47-1.21-7.58-2.47-15.17-3.2-22.81-.5-5.22-.58-10.54-.16-15.76.84-10.32-2.46-19.87-4.92-29.59-.2-.78-1.36-1.74-2.19-1.86-6.98-.98-13.97-2.38-20.97-2.44-5.62-.06-11.28 1.44-16.86 2.54-1.02.2-2 1.66-2.62 2.75-3.32 5.88-4.57 12.38-4.89 19-.32 6.69-.07 13.42-.07 20.13-.1-.02-.21-.02-.33-.02z" fill="#010105"/><path d="m140.55 178.18c-6.7-1.14-13.43-2.17-20.09-3.51-1.17-.23-2.97-1.73-2.96-2.64.02-2.55-2.42-5.99 1.75-7.52 2.44-.9 4.98-2 7.51-2.12 7.48-.36 14.98-.44 22.47-.33 4.47.07 8.68 1.28 11.39 5.33 1.41 2.11 1.55 3.82-1.07 5.51-5.82 3.76-12.18 4.8-19 5.28z" fill="#010105"/></svg>