<svg enable-background="new 0 0 400 400" viewBox="0 0 400 400" xmlns="http://www.w3.org/2000/svg"><path d="m361.2 9.6.8-1c.9.7 1.9 1.4 2.9 2.3l-.9 1.1c-1-1-2-1.8-2.8-2.4zm.5 10.6c.9-2.1 1.6-4.3 2.3-6.7.4.2.8.4 1.3.6-.7 2.1-1.5 4.3-2.2 6.6zm.4-15.2.9-.9c1 .8 2 1.6 2.8 2.4l-1 1c-.9-.9-1.8-1.7-2.7-2.5zm12.5-1.2h1.2v1.4h2.7v1.1h-2.7v2.7h-1.2v-.6h-1.8v1.3h4.9v3.8h-1.2v-.5h-3.7c0 .4-.1.9-.1 1.2h5.1v1h-5.2c0 .5-.1.9-.2 1.2h6v1h-5.2c1.1 1.3 2.9 2 5.5 2.2-.4.4-.7.8-.9 1.3-2.9-.5-4.8-1.6-5.7-3.5h-.1c-.8 1.7-2.7 2.9-5.9 3.6-.2-.4-.6-.8-.9-1.1 2.8-.6 4.6-1.4 5.4-2.5h-4.8v-1h5.3c.1-.3.2-.7.2-1.2h-4.9v-1h5c0-.4 0-.8.1-1.2h-3.5v.5h-1.2v-3.8h4.9v-1.3h-1.8v.5h-1.2v-2.7h-2.7v-1h2.6v-1.4h1.2v1.4h4.7v-1.4zm-6.6 8.3h3.6c0-.4 0-.9 0-1.4h-3.6zm1.9-4.6h4.7v-1.3h-4.7zm6.6 3.2h-3.7v1.4h3.7z" fill="#fbfcfa"/><path d="m385.3 3.8h1.3v2.2h2.8v-2.2h1.3v2.2h4.1v9.1h1.7v1.3h-16.9v-1.3h1.7v-9.1h4.1v-2.2zm.4 13.1.7 1.2c-1.8.9-3.8 1.9-6 2.9-.2-.4-.5-.8-.8-1.3 2.3-1 4.3-1.9 6.1-2.8zm-3.1-6.4h2.8v-3.2h-2.8zm0 4.6h2.8v-3.3h-2.8zm4-4.6h2.8v-3.2h-2.8zm0 4.6h2.8v-3.3h-2.8zm3.7 1.9c2.1.9 4.1 1.8 6.1 2.7l-.7 1.3c-2.2-1.1-4.2-2-6.1-2.9zm3.2-9.7h-2.8v3.2h2.8zm-2.8 7.8h2.8v-3.3h-2.8z" fill="#fbfcfa"/><g fill="#010102"><path d="m164.7 145.27c6.01 2.02 9.26 6.53 8.6 12.78-.99 9.28-3.66 17.77-10.8 24.59-8.78 8.38-15.9 18.13-21.8 28.8-8.14 14.71-7.65 29.73-2.16 45.04.19.52.39 1.09.75 1.48 7.99 8.57 17.26 14.83 29.6 16.25 0-1.63.05-3.15-.01-4.66-.57-16.22-1.2-32.44-1.69-48.66-.1-3.34.24-6.7.52-10.04.5-6 2.86-8.26 9.25-8.99 4.89 7.35 6.13 15.66 6.03 24.27-.11 9.18-.79 18.36-.48 27.52.65 19.1 3.16 37.9 11.19 55.54.32.7.68 1.39 1.19 2.43 5.22-8.09 8.78-16.57 11.13-25.56 4.47-17.16 4.81-34.74 5.08-52.32.11-7.16.02-14.32.24-21.48.2-6.44 2.63-9.04 9.36-10.47 3.79 6.32 5.76 13.24 5.48 20.63-.37 9.73-1.06 19.44-1.73 29.15-.45 6.47-1 12.95-1.72 19.4-.3 2.69.85 3.71 3.25 3.84 1 .06 2.07.17 3-.12 7.38-2.32 14.81-4.7 20.01-10.89 3.29-3.93 6.55-7.99 9.11-12.41 6.23-10.73 6.24-21.91 1.24-33.17-3.11-7.01-7.08-13.3-12.73-18.7-6.13-5.86-11.75-12.3-17.27-18.76-7.64-8.94-9.11-19.4-6.5-30.6.77-3.32 3.81-3.69 6.44-4.47 2.64-.79 4.2.74 4.84 2.89 1.1 3.71 2.27 7.51 2.54 11.34.45 6.3 2.23 11.64 6.92 16.16 5.8 5.58 11.21 11.58 16.76 17.43 17.96 18.94 21.3 47.93 7.67 70.15-4.56 7.43-11.84 12.36-18.87 17.4-6.21 4.46-13.57 5.19-20.63 6.29-6.67 1.05-10.44 3.67-11.75 10.5-1.68 8.8-6.56 16.32-10.96 23.97-3.13 5.44-2.63 8.17 2 12.7 3.84 3.75 7.72 7.48 11.38 11.4 1.49 1.6 2.79 3.57 3.56 5.6.69 1.81 1.3 4.34.55 5.85-1.2 2.4-6.4 3.64-8.77 2.36-3.4-1.84-6.99-3.71-9.72-6.37-13.38-13.04-21.71-29.09-27.06-46.84-1.51-5.03-3.49-9.91-4.96-14.95-.7-2.41-2.07-3.56-4.36-3.92-3.2-.51-6.38-1.19-9.6-1.45-12.07-.99-20.83-7.43-27.86-16.73-12.5-16.53-13.86-34.88-8.53-54.2 2.96-10.74 8.29-20.17 16-28.33 5.53-5.85 10.5-12.24 15.99-18.14 3.03-3.25 4.39-6.95 4.49-11.19.14-5.01 2.31-8.96 5.79-12.34z"/><path d="m168.1 24.95c7.16 1.28 10.17 4.17 10.16 10.62-.04 22.61.19 45.24-.86 67.8-.42 9.09-3.42 18.18-6.12 27-1.64 5.34-7.16 7.39-11.99 9.43-8.03 3.4-16.64 3.16-25.11 3.36-9.83.24-19.66.06-30.09.06 0 4.71.01 9.15 0 13.58-.1 40.87-.33 81.73-.27 122.6.03 21.88-1.42 43.61-4.93 65.2-1.13 6.95-1.87 13.97-3.17 20.89-1.01 5.38-4.16 8.09-8.63 8.46-2.18.18-3.93-.35-4.13-2.73-.33-3.85-.77-7.76-.44-11.58 1.38-15.83 3.71-31.6 4.41-47.44 1.08-24.37 1.32-48.78 1.53-73.17.34-39.86.42-79.72.5-119.58.02-11.08-.44-22.16-.5-33.24-.05-9.11 1.4-18.02 4.1-26.76.87-2.82 2.48-4.5 5.06-5.76 7.77-3.81 16.09-4.33 24.51-4.68 13.07-.55 26.13-1.27 39.18-2.09.85-.05 2.11-1.46 2.31-2.42.86-4.04 1.25-8.18 2.1-12.22.51-2.46 1.54-4.82 2.38-7.33zm-4.05 63.36c0-7.88.39-15.23-.15-22.5-.33-4.44-2.56-5.38-7.02-4.89-11.55 1.28-23.11 2.47-34.66 3.71-5.95.64-11.9 1.31-17.71 1.95v21.73zm-59.82 14.64c0 8.22-.07 16.04.11 23.85.02.75 1.58 2.1 2.44 2.11 11.6.2 23.22.42 34.82.19 5.84-.11 11.48-1.77 16.46-5.05.88-.58 2.02-1.45 2.18-2.33 1.04-5.77 1.85-11.58 2.79-17.71-19.73-.36-39-.7-58.8-1.06z"/><path d="m216.29 50.49c-.63-9.89.84-16.79 3.99-23.4.92-1.93 2.02-2.27 3.95-1.81 5.99 1.42 8 4.29 7.08 10.41-.13.88-.33 1.76-.41 2.65-.63 7.57.42 8.35 7.85 8.77 16.17.92 32.32 2.23 48.48 3.41 1.1.08 2.19.44 3.27.72 9.02 2.33 10.27 3.99 11.74 13.07 2.87 17.77 2.41 35.71 2.75 53.58.57 31 .63 62 .75 93 .11 29.33-.24 58.66.18 87.98.14 9.67 2.26 19.3 3.1 28.98 1.2 13.81 2.04 27.66 3.09 41.49.15 1.97-.38 3.19-2.44 3.61-1.09.22-2.18.59-3.16 1.09-1.91.97-3 .32-4.07-1.4-3.86-6.23-5.62-13.12-6.44-20.29-3.19-27.94-3.98-55.98-4.08-84.09-.14-40.18-.75-80.35-1.17-120.53-.04-3.58-1.17-4.6-5.26-4.82-10.26-.56-20.52-1.05-30.76-1.72-6.25-.41-12.49-.97-18.71-1.72-7.45-.9-16.01-9.96-16.38-17.45-1.23-24.71-2.33-49.42-3.35-71.53zm16.13 37.8h58.83c0-5.57.31-10.59-.08-15.55-.42-5.31-2.55-6.92-7.96-7.4-9.01-.8-18.01-1.71-27.01-2.54-7.86-.73-15.73-1.43-23.77-2.16-.01 9.47-.01 18.69-.01 27.65zm-.01 14.66c-.97 7.45-.9 14.43 3.76 20.43 1.11 1.42 3.02 2.65 4.78 3.05 4.67 1.08 9.44 1.81 14.2 2.42 10.33 1.33 20.66 2.22 31.05.17 3.37-.66 4.9-1.82 4.6-5.63-.43-5.45-.1-10.96-.12-16.44 0-.95-.14-1.9-.23-2.95-19.44-.35-38.55-.7-58.04-1.05z"/></g></svg>