<svg enable-background="new 0 0 400 400" viewBox="0 0 400 400" xmlns="http://www.w3.org/2000/svg"><g fill="#010103"><path d="m99.82 228.4c0-20.15-.08-40.29.03-60.44.08-15 .26-30 .75-44.99.1-2.93 1.25-6.25 3-8.59 2.76-3.7 7.18-3 8.54 1.24 1.48 4.63 2.93 9.52 2.95 14.31.11 28.88-.27 57.77-.35 86.65-.04 15.34.21 30.68.34 46.01.01.84.13 1.68.24 3.12 4.35-5.28 6.82-10.82 8.83-16.6 4.6-13.18 5.81-26.91 5.77-40.7-.07-24.07-.67-48.13-.96-72.2-.06-4.81.06-9.63.46-14.42.47-5.64 3.7-9.3 8.21-9.45 1.09-.04 2.97.95 3.21 1.81 1.34 4.91 3.13 9.9 3.2 14.89.2 14.21-.48 28.42-.57 42.64-.13 18.7-.03 37.4-.03 56.1v3.5c.36.1.72.2 1.07.3 2.27-5.26 5.09-10.36 6.72-15.82 8.98-29.95 11.04-60.3 2.86-90.7-2.71-10.07-7.57-19.57-11.51-29.31-3.64-9.02-7.44-17.97-10.96-27.03-1.03-2.66-1.99-5.62-1.89-8.4.27-7.92.85-15.85 1.83-23.71.52-4.14 2.39-7.98 6.77-9.72 3.43-1.36 4.91-.85 5.33 2.77 1.04 9.1 2.09 18.24 2.34 27.38.25 9.19 1.75 17.83 5.79 26.2 4.32 8.95 7.5 18.45 11.84 27.39 4.76 9.8 6.23 20.21 7.27 30.79 1.46 14.84 2.03 29.7.81 44.6-1.42 17.35-5.93 33.87-13.4 49.58-.5 1.05-1.45 1.97-2.38 2.7-3.17 2.48-6.29 5.09-9.7 7.2-4.71 2.91-7.88 6.77-9.23 12.14-1.5 5.98-5.73 10.29-9.25 15.02-3.75 5.02-7.72 9.88-11.33 15-1.13 1.6-1.93 3.81-1.95 5.74-.13 22.06.01 44.12-.2 66.18-.03 2.97-1.09 6.18-2.57 8.77-.79 1.38-3.47 2.26-5.32 2.31-2.35.06-3.7-1.63-4.3-4.25-4.29-18.56-4.32-37.29-2.58-56.1 1.76-19.1 2.52-38.21.74-57.34-.19-2.04-1.5-4.02-2.48-5.93-.5-.97-1.34-1.81-2.17-2.55-10.2-9.08-14.59-21.2-17.62-33.96-3.18-13.38-6.52-26.79-6.68-40.64-.24-21.98 1.91-43.57 11.53-63.81 4.7-9.89 8.81-20.08 13.84-29.8 3.42-6.62 3.81-13.39 3.5-20.47-.36-8.14-1.53-16.33 1.55-24.25.32-.83.59-1.69.97-2.5 1.93-4.11 3-4.4 6.65-1.69 3.89 2.88 5.54 7.05 5.88 11.62.94 12.47.16 24.97-2.99 36.99-1.92 7.35-6.25 14.05-9.39 21.1-3.96 8.87-8.52 17.56-11.56 26.75-6.29 19-6.28 38.76-5.16 58.51.69 12.22 2.57 24.27 7.09 35.73 1.45 3.67 3.39 7.15 5.1 10.72.5-.13 1.01-.26 1.52-.39z"/><path d="m235.42 236.97c.31-7.02.68-13.49.78-19.96.01-.83-1.27-2.24-2.16-2.43-6.35-1.3-12.71-2.77-19.14-3.41-10.99-1.08-17.41-7.85-22.1-16.84-4.69-8.97-4.7-18.78-4.24-28.55.44-9.32 2.07-18.46 5.43-27.2.57-1.48 1.63-2.91 2.8-4 10.15-9.41 22.07-14.12 36.02-13.55 11.82.49 23.77-.07 35.45 1.43 21.75 2.79 30.4 19.08 31.82 35.81.94 11.18-.15 22.06-3.44 32.82-3.3 10.81-10.72 17.15-21.17 19.92-7.39 1.95-15.05 2.9-23.29 4.43-.5 6.13-1.09 13.19-1.74 21.08 3.55 0 6.86-.04 10.17.01 16.56.23 33.11.45 49.67.78 2.32.05 4.66.52 6.93 1.07 4.22 1.02 6.15 4.23 4.97 8.36-.25.86-1.3 1.67-2.18 2.14-7.6 4.06-15.87 4.25-24.19 3.95-10.95-.4-21.89-.95-32.85-1.24-4.01-.11-8.03.35-12.55.57v3.65c0 29.9-.03 59.79.02 89.69.01 6.48.43 12.97.44 19.45 0 2.08-.47 4.24-1.14 6.22-1.13 3.32-3.94 4.34-7.19 4.44-3.17.1-3.92-2.4-4.37-4.63-.83-4.14-1.69-8.37-1.71-12.56-.13-33.82-.12-67.63 0-101.45.01-3.16-.94-3.92-4.02-4.39-14.19-2.2-28.39.48-42.55-.4-5-.31-10.04-.66-14.95-1.6-3.96-.76-7.25-2.96-8.27-7.38-.41-1.78.04-2.8 1.84-3.64 7.98-3.74 16.44-3.91 24.98-3.66 12.63.37 25.26.72 37.9 1.07 1.19.03 2.41 0 4.03 0zm16.25-75.06c10.66 0 21.02.03 31.39-.07.67-.01 1.93-1.09 1.91-1.63-.28-7.21-1.43-14.29-7.95-18.66-7.56-5.07-16.25-6.28-25.35-6.33zm-46.95.9c10.62-.35 20.97-.7 31.72-1.05-.6-9.07-1.16-17.72-1.73-26.41-9.04-.92-16.93 1.36-24.29 5.85-.65.4-1.42.87-1.73 1.5-2.99 6.2-5.43 12.53-3.97 20.11zm46.93 37.57c6.84-.72 13.42-.93 19.79-2.22 6.86-1.38 11.29-5.99 12.98-12.93 1.11-4.56-.49-7.19-5.03-8.05-1.85-.35-3.77-.39-5.66-.4-7.32-.04-14.64-.02-22.09-.02.01 7.81.01 15.15.01 23.62zm-46.97-23.6c1.28 4.6 2.81 8.62 3.45 12.77.75 4.82 3.45 6.93 7.87 8.01 5.65 1.37 11.21 3.31 17.12 2.03 1.17-.25 3.06-1.34 3.09-2.09.25-6.44.14-12.9.14-19.64-10.67-.37-20.92-.71-31.67-1.08z"/><path d="m293.35 51.87c.47-4.45.84-8.46 1.35-12.45.28-2.2.52-4.47 1.24-6.55 1.03-2.95 3.7-4.53 6.53-4.33 1.33.09 2.87 2.36 3.67 3.97 3.07 6.15 3.93 12.86 3.75 19.59-.38 14.01-2.06 27.87-5.81 41.44-.67 2.42-1.89 4.05-4.12 5.28-9.16 5.03-18.82 4.65-28.75 3.32-6.95-.93-10.8-4.59-13.03-11.06-4.76-13.86-5.4-28.08-4.06-42.43.51-5.51 2.16-10.93 3.59-16.31.51-1.9.75-4.64 4.17-4.03 3.95.71 6.41 2.75 6.58 6.02.08 1.56-.13 3.13-.2 4.69-.06 1.34-.19 2.68-.14 4.02.28 7.04.38 7.06 7.41 7.48 5.77.37 11.55.88 17.82 1.35zm-.14 14.45c-6.9 0-14.12-.05-21.34.09-.68.01-1.89 1.25-1.93 1.96-.2 4.12-.62 8.33.04 12.35.4 2.42 2.11 5.72 4.11 6.57 5.61 2.39 11.58 1.95 17.16-.86.79-.4 1.85-1.31 1.87-2 .15-5.77.09-11.54.09-18.11z"/><path d="m220.48 51.86c.76-5.81 1.49-11.33 2.2-16.85.38-2.92 1.8-5.03 4.65-5.98 4.19-1.39 5.83-.56 7.34 3.56 2.95 8.05 3.59 16.46 2.66 24.82-1.29 11.54-3.43 22.98-4.95 34.49-.54 4.11-3.05 6.16-6.28 7.96-6.51 3.62-13.54 3.48-20.59 2.9-3.77-.32-7.47-1.36-11.23-1.84-3.42-.43-5.59-2.32-6.52-5.4-1.84-6.07-4.05-12.12-4.93-18.35-1.87-13.34-1.93-26.76.96-40.04.33-1.52.66-3.1 1.32-4.49.83-1.75.24-4.83 3.82-4.33 3.98.55 6.64 2.79 6.86 6.16.07 1.11-.1 2.23-.2 3.34-.09 1-.27 2-.32 3-.37 8.46.37 9.26 8.59 9.8 5.43.36 10.86.82 16.62 1.25zm.95 14.45c-7.57 0-14.6-.05-21.63.07-.81.01-2.31 1.04-2.31 1.6-.01 5.11.02 10.23.54 15.3.15 1.47 1.65 3.57 2.99 4.03 5.89 2.02 11.88 2.09 17.54-.98.84-.45 1.79-1.56 1.86-2.43.47-5.55.68-11.12 1.01-17.59z"/></g><path d="m385.2 377.6.6-.7c.6.4 1.3.9 1.9 1.5l-.6.7c-.8-.5-1.4-1-1.9-1.5zm.3 7.1c.6-1.4 1.1-2.9 1.5-4.5.3.1.6.3.9.4-.5 1.4-1 2.9-1.5 4.4zm.2-10.1.6-.6c.7.5 1.3 1.1 1.9 1.6l-.7.7c-.6-.6-1.2-1.2-1.8-1.7zm8.4-.8h.8v.9h1.8v.7h-1.8v1.8h-.8v-.3h-1.2v.9h3.3v2.6h-.8v-.4h-2.5c0 .3 0 .6-.1.8h3.4v.7h-3.5c0 .3-.1.6-.1.8h4v.7h-3.5c.7.9 1.9 1.3 3.6 1.5-.2.2-.4.5-.6.9-1.9-.3-3.2-1.1-3.8-2.3-.5 1.1-1.8 2-3.9 2.4-.2-.3-.4-.5-.6-.8 1.9-.4 3.1-.9 3.6-1.7h-3.2v-.7h3.5c.1-.2.1-.5.2-.8h-3.3v-.7h3.4c0-.2 0-.5 0-.8h-2.4v.3h-.8v-2.6h3.3v-.9h-1.2v.3h-.8v-1.8h-1.8v-.7h1.8v-.9h.8v.9h3.2zm-4.4 5.5h2.4c0-.3 0-.6 0-.9h-2.4zm1.2-3.1h3.2v-.8h-3.2zm4.4 2.2h-2.4v.9h2.5v-.9z" fill="#fcfbfa"/><path d="m389.2 385.8h.9v1.5h1.9v-1.5h.9v1.5h2.7v6h1.1v.9h-11.3v-.9h1.1v-6h2.7zm.2 8.7.5.8c-1.2.6-2.5 1.3-4 1.9-.2-.3-.3-.6-.6-.8 1.6-.6 3-1.3 4.1-1.9zm-2-4.3h1.9v-2.1h-1.9zm0 3.1h1.9v-2.2h-1.9zm2.7-3.1h1.9v-2.1h-1.9zm0 3.1h1.9v-2.2h-1.9zm2.4 1.3c1.4.6 2.7 1.2 4.1 1.8l-.5.9c-1.5-.7-2.8-1.4-4.1-1.9zm2.2-6.5h-1.9v2.1h1.9zm-1.9 5.2h1.9v-2.2h-1.9z" fill="#fcfbfa"/></svg>