<svg enable-background="new 0 0 400 400" viewBox="0 0 400 400" xmlns="http://www.w3.org/2000/svg"><g fill="#fbfafa"><path d="m37.59 393.81c-.92.31-1.52.05-2-.78-.7-1.2-1.52-2.34-2.47-3.78v4.59c-.55.03-.95.05-1.41.07-.03-.37-.06-.64-.06-.91 0-1.91 0-3.81 0-5.7 1.13-.41 1.77-.03 2.29.91.62 1.11 1.38 2.14 2.31 3.19v-4.2h1.35v6.61z"/><path d="m12.94 393.88v-6.75c1.9.19 3.93-.54 5.37 1.29.8 1.01.78 2.88.03 3.97-1.37 1.97-3.4 1.51-5.4 1.49m1.45-1.22c2.04.12 2.92-.58 2.89-2.21-.03-1.51-.98-2.19-2.89-2z"/><path d="m11.81 393.87h-5.49c.68-2.18 2.47-3.48 3.51-5.45h-3.08v-1.21h5.29c-.71 2.13-2.44 3.48-3.47 5.51.86 0 1.63.04 2.39-.01.79-.05 1.14.21.85 1.16"/><path d="m39.33 393.86v-6.61h3.7v1.07h-2.22v1.52c.68.04 1.34.09 2.07.13v1.07c-.72.05-1.38.09-2.1.14v1.48h2.4v1.19h-3.85z"/><path d="m27.71 388.56c-1.15-.3-2.46-.61-3.1.64-.37.73-.41 1.93-.06 2.67.63 1.35 1.99.93 3.17.68.35.94-.01 1.32-.93 1.46-1.62.25-3.05-.27-3.76-1.48-.73-1.24-.6-3.03.31-4.17.88-1.11 2.71-1.7 4-1.16.32.13.44.74.65 1.12-.1.08-.19.16-.28.24"/><path d="m49.15 387.24v1.07c-.59.02-1.17.05-1.87.08v5.44h-1.48v-5.44h-1.85c-.05-.4-.08-.73-.13-1.15z"/><path d="m20.06 387.21h1.33v6.62h-1.33z"/><path d="m30.68 393.25c-.49.38-.8.79-1.05.76-.32-.05-.6-.45-.9-.7.26-.24.51-.64.8-.67.29-.04.62.3 1.15.61"/></g><path d="m167.42 297.1c-.92-4.58-2.24-9.21-2.72-13.93-1.23-11.99-2.52-24-2.92-36.04-.25-7.46 3.45-11.69 9.28-13.11 2.67 4.1 4.07 8.65 3.86 13.55-.67 15.68 3.34 30.59 7.38 45.48 2.03 7.47 6.28 13.77 11.86 19.63 7.84-7.9 14.2-16.65 15.74-27.75 1.35-9.71 1.5-19.59 2.12-29.4.29-4.57.26-9.16.73-13.71.18-1.78 1-3.74 2.13-5.11 3.1-3.77 6.06-3.38 8.19.83 3.37 6.67 4.6 13.88 4.01 21.18-.99 12.14-2.6 24.22-3.95 36.33-.06.55-.11 1.11-.18 1.89 3.04 0 6 .18 8.94-.03 10.78-.79 21.6-.66 32.17-3.94 5.48-1.7 8.24-5.09 9.73-9.93 2.88-9.33.97-18.14-3.68-26.46-.57-1.02-1.67-1.79-2.62-2.54-10.47-8.23-20.8-16.65-31.5-24.57-10.47-7.76-13-17.93-10.22-29.97.83-3.57 2.07-7.09 3.5-10.47.64-1.52 1.99-3 3.4-3.89 3.24-2.03 5.55-1.05 6.85 2.5 1.63 4.46 1.54 8.98.49 13.54-1.85 7.96-.2 14.92 6.23 20.26 5.76 4.78 11.44 9.71 17.63 13.87 8.47 5.71 16.09 12.09 21.31 20.99.75 1.28 1.25 2.84 1.42 4.32.5 4.33.45 8.75 1.19 13.03 1.41 8.08-1.83 15.2-4.41 22.38-.73 2.03-3.32 3.53-5.3 4.94-10.32 7.4-22.2 9.66-34.55 10.12-8.94.34-17.89.42-26.83.74-1.19.04-2.66.53-3.48 1.34-3.35 3.29-6.49 6.79-10.11 10.64 6.34 4.93 12.58 9.75 18.78 14.63 9.04 7.11 18.28 14.01 26.97 21.54 3.08 2.66 4.92 6.82 7.12 10.42 1.18 1.93.39 3.72-1.87 3.91-2.22.19-4.98.42-6.66-.66-6.92-4.48-13.69-9.25-20.21-14.3-12.21-9.46-24.48-18.86-36.17-28.94-4.99-4.3-8.81-10.07-12.72-15.49-2.26-3.13-4.64-3.59-8.34-3.64-10.71-.15-21.4-1.11-32.1-1.83-2.23-.15-4.42-.76-6.65-.9-14.58-.89-22.74-9.5-26.55-22.68-2.68-9.29-1.69-18.64 1.07-27.95 2.65-8.93 7.98-15.19 15.74-20.22 9.09-5.9 17.58-12.72 26.33-19.15 5.39-3.95 7-8.67 5.18-15.21-.51-1.83-1.08-3.64-1.59-5.47-1.28-4.54-.14-8.68 2.42-12.4.52-.76 2.7-1.41 3.17-1.01 2.39 2.04 5.47 4.07 6.48 6.78 3.49 9.34 3.18 19.08 1.09 28.74-.25 1.17-1.43 2.2-2.33 3.14-11.26 11.81-24.32 21.47-37.61 30.76-6.83 4.77-9.14 11.04-8.56 18.75.34 4.55 1.21 9.09 2.14 13.57.26 1.26 1.33 2.57 2.38 3.43 5.14 4.21 11.06 7.08 17.68 7.35 9.56.42 19.17.12 29.12.12z" fill="#010105"/><path d="m224.19 53.04c-7.92 2.1-14.91 4.03-21.95 5.76-2.25.55-4.64.78-6.95.73-2.37-.06-4.53-1.13-4.74-3.84-.23-2.92-.76-6.09 2.61-7.93 9.51-5.18 19.74-8.28 30.24-10.65 6.97-1.58 13.95-3.17 20.84-5.06 3.24-.89 6.31-1.2 9.51-.18 1.27.41 2.6.9 3.91.92 7.55.11 10.35 5.41 11.24 11.43 1.19 8.03 1.41 16.22 1.76 24.35.2 4.57-.2 9.17-.25 13.75-.04 3.42 1.28 4.86 4.62 5.24 6.34.74 13.21-3.58 14.86-9.75 1-3.75 1.44-7.66 2.01-11.52.39-2.65.39-5.37.93-7.99.56-2.71 1.9-5.02 4.84-5.93 2.9-.9 5.04-.61 6.5 2.62 2.99 6.65 2.98 13.44 1.66 20.37-.37 1.97-.84 3.94-1.42 5.86-3.33 11.07-14.24 18.85-25.81 18.32-2.98-.14-5.22.98-6.06 3.71-1.14 3.67-1.75 7.5-2.42 10.48 8.41 4.11 16.38 7.23 23.53 11.65 19.99 12.34 23.44 27.8 19.67 49.73-.13.73-1.08 1.63-1.84 1.88-6.78 2.31-8.27 1.62-9.74-5.47-.97-4.69-1.24-9.52-1.74-14.3-.96-9.08-5.24-16.11-13.15-20.65-4.71-2.7-9.72-4.88-15.26-7.62-.21 2.27-.46 3.65-.43 5.02.2 10.85.61 21.7.62 32.54 0 3.97-.73 7.98-1.49 11.9-.3 1.54-1.36 3.1-2.45 4.3-3.63 4-7.28 3.41-9.41-1.45-2.49-5.68-2.65-11.68-2.5-17.77.25-10.39.24-20.79.31-31.19.01-.75-.16-1.5-.24-2.25-14.9 1.7-25.89 16.9-27.89 29.02-.82 4.96-1.45 9.96-2.03 14.96-.34 2.87-1.41 5.01-4.54 5.29-3.25.29-5.29-1.36-6.2-4.66-3.22-11.73-.39-22.78 3.67-33.73 1.21-3.25 2.91-5.95 5.83-7.91 1.76-1.18 3.43-2.54 4.93-4.03 6.6-6.53 14.25-11.03 23.55-12.37 2.14-.31 3.05-1.31 2.97-3.55-.14-3.89-.04-7.78-.04-11.96-5.11-1.15-10.41-2.44-15.75-3.52-6.35-1.29-11.25-4.78-14.02-10.43-1.56-3.18-1.76-7.08-2.32-10.7-1.15-7.59-3.18-15.16.03-23.42zm7.81-2.14c5.65 9.38 4.49 9.26 5.5 19.99.33 3.51 1.45 6.96 2.33 10.4.21.81.72 1.78 1.38 2.19 4.08 2.52 8.48 4.13 13.35 3.13.87-.18 2.11-1.68 2.11-2.57-.04-11.4-.33-22.8-.42-34.21-.02-2.29-.9-3-3.07-3.27-7.58-.93-13.99 3.03-21.18 4.34z" fill="#010105"/><path d="m127.98 153.63c-7.51 7.09-14.72 14.28-22.36 20.97-4.17 3.65-8.91 6.72-13.69 9.55-3.8 2.25-8.16 2.98-12.82 1.96-.43-4.55-.37-8.52 4.14-11.66 7.24-5.04 14.15-10.6 20.99-16.19 3.53-2.88 6.88-6.09 9.84-9.55 4.24-4.96 6.41-10.69 6.47-17.49.2-23.38.83-46.76 1.22-70.14.12-7.38-.42-14.8.19-22.13.4-4.75 2.35-9.37 3.57-13.93 6.98.91 9.66 3.64 9.86 9.71.17 5.03-.01 10.06-.01 15.1-.01 23.61-.45 47.24.17 70.83.36 13.78 3.91 26.75 16.01 35.72 7.36 5.46 14.41 11.35 21.46 17.21 1.85 1.54 3.68 3.44 4.67 5.57.85 1.82 1.4 5.33.45 6.1-1.7 1.4-4.83 2.16-6.99 1.65-2.91-.68-5.75-2.49-8.13-4.41-10.62-8.57-21.07-17.36-31.58-26.07-1.21-.99-2.43-1.96-3.46-2.8z" fill="#010105"/><path d="m94.82 47.11c4.54 1.73 7.24 4.86 7.43 9.76.18 4.8.25 9.62.13 14.42-.45 18.79-1.07 37.57-1.44 56.36-.06 3.21-.71 5.1-4.27 5.16-1.43.02-2.85.5-5.17.94-1.04-4.63-2.51-9.2-2.99-13.86-.65-6.32-.77-12.73-.69-19.09.17-13.98.64-27.95.92-41.92.1-4.96 2.09-8.81 6.08-11.77z" fill="#010105"/><path d="m158.56 133.66c-2.89-5.73-4.15-11.65-4.26-17.68-.2-10.61.01-21.24.15-31.85.11-8.5.39-17 .56-25.49.08-3.86 1.44-7.12 4.04-10 1.47-1.63 2.68-1.48 4.3-.41 3.4 2.24 4.89 5.55 4.91 9.41.06 9.83.02 19.67-.17 29.51-.27 13.64-.83 27.28-1.02 40.92-.04 3.02-.76 4.56-3.91 4.7-1.43.04-2.84.52-4.6.89z" fill="#010105"/></svg>