<svg enable-background="new 0 0 400 400" viewBox="0 0 400 400" xmlns="http://www.w3.org/2000/svg"><g fill="#fbfafa"><path d="m37.59 393.81c-.92.31-1.52.05-2-.78-.7-1.2-1.52-2.34-2.47-3.78v4.59c-.55.03-.95.05-1.41.07-.03-.37-.06-.64-.06-.91 0-1.91 0-3.81 0-5.7 1.13-.41 1.77-.03 2.29.91.62 1.11 1.38 2.14 2.31 3.19v-4.2h1.35v6.61z"/><path d="m12.94 393.88v-6.75c1.9.19 3.93-.54 5.37 1.29.8 1.01.78 2.88.03 3.97-1.37 1.97-3.4 1.51-5.4 1.49m1.45-1.22c2.04.12 2.92-.58 2.89-2.21-.03-1.51-.98-2.19-2.89-2z"/><path d="m11.81 393.87h-5.49c.68-2.18 2.47-3.48 3.51-5.45h-3.08v-1.21h5.29c-.71 2.13-2.44 3.48-3.47 5.51.86 0 1.63.04 2.39-.01.79-.05 1.14.21.85 1.16"/><path d="m39.33 393.86v-6.61h3.7v1.07h-2.22v1.52c.68.04 1.34.09 2.07.13v1.07c-.72.05-1.38.09-2.1.14v1.48h2.4v1.19h-3.85z"/><path d="m27.71 388.56c-1.15-.3-2.46-.61-3.1.64-.37.73-.41 1.93-.06 2.67.63 1.35 1.99.93 3.17.68.35.94-.01 1.32-.93 1.46-1.62.25-3.05-.27-3.76-1.48-.73-1.24-.6-3.03.31-4.17.88-1.11 2.71-1.7 4-1.16.32.13.44.74.65 1.12-.1.08-.19.16-.28.24"/><path d="m49.15 387.24v1.07c-.59.02-1.17.05-1.87.08v5.44h-1.48v-5.44h-1.85c-.05-.4-.08-.73-.13-1.15z"/><path d="m20.06 387.21h1.33v6.62h-1.33z"/><path d="m30.68 393.25c-.49.38-.8.79-1.05.76-.32-.05-.6-.45-.9-.7.26-.24.51-.64.8-.67.29-.04.62.3 1.15.61"/></g><path d="m148.39 92.67c32.65-2.1 64.89-3.28 97.44 2.2-.53-4.39-.94-8.58-1.65-12.72-.12-.68-1.47-1.48-2.37-1.65-5.71-1.1-11.43-2.17-17.18-3.02-9.66-1.42-16.08-8.7-16.03-18.67.02-4.47.42-8.94.54-13.42.09-3.36 2.72-3.78 5.02-4.33 2.35-.56 4.58-.11 4.98 2.85.4 2.97.86 5.97.77 8.95-.29 9.05 2.12 12.29 11.13 13.38 3.85.47 7.8.08 12.68.08.07-7.22.12-14.54.24-21.87.05-3.45-.12-6.96.42-10.35.83-5.21 3.86-7.94 9.18-8.98 3.09 5.85 4.06 12.18 3.94 18.73-.11 6.04-.37 12.08-.47 18.11-.05 2.76.82 4.26 4.19 3.74 4.07-.62 8.25-.66 12.38-.74 2.22-.04 3.74-.89 4.33-2.92 1.21-4.15 2.52-8.31 3.26-12.56.94-5.4 3.1-8.29 7.44-8.37.96-.02 2.4.69 2.84 1.49 5.26 9.46 3.7 19.08-1.03 27.89-2.73 5.08-8.57 7.34-14.45 8.17-4.98.71-9.97 1.57-14.98 1.78-3.47.14-4.77 2.21-4.14 4.62 1.6 6.04-.81 9.57-6.17 11.57 3.03 2.27 5.99 4.09 8.45 6.43 4.66 4.41 6.77 10.17 7.57 16.43 1.32 10.29-.03 19.96-5.73 28.97-1.96 3.1-3.43 7.02-3.61 10.64-.49 9.67-.17 19.38-.17 29.44 7.2-.44 13.43-.73 19.64-1.3.84-.08 1.99-1.48 2.24-2.46 1.08-4.32 1.97-8.69 2.76-13.08.63-3.54 2.48-5.86 5.91-7 1.66-.55 2.57-.1 3.44 1.46 5.18 9.24 3.13 18.4-.23 27.51-.31.83-1.62 1.41-2.58 1.87-9.01 4.3-18.14 8.21-28.39 8.15-1.9-.01-2.6 1.1-2.68 2.7-.15 3.01-.27 6.03-.21 9.05.05 2.77-1.26 3.8-3.9 3.76-5.14-.08-6.56-1.22-7.51-6.28-1.5-7.99-1.51-7.97-9.36-9.32-3.3-.57-6.61-1.18-9.87-1.95-13.37-3.16-20.21-13.27-18.28-26.97.22-1.55.52-3.09.89-4.61 1.05-4.36 2.07-5.28 6.56-5.5.73-.04 1.93.69 2.18 1.34.93 2.48 1.77 5.04 2.25 7.64.45 2.4.31 4.9.59 7.35.57 4.95 2.42 7.4 7.32 8.17 4.8.75 9.74.68 15.1 1 .62-10.6 1.21-20.58 1.83-31.24-31.39 4.49-62.47 7.75-94.14.44v29.21c5.93-.36 12.04-.65 18.14-1.18.81-.07 1.96-1.2 2.19-2.05 1.04-3.75 2.08-7.53 2.6-11.37.82-6.09 2.8-8.56 8.5-9.46 4.83 6.65 5.02 13.99 3.43 21.74-1.15 5.59-3.47 9.3-9.35 11.56-7.69 2.95-15.23 5.74-23.52 5.93-2.3.05-3.22 1.15-3.25 3.3-.03 2.57-.15 5.14-.1 7.7.07 3.63-.95 4.71-4.48 4.52-5-.27-5.96-1.11-6.9-6.09-1.53-8.1-1.53-8.09-9.62-9.47-2.65-.45-5.29-.91-7.92-1.46-15.59-3.27-22.81-14.26-19.7-29.93.02-.11.06-.22.08-.33 1.33-6.43 1.33-6.43 9.08-7.6 1.76 6.01 3.85 12.1 5.23 18.35.64 2.91 1.64 5 4.47 5.48 5.03.87 10.13 1.36 15.55 2.06.27-3.64.54-6.61.69-9.59.38-7.49.64-14.99 1.1-22.47.12-1.88-.52-2.75-2.17-3.55-8-3.88-12.48-10.44-13.36-19.18-.97-9.68-.2-19.25 3.91-28.26.69-1.52 1.9-3.01 3.25-3.99 3.79-2.73 7.78-5.19 10.86-7.21-.54-3.36-1.23-6-1.34-8.66-.22-5.18-.91-6.18-5.88-6.88-4.2-.59-8.49-.81-12.61-1.72-12.22-2.72-18.83-10.72-19.27-23.25-.11-3.1.26-6.25.69-9.34.52-3.76 3.69-5.91 7.46-5.03.82.19 1.68 1.54 1.95 2.52 1.67 6.03 3.09 12.13 4.84 18.14.31 1.07 1.69 2.41 2.75 2.58 5.61.89 11.28 1.45 17.15 2.15 1.95-6.31 1.96-12.64 1.21-18.98-.83-7.05-.45-13.8 3.21-20.15 1.33-2.3 2.71-2.46 4.84-1.4 4.55 2.28 6.49 6.24 6.34 10.98-.19 5.8-1.21 11.56-1.51 17.36-.17 3.31.31 6.67.64 9.99.17 1.73 1.18 2.35 3.06 2.1 4.32-.57 8.71-.68 13-1.41 1.48-.25 3.45-1.47 3.98-2.75 1.4-3.36 2.15-6.99 3.11-10.52.7-2.56.66-5.65 2.16-7.56 1.34-1.71 4.27-2.57 6.62-2.9.85-.12 2.44 2.24 3.06 3.74 3.61 8.71 2.19 17.4-2.03 25.24-2.83 5.27-8.73 7.5-14.66 8.43-5.3.84-10.66 1.26-15.96 2.11-.95.15-2.24 1.37-2.45 2.3-.72 3.08-.98 6.21-1.45 9.65zm-12.74 39.73c.76 1.88 1.72 3.77 2.27 5.78.83 3.01 2.7 4.34 5.66 5.3 11.71 3.8 23.75 5.19 35.95 5.77 15.8.76 31.5-.5 47.16-2.37 4.32-.52 8.74-.6 12.95-1.59 5.87-1.39 12.81-5.51 12.41-12.88-38.69-.01-77.41-.01-116.4-.01zm117.02-13.8c-4.25-5.99-9.37-8.97-15.16-10.95-8.27-2.82-16.87-3.45-25.5-3.3-16.43.29-32.88.44-49.27 1.42-7.85.47-15.77 2.04-22.72 6.41-2.47 1.55-4.55 3.25-4.32 6.42z" fill="#010105"/><path d="m158.6 206.67c6.25 1.09 9.82 4.41 10.94 10.47 1.2 6.47 1.04 13-1.1 19.23-.85 2.47-2.53 5.09-4.59 6.63-8.76 6.57-17.49 13.29-26.84 18.96-13.2 8.01-16.32 17.63-13.52 33.2.61 3.4 2.35 5.56 5.16 7.33 4.66 2.94 9.62 4.56 15.15 4.75 7.15.24 14.29.73 21.43 1.09.98.05 1.97.01 3.03.01-1.45-6.36-3.39-12.49-4.13-18.75-1.08-9.07-1.6-18.24-1.75-27.37-.07-4.53 2.29-8.35 6.74-10.42 1.96-.91 3.14-.73 4.15 1.51 2.93 6.54 4.31 13.4 4.45 20.5.29 14.26 3.94 27.59 10.76 40.09 3.07 5.63 7.69 6.22 12.08 1.54 7.19-7.68 10.75-16.92 11.41-27.29.43-6.8.4-13.64.79-20.45.2-3.44.58-6.92 1.42-10.24.42-1.67 1.78-3.42 3.21-4.45 3.08-2.2 4.75-1.58 6.49 1.82 4.61 9.01 4.35 18.65 3.14 28.24-.87 6.85-2.59 13.6-3.94 20.39-.26 1.29-.55 2.57-.9 4.21 12-.29 23.61.74 35.12-1.89 7.66-1.75 11.12-6.87 12.57-13.93 1.41-6.86.08-13.34-3.13-19.46-.55-1.04-1.48-1.95-2.42-2.7-8.47-6.79-16.61-14.07-25.56-20.16-11.87-8.07-14.99-18.94-12.32-32.13 1.84-9.07-.02-6.87 9.27-9.72 2.69 3.35 4.39 7.03 3.48 11.57-.24 1.21-.51 2.41-.7 3.62-.75 4.89.37 8.98 4.62 12.06 8.7 6.29 17.29 12.75 25.95 19.11 17.7 13.01 19.27 36.63 9.9 52.76-3.4 5.86-9.82 9.14-16.42 10.95-10.8 2.96-21.81 4.82-33.08 4.83-4.92 0-9.84.18-14.76.35-.86.03-1.93.1-2.52.6-2.61 2.22-5.09 4.61-7.87 7.18 8.58 5.92 16.85 11.6 25.1 17.32 7.54 5.23 15.18 10.32 22.48 15.85 2.04 1.55 3.25 4.34 4.51 6.73.91 1.73-.15 2.87-1.94 3.47-6.13 2.03-11.83.76-16.94-2.69-10.85-7.31-21.43-15.02-32.28-22.33-9.78-6.59-17.28-15.52-25.35-23.87-2.02-2.08-4-3.06-6.96-3.03-9.72.09-19.47.21-29.17-.4-5.39-.34-11-1.37-15.97-3.39-10.73-4.37-16.75-12.62-18.22-24.39-1.26-10.09 1.44-19.53 3.6-29.09.25-1.11 1.42-2.19 2.42-2.93 11.45-8.41 22.79-16.99 34.52-25 5.3-3.62 6.79-8.25 6.33-14.05-.44-5.53-.43-10.95 2.16-16.24z" fill="#010105"/></svg>