<svg enable-background="new 0 0 400 400" viewBox="0 0 400 400" xmlns="http://www.w3.org/2000/svg"><path d="m361.2 9.6.8-1c.9.7 1.9 1.4 2.9 2.3l-.9 1.1c-1-1-2-1.8-2.8-2.4zm.5 10.6c.9-2.1 1.6-4.3 2.3-6.7.4.2.8.4 1.3.6-.7 2.1-1.5 4.3-2.2 6.6zm.4-15.2.9-.9c1 .8 2 1.6 2.8 2.4l-1 1c-.9-.9-1.8-1.7-2.7-2.5zm12.5-1.2h1.2v1.4h2.7v1.1h-2.7v2.7h-1.2v-.6h-1.8v1.3h4.9v3.8h-1.2v-.5h-3.7c0 .4-.1.9-.1 1.2h5.1v1h-5.2c0 .5-.1.9-.2 1.2h6v1h-5.2c1.1 1.3 2.9 2 5.5 2.2-.4.4-.7.8-.9 1.3-2.9-.5-4.8-1.6-5.7-3.5h-.1c-.8 1.7-2.7 2.9-5.9 3.6-.2-.4-.6-.8-.9-1.1 2.8-.6 4.6-1.4 5.4-2.5h-4.8v-1h5.3c.1-.3.2-.7.2-1.2h-4.9v-1h5c0-.4 0-.8.1-1.2h-3.5v.5h-1.2v-3.8h4.9v-1.3h-1.8v.5h-1.2v-2.7h-2.7v-1h2.6v-1.4h1.2v1.4h4.7v-1.4zm-6.6 8.3h3.6c0-.4 0-.9 0-1.4h-3.6zm1.9-4.6h4.7v-1.3h-4.7zm6.6 3.2h-3.7v1.4h3.7z" fill="#fbfcfa"/><path d="m385.3 3.8h1.3v2.2h2.8v-2.2h1.3v2.2h4.1v9.1h1.7v1.3h-16.9v-1.3h1.7v-9.1h4.1v-2.2zm.4 13.1.7 1.2c-1.8.9-3.8 1.9-6 2.9-.2-.4-.5-.8-.8-1.3 2.3-1 4.3-1.9 6.1-2.8zm-3.1-6.4h2.8v-3.2h-2.8zm0 4.6h2.8v-3.3h-2.8zm4-4.6h2.8v-3.2h-2.8zm0 4.6h2.8v-3.3h-2.8zm3.7 1.9c2.1.9 4.1 1.8 6.1 2.7l-.7 1.3c-2.2-1.1-4.2-2-6.1-2.9zm3.2-9.7h-2.8v3.2h2.8zm-2.8 7.8h2.8v-3.3h-2.8z" fill="#fbfcfa"/><g fill="#010102"><path d="m145.43 230.06c-8.11 0-16.02.08-23.92-.04-3.1-.05-6.23-.36-9.28-.91-1.46-.27-2.92-1.18-4.09-2.15-4.53-3.75-4.09-6.8 1.2-9.1 7.6-3.3 15.46-2.71 23.43-1.89 5.31.55 10.7.42 16.05.41 3.06 0 4.75-1.24 4.78-4.87.06-7.62.28-7.77-7.26-7.87-8.61-.11-17.24.25-25.85.04-3.27-.08-6.58-.99-9.75-1.93-1.37-.41-2.7-1.64-3.61-2.83-2.98-3.89-2.38-6.54 2.24-7.87 4.46-1.28 9.14-2.14 13.77-2.41 6.81-.4 13.65-.07 20.48-.16 3.23-.04 6.45-.33 10.24-.54 0-2.5.24-4.94-.14-7.28-.12-.72-1.92-1.66-2.96-1.67-7.72-.04-15.43.21-23.15.22-4.45 0-8.96.1-13.35-.52-5-.7-8.18-3.91-8.65-8.07-.11-.96.77-2.8 1.5-2.97 4.95-1.21 9.95-2.65 14.99-2.93 9.37-.51 18.78-.27 28.18-.37 1.09-.01 2.18-.24 3.43-.39 0-3.05 0-5.92 0-9.2-5.87-.9-11.8-1.83-17.73-2.71-5.2-.77-10.58-.92-15.55-2.42-3.28-1-6.63-3.4-8.78-6.1-2.49-3.13-4.36-7.11-5.32-11.02-2.03-8.34-1.87-16.82.11-25.27.78-3.32 3.43-2.82 5.45-3.34.92-.24 2.61.79 3.31 1.73 2.57 3.42 3.55 7.39 3.32 11.67-.15 2.68-.48 5.38-.24 8.03.77 8.65 4.64 13.15 13.21 14.27 6.17.8 12.49.5 18.74.71 2.38.08 3.26-.96 3.34-3.4.17-5.22.29-5.18-4.72-6.65-3.32-.98-6.7-1.84-9.88-3.18-7.21-3.03-11.95-8.06-12.21-16.38-.07-2.34-.66-4.69-.55-7.02.13-2.72-1.32-3.73-3.55-3.78-5.79-.11-11.59-.07-17.39.01-3.24.04-6.49.5-9.71.37-6.41-.26-9.38-3.75-8.99-11.24 5.02-.72 10.22-1.78 15.47-2.17 13.07-.97 10.47.04 10.43-11.02-.03-7.48-1.12-14.95-1.52-22.43-.17-3.1-.32-6.4.54-9.31.76-2.58 2.46-5.37 4.57-6.96 3.51-2.64 6.35-1.38 7.75 2.71 2.87 8.4 1.96 16.97 1.32 25.59-.47 6.31-.09 12.68-.09 19.27 3.47.56 6.98 1.12 11.03 1.78.47-3.21 1.38-6.27 1.28-9.29-.3-8.92-1-17.83-1.55-26.75-.55-8.9 1.2-17.31 5.12-25.26 5.73.96 8.28 3.43 8.65 9.02.31 4.78.11 9.6.11 14.4 0 11.42-.01 22.84 0 34.25 0 .54.12 1.08.22 1.87 6.18.57 12.25 1.13 18.85 1.74.3-4.58.82-8.78.79-12.98-.05-8.5-.6-17.01-.52-25.5.05-4.76.57-9.6 1.57-14.25.9-4.17 3.45-7.49 8.12-8.65 3.16 5.59 4.96 11.58 4.98 17.91.04 10.18-.41 20.36-.5 30.54-.04 4.12.34 8.25.54 12.64h9.87c.18-6.96.36-13.95.53-20.94.17-6.92.03-13.86.59-20.74.29-3.66 2.34-6.79 6.27-7.96 2-.6 3.38-.35 4.39 2.05 3.69 8.78 2.68 17.74 1.77 26.78-.45 4.54-.61 9.15-.46 13.71.19 5.82 2.71 8.16 8.61 8.22 2.31.02 4.62-.74 6.95-.91 2.09-.15 4.4-.52 6.26.16 3.49 1.26 4.58 4.71 4.44 7.95-.06 1.35-2.33 2.93-3.92 3.81-5.13 2.84-10.58 1.67-16.06 1.09-4.38-.46-8.88-.15-13.3.25-1.13.1-2.58 1.62-3.09 2.82-1.95 4.63-3.96 9.29-5.25 14.13-2.16 8.11-8.01 11.32-15.45 12.77-5.84 1.14-7.93 3.56-8.03 9.85 5.8-.29 11.59-.56 17.38-.86 3.13-.17 6.25-.56 9.37-.53 2.12.02 3.49-.74 4.03-2.67 1.2-4.27 2.48-8.53 3.29-12.87.59-3.16.28-6.49.73-9.69.54-3.89 2.64-6.78 6.37-8.42 1.97-.87 3.11-.75 4.22 1.43 3.63 7.13 4.1 14.54 2.57 22.21-.46 2.3-1.23 4.55-1.58 6.86-1.23 8.24-6.91 12.53-13.94 15.24-8.9 3.42-18.31 4.09-27.75 3.66-3.17-.14-4.48.76-4.34 4.01.08 1.98-.38 3.99-.65 6.47 2.19.23 4.25.66 6.3.63 8.39-.12 16.77-.53 25.15-.49 3.41.02 6.86.71 10.19 1.51 1.52.37 3 1.55 4.14 2.71 3.77 3.79 3.23 6.2-1.56 8.27-7.15 3.1-14.66 2.49-22.15 2.38-7.24-.11-14.48-.02-21.9-.02v9.43c8.28.13 16.4.2 24.53.42 5.01.13 10.07.16 15.02.83 3.82.52 6.82 2.77 7.92 6.82.56 2.06.26 3.46-2.14 4.39-8.46 3.27-17.11 2.45-25.84 1.87-5.21-.35-10.47 0-15.7.22-.84.04-2.18.96-2.35 1.69-.71 3.02-1.05 6.13-1.66 10.01 7.68.15 15.02.26 22.36.45 5.8.15 11.62.1 17.37.72 3.51.38 6.4 2.49 8.04 5.93.92 1.93.8 3.08-1.36 4.21-6.33 3.31-13.04 4.49-20.08 4.32-11.41-.27-22.81-.53-34.22-.77-.54-.01-1.09.09-2.24.2.7 2.83 1.43 5.44 1.98 8.09 1.05 5.12 2.37 10.23 2.81 15.42.19 2.27-1.02 5.06-2.45 6.99-5.45 7.39-12.96 11.77-21.85 14-11.99 3-17.85 9.47-18.54 21.47-.26 4.46 1.17 9.03 1.99 13.52.13.68 1.05 1.5 1.78 1.75 5.25 1.78 10.44 4.28 15.84 4.92 7.13.85 14.44.21 21.6.21-1.74-10.76-3.63-21.67-5.19-32.61-.45-3.15-.44-6.58.37-9.61.59-2.21 2.45-4.6 4.42-5.82 3.39-2.11 6.08-.88 6.81 2.97 1.97 10.31 3.7 20.66 5.34 31.02.82 5.23 1.53 10.42 5.05 14.68 3.19 3.86 9.83 5.83 14.37 4.18.79-.29 1.5-.95 2.08-1.6 5.1-5.71 7.95-12.33 8.1-20.07.14-7.5.39-14.99.65-22.48.23-6.68 2.47-9.16 9.63-10.33 8.64 16.05 4.34 32.17-.24 49.13 2.81.52 5.65 1.74 8.3 1.4 10.19-1.29 20.31-3.04 30.45-4.71.77-.13 1.72-.77 2.11-1.44 3.22-5.55 5.15-11.38 3.67-17.93-.69-3.04-2.01-5.46-4.54-7.5-8.36-6.74-16.52-13.74-24.79-20.6-9.5-7.88-12.08-17.81-9.04-29.54.82-3.18 2.09-5.53 5.83-5.55.98-.01 1.95-.4 3.39-.71 1.17 5.55 2.45 10.94 3.41 16.38.47 2.67 1.56 4.71 3.56 6.54 8.67 7.94 16.8 16.51 25.93 23.87 10.8 8.71 11.74 19.04 8.84 31.56-2.98 12.85-12.04 17.36-23.24 19.87-11.82 2.64-23.74 4.41-35.93 3.38-4.83-.41-9.3.91-13.73 3.98 1.13.78 2.05 1.47 3.03 2.08 9.4 5.85 18.89 11.55 28.19 17.55 7.28 4.69 14.02 10.05 17.73 18.66-3.66 2.35-7.66 2.94-11.53 1.75-4-1.24-7.88-3.1-11.54-5.18-17.87-10.2-33.61-23.29-49.11-36.68-2.12-1.83-4.24-2.54-6.97-2.43-13.26.51-26.4-.19-39.15-4.32-2.97-.96-5.98-1.84-8.9-2.97-8.52-3.3-12.63-9.81-13.48-18.72-.94-9.87 2.94-18.9 4.87-28.26.17-.82 1.12-1.7 1.94-2.13 6.7-3.53 13.49-6.89 20.19-10.44 5.01-2.65 9.96-5.43 14.84-8.32.77-.46 1.53-1.82 1.45-2.69-.59-7.34-1.42-14.54-2.27-22.47zm-5.41-129.33c0 1.58-.02 3.34 0 5.09.08 6.03 2.82 9.8 8.72 10.82 4.93.85 9.99 1.21 15 1.24 5.43.03 10.66-1.3 15.09-4.71.72-.55 1.53-1.46 1.63-2.28.39-3.19.51-6.41.76-10.17-13.8.01-27.27.01-41.2.01z"/><path d="m265.68 151.93c-2.36-10.34-10.4-11.73-18.67-12.79-3.44-.44-6.97-.54-10.28-1.44-2.11-.57-4.39-1.94-5.74-3.63-2.61-3.27-1.67-6.01 2.23-7.42 11.43-4.13 22.44-2.47 33.09 2.78.94.46 1.68 1.45 2.36 2.31 2.97 3.77 5.88 7.59 8.81 11.38 10.96-7.34 17.12-23.06 14.94-36.36-.69-4.21-2.63-6.61-6.39-7.33-5.21-1-10.52-1.67-15.81-2.07-7.9-.6-15.83-.75-23.74-1.31-1.83-.13-3.98-.7-5.29-1.86-1.41-1.24-2.35-3.31-2.85-5.19-.57-2.12 1.25-2.86 2.94-3.77 4.87-2.65 9.91-3.69 15.45-3.2 9.68.85 19.43 1.03 29.07 2.13 17.22 1.97 22.57 15.39 21.88 28.57-.5 9.66-3.2 18.94-7.87 27.52-.79 1.44-1.91 2.74-3.05 3.95-3.67 3.92-7.27 7.93-11.2 11.58-2.33 2.17-2.83 4.26-2.27 7.32 4.9 26.6 9.8 53.21 14.33 79.88 1.06 6.23.99 12.7 1 19.06.01 4.12-2.39 6.16-6.02 6.11-2.6-.03-4.2-.84-4.77-3.85-2.88-15.25-6.07-30.45-8.94-45.7-.44-2.35-1.44-3.44-3.54-3.43-8.36.02-16.73.08-25.09.29-4.8.12-9.62 1.04-14.37.75-8.65-.52-11.73-4.94-9.99-14.41 7.9-.25 16-.57 24.1-.75 6.49-.15 12.99.08 19.46-.26 5.28-.28 6.17-1.18 5.69-6.4-.63-6.88-1.9-13.71-2.97-20.55-.32-2.06-.89-4.08-1.42-6.49-9.12 4.46-17.93 8.77-26.74 13.08-3.41 1.67-6.7 3.67-10.26 4.95-3.19 1.15-6.65 1.9-10.03 2.07-1.34.07-3.38-1.64-4.02-3.03-.85-1.86-.57-3.95 1.82-5.39 13.69-8.26 27.29-16.68 40.92-25.05 1.05-.64 2.07-1.31 3.23-2.05z"/></g></svg>