<svg enable-background="new 0 0 400 400" viewBox="0 0 400 400" xmlns="http://www.w3.org/2000/svg"><path d="m361.2 9.6.8-1c.9.7 1.9 1.4 2.9 2.3l-.9 1.1c-1-1-2-1.8-2.8-2.4zm.5 10.6c.9-2.1 1.6-4.3 2.3-6.7.4.2.8.4 1.3.6-.7 2.1-1.5 4.3-2.2 6.6zm.4-15.2.9-.9c1 .8 2 1.6 2.8 2.4l-1 1c-.9-.9-1.8-1.7-2.7-2.5zm12.5-1.2h1.2v1.4h2.7v1.1h-2.7v2.7h-1.2v-.6h-1.8v1.3h4.9v3.8h-1.2v-.5h-3.7c0 .4-.1.9-.1 1.2h5.1v1h-5.2c0 .5-.1.9-.2 1.2h6v1h-5.2c1.1 1.3 2.9 2 5.5 2.2-.4.4-.7.8-.9 1.3-2.9-.5-4.8-1.6-5.7-3.5h-.1c-.8 1.7-2.7 2.9-5.9 3.6-.2-.4-.6-.8-.9-1.1 2.8-.6 4.6-1.4 5.4-2.5h-4.8v-1h5.3c.1-.3.2-.7.2-1.2h-4.9v-1h5c0-.4 0-.8.1-1.2h-3.5v.5h-1.2v-3.8h4.9v-1.3h-1.8v.5h-1.2v-2.7h-2.7v-1h2.6v-1.4h1.2v1.4h4.7v-1.4zm-6.6 8.3h3.6c0-.4 0-.9 0-1.4h-3.6zm1.9-4.6h4.7v-1.3h-4.7zm6.6 3.2h-3.7v1.4h3.7z" fill="#fbfcfa"/><path d="m385.3 3.8h1.3v2.2h2.8v-2.2h1.3v2.2h4.1v9.1h1.7v1.3h-16.9v-1.3h1.7v-9.1h4.1v-2.2zm.4 13.1.7 1.2c-1.8.9-3.8 1.9-6 2.9-.2-.4-.5-.8-.8-1.3 2.3-1 4.3-1.9 6.1-2.8zm-3.1-6.4h2.8v-3.2h-2.8zm0 4.6h2.8v-3.3h-2.8zm4-4.6h2.8v-3.2h-2.8zm0 4.6h2.8v-3.3h-2.8zm3.7 1.9c2.1.9 4.1 1.8 6.1 2.7l-.7 1.3c-2.2-1.1-4.2-2-6.1-2.9zm3.2-9.7h-2.8v3.2h2.8zm-2.8 7.8h2.8v-3.3h-2.8z" fill="#fbfcfa"/><g fill="#010102"><path d="m266.23 218.54c-5.38 1.77-10.5 3.34-15.53 5.15-3.51 1.27-4.86 3.41-3.44 6.79 1.78 4.24 3.78 8.78 6.89 12.01 9.11 9.45 18.09 18.94 24.86 30.28 7.85 13.16 6.6 26.71 1.75 40.41-.24.68-.86 1.31-1.44 1.79-8.19 6.72-17.23 11.17-28.16 10.71-8.05-.33-15.83.88-23.14 4.45-1.17.57-2.29 1.27-3.85 2.14 7.54 6.06 14.82 11.64 21.8 17.59 5.26 4.48 10.36 9.21 15.08 14.25 2.27 2.43 3.48 5.84 5.14 8.76-3.74 3.47-7.36 4.04-11.25 1.96-1.96-1.05-3.83-2.33-5.55-3.74-11.34-9.3-22.77-18.49-33.84-28.1-4.53-3.93-8.36-8.71-12.24-13.33-1.88-2.24-4.05-3.51-6.81-3.65-5.24-.25-10.49-.45-15.73-.39-9.5.11-18.6-.72-25.54-8.37-5.63-6.2-7.71-13.58-6.84-21.72 1.17-10.99 3.89-21.57 9.85-31.06.94-1.49 2.11-2.86 3.35-4.13 5.93-6.08 12.25-11.82 17.79-18.23 4.43-5.13 5.77-11.7 5.84-18.77-4.12-.52-8.08-1.02-12.04-1.51-4.52-.56-7.1-4.22-6.08-8.63.44-1.91 5.5-4.68 8.64-4.68 16.12-.01 32.24-.01 48.36 0 11.08 0 22.16-.1 33.24.04 6.16.09 9.2 3.7 8.89 9.98zm-25.5 94.56c6.51-.49 12.71-.1 18.41-1.61 7.88-2.1 9.76-4.02 10.02-11.62.08-2.46.42-4.92.37-7.37-.15-8.29-2.72-15.51-9.17-21.17-3.19-2.79-5.85-6.17-8.91-9.12-8.6-8.28-14.4-18.05-16.6-29.9-.49-2.62-1.55-5.13-2.17-7.74-.45-1.87-1.44-2.43-3.31-2.41-8.62.09-17.23.09-25.85 0-2.13-.02-2.83.64-3.03 2.82-.95 10.03-4.32 19.21-10.87 26.95-5.12 6.06-10.2 12.25-16.02 17.61-5.44 5-8.2 11.02-9.78 17.88-1.69 7.33-1.81 14.46 3.24 20.74.53.66 1.24 1.55 1.96 1.65 7.83 1.09 15.67 2.05 23.91 3.1-.31-1.68-.54-2.85-.74-4.02-1.76-10.57-3.69-21.12-5.19-31.74-.86-6.07-.09-12.11 3.06-17.54.8-1.39 2.66-3.51 3.48-3.28 2.18.61 4.36 2.01 5.93 3.67 1.11 1.17 1.47 3.25 1.74 4.98 1.02 6.41 1.74 12.86 2.79 19.26 1.23 7.49 2.25 15.05 4.19 22.36 1.3 4.9 4.04 9.43 6.37 14.64 4.37-5.82 8.26-10.74 11.8-15.89 1.25-1.82 2.16-4.2 2.3-6.38.51-8.03.53-16.1.93-24.14.33-6.62 1.95-12.92 5.26-18.8 6 1.63 8.91 5.89 9.33 11.28.49 6.3.2 12.72-.33 19.03-.73 8.67-1.99 17.3-3.12 26.76z"/><path d="m185.57 69.54c10.9-8.14 21.48-15.01 33.49-19.31 2.79-1 5.87-1.37 8.85-1.61.85-.07 2.36 1.15 2.66 2.07 1.78 5.45 1.68 5.47-3.17 8.78-10.91 7.44-21.81 14.88-32.71 22.33-.72.49-1.4 1.04-2.22 1.66.64 1.42 1.22 2.73 1.82 4.04 1.79 3.93 3.36 4.16 7.01 1.5 5.5-4.01 10.99-8.08 16.77-11.67 6.37-3.96 13.31-6.34 21.02-5.18 2.51 6.33 2.22 8.06-3.36 11.6-5.84 3.71-11.95 7-18.01 10.35-5.59 3.1-10.98 6.39-15.27 12.58 5.62.35 10.57.72 15.53.93 3.24.14 6.5-.1 9.74.09 5.28.31 8.26 2.84 8.82 7.07.25 1.9-.24 3.03-2.19 3.86-5.63 2.39-11.48 2.69-17.45 2.54-3.35-.08-6.71.02-10.06.08-2.96.05-4.84 1.2-4.66 4.55.06 1.21-.16 2.44-.28 3.89 3.19 1.13 6.35 2.14 9.43 3.34 11.22 4.39 13.58 8.82 10.48 20.44-.66 2.46-2.12 4.87-3.76 6.86-3.26 3.95-6.91 7.59-11.03 12.04 3.8.53 6.92.96 10.03 1.41 1.44.21 2.92.32 4.28.76 3.12 1 3.87 3.65 4.41 6.53.52 2.77-1.95 2.57-3.19 3.54-4.2 3.27-9.34 2.46-14.63 3.14 1.99 3.76 3.78 7.43 5.85 10.93 1.18 1.99 1.02 3.91-.48 5.13-1.05.85-3.05 1.05-4.5.79-4.12-.74-7.23-2.9-9.36-6.78-2.09-3.79-4.11-8.55-7.52-10.41-3.28-1.8-8.29-.46-12.54-.49-2.01-.01-4.01 0-6.39 0-1.1 4.42-2.25 8.71-3.22 13.05-.7 3.11-2.25 5.07-5.64 5.08-3.3.01-5.2-1.33-6.08-4.82-1.84-7.32-1.26-14.5.73-21.55 2.4-8.49 5.57-16.76 7.9-25.26 2.13-7.78 6.9-13.18 13.74-16.84 5.49-2.94 6.66-7.65 6.62-14.17-3.88 0-7.63.07-11.38-.02-5.69-.13-11.41-.09-17.07-.66-3.93-.39-6.8-2.74-7.66-6.92-.43-2.1-.05-3.93 2.23-4.52 4.07-1.05 8.16-2.4 12.31-2.66 6.98-.44 14.01-.12 21.59-.12-1.59-3.49-2.95-6.5-4.35-9.5-3.92-8.41-7.7-16.89-11.83-25.19-4.64-9.31-3.04-17.86 3.58-25.15 9.17-10.09 20.91-16.69 33.39-21.93 2.63-1.1 6.54.44 7.68 2.62 1.22 2.32.13 6.64-2.68 8.7-5.14 3.76-10.48 7.24-15.73 10.85-2.85 1.96-5.86 3.75-8.49 5.98-3.29 2.78-5.34 6.4-4.77 10.91.19 1.53 1.06 2.98 1.72 4.74zm-9.63 103.37c4.49 0 8.28.1 12.05-.08.86-.04 2.12-.88 2.44-1.67 3.25-7.99 8.87-14.07 15.38-19.44 1.71-1.41 3.04-3.3 1.73-5.12-.86-1.2-3.29-2.13-4.79-1.87-4.91.85-9.89 1.87-14.51 3.66-2.72 1.06-5.96 3.26-6.98 5.75-2.36 5.84-3.53 12.15-5.32 18.77z"/><path d="m271.97 171.57c-7.85 3.32-15.18 6.58-22.65 9.51-3.49 1.37-7.19 2.34-10.87 3.1-2.59.53-4.79-.72-5.21-3.51-.4-2.69-.77-5.5 2.62-7.11 8.18-3.87 16.31-7.85 24.36-12 2.52-1.3 4.68-3.28 7.43-5.25-6.52-4.68-13.26-6.64-20.36-7.69-2.65-.39-5.36-.64-7.89-1.45-1.83-.59-3.74-1.69-5-3.11-2.91-3.29-2.04-6.4 1.96-7.96 8.89-3.46 17.79-2.06 26.73-.08 5.26 1.16 9.32 3.71 12.45 8.24 1.76 2.54 4.54 4.38 6.96 6.63 6.4-5.94 10.36-12.04 8.83-20.57-.38-2.13-1.24-3.37-3.24-4.16-7.2-2.85-14.74-3.52-22.37-3.76-5.25-.17-10.53-.11-15.73-.73-5.8-.69-8.94-3.63-9.53-7.92-.33-2.36.11-3.9 2.95-4.54 7.92-1.79 8.11-1.92 8.21-9.86.19-15.32-.04-30.65.17-45.97.11-8.13 2.1-15.91 5.93-23.14 5.33 1.75 7.89 5.29 8.1 11.35.24 7.04.37 14.08.56 21.13.02.89.13 1.77.25 3.5 3.97 0 7.94.1 11.9-.03 4.91-.16 9.83-.78 14.73-.71 5.91.08 8.74 2.61 8.86 7.01.05 1.9-.4 3.32-2.5 3.63-6.26.93-12.51 2-18.81 2.67-4.85.51-9.76.49-14.93.72-.36 9.58-.71 18.59-1.06 27.96 8 1.19 15.78 2.76 23.63 3.41 11.65.96 18.06 10.75 17.56 19.95-.21 3.89-.44 7.81-1.06 11.66-1.07 6.63-4.82 11.56-10.14 15.57-2.91 2.19-6.82 4.54-7.69 7.56-.82 2.85 1.72 6.69 2.84 10.08 4.91 14.85 9.96 29.66 14.66 44.58.93 2.96.9 6.36.68 9.51-.19 2.61-1.98 4.73-4.87 4.63-2.77-.09-5.34-.73-6.46-4.12-4.61-13.89-9.28-27.77-14.27-41.53-2.12-5.85-5.08-11.38-7.73-17.2z"/><path d="m104.18 192.97c0 3.02.3 6.08-.1 9.05-.28 2.1-1.07 4.42-2.39 6.03-2.64 3.21-7.51 2.36-9.23-1.35-4.99-10.74-4.49-21.79-1.25-32.77 3.19-10.82 6.86-21.49 10.45-32.19.51-1.51 1.53-2.99 2.68-4.1 8.4-8.05 16.83-16.07 25.4-23.94 4.23-3.89 6.38-8.68 7.81-14.11 1.01-3.82 2.73-7.49 4.45-11.07.35-.74 2.21-1.3 3.19-1.09 4.71 1 7.42 4.71 6.74 9.68-1.12 8.12-3 16.04-8.14 22.78-2.94 3.86-3.51 7.74-1.09 12.43 3.64 7.05 3.27 14.78 1.79 22.34-1.42 7.23-3.47 14.32-5.01 21.53-2.12 9.93-.73 19.81.83 29.66.81 5.08 1.5 10.18 2.38 15.24.53 3.07-.23 5.31-3.33 6.38-2.7.93-5.94-.35-7.45-2.97-4.66-8.08-6.95-16.9-8-26.09-1.34-11.72-.26-23.1 3.64-34.36 2.22-6.39 3.2-13.21 4.57-19.88.3-1.48.33-3.32-.31-4.6-.72-1.44-2.16-2.94-3.62-3.42-1.02-.34-2.94.66-3.86 1.63-14.72 15.42-19.98 34.38-20.15 55.19z"/><path d="m145.6 62.09c-1.29 5.33-2.42 12.69-7.9 17.96-5.79 5.57-11.93 10.83-18.3 15.72-5.39 4.14-11.75 6.16-18.61 4.47-1.8-.44-4.1-1.91-4.68-3.47-.74-1.97.38-4.17 2.65-5.54 7.39-4.42 14.67-9.02 21.99-13.55 4.85-3 9.29-6.3 10.18-12.54.82-5.73-1.53-11.08-6.64-13.72-4.56-2.36-9.35-4.26-14.03-6.37-4.12-1.86-7.61-4.31-8.54-9.15-.59-3.1 1.37-5.41 4.56-5.24 10.88.58 20.84 3.94 29.67 10.31 6.52 4.71 9.68 11.26 9.65 21.12z"/></g></svg>