<svg enable-background="new 0 0 400 400" viewBox="0 0 400 400" xmlns="http://www.w3.org/2000/svg"><g fill="#fbfafa"><path d="m37.59 393.81c-.92.31-1.52.05-2-.78-.7-1.2-1.52-2.34-2.47-3.78v4.59c-.55.03-.95.05-1.41.07-.03-.37-.06-.64-.06-.91 0-1.91 0-3.81 0-5.7 1.13-.41 1.77-.03 2.29.91.62 1.11 1.38 2.14 2.31 3.19v-4.2h1.35v6.61z"/><path d="m12.94 393.88v-6.75c1.9.19 3.93-.54 5.37 1.29.8 1.01.78 2.88.03 3.97-1.37 1.97-3.4 1.51-5.4 1.49m1.45-1.22c2.04.12 2.92-.58 2.89-2.21-.03-1.51-.98-2.19-2.89-2z"/><path d="m11.81 393.87h-5.49c.68-2.18 2.47-3.48 3.51-5.45h-3.08v-1.21h5.29c-.71 2.13-2.44 3.48-3.47 5.51.86 0 1.63.04 2.39-.01.79-.05 1.14.21.85 1.16"/><path d="m39.33 393.86v-6.61h3.7v1.07h-2.22v1.52c.68.04 1.34.09 2.07.13v1.07c-.72.05-1.38.09-2.1.14v1.48h2.4v1.19h-3.85z"/><path d="m27.71 388.56c-1.15-.3-2.46-.61-3.1.64-.37.73-.41 1.93-.06 2.67.63 1.35 1.99.93 3.17.68.35.94-.01 1.32-.93 1.46-1.62.25-3.05-.27-3.76-1.48-.73-1.24-.6-3.03.31-4.17.88-1.11 2.71-1.7 4-1.16.32.13.44.74.65 1.12-.1.08-.19.16-.28.24"/><path d="m49.15 387.24v1.07c-.59.02-1.17.05-1.87.08v5.44h-1.48v-5.44h-1.85c-.05-.4-.08-.73-.13-1.15z"/><path d="m20.06 387.21h1.33v6.62h-1.33z"/><path d="m30.68 393.25c-.49.38-.8.79-1.05.76-.32-.05-.6-.45-.9-.7.26-.24.51-.64.8-.67.29-.04.62.3 1.15.61"/></g><path d="m187.23 236.84c0-30.11-.54-60.24.21-90.34.44-17.63 2.35-35.3 4.8-52.78 1.06-7.56 4.19-15.29 8.15-21.86 3.47-5.76 10.18-8.92 16.63-11.41 12.38-4.78 25.37-6.36 38.5-6.49 12.07-.12 24.14.21 36.2.66 13.04.49 20.64 7 24.44 19.54 3.16 10.4.8 20.36-1.54 30.37-.23.98-1.55 1.82-2.51 2.5-9.39 6.64-19.63 11.53-30.65 14.82-6.27 1.87-12.36 4.11-16.14 10.03-3.96 6.2-4.23 13.07-3.52 20.07.08.79 1.07 1.71 1.86 2.18 5.92 3.56 11.94 6.96 17.84 10.54 5.41 3.29 11.22 6.16 15.92 10.28 6.58 5.76 9.28 13.98 9.95 22.49.89 11.26 1.4 22.58 1.44 33.87.17 39.86.07 79.73.06 119.59 0 5.92-3.36 8.17-8.72 5.66-.99-.46-1.89-1.78-2.22-2.89-3-10.25-2.7-20.79-2.54-31.32.37-25.86 1.28-51.72.88-77.56-.25-15.95-2.37-31.88-3.91-47.8-.74-7.66-4.92-12.96-12.28-15.74-4.28-1.62-8.49-3.48-12.61-5.47-18.83-9.13-25.53-25.42-18.93-45.54 1.65-5.03 3.83-9.47 8.88-11.97 1.68-.83 3.24-2.02 4.66-3.27 8.74-7.67 19.16-11.27 30.49-12.55 4.87-.55 7.63-3.23 9.05-7.72 2.27-7.19.84-14.44.27-21.66-.06-.71-1.46-1.73-2.36-1.89-4.92-.89-9.89-2.25-14.82-2.17-16.31.25-32.64.69-48.9 1.82-5.77.4-11.47 2.79-17.05 4.72-2.04.7-4.04 2.38-5.37 4.14-5.62 7.45-8.18 16.05-8.67 25.31-2.55 48.2-2.52 96.44-2.95 144.68-.29 32.8-.36 65.61-.69 98.41-.03 3.03-1.05 6.11-1.97 9.05-.82 2.63-3.02 3.69-5.75 3.79-2.64.1-4.31-1.2-5.07-3.54-.82-2.52-1.88-5.14-1.9-7.72-.11-16 .08-32 .11-48.01.03-21.61.01-43.22.01-64.82z" fill="#010105"/><path d="m118.54 199.78c0-6.87-.03-13.34.01-19.81.08-13.32.11-26.65.39-39.97.06-2.84-.89-3.85-3.52-4.49-6.3-1.53-12.47-3.57-18.77-5.05-3.71-.87-6.68-2.66-8.89-5.56-11.18-14.73-14.39-30.93-8.65-48.68.49-1.52.94-3.24 3.32-3.03 2.27.2 4.44-.38 5.88 2.47 3.37 6.64 5.16 13.55 4.98 20.98-.05 2.24-.24 4.47-.36 6.71-.41 7.78 2.56 12.57 10.03 15.04 4.1 1.35 8.47 1.86 12.71 2.78 1.96.42 2.67-.29 3.06-2.32 2.23-11.53 2.37-23.13 1.54-34.78-.85-11.95-.53-23.7 4.78-34.83 1.64-3.45 3.66-6.16 7.25-7.89 10.46-5.06 20.73-10.48 31.19-15.55 4.75-2.3 10.37-.37 12.51 3.67.87 1.65.77 2.68-.77 3.95-4.99 4.12-10.65 6.83-16.68 9.09-4.77 1.79-9.35 4.18-13.79 6.7-4.13 2.35-6.98 6.06-7.86 10.8-1.29 6.91-2.84 13.86-3.17 20.84-.58 12.4-.33 24.84-.42 37.26 0 .65.09 1.3.16 2.24 5.27-.51 10.37-.88 15.42-1.6 1.08-.15 2.18-1.45 2.91-2.47 6.16-8.55 8.6-18.29 9.16-28.67.14-2.65.59-5.38 1.51-7.85.7-1.89 2.06-3.79 3.64-5.04 3.39-2.71 5.68-1.9 7.29 2.09 2.63 6.53 3.23 13.31 1.56 20.09-1.9 7.7-4.24 15.28-6.55 22.87-.35 1.14-1.42 2.25-2.44 2.95-4.98 3.42-9.8 7.22-15.18 9.85-3.88 1.9-8.55 2.2-12.88 3.19-1.41.32-2.84.53-4.4.82v62.19c5.17-.56 10.24-.98 15.27-1.74 1.09-.16 2.24-1.32 2.96-2.31 6.3-8.62 8.66-18.48 9.28-28.97.18-3.06 1.09-6.14 2.12-9.05.51-1.46 1.85-2.84 3.17-3.75 3.48-2.42 5.54-1.72 7.17 2.16 4.35 10.29 2.9 20.62.06 30.92-.74 2.68-1.87 5.26-2.77 7.9-3.77 11.02-12.36 15.51-23.09 17.19-3.53.55-7.03 1.32-10.54 1.97-2.31.42-3.18 1.56-3.19 4.11-.13 48.26-.35 96.51-.67 144.77-.02 3.07-.52 6.32-1.69 9.12-.72 1.71-2.94 3.23-4.83 3.92-2.53.93-4.93.11-5.48-3.09-1.06-6.25-2.92-12.5-2.93-18.76-.06-39.63.31-79.27.52-118.9.03-4.93-.17-9.86.07-14.78.14-2.82-1.09-4.22-3.51-4.82-4.23-1.05-8.46-2.14-12.74-2.91-10.61-1.9-17.4-8.43-21.34-17.97-5.12-12.4-7.07-25.18-2.51-38.27.6-1.73.71-4.01 3.67-3.96 2.73.04 4.64.31 6.14 3.22 4.62 8.96 5.15 18.39 4.28 28.12-.51 5.75 1.89 9.95 6.91 12.71 5.54 3.06 11.6 3.82 18.7 4.18z" fill="#010105"/></svg>