<svg enable-background="new 0 0 400 400" viewBox="0 0 400 400" xmlns="http://www.w3.org/2000/svg"><path d="m362.1 8.8c1.1.8 2.1 1.6 3.1 2.4l-1 1.1c-1.3-1.1-2.3-2-3-2.5zm1.9 4.8c.5.2.9.4 1.4.5-.6 2.3-1.3 4.5-1.9 6.8l-1.5-.5c.8-2.1 1.4-4.3 2-6.8zm-1-9.4c1.3.9 2.4 1.8 3.4 2.5l-1 1.1c-1.4-1.2-2.4-2.1-3.2-2.6zm3.7 2.2v-1.4h10.3v1.2c-.5 3.6-1.8 6.8-4 9.4 1.5 1.6 3.4 2.8 5.7 3.8-.3.4-.7.8-1.1 1.4-2.3-1.1-4.1-2.5-5.6-4.1-1.6 1.6-3.6 3.1-5.9 4.3-.3-.5-.7-.9-1-1.3 2.4-1.1 4.4-2.5 6-4.1-1.9-2.5-3-5.6-3.3-9.3h-1.1zm8.8 0h-6.4c.3 3.3 1.3 6 3 8.2 2-2.3 3.1-5.1 3.4-8.2z" fill="#fbfcfa"/><path d="m385.3 3.8h1.3v2.2h2.8v-2.2h1.3v2.2h4.1v9.1h1.7v1.3h-16.9v-1.3h1.7v-9.1h4.1v-2.2zm.4 13.1.7 1.2c-1.8.9-3.8 1.9-6 2.9-.2-.4-.5-.8-.8-1.3 2.3-1 4.3-1.9 6.1-2.8zm-3.1-6.4h2.8v-3.2h-2.8zm0 4.6h2.8v-3.3h-2.8zm4-4.6h2.8v-3.2h-2.8zm0 4.6h2.8v-3.3h-2.8zm3.7 1.9c2.1.9 4.1 1.8 6.1 2.7l-.7 1.3c-2.2-1.1-4.2-2-6.1-2.9zm3.2-9.7h-2.8v3.2h2.8zm-2.8 7.8h2.8v-3.3h-2.8z" fill="#fbfcfa"/><g fill="#010106"><path d="m96.97 221.2c6.49-5.28 12.9-10.68 19.51-15.82 9.04-7.04 16.01-15.55 19.85-26.45.18-.51.35-1.02.65-1.91-17.6-3.98-34.99-7.91-52.38-11.84-.01-.18-.02-.35-.03-.53 6.66-.89 13.31-1.79 19.97-2.66 4.21-.55 8.49-.8 12.64-1.67 6.81-1.43 13.37.31 19.98 1.16 19.63 2.53 39.24 5.29 58.85 7.98.54.07 1.06.25 1.63 1-4.18.53-8.35 1.11-12.53 1.56-6.45.71-12.91 1.31-19.35 2.02-1.43.16-2.87.48-4.25.92-3.53 1.14-6.86 2.76-7.24 6.97-.39 4.28.6 8.17 4.54 10.82 9.25 6.22 17.63 13.42 24.4 22.34 10.73 14.14 12.98 30.03 9.8 47.1-1.93 10.36-5.48 19.86-12.13 28.3-6.5 8.25-11.89 17.37-18.39 25.61-12.01 15.21-27.55 26.05-44.83 34.52-3.59 1.76-7.29 3.3-10.93 4.94-.33-.38-.67-.76-1-1.15.97-.58 2.11-.99 2.87-1.77 16.5-16.72 33.51-32.99 49.26-50.39 13.82-15.28 21.48-34.11 26.16-54.11.07-.31.01-.65.01-1.17-.99-.53-2.05-1.13-3.13-1.67-1.09-.54-2.2-1.04-3.56-1.67-18.97 27.46-43.95 47.01-75.54 57.86 5.1-3.68 10.49-7.02 15.26-11.09 12.17-10.39 24.29-20.86 36-31.77 9.16-8.54 15.61-18.94 18.15-31.46 1.26-6.2 1.34-6.19-4.36-9.03-1.6-.8-3.2-1.6-5.11-2.56-15.13 20.13-33.62 36.25-57.11 46.81-.07-3.15 1.13-5.02 3.42-6.65 15.67-11.17 29.1-24.46 38.58-41.4 1.36-2.43 2.65-4.94 3.61-7.55.33-.91-.09-2.57-.79-3.29-2.56-2.67-5.7-3.95-9.43-2.63-3.88 1.38-7.92 2.47-11.55 4.34-9.43 4.87-18.68 10.11-28.01 15.2-.95.52-1.94.98-2.91 1.47-.2-.21-.39-.45-.58-.68z"/><path d="m310.59 374.79c-3.28-2.1-6.87-3.85-9.78-6.39-6.23-5.44-12.06-11.33-18.13-16.96-6.92-6.41-11.6-14.02-13.61-23.35-3.97-18.47-8.48-36.84-12.05-55.38-1.09-5.66-.08-11.78.36-17.65.57-7.53-.61-9.86-7.85-12.45-3.25-1.16-6.63-2.19-10.04-2.6-17.11-2.1-27.05-12.03-31.52-28.18-.6-2.15-1.28-4.28-1.91-6.42-.06-.19.04-.43.12-1.23 13.81 13.96 28.03 26.64 49.78 24.92-1.02-5.32-2.02-10.54-3.04-15.76-.54-2.74-1.45-5.45-1.65-8.21-.55-7.69-4.12-13.51-9.67-18.73-6.11-5.74-11.6-12.13-17.35-18.25-.74-.78-1.42-1.61-1.69-3.09 1.81.95 3.85 1.63 5.4 2.9 12.32 10.04 24.58 20.17 36.78 30.35 1.22 1.02 2.24 2.5 2.89 3.97 2.64 6.02 5.1 12.13 7.61 18.17 13.89-4.11 16.51-12.31 15.24-25.93-.68-7.29-3.22-13.64-8.65-19.03-6.01-5.97-11.28-12.68-16.57-19.5.73.35 1.55.59 2.18 1.07 7.92 6.01 16.1 11.71 23.64 18.17 9.68 8.3 12.05 19.48 10.7 31.71-.18 1.67-.49 3.33-.6 5-.59 9.44-4.11 17.14-12.48 22.29-2.54 1.57-4.43 4.21-6.98 5.76-8.81 5.34-11.07 14.04-12.55 23.25-2.59 16.13-.05 31.58 5.84 46.67 6.4 16.38 13.47 32.43 22.84 47.35 2.18 3.48 4.94 6.6 7.53 9.81 1.87 2.32 3.9 4.52 5.86 6.77-.2.3-.42.63-.65.95z"/><path d="m149 54.8c10.66.61 21.15 1.95 30.9 6.73 12.28 6.03 17.97 16.23 18.71 29.55.54 9.71-1.05 19.17-3.39 28.54-.11.43-.16.94-.42 1.26-7.89 9.37-14.89 19.79-28.11 22.62-6.79 1.45-13.4.41-19.9-1.23-6.05-1.53-12.02-3.51-17.84-5.74-2.59-.99-5.15-2.73-7.03-4.76-15.79-17.06-18.89-38.45-8.62-58.91.79-1.58 2.23-3.07 3.74-4.01 6.82-4.27 13.61-8.65 20.76-12.32 3.26-1.67 7.31-1.8 11-2.63.06.3.13.6.2.9zm1.01 75.53c9 .08 17.64-1.27 25.31-6.34 1.2-.8 2.49-2.09 2.87-3.4 1.75-5.98 3.84-11.97 4.59-18.11 1.17-9.51-.63-18.67-7.72-25.76-6.59-6.59-15.26-8.41-24.17-9.53-3.57-.45-6.43.37-9.32 2.49-4.78 3.5-9.84 6.61-14.75 9.93-.8.54-1.81 1.2-2.1 2.02-3.49 9.88-6.17 20.03-.19 29.73 3.83 6.22 8.85 11.71 13.42 17.45.47.59 1.52.92 2.33.99 3.25.26 6.5.37 9.73.53z"/><path d="m232 27.13c2.54 15.21 5.19 30.4 7.54 45.65.51 3.32 1.71 5.43 4.82 6.78 17.43 7.56 27.23 22.36 35.38 38.38 4.84 9.51 8.62 19.57 12.87 29.38-.46.27-.93.54-1.39.81-6.56-8.73-13.46-17.23-19.58-26.26-7.23-10.67-16.81-17.76-29.51-21.68-3.9 18.9-7.79 37.75-11.68 56.6-.22-.01-.44-.01-.66-.02-.23-3.67-.49-7.34-.69-11.02-1.43-25.7-3.25-51.38-4.04-77.1-.26-8.46 2.11-17.01 3.4-25.51.82-5.36 1.86-10.69 2.8-16.04.25.01.49.02.74.03z"/><path d="m164.69 102.6c-.71 6-.71 6.01-6.48 7.23-3.06.64-6.22.97-9.17 1.93-2.74.89-4.09-.27-5.46-2.28-2.83-4.15-3.41-8.42-1.04-12.94.93-1.78 1.79-3.65 3.01-5.21 1.44-1.84 3.2-4.76 4.91-4.82 4.24-.15 8.7 1.23 10.8 5.43 1.65 3.29 2.32 7.09 3.43 10.66z"/></g></svg>