<svg enable-background="new 0 0 400 400" viewBox="0 0 400 400" xmlns="http://www.w3.org/2000/svg"><path d="m362.1 8.8c1.1.8 2.1 1.6 3.1 2.4l-1 1.1c-1.3-1.1-2.3-2-3-2.5zm1.9 4.8c.5.2.9.4 1.4.5-.6 2.3-1.3 4.5-1.9 6.8l-1.5-.5c.8-2.1 1.4-4.3 2-6.8zm-1-9.4c1.3.9 2.4 1.8 3.4 2.5l-1 1.1c-1.4-1.2-2.4-2.1-3.2-2.6zm3.7 2.2v-1.4h10.3v1.2c-.5 3.6-1.8 6.8-4 9.4 1.5 1.6 3.4 2.8 5.7 3.8-.3.4-.7.8-1.1 1.4-2.3-1.1-4.1-2.5-5.6-4.1-1.6 1.6-3.6 3.1-5.9 4.3-.3-.5-.7-.9-1-1.3 2.4-1.1 4.4-2.5 6-4.1-1.9-2.5-3-5.6-3.3-9.3h-1.1zm8.8 0h-6.4c.3 3.3 1.3 6 3 8.2 2-2.3 3.1-5.1 3.4-8.2z" fill="#fbfcfa"/><path d="m385.3 3.8h1.3v2.2h2.8v-2.2h1.3v2.2h4.1v9.1h1.7v1.3h-16.9v-1.3h1.7v-9.1h4.1v-2.2zm.4 13.1.7 1.2c-1.8.9-3.8 1.9-6 2.9-.2-.4-.5-.8-.8-1.3 2.3-1 4.3-1.9 6.1-2.8zm-3.1-6.4h2.8v-3.2h-2.8zm0 4.6h2.8v-3.3h-2.8zm4-4.6h2.8v-3.2h-2.8zm0 4.6h2.8v-3.3h-2.8zm3.7 1.9c2.1.9 4.1 1.8 6.1 2.7l-.7 1.3c-2.2-1.1-4.2-2-6.1-2.9zm3.2-9.7h-2.8v3.2h2.8zm-2.8 7.8h2.8v-3.3h-2.8z" fill="#fbfcfa"/><g fill="#010106"><path d="m327.18 374.29c-5.29-2.92-9.71-5.49-14.24-7.85-13.95-7.29-28.49-13.05-44.18-15.14-6.29-.84-12.74-1.29-19.06-.9-22.96 1.42-45.84.5-68.71-1.55-7.05-.63-13.87-1.77-20.44-4.72-8.15-3.66-16.58-6.69-24.8-10.19-1.59-.68-3.24-2.03-4.1-3.51-7.12-12.27-8.98-25.64-7.5-39.53 1.49-14.03 5.28-27.42 11.95-39.92.45-.84.98-1.63 2.07-2.31-.35 8.66-.67 17.31-1.06 25.97-.51 11.19-1.3 22.4 2.4 33.27 2.6 7.62 4.95 15.35 13.1 19.36 5.71 2.81 11.78 3.35 17.91 3.74 2.53.16 5.09.03 7.9.03.69-8.81 1.37-17.27 2.01-25.72 1.96-25.89 3.92-51.79 5.86-77.68.37-4.91.78-9.82.94-14.74.04-1.14-.5-2.89-1.34-3.37-8.09-4.68-10.28-12.06-11.32-20.86-2.56-21.76-7.36-43.26-6.83-65.35.52-21.84 1.26-43.65 6.73-64.96 1.34-5.23 3.2-10.33 4.83-15.5l.9.18c.28 7.76.58 15.51.83 23.27.97 30.32 1.92 60.65 2.89 90.97.15 4.69 4.67 8.2 9.19 7.53 3.64-.54 6.26-2.24 8.66-5.04 14.68-17.11 22.68-36.92 25.17-59.26 2.43-21.73 3.2-43.5 2.51-66.22 4.7 5.4 7.07 11.04 8.8 17.01 3.04 10.49 2.3 21.29 2.68 32.01.35 9.83.15 19.82 1.88 29.44 3.24 18.06 12.69 33.14 25.91 45.66 6.63 6.28 14.08 11.7 21.17 17.51.5.41 1.02.79 1.32 1.69-5.45-1.47-10.82-3.42-16.36-4.31-11.6-1.87-20.75-7.23-27.79-16.69-3.6-4.84-8.83-7.55-15.02-7.77-1.2-.04-2.82.34-3.57 1.16-7.42 8.09-16.66 13.4-26.5 17.91-4.99 2.29-8.82 5.76-9.58 11.61-.54 4.2.17 7.61 4.12 10.43 14.7 10.5 31.07 15.65 48.98 15.86 20.22.23 39.88 3.04 58.49 11.4 2.39 1.07 4.74 2.24 6.88 4.1-5.5-.56-10.99-1.08-16.48-1.67-15.24-1.65-30.45-3.6-45.72-4.84-5.61-.45-11.36.73-17.04 1.23-6.13.54-12.24 1.32-18.38 1.65-2.59.14-5.31-.32-7.84-1.01-4.06-1.12-8.01-2.67-12.77-4.3-.51 3.01-1.5 5.72-1.31 8.34.78 11.26 1.87 22.5 2.91 33.74.24 2.56.72 5.09 1.09 7.64 1.21 8.31 6.97 14.15 15.38 14.75 5.67.4 11.4-.01 17.1-.27 1.02-.05 2.23-.89 2.95-1.72 5.58-6.41 8.03-14.07 8.81-22.4.65-6.91 1.44-13.8 2.18-20.7.06-.53.26-1.04.54-2.07 4.06 5.71 6.38 11.67 8.26 17.82 3.41 11.12 4.23 22.16-.99 33.04-1.08 2.26-2.4 3.55-5.14 4.02-14.43 2.47-28.81 5.26-43.22 7.88-1.71.31-2.84.7-2.93 2.81-.47 11.18-1.06 22.36-1.64 34.03 4.95.26 9.8.74 14.66.72 30.54-.09 59.23 7.92 86.88 20.11 12.03 5.29 22.28 14.22 29.02 24.18z"/><path d="m73.7 126.92c1.2-.66 1.64-1.01 2.13-1.16 11.61-3.67 20.32-11.41 28.24-20.21 4.71-5.23 9.26-10.61 13.83-15.97 9.09-10.68 11.52-23.03 8.47-36.45-1.83-8.04-4.33-15.93-6.54-23.88-.32-1.14-.74-2.26-1.37-4.15 10.74 7.22 19.01 15.46 22.22 27.54 2.98 11.2 3.77 22.69 3.14 34.27-.05.92-.43 2.02-1.05 2.67-11.37 11.79-23.43 22.77-38.12 30.37-8.89 4.59-20.69 7.14-30.95 6.97z"/><path d="m72.4 193.63c7.19-3.56 14.41-7.07 21.57-10.7 1.67-.85 3.31-1.9 4.67-3.17 9.04-8.51 17.95-17.15 26.99-25.67 11.6-10.93 14.74-24.31 11.71-39.54-.17-.87-.37-1.75-.51-2.63-.03-.2.09-.42.14-.63 8.56 2.26 14.53 9.59 14.72 18.41.2 9.13-1 18.16-4.19 26.68-1.08 2.89-3.99 5.26-6.43 7.46-15.24 13.74-32.14 24.58-52.62 28.68-5.22 1.04-10.58 1.39-15.87 2.06-.06-.31-.12-.63-.18-.95z"/><path d="m143.63 175.4c7.31 6.75 11.63 14.65 11 24.51-.56 8.89-2.99 17.38-6.63 25.5-.43.96-1.14 1.96-2 2.53-17.52 11.62-35.92 21.42-56.7 25.76-7.22 1.51-14.66 1.97-22 2.9-.07-.36-.15-.73-.22-1.09 5.95-2.71 11.77-5.76 17.87-8.06 14.42-5.44 27.09-13.54 38.41-23.92 2.47-2.26 5.06-4.45 7.86-6.27 6.09-3.97 9.12-9.82 10.22-16.63 1.08-6.71 1.52-13.53 2.17-20.31.16-1.63.02-3.28.02-4.92z"/></g></svg>