<svg enable-background="new 0 0 400 400" viewBox="0 0 400 400" xmlns="http://www.w3.org/2000/svg"><path d="m361.2 9.6.8-1c.9.7 1.9 1.4 2.9 2.3l-.9 1.1c-1-1-2-1.8-2.8-2.4zm.5 10.6c.9-2.1 1.6-4.3 2.3-6.7.4.2.8.4 1.3.6-.7 2.1-1.5 4.3-2.2 6.6zm.4-15.2.9-.9c1 .8 2 1.6 2.8 2.4l-1 1c-.9-.9-1.8-1.7-2.7-2.5zm12.5-1.2h1.2v1.4h2.7v1.1h-2.7v2.7h-1.2v-.6h-1.8v1.3h4.9v3.8h-1.2v-.5h-3.7c0 .4-.1.9-.1 1.2h5.1v1h-5.2c0 .5-.1.9-.2 1.2h6v1h-5.2c1.1 1.3 2.9 2 5.5 2.2-.4.4-.7.8-.9 1.3-2.9-.5-4.8-1.6-5.7-3.5h-.1c-.8 1.7-2.7 2.9-5.9 3.6-.2-.4-.6-.8-.9-1.1 2.8-.6 4.6-1.4 5.4-2.5h-4.8v-1h5.3c.1-.3.2-.7.2-1.2h-4.9v-1h5c0-.4 0-.8.1-1.2h-3.5v.5h-1.2v-3.8h4.9v-1.3h-1.8v.5h-1.2v-2.7h-2.7v-1h2.6v-1.4h1.2v1.4h4.7v-1.4zm-6.6 8.3h3.6c0-.4 0-.9 0-1.4h-3.6zm1.9-4.6h4.7v-1.3h-4.7zm6.6 3.2h-3.7v1.4h3.7z" fill="#fbfcfa"/><path d="m385.3 3.8h1.3v2.2h2.8v-2.2h1.3v2.2h4.1v9.1h1.7v1.3h-16.9v-1.3h1.7v-9.1h4.1v-2.2zm.4 13.1.7 1.2c-1.8.9-3.8 1.9-6 2.9-.2-.4-.5-.8-.8-1.3 2.3-1 4.3-1.9 6.1-2.8zm-3.1-6.4h2.8v-3.2h-2.8zm0 4.6h2.8v-3.3h-2.8zm4-4.6h2.8v-3.2h-2.8zm0 4.6h2.8v-3.3h-2.8zm3.7 1.9c2.1.9 4.1 1.8 6.1 2.7l-.7 1.3c-2.2-1.1-4.2-2-6.1-2.9zm3.2-9.7h-2.8v3.2h2.8zm-2.8 7.8h2.8v-3.3h-2.8z" fill="#fbfcfa"/><g fill="#010102"><path d="m220.61 284.96c-4.01 3.09-7.53 5.99-11.25 8.63-20.42 14.5-36.97 33.09-54.03 51.13-3.6 3.8-6.49 8.27-9.78 12.36-2.3 2.86-5.08 5-8.89 5.51-4.63.62-7.26-2.06-5.73-6.52 1.11-3.21 2.67-6.53 4.88-9.05 13.56-15.5 27.31-30.83 41.15-46.08 2.37-2.61 5.43-4.63 8.29-6.77 9.77-7.29 19.56-14.57 29.44-21.72 1.95-1.41 2.85-2.85 2.49-5.26-1.16-7.78-.29-15.29 2.74-22.64 1.95-4.74 3.53-9.68 4.76-14.65 1.17-4.74 3.76-8.27 7.54-11.06 5.49-4.04 11.07-7.96 16.59-11.96 6.48-4.7 7.96-10.81 4.34-17.93-.4-.78-.89-1.58-1.53-2.16-9.9-9.07-22.12-14.06-34.23-19.74-1.77 4.2-3.29 8.14-5.06 11.96-7.97 17.21-20.14 31.37-33 44.98-4.76 5.04-9.77 9.84-14.8 14.61-3.36 3.19-7.36 5.06-12.17 4.6-3.15-.31-4.78-2.28-4.48-5.42.29-2.97 1.34-5.4 3.64-7.6 14.66-14.01 28.98-28.41 39.51-45.93 5.86-9.76 11.31-19.82 16.15-30.11 2.31-4.92 2.78-10.71 4.33-17.09-7.98.64-15.28 1.24-22.59 1.79-2.89.22-5.8.63-8.67.43-6.29-.43-9.21-3.33-10.46-9.97 5.94-3.28 12.4-4.67 19.17-4.9 6.36-.21 12.75-.1 19.07-.71 5.52-.54 5.4-.91 6.24-6.16 3.22-20.11 3.46-40.3 2.16-60.58-.61-9.52-.07-19.01 2.94-28.2 1.19-3.63 1.76-3.85 5.27-2.47 4 1.58 5.4 4.73 5.5 8.75.38 15.09.74 30.18 1.15 45.27.32 11.77-.2 23.48-2.36 35.09-.2 1.09-.21 2.22-.34 3.81 15.91.79 31.51-1.5 47.41-2.22 1.07-7.93 2.11-15.67 3.18-23.41 1.07-7.75 2.02-15.53 3.35-23.24.46-2.69 1.67-5.33 2.97-7.77 1.38-2.59 3.88-3.47 6.85-3.21 2.94.26 4.13 2.33 4.43 4.67.34 2.68.49 5.59-.2 8.16-4.6 17.29-7.87 34.79-5.81 52.67.72 6.23 3.6 12.41 6.44 18.14 3.87 7.79 8.94 14.98 12.93 22.72 2.63 5.11 4.61 10.63 6.19 16.16 1.18 4.12-2.95 7.33-7 5.68-2.09-.85-4.18-2.19-5.71-3.83-7.98-8.55-12.27-19.38-17.99-29.36-4-6.98-5.08-14.67-6.78-22.57-1.1 0-2.07-.06-3.04.01-15.17 1.06-30.34 2.19-45.52 3.14-2.09.13-2.89.92-3.4 2.76-1.1 3.98-2.21 7.98-3.61 11.86-.77 2.14-.21 3.12 1.63 4.26 10.09 6.21 20.25 12.34 30.07 18.95 7.23 4.87 11.97 12 15.16 20.04.58 1.47-.19 3.45-.26 5.2-.24 5.64-3.09 9.59-7.35 13.19-6.66 5.62-12.83 11.83-19.25 17.75-9.58 8.83-12.47 20.26-13.09 33.1 8.67-3.28 17.01-6.42 25.35-9.59 10.13-3.85 20.17-7.96 30.42-11.45 4.57-1.56 9.54-2.27 14.38-2.65 4.1-.32 6.9 4.86 4.92 8.52-.36.67-1.34 1.09-2.13 1.41-17.65 7.31-35.34 14.54-52.96 21.91-4.21 1.76-8.33 3.8-12.29 6.05-2.68 1.53-3.62 3.68-1.9 7 3.39 6.54 6.45 13.27 9.31 20.06 5.09 12.06 13.39 21.93 21.79 31.6 7.84 9.03 16.56 17.29 24.78 26 2.05 2.17 4.07 4.56 5.34 7.22 2.03 4.25-.13 7.44-4.85 7.34-2-.05-4.5-.62-5.87-1.92-11.93-11.32-23.91-22.6-35.35-34.4-9.62-9.92-15.33-22.46-21.13-34.83-2.92-6.25-6.02-12.43-9.39-19.36z"/><path d="m113.15 199.46c0-8.64-.06-17.34.02-26.03.1-10.74.25-21.49.55-32.22.06-2-.55-2.84-2.39-3.19-1.86-.36-3.68-1.05-5.55-1.29-14.57-1.85-21.54-11.76-25.26-24.51-3.13-10.75-3.03-21.67 1.08-32.29.43-1.12 1.58-2.55 2.59-2.72 2.06-.36 4.24-.65 5.76 1.97 3.94 6.75 4.31 13.92 3.66 21.43-.28 3.17-.23 6.57.62 9.6 1.77 6.32 5.18 11.38 12.53 12.28 1.86.23 3.67.87 5.85 1.41.46-8.87 1.07-17.45 1.31-26.04.22-7.82 1.76-15.29 4.6-22.55 3.59-9.17 9.3-16.64 18.07-21.27 12.42-6.56 25.12-12.33 39.77-10.93 5.2.5 6.8 2.19 7.1 8.07-7.19 2.43-14.47 4.9-21.76 7.35-3.92 1.32-7.82 2.68-11.77 3.92-12.47 3.91-18.86 13.13-20.34 25.37-1.28 10.62-.91 21.44-1.4 32.16-.13 2.94 1.37 3.61 3.84 3.67 5.15.11 10.25-3.05 11.31-8.09 1.71-8.19 2.72-16.52 4.15-24.76.47-2.73 1.04-5.52 2.13-8.04.75-1.74 2.23-3.4 3.79-4.51 2.79-1.97 4.5-1.38 6.17 1.64 3.66 6.62 3.81 13.67 2.49 20.88-.54 2.97-1.2 5.92-1.87 8.86-3.21 14.1-3.8 15.31-15.56 23.54-2.8 1.96-6.61 2.52-10 3.58-6.25 1.96-6.3 1.91-6.42 8.42-.31 16.78-.58 33.57-.87 50.35-.02 1.11 0 2.22 0 3.25 6.52 2.5 14.55-.85 15.98-7.23 1.83-8.15 2.71-16.52 4.18-24.76.53-2.94 1.35-5.88 2.53-8.61.66-1.52 2.15-2.89 3.59-3.8 2.9-1.82 4.22-1.32 5.87 1.69 3.66 6.72 3.98 13.96 2.71 21.23-1.03 5.92-2.27 11.89-4.27 17.53-3.75 10.62-15.91 18.75-27.25 18.94-.66.01-1.33.09-2.32.16-.8 6.42-1.53 12.84-2.4 19.24-5.05 37.34-10.13 74.68-15.21 112.02-.32 2.33-.22 4.84-1.12 6.92-1.09 2.53-2.61 5.25-4.72 6.86-2.88 2.2-6.42.59-7.7-2.82-1.89-5.01-1.71-10.15-.46-15.2 5.87-23.66 7.2-47.96 10.4-72 2.05-15.41 3.77-30.86 5.54-46.31.8-6.94-.94-9.13-7.75-10.28-10.84-1.84-18.31-7.96-22.34-18.08-4.9-12.3-6.47-24.85-1.57-37.59.58-1.51.72-3.49 3.35-3.46 2.62.03 4.57.29 6.03 2.95 3.59 6.53 3.63 13.4 3.19 20.55-.23 3.81.18 7.85 1.25 11.51 2.52 8.49 9.41 10.9 18.29 11.23z"/></g></svg>