<svg enable-background="new 0 0 400 400" viewBox="0 0 400 400" xmlns="http://www.w3.org/2000/svg"><g fill="#010103"><path d="m234.73 242.24c-1.98 5.12-3.65 9.68-5.48 14.17-7.03 17.2-16.65 32.93-27.73 47.75-12.4 16.57-25.11 32.92-37.76 49.3-4.7 6.08-10.1 7.61-15.96 4.64 2.43-6.66 3.82-13.39 9.07-19.23 21.99-24.45 41.25-50.91 56.19-80.37 6.4-12.62 8.75-26.18 10.48-40 5.32-42.59 4.02-85.39 4.3-128.14 0-.66-.11-1.32-.24-2.68-12.91 6.79-25.49 13.4-38.48 20.23.84.38 1.27.74 1.7.75 5.26.09 7.97 3.52 10.62 7.48 6.56 9.83 7.34 20.44 5.85 31.84-1.29 9.84-2.4 19.94-1.55 29.74.53 6.04 4.4 12.03 7.65 17.53 3.44 5.81 7.22 11.32 7.88 18.27.06.65.07 1.31.12 2.36-3.23 0-6.34.14-9.42-.09-.85-.07-1.8-1.15-2.38-1.99-5.98-8.64-11.9-17.33-18.08-26.37-4.44 6.82-6.7 14-5.83 21.71 1.33 11.73 5.04 22.62 13.18 31.63 3.72 4.12 6.86 8.71 6.88 14.53.01 2.02-.55 4.58-1.85 5.93-2.06 2.13-4.97.91-6.61-.88-4.81-5.24-9.92-10.39-13.75-16.33-11.09-17.2-14.3-35.97-8.98-55.9.6-2.25 2.03-4.43 3.54-6.25 6.79-8.22 12.07-17.2 14.47-27.68 1.86-8.09 1-16.05-1.76-23.76-2.45-6.85-4.54-13.61-.95-21.67-5 2.01-9.06 3.64-13.13 5.28-2.9 1.17-5.75 2.52-8.73 3.43-2.23.68-4.78 1.14-6.17-1.65-1.33-2.67-.22-7.36 2.02-8.71 12.46-7.49 24.88-15.07 37.45-22.37 6.76-3.92 13.64-7.72 20.77-10.89 4.91-2.18 6.54-5.82 6.7-10.5.12-3.33-.37-6.69-.65-10.03-.58-6.84 1.72-12.69 6.01-18.13 4.74 2.42 7.63 6.06 8.16 11.21.28 2.75-.12 5.57-.26 8.36-.16 3.24-.58 6.47-.52 9.7.08 4.63 1.85 7.96 6.46 10.3 16.75 8.5 33.28 17.42 49.84 26.29 2.35 1.26 4.48 2.97 6.53 4.69 1.16.98 2.19 2.29 2.86 3.66 2.19 4.5.97 6.9-3.88 6.45-4.82-.45-9.97-1.22-14.2-3.38-13.82-7.06-27.28-14.82-40.88-22.33-1.25-.69-2.45-1.45-4.06-2.41-.18 1.26-.37 2.09-.4 2.92-1.35 34.13-2.36 68.26-.74 102.4.88 18.59 2.33 37.09 8.66 54.81.63 1.78 1.45 3.51 2.37 5.16 2.84 5.08 5.98 9.99 8.62 15.17 12.92 25.37 31.81 46.45 49.2 68.6 4 5.09 8.66 9.73 10 16.43.95 4.71-2.53 8.18-7.11 6.67-2.13-.7-4.37-1.92-5.89-3.54-24.17-25.88-45.21-54.11-62.39-85.07-4.41-7.94-6.85-16.97-10.21-25.5-.42-.99-.88-1.98-1.55-3.54z"/><path d="m81.81 70.09c4.75 7.21 6.67 14.91 6.81 23.11.05 3.02-.19 6.05-.11 9.06.13 5.54 2.41 9.95 7.32 12.74 4.37 2.48 9.12 3.46 14.33 3.47 2.14-9.94 2.61-19.83 2.1-29.8-.54-10.71-1.83-21.44 1.5-31.98 2.22-7.02 5.65-12.57 12.57-16.43 10.01-5.58 20.33-10.26 31.01-14.26 5.06-1.9 9.46 1.43 8.82 6.79-.12 1.03-1.29 2.23-2.3 2.81-9.59 5.53-19.2 11.02-28.91 16.33-2.65 1.45-4.43 3.26-5.03 6.21-1.17 5.68-3.02 11.31-3.38 17.04-.88 14.05-1.08 28.13-1.57 42.77 4.51-.61 8.34-1.04 12.12-1.73.77-.14 1.46-1.24 2-2.03 5.78-8.48 6.92-18.23 7.81-28.1.29-3.19 1.04-6.41 2.15-9.41.7-1.88 2.25-3.59 3.78-4.99 2.04-1.87 4.38-2.1 5.48 1.01 1.66 4.69 3.81 9.41 4.29 14.27.9 8.99-.18 18.18-4.47 26.15-5.68 10.55-13.71 18.82-26.89 19.51-1.2.06-2.4.36-3.87.58-.7 20.97-1.4 41.85-2.12 63.12 4.1-.55 7.84-.93 11.51-1.63.88-.17 1.72-1.3 2.29-2.18 5.5-8.31 6.97-17.77 7.84-27.42.26-2.88.69-5.8 1.57-8.54.62-1.95 1.83-3.9 3.27-5.35 3.09-3.1 6.26-2.71 7.78 1.3 1.6 4.21 3.17 8.81 3.07 13.21-.17 6.98-.94 14.15-2.87 20.83-3.97 13.74-13.08 22.26-27.75 24.11-5.51.7-6.69 2.25-6.69 7.88 0 48.03.03 96.06-.06 144.09-.01 3.19-.49 6.52-1.52 9.52-.52 1.52-2.6 3.05-4.26 3.51-2.24.62-4.55.05-6.05-2.41-2.99-4.89-3.7-10.22-3.64-15.78.52-47.01.99-94.02 1.63-141.03.05-3.36-1.09-4.67-4.12-5.49-5.06-1.38-10-3.21-15.02-4.75-11.51-3.53-17.17-12.2-18.35-23.29-1.04-9.73-.26-19.67-.08-29.51.05-2.9 2.73-3.59 4.99-4.11 2.12-.48 3.96-.35 5.19 2.25 3.61 7.59 5.33 15.59 4.19 23.81-1.9 13.61 4.78 19.26 16.9 21.1 1.53.23 3.08.38 5.17.64.36-21.11.71-41.96 1.07-62.98-4.1-1.01-7.93-2.29-11.87-2.85-9.66-1.37-16-7.31-20.58-15.16-7.31-12.53-8.92-26.09-5.6-40.18.29-1.25 1.63-2.5 2.8-3.25 1.64-1.05 3.6-1.65 5.75-2.58z"/><path d="m274 111c6.83 1.63 9.1 5.1 7.61 11.66-1.04 4.57-2.2 9.15-3.77 13.56-3.79 10.66-1.03 20.24 4.42 29.41 3.26 5.48 6.82 10.78 10.13 16.22 6.97 11.46 8.08 23.71 4.72 36.53-4 15.27-12.16 28.25-22.21 40.18-3.22 3.82-7.3 4.93-12.41 3.43-.23-3.31-.68-6.74-.6-10.17.03-1.2 1.16-2.55 2.1-3.53 8.38-8.8 15-18.63 18.03-30.57 2.35-9.28 1.52-18.45-1.48-27.42-.56-1.66-2.11-2.99-3.2-4.48-3.15 6.91-5.99 13.53-9.16 19.99-2.24 4.57-5.19 8.69-10.08 10.84-5.57 2.46-7.67 1.38-6.99-4.52.66-5.69 2.16-11.39 4.11-16.8 2.53-7.03 5.94-13.74 8.77-20.67.67-1.64.91-3.66.7-5.43-.81-6.77-1.94-13.51-2.86-20.27-1.5-11.02 2.63-20.66 7.52-30.08 1.38-2.67 3.05-5.18 4.65-7.88z"/></g><path d="m385.2 377.6.6-.7c.6.4 1.3.9 1.9 1.5l-.6.7c-.8-.5-1.4-1-1.9-1.5zm.3 7.1c.6-1.4 1.1-2.9 1.5-4.5.3.1.6.3.9.4-.5 1.4-1 2.9-1.5 4.4zm.2-10.1.6-.6c.7.5 1.3 1.1 1.9 1.6l-.7.7c-.6-.6-1.2-1.2-1.8-1.7zm8.4-.8h.8v.9h1.8v.7h-1.8v1.8h-.8v-.3h-1.2v.9h3.3v2.6h-.8v-.4h-2.5c0 .3 0 .6-.1.8h3.4v.7h-3.5c0 .3-.1.6-.1.8h4v.7h-3.5c.7.9 1.9 1.3 3.6 1.5-.2.2-.4.5-.6.9-1.9-.3-3.2-1.1-3.8-2.3-.5 1.1-1.8 2-3.9 2.4-.2-.3-.4-.5-.6-.8 1.9-.4 3.1-.9 3.6-1.7h-3.2v-.7h3.5c.1-.2.1-.5.2-.8h-3.3v-.7h3.4c0-.2 0-.5 0-.8h-2.4v.3h-.8v-2.6h3.3v-.9h-1.2v.3h-.8v-1.8h-1.8v-.7h1.8v-.9h.8v.9h3.2zm-4.4 5.5h2.4c0-.3 0-.6 0-.9h-2.4zm1.2-3.1h3.2v-.8h-3.2zm4.4 2.2h-2.4v.9h2.5v-.9z" fill="#fcfbfa"/><path d="m389.2 385.8h.9v1.5h1.9v-1.5h.9v1.5h2.7v6h1.1v.9h-11.3v-.9h1.1v-6h2.7zm.2 8.7.5.8c-1.2.6-2.5 1.3-4 1.9-.2-.3-.3-.6-.6-.8 1.6-.6 3-1.3 4.1-1.9zm-2-4.3h1.9v-2.1h-1.9zm0 3.1h1.9v-2.2h-1.9zm2.7-3.1h1.9v-2.1h-1.9zm0 3.1h1.9v-2.2h-1.9zm2.4 1.3c1.4.6 2.7 1.2 4.1 1.8l-.5.9c-1.5-.7-2.8-1.4-4.1-1.9zm2.2-6.5h-1.9v2.1h1.9zm-1.9 5.2h1.9v-2.2h-1.9z" fill="#fcfbfa"/></svg>