<svg enable-background="new 0 0 400 400" viewBox="0 0 400 400" xmlns="http://www.w3.org/2000/svg"><g fill="#fbfafa"><path d="m37.59 393.81c-.92.31-1.52.05-2-.78-.7-1.2-1.52-2.34-2.47-3.78v4.59c-.55.03-.95.05-1.41.07-.03-.37-.06-.64-.06-.91 0-1.91 0-3.81 0-5.7 1.13-.41 1.77-.03 2.29.91.62 1.11 1.38 2.14 2.31 3.19v-4.2h1.35v6.61z"/><path d="m12.94 393.88v-6.75c1.9.19 3.93-.54 5.37 1.29.8 1.01.78 2.88.03 3.97-1.37 1.97-3.4 1.51-5.4 1.49m1.45-1.22c2.04.12 2.92-.58 2.89-2.21-.03-1.51-.98-2.19-2.89-2z"/><path d="m11.81 393.87h-5.49c.68-2.18 2.47-3.48 3.51-5.45h-3.08v-1.21h5.29c-.71 2.13-2.44 3.48-3.47 5.51.86 0 1.63.04 2.39-.01.79-.05 1.14.21.85 1.16"/><path d="m39.33 393.86v-6.61h3.7v1.07h-2.22v1.52c.68.04 1.34.09 2.07.13v1.07c-.72.05-1.38.09-2.1.14v1.48h2.4v1.19h-3.85z"/><path d="m27.71 388.56c-1.15-.3-2.46-.61-3.1.64-.37.73-.41 1.93-.06 2.67.63 1.35 1.99.93 3.17.68.35.94-.01 1.32-.93 1.46-1.62.25-3.05-.27-3.76-1.48-.73-1.24-.6-3.03.31-4.17.88-1.11 2.71-1.7 4-1.16.32.13.44.74.65 1.12-.1.08-.19.16-.28.24"/><path d="m49.15 387.24v1.07c-.59.02-1.17.05-1.87.08v5.44h-1.48v-5.44h-1.85c-.05-.4-.08-.73-.13-1.15z"/><path d="m20.06 387.21h1.33v6.62h-1.33z"/><path d="m30.68 393.25c-.49.38-.8.79-1.05.76-.32-.05-.6-.45-.9-.7.26-.24.51-.64.8-.67.29-.04.62.3 1.15.61"/></g><path d="m240.21 190.26c0-21.84 0-43.39 0-65.45-5.71-.24-11.61-.48-17.5-.73-2.9-.12-5.83-.04-8.7-.41-3.13-.4-5.69-1.94-7.08-4.98-1.92-4.2-1.09-5.91 2.98-7.96 5.03-2.52 10.19-3.4 15.82-3.31 15.67.24 31.34-.11 47.01.21 4.23.09 8.54 1.46 12.62 2.81 3.53 1.17 5.07 5.19 3.77 8.59-.3.79-1.27 1.68-2.08 1.87-3.77.88-7.58 1.94-11.41 2.17-5.99.36-12.02.09-18.42.09-.36 22.45-.7 44.11-1.05 65.98 7.01 2.41 13.66 1.22 20.45-.55 5.81-1.51 9.44-4.77 10.56-10.58 1.5-7.77 2.73-15.59 4.19-23.37.76-4.04 1.25-8.24 2.81-11.98 1.02-2.46 3.62-4.35 5.74-6.22 1.48-1.31 2.67-.63 3.63 1.15 3.99 7.46 5.63 15.44 4.33 23.7-1.21 7.7-3.4 15.25-5.06 22.89-1.17 5.37-4.56 8.99-8.76 12.2-8.35 6.38-17.97 8.72-28.21 9.31-2.77.16-5.54.54-8.63.85-.35 11.49-.69 22.86-1.05 34.57 7.9 1.65 15.62 3.27 23.35 4.89 1.86.39 3.7.94 5.59 1.14 6.12.63 11.38 2.84 15.55 7.54 4.59 5.16 7.65 11.08 8.63 17.87 1.82 12.66.12 24.91-4.47 36.88-3.4 8.88-10.97 12.59-18.81 15.98-10.35 4.48-21.34 5.59-32.49 5.62-14.52.04-28.68-1.84-42.61-6.27-8.36-2.66-13.25-8.21-16.78-15.63-5.84-12.26-5.11-24.97-2.46-37.77.5-2.4 1.33-4.73 1.92-7.11 2.38-9.58 9.76-13.97 18.08-17.25 7.67-3.03 15.72-4.21 23.95-4.45 4.5-.13 4.53-.26 4.54-4.78.02-10.28.01-20.57.01-31.34-6.47-1.51-13.33-3.56-20.35-4.63-11.38-1.73-18.14-8.82-22.31-18.63-5.73-13.51-6.37-27.5-2.42-41.72.88-3.17 2.33-4.26 5.62-4.66 3.76-.46 5.28.66 6.38 4.12 3.05 9.6 4.75 19.29 3.79 29.39-.84 8.8 2.27 13.74 10.51 16.85 5.88 2.2 12 3.13 18.82 3.11zm8.34 66.37c-.01.16-.03.33-.04.49-1.57 0-3.14-.04-4.7.01-7.6.24-15.29.14-22.47 3.07-6.15 2.51-12.44 5.39-13.75 12.87-1.17 6.67-2.3 13.49-2.18 20.22.16 9.12 3.98 15.82 13.84 18.78 13.03 3.92 26.09 4.87 39.45 3.51 10.11-1.03 19.79-3.57 28.66-8.68.99-.57 2.22-1.44 2.51-2.42 2.62-8.82 4.73-17.61 2.21-26.98-2.97-11.02-8.89-17.55-18.5-18.66-8.31-.95-16.68-1.49-25.03-2.21z" fill="#010105"/><path d="m109.93 203.26c0-16.11-.02-32.23.01-48.34.01-5.49-.01-10.98.25-16.45.12-2.43-.76-3.4-3.04-3.75-2.31-.36-4.56-1.12-6.87-1.54-13.99-2.51-22.23-11.42-26.3-24.39-3.7-11.79-3.58-23.83-.31-35.74 1.72-6.28 1.93-6.22 8.59-5.51 3.86 8.66 6.68 17.78 5.53 27.28-1.85 15.29 6.18 19.31 16.39 22.85 1.47.51 3.02.82 5.41 1.45.76-6.54 2-12.9 2.1-19.27.1-6.56-.79-13.16-1.47-19.72-1.06-10.2-.1-20.07 3.86-29.62 2.05-4.96 5.73-8.35 10.25-10.65 9.86-5.01 19.86-9.77 29.91-14.38 5.09-2.33 11.44.58 12.45 5.16.45 2.04-.04 3.25-1.9 4.38-10.91 6.62-21.79 13.28-32.53 20.14-1.81 1.16-3.73 3.19-4.22 5.16-1.46 5.93-3 12.02-3.13 18.07-.28 12.41.38 24.84.53 37.27.02 2.05.9 2.65 2.69 3.02 6.1 1.26 13.59-2.27 15.03-8.26 2.18-9.1 3.31-18.44 5.09-27.64.67-3.48 1.68-6.94 2.96-10.23.61-1.55 2.05-2.96 3.45-3.97 3.05-2.18 4.54-1.68 6.19 1.69 4.66 9.51 4.57 19.53 2.57 29.55-1.11 5.55-2.78 11.07-4.95 16.3-3.91 9.45-12.14 14-21.35 16.91-3.35 1.06-6.94 1.35-11.03 2.1 0 5.99.05 12.34-.01 18.7-.14 15.22-.26 30.45-.56 45.67-.06 2.83 1 3.69 3.59 3.85 6.88.41 12.95-3.42 14.39-10.12 1.71-7.96 2.67-16.08 4.06-24.11.59-3.4 1.13-6.87 2.3-10.09.72-1.97 2.29-3.91 3.99-5.19 3.48-2.63 6.81-1.76 7.92 2.37 1.44 5.34 2.82 10.9 2.84 16.38.04 9.45-2.34 18.59-5.89 27.39-2.13 5.27-5.56 9.31-10.37 12.33-6.64 4.18-13.54 7.41-22.1 6.81v4.49c0 45.69.06 91.37-.1 137.06-.01 3.79-1.14 7.69-2.36 11.33-.99 2.96-3.93 3.12-6.78 3.16-2.65.04-3.24-1.87-3.63-3.6-1.12-4.98-2.73-10.02-2.77-15.05-.26-37.51-.18-75.01-.22-112.52-.01-6.38-.23-12.77-.07-19.14.08-2.95-1.11-4.77-3.64-5.71-3.24-1.21-6.51-2.58-9.88-3.12-11.83-1.88-18.33-9.44-22.01-20.06-4.35-12.56-5.41-25.34-1.67-38.25.52-1.81 1.58-3.82 3.01-4.95 3.44-2.7 6.51-1.68 8.21 2.32 3.74 8.83 5.54 17.89 3.65 27.5-1.29 6.56 1.68 11.46 7.04 14.73 4.24 2.59 8.93 4.44 13.42 6.62.49-.21.98-.44 1.48-.67z" fill="#010105"/><path d="m249.46 27.82c5.73 2.24 10.27 5.87 13.88 10.78 15.11 20.55 30.25 41.09 45.43 61.59 3.59 4.85 7.47 9.5 11.06 14.35 2.92 3.95 4.86 8.33 4.24 13.42-.45 3.74-3.3 5.57-6.67 3.95-2.24-1.07-4.56-2.55-6.06-4.46-13.23-16.92-26.36-33.93-39.34-51.05-4.32-5.69-7.84-12-12.27-17.58-2.21-2.79-5.61-4.66-8.57-6.82-1.89-1.39-3.19-.75-4.63 1.17-12.74 17.02-25.66 33.91-38.42 50.91-5.37 7.15-10.47 14.51-15.71 21.75-2.57 3.55-6.06 5.43-10.45 5.9-3.05.33-4.85-.83-4.97-3.81-.08-2.04.1-4.28.89-6.13 2.31-5.44 5.5-10.3 9.16-15.06 9.6-12.49 18.85-25.28 27.6-38.37 9.61-14.4 19.65-28.31 33.2-39.33.54-.42 1.08-.8 1.63-1.21z" fill="#010105"/></svg>