<svg enable-background="new 0 0 400 400" viewBox="0 0 400 400" xmlns="http://www.w3.org/2000/svg"><g fill="#fbfafa"><path d="m37.59 393.81c-.92.31-1.52.05-2-.78-.7-1.2-1.52-2.34-2.47-3.78v4.59c-.55.03-.95.05-1.41.07-.03-.37-.06-.64-.06-.91 0-1.91 0-3.81 0-5.7 1.13-.41 1.77-.03 2.29.91.62 1.11 1.38 2.14 2.31 3.19v-4.2h1.35v6.61z"/><path d="m12.94 393.88v-6.75c1.9.19 3.93-.54 5.37 1.29.8 1.01.78 2.88.03 3.97-1.37 1.97-3.4 1.51-5.4 1.49m1.45-1.22c2.04.12 2.92-.58 2.89-2.21-.03-1.51-.98-2.19-2.89-2z"/><path d="m11.81 393.87h-5.49c.68-2.18 2.47-3.48 3.51-5.45h-3.08v-1.21h5.29c-.71 2.13-2.44 3.48-3.47 5.51.86 0 1.63.04 2.39-.01.79-.05 1.14.21.85 1.16"/><path d="m39.33 393.86v-6.61h3.7v1.07h-2.22v1.52c.68.04 1.34.09 2.07.13v1.07c-.72.05-1.38.09-2.1.14v1.48h2.4v1.19h-3.85z"/><path d="m27.71 388.56c-1.15-.3-2.46-.61-3.1.64-.37.73-.41 1.93-.06 2.67.63 1.35 1.99.93 3.17.68.35.94-.01 1.32-.93 1.46-1.62.25-3.05-.27-3.76-1.48-.73-1.24-.6-3.03.31-4.17.88-1.11 2.71-1.7 4-1.16.32.13.44.74.65 1.12-.1.08-.19.16-.28.24"/><path d="m49.15 387.24v1.07c-.59.02-1.17.05-1.87.08v5.44h-1.48v-5.44h-1.85c-.05-.4-.08-.73-.13-1.15z"/><path d="m20.06 387.21h1.33v6.62h-1.33z"/><path d="m30.68 393.25c-.49.38-.8.79-1.05.76-.32-.05-.6-.45-.9-.7.26-.24.51-.64.8-.67.29-.04.62.3 1.15.61"/></g><path d="m203.55 133.02c-5.86-6.93-7.53-14.9-8.46-23.08-1.47-12.96-1.16-25.87.65-38.82 1.21-8.7 5.39-14.69 13.01-18.97 9.95-5.59 20.48-9.04 31.81-9.67 15.86-.88 31.74-1.44 47.61-1.92 4.9-.15 9.84.26 14.74.66 5.04.42 8.03 2.78 9.07 6.67.59 2.21.35 4.11-2.25 4.66-4.35.92-8.74 1.68-13.12 2.5-.55.1-1.12.07-1.67.14-6.73.76-7.73 2.07-7.35 8.76.67 11.73 5.49 22.03 10.85 32.15 3.4 6.42 7.04 12.72 10.28 19.22 1.37 2.75 2.41 5.81 2.81 8.84.48 3.66-2.08 5.94-5.78 5.58-3.52-.34-6.46-1.39-8.18-5.22-5.57-12.44-12.1-24.48-17.1-37.13-3.41-8.63-4.91-18.02-7.25-27.08-.36-1.39-.63-2.8-.91-4.04-8.28 0-16.38 0-25.43 0 1.1 9 1.83 17.43 3.22 25.75 1.68 10.03 3.95 19.96 5.89 29.94.32 1.63.47 3.35.32 5-.23 2.51-1.51 4.59-4.1 5.16-2.57.56-5.07.24-6.94-2.09-5.33-6.64-7.33-14.48-8.24-22.69-1.22-11-2.33-22.01-3.45-33.01-.54-5.28-2.12-6.45-7.03-5.08-2.58.72-5.13 1.67-7.76 2.11-3.72.61-5.73 2.9-7.45 5.99-4.08 7.36-5.51 15.2-3.83 23.34 2.53 12.3 4.92 24.56 3.48 37.72 6.21-.58 12.06-1.09 17.89-1.68 17.82-1.82 35.55-1.65 52.96 3.06 15.92 4.3 23.67 12.22 25.35 31.01 1.95 21.8 1.81 43.8 2.29 65.72.58 26.74 1.06 53.49 1.18 80.23.07 16.45-.6 32.9-.96 49.34-.06 2.98-2.08 5.36-4.67 5.56-3.16.25-5.66-1.47-6.45-4.32-3.08-11.07-2.39-22.39-2.43-33.69-.11-29.88-.41-59.76-.57-89.64-.09-16.9.32-33.81-.23-50.69-.27-8.19-2.02-16.37-3.45-24.49-1.35-7.69-6.55-12.15-13.55-14.88-7.97-3.11-16.37-3.99-24.74-3.65-11.04.45-22.03 1.94-33.06 2.66-9.94.65-14.18 7.33-17.13 15.45-3.7 10.17-3.88 20.88-4 31.48-.45 39.62-.65 79.24-.88 118.87-.07 12.19.24 24.39.04 36.58-.06 3.39-1.08 6.82-2.1 10.1-.5 1.59-1.77 3.15-3.09 4.24-3.22 2.65-5.59 1.95-7.12-1.92-3.29-8.31-3.52-17.09-3.36-25.8.5-26.85 1.38-53.69 1.99-80.54.41-17.9.28-35.82 1.03-53.71.59-14.06 1.76-28.12 3.51-42.08.66-5.26 3.54-10.28 5.74-15.26.66-1.49 2.42-2.53 3.76-3.68 1.42-1.24 2.94-2.35 4.61-3.66z" fill="#010105"/><path d="m141.33 133.25c-.57 21.08-1.14 41.85-1.71 63 5.19-.53 10.06-.93 14.89-1.61.88-.12 1.79-1.21 2.38-2.07 5.25-7.71 7.43-16.4 8.16-25.57.26-3.22.58-6.49 1.37-9.61.53-2.09 1.62-4.24 3.03-5.87 3.16-3.64 6.44-3.05 8.22 1.28 3.08 7.48 3.11 15.28 1.96 23.11-.53 3.64-1.2 7.3-2.26 10.82-4.47 14.76-16.1 23.65-31.66 24.26-2.74.11-4.45.28-4.49 3.91-.47 47.79-1.07 95.58-1.74 143.37-.06 4.43-.57 8.89-1.34 13.25-.56 3.18-3.01 4.79-6.24 4.04-1.39-.32-3.38-1.48-3.66-2.62-1.3-5.26-2.92-10.64-2.94-15.99-.19-46.68-.07-93.37-.04-140.05 0-1.34 0-2.68 0-4.44-4.28-1.16-8.48-2.73-12.83-3.39-18.91-2.89-26.16-16.07-29.37-32.84-1.59-8.33-.85-16.48 2.62-24.31.68-1.53 1.21-3.08 3.5-2.88s4.39-.26 5.78 2.61c3.77 7.77 5.44 15.86 4.63 24.4-1.06 11.16 1.94 15.93 12.65 19.05 2.56.75 5.25 1.03 7.9 1.46 1.31.21 2.65.25 4.55.42 0-21.04 0-41.81 0-63.07-5.53-1.49-11.47-3.45-17.55-4.64-7.78-1.52-13.22-6.07-17.03-12.51-7.77-13.11-10.41-27.03-4.96-41.76.6-1.63 1.7-3.56 3.12-4.3 2.5-1.3 4.56-.61 6.04 2.44 3.81 7.83 5.68 15.99 5.32 24.64-.48 11.34 3.53 16.78 14.61 19.31 3.24.74 6.57 1.1 10.1 1.67 2.73-10.08 3.48-19.92 2.72-29.89-.76-10.06-1.36-20.03.82-30.06 2.24-10.31 7.8-17.71 17.4-21.87 8.3-3.59 16.66-7.1 25.2-10.03 2.85-.98 6.43-.5 9.52.11 3.39.67 4.37 5.62 1.57 7.6-3.43 2.44-7.07 4.69-10.88 6.49-4.74 2.24-9.68 4.08-14.62 5.82-5.93 2.09-9.53 6.54-11.18 12.1-2.06 6.91-3.86 14.06-4.4 21.22-.9 11.81-.71 23.71-.96 35.57-.01.54.11 1.08.22 2.02 5.11-.54 10.09-1 15.04-1.68.77-.11 1.54-1.17 2.07-1.95 4.75-7.06 6.66-15.02 7.52-23.36.42-4.1.96-8.24 2.06-12.2 1.39-5 4.08-7.28 8.76-8.47 2.98 4.4 4.43 9.39 4.95 14.64 1.06 10.78.56 21.59-5.52 30.79-6.24 9.44-14.55 16.74-26.97 16.91-1.56.02-3.12.25-4.68.41-.43.06-.84.17-1.65.32z" fill="#010105"/><path d="m254.47 249.08c-6.36 1.8-12.28 3.96-18.38 5.06-6.35 1.15-12.87 1.66-19.33 1.74-5.89.07-8.09-3.78-5.66-8.98.45-.96 1.55-2.03 2.54-2.27 6.82-1.69 13.65-3.32 20.54-4.69 5.51-1.09 10.97-2.11 15.7-5.43 1.57-1.11 2.34-2.35 1.47-4.23-.05-.1-.1-.21-.11-.32-.16-8.3-5.45-12.13-12.57-14.27-4.81-1.44-9.7-2.63-14.5-4.08-4.04-1.22-7.87-2.82-9.02-7.55-.63-2.61-.18-4.4 2.76-5.42 7.78-2.71 15.19-1 22.68 1.19 8.58 2.51 15.73 6.64 19.65 15.22 1.22 2.68 3.21 5.02 4.95 7.68 6.26-6.21 6.88-13.36 5.13-21.07-.42-1.85-1.1-3.65-1.44-5.51-1.71-9.43-9.03-13.42-16.69-16.65-8.54-3.6-17.36-6.51-26.06-9.74-.2-.07-.34-.28-.87-.73 1.22-2.43 2.42-5 3.81-7.47.28-.5 1.29-.86 1.94-.83 16.4.74 31.64 4.53 43.67 16.71 10.99 11.12 13.1 24.42 9.6 39.08-.52 2.17-1.33 4.27-1.84 6.44-1.43 6.11-5.47 10.38-10.08 14.18-2.72 2.24-3.66 4.66-3.36 8.34 2.18 26.76 3.98 53.55 6.15 80.31.41 5.07.92 10.01-.67 14.92-1.02 3.17-2.96 5.22-6.54 5.21-2.83-.01-4.62-.9-5.42-4.1-2.87-11.45-4.44-23.05-4.75-34.83-.28-10.96-.13-21.94-.71-32.88-.41-8.35-1.68-16.65-2.59-25.03z" fill="#010105"/></svg>