<svg enable-background="new 0 0 400 400" viewBox="0 0 400 400" xmlns="http://www.w3.org/2000/svg"><g fill="#fbfafa"><path d="m37.59 393.81c-.92.31-1.52.05-2-.78-.7-1.2-1.52-2.34-2.47-3.78v4.59c-.55.03-.95.05-1.41.07-.03-.37-.06-.64-.06-.91 0-1.91 0-3.81 0-5.7 1.13-.41 1.77-.03 2.29.91.62 1.11 1.38 2.14 2.31 3.19v-4.2h1.35v6.61z"/><path d="m12.94 393.88v-6.75c1.9.19 3.93-.54 5.37 1.29.8 1.01.78 2.88.03 3.97-1.37 1.97-3.4 1.51-5.4 1.49m1.45-1.22c2.04.12 2.92-.58 2.89-2.21-.03-1.51-.98-2.19-2.89-2z"/><path d="m11.81 393.87h-5.49c.68-2.18 2.47-3.48 3.51-5.45h-3.08v-1.21h5.29c-.71 2.13-2.44 3.48-3.47 5.51.86 0 1.63.04 2.39-.01.79-.05 1.14.21.85 1.16"/><path d="m39.33 393.86v-6.61h3.7v1.07h-2.22v1.52c.68.04 1.34.09 2.07.13v1.07c-.72.05-1.38.09-2.1.14v1.48h2.4v1.19h-3.85z"/><path d="m27.71 388.56c-1.15-.3-2.46-.61-3.1.64-.37.73-.41 1.93-.06 2.67.63 1.35 1.99.93 3.17.68.35.94-.01 1.32-.93 1.46-1.62.25-3.05-.27-3.76-1.48-.73-1.24-.6-3.03.31-4.17.88-1.11 2.71-1.7 4-1.16.32.13.44.74.65 1.12-.1.08-.19.16-.28.24"/><path d="m49.15 387.24v1.07c-.59.02-1.17.05-1.87.08v5.44h-1.48v-5.44h-1.85c-.05-.4-.08-.73-.13-1.15z"/><path d="m20.06 387.21h1.33v6.62h-1.33z"/><path d="m30.68 393.25c-.49.38-.8.79-1.05.76-.32-.05-.6-.45-.9-.7.26-.24.51-.64.8-.67.29-.04.62.3 1.15.61"/></g><path d="m255.94 136.07c-.39.69-.65.96-.69 1.25-.54 4.77-1.04 9.54-1.57 14.43 12.37 5.17 23.47 12.23 33.8 20.51 4.73 3.8 8.97 8.07 11.47 13.81 1.07 2.44.37 3.63-1.96 4.56-4.84 1.93-8.73-.21-12.51-2.73-6.42-4.28-12.76-8.68-19.17-12.99-3.42-2.3-6.9-4.53-11.1-7.28-.31 5.16-.59 9.74-.86 14.33-.11 1.9-.03 3.83-.34 5.69-.23 1.39-.55 3.25-1.52 3.93-1.59 1.12-3.73 1.84-5.66 1.91-.76.03-2.13-2.07-2.31-3.34-.81-5.52-1.28-11.09-1.88-16.64-.13-1.19-.31-2.37-.61-4.64-5.94 3.76-11.33 7-16.53 10.52-4.53 3.06-8.72 6.64-13.3 9.61-3.34 2.17-7.17 3.19-11.21 1.94-.76-.24-1.75-.78-2-1.42-.77-1.97 1.78-8.45 3.69-9.85 12.28-8.99 24.53-18.02 36.89-26.91 1.88-1.35 2.54-2.76 2.44-4.98-.16-3.54-.04-7.09-.04-11.19-6.97 3.19-13.4 6.26-19.94 9.08-4.91 2.12-9.9 4.09-14.97 5.77-2.61.87-5.45.81-6.84-2.39-1.35-3.11-.08-6.74 2.88-8.53 11.39-6.85 22.4-14.4 35.31-18.35.86-.26 1.91-1.32 2.08-2.17.97-4.69 1.69-9.43 2.65-15.05-5.31-.2-10.33-1.02-15.19-.43-8.86 1.08-17.61 3.01-26.42 4.53-2.22.38-3.39 1.69-4.33 3.65-3.53 7.4-5.22 15.1-5.12 23.36.12 9.6-.4 19.21-.59 28.81-.23 11.64-.67 23.28-.57 34.92.24 29.46-3.41 58.5-9.15 87.3-4.11 20.61-8.65 41.13-13.27 61.64-.62 2.75-2.31 5.69-4.39 7.57-3.7 3.35-7.73 1.77-8.87-3.02-1.75-7.39-.63-14.66 1.06-21.91 3.83-16.43 8.34-32.74 11.23-49.34 6.93-39.91 9.89-80.16 8.21-120.71-.52-12.61-1.53-25.3 1.04-37.84.76-3.71 1.97-7.33 3.03-10.97 3.42-11.79 13.47-15.77 23.49-19.44 8.97-3.29 18.56-2.56 27.92-2.89 13.75-.49 27.52-.65 41.27-.65 3.67 0 5.98-1.63 6.08-4.73.22-6.43-.25-12.89-.74-19.32-.06-.82-1.86-1.98-2.99-2.17-7.46-1.27-14.96-3.2-22.46-3.25-17.56-.13-35.12.71-52.68 1.05-2.89.06-5.79-.37-8.68-.64-.65-.06-1.29-.36-1.92-.57-3.56-1.21-6.68-5.49-6.3-8.63.21-1.69 5.41-4.73 8.25-4.7 12.98.16 25.96.28 38.93.57 14.54.32 29.07.86 43.61 1.19 13.33.3 18.4 6.97 19.91 19.76 1.01 8.49-.01 17-2.58 25.21-.43 1.38-1.39 2.83-2.53 3.72-5.15 4.07-11 6.23-17.67 6.26-4.35.02-8.69.5-13.04.77-1.79.11-2.42 1.04-2.44 2.84-.03 3.13-.23 6.27-.55 9.38-.19 1.85.45 2.85 2.11 3.62 7.89 3.7 15.82 7.34 23.58 11.3 4.85 2.47 9.63 5.19 14.09 8.3 2.97 2.07 5.92 5.75 4.22 9.08-1.72 3.37-6.57 3.49-10.05 2.37-5.49-1.77-10.75-4.32-15.98-6.8-5.3-2.5-10.45-5.35-15.72-8.07z" fill="#010105"/><path d="m109.91 118.39c.65-5.93 1.7-11.76 1.81-17.61.14-6.92-.42-13.86-.89-20.78-.74-10.76.19-21.24 4.7-31.18.49-1.08 1.17-2.26 2.1-2.91 11.6-8.02 23.33-15.77 37.01-19.99 5.22-1.61 9.26.97 8.98 6.3-.06 1.14-1.05 2.71-2.06 3.25-6.21 3.31-12.63 6.23-18.81 9.59-3.51 1.91-6.8 4.27-9.98 6.7-5.21 3.98-6.27 10.01-6.63 15.92-.77 12.84-1.06 25.71-1.48 38.57-.12 3.77-.02 7.55-.02 11.21 6.61.5 10.97-2.15 12.42-8.35 1.89-8.13 3.28-16.38 5.06-24.54.66-3.03 1.34-6.23 2.89-8.84 1.44-2.42 4.05-4.14 6.44-6.46 5.29 7.85 6.79 15.72 6.46 24.01-.32 8.25-1.83 16.38-6 23.53-4.13 7.09-9.18 13.67-18.06 15.36-2.72.52-5.51.61-8.76.95v63.08c2.19-.41 4.64-.65 6.91-1.4 1.09-.36 2.1-1.58 2.7-2.65 4.66-8.25 6.25-17.37 7.49-26.62.52-3.84 1.47-7.67 2.69-11.36.83-2.52 2.75-4.33 5.79-4.29 2.51.03 4.07.86 4.7 3.63 3.29 14.42 2.8 28.69-3.8 41.94-4.39 8.82-11.28 15.68-22.42 15.64-1.2 0-2.39.22-4 .38 0 4.93.02 9.61 0 14.29-.19 45.35-.35 90.7-.66 136.04-.02 3.51-.79 7.13-1.93 10.45-.51 1.5-2.65 2.96-4.32 3.41-2.26.61-4.5-.02-5.99-2.51-2.67-4.48-3.78-9.29-3.73-14.41.29-34.15.64-68.29.9-102.44.09-12.21.04-24.41 0-36.62-.02-5.72-1.88-8.7-7.3-9.65-13.13-2.3-20.54-10.53-24.44-22.57-3.78-11.69-4.54-23.48.05-35.16.5-1.27 1.94-2.77 3.18-3.02 2.3-.47 4.69-.59 6.17 2.42 2.76 5.6 3.78 11.37 3.51 17.55-.17 4-.67 8.24.35 12 3.49 12.85 5.88 13.99 18.06 15.57 0-6.23-.11-12.38.02-18.52.29-13.88.65-27.76 1.09-41.63.06-2.04-.59-2.99-2.52-3.56-3.64-1.09-7.12-2.79-10.81-3.58-7.3-1.55-12.04-6.04-15.28-12.37-6.89-13.42-9.82-27.32-4.45-42.03.6-1.65 1.64-3.65 3.05-4.37 2.4-1.24 4.62-.76 6.26 2.2 4.12 7.42 6.25 15.26 4.57 23.56-2.05 10.13 2.65 16.47 11.89 19.99 1.67.64 3.38 1.17 5.08 1.71.43.15.88.09 2.01.17z" fill="#010105"/><path d="m279.4 198.5c6.34 3.3 9.41 7.82 11.1 13.15 3.46 10.86 3.79 21.91 1.7 33.14-1.28 6.88-5.42 11.13-11.4 13.89-6.88 3.18-14.13 5.07-21.77 4.43-3.58-.3-5.19.71-5.54 4.49-.34 3.63-1.12 7.34-2.4 10.75-3.65 9.75-10.2 14.38-20.55 13.9-5.27-.24-10.49-1.87-15.68-3.07-1.05-.24-2.3-1.22-2.74-2.19-1.36-3.01-2.91-6.09-3.45-9.3-2.31-13.88-4.32-27.82-6.38-41.75-1.38-9.32-2.47-18.65-.1-27.98.36-1.43.39-3.17 2.71-3.03 2.36.14 4.89-1.57 6.68 1.77 4.05 7.57 5.66 15.73 6.5 24.11 1.44 14.36 2.81 28.73 4.13 43.1.18 1.91.8 2.9 2.82 2.77.77-.05 1.56.11 2.34.15 8.3.4 8.32.4 11.22-7.3 2.77-7.37 3.29-14.99 2.75-22.79-.75-10.83-1.35-21.66-1.91-32.5-.11-2.11.11-4.26.42-6.35.62-4.23 3.6-6.82 7.85-6.71.83.02 2.14.93 2.36 1.68 1.57 5.43 3.73 10.87 4.16 16.42.68 8.9.28 17.89.1 26.83-.06 2.86 1.34 4.42 3.64 3.79 5.76-1.57 11.76-3.06 16.83-6.01 2.29-1.34 3.43-6.04 3.6-9.29.23-4.35-1-8.78-1.59-13.18-.59-4.38-1.86-8.83-1.51-13.14.25-3.27 2.59-6.37 4.11-9.78z" fill="#010105"/><path d="m230.34 331.73c-18.01-.42-31.42-7.18-41.29-20.55-1.7-2.31-2.57-5.42-3.13-8.3-.42-2.14-1.27-5.01 2.11-6.19 3.11-1.09 5.78-.85 8.28 1.6 4.15 4.07 8.43 8.01 12.72 11.93 8.03 7.33 17.3 9.36 27.71 6.29 1.18-.35 2.37-.66 3.57-.93 9.38-2.08 17.24-6.32 23.85-13.71 7.95-8.89 16.62-17.12 27.13-23.3 8.05-4.73 16.24-4.1 24.66-2.71 3.23.53 4.81 2.98 4.89 6.33.05 2.05-.49 3.21-2.8 3.74-6.31 1.45-12.57 3.15-18.8 4.95-1.74.5-3.54 1.42-4.86 2.64-7.66 7.04-15.23 14.19-22.76 21.37-11.95 11.4-26.57 15.96-41.28 16.84z" fill="#010105"/></svg>