<svg enable-background="new 0 0 400 400" viewBox="0 0 400 400" xmlns="http://www.w3.org/2000/svg"><path d="m361.2 9.6.8-1c.9.7 1.9 1.4 2.9 2.3l-.9 1.1c-1-1-2-1.8-2.8-2.4zm.5 10.6c.9-2.1 1.6-4.3 2.3-6.7.4.2.8.4 1.3.6-.7 2.1-1.5 4.3-2.2 6.6zm.4-15.2.9-.9c1 .8 2 1.6 2.8 2.4l-1 1c-.9-.9-1.8-1.7-2.7-2.5zm12.5-1.2h1.2v1.4h2.7v1.1h-2.7v2.7h-1.2v-.6h-1.8v1.3h4.9v3.8h-1.2v-.5h-3.7c0 .4-.1.9-.1 1.2h5.1v1h-5.2c0 .5-.1.9-.2 1.2h6v1h-5.2c1.1 1.3 2.9 2 5.5 2.2-.4.4-.7.8-.9 1.3-2.9-.5-4.8-1.6-5.7-3.5h-.1c-.8 1.7-2.7 2.9-5.9 3.6-.2-.4-.6-.8-.9-1.1 2.8-.6 4.6-1.4 5.4-2.5h-4.8v-1h5.3c.1-.3.2-.7.2-1.2h-4.9v-1h5c0-.4 0-.8.1-1.2h-3.5v.5h-1.2v-3.8h4.9v-1.3h-1.8v.5h-1.2v-2.7h-2.7v-1h2.6v-1.4h1.2v1.4h4.7v-1.4zm-6.6 8.3h3.6c0-.4 0-.9 0-1.4h-3.6zm1.9-4.6h4.7v-1.3h-4.7zm6.6 3.2h-3.7v1.4h3.7z" fill="#fbfcfa"/><path d="m385.3 3.8h1.3v2.2h2.8v-2.2h1.3v2.2h4.1v9.1h1.7v1.3h-16.9v-1.3h1.7v-9.1h4.1v-2.2zm.4 13.1.7 1.2c-1.8.9-3.8 1.9-6 2.9-.2-.4-.5-.8-.8-1.3 2.3-1 4.3-1.9 6.1-2.8zm-3.1-6.4h2.8v-3.2h-2.8zm0 4.6h2.8v-3.3h-2.8zm4-4.6h2.8v-3.2h-2.8zm0 4.6h2.8v-3.3h-2.8zm3.7 1.9c2.1.9 4.1 1.8 6.1 2.7l-.7 1.3c-2.2-1.1-4.2-2-6.1-2.9zm3.2-9.7h-2.8v3.2h2.8zm-2.8 7.8h2.8v-3.3h-2.8z" fill="#fbfcfa"/><g fill="#010102"><path d="m236.93 127.36c-10.7-6.34-20.48-12.14-30.24-17.92-3.54 5.05-6.85 9.93-10.34 14.68-2.68 3.64-5.79 6.95-10.46 7.95-5.11 1.09-6.44.8-6.78-5.31-.08-1.49.26-3.23 1.02-4.5 2.9-4.87 5.64-9.92 9.18-14.31 7.23-8.97 15.02-17.48 22.39-26.34 3.41-4.09 7.21-7.55 11.77-10.31 4.97-3.01 9.82-6.24 14.59-9.55 1.04-.72 2.12-2.18 2.19-3.36.32-5.55.58-11.14.29-16.69-.27-5.31.61-10.25 3.15-14.83.45-.81 2.07-1.61 2.97-1.45 6.5 1.19 9.03 5.49 8.16 12.66-.65 5.31-.88 10.67-1.25 16.01-.27 3.81 1.16 6.05 5.2 7.11 10.7 2.79 20.15 8.46 29.69 13.83 1.94 1.09 3.77 2.42 5.51 3.81 7.44 5.98 9.07 12.29 5.41 21.05-.39.94-1.38 1.7-2.23 2.37-10.23 8.15-20.49 16.27-31.18 24.75 1.13.72 1.97 1.33 2.88 1.84 8.58 4.81 17.22 9.51 25.75 14.42 5.27 3.04 10.26 6.61 12.92 12.32 2.36 5.06 2.64 5.6-3.55 7.09-5.22 1.26-9.95-.52-14.35-3.24-8.94-5.52-17.84-11.11-26.77-16.66-1.11-.69-2.28-1.3-3.99-2.27-.37 12.27-.72 24.04-1.1 36.77 8.31.21 16.41.44 24.5.6 6.35.13 12.73-.18 19.04.35 4.4.37 7.94 2.89 9.88 7.14.83 1.82.76 3.1-1.42 4.24-5.96 3.11-12.29 3.82-18.85 3.79-10.5-.06-21-.02-32.02-.02-.15 2.98-.35 6.39-.5 9.8-.2 4.58-.19 9.18-.6 13.75-.25 2.76.76 3.5 3.31 3.53 10.96.11 21.92.23 32.87.61 3.53.12 7.12.74 10.52 1.69 2.8.78 4.76 2.85 4.88 6.12.1 2.88-.77 4.71-3.94 5.51-10.14 2.58-20.43 1.93-30.71 2.05-5.56.06-11.11.41-16.84.64v30.82c7.86 1.57 15.85 1.42 23.85 1.16 5.8-.19 11.62-.5 17.41-.24 4.58.21 8.77 1.88 11.37 6.09 1.97 3.19 1.82 4.6-1.57 5.98-3.24 1.32-6.82 2.56-10.26 2.56-21.92-.01-43.85-.35-65.77-.62-9.84-.12-19.68-.33-29.52-.48-.99-.02-1.97.09-3.36.15-.24 7.24-.69 14.36-.65 21.48.08 17.57.46 35.13.53 52.7.01 3.07-.69 6.2-1.45 9.2-.68 2.68-2.83 3.79-5.57 4-2.7.2-3.91-1.25-4.95-3.49-3.76-8.04-4.71-16.57-4.08-25.23 2.07-28.41.55-56.82.48-85.23-.06-21.62-.4-43.32 5.01-64.39 2.73-10.63 7.56-20.71 11.55-31.01.37-.96 1.43-1.68 2.24-2.44 10.25-9.52 20.51-19.02 30.78-28.52.79-.67 1.67-1.2 3.01-2.21zm5.81-13.61c1.23-3.58 2.61-6.89 3.48-10.32.71-2.78 2.27-3.43 4.82-3.23 2.7.21 4.32 1.62 5.17 4.06.93 2.68 1.8 5.38 2.79 8.36 9.54-6.82 18.7-13.38 28.16-20.16-10.38-6.79-20.52-13.32-32.41-16.24-3.81-.94-8.45-2.17-11.75-.86-11.35 4.52-19.23 13.76-27.76 22.39 9.33 5.43 18.3 10.65 27.5 16zm.76 154.73c0-10.85 0-20.95 0-31.63-14.19 0-28.1 0-42.37 0-.34 10.5-.69 21.17-1.02 31.63zm.31-48.37c-.73-9.4-1.41-18.25-2.1-27.11-12.59 0-24.73 0-37.05 0-.94 9.37-1.86 18.55-2.82 28.17 14.02-.36 27.72-.7 41.97-1.06zm-33.79-42.34c11.4-.35 22.41-.69 33.07-1.02 0-12.1 0-23.87 0-36.57-2.01 1.61-3.25 2.51-4.38 3.53-7.04 6.39-13.84 13.08-21.17 19.12-4.78 3.95-5.67 9.29-7.52 14.94z"/><path d="m121.04 197.39c.35-21.63.69-42.41 1.03-63.36-3.71-.92-7.13-1.98-10.62-2.58-13.31-2.3-21.52-10.31-25.49-22.84-3.55-11.21-4.58-22.53-.26-33.87 1.03-2.7 2.4-4.16 5.63-3.84 2.01.2 2.97.99 3.77 2.62 3.67 7.4 4.93 15.26 4.63 23.44-.05 1.23-.18 2.46-.22 3.69-.33 9.22 3.83 14.84 12.77 16.99 2.78.67 5.65 1 8.62 1.52 2.51-11.64 2.83-22.98 2.1-34.4-.67-10.53-1.04-21.01 2.86-31.15 2.12-5.51 5.13-9.71 10.95-12.24 9.51-4.14 18.63-9.19 27.95-13.79 4.69-2.31 10.78-.5 12.48 3.42.84 1.94.44 2.97-1.43 4-9.98 5.52-19.93 11.09-29.77 16.85-1.8 1.05-3.5 2.84-4.44 4.7-3.45 6.81-4.43 14.31-4.73 21.8-.5 12.52-.58 25.06-.82 37.59-.01.54.12 1.07.23 1.96 4.22-.55 8.33-.88 12.33-1.73 1.09-.23 2.08-1.9 2.73-3.12 3.78-7.01 5.21-14.67 6.28-22.47.59-4.29 1.56-8.55 2.6-12.76.36-1.46 1.28-2.88 2.26-4.06 2.96-3.55 5.77-3.24 8 .73 3.83 6.84 3.9 14.14 2.42 21.52-1.05 5.25-2.28 10.49-3.79 15.62-3.39 11.51-16.83 21.42-28.95 21.61-.88.01-1.76.1-3.05.19-.35 20.89-.7 41.65-1.06 62.86 4.34-.55 8.42-.86 12.39-1.69 1.11-.23 2.14-1.85 2.79-3.06 3.84-7.1 5.36-14.87 6.39-22.78.49-3.76 1.17-7.51 2.07-11.18.44-1.79 1.37-3.57 2.47-5.08 3.25-4.44 6.36-4.3 8.57.59 1.41 3.11 2.63 6.51 2.91 9.87.99 11.88-1.86 23.11-7.21 33.65-1.18 2.33-3.35 4.63-5.65 5.84-6.91 3.64-14.04 6.87-21.21 9.97-2.62 1.13-3.59 2.47-3.58 5.41.1 49.24.11 98.49-.02 147.73-.01 2.5-.82 5.41-2.26 7.42-2.8 3.92-8.25 3.12-9.51-1.45-1.4-5.11-2.54-10.5-2.55-15.77-.04-38.61.24-77.22.4-115.82.03-8.28-.06-16.57.05-24.85.03-2.03-.59-2.93-2.57-3.48-5.7-1.6-11.27-3.67-17.01-5.1-8.35-2.08-13.37-7.7-16-15.31-4.47-12.94-4.39-26.1-.11-39.16.46-1.42.62-3.13 2.91-2.93 2.25.2 4.51-.51 5.88 2.44 3.5 7.48 4.87 15.29 4.53 23.47-.06 1.45-.2 2.9-.22 4.36-.13 8.12 2.95 12.84 10.65 15.51 3.33 1.15 6.89 1.61 10.88 2.5z"/></g></svg>