<svg enable-background="new 0 0 400 400" viewBox="0 0 400 400" xmlns="http://www.w3.org/2000/svg"><path d="m361.2 9.6.8-1c.9.7 1.9 1.4 2.9 2.3l-.9 1.1c-1-1-2-1.8-2.8-2.4zm.5 10.6c.9-2.1 1.6-4.3 2.3-6.7.4.2.8.4 1.3.6-.7 2.1-1.5 4.3-2.2 6.6zm.4-15.2.9-.9c1 .8 2 1.6 2.8 2.4l-1 1c-.9-.9-1.8-1.7-2.7-2.5zm12.5-1.2h1.2v1.4h2.7v1.1h-2.7v2.7h-1.2v-.6h-1.8v1.3h4.9v3.8h-1.2v-.5h-3.7c0 .4-.1.9-.1 1.2h5.1v1h-5.2c0 .5-.1.9-.2 1.2h6v1h-5.2c1.1 1.3 2.9 2 5.5 2.2-.4.4-.7.8-.9 1.3-2.9-.5-4.8-1.6-5.7-3.5h-.1c-.8 1.7-2.7 2.9-5.9 3.6-.2-.4-.6-.8-.9-1.1 2.8-.6 4.6-1.4 5.4-2.5h-4.8v-1h5.3c.1-.3.2-.7.2-1.2h-4.9v-1h5c0-.4 0-.8.1-1.2h-3.5v.5h-1.2v-3.8h4.9v-1.3h-1.8v.5h-1.2v-2.7h-2.7v-1h2.6v-1.4h1.2v1.4h4.7v-1.4zm-6.6 8.3h3.6c0-.4 0-.9 0-1.4h-3.6zm1.9-4.6h4.7v-1.3h-4.7zm6.6 3.2h-3.7v1.4h3.7z" fill="#fbfcfa"/><path d="m385.3 3.8h1.3v2.2h2.8v-2.2h1.3v2.2h4.1v9.1h1.7v1.3h-16.9v-1.3h1.7v-9.1h4.1v-2.2zm.4 13.1.7 1.2c-1.8.9-3.8 1.9-6 2.9-.2-.4-.5-.8-.8-1.3 2.3-1 4.3-1.9 6.1-2.8zm-3.1-6.4h2.8v-3.2h-2.8zm0 4.6h2.8v-3.3h-2.8zm4-4.6h2.8v-3.2h-2.8zm0 4.6h2.8v-3.3h-2.8zm3.7 1.9c2.1.9 4.1 1.8 6.1 2.7l-.7 1.3c-2.2-1.1-4.2-2-6.1-2.9zm3.2-9.7h-2.8v3.2h2.8zm-2.8 7.8h2.8v-3.3h-2.8z" fill="#fbfcfa"/><g fill="#010102"><path d="m106.7 190.77c0-8.72-.07-16.53.02-24.34.14-11.41.34-22.83.64-34.24.05-2.04-.45-2.93-2.57-3.4-6-1.33-11.88-3.21-17.9-4.42-9.56-1.92-15.23-8.08-18.58-16.65-3.61-9.24-3.11-18.88-1.8-28.49.36-2.64 1.33-5.2 1.74-7.84.53-3.41 2.25-4.61 5.69-4.22 1.86.21 2.95.49 3.66 2.45 3.04 8.37 4.95 16.9 4.93 25.87-.03 9.9 3.69 14.44 13.48 16.58 3.25.71 6.62.94 10.81 1.5.94-9.26 2.15-18.19 2.67-27.17.38-6.57.06-13.2-.33-19.78-.75-12.57 4.86-21.99 15.35-27.74 9.93-5.44 20.54-9.92 31.29-13.52 5.9-1.97 13.1.35 12.7 7.91-.06 1.1-.87 2.7-1.77 3.11-6.06 2.81-12.22 5.4-18.38 7.99-4.53 1.9-9.09 3.71-13.65 5.52-3.48 1.38-5.91 3.94-6.75 7.42-1.71 7.02-3.59 14.1-4.25 21.26-.94 10.35-.86 20.79-1.19 31.19-.02.76.15 1.52.25 2.48 5.63-1.15 11.11-2.17 16.53-3.48 1.02-.25 2.31-1.58 2.52-2.61 1.59-7.97 2.92-16 4.39-23.99.56-3.06.92-6.24 2.06-9.09.77-1.92 2.47-3.78 4.24-4.93 2.98-1.93 4.69-1.15 6.31 2.07 5.61 11.09 4.16 22.39.83 33.66-4.61 15.57-15.83 22.89-31.38 24.38-2.8.27-3.77 1.02-3.85 3.94-.48 18.01-1.18 36.01-1.79 54.02-.03.87.09 1.74.17 2.97 5.46-1.2 10.71-2.26 15.88-3.59.88-.23 1.89-1.58 2.1-2.57 1.69-8.07 3.19-16.18 4.78-24.27.64-3.28 1.14-6.61 2.14-9.79.54-1.73 1.72-3.44 3.05-4.71 3.44-3.29 6.92-2.83 8.68 1.48 1.58 3.87 2.97 8.08 3.18 12.2.52 10.27-.66 20.64-5.94 29.55-5.9 9.97-14.63 16.81-26.96 17.49-1.01.06-2.01.12-3.01.23-.55.06-1.09.21-2.58.51 0 6.09.06 12.31-.01 18.54-.51 45.21-1.02 90.42-1.64 135.63-.05 3.76-.77 7.54-1.45 11.26-.51 2.77-2.5 4.11-5.32 4.17-2.65.06-4.76-.24-6.13-3.26-3.97-8.72-3.49-17.86-3.4-27.03.44-44.99.81-89.98 1.28-134.97.02-2.11-.77-2.91-2.64-3.5-5.97-1.86-11.81-4.19-17.85-5.78-8.05-2.12-13.3-7.35-16.54-14.53-5.81-12.88-7.15-26.24-2.6-39.84.62-1.86.7-4.4 3.98-4.55 3.41-.15 5.54.67 7.05 3.97 3.58 7.85 5.02 15.98 3.96 24.51-1.23 9.93 1.75 15.01 11.3 17.95 3.76 1.16 7.79 1.57 12.6 2.49z"/><path d="m216.85 258.5c10.3 1.03 19.39 1.95 29.12 2.92 0-9.58-.07-18.84.01-28.11.18-21.15.39-42.3.72-63.45.04-2.78-.54-4.05-3.61-4.01-11.62.14-23.25.29-34.87.02-5.08-.12-10.26-.76-15.16-2.08-4.77-1.28-7.83-4.9-8.82-10.1 6.53-2.76 12.71-5.23 19.99-5.16 32.35.3 64.71.06 97.07.19 6.92.03 13.86.55 20.75 1.26 5.57.57 8.37 3.63 8.53 8.2.07 2.14-.62 3.5-2.77 4.3-8.13 3.01-16.54 3.77-25.1 3.3-9.6-.53-19.19-1.31-28.8-1.71-3.29-.14-6.62.55-10.06.87-.48 14.24-.95 27.98-1.41 41.73-.08 2.24.12 4.52-.26 6.7-.61 3.47 1.15 4.27 4.05 4.39 6.86.28 12.75-2.82 18.97-4.98 6.76-2.34 9.73-7.24 10.33-13.79.44-4.77.29-9.6.17-14.4-.18-6.85 2.19-10.98 7.48-12.81 2.01-.7 3.18-.38 4.32 1.63 5.3 9.41 5.48 19.4 3.75 29.66-.22 1.32-.64 2.61-.85 3.93-2.12 13.06-12.21 17.57-22.97 21.12-6.78 2.24-13.74 3.95-20.66 5.77-2.78.73-3.86 2.18-3.85 5.16.02 6.04-.29 12.09-.74 18.11-.19 2.6.56 3.58 3.16 3.81 13.35 1.19 26.68 2.62 40.04 3.74 12.37 1.04 21.46 8.52 24.66 20.85-4.9 2.74-10.32 4.42-15.18 1.07-10.9-7.51-23.12-8.86-35.72-8.95-10.63-.07-21.26-.1-31.88.29-12.25.45-24.03-1.38-35.53-5.6-3.01-1.1-4.8-3.03-6.24-5.64-4.24-7.68-6.16-16.06-7.24-24.63-2.02-16.05-2.44-32.12.39-48.15.37-2.09 1-4.13 1.39-6.21.62-3.3 2.22-5.34 5.85-4.31 1.3.37 2.94 1.13 3.53 2.2 3.5 6.33 4.34 13.37 4.55 20.43.26 8.27-.24 16.58.22 24.84.53 9.19 1.75 18.35 2.67 27.6z"/><path d="m256.63 40.32c9.64 1.07 19.34 1.72 28.89 3.31 12.45 2.08 20.42 10.07 23.88 21.85 5.13 17.46 4.25 34.85-2.61 51.86-2.33 5.77-7.26 8.63-12.14 11.51-9.04 5.34-19.01 7.7-29.41 8.19-15.86.74-31.29-1.15-45.6-8.51-2.66-1.37-5.18-3.56-6.95-5.97-8.82-11.99-10.71-25.85-9.57-40.18.52-6.51 2.33-12.92 3.6-19.37 1.08-5.47 5-8.79 9.15-11.9 8.96-6.72 18.94-10.35 30.27-9.94 3.46.13 6.94.02 10.4.02.02-.29.05-.58.09-.87zm-35.88 56.32c0 2.87-.51 5.98.11 8.84 1.13 5.18 3.69 9.27 9.42 11.06 8.63 2.69 17.42 4 26.36 4.3 11.51.38 22.78-.84 33.14-6.47.82-.45 1.94-1.07 2.14-1.82 1.32-5.04 2.43-10.14 3.77-15.9-25.22-.01-49.89-.01-74.94-.01zm74.48-16.53c.45-12.14-6.52-20.69-17.67-22.24-3.87-.54-7.77-.83-11.67-1.1-13.34-.92-26.59-1.13-38.78 5.7-1.06.6-2.47 1.45-2.74 2.45-1.34 5.05-2.35 10.18-3.46 15.19z"/></g></svg>