<svg enable-background="new 0 0 400 400" viewBox="0 0 400 400" xmlns="http://www.w3.org/2000/svg"><path d="m361.2 9.6.8-1c.9.7 1.9 1.4 2.9 2.3l-.9 1.1c-1-1-2-1.8-2.8-2.4zm.5 10.6c.9-2.1 1.6-4.3 2.3-6.7.4.2.8.4 1.3.6-.7 2.1-1.5 4.3-2.2 6.6zm.4-15.2.9-.9c1 .8 2 1.6 2.8 2.4l-1 1c-.9-.9-1.8-1.7-2.7-2.5zm12.5-1.2h1.2v1.4h2.7v1.1h-2.7v2.7h-1.2v-.6h-1.8v1.3h4.9v3.8h-1.2v-.5h-3.7c0 .4-.1.9-.1 1.2h5.1v1h-5.2c0 .5-.1.9-.2 1.2h6v1h-5.2c1.1 1.3 2.9 2 5.5 2.2-.4.4-.7.8-.9 1.3-2.9-.5-4.8-1.6-5.7-3.5h-.1c-.8 1.7-2.7 2.9-5.9 3.6-.2-.4-.6-.8-.9-1.1 2.8-.6 4.6-1.4 5.4-2.5h-4.8v-1h5.3c.1-.3.2-.7.2-1.2h-4.9v-1h5c0-.4 0-.8.1-1.2h-3.5v.5h-1.2v-3.8h4.9v-1.3h-1.8v.5h-1.2v-2.7h-2.7v-1h2.6v-1.4h1.2v1.4h4.7v-1.4zm-6.6 8.3h3.6c0-.4 0-.9 0-1.4h-3.6zm1.9-4.6h4.7v-1.3h-4.7zm6.6 3.2h-3.7v1.4h3.7z" fill="#fbfcfa"/><path d="m385.3 3.8h1.3v2.2h2.8v-2.2h1.3v2.2h4.1v9.1h1.7v1.3h-16.9v-1.3h1.7v-9.1h4.1v-2.2zm.4 13.1.7 1.2c-1.8.9-3.8 1.9-6 2.9-.2-.4-.5-.8-.8-1.3 2.3-1 4.3-1.9 6.1-2.8zm-3.1-6.4h2.8v-3.2h-2.8zm0 4.6h2.8v-3.3h-2.8zm4-4.6h2.8v-3.2h-2.8zm0 4.6h2.8v-3.3h-2.8zm3.7 1.9c2.1.9 4.1 1.8 6.1 2.7l-.7 1.3c-2.2-1.1-4.2-2-6.1-2.9zm3.2-9.7h-2.8v3.2h2.8zm-2.8 7.8h2.8v-3.3h-2.8z" fill="#fbfcfa"/><g fill="#010102"><path d="m247.3 284.93c.36-6.52.71-12.85 1.07-19.29-4.56-2-8.9-4.06-13.37-5.79-2.48-.96-3.69-2.59-4.42-4.99-2.17-7.15-1.09-14.21.68-21.18 3.63-14.33 8.57-28.2 14.65-41.69.88-1.95 1.26-4.78.52-6.68-3.5-9.03-7.1-18.07-11.38-26.75-4.7-9.53-10.03-18.74-11.89-29.38-.36-2.08-.55-4.22-.58-6.33-.04-3.6 2.93-5.45 6.09-3.81 5.57 2.9 8.8 7.9 11.21 13.37 3.77 8.59 7.12 17.36 10.86 25.96 1.36 3.12 3.3 5.99 5.53 9.97 3.66-8.14 6.82-15.39 10.18-22.54 3.31-7.05 6.6-14.13 10.38-20.94 1.86-3.35 5.14-5.55 9.51-6.02 2.41 5.18 2.17 10.61.41 15.64-2.65 7.55-6.05 14.85-9.3 22.18-4.25 9.59-8.78 19.07-12.92 28.7-.69 1.6-.54 3.99.11 5.68 4.38 11.35 9.35 22.49 13.42 33.95 3.03 8.54 4.79 17.44 3.28 26.7-.71 4.32-1.94 7.83-6.47 9.55-2.8 1.06-5.29 2.94-8.08 4.05-2.5.99-3.82 2.44-3.92 5.14-.16 4.45-.44 8.91-.7 14.01 4.35-.26 8.3-.47 12.24-.74 6.82-.46 9.17-2.08 10.7-8.86 1.02-4.54 1.38-9.31 1.4-13.97.13-29.1.02-58.2.16-87.3.01-2.93 1.02-5.89 1.82-8.76.27-.98 1.24-1.86 2.05-2.59 3.72-3.37 6.27-3.04 7.84 1.58 1.42 4.18 2.77 8.63 2.82 12.98.28 24.39.21 48.78.13 73.17-.04 13.29-2.35 26.28-6.36 38.9-.69 2.17-3.01 4.02-4.94 5.55-4.74 3.75-10.41 4.94-16.32 5.31-3.66.23-7.31.58-11.13.89v19.19c8.55.1 17.09.27 25.62.28 6.37.01 12.75-.45 19.1-.18 4.87.21 9.48 1.66 12.45 6.14 1.51 2.3 1.5 3.85-1.33 5.22-5.61 2.72-11.51 3.42-17.61 3.37-23.61-.19-47.22-.44-70.83-.53-7.83-.03-15.66.57-23.48.43-3.85-.07-7.69-1.18-11.53-1.8-2.4-.39-3.13-1.76-3.21-4.16-.19-5.57-.3-5.55 5.16-7.31 6.96-2.25 14.08-2.06 21.26-1.75 8.71.37 17.44.42 26.16.7 2.22.07 3.2-.54 3.24-2.96.1-5.47.49-10.92.79-17.13-5.57-.57-10.98-1.01-16.35-1.7-3.29-.42-6.71-.75-9.77-1.92-7.77-2.98-9.83-9.92-10.69-17.25-2.85-24.23-5.45-48.51-4.74-72.94.38-13.16 1.77-26.3 3.13-39.41.61-5.91 1.08-5.86 7.99-6.95 3.01 5.9 4.16 12.37 4.78 18.91 2.24 23.69.9 47.4.44 71.11-.16 8.13.47 16.29 1 24.42.25 3.87 2.64 6.54 6.15 8.17 5.32 2.47 10.95 2.67 16.99 2.38zm8.02-75.72c-3.62 8.7-7.3 16.28-9.87 24.21-1.39 4.29-1.09 9.18-1.13 13.81-.01 1.1 1.46 2.83 2.6 3.21 5.77 1.95 11.62 1.88 17.4-.27 1.89-.7 2.74-1.78 2.9-3.91.97-13.6-5.28-24.8-11.9-37.05z"/><path d="m111.44 197.26c0-21.39 0-42.17 0-63.27-3.46-.87-7.18-2.1-11-2.71-11.35-1.83-18.19-9.21-22.76-18.86-5.42-11.46-6.44-23.61-3.9-36.06.43-2.1 1.4-3.33 3.42-4 1.68-.55 3.27-1.39 5.24-2.25 3.88 5.55 5.93 11.72 6.6 18.32.42 4.1.33 8.26.37 12.39.09 8.23 3.23 13.04 10.97 15.76 3.31 1.16 6.89 1.57 11.11 2.48.59-6.72 1.51-12.79 1.57-18.86.09-7.93-.52-15.87-.79-23.81-.35-10.7 1.07-20.99 7.3-30.09.68-.99 1.47-2.09 2.49-2.64 8.45-4.54 16.9-9.07 25.48-13.36 3.48-1.74 7.24-2.95 10.91-4.31 4.12-1.52 7.81.55 8.56 4.75.4 2.24.03 3.87-2.37 5.17-9.73 5.28-19.26 10.92-28.97 16.23-2.45 1.34-4.14 3.05-4.75 5.66-1.36 5.86-3.31 11.71-3.69 17.65-.9 13.92-1.03 27.9-1.49 42.57 4.77-.68 8.98-.54 12.5-2.05 2.11-.9 3.77-4.16 4.52-6.69 1.92-6.49 3.31-13.14 4.72-19.77.7-3.27.75-6.68 1.5-9.93.47-2.01 1.44-4.03 2.64-5.73 3.29-4.68 6.03-4.45 8.68.47 2.68 4.98 3.48 10.34 3.34 15.9-.19 7.55-.97 15.15-4.35 21.89-5.59 11.15-13.65 19.63-27.21 20.5-1.22.08-2.44.32-4.02.53-.59 20.89-1.17 41.76-1.77 63.15 4.14-.57 8.08-1.01 11.97-1.74.75-.14 1.39-1.34 1.92-2.16 4.59-7.14 6.51-15.11 7.33-23.44.34-3.45.6-6.94 1.39-10.29.55-2.32 1.59-4.72 3.04-6.59 3.19-4.1 6.64-3.68 8.79.94 3.4 7.3 3.03 15.02 2.02 22.73-.42 3.21-.99 6.42-1.86 9.53-3.56 12.62-11.06 21.5-24.19 24.82-1.51.38-3.1.39-4.64.67-4.74.85-5.83 2.15-5.83 6.9 0 47.69.03 95.37-.07 143.06-.01 3.64-.74 7.31-1.5 10.89-.48 2.29-2 3.99-4.67 4.1-2.6.11-5.16-.2-6.08-3.03-1.3-3.98-3.18-8.08-3.17-12.12.04-24.17.66-48.34.88-72.51.22-24.51.19-49.03.34-73.54.01-1.86-.8-2.5-2.37-3.01-5.85-1.87-11.69-3.8-17.49-5.8-11.34-3.9-16.61-12.75-17.61-23.88-.84-9.32-.13-18.79-.06-28.19.02-3.1 2.71-3.67 4.82-4.26 2.05-.58 4.23-.85 5.63 1.95 3.56 7.13 4.63 14.65 4.3 22.48-.06 1.45-.18 2.9-.26 4.36-.54 9.89 3.53 15.31 13.2 17.46 2.82.63 5.7 1.01 9.32 1.64z"/><path d="m225.67 53.88c14.87 0 29.76-.38 44.62.14 8.87.31 17.94.98 26.08 5.28 11.22 5.94 16.16 22.04 10.24 33.24-.53 1-1.58 1.84-2.57 2.47-14.14 8.96-29.86 12.31-46.33 12.52-7.03.09-14.07-.63-21.11-1.01-14.98-.8-28.53 2.29-38.64 14.43-7.4 8.88-9.85 19.42-10.89 30.72-2.82 30.75-2.06 61.47-.34 92.23 1.42 25.31-.08 50.55-3.29 75.7-1.5 11.75-2.77 23.54-4.41 35.28-.7 5.02-2.32 9.98-6.14 13.5-1.99 1.83-4.84 3.09-7.5 3.67-1.52.33-3.31-5.28-2.88-8.66 1.07-8.54 1.85-17.14 3.33-25.62 4.27-24.37 4.62-48.94 4.77-73.58.18-30.33.61-60.65 1.18-90.98.27-14.32.75-28.71 5.38-42.45 2.17-6.42 4.4-13.19 8.32-18.54 3.41-4.64 8.96-7.95 14.05-11.06 10.8-6.59 23.07-8.33 35.41-8.95 16.53-.83 33.08-1.15 49.62-1.77 8.51-.32 13.12-8.62 9.04-16.22-.34-.63-1.05-1.25-1.72-1.46-2.64-.83-5.32-2.03-8.01-2.14-25.02-1-50.05-1.86-75.09-2.6-5.68-.17-11.39.37-17.08.46-1.89.03-3.81-.22-5.67-.57-4.57-.87-7.98-5.39-6-9.38 1.13-2.27 5-4.37 7.72-4.47 12.62-.44 25.27-.18 37.91-.18z"/></g></svg>