<svg enable-background="new 0 0 400 400" viewBox="0 0 400 400" xmlns="http://www.w3.org/2000/svg"><g fill="#fbfafa"><path d="m37.59 393.81c-.92.31-1.52.05-2-.78-.7-1.2-1.52-2.34-2.47-3.78v4.59c-.55.03-.95.05-1.41.07-.03-.37-.06-.64-.06-.91 0-1.91 0-3.81 0-5.7 1.13-.41 1.77-.03 2.29.91.62 1.11 1.38 2.14 2.31 3.19v-4.2h1.35v6.61z"/><path d="m12.94 393.88v-6.75c1.9.19 3.93-.54 5.37 1.29.8 1.01.78 2.88.03 3.97-1.37 1.97-3.4 1.51-5.4 1.49m1.45-1.22c2.04.12 2.92-.58 2.89-2.21-.03-1.51-.98-2.19-2.89-2z"/><path d="m11.81 393.87h-5.49c.68-2.18 2.47-3.48 3.51-5.45h-3.08v-1.21h5.29c-.71 2.13-2.44 3.48-3.47 5.51.86 0 1.63.04 2.39-.01.79-.05 1.14.21.85 1.16"/><path d="m39.33 393.86v-6.61h3.7v1.07h-2.22v1.52c.68.04 1.34.09 2.07.13v1.07c-.72.05-1.38.09-2.1.14v1.48h2.4v1.19h-3.85z"/><path d="m27.71 388.56c-1.15-.3-2.46-.61-3.1.64-.37.73-.41 1.93-.06 2.67.63 1.35 1.99.93 3.17.68.35.94-.01 1.32-.93 1.46-1.62.25-3.05-.27-3.76-1.48-.73-1.24-.6-3.03.31-4.17.88-1.11 2.71-1.7 4-1.16.32.13.44.74.65 1.12-.1.08-.19.16-.28.24"/><path d="m49.15 387.24v1.07c-.59.02-1.17.05-1.87.08v5.44h-1.48v-5.44h-1.85c-.05-.4-.08-.73-.13-1.15z"/><path d="m20.06 387.21h1.33v6.62h-1.33z"/><path d="m30.68 393.25c-.49.38-.8.79-1.05.76-.32-.05-.6-.45-.9-.7.26-.24.51-.64.8-.67.29-.04.62.3 1.15.61"/></g><path d="m229.99 152.07c5.56 3.36 7.44 7.98 8.2 13.05 1.69 11.29.36 22.55-.92 33.78-.11 1-.34 1.99-.45 2.99-.4 3.8.72 5.2 4.62 5.12 3.27-.06 4.89 1.48 5.8 4.42.57 1.85.3 3.11-1.23 4.38-5.16 4.3-10.07 8.91-15.36 13.03-4.52 3.51-7.18 7.92-8.04 13.45-.59 3.83-.91 7.7-1.41 12.16 6.37-.94 12.09-1.69 17.75-2.73.87-.16 1.88-1.6 2.16-2.63 1.21-4.52 2.23-9.09 3.22-13.66.86-4.01 1.56-8.03 6.45-9.23 1.79-.44 2.86-.16 3.53 1.83 3.47 10.45 3.67 20.65-2.11 30.42-.74 1.26-1.97 2.38-3.22 3.16-6.15 3.84-13.21 4.6-20.15 5.81-5.75 1.01-5.77 1.06-6.29 6.94-.36 4.12-.55 8.27-.97 12.38-.18 1.8.37 2.58 2.16 3 15.08 3.47 29.25.67 42.21-7.16 4.05-2.44 7.2-6.97 7.21-12.61.01-3.91.13-7.86.68-11.72.28-1.96 1.2-4.18 2.56-5.57 3.54-3.58 6.61-2.78 8.37 1.86 3.85 10.17 2.63 20.33-2.1 29.58-2.05 4.01-6.88 7.01-11.04 9.48-12.93 7.68-27.21 10.41-42.13 10.29-1.56-.01-3.16-.1-4.67.21-2.81.58-4.44 2.18-4.42 5.37.13 17.46.17 34.93.18 52.4 0 2.45-.24 4.92-.63 7.34-.5 3.08-2.55 4.85-5.52 5.62-2.35.61-3.97.15-5-2.37-2.73-6.69-3.13-13.72-3.19-20.77-.14-14.99-.08-29.99-.11-44.98 0-.87-.12-1.74-.2-2.89-6.17-.47-12.16-.93-18.16-1.37-14.93-1.09-27.84-6.59-37.61-18.16-7.97-9.45-7.6-20.35-4.16-31.45.67-2.16 7.15-3.08 8.26-1.12 1.46 2.57 2.73 5.37 3.38 8.23.65 2.91.57 6.01.59 9.03.07 8.58 4.55 14.23 12.16 17.12 4.63 1.76 9.7 2.64 14.65 3.21 6.84.79 13.77.9 20.95 1.33.61-6.79 1.23-12.89 1.6-19.01.04-.64-1.32-1.84-2.15-1.97-4.75-.75-9.6-.92-14.29-1.89-17.92-3.68-26.36-16.63-22.73-34.59.48-2.39 1.28-4.72 1.88-6.88.45-.14.56-.2.67-.21 5.89-.44 5.82-.42 7.4 5.08 1.42 4.94 3.07 9.8 4.53 14.73 1.37 4.59 4.62 7.16 9.09 7.94 4.16.73 8.43.99 12.66 1.13.88.03 2.42-1.23 2.61-2.11 1.53-7.43 2.6-14.96 4.29-22.35.61-2.68 2.01-5.61 3.95-7.48 5.15-4.92 10.79-9.31 16.32-13.97-5.05-4.04-6.84-10.01-7.7-16.32-1.42-10.39-1.55-20.79 1.48-30.94.97-3.24 2.78-6.23 4.39-9.73z" fill="#010105"/><path d="m204.44 61.92h4.44c21.94 0 43.89-.03 65.83.03 4.02.01 8.05.31 12.05.68 4.66.43 7.48 2.74 8.04 6.68.14.96-.57 2.58-1.38 3.05-5.88 3.45-12.42 4.25-19.09 4.21-16.1-.1-32.2-.51-48.3-.37-21.14.18-42.29.57-63.42 1.28-9.15.31-18.3 1.34-27.37 2.65-3.63.52-7.27 2.22-10.46 4.14-4.48 2.7-6.75 6.57-6.84 12.41-.99 63.24-2.24 126.48-3.56 189.72-.45 21.71-1.24 43.42-2 65.12-.1 2.85-.65 5.82-1.7 8.45-.67 1.67-2.42 3.32-4.1 4.07-3.7 1.67-6.18.38-6.53-3.6-.73-8.34-1.52-16.74-1.34-25.09 1.2-55.29 2.76-110.57 3.95-165.85.37-16.9-.13-33.81-.06-50.71.05-12.14 1.89-24.08 4.96-35.81.39-1.49 1.43-3.01 2.59-4.05 8.64-7.74 19.17-10.87 30.35-13.08 15.81-3.13 31.74-3.61 47.73-3.75 2.87-.03 4.32-1.03 4.33-3.68.01-5.12-.09-10.25-.43-15.35-.36-5.37.55-10.43 2.57-15.39.91-2.24 2.18-2.4 4.18-1.63 4.38 1.71 7.24 5.34 7.07 10.37-.19 5.69-1.06 11.35-1.48 17.03-.19 2.66-.03 5.32-.03 8.47z" fill="#010105"/><path d="m252 128.48c.25-6.83.89-13.27.61-19.67-.37-8.23.73-15.99 4.52-23.29 5.68 1.01 9.64 5.02 9.94 11.08.23 4.63-.6 9.32-.9 13.98-.2 3.11-.61 6.25-.35 9.34.39 4.82 4.07 7.63 8.84 6.95 1.11-.16 2.47-1.06 3.05-2.02 2.93-4.82 3.57-10.26 3.88-15.78.21-3.67.32-7.39 1-10.98.82-4.34 3.78-6.93 9.06-8.23 1.35 4.19 3.25 8.25 3.93 12.51 1.63 10.21.11 20.06-5.15 29.13-.49.84-1.1 1.85-1.91 2.23-6.27 2.87-12.52 5.84-18.96 8.27-2.34.88-3.09 1.75-3.02 4.14.39 14.2.81 28.41.85 42.61.02 4.76-.69 9.59-1.7 14.25-.89 4.11-3.71 6.82-8.18 7.28-2.04.21-3.53-.35-3.73-2.69-.71-8.33-1.82-16.66-2.03-25.01-.3-12.08.01-24.17.18-36.26.03-2.09-.59-3.17-2.59-3.98-5.28-2.13-10.33-4.87-15.7-6.73-5.69-1.97-8.19-6.2-9.68-11.44-2.75-9.71-1.96-19.51-.28-29.27.48-2.77 2.74-3.94 5.41-4.17 2.59-.22 4.56.2 5.57 3.28 1.91 5.81 3.18 11.55 2.42 17.75-1.18 9.51 2.6 13.87 14.92 16.72z" fill="#010105"/><path d="m175.58 127.38c4.01-.52 7.9-.91 11.74-1.62.91-.17 2.14-1.31 2.34-2.19 1.11-5 2.05-10.04 2.84-15.11.45-2.86.19-5.87.85-8.66.55-2.3 1.58-4.76 3.13-6.48 3.13-3.48 6.81-2.81 8.76 1.36 3.66 7.83 2.86 15.89.98 23.97-.3 1.31-.71 2.59-1.05 3.88-2.16 8.29-6.95 14.02-15.43 16.49-4.07 1.18-7.97 2.92-11.97 4.33-1.96.69-2.63 1.86-2.62 3.99.09 17.02.08 34.03.01 51.05-.01 2.44-.36 4.9-.81 7.31-.47 2.52-2.26 3.69-4.77 3.95-2.45.25-3.53-1.26-3.97-3.22-1.19-5.31-3.08-10.64-3.13-15.98-.15-14.65.42-29.31.9-43.96.1-2.94-.92-4.14-3.67-4.73-3.16-.68-6.19-1.96-9.35-2.64-7.32-1.58-11.75-6.39-14.14-13.01-3.84-10.61-4.01-21.45-.79-32.3 1.19-4.01 5.02-2.27 8.25-4.53 1.18 6.19 2.31 11.48 3.16 16.82.76 4.73 1.02 9.55 1.87 14.25.65 3.54 2.72 5.95 6.72 6.36 2.3.24 4.54 1.08 7.07 1.72 1.9-5.68 2.33-11.4 2.01-17.19-.45-8.19-.51-16.32 2.33-24.16 4.38-.02 8.16 2.53 8.8 7.06.57 4 .34 8.24-.29 12.26-1.36 8.81-1.57 16.03.23 20.98z" fill="#010105"/><path d="m196.99 152.2c6.69 3.99 8.9 9.97 8.76 16.32-.26 11.82-1.49 23.61-2.24 35.42-.16 2.51-2.01 2.23-3.57 2.54-5.43 1.09-5.66 1.15-6.85-4.17-3.11-13.94-3.26-27.92.32-41.81.71-2.74 2.25-5.27 3.58-8.3z" fill="#010105"/><path d="m292.11 181.42c0 7.39-.1 14.77.05 22.16.06 3.26-2.08 4.1-4.42 4.31-2.31.21-4.69-.21-5.5-3.16-2.04-7.41-2.74-14.95-2.26-22.61.51-8.04 1.02-16.08 1.58-24.12.32-4.67 3.4-5.96 7.4-3.66 3.16 1.82 4.06 4.08 3.9 7.6-.3 6.48-.09 12.98-.09 19.47-.22.01-.44.01-.66.01z" fill="#010105"/><path d="m147.39 181.59c0 7.15-.11 14.31.05 21.46.07 3.19-1.68 4.43-4.32 4.89-2.8.49-5.12-1.21-5.91-3.96-2.35-8.19-2.33-16.53-1.68-24.93.54-6.9 1.11-13.81 1.32-20.73.08-2.73 1.43-4.39 3.5-5.08 1.12-.38 2.81.85 4.21 1.45 3.21 1.36 3.59 3.98 3.49 7.13-.19 6.59-.06 13.18-.06 19.77-.18 0-.39 0-.6 0z" fill="#010105"/></svg>