<svg enable-background="new 0 0 400 400" viewBox="0 0 400 400" xmlns="http://www.w3.org/2000/svg"><path d="m361.2 9.6.8-1c.9.7 1.9 1.4 2.9 2.3l-.9 1.1c-1-1-2-1.8-2.8-2.4zm.5 10.6c.9-2.1 1.6-4.3 2.3-6.7.4.2.8.4 1.3.6-.7 2.1-1.5 4.3-2.2 6.6zm.4-15.2.9-.9c1 .8 2 1.6 2.8 2.4l-1 1c-.9-.9-1.8-1.7-2.7-2.5zm12.5-1.2h1.2v1.4h2.7v1.1h-2.7v2.7h-1.2v-.6h-1.8v1.3h4.9v3.8h-1.2v-.5h-3.7c0 .4-.1.9-.1 1.2h5.1v1h-5.2c0 .5-.1.9-.2 1.2h6v1h-5.2c1.1 1.3 2.9 2 5.5 2.2-.4.4-.7.8-.9 1.3-2.9-.5-4.8-1.6-5.7-3.5h-.1c-.8 1.7-2.7 2.9-5.9 3.6-.2-.4-.6-.8-.9-1.1 2.8-.6 4.6-1.4 5.4-2.5h-4.8v-1h5.3c.1-.3.2-.7.2-1.2h-4.9v-1h5c0-.4 0-.8.1-1.2h-3.5v.5h-1.2v-3.8h4.9v-1.3h-1.8v.5h-1.2v-2.7h-2.7v-1h2.6v-1.4h1.2v1.4h4.7v-1.4zm-6.6 8.3h3.6c0-.4 0-.9 0-1.4h-3.6zm1.9-4.6h4.7v-1.3h-4.7zm6.6 3.2h-3.7v1.4h3.7z" fill="#fbfcfa"/><path d="m385.3 3.8h1.3v2.2h2.8v-2.2h1.3v2.2h4.1v9.1h1.7v1.3h-16.9v-1.3h1.7v-9.1h4.1v-2.2zm.4 13.1.7 1.2c-1.8.9-3.8 1.9-6 2.9-.2-.4-.5-.8-.8-1.3 2.3-1 4.3-1.9 6.1-2.8zm-3.1-6.4h2.8v-3.2h-2.8zm0 4.6h2.8v-3.3h-2.8zm4-4.6h2.8v-3.2h-2.8zm0 4.6h2.8v-3.3h-2.8zm3.7 1.9c2.1.9 4.1 1.8 6.1 2.7l-.7 1.3c-2.2-1.1-4.2-2-6.1-2.9zm3.2-9.7h-2.8v3.2h2.8zm-2.8 7.8h2.8v-3.3h-2.8z" fill="#fbfcfa"/><g fill="#010102"><path d="m124.72 196.63c0-5.86-.05-11.77.01-17.68.15-13.21.43-26.41.51-39.62.04-6.43 1.02-4.82-4.8-6.86-5.59-1.96-11.24-3.72-16.81-5.73-1.51-.55-3.17-1.41-4.14-2.63-11.85-14.7-16.15-31.11-10.59-49.54 1.11-3.67 3.37-5 6.98-4.35.77.14 1.57 1.33 1.97 2.22 4.02 8.9 5.57 18.34 6.06 28.02.59 11.94 8.28 18.6 20.65 17.8 2.25-9.47 2.49-19.16 2.46-28.88-.02-8.72-.3-17.46.29-26.15.92-13.54 8.19-22.89 20.66-28.06 7.94-3.29 15.98-6.38 24.05-9.35 4.12-1.52 8.61 1.43 9.07 5.88.09.9-.96 2.32-1.87 2.85-9.28 5.39-18.53 10.86-28.03 15.85-4.16 2.19-6.34 5.38-7.66 9.57-2.73 8.64-3.39 17.54-3.41 26.53-.02 10.28-.01 20.56-.01 31.36 3.86-.5 8.02-.93 12.13-1.65.75-.13 1.41-1.31 1.95-2.11 5.59-8.31 6.69-17.82 7.52-27.48.31-3.61 1.3-7.25 2.57-10.65 1.18-3.13 3.75-5.19 7.39-5.76 4.66 7.65 5.53 16.04 4.55 24.6-.63 5.52-1.81 11.05-3.36 16.39-3.34 11.49-17.25 21.67-29.29 21.84-.78.01-1.56 0-2.88 0-.36 21.11-.72 42.07-1.09 63.31 4.26-.53 8.14-.91 11.98-1.59.9-.16 1.83-1.18 2.39-2.04 4.41-6.71 6.3-14.23 7.01-22.14.39-4.34.67-8.72 1.51-12.98.74-3.75 2.79-6.81 6.78-8.07 2.15-.68 3.52-.19 4.51 2.01 3.31 7.3 4.05 14.86 2.43 22.63-1.07 5.14-2.28 10.26-3.7 15.31-3.26 11.58-16.5 21.63-28.65 21.94-.89.02-1.78.08-3.36.16 0 4.49.02 8.92 0 13.36-.29 46.01-.57 92.02-.96 138.03-.03 3.08-.74 6.2-1.55 9.19-.62 2.3-2.33 3.66-4.99 3.68-2.67.02-4.7-.77-5.23-3.58-.95-5.13-2.46-10.28-2.48-15.42-.16-46.69-.05-93.38-.02-140.06 0-1.33 0-2.67 0-4.25-4.25-1.05-8.3-2.36-12.46-3.01-7.3-1.15-12.64-5.21-16.47-11.08-8.95-13.71-12.75-28.49-7.74-44.66 1.44-4.64 3.65-5.77 8.25-4.49.79.22 1.54 1.43 1.88 2.34 3.21 8.59 4.24 17.55 4.39 26.67.2 12.68 8.25 19.62 21.6 18.33z"/><path d="m208.92 161.48c-.65 37.18-.63 63.83-1.75 90.44-.67 15.94-3.03 31.82-4.81 47.71-1.33 11.89-2.61 23.81-4.51 35.62-1.22 7.58-3.34 15.05-5.57 22.41-.36 1.17-3.43 1.74-5.34 2.11-.9.18-2.63-.51-2.92-1.23-.99-2.43-2.25-5.11-2.08-7.6.65-9.81 1.47-19.63 2.85-29.36 3.1-21.85 4.56-43.82 5.8-65.83 2.03-36.09 3.5-72.19 4.44-108.33.39-14.87 1.29-29.68.31-44.57-.67-10.15 1.36-20.05 4.97-29.56.57-1.49 1.94-2.97 3.33-3.81 10.75-6.45 22.77-8.75 34.99-9.27 17.63-.75 35.3-.82 52.95-.88 3.48-.01 7.01 1.23 10.44 2.15 3.87 1.04 2.59 4.52 2.68 7.05.03.77-1.92 2.02-3.15 2.38-11.71 3.39-23.69 4.24-35.84 3.96-11.73-.27-23.47-.36-35.2-.13-3.84.07-7.76 1.07-11.47 2.22-5.64 1.76-8.09 5.42-8.24 11.17-.71 27.97-1.43 55.93-1.88 73.35z"/><path d="m308.81 160.38c-.7 10.2-2 20.1-4.53 29.94-2.44 9.49-8.26 15.61-16.89 19.45-14.49 6.46-28.91 6.18-42.97-1.16-2.31-1.21-4.1-3.72-5.7-5.94-8.66-12.04-10.94-25.69-9.79-40.17 1.01-12.66 3.23-25.05 7.9-36.91.58-1.47 1.61-2.93 2.81-3.96 10.17-8.77 22.01-11.51 35.05-9.03 5.13.97 10.38 1.96 15.16 3.93 10.05 4.15 13.8 13.35 16.06 22.98 1.61 6.81 1.98 13.91 2.9 20.87zm-66.32 6.23c.2.06.4.13.6.19.41 4.11.29 8.36 1.34 12.29 3.91 14.61 6.71 18.38 17.55 20.31 2.09.37 4.21.67 6.32.79 11.14.62 18.33-4.19 21.76-14.72 3.43-10.55 4.4-21.44 3.65-32.47-.45-6.65-2.13-12.99-5.85-18.68-2.59-3.96-6.09-6.68-10.81-7.18-8.93-.94-17.91-1.71-25.19 5.33-.4.38-1.04.54-1.37.95-.99 1.25-2.44 2.47-2.72 3.89-1.9 9.75-3.55 19.53-5.28 29.3z"/></g></svg>