<svg enable-background="new 0 0 400 400" viewBox="0 0 400 400" xmlns="http://www.w3.org/2000/svg"><path d="m361.2 9.6.8-1c.9.7 1.9 1.4 2.9 2.3l-.9 1.1c-1-1-2-1.8-2.8-2.4zm.5 10.6c.9-2.1 1.6-4.3 2.3-6.7.4.2.8.4 1.3.6-.7 2.1-1.5 4.3-2.2 6.6zm.4-15.2.9-.9c1 .8 2 1.6 2.8 2.4l-1 1c-.9-.9-1.8-1.7-2.7-2.5zm12.5-1.2h1.2v1.4h2.7v1.1h-2.7v2.7h-1.2v-.6h-1.8v1.3h4.9v3.8h-1.2v-.5h-3.7c0 .4-.1.9-.1 1.2h5.1v1h-5.2c0 .5-.1.9-.2 1.2h6v1h-5.2c1.1 1.3 2.9 2 5.5 2.2-.4.4-.7.8-.9 1.3-2.9-.5-4.8-1.6-5.7-3.5h-.1c-.8 1.7-2.7 2.9-5.9 3.6-.2-.4-.6-.8-.9-1.1 2.8-.6 4.6-1.4 5.4-2.5h-4.8v-1h5.3c.1-.3.2-.7.2-1.2h-4.9v-1h5c0-.4 0-.8.1-1.2h-3.5v.5h-1.2v-3.8h4.9v-1.3h-1.8v.5h-1.2v-2.7h-2.7v-1h2.6v-1.4h1.2v1.4h4.7v-1.4zm-6.6 8.3h3.6c0-.4 0-.9 0-1.4h-3.6zm1.9-4.6h4.7v-1.3h-4.7zm6.6 3.2h-3.7v1.4h3.7z" fill="#fbfcfa"/><path d="m385.3 3.8h1.3v2.2h2.8v-2.2h1.3v2.2h4.1v9.1h1.7v1.3h-16.9v-1.3h1.7v-9.1h4.1v-2.2zm.4 13.1.7 1.2c-1.8.9-3.8 1.9-6 2.9-.2-.4-.5-.8-.8-1.3 2.3-1 4.3-1.9 6.1-2.8zm-3.1-6.4h2.8v-3.2h-2.8zm0 4.6h2.8v-3.3h-2.8zm4-4.6h2.8v-3.2h-2.8zm0 4.6h2.8v-3.3h-2.8zm3.7 1.9c2.1.9 4.1 1.8 6.1 2.7l-.7 1.3c-2.2-1.1-4.2-2-6.1-2.9zm3.2-9.7h-2.8v3.2h2.8zm-2.8 7.8h2.8v-3.3h-2.8z" fill="#fbfcfa"/><g fill="#010102"><path d="m117.25 219.25c0 11.41.09 22.57-.02 33.74-.35 35.92-.72 71.83-1.25 107.74-.05 3.37-.89 6.88-2.07 10.05-1.51 4.06-6.11 5.38-9.76 3.11-.85-.53-1.34-1.95-1.59-3.06-3.37-14.72-3.87-29.7-3.68-44.7.44-34.35.98-68.69 1.57-103.03.04-2.29-.64-3.37-2.84-4.09-4.13-1.35-8.05-3.48-12.25-4.52-8.21-2.04-12.53-8.03-15.49-15.02-5.75-13.58-6.68-27.64-3.05-42.03.98-3.89 4.22-3.11 6.59-3.91.75-.25 2.57 1.28 3.24 2.4 4.66 7.78 6.3 16.2 4.61 25.14-1.56 8.26 1.22 14.54 8.41 18.74 3.04 1.78 6.35 3.1 10.63 5.15 0-7.31-.1-13.63.02-19.95.26-13.65.59-27.29 1.04-40.94.08-2.29-.56-3.39-2.75-4.13-5.92-2-11.71-4.44-17.67-6.31-4.26-1.33-7.06-4.05-9.36-7.62-5.51-8.54-6.92-18.14-6.74-27.95.11-5.87 1.3-11.72 2.06-17.57.53-4.06 4.22-2.97 6.61-3.63.82-.23 2.6 1.32 3.24 2.45 3.42 6 4.45 12.5 4.06 19.39-.22 3.97-.27 8.13.68 11.94 2.36 9.49 8.89 14.29 18.87 14.55 2.78-10.46 3.14-21.25 1.77-32.08-1.44-11.36-1.44-22.47 2.95-33.33 2.72-6.72 7.23-11.38 13.85-14.23 9.13-3.94 18.26-7.88 27.27-12.07 3.47-1.62 6.73-1.19 10.08-.21 2.66.78 3.24 3.02 3.58 5.51.34 2.51-1.2 3.21-2.99 4.08-9.65 4.69-19.19 9.61-28.93 14.1-3.77 1.74-6.51 4.29-7.54 8-1.81 6.52-3.86 13.18-4.23 19.86-.67 12.27-.14 24.61-.24 36.91-.02 2.4.88 3.37 3.16 3.76 5.93 1.01 13.43-2.58 14.98-8.36 1.9-7.07 2.8-14.41 4.03-21.64.58-3.4.79-6.87 1.43-10.26.28-1.49.91-3.15 1.93-4.2 1.65-1.69 3.61-3.37 5.77-4.09.62-.21 2.63 2.76 3.52 4.51 4.83 9.61 3.92 19.51 1.05 29.41-1.06 3.64-2.4 7.2-3.66 10.78-3.58 10.18-11.29 15.15-21.52 16.71-9.86 1.5-9.84 1.4-9.93 11.39-.16 16.78-.39 33.56-.58 50.34-.01.88.08 1.75.14 3.15 4.35-.54 8.52-1 12.66-1.65.67-.11 1.38-1.01 1.77-1.72 1.96-3.51 3.94-7.02 5.67-10.65.69-1.45.95-3.2 1.03-4.84.33-6.37.42-12.75.78-19.11.27-4.8 1.87-8.95 6.57-11.28 2.18-1.08 3.51-.92 4.75 1.53 4.34 8.57 5.2 17.49 3.26 26.76-1.03 4.92-2.07 9.85-3.43 14.68-3.46 12.26-16.38 21.97-29.21 22.15-.58.01-1.13.06-2.85.15z"/><path d="m170.03 365.35c0-3.19-.24-6.23.11-9.21.15-1.32 1.26-2.78 2.34-3.69 12.5-10.52 25.06-20.97 37.64-31.39 14-11.6 22.13-28.42 21.94-46.38-5.48-1.05-11.08-2.34-16.76-3.18-12.27-1.82-21.77-7.4-26.38-19.39-1.34-3.49-2.24-7.36-2.33-11.08-.3-12.88 1.69-25.41 7.3-37.15.69-1.45 1.76-2.85 2.98-3.89 8.46-7.19 18.87-9.23 29.39-11.12 9.85-1.78 19.35 1.01 29 1.68 2.79.19 5.55.94 8.33.94 10.81 0 17.44 6.49 22.91 14.63 5.28 7.85 5.84 16.93 5.03 25.87-.74 8.18-2.77 16.24-4.4 24.33-.26 1.31-1.17 2.67-2.15 3.63-9.39 9.29-21.21 12.96-33.96 14.01-3.11.25-4.5 1.4-4.15 4.13.64 4.95 1.71 9.85 2.58 14.77 1.14 6.43 4.6 11.22 9.46 15.62 15.67 14.2 30.99 28.78 46.43 43.24 1.38 1.29 2.76 2.67 3.8 4.23 1.61 2.42 2.73 5.46.73 7.81-1.9 2.23-5.12 3.11-8.02 1.73-3.19-1.51-6.53-3.14-9.09-5.48-16.93-15.48-33.68-31.16-50.48-46.77-.81-.75-1.66-1.46-2.65-2.33-.98.85-1.92 1.62-2.8 2.44-16.46 15.16-32.89 30.36-49.39 45.48-4.76 4.34-9.79 8.3-17.41 6.52zm32.54-128.67c1.03 4.08 1.46 7.97 3.04 11.31 1.31 2.77 3.49 6.04 6.1 7.13 17.74 7.41 35.68 6.77 53.61.24 5.89-2.15 9.35-6.21 10.86-12.13.99-3.88-.65-5.96-4.6-6-15.1-.18-30.2-.4-45.3-.54-7.6-.07-15.2-.01-23.71-.01zm73.53-14.58c-3.34-10.76-10.86-17.06-21.11-17.84-7.79-.59-15.61-1.17-23.41-1.03-4.82.09-9.71 1.16-14.39 2.46-8.17 2.27-13.61 7.08-12.8 16.4 23.65.01 47.52.01 71.71.01z"/><path d="m231.07 90.75c2.62-10.04 2.94-19.9 1.4-29.82-1.77-11.37-1.58-22.47 3.03-33.27 1.04-2.43 2.22-2.85 4.55-2.07 6.23 2.1 6.63 7.48 6.77 12.58.3 10.51.11 21.03.12 31.55 0 5.59.12 11.19-.05 16.78-.08 2.73 1.35 4.43 3.58 4.23 4.15-.36 8.26-1.42 12.33-2.43.65-.16 1.28-1.56 1.41-2.46 1.21-7.92 2.32-15.86 3.43-23.8.48-3.42.52-6.94 1.44-10.23.56-1.98 2.11-4.01 3.78-5.26 3.64-2.73 6.15-1.85 7.84 2.29 3.47 8.51 2.95 17.29 1.6 26.1-.39 2.54-1.29 5.03-1.43 7.57-.62 11.17-8.7 16.3-17.17 20.68-3.32 1.72-7.59 1.63-11.43 2.34-1.64.31-3.29.58-5.34.94v14.68c0 4.7.13 9.4-.05 14.1-.09 2.39.63 3.8 2.7 5.13 17.89 11.46 35.72 23.01 53.49 34.64 3.26 2.13 6.25 4.71 9.25 7.22 1.09.91 2.26 2.09 2.65 3.37.68 2.25 1.83 6.07.92 6.75-2.07 1.55-5.7 2.81-7.92 2.02-4.4-1.56-8.72-4.07-12.29-7.12-13.06-11.14-26.84-21.21-41.85-29.56-.49-.27-1-.5-1.48-.79-5.65-3.33-11.14-3.92-17.79-1.92-8.09 2.44-14.61 7.04-21.35 11.57-12.9 8.67-25.69 17.5-38.73 25.95-2.44 1.58-5.79 1.92-8.79 2.37-1.95.29-2.89-.82-3.17-3.2-.69-5.97 1.39-9.62 6.57-13.03 15.13-9.95 29.67-20.79 44.69-30.92 4.57-3.08 9.99-4.87 14.9-7.47 1.14-.6 2.53-2.06 2.58-3.18.47-9.72.67-19.45.93-29.18.01-.43-.11-.87-.2-1.56-3.86-.63-7.67-1.52-11.53-1.83-13.2-1.05-19.88-8.81-22.75-21.05-2.93-12.5-1.61-25.07 1.59-37.23.38-.23.47-.32.57-.33 8.07-.99 8.08-1 10.18 6.98 1.72 6.55 2.45 13.17 1.52 19.94-1.44 10.48 1.76 14.98 12.11 17.01 2.37.5 4.82.62 7.39.92z"/><path d="m150.78 331.62c0-3.31-.19-6.34.1-9.32.1-1.09 1.13-2.32 2.07-3.06 7.46-5.88 14.93-11.75 22.56-17.41 4.49-3.33 7.14-7.8 9.58-12.65 2.03-4.04 4.38-8.01 7.19-11.54 2.86-3.6 7.91-2.27 8.99 2.28.51 2.15.27 4.71-.39 6.86-5.92 19.27-19.28 32.28-36.15 42.17-4.09 2.39-8.67 3.43-13.95 2.67z"/><path d="m279.9 278.05c5.51.26 9.51 2.43 12.03 7.09 1.06 1.96 2.1 3.95 3.21 5.89 2.5 4.39 5.35 8.38 9.56 11.46 6.68 4.88 13.22 9.99 19.47 15.4 2.3 1.99 4.32 4.92 5.19 7.8 1.32 4.37-2.67 7.79-7.11 6.39-2.84-.89-5.85-2.03-8.08-3.89-8.93-7.45-17.83-14.98-26.29-22.95-7.69-7.25-10.54-16.36-7.98-27.19z"/><path d="m302.7 145.9c-3.61-1.11-7.69-1.76-11.17-3.57-8.61-4.46-16.99-9.39-25.37-14.28-1.7-.99-3.12-2.54-4.47-4.01-2.96-3.21-2.94-5.04-.54-8.62 1.44-2.14 3-2.83 5.61-2.02 14.53 4.51 27.99 11.13 40.22 20.18 1.86 1.38 3.48 3.16 4.92 4.99 2.38 3.02 2.16 3.98-1.34 5.33-2.34.91-4.9 1.27-7.86 2z"/><path d="m165.51 145.76c-.34-2.39-.77-4.79-.96-7.21-.05-.6.53-1.46 1.07-1.86 13.15-9.55 26.84-18.14 42.7-22.53 4.57-1.26 8.58 1.24 9.67 5.84.22.93-.16 2.52-.85 3.08-13.38 10.77-28.06 19.02-45.04 22.61-2.02.44-4.2.07-6.59.07z"/></g></svg>