<svg enable-background="new 0 0 400 400" viewBox="0 0 400 400" xmlns="http://www.w3.org/2000/svg"><g fill="#010103"><path d="m184.7 69.92c.36-6.92.7-13.61 1.08-21.07-5.7 0-11.24.03-16.78-.01-21.04-.14-42.07-.24-63.11-.5-3.55-.04-7.12-.66-10.64-1.25-2.69-.45-4.72-1.94-5.54-4.74-1.02-3.51-.37-4.55 2.95-6.13 5.06-2.41 10.28-3.14 15.88-3.12 47.79.13 95.58.08 143.38.07 10.29 0 20.57-.18 30.86-.08 2.41.02 4.98.5 7.15 1.48 2.03.92 4.06 2.49 5.32 4.31 2.73 3.93 1.82 6.1-2.61 7.6-10.48 3.55-21.34 3.55-32.2 3.32-16.32-.34-32.64-.81-48.95-1.17-4.67-.1-9.34-.02-13.85-.02 0 7.19-.08 13.63.12 20.06.02.67 1.59 1.65 2.57 1.88 10.44 2.36 21.04 2.73 31.68 2.2 10.95-.55 21.82-.67 32.78.9 19.3 2.78 29.11 14.94 33.05 32.66 3.54 15.91 3.19 32.23 3.34 48.45.08 8.61.25 17.23-.04 25.83-.15 4.42-1.16 8.82-1.89 13.21-.64 3.85-3.99 2.65-6.37 3.3-2.43.66-3.14-1.28-3.48-2.69-1.01-4.19-2.15-8.47-2.27-12.74-.41-14.65-.24-29.31-.63-43.96-.3-11.3-1.57-22.47-4.84-33.42-2.44-8.21-7.6-13.16-15.62-14.78-8.28-1.67-16.71-3.17-25.13-3.53-13.4-.58-26.84-.17-40.26-.17-.55 0-1.09.13-2.29.29 0 6.68.08 13.36-.02 20.04-.21 13.54-.47 27.07-.82 40.61-.06 2.32-.51 4.67-1.05 6.94-.59 2.43-2.04 4.14-4.77 4.52-2.24.32-3.64-.1-4.69-2.48-3.84-8.68-4.06-17.73-3.59-26.97.69-13.61 1.11-27.22 1.68-41.69-10.12-.37-19.56-1.05-29-.97-14.55.11-29.05 1.01-43.06 5.59-2.56.84-4.19 2.26-5.44 4.51-4.19 7.58-6.64 15.81-6.95 24.31-.7 19.66-.7 39.35-1.04 59.02-.06 3.8-.21 7.61-.59 11.38-.28 2.78-1.52 5.14-4.39 6.25-3.66 1.42-6.17.61-7.42-3.04-1.07-3.13-2.15-6.51-2.05-9.74.69-21.57 1.22-43.17 2.81-64.68.7-9.49 3.69-18.82 5.8-28.18.26-1.17 1.29-2.31 2.22-3.18 10.6-9.89 23.41-14.66 37.66-15.58 16.29-1.06 32.6-1.77 48.89-2.64.56-.04 1.11-.11 2.16-.2z"/><path d="m258.84 272.12c8.34.55 16.81.35 24.99 1.81 15.35 2.73 23.54 13.43 26.06 27.97 2.91 16.8.27 33.29-7.1 48.68-1.53 3.19-5.39 5.68-8.72 7.52-24.32 13.43-48.93 13.64-73.12-.04-6.34-3.58-9.16-10.77-11.69-17.55-3.56-9.54-3.23-19.42-1.73-29.17 1.27-8.25 3.5-16.36 5.51-24.48.37-1.49 1.49-3.01 2.68-4.05 8.1-7.06 17.97-9.15 28.32-9.61 4.91-.22 9.84-.04 14.76-.04.01-.34.02-.69.04-1.04zm-7.82 41.04c.14-2.41.32-4.5.38-6.6.15-5.59.31-11.17.27-16.76-.01-.69-1.15-1.89-1.87-1.98-4.72-.57-9.44-1.42-14 1.23-2.58 1.5-5.58 2.24-8.34 3.46-.85.37-1.92 1.05-2.17 1.81-1.4 4.33-3.15 8.65-3.71 13.11-.82 6.45-.15 6.78 6.22 6.49.56-.03 1.12.01 1.68-.01 7.12-.24 14.24-.5 21.54-.75zm44.12.29c1.33-17.95-8.75-27.07-28.75-26.05v26.05zm-72.84 14.41c-.92 17.2 11.33 25.08 26.03 24.37.93-.04 2.58-1.12 2.6-1.75.19-7.1.12-14.2.12-21.56-9.82-.36-19.17-.7-28.75-1.06zm73.25 1.06c-9.91-.36-19.32-.69-28.77-1.03v24.21c9.18.63 17.01-1.98 23.75-7.83.8-.7 1.58-1.68 1.86-2.67 1.11-3.98 2.01-8.01 3.16-12.68z"/><path d="m187.84 316.47c-.67 10.94-2.47 21.54-6.55 31.76-1.36 3.41-3.77 5.41-6.47 7.37-13.62 9.88-29.08 12.69-45.48 11.68-10.38-.64-20.22-3.37-29.59-7.94-3.89-1.9-6.21-5.16-8.19-8.59-10.12-17.54-11.41-36.25-6.19-55.43 3.4-12.47 12.76-19 25.02-20.81 15.73-2.31 31.62-2.81 47.47-1.18 18.57 1.91 27 16.46 29.19 31.1.59 3.98.54 8.03.79 12.04zm-59.91-28.82c-4.13 0-8.3-.61-12.19.17-4.09.82-7.93 2.93-11.83 4.59-.96.41-2.21 1.09-2.5 1.93-1.5 4.3-3.27 8.61-3.91 13.06-.88 6.16.16 6.87 6.36 6.54.67-.04 1.34 0 2.01-.02 7.32-.25 14.65-.51 22.07-.77-.01-8.55-.01-16.68-.01-25.5zm44.29 25.86c.93-18.71-11.23-29.33-28.99-26.1v26.1zm-44.18 15.41c-9.73-.35-19.14-.69-28.51-1.02-1.43 10.57 3.72 18.96 13.24 22.31 4.23 1.49 8.46 3.13 13.02 1.89.91-.25 2.13-1.61 2.15-2.48.18-6.7.1-13.4.1-20.7zm43.31-.85c-9.69 0-18.81 0-28.31 0 0 7.61-.06 15.07.11 22.52.01.62 1.56 1.73 2.39 1.74 7.99.03 15.19-2.26 21.05-7.92.7-.67 1.53-1.47 1.74-2.34 1.09-4.55 1.99-9.14 3.02-14z"/><path d="m195.7 168.41c8.32.77 16.7 1.17 24.96 2.39 15.13 2.24 23.51 11.87 25.89 26.41 2.58 15.8 1.22 31.43-4.92 46.42-3 7.31-9.6 10.8-16.01 14.05-16.53 8.4-33.76 7.59-51.33 3.49-11.53-2.69-19.09-9.44-24.08-19.8-8.32-17.27-9.72-34.76-2.79-52.9 3.08-8.08 8.99-12.81 16.58-15.36 5.84-1.96 12.1-2.88 18.25-3.65 4.4-.55 8.93-.11 13.39-.11.02-.3.04-.62.06-.94zm6.39 15.37v26.56c10.44-.37 20.32-.72 30.48-1.08-.08-6.39-.01-12.46-2.82-17.95-.91-1.79-2.9-3.88-4.69-4.22-7.65-1.44-15.42-2.27-22.97-3.31zm-13.7 1.09c-3.76-.21-7.65-.47-11.54-.64-7.26-.31-14.15 4.49-16.44 11.37-1.6 4.81-2.78 9.63-.64 14.73 9.45-.36 18.79-.71 28.63-1.08-.01-8.19-.01-16.08-.01-24.38zm13.97 64.47c9.66.22 18.21-2.25 25.32-8.73 3.72-3.39 4.24-8.04 3.41-12.63-.26-1.44-2.26-2.88-3.8-3.68-1.28-.67-3.04-.55-4.59-.53-6.76.06-13.52.21-20.58.33 0 7.91-.01 15.15.01 22.38.01.87.14 1.73.23 2.86zm-42.65-24.52c-1.63 14.09 12.4 27.09 26.31 24.33.85-.17 1.96-1.68 2.04-2.64.26-3.22.1-6.47.1-9.71 0-3.85 0-7.7 0-11.98-9.79 0-19.01 0-28.45 0z"/><path d="m174.09 143.05c-6.44 4.15-13.36 5.73-20.56 6.09-10.67.52-21.19-.63-31.54-3.39-1.78-.48-3.04-1.09-2.91-3.27.14-2.34-1.46-4.66 1.69-6.73 4.67-3.06 9.54-1.78 14.31-1.74 10.61.11 21.21.83 31.82.92 3.45.03 5.44.86 6.03 4.36.2 1.19.7 2.33 1.16 3.76z"/><path d="m239.21 104.12c7.25.57 13.3.71 19.24 1.62 5.05.77 7.98 3.96 7.96 7.72 0 .89-.92 2.34-1.69 2.57-15.51 4.48-31.1 5.96-46.87 1.11-2.1-.65-2.81-1.59-2.73-3.75.27-7.3-1.15-5.91 5.7-7.38 6.36-1.37 13.02-1.39 18.39-1.89z"/><path d="m240.85 135.09c5.03 0 10.07-.16 15.1.05 3.84.16 7.58 1.12 10.36 4.08 3.53 3.74 2.84 6.84-1.97 8.65-8.59 3.23-17.56 3.38-26.49 2.42-5.85-.63-11.59-2.24-17.39-3.39-2.07-.41-2.78-1.7-3.19-3.7-.41-1.99.35-2.94 1.68-4.22 3.18-3.06 6.72-4.4 11.17-4 3.55.32 7.15.06 10.73.06z"/><path d="m122.72 106.05c7.17-3.5 14.68-3.55 22.14-3.65 5.58-.08 11.18.07 16.74.57 4.53.4 8.35 2.38 10.21 7.01.75 1.87.49 2.9-1.49 3.92-6.44 3.31-13.31 4.89-20.39 4.43-8.09-.52-16.12-1.94-24.18-2.94-2.5-.31-3.34-1.67-3.06-4.11.19-1.76.03-3.56.03-5.23z"/></g><path d="m385.2 377.6.6-.7c.6.4 1.3.9 1.9 1.5l-.6.7c-.8-.5-1.4-1-1.9-1.5zm.3 7.1c.6-1.4 1.1-2.9 1.5-4.5.3.1.6.3.9.4-.5 1.4-1 2.9-1.5 4.4zm.2-10.1.6-.6c.7.5 1.3 1.1 1.9 1.6l-.7.7c-.6-.6-1.2-1.2-1.8-1.7zm8.4-.8h.8v.9h1.8v.7h-1.8v1.8h-.8v-.3h-1.2v.9h3.3v2.6h-.8v-.4h-2.5c0 .3 0 .6-.1.8h3.4v.7h-3.5c0 .3-.1.6-.1.8h4v.7h-3.5c.7.9 1.9 1.3 3.6 1.5-.2.2-.4.5-.6.9-1.9-.3-3.2-1.1-3.8-2.3-.5 1.1-1.8 2-3.9 2.4-.2-.3-.4-.5-.6-.8 1.9-.4 3.1-.9 3.6-1.7h-3.2v-.7h3.5c.1-.2.1-.5.2-.8h-3.3v-.7h3.4c0-.2 0-.5 0-.8h-2.4v.3h-.8v-2.6h3.3v-.9h-1.2v.3h-.8v-1.8h-1.8v-.7h1.8v-.9h.8v.9h3.2zm-4.4 5.5h2.4c0-.3 0-.6 0-.9h-2.4zm1.2-3.1h3.2v-.8h-3.2zm4.4 2.2h-2.4v.9h2.5v-.9z" fill="#fcfbfa"/><path d="m389.2 385.8h.9v1.5h1.9v-1.5h.9v1.5h2.7v6h1.1v.9h-11.3v-.9h1.1v-6h2.7zm.2 8.7.5.8c-1.2.6-2.5 1.3-4 1.9-.2-.3-.3-.6-.6-.8 1.6-.6 3-1.3 4.1-1.9zm-2-4.3h1.9v-2.1h-1.9zm0 3.1h1.9v-2.2h-1.9zm2.7-3.1h1.9v-2.1h-1.9zm0 3.1h1.9v-2.2h-1.9zm2.4 1.3c1.4.6 2.7 1.2 4.1 1.8l-.5.9c-1.5-.7-2.8-1.4-4.1-1.9zm2.2-6.5h-1.9v2.1h1.9zm-1.9 5.2h1.9v-2.2h-1.9z" fill="#fcfbfa"/></svg>