<svg enable-background="new 0 0 400 400" viewBox="0 0 400 400" xmlns="http://www.w3.org/2000/svg"><path d="m120.43 225.54c5.39-4.39 8.23-9.85 10.46-15.69 3.19-8.37 4.04-17.15 4.49-26.01.64-12.58-.66-25.02-2.23-37.47-.84-6.65-1.16-13.38-1.55-20.08-.34-5.91 5.15-13.99 10.96-16.47 5.34-2.28 13.22-.44 17.68 4.05 5.23 5.26 8.53 11.71 11.44 18.4.76 1.74 1.5 3.48 2.45 5.68.75-1.22 1.3-2.14 1.89-3.04 2.06-3.2 4.76-4.97 8.76-4.01.86.21 1.78.16 2.67.18 7.18.09 8.1-.86 8.48-7.95.49-9.04 1.11-18.08 1.7-27.51-6.17-1.17-12.26-2.32-18.63-3.53-.11 1.33-.17 2.41-.3 3.48-.29 2.43-.17 5.32-3.01 6.23-3.09.98-6.16.4-8.71-1.93-4.38-4-8.62-8.17-13.23-11.87-5.77-4.64-12.03-8.68-19.32-10.49-9.37-2.32-17.93.59-26.04 5.03-2.51 1.37-4.79 3.24-6.95 5.14-4.49 3.93-9.06 7.74-14.98 9.23-2.43.61-5.03.56-8.13.87 0-3.7-.12-6.9.08-10.08.05-.77 1.02-1.65 1.77-2.19 9.68-6.85 19.33-13.75 29.15-20.39 3.31-2.24 7.03-3.92 10.69-5.58 2.22-1 3.43-2.39 3.39-4.79-.06-4.79 0-9.58-.3-14.35-.31-4.89.92-9.32 3.39-13.41.45-.74 2-1.35 2.9-1.2 4.91.84 8.12 4.61 7.95 9.72-.15 4.68-.77 9.35-1.33 14.01-.88 7.34 1.53 12 8.35 16.22 10.1 6.26 18.96 14.5 28.34 21.91.96.76 1.89 1.55 3.06 2.51 1-1.45 1.87-2.81 2.84-4.11 2.5-3.36 5.76-5.2 10.06-5.01 1.22.05 2.46-.03 3.67-.22 4.02-.6 5.51-2.16 5.45-6.19-.12-8.39-.52-16.78-.6-25.17-.04-3.89.21-7.82.71-11.68.22-1.68 1.12-3.43 2.16-4.82 3.38-4.5 8.08-4.19 9.8 1.01 1.58 4.78 2.46 9.96 2.65 15 .37 9.59.09 19.21-.07 28.81-.04 2.52 1.26 3.58 3.32 3.54 4.1-.09 8.23-.3 12.28-.89 5.16-.75 10.02 4.29 8.62 9.36-.18.65-.9 1.22-1.5 1.66-3.19 2.36-6.75 3.3-10.73 2.96-2.78-.24-5.58-.27-8.38-.29-2.31-.01-3.52.76-3.54 3.56-.06 9.17-.37 18.35-.83 27.51-.13 2.56.52 3.77 3.11 3.92 2.12.12 4.22.57 6.34.62 9.78.21 9.79.18 17.41 3.74 2.12-11.75 2.33-23.55 1.98-35.38-.19-6.59-.71-13.22-.25-19.77 1.01-14.42 12.53-24.9 26.97-25.87 14.09-.95 28.12-1.45 42.2 0 5.33.55 5.36.28 7.11 5.4.32.94.58 1.91.91 2.97-4.53 3.23-9.72 3.89-14.96 4.33-3.01.25-6.02.55-9.03.62-2.03.05-2.63 1.03-2.88 2.86-.79 5.76-1.64 11.51-2.62 17.24-.4 2.35-.05 3.96 2.24 5.23 3.19 1.77 6.16 3.92 9.68 6.2.71-4.85 1.25-9.15 2-13.42.67-3.82 2.92-6.02 6.7-6.39 1.07-.11 2.63.49 3.31 1.31 3.05 3.68 4.15 8.14 4.16 12.83.05 20.71.53 41.43-.22 62.11-.35 9.6-3.09 19.13-4.96 28.65-.27 1.36-1.55 2.67-2.64 3.71-7.06 6.66-9.67 14.62-7.04 24.05.45 1.61 1.42 3.22 2.54 4.48 4.42 4.95 8.66 9.98 10.39 16.6 1.52 5.82.66 11.55-.84 17.22-.18.69-.77 1.33-1.3 1.87-.62.64-1.44 1.08-2.05 1.73-7.08 7.5-16.14 10.88-26.01 12.61-.88.15-1.73.46-2.62.59-8.01 1.16-10.55 6.22-8.37 14.95.31 1.22 1.53 2.4 2.61 3.22 8.98 6.85 18.25 13.35 26.96 20.53 4.25 3.51 7.75 8.05 11.13 12.47 4.93 6.45 6.54 14.18 6.99 22.08.46 7.92.35 15.88.65 23.81.09 2.45-.97 3.23-3.16 3.67-6.24 1.25-6.41 1.38-8.21-4.94-1.19-4.17-2.39-8.5-2.48-12.78-.37-18.45-10.07-30.85-24.88-40.35-5.61-3.6-11.39-7.23-16.08-11.86-3.52-3.48-5.56-8.53-8.01-13.01-1.36-2.5-1.64-5.3-.41-8.06.13-.3.14-.65.22-.98 3.31-14.27 3.27-14.33 15.37-22.42 1.77-1.19 4.11-1.67 6.26-2.13 4.92-1.05 9.88-1.88 14.82-2.83 5.4-1.04 7.31-3.49 6.67-8.91-.52-4.36-1.65-8.21-5.68-11.16-9.1-6.65-9.55-16.56-8.9-26.66.07-1.09.35-2.17.58-3.54-4.11-.31-8-.74-11.88-.76-.86 0-2.15 1.31-2.53 2.29-2.8 7.18-5.39 14.45-8.1 21.67-2.32 6.16-5.47 11.6-12.56 13.22-1.29.29-2.66.45-3.98.39-2.44-.12-5.33.8-6.63-2.47-1.4-3.52-.45-6.63 1.91-9.29 2-2.26 4.2-4.35 6.44-6.38 6.14-5.54 6.19-13.35 7.77-20.58.12-.57-.66-1.63-1.29-2.04-12.05-7.86-15.38-20-16.38-33.26-.44-5.89-.63-11.81-.94-17.78-21.32 2.7-42.45 6.89-63.83-1.38.65 4.85 1.24 9.66 1.94 14.44 1.8 12.29 4.19 24.6 2.96 37.05-1.15 11.65-2.92 23.27-5.09 34.77-1.5 7.99-4 15.81-6.31 23.63-1.68 5.7-4.82 8.19-9.29 8.2-2.42.01-3.98-.93-4.83-3.29-1.63-4.52-1.4-9.05-.2-13.54 1.92-7.12 4.31-14.12 5.99-21.29 5.17-22.13 6.51-44.48 2.24-66.9-2.1-10.99-6.94-20.94-14.55-30.84-.83 4.24-2.11 7.62-2.03 10.96.24 10.27.65 20.56 1.65 30.77 1.88 19.25 1.03 38.19-4.89 56.74-2.05 6.41-5.64 11.94-11.36 15.33-7.76 4.61-9.44 10.14-6.66 18.81 3.46 10.82 4.64 22.36 8.03 33.21 3.19 10.19 7.56 20.08 12.15 29.75 6.47 13.63 13.75 26.86 20.41 40.4 1.79 3.65 2.79 7.74 3.76 11.72.56 2.29-.08 4.66-2.9 5.22-2.7.53-5.49 1.21-7.47-1.85-20.89-32.34-37.29-66.69-46.59-104.2-6.03-24.32-7.74-48.96-5.7-73.95 1.21-14.83 1.68-29.72 2.52-44.58.3-5.25.78-10.49 1.04-15.74.09-1.88.31-4.06-.49-5.6-.86-1.66-2.68-3.2-4.43-3.86-.93-.35-3.04.94-3.88 2.05-8.07 10.67-11.96 22.97-13 36.12-2.26 28.83.37 57.2 8.85 84.94.78 2.55 1.38 5.21 1.63 7.86.31 3.24-1.34 5.02-4.52 5.56-3.31.56-7.25-1.01-7.9-3.38-3.97-14.29-9.73-28.12-11.21-43.07-2-20.29-3.86-40.58-.38-60.89 1.94-11.34 5.45-22.27 11.7-31.91 4.16-6.4 10.38-11.19 17.74-13.76 6.43-2.24 13.25 1.12 15.78 7.34 6.19 15.23 6.38 30.97 3.47 46.86-2.5 13.66-5.12 27.3-4.82 41.25.22 7.09 1.12 14.16 1.68 21.23zm134.18-100.56c15.48-.6 30.78-1.2 46.04-1.8.14-8.6-1.43-10.95-8.7-14.19-3.05-1.36-6.09-2.83-8.93-4.57-2.05-1.26-3.73-1.25-5.88-.31-4.7 2.04-9.54 3.78-14.31 5.66-9.88 3.89-9.88 3.89-8.22 15.21zm.77 28.65c15.24-.35 30.16-.69 45.42-1.04-.28-4.02-.72-7.67-.73-11.32 0-2.58-1.02-3.14-3.4-3.15-10.97-.03-21.93-.26-32.9-.4-3.09-.04-6.17-.01-9.45-.01.37 5.41.69 10.3 1.06 15.92zm43.42 13.79c-14.25 0-28.27 0-42.54 0 .56 2.78.96 5.42 1.69 7.98.22.77 1.21 1.62 2.03 1.87 7.95 2.45 16.04 4.11 24.41 3.6 9.62-.59 14.12-4.69 14.41-13.45zm-44.98-68.87c6.02-2.45 11.21-4.49 16.32-6.69.75-.32 1.62-1.38 1.68-2.16.47-5.53.87-11.08.99-16.63.03-1.44-.85-3-1.63-4.32-1.23-2.08-2.94-2.9-5.33-1.49-2.11 1.25-4.46 2.12-6.49 3.47-1.18.78-2.44 2.04-2.8 3.32-1.14 4.08-2.17 8.23-2.65 12.42-.44 3.81-.09 7.7-.09 12.08z" fill="#010103"/><path d="m218.79 195.25c0-6.49-.1-12.39.03-18.29.12-5.67 2.92-8.53 8.23-8.25 1.22.06 2.9 1.13 3.47 2.21 3.29 6.23 4.6 13.07 4.89 20.02.71 17.43-1.52 34.56-5.52 51.51-1.29 5.46-5.49 7.78-10 9.4-7.97 2.88-15.91.77-23.68-1.34-1.27-.34-2.23-2.35-3.04-3.76-4.36-7.62-6.11-16.06-7.09-24.63-1.58-13.82-2.14-27.68 1.06-41.37.88-3.77 2.57-7.35 3.83-11.04.6-1.76 1.74-2.02 3.4-1.61 5.21 1.28 7.74 5.07 7.16 10.46-.45 4.2-.77 8.43-.89 12.66-.08 2.71 1.12 4.28 4.31 4.09 4.2-.25 8.44-.06 13.84-.06zm-14.11 42.76c4.01-.28 7.66-.54 11.55-.81 1.14-8.86 2.26-17.56 3.42-26.53-6.39-.35-12.25-.68-18.51-1.02 1.19 9.56 2.33 18.72 3.54 28.36z" fill="#010103"/><g fill="#fcfbfa"><path d="m385.2 377.6.6-.7c.6.4 1.3.9 1.9 1.5l-.6.7c-.8-.5-1.4-1-1.9-1.5zm.3 7.1c.6-1.4 1.1-2.9 1.5-4.5.3.1.6.3.9.4-.5 1.4-1 2.9-1.5 4.4zm.2-10.1.6-.6c.7.5 1.3 1.1 1.9 1.6l-.7.7c-.6-.6-1.2-1.2-1.8-1.7zm8.4-.8h.8v.9h1.8v.7h-1.8v1.8h-.8v-.3h-1.2v.9h3.3v2.6h-.8v-.4h-2.5c0 .3 0 .6-.1.8h3.4v.7h-3.5c0 .3-.1.6-.1.8h4v.7h-3.5c.7.9 1.9 1.3 3.6 1.5-.2.2-.4.5-.6.9-1.9-.3-3.2-1.1-3.8-2.3-.5 1.1-1.8 2-3.9 2.4-.2-.3-.4-.5-.6-.8 1.9-.4 3.1-.9 3.6-1.7h-3.2v-.7h3.5c.1-.2.1-.5.2-.8h-3.3v-.7h3.4c0-.2 0-.5 0-.8h-2.4v.3h-.8v-2.6h3.3v-.9h-1.2v.3h-.8v-1.8h-1.8v-.7h1.8v-.9h.8v.9h3.2zm-4.4 5.5h2.4c0-.3 0-.6 0-.9h-2.4zm1.2-3.1h3.2v-.8h-3.2zm4.4 2.2h-2.4v.9h2.5v-.9z"/><path d="m389.2 385.8h.9v1.5h1.9v-1.5h.9v1.5h2.7v6h1.1v.9h-11.3v-.9h1.1v-6h2.7zm.2 8.7.5.8c-1.2.6-2.5 1.3-4 1.9-.2-.3-.3-.6-.6-.8 1.6-.6 3-1.3 4.1-1.9zm-2-4.3h1.9v-2.1h-1.9zm0 3.1h1.9v-2.2h-1.9zm2.7-3.1h1.9v-2.1h-1.9zm0 3.1h1.9v-2.2h-1.9zm2.4 1.3c1.4.6 2.7 1.2 4.1 1.8l-.5.9c-1.5-.7-2.8-1.4-4.1-1.9zm2.2-6.5h-1.9v2.1h1.9zm-1.9 5.2h1.9v-2.2h-1.9z"/></g></svg>