<svg enable-background="new 0 0 400 400" viewBox="0 0 400 400" xmlns="http://www.w3.org/2000/svg"><g fill="#fbfafa"><path d="m37.59 393.81c-.92.31-1.52.05-2-.78-.7-1.2-1.52-2.34-2.47-3.78v4.59c-.55.03-.95.05-1.41.07-.03-.37-.06-.64-.06-.91 0-1.91 0-3.81 0-5.7 1.13-.41 1.77-.03 2.29.91.62 1.11 1.38 2.14 2.31 3.19v-4.2h1.35v6.61z"/><path d="m12.94 393.88v-6.75c1.9.19 3.93-.54 5.37 1.29.8 1.01.78 2.88.03 3.97-1.37 1.97-3.4 1.51-5.4 1.49m1.45-1.22c2.04.12 2.92-.58 2.89-2.21-.03-1.51-.98-2.19-2.89-2z"/><path d="m11.81 393.87h-5.49c.68-2.18 2.47-3.48 3.51-5.45h-3.08v-1.21h5.29c-.71 2.13-2.44 3.48-3.47 5.51.86 0 1.63.04 2.39-.01.79-.05 1.14.21.85 1.16"/><path d="m39.33 393.86v-6.61h3.7v1.07h-2.22v1.52c.68.04 1.34.09 2.07.13v1.07c-.72.05-1.38.09-2.1.14v1.48h2.4v1.19h-3.85z"/><path d="m27.71 388.56c-1.15-.3-2.46-.61-3.1.64-.37.73-.41 1.93-.06 2.67.63 1.35 1.99.93 3.17.68.35.94-.01 1.32-.93 1.46-1.62.25-3.05-.27-3.76-1.48-.73-1.24-.6-3.03.31-4.17.88-1.11 2.71-1.7 4-1.16.32.13.44.74.65 1.12-.1.08-.19.16-.28.24"/><path d="m49.15 387.24v1.07c-.59.02-1.17.05-1.87.08v5.44h-1.48v-5.44h-1.85c-.05-.4-.08-.73-.13-1.15z"/><path d="m20.06 387.21h1.33v6.62h-1.33z"/><path d="m30.68 393.25c-.49.38-.8.79-1.05.76-.32-.05-.6-.45-.9-.7.26-.24.51-.64.8-.67.29-.04.62.3 1.15.61"/></g><path d="m272.55 265.51c-7.56 2.38-14.67 5.18-22.03 6.8-9.25 2.03-18.67 3.49-28.09 4.41-6.02.59-9.44-2.64-9.84-7.29-.2-2.31.42-3.98 2.81-4.53 5.21-1.2 10.42-2.46 15.67-3.44 5.82-1.09 11.92-1.17 17.47-3 6.28-2.07 12.11-5.56 18.06-8.57.59-.3 1.11-1.75.9-2.42-1.68-5.29-3.58-10.51-5.36-15.76-1.69-4.97-5.74-7.27-10.37-7.9-7.62-1.03-15.33-1.38-23.02-1.8-.93-.05-2.14 1-2.87 1.85-3.08 3.55-6.64 4.92-11.53 4.67-10.07-.5-10.59.36-11.19 9.81-.13 2.12-.14 4.26-.38 6.36-.69 6.1-3.61 10.61-9.8 12.19-5.84 1.49-11.79 2.53-17.65 3.9-3.72.87-7.79 1.18-10.33 5.32 4.15 2.49 8.17 4.83 12.11 7.31 2.17 1.37 4.36 2.78 6.24 4.51 6.68 6.12 6.52 13.6 3.55 21.28-1.36 3.51-3.25 6.89-5.37 10.01-5.06 7.46-4 16.95 3.03 22.15 8.26 6.12 16.47 12.33 24.51 18.74 4.53 3.61 8.72 7.64 12.98 11.58.96.89 1.8 2.1 2.22 3.32.64 1.87 1.71 4.23 1.08 5.75-1.07 2.56-5.58 3.7-8.34 2.39-3.61-1.72-7.18-3.67-10.45-5.97-8.31-5.87-16.38-12.06-24.65-17.98-6.08-4.35-11.33-9.46-15.27-15.83-4.72-7.63-5.1-15.37-.13-23.04 3.43-5.3 6.11-10.84 7.51-17.07.87-3.88-.28-6.7-3.27-8.74-3.13-2.13-6.48-3.95-9.86-5.68-5.29-2.71-9.79-6.22-12.65-11.93-5.04 2.11-9.85 3.89-14.43 6.13-3.09 1.51-3.05 3.04-.96 5.8 6.66 8.83 13.47 17.57 19.73 26.68 2.28 3.31 3.51 7.46 4.64 11.39 1.11 3.86-2.69 7.36-6.55 5.95-2.47-.9-5.1-2.54-6.65-4.61-7.59-10.11-14.83-20.48-22.2-30.75-.26-.36-.57-.67-1.1-1.28-4.11 6.68-6.55 13.81-8.16 21.23-3.93 18.07-4 36.43-3.93 54.79.01 1.75-.16 3.62-.77 5.24-1.46 3.85-5.21 5.15-8.78 3.1-.79-.46-1.37-1.66-1.62-2.63-3.07-11.74-3.33-23.68-2.07-35.66 1.04-9.9 2.39-19.77 3.78-29.62.37-2.61 1.05-5.29 2.14-7.68 3.29-7.18 6.91-14.22 10.25-21.38.45-.97.4-2.45 0-3.48-1.44-3.75-3.11-7.41-4.7-11.1-.31-.72-.67-1.41-1.02-2.11-8.67-17.27-1.72-27.79 15.41-33.59 7.86-2.66 16.25-3.73 25.03-5.66.48-4.43 1.05-9.72 1.66-15.36-6.98-.91-13.72-1.79-20.46-2.65-3.77-.48-7.68-.5-11.28-1.55-2.36-.69-4.7-2.53-6.32-4.47-3.65-4.37-4.95-9.92-5.07-15.37-.23-10.04.04-20.12.6-30.15.29-5.17 1.01-5.31 8.01-5.68 1.28 3.31 2.53 6.76 3.98 10.12.37.86 1.36 2.05 2.09 2.06 9.14.14 18.28.09 27.93.09 0-5.77 0-11.86 0-18.28-.7 0-1.67-.07-2.63.01-15.28 1.23-30.54 2.62-45.83 3.64-4.17.28-8.43-.4-12.61-.91-2.9-.36-4.08-2.37-4.03-5.26.05-2.85 1.15-4.33 4.19-4.86 6.58-1.14 13.1-2.69 19.65-4.07 0-6.98 0-13.66 0-21.08-6.71 0-13.26.05-19.81-.02-5.08-.05-8.13-2.66-9.32-7.5-.53-2.16-.01-3.56 2.26-3.86 5.52-.74 11.05-1.44 16.6-2.03 2.55-.27 5.13-.33 7.7-.37 2.86-.04 4.65-1.3 5.13-4.19.39-2.31.99-4.61 1.06-6.93.22-6.89 4.45-12.31 11.29-13.86 7.85-1.77 15.71-3.54 23.61-5.04 2.34-.44 3.56-1.6 3.58-3.63.03-5.22-.13-10.46-.44-15.67-.29-4.96.58-9.59 3.35-13.72.52-.77 1.97-1.46 2.87-1.34 5.2.68 8.46 4.47 8.17 9.72-.22 4.01-1.09 7.97-1.37 11.98-.63 9.2-.55 9.45 8.59 9.14 11.06-.37 22.11-1.29 33.17-1.77 2.97-.13 6.1.09 8.93.9 1.97.56 4.03 2.09 5.24 3.77 2.27 3.13 1.48 4.77-2.16 6.04-1.48.52-2.95 1.05-4.43 1.56-7.67 2.63-7.67 2.62-7.67 10.87 0 3.47.03 6.94.06 10.41 0 .21.13.41.5 1.52 5.31.12 10.95.44 16.58.34 5.56-.11 9.06 1.78 10.32 6.09.6 2.07.25 3.52-1.76 4.75-3.95 2.42-8.2 2.77-12.62 2.45-1.12-.08-2.22-.25-3.34-.38-7.93-.91-9.48.1-11.61 7.57-.98 3.44-2.17 6.84-2.86 10.34-.71 3.59-2.81 6.03-6 6.99-5.19 1.55-10.56 2.52-15.88 3.66-3.49.74-7.05 1.18-10.48 2.1-.95.25-1.6 1.72-2.32 2.68-.17.23-.08.65-.11.99-.45 5.57-.89 11.15-1.42 17.72 5.11 0 10.09-.02 15.06.01 3.92.02 7.84.22 11.75.04.96-.04 2.26-1.03 2.71-1.93.89-1.78 1.38-3.77 1.87-5.72.8-3.23 2.96-4.5 6.09-4.72 1.9-.14 3 .41 3.85 2.28 3.57 7.82 4.27 16.06 2.89 24.3-1.25 7.45-3.53 14.72-5.39 22.06-.71 2.81-2.8 4.26-5.43 4.83-7.3 1.59-14.64 3.05-21.96 4.56-14.16 2.94-11.32.62-11.21 14.86 5.87 0 11.75.06 17.63-.01 10.29-.14 20.58-.33 30.87-.58 1.14-.03 2.6-.26 3.34-.99 4.95-4.88 11.07-6.75 17.73-6.75 11.48.01 22.71 1.88 33.59 5.62 1.18.41 2.28 1.36 3.16 2.3 5 5.34 7.73 11.97 10.44 18.61.7 1.72 1.42 3.44 2.38 5.76 9.72-15.3 18.32-30.22 13.01-48.95-.68-2.39-1.87-4.01-4.06-5.33-11.14-6.75-23.46-9.15-36.19-9.92-6.92-.42-13.86-.37-20.79-.66-1.63-.07-3.42-.31-4.82-1.07-3.06-1.65-3.76-4.85-3.21-7.83.2-1.11 2.79-2.35 4.4-2.51 4.41-.44 8.9-.65 13.33-.41 9.7.53 10.31.21 10.33-9.18.06-31.56-.05-63.12.14-94.68.03-4.52 1.01-9.11 2.16-13.51 1-3.84 3.31-7.05 7.66-8.33 3.98 5.99 5.79 12.62 6.06 19.62.21 5.25-.22 10.51-.22 15.77 0 11.18.16 22.35.12 33.53-.01 2.35 1.08 3.03 3.1 3.36 7.97 1.28 15.83.13 23.71-.9 3.52-.46 7.14-.66 10.66-.33 2.21.21 4.83 1.1 6.35 2.61 4.65 4.62 5.26 7.2-.88 10.38-5.1 2.63-10.49 2.7-16.01 2.62-9.14-.13-18.28-.03-27.65-.03-.11.96-.28 1.81-.28 2.66-.02 10.97.06 21.94-.07 32.91-.03 2.22.74 3.15 2.79 3.68 4.98 1.29 9.88 2.87 14.86 4.14 19.73 5.04 27.63 21.14 24.96 39.05-2.07 13.86-7.62 26.63-15.72 38.13-2.1 2.98-5 5.43-7.7 7.93-1.53 1.41-1.74 2.69-1.23 4.69 8.27 32.03 16.48 64.07 24.61 96.14 1.09 4.31 2.06 8.73 2.4 13.15.38 5-3.32 8.57-8.32 8.39-1.01-.04-2.48-1.4-2.86-2.47-3.99-11.26-8.45-22.41-11.51-33.93-4.61-17.38-8.14-35.04-12.24-52.55-1.58-6.83-3.5-13.57-5.28-20.37zm-150.22-3.74c.34 0 .58.07.76-.01 5.56-2.31 11.11-4.64 16.66-6.97 9.79-4.11 9.79-4.11 9.77-14.81-.01-5.14-1.34-7.02-6.42-7.5-9.04-.85-17 2.7-24.71 6.84-.54.29-.96 1.24-1.03 1.93-.78 7.45.32 14.46 4.97 20.52zm40.35-172.31c7.54 0 14.66-.17 21.77.07 3.49.12 5.13-.83 4.96-4.52-.09-1.87.38-3.76.61-5.65.78-6.45-.52-8.56-7.08-8.56-7.05 0-14.11 1.09-21.35 1.72.4 6.21.75 11.73 1.09 16.94zm-15.45 31.32c-.35-5.83-.69-11.35-1.02-16.95-8.65 0-17.04 0-25.31 0v20.07c8.77-1.04 17.28-2.05 26.33-3.12zm15.43 49.72c0 4.94-.09 9.94.11 14.94.03.69 1.5 1.83 2.36 1.88 3.79.24 7.62.46 11.39.13 3.84-.34 7.64-1.26 11.42-2.09.73-.16 1.8-1 1.86-1.61.4-4.27.58-8.56.85-13.25-9.64 0-18.65 0-27.99 0zm-15.19-.19c-9.81 0-18.91 0-28.26 0 .3 5.21.59 10.16.89 15.48h27.37c0-5.16 0-10.25 0-15.48zm15.38 78.22c3.47-.23 6.49-.28 9.47-.65 3.09-.38 6.14-1.08 9.21-1.62 5.15-.9 8.25-3.23 8.18-9.18-.05-4.57-.3-6.2-4.85-6.47-7.29-.43-14.62-.11-22-.11-.01 6.18-.01 11.93-.01 18.03zm-.04-128.86c7.82-1.89 15.19-3.64 22.54-5.49.7-.18 1.68-.94 1.77-1.55.46-2.91.66-5.86.96-8.87-8.71 0-16.93 0-25.27 0zm-40.96-30.22h25.4c-.39-5.5-.74-10.42-1.1-15.54-7.31 1.91-14.12 3.65-20.9 5.53-.77.21-1.73 1.08-1.91 1.82-.65 2.69-1.02 5.46-1.49 8.19z" fill="#010105"/></svg>