<svg enable-background="new 0 0 400 400" viewBox="0 0 400 400" xmlns="http://www.w3.org/2000/svg"><g fill="#fbfafa"><path d="m37.59 393.81c-.92.31-1.52.05-2-.78-.7-1.2-1.52-2.34-2.47-3.78v4.59c-.55.03-.95.05-1.41.07-.03-.37-.06-.64-.06-.91 0-1.91 0-3.81 0-5.7 1.13-.41 1.77-.03 2.29.91.62 1.11 1.38 2.14 2.31 3.19v-4.2h1.35v6.61z"/><path d="m12.94 393.88v-6.75c1.9.19 3.93-.54 5.37 1.29.8 1.01.78 2.88.03 3.97-1.37 1.97-3.4 1.51-5.4 1.49m1.45-1.22c2.04.12 2.92-.58 2.89-2.21-.03-1.51-.98-2.19-2.89-2z"/><path d="m11.81 393.87h-5.49c.68-2.18 2.47-3.48 3.51-5.45h-3.08v-1.21h5.29c-.71 2.13-2.44 3.48-3.47 5.51.86 0 1.63.04 2.39-.01.79-.05 1.14.21.85 1.16"/><path d="m39.33 393.86v-6.61h3.7v1.07h-2.22v1.52c.68.04 1.34.09 2.07.13v1.07c-.72.05-1.38.09-2.1.14v1.48h2.4v1.19h-3.85z"/><path d="m27.71 388.56c-1.15-.3-2.46-.61-3.1.64-.37.73-.41 1.93-.06 2.67.63 1.35 1.99.93 3.17.68.35.94-.01 1.32-.93 1.46-1.62.25-3.05-.27-3.76-1.48-.73-1.24-.6-3.03.31-4.17.88-1.11 2.71-1.7 4-1.16.32.13.44.74.65 1.12-.1.08-.19.16-.28.24"/><path d="m49.15 387.24v1.07c-.59.02-1.17.05-1.87.08v5.44h-1.48v-5.44h-1.85c-.05-.4-.08-.73-.13-1.15z"/><path d="m20.06 387.21h1.33v6.62h-1.33z"/><path d="m30.68 393.25c-.49.38-.8.79-1.05.76-.32-.05-.6-.45-.9-.7.26-.24.51-.64.8-.67.29-.04.62.3 1.15.61"/></g><path d="m267.68 121.96v4.25c0 10.64.1 21.27-.07 31.91-.04 2.63.88 3.69 3.27 4.42 6.19 1.9 12.21 4.46 18.49 5.98 6.4 1.56 10.53 5.58 14.04 10.62 6.09 8.74 7.77 18.33 5.57 28.74-2.51 11.92-6.49 23.29-13.15 33.51-2.4 3.69-5.69 6.86-8.85 9.99-1.77 1.75-2.03 3.28-1.43 5.6 8.11 31.26 16.16 62.54 24.11 93.85 1.29 5.08 2.28 10.27 2.98 15.47.85 6.3-2.35 9.42-8.22 8.56-2.16-.32-3.36-1.16-4.01-3.57-9.23-34.44-18.61-68.83-27.96-103.24-.41-1.49-.88-2.97-1.41-4.77-3.26 1.76-6.3 3.35-9.3 5.01-12.17 6.71-25.45 8.08-38.98 7.86-5.53-.09-9.07-3.01-10.35-7.09-.7-2.25-.25-3.81 2.12-4.32 6.31-1.37 12.6-3.17 18.99-3.8 12.3-1.22 23.53-4.99 34-12.31-2.63-7.05-5.25-14.27-8.1-21.4-.34-.85-1.96-1.53-3.07-1.68-9.17-1.29-18.36-2.4-27.53-3.63-2.76-.37-5.62-.61-8.18-1.59-2.08-.8-4.15-2.31-5.54-4.05-2.39-2.99-1.57-5.14 1.97-6.54 7.26-2.87 14.9-3.47 22.46-2.54 8.05.99 16 2.89 23.93 4.68 1.68.38 3.63 1.67 4.5 3.12 3.67 6.09 7.02 12.38 10.4 18.65.83 1.54 1.31 3.28 2.3 5.83 2.54-4.32 4.88-7.89 6.82-11.67 4.93-9.61 9.12-19.38 7.95-30.68-.74-7.18-2.94-12.48-10.41-15.4-7.49-2.92-14.93-5.08-22.98-5.53-9.6-.54-19.18-1.41-28.74-2.38-5.83-.59-8.03-2.55-9.04-6.96-.46-2.02-.23-3.67 2.17-3.94 4.63-.52 9.28-.97 13.93-1.3 2.55-.18 5.12-.03 7.68-.11 3.03-.09 4.38-1.32 4.39-4.73.1-34.59.41-69.18.61-103.76.03-5.71 1.19-11.07 4.04-16.07.89-1.57 1.8-1.84 3.48-1.39 3.36.89 5.59 2.89 6.36 6.21.55 2.37.86 4.86.87 7.3.02 17.8 0 35.6-.17 53.4-.03 2.63.94 3.85 3.29 4.56 7.41 2.25 14.83 1.11 22.29.35 4.2-.43 8.49-.65 12.68-.31 2.3.18 4.8 1.31 6.69 2.72 5.19 3.88 4.68 7.15-1.13 9.8-7.56 3.46-15.57 2.37-23.47 2.38-6.58-.01-13.16-.01-20.29-.01z" fill="#010105"/><path d="m200.54 362.74c-8.21 2.74-9.94 1.98-11.17-6.41-.99-6.73-1.26-13.58-1.47-20.39-.92-28.75-1.68-57.5-2.53-86.25-.27-9.15-.11-18.36-1.15-27.43-.54-4.68-2.76-9.4-5.13-13.59-2.74-4.84-8.02-6.76-13.23-6.72-14.64.13-29.33.2-43.88 1.58-10.92 1.03-14.12 4.95-15.93 15.96-.92 5.59-.92 11.34-1.14 17.03-1.17 30.64-2.32 61.27-3.39 91.92-.26 7.37-.11 14.76-.39 22.13-.1 2.76-.62 5.58-1.48 8.21-.55 1.7-1.78 3.43-3.18 4.56-3.24 2.64-6.16 1.92-8.11-1.74-2.73-5.14-3.21-10.79-2.48-16.35 2.63-20.07 1.57-40.23 1.98-60.36.48-23.61 1.03-47.22 5.86-70.46.89-4.26 1.91-8.51 3.08-12.7.33-1.19 1.2-2.37 2.14-3.22 6.75-6.12 14.9-9.12 23.84-9.42 15.19-.5 30.41-1.05 45.59-.59 10.38.31 19.73 3.9 24.91 14.2 3.02 6 3.29 12.49 3.8 18.93 3.71 46.57 3.87 93.24 3.61 139.91.02.32-.07.65-.15 1.2z" fill="#010105"/><path d="m144.83 173.15c-13.59-.16-26.68-2.54-38.8-9.01-1.29-.69-2.47-1.86-3.31-3.08-6.68-9.65-8.36-20.06-4.24-31.18.48-1.29 1.28-2.59 2.27-3.54 7.1-6.77 15.7-10.45 25.25-12.32 17.42-3.42 34.3-1.55 50.62 5.14 12.13 4.98 16.63 13.64 14.42 26.55-.02.11-.07.22-.07.33-.69 14.08-10.9 19.51-22.11 23.17-7.65 2.5-15.86 3.32-23.81 4.9-.09-.32-.15-.64-.22-.96zm-.81-46.69c-.01.11-.02.21-.03.32-1.23 0-2.46-.01-3.69 0-9.76.11-19.13 1.7-27.39 7.37-.87.6-1.9 1.45-2.16 2.38-1.66 5.92-.99 11.52 4 15.57 2.45 1.99 5.54 3.45 8.58 4.4 18.62 5.86 35.92 1.77 52.46-7.4.58-.32 1.18-1.12 1.24-1.75.79-8.6-1.3-17.35-12.68-18.99-6.73-.98-13.55-1.29-20.33-1.9z" fill="#010105"/><path d="m117.82 275.44c.12-14.57 2.48-28.72 8.22-42.18.67-1.56 2.24-2.86 3.66-3.95 1.4-1.07 3.25-1.54 4.69-2.57 8.79-6.29 16.83-2.75 24.42 2.18 8.21 5.33 11.25 13.9 12.63 23.11 2.14 14.25 2.81 28.56-.46 42.7-1.35 5.83-3.27 11.77-6.25 16.9-2.95 5.09-8.29 8.47-14.36 8.83-5.51.33-11.1-.5-16.63-1.08-1.1-.12-2.29-1.27-3.07-2.24-9.82-12.17-13.18-26.37-12.85-41.7zm41.13-7.94c-.16-2.39-.19-6.32-.73-10.18-1.04-7.45-3.66-14.01-10.86-17.81-5.37-2.84-8.69-1.56-10.77 4.36-1.8 5.13-3.36 10.44-4.14 15.81-2.17 14.94-1.46 29.64 5.26 43.56 1.78 3.68 4.38 5.01 8.41 3.97 3.85-1 6.79-3.23 8.19-7.17 3.57-10.05 4.32-20.49 4.64-32.54z" fill="#010105"/><path d="m148.77 36.02c-.41 2.54-1.17 5.73-1.38 8.94-.21 3.31-.36 6.78.39 9.95.5 2.11 2.24 4.47 4.11 5.61 14.21 8.69 28.6 17.09 42.9 25.63 2.1 1.26 4.03 2.81 6.02 4.26.54.39 1.04.85 1.51 1.32 2.3 2.24 3.56 5.47 1.88 7.84-1.16 1.64-4.78 2.56-7.03 2.18-3.53-.6-7.06-2.17-10.18-4.01-13.87-8.18-27.62-16.56-41.34-24.98-2.04-1.25-3.61-1.51-5.75-.23-13.02 7.82-26.13 15.49-39.18 23.26-5.66 3.37-11.74 5.37-18.26 6.23-1.82.24-2.54-.27-3.17-1.93-2.09-5.48-2.15-5.45 2.69-8.53 16.13-10.26 32.19-20.64 48.45-30.7 3.41-2.11 4.92-4.78 4.93-8.39.01-3.44-.22-6.93-.83-10.32-1.06-5.93.79-11.05 3.89-15.85.41-.64 1.86-1.07 2.69-.9 5.01 1.06 7.71 4.67 7.66 10.62z" fill="#010105"/></svg>