<svg enable-background="new 0 0 400 400" viewBox="0 0 400 400" xmlns="http://www.w3.org/2000/svg"><path d="m361.2 9.6.8-1c.9.7 1.9 1.4 2.9 2.3l-.9 1.1c-1-1-2-1.8-2.8-2.4zm.5 10.6c.9-2.1 1.6-4.3 2.3-6.7.4.2.8.4 1.3.6-.7 2.1-1.5 4.3-2.2 6.6zm.4-15.2.9-.9c1 .8 2 1.6 2.8 2.4l-1 1c-.9-.9-1.8-1.7-2.7-2.5zm12.5-1.2h1.2v1.4h2.7v1.1h-2.7v2.7h-1.2v-.6h-1.8v1.3h4.9v3.8h-1.2v-.5h-3.7c0 .4-.1.9-.1 1.2h5.1v1h-5.2c0 .5-.1.9-.2 1.2h6v1h-5.2c1.1 1.3 2.9 2 5.5 2.2-.4.4-.7.8-.9 1.3-2.9-.5-4.8-1.6-5.7-3.5h-.1c-.8 1.7-2.7 2.9-5.9 3.6-.2-.4-.6-.8-.9-1.1 2.8-.6 4.6-1.4 5.4-2.5h-4.8v-1h5.3c.1-.3.2-.7.2-1.2h-4.9v-1h5c0-.4 0-.8.1-1.2h-3.5v.5h-1.2v-3.8h4.9v-1.3h-1.8v.5h-1.2v-2.7h-2.7v-1h2.6v-1.4h1.2v1.4h4.7v-1.4zm-6.6 8.3h3.6c0-.4 0-.9 0-1.4h-3.6zm1.9-4.6h4.7v-1.3h-4.7zm6.6 3.2h-3.7v1.4h3.7z" fill="#fbfcfa"/><path d="m385.3 3.8h1.3v2.2h2.8v-2.2h1.3v2.2h4.1v9.1h1.7v1.3h-16.9v-1.3h1.7v-9.1h4.1v-2.2zm.4 13.1.7 1.2c-1.8.9-3.8 1.9-6 2.9-.2-.4-.5-.8-.8-1.3 2.3-1 4.3-1.9 6.1-2.8zm-3.1-6.4h2.8v-3.2h-2.8zm0 4.6h2.8v-3.3h-2.8zm4-4.6h2.8v-3.2h-2.8zm0 4.6h2.8v-3.3h-2.8zm3.7 1.9c2.1.9 4.1 1.8 6.1 2.7l-.7 1.3c-2.2-1.1-4.2-2-6.1-2.9zm3.2-9.7h-2.8v3.2h2.8zm-2.8 7.8h2.8v-3.3h-2.8z" fill="#fbfcfa"/><g fill="#010102"><path d="m180.5 25.78c18.91 0 37.84-.32 56.74.14 9 .22 18 1.69 26.93 3.03 10.23 1.54 15.64 8.41 17.15 18.07 1.74 11.2.97 22.33-4.07 32.77-.6 1.24-1.92 2.45-3.19 2.99-18.6 7.9-38.11 10.2-58.12 9.11-12.49-.68-25-2.61-37.45-2.19-21.34.72-37.85 11.22-49.63 28.84-2.07 3.09-2.45 7.35-3.47 11.11-9.35 34.27-11.1 69.39-9.44 104.51 1.41 29.83 2.79 59.65 3.61 89.5.28 10.27 1.39 20.52 1.6 30.79.09 4.51-.89 9.1-1.85 13.55-.65 3.01-2.52 5.4-5.77 6.43-2.45.78-3.87.34-4.96-2.21-3.63-8.52-5.1-17.48-4.5-26.57 1.71-25.86-.8-51.66-.66-77.5.17-32.67-.39-65.35.02-98.01.26-20.42 4.54-40.17 13.58-58.68 8.16-16.7 20.59-28.45 39.23-31.92 9.95-1.85 20.17-2.6 30.3-3.07 24.13-1.1 48.28-1.71 72.42-2.58 6.07-.22 8.57-1.87 8.83-7.99.27-6.38-.94-12.84-1.71-19.23-.1-.79-1.42-1.63-2.34-2.11-8.43-4.36-17.6-4.73-26.8-4.78-37.26-.2-74.52-.35-111.78-.6-4.8-.03-9.64-.23-14.37-.96-5.71-.88-8.32-5.31-5.37-9.53 1.41-2.02 5-3.5 7.62-3.54 22.47-.27 44.96-.15 67.45-.15z"/><path d="m189.44 183.27c.72 18.01 6.48 41.07 14.15 63.68 10.35 30.54 24.93 59.04 42.66 85.93 2.51 3.8 6.03 6.94 8.48 10.78 2.07 3.24 3.38 6.98 4.79 10.6.82 2.09-.05 3.81-1.89 5.2-1.85 1.4-3.7 1.64-5.58.42-1.58-1.02-3.13-2.18-4.4-3.54-12.33-13.19-21.6-28.45-30.04-44.28-15.61-29.28-28.19-59.82-37.23-91.73-8.04-28.37-6.55-56.39 4.79-83.73.63-1.51 1.95-2.94 3.3-3.89 2.73-1.93 5.94-3.22 8.53-5.3 3.55-2.84 7.3-2.73 11.36-1.98 17.51 3.19 30.95 12.75 41.83 26.44 16.04 20.19 28.63 42.37 38.28 66.25 2.33 5.76 3.45 11.75 2.91 18.03-.17 1.93-.87 2.69-2.7 3.07-6.92 1.45-7.21 1.44-10.53-5.02-1.22-2.37-2.32-4.88-2.95-7.46-4.16-17.16-12.75-32.15-22.87-46.3-8.38-11.73-16.7-23.58-27.67-33.15-5.49-4.79-11.51-8.47-19.2-8.47-3.13 0-5.34.94-7.27 3.65-7.48 10.49-9.03 22.39-8.75 40.8z"/></g></svg>