<svg enable-background="new 0 0 400 400" viewBox="0 0 400 400" xmlns="http://www.w3.org/2000/svg"><path d="m361.2 9.6.8-1c.9.7 1.9 1.4 2.9 2.3l-.9 1.1c-1-1-2-1.8-2.8-2.4zm.5 10.6c.9-2.1 1.6-4.3 2.3-6.7.4.2.8.4 1.3.6-.7 2.1-1.5 4.3-2.2 6.6zm.4-15.2.9-.9c1 .8 2 1.6 2.8 2.4l-1 1c-.9-.9-1.8-1.7-2.7-2.5zm12.5-1.2h1.2v1.4h2.7v1.1h-2.7v2.7h-1.2v-.6h-1.8v1.3h4.9v3.8h-1.2v-.5h-3.7c0 .4-.1.9-.1 1.2h5.1v1h-5.2c0 .5-.1.9-.2 1.2h6v1h-5.2c1.1 1.3 2.9 2 5.5 2.2-.4.4-.7.8-.9 1.3-2.9-.5-4.8-1.6-5.7-3.5h-.1c-.8 1.7-2.7 2.9-5.9 3.6-.2-.4-.6-.8-.9-1.1 2.8-.6 4.6-1.4 5.4-2.5h-4.8v-1h5.3c.1-.3.2-.7.2-1.2h-4.9v-1h5c0-.4 0-.8.1-1.2h-3.5v.5h-1.2v-3.8h4.9v-1.3h-1.8v.5h-1.2v-2.7h-2.7v-1h2.6v-1.4h1.2v1.4h4.7v-1.4zm-6.6 8.3h3.6c0-.4 0-.9 0-1.4h-3.6zm1.9-4.6h4.7v-1.3h-4.7zm6.6 3.2h-3.7v1.4h3.7z" fill="#fbfcfa"/><path d="m385.3 3.8h1.3v2.2h2.8v-2.2h1.3v2.2h4.1v9.1h1.7v1.3h-16.9v-1.3h1.7v-9.1h4.1v-2.2zm.4 13.1.7 1.2c-1.8.9-3.8 1.9-6 2.9-.2-.4-.5-.8-.8-1.3 2.3-1 4.3-1.9 6.1-2.8zm-3.1-6.4h2.8v-3.2h-2.8zm0 4.6h2.8v-3.3h-2.8zm4-4.6h2.8v-3.2h-2.8zm0 4.6h2.8v-3.3h-2.8zm3.7 1.9c2.1.9 4.1 1.8 6.1 2.7l-.7 1.3c-2.2-1.1-4.2-2-6.1-2.9zm3.2-9.7h-2.8v3.2h2.8zm-2.8 7.8h2.8v-3.3h-2.8z" fill="#fbfcfa"/><g fill="#010102"><path d="m290.33 144.67c-.9-4.4-1.55-8.26-2.55-12.03-.25-.95-1.46-1.86-2.45-2.36-7.35-3.72-15.37-3.73-23.28-3.7-19.81.07-39.61.51-59.42.58-12.89.05-25.73-.77-38.13-4.77-10.75-3.47-17.99-12.81-18.97-24.09-.39-4.45-.91-8.89-1.42-13.75-5.32 0-10.53-.02-15.74 0-13.64.07-27.28.33-40.91.12-3.71-.06-7.41-1.44-11.09-2.34-3.65-.89-2.37-3.94-2.67-6.34-.27-2.17.75-3.07 2.64-3.93 5.59-2.54 11.29-3.53 17.49-3.51 57.43.17 114.87.12 172.3.08 12.3-.01 24.6-.33 36.9-.25 3.08.02 6.25.72 9.18 1.69 2.01.67 4.06 2.05 5.44 3.66 3.34 3.89 2.31 7.37-2.37 9.3-6.75 2.78-13.81 2.28-20.85 2.04-6.82-.23-13.64-.6-20.46-.61-36.05-.06-72.1-.03-108.15-.03-4.45 0-5.87.98-5.41 5.42.5 4.84 1.93 9.6 3.18 14.33.23.85 1.5 1.55 2.43 2.06 8.82 4.84 18.46 4.77 28.12 4.69 22.38-.19 44.76-.64 67.13-.37 7.87.09 15.74 1.82 23.57 3.09 11.57 1.86 17.85 9.42 19.81 20.37 1.35 7.55 1.76 15.33 1.96 23.02.79 31.44 1.29 62.88 1.98 94.32.38 17.68.52 35.38 1.55 53.02.47 8.07 2.95 16.01 4.29 24.04 1.64 9.81 3.12 19.64 4.48 29.49.36 2.61.05 5.3.05 7.95-1.05.23-1.58.34-2.12.46-8.21 1.75-8.03 1.66-11.78-6.09-4.58-9.48-5.34-19.77-7.1-29.89-3.23-18.61-2.86-37.46-3.97-56.21-2.16-36.44-3.23-72.91-2.68-109.41.01-.65-.09-1.3-.15-2.15-21.7 0-43.23 0-65.3 0 5.34 7.88 2.11 14.3-2.29 20.91-2.36 3.54-3.71 7.8-5.23 11.84-.84 2.24.12 3.42 2.73 4.13 10.31 2.81 20.9 1.74 31.33 2.81 6.11.63 12.27 1.07 18.29 2.2 4.41.83 8.62 2.6 10.03 7.74.73 2.66.07 4.16-2.73 4.97-8.2 2.37-16.57 2.59-24.96 2.12-13.04-.73-26.06-1.79-39.44-2.74.85 6.1.93 11.72 7.01 15.47 6.06 3.74 11.17 9 17.13 12.94 13.62 9.01 17.56 28.81 11.09 43.45-8.04 18.2-18.29 34.76-31.66 49.48-7.07 7.78-13.5 16.14-20.67 23.83-5.87 6.3-13.05 10.88-21.65 12.77-3.99.88-6.96-1.43-6.26-5.52.46-2.68 1.7-5.77 3.62-7.56 16.88-15.78 32.63-32.6 47.08-50.61 7.78-9.7 13.53-20.52 15.27-33.1.17-1.22.18-2.45.36-3.67 1.2-8.25-1.29-14.44-9.27-18.16-3.29-1.53-6.11-4.06-9.38-6.29-1.25 1.81-2.41 3.44-3.51 5.1-13.01 19.69-28.26 37.53-44.82 54.28-6.52 6.59-13.08 13.17-19.9 19.45-3.52 3.24-7.89 4.56-12.78 2.97-1.77-.58-2.68-1.48-2.19-3.41.05-.21.1-.45.08-.66-.74-5.72 2.22-9.41 6.23-13.09 12.12-11.13 23.94-22.58 35.82-33.97 1.6-1.53 3.06-3.27 4.29-5.11 8.16-12.17 16.24-24.39 24.49-36.8-4.06-4.55-4.96-9.96-4.78-15.87.17-5.56-1.08-6.39-6.62-7.31-10.24-1.71-20.55-3.18-30.63-5.59-13.25-3.17-19.35-12.69-18.01-26.17.46-4.65.5-9.35.59-14.04.06-2.92-2-4.21-4.43-3.62-5.74 1.39-11.38 3.18-17 4.99-.77.25-1.33 1.43-1.78 2.29-2.76 5.24-5.86 10.36-8.03 15.84-1.53 3.86-2.18 8.21-2.52 12.39-1.52 19.17-3.36 38.35-4 57.56-.68 20.46-.22 40.97-.13 61.45.05 10.85.53 21.7.53 32.54 0 2.71-.81 5.52-1.75 8.11-.96 2.64-3.02 4.39-6.03 4.65-3.92.34-4.74-.29-5.76-4.13-3.05-11.52-2.66-23.28-2.49-35.03.46-31.11.68-62.22 1.33-93.32.43-20.83 4.58-41.01 11.4-60.75 2.84-8.23 8.2-13.48 15.82-15.93 8.34-2.68 17.07-4.69 25.78-5.58 15.21-1.57 30.53-2.32 45.82-2.95 29.95-1.23 59.91-2.14 89.87-3.16 2.87-.13 5.77-.04 9.18-.04zm-131.1 18.82c-.37 5.15-.95 9.47-.9 13.79.04 4.19.59 8.4 1.18 12.56.33 2.37 1.97 3.67 4.35 4.49 11.94 4.12 24.3 4.58 36.73 4.39.88-.01 2.12-1.41 2.54-2.44 4.47-10.84 8.81-21.72 13.16-32.6.27-.67.36-1.41.77-3.06-19.54.97-38.57 1.92-57.83 2.87z"/><path d="m198.42 25.98c18 0 36.01-.03 54.01.02 5.36.01 10.74.08 16.09.43 7.08.46 10.92 4.1 10.63 9.93-.05 1.07-.89 2.53-1.8 3.07-4.73 2.78-9.97 3.83-15.42 3.8-34.33-.25-68.66-.54-102.98-.76-8.72-.06-17.44.26-26.15.01-4.09-.12-8.14-1.26-12.23-1.81-2.86-.39-4.02-1.73-4.23-4.75-.36-5.1-.52-4.89 4.05-6.94 4.7-2.1 9.5-2.75 14.62-2.72 21.14.15 42.28.06 63.42.06-.01-.12-.01-.23-.01-.34z"/></g></svg>