<svg enable-background="new 0 0 400 400" viewBox="0 0 400 400" xmlns="http://www.w3.org/2000/svg"><g fill="#fbfafa"><path d="m37.59 393.81c-.92.31-1.52.05-2-.78-.7-1.2-1.52-2.34-2.47-3.78v4.59c-.55.03-.95.05-1.41.07-.03-.37-.06-.64-.06-.91 0-1.91 0-3.81 0-5.7 1.13-.41 1.77-.03 2.29.91.62 1.11 1.38 2.14 2.31 3.19v-4.2h1.35v6.61z"/><path d="m12.94 393.88v-6.75c1.9.19 3.93-.54 5.37 1.29.8 1.01.78 2.88.03 3.97-1.37 1.97-3.4 1.51-5.4 1.49m1.45-1.22c2.04.12 2.92-.58 2.89-2.21-.03-1.51-.98-2.19-2.89-2z"/><path d="m11.81 393.87h-5.49c.68-2.18 2.47-3.48 3.51-5.45h-3.08v-1.21h5.29c-.71 2.13-2.44 3.48-3.47 5.51.86 0 1.63.04 2.39-.01.79-.05 1.14.21.85 1.16"/><path d="m39.33 393.86v-6.61h3.7v1.07h-2.22v1.52c.68.04 1.34.09 2.07.13v1.07c-.72.05-1.38.09-2.1.14v1.48h2.4v1.19h-3.85z"/><path d="m27.71 388.56c-1.15-.3-2.46-.61-3.1.64-.37.73-.41 1.93-.06 2.67.63 1.35 1.99.93 3.17.68.35.94-.01 1.32-.93 1.46-1.62.25-3.05-.27-3.76-1.48-.73-1.24-.6-3.03.31-4.17.88-1.11 2.71-1.7 4-1.16.32.13.44.74.65 1.12-.1.08-.19.16-.28.24"/><path d="m49.15 387.24v1.07c-.59.02-1.17.05-1.87.08v5.44h-1.48v-5.44h-1.85c-.05-.4-.08-.73-.13-1.15z"/><path d="m20.06 387.21h1.33v6.62h-1.33z"/><path d="m30.68 393.25c-.49.38-.8.79-1.05.76-.32-.05-.6-.45-.9-.7.26-.24.51-.64.8-.67.29-.04.62.3 1.15.61"/></g><path d="m205.36 312.8c-.72 12.29-1.42 24.22-2.17 36.93 4.24 0 8.33-.02 12.41 0 23.16.14 46.33.25 69.49.5 3.67.04 7.35.62 11 1.12 2.63.36 4.64 1.81 5.32 4.47.99 3.89.8 5.51-3.11 7.09-9.11 3.68-18.58 3.77-28.09 3.23-42.94-2.45-85.92-1.05-128.88-1.11-14.98-.02-29.97.94-44.86-1.48-.55-.09-1.11-.12-1.66-.22-5.93-1.1-5.82-1.12-6.77-7.06-.32-1.99.17-3.05 2.04-3.39 6.46-1.19 12.92-3.15 19.42-3.31 14.07-.34 28.16.32 42.25.44 11.63.1 23.27.02 35.49.02 0-12.01 0-24.02 0-36.79-4.74 0-9.83.03-14.92-.01-18.13-.13-36.25-.23-54.38-.49-3.22-.05-6.56-.37-9.58-1.37-1.98-.65-4.12-2.42-5.06-4.26-1.87-3.68-.78-5.77 3.11-7.18 8.35-3.03 17.07-3.14 25.81-3.18 18.22-.09 36.44-.27 54.66-.42.2 0 .39-.16.77-.33 0-8.6 0-17.28 0-26.1-9.06-2.74-18.32-2.72-27.58-2.55-7.83.14-15.48-1-22.58-4.19-12.36-5.54-21.4-13.84-21.55-28.7-.02-1.67-.38-3.33-.55-5-.82-8.11.58-6.07-7.34-8.83-.31-.11-.65-.17-.98-.23-14.46-2.52-23.28-11.37-28.14-24.82-4.72-13.08-7.65-26.4-5.98-40.42.07-.56.07-1.12.17-1.67 1.92-10.72 2.76-10.99 13-14.42 12.86-4.3 26.11-2.95 39.2-3.89 10.15-.72 20.33-.96 30.4 1.32 5.88 1.34 11.37 3.05 14.92 8.56.72 1.12 2.71 1.89 4.17 1.99 6.47.45 12.95.65 19.44.8 1.97.05 2.86.72 3.47 2.68 2.79 8.92 4.18 17.95 4.28 27.35.19 18.23 1.06 36.46 1.54 54.69.12 4.47-.27 8.95-.27 13.42 0 1.65.29 3.34.72 4.94.59 2.18 1.96 3.24 4.47 3.02 9.58-.84 19.24-1.04 28.74-2.41 7.14-1.03 14.17-3.18 21.05-5.45 3.73-1.23 4.97-5.18 6.08-8.74.1-.32.13-.66.14-1 .15-3.57.91-7.26.26-10.69-.81-4.29-5.62-3.61-8.61-5-14.27-6.66-25.39-16.19-30.67-31.51-3.81-11.05-4.06-22.37-2.45-33.81.28-1.99.91-3.95.99-5.95.18-4.81 2.8-7.13 7.16-8.7 9.9-3.56 20.08-5.36 30.54-5.6 17.6-.4 35.12.5 52.4 4.08 1.71.35 3.64 1.73 4.6 3.2 4.86 7.5 5.59 16 4.69 24.57-1.23 11.71-2.92 23.64-8.81 33.87-6.35 11.02-14.71 20.69-29.07 21.57-1.33.08-2.64.35-4.14.55-.46 4.22-.87 8.32-1.37 12.41-2.1 17-11.49 25.84-27.75 29.28-14.54 3.07-29.29 5.31-44.27 4.43-2.89-.17-3.99.69-3.93 3.68.15 7.7.05 15.4.05 23.89 4.47 0 9.57-.06 14.67.01 19.46.27 38.92.57 58.38.92 2.79.05 5.63.15 8.33.77 1.97.45 4.12 1.4 5.5 2.81 3.19 3.23 2.5 6.4-1.52 8.37-7 3.42-14.52 4.45-22.18 4.34-19.24-.27-38.47-.71-57.7-1.08-1.33.02-2.64.04-4.21.04zm-17.54-59.54c0-1.52 0-2.74 0-3.97 0-20.8-.05-41.61.03-62.41.02-5.69.64-11.38.67-17.07.03-4.18-1.89-6.65-6.03-7.15-3.33-.41-6.79.25-10.28.44-.87 7.38-1.68 14.25-2.5 21.11-2 16.84-10.23 29.04-26.36 35.3-4.33 1.68-8.75 3.16-13.47 4.85.28 4.02.18 8.09.93 12 1 5.2 3.39 9.96 8.75 11.86 6.81 2.41 13.7 4.83 20.77 6.19 9.03 1.73 18.23 1.79 27.49-1.15zm-98.96-83.14c22.75-.36 45.17-.71 67.84-1.07.35-5.66.67-10.93 1.01-16.53-23.54-.07-46.59-3.36-69.92.31.36 5.76.71 11.39 1.07 17.29zm218.97-17.57c-23.28-.13-46.3-3.36-69.62.29.27 5.81.53 11.44.8 17.29 22.74-.36 45.14-.71 67.76-1.07.36-5.67.69-10.87 1.06-16.51zm-154.27 32.48c-20.85 0-41.56 0-62.45 0 1.43 8.7 6.15 16.13 13.13 19.52 13.66 6.63 27.75 6.12 40.84-3.28 5.77-4.14 7.67-9.69 8.48-16.24zm149.97 0c-20.66 0-41.41 0-62.32 0 1.39 8.91 6.39 16.06 13.58 19.6 12.87 6.33 26.24 5.87 38.91-2.3 6.49-4.19 9.83-9.65 9.83-17.3z" fill="#010105"/><path d="m196.92 37.42c15.99-1.24 31.98-1.63 47.83 1.23 10.57 1.91 14.35 5.06 15.1 15.67 1.39 19.67.33 39.17-9.23 57.16-.93 1.74-2.12 3.43-3.52 4.82-18.66 18.66-41 23.32-66.12 17.24-2.93-.71-5.79-1.74-8.74-2.32-10.77-2.12-18.9-8.66-25.75-16.52-3.54-4.07-5.78-9.58-7.58-14.79-5.54-16.02-6.28-32.32-1.95-48.85 1.3-4.97 4.55-7.99 8.87-9.12 7.62-2 15.43-3.71 23.26-4.33 9.23-.75 18.55-.19 27.83-.19zm46.57 15.7c-.96-.1-1.6-.22-2.26-.23-26.51-.35-53.02-.82-79.53-.86-3.54 0-7.48 1.67-10.43 3.72-1.26.88-.47 4.73-.55 7.23-.04 1.12.09 2.24.09 3.35.01 3.41.01 6.82.01 10.39 32.06-.6 63.3-1.19 94.76-1.78-.71-7.5-1.39-14.49-2.09-21.82zm-90.03 38.02c-.08 4.47 1.33 8.49 3.79 12.21 3.29 4.95 7.31 8.84 13.16 10.83 5.69 1.94 10.99 5.47 16.79 6.59 17.73 3.42 33.3-1.72 46.93-13.47 4.95-4.26 7.96-9.27 8.96-16.16-30.03 0-59.75 0-89.63 0z" fill="#010105"/></svg>