<svg enable-background="new 0 0 400 400" viewBox="0 0 400 400" xmlns="http://www.w3.org/2000/svg"><path d="m361.2 9.6.8-1c.9.7 1.9 1.4 2.9 2.3l-.9 1.1c-1-1-2-1.8-2.8-2.4zm.5 10.6c.9-2.1 1.6-4.3 2.3-6.7.4.2.8.4 1.3.6-.7 2.1-1.5 4.3-2.2 6.6zm.4-15.2.9-.9c1 .8 2 1.6 2.8 2.4l-1 1c-.9-.9-1.8-1.7-2.7-2.5zm12.5-1.2h1.2v1.4h2.7v1.1h-2.7v2.7h-1.2v-.6h-1.8v1.3h4.9v3.8h-1.2v-.5h-3.7c0 .4-.1.9-.1 1.2h5.1v1h-5.2c0 .5-.1.9-.2 1.2h6v1h-5.2c1.1 1.3 2.9 2 5.5 2.2-.4.4-.7.8-.9 1.3-2.9-.5-4.8-1.6-5.7-3.5h-.1c-.8 1.7-2.7 2.9-5.9 3.6-.2-.4-.6-.8-.9-1.1 2.8-.6 4.6-1.4 5.4-2.5h-4.8v-1h5.3c.1-.3.2-.7.2-1.2h-4.9v-1h5c0-.4 0-.8.1-1.2h-3.5v.5h-1.2v-3.8h4.9v-1.3h-1.8v.5h-1.2v-2.7h-2.7v-1h2.6v-1.4h1.2v1.4h4.7v-1.4zm-6.6 8.3h3.6c0-.4 0-.9 0-1.4h-3.6zm1.9-4.6h4.7v-1.3h-4.7zm6.6 3.2h-3.7v1.4h3.7z" fill="#fbfcfa"/><path d="m385.3 3.8h1.3v2.2h2.8v-2.2h1.3v2.2h4.1v9.1h1.7v1.3h-16.9v-1.3h1.7v-9.1h4.1v-2.2zm.4 13.1.7 1.2c-1.8.9-3.8 1.9-6 2.9-.2-.4-.5-.8-.8-1.3 2.3-1 4.3-1.9 6.1-2.8zm-3.1-6.4h2.8v-3.2h-2.8zm0 4.6h2.8v-3.3h-2.8zm4-4.6h2.8v-3.2h-2.8zm0 4.6h2.8v-3.3h-2.8zm3.7 1.9c2.1.9 4.1 1.8 6.1 2.7l-.7 1.3c-2.2-1.1-4.2-2-6.1-2.9zm3.2-9.7h-2.8v3.2h2.8zm-2.8 7.8h2.8v-3.3h-2.8z" fill="#fbfcfa"/><g fill="#010102"><path d="m222.88 263.86c-7.06-.77-13.82-1.44-20.57-2.27-13.47-1.66-20.81-9.73-21.1-23.29-.07-3.33.26-6.7.71-10.01.56-4.12 2.19-7.4 6.44-9.35 4.45-2.03 8.45-5.02 12.76-7.4 1.84-1.02 2.52-2.17 2.14-4.26-.79-4.29-1.25-8.64-2.17-12.89-.23-1.03-1.65-2.4-2.69-2.57-14.92-2.4-29.33 8.09-30.58 22.99-.99 11.9-.81 23.91-.98 35.87-.4 28.2-.45 56.4-1.2 84.59-.25 9.33-1.87 18.67-3.42 27.92-1.22 7.3-5.76 11.32-11.53 11.65-2.18.13-3.68-.58-3.72-2.75-.08-4.54-.33-9.16.33-13.62 1.21-8.17 3.06-16.24 4.55-24.37.32-1.74.33-3.56.34-5.35.07-30.78-.07-61.56.27-92.34.13-12.15.85-24.24 4.95-36.04 3.98-11.46 12.43-16.65 23.17-19.45 4.96-1.29 10.05-2.1 15.08-3.14 1.96-.4 2.99-1.41 3.12-3.63.18-2.99.82-5.95 1.33-9.34-7.47-.73-14.7-1.28-21.87-2.21-4.73-.61-9.51-1.41-14.04-2.83-3.74-1.18-5.91-4.24-6.11-8.42-.09-1.8.39-2.82 2.31-3.36 6.56-1.83 13.03-1.12 19.55.2 5.03 1.02 10.1 1.9 15.17 2.67 2.68.41 4.44-.33 4.26-3.73-.15-2.86.41-5.75.65-8.53-8.53-2.56-16.8-4.85-24.93-7.58-3.66-1.23-7.18-3.07-10.49-5.1-3.09-1.89-4.7-4.99-4.96-8.71-.15-2.11.62-3.27 2.86-2.89 5.72.98 11.47 1.82 17.13 3.08 10.46 2.32 20.84 5.03 31.32 7.28 3.46.75 7.13.53 10.68.9 1.99.21 3.01-.58 3.19-2.46.24-2.55.14-5.16.61-7.67.63-3.36 1.62-6.66 2.53-9.96.59-2.15 2.09-2.21 3.95-1.65 4.9 1.47 6.99 4.65 6.58 9.83-.27 3.33-.37 6.69-.35 10.03.01 2.81 1.41 4.08 4.44 4.09 8.89.04 17.2-2.64 25.55-5.1 8.57-2.52 17.06-5.34 25.62-7.88 2.01-.6 4.18-.68 6.29-.9 2.21-.24 4.56-.12 5.22 2.43.62 2.39.42 4.62-2.1 6.45-11.34 8.27-23.92 13.38-37.72 15.65-2.08.34-4.12.99-6.09 1.47-.15.33-.32.53-.32.74.05 11.23-1.98 8.46 8.61 9.79 7.2.91 14.5 1.03 21.75 1.44 12.23.7 17.96 8.53 14.79 20.29-.23.86-.62 1.72-.67 2.59-.56 8.58-6.81 11.24-13.73 12.6-5.01.98-10.21 1.04-15.33 1.36-5.23.33-10.48.49-16.14.74-.38 4.67-.85 9.07-.97 13.49-.02.63 1.61 1.48 2.61 1.92 8.26 3.64 16.74 6.84 24.78 10.89 8.32 4.2 11.02 10.88 8.56 19.92-1.01 3.71-2.62 7.37-4.57 10.69-3.56 6.07-4.21 12.31-1.6 18.65 4.49 10.91 10.16 21.1 18.55 29.66 5.07 5.18 10.14 10.54 12.05 17.88.63 2.43 2.17 5.18-1.36 6.96-2.75 1.39-6.16.83-8.41-1.98-9.11-11.34-18.3-22.63-27.05-34.24-2.2-2.91-2.94-6.94-4.28-10.49-1.6-4.26-3.12-8.55-4.75-13.02-4.95 1.61-7.15 5.59-9.53 9.28-3.4 5.27-4.19 10.82-2.18 16.96 4.06 12.42 9.28 24.09 17.79 34.25 6.67 7.97 12.48 16.65 18.91 24.82 2.34 2.97 3.52 5.83 1.93 9.93-2.97 0-6.17.04-9.38-.04-.58-.02-1.28-.44-1.71-.88-15.66-15.88-29.55-33.09-37.9-54.01-4.95-12.41-4.83-25.37-1.39-38.24.33-1.25 1.51-2.45 2.59-3.29 6.53-5.09 13.21-9.99 19.71-15.11 3.82-3 7.17-6.44 7.96-11.6.41-2.67-.27-4.3-3.09-5.33-6.82-2.48-13.5-5.35-20.28-7.95-1.16-.45-2.77-.86-3.78-.41-8.8 3.89-18.03 4.25-27.3 3.13-7-.85-12.99 1.45-19.36 3.7-6.49 2.29-9.75 5.69-8.8 12.68.24 1.75.04 3.56.04 5.43 9.55 4.19 19.72 6.25 29.96 8.1 9.79 1.76 12.74 6.84 10.5 16.57-1.58 6.87-5.5 12.12-10.2 16.98-1.46 1.51-1.59 2.85-.87 4.75 3.43 8.98 6.82 17.97 10 27.03 1.29 3.68 3.26 6.7 5.9 9.55 4.65 5.02 8.76 10.49 10.25 17.42.92 4.27-2.54 7.36-6.83 6.06-1.15-.35-2.38-.9-3.21-1.73-10.45-10.41-20.08-21.41-24.41-35.96-1.18-3.95-1.74-8.1-3.12-11.96-1.35-3.79-4.49-4.08-7.2-1.06-.37.42-.72.86-1.07 1.29-2.4 2.95-4.58 6.12-7.25 8.81-2.81 2.84-2.98 5.97-2.39 9.54 1.11 6.64 3.9 12.56 7.54 18.13 5.08 7.78 10.06 15.62 12.75 24.61.55 1.85.84 4.05.35 5.85-.38 1.4-2.04 3.28-3.31 3.42-2.09.25-5.39.02-6.34-1.31-9.19-12.98-17.5-26.56-22.45-41.76-1.58-4.85-1.67-10.36-1.54-15.55.18-7.04 2.66-13.08 9.02-17.35 6.02-4.04 11.55-8.83 17.24-13.35 7.01-5.48 11.51-11.28 13.45-17.33zm-9.23-73.08c.83 5.16 1.66 9.31 2.11 13.5.24 2.23 1.32 3.19 3.3 3.38 5.21.49 10.45 1.43 15.64 1.22 8.4-.34 10.58-3.21 9.88-11.31-.75-8.6-.75-8.6-9.36-8.58-.22 0-.45-.02-.67 0-6.83.59-13.66 1.17-20.9 1.79zm31.3-25.51c-10.31 0-20.2 0-30.22 0v10.75c10.21-.58 20.17-1.14 30.22-1.71 0-3.11 0-5.75 0-9.04zm14.82 9.72c8.29-.49 16.29-.98 24.28-1.43 6.82-.39 6.82-.37 6.18-7.2-.02-.19-.22-.37-.63-1.05-9.68 0-19.65 0-29.83 0zm-14.94-33.22c-10.12-.58-20.07-1.14-30.06-1.71v10.29c.81.06 1.36.14 1.9.13 7.47-.25 14.95-.41 22.41-.8 6.57-.34 6.56-.46 5.75-7.91z"/><path d="m76.81 143.94c0-12.86-.1-25.72.04-38.59.08-7.7 1.84-15.09 5.46-21.92.66-1.26 1.88-2.55 3.16-3.1 10.37-4.51 21.33-5.74 32.49-4.94 5.06.37 10.26 1.04 15.04 2.62 7.33 2.43 10.47 8.83 10.97 15.9 1.35 18.94 2.76 37.93 2.92 56.9.19 23.74-4.23 46.93-11.51 69.53-.54 1.67-2 3.2-3.35 4.44-9.23 8.51-19.64 12.57-31.85 7.08-2.87-1.29-5.45-3.84-7.45-6.37-9.39-11.9-14.85-25.47-15.69-40.65-.76-13.62-1.04-27.27-1.54-40.91.43.02.87.02 1.31.01zm14.16 11.47c-.96 14.8-1.02 29.07 2.47 43.12 1.6 6.47 4.7 12.29 8.89 17.51 5.71 7.12 16.19 5.83 20.13-2.37 3.88-8.08 5.69-16.66 6.6-25.49 1.07-10.41 2.08-20.82 3.16-31.67-14.06-.37-27.42-.73-41.25-1.1zm40.71-13.89c0-12.43.18-23.93-.1-35.42-.09-3.85-1.23-7.69-2.09-11.49-.59-2.63-2.1-4.02-5.19-4.03-7.04-.02-14.07-.48-21.11-.77-7.37-.3-10.85 2.28-12.39 9.36-.59 2.73-1.09 5.48-1.42 8.25-1.25 10.71-1.72 21.4.92 32.02.44 1.76 1.15 2.4 2.93 2.34 4.69-.16 9.39-.23 14.09-.25 8.04-.03 16.08-.01 24.36-.01z"/><path d="m167.64 90.73c-.71 5.03-1.26 9.21-1.91 13.37-.57 3.65-2.41 5.16-6.09 5.42-2.28.17-3.75-.61-4.79-2.74-2.82-5.77-3.27-11.94-2.41-18.03 1.37-9.61 3.31-19.14 5.25-28.66.29-1.43 1.6-3.01 2.88-3.81 5.81-3.64 12.03-6.4 19.05-6.53 8.03-.15 16.08-.42 24.11-.1 9.25.37 15.34 5.81 18.86 13.94 6.03 13.89 6.37 28.16 1.83 42.56-.93 2.97-3.43 3.62-6.14 3.48-2.6-.13-4.16-1.25-4.51-4.25-.49-4.2-1.48-8.36-2.49-12.47-.21-.85-1.42-2.07-2.18-2.07-13.73-.14-27.46-.11-41.46-.11zm42.97-13.87c.27-8.59-3.91-13.19-12.11-13.44-5.8-.18-11.6.03-17.4-.18-4.75-.17-8.02 2.98-11.87 4.84-.4.19-.71.89-.77 1.38-.31 2.39-.52 4.79-.79 7.39 14.47.01 28.59.01 42.94.01z"/><path d="m299.13 91.52c-15.1 0-29.62 0-44.48 0-.53 4.27-1.13 8.44-1.53 12.64-.29 3.13-1.79 4.94-4.91 5.41-3.13.47-5.21-.43-6.52-3.67-2.82-6.99-3.37-14.14-1.94-21.4 1.55-7.88 3.39-15.72 5.44-23.49.48-1.83 1.98-3.86 3.59-4.84 5.85-3.53 12.07-6.31 19.1-6.44 7.26-.13 14.54-.63 21.76-.16 12.07.78 19.11 8.17 22 19.34 3.18 12.3 2.71 24.82.31 37.25-.15.79-1.32 1.75-2.18 1.96-6.33 1.55-6.38 1.51-8.84-4.63-.74-1.85-1.45-3.76-1.75-5.71-.29-1.95-.05-3.97-.05-6.26zm-.38-14.62c0-7.95-3.78-12.56-11.17-13.15-6.11-.49-12.32-.85-18.4-.29-4.06.38-7.97 2.46-11.92 3.86-.4.14-.83.79-.88 1.25-.34 2.71-.58 5.43-.86 8.33z"/><path d="m276.15 26.67c7.71 0 15.42-.18 23.11.12 2.12.08 4.66 1.09 6.19 2.54 3.6 3.4 2.41 7.81-2.2 9.2-10.2 3.09-20.73 3.03-31.2 2.76-7.11-.18-14.25-.92-21.3-1.96-6.2-.91-6.4-1.64-5.63-8.68.22-2.02 3.6-3.94 7.24-3.97 5.7-.05 11.39-.01 17.09-.01z"/><path d="m220.36 36.83c-5.1 1.12-9.92 2.6-14.84 3.17-14.48 1.69-28.99 2.26-43.37-.96-1.63-.36-4.31-.07-3.94-2.99.38-2.96-1.97-7 2.97-8.36 1.6-.44 3.21-1.15 4.83-1.18 11.96-.17 23.93-.45 35.88-.13 4.24.11 8.53 1.51 12.62 2.86 2.92.97 4.97 3.31 5.85 7.59z"/></g></svg>