<svg enable-background="new 0 0 400 400" viewBox="0 0 400 400" xmlns="http://www.w3.org/2000/svg"><g fill="#010103"><path d="m188.88 72.87c-8.7-.3-17.05-.65-25.41-.86-11.63-.29-23.26-.43-34.89-.72-2.11-.05-4.26-.34-6.31-.84-4.16-1.02-6.28-4.68-5.02-8.77.25-.82 1.4-1.6 2.31-1.95 7.98-3.12 16.36-3.31 24.78-3.15 13.09.26 26.18.34 39.26.86 3.76.15 4.69-1.53 4.93-4.56.43-5.24.67-10.5 1.36-15.71.44-3.29 1.55-6.5 2.34-9.75.45-1.87 1.63-2.08 3.3-1.67 5.06 1.22 8.07 4.99 7.7 10.28-.27 3.89-1.09 7.75-1.4 11.64-.75 9.27-.66 9.5 8.29 10.51 16.01 1.81 32.06 3.23 48.05 5.13 12.79 1.52 23.6 7.01 29.37 18.98 2.48 5.14 2.82 11.39 3.65 17.21.43 3.06 1.2 5.51 3.69 7.48 5.18 4.08 10.16 8.43 15.39 12.45 5.58 4.28 9.18 9.7 10.47 16.62.74 3.96-2.73 7.21-6.63 5.89-2.33-.79-4.74-2.09-6.45-3.82-5.9-5.96-11.51-12.21-17.38-18.5-.47.43-.94.72-1.2 1.14-9.2 14.88-23.13 22.01-40 23.76-14 1.45-28.05 2.38-42.1 3.31-2.73.18-3.79.92-3.74 3.66.04 2.09-.38 4.2-.64 6.69 5.69.72 11.17 1.71 16.7 2.06 15.8.98 30.69 5.73 45.56 10.61 13.48 4.42 27 8.75 40.4 13.41 7.49 2.61 11.36 6.6 14 13.2-4.64 4.26-9.95 4.7-15.5 2.24-5.71-2.54-11.28-5.4-16.9-8.16-15.83-7.78-32.9-11.48-50.05-14.62-11.16-2.04-22.5-3.08-34.05-4.6v24.17c3.68.19 7.41.54 11.14.56 9.39.05 18.79-.28 28.17.01 4.88.15 9.56 1.5 11.68 6.86.93 2.34.63 3.87-1.88 5.07-6.07 2.9-12.44 3.23-19 3.05-8.81-.25-17.64-.2-26.46-.23-1.2 0-2.4.26-3.78.42-.27 4.55-.53 8.88-.8 13.43 7.08 1.74 14 2.52 21.06 1.87 7.01-.65 13.97-1.49 21.04-.01 12.19 2.56 15.44 7.88 15.41 20.23-.03 10.54-2.46 20.84-6.14 30.77-.41 1.11-1.09 2.22-1.91 3.07-4.48 4.7-9.04 9.32-13.59 13.95-.47.48-.93 1.02-1.51 1.31-12.42 6.17-25.23 11.9-39.39 9.98-10.33-1.4-20.35-4.98-30.57-7.35-8.63-1.99-14.49-7.27-19.14-14.51-7.13-11.08-12.73-22.61-12.31-36.22.05-1.67.24-3.34.41-5.01 1.13-10.82 2.77-12.05 14.92-15.08 4.91-1.22 10.22-.85 15.35-1.12 2.57-.13 5.16.1 7.72-.12 5.12-.44 10.22-1.07 15.78-1.68 0-4.07.12-8.07-.12-12.04-.04-.68-1.6-1.79-2.48-1.81-8.49-.24-16.98-.24-25.47-.4-5.02-.09-10.08-.03-15.06-.6-4.2-.48-8.1-2.11-9.52-6.78-.65-2.13-.52-4.03 2.21-4.6 4.67-.97 9.33-2.67 14.01-2.75 10.39-.18 20.79.45 31.19.74 1.21.03 2.43 0 4.1 0 .37-8.2.73-16.19 1.14-25.18-4.19-.05-8.38-.81-12.24-.01-20.79 4.27-41.77 7.9-61.77 15.33-6.38 2.37-12.47 5.49-18.79 8.01-4.76 1.89-9.63 3.54-14.54 4.97-2.64.77-5.38.42-7.39-1.91-2.89-3.33-2.47-5.71 1.3-7.86 26.51-15.15 55.09-24.47 85.02-29.77 7.69-1.36 15.56-1.69 23.36-2.39 5.11-.46 5.12-.38 5.08-5.64-.01-.88 0-1.76 0-3.03-3.16-.15-6.12-.37-9.08-.41-17.22-.25-34.44-.44-51.67-.73-2.1-.04-4.26-.34-6.27-.92-4.37-1.26-6.04-4.66-4.34-8.88.35-.87 1.66-1.68 2.67-1.93 9.97-2.44 20.11-2.69 30.33-2.48 12.28.25 24.57.06 37.23.06.34-8.15.69-16.48 1.08-25.78-6.18 0-12.16.05-18.13-.01-22.71-.2-45.43-.43-68.14-.69-1.89-.02-3.81-.17-5.66-.55-4.25-.88-6.5-4.53-5.09-8.55.35-1.01 1.77-1.89 2.89-2.34 7.71-3.11 15.87-3.91 24.04-3.79 13.64.2 27.27 1 40.91 1.32 9.25.22 18.51.04 28.1.04.33-7.23.67-14.22 1.02-21.51zm-40.5 169.69c-.08 11.26 1.93 21.48 8 30.47 2.9 4.29 5.94 9.37 10.22 11.69 14.52 7.85 30.36 10.29 46.45 6.08 15.58-4.08 28.27-11.9 30.46-29.98.08-.66.38-1.29.46-1.96.47-4.31 1.12-8.62 1.28-12.94.1-2.61-1.18-3.95-4.37-3.96-27.96-.06-55.93-.39-83.89-.52-2.83-.01-5.66.72-8.61 1.12zm128.37-144.55c-1.06-10.39-7.67-18.22-18.76-21.05-17.15-4.37-34.74-4.44-52.3-4.15-.7.01-1.95 1.64-1.98 2.54-.19 5.59 0 11.18-.14 16.77-.06 2.47.76 3.28 3.25 3.32 8.16.14 16.31.5 24.46.81 15.06.58 30.12 1.17 45.47 1.76zm-72.95 36.01c14.95.98 29.46.47 43.84-1.8 9.55-1.5 18.23-5.36 25.4-11.99 1.26-1.16 2.08-3.6 1.85-5.27-.15-1.1-2.45-2.37-3.98-2.71-3.26-.72-6.63-1.13-9.96-1.24-16.42-.58-32.84-1.03-49.26-1.5-2.62-.07-5.24-.01-7.89-.01z"/><path d="m94.88 202.28c7.25 1.96 10.63 6.51 10.94 14.3.2 5.03-.03 10.07.01 15.1.17 21.24.24 42.49.58 63.73.29 18.02.81 36.06-3.27 53.78-1.7 7.39-3.73 14.74-6.24 21.88-.69 1.97-3.46 3.8-5.66 4.5s-4.95-.32-5.01-3.44c-.11-5.55-.8-11.31.35-16.64 3.95-18.33 3.98-36.84 4.03-55.41.06-22.15.29-44.31.43-66.46.04-6.03-.46-12.11.17-18.07.46-4.43 2.35-8.72 3.67-13.27z"/><path d="m289.11 202.49c5.33 1.26 8.51 4.62 8.83 10.69.38 7.35.06 14.74.08 22.11.07 26.96.44 53.91.1 80.87-.16 12.9 2.35 25.27 4.59 37.8.95 5.32.47 10.89.65 16.34.1 2.97-1.54 4.74-4.22 5.16-2.55.4-4.66-.47-6.05-3.09-3.6-6.76-4.76-14.1-5.87-21.53-3.26-21.79-1.9-43.75-2.67-65.63-.71-20.12-1.05-40.25-1.66-60.37-.3-9.59 1.49-16.46 6.22-22.35z"/><path d="m133.52 326.36c4.81-.65 9.41-1.8 14-1.82 32.24-.12 64.48-.02 96.71.06 2 0 4.04.23 5.98.68 3.29.76 5.69 2.8 6.37 6.17.21 1.04-.47 2.84-1.33 3.4-4.32 2.82-9.21 3.84-14.36 3.84-13.19.01-26.38-.05-39.56.15-12.52.2-25.05 1.16-37.56.9-8.55-.18-17.06-1.93-25.6-2.87-3.69-.4-5.35-2.08-4.69-5.89.23-1.27.04-2.63.04-4.62z"/><path d="m191.65 272.55c-5.23-.54-13.67-1.23-22.07-2.33-4.87-.64-7.05-6.54-4.1-10.4.36-.48 1.08-.84 1.69-.95 4.15-.73 8.3-1.84 12.47-1.95 10.38-.28 20.78-.31 31.16.02 3.8.12 7.67 1.28 11.28 2.58 1.42.51 3.03 2.67 3.08 4.13.05 1.4-1.48 3.46-2.86 4.22-8.56 4.69-18.01 4.54-30.65 4.68z"/></g><path d="m385.2 377.6.6-.7c.6.4 1.3.9 1.9 1.5l-.6.7c-.8-.5-1.4-1-1.9-1.5zm.3 7.1c.6-1.4 1.1-2.9 1.5-4.5.3.1.6.3.9.4-.5 1.4-1 2.9-1.5 4.4zm.2-10.1.6-.6c.7.5 1.3 1.1 1.9 1.6l-.7.7c-.6-.6-1.2-1.2-1.8-1.7zm8.4-.8h.8v.9h1.8v.7h-1.8v1.8h-.8v-.3h-1.2v.9h3.3v2.6h-.8v-.4h-2.5c0 .3 0 .6-.1.8h3.4v.7h-3.5c0 .3-.1.6-.1.8h4v.7h-3.5c.7.9 1.9 1.3 3.6 1.5-.2.2-.4.5-.6.9-1.9-.3-3.2-1.1-3.8-2.3-.5 1.1-1.8 2-3.9 2.4-.2-.3-.4-.5-.6-.8 1.9-.4 3.1-.9 3.6-1.7h-3.2v-.7h3.5c.1-.2.1-.5.2-.8h-3.3v-.7h3.4c0-.2 0-.5 0-.8h-2.4v.3h-.8v-2.6h3.3v-.9h-1.2v.3h-.8v-1.8h-1.8v-.7h1.8v-.9h.8v.9h3.2zm-4.4 5.5h2.4c0-.3 0-.6 0-.9h-2.4zm1.2-3.1h3.2v-.8h-3.2zm4.4 2.2h-2.4v.9h2.5v-.9z" fill="#fcfbfa"/><path d="m389.2 385.8h.9v1.5h1.9v-1.5h.9v1.5h2.7v6h1.1v.9h-11.3v-.9h1.1v-6h2.7zm.2 8.7.5.8c-1.2.6-2.5 1.3-4 1.9-.2-.3-.3-.6-.6-.8 1.6-.6 3-1.3 4.1-1.9zm-2-4.3h1.9v-2.1h-1.9zm0 3.1h1.9v-2.2h-1.9zm2.7-3.1h1.9v-2.1h-1.9zm0 3.1h1.9v-2.2h-1.9zm2.4 1.3c1.4.6 2.7 1.2 4.1 1.8l-.5.9c-1.5-.7-2.8-1.4-4.1-1.9zm2.2-6.5h-1.9v2.1h1.9zm-1.9 5.2h1.9v-2.2h-1.9z" fill="#fcfbfa"/></svg>