<svg enable-background="new 0 0 400 400" viewBox="0 0 400 400" xmlns="http://www.w3.org/2000/svg"><g fill="#010103"><path d="m260.99 176.86c-.43 5.27-.78 10.28-1.29 15.28-.19 1.88.42 2.78 2.19 3.46 7.66 2.92 14.81 6.77 21.22 11.97 8.24 6.69 12.97 15.24 14.11 25.76 1.83 16.79 3.82 33.56 5.34 50.37 1.05 11.56 2.01 23.19 1.88 34.77-.07 6.92-2.27 13.82-3.59 20.71-.79 4.14-4.47 2.4-6.88 3.01-.7.18-2.5-1.38-2.71-2.38-.95-4.53-2.38-9.2-2.08-13.72 1.63-24.85 1.64-49.64-1.26-74.39-1.56-13.33-5.55-25.62-16.01-34.79-3.29-2.89-7.17-5.1-10.78-7.63-.32.21-.64.41-.96.62 0 7.89.03 15.78-.01 23.67-.16 33.79-.36 67.59-.5 101.38-.04 9.5.26 19.01.07 28.51-.05 2.32-1.03 4.83-2.23 6.87-1.52 2.6-4.32 2.81-7.16 2.42-2.65-.37-2.42-2.52-2.84-4.27-2.56-10.59-1.63-21.36-1.7-32.08-.28-40.28-.53-80.56-.79-120.84-.01-1.89 0-3.79 0-6.22-4.61 1.67-8.89 2.26-12.06 6.38-10.72 13.94-15.82 29.77-16.11 47.09-.37 21.8-.1 43.61-.16 65.42-.01 2.22-.1 4.53-.73 6.62-.56 1.84-1.63 3.74-3.01 5.08-3.8 3.7-7.17 3.2-8.74-1.72-1.5-4.71-2.66-9.79-2.6-14.69.26-18.79.75-37.58 1.76-56.34 1-18.55 5.08-36.5 12.74-53.52.53-1.17 1.35-2.35 2.33-3.16 4.67-3.83 9.26-7.81 14.24-11.19 3.18-2.16 6.95-3.51 10.56-4.95 1.95-.77 2.84-1.73 2.72-3.9-.17-3.24-.2-6.5.01-9.73.15-2.36-.79-3.32-2.95-3.99-8.4-2.6-16.04-6.72-23.14-11.91-9.52-6.97-13.9-18.84-10.98-30.29 1.33-5.2 2.68-10.39 4.28-15.51.44-1.41 1.58-2.98 2.84-3.71 12.49-7.23 26.16-9.71 40.36-8.72 7.54.53 15.07 1.92 22.45 3.6 10.96 2.49 17.32 9.93 18.37 21.17.48 5.2.39 10.5.02 15.72-.34 4.76-2.16 9.09-5.75 12.51-2.51 2.39-4.86 4.95-7.32 7.39-5.32 5.27-11.38 8.97-19.14 9.19-1.22.06-2.42.41-4.01.68zm-6.24-57.57c-.05.25-.09.5-.14.75-1.57 0-3.15-.13-4.7.02-7.87.74-15.93.63-23.21 4.4-1.13.59-2.65 1.46-2.93 2.49-1.89 7.08-2.98 14.15.08 21.32 3.36 7.89 9.73 11.55 17.52 13.6 13.14 3.47 25.51 2.75 36.27-6.63 1.06-.92 2.28-2.1 2.59-3.36 1.25-5.19 2.61-10.42 3.11-15.72.65-6.93-1.99-11.03-8.62-12.92-6.51-1.84-13.3-2.67-19.97-3.95z"/><path d="m151.47 141.29c4.17 0 7.96.11 11.73-.08.89-.04 1.95-.93 2.56-1.71 6.94-8.83 8.53-18.99 7.06-29.8-2.3-16.95-4.73-33.88-7.09-50.82-.98-7.05.32-10.05 5.22-11.26 1.17-.29 3.36.3 3.85 1.18 1.88 3.36 4.09 6.87 4.68 10.56 2.27 14.23 4.16 28.53 5.83 42.84 1.69 14.4.58 28.73-4.49 42.32-2.44 6.54-8.71 10.09-15.54 11.48-4.89.99-9.96 1.1-15.2 1.63-1.02 7.15-2.02 14.22-3.04 21.29-2.2 15.29-3.97 30.63-3.51 46.11.58 19.93 2.24 39.85 6.69 59.25 3.54 15.42 9.06 30.38 13.72 45.54 2.92 9.5 6.11 18.93 8.74 28.51 1.11 4.03 1.31 8.36 1.53 12.57.12 2.27-1.15 4.28-3.78 4.26-2.56-.02-5.57.42-6.75-2.92-8.64-24.53-18.95-48.49-24.58-74.04-6.27-28.43-9.21-57.11-8.02-86.25 1.48-36.27 5.84-72.2 11.82-107.97 2.57-15.35-1.67-29.75-7.75-43.63-2.46-5.61-5.66-10.9-8.45-16.37-2.17-4.26-2.31-8.64.04-12.84.46-.82 2.01-1.59 2.95-1.48 3.8.43 6.87 2.44 8.31 5.97 5.7 13.94 11.64 27.81 16.62 42.01 4.1 11.69 2.49 23.85.64 35.87-1.33 9.05-2.46 18.15-3.79 27.78z"/><path d="m108.51 160.25c6.22-.27 9.69 3.3 8.96 9.57-1.42 12.33-3.1 24.62-4.54 36.95-2.11 18.08-6.07 36.12-3.58 54.4 2.35 17.24 5.47 34.39 8.71 51.49 1.09 5.75 3.87 11.17 5.31 16.88.68 2.7.11 5.73-.03 8.6-.12 2.52-1.52 4.71-3.96 4.57-2.02-.11-4.69-1.28-5.8-2.87-4.72-6.77-7.28-14.53-8.95-22.58-6.13-29.46-8.99-59.23-8.09-89.32.68-22.7 4.35-44.91 11.43-66.52.14-.41.37-.8.54-1.17z"/><path d="m250.25 25.05c7.03 1.26 10.22 4.98 10 11.65-.17 5.35-.96 10.68-1.48 16.02-.03.33-.07.67-.1 1-.69 9.14-.25 10.24 8.27 13.06 17.19 5.7 30.16 17.1 41.71 30.4 2.2 2.54 3.53 5.91 4.89 9.06.52 1.21.51 3.81-.11 4.14-1.7.89-4.28 1.78-5.75 1.08-3.47-1.65-6.9-3.82-9.63-6.51-8-7.91-16.77-14.73-26.41-20.53-12.41-7.46-24.62-6.63-36.81.34-1.13.65-1.97 1.8-3.02 2.63-8.5 6.71-16.89 13.56-25.6 19.98-2.7 1.99-6.27 2.83-9.48 4.07-1.75.68-2.88.02-3.57-1.84-1.17-3.17-.55-7.01 2.03-9.22 10.26-8.83 20.34-17.89 31.01-26.2 3.92-3.05 9.13-4.69 13.99-6.23 5.1-1.61 6.73-5.01 6.76-9.76.04-6.7-.41-13.44.13-20.1.36-4.44 2.08-8.75 3.17-13.04z"/><path d="m175.58 174.9c-1.1 7.01-2.14 14.31-3.41 21.57-3.51 20.06-3.22 40.06.51 60.06 1.8 9.66 3.08 19.42 5.09 29.03 2.08 9.98 7.71 18.48 12.32 27.41 2.21 4.29 3.47 9.11 4.81 13.78.75 2.6-.49 3.78-3.39 4.78-5.08 1.75-7.11-1.21-9.42-4.41-9.63-13.33-15.23-28.33-17.65-44.46-2.87-19.12-5.7-38.27-7.74-57.49-2.04-19.17.91-37.92 7.23-56.12 1.35-3.87 3.72-4.59 7.22-2.48 3.04 1.85 4.63 4.45 4.43 8.33z"/><path d="m124.3 106.73c-.87 11.08-4.12 21.52-11.37 30.37-4.6 5.62-9.55 10.97-14.57 16.23-3.7 3.87-8.08 6.72-13.74 6.89-3.6.11-5.88-2.09-4.97-5.57.62-2.35 1.9-4.79 3.56-6.55 5.69-6 11.83-11.59 17.54-17.57 8.45-8.87 11.37-19.31 7.87-31.22-2.45-8.36-5.13-16.65-7.66-24.99-1.68-5.51-2.83-11.09-1.08-16.81 1.46-4.79 3.78-5.66 7.79-2.56 1.86 1.43 3.62 3.55 4.41 5.72 4.58 12.7 9.59 25.3 11.5 38.8.34 2.32.47 4.67.72 7.26z"/></g><path d="m377.9 391.2c-.2.3-.4.5-.6.8-.7-.6-1.4-1-2.2-1.5.2-.3.4-.5.5-.8.6.4 1.4.8 2.3 1.5zm-1.8 6.1c-.2-.2-.5-.4-.9-.6.4-.6.8-1.2 1.2-1.9s.7-1.3.9-1.9c.3.3.5.5.8.7-.7 1.3-1.4 2.6-2 3.7zm2.2-9c-.3.3-.5.5-.6.8-.6-.6-1.3-1.1-2-1.5.3-.3.5-.5.6-.7.6.5 1.3.9 2 1.4zm.3.2v-.9h2 4.5c-.3 1.3-.6 2.5-1 3.6s-.9 2.1-1.4 3c.4.5 1 1 1.6 1.4s1.2.8 1.9 1.1c-.3.2-.5.4-.8.8-.4-.3-1-.7-1.6-1.2s-1.2-1.1-1.6-1.6c-.5.6-1.1 1.1-1.7 1.6s-1.4.9-2.1 1.4c-.1-.3-.3-.5-.7-.8.6-.2 1.2-.5 1.9-1s1.4-1.1 2-1.8c-.5-.8-.9-1.6-1.2-2.5s-.6-2-.8-3.2c-.4.1-.7.1-1 .1zm2.5 2.7c.3 1 .7 1.7 1 2.2.3-.5.6-1.1 1-2s.6-1.9.9-3h-3.2-.4c.1.9.3 1.8.7 2.8z" fill="#fcfbfa"/><path d="m396.5 388.5v1.5 3.6h1.5v.9c-.4 0-1 0-1.7 0h-7.9c-.5 0-.9 0-1.2 0v-.9h1.3v-3.5c0-.7 0-1.2 0-1.6h2.4c0-.8 0-1.4 0-1.7h1c0 .3-.1.8-.1 1.7h1.5c0-.8 0-1.4 0-1.7h1c0 .3-.1.9-.1 1.7zm-8.2 9.2c-.2-.3-.5-.5-.8-.8.8-.3 1.4-.6 1.9-.9s1-.7 1.4-1.1c.3.3.6.5.9.8-1.6 1-2.8 1.6-3.4 2zm2.6-6.8v-1.6h-1.5v1.6zm0 2.7v-1.9h-1.5v1.9zm2.4-2.7v-1.6h-1.5v1.6zm0 2.7v-1.9h-1.5v1.9zm.2 2 .7-.8c.4.2.9.5 1.6.8s1.3.7 1.8 1c-.3.3-.5.5-.8.8-.4-.3-1.5-1-3.3-1.8zm2-4.7v-1.6h-1.4v1.6zm0 2.7v-1.9h-1.4v1.9z" fill="#fcfbfa"/></svg>