<svg enable-background="new 0 0 400 400" viewBox="0 0 400 400" xmlns="http://www.w3.org/2000/svg"><path d="m361.2 9.6.8-1c.9.7 1.9 1.4 2.9 2.3l-.9 1.1c-1-1-2-1.8-2.8-2.4zm.5 10.6c.9-2.1 1.6-4.3 2.3-6.7.4.2.8.4 1.3.6-.7 2.1-1.5 4.3-2.2 6.6zm.4-15.2.9-.9c1 .8 2 1.6 2.8 2.4l-1 1c-.9-.9-1.8-1.7-2.7-2.5zm12.5-1.2h1.2v1.4h2.7v1.1h-2.7v2.7h-1.2v-.6h-1.8v1.3h4.9v3.8h-1.2v-.5h-3.7c0 .4-.1.9-.1 1.2h5.1v1h-5.2c0 .5-.1.9-.2 1.2h6v1h-5.2c1.1 1.3 2.9 2 5.5 2.2-.4.4-.7.8-.9 1.3-2.9-.5-4.8-1.6-5.7-3.5h-.1c-.8 1.7-2.7 2.9-5.9 3.6-.2-.4-.6-.8-.9-1.1 2.8-.6 4.6-1.4 5.4-2.5h-4.8v-1h5.3c.1-.3.2-.7.2-1.2h-4.9v-1h5c0-.4 0-.8.1-1.2h-3.5v.5h-1.2v-3.8h4.9v-1.3h-1.8v.5h-1.2v-2.7h-2.7v-1h2.6v-1.4h1.2v1.4h4.7v-1.4zm-6.6 8.3h3.6c0-.4 0-.9 0-1.4h-3.6zm1.9-4.6h4.7v-1.3h-4.7zm6.6 3.2h-3.7v1.4h3.7z" fill="#fbfcfa"/><path d="m385.3 3.8h1.3v2.2h2.8v-2.2h1.3v2.2h4.1v9.1h1.7v1.3h-16.9v-1.3h1.7v-9.1h4.1v-2.2zm.4 13.1.7 1.2c-1.8.9-3.8 1.9-6 2.9-.2-.4-.5-.8-.8-1.3 2.3-1 4.3-1.9 6.1-2.8zm-3.1-6.4h2.8v-3.2h-2.8zm0 4.6h2.8v-3.3h-2.8zm4-4.6h2.8v-3.2h-2.8zm0 4.6h2.8v-3.3h-2.8zm3.7 1.9c2.1.9 4.1 1.8 6.1 2.7l-.7 1.3c-2.2-1.1-4.2-2-6.1-2.9zm3.2-9.7h-2.8v3.2h2.8zm-2.8 7.8h2.8v-3.3h-2.8z" fill="#fbfcfa"/><g fill="#010102"><path d="m326.38 342.54c-5.57 3.79-11.74 4.95-18.21 4.93-29.32-.09-58.65-.22-87.97-.32-5.21-.02-6.5.96-6.81 6.32-.24 4.11.02 8.27.36 12.38.62 7.41-4.62 11.28-11.41 8.13-.86-.4-1.47-1.81-1.77-2.88-4.49-16.18-4.78-32.74-3.81-49.32 1.25-21.39 4.5-42.49 11.27-62.91 1.58-4.76 3.54-9.41 5.48-14.04.49-1.18 1.45-2.25 2.41-3.13 5.1-4.7 10.26-9.32 15.68-14.22-5.6-3.1-10.93-6.05-16.3-9.02-3.2 3.72-6.25 7.28-9.33 10.82-3.09 3.54-6.71 6.14-11.49 7.05-1.96.37-2.85-.29-3.67-1.87-2.74-5.28-.66-10.04 2.71-13.58 12.64-13.26 23.1-28.7 38.1-39.58 5.54-4.01 12.01-6.88 18.35-9.56 2.29-.96 5.54-.18 8.22.4 15.29 3.35 28.2 10.66 37.19 23.79 4.59 6.71 5.4 14.34 3.78 22.21-.27 1.31-1.04 2.93-2.1 3.61-4.48 2.87-9.12 5.48-13.76 8.1-1.33.75-2.82 1.21-5.1 2.16 5.51 1.44 10.19 2.56 14.81 3.9 6 1.75 12.08 3.34 17.89 5.62 6.05 2.37 10.7 6.45 11.96 13.57-6.4 3.42-13.16 3.88-19.84 1.8-11.19-3.48-22.22-7.49-33.33-11.25-2.4-.81-4.84-1.51-7.52-2.34v18.4c4.24.4 8.52 1.05 12.81 1.14 5.36.11 10.73-.4 16.1-.34 7.43.08 11.93 3.39 14.23 10.13-6.63 5.68-14.41 6.46-22.67 5.34-6.21-.85-12.42-1.25-18.79.34-.57 6.37-1.13 12.58-1.74 19.33 6.43.27 12.53.55 18.63.77 7.15.26 14.33.09 21.43.79 6.15.6 8.9 4.29 7.82 9.02-.43 1.87-1.17 2.98-3.51 3.15-13.39.96-26.75 2.25-40.14 3.19-3.29.23-4.86 1.04-4.43 4.67.34 2.87.25 5.83.02 8.72-.22 2.69.67 3.93 3.41 3.98 8.27.13 16.54.38 24.8.51 7.92.12 15.88-.3 23.75.38 5.74.49 10.65 3.28 12.49 9.71zm-63.62-123.31c5.2-.77 10-1.19 14.64-2.28 2.39-.56 4.71-2.07 6.63-3.67.98-.82 1.75-3.1 1.31-4.19-1.41-3.44-2.84-7.2-5.34-9.82-6.36-6.66-14.69-9.88-23.58-11.86-3.31-.74-6.29-.27-8.92 1.6-7.52 5.34-14.91 10.85-22.89 16.69 7.79 4.8 14.57 8.98 21.69 13.36 1.42-5.9 2.68-11.33 4.08-16.72.24-.93.91-2.23 1.66-2.47 4.41-1.38 8.61 1.56 9.16 6.19.5 4.19 1 8.39 1.56 13.17zm-16.45 59.06c-8.8-.34-17.35-.71-25.91-.95-.6-.02-1.69.84-1.77 1.4-.98 6.68-1.81 13.39-2.73 20.5 10.7-.6 20.89-1.17 31.43-1.76-.34-6.5-.67-12.7-1.02-19.19zm-32.14 55.25c11.54-.73 22.62-1.43 33.9-2.14-.85-5.35-1.74-10.18-2.34-15.05-.25-2.04-1.1-2.53-3.01-2.52-4.46.03-8.93-.22-13.39-.27-4.64-.05-9.28-.01-14.1-.01-.36 6.55-.7 12.99-1.06 19.99zm31.13-94.6c-9.7 5.9-19.96 10.47-21.24 23.51 7.59-.34 15.32-.69 23.3-1.05-.71-7.66-1.37-14.84-2.06-22.46z"/><path d="m122.8 256.34c-5.38 13.45-10.43 25.85-15.31 38.33-7.81 19.99-15.56 40-23.2 60.06-2.1 5.52-5.38 9.44-11.37 10.72-1.96.42-3.1-.11-4.01-1.93-1.94-3.85-2.15-7.89-.69-11.73 2.18-5.73 4.68-11.36 7.42-16.85 15.67-31.4 29.46-63.54 36.92-97.96 3.84-17.74 4.75-35.95 4.78-54.11.06-39.53-.09-79.06-.23-118.59-.04-10.97-.36-21.94-.48-32.92-.06-5.37 3.62-7.61 8.38-5.15 4.6 2.38 5.68 6.64 5.71 11.33.08 16.23 0 32.46.2 48.7.35 29.56.94 59.12 1.23 88.68.09 9.06-.92 18.13-.69 27.17.67 26.92 6.41 53.01 13.73 78.8 4.41 15.55 10.81 30.26 18.11 44.68 5.38 10.63 9.6 21.86 14.21 32.87.72 1.71.83 3.7 1.12 5.57.56 3.65-.58 5.74-3.57 6.75-2.89.97-5.8-.26-7.59-3.09-11.45-18.17-20.08-37.69-27.18-57.88-5.74-16.34-10.83-32.91-16.2-49.38-.36-1.03-.66-2.07-1.29-4.07z"/><path d="m226.99 140.17c-6.53.33-12.15 2.06-17.38 4.9-7.57 4.1-15 8.45-22.56 12.57-2.04 1.11-4.25 2.05-6.49 2.58-3.86.91-6.72-1.57-6.5-5.48.18-3.06.96-5.79 3.79-7.78 14.19-9.94 28.98-18.53 46.27-21.89.88-.17 1.74-.42 2.6-.66.31-.09.6-.26 1.11-.49.33-5.72.67-11.51 1.05-18.03-3.31.51-6.47.53-9.3 1.52-8.32 2.91-16.47 6.27-24.74 9.32-3.03 1.12-6.14 2.13-9.3 2.72-4.8.88-8.77-1.49-10.24-5.6-.58-1.64-.46-2.73 1.21-3.91 8.57-6.05 18.3-9.12 28.26-11.9 6.63-1.85 13.04-4.55 19.51-6.94 2.11-.78 2.9-2.33 2.82-4.71-.19-5.67-.06-11.35-.06-17.26-6.4.58-11.64 2.95-16.5 6.21-6.88 4.6-13.6 9.42-20.55 13.9-2 1.29-4.49 2.06-6.86 2.49-2.75.5-5.39-.13-6.75-3.08-1.28-2.79-.7-6.5 1.75-8.17 7.29-4.95 14.59-9.89 22.13-14.46 6.1-3.69 12.53-6.83 18.81-10.22-.01-.4-.03-.79-.04-1.19-4.98-.69-9.95-1.82-14.95-1.95-6.69-.17-13.4.56-20.1.64-3.21.04-6.55-.1-9.6-.96-1.92-.54-3.99-2.24-4.98-3.99-2.01-3.55-.61-5.93 3.35-6.8 6.66-1.47 13.25-3.53 19.99-4.25 10.28-1.11 20.57-.17 30.36 3.51 2.76 1.04 5.38 2.8 7.64 4.72 5.99 5.09 8.96 11.93 10.03 19.55 2.56 18.28 5.2 36.56 4.25 55.13-.6 11.73-2.42 23.17-7.52 33.83-1.71 3.58-3.88 7.1-6.52 10.04-9.2 10.23-18.54 20.36-28.15 30.2-5.03 5.15-11.13 9.03-18.23 10.9-1.49.4-4.29.65-4.54.1-.9-2-1.95-4.85-1.15-6.51 1.94-4.05 4.36-8.15 7.53-11.28 6.85-6.75 14.28-12.9 21.48-19.29 8.58-7.61 15.3-16.49 19.07-28.03z"/><path d="m304.88 51.61c-9.18-2.63-17.41-2.24-25.63-1.5-5.79.52-11.54 1.82-17.32 1.95-4.13.09-8.43-.75-12.39-2.01-3.85-1.22-5.76-4.66-6.74-9.45 4.55-1.31 8.94-3.38 13.46-3.73 14.37-1.09 28.78-1.64 43.19-2.14 2.71-.09 5.54.74 8.17 1.6 8.28 2.69 11.24 9.78 12.48 17.27 1.34 8.13 1.61 16.46 1.9 24.72.49 13.76.77 27.53.89 41.3.11 11.92-2.45 23.35-7.63 34.09-1.37 2.85-3.23 5.78-5.63 7.75-5.34 4.38-10.96 8.5-16.83 12.12-5.45 3.36-11.47 3.3-17.43.82-1.65-.69-2.57-1.54-2.18-3.5.35-1.75.26-3.6.72-5.31.28-1.01 1.05-2.23 1.94-2.68 4.39-2.21 8.72-4.81 13.39-6.13 8.32-2.34 12.56-8.03 15-15.7.37-1.16.74-2.32 1.19-3.74-6.8-.94-12.98.7-19.07 2.87-9.89 3.52-19.7 7.27-29.66 10.55-5.37 1.76-9.41-2.44-7.9-7.92.33-1.2 1.5-2.4 2.6-3.13 13.41-8.94 28.23-14.34 43.99-17.36 3.18-.61 6.32-1.45 9.5-2.1 1.62-.33 2.59-.95 2.54-2.84-.11-3.57-.03-7.15-.03-11.65-4.25.43-8.93.43-13.38 1.45-7.06 1.62-13.94 4.04-20.96 5.9-3.22.85-6.56 1.55-9.86 1.64-2.09.06-4.49-.72-6.27-1.86-3.74-2.4-3.7-5.19-.15-7.69 11.57-8.13 24.64-11.91 38.59-13.1 3.54-.3 7.06-.77 10.78-1.19.35-6.63.68-12.97 1.04-19.78-2.26.66-4.14 1.17-6.01 1.75-12.9 4.04-25.78 8.19-38.73 12.09-2.61.79-5.51 1.05-8.24.91-2.67-.14-4.92-1.52-5.34-4.64-.48-3.55.84-6.71 3.68-7.75 10.06-3.71 20.19-7.21 30.25-10.94 4.92-1.82 9.79-3.8 14.54-6.01 2.39-1.11 4.47-2.88 7.54-4.93z"/><path d="m146.94 135.76c0-11.31-.04-22.61.01-33.91.03-6.6 1.62-12.86 4.72-18.67.44-.82 2.03-1.62 2.95-1.49 4.47.67 7.66 3.9 8.25 8.87.5 4.18.26 8.44.28 12.67.01 1.67-.34 3.35-.29 5.01 1.08 31.99 2.19 63.98 3.3 95.96.12 3.33-3.04 6.46-6.34 5.91-3.1-.52-5.47-1.52-6.56-5.42-5.33-19.09-6.15-38.59-6.33-58.2-.02-3.56.01-7.14.01-10.73z"/><path d="m101.37 136.94c-.98 24.75-3.09 44.5-9.18 63.62-.64 2-2.48 4.35-4.33 5.04-1.95.73-4.69 0-6.83-.79-.76-.28-1.13-2.62-1.06-3.99 1.18-23.8 2.71-47.59 3.59-71.4.41-11.25-.7-22.55-.49-33.82.08-4.19 1.81-8.39 3.15-12.47.27-.82 2.28-1.68 3.34-1.53 5.08.73 7.99 3.75 8.4 8.94 1.34 17.04 2.52 34.1 3.41 46.4z"/></g></svg>