<svg enable-background="new 0 0 400 400" viewBox="0 0 400 400" xmlns="http://www.w3.org/2000/svg"><g fill="#fbfafa"><path d="m37.59 393.81c-.92.31-1.52.05-2-.78-.7-1.2-1.52-2.34-2.47-3.78v4.59c-.55.03-.95.05-1.41.07-.03-.37-.06-.64-.06-.91 0-1.91 0-3.81 0-5.7 1.13-.41 1.77-.03 2.29.91.62 1.11 1.38 2.14 2.31 3.19v-4.2h1.35v6.61z"/><path d="m12.94 393.88v-6.75c1.9.19 3.93-.54 5.37 1.29.8 1.01.78 2.88.03 3.97-1.37 1.97-3.4 1.51-5.4 1.49m1.45-1.22c2.04.12 2.92-.58 2.89-2.21-.03-1.51-.98-2.19-2.89-2z"/><path d="m11.81 393.87h-5.49c.68-2.18 2.47-3.48 3.51-5.45h-3.08v-1.21h5.29c-.71 2.13-2.44 3.48-3.47 5.51.86 0 1.63.04 2.39-.01.79-.05 1.14.21.85 1.16"/><path d="m39.33 393.86v-6.61h3.7v1.07h-2.22v1.52c.68.04 1.34.09 2.07.13v1.07c-.72.05-1.38.09-2.1.14v1.48h2.4v1.19h-3.85z"/><path d="m27.71 388.56c-1.15-.3-2.46-.61-3.1.64-.37.73-.41 1.93-.06 2.67.63 1.35 1.99.93 3.17.68.35.94-.01 1.32-.93 1.46-1.62.25-3.05-.27-3.76-1.48-.73-1.24-.6-3.03.31-4.17.88-1.11 2.71-1.7 4-1.16.32.13.44.74.65 1.12-.1.08-.19.16-.28.24"/><path d="m49.15 387.24v1.07c-.59.02-1.17.05-1.87.08v5.44h-1.48v-5.44h-1.85c-.05-.4-.08-.73-.13-1.15z"/><path d="m20.06 387.21h1.33v6.62h-1.33z"/><path d="m30.68 393.25c-.49.38-.8.79-1.05.76-.32-.05-.6-.45-.9-.7.26-.24.51-.64.8-.67.29-.04.62.3 1.15.61"/></g><path d="m277.86 102.32c8.94-9.17 10.11-19.76 7.64-31.37-1.47-6.89-5.13-11.72-11.08-15.5-13.32-8.45-27.91-12.94-43.36-15-17.8-2.37-35.69-3.04-53.57-1.31-14.13 1.37-28.2 3.34-42.31 4.96-6.22.71-12.45 1.42-18.7 1.72-4.22.2-6.58-2.46-6.59-6.35-.01-2.51.85-4.4 3.45-4.99 7.94-1.79 15.82-4.33 23.87-5.09 19.14-1.82 38.35-3.65 57.55-3.88 24.21-.29 48.23 2.87 71.71 8.98 11.84 3.08 21.97 9.33 27.73 20.61 5.93 11.61 8.07 23.85 3.42 36.59-.23.63-.49 1.26-.62 1.91-1.8 8.79-6.18 15.83-13.67 20.96-1.01.7-1.85 2.57-1.76 3.82 1.96 26.1 4.47 52.16 6.04 78.28 1.87 31.05 3.1 62.14 4.34 93.23.66 16.54.81 33.11 1.07 49.66.03 2.19-.51 4.43-1.02 6.59-.6 2.54-2.61 3.5-5 3.74-2.23.22-3.68-.74-4.85-2.74-2.61-4.48-4.11-9.31-3.73-14.4 1.83-24.44-1.34-48.73-2.2-73.08-.86-24.38-2.22-48.74-3.75-73.09-1.27-20.21-3.13-40.37-4.62-60.57-.17-2.3-1.38-2.59-3.06-2.39-5.43.63-10.85 1.49-16.29 2.02-9.78.96-19.57 2-29.38 2.57-26.35 1.54-52.71 2.92-79.07 4.22-5.8.29-11.65.21-17.44-.21-3.03-.22-6.33-.98-8.83-2.57-1.7-1.08-2.73-3.95-3.01-6.15-.12-.93 2.3-2.8 3.83-3.21 4.39-1.16 8.9-2.38 13.39-2.53 20-.67 40.01-.93 60.02-1.43 13.19-.33 26.4-.49 39.56-1.37 9.12-.6 18.17-2.28 27.25-3.51.88-.12 1.73-.43 2.59-.71 6.91-2.21 6.57-2.74 4.02-9.42-3.23-8.48-10.51-10.66-17.65-13.28-15.05-5.52-30.74-6.72-46.59-6.28-16.77.47-33.53 1.07-50.3 1.76-12.96.54-25.9 1.38-38.86 1.93-2.3.1-4.76-.19-6.9-.98-1.77-.65-3.55-2.02-4.64-3.56-2.43-3.43-1.93-5.54 1.97-6.78 4.63-1.47 9.54-3.15 14.27-2.99 13.04.43 25.89-1.18 38.83-2.02 28.06-1.81 56.13-2.14 84.01 2.28 7.02 1.11 13.84 3.49 20.73 5.35 6.22 1.67 9.69 6.6 13.01 11.51 3 4.46 5.58 9.16 8.55 14.07z" fill="#010105"/><path d="m209.96 278.35c-9.78-7.65-19.54-15.31-29.35-22.92-.76-.59-1.8-.89-2.76-1.11-13.07-2.99-26.15-5.94-39.5-8.96-2.09 7.68-1.87 15.27.07 22.83 2.78 10.82 5.72 21.6 8.56 32.4.42 1.62.81 3.27.95 4.93.41 4.92-2.53 7.92-7.46 7.54-.91-.07-2.15-.85-2.57-1.65-2.53-4.81-5.78-9.49-7.12-14.64-6.27-24.1-9.04-48.61-6.07-73.47 1.49-12.54 5.21-24.46 12.05-35.25 1.8-2.83 3.45-5.76 5.2-8.62 9.31-15.18 23.22-24.51 40.41-26.42 27.78-3.09 50.53 6.84 65.79 31.19 4.16 6.64 6.13 14.16 6.68 21.94 1.51 21.34-2.96 41.68-13.59 59.98-5.34 9.2-13.85 16.6-21.19 24.57-4.61 5.01-10.17 9.19-14.52 14.4-10.02 11.98-11.26 25.82-7.38 40.5 1.48 5.62 2.84 11.28 4 16.97.44 2.14.45 4.46.15 6.62-.39 2.74-1.57 5.72-4.81 5.48-2.89-.21-5.67-1.48-6.81-4.96-4.11-12.47-7.95-25-7.47-38.31.47-12.9 5.23-24.64 11.06-35.91 1.29-2.48 3.76-4.42 5.91-6.38 3.48-3.17 7.13-6.15 10.71-9.21-.32-.51-.63-1.03-.94-1.54zm6.46-5.75c4.46-3.52 10.94-11.38 14.13-17.72 7.26-14.42 11.74-29.43 9.65-45.87-2.4-18.93-12.12-31.98-30.57-37.63-6.57-2.01-13.5-2.99-20.33-3.99-8.95-1.31-16.87 1.67-23.58 7.41-4.92 4.2-9.34 8.99-13.95 13.56-.53.53-.88 1.29-1.17 2-3.26 7.96-6.76 15.84-9.61 23.95-1.53 4.36-2.13 9.09-2.74 13.71-.34 2.57.9 4.29 4.01 4.54 4.78.39 9.56 1.09 14.29 1.94 25.15 4.53 46.94 14.35 59.87 38.1z" fill="#010105"/><path d="m168.78 196.38c12.88 1.23 25.49 3.6 37.14 9.43 7.06 3.54 11.57 9.34 12.94 17.32.61 3.55-2.02 6.32-5.55 5.47-2-.49-4.2-1.3-5.67-2.66-7.73-7.19-16.97-10.93-27.19-12.83-4.71-.88-9.31-2.32-13.96-3.52-.75-.2-1.5-.46-2.21-.79-3.46-1.59-5.07-4.39-4.49-7.75.38-2.17 3.92-4.54 6.98-4.66.68-.03 1.35-.01 2.01-.01z" fill="#010105"/></svg>