<svg enable-background="new 0 0 400 400" viewBox="0 0 400 400" xmlns="http://www.w3.org/2000/svg"><g fill="#010103"><path d="m247.47 58.35c-.11 1.88-.25 3.41-.29 4.94-1.16 42.41-2.13 84.82-3.61 127.22-.27 7.72-2.34 15.43-4.07 23.04-.95 4.17-3.17 7.93-7.49 9.77-3.49 1.49-5.08.89-6.51-2.55-2.24-5.42-1.97-11.01-.51-16.49 5.77-21.56 6.28-43.47 5.59-65.61-.42-13.26.97-26.57 1.38-39.87.43-13.98.75-27.97.87-41.96.01-1.25-1.57-3.07-2.86-3.68-3.9-1.86-7.89-3.81-12.07-4.74-10.69-2.38-11.09-11.23-8.27-18.43 5.37 2.11 10.84 4 16.11 6.36 15 6.72 30.97 9.34 47.06 11.43 12.11 1.57 23.74 4.16 33.85 11.59 7.52 5.53 11.81 12.97 12.69 21.98 1.89 19.37 3.98 38.76 4.62 58.19.75 22.74-2.84 45.05-10.94 66.47-.53 1.41-1.5 2.71-2.49 3.87-12.4 14.31-26.81 26.28-42.58 36.69-7.77 5.13-14.07 11.69-18.57 19.94-6.11 11.2-6.31 22.99-1.8 34.39 4.33 10.97 9.71 21.62 15.67 31.81 3.96 6.78 10.07 12.27 14.58 18.78 3.66 5.28 6.49 11.16 9.45 16.9 1.21 2.35 1.53 4.87-1.31 6.78-2.86 1.92-5.27.88-7.25-1.06-4.86-4.79-9.76-9.57-14.18-14.76-10.83-12.74-20.52-26.3-27.48-41.59-5.92-13-8.16-26.74-6.58-40.93.41-3.66 2.55-7.1 3.62-10.73 2.69-9.06 8.27-15.96 14.87-22.59 8.91-8.95 18.33-17.03 29.27-23.33 18.29-10.53 27.28-27.27 29.61-47.38 1.51-13.04.92-26.35.81-39.54-.11-12.98-.74-25.95-1.27-38.92-.29-7.11-1.66-14.02-5.32-20.23-.79-1.35-2.09-2.61-3.45-3.37-7.95-4.41-16.69-6.14-25.59-7.47-7.4-1.11-14.72-2.72-22.07-4.13-1.07-.21-2.11-.48-3.49-.79z"/><path d="m142.1 167.49c-11.34-1.83-22.8-3.68-34.25-5.54-2.94-.48-4.92-2.22-6.65-4.62-6.58-9.12-9.57-19.47-10.01-30.49-.69-16.99-1.05-34-1.27-51-.04-3.28-1.24-4.83-4.17-5.19-3.09-.38-6.22-.61-9.34-.62-3.1-.01-5.19-1.19-6-4.23-.93-3.47-.16-5.68 3.28-6.93 2.73-.99 5.84-1.47 8.75-1.36 5.97.22 7.11-.52 7.36-6.55.32-7.83.52-15.63 3.95-22.97 1.13-2.43 2.31-2.81 4.63-1.93 4.7 1.79 6.73 4.79 6.28 10.17-.38 4.56-1.22 9.1-1.37 13.67-.2 6.13.85 7.21 7.1 7.3 5.12.07 10.24-.66 15.36-.59 5.92.09 11.83.79 17.75 1.01 6.71.24 13.42.33 20.14.29 1.97-.01 3.96-.61 5.89-1.12 2.78-.74 4.37-2.43 4.31-5.55-.1-5.25-.02-10.5-.02-15.75 0-5.27 2.44-8.65 6.97-9.77 1.75-.43 2.8-.11 3.67 1.72 2.31 4.87 3.34 9.91 3.06 15.29-.13 2.45-.18 4.94.1 7.36.6 5.16 3.04 7.37 8.29 7.73 1.55.11 3.14-.31 4.68-.15 1.61.17 3.83.24 4.61 1.26 1.41 1.83 2.37 4.28 2.6 6.57.08.78-2.49 2.3-4.05 2.67-3.34.8-6.8 1.18-10.23 1.55-2.91.32-4.06 1.61-4.21 4.69-.79 16.54-1.61 33.09-2.87 49.61-.57 7.44-1.9 14.86-3.39 22.19-2.11 10.35-9.11 16.3-19.06 18.43-7.07 1.5-14.36 1.91-21.89 2.85zm30.25-87.83c-7.68 9.48-14.65 18.23-21.8 26.82-1.82 2.18-2.13 4.33-1.33 6.8.55 1.69 1 3.57 2.06 4.91 5.67 7.14 11.51 14.13 17.3 21.18.41-.11.82-.21 1.23-.32.35-1.5.96-2.99 1.01-4.5.56-16.32 1.04-32.65 1.52-48.98.05-1.64.01-3.28.01-5.91zm-60.6-10.44c8.84 10.42 17.41 20.52 26.16 30.83 7.7-9.8 15.23-19.4 23.3-29.68-17.09-2.06-33.33-.74-49.46-1.15zm17.36 42.46c-7.97-9.7-15.66-19.05-23.35-28.4-.24.09-.48.19-.72.28.89 17.68 1.78 35.35 2.67 53.03.27.03.53.05.8.08 6.8-8.26 13.6-16.51 20.6-24.99zm-10.57 37.73h40.84c-7.59-9.22-14.43-17.53-21.54-26.16-6.26 7.82-12.35 15.35-18.31 22.98-.69.86-.72 2.24-.99 3.18z"/><path d="m159.3 201.5c-13.96 0-27.33 0-41.36 0 0 7.28.19 14.75-.04 22.22-.78 25.61-1.03 51.27-2.81 76.82-1.31 18.82-4.59 37.51-7.24 56.22-.73 5.14-2.88 9.68-8.69 11.19-2.68.69-4.37.16-5.38-2.71-2.06-5.85-1.87-11.78-.3-17.52 8.64-31.7 9.08-64.12 8.88-96.61-.09-15.11-.28-30.23-.21-45.34.01-3-1.18-4.45-3.86-4.7-3.21-.3-6.44-.35-9.67-.36-2.01-.01-4.02.39-6.02.35-5.3-.09-8.96-4.56-8-9.73.12-.64.68-1.47 1.25-1.71 4.7-1.96 9.14-4.21 14.61-4.17 30.9.23 61.79.08 92.69.14 4.02.01 8.06.24 12.05.7 4.23.48 7.84 2.23 8.94 6.82.23.97-.28 2.62-1.03 3.24-3.51 2.84-7.6 3.94-12.18 3.72-4.33-.21-8.68-.03-13.01.13-1.96.07-2.74 1.12-2.76 3.3-.22 30.56-.85 61.12-.65 91.68.06 9.31 2.3 18.62 3.64 27.91 1.8 12.51 3.72 25 5.53 37.51.56 3.91-.98 6.35-4.3 7.28-3.59 1-7.21-.17-8.23-3.56-1.8-5.94-3.34-12.02-4.26-18.16-2.01-13.38-4.08-26.79-5.16-40.26-1.32-16.39-1.97-32.84-2.32-49.28-.4-18.13-.11-36.27-.11-55.12z"/><path d="m273.28 190.15c-.97-4.55-2.69-8.86-2.66-13.17.08-11.38.94-22.76 1.44-34.14.62-14.18 1.2-28.37 1.77-42.55.14-3.46 2.1-6.61 4.42-6.93 2.74-.37 7.03 2.37 7.6 5.48.67 3.59 1.04 7.32.89 10.97-1.08 25.35-2.37 50.7-3.49 76.05-.09 2.03-.9 2.74-2.68 3-2.08.31-4.15.73-7.29 1.29z"/></g><path d="m385.2 377.6.6-.7c.6.4 1.3.9 1.9 1.5l-.6.7c-.8-.5-1.4-1-1.9-1.5zm.3 7.1c.6-1.4 1.1-2.9 1.5-4.5.3.1.6.3.9.4-.5 1.4-1 2.9-1.5 4.4zm.2-10.1.6-.6c.7.5 1.3 1.1 1.9 1.6l-.7.7c-.6-.6-1.2-1.2-1.8-1.7zm8.4-.8h.8v.9h1.8v.7h-1.8v1.8h-.8v-.3h-1.2v.9h3.3v2.6h-.8v-.4h-2.5c0 .3 0 .6-.1.8h3.4v.7h-3.5c0 .3-.1.6-.1.8h4v.7h-3.5c.7.9 1.9 1.3 3.6 1.5-.2.2-.4.5-.6.9-1.9-.3-3.2-1.1-3.8-2.3-.5 1.1-1.8 2-3.9 2.4-.2-.3-.4-.5-.6-.8 1.9-.4 3.1-.9 3.6-1.7h-3.2v-.7h3.5c.1-.2.1-.5.2-.8h-3.3v-.7h3.4c0-.2 0-.5 0-.8h-2.4v.3h-.8v-2.6h3.3v-.9h-1.2v.3h-.8v-1.8h-1.8v-.7h1.8v-.9h.8v.9h3.2zm-4.4 5.5h2.4c0-.3 0-.6 0-.9h-2.4zm1.2-3.1h3.2v-.8h-3.2zm4.4 2.2h-2.4v.9h2.5v-.9z" fill="#fcfbfa"/><path d="m389.2 385.8h.9v1.5h1.9v-1.5h.9v1.5h2.7v6h1.1v.9h-11.3v-.9h1.1v-6h2.7zm.2 8.7.5.8c-1.2.6-2.5 1.3-4 1.9-.2-.3-.3-.6-.6-.8 1.6-.6 3-1.3 4.1-1.9zm-2-4.3h1.9v-2.1h-1.9zm0 3.1h1.9v-2.2h-1.9zm2.7-3.1h1.9v-2.1h-1.9zm0 3.1h1.9v-2.2h-1.9zm2.4 1.3c1.4.6 2.7 1.2 4.1 1.8l-.5.9c-1.5-.7-2.8-1.4-4.1-1.9zm2.2-6.5h-1.9v2.1h1.9zm-1.9 5.2h1.9v-2.2h-1.9z" fill="#fcfbfa"/></svg>