<svg enable-background="new 0 0 400 400" viewBox="0 0 400 400" xmlns="http://www.w3.org/2000/svg"><g fill="#fbfafa"><path d="m37.59 393.81c-.92.31-1.52.05-2-.78-.7-1.2-1.52-2.34-2.47-3.78v4.59c-.55.03-.95.05-1.41.07-.03-.37-.06-.64-.06-.91 0-1.91 0-3.81 0-5.7 1.13-.41 1.77-.03 2.29.91.62 1.11 1.38 2.14 2.31 3.19v-4.2h1.35v6.61z"/><path d="m12.94 393.88v-6.75c1.9.19 3.93-.54 5.37 1.29.8 1.01.78 2.88.03 3.97-1.37 1.97-3.4 1.51-5.4 1.49m1.45-1.22c2.04.12 2.92-.58 2.89-2.21-.03-1.51-.98-2.19-2.89-2z"/><path d="m11.81 393.87h-5.49c.68-2.18 2.47-3.48 3.51-5.45h-3.08v-1.21h5.29c-.71 2.13-2.44 3.48-3.47 5.51.86 0 1.63.04 2.39-.01.79-.05 1.14.21.85 1.16"/><path d="m39.33 393.86v-6.61h3.7v1.07h-2.22v1.52c.68.04 1.34.09 2.07.13v1.07c-.72.05-1.38.09-2.1.14v1.48h2.4v1.19h-3.85z"/><path d="m27.71 388.56c-1.15-.3-2.46-.61-3.1.64-.37.73-.41 1.93-.06 2.67.63 1.35 1.99.93 3.17.68.35.94-.01 1.32-.93 1.46-1.62.25-3.05-.27-3.76-1.48-.73-1.24-.6-3.03.31-4.17.88-1.11 2.71-1.7 4-1.16.32.13.44.74.65 1.12-.1.08-.19.16-.28.24"/><path d="m49.15 387.24v1.07c-.59.02-1.17.05-1.87.08v5.44h-1.48v-5.44h-1.85c-.05-.4-.08-.73-.13-1.15z"/><path d="m20.06 387.21h1.33v6.62h-1.33z"/><path d="m30.68 393.25c-.49.38-.8.79-1.05.76-.32-.05-.6-.45-.9-.7.26-.24.51-.64.8-.67.29-.04.62.3 1.15.61"/></g><path d="m124.43 188.03c-3.84.87-7.33 1.55-10.75 2.51-.96.27-1.82 1.24-2.5 2.07-10.32 12.53-16.21 27.02-17.95 43.04-2.4 22.16-3.15 44.4-1.74 66.69.23 3.55-.11 7.17-.55 10.71-.64 5.26-3.78 7.29-8.96 6.37-1.94-.34-2.72-1.22-3.23-3.14-3.93-15.01-4.51-30.31-3.64-45.65 1.16-20.49 4.12-40.74 10.7-60.26 2.45-7.28 5.03-14.74 9.03-21.2 2.91-4.7 7.87-8.48 12.62-11.59 4.41-2.89 9.73-4.44 14.72-6.41 1.87-.74 2.47-1.78 2.43-3.75-.13-5.59-.18-11.2.02-16.79.09-2.37-.79-3.42-2.91-4.07-2.24-.69-4.34-1.8-6.57-2.51-18.27-5.84-27.67-19.61-32.55-37.05-3.43-12.24-3.44-24.68-1.04-37.23.83-4.35 5.69-6.2 9.65-5.16.76.2 1.45 1.27 1.86 2.09 2.22 4.48 2.13 9.24 1.76 14.11-1.12 14.59 2.36 28 11.25 39.73 4.25 5.61 10.24 8.79 17.9 10.68 0-11.09-.07-21.81.01-32.53.15-19.36.18-38.72.75-58.07.14-4.64 2.16-9.22 3.38-13.82.48-1.81 1.75-1.96 3.41-1.54 4.48 1.14 7.13 4.09 7.28 8.83.17 5.13.05 10.28.05 15.42v78.91c0 .55.06 1.11.11 2.01 6.54-1.99 12.86-3.12 17.65-9.11 7.19-8.98 10.24-18.82 10.35-30.07.07-6.47.82-12.95 1.5-19.4.19-1.8.87-3.78 1.94-5.22 2.8-3.78 7.27-3.44 9.73.48 4.71 7.53 5.4 15.81 4.04 24.28-.94 5.83-2.37 11.61-3.95 17.31-2.1 7.61-5.77 14.21-11.32 20.16-6.99 7.49-14.18 13.95-24.36 16.75-5.83 1.61-5.69 2.11-5.69 8.36 0 4.25.15 8.51-.06 12.76-.12 2.45.53 3.9 2.92 4.85 4.46 1.77 9.08 3.39 13.13 5.88 4.3 2.64 8.73 5.64 11.85 9.5 9.31 11.51 13.05 25.31 15.91 39.67 5.22 26.22 4.73 52.48 2.78 78.88-.24 3.24-.38 6.48-.43 9.73-.03 2.13-.72 3.29-3.06 3.42-1.87.11-3.72.7-5.77 1.11-3.28-5.47-4.23-11.47-4.19-17.67.09-14.1.75-28.21.32-42.28-.43-14.29-1.31-28.65-5.66-42.43-4.23-13.41-12.71-23.44-25.04-30.21-.28-.16-.61-.25-.92-.34-.09-.03-.21.04-.83.19 0 4.19.03 8.52 0 12.85-.31 40.96-.71 81.91-.91 122.87-.05 9.95.58 19.9.73 29.85.04 2.88-.19 5.86-.95 8.62-.59 2.16-1.81 4.43-3.4 5.99-3.82 3.76-7.78 2.97-9.11-2.05-1.36-5.12-2.37-10.51-2.36-15.78.12-52.93.49-105.87.78-158.8-.02-.67-.09-1.33-.16-2.55z" fill="#010105"/><path d="m192.64 26.07c6.07 2.52 12 4.75 17.72 7.42 5.77 2.69 11.48 5.56 16.97 8.78 10.72 6.29 22.56 8.22 34.6 9.6 11.77 1.35 23.59 2.35 35.27 4.21 7.26 1.16 13.73 4.68 18.64 10.48.5.59 1.25 1.2 1.36 1.88 1.5 9.24 3.89 18.41 1.62 27.91-.92 3.87-3.6 5.98-6.61 7.99-10.61 7.08-22.53 9.58-35.02 9.84-17.33.37-34.66.41-51.99.86-13.2.34-21.13 12.26-15.96 23.73.56 1.24 1.9 2.51 3.17 2.99 12.25 4.63 25.05 5.52 37.97 4.98 9.48-.39 18.97-1.73 28.43-1.5 16.52.41 28.49 8.83 35.2 23.73 2.35 5.22 2.98 11.52 3.18 17.36.49 14.3.76 28.65-2.35 42.78-1.42 6.43-4.18 11.88-8.89 16.85-12.03 12.71-27.21 21-41.31 30.81-2.2 1.53-4.49 2.95-6.72 4.43-10.52 7.02-13.8 15.5-10.74 27.71 2.69 10.76 8.45 19.65 16.69 26.91 9.24 8.14 18.66 16.06 27.95 24.14 1.59 1.38 3 3.01 4.31 4.67 2.03 2.57 2.71 5.43.81 8.39-1.53 2.39-5.55 3.45-8.84 2.17-2.38-.92-4.89-1.91-6.83-3.5-10.26-8.44-20.96-16.47-30.35-25.81-9.31-9.26-15.43-20.97-17.59-34.1-2.25-13.67.26-26.3 9.7-37.26 5.86-6.8 13.28-11.2 20.78-15.61 5.97-3.51 12.33-6.39 18.18-10.07 13.15-8.29 21.14-19.94 22.33-35.83 1.07-14.3.71-28.41-4.9-41.88-.69-1.67-2.22-3.36-3.81-4.22-8.69-4.73-18.07-6.73-27.98-7.12-18.98-.74-37.98-1.57-56.91-3.08-10.13-.81-14.8-6.11-16.61-15.96-1.64-8.9-.87-17.58 2.24-26.04.39-1.06 1.33-2.02 2.23-2.76 13.23-10.85 28.55-14.41 45.4-13.82 15.06.53 30.16.13 45.24.16 14.79.04 18.37-9.55 16.04-21.51-.55-2.84-1.86-5.11-4.81-5.73-3.99-.85-8.1-2.19-12.07-1.95-25.3 1.51-49-4.78-72.02-14.32-6.57-2.72-12.98-6.02-18.99-9.8-6.66-4.16-8.03-10.27-4.73-18.91z" fill="#010105"/><path d="m239.67 197.27c10.95 0 21.91-.06 32.86.05 2.43.03 4.98.33 7.25 1.14 1.99.71 4.16 1.94 5.37 3.59 2.81 3.83 1.95 6.03-2.45 7.66-9.23 3.43-18.87 4.46-28.61 4.91-16.44.77-32.83.4-49.14-2.19-5.83-.93-8.43-6.82-4.74-11.94 1.54-2.14 5.62-3.27 8.61-3.39 10.27-.4 20.57-.15 30.86-.15-.01.1-.01.21-.01.32z" fill="#010105"/></svg>