<svg enable-background="new 0 0 400 400" viewBox="0 0 400 400" xmlns="http://www.w3.org/2000/svg"><g fill="#fbfafa"><path d="m37.59 393.81c-.92.31-1.52.05-2-.78-.7-1.2-1.52-2.34-2.47-3.78v4.59c-.55.03-.95.05-1.41.07-.03-.37-.06-.64-.06-.91 0-1.91 0-3.81 0-5.7 1.13-.41 1.77-.03 2.29.91.62 1.11 1.38 2.14 2.31 3.19v-4.2h1.35v6.61z"/><path d="m12.94 393.88v-6.75c1.9.19 3.93-.54 5.37 1.29.8 1.01.78 2.88.03 3.97-1.37 1.97-3.4 1.51-5.4 1.49m1.45-1.22c2.04.12 2.92-.58 2.89-2.21-.03-1.51-.98-2.19-2.89-2z"/><path d="m11.81 393.87h-5.49c.68-2.18 2.47-3.48 3.51-5.45h-3.08v-1.21h5.29c-.71 2.13-2.44 3.48-3.47 5.51.86 0 1.63.04 2.39-.01.79-.05 1.14.21.85 1.16"/><path d="m39.33 393.86v-6.61h3.7v1.07h-2.22v1.52c.68.04 1.34.09 2.07.13v1.07c-.72.05-1.38.09-2.1.14v1.48h2.4v1.19h-3.85z"/><path d="m27.71 388.56c-1.15-.3-2.46-.61-3.1.64-.37.73-.41 1.93-.06 2.67.63 1.35 1.99.93 3.17.68.35.94-.01 1.32-.93 1.46-1.62.25-3.05-.27-3.76-1.48-.73-1.24-.6-3.03.31-4.17.88-1.11 2.71-1.7 4-1.16.32.13.44.74.65 1.12-.1.08-.19.16-.28.24"/><path d="m49.15 387.24v1.07c-.59.02-1.17.05-1.87.08v5.44h-1.48v-5.44h-1.85c-.05-.4-.08-.73-.13-1.15z"/><path d="m20.06 387.21h1.33v6.62h-1.33z"/><path d="m30.68 393.25c-.49.38-.8.79-1.05.76-.32-.05-.6-.45-.9-.7.26-.24.51-.64.8-.67.29-.04.62.3 1.15.61"/></g><path d="m125.49 175.46c-4.12-.63-6.7.61-9.02 3.89-9.13 12.95-14.39 27.38-15.84 42.96-2.85 30.7-3.02 61.45-.48 92.21.41 5.01.57 10.07.31 15.08-.28 5.37-3.35 8.57-7.96 8.68-1.27.03-3.02-.81-3.78-1.82-3.16-4.28-4.21-9.32-4.26-14.56-.09-9.61.63-19.29-.23-28.83-2.9-32-.14-63.48 7.66-94.55 1.57-6.26 4.02-12.32 6.2-18.42.51-1.42 1.5-2.73 2.48-3.91 6.35-7.64 13.65-14.18 22.4-18.98 1.86-1.02 2.65-2.29 2.57-4.53-.18-5.7-.17-11.42-.01-17.13.07-2.37-.58-3.55-2.99-4.28-4.9-1.48-10.03-2.75-14.44-5.23-9.32-5.25-15.52-13.47-18.82-23.61-5.06-15.6-5.56-31.35-.98-47.24 1.03-3.58 3.7-2.79 6-3.35 2.54-.62 2.64 1.51 3.21 2.93 3.86 9.76 5.36 19.86 3.9 30.28-1.35 9.6 1.56 17.53 9.13 23.48 4.18 3.28 8.83 5.97 13.26 8.92.44-.15.88-.31 1.32-.46.74-7.26 2.14-14.52 2.06-21.76-.12-10.04-1.29-20.08-2.12-30.11-1.13-13.67-.03-27.02 5.01-39.85 5.21-.17 7.98 1.78 8.98 6.61.54 2.61.85 5.31.86 7.98.07 17.58.09 35.16.01 52.74-.02 5.37-.45 10.73-.62 16.1-.07 2.36-.2 5.11 2.47 6.07 2.74.99 5.53.56 7.59-1.99 3.09-3.83 6.39-7.49 9.27-11.47 3.43-4.74 4.84-10.17 5.07-16.06.36-9.17.99-18.33 1.77-27.47.4-4.69 2.68-6.51 6.91-6.54 2.02-.01 3.24.72 4.19 2.59 4.29 8.48 5.42 17.51 4.43 26.78-1.09 10.19-3.55 20.04-8.93 28.93-.97 1.6-2.18 3.1-3.49 4.44-2.35 2.4-5.03 4.48-7.27 6.97-4.64 5.17-10.19 8.63-17.1 9.61-2.96.42-3.66 2-3.65 4.78.02 6.38-.22 12.76-.53 19.13-.1 2.07.58 3.28 2.34 4.3 3.19 1.85 6.15 4.12 9.38 5.87 10.48 5.67 16.51 14.58 19.99 25.77 5.18 16.66 8 33.71 9.35 51.04 1.55 19.89 2.23 39.82.66 59.72-.87 11.02-2.79 21.95-4.11 32.93-.56 4.64-5.92 5.86-9.36 3.62-.74-.48-1.08-2.07-1.08-3.15-.09-14.22.28-28.45-.2-42.66-.81-23.94-1.77-47.89-3.43-71.78-.87-12.61-3.43-25.17-11.05-35.78-2.93-4.08-7.02-7.33-10.58-10.95-.41.19-.83.39-1.24.58 0 2.82.01 5.63 0 8.45-.14 52.06-.27 104.12-.41 156.17-.02 7.83.12 15.67-.13 23.5-.08 2.61-.84 5.32-1.87 7.74-.69 1.62-2.19 3.17-3.73 4.09-3.45 2.06-5.35 1.24-6.81-2.49-2.49-6.38-2.87-13.06-2.83-19.81.21-30.45.46-60.9.57-91.35.09-26.98.02-53.97.02-80.95-.02-1.31-.02-2.63-.02-3.87z" fill="#010105"/><path d="m224.79 75.62c-5.78 0-11.33.03-16.89-.01-3.34-.02-6.78.33-9.98-.38-1.99-.44-4.43-2.2-5.23-4-1.8-4.03-1.24-5.8 2.36-6.87 4.68-1.39 9.43-3.33 14.2-3.5 17.98-.65 35.99-1 53.97-.75 6.49.09 13.05 1.82 19.42 3.43 10.47 2.64 15.86 10.6 19.46 20.07 3.44 9.06 4.02 18.55 3.84 28.1-.25 12.9-1.4 25.67-5.76 37.98-1.33 3.75-3.58 6.17-6.79 8.6-8.55 6.44-18.53 6.71-28.34 7.71-11.12 1.13-22.32 1.51-33.43 2.71-11.2 1.21-16.83 7.62-17.31 18.95-.12 2.78.38 5.57.49 8.36.21 5.07 2.72 8.22 7.25 10.58 8.93 4.65 18.29 6.01 28.22 5.71 6.77-.21 13.64.13 20.34 1.12 13.55 2.01 21.19 11.33 26.79 22.94 6.19 12.82 7.34 26.56 8.02 40.48.83 16.76 1.92 33.52 3.26 50.24.73 9.01 2.74 17.93 3.2 26.94.28 5.59-1.16 11.28-2.02 16.9-.46 3.03-2.82 4.32-5.58 4.28-2.78-.04-4.83-1.04-5.64-4.43-3.62-15.09-4.98-30.38-5.56-45.87-.61-16.53-2.15-33.03-3.35-49.54-.51-7.03-1.02-14.07-1.83-21.07-.39-3.41-1.25-6.81-2.27-10.1-2.21-7.13-7.34-11.45-14.08-14.27-10.27-4.31-20.99-5.24-31.92-4.51-17.14 1.14-30.37-5.76-37.48-21.43-3.05-6.71-4.84-14.42-2.49-22.16.23-.75.51-1.5.58-2.27.8-8.03 5.32-13.93 11.47-18.45 3.15-2.32 7.13-3.62 10.88-4.96 2.63-.93 3.54-2.21 3.48-5.05-.46-23.83-.76-47.67-1.11-71.51 0-1.21-.1-2.42-.17-3.97zm15.26 76.4c9.98 0 19.46.26 28.92-.09 6.54-.24 12.26-3.15 17.27-7.34.72-.6 1.59-1.51 1.66-2.33.68-8.54 1.2-17.09 1.75-25.4-.41-.32-.5-.45-.59-.45-15.62.47-31.24.91-46.86 1.51-.74.03-2.05 1.4-2.06 2.16-.13 10.48-.09 20.97-.09 31.94zm1.17-77.27v28.02h49.06c-1.11-5.29-1.76-10.4-3.31-15.2-1.83-5.64-5.9-9.48-11.87-10.76-11.11-2.41-22.36-2.76-33.88-2.06z" fill="#010105"/></svg>