<svg enable-background="new 0 0 400 400" viewBox="0 0 400 400" xmlns="http://www.w3.org/2000/svg"><g fill="#fbfafa"><path d="m37.59 393.81c-.92.31-1.52.05-2-.78-.7-1.2-1.52-2.34-2.47-3.78v4.59c-.55.03-.95.05-1.41.07-.03-.37-.06-.64-.06-.91 0-1.91 0-3.81 0-5.7 1.13-.41 1.77-.03 2.29.91.62 1.11 1.38 2.14 2.31 3.19v-4.2h1.35v6.61z"/><path d="m12.94 393.88v-6.75c1.9.19 3.93-.54 5.37 1.29.8 1.01.78 2.88.03 3.97-1.37 1.97-3.4 1.51-5.4 1.49m1.45-1.22c2.04.12 2.92-.58 2.89-2.21-.03-1.51-.98-2.19-2.89-2z"/><path d="m11.81 393.87h-5.49c.68-2.18 2.47-3.48 3.51-5.45h-3.08v-1.21h5.29c-.71 2.13-2.44 3.48-3.47 5.51.86 0 1.63.04 2.39-.01.79-.05 1.14.21.85 1.16"/><path d="m39.33 393.86v-6.61h3.7v1.07h-2.22v1.52c.68.04 1.34.09 2.07.13v1.07c-.72.05-1.38.09-2.1.14v1.48h2.4v1.19h-3.85z"/><path d="m27.71 388.56c-1.15-.3-2.46-.61-3.1.64-.37.73-.41 1.93-.06 2.67.63 1.35 1.99.93 3.17.68.35.94-.01 1.32-.93 1.46-1.62.25-3.05-.27-3.76-1.48-.73-1.24-.6-3.03.31-4.17.88-1.11 2.71-1.7 4-1.16.32.13.44.74.65 1.12-.1.08-.19.16-.28.24"/><path d="m49.15 387.24v1.07c-.59.02-1.17.05-1.87.08v5.44h-1.48v-5.44h-1.85c-.05-.4-.08-.73-.13-1.15z"/><path d="m20.06 387.21h1.33v6.62h-1.33z"/><path d="m30.68 393.25c-.49.38-.8.79-1.05.76-.32-.05-.6-.45-.9-.7.26-.24.51-.64.8-.67.29-.04.62.3 1.15.61"/></g><path d="m121.34 199.19c-7 .42-11.5 3.68-15.07 9.39-8.1 12.94-12.09 27.11-13.68 42.04-2.06 19.42-2.28 38.84.38 58.27.86 6.25.91 12.67.7 19-.21 6.18-3.26 9.67-7.75 9.55-1.48-.04-3.41-1.05-4.29-2.24-3.55-4.79-4.35-10.49-4.27-16.25.4-26.39-.74-52.92 3.86-79.04 2.26-12.81 5.94-25.46 10.04-37.82 1.29-3.89 5.84-6.87 9.28-9.83 2.76-2.38 5.92-4.51 9.24-5.98 3.33-1.47 7.09-1.97 11.1-3 0-8.78 0-17.59 0-26.95-3.28-1.1-6.9-2.66-10.68-3.52-9.89-2.23-16.99-7.96-21.27-16.93-9.71-20.33-11.21-41.41-4.75-62.99 1.3-4.33 1.51-4.27 9.22-4.88 1.24 4.53 2.77 9.16 3.74 13.91 1.75 8.65 1.65 17.41-.12 26.03-3.39 16.5 4.33 25.41 18.09 30.56 1.66.62 3.37 1.1 5.69 1.85 0-4.15-.02-7.89 0-11.62.18-28.32.41-56.63.53-84.95.02-5.93 1.12-11.54 3.6-16.91.73-1.59 1.59-2.09 3.38-1.6 4.67 1.27 7.39 4 7.94 8.83.37 3.22.48 6.47.49 9.71.07 24.05.08 48.11.11 72.16.01 7.91 0 15.82 0 24.09 6.46-1.07 11.77-2.04 15.64-7.46 6.04-8.46 9.1-17.21 8.19-27.86-.83-9.64.04-19.44.38-29.16.06-1.8.84-3.76 1.84-5.29 2.57-3.97 7.73-3.54 9.73.66 3.67 7.71 5.2 15.9 5.25 24.39.08 13.79-1.96 27.19-7.83 39.81-.72 1.55-1.93 2.97-3.19 4.17-2.19 2.08-4.76 3.76-6.87 5.91-5.59 5.69-12.07 9.45-20.17 9.96-2.15.14-2.8 1.18-2.85 3.23-.18 7.05-.4 14.1-.83 21.13-.14 2.26.78 3.04 2.68 3.81 5.99 2.4 12.32 4.35 17.74 7.73 8.91 5.56 13.28 14.89 17.16 24.25 4.35 10.49 5.24 21.66 6.04 32.84 1.51 21.16.48 42.28-.97 63.39-.47 6.81-.74 13.63-1.17 20.45-.26 4.15-4.05 6.68-8.04 5.6-2.29-.61-3.17-1.79-3.2-4.27-.21-19.58-.5-39.17-.88-58.75-.34-17.02-1.42-33.99-5.85-50.53-1.74-6.49-4.09-12.78-8.81-17.86-3.6-3.87-8.03-6.31-13.8-8.01 0 2.56.01 4.84 0 7.12-.29 42.64-.62 85.29-.84 127.93-.04 8.83.48 17.67.45 26.5-.01 3.09-.51 6.3-1.5 9.21-.66 1.95-2.28 3.91-4.01 5.09-3.17 2.15-6.28 1.16-7.19-2.51-1.28-5.15-2.49-10.49-2.51-15.75-.17-46.01-.08-92.01-.06-138.02-.04-6.18-.04-12.33-.04-18.59z" fill="#010105"/><path d="m244.21 317.94c.35-17.53.68-34.72 1.04-52.59-4.99 0-9.65-.07-14.31.02-8.05.15-16.11.55-24.16.55-2.97 0-6.19-.27-8.85-1.43-2.47-1.08-5.1-3.1-6.34-5.42-2.68-4.99-1.05-8.13 4.44-8.56 8.46-.68 16.96-.76 25.45-.97 7.23-.18 14.47-.21 22.02-.3.6-14.74 1.17-28.67 1.76-43.19-4.51-.18-8.69-.4-12.89-.49-9.61-.22-19.25-.05-28.84-.66-6.59-.41-10.14-4-10.67-9.18-.28-2.72.29-4.4 3.52-5.22 9.8-2.46 19.75-2.16 29.7-2.45 6.24-.19 12.46-.67 18.88-1.04 0-10.18 0-19.99 0-30.23-3.84-.93-7.77-2.13-11.79-2.82-18.24-3.13-29.09-14.3-34.2-31.5-4.56-15.34-5.28-30.82-.26-46.26 1.13-3.49 4.65-5.4 8.01-4.18.8.29 1.42 1.58 1.77 2.54 4.51 12.18 6.01 24.87 4.68 37.66-1.78 17.17 7.76 23.84 19.87 26.52 3.56.79 7.22 1.14 11.46 1.79 0-8.55-.05-16.59.01-24.63.17-23.39.37-46.78.58-70.18.06-6.19 1.83-11.86 5.44-17.12 5.42 2.41 7.68 6.74 7.71 12.27.04 5.36-.43 10.73-.44 16.1-.05 26.2-.02 52.4-.02 78.59 0 4.29 1.23 5.48 5.69 4.84 9.8-1.39 16.74-6.71 21.28-15.5 3.65-7.06 4.77-14.64 5.15-22.37.33-6.93.03-13.88.38-20.81.32-6.3 2.63-8.85 8.89-10.82 5.04 7.68 7.47 16.21 7.2 25.34-.42 14.05-4.23 27.34-10.19 40.02-.46.98-1.21 1.88-1.98 2.66-8.2 8.27-17.51 14.55-29.37 16.29-2.3.34-4.54 1.03-6.9 1.59v30.18c4.95.21 9.82.48 14.69.61 8.61.24 17.23.23 25.83.67 2.83.14 5.82.92 8.35 2.19 1.92.96 3.61 2.93 4.72 4.85 1.5 2.57.78 4.55-2.31 6.02-10.39 4.94-21.19 4.65-32.23 3.47-4.84-.52-9.81-.04-14.71.22-.85.05-2.3 1.25-2.35 1.99-.78 13.28-1.38 26.57-2.06 40.51 4.51.34 8.91.9 13.31.97 9.84.17 19.69-.05 29.53.21 2.71.07 5.59.88 8.02 2.09 1.85.92 3.58 2.77 4.53 4.63 1.72 3.35 1.09 5.2-2.47 6.54-4.13 1.55-8.52 3.21-12.84 3.32-11.62.3-23.27-.21-34.9-.4-1.21-.02-2.42 0-4.11 0-.37 17.46-.72 34.62-1.1 52.53 8.3.13 16.3.31 24.31.38 7.26.06 14.53-.26 21.78.06 4.38.19 8.65 1.5 11.6 5.2 3.32 4.15 2.73 7.54-2.16 9.21-4.16 1.42-8.64 2.48-13.01 2.61-20.35.57-40.7.76-61.06 1.1-16.79.28-33.6.68-50.09-3.39-1.22-.3-3.05-.76-3.36-1.6-.96-2.58-1.4-5.37-1.82-8.11-.06-.4 1.03-1.05 1.67-1.46 6.33-4.09 13.46-4.47 20.68-4.3 11.3.25 22.6.57 33.9.86 1.21 0 2.41-.02 3.94-.02z" fill="#010105"/></svg>