<svg enable-background="new 0 0 400 400" viewBox="0 0 400 400" xmlns="http://www.w3.org/2000/svg"><g fill="#fbfafa"><path d="m37.59 393.81c-.92.31-1.52.05-2-.78-.7-1.2-1.52-2.34-2.47-3.78v4.59c-.55.03-.95.05-1.41.07-.03-.37-.06-.64-.06-.91 0-1.91 0-3.81 0-5.7 1.13-.41 1.77-.03 2.29.91.62 1.11 1.38 2.14 2.31 3.19v-4.2h1.35v6.61z"/><path d="m12.94 393.88v-6.75c1.9.19 3.93-.54 5.37 1.29.8 1.01.78 2.88.03 3.97-1.37 1.97-3.4 1.51-5.4 1.49m1.45-1.22c2.04.12 2.92-.58 2.89-2.21-.03-1.51-.98-2.19-2.89-2z"/><path d="m11.81 393.87h-5.49c.68-2.18 2.47-3.48 3.51-5.45h-3.08v-1.21h5.29c-.71 2.13-2.44 3.48-3.47 5.51.86 0 1.63.04 2.39-.01.79-.05 1.14.21.85 1.16"/><path d="m39.33 393.86v-6.61h3.7v1.07h-2.22v1.52c.68.04 1.34.09 2.07.13v1.07c-.72.05-1.38.09-2.1.14v1.48h2.4v1.19h-3.85z"/><path d="m27.71 388.56c-1.15-.3-2.46-.61-3.1.64-.37.73-.41 1.93-.06 2.67.63 1.35 1.99.93 3.17.68.35.94-.01 1.32-.93 1.46-1.62.25-3.05-.27-3.76-1.48-.73-1.24-.6-3.03.31-4.17.88-1.11 2.71-1.7 4-1.16.32.13.44.74.65 1.12-.1.08-.19.16-.28.24"/><path d="m49.15 387.24v1.07c-.59.02-1.17.05-1.87.08v5.44h-1.48v-5.44h-1.85c-.05-.4-.08-.73-.13-1.15z"/><path d="m20.06 387.21h1.33v6.62h-1.33z"/><path d="m30.68 393.25c-.49.38-.8.79-1.05.76-.32-.05-.6-.45-.9-.7.26-.24.51-.64.8-.67.29-.04.62.3 1.15.61"/></g><path d="m130.8 177.61c-5.35-1.66-8.41.26-11.18 4.26-9.22 13.32-14.03 28.16-15.68 44.08-2.29 22.18-2.74 44.43-1.97 66.73.23 6.57-.1 13.21-.85 19.74-.53 4.61-4.04 6.42-8.39 4.92-1.2-.41-2.71-1.83-2.9-2.98-.99-6.05-2.12-12.15-2.25-18.26-.52-24.18-.12-48.35 3.47-72.35 2.39-16.02 6.97-31.4 13.6-46.16.48-1.08 1.3-2.07 2.16-2.9 2.09-2.02 4.45-3.78 6.42-5.91 4.16-4.47 9.06-7.57 15.08-8.75 2.06-.41 2.61-1.52 2.52-3.51-.21-4.57 1.31-10.09-.76-13.45-1.86-3.02-7.46-4.06-11.61-5.27-11.69-3.4-17.96-12.19-22.3-22.53-7.03-16.79-7.38-34.07-2.36-51.57 1.16-4.03 4.19-2.72 6.69-3.28 2.56-.58 2.69 1.48 3.24 2.91 3.52 9.18 4.79 18.82 3.2 28.39-2.85 17.23 4.77 25.91 18.19 32.73 1.38.7 2.8 1.32 5.01 2.35.69-6.29 1.97-12.12 1.82-17.91-.34-12.73-1.25-25.45-2.24-38.15-1.11-14.29-.99-28.4 4.46-41.96.24-.61.55-1.19.79-1.73 6.22.09 9.62 3.36 9.78 9.97.26 10.29.21 20.59.22 30.88.03 19.36.01 38.72.01 59.01 5.74-2.93 11.41-3.58 15.24-8.1 5.06-5.96 8.46-12.67 8.95-20.55.57-9.04.82-18.09 1.27-27.14.1-2.11.31-4.24.69-6.32.58-3.17 3.52-5.59 6.74-5.43.89.04 1.98.88 2.55 1.66 3.72 5.14 5.57 11 5.58 17.29.01 15.81-3.56 31.12-10.48 45.02-4.26 8.56-13.06 13.93-22.88 16.32-5.94 1.45-5.95 1.43-6.59 7.53-.24 2.34-.12 4.77-.74 7-1.13 4.1.43 6.17 4.26 7.36 3.3 1.03 6.47 2.45 9.71 3.68 4.46 1.71 7.81 4.69 10.24 8.78 8.02 13.47 13.11 27.78 13.91 43.63.59 11.72 2.48 23.39 2.92 35.11.52 14.08.13 28.19.09 42.29-.02 5.93-.26 11.86-.19 17.79.02 2.28-.41 3.59-2.98 3.74-1.87.11-3.71.66-5.68 1.04-2.76-4.26-3.93-8.92-3.97-13.75-.11-13.09.41-26.2-.05-39.28-.73-20.91-2.05-41.82-7.22-62.21-1.8-7.13-4.05-14.22-9.21-19.88-3.09-3.39-6.87-5.59-11.63-6.99 0 3.8.01 7.35 0 10.89-.21 47.12-.47 94.25-.58 141.37-.03 11.07.55 22.15.57 33.22.01 2.83-.72 5.8-1.76 8.45-.67 1.72-2.27 3.39-3.88 4.38-3.42 2.1-5.82 1.39-6.87-2.37-1.37-4.9-2.81-10.01-2.81-15.02.06-58.21.39-116.41.64-174.62 0-1.42-.01-2.85-.01-4.19z" fill="#010105"/><path d="m227.44 74.77c-.59 9.89-1.15 19.36-1.72 29.05 9.57 2.04 19.02 1.87 28.52 1.49 6.79-.27 13.8-1.01 20.36.26 17.01 3.31 19.39 9.17 21.28 22.21 2.73 18.82 1.68 37.7-.24 56.58-.73 7.19-.27 14.52-.03 21.77.95 28.97 2.3 57.93 2.95 86.91.38 16.71 1.94 33.24 4.43 49.73 1.31 8.69 1.27 17.4-.35 26.05-.2 1.07-1.46 2.45-2.51 2.76-6.25 1.83-7.24 1.36-9.6-4.76-.91-2.37-1.54-4.95-1.73-7.48-1.91-26.11-3.85-52.23-5.49-78.36-1.17-18.65-1.92-37.33-2.86-55.99-.03-.66-.15-1.31-.19-1.71-5.17 0-10.15-.18-15.11.04-11.73.51-23.45 1.34-35.19 1.72-3.11.1-5.18 1.22-5.63 3.97-.67 4.11-1.02 8.35-.88 12.51.44 12.96 1.35 25.91 1.76 38.87.8 25.25-.98 50.32-6.47 75.03-.68 3.04-2.09 6.28-4.14 8.56-3.9 4.34-9.21 2.8-10.23-2.89-.64-3.55-1.03-7.57-.03-10.93 5.24-17.66 5.02-35.79 5.38-53.89.24-12.31.77-24.61.86-36.92.04-6.14-1.05-12.3-.84-18.43.23-6.77 1.24-13.54 2.21-20.26.21-1.44 1.43-3.01 2.63-3.98 6.5-5.27 14.12-7.62 22.4-7.76 13.54-.24 27.08-.32 40.62-.48.98-.01 1.96-.11 3.13-.18 0-9.77 0-19.35 0-29.39-5.13.28-10.21.64-15.3.83-10.37.39-20.81 2.42-31.07-.28-5-1.31-10.13-3.13-14.41-5.92-5.22-3.4-6.28-9.32-6.59-15.41-1.78-35.26.94-70.46 1.33-105.69.08-7.27.31-14.55.55-21.82.15-4.71 3.24-6.46 7.39-4.31 4.43 2.3 6.58 6.82 5.96 12.83-.36 3.45-.89 6.88-1.35 10.31-.07.55-.16 1.11-.21 1.67-.73 8.5.44 9.78 8.74 9.8 19.03.06 38.06.13 57.09.25 1.89.01 3.78.33 5.65.65 5.48.93 7.66 3.67 7.64 9.65-7.36 2.67-15.03 4.23-22.88 4.18-17.22-.11-34.44-.54-51.66-.84-1.24-.02-2.46 0-4.17 0zm-1.69 44.06c-.22 10.66-.54 21.79-.62 32.91-.01 2.05.9 4.12 1.5 6.15.95 3.21 2.88 5.15 6.34 6.06 15.3 4.01 30.87 2.67 46.37 2.6.6 0 1.69-1.17 1.73-1.84.58-10.82 1.47-21.65 1.36-32.46-.09-8.49-2.97-11.85-11.37-12.48-14.57-1.1-29.21-1.16-43.82-1.65-.19-.01-.39.18-1.49.71z" fill="#010105"/></svg>