<svg enable-background="new 0 0 400 400" viewBox="0 0 400 400" xmlns="http://www.w3.org/2000/svg"><path d="m92.97 55.75c4.01 8.03 6.24 16.29 6.82 24.95.35 5.35-.07 10.76.35 16.1.97 12.34 8.43 19.7 19.95 24.63.65-4.16 1.41-8.03 1.83-11.93 1.33-12.32.44-24.58-.96-36.84-1.79-15.6-1.51-31.06 3.73-46.1.15-.42.32-.82.47-1.2 4.93-.07 8.08 2.02 9.11 6.59.68 3.03 1.01 6.2 1 9.3-.02 25.97-.16 51.94-.25 77.91 0 .32.13.64.3 1.4 4.55-1.74 9.31-2.28 12.62-6.71 5.48-7.33 8.52-15.33 9-24.46.45-8.72 1.13-17.42 1.93-26.12.16-1.78.92-3.78 2.06-5.13 2.89-3.44 6.67-2.94 8.8.92 2.95 5.33 4.05 11.14 3.93 17.14-.25 13.59-3.04 26.68-8.9 38.94-1.72 3.59-4.73 6.66-7.5 9.64-5.3 5.71-11.86 9.4-19.54 10.91-2.19.43-2.85 1.5-2.78 3.68.15 4.7-.08 9.41.14 14.1.05 1.18.95 2.64 1.9 3.41 1.63 1.32 3.51 2.47 5.48 3.2 10.41 3.88 16.45 11.7 20.66 21.61 5.71 13.42 8.73 27.48 10.46 41.82 2.39 19.8 3.8 39.66 2.2 59.63-.99 12.27-1.9 24.54-2.74 36.82-.18 2.7-1.8 4.34-3.93 4.82-1.87.42-4.06-.24-6-.8-.48-.14-.75-1.7-.79-2.61-.69-17.56-1.16-35.13-2.02-52.68-.92-18.67-1.77-37.36-3.47-55.97-1.04-11.43-3-23.01-10.25-32.54-2.52-3.32-6.32-5.66-9.54-8.45-.37.25-.74.49-1.11.74 0 8.8.06 17.6-.01 26.4-.29 38.85-.7 77.69-.87 116.54-.04 9.61.78 19.23.89 28.85.05 3.76-.5 7.59-1.28 11.29-.39 1.85-1.58 3.77-2.94 5.11-3.61 3.54-7.58 2.8-8.78-1.97-1.38-5.47-2.48-11.19-2.47-16.81.04-55.53.33-111.06.53-166.6 0-.76-.11-1.52-.17-2.24-2.84-.89-4.66-.17-6.5 2.07-10.09 12.28-15.41 26.17-15.92 42.16-.42 13.08-2.2 26.12-2.46 39.19-.3 15.3.48 30.61.6 45.92.04 5.01-.15 10.09-.88 15.04-.79 5.38-4.52 7.86-9.21 6.97-1.7-.32-2.8-.96-2.99-2.93-1.05-11.01-2.89-21.99-3.17-33.01-.72-28.46 1.29-56.84 5.04-85.05.85-6.41 4.14-12.46 5.95-18.78 1.88-6.56 5.49-11.72 10.55-16.28 5.48-4.93 10.34-10.53 17.37-13.47.84-.35 1.66-1.82 1.7-2.8.18-4.47.01-8.96.11-13.43.05-1.88-.92-2.41-2.48-2.93-6.9-2.29-13.86-4.5-19.37-9.6-8.78-8.14-12.78-18.7-14.96-30.11-2.18-11.42-2.82-22.82.11-34.27.83-3.25 2.21-5.14 5.64-5.3.9-.03 1.75-.38 3.01-.68z" fill="#010103"/><path d="m254.91 258.89c-13.84 2.38-27.12 4.84-40.46 6.87-4.48.68-9.16.7-13.68.27-5.55-.53-9.52-3.59-11.07-9.64 6.05-3.42 12.53-5.37 19.38-5.5 14-.26 27.63-2.04 40.88-8.23-.97-2.42-1.98-4.97-3.01-7.5-1.31-3.21-3-6.31-3.91-9.62-1.27-4.64-4.42-6.76-8.62-8.36-8.35-3.19-16.8-3.12-25.44-1.84-8.19 1.22-16.3.5-24.27-1.64-2.97-.8-5.35-2.34-5.69-5.8-.38-3.89.5-5.22 4.27-6.14 17.04-4.14 34.25-3.76 51.31-.78 12.45 2.18 19.37 10.99 23.09 22.6.61 1.91 1.21 3.84 1.92 5.72 2.34 6.1 8.31 7.75 13.11 3.21 16.85-15.93 19.57-31.95 12.02-52.39-.67-1.82-2.94-3.27-4.78-4.38-8.67-5.25-18.31-7.51-28.26-6.99-16.06.84-32.07 2.64-48.13 3.61-5.38.33-10.9-.27-16.24-1.15-3.75-.62-5.11-3.78-3.58-7.17.52-1.15 2.09-2.36 3.35-2.56 9.15-1.5 18.34-2.83 27.53-4.05 6.39-.85 12.81-1.46 19.48-2.2 0-20 0-40.32 0-61.59-4.11 1.64-8.24 2.56-11.53 4.74-7.06 4.68-13.63 10.08-20.49 15.07-6.3 4.58-12.62 9.17-19.16 13.39-1.83 1.18-4.47 1.35-6.77 1.54-3.54.29-5.61-1.69-4.85-5.14.53-2.42 1.83-5.25 3.71-6.69 11.64-8.91 23.29-17.84 35.46-25.99 6.05-4.05 13.14-6.61 19.9-9.52 2.54-1.09 3.59-2.45 3.59-5.17-.02-9.85.13-19.7.21-29.54.06-7.01 1.51-12.31 4.8-17.49 5.64.87 9.61 4.79 9.9 11.23.28 6.1-.76 12.24-.8 18.37-.04 5.44.29 10.91.85 16.32.32 3.09 2.3 5.11 5.59 5.87 6.61 1.52 12.47 4.64 18.11 8.41 9.58 6.4 19.49 12.3 29.01 18.78 3.93 2.67 7.39 6.12 10.73 9.55 2.86 2.93 4.01 8.22 2.17 9.83-2.79 2.43-6.35 1.98-9.49.57-2.61-1.17-5.22-2.65-7.34-4.54-13.54-12.08-28.21-22.36-45.02-29.4-.72-.3-1.44-.6-2.18-.85-.19-.06-.43.04-1.03.11-.35 20.16-.71 40.38-1.08 61.38 5.66.77 11.24 1.83 16.86 2.2 6.5.43 13.05.59 18.95 3.63 12.78 6.57 18.76 17.6 19.13 31.57.38 14.46-3.02 28.18-10.14 40.86-.68 1.21-1.81 2.26-2.94 3.1-6.36 4.75-12.76 9.48-19.22 14.09-1.71 1.22-2.19 2.35-1.6 4.46 6.49 23.37 12.81 46.79 19.32 70.15 3.45 12.37 7.28 24.64 10.73 37.01.67 2.42.63 5.11.52 7.66-.15 3.48-2.21 5.47-5.4 5.73-3.71.3-5.56-.96-6.59-4.47-10.78-36.44-21.56-72.88-32.34-109.31-.31-.99-.66-1.92-.77-2.26z" fill="#010103"/><g fill="#fcfbfa"><path d="m385.2 377.6.6-.7c.6.4 1.3.9 1.9 1.5l-.6.7c-.8-.5-1.4-1-1.9-1.5zm.3 7.1c.6-1.4 1.1-2.9 1.5-4.5.3.1.6.3.9.4-.5 1.4-1 2.9-1.5 4.4zm.2-10.1.6-.6c.7.5 1.3 1.1 1.9 1.6l-.7.7c-.6-.6-1.2-1.2-1.8-1.7zm8.4-.8h.8v.9h1.8v.7h-1.8v1.8h-.8v-.3h-1.2v.9h3.3v2.6h-.8v-.4h-2.5c0 .3 0 .6-.1.8h3.4v.7h-3.5c0 .3-.1.6-.1.8h4v.7h-3.5c.7.9 1.9 1.3 3.6 1.5-.2.2-.4.5-.6.9-1.9-.3-3.2-1.1-3.8-2.3-.5 1.1-1.8 2-3.9 2.4-.2-.3-.4-.5-.6-.8 1.9-.4 3.1-.9 3.6-1.7h-3.2v-.7h3.5c.1-.2.1-.5.2-.8h-3.3v-.7h3.4c0-.2 0-.5 0-.8h-2.4v.3h-.8v-2.6h3.3v-.9h-1.2v.3h-.8v-1.8h-1.8v-.7h1.8v-.9h.8v.9h3.2zm-4.4 5.5h2.4c0-.3 0-.6 0-.9h-2.4zm1.2-3.1h3.2v-.8h-3.2zm4.4 2.2h-2.4v.9h2.5v-.9z"/><path d="m389.2 385.8h.9v1.5h1.9v-1.5h.9v1.5h2.7v6h1.1v.9h-11.3v-.9h1.1v-6h2.7zm.2 8.7.5.8c-1.2.6-2.5 1.3-4 1.9-.2-.3-.3-.6-.6-.8 1.6-.6 3-1.3 4.1-1.9zm-2-4.3h1.9v-2.1h-1.9zm0 3.1h1.9v-2.2h-1.9zm2.7-3.1h1.9v-2.1h-1.9zm0 3.1h1.9v-2.2h-1.9zm2.4 1.3c1.4.6 2.7 1.2 4.1 1.8l-.5.9c-1.5-.7-2.8-1.4-4.1-1.9zm2.2-6.5h-1.9v2.1h1.9zm-1.9 5.2h1.9v-2.2h-1.9z"/></g></svg>