<svg enable-background="new 0 0 400 400" viewBox="0 0 400 400" xmlns="http://www.w3.org/2000/svg"><g fill="#fbfafa"><path d="m37.59 393.81c-.92.31-1.52.05-2-.78-.7-1.2-1.52-2.34-2.47-3.78v4.59c-.55.03-.95.05-1.41.07-.03-.37-.06-.64-.06-.91 0-1.91 0-3.81 0-5.7 1.13-.41 1.77-.03 2.29.91.62 1.11 1.38 2.14 2.31 3.19v-4.2h1.35v6.61z"/><path d="m12.94 393.88v-6.75c1.9.19 3.93-.54 5.37 1.29.8 1.01.78 2.88.03 3.97-1.37 1.97-3.4 1.51-5.4 1.49m1.45-1.22c2.04.12 2.92-.58 2.89-2.21-.03-1.51-.98-2.19-2.89-2z"/><path d="m11.81 393.87h-5.49c.68-2.18 2.47-3.48 3.51-5.45h-3.08v-1.21h5.29c-.71 2.13-2.44 3.48-3.47 5.51.86 0 1.63.04 2.39-.01.79-.05 1.14.21.85 1.16"/><path d="m39.33 393.86v-6.61h3.7v1.07h-2.22v1.52c.68.04 1.34.09 2.07.13v1.07c-.72.05-1.38.09-2.1.14v1.48h2.4v1.19h-3.85z"/><path d="m27.71 388.56c-1.15-.3-2.46-.61-3.1.64-.37.73-.41 1.93-.06 2.67.63 1.35 1.99.93 3.17.68.35.94-.01 1.32-.93 1.46-1.62.25-3.05-.27-3.76-1.48-.73-1.24-.6-3.03.31-4.17.88-1.11 2.71-1.7 4-1.16.32.13.44.74.65 1.12-.1.08-.19.16-.28.24"/><path d="m49.15 387.24v1.07c-.59.02-1.17.05-1.87.08v5.44h-1.48v-5.44h-1.85c-.05-.4-.08-.73-.13-1.15z"/><path d="m20.06 387.21h1.33v6.62h-1.33z"/><path d="m30.68 393.25c-.49.38-.8.79-1.05.76-.32-.05-.6-.45-.9-.7.26-.24.51-.64.8-.67.29-.04.62.3 1.15.61"/></g><path d="m137.34 183.18c0 8.66.04 16.79-.01 24.92-.24 37.83-.6 75.66-.7 113.49-.03 12.08.71 24.15.85 36.23.04 3.18-.48 6.5-1.43 9.54-1.41 4.52-4.79 7.07-9.69 7.58-3.52-6.28-4.17-13.03-4.14-19.89.13-27.42.48-54.84.46-82.26-.02-28.99-.36-57.97-.58-86.96-.01-1.09-.12-2.18-.23-4.14-1.89 1.54-3.51 2.49-4.64 3.85-8.98 10.75-13.31 23.33-14.71 37.14-1.07 10.46-2.55 20.87-3.79 31.31-.26 2.22-.41 4.46-.41 6.69-.03 17.69-.09 35.37.03 53.06.03 4.23 1.04 8.45 1.03 12.67-.01 5.57-.23 11.18-1.04 16.68-.67 4.58-3.72 7.05-7.49 7.52-1.75.22-3.17-.1-3.62-2.01-.88-3.78-2.19-7.56-2.4-11.38-.64-11.26-.57-22.57-1.26-33.82-1.2-19.42.23-38.7 2.38-57.95 1.8-16.12 4.68-32.04 9.04-47.73 2.79-10.04 6.87-18.77 16.32-24.13 3.45-1.96 6.81-4.09 10.11-6.28.65-.43 1.24-1.51 1.25-2.3.09-7.49.06-14.99.06-22.85-4.9-1.45-9.72-3.17-14.68-4.25-5.52-1.2-9.33-4.5-12.64-8.73-6.04-7.7-9.04-16.63-10.54-26.14-1.86-11.81-1.94-23.55.69-35.33 1.09-4.89 3.17-7.61 8.62-7.37 4.2 7.06 5.8 15.12 6.07 23.43.18 5.58-.05 11.2-.56 16.75-1.51 16.44 6.89 24.83 22.59 26.46.57-4.47 1.7-8.97 1.62-13.46-.27-14.3-.82-28.6-1.58-42.88-.7-13-1.06-25.94 2.44-38.66.39-1.4.87-2.77 1.34-4.15.25-.73.57-1.43.83-2.07 5.18.02 8.25 2.38 9.05 7.22.47 2.86.69 5.79.69 8.68-.03 26.86-.13 53.73-.19 80.59 0 .87.14 1.73.22 2.58 9.43-.06 14.75-4.05 18.07-13.32 2.81-7.85 2.71-16.05 2.95-24.2.19-6.48.09-12.98.49-19.45.33-5.32 2.18-6.89 7.96-7.75 5.88 9.64 7.8 20.28 5.91 31.21-1.89 10.98-5.02 21.74-7.66 32.58-.23.93-.64 2.06-1.34 2.61-7.15 5.58-13.3 12.85-23.13 13.95-2.68.3-3.66 1.57-3.55 4.41.24 6.48.14 12.98.04 19.47-.03 1.91.52 3.1 2.31 3.95 3.23 1.52 6.3 3.4 9.55 4.87 8.64 3.92 12.92 11.51 15.29 19.84 3.13 11.03 5.59 22.33 7.33 33.67 4.21 27.48 5.71 55.21 5.28 82.99-.19 12.04-1.92 24.06-2.84 36.1-.19 2.45-1.2 3.36-3.61 3.79-6.14 1.09-6.54 1.26-8.08-4.82-1.06-4.16-1.61-8.62-1.41-12.9 1.29-27.99 1.18-55.97-1.43-83.86-1.42-15.1-3.93-30.13-6.66-45.06-1.32-7.19-4.9-13.7-11.39-17.97-.93-.59-1.94-.99-3.44-1.76z" fill="#010105"/><path d="m243.03 198.05c-.17-2.65-.12-5.01-.55-7.28-.18-.97-1.15-2.13-2.06-2.58-5.89-2.87-12.09-4.72-18.71-4.56-9.98.24-15.99-5.89-21.23-13.16-1.42-1.97-2.64-4.22-3.37-6.52-.57-1.81-.53-3.95-.24-5.86.4-2.61 2.3-3.71 4.63-2.38 2.54 1.44 5.41 2.96 7 5.24 3.71 5.33 7.8 9.15 14.81 9.4 5.44.19 10.85 1.42 16.27 2.18 13.3 1.88 18.93 14.28 17.86 24.69-.64 6.26-3.62 10.31-9.32 13.08-8.13 3.95-16.65 5.65-25.56 6.08-12.21.6-19.38 6.07-23.41 17.99 6.39 4.46 13.6 6.86 21.37 7.49 3.66.3 7.38.04 11.06-.05 7.76-.18 12.44 3.06 15.6 10.23 3.82 8.68 2.88 17.17-.39 25.66-.37.97-1.32 1.76-2.1 2.53-5.63 5.6-11.38 11.09-16.9 16.79-5.8 5.99-8.19 13.03-5.2 21.18.55 1.49 1.91 3.06 3.31 3.78 7.37 3.8 14.69 3.01 21.74-1.02 1.11-.64 2.07-1.7 2.84-2.76 6.82-9.42 13.94-18.65 20.26-28.39 9.04-13.93 21.35-14.86 34.54-10.42 1.46.49 2.21 3.71 2.77 5.81.16.58-1.41 2.09-2.43 2.43-2.72.9-5.59 1.96-8.39 1.94-10.1-.08-16.53 5.12-20.93 13.59-2.72 5.25-5.06 10.74-8.11 15.79-5.2 8.6-11.61 16.15-22.24 17.93-11.01 1.85-21.74-.52-31.02-6.07-6.05-3.62-8.67-10.89-7.25-18.34 1.32-6.89 3.33-13.66 5.24-20.43.36-1.27 1.49-2.46 2.53-3.37 4.55-3.98 9.19-7.84 13.8-11.75 4.5-3.82 6.89-8.65 7.32-14.56.18-2.43-.56-3.92-2.86-4.94-7.96-3.52-16.31-4.48-24.91-4.2-2.9.09-5.86.3-8.7-.15-8.17-1.31-13.42-7.44-14.79-17.61-.98-7.23.61-13.41 6.64-18.77 11.82-10.52 25.5-15.73 40.99-17.11 3.24-.26 6.42-.95 10.09-1.53z" fill="#010105"/><path d="m220.58 140.63c-3.13-4.63-2.15-11.2 1.78-14.38 6.5-5.25 14.1-7.53 22.24-8.51 12.99-1.56 25.97-3.22 38.96-4.74 2.78-.32 3.62-2.35 4.46-4.39 3.11-7.54 1.96-15.4 1.62-23.2-.01-.22-.1-.44-.09-.66.34-7.94-4.17-12.26-11.26-13.89-6.71-1.55-13.58-3.16-20.4-3.26-15.73-.23-31.17 2.25-46.21 7.1-4.35 1.4-7.24 3.99-9.46 7.84-6.59 11.41-9.3 23.89-10.25 36.83-1.68 22.87-3.19 45.76-4.85 68.63-.22 3-.65 6.03-1.43 8.92-1.27 4.66-6.14 6.48-10.16 3.88-.86-.55-1.36-1.95-1.63-3.06-2-8.29-1.61-16.67-.64-25.03 2.58-22.22 5.09-44.44 7.9-66.63 1.57-12.4 5.52-24.16 11.33-35.24.6-1.14 1.61-2.12 2.6-2.97 8.6-7.29 18.9-11 29.82-11.68 15.81-.97 31.74-1.58 47.54-.76 20.29 1.05 29.7 13.45 31.48 31.88.78 8.08-.05 16.05-2.67 23.84-2.44 7.26-7 12.66-14.1 15.15-6.15 2.16-12.62 3.74-19.09 4.61-8.07 1.08-16.29.99-24.42 1.76-3.37.32-6.76 1.28-9.97 2.43-4.41 1.57-8.64 3.61-13.1 5.53z" fill="#010105"/><path d="m288.24 262.61c-9.88-1.57-19.22-4.08-26.86-10.61-3.72-3.18-7.33-6.66-10.25-10.56-1.96-2.63-3.05-6.15-3.74-9.43-.75-3.53 1.52-5.83 5.16-5.38 2.17.27 4.55 1.29 6.2 2.71 4.83 4.15 9.3 8.7 13.98 13.02 4.66 4.3 10.23 5.75 16.44 4.92 4.33-.58 7.52-3.53 8.46-7.81 1.02-4.61-1.69-11.32-5.84-13.53-5.41-2.88-11.04-5.37-16.49-8.18-5.01-2.59-6.62-7.02-4.32-11.71.39-.79 1.56-1.75 2.34-1.73 18.28.54 32.95 13.08 36.32 25.92 2.52 9.63-1.25 26.13-14.72 30.68-2.19.74-4.5 1.14-6.68 1.69z" fill="#010105"/><path d="m303.08 201.64c-2.26 0-4.52.24-6.69-.1-1.07-.17-2.24-1.24-2.88-2.22-4.64-6.99-8.87-14.26-13.81-21.02-3-4.1-6.92-7.56-10.63-11.09-5.06-4.82-11.78-4.93-18.15-5.83-5.54-.78-11.13-1.15-16.64-2.08-5.26-.89-8.03-3.62-8.65-7.65-.6-3.91 1.4-6.63 5.34-6.57 21.4.34 41.17 5.38 55.99 22.02 5.6 6.28 10.04 13.66 14.56 20.83 2.53 4.01 3.15 8.73 1.56 13.71z" fill="#010105"/><path d="m244.77 83.01c6.8.36 13.64.45 20.4 1.19 5.1.56 9.74 2.54 12.47 7.43 1.19 2.13 1.11 3.41-1.48 4.61-10.59 4.92-21.78 5.69-33.12 4.89-7.56-.53-15.07-1.76-22.59-2.79-3.03-.41-4.57-2.54-5.22-5.37-.6-2.6.28-3.98 2.79-5.48 8.44-5.01 17.64-4.01 26.75-4.48z" fill="#010105"/></svg>