<svg enable-background="new 0 0 400 400" viewBox="0 0 400 400" xmlns="http://www.w3.org/2000/svg"><path d="m361.2 9.6.8-1c.9.7 1.9 1.4 2.9 2.3l-.9 1.1c-1-1-2-1.8-2.8-2.4zm.5 10.6c.9-2.1 1.6-4.3 2.3-6.7.4.2.8.4 1.3.6-.7 2.1-1.5 4.3-2.2 6.6zm.4-15.2.9-.9c1 .8 2 1.6 2.8 2.4l-1 1c-.9-.9-1.8-1.7-2.7-2.5zm12.5-1.2h1.2v1.4h2.7v1.1h-2.7v2.7h-1.2v-.6h-1.8v1.3h4.9v3.8h-1.2v-.5h-3.7c0 .4-.1.9-.1 1.2h5.1v1h-5.2c0 .5-.1.9-.2 1.2h6v1h-5.2c1.1 1.3 2.9 2 5.5 2.2-.4.4-.7.8-.9 1.3-2.9-.5-4.8-1.6-5.7-3.5h-.1c-.8 1.7-2.7 2.9-5.9 3.6-.2-.4-.6-.8-.9-1.1 2.8-.6 4.6-1.4 5.4-2.5h-4.8v-1h5.3c.1-.3.2-.7.2-1.2h-4.9v-1h5c0-.4 0-.8.1-1.2h-3.5v.5h-1.2v-3.8h4.9v-1.3h-1.8v.5h-1.2v-2.7h-2.7v-1h2.6v-1.4h1.2v1.4h4.7v-1.4zm-6.6 8.3h3.6c0-.4 0-.9 0-1.4h-3.6zm1.9-4.6h4.7v-1.3h-4.7zm6.6 3.2h-3.7v1.4h3.7z" fill="#fbfcfa"/><path d="m385.3 3.8h1.3v2.2h2.8v-2.2h1.3v2.2h4.1v9.1h1.7v1.3h-16.9v-1.3h1.7v-9.1h4.1v-2.2zm.4 13.1.7 1.2c-1.8.9-3.8 1.9-6 2.9-.2-.4-.5-.8-.8-1.3 2.3-1 4.3-1.9 6.1-2.8zm-3.1-6.4h2.8v-3.2h-2.8zm0 4.6h2.8v-3.3h-2.8zm4-4.6h2.8v-3.2h-2.8zm0 4.6h2.8v-3.3h-2.8zm3.7 1.9c2.1.9 4.1 1.8 6.1 2.7l-.7 1.3c-2.2-1.1-4.2-2-6.1-2.9zm3.2-9.7h-2.8v3.2h2.8zm-2.8 7.8h2.8v-3.3h-2.8z" fill="#fbfcfa"/><g fill="#010102"><path d="m114.66 178.56c-3.29.79-6.15 1.31-8.88 2.23-.98.33-1.86 1.49-2.39 2.48-6.72 12.46-10.32 25.91-12.27 39.83-2.84 20.24-3.49 40.57-1.95 60.94.46 6.12 1.99 12.19 2.16 18.31.2 7.1-.15 14.29-1.06 21.34-.64 4.97-3.83 7.02-8.02 6.95-1.76-.03-2.7-.62-2.97-2.38-.42-2.76-1.11-5.5-1.35-8.27-1.13-12.92-2.47-25.84-3.13-38.79-1.76-34.2 3.12-67.59 12.9-100.32.25-.83.57-1.77 1.17-2.35 5.71-5.57 10.52-12.4 18.8-14.6 5.75-1.53 8.04-4.84 7.1-10.87-.56-3.61-.24-7.38-.05-11.06.11-2.13-.66-3.24-2.55-4.06-3.38-1.47-6.58-3.37-10.01-4.7-11.82-4.58-19.12-13.36-23.11-25-5.35-15.59-6.35-31.48-2.35-47.57.77-3.09 3.25-5.15 6.39-5.31 2.04-.1 3.57.45 4.53 2.59 2.1 4.67 2.32 9.47 1.81 14.45-1.28 12.28.17 24.16 6.17 35.11 3.99 7.28 10.73 11.68 18.28 16.54 0-3.6-.03-6.35 0-9.1.3-24.17.61-48.34.92-72.5.07-5.44.99-10.65 3.65-15.49.82-1.49 1.57-2.09 3.4-1.6 3.73.99 6.35 3.07 6.8 6.93.49 4.2.64 8.46.63 12.7-.03 25.07-.14 50.13-.22 75.2 0 .65.1 1.31.19 2.45 4.68-1.49 9.42-1.54 12.93-5.61 7.27-8.43 11.76-17.64 11.65-29.14-.09-8.47 1.09-16.96 1.8-25.43.11-1.31.29-2.99 1.12-3.77 1.51-1.41 3.42-2.64 5.39-3.24 2.32-.71 3.51 1.1 4.48 3.07 4.2 8.55 5.63 17.6 3.48 26.77-2.31 9.87-5.42 19.56-8.57 29.21-.85 2.6-3.09 4.76-4.74 7.09-.38.54-1 .9-1.43 1.41-5.98 6.96-13.34 11.76-22.24 14.12-2.25.6-3.15 1.74-3.16 4.23-.03 6.26-.37 12.53-.74 18.78-.11 1.79.5 2.63 2.13 3.15 2.55.82 4.98 2.17 7.57 2.68 8.15 1.6 12.72 7.34 16.67 13.86 6.86 11.32 10.29 23.76 11.4 36.83 1.84 21.65 2.42 43.33 1.62 65.06-.37 10.05.18 20.14-.28 30.19-.24 5.3-1.72 10.55-2.67 15.82-.51 2.83-2.72 4.01-5.11 3.91-2.42-.1-4.87-.57-5.65-3.98-2.61-11.42-2.23-22.87-1.09-34.38.35-3.55.68-7.13.57-10.69-.64-21.14-.98-42.3-2.36-63.39-.6-9.15-2.86-18.32-5.42-27.17-2.25-7.77-8.71-12.06-16.59-15.2 0 6.62.04 12.74-.01 18.85-.26 38.38-.61 76.76-.78 115.14-.05 11.07.52 22.15.57 33.22.02 3.66-.42 7.39-1.22 10.96-.46 2.06-1.69 4.22-3.19 5.73-3.47 3.49-7.27 2.9-8.67-1.72-1.5-4.94-2.59-10.23-2.59-15.37.03-54.16.32-108.33.53-162.49.01-.7.01-1.35.01-2.58z"/><path d="m234.02 178.36c-5.46.27-10.57.45-15.66.78-7.14.46-14.26 1.18-21.4 1.49-2.15.09-4.7-.27-6.42-1.4-1.73-1.14-3.13-3.35-3.79-5.38-.69-2.13.34-3.77 3.03-4.55 11.24-3.26 22.74-5.02 34.37-5.54 16.19-.72 32.4-1.04 48.6-1.32 2.85-.05 5.75.76 8.56 1.45 13.11 3.23 18.16 12.59 19.15 24.83.85 10.49-.8 20.77-5.66 30.29-.66 1.3-1.81 2.54-3.04 3.34-9.16 5.99-19.43 8.44-30.21 8.8-11.4.38-22.82.12-34.2.69-10.35.52-14.42 7.01-11.97 17.01 1.48 6.05 4.67 10.04 10.69 11.44 8.9 2.07 17.81 4.14 26.79 5.78 8.31 1.52 16.83 3 23.73 7.74 4.85 3.33 8.72 8.63 11.9 13.75 6.64 10.7 9.36 22.89 11.26 35.21 2.05 13.29 3.45 26.64 2.27 40.11-.2 2.34-.46 4.68-.79 7-.37 2.63-3.42 5.37-6 5.31-2.48-.05-3.93-1.14-4.52-3.87-3.13-14.39-4.14-28.98-4.88-43.63-.57-11.39-2.75-22.37-8.4-32.49-2.26-4.05-5.26-7.04-9.35-9.24-11.31-6.07-23.34-9.49-36.11-10.49-7.78-.61-15.55-1.68-21.28-7.65-7.44-7.76-10.79-17.03-8.95-27.86.28-1.65.88-3.28.93-4.94.24-7.48 5.23-10.93 11.33-13.21 2.89-1.08 6.02-1.66 9.1-2.01 8.33-.97 9.15-1.65 9.53-9.81.5-10.28.91-20.55 1.39-31.63zm14.9 39.03c7.6-.41 14.77-.37 21.82-1.32 4.1-.55 8.02-2.6 11.94-4.17.88-.35 1.92-1.44 2.06-2.32.97-5.8 2.15-11.63 2.38-17.48.19-4.72-2.36-8.6-6.75-10.8-9.9-4.96-20.53-5.44-31.45-5.23z"/><path d="m320.21 156.67c-.29.35-.35.48-.44.51-8.41 2.23-8.42 2.23-13.49-4.83-14.21-19.81-28.49-39.57-42.56-59.46-3.67-5.19-6.46-10.99-10.12-16.19-2.59-3.67-5.78-6.98-9.04-10.1-1.79-1.73-3.65-1.43-5.46.99-16.69 22.43-33.55 44.73-50.29 67.12-3.61 4.83-6.74 10.01-10.41 14.78-3.55 4.62-7.51 5.5-13.59 3.17 2.3-6.03 3.46-12.91 7.12-18 21.98-30.6 43.45-61.59 67.47-90.68.77-.94 1.54-1.88 2.32-2.83 5.93 2.82 10.02 7.29 13.48 12.49 14.75 22.13 29.45 44.29 44.36 66.31 5.13 7.58 11 14.66 16.2 22.2 3.01 4.33 4.52 9.37 4.45 14.52z"/><path d="m238.66 118.69c6.82 0 13.65-.31 20.44.12 3.81.24 7.6 1.49 11.28 2.65 2.62.82 3.57 3.03 3.59 5.81.02 2.84-1.99 3.45-3.98 4.18-7.68 2.82-15.68 3.21-23.76 3.16-12.64-.08-25.19-.88-37.63-3.35-3.91-.78-2.57-3.78-3.28-5.94-.72-2.15.73-2.8 2.39-3.58 5.05-2.38 10.26-3.43 15.87-3.1 5.01.28 10.06.05 15.08.05z"/></g></svg>