<svg enable-background="new 0 0 400 400" viewBox="0 0 400 400" xmlns="http://www.w3.org/2000/svg"><path d="m361.2 9.6.8-1c.9.7 1.9 1.4 2.9 2.3l-.9 1.1c-1-1-2-1.8-2.8-2.4zm.5 10.6c.9-2.1 1.6-4.3 2.3-6.7.4.2.8.4 1.3.6-.7 2.1-1.5 4.3-2.2 6.6zm.4-15.2.9-.9c1 .8 2 1.6 2.8 2.4l-1 1c-.9-.9-1.8-1.7-2.7-2.5zm12.5-1.2h1.2v1.4h2.7v1.1h-2.7v2.7h-1.2v-.6h-1.8v1.3h4.9v3.8h-1.2v-.5h-3.7c0 .4-.1.9-.1 1.2h5.1v1h-5.2c0 .5-.1.9-.2 1.2h6v1h-5.2c1.1 1.3 2.9 2 5.5 2.2-.4.4-.7.8-.9 1.3-2.9-.5-4.8-1.6-5.7-3.5h-.1c-.8 1.7-2.7 2.9-5.9 3.6-.2-.4-.6-.8-.9-1.1 2.8-.6 4.6-1.4 5.4-2.5h-4.8v-1h5.3c.1-.3.2-.7.2-1.2h-4.9v-1h5c0-.4 0-.8.1-1.2h-3.5v.5h-1.2v-3.8h4.9v-1.3h-1.8v.5h-1.2v-2.7h-2.7v-1h2.6v-1.4h1.2v1.4h4.7v-1.4zm-6.6 8.3h3.6c0-.4 0-.9 0-1.4h-3.6zm1.9-4.6h4.7v-1.3h-4.7zm6.6 3.2h-3.7v1.4h3.7z" fill="#fbfcfa"/><path d="m385.3 3.8h1.3v2.2h2.8v-2.2h1.3v2.2h4.1v9.1h1.7v1.3h-16.9v-1.3h1.7v-9.1h4.1v-2.2zm.4 13.1.7 1.2c-1.8.9-3.8 1.9-6 2.9-.2-.4-.5-.8-.8-1.3 2.3-1 4.3-1.9 6.1-2.8zm-3.1-6.4h2.8v-3.2h-2.8zm0 4.6h2.8v-3.3h-2.8zm4-4.6h2.8v-3.2h-2.8zm0 4.6h2.8v-3.3h-2.8zm3.7 1.9c2.1.9 4.1 1.8 6.1 2.7l-.7 1.3c-2.2-1.1-4.2-2-6.1-2.9zm3.2-9.7h-2.8v3.2h2.8zm-2.8 7.8h2.8v-3.3h-2.8z" fill="#fbfcfa"/><g fill="#010102"><path d="m295.24 222.83c-18.3-4.09-35.23-10.92-45.62-28.5-1.48 1.02-2.47 1.67-3.43 2.36-5.9 4.26-11.9 8.38-17.65 12.82-7.49 5.77-15.55 10.51-24.21 14.25-1.77.77-2.45 1.78-2.53 3.76-1.23 29.75-2.56 59.49-3.85 89.23-.47 10.96-.8 21.92-1.42 32.87-.15 2.61-.93 5.3-1.96 7.73-1.41 3.33-4.72 4.6-8.11 3.42-.77-.27-1.47-1.21-1.86-2.02-3.52-7.3-4.3-15.15-3.26-22.96 3.75-28.26 3.73-56.71 4.48-85.11.66-25.17 1.04-50.35 1.08-75.53.02-14.17.9-28.12 4.5-41.89 1.25-4.77 4.97-6.71 8.36-9.03 8.92-6.1 19.07-8.56 29.73-9.25 2.57-.17 5.15-.34 7.68-.78.84-.14 2.17-1.05 2.22-1.69.65-8.35 1.12-16.71 1.67-25.78-8.8-.15-17.27-.22-25.74-.47-7.02-.2-14.08-.26-21.05-1.05-4.49-.51-8.16-3.05-9.54-7.85-.64-2.22-.25-3.59 2.3-4.53 6.16-2.25 12.33-3.39 18.97-3.33 27.54.24 55.09.08 82.64.12 5.58.01 11.17.12 16.75.36 5.76.25 9.22 2.77 10.52 7.25.52 1.8.32 3.07-1.43 4.26-5.58 3.83-11.81 5.28-18.42 5.22-11.97-.11-23.94-.42-35.91-.64-1.2-.02-2.4 0-3.94 0 0 8.93-.05 17.52.1 26.11.01.7 1.31 1.84 2.15 1.98 7.35 1.26 14.7 2.89 22.12 3.36 14.32.9 24.14 8.25 27.37 22.18 1.35 5.83 2.38 11.95 2.19 17.89-1.57 47.92 1.04 95.78 2.07 143.66.24 11.26 2.41 22.48 2.85 33.74.28 7.18-.93 14.43-1.6 21.64-.29 3.12-2.76 4.48-5.38 4.53-2.74.05-4.76-1.2-5.6-4.55-4.49-17.73-5.27-35.82-5.64-53.95-.52-25.62-.98-51.25-1.46-76.88-.03-.79-.08-1.57-.14-2.95zm-54.29-93.72c-5.31 0-9.57-.3-13.77.08-4.21.39-8.41 1.23-12.5 2.28-6.8 1.75-11.43 5.1-12.37 13.18-2 17.18-2.11 34.33-1.27 51.54.2 4.05.91 8.08 1.4 12.32 11.49-3.61 20.61-9.91 29.42-16.91 4.15-3.3 6.61-7.3 6.97-12.38.87-12.13 1.5-24.28 2.09-36.42.22-4.43.03-8.89.03-13.69zm16.16-.44c-.22 1.49-.45 2.26-.44 3.02.15 11.84-.13 23.72.65 35.52.76 11.44 5.44 21.58 13.14 30.19.59.66 1.19 1.51 1.96 1.77 7.48 2.56 15 5.02 22.55 7.53 0-7.95-.04-15.53.01-23.1.07-10.5-.06-21 .39-31.49.56-13.11-4.27-19.82-17.31-21.84-6.8-1.06-13.76-1.09-20.95-1.6z"/><path d="m132.19 130.74c4.22-1.44 8.23-2.77 12.2-4.19.57-.2 1.12-.75 1.45-1.28 5.46-8.59 9.62-17.53 9.77-28.11.12-7.92 1.17-15.83 2.01-23.72.36-3.37 1.64-6.25 5.62-6.99 2.1-.39 3.3.1 4.27 2.05 3.12 6.22 4.74 12.84 4.77 19.72.06 12.67-1.98 25.05-7.95 36.35-5.02 9.49-12.65 16.37-23.05 19.83-3.06 1.02-7.25 1.26-8.81 3.39-1.57 2.16-.54 6.23-.58 9.46-.04 3.81-.18 7.62.09 11.41.09 1.27 1.01 2.92 2.06 3.6 4.42 2.84 8.91 5.63 13.61 7.95 6.73 3.32 10.34 8.97 12.78 15.66 7.99 21.96 12.04 44.7 12.51 68 .3 15.31-.05 30.64-.67 45.94-.24 5.97-1.83 11.91-3.12 17.8-.95 4.38-4.77 5.94-8.72 3.69-.78-.44-1.33-1.91-1.36-2.93-.76-22.26-1.23-44.53-2.18-66.78-.82-19.22-1.83-38.47-7.89-56.99-2.61-7.98-7.42-13.86-16.23-16.87 0 6.24.03 12.11 0 17.97-.25 41.19-.55 82.39-.76 123.58-.06 10.96.23 21.92.07 32.88-.04 2.71-.92 5.53-2.02 8.04-.69 1.59-2.27 3.21-3.85 3.91-2.99 1.33-5.08 1.78-6.13-2.35-1.23-4.83-2.6-9.79-2.68-14.72-.2-12.08.48-24.17.5-36.25.08-42.54.03-85.08.03-127.63 0-1.34 0-2.67 0-4.23-5.68.61-10.1 1.88-12.74 7.82-6.51 14.7-10.12 30.06-11.96 45.89-2.05 17.59-3.05 35.24-1.43 52.94.44 4.79 1.48 9.54 1.58 14.33.11 5-.46 10.02-.99 15.01-.16 1.46-1 2.97-1.87 4.22-1.87 2.7-4.69 2.59-7.58 2.23-2.81-.35-2.24-2.7-2.64-4.36-2.76-11.43-2.48-23.09-2.61-34.73-.22-20.61.06-41.19 2.61-61.68 1.75-14.09 5.86-27.52 11.71-40.42.53-1.17 1.49-2.22 2.47-3.08 4.71-4.14 9.32-8.42 14.32-12.18 2.5-1.88 5.77-2.75 9.13-4.27 0-7.05.06-14.53-.09-22-.01-.74-1.16-1.74-2-2.13-3.55-1.63-7.09-3.44-10.82-4.52-9.74-2.81-15.58-9.89-19.99-18.22-9.19-17.34-9.43-35.59-4.33-54.13 1.02-3.72 4.82-2.16 7.36-3.47 3.85 8.6 5.78 17.28 6.37 26.25.24 3.68.14 7.38.16 11.07.09 15.01 7.46 24.22 22.82 27.84.64-4.75 1.43-9.43 1.86-14.15 1.39-15.25-.39-30.39-1.58-45.57-1.23-15.71-.63-31.29 4.61-46.34 5.6-.05 9.23 3.38 9.67 9.39.3 4.12.2 8.28.19 12.42-.07 26.98-.18 53.96-.25 80.94-.01.78.15 1.53.28 2.71z"/></g></svg>