<svg enable-background="new 0 0 400 400" viewBox="0 0 400 400" xmlns="http://www.w3.org/2000/svg"><path d="m361.2 9.6.8-1c.9.7 1.9 1.4 2.9 2.3l-.9 1.1c-1-1-2-1.8-2.8-2.4zm.5 10.6c.9-2.1 1.6-4.3 2.3-6.7.4.2.8.4 1.3.6-.7 2.1-1.5 4.3-2.2 6.6zm.4-15.2.9-.9c1 .8 2 1.6 2.8 2.4l-1 1c-.9-.9-1.8-1.7-2.7-2.5zm12.5-1.2h1.2v1.4h2.7v1.1h-2.7v2.7h-1.2v-.6h-1.8v1.3h4.9v3.8h-1.2v-.5h-3.7c0 .4-.1.9-.1 1.2h5.1v1h-5.2c0 .5-.1.9-.2 1.2h6v1h-5.2c1.1 1.3 2.9 2 5.5 2.2-.4.4-.7.8-.9 1.3-2.9-.5-4.8-1.6-5.7-3.5h-.1c-.8 1.7-2.7 2.9-5.9 3.6-.2-.4-.6-.8-.9-1.1 2.8-.6 4.6-1.4 5.4-2.5h-4.8v-1h5.3c.1-.3.2-.7.2-1.2h-4.9v-1h5c0-.4 0-.8.1-1.2h-3.5v.5h-1.2v-3.8h4.9v-1.3h-1.8v.5h-1.2v-2.7h-2.7v-1h2.6v-1.4h1.2v1.4h4.7v-1.4zm-6.6 8.3h3.6c0-.4 0-.9 0-1.4h-3.6zm1.9-4.6h4.7v-1.3h-4.7zm6.6 3.2h-3.7v1.4h3.7z" fill="#fbfcfa"/><path d="m385.3 3.8h1.3v2.2h2.8v-2.2h1.3v2.2h4.1v9.1h1.7v1.3h-16.9v-1.3h1.7v-9.1h4.1v-2.2zm.4 13.1.7 1.2c-1.8.9-3.8 1.9-6 2.9-.2-.4-.5-.8-.8-1.3 2.3-1 4.3-1.9 6.1-2.8zm-3.1-6.4h2.8v-3.2h-2.8zm0 4.6h2.8v-3.3h-2.8zm4-4.6h2.8v-3.2h-2.8zm0 4.6h2.8v-3.3h-2.8zm3.7 1.9c2.1.9 4.1 1.8 6.1 2.7l-.7 1.3c-2.2-1.1-4.2-2-6.1-2.9zm3.2-9.7h-2.8v3.2h2.8zm-2.8 7.8h2.8v-3.3h-2.8z" fill="#fbfcfa"/><g fill="#010102"><path d="m120.2 136.48c0-8.48-.03-16.85.01-25.22.1-23.28.26-46.57.33-69.85.02-5.86 1.42-11.26 4.59-16.15 6.11.55 9.22 3.73 9.48 10.37.28 7.27.11 14.55.17 21.82.2 25.63.41 51.27.63 76.9.01.66.1 1.32.17 2.27 6.05-1.56 11.67-2.82 15.72-8.5 5.82-8.16 7.85-17.1 8.27-26.79.3-6.82.89-13.63 1.56-20.42.21-2.18.87-4.38 1.71-6.41 1.21-2.92 3.84-3.29 6.72-3.33 2.87-.03 3.1 2.16 3.74 3.94 2.63 7.32 2.99 14.86 1.91 22.51-1.59 11.22-3.88 22.32-8.69 32.61-4.57 9.78-11.9 16.9-22.68 19.84-3 .82-5.98 1.72-9.1 2.62 0 8.7-.06 17.2.1 25.7.01.81 1.22 1.93 2.12 2.35 4.86 2.26 9.93 4.09 14.69 6.54 10.45 5.37 15.58 14.95 19.53 25.44 5.89 15.64 8.75 31.94 9.78 48.49.85 13.71.95 27.51.68 41.25-.14 7.33-1.76 14.63-2.72 21.95-.36 2.75-2.07 4.43-4.55 5.28-3.18 1.1-5.81-.88-6.14-4.18-1.7-16.88.54-33.76.04-50.63-.58-19.16-2.05-38.25-9.36-56.3-3.45-8.51-7.74-16.45-16.42-20.87-2.15-1.09-4.41-1.97-7.13-3.18 0 6.55.03 12.46 0 18.36-.19 38.4-.42 76.79-.59 115.19-.05 11.3.13 22.6.02 33.91-.02 2.3-.51 4.74-1.42 6.83-.81 1.84-2.23 3.7-3.87 4.83-3.45 2.38-5.75 1.78-6.67-2.22-1.34-5.82-2.5-11.84-2.51-17.78-.03-51.72.2-103.44.42-155.16.01-2.71-1.48-3.76-3.5-2.88-3.5 1.52-7.53 2.98-9.9 5.71-10.67 12.27-15.78 27.15-18.12 42.99-3.06 20.7-3.45 41.39.31 62.13.95 5.26-.1 10.9-.49 16.35-.1 1.45-.99 2.98-1.87 4.21-1.72 2.4-4.25 2.45-6.96 2.06-2.67-.38-2.79-2.34-3.3-4.31-4.17-16.12-4.69-32.56-3.67-49.01.87-14.06 2.53-28.07 3.98-42.1.24-2.29.97-4.59 1.82-6.75 2.8-7.18 6.03-14.21 8.57-21.49 1.84-5.29 4.74-9.52 9.22-12.76.36-.26.71-.56 1.01-.88 4.99-5.43 10.95-9.11 18.37-10.03 2.44-.3 2.99-1.66 3.09-3.86.35-7.38.76-14.76 1.38-22.12.21-2.49-.53-3.67-2.92-4.25-2.05-.5-3.97-1.57-6.02-2.05-12.38-2.92-19.66-11.68-24.65-22.41-7.82-16.8-9-34.39-4.81-52.44.99-4.24 4.25-2.09 6.43-2.94 2.05-.8 2.43.94 2.95 2.26 4.12 10.5 5.78 21.42 4.46 32.6-1.9 15.72 8.16 26.12 24.08 29.96z"/><path d="m200.96 62.41c3.19 7.33 3.8 15.13 4.35 22.93 1.32 18.48-.18 36.9-1.21 55.33-.35 6.24-.06 12.51-.06 19.28.99-.55 1.9-1.02 2.78-1.55 6.62-3.97 13.06-8.26 19.88-11.86 8.29-4.38 13.24-11.44 16.01-19.84 2-6.06 3.21-12.65 3.31-19.02.28-17.23-.25-34.47-.38-51.7-.06-7.21 1.95-12.35 6.36-17.11 5.87 2.29 8.13 5.41 8.03 12.03-.15 11.08-.63 22.15-.8 33.23-.19 12.41-.51 24.78 2.23 37.09 2.04 9.14 6.5 16.41 14.01 21.69 9.6 6.75 19.48 13.11 29.18 19.71 4.25 2.89 8.46 5.86 12.53 8.99 3.55 2.74 5.17 7.95 3.64 10.67-1.12 1.98-7.01 2.41-10.69.19-6.5-3.93-12.97-7.97-19.07-12.48-11.62-8.57-22.97-17.49-34.43-26.26-.88-.67-1.78-1.31-2.93-2.16-1.42 1.84-2.54 3.81-4.14 5.28-4.35 4-8.49 8.43-13.44 11.52-9.65 6.02-19.75 11.33-29.77 16.74-1.92 1.04-2.82 2-2.77 4.28.15 6.92.06 13.84.06 21.52 5.52 0 10.73-.05 15.94.01 25.17.28 50.35.54 75.52.92 7.36.11 10.2 2.29 11.43 7.9.48 2.19.02 3.43-2.22 4.36-8.53 3.56-17.5 4.74-26.59 4.66-13.08-.12-26.16-.75-39.24-1.09-10.06-.26-20.13-.37-30.2-.68-2.35-.07-3.53 1.13-3.58 3.04-.15 5.55-.48 11.17.17 16.66.85 7.2 2.36 14.35 4.03 21.41.48 2.04 2.14 4.11 3.82 5.49 7.97 6.51 17.56 8.99 27.49 10.62 11.69 1.91 22.83 5.31 32.45 12.64 2.57 1.96 5.25 3.9 8.13 5.33 6.04 2.99 9.46 8.01 11.7 14.04 7.21 19.37 9.61 39.34 6 59.7-1.53 8.65.2 6.89-10.53 8.76-2.8-5.46-4.46-11.39-4.61-17.53-.15-6.35.24-12.74.88-19.07 1.18-11.72-1.22-22.6-7.82-32.22-2.16-3.14-5.97-5.32-9.35-7.43-9.99-6.24-21.3-8.41-32.75-10.09-9.16-1.34-17.7-4.43-25.72-9.17-9.83-5.81-13.94-15.14-16.04-25.58-3.06-15.23-2.91-30.69-2.82-46.15.23-36.71.15-73.43.56-110.14.1-9.35 1.53-18.68 2.35-28.02.45-4.8 3.11-7.06 8.32-6.87z"/></g></svg>