<svg enable-background="new 0 0 400 400" viewBox="0 0 400 400" xmlns="http://www.w3.org/2000/svg"><path d="m361.2 9.6.8-1c.9.7 1.9 1.4 2.9 2.3l-.9 1.1c-1-1-2-1.8-2.8-2.4zm.5 10.6c.9-2.1 1.6-4.3 2.3-6.7.4.2.8.4 1.3.6-.7 2.1-1.5 4.3-2.2 6.6zm.4-15.2.9-.9c1 .8 2 1.6 2.8 2.4l-1 1c-.9-.9-1.8-1.7-2.7-2.5zm12.5-1.2h1.2v1.4h2.7v1.1h-2.7v2.7h-1.2v-.6h-1.8v1.3h4.9v3.8h-1.2v-.5h-3.7c0 .4-.1.9-.1 1.2h5.1v1h-5.2c0 .5-.1.9-.2 1.2h6v1h-5.2c1.1 1.3 2.9 2 5.5 2.2-.4.4-.7.8-.9 1.3-2.9-.5-4.8-1.6-5.7-3.5h-.1c-.8 1.7-2.7 2.9-5.9 3.6-.2-.4-.6-.8-.9-1.1 2.8-.6 4.6-1.4 5.4-2.5h-4.8v-1h5.3c.1-.3.2-.7.2-1.2h-4.9v-1h5c0-.4 0-.8.1-1.2h-3.5v.5h-1.2v-3.8h4.9v-1.3h-1.8v.5h-1.2v-2.7h-2.7v-1h2.6v-1.4h1.2v1.4h4.7v-1.4zm-6.6 8.3h3.6c0-.4 0-.9 0-1.4h-3.6zm1.9-4.6h4.7v-1.3h-4.7zm6.6 3.2h-3.7v1.4h3.7z" fill="#fbfcfa"/><path d="m385.3 3.8h1.3v2.2h2.8v-2.2h1.3v2.2h4.1v9.1h1.7v1.3h-16.9v-1.3h1.7v-9.1h4.1v-2.2zm.4 13.1.7 1.2c-1.8.9-3.8 1.9-6 2.9-.2-.4-.5-.8-.8-1.3 2.3-1 4.3-1.9 6.1-2.8zm-3.1-6.4h2.8v-3.2h-2.8zm0 4.6h2.8v-3.3h-2.8zm4-4.6h2.8v-3.2h-2.8zm0 4.6h2.8v-3.3h-2.8zm3.7 1.9c2.1.9 4.1 1.8 6.1 2.7l-.7 1.3c-2.2-1.1-4.2-2-6.1-2.9zm3.2-9.7h-2.8v3.2h2.8zm-2.8 7.8h2.8v-3.3h-2.8z" fill="#fbfcfa"/><g fill="#010102"><path d="m204.8 65.12c2.53.19 4.67.17 6.71.6.98.21 2.3 1.13 2.58 2 2.15 6.9 4.49 13.78 5.93 20.84.92 4.53 2.5 8.3 6.62 10.21 5.51 2.55 11.29 4.51 17.24 6.84 2.49-11.07 2.44-21.31 1.35-31.58-1.02-9.56-2.76-19.13-.25-28.68.99-3.75 2.64-7.33 3.92-11.01.75-2.15 2.12-2.14 3.97-1.54 3.59 1.16 5.14 3.77 5.39 7.29.19 2.68.21 5.37.22 8.05.01 17.91 0 35.83 0 53.74 0 .44.08.88.19 1.91 3.63-.93 7.08-2.31 10.62-2.63 9.12-.81 12.22-7.73 15.05-14.61 1.63-3.96 2.13-8.42 2.91-12.7.78-4.27 2.51-7.54 7-8.91 2.24-.69 3.49-.3 4.44 1.94 2.17 5.13 3.05 10.5 1.46 15.75-1.93 6.38-4.64 12.53-7.18 18.71-1.89 4.62-6.23 6.63-10.31 8.62-6.93 3.38-13.96 6.56-21.06 9.55-2.47 1.04-3.27 2.34-3.2 4.98.19 7.35.05 7.37 7.33 8.95 4.81 1.04 9.6 2.16 14.44 3.01 11.87 2.07 18.76 9.74 21.8 20.65 3.57 12.83 2.99 26.09-2.3 38.17-2.67 6.09-8.95 10.66-13.8 15.73-4.81 5.02-11.5 4.94-17.73 5.99-2.86.49-5.73.9-8.86 1.38-.26 7.38-.56 14.61-.68 21.85-.01.71.95 1.73 1.71 2.1 3.4 1.67 6.81 3.4 10.38 4.68 7.55 2.7 12.92 7.67 16.8 14.6 7.35 13.1 10.88 27.37 13.08 42.03 2.06 13.74 3.31 27.56 2.11 41.48-.33 3.78-.82 7.56-1.48 11.3-.76 4.31-5.68 6.52-9.33 4.12-.99-.65-1.5-2.34-1.82-3.65-3.24-13.3-3.34-26.82-2.6-40.38 1.03-18.89-4.32-36.01-14.25-51.86-3.11-4.97-7.7-7.58-14.13-7.96 0 4.26.03 8.35 0 12.45-.19 25.07-.42 50.15-.59 75.22-.05 7.38.22 14.77-.06 22.13-.17 4.53-2.64 6.98-6.7 8.2-1.97.6-3.49.16-4.04-1.73-1.07-3.6-2.55-7.29-2.59-10.96-.25-25.75-.24-51.5-.17-77.25.02-5.92.68-11.84.88-17.76.1-3.05.71-6.53-2.94-8.2-2.69-1.24-6.78.47-9.37 3.56-8.63 10.31-13.07 22.22-14.02 35.58-1.3 18.42-2.74 36.82-4.16 55.23-.1 1.32-.36 2.69-.86 3.91-1.22 2.98-3.7 3.77-6.76 3.95-3.09.18-4.07-1.84-4.38-3.99-.81-5.59-1.86-11.26-1.67-16.87.4-12.29 1.43-24.56 2.38-36.82.29-3.75.85-7.55 1.88-11.17 2.66-9.35 5.6-18.63 8.55-27.89.48-1.52 1.46-2.99 2.53-4.19 1.86-2.08 4.12-3.81 5.97-5.89 5.03-5.67 10.92-9.82 18.53-11.17 2.09-.37 2.84-1.49 2.84-3.7 0-5.37.09-10.76.58-16.1.29-3.19-.87-4.37-3.81-4.81-2.87-.43-5.65-1.43-8.52-1.82-15.68-2.12-24.26-12.24-28.53-26.31-4.52-14.87-2.72-29.58 4.65-43.21 1.81-3.35 5.81-5.77 9.23-7.94 7.05-4.49 15.15-5.89 23.32-6.65 2.75-.25 4.03-1.04 3.68-4.04-.35-2.97.8-6.82-.68-8.77-1.49-1.95-5.42-2.06-8.29-2.92-6.93-2.09-14.02-3.66-19.42-9.18-11.65-11.89-15.15-25.89-11.73-42.45zm54.57 118.32v21.31c11.31 1.13 27.24-6.62 29.75-21.31-9.93 0-19.78 0-29.75 0zm-.07-16.42h29.79c-1.02-12.7-16.22-22.33-29.79-19.21zm-14.43.01c.25-4.4.57-8.39.68-12.39.12-4.36-1.25-6.23-5.65-6.83-8.14-1.1-14.7 2.66-20.74 7.55-.44.36-.62 1.17-.72 1.81-.52 3.29-.98 6.59-1.45 9.86zm-.02 16.4c-9.45 0-18.45 0-27.61 0 0 .29-.06.73.01 1.14 2.19 12.41 11.33 18.35 22.82 20.23.95.15 2.11.02 2.94-.43.78-.42 1.75-1.41 1.77-2.17.13-6.03.07-12.06.07-18.77z"/><path d="m144.7 184.48c0 9.16.03 17.87-.01 26.57-.17 37.84-.42 75.68-.51 113.52-.02 8.95.63 17.89.67 26.84.01 3.3-.56 6.68-1.41 9.88-.45 1.7-1.71 3.64-3.17 4.52-3.75 2.25-6.74 3.23-8.06-2.28-1.19-4.95-2.28-10.09-2.28-15.15.03-39.18.43-78.36.53-117.55.04-14.66-.4-29.32-.64-43.99-.01-.63-.13-1.26-.21-1.88-9.75.88-14.68 7.45-17.04 15.47-2.79 9.49-4.67 19.34-5.94 29.16-3.02 23.36-3.74 46.85-2.02 70.37.65 8.92 1.93 17.79 2.42 26.71.23 4.3-.55 8.69-1.22 12.98-.26 1.67-1.21 3.42-2.3 4.75-3.21 3.91-7.57 3.47-9.26-1.17-1.27-3.49-2.27-7.41-2.04-11.06.74-11.69-.69-23.23-1.31-34.84-1.67-31.27-.93-62.44 6.97-93.01 1.36-5.28 3.57-10.34 5.33-15.52 2.46-7.23 8.15-10.89 14.82-13.46 2.91-1.12 5.93-2 8.74-3.32.94-.44 1.84-1.88 1.97-2.96.64-5.33 1.13-10.69 1.38-16.05.05-1.05-.96-2.63-1.92-3.16-3.33-1.82-6.73-3.63-10.32-4.82-9.05-3.01-14.33-9.83-17.92-17.97-7.79-17.68-8.93-36.08-4.64-54.84.82-3.6 5.2-5.96 8.74-4.72.9.31 1.67 1.65 2.04 2.69 3.37 9.59 4.32 19.61 2.76 29.48-2.8 17.74 6.47 28.66 21.05 35.52 0-3.69-.01-7.08 0-10.48.1-27.31.22-54.62.31-81.94.02-5.33.88-10.42 3.19-15.3.96-2.03 2.15-2.19 3.99-1.65 4.14 1.22 6.55 4.19 6.7 8.96.15 4.81 0 9.62 0 14.43v82.63c0 .77.08 1.55.12 2.32 9.62-.12 14.09-6.68 17.79-14.04 3.91-7.79 4.47-16.33 4.89-24.83.37-7.37.27-14.77.73-22.13.1-1.66 1.26-3.81 2.62-4.71 3.15-2.09 4.95-2.32 7.09 1.3 5 8.45 5.72 17.6 4.28 26.95-1.83 11.85-4.93 23.39-9.61 34.48-1.34 3.18-3.17 5.71-6.09 7.71-6.35 4.32-12.11 9.6-19.95 11.35-.77.17-1.75 1.63-1.78 2.52-.17 5.03-.21 10.08.02 15.11.05 1.07 1.17 2.52 2.18 3.02 3.29 1.64 6.66 3.33 10.19 4.26 8 2.11 12.35 7.94 16.05 14.63 7.58 13.69 9.74 28.65 10.49 43.97 1.77 36.3-.66 72.51-2.52 108.72-.14 2.73-1.3 4.59-3.87 5.11-2.73.55-5.3-.13-5.92-3.35-1.01-5.23-2.87-10.58-2.48-15.74 2.45-33.13-.21-66.22-.35-99.32-.04-9.7-2.01-19.12-5.01-28.31-2.86-8.69-9.31-13.51-18.26-16.38z"/></g></svg>