<svg enable-background="new 0 0 400 400" viewBox="0 0 400 400" xmlns="http://www.w3.org/2000/svg"><g fill="#fbfafa"><path d="m37.59 393.81c-.92.31-1.52.05-2-.78-.7-1.2-1.52-2.34-2.47-3.78v4.59c-.55.03-.95.05-1.41.07-.03-.37-.06-.64-.06-.91 0-1.91 0-3.81 0-5.7 1.13-.41 1.77-.03 2.29.91.62 1.11 1.38 2.14 2.31 3.19v-4.2h1.35v6.61z"/><path d="m12.94 393.88v-6.75c1.9.19 3.93-.54 5.37 1.29.8 1.01.78 2.88.03 3.97-1.37 1.97-3.4 1.51-5.4 1.49m1.45-1.22c2.04.12 2.92-.58 2.89-2.21-.03-1.51-.98-2.19-2.89-2z"/><path d="m11.81 393.87h-5.49c.68-2.18 2.47-3.48 3.51-5.45h-3.08v-1.21h5.29c-.71 2.13-2.44 3.48-3.47 5.51.86 0 1.63.04 2.39-.01.79-.05 1.14.21.85 1.16"/><path d="m39.33 393.86v-6.61h3.7v1.07h-2.22v1.52c.68.04 1.34.09 2.07.13v1.07c-.72.05-1.38.09-2.1.14v1.48h2.4v1.19h-3.85z"/><path d="m27.71 388.56c-1.15-.3-2.46-.61-3.1.64-.37.73-.41 1.93-.06 2.67.63 1.35 1.99.93 3.17.68.35.94-.01 1.32-.93 1.46-1.62.25-3.05-.27-3.76-1.48-.73-1.24-.6-3.03.31-4.17.88-1.11 2.71-1.7 4-1.16.32.13.44.74.65 1.12-.1.08-.19.16-.28.24"/><path d="m49.15 387.24v1.07c-.59.02-1.17.05-1.87.08v5.44h-1.48v-5.44h-1.85c-.05-.4-.08-.73-.13-1.15z"/><path d="m20.06 387.21h1.33v6.62h-1.33z"/><path d="m30.68 393.25c-.49.38-.8.79-1.05.76-.32-.05-.6-.45-.9-.7.26-.24.51-.64.8-.67.29-.04.62.3 1.15.61"/></g><path d="m118.15 184.62c-6.07.52-9.56 3.73-12.34 8.5-7.22 12.41-10.5 25.96-11.14 40.02-.91 19.9-1.04 39.83-1.33 59.75-.11 7.27.39 14.54.36 21.81-.01 2.41-.58 4.89-1.34 7.19-1.08 3.26-3.82 4.71-7.07 4.55-1.25-.06-3.18-1.14-3.52-2.17-1.4-4.31-3.3-8.8-3.24-13.2.35-26.19.86-52.38 2.01-78.54.71-16.23 5.35-31.65 12.17-46.45 3.82-8.29 10.87-12.25 18.73-15 3.23-1.13 5.15-2.74 5.64-5.78.62-3.85.86-7.77.96-11.67.02-.83-1.11-2.09-2-2.49-5.1-2.27-10.22-4.55-15.48-6.41-3.8-1.34-6.44-3.8-8.82-6.85-8.96-11.51-12.16-24.97-13.37-39.1-.88-10.2-.59-20.35 1.63-30.39 1.4-6.33 1.81-6.64 8.89-7.05 4.45 9.88 6.29 20.35 6.32 31.19.01 4.59-.19 9.18-.2 13.77-.03 15.16 7.24 24.67 22.57 29 .56-3.63 1.29-7.18 1.65-10.77 1.48-14.78.55-29.51-.94-44.24-1.66-16.42-2.44-32.84 2.27-48.97.62-2.12 1.43-4.18 2.13-6.18 6.65.57 9.51 3.2 9.96 9.34.27 3.78.19 7.58.19 11.38.01 28.33.01 56.66.01 84.99 0 .77.08 1.55.13 2.51 3.99.73 7.28.73 10.45-2.82 9.62-10.77 13.35-23.58 14.11-37.55.43-7.93.42-15.88.86-23.81.26-4.68 2.32-7.01 6.03-7.81 1.78-.39 3.08-.12 4.18 1.69 3.56 5.81 5.18 12.15 5.24 18.84.16 17.7-3.42 34.68-10.89 50.73-1.25 2.68-3.68 4.9-5.85 7.04-1.65 1.63-3.85 2.7-5.64 4.2-4.63 3.89-9.76 6.68-15.84 7.39-2.23.26-2.95 1.31-2.85 3.53.17 3.69.2 7.4-.01 11.08-.13 2.27.72 3.48 2.67 4.42 2.01.96 3.78 2.45 5.83 3.31 9.92 4.14 14.81 12.5 17.46 22.05 2.86 10.32 4.97 20.88 6.75 31.45 3.84 22.78 5.93 45.74 4.78 68.86-.43 8.7-1.71 17.36-2.79 26.01-.12.97-1.38 2.3-2.36 2.58-7.69 2.22-9.88 1-10.74-7.09-.69-6.41-.71-12.95-.43-19.41 1.07-24.87.8-49.7-2.43-74.41-1.57-12-5.25-23.33-12.8-33.08-1.23-1.58-2.61-3.05-4.36-5.09-.17 1.37-.36 2.15-.36 2.93-.27 35.15-.51 70.31-.78 105.46-.08 10.97-.39 21.94-.3 32.91.08 10.18.67 20.36.78 30.54.04 3.32-.4 6.72-1.19 9.94-.48 1.95-1.74 3.96-3.2 5.37-3.96 3.83-7.73 3.09-9.07-2.09-1.36-5.24-2.36-10.75-2.37-16.14-.04-51.51.17-103.01.3-154.52.01-5.05-.01-10.08-.01-15.25z" fill="#010105"/><path d="m299.58 327.88c-2.02-76.68-.39-153.39-.9-230.08-.04-5.96-2.81-10.64-8.25-12.69-5.69-2.14-11.72-3.88-17.74-4.53-18.4-1.98-36.82-2.23-55.13 1.45-12.73 2.56-16.05 7.09-17.44 23.76-.62 7.4.88 14.95 1.06 22.44.38 15.89.77 31.78.73 47.67-.11 41.09-.2 82.19-.84 123.27-.28 18-1.85 35.99-2.88 53.97-.21 3.68-.33 7.42-1.08 11-.56 2.66-1.69 5.38-3.25 7.6-3.13 4.45-9 3.51-10.99-1.49-2.27-5.7-.95-11.47-.44-17.24.98-11.14 2.31-22.27 2.6-33.43.73-27.97 1.26-55.96 1.32-83.94.08-40.64-.26-81.29-.6-121.93-.1-11.79 1.38-23.21 6.15-34.05.58-1.31 1.7-2.61 2.91-3.37 11.08-6.99 23.56-9.4 36.31-10.83 17.56-1.98 35.07-1.27 52.53 1.15 6.39.89 12.21 3.41 17.64 6.95 10.53 6.88 13.66 17.57 14.03 29.01.41 12.61-.45 25.26-.85 37.9-.27 8.5-.96 16.99-.99 25.49-.12 35.05.21 70.1-.16 105.15-.18 17.29 1.36 34.39 3.04 51.54 1.54 15.69 2.76 31.44.59 47.24-.67 4.84-4.32 3.52-6.92 4.53-2.73 1.06-3.14-1.33-3.92-2.89-5.18-10.36-6.84-21.44-6.53-32.91.09-3.58 0-7.16 0-10.74z" fill="#010105"/><path d="m263.57 186.24c2.27-8.51 1.19-16.67-.19-24.85-1.23-7.29-.01-14.21 3.12-20.89.93-1.99 2.03-2.24 3.96-1.57 5.09 1.77 7.51 5.71 7.96 10.64.73 8 1.05 16.04 1.33 24.07.52 14.98.96 29.97 1.3 44.96.31 13.52-1.67 26.76-5.46 39.72-.42 1.42-1.58 2.97-2.84 3.75-11.31 7.05-23.38 8.35-35.97 4.03-1.46-.5-2.96-1.62-3.88-2.87-6.21-8.43-9.08-18.18-10.1-28.41-1.89-19.01-.94-37.96 1.47-56.9 1.4-10.98 2.37-22.03 3.07-33.07.3-4.74 4.08-3.97 6.56-5.22 2.52-1.27 2.9 1.41 3.73 2.7 4.11 6.38 4.92 13.27 2.96 20.58-1.77 6.61-3.11 13.29-1.53 20.5 8.01.92 16.08 1.86 24.51 2.83zm-25.4 15.42c-.17.8-.38 1.34-.39 1.88-.21 9.72-.55 19.45-.52 29.17.02 7.16 1.7 13.97 6.18 19.79.55.71 1.49 1.57 2.27 1.59 3.34.08 6.77.29 10.01-.32 4.33-.82 7.72-3.3 8.1-8.15.88-11.23 1.77-22.46 2.22-33.71.13-3.23-1.05-6.58-2.01-9.76-.28-.92-1.89-2.08-2.84-2.04-7.68.38-15.35 1-23.02 1.55z" fill="#010105"/><path d="m287.85 114.91c-4.16 1.37-8.34 3.22-12.72 4.11-12.27 2.49-24.72 1.57-37.1 1.06-5.34-.22-10.66-1.13-15.99-1.67-3.35-.34-4.94-2.52-5.36-5.49-.53-3.7 1.11-6.38 4.38-6.99 4.68-.88 9.43-1.86 14.16-1.92 13.29-.16 26.58.11 39.87.24 1 .01 2.01.16 3 .33 7.91 1.33 7.91 1.34 9.76 10.33z" fill="#010105"/></svg>