<svg enable-background="new 0 0 400 400" viewBox="0 0 400 400" xmlns="http://www.w3.org/2000/svg"><g fill="#fbfafa"><path d="m37.59 393.81c-.92.31-1.52.05-2-.78-.7-1.2-1.52-2.34-2.47-3.78v4.59c-.55.03-.95.05-1.41.07-.03-.37-.06-.64-.06-.91 0-1.91 0-3.81 0-5.7 1.13-.41 1.77-.03 2.29.91.62 1.11 1.38 2.14 2.31 3.19v-4.2h1.35v6.61z"/><path d="m12.94 393.88v-6.75c1.9.19 3.93-.54 5.37 1.29.8 1.01.78 2.88.03 3.97-1.37 1.97-3.4 1.51-5.4 1.49m1.45-1.22c2.04.12 2.92-.58 2.89-2.21-.03-1.51-.98-2.19-2.89-2z"/><path d="m11.81 393.87h-5.49c.68-2.18 2.47-3.48 3.51-5.45h-3.08v-1.21h5.29c-.71 2.13-2.44 3.48-3.47 5.51.86 0 1.63.04 2.39-.01.79-.05 1.14.21.85 1.16"/><path d="m39.33 393.86v-6.61h3.7v1.07h-2.22v1.52c.68.04 1.34.09 2.07.13v1.07c-.72.05-1.38.09-2.1.14v1.48h2.4v1.19h-3.85z"/><path d="m27.71 388.56c-1.15-.3-2.46-.61-3.1.64-.37.73-.41 1.93-.06 2.67.63 1.35 1.99.93 3.17.68.35.94-.01 1.32-.93 1.46-1.62.25-3.05-.27-3.76-1.48-.73-1.24-.6-3.03.31-4.17.88-1.11 2.71-1.7 4-1.16.32.13.44.74.65 1.12-.1.08-.19.16-.28.24"/><path d="m49.15 387.24v1.07c-.59.02-1.17.05-1.87.08v5.44h-1.48v-5.44h-1.85c-.05-.4-.08-.73-.13-1.15z"/><path d="m20.06 387.21h1.33v6.62h-1.33z"/><path d="m30.68 393.25c-.49.38-.8.79-1.05.76-.32-.05-.6-.45-.9-.7.26-.24.51-.64.8-.67.29-.04.62.3 1.15.61"/></g><path d="m204.11 152.54c.35-.57.71-.91.8-1.32 1.45-6.58 6.43-7.94 12.18-8.73 13.4-1.82 26.84-1.29 40.17-.03 9.74.92 19.33 3.37 28.99 5.14 1.09.2 2.18.42 3.27.63 1.34-6.55.92-7.51-4.37-11.17-8.97-6.22-18.88-8.69-29.78-8.31-12.28.42-24.57.28-36.86.29-1.88 0-3.82-.29-5.62-.83-2.33-.7-3.84-2.35-3.72-4.96.13-2.81.22-5.92 3.44-6.95 3.36-1.08 6.91-2.12 10.39-2.18 10.17-.18 20.36-.12 30.51.33 9.47.42 19.02.68 28.09 4.07 8.42 3.15 15.36 8.2 20.34 15.73.99 1.5 1.61 3.42 1.83 5.22.44 3.55.75 7.15.63 10.72-.19 5.48 2.38 9.39 6.32 12.69 3.34 2.79 5.92 6.05 6.97 10.4 1.03 4.3-1.96 7.34-6.22 5.91-2.25-.76-4.38-2.14-6.25-3.63-2-1.58-3.64-3.62-5.74-5.78-3.2 2.82-6.14 5.7-9.4 8.15-1.66 1.25-3.84 2.35-5.86 2.5-21.97 1.62-43.97 2.95-65.94 4.58-3.21.24-4.74-.74-5.51-3.64-.34-1.27-.93-2.48-1.43-3.8 6.97-5.98 15.09-8.41 23.9-8.63 14.08-.36 28.16-.53 42.25-.7 3.76-.05 6.35-1.6 7.96-5.16-10.59-5.64-21.85-7.85-33.49-6.74-14.92 1.42-29.68 1.89-44.27-2.3-.2-.06-.44.04-.79.09-.35 2.37-.56 4.81-1.1 7.17-.97 4.2-2.93 4.99-6.85 3.2-2.73-1.25-5.56-2.29-8.36-3.4-3.42-1.36-5.84-.18-7.42 2.99-1.19 2.4-2.12 4.96-3.52 7.22-1.68 2.72-3.5 5.43-5.69 7.74-2.61 2.75-6.01 3.81-9.95 4.02-21.11 1.11-42.2 2.41-63.29 3.77-3.21.21-5.64.03-6.43-3.8-.71-3.44.34-5.8 3.8-7.52 7.82-3.88 16.23-4.85 24.79-4.81 10.63.05 21.25.33 31.88.4 10.87.08 12.65-1.36 15.74-12.85-6.25-.76-12.38-1.95-18.55-2.17-20.19-.72-40.19 1.42-60.13 4.52-3.62.56-7.54-.07-11.21-.74-3.21-.59-4.8-3.05-4.66-6.44.09-2.04.76-3.41 2.89-4.34 9.94-4.32 20.42-5.78 31.1-5.91 13.2-.16 26.4-.15 39.6.14 5.45.12 10.88 1.22 16.33 1.73 2.59.24 5.81 1.05 7.02-2.17 1.23-3.28-1.1-5.33-3.67-7.08-7.59-5.19-16.1-7.24-25.12-6.92-13.19.45-26.36 1.3-39.54 1.9-2.11.1-4.26-.05-6.35-.35-4.21-.61-6.95-4-6.72-8.24.03-.65.47-1.59 1-1.86 2.36-1.21 4.75-2.99 7.24-3.18 12.47-.95 24.99-2.18 37.47-1.92 13.58.29 26.69 4.07 39.45 8.75.87.32 1.59 1.18 2.28 1.88 5.27 5.35 9.05 11.51 10.92 18.89.36 1.41 1.94 2.91 3.33 3.57 3.53 1.64 7.26 2.83 10.93 4.22z" fill="#010105"/><path d="m190.55 244.89c-8.09-2.98-15.66-5.66-23.15-8.56-10.03-3.88-16.07-11.11-17.4-21.9-.72-5.86-1.12-11.75-1.68-17.88 2.98-.69 5.42-1.26 8.05-1.87 1.68 4.61 3.39 8.85 4.79 13.2 3.87 12.08 12.38 18.74 24.47 21.33 1.19.26 2.39.44 3.81.69 2.43-7.84 2.36-15.72 1.4-23.62-1.04-8.66.04-16.93 3.9-24.78 5.33.86 9.85 4.86 10.33 10.76.46 5.69-.42 11.5-.83 17.25-.29 4.1-1.23 8.21-1.03 12.27.22 4.43 3.03 6.61 7.45 6.4 5.23-.24 9.7-1.68 13.44-6.15 5.16-6.15 9.21-12.55 10.64-20.52.24-1.35.97-2.8 1.88-3.83 3.84-4.32 7.92-3.54 9.37 1.92 2.86 10.77-.2 20.02-7.74 27.98-7.6 8.02-16.61 13.32-27.73 14.75-1.64.21-3.23.83-5.15 1.35-.3 4.4-.68 8.84-.84 13.29-.02.72.81 1.8 1.52 2.15 2.49 1.25 5 2.64 7.68 3.28 13.88 3.36 22.96 12.48 29.56 24.48 9.16 16.65 14.33 34.46 14.19 53.55-.04 4.99-1.16 9.97-1.85 14.94-.43 3.11-2.72 4.38-5.45 4.44-2.72.06-5-.96-5.32-4.31-.82-8.68-1.64-17.36-2.63-26.02-1.71-14.88-6.02-28.91-14.92-41.14-5.36-7.37-12.88-11.88-22.22-14.6 0 7.19.04 13.98-.01 20.77-.15 21.94-.32 43.87-.54 65.81-.03 3.01-.29 6.05-.7 9.03-.43 3.07-1.75 5.55-5.33 5.95-2.72.3-5.03-.17-5.57-3.3-1.32-7.56-3.47-15.14-3.56-22.73-.2-15.88.79-31.77 1.13-47.66.19-8.83.03-17.67.03-27.17-6.15 2.2-12.58 1.75-17.34 7.52-13.85 16.81-20.87 35.96-21.55 57.61-.15 4.81-.3 9.63-.81 14.41-.52 4.94-4.05 7.08-8.6 5.26-1.18-.47-2.44-1.95-2.75-3.19-3.26-12.8-2.66-25.54 1.47-38.03 3.72-11.24 7.77-22.38 11.79-33.52.54-1.51 1.62-2.88 2.69-4.12 1.24-1.43 2.86-2.53 4.11-3.95 7.7-8.83 16.92-15.09 28.61-17.28 1.84-.35 2.54-1.27 2.46-3.22-.19-3.77-.07-7.57-.07-11.04z" fill="#010105"/><path d="m236.15 77.31c-6.18-1.3-12.35-2.64-18.54-3.89-21.8-4.41-43.78-4.38-65.79-2.39-14.13 1.28-28.22 3-42.34 4.49-1.1.12-2.23.04-3.33-.02-2.69-.15-5.27-.59-5.71-3.94-.47-3.56 1.36-6.25 4.73-7.26 28.83-8.67 58.31-11.87 88.21-8.86 15.09 1.52 29.99 4.87 44.97 7.46 5.01.87 6.25-.47 5.29-5.53-.69-3.65-2.51-6.17-5.52-8.33-10.25-7.35-21.73-10.3-34.15-9.8-12.96.52-25.91 1.2-38.86 1.98-7.36.45-14.69 1.43-22.05 1.82-4.99.26-7.82-2.14-9.26-6.61-.63-1.95-.26-3.01 1.61-4.02 5.84-3.13 12.12-4.34 18.61-5.14 22.21-2.72 44.44-2.42 66.63-.23 9.63.95 18.17 5.05 25.89 11.02 5.38 4.16 7.91 9.49 8.49 16.03.35 3.9.49 7.83 1.17 11.67.27 1.52 1.43 3.55 2.72 4.11 5.8 2.51 11.72 4.84 17.75 6.73 5.41 1.69 8.91 4.86 10.4 10.31.6 2.2.13 3.47-2.27 4.22-5.7 1.78-10.65.4-15.64-2.54-4.37-2.59-9.06-4.7-13.74-6.69-2.62-1.11-5.01-.16-6.66 2.33-.55.84-1.36 1.5-1.89 2.35-7.88 12.56-20.38 14.92-33.64 14.56-7.78-.21-15.51-1.95-23.27-2.92-13.44-1.68-26.8-.01-40.18.97-4.68.34-9.38.59-14.05 1.09-2.11.23-3.03-.66-3.71-2.44-1.81-4.76-.35-7.77 4.6-9.07 21.94-5.79 44.07-6.9 66.47-2.9 8.3 1.48 16.77 2.04 24.71-1.72 3.12-1.48 5.82-3.86 8.72-5.82-.12-.32-.25-.67-.37-1.02z" fill="#010105"/></svg>