<svg enable-background="new 0 0 400 400" viewBox="0 0 400 400" xmlns="http://www.w3.org/2000/svg"><g fill="#fbfafa"><path d="m37.59 393.81c-.92.31-1.52.05-2-.78-.7-1.2-1.52-2.34-2.47-3.78v4.59c-.55.03-.95.05-1.41.07-.03-.37-.06-.64-.06-.91 0-1.91 0-3.81 0-5.7 1.13-.41 1.77-.03 2.29.91.62 1.11 1.38 2.14 2.31 3.19v-4.2h1.35v6.61z"/><path d="m12.94 393.88v-6.75c1.9.19 3.93-.54 5.37 1.29.8 1.01.78 2.88.03 3.97-1.37 1.97-3.4 1.51-5.4 1.49m1.45-1.22c2.04.12 2.92-.58 2.89-2.21-.03-1.51-.98-2.19-2.89-2z"/><path d="m11.81 393.87h-5.49c.68-2.18 2.47-3.48 3.51-5.45h-3.08v-1.21h5.29c-.71 2.13-2.44 3.48-3.47 5.51.86 0 1.63.04 2.39-.01.79-.05 1.14.21.85 1.16"/><path d="m39.33 393.86v-6.61h3.7v1.07h-2.22v1.52c.68.04 1.34.09 2.07.13v1.07c-.72.05-1.38.09-2.1.14v1.48h2.4v1.19h-3.85z"/><path d="m27.71 388.56c-1.15-.3-2.46-.61-3.1.64-.37.73-.41 1.93-.06 2.67.63 1.35 1.99.93 3.17.68.35.94-.01 1.32-.93 1.46-1.62.25-3.05-.27-3.76-1.48-.73-1.24-.6-3.03.31-4.17.88-1.11 2.71-1.7 4-1.16.32.13.44.74.65 1.12-.1.08-.19.16-.28.24"/><path d="m49.15 387.24v1.07c-.59.02-1.17.05-1.87.08v5.44h-1.48v-5.44h-1.85c-.05-.4-.08-.73-.13-1.15z"/><path d="m20.06 387.21h1.33v6.62h-1.33z"/><path d="m30.68 393.25c-.49.38-.8.79-1.05.76-.32-.05-.6-.45-.9-.7.26-.24.51-.64.8-.67.29-.04.62.3 1.15.61"/></g><path d="m166.73 314.55c-2.6.55-5.22 1.1-8.76 1.85-.8-3.94-2.18-7.79-2.23-11.66-.08-6.46.23-13.01 1.2-19.39 3.05-19.94 1.58-39.78-1.08-59.54-1.5-11.16-3.91-22.22-6.34-33.23-1.49-6.74-5.59-11.88-11.87-15.05-1.06-.54-2.21-.91-3.75-1.53 0 6.98.02 13.46 0 19.94-.17 40.41-.36 80.82-.5 121.24-.04 10.74.19 21.49-.03 32.22-.06 2.93-1.05 5.92-2.09 8.71-.54 1.44-1.93 2.79-3.27 3.64-3.26 2.07-5.31 1.57-6.18-2.15-1.36-5.82-2.72-11.83-2.72-17.76-.01-44.11.33-88.21.54-132.32.05-9.74.01-19.48-.01-29.22 0-.66-.1-1.31-.15-1.92-5.04-1.44-6.23-1.1-9.14 2.87-10.77 14.71-14.56 31.59-14.46 49.38.13 24.17.87 48.33 1.25 72.49.05 2.88-.13 5.86-.84 8.63-1 3.92-5.51 5.82-9.13 3.99-.94-.48-1.61-1.99-1.9-3.15-3.07-12.33-4.2-24.9-4.36-37.58-.24-19.83 0-39.67 2.99-59.29 1.27-8.32 4.75-16.28 6.62-24.55 1.98-8.76 6.34-15.6 13.19-21.42 3.78-3.21 7.56-5.82 12.29-7.02 2.14-.54 3.14-1.56 3.14-3.89 0-5.15.35-10.3.3-15.44-.01-1.03-.93-2.5-1.84-2.97-2.56-1.32-5.26-2.57-8.05-3.23-11.42-2.72-18.49-10.12-22.28-20.77-5.51-15.51-7.57-31.3-2.82-47.43 1.21-4.1 2.91-5.46 7.1-5.61.86-.03 1.99.79 2.6 1.54 3.13 3.89 3.53 8.51 3.49 13.32-.07 7.81-.57 15.7.3 23.43 1.47 13.23 8.99 21.46 21.58 24.4.58-7.64 1.75-15.17 1.6-22.67-.23-11.28-1.32-22.55-2.15-33.82-.95-12.78-1.08-25.49 2.48-37.97.46-1.61 1.08-3.17 1.66-4.74.23-.61.54-1.19.8-1.74 6.49.63 9.3 3.47 9.49 9.92.15 5.25-.03 10.52-.03 15.78-.01 23.51-.01 47.02 0 70.53 0 4.6 1.7 5.59 6.05 3.97 4.87-1.81 8.21-4.88 10.32-9.74 2.8-6.45 4.6-12.99 4.83-20.06.29-8.83.88-17.66 1.62-26.46.34-4.03 2.08-5.37 5.79-5.65 2.36-.17 4.23.48 4.88 2.98 1.43 5.49 3.67 10.95 4 16.52.87 14.65-1.91 28.73-9.26 41.65-.84 1.48-2.17 2.82-3.56 3.84-3.34 2.44-6.92 4.54-10.28 6.97-3.23 2.33-6.56 4.14-10.65 4.42-.79.06-2.05 1.31-2.15 2.13-.63 5.56-.93 11.15-1.5 16.72-.19 1.89.55 2.8 2.11 3.65 3.44 1.87 6.62 4.28 10.18 5.83 7.78 3.38 11.82 9.82 15.13 17.08 5.21 11.42 8.02 23.48 9.36 35.87 2.01 18.61 2.85 37.28.81 55.95-1.37 12.35-2.84 24.67-4.32 37.51z" fill="#010105"/><path d="m197.31 196.5c3.31 6.13 5.06 12.5 5.47 19.3.29 4.79.43 9.65 1.42 14.31 2.26 10.67 9.77 17.37 20.64 18.62 7.09.81 14.23 1.14 22.02 1.74 0-2.01-.02-3.86 0-5.7.14-9.74.23-19.47.49-29.2.06-2.37-.63-3.67-2.92-4.49-3.25-1.17-6.38-2.69-9.57-4.05-11.85-5.06-17.28-14.69-18.68-26.88-.91-7.86.41-15.61 2.65-23.19.22-.75.38-1.62.87-2.16 9.44-10.21 19.65-18.21 35.06-14.97 14.61 3.07 25.1 10.34 28.75 25.45 2.6 10.78-.18 20.81-4.85 30.48-.36.75-1.18 1.32-1.87 1.87-1.57 1.26-3.2 2.45-4.78 3.7-3.41 2.7-8 4.79-9.85 8.32-1.79 3.41-.8 8.31-.95 12.56-.42 11.97-.75 23.94-1.25 35.9-.09 2.03.56 3.04 2.44 3.09 2.22.05 4.52.19 6.65-.29 16.7-3.71 23.58-14.65 24.88-30.61.83-10.14 1.32-20.31 2.15-30.45.18-2.18.97-4.36 1.77-6.42 1.06-2.72 3.38-3.65 6.17-3.79 2.77-.14 2.8 2.25 3.44 3.82 3.72 9.07 3.95 18.54 2.6 28.06-1.75 12.45-4.83 24.56-10.27 35.97-1.41 2.96-3.37 5.22-6.14 7.24-9.38 6.86-19.74 10.68-31.27 11.46-2.47.17-3.39 1.18-3.42 3.75-.14 13.11-3.59 25.59-7.24 38.06-4.8 16.4-9.34 32.87-14.12 49.28-1.29 4.44-4.28 7.21-9.14 7.67-2.21.21-3.54-.48-4.28-2.69-1.61-4.8-1.28-9.54.57-14.1 2.78-6.83 5.83-13.54 8.75-20.31 4.4-10.17 6.34-20.96 7.67-31.84 1.73-14.08 3.11-28.21 4.69-42.78-4.47-.4-8.53-.78-12.59-1.13-4.79-.4-9.59-.8-14.38-1.15-14.93-1.08-23.46-11.56-26.47-21.74-3.41-11.52-4.73-23.23-2.83-35.15 1.16-7.09-.33-5.77 7.72-7.56zm30.64-22.91c.28.09.55.18.83.28-.04 5.69 2.27 10.52 5.13 15.31 4.45 7.47 16.98 9.69 22.96 7.08 9.8-4.28 14.68-12.92 14.08-23.67-.56-10.06-7.69-17.51-17.92-19.26-2.33-.4-4.98-.64-7.14.07-3.89 1.29-7.55 3.32-11.25 5.14-.84.41-1.84 1.11-2.14 1.91-1.63 4.35-3.06 8.76-4.55 13.14z" fill="#010105"/><path d="m273.73 74.52c-8.38 0-16.28 0-24.45 0 .3 8 1.83 15.07 5.08 21.8 3.53 7.32 6.95 14.7 10.21 22.14 1.1 2.51 1.4 5.37-1.4 7.22-2.51 1.66-7.17.95-9.17-1.28-8.04-8.95-14.42-18.84-16.62-30.89-.64-3.5-.34-7.16-.91-10.67-.81-5.05-1.8-7.53-7.88-5.33-4.41 1.59-9.04 2.56-13.46 4.11-1.37.48-2.87 1.75-3.49 3.05-4.07 8.52-2.37 16.94.62 25.39 2.34 6.6 4.29 13.33 6.53 20.39-3.17.61-5.87 1.2-8.6 1.58-.53.07-1.41-.58-1.73-1.13-7.25-12.52-12.82-25.59-12.51-40.44.05-2.56.54-5.11.91-7.65.73-5.04 3.28-8.65 7.69-11.47 10.11-6.47 21.23-9.34 33.01-9.93 19.43-.97 38.87-1.77 58.31-2.49 2.97-.11 6.04.37 8.94 1.08 1.87.46 3.77 1.55 5.23 2.84 4.26 3.77 3.69 6.44-1.7 7.79-5.19 1.3-10.48 2.27-15.75 3.24-3.33.61-4.74 2.36-3.56 5.59 2.14 5.84 4.06 11.81 6.78 17.38 3.53 7.22 7.79 14.07 11.64 21.14.9 1.65 1.56 3.48 2 5.3 1.03 4.33-.02 7.13-2.87 8.35-2.74 1.17-7.23-.22-9.26-3.03-10.02-13.86-19-28.2-21.56-45.6-.44-2.96-1.39-5.84-2.03-8.48z" fill="#010105"/></svg>