<svg enable-background="new 0 0 400 400" viewBox="0 0 400 400" xmlns="http://www.w3.org/2000/svg"><g fill="#010103"><path d="m117.8 176.11c-4.38 0-7.09 1.99-9.33 5.3-4.04 5.95-5.19 12.77-6.57 19.56-4.59 22.61-5.32 45.53-5.48 68.48-.08 12.08.36 24.16.51 36.24.02 1.78.09 3.73-.57 5.31-1 2.38-2.16 5.07-4.07 6.61-3.71 3-6.67 2.12-7.92-2.42-1.33-4.79-2.42-9.83-2.44-14.77-.07-19.81.2-39.62.59-59.42.33-16.56.66-33.19 6.56-48.98 2.3-6.15 4.69-12.45 8.23-17.91 3.87-5.98 9.26-10.93 16.57-12.86 3.19-.85 4.5-2.49 4.14-5.93-.37-3.54.06-7.17-.18-10.73-.07-.97-1.1-2.19-2.02-2.72-1.42-.83-3.11-1.21-4.71-1.71-14.07-4.37-19.77-15.77-23.2-28.56-4.11-15.28-3.62-30.79-.53-46.25.67-3.36 3.26-4.23 6.1-4.75 3.08-.57 4.29 1.21 5.21 3.85 3.22 9.33 3.47 18.85 2.14 28.5-2.04 14.7 4.75 25.33 16.38 34.94.73-6.64 2.02-12.47 1.88-18.27-.34-13.97-1.28-27.92-2.11-41.87-.83-13.94-.68-27.75 4.4-41.04.2-.51.46-1 .68-1.48 5.23.24 7.99 2.54 8.68 7.47.4 2.87.69 5.78.69 8.68.05 26.76.03 53.51.03 80.27v3.92c2.67.99 4.44.38 6.14-1.59 6.42-7.49 10.07-15.84 10-25.96-.06-8.93.68-17.88 1.31-26.81.18-2.51 1.05-5.02 1.9-7.42.85-2.41 2.91-3.13 5.36-3.23 2.39-.11 3.26 1.38 4.12 3.19 4.23 8.88 5.08 18.29 3.98 27.87-1.28 11.15-3.92 21.98-8.4 32.34-1.46 3.38-3.34 6.29-6.45 8.3-4.3 2.78-8.7 5.42-12.89 8.35-1.35.95-2.84 2.51-3.14 4.01-.92 4.58-1.41 9.25-1.74 13.91-.06.85 1.29 2.05 2.25 2.67 4.3 2.77 8.99 5.02 12.98 8.16 6.32 4.99 9.02 12.38 11.38 19.77 4.69 14.71 6.73 29.99 7.21 45.26.68 21.79-.02 43.62-.17 65.43-.03 4.81-.34 9.62-.31 14.43.02 2.28-.56 3.32-3.02 3.76-6.32 1.14-6.98 1.22-8.77-4.99-1.15-3.99-1.67-8.39-1.38-12.53 1.94-27.43 1.76-54.81-1.68-82.1-1.31-10.4-2.38-20.92-6.62-30.72-2.23-5.16-5.66-9-11.08-12.3-.09 1.11-.22 2.02-.23 2.94-.16 36.04-.36 72.09-.43 108.13-.04 22.05.19 44.09.14 66.14-.01 3.88-.6 7.81-1.39 11.62-.38 1.86-1.53 3.8-2.87 5.17-3.25 3.32-6.43 2.56-8.1-1.66-2.4-6.07-2.49-12.43-2.46-18.84.3-56.97.56-113.95.82-170.92.01-.54-.07-1.09-.12-1.84z"/><path d="m212.98 219.68c-3.12 6-5.65 12.06-9.22 17.42-3.86 5.81-8.25 11.45-13.28 16.24-2.45 2.34-6.82 2.99-10.46 3.65-2.59.47-3.88-2.01-3.34-4.21.63-2.59 1.65-5.47 3.44-7.32 10.04-10.4 17.06-22.4 19.98-36.59.99-4.8 1.31-9.74 1.66-14.64.08-1.05-.75-2.52-1.63-3.2-2.38-1.85-4.84-3.72-7.56-4.97-7.08-3.27-9.41-9.6-10.67-16.39-2.47-13.27.42-26.01 4.72-38.51.17-.49.67-1.32.89-1.28 2.48.44 5.19.56 7.3 1.73 1.15.64 1.7 3.12 1.76 4.79.09 2.75-.55 5.52-.65 8.28-.07 1.84.94 2.71 2.97 2.67 6.16-.11 12.32-.09 18.48-.01 1.75.02 2.66-.42 2.84-2.35.28-3 .87-5.97 1.25-8.97.5-3.98 3.67-6.77 7.6-6.24.91.12 1.93 1.28 2.44 2.21 5.73 10.63 6.23 22 4.47 33.63-.38 2.53-1.18 5-1.63 7.53-1.32 7.5-5.96 12.41-12.53 15.51-4.88 2.3-5.85 6.45-6.09 11.03-.05.96 1.05 2.13 1.87 2.96 6.78 7 11.96 15.04 15.84 23.94 4.63 10.62 4.17 21.09-1.12 31.38-5.06 9.84-10.16 19.67-15.04 29.6-1.04 2.11-1.68 4.63-1.72 6.97-.41 24.96-.73 49.92-.89 74.88-.02 2.96-1.53 4.28-3.67 5.34-2.66 1.32-5.38-.05-6.22-2.92-5.54-18.95-6.56-38.32-4.98-57.85.83-10.25 1.48-20.64 3.84-30.59 1.74-7.31 4.81-15.09 9.58-20.73 11.66-13.84 9.87-29.83-.23-42.99zm-16.25-58.02c.44 2.71.87 5.23 1.26 7.77 1.05 6.83 2.1 7.84 9.07 8.27 1.66.1 3.37 0 5.01-.3 6.87-1.25 9.33-4.93 8.19-11.82-.44-2.64-1.81-3.93-4.51-3.92-6.22.02-12.44 0-19.02 0z"/><path d="m274.53 230.1c-3.62 6.94-6.97 13.61-10.56 20.15-1.93 3.51-3.86 7.16-6.51 10.09-2.32 2.56-5.46 4.62-8.6 6.16-4.08 2-6.77.45-6.42-4.11.31-4.05 1.82-8.23 3.7-11.9 3.35-6.56 7.35-12.79 11.12-19.12 6.84-11.5 8.65-23.6 5.74-36.77-1.07-4.86-2.49-8.52-7.03-10.71-8.85-4.28-11.22-12.52-12.5-21.21-1.79-12.14-.44-23.84 5.8-35.02 1.69.29 3.47.46 5.16.92 3.54.95 4.26 2.53 3.55 6.2-.51 2.66-.61 5.39-.92 8.32 8.14.34 15.51.71 22.87.88.69.02 1.81-1.04 2.05-1.81.62-2.02.97-4.14 1.25-6.24.81-6.05 2.03-7.29 8.46-8.12 3.52 5.73 5.39 12.07 5.93 18.82.84 10.57-.86 20.69-5.36 30.34-1.69 3.63-4.28 5.94-7.91 7.66-8.01 3.8-7.91 3.96-7.28 12.76.34 4.69.71 9.38.82 14.07.05 2.56.95 4.23 2.9 5.95 3.51 3.09 6.93 6.4 9.79 10.07 7.47 9.58 8.9 20.1 4.43 31.56-5.23 13.42-9.91 27.06-15.17 40.47-3.7 9.44-3.46 19.05-2.2 28.74.85 6.53 2.64 12.96 3.17 19.51.46 5.74-.24 11.57-.43 17.37-.07 2.01-1.09 2.81-3.12 3.03-6.35.69-6.33.76-8.87-5.3-4.51-10.74-5.64-22.03-5.45-33.52.26-15.62 2.01-31.08 7.06-45.9 2.91-8.54 6.71-16.81 10.69-24.93 5.61-11.52 1.24-20.93-6.16-28.41zm-16.51-72.03c.65 3.7.94 7.25 1.95 10.59.96 3.18 3.2 5.53 6.57 6.62 4.53 1.46 8.36.26 11.66-2.91 3.17-3.05 3.69-7.09 3.24-11.1-.13-1.18-2.26-2.99-3.54-3.05-6.39-.32-12.81-.15-19.88-.15z"/><path d="m312.21 124.71c.16 3.5-3.34 6.14-6.86 5.4-1.83-.38-3.97-1.36-5.09-2.77-16.87-21.04-33.52-42.25-50.42-63.26-2.74-3.41-6.3-6.23-9.71-9.03-1.7-1.39-3.4-1.11-5.01 1.03-18.89 25.13-37.9 50.17-56.85 75.26-2.41 3.19-4.81 6.27-9.38 6.1-4.09-.16-6.2-2.37-5.18-6.27.8-3.06 1.91-6.45 3.95-8.72 13.44-14.96 24.73-31.47 35.76-48.21 8.66-13.14 18.7-25.11 30.75-35.35 2.31-1.96 4.4-2.09 7.03-1.18 6.04 2.11 9.87 6.84 13.69 11.51 17.15 20.96 34.2 42 51.32 62.99 3.17 3.89 5.66 8.04 6 12.5z"/><path d="m235.59 96.14c6.01.43 12.08.5 18.02 1.44 2.77.44 5.7 2.07 7.79 4 2.53 2.33 1.72 4.61-1.41 6.13-9.67 4.68-19.96 4.46-30.25 3.59-4.54-.39-9.02-1.5-13.49-2.48-2.63-.58-4.42-7.21-2.26-8.73 2.11-1.48 4.69-2.87 7.18-3.13 4.76-.49 9.6-.14 14.41-.14 0-.23.01-.45.01-.68z"/></g><path d="m377.9 391.2c-.2.3-.4.5-.6.8-.7-.6-1.4-1-2.2-1.5.2-.3.4-.5.5-.8.6.4 1.4.8 2.3 1.5zm-1.8 6.1c-.2-.2-.5-.4-.9-.6.4-.6.8-1.2 1.2-1.9s.7-1.3.9-1.9c.3.3.5.5.8.7-.7 1.3-1.4 2.6-2 3.7zm2.2-9c-.3.3-.5.5-.6.8-.6-.6-1.3-1.1-2-1.5.3-.3.5-.5.6-.7.6.5 1.3.9 2 1.4zm.3.2v-.9h2 4.5c-.3 1.3-.6 2.5-1 3.6s-.9 2.1-1.4 3c.4.5 1 1 1.6 1.4s1.2.8 1.9 1.1c-.3.2-.5.4-.8.8-.4-.3-1-.7-1.6-1.2s-1.2-1.1-1.6-1.6c-.5.6-1.1 1.1-1.7 1.6s-1.4.9-2.1 1.4c-.1-.3-.3-.5-.7-.8.6-.2 1.2-.5 1.9-1s1.4-1.1 2-1.8c-.5-.8-.9-1.6-1.2-2.5s-.6-2-.8-3.2c-.4.1-.7.1-1 .1zm2.5 2.7c.3 1 .7 1.7 1 2.2.3-.5.6-1.1 1-2s.6-1.9.9-3h-3.2-.4c.1.9.3 1.8.7 2.8z" fill="#fcfbfa"/><path d="m396.5 388.5v1.5 3.6h1.5v.9c-.4 0-1 0-1.7 0h-7.9c-.5 0-.9 0-1.2 0v-.9h1.3v-3.5c0-.7 0-1.2 0-1.6h2.4c0-.8 0-1.4 0-1.7h1c0 .3-.1.8-.1 1.7h1.5c0-.8 0-1.4 0-1.7h1c0 .3-.1.9-.1 1.7zm-8.2 9.2c-.2-.3-.5-.5-.8-.8.8-.3 1.4-.6 1.9-.9s1-.7 1.4-1.1c.3.3.6.5.9.8-1.6 1-2.8 1.6-3.4 2zm2.6-6.8v-1.6h-1.5v1.6zm0 2.7v-1.9h-1.5v1.9zm2.4-2.7v-1.6h-1.5v1.6zm0 2.7v-1.9h-1.5v1.9zm.2 2 .7-.8c.4.2.9.5 1.6.8s1.3.7 1.8 1c-.3.3-.5.5-.8.8-.4-.3-1.5-1-3.3-1.8zm2-4.7v-1.6h-1.4v1.6zm0 2.7v-1.9h-1.4v1.9z" fill="#fcfbfa"/></svg>