<svg enable-background="new 0 0 400 400" viewBox="0 0 400 400" xmlns="http://www.w3.org/2000/svg"><path d="m361.2 9.6.8-1c.9.7 1.9 1.4 2.9 2.3l-.9 1.1c-1-1-2-1.8-2.8-2.4zm.5 10.6c.9-2.1 1.6-4.3 2.3-6.7.4.2.8.4 1.3.6-.7 2.1-1.5 4.3-2.2 6.6zm.4-15.2.9-.9c1 .8 2 1.6 2.8 2.4l-1 1c-.9-.9-1.8-1.7-2.7-2.5zm12.5-1.2h1.2v1.4h2.7v1.1h-2.7v2.7h-1.2v-.6h-1.8v1.3h4.9v3.8h-1.2v-.5h-3.7c0 .4-.1.9-.1 1.2h5.1v1h-5.2c0 .5-.1.9-.2 1.2h6v1h-5.2c1.1 1.3 2.9 2 5.5 2.2-.4.4-.7.8-.9 1.3-2.9-.5-4.8-1.6-5.7-3.5h-.1c-.8 1.7-2.7 2.9-5.9 3.6-.2-.4-.6-.8-.9-1.1 2.8-.6 4.6-1.4 5.4-2.5h-4.8v-1h5.3c.1-.3.2-.7.2-1.2h-4.9v-1h5c0-.4 0-.8.1-1.2h-3.5v.5h-1.2v-3.8h4.9v-1.3h-1.8v.5h-1.2v-2.7h-2.7v-1h2.6v-1.4h1.2v1.4h4.7v-1.4zm-6.6 8.3h3.6c0-.4 0-.9 0-1.4h-3.6zm1.9-4.6h4.7v-1.3h-4.7zm6.6 3.2h-3.7v1.4h3.7z" fill="#fbfcfa"/><path d="m385.3 3.8h1.3v2.2h2.8v-2.2h1.3v2.2h4.1v9.1h1.7v1.3h-16.9v-1.3h1.7v-9.1h4.1v-2.2zm.4 13.1.7 1.2c-1.8.9-3.8 1.9-6 2.9-.2-.4-.5-.8-.8-1.3 2.3-1 4.3-1.9 6.1-2.8zm-3.1-6.4h2.8v-3.2h-2.8zm0 4.6h2.8v-3.3h-2.8zm4-4.6h2.8v-3.2h-2.8zm0 4.6h2.8v-3.3h-2.8zm3.7 1.9c2.1.9 4.1 1.8 6.1 2.7l-.7 1.3c-2.2-1.1-4.2-2-6.1-2.9zm3.2-9.7h-2.8v3.2h2.8zm-2.8 7.8h2.8v-3.3h-2.8z" fill="#fbfcfa"/><g fill="#010102"><path d="m131.74 186.02c0 4.64.02 8.97 0 13.3-.17 27.87-.34 55.73-.55 83.6-.1 14.32-.39 28.65-.37 42.97.02 11.41.46 22.81.51 34.22.01 2.52-.45 5.2-1.39 7.52-.84 2.07-2.32 4.15-4.08 5.5-2.99 2.31-5.57 1.58-6.53-1.99-1.3-4.8-2.58-9.79-2.63-14.71-.14-16.22.41-32.45.45-48.67.09-38.5.03-77.01.03-115.51 0-1.33 0-2.66 0-4.61-3.72.93-7.14 1.69-10.49 2.68-.69.2-1.25 1.18-1.68 1.91-7.65 12.9-11.68 26.62-10.92 41.85.41 8.23-.66 16.53-1.03 24.8-.41 9.26-1.14 18.53-1.09 27.79.08 13.75.79 27.49 1.1 41.23.05 2.31-.34 4.7-.9 6.95-1.35 5.42-3.63 7-9.17 6.42-.75-.08-1.84-.97-2.04-1.69-1.43-5.01-3.82-10.07-3.79-15.11.16-25.06.89-50.12 1.6-75.17.55-19.45 3.82-38.48 9.77-57 .74-2.29 2.51-4.29 4.01-6.27.86-1.13 2.23-1.87 3.23-2.92 5.12-5.39 11.11-9.26 18.52-10.66 2.23-.42 3.08-1.54 2.95-3.93-.23-4.24-.16-8.51-.02-12.76.06-1.89-.61-2.8-2.33-3.45-3.24-1.23-6.29-3.04-9.59-3.97-10.18-2.84-15.71-10.39-19.46-19.36-7.76-18.57-8.42-37.77-3.96-57.25.98-4.27 4.92-2.7 7.56-4.11 3.9 8.36 5.84 16.81 6.28 25.57.3 5.91.01 11.86.09 17.78.17 12.36 8.32 23.01 20.7 26.24 0-8.22-.01-16.22 0-24.23.05-23.72.13-47.44.13-71.16 0-5.16 1.22-9.93 3.57-14.49.84-1.63 1.81-1.95 3.47-1.51 4.35 1.14 6.95 4.2 7.06 9.4.21 9.39.08 18.78.19 28.17.28 23.95.62 47.89.94 71.84.01.55.1 1.1.17 1.76 8.67-2.43 14.24-8 17.47-16.14 3.78-9.54 4.34-19.58 4.72-29.65.2-5.47.23-10.96.62-16.42.11-1.54.92-3.29 1.95-4.47 3.15-3.58 6.28-3.07 8.49 1.07 4.09 7.66 4.75 16 3.36 24.2-1.99 11.76-4.11 23.65-7.85 34.93-3.5 10.55-11.13 18.15-22.91 20.12-5.48.91-5.44.87-5.84 6.59-.33 4.67-.8 9.33-1.22 14.22 2.9.86 5.62 1.9 8.44 2.47 17.2 3.5 25.36 15.2 28.23 31.4 5.83 32.93 8.53 66.13 7.44 99.56-.35 10.7-2.04 21.35-3.15 32.02-.32 3.1-2.28 4.76-5.24 5.19-3.09.45-4.31-1.64-5.28-4.08-2.92-7.31-2.12-14.94-2.12-22.54 0-24.61.41-49.24-.46-73.82-.43-11.96-2.81-23.96-5.33-35.72-2.36-10.98-10.39-16.99-21.63-19.9z"/><path d="m200.76 50.65c3.45 7.88 5.52 15.94 5.83 24.41.48 12.76 7.99 19.26 21.12 18.08 2.78-10.55 2.51-21.21.69-31.87-1.75-10.2-.76-20.01 3.18-29.6 1.16-2.82 2.69-3.08 5.14-1.93 2.89 1.36 4.69 3.59 4.87 6.71.48 8.59.88 17.19 1.09 25.79.24 9.84.24 19.69.36 29.54.01.76.14 1.52.25 2.72 7.12-1.73 14.13-3.11 20.89-5.28 1.72-.55 3.24-3.48 3.79-5.59 1.74-6.66 3.08-13.44 4.37-20.21.81-4.24 1.68-8.38 5.29-11.24 2.1-1.66 3.81-2.06 5.59.86 4.56 7.5 4.67 15.45 3.11 23.68-.33 1.76-.76 3.5-1.17 5.23-1.63 6.83-4.93 12.04-11.09 16.29-8.1 5.6-16.45 9.2-26.24 9.41-2.82.06-4.14 1.21-4.46 4.12-.32 2.97-1.21 5.88-1.95 9.28h3.81c15.89 0 31.79-.11 47.68.06 4.89.05 9.8.75 14.67 1.38 2.87.37 4.89 1.84 5.29 5.12.4 3.35-1.25 5.41-4.14 5.83-6.37.93-12.8 1.5-19.22 1.92-6.87.46-13.77.58-21.19.88.61 5.5 1.07 10.22 1.67 14.93.91 7.06 1.15 7.63 8.33 8.67 6.05.87 12.21.92 18.33 1.26 2.67.15 5.44-.25 8.01.29 2.55.53 5.33 1.45 7.26 3.08 1.92 1.62 2.92 4.33 4.32 6.56-1.86 1.1-3.61 2.5-5.61 3.25-10.73 4.08-21.61 2.64-32.38.27-4.66-1.03-9.11-2.97-13.69-4.4-2.44-.76-3.73-2.37-4.85-4.62-3.36-6.76-3.24-14.08-3.95-21.29-.02-.22-.03-.45-.05-.67-.6-5.9-.75-6.01-6.55-6.3-9.03-.44-18.05-.94-27.35-1.42-.5 6.46-1.26 12.68-1.39 18.92-.09 4.56-2.2 7.83-5.13 10.85-8.19 8.45-18.71 12.54-29.82 15.04-5.28 1.19-10.85 1.07-16.3 1.47-3.01.22-5.09-1.19-5.43-4.2-.32-2.83-.02-5.6 3.4-6.78 7.5-2.57 15.08-4.97 22.4-7.97 5-2.05 9.76-4.78 14.37-7.62 2.44-1.5 3.63-4.18 3.18-7.29-.11-.77-.02-1.56-.02-2.35 0-8.74 0-8.77-8.95-8.86-5.82-.06-11.64.08-17.46-.06-2.2-.06-4.47-.41-6.56-1.09-3.46-1.12-5.1-3.96-4.88-7.53.12-1.87.73-3.14 2.88-3.32 5.89-.5 11.76-1.23 17.65-1.64 6.56-.46 13.14-.78 19.72-.97 5.58-.16 11.16-.03 17.11-.03.55-4.37 1.17-8.43 1.46-12.5.05-.74-1.12-2.01-1.98-2.3-4.34-1.45-8.73-2.82-13.17-3.91-11.13-2.72-17.29-10.2-19.9-20.86-2.02-8.26-1.91-16.66-.27-24.98 1.18-5.84 1.32-5.82 8.04-7.22z"/><path d="m226.69 242.91c-1.86-8.38-3.69-16.32-5.36-24.3-.41-1.96-1.45-2.57-3.22-2.52-8.04.22-16.08.51-24.12.64-3.67.06-7.4.09-11-.48-2.08-.33-4.29-1.51-5.87-2.94-4.39-4-3.55-8.26 2.1-9.51 5.63-1.24 11.47-1.55 17.23-2.14 5.55-.57 11.12-1.03 16.68-1.45 2.09-.16 2.73-1.24 2.37-3.1-.35-1.86-.67-3.74-1.24-5.54-1.39-4.34-.8-8.44 1.48-12.24.48-.81 2.08-1.53 3.02-1.38 5.3.86 7.71 3.76 8.74 9.14.64 3.36 1.7 6.69 3.05 9.83.43 1 2.45 1.99 3.63 1.87 11.91-1.18 23.8-2.56 35.67-4.03.9-.11 2.09-1.23 2.4-2.13.77-2.2.94-4.6 1.67-6.82.5-1.53 1.22-3.24 2.38-4.25 2.81-2.47 5.16-1.85 6.81 1.5 3.3 6.67 4.45 13.93 4.41 21.18-.06 10.15-1.01 20.29-1.54 30.44-.2 3.79-2.22 6.37-5.14 8.56-8.71 6.53-18.61 9.52-29.34 10.11-.88.05-1.77.01-3.04.01 1 3.15 1.88 6 2.82 8.83 4.81 14.53 9.25 29.19 14.58 43.53 3.41 9.18 8.05 17.91 12.31 26.75 4.9 10.17 10.02 20.23 14.96 30.38.82 1.69 1.44 3.52 1.84 5.36.75 3.47-.62 6.44-3.14 7.35-2.91 1.05-6.14-.17-8.02-2.99-18.14-27.16-31.08-56.79-41.54-87.6-2.91-8.57-6.17-17.02-8.96-25.62-.97-3-2.37-3.57-5.3-3.16-12.62 1.76-25.28 3.31-37.93 4.87-5.21.64-9.28-2.26-9.91-6.79-.25-1.75.23-2.8 1.88-3.77 7.88-4.63 16.53-5.05 25.31-4.96 6.46.06 12.93.12 19.33-2.63zm8.74-28.37c2.8 8.28 5.39 16.12 8.16 23.89.31.86 1.61 1.96 2.44 1.96 8.22-.07 16.25-1.09 23.49-5.5 1.56-.95 2.37-1.92 2.37-3.91.03-6.37.33-12.73.5-19.1.04-1.37.01-2.75.01-4.35-12.56 2.38-24.61 4.67-36.97 7.01z"/></g></svg>