<svg enable-background="new 0 0 400 400" viewBox="0 0 400 400" xmlns="http://www.w3.org/2000/svg"><g fill="#010103"><path d="m126.16 187.47c0 17.68.07 35.36-.02 53.03-.13 26.41-.46 52.83-.53 79.24-.04 12.86.41 25.72.41 38.58 0 2.49-.51 5.28-1.73 7.39-1.11 1.92-3.28 3.73-5.37 4.46-3.75 1.29-5.14.45-5.77-3.49-1.03-6.48-2.1-13.05-2.14-19.59-.28-51.93-.32-103.85-.43-155.78 0-.41-.09-.82-.2-1.83-4.54 5.37-7.45 11.06-9.84 17.03-5.39 13.47-7.29 27.65-7.89 42-.71 16.99-1.11 34-1.37 51-.13 8.6.44 17.21.47 25.82.01 2.05-.63 4.21-1.41 6.14-1.11 2.76-3.46 3.81-6.43 3.97-3 .17-4.18-2.03-4.66-3.98-1.19-4.83-2.52-9.82-2.46-14.73.26-21.15.9-42.29 1.59-63.43.64-19.45 3.6-38.49 10.75-56.74 3.66-9.36 9.12-17.11 18.41-21.59 2.29-1.1 3.2-2.48 3.2-5.12-.01-5.7.29-11.41.73-17.1.19-2.35-.67-3.18-2.7-4.13-5.33-2.49-10.81-4.91-15.55-8.31-3.1-2.23-5.88-5.76-7.31-9.31-7.7-19.24-9.8-39.15-5.47-59.53.42-1.98 1.84-4.14 3.44-5.38 3.18-2.48 6.69-1.07 7.92 2.76 3.22 10.04 3.26 20.29 1.59 30.55-2.44 15.03 2.9 26.48 15.41 34.82.43.29.89.51 2.11 1.21 0-9.12-.04-17.58.01-26.04.12-19.81.29-39.61.45-59.42.04-5.25 1.17-10.24 4.17-14.61.49-.72 1.97-1.28 2.85-1.13 3.97.69 6.36 3.28 6.87 7.21.46 3.54.63 7.13.62 10.7-.08 27.08-.23 54.17-.36 81.25 0 .22.09.43.24 1.08 3.73-1.09 7.26-1.39 9.65-5.66 6.68-11.95 8.42-24.86 8.71-38.17.12-5.48-.1-10.98.26-16.45.24-3.61.58-7.48 4.92-9.12 2.08-.79 3.44-.64 4.7 1.48 4.04 6.78 5.51 14.22 5.35 21.89-.32 14.98-2.94 29.59-8.75 43.47-.9 2.14-2.69 4.02-4.4 5.68-2.08 2.01-4.63 3.54-6.78 5.48-3.58 3.23-7.54 5.49-12.71 5.41-.37 7.41-.78 14.43-.99 21.46-.03.84.86 1.97 1.64 2.53 1.8 1.31 3.72 2.51 5.72 3.5 12.48 6.19 18.74 17.1 21.65 29.94 2.24 9.89 3.44 20.04 4.67 30.13 1.78 14.65 3.53 29.32 4.6 44.04 1.24 17.11.89 34.22-2.9 51.1-.62 2.78-2.06 4.2-4.74 4.16-2.64-.04-4.75-.62-5.63-3.94-2.96-11.12-3.02-22.41-2.2-33.68 1.19-16.29-.59-32.42-2-48.57-.83-9.58-1.68-19.17-3.11-28.67-1.25-8.26-2.68-16.66-7.47-23.8-2.37-3.54-5.49-6.58-8.27-9.84-.52.2-1.02.42-1.52.63z"/><path d="m211.85 137.81c0-5.01 0-9.69 0-15.36-5.47 0-11.24.03-17-.01-7.61-.05-15.23.02-22.83-.31-2.57-.11-5.27-.96-7.58-2.13-2.09-1.06-2.77-3.29-2.24-5.82.49-2.37 1.96-3.07 4.13-3.61 12.03-2.98 24.22-2.18 36.4-1.96 7.83.14 15.67.08 23.51.2 1.71.03 2.41-.6 2.52-2.27.23-3.46.5-6.92.9-10.37.21-1.85-.35-2.55-2.26-2.78-5.77-.69-11.51-1.76-17.29-2.38-11.26-1.22-18.5-7.76-23.36-17.4-4.29-8.5-4.98-17.37-1.57-26.31.63-1.66 2.31-3.3 3.93-4.13 3.44-1.76 4.98-.76 5.63 3.03 1.06 6.17 2.24 12.33 3.12 18.53.87 6.18 4.5 10.3 10.13 11.65 6.24 1.5 12.81 1.74 19.25 2.28.71.06 2.06-1.39 2.27-2.33 2.02-8.78 1-17.57-.24-26.35-1.11-7.88.41-15.33 3.68-22.52.94-2.07 2.08-2.24 3.94-1.37 4.32 2.03 6.44 5.75 6.7 10.14.44 7.58.28 15.19.33 22.78.04 6.46.01 12.92.01 19.79 8.57-1.44 16.48-2.74 24.37-4.15.74-.13 1.55-.83 2.01-1.49 1.74-2.47 3.44-4.98 4.95-7.59.57-.99.76-2.3.82-3.48.24-4.47.26-8.95.56-13.42.37-5.58 4.32-7.6 9.15-4.67.8.49 1.37 1.67 1.65 2.64 2.75 9.52 2.04 19.03-.27 28.51-.2.82-.78 1.6-1.34 2.26-6.99 8.3-15.37 13.84-26.71 14.02-4.01.06-8.02.75-11.98 1.45-.96.17-2.24 1.39-2.45 2.34-.86 3.92-1.37 7.92-2.17 12.89 4.47 0 8.66-.05 12.85.01 15.89.24 31.78.49 47.67.81 2.45.05 4.96.24 7.31.87 1.74.47 3.62 1.44 4.8 2.76 2.84 3.16 2.25 5.34-1.55 7.05-5.71 2.57-11.76 3.48-17.98 3.39-10.96-.17-21.92-.41-32.88-.52-2.66-.03-5.32.31-8.21.5.15 1.23.26 2.19.4 3.15 1.13 7.96 1.09 8.26 9.08 9.54 10.37 1.66 20.84 2.74 31.25 4.18 4.87.67 9.92 1.15 13.75 4.68 1.94 1.79 3.89 3.86 4.95 6.2.82 1.8 1.14 5.08.09 6.15-1.32 1.36-4.24 1.21-6.5 1.55-.59.09-1.31-.3-1.89-.61-11.22-6.03-23.54-6.31-35.83-7.33-6.59-.54-13.06-2.65-19.52-4.28-1.05-.26-2.09-1.58-2.63-2.66-1.83-3.71-3.72-7.43-5.01-11.33-.92-2.78-.9-5.87-1.38-9.37-4.47-.22-9.21-.46-14.43-.72-.67 6.49-1.4 12.77-1.95 19.06-.63 7.29-1.81 9.26-8.99 10.63-6.23 1.18-12.65 1.33-18.98 2.01-3.11.33-6.19.99-9.3 1.23-4.96.39-8.62 3.34-12.63 5.78-3 1.82-6.29 3.36-9.64 4.36-2.89.86-5.05-.83-4.73-3.8.28-2.61 1.15-5.82 2.94-7.49 9.62-8.96 20.95-14.31 34.34-14.84 4.41-.17 8.85-.78 13.93-1.26z"/><path d="m254.1 340.11c-5.91 0-12.39-.11-18.87.12-.97.03-2.42 1.48-2.75 2.54-2.03 6.62-3.7 13.34-5.71 19.96-.77 2.53-1.88 5.02-3.25 7.28-1.79 2.95-4.84 3.48-7.99 2.83-.84-.17-1.77-1.25-2.13-2.13-2.38-5.79-1.9-11.58.32-17.32 1.93-5 3.82-10.01 5.76-15 .82-2.12.28-3.71-1.3-5.39-4.43-4.74-8.4-9.94-13.03-14.47-5.44-5.33-7.18-12.01-7.93-19.05-1.49-13.9 2.34-27.04 6.44-40.08.3-.96 1.24-1.83 2.08-2.5 4.39-3.53 9.49-5.31 15.03-6.11 9.67-1.4 19.35-1.74 29.09-.71 7.34.77 14.73 1.8 22.07 1.64 7.97-.17 12.31 4.39 16.09 10.13 3.92 5.96 5.36 12.72 5.53 19.77.3 12.5-.63 24.82-5.61 36.5-.72 1.69-1.8 3.35-3.09 4.65-4.26 4.29-8.61 8.49-13.08 12.55-1.79 1.63-2.31 3.17-1.73 5.55 1.74 7.17 3.3 14.38 4.79 21.6.4 1.95.5 4.01.38 6-.28 4.75-4.35 7.72-8.94 6.48-.79-.21-1.56-1.43-1.86-2.34-3.42-10.63-6.76-21.27-10.31-32.5zm25.01-54.25c-22.61-.58-44.9-1.16-67.3-1.74v14.45h67.3c0-4.43 0-8.31 0-12.71zm-60.76 26.6c7.38 11.62 18.17 15.41 30.79 14.6 9.95-.64 18.25-5.08 25.67-12.85-19.29-.6-37.78-1.17-56.46-1.75zm-4.7-41.56h63.99c-4.24-5.36-9.25-7.73-14.96-8.04-8.24-.45-16.53-.78-24.75-.28-6.84.41-13.62 2.02-20.4 3.24-2.78.5-4.09 2.39-3.88 5.08z"/><path d="m240.71 162c14.16.86 28.35 1.37 42.47 2.66 14.45 1.32 19.92 8.02 21.72 22.5 1.39 11.16-1.77 21.22-5.04 31.42-.29.89-1.03 1.71-1.75 2.37-19.03 17.53-41.57 23.64-66.95 20.57-11-1.33-21.45-4.51-31.21-9.68-11.7-6.2-17.33-16.71-19.43-29.28-1.52-9.12.21-18.05 3.01-26.75.41-1.29 1.35-2.57 2.38-3.47 8.66-7.58 19.24-9.63 30.26-9.99 8.16-.27 16.33-.05 24.5-.05.01-.09.02-.19.04-.3zm-46.25 41.67c-.04 4.21 1.11 7.23 3.83 9.29 4.17 3.16 8.59 6 12.84 9.06 1.99 1.43 3.83 1.06 5.49-.32 2.75-2.28 5.33-4.75 8.04-7.08 3.8-3.26 7.53-6.61 11.53-9.61 2.34-1.76 4.92-1.77 7.8-.22 6.98 3.77 14.18 7.15 21.3 10.64 3.51 1.72 7.25 4.98 10.53 4.58 3.43-.42 6.28-4.62 9.66-6.73 3.69-2.3 3.77-5.61 3.66-9.36-9.34-2.4-18.52-4.76-27.71-7.11-6.91-1.77-10.63-6.05-11.1-13.17-.19-2.92-1.43-5.09-4.09-5.94-3.23-1.03-6.63-1.54-10.2-2.33-.44 3.45-.74 6.21-1.13 8.95-1.65 11.61-5.59 15.04-17.05 16.06-7.78.71-15.47 2.15-23.4 3.29zm.44-12.99c8.7-2 16.62-3.8 24.53-5.67.53-.13 1.34-.75 1.34-1.13 0-2.17.43-4.75-.58-6.39-.71-1.14-3.58-1.59-5.33-1.32-5.28.82-10.49 2.1-15.7 3.34-.79.19-1.8 1-2.02 1.73-.83 2.84-1.4 5.78-2.24 9.44zm96.4-1.67c-2.41-5.65-3.97-11.31-10.1-12.44-5.84-1.07-11.88-1.01-18.54-1.5 1.07 2.98 1.66 5.13 2.62 7.09.45.92 1.52 1.93 2.48 2.13 7.51 1.62 15.06 3.05 23.54 4.72zm-34.16 37.48c.05-.24.1-.47.15-.71-2.36-1.21-4.7-2.46-7.08-3.63-3.09-1.53-6.36-4.4-9.28-4.1-2.9.3-5.46 3.83-8.17 5.94-.35.27-.78.51-1.02.86-.49.75-.88 1.56-1.31 2.35.78.25 1.58.75 2.34.71 8.14-.43 16.25-.94 24.37-1.42z"/></g><path d="m377.9 391.2c-.2.3-.4.5-.6.8-.7-.6-1.4-1-2.2-1.5.2-.3.4-.5.5-.8.6.4 1.4.8 2.3 1.5zm-1.8 6.1c-.2-.2-.5-.4-.9-.6.4-.6.8-1.2 1.2-1.9s.7-1.3.9-1.9c.3.3.5.5.8.7-.7 1.3-1.4 2.6-2 3.7zm2.2-9c-.3.3-.5.5-.6.8-.6-.6-1.3-1.1-2-1.5.3-.3.5-.5.6-.7.6.5 1.3.9 2 1.4zm.3.2v-.9h2 4.5c-.3 1.3-.6 2.5-1 3.6s-.9 2.1-1.4 3c.4.5 1 1 1.6 1.4s1.2.8 1.9 1.1c-.3.2-.5.4-.8.8-.4-.3-1-.7-1.6-1.2s-1.2-1.1-1.6-1.6c-.5.6-1.1 1.1-1.7 1.6s-1.4.9-2.1 1.4c-.1-.3-.3-.5-.7-.8.6-.2 1.2-.5 1.9-1s1.4-1.1 2-1.8c-.5-.8-.9-1.6-1.2-2.5s-.6-2-.8-3.2c-.4.1-.7.1-1 .1zm2.5 2.7c.3 1 .7 1.7 1 2.2.3-.5.6-1.1 1-2s.6-1.9.9-3h-3.2-.4c.1.9.3 1.8.7 2.8z" fill="#fcfbfa"/><path d="m396.5 388.5v1.5 3.6h1.5v.9c-.4 0-1 0-1.7 0h-7.9c-.5 0-.9 0-1.2 0v-.9h1.3v-3.5c0-.7 0-1.2 0-1.6h2.4c0-.8 0-1.4 0-1.7h1c0 .3-.1.8-.1 1.7h1.5c0-.8 0-1.4 0-1.7h1c0 .3-.1.9-.1 1.7zm-8.2 9.2c-.2-.3-.5-.5-.8-.8.8-.3 1.4-.6 1.9-.9s1-.7 1.4-1.1c.3.3.6.5.9.8-1.6 1-2.8 1.6-3.4 2zm2.6-6.8v-1.6h-1.5v1.6zm0 2.7v-1.9h-1.5v1.9zm2.4-2.7v-1.6h-1.5v1.6zm0 2.7v-1.9h-1.5v1.9zm.2 2 .7-.8c.4.2.9.5 1.6.8s1.3.7 1.8 1c-.3.3-.5.5-.8.8-.4-.3-1.5-1-3.3-1.8zm2-4.7v-1.6h-1.4v1.6zm0 2.7v-1.9h-1.4v1.9z" fill="#fcfbfa"/></svg>