<svg enable-background="new 0 0 400 400" viewBox="0 0 400 400" xmlns="http://www.w3.org/2000/svg"><g fill="#fbfafa"><path d="m37.59 393.81c-.92.31-1.52.05-2-.78-.7-1.2-1.52-2.34-2.47-3.78v4.59c-.55.03-.95.05-1.41.07-.03-.37-.06-.64-.06-.91 0-1.91 0-3.81 0-5.7 1.13-.41 1.77-.03 2.29.91.62 1.11 1.38 2.14 2.31 3.19v-4.2h1.35v6.61z"/><path d="m12.94 393.88v-6.75c1.9.19 3.93-.54 5.37 1.29.8 1.01.78 2.88.03 3.97-1.37 1.97-3.4 1.51-5.4 1.49m1.45-1.22c2.04.12 2.92-.58 2.89-2.21-.03-1.51-.98-2.19-2.89-2z"/><path d="m11.81 393.87h-5.49c.68-2.18 2.47-3.48 3.51-5.45h-3.08v-1.21h5.29c-.71 2.13-2.44 3.48-3.47 5.51.86 0 1.63.04 2.39-.01.79-.05 1.14.21.85 1.16"/><path d="m39.33 393.86v-6.61h3.7v1.07h-2.22v1.52c.68.04 1.34.09 2.07.13v1.07c-.72.05-1.38.09-2.1.14v1.48h2.4v1.19h-3.85z"/><path d="m27.71 388.56c-1.15-.3-2.46-.61-3.1.64-.37.73-.41 1.93-.06 2.67.63 1.35 1.99.93 3.17.68.35.94-.01 1.32-.93 1.46-1.62.25-3.05-.27-3.76-1.48-.73-1.24-.6-3.03.31-4.17.88-1.11 2.71-1.7 4-1.16.32.13.44.74.65 1.12-.1.08-.19.16-.28.24"/><path d="m49.15 387.24v1.07c-.59.02-1.17.05-1.87.08v5.44h-1.48v-5.44h-1.85c-.05-.4-.08-.73-.13-1.15z"/><path d="m20.06 387.21h1.33v6.62h-1.33z"/><path d="m30.68 393.25c-.49.38-.8.79-1.05.76-.32-.05-.6-.45-.9-.7.26-.24.51-.64.8-.67.29-.04.62.3 1.15.61"/></g><path d="m113.07 180.08c-8.54 1.8-11.83 7.99-13.73 14.28-2.55 8.49-4.47 17.36-5.19 26.18-2.04 24.98-3.44 50.01-4.85 75.03-.46 8.14.06 16.32-.25 24.47-.2 5.19-2.8 8.21-6.63 8.95-2.19.42-4.24.19-4.98-2.18-1.31-4.21-3.4-8.54-3.3-12.77.71-29.52 1.52-59.06 3.1-88.54.89-16.54 5.59-32.4 13.59-47 1.5-2.74 4.93-4.66 7.84-6.31 3.47-1.97 7.35-3.22 11.02-4.86 2.1-.94 3.12-2.44 3.08-4.98-.08-4.36.11-8.74.52-13.07.29-3.02-.64-4.42-3.57-5.62-12.62-5.17-22.15-13.88-27.62-26.48-6.19-14.24-7.39-29.14-4.84-44.39.3-1.76.68-3.51 1.08-5.25 1.42-6.13 1.47-6.16 8.44-6.97 4.28 9.07 6.07 18.76 6.3 28.78.11 4.58-.21 9.18-.15 13.76.15 11.93 8.39 22.96 19.86 26.3 0-6.7-.03-13.27.01-19.83.13-23.17.31-46.33.39-69.5.02-4.99 1.23-9.54 4.31-13.44.62-.78 2.23-1.31 3.25-1.15 3.82.62 6.17 3.01 6.74 6.88.34 2.32.63 4.67.63 7-.06 27.09-.18 54.17-.28 81.26 0 .45-.03.9.01 1.34.2 2.29-.37 5.53 2.4 5.97 2.16.34 5.32-.66 6.87-2.23 6.81-6.84 11.09-15.06 11.72-24.93.62-9.83 1.28-19.65 2.05-29.47.16-2.09.73-4.18 1.38-6.18.9-2.8 3.07-3.74 5.93-4.03 2.96-.3 3.83 1.48 4.78 3.6 4.27 9.52 4.96 19.46 3.18 29.58-2.1 11.95-5.46 23.52-11.73 34.04-.82 1.37-2.01 2.69-3.33 3.58-6.87 4.62-13.8 9.15-20.78 13.59-1.71 1.09-2.39 2.29-2.31 4.33.16 4.13-.09 8.29.14 12.42.06 1.14.98 2.66 1.96 3.24 4.13 2.45 8.29 4.96 12.71 6.8 6.04 2.51 9.45 7.17 12.21 12.7 5.08 10.2 7.2 21.13 7.92 32.35 1.46 22.67 2.78 45.34 4.16 68.01.01.2.14.39.49 1.28 1.76-3.29 3.41-6.11 4.82-9.04 9.3-19.39 14.34-39.95 16.02-61.29 3-38.1 2.22-76.25 1.34-114.41-.34-14.88-.32-29.78.04-44.65.08-3.34 1.74-6.96 3.6-9.85 2.5-3.89 6.31-3.23 8.24.9 3.6 7.72 4.55 15.94 3.77 24.26-3.48 37.04.26 74.02.84 111.03.24 15.44.47 30.91 1.7 46.29 1.01 12.66 3.08 25.29 7.93 37.24 2.5 6.17 6.7 11.01 11.27 15.68 2.24 2.29 4.32 4.84 5.91 7.6.84 1.46 1.27 4.13.48 5.35-1.48 2.28-4.45 2.89-6.93 1.67-3.15-1.56-6.44-3.29-8.91-5.72-9.18-9.07-14.78-20.36-19-32.41-.3-.84-.57-1.7-.88-2.53-.06-.16-.28-.25-.61-.51-2.25 5.75-4.34 11.48-6.73 17.07-1.71 4-3.82 7.82-5.77 11.71-3.45 6.91-8.87 12-15.19 16.2-1.89 1.25-2.6 2.81-2.56 5.03.11 5.15.07 10.3.04 15.44-.01 2.87-.97 5.31-3.71 6.64-4.08 1.98-7.53 1.06-8.84-3.25-1.43-4.73-2.63-9.82-2.47-14.71 1.13-33.29.04-66.44-4.8-99.44-1.05-7.13-2.18-14.16-5.84-20.48-2.71-4.68-6.73-7.92-12.41-10.37 0 4.86.02 9.27 0 13.68-.17 28.87-.35 57.75-.53 86.62-.1 15-.34 29.99-.29 44.99.04 11.63.51 23.26.58 34.89.02 2.63-.59 5.35-1.4 7.87-.56 1.72-1.71 3.46-3.05 4.69-3.3 3.03-6.8 2.56-8.47-1.48-1.55-3.75-2.91-7.87-3.01-11.87-.24-9.05.54-18.12.54-27.18 0-43.09-.13-86.18-.21-129.27-.06-7.51-.04-15-.04-22.93z" fill="#010105"/><path d="m250.08 94.22c5.15 7 7.72 14.37 7.09 22.84-.71 9.46 4.26 16.48 14.9 20.99.55-3.39 1.36-6.61 1.55-9.87.8-13.67.44-27.27-2.43-40.74-.68-3.2-2.24-4.7-5.32-4.67-7.14.06-14.27.2-21.41.33-3.13.06-6.28.5-9.36.2-2.01-.19-4.21-1.02-5.81-2.23-3.52-2.68-2.87-6.62 1-8.61 6.36-3.27 13.4-3.21 20.19-4.41 9.23-1.64 17.93 1.52 26.84 2.72.96.13 1.94 1.4 2.58 2.36 3.88 5.78 5.05 12.41 5.26 19.15.4 13.19.48 26.4.69 39.6.02 1.22 0 2.43 0 3.57 5.29.03 8.28-2.46 10.51-6.97 4.57-9.24 5.28-19.04 5.53-29.05.1-3.87.66-7.81 1.66-11.54.98-3.65 3.3-6.56 7.5-7.47 4.38 5.25 6.2 11.43 6.33 18.02.26 12.33-2 24.24-6.72 35.66-.45 1.1-1.23 2.12-2.07 2.98-2.12 2.15-4.51 4.05-6.51 6.3-3.61 4.07-7.97 6.78-13.27 7.88-2.45.51-3.03 1.83-3 4.21.12 11.18.06 22.37.06 33.81 1.46.58 2.84 1.26 4.3 1.69 12.57 3.69 19.89 12.34 24.09 24.45 4.09 11.8 5.75 23.94 5.78 36.27.06 24.94-.35 49.88-.5 74.83-.01 2.03-.85 2.58-2.67 2.97-6.52 1.42-6.67 1.44-8.28-5-.45-1.82-.59-3.75-.69-5.64-.95-17.64-1.79-35.29-2.82-52.92-.65-11.17-1.18-22.37-2.51-33.46-.75-6.24-2.57-12.46-4.71-18.4-1.77-4.9-6.04-7.81-11.97-10.03 0 11.15.16 21.74-.03 32.33-.52 28.41-1.27 56.82-1.75 85.24-.14 8.04.45 16.09.43 24.14-.01 2.74-.49 5.63-1.51 8.15-.72 1.78-2.46 3.52-4.19 4.44-3.59 1.91-5.81 1.04-6.78-2.84-1.1-4.4-2.11-9-2.05-13.5.44-32.78 1.22-65.55 1.75-98.33.2-12.52.03-25.04.03-37.46-3.79-1.9-6-.53-8.02 2.67-6.71 10.65-10.29 22.33-11.41 34.72-2 22.3-2.9 44.65-1.68 67.05.23 4.23-.15 8.5-.44 12.73-.1 1.4-.65 2.83-1.25 4.13-1.32 2.82-3.83 3.39-6.7 3.47-2.78.08-3.45-2-3.89-3.82-1-4.09-2.34-8.3-2.25-12.43.5-23.26 1.06-46.53 2.24-69.76.73-14.27 4.67-27.96 10.46-41.05.47-1.06 1.3-2.06 2.2-2.82 2.21-1.88 4.66-3.5 6.83-5.43 2.84-2.52 5.96-4.34 9.77-4.69 1.97-.18 2.59-1.22 2.71-3.07.73-10.94 1.6-21.87 2.24-32.81.05-.91-.96-2.36-1.84-2.75-2.64-1.17-5.41-2.19-8.22-2.82-7.07-1.57-11.57-6.3-14.72-12.26-6.58-12.47-7.77-25.74-4.69-39.41.21-.92 1.38-1.87 2.33-2.32 1.36-.67 2.95-.88 4.62-1.32z" fill="#010105"/><path d="m166.48 206.89c-5.16-24.91-5.65-49.27.73-73.59 7.75.32 10.64 3.21 10.46 9.96-.5 19.1-1.15 38.19-1.53 57.29-.07 3.51-.9 5.46-4.68 5.47-1.3 0-2.61.44-4.98.87z" fill="#010105"/><path d="m219.37 206.95c-5.12-22.7-5.66-44.66 1.55-66.43.54-.17 1.07-.34 1.61-.52 1.64 2.64 4.12 5.09 4.76 7.95 1.52 6.81 2.91 13.8 3.01 20.73.14 9.9-.99 19.82-1.45 29.74-.19 4.03-1.64 6.77-5.96 7.37-.86.13-1.67.54-3.52 1.16z" fill="#010105"/></svg>