<svg enable-background="new 0 0 400 400" viewBox="0 0 400 400" xmlns="http://www.w3.org/2000/svg"><g fill="#010103"><path d="m118.43 184.9c0 8.74.05 17.09-.01 25.45-.25 37.83-.58 75.66-.76 113.48-.06 12.97.32 25.94.3 38.91-.01 2.5-.48 5.27-1.63 7.44-1.05 1.99-3.05 3.94-5.1 4.85-3.95 1.75-5.78.43-6.85-3.7-2.88-11.13-1.79-22.47-1.8-33.75-.04-37.83.03-75.66-.17-113.49-.07-12.38-.86-24.76-1.34-37.87-5.07 5.88-8.1 12.13-10.56 18.67-4.82 12.83-6.62 26.25-6.73 39.83-.21 25.73 0 51.47-.05 77.2-.01 4.02-.25 8.07-.79 12.05-.77 5.71-4.23 8.6-8.86 7.88-1.77-.28-3.09-.86-3.27-3.05-.54-6.78-1.82-13.55-1.77-20.32.19-26.18.64-52.36 1.29-78.54.43-16.97 2.97-33.58 9.47-49.47 2.8-6.85 7.18-11.95 13.99-14.46 5.86-2.16 8.3-5.8 8.05-11.97-.17-4.22.6-8.48.71-12.72.02-.91-.82-2.49-1.53-2.66-20.58-4.89-27.42-20.69-30.47-39.01-2.08-12.45-1.26-25 1.74-37.32 1.56-6.37 1.65-6.35 8.5-7.27 2.93 6.06 4.45 12.59 4.85 19.27.46 7.69.29 15.42.43 23.14.13 7.08 1.27 13.94 6.34 19.28 2.48 2.61 5.65 4.55 8.51 6.8.43-.15.86-.3 1.29-.45.73-6.69 2.16-13.39 2.05-20.06-.23-12.96-1.15-25.91-2.11-38.84-1.18-15.98-1.09-31.76 5.13-46.9.21-.51.48-1 .72-1.47 5.53-.12 9.06 3.28 9.27 9.52.36 10.84.45 21.68.59 32.52.27 21.26.5 42.52.75 63.79.01.66.11 1.32.17 2.01 5.47-.48 9.56-2.32 12.21-7.71 4.02-8.18 6.7-16.39 6.6-25.66-.1-8.71.67-17.43 1.29-26.13.43-5.96 3.03-8.92 7.18-8.87 2.05.03 3.46.69 4.47 2.75 4.03 8.21 5.06 16.91 4.2 25.83-1.23 12.64-4.56 24.77-9.17 36.63-2.81 7.25-7.63 11.86-14.77 14.41-3.58 1.28-7.09 2.74-10.7 3.93-1.87.61-2.69 1.48-2.62 3.57.16 5.14-.07 10.3.14 15.44.05 1.15.98 2.77 1.98 3.3 3.44 1.82 7 3.53 10.69 4.76 6.28 2.1 10.46 6.23 13.06 12.16 7.35 16.75 10.65 34.45 10.76 52.57.21 32.11-.27 64.22-.48 96.33-.02 2.95-2.5 5.54-5.36 5.8-3.05.28-5.36-1.24-5.87-4.5-.88-5.73-1.86-11.5-2.04-17.28-.51-16.32-.4-32.66-.97-48.98-.61-17.56-1.42-35.12-2.72-52.63-.51-6.85-2.2-13.68-4-20.35-1.91-7.02-6.67-11.69-14.23-14.14z"/><path d="m185.09 168.86c0 26.18-.38 52.38.17 78.55.25 11.8 1.95 23.61 3.75 35.31 1.02 6.65 3.55 13.08 5.42 19.6 1.17 4.06 4.22 6.35 7.69 8.38 12.85 7.53 26.98 9.19 41.44 8.76 17.66-.52 35.3-1.48 52.95-2.29 5.25-.24 10.49-.85 15.74-.87 2.94-.01 6.27.15 8.71 1.52 1.98 1.11 3.22 4.02 4.02 6.4.2.6-2.37 2.69-3.97 3.23-3.88 1.31-7.88 2.58-11.93 3.03-13.21 1.47-26.43 2.86-39.69 3.75-21.28 1.44-42.35 1.06-62.98-5.95-19.66-6.69-28.37-21.19-31.28-40.41-1.47-9.73-2.92-19.48-3.76-29.27-.7-8.12-.54-16.32-.66-24.48-.55-37.14-1.34-74.29-1.44-111.43-.04-14.5 1.12-29.04 2.56-43.48.67-6.69 3.22-13.2 5.12-19.74.31-1.08 1.52-2.12 2.58-2.72 9.36-5.29 19.64-7.21 30.2-8.07 30.28-2.48 60.6-1.38 90.91-1 1.2.02 2.45.28 3.59.69 3.19 1.14 4.51 3.93 4.28 6.87-.12 1.48-1.99 3.53-3.51 4.06-3.62 1.27-7.49 2.46-11.28 2.51-19.56.28-39.14-.24-58.69.37-14.16.44-28.29 2.11-42.41 3.46-1.44.14-3.57 1.59-3.94 2.86-1.69 5.74-3.92 11.6-4.04 17.46-.45 22.59-.17 45.2-.16 67.8v15.11c.2-.01.41-.01.61-.01z"/><path d="m214.09 70.16c8.08 1.09 9.75 3.76 8.46 11.32-.7 4.09-.43 8.38-.27 12.57.03.78 1.64 2.13 2.54 2.15 16.98.46 33.97.75 50.96 1.08.09 0 .19-.1.96-.52.12-5.49.24-11.37.39-17.25.11-4.53 2.13-7.4 5.94-8.79 2.11-.77 3.32-.51 4.44 1.77 4.9 9.92 6.55 20.4 5.57 31.29-1.12 12.5-3.38 24.81-7.63 36.66-.81 2.26-2.4 4.55-4.25 6.1-10.9 9.14-23.78 11.3-37.5 9.86-3.54-.37-7.08-1.07-10.54-1.93-10.44-2.6-17.68-9.02-20.7-19.31-5.47-18.62-7.3-37.48-1.91-56.52.52-1.82 1.27-3.58 1.99-5.33.43-1.05.99-2.02 1.55-3.15zm10.74 41.66c-1.55 9.93.68 19.34 6.14 25.59.78.89 1.78 1.87 2.85 2.16 8.03 2.19 16.2 3.43 24.5 2.07 5.17-.85 10.1-2.94 13.42-6.96 1.8-2.17 2.04-5.71 2.74-8.68 1.05-4.5 1.88-9.06 2.92-14.17-17.82-.01-35.08-.01-52.57-.01z"/><path d="m208.27 201.59c9.51.57 18.76 1.12 28.93 1.73.24-5.64.53-11.15.69-16.66.06-2.23-.45-4.51-.15-6.69.33-2.38.83-4.96 2.07-6.95 3.14-5.03 7.38-4.68 9.83.63.92 2 1.78 4.19 1.92 6.35.89 14.16 1.78 28.32 2.27 42.49.51 14.94-1 29.71-5.75 43.99-.56 1.7-1.71 3.38-3.02 4.61-8.75 8.26-19.22 8.68-30.43 7.01-7.72-1.15-12.25-5.15-15.19-12.14-3.98-9.44-5.61-19.29-6.06-29.37-.62-13.87-.42-27.72 1.56-41.52.55-3.85.42-7.81.36-11.72-.06-4.5 1.04-8.58 3.45-12.39 1.05-1.66 2.26-1.86 3.95-1.36 5.24 1.55 7.9 5.81 7.12 11.7-.44 3.32-1.22 6.61-1.49 9.94-.26 3.3-.06 6.64-.06 10.35zm15.4 16.74c0-.3 0-.59 0-.89-4.02 0-8.04.08-12.05-.03-2.09-.06-2.97.54-3.03 2.79-.2 7.03-.77 14.06-.91 21.09-.15 7.33.66 14.53 5.19 20.72.56.77 1.36 1.91 2.09 1.94 5.08.18 10.21.49 15.23-.03 3.26-.34 5.41-2.78 5.82-6.41.58-5.21 1.66-10.38 1.98-15.61.43-6.89.35-13.81.47-20.72.03-2.05-.93-2.95-3.08-2.88-3.9.11-7.81.03-11.71.03z"/><path d="m279.65 201.57c8.92.59 17.38 1.14 26.31 1.73.28-1.82.8-3.53.77-5.23-.1-5.69-.41-11.38-.62-17.07-.16-4.06.37-7.87 4.19-10.31 3.42-2.18 4.87-1.99 6.35 1.76 1.57 4 3.11 8.22 3.48 12.45 1.25 14.13 2.29 28.3 2.81 42.47.5 13.61-1.66 26.96-5.86 39.94-.39 1.19-1.21 2.39-2.15 3.24-5.92 5.35-12.8 8.03-20.88 7.15-4.77-.52-9.54-1.08-14.32-1.46-3.23-.25-5.15-1.94-6.76-4.65-5.54-9.32-7.1-19.61-7.96-30.17-1.49-18.3.86-36.4 2.42-54.55.33-3.9.73-7.79 1.02-11.69.38-4.96 3.53-6.93 7.99-4.96 4.62 2.05 6.31 5.82 5.26 11.73-.68 3.85-1.51 7.68-1.97 11.56-.32 2.51-.08 5.09-.08 8.06zm28.33 16.88c-9.04-.37-16.95-.66-24.86-1.04-2.01-.09-2.43.99-2.52 2.67-.4 7.02-1.08 14.04-1.22 21.07-.14 6.86.83 13.62 4.19 19.76.58 1.06 1.69 2.09 2.8 2.56 3.93 1.67 8.04 1.84 12.12.51 3.85-1.25 6.58-3.44 6.99-7.94.68-7.56 1.85-15.07 2.43-22.63.37-4.84.07-9.73.07-14.96z"/></g><path d="m377.9 391.2c-.2.3-.4.5-.6.8-.7-.6-1.4-1-2.2-1.5.2-.3.4-.5.5-.8.6.4 1.4.8 2.3 1.5zm-1.8 6.1c-.2-.2-.5-.4-.9-.6.4-.6.8-1.2 1.2-1.9s.7-1.3.9-1.9c.3.3.5.5.8.7-.7 1.3-1.4 2.6-2 3.7zm2.2-9c-.3.3-.5.5-.6.8-.6-.6-1.3-1.1-2-1.5.3-.3.5-.5.6-.7.6.5 1.3.9 2 1.4zm.3.2v-.9h2 4.5c-.3 1.3-.6 2.5-1 3.6s-.9 2.1-1.4 3c.4.5 1 1 1.6 1.4s1.2.8 1.9 1.1c-.3.2-.5.4-.8.8-.4-.3-1-.7-1.6-1.2s-1.2-1.1-1.6-1.6c-.5.6-1.1 1.1-1.7 1.6s-1.4.9-2.1 1.4c-.1-.3-.3-.5-.7-.8.6-.2 1.2-.5 1.9-1s1.4-1.1 2-1.8c-.5-.8-.9-1.6-1.2-2.5s-.6-2-.8-3.2c-.4.1-.7.1-1 .1zm2.5 2.7c.3 1 .7 1.7 1 2.2.3-.5.6-1.1 1-2s.6-1.9.9-3h-3.2-.4c.1.9.3 1.8.7 2.8z" fill="#fcfbfa"/><path d="m396.5 388.5v1.5 3.6h1.5v.9c-.4 0-1 0-1.7 0h-7.9c-.5 0-.9 0-1.2 0v-.9h1.3v-3.5c0-.7 0-1.2 0-1.6h2.4c0-.8 0-1.4 0-1.7h1c0 .3-.1.8-.1 1.7h1.5c0-.8 0-1.4 0-1.7h1c0 .3-.1.9-.1 1.7zm-8.2 9.2c-.2-.3-.5-.5-.8-.8.8-.3 1.4-.6 1.9-.9s1-.7 1.4-1.1c.3.3.6.5.9.8-1.6 1-2.8 1.6-3.4 2zm2.6-6.8v-1.6h-1.5v1.6zm0 2.7v-1.9h-1.5v1.9zm2.4-2.7v-1.6h-1.5v1.6zm0 2.7v-1.9h-1.5v1.9zm.2 2 .7-.8c.4.2.9.5 1.6.8s1.3.7 1.8 1c-.3.3-.5.5-.8.8-.4-.3-1.5-1-3.3-1.8zm2-4.7v-1.6h-1.4v1.6zm0 2.7v-1.9h-1.4v1.9z" fill="#fcfbfa"/></svg>