<svg enable-background="new 0 0 400 400" viewBox="0 0 400 400" xmlns="http://www.w3.org/2000/svg"><g fill="#010103"><path d="m207.02 297.33c0 13.65.04 26.96-.01 40.27-.04 9.39-.03 18.79-.41 28.18-.22 5.52-2.63 8.18-6.88 9.04-2.18.44-3.49-.1-4.32-2.37-2.96-8.17-3.28-16.63-3.11-25.16.3-15.11.6-30.21.89-45.32.02-.88 0-1.76 0-3.14-4.2-.18-8.18-.58-12.14-.48-12.29.32-24.61.45-36.86 1.36-14.34 1.06-17.27 6.02-20.7 20.67-1.53 6.55-1.03 13.58-1.48 20.38-.2 3.13-.33 6.27-.72 9.37-.64 5.08-4.09 7.25-8.86 5.44-1.1-.42-2.33-1.76-2.6-2.89-4.04-17.28-2.87-34.24 4.17-50.56 1.13-2.61 4.1-4.6 6.55-6.43 10.07-7.54 21.89-9.95 34.07-10.7 11.05-.68 22.14-.74 33.2-1.1 1.43-.05 2.86-.18 4.55-.29.26-3.93.5-7.66.76-11.67-6.32-.35-12.39-.26-18.33-1.11-10.71-1.54-21.51-3.02-31.98-5.66-14.43-3.64-23.08-13.94-26.68-27.95-5.72-22.25-4.77-44.49 1.61-66.59 3.37-11.67 12-17.17 22.74-19.17 12.83-2.39 25.92-3.39 38.91-4.88 4.42-.51 8.88-.66 13.54-1 0-3.95 0-7.7 0-12.1-7.86-.78-15.82-1.69-23.8-2.34-6.35-.52-12.76-.43-19.08-1.15-11.72-1.33-18.51-8.34-20.73-19.98-1.15-6.04 1.39-11.21 3.09-16.52.54-1.69 3.3-2.86 5.25-3.89 8.73-4.61 18.34-4.41 27.82-4.86 9.13-.43 18.26-.91 27.52-1.37 0-3.21 0-5.75 0-8.96-6.86-.77-13.79-1.72-20.75-2.27-6.02-.48-12.07-.45-18.1-.73-6.74-.32-11.66-3.65-14.67-9.6-4.09-8.09-4.45-16.51-1.52-25.04.26-.74 1.21-1.44 2-1.76 1.43-.57 2.99-.84 5.46-1.49.93 3.79 2.38 7.44 2.63 11.18.63 9.71 2.26 12.24 11.8 14.15 10.72 2.14 21.58 1.45 33.15 1.1.3-5.45.86-10.65.79-15.85-.08-6.47.67-12.67 3.52-18.47 6.81.52 10.37 4.28 10.06 10.96-.26 5.46-1.05 10.89-1.4 16.35-.13 1.97.36 3.97.58 6.18 7.58 0 14.93.26 22.26-.07 7.48-.34 14.93-1.36 22.4-1.9 2.35-.17 3.77-.99 4.24-3.34.72-3.61 1.5-7.21 2.24-10.82.29-1.42.38-2.91.86-4.26 1.08-3.05 3.58-3.99 6.59-4.26 2.91-.26 3.58 1.93 4.34 3.83 3.28 8.2 2.48 16.3-1.45 23.98-.95 1.86-3.41 3.11-5.41 4.24-9.21 5.22-19.32 6.68-29.72 6.96-8.6.23-17.19.67-25.99 1.03v8.66c6.12.53 12.21 1.28 18.33 1.55 9.5.42 19.02.33 28.52.79 6.76.33 13.26 2.03 17.24 8.12 3.84 5.87 4.58 12.1 2.1 19.08-3.48 9.82-11.68 13.25-20.25 14.88-13.36 2.54-26.99 3.68-40.54 5.11-3.02.32-4.35 1.13-4.6 4.19-.24 2.86-1.02 5.67-1.59 8.63 8.75 2.63 17.47 3.47 26.33 3.78 8.24.28 16.49.92 24.67 1.9 11.22 1.35 18.41 8.41 23.56 17.93 5.28 9.76 6.27 20.51 6.46 31.25.16 9.03.22 18.27-1.51 27.06-1.61 8.18-4.39 16.71-8.92 23.59-4.9 7.44-13.33 11.68-22.04 14.55-13.46 4.43-27.26 5.87-41.37 5.31-5.71-.23-6.77 1.05-6.68 6.84.02 1.55 0 3.11 0 5.21 7.51.92 14.77 2.03 22.08 2.63 7.58.62 15.19.8 22.79 1.06 15.64.52 25.21 7.63 29.81 22.7 3.79 12.41 3.76 25.12 2.32 37.89-.13 1.11-.43 2.25-.3 3.34.34 3.03-1.12 3.96-3.93 4.41-5.45.87-4.51 1.91-6.81-3.93-2.91-7.39-1.96-15.17-1.95-22.9.01-5.06-.96-10.18-2.05-15.15-1.2-5.49-5.22-8.91-10.4-10.42-5.55-1.62-11.24-3.11-16.97-3.64-10.46-.98-20.98-1.21-31.48-1.74-.61-.09-1.26.04-2.71.15zm-6.84-135.37c0-.21 0-.43 0-.64-13.42 0-26.85-.38-40.24.16-6.61.27-13.28 1.74-19.67 3.57-5.33 1.52-8.81 5.34-10.27 11.24-2.73 10.97-3.6 22.03-3.31 33.26.26 10.35 1.63 20.46 5.93 30.04 2.41 5.38 5.84 9.57 11.72 11.04 5.61 1.4 11.27 2.73 16.98 3.65 21.04 3.37 42.17 5.17 63.48 3.09 14.46-1.42 28.17-4.98 39.89-14.1.95-.74 2.13-1.57 2.49-2.61 1.92-5.57 4.56-11.11 5.18-16.86.96-8.85.83-17.86.53-26.78-.26-7.83-1.97-15.45-5.41-22.66-3.22-6.75-8.64-9.99-15.73-10.94-4.21-.56-8.43-1.34-12.66-1.4-12.98-.18-25.95-.06-38.91-.06zm7.41-44c10.24 0 20.28.23 30.31-.08 6.9-.21 13.38-2.45 19.41-5.86 2.91-1.65 4.23-4.89 3.49-8.28-.73-3.36-2.76-4.17-6.08-4.21-10.62-.12-21.24-.7-31.87-.99-5.08-.14-10.17-.02-15.26-.02zm-14.49-18.87c-16.94-.48-33.67-3-49.88 4 .19 2.26.51 4.7.58 7.14.06 2.41 1.08 3.7 3.38 4.62 10.15 4.08 20.75 5.22 31.53 4.83 4.82-.17 9.61-1.11 14.4-1.69-.01-6.67-.01-12.58-.01-18.9z"/><path d="m219.33 237.26c-13.22-.6-24.93-2.74-36.2-7.07-.97-.37-2.01-1.06-2.57-1.9-6.61-10.03-5.28-20.62-1.9-31.26.24-.76 1.41-1.5 2.29-1.74 6.1-1.68 12.16-3.73 18.38-4.71 13.48-2.14 26.72-.79 39.53 4.22 10.51 4.11 13.57 10.6 11.31 21.66-2.69 13.18-12.65 17.12-23.7 19.95-2.68.68-5.53.67-7.14.85zm15.38-31.52c-14.08-.53-28-1.07-41.92-1.54-.58-.02-1.62.57-1.72 1.04-.74 3.45-1.69 6.93-1.78 10.42-.07 2.48 1.43 4.55 4.45 5 6.17.92 12.29 2.22 18.48 3.02 6.6.86 13.15.67 19.27-2.56 5.11-2.69 5.16-2.73 4.25-8.53-.34-2.18-.66-4.37-1.03-6.85z"/><path d="m250.03 178.43c-6.66 3.58-13.61 5.42-20.78 5.57-7.91.17-15.85-.41-23.77-.91-11.48-.73-22.84-.51-33.71 3.71-2.1.82-4.18 2.6-5.43 4.5-4.21 6.35-4.58 13.62-4.25 20.99.18 4.02.45 8.06.19 12.06-.31 4.86-2.51 8.74-7.18 10.9-2.17 1.01-3.56.85-4.77-1.6-3.64-7.43-4.38-15.28-3.3-23.25.9-6.62 2.68-13.12 3.95-19.69 1.51-7.84 7.43-11.56 13.77-14.84 8.05-4.16 16.94-4.99 25.71-5.61 12.93-.91 25.9-1.29 38.87-1.45 4.5-.05 9.09.91 13.5 2.01 3.62.9 6.23 3.41 7.2 7.61z"/></g><path d="m377.9 391.2c-.2.3-.4.5-.6.8-.7-.6-1.4-1-2.2-1.5.2-.3.4-.5.5-.8.6.4 1.4.8 2.3 1.5zm-1.8 6.1c-.2-.2-.5-.4-.9-.6.4-.6.8-1.2 1.2-1.9s.7-1.3.9-1.9c.3.3.5.5.8.7-.7 1.3-1.4 2.6-2 3.7zm2.2-9c-.3.3-.5.5-.6.8-.6-.6-1.3-1.1-2-1.5.3-.3.5-.5.6-.7.6.5 1.3.9 2 1.4zm.3.2v-.9h2 4.5c-.3 1.3-.6 2.5-1 3.6s-.9 2.1-1.4 3c.4.5 1 1 1.6 1.4s1.2.8 1.9 1.1c-.3.2-.5.4-.8.8-.4-.3-1-.7-1.6-1.2s-1.2-1.1-1.6-1.6c-.5.6-1.1 1.1-1.7 1.6s-1.4.9-2.1 1.4c-.1-.3-.3-.5-.7-.8.6-.2 1.2-.5 1.9-1s1.4-1.1 2-1.8c-.5-.8-.9-1.6-1.2-2.5s-.6-2-.8-3.2c-.4.1-.7.1-1 .1zm2.5 2.7c.3 1 .7 1.7 1 2.2.3-.5.6-1.1 1-2s.6-1.9.9-3h-3.2-.4c.1.9.3 1.8.7 2.8z" fill="#fcfbfa"/><path d="m396.5 388.5v1.5 3.6h1.5v.9c-.4 0-1 0-1.7 0h-7.9c-.5 0-.9 0-1.2 0v-.9h1.3v-3.5c0-.7 0-1.2 0-1.6h2.4c0-.8 0-1.4 0-1.7h1c0 .3-.1.8-.1 1.7h1.5c0-.8 0-1.4 0-1.7h1c0 .3-.1.9-.1 1.7zm-8.2 9.2c-.2-.3-.5-.5-.8-.8.8-.3 1.4-.6 1.9-.9s1-.7 1.4-1.1c.3.3.6.5.9.8-1.6 1-2.8 1.6-3.4 2zm2.6-6.8v-1.6h-1.5v1.6zm0 2.7v-1.9h-1.5v1.9zm2.4-2.7v-1.6h-1.5v1.6zm0 2.7v-1.9h-1.5v1.9zm.2 2 .7-.8c.4.2.9.5 1.6.8s1.3.7 1.8 1c-.3.3-.5.5-.8.8-.4-.3-1.5-1-3.3-1.8zm2-4.7v-1.6h-1.4v1.6zm0 2.7v-1.9h-1.4v1.9z" fill="#fcfbfa"/></svg>