<svg enable-background="new 0 0 400 400" viewBox="0 0 400 400" xmlns="http://www.w3.org/2000/svg"><path d="m237.68 231.56c-10.12 2.15-14.45 10.05-18.98 17.65-6.68 11.21-9 23.73-10.76 36.41-2.01 14.47-2.12 28.98-1.49 43.55.16 3.72-.55 7.55-1.36 11.22-.78 3.55-3.73 3.7-6.87 3.75-3.01.05-3.7-2-4.13-3.93-.82-3.68-1.77-7.5-1.58-11.2.77-14.96 1.95-29.91 3-44.85.19-2.68.75-5.34.78-8.02.14-13.82 7.69-25.27 11.95-37.77.27-.79 1.05-1.43 1.68-2.06 2.22-2.22 4.64-4.25 6.67-6.62 4.79-5.61 10.51-9.59 17.82-11.04 2.23-.44 3.09-1.61 3.15-3.91.08-3.21.56-6.41.92-10.16-4.94-.54-9.56-1.17-14.2-1.52-7.87-.59-15.6-1.42-22.13-6.55-5-3.93-7.93-8.7-7.05-15.33.25-1.87.16-3.8.1-5.7-.15-4.5-1.37-8.29-6.2-10-12.67-4.49-16.43-14.89-16.47-26.83-.03-8.54 1.22-17.15 2.52-25.62.9-5.87 1.38-5.8 7.93-6.21 1.37 5.57 2.75 11.19 4.15 16.9h26.39c.56-3.77.88-7.55 1.77-11.2.43-1.77 1.59-3.76 3.03-4.8 2.89-2.07 4.57-1.43 6.55 1.54 4.47 6.69 5.6 14.23 4.4 21.88-1.29 8.25-3.38 16.39-5.46 24.49-.48 1.86-2.08 3.68-3.62 4.96-2.92 2.42-6.09 4.55-9.31 6.57-2.65 1.66-3.82 3.9-3.93 6.93-.27 7.81 3.08 12.32 11.38 15.13 4.43 1.5 14.34 1.91 19.8.64 0-7.68-.04-15.49.01-23.31.1-17.35.24-34.71.4-52.06.02-1.88-.09-3.31-2.25-4.24-13.56-5.84-20.55-16.62-22.81-30.88-2.02-12.72-1.97-25.41.5-38.07.72-3.68 2.84-5.91 5.39-5.6 4.5.56 6.82 3.15 6.72 7.24-.09 3.55-.09 7.1.07 10.64.09 2.07 1.3 2.93 3.54 3.01 10.06.35 20.12.81 30.16 1.43 2.63.16 4.12-.67 4.48-3.17.45-3.19.67-6.41 1.02-9.61.21-1.98-.17-4.45.88-5.79 1.37-1.75 3.78-3.03 5.98-3.59.83-.21 2.68 1.94 3.45 3.35 4.69 8.57 4.73 17.82 3.37 27.14-1.55 10.64-3.9 21.08-7.89 31.14-1.9 4.79-5.25 7.61-9.88 9.29-9.83 3.56-9.74 3.56-9.87 14.03-.27 21.83-.56 43.66-1.03 65.48-.06 2.97.86 3.84 3.65 4.14 7.98.85 15.34-1.29 22.36-4.63 1.52-.72 2.87-3 3.22-4.77.65-3.35.61-6.86.65-10.3.01-.67-.76-1.69-1.41-1.97-10.71-4.54-13.34-14.12-14.77-24.17-1.54-10.84-.77-21.67 1.82-32.33.97-3.97 4.73-6.33 8.64-5.2.82.24 1.65 1.61 1.85 2.59.82 4.05 1.39 8.14 2.11 12.51 7.76.59 15.4 1.17 23.45 1.79.5-3.05.96-5.88 1.41-8.71.25-1.54.35-3.12.72-4.63.64-2.62 2.81-3.16 5.11-3.57 2.37-.42 3.58.71 4.16 2.79 1.45 5.25 3.49 10.43 4.16 15.78 1.37 11.01.13 21.88-4.08 32.28-2.16 5.33-6.29 8.31-11.71 9.49-7.1 1.54-7.38 1.45-7.07 8.63.62 14.4-6.74 22.01-18.12 24.88-3.34.84-6.83 1.06-10.27 1.46-3.88.45-7.81.63-11.65 1.3-1.02.18-2.08 1.59-2.62 2.68-.51 1.04-.34 2.41-.53 3.63-1.11 7.14-1.39 7.98 5.3 10.16 16.23 5.28 23.13 18.27 28.23 32.68 8.48 23.96 12.81 48.65 10.93 74.15-.36 4.87-1.61 9.69-2.59 14.5-.76 3.72-4.06 1.66-6.13 2.32-.75.24-2.49-.81-2.94-1.69-2.62-5.25-3.05-10.96-2.78-16.7 1-21.27-.59-42.28-6.36-62.84-3.1-11.04-8.39-20.72-18.19-27.33-1.53-1.03-3.22-1.84-5.61-3.18 0 6.98.05 13.21-.01 19.43-.28 29.89-.66 59.78-.84 89.67-.04 7.15.66 14.3.79 21.46.04 2.53-.23 5.21-1.08 7.56-.62 1.71-2.16 3.44-3.75 4.39-2.78 1.66-4.9.95-5.55-2.2-1.18-5.75-2.31-11.63-2.36-17.47-.33-40.08-.37-80.16-.52-120.24-.02-.99-.2-1.98-.31-3.07zm-8.81-159.65c0 3.82-.53 7.25.11 10.45 1.36 6.74 4.65 14.89 13.55 15.67 6.64.59 14.52-2.06 16.64-6.95 1.63-3.77 2.84-7.76 3.89-11.75.43-1.63.23-3.58-.22-5.24-.24-.89-1.62-2.08-2.5-2.09-10.38-.14-20.77-.09-31.47-.09zm48.7 66.39c.34 5.54.8 10.56 3.63 15.11 1.28 2.05 2.8 2.87 5.2 2.59 3.43-.39 6.89-.47 10.33-.79.79-.07 1.99-.39 2.24-.94 2.53-5.57 5-11.19 2.75-17.71-8.1.59-16.04 1.16-24.15 1.74zm-90.3-.4c1.36 4.56 2.59 8.96 4.01 13.29.26.8 1.16 1.7 1.96 1.98 5 1.75 9.93 1.9 15.01-.17 4.48-1.83 4.19-5.91 5.18-9.39 1.21-4.23.67-5.4-3.65-5.6-7.32-.36-14.67-.11-22.51-.11z" fill="#010103"/><path d="m93.03 60.17c4.57 9.66 6.11 19.95 5.94 30.56-.11 6.59-1.05 13.23-.48 19.74.97 11.05 7.86 18.02 18.17 22.88 0-7.03-.04-13.58.01-20.12.15-23.18.38-46.35.48-69.53.03-5.83 1.04-11.29 4-16.4 1.01-1.74 2.18-2.03 3.85-1.52 2.86.87 5.04 2.53 5.7 5.56.5 2.29.97 4.64.96 6.97-.07 26.87-.23 53.75-.39 80.62-.01 2.12-.29 4.25-.28 6.37.02 2.43-.36 5.4 2.56 6.32 2.89.91 5.69.04 7.84-2.43 6.87-7.88 9.72-17.25 10.07-27.48.32-9.28.39-18.56.67-27.84.06-2.11.45-4.22.84-6.31.9-4.79 3.01-6.66 8.27-7.43 3.42 5.99 5.27 12.55 5.62 19.4 1 19.47-2.76 38.1-11.21 55.64-1.3 2.71-4.51 4.9-7.33 6.38-4.63 2.43-9.64 4.15-14.54 6.01-1.71.65-2.42 1.47-2.38 3.39.12 6.49-.06 12.99.14 19.48.04 1.24 1.04 2.85 2.09 3.58 2.38 1.64 4.98 3.04 7.65 4.16 13.13 5.5 19.62 16.01 22.37 29.36 5.95 28.94 8.22 58.25 8.93 87.72.34 13.9-.07 27.76-2.34 41.51-.78 4.71-2.68 6.65-6.32 6.03-1.3-.22-3.15-1.31-3.48-2.39-1.39-4.55-3.42-9.3-3.22-13.88 1.43-33.34-2.61-66.42-4.5-99.59-.61-10.77-3.16-21.5-9.36-30.8-2.48-3.72-6.09-6.09-10.94-8 0 6.53.03 12.62-.01 18.71-.17 27.1-.34 54.19-.54 81.29-.08 10.97-.4 21.94-.3 32.91.09 11.08.66 22.15.79 33.22.04 3.55-.44 7.15-1.1 10.65-.33 1.78-1.3 3.62-2.47 5.04-3.38 4.13-7.85 3.72-9.34-1.25-1.52-5.05-2.47-10.47-2.49-15.73-.19-46.24-.11-92.49-.11-138.73 0-8.51 0-17.01 0-25.52-.3-.26-.6-.52-.9-.77-2.49 1.8-5.57 3.14-7.36 5.47-9.28 12.09-13.75 26.26-14.6 41.16-1.32 23.23-1.58 46.52-2.02 69.8-.14 7.37.74 14.75.88 22.13.05 2.75-.4 5.6-1.14 8.26-.49 1.73-1.65 3.49-2.98 4.73-4.44 4.15-7.07 3.45-9.16-2.12-2.45-6.54-2.6-13.33-2.39-20.2.65-21.37 1.09-42.75 1.9-64.11.81-21.52 4.47-42.44 13.97-62.07 1.96-4.04 4.65-7 8.46-9.12.98-.54 1.94-1.11 2.93-1.62 3.75-1.95 8.83-3 10.9-6.07 2-2.96.92-8.01 1.16-12.14.22-3.69.29-7.39.62-11.06.16-1.82-.28-2.97-2.06-3.64-2.19-.83-4.25-2.1-6.49-2.67-10.7-2.7-16.98-9.78-20.29-19.94-6.2-19.02-7.26-38.37-3.59-57.98 1.01-5.51 1.2-5.48 8.34-6.59z" fill="#010103"/><g fill="#fcfbfa"><path d="m377.9 391.2c-.2.3-.4.5-.6.8-.7-.6-1.4-1-2.2-1.5.2-.3.4-.5.5-.8.6.4 1.4.8 2.3 1.5zm-1.8 6.1c-.2-.2-.5-.4-.9-.6.4-.6.8-1.2 1.2-1.9s.7-1.3.9-1.9c.3.3.5.5.8.7-.7 1.3-1.4 2.6-2 3.7zm2.2-9c-.3.3-.5.5-.6.8-.6-.6-1.3-1.1-2-1.5.3-.3.5-.5.6-.7.6.5 1.3.9 2 1.4zm.3.2v-.9h2 4.5c-.3 1.3-.6 2.5-1 3.6s-.9 2.1-1.4 3c.4.5 1 1 1.6 1.4s1.2.8 1.9 1.1c-.3.2-.5.4-.8.8-.4-.3-1-.7-1.6-1.2s-1.2-1.1-1.6-1.6c-.5.6-1.1 1.1-1.7 1.6s-1.4.9-2.1 1.4c-.1-.3-.3-.5-.7-.8.6-.2 1.2-.5 1.9-1s1.4-1.1 2-1.8c-.5-.8-.9-1.6-1.2-2.5s-.6-2-.8-3.2c-.4.1-.7.1-1 .1zm2.5 2.7c.3 1 .7 1.7 1 2.2.3-.5.6-1.1 1-2s.6-1.9.9-3h-3.2-.4c.1.9.3 1.8.7 2.8z"/><path d="m396.5 388.5v1.5 3.6h1.5v.9c-.4 0-1 0-1.7 0h-7.9c-.5 0-.9 0-1.2 0v-.9h1.3v-3.5c0-.7 0-1.2 0-1.6h2.4c0-.8 0-1.4 0-1.7h1c0 .3-.1.8-.1 1.7h1.5c0-.8 0-1.4 0-1.7h1c0 .3-.1.9-.1 1.7zm-8.2 9.2c-.2-.3-.5-.5-.8-.8.8-.3 1.4-.6 1.9-.9s1-.7 1.4-1.1c.3.3.6.5.9.8-1.6 1-2.8 1.6-3.4 2zm2.6-6.8v-1.6h-1.5v1.6zm0 2.7v-1.9h-1.5v1.9zm2.4-2.7v-1.6h-1.5v1.6zm0 2.7v-1.9h-1.5v1.9zm.2 2 .7-.8c.4.2.9.5 1.6.8s1.3.7 1.8 1c-.3.3-.5.5-.8.8-.4-.3-1.5-1-3.3-1.8zm2-4.7v-1.6h-1.4v1.6zm0 2.7v-1.9h-1.4v1.9z"/></g></svg>