<svg enable-background="new 0 0 400 400" viewBox="0 0 400 400" xmlns="http://www.w3.org/2000/svg"><g fill="#010103"><path d="m137.46 155.71c0-4.88.1-9.36-.08-13.82-.04-.95-.89-2.38-1.71-2.69-3.32-1.28-6.71-2.72-10.19-3.2-13.78-1.89-21.67-10.11-25.54-22.89-2.82-9.3-3.69-18.84-3.68-28.52.01-14.57.67-29.05 4.04-43.34 1-4.23 4.14-2.82 6.51-3.51 2.56-.74 3.15 1.5 3.42 3.1.68 3.93 1.3 7.92 1.33 11.9.09 10.38-.79 20.81-.08 31.14.66 9.66 2.81 19.22 4.4 28.81.62 3.76 2.69 6.88 6.14 8.32 13.22 5.51 26.58 6.44 39.93.31.88-.4 1.77-1.05 2.34-1.82 8.21-11 10.84-23.51 10.12-37.01-4.11-.34-8.09-.2-11.83-1.09-5.38-1.28-10.72-3-15.83-5.12-4.59-1.9-7.85-5.67-9.82-10.18-4.92-11.26-4.99-22.58.55-33.7 2.32-4.67 7.51-4.83 10.05-.15 1.07 1.98 1.13 4.69 1.06 7.06-.13 4.56-1.01 9.12-.99 13.67.03 7.34 4.53 12.9 11.77 14.15 5.23.9 10.64.8 16.46 1.18.7-5.85 1.22-11.15 2.02-16.42.41-2.72.98-5.52 2.11-8 1.26-2.75 4.18-3.65 6.86-2.83 1.36.42 2.55 2.45 3.17 4 .76 1.93 1.15 4.12 1.19 6.2.41 25.55-3.02 50.46-13.55 73.97-2.45 5.48-7.83 8.1-13.39 9.8-3.19.97-6.54 1.46-9.81 2.17-1.87.41-2.78 1.4-2.77 3.5.02 4.25-.12 8.51-.44 12.75-.14 1.91.68 2.57 2.28 2.96 5 1.21 9.97 2.52 14.97 3.69 11.01 2.57 17.98 9.77 22.92 19.52 6.15 12.14 8.54 25.16 9.11 38.55.64 15.27-.31 30.37-5.02 45.12-1.77 5.54-4.67 9.81-9.53 12.79-6.76 4.14-13.45 8.44-20.41 12.23-8.48 4.61-16.04 10.29-19.87 19.26-4.92 11.5-7.39 23.7-6.55 36.31.41 6.24 1.45 12.44 2.21 18.66.3 2.46.9 5.06-2.23 6.25-2.51.96-6.84-.66-8.21-3.13-4.5-8.1-6.73-16.83-6.3-26.08.75-16.23 5.12-31.67 12.9-45.76 3.13-5.67 8.65-10.39 15.03-13.41 7.74-3.67 15.62-7.2 22.92-11.64 5.05-3.07 8.08-8.19 8.52-14.5.21-3 .71-6.02 1.49-8.92.58-2.16-.3-2.97-1.98-3.83-4.87-2.51-9.63-5.23-14.52-7.71-6.9-3.51-13.56-7.35-19.28-12.67-.73-.68-2.27-1.25-3.1-.95-6.28 2.27-12.47 4.77-18.69 7.21-.31.12-.58.33-1.15.67.4 2.96.66 6.07 1.33 9.09.2.9 1.4 1.86 2.36 2.26 7.06 2.93 14.57 3.14 22.06 3.56 2.86.16 5.79.69 8.5 1.59 3.42 1.14 5.43 3.76 5.82 7.62-6.48 4.18-13.7 5.69-21.14 4.93-6.85-.69-13.66-2.2-20.34-3.89-2.08-.53-4.21-2.49-5.45-4.37-4.53-6.86-6.41-14.71-7.4-22.76-1.53-12.48-1.99-24.97.01-37.48.39-2.45 1.31-3.82 3.58-4.56 1.48-.48 2.86-1.25 4.6-2.03 4.31 6.2 6.58 12.86 5.06 20.44-1.72 8.55.13 10.38 8.68 8.59 2.69-.56 4.4-1.53 4.66-4.61.44-5 1.29-9.97 1.84-14.97.47-4.25.74-8.56 4-11.81 3.47-3.45 5.8-3.14 7.12 1.43 1.15 4.01 1.96 8.33 1.79 12.47-.45 11.07 3.73 19.32 13.42 24.72 5.65 3.15 11.35 6.21 17.78 9.72.57-4.14 1.39-7.71 1.49-11.29.29-10.1-2.03-19.71-5.9-29.02-2.01-4.83-5.71-7.9-9.9-10.56-12.11-7.7-25.24-8.26-38.81-5.41-2.73.57-5.38 1.51-8.06 2.3-4.72 1.41-8.17 4.47-11.81 7.76-9.68 8.73-12.88 19.84-13.33 32.14-.48 13.43 1.11 26.59 6.67 39 .71 1.58 1.78 3.11 3.02 4.32 4.98 4.83 10.26 9.36 15.1 14.33 2.7 2.77 5.04 6 7.02 9.33 1.84 3.08 1.23 4.2-2.25 5.43-5.35 1.89-9.9-.59-13.52-3.84-6.74-6.04-13.4-12.32-19.14-19.29-3.04-3.7-4.57-8.91-5.93-13.68-6.47-22.64-5.84-45.07 2.89-67.1.33-.83.57-1.81 1.17-2.39 5.42-5.17 10.52-10.78 16.51-15.19 3.79-2.79 8.86-3.95 13.49-5.46 4.39-1.46 8.99-2.43 13.74-3.68z"/><path d="m258.28 160.96c-13.04 3.28-25.25 6.45-37.52 9.4-4.32 1.04-8.74 1.89-13.16 2.19-1.54.1-4.07-1.36-4.63-2.73-.9-2.18-1.51-5.27 1.48-6.81 4.04-2.07 8.11-4.2 12.39-5.67 22.08-7.58 44.28-14.8 66.32-22.5 5.08-1.78 8.07-5.78 8.45-11.78.23-3.76 1.99-7.44 3.23-11.1.73-2.15 2.21-2.64 4.49-1.85 4.13 1.44 7 4.25 6.65 8.59-.47 5.73-1.53 11.48-2.99 17.04-.55 2.08-2.64 4.21-4.58 5.38-4.28 2.59-8.92 4.6-13.42 6.82-1.1.54-2.23 1.05-3.38 1.48-5.53 2.08-9.15 5.31-9.34 11.91-.13 4.64-1.48 9.26-2.44 13.85-.43 2.04.14 3.29 2.13 3.74 4.77 1.07 9.54 2.23 14.36 3.02 6.18 1.01 10.38 4.12 12.66 10.04 2.58 6.7 3.32 13.54 1.41 20.4-3.37 12.15-7.36 24.14-10.64 36.32-3.22 11.95-6.69 23.93-8.59 36.12-2.43 15.63-.15 31.02 6.49 45.54 4.97 10.87 9.67 21.88 17.31 31.31 1.6 1.98 2.44 4.77 3.01 7.33.89 3.98-2.55 6.92-6.45 5.59-1.62-.55-3.24-1.61-4.42-2.85-17.75-18.8-26.78-41.43-29.26-66.93-1.25-12.88-1.06-25.72 1.3-38.45 2.11-11.39 6.47-22.06 11.35-32.5 4.27-9.14 7.01-18.6 6.77-28.78-.17-7.3-2.26-9.81-9.39-11.11-.55-.1-1.1-.21-1.65-.28-11.82-1.36-11.94-1.43-17.53 9-5.33 9.94-10.17 20.16-15.63 30.03-7.49 13.56-17.49 25.16-29.55 34.84-2.5 2-6.2 2.93-9.48 3.4-2.87.41-6.59-.73-6.8-4-.16-2.39 1.65-5.51 3.53-7.32 6.75-6.49 14.59-11.96 20.79-18.91 17.5-19.62 27.36-43.28 34.13-68.37.95-3.54 1.63-7.14 2.6-11.4z"/><path d="m217.47 87.57c-2.12-.1-3.69-.12-5.25-.25-5.23-.43-6.53-1.85-5.96-7.02.1-.88 1.31-1.88 2.25-2.4 10.83-6.07 22.54-9.65 34.67-12 11.69-2.26 22.41-6.77 32.08-13.75 4.22-3.05 6.48-7.04 5.95-12.33-.48-4.84.12-9.43 3.29-13.28.63-.77 2.25-1.34 3.2-1.11 4.71 1.13 7.51 4.79 7.55 10.18.03 4.01-.5 8.02-.84 12.03-.5 5.97-3.43 10.27-8.49 13.58-19.08 12.46-39.29 22.11-61.99 25.81-2.3.38-4.67.4-6.46.54z"/><path d="m291.47 71.49c6.4 1.48 9.26 4.93 9.09 11.39-.11 4-.76 8.01-1.46 11.96-.78 4.35-3.11 7.48-7.08 9.96-16.74 10.46-34.74 17.25-54.27 20.26-5.36.83-10.45 3.25-15.79 4.35-4.53.93-9.22 1.19-13.86 1.4-2.33.1-4.16-1.38-4.28-3.86-.11-2.37-.18-4.66 2.85-6.06 13.62-6.28 28.08-9.62 42.64-12.68 10.32-2.17 20.39-5.08 29.52-10.61 2.59-1.57 4.34-3.51 5.34-6.5 2.2-6.55 4.8-12.96 7.3-19.61z"/><path d="m166.78 99.29c-6.66 4.38-13.78 6.05-21.49 5.31-6.23-.6-12.45-1.21-18.68-1.79-3.16-.29-5.46-2.32-5.9-5.33-.43-2.92 1.06-6.05 3.98-6.75 4.07-.97 8.28-1.71 12.45-1.81 6.79-.16 13.64-.12 20.38.6 5.55.6 8.21 3.92 9.26 9.77z"/></g><path d="m377.9 391.2c-.2.3-.4.5-.6.8-.7-.6-1.4-1-2.2-1.5.2-.3.4-.5.5-.8.6.4 1.4.8 2.3 1.5zm-1.8 6.1c-.2-.2-.5-.4-.9-.6.4-.6.8-1.2 1.2-1.9s.7-1.3.9-1.9c.3.3.5.5.8.7-.7 1.3-1.4 2.6-2 3.7zm2.2-9c-.3.3-.5.5-.6.8-.6-.6-1.3-1.1-2-1.5.3-.3.5-.5.6-.7.6.5 1.3.9 2 1.4zm.3.2v-.9h2 4.5c-.3 1.3-.6 2.5-1 3.6s-.9 2.1-1.4 3c.4.5 1 1 1.6 1.4s1.2.8 1.9 1.1c-.3.2-.5.4-.8.8-.4-.3-1-.7-1.6-1.2s-1.2-1.1-1.6-1.6c-.5.6-1.1 1.1-1.7 1.6s-1.4.9-2.1 1.4c-.1-.3-.3-.5-.7-.8.6-.2 1.2-.5 1.9-1s1.4-1.1 2-1.8c-.5-.8-.9-1.6-1.2-2.5s-.6-2-.8-3.2c-.4.1-.7.1-1 .1zm2.5 2.7c.3 1 .7 1.7 1 2.2.3-.5.6-1.1 1-2s.6-1.9.9-3h-3.2-.4c.1.9.3 1.8.7 2.8z" fill="#fcfbfa"/><path d="m396.5 388.5v1.5 3.6h1.5v.9c-.4 0-1 0-1.7 0h-7.9c-.5 0-.9 0-1.2 0v-.9h1.3v-3.5c0-.7 0-1.2 0-1.6h2.4c0-.8 0-1.4 0-1.7h1c0 .3-.1.8-.1 1.7h1.5c0-.8 0-1.4 0-1.7h1c0 .3-.1.9-.1 1.7zm-8.2 9.2c-.2-.3-.5-.5-.8-.8.8-.3 1.4-.6 1.9-.9s1-.7 1.4-1.1c.3.3.6.5.9.8-1.6 1-2.8 1.6-3.4 2zm2.6-6.8v-1.6h-1.5v1.6zm0 2.7v-1.9h-1.5v1.9zm2.4-2.7v-1.6h-1.5v1.6zm0 2.7v-1.9h-1.5v1.9zm.2 2 .7-.8c.4.2.9.5 1.6.8s1.3.7 1.8 1c-.3.3-.5.5-.8.8-.4-.3-1.5-1-3.3-1.8zm2-4.7v-1.6h-1.4v1.6zm0 2.7v-1.9h-1.4v1.9z" fill="#fcfbfa"/></svg>