<svg enable-background="new 0 0 400 400" viewBox="0 0 400 400" xmlns="http://www.w3.org/2000/svg"><g fill="#010103"><path d="m141.32 287.86c-1.45 1.02-2.36 1.61-3.22 2.27-14.47 11.11-28.94 22.22-43.38 33.37-3.36 2.6-6.51 5.47-9.92 8-3.44 2.55-7.35 3.01-11.77 1.74 0-2.72-.22-5.41.11-8.02.14-1.09 1.28-2.23 2.25-3 22.32-17.79 44.66-35.56 67.05-53.26 1.73-1.36 2.6-2.72 2.49-5.01-.2-4.11-.06-8.24-.06-12.94-1.53.85-2.66 1.45-3.77 2.09-12.66 7.38-25.3 14.79-37.98 22.12-2.02 1.17-4.18 2.17-6.39 2.9-3.89 1.28-7.54.49-8.6-1.56-1.17-2.25.73-7.54 3.55-9.45 5.46-3.7 10.99-7.32 16.49-10.96 10.73-7.1 21.42-14.26 32.23-21.23 2.26-1.45 2.57-2.74 1.59-5.11-2.09-5.03-3.88-10.19-5.87-15.47-10.54 9.75-22.18 17.21-34.79 23.14-6.54 3.08-13.4 4.93-20.77 4.45-2.47-.16-3.53-.95-3.59-3.6-.12-5.31-.31-5.39 4.65-7.42 14.97-6.12 29.5-12.97 41.65-23.98 2.97-2.69 5.91-5.41 9.51-8.71-1.95-.25-3.17-.54-4.4-.55-8.73-.04-17.46.06-26.19-.05-2.66-.03-5.41-.25-7.95-.97-1.96-.55-3.99-1.69-5.4-3.15-3.83-3.96-2.77-8.42 2.21-10.55 6.17-2.64 12.68-2.35 19.17-2.29 10.19.08 20.37.14 30.56.2.64 0 1.29-.11 2.09-.18 0-2.94 0-5.69 0-8.97-3.47-.16-6.88-.42-10.3-.44-8.39-.06-16.79.17-25.17-.11-3.51-.12-7.11-.87-10.44-2.01-3.8-1.31-5.13-4.31-4.76-8.27.18-1.92.77-3.03 2.96-3.18 7.92-.55 15.81-1.35 23.73-1.86 5.8-.37 11.63-.41 17.44-.61 4.88-.16 4.88-.17 5.99-5.08.2-.86.4-1.73.72-3.12-5.1-.64-10.08-1-14.94-1.93-5.56-1.07-11.39-1.85-16.45-4.18-14.13-6.5-17.81-21.43-13.25-35.38.21-.64 1.12-1.27 1.82-1.48 1.69-.5 3.46-.75 6.08-1.28.9 3.75 2.54 7.37 2.5 10.97-.14 11.64 7.03 16 15.7 17.59 5.64 1.03 11.45 1.13 17.51 1.68.34-6.72.72-12.62.82-18.52.01-.75-1.29-1.75-2.2-2.25-4.36-2.41-9.07-4.3-13.13-7.13-3.84-2.68-5-7.19-5.52-11.8-.72-6.43-2.29-7.82-8.78-7.91-6.05-.09-12.1.1-18.14-.06-6.49-.17-9.42-3.8-7.8-9.47.26-.92 1.13-2.16 1.94-2.35 3.78-.89 7.63-2.02 11.47-2.05 29.56-.2 59.12-.17 88.68-.2 5.04-.01 10.08-.1 15.11.04 5 .14 8.38 2.59 9.53 6.53.5 1.7.29 2.77-1.59 3.71-5.26 2.62-10.85 3.34-16.59 3.49-1.79.05-3.62.39-5.36.14-5.07-.75-7.6 1.46-8.57 6.32-.5 2.5-1.9 4.81-2.45 7.3-1.27 5.75-5.36 8.49-10.4 10.35-3.14 1.16-6.4 2.05-9.43 3.44-.99.46-1.96 2.1-2.02 3.26-.23 4.47.03 8.96-.15 13.43-.08 2.09.92 2.77 2.63 3.05 7.65 1.23 14.86-.44 21.13-4.61 2.27-1.51 3.44-5.08 4.49-7.94 1.1-3.01 1.25-6.36 2.2-9.45.6-1.95 1.54-4.05 2.95-5.45 2.71-2.7 6.4-1.8 8.1 1.59 5.02 10.04.71 25.03-8.5 31.29-8.03 5.46-17.05 6.91-26.34 7.93-6.48.7-6.46.83-6.3 8.7 7.07.08 14.19.1 21.29.26 3.78.08 7.62.06 11.33.69 4.05.68 6.61 3.51 7.97 7.39.72 2.06.45 3.39-1.86 4.43-7.52 3.38-15.41 3.37-23.39 3.13-4.78-.15-9.57-.03-14.51-.03-.68 3.51-1.24 6.44-1.94 10.04 4.98.28 9.71.72 14.45.77 6.26.06 12.56-.61 18.78-.13 3.98.31 7.9 1.95 11.71 3.35 1.2.44 2.15 1.94 2.9 3.14 2.03 3.22 1.76 4.11-1.54 6.02-8.59 4.97-17.82 4.9-27.36 3.93-7.52-.76-15.17-1.07-22.7-.57-6.12.41-8.06 5.69-4.74 11.07 1.58 2.56 3.49 4.93 5.05 7.5 3.86 6.33 4.55 13.46 4.98 20.65.39 6.46.91 12.92 1.43 20.23 10-7.1 19.43-13.79 29.11-20.65 4.81 5.58 7.87 11.92 9.85 18.83 3.89 13.61 2.73 27.23.02 40.86-3.65 18.37-8.22 36.5-16.94 53.17-2.84 5.43-7.27 10.15-11.5 14.7-2.58 2.77-6.42 2.78-10.15 1.51-.57-5.11-.23-9.4 3.64-13.79 11-12.47 16.57-27.69 19.8-43.81 3.35-16.7 4.29-33.49 1.61-50.38-.08-.53-.22-1.05-.46-2.17-1.55 1.22-2.83 2.2-4.08 3.2-6.97 5.62-14.01 11.16-20.83 16.96-1.36 1.15-2.47 3.21-2.7 4.97-2.58 19.7-6.38 39.08-14.97 57.18-4.78 10.08-9 20.51-16.91 28.79-4.13 4.32-8.82 7.54-14.87 8.42-3.44.5-6.09-1.77-5.3-5.19.57-2.46 1.89-5.07 3.63-6.9 12.67-13.36 22.14-28.63 28-46.07 3.01-8.85 4.47-18 4.73-28.04zm26.87-201.84c-10.96 0-21.72 0-32.68 0 .7 3.25 1.22 6.22 2.02 9.1.25.89 1.13 1.98 1.97 2.27 6.19 2.16 12.6 3.08 19.11 2.06 8.33-1.29 10.96-5.09 9.58-13.43z"/><path d="m277.89 288.97c-7.56 1.28-14.37 3.42-21.15 3.34-10.11-.12-20.26-1.47-30.29-2.96-4.62-.69-8.87-3.1-11.11-7.82-1.09-2.29-.81-4.18 1.82-4.5 5.39-.65 10.83-1.23 16.24-1.17 4.67.05 9.37.8 13.99 1.64 8.79 1.6 17.08-.57 25.39-2.87-5.6-15.83-19.04-25.93-34.93-26.74-9.04-.46-18.06-1.5-27.06-2.53-4.33-.49-5.88-2.89-5.53-7.22.18-2.27 1.06-3.55 3.47-4.1 18.18-4.15 35.83-2.88 52.58 5.57 3.45 1.74 6.38 4.89 8.99 7.87 5.15 5.88 9.92 12.1 14.85 18.19 11.21-9.13 17.4-21.41 12.86-33.99-.61-1.7-1.71-3.39-3.01-4.65-10.52-10.28-23.51-15.7-37.66-18.64-8.21-1.71-16.46-3.15-24.69-4.77-1.53-.3-3.05-.75-4.48-1.36-4.01-1.71-5.41-4.25-4.68-8.18.42-2.28 3.71-4.64 7.08-4.37 7.9.63 15.87 1.11 23.64 2.55 12.78 2.37 25.26 6.03 36.54 12.78 11.37 6.81 18.79 16.72 22.1 29.58 1.39 5.39.53 10.74-1.59 15.77-2.39 5.66-4.73 11.42-7.94 16.62-2.3 3.72-5.77 6.83-9.13 9.74-3.11 2.69-3.65 5.33-2.73 9.31 5.38 23.31 10.49 46.67 15.54 70.05.8 3.69 1.06 7.54 1.11 11.32.07 4.43-3.31 7.63-7.75 7.41-1.1-.05-2.73-1.26-3.1-2.3-2.57-7.23-5.58-14.41-7.1-21.89-2.58-12.7-3.89-25.65-6.28-38.4-1.5-7.99-4.02-15.77-5.99-23.28z"/><path d="m247.04 65.36c6.35 0 12.28-.03 18.2.01 9.92.06 19.67 1.61 29.01 4.8 3.4 1.16 7.1 3.52 9.07 6.42 6.74 9.9 8.34 21.02 2.68 31.74-3.79 7.19-10.07 12.92-18.19 15.41-6.6 2.03-13.45 3.28-20.24 4.67-8.37 1.72-12.68 6.9-12.19 15.36.08 1.36.86 3.03 1.87 3.94 9.79 8.84 21.77 13 34.41 15.54 6.57 1.32 13.23 2.25 19.81 3.52 6.24 1.21 7.94 3.27 8.5 9.92-6.89 3.79-14.38 3.8-21.79 2.43-14.6-2.72-28.72-7.31-41.45-14.91-7.68-4.59-14.67-11.15-15.01-20.96-.2-5.61 2.06-11.32 3.38-16.94.19-.83 1.32-1.43 1.99-2.17 8.22-9.1 19.42-11.23 30.71-13.18 3.19-.55 6.38-1.15 9.53-1.9 4.29-1.03 7.07-4 7.18-8.24.12-4.85-.4-9.83-1.53-14.54-.42-1.73-3.19-3.54-5.22-4.11-4.9-1.36-9.97-2.58-15.02-2.8-7.92-.35-15.88.21-23.83.3-2.1.02-2.89.71-3.49 2.93-2.63 9.81-5.52 19.56-8.6 29.24-.86 2.71-2.62 5.15-4.1 7.64-.56.93-1.44 1.71-2.28 2.44-3.15 2.74-9.49 3.44-11.91 1.37-1.64-1.4-1.4-6.69.68-10.17 1.66-2.78 3.59-5.4 5.37-8.11 6.33-9.64 7.6-20.61 8.32-31.73.8-12.27-.66-24.35-2.84-36.38-.66-3.64.61-6.78 2.58-9.79 1.08-1.65 2.28-1.79 3.98-1.2 5.53 1.93 8.63 7.28 8.85 15.19.19 6.92.48 13.84.8 20.76.03 1.08.46 2.15.77 3.5z"/><path d="m147.34 58.82c-11.06-.32-22.11-.63-33.17-.97-3.54-.11-4.5-2.92-5.31-5.54-.78-2.5.09-4.08 2.82-5.39 5.98-2.88 12.02-4.09 18.69-3.94 15.42.33 30.86-.08 46.29.23 3.88.08 7.92 1.3 11.54 2.81 4.77 1.99 4.95 7.34.73 10.41-4.57 3.33-9.92 3.16-15.13 3.26-8.82.17-17.64.05-26.46.05 0-.32 0-.62 0-.92z"/></g><path d="m377.9 391.2c-.2.3-.4.5-.6.8-.7-.6-1.4-1-2.2-1.5.2-.3.4-.5.5-.8.6.4 1.4.8 2.3 1.5zm-1.8 6.1c-.2-.2-.5-.4-.9-.6.4-.6.8-1.2 1.2-1.9s.7-1.3.9-1.9c.3.3.5.5.8.7-.7 1.3-1.4 2.6-2 3.7zm2.2-9c-.3.3-.5.5-.6.8-.6-.6-1.3-1.1-2-1.5.3-.3.5-.5.6-.7.6.5 1.3.9 2 1.4zm.3.2v-.9h2 4.5c-.3 1.3-.6 2.5-1 3.6s-.9 2.1-1.4 3c.4.5 1 1 1.6 1.4s1.2.8 1.9 1.1c-.3.2-.5.4-.8.8-.4-.3-1-.7-1.6-1.2s-1.2-1.1-1.6-1.6c-.5.6-1.1 1.1-1.7 1.6s-1.4.9-2.1 1.4c-.1-.3-.3-.5-.7-.8.6-.2 1.2-.5 1.9-1s1.4-1.1 2-1.8c-.5-.8-.9-1.6-1.2-2.5s-.6-2-.8-3.2c-.4.1-.7.1-1 .1zm2.5 2.7c.3 1 .7 1.7 1 2.2.3-.5.6-1.1 1-2s.6-1.9.9-3h-3.2-.4c.1.9.3 1.8.7 2.8z" fill="#fcfbfa"/><path d="m396.5 388.5v1.5 3.6h1.5v.9c-.4 0-1 0-1.7 0h-7.9c-.5 0-.9 0-1.2 0v-.9h1.3v-3.5c0-.7 0-1.2 0-1.6h2.4c0-.8 0-1.4 0-1.7h1c0 .3-.1.8-.1 1.7h1.5c0-.8 0-1.4 0-1.7h1c0 .3-.1.9-.1 1.7zm-8.2 9.2c-.2-.3-.5-.5-.8-.8.8-.3 1.4-.6 1.9-.9s1-.7 1.4-1.1c.3.3.6.5.9.8-1.6 1-2.8 1.6-3.4 2zm2.6-6.8v-1.6h-1.5v1.6zm0 2.7v-1.9h-1.5v1.9zm2.4-2.7v-1.6h-1.5v1.6zm0 2.7v-1.9h-1.5v1.9zm.2 2 .7-.8c.4.2.9.5 1.6.8s1.3.7 1.8 1c-.3.3-.5.5-.8.8-.4-.3-1.5-1-3.3-1.8zm2-4.7v-1.6h-1.4v1.6zm0 2.7v-1.9h-1.4v1.9z" fill="#fcfbfa"/></svg>