<svg enable-background="new 0 0 400 400" viewBox="0 0 400 400" xmlns="http://www.w3.org/2000/svg"><g fill="#010103"><path d="m306.53 189.69c-13.5.81-26.11 1.48-38.71 2.35-12.51.86-24.69-.32-36.79-3.93-12.38-3.69-18.34-11.81-20.42-24.2-3.07-18.31-4.48-36.68-3.16-55.16.59-8.21 2.57-16.31 3.78-24.48.37-2.48 1.62-3.42 3.98-3.47 1.65-.04 3.3-.31 5.15-.5 3.27 8.9 4.88 18.05 4.53 27.34-.38 10.37-1.55 20.72-2.5 31.07-.64 6.95-1.04 13.85 1.78 20.49 3.72 8.75 14.69 15.38 24.61 14.69.57-36.21 1.13-72.43 1.71-109.1-3.3-.25-6.37-.67-9.46-.68-7.61-.03-15.21.22-22.82.13-2.76-.03-5.75-.18-8.19-1.28-2.12-.96-4.37-3.01-5.24-5.12-2.5-6.04 1.13-10.45 8.35-10.54 8.06-.1 16.12-.02 24.18-.02 19.14 0 38.28-.08 57.43.06 4.45.03 8.91.66 13.34 1.26 2.91.39 5.22 1.85 6.19 4.93 1.27 4.03.69 5.57-3.06 7.48-7.16 3.65-14.84 3.62-22.61 3.45-8.57-.18-17.15-.04-25.96-.04v54.93c6.77 2.18 13.71 2.97 20.78 2.6 7.45-.38 14.75-.08 21.54 3.57 7.64 4.11 12.11 10.55 13.29 19.02.97 6.97.83 14.1 2.01 21.02 2.35 13.79 2.95 27.57 1.34 41.45-.95 8.18-3.21 15.99-7.37 23.16-.64 1.1-1.66 2.11-2.72 2.83-10.41 7.06-21.94 10.38-34.52 10.03-6.07-.17-11.94.86-15.52 6.17-5.97 8.88-9.02 18.35-5.53 29.37 2.16 6.8 5.88 11.27 12.27 14.26 5.55 2.59 10.57 6.32 16.08 9.02 8.53 4.17 14.91 10.6 20.23 18.19 7.68 10.95 14.5 22.35 16.66 35.87.91 5.71.53 11.36-1.23 16.91-.57 1.79-1.44 2.61-3.34 2.37-1.1-.14-2.25-.13-3.35 0-1.94.23-3.19-.44-3.83-2.35-2.88-8.67-6.01-17.26-8.64-26.01-2.15-7.15-5.13-13.82-9.44-19.88-.74-1.04-1.91-1.85-3.02-2.56-10.46-6.69-20.92-13.36-31.42-19.99-14.09-8.9-19.9-21.47-17.14-37.99 1.52-9.14 4.49-17.75 8.91-25.86.51-.95 1.29-1.83 2.13-2.5 8.42-6.77 17.87-10.23 28.87-9.65 4.72.25 9.59-.44 14.26-1.35 7.61-1.48 11.99-6.53 12.45-14.18.49-7.59.14-15.19.14-23.18zm-42.85-55.6v41.67h41.35c0-7.76.14-15.25-.08-22.72-.07-2.51-.77-5.12-1.72-7.46-1.93-4.75-5.2-8.95-10.39-9.57-9.51-1.14-19.15-1.32-29.16-1.92z"/><path d="m128.05 25.5c5.47.19 8.97 2.72 11.14 7.24 8.79 18.31 16.23 37.01 18.81 57.4 1.56 12.33.75 24.57-.03 36.85-.16 2.45-.3 4.89-.48 7.97 7.47-3.08 15.15-4.42 18.68-12.89 3.46-8.3 5.06-16.73 3.89-25.54-1.58-11.85-3.73-23.62-5.42-35.45-.47-3.28-.56-6.72-.09-9.98.32-2.15 1.48-4.7 3.11-6.03 3.29-2.68 6.43-3.86 8.52 1.17 1.85 4.46 3.26 9.27 3.84 14.05 1.56 12.87 3.03 25.78 3.68 38.71.6 11.85-1.55 23.57-6.74 34.25-3.23 6.63-9.27 11.31-16.55 13.25-13.54 3.62-13.39 3.47-17.49 16.56-9.63 30.78-10.5 62.23-7.62 94 1.78 19.73 7.92 38.52 12.73 57.56 3 11.88 7.53 23.37 11.4 35.02 1.76 5.32.26 8.06-5.01 9.02-2.14.39-3.75-.08-5.22-1.98-4.51-5.84-7.72-12.3-9.84-19.31-6.51-21.61-13.93-42.97-17.66-65.33-3.85-23.06-5.99-46.26-2.38-69.48 2.92-18.77 7.07-37.34 10.48-56.03 4.43-24.3 6.01-48.7.23-72.98-1.85-7.77-5.18-15.19-7.94-22.73-1.54-4.19-3.46-8.24-4.95-12.45-1.51-4.26-.86-8.53.91-12.87z"/><path d="m90.79 243.25c-.25-20.57 3.49-40.77 5.76-61.1.33-2.97 1.36-5.87 2.2-8.76.72-2.51 1.7-5.04 4.84-5.2 3.79-.19 7.44 2.23 8.23 5.64.52 2.24.75 4.68.48 6.96-2.23 19.11-4.89 38.17-6.76 57.31-.6 6.14.72 12.48 1.24 18.72 1.26 15.05 2.15 30.16 4.02 45.13.97 7.8 3.55 15.43 5.67 23.06 2.35 8.45 4.38 16.87 2.93 25.76-.33 2-1.01 2.86-2.95 3.26-6.93 1.46-6.82 1.47-9.91-5.01-4.61-9.64-5.94-20.11-7.84-30.42-4.44-24.14-7.02-48.48-7.9-73.01-.04-.77-.01-1.55-.01-2.34z"/><path d="m187.98 173.68c-1.51 7.21-2.97 14.32-4.49 21.43-2.53 11.81-5.77 23.62-4.79 35.78.86 10.67 2.49 21.33 4.57 31.83 2.67 13.46 5.81 26.86 9.4 40.1 1.74 6.41 5.26 12.32 7.44 18.65 1.54 4.47 2.27 9.23 3.17 13.9.48 2.48-.89 3.76-3.31 4.53-5.47 1.75-5.7 2.03-8.6-3.07-2.64-4.63-5.21-9.46-6.76-14.52-5.33-17.29-11.09-34.51-15.01-52.14-4.74-21.3-7.44-43-4.69-64.96 1.62-12.89 5.38-25.11 11.71-36.48.75-1.35 2.56-3.33 3.44-3.13 2.3.53 4.65 1.8 6.42 3.4 1.04.95 1.03 3.08 1.5 4.68z"/><path d="m121.58 97.61c-1.11 15.05-5.31 30.68-15.63 44.26-3.73 4.9-7.43 9.82-11.19 14.69-4.53 5.85-10.1 9.79-17.89 9.58-3.05-.08-5.37-2.56-4.46-5.5.82-2.67 2.04-5.57 3.96-7.48 8.71-8.62 16.65-17.77 22.89-28.4 7.38-12.57 8.87-25.81 5.5-39.79-.52-2.17-1.1-4.34-1.68-6.5-1.13-4.16-3.04-7.7-6.37-10.71-3.95-3.57-7.89-7.47-9.15-12.97-.59-2.58-1.86-5.67 1.2-7.6 1.24-.78 3.28-1.41 4.48-.93 3.05 1.23 6.32 2.62 8.65 4.85 12.7 12.16 19.3 27.14 19.69 46.5z"/></g><path d="m377.9 391.2c-.2.3-.4.5-.6.8-.7-.6-1.4-1-2.2-1.5.2-.3.4-.5.5-.8.6.4 1.4.8 2.3 1.5zm-1.8 6.1c-.2-.2-.5-.4-.9-.6.4-.6.8-1.2 1.2-1.9s.7-1.3.9-1.9c.3.3.5.5.8.7-.7 1.3-1.4 2.6-2 3.7zm2.2-9c-.3.3-.5.5-.6.8-.6-.6-1.3-1.1-2-1.5.3-.3.5-.5.6-.7.6.5 1.3.9 2 1.4zm.3.2v-.9h2 4.5c-.3 1.3-.6 2.5-1 3.6s-.9 2.1-1.4 3c.4.5 1 1 1.6 1.4s1.2.8 1.9 1.1c-.3.2-.5.4-.8.8-.4-.3-1-.7-1.6-1.2s-1.2-1.1-1.6-1.6c-.5.6-1.1 1.1-1.7 1.6s-1.4.9-2.1 1.4c-.1-.3-.3-.5-.7-.8.6-.2 1.2-.5 1.9-1s1.4-1.1 2-1.8c-.5-.8-.9-1.6-1.2-2.5s-.6-2-.8-3.2c-.4.1-.7.1-1 .1zm2.5 2.7c.3 1 .7 1.7 1 2.2.3-.5.6-1.1 1-2s.6-1.9.9-3h-3.2-.4c.1.9.3 1.8.7 2.8z" fill="#fcfbfa"/><path d="m396.5 388.5v1.5 3.6h1.5v.9c-.4 0-1 0-1.7 0h-7.9c-.5 0-.9 0-1.2 0v-.9h1.3v-3.5c0-.7 0-1.2 0-1.6h2.4c0-.8 0-1.4 0-1.7h1c0 .3-.1.8-.1 1.7h1.5c0-.8 0-1.4 0-1.7h1c0 .3-.1.9-.1 1.7zm-8.2 9.2c-.2-.3-.5-.5-.8-.8.8-.3 1.4-.6 1.9-.9s1-.7 1.4-1.1c.3.3.6.5.9.8-1.6 1-2.8 1.6-3.4 2zm2.6-6.8v-1.6h-1.5v1.6zm0 2.7v-1.9h-1.5v1.9zm2.4-2.7v-1.6h-1.5v1.6zm0 2.7v-1.9h-1.5v1.9zm.2 2 .7-.8c.4.2.9.5 1.6.8s1.3.7 1.8 1c-.3.3-.5.5-.8.8-.4-.3-1.5-1-3.3-1.8zm2-4.7v-1.6h-1.4v1.6zm0 2.7v-1.9h-1.4v1.9z" fill="#fcfbfa"/></svg>