<svg enable-background="new 0 0 400 400" viewBox="0 0 400 400" xmlns="http://www.w3.org/2000/svg"><g fill="#fbfafa"><path d="m37.59 393.81c-.92.31-1.52.05-2-.78-.7-1.2-1.52-2.34-2.47-3.78v4.59c-.55.03-.95.05-1.41.07-.03-.37-.06-.64-.06-.91 0-1.91 0-3.81 0-5.7 1.13-.41 1.77-.03 2.29.91.62 1.11 1.38 2.14 2.31 3.19v-4.2h1.35v6.61z"/><path d="m12.94 393.88v-6.75c1.9.19 3.93-.54 5.37 1.29.8 1.01.78 2.88.03 3.97-1.37 1.97-3.4 1.51-5.4 1.49m1.45-1.22c2.04.12 2.92-.58 2.89-2.21-.03-1.51-.98-2.19-2.89-2z"/><path d="m11.81 393.87h-5.49c.68-2.18 2.47-3.48 3.51-5.45h-3.08v-1.21h5.29c-.71 2.13-2.44 3.48-3.47 5.51.86 0 1.63.04 2.39-.01.79-.05 1.14.21.85 1.16"/><path d="m39.33 393.86v-6.61h3.7v1.07h-2.22v1.52c.68.04 1.34.09 2.07.13v1.07c-.72.05-1.38.09-2.1.14v1.48h2.4v1.19h-3.85z"/><path d="m27.71 388.56c-1.15-.3-2.46-.61-3.1.64-.37.73-.41 1.93-.06 2.67.63 1.35 1.99.93 3.17.68.35.94-.01 1.32-.93 1.46-1.62.25-3.05-.27-3.76-1.48-.73-1.24-.6-3.03.31-4.17.88-1.11 2.71-1.7 4-1.16.32.13.44.74.65 1.12-.1.08-.19.16-.28.24"/><path d="m49.15 387.24v1.07c-.59.02-1.17.05-1.87.08v5.44h-1.48v-5.44h-1.85c-.05-.4-.08-.73-.13-1.15z"/><path d="m20.06 387.21h1.33v6.62h-1.33z"/><path d="m30.68 393.25c-.49.38-.8.79-1.05.76-.32-.05-.6-.45-.9-.7.26-.24.51-.64.8-.67.29-.04.62.3 1.15.61"/></g><path d="m236.87 112.21c-.26 5.23-.51 10.22-.8 16.01 7.06.17 13.82.44 20.59.47 7.14.03 14.29-.44 21.42-.14 4.7.2 8.92 2.1 11.33 6.66.97 1.83.73 2.97-1.36 3.89-8.7 3.85-17.75 3.93-27.01 3.2-6.55-.52-13.16-.39-19.74-.58-2.18-.06-2.99.95-2.8 3.08.13 1.44.02 2.91.02 4.36 0 5.51.01 5.49 5.23 6.89 8.99 2.41 18.17 2.05 27.35 2.06 3.68 0 7.43.01 11.01.74 2.74.56 5.64 1.77 7.79 3.52 4.27 3.48 3.49 7.06-1.56 9.1-6.31 2.56-12.71 1.49-19.16.61-3.93-.54-7.93-.58-12.99-.92 6.41 8.71 3.2 17.98 4.35 26.95 6.17.34 12.26.68 18.74 1.05.61-4.58 1.23-8.87 1.73-13.17.35-3.01 2.06-4.84 4.73-5.96 2.28-.95 3.81-.8 4.92 1.95 3.31 8.16 4.22 16.68 4.24 25.33.04 13.36-1.58 26.51-4.2 39.64-2.38 11.91-10.19 17.36-20.87 19.84-13 3.02-25.79 1.12-38.33-2.83-1.14-.36-2.17-1.54-2.93-2.57-5.5-7.46-8.37-16.02-10.02-25.01-3.16-17.19-4.12-34.43-.52-51.69.71-3.43 3.66-5.53 7.16-5.18.49.05 1.14.33 1.38.71 2.49 3.98 5.32 7.91 4.36 12.98-.47 2.5.41 4.12 2.68 4.56 3.49.67 7.05 1.01 10.6 1.24.58.04 1.67-1.12 1.79-1.85.51-3.08 1.07-6.21 1.02-9.31-.1-5.52.62-10.71 4.51-15.52-5.82-1.91-11.22-3.93-16.76-5.4-3.27-.87-5.44-2.66-6.58-5.56-1.59-4.03-2.98-8.16-4.13-12.33-1.14-4.12-2.83-5.37-7.05-4.55-5.08.99-8.18 3.91-9.69 8.95-2.78 9.25-3.09 18.75-3.16 28.25-.08 10.97.26 21.94.3 32.91.01 3.12-.15 6.28-.64 9.36-.27 1.67-1.06 3.48-2.16 4.77-3.69 4.32-8.16 3.47-9.74-1.85-.79-2.65-1.34-5.49-1.32-8.24.1-17.91-.1-35.84.83-53.71.39-7.42 3.13-14.77 5.19-22.05 1.63-5.75 6.52-7.85 11.83-9.12 3.57-.85 7.21-1.45 10.7-2.55 1-.32 2.13-1.93 2.24-3.04.51-4.89.78-9.82.86-14.74.02-.96-.99-2.43-1.89-2.8-2.45-1.03-5.06-1.78-7.67-2.33-7-1.47-11.95-5.4-13.48-12.41-1.64-7.5-3.21-15.15-3.52-22.78-.4-9.79.14-19.67.91-29.46.58-7.37 1.73-7.91 9.4-7.65 3.11 6.9 4.35 14.24 4.08 21.8-.18 5.02-.66 10.05-1.26 15.04-1.26 10.58 2.68 19.49 10.74 23.83.46.25.95.44 1.85.85.25-10.77.52-21.14.73-31.51.13-6.16.18-12.25 3.71-17.78 5.03-7.85 12.55-11.34 21.33-12.21 12.67-1.26 25.38-2.18 38.09-2.9 3.73-.21 7.63.38 11.27 1.32 1.91.49 3.98 2.21 5.01 3.95 1.89 3.18.86 4.88-2.63 6.14-7.26 2.63-14.77 3.45-22.44 3.23-2.45-.07-4.9-.01-7.86-.01 0 5.26-.08 10.36.09 15.45.02.65 1.23 1.44 2.04 1.87 7.9 4.18 16.43 4.41 25.13 4.31 4.95-.06 9.95.9 14.85 1.84 3.71.71 2.9 4.6 3.82 7.13.2.56-1.66 2.26-2.85 2.88-10.24 5.34-21.1 5.05-32.08 3.21-1.54-.26-3.07-.62-4.57-1.06-7.41-2.18-13.76-5.16-17.58-12.95-2.88-5.89-4.88-11.32-3.45-17.77.14-.65.11-1.34.12-2.01 0-.2-.11-.41-.33-1.11-4.17.72-8.42 1.39-12.62 2.26-.7.14-1.58 1.01-1.79 1.72-1.44 4.76-3.58 9.52-3.88 14.38-.6 9.8-.18 19.66-.18 29.42 9.45 2.61 18.12 2.88 26.84 1.86 8.05-.94 16.06-1.39 24.01.58 11.24 2.79 17.98 10.8 23.11 20.44 5.33 10.01 6.37 21.06 7.42 32.12 2.36 24.95.51 49.89.19 74.84-.04 2.7-1.33 4.35-3.77 4.73-2.47.38-5.42.79-6.26-2.67-.81-3.33-1.69-6.73-1.85-10.13-.59-12.51-.8-25.04-1.34-37.56-.41-9.51-.87-19.02-1.78-28.49-.74-7.65-1.94-15.28-3.39-22.83-1.82-9.46-8.06-15.03-17.18-17.22-4.53-1.08-9.27-1.83-13.91-1.82-10 .06-20.06.67-30.56 1.05zm24.13 140.82c4.82-1.35 9.24-2.43 13.55-3.85 3.22-1.06 4.62-6.87 2.41-9.43-.44-.5-1.32-.95-1.95-.9-4.84.37-9.67.88-14.74 1.36.23 4.3.46 8.28.73 12.82zm.15-29.01h18.77c-.13-1.98-.07-3.34-.33-4.64-.44-2.24-1.09-4.74-3.81-4.88-4.85-.26-9.72-.07-14.63-.07zm-14.92.04c.71-7.92-2.22-10.58-13.97-9.1v10.8c4.83-.59 9.33-1.13 13.97-1.7zm-13.2 15.01c1.87 10.48 6.27 14.46 13.82 12.34-.2-2.7-.22-5.5-.72-8.21-.18-.99-1.38-2.33-2.32-2.54-3.46-.73-7-1.06-10.78-1.59z" fill="#010105"/><path d="m142.39 152.61c-3.73 25.97-9.22 51.44-6.17 77.44 2.12 18.09 5.45 36.04 8.21 54.06 3.97 25.92 13.28 50.03 24.66 73.47 1.82 3.76 2.84 7.99 3.62 12.12.3 1.59-.6 4.29-1.84 5.08-2.03 1.29-4.59 1.15-6.56-1.23-8.27-9.96-13.79-21.43-18.13-33.46-10.05-27.83-17.37-56.38-21.45-85.7-1.71-12.28-3.44-24.61-4.15-36.98-1.04-17.97 1.79-35.7 5.05-53.34 3.72-20.12 7.62-40.22 10.84-60.43 2.8-17.53-1.54-33.95-9.5-49.57-2.33-4.58-4.52-9.23-6.55-13.95-1.86-4.33-1.66-8.77.52-12.96.4-.78 1.88-1.54 2.75-1.43 3.89.49 7.11 2.48 8.66 6.1 8.08 18.76 17.57 37.21 18.02 58.21.22 10.23-1.11 20.51-1.89 30.75-.45 5.88-1.21 11.73-1.88 18.14 4.33-.59 8.18-1 11.97-1.73.85-.16 1.68-1.35 2.18-2.25 5.52-9.99 7.85-20.82 6.51-32.05-1.79-14.98-4.43-29.85-6.61-44.78-.48-3.31-.9-6.71-.68-10.02.14-2.05 1.05-4.47 2.45-5.94 2.92-3.07 5.83-2.44 7.74 1.26 5.68 10.98 8.36 22.84 9.89 35 1.98 15.83 2.92 31.7-.4 47.46-1.49 7.07-3.03 14.3-8.54 19.68-5.85 5.71-12.82 8.37-21.03 7.57-2.46-.23-4.91-.34-7.69-.52z" fill="#010105"/><path d="m278.1 297.99c-.82 20.1-1.63 39.97-2.47 60.73 8.52.05 16.63.04 24.74.19 3.89.07 7.84.14 11.66.8 3.7.64 6.58 2.94 7.7 6.7.26.87-.46 2.83-1.14 3.06-4.19 1.42-8.47 3.42-12.76 3.53-26.5.71-53.01 1.11-79.52 1.33-11.66.1-23.22-1.27-34.49-4.44-1.06-.3-2.63-1.3-2.7-2.08-.17-1.92-1.2-4.55 1.6-5.53 3.65-1.28 7.35-2.95 11.12-3.21 9.25-.64 18.54-.62 27.82-.72 2.34-.03 3.02-.84 3.01-3.14-.08-17.81-.08-35.61 0-53.42.01-2.21-.65-3.12-2.88-3.53-4.72-.87-9.34-2.4-14.08-3.09-6.91-1.01-11.86-4.8-16.04-10.03-9.49-11.92-10.89-32.76-3-45.29 4.99.54 8.31 3.45 9.19 8.59.49 2.84.37 5.78.52 8.68s-.01 5.86.5 8.7c1.57 8.87 6.45 14.46 15.62 16.62 13.34 3.13 26.8 3.79 40.34 2.95 8.12-.5 16.16-2.1 24.26-3.03 9.26-1.07 13.88-6.86 15.68-15.35 1.12-5.24 1.69-10.58 2.56-15.87.67-4.07 1.83-7.92 5.83-10.03 2.34-1.23 4.06-1.33 5.39 1.82 3.58 8.48 3.04 17.03 1.36 25.71-.19.99-.42 1.97-.64 2.95-1.46 6.34-4.51 11.27-9.52 15.92-7.34 6.81-15.95 8.35-25.01 9.62-.77.11-1.55.25-2.31.39-.67.11-1.32.26-2.34.47zm-30.58 1.17v59.96c5.13-.36 9.98-.7 15.17-1.07-.82-19.86-1.62-39.36-2.43-58.89-4.47 0-8.47 0-12.74 0z" fill="#010105"/><path d="m109.6 166.27c-.9 7.2-1.96 14.62-2.72 22.07-2.5 24.52-4.71 49.07-1.02 73.67 1.95 12.94 3.62 25.96 6.51 38.7 1.84 8.09 5.64 15.75 8.67 23.56 2.11 5.46 3.09 11 1.58 16.74-.34 1.31-1.42 3.34-2.29 3.42-2.56.21-5.83 2.13-7.69-1.02-3.15-5.35-6.83-10.66-8.63-16.49-3.77-12.27-6.34-24.9-9.6-37.33-6.59-25.07-6.4-50.51-4.28-76.04 1.15-13.82 2.7-27.61 4.24-41.39.65-5.78 3.02-10.99 6.73-15.47.61-.74 2.39-1.2 3.32-.88 4.97 1.66 4.95 6.03 5.18 10.46z" fill="#010105"/><path d="m151.64 213.85c.33-16.74 2.81-33.01 7.93-48.91 1-3.1 2.94-4.86 5.88-4.97 3.02-.12 5.11 1.96 5.61 4.84.48 2.8.7 5.79.24 8.57-1.44 8.59-3.18 17.14-4.93 25.68-2.64 12.89-.98 25.57 1.44 38.28 2.74 14.38 4.8 28.9 7.98 43.18 1.98 8.89 5.85 17.34 8.2 26.17 1.3 4.87 1.28 10.1 1.74 15.17.16 1.74-.6 2.81-2.61 3.11-7.81 1.17-6.06 3.09-9.4-4.44-3.61-8.12-6.69-16.59-8.91-25.19-3.84-14.91-7.46-29.93-9.98-45.1-1.99-11.98-2.2-24.25-3.19-36.39z" fill="#010105"/><path d="m106.57 99.44c-.62-2.35-1.69-6.9-3.01-11.36-2.13-7.17-4.58-14.25-6.59-21.45-1.21-4.33-1.48-8.81.27-13.18.75-1.88 2-2.89 3.81-1.64 2.05 1.41 4.72 2.83 5.58 4.89 4.75 11.29 10.85 22.1 12.98 34.37 2.58 14.88-.92 28.38-9.79 40.5-4.49 6.13-9.13 12.16-13.73 18.21-4.04 5.32-9.04 9.33-15.74 10.62-1.63.31-3.91.15-5.1-.78-2.01-1.58-2.13-4.19-.7-6.4 2.15-3.34 4.31-6.73 6.85-9.77 5.93-7.12 12.33-13.87 18.08-21.12 4.69-5.93 7.04-12.92 7.09-22.89z" fill="#010105"/><path d="m211.21 300.01c4.87 2.74 6.91 6.35 7.85 10.44 2.87 12.55 2.2 25.1-.67 37.57-.64 2.77-2.96 3.57-5.42 3.46-2.32-.1-4.5-.43-5.22-3.55-3.17-13.68-4.56-27.37-.46-41.08.7-2.38 2.5-4.43 3.92-6.84z" fill="#010105"/><path d="m289.06 328.05c.02-7.36 1.04-14.45 4.98-20.92 1.35-2.22 2.7-2.23 4.65-1.15 3.84 2.12 5.85 5.59 6.52 9.68 1.68 10.32.97 20.47-2.41 30.46-1.22 3.61-4.19 2.89-6.59 3.19-1.01.12-2.67-1.29-3.3-2.42-3.27-5.83-3.85-12.29-3.85-18.84z" fill="#010105"/></svg>