<svg enable-background="new 0 0 400 400" viewBox="0 0 400 400" xmlns="http://www.w3.org/2000/svg"><g fill="#010103"><path d="m202.79 183.31c-.03-22.88.64-42.76 5.19-62.29 1.11-4.78 2.8-9.42 3.97-14.19 1.45-5.93 5.38-9.52 10.57-12.16 8.04-4.09 16.79-5.8 25.56-6.24 12.04-.6 24.17-.43 36.21.22 5.58.3 11.29 1.89 16.52 3.95 12.01 4.72 17.24 14.55 18.48 26.89 1.47 14.57 3.66 29.12 4.19 43.72.63 17.29.21 34.65-.46 51.96-.61 15.79-3.5 31.27-8.34 46.39-6.46 20.17-21.52 30.5-40.9 35.03-10.5 2.45-21.16-.1-31.19-4.09-5.07-2.02-10.52-3.77-14.77-7-4.3-3.27-7.95-7.84-10.78-12.51-6.36-10.5-8.52-22.48-10.4-34.42-3.01-19.29-3.69-38.74-3.85-55.26zm97.56 76.55c1.99-7.62 4.48-14.71 5.63-22.02 3.09-19.53 2.39-39.23 1.2-58.88-.06-1.02-1.36-2.49-2.39-2.83-8.47-2.81-17.02-5.41-25.54-8.06-2.95-.92-5.9-1.81-8.47-2.6-5.9 36.06 5.62 66.66 29.57 94.39zm-75.38-2.57c.91-1.09 1.7-1.87 2.29-2.78 6.39-9.82 12.97-19.53 18.99-29.57 2.59-4.33 4.59-9.22 5.83-14.11 2.87-11.33 3.35-22.98 2.82-34.63-.16-3.59-.96-7.16-1.51-11.04-11.61 4.14-22.65 8.01-33.61 12.09-.89.33-1.78 2.13-1.76 3.23.17 14.41.23 28.84.87 43.23.5 11.29 2.63 22.38 6.08 33.58zm44.55-154.55c-.09.83-.2 1.37-.19 1.9.21 14.3.47 28.59.6 42.89.02 2.08.73 2.88 2.68 3.43 9.77 2.74 19.5 5.64 29.24 8.47 1.66.48 3.35.91 5.54 1.5 0-8.56.26-16.6-.09-24.61-.23-5.31-.77-10.74-2.18-15.84-1.99-7.23-5.42-13.88-13.34-16.41-7.25-2.33-14.7-1.74-22.26-1.33zm-15.2 2.02c-11.64-3.25-21.21-.11-29.43 7.67-.98.93-1.98 2.27-2.18 3.54-1.83 11.46-3.68 22.92-5.07 34.43-.43 3.6.52 7.36.87 11.37 10.43-3.39 20.09-6.53 29.75-9.66 6.06-1.97 6.06-1.97 6.06-8.23 0-13.07 0-26.15 0-39.12zm7.07 122.47c-.84 1.27-1.54 2.26-2.18 3.28-7.51 12.05-15.01 24.1-22.52 36.16-2.41 3.87-.48 9.24 3.84 10.94 8.32 3.27 16.98 4.76 25.87 4.93 9.09.17 17.09-2.63 23.89-9.3-9.63-15.34-19.18-30.55-28.9-46.01z"/><path d="m154.04 144.13c3.8-.89 7.15-1.37 10.24-2.55 1.44-.55 2.63-2.32 3.47-3.8 4.16-7.26 5.59-15.3 4.09-23.34-3.09-16.57-6.93-32.99-10.43-49.48-1.18-5.57-2.39-11.14-3.42-16.74-.56-3.03.11-5.82 2.81-7.74 3.61-2.56 5.71-2.16 8.3 1.36 4.52 6.14 6.11 13.34 7.6 20.58 3.18 15.43 6.43 30.84 9.47 46.3 2.2 11.18 1.55 22.26-2.1 33.1-.28.84-.44 1.97-1.05 2.41-6.92 5.02-12.05 12.89-21.62 13.75-.88.08-1.74.39-2.62.58-6.68 1.4-6.59 1.4-7.14 8.03-1.36 16.27-2.83 32.53-4.21 48.79-1.31 15.45-.23 30.84 1.07 46.24 2.55 30.08 10.62 59.14 16.07 88.69 1.21 6.55 1.92 13.2 2.44 19.84.22 2.86-.89 5.65-4.54 5.97-3.64.32-6.41-1.65-7.47-5.06-7.46-23.98-10.9-48.8-15.68-73.37-5.39-27.69-5.03-55.65-5.22-83.56-.1-14.47 1.67-28.98 3-43.44 1.87-20.27 4.14-40.5 6.18-60.75.13-1.29-.18-2.66-.52-3.94-3.87-14.81-7.51-29.68-11.85-44.35-1.45-4.9-4.58-9.35-7.23-13.84-2.72-4.61-5.98-8.93-6.72-14.46-.36-2.68-.91-5.28 2.08-7.08 2.81-1.69 5.1-.24 7.03 1.23 2.18 1.66 4.03 3.85 5.68 6.07 18.44 24.62 25.56 52.86 25.78 83.06.06 7.63-1.91 15.28-2.94 22.92-.18 1.32-.32 2.64-.55 4.58z"/><path d="m93.51 237.18c.94-8.84 2.49-23.17 3.99-37.5 1.03-9.78 1.67-19.66 5.75-28.8 1.44-3.23 2.97-6.56 5.15-9.3 3.03-3.83 9.52-2.32 10.78 2.46.59 2.25.77 5.14-.14 7.17-6.49 14.66-7.06 30.36-8.42 45.91-1.82 20.73.59 41.31 2.21 61.93 1.6 20.27 7.91 39.35 13.72 58.59 1.18 3.9.6 5.17-2.96 6.72-2.28.99-5.38-.07-6.7-2.86-4.24-8.96-9-17.78-12.24-27.11-8.03-23.14-10.46-47.27-11.14-77.21z"/><path d="m190.98 334.75c-11.03 2.78-8.93 3.62-13.51-4.88-5.13-9.52-6.56-20.13-8.39-30.57-2.74-15.63-5.35-31.29-7.82-46.96-2.37-15.02-2.05-30.07-.16-45.14.95-7.53.79-15.21 1.91-22.71.71-4.77 2.72-9.37 4.42-13.94.3-.79 2.06-1.63 3.01-1.5 5.54.75 7.75 3.48 7.44 9.16-1.03 19.21-2.76 38.41-3.01 57.63-.14 11.2 1.46 22.52 3.29 33.62 2.81 17.08 6.33 34.03 11.49 50.62 1.46 4.63.96 9.87 1.33 14.67z"/><path d="m121.71 106.67c.32 12.84-2.04 25.19-8.05 36.58-1.99 3.78-5.31 6.89-8.16 10.18-3.95 4.57-7.87 9.18-12.11 13.48-4.66 4.73-10.32 7.43-17.2 6.7-3.08-.33-5.14-2.82-4.25-5.72.66-2.14 1.81-4.36 3.36-5.95 7.12-7.27 14.61-14.18 21.67-21.51 9.61-9.99 12.22-22.08 9.41-35.4-1.64-7.76-3.28-15.56-5.61-23.12-2.03-6.58-5.03-12.87-7.62-19.28-.93-2.3.25-7.91 2.19-9.11.73-.45 1.96-.35 2.89-.15 3.7.79 6.61 2.86 8.36 6.19 7.78 14.8 14.8 29.87 15.12 47.11z"/></g><path d="m377.9 391.2c-.2.3-.4.5-.6.8-.7-.6-1.4-1-2.2-1.5.2-.3.4-.5.5-.8.6.4 1.4.8 2.3 1.5zm-1.8 6.1c-.2-.2-.5-.4-.9-.6.4-.6.8-1.2 1.2-1.9s.7-1.3.9-1.9c.3.3.5.5.8.7-.7 1.3-1.4 2.6-2 3.7zm2.2-9c-.3.3-.5.5-.6.8-.6-.6-1.3-1.1-2-1.5.3-.3.5-.5.6-.7.6.5 1.3.9 2 1.4zm.3.2v-.9h2 4.5c-.3 1.3-.6 2.5-1 3.6s-.9 2.1-1.4 3c.4.5 1 1 1.6 1.4s1.2.8 1.9 1.1c-.3.2-.5.4-.8.8-.4-.3-1-.7-1.6-1.2s-1.2-1.1-1.6-1.6c-.5.6-1.1 1.1-1.7 1.6s-1.4.9-2.1 1.4c-.1-.3-.3-.5-.7-.8.6-.2 1.2-.5 1.9-1s1.4-1.1 2-1.8c-.5-.8-.9-1.6-1.2-2.5s-.6-2-.8-3.2c-.4.1-.7.1-1 .1zm2.5 2.7c.3 1 .7 1.7 1 2.2.3-.5.6-1.1 1-2s.6-1.9.9-3h-3.2-.4c.1.9.3 1.8.7 2.8z" fill="#fcfbfa"/><path d="m396.5 388.5v1.5 3.6h1.5v.9c-.4 0-1 0-1.7 0h-7.9c-.5 0-.9 0-1.2 0v-.9h1.3v-3.5c0-.7 0-1.2 0-1.6h2.4c0-.8 0-1.4 0-1.7h1c0 .3-.1.8-.1 1.7h1.5c0-.8 0-1.4 0-1.7h1c0 .3-.1.9-.1 1.7zm-8.2 9.2c-.2-.3-.5-.5-.8-.8.8-.3 1.4-.6 1.9-.9s1-.7 1.4-1.1c.3.3.6.5.9.8-1.6 1-2.8 1.6-3.4 2zm2.6-6.8v-1.6h-1.5v1.6zm0 2.7v-1.9h-1.5v1.9zm2.4-2.7v-1.6h-1.5v1.6zm0 2.7v-1.9h-1.5v1.9zm.2 2 .7-.8c.4.2.9.5 1.6.8s1.3.7 1.8 1c-.3.3-.5.5-.8.8-.4-.3-1.5-1-3.3-1.8zm2-4.7v-1.6h-1.4v1.6zm0 2.7v-1.9h-1.4v1.9z" fill="#fcfbfa"/></svg>