<svg enable-background="new 0 0 400 400" viewBox="0 0 400 400" xmlns="http://www.w3.org/2000/svg"><g fill="#010103"><path d="m271.16 202.25c0 9.49.05 18.08-.01 26.68-.22 33.46-.53 66.93-.68 100.39-.04 8.38.55 16.77.56 25.15 0 3.08-.53 6.26-1.45 9.2-.55 1.75-2.04 3.53-3.59 4.58-3.06 2.07-5.3 1.38-6.42-2.11-1.22-3.78-2.45-7.79-2.46-11.7-.03-38.28.22-76.55.35-114.83.04-12.41.01-24.82.01-38.27-4.86 2.43-9.15 3.02-12.03 6.77-9.31 12.13-13.96 26.14-16.6 40.93-3.32 18.59-4.73 37.23-1.65 56.08.79 4.84-.07 10.04-.74 15-.27 2.01-1.69 4.22-3.23 5.64-3.11 2.86-7.09 1.93-8.3-2.01-1.31-4.23-2.51-8.66-2.71-13.05-1.57-34.21 2.99-67.61 13.92-100.1.44-1.31 1.28-2.62 2.27-3.59 5.17-5.11 10.21-10.41 15.79-15.05 3-2.49 6.92-3.98 10.59-5.54 2.12-.9 2.9-2.02 2.73-4.26-.18-2.56-.31-5.18.02-7.71.48-3.62-1.2-4.4-4.35-4.35-7.27.13-14.55.16-21.82.04-4.79-.08-9.65-.03-14.34-.85-5.81-1.02-8.73-4.24-10.08-9.68 7.62-5.8 16.27-6.94 25.63-6.08 6.85.63 13.78.43 20.67.49 2.38.02 3.08-1.43 3.13-3.73.08-4.02.36-8.06.89-12.04.3-2.28-.52-3.11-2.53-3.82-5.69-2.01-11.38-4.05-16.89-6.49-2.55-1.13-5.07-2.86-6.91-4.93-7.61-8.5-10.78-18.93-12.02-30.01-1.2-10.75-.69-21.41 1.79-32.01 1.06-4.54 3.07-7.21 8.38-6.88 2.9 6.51 4.53 13.64 4.98 20.97.46 7.58.41 15.2.58 22.8.29 12.93 9.21 21.84 22.48 21.81.61-5.77 1.88-11.65 1.72-17.48-.39-14.08-1.57-28.13-2.21-42.2-.52-11.26.33-22.36 5.19-32.8.23-.5.52-.97.76-1.42 3.9.26 6.48 2.06 7.14 5.79.67 3.82.89 7.76.94 11.65.31 24.84.52 49.68.77 74.52.01.54.12 1.08.24 2.16 5.77-2.44 11.98-2.9 15.03-9.79 3.27-7.39 5.63-14.67 5.38-22.88-.24-8.15.24-16.33.63-24.48.26-5.46 3.38-8.6 8.07-8.19 1.23.11 2.86 1.17 3.45 2.26 3.08 5.72 4.28 12.04 4.31 18.44.07 14.36-2.44 28.3-8.51 41.39-1.25 2.69-3.36 5.44-5.81 7.03-6.83 4.43-13.97 8.41-21.15 12.26-2.13 1.14-2.82 2.32-2.73 4.59.16 3.9.05 7.81.05 12.68 7.83.17 15.48.36 23.12.49 5.12.09 10.3-.34 15.36.24 5.82.66 9.4 4.31 10.39 10.44-4.89 3.84-10.53 5.54-16.74 5.59-9.06.07-18.11.13-27.17.24-1.55.02-3.1.21-4.96.35 0 5.09-.15 10 .13 14.89.06.96 1.62 2.18 2.75 2.68 8.79 3.89 16.77 8.84 23.18 16.18 6.69 7.66 9.41 16.9 10.84 26.63 2.1 14.27 4.69 28.51 5.8 42.86.91 11.67-.05 23.48-.18 35.23-.05 4.48-.08 8.95-.17 13.43-.06 2.63-2.65 5.13-5.41 5.33-2.95.22-4.96-1.4-5.46-4.43-3.31-20.3-3.55-40.77-3.29-61.26.16-12.5-.69-24.81-5.88-36.44-4.36-9.82-11.15-17.4-21.54-23.42z"/><path d="m157.4 143.75c2.88-.68 5.64-1.16 8.28-2.02 1.17-.38 2.29-1.35 3.09-2.33 8.8-10.86 10.12-23.32 7.29-36.47-2.63-12.23-5.74-24.37-8.21-36.63-.75-3.72-.31-7.73 0-11.58.18-2.24 1.76-3.87 4.24-4.06 2.42-.18 4.42.13 5.88 2.69 6.63 11.56 9.91 24.16 11.61 37.2 1.72 13.15 1.89 26.28-1.06 39.37-3.15 13.97-10.31 24.43-24.48 28.84-3.24 1.01-6.82 1.11-10.26 1.26-2.07.09-2.85.94-3.48 2.77-6.15 17.86-9.51 36.27-11.49 55-1.79 16.95-2.56 33.87-.87 50.9 1.97 19.97 6.48 39.24 14.64 57.58 5.31 11.94 11.09 23.66 16.44 35.59 1.2 2.67 1.68 5.74 2.09 8.67.3 2.2-.46 4.53-2.96 4.98-2.59.47-5.4.7-7.09-2.29-4.78-8.47-10.01-16.7-14.33-25.39-11.84-23.78-19.66-48.88-23.47-75.19-4.58-31.7-2.23-62.84 7.08-93.54 4.24-13.99 8.17-28.13 11.18-42.42 6.07-28.84 1.37-56.27-13.03-81.94-2.31-4.13-5.62-7.75-8.82-11.3-2.64-2.94-4.78-5.89-4.67-10.01.09-3.15 2.24-4.92 5.32-4.24 4.55 1 8.12 3.62 11.15 7.06 7.24 8.21 12.81 17.5 17.19 27.47 9.26 21.11 11.62 43.23 9.29 66-.44 4.34-.58 8.7-.85 13.06.01.19.14.41.3.97z"/><path d="m87.38 263.76c.74-34.07 6.83-65 20.43-94.28 2.22-4.77 6.32-6.41 9.38-3.21 1.54 1.61 2.5 4.64 2.26 6.87-.37 3.47-1.86 6.85-3.11 10.18-6.77 17.95-11.21 36.54-14.11 55.42-2.33 15.13-1.42 30.5 1.49 45.45 2.88 14.76 7.14 29.27 11.22 43.77 1.04 3.69-.63 4.99-3.13 6.1-2.64 1.17-4.83-.01-6.22-2.36-9.45-16.03-15.15-33.32-17.11-51.81-.64-6-.83-12.05-1.1-16.13z"/><path d="m152.03 239.06c.33-14.11 3.86-27.5 8.54-40.59 2.93-8.19 6.61-16.11 9.79-24.22 1.09-2.77 2.69-3.11 5.2-2.13 4.05 1.58 5.73 4.95 4.44 9.87-2.39 9.19-5.49 18.23-7.27 27.53-2.76 14.43-6.86 28.77-5.07 43.75 1.22 10.19 4.34 19.84 8.42 29.2 4.89 11.22 9.01 22.65 9.46 35.07.11 2.94.25 5.86-3.07 7.46-2.82 1.36-5.5.92-7.37-1.61-6.93-9.38-10.38-20.21-12.84-31.41-3.02-13.75-5.96-27.52-8.78-41.32-.76-3.8-.98-7.72-1.45-11.6z"/><path d="m74.14 170.44c.06-6.96 1.84-11.86 6.8-16.03 6.56-5.52 12.49-11.84 18.37-18.11 6.58-7.03 9.84-15.67 10.33-25.22.14-2.68-.56-5.61-1.6-8.12-2.85-6.9-6.29-13.55-9.08-20.47-1.51-3.76-2.63-7.82-3.04-11.83-.25-2.39 1.22-4.95 1.92-7.44.47-.18.94-.37 1.41-.55 2.92 2.42 6.58 4.35 8.64 7.36 8.23 12.02 14.3 25.05 14.91 39.94.52 12.7-3.68 24.04-11.59 33.8-5.62 6.93-11.72 13.54-18.15 19.73-3.1 2.98-7.27 5.08-11.29 6.78-2.17.91-5.06.16-7.63.16z"/></g><path d="m377.9 391.2c-.2.3-.4.5-.6.8-.7-.6-1.4-1-2.2-1.5.2-.3.4-.5.5-.8.6.4 1.4.8 2.3 1.5zm-1.8 6.1c-.2-.2-.5-.4-.9-.6.4-.6.8-1.2 1.2-1.9s.7-1.3.9-1.9c.3.3.5.5.8.7-.7 1.3-1.4 2.6-2 3.7zm2.2-9c-.3.3-.5.5-.6.8-.6-.6-1.3-1.1-2-1.5.3-.3.5-.5.6-.7.6.5 1.3.9 2 1.4zm.3.2v-.9h2 4.5c-.3 1.3-.6 2.5-1 3.6s-.9 2.1-1.4 3c.4.5 1 1 1.6 1.4s1.2.8 1.9 1.1c-.3.2-.5.4-.8.8-.4-.3-1-.7-1.6-1.2s-1.2-1.1-1.6-1.6c-.5.6-1.1 1.1-1.7 1.6s-1.4.9-2.1 1.4c-.1-.3-.3-.5-.7-.8.6-.2 1.2-.5 1.9-1s1.4-1.1 2-1.8c-.5-.8-.9-1.6-1.2-2.5s-.6-2-.8-3.2c-.4.1-.7.1-1 .1zm2.5 2.7c.3 1 .7 1.7 1 2.2.3-.5.6-1.1 1-2s.6-1.9.9-3h-3.2-.4c.1.9.3 1.8.7 2.8z" fill="#fcfbfa"/><path d="m396.5 388.5v1.5 3.6h1.5v.9c-.4 0-1 0-1.7 0h-7.9c-.5 0-.9 0-1.2 0v-.9h1.3v-3.5c0-.7 0-1.2 0-1.6h2.4c0-.8 0-1.4 0-1.7h1c0 .3-.1.8-.1 1.7h1.5c0-.8 0-1.4 0-1.7h1c0 .3-.1.9-.1 1.7zm-8.2 9.2c-.2-.3-.5-.5-.8-.8.8-.3 1.4-.6 1.9-.9s1-.7 1.4-1.1c.3.3.6.5.9.8-1.6 1-2.8 1.6-3.4 2zm2.6-6.8v-1.6h-1.5v1.6zm0 2.7v-1.9h-1.5v1.9zm2.4-2.7v-1.6h-1.5v1.6zm0 2.7v-1.9h-1.5v1.9zm.2 2 .7-.8c.4.2.9.5 1.6.8s1.3.7 1.8 1c-.3.3-.5.5-.8.8-.4-.3-1.5-1-3.3-1.8zm2-4.7v-1.6h-1.4v1.6zm0 2.7v-1.9h-1.4v1.9z" fill="#fcfbfa"/></svg>