<svg enable-background="new 0 0 400 400" viewBox="0 0 400 400" xmlns="http://www.w3.org/2000/svg"><g fill="#010103"><path d="m212.3 236.1c-1.72 9.03.38 16.7 2.21 24.42 2.88 12.17 5.79 24.34 8.4 36.57.95 4.44-.49 5.68-5.01 5.48-5.1-.23-5.89-.75-7.13-5.6-3.78-14.82-8.31-29.52-10.95-44.54-2.4-13.7-3.31-27.76-3.75-41.69-.38-12.09 3.48-23.58 8.48-34.57.27-.6.62-1.21 1.09-1.66 10.31-10.05 21.83-18.19 35.9-22.05 2.03-.56 4.42-.13 6.58.21 16.4 2.59 29.66 9.77 35.27 26.42 2.15 6.37 2.98 13.29 3.63 20.04 1.79 18.58 1.28 37.16-2.76 55.42-1.17 5.3-4.49 10.12-6.75 15.2-1.85 4.16-4.66 7.47-7.99 10.58-6.87 6.41-13.63 12.96-20.07 19.79-6.29 6.66-9.65 14.72-9.38 24.05.04 1.54.28 3.12.7 4.61 3.54 12.7 7.03 25.42 10.79 38.05 1.76 5.92-2.1 8.1-6.12 8.03-.92-.02-2.22-.63-2.69-1.37-10.72-17.17-17.59-35.49-15.17-56.14.66-5.59 2.71-11.02 4.3-16.47.35-1.2 1.39-2.26 2.29-3.23 5-5.43 10.01-10.87 15.13-16.18 1.46-1.51 1.73-2.67.74-4.62-4.13-8.06-7.42-16.62-12.3-24.17-2.94-4.55-7.93-8.03-12.59-11.11-3.69-2.49-8.3-3.61-12.85-5.47zm49.27 32.5c1.89-2.75 4.99-5.62 6.07-9.12 6.63-21.49 8.55-43.36 4.16-65.63-1.46-7.4-2.88-14.69-7.65-20.86-5.4-6.99-16.39-10.63-23.35-6.75-7.19 4.01-13.88 8.93-20.68 13.6-1.1.75-1.93 2.2-2.41 3.5-2.56 6.92-5.22 13.81-7.31 20.88-1.12 3.79-1.38 7.89-1.6 11.88-.14 2.59 1.14 4.5 3.97 5.47 5.17 1.78 10.15 4.13 15.32 5.92 8.98 3.11 15.85 8.93 20.66 16.84 4.67 7.69 8.46 15.91 12.82 24.27z"/><path d="m132.53 228.71c-.21-22.68 3.69-44.4 7.28-66.14 2.68-16.22 5.77-32.37 8.09-48.64 1.37-9.62 1.76-19.39 2.29-29.1.51-9.33-3.62-17.44-7.81-25.33-3.3-6.2-7.24-12.06-11.15-17.91-2.54-3.8-4.74-7.59-4.55-12.34.1-2.67 2.71-4.83 5.2-3.89 2.14.8 4.55 1.83 5.95 3.5 9.5 11.35 18.51 23.01 22.69 37.62 4.13 14.42 4 28.91 1.56 43.54-1.01 6.07-1.74 12.18-2.52 18.28-.36 2.84.94 4.37 3.54 3.33 3.94-1.58 8.44-3.25 11.09-6.29 8.11-9.32 9.66-20.62 7.38-32.51-2.15-11.2-4.61-22.34-6.61-33.56-.7-3.91-.7-8-.55-11.99.13-3.48 3.47-6.3 6.86-6.01.93.08 2.19 1.2 2.57 2.13 2.57 6.28 5.89 12.46 7.19 19.02 2.45 12.36 3.87 24.94 5.39 37.46 1.04 8.48-2.57 16.21-4.7 24.17-2.98 11.13-11.09 16.55-21.26 19.72-3.83 1.19-7.86 1.74-11.73 2.83-1 .28-2.34 1.42-2.5 2.34-3.74 21.37-7.67 42.7-8.77 64.45-1.11 21.88-.86 43.75 3.05 65.26 2.91 16 7.85 31.64 12.19 47.36 2.41 8.72 5.51 17.24 8.13 25.91.93 3.09 1.73 6.32 1.83 9.51.06 1.79-.97 4.42-2.35 5.25-2.16 1.3-4.81 1.11-6.77-1.52-6.24-8.38-10.07-17.88-13.27-27.69-6.9-21.15-10.26-43.02-13.5-64.93-2.19-14.71-4.8-29.37-4.24-43.83z"/><path d="m298.26 128.9c-4.2 1.1-7.95 2.59-11.82 3.01-13.11 1.42-26.29 3.32-39.46 1.16-11.44-1.88-22.79-4.41-34.13-6.87-3.6-.78-2.33-4.38-2.8-6.75-.17-.85 1.44-2.78 2.51-3.02 3.33-.76 6.82-1.46 10.19-1.28 18.2 1 36.38 2.37 54.58 3.42 5.56.32 10.98-.49 15.07-4.99 3.42-3.77 3.91-10.7.91-14.7-.5-.66-1.38-1.08-2.14-1.49-11.86-6.34-24.45-8.21-37.7-6.23-13.11 1.96-26.3 2.44-39.5 1.24-6.29-.57-8.39-4.67-5.31-10.06.61-1.07 2.06-2.01 3.3-2.33 12.66-3.27 25.61-3.92 38.6-4.06 5.82-.07 11.64.01 17.46.11 7.19.12 14.24.9 20.93 3.93 3.85 1.75 7.94 2.99 12.38 4.63-.2-1.18-.29-1.99-.47-2.78-1.05-4.58-2.51-9.1-3.07-13.74-.64-5.24-3.64-8.03-7.99-10.2-6.04-3.01-12.42-4.55-19.08-4.54-11.07.02-22.15.5-33.22.49-3.52 0-7.17-.54-10.49-1.63-1.83-.6-3.55-2.63-4.51-4.45-1.12-2.11-.58-3.93 2.25-5.15 5.75-2.48 11.52-3.85 17.84-3.47 13.72.82 27.47 1.16 41.18 2.09 3.82.26 7.61 1.72 11.32 2.93 12.14 3.95 16.75 13.39 17.65 25.16 1.06 13.82 2.02 27.66 2.57 41.51.75 19.01.96 38.05 1.63 57.07.25 7.14 1.72 14.26 1.6 21.37-.08 5.13-1.74 10.26-2.94 15.33-.89 3.74-4.36 2.34-6.75 2.68-.78.11-2.19-1.53-2.7-2.65-4.99-10.93-6.41-22.53-5.83-34.4.63-13.01.45-25.96-1.63-38.84-.16-1.1-.37-2.18-.43-2.5z"/><path d="m128.18 339.51c-10.88 2.31-9.18 4.44-13.09-5.72-3.58-9.29-5.62-19.29-7.35-29.16-3.82-21.84-6.14-43.88-6.32-66.09-.16-19.87 2.46-39.51 5.48-59.09 1.04-6.72 2.13-13.48 3.92-20.03 1.04-3.79 3.38-7.26 5.43-10.7.45-.75 2.25-1.26 3.21-1.02 2.57.63 4.52 2.46 4.59 5.16.13 4.77.28 9.62-.44 14.31-3.02 19.56-6.42 39.06-9.59 58.6-2.71 16.71-1.14 33.26 2.31 49.68 3.38 16.07 7.17 32.06 10.43 48.15 1.05 5.16.98 10.55 1.42 15.91z"/><path d="m180.98 163.83c-1.59 9.78-2.92 18.74-4.53 27.64-4.42 24.42-2.97 48.48 3.55 72.4 3.11 11.41 5.12 23.11 7.95 34.6 1.76 7.14 4.19 14.11 6.15 21.2.53 1.91.27 4.02.62 5.99.57 3.28-1.36 4.44-3.99 5-3.3.69-5.9-.52-6.75-3.18-5.58-17.56-11.75-34.97-16.45-52.76-3.07-11.61-4.01-23.78-5.87-35.7-2.71-17.33-1.29-34.59 1.02-51.81.95-7.06 1.9-14.17 3.62-21.06.83-3.29 3.27-6.28 5.35-9.14 2-2.76 5.1-2.63 6.94.36 1.29 2.12 1.77 4.71 2.39 6.46z"/><path d="m114.52 99.51c-2.14-8.3-4.18-16.63-6.44-24.89-1.7-6.2-3.21-12.36-1.57-18.81 1.51-5.93 4.84-7.11 8.9-2.38 2.7 3.15 4.62 7.44 5.59 11.53 2.6 10.97 4.87 22.05 6.59 33.19 1.61 10.47-1.44 20.11-8.35 28.04-5.34 6.14-11.38 11.71-17.38 17.23-5.27 4.85-11.56 7.96-18.71 9.2-2.54.44-4.89.27-5.73-2.55-.79-2.66-1.38-5.55 1.29-7.69 6.63-5.31 13.18-10.75 20-15.81 7.32-5.43 12.19-12.37 14.34-21.2.44-1.82.54-3.73.8-5.6.23-.08.45-.17.67-.26z"/><path d="m266.63 222.05c-.4 1.7-.31 4.41-1.31 4.9-2.31 1.14-5.13 1.32-7.78 1.6-.53.06-1.3-1.07-1.78-1.78-1.89-2.77-3.96-5.46-5.48-8.43-2.22-4.34-5.81-6.59-10.27-7.85-3.33-.94-6.68-1.79-10-2.76-3.91-1.15-5.55-3.55-5.01-7.13.62-4.05 2.9-5.93 7.1-5.79 9.47.31 17.89 3.6 25.41 9.21 5.99 4.45 8.71 10.59 9.12 18.03z"/></g><path d="m377.9 391.2c-.2.3-.4.5-.6.8-.7-.6-1.4-1-2.2-1.5.2-.3.4-.5.5-.8.6.4 1.4.8 2.3 1.5zm-1.8 6.1c-.2-.2-.5-.4-.9-.6.4-.6.8-1.2 1.2-1.9s.7-1.3.9-1.9c.3.3.5.5.8.7-.7 1.3-1.4 2.6-2 3.7zm2.2-9c-.3.3-.5.5-.6.8-.6-.6-1.3-1.1-2-1.5.3-.3.5-.5.6-.7.6.5 1.3.9 2 1.4zm.3.2v-.9h2 4.5c-.3 1.3-.6 2.5-1 3.6s-.9 2.1-1.4 3c.4.5 1 1 1.6 1.4s1.2.8 1.9 1.1c-.3.2-.5.4-.8.8-.4-.3-1-.7-1.6-1.2s-1.2-1.1-1.6-1.6c-.5.6-1.1 1.1-1.7 1.6s-1.4.9-2.1 1.4c-.1-.3-.3-.5-.7-.8.6-.2 1.2-.5 1.9-1s1.4-1.1 2-1.8c-.5-.8-.9-1.6-1.2-2.5s-.6-2-.8-3.2c-.4.1-.7.1-1 .1zm2.5 2.7c.3 1 .7 1.7 1 2.2.3-.5.6-1.1 1-2s.6-1.9.9-3h-3.2-.4c.1.9.3 1.8.7 2.8z" fill="#fcfbfa"/><path d="m396.5 388.5v1.5 3.6h1.5v.9c-.4 0-1 0-1.7 0h-7.9c-.5 0-.9 0-1.2 0v-.9h1.3v-3.5c0-.7 0-1.2 0-1.6h2.4c0-.8 0-1.4 0-1.7h1c0 .3-.1.8-.1 1.7h1.5c0-.8 0-1.4 0-1.7h1c0 .3-.1.9-.1 1.7zm-8.2 9.2c-.2-.3-.5-.5-.8-.8.8-.3 1.4-.6 1.9-.9s1-.7 1.4-1.1c.3.3.6.5.9.8-1.6 1-2.8 1.6-3.4 2zm2.6-6.8v-1.6h-1.5v1.6zm0 2.7v-1.9h-1.5v1.9zm2.4-2.7v-1.6h-1.5v1.6zm0 2.7v-1.9h-1.5v1.9zm.2 2 .7-.8c.4.2.9.5 1.6.8s1.3.7 1.8 1c-.3.3-.5.5-.8.8-.4-.3-1.5-1-3.3-1.8zm2-4.7v-1.6h-1.4v1.6zm0 2.7v-1.9h-1.4v1.9z" fill="#fcfbfa"/></svg>