<svg enable-background="new 0 0 400 400" viewBox="0 0 400 400" xmlns="http://www.w3.org/2000/svg"><g fill="#010103"><path d="m121.66 226.64c.75-21.11 4.54-41.66 8.65-62.18 4.22-21.04 8.73-42.04 12.14-63.21 2.6-16.13.27-31.85-8.37-46.23-4.24-7.07-9.2-13.84-10.5-22.29-.29-1.88-.9-3.71 1.32-5.36 2.38-1.77 4.13-1.82 6.48-.15 7.55 5.38 12.57 12.7 16.12 21.04 5.77 13.56 10.16 27.64 10.15 42.44-.01 9.76-1.95 19.52-3.04 29.28-.11 1-.3 1.99-.42 2.99-.37 2.86 1.41 3.81 3.66 3.27 3.59-.86 6.8-2.29 8.8-5.98 6.12-11.28 7.63-23.28 6.07-35.77-1.23-9.87-2.78-19.7-4.26-29.53-.81-5.39 1.12-9.87 5.01-11.28 2.41-.88 4.18-.57 5.56 1.96 5.05 9.31 7.68 19.28 8.42 29.77 1.2 17.04-.23 33.76-7.08 49.64-.95 2.19-3.01 3.94-4.72 5.75-.82.87-2.1 1.29-3.04 2.07-5.79 4.77-12.37 7.44-19.9 7.56-1.81.03-2.39.86-2.78 2.54-6.66 29.39-11.81 58.98-12.15 89.22-.23 20.86 2.73 41.11 9.9 60.85 5.83 16.05 10.68 32.47 15.79 48.78 1.09 3.49 1.76 7.19 2.04 10.83.34 4.25-4.22 7.85-8.35 6.81-.89-.22-1.71-1.31-2.25-2.19-8.62-13.85-13.56-29.07-16.82-44.95-1.03-5.02-2.36-10.02-4.02-14.86-4.92-14.37-6.91-29.35-9.32-44.22-1.41-8.8-2.08-17.73-3.09-26.6z"/><path d="m246.56 129.23c-22.16-30.18-21.67-61.18-5.55-93.09.63-1.26.82-3.57 3.38-2.83 2.39.69 4.81 1.77 4.76 4.48-.07 3.95.05 8.28-1.47 11.77-11.11 25.49-3.86 59.93 16.71 78.38 6.92 6.21 15.22 8.61 24.1 9.86 3.87.54 7.71 1.32 11.57 1.95 2.78.45 4.96 1.66 5.25 4.7.31 3.29-1.58 5.62-4.78 6.43-6.8 1.7-13.5 1.53-20.13-.86-8.79-3.18-18.03-5.35-25.67-11.85-4 7.75-8.24 14.98-11.47 22.65-1.44 3.42-.98 7.7-1.13 11.6-.6 15.28 3.17 29.93 6.42 44.67 2.29 10.36 4.66 20.73 6.3 31.21 2.43 15.51-1.15 30.37-5.46 45.22-7.41 25.57-19.13 49.33-29.97 73.46-1.07 2.38-2.93 4.47-4.68 6.47-1.84 2.08-4.52 3.23-6.89 1.58-1.55-1.08-3.16-3.63-2.97-5.32.48-4.22 1.2-8.75 3.19-12.41 8.28-15.24 15.79-30.81 21.77-47.11 7.33-19.99 12.44-40.33 10.98-61.92-1.06-15.81-4.06-31.21-8.16-46.47-5.5-20.44-3.93-40.56 3.68-60.19 1-2.57 3.41-4.62 5.26-6.83 1.66-1.99 3.44-3.85 4.96-5.55z"/><path d="m218.13 104.36c-.72 12.24-1.39 28.79-2.86 45.28-.47 5.32-2.29 10.87-4.85 15.59-6.9 12.73-6.72 25.53-3.71 39.3 3.67 16.79 6.05 33.89 8.49 50.92 2.51 17.53-1.47 34.26-7.77 50.5-3.3 8.51-5.99 17.5-13.3 23.68-1.86 1.57-4.67 2.33-7.16 2.74-2.44.4-4.05-1.18-3.7-3.84.33-2.52.33-5.4 1.58-7.44 8.39-13.59 10.7-29.28 15.68-44.04 3.81-11.3 2.35-22.61.33-33.82-2.94-16.27-6.57-32.42-9.79-48.64-1.55-7.84-.82-15.57 1.76-23.13 3.03-8.87 7.02-17.54 8.8-26.65 1.87-9.58 2.03-19.56 2.2-29.38.39-21.82.45-43.64.33-65.46-.02-4.63 3.41-6.47 5.65-9.33.25-.32 1.48-.12 2.11.15 2.91 1.28 5.05 3.32 5.59 6.61.3 1.87.58 3.77.58 5.66.06 15.65.04 31.32.04 51.3z"/><path d="m277.87 176.15c-2.12 8.24-1.66 16.22.31 24.09 2.44 9.75 5.5 19.34 7.77 29.12 3.93 16.89 3.9 34.03.87 50.98-2.11 11.83-5.68 23.4-8.53 35.11-1.98 8.14-3.73 16.33-5.82 24.44-.8 3.1-2 6.17-3.5 9-.95 1.79-2.57 3.45-4.27 4.58-4.3 2.84-6.88 1.74-8.18-3.2-1.78-6.75-.92-13.36 1.51-19.74 7.39-19.42 11.68-39.61 15.37-59.97 2.54-14.04.72-27.8-2.55-41.52-2.46-10.32-4.85-20.67-6.65-31.12-1.64-9.52-.39-19.05 3.12-28.01.97-2.47 4.31-3.95 6.35-6.09 2.48-2.6 5.15-2.33 8.21-1.32 8.97 2.96 15.63 9 21.43 16.09 6.7 8.18 12.4 16.97 15.22 27.32 1.5 5.51 1.54 11.01-.33 16.51-.58 1.7-1.42 2.15-3.16 2.07-4.25-.2-7.54-1.17-9.13-5.9-2.52-7.5-5.92-14.7-8.43-22.2-3.33-9.88-10.35-15.85-19.61-20.24z"/><path d="m84.82 228.77c-1.1-16.24 3.28-34.97 11.58-52.94 2.57-5.57 4.42-11.47 6.96-17.05 1.25-2.75 3.21-5.21 5.08-7.62 2.26-2.93 4.9-1.31 7.17-.02 2.21 1.26 2.67 3.34 1.7 5.8-2.99 7.58-6.1 15.13-8.77 22.82-9.41 27.14-13.7 54.68-7.18 83.3 5.11 22.43 9.42 45.03 14.22 67.53.44 2.08-.02 3.09-1.78 3.96-3.43 1.7-7.25.57-9.09-2.79-7.71-14.09-11.89-29.36-14.77-45.01-3.3-17.94-5.04-36.07-5.12-57.98z"/><path d="m154.64 238.28c-.7-18.24 2.55-36.12 4.64-54.1.91-7.89 1.76-15.79 5.13-23.12.65-1.42 1.34-2.83 2.08-4.2 1.88-3.43 3.2-3.8 6.54-1.73 3.89 2.42 4.55 6.16 3.88 10.28-1.11 6.84-2.49 13.64-3.49 20.49-2.01 13.8-4.33 27.59-5.62 41.47-1.17 12.58 2.04 24.91 4.31 37.21 2.55 13.84 5.51 27.6 8.52 41.35.56 2.54-.25 3.41-2.33 4.12-3.7 1.25-6.75.12-8.67-3.33-7.8-14.01-11.65-29.2-13.32-45-.82-7.8-1.13-15.63-1.67-23.44z"/><path d="m124.81 92.65c-1.37 18.12-8.9 33.45-25.19 44.11-6.49 4.24-12.9 8.11-21.01 7.17-1.24-.14-3.39-1.03-3.4-1.6-.04-2.57-2.61-5.48.52-7.73 5.88-4.25 11.39-9.31 17.84-12.41 9.16-4.41 12.95-11.82 15.78-20.78 3.83-12.12.61-22.64-5.88-32.71-3.16-4.91-6.27-9.84-6.54-15.9-.09-1.99.13-4.01.31-6 .27-3.04 2.16-3.92 4.58-2.55 2.65 1.5 5.7 3.08 7.34 5.48 7.69 11.25 13.61 23.34 15.28 37.11.21 1.62.22 3.31.37 5.81z"/><path d="m260.9 65.61c-.12-9.17 1.27-18.04 5.02-26.46 1.74-3.91 5.26-4.38 7.67-.72 1.32 2.01 2.13 4.73 2.17 7.14.08 5.01-.16 10.09-.91 15.05-1 6.65.14 12.83 2.54 18.98 2.06 5.29 4.46 10.56 3.82 16.48-.2 1.84.48 4.48-2.45 4.73-3.07.27-6.29 3.08-9.13-1.3-6.73-10.4-8.62-21.88-8.73-33.9z"/></g><path d="m377.9 391.2c-.2.3-.4.5-.6.8-.7-.6-1.4-1-2.2-1.5.2-.3.4-.5.5-.8.6.4 1.4.8 2.3 1.5zm-1.8 6.1c-.2-.2-.5-.4-.9-.6.4-.6.8-1.2 1.2-1.9s.7-1.3.9-1.9c.3.3.5.5.8.7-.7 1.3-1.4 2.6-2 3.7zm2.2-9c-.3.3-.5.5-.6.8-.6-.6-1.3-1.1-2-1.5.3-.3.5-.5.6-.7.6.5 1.3.9 2 1.4zm.3.2v-.9h2 4.5c-.3 1.3-.6 2.5-1 3.6s-.9 2.1-1.4 3c.4.5 1 1 1.6 1.4s1.2.8 1.9 1.1c-.3.2-.5.4-.8.8-.4-.3-1-.7-1.6-1.2s-1.2-1.1-1.6-1.6c-.5.6-1.1 1.1-1.7 1.6s-1.4.9-2.1 1.4c-.1-.3-.3-.5-.7-.8.6-.2 1.2-.5 1.9-1s1.4-1.1 2-1.8c-.5-.8-.9-1.6-1.2-2.5s-.6-2-.8-3.2c-.4.1-.7.1-1 .1zm2.5 2.7c.3 1 .7 1.7 1 2.2.3-.5.6-1.1 1-2s.6-1.9.9-3h-3.2-.4c.1.9.3 1.8.7 2.8z" fill="#fcfbfa"/><path d="m396.5 388.5v1.5 3.6h1.5v.9c-.4 0-1 0-1.7 0h-7.9c-.5 0-.9 0-1.2 0v-.9h1.3v-3.5c0-.7 0-1.2 0-1.6h2.4c0-.8 0-1.4 0-1.7h1c0 .3-.1.8-.1 1.7h1.5c0-.8 0-1.4 0-1.7h1c0 .3-.1.9-.1 1.7zm-8.2 9.2c-.2-.3-.5-.5-.8-.8.8-.3 1.4-.6 1.9-.9s1-.7 1.4-1.1c.3.3.6.5.9.8-1.6 1-2.8 1.6-3.4 2zm2.6-6.8v-1.6h-1.5v1.6zm0 2.7v-1.9h-1.5v1.9zm2.4-2.7v-1.6h-1.5v1.6zm0 2.7v-1.9h-1.5v1.9zm.2 2 .7-.8c.4.2.9.5 1.6.8s1.3.7 1.8 1c-.3.3-.5.5-.8.8-.4-.3-1.5-1-3.3-1.8zm2-4.7v-1.6h-1.4v1.6zm0 2.7v-1.9h-1.4v1.9z" fill="#fcfbfa"/></svg>