<svg enable-background="new 0 0 400 400" viewBox="0 0 400 400" xmlns="http://www.w3.org/2000/svg"><g fill="#010103"><path d="m269.95 233.86v20.18c7.97 1.11 15.89 2.68 23.87 3.16 6.43.39 10.18 3.65 13.18 8.7 4.46 7.51 6.36 15.72 6.53 24.34.27 13.76-.06 27.55.78 41.28.48 7.84 2.77 15.56 4.2 23.35.9 4.94 1.85 9.87 2.51 14.84.42 3.13-1.26 5.36-3.72 5.7-2.32.32-6.19-2.01-6.84-4.21-3.02-10.29-6.49-20.49-8.86-30.93-1.67-7.34-1.82-15.02-2.65-22.55-.12-1.09-.2-2.19-.32-3.53-12.24-.4-24.3-.77-36.35-1.18-5.14-.17-10.41.23-15.39-.77-4.93-.98-9.76-3.03-14.28-5.31-3.34-1.69-5.2-4.99-5.97-8.88-3.55-17.91-5.11-35.87-1.98-54 .66-3.81 5.71-6.36 9.13-4.65.67.33 1.11 1.31 1.45 2.08 2.9 6.61 3.32 13.6 3.22 20.69-.13 8.82-.18 17.64-.25 26.45 0 .33.09.66.13 1 .51 4.44 2.29 7.36 7.4 7.67 3.37.2 6.68 1.36 10.41 2.18-.36-22-.7-43.45-1.06-65.39-4.08-.18-8.05-.45-12.01-.53-7.93-.16-15.9.25-23.78-.44-7.19-.63-10.84-5.39-10.4-11.96 5.61-2.39 11.18-4.39 17.62-4.31 25.3.32 50.6.14 75.9.29 3.32.02 6.67.64 9.93 1.34 1.43.3 2.92 1.25 3.95 2.33 3.31 3.46 2.74 7.06-1.3 9.45-4.35 2.57-9.11 3.61-14.13 3.61-10.18.01-20.34 0-30.92 0zm-1.18 65.5h30.73c-.76-7.13-1.25-13.99-2.3-20.77-.54-3.52-2.79-6.29-6.22-7.84-6.49-2.95-13.33-3.04-20.54-2.84-.56 10.65-1.11 20.97-1.67 31.45z"/><path d="m146.03 129.72c5.28.94 8.69-.66 11.34-5.15 5.44-9.21 6-18.73 3.28-28.78-2.75-10.14-5.44-20.29-7.99-30.48-.67-2.68-1.07-5.52-.96-8.26.17-4.4 2.81-6.63 7.06-6.12 1.3.15 2.95 1.11 3.62 2.21 6.6 10.74 9.99 22.64 12.01 34.96 1.94 11.79 2.44 23.58-.65 35.29-.34 1.29-.81 2.56-1.16 3.85-2.76 10.22-10.87 14.65-19.92 17.23-9.25 2.65-9.33 2.16-10.54 11.98-1.8 14.54-3.9 29.04-5.47 43.6-1.72 15.96-1.12 31.97.47 47.92 1.05 10.45 2.01 20.98 4.14 31.24 2.44 11.79 6.13 23.32 9.29 34.96 2.69 9.92 5.52 19.8 8.03 29.76.78 3.11.84 6.43.97 9.66.11 2.61-.71 4.93-3.58 5.77-3.24.94-5.64-.08-7.27-2.93-7.08-12.3-10.26-25.89-13.12-39.59-3.57-17.06-6.78-34.21-10.91-51.13-4.66-19.13-4.86-38.21-2.43-57.62 2.99-23.86 5.29-47.8 7.89-71.71.95-8.78 1.52-17.63 2.92-26.34 2.32-14.45-.21-28.14-6.14-41.17-3.03-6.65-7.13-12.86-11.19-18.98-2.77-4.18-5.14-8.37-5.65-13.42-.35-3.47 2.42-6.13 5.54-4.65 3.32 1.57 6.83 3.68 9.03 6.51 16.95 21.78 25.33 46.26 22.46 74.13-.62 5.74-.74 11.54-1.07 17.26z"/><path d="m214.25 98.91c.12-11.18 2.07-23.13 7.85-34.19.77-1.47 2.16-2.79 3.57-3.7 3.09-2 6.28-3.91 9.61-5.48 5.09-2.41 6.31-6.58 5.89-11.63-.13-1.55-.87-3.11-.74-4.62.29-3.37.32-6.97 1.59-10 1.88-4.5 3.57-4.52 7.02-1.11 3.16 3.12 3.76 6.9 3.06 11.14-.53 3.18-.94 6.41-1.02 9.63-.07 2.78 1.18 4.78 4.2 5.64 3.75 1.07 7.32 2.84 11.09 3.79 3.65.91 5.68 3.25 7.34 6.28 4.33 7.94 5.96 16.55 6.47 25.46.73 12.81-.36 25.42-3.17 37.98-2.69 12.02-10.96 17.51-21.94 19.65-4.81.94-10.07.8-14.94 0-9.67-1.59-16.92-6.23-20.29-16.46-3.37-10.24-5.38-20.52-5.59-32.38zm31.39 11.36c-4.55 6.13-8.76 11.8-12.83 17.29 4.02 8.67 21.77 8.5 28.02 2.43-4.93-6.39-9.87-12.81-15.19-19.72zm13.77-40.44c-8.89-2.26-17.2-4.2-25.61 1 4 5.51 7.82 10.78 11.84 16.32 4.67-5.87 9.02-11.34 13.77-17.32zm4.81 41.01c0-8.58 0-16.46 0-25.02-3.33 4.33-6.23 8.09-9.13 11.85 3.01 4.34 5.86 8.45 9.13 13.17zm-33.75-20.91v17.32c7.63-7.59 8.05-8.76 0-17.32z"/><path d="m205 275.5c0 24.28.06 48.57-.05 72.85-.02 4.79-.36 9.62-1.1 14.35-.57 3.63-2.47 6.68-6.42 7.88-2.19.67-3.46.25-4.33-2.08-2.58-6.95-3.11-14.17-3.17-21.46-.29-36.81-.56-73.62-.83-110.44-.16-21.69 1.9-43.12 7.59-64.11.44-1.63 1.71-3.42 3.11-4.36 9.27-6.23 19.84-8.78 30.75-9.42 15.85-.93 31.74-1.36 47.62-1.73 9.16-.21 18.33-.01 27.5.24 3.75.1 6.91 1.69 8.66 5.36 1.14 2.39 1.03 4.56-1.62 5.52-3.72 1.36-7.57 3.04-11.44 3.23-15.86.77-31.75.82-47.6 1.56-12.14.57-24.4.08-36.29 3.59-8.58 2.54-13.03 8.06-13.04 17.05-.02 27.31-.01 54.63-.01 81.94.22.03.44.03.67.03z"/><path d="m90.55 232.62c1.25-11.77 2.59-25.89 4.31-39.97 1.09-8.85 2.6-17.66 4.27-26.42.51-2.66 1.97-5.23 3.37-7.61.79-1.34 2.35-3.14 3.57-3.14 2.84-.01 5.68 1.24 6.44 4.37.59 2.44.84 5.13.5 7.61-2.65 19.72-5.86 39.37-8.04 59.14-.83 7.56.22 15.41 1.03 23.07 1.55 14.65 2.66 29.43 7.96 43.39 1.9 5.01 4.05 9.93 6.23 14.82 2.65 5.96 3.62 12.14 3.18 18.64-.22 3.2-2.05 4.88-4.73 5.8-2.64.91-4.97.03-6.33-2.41-2.27-4.07-4.98-8.05-6.36-12.43-5.62-17.91-11.06-35.91-13.12-54.66-1-9.21-1.41-18.49-2.28-30.2z"/><path d="m157.81 158.76c7.41.42 10.67 4.4 10.16 12.22-1.01 15.61-1.69 31.26-3.25 46.82-1.16 11.58 1.12 22.7 2.62 33.97 2.02 15.17 6.4 29.64 12.7 43.58 3.37 7.45 3.83 11.68 2.78 17.52-.09.06-.18.14-.27.17-7.98 1.87-8.07 1.92-11.95-5.14-10.43-18.96-16.11-39.42-18.96-60.74-2.21-16.57-2.8-33.19-1.43-49.86 1.06-13.08 3.43-25.89 7.6-38.54z"/><path d="m302.5 115.83c-5.03-.78-9.47-1.31-13.84-2.18-4.7-.93-6.34-4.66-3.92-8.83.5-.86 1.87-1.47 2.95-1.71 3.92-.89 7.88-1.63 11.84-2.34 2.01-.36 3.3-1.31 3.42-3.45.25-4.44.47-8.88.71-13.6-4.15-.61-7.87-1.19-11.6-1.7-5.24-.72-6.96-3-5.55-7.99.3-1.08 1.59-2.34 2.67-2.68 3.41-1.05 6.91-1.9 10.44-2.42 2.7-.4 3.77-1.96 3.68-4.27-.14-3.33-.42-6.69-1.12-9.94-1.19-5.51-1.05-10.63 2.55-15.31 1.25-1.62 2.4-1.98 4.19-.84 3.26 2.08 5.77 4.57 6.05 8.7.92 13.6 2.14 27.19 2.74 40.8.61 13.67.2 27.29-4.89 40.35-2.33 6-5.87 10.55-12.32 12.15-5.92 1.47-11.86 1.04-17.4-1.39-1.16-.51-1.6-3.3-1.8-5.1-.11-.96.77-2.65 1.61-2.99 3.49-1.41 7.19-2.3 10.7-3.66 1.75-.68 3.78-1.64 4.77-3.09 1.7-2.4 2.65-5.33 4.12-8.51z"/><path d="m192.24 100.23c4.88.68 9.11 1.08 13.25 1.94 1.58.33 3.37 1.42 4.32 2.72 2.47 3.39 1.79 5.51-2.08 7.05-2.68 1.06-5.47 1.92-8.29 2.5-2.64.55-3.5 2.04-3.39 4.49.23 5.13.96 6.02 5.97 6.84 2.75.45 5.52.88 8.3 1.13 3.33.31 4.89 2.1 5.39 5.33.52 3.33-1.15 4.81-3.94 5.98-5.49 2.3-10.93 1.08-16.48.39-4.62-.58-7.29-3.02-9.3-7-4.68-9.24-6.81-19.13-7.8-29.29-1.64-16.84-2.09-33.69.87-50.47.56-3.16 1.29-7.36 4.68-7.02 2.62.26 5.66 3.52 7.12 6.2 1.44 2.66 1.29 6.25 1.57 9.46.36 4.23.32 8.49.75 12.71.09.92 1.41 2.41 2.23 2.45 2.97.15 6 .08 8.93-.41 4.1-.69 9.11 3.84 8.46 7.97-.05.31-.2.62-.38.88-2.22 3.2-10.12 6.03-13.95 4.66-3.07-1.09-4.57.09-5.11 2.83-.57 2.7-.74 5.48-1.12 8.66z"/><path d="m118.82 102.12c-.34 12.89-3.32 24.83-10.04 35.15-5.18 7.95-12.72 14.17-21.7 17.94-2.43 1.02-5.47 1.03-8.19.84-4.26-.3-5.47-1.68-5.73-5.85-.05-.85.77-2.01 1.52-2.61 4.81-3.83 9.43-8.02 14.65-11.21 9.58-5.86 13.51-14.74 15.27-25.19 2.15-12.77-2.38-23.99-7.83-35.03-1.14-2.3-2.26-4.61-3.36-6.93-.33-.7-.62-1.44-.82-2.19-.92-3.41.49-9.19 2.49-10.3 1.66-.92 7.02 1.29 8.88 4.38 7.68 12.81 14.73 25.9 14.86 41z"/><path d="m259.68 187.16c10.17 0 20.35-.06 30.52.05 2.09.02 4.2.57 6.27 1.03 3.53.78 5.12 3.23 5.64 6.65.27 1.83-.17 3.04-2.11 3.47-5.55 1.22-11.04 3.04-16.65 3.58-19.88 1.9-39.75 1.59-59.5-1.66-3.49-.58-5.89-4.73-4.87-8.18.14-.48.49-1.13.9-1.26 4.08-1.38 8.13-3.54 12.29-3.8 9.14-.58 18.34-.18 27.51-.18z"/></g><path d="m377.9 391.2c-.2.3-.4.5-.6.8-.7-.6-1.4-1-2.2-1.5.2-.3.4-.5.5-.8.6.4 1.4.8 2.3 1.5zm-1.8 6.1c-.2-.2-.5-.4-.9-.6.4-.6.8-1.2 1.2-1.9s.7-1.3.9-1.9c.3.3.5.5.8.7-.7 1.3-1.4 2.6-2 3.7zm2.2-9c-.3.3-.5.5-.6.8-.6-.6-1.3-1.1-2-1.5.3-.3.5-.5.6-.7.6.5 1.3.9 2 1.4zm.3.2v-.9h2 4.5c-.3 1.3-.6 2.5-1 3.6s-.9 2.1-1.4 3c.4.5 1 1 1.6 1.4s1.2.8 1.9 1.1c-.3.2-.5.4-.8.8-.4-.3-1-.7-1.6-1.2s-1.2-1.1-1.6-1.6c-.5.6-1.1 1.1-1.7 1.6s-1.4.9-2.1 1.4c-.1-.3-.3-.5-.7-.8.6-.2 1.2-.5 1.9-1s1.4-1.1 2-1.8c-.5-.8-.9-1.6-1.2-2.5s-.6-2-.8-3.2c-.4.1-.7.1-1 .1zm2.5 2.7c.3 1 .7 1.7 1 2.2.3-.5.6-1.1 1-2s.6-1.9.9-3h-3.2-.4c.1.9.3 1.8.7 2.8z" fill="#fcfbfa"/><path d="m396.5 388.5v1.5 3.6h1.5v.9c-.4 0-1 0-1.7 0h-7.9c-.5 0-.9 0-1.2 0v-.9h1.3v-3.5c0-.7 0-1.2 0-1.6h2.4c0-.8 0-1.4 0-1.7h1c0 .3-.1.8-.1 1.7h1.5c0-.8 0-1.4 0-1.7h1c0 .3-.1.9-.1 1.7zm-8.2 9.2c-.2-.3-.5-.5-.8-.8.8-.3 1.4-.6 1.9-.9s1-.7 1.4-1.1c.3.3.6.5.9.8-1.6 1-2.8 1.6-3.4 2zm2.6-6.8v-1.6h-1.5v1.6zm0 2.7v-1.9h-1.5v1.9zm2.4-2.7v-1.6h-1.5v1.6zm0 2.7v-1.9h-1.5v1.9zm.2 2 .7-.8c.4.2.9.5 1.6.8s1.3.7 1.8 1c-.3.3-.5.5-.8.8-.4-.3-1.5-1-3.3-1.8zm2-4.7v-1.6h-1.4v1.6zm0 2.7v-1.9h-1.4v1.9z" fill="#fcfbfa"/></svg>