<svg enable-background="new 0 0 400 400" viewBox="0 0 400 400" xmlns="http://www.w3.org/2000/svg"><g fill="#010103"><path d="m200.1 182.73c-5.28 1.32-10.59 1.33-14.71 5.38-1.36 1.34-3.79 1.89-5.82 2.19-2.38.35-5.23 1.19-6.5-2.24-.93-2.5.08-6.28 2.51-8.04 5.71-4.14 11.41-8.29 17.26-12.22 2.31-1.55 3.41-3.01 2.65-5.96-1.02-3.99-1.45-8.14-2.27-12.19-2.49-12.25 2.15-19.85 14.33-22.48 4.66-1.01 9.54-.92 14.31-1.49 3.54-.42 7.06-1.03 10.56-1.68 1.99-.37 2.84-1.64 3.03-3.76.6-6.99-.04-7.84-6.88-9.92-4.78-1.46-9.78-2.7-14.07-5.12-7.95-4.49-10.7-12.7-12.43-20.99-3.13-14.98-2.23-30.02.08-45.06.61-3.95 6.63-5.46 9.18-4.33.71.31 1.19 1.5 1.46 2.39 2.71 8.77 3.19 17.8 2.9 26.9-.15 4.59-.68 9.18-.53 13.75.39 12.2 7.1 18.88 20.46 19.9.51-6.13 1.59-12.3 1.42-18.44-.28-10.38-1.6-20.74-1.99-31.12-.27-7.09 1.45-13.95 4.21-20.56.94-2.25 2.3-2.47 4.18-1.81 3.05 1.07 5.24 3 5.63 6.41.3 2.66.7 5.33.71 8 .06 17.58.03 35.15.03 52.73v3.62c10.98.89 19.37-6.01 20.6-17.77.91-8.64.57-17.41.83-26.12.13-4.24.09-8.52.65-12.71.22-1.66 1.52-3.55 2.89-4.59 2.92-2.22 4.87-1.54 6.56 1.7 4.81 9.18 6.19 19.03 4.28 29.03-2.04 10.73-5.01 21.29-7.75 31.88-.38 1.47-1.5 3.19-2.78 3.91-5.33 2.99-10.77 5.8-16.32 8.35-4.36 2-8.09 4.31-8.81 10.04 5.14-.3 10.1-.56 15.06-.88 8.82-.57 17.63-1.4 26.46-1.65 3.71-.1 7.52.74 11.17 1.63 2.78.68 4.04 2.96 4.03 5.89 0 3.08-2.22 3.93-4.57 4.38-5.15.98-10.34 1.77-15.52 2.64-.98.17-1.96.34-3.43.6.51 3.85.98 7.56 1.48 11.27.72 5.32 1.49 10.63 2.16 15.96.25 2.02 1.05 3.37 2.93 4.44 6.41 3.66 12.71 7.51 19.01 11.37 6.32 3.88 10.45 9.33 11.71 16.78.53 3.17-1.11 5.27-4.37 4.78-2.22-.33-4.54-1.3-6.4-2.57-6.46-4.42-12.74-9.09-19.32-13.84-1.74 3.72-3.38 7.31-5.09 10.86-2.39 4.95-6.26 8.02-11.68 9.17-4.81 1.02-9.59 2.17-14.39 3.27-3.36.77-4.43 2.33-3.09 5.49.98 2.3 2.45 4.5 4.13 6.36 4.56 5.07 9.43 9.86 14.03 14.9 10.07 11.03 12.05 23.63 6.69 37.38-1.27 3.25-2.97 6.52-5.18 9.19-13.09 15.79-14.16 33.28-7.46 51.76 1.89 5.2 4.76 10.07 7.43 14.96 3 5.5 6.32 10.81 9.4 16.27 1.15 2.04 2.15 4.18 2.94 6.38.9 2.53 1.81 5.29-.97 7.3-2.7 1.95-6.96 1.29-9.41-1.37-16.42-17.84-26.01-38.67-26.95-63.07-.45-11.74 2.63-22.81 7.95-33.24.69-1.35 2.01-2.38 3.05-3.55 8.88-10.04 10.2-19.92 3.09-31.31-3.69-5.92-8.59-11.13-13.25-16.37-4.26-4.79-8.54-9.46-10.26-15.85-.48-1.79-1.41-2.15-3.22-1.67-4.19 1.13-8.45 2-13.04 3.06 2.34 7.73 4.62 15.17 6.85 22.62 3.99 13.27 8.01 26.53 11.88 39.83.61 2.11.58 4.42.72 6.65.17 2.67-.89 4.73-3.67 5.19-2.6.43-5.16.83-6.98-2.27-4.87-8.28-7.87-17.22-10.41-26.42-2.34-8.47-5.27-16.77-7.95-25.14-.42.04-.83.07-1.25.11-.74 2.89-1.53 5.77-2.2 8.68-.7 3.05-1.39 6.11-1.92 9.19-4.18 24.28-5.13 48.71-3.39 73.26.55 7.8 1.49 15.57 1.88 23.38.15 2.95-.44 6.04-1.22 8.93-1.2 4.43-4.76 6.35-9.09 4.94-1.02-.33-1.99-1.94-2.29-3.14-2.99-11.78-4-23.81-4.15-35.92-.31-26 .7-51.97 4.84-77.65 1.44-8.93 4.98-17.61 8.28-26.13 2.4-6.18 2.72-11.84.25-18.01-2.13-5.25-3.45-10.81-5.16-16.4zm71.81-27.37c-.55-5.29-.9-10.19-1.62-15.03-.57-3.79-3.3-6.28-6.87-6.09-4.29.22-8.55 1-13.07 1.57.75 18.42-2.09 36.55 2.75 54.52 6.48-2.1 12.63-4.07 18.77-6.1.67-.22 1.5-.67 1.8-1.25 2.13-4.23-.36-9.96-4.9-11.47-3.6-1.2-7.23-2.3-10.79-3.6-1.58-.58-3.97-.97-3.34-3.37.55-2.09 1.61-4.25 3.03-5.85.88-.99 2.85-1.07 4.37-1.4 3.15-.67 6.33-1.24 9.87-1.93zm-63.34 7.71c8.89-1.96 17.17-3.76 25.42-5.64.73-.17 1.87-.9 1.89-1.41.24-5.2.62-10.43.26-15.61-.2-2.76-2.25-4.44-5.57-3.45-1.91.57-3.96.63-5.94.96-5.73.95-11.52 1.78-16.28 5.52-.89.7-2.14 1.88-2.05 2.72.56 5.5 1.44 10.97 2.27 16.91zm27.26 6.64c-7.97 2.42-15.47 4.7-23.1 7.02 2.38 7.22 4.64 14.06 7.01 21.25 5.95-1.84 11.68-3.58 17.37-5.43.55-.18 1.28-1.11 1.23-1.62-.75-6.93-1.62-13.85-2.51-21.22z"/><path d="m156.25 364.57c-.45.28-.53.37-.63.39-8.31 2.31-8.39 2.35-12.54-5.11-10.56-18.99-16.79-39.41-19.76-60.86-3.76-27.19-3.22-54.45-1.2-81.73 1.71-23.09 7.16-45.43 13.58-67.59 5.93-20.45 7.32-41.12 1.84-61.92-3.62-13.73-9.3-26.56-17.67-38.11-2.98-4.11-3.68-8.47-2-13.32.66-1.9 1.68-2.36 3.5-2.02 3.84.7 7.02 2.57 9 5.87 13.68 22.8 24.12 46.74 24.12 73.94 0 8.25-1.22 16.5-1.89 24.75-.11 1.33-.23 2.66-.4 4.57 5.75-2.58 11.21-4.76 16.37-7.51 1.51-.8 2.34-3.15 3.14-4.95 4.74-10.7 4.73-21.62 1.66-32.79-3.75-13.68-7.29-27.42-10.69-41.19-.82-3.33-1.12-6.89-.98-10.32.07-1.66 1.32-4.04 2.71-4.71 2.2-1.07 5.27-1.49 6.93 1.24 1.9 3.11 4.05 6.35 4.84 9.81 4.24 18.52 8.46 37.05 11.94 55.72 2.22 11.93-.13 23.79-6.85 33.75-2.94 4.36-9.22 6.74-14.34 9.29-5.07 2.52-10.61 4.1-15.93 6.12-2.13.81-3.12 2.33-3.77 4.63-7.56 26.72-10.99 54.09-12.95 81.67-1.44 20.35 1.43 40.36 5.43 60.29 3.86 19.22 9.24 37.97 15.41 56.54.38 1.17.74 2.33 1.13 3.55z"/><path d="m180.35 332.34c-2.54.24-4.86.65-7.17.57-.97-.04-2.15-.94-2.81-1.78-7-8.84-11.33-19.03-13.99-29.83-6.65-27.06-8.14-54.55-6.07-82.27.83-11.14 1.24-22.32 2.55-33.41.75-6.35 2.85-12.54 4.57-18.74.21-.76 1.91-1.65 2.84-1.56 3.57.34 6.04 2.45 6.87 5.92.62 2.57 1.07 5.31.91 7.93-.89 14.4-1.9 28.79-3.05 43.16-1.95 24.26.46 48.28 4.33 72.15 1.05 6.47 4.18 12.68 6.81 18.81 2.58 6.01 5.16 11.91 4.21 19.05z"/><path d="m108.47 332.35c-2.88.25-5.43.47-8.63.75-1.77-7.07-3.73-14.13-5.29-21.29-4.81-22.08-4.7-44.39-3.07-66.8 1.77-24.36 5.44-48.44 10.5-72.3 1.19-5.63 3.62-11.01 5.73-16.41.32-.82 2.03-1.66 3-1.56 4.09.43 6.87 3.52 6.5 8.34-.5 6.54-1.73 13.05-2.88 19.52-4.03 22.67-9.12 45.16-10.9 68.19-1.09 14.15-.14 28.11 2.69 42.03 2.2 10.82 4.68 21.69 3.26 32.9-.28 2.11-.58 4.21-.91 6.63z"/><path d="m125.2 108.76c-1.03 4.05-1.85 8.17-3.13 12.14-4.95 15.36-17.13 25-28.5 35.16-3.99 3.57-9.15 5.11-14.63 4.87-3.46-.15-5.49-2.76-4.41-6.05.63-1.91 1.81-3.9 3.3-5.23 5.93-5.28 12.13-10.25 18.12-15.45 15.27-13.24 18.9-26.79 10.85-45.4-2.51-5.81-4.9-11.76-6.44-17.88-.76-3 .42-6.54.95-9.8.35-2.19 2.17-2.66 3.79-1.73 1.87 1.08 4.12 2.4 4.95 4.19 6.08 13.16 12.48 26.25 14.09 40.95.15 1.33.21 2.67.32 4.01.25.09.5.15.74.22z"/></g><path d="m377.9 391.2c-.2.3-.4.5-.6.8-.7-.6-1.4-1-2.2-1.5.2-.3.4-.5.5-.8.6.4 1.4.8 2.3 1.5zm-1.8 6.1c-.2-.2-.5-.4-.9-.6.4-.6.8-1.2 1.2-1.9s.7-1.3.9-1.9c.3.3.5.5.8.7-.7 1.3-1.4 2.6-2 3.7zm2.2-9c-.3.3-.5.5-.6.8-.6-.6-1.3-1.1-2-1.5.3-.3.5-.5.6-.7.6.5 1.3.9 2 1.4zm.3.2v-.9h2 4.5c-.3 1.3-.6 2.5-1 3.6s-.9 2.1-1.4 3c.4.5 1 1 1.6 1.4s1.2.8 1.9 1.1c-.3.2-.5.4-.8.8-.4-.3-1-.7-1.6-1.2s-1.2-1.1-1.6-1.6c-.5.6-1.1 1.1-1.7 1.6s-1.4.9-2.1 1.4c-.1-.3-.3-.5-.7-.8.6-.2 1.2-.5 1.9-1s1.4-1.1 2-1.8c-.5-.8-.9-1.6-1.2-2.5s-.6-2-.8-3.2c-.4.1-.7.1-1 .1zm2.5 2.7c.3 1 .7 1.7 1 2.2.3-.5.6-1.1 1-2s.6-1.9.9-3h-3.2-.4c.1.9.3 1.8.7 2.8z" fill="#fcfbfa"/><path d="m396.5 388.5v1.5 3.6h1.5v.9c-.4 0-1 0-1.7 0h-7.9c-.5 0-.9 0-1.2 0v-.9h1.3v-3.5c0-.7 0-1.2 0-1.6h2.4c0-.8 0-1.4 0-1.7h1c0 .3-.1.8-.1 1.7h1.5c0-.8 0-1.4 0-1.7h1c0 .3-.1.9-.1 1.7zm-8.2 9.2c-.2-.3-.5-.5-.8-.8.8-.3 1.4-.6 1.9-.9s1-.7 1.4-1.1c.3.3.6.5.9.8-1.6 1-2.8 1.6-3.4 2zm2.6-6.8v-1.6h-1.5v1.6zm0 2.7v-1.9h-1.5v1.9zm2.4-2.7v-1.6h-1.5v1.6zm0 2.7v-1.9h-1.5v1.9zm.2 2 .7-.8c.4.2.9.5 1.6.8s1.3.7 1.8 1c-.3.3-.5.5-.8.8-.4-.3-1.5-1-3.3-1.8zm2-4.7v-1.6h-1.4v1.6zm0 2.7v-1.9h-1.4v1.9z" fill="#fcfbfa"/></svg>