<svg enable-background="new 0 0 400 400" viewBox="0 0 400 400" xmlns="http://www.w3.org/2000/svg"><g fill="#010103"><path d="m248.38 153.17c8.49 0 16.65-.15 24.79.07 3.76.1 7.58.62 11.22 1.56 1.88.49 3.8 2.01 5.04 3.58 2.44 3.09 1.7 5.85-1.95 7.23-3.29 1.24-4.33 3.17-4.5 6.65-.53 10.61-1.49 21.2-2.37 31.8-.62 7.51-7.32 13.23-14.85 13.02-5.51-.15-11.03-.03-16.64-.03-.51 8.38-.96 15.82-1.43 23.66h3.88c13.1 0 26.19.06 39.29-.04 3.58-.03 6.26 1.57 8.48 4.03 2.59 2.87 1.5 6.02-2.16 6.79-4.04.85-8.09 1.71-12.3 2.6 0 5.09.03 10.08-.01 15.07-.05 6.92.44 13.91-.37 20.75-1.51 12.71-9.2 19.22-22.07 19.87-3.46.18-6.9.65-10.35.91-2.82.22-3.87 1.4-3.84 4.47.17 15.33.09 30.67-.01 46-.01 2.32-.46 4.67-.96 6.94-.25 1.15-.86 2.37-1.67 3.22-2.84 3.02-7.44 2.02-8.84-1.85-3.01-8.37-3.23-17.07-3.17-25.83.39-56.07.6-112.14 1.24-168.21.16-13.72 1.48-27.45 2.75-41.13.4-4.36 2.36-8.57 3.63-12.84.13-.42.27-1.02.58-1.18 4.95-2.47 9.72-5.98 14.97-7.02 6.02-1.2 12.48-.36 18.74-.12 5.13.19 9.75 1.58 11.92 7.02.89 2.23.87 4.05-1.9 4.51-4.69.78-9.4 1.5-14.13 1.97-4.96.5-9.98.5-14.94 1.08-2.59.3-4.11 1.93-4.52 4.9-.91 6.77-2.29 13.45-3.55 20.55zm.13 100.19v43.24c4.95-.23 9.77-.08 14.46-.76 6.21-.9 6.63-1.72 6.93-7.85.06-1.23.19-2.45.24-3.68.42-9.59.83-19.18 1.26-29.15-7.74-.61-15.16-1.2-22.89-1.8zm-.03-48.68c5.2-.57 10.05-.89 14.82-1.71 3.27-.56 5.35-2.54 4.76-6.37-.2-1.3.11-2.68.11-4.02.01-8.24.01-16.48.01-24.98-6.48-.32-13-.65-19.69-.98-.01 12.59-.01 24.75-.01 38.06z"/><path d="m160.23 139.14c9.44-1.02 13.71-7.48 16.85-15.07 2.82-6.82 3.42-13.96 1.6-21.06-2.88-11.24-6.19-22.37-9.31-33.55-.69-2.47-1.59-4.91-1.98-7.43-.29-1.82-.13-3.8.25-5.63.67-3.18 3.25-4.74 6.11-4.79 1.32-.02 3.08 1.71 3.96 3.08 5.65 8.76 8.6 18.61 11.03 28.63 2.83 11.65 5.76 23.43 4.42 35.43-.74 6.61-3.82 12.96-5.96 19.39-.25.74-1.2 1.28-1.9 1.81-2.24 1.67-4.61 3.19-6.77 4.95-5.7 4.65-11.91 8.22-19.12 10.01-1.15.29-2.78 1.55-2.94 2.56-2.65 16.66-5.5 33.3-7.47 50.05-2.05 17.44-.02 34.86 2.13 52.19 1.13 9.1 1.97 18.3 4.05 27.19 2.26 9.64 5.71 19.01 8.83 28.44 4.46 13.47 9.23 26.83 13.56 40.34 1.42 4.42 2.03 9.13 2.69 13.75.35 2.44.23 5.09-2.92 5.99-2.55.73-6.95-.89-8.07-3.34-4.43-9.62-9.54-19.04-12.82-29.06-5.2-15.9-9.63-32.09-13.44-48.38-3.2-13.67-5.47-27.6-7.36-41.53-2.01-14.74-2.59-29.6-1.74-44.53.78-13.71 3.93-26.96 6.53-40.34 2.43-12.5 4.93-25 7.17-37.54 3.27-18.31-.52-35.81-6.65-52.96-3.25-9.08-7.68-17.55-13.05-25.61-2.39-3.59-3.56-8.07-4.79-12.3-.8-2.76 1.85-4.93 4.78-4.43 4.75.8 8.22 3.58 10.59 7.54 10.32 17.27 19.36 35.26 21.97 55.38 1.44 11.09.22 22.52.16 33.79-.02 2.36-.25 4.69-.39 7.03z"/><path d="m219.72 157.84c.38 12.97.8 25.94 1.09 38.92.05 2.2-.03 4.61-.87 6.57-.76 1.77-2.4 3.54-4.11 4.43-3.2 1.65-5.17.92-6.14-2.48-1.54-5.44-3.41-11.04-3.5-16.61-.42-24.05-.45-48.11-.21-72.17.14-14.57 4.14-28.42 11.57-40.85 2.41-4.04 7.48-7.16 12.01-9.1 6.07-2.59 12.74-3.9 19.27-5.21 5.23-1.05 6.05-1.24 6.08-6.68.02-3.88-.52-7.79-1.04-11.65-.78-5.81-.68-11.37 3.1-16.32 1.14-1.5 2.23-1.85 3.97-1.06 4.11 1.87 5.76 5.23 5.63 9.45-.14 4.69-.7 9.36-.97 14.05-.65 11.33-.56 12.7 10.51 14.65 18.99 3.35 27.33 16.46 33.21 32.59 3.14 8.61 4.04 17.61 4.7 26.66 1 13.61 2.61 27.19 3.08 40.82.41 11.83-.41 23.71-.69 35.56-.02.67-.07 1.34-.09 2.01-.15 5.08-.2 4.88-5.04 6.18-2.97.79-4.49-.14-5.13-2.87-.59-2.49-1.27-5-1.4-7.53-1.41-26.81-2.3-53.65-4.22-80.42-1.07-14.94-6.81-28.23-19.38-37.57-1.51-1.12-3.55-1.83-5.44-2.11-5.08-.76-10.25-1.83-15.33-1.57-7.42.37-14.77 1.89-22.17 2.73-3.17.36-5.16 1.96-6.98 4.45-9.68 13.22-13.14 28.12-12.73 44.26.26 10.28.05 20.58.05 30.87.38.01.77 0 1.17 0z"/><path d="m100.17 234.65c-.38-22.39 3.1-44.07 12.22-64.68 1.18-2.66 2.43-5.58 5.84-5.46 3.76.13 6.86 3.7 7.03 7.77.08 1.96-.24 4.04-.87 5.9-7.24 21.17-10.02 43.15-10.1 65.3-.05 13.43 2.32 26.9 4.06 40.29 1.69 13.06 3.63 26.12 8.85 38.41.81 1.91.84 4.15 1.34 6.21.78 3.26-.4 5.36-3.52 6.49-2.57.93-6.01.07-7.25-2.53-2.81-5.92-5.95-11.82-7.69-18.08-6.99-25.14-9.43-50.92-9.9-76.94-.03-.89-.01-1.79-.01-2.68z"/><path d="m163.6 219.84c-.06-14.47 1.16-28.8 4.82-42.86.33-1.28.57-2.74 1.35-3.72 1.39-1.75 2.67-3.81 5.75-2.68 3.58 1.32 5.74 3.13 5.65 6.57-.18 6.93-.73 13.84-1.06 20.77-.61 12.95-2.01 25.93-1.49 38.84.44 10.97 3.35 21.82 4.71 32.79 1.54 12.44 5.65 24.06 9.98 35.7 1.65 4.44 2.06 9.34 3.15 14 .8 3.42-1.52 4.76-3.93 5.58-2.56.88-4.76-.21-6.18-2.64-5.91-10.09-10.21-20.88-13.24-32.12-6.47-24.08-9.17-44.89-9.51-70.23z"/><path d="m75.86 168.24c0-2.53.15-4.56-.04-6.55-.23-2.46.66-4.09 2.52-5.76 7.72-6.96 15.9-13.56 22.73-21.34 11.59-13.21 13.5-27.05 5.58-42.77-2.53-5.03-4.82-10.33-6.13-15.76-.74-3.1.61-6.76 1.33-10.1.14-.66 1.96-1.63 2.6-1.38 2.13.81 4.84 1.59 5.97 3.29 8.75 13.16 15.54 27.19 16.17 43.37.26 6.83-1.99 13.07-5.29 19.13-6.6 12.1-16.18 21.61-25.97 30.96-4.29 4.1-9.44 6.78-15.54 7.11-1.18.06-2.38-.12-3.93-.2z"/></g><path d="m377.9 391.2c-.2.3-.4.5-.6.8-.7-.6-1.4-1-2.2-1.5.2-.3.4-.5.5-.8.6.4 1.4.8 2.3 1.5zm-1.8 6.1c-.2-.2-.5-.4-.9-.6.4-.6.8-1.2 1.2-1.9s.7-1.3.9-1.9c.3.3.5.5.8.7-.7 1.3-1.4 2.6-2 3.7zm2.2-9c-.3.3-.5.5-.6.8-.6-.6-1.3-1.1-2-1.5.3-.3.5-.5.6-.7.6.5 1.3.9 2 1.4zm.3.2v-.9h2 4.5c-.3 1.3-.6 2.5-1 3.6s-.9 2.1-1.4 3c.4.5 1 1 1.6 1.4s1.2.8 1.9 1.1c-.3.2-.5.4-.8.8-.4-.3-1-.7-1.6-1.2s-1.2-1.1-1.6-1.6c-.5.6-1.1 1.1-1.7 1.6s-1.4.9-2.1 1.4c-.1-.3-.3-.5-.7-.8.6-.2 1.2-.5 1.9-1s1.4-1.1 2-1.8c-.5-.8-.9-1.6-1.2-2.5s-.6-2-.8-3.2c-.4.1-.7.1-1 .1zm2.5 2.7c.3 1 .7 1.7 1 2.2.3-.5.6-1.1 1-2s.6-1.9.9-3h-3.2-.4c.1.9.3 1.8.7 2.8z" fill="#fcfbfa"/><path d="m396.5 388.5v1.5 3.6h1.5v.9c-.4 0-1 0-1.7 0h-7.9c-.5 0-.9 0-1.2 0v-.9h1.3v-3.5c0-.7 0-1.2 0-1.6h2.4c0-.8 0-1.4 0-1.7h1c0 .3-.1.8-.1 1.7h1.5c0-.8 0-1.4 0-1.7h1c0 .3-.1.9-.1 1.7zm-8.2 9.2c-.2-.3-.5-.5-.8-.8.8-.3 1.4-.6 1.9-.9s1-.7 1.4-1.1c.3.3.6.5.9.8-1.6 1-2.8 1.6-3.4 2zm2.6-6.8v-1.6h-1.5v1.6zm0 2.7v-1.9h-1.5v1.9zm2.4-2.7v-1.6h-1.5v1.6zm0 2.7v-1.9h-1.5v1.9zm.2 2 .7-.8c.4.2.9.5 1.6.8s1.3.7 1.8 1c-.3.3-.5.5-.8.8-.4-.3-1.5-1-3.3-1.8zm2-4.7v-1.6h-1.4v1.6zm0 2.7v-1.9h-1.4v1.9z" fill="#fcfbfa"/></svg>