<svg enable-background="new 0 0 400 400" viewBox="0 0 400 400" xmlns="http://www.w3.org/2000/svg"><g fill="#010103"><path d="m141.7 207.71c.99 30.46 3.47 59.07 8.4 87.45 3.08 17.68 10.2 33.96 17.19 50.3 2.72 6.36 5.07 12.89 7.4 19.41 1.94 5.44 0 8.96-5.22 9.55-1.14.13-2.8-.56-3.56-1.45-6.31-7.29-10.32-15.87-13.63-24.84-11.5-31.16-19.36-63.22-23.99-96.09-2.86-20.28-3.05-40.53-.68-60.9 2.88-24.66 5.61-49.36 7.59-74.1 1.35-16.86-2.51-33.14-8.97-48.73-2.35-5.67-5.13-11.16-7.64-16.76-.91-2.03-1.81-4.1-2.38-6.24-.71-2.65 1.24-7.55 3.84-8.26 1.53-.42 4.26.71 5.36 2.04 3.45 4.16 6.78 8.53 9.46 13.22 11.57 20.23 15.01 42.37 14.52 65.3-.12 5.35-1.05 10.68-1.51 16.03-.22 2.56-.37 5.14-.27 7.7.1 2.53 1.28 4.63 3.96 5.16 2.74.54 5.5.9 7.54-1.95 4.58-6.38 6.81-13.55 7.21-21.29.7-13.54-2.45-26.67-4.34-39.94-1.28-8.94-2.7-17.87-3.47-26.85-.41-4.78 1.96-7.02 5.85-6.7 1.23.1 2.72.91 3.5 1.87 4.33 5.37 5.2 12 6.28 18.5 1.85 11.13 3.79 22.26 5.3 33.44 2.11 15.6 2.12 31.02-5.42 45.54-4.08 7.84-10.32 11.44-19.03 10.65-.56-.05-1.11-.11-1.67-.11-6.21-.09-7.37.69-8.11 6.7-1.78 14.3-5.18 28.47-3.51 41.35z"/><path d="m242.91 261.17c-4.19.64-8.02 1.41-11.89 1.76-4.22.38-8.48.62-12.71.48-7.7-.27-12.99-4.86-17.52-10.52-6.93-8.65-10.79-18.78-13.41-29.36-3.83-15.45-6.22-31.14-6.19-47.11.01-3.79.33-7.6.67-11.38.59-6.68.88-6.96 8.49-9.22 1.8 4.53 3.83 9.07 5.41 13.77 2.14 6.39 1.98 6.43 8.34 4.33 6.26-2.07 12.51-4.15 18.79-6.15 1.48-.47 3.03-.82 4.58-.98 6.3-.64 9.12 2.21 8.13 8.43-.18 1.14-1.27 2.7-2.29 3.06-7.88 2.78-15.74 5.73-23.81 7.79-8.48 2.16-11.84 5.49-11.02 14.27 1.08 11.67.19 10.64 11.75 10.96 2.76.08 5.55-.78 8.33-.84 6.65-.13 13.31-.04 20.34-.04 1.65-6.66 2.32-13.87 1.72-21.12-.69-8.35-1.87-16.66-2.71-25-1.06-10.58-.45-20.98 3.55-31.02.81-2.03 1.72-2.49 3.73-1.83 4.51 1.46 6.73 4.52 6.92 9.92 1.21 34.54 2.45 69.08 3.62 103.62.49 14.56 1.73 28.93 5.88 43.05 5.28 17.94 15.84 32.15 29.44 44.39 5.57 5.01 11.5 9.61 17.25 14.42 4.83 4.04 8.76 8.67 9.67 15.19.54 3.84-.71 5.49-4.49 4.66-3.27-.72-6.83-2.02-9.3-4.16-10.56-9.16-20.81-18.7-31.1-28.17-8.14-7.49-14.69-16.29-19.92-25.98-1.82-3.38-2.49-7.38-3.76-11.07-3.65-10.6-6.83-21.28-6.17-32.7.06-.97-.17-1.97-.32-3.45zm-39.66-36.06c1.98 5.21 3.8 10.42 5.92 15.49 1.97 4.72 5.46 8.09 10.71 8.43 5.96.38 11.97.19 17.96.07 2.93-.06 3.99-1.69 3.35-4.67-.42-1.94-.23-4.01-.36-6.01-.41-6.4-.83-12.79-1.29-19.9-11.31 7.34-23.95 3.15-36.29 6.59z"/><path d="m232.11 71.84c-4.25 1.51-7.95 3.23-11.25 6.43-6.88 6.69-14.07 13.14-21.68 18.98-3.48 2.67-8.15 4.01-12.48 5.27-3.59 1.05-5.34-.39-4.92-4.11.31-2.8 1.34-6.19 3.27-8.02 9.35-8.83 18.9-17.48 28.83-25.65 4.07-3.35 9.24-5.36 13.96-7.9 5.89-3.17 7.35-6.08 6.16-12.7-.22-1.21-.57-2.39-.87-3.58-1.52-6.19-.06-10.86 4.79-15.4 6.59 3.18 8.47 7.17 7.21 14.36-.57 3.27-.75 6.65-.74 9.97.01 2.4 1.24 4.02 3.96 4.59 15.69 3.27 29.43 10.97 42.9 19.21 5.93 3.63 10.79 8.25 13.08 15.15 1.03 3.1.07 4.6-2.88 5.37-7 1.83-12.5-1.36-17.43-5.57-8.07-6.89-16.78-12.67-26.71-16.41-3.61-1.36-7.47-2.06-11.67-3.18-.25 10.16-.52 19.64-.62 29.13-.01.68 1.22 1.68 2.08 2.01 4.05 1.6 8.17 3.02 12.27 4.49 16.65 6 30.25 16.68 43.27 28.22 1.14 1.01 2.26 2.34 2.74 3.74.65 1.91 1.64 5 .77 5.85-1.43 1.41-4.64 2.49-6.36 1.82-4.38-1.71-8.84-3.89-12.38-6.92-8.54-7.32-17.36-14.2-27.68-18.7-5.04-2.2-10.59-3.72-16.05-4.34-8.35-.95-15.62 2.25-21.79 8.01-6.62 6.18-13.12 12.52-20.13 18.23-3.19 2.6-7.43 3.92-11.26 5.68-1.85.85-3.09.07-3.89-1.87-1.51-3.66-.99-7.38 1.82-10.21 7.17-7.23 14.26-14.55 21.67-21.52 2.2-2.07 5.31-3.19 8.07-4.64 2.97-1.55 5.89-3.33 9.04-4.37 4.14-1.36 5.13-3.93 4.97-8-.28-7.69-.07-15.39-.07-23.42z"/><path d="m298.54 186.05c-7.07-.6-14.4-1.16-21.72-1.9-2.19-.22-4.43-.7-6.48-1.5-3.05-1.19-4.55-3.69-4.01-6.94.19-1.15 1.2-2.61 2.23-3.11 5.23-2.54 10.8-2.37 16.41-1.52 2.87.43 5.76.72 8.65.99 3.24.3 5.07-1.37 5.68-4.42.5-2.52.84-5.07 1.24-7.6.64-4.03 2.67-7.25 5.6-10.08 4.81 2.32 7.19 6.3 7.32 11.26.28 10.61.3 21.24.12 31.86-.23 13.76-.76 27.55-4.24 40.96-1.65 6.35-3.33 12.91-6.4 18.63-3.44 6.42-10.07 9.33-17.27 10.09-6.43.69-12.66-.56-18.78-2.67-3.86-1.33-2.09-4.73-2.81-7.14-.18-.61 1.73-2.56 2.84-2.72 3.37-.46 6.87-.75 10.24-.38 9.24 1.03 14.7-1.93 17.14-10.11 1.02-3.41 1.6-6.96 2.32-10.46.29-1.41.41-2.85.7-4.89-5.9 0-11.55-.01-17.21 0-3.57.01-7.17.35-10.69-.03-2.1-.23-4.6-1.06-5.99-2.51-1.73-1.81-2.88-4.45-3.4-6.92-.12-.56 3.27-2.51 5.17-2.75 5.62-.68 11.3-.87 16.95-1.17 4.34-.23 8.7-.24 13.03-.51 2.35-.14 3.45-1.45 3.4-4-.13-6.58-.04-13.17-.04-20.46z"/><path d="m127.43 345.08c-2.89.66-4.85 1.06-6.77 1.57-1.78.47-2.82-.11-3.78-1.73-4.98-8.41-7.43-17.66-9.29-27.13-5.61-28.46-10.01-57.1-9.59-86.19.16-11.37 1.86-22.72 2.77-34.09.43-5.46.24-11 1.08-16.39.7-4.45 2.33-8.78 3.91-13.04.56-1.51 1-3.96 3.81-3.3 2.85.68 5.59 1.69 5.99 4.99.34 2.86.17 5.79.08 8.68-.74 24.92-3.74 49.81-1.83 74.77 1.94 25.43 5.09 50.69 12.19 75.34 1.49 5.21 1 10.97 1.43 16.52z"/><path d="m157.78 168.21c7.18.43 9.47 3.42 9.67 12.23.5 21.92.83 43.85 1.65 65.76.19 5.04 1.96 10.05 3.16 15.03 2.76 11.52 5.84 22.97 8.36 34.54 1.57 7.23 4.84 13.59 8.15 20.07 2.09 4.11 3.49 8.64 4.64 13.13.68 2.62.09 5.68-3.08 6.63-2.78.82-5.3.11-7.39-2.42-8.71-10.56-14.83-22.54-17.62-35.79-3.88-18.47-7.35-37.08-9.77-55.79-2-15.5-2.34-31.22-3.15-46.86-.46-9.19 1.27-18.04 5.38-26.53z"/><path d="m76.15 162.66c.43-5.12 1.24-9.64 5.6-13.34 5.69-4.83 10.81-10.36 15.91-15.84 8.21-8.81 10.47-19.38 7.57-30.82-1.88-7.44-4.8-14.62-7.24-21.92-1.86-5.57-3.28-11.19-1.37-17.05 1.11-3.43 2.27-4.01 5.33-2.24 1.57.91 3.29 2.24 4.03 3.81 5.91 12.49 12.78 24.71 14.21 38.78 1.3 12.82-.62 24.96-9.32 35.22-4.99 5.88-9.79 11.94-15.05 17.57-4.69 5.02-10.42 8.09-17.69 6.54-.62-.14-1.22-.44-1.98-.71z"/></g><path d="m377.9 391.2c-.2.3-.4.5-.6.8-.7-.6-1.4-1-2.2-1.5.2-.3.4-.5.5-.8.6.4 1.4.8 2.3 1.5zm-1.8 6.1c-.2-.2-.5-.4-.9-.6.4-.6.8-1.2 1.2-1.9s.7-1.3.9-1.9c.3.3.5.5.8.7-.7 1.3-1.4 2.6-2 3.7zm2.2-9c-.3.3-.5.5-.6.8-.6-.6-1.3-1.1-2-1.5.3-.3.5-.5.6-.7.6.5 1.3.9 2 1.4zm.3.2v-.9h2 4.5c-.3 1.3-.6 2.5-1 3.6s-.9 2.1-1.4 3c.4.5 1 1 1.6 1.4s1.2.8 1.9 1.1c-.3.2-.5.4-.8.8-.4-.3-1-.7-1.6-1.2s-1.2-1.1-1.6-1.6c-.5.6-1.1 1.1-1.7 1.6s-1.4.9-2.1 1.4c-.1-.3-.3-.5-.7-.8.6-.2 1.2-.5 1.9-1s1.4-1.1 2-1.8c-.5-.8-.9-1.6-1.2-2.5s-.6-2-.8-3.2c-.4.1-.7.1-1 .1zm2.5 2.7c.3 1 .7 1.7 1 2.2.3-.5.6-1.1 1-2s.6-1.9.9-3h-3.2-.4c.1.9.3 1.8.7 2.8z" fill="#fcfbfa"/><path d="m396.5 388.5v1.5 3.6h1.5v.9c-.4 0-1 0-1.7 0h-7.9c-.5 0-.9 0-1.2 0v-.9h1.3v-3.5c0-.7 0-1.2 0-1.6h2.4c0-.8 0-1.4 0-1.7h1c0 .3-.1.8-.1 1.7h1.5c0-.8 0-1.4 0-1.7h1c0 .3-.1.9-.1 1.7zm-8.2 9.2c-.2-.3-.5-.5-.8-.8.8-.3 1.4-.6 1.9-.9s1-.7 1.4-1.1c.3.3.6.5.9.8-1.6 1-2.8 1.6-3.4 2zm2.6-6.8v-1.6h-1.5v1.6zm0 2.7v-1.9h-1.5v1.9zm2.4-2.7v-1.6h-1.5v1.6zm0 2.7v-1.9h-1.5v1.9zm.2 2 .7-.8c.4.2.9.5 1.6.8s1.3.7 1.8 1c-.3.3-.5.5-.8.8-.4-.3-1.5-1-3.3-1.8zm2-4.7v-1.6h-1.4v1.6zm0 2.7v-1.9h-1.4v1.9z" fill="#fcfbfa"/></svg>