<svg enable-background="new 0 0 400 400" viewBox="0 0 400 400" xmlns="http://www.w3.org/2000/svg"><g fill="#010103"><path d="m258.13 236.59c10.52 1.06 21.08 1.83 31.56 3.25 11.51 1.56 18.2 9.21 22.47 19.37 3.77 8.96 4.36 18.43 4.28 27.99-.11 12.49-1.15 24.89-6.42 36.39-2.57 5.6-6.62 10.24-12.69 12.72-7.97 3.26-16.29 4.79-24.8 5.38-13.32.92-26.52.26-39.77-1.93-14.63-2.42-22.56-11.46-27.48-24.4-3.95-10.39-4.83-21.23-3.76-32.06.96-9.63 3.18-19.14 5.03-28.66.27-1.39 1.28-2.84 2.35-3.85 9.26-8.71 20.62-12.24 33.02-12.84 5.36-.26 10.73-.04 16.1-.04.04-.44.08-.88.11-1.32zm-40.04 59.08c-1.18 7.28-.77 14.11 2.61 20.46 1.23 2.31 2.72 5.14 4.85 6.2 7.81 3.86 16.13 5.86 24.97 4.16 1.92-.37 2.78-1.18 2.7-3.33-.3-7.82-.39-15.64-.6-23.46-.02-.95-.24-1.9-.39-2.98-11.55-.36-22.79-.7-34.14-1.05zm50.2 31.27c3.29-.15 6.83-.18 10.34-.5 6.96-.64 13.27-2.94 18.38-7.91.75-.73 1.6-1.73 1.7-2.68.69-6.61 1.2-13.24 1.77-19.92-10.77 0-21.19 0-32.18 0-.01 10.34-.01 20.44-.01 31.01zm-15.13-47.39c0-8.9.06-16.81-.1-24.72-.01-.69-1.45-1.84-2.32-1.93-7.5-.79-14.98-.54-22.16 1.93-2.78.96-6.53 2.12-7.64 4.3-2.85 5.62-5.01 11.78-3.49 18.37.18.8 1.31 1.96 2.02 1.97 10.92.11 21.85.08 33.69.08zm48.06-.45c0-1.78.08-2.89-.01-3.98-.54-6.28-.83-12.96-6.21-17.14-7.99-6.22-17.61-5.76-27.37-5.62.36 9.34.71 18.12 1.04 26.75 10.92-.01 21.5-.01 32.55-.01z"/><path d="m181.86 114.13c-1.11 7.35-2.07 14.65-3.34 21.89-2.14 12.22-10.92 18.15-21.61 21.92-3.01 1.06-6.39 1.04-9.52 1.82-.98.25-2.31 1.39-2.48 2.31-3.65 19.45-7.92 38.89-7.58 58.8.28 15.97 1.32 31.95 2.5 47.88 1.75 23.77 10.91 45.78 16.81 68.57 2.1 8.11 4.61 16.12 6.48 24.27.65 2.83.35 6.08-.35 8.94-.42 1.7-2.21 3.64-3.85 4.31-2.22.9-4.7.55-6.49-1.91-6.66-9.14-10.48-19.56-12.78-30.39-5.07-23.82-9.6-47.76-14.3-71.66-5.14-26.1-4.53-52.24-.95-78.48 3.68-27.03 6.99-54.12 10.27-81.2 1.88-15.56-1.88-30.2-8.22-44.28-2.2-4.89-4.93-9.55-6.97-14.5-1.77-4.31-3.16-8.81-4.24-13.35-.95-3.98 2.76-7.14 6.35-5.23 2.8 1.49 5.87 3.81 7.18 6.54 8.25 17.2 17.11 34.2 19.17 53.69 1.08 10.22.55 20.31-.71 30.44-.68 5.44-1.08 10.91-1.81 16.34-.36 2.66.89 3.69 3.13 3.4 4.71-.61 9.19-1.8 12.28-5.96 6.69-9 7.98-19.23 5.77-29.72-2.39-11.33-5.9-22.43-8.78-33.66-1.1-4.31-2.01-8.7-2.61-13.11-.53-3.88 2.32-7.04 6.26-7.17.98-.03 2.29.72 2.96 1.53 7.02 8.46 11.06 18.42 13.19 29.02 1.9 9.5 2.85 19.2 4.24 28.95z"/><path d="m244.88 66.16c.17-6.75.57-13.55.46-20.34-.11-7.41.3-14.56 5.44-20.52 6.09 2.69 8.94 8.83 7.92 16.41-.83 6.18-1.77 12.39-1.85 18.6-.07 5.51.42 5.77 6 5.68 13.84-.23 26.45 5.13 39.47 8.55 2.11.56 3.8 3.3 5.37 5.28 5.13 6.5 6.31 14.41 7.68 22.24 6.06 34.6 6.51 69.44 4.64 104.39-.2 3.68-.9 7.33-1.22 11-.18 2-1.01 2.79-3.04 3.18-7.31 1.41-7.61 1.4-9.28-5.95-.61-2.7-.82-5.54-.88-8.32-.52-24.5-.9-49-1.48-73.5-.22-9.15-.24-18.37-1.45-27.42-2.31-17.17-12.04-22.91-27.1-23.79-18.57-1.08-37.15-.33-55.18 5.08-1.38.41-2.95 1.59-3.6 2.84-5.9 11.42-9.01 23.77-9.26 36.46-.47 23.82.01 47.65.04 71.48.01 5.14.01 10.3-.38 15.42-.44 5.87-3.62 9.1-8.43 8.86-1.04-.05-2.48-.95-2.98-1.86-2.73-5.06-3.27-10.63-3.21-16.27.22-21.48.52-42.97.72-64.45.17-18.69 2.59-37.02 8.73-54.73.58-1.68 1.7-3.39 3.03-4.57 10.25-9.17 22.64-12.63 36.07-13.17.89-.04 1.78-.14 2.67-.22.12.01.23-.05 1.1-.36z"/><path d="m240.74 143.27c2.3.45 5.02.99 8.32 1.64.41-3.26 1.1-6.3 1.12-9.35.05-7.94-.06-15.88-.34-23.81-.36-10.13 3.72-17.78 12.09-21.68 1.42-.66 3.19-.92 4.77-.83 4.35.23 8.68.81 13.03 1.11 2.14.14 3.56.9 4.14 3.08 1.02 3.82 3.03 6.4 7.38 7.01 2.76.39 3.4 2.64 2.37 6.21-2.67 9.34-5.39 18.68-8.07 28.02-.95 3.32-1.85 6.65-3.04 10.98 3.99.25 7.56.68 11.13.61 2.29-.05 5.07-.75 5.91 1.71.93 2.71.91 5.85.72 8.77-.05.71-2.31 1.61-3.66 1.84-5.93 1.04-11.9 1.89-17.86 2.75-3.87.56-7.76.96-11.63 1.54-2.14.32-3.1 1.46-3.12 3.88-.18 17-.49 34.01-.89 51.01-.06 2.64-.61 5.31-1.19 7.9-.63 2.79-2.57 4.12-5.45 3.82-2.72-.28-4.96-.71-5.82-4.23-2.22-9.03-2.31-18.12-2.19-27.32.15-11.18-.17-22.36-.2-33.54-.01-2.09-.74-3.19-2.87-3.15-6.46.11-12.92.21-19.37.36-1.9.04-3.8.4-5.68.27-6.15-.44-9.75-4.94-8.77-11.03.14-.84 1.09-1.89 1.91-2.21 2.7-1.06 5.46-2.08 8.29-2.64 3-.59 3.99-2.36 3.52-4.98-1.12-6.13-2.38-12.24-3.75-18.32-.91-4.02-2.37-7.93-3.15-11.97-1.1-5.73 1.54-10.34 6.46-12.2 1.86-.71 3.19-.6 4.56 1.21 4.52 5.97 6.82 12.81 8.02 20.03 1.25 7.58 2.16 15.23 3.31 23.51zm31.23.62c-.34-2.18-.65-3.92-.87-5.67-.92-7.38 1.06-14.08 4.47-20.57 2.61-4.98 4.68-10.22 5.02-16.38-4.16.78-7.84 1.67-11.58 2.12-2.48.3-3.35 1.15-3.33 3.74.06 5.91-.33 11.83-.4 17.74-.08 6.55-.02 13.1-.02 19.9 2.16-.29 4.23-.56 6.71-.88z"/><path d="m90.09 245.75c.03-24.33 3.67-48.16 9.34-71.7.39-1.62 2.65-3.63 4.31-3.92 2.76-.49 5.38 1.16 6.23 4.02.75 2.52 1.29 5.32 1.04 7.9-1.91 19.81-4.33 39.58-5.95 59.41-.57 7.03.31 14.25 1.1 21.32 1.74 15.55 3.41 31.14 5.98 46.56 1.38 8.3 4.32 16.38 7 24.41 2.5 7.49 4.68 14.89 3.58 22.94-.37 2.71-1.09 4.44-4.16 4.39-.98-.02-2.04.18-2.95.56-2.19.91-3.13-.21-4.16-1.95-4.42-7.44-6.32-15.68-8.2-23.98-2.29-10.12-5.21-20.11-7.19-30.29-1.85-9.53-3.15-19.2-4.09-28.87-.99-10.23-1.28-20.53-1.88-30.8z"/><path d="m153.95 226.57c1.23-9.59 3.27-25.53 5.33-41.47.33-2.55.91-5.08 1.03-7.63.16-3.32 1.93-5.17 4.91-5.85 2.77-.64 6.62 1.54 7.61 4.37.6 1.74.87 3.74.72 5.57-1.61 18.6-3.57 37.17-4.94 55.79-.98 13.27 1.1 26.4 4.83 39.08 4.31 14.65 9.52 29.03 14.27 43.55 1.25 3.81 2.39 7.67 3.26 11.58.83 3.74-.27 5.56-3.51 6.87-2.39.96-5.56-.19-6.99-3.04-4.39-8.77-9.25-17.39-12.72-26.53-9.29-24.36-13.26-49.79-13.8-82.29z"/><path d="m113.58 121.96c-.06 6.5-1.49 12.65-4.71 18.32-6.09 10.72-13.03 20.85-20.92 30.34-3.94 4.74-8.22 6.17-12.96 4.12-.67-.29-1.77-1.02-1.7-1.34.8-3.79-.35-7.81 2.86-11.33 6.31-6.91 12.57-14 17.86-21.69 5.77-8.4 6.9-18.09 3.87-27.95-3.14-10.25-6.88-20.34-9.68-30.67-1.22-4.51-1.32-9.51-.92-14.21.39-4.66 2.7-5.31 6.53-2.44 1.4 1.05 2.95 2.34 3.61 3.88 7.23 16.86 13.79 33.94 16.13 52.3.02.22.02.45.03.67z"/><path d="m215.52 211.96c.65-13.55 3.25-26.65 7.11-39.54 1.12-3.74 2.72-4.34 6.37-3.6 4.27.86 6.4 3.02 6.14 7.45-.37 6.34-.23 12.75-1.08 19.02-1.4 10.28-3.38 20.48-5.2 30.7-.59 3.29-3.39 5.9-5.94 5.87-2.75-.04-5.03-2.29-5.6-5.97-.73-4.63-1.21-9.29-1.8-13.93z"/><path d="m277.86 168.23c.11-.01.22-.03.33-.03 6.67.02 9.35 3.84 10.5 10 2.83 15.12 4.07 30.3 3.35 45.67-.14 3.06-1.63 4.84-4.52 5.26-3.38.49-5.66-.95-6.55-3.99-4.01-13.78-6.87-27.79-6.46-42.2.14-4.92 1.47-9.81 2.25-14.71z"/></g><path d="m385.2 377.6.6-.7c.6.4 1.3.9 1.9 1.5l-.6.7c-.8-.5-1.4-1-1.9-1.5zm.3 7.1c.6-1.4 1.1-2.9 1.5-4.5.3.1.6.3.9.4-.5 1.4-1 2.9-1.5 4.4zm.2-10.1.6-.6c.7.5 1.3 1.1 1.9 1.6l-.7.7c-.6-.6-1.2-1.2-1.8-1.7zm8.4-.8h.8v.9h1.8v.7h-1.8v1.8h-.8v-.3h-1.2v.9h3.3v2.6h-.8v-.4h-2.5c0 .3 0 .6-.1.8h3.4v.7h-3.5c0 .3-.1.6-.1.8h4v.7h-3.5c.7.9 1.9 1.3 3.6 1.5-.2.2-.4.5-.6.9-1.9-.3-3.2-1.1-3.8-2.3-.5 1.1-1.8 2-3.9 2.4-.2-.3-.4-.5-.6-.8 1.9-.4 3.1-.9 3.6-1.7h-3.2v-.7h3.5c.1-.2.1-.5.2-.8h-3.3v-.7h3.4c0-.2 0-.5 0-.8h-2.4v.3h-.8v-2.6h3.3v-.9h-1.2v.3h-.8v-1.8h-1.8v-.7h1.8v-.9h.8v.9h3.2zm-4.4 5.5h2.4c0-.3 0-.6 0-.9h-2.4zm1.2-3.1h3.2v-.8h-3.2zm4.4 2.2h-2.4v.9h2.5v-.9z" fill="#fcfbfa"/><path d="m389.2 385.8h.9v1.5h1.9v-1.5h.9v1.5h2.7v6h1.1v.9h-11.3v-.9h1.1v-6h2.7zm.2 8.7.5.8c-1.2.6-2.5 1.3-4 1.9-.2-.3-.3-.6-.6-.8 1.6-.6 3-1.3 4.1-1.9zm-2-4.3h1.9v-2.1h-1.9zm0 3.1h1.9v-2.2h-1.9zm2.7-3.1h1.9v-2.1h-1.9zm0 3.1h1.9v-2.2h-1.9zm2.4 1.3c1.4.6 2.7 1.2 4.1 1.8l-.5.9c-1.5-.7-2.8-1.4-4.1-1.9zm2.2-6.5h-1.9v2.1h1.9zm-1.9 5.2h1.9v-2.2h-1.9z" fill="#fcfbfa"/></svg>