<svg enable-background="new 0 0 400 400" viewBox="0 0 400 400" xmlns="http://www.w3.org/2000/svg"><g fill="#010103"><path d="m287.18 157.98c0-8.78-.07-17.04.03-25.29.04-3.22.2-6.48.84-9.62.35-1.74 1.52-3.52 2.78-4.85 4.34-4.56 8.07-4.11 9.85 1.75 1.76 5.8 3.16 11.96 3.22 17.97.24 27.84-.06 55.69-.13 83.54-.05 18.78-2.16 37.28-7.89 55.23-1.56 4.89-2.19 10.27-6.82 13.83-6.11 4.7-12.82 7.84-20.51 8.3-11.79.7-23.23-1.33-34.01-6.08-2.28-1-3.94-3.84-5.4-6.14-4.04-6.36-5.89-13.5-6.28-20.96-.57-10.72-.94-21.45-1.32-32.18-.85-23.59-1.82-47.18-2.44-70.77-.48-18.42 1.54-36.56 6.39-54.44 2.05-7.55 6.4-12.65 13.25-15.14 6.86-2.49 14.1-4.45 21.33-5.3 8.5-.99 17.18-.76 25.77-.62 5.36.09 7.97 2.82 9.18 7.69.49 1.97-.11 3.2-1.76 3.68-3.71 1.08-7.47 2.26-11.28 2.71-3.31.39-4.35 1.72-4.84 4.94-1.94 12.87-1.64 25.66.84 38.37 1.01 5.25 2.67 10.45 9.2 13.38zm.4 37.47c-.19-4.29-.73-7.65-.42-10.94.64-6.72-2.6-11.02-8.04-14.02-5.77-3.18-9.8-8.05-13.59-13.21-.39-.53-.87-1-1-1.15-4.28 3.56-8.15 7.56-12.75 10.36-4.7 2.87-10.13 4.55-14.75 6.55 0 6.45.09 12.93-.04 19.4-.06 2.82 1.04 3.61 3.75 3.51 8.38-.29 16.78-.4 25.17-.48 7.12-.08 14.24-.02 21.67-.02zm-2.27 14.85c-16.41.71-32.63 1.41-49.12 2.13.36 9.79.71 19.23 1.08 29.01 16.23-.35 32.05-.69 48.05-1.04-.01-10.14-.01-19.93-.01-30.1zm-47.01 46.51c1.15 5.38 2.78 10.14 3.05 14.98.4 7.18 4.19 9.91 10.72 10.82 8.15 1.13 16.25 2.43 23.83-2.08 1.76-1.05 4.14-2.39 4.61-4.06 1.67-5.96 2.64-12.11 3.96-18.58-15.56-.36-30.61-.72-46.17-1.08zm-.94-100.5c2.02-1.28 3.68-2.64 5.57-3.48 6.6-2.92 9.96-8.07 11.15-15.02 1.32-7.69 3.33-15.28 4.17-23.01.61-5.57-3.24-9.92-7.59-10.31-2.54-.23-9.72 5.33-10.39 8.26-1.41 6.09-2.88 12.18-3.93 18.34-1.43 8.29-1.65 16.6 1.02 25.22z"/><path d="m328.14 86.88c4.26 7.57 5.67 15.72 6.06 24 .63 13.54.38 27.08-1.8 40.51-.28 1.75-.26 3.57-.27 5.36-.17 29.32-.15 58.65-.54 87.96-.28 21.29-1.83 42.48-7.92 63.06-.86 2.89-2.05 5.69-2.74 8.62-1.19 5.03-4.5 7.78-8.96 9.97-15.04 7.37-30.93 9.98-47.53 9.33-17.1-.68-33.82-3.32-49.89-9.38-1.58-.6-3.11-1.73-4.28-2.98-10.29-10.94-14.87-23.95-16.48-38.96-5.44-50.99-4.98-102.09-4.21-153.22.28-18.87 3.27-37.41 8.53-55.54.43-1.5 1.43-3.04 2.6-4.08 10.06-9 21.92-13.92 35.28-15.7 20.91-2.77 41.89-3.81 62.95-3.15 4.31.13 8.68.91 12.87 1.98 3.47.88 6.22 3.05 6.59 7.15.16 1.78-.3 2.81-2.14 3.55-9.28 3.72-19 5.3-28.88 5.18-11.29-.14-22.56-1.15-33.85-1.46-11.75-.33-23.13 1.4-33.89 6.63-7.66 3.73-11.13 10.5-12.63 17.96-1.71 8.48-2.46 17.27-2.58 25.93-.51 38.04-.97 76.1-.8 114.14.11 22.97 2.46 45.79 9.78 67.8.49 1.48 1.49 3.03 2.69 4 10.17 8.27 22.18 11.87 34.98 13.08 16.27 1.53 32.34 1.07 48.05-4.46 5.51-1.94 8.61-5.47 10.77-10.48 3.29-7.61 4.73-15.6 4.88-23.83.88-45.76 1.8-91.52 2.5-137.28.19-12.41-.47-24.83-.36-37.25.03-3.6 1.03-7.3 2.2-10.75 1.36-4.03 4.35-6.71 9.02-7.69z"/><path d="m137.55 146.57c4.44-1.23 8.44-2.22 12.33-3.51.98-.33 1.86-1.5 2.41-2.49 7.45-13.41 9.52-27.89 7.69-42.88-1.51-12.42-3.82-24.73-5.63-37.11-.33-2.27-.28-4.72.19-6.96.6-2.87 2.73-4.73 5.71-4.87 2.84-.13 5.36.46 6.83 3.62 4.64 9.99 6.82 20.59 7.81 31.42 1.52 16.65 1.64 33.32-1.81 49.8-.87 4.14-2.23 8.18-3.46 12.24-.93 3.09-2.92 5.24-5.55 7.24-8.55 6.51-17.83 11.01-28.59 12.38-1.05.13-2.58 1.44-2.79 2.44-4.58 21.61-8.61 43.36-5.82 65.55 2.25 17.96 4.66 35.98 8.44 53.66 4.49 20.96 10.63 41.57 15.82 62.38 1.45 5.81 2.65 11.8 2.95 17.76.3 6.07-2.76 8.43-8.62 7.6-1.38-.2-2.98-1.45-3.77-2.68-5.24-8.11-7.87-17.28-9.92-26.56-7-31.65-14.01-63.3-20.61-95.04-3.67-17.64-2.56-35.27.93-52.97 6.26-31.7 11.95-63.51 17.62-95.33 2.63-14.78-1.25-28.68-7.35-41.99-3.25-7.11-7.09-13.95-10.71-20.88-2.25-4.31-2.31-8.6.18-12.76.46-.76 1.91-1.48 2.78-1.36 4.59.64 8.1 3.12 10.46 7.09 13.38 22.61 21.87 46.65 19.57 73.32-.95 10.98-3.56 21.82-5.44 32.72-.45 2.52-1.02 5.02-1.65 8.17z"/><path d="m79.62 246.16c.03-21.18 3.04-42.03 6.27-62.8.78-5.05 3.52-9.82 5.59-14.63.33-.76 1.9-1.48 2.84-1.4 5.1.4 8.15 3.87 7.6 9.11-.79 7.56-2.14 15.05-3.03 22.6-3.65 30.93-3.53 61.83.64 92.73 2.27 16.86 5.27 33.55 9.31 50.08 1.18 4.83.43 10.17.27 15.27-.03.87-1.37 2.2-2.34 2.46-8.07 2.13-8.79 2.12-11.29-5.8-2.44-7.73-4.07-15.76-5.46-23.77-2.45-14.21-4.77-28.46-6.54-42.77-1.69-13.64-2.61-27.38-3.86-41.08z"/><path d="m166.14 187.25c-1.11 7.49-2.29 15.33-3.42 23.19-2 13.91-2.71 27.93-.13 41.76 1.96 10.51 5.24 20.78 8 31.14 2.53 9.49 4.97 19.02 7.8 28.43 1.6 5.33 4.24 10.35 5.77 15.69 1.28 4.43 1.87 9.11 2.32 13.72.36 3.72-2.79 4.77-5.58 5.6-2.75.82-4.66-.08-6.29-2.8-6.62-11.02-11.24-22.79-14.39-35.22-1.54-6.06-3.18-12.11-5.16-18.04-5.5-16.48-7.28-33.62-8.75-50.75-.91-10.54-1.16-21.21-.63-31.76.55-10.92 4.36-21.17 9.56-30.81.41-.76 1.92-1.41 2.85-1.34 5.21.45 8.25 4.66 8.05 11.19z"/><path d="m108.44 107.75c-1.01 15.73-8.58 35.69-23.62 52.66-2.67 3.01-5.2 6.16-7.99 9.06-4.07 4.26-9.03 5.97-14.93 4.72-1.69-.36-2.34-.97-2.49-2.82-.5-6.06.94-10.66 5.73-15.29 10.9-10.55 19.79-22.7 24.46-37.54 4.16-13.25 2.54-25.95-2.22-38.66-1.91-5.09-3.26-10.43-4.39-15.75-.66-3.1 0-6.39 2.58-8.62.84-.72 2.89-1.16 3.67-.65 2.57 1.69 5.56 3.43 7.04 5.95 7.29 12.36 12.75 25.39 12.16 46.94z"/></g><path d="m377.9 391.2c-.2.3-.4.5-.6.8-.7-.6-1.4-1-2.2-1.5.2-.3.4-.5.5-.8.6.4 1.4.8 2.3 1.5zm-1.8 6.1c-.2-.2-.5-.4-.9-.6.4-.6.8-1.2 1.2-1.9s.7-1.3.9-1.9c.3.3.5.5.8.7-.7 1.3-1.4 2.6-2 3.7zm2.2-9c-.3.3-.5.5-.6.8-.6-.6-1.3-1.1-2-1.5.3-.3.5-.5.6-.7.6.5 1.3.9 2 1.4zm.3.2v-.9h2 4.5c-.3 1.3-.6 2.5-1 3.6s-.9 2.1-1.4 3c.4.5 1 1 1.6 1.4s1.2.8 1.9 1.1c-.3.2-.5.4-.8.8-.4-.3-1-.7-1.6-1.2s-1.2-1.1-1.6-1.6c-.5.6-1.1 1.1-1.7 1.6s-1.4.9-2.1 1.4c-.1-.3-.3-.5-.7-.8.6-.2 1.2-.5 1.9-1s1.4-1.1 2-1.8c-.5-.8-.9-1.6-1.2-2.5s-.6-2-.8-3.2c-.4.1-.7.1-1 .1zm2.5 2.7c.3 1 .7 1.7 1 2.2.3-.5.6-1.1 1-2s.6-1.9.9-3h-3.2-.4c.1.9.3 1.8.7 2.8z" fill="#fcfbfa"/><path d="m396.5 388.5v1.5 3.6h1.5v.9c-.4 0-1 0-1.7 0h-7.9c-.5 0-.9 0-1.2 0v-.9h1.3v-3.5c0-.7 0-1.2 0-1.6h2.4c0-.8 0-1.4 0-1.7h1c0 .3-.1.8-.1 1.7h1.5c0-.8 0-1.4 0-1.7h1c0 .3-.1.9-.1 1.7zm-8.2 9.2c-.2-.3-.5-.5-.8-.8.8-.3 1.4-.6 1.9-.9s1-.7 1.4-1.1c.3.3.6.5.9.8-1.6 1-2.8 1.6-3.4 2zm2.6-6.8v-1.6h-1.5v1.6zm0 2.7v-1.9h-1.5v1.9zm2.4-2.7v-1.6h-1.5v1.6zm0 2.7v-1.9h-1.5v1.9zm.2 2 .7-.8c.4.2.9.5 1.6.8s1.3.7 1.8 1c-.3.3-.5.5-.8.8-.4-.3-1.5-1-3.3-1.8zm2-4.7v-1.6h-1.4v1.6zm0 2.7v-1.9h-1.4v1.9z" fill="#fcfbfa"/></svg>