<svg enable-background="new 0 0 400 400" viewBox="0 0 400 400" xmlns="http://www.w3.org/2000/svg"><g fill="#010103"><path d="m267 205.62c-7.74 0-15.38 0-24 0 0 8.28.12 16.75-.02 25.22-.63 37.26-1.16 74.53-2.15 111.78-.2 7.53-1.83 15.09-3.47 22.48-1.13 5.1-4.12 9.19-10.04 9.92-1.94.24-3.45-.29-3.78-2.29-.49-3.03-1.68-6.41-.85-9.11 4.2-13.6 4.12-27.59 4.67-41.54.84-21.25 1.53-42.5 2.41-63.75.11-2.52-.55-3.51-3.05-4.01-6.13-1.23-12.14-3.29-18.31-4.11-7.25-.97-15.16-9.38-15.81-18.23-.64-8.63.76-16.95 4.24-24.88.47-1.06 1.41-1.99 2.31-2.78 7.88-6.91 17.6-9.56 27.56-11.34 7.03-1.26 14.17-1.86 21.71-2.82-.24-4.77-.43-9.54-.77-14.3-.04-.59-.77-1.34-1.37-1.65-13.16-6.76-18.74-18.55-20.57-32.29-2.3-17.21-1.84-34.39 3.21-51.2 3.24-10.78 13.24-16.61 24.42-14.41 5.27 1.04 10.52 2.21 15.84 2.85 3.57.43 5.89 2.28 7.32 5.14 1.48 2.96 2.8 6.16 3.38 9.39 3.27 18.27 5.08 36.62.72 54.96-1.21 5.08-2.65 10.32-5.22 14.78-2.08 3.61-5.75 6.52-9.2 9.07-3.24 2.39-4.7 5.17-4.63 9.03.05 2.55.01 5.11.01 8.09 6.53.64 13.05 1.39 19.6 1.89 9.33.71 17.84 3.5 24.57 10.18 9.78 9.71 11.57 24.6 5.98 38.1-.24.59-.75 1.08-1.19 1.56-.3.32-.73.52-1.07.81-7.5 6.23-15.4 11.5-25.79 10.9-.65-.04-1.32.21-1.98.34-.09.02-.16.14-.5.44 0 .52-.04 1.28.01 2.03 1.13 18.88 1.79 37.8 3.57 56.62 1.35 14.34 4.16 28.54 6.22 42.82.57 3.97 1.19 8 1.04 11.98-.08 1.93-1.5 4.26-3.03 5.57-2.95 2.52-5.61 1.79-7.72-1.47-3.45-5.33-4.55-11.41-5.23-17.52-2.82-25.57-5.41-51.16-8.24-76.73-2.31-20.88-2.24-41.76-.8-62.68.17-2.76 0-5.54 0-8.84zm-26.98-73.97c-.1.79-.33 1.88-.35 2.97-.07 4.35-.53 8.76.06 13.02.44 3.17 1.79 6.5 3.62 9.14 4.51 6.5 17.59 6.41 21.28-.51 3.56-6.67 5.37-14.2 4.31-21.98-.13-.97-1.52-2.51-2.35-2.53-8.68-.18-17.37-.11-26.57-.11zm29.04-13.81c0-5.43.3-10-.06-14.53-.73-9.1-3.35-11.8-12.44-13.36-2.41-.41-5.01-.99-7.3-.48-2.43.55-6.01 1.81-6.63 3.61-2.55 7.38-4.26 15.08-2.89 23.03.12.67 1.24 1.64 1.9 1.65 9.04.12 18.07.08 27.42.08zm-40.92 88.78c-8.17 1.09-13.52 3.33-18.55 7.85-.93.84-1.82 2.05-2.1 3.23-.67 2.81-1.5 5.75-1.28 8.56.24 3.1.6 7.42 2.61 8.9 5.4 3.99 11.87 6.23 18.87 4.42.86-.22 1.98-1.8 1.95-2.71-.38-10.02-.96-20.04-1.5-30.25zm53.42 32.87c5.16-1.24 10.35-2.45 15.53-3.76.56-.14 1.22-.69 1.46-1.22 3.14-6.75 3.72-13.6-.06-20.26-3.58-6.33-9.71-7.91-16.93-8.46z"/><path d="m154.99 118.94c4-.53 7.7-.76 11.24-1.62 1.35-.33 2.68-1.92 3.46-3.26 3.46-5.9 4.28-12.44 3.69-19.12-1.35-15.34-5.28-30.12-9.91-44.75-1.04-3.28-1.64-6.73-2.14-10.15-.61-4.21 2.74-7.9 6.94-7.57 1.03.08 2.23 1.3 2.89 2.29 5.03 7.54 7.83 16.02 10.1 24.7 3.24 12.35 5.62 24.84 6.35 37.63.48 8.4-1.55 16.49-4.82 23.78-2.91 6.49-9.49 10.24-16.8 11.63-3.51.67-7.1.93-10.59 1.69-.95.21-2.24 1.48-2.37 2.4-2.67 19.61-5.65 39.19-7.62 58.87-2.42 24.24-2.03 48.59 1.86 72.64 1.99 12.29 6.08 24.26 9.42 36.32 4.09 14.74 8.52 29.38 12.5 44.14.56 2.09.16 5.09-1.01 6.87-3.18 4.84-6.58 4.65-9.85 0-7.41-10.56-11.37-22.64-13.9-34.99-5.16-25.17-10.56-50.38-13.78-75.83-2.04-16.17-1.22-32.88-.12-49.24 2.07-30.7 6.94-61.09 12.16-91.41 2.28-13.24-.67-25.98-4.81-38.55-2.72-8.26-5.12-16.64-7.25-25.06-.8-3.18-.61-6.66-.56-10.01.05-3.95 3.25-6.05 6.58-4.02 2.36 1.43 4.99 3.57 5.91 6 3.58 9.49 6.63 19.19 9.68 28.88 5.5 17.46 4.85 35.31 3.09 53.21-.15 1.43-.22 2.85-.34 4.53z"/><path d="m213.28 121.04c0 15.21.03 30.42-.03 45.63-.01 2.79-.24 5.6-.65 8.36-.63 4.24-2.97 6.22-6.63 6.09-2.82-.1-4.7-1.01-4.82-4.24-.07-2-.64-3.98-.78-5.98-1.04-14.71-2.55-29.42-2.92-44.15-.52-20.75 1.12-41.36 7.17-61.39.03-.11.06-.22.07-.33 1.64-10.76 9-15.66 18.71-17.73 19.12-4.07 38.41-4.46 57.69-1.46 13.51 2.1 20.55 11.2 22.11 23.48 1.98 15.64 4.08 31.29 5.1 47 1.31 20.1 1.25 40.23-2.76 60.17-.91 4.51-4.83 6.26-9.14 3.97-.85-.45-1.37-1.92-1.61-3.02-2.89-13.01-3.27-26.18-1.87-39.37 1.86-17.45 1.48-34.84-.44-52.24-.29-2.66-.4-5.35-.53-8.03-.56-12.2-6.54-18.8-18.74-19.16-13.3-.39-26.64-.31-39.93.36-12.64.64-16.44 4.48-19.16 18.14-1.12 5.66-1.22 11.56-1.36 17.36-.21 8.84-.06 17.68-.06 26.52.21.02.39.02.58.02z"/><path d="m95.3 250.51c.39-27.84 4.06-55.3 9.36-82.55.9-4.64 3.19-9.02 4.77-13.53.66-1.88 1.94-2.23 3.68-1.81 3.38.8 5.76 2.78 6.1 6.28.32 3.3.48 6.73-.04 9.99-2.58 15.99-5.79 31.9-7.98 47.94-1.04 7.57-.43 15.39-.36 23.09.14 15.55.08 31.11.79 46.63.37 8.22 2.55 16.34 3.22 24.56.51 6.18-.09 12.46-.2 18.69-.04 2.13-1.01 3.15-3.28 3.24-6.76.29-5.51 1.63-8.12-5.02-1.56-3.98-2.21-8.41-2.67-12.7-1.6-14.77-3.05-29.57-4.33-44.37-.58-6.8-.64-13.63-.94-20.44z"/><path d="m180.48 164.92c-1.14 12.95-2.08 23.52-2.99 34.1-.73 8.47-1.96 16.94-1.95 25.41.01 6.64 1.52 13.29 2.46 19.93 1.89 13.39 3.71 26.79 5.86 40.14.86 5.38 2.73 10.6 3.69 15.97.8 4.46 1.06 9.03 1.32 13.56.13 2.38-1.07 3.61-3.76 4.02-6.08.93-6.67 1.32-8.41-4.48-2.55-8.51-4.5-17.26-6.01-26.02-2.67-15.52-4.88-31.13-7.14-46.72-2.36-16.26-2.16-32.55-.21-48.84.95-7.98 1.82-15.98 3.1-23.91.45-2.79 2.11-5.37 3.09-8.1.99-2.75 2.72-3.05 5.24-2.12 4.17 1.54 5.72 3.96 5.71 7.06z"/><path d="m80.18 151.09c0-3.12-.2-6.02.1-8.88.12-1.14 1.2-2.25 2.03-3.23 6.73-7.91 14.02-15.41 20.12-23.78 7.9-10.83 10.13-22.96 4.89-35.85-2.23-5.48-4.38-11-6.61-16.48-2.7-6.65-3.23-13.39-1.29-20.35.58-2.07 1.59-2.63 3.62-2.14 3.54.85 6.7 2.38 8.01 5.93 3.75 10.15 7.92 20.21 10.75 30.62 3.97 14.59.28 28.66-6.84 41.35-5.37 9.57-12.52 18.19-19.3 26.9-3.62 4.66-8.93 6.54-15.48 5.91z"/></g><path d="m377.9 391.2c-.2.3-.4.5-.6.8-.7-.6-1.4-1-2.2-1.5.2-.3.4-.5.5-.8.6.4 1.4.8 2.3 1.5zm-1.8 6.1c-.2-.2-.5-.4-.9-.6.4-.6.8-1.2 1.2-1.9s.7-1.3.9-1.9c.3.3.5.5.8.7-.7 1.3-1.4 2.6-2 3.7zm2.2-9c-.3.3-.5.5-.6.8-.6-.6-1.3-1.1-2-1.5.3-.3.5-.5.6-.7.6.5 1.3.9 2 1.4zm.3.2v-.9h2 4.5c-.3 1.3-.6 2.5-1 3.6s-.9 2.1-1.4 3c.4.5 1 1 1.6 1.4s1.2.8 1.9 1.1c-.3.2-.5.4-.8.8-.4-.3-1-.7-1.6-1.2s-1.2-1.1-1.6-1.6c-.5.6-1.1 1.1-1.7 1.6s-1.4.9-2.1 1.4c-.1-.3-.3-.5-.7-.8.6-.2 1.2-.5 1.9-1s1.4-1.1 2-1.8c-.5-.8-.9-1.6-1.2-2.5s-.6-2-.8-3.2c-.4.1-.7.1-1 .1zm2.5 2.7c.3 1 .7 1.7 1 2.2.3-.5.6-1.1 1-2s.6-1.9.9-3h-3.2-.4c.1.9.3 1.8.7 2.8z" fill="#fcfbfa"/><path d="m396.5 388.5v1.5 3.6h1.5v.9c-.4 0-1 0-1.7 0h-7.9c-.5 0-.9 0-1.2 0v-.9h1.3v-3.5c0-.7 0-1.2 0-1.6h2.4c0-.8 0-1.4 0-1.7h1c0 .3-.1.8-.1 1.7h1.5c0-.8 0-1.4 0-1.7h1c0 .3-.1.9-.1 1.7zm-8.2 9.2c-.2-.3-.5-.5-.8-.8.8-.3 1.4-.6 1.9-.9s1-.7 1.4-1.1c.3.3.6.5.9.8-1.6 1-2.8 1.6-3.4 2zm2.6-6.8v-1.6h-1.5v1.6zm0 2.7v-1.9h-1.5v1.9zm2.4-2.7v-1.6h-1.5v1.6zm0 2.7v-1.9h-1.5v1.9zm.2 2 .7-.8c.4.2.9.5 1.6.8s1.3.7 1.8 1c-.3.3-.5.5-.8.8-.4-.3-1.5-1-3.3-1.8zm2-4.7v-1.6h-1.4v1.6zm0 2.7v-1.9h-1.4v1.9z" fill="#fcfbfa"/></svg>