<svg enable-background="new 0 0 400 400" viewBox="0 0 400 400" xmlns="http://www.w3.org/2000/svg"><g fill="#010103"><path d="m118.97 25.48c5.81.68 9.39 3.99 11.39 8.96 2.45 6.11 4.82 12.28 6.76 18.57 6.12 19.83 11.16 39.92 10.98 60.84-.08 8.58-1.45 17.15-2.24 25.73-.08.87-.17 1.74-.3 3.12 6.39-1.52 12.77-1.31 16.58-8.28 4.93-9.01 7.2-18.38 5.77-28.4-2.14-15.05-4.87-30.02-7.21-45.04-.48-3.07-.6-6.27-.34-9.36.16-1.88.98-3.98 2.16-5.45 2.83-3.53 6.49-3.12 8.78.69 5.41 8.99 6.9 19.01 7.8 29.22 1.07 11.98 2.36 23.95 3.55 35.92.34.05.68.1 1.03.15 2.38-2.91 4.92-5.71 7.11-8.76 5.28-7.37 11.58-13.61 19.39-18.25 1.8-1.07 2.8-2.4 2.76-4.55-.19-10.51-.41-21.02-.46-31.53-.01-2.99.21-6.06.87-8.96 1.3-5.73 4.33-8.12 11.25-8.87.94 5.69 2.35 11.42 2.73 17.22.75 11.38.9 22.8 1.4 34.21.05 1.06.55 2.68 1.31 3.03 9.13 4.2 15.08 12.16 22.28 18.63 1.91 1.72 3.72 3.54 5.69 5.42.47-.41.93-.72 1.27-1.13 5.16-6.28 11.07-11.76 18.16-15.76 7.56-4.28 11.32-10.34 10.5-19.2-.73-7.91-1.34-15.84-1.58-23.77-.12-4.07.31-8.25 1.23-12.22.45-1.92 2.3-3.89 4.04-5.05 4.32-2.88 6.41-1.87 7.67 3.09 2.59 10.2 2.73 20.6 2.66 31.02-.04 5.15.07 10.31-.12 15.45-.08 2.26.57 3.95 2.38 5.14 6.07 3.97 12.16 7.92 18.29 11.8 5.96 3.77 9.7 8.83 9.9 16.11.13 4.7-2.87 7.63-7.5 6.49-2.68-.66-5.41-2.2-7.47-4.06-4.79-4.34-9.18-9.12-14.15-14.14-.24 1.33-.47 2.03-.48 2.73-.29 12.2-.49 24.4-.89 36.6-.08 2.43.76 3.75 2.71 5.14 12.14 8.63 19.71 19.74 18.2 35.41-.63 6.48-2.86 12.59-6.78 17.64-2.46 3.16-6.18 5.49-9.66 7.67-3.53 2.21-4.8 4.83-4.59 9.03.39 7.71.23 15.45.04 23.17-.06 2.55.8 3.97 2.84 5.45 4.33 3.15 8.56 6.5 12.48 10.14 10.38 9.65 12.9 21.34 8.12 34.57-1.55 4.3-3.57 8.43-5.44 12.61-.35.78-.89 1.62-1.58 2.1-18.4 12.99-30.75 13.15-47.07 1.42-8.97-6.44-11.78-16.82-11.07-27.85.16-2.56.53-5.13 1.04-7.65 1.36-6.71 3.99-12.57 9.73-16.98 4.5-3.46 8.33-7.75 13.93-9.67.79-.27 1.63-1.8 1.64-2.75.12-9.07.13-18.14-.01-27.21-.01-.92-.94-2.18-1.79-2.67-3-1.72-6.1-3.31-9.27-4.7-10.79-4.73-14.92-13.77-15.32-24.69-.18-4.93.84-10.04 2.13-14.86 1.88-7.02 5.24-13.18 12.17-16.85 3.63-1.92 6.91-4.56 10.14-7.13 1.02-.81 1.91-2.46 1.93-3.74.15-10.97.11-21.95.05-32.92-.01-1-.58-1.99-.89-2.99-.96.39-2.07.59-2.86 1.21-5.28 4.15-10.53 8.34-15.69 12.63-1.54 1.28-2.94 1.87-4.83.92-1.94-.98-3.72-.68-5.66.39-4.7 2.59-8.05 2.09-12.04-1.6-5.07-4.68-10.08-9.44-15.59-14.61-.24 4.48-.5 8.33-.65 12.18-.41 10.52-.84 21.03-1.05 31.55-.03 1.25.9 2.95 1.92 3.73 6.38 4.88 12.12 10.26 15.88 17.5 5.69 10.94 5.02 22.29-.35 32.6-3.09 5.93-8.56 11.22-15.65 13.54-2.37.77-3.16 2.13-3.09 4.68.19 7.5.13 15 .03 22.51-.03 1.94.56 3.07 2.34 3.87 2.24 1.01 4.29 2.43 6.52 3.44 15.14 6.89 19.98 24.16 17.77 38.2-2.14 13.55-12.07 19.94-22.64 25.92-9.88 5.59-19.87 4.06-28.03-2.45-12.03-9.6-18.46-22.04-14.65-38.42 1.92-8.25 4.92-14.98 12.49-19.45 3.91-2.31 8.68-4.9 10.47-8.61 1.85-3.84.59-9.2.63-13.89.04-4.03.16-8.07-.09-12.09-.07-1.08-1.13-2.68-2.11-3.05-22.88-8.47-26.7-30.8-18-49.2 1.13-2.39 3.66-4.15 5.64-6.1 4.28-4.22 8.3-8.81 14.71-9.98.68-.12 1.6-1.51 1.6-2.32.1-13.66.09-27.32.02-40.98 0-.73-.69-1.46-1.05-2.19-.64.33-1.4.54-1.89 1.02-3.22 3.11-6.31 6.36-9.58 9.4-2.96 2.75-6.46 4.59-10.62 4.1-2.15-.26-4.2-1.24-6.5-1.96-1.6 6.49-3.35 13.76-5.17 21-2.77 10.99-10.69 16.6-20.92 19.5-3.74 1.06-7.73 1.21-11.54 2.08-1.15.26-2.74 1.36-2.99 2.36-8.76 35.01-13.33 70.53-12.77 106.66.3 19.19 2.56 38.21 6.26 56.99 2.04 10.37 5.96 20.36 8.73 30.6 1.13 4.17 1.66 8.53 2.13 12.84.3 2.68-.91 4.91-3.79 5.55-2.88.63-5.6 1.46-8.09-1.7-7.3-9.26-10.71-20.01-12.79-31.34-5.59-30.44-9.18-61.07-8.67-92.09.35-21.77 2.94-43.27 6.94-64.66 4.34-23.19 8.7-46.4 12.18-69.73 1.81-12.14-.27-24.4-3.53-36.22-3.33-12.05-7.2-23.96-10.99-35.89-1.93-5.89-2.06-11.59.98-17.49zm156.68 254.96c.26 7.77 3.71 13.91 9.51 18.01 7.13 5.04 18.68 1.49 23.1-6.18 8.76-15.2-.64-32.27-18.2-32.03-3.6.05-8.28 3.39-10.41 6.58-2.5 3.76-2.76 9.01-4 13.62zm-37.95-1.38c-.62-10.51-5.08-16.1-15.27-18.31-1.95-.42-3.97-.6-5.96-.79-2.94-.28-11.2 4.7-11.72 7.57-1.01 5.56-2.09 11.23-2 16.83.09 5.57 3.3 10.34 7.91 13.35 6.37 4.16 17.73 1.85 22.76-4.04.35-.41.62-.94.76-1.46 1.2-4.37 2.35-8.76 3.52-13.15zm69.88-99.43c-.03-10.12-6.66-17.34-16.79-18.2-1.39-.12-3-.21-4.2.35-6.56 3.01-10.41 8.01-11.22 15.39-.75 6.85 4.18 16.23 9.57 18.56 10.84 4.68 23.48-3.17 22.64-16.1zm-106.27 4.91c.52 7.82 6.1 14.8 13.47 16.3 5.74 1.17 15.73-3.4 17.16-7.98 1.93-6.15 2.13-12.32-.45-18.37-2.95-6.94-9.02-9.07-15.76-9.34-4.9-.2-8.33 3.7-10.67 7.06s-2.59 8.16-3.75 12.33z"/><path d="m81.66 328.34c-.93-10.24-2.27-20.46-2.7-30.72-.69-16.31-1.29-32.65-.98-48.96.37-19.69 2.17-39.33 7.03-58.51 1.67-6.59 3.74-13.12 6.26-19.42 1.02-2.55 3.74-4.42 5.68-6.6 2.16 2.01 5.29 3.64 6.24 6.11 1.37 3.58 2.05 7.91 1.48 11.68-2.04 13.47-5 26.81-7.12 40.27-3.22 20.45-5.87 40.95-4.55 61.78 1.45 23 2.41 46.03 3.76 69.04.16 2.69-.63 3.72-3.05 4.46-5.77 1.78-6.17 1.62-8.95-4.1-3.86-7.96-3.72-16.47-3.1-25.03z"/><path d="m148.79 267.54c.05-21.73 3-39.86 5.72-58.01 1.47-9.85 3.08-19.68 4.35-29.55.42-3.26 1.61-5.62 4.76-6.45 2.51-.66 6.79 2.03 7.49 5.07.83 3.54 1.54 7.33 1.14 10.89-2.4 21.69-5.25 43.32-7.71 65-2.43 21.45.92 42.15 8.79 62.17 2.65 6.76 5.72 13.36 8.16 20.18.95 2.64.72 5.71.96 8.59.05.65.02 1.44-.3 1.96-.95 1.57-9.36 1.11-10.33-.5-15.25-25.43-25.51-52.26-23.03-79.35z"/><path d="m83.48 48.12c6.18.64 10.59 3.37 13.69 7.85 8.13 11.76 14.6 24.32 17.01 38.61 1.83 10.84-.44 21.23-4.77 31.04-1.65 3.74-5.15 6.7-7.93 9.9-5.94 6.83-11.8 13.75-18.02 20.32-4.05 4.28-9.04 7.31-15.09 8.08-5.14.66-7.45-2.32-5.94-7.27.96-3.12 2.74-5.41 5.09-7.62 7.74-7.27 15.52-14.53 22.82-22.23 6.7-7.06 10.3-15.7 9.58-25.62-.21-2.93-1.2-5.92-2.41-8.63-3.45-7.75-7.51-15.24-10.73-23.07-2.05-4.98-3.24-10.35-4.37-15.64-.36-1.74.68-3.78 1.07-5.72z"/></g><path d="m377.9 391.2c-.2.3-.4.5-.6.8-.7-.6-1.4-1-2.2-1.5.2-.3.4-.5.5-.8.6.4 1.4.8 2.3 1.5zm-1.8 6.1c-.2-.2-.5-.4-.9-.6.4-.6.8-1.2 1.2-1.9s.7-1.3.9-1.9c.3.3.5.5.8.7-.7 1.3-1.4 2.6-2 3.7zm2.2-9c-.3.3-.5.5-.6.8-.6-.6-1.3-1.1-2-1.5.3-.3.5-.5.6-.7.6.5 1.3.9 2 1.4zm.3.2v-.9h2 4.5c-.3 1.3-.6 2.5-1 3.6s-.9 2.1-1.4 3c.4.5 1 1 1.6 1.4s1.2.8 1.9 1.1c-.3.2-.5.4-.8.8-.4-.3-1-.7-1.6-1.2s-1.2-1.1-1.6-1.6c-.5.6-1.1 1.1-1.7 1.6s-1.4.9-2.1 1.4c-.1-.3-.3-.5-.7-.8.6-.2 1.2-.5 1.9-1s1.4-1.1 2-1.8c-.5-.8-.9-1.6-1.2-2.5s-.6-2-.8-3.2c-.4.1-.7.1-1 .1zm2.5 2.7c.3 1 .7 1.7 1 2.2.3-.5.6-1.1 1-2s.6-1.9.9-3h-3.2-.4c.1.9.3 1.8.7 2.8z" fill="#fcfbfa"/><path d="m396.5 388.5v1.5 3.6h1.5v.9c-.4 0-1 0-1.7 0h-7.9c-.5 0-.9 0-1.2 0v-.9h1.3v-3.5c0-.7 0-1.2 0-1.6h2.4c0-.8 0-1.4 0-1.7h1c0 .3-.1.8-.1 1.7h1.5c0-.8 0-1.4 0-1.7h1c0 .3-.1.9-.1 1.7zm-8.2 9.2c-.2-.3-.5-.5-.8-.8.8-.3 1.4-.6 1.9-.9s1-.7 1.4-1.1c.3.3.6.5.9.8-1.6 1-2.8 1.6-3.4 2zm2.6-6.8v-1.6h-1.5v1.6zm0 2.7v-1.9h-1.5v1.9zm2.4-2.7v-1.6h-1.5v1.6zm0 2.7v-1.9h-1.5v1.9zm.2 2 .7-.8c.4.2.9.5 1.6.8s1.3.7 1.8 1c-.3.3-.5.5-.8.8-.4-.3-1.5-1-3.3-1.8zm2-4.7v-1.6h-1.4v1.6zm0 2.7v-1.9h-1.4v1.9z" fill="#fcfbfa"/></svg>