<svg enable-background="new 0 0 400 400" viewBox="0 0 400 400" xmlns="http://www.w3.org/2000/svg"><g fill="#010103"><path d="m262.44 234.06c4.12-.56 7.99-.9 11.76-1.71.97-.21 1.83-1.82 2.39-2.96 4.14-8.39 4.46-17.38 4.32-26.53-.09-5.76.21-11.6 1.16-17.27.72-4.31 3.37-6.29 7.46-7.51 4.12 6.26 6.17 13.33 6.91 20.67 1.22 12.14.72 24.28-4.71 35.47-3.48 7.18-9.3 12.21-17.51 13.73-3.84.71-7.7 1.27-11.68 1.92v17.4c9.79.05 19.47.1 29.15.15 6.14.03 12.3-.31 18.4.22 5.37.47 10.16 2.69 12.77 8.01 1.03 2.11.96 3.48-1.46 4.82-6.28 3.48-12.95 4.72-20.01 4.53-11.29-.3-22.58-.57-33.88-.85-1.22-.03-2.43 0-4.07 0-.36 6.56-.98 12.89-1.01 19.22-.1 20.03.06 40.07-.02 60.1-.01 2.85-.72 5.73-1.36 8.54-.6 2.63-2.62 3.52-5.13 3.19-2.44-.32-4.6-.69-5.42-3.89-3.07-12.1-2.87-24.35-2.69-36.68.25-16.65.06-33.3.06-50.19-6.06 0-11.7.01-17.35 0-8.94-.02-17.88.12-26.8-.17-2.57-.08-5.28-1.08-7.59-2.3-3.26-1.72-4.62-5.94-3.21-9.33.41-.98 1.8-1.84 2.92-2.18 9.44-2.85 19.18-2.97 28.92-2.99 7.69-.02 15.38 0 23.32 0 0-6.4 0-11.83 0-17.69-3.4-.56-6.87-1.39-10.4-1.66-12.53-.95-19.85-8.08-23.76-19.48-2.97-8.66-3.05-17.62-2.29-26.55.5-5.88 1.56-11.74 2.85-17.5 1.28-5.72 2.03-6.03 8.41-6.33 3.56 8.7 4.46 17.85 4.04 27.19-.14 3.01-.49 6.02-.81 9.02-1.41 13.28 5.95 17.97 16.19 20.05 1.63.33 3.31.39 5.24.61.2-3.33.45-6.55.58-9.77.43-10.62.72-21.25 1.28-31.86.12-2.32-1.1-3.15-2.67-4.09-9.21-5.51-14.97-13.38-15.85-24.25-.53-6.57-.57-13.19-.78-19.79-.19-6.18-.17-6.23-6.5-6.15-2.23.03-4.45.38-6.67.58-2.61.23-4.48-.86-4.96-3.43-.51-2.7-1.95-5.67 1.35-7.84 2.59-1.7 5.26-2.52 8.46-2.5 19.92.13 39.84.03 59.77.11 3 .01 6.02.42 8.98.95 4.02.71 5.59 3.01 5.56 7.11-.01 1.75-.57 2.58-2.34 2.96-4.58 1-9.09 2.36-13.7 3.25-2.32.45-2.8 1.57-2.82 3.66-.06 7.27-.42 14.54-.39 21.81.04 8.09-2.76 14.68-9.56 19.22-3.12 2.08-4.1 4.7-4.12 8.38-.05 11.86-.46 23.71-.73 35.57-.03 1.52 0 3.07 0 5.01zm-16.78-94.09c-.28 7.22-.75 14-.72 20.78.01 2.94.72 5.99 1.67 8.8 1.94 5.74 2.1 5.69 8.24 5.25.67-.05 1.34-.14 2.01-.11 2.43.09 3.67-1.1 4.01-3.46.91-6.3 2.13-12.56 2.71-18.88.3-3.27-.29-6.66-.86-9.93-.16-.93-1.65-2.27-2.6-2.32-4.57-.27-9.15-.13-14.46-.13z"/><path d="m143.54 135.3c6.2-.29 9.76-3.52 11.79-9.39 3.07-8.82 3.91-17.62 1.83-26.71-2.87-12.53-5.8-25.05-8.54-37.61-.49-2.25-.31-4.68-.19-7.01.16-2.88 1.62-4.8 4.65-5.29 2.9-.46 4.95.11 6.52 3.1 7.69 14.7 11.32 30.48 13.49 46.77 1.71 12.8-.61 24.91-5.06 36.79-.31.82-.65 1.75-1.27 2.29-5.79 5.02-10.62 11.48-18.4 13.65-6.66 1.85-8.94 6.06-9.59 12.7-1.42 14.46-3.89 28.81-5.47 43.26-1.81 16.52-1.55 33.13.37 49.59 1.86 15.96 3.77 32.07 7.69 47.59 3.31 13.09 9.46 25.49 14.54 38.11 1.71 4.24 4.11 8.2 5.98 12.38.9 2.01 1.57 4.2 1.86 6.37.37 2.78-.16 5.7-3.2 6.68-2.92.94-5.66.62-8.09-2.18-11.55-13.33-17.44-29.32-21.6-46.01-3.63-14.53-7.39-29.1-9.59-43.88-4.49-30.18-6.41-60.48-.96-90.88 3.57-19.92 6.52-39.95 9.47-59.97 2.25-15.25.06-30-5.36-44.46-4.74-12.65-8.8-25.55-13.04-38.39-.37-1.12-.23-2.89.45-3.78 1.24-1.64 3.08-3.44 5.37-1.9 2.61 1.76 5.92 3.49 7.18 6.08 10.94 22.62 21.29 45.43 19.24 71.62-.52 6.78-.07 13.62-.07 20.48z"/><path d="m250.2 25.06c6.66 1.65 9.63 5.06 9.42 11.45-.15 4.79-1.15 9.54-1.41 14.34-.17 2.98.21 6.01.56 8.99.23 1.98 1.39 2.96 3.62 3.04 8.39.3 16.61 1.49 24.79 3.72 11.83 3.21 19.25 10.58 23.64 21.74 4.68 11.9 6.71 24.33 7.75 36.95 1.21 14.62 1.79 29.26-.39 43.87-1 6.67-1.63 7.24-10.64 7.61-1.37-6.68-3.58-13.47-4-20.37-.82-13.6-.62-27.25-.9-40.88-.16-7.93-1.44-15.68-5.84-22.42-6.18-9.46-14.73-15.02-26.45-14.93-10.17.08-20.41-.73-30.51.13-7.23.62-14.29 3.29-21.39 5.18-.84.22-1.57 1.19-2.17 1.95-8.22 10.28-11.81 22.27-12.19 35.18-.39 13.3-.11 26.62-.3 39.92-.06 4-.55 8.03-1.19 11.98-.51 3.14-2.8 4.67-5.94 4.95-2.23.2-4.12-.31-4.73-2.71-1.02-4.07-2.72-8.21-2.64-12.28.33-16.21.9-32.43 2.05-48.6.92-12.86 4.8-25.08 11.8-35.98 3.42-5.32 9.3-8.12 15.18-9.88 7.24-2.16 14.71-3.58 22.15-4.96 2.6-.48 4.26-1.42 4.5-3.98.37-3.88.69-7.79.61-11.67-.14-7.21-.12-14.34 3.66-20.84.27-.47.59-.93.96-1.5z"/><path d="m93.11 159.53c6.59.65 10 4.08 9.98 11.19-.01 6.23-.93 12.46-1.52 18.68-1.42 15.03-3.51 30.04-4.12 45.11-.48 11.92 1.08 23.91 1.3 35.87.32 17.73 6.12 34.22 10.79 50.99 1.73 6.22 1.91 12.55.7 18.94-.42 2.2-1.35 3.2-3.57 3.6-6.24 1.14-6.17 1.2-8.95-4.55-4.66-9.62-5.98-20.08-7.88-30.4-5.33-28.94-7.25-58.15-6.65-87.53.42-20.43 3.11-40.57 9.23-60.14.2-.61.47-1.2.69-1.76z"/><path d="m163.08 208.61c0 6.04.1 12.08-.02 18.12-.17 8 .96 15.77 2.96 23.51 2.35 9.08 4.56 18.21 6.34 27.42 1.89 9.76 5.82 18.67 9.79 27.68 2.71 6.17 4.48 12.81 6.16 19.37 1.41 5.51-3.23 7.61-7.49 6.31-1.21-.37-2.38-1.58-3.09-2.7-12.29-19.5-20.15-40.7-24.91-63.23-4.93-23.36-5.47-47.02-6.09-70.72-.17-6.64-.07-13.2 3.04-19.3.41-.79.7-1.72 1.31-2.32 1.24-1.22 2.62-3.13 4-3.18 2.75-.1 5.28 1.47 6.16 4.31.72 2.31 1.14 4.81 1.17 7.23.13 9.17.05 18.34.05 27.5z"/><path d="m111.93 109.66c.15 11.52-1.61 19.67-4.58 27.6-.12.31-.16.7-.37.93-6.72 7.36-13.4 14.9-22.75 18.94-2.87 1.24-6.56 1.14-9.8.85-4.61-.4-5.6-1.91-4.89-6.41.15-.94 1.34-1.84 2.23-2.52 6.11-4.69 12.52-9.02 18.35-14.02 8.67-7.44 10.85-17.37 8.35-28.07-2.57-10.97-6.3-21.67-8.93-32.63-1.13-4.68-1.22-9.75-.94-14.59.23-4.02 2.28-4.87 5.63-2.62 2.13 1.43 4.4 3.48 5.29 5.77 6.21 16.05 12.05 32.26 12.41 46.77z"/><path d="m284.53 104.13c-5.87 1.32-11.22 2.95-16.69 3.65-12.13 1.55-24.3 1.54-36.37-.79-1.64-.32-3.26-.76-4.85-1.27-4.54-1.45-5.62-3.27-4.46-7.77.18-.69 1.03-1.29 1.68-1.78 4.51-3.39 9.68-2.56 14.8-2.37 13.06.49 26.13.92 39.2 1.16 3.21.06 4.97 1.05 5.39 4.3.16 1.29.66 2.55 1.3 4.87z"/></g><path d="m377.9 391.2c-.2.3-.4.5-.6.8-.7-.6-1.4-1-2.2-1.5.2-.3.4-.5.5-.8.6.4 1.4.8 2.3 1.5zm-1.8 6.1c-.2-.2-.5-.4-.9-.6.4-.6.8-1.2 1.2-1.9s.7-1.3.9-1.9c.3.3.5.5.8.7-.7 1.3-1.4 2.6-2 3.7zm2.2-9c-.3.3-.5.5-.6.8-.6-.6-1.3-1.1-2-1.5.3-.3.5-.5.6-.7.6.5 1.3.9 2 1.4zm.3.2v-.9h2 4.5c-.3 1.3-.6 2.5-1 3.6s-.9 2.1-1.4 3c.4.5 1 1 1.6 1.4s1.2.8 1.9 1.1c-.3.2-.5.4-.8.8-.4-.3-1-.7-1.6-1.2s-1.2-1.1-1.6-1.6c-.5.6-1.1 1.1-1.7 1.6s-1.4.9-2.1 1.4c-.1-.3-.3-.5-.7-.8.6-.2 1.2-.5 1.9-1s1.4-1.1 2-1.8c-.5-.8-.9-1.6-1.2-2.5s-.6-2-.8-3.2c-.4.1-.7.1-1 .1zm2.5 2.7c.3 1 .7 1.7 1 2.2.3-.5.6-1.1 1-2s.6-1.9.9-3h-3.2-.4c.1.9.3 1.8.7 2.8z" fill="#fcfbfa"/><path d="m396.5 388.5v1.5 3.6h1.5v.9c-.4 0-1 0-1.7 0h-7.9c-.5 0-.9 0-1.2 0v-.9h1.3v-3.5c0-.7 0-1.2 0-1.6h2.4c0-.8 0-1.4 0-1.7h1c0 .3-.1.8-.1 1.7h1.5c0-.8 0-1.4 0-1.7h1c0 .3-.1.9-.1 1.7zm-8.2 9.2c-.2-.3-.5-.5-.8-.8.8-.3 1.4-.6 1.9-.9s1-.7 1.4-1.1c.3.3.6.5.9.8-1.6 1-2.8 1.6-3.4 2zm2.6-6.8v-1.6h-1.5v1.6zm0 2.7v-1.9h-1.5v1.9zm2.4-2.7v-1.6h-1.5v1.6zm0 2.7v-1.9h-1.5v1.9zm.2 2 .7-.8c.4.2.9.5 1.6.8s1.3.7 1.8 1c-.3.3-.5.5-.8.8-.4-.3-1.5-1-3.3-1.8zm2-4.7v-1.6h-1.4v1.6zm0 2.7v-1.9h-1.4v1.9z" fill="#fcfbfa"/></svg>