<svg enable-background="new 0 0 400 400" viewBox="0 0 400 400" xmlns="http://www.w3.org/2000/svg"><g fill="#010103"><path d="m222.09 133.08c19.9 1.07 39.63-2.72 58.89 2 0-6.81.05-13.37-.08-19.93-.01-.73-.94-1.7-1.69-2.12-1.64-.93-3.39-1.75-5.19-2.32-7.75-2.46-12.15-7.91-14.42-15.48-3.7-12.32-3.97-24.59-.13-36.96 1.11-3.58 4.21-2.78 6.54-3.47.56-.17 2.12 1.78 2.65 2.99 2.45 5.64 3.23 11.61 2.81 17.71-.51 7.39.55 14.29 5.63 20.09.44.5.82 1.06 1.22 1.6.28-.07.57-.15.85-.22 0-1.13-.03-2.27 0-3.4.43-15.77.64-31.54 1.4-47.29.35-7.26 2.42-14.27 6.22-20.59 8.81 2.32 9 1.52 9.08 9.73.11 12.05-1.17 24.1-1.54 36.17-.28 9.02-.05 18.05-.05 27.52 4.04-1.38 7.57-2.49 8.24-6.84 1.22-7.93 2.09-15.92 3.52-23.81.68-3.76 1.73-7.7 3.68-10.91 2.52-4.15 5.62-3.93 7.54.44 1.86 4.22 3.53 8.83 3.81 13.37.63 10.18-1.76 19.94-5.94 29.28-2.09 4.67-5.76 7.25-10.35 8.88-2.52.9-5.12 1.64-7.52 2.81-.92.45-1.89 1.85-1.93 2.85-.36 7.6-.55 15.21-.66 22.81-.02 1.24.25 2.77.99 3.7 8.12 10.28 10.34 22.26 9.35 34.8-.52 6.59-2.55 13.08-4.17 19.55-1.1 4.37-4.27 7.13-8.14 9.29-9.29 5.2-19.4 7.33-29.85 8.03-16.16 1.07-32.06-.01-47.87-4.17-13.23-3.48-18.64-12.54-20.32-24.81-1.79-13.1-.03-25.89 4.91-38.15.88-2.18 2.82-3.96 4.4-5.81 3.31-3.88 5.37-7.84 4.46-13.4-.69-4.19.26-8.65.5-13.32-3.22-1.29-6.54-2.93-10.04-3.96-5.06-1.49-8.02-5.01-10.33-9.38-4.27-8.08-5.1-16.85-4.89-25.74.1-4.11.68-8.25 1.49-12.28 1.27-6.3 2.14-6.88 9.03-7.73 3.15 6.11 4.6 12.65 4.62 19.57.01 3.79-.13 7.64.46 11.35.89 5.65 3.81 9.3 9.73 12.9.42-5.21 1.65-10.09 1.04-14.72-1.72-13.05-4.21-25.99-6.38-38.98-.4-2.41-.98-4.85-.95-7.27.05-3.03 1.32-5.65 4.19-7.17 3.22-1.7 5.13-1.19 6.96 1.91 4.57 7.72 5.99 16.35 6.74 25.05.98 11.35 1.52 22.74 2.26 34.12.06.89-.07 2.01.42 2.59.78.92 1.94 1.92 3.03 2.04.76.08 2.24-1.12 2.44-1.97 1.3-5.63 2.52-11.3 3.41-17.01.72-4.62.44-9.46 1.59-13.94.71-2.77 3.04-5.28 5.08-7.52 1.52-1.66 3.22-1.19 4.6.92 3.11 4.74 4.75 9.93 4.77 15.5.04 10.54-2 20.68-7.03 30.04-.8 1.48-2.16 2.82-3.57 3.77-4.46 2.99-9.09 5.71-13.58 8.65-.82.53-1.78 1.6-1.81 2.45-.21 5.32-.12 10.67-.12 16.19zm25.99 67.49c.05-.23.1-.47.15-.7 5.13-.32 10.35-.12 15.36-1.07 7.3-1.39 14.47-3.52 21.63-5.55 1.05-.3 2.31-1.58 2.57-2.63 2.35-9.37 3.47-18.89 2.76-28.56-.47-6.35-3.24-11.06-9.7-12.96-2.14-.63-4.27-1.67-6.44-1.77-11.81-.54-23.63-.93-35.46-1.18-3.32-.07-6.78-.02-9.94.82-5.05 1.35-9.93 3.36-14.82 5.24-1.03.39-2.3 1.26-2.63 2.2-3.56 10.22-4.98 20.67-2.05 31.27 1.56 5.64 4.61 10.09 11.15 10.97 9.14 1.22 18.27 2.6 27.42 3.92z"/><path d="m149.17 135.72c12.63-1.91 15.91-6.89 19.04-20.21 2.29-9.77-.95-19.13-4.23-28.15-3.35-9.22-7.66-18.08-11.33-27.19-1.16-2.87-1.73-6-2.32-9.06-.5-2.63.07-5.06 3.05-5.89 2.64-.73 4.89-.86 6.83 2.18 9.17 14.37 16.04 29.68 19.77 46.32 3.15 14.04 2.08 27.93-3.4 41.14-2.4 5.79-7.97 9.42-13.77 11.63-5.17 1.97-10.74 2.9-16.56 4.4-.85 6.61-1.92 13.54-2.61 20.52-1.37 13.91-3.43 27.83-3.52 41.76-.11 16.4 1.22 32.84 2.55 49.21 1.28 15.75 3.91 31.37 10.24 45.98 5.73 13.22 12.26 26.08 18.33 39.15 1.07 2.3 1.89 4.79 2.31 7.29.39 2.32.18 4.99-2.49 6-2.76 1.05-5.34.62-7.54-1.83-7.48-8.34-12.83-17.96-17.52-28.05-6.71-14.41-9.14-30.11-13.9-45.1-4.79-15.1-5.35-30.8-6.58-46.38-1.22-15.42-1.51-30.89.7-46.25 2.05-14.28 4.79-28.45 6.84-42.73 2.36-16.4 3.95-32.88 2.4-49.5-1.02-10.95-4.7-21.16-9.02-31.11-3.02-6.96-6.58-13.69-10.19-20.38-2.22-4.12-1.87-7.81.32-11.74 1.19-2.14 2.9-2.79 4.64-1.57 2.76 1.94 6.11 3.9 7.53 6.71 8.44 16.64 17.45 33.27 19.58 52.12 1.33 11.82.64 23.88.85 35.83.02 1.57 0 3.12 0 4.9z"/><path d="m211.93 262.49c1.73-7.93 1.02-15.77-.96-23.54-2.04-8.01-1.79-15.66 2.69-22.95 1.66-2.71 3.25-2.56 5.3-.81 3.39 2.89 4.63 6.92 5 11.04.94 10.35 1.71 20.73 2.16 31.11.13 3.12.98 4.55 4.32 4.52 2.97-5.89 3.77-12.38 4.36-18.94.2-2.22.33-4.48.82-6.65 1.12-4.99 4.29-7.3 9.71-7.05 4.05 12.92 5.4 25.85-2.27 37.97-1.77 2.79-5.54 5.09-8.83 5.97-5.72 1.52-7.01 4.74-7.67 10.19-2.07 17.31-4.83 34.54-7.5 51.77-1.5 9.71-3.26 19.39-5.13 29.04-.36 1.85-1.5 3.82-2.85 5.15-3.75 3.71-7.63 2.81-8.66-2.22-.75-3.62-.73-7.55-.27-11.24 2.7-21.52 5.64-43.01 8.49-64.52.38-2.88.49-5.82 1.1-8.65.76-3.52-.82-5.56-3.68-7.03-.89-.46-1.84-.85-2.81-1.08-8.57-2.04-12.79-8.07-14.63-16.14-2.11-9.26-1.59-18.4 1.64-27.39.67-1.85 1.67-2.38 3.47-2.26 1.75.12 3.33-.21 4.25 2.16 2.54 6.5 2.98 13.26 3.26 20.09.22 5.39 2.59 9.41 7.87 11.35.2.1.43.08.82.11z"/><path d="m278.95 262.02c2.37-7.28 2.71-14.12 1.88-21.02-1.04-8.67.2-16.9 4.34-24.88 4.29.9 7.53 3.4 8.1 7.48.73 5.22.38 10.6.32 15.91-.07 6.45-.46 12.9-.38 19.35.02 1.29 1.48 3.58 2.38 3.64 2.33.14 5.32.43 6-3.14.99-5.25 2.12-10.48 3.07-15.73.56-3.07.57-6.27 1.45-9.23.52-1.76 1.98-3.55 3.51-4.63 2.66-1.87 4.46-1.28 5.83 1.65 6 12.9 4.2 25.34-3.08 37.02-2.47 3.97-7.07 5.59-11.81 6.29-5.96.88-5.79 1-6.46 7.02-1.38 12.39 1.04 24.53 2.26 36.74 1.48 14.79 3.42 29.53 5 44.3.25 2.39-.07 4.94-.64 7.29-.89 3.73-3.17 5.1-6.91 4.85-1.92-.13-2.85-.92-3.47-2.88-3.63-11.6-5.11-23.56-6.43-35.57-.94-8.55-2.55-17.05-3.18-25.62-.7-9.57-.89-19.2-.77-28.8.05-3.84-.99-5.98-4.63-7.08-11.42-3.45-15.22-12.27-15.74-23.09-.26-5.45-.05-10.94.19-16.4.16-3.45 2.56-5.93 5.9-6.7 1.96-.45 3.67-.16 4.17 2.13.96 4.44 2.14 8.87 2.61 13.37.49 4.66.12 9.45 2.97 13.54.95 1.34 2.11 2.52 3.52 4.19z"/><path d="m113.52 164.13c-1.04 7.22-2.35 14.6-3.14 22.04-2.89 27.01-3.45 54.01 1.13 80.93 1.26 7.38 2.52 14.77 3.48 22.19 1.05 8.14 4 15.54 8.03 22.58 2.87 5.01 5 10.22 4.91 16.14-.03 2.3-.52 4.49-2.93 5.07-2.49.6-5.02.53-7.01-1.82-6.72-7.95-10.58-17.27-13.45-27.11-4.65-15.96-6.69-32.38-8.67-48.8-1.12-9.32-2.35-18.71-2.25-28.06.13-12.15 1.47-24.29 2.4-36.43.44-5.79.72-11.65 1.84-17.33 1.02-5.19 2.94-10.23 4.76-15.22.64-1.76 1.27-4.15 4.44-3.27 3.13.86 5.76 1.91 6.24 5.55.16 1.09.15 2.21.22 3.54z"/><path d="m171.7 196.38c0 3.58.18 7.17-.03 10.73-.92 15.78 2.35 31.14 4.42 46.63 1.57 11.74 3.02 23.48 7.88 34.49 2.24 5.09 4.52 10.24 5.96 15.58.99 3.67.6 7.72.79 11.6.13 2.63-1.69 4.11-3.79 4.35-1.86.21-4.6-.16-5.63-1.38-2.48-2.94-4.91-6.3-6.07-9.9-5.58-17.32-10.89-34.74-13.71-52.79-2.83-18.16-4.03-36.43-4.03-54.8 0-8.49-.46-17.02.27-25.45.42-4.84 2.8-9.52 4.31-14.26.74-2.32 2.44-2.28 4.3-1.64 3.48 1.19 5.28 3.72 5.3 7.34.06 9.83.02 19.67.02 29.5z"/><path d="m73.39 153.04c7.93-6.84 15.73-13.39 23.31-20.17 5.33-4.77 8.49-10.8 9.52-17.99.65-4.51.02-8.7-2.01-12.68-3.56-6.96-7.45-13.76-10.77-20.83-1.72-3.67-2.99-7.71-3.55-11.72-.33-2.36 1.14-4.96 1.86-7.67 5.62 1.49 9.36 4.23 11.47 8.63 5.16 10.76 10.16 21.59 15 32.5 2.05 4.62 2.1 9.63.95 14.51-2.21 9.45-5.25 18.5-13.04 25.11-4.26 3.62-8.12 7.75-12.63 11.02-3.08 2.24-6.8 3.92-10.49 4.9-6.39 1.7-7.46.81-9.62-5.61z"/><path d="m279.79 174.96c-6.2 3.29-12.69 4.32-19.28 4.77-11.96.83-23.92 1.28-35.6-2.3-1.9-.58-3.73-.99-3.58-3.88.22-4.52 1.99-7.33 7.19-7.47 13.06-.38 26.14-.43 39.19.05 5.28.2 10.3 2.37 12.08 8.83z"/></g><path d="m377.9 391.2c-.2.3-.4.5-.6.8-.7-.6-1.4-1-2.2-1.5.2-.3.4-.5.5-.8.6.4 1.4.8 2.3 1.5zm-1.8 6.1c-.2-.2-.5-.4-.9-.6.4-.6.8-1.2 1.2-1.9s.7-1.3.9-1.9c.3.3.5.5.8.7-.7 1.3-1.4 2.6-2 3.7zm2.2-9c-.3.3-.5.5-.6.8-.6-.6-1.3-1.1-2-1.5.3-.3.5-.5.6-.7.6.5 1.3.9 2 1.4zm.3.2v-.9h2 4.5c-.3 1.3-.6 2.5-1 3.6s-.9 2.1-1.4 3c.4.5 1 1 1.6 1.4s1.2.8 1.9 1.1c-.3.2-.5.4-.8.8-.4-.3-1-.7-1.6-1.2s-1.2-1.1-1.6-1.6c-.5.6-1.1 1.1-1.7 1.6s-1.4.9-2.1 1.4c-.1-.3-.3-.5-.7-.8.6-.2 1.2-.5 1.9-1s1.4-1.1 2-1.8c-.5-.8-.9-1.6-1.2-2.5s-.6-2-.8-3.2c-.4.1-.7.1-1 .1zm2.5 2.7c.3 1 .7 1.7 1 2.2.3-.5.6-1.1 1-2s.6-1.9.9-3h-3.2-.4c.1.9.3 1.8.7 2.8z" fill="#fcfbfa"/><path d="m396.5 388.5v1.5 3.6h1.5v.9c-.4 0-1 0-1.7 0h-7.9c-.5 0-.9 0-1.2 0v-.9h1.3v-3.5c0-.7 0-1.2 0-1.6h2.4c0-.8 0-1.4 0-1.7h1c0 .3-.1.8-.1 1.7h1.5c0-.8 0-1.4 0-1.7h1c0 .3-.1.9-.1 1.7zm-8.2 9.2c-.2-.3-.5-.5-.8-.8.8-.3 1.4-.6 1.9-.9s1-.7 1.4-1.1c.3.3.6.5.9.8-1.6 1-2.8 1.6-3.4 2zm2.6-6.8v-1.6h-1.5v1.6zm0 2.7v-1.9h-1.5v1.9zm2.4-2.7v-1.6h-1.5v1.6zm0 2.7v-1.9h-1.5v1.9zm.2 2 .7-.8c.4.2.9.5 1.6.8s1.3.7 1.8 1c-.3.3-.5.5-.8.8-.4-.3-1.5-1-3.3-1.8zm2-4.7v-1.6h-1.4v1.6zm0 2.7v-1.9h-1.4v1.9z" fill="#fcfbfa"/></svg>