<svg enable-background="new 0 0 400 400" viewBox="0 0 400 400" xmlns="http://www.w3.org/2000/svg"><g fill="#010103"><path d="m260.34 267.34c9.07 0 17.66-.07 26.24.04 3.33.04 6.68.3 9.96.81 1.46.23 3.08 1.03 4.12 2.08 4.08 4.09 5.65 7.42-1.21 10.11-6.28 2.46-12.75 1.71-19.22 1.53-6.24-.17-12.49-.04-18.96-.04v23.26c9.8 1.67 19.59 1.5 29.43.99 4.77-.24 9.64-.13 14.34.6 5.28.81 9.23 3.77 10.45 9.65-7.77 4.36-16.19 6.2-24.83 6.16-15.09-.07-30.18-.84-45.28-1.15-8.72-.18-17.44-.03-26.74-.03-.19 4.93-.51 9.78-.55 14.65-.08 8.84.17 17.69-.09 26.52-.1 3.29-1.02 6.62-2.04 9.78-.36 1.11-2.05 2.28-3.3 2.51-1.97.37-4.12.6-5.53-1.85-3.2-5.56-3.99-11.51-3.8-17.78.4-13.3.77-26.59.95-39.89.23-17.12.19-34.25.39-51.38.15-13.08.65-26.16.73-39.24.07-13.3 3.14-25.78 10.22-37.01 2-3.17 5.59-5.34 8.79-8.29-3.41-3.75-6.9-7.57-10.65-11.7-2.94 6.34-5.65 12.21-8.38 18.07-1.04 2.23-1.93 4.56-3.24 6.62-1.49 2.33-3.01 4.97-5.21 6.43-2.34 1.56-5.49 1.89-8.29 2.76-.59-2.53-2.07-5.26-1.57-7.56 1.1-5.05 2.61-10.2 5.01-14.75 4.99-9.49 10.48-18.72 16.14-27.83 1.84-2.96 4.66-5.44 7.39-7.71 6.42-5.35 12.68-11.04 19.7-15.48 10.02-6.33 20.35-5.59 30.13 1.32 11.63 8.21 21.16 18.33 27.36 31.2 1.88 3.9 2.29 8.53 3.27 12.85.4 1.75-.51 2.75-2.13 3.63-6.33 3.45-13.24 3.78-20.17 4.23-2.78.18-5.58.46-8.32.96-5.31.96-5.73 1.52-6.5 7.43 8.65 3.05 17.38 6.07 26.07 9.21 9.24 3.33 18.53 6.57 27.61 10.32 2.3.95 4.14 3.51 5.67 5.7 1.5 2.15.62 3.83-2.03 4.76-6.43 2.25-12.82 1.87-19.07-.33-11.06-3.89-22.04-8.02-33.05-12.06-1.13-.41-2.24-.87-3.95-1.53v23.69c7.07 0 14.29-.03 21.51.01 4.12.02 8.25-.05 12.34.34 1.65.16 3.4 1.18 4.76 2.25 4.96 3.88 4.47 7.99-1.04 10.8-6.39 3.26-12.98 2.2-19.7 1.48-4.61-.49-9.33-.04-13.99.21-.76.04-2.02 1.21-2.09 1.95-.67 6.65-1.1 13.33-1.65 20.7zm-22.82-93.06c5.24-2.33 7.73-6.02 7.49-11.47-.08-1.79-.47-3.63-.19-5.36.83-5.14 1.84-10.25 3-15.33.15-.64 1.61-1.46 2.39-1.39 3.83.35 6.95 3.11 7.62 6.94.42 2.39.24 4.88.25 7.33.03 4.97.01 9.94.01 15.24 7.37-1.31 13.86-2.46 20.87-3.7-4.82-7.09-9.17-13.73-13.78-20.17-2.79-3.9-6.65-6.54-11.22-8.18-3.78-1.36-7.27-1.26-10.98.52-7.96 3.82-13.63 10.33-20.09 16.07 4.94 6.58 9.7 12.93 14.63 19.5zm-18.33 54.73c9.03 0 17.02.06 25.01-.13.56-.01 1.56-1.89 1.55-2.89-.15-8.26-.46-16.51-.8-24.77-.04-.92-.25-2.13-.85-2.69-3.02-2.78-6.19-5.38-9.08-7.84-5.81 2.85-9.22 6.98-10.25 13.1-.47 2.83-1.87 5.5-2.47 8.32-1.17 5.53-2.06 11.11-3.11 16.9zm29.2 76.38c-.54-7.77-.96-14.88-1.62-21.98-.07-.77-1.4-1.94-2.24-2.02-5.1-.51-10.23-.76-15.35-1.08-3.4-.21-6.8-.38-10.22-.57v25.66c9.8-.01 19.36-.01 29.43-.01zm-29.49-35.93c8.63-.73 17.06-1.39 25.48-2.27.83-.09 2.12-1.56 2.15-2.42.2-5.58.18-11.17.01-16.74-.03-.84-1.17-2.3-1.89-2.35-8.52-.67-17.06-1.14-25.76-1.66.01 8.62.01 16.94.01 25.44z"/><path d="m128.19 224.96c.22-23.54 2.5-46.89 6.17-70.15 1.86-11.81 2.52-23.8 3.85-35.7 1.04-9.36 2.01-18.65.17-28.07-2.1-10.75-5.59-20.86-11.13-30.37-2.67-4.57-4.62-9.63-6.37-14.66-1.69-4.87 2.1-8.19 6.62-5.72 2.64 1.44 5.36 3.38 7.06 5.79 15.68 22.23 19.62 47.31 17.37 73.82-.24 2.79-.63 5.58-.59 8.36.02 1.29.73 3.49 1.46 3.64 1.25.25 3.19-.38 4.1-1.34 5.05-5.35 8.98-11.41 10.71-18.7 1.4-5.9.28-11.51-1.55-17.13-3.57-10.94-7.15-21.89-10.39-32.93-.7-2.4-.39-5.31.2-7.81.67-2.83 3.11-4.15 5.99-4.69 2.78-.52 3.75 1.52 4.91 3.22 6.97 10.17 10.29 21.78 12.93 33.6 1.17 5.23 1.7 10.59 2.68 15.87 1.98 10.72-2.36 19.94-6.77 29.14-.45.93-1.47 1.64-2.36 2.29-7.31 5.36-14.61 10.73-22.01 15.96-2.06 1.46-3.06 3.06-3.36 5.66-2.19 19.45-5.13 38.84-6.76 58.33-2.5 29.8.61 59.06 12.13 86.95 7.8 18.89 16.22 37.53 24.2 56.35 1.1 2.59 1.79 5.61 1.67 8.38-.08 1.87-1.64 4.84-3.07 5.2-1.93.49-5.27-.35-6.44-1.84-3.69-4.71-7.43-9.66-9.76-15.11-7.22-16.84-14.34-33.75-20.49-51-8.88-24.95-11.47-50.98-11.17-77.34z"/><path d="m218.68 98.64c6.76-7.05 13.56-13.56 19.66-20.66 6.15-7.16 7.18-16.15 7.26-25.25.06-7.35-.9-14.8 1.96-21.9.21-.52.25-1.14.57-1.56 1.17-1.52.71-4.55 3.84-4.28 3.12.27 5.84 1.5 6.74 4.64.86 2.98 1.25 6.12 1.53 9.22.83 9.25 1.31 18.53 2.35 27.76.38 3.35 1.46 6.83 3.07 9.79 4.58 8.44 11.31 15.19 18.32 22.19 4.1-5.7 6.23-11.81 6.46-18.47.27-8.16 0-16.34.3-24.5.14-3.76 1.07-7.5 1.7-11.24.53-3.14 2.84-3.95 5.62-4.25 2.74-.3 3.9 1.16 4.88 3.46 4.45 10.38 5.04 21.08 2.41 31.89-2.34 9.65-5.16 19.19-7.95 28.72-.39 1.32-1.62 2.66-2.83 3.41-20.44 12.76-42.7 15.29-65.84 10.59-6.32-1.29-12.5-4.39-18.09-7.75-2.85-1.72-4.78-5.64-6.2-8.95-7.85-18.26-10.18-37.16-5.87-56.73.66-3 2.86-4.24 5.41-4.79 2.16-.46 3.96.2 5.01 2.71 3.9 9.31 4.13 18.86 2.73 28.67-1.4 9.78.44 18.9 6.96 27.28zm51.76 5.38c-6.23-7.21-11.96-13.85-17.85-20.67-6.28 7.03-12.35 13.81-18.97 21.21 1.8.47 2.88 1.04 3.95 1 10.69-.44 21.38-.99 32.87-1.54z"/><path d="m111.03 160.95c6.89.81 9.84 5.23 8.94 12.52-1.69 13.64-3.14 27.31-4.66 40.98-.68 6.11-1.73 12.22-1.85 18.35-.18 9.25-.41 18.59.67 27.75 1.84 15.52 4.37 30.98 7.27 46.34 1.19 6.29 4.05 12.27 6.25 18.36 1.76 4.85 2.43 9.73 1.04 14.79-.5 1.82-1.29 2.37-3.48 2.45-5.55.21-8.01-2.65-10.05-7.31-4.8-10.99-7.06-22.59-8.84-34.3-2.45-16.13-4.95-32.27-6.85-48.47-1.88-16.11.26-32.15 1.99-48.17.73-6.78 1.14-13.6 1.72-20.39.66-7.69 3.57-16.14 7.85-22.9z"/><path d="m161.2 169.61c7.02.51 9.82 2.89 9.83 9.24.01 9.28-.75 18.55-.98 27.83-.31 12.17-1.08 24.37-.48 36.5.76 15.17 5.71 29.54 10.68 43.82 4.06 11.66 6.8 23.61 7.74 35.96.14 1.87-.11 3.17-2.08 3.38-2.25.25-4.59 3.56-6.76.14-2.32-3.66-5.21-7.26-6.37-11.31-5-17.38-10.31-34.75-13.9-52.45-4.72-23.21-6.39-46.8-2.54-70.41 1.25-7.67 3.24-15.21 4.86-22.7z"/><path d="m99.65 55.97c3.47 3.23 7.45 6.06 10.31 9.76 9.07 11.7 14.8 24.97 16.3 39.79.31 3.07-.75 6.32-1.38 9.44-.28 1.4-1.2 2.66-1.58 4.05-4.41 16.11-16.29 26.89-27.39 38.18-3.48 3.54-7.71 6.2-12.79 6.87-2.67.35-5.69 1.25-7.31-2.19-1.16-2.47-.14-6.58 2.33-8.85 7.34-6.73 14.71-13.42 22.06-20.14 8.05-7.37 12.61-16.49 11.47-27.42-.55-5.28-2.91-10.48-5.07-15.45-2.72-6.24-6.31-12.09-9.04-18.32-1.21-2.76-1.66-6.05-1.62-9.09.03-2.09 1.51-4.17 2.34-6.25.45-.12.91-.25 1.37-.38z"/></g><path d="m377.9 391.2c-.2.3-.4.5-.6.8-.7-.6-1.4-1-2.2-1.5.2-.3.4-.5.5-.8.6.4 1.4.8 2.3 1.5zm-1.8 6.1c-.2-.2-.5-.4-.9-.6.4-.6.8-1.2 1.2-1.9s.7-1.3.9-1.9c.3.3.5.5.8.7-.7 1.3-1.4 2.6-2 3.7zm2.2-9c-.3.3-.5.5-.6.8-.6-.6-1.3-1.1-2-1.5.3-.3.5-.5.6-.7.6.5 1.3.9 2 1.4zm.3.2v-.9h2 4.5c-.3 1.3-.6 2.5-1 3.6s-.9 2.1-1.4 3c.4.5 1 1 1.6 1.4s1.2.8 1.9 1.1c-.3.2-.5.4-.8.8-.4-.3-1-.7-1.6-1.2s-1.2-1.1-1.6-1.6c-.5.6-1.1 1.1-1.7 1.6s-1.4.9-2.1 1.4c-.1-.3-.3-.5-.7-.8.6-.2 1.2-.5 1.9-1s1.4-1.1 2-1.8c-.5-.8-.9-1.6-1.2-2.5s-.6-2-.8-3.2c-.4.1-.7.1-1 .1zm2.5 2.7c.3 1 .7 1.7 1 2.2.3-.5.6-1.1 1-2s.6-1.9.9-3h-3.2-.4c.1.9.3 1.8.7 2.8z" fill="#fcfbfa"/><path d="m396.5 388.5v1.5 3.6h1.5v.9c-.4 0-1 0-1.7 0h-7.9c-.5 0-.9 0-1.2 0v-.9h1.3v-3.5c0-.7 0-1.2 0-1.6h2.4c0-.8 0-1.4 0-1.7h1c0 .3-.1.8-.1 1.7h1.5c0-.8 0-1.4 0-1.7h1c0 .3-.1.9-.1 1.7zm-8.2 9.2c-.2-.3-.5-.5-.8-.8.8-.3 1.4-.6 1.9-.9s1-.7 1.4-1.1c.3.3.6.5.9.8-1.6 1-2.8 1.6-3.4 2zm2.6-6.8v-1.6h-1.5v1.6zm0 2.7v-1.9h-1.5v1.9zm2.4-2.7v-1.6h-1.5v1.6zm0 2.7v-1.9h-1.5v1.9zm.2 2 .7-.8c.4.2.9.5 1.6.8s1.3.7 1.8 1c-.3.3-.5.5-.8.8-.4-.3-1.5-1-3.3-1.8zm2-4.7v-1.6h-1.4v1.6zm0 2.7v-1.9h-1.4v1.9z" fill="#fcfbfa"/></svg>