<svg enable-background="new 0 0 400 400" viewBox="0 0 400 400" xmlns="http://www.w3.org/2000/svg"><g fill="#010103"><path d="m245.21 293.6c-1.7 13.72-3.21 27.04-5.06 40.31-1.26 9.05-2.79 18.09-4.64 27.03-.9 4.33-3.59 5.88-7.41 5.95-1.92.04-3.11-.7-3.27-2.51-.49-5.76-1.71-11.64-1.06-17.29 2.06-18.1 4.79-36.12 7.41-54.15.31-2.15.06-3.67-1.62-4.98-1.32-1.03-2.47-2.35-3.9-3.16-11.08-6.26-15.72-16.65-18.38-28.34-3.38-14.84-2.86-29.81-.91-44.71 1.11-8.5 3.14-16.89 5-25.27.38-1.69 1.61-3.4 2.9-4.63 8.47-8.07 19.03-11.52 30.33-11.49 11.69.03 23.39 1.33 35.05 2.43 6.46.61 10.84 4.46 14 10.19 5.01 9.09 7.83 18.77 8.58 29.02 1.48 20.05-.17 39.71-7.45 58.72-2.26 5.91-6.04 10.22-11.25 13.17-6.64 3.77-8.11 8.51-6.77 16.11 3.18 18.04 5.24 36.28 7.56 54.46.39 3.04.17 6.28-.47 9.28-.34 1.59-1.93 3.28-3.41 4.17-3.38 2.04-5.11 1.37-6.93-2.11-3.93-7.51-4.71-15.76-5.65-23.99-1.78-15.54-3.64-31.08-5.43-46.62-.18-1.6-.36-2.77-2.5-2.58-4.79.44-9.59.66-14.72.99zm41.36-74.85c-22.12.81-44.02 1.62-66.15 2.43.37 7.01.72 13.55 1.07 19.95h65.08c0-7.48 0-14.71 0-22.38zm-64.37-12.52h64.29c.73-11.36-4.2-18.26-14.85-20.61-9.89-2.19-19.92-2.84-29.92-1.02-4.88.89-9.68 2.33-14.38 3.94-1.28.44-2.64 2.25-2.94 3.65-.98 4.55-1.48 9.22-2.2 14.04zm-.01 49.01c2.54 5.86 4.77 11.19 7.19 16.44.46 1.01 1.53 1.88 2.52 2.48 13.97 8.43 32.36 7.5 45.41-2.27.58-.44 1.18-1.08 1.4-1.75 1.56-4.85 3.02-9.74 4.61-14.9-20.44 0-40.49 0-61.13 0z"/><path d="m154.63 138.67c4.1-.84 7.56-1.29 10.84-2.33 1.38-.44 2.67-1.94 3.46-3.28 4.14-7.01 5.05-14.73 2.94-22.37-3.63-13.12-8-26.04-11.93-39.08-1.06-3.52-1.91-7.13-2.42-10.77-.5-3.54 1.04-5.44 4.33-6.59 2.18-.76 3.68-.41 5.1 1.65 5.54 8.01 9.05 16.94 12.09 26.07 3.78 11.36 7.03 22.84 8.16 34.84.68 7.22-1.44 13.96-3.01 20.79-.25 1.07-1.29 2.06-2.16 2.87-7.1 6.67-15.45 10.96-25.01 12.84-1.79.35-3.21.6-3.44 3.13-1.79 19.26-4.18 38.48-5.6 57.77-2.52 34.15-1.42 68.14 10.41 100.72 5.78 15.92 13.51 31.13 20.26 46.71 1.09 2.52 2 5.22 2.41 7.92.41 2.64-.27 5.43-3.4 6.1-2.92.62-5.51.16-7.45-2.92-13.36-21.29-22.96-44.16-29.46-68.4-6.61-24.67-8.7-49.68-6.68-75.14 1.43-18.05 2.2-36.15 3.38-54.22 1.15-17.64 2.75-35.26 3.52-52.91.24-5.57-1.23-11.29-2.43-16.83-3.34-15.47-9.46-29.77-18.63-42.75-1.79-2.53-3.33-5.35-4.36-8.26-1.17-3.33-.78-7.44 2.02-9.2 1.57-.99 5.66.6 7.72 2.19 2.74 2.11 4.91 5.17 6.79 8.16 3.27 5.2 5.74 10.93 9.26 15.93 6.12 8.7 6.79 19 9.52 28.72 3.53 12.49 5.02 25.17 3.77 38.64z"/><path d="m254.57 132.94c-13.95 15.98-30.82 26.43-50.72 31.92-3.61.99-7.52.87-11.28 1.3-2.66.31-4.23-.65-4.49-3.47-.11-1.2-.52-2.38-.83-3.72 9-6.84 18.68-12.44 29.68-15.05 12.31-2.92 21.38-9.21 25.89-21.38 2.43-6.55 3.41-13.63 2.66-22.41-8.96 4.41-18.65 2.64-28.01 3.53.48 7.75 4.47 11.57 13.08 12.64 1.44.18 2.9.27 4.32.56 3.44.7 4.88 2.71 5.33 6.34.45 3.57-1.75 4.7-4.46 5.55-7.86 2.47-15.33 1.05-22.29-2.87-1.77-.99-2.94-3.31-4.02-5.22-5.61-9.92-7.89-20.88-9.34-31.99-1.94-14.79-2.73-29.64-.82-44.51.26-1.99.64-3.97 1.07-5.94 1.35-6.29 1.37-6.29 8-7.46 2.71 4.23 3.51 9.01 3.57 13.97.05 4.13-.02 8.26-.1 12.39-.08 3.75 2.26 5.39 5.45 5.38 5.11-.02 10.23-.43 15.31-.99 5.86-.65 9.84 1.99 11.16 7.62.41 1.74.16 2.87-1.67 3.23-5.24 1.04-10.47 2.19-15.75 2.96-3.96.57-7.99.62-12.03.9v13.29c4.1.34 7.88 1.12 11.59.87 7.06-.47 13.86-.47 19.66 4.65.34-.13.68-.25 1.02-.38.27-6.73.93-13.48.7-20.19-.26-7.59-1.38-15.15-1.99-22.73-.59-7.33.03-14.56 3.11-21.34.95-2.09 1.16-5.35 4.94-4.78 4.1.61 7.2 3.16 7.65 6.87.4 3.32.63 6.69.59 10.04-.22 16-.86 32-.75 47.99.09 12.45 1.74 24.74 7.29 36.2 5.92 12.23 16.1 19.48 28.24 24.43 5.27 2.15 10.75 3.77 15.99 5.97 2.32.97 4.55 2.5 6.35 4.26 3.54 3.45 2.44 7.75-2.14 9.29-5.95 1.99-11.76 1.27-17.27-1.41-8.14-3.96-16.33-7.86-24.16-12.39-3.05-1.77-5.31-5.04-7.66-7.85-4.36-5.22-8.52-10.62-12.87-16.07z"/><path d="m100.23 239.29c1.16-11.21 2.52-24.65 3.94-38.09.73-6.89 1.56-13.77 2.37-20.66.77-6.54 2.96-12.61 6.55-18.11.53-.82 2.14-1.51 3.12-1.37 5 .72 7.5 3.95 7.04 9.63-.45 5.67-1.64 11.27-2.25 16.93-2.23 20.66-4.77 41.3-6.38 62.01-1.27 16.3 2.81 32.17 5.46 48.17 2.59 15.63 3.92 31.46 5.8 47.21.41 3.39-2.49 4.15-4.56 4.82-2.09.68-4.31-.12-5.61-2.5-3.63-6.7-5.36-13.94-6.33-21.41-2.17-16.62-4.51-33.23-6.35-49.89-1.26-11.42-1.78-22.94-2.8-36.74z"/><path d="m175.62 204.96c.22 13.96.18 27.92.71 41.87.82 21.37 6.98 41.55 14.42 61.4 2.23 5.96 4.24 12 6.34 18.01 1.35 3.85 1 5.02-2.53 6.52-2.8 1.19-5.16-.06-6.49-2.5-4-7.35-8.15-14.65-11.58-22.27-7.89-17.55-10.88-36.31-12.77-55.28-2.33-23.42-2.69-46.88-1.46-70.38.44-8.37 2.29-16.31 6.66-23.61 1.34-2.23 2.64-2.3 4.59-1.26 2.79 1.48 3.87 4.07 3.98 6.94.19 4.8.15 9.61-.02 14.41-.31 8.72-.78 17.43-1.19 26.14-.2 0-.43.01-.66.01z"/><path d="m302.9 29.03c5.93.63 8.94 3.22 9.15 8.63.73 19.44 1.64 38.9-.63 58.29-.98 8.39-3.68 16.36-7.97 23.67-2.45 4.18-6.65 6.63-11.2 7.25-5.33.72-10.83.43-16.24.21-3.16-.13-4.77-2.5-4.76-5.47.01-2.87.73-5.47 4.51-5.8 2.88-.25 5.71-1.33 8.58-1.44 5.8-.22 8.65-3.48 10-8.65.28-1.07.48-2.15.82-3.7-1.78-.16-3.39-.42-5-.43-5.03-.02-10.07.2-15.1.02-2.05-.07-4.24-.58-6.05-1.5-2.66-1.35-3.13-4.17-2.45-6.72.32-1.19 2.06-2.37 3.41-2.86 6.19-2.24 12.48-3.32 19.05-1.39 3.64 1.07 6.2-.24 7.34-3.9 1.01-3.25 1.37-6.7 2.16-10.78-7.1-.15-13.53-.24-19.96-.46-1.99-.07-4.11-.14-5.9-.87-1.53-.62-3.08-1.96-3.9-3.39-2.16-3.79-1.15-6.67 3.03-7.43 4.65-.84 9.52-1.11 14.24-.83 9.67.57 11.01-.33 11.93-9.84.73-7.67 1.33-15.37 4.94-22.61z"/><path d="m124.63 118.4c-.63 9.44-2.53 17.19-8.96 22.96-5.99 5.37-12 10.75-18.37 15.65-5.48 4.22-11.89 5.94-18.95 5.14-3.06-.35-3.89-2.09-3.52-4.53.49-3.23 1.82-5.84 4.9-7.89 7.97-5.32 15.8-10.9 23.28-16.88 7.78-6.22 8.87-14.65 5.12-23.35-2.66-6.19-6.34-11.99-9.98-17.7-3.07-4.83-6.67-9.31-6.38-15.48.16-3.43 2.61-5.5 5.78-4.28 2.41.93 5.08 2.29 6.6 4.26 7.85 10.2 15.32 20.71 18.7 33.42.87 3.21 1.35 6.53 1.78 8.68z"/></g><path d="m377.9 391.2c-.2.3-.4.5-.6.8-.7-.6-1.4-1-2.2-1.5.2-.3.4-.5.5-.8.6.4 1.4.8 2.3 1.5zm-1.8 6.1c-.2-.2-.5-.4-.9-.6.4-.6.8-1.2 1.2-1.9s.7-1.3.9-1.9c.3.3.5.5.8.7-.7 1.3-1.4 2.6-2 3.7zm2.2-9c-.3.3-.5.5-.6.8-.6-.6-1.3-1.1-2-1.5.3-.3.5-.5.6-.7.6.5 1.3.9 2 1.4zm.3.2v-.9h2 4.5c-.3 1.3-.6 2.5-1 3.6s-.9 2.1-1.4 3c.4.5 1 1 1.6 1.4s1.2.8 1.9 1.1c-.3.2-.5.4-.8.8-.4-.3-1-.7-1.6-1.2s-1.2-1.1-1.6-1.6c-.5.6-1.1 1.1-1.7 1.6s-1.4.9-2.1 1.4c-.1-.3-.3-.5-.7-.8.6-.2 1.2-.5 1.9-1s1.4-1.1 2-1.8c-.5-.8-.9-1.6-1.2-2.5s-.6-2-.8-3.2c-.4.1-.7.1-1 .1zm2.5 2.7c.3 1 .7 1.7 1 2.2.3-.5.6-1.1 1-2s.6-1.9.9-3h-3.2-.4c.1.9.3 1.8.7 2.8z" fill="#fcfbfa"/><path d="m396.5 388.5v1.5 3.6h1.5v.9c-.4 0-1 0-1.7 0h-7.9c-.5 0-.9 0-1.2 0v-.9h1.3v-3.5c0-.7 0-1.2 0-1.6h2.4c0-.8 0-1.4 0-1.7h1c0 .3-.1.8-.1 1.7h1.5c0-.8 0-1.4 0-1.7h1c0 .3-.1.9-.1 1.7zm-8.2 9.2c-.2-.3-.5-.5-.8-.8.8-.3 1.4-.6 1.9-.9s1-.7 1.4-1.1c.3.3.6.5.9.8-1.6 1-2.8 1.6-3.4 2zm2.6-6.8v-1.6h-1.5v1.6zm0 2.7v-1.9h-1.5v1.9zm2.4-2.7v-1.6h-1.5v1.6zm0 2.7v-1.9h-1.5v1.9zm.2 2 .7-.8c.4.2.9.5 1.6.8s1.3.7 1.8 1c-.3.3-.5.5-.8.8-.4-.3-1.5-1-3.3-1.8zm2-4.7v-1.6h-1.4v1.6zm0 2.7v-1.9h-1.4v1.9z" fill="#fcfbfa"/></svg>