<svg enable-background="new 0 0 400 400" viewBox="0 0 400 400" xmlns="http://www.w3.org/2000/svg"><g fill="#010103"><path d="m307.35 86.93c.47-6.31.81-11.78 1.34-17.22.17-1.73.34-4.02 1.45-4.98 1.68-1.45 4.11-2.25 6.35-2.8 2.4-.58 2.78 1.82 3.48 3.32 2.77 5.98 2.65 12.4 2.52 18.78-.28 13.65-.49 27.3-.97 40.94-.62 17.51-3.09 34.74-8.56 51.45-.31.95-.52 2.04-1.13 2.76-6.47 7.71-6.33 16.6-4.83 25.8.8 4.89 2.07 9.35 5.46 13.37 2.33 2.77 4.05 6.64 4.57 10.23 1.08 7.45.52 11.26-6.16 14.66-6.16 3.13-12.51 5.9-18.82 8.71-2.85 1.27-5.85 2.22-8.75 3.39-7.41 3.01-7.52 3.05-5.96 10.69.29 1.44 1.66 3.16 2.99 3.81 7.22 3.55 14.61 6.75 21.88 10.2 1.35.64 2.67 1.65 3.62 2.8 6.39 7.79 9.4 16.9 10.19 26.84 1.44 18.19 2.82 36.37 2.24 54.64-.11 3.5-1.38 5.35-4.17 5.65-2.95.32-5.17-1.56-5.96-4.86-3.17-13.27-3.23-26.83-4.09-40.33-.6-9.44-2.85-18.57-6.62-27.23-1.96-4.49-5.47-7.52-10.35-8.84-4.2-1.14-8.46-2.16-12.49-3.76-8.66-3.44-12.79-10.2-12.69-19.37.05-4.22.88-8.43 1.3-12.66.39-3.93 2.8-6.35 6.22-7.53 5.88-2.04 11.93-3.58 17.84-5.57 4.3-1.45 8.66-2.92 12.64-5.05 3.29-1.76 3.57-4.4 1.87-7.75-.1-.2-.19-.42-.35-.57-8.67-8.34-8.5-19.46-9.51-30.21-.24-2.55-.57-5.09-.88-7.85-2.15-.24-4.24-.41-6.31-.73-1.74-.27-2.55.22-3.04 2.07-1.58 5.94-3.55 11.77-5.1 17.72-1.29 4.93-3.75 9.1-7.39 12.54-3.65 3.45-7.49 6.72-11.31 9.99-.83.71-1.88 1.28-2.93 1.57-3.09.83-4.88-.84-5.29-3.89-.74-5.44.87-9.46 5.72-12.28 3.74-2.17 5.7-5.54 6.57-9.92 1.15-5.79 2.9-11.48 4.66-17.14.62-2 .1-3.08-1.38-4.25-2.81-2.22-5.36-4.79-8.3-6.82-4.02-2.78-5.97-6.66-7.46-11.12-5.43-16.24-6.83-32.99-6.79-49.97.05-20.87 1.43-41.59 7.03-61.82.5-1.8 1.73-3.6 3.08-4.94 8.43-8.38 18.98-11.8 30.55-12.91 10.49-1.01 20.97-1.79 31.44-.08 1.94.32 3.94.94 5.65 1.89 2.51 1.4 3.15 3.88 2.85 6.66-.29 2.64-2.45 3.21-4.32 3.45-6.52.84-13.07 1.63-19.63 1.99-8.26.45-8.28.27-8.27 8.44 0 5.49.09 10.97-.05 16.45-.05 2.1.69 3.21 2.53 4.14 4.47 2.32 8.82 4.79 13.82 7.5zm.45 46.11c-.6-10.99-1.07-20.48-1.71-29.96-.06-.92-1.05-2.47-1.75-2.56-7.63-.91-13.7-5.13-20.05-8.87-1.07-.63-3.01-.65-4.17-.13-6.51 2.95-12.87 6.23-19.36 9.23-1.81.84-2.42 1.91-2.41 3.84.05 12.41-.25 24.84.08 37.24.23 8.7 2.44 17.03 7.33 24.43.9 1.36 2 3.23 3.33 3.57 6.48 1.63 13.01 3.32 19.63 3.98 4.79.48 9.93-1.03 12.6-5.42 2.27-3.72 3.95-8.14 4.58-12.45 1.17-8.04 1.4-16.22 1.9-22.9zm-33.5-80.89c-9.23 1.65-13.14 7.45-14.02 15.82-.06.55-.25 1.09-.33 1.64-.85 5.64-1.4 11.27.53 17.11 4.6-2.46 9.04-4.78 13.4-7.22.62-.35 1.28-1.34 1.26-2.02-.21-8.46-.54-16.9-.84-25.33z"/><path d="m170.37 320.44c.88-8.42 1.99-16.82 2.57-25.27.56-8.09 1.62-16.04 4.78-23.54 2.84-6.74 7.26-11.66 15.19-12.44 1.43-.14 2.99-1.41 4.01-2.58.89-1.02 1.27-2.6 1.6-3.99 1.6-6.95 1.57-6.96-4.65-9.93-15.53-7.42-21.31-23.37-14.46-39.88 4.12-9.92 15.29-17.05 25.93-15.77 5.94.71 11.91 2.13 17.54 4.14 9.63 3.43 16.17 15 15.11 25.52-.19 1.89-.64 3.75-.83 5.63-.82 8.17-6.11 12.81-12.81 16.36-.59.31-1.19.61-1.79.91-8.73 4.35-8.78 4.35-8.97 14.05-.02.94.83 2.27 1.66 2.78 4.3 2.61 8.62 5.22 13.13 7.42 3.05 1.5 4.78 3.82 6.16 6.72 3.97 8.4 5.93 17.36 6.88 26.5 1.8 17.4 2.26 34.83.18 52.26-.03.22-.03.45-.05.67-.54 4.62-4.2 7.49-8.78 6.66-.72-.13-1.44-1.22-1.84-2.03-3.82-7.68-5.06-15.84-5.01-24.38.07-11.85-.11-23.7-.53-35.54-.14-4.09-1.12-8.2-2.06-12.21-1.07-4.56-3.73-7.96-9.17-10.05 0 6.18.03 11.83-.01 17.48-.14 23.16-.3 46.32-.48 69.48-.02 2.68-.14 5.38-.41 8.04-.14 1.42-.51 2.9-1.15 4.16-1.45 2.88-4.1 3.42-7.09 3.41-2.88-.01-3.05-2.3-3.64-4.06-3.03-8.91-3.78-18.17-3.53-27.48.53-19.46 1.31-38.92 1.9-58.38.09-2.89.02-5.87-.61-8.66-.34-1.49-2.03-2.68-3.1-4-1.1.93-2.52 1.66-3.24 2.83-5.1 8.2-7.08 17.4-7.49 26.84-.58 13.3-.48 26.62-.95 39.93-.14 4.09-1.02 8.18-1.89 12.2-.55 2.54-2.35 4.15-5.17 3.67-2.62-.45-4.84-1.25-5.06-4.71-.34-5.35-1.19-10.66-1.71-16.01-.17-1.75-.79-2.72-2.64-2.67-6.67.19-9.36-3.66-11.92-9.49-7.53-17.14-10.07-35.42-13.35-53.51-3.76-20.72-5.42-41.71-5.07-62.8.26-15.43 2.97-30.49 8.16-45.01.75-2.11 3.18-4.61 5.19-4.97 1.73-.31 4.76 1.75 5.75 3.56 1.33 2.43 2.32 5.94 1.61 8.47-5.66 20.2-5.15 41.01-6.3 61.61-.91 16.27 2.17 32.34 5.95 48.14 2.94 12.27 6.55 24.38 9.88 36.55.32 1.15.84 2.25 1.27 3.38.42.02.87 0 1.31-.01zm35.55-89.6c6.24.04 13.2-3.3 16.01-7.94 3.26-5.39 4.51-12.99-2.51-17.03-5.6-3.23-11.72-5.45-18.16-4.68-2.96.36-6.73 2.33-8.23 4.75-3.57 5.75-3.2 12.01.39 18.05 3.1 5.18 8.06 6.2 12.5 6.85z"/><path d="m137.56 132.26c9.22-2.18 12.46-6.06 13.35-15.52.84-8.89-.95-17.43-3.77-25.7-3.2-9.39-7.18-18.51-10.52-27.86-1.45-4.05-2.32-8.35-3.07-12.6-.49-2.8.75-5.09 3.75-5.89 2.75-.73 4.62 0 6.29 2.7 10.37 16.81 18.2 34.62 21.64 54.15 1.84 10.42 1.01 20.78-2.9 30.68-.87 2.21-2.59 4.62-4.59 5.75-6.69 3.8-13.64 7.15-20.59 10.48-1.71.82-2.53 1.64-2.66 3.6-.79 11.61-1.64 23.22-2.62 34.81-1.43 16.93-3.45 33.83-4.37 50.79-.96 17.68-.1 35.41 2.87 52.87 1.51 8.86 4.79 17.43 7.38 26.1 4.13 13.81 8.39 27.58 12.47 41.4.75 2.54 1.04 5.26 1.23 7.91.15 2.16.48 4.68-2.32 5.67-2.34.83-6.02-.82-7.46-3.22-6.45-10.79-11.56-22.19-15.46-34.14-5.95-18.27-9.26-37.05-10.99-56.16-1.95-21.43-3.05-42.91-1.16-64.37 1.3-14.8 3.63-29.51 5.6-44.25 2.41-17.98 5.18-35.99 3.58-54.15-2.05-23.23-5.34-46.29-18.32-66.57-2.4-3.76-5.32-7.18-8-10.76-2.7-3.61-2.85-7.46-.76-11.31.42-.78 2.12-1.69 2.7-1.41 3.06 1.44 6.57 2.65 8.81 5 13.67 14.34 21.09 31.76 25.15 51.01 3.3 15.67 4.04 31.47 4.56 47.35.05 1.21.12 2.41.18 3.64z"/><path d="m205.43 165.48c-7.45 7.09-14.57 14.14-22.02 20.84-4.61 4.14-10 7.18-16.26 8.21-1.42.23-2.97.46-4.31.12-1.77-.45-4.63-1.2-4.85-2.27-.54-2.59-1.06-5.5 1.98-7.79 7.41-5.59 14.17-12.09 21.83-17.29 10.38-7.04 14.01-17.06 15.5-28.74.76-5.93-.2-10.46-5.81-13.34-.88-.45-1.53-1.32-2.38-1.85-12.77-7.93-17.65-20.34-19.09-34.44-1.47-14.37.02-28.39 6.92-41.41.73-1.37 2-2.68 3.35-3.46 2.8-1.61 5.77-2.95 8.75-4.2 6.39-2.66 12.93-2.96 19.68-1.33 3.9.95 7.9 1.78 11.9 1.98 6.06.3 9.88 3.71 12.07 8.66 2.42 5.45 4.89 11.2 5.6 17.03 1.87 15.15.6 30.14-5.4 44.45-1.37 3.27-3.29 5.96-6.27 8.04-4.03 2.82-7.63 6.27-11.75 8.93-3.91 2.52-4.72 6.06-4.42 10.1.55 7.38 3.18 14.13 6.91 20.46.6 1.02 1.57 1.89 2.54 2.62 6.88 5.18 13.82 10.28 20.7 15.47 4.95 3.74 8.89 8.22 9.71 14.69.48 3.81-.39 5.3-4.15 5.09-3.19-.18-7.03-.91-9.31-2.87-10.76-9.23-23.23-16.55-31.42-27.7zm-20.33-85.41h39.18c-.41-5.33-.43-10.14-1.23-14.81-1.35-7.88-4.37-10.58-12.28-12.03-.88-.16-1.76-.39-2.64-.45-6.4-.47-12.99-1.99-18.5 2.99-.69.62-1.67 1.35-1.78 2.13-1.01 7.39-1.86 14.82-2.75 22.17zm38.18 15.22c-12.21-2.83-24.19-1.25-36.7-2.66.91 3.73 1.52 6.87 2.45 9.92 2.33 7.67 8.05 11.46 15.6 12.2 5.2.51 9.82-1.95 12.59-6.29 2.45-3.81 3.87-8.27 6.06-13.17z"/><path d="m82.3 239.31c.4-23 2.65-47.01 8.84-70.51 1.07-4.07 3.12-7.88 4.61-11.84.68-1.8 1.64-2.26 3.56-1.78 4.08 1.04 6.25 2.97 5.96 7.23-.47 6.78-1.45 13.53-2.47 20.26-2.45 16.25-5.41 32.43-7.39 48.74-.85 7.03-.39 14.36.5 21.43 2.61 20.73 5.52 41.43 8.79 62.06 1.08 6.79 4.04 13.27 5.37 20.04.9 4.61.49 9.48.61 14.24.05 2.12-1.27 2.68-3.19 3.02-6.92 1.21-6.83 1.26-9.66-5.18-4.32-9.84-5.79-20.38-7.73-30.81-4.65-25.01-7.5-50.21-7.8-76.9z"/><path d="m106.61 106.48c-.11 9.37-2.23 19.32-7.44 28.27-3.75 6.45-9.43 11.26-16.02 14.88-.19.11-.41.18-.62.26-4.06 1.55-7.69 1.07-9.14-1.21-1.93-3.04-1.14-7.92 1.57-10.83 3.96-4.25 8.13-8.35 11.67-12.93 7.92-10.26 8.14-21.75 3.82-33.38-2.17-5.83-5.31-11.31-8.21-16.84-2.81-5.37-4.16-10.77-1.91-16.73.97-2.56 2.46-3.48 4.77-2.09 2.16 1.3 4.76 2.57 6 4.58 8.54 13.8 15.44 28.26 15.51 46.02z"/><path d="m264.63 116.33c9.97-6.66 20.56-5.52 31.19-3.25 2.64.56 4.55 2.36 5.18 5.17.59 2.64.13 4.66-2.59 6.11-5.94 3.16-12.25 3.22-18.63 2.56-3.43-.36-6.79-1.29-10.2-1.91-2.47-.45-4.01-1.59-4.1-4.35-.06-1.53-.58-3.03-.85-4.33z"/><path d="m285.87 142.25c3.44.34 6.92.48 10.31 1.1 1.67.31 3.41 1.23 4.71 2.35 3.68 3.17 3.14 6.55-1.12 8.65-7.99 3.95-16.24 3.46-24.57 1.43-1.84-.45-3.6-1.36-5.46-1.58-3.58-.43-3.95-2.75-3.47-5.48.17-.99.93-2.35 1.76-2.66 5.73-2.2 11.38-4.92 17.84-3.81z"/></g><path d="m385.2 377.6.6-.7c.6.4 1.3.9 1.9 1.5l-.6.7c-.8-.5-1.4-1-1.9-1.5zm.3 7.1c.6-1.4 1.1-2.9 1.5-4.5.3.1.6.3.9.4-.5 1.4-1 2.9-1.5 4.4zm.2-10.1.6-.6c.7.5 1.3 1.1 1.9 1.6l-.7.7c-.6-.6-1.2-1.2-1.8-1.7zm8.4-.8h.8v.9h1.8v.7h-1.8v1.8h-.8v-.3h-1.2v.9h3.3v2.6h-.8v-.4h-2.5c0 .3 0 .6-.1.8h3.4v.7h-3.5c0 .3-.1.6-.1.8h4v.7h-3.5c.7.9 1.9 1.3 3.6 1.5-.2.2-.4.5-.6.9-1.9-.3-3.2-1.1-3.8-2.3-.5 1.1-1.8 2-3.9 2.4-.2-.3-.4-.5-.6-.8 1.9-.4 3.1-.9 3.6-1.7h-3.2v-.7h3.5c.1-.2.1-.5.2-.8h-3.3v-.7h3.4c0-.2 0-.5 0-.8h-2.4v.3h-.8v-2.6h3.3v-.9h-1.2v.3h-.8v-1.8h-1.8v-.7h1.8v-.9h.8v.9h3.2zm-4.4 5.5h2.4c0-.3 0-.6 0-.9h-2.4zm1.2-3.1h3.2v-.8h-3.2zm4.4 2.2h-2.4v.9h2.5v-.9z" fill="#fcfbfa"/><path d="m389.2 385.8h.9v1.5h1.9v-1.5h.9v1.5h2.7v6h1.1v.9h-11.3v-.9h1.1v-6h2.7zm.2 8.7.5.8c-1.2.6-2.5 1.3-4 1.9-.2-.3-.3-.6-.6-.8 1.6-.6 3-1.3 4.1-1.9zm-2-4.3h1.9v-2.1h-1.9zm0 3.1h1.9v-2.2h-1.9zm2.7-3.1h1.9v-2.1h-1.9zm0 3.1h1.9v-2.2h-1.9zm2.4 1.3c1.4.6 2.7 1.2 4.1 1.8l-.5.9c-1.5-.7-2.8-1.4-4.1-1.9zm2.2-6.5h-1.9v2.1h1.9zm-1.9 5.2h1.9v-2.2h-1.9z" fill="#fcfbfa"/></svg>