<svg enable-background="new 0 0 400 400" viewBox="0 0 400 400" xmlns="http://www.w3.org/2000/svg"><path d="m362.1 8.8c1.1.8 2.1 1.6 3.1 2.4l-1 1.1c-1.3-1.1-2.3-2-3-2.5zm1.9 4.8c.5.2.9.4 1.4.5-.6 2.3-1.3 4.5-1.9 6.8l-1.5-.5c.8-2.1 1.4-4.3 2-6.8zm-1-9.4c1.3.9 2.4 1.8 3.4 2.5l-1 1.1c-1.4-1.2-2.4-2.1-3.2-2.6zm3.7 2.2v-1.4h10.3v1.2c-.5 3.6-1.8 6.8-4 9.4 1.5 1.6 3.4 2.8 5.7 3.8-.3.4-.7.8-1.1 1.4-2.3-1.1-4.1-2.5-5.6-4.1-1.6 1.6-3.6 3.1-5.9 4.3-.3-.5-.7-.9-1-1.3 2.4-1.1 4.4-2.5 6-4.1-1.9-2.5-3-5.6-3.3-9.3h-1.1zm8.8 0h-6.4c.3 3.3 1.3 6 3 8.2 2-2.3 3.1-5.1 3.4-8.2z" fill="#fbfcfa"/><path d="m385.3 3.8h1.3v2.2h2.8v-2.2h1.3v2.2h4.1v9.1h1.7v1.3h-16.9v-1.3h1.7v-9.1h4.1v-2.2zm.4 13.1.7 1.2c-1.8.9-3.8 1.9-6 2.9-.2-.4-.5-.8-.8-1.3 2.3-1 4.3-1.9 6.1-2.8zm-3.1-6.4h2.8v-3.2h-2.8zm0 4.6h2.8v-3.3h-2.8zm4-4.6h2.8v-3.2h-2.8zm0 4.6h2.8v-3.3h-2.8zm3.7 1.9c2.1.9 4.1 1.8 6.1 2.7l-.7 1.3c-2.2-1.1-4.2-2-6.1-2.9zm3.2-9.7h-2.8v3.2h2.8zm-2.8 7.8h2.8v-3.3h-2.8z" fill="#fbfcfa"/><g fill="#010106"><path d="m139.59 211.03c7.6.57 14.93 1.12 22.61 1.7.25-5.91.51-11.58.72-17.25.14-3.91.09-7.84.35-11.74.15-2.2-.52-2.81-2.74-2.99-6.32-.51-12.86-.52-18.88-2.24-16.77-4.79-24.15-19.17-18.96-35.6.37-1.18 1.25-2.34 2.18-3.19 6.95-6.32 15.3-9.43 24.52-10.62 6.21-.8 12.36-2.16 18.59-2.61 6.22-.46 12.49-.1 18.93-.1 0-4.54.24-8.3-.06-12.01-.45-5.52.38-10.65 3.12-15.51 1-1.77 2.11-2.27 4.06-1.75 5.48 1.47 7.85 4.61 7.31 10.32-.35 3.67-1.12 7.29-1.48 10.96-.23 2.3-.04 4.63-.04 7.16 8.84.76 17.33 1.11 25.7 2.31 7.61 1.09 15.21 2.65 22.59 4.78 10.4 3 18.53 13.93 19.25 24.77.5 7.56-4.38 15.11-12.45 18.6-5.97 2.58-12.18 4.41-18.83 4.17-2.77-.1-5.54-.02-8.66-.02-.37 10.54-.72 20.79-1.09 31.5 5.1.25 10.08.5 15.07.74 1.56.08 3.14.03 4.69.24 1.95.27 2.85-.25 2.98-2.4.29-5.02.77-10.04 1.22-15.05.14-1.55.34-3.11.65-4.63.46-2.28 1.8-4.37 4.15-4.05 2.18.3 4.86 1.39 6.1 3.04 1.5 2.01 2.25 4.94 2.42 7.53.84 12.83 1.79 25.67 1.93 38.52.15 14.39-2.21 28.52-6.72 42.22-.42 1.28-1.35 2.57-2.4 3.44-7.96 6.65-17.06 10.34-27.53 9.07-6.8-.83-11.34 1.27-14.48 7.5-2.04 4.06-5.12 7.59-7.73 11.36-.12.18-.16.41-.39 1.04 3.68 2.97 7.44 6.06 11.27 9.07 7.04 5.53 14.33 10.76 21.09 16.61 3.84 3.32 6.97 7.5 10.1 11.55.9 1.17 1.41 4.26.85 4.64-1.88 1.28-4.56 2.74-6.49 2.27-3.36-.82-6.75-2.56-9.47-4.73-15.9-12.72-31.64-25.65-47.36-38.59-1.69-1.39-3.16-3.16-4.37-4.99-3.25-4.96-6.37-10-9.38-15.1-1.05-1.78-1.99-2.08-4.02-1.45-9.24 2.9-18.32 1.81-27.22-1.62-5.71-2.2-9.03-6.62-11.39-12.07-3.75-8.66-5.26-17.82-5.64-27.11-.77-19.13-.81-38.27 2.51-57.23.68-3.89 4.69-6.59 7.98-5.41 2.08.74 3.24 1.97 3.37 4.4.33 6.68.93 13.36 1.47 20.55zm56.9 89.86c2.8-4.36 6.01-8.18 7.94-12.56 6.81-15.48 9.54-31.9 9.43-48.71-.22-32.34-.77-64.67-1.19-97.01-.01-.42-.14-.84-.26-1.53-11.75-.35-23.4-.7-34.98-1.05 0 8.05-.19 15.76.03 23.45.99 33.42.04 66.89 3.52 100.25 1.43 13.79 4.4 26.42 15.51 37.16zm-34.22-159.88c-3.06.4-4.95.58-6.81.9-6.38 1.1-12.84 2-18.41 5.65-1.11.73-2.45 1.95-2.63 3.1-1 6.39 1.98 11.31 8.03 13.56 5.7 2.12 11.54 3.67 17.64 1.87.87-.26 2.07-1.47 2.09-2.26.15-7.46.09-14.92.09-22.82zm66-.11v25.33c7.4 1.22 16.09-.07 21.29-3.2 1.02-.61 2.19-1.36 2.7-2.35 2.82-5.45.37-12.1-5.43-14.13-5.97-2.11-12.13-3.72-18.56-5.65zm-60.75 135.85c-.59-6.81-1.14-13.22-1.73-20.1-8.56 0-16.84 0-25.38 0 1.27 5.19 2.47 10.29 3.8 15.35.15.58.92 1.32 1.5 1.42 7.13 1.16 14.27 2.2 21.81 3.33zm-27.14-51.44v18.9c8.28-.56 16.34-1.11 25.07-1.71-.52-4.7-.74-9.14-1.64-13.44-.3-1.44-2.28-3.51-3.59-3.58-6.51-.37-13.05-.17-19.84-.17zm85.89 31.44c-.75 6.57-1.53 13.49-2.35 20.73 3.62-.39 6.7-.81 9.79-1.04 10.55-.8 13.24-5.97 15.31-15.18.82-3.66-.33-4.59-4.03-4.53-6.01.09-12.02.02-18.72.02zm24.57-13.94c-.44-5.13-.59-9.68-1.37-14.12-.23-1.29-2.24-3.14-3.53-3.21-6.08-.34-12.18-.15-18.3-.15v17.48z"/><path d="m309.1 372.2c-.89.29-1.72.58-2.57.84-6.4 1.96-6.86 2.13-9.07-4.07-2-5.61-3.8-11.61-4.02-17.49-1.62-43.71-2.84-87.44-4.17-131.16-1.02-33.55-2.05-67.1-2.99-100.65-.07-2.52-.64-3.8-3.4-4.2-12.6-1.84-25.23-3.55-37.71-5.99-5.7-1.12-11.28-3.42-16.57-5.91-6.57-3.08-7.63-9.45-7.78-15.92-.13-5.13.08-10.27-.13-15.39-.03-.78-1.54-2.15-2.39-2.16-16.78-.34-33.56-.52-50.33-.72-.21 0-.42.11-1.04.28-.38 5.96-.77 12.05-1.16 18.14-.06.89-.19 1.8-.09 2.68 1.26 11.84-5.99 18.01-15.28 22.64-10.61 5.29-22.12 7.66-33.64 9.97-3.81.77-7.59 1.73-11.47 2.63-.29 14.8-.5 29.34-.87 43.88-1.42 55.25-2.9 110.51-4.32 165.76-.21 8.26-.08 16.53-.33 24.8-.08 2.53-.53 5.18-1.45 7.52-.78 1.98-2.16 4.03-3.85 5.27-4 2.94-7.69 1.6-8.55-3.21-.7-3.91-.79-8-.61-11.99.69-15.3 2-30.59 2.36-45.89 1.27-53.91 2.3-107.83 3.28-161.75.23-12.75-.19-25.5-.16-38.26.03-12.69 2.79-24.84 7.85-36.46.51-1.17 1.4-2.28 2.37-3.12 7.92-6.83 17.27-10.37 27.46-12.4 16.5-3.28 33.15-5.06 49.92-5.69 2.83-.1 3.86-1.48 3.95-3.81.1-2.66.04-5.37-.35-8-.84-5.67-.17-10.98 3.36-15.6.65-.85 2.42-1.5 3.47-1.28 5.89 1.27 7.82 4.94 6.99 11.64-.55 4.4-.62 8.87-.74 13.31-.07 2.73 1.33 3.55 4.2 3.66 17.09.66 34.18 1.31 51.23 2.58 9.13.68 18.05 2.82 26.56 6.6 13.04 5.78 19 16.63 22.27 29.64 3.38 13.43 3.04 27.13 2.37 40.73-1.35 27.33.2 54.58 1.24 81.85 1.2 31.31 2.52 62.61 3.78 93.91.8 19.79 1.59 39.58 2.38 59.37.03 1.08 0 2.18 0 3.42zm-154.54-300.8c-12.47-2.44-22.34-.83-35.58 5.26-8.34 3.83-13.16 9.98-14.17 19.11-.01.11-.06.22-.08.33-.56 4.73-1 9.45.73 13.97 8.24-1.88 16.18-3.68 24.12-5.49 7.26-1.65 14.15-4.15 19.98-8.96.81-.67 1.81-1.58 1.95-2.5 1.11-7.15 2.03-14.34 3.05-21.72zm131.7 28.73c-.59-3.31-.91-6.28-1.66-9.13-2.43-9.23-8.24-14.87-17.85-16.29-2.21-.33-4.42-.67-6.63-1.03-8.56-1.38-17.13-2.77-26.75-4.33 1.05 7.22 1.92 13.93 3.11 20.57.19 1.08 1.7 2.56 2.79 2.74 15.42 2.57 30.87 4.94 46.99 7.47z"/></g></svg>