<svg enable-background="new 0 0 400 400" viewBox="0 0 400 400" xmlns="http://www.w3.org/2000/svg"><path d="m361.2 9.6.8-1c.9.7 1.9 1.4 2.9 2.3l-.9 1.1c-1-1-2-1.8-2.8-2.4zm.5 10.6c.9-2.1 1.6-4.3 2.3-6.7.4.2.8.4 1.3.6-.7 2.1-1.5 4.3-2.2 6.6zm.4-15.2.9-.9c1 .8 2 1.6 2.8 2.4l-1 1c-.9-.9-1.8-1.7-2.7-2.5zm12.5-1.2h1.2v1.4h2.7v1.1h-2.7v2.7h-1.2v-.6h-1.8v1.3h4.9v3.8h-1.2v-.5h-3.7c0 .4-.1.9-.1 1.2h5.1v1h-5.2c0 .5-.1.9-.2 1.2h6v1h-5.2c1.1 1.3 2.9 2 5.5 2.2-.4.4-.7.8-.9 1.3-2.9-.5-4.8-1.6-5.7-3.5h-.1c-.8 1.7-2.7 2.9-5.9 3.6-.2-.4-.6-.8-.9-1.1 2.8-.6 4.6-1.4 5.4-2.5h-4.8v-1h5.3c.1-.3.2-.7.2-1.2h-4.9v-1h5c0-.4 0-.8.1-1.2h-3.5v.5h-1.2v-3.8h4.9v-1.3h-1.8v.5h-1.2v-2.7h-2.7v-1h2.6v-1.4h1.2v1.4h4.7v-1.4zm-6.6 8.3h3.6c0-.4 0-.9 0-1.4h-3.6zm1.9-4.6h4.7v-1.3h-4.7zm6.6 3.2h-3.7v1.4h3.7z" fill="#fbfcfa"/><path d="m385.3 3.8h1.3v2.2h2.8v-2.2h1.3v2.2h4.1v9.1h1.7v1.3h-16.9v-1.3h1.7v-9.1h4.1v-2.2zm.4 13.1.7 1.2c-1.8.9-3.8 1.9-6 2.9-.2-.4-.5-.8-.8-1.3 2.3-1 4.3-1.9 6.1-2.8zm-3.1-6.4h2.8v-3.2h-2.8zm0 4.6h2.8v-3.3h-2.8zm4-4.6h2.8v-3.2h-2.8zm0 4.6h2.8v-3.3h-2.8zm3.7 1.9c2.1.9 4.1 1.8 6.1 2.7l-.7 1.3c-2.2-1.1-4.2-2-6.1-2.9zm3.2-9.7h-2.8v3.2h2.8zm-2.8 7.8h2.8v-3.3h-2.8z" fill="#fbfcfa"/><g fill="#010102"><path d="m247.62 64.24c-8.79 0-17.17.06-25.54-.01-11.08-.09-22.16-.17-33.24-.52-3.07-.1-6.17-.94-9.16-1.77-2.47-.69-3.75-2.59-4.01-5.23-.25-2.59.92-3.97 3.08-5.3 2.6-1.61 5.17-2.22 8.19-2.22 35.61.07 71.22.02 106.83.07 4.92.01 9.85.24 14.75.63 5.92.46 8.94 3.13 9.09 7.47.07 1.87-.5 3.04-2.27 3.98-6.17 3.3-12.74 3.69-19.55 3.52-10.83-.27-21.67-.21-32.51-.27-.64 0-1.28.18-1.91.28 0 4.42-.07 8.64.02 12.86.13 6.71.42 13.42.52 20.14.03 1.86.52 2.87 2.54 3.12 7.09.9 14.13 2.38 21.24 2.83 14.2.91 23.49 7.99 27.77 21.34 1.86 5.81 3.59 11.94 3.71 17.96.23 11.82-.72 23.66-1.16 35.49-.14 3.68-.32 7.36-.25 11.04 1.06 50.8 2.16 101.6 3.25 152.4.02.77 0 1.53 0 2.55-2.18.5-4.21 1.14-6.28 1.35-.88.09-2.4-.48-2.7-1.15-1.7-3.93-4.26-7.93-4.47-12.01-1.3-25.36-2.1-50.76-2.98-76.14-.48-13.87-.84-27.74-1.15-41.62-.04-1.89-.58-3.03-2.23-4.03-7.16-4.37-14.31-8.77-21.32-13.36-11.01-7.2-18.72-17.14-23.73-29.49-.36.28-.76.45-.95.75-9.84 15.51-22.81 27.93-38.41 37.38-6.68 4.04-8.46 8.82-8.54 16.45-.34 33.23-1.43 66.46-2.53 99.68-.19 5.64-1.6 11.27-2.76 16.84-.36 1.74-1.45 3.61-2.76 4.83-3.78 3.54-8.69 2.22-9.25-2.77-.79-7.07-1.73-14.4-.75-21.36 4.45-31.85 3.3-63.88 3.61-95.85.27-27.76.03-55.52.13-83.28.03-7.72 1.68-15.27 5.91-21.74 4.45-6.81 11.29-11.02 18.72-14.12 7.9-3.3 16.4-3.24 24.72-4.08 4.78-.48 4.76-.34 4.98-5.25.42-9.28.9-18.56 1.34-27.84.04-.88.01-1.76.01-3.55zm-40.54 128.83c7.79-5.87 14.56-11.6 21.95-16.35 7.22-4.64 11-11.18 13.13-19.02.85-3.11 1.57-6.33 1.76-9.53.61-10.67.96-21.35 1.4-31.92-9.72-1.69-21.12.71-30.71 5.94-2.12 1.16-3.37 2.56-4 4.92-4.38 16.32-6.29 32.92-5.52 49.78.23 5.18 1.24 10.33 1.99 16.18zm95.03-.42c0-15.33.32-30.19-.16-45.03-.2-6.04-1.84-12.11-3.38-18.02-1.36-5.24-4.98-8.96-10.04-10.99-8.19-3.28-16.79-2.71-25.68-2.85.33 3.55.61 6.65.92 9.75.96 9.68.91 19.6 3.11 28.98 4.34 18.48 15.59 31.52 35.23 38.16z"/><path d="m127.63 261.7c-1.84 8.64-3.69 16.32-5.1 24.08-3.11 17.08-10.76 32.36-18.45 47.65-4.71 9.38-9.19 18.88-13.95 28.24-1.87 3.68-4.41 6.82-9.23 6.64-5.01-.18-6.2-1.63-5.45-6.48 1.59-10.29 6.81-19.09 11.51-28.09 8.14-15.57 16.29-31.23 20.39-48.38 3.23-13.55 5.47-27.4 7.12-41.24 3.71-31.11 1.69-62.37 1.78-93.58.07-23.49.73-46.99.89-70.48.06-8.49-.31-17-.95-25.46-.7-9.33.25-18.27 3.98-26.92.93-2.15 2.08-2.56 4.1-1.76 4.13 1.62 6.65 4.63 7.11 8.97.45 4.21.55 8.48.56 12.72.07 21.26-.02 42.51.12 63.77.12 17.79.11 35.6.85 53.38.71 17.1 2.41 34.15 3.5 51.23 1.65 25.58 9.09 50.1 13.47 75.19 2.94 16.86 10.03 32.13 18.09 47.04 5.28 9.76 9.88 19.78 12.1 30.77.65 3.21-.09 5.26-2.95 6.51-2.69 1.18-6.16-.13-7.79-2.65-15.19-23.54-24.98-49.39-32.44-76.21-2.87-10.33-5.48-20.74-8.21-31.11-.23-.97-.52-1.92-1.05-3.83z"/><path d="m159.95 89.03c7.03 1.13 10.13 4.13 10.5 10.86.27 5-.1 10.04-.35 15.06-.25 4.89-1.03 9.77-1.05 14.66-.1 31.99-.05 63.98-.05 95.97 0 4.42-4.45 7.41-8.21 5.34-1.06-.58-1.91-2.08-2.27-3.32-3.81-13.41-5.73-27.12-5.56-41.05.29-24.49.74-48.97 1.23-73.46.17-8.36 2.18-16.33 5.76-24.06z"/><path d="m99.85 171.97c-.52 14.74-1.31 29.3-4.4 43.76-1.13 5.3-4.43 6.65-8.56 7.71-.63.16-2.04-.58-2.24-1.19-1.2-3.64-3.31-7.47-2.99-11.05 2.48-27.96.35-55.93.49-83.88.03-6.1-1.37-12.2-2.09-18.3-.67-5.66-.17-11.2 2.2-16.41.37-.81 2.01-1.67 2.91-1.52 5.35.86 8.76 4.33 9.19 9.64 1.9 23.74 3.67 47.5 5.49 71.24z"/></g></svg>