<svg enable-background="new 0 0 400 400" viewBox="0 0 400 400" xmlns="http://www.w3.org/2000/svg"><path d="m361.2 9.6.8-1c.9.7 1.9 1.4 2.9 2.3l-.9 1.1c-1-1-2-1.8-2.8-2.4zm.5 10.6c.9-2.1 1.6-4.3 2.3-6.7.4.2.8.4 1.3.6-.7 2.1-1.5 4.3-2.2 6.6zm.4-15.2.9-.9c1 .8 2 1.6 2.8 2.4l-1 1c-.9-.9-1.8-1.7-2.7-2.5zm12.5-1.2h1.2v1.4h2.7v1.1h-2.7v2.7h-1.2v-.6h-1.8v1.3h4.9v3.8h-1.2v-.5h-3.7c0 .4-.1.9-.1 1.2h5.1v1h-5.2c0 .5-.1.9-.2 1.2h6v1h-5.2c1.1 1.3 2.9 2 5.5 2.2-.4.4-.7.8-.9 1.3-2.9-.5-4.8-1.6-5.7-3.5h-.1c-.8 1.7-2.7 2.9-5.9 3.6-.2-.4-.6-.8-.9-1.1 2.8-.6 4.6-1.4 5.4-2.5h-4.8v-1h5.3c.1-.3.2-.7.2-1.2h-4.9v-1h5c0-.4 0-.8.1-1.2h-3.5v.5h-1.2v-3.8h4.9v-1.3h-1.8v.5h-1.2v-2.7h-2.7v-1h2.6v-1.4h1.2v1.4h4.7v-1.4zm-6.6 8.3h3.6c0-.4 0-.9 0-1.4h-3.6zm1.9-4.6h4.7v-1.3h-4.7zm6.6 3.2h-3.7v1.4h3.7z" fill="#fbfcfa"/><path d="m385.3 3.8h1.3v2.2h2.8v-2.2h1.3v2.2h4.1v9.1h1.7v1.3h-16.9v-1.3h1.7v-9.1h4.1v-2.2zm.4 13.1.7 1.2c-1.8.9-3.8 1.9-6 2.9-.2-.4-.5-.8-.8-1.3 2.3-1 4.3-1.9 6.1-2.8zm-3.1-6.4h2.8v-3.2h-2.8zm0 4.6h2.8v-3.3h-2.8zm4-4.6h2.8v-3.2h-2.8zm0 4.6h2.8v-3.3h-2.8zm3.7 1.9c2.1.9 4.1 1.8 6.1 2.7l-.7 1.3c-2.2-1.1-4.2-2-6.1-2.9zm3.2-9.7h-2.8v3.2h2.8zm-2.8 7.8h2.8v-3.3h-2.8z" fill="#fbfcfa"/><g fill="#010102"><path d="m317.43 372.8c-3.85.76-6.68 1.32-9.65 1.9-4.59-7.06-5.33-14.77-5.03-22.86.39-10.83.5-21.67.45-32.51-.12-24.39-.33-48.78-.67-73.17-.27-19.81-.77-39.63-5.21-59.06-1.41-6.17-3.18-12.34-5.56-18.19-2.02-4.98-6.22-8.33-11.22-10.56-7.12-3.18-14.27-6.34-21.24-9.84-2.08-1.05-3.78-3.06-5.35-4.89-2.19-2.54-3.98-5.41-6.16-7.96-3.82-4.49-6.68-9.17-7.02-15.43-.28-5.06-2.74-6.75-7.85-6.48-10.95.57-21.88 1.52-32.83 1.94-3.6.14-7.35-.49-10.83-1.49-1.79-.52-3.63-2.34-4.58-4.05-2.01-3.64-1.02-6.01 3.04-6.78 6.67-1.26 13.43-2.28 20.19-2.79 8.69-.65 17.42-.7 26.13-1 2.47-.09 3.7-1.16 4.01-3.8 1.09-9.31 2.41-18.59 3.68-28.21-6.76 0-13.21-.23-19.64.06-7.26.33-14.48 1.52-21.73 1.59-3.52.03-7.23-1.24-10.55-2.63-3.23-1.35-4.86-4.4-5.64-8.1 6.43-2.86 13.13-4.22 19.89-4.6 16.74-.96 33.51-1.6 50.28-2.16 13.98-.47 27.96-.68 41.95-.89 2.16-.03 2.9-.83 3.19-2.87.75-5.2 1.56-10.4 2.65-15.53.55-2.56 1.78-4.98 2.7-7.46 4.84.45 7.62 2.79 8.69 7.06.54 2.16 1.2 4.39 1.19 6.59-.07 13.98-.03 27.97-.64 41.93-.21 4.93-2.17 9.77-3.26 14.67-.71 3.19-2.66 5.15-5.49 6.66-10.53 5.64-21.65 8.82-33.66 9.09-5.9.14-11.79.99-18.36 1.58 3.35 7.97 3.05 17.21 11.88 21.78 6.64 3.44 13.11 7.23 19.84 10.47 11.58 5.57 18.82 14.37 22.68 26.68 4.11 13.12 4.42 26.63 5.77 40.07 3.7 37.03 2.35 74.22 3.85 111.33.66 16.53.11 33.1.11 49.91zm-63.06-275.44c9.04-.57 17.7-1 26.34-1.69 5.85-.47 11.46-1.97 16.28-5.54.74-.55 1.7-1.46 1.71-2.21.13-7.9.08-15.81.08-23.77-13.31 1.05-26.91 2.09-40.49 3.26-.79.07-2.09 1.12-2.14 1.78-.69 9.11-1.19 18.23-1.78 28.17z"/><path d="m135.84 257.02c-7.64 17.02-14.99 33.68-22.59 50.23-7.04 15.33-14.26 30.57-21.57 45.77-2.03 4.22-5.54 6.65-10.52 6.39-2.63-.14-3.98-1.33-4.15-4.07-.3-4.9 1.5-9.15 3.6-13.41 12.36-25.05 24.71-50.11 36.92-75.24 4.32-8.88 5.44-18.56 6.49-28.28 3.35-30.91 2.44-61.92 2.79-92.91.24-20.48.44-40.96.41-61.45-.01-10.85-.75-21.7-.78-32.55-.02-7.77 1.75-15.28 4.5-22.58.83-2.21 1.97-2.32 3.79-1.47 5.53 2.57 7.22 7.45 7.42 12.93.23 6.26.04 12.53-.02 18.8-.16 15.67-.45 31.33-.5 47-.09 24.29.29 48.59-.14 72.88-.27 15.31 1.36 30.39 3.75 45.41 6.39 40.17 21.26 77.21 42.01 112.03 2 3.36 4.02 6.73 5.67 10.27 1.22 2.61 2.12 5.43 2.72 8.25 1.49 7-.57 9.58-7.68 9.65-.94.01-2.08-1.04-2.81-1.87-9.8-11.19-16.11-24.32-21.55-38.02-8.82-22.22-17.9-44.34-26.88-66.5-.1-.3-.35-.53-.88-1.26z"/><path d="m212.72 156.26c6.57 2.15 9.53 5.23 9.34 10.84-.25 7.11-1.58 14.17-2.23 21.27-.39 4.21-.48 8.46-.42 12.68.01.75 1.38 2.11 2.14 2.12 12.42.1 24.84.03 37.26-.02.19 0 .39-.17 1.49-.7-.5-6.93-1.04-14.24-1.57-21.55-.34-4.67-1.05-9.35-.92-14 .17-5.72 3.19-8.81 9.06-10.31 3.63 5.33 5.37 11.29 5.92 17.76 1.48 17.25 3.51 34.47 4.62 51.74 1.03 16.05-.19 31.97-6.28 47.15-4.99 12.44-17.7 19.74-30.94 17.15-7.86-1.54-15.56-3.93-23.26-6.18-1.39-.41-2.86-1.75-3.58-3.05-7.64-13.99-10.09-29.2-10.4-44.94-.36-18.29 1.58-36.39 4.02-54.48.55-4.09.21-8.35 1.13-12.33 1.03-4.45 3.01-8.69 4.62-13.15zm49.26 63.6c-15.15 0-29.07 0-43.78 0-.19 11.03-.82 22.09-.35 33.1.2 4.84 2.4 9.67 4.1 14.36 2.34 6.45 7.57 9.05 14.09 9.42 2.45.14 4.93.24 7.37.03 7.57-.66 13.59-3.53 15.66-11.65.36-1.4 1.2-2.75 1.26-4.15.61-13.46 1.1-26.92 1.65-41.11z"/><path d="m105.96 136.73c0 13.65.6 27.33-.18 40.94-.7 12.12-2.98 24.15-4.44 36.23-.28 2.29-1.39 2.91-3.46 3.12-6.66.67-7.18.77-8.24-6.01-.87-5.56-1.22-11.45-.36-16.97 2.69-17.18 1.2-34.4 1.19-51.59-.02-21.26-.29-42.53-.68-63.79-.06-3.29 1.74-4.94 3.99-5.77 1.2-.44 3.44.91 4.75 2 3.42 2.86 5.22 6.81 5.39 11.18.37 9.94.46 19.9.58 29.85.08 6.93.02 13.87.02 20.8.46.01.95.01 1.44.01z"/><path d="m166.64 70.08c6.37 1.46 9.15 4.41 9.91 10.48.25 1.99.32 4.01.34 6.02.29 24.27.59 48.53.8 72.8.16 18.69.18 37.37.31 56.06.01 1.88-.17 3.45-2.45 3.45-2.34.01-5.42 2.9-6.81-1.21-1.24-3.67-2.65-7.47-2.82-11.27-1.37-29.94-2.49-59.9-3.63-89.85-.35-9.28-.54-18.56-.75-27.85-.14-6.63 1.57-12.79 5.1-18.63z"/></g></svg>