<svg enable-background="new 0 0 400 400" viewBox="0 0 400 400" xmlns="http://www.w3.org/2000/svg"><path d="m361.2 9.6.8-1c.9.7 1.9 1.4 2.9 2.3l-.9 1.1c-1-1-2-1.8-2.8-2.4zm.5 10.6c.9-2.1 1.6-4.3 2.3-6.7.4.2.8.4 1.3.6-.7 2.1-1.5 4.3-2.2 6.6zm.4-15.2.9-.9c1 .8 2 1.6 2.8 2.4l-1 1c-.9-.9-1.8-1.7-2.7-2.5zm12.5-1.2h1.2v1.4h2.7v1.1h-2.7v2.7h-1.2v-.6h-1.8v1.3h4.9v3.8h-1.2v-.5h-3.7c0 .4-.1.9-.1 1.2h5.1v1h-5.2c0 .5-.1.9-.2 1.2h6v1h-5.2c1.1 1.3 2.9 2 5.5 2.2-.4.4-.7.8-.9 1.3-2.9-.5-4.8-1.6-5.7-3.5h-.1c-.8 1.7-2.7 2.9-5.9 3.6-.2-.4-.6-.8-.9-1.1 2.8-.6 4.6-1.4 5.4-2.5h-4.8v-1h5.3c.1-.3.2-.7.2-1.2h-4.9v-1h5c0-.4 0-.8.1-1.2h-3.5v.5h-1.2v-3.8h4.9v-1.3h-1.8v.5h-1.2v-2.7h-2.7v-1h2.6v-1.4h1.2v1.4h4.7v-1.4zm-6.6 8.3h3.6c0-.4 0-.9 0-1.4h-3.6zm1.9-4.6h4.7v-1.3h-4.7zm6.6 3.2h-3.7v1.4h3.7z" fill="#fbfcfa"/><path d="m385.3 3.8h1.3v2.2h2.8v-2.2h1.3v2.2h4.1v9.1h1.7v1.3h-16.9v-1.3h1.7v-9.1h4.1v-2.2zm.4 13.1.7 1.2c-1.8.9-3.8 1.9-6 2.9-.2-.4-.5-.8-.8-1.3 2.3-1 4.3-1.9 6.1-2.8zm-3.1-6.4h2.8v-3.2h-2.8zm0 4.6h2.8v-3.3h-2.8zm4-4.6h2.8v-3.2h-2.8zm0 4.6h2.8v-3.3h-2.8zm3.7 1.9c2.1.9 4.1 1.8 6.1 2.7l-.7 1.3c-2.2-1.1-4.2-2-6.1-2.9zm3.2-9.7h-2.8v3.2h2.8zm-2.8 7.8h2.8v-3.3h-2.8z" fill="#fbfcfa"/><g fill="#010102"><path d="m257.96 102.23c-8.58 0-16.79 0-25.49 0 .44 1.31.57 1.94.85 2.48 2.65 5.09 2.85 10.41 2.02 15.99-.52 3.51-.36 7.12-.44 10.68-.06 2.5 1.27 3.86 3.69 4.4 4.91 1.09 9.75 2.5 14.7 3.39 17.23 3.1 27.61 20.14 27.98 34.22.19 7.23-.72 14.23-2.65 21.21-2.25 8.19-8.28 11.52-15.78 13.01-2.36.47-4.98.38-7.34-.11-8.19-1.71-6.87-.03-9.55-9.41 4.34-.99 8.66-1.98 12.99-2.96 7.48-1.71 11.58-7.36 9.92-14.88-1.34-6.07-3.4-12.03-5.6-17.87-2.59-6.86-9.01-9.23-15.25-10.83-15.19-3.89-30.15-2.11-44.03 4.88-6.09 3.07-8.14 9.85-8.33 16.63-.08 2.76.63 5.54.94 8.31.69 6.22 4.39 9.31 10.34 10.39 1.78.32 3.78 1.04 5.05 2.25 2.59 2.45 2.03 6.26-.94 8.23-6.17 4.08-12.51 3.35-18.83.39-.73-.34-1.29-1.19-1.76-1.92-8.95-13.9-9.87-28.89-5.94-44.5.18-.72.62-1.44 1.12-1.99 7.46-8.24 15.86-14.81 27.56-15.67 2.22-.16 4.39-1.06 6.6-1.14 2.7-.1 3.46-1.62 3.59-3.84.27-4.69.19-9.42.76-14.07.69-5.57 1.92-11.08 3.02-17.17-3.93-.98-8.87-2.1-13.75-3.47-6.19-1.74-12.71-2.28-18.29-6.14-15.76-10.92-20.8-32.04-10.83-48.46 3.42-5.63 9.37-8.9 15.34-11.56 10.17-4.54 20.99-5.99 32.03-6.3 17.81-.51 35.61-.16 53.21 2.67 17.8 2.87 27.76 14.12 30.09 31.95 1.07 8.16-2.32 15.34-3.59 22.98-.08.49-.57.95-.96 1.33-9.26 9.05-20.06 14.92-33.23 15.51-2.21.1-3.6.99-3.86 2.85-.38 2.71-.55 5.55-.17 8.24 1.08 7.76 4.03 14.3 10.99 19.02 7.29 4.95 13.74 11.15 20.92 16.29 5.98 4.28 9.25 10.24 11.91 16.65 9.08 21.85 11.09 43.98 1.04 66.05-3.65 8.01-7.98 15.83-12.95 23.08-3.76 5.47-9.39 9.61-13.56 14.84-6.9 8.64-13.83 17.34-19.79 26.63-7.44 11.6-8.9 24.4-4.41 37.64.25.74.39 1.63.89 2.15 5.23 5.35 10.16 11.07 15.9 15.81 5.05 4.17 10.92 7.41 16.63 10.69 3.24 1.86 5.3 4.21 6.06 7.84.37 1.74 1.06 3.4 1.65 5.22-3.19 2.33-6.62 2.37-9.88.92-7.02-3.12-14.26-5.84-20.02-11.29-5.2-4.92-11.02-9.2-15.97-14.34-11.88-12.35-14.2-27.03-9.78-43.25 4.75-17.44 15.34-31.29 26.53-44.97 7.48-9.15 14.45-18.78 20.91-28.69 9.65-14.8 10.97-31.14 7.05-48.1-.33-1.42-.77-2.81-.98-4.25-1.6-10.88-6.9-19.17-16.25-25.22-5.7-3.69-10.82-8.3-16.06-12.68-6.72-5.63-11.24-12.45-12.28-21.52-.75-6.29-2.52-12.46-3.74-18.22zm15.07-16.1c-6.37-15.11-12.5-29.72-18.73-44.28-.3-.69-1.48-1.46-2.23-1.44-8.56.28-17.12.71-26.22 1.13 4.98 15.75 9.66 30.65 14.44 45.52.2.61 1.23 1.4 1.83 1.36 10.02-.68 20.03-1.47 30.91-2.29zm-48.13-.15c-4.89-14.3-9.71-28.4-14.63-42.81-4.43 2.14-8.56 4.06-12.61 6.14-.69.35-1.28 1.26-1.53 2.04-1.93 6.03-3.05 12.17-1.53 18.46 1.04 4.28 2.6 8.55 6.66 10.79 3.79 2.09 7.93 3.57 12 5.12 3.72 1.42 7.57 1.6 11.64.26zm61.27-1.6c3.62-1.69 6.86-3.17 10.07-4.72.56-.27 1.19-.76 1.44-1.3 2.66-5.76 4.6-11.71 3.37-18.15-1.62-8.42-7.28-13.36-14.9-16.29-4.53-1.75-9.26-2.69-14.52-2.14 4.89 14.33 9.65 28.26 14.54 42.6z"/><path d="m129.39 25.08c6.08 1.26 9.6 4.63 10 10.84.47 7.34.17 14.74.03 22.12-.23 11.74-.73 23.48-.92 35.22-.51 31.11.16 62.28-1.68 93.31-1.72 28.94 5.72 55.25 17.02 81.16 10.22 23.42 21.57 46.16 36.43 67.06 4.78 6.73 7.7 14.36 8.51 22.69.34 3.55-2.32 5.88-5.57 4.4-2.66-1.2-5.47-2.8-7.31-4.98-13.9-16.5-23.59-35.54-32.24-55.11-7.27-16.45-14.11-33.09-21.15-49.65-.34-.8-.75-1.58-1.39-2.93-2.09 5.82-4.14 11.06-5.86 16.41-5.18 16.03-13.36 30.71-20.48 45.86-6.27 13.35-12.63 26.66-18.98 39.97-2.89 6.05-6.64 8.3-11.78 6.79-1.09-.32-2.36-1.65-2.65-2.75-1.14-4.44.12-8.57 2.1-12.6 9.88-20.17 19.59-40.42 29.58-60.53 7.25-14.58 10.78-30.26 14.25-45.97 5.63-25.5 6.75-51.44 6.89-77.42.17-32.23-.12-64.46-.12-96.69 0-11.1.78-22.14 3.91-32.88.39-1.38.89-2.74 1.41-4.32z"/><path d="m280.14 216.93c2.74 8.69 2.74 8.69-4.21 13.33-8.19 5.46-16.4 10.87-24.53 16.42-1.41.96-2.79 2.32-3.57 3.82-4.48 8.62-8.94 17.26-13.08 26.05-6.58 13.99-22.51 16.46-33.1 4.97-11.45-12.42-11.36-28.2.22-40.55 6.81-7.27 13.66-14.5 20.34-21.88 1.09-1.2 2.03-3.07 2.03-4.64.02-10.28-.14-20.57-.42-30.85-.23-8.6 1.46-16.61 6.06-24 1.76-2.82 3.71-2.98 5.42-.68 1.79 2.4 3.93 5.31 4.03 8.07.66 17.55.6 35.08-3.05 52.43-1.73 8.2-4.96 15.01-12.04 19.96-4.19 2.93-7.93 6.56-11.65 10.11-4.85 4.62-7.08 10.23-5.38 17.01.77 3.07 3.83 5.85 7.08 6.26 3.44.44 6.51-.13 8.18-3.67 1.04-2.21 2.44-4.37 2.94-6.7 2.04-9.62 6.89-17.57 13.65-24.55 9.1-9.39 19.16-17.17 32.39-19.73 2.82-.53 5.7-.78 8.69-1.18z"/><path d="m88.29 231.56c-2.75-4.65-3.32-9.57-2.39-14.43 2.9-15.29 2.41-30.75 2.72-46.17.43-21.48.8-42.96 1.2-64.44.07-3.76 2.83-5.54 6.29-4.09 4.23 1.77 6.37 5.23 7.05 9.53.65 4.08 1.28 8.22 1.26 12.34-.08 20.47-.14 40.95-.66 61.42-.37 14.37-3.11 28.43-7.38 42.16-.32 1.03-1.52 2.12-2.56 2.53-1.72.65-3.65.78-5.53 1.15z"/><path d="m157.23 176.64c.61-28.13 1.83-47.2 6.36-65.9.16-.65.42-1.29.5-1.95.35-2.76 2.14-5.15 4.5-5.01 2.16.13 4.89 1.92 6.09 3.8 1.32 2.08 1.79 5.14 1.58 7.69-.71 8.79-1.87 17.55-2.87 26.32-1.92 16.81-2.89 33.57-1.32 50.54 1.2 13 .77 26.15 1.02 39.24.05 2.73-2.14 3.5-4.19 3.98-1.96.46-4.12.63-5.03-1.91-.97-2.73-2.44-5.43-2.69-8.23-1.7-19.15-3.13-38.31-3.95-48.57z"/></g></svg>