<svg enable-background="new 0 0 400 400" viewBox="0 0 400 400" xmlns="http://www.w3.org/2000/svg"><path d="m361.2 9.6.8-1c.9.7 1.9 1.4 2.9 2.3l-.9 1.1c-1-1-2-1.8-2.8-2.4zm.5 10.6c.9-2.1 1.6-4.3 2.3-6.7.4.2.8.4 1.3.6-.7 2.1-1.5 4.3-2.2 6.6zm.4-15.2.9-.9c1 .8 2 1.6 2.8 2.4l-1 1c-.9-.9-1.8-1.7-2.7-2.5zm12.5-1.2h1.2v1.4h2.7v1.1h-2.7v2.7h-1.2v-.6h-1.8v1.3h4.9v3.8h-1.2v-.5h-3.7c0 .4-.1.9-.1 1.2h5.1v1h-5.2c0 .5-.1.9-.2 1.2h6v1h-5.2c1.1 1.3 2.9 2 5.5 2.2-.4.4-.7.8-.9 1.3-2.9-.5-4.8-1.6-5.7-3.5h-.1c-.8 1.7-2.7 2.9-5.9 3.6-.2-.4-.6-.8-.9-1.1 2.8-.6 4.6-1.4 5.4-2.5h-4.8v-1h5.3c.1-.3.2-.7.2-1.2h-4.9v-1h5c0-.4 0-.8.1-1.2h-3.5v.5h-1.2v-3.8h4.9v-1.3h-1.8v.5h-1.2v-2.7h-2.7v-1h2.6v-1.4h1.2v1.4h4.7v-1.4zm-6.6 8.3h3.6c0-.4 0-.9 0-1.4h-3.6zm1.9-4.6h4.7v-1.3h-4.7zm6.6 3.2h-3.7v1.4h3.7z" fill="#fbfcfa"/><path d="m385.3 3.8h1.3v2.2h2.8v-2.2h1.3v2.2h4.1v9.1h1.7v1.3h-16.9v-1.3h1.7v-9.1h4.1v-2.2zm.4 13.1.7 1.2c-1.8.9-3.8 1.9-6 2.9-.2-.4-.5-.8-.8-1.3 2.3-1 4.3-1.9 6.1-2.8zm-3.1-6.4h2.8v-3.2h-2.8zm0 4.6h2.8v-3.3h-2.8zm4-4.6h2.8v-3.2h-2.8zm0 4.6h2.8v-3.3h-2.8zm3.7 1.9c2.1.9 4.1 1.8 6.1 2.7l-.7 1.3c-2.2-1.1-4.2-2-6.1-2.9zm3.2-9.7h-2.8v3.2h2.8zm-2.8 7.8h2.8v-3.3h-2.8z" fill="#fbfcfa"/><g fill="#010102"><path d="m223.2 163.33c0-6.38.01-12.48-.01-18.58-.01-2.01-.32-4.04-.09-6.02.65-5.39 3.05-7.72 8.8-8.72 3.76 6.32 5.4 13.42 6.04 20.63 2.03 22.82.28 45.35-6.14 67.44-1.13 3.88-2.94 7.2-6.42 9.44-.37.24-.69.57-1.03.86-3 2.52-5.7 5.6-9.09 7.4-3.33 1.77-7.35 2.24-11.3 3.34.06-.09-.17.1-.16.28.58 14.63-2.29 29.26.09 43.89 2.39 14.67 7.28 28.46 15.96 40.51 4.28 5.93 10.01 10.83 15.15 16.13 7.7 7.95 15.04 16.26 24.13 22.78 1.72 1.23 3.08 3.29 3.95 5.25.7 1.59 1.17 4.66.38 5.25-1.8 1.33-4.41 1.99-6.72 2.05-1.73.05-3.79-.9-5.19-2.04-10.75-8.75-21.7-17.3-31.92-26.63-8.77-8.01-14.01-18.76-19.6-29.1-1.7-3.14-3.25-6.36-5.1-10.01-.85 1.28-1.58 2.2-2.11 3.22-8.93 16.83-20.74 31.53-33.51 45.54-3.16 3.47-5.74 7.49-9.09 10.74-2.15 2.09-5.05 3.69-7.89 4.71-4.17 1.5-7.54-2.03-5.92-6.23 1.22-3.16 3-6.27 5.19-8.85 8.77-10.31 18.1-20.14 26.65-30.62 13.24-16.22 19.9-34.95 20.28-56 .16-8.94 1.18-17.86 2-26.78.23-2.53-.26-4.03-2.96-4.48-1.42-.24-2.76-.94-4.17-1.24-11.98-2.56-18.75-10.47-22.54-21.6-4.94-14.51-6.17-29.53-5.99-44.68.12-10.05.63-20.12 1.62-30.12.34-3.46 2.59-6.77 4.15-10.06.24-.51 1.48-.87 2.19-.78 4.77.56 7.7 3.78 7.66 8.59-.02 2.22-.48 4.44-.8 6.64-.29 1.99-.73 3.96-1.02 5.95-1.37 9.69-.66 10.4 8.88 10.63 13.3.32 26.6.84 39.9 1.26 1.62.06 3.27.01 5.75.01zm-53.41 14.16c-.8 15.02.86 29.06 8.21 41.96.62 1.09 1.6 2.24 2.69 2.74 8.83 4.06 17.88 4.65 26.98.97 5.48-2.22 9.73-5.39 10.53-12.08.67-5.63 2.58-11.1 3.51-16.71.73-4.38.93-8.86 1.15-13.3.13-2.47-.96-3.69-3.84-3.65-13.65.16-27.3.07-40.95.07-2.66 0-5.32 0-8.28 0z"/><path d="m150.73 64.16c-6.17 0-12.07.02-17.97-.01-9.16-.04-18.34.14-27.47-.35-2.91-.16-6.14-1.6-8.5-3.41-3.8-2.91-2.96-6.76 1.41-8.46 7.07-2.76 14.46-2.45 21.87-2.43 9.84.03 19.67-.17 29.5-.45.95-.03 2.49-1.27 2.67-2.16.49-2.48.17-5.12.62-7.62.66-3.67 1.44-7.36 2.69-10.86.62-1.73 1.52-4.08 4.59-3.22 3.79 1.07 6.07 2.98 6.25 6.05.07 1.22-.09 2.46-.25 3.67-.17 1.33-.51 2.64-.7 3.96-1.29 9.16-.35 10.18 8.64 10.29 16.11.19 32.22.5 48.33.76 1.1.02 2.2 0 3.96 0 .17-5.33.38-10.42.48-15.51.11-5.87 2.3-8.4 9.12-9.5 1.38 4.76 2.97 9.59 4.19 14.51 3.17 12.84 1.44 10.99 13.77 11.08 7.48.06 14.96-.83 22.45-1.07 2.87-.09 5.86.09 8.62.81 2.05.53 4.18 1.78 5.64 3.31 3.44 3.59 2.66 6.69-1.88 8.43-7.11 2.71-14.46 2.14-21.86 1.66-6.88-.45-13.8-.32-20.71-.45-2.33-.05-2.9 1.4-3.24 3.39-1.78 10.47-3.9 20.9-5.42 31.41-.76 5.27-3.62 8.73-7.54 11.7-7.56 5.74-16.41 7.46-25.57 7.85-13.05.55-25.92-.51-38.32-5.1-2.75-1.02-4.68-2.58-6.26-5.12-5.35-8.56-8.49-17.66-8.44-27.85.04-5.02-.42-10.05-.67-15.31zm15.12-.34c0 8.34-.66 16.42.19 24.33.79 7.36 4.79 12.94 13.23 13.48.55.04 1.08.28 1.63.37 10.25 1.76 20.52 3.62 30.88.89 7.74-2.04 13.88-5.72 13.92-14.99 0-.22.12-.43.14-.65.54-6.11 1.37-12.21 1.51-18.33.1-4.69-.7-5.1-5.25-5.1-17.33 0-34.66 0-51.99 0-1.21 0-2.42 0-4.26 0z"/><path d="m262.58 111.77c8.35 1.48 13.6 6.43 16.72 13.55 5.43 12.38 7.91 25.35 6.62 38.91-.1 1.09-.5 2.17-.88 3.21-2.16 5.87-4.15 11.82-6.63 17.56-1.27 2.92-.69 4.9 1.12 7.22 5.77 7.39 12.69 13.49 20.09 19.18 5.12 3.94 10.15 8.1 14.64 12.72 2.48 2.55 3.84 6.21 5.56 9.44 1.21 2.27.03 3.69-2.14 4.2-1.48.35-3.31.74-4.58.18-4.24-1.88-8.89-3.48-12.29-6.44-8.92-7.79-17.32-16.18-25.8-24.46-2.06-2.01-3.64-4.49-5.46-6.79-9.05 11.36-8.48 27.89.97 38.38 10.29 11.41 21 22.33 33.41 31.48 3.69 2.72 3.06 7.21 3.98 10.98.36 1.5-5.09 3.32-7.68 2.28-2.67-1.07-5.56-2.2-7.6-4.11-10.93-10.26-21.82-20.59-32.35-31.26-7.33-7.43-10.85-16.82-11.7-27.2-.43-5.31.25-10.3 2.68-15.27 6.35-12.94 11.91-26.27 18.5-39.09 3.73-7.25 3.43-14.15.96-21.29-1.56-4.52-3.7-8.85-5.68-13.22-2.57-5.67-4.68-11.41-3.3-17.8.18-.72.51-1.42.84-2.36z"/><path d="m86.77 285.53c0-3.23-.17-6.23.09-9.2.09-1.02 1.1-2.09 1.92-2.9 9.14-9.05 18.63-17.77 27.44-27.13 10.58-11.24 12.46-25.48 5.67-38.32-2.54 2.93-4.94 5.82-7.47 8.58-4.91 5.37-9.74 10.82-14.89 15.95-5.56 5.54-12.33 8.78-20.32 9.15-3.98.19-5.36-.89-4.42-4.77.7-2.91 2.01-6.09 4.04-8.18 7.8-8.02 16.06-15.59 24.03-23.44 3.66-3.61 7.02-7.52 10.61-11.21 1.28-1.31 1.46-2.42.68-4.13-2.46-5.38-4.48-10.98-7.1-16.28-3.5-7.08-2.78-14.38-1.75-21.7 1.81-12.84 6.62-24.31 16.09-33.52 3.22-3.13 7.15-2.15 7.93 2.33.44 2.54.26 5.45-.56 7.88-2.07 6.13-4.67 12.08-7.03 18.11-.61 1.56-1.02 3.2-1.69 4.73-3.49 7.88-1.27 15.39 1.75 22.66 4.09 9.89 8.15 19.85 13.05 29.35 5.72 11.1 4.83 21.98.76 33.08-2.51 6.86-5.81 13.26-10.7 18.83-5.47 6.22-10.46 12.85-15.97 19.03-5.75 6.43-12.91 10.48-22.16 11.1z"/><path d="m222.94 257.04c.27-1.35.46-3.03.95-4.62.96-3.05 3.95-4.37 6.89-3.17 4.74 1.94 6.5 6.25 8.12 10.55 2.8 7.42 5.12 15.03 8.21 22.32 4.65 10.94 12.12 19.76 21.71 26.79 4.27 3.13 8.36 6.5 10.33 11.62.57 1.48 1.07 3.67.38 4.81-1.38 2.29-3.96 3.51-6.7 2.52-2.49-.9-5.26-1.87-7.06-3.66-8.94-8.93-18.17-17.66-26.19-27.38-8.66-10.48-12.97-23.34-16.22-36.46-.22-.98-.25-2-.42-3.32z"/><path d="m161.16 256.45c6.11.99 8.54 3.86 7.21 9.5-1.01 4.3-3.08 8.35-4.71 12.5-7.26 18.38-21.66 30.63-36.65 42.27-4.47 3.47-9.88 5.11-16.19 4.58 0-3.11-.17-6.1.09-9.06.09-1.02 1.09-2.13 1.95-2.9 8.68-7.76 17.43-15.44 26.1-23.21 1.47-1.32 2.82-2.88 3.88-4.55 6.13-9.62 12.16-19.31 18.32-29.13z"/></g></svg>