<svg enable-background="new 0 0 400 400" viewBox="0 0 400 400" xmlns="http://www.w3.org/2000/svg"><path d="m362.1 8.8c1.1.8 2.1 1.6 3.1 2.4l-1 1.1c-1.3-1.1-2.3-2-3-2.5zm1.9 4.8c.5.2.9.4 1.4.5-.6 2.3-1.3 4.5-1.9 6.8l-1.5-.5c.8-2.1 1.4-4.3 2-6.8zm-1-9.4c1.3.9 2.4 1.8 3.4 2.5l-1 1.1c-1.4-1.2-2.4-2.1-3.2-2.6zm3.7 2.2v-1.4h10.3v1.2c-.5 3.6-1.8 6.8-4 9.4 1.5 1.6 3.4 2.8 5.7 3.8-.3.4-.7.8-1.1 1.4-2.3-1.1-4.1-2.5-5.6-4.1-1.6 1.6-3.6 3.1-5.9 4.3-.3-.5-.7-.9-1-1.3 2.4-1.1 4.4-2.5 6-4.1-1.9-2.5-3-5.6-3.3-9.3h-1.1zm8.8 0h-6.4c.3 3.3 1.3 6 3 8.2 2-2.3 3.1-5.1 3.4-8.2z" fill="#fbfcfa"/><path d="m385.3 3.8h1.3v2.2h2.8v-2.2h1.3v2.2h4.1v9.1h1.7v1.3h-16.9v-1.3h1.7v-9.1h4.1v-2.2zm.4 13.1.7 1.2c-1.8.9-3.8 1.9-6 2.9-.2-.4-.5-.8-.8-1.3 2.3-1 4.3-1.9 6.1-2.8zm-3.1-6.4h2.8v-3.2h-2.8zm0 4.6h2.8v-3.3h-2.8zm4-4.6h2.8v-3.2h-2.8zm0 4.6h2.8v-3.3h-2.8zm3.7 1.9c2.1.9 4.1 1.8 6.1 2.7l-.7 1.3c-2.2-1.1-4.2-2-6.1-2.9zm3.2-9.7h-2.8v3.2h2.8zm-2.8 7.8h2.8v-3.3h-2.8z" fill="#fbfcfa"/><path d="m266.37 346c-2.54-4.88-5.95-9.51-7.42-14.69-2.8-9.85-4.98-19.93-6.53-30.05-2.42-15.8-4.11-31.71-6.11-47.55-.47-.14-.78-.3-1.1-.31-8.39-.34-8.52-.24-10.57 8.08-2.38 9.69-1.18 19.31.29 28.98 1.44 9.5 2.39 19.08 3.84 28.58 1.03 6.73 2.54 13.38 3.83 20.07.12.65.21 1.3.38 2.32-1.75.47-3.4.92-5.41 1.46-1.79-6.43-3.54-12.64-5.25-18.85-2.49-9.05-5.21-18.05-7.33-27.19-1.05-4.52-1.09-9.3-1.38-13.97-.4-6.36-.81-12.74-.83-19.11-.01-3.01-1.07-4.49-3.9-5.1-1.6-.35-3.14-1.03-5.46-1.82-1.19 7.82-3.01 15.24-3.31 22.72-.67 16.75-.47 33.53-.85 50.29-.32 14.4-2.73 28.47-7.89 41.99-.23.6-.52 1.17-1.29 1.7-.22-6.16-.46-12.32-.66-18.47-.95-29.75-1.88-59.5-2.84-89.25-.18-5.75-2.64-8.81-7.87-10.22-2.09-.57-3.21-.12-4.07 2.03-5.56 13.9-8.77 28.37-10.95 43.12-1.8 12.14-5.2 23.63-13.95 32.77-2.6 2.71-5.6 5.04-9.11 7.07.25-.87.48-1.74.75-2.59 6.27-19.49 11.78-39.18 14.42-59.53 1.06-8.19.73-16.33-3.5-23.81-.38-.68-.81-1.34-1.28-1.96-.53-.71-1.14-1.36-2.19-2.58-1.67 4.35-3.6 8.03-4.49 11.96-2.7 11.86-5.29 23.75-7.38 35.73-2.86 16.34-10.94 29.59-22.81 40.8-.13.12-.39.09-1.39.29 3.54-12.14 6.96-23.91 10.42-35.67 2.62-8.89 5.51-17.7 7.86-26.65 1.43-5.43 1.48-11.04-.04-16.6-1.53-5.6-4.75-9.75-10.15-12.74-.55 1.7-1.07 3.23-1.54 4.78-8.31 27.49-16.52 55-25.01 82.44-1.84 5.95-4.47 11.68-7.12 17.33-1.72 3.66-4.44 6.61-9.32 7.5.73-2.78 1.3-5.13 1.97-7.45 8.82-30.56 14.78-61.72 19.43-93.16 2.24-15.15 4.75-30.29 6.38-45.51 2.1-19.62 2.15-39.33-.1-58.97-2.7-23.61-3.03-47.1 2.48-70.39.4-1.7 1.48-3.51 2.78-4.67 7.46-6.62 15.78-12.12 25.78-13.53 6.67-.94 13.59.13 20.36-.32 6.75-.44 13.46-1.62 20.17-2.56 2.11-.3 3.02-1.66 3.45-3.85 2.11-10.97 4.42-21.9 6.67-32.88 6.96 2.86 10.14 7.78 9.6 14.93-.43 5.69.5 11.11 2.56 16.42.74 1.92 1.86 2.68 3.88 2.95 11.62 1.59 23.27 3.11 34.82 5.1 5.47.95 10.88 2.61 16.13 4.47 10.14 3.59 16.94 10.77 20.15 20.97 5.21 16.59 5.52 33.7 4.53 50.86-1.28 22.34-3.44 44.66-3.94 67.01-.33 14.71 1.07 29.52 2.61 44.19 3.78 35.98 11.74 71.22 20.2 106.33.23.95.29 1.93-.22 3.57-.91-.64-2.19-1.08-2.69-1.96-4.1-7.31-8.64-14.46-11.86-22.15-2.56-6.11-3.5-12.91-5.06-19.42-3.27-13.69-6.64-27.37-9.64-41.13-1.25-5.76-1.72-11.7-2.44-17.57-.74-6.06-4.27-9.58-10.48-11.61-.82 3.19-1.8 6.21-2.36 9.31-2.38 13.04-.61 25.86 2.38 38.57 2.94 12.45 5.44 24.95 4.28 37.83-.33 3.7-1.29 7.35-1.96 11.02-.43.09-.89.19-1.35.3zm-134.15-166.08c6.98-.14 11.23-4.16 12.01-10.9.54-4.66.89-9.37 1.92-13.93 3.06-13.5 11.9-21.08 25.32-23.39 6.93-1.2 13.45-3.3 19.25-7.3.96-.66 2-1.98 2.06-3.04.51-9.26 1.16-18.54 1.05-27.81-.09-7.54-6.56-12.62-14.46-12.11-1.64 7.58-3.21 15.23-4.99 22.82-.5 2.13-1.36 4.26-2.5 6.13-4.62 7.57-11.86 10.73-20.33 12.03-7.46 1.15-14.85 2.77-22.46 4.21 1.07 18.01 2.09 35.53 3.13 53.29zm137.6 2.08c0-.86.05-1.53-.01-2.19-1.36-15.48-2.69-30.97-4.21-46.43-.11-1.09-1.45-2.39-2.55-2.98-8.73-4.75-17.58-9.29-26.31-14.05-1.36-.74-2.62-2.05-3.39-3.4-3.48-6.11-5.06-12.84-5.89-19.77-.91-7.58-5.81-11.84-13.8-11.86-.46 1.99-1.01 4.03-1.39 6.09-1.58 8.69-3.29 17.4-1.63 26.28.94 5.03 3.11 9.34 8.56 10.47 10.85 2.25 19.76 7.96 28.2 14.79 4.13 3.34 6.98 7.08 8.4 12.38 2.85 10.65 6.37 21.12 9.71 31.96 1.59-.47 2.93-.88 4.31-1.29zm-139.01 55.25c3.88-1.6 7.5-2.99 10.99-4.63.6-.28.96-1.62.99-2.49.27-7.81.6-15.62.58-23.43-.01-3.3-.46-6.71-1.36-9.88-1.43-5.06-4.59-8.89-9.76-11.42-.49 17.47-.96 34.41-1.44 51.85zm128.78 1.65c3.41-1.36 6.35-2.65 9.37-3.7 1.99-.69 2.68-1.88 2.78-3.94.3-6.03.81-12.05 1.24-18.07.57-8.07-.57-15.79-4.7-22.81-4.34 1.16-6.19 3.66-6.04 8.24.16 4.78-.57 9.59-.9 14.38-.57 8.47-1.14 16.93-1.75 25.9zm8.38-122.63c1.35-7.66-3.24-22.12-9.25-27.06-2.48-2.04-5.81-3.09-8.85-4.36-.64-.27-2.25.21-2.46.73-2.08 5.27-3.46 10.67-.9 16.2 4.23 9.12 10.98 14.61 21.46 14.49zm-134.18-2.95c5.52-3.37 10.63-7.1 16.25-9.76 6.11-2.88 8.77-7.43 9.23-13.78.01-.11.05-.22.08-.33.68-2.5-.53-4.17-2.8-4.4-2.44-.24-5.08-.08-7.42.61-2.53.74-4.72 2.6-7.24 3.45-5.36 1.81-8.03 5.67-10.03 10.73-1.95 4.93-1.49 9.08 1.93 13.48zm101.56 81.85c-.73 8.44-1.94 16.86-1.98 25.29-.02 4.39 1.9 8.83 3.3 13.13.25.78 2.42 1.63 3.36 1.34 1.67-.51 4.72.74 4.85-2.24.41-9.35.91-18.73.57-28.06-.2-5.69-4.07-8.77-10.1-9.46zm-46.45 36.96c2.3-1.28 4.7-2.45 6.91-3.93.71-.48 1.3-1.75 1.26-2.63-.32-6.35-.74-12.7-1.27-19.04-.41-4.92-2.4-8.96-7.05-11.3-6.31 10.14-6.27 28 .15 36.9zm-27.68-.39c7.19-1.09 7.9-1.8 8.65-8.79.06-.56.18-1.11.21-1.66.33-6.57 1.03-13.16.86-19.72-.15-5.8-4.22-9.4-9.73-9.15.01 13.09.01 26.21.01 39.32zm17.2-82.26c2.49 8.72 4.91 17.22 7.37 25.82 2.33-.81 4.19-1.59 6.12-2.1 2.06-.54 2.81-1.63 2.69-3.8-.21-3.78.32-7.65-.28-11.35-.61-3.75-1.99-7.43-3.46-10.96-.93-2.25-2.84-2.67-5.15-1.24-2.18 1.35-4.58 2.31-7.29 3.63zm35.22-4.69c-3.88 10.85-6.1 21.61 1.34 31.98 3.51-.28 5.02-1.76 5.37-5.25.52-5.21 1.71-10.36 2.74-15.5 1.54-7.66-1.22-11.1-9.45-11.23zm-51.74 32.14c1.9-.76 3.71-1.35 5.38-2.21.89-.46 2.03-1.29 2.22-2.14 1.58-6.9 1.04-13.51-3.32-19.48-8.1 10.06-9.29 16.34-4.28 23.83zm52.02 53.18c.31.23.63.45.94.68 1.11-1.1 3.12-2.16 3.18-3.32.44-7.51.7-15.06.47-22.58-.09-2.83-1.38-5.77-4.59-7.73zm23.78-51.4c2.17-1 4.11-1.78 5.91-2.81.61-.35 1.24-1.38 1.19-2.04-.34-4.42-.37-8.95-1.49-13.18-.75-2.82-3.13-5.2-4.78-7.78-.28.19-.55.37-.83.56z" fill="#010106"/></svg>