<svg enable-background="new 0 0 400 400" viewBox="0 0 400 400" xmlns="http://www.w3.org/2000/svg"><path d="m361.2 9.6.8-1c.9.7 1.9 1.4 2.9 2.3l-.9 1.1c-1-1-2-1.8-2.8-2.4zm.5 10.6c.9-2.1 1.6-4.3 2.3-6.7.4.2.8.4 1.3.6-.7 2.1-1.5 4.3-2.2 6.6zm.4-15.2.9-.9c1 .8 2 1.6 2.8 2.4l-1 1c-.9-.9-1.8-1.7-2.7-2.5zm12.5-1.2h1.2v1.4h2.7v1.1h-2.7v2.7h-1.2v-.6h-1.8v1.3h4.9v3.8h-1.2v-.5h-3.7c0 .4-.1.9-.1 1.2h5.1v1h-5.2c0 .5-.1.9-.2 1.2h6v1h-5.2c1.1 1.3 2.9 2 5.5 2.2-.4.4-.7.8-.9 1.3-2.9-.5-4.8-1.6-5.7-3.5h-.1c-.8 1.7-2.7 2.9-5.9 3.6-.2-.4-.6-.8-.9-1.1 2.8-.6 4.6-1.4 5.4-2.5h-4.8v-1h5.3c.1-.3.2-.7.2-1.2h-4.9v-1h5c0-.4 0-.8.1-1.2h-3.5v.5h-1.2v-3.8h4.9v-1.3h-1.8v.5h-1.2v-2.7h-2.7v-1h2.6v-1.4h1.2v1.4h4.7v-1.4zm-6.6 8.3h3.6c0-.4 0-.9 0-1.4h-3.6zm1.9-4.6h4.7v-1.3h-4.7zm6.6 3.2h-3.7v1.4h3.7z" fill="#fbfcfa"/><path d="m385.3 3.8h1.3v2.2h2.8v-2.2h1.3v2.2h4.1v9.1h1.7v1.3h-16.9v-1.3h1.7v-9.1h4.1v-2.2zm.4 13.1.7 1.2c-1.8.9-3.8 1.9-6 2.9-.2-.4-.5-.8-.8-1.3 2.3-1 4.3-1.9 6.1-2.8zm-3.1-6.4h2.8v-3.2h-2.8zm0 4.6h2.8v-3.3h-2.8zm4-4.6h2.8v-3.2h-2.8zm0 4.6h2.8v-3.3h-2.8zm3.7 1.9c2.1.9 4.1 1.8 6.1 2.7l-.7 1.3c-2.2-1.1-4.2-2-6.1-2.9zm3.2-9.7h-2.8v3.2h2.8zm-2.8 7.8h2.8v-3.3h-2.8z" fill="#fbfcfa"/><g fill="#010102"><path d="m219.7 183.78c-2.66 6.57-5.06 12.94-7.83 19.14-1.72 3.85-3.75 7.62-6.11 11.11-7.77 11.48-15.56 22.96-23.79 34.1-1.88 2.55-5.39 4.24-8.49 5.44-3.63 1.41-6.81-1.55-5.84-5.37.8-3.18 1.91-6.73 4.06-9.04 17.96-19.34 28.72-42.46 36.11-67.39 4.47-15.08 7.11-33.85 6.38-43.92-5.3.5-10.59 1.09-15.9 1.48-6.13.45-12.27 1.03-18.4.99-4.5-.03-8.57-1.67-10.77-6.16-.84-1.72-.79-2.9 1.03-4.19 5.65-3.99 12.15-4.77 18.71-5.67 8.08-1.1 16.11-2.57 24.18-3.69 2.57-.36 3.08-1.49 3.18-3.93.77-18.37-.25-36.67-1.62-54.99-.58-7.83 0-15.67 3.28-23.04 1.63-3.66 3.03-4.11 6.28-1.64 3.87 2.94 5.1 7.29 5.3 11.85.98 22.92 1.84 45.84 2.75 68.76.02.55.06 1.09.13 2.22 14.23-1.15 28.31-2.28 42.62-3.44 1.2-9.66 2.2-19.1 3.6-28.47 1.63-10.92 3.47-21.82 5.5-32.68.68-3.63 2.9-6.48 6.65-7.82 1.91-.68 3.04-.42 3.92 1.63 3.16 7.29 3.22 14.77 1.71 22.38-1.91 9.64-4.26 19.21-5.7 28.92-1.93 13.07-.68 26.12 1.95 39.02 2.68 13.13 5.22 26.3 8.17 39.37 1.45 6.4 3.87 12.58 5.49 18.96.61 2.42.25 5.1.23 7.67-.02 2.66-.88 5.01-3.78 5.54-3.04.56-5.5-.87-7.05-3.43-5.01-8.31-8.45-17.33-10.32-26.79-3.03-15.34-5.5-30.79-8.2-46.19-.15-.87-.33-1.73-.58-3-3.87.29-7.63.56-11.39.85-10.37.79-20.74 1.63-31.12 2.37-2.07.15-2.99.82-3.38 3.08-2.22 12.78-4.63 25.52-7.08 38.25-.38 1.99.06 3.15 1.93 3.95 6.25 2.69 12.37 5.72 18.72 8.13 10.23 3.89 19.08 9.15 23.89 19.65 3.77 8.22 3.59 16.55 1.15 24.9-1.63 5.55-3.66 11.03-6.12 16.26-7.15 15.23-11.22 31.01-10.34 47.98.75 14.33 5.92 27.13 13.78 38.7 8.09 11.92 17.28 23.09 25.81 34.72 1.73 2.36 3.19 5.17 3.89 7.99 1.14 4.54-2.43 7.5-6.97 6.01-1.74-.57-3.58-1.51-4.84-2.8-20.22-20.65-35.03-44.42-42.95-72.49-4.42-15.66-2.32-30.55 2.58-45.4 2.45-7.42 5.57-14.61 8.43-21.89 2.78-7.06 4.87-14.24 3.2-21.9-1.91-8.79-6.88-15.14-15.46-18.37-6.76-2.54-13.54-5.08-20.58-7.72z"/><path d="m137.92 375.08c-3.49-6.11-4.04-12.35-3.7-18.83 2.16-41 4.26-82.01 6.37-123.01.03-.55 0-1.09 0-2.23-9.78 0-19.44 0-29.43 0-1.06 8.43-2.16 17.17-3.28 25.91-1.52 11.87-2.96 23.75-4.67 35.6-.42 2.93-1.58 5.82-2.76 8.57-1.57 3.63-3.86 4.66-7.82 4.3-1.92-.17-3.25-.84-3.28-2.94-.06-6-1.2-12.26.1-17.96 4.96-21.8 4.88-43.99 6.3-66.07.84-12.95 1.44-25.91 2.17-39.23 2.2-.17 4.3-.54 6.38-.41.81.05 2.03 1.07 2.25 1.87 1.24 4.6 2.62 9.22 3.23 13.92.67 5.19.54 10.49.77 15.74.09 1.96.85 2.86 3.09 2.96 8.49.38 16.97 1.03 25.91 1.61.58-34.56 1.16-68.97 1.75-103.85-6.99-.25-13.87-.51-20.75-.75-2.91-.1-5.83-.03-8.72-.32-2.53-.26-3.75.47-3.77 3.14-.06 7.83-.12 15.66-.37 23.49-.12 3.77-.59 7.55-1.11 11.29-.18 1.28-.87 2.54-1.56 3.67-1.72 2.87-7.53 6.53-8.68 5.25-1.82-2.02-3.32-4.86-3.68-7.53-.57-4.16-.58-8.54.03-12.7 2.4-16.33 1.87-32.55-.57-48.81-1.76-11.77-2.43-23.56-.62-35.45.55-3.6 1.67-5.52 5.34-5.73 1.09-.06 2.17-.35 3.41-.56 3.37 5.92 4.73 12.33 5.09 18.95.34 6.26.29 12.53.52 18.79.38 10.08.42 10.04 10.3 10.52 7.7.37 15.39.86 23.26 1.3 2.74-9.61 3.16-19.14 1.65-28.73-1.67-10.61-2.3-21.13 1.09-31.54.45-1.38.92-2.76 1.42-4.12.15-.4.44-.75.64-1.09 6.28.67 9.3 3.27 9.91 9.77.64 6.77.71 13.62.69 20.43-.19 65.59-.43 131.17-.71 196.76-.06 13.43.07 26.88-.63 40.28-.92 17.42-2.43 34.81-4 52.19-.67 7.33-2.09 14.6-3.34 21.87-.15.87-1.28 1.91-2.19 2.25-1.87.69-3.89.95-6.03 1.43z"/></g></svg>