<svg enable-background="new 0 0 400 400" viewBox="0 0 400 400" xmlns="http://www.w3.org/2000/svg"><g fill="#fbfafa"><path d="m37.59 393.81c-.92.31-1.52.05-2-.78-.7-1.2-1.52-2.34-2.47-3.78v4.59c-.55.03-.95.05-1.41.07-.03-.37-.06-.64-.06-.91 0-1.91 0-3.81 0-5.7 1.13-.41 1.77-.03 2.29.91.62 1.11 1.38 2.14 2.31 3.19v-4.2h1.35v6.61z"/><path d="m12.94 393.88v-6.75c1.9.19 3.93-.54 5.37 1.29.8 1.01.78 2.88.03 3.97-1.37 1.97-3.4 1.51-5.4 1.49m1.45-1.22c2.04.12 2.92-.58 2.89-2.21-.03-1.51-.98-2.19-2.89-2z"/><path d="m11.81 393.87h-5.49c.68-2.18 2.47-3.48 3.51-5.45h-3.08v-1.21h5.29c-.71 2.13-2.44 3.48-3.47 5.51.86 0 1.63.04 2.39-.01.79-.05 1.14.21.85 1.16"/><path d="m39.33 393.86v-6.61h3.7v1.07h-2.22v1.52c.68.04 1.34.09 2.07.13v1.07c-.72.05-1.38.09-2.1.14v1.48h2.4v1.19h-3.85z"/><path d="m27.71 388.56c-1.15-.3-2.46-.61-3.1.64-.37.73-.41 1.93-.06 2.67.63 1.35 1.99.93 3.17.68.35.94-.01 1.32-.93 1.46-1.62.25-3.05-.27-3.76-1.48-.73-1.24-.6-3.03.31-4.17.88-1.11 2.71-1.7 4-1.16.32.13.44.74.65 1.12-.1.08-.19.16-.28.24"/><path d="m49.15 387.24v1.07c-.59.02-1.17.05-1.87.08v5.44h-1.48v-5.44h-1.85c-.05-.4-.08-.73-.13-1.15z"/><path d="m20.06 387.21h1.33v6.62h-1.33z"/><path d="m30.68 393.25c-.49.38-.8.79-1.05.76-.32-.05-.6-.45-.9-.7.26-.24.51-.64.8-.67.29-.04.62.3 1.15.61"/></g><path d="m235.7 135.23c4.97 7.74 6.26 16.41 7.1 25.23 1.18 12.3-2.32 23.44-8.23 34-.51.91-1.46 1.66-2.37 2.24-2.07 1.33-4.29 2.42-6.33 3.79-3.04 2.04-6.21 3.47-9.99 3.28-1.5-.08-2.9.09-2.89 2.27.06 10.05.02 20.09.02 30.47 3.48.25 7.34.53 12.19.88 0-5.76 0-11.19 0-16.62 0-1.56-.11-3.14.05-4.69.3-3.01 1.45-5.41 4.91-5.83 3.92-.47 5.77.57 7.24 4.26 3.47 8.66 4.54 17.81 4.51 26.99-.04 9.03-.78 18.08-1.62 27.08-1.24 13.35-9.96 20.4-21.75 24.43-9.48 3.24-19.03 1.75-28.45-.43-3.79-.88-7.39-2.56-11.15-3.6-3.34-.92-5.15-3.13-6.57-6.08-4.19-8.7-6.26-17.91-6.95-27.47-.91-12.58.06-24.97 2.92-37.31 1.31-5.66 4.57-7.91 10.06-8.45 2.44 4.25 3.04 8.83 2.42 13.75-.42 3.3-.53 6.65-.43 9.97.02.81 1.36 2.14 2.22 2.26 4.74.68 9.52 1.06 14.57 1.57.21-4.29.44-8.4.59-12.51.19-5.26.13-10.53.56-15.77.2-2.53-.65-3.71-2.89-4.37-2.14-.63-4.21-1.57-6.38-2.03-9.1-1.96-14.44-7.96-17.79-16.2-3.75-9.22-3.63-18.87-2.61-28.46.67-6.29 2.43-12.47 3.76-18.69.85-3.99 4.24-2.24 6.58-2.81 2.31-.56 2.44 1.34 2.92 2.76 3.17 9.37 2.99 18.89 1.51 28.52-1.72 11.2 2.74 18.93 12.6 22.19.3.1.63.09 1.83.23 0-10.21-.06-20.25.02-30.29.07-8.5.24-17.01.53-25.51.08-2.38-.46-4.02-2.7-5.14-1.79-.9-3.34-2.24-5.05-3.29-10.43-6.42-14.28-16.08-13.8-27.9.18-4.47.1-8.96.42-13.42.18-2.53-.98-3.62-3.14-3.73-3.56-.17-7.14-.13-10.71-.07-6.48.11-9.42-3.96-7.18-10.05.18-.48.51-1.11.91-1.25 4.08-1.47 8.17-4.01 12.29-4.08 23.05-.36 46.12-.19 69.18 0 3.18.03 6.54.68 9.46 1.9 1.87.78 3.75 2.88 4.47 4.81 1.45 3.87.24 6.01-3.84 6.87-4.66.99-9.47 1.31-14.65 1.98-.43 7.81-.91 15.59-1.27 23.38-.24 5.28-.36 10.64-4 14.91-2.29 2.69-5 5.04-7.63 7.41-1.06.96-2.39 1.65-3.67 2.35-3.88 2.14-5.4 5.09-5.29 9.79.35 15.33.13 30.67.13 46.01v3.91c7.46.44 9.43-.76 11.98-7.26 2.93-7.45 3.17-15.21 2.89-23.11-.18-5.19.18-10.47 1.01-15.6.62-3.81 3.38-6.41 7.48-7.47zm-54.81 116.01c-.87 9.26-1.43 18.07 5.27 25.34.9.98 2.32 1.99 3.57 2.07 6.69.46 13.49 1.45 20.08.7 9.22-1.05 16.08-2.28 17.12-14.29.29-3.41.74-6.88.37-10.23-.15-1.31-2.33-3.41-3.62-3.44-14.1-.24-28.19-.15-42.79-.15zm10.42-170.37c0 7.39-.34 14.42.08 21.41.64 10.68 5.78 15.48 15.02 14.65 1.76-.16 3.51-.66 5.22-1.13 3.61-1 6.05-3.06 6.57-7.06.43-3.31 1.54-6.57 1.68-9.88.2-4.86-.02-9.76-.47-14.61-.11-1.2-1.75-3.2-2.73-3.23-8.33-.26-16.69-.15-25.37-.15z" fill="#010105"/><path d="m112.82 169.3c-2.41 8.92-4.48 17.5-7.07 25.91-1.86 6.05-3.98 12.1-6.77 17.77-2.77 5.64-7.6 9.24-14.19 10.16-2.25-3.61-2.18-7.35-.65-10.99 2.25-5.35 4.8-10.57 7.21-15.85 5.47-11.97 7.52-24.76 8.94-37.68 1.54-14.12 2.87-28.26 4.44-42.37.29-2.63-.61-3.62-3.03-3.26-4.74.7-9.47 1.5-14.19 2.33-2.42.43-4.79 1.23-7.22 1.47-5.62.55-9.21-4.43-6.78-9.53.51-1.08 2.12-1.95 3.39-2.32 6.43-1.87 12.91-3.6 19.39-5.28 9.7-2.51 10.38-2.63 9.61-12.58-.82-10.55-2.86-21.01-4.41-31.5-1.27-8.66-2.35-17.31-.36-26.01.24-1.07.6-2.12.89-3.12 4.9-.39 7.69 1.41 9.49 5.73 3.6 8.63 4.02 17.87 4.96 26.95 1.14 10.99 1.6 22.06 2.37 33.09.04.54.14 1.08.24 1.88 4.1-.28 8.12-.35 12.05-.98.89-.14 2.03-2.14 2.12-3.36.61-8.03.89-16.08 1.47-24.12.18-2.53.67-5.13 1.54-7.5 1.58-4.3 4.81-6.84 9.54-7.56 3.5 5.84 4.53 12.16 3.93 18.74-.57 6.34-1.4 12.66-2.23 18.98-1.43 10.87.76 21.39 3.06 31.89 1.84 8.4 3.9 16.75 5.81 25.14.29 1.29.49 2.67.39 3.98-.39 5.43-4.11 7.86-9.2 5.97-.79-.29-1.4-1.34-1.89-2.16-7.4-12.51-10.42-26.28-11.59-40.58-.11-1.32-.32-2.64-.54-4.34-4.27.23-8.36.45-12.81.69-.92 6.45-1.84 12.83-2.74 19.21-1.07 7.64-2.03 15.3-3.24 22.92-.39 2.44.17 3.77 2.37 5.11 5.73 3.48 11.71 6.76 16.72 11.13 9.25 8.06 10.97 18.87 7.7 30.11-2.87 9.84-7.34 19.2-10.49 28.97-7.3 22.66-11.89 45.77-3.51 69.02 4.72 13.09 11.32 25.51 17.22 38.17 4.53 9.72 9.46 19.26 13.85 29.04 1.21 2.7 1.62 6.01 1.42 8.98-.1 1.46-2.29 3.7-3.76 3.9-1.84.25-4.9-.63-5.76-2.04-14.96-24.57-29.05-49.58-37.64-77.26-4.44-14.32-6.08-29.03-3.57-43.76 1.45-8.49 5.04-16.63 7.72-24.91 3.3-10.19 6.99-20.26 9.82-30.58 1.12-4.07.97-8.74.29-12.96-.45-2.81-2.38-5.8-4.49-7.83-2.76-2.67-6.35-4.47-9.82-6.81z" fill="#010105"/><path d="m266.54 112.57c-3.94-1.81-7.5-.72-11.03.25-2.47.68-4.86 1.72-7.36 2.23-5.27 1.07-9.89-3.21-9.24-8.57.1-.79 1.23-1.85 2.08-2.08 6.12-1.7 12.26-3.35 18.45-4.78 9.32-2.16 7.37-.12 8.32-9.55 1.48-14.66-1.27-28.99-2.92-43.42-.83-7.27-.92-14.51 2.38-21.58 4.48.85 7.91 3.36 9.32 7.33 2.04 5.73 4.01 11.72 4.47 17.71.97 12.81.96 25.69 1.33 38.55.05 1.67.01 3.35.01 5.27h16.82c.94-7.49 1.82-15.12 2.89-22.73.71-5.07 1.4-10.17 2.66-15.12 1.01-3.96 3.93-6.64 7.75-8.29 2.11-.91 3.38-.69 4.42 1.66 2.22 5.02 2.47 10.16 1.61 15.44-.49 2.98-.85 6.02-1.77 8.87-2.6 8.09-2.05 16.34-1.72 24.61.4 10.06.44 20.16 1.3 30.18.47 5.5 2.17 10.92 3.58 16.31 1.65 6.29 3.36 12.52 2.44 19.14-.64 4.59-1.18 5.28-6.89 6.58-3.3.76-3.65-2.41-4.75-4.15-4.1-6.48-5.51-13.9-6.52-21.32-1.58-11.63-2.79-23.3-4.17-34.96-.06-.54-.18-1.07-.32-1.9-5.44.51-10.76.95-16.06 1.61-.64.08-1.46 1.3-1.62 2.1-2.74 13.82-5.44 27.64-7.98 41.5-.17.91.76 2.42 1.62 3.03 1.8 1.29 3.87 2.22 5.87 3.23 14.87 7.48 24.03 24.71 22.19 41.3-.93 8.41-3.76 16.07-8.07 23.24-8.08 13.43-13.99 27.64-16.74 43.19-1.81 10.21-.33 19.99 2.06 29.83 4.31 17.7 8.76 35.35 15.78 52.25 1.25 3.01 1.52 6.48 1.9 9.78.31 2.73-.53 5.42-3.53 6.08-2.87.63-5.38-.33-7.1-3.16-6.01-9.9-10.53-20.47-14.11-31.44-5.6-17.19-9.6-34.7-9.73-52.89-.04-6.49.04-12.95 2.62-19.13 6.08-14.52 11.41-29.39 18.19-43.57 8.11-16.96 4.14-29.84-8.75-41.03-1.84-1.6-3.85-3.01-5.54-4.32-3.36 6.39-6.48 12.64-9.9 18.73-2.27 4.03-5.12 7.82-9.62 9.47-2.24.82-5.77 1.55-7.2.41-2.47-1.97-2.35-5.61-1.22-8.75.41-1.14 1.03-2.26 1.77-3.22 11.4-14.88 16.11-32.2 18.55-50.38 1.03-7.79 2.28-15.51 3.48-23.54z" fill="#010105"/><path d="m240.96 43.41c-5.2 3.82-11 5.34-17.03 5.98-15.99 1.69-31.88 1.29-47.54-2.78-4.28-1.11-5.45-2.83-4.61-7.03.24-1.21 1.49-2.63 2.65-3.18 5.6-2.67 11.52-3.95 17.79-3.81 10.93.25 21.88.07 32.8.55 3.44.15 6.91 1.6 10.19 2.92 3.04 1.22 4.87 3.8 5.75 7.35z" fill="#010105"/></svg>