<svg enable-background="new 0 0 400 400" viewBox="0 0 400 400" xmlns="http://www.w3.org/2000/svg"><g fill="#010103"><path d="m287.53 71c-1.81-4.65-2.92-9.09-5.21-12.8-1.2-1.94-4.36-2.88-6.81-3.81-9.03-3.44-18.44-3.29-27.82-2.25-5.98.66-11.92 1.85-17.82 3.11-1.54.33-3.24 1.54-4.17 2.84-5.4 7.48-7.03 16.06-6.74 25.11.35 10.85.72 21.69 1.03 32.54.05 1.9-.05 3.81-.24 5.7-.43 4.41-2.66 6.48-7.07 7.07-1.87.25-3.07-.18-3.51-2.05-1.49-6.28-3.79-12.5-4.26-18.86-1.24-16.71.28-33.26 4.42-49.59 1.57-6.17 5.18-10.12 10.55-13 7.53-4.04 15.69-6.08 24.05-6.73 11.24-.87 22.58-1.6 33.76.76 13.61 2.88 23.18 13.75 24.35 27.65.61 7.24.62 14.53 1.12 21.78.44 6.34 1.15 12.67 1.81 18.99.59 5.66.2 11.1-2.35 16.36-1.62 3.35-4.73 2.59-7.27 2.92-.83.11-2.6-1.98-2.86-3.28-1.01-4.99-1.97-10.04-2.23-15.11-.3-5.79.41-11.62.24-17.43-.14-4.93-.68-5.1-5.6-4.96-6.93.2-13.87.22-20.8.57-1.25.06-3.14 1.1-3.53 2.14-1.49 3.93-3.26 8-3.51 12.11-.56 9.59-.27 19.22-.39 28.84-.03 2.08 1.09 2.55 2.87 2.85 8.6 1.43 17.13 3.48 25.78 4.35 8.7.87 14.62 5.69 19.89 11.79 9.15 10.58 13.41 23.34 15.59 36.88 1.53 9.49 1.17 18.91-1.61 28.23-1.3 4.36-5 2.83-7.71 3.52-.69.17-2.29-1.56-2.83-2.72-3.35-7.16-3.66-14.86-3.91-22.61-.19-6.01-.76-12.03-1.46-18.01-1.42-12.19-9.04-19.49-20.02-23.21-5.84-1.98-12.17-3.12-18.33-3.38-15.67-.68-31.31.15-46.75 3.24-1.17.23-2.47 1.02-3.22 1.95-5.67 6.98-8.64 14.94-9.02 24.03-.4 9.83-1.22 19.64-2.06 29.44-.18 2.04-.79 4.43-2.08 5.88-1.29 1.46-3.6 2.26-5.61 2.76-2.34.58-2.88-1.69-3.5-3.26-3.7-9.35-3.89-19.05-1.96-28.73 2.09-10.52 4.69-20.93 7.11-31.38.22-.94.57-2.04 1.23-2.67 8.08-7.65 16.65-14.23 28.66-14.16 4.66.03 9.32-.91 14.39-1.45.26-7.57.37-15.04.83-22.49.44-7.02.69-14.12 2.03-20.99 2.29-11.72 7.73-16.29 19.64-17.42 6.34-.6 12.72-.74 19.08-1.07 1.09-.04 2.18.01 3.83.01z"/><path d="m283.99 236.17c-6.49 3.96-11.07.43-15.47-3.04-10.1-7.95-22.44-10.81-34.06-15.33-2.18-.85-4.41-1.56-7.22-2.54-.83 4.45-1.78 8.66-2.35 12.92-.49 3.65-.44 7.37-.85 11.04-.24 2.11.67 2.77 2.5 3.5 10.38 4.11 20.82 8.09 30.95 12.75 6.76 3.11 11.9 8.3 14.3 15.69 1.71 5.25-.75 8.44-6.2 7.05-3.4-.86-6.78-2.92-9.46-5.26-8.97-7.86-19.33-12.68-31.04-15.66-.86 6.21-.14 12.05 1.4 17.73 1.7 6.25 4.08 12.3 5.73 18.56.95 3.6 1.24 7.43 1.38 11.17.05 1.37-.96 3-1.93 4.13-2.69 3.11-4.8 2.8-6.83-.67-13.26-22.57-16.99-47.05-14.58-72.76 1.54-16.38 5.44-32.16 12.33-47.14.94-2.05 2.41-4.01 4.06-5.56 5.42-5.12 11.58-9.22 18.71-11.51 2.53-.81 5.49-1.18 8.08-.73 19.38 3.42 32.26 14.79 38.57 33.23 6.45 18.84 7.6 38.29 4.99 57.98-1.2 9.04-3.85 17.68-7.9 25.85-1.03 2.08-2.27 4.12-3.69 5.96-6.7 8.68-13.56 17.24-20.22 25.95-.92 1.2-1.54 3.02-1.47 4.51.68 13.86 1.6 27.71 2.3 41.56.1 2.06-.34 4.21-.91 6.21-.78 2.75-2.96 3.73-5.72 3.65-2.66-.08-3.94-1.28-4.74-4-3.43-11.77-5.55-23.73-5.62-36-.06-10.4 2.71-20.11 7.86-29.12.6-1.04 1.49-1.92 2.29-2.84 4.32-4.98 9-9.7 12.92-14.97 9.3-12.5 11.48-27.16 11.88-42.24.08-3.09.01-6.21.01-10.07zm-51.46-33.57c19.42 2.01 34.63 11.78 48.99 24.29-.03-9.67-1.91-18.05-6.1-25.92-4.68-8.79-11.94-13.9-21.65-15.83-4.03-.8-7.65-.72-10.91 2.26-1.8 1.64-4.06 2.76-6.01 4.25-.83.63-1.69 1.52-2.01 2.46-.85 2.54-1.42 5.16-2.31 8.49z"/><path d="m124.61 25.05c5.31.56 9.22 3.02 11.66 7.33 8.35 14.69 16.31 29.54 19.02 46.58 1.57 9.87.85 19.61-.61 29.38-.61 4.09-1.21 8.19-1.57 12.31-.11 1.2.28 2.73 1.02 3.65 2.77 3.52 10.99 3.39 13.87-.07 6.08-7.32 9.14-15.91 9.69-25.26 1.04-17.52-1.28-34.56-8.28-50.84-1.21-2.81-2.1-5.94-2.28-8.98-.26-4.4 3.15-7.38 7.55-7.04 1 .08 2.15 1.01 2.83 1.87 7.03 8.78 10.94 18.95 12.53 29.96 2.8 19.4 2.2 38.61-4.39 57.29-3.13 8.9-8.69 15.71-18.27 17.92-3.13.72-6.63-.06-9.95-.24-2.22-.12-4.43-.37-7-.59-1.08 6.33-2.25 12.44-3.15 18.59-3.06 20.79-6.57 41.54-8.89 62.41-3.13 28.15-.35 55.8 9.43 82.6 5.32 14.59 10.38 29.27 15.46 43.94 1.13 3.26 2.04 6.63 2.73 10.01.92 4.5-2.46 8.1-6.98 7.53-.83-.1-1.69-.93-2.3-1.62-6.9-7.91-11.21-17.25-14.13-27.16-2.77-9.41-4.84-19.03-7.27-28.55-.49-1.94-1.03-3.9-1.82-5.74-4.36-10.19-5.58-21.07-7.56-31.84-3.59-19.56-.89-39.05-.15-58.55 1.4-36.82 10.43-72.53 16.82-108.6 2.66-15.02-.61-28.35-7.05-41.42-3.21-6.51-6.65-12.93-10.42-19.13-3.17-5.23-3.32-10.23-.54-15.74z"/><path d="m116.47 150.95c-1.82 8.63-3.66 17.25-5.46 25.88-4.28 20.57-5.68 41.36-4.71 62.33.97 21 1.65 42.02 2.95 63 .42 6.74 2.63 13.35 3.58 20.08.54 3.83.27 7.78.22 11.68-.03 2.49-1.59 4.03-3.94 4.22-2.32.18-4.64-.14-5.98-2.67-3.99-7.51-6.28-15.5-7.12-23.92-1.92-19.13-3.98-38.24-5.64-57.39-1.49-17.21-.62-34.43 1.16-51.58.97-9.33 2.05-18.68 3.77-27.89 1-5.32 3.34-10.39 5.14-15.55 1.29-3.69 2.29-7.56 4.16-10.94 1.12-2.02 3.43-3.83 5.62-4.68 1.99-.77 5.72 3.02 5.98 5.36.07.66.01 1.34.01 2.01.08.02.17.04.26.06z"/><path d="m188.75 317.33c-2.9.57-5.48 1.27-8.1 1.47-.77.06-1.93-1.17-2.44-2.08-7.92-13.97-12.67-29.08-15.19-44.84-4.88-30.56-7.09-61.31-5.29-92.27.49-8.33 1.92-16.49 5.67-23.97 1.08-2.15 3.54-3.99 5.8-5.07 2.66-1.27 6.4 2.07 6.47 5.94.06 3.41-.38 6.94-1.22 10.25-2.8 11-1.76 22.23-2.43 33.36-1.46 24.32 2.5 48.14 5.97 72.06 2.06 14.24 6.4 27.84 9.93 41.68.27 1.06.5 2.11.83 3.47z"/><path d="m120.87 94.46c-.23 9.7-3.07 17.81-6.19 25.85-.2.51-.48 1.05-.88 1.4-7.71 6.61-15.15 13.58-23.31 19.59-3.27 2.41-8.07 2.88-12.26 3.84-2.47.57-4.93-.41-5.54-3.13-.56-2.49-.37-5.06 2.15-6.85 6.83-4.86 13.49-9.97 20.42-14.69 7.74-5.27 12.41-12.49 12.79-21.69.21-5.1-1.49-10.31-2.5-15.44-1.91-9.64-4-19.25-5.88-28.9-.31-1.6-.19-3.37.13-4.98.84-4.24 4.77-5.63 8.28-3.16 3.88 2.73 5.38 6.84 6.25 11.13 2.14 10.51 4.06 21.06 5.99 31.61.39 2.09.44 4.23.55 5.42z"/></g><path d="m377.9 391.2c-.2.3-.4.5-.6.8-.7-.6-1.4-1-2.2-1.5.2-.3.4-.5.5-.8.6.4 1.4.8 2.3 1.5zm-1.8 6.1c-.2-.2-.5-.4-.9-.6.4-.6.8-1.2 1.2-1.9s.7-1.3.9-1.9c.3.3.5.5.8.7-.7 1.3-1.4 2.6-2 3.7zm2.2-9c-.3.3-.5.5-.6.8-.6-.6-1.3-1.1-2-1.5.3-.3.5-.5.6-.7.6.5 1.3.9 2 1.4zm.3.2v-.9h2 4.5c-.3 1.3-.6 2.5-1 3.6s-.9 2.1-1.4 3c.4.5 1 1 1.6 1.4s1.2.8 1.9 1.1c-.3.2-.5.4-.8.8-.4-.3-1-.7-1.6-1.2s-1.2-1.1-1.6-1.6c-.5.6-1.1 1.1-1.7 1.6s-1.4.9-2.1 1.4c-.1-.3-.3-.5-.7-.8.6-.2 1.2-.5 1.9-1s1.4-1.1 2-1.8c-.5-.8-.9-1.6-1.2-2.5s-.6-2-.8-3.2c-.4.1-.7.1-1 .1zm2.5 2.7c.3 1 .7 1.7 1 2.2.3-.5.6-1.1 1-2s.6-1.9.9-3h-3.2-.4c.1.9.3 1.8.7 2.8z" fill="#fcfbfa"/><path d="m396.5 388.5v1.5 3.6h1.5v.9c-.4 0-1 0-1.7 0h-7.9c-.5 0-.9 0-1.2 0v-.9h1.3v-3.5c0-.7 0-1.2 0-1.6h2.4c0-.8 0-1.4 0-1.7h1c0 .3-.1.8-.1 1.7h1.5c0-.8 0-1.4 0-1.7h1c0 .3-.1.9-.1 1.7zm-8.2 9.2c-.2-.3-.5-.5-.8-.8.8-.3 1.4-.6 1.9-.9s1-.7 1.4-1.1c.3.3.6.5.9.8-1.6 1-2.8 1.6-3.4 2zm2.6-6.8v-1.6h-1.5v1.6zm0 2.7v-1.9h-1.5v1.9zm2.4-2.7v-1.6h-1.5v1.6zm0 2.7v-1.9h-1.5v1.9zm.2 2 .7-.8c.4.2.9.5 1.6.8s1.3.7 1.8 1c-.3.3-.5.5-.8.8-.4-.3-1.5-1-3.3-1.8zm2-4.7v-1.6h-1.4v1.6zm0 2.7v-1.9h-1.4v1.9z" fill="#fcfbfa"/></svg>