<svg enable-background="new 0 0 400 400" viewBox="0 0 400 400" xmlns="http://www.w3.org/2000/svg"><g fill="#010103"><path d="m132.2 215.42c.35-8.94.72-17.65 1.03-26.36.79-22.48 1.49-44.96 2.38-67.43.11-2.92-.57-3.95-3.61-3.9-5.36.1-10.74-.16-16.1-.4-2.2-.1-3.15.55-3.38 2.91-.74 7.57-1.67 15.12-2.64 22.66-.75 5.78-2.2 11.29-7.8 14.46-4.14 2.33-6.17 1.63-7.23-3.03-.6-2.64-.71-5.65-.08-8.26 2.05-8.45 2.7-16.96 2.46-25.61-.19-6.82-.17-13.66-.01-20.48.24-10.09-.37-20.08-2.16-30.05-.67-3.73-.06-7.77.48-11.6.47-3.39 3.34-5.13 6.73-4.4.86.18 1.7 1.28 2.19 2.16 3.85 6.88 5.08 14.5 6.11 22.16 1.13 8.41 2.25 16.82 3.43 25.64 6.51 0 12.85.08 19.18-.11.68-.02 1.84-1.56 1.9-2.45.55-9.24 1.46-18.5 1.21-27.73-.3-11.04-2.73-22.04-.79-33.11.76-4.37 2.25-8.62 3.4-12.92.52-1.94 1.77-2.32 3.56-1.81 3.15.88 5.43 2.65 6.06 6 .35 1.86.65 3.77.64 5.66-.13 26.52.06 53.05-.59 79.56-1.21 49.33-2.37 98.67-4.68 147.95-.97 20.57-1.2 41.13-2 61.69-.42 10.74-3.19 21.38-4.84 32.07-.29 1.91-1.27 2.54-3.1 2.71-6.18.59-7.35.32-7.73-5.83-.47-7.63.22-15.35.6-23.02.43-8.6 1.17-17.18 1.6-25.78 1.27-25.14 2.46-50.29 3.68-75.44.03-.55 0-1.11 0-2.09-7.72-.35-15.36-.7-23.3-1.06-1.45 8.95-2.85 17.63-4.26 26.32-1.37 8.5-2.64 17.02-4.16 25.49-.51 2.83-1.45 5.64-2.55 8.3-1.67 4.02-5.43 5.92-9.55 4.91-.83-.21-1.68-1.32-2.06-2.21-1.82-4.23-1.21-8.56-.18-12.84 5.18-21.49 8.61-43.21 8.56-65.37-.02-6.58-1.05-13.16-1.06-19.74 0-5.54.69-11.09 1.38-16.6.13-1.02 1.54-2.35 2.63-2.67 1.8-.55 4.17-1.25 5.21 1.32 1.62 3.99 3.76 7.97 4.37 12.14 1.19 8.05 1.45 16.23 2.13 24.36.1 1.21.4 2.41.64 3.8 7.35.03 14.56.03 22.3.03z"/><path d="m219.92 214.91c-7.29.62-14.27 1.21-21.26 1.83-5.79.51-11.6 1.6-17.37 1.4-4.58-.16-9.11-1.9-13.96-3 .19-1.71.39-3.12.49-4.53.13-1.89 1.15-2.58 2.98-2.89 15.75-2.68 31.35-6.38 47.41-6.84 3.17-.09 3.81-2.31 3.78-4.47-.11-6.9-.6-13.8-.9-20.7-.19-4.33-.69-8.7-.26-12.98.2-2.04 1.84-4.37 3.51-5.74 2.82-2.31 5.44-1.36 7.24 1.84 4.32 7.67 4.04 16.14 4.24 24.51.11 4.69.02 9.38.02 14.36.06.01.57.25 1.07.22 10.49-.71 20.97-1.52 31.46-2.12 1.97-.11 2.85-.82 3.14-2.6 1.2-7.15 2.55-14.27 3.56-21.45.94-6.63 3.27-12.69 6.45-18.44 5.08.77 8.33 4.02 8.25 9.49-.08 5.77-.47 11.7-1.91 17.25-4.79 18.41-1.16 35.76 4.85 53.2 2.73 7.94 3.6 16.52 5.41 24.78.78 3.56-1.77 4.39-4.1 5.43-2.57 1.15-4.87.34-6-2.03-3.74-7.83-7.89-15.57-10.62-23.77-2.52-7.57-3.4-15.68-4.99-23.56-.24-1.2-.43-2.4-.72-4.07-12.53 1.03-24.96 2.05-37.64 3.09-1.39 5.79-2.76 11.5-4.19 17.45 6.62 2.26 12.93 4.44 19.25 6.58 10.86 3.68 16.54 12.23 15.75 23.61-.59 8.41-3.51 15.77-8.91 22.32-10.38 12.58-12.83 26.71-7.39 42.12.43 1.22 1.24 2.35 2.03 3.4 7.35 9.82 16.18 18.21 25.59 26.01 2.5 2.07 4.91 4.25 7.3 6.44 1.31 1.21 2.57 2.5 3.72 3.86 2.35 2.77 3.09 6.92 1.63 8.63-2.08 2.44-7.3 2.85-10.2.3-11.67-10.27-23.7-20.2-34.63-31.22-8.52-8.59-13.21-19.61-13.18-32.08.01-7.07 2.13-13.65 5.57-19.79 3.5-6.24 7.19-12.38 10.51-18.71 1.53-2.92 2.86-6.12 3.43-9.35 1.18-6.65-2.17-11.82-8.56-14.09-4.42-1.57-8.9-2.96-13.28-4.63-1.95-.75-2.85-.2-4.04 1.41-7.99 10.76-15.53 21.94-24.42 31.92-7.09 7.96-15.69 14.65-24.05 21.36-2.88 2.32-6.97 3.33-10.67 4.36-2.66.74-4.92-1.75-4.03-4.39.86-2.55 2.18-5.23 4.05-7.09 8.87-8.85 17.83-17.63 27.07-26.08 13.62-12.45 21.5-28.07 26.25-45.56.43-1.5.78-3.02 1.27-4.99z"/><path d="m309.51 96.64c-1.62 7.04-3.19 14.1-4.92 21.12-.25 1-1.16 1.88-1.9 2.7-2.26 2.48-4.91 4.68-6.83 7.39-4.5 6.35-10.98 9.49-18.1 11.16-11.29 2.64-22.66 5.05-34.11 6.83-14.79 2.29-28.9 6.61-41.38 14.73-5.55 3.61-9.51 9.67-14.19 14.62-2.68 2.84-5.12 5.97-8.13 8.41-2.08 1.69-4.83 2.82-7.46 3.52-4.25 1.12-6.6-1.25-5.28-5.56 1.02-3.34 2.5-6.9 4.79-9.44 8.11-8.96 16.42-17.76 25.17-26.08 2.93-2.79 7.33-4.07 11.16-5.85 5.96-2.76 6.31-2.75 5.04-9.24-1.45-7.44-3.49-14.76-5.42-22.1-.32-1.22-1.23-2.37-2.11-3.33-4-4.38-8.17-8.6-12.08-13.06-1.61-1.84-2.82-1.79-4.79-.62-6.63 3.94-13.42 7.61-20.06 11.53-2.17 1.28-4.56 1.86-6.1.03-.99-1.18-.86-3.66-.6-5.47.42-2.97 2.14-5.17 4.8-6.87 14.51-9.27 28.74-18.98 43.45-27.92 11-6.69 23.26-10.7 36.11-11.59 20.72-1.44 45.74 7.03 57.24 26.31 3.4 5.71 4.74 12.01 4.88 18.6.26.05.54.11.82.18zm-105.63-13.59c14.57 13.9 22.74 30.38 22.82 50.66 9.39-1.9 18.4-3.72 27.14-5.49-.65-5.79-1.88-11.22-1.74-16.62.25-9.74-1.71-18.87-5.83-27.57-1.95-4.13-4.09-8.21-6.59-12.02-1.52-2.31-3.59-5.01-7.1-3.3-9.4 4.61-18.75 9.36-28.7 14.34zm64.08 44.64c5.25-1.64 9.52-2.61 13.49-4.3 9.36-3.97 13.8-12.46 12.17-22.51-.54-3.3-1.09-6.61-1.73-9.89-1.2-6.16-3.39-11.95-8.37-16-8.8-7.15-19.33-8.98-31.42-9.42 12.84 18.98 16.09 39.74 15.86 62.12z"/></g><path d="m385.2 377.6.6-.7c.6.4 1.3.9 1.9 1.5l-.6.7c-.8-.5-1.4-1-1.9-1.5zm.3 7.1c.6-1.4 1.1-2.9 1.5-4.5.3.1.6.3.9.4-.5 1.4-1 2.9-1.5 4.4zm.2-10.1.6-.6c.7.5 1.3 1.1 1.9 1.6l-.7.7c-.6-.6-1.2-1.2-1.8-1.7zm8.4-.8h.8v.9h1.8v.7h-1.8v1.8h-.8v-.3h-1.2v.9h3.3v2.6h-.8v-.4h-2.5c0 .3 0 .6-.1.8h3.4v.7h-3.5c0 .3-.1.6-.1.8h4v.7h-3.5c.7.9 1.9 1.3 3.6 1.5-.2.2-.4.5-.6.9-1.9-.3-3.2-1.1-3.8-2.3-.5 1.1-1.8 2-3.9 2.4-.2-.3-.4-.5-.6-.8 1.9-.4 3.1-.9 3.6-1.7h-3.2v-.7h3.5c.1-.2.1-.5.2-.8h-3.3v-.7h3.4c0-.2 0-.5 0-.8h-2.4v.3h-.8v-2.6h3.3v-.9h-1.2v.3h-.8v-1.8h-1.8v-.7h1.8v-.9h.8v.9h3.2zm-4.4 5.5h2.4c0-.3 0-.6 0-.9h-2.4zm1.2-3.1h3.2v-.8h-3.2zm4.4 2.2h-2.4v.9h2.5v-.9z" fill="#fcfbfa"/><path d="m389.2 385.8h.9v1.5h1.9v-1.5h.9v1.5h2.7v6h1.1v.9h-11.3v-.9h1.1v-6h2.7zm.2 8.7.5.8c-1.2.6-2.5 1.3-4 1.9-.2-.3-.3-.6-.6-.8 1.6-.6 3-1.3 4.1-1.9zm-2-4.3h1.9v-2.1h-1.9zm0 3.1h1.9v-2.2h-1.9zm2.7-3.1h1.9v-2.1h-1.9zm0 3.1h1.9v-2.2h-1.9zm2.4 1.3c1.4.6 2.7 1.2 4.1 1.8l-.5.9c-1.5-.7-2.8-1.4-4.1-1.9zm2.2-6.5h-1.9v2.1h1.9zm-1.9 5.2h1.9v-2.2h-1.9z" fill="#fcfbfa"/></svg>