<svg enable-background="new 0 0 400 400" viewBox="0 0 400 400" xmlns="http://www.w3.org/2000/svg"><path d="m361.2 9.6.8-1c.9.7 1.9 1.4 2.9 2.3l-.9 1.1c-1-1-2-1.8-2.8-2.4zm.5 10.6c.9-2.1 1.6-4.3 2.3-6.7.4.2.8.4 1.3.6-.7 2.1-1.5 4.3-2.2 6.6zm.4-15.2.9-.9c1 .8 2 1.6 2.8 2.4l-1 1c-.9-.9-1.8-1.7-2.7-2.5zm12.5-1.2h1.2v1.4h2.7v1.1h-2.7v2.7h-1.2v-.6h-1.8v1.3h4.9v3.8h-1.2v-.5h-3.7c0 .4-.1.9-.1 1.2h5.1v1h-5.2c0 .5-.1.9-.2 1.2h6v1h-5.2c1.1 1.3 2.9 2 5.5 2.2-.4.4-.7.8-.9 1.3-2.9-.5-4.8-1.6-5.7-3.5h-.1c-.8 1.7-2.7 2.9-5.9 3.6-.2-.4-.6-.8-.9-1.1 2.8-.6 4.6-1.4 5.4-2.5h-4.8v-1h5.3c.1-.3.2-.7.2-1.2h-4.9v-1h5c0-.4 0-.8.1-1.2h-3.5v.5h-1.2v-3.8h4.9v-1.3h-1.8v.5h-1.2v-2.7h-2.7v-1h2.6v-1.4h1.2v1.4h4.7v-1.4zm-6.6 8.3h3.6c0-.4 0-.9 0-1.4h-3.6zm1.9-4.6h4.7v-1.3h-4.7zm6.6 3.2h-3.7v1.4h3.7z" fill="#fbfcfa"/><path d="m385.3 3.8h1.3v2.2h2.8v-2.2h1.3v2.2h4.1v9.1h1.7v1.3h-16.9v-1.3h1.7v-9.1h4.1v-2.2zm.4 13.1.7 1.2c-1.8.9-3.8 1.9-6 2.9-.2-.4-.5-.8-.8-1.3 2.3-1 4.3-1.9 6.1-2.8zm-3.1-6.4h2.8v-3.2h-2.8zm0 4.6h2.8v-3.3h-2.8zm4-4.6h2.8v-3.2h-2.8zm0 4.6h2.8v-3.3h-2.8zm3.7 1.9c2.1.9 4.1 1.8 6.1 2.7l-.7 1.3c-2.2-1.1-4.2-2-6.1-2.9zm3.2-9.7h-2.8v3.2h2.8zm-2.8 7.8h2.8v-3.3h-2.8z" fill="#fbfcfa"/><g fill="#010102"><path d="m228.85 187.96c.56-11.57 1.11-22.93 1.69-35.09-9.42 0-18.44.11-27.45-.04-5.44-.09-10.95-.19-16.3-1.06-4.33-.71-7.77-3.32-8.9-8.15 6.38-3.14 12.56-5.73 20.04-5.58 23.05.44 46.12.11 69.18.2 4.8.02 9.61.34 14.38.88 13.3 1.49 19.43 8.76 21.11 22.42 1.19 9.62-.23 19.21-3.3 28.45-.39 1.17-1.3 2.34-2.27 3.13-8.96 7.22-19.27 10.61-30.74 10.71-14.09.12-28.19.07-42.27.5-17.42.53-24.96 18.94-18.01 33.02.43.88 1.54 1.56 2.48 2.04 10.16 5.15 20.97 6.97 32.23 5.64 11.09-1.31 22.05-1.34 32.96 1.53 7.93 2.09 13.51 6.9 18.11 13.46 9.41 13.41 12.37 28.82 14.16 44.58 2.15 18.93 3.03 37.93 2.1 56.98-.14 2.9-.56 5.79-.72 8.7-.13 2.34-1.08 3.39-3.55 3.84-6.48 1.16-6.41 1.3-8.51-5-4.84-14.5-5.18-29.44-4.29-44.48.85-14.48.27-28.72-3.72-42.88-4.31-15.3-15.13-21.37-29.54-23.62-10.16-1.58-20.08.27-30.03 1.61-15.58 2.09-30.72-6.22-36.86-20.5-.38-.89-.42-1.94-.57-2.93-1.64-10.99.65-21.59 3.28-32.13.29-1.17 1.3-2.32 2.26-3.15 9.37-8.16 20.4-12.17 33.05-13.08zm15.38-.47c8.74.31 17 1.09 25.22.73 5.11-.22 10.15-2.12 15.21-3.31 1.88-.44 2.22-1.81 2.16-3.58-.21-6.49-.25-12.98-.45-19.47-.2-6.68-.77-7.28-7.5-8.55-.66-.12-1.32-.31-1.99-.32-10.95-.19-21.9-.37-32.85-.53-.18 0-.37.21-.87.51.36 11.21.71 22.57 1.07 34.52z"/><path d="m127.7 247.72c8.09 0 15.67-.04 23.24.02 4.34.03 8.73-.16 12.99.47 4.13.62 7.08 3.36 7.99 7.61.2.93-.46 2.56-1.25 3.1-4.4 3.02-9.5 3.65-14.71 3.79-15.87.43-31.73.95-47.6 1.31-11.34.26-22.6-.4-33.4-4.28-1.02-.37-2.4-1.53-2.46-2.39-.12-1.93-1.03-4.2 1.43-5.72 5.31-3.25 10.96-4.31 17.05-3.23 6.39 1.13 12.75 2.32 19.25.48 1.87-.53 2.43-1.3 2.47-3.2.52-23.61 1.13-47.21 1.7-70.82.02-.76-.11-1.53-.24-3.2-8.96 0-17.85.08-26.74-.04-3.66-.05-7.4-.17-10.94-.99-2.11-.49-4.53-1.96-5.7-3.73-3.3-5.01-3.41-7.88 2.15-10 3.88-1.48 8.15-2.52 12.28-2.69 9.57-.39 19.18-.12 28.98-.12 0-24.97 0-48.97 0-73.45-7.65-.31-15.11-.54-22.56-.93-3.56-.18-7.14-.44-10.64-1.06-1.66-.3-3.4-1.27-4.67-2.42-3.63-3.27-2.45-8.42 1.94-10.28 5.26-2.23 10.62-2.92 16.32-2.87 19.59.19 39.17.04 58.76.11 2.77.01 5.6.32 8.29.98 1.75.43 3.83 1.34 4.82 2.72 3.35 4.61 3.53 6.68-.98 9.58-4.77 3.07-10.04 3.55-15.44 3.59-6.91.05-13.83.01-21.02.01v73.62c6 .17 12.09.38 18.18.5 2.91.06 5.82-.17 8.72-.07 7.62.26 11.55 3.78 13 11.64-12.18 8.25-26.48 4.1-40.16 6.75-.34 24.68-.69 49.57-1.05 75.21z"/><path d="m238.1 25.38c10.33 1.34 19.43 5.38 26.72 12.13 9.99 9.25 19.4 19.17 28.53 29.28 9.44 10.46 18.42 21.36 27.23 32.36 2.5 3.12 4.11 7.13 5.39 10.98 1.22 3.68-3.11 7.18-6.76 5.67-1.7-.7-3.4-1.83-4.63-3.19-17.72-19.58-35.32-39.28-53.08-58.83-2.99-3.29-6.45-6.2-9.92-9-5.21-4.21-11.23-4.67-17.47-2.89-1.2.34-2.39 1.23-3.25 2.17-15.38 16.73-30.8 33.42-45.98 50.32-4.09 4.56-7.45 9.78-11.07 14.76-3.6 4.96-8.18 8.41-14.09 10.26-2.58.81-3.48-.2-4.11-2.31-1.61-5.41.94-9.91 4.09-13.56 19.68-22.77 39.57-45.36 59.53-67.89 4.29-4.85 9.77-8.15 16.14-9.75.99-.23 1.99-.37 2.73-.51z"/><path d="m242.41 99.89c10.63 0 21.26-.07 31.89.05 2.54.03 5.14.48 7.6 1.13 1.43.38 2.91 1.32 3.91 2.42 3.2 3.52 2.52 6.28-1.8 7.99-10.25 4.05-20.99 4.1-31.76 3.82-13.52-.36-27.04-.77-40.55-1.34-3.54-.15-7.05-.99-10.56-1.56-2.11-.34-2.81-1.55-2.79-3.74.04-6.36-.11-6.61 5.94-7.75 4.35-.82 8.84-1.09 13.27-1.18 8.28-.18 16.57-.05 24.85-.05z"/></g></svg>