<svg enable-background="new 0 0 400 400" viewBox="0 0 400 400" xmlns="http://www.w3.org/2000/svg"><path d="m361.2 9.6.8-1c.9.7 1.9 1.4 2.9 2.3l-.9 1.1c-1-1-2-1.8-2.8-2.4zm.5 10.6c.9-2.1 1.6-4.3 2.3-6.7.4.2.8.4 1.3.6-.7 2.1-1.5 4.3-2.2 6.6zm.4-15.2.9-.9c1 .8 2 1.6 2.8 2.4l-1 1c-.9-.9-1.8-1.7-2.7-2.5zm12.5-1.2h1.2v1.4h2.7v1.1h-2.7v2.7h-1.2v-.6h-1.8v1.3h4.9v3.8h-1.2v-.5h-3.7c0 .4-.1.9-.1 1.2h5.1v1h-5.2c0 .5-.1.9-.2 1.2h6v1h-5.2c1.1 1.3 2.9 2 5.5 2.2-.4.4-.7.8-.9 1.3-2.9-.5-4.8-1.6-5.7-3.5h-.1c-.8 1.7-2.7 2.9-5.9 3.6-.2-.4-.6-.8-.9-1.1 2.8-.6 4.6-1.4 5.4-2.5h-4.8v-1h5.3c.1-.3.2-.7.2-1.2h-4.9v-1h5c0-.4 0-.8.1-1.2h-3.5v.5h-1.2v-3.8h4.9v-1.3h-1.8v.5h-1.2v-2.7h-2.7v-1h2.6v-1.4h1.2v1.4h4.7v-1.4zm-6.6 8.3h3.6c0-.4 0-.9 0-1.4h-3.6zm1.9-4.6h4.7v-1.3h-4.7zm6.6 3.2h-3.7v1.4h3.7z" fill="#fbfcfa"/><path d="m385.3 3.8h1.3v2.2h2.8v-2.2h1.3v2.2h4.1v9.1h1.7v1.3h-16.9v-1.3h1.7v-9.1h4.1v-2.2zm.4 13.1.7 1.2c-1.8.9-3.8 1.9-6 2.9-.2-.4-.5-.8-.8-1.3 2.3-1 4.3-1.9 6.1-2.8zm-3.1-6.4h2.8v-3.2h-2.8zm0 4.6h2.8v-3.3h-2.8zm4-4.6h2.8v-3.2h-2.8zm0 4.6h2.8v-3.3h-2.8zm3.7 1.9c2.1.9 4.1 1.8 6.1 2.7l-.7 1.3c-2.2-1.1-4.2-2-6.1-2.9zm3.2-9.7h-2.8v3.2h2.8zm-2.8 7.8h2.8v-3.3h-2.8z" fill="#fbfcfa"/><g fill="#010102"><path d="m256.42 148.24c5.09.34 9.95.96 14.81.95 11.74-.04 23.5-.75 35.23-.43 4.75.13 9.6 1.84 14.13 3.56 3.57 1.36 5.57 4.65 6.36 8.6-7.25 4.51-15.15 6.17-23.43 6.1s-16.55-.58-24.83-.58c-7.25 0-14.51.44-22.28.71 0 4.48-.09 8.68.1 12.86.03.6 1.31 1.33 2.14 1.66 3.53 1.39 7.08 2.78 10.69 3.95 11.76 3.81 19.27 11.89 24.38 22.92 7.08 15.28 11.17 31.35 13.55 47.9 2.61 18.09 3.87 36.3 2.71 54.57-.52 8.23-2.14 16.39-3.04 24.61-.34 3.14-1.74 4.54-4.84 4.64-1.43.05-2.85.53-4.57.87-3.32-5.38-4.22-11.4-4.18-17.57.09-12.87.57-25.74.49-38.61-.11-16.47-1.27-32.9-4.64-49.04-3.78-18.11-14.04-31.28-31.86-39.49 0 4.74.03 8.91 0 13.08-.31 40.52-.7 81.04-.91 121.56-.05 9.62.6 19.23.72 28.85.03 2.87-.22 5.9-1.15 8.57-.71 2.05-2.34 4.17-4.15 5.37-3.72 2.46-6.82 1.43-7.86-2.83-1.26-5.16-2.32-10.53-2.32-15.81.01-51.27.27-102.54.45-153.81.02-4.54-1.8-5.49-6.14-3.82-8.08 3.1-12.54 9.72-16.82 16.6-8.61 13.86-12.39 29.16-13.07 45.26-.69 16.32-1.08 32.65-1.44 48.99-.18 8.37.3 16.77-.11 25.12-.26 5.38-3.51 8.15-8.17 7.8-1.23-.09-3.16-1.25-3.41-2.25-1.43-5.81-3.23-11.69-3.47-17.61-1.22-30.21 1.78-60.16 7.57-89.77 1.5-7.66 5.54-14.78 8.02-22.28 2.23-6.73 5.88-12.17 11.97-15.9.76-.46 1.46-1.05 2.1-1.67 5.7-5.46 12.25-9.28 20.21-10.22 2.31-.27 2.9-1.43 2.8-3.59-.16-3.44-.04-6.89-.04-11.22-6.43 0-12.54.07-18.65-.02-12.19-.17-24.39-.36-36.58-.72-2.63-.08-5.33-.69-7.84-1.53-3.19-1.08-5.2-3.55-5.45-6.98-.08-1.04.51-2.59 1.32-3.18 7.26-5.29 15.67-5.95 24.29-5.9 13.75.08 27.49.02 41.79.02.21-4.33.46-9.08.67-13.83.32-7.32.3-7.32-6.7-9.48-3.74-1.15-7.41-2.68-11.23-3.37-10.31-1.84-16.88-8.51-21.74-16.94-10-17.37-11.83-35.84-6.02-55.01.33-1.1 1.7-2.14 2.83-2.67 1.47-.68 3.2-.82 5.04-1.25 3.52 7.08 5.5 14.48 6.1 22.21.46 6.01.32 12.07.67 18.09.55 9.54 10.84 21.6 20.15 23.15 3.28.55 6.48 1.59 10.53 2.62.72-5.76 2.08-11.25 1.95-16.7-.23-10.38-1.09-20.75-2.09-31.09-1.29-13.45-.59-26.55 5.04-39.02 6.61.28 9.92 3.27 10.05 9.72.4 19.58.58 39.16.87 58.74.08 5.37.35 10.74.29 16.11-.02 2.13 1.04 2.86 2.73 2.96 1.54.09 3.14-.05 4.64-.38 12.76-2.84 22.37-9.67 26.52-22.47 1.23-3.8.97-8.11 1.16-12.2.36-7.79.2-15.63 1.02-23.36.27-2.49 2.54-5.21 4.63-6.95 2.91-2.42 6.2-1.25 7.82 2.15 4.05 8.47 5.23 17.43 3.22 26.51-2.02 9.14-4.84 18.11-7.33 27.14-.24.85-.5 1.86-1.1 2.41-8.23 7.49-14.92 17.25-27.55 18.22-4.22.32-8.4 1.27-12.54 2.2-.98.22-2.39 1.42-2.49 2.29-.71 6.4-1.14 12.86-1.72 19.91z"/><path d="m111.27 177.93c-9.74 0-19.11-.24-28.46.07-8.47.29-14.04-2.86-16.12-9.61-.72-2.34-.01-3.47 1.93-4.55 5.84-3.27 12.03-3.66 18.54-2.94 5.85.65 11.76.95 17.65 1.15 3.17.11 4.82-1.19 4.88-5 .32-20.36.98-40.72 1.51-61.08.03-.98 0-1.96 0-3.6-8.76 0-17.22.09-25.69-.04-3.66-.06-7.4-.22-10.93-1.05-1.97-.46-4.02-2.08-5.29-3.74-2.8-3.65-1.81-5.93 2.29-7.77 5.42-2.43 10.97-3.22 16.9-3.16 21.16.2 42.31.02 63.47.14 3.54.02 7.13.61 10.58 1.45 1.82.44 3.77 1.67 4.94 3.12 2.81 3.46 1.71 7.49-2.65 8.32-6.3 1.19-12.77 1.62-19.18 1.98-5.01.28-10.06-.08-15.09-.06-1.62.01-3 .31-3.01 2.61-.1 21.49-.3 42.98-.45 64.46 0 .32.14.63.41 1.79 6.24.16 12.67.32 19.1.49 4.57.12 9.17-.04 13.68.52 2.04.25 4.22 1.62 5.77 3.09 4.48 4.25 3.79 7.47-1.82 9.66-5.84 2.28-11.88 2.65-18.12 2.22-5.63-.39-11.31-.08-17.27-.08-.26 9.02-.53 17.27-.73 25.52-.37 15.77-.64 31.55-1.09 47.32-.07 2.64.77 3.59 3.36 3.63 8.72.13 17.44.3 26.15.65 4.11.16 8.27.44 12.27 1.29 2 .43 4.1 1.93 5.45 3.55 3.1 3.73 1.96 8.55-2.63 9.59-5.81 1.32-11.87 1.87-17.85 2.1-11.94.46-23.9.43-35.85.69-15.53.34-31.08 1.39-46.39-2.6-2.74-.71-4.04-1.9-4.49-4.73-.94-5.89-1-6.01 4.81-7.83 7-2.19 14.1-1.7 21.28-1.2 4.65.32 9.36-.03 14.01-.39.85-.07 2.24-1.62 2.27-2.52.69-24.27 1.25-48.53 1.86-73.46z"/></g></svg>