<svg enable-background="new 0 0 400 400" viewBox="0 0 400 400" xmlns="http://www.w3.org/2000/svg"><path d="m361.2 9.6.8-1c.9.7 1.9 1.4 2.9 2.3l-.9 1.1c-1-1-2-1.8-2.8-2.4zm.5 10.6c.9-2.1 1.6-4.3 2.3-6.7.4.2.8.4 1.3.6-.7 2.1-1.5 4.3-2.2 6.6zm.4-15.2.9-.9c1 .8 2 1.6 2.8 2.4l-1 1c-.9-.9-1.8-1.7-2.7-2.5zm12.5-1.2h1.2v1.4h2.7v1.1h-2.7v2.7h-1.2v-.6h-1.8v1.3h4.9v3.8h-1.2v-.5h-3.7c0 .4-.1.9-.1 1.2h5.1v1h-5.2c0 .5-.1.9-.2 1.2h6v1h-5.2c1.1 1.3 2.9 2 5.5 2.2-.4.4-.7.8-.9 1.3-2.9-.5-4.8-1.6-5.7-3.5h-.1c-.8 1.7-2.7 2.9-5.9 3.6-.2-.4-.6-.8-.9-1.1 2.8-.6 4.6-1.4 5.4-2.5h-4.8v-1h5.3c.1-.3.2-.7.2-1.2h-4.9v-1h5c0-.4 0-.8.1-1.2h-3.5v.5h-1.2v-3.8h4.9v-1.3h-1.8v.5h-1.2v-2.7h-2.7v-1h2.6v-1.4h1.2v1.4h4.7v-1.4zm-6.6 8.3h3.6c0-.4 0-.9 0-1.4h-3.6zm1.9-4.6h4.7v-1.3h-4.7zm6.6 3.2h-3.7v1.4h3.7z" fill="#fbfcfa"/><path d="m385.3 3.8h1.3v2.2h2.8v-2.2h1.3v2.2h4.1v9.1h1.7v1.3h-16.9v-1.3h1.7v-9.1h4.1v-2.2zm.4 13.1.7 1.2c-1.8.9-3.8 1.9-6 2.9-.2-.4-.5-.8-.8-1.3 2.3-1 4.3-1.9 6.1-2.8zm-3.1-6.4h2.8v-3.2h-2.8zm0 4.6h2.8v-3.3h-2.8zm4-4.6h2.8v-3.2h-2.8zm0 4.6h2.8v-3.3h-2.8zm3.7 1.9c2.1.9 4.1 1.8 6.1 2.7l-.7 1.3c-2.2-1.1-4.2-2-6.1-2.9zm3.2-9.7h-2.8v3.2h2.8zm-2.8 7.8h2.8v-3.3h-2.8z" fill="#fbfcfa"/><g fill="#010102"><path d="m206.38 143.89c-1.89 10.21-3.11 19.78-5.51 29.04-4.1 15.78-8.81 31.42-13.51 47.04-4.15 13.79-8.46 27.54-13.05 41.18-1.45 4.3-3.88 8.3-6.15 12.27-2.31 4.02-5.96 6.29-10.65 6.68-3.56.3-4.7-.46-4.55-3.96.15-3.53.5-7.23 1.73-10.48 2.45-6.46 5.37-12.77 8.47-18.96 7.12-14.2 9.6-29.72 13.18-44.93 4.94-21 9.65-42.05 14.57-63.06.6-2.55.48-4.71-.78-7.03-1.6-2.94-2.66-6.18-4.32-9.08-5.98-10.44-4.99-21.13-.85-31.68 4.2-10.73 9.33-20.93 17.51-29.49 6.55-6.86 11.87-14.92 18.48-21.72 5.01-5.15 11.13-9.23 16.87-13.65 2.74-2.11 5.95-1.26 8.03.67 1.37 1.28 2.09 4.3 1.65 6.21-.63 2.76-2.08 5.66-4.02 7.72-11.73 12.46-24.15 24.3-35.43 37.14-9.82 11.17-11.95 24.71-7.99 39.06.36 1.29 1.32 2.63 2.37 3.47 6.02 4.82 12.02 9.7 18.3 14.16 6.75 4.79 12.96 10.11 16.87 17.45 1.95 3.65 2.9 7.91 3.87 11.99 2.6 10.96 5.86 21.84 4.22 33.55h28.23c.36-30.08.72-60.02 1.08-90.69-4.67 0-9.1.06-13.53-.02-5.7-.1-11.41-.15-17.1-.54-2.28-.15-4.66-.82-6.73-1.81-3.53-1.69-4.91-7.07-2.68-10.15.6-.83 2.04-1.32 3.15-1.45 11.1-1.23 22.2-3.14 33.33-3.32 15.85-.26 31.73.77 47.59 1.27.89.03 1.78.2 2.66.36 8.18 1.42 8.19 1.43 9.96 10.01-5.18 3.04-10.91 4.27-16.88 4.37-6.71.11-13.41.03-20.12-.03-2.52-.02-3.38.94-3.39 3.61-.19 28.32-.54 56.63-.83 84.95-.01.87.1 1.75.21 3.58 7.98.07 15.86.11 23.74.21 3.12.04 6.29-.09 9.34.45 2.1.37 4.31 1.42 5.97 2.77 5.39 4.39 4.78 8.84-1.33 11.77-5.68 2.73-11.76 2.26-17.77 2.47-6.58.22-13.15.46-20.21.71-.36 28.03-.72 55.61-1.08 83.92 9.13 0 17.91-.09 26.69.04 3.66.06 7.33.43 10.94.99 1.46.22 3.09 1.01 4.13 2.05 5.29 5.31 7.28 9.45-.87 12.81-4.51 1.86-9.68 2.69-14.6 2.89-18.44.73-36.9 1.14-55.35 1.42-10.33.15-20.51-1.21-30.42-4.36-2.67-.85-4.23-2.63-4.12-4.98.11-2.23.9-5.15 2.47-6.45 5.12-4.2 11.5-4.3 17.84-4.24 9.82.1 19.64.03 30.02.03-.35-28.41-.68-55.99-1.02-83.86-9.78-.94-19.31-1.86-29.03-2.79-2.13 11.14-4.58 21.82-6.17 32.63-4.24 28.77-15.84 54.59-31.02 79.02-8.38 13.5-16.79 26.99-27.76 38.64-4.41 4.68-8.97 9.18-15.56 10.55-3.06.64-6.76 2.19-8.82-1.43-1.99-3.49.27-6.81 2.35-9.44 3.25-4.11 7.2-7.67 10.59-11.69 27.1-32.15 46.04-68.64 56.72-109.23 7.46-28.36 5.97-56.51-4.83-84-1.15-2.93-2.74-5.23-5.31-7.05-3.2-2.19-6.17-4.73-9.79-7.58z"/><path d="m106.66 294.45c-.35-28.64-.69-56.13-1.04-84.48-7.26-.11-14.35-.16-21.44-.34-5.01-.13-10.09 0-15-.8-4.67-.76-7.25-4.28-7.78-8.55-.23-1.86.28-2.75 2.14-3.43 8.59-3.13 17.37-2.39 26.21-1.78 3.99.28 8.02-.02 12.03-.23 2.11-.11 3.29-1.12 3.33-3.61.43-29.32.97-58.64 1.47-87.95.01-.55-.08-1.11-.16-2.16-5.09-.19-10.17-.43-15.25-.56-4.92-.13-9.85-.08-14.76-.29-1.99-.09-4-.51-5.91-1.06-2.64-.76-4.76-2.38-4.8-5.35-.05-2.94.41-5.98 3.71-7.21 2.23-.83 4.6-1.8 6.91-1.82 24.18-.13 48.36-.11 72.54-.05 3.46.01 6.95.2 10.35.81 1.98.35 4.14 1.29 5.6 2.64 3.9 3.6 3.03 7.47-1.76 9.43-6.94 2.84-14.12 3.11-21.45 2.23-6.66-.8-13.33-1.6-20.48.45 0 8.19.07 16.45-.01 24.71-.22 21.71-.47 43.42-.81 65.13-.04 2.46.73 3.45 3.18 3.47 6.37.06 12.73.2 19.1.39 3.23.09 6.49.11 9.65.65 1.65.28 3.35 1.37 4.61 2.54 3.98 3.69 3.57 6.68-1.02 9.42-5.21 3.11-10.74 3.37-16.53 2.12-4.97-1.07-9.94-1.21-14.93.17-1.67.46-2.34 1.15-2.4 2.95-.83 26.29-1.73 52.57-2.61 78.86-.03.87 0 1.74 0 3.51 9.48.05 18.71.03 27.94.17 4.01.06 8.09.05 12.01.77 4.91.9 8.66 3.72 9.77 8.93.21 1-.3 2.61-1.05 3.29-3.63 3.28-8.08 4.62-12.93 4.74-20.34.52-40.68 1.14-61.03 1.53-10.89.21-21.62-1.23-32.19-3.98-2.36-.61-2.75-2.05-3.15-4.02-1.41-6.82-1.56-7.08 5.06-9.1 4.01-1.22 8.31-1.91 12.5-2.03 9.89-.3 19.84-.11 30.38-.11z"/></g></svg>