<svg enable-background="new 0 0 400 400" viewBox="0 0 400 400" xmlns="http://www.w3.org/2000/svg"><g fill="#010103"><path d="m266.09 128.52c0 16.6.25 32.92-.11 49.23-.18 8.23-1.45 16.43-2.28 24.64-.11 1.1-.43 2.21-.84 3.24-1.39 3.45-4.89 4.84-9.66 4.05-3.56-.59-2.62-3.62-2.69-5.58-.13-4.11-.05-8.33.77-12.34 1.94-9.6 2.98-19.12 1.87-28.96-1.23-10.88-1.73-21.84-2.57-32.93-5.43-.34-10.52-.66-15.9-1 1.24 5.24 2.55 9.97 3.48 14.77 5.74 29.88.79 58.05-13.9 84.58-4.71 8.51-9.41 17.03-14.34 25.41-8.49 14.45-12.38 29.91-12.24 46.72.16 19.08 1.67 37.98 4.45 56.83.41 2.81.16 5.8-.27 8.64-.57 3.7-3.1 5.79-6.75 6.49-2.04.39-3.63.05-4.19-2.11-1.53-5.91-3.83-11.79-4.25-17.79-.98-13.94-1.09-27.95-1.45-41.93-.21-8.16-.37-16.33-.24-24.49.17-10.95 3.52-21.17 8.42-30.8 6.64-13.04 13.86-25.79 20.53-38.82 8.01-15.67 14.08-32.09 13.79-49.92-.14-8.72-1.61-17.62-3.89-26.06-2.73-10.15-16.1-14.89-25.14-9.83-.37.21-.69.57-.95.92-2.91 3.95-5.81 7.91-8.8 11.99 6.67 6.67 12.12 13.99 16.15 22.33 6.56 13.6 7.9 27.65 3.26 42.04-.65 2.03-2.69 4.37-4.62 5.06-4.01 1.44-6.11-.06-6.85-4.32-.45-2.6-.63-5.42-.12-7.98 2.45-12.25-.25-23.29-7.22-33.45-1.77-2.57-3.58-5.12-5.69-8.15-3.12 5.39-4.89 10.87-4.62 16.47.54 11.14 1.82 22.25 2.91 33.36.4 4.11 1.46 8.16 1.66 12.27.21 4.5-2.59 6.89-7.06 6.26-1.28-.18-2.89-1.22-3.54-2.34-6.63-11.53-9.37-24.1-9.2-37.31.26-19.35 4.11-37.98 14.61-54.37 9.96-15.54 24.22-20.73 39.69-15.93 4.2 1.3 7.92 4.11 11.79 6.19 1.26-1.16 3-2.73 4.7-4.35 4.37-4.17 9.52-6.02 15.58-5.69 6.59.37 13.19.42 19.78.78 5.78.31 10.21 3.74 14.51 7.07 10.02 7.75 14.52 18.51 15.74 30.75 1.62 16.21 0 32.05-7.65 46.68-3.88 7.41-8.48 14.48-13.25 21.36-6.63 9.56-8.38 19.66-5.5 30.91 5.53 21.54 11.02 43.09 16.07 64.75 4.41 18.93 2.28 37.57-4.13 55.79-.27.78-1.17 1.45-1.93 1.9-.64.38-1.5.37-2.27.51-1.76.31-3.51.6-6.08 1.04-.39-3.5-1.22-6.88-1.03-10.21.26-4.78.93-9.59 2-14.26 2.74-11.93 2.39-23.56-1.04-35.4-4.73-16.31-8.91-32.79-12.89-49.3-3.9-16.17-4.04-32.37 1.72-48.25.66-1.82 1.9-3.49 3.14-5.02 17.65-21.73 24.18-45.77 15.02-72.97-2.51-7.39-9.4-11.68-16.49-11.17z"/><path d="m121.45 142.53c8.05 0 15.75-.07 23.46.02 6.37.08 10.06 3.74 10.54 10.37-10.41 5.94-21.91 1.75-33.37 3.55-.58 21.26-1.16 42.76-1.77 64.96 5.93.16 11.59.35 17.24.43 4.03.06 8.06-.17 12.09-.02 1.98.07 4 .51 5.88 1.14 2.49.84 3.76 2.75 3.43 5.47-.32 2.69-1.14 4.77-4.35 5.44-14.2 2.97-28.6 3.74-43.04 3.99-11.19.19-22.41.31-33.36-2.57-1.54-.4-3.86.01-4.01-2.61-.15-2.57-.31-4.93 2.75-6.41 4.15-1.99 8.34-2.86 12.93-2.77 5.21.1 10.44-.24 15.63-.69.82-.07 2.14-1.68 2.15-2.6.34-20.48.54-40.96.75-61.44 0-.43-.14-.86-.38-2.16-6.05 0-12.17.06-18.29-.03-2.11-.03-4.32-.1-6.27-.78-1.68-.59-3.45-1.78-4.48-3.22-2.68-3.76-1.79-6.59 2.59-7.72 3.86-1 7.89-1.38 11.88-1.75 4.11-.38 8.26-.42 12.39-.63 1.89-.1 2.63-1.03 2.62-3.03-.07-16.34-.08-32.69.01-49.04.01-2.32-.99-2.84-2.96-2.96-6.59-.4-13.18-.75-19.74-1.42-2.37-.24-5.18-.75-6.81-2.23-1.54-1.39-2.13-4.15-2.52-6.41-.4-2.35 1.83-2.79 3.52-3.72 6.3-3.46 13.13-3.23 19.93-3.22 13.19.01 26.38.07 39.57.16 1.33.01 2.65.37 3.97.63 6 1.17 5.75 1.23 7.14 7.21.83 3.57-.33 5.51-3.57 6.05-4.25.71-8.62 1.46-12.89 1.26-10.78-.5-11.04-.46-11.36 10.07-.42 13.65-.88 27.29-1.31 40.94-.03 1.55.01 3.1.01 5.74z"/><path d="m158.07 145.04c-4.92-8.54-5.93-17.87-3.43-27.15 2.8-10.42 6.79-20.53 10.3-30.76.28-.83.65-1.77 1.27-2.33 7.59-6.75 14.91-13.89 22.98-20.03 7.8-5.94 17.7-6.46 27.02-8.19 3.52-.66 7.02-1.43 10.56-1.86 2.17-.26 2.94-1.29 2.85-3.26-.13-2.78-.11-5.6-.53-8.34-.84-5.61-.33-10.97 2.59-15.88.49-.83 2.14-1.6 3.09-1.44 5 .81 7.87 4.33 7.53 9.44-.28 4.11-1.15 8.18-1.57 12.29-.22 2.18-.04 4.39-.04 6.66 10.78 1.95 21 3.77 31.2 5.69 1.5.28 3.02.82 4.35 1.57 4.56 2.6 8.89 5.66 13.59 7.98 9.72 4.81 16.11 12.67 20.73 22.08 7.51 15.31 11.2 31.33 7.6 48.42-.28 1.31-.84 3.26-1.77 3.61-2.35.89-4.97 1.14-7.51 1.38-.4.04-1.02-1.31-1.39-2.09-3.5-7.32-4.04-15.21-4.9-23.14-.73-6.71-2.02-13.49-4.08-19.91-3.09-9.64-10.69-15.78-18.87-21.06-10.72-6.92-22.72-9.63-35.3-10.3-18.23-.97-35.65 1.86-51.81 10.79-.68.38-1.49.65-2.01 1.19-8.56 9.06-17.21 18.19-19.96 30.86-1.54 7.07-1.94 14.39-2.85 21.6-.15 1.22-.26 2.45-.43 3.66-1.1 7.55-1.11 7.55-9.21 8.52z"/></g><path d="m385.2 377.6.6-.7c.6.4 1.3.9 1.9 1.5l-.6.7c-.8-.5-1.4-1-1.9-1.5zm.3 7.1c.6-1.4 1.1-2.9 1.5-4.5.3.1.6.3.9.4-.5 1.4-1 2.9-1.5 4.4zm.2-10.1.6-.6c.7.5 1.3 1.1 1.9 1.6l-.7.7c-.6-.6-1.2-1.2-1.8-1.7zm8.4-.8h.8v.9h1.8v.7h-1.8v1.8h-.8v-.3h-1.2v.9h3.3v2.6h-.8v-.4h-2.5c0 .3 0 .6-.1.8h3.4v.7h-3.5c0 .3-.1.6-.1.8h4v.7h-3.5c.7.9 1.9 1.3 3.6 1.5-.2.2-.4.5-.6.9-1.9-.3-3.2-1.1-3.8-2.3-.5 1.1-1.8 2-3.9 2.4-.2-.3-.4-.5-.6-.8 1.9-.4 3.1-.9 3.6-1.7h-3.2v-.7h3.5c.1-.2.1-.5.2-.8h-3.3v-.7h3.4c0-.2 0-.5 0-.8h-2.4v.3h-.8v-2.6h3.3v-.9h-1.2v.3h-.8v-1.8h-1.8v-.7h1.8v-.9h.8v.9h3.2zm-4.4 5.5h2.4c0-.3 0-.6 0-.9h-2.4zm1.2-3.1h3.2v-.8h-3.2zm4.4 2.2h-2.4v.9h2.5v-.9z" fill="#fcfbfa"/><path d="m389.2 385.8h.9v1.5h1.9v-1.5h.9v1.5h2.7v6h1.1v.9h-11.3v-.9h1.1v-6h2.7zm.2 8.7.5.8c-1.2.6-2.5 1.3-4 1.9-.2-.3-.3-.6-.6-.8 1.6-.6 3-1.3 4.1-1.9zm-2-4.3h1.9v-2.1h-1.9zm0 3.1h1.9v-2.2h-1.9zm2.7-3.1h1.9v-2.1h-1.9zm0 3.1h1.9v-2.2h-1.9zm2.4 1.3c1.4.6 2.7 1.2 4.1 1.8l-.5.9c-1.5-.7-2.8-1.4-4.1-1.9zm2.2-6.5h-1.9v2.1h1.9zm-1.9 5.2h1.9v-2.2h-1.9z" fill="#fcfbfa"/></svg>