<svg enable-background="new 0 0 400 400" viewBox="0 0 400 400" xmlns="http://www.w3.org/2000/svg"><g fill="#fbfafa"><path d="m37.59 393.81c-.92.31-1.52.05-2-.78-.7-1.2-1.52-2.34-2.47-3.78v4.59c-.55.03-.95.05-1.41.07-.03-.37-.06-.64-.06-.91 0-1.91 0-3.81 0-5.7 1.13-.41 1.77-.03 2.29.91.62 1.11 1.38 2.14 2.31 3.19v-4.2h1.35v6.61z"/><path d="m12.94 393.88v-6.75c1.9.19 3.93-.54 5.37 1.29.8 1.01.78 2.88.03 3.97-1.37 1.97-3.4 1.51-5.4 1.49m1.45-1.22c2.04.12 2.92-.58 2.89-2.21-.03-1.51-.98-2.19-2.89-2z"/><path d="m11.81 393.87h-5.49c.68-2.18 2.47-3.48 3.51-5.45h-3.08v-1.21h5.29c-.71 2.13-2.44 3.48-3.47 5.51.86 0 1.63.04 2.39-.01.79-.05 1.14.21.85 1.16"/><path d="m39.33 393.86v-6.61h3.7v1.07h-2.22v1.52c.68.04 1.34.09 2.07.13v1.07c-.72.05-1.38.09-2.1.14v1.48h2.4v1.19h-3.85z"/><path d="m27.71 388.56c-1.15-.3-2.46-.61-3.1.64-.37.73-.41 1.93-.06 2.67.63 1.35 1.99.93 3.17.68.35.94-.01 1.32-.93 1.46-1.62.25-3.05-.27-3.76-1.48-.73-1.24-.6-3.03.31-4.17.88-1.11 2.71-1.7 4-1.16.32.13.44.74.65 1.12-.1.08-.19.16-.28.24"/><path d="m49.15 387.24v1.07c-.59.02-1.17.05-1.87.08v5.44h-1.48v-5.44h-1.85c-.05-.4-.08-.73-.13-1.15z"/><path d="m20.06 387.21h1.33v6.62h-1.33z"/><path d="m30.68 393.25c-.49.38-.8.79-1.05.76-.32-.05-.6-.45-.9-.7.26-.24.51-.64.8-.67.29-.04.62.3 1.15.61"/></g><path d="m139.3 89.69v17.69c9.19.41 18.22-1.19 27.28-3.35 12.36-2.94 18.17-11.23 19.11-23.09.61-7.74.23-15.61-.3-23.38-.78-11.42.9-22.23 5.97-32.59 5.99 1.7 8.5 6.19 9.08 11.5.67 6.19.93 12.52.5 18.73-.83 12.16-2.27 24.27-3.44 36.4-.04.42-.01.85-.01 1.53 15.98 3.12 31.84 6.22 48.07 9.4.34-3.3.64-6.23 1.02-9.83-6.33-.2-12.22-.34-18.11-.58-2.45-.1-5.01-.02-7.29-.74-1.76-.55-3.64-1.91-4.63-3.45-2.46-3.82-1.54-6.7 2.8-7.89 4.25-1.16 8.74-1.54 13.15-1.93 3.55-.32 7.16-.03 10.73-.22 2.43-.13 3.75-1.31 3.65-4.1-.13-3.91.07-7.84.34-11.74.14-2.07-.56-2.79-2.58-2.84-7.04-.19-14.09-.41-21.12-.8-2.31-.13-4.83-.35-6.82-1.37-1.82-.93-3.55-2.75-4.43-4.61-1.08-2.29-.45-4.34 2.61-5.32 9.28-2.96 18.82-3.91 28.46-4.07 13.88-.22 27.72.09 41.49 2.37 3.88.64 5.72 2.19 5.86 6.02.04 1.09.4 2.17.66 3.5-9.74 4.99-20.53 2.38-30.79 4.44v17.58c6.53.25 12.98.42 19.42.76 3.22.17 6.53.27 9.6 1.13 1.83.52 3.98 2.14 4.72 3.82 1.71 3.88 1.79 6.29-2.86 7.42-3.65.89-7.45 1.41-11.2 1.54-5.24.19-10.49-.16-15.74-.22-2.24-.03-3.43.92-3.45 3.43-.03 3.33-.43 6.65-.69 10.18 10.14 2.67 20.07 5.29 30 7.9 6.05 1.59 12.17 2.97 18.14 4.83 3.48 1.08 6.87 2.69 10.01 4.54 1.46.86 2.86 2.73 3.23 4.38.93 4.09-.22 5.47-3.58 6.06-6.37 1.11-12.48-.06-18.52-1.82-11.69-3.4-23.35-6.92-35.03-10.39-.72-.21-1.47-.36-2.59-.63-.58 10.42-1.14 20.53-1.75 31.48 5.23 0 10.13-.07 15.02.02 4.91.09 9.86.06 14.73.59 5.07.55 7.8 3.38 8.45 7.7.3 1.99-.09 3.66-2.15 4.32-2.95.96-5.94 2.36-8.95 2.48-18.43.7-36.87 1.49-55.3 1.38-7.94-.05-15.86-2.19-23.79-3.39-1.66-.25-2.29-1.14-2.44-2.92-.53-6.4.41-8.45 7.02-9.38 6.37-.9 12.91-.59 19.38-.71 4.65-.09 9.31-.02 14.36-.02 0-5.73 0-10.52 0-15.3 0-5.37-.07-10.75.03-16.12.04-2-.47-2.89-2.66-3.29-17.5-3.13-34.96-6.45-52.45-9.59-1.11-.2-2.68.33-3.57 1.07-5.46 4.57-11.78 7.33-18.64 8.76-8.74 1.82-17.54 3.36-26.34 4.88-1.76.3-2.47.99-2.62 2.71-.67 8.02-1.41 16.04-2.18 24.61 4.06.25 8.01.55 11.97.73 5.8.26 11.62.26 17.41.72 1.77.14 3.69 1.11 5.11 2.24 3.88 3.12 3.13 8.58-1.47 10.26-2.68.97-5.63 1.56-8.48 1.61-16.55.29-33.12.68-49.66.39-8.11-.14-16.2-1.73-24.31-2.54-2.74-.28-2.71-2.3-2.8-4.09-.11-1.99-1.52-4.23 1.57-5.7 5.91-2.82 12-3.08 18.35-2.57 5.1.41 10.23.4 15.35.48 2.18.03 3.03-1.16 3.09-3.4.2-7.03.6-14.05.95-21.65-4.42.4-8.64.5-12.76 1.2-10.47 1.78-20.87 3.96-31.35 5.63-2.15.34-5.93-.2-6.54-1.49-1.16-2.44-.74-5.72-.58-8.63.04-.69 1.51-1.48 2.47-1.93 8.22-3.86 17.02-5.23 25.95-6.2 6.1-.66 12.14-1.82 18.2-2.81 1.99-.33 2.98-1.49 3.13-3.65.36-5.33.93-10.65 1.46-16.52-4.97-.39-9.73-.75-14.48-1.13-2.56-.21-5.16-.24-7.66-.73-2.81-.54-4.81-2.2-5.47-5.22-.55-2.49-.03-4.2 2.41-5.51 5.45-2.93 10.95-4.51 16.99-1.91 3.02 1.3 5.3.04 6.12-2.77 1.18-4.02 1.74-8.22 2.66-12.86-2.42-.23-4.14-.46-5.87-.54-5.81-.24-11.64-.21-17.43-.7-4.71-.4-6.89-3.17-6.89-7.5 0-1.96.64-3.18 2.68-3.52 5.61-.93 11.19-2.34 16.84-2.74 16.3-1.16 32.63-1.36 48.88.97.55.08 1.11.23 1.66.24 3.54.06 5.17 1.94 5.32 5.39.06 1.21.41 2.41.69 3.95-6.48 3.01-13.19 5.21-20.29 3.34-6.84-1.8-10-.91-11.82 8.26-.41 2.06-.5 4.18-.8 6.88 6.44.34 12.55.63 18.65 1 2 .12 4.05.23 5.98.71 4.15 1.05 6.24 4.8 4.93 8.84-.28.86-1.41 1.91-2.27 2.04-5.37.78-10.76 1.46-16.17 1.9-3.32.28-6.66.06-10.59.06z" fill="#010105"/><path d="m144.14 195.26c-11.36 0-22.3.2-33.23-.1-4.04-.11-8.2-.99-12.04-2.31-3.65-1.25-4.97-4.38-4.35-8.12.14-.85.78-2.09 1.45-2.3 3.19-.96 6.47-2.32 9.71-2.29 30.09.26 60.18.79 90.28 1.22 8.28.12 16.58-.1 24.84.31 11.04.55 22.08 1.39 33.09 2.4 15.8 1.44 21.83 11.93 23.04 23.99 1.05 10.57-.11 21.02-4.56 30.85-.55 1.22-1.59 2.47-2.73 3.14-15.75 9.28-32.77 13.65-51.04 12.1-29.23-2.47-58.33-1.43-87.35 2.61-8.78 1.22-13.03 5.6-12.47 13.51.1 1.34 1.22 3.11 2.38 3.8 9.41 5.55 19.87 7.12 30.44 5.97 15.84-1.72 31.67-1.97 47.55-1.82 13.61.13 26.98 1.76 39.9 6.29 17.76 6.23 29.9 18.6 37.32 35.48 5.39 12.26 9.86 24.93 14.51 37.5 1.73 4.66 2.11 9.58.63 14.51-.59 1.97-1.44 2.62-3.72 2.73-5.39.27-8.33-1.89-9.91-7.01-3.66-11.83-7.94-23.47-11.4-35.36-3.83-13.18-10.83-24.15-22.84-30.62-7.33-3.94-15.83-5.99-24.03-7.96-14.32-3.43-28.9-2.41-43.42-1.19-17.32 1.45-34.65 1.26-51.94-.34-9.85-.91-16.67-7.29-18.76-16.9-1.47-6.74-1.14-13.52 1.4-19.78 1.07-2.63 4.3-4.7 6.98-6.31 8.09-4.85 17.02-7.23 26.41-7.88 1.57-.11 2.82-.21 2.86-2.31.27-14.31.64-28.62 1-43.81zm14.69 45.11c1.19.06 1.75.12 2.31.11 17.09-.4 34.19-.68 51.27-1.26 12.27-.42 24.56-.93 36.78-2.07 3.75-.35 7.35-2.81 10.9-4.54 2.05-1 2.54-2.95 1.97-5.17-.62-2.4-2.26-3.59-4.58-3.72-2.44-.15-4.9-.02-7.35-.01-28.85.08-57.7.15-86.55.22-1.28 0-2.56 0-4 0-.28 5.76-.51 10.97-.75 16.44zm.84-30.03c34.42-.35 68.54-.7 103.2-1.06-2.9-6.36-7.15-10.26-13.27-11.62-4.77-1.06-9.69-1.87-14.56-1.98-19.79-.46-39.58-.62-59.37-.85-5.3-.06-10.6-.01-16-.01z" fill="#010105"/></svg>