<svg enable-background="new 0 0 400 400" viewBox="0 0 400 400" xmlns="http://www.w3.org/2000/svg"><path d="m361.2 9.6.8-1c.9.7 1.9 1.4 2.9 2.3l-.9 1.1c-1-1-2-1.8-2.8-2.4zm.5 10.6c.9-2.1 1.6-4.3 2.3-6.7.4.2.8.4 1.3.6-.7 2.1-1.5 4.3-2.2 6.6zm.4-15.2.9-.9c1 .8 2 1.6 2.8 2.4l-1 1c-.9-.9-1.8-1.7-2.7-2.5zm12.5-1.2h1.2v1.4h2.7v1.1h-2.7v2.7h-1.2v-.6h-1.8v1.3h4.9v3.8h-1.2v-.5h-3.7c0 .4-.1.9-.1 1.2h5.1v1h-5.2c0 .5-.1.9-.2 1.2h6v1h-5.2c1.1 1.3 2.9 2 5.5 2.2-.4.4-.7.8-.9 1.3-2.9-.5-4.8-1.6-5.7-3.5h-.1c-.8 1.7-2.7 2.9-5.9 3.6-.2-.4-.6-.8-.9-1.1 2.8-.6 4.6-1.4 5.4-2.5h-4.8v-1h5.3c.1-.3.2-.7.2-1.2h-4.9v-1h5c0-.4 0-.8.1-1.2h-3.5v.5h-1.2v-3.8h4.9v-1.3h-1.8v.5h-1.2v-2.7h-2.7v-1h2.6v-1.4h1.2v1.4h4.7v-1.4zm-6.6 8.3h3.6c0-.4 0-.9 0-1.4h-3.6zm1.9-4.6h4.7v-1.3h-4.7zm6.6 3.2h-3.7v1.4h3.7z" fill="#fbfcfa"/><path d="m385.3 3.8h1.3v2.2h2.8v-2.2h1.3v2.2h4.1v9.1h1.7v1.3h-16.9v-1.3h1.7v-9.1h4.1v-2.2zm.4 13.1.7 1.2c-1.8.9-3.8 1.9-6 2.9-.2-.4-.5-.8-.8-1.3 2.3-1 4.3-1.9 6.1-2.8zm-3.1-6.4h2.8v-3.2h-2.8zm0 4.6h2.8v-3.3h-2.8zm4-4.6h2.8v-3.2h-2.8zm0 4.6h2.8v-3.3h-2.8zm3.7 1.9c2.1.9 4.1 1.8 6.1 2.7l-.7 1.3c-2.2-1.1-4.2-2-6.1-2.9zm3.2-9.7h-2.8v3.2h2.8zm-2.8 7.8h2.8v-3.3h-2.8z" fill="#fbfcfa"/><g fill="#010102"><path d="m225.64 109.86c-.34 7.69-.67 15.25-1.03 23.35 6.99.24 13.65.49 20.32.7 6.59.2 13.2.24 19.78.63 2.05.12 4.16.89 6.04 1.79 3.28 1.56 4.41 4.31 3.62 7.79-.38 1.65-1.04 2.56-3.1 2.65-11.28.48-22.56 1.19-33.84 1.82-3.22.18-6.43.39-10.02.6.55 6.25 1.02 12.23 1.7 18.19.08.74 1.19 1.52 1.99 2 5.92 3.52 12.41 4.91 19.22 5.07 3.91.09 7.85-.04 11.73.41 2.36.28 5.04.96 6.81 2.39 1.92 1.56 3.72 4.11 4.06 6.44.16 1.11-2.97 3.22-4.96 4.05-10.61 4.41-21.47 2.89-32.34.97-6.95-1.23-11.89-4.99-15.67-10.88-4.83-7.53-7.91-15.54-7.88-24.53.01-2.67-1.28-3.67-3.45-3.98-7.44-1.07-14.42.98-21.25 3.53-1.16.43-1.97 2.07-2.7 3.3-4.3 7.28-4.78 15.29-4.04 23.42 3 33.13 1.89 66.22-1.85 99.18-1.3 11.49-4.23 22.85-7.04 34.11-3.24 13-7.04 25.88-10.89 38.72-1.27 4.23-3.18 8.35-5.34 12.22-2.15 3.85-5.64 6.22-10.24 6.79-2.46.31-3.42-.7-3.8-2.96-1.05-6.13-.15-12.09 1.74-17.87 3.5-10.73 8.01-21.18 10.74-32.09 3.49-13.96 5.59-28.27 8.38-42.41 4.74-24.01 5.07-48.2 3.63-72.53-.9-15.18-1.78-30.42 1.68-45.47.7-3.05 1.04-6.32 2.44-9.02 1.21-2.31 3.49-4.25 5.68-5.84 8.11-5.92 17.66-7.17 27.32-7.94 2.22-.18 4.43-.49 6.49-.73 0-7.8 0-15.46 0-23.64-6.22-.61-11.99-1.02-17.71-1.78-3.51-.47-7.07-1.12-10.41-2.27-8.98-3.11-11.31-10.86-12.3-19.1-1.95-16.31-1.05-32.63.78-48.9.37-3.31 3.08-5.5 6.32-5.73 2.14-.15 3.4.54 4.37 2.65 2.94 6.39 3.47 13.05 3.42 19.96-.07 10.5.2 21.01.57 31.51.21 5.8 2.42 7.74 8.15 7.82 5.12.07 10.24.01 15.73.01.69-7.86 1.43-16.07 2.12-24.28.76-9.03 1.31-18.08 2.33-27.09.22-1.98 1.65-4.14 3.13-5.61 5.93-5.9 13.63-8.43 21.62-8.8 22-1.02 44.03-1.51 66.06-2 4.64-.1 9.22.86 11.91 5.46 1.41 2.41 1.69 4.19-1.46 5.85-6.95 3.68-14.26 4.98-22.01 4.73-11.41-.36-22.81-.6-34.22-.88-1.09-.03-2.18 0-3.63 0 .34 7.01.6 13.68 1.08 20.34.05.73 1.26 1.68 2.14 2.01 9.42 3.62 19.22 3.59 29.11 3.12 4.66-.23 9.41-.33 14.01.3 5.69.77 8.87 4.34 9.7 9.64-7.54 4.91-16.14 6.51-24.87 6.77-7.79.23-15.67-.17-23.39-1.2-4.77-.64-9.31-2.96-13.93-4.6-.58-.2-1.11-.76-1.48-1.28-4.48-6.32-7.62-13.12-7.83-21.05-.12-4.35-.44-8.69-.68-13.25-2.66.6-5.1.97-7.4 1.74-.99.33-2.19 1.34-2.47 2.28-1.62 5.43-3.88 10.87-4.24 16.42-.68 10.23-.19 20.54-.19 31.6 7.08.8 14 1.93 20.97 2.26 8.26.39 16.56-.05 24.84.13 10.79.23 20.52 3.65 28.35 11.19 6.97 6.71 10.46 15.54 11.24 24.88.97 11.67.69 23.46.78 35.2.15 20.59.01 41.18.27 61.76.27 21.83 1.42 43.63 4.52 65.26 2.25 15.71 5.11 31.34 7.62 47.02 1.52 9.52 2.52 19.06 1.19 28.73-.3 2.2-1.32 2.91-3.1 3.07-2.08.2-4.1 2.1-6.18-.85-4.93-6.95-6.5-14.85-7.5-23-2.13-17.43-4.62-34.82-6.32-52.3-2.08-21.38-3.79-42.8-5.1-64.23-.91-14.96-1.15-29.97-1.21-44.97-.05-13.76.69-27.52.8-41.28.06-7.51-1.09-14.89-3.74-22.03-2.43-6.54-6.83-10.89-13.51-12.25-7.3-1.49-14.74-2.71-22.17-3.1-9.84-.5-19.7-.11-30.01-.11z"/><path d="m238.2 214.94c2.76 20.43 5.41 40.02 8.11 59.97 3.22-.45 6.08-.77 8.91-1.25 6.2-1.05 9.11.17 12.3 5.59 5.44 9.22 7.8 19.47 9.5 29.86 2.27 13.83 3.54 27.75 2.77 41.79-.16 3-.84 5.97-1.12 8.97-.33 3.64-2.97 4.59-5.82 4.81-3 .23-4.98-.94-5.9-4.43-2.71-10.27-3.03-20.76-3.96-31.23-1.01-11.35-2.64-22.65-4.32-33.92-.77-5.17-3.5-6.56-8.4-4.68-1.14.44-2.39 1.98-2.63 3.2-4.09 20.39-7.83 40.85-12.13 61.19-1.09 5.15-3.7 10.01-5.91 14.87-.63 1.39-2.16 2.63-3.57 3.35-4.45 2.29-7.35.72-7.95-4.2-.87-7.13.52-14.01 2.4-20.86 2.93-10.66 5.75-21.35 8.52-32.06.56-2.14.7-4.39 1.68-5.81-4.33 3.8-8.7 7.54-12.98 11.4-6.22 5.61-12.03 11.77-18.7 16.78-3.66 2.75-8.68 3.72-13.17 5.28-2.41.84-3.66-.52-3.54-2.91.09-1.86.13-3.87.87-5.51 2.13-4.69 4.98-8.84 8.86-12.44 12.73-11.79 25.17-23.89 37.79-35.79 1.54-1.45 2.13-2.8 1.83-4.96-.65-4.71-.96-9.47-1.5-15.19-5.04 7.47-11.09 12.49-17.92 16.63-6.82 4.14-14.05 6.59-22.22 6.44-4.31-.08-3.97-3.4-5.26-5.72-1.31-2.36.55-3.25 1.97-4.2 5.11-3.41 10.08-7.1 15.47-10 7.83-4.21 14.09-9.78 18.28-17.66 1.36-2.56 3.04-4.96 4.44-7.51 1.89-3.44 1.51-6.67-1.33-9.59-4.04 4.11-7.99 8.31-12.15 12.3-4.27 4.09-9.17 7.16-15.2 7.92-3.42.44-5.35-.85-4.98-4.23.28-2.56 1.53-5.41 3.24-7.33 4.47-4.99 9.73-9.29 14.1-14.36 3.16-3.66 5.4-8.1 8.05-12.19-.18-.43-.36-.86-.54-1.3-4.79-.33-9.58-.7-14.38-.98-1.67-.1-3.36.12-5.03.05-5-.22-8.8-4.1-8.92-9.13-.02-.67.28-1.77.73-1.95 2.86-1.15 5.78-2.95 8.7-2.98 21.16-.22 42.32-.08 63.47.01 2.22.01 4.48.28 6.67.69 3.69.7 6.53 4.59 5.93 8.18-.14.83-.98 1.73-1.73 2.22-4.15 2.73-8.7 3.98-13.7 3.27-3.76-.54-7.52-1.31-11.29-1.46-2.65-.08-5.39.66-8.34 1.06z"/><path d="m104.99 164.29c-5.18-.31-10.4-.6-15.61-.95-2.33-.16-4.7-.23-6.98-.71-2.71-.58-4.48-2.38-5.14-5.17-.66-2.82-.24-5.33 2.82-6.22 3.36-.98 6.84-1.81 10.32-2.11 3.64-.32 7.35.16 11.03.09 1.86-.03 2.89-.96 2.94-3.17.58-23.72 1.28-47.43 1.93-71.15.01-.43-.11-.86-.21-1.66-2.24-.16-4.43-.43-6.63-.45-5.93-.07-11.87.08-17.8-.06-5.86-.14-9.47-2.73-10.5-7.09-.51-2.15-.05-3.38 2.22-4.36 5.84-2.51 11.73-3.75 18.17-3.61 14.88.32 29.78-.05 44.66.2 4.41.07 8.82 1.2 13.19 2.04 2.57.49 3.97 2.19 4.21 4.94.24 2.76-.92 4.12-3.39 5.34-3.52 1.74-7.01 2.55-10.93 2.42-6.03-.2-12.08-.05-18.38-.05v75.34c6.49.21 13.04.38 19.59.65 2.55.11 5.18.11 7.61.77 4.16 1.12 5.96 4.51 6.56 8.49.11.69-.89 1.88-1.66 2.31-5.55 3.13-11.58 2.75-17.66 2.35-3.2-.21-6.46.12-9.67.38-2.29.18-3.35 1.36-3.42 3.94-.41 14.77-1.03 29.53-1.54 44.29-.32 9.17-.6 18.34-.88 27.52-.03 1.1 0 2.19 0 4.12 6.65.14 13.09.29 19.53.41 2.34.04 4.72-.2 7.03.09 4.75.61 8.38 4.76 8.33 9.5-.01.76-1.04 1.74-1.84 2.22-6.12 3.6-13.01 3.9-19.81 4.19-17.34.74-34.68 1.03-51.9-1.74-2.75-.44-5.41-1.38-8.16-1.88-2.95-.53-3.82-2.05-3.88-5.06-.06-3.09 1-4.76 3.85-5.01 5.86-.51 11.75-.81 17.62-1.11 3.78-.2 7.57-.17 11.35-.4 1.65-.1 2.39-1.07 2.41-2.92.24-24.96.57-49.91.87-74.87-.01-.46-.12-.9-.25-1.85z"/></g></svg>