<svg enable-background="new 0 0 400 400" viewBox="0 0 400 400" xmlns="http://www.w3.org/2000/svg"><path d="m361.2 9.6.8-1c.9.7 1.9 1.4 2.9 2.3l-.9 1.1c-1-1-2-1.8-2.8-2.4zm.5 10.6c.9-2.1 1.6-4.3 2.3-6.7.4.2.8.4 1.3.6-.7 2.1-1.5 4.3-2.2 6.6zm.4-15.2.9-.9c1 .8 2 1.6 2.8 2.4l-1 1c-.9-.9-1.8-1.7-2.7-2.5zm12.5-1.2h1.2v1.4h2.7v1.1h-2.7v2.7h-1.2v-.6h-1.8v1.3h4.9v3.8h-1.2v-.5h-3.7c0 .4-.1.9-.1 1.2h5.1v1h-5.2c0 .5-.1.9-.2 1.2h6v1h-5.2c1.1 1.3 2.9 2 5.5 2.2-.4.4-.7.8-.9 1.3-2.9-.5-4.8-1.6-5.7-3.5h-.1c-.8 1.7-2.7 2.9-5.9 3.6-.2-.4-.6-.8-.9-1.1 2.8-.6 4.6-1.4 5.4-2.5h-4.8v-1h5.3c.1-.3.2-.7.2-1.2h-4.9v-1h5c0-.4 0-.8.1-1.2h-3.5v.5h-1.2v-3.8h4.9v-1.3h-1.8v.5h-1.2v-2.7h-2.7v-1h2.6v-1.4h1.2v1.4h4.7v-1.4zm-6.6 8.3h3.6c0-.4 0-.9 0-1.4h-3.6zm1.9-4.6h4.7v-1.3h-4.7zm6.6 3.2h-3.7v1.4h3.7z" fill="#fbfcfa"/><path d="m385.3 3.8h1.3v2.2h2.8v-2.2h1.3v2.2h4.1v9.1h1.7v1.3h-16.9v-1.3h1.7v-9.1h4.1v-2.2zm.4 13.1.7 1.2c-1.8.9-3.8 1.9-6 2.9-.2-.4-.5-.8-.8-1.3 2.3-1 4.3-1.9 6.1-2.8zm-3.1-6.4h2.8v-3.2h-2.8zm0 4.6h2.8v-3.3h-2.8zm4-4.6h2.8v-3.2h-2.8zm0 4.6h2.8v-3.3h-2.8zm3.7 1.9c2.1.9 4.1 1.8 6.1 2.7l-.7 1.3c-2.2-1.1-4.2-2-6.1-2.9zm3.2-9.7h-2.8v3.2h2.8zm-2.8 7.8h2.8v-3.3h-2.8z" fill="#fbfcfa"/><g fill="#010102"><path d="m186.31 61.56c-5.6 4.21-11.83 5.59-18.44 5.75-7.25.18-14.52.04-21.74.65-4.8.4-4.72.87-4.69 5.7.04 6.48.01 12.96.01 20.23 7.03.82 13.41 2.19 19.78 2.18 12.72-.01 21.2 5.71 26.22 17.16 3.42 7.79 5.28 15.9 5.17 24.41-.26 20.92-.72 41.85-.85 62.77-.15 24.29.2 48.58-.15 72.87-.15 10.4 1.89 20.44 3.15 30.63 1.72 13.97 3.21 27.98 4.28 42.01.38 4.95-.77 10.01-1.16 15.02-.18 2.3-1.2 3.45-3.61 3.25-.99-.08-2.03-.03-3.01.18-1.81.38-2.69-.23-3.01-2.07-1.39-7.91-3.19-15.77-4.21-23.73-1.72-13.42-2.94-26.9-4.41-40.36-2.35-21.4-2.75-42.87-2.46-64.36.27-19.69.5-39.39.76-59.08.15-12.08.61-24.17.33-36.24-.12-5.4-1.45-10.82-2.71-16.12-.6-2.52-2.19-4.87-3.6-7.13-2.36-3.76-5.46-6.15-10.33-6.2-5.79-.05-11.58-.75-18.1-1.21 0 3.31.04 6.39-.01 9.46-.12 8.06-.34 16.11-.36 24.17 0 1.16.49 2.77 1.33 3.42 18.92 14.41 25.49 34.28 24.52 57.03-.33 7.81-2.27 15.69-4.47 23.24-2.84 9.77-10.91 14.97-19.62 18.89-4.33 1.95-9.62 1.81-13.27-.81-3.37-2.42-5.9-6.63-7.63-10.57-4.39-10.01-4.4-20.69-3.08-31.34 2.63-21.3 6.18-42.52 7.9-63.89 1.15-14.31-.09-28.82-.47-43.23-.17-6.71-.82-13.4-1.27-20.1-.03-.42-.22-.82-.32-1.19-5.05-.14-8.34 2.1-10.89 6.34-5.25 8.76-8.29 18.25-8.47 28.3-.22 12.16.62 24.34 1.02 36.51.21 6.37.33 12.75.71 19.11.9 14.84 2.05 29.66 2.89 44.5 1.32 23.17.58 46.3-1.84 69.39-2.64 25.25-5.11 50.52-7.7 75.77-.22 2.1-.61 4.22-1.24 6.23-.96 3.09-3.98 5.27-7.31 4.46-1.66-.41-3.7-2.76-3.99-4.5-.61-3.67-.5-7.54-.14-11.28 1.89-19.48 3.64-38.99 6.02-58.42 3.42-27.88 4.59-55.82 1.71-83.72-1.86-18-1.23-35.98-2.04-53.96-.3-6.57-1.64-13.09-2.06-19.66-1.02-16.12-.9-32.09 3.63-47.91 3.77-13.18 12.4-20.78 24.8-24.87 12.41-4.08 25.22-5.96 38.27-6.1 5.91-.06 11.85-.27 17.74.15 4.93.33 7.4 3.14 8.42 8.27zm-49.65 170.26c4.03-1.8 7.3-3.18 10.49-4.73.72-.35 1.26-1.21 1.7-1.95 11.1-18.77 8.5-47.07-5.83-63.48-.45-.51-1.05-.9-2.03-1.73-1.37 7.11-2.8 13.64-3.86 20.23-2.08 12.9-4.3 25.83-2.99 38.97.41 4.13 1.6 8.17 2.52 12.69z"/><path d="m209.91 58.74c4.38 8.89 7.49 18.29 6.54 28.28-.92 9.71 3.12 16.14 10.99 20.79 3.04 1.8 6.3 3.21 9.92 5.03.23-3.59.47-6.55.61-9.52.33-7.15.99-14.32.81-21.46-.32-12.36 4.27-22.73 12.08-31.84 9.08-10.59 19.99-18.84 32.88-24.33 5.23-2.23 10.3 1.03 9.43 6.18-.22 1.33-1.36 2.78-2.49 3.63-7.69 5.78-15.4 11.54-23.28 17.06-10.14 7.1-14.91 17.13-15.59 29.05-.54 9.48-.07 19.01-.02 28.53 0 .43.18.86.38 1.78 4.97-.77 9.91-1.45 14.8-2.36.8-.15 1.52-1.21 2.08-1.99 5.84-8.13 8.54-17.31 9.51-27.19.49-4.97 1.41-9.94 2.64-14.77.89-3.49 3.4-5.96 7.34-7.07 2.93 4.89 4.5 10.18 4.91 15.79.91 12.44-1.07 24.45-7.37 35.25-5.66 9.69-14.23 15.57-25.88 16.08-1.78.08-3.55.21-5.6.33v51.97c4.59 1.76 11.8-.39 14.97-4.6 2.49-3.3 5.49-6.43 7.1-10.13 1.59-3.66 1.98-7.93 2.39-11.99.51-4.99.2-10.07.79-15.05.62-5.28 3.43-7.84 8.77-8.9 4.42 6.78 5.96 14.34 5.08 22.31-1.12 10.12-4.19 19.66-9.84 28.23-.83 1.26-1.97 2.43-3.23 3.25-4.59 2.98-9.1 6.21-14.01 8.56-4.28 2.05-9.03 3.16-13.63 4.44-2.07.58-3.16 1.43-3.61 3.66-.91 4.47-2.22 8.86-3.44 13.6 6.85 2.36 13.33 5.25 20.12 6.78 8.85 2 12.56 8.2 15.09 15.77 3.18 9.49 2.32 19.18 1.18 28.9-1.12 9.55-1.88 19.14-2.97 28.69-1.66 14.54 3.45 27.23 10.45 39.46 3.99 6.97 8 13.95 11.68 21.09 1.36 2.63 1.94 5.69 2.62 8.62.81 3.49-2.11 6.48-5.68 5.63-1.97-.47-4.23-1.38-5.51-2.84-20.59-23.35-31.58-50.08-28.09-81.73 1.35-12.23 2.82-24.44 4.17-36.67.75-6.84-2.71-13.38-9.22-15.91-4.4-1.71-9.26-2.28-13.93-3.28-1.66-.36-2.56.32-3.05 2.13-3.85 14.12-8.54 28.05-11.56 42.34-2.64 12.49-2.29 25.4-.74 38.12 1.49 12.32 3.27 24.61 5.11 36.88.96 6.4 2.44 12.72 3.47 19.1.31 1.94.16 4.03-.2 5.98-.53 2.89-2.59 4.23-5.47 4.56-2.68.31-4.56-.2-5.92-2.97-3.02-6.14-4.33-12.61-5.02-19.34-1.39-13.46-3.14-26.88-4.49-40.34-1.42-14.1-.04-28.14 1.01-42.21 1.88-25.31 10.09-49.19 16.06-73.58.18-.75.36-1.51.62-2.63-3.07-1.3-6.04-2.88-9.18-3.83-7.64-2.3-12.91-7.3-16.75-14.02-7.73-13.55-11.34-27.89-7.99-43.46 1.29-6.02 1.42-5.99 8.82-7.06 1.79 6.73 3.84 13.53 5.36 20.44 1.05 4.79 1.35 9.74 2.04 14.6 1.57 11.06 9.55 17.86 21.12 17.96.08-.4.23-.83.23-1.25.02-16 .05-32.01-.07-48.01-.01-.93-1.13-2.35-2.06-2.69-3.34-1.24-6.81-2.14-10.24-3.15-14.8-4.35-23.44-14.26-24.88-29.5-.87-9.29-.46-18.74.02-28.09.32-6.22.94-6.3 7.82-7.09z"/></g></svg>