<svg enable-background="new 0 0 400 400" viewBox="0 0 400 400" xmlns="http://www.w3.org/2000/svg"><g fill="#010103"><path d="m271.24 255.47c.56-11.17.92-20.12 1.51-29.05.14-2.1-.43-3.2-2.26-4.22-9.96-5.58-19.76-11.34-27.92-19.58-9.08-9.18-15.19-19.57-13.44-32.88.97-7.39 2.92-14.69 4.93-21.89 4.4-15.7 9.21-31.28 13.69-46.96 3.28-11.47 6.37-23.01 9.41-34.55.59-2.24.75-4.64.8-6.98.14-6.17-2.9-9.82-9.11-9.94-4.05-.08-8.15.99-12.19 1.75s-8 2.24-12.07 2.59c-5.31.46-8.19-2.8-7.77-8.06.08-.94.68-2.25 1.44-2.67 11.6-6.39 23.89-10.32 37.23-7.93 11.2 2 18.8 13.47 17.27 24.75-.92 6.76-.87 7.13 5.2 10.27 6.15 3.19 12.37 6.24 18.7 9.06 10.4 4.63 16.11 12.01 16.28 23.83.16 10.59-2.29 20.54-5 30.62-6.29 23.41-13.13 46.75-17.87 70.48-4.17 20.87-8.27 42.07-6.23 63.6 2 21.12 3.59 42.35 11.42 62.46 3.15 8.09 5.92 16.34 8.38 24.67.72 2.43 1.91 5.66-1.29 7.94-3.25 2.32-6.28 1.82-8.45-1.66-9.33-14.99-15.04-31.37-18.75-48.53-4.22-19.59-5.89-39.35-3.91-57.12zm-18.63-118.56c-4.15 10.83-8.36 21.36-9.43 32.65-.79 8.38 1.67 15.85 9.02 21.17 5.25 3.8 10.06 8.2 15.28 12.06 2.33 1.73 5.17 2.78 8.12 4.33 2.91-15.76 5.71-30.81 8.42-45.87.14-.76-.31-2.03-.92-2.47-10.03-7.29-20.14-14.48-30.49-21.87zm16.63-56.04c-4.2 12.76-8.4 25.36-12.4 38.02-.3.94.48 2.76 1.33 3.45 9.51 7.62 19.13 15.1 28.73 22.61.48.38 1.05.66 1.82 1.15 4.48-10.47 8.91-20.71 10.36-31.69 1.69-12.79-1.52-18.63-11.69-24.26-5.84-3.22-11.89-6.09-18.15-9.28z"/><path d="m81.31 155.66c.67-23.54.96-42.45 1.83-61.34.8-17.19 4.61-33.85 10.45-50.04.26-.72.56-1.52 1.09-2.03 10.52-10.17 22.21-17.55 37.71-16.74 20.88 1.09 41.78 1.83 62.66 2.89 3.65.19 7.31 1.02 10.88 1.92 1.75.44 3.62 1.38 4.87 2.66 4.08 4.18 3.19 7.68-2.2 9.65-6.05 2.2-12.12 1.16-18.22.21-20.5-3.22-41.07-4.63-61.81-2.57-17.45 1.74-24.98 10.57-28.5 26.79-2.33 10.73-3.27 21.94-3.4 32.95-.41 35.7-.78 71.42.14 107.1.39 15.17.15 30.74 5.11 45.5.64 1.9 2.22 3.82 3.88 5 7.55 5.39 16.49 6.6 25.37 7.82 18.85 2.6 37.07 7.37 53.89 16.47 12.9 6.98 22.77 17.41 28.59 30.67 4.41 10.05 6.63 21.07 9.63 31.71 1.49 5.26 2.87 10.6 3.67 16 .53 3.57.06 7.31-.19 10.97-.18 2.59-1.98 4.13-4.42 4.25-2.32.11-4.42-.48-5.75-3.08-6.64-13.03-9.89-26.99-12.02-41.32-2.08-14.01-8.5-25.95-19.99-34.1-6.41-4.55-14.17-7.97-21.82-9.85-15.17-3.71-30.69-5.96-46.05-8.89-6.49-1.24-12.93-2.71-18.43-6.72-6.84-4.99-9.76-12.37-11.83-20.09-1.09-4.06-1.61-8.36-1.79-12.58-1.26-29.27-2.37-58.54-3.35-83.21z"/><path d="m136.13 79.86c13.43.57 26.58 1.14 40.73 1.74 0-4.52.11-8.81-.04-13.09-.12-3.46-.65-6.9-.84-10.36-.33-5.91 2.26-9.63 7.42-11.3 2.01-.65 3.01-.17 3.93 1.7 4.14 8.39 6 17.3 6.03 26.57.07 17.24-2.79 34.02-8.41 50.34-.99 2.89-2.66 4.93-5.23 6.61-8.45 5.53-17.43 9.55-27.7 7.7-5.4-.97-11.44-2.33-15.53-5.6-4.27-3.41-7.25-9-9.54-14.19-5.85-13.23-6.88-27.41-6.53-41.71.24-10.14 2.05-19.97 5.8-29.44.84-2.11 1.84-2.63 4.02-2 6.24 1.79 8.63 5.69 7.5 12.1-.91 5.15-1.62 10.35-2.18 15.55-.2 1.7.34 3.49.57 5.38zm1.06 16.41c.89 6.57 1.29 12.73 2.65 18.68 1.29 5.64 4.64 9.87 11.17 10.28 2.56.16 5.11.76 7.66.71 6.07-.13 10.62-2.65 14.2-7.92 4.4-6.49 2.27-13.53 3.63-20.68-13.27-.36-25.96-.7-39.31-1.07z"/><path d="m144.49 192.79c0-6.62-.04-12.85.01-19.08.05-5.57 0-11.15.4-16.7.12-1.73 1.26-3.63 2.45-5 2.76-3.18 6.39-2.79 8.3.88 1.12 2.14 2.18 4.53 2.4 6.89 1.23 13.12 2.51 26.25 3.17 39.4.79 15.79-1.72 31.2-7.07 46.1-.32.89-.87 1.88-1.61 2.42-10.69 7.83-21.77 7.19-33.15 1.43-.89-.45-1.51-1.61-2.03-2.56-5.67-10.22-8.3-21.34-7.94-32.87.45-14.28 1.81-28.53 2.86-42.79.4-5.35 1.24-10.67 1.5-16.03.16-3.26 2.73-3.95 4.71-4.98.88-.46 2.87.49 3.97 1.32 5.36 4.08 5.54 9.76 4.67 15.79-.93 6.5-2.01 13.01-2.39 19.55-.28 4.91.43 5.25 5.22 5.54 4.56.26 9.13.43 14.53.69zm-19.65 14.12c0 6.19-.49 11.92.16 17.51.51 4.42 2.34 8.71 3.81 12.98.29.84 1.55 1.8 2.45 1.89 7.97.82 12.42.32 13.06-8.34.02-.33.19-.65.21-.98.35-6.55.82-13.09.88-19.64.01-1.13-1.74-3.21-2.77-3.27-5.57-.32-11.15-.15-17.8-.15z"/><path d="m205.63 192.82c0-7.51-.03-14.63.01-21.74.03-4.67-.12-9.38.4-14.01.21-1.89 1.63-3.97 3.09-5.34 3.33-3.11 6.45-2.44 7.66 1.84 1.38 4.89 2.36 9.98 2.79 15.05 1.05 12.36 2.09 24.75 2.38 37.14.28 12.15-2.05 24.04-6.04 35.54-2.61 7.52-8.58 12.06-16.62 11.94-4.74-.07-9.5-1.07-14.19-2.01-1.44-.29-2.98-1.52-3.9-2.75-5.49-7.36-8.18-15.93-9.34-24.85-2.97-22.94-1.76-45.77 3.25-68.34.45-2.02 2.43-3.77 3.95-5.41.35-.37 1.85-.05 2.59.37 5.4 3.08 7.31 8.94 5.97 16.44-1.08 6.02-1.72 12.13-2.5 18.2-.11.87.15 1.78.18 2.67.09 2.94 1.69 3.86 4.49 3.98 5.01.21 10.01.78 15.83 1.28zm-14.18 46.52c2.56-.26 5-.75 7.41-.67 2.53.08 3.68-1.1 4.16-3.28 1.38-6.3 2.88-12.59 3.97-18.94.38-2.23-.06-4.67-.52-6.94-.2-.97-1.39-2.43-2.17-2.46-5.74-.21-11.5-.11-17.36-.11-1.27 11.43 1.06 21.87 4.51 32.4z"/></g><path d="m385.2 377.6.6-.7c.6.4 1.3.9 1.9 1.5l-.6.7c-.8-.5-1.4-1-1.9-1.5zm.3 7.1c.6-1.4 1.1-2.9 1.5-4.5.3.1.6.3.9.4-.5 1.4-1 2.9-1.5 4.4zm.2-10.1.6-.6c.7.5 1.3 1.1 1.9 1.6l-.7.7c-.6-.6-1.2-1.2-1.8-1.7zm8.4-.8h.8v.9h1.8v.7h-1.8v1.8h-.8v-.3h-1.2v.9h3.3v2.6h-.8v-.4h-2.5c0 .3 0 .6-.1.8h3.4v.7h-3.5c0 .3-.1.6-.1.8h4v.7h-3.5c.7.9 1.9 1.3 3.6 1.5-.2.2-.4.5-.6.9-1.9-.3-3.2-1.1-3.8-2.3-.5 1.1-1.8 2-3.9 2.4-.2-.3-.4-.5-.6-.8 1.9-.4 3.1-.9 3.6-1.7h-3.2v-.7h3.5c.1-.2.1-.5.2-.8h-3.3v-.7h3.4c0-.2 0-.5 0-.8h-2.4v.3h-.8v-2.6h3.3v-.9h-1.2v.3h-.8v-1.8h-1.8v-.7h1.8v-.9h.8v.9h3.2zm-4.4 5.5h2.4c0-.3 0-.6 0-.9h-2.4zm1.2-3.1h3.2v-.8h-3.2zm4.4 2.2h-2.4v.9h2.5v-.9z" fill="#fcfbfa"/><path d="m389.2 385.8h.9v1.5h1.9v-1.5h.9v1.5h2.7v6h1.1v.9h-11.3v-.9h1.1v-6h2.7zm.2 8.7.5.8c-1.2.6-2.5 1.3-4 1.9-.2-.3-.3-.6-.6-.8 1.6-.6 3-1.3 4.1-1.9zm-2-4.3h1.9v-2.1h-1.9zm0 3.1h1.9v-2.2h-1.9zm2.7-3.1h1.9v-2.1h-1.9zm0 3.1h1.9v-2.2h-1.9zm2.4 1.3c1.4.6 2.7 1.2 4.1 1.8l-.5.9c-1.5-.7-2.8-1.4-4.1-1.9zm2.2-6.5h-1.9v2.1h1.9zm-1.9 5.2h1.9v-2.2h-1.9z" fill="#fcfbfa"/></svg>