<svg enable-background="new 0 0 400 400" viewBox="0 0 400 400" xmlns="http://www.w3.org/2000/svg"><g fill="#010101"><path d="m201.77 231.9c12.17.94 22.87 1.04 33.32 2.72 23.31 3.75 33.27 13.56 38.47 35.85 6.45 27.62 1.82 54.45-10.74 79.79-1.49 3-4.73 5.29-7.51 7.47-18.06 14.19-38.83 18.93-61.41 17.54-16.71-1.03-32.72-4.74-47.84-11.97-2.15-1.03-4.01-2.72-5.88-4.27-1.2-.99-2.05-2.4-3.25-3.39-10.22-8.47-14.57-20.01-17.14-32.5-4.88-23.68-3.04-46.71 6.65-68.96.6-1.38 1.58-2.7 2.69-3.73 9.71-8.98 21.33-13.81 34.39-15.12 13.23-1.35 26.49-2.39 38.25-3.43zm-11.31 18.27c-12.18-2.05-23.88-1.37-35.36 2.34-5.93 1.92-12.43 4.14-15.4 9.47-5.48 9.81-7.2 20.75-4.67 32.29 18.58-.35 36.94-.7 55.44-1.06-.01-14.57-.01-28.73-.01-43.04zm-56.46 59.6c.89 3.5 1.64 6.64 2.48 9.75 1.86 6.89 3.2 14.06 7.75 19.81 3.22 4.07 6.44 8.57 10.68 11.27 4.98 3.18 11.04 4.73 16.69 6.82 6.22 2.3 12.53 2.74 19.07.28-.58-16.05-1.16-31.95-1.74-47.94-18.47.01-36.45.01-54.93.01zm73.05-61.01v45.52c17.62-.36 34.69-.7 52.03-1.06.35-9.16-.44-17.84-3.78-26.19-2.41-6.01-6.52-10.34-12.48-12.9-11.48-4.92-23.59-5.45-35.77-5.37zm-.15 110.13c10.84 0 21.14-1.41 30.21-7.64 9.95-6.83 18.9-14.27 19.5-27.81.18-4.14 1.67-8.22 2.71-13.04-17.71 0-34.85 0-52.42 0z"/><path d="m188.28 72.38c.13-7.88.5-15.56.33-23.24-.18-8.11.38-15.9 5.9-22.45.35-.42.74-.8 1.08-1.17 7.06 3.13 10.53 9.75 9.45 17.92-.69 5.21-1.68 10.39-2.02 15.62-.22 3.41.49 6.87.74 10.31.14 1.95 1.2 2.49 3.06 2.69 7.9.84 15.87 1.39 23.63 2.94 10.61 2.12 21.09 4.9 31.55 7.71 15.21 4.09 30.37 8.39 45.51 12.75 3.09.89 6.01 2.39 8.96 3.73 1.11.5 2.17 1.21 3.07 2.02 2.9 2.6 5.34 6.33 3.85 9.65-.96 2.15-5.28 3.52-8.26 3.88-6.62.8-12.85-1.53-18.68-4.44-16.89-8.43-34.83-13.24-53.37-16.12-12.48-1.94-24.95-3.99-37.44-5.91-14.95-2.3-29.73-.53-44.3 2.7-14.28 3.17-28.55 6.58-42.56 10.78-9.48 2.85-18.44 7.38-27.73 10.93-5.5 2.1-11.24 2.74-17.15 1.74-1.8-.3-2.65-.8-3.07-2.72-1.72-7.83-1.83-7.86 5.26-11.82 13.39-7.47 28.09-11.42 42.65-15.81 21.87-6.59 44.3-9.72 66.98-11.44.54-.02 1.09-.09 2.56-.25z"/><path d="m204.01 125.61c10.37.82 22.61 1.74 34.85 2.82 2.19.19 4.33 1.07 6.48 1.65 11.79 3.17 16.08 11.87 17.66 23.05 1.72 12.15-1.55 23.22-6.19 34.12-.41.96-1.36 1.75-2.2 2.45-10.58 8.78-23.09 13.11-36.43 15.05-17.43 2.52-34.87 2.35-51.9-2.58-6.38-1.85-12.97-4.18-18.39-7.87-8.16-5.55-12.54-14.15-13.79-24.02-1.16-9.15.43-18.05 3.36-26.72.37-1.08 1.22-2.1 2.08-2.9 8.36-7.8 18.65-11.54 29.7-12.79 10.88-1.24 21.87-1.47 34.77-2.26zm5.06 64.89c10.83.07 23.68-3.21 34.63-12.28.88-.72 1.82-1.81 2-2.85 1.3-7.46 2.99-14.94-.1-22.41-.51-1.23-.49-2.73-1.17-3.83-.91-1.48-2.03-3.48-3.46-3.89-5.12-1.46-10.39-3.14-15.64-3.29-14.41-.41-28.84-.21-43.25.02-8.86.14-17.58 1.44-25.94 4.64-2.95 1.13-4.76 3.05-5.68 6.05-1.74 5.68-2.45 11.44-.86 17.19 1.81 6.55 4.73 11.75 12.37 13.8 14.47 3.9 29.05 6.33 47.1 6.85z"/></g><path d="m6.4 11.7c-1-.8-1.9-1.6-2.9-2.3l.6-.7c.9.7 1.9 1.4 2.9 2.2zm-2.1 8.3c.7-2.1 1.4-4.2 2-6.4.2.1.6.3 1 .4-.7 2.3-1.3 4.4-1.9 6.4zm3-12.8c-1.1-.9-2.1-1.7-2.9-2.4l.6-.7c1 .8 2 1.5 3 2.4zm1.4-1.3v-.9h10.2v.9c-.9 4.2-2.3 7.3-4.1 9.4 1.3 1.4 3.2 2.7 5.7 4-.2.2-.4.5-.7.9-2.5-1.4-4.4-2.7-5.7-4.2-1.4 1.5-3.5 3-6.1 4.4 0 0 0 0-.1-.1-.3-.4-.5-.7-.7-.8 2.7-1.3 4.7-2.8 6.2-4.2-1.8-2.2-3-5.3-3.7-9.4zm9.2 0h-7.1c.6 3.8 1.7 6.7 3.4 8.7 1.7-2 2.9-4.8 3.7-8.7z" fill="#fbfafa"/><path d="m31.6 3.6h.9v2.3h4.1v9.1h1.7v.9h-16.6v-.9h1.7v-9.1h4.1v-2.3h.9v2.3h3.1v-2.3zm-4 13.3.6.8c-1.9.9-3.8 1.9-5.8 2.8-.2-.3-.3-.6-.5-.9 2-.9 3.9-1.8 5.7-2.7zm-3.2-10.1v3.7h3.1v-3.7zm0 4.5v3.7h3.1v-3.7zm4.1-4.5v3.7h3.1v-3.7zm0 4.5v3.7h3.1v-3.7zm9.1 9.1c-2.1-1.1-4.1-2-5.8-2.7l.5-.8c2.2.9 4.1 1.8 5.8 2.6zm-1.9-13.6h-3.1v3.7h3.1zm-3.2 4.5v3.7h3.1v-3.7z" fill="#fbfafa"/></svg>