<svg enable-background="new 0 0 400 400" viewBox="0 0 400 400" xmlns="http://www.w3.org/2000/svg"><g fill="#010101"><path d="m301.71 372.81c-4.6-9.41-9.53-18.68-13.74-28.26-10.97-24.99-17.73-51.21-19.74-78.37-1.68-22.75-2.19-45.62-2.45-68.45-.29-25.85.27-51.72.46-77.57 0-.66 0-1.32 0-2.71-5.37-.59-10.64-1.5-15.92-1.67-5.24-.16-10.5.42-15.75.67-9.19.45-17.32-2.6-25.52-7.86 3.79-1.08 7-2.01 10.23-2.92 3.23-.9 6.56-1.53 9.68-2.72 5.38-2.06 10.52-1.8 15.94.01 6.32 2.11 12.83 3.62 19.94 5.58-1.1-5.32-2.03-10.1-3.14-14.84-.17-.72-1.11-1.32-1.78-1.87-8-6.57-17.55-9.03-27.53-10.44-8.46-1.2-16.41-3.99-23.85-8.48 14.85-1.13 29.3-6.23 44.44-3.62 10.46 1.81 18.19 7.09 22.55 16.94 3.2 7.25 4.87 14.75 4.76 22.77-.49 35.94-.79 71.87-1.1 107.81-.09 10.85-.79 21.78.19 32.55 1.86 20.61 4.17 41.21 7.39 61.65 1.85 11.75 5.84 23.17 8.88 34.74 2.33 8.85 4.68 17.7 7.03 26.55-.33.15-.65.33-.97.51z"/><path d="m90.29 369.67c1.51-8.12 3.02-16.23 4.54-24.35 4.95-26.49 10.11-52.93 14.71-79.48 1.03-5.97.13-12.27.03-18.42-.33-22.27-.4-44.55-1.19-66.81-.29-8.09-2.26-16.12-3.54-24.17-3.8-24-5.27-48.03-1.52-72.19.4-2.56 1.31-4.44 3.35-6.17 6.84-5.83 15.06-7.96 23.57-9.73 13.47-2.81 26.65-2.07 39.65 2.37 1.35.46 2.63 1.11 4.89 2.09-5.59 1.42-10.24 2.64-14.9 3.79-11.18 2.76-22.38 5.42-33.52 8.29-1.45.37-3.04 1.47-3.91 2.69-7.53 10.54-9.62 22.63-8.5 35.12 1.32 14.69 3.72 29.28 5.4 43.94 1.55 13.54 3.54 27.1 3.99 40.69 1.1 33.32-1.71 66.42-8.03 99.16-3.68 19.07-9.45 37.49-18.88 54.59-1.66 3.01-3.55 5.89-5.33 8.83-.27-.08-.54-.16-.81-.24z"/><path d="m190.56 25.48c4.37 4.93 6.71 10.08 7.27 15.87 1.61 16.69 3.51 33.37 4.43 50.1 1.52 27.71 2.19 55.46-3 82.93-.85 4.47-2.41 8.82-3.75 13.19-.41 1.35-1.19 2.6-1.8 3.89-.34.01-.68.03-1.03.04-1.83-10.54-4.11-21.02-5.4-31.63-3.17-26.07-3.28-52.27-.59-78.36 1.81-17.6 2.94-35.19 3.49-52.85.04-.86.21-1.74.38-3.18z"/><path d="m225.54 239.36c-7.95.05-15.09-2.46-21.61-6.55-1.6-1-2.56-3.28-3.45-5.14-3.59-7.52-1.78-15.28-1.06-23.07.57-6.2 4.19-9.62 8.57-13.41 5.26-4.56 10.52-5.82 17.11-4.34 10.99 2.47 20.42 6.9 24.68 18.22 3.4 9.03 1.32 17.84-1.83 26.48-.23.65-.96 1.23-1.6 1.6-6.45 3.8-13.31 6.27-20.81 6.21zm12.75-25.51c.16-5.47-2.06-9.66-7.25-11.57-3.29-1.21-6.89-1.59-10.36-2.26-.46-.09-1.16.14-1.51.47-4.02 3.75-8.12 7.03-7.23 13.86 1.09 8.35 3.51 11.63 11.78 12.38 9.4.85 14.31-3.48 14.57-12.88z"/><path d="m152.32 185.44c5.4 1.29 11 2.06 16.17 3.97 11.89 4.4 16.66 13.58 13.59 25.86-1.21 4.84-2.81 9.77-5.28 14.05-2.74 4.74-8.08 6.65-13.18 7.83-3.02.7-6.41.26-9.55-.22-3.18-.49-6.29-1.54-9.36-2.54-8.65-2.81-14.61-11-13.83-20.14.51-5.96 2.19-11.82 3.49-17.69.19-.86 1.05-1.68 1.79-2.29 2.15-1.78 4.49-3.34 6.6-5.18 2.74-2.39 5.58-4.14 9.47-2.73.03-.31.06-.62.09-.92zm17.69 26.09c.03-6.3-7.16-13.58-12.62-12.79-7.55 1.09-12.68 5.94-14.19 13.4-1.07 5.33 1.47 9.4 6.71 10.62 1.74.41 3.51.76 5.28.92 7.93.71 14.79-4.96 14.82-12.15z"/><path d="m122.93 111.4c5.13-5.53 11.72-8.3 18.72-10.44 5.27-1.62 10.26-1.88 15.56.35 5.5 2.32 11.36 3.8 17.22 5.7-12.36 10.5-38.67 12.69-51.5 4.39z"/><path d="m125.79 147.2c5-2.19 9.83-3.9 14.24-6.34 4.77-2.65 9.22-2.65 14.28-.92 7.9 2.7 16 4.79 24.26 7.22-15.34 6.9-36.81 7.49-52.78.04z"/><path d="m259.47 149.94c-16.73 0-33.46 0-50.54 0-.4-1.22-.83-2.54-1.41-4.3 4.53-1.09 8.98-1.68 13.06-3.24 9.02-3.44 17.45-2.65 25.92 1.8 4.11 2.16 8.66 3.47 13.01 5.16-.01.2-.02.39-.04.58z"/></g><path d="m6.4 11.7c-1-.8-1.9-1.6-2.9-2.3l.6-.7c.9.7 1.9 1.4 2.9 2.2zm-2.1 8.3c.7-2.1 1.4-4.2 2-6.4.2.1.6.3 1 .4-.7 2.3-1.3 4.4-1.9 6.4zm3-12.8c-1.1-.9-2.1-1.7-2.9-2.4l.6-.7c1 .8 2 1.5 3 2.4zm1.4-1.3v-.9h10.2v.9c-.9 4.2-2.3 7.3-4.1 9.4 1.3 1.4 3.2 2.7 5.7 4-.2.2-.4.5-.7.9-2.5-1.4-4.4-2.7-5.7-4.2-1.4 1.5-3.5 3-6.1 4.4 0 0 0 0-.1-.1-.3-.4-.5-.7-.7-.8 2.7-1.3 4.7-2.8 6.2-4.2-1.8-2.2-3-5.3-3.7-9.4zm9.2 0h-7.1c.6 3.8 1.7 6.7 3.4 8.7 1.7-2 2.9-4.8 3.7-8.7z" fill="#fbfafa"/><path d="m31.6 3.6h.9v2.3h4.1v9.1h1.7v.9h-16.6v-.9h1.7v-9.1h4.1v-2.3h.9v2.3h3.1v-2.3zm-4 13.3.6.8c-1.9.9-3.8 1.9-5.8 2.8-.2-.3-.3-.6-.5-.9 2-.9 3.9-1.8 5.7-2.7zm-3.2-10.1v3.7h3.1v-3.7zm0 4.5v3.7h3.1v-3.7zm4.1-4.5v3.7h3.1v-3.7zm0 4.5v3.7h3.1v-3.7zm9.1 9.1c-2.1-1.1-4.1-2-5.8-2.7l.5-.8c2.2.9 4.1 1.8 5.8 2.6zm-1.9-13.6h-3.1v3.7h3.1zm-3.2 4.5v3.7h3.1v-3.7z" fill="#fbfafa"/></svg>