<svg enable-background="new 0 0 400 400" viewBox="0 0 400 400" xmlns="http://www.w3.org/2000/svg"><g fill="#010103"><path d="m236.18 274.08c-6.43 11.78-8.75 24.08-7.78 36.72 1.24 16.15 3.57 32.21 5.32 48.32.37 3.43.49 6.92.39 10.37-.09 2.96-1.61 4.99-4.77 5.61-3.14.62-5.18-.16-6.65-3.31-4.85-10.41-7.19-21.48-7.79-32.77-.64-11.92-1.09-23.99.07-35.83 1.03-10.6 3.99-21.07 6.83-31.4 1.58-5.75.9-9.87-3.3-14.3-6.37-6.74-12.25-13.99-17.8-21.42-3.1-4.15-5.18-9.07-7.57-13.72-1.99-3.88-3.81-7.84-5.59-11.82-.72-1.62-1.59-2.34-3.5-2.33-25.74.14-51.49.23-77.23.23-4.01 0-8.05-.32-12.03-.8-3.2-.39-5.27-2.28-5.64-5.69-.27-2.52.48-4.18 3.12-5.11 9.48-3.33 19.28-3.69 29.14-3.46 19.9.47 39.81 1.03 59.71 1.55.44.01.88-.07 1.73-.14-.92-6-2.24-11.86-2.64-17.79-.87-12.7-1.54-25.43-1.73-38.15-.08-5.26 1.48-10.46 6.35-13.76.54-.37 1.2-.57 2.12-.99 3.59 5.23 5.16 11 5.44 17.23.47 10.28.99 20.55 1.52 30.83.04.75.26 1.49.47 2.65 2.42-.57 4.78-.83 6.89-1.69 6.84-2.75 13.58-5.73 20.37-8.59 2.19-.92 3.05-2.34 3.14-4.86.25-6.6 2.28-12.68 6.18-18.14 3.72-5.2 9.29-7.57 14.74-10.11 4.67-2.17 7.26-6.17 6.38-11.14-.15-.87-1.45-1.73-2.4-2.24-4.5-2.41-9.52-4.09-13.53-7.13-10.95-8.28-14.04-22.37-7.9-34.24 1.02-1.98 2.93-3.58 4.64-5.13 5.07-4.61 10.39-8.75 17.6-9.63.94-.11 2.29-2.1 2.34-3.27.18-4.01.04-8.05-.3-12.05-.57-6.71 0-13.14 3.31-19.18.96-1.75 2.09-2.03 3.81-1.54 5.29 1.5 8.1 5.9 7.62 12.23-.51 6.69-1.08 13.37-1.69 20.05-.23 2.55.69 4.09 3.14 5.12 3.18 1.34 6.19 3.1 9.27 4.69 7.77 4.01 12.17 11.95 11.47 20.67-.09 1.12-.14 2.24-.28 3.35-.91 7.29-2.75 13.95-9.96 17.85-4.28 2.31-8.86 4.64-12.1 8.08-1.76 1.87-1.15 6.11-1.28 9.29-.04.87.92 2.11 1.76 2.63 1.69 1.05 3.66 1.65 5.44 2.56 12.83 6.6 17.51 16.85 15.38 31.09-2.05 13.68-12.02 18.29-23.21 21.33s-21.54-.08-30.75-6.68c-3.21-2.3-5.61-2.61-8.78-.17-6.6 5.08-14.93 4.87-22.53 6.89-2.13.57-4.32.96-6.5 1.44v7.89c4.32 0 8.53-.03 12.73.01 25.96.25 51.91.5 77.87.81 1.99.02 4.29-.06 5.89.87 1.83 1.06 3.51 2.97 4.42 4.91 1.13 2.41.08 4.38-2.71 5.42-7.46 2.77-15.19 3.77-23.06 3.62-22.03-.43-44.06-1.01-66.09-1.53-1.21-.03-2.41 0-3.67 0 2.32 11.24 14.93 29.93 28.99 43.23 5.06-6.52 10.03-13.12 15.22-19.55 4.38-5.43 9.82-9.52 16.75-11.09 1.48-.33 3.6-.04 4.74.84 1.96 1.52 2.66 3.93 1.18 6.31-1.17 1.88-2.49 3.7-3.91 5.4-7.66 9.17-15.38 18.29-23.32 27.71 3.61 2.56 6.67 4.76 9.77 6.92 16.14 11.27 32.29 22.54 48.45 33.78 3.3 2.3 5.48 5.13 5.57 9.38.04 2.01-.84 3.17-2.59 3.06-3.52-.23-7.21-.3-10.46-1.46-3.84-1.37-7.52-3.5-10.87-5.87-14.05-9.96-27.96-20.13-41.91-30.22-1.05-.82-2.1-1.63-3.45-2.64zm22.51-101.88c5.07-.44 8.96-1.97 13.5-5.89 5.76-4.96 5-15.63-1.66-19.23-8.57-4.63-16.99-6.93-26.05.08-4.15 3.21-5.62 6.57-5.48 11.18.13 4.16 1.93 7.88 5.75 9.53 4.44 1.93 9.28 2.93 13.94 4.33zm-3.77-97.52c-1.73.57-3.56.95-5.17 1.77-2.48 1.25-4.98 2.6-7.16 4.3-1.34 1.05-2.64 2.72-3.03 4.33-1.89 7.83 2.59 15.18 10.21 17.45 8.28 2.47 16 2.44 22.78-3.99 5.57-5.28 4.86-14.44-1.67-18.39-4.84-2.93-10.07-4.71-15.96-5.47z"/><path d="m148.11 226.64c13.99.69 24.64.49 34.61 5.16 5.76 2.7 10.09 6.55 12.18 12.62 4.65 13.52 5.95 27.46 2.42 41.26-4.03 15.79-15.53 24.72-30.91 28.32-19.95 4.66-38.76.03-56.86-8.52-3.43-5.03-7.82-9.66-10.11-15.17-6.74-16.18-4.92-32.63.73-48.76.71-2.03 3.25-3.55 5.19-4.99 7.63-5.66 16.67-7.45 25.77-8.64 6.73-.88 13.56-1.04 16.98-1.28zm6.58 36.22h30.04c-.25-2.66-.34-5.08-.72-7.47-.65-4.06-1.86-8.15-5.64-10.21-7.36-4.01-15.44-4.27-23.68-3.87zm-15.52-22.3c-5.64.71-10.91 1.27-16.15 2.04-7.67 1.12-11.55 5.94-12.82 13.34-1.02 5.94-.19 7.07 5.63 6.93.34-.01.67.01 1.01 0 7.68-.26 15.36-.53 23.4-.8-.35-7.1-.69-13.84-1.07-21.51zm15.46 60.29c9.61.48 17.81-2.02 24.31-8.45 2.46-2.43 4.02-6.05 5.2-9.41 1.09-3.08-.87-4.86-4.27-4.67-4.01.22-8.02.44-12.02.7-4.72.31-9.43.66-14.29 1 .37 7.14.71 13.8 1.07 20.83zm-44.05-21.61c2.29 4.74 4.25 8.84 6.26 12.91.54 1.08 1 2.49 1.93 3.05 6.51 3.96 13.47 6.16 21.46 4.95-.52-6.56-.96-12.88-1.59-19.19-.06-.63-1.22-1.64-1.88-1.65-8.46-.11-16.92-.07-26.18-.07z"/><path d="m137.5 185.32c-6.15-.14-14.35-1.64-20.91-6.35-7.71-5.53-10.79-13.95-9.87-23.63 1.25-13.15 9.57-20.19 20.97-24.66 1.63-.64 4.33-1 4.64-2.05.85-2.82.82-5.95.76-8.96-.01-.58-1.63-1.29-2.62-1.67-7-2.71-13.22-6.52-18.13-12.29-8.47-9.93-6.72-21.48-1.66-31.06 1.52-2.88 5.48-4.44 8.22-6.73 3.48-2.91 7.15-5.22 11.76-5.99 1.06-.18 2.53-1.66 2.69-2.71.55-3.62.83-7.32.79-10.99-.07-6.84-.3-13.63 2.17-20.21.87-2.33 2.03-2.79 4.25-2.04 5.23 1.76 7.74 5.6 7.19 11.39-.53 5.56-1.11 11.11-1.63 16.67-.41 4.31 1.14 7.19 5.25 9.33 4.59 2.39 9.37 5.12 12.81 8.86 9.89 10.72 8.62 26.44-1.3 35.9-4.05 3.86-8.15 7.24-13.54 8.84-1.88.56-2.34 1.66-2.56 3.61-.64 5.75.75 9.14 6.79 11.81 9.42 4.16 15.54 12.09 16.98 22.63 1.08 7.94-1.21 15.09-7.37 20.58-6.7 5.98-14.46 9.62-25.68 9.72zm20.24-29.09c-1.26-2.5-1.98-5.54-3.88-7.39-4.32-4.22-10.18-5.19-15.95-6.24-4.28-.77-7.21 1.52-10.32 3.67-.92.64-1.81 1.33-2.8 1.84-4.51 2.34-5.3 6.52-4.81 10.86.48 4.28 1.93 8.32 6.93 9.58 3.99 1.01 7.92 2.36 11.96 3.07 9.21 1.62 17.99-5.8 18.87-15.39zm-21.76-81.38c-1.36.33-2.87.4-4.06 1.04-3.04 1.64-5.97 3.49-8.88 5.35-.7.45-1.38 1.17-1.69 1.93-2.21 5.31-2.04 10.38 1.62 15.13 2.73 3.55 6.89 3.83 10.68 4.87 7.25 2 13.87.99 19.61-4.3 5.83-5.37 5.04-14.73-1.73-18.84-4.76-2.89-9.89-4.6-15.55-5.18z"/></g><path d="m385.2 377.6.6-.7c.6.4 1.3.9 1.9 1.5l-.6.7c-.8-.5-1.4-1-1.9-1.5zm.3 7.1c.6-1.4 1.1-2.9 1.5-4.5.3.1.6.3.9.4-.5 1.4-1 2.9-1.5 4.4zm.2-10.1.6-.6c.7.5 1.3 1.1 1.9 1.6l-.7.7c-.6-.6-1.2-1.2-1.8-1.7zm8.4-.8h.8v.9h1.8v.7h-1.8v1.8h-.8v-.3h-1.2v.9h3.3v2.6h-.8v-.4h-2.5c0 .3 0 .6-.1.8h3.4v.7h-3.5c0 .3-.1.6-.1.8h4v.7h-3.5c.7.9 1.9 1.3 3.6 1.5-.2.2-.4.5-.6.9-1.9-.3-3.2-1.1-3.8-2.3-.5 1.1-1.8 2-3.9 2.4-.2-.3-.4-.5-.6-.8 1.9-.4 3.1-.9 3.6-1.7h-3.2v-.7h3.5c.1-.2.1-.5.2-.8h-3.3v-.7h3.4c0-.2 0-.5 0-.8h-2.4v.3h-.8v-2.6h3.3v-.9h-1.2v.3h-.8v-1.8h-1.8v-.7h1.8v-.9h.8v.9h3.2zm-4.4 5.5h2.4c0-.3 0-.6 0-.9h-2.4zm1.2-3.1h3.2v-.8h-3.2zm4.4 2.2h-2.4v.9h2.5v-.9z" fill="#fcfbfa"/><path d="m389.2 385.8h.9v1.5h1.9v-1.5h.9v1.5h2.7v6h1.1v.9h-11.3v-.9h1.1v-6h2.7zm.2 8.7.5.8c-1.2.6-2.5 1.3-4 1.9-.2-.3-.3-.6-.6-.8 1.6-.6 3-1.3 4.1-1.9zm-2-4.3h1.9v-2.1h-1.9zm0 3.1h1.9v-2.2h-1.9zm2.7-3.1h1.9v-2.1h-1.9zm0 3.1h1.9v-2.2h-1.9zm2.4 1.3c1.4.6 2.7 1.2 4.1 1.8l-.5.9c-1.5-.7-2.8-1.4-4.1-1.9zm2.2-6.5h-1.9v2.1h1.9zm-1.9 5.2h1.9v-2.2h-1.9z" fill="#fcfbfa"/></svg>