<svg enable-background="new 0 0 400 400" viewBox="0 0 400 400" xmlns="http://www.w3.org/2000/svg"><path d="m180.39 334.37c0-37.1 0-73.54 0-110.66-4.37 0-8.92.04-13.46-.01-14.99-.17-29.98-.35-44.97-.59-2.23-.04-4.58-.05-6.63-.77-1.74-.62-3.54-1.97-4.58-3.49-1.96-2.85-1.4-4.25 1.71-5.72 7.8-3.68 16.17-4.11 24.6-4.21 13.09-.17 26.18-.37 39.27-.56.77-.01 1.54-.11 2.73-.19.59-8.51 1.17-16.93 1.81-26.33-6.29 0-12.28.08-18.27-.02-17.79-.29-35.57-.64-53.35-1.03-2-.04-4.04-.31-5.97-.82-3.45-.9-5.73-4.83-4.58-8.13.34-.97 1.8-1.83 2.93-2.21 8.73-2.95 17.77-3.18 26.87-3 16.22.32 32.44.59 48.67.87 1.1.02 2.2 0 3.51 0 0-8.65 0-16.98 0-25.75-1.32 0-2.51 0-3.71 0-16.12.07-32.24.16-48.36.2-1.89 0-3.82-.13-5.67-.5-3.42-.68-6.1-4.31-5.55-7.71.15-.91 1.34-1.94 2.3-2.38 6.43-2.96 13.31-3.77 20.3-3.69 8.61.1 17.22.53 25.83.59 3.56.02 7.12-.58 10.69-.87 1.83-.15 2.75-1.02 2.94-2.93.3-2.99.83-5.96 1.31-9.28-8-1.43-15.78-2.84-23.56-4.22-4.07-.72-8.53-.61-12.14-2.32-4.94-2.34-9.81-5.46-13.66-9.29-8.03-7.98-10.86-18.7-12.58-29.44-1.14-7.11-.75-14.48-.89-21.74-.06-3.13 3.05-2.35 4.73-3.2.68-.35 2.37.17 2.93.85 4.12 5 5.68 10.94 6.56 17.29.9 6.48 1.88 13.1 4.06 19.22 3.04 8.56 10.12 13.23 18.84 14.94 7.78 1.53 15.68 2.43 23.53 3.59.42.06.87.01 1.45.01 2.3-9.92 2.24-19.85 1.36-29.77-.99-11.25-3.08-22.48-.31-33.71.9-3.66 2.36-7.2 3.83-10.69.3-.71 1.86-1.41 2.72-1.28 3.83.57 6.31 2.91 6.83 6.78.46 3.42.61 6.91.66 10.37.29 18.8.51 37.59.76 56.39 0 .32.12.64.3 1.55 7.6-.93 15.29-1.37 22.74-2.98 4.7-1.01 9.85-2.85 13.35-5.95 6.18-5.48 10.25-12.72 10.67-21.37.37-7.54 1.24-14.93 4.62-21.82 1.6-3.26 3.6-4.16 7.04-3.53 1.97.36 2.71 1.34 3.14 3.25 3.33 14.56.85 28.51-6.02 41.28-7.02 13.04-18.29 21.17-33.47 22.87-7.32.82-14.66 1.46-22.32 2.21-.3 3.56-.75 6.98-.77 10.4 0 .8 1.38 2.18 2.28 2.32 11.91 1.85 23.83 3.7 35.8 5.2 7.42.93 14.5 2.6 21.05 6.31 13.96 7.9 19.1 20.45 18.38 35.77-.26 5.66-1.67 11.26-2.39 16.91-.2 1.58-.16 3.35.33 4.85 1.96 5.94 3.86 11.93 6.3 17.68 3.9 9.21 5.2 18.88 6.27 28.68 2.97 27.13 6.31 54.23 9.11 81.38 1.6 15.47 2.51 31.01 3.45 46.53.08 1.34-1.7 3.64-3.03 4-1.69.46-4.49.06-5.6-1.11-3.95-4.2-4.81-9.75-5.01-15.28-1.18-32.49-6.34-64.56-10.33-96.74-2.2-17.69-6.35-35.14-9.86-53.99-20.87 12.83-43.56 12.86-66.71 14.8 0 13.73.04 27.14-.01 40.56-.03 6.83-.04 13.66-.39 20.48-.16 3.14 1.01 4.8 3.93 4.79 4.87-.01 9.78-.14 14.61-.71 3.56-.42 5.83-2.82 7.2-6.24 2.71-6.77 3.55-13.79 3.71-21.01.12-5.45.34-10.96 1.25-16.32.82-4.87 3.74-8.54 9.12-9.86 4.76 7.83 6.15 16.46 4.62 25.18-1.78 10.21-4.66 20.22-7.13 30.31-.23.92-.77 1.92-1.47 2.54-6.09 5.43-12.7 9.33-21.43 8.53-4.12-.38-8.35.43-12.59.7-.61 11.38-1.17 21.97-1.76 32.98 4.84.35 9.36.73 13.9.99 13.73.81 27.47 1.55 41.21 2.36 2.34.14 4.71.28 7 .74 1.48.3 3.08.89 4.21 1.84 3.53 2.98 3.01 6.45-1.08 8.37-5.73 2.69-11.84 3.06-18.04 2.93-12.86-.26-25.73-.36-38.59-.71-20.65-.55-41.09-2.54-60.59-10.01-1.6-.61-3.07-1.71-4.41-2.8-1.29-1.05-2.21-2.57-3.52-3.59-8.84-6.93-11.74-16.83-13.57-27.2-3.66-20.72-4.59-41.57-2.75-62.53.16-1.78.45-3.55.69-5.32.38-2.9 2.33-4.2 4.96-4.62 2.78-.44 5.28.03 5.81 3.34.81 5.04 1.86 10.1 1.98 15.17.28 11.97-.13 23.95.11 35.92.2 10.47 1.67 20.77 6.84 30.13.8 1.45 2.2 2.79 3.65 3.6 4.29 2.41 8.81 4.39 13.1 6.78 7.58 4.23 16.06 2.89 24.62 4.87zm15.5-193.45c0 9.18-.05 17.78.1 26.36.01.7 1.37 1.88 2.21 1.99 8.2 1.06 16.45 1.76 24.64 2.91 7.93 1.11 15.85 2.4 23.68 4.06 4.05.86 7.89 2.71 12.29 4.27-.41-5.3-1.19-9.97-1.02-14.6.24-6.55-2.89-10.81-8.12-13.9-2.68-1.58-5.48-3.11-8.41-4.09-14.56-4.84-29.7-5.95-45.37-7zm.23 41.29v24.92c12.75.52 25.26.39 37.56-2.21 6.78-1.43 13.06-4.26 18.25-9.36-4.03-4.68-9.16-7.08-14.69-8.59-13.35-3.66-27.12-3.92-41.12-4.76z" fill="#010103"/><g fill="#fcfbfa"><path d="m385.2 377.6.6-.7c.6.4 1.3.9 1.9 1.5l-.6.7c-.8-.5-1.4-1-1.9-1.5zm.3 7.1c.6-1.4 1.1-2.9 1.5-4.5.3.1.6.3.9.4-.5 1.4-1 2.9-1.5 4.4zm.2-10.1.6-.6c.7.5 1.3 1.1 1.9 1.6l-.7.7c-.6-.6-1.2-1.2-1.8-1.7zm8.4-.8h.8v.9h1.8v.7h-1.8v1.8h-.8v-.3h-1.2v.9h3.3v2.6h-.8v-.4h-2.5c0 .3 0 .6-.1.8h3.4v.7h-3.5c0 .3-.1.6-.1.8h4v.7h-3.5c.7.9 1.9 1.3 3.6 1.5-.2.2-.4.5-.6.9-1.9-.3-3.2-1.1-3.8-2.3-.5 1.1-1.8 2-3.9 2.4-.2-.3-.4-.5-.6-.8 1.9-.4 3.1-.9 3.6-1.7h-3.2v-.7h3.5c.1-.2.1-.5.2-.8h-3.3v-.7h3.4c0-.2 0-.5 0-.8h-2.4v.3h-.8v-2.6h3.3v-.9h-1.2v.3h-.8v-1.8h-1.8v-.7h1.8v-.9h.8v.9h3.2zm-4.4 5.5h2.4c0-.3 0-.6 0-.9h-2.4zm1.2-3.1h3.2v-.8h-3.2zm4.4 2.2h-2.4v.9h2.5v-.9z"/><path d="m389.2 385.8h.9v1.5h1.9v-1.5h.9v1.5h2.7v6h1.1v.9h-11.3v-.9h1.1v-6h2.7zm.2 8.7.5.8c-1.2.6-2.5 1.3-4 1.9-.2-.3-.3-.6-.6-.8 1.6-.6 3-1.3 4.1-1.9zm-2-4.3h1.9v-2.1h-1.9zm0 3.1h1.9v-2.2h-1.9zm2.7-3.1h1.9v-2.1h-1.9zm0 3.1h1.9v-2.2h-1.9zm2.4 1.3c1.4.6 2.7 1.2 4.1 1.8l-.5.9c-1.5-.7-2.8-1.4-4.1-1.9zm2.2-6.5h-1.9v2.1h1.9zm-1.9 5.2h1.9v-2.2h-1.9z"/></g></svg>