<svg enable-background="new 0 0 400 400" viewBox="0 0 400 400" xmlns="http://www.w3.org/2000/svg"><g fill="#010103"><path d="m127.48 272.25c5.65-.29 11.1-.47 16.51-.95.97-.09 2.04-1.28 2.69-2.22 5.79-8.48 8.57-18.16 8.78-28.15.42-19.67-.08-39.37-.24-59.05-.08-10.51-.38-21.02-.29-31.53.04-4.6 2.35-8.09 6.9-9.76 1.71-.63 3.06-.47 3.72 1.47 1.39 4.1 4.07 8.25 3.92 12.29-.65 18 3.22 35.66 3.33 53.57.13 21.2-.84 42.21-7.49 62.69-3.05 9.41-9.85 13.56-18.28 15.69-6 1.51-12.36 1.63-19.11 2.43v52.09c5.43.38 11.28.89 17.14 1.15 4.36.19 8.73-.08 13.09.08 4.77.17 9.39 1.06 12.87 4.75 3.77 4 3.43 6.46-1.16 9.27-5.05 3.1-10.63 3.11-16.26 2.67-13.7-1.05-27.39-2.64-41.11-3.02-9.53-.27-17.92-3.58-26.2-7.35-2.62-1.19-4.38-4.63-6.14-7.3-9.58-14.53-13.75-30.85-14.19-47.96-.52-20.13-.15-40.29-.08-60.44.04-12.42-.13-24.86.51-37.26.4-7.87 2.09-15.68 3.23-23.51.58-3.98 4.16-3.09 6.6-3.67.76-.18 2.35 1.49 2.96 2.63 5.05 9.5 5.55 19.94 4.23 30.13-2.75 21.25-.98 42.45-.63 63.68.14 8.39.02 16.82.81 25.16 1.03 10.89 2.49 21.76 4.42 32.52 1.9 10.59 10.32 14.35 20.37 17.23 0-6.4-.05-12.37.01-18.35.57-58.31 1.16-116.63 1.74-174.94 0-.45-.07-.91.01-1.34.8-3.95-1.11-5.49-4.74-6.77-12.5-4.4-23.33-11.46-30.88-22.58-5.75-8.47-7.56-18.39-4.87-27.98 3.11-11.1 9.63-20.19 20.03-26.61 16.98-10.49 34.27-10.19 52.08-3.47 9.37 3.54 18.47 7.97 24.23 16.65 6.61 9.95 8.04 20.61 3.98 32.23-3.17 9.08-8.23 16.14-16.61 20.84-.87.49-1.69 1.12-2.42 1.8-5.94 5.47-12.86 8.75-20.94 9.39-2.16.17-2.7 1.16-2.69 3.24.06 42.77.04 85.53.05 128.3-.01.64.06 1.29.12 2.26zm-7.71-147.09c5.07-1.24 10.39-1.86 15.14-3.85 7.75-3.25 15.14-7.4 18.79-15.72 4.51-10.28 3.33-19.1-4.44-25.67-13.14-11.13-28.01-15.66-44.81-9.13-6.95 2.7-13.54 6.52-17.23 13.23-5.95 10.82-.2 28.42 10.91 34.52 6.64 3.65 13.82 5.66 21.64 6.62z"/><path d="m250.77 25.03c7.41 3.89 10.27 9.63 9.32 17.59-.78 6.53-1.41 13.07-1.83 19.63-.23 3.55 1.12 5.91 5.29 6.58 7.45 1.2 14.28 4.35 20.79 8.13 10.24 5.95 20.65 11.63 30.66 17.95 6.21 3.91 11.05 9.35 13.74 16.48 1.2 3.16.28 4.71-2.73 5.71-6.55 2.19-12.24-.39-16.68-4.4-13.99-12.65-30.76-20.16-47.77-27.38-.29-.12-.64-.09-1.2-.15-.35 7.33-.79 14.57-.93 21.83-.02.8 1.46 2.04 2.48 2.4 8.27 2.89 16.17 6.43 23.33 11.59 9.92 7.16 14.04 16.57 11.43 28.61-.94 4.35-2.35 8.61-3.73 12.85-.35 1.09-1.26 2.08-2.12 2.9-6.93 6.57-15.53 9.98-24.46 12.71-2.1.64-4.25 1.15-6.94 1.87 10.1 8.75 8.36 20.79 9.59 31.73 2.13 18.88-1.19 37.19-7.41 55.07-3.62 10.4-5.4 21.18-6.28 32.17-.68 8.46 1.29 16.43 3.23 24.47 3.46 14.34 6.93 28.68 10.4 43.02.89 3.68.13 5.25-3.83 6.68-2.71.98-5.26.09-6.58-2.44-3.32-6.32-6.91-12.58-9.44-19.23-7.85-20.71-11.31-42.2-8-64.23 1.6-10.67 4.94-21.08 7.56-31.6 1.81-7.26 4.01-14.44 5.56-21.75 1.9-9.01.5-18-.66-27.02-.93-7.16-1.01-14.45-1.06-21.69-.01-1.66 1.63-3.33 2.66-5.28-3.92-.51-8.19-1-12.43-1.64-11.1-1.68-20.94-5.73-27.57-15.37-6.48-9.42-7.59-19.87-5.42-30.83.16-.82.61-1.74 1.22-2.3 4.84-4.48 9.68-8.96 14.66-13.28 4.18-3.63 9.37-5.12 14.69-6.05 2.17-.38 2.94-1.37 3-3.53.19-6.81.56-13.61.9-21.36-3.41.58-6.77.5-9.52 1.75-5.87 2.66-11.58 5.77-17.08 9.14-7.91 4.85-15.45 10.31-23.41 15.06-3.07 1.83-6.81 2.75-10.37 3.45-2.56.5-5.52.28-6.86-2.83-1.12-2.61.34-8.29 2.66-9.79 13.8-8.94 27.41-18.2 41.58-26.51 5.77-3.38 12.69-4.95 19.25-6.75 3.84-1.06 5.18-3.45 5.04-6.73-.26-5.89-.91-11.77-1.59-17.64-.91-7.65 1.24-14.12 6.86-19.59zm-.16 98.94c-.07.29-.13.59-.2.88-2.22 0-4.79-.74-6.59.13-6.18 3.01-12.1 6.54-18.06 9.98-.75.43-1.39 1.47-1.6 2.35-1.88 7.8 1.18 16.49 7.99 20.54 15.08 8.96 34.43 8.43 47.79-4.3.47-.45 1.01-.94 1.26-1.52 3.4-7.95-1.37-19.99-9.59-22.75-6.83-2.3-13.99-3.58-21-5.31z"/><path d="m292.94 181.02c7.4.96 11.28 5.05 13.12 10.99 3.64 11.7 4.15 23.71 3.14 35.87-1.25 15.03-4.81 29.54-9.41 43.84-4.48 13.94-6.12 28.3-4.17 42.75 1.08 8.02 4.08 15.77 6.15 23.65 2.04 7.77 4.03 15.56 5.98 23.35.27 1.07.26 2.22.32 3.34.38 7.28-.94 8.85-8.29 9.51-.78.07-1.97-.77-2.44-1.52-8.4-13.35-13.3-28.04-15.98-43.47-2.35-13.51-3.42-27.18-1.4-40.78 1.44-9.69 4.02-19.23 6.29-28.78 2.43-10.22 5.14-20.38 7.64-30.58 1.87-7.64.57-15.12-1.59-22.49-1.58-5.37-3.64-10.69-2.35-16.4.7-3.1 1.94-6.08 2.99-9.28z"/><path d="m230.48 230.1c.07 12.43-3.67 24.05-7.25 35.71-2.23 7.26-4.29 14.58-6.41 21.87-4.26 14.65-2.88 29.04 2.42 43.09 4.44 11.76 8.17 23.61 9.44 36.21.39 3.87-1.95 5.39-4.4 5.93-1.93.43-5.43-.48-6.33-1.95-14.2-23.2-21.72-47.95-16.41-75.45 4.35-22.5 8.68-45 12.96-67.5 1.29-6.8.98-13.61-.81-20.29-1.99-7.41-3.08-14.88-2.29-22.57.43-4.12 3.82-6 7.35-3.94 3.85 2.24 5.95 5.9 6.69 10.03 1.59 8.79 2.82 17.65 4.02 26.51.56 4.07.69 8.22 1.02 12.35z"/></g><path d="m385.2 377.6.6-.7c.6.4 1.3.9 1.9 1.5l-.6.7c-.8-.5-1.4-1-1.9-1.5zm.3 7.1c.6-1.4 1.1-2.9 1.5-4.5.3.1.6.3.9.4-.5 1.4-1 2.9-1.5 4.4zm.2-10.1.6-.6c.7.5 1.3 1.1 1.9 1.6l-.7.7c-.6-.6-1.2-1.2-1.8-1.7zm8.4-.8h.8v.9h1.8v.7h-1.8v1.8h-.8v-.3h-1.2v.9h3.3v2.6h-.8v-.4h-2.5c0 .3 0 .6-.1.8h3.4v.7h-3.5c0 .3-.1.6-.1.8h4v.7h-3.5c.7.9 1.9 1.3 3.6 1.5-.2.2-.4.5-.6.9-1.9-.3-3.2-1.1-3.8-2.3-.5 1.1-1.8 2-3.9 2.4-.2-.3-.4-.5-.6-.8 1.9-.4 3.1-.9 3.6-1.7h-3.2v-.7h3.5c.1-.2.1-.5.2-.8h-3.3v-.7h3.4c0-.2 0-.5 0-.8h-2.4v.3h-.8v-2.6h3.3v-.9h-1.2v.3h-.8v-1.8h-1.8v-.7h1.8v-.9h.8v.9h3.2zm-4.4 5.5h2.4c0-.3 0-.6 0-.9h-2.4zm1.2-3.1h3.2v-.8h-3.2zm4.4 2.2h-2.4v.9h2.5v-.9z" fill="#fcfbfa"/><path d="m389.2 385.8h.9v1.5h1.9v-1.5h.9v1.5h2.7v6h1.1v.9h-11.3v-.9h1.1v-6h2.7zm.2 8.7.5.8c-1.2.6-2.5 1.3-4 1.9-.2-.3-.3-.6-.6-.8 1.6-.6 3-1.3 4.1-1.9zm-2-4.3h1.9v-2.1h-1.9zm0 3.1h1.9v-2.2h-1.9zm2.7-3.1h1.9v-2.1h-1.9zm0 3.1h1.9v-2.2h-1.9zm2.4 1.3c1.4.6 2.7 1.2 4.1 1.8l-.5.9c-1.5-.7-2.8-1.4-4.1-1.9zm2.2-6.5h-1.9v2.1h1.9zm-1.9 5.2h1.9v-2.2h-1.9z" fill="#fcfbfa"/></svg>