<svg enable-background="new 0 0 400 400" viewBox="0 0 400 400" xmlns="http://www.w3.org/2000/svg"><path d="m361.2 9.6.8-1c.9.7 1.9 1.4 2.9 2.3l-.9 1.1c-1-1-2-1.8-2.8-2.4zm.5 10.6c.9-2.1 1.6-4.3 2.3-6.7.4.2.8.4 1.3.6-.7 2.1-1.5 4.3-2.2 6.6zm.4-15.2.9-.9c1 .8 2 1.6 2.8 2.4l-1 1c-.9-.9-1.8-1.7-2.7-2.5zm12.5-1.2h1.2v1.4h2.7v1.1h-2.7v2.7h-1.2v-.6h-1.8v1.3h4.9v3.8h-1.2v-.5h-3.7c0 .4-.1.9-.1 1.2h5.1v1h-5.2c0 .5-.1.9-.2 1.2h6v1h-5.2c1.1 1.3 2.9 2 5.5 2.2-.4.4-.7.8-.9 1.3-2.9-.5-4.8-1.6-5.7-3.5h-.1c-.8 1.7-2.7 2.9-5.9 3.6-.2-.4-.6-.8-.9-1.1 2.8-.6 4.6-1.4 5.4-2.5h-4.8v-1h5.3c.1-.3.2-.7.2-1.2h-4.9v-1h5c0-.4 0-.8.1-1.2h-3.5v.5h-1.2v-3.8h4.9v-1.3h-1.8v.5h-1.2v-2.7h-2.7v-1h2.6v-1.4h1.2v1.4h4.7v-1.4zm-6.6 8.3h3.6c0-.4 0-.9 0-1.4h-3.6zm1.9-4.6h4.7v-1.3h-4.7zm6.6 3.2h-3.7v1.4h3.7z" fill="#fbfcfa"/><path d="m385.3 3.8h1.3v2.2h2.8v-2.2h1.3v2.2h4.1v9.1h1.7v1.3h-16.9v-1.3h1.7v-9.1h4.1v-2.2zm.4 13.1.7 1.2c-1.8.9-3.8 1.9-6 2.9-.2-.4-.5-.8-.8-1.3 2.3-1 4.3-1.9 6.1-2.8zm-3.1-6.4h2.8v-3.2h-2.8zm0 4.6h2.8v-3.3h-2.8zm4-4.6h2.8v-3.2h-2.8zm0 4.6h2.8v-3.3h-2.8zm3.7 1.9c2.1.9 4.1 1.8 6.1 2.7l-.7 1.3c-2.2-1.1-4.2-2-6.1-2.9zm3.2-9.7h-2.8v3.2h2.8zm-2.8 7.8h2.8v-3.3h-2.8z" fill="#fbfcfa"/><g fill="#010102"><path d="m129.99 232.73c-8.72 0-16.99 0-25.67 0-.34 5.4-.72 10.72-1.02 16.04-1.39 25.26-2.74 50.51-4.19 75.77-.11 1.84-.65 3.8-1.52 5.41-1.58 2.91-4.61 4.4-7.61 3.82-1.58-.31-3.51-2.87-3.85-4.68-.8-4.2-1.16-8.59-.92-12.86.52-9.37 1.82-18.7 2.26-28.08.93-19.79 1.81-39.59 2.09-59.39.11-7.88-1.34-15.78-2.19-23.66-.98-9.09-1.22-18.09 2.5-26.69.25-.1.45-.24.66-.25 6.53-.28 6.91-.38 8.74 5.9 1.42 4.88 1.93 10.05 2.52 15.13.79 6.75 1.26 13.54 1.89 20.42h26.46c.36-35.55.71-71.06 1.07-106.98-7.19 0-14-.07-20.79.11-.65.02-1.72 1.52-1.81 2.41-1 9.46-1.69 18.95-2.79 28.39-.5 4.29-1.32 8.63-2.72 12.7-1.47 4.28-4.59 5.76-8.63 5.37-2.11-.2-3.06-1.12-3.41-3.28-1.55-9.62-1.11-19.2.44-28.74 2.19-13.49 4.6-26.99 3.51-40.69-.59-7.43-2.13-14.81-3.63-22.13-1.43-6.98-2.39-13.81-.41-20.88.95-3.39 3.75-2.75 5.88-3.31.74-.2 2.31 1.26 2.92 2.3 5.37 9.23 6.75 19.6 8.05 29.91.89 7.09.98 14.27 1.6 21.4.09 1.02 1.14 2.77 1.79 2.79 6.24.21 12.49.13 18.97.13 2.64-9.84 2.73-20.09 1.53-30.35-1.35-11.58-2.99-23.13.36-34.64.44-1.5.72-3.09 1.41-4.46.83-1.64 1.75-4.02 3.14-4.45 2.62-.81 6.53 1.97 7.25 4.76.66 2.57 1.04 5.29 1.04 7.95-.04 36.38-.08 72.76-.29 109.15-.39 68.28-.87 136.56-1.33 204.84-.04 6.04-.3 12.09-.2 18.13.04 2.43-.82 3.25-3.12 3.66-6.14 1.1-6.33 1.26-7.98-4.94-.88-3.29-1.2-6.82-1.22-10.25-.26-40.74-.41-81.47-.6-122.21.01-1.11-.1-2.2-.18-3.57z"/><path d="m229.5 81.58c-7.76 12.1-19.25 18.34-30.78 24.68-9.2 5.06-18.04 10.78-27.03 16.2-3.62 2.18-7.35 3.57-11.76 2.88-2.44-.38-3.74-1.77-4.05-3.79-.36-2.32-.85-4.96 1.85-6.6 9.56-5.79 19.07-11.66 28.65-17.4 7.17-4.3 14.82-7.91 21.54-12.82 7.67-5.61 11.74-13.8 12.77-24.09-4.26 0-8.26.03-12.25-.01-13.43-.13-26.86-.13-40.29-.54-3.83-.12-7.67-1.3-11.4-2.35-2.64-.74-3.96-2.85-3.65-5.69.29-2.73.93-4.85 4.22-5.94 5.07-1.67 10.08-2.46 15.42-2.44 37.17.11 74.34 0 111.52.12 6.02.02 12.06.65 18.05 1.36 3.64.44 7.02 1.88 8.14 5.96.74 2.72.4 4.75-2.73 6.17-8.87 4.04-18.19 4.24-27.62 3.98-12.64-.36-25.27-.72-37.91-1.07-1.21-.03-2.41 0-4.05 0 .75 5.86.11 11.52 6.49 14.82 9.71 5.02 18.95 10.96 28.73 15.82 11.65 5.8 15.33 11.67 14.66 24.65-.35 6.68-2.73 11.9-8.76 14.98-7.24 3.7-14.59 7.18-21.93 10.67-3.63 1.73-7.41 3.13-11.01 4.92-12.16 6.04-16.53 17.17-17.29 29.49-1.19 19.19-1.44 38.45-1.68 57.69-.52 41.18-.76 82.36-1.17 123.54-.03 3.12-.24 6.29-.79 9.35-.79 4.35-5.88 6.69-9.71 4.54-.78-.44-1.22-1.76-1.49-2.76-2.93-10.82-3-21.87-2.76-32.98.59-27.41.98-54.82 1.51-82.24.32-16.78.44-33.57 1.24-50.33.61-12.83 1.81-25.66 3.39-38.41.65-5.23 2.91-10.28 4.56-15.37.29-.89 1.04-1.71 1.76-2.36 6.89-6.15 14.56-10.99 23.08-14.71 8.07-3.52 15.92-7.62 23.67-11.82 4.73-2.56 5.5-5.61 3.36-10.42-.46-1.03-1.36-2.1-2.33-2.62-4.65-2.44-9.27-4.98-14.12-6.95-10.31-4.17-20.6-8.28-28.05-18.11z"/><path d="m273.65 165.96c-.38 25.93-.85 51.86-1.1 77.79-.18 19.34 3.3 38.27 6.98 57.16 3.45 17.68 6.59 35.4 6.55 53.51-.01 3.34-1.34 5.01-4.67 5.62-2.57.47-5.38-1.22-6-4.04-4.11-18.64-8.75-37.2-12.02-55.99-4.49-25.8-7.04-51.87-6.16-78.13.4-11.95 1.51-23.88 1.99-35.83.26-6.58-.45-13.2-.11-19.77.25-4.75 1.17-9.54 2.45-14.13.59-2.1 2.58-5.03 4.26-5.27 1.78-.26 4.49 1.82 5.87 3.6 3.18 4.11 3.01 9.21 2.95 14.15-.01.45 0 .89 0 1.34-.32-.01-.65-.01-.99-.01z"/><path d="m186.53 207.94c.36 7.94 1.2 15.89.96 23.81-.29 9.46-1.29 18.92-2.36 28.34-2.05 18.11-3.81 36.29-6.76 54.26-2.31 14.08-6.21 27.9-9.46 41.82-.56 2.38-4.32 4.72-6.72 4.44-3.02-.35-4.39-2.31-4.14-5.07.74-8.43 1.12-16.95 2.68-25.25 7.54-40.21 13.38-80.58 12.29-121.62-.29-11.15-1.84-22.27-2.96-33.39-.8-7.86-.77-15.67 1.29-23.31.44-1.61 1.9-3.48 3.36-4.09.95-.4 3.07.97 4.13 2.06 3.69 3.8 4.96 8.81 5.46 13.8.98 9.9 1.53 19.84 2.06 29.78.25 4.79.04 9.61.04 14.42z"/></g></svg>