<svg enable-background="new 0 0 400 400" viewBox="0 0 400 400" xmlns="http://www.w3.org/2000/svg"><path d="m361.2 9.6.8-1c.9.7 1.9 1.4 2.9 2.3l-.9 1.1c-1-1-2-1.8-2.8-2.4zm.5 10.6c.9-2.1 1.6-4.3 2.3-6.7.4.2.8.4 1.3.6-.7 2.1-1.5 4.3-2.2 6.6zm.4-15.2.9-.9c1 .8 2 1.6 2.8 2.4l-1 1c-.9-.9-1.8-1.7-2.7-2.5zm12.5-1.2h1.2v1.4h2.7v1.1h-2.7v2.7h-1.2v-.6h-1.8v1.3h4.9v3.8h-1.2v-.5h-3.7c0 .4-.1.9-.1 1.2h5.1v1h-5.2c0 .5-.1.9-.2 1.2h6v1h-5.2c1.1 1.3 2.9 2 5.5 2.2-.4.4-.7.8-.9 1.3-2.9-.5-4.8-1.6-5.7-3.5h-.1c-.8 1.7-2.7 2.9-5.9 3.6-.2-.4-.6-.8-.9-1.1 2.8-.6 4.6-1.4 5.4-2.5h-4.8v-1h5.3c.1-.3.2-.7.2-1.2h-4.9v-1h5c0-.4 0-.8.1-1.2h-3.5v.5h-1.2v-3.8h4.9v-1.3h-1.8v.5h-1.2v-2.7h-2.7v-1h2.6v-1.4h1.2v1.4h4.7v-1.4zm-6.6 8.3h3.6c0-.4 0-.9 0-1.4h-3.6zm1.9-4.6h4.7v-1.3h-4.7zm6.6 3.2h-3.7v1.4h3.7z" fill="#fbfcfa"/><path d="m385.3 3.8h1.3v2.2h2.8v-2.2h1.3v2.2h4.1v9.1h1.7v1.3h-16.9v-1.3h1.7v-9.1h4.1v-2.2zm.4 13.1.7 1.2c-1.8.9-3.8 1.9-6 2.9-.2-.4-.5-.8-.8-1.3 2.3-1 4.3-1.9 6.1-2.8zm-3.1-6.4h2.8v-3.2h-2.8zm0 4.6h2.8v-3.3h-2.8zm4-4.6h2.8v-3.2h-2.8zm0 4.6h2.8v-3.3h-2.8zm3.7 1.9c2.1.9 4.1 1.8 6.1 2.7l-.7 1.3c-2.2-1.1-4.2-2-6.1-2.9zm3.2-9.7h-2.8v3.2h2.8zm-2.8 7.8h2.8v-3.3h-2.8z" fill="#fbfcfa"/><g fill="#010102"><path d="m220.18 230.6c-17.71-.59-35.03-1.09-52.35-1.84-3.05-.13-6.12-1.09-9.06-2.03-2.27-.72-3.3-2.65-2.86-5.07.42-2.27 1.2-3.99 3.98-4.67 10.58-2.59 21.3-2.16 32.04-2.03 8.8.1 17.61-.24 26.74-.39-1.11-9.85-2.14-19.02-3.22-28.61-9.98 0-19.68.07-29.38-.03-5.79-.06-11.65.12-17.35-.72-5.48-.81-8.16-4.9-8-9.98.06-1.93.68-2.86 2.73-3.42 9.35-2.55 18.86-1.81 28.35-1.85 6.57-.03 13.14-.4 20.23-.63-1.67-7.17-3.2-13.77-4.74-20.36-1.02-4.35-2.17-8.68-3.05-13.06-.4-1.97-1.24-2.34-3.17-2.31-10.95.17-21.91.45-32.83-.02-3.29-.14-6.98-1.93-9.59-4.06-3.84-3.13-2.93-6.63 1.56-8.56 6.3-2.7 12.86-2.34 19.47-1.58 5.77.66 11.55 1.34 17.6-.68-1.43-4.92-2.8-9.7-4.22-14.47-2.83-9.53-5.76-19.04-8.49-28.6-.62-2.19-1.55-3.04-3.89-3.04-5.92 0-11.85-.33-17.77-.49-6.83-.18-10.75-6.26-7.08-12.06 1.32-2.08 5.3-3.4 8.1-3.46 15.1-.33 30.22-.16 45.33-.16 18.13 0 36.27.05 54.4-.02 9.17-.03 18.34-.44 27.51-.33 2.93.03 5.95.88 8.72 1.9 1.4.52 2.62 2.1 3.46 3.48 2.67 4.45 1.92 6.37-2.86 8.14-4.95 1.83-10.01 1.86-15.22 1.43-3.75-.31-7.57-.03-11.33.3-.94.08-2.27 1.16-2.58 2.07-4.89 14.39-9.65 28.82-14.42 43.25-.09.29-.01.63-.01 1.68 6.32.16 12.64.35 18.95.48 4.68.1 9.4-.23 14.04.27 4.65.5 8.15 3.15 9.3 7.95.22.9-.52 2.61-1.33 3.09-5.24 3.14-11.07 3.85-17.1 3.78-9.72-.12-19.43-.03-29.68-.03-2.1 11.28-4.29 23.06-6.57 35.34 4.6.27 8.7.66 12.8.72 9.27.12 18.55-.2 27.81.2 6.09.26 9.6 3.34 10.51 7.69.55 2.62-.05 4.37-2.7 5.64-5.77 2.77-11.83 2.92-18.03 2.85-10.93-.12-21.87-.03-33.19-.03-.8 9.27-1.6 18.44-2.45 28.24 5.83 0 11.17-.07 16.51.01 11.74.18 23.49.26 35.23.76 3.72.16 7.42 1.41 11.06 2.41 2.27.62 3.31 2.39 3.39 4.83.08 2.34-1.21 3.28-3.11 4.15-7 3.23-14.34 3.88-21.93 3.65-13.17-.41-26.35-.57-39.53-.81-.65-.01-1.3.17-2.59.36 0 6.37.05 12.72-.01 19.07-.24 29.21-.53 58.41-.77 87.62-.07 8.5.14 17-.05 25.5-.12 5.31-2.47 8.35-6.26 9.2-2.33.53-4.03.01-5.39-2.17-2.86-4.6-3.21-9.65-3.3-14.84-.65-40.27-1.34-80.54-2.03-120.8-.01-.88-.19-1.75-.33-2.85zm-19.24-158.54c9.09 32.64 18.12 65.1 27.28 97.99.63-.86 1.62-1.71 1.94-2.76.82-2.66 1.34-5.42 1.98-8.14 5.6-23.71 11.16-47.43 16.83-71.11 1.27-5.3 2.95-10.49 4.51-15.98-17.78 0-35.21 0-52.54 0z"/><path d="m112.2 35.18c3.42 5.51 5.21 11.46 5.65 17.77.71 10.27 1.28 20.54 1.75 30.82.1 2.12.67 2.98 2.85 3.05 3.35.1 6.7.39 10.03.81 2.01.25 2.66-.41 3.06-2.39 1.98-9.69 1.56-19.37.17-29.05-1.33-9.27-.86-18.32 3.13-26.93.72-1.55 2.1-3.91 3.23-3.94 2.96-.08 5.83 1.42 6.73 4.55.8 2.75 1.22 5.71 1.21 8.58-.11 33.8-.32 67.6-.52 101.4-.27 46.56-.54 93.12-.83 139.68-.18 30.11-.44 60.21-.5 90.32-.01 3.35-1.59 4.71-4.33 5.25-3.18.63-5.25-.87-5.94-4.08-3.36-15.55-3.2-31.33-3.07-47.12.21-25.73.3-51.46.41-77.19.01-1.88-.22-3.75-.36-5.96-6.9.36-13.57.66-20.21 1.15-.71.05-1.81 1.23-1.93 2-2.8 19.14-5.35 38.32-8.28 57.44-.97 6.35-2.57 12.66-4.46 18.81-1.07 3.49-3.7 4.31-6.98 3.43-2.66-.72-3.86-1.81-3.47-5.13 3.1-26.78 6.13-53.57 8.68-80.41.66-6.94-.37-14.06-.78-21.09-.5-8.49-1.37-16.98 1.08-25.33.47-1.6 1.01-3.19 1.63-4.75 1.42-3.56 5.11-4.12 7.42-1.12 2.73 3.56 4.2 7.58 4.33 12.1.23 8.16.48 16.33.76 24.49.05 1.54.28 3.08.46 5.03h21.9c.36-41.27.71-82.82 1.07-124.74-4.9-.6-9.62-1.17-14.67-1.79-.71 7.3-1.33 14.4-2.1 21.49-1.49 13.67-2.98 27.34-4.67 40.99-.48 3.88-2.89 5.42-6.68 4.54-1.34-.31-2.94-1.59-3.51-2.84-2.78-6.05-2.39-12.46-1.25-18.78 3.13-17.3 1.84-34.81 2.72-52.21.67-13.3-1.68-26.3-2.8-39.42-.39-4.62.44-9.33.66-14 .13-2.89 1.49-4.45 4.45-4.65 1.29-.1 2.58-.5 3.96-.78z"/></g></svg>