<svg enable-background="new 0 0 400 400" viewBox="0 0 400 400" xmlns="http://www.w3.org/2000/svg"><path d="m361.2 9.6.8-1c.9.7 1.9 1.4 2.9 2.3l-.9 1.1c-1-1-2-1.8-2.8-2.4zm.5 10.6c.9-2.1 1.6-4.3 2.3-6.7.4.2.8.4 1.3.6-.7 2.1-1.5 4.3-2.2 6.6zm.4-15.2.9-.9c1 .8 2 1.6 2.8 2.4l-1 1c-.9-.9-1.8-1.7-2.7-2.5zm12.5-1.2h1.2v1.4h2.7v1.1h-2.7v2.7h-1.2v-.6h-1.8v1.3h4.9v3.8h-1.2v-.5h-3.7c0 .4-.1.9-.1 1.2h5.1v1h-5.2c0 .5-.1.9-.2 1.2h6v1h-5.2c1.1 1.3 2.9 2 5.5 2.2-.4.4-.7.8-.9 1.3-2.9-.5-4.8-1.6-5.7-3.5h-.1c-.8 1.7-2.7 2.9-5.9 3.6-.2-.4-.6-.8-.9-1.1 2.8-.6 4.6-1.4 5.4-2.5h-4.8v-1h5.3c.1-.3.2-.7.2-1.2h-4.9v-1h5c0-.4 0-.8.1-1.2h-3.5v.5h-1.2v-3.8h4.9v-1.3h-1.8v.5h-1.2v-2.7h-2.7v-1h2.6v-1.4h1.2v1.4h4.7v-1.4zm-6.6 8.3h3.6c0-.4 0-.9 0-1.4h-3.6zm1.9-4.6h4.7v-1.3h-4.7zm6.6 3.2h-3.7v1.4h3.7z" fill="#fbfcfa"/><path d="m385.3 3.8h1.3v2.2h2.8v-2.2h1.3v2.2h4.1v9.1h1.7v1.3h-16.9v-1.3h1.7v-9.1h4.1v-2.2zm.4 13.1.7 1.2c-1.8.9-3.8 1.9-6 2.9-.2-.4-.5-.8-.8-1.3 2.3-1 4.3-1.9 6.1-2.8zm-3.1-6.4h2.8v-3.2h-2.8zm0 4.6h2.8v-3.3h-2.8zm4-4.6h2.8v-3.2h-2.8zm0 4.6h2.8v-3.3h-2.8zm3.7 1.9c2.1.9 4.1 1.8 6.1 2.7l-.7 1.3c-2.2-1.1-4.2-2-6.1-2.9zm3.2-9.7h-2.8v3.2h2.8zm-2.8 7.8h2.8v-3.3h-2.8z" fill="#fbfcfa"/><g fill="#010102"><path d="m244.94 216.69c-.36 42.31-.71 84.27-1.07 126.77 1.43 0 2.71-.02 4 0 23.83.42 47.66.79 71.48 1.31 3.1.07 6.26.59 9.24 1.44 1.93.55 3.96 1.74 5.29 3.22 3.37 3.78 2.7 7.08-1.52 9.76-8.3 5.28-17.53 6.56-27.06 6.02-21.56-1.22-43.09-2.57-64.72-2.37-36.5.34-73-.06-109.5.17-14.2.09-28.39 1.17-42.59 1.56-8.7.24-17.1-1.51-25.24-4.66-2.49-.97-4.15-2.59-4.17-5.08-.02-2.78.64-5.47 3.72-6.92 6.54-3.07 13.53-4.02 20.58-4.06 13.31-.07 26.62.28 39.92.43 6.71.08 13.43.03 20.14.2 2.54.07 2.56-1.34 2.56-3.19.07-16.24.17-32.47.3-48.71.18-23.06.33-46.13.68-69.19.05-3.06-.68-4.32-3.81-4.69-6.21-.74-12.35-2.11-18.57-2.79-18.82-2.06-30.22-12.75-35.55-30.39-3.54-11.73-3.26-23.84-3.14-35.95.13-13.5 5.62-25.41 10.19-37.63.4-1.07 1.35-2.04 2.24-2.82 11.25-9.76 24.45-14.97 39.11-16.97 31.85-4.35 63.83-4.07 95.82-2.53 13.93.67 27.53 3.65 40.27 9.47 9.03 4.12 14.97 11.55 19.03 20.45 6.21 13.62 6.87 28.12 6.31 42.74-.42 10.81-2.49 21.27-6.71 31.32-4.09 9.75-12.14 14.83-21.16 18.95-6.79 3.1-14.1 3.21-21.34 3.79-1.4.13-2.84.22-4.73.35zm-59.96-12.25c7.37 0 14.79.48 22.11-.1 14.93-1.19 29.79-3.15 44.71-4.39 8.44-.7 16.03-3.02 22.26-8.85 1.4-1.31 2.68-3.07 3.24-4.87 4.6-14.66 6.6-29.72 5.16-45.03-1.44-15.37-8.76-26.54-24.32-31.04-3-.87-5.98-1.87-9.02-2.57-14.74-3.41-29.81-3.11-44.75-3.07-20.23.05-40.46 1.1-60.68 1.89-7.68.3-15.02 2.29-21.81 5.97-6.57 3.57-12.29 7.78-15.02 15.41-4.35 12.15-5.67 24.58-4.73 37.31.65 8.82 3.03 17.14 7.96 24.61 1.77 2.67 3.82 4.88 7.07 5.77 4.85 1.33 9.6 3.03 14.48 4.17 17.56 4.09 35.42 4.89 53.34 4.79zm-21.58 15.99c.35 41.53.69 82.57 1.03 123.97 21.16-.35 41.99-.69 62.99-1.03-.71-41.67-1.41-82.92-2.13-124.86-20.68.64-40.99 1.27-61.89 1.92z"/><path d="m311.55 49.7c-10.26 5.58-21.2 6.26-32.37 6.16-50.14-.48-100.29-.87-150.43-1.17-10.06-.06-20.15.87-30.19.48-7.65-.29-15.25-1.97-22.88-2.98-2-.26-3.04-1.18-2.83-3.27.02-.22-.08-.44-.08-.66 0-1.94-.79-4.82.17-5.63 2.09-1.77 5.05-2.58 7.71-3.61.78-.3 1.77-.05 2.67-.05 57.1 0 114.21.06 171.31-.05 11.96-.02 23.92-.88 35.89-.96 4.07-.03 8.26.76 12.18 1.89 5.19 1.49 7.74 4.69 8.85 9.85z"/></g></svg>