<svg enable-background="new 0 0 400 400" viewBox="0 0 400 400" xmlns="http://www.w3.org/2000/svg"><path d="m361.2 9.6.8-1c.9.7 1.9 1.4 2.9 2.3l-.9 1.1c-1-1-2-1.8-2.8-2.4zm.5 10.6c.9-2.1 1.6-4.3 2.3-6.7.4.2.8.4 1.3.6-.7 2.1-1.5 4.3-2.2 6.6zm.4-15.2.9-.9c1 .8 2 1.6 2.8 2.4l-1 1c-.9-.9-1.8-1.7-2.7-2.5zm12.5-1.2h1.2v1.4h2.7v1.1h-2.7v2.7h-1.2v-.6h-1.8v1.3h4.9v3.8h-1.2v-.5h-3.7c0 .4-.1.9-.1 1.2h5.1v1h-5.2c0 .5-.1.9-.2 1.2h6v1h-5.2c1.1 1.3 2.9 2 5.5 2.2-.4.4-.7.8-.9 1.3-2.9-.5-4.8-1.6-5.7-3.5h-.1c-.8 1.7-2.7 2.9-5.9 3.6-.2-.4-.6-.8-.9-1.1 2.8-.6 4.6-1.4 5.4-2.5h-4.8v-1h5.3c.1-.3.2-.7.2-1.2h-4.9v-1h5c0-.4 0-.8.1-1.2h-3.5v.5h-1.2v-3.8h4.9v-1.3h-1.8v.5h-1.2v-2.7h-2.7v-1h2.6v-1.4h1.2v1.4h4.7v-1.4zm-6.6 8.3h3.6c0-.4 0-.9 0-1.4h-3.6zm1.9-4.6h4.7v-1.3h-4.7zm6.6 3.2h-3.7v1.4h3.7z" fill="#fbfcfa"/><path d="m385.3 3.8h1.3v2.2h2.8v-2.2h1.3v2.2h4.1v9.1h1.7v1.3h-16.9v-1.3h1.7v-9.1h4.1v-2.2zm.4 13.1.7 1.2c-1.8.9-3.8 1.9-6 2.9-.2-.4-.5-.8-.8-1.3 2.3-1 4.3-1.9 6.1-2.8zm-3.1-6.4h2.8v-3.2h-2.8zm0 4.6h2.8v-3.3h-2.8zm4-4.6h2.8v-3.2h-2.8zm0 4.6h2.8v-3.3h-2.8zm3.7 1.9c2.1.9 4.1 1.8 6.1 2.7l-.7 1.3c-2.2-1.1-4.2-2-6.1-2.9zm3.2-9.7h-2.8v3.2h2.8zm-2.8 7.8h2.8v-3.3h-2.8z" fill="#fbfcfa"/><g fill="#010102"><path d="m202.43 214.14c0-9.16 0-17.98 0-26.35-6.78 0-13.44.13-20.09-.04-6.25-.16-12.53-.26-18.71-1.1-5.08-.69-7.32-3.69-7.02-7.47.17-2.2 1.05-3.56 3.45-3.66 7.59-.32 15.18-.72 22.77-1.02 4.91-.2 9.83-.24 14.74-.44 1.72-.07 3.27-.39 3.41-2.75.43-7.14 1.02-14.28 1.59-22.07-5.24-.62-10.4-1.29-15.56-1.84-8.01-.85-13.88-4.77-15.99-12.62-1.96-7.29-3.63-14.79-4.22-22.3-1.18-15.09-.65-30.2 2.25-45.13.71-3.68 3.32-5.73 6.96-5.37.71.07 1.72 1.07 1.92 1.82 1.59 5.78 3.79 11.53 4.31 17.43.73 8.22.02 16.55.21 24.83.17 7.49.63 14.98 1.2 22.45.1 1.32 1.11 2.92 2.19 3.75 4.72 3.64 10.25 3 16.21 2.73 0-25.23 0-50.26 0-76.13-6.28-.17-12.91-.35-19.54-.52-6.36-.17-12.75-.04-19.08-.58-4.01-.34-7.54-2.25-9.02-6.48-.7-2-.46-3.33 2.01-4.33 5.58-2.26 11.18-3.28 17.25-3.25 35.15.18 70.31.04 105.46.12 9.28.02 18.57.14 27.82.71 5.01.31 7.63 3.1 8.3 6.98.36 2.05-.19 3.24-2.29 4.11-8.02 3.33-16.34 3.26-24.76 2.71-6.91-.46-13.84-.82-20.76-1.05-1.95-.07-3.93.48-6.1.77-.58 25.32-1.16 50.35-1.74 75.36 5.94 0 11.59.1 17.23-.12.77-.03 1.94-1.59 2.14-2.6 1.17-5.89 2.85-11.81 2.95-17.74.21-12.52-.51-25.05-.72-37.58-.04-2.32.36-4.7.92-6.96.36-1.46 1.12-2.98 2.14-4.08 3.44-3.71 6.7-3.17 7.71 1.62 1.56 7.4 3.13 14.93 3.42 22.45.63 16.13-.56 32.18-4.72 47.91-1.15 4.34-3.37 7.25-7.67 8.29-5.08 1.23-10.22 2.26-15.36 3.27-2.18.43-4.42.57-6.99.88-.35 8.1-.7 16.1-1.07 24.48 5.87 0 11.43-.11 16.98.03 7.26.18 14.51.49 21.76.88 1.52.08 3.05.68 4.51 1.2 2.44.86 4.71 5.56 3.73 7.9-.28.67-1.26 1.14-2.02 1.49-6.73 3.14-13.82 3.3-21.03 2.54-5.78-.6-11.57-1.17-17.37-1.58-1.74-.12-3.52.31-5.51.51-.35 9.39-.69 18.53-1.04 27.96 6.85 1.42 13.43 3.24 20.13 4.06 7.87.96 12.03 5.96 14.11 12.54 2.24 7.09 3.51 14.54 4.63 21.92 3.47 22.83 5.16 45.82 4.64 68.92-.14 6.35-.96 12.72-1.88 19.02-.25 1.73-1.63 3.66-3.06 4.77-2.76 2.13-5.89.99-7.1-2.28-3.65-9.92-4.25-20.3-4.43-30.73-.25-14.43-.14-28.88-.81-43.29-.42-8.91-2.12-17.75-3.03-26.65-.83-8.09-5.73-11.99-13.17-13.45-2.83-.55-5.71-.84-9.25-1.35 0 7.57.05 14.7-.01 21.83-.21 23.73-.49 47.46-.69 71.19-.07 8.5.15 17-.05 25.49-.06 2.61-.82 5.29-1.71 7.78-.8 2.23-2.84 3.14-5.2 2.69-2.23-.43-3.93-1.12-4.62-3.96-2.83-11.65-3.38-23.43-3-35.33.36-11.41.8-22.82.81-34.23.07-73.33.04-146.66.04-219.99 0-1.55 0-3.09 0-4.86-9.61 0-18.85 0-28.45 0-.07 1.04-.2 2.11-.2 3.17-.23 53.17-.47 106.34-.68 159.52-.16 41.08-.27 82.16-.51 123.25-.02 2.97-.41 6.12-1.49 8.83-.63 1.58-2.83 3.07-4.6 3.51-2.17.54-4.59-.36-5.16-3.06-.93-4.44-2.31-8.93-2.32-13.41-.14-35.71-.01-71.42.03-107.13 0-3.21-1.44-4.93-4.74-4.53-3.95.48-7.86 1.6-11.64 2.87-1.07.36-1.82 2.12-2.4 3.38-5.99 12.96-7.75 26.78-7.89 40.86-.13 13.66-.1 27.32 0 40.97.06 6.93.65 13.86.62 20.79-.02 5.56-2.71 8.49-7.85 9.83-1.91.5-3.28.4-3.83-1.79-.82-3.23-2.44-6.47-2.39-9.69.43-26.17.61-52.37 2.1-78.5.58-10.1 4.28-20.03 6.71-30 .28-1.16 1.35-2.28 2.31-3.11 7.35-6.31 16.04-9.09 25.59-9.49.98-.07 1.97-.23 3.28-.38z"/><path d="m111.27 87.77c4.75 0 9.11.16 13.44-.13.91-.06 2.22-1.59 2.5-2.66 2.65-10.04 2.07-20.17.58-30.31-1.38-9.39-.18-18.48 3.06-27.38.73-2.01 1.68-2.53 3.71-1.97 3.71 1.02 5.79 3.39 6.06 7.13.27 3.78.28 7.59.27 11.38-.03 35.49-.03 70.97-.16 106.46-.22 57.31-.53 114.62-.82 171.92-.08 15.78-.31 31.56-.27 47.34.01 2.86-.84 3.8-3.62 4.23-6.03.93-6.18 1.16-7.66-4.82-.77-3.11-1.07-6.4-1.07-9.62-.05-37.84 0-75.67.02-113.51 0-1.2 0-2.4 0-3.8-7.67 0-15.01 0-22.74 0-1.12 7.43-2.26 14.9-3.38 22.38-2.3 15.37-4.52 30.76-6.93 46.11-.46 2.96-1.49 5.85-2.48 8.69-.82 2.35-2.44 3.94-5.16 4.12-4.3.29-6.31-.77-6.75-5.02-.46-4.38-.71-9.02.23-13.26 4.61-20.67 8.37-41.48 9.2-62.65.61-15.65.36-31.33.49-47 .01-.67 0-1.34 0-2.01 0-7.42 0-7.42 7.85-9.26 2.97 4.4 4.56 9.3 4.88 14.66.56 9.36 1.16 18.72 1.78 28.55h22.41c0-41.2 0-82.78 0-124.78-4.97-.53-10.36-1.1-16.15-1.71-.9 7.94-1.79 15.68-2.65 23.42-1.16 10.34-2.17 20.7-3.53 31.01-.37 2.81-1.59 5.57-2.77 8.19-1.09 2.44-3.12 3.67-5.99 3.26-2.75-.39-4.42-2.09-4.48-4.6-.15-5.88-.53-11.86.35-17.62 2.5-16.37 5.33-32.66 5.56-49.29.21-14.78-2.31-29.13-5.45-43.49-1.14-5.2-.49-10.83-.41-16.26.05-3.34 3.18-2.38 5.08-3.08 1.79-.66 2.72.13 3.63 1.8 5.4 9.95 7.14 20.87 8.62 31.85.97 7.07 1.8 14.17 2.75 21.73z"/></g></svg>