<svg enable-background="new 0 0 400 400" viewBox="0 0 400 400" xmlns="http://www.w3.org/2000/svg"><path d="m361.2 9.6.8-1c.9.7 1.9 1.4 2.9 2.3l-.9 1.1c-1-1-2-1.8-2.8-2.4zm.5 10.6c.9-2.1 1.6-4.3 2.3-6.7.4.2.8.4 1.3.6-.7 2.1-1.5 4.3-2.2 6.6zm.4-15.2.9-.9c1 .8 2 1.6 2.8 2.4l-1 1c-.9-.9-1.8-1.7-2.7-2.5zm12.5-1.2h1.2v1.4h2.7v1.1h-2.7v2.7h-1.2v-.6h-1.8v1.3h4.9v3.8h-1.2v-.5h-3.7c0 .4-.1.9-.1 1.2h5.1v1h-5.2c0 .5-.1.9-.2 1.2h6v1h-5.2c1.1 1.3 2.9 2 5.5 2.2-.4.4-.7.8-.9 1.3-2.9-.5-4.8-1.6-5.7-3.5h-.1c-.8 1.7-2.7 2.9-5.9 3.6-.2-.4-.6-.8-.9-1.1 2.8-.6 4.6-1.4 5.4-2.5h-4.8v-1h5.3c.1-.3.2-.7.2-1.2h-4.9v-1h5c0-.4 0-.8.1-1.2h-3.5v.5h-1.2v-3.8h4.9v-1.3h-1.8v.5h-1.2v-2.7h-2.7v-1h2.6v-1.4h1.2v1.4h4.7v-1.4zm-6.6 8.3h3.6c0-.4 0-.9 0-1.4h-3.6zm1.9-4.6h4.7v-1.3h-4.7zm6.6 3.2h-3.7v1.4h3.7z" fill="#fbfcfa"/><path d="m385.3 3.8h1.3v2.2h2.8v-2.2h1.3v2.2h4.1v9.1h1.7v1.3h-16.9v-1.3h1.7v-9.1h4.1v-2.2zm.4 13.1.7 1.2c-1.8.9-3.8 1.9-6 2.9-.2-.4-.5-.8-.8-1.3 2.3-1 4.3-1.9 6.1-2.8zm-3.1-6.4h2.8v-3.2h-2.8zm0 4.6h2.8v-3.3h-2.8zm4-4.6h2.8v-3.2h-2.8zm0 4.6h2.8v-3.3h-2.8zm3.7 1.9c2.1.9 4.1 1.8 6.1 2.7l-.7 1.3c-2.2-1.1-4.2-2-6.1-2.9zm3.2-9.7h-2.8v3.2h2.8zm-2.8 7.8h2.8v-3.3h-2.8z" fill="#fbfcfa"/><g fill="#010102"><path d="m193.18 243.65c-13.3 20.47-31.51 34.67-49.53 49.08-5.76 4.61-11.19 9.63-16.91 14.29-3.63 2.96-7.7 4.92-12.66 4.3-1.76-.22-2.4-.84-2.58-2.69-.45-4.75.7-8.18 4.79-11.43 15.52-12.31 30.79-24.93 45.87-37.78 11.14-9.49 20.11-20.7 24.13-35.16.68-2.46 1.04-5.01 1.62-7.89-5.41-1.8-10.55-4.11-15.95-5.19-9.78-1.96-13.14-8.86-14.38-17.41-1.4-9.7.08-19.15 3.5-28.33 1.29-3.48 4.34-1.85 6.57-2.44.49-.13 1.81 1.56 2.23 2.61 2.6 6.67 3.73 13.64 2.97 20.74-1.15 10.8 4.13 15.5 16.04 15.7 1.14-10.92 2.29-21.88 3.48-33.26-2.99-.83-5.92-1.91-8.94-2.4-3.83-.62-6.42-2.87-8.81-5.6-6.51-7.42-10-16.24-10.85-25.88-1.7-19.25.37-38.25 6.09-56.7 1.88-6.06 7.1-9.68 12.79-12.33.1-.05.22-.05.33-.08 8.83-2.37 8.6-2.37 8.59-11.69-.01-7.57.48-15.14 1.05-22.69.16-2.14 1.35-4.2 2.04-6.23 6.84.88 10.62 5.1 10.5 12.21-.08 4.9-.94 9.78-1.31 14.69-.17 2.33-.13 4.7.03 7.03.34 5.07 1.3 7 6.11 7.21 13.11.57 17.53 9.98 21.53 19.95s4.66 20.44 3.88 31.03c-.95 12.9-3.48 25.42-8.54 37.42-1.88 4.46-5.19 6.86-9.23 8.67-2.75 1.24-5.68 2.06-8.41 3.33-.93.43-2.07 1.58-2.16 2.49-1.01 10.89-1.84 21.8-2.76 33.17 5.62.68 10.92 1.27 16.21 1.97 2.87.38 5.83.59 8.56 1.47 3.97 1.28 5.45 6.38 3.06 9.71-.38.53-1.25.95-1.92.98-6.1.29-12.23.86-18.31.58-4.94-.23-7.21.36-9.78 4.62-.4.67-.75 1.38-1.1 2.08-3.21 6.47-3.14 6.4 2.25 11.17 8.09 7.16 14.83 15.36 14.47 26.82-.17 5.46-1.6 11.14-3.64 16.24-4.1 10.24-9.01 20.16-13.63 30.2-.36.79-1.03 1.46-1.61 2.13-9.17 10.71-18.37 21.4-27.52 32.13-8.19 9.6-17.88 17.17-29.52 22.17-3.64 1.56-6.66-.35-5.89-4.26.56-2.87 2.05-5.98 4.06-8.07 15.61-16.18 31.66-31.95 47.13-48.26 7.62-8.04 12.97-17.67 15.01-28.79 1.48-8.12.86-16.14-2.68-23.62-1.31-2.82-3.87-5.03-6.27-8.01zm27.23-133.05c-.44-5.32-.43-10.17-1.3-14.85-1.95-10.57-7.23-15.43-17.87-17.06-2.64-.4-5.33-.65-8-.74-6.13-.21-9.11 1.86-11.14 7.69-1.22 3.48-2.43 6.97-3.4 10.52-1.39 5.09-1.91 10.23-.06 15.51 13.83-.35 27.45-.7 41.77-1.07zm-41.89 15.81c-.67 8.04.51 15.29 4.63 21.87.84 1.35 2.13 2.76 3.54 3.35 5.55 2.33 11.41 3.33 17.38 2.3 4.24-.73 8.53-2.31 10.44-6.43 2.05-4.42 3.3-9.23 4.53-13.97.42-1.6.01-3.58-.57-5.2-.3-.86-1.77-1.84-2.71-1.84-12.29-.12-24.58-.08-37.24-.08z"/><path d="m293.62 221.81c9.56-8.51 11.27-19.17 8.79-30.79-2.8-13.1-.13-11.02-13.85-15.68-5.73-1.94-12.01-2.45-18.09-3.08-9.12-.95-18.3-1.27-27.42-2.21-2.55-.26-5.14-1.49-7.39-2.81-2.41-1.41-2.84-4.22-1.99-6.56.45-1.23 2.52-2.48 3.98-2.63 4.97-.5 10-.79 15-.66 9.75.25 9.74.39 9.75-9.09.03-32.35.06-64.71.11-97.06.01-6.29 1.65-12.1 5.19-17.45 3.97.93 6.6 3.42 7.55 7 1.22 4.6 2.38 9.39 2.43 14.11.14 12.86-.22 25.74-.62 38.6-.09 2.89 1.06 4.44 3.55 4.51 6.1.16 12.22.03 18.32-.19 3.89-.14 7.78-.92 11.66-.88 1.99.02 4.54.69 5.83 2.03 1.96 2.05 3.45 4.82 4.22 7.54.19.66-3.11 3.06-5.03 3.41-5.67 1.02-11.45 1.7-17.2 1.96-6.9.32-13.83.08-21.52.08 0 5.13.04 9.78-.01 14.43-.11 9.63-.18 19.25-.47 28.87-.07 2.43.76 3.37 3.02 3.78 4.5.83 8.94 2.11 13.46 2.75 17.36 2.45 24.95 16.13 25.83 29.75.67 10.54-.83 20.93-6.6 30-2.77 4.35-6.61 8.14-10.46 11.64-3.49 3.16-4.54 6.23-3.81 11.03 4.79 31.4 9.17 62.86 13.75 94.29 1.03 7.07 2.47 14.08 3.45 21.16.34 2.49.37 5.26-.37 7.61-.68 2.18-2.22 4.45-4.03 5.85-3.28 2.55-5.57 2.13-7.15-1.66-1.86-4.46-3.24-9.26-3.97-14.05-3.88-25.54-7.55-51.12-11.19-76.69-1.39-9.74-2.51-19.52-3.76-29.29-.15-1.2-.37-2.38-.56-3.61-6.87 2.01-13.41 4.2-20.09 5.79-6.84 1.63-13.8 2.77-20.75 3.91-2.05.34-4.27.21-6.34-.14-4.03-.67-6.54-4.47-5.62-8.46.19-.83 1.24-1.83 2.09-2.07 13.1-3.75 26.24-7.39 39.36-11.07 1.5-.42 3.02-.86 4.46-1.45 4.19-1.69 4.75-3.85 3.23-8.16-1.42-4.03-4.11-6.17-8.01-7.22-6.36-1.72-12.74-3.36-19.06-5.23-2.32-.69-4.61-1.69-6.67-2.96-2.36-1.45-2.66-3.91-2.32-6.54.35-2.7 2.38-3.29 4.45-3.83 5.6-1.46 11.11-.58 16.57.87 1.08.29 2.12.71 3.21.97 10.28 2.43 19.05 6.88 23.35 17.36.25.61.71 1.13 1.1 1.68.1.17.31.28.64.54z"/><path d="m109.21 42.53c5.6 2.93 8.23 7.68 8.67 13.37.52 6.68.33 13.41.38 20.12.05 6.8.01 13.6.01 20.51 9.63 1.56 16.82 6.07 21.68 13.92 1.15 1.85 2.08 4.02 2.43 6.15 2.6 15.99 5.94 31.94 7.28 48.04 1.85 22.27.84 44.53-6.8 65.95-3.84 10.77-12.21 17.17-22.45 20.43-4.75 1.51-10.61.26-15.82-.6-4.69-.78-9.21-2.67-13.75-4.23-1.08-.37-2.12-1.21-2.9-2.08-5.96-6.71-9.39-14.53-10.6-23.46-2.42-17.96-5.23-35.88-4.85-54.09.38-18.43 2.08-36.58 9.41-53.85 2.21-5.21 5.3-9.31 10.58-10.84 9.05-2.62 12.1-8.08 10.87-17.29-.96-7.17-.61-14.52-.69-21.8-.1-7.34 1.51-14.2 6.55-20.25zm-21.06 138.63c0 8.56-.11 16.82.03 25.07.13 7.81 1.64 15.37 5.72 22.12 1.62 2.68 3.6 6.1 6.19 7.05 4.59 1.68 9.84 2.62 14.69 2.25 6.62-.5 12.12-3.79 14.01-10.97 2.16-8.2 4.72-16.33 6.31-24.64 1.05-5.51.83-11.28.92-16.94.04-2.38-1.18-3.61-4.03-3.58-8.83.08-17.65-.24-26.48-.35-5.55-.06-11.11-.01-17.36-.01zm.42-14.55c.53.08.96.2 1.39.19 14.18-.25 28.37-.55 42.55-.75 2.14-.03 2.67-1.05 2.62-2.89-.19-7.93-.15-15.86-.57-23.78-.45-8.5-2.62-16.52-8.04-23.37-1.5-1.9-3.14-3.22-5.73-3.51-5.1-.57-10.16-1.52-15.24-2.21-3.5-.48-9.27 2.58-10.23 5.95-2.69 9.53-5.4 19.08-7.38 28.76-1.46 7.1-1.41 14.41.63 21.61z"/></g></svg>