<svg enable-background="new 0 0 400 400" viewBox="0 0 400 400" xmlns="http://www.w3.org/2000/svg"><path d="m361.2 9.6.8-1c.9.7 1.9 1.4 2.9 2.3l-.9 1.1c-1-1-2-1.8-2.8-2.4zm.5 10.6c.9-2.1 1.6-4.3 2.3-6.7.4.2.8.4 1.3.6-.7 2.1-1.5 4.3-2.2 6.6zm.4-15.2.9-.9c1 .8 2 1.6 2.8 2.4l-1 1c-.9-.9-1.8-1.7-2.7-2.5zm12.5-1.2h1.2v1.4h2.7v1.1h-2.7v2.7h-1.2v-.6h-1.8v1.3h4.9v3.8h-1.2v-.5h-3.7c0 .4-.1.9-.1 1.2h5.1v1h-5.2c0 .5-.1.9-.2 1.2h6v1h-5.2c1.1 1.3 2.9 2 5.5 2.2-.4.4-.7.8-.9 1.3-2.9-.5-4.8-1.6-5.7-3.5h-.1c-.8 1.7-2.7 2.9-5.9 3.6-.2-.4-.6-.8-.9-1.1 2.8-.6 4.6-1.4 5.4-2.5h-4.8v-1h5.3c.1-.3.2-.7.2-1.2h-4.9v-1h5c0-.4 0-.8.1-1.2h-3.5v.5h-1.2v-3.8h4.9v-1.3h-1.8v.5h-1.2v-2.7h-2.7v-1h2.6v-1.4h1.2v1.4h4.7v-1.4zm-6.6 8.3h3.6c0-.4 0-.9 0-1.4h-3.6zm1.9-4.6h4.7v-1.3h-4.7zm6.6 3.2h-3.7v1.4h3.7z" fill="#fbfcfa"/><path d="m385.3 3.8h1.3v2.2h2.8v-2.2h1.3v2.2h4.1v9.1h1.7v1.3h-16.9v-1.3h1.7v-9.1h4.1v-2.2zm.4 13.1.7 1.2c-1.8.9-3.8 1.9-6 2.9-.2-.4-.5-.8-.8-1.3 2.3-1 4.3-1.9 6.1-2.8zm-3.1-6.4h2.8v-3.2h-2.8zm0 4.6h2.8v-3.3h-2.8zm4-4.6h2.8v-3.2h-2.8zm0 4.6h2.8v-3.3h-2.8zm3.7 1.9c2.1.9 4.1 1.8 6.1 2.7l-.7 1.3c-2.2-1.1-4.2-2-6.1-2.9zm3.2-9.7h-2.8v3.2h2.8zm-2.8 7.8h2.8v-3.3h-2.8z" fill="#fbfcfa"/><g fill="#010102"><path d="m163.97 359.43c0-23.84 0-47.31 0-71.22-7.22-1.1-14.37-2.27-21.55-3.25-5.59-.76-11.08-1.74-15.81-5.06-5.09-3.57-8.57-7.88-9.57-14.55-1.29-8.57-2.29-17.04-1.34-25.68.51-4.64 3.65-6.37 7.71-4.09 3.44 1.93 4.95 5.07 5.27 8.83.2 2.34-.21 4.75.2 7.03.66 3.69 1.24 7.56 2.81 10.9 2.11 4.48 5.66 7.13 11.18 7.72 31.87 3.42 63.8 5.55 95.8 3.26 10.72-.77 21.3-3.79 31.9-5.96.99-.2 2.24-1.66 2.44-2.71 1.29-6.55 2.42-13.13 3.38-19.74.66-4.51 2.33-8.12 6.77-9.99 1.97-.83 3.11-.55 4.22 1.57 4.58 8.75 3.23 17.65 1.75 26.85-1.88 11.69-9.81 17.11-19.87 19.52-10.71 2.56-21.79 3.62-32.7 5.33-.65.1-1.3.19-2.44.36v71.52c6.55 0 13.23-.08 19.91.02 13.42.19 26.85.4 40.26.8 2.52.07 5.18.64 7.45 1.7 1.62.75 3.12 2.5 3.89 4.17 1.12 2.41.34 4.38-2.55 5.44-8.61 3.16-17.53 3.29-26.5 3.08-9.62-.23-19.23-.79-28.84-.82-35.6-.1-71.2-.09-106.8-.01-10.51.02-21.04.79-31.54.51-6.65-.18-13.26-1.72-19.89-2.55-2.25-.28-2.89-1.36-2.86-3.56.07-5.54-.04-5.54 5.42-6.86 9.46-2.28 19.06-2.04 28.69-1.94 13.54.13 27.07-.11 40.61-.21.79-.04 1.55-.25 2.6-.41zm14.66-71.1v71.36h42.13c-.37-23.79-.72-46.99-1.08-70.31-13.98-.35-27.38-.7-41.05-1.05z"/><path d="m212.01 101.49c9.22-1.51 15.7-9.37 15.27-19.96-.33-7.97-2.11-15.91-3.62-23.8-1.24-6.48-3.18-12.87-2.18-19.53.27-1.83 1.18-3.94 2.5-5.15 2.84-2.59 5.1-1.97 7.07 1.34 10.25 17.24 12.59 35.89 9.26 55.32-.87 5.08-2.43 10.6-5.4 14.64-3.95 5.38-9.86 8.95-16.92 9.97-8.25 1.19-7.89 1.37-9.53 9.33-6.39 31.02-3.7 61.61 3.78 92.05 2.48 10.09 4.76 20.23 6.97 30.38.46 2.13.52 4.46.22 6.62-.47 3.39-2.91 5.51-5.81 5.41-3.19-.11-5.12-1.41-6.12-4.88-7.2-24.94-13.49-50.12-16.54-75.89-1.36-11.45-1.06-23.28.01-34.8 1.82-19.58 4.96-39.03 7.33-58.57 1.04-8.54-.43-16.91-2.7-25.18-2.25-8.16-4.29-16.39-6.09-24.66-.57-2.64-.09-5.51-.09-8.75 5.54.88 9.75 3.32 12.18 7.54 2.69 4.68 4.96 9.78 6.36 14.98 3.44 12.81 4.54 25.96 4.09 39.23-.18 4.71-.04 9.4-.04 14.36z"/><path d="m296.95 60.1c6 .93 9.4 4.26 9.72 10.28.31 5.8-.2 11.63-.02 17.44.33 10.5 1.19 20.99 1.34 31.49.32 22.17-.43 44.3-3.95 66.25-.71 4.41-1.98 8.72-2.68 13.13-1.9 11.93-10.4 17.4-20.62 20.98-8.5 2.98-17.11 2.41-25.76.14-2.8-.73-3.9-2.07-3.87-4.76.01-1.22-.1-2.44-.17-4.01 7.24-1.65 14.4-3.25 21.55-4.91 12.74-2.97 15.91-6.24 17.77-19.31.81-5.7.85-11.5 1.26-17.42-9.24 0-17.72.13-26.19-.06-3.31-.08-6.67-.62-9.89-1.44-1.73-.44-3.5-1.64-4.72-2.97-2.92-3.18-2.19-6.34 1.58-8.27 6.76-3.46 13.81-2.71 21.01-1.8 4.94.63 9.99.46 14.99.44.73 0 2.05-1.15 2.1-1.83.88-12.71 1.61-25.42 2.42-38.94-6.49-.15-12.68-.28-18.87-.43-4.9-.12-9.86.14-14.68-.53-4.46-.62-6.37-3.77-6.33-8.13.02-2.25.85-3.11 3.15-3.24 11.82-.68 23.63-1.51 35.63-2.3 1.99-13.13-3.5-27.46 5.23-39.8z"/><path d="m107.03 154.15c9.11 0 17.69-.09 26.27.05 2.98.05 6.09.25 8.88 1.17 1.93.63 3.89 2.31 5 4.06 2.4 3.78 1.36 6.86-2.93 7.64-5.31.97-10.81 1.11-16.24 1.28-4.56.14-9.16-.49-13.71-.26-5.31.26-7.29 2.31-6.32 7.58 1.43 7.77 3.45 15.46 5.86 22.98.59 1.85 3.48 3.61 5.64 4.17 5.23 1.37 10.65 2.08 16.01 2.93 2.31.37 4.82 0 6.94.78 2.07.76 4.1 2.28 5.51 3.99 1.73 2.11 1.67 4.25-1.25 5.99-4.83 2.88-10 4.1-15.42 3.5-6.2-.68-12.35-1.88-18.47-3.11-1.36-.27-2.79-1.41-3.7-2.55-8.77-11.01-13.73-23.83-14.46-37.64-1.14-21.44-1.04-42.94-1.39-64.42-.16-9.62-.58-19.27.01-28.86.28-4.48 2.61-8.85 4.13-13.24.66-1.89 2.18-1.88 3.87-1.36 4.93 1.52 7.07 5.24 6.45 11.03-.48 4.44-.98 8.89-1.13 13.35-.16 4.54.51 5.56 5.06 5.6 7.12.06 14.25-.61 21.37-.9 2.21-.09 4.5-.28 6.65.12 5.47 1.02 8.35 5.63 6.95 10.97-.23.86-1.27 1.73-2.16 2.17-5.36 2.68-11.11 3.08-16.99 2.73-6.32-.38-12.65-.62-19.36-.94-.35 13.91-.69 26.95-1.07 41.19z"/><path d="m225.06 122.62c7.45 1.07 10.52 4.87 9.95 12.34-.6 7.9-1.97 15.79-2.03 23.69-.15 19.55 1.57 38.85 10.23 56.88 2.26 4.69 2.57 9.67.88 14.69-.54 1.61-1.39 2.18-3.2 2.03-7.19-.6-7.19-.53-9.44-7.29-1.9-5.72-3.55-11.55-5.8-17.13-5.3-13.18-7-26.96-7.39-41-.4-14.42 1.36-28.55 6-42.26.22-.62.51-1.22.8-1.95z"/><path d="m177.71 233.37c-6.39-8.18-9.66-17.42-11.65-27.11-4.16-20.27-5.98-40.76-3.75-61.39.6-5.56 2.8-11.03 4.77-16.35 1.54-4.18 5.46-4.74 8.72-1.69 3.42 3.2 3.45 7.35 2.97 11.54-.84 7.32-2.2 14.61-2.61 21.96-1.01 17.89 1.86 35.46 5.21 52.96.86 4.5 1.45 9.08 2.68 13.48.87 3.12.07 4.59-2.93 5.29-1.08.24-2.07.78-3.41 1.31z"/><path d="m157.33 40.83c4.86.04 8.5 2.03 11.77 5.26 21.89 21.68 15.84 50.29 4.26 66.92-1.86 2.67-4.75 4.69-7.37 6.75-1.16.91-2.81 1.42-4.3 1.67-5.18.85-6.93-1.05-6.22-6.1.45-3.18 1.59-5.78 3.73-8.3 11.21-13.25 12.12-32.93 2.43-47.47-.61-.92-1.43-1.7-2.17-2.54-4.45-5.06-5.08-9.71-2.13-16.19z"/><path d="m137.44 321.54c.25 9.41-1.12 18.95-4.37 28.25-1.38 3.93-4.89 2.88-7.54 3.51-.8.19-2.65-1.79-3.12-3.09-.73-2.03-1.34-4.48-.88-6.5 3.22-14 1.01-28.05.79-42.09-.07-4.25-.32-8.49-.42-12.73-.08-3.36 2.48-5.23 5.74-4.31 3.17.9 5.56 2.92 6.06 6.09 1.44 9.01 2.53 18.07 3.72 27.12.14 1.1.02 2.24.02 3.75z"/><path d="m273.14 324.26c0 8.16-.12 16.33.06 24.49.08 3.44-2.38 4.8-4.64 5.13-1.68.25-4.66-1.18-5.37-2.67-8.99-18.76-10.1-37.96-2.29-57.42.63-1.58.89-3.88 3.66-3.57 2.88.33 5.34 1.29 6.19 4.27.55 1.91.79 3.96.81 5.96.09 7.94.04 15.88.04 23.82.51-.01 1.02-.01 1.54-.01z"/></g></svg>