<svg enable-background="new 0 0 400 400" viewBox="0 0 400 400" xmlns="http://www.w3.org/2000/svg"><path d="m361.2 9.6.8-1c.9.7 1.9 1.4 2.9 2.3l-.9 1.1c-1-1-2-1.8-2.8-2.4zm.5 10.6c.9-2.1 1.6-4.3 2.3-6.7.4.2.8.4 1.3.6-.7 2.1-1.5 4.3-2.2 6.6zm.4-15.2.9-.9c1 .8 2 1.6 2.8 2.4l-1 1c-.9-.9-1.8-1.7-2.7-2.5zm12.5-1.2h1.2v1.4h2.7v1.1h-2.7v2.7h-1.2v-.6h-1.8v1.3h4.9v3.8h-1.2v-.5h-3.7c0 .4-.1.9-.1 1.2h5.1v1h-5.2c0 .5-.1.9-.2 1.2h6v1h-5.2c1.1 1.3 2.9 2 5.5 2.2-.4.4-.7.8-.9 1.3-2.9-.5-4.8-1.6-5.7-3.5h-.1c-.8 1.7-2.7 2.9-5.9 3.6-.2-.4-.6-.8-.9-1.1 2.8-.6 4.6-1.4 5.4-2.5h-4.8v-1h5.3c.1-.3.2-.7.2-1.2h-4.9v-1h5c0-.4 0-.8.1-1.2h-3.5v.5h-1.2v-3.8h4.9v-1.3h-1.8v.5h-1.2v-2.7h-2.7v-1h2.6v-1.4h1.2v1.4h4.7v-1.4zm-6.6 8.3h3.6c0-.4 0-.9 0-1.4h-3.6zm1.9-4.6h4.7v-1.3h-4.7zm6.6 3.2h-3.7v1.4h3.7z" fill="#fbfcfa"/><path d="m385.3 3.8h1.3v2.2h2.8v-2.2h1.3v2.2h4.1v9.1h1.7v1.3h-16.9v-1.3h1.7v-9.1h4.1v-2.2zm.4 13.1.7 1.2c-1.8.9-3.8 1.9-6 2.9-.2-.4-.5-.8-.8-1.3 2.3-1 4.3-1.9 6.1-2.8zm-3.1-6.4h2.8v-3.2h-2.8zm0 4.6h2.8v-3.3h-2.8zm4-4.6h2.8v-3.2h-2.8zm0 4.6h2.8v-3.3h-2.8zm3.7 1.9c2.1.9 4.1 1.8 6.1 2.7l-.7 1.3c-2.2-1.1-4.2-2-6.1-2.9zm3.2-9.7h-2.8v3.2h2.8zm-2.8 7.8h2.8v-3.3h-2.8z" fill="#fbfcfa"/><path d="m305.77 178.9c0 14.44-.38 28.9.1 43.32.54 16.03-1.72 31.63-5.13 47.2-3.7 16.87-8.28 33.38-15.92 48.97-2.27 4.63-5.15 8.49-9.02 11.85-15.54 13.49-32.74 23.77-53.23 27.63-14 2.64-28.07 2.14-42.09.12-14.89-2.14-29.27-6.24-43.22-11.85-1.8-.72-3.57-1.86-4.95-3.22-6.61-6.52-13.11-13.16-19.59-19.83-.98-1.01-1.78-2.29-2.38-3.58-12.44-26.39-19.02-54.2-19.21-83.35-.25-38.5-.19-77 .12-115.5.16-19.43 2.66-38.57 9.89-56.87 1.85-4.68 4.57-8.14 8.7-11 12.23-8.46 25.83-12.69 40.51-13.56 21.32-1.27 42.64-2.82 63.98-3.22 15.27-.29 30.71-.61 45.74 3.1 5.83 1.44 11.54 3.49 17.16 5.64 12.8 4.89 19.66 15.02 23.21 27.65 1.2 4.27 1.82 8.79 2.02 13.22 1.39 31.08 2.59 62.17 3.85 93.26-.19.01-.36.01-.54.02zm-22.13 63.46c-57.06 0-113.94 0-170.8 0-2.17 28.52 6.66 60.4 26.65 81.82.82.88 1.9 1.55 2.94 2.16 21.23 12.5 44.16 16.54 68.44 13.53 16.65-2.06 31.84-7.89 45.14-18.24 2.72-2.12 5.79-4.19 7.6-7 14.14-21.91 18.93-46.48 20.03-72.27zm-173.81-96.34c.5 26.5.98 52.39 1.47 78.71 58.41-.48 116.5-.96 174.73-1.43 0-1.71.03-2.92 0-4.14-.69-23.38-1.41-46.75-2.09-70.13-.14-4.88-.09-4.87-5-4.8-20.02.3-40.04.65-60.05.88-30.87.35-61.75.62-92.62.9-5.35.06-10.68.01-16.44.01zm88.63-18.59c27.98 0 55.96-.05 83.94.08 3.11.01 4.09-.95 4.06-3.92-.07-8.95.56-17.94-.08-26.85-.5-6.94-1.88-13.97-3.96-20.62-2.66-8.52-8.6-14.59-17.75-15.94-9.6-1.41-19.32-2.49-29.01-2.75-23.93-.63-47.87-.79-71.81-.97-12.47-.09-24.44 2.35-35.56 8.23-6.35 3.35-11.29 7.8-12.56 15.43-.62 3.73-2.09 7.3-2.94 11-2.47 10.82-4.62 21.65-2.34 32.85.56 2.77 1.65 3.52 4.41 3.51 27.86-.09 55.73-.05 83.6-.05z" fill="#010102"/></svg>