<svg enable-background="new 0 0 400 400" viewBox="0 0 400 400" xmlns="http://www.w3.org/2000/svg"><g fill="#fbfafa"><path d="m37.59 393.81c-.92.31-1.52.05-2-.78-.7-1.2-1.52-2.34-2.47-3.78v4.59c-.55.03-.95.05-1.41.07-.03-.37-.06-.64-.06-.91 0-1.91 0-3.81 0-5.7 1.13-.41 1.77-.03 2.29.91.62 1.11 1.38 2.14 2.31 3.19v-4.2h1.35v6.61z"/><path d="m12.94 393.88v-6.75c1.9.19 3.93-.54 5.37 1.29.8 1.01.78 2.88.03 3.97-1.37 1.97-3.4 1.51-5.4 1.49m1.45-1.22c2.04.12 2.92-.58 2.89-2.21-.03-1.51-.98-2.19-2.89-2z"/><path d="m11.81 393.87h-5.49c.68-2.18 2.47-3.48 3.51-5.45h-3.08v-1.21h5.29c-.71 2.13-2.44 3.48-3.47 5.51.86 0 1.63.04 2.39-.01.79-.05 1.14.21.85 1.16"/><path d="m39.33 393.86v-6.61h3.7v1.07h-2.22v1.52c.68.04 1.34.09 2.07.13v1.07c-.72.05-1.38.09-2.1.14v1.48h2.4v1.19h-3.85z"/><path d="m27.71 388.56c-1.15-.3-2.46-.61-3.1.64-.37.73-.41 1.93-.06 2.67.63 1.35 1.99.93 3.17.68.35.94-.01 1.32-.93 1.46-1.62.25-3.05-.27-3.76-1.48-.73-1.24-.6-3.03.31-4.17.88-1.11 2.71-1.7 4-1.16.32.13.44.74.65 1.12-.1.08-.19.16-.28.24"/><path d="m49.15 387.24v1.07c-.59.02-1.17.05-1.87.08v5.44h-1.48v-5.44h-1.85c-.05-.4-.08-.73-.13-1.15z"/><path d="m20.06 387.21h1.33v6.62h-1.33z"/><path d="m30.68 393.25c-.49.38-.8.79-1.05.76-.32-.05-.6-.45-.9-.7.26-.24.51-.64.8-.67.29-.04.62.3 1.15.61"/></g><path d="m181.06 139.18c-11.38-1.92-23.12-4.25-34.98-5.77-6.26-.8-10.46-4.08-14.21-8.48-7.12-8.36-10.46-18.35-12.15-29-2.32-14.69-2.89-29.38.31-44.03.26-1.2.54-2.41.95-3.56.59-1.66.51-3.64 3.4-3.65 2.84-.01 4.1.92 5 3.56 4.18 12.28 5.3 24.84 4.39 37.72-.39 5.53-.82 11.28.23 16.64 1.95 9.96 9.2 16.03 18.53 18.38 9 2.28 18.43 2.83 28.19 4.21.12-2.41.25-3.92.26-5.42.24-26.52.5-53.04.65-79.56.03-5.13 1.39-9.73 4.5-13.73.56-.73 2.07-1.26 2.99-1.08 4.37.86 7.17 4.02 7.42 8.74.27 5.13.12 10.28.11 15.42-.03 23.39-.03 46.79-.14 70.18-.01 3.23 2.27 3.82 4.4 3.86 3.43.07 6.88-.45 10.31-.84 1.32-.15 2.59-.77 3.91-.91 10.46-1.12 15.94-7.94 19.68-16.92 3.08-7.39 3.66-15.19 3.95-23.02.26-6.93-.02-13.88.21-20.81.12-3.65.5-7.37 1.41-10.9.44-1.72 2.05-3.54 3.63-4.48 3.58-2.14 5.31-1.2 6.29 2.8 5.78 23.56 3.52 46.59-4.62 69.22-.4 1.1-1.19 2.13-1.99 3.01-8.85 9.67-19.9 14.91-32.86 16.41-4.66.54-9.28 1.39-14.41 2.18v25.38c3.33.16 7.08.63 10.81.47 18.5-.78 36.68-3.58 54.52-8.65 3.81-1.08 6.37-3.34 8.57-6.47 6.43-9.11 9.1-19.4 9.27-30.33.21-13.53-.03-27.07-.04-40.61 0-3.47-.1-6.96.34-10.39.24-1.88 1.11-3.96 2.35-5.38 3.76-4.27 7.11-3.57 9.35 1.52 2.38 5.4 2.49 11.08 2.33 16.8-.37 12.97-.79 25.94-1.25 38.91-.42 11.63-3.05 22.79-7.41 33.55-.48 1.17-1.41 2.26-2.37 3.12-14.65 13-31.97 18.92-51.38 20.27-22.41 1.55-44.78 3.81-67.14 6-4.52.44-8.98 1.81-13.39 3.02-12.36 3.4-19.99 11.5-23.74 23.71-5.94 19.35-7.37 39.21-8.1 59.29-.77 21.23-2.6 42.41-3.72 63.63-.53 9.94-.42 19.91-.76 29.86-.08 2.19-.47 4.55-1.43 6.48-.88 1.78-2.46 3.56-4.18 4.49-3.47 1.87-5.07 1.03-6.54-2.66-2.73-6.86-2.37-13.99-2.01-21.17.78-15.86 1.34-31.73 2.03-47.6 1.08-25.04 1.91-50.16 7.55-74.68 2.82-12.25 7.25-24.14 11.1-36.14.48-1.49 1.62-2.93 2.81-4 14.85-13.37 32.4-19.84 52.27-20.43 4.7-.14 4.76-.28 4.79-4.95.05-7.56.01-15.15.01-23.21z" fill="#010105"/><path d="m156.21 270.19c.09-14.86 1.85-29.38 6.16-43.69 3.16-10.49 10.32-16.65 19.84-20.14 6.09-2.23 12.76-3.53 19.25-3.89 10.92-.62 21.92-.54 32.85-.05 9.32.42 17.99 3.31 24.98 9.98 4.57 4.37 7.82 9.51 8.79 15.84 3.43 22.43 7.35 44.82 5.05 67.69-1.49 14.82-4.83 29.14-12.28 42.15-1.8 3.14-4.94 5.8-8.01 7.87-23.25 15.64-47.51 18.15-72.73 4.87-1.62-.85-2.92-2.33-4.28-3.62-9.49-8.96-14.53-19.93-15.47-32.99-.45-6.34-1.98-12.6-2.56-18.93-.78-8.33-1.09-16.72-1.59-25.09zm102.93 10.7c.64-16.49-2.9-33.08-6.41-49.74-1.32-6.27-4.65-9.65-9.9-11.83-2.65-1.1-5.56-1.97-8.4-2.13-9.04-.49-18.12-1.14-27.13-.71-9 .43-18.13 1.44-26.2 6.12-1.49.86-2.92 2.43-3.58 4.01-5.63 13.44-7.5 27.63-6.96 42.03.49 13.28 1.82 26.54 2.98 39.78.47 5.31.96 10.71 2.36 15.82 1.74 6.33 6.05 11.77 11.72 14.4 11.94 5.55 24.91 7.42 37.99 5.3 12.55-2.04 22.43-7.77 27.06-20.89 4.77-13.51 6.73-27.28 6.47-42.16z" fill="#010105"/><path d="m213.36 288.21c6.22.47 12.47.72 18.66 1.5 3.83.48 7.21 2.27 9.34 5.83 1.25 2.09 1.12 3.7-1.46 4.23-6.84 1.42-13.66 3.33-20.58 3.87-9.9.78-19.88.39-29.52-2.66-3.78-1.2-4.82-2.96-3.66-6.7.25-.81 1.46-1.44 2.36-1.92 7.82-4.18 16.36-3.72 24.86-4.15z" fill="#010105"/><path d="m242.4 250.86c-5.15 3.14-10.6 4.25-16.16 4.77-12.16 1.14-24.31 1.42-36.18-2.21-1.74-.53-4.14-.45-4.08-3.46.06-2.81-.47-5.73 3.33-6.59 2.54-.57 5.09-1.74 7.61-1.68 13.17.32 26.32 1.06 39.49 1.38 2.86.07 4.31.81 4.71 3.66.16 1.3.76 2.54 1.28 4.13z" fill="#010105"/></svg>