<svg enable-background="new 0 0 400 400" viewBox="0 0 400 400" xmlns="http://www.w3.org/2000/svg"><g fill="#010103"><path d="m258.14 253.62c-5.63 1.53-9.43 3.61-12.37 8.26-8.48 13.36-12.38 28.08-15.03 43.41-2.01 11.6-.67 23.24-1.4 34.82-.23 3.65-1.55 7.38-3.11 10.74-.59 1.26-3.24 2.15-4.96 2.16-2.22.01-4-1.2-4.66-3.93-3.06-12.72-2.97-25.52-1.29-38.37 2.24-17.14 6.01-33.9 12.83-49.85.85-1.99 2.23-3.84 3.71-5.44 6.91-7.46 14.93-13.5 24.05-17.99 2.02-.99 2.73-2.23 2.6-4.44-.19-3.11-.05-6.24-.05-9.63-8.11-1.31-15.99-3.17-23.95-3.69-7.38-.48-13.52-8.57-12.67-16.24.59-5.3 1.68-10.6 3.19-15.71.74-2.51 2.76-4.73 4.5-6.82 6.46-7.75 15.36-11.65 24.47-15.19 2.38-.92 4.14-7.49 2.46-9.39-.55-.62-1.8-.74-2.76-.85-5.45-.6-10.91-1.06-16.35-1.68-7.61-.88-13.22-6.05-14.57-13.56-1.41-7.86-.62-15.61 1.8-23.19.34-1.07 1.24-2.1 2.14-2.83 5.57-4.5 10.99-9.25 16.92-13.22 3.24-2.16 7.33-3.17 11.15-4.29 2.44-.72 3.18-1.89 2.85-4.29-.36-2.66-.73-5.37-.58-8.03.17-2.98-1.21-4.25-3.81-4.09-5.65.34-11.34.62-16.9 1.56-5.6.94-11.03 2.94-16.62 3.91-2.98.51-6.22.14-9.23-.41-2.3-.42-3.74-2.22-3.91-4.83-.17-2.55.86-3.99 3.1-5.3 10.96-6.37 23-8.52 35.38-9.09 15.08-.69 30.18-1.04 45.27-1.47 5.95-.17 9.57-3.94 8.52-9.86-.61-3.44-2.1-6.8-3.59-10.01-3.19-6.87-2.89-13.34 1.34-19.75 5.24 1.02 8.24 4.52 9.86 8.9 4.28 11.59 5.23 23.53 2.11 35.59-.42 1.63-1.83 3.3-3.25 4.33-5.14 3.72-11.04 5.06-17.35 5.31-5.44.22-10.85 1.03-17.07 1.65 0 4.68-.12 9.03.11 13.36.04.77 1.37 1.76 2.32 2.16 6.16 2.63 12.62 4.64 18.52 7.75 15.98 8.43 19.99 17.62 17.51 35.57-1.32 9.52-7.16 12.35-13.77 13.5-6.92 1.2-13.95 1.82-20.95 2.42-2.4.2-3.12.84-3.29 3.33-.25 3.7.98 5.21 4.53 6.67 7.29 3 14.48 6.49 21.15 10.68 9.91 6.23 13.16 15.75 12.73 27.38-.53 14.21-7.63 16.25-19.17 17.41-4.33.43-8.71.33-13.06.47-2.43.08-3.51 1.26-3.55 3.78-.06 3.46-.55 6.92-.6 10.39-.01.99.63 2.4 1.43 2.91 2.71 1.75 5.47 3.64 8.49 4.68 12.85 4.42 20.15 14.02 24.74 26.1 9.66 25.48 11.5 51.79 8.01 78.63-.21 1.62-.57 2.75-2.6 3.22-7.04 1.63-9 .16-9.4-7.6-.26-5.03-.2-10.08-.78-15.07-1.85-15.99-3.4-32.05-6.09-47.91-2.06-12.12-9.15-21.2-20.74-26.25-.5-.22-1.03-.34-2.42-.8 0 5.81.05 11.22-.01 16.62-.26 24.74-.59 49.48-.79 74.22-.05 6.26.47 12.52.41 18.78-.02 2.51-.61 5.12-1.46 7.51-1.09 3.09-3.77 4.2-6.92 4.37-3.09.16-4.31-2.25-4.76-4.35-1-4.65-1.81-9.44-1.85-14.17-.29-30.34-.35-60.68-.48-91.02-.04-3.83-.03-7.63-.03-11.94zm37.21-113.67c.35-6.78-.01-12.81-2.73-18.36-1.15-2.34-2.74-4.87-4.83-6.26-9.12-6.07-19.55-7.21-29.91-5.28-7.25 1.35-13.45 5.89-19.06 10.81-.63.55-1.47 1.38-1.46 2.07.06 5.77.29 11.53.46 17.01 19.43.01 38.29.01 57.53.01zm.14 67.17c0-3.75-.25-6.9.06-9.99.4-4.02-1.38-6.79-4.17-9.32-6.76-6.15-15.27-7.51-23.77-8.97-4.48-.77-8.83-.99-12.96 1.49-4.79 2.87-9.7 5.55-14.5 8.41-.68.4-1.38 1.27-1.5 2.02-.73 4.5-1.35 9.02-1.88 13.55-.29 2.51.83 3.47 3.52 3.39 11.18-.32 22.37-.44 33.55-.56 7.04-.08 14.07-.02 21.65-.02z"/><path d="m104.55 96.1c.42-15.29 1.32-30.46 5.38-45.26.41-1.51 1.41-3.01 2.52-4.14 7.7-7.88 17.74-10.3 28.13-10.83 10.81-.56 21.69-.55 32.5.04 9.13.5 17.52 3.8 21.96 12.54 1.9 3.74 2.61 8.28 3.05 12.54 1.41 13.67 3.05 27.37 3.47 41.09.51 16.52-1.81 32.81-7.61 48.43-.63 1.69-1.76 3.31-3 4.64-10.9 11.69-24.97 13.31-39.58 11.32-9.58-1.3-18.95-4.16-28.37-6.5-1.36-.34-2.79-1.44-3.66-2.59-7.78-10.18-11.11-22.12-12.72-34.52-1.15-8.87-1.41-17.84-2.07-26.76zm81.54-20.84c-1.1-5.86-2.08-10.99-3.03-16.11-1.24-6.72-1.52-7.02-8.24-8.45-.55-.12-1.1-.23-1.66-.24-11.62-.25-23.25-.81-34.86-.56-4.44.09-8.85 2-13.25 3.15-.45.12-.96.61-1.16 1.05-2.75 6.09-4.61 12.35-3.72 19.16.26 1.94 1.18 2.51 3.12 2.48 14.65-.22 29.3-.34 43.96-.46 6.12-.06 12.24-.02 18.84-.02zm-.96 15.27c-21.57 0-42.94 0-64.31 0v23.26c21.55-.34 42.9-.68 64.31-1.03 0-7.65 0-14.87 0-22.23zm-63.59 36.47c.18 2.82.01 5.52.58 8.06 1.2 5.32 3.13 11.12 8.26 13.2 14.72 5.99 29.81 6.23 44.7.08 1.99-.82 4.38-2.01 5.32-3.73 1.96-3.59 3.36-7.56 4.46-11.51 1.08-3.88-.54-5.61-4.48-5.65-15.2-.15-30.4-.31-45.6-.45-4.22-.03-8.44 0-13.24 0z"/><path d="m83.75 113c5.98 4.13 8.39 10.34 8.58 17.23.2 7.12-.47 14.28-.94 21.41-.52 7.89-.38 15.65 2.92 23.04 2.02 4.53 4.94 8.06 10.16 8.72 8.19 1.04 16.39 2.64 24.59 2.7 18.33.14 36.67-.59 55-.81 4-.05 8.02.43 11.99.92 1.37.17 2.79.88 3.94 1.69 5.06 3.56 4.88 7.45-.62 10.04-2.48 1.17-5.3 2.24-7.97 2.25-20.67.1-41.35.09-62.02-.22-12.58-.19-24.86-2.45-36.84-6.43-2.98-.99-4.98-2.63-6.53-5.25-4.54-7.64-6.84-15.99-8-24.7-1.9-14.26-2.22-28.52-.3-42.82.53-3.89 2.35-6.32 6.04-7.77z"/><path d="m88.04 303.57c.43-6.34 1-15.15 1.67-23.95.12-1.53.56-3.07 1.07-4.53 2.82-8.12 5.36-16.37 8.68-24.29 3.2-7.63 2.54-14.89.35-22.54-1.37-4.76-2.05-9.81-2.27-14.77-.18-4.12 2.73-5.43 6.24-3.33 7.57 4.52 10.27 12.04 12.11 20.03 2.66 11.51-1.09 22.1-4.79 32.67-1.51 4.32-3.09 8.62-4.8 12.87-4.19 10.34-4.59 20.87-2.99 31.87 2.4 16.48 3.91 33.09 5.9 49.63.36 3-.52 5.02-3.41 5.99-2.96.99-5.73-.13-7.14-2.94-5.86-11.68-8.4-24.23-9.51-37.11-.51-5.68-.67-11.39-1.11-19.6z"/><path d="m127.49 302.95c.82-10.61 1.09-21.07 5.68-30.94 2.02-4.34 3.03-9.15 5.03-13.5 4.05-8.8 2.58-17.43-.08-26.14-1.47-4.79-2.91-9.59-4.15-14.44-.37-1.46-.15-3.12.01-4.66.64-6.19 2.04-7.02 7.13-3.53 2.51 1.72 4.86 4.1 6.4 6.7 5.46 9.2 8.07 19.25 6.28 29.93-1.27 7.57-3.26 15.04-5.2 22.48-1.69 6.48-4.39 12.77-5.44 19.33-.79 4.93.12 10.2.66 15.27 1.94 18.36 4.04 36.71 6.1 55.05.3 2.68-1.43 4.04-3.5 4.6-2.44.67-5.16.99-6.74-1.88-4.13-7.52-7-15.55-8.21-24-1.63-11.36-2.67-22.83-3.97-34.27z"/><path d="m190.55 352.45c-2.69.55-4.95 1.19-7.26 1.41-.85.08-2.19-.59-2.62-1.33-1.57-2.68-3.46-5.4-4.12-8.35-2.96-13.08-5.81-26.19-8.17-39.39-2.21-12.35.06-24.49 2.87-36.54 1.8-7.73 3.47-15.49 4.99-23.27 1.14-5.84.32-11.58-1.62-17.17-2.07-5.95-2.69-11.92-.33-18.15 5.09.31 8.72 2.79 11.21 6.94 3.28 5.48 4.84 11.48 5.07 17.87.54 14.91-1.9 29.48-5.84 43.74-4.19 15.16-3.67 30 .78 44.93 2.8 9.45 4.65 19.09 5.04 29.31z"/></g><path d="m377.9 391.2c-.2.3-.4.5-.6.8-.7-.6-1.4-1-2.2-1.5.2-.3.4-.5.5-.8.6.4 1.4.8 2.3 1.5zm-1.8 6.1c-.2-.2-.5-.4-.9-.6.4-.6.8-1.2 1.2-1.9s.7-1.3.9-1.9c.3.3.5.5.8.7-.7 1.3-1.4 2.6-2 3.7zm2.2-9c-.3.3-.5.5-.6.8-.6-.6-1.3-1.1-2-1.5.3-.3.5-.5.6-.7.6.5 1.3.9 2 1.4zm.3.2v-.9h2 4.5c-.3 1.3-.6 2.5-1 3.6s-.9 2.1-1.4 3c.4.5 1 1 1.6 1.4s1.2.8 1.9 1.1c-.3.2-.5.4-.8.8-.4-.3-1-.7-1.6-1.2s-1.2-1.1-1.6-1.6c-.5.6-1.1 1.1-1.7 1.6s-1.4.9-2.1 1.4c-.1-.3-.3-.5-.7-.8.6-.2 1.2-.5 1.9-1s1.4-1.1 2-1.8c-.5-.8-.9-1.6-1.2-2.5s-.6-2-.8-3.2c-.4.1-.7.1-1 .1zm2.5 2.7c.3 1 .7 1.7 1 2.2.3-.5.6-1.1 1-2s.6-1.9.9-3h-3.2-.4c.1.9.3 1.8.7 2.8z" fill="#fcfbfa"/><path d="m396.5 388.5v1.5 3.6h1.5v.9c-.4 0-1 0-1.7 0h-7.9c-.5 0-.9 0-1.2 0v-.9h1.3v-3.5c0-.7 0-1.2 0-1.6h2.4c0-.8 0-1.4 0-1.7h1c0 .3-.1.8-.1 1.7h1.5c0-.8 0-1.4 0-1.7h1c0 .3-.1.9-.1 1.7zm-8.2 9.2c-.2-.3-.5-.5-.8-.8.8-.3 1.4-.6 1.9-.9s1-.7 1.4-1.1c.3.3.6.5.9.8-1.6 1-2.8 1.6-3.4 2zm2.6-6.8v-1.6h-1.5v1.6zm0 2.7v-1.9h-1.5v1.9zm2.4-2.7v-1.6h-1.5v1.6zm0 2.7v-1.9h-1.5v1.9zm.2 2 .7-.8c.4.2.9.5 1.6.8s1.3.7 1.8 1c-.3.3-.5.5-.8.8-.4-.3-1.5-1-3.3-1.8zm2-4.7v-1.6h-1.4v1.6zm0 2.7v-1.9h-1.4v1.9z" fill="#fcfbfa"/></svg>