<svg enable-background="new 0 0 400 400" viewBox="0 0 400 400" xmlns="http://www.w3.org/2000/svg"><g fill="#fbfafa"><path d="m37.59 393.81c-.92.31-1.52.05-2-.78-.7-1.2-1.52-2.34-2.47-3.78v4.59c-.55.03-.95.05-1.41.07-.03-.37-.06-.64-.06-.91 0-1.91 0-3.81 0-5.7 1.13-.41 1.77-.03 2.29.91.62 1.11 1.38 2.14 2.31 3.19v-4.2h1.35v6.61z"/><path d="m12.94 393.88v-6.75c1.9.19 3.93-.54 5.37 1.29.8 1.01.78 2.88.03 3.97-1.37 1.97-3.4 1.51-5.4 1.49m1.45-1.22c2.04.12 2.92-.58 2.89-2.21-.03-1.51-.98-2.19-2.89-2z"/><path d="m11.81 393.87h-5.49c.68-2.18 2.47-3.48 3.51-5.45h-3.08v-1.21h5.29c-.71 2.13-2.44 3.48-3.47 5.51.86 0 1.63.04 2.39-.01.79-.05 1.14.21.85 1.16"/><path d="m39.33 393.86v-6.61h3.7v1.07h-2.22v1.52c.68.04 1.34.09 2.07.13v1.07c-.72.05-1.38.09-2.1.14v1.48h2.4v1.19h-3.85z"/><path d="m27.71 388.56c-1.15-.3-2.46-.61-3.1.64-.37.73-.41 1.93-.06 2.67.63 1.35 1.99.93 3.17.68.35.94-.01 1.32-.93 1.46-1.62.25-3.05-.27-3.76-1.48-.73-1.24-.6-3.03.31-4.17.88-1.11 2.71-1.7 4-1.16.32.13.44.74.65 1.12-.1.08-.19.16-.28.24"/><path d="m49.15 387.24v1.07c-.59.02-1.17.05-1.87.08v5.44h-1.48v-5.44h-1.85c-.05-.4-.08-.73-.13-1.15z"/><path d="m20.06 387.21h1.33v6.62h-1.33z"/><path d="m30.68 393.25c-.49.38-.8.79-1.05.76-.32-.05-.6-.45-.9-.7.26-.24.51-.64.8-.67.29-.04.62.3 1.15.61"/></g><path d="m257.55 286.88c-.53 15.27-1.27 30.49-5.3 45.27-4.52 16.56-12.25 30.93-28.92 38.54-12.62 5.76-25.66 5.41-38.78 2.65-4.89-1.03-9.56-3.07-14.41-4.36-9.88-2.62-13.74-10.89-17.67-18.86-7.63-15.45-10.92-32.07-12.38-49.12-1.47-17.22-1.39-34.42.7-51.59 1.42-11.7 4.01-23.11 8.41-34.07.44-1.09 1.24-2.1 2.08-2.96 8.89-9.09 19.84-14.03 32.35-15.38 12.73-1.36 25.49-.91 38.12 1.22 17.09 2.88 28.07 13.8 30.85 30.89 1.56 9.59 2.76 19.27 3.58 28.96.8 9.57.93 19.2 1.37 28.81zm-61.01-74.84c-.01.15-.01.31-.02.46-2.57 0-5.16-.2-7.71.04-4.41.42-8.99.5-13.16 1.81-9.02 2.83-15.26 8.67-16.79 18.5-1.13 7.29-2.4 14.57-3.22 21.89-2.02 17.98-1.49 35.99.11 53.95 1.16 13 3.84 25.67 10.63 37.08 1.29 2.16 2.68 4.83 4.74 5.87 11.25 5.71 23.26 8.79 35.93 7.73 12.25-1.03 20.67-8.39 25.02-19.19 5.23-12.98 7.39-26.9 8.79-40.85 1.74-17.36.92-34.64-1.52-51.87-.47-3.32-.95-6.66-1.07-10-.49-14.45-9.19-21.89-22.02-24.24-6.42-1.17-13.13-.83-19.71-1.18z" fill="#010105"/><path d="m241.45 58.31c-6.53-.34-12.65-.59-18.76-1.02-1.52-.11-3.08-.61-4.48-1.23-2.51-1.12-3.53-3.27-3.5-5.98.03-2.65.73-4.87 3.63-5.63 3.54-.94 7.07-2.46 10.65-2.64 13.94-.69 27.9-1.11 41.86-1.3 7.68-.1 15.19 1.61 22.12 4.86 7.97 3.74 12.84 10.57 14.93 18.87 4.38 17.41 2.57 34.38-5.18 50.62-.53 1.12-1.63 2.1-2.7 2.8-8.6 5.66-18.19 8.43-28.35 9.4-12.25 1.17-24.39 2.76-35.93 7.43-2.18.88-3.55 1.95-4.24 4.19-1.95 6.33-.98 12.64.09 18.92.14.83 1.15 1.58 1.88 2.23 6.97 6.11 15.28 8.92 24.34 10.23 26.92 3.9 46.07 18.82 58.87 42.35 2.88 5.28 5.42 10.81 7.51 16.44 1.25 3.36 1.45 7.14 1.88 10.77.22 1.88-.65 2.76-2.93 3.01-4.87.52-7.58-1.15-9.81-5.64-4.02-8.09-8.55-15.97-13.41-23.6-6.34-9.95-14.74-17.53-26.38-21.08-11.86-3.62-23.61-7.58-35.43-11.32-15.05-4.77-22.83-14.46-22.55-30.13.13-7.48 2.24-14.94 3.68-22.36.21-1.07 1.54-2.15 2.62-2.79 5.38-3.2 10.81-6.31 16.29-9.34 2.39-1.32 3.4-2.99 3.37-5.88-.15-16.23-.07-32.45-.07-48.68 0-1.13 0-2.24 0-3.5zm15.76 53.33c3.31 0 6.42.12 9.52-.02 7.84-.38 15.63-1.15 22.48-5.52.92-.59 1.85-1.65 2.13-2.67 2.29-8.43 3.88-16.99 3.27-25.79-.47-6.74-2.56-12.79-8.79-16.4-8.83-5.12-18.59-5.49-28.6-5.44-.01 18.7-.01 36.99-.01 55.84z" fill="#010105"/><path d="m202.62 86.98c-1.63 8.42-3.19 16.86-4.95 25.26-.25 1.17-1.31 2.31-2.25 3.17-13.91 12.68-30.09 21.01-48.29 25.8-17.07 4.49-30.86 14.71-40.03 29.28-10.65 16.93-15.73 35.97-12.97 56.41.46 3.43 1.12 6.89 1.1 10.33-.02 2.59-.51 5.4-1.62 7.71-1.7 3.53-6.26 3.52-8.42.29-7.1-10.65-8.52-22.52-6.61-34.76 2.84-18.22 8.09-35.79 17.36-51.83 4-6.93 9.23-13.14 16.15-17.65 4.97-3.23 9.73-6.79 14.74-9.94 2.43-1.53 3.91-3.53 3.88-6.22-.07-7.79.46-15.72-.86-23.32-2.04-11.74-5.43-23.24-8.21-34.85-.69-2.89-2.29-3.96-5.05-2.73-3.76 1.67-7.75 3.03-11.15 5.28-7.06 4.68-13.63 10.11-20.73 14.71-2.65 1.71-6.19 2.43-9.41 2.74-3.5.34-5.44-1.61-5.05-5.05.29-2.6 1.19-5.78 2.99-7.45 20.08-18.69 43.33-31.6 70.61-36 15.45-2.49 30.16.49 42.69 10.44 9.39 7.45 13.2 18.02 14.74 29.54.38 2.88.47 5.79.7 8.69.2.04.42.1.64.15zm-69.93-30.07c10.74 21.23 12.45 44.21 13.3 67.63 13.21-4.19 25.85-8.52 36.72-16.71 1.05-.79 1.94-2.17 2.29-3.45 3.37-12.25 2.54-24.4-1.99-36.15-2.73-7.06-7.13-13.14-15.28-14.62-11.94-2.17-23.7-1.35-35.04 3.3z" fill="#010105"/><path d="m196.85 247.26c8.03 0 16.06-.04 24.09.03 1.43.01 2.88.39 4.28.74 5.11 1.27 6.88 3.74 6.13 8.87-.12.81-1.26 1.87-2.12 2.11-5.24 1.48-10.47 3.31-15.83 3.98-13.13 1.62-26.29 1.61-39.25-1.64-1.45-.36-3.63-.98-3.96-1.98-.82-2.48-1.93-6.1-.77-7.71 1.66-2.29 5.14-4.2 8.02-4.49 6.41-.65 12.94-.2 19.41-.2z" fill="#010105"/><path d="m196.58 296.29c7.13.45 14.33.48 21.37 1.54 3.41.51 7.01 2.4 9.67 4.66 3.12 2.65 2.3 5.19-1.3 7.18-7.7 4.25-16.18 5.51-24.67 4.95-9.09-.6-18.1-2.46-27.15-3.75-2.07-.3-2.83-1.42-3.11-3.53-.87-6.47 2.07-10.2 8.73-10.37 5.48-.14 10.96-.03 16.44-.03 0-.21.01-.43.02-.65z" fill="#010105"/></svg>