<svg enable-background="new 0 0 400 400" viewBox="0 0 400 400" xmlns="http://www.w3.org/2000/svg"><g fill="#fbfafa"><path d="m37.59 393.81c-.92.31-1.52.05-2-.78-.7-1.2-1.52-2.34-2.47-3.78v4.59c-.55.03-.95.05-1.41.07-.03-.37-.06-.64-.06-.91 0-1.91 0-3.81 0-5.7 1.13-.41 1.77-.03 2.29.91.62 1.11 1.38 2.14 2.31 3.19v-4.2h1.35v6.61z"/><path d="m12.94 393.88v-6.75c1.9.19 3.93-.54 5.37 1.29.8 1.01.78 2.88.03 3.97-1.37 1.97-3.4 1.51-5.4 1.49m1.45-1.22c2.04.12 2.92-.58 2.89-2.21-.03-1.51-.98-2.19-2.89-2z"/><path d="m11.81 393.87h-5.49c.68-2.18 2.47-3.48 3.51-5.45h-3.08v-1.21h5.29c-.71 2.13-2.44 3.48-3.47 5.51.86 0 1.63.04 2.39-.01.79-.05 1.14.21.85 1.16"/><path d="m39.33 393.86v-6.61h3.7v1.07h-2.22v1.52c.68.04 1.34.09 2.07.13v1.07c-.72.05-1.38.09-2.1.14v1.48h2.4v1.19h-3.85z"/><path d="m27.71 388.56c-1.15-.3-2.46-.61-3.1.64-.37.73-.41 1.93-.06 2.67.63 1.35 1.99.93 3.17.68.35.94-.01 1.32-.93 1.46-1.62.25-3.05-.27-3.76-1.48-.73-1.24-.6-3.03.31-4.17.88-1.11 2.71-1.7 4-1.16.32.13.44.74.65 1.12-.1.08-.19.16-.28.24"/><path d="m49.15 387.24v1.07c-.59.02-1.17.05-1.87.08v5.44h-1.48v-5.44h-1.85c-.05-.4-.08-.73-.13-1.15z"/><path d="m20.06 387.21h1.33v6.62h-1.33z"/><path d="m30.68 393.25c-.49.38-.8.79-1.05.76-.32-.05-.6-.45-.9-.7.26-.24.51-.64.8-.67.29-.04.62.3 1.15.61"/></g><path d="m250.44 223.91c6.35 0 12.37-.06 18.37.01 8.61.1 17.25-.02 25.83.57 4 .28 7.99 1.78 11.83 3.16 2.5.9 3.52 3.22 3.59 5.95.07 2.82-2.03 3.43-3.97 4.26-10.21 4.37-20.79 4.33-31.64 3.22-6.5-.67-13.13-.11-19.69.15-.91.04-2.44 1.4-2.54 2.28-1.06 9.55-1.89 19.12-2.85 29.44 6.59 0 12.81-.12 19.02.02 12.97.29 25.94.59 38.9 1.15 6.65.29 9.27 3.9 7.85 10.29-.19.85-1.27 1.71-2.15 2.16-6.58 3.4-13.77 3.68-20.93 3.69-21.16.04-42.31.05-63.47-.12-8.94-.07-17.88-.63-26.82-.95-1.21-.04-2.43-.01-4.15-.01-.34 6.99-1.07 13.88-.94 20.76.32 16.67 1.16 33.33 1.49 50 .07 3.71-.8 7.52-1.71 11.16-.69 2.75-2.81 4.15-5.88 3.84-2.93-.3-4.64-1.52-4.99-4.69-1.12-9.98-3.34-19.93-3.44-29.91-.32-31.1-.06-62.22.37-93.33.28-20.88 2.41-41.61 10.1-61.25 3.61-9.23 8.19-18.1 12.69-26.94 1.27-2.48 3.79-4.36 5.83-6.41 5.1-5.14 10.25-10.22 15.57-15.52-11.1-7.33-21.82-14.4-32.1-21.18-3.73 3.39-7.27 6.61-10.81 9.81-3.4 3.07-7.26 4.32-11.75 2.88-.69-.22-1.56-.62-1.87-1.19-1.35-2.49.29-10.72 2.42-12.74 12.02-11.4 23.79-23.08 36.2-34.04 5.03-4.44 11.34-7.5 17.3-10.77 2.99-1.64 3.93-3.69 4.14-6.89.69-10.47 1.6-20.93 2.58-31.38.19-2.06 1.11-4.06 1.68-6.04 5.58.19 10.01 3.61 10.3 9.12.32 5.97-.55 12.01-.84 18.01-.18 3.8-.19 7.6-.4 11.4-.13 2.24.9 3.23 2.86 4.26 9.08 4.77 18.07 9.71 26.98 14.79 2.2 1.25 4.01 3.21 5.9 4.95 8.06 7.42 9.41 15.38 4.22 25.02-.51.94-1.33 1.78-2.17 2.47-5.54 4.54-11.12 9.03-16.68 13.54-.84.68-1.65 1.41-3.05 2.6 4.43.3 8.15.6 11.87.81 12.51.69 25.01 1.4 37.52 1.99 2.91.14 4.65 1.4 5.25 4.17.59 2.71.22 4.86-2.73 6.36-6.54 3.33-13.56 5.08-20.71 4.81-11.7-.44-23.37-1.77-35.05-2.76-2.32-.2-4.63-.55-7.17-.86v31.52c7.92 0 15.72-.15 23.51.04 8.82.22 17.64.67 26.45 1.19 1.96.12 3.92.86 5.8 1.55 2.62.96 3.63 3.02 3.69 5.79.06 2.87-1.91 3.4-3.98 4.07-7.86 2.53-15.95 3.33-24.15 3.35-9.73.03-19.46.01-29.68.01-.58 10.02-1.17 19.87-1.8 30.36zm.39-104.57c.81-.22 1.29-.23 1.62-.46 5.85-3.91 11.73-7.78 17.46-11.86.81-.58 1.34-2.28 1.2-3.35-.67-4.96-4.03-8.22-8.02-10.59-9.09-5.4-18.8-9.3-29.41-10.39-1.43-.15-3.29.45-4.43 1.36-7.41 5.94-14.68 12.05-21.99 18.12-.81.67-1.55 1.41-2.17 1.98 8.79 9.87 20.41 14.39 31.85 20.06.25-1.51.56-2.68.63-3.86.23-4.02.13-8.06.62-12.04.39-3.17 1.2-6.35 2.34-9.34.38-.99 2.34-1.96 3.57-1.94 3.86.07 5.8 2.59 6.06 7.37.25 4.9.43 9.8.67 14.94zm-52.66 121.41v32.85c13.35-.34 26.7-.68 40.38-1.02-.59-10.41-1.16-20.42-1.75-30.74-12.83-.36-25.4-.71-38.63-1.09zm38.9-46.94c-10.55 0-20.43 0-30.36 0-1.85 10.5-3.67 20.79-5.56 31.54 12.36-.59 24.31-1.16 35.92-1.72 0-10.24 0-19.93 0-29.82zm.05-44.82c-5.53 4.99-11.31 10.21-17.09 15.42-4.03 3.62-4.58 8.87-7.06 13.74 8.59-.39 16.46-.74 24.16-1.09-.01-9.92-.01-19.51-.01-28.07z" fill="#010105"/><path d="m162.54 157.77c-.62 29.33-1.24 51.15-7.05 72.36-2.06 7.5-4.85 14.86-8.04 21.96-4.67 10.42-13.92 14.5-24.61 15.09-5.25.29-10.62-.95-15.9-1.72-5.73-.84-10.11-3.88-13.24-8.75-3.07-4.79-6.21-9.55-9.18-14.41-.73-1.19-1.06-2.69-1.34-4.09-3.93-19.72-4.57-39.68-4.56-59.72.01-18.56-.78-37.14-.45-55.69.16-8.88 1.85-17.77 3.33-26.58.97-5.81 2.85-11.46 4.24-17.2 1.43-5.88 5.61-9.24 10.71-11.62 7.77-3.63 15.75-6.27 24.58-4.97 2.97.44 6.03.21 9.04.45 13.35 1.04 21.07 9.11 24.8 21.12 1.83 5.89 2.41 12.24 2.97 18.43 1.92 20.91 3.57 41.85 4.7 55.34zm-69.23 38.16c.38 7.38.48 15.06 1.25 22.67.9 8.83 3.09 17.4 8.08 24.92 1.61 2.43 3.53 5.63 5.95 6.37 4.81 1.47 10.1 2.18 15.11 1.89 5.46-.32 10.79-2.95 12.57-8.53 3.45-10.82 6.35-21.85 8.96-32.91 1.04-4.42.7-9.17 1.02-14.41-18.03 0-35.07 0-52.94 0zm51.63-16.7c0-15.17 0-29.53 0-43.83-17.72 0-34.88 0-52.06 0v43.83zm.36-59.34c-.44-7.77-.46-14.83-1.33-21.78-1.53-12.32-5.91-17.22-16.66-19.77-1.3-.31-2.63-.74-3.94-.75-4.27-.04-8.7-.61-12.79.29-9.73 2.13-14.52 8.89-15.49 18.62-.17 1.65-.86 3.24-1.18 4.87-1.26 6.26-2.33 12.53-.14 18.52z" fill="#010105"/></svg>