<svg enable-background="new 0 0 400 400" viewBox="0 0 400 400" xmlns="http://www.w3.org/2000/svg"><g fill="#fbfafa"><path d="m37.59 393.81c-.92.31-1.52.05-2-.78-.7-1.2-1.52-2.34-2.47-3.78v4.59c-.55.03-.95.05-1.41.07-.03-.37-.06-.64-.06-.91 0-1.91 0-3.81 0-5.7 1.13-.41 1.77-.03 2.29.91.62 1.11 1.38 2.14 2.31 3.19v-4.2h1.35v6.61z"/><path d="m12.94 393.88v-6.75c1.9.19 3.93-.54 5.37 1.29.8 1.01.78 2.88.03 3.97-1.37 1.97-3.4 1.51-5.4 1.49m1.45-1.22c2.04.12 2.92-.58 2.89-2.21-.03-1.51-.98-2.19-2.89-2z"/><path d="m11.81 393.87h-5.49c.68-2.18 2.47-3.48 3.51-5.45h-3.08v-1.21h5.29c-.71 2.13-2.44 3.48-3.47 5.51.86 0 1.63.04 2.39-.01.79-.05 1.14.21.85 1.16"/><path d="m39.33 393.86v-6.61h3.7v1.07h-2.22v1.52c.68.04 1.34.09 2.07.13v1.07c-.72.05-1.38.09-2.1.14v1.48h2.4v1.19h-3.85z"/><path d="m27.71 388.56c-1.15-.3-2.46-.61-3.1.64-.37.73-.41 1.93-.06 2.67.63 1.35 1.99.93 3.17.68.35.94-.01 1.32-.93 1.46-1.62.25-3.05-.27-3.76-1.48-.73-1.24-.6-3.03.31-4.17.88-1.11 2.71-1.7 4-1.16.32.13.44.74.65 1.12-.1.08-.19.16-.28.24"/><path d="m49.15 387.24v1.07c-.59.02-1.17.05-1.87.08v5.44h-1.48v-5.44h-1.85c-.05-.4-.08-.73-.13-1.15z"/><path d="m20.06 387.21h1.33v6.62h-1.33z"/><path d="m30.68 393.25c-.49.38-.8.79-1.05.76-.32-.05-.6-.45-.9-.7.26-.24.51-.64.8-.67.29-.04.62.3 1.15.61"/></g><path d="m243.51 145.94c6.73 1.12 13.29 1.85 19.65 3.38 5.04 1.21 10.28 2.69 14.68 5.31 12.08 7.18 14.2 18.9 13.2 31.79-.67 8.58-4.52 14.61-12.74 17.87-4.66 1.85-9.04 4.41-13.62 6.47-1.88.84-2.67 1.78-2.52 4 1.56 23.44 3.01 46.89 4.47 70.34 1.49 23.9 2.97 47.79 4.45 71.69.21 3.46.42 6.92.65 10.38.18 2.72-.61 4.91-3.42 5.79-2.83.89-5.24 1-7.11-2.2-2.78-4.76-4.42-9.79-4.75-15.2-2.28-37.74-4.63-75.48-6.67-113.23-1.39-25.69-2.31-51.41-3.44-77.12-.05-1.22-.12-2.43-.19-3.92-5.29 0-10.46 0-16.03 0 0 1.23.02 2.43 0 3.63-.46 30.65-.19 61.34-1.64 91.95-1.05 22.18-4.47 44.25-6.68 66.39-.82 8.23-1 16.52-1.82 24.76-.57 5.76-1.39 11.54-2.7 17.17-.96 4.11-3.51 7.43-7.68 9.19-1.75.74-2.77.5-3.8-1.23-3.33-5.56-3.33-11.62-2.31-17.59 4.63-26.95 6.02-54.22 8.45-81.39 1.72-19.15 2.75-38.37 4.07-57.56.08-1.1.01-2.22.01-3.48-3.65-1.04-7.13-2.39-10.73-3-10.44-1.76-20.27-15.15-20.83-25.34-.45-8.34 1.02-16.24 4.38-23.83.31-.7.63-1.55 1.21-1.96 8.24-5.76 16.25-12.03 27.14-11.79 3 .07 6.02-.34 9.39-.56.58-2.8 1.15-5.58 1.79-8.68-4.09-1.41-7.89-3.03-11.85-4.03-10.33-2.62-15.81-10.04-19.29-19.3-3.56-9.48-3.09-19.32-1.6-29.14.2-1.32.71-2.61.84-3.93 1.07-10.88 8.07-16.43 17.68-19.43 12.9-4.02 26.01-3.93 39.15-1.39 14.16 2.73 21.92 15.03 23 26.47 1.04 10.95-.61 21.59-5.1 31.77-2.6 5.89-7.39 9.07-12.96 11.38-3.29 1.37-6.72 2.42-10.12 3.5-2.13.68-3.35 1.75-3.43 4.23-.06 2.52-.72 5.02-1.18 7.84zm-35.56-49.17c.89 4.13 1.19 8.62 2.88 12.51 1.68 3.83 4.01 8.53 7.38 10.25 10.18 5.17 21.08 4.69 31.39-.11 3.33-1.55 7.02-4.29 8.48-7.45 2.29-4.96 3.29-10.66 4.01-16.16 1.42-10.88-3.46-17.68-14.09-20.73-9.89-2.84-19.68-1.92-29.44.67-4.36 1.16-7.26 3.65-8.11 8.25-.76 4.16-1.62 8.3-2.5 12.77zm6.41 65.02c-4.15 1.95-8.18 3.81-12.18 5.75-.56.27-1.13.81-1.39 1.36-2.95 6.45-3.07 12.71.4 19.21 3.28 6.14 8.36 7.96 14.72 7.85 1.88-11.23 1.17-29.16-1.55-34.17zm48.38 33.7c5.05-3.17 9.32-5.74 13.45-8.51.78-.53 1.23-1.8 1.49-2.82 2.37-9.23-4.68-18.5-14.93-20-.01 10.15-.01 20.32-.01 31.33z" fill="#010105"/><path d="m319.94 373.25c-3.32.68-6.02 1.23-9.68 1.97-1-6.41-2.48-12.5-2.8-18.66-.65-12.62-.75-25.27-.94-37.91-.83-54.05-1.56-108.1-2.43-162.14-.36-22.38-1.02-44.75-1.46-67.12-.2-10.38-1.65-20.52-5.64-30.15-3.8-9.17-10.33-15.73-20.33-17.11-23.57-3.24-47.23-4.11-70.87-.42-3.3.52-6.51 1.6-9.79 2.25-11.19 2.22-15.26 11.09-18.85 20.29-3.8 9.74-4.49 20.07-4.71 30.36-.65 29.65-1.13 59.3-1.47 88.96-.66 58.08-1.15 116.16-1.78 174.25-.05 4.22-.35 8.47-.97 12.65-.38 2.58-1.7 4.89-4.85 5.23-3.4.37-6.1-.72-7.21-4.06-.94-2.82-1.97-5.81-1.94-8.71.3-30.88.8-61.76 1.25-92.64.74-49.91 1.39-99.81 2.29-149.72.32-17.77.24-35.67 5.15-52.97 2.43-8.57 5.67-16.92 8.78-25.28.6-1.61 2.07-3.19 3.55-4.15 13.41-8.67 28.5-11.62 44.11-11.82 15.99-.21 32.01-.13 47.96.79 7.58.44 15.18 2.6 22.49 4.88 12.7 3.98 19.59 13.76 22.75 26.08 1.82 7.09 2.92 14.49 3.33 21.81 2.78 49.85 3.26 99.76 3.72 149.66.38 41.29.24 82.59.32 123.89.03 6.57.02 13.14.02 19.79z" fill="#010105"/><path d="m72.61 128.73c1.54-16.79 3.11-33.59 4.62-50.39.67-7.45 1.12-14.91 1.81-22.36.81-8.73 6.55-13.41 14.13-16.08 11.07-3.9 22.45-3.86 33.7-.95 10.19 2.64 14.26 10.77 16.4 20.14.59 2.59.69 5.31.84 7.98.8 14.39 1.49 28.78 2.32 43.16 1.09 18.69.84 37.38-1.27 55.95-1.58 13.85-3.96 27.64-6.54 41.35-1.22 6.46-3.85 12.72-8.83 17.38-9.74 9.13-21.51 10.41-33.77 4.12-8.6-4.41-13.17-12.13-14.66-20.91-2.97-17.5-4.99-35.18-6.91-52.83-.95-8.76-.81-17.64-1.16-26.47-.23-.03-.46-.06-.68-.09zm17.66 36c.72 8.16 1.2 15.96 2.16 23.7.71 5.72 1.42 11.59 3.3 16.98 1.53 4.38 3.98 9.18 7.48 11.96 5.27 4.19 14.94.73 18.23-5.32 4.1-7.54 6.81-15.6 7.76-24.07.87-7.68.84-15.47 1.21-23.25-13.76 0-26.69 0-40.14 0zm39.86-58.35c-13.5 0-26.53 0-39.61 0v43.05c13.56-.34 26.91-.68 40.65-1.03-.34-14.14-.69-27.95-1.04-42.02zm-.26-14.89c0-9.28.36-17.54-.17-25.75-.22-3.5-2-7.03-3.68-10.23-.69-1.32-2.91-2.43-4.53-2.58-6.11-.55-12.26-.71-18.39-.94-5.72-.21-9.25 2.43-10.59 7.82-.41 1.62-.83 3.25-1.14 4.89-1.53 8.01-3.19 15.99-1.71 24.24.37 2.08 1.16 2.79 3.26 2.71 4.8-.17 9.61-.14 14.41-.15 7.45-.02 14.91-.01 22.54-.01z" fill="#010105"/><path d="m237.01 89.04c4.33.35 8.71.42 12.98 1.14 3.82.64 6.16 3.33 7.34 7.06.58 1.83.16 2.8-1.58 3.7-6.9 3.6-14.28 4.45-21.84 3.73-4.54-.43-8.99-1.67-13.51-2.37-3-.47-2.77-2.72-3.01-4.77-.25-2.14-1.15-4.54 2-5.43 2.96-.84 5.87-1.97 8.88-2.41 2.85-.41 5.8-.09 8.71-.09.01-.19.02-.37.03-.56z" fill="#010105"/></svg>