<svg enable-background="new 0 0 400 400" viewBox="0 0 400 400" xmlns="http://www.w3.org/2000/svg"><path d="m361.2 9.6.8-1c.9.7 1.9 1.4 2.9 2.3l-.9 1.1c-1-1-2-1.8-2.8-2.4zm.5 10.6c.9-2.1 1.6-4.3 2.3-6.7.4.2.8.4 1.3.6-.7 2.1-1.5 4.3-2.2 6.6zm.4-15.2.9-.9c1 .8 2 1.6 2.8 2.4l-1 1c-.9-.9-1.8-1.7-2.7-2.5zm12.5-1.2h1.2v1.4h2.7v1.1h-2.7v2.7h-1.2v-.6h-1.8v1.3h4.9v3.8h-1.2v-.5h-3.7c0 .4-.1.9-.1 1.2h5.1v1h-5.2c0 .5-.1.9-.2 1.2h6v1h-5.2c1.1 1.3 2.9 2 5.5 2.2-.4.4-.7.8-.9 1.3-2.9-.5-4.8-1.6-5.7-3.5h-.1c-.8 1.7-2.7 2.9-5.9 3.6-.2-.4-.6-.8-.9-1.1 2.8-.6 4.6-1.4 5.4-2.5h-4.8v-1h5.3c.1-.3.2-.7.2-1.2h-4.9v-1h5c0-.4 0-.8.1-1.2h-3.5v.5h-1.2v-3.8h4.9v-1.3h-1.8v.5h-1.2v-2.7h-2.7v-1h2.6v-1.4h1.2v1.4h4.7v-1.4zm-6.6 8.3h3.6c0-.4 0-.9 0-1.4h-3.6zm1.9-4.6h4.7v-1.3h-4.7zm6.6 3.2h-3.7v1.4h3.7z" fill="#fbfcfa"/><path d="m385.3 3.8h1.3v2.2h2.8v-2.2h1.3v2.2h4.1v9.1h1.7v1.3h-16.9v-1.3h1.7v-9.1h4.1v-2.2zm.4 13.1.7 1.2c-1.8.9-3.8 1.9-6 2.9-.2-.4-.5-.8-.8-1.3 2.3-1 4.3-1.9 6.1-2.8zm-3.1-6.4h2.8v-3.2h-2.8zm0 4.6h2.8v-3.3h-2.8zm4-4.6h2.8v-3.2h-2.8zm0 4.6h2.8v-3.3h-2.8zm3.7 1.9c2.1.9 4.1 1.8 6.1 2.7l-.7 1.3c-2.2-1.1-4.2-2-6.1-2.9zm3.2-9.7h-2.8v3.2h2.8zm-2.8 7.8h2.8v-3.3h-2.8z" fill="#fbfcfa"/><g fill="#010102"><path d="m114.94 189.66c-9.8 0-18.63.11-27.46-.06-3.08-.06-6.28-.44-9.2-1.39-4.37-1.43-5.79-5.32-3.78-9.45.4-.82 1.57-1.55 2.51-1.79 9.08-2.29 18.33-2.59 27.65-2.45 11.49.17 22.99.04 34.67.04 0-34.27 0-68.25 0-102.7-4.88 1.15-9.61 2.25-14.32 3.41-.5.12-.97.54-1.34.93-6.55 6.93-13.3 13.9-16.67 22.93-2.35 6.3-3.33 13.16-4.43 19.86-1.4 8.49-2.21 17.08-3.44 25.61-.77 5.34-3.93 8.48-8.15 8.01-1.36-.15-3.17-1.28-3.76-2.46-4.51-9.02-4.62-18.62-2.47-28.18 3.31-14.77 7.56-29.55 15.41-42.37 5.79-9.47 15.08-16.77 25.73-21.27 3.23-1.36 7.04-1.29 10.45-2.29 1.32-.39 3.02-1.8 3.27-3.01.61-2.91.73-5.98.55-8.96-.36-6.05-.28-11.84 4.13-16.74 1.78-1.98 3.19-2.54 5.56-.8 4.91 3.61 6.54 7.59 5.51 13.68-.61 3.61-.89 7.3-1.04 10.97-.11 2.9 1.14 4.89 4.17 6.04 5.43 2.05 10.59 4.84 16.05 6.8 5.43 1.96 9.48 5.39 12.64 9.99 13.28 19.32 20.72 40.5 20.07 64.16-.09 3.2-.83 6.43-1.6 9.56-1.06 4.31-4.74 6.09-8.75 4.23-1.07-.5-2.21-1.88-2.43-3.03-2.75-14.16-5.73-28.28-7.88-42.54-2.76-18.27-14.53-29.76-30.66-34.36 0 8.77.1 17.34-.02 25.9-.35 23.95-.74 47.9-1.25 71.85-.07 3.1.71 4.47 3.98 4.49 10.61.06 21.23.16 31.84.51 5.66.19 11.39.49 16.94 1.53 4.18.78 7.45 3.52 8.67 8.31-5.2 3.39-11.03 4.52-17.11 4.57-4.92.05-9.84-.27-14.76-.27-2.3 0-4.61.35-7.56.6 0 12.05-.51 23.79.11 35.47 1.11 20.89 2.52 41.79 4.55 62.61.98 10.07 3.49 20.02 5.57 29.96 3.04 14.55 6.39 29.04 9.42 43.59.56 2.69.41 5.57.25 8.35-.16 2.79-1.52 4.97-4.56 5.39-2.92.4-5.37.42-7.27-2.93-6.26-11.05-8.69-23.21-10.82-35.42-3.5-20.16-6.99-40.34-9.73-60.61-1.57-11.61-1.85-23.41-2.35-35.15-.68-16.1-1.02-32.22-1.52-48.33-.02-.77-.12-1.54-.2-2.54-9.54 0-19 0-28.83 0-.34 4.32-.71 8.64-1 12.96-1.88 28.14-3.58 56.29-5.67 84.42-1.62 21.74-1.76 43.63-5.97 65.13-.64 3.27-1.53 6.54-2.75 9.63-.71 1.79-2.08 3.5-3.57 4.75-4.92 4.16-9.37 2.76-11.28-3.31-1.5-4.78-1.29-9.64.23-14.22 6.36-19.19 6.55-39.17 7.94-59 1.98-28.25 3.9-56.5 5.71-84.75.3-5.11.02-10.25.02-15.86z"/><path d="m236.99 54.97c7.55 2.03 11.39 6.63 11.08 14.33-.33 8.11-1.82 16.18-2.82 24.26-.98 7.87-2.29 15.73-1.03 24.06 19.23.57 38.38 1.14 57.86 1.72 0-1.43.03-2.52 0-3.6-.5-14.43-1.12-28.85-1.43-43.28-.09-4.08.61-8.21 1.21-12.27.41-2.81 2.4-4.26 5.22-4.25 2.77.01 5.82-.18 6.93 3.26 1.06 3.28 2.45 6.58 2.72 9.95 1.43 17.6 2.91 35.21 3.69 52.84.96 21.8 1.75 43.67-3.03 65.19-1.47 6.61-3.81 13.07-6.24 19.41-2.96 7.71-9.95 11.17-17.04 13.53-17.3 5.75-34.39 4.29-50.16-4.78-3.87-2.23-6.3-7.66-8.44-12.08-5.49-11.34-7.41-23.63-8.09-36.09-1.35-24.65-.14-49.2 2.99-73.68.88-6.87.59-13.9 1.7-20.72.99-5.98 3.18-11.75 4.88-17.8zm66.32 79.7c-19.91 0-39.42 0-59.78 0 0 13.59-.31 26.99.1 40.37.31 10.08 4.12 19.13 10.47 27.02.68.84 1.54 1.67 2.5 2.12 7.25 3.37 14.84 4.72 22.82 3.49 12.95-2 19.17-7.44 22.04-20.05 3.98-17.42 2.51-35.09 1.85-52.95z"/></g></svg>