<svg enable-background="new 0 0 400 400" viewBox="0 0 400 400" xmlns="http://www.w3.org/2000/svg"><path d="m196.18 120.31c1.06-6.19 1.78-12.08 3.15-17.81.79-3.31 2.6-6.39 4.01-9.55 4.33-9.67 13.07-12.15 22.39-13.52 4.53-.66 9.11-.99 13.68-1.38 6.51-.57 9.91-3.78 10.03-10.25.06-3.2-.56-6.45-1.21-9.6-.19-.91-1.43-1.86-2.42-2.31-8.72-3.94-17.95-3.95-27.29-3.74-9.6.21-19.22-.03-28.81-.37-2.58-.09-3.73.54-4.61 2.95-2.3 6.3-4.66 12.59-7.45 18.67-1.19 2.6-3.14 5.16-5.38 6.91-6.88 5.38-15.01 8.32-23.34 10.66-14.38 4.03-28.96 6.78-43.97 6.55-1.45-.02-2.91-.07-4.35-.24-7.19-.83-7.19-.85-7.3-8.92 7.67-1.42 15.43-2.85 23.2-4.29 10.87-2.01 21.74-4.01 32.61-6.08 1.3-.25 2.54-.85 3.82-1.26 8.06-2.61 14.37-6.81 16.17-15.96.72-3.66 2.57-7.1 4.12-11.19-4.17-1.29-8.13-2.71-12.19-3.72-6.94-1.73-14.01-2.95-20.89-4.9-3.9-1.11-7.79-2.83-11.19-5.03-3.75-2.42-4.39-6.32-2.59-11.31 4.25.78 8.83.98 12.92 2.49 17.46 6.46 35.9 8.25 53.94 11.95 13.32 2.73 26.69 2.11 40.11 1.49 7.3-.33 14.28 1.58 20.49 5.36 5.39 3.27 8.69 8.47 8.23 14.84-.45 6.18-2.02 12.28-3.25 18.39-.2.99-1.01 2.02-1.82 2.69-6 5-12.72 8.07-20.72 8.39-4.31.17-8.65.95-12.84 2.01-5.82 1.47-9.39 5.59-10.67 11.35-1.13 5.1-1.74 10.31-2.68 16.1h4.21c22.95 0 45.9-.02 68.84.02 3.01.01 6.05.15 9.03.53 1.61.21 3.32.77 4.66 1.66 4.25 2.85 4.1 7.39-.63 8.95-4.8 1.58-9.96 2.66-15 2.8-9.49.26-19-.53-28.5-.49-33.46.16-66.92.4-100.38.82-5.67.07-11.32 1.13-16.98 1.78-.88.1-1.72.45-2.58.7-6.56 1.91-10.21 5.95-11.04 13.04-1.16 9.96.01 19.71 2.01 29.33 5.79 27.89 5.63 55.97 3.98 84.21-1.83 31.44-6.86 62.47-11.19 93.59-.42 3.04-1.53 6.05-2.71 8.91-1.04 2.54-3.48 3.92-6.01 2.97-1.26-.48-2.57-2.85-2.56-4.35.1-8.47-.13-17.04 1.09-25.38 5.22-35.68 9.5-71.4 9.35-107.55-.07-16.86-2.48-33.44-4.71-50.07-1.63-12.18-3.52-24.41-1.01-36.72.65-3.17 1.37-6.35 2.4-9.4.42-1.24 1.61-2.38 2.72-3.2 8.46-6.28 18.18-8.99 28.54-9.45 16.76-.74 33.52-1.3 50.28-1.94.78 0 1.54-.08 2.29-.13z" fill="#010103"/><path d="m181.82 227.51c-8.3 0-16.11.13-23.91-.04-6.25-.13-12.53-.28-18.72-1.07-4.84-.62-6.98-3.49-6.78-7.29.1-1.86.73-2.91 2.81-3.42 9.25-2.27 18.63-2.11 28.04-2.05 12.29.08 24.58.02 37.38.02 0-15.8 0-31.4 0-47.27-3.38-.99-6.87-.14-10.11 1.31-6.93 3.09-13.65 6.37-19.06 12.12-4.18 4.44-9.31 8-14.14 11.79-1.28 1-2.94 1.71-4.54 2.05-1.36.3-3.54.43-4.18-.34-.99-1.19-1.73-3.47-1.25-4.82 1.02-2.88 2.29-6.18 4.51-8.03 8.42-6.97 17.24-13.47 25.97-20.07 5.61-4.24 12.48-5.31 19-7.17 2.73-.78 4.1-2.23 4.65-4.94.92-4.57 2.05-9.1 3.07-13.53 7.35.08 9.68 2.7 8.94 9.47-.57 5.15.8 7.51 5.74 9.02 16.26 4.95 31.25 12.21 43.64 24.08 2.7 2.58 5.05 5.67 6.95 8.89 1.34 2.25 1.79 5.26-.48 7.46-2.47 2.4-5.26 1.43-7.69-.18-1.84-1.22-3.48-2.78-5.09-4.32-11.26-10.76-23.9-19.12-39.24-22.86-.75-.18-1.52-.31-2.91-.58v47.66c5.4 0 11.17-.09 16.94.02 15.66.29 31.31.63 46.96 1.06 1.97.05 4.26.3 5.79 1.35 1.65 1.13 3.03 3.18 3.61 5.1.23.75-1.86 2.64-3.24 3.35-7.4 3.82-15.46 2.91-23.37 2.95-6.36.03-12.71.01-19.36.01 0 7.45-.37 14.69.06 21.87 2.12 34.83 10.34 68.72 16.11 102.99.83 4.93.9 10 1.16 15.02.15 2.92-1.23 4.97-4.25 5.55-2.98.57-4.93-.39-6.34-3.37-3.91-8.26-4.86-17.16-6.24-25.98-3.94-25.3-8.11-50.57-11.59-75.93-1.42-10.38-1.3-20.98-1.88-31.47-.14-2.56-.25-5.11-.4-8.19-10.89 0-21.54 0-32.48 0-.4 8.8-.54 17.85-1.27 26.85-1.25 15.49-2.7 30.96-4.39 46.41-1.72 15.79-3.67 31.55-5.84 47.28-.9 6.51-2.33 12.99-4.06 19.33-1.48 5.43-4.87 7.85-9.36 7.37-1.13-.12-2.97-1.3-3.07-2.16-.49-4.15-1.54-8.65-.49-12.5 6.73-24.78 7.44-50.39 11.05-75.59 2.52-17.64 4.02-35.34 3.34-53.17-.02-1.12.01-2.22.01-4.04z" fill="#010103"/><g fill="#fcfbfa"><path d="m377.9 391.2c-.2.3-.4.5-.6.8-.7-.6-1.4-1-2.2-1.5.2-.3.4-.5.5-.8.6.4 1.4.8 2.3 1.5zm-1.8 6.1c-.2-.2-.5-.4-.9-.6.4-.6.8-1.2 1.2-1.9s.7-1.3.9-1.9c.3.3.5.5.8.7-.7 1.3-1.4 2.6-2 3.7zm2.2-9c-.3.3-.5.5-.6.8-.6-.6-1.3-1.1-2-1.5.3-.3.5-.5.6-.7.6.5 1.3.9 2 1.4zm.3.2v-.9h2 4.5c-.3 1.3-.6 2.5-1 3.6s-.9 2.1-1.4 3c.4.5 1 1 1.6 1.4s1.2.8 1.9 1.1c-.3.2-.5.4-.8.8-.4-.3-1-.7-1.6-1.2s-1.2-1.1-1.6-1.6c-.5.6-1.1 1.1-1.7 1.6s-1.4.9-2.1 1.4c-.1-.3-.3-.5-.7-.8.6-.2 1.2-.5 1.9-1s1.4-1.1 2-1.8c-.5-.8-.9-1.6-1.2-2.5s-.6-2-.8-3.2c-.4.1-.7.1-1 .1zm2.5 2.7c.3 1 .7 1.7 1 2.2.3-.5.6-1.1 1-2s.6-1.9.9-3h-3.2-.4c.1.9.3 1.8.7 2.8z"/><path d="m396.5 388.5v1.5 3.6h1.5v.9c-.4 0-1 0-1.7 0h-7.9c-.5 0-.9 0-1.2 0v-.9h1.3v-3.5c0-.7 0-1.2 0-1.6h2.4c0-.8 0-1.4 0-1.7h1c0 .3-.1.8-.1 1.7h1.5c0-.8 0-1.4 0-1.7h1c0 .3-.1.9-.1 1.7zm-8.2 9.2c-.2-.3-.5-.5-.8-.8.8-.3 1.4-.6 1.9-.9s1-.7 1.4-1.1c.3.3.6.5.9.8-1.6 1-2.8 1.6-3.4 2zm2.6-6.8v-1.6h-1.5v1.6zm0 2.7v-1.9h-1.5v1.9zm2.4-2.7v-1.6h-1.5v1.6zm0 2.7v-1.9h-1.5v1.9zm.2 2 .7-.8c.4.2.9.5 1.6.8s1.3.7 1.8 1c-.3.3-.5.5-.8.8-.4-.3-1.5-1-3.3-1.8zm2-4.7v-1.6h-1.4v1.6zm0 2.7v-1.9h-1.4v1.9z"/></g></svg>