<svg enable-background="new 0 0 400 400" viewBox="0 0 400 400" xmlns="http://www.w3.org/2000/svg"><g fill="#fbfafa"><path d="m37.59 393.81c-.92.31-1.52.05-2-.78-.7-1.2-1.52-2.34-2.47-3.78v4.59c-.55.03-.95.05-1.41.07-.03-.37-.06-.64-.06-.91 0-1.91 0-3.81 0-5.7 1.13-.41 1.77-.03 2.29.91.62 1.11 1.38 2.14 2.31 3.19v-4.2h1.35v6.61z"/><path d="m12.94 393.88v-6.75c1.9.19 3.93-.54 5.37 1.29.8 1.01.78 2.88.03 3.97-1.37 1.97-3.4 1.51-5.4 1.49m1.45-1.22c2.04.12 2.92-.58 2.89-2.21-.03-1.51-.98-2.19-2.89-2z"/><path d="m11.81 393.87h-5.49c.68-2.18 2.47-3.48 3.51-5.45h-3.08v-1.21h5.29c-.71 2.13-2.44 3.48-3.47 5.51.86 0 1.63.04 2.39-.01.79-.05 1.14.21.85 1.16"/><path d="m39.33 393.86v-6.61h3.7v1.07h-2.22v1.52c.68.04 1.34.09 2.07.13v1.07c-.72.05-1.38.09-2.1.14v1.48h2.4v1.19h-3.85z"/><path d="m27.71 388.56c-1.15-.3-2.46-.61-3.1.64-.37.73-.41 1.93-.06 2.67.63 1.35 1.99.93 3.17.68.35.94-.01 1.32-.93 1.46-1.62.25-3.05-.27-3.76-1.48-.73-1.24-.6-3.03.31-4.17.88-1.11 2.71-1.7 4-1.16.32.13.44.74.65 1.12-.1.08-.19.16-.28.24"/><path d="m49.15 387.24v1.07c-.59.02-1.17.05-1.87.08v5.44h-1.48v-5.44h-1.85c-.05-.4-.08-.73-.13-1.15z"/><path d="m20.06 387.21h1.33v6.62h-1.33z"/><path d="m30.68 393.25c-.49.38-.8.79-1.05.76-.32-.05-.6-.45-.9-.7.26-.24.51-.64.8-.67.29-.04.62.3 1.15.61"/></g><path d="m276.12 92.66c0-13.77 0-27.17 0-40.93-4.68-.62-9.65-1.2-14.6-1.95-4.55-.68-7.62-5.12-5.35-8.74 1.45-2.32 4.91-4.71 7.52-4.77 14.41-.33 28.85-.28 43.25.34 5.54.24 11.02 2.32 13.5 8.64-4.17 4.13-9.19 5.16-14.75 4.85-3.34-.19-6.7-.12-10.05-.06-2.27.04-3.16 1.15-3.21 3.59-.2 11.75-.56 23.5-.99 35.24-.09 2.33.68 3.23 2.97 3.27 7.04.13 14.08.34 21.12.54 5.3.15 8.76 2.71 10.07 7.27.58 2.01.27 3.22-1.88 4.14-6.06 2.58-12.33 2.79-18.76 2.42-2.99-.17-6.01.23-9.02.33-2.68.09-3.43 1.42-3.41 4.07.21 22.95.24 45.9.38 68.84.14 23.73.18 47.46.54 71.19.5 33.24 1.33 66.47 1.85 99.7.07 4.54-.67 9.12-1.3 13.64-.39 2.82-2.07 4.65-5.22 4.65-3.87 0-5.55-1.25-6.45-4.73-3.82-14.8-3.6-29.88-3.49-45.01.2-29.65.1-59.31-.18-88.96-.27-28.99-.85-57.97-1.45-86.95-.23-11.08-.93-22.14-1.3-33.21-.06-1.84-.77-2.7-2.44-2.87-3.55-.36-7.11-.73-10.67-.95-2.7-.16-4.9-.73-5.17-3.98-.36-4.2 1.06-6.67 4.32-7.23 4.47-.79 8.99-1.52 14.17-2.38z" fill="#010105"/><path d="m205.93 53.51c-6.19-.31-12.21-.61-18.23-.92-1-.05-2.03-.05-3.01-.26-4.25-.91-6.97-4.7-6.69-9.19.12-1.94 5.21-5.4 8.11-5.3 14.64.51 29.28 1.09 43.92 1.64 3.58.13 7.16.33 10.73.31 1.79-.01 2.66.53 2.88 2.37.26 2.2.77 4.36 1.22 6.81-6.75 1.18-13.36 2.28-19.92 3.56-.92.18-2.32 1.28-2.36 2.02-.7 12.27-1.23 24.56-1.82 37.4 6 .41 11.77.77 17.54 1.22 5.19.4 7.5 2.29 8.94 6.67.75 2.29.25 3.8-2.06 4.31-6.64 1.44-13.31 2.78-19.98 4.07-1.73.33-3.51.35-5.57.54v3.92c0 57.21-.11 114.42.05 171.62.07 24.85.8 49.69 1 74.53.03 3.95-.96 7.95-1.78 11.87-.52 2.48-2.12 4.36-4.96 4.04-2.7-.3-5.39-.95-5.74-4.44-.63-6.32-1.71-12.64-1.81-18.97-.34-20.36-.32-40.72-.45-61.08-.24-37.83-.4-75.67-.77-113.5-.22-22.27-.77-44.54-1.17-66.81-.01-.66-.09-1.32-.2-2.77-4.46-.17-8.87-.4-13.27-.49-2.68-.05-5.38.32-8.04.13-3.3-.23-4.88-2.25-4.88-5.64 0-4.36.96-5.84 4.61-6.15 5.24-.45 10.5-.62 15.75-.95 5.73-.36 5.86-.45 6.2-6.11.62-10.17 1.17-20.34 1.73-30.5.08-1.21.03-2.43.03-3.95z" fill="#010105"/><path d="m90.55 202.94c-1.59 32.94-3.47 71.95-5.36 110.96-.46 9.48-.68 18.99-1.59 28.44-.54 5.63-4.04 8.38-8.7 8.53-2.12.07-3.23-.74-3.92-2.73-2.71-7.74-3.5-15.82-2.93-23.84 1.21-17.17 3.14-34.29 4.57-51.45.56-6.79.6-13.63.81-20.45 1.44-46.54 2.79-93.07 4.34-139.61.36-10.83 1.43-21.64 2.06-32.47.27-4.57.5-9.17.32-13.75-.39-9.86 1.12-19.4 4.36-28.68.44-1.26 1.47-2.49 2.55-3.31 7.42-5.61 16.04-7.84 25.14-8.1 14.76-.41 29.53-.56 44.3-.74 2.56-.03 5.21.01 7.67.61 2.3.56 4.8 1.48 6.53 3 3.98 3.48 3.29 6.88-1.41 9.05-10.36 4.77-21.29 4.3-32.3 3.73-8.79-.45-17.68-1.08-26.41-.35-13.42 1.12-17.19 4.99-17.92 20.15-.73 15.28.54 30.65.28 45.97-.5 29.67-1.46 59.31-2.39 95.04z" fill="#010105"/><path d="m113.81 132.22c.29-18.38 1.75-36.63 6.09-54.55.38-1.59 1.44-3.3 2.69-4.35 7.24-6.06 15.71-8.4 25.02-7.08 4.6.65 9.28 1.56 13.59 3.22 4.16 1.61 6.86 4.82 7.49 9.82 1.8 14.3 4.79 28.49 5.88 42.83 1.52 19.99.25 39.83-9.42 58.15-5.15 9.75-15.27 14.01-26.38 12.49-8.98-1.23-12.71-7.43-16.13-14.26-6.82-13.65-9.2-26.7-8.83-46.27zm44.7-10.57c-.19-.01-.38-.02-.57-.03 0-6.93.23-13.86-.08-20.77-.22-4.96-.94-9.93-1.85-14.81-.46-2.47-2.43-3.75-5.18-3.86-3.35-.12-6.68-.59-10.02-.89-5.76-.51-8.38 1.51-9.38 7.16-3.23 18.27-3.67 36.69-2.5 55.14.69 10.96 2.67 21.73 7.84 31.64.44.85.99 1.84 1.76 2.3 4.48 2.68 11.93.28 13.58-4.73 1.95-5.91 4.06-11.95 4.69-18.08 1.14-10.96 1.2-22.04 1.71-33.07z" fill="#010105"/></svg>