<svg enable-background="new 0 0 400 400" viewBox="0 0 400 400" xmlns="http://www.w3.org/2000/svg"><path d="m235.8 311.11c-.93-13.89-1.83-27.36-2.76-41.27-5.67-.24-11.09-.54-16.52-.69-12.97-.36-25.96-.31-38.91-1.05-11.32-.65-22.04-3.76-31.12-11-5.44-4.34-8.75-10.1-10.36-16.82-6.76-28.2-8.12-56.83-6.92-85.68.72-17.39 3.02-34.52 8.04-51.22.48-1.59 1.52-3.23 2.76-4.35 9.87-8.98 22.09-11.65 34.83-11.6 24.27.1 48.55.8 72.82 1.31 8.16.17 16.32.41 24.47.88 4.83.27 9.33 1.47 11.28 6.82.82 2.23.63 3.59-1.79 4.77-7.39 3.59-15.19 3.11-23.03 2.88-4.57-.14-9.15.02-13.72.16-2.84.09-4.19 1.24-4.12 4.55.45 20.14.64 40.28.93 60.43.01.99.13 1.98.26 3.76 7.5.17 14.94.42 22.38.49 6.48.07 12.99-.4 19.44-.01 7.65.46 11.96 4.11 13.49 10.53-6.58 4.87-14.14 5.97-22.13 5.86-10.59-.15-21.18-.04-32.32-.04 3.2 40.67 6.34 80.52 9.52 120.97 9.33 0 18.38-.13 27.42.04 9.5.18 19 .61 28.49 1.02 1.77.08 3.6.37 5.26.95 2.38.84 4.9 1.66 5.3 4.87.46 3.68-.37 6.33-4.12 8.02-6.54 2.94-13.37 3.36-20.35 3.25-30.21-.46-60.41-1.05-90.62-1.29-20.25-.16-40.52.42-60.77.15-7.44-.1-14.86-1.64-22.26-2.71-.84-.12-1.95-1.38-2.17-2.29-1.55-6.37-.37-8.64 6.06-10.41 3.39-.93 7.05-1.19 10.6-1.2 32.02-.09 64.04-.05 96.06-.05 1.3-.03 2.64-.03 4.58-.03zm-11.17-207.56c-1.61 0-2.82 0-4.04 0-12.2 0-24.42.39-36.61-.12-10.27-.42-20.02 1.11-29.42 5.06-1.22.51-2.64 1.84-2.93 3.04-1.88 7.81-3.81 15.64-5.09 23.57-1.94 12.07-2.92 24.2-.64 36.4.48 2.55 1.41 3.26 3.9 3.18 21.47-.68 42.93-1.26 64.4-1.83 3.86-.1 7.73-.01 11.83-.01-.47-23.44-.93-46.12-1.4-69.29zm.71 86.14c-26.06 0-51.82 0-77.64 0 0 8.75-.33 17.24.08 25.7.53 10.98 3.91 21.07 11.32 29.47 1.11 1.26 2.71 2.39 4.3 2.86 15.32 4.56 31.02 6.76 46.98 6.53 6.6-.1 13.17-1.34 19.9-2.08-1.69-21.39-3.3-41.77-4.94-62.48z" fill="#010103"/><path d="m100.96 184.01c-1.45 37.8-2.65 75.61-4.49 113.4-.7 14.5-2.85 28.94-4.36 43.4-.5 4.78-.68 9.65-1.73 14.31-.89 3.96-2.45 7.89-4.4 11.45-1.83 3.34-7.41 3.56-10.03.79-.5-.53-.65-1.61-.61-2.42 1.8-32.74 3.64-65.48 5.47-98.22 1.41-25.37 2.81-50.73 4.21-76.1 1.03-18.55 2.62-37.08 2.88-55.64.17-12.25-1.49-24.53-2.49-36.79-1.28-15.67-.13-31.06 4.76-46.07.35-1.08 1.16-2.18 2.05-2.89 11.17-8.94 24.02-13.78 38.19-14.82 33.85-2.49 67.77-2.25 101.68-2.17 13.55.03 27.1-.05 40.64.04 3.91.03 7.82.38 11.71.81 3.26.36 5.58 1.97 6.36 5.47.72 3.25.1 5.48-3.18 7.06-6.28 3.03-12.9 3.26-19.66 3.21-21.02-.17-42.05-.47-63.07-.28-20.58.18-41.16.83-61.74 1.42-7.49.21-14.97.71-22.44 1.3-5.94.47-11.47 2.19-15.47 6.99-2.71 3.26-4.3 6.88-4.1 11.35.71 15.54 1.65 31.09 1.7 46.63.05 17-.84 34-1.24 51-.13 5.59-.02 11.18-.02 16.78-.19-.01-.4-.01-.62-.01z" fill="#010103"/><g fill="#fcfbfa"><path d="m385.2 377.6.6-.7c.6.4 1.3.9 1.9 1.5l-.6.7c-.8-.5-1.4-1-1.9-1.5zm.3 7.1c.6-1.4 1.1-2.9 1.5-4.5.3.1.6.3.9.4-.5 1.4-1 2.9-1.5 4.4zm.2-10.1.6-.6c.7.5 1.3 1.1 1.9 1.6l-.7.7c-.6-.6-1.2-1.2-1.8-1.7zm8.4-.8h.8v.9h1.8v.7h-1.8v1.8h-.8v-.3h-1.2v.9h3.3v2.6h-.8v-.4h-2.5c0 .3 0 .6-.1.8h3.4v.7h-3.5c0 .3-.1.6-.1.8h4v.7h-3.5c.7.9 1.9 1.3 3.6 1.5-.2.2-.4.5-.6.9-1.9-.3-3.2-1.1-3.8-2.3-.5 1.1-1.8 2-3.9 2.4-.2-.3-.4-.5-.6-.8 1.9-.4 3.1-.9 3.6-1.7h-3.2v-.7h3.5c.1-.2.1-.5.2-.8h-3.3v-.7h3.4c0-.2 0-.5 0-.8h-2.4v.3h-.8v-2.6h3.3v-.9h-1.2v.3h-.8v-1.8h-1.8v-.7h1.8v-.9h.8v.9h3.2zm-4.4 5.5h2.4c0-.3 0-.6 0-.9h-2.4zm1.2-3.1h3.2v-.8h-3.2zm4.4 2.2h-2.4v.9h2.5v-.9z"/><path d="m389.2 385.8h.9v1.5h1.9v-1.5h.9v1.5h2.7v6h1.1v.9h-11.3v-.9h1.1v-6h2.7zm.2 8.7.5.8c-1.2.6-2.5 1.3-4 1.9-.2-.3-.3-.6-.6-.8 1.6-.6 3-1.3 4.1-1.9zm-2-4.3h1.9v-2.1h-1.9zm0 3.1h1.9v-2.2h-1.9zm2.7-3.1h1.9v-2.1h-1.9zm0 3.1h1.9v-2.2h-1.9zm2.4 1.3c1.4.6 2.7 1.2 4.1 1.8l-.5.9c-1.5-.7-2.8-1.4-4.1-1.9zm2.2-6.5h-1.9v2.1h1.9zm-1.9 5.2h1.9v-2.2h-1.9z"/></g></svg>