<svg enable-background="new 0 0 400 400" viewBox="0 0 400 400" xmlns="http://www.w3.org/2000/svg"><path d="m361.2 9.6.8-1c.9.7 1.9 1.4 2.9 2.3l-.9 1.1c-1-1-2-1.8-2.8-2.4zm.5 10.6c.9-2.1 1.6-4.3 2.3-6.7.4.2.8.4 1.3.6-.7 2.1-1.5 4.3-2.2 6.6zm.4-15.2.9-.9c1 .8 2 1.6 2.8 2.4l-1 1c-.9-.9-1.8-1.7-2.7-2.5zm12.5-1.2h1.2v1.4h2.7v1.1h-2.7v2.7h-1.2v-.6h-1.8v1.3h4.9v3.8h-1.2v-.5h-3.7c0 .4-.1.9-.1 1.2h5.1v1h-5.2c0 .5-.1.9-.2 1.2h6v1h-5.2c1.1 1.3 2.9 2 5.5 2.2-.4.4-.7.8-.9 1.3-2.9-.5-4.8-1.6-5.7-3.5h-.1c-.8 1.7-2.7 2.9-5.9 3.6-.2-.4-.6-.8-.9-1.1 2.8-.6 4.6-1.4 5.4-2.5h-4.8v-1h5.3c.1-.3.2-.7.2-1.2h-4.9v-1h5c0-.4 0-.8.1-1.2h-3.5v.5h-1.2v-3.8h4.9v-1.3h-1.8v.5h-1.2v-2.7h-2.7v-1h2.6v-1.4h1.2v1.4h4.7v-1.4zm-6.6 8.3h3.6c0-.4 0-.9 0-1.4h-3.6zm1.9-4.6h4.7v-1.3h-4.7zm6.6 3.2h-3.7v1.4h3.7z" fill="#fbfcfa"/><path d="m385.3 3.8h1.3v2.2h2.8v-2.2h1.3v2.2h4.1v9.1h1.7v1.3h-16.9v-1.3h1.7v-9.1h4.1v-2.2zm.4 13.1.7 1.2c-1.8.9-3.8 1.9-6 2.9-.2-.4-.5-.8-.8-1.3 2.3-1 4.3-1.9 6.1-2.8zm-3.1-6.4h2.8v-3.2h-2.8zm0 4.6h2.8v-3.3h-2.8zm4-4.6h2.8v-3.2h-2.8zm0 4.6h2.8v-3.3h-2.8zm3.7 1.9c2.1.9 4.1 1.8 6.1 2.7l-.7 1.3c-2.2-1.1-4.2-2-6.1-2.9zm3.2-9.7h-2.8v3.2h2.8zm-2.8 7.8h2.8v-3.3h-2.8z" fill="#fbfcfa"/><g fill="#010102"><path d="m244.1 289.05c-1.04 2.34-1.97 4.02-2.55 5.81-5.44 16.7-16.95 29.53-27.36 43.05-7.23 9.4-14.49 18.78-21.85 28.08-3.07 3.88-7.02 6.54-12.12 7.11-3.56.4-6.28-2.15-5.17-5.61 1.13-3.52 2.61-7.38 5.12-9.92 15.2-15.33 28.84-31.87 40.08-50.3 9.44-15.48 14.4-32.4 15.18-50.98-3.81-.92-7.63-2.09-11.54-2.75-21.66-3.67-31.4-18.07-33.15-37.71-1.31-14.72.68-29.21 5.54-43.3 1.63-4.71 4.7-7.61 8.57-10.21 8.53-5.73 18.23-7.71 28.16-9 .66-.09 1.3-.21 2.15-.35.09-.79.28-1.53.25-2.26-.28-8.05-.68-16.11-.84-24.16-.05-2.51-.89-3.6-3.34-4.42-9.23-3.09-17.33-7.81-22.09-16.85-3.12-5.94-4.61-12.31-5.1-18.96-.24-3.24-.64-6.46-.8-9.7-.1-1.98-.75-3.24-2.87-3.31-4.34-.15-8.68-.3-13.02-.39-.99-.02-1.99.33-2.99.37-2.45.11-5.55.66-6.48-2.11-.79-2.34-.28-5.19.04-7.76.07-.6 1.65-1.33 2.6-1.44 6.11-.74 12.22-1.48 18.35-1.89 2.62-.17 3.4-1.36 3.73-3.66 1.02-7.2 2.15-14.38 3.27-21.56.21-1.32.38-2.73.98-3.89.97-1.88.1-5.17 3.39-5.36 3.36-.19 7.41 2.84 7.82 6.17.36 2.93-.16 5.96-.34 8.95-.34 5.53-.71 11.05-1.1 17.02 16.44.61 31.91 1.18 48.29 1.78.18-5.17.43-10.12.48-15.07.04-3.24-.43-6.49-.28-9.72.18-3.97 2.09-6.95 5.92-8.6 2.31-1 3.99-.74 4.51 1.89 1.5 7.66 2.88 15.34 4.29 23.02.08.44.04.89.07 1.34.5 8.23 1.42 9.11 9.88 8.57 4.24-.27 8.44-.97 12.67-1.34 5.45-.48 8.9 1.68 10.62 6.24.92 2.44.67 4.22-2.12 4.8-5.67 1.18-11.33 2.44-17.05 3.27-3.97.57-8.03.56-12.05.61-1.84.02-2.46.64-2.73 2.46-1.2 7.96-2.9 15.86-3.83 23.85-1.02 8.74-5.96 14.32-13.43 17.83-4.4 2.07-9.22 3.23-14.13 4.88.53 8.91 1.02 17.94 1.71 26.96.06.81 1.33 2 2.22 2.2 5.33 1.22 10.68 2.63 16.1 3.17 16.33 1.63 26.18 10.65 31.08 25.91 3.74 11.63 3.5 23.42 1.46 35.18-1.06 6.12-2.61 12.32-5.08 17.98-4.83 11.05-14.04 17.01-25.7 19.13-5.58 1.02-11.27 1.43-17.07 2.14.82 11.28 2.25 22.24 7.47 32.22 7.04 13.47 14.39 26.78 21.66 40.12.57 1.05 1.57 1.89 2.43 2.76 11.55 11.57 23 23.24 34.75 34.6 2.77 2.68 2.09 5.48 1.11 7.89-.49 1.2-4.02 2.35-5.46 1.76-5.51-2.24-11.82-4.08-15.86-8.07-22.48-22.17-41.32-47.04-53.41-76.53-.2-.49-.5-.94-1.04-1.94zm-25.33-215.14c-.55 7.89-.03 15.18 2.3 22.3 2.17 6.61 6.35 10.94 13.49 11.84 3.1.39 6.23.91 9.33.84 9.21-.22 16.27-5.01 18.15-12.48 1.2-4.75 2.06-9.63 2.57-14.5.77-7.43.08-8-7.22-8-12.75 0-25.49 0-38.62 0zm67.41 124.78c1.7-21.18-15.23-31.17-35.18-30.19v30.19zm-34.88 43.95c7.77-2.07 15.41-3.43 22.5-6.18 8.68-3.37 13.06-12.09 12.2-21.5-.15-1.59-.34-2.78-2.47-2.66-10.69.57-21.38 1.04-32.24 1.55.01 9.5.01 18.72.01 28.79zm-16.87-74.32c-6.32-.53-12.92.59-17.59 3.49-2.9 1.8-6.51 3.76-7.78 6.57-2.07 4.57-2.95 9.84-3.49 14.91-.54 5.13.39 5.63 5.55 5.38.89-.04 1.79-.02 2.69-.02h22.4c-.63-10.63-1.2-20.42-1.78-30.33zm1.15 72.26c0-9.33 0-18.32 0-27.24-10.04 0-19.49 0-29.11 0-.91 8.71 1.42 16.57 7.96 21.61 5.95 4.57 13.18 8.19 21.15 5.63z"/><path d="m92.92 200.53c-1.15 35.51-2.13 66.17-3.15 96.82-.4 12.07-.79 24.14-1.42 36.2-.14 2.72-1.08 5.46-2 8.07-.45 1.28-1.53 2.51-2.63 3.36-3.63 2.8-7.29 1.63-8.71-2.67-2.97-9.03-3-18.33-1.91-27.59 2.79-23.73 3.1-47.56 3.46-71.4.48-32.68 1.4-65.36 1.62-98.04.07-10.7-1.72-21.39-2.16-32.11-.53-12.76-.21-25.51 2.91-38.03 3.58-14.34 6.62-18.64 23.77-21.8 17.66-3.26 35.62-3.4 53.54-2.8 2.42.08 5.03.44 7.16 1.48 2.18 1.07 4.38 2.81 5.67 4.83 2.05 3.19 1.12 4.99-2.48 6.21-9.96 3.36-20.22 3.46-30.53 2.53-9.71-.87-19.37-1.61-29.09.16-12.82 2.34-16.28 7.25-16.09 20.42.57 39.75 1.4 79.48 2.04 114.36z"/><path d="m108.36 140.57c.67-12.97 1.56-25.76 4.89-38.3.82-3.08 2.46-4.99 5.17-6.84 6.16-4.22 12.73-5.64 19.94-4.7 5.16.67 10.47.99 15.39 2.5 6.42 1.97 10.17 7.25 10.97 13.67 1.81 14.61 4.49 29.21 2.94 44.06-1.2 11.5-3.38 22.82-7.75 33.52-2.1 5.13-7.14 7.91-12.03 10.15-9.2 4.21-17.55 2.62-25.63-3.53-7.54-5.74-9.41-13.96-10.81-22.26-1.57-9.33-2.1-18.84-3.08-28.27zm14.83-7.43c.35 7.95.38 13.56.9 19.12.88 9.5 2.48 18.85 7.82 27.11 2.2 3.39 5.59 3.01 8.7 2.71 2.99-.28 6.06-1.38 7.07-4.72 1.26-4.16 2.61-8.36 3.17-12.64 2.38-18.11 1.68-36.11-2.15-54.02-.81-3.79-2.86-5.5-6.21-5.78-4-.34-8.05-.42-12.05-.17-2.83.18-4.89 1.59-5.14 5.01-.63 8.57-1.53 17.12-2.11 23.38z"/><path d="m320.02 172.36c-7.38.11-12.79-2.5-16.75-8.68-2.94-4.58-7-8.43-10.27-12.82-4.74-6.36-10.22-11.76-17.33-15.46-3.42-1.78-5.81-4.5-5.91-8.69-.08-3.58 2.26-5.79 5.74-4.75 3.83 1.14 7.74 2.43 11.15 4.45 12.88 7.65 23.82 17.43 31.2 30.67 2.59 4.63 3.98 9.69 2.17 15.28z"/><path d="m222.17 129.18c-.39.45-1.18 1.85-2.36 2.69-10.68 7.5-20.32 16.08-28.05 26.67-2.1 2.88-3.94 5.95-5.93 8.91-.62.93-1.28 1.84-2.01 2.68-2.5 2.9-7.28 4.42-9.63 3.11-1.99-1.11-2.8-6.17-1.66-9.63 1.66-5.05 4.21-9.45 7.92-13.37 4.83-5.1 9.19-10.66 13.8-15.98 4.94-5.71 11.13-9.57 18.2-12.1 5.49-1.95 9.64.52 9.72 7.02z"/></g></svg>