<svg enable-background="new 0 0 400 400" viewBox="0 0 400 400" xmlns="http://www.w3.org/2000/svg"><g fill="#fbfafa"><path d="m37.59 393.81c-.92.31-1.52.05-2-.78-.7-1.2-1.52-2.34-2.47-3.78v4.59c-.55.03-.95.05-1.41.07-.03-.37-.06-.64-.06-.91 0-1.91 0-3.81 0-5.7 1.13-.41 1.77-.03 2.29.91.62 1.11 1.38 2.14 2.31 3.19v-4.2h1.35v6.61z"/><path d="m12.94 393.88v-6.75c1.9.19 3.93-.54 5.37 1.29.8 1.01.78 2.88.03 3.97-1.37 1.97-3.4 1.51-5.4 1.49m1.45-1.22c2.04.12 2.92-.58 2.89-2.21-.03-1.51-.98-2.19-2.89-2z"/><path d="m11.81 393.87h-5.49c.68-2.18 2.47-3.48 3.51-5.45h-3.08v-1.21h5.29c-.71 2.13-2.44 3.48-3.47 5.51.86 0 1.63.04 2.39-.01.79-.05 1.14.21.85 1.16"/><path d="m39.33 393.86v-6.61h3.7v1.07h-2.22v1.52c.68.04 1.34.09 2.07.13v1.07c-.72.05-1.38.09-2.1.14v1.48h2.4v1.19h-3.85z"/><path d="m27.71 388.56c-1.15-.3-2.46-.61-3.1.64-.37.73-.41 1.93-.06 2.67.63 1.35 1.99.93 3.17.68.35.94-.01 1.32-.93 1.46-1.62.25-3.05-.27-3.76-1.48-.73-1.24-.6-3.03.31-4.17.88-1.11 2.71-1.7 4-1.16.32.13.44.74.65 1.12-.1.08-.19.16-.28.24"/><path d="m49.15 387.24v1.07c-.59.02-1.17.05-1.87.08v5.44h-1.48v-5.44h-1.85c-.05-.4-.08-.73-.13-1.15z"/><path d="m20.06 387.21h1.33v6.62h-1.33z"/><path d="m30.68 393.25c-.49.38-.8.79-1.05.76-.32-.05-.6-.45-.9-.7.26-.24.51-.64.8-.67.29-.04.62.3 1.15.61"/></g><path d="m242.8 326.42c0-12.16-.1-24.01.02-35.85.18-17.33.03-34.69 1.01-51.98.43-7.65 1.87-15.91 5.36-22.59 7.3-14 20.46-20.33 35.77-22.45 7.42-1.03 14.85-2.53 19.5-9.03 2.53-3.53 4.41-7.78 5.55-11.99 2.8-10.36-.83-20.09-3.98-29.77-.25-.76-1.34-1.38-2.17-1.79-6.42-3.16-13.39-3.11-20.31-3.58-3.86-.26-7.73-1.06-11.48-2.04-9.15-2.38-13.28-9.12-15.03-17.86-.94-4.7-1.99-9.38-3.14-14.03-.72-2.94-2.48-4.21-5.81-4.15-11.41.23-22.82.09-34.45.09-1.87 5.69-2.59 11.44-2 17.22.76 7.56 1.91 15.08 3.15 22.58.24 1.45 1.32 3.11 2.51 4 8.3 6.2 17.79 7.69 27.94 7.2 10.49-.5 21.01-.72 31.49-.45 3.63.09 7.32 1.77 10.78 3.21 2.6 1.09 3.32 3.63 3.21 6.46-.11 2.92-2.15 3.91-4.34 4.29-7.24 1.25-14.53 3.16-21.79 3.12-11.59-.06-23.31-.7-34.73-2.59-7.46-1.23-14.5-5.05-21.67-7.85-.77-.3-1.29-1.45-1.74-2.31-5.49-10.45-8.09-21.76-9.48-33.35-2.46-20.43-2.97-40.86 1.69-61.08 1.02-4.44 2.63-8.77 4.25-13.04 3.43-9.04 11.61-12.03 19.83-13.49 10.97-1.94 22.18-3.09 33.32-3.41 19.13-.56 38.28-.22 57.43-.25 1.23 0 2.48-.03 3.68.18 5.67.99 8.07 4.38 7.04 10.03-.13.73-.9 1.47-1.55 1.97-4.05 3.11-8.77 4.57-13.77 4.55-9.73-.03-19.45-.48-29.18-.57-3.56-.03-7.13.47-11.21.77 0 1.09-.03 2.16 0 3.22.26 9.4.62 18.79.73 28.19.03 2.57 1.13 3.37 3.39 3.37 12.51.02 25.03-.14 37.54.15 4.74.11 9.57.83 14.16 2.02 4.04 1.05 7.01 4 8.08 8.23.24.93-.29 2.57-1.04 3.17-6.41 5.08-14.01 6.1-21.87 5.84-11.74-.39-23.47-.91-35.2-1.37-.88-.03-1.76 0-3.07 0 .34 5.46-.24 10.95 1.35 15.73.86 2.6 5.21 4.45 8.35 5.74 2.46 1.01 5.54 1.14 8.25.84 22.94-2.57 35.08 15.09 37.56 30.78 2.04 12.91 1.01 25.44-5.02 37.25-.73 1.43-1.86 2.77-3.09 3.82-8.48 7.25-18.33 11.84-29.01 14.86-8.02 2.27-15.51 5.64-22.2 10.75-5.63 4.3-7.28 10.39-7.55 16.84-.42 10.17-.26 20.36-.41 30.54-.27 19.25-.59 38.49-.88 57.74-.01.64.08 1.29.18 2.6 7.62 0 15.09-.1 22.55.02 13.65.23 27.29.54 40.93.97 2.76.09 5.58.6 8.22 1.42 1.71.53 3.49 1.67 4.64 3.04 3.31 3.92 2.5 7.53-1.91 10.04-4.92 2.8-10.32 3.56-15.85 3.53-32.57-.16-65.14-.37-97.71-.54-8.38-.04-16.76.07-25.13.02-1.43-.01-2.88-.38-4.29-.73-7.33-1.81-8.67-3.39-8.92-10.93-.03-.82.83-1.97 1.6-2.48 5.13-3.4 10.94-4.33 16.95-4.37 13.08-.09 26.15-.15 39.23-.24 1.08 0 2.19-.13 3.74-.23zm9.53-245.56c0-11.36 0-22.15 0-33.18-10.55-.44-21.1-3.15-30.53 3.84-1.14.85-2.65 1.2-3.88 1.94-.7.42-1.64 1.13-1.71 1.79-.98 8.75-1.83 17.51-2.75 26.67 13.08-.36 25.87-.71 38.87-1.06z" fill="#010105"/><path d="m128.63 84.08c0 7.53.03 14.91-.01 22.28-.24 44.09-.55 88.17-.74 132.26-.16 35.47-.22 70.95-.26 106.42-.01 5.59.41 11.17.44 16.76.01 2.44.03 5.09-.85 7.28-.84 2.08-2.49 4.38-4.41 5.35-4.13 2.09-6.83.6-8.28-3.79-3.46-10.51-3.28-21.37-3.04-32.23.17-8.05.43-16.11.44-24.16.03-74.87-.01-149.74.11-224.61.01-3.51-1.16-4.96-4.38-5.71-7.57-1.75-15.11-.8-22.7-.24-5.76.43-11.61.82-17.33.3-5.62-.51-9.17-4.76-9.35-9.76-.03-.86.32-2.31.87-2.53 3.25-1.3 6.61-3.26 9.95-3.29 30-.25 59.99-.17 89.99-.13 6.14.01 12.29.07 18.43.38 5.73.29 8.41 3.34 7.6 8.64-.19 1.23-1.39 2.79-2.53 3.32-9.51 4.37-19.59 3.68-29.67 3.14-6.79-.36-13.61-.37-20.41-.44-1.19 0-2.38.45-3.87.76z" fill="#010105"/><path d="m145.97 210.84c.77-25.94 1.43-51.89 2.36-77.82.31-8.59 2.51-16.76 7.24-24.14 1.57-2.45 3.24-2.62 5.54-1.33 4.19 2.36 5.08 6.5 5.17 10.64.12 5.69-.33 11.4-.72 17.08-1.29 18.64-3.09 37.26-3.87 55.92-.48 11.48.43 23.03.87 34.54.72 18.79 1.22 37.59 2.52 56.34.67 9.76 2.73 19.44 4.39 29.12 1.38 8.11 2.1 16.15.29 24.31-.71 3.19-2.45 4.65-5.46 4.76-3.17.12-6.82-2.62-7.18-5.27-2.31-16.84-4.02-33.79-7.01-50.5-4.39-24.44-3.47-49.04-4.14-73.65z" fill="#010105"/><path d="m88.57 194.33c0 17.22.17 34.44-.04 51.66-.26 21.2-3.52 42.08-7.12 62.92-1.1 6.39-2.1 12.79-3.14 19.19-.61 3.73-2.39 5.71-5.28 5.83-3.5.15-5.46-1.47-6.36-5.41-1.97-8.67-1.16-17.38-.1-26.04 2.13-17.41 5.1-34.75 6.67-52.21 2.66-29.67 3.3-59.36-1.2-89.02-2.52-16.58-4.04-33.33-.96-50.09.24-1.3.38-2.76 1.07-3.82 1.8-2.79 4.54-3.37 6.71-.88 2.34 2.69 5 5.98 5.46 9.29 1.62 11.7 2.87 23.5 3.31 35.3.54 14.41.13 28.85.13 43.27.28.01.56.01.85.01z" fill="#010105"/><path d="m119.95 26.18c12.42 0 24.85-.05 37.27.04 2.33.02 4.67.48 6.98.92 3.21.62 5.15 2.53 5.43 5.91.26 3.24-.69 5.91-4.12 6.68-4.32.97-8.71 2.12-13.09 2.22-14.42.34-28.86.25-43.29.31-11.22.05-22.36-.72-33.29-3.39-.87-.21-1.49-1.48-2.22-2.27-.06-.07-.03-.22-.03-.33-.04-2.27-1.01-5.74.07-6.58 2.47-1.93 5.91-3.5 9.01-3.59 12.42-.39 24.85-.16 37.28-.16z" fill="#010105"/></svg>