<svg enable-background="new 0 0 400 400" viewBox="0 0 400 400" xmlns="http://www.w3.org/2000/svg"><path d="m362.1 8.8c1.1.8 2.1 1.6 3.1 2.4l-1 1.1c-1.3-1.1-2.3-2-3-2.5zm1.9 4.8c.5.2.9.4 1.4.5-.6 2.3-1.3 4.5-1.9 6.8l-1.5-.5c.8-2.1 1.4-4.3 2-6.8zm-1-9.4c1.3.9 2.4 1.8 3.4 2.5l-1 1.1c-1.4-1.2-2.4-2.1-3.2-2.6zm3.7 2.2v-1.4h10.3v1.2c-.5 3.6-1.8 6.8-4 9.4 1.5 1.6 3.4 2.8 5.7 3.8-.3.4-.7.8-1.1 1.4-2.3-1.1-4.1-2.5-5.6-4.1-1.6 1.6-3.6 3.1-5.9 4.3-.3-.5-.7-.9-1-1.3 2.4-1.1 4.4-2.5 6-4.1-1.9-2.5-3-5.6-3.3-9.3h-1.1zm8.8 0h-6.4c.3 3.3 1.3 6 3 8.2 2-2.3 3.1-5.1 3.4-8.2z" fill="#fbfcfa"/><path d="m385.3 3.8h1.3v2.2h2.8v-2.2h1.3v2.2h4.1v9.1h1.7v1.3h-16.9v-1.3h1.7v-9.1h4.1v-2.2zm.4 13.1.7 1.2c-1.8.9-3.8 1.9-6 2.9-.2-.4-.5-.8-.8-1.3 2.3-1 4.3-1.9 6.1-2.8zm-3.1-6.4h2.8v-3.2h-2.8zm0 4.6h2.8v-3.3h-2.8zm4-4.6h2.8v-3.2h-2.8zm0 4.6h2.8v-3.3h-2.8zm3.7 1.9c2.1.9 4.1 1.8 6.1 2.7l-.7 1.3c-2.2-1.1-4.2-2-6.1-2.9zm3.2-9.7h-2.8v3.2h2.8zm-2.8 7.8h2.8v-3.3h-2.8z" fill="#fbfcfa"/><g fill="#010106"><path d="m192.57 185.17c7.08 11.09 14.16 22.17 21.25 33.26.22-.05.44-.1.67-.15 1.03-25.5 2.05-50.99 3.09-76.74-4.42 0-8.51 0-12.82 0-1.82 6.58-3.64 13.24-5.51 19.88-2.06 7.33-6.43 12.84-13.74 17.11 2.1-11.46 4.07-22.24 6.13-33.53-6.13-.61-12.02-1.2-18.24-1.83 3.73-2.39 7.26-4.31 10.41-6.73 7.25-5.59 8.25-11.21 4.03-19.34-1.43-2.76-2.55-5.69-3.63-8.61-.36-.99-.4-2.26-.11-3.27.24-.85 1.05-1.91 1.82-2.12.6-.16 1.79.67 2.24 1.37 3.81 6.04 7.64 12.08 11.21 18.26 4.07 7.04 9.76 9.49 18.13 7.19-.55-5.13-1.09-10.33-1.66-15.52-.26-2.33-.91-4.68-.79-6.99.23-4.47-2.53-6.8-5.58-9.19-7.97-6.26-17.33-7.91-27.07-8.4-1.33-.07-2.66-.19-4.76-.35 1.45-.97 2.3-1.56 3.18-2.12 11.34-7.17 22.66-14.37 34.04-21.48 13.83-8.64 22.59-21.05 27.35-36.47.33-1.06.64-2.13 1.24-4.13.69 1.79 1.19 2.81 1.47 3.88 4.69 17.64 16.34 29.76 31.47 38.82 9.85 5.9 20.14 11.07 30.27 16.59-4.43.73-9.07 1.33-13.64 2.3-8.48 1.8-16.62 4.44-23.36 10.28-3.32 2.87-5.71 5.98-6.04 10.66-.33 4.66-1.4 9.27-2.19 14.14 1.01.42 1.89.84 2.8 1.15 9.96 3.34 19.88 6.83 29.91 9.95 14.04 4.36 21.92 14.47 25.24 28.01 4.21 17.19 2.92 34.43-2.15 51.35-.41 1.36-1.52 2.73-2.66 3.63-9.66 7.58-20.74 9.97-32.8 8.95-6.84-.57-13.62-.17-20.18 2.21-2.25.82-3.65 2.11-4.41 4.53-3.26 10.43-6.72 20.8-10.17 31.38 6.17 4.12 12.07 8.37 18.27 12.11 5.05 3.04 9.02 7.01 11.91 11.99 13.88 23.95 22.04 49.52 21.51 77.47-.06 2.97-.79 5.94-1.91 8.93-1.43-5.69-3.15-11.33-4.22-17.09-2.86-15.38-9.48-29.16-16.8-42.81-4.34-8.09-9.44-15.25-16.08-21.59-10.84-10.36-21.31-21.11-31.83-31.79-1.34-1.36-2.41-3.21-3.03-5.03-2.94-8.66-5.67-17.38-8.5-26.13-5.66.31-10.39.97-13.74 6.56-4.06 6.77-8.99 13.19-15.85 17.54-3.13 1.99-6.65 3.36-10 5.01-.2-.26-.4-.52-.6-.77 5.11-8.82 10.22-17.65 15.55-26.85-7.67-.57-14.88-1.11-23.02-1.71 1.44-.6 2.13-.89 2.82-1.18 5.54-2.35 11.16-4.52 16.58-7.12 3.72-1.78 5.52-5.01 5.26-9.32-.45-7.48-.77-14.97-1.15-22.45-.06-1.21-.15-2.43-.22-3.64.16-.03.39-.04.61-.06zm39.57-58.3c11.17.02 14.71-3.42 15.48-13.58.27-3.6 1.52-7.16 2.57-10.67 1.23-4.09 3.55-7.14 7.88-8.75 4.38-1.62 8.49-3.95 12.71-5.98 2.05-.99 4.08-2.01 6.53-3.21-13.24-8.23-25.93-16.12-38.75-24.09-9.6 7.52-19.11 14.98-29.3 22.97 21.17 7.66 23.85 24.54 22.88 43.31zm17.36 57.47c-.2 0-.4 0-.59-.01 0-8.05.31-16.11-.1-24.14-.32-6.24-1.55-12.45-4.94-17.93-2.54-4.1-3.14-4.23-7.35-2.13-1.1.55-2.15 1.23-3.3 1.63-2.07.72-2.82 2.03-2.94 4.25-.72 13.18-1.73 26.34-2.39 39.52-.48 9.7.65 19.19 4.74 28.17.71 1.56 1.38 2.28 3.25 1.78 3.23-.88 6.51-1.62 9.82-2.12 2.07-.31 2.77-1.16 2.83-3.22.24-8.6.63-17.2.97-25.8zm34.68-20.09c2.49-2.59 4.81-4.86 6.98-7.27 4.41-4.89 2.72-13.21-3.46-15.32-7.86-2.68-16.05-3.68-24.75-3.13-.77 7.91-1.66 15.66-2.26 23.44-.97 12.59-2.7 25.18-.95 37.82.56 4.02 1.68 7.96 2.55 11.94.38-.05.77-.11 1.15-.16 3.25-9.85 6.58-19.67 9.67-29.57.62-2 .75-4.41.3-6.45-2.17-9.89-4.61-19.73-7.19-30.55 6.31 6.77 11.94 12.8 17.96 19.25zm17.62 40.06c10.21-7.66 9.08-40.15-1.59-50.82-10.49 17.61-10.62 32.12 1.59 50.82zm-8.06 5.15c-4.45-5.03-8.6-9.7-12.85-14.51-3.93 4.89-7.47 9.48-11.22 13.88-1.7 2-1.7 3.66.04 5.59 7.2-1.43 14.4-2.85 21.59-4.28.65-.12 1.28-.35 2.44-.68zm-59.96 19.89c1.12 5.68 2.23 11.28 3.36 16.99 4.94-2.28 8.52-8.93 6.96-13.66-1.51-4.57-5.99-3.26-9.48-3.68-.1-.01-.21.08-.84.35z"/><path d="m102.54 207.27c-2.6-9.47-2.36-18.15.47-26.69 2.7-8.16 5.67-16.24 8.67-24.3.41-1.11 1.48-2.2 2.53-2.81 2.21-1.29 4.53-2.53 6.96-3.29 5-1.56 7.04-5.05 7.33-9.5-4.9-2.94-9.74-5.48-14.17-8.61-4.51-3.18-7.39-7.74-8.62-13.2-2.53-11.22-5.03-22.45-7.58-33.87 4.87-2.1 9.92-3.88 14.6-6.37 10.74-5.7 20.52-12.7 24.95-24.65 1.95-5.27 2.6-11.04 3.78-16.59.22-1.03.17-2.12.27-3.47 8.18 9.92 12.69 26.8 4.42 37.8-6.11 8.14-8.01 16.95-6.59 26.86.92 6.42 1.54 12.9 1.84 19.37.14 3.05 2.24 2.82 3.96 3.51 1.8.72 2.98.36 4.12-1.45 5.53-8.81 11.22-17.51 16.87-26.25.72-1.12 1.47-2.22 2.49-3.74 2.67 6.74 2.58 13.15.52 19.5-2.77 8.59-6.59 16.57-13.58 22.74-4.35 3.84-8.34 8.08-12.85 12.5 4.48 2.58 8.31 5.33 12.56 7.1 7.2 3 10.8 8.71 12.98 15.62 3.81 12.12 5.32 24.45 2.66 37.05-.21.98-.51 1.94-.83 2.89-.28.82-.64 1.6-1.24 3.09-.59-1.74-1.01-2.82-1.33-3.93-3.05-10.52-6.01-21.06-9.19-31.53-.5-1.66-1.74-3.33-3.09-4.45-3.24-2.68-6.75-5.03-10.55-7.81-3.26 13.25-6.39 26-9.52 38.76-.25-.01-.5-.03-.75-.04-.6-7.67-1.08-15.34-1.86-22.99-.35-3.41-.88-6.93-2.12-10.08-.78-1.97-2.77-3.85-4.69-4.89-3.77-2.04-5.43-1.18-6.99 2.75-4.99 12.57-9.96 25.14-14.95 37.7-.4.89-.81 1.73-1.48 3.27zm27.45-85.56c.15-.37.49-.86.53-1.37.72-8.21 1.71-16.42 1.96-24.65.1-3.18-1.06-6.62-2.44-9.57-1.84-3.92-5.03-4.87-9.18-3.64-4.7 1.39-9.41 2.77-14.11 4.16-1.87.55-3.73 1.11-5.58 1.66 2.14 9.47 5.75 17.67 11.28 25.22 4.47 6.12 10.07 8.66 17.54 8.19z"/><path d="m72.42 364.86c4.78-3.58 8.99-6.49 12.95-9.73 13.42-11 25.25-23.42 33.63-38.81 5.34-9.8 8.81-20.27 10.93-31.19.29-1.52.24-3.13.16-4.68-1.01-20.55 1.68-40.86 4.13-61.18.09-.76.37-1.51.64-2.6.65 8.37 1 16.41 1.95 24.38 2.46 20.67 5.55 41.21 13.93 60.54 4.37 10.08 9.95 19 19.02 25.8 10.01 7.51 19.33 15.94 28.94 23.98.9.75 1.77 1.56 2.29 2.95-1.79-.52-3.58-1.04-5.37-1.56-.32-.09-.64-.19-.96-.29-9.22-3.01-19.34-4.55-27.42-9.45-8-4.86-13.97-13.08-20.78-19.88-2.67-2.67-5.18-5.48-7.61-8.07-6.32 7.78-11.97 15.28-18.19 22.26-7.9 8.87-16.39 17.16-27.41 22.29-6.35 2.96-12.98 4.71-20.83 5.24z"/><path d="m161.42 214.58c-3.17 35.55 6.02 66.29 34.92 89.37-.33.29-.66.57-.99.86-6.51-1.53-13.04-2.97-19.51-4.66-1.04-.27-1.93-1.51-2.66-2.47-5.36-6.98-11.15-13.68-15.85-21.09-6.33-9.98-6.32-21.34-4.27-32.5 1.75-9.52 4.54-18.85 6.88-28.27.1-.38.35-.73.53-1.09.32-.04.63-.1.95-.15z"/><path d="m88.9 318.01c2.16-4.11 3.78-8.65 6.59-12.25 9.47-12.16 12.05-25.77 10.14-40.72-1.74-13.62-3.09-27.29-4.61-41.01.5.05.79-.01.85.09 9.16 14.53 15.12 30.11 15.06 47.52-.04 11.1-3.63 21.25-9.04 30.82-.27.48-.59.96-1 1.32-5.75 4.95-11.52 9.87-17.29 14.81-.24-.2-.47-.39-.7-.58z"/></g></svg>