<svg enable-background="new 0 0 400 400" viewBox="0 0 400 400" xmlns="http://www.w3.org/2000/svg"><path d="m247.84 258.49c0-14.88 0-29.16 0-43.92-10.69-.33-21.69-.67-33.01-1.03-.95 9.66-1.87 18.98-2.78 28.29-2.62 27.06-5.28 54.12-7.84 81.19-1.08 11.36-1.92 22.74-2.96 34.11-.24 2.66-.74 5.31-1.38 7.91-.37 1.49-1.11 2.93-1.92 4.25-1.87 3.07-7.22 6.37-9.1 5.26-3.33-1.96-4.15-5.5-3.8-9.08 1.14-11.58 2.57-23.12 3.73-34.7 2.42-24.15 4.75-48.31 7.11-72.47 4.33-44.35 2.13-88.82 2.32-133.24.05-11.34-2.53-22.68-3.24-34.05-.95-15.29-1.6-30.61-1.72-45.92-.08-9.41-.51-7.09 7.82-9.94 4.04 5.16 6.64 11.21 7.42 17.6 1.38 11.3 2.11 22.69 2.71 34.07 1.01 19.33 1.69 38.68 2.52 58.02.03.65.17 1.29.29 2.18 11.14-.34 22.17-.68 33.83-1.04 0-6.36-.02-12.58 0-18.8.13-28.32.31-56.64.39-84.96.02-6.38 1.53-12.14 5.8-17.15 4.16 1.03 6.76 3.93 7.59 7.72 1.21 5.52 2.11 11.22 2.22 16.86.17 8.94-.58 17.89-.62 26.84-.02 5.79.53 11.59.84 17.53h34.94c.57-6.49 1.2-12.92 1.67-19.37.53-7.25.7-14.54 1.44-21.77.35-3.39 1.52-6.74 2.63-10 .52-1.52 1.6-2.98 2.75-4.13 4.28-4.26 6.93-3.58 9.12 1.95 2.29 5.8 1.4 11.65.81 17.56-1.13 11.34-2.67 22.68-3.14 34.05-1.5 35.78-3.09 71.56-3.61 107.36-.23 16.27 2 32.57 3.08 48.86.56 8.37.79 16.78 1.62 25.12 1.29 13.01 3.07 25.97 4.45 38.97 1.72 16.24 3.32 32.49 4.82 48.76.34 3.75.05 7.56.05 11.63-3.04 0-5.51.18-7.92-.09-.96-.11-2.34-1.07-2.61-1.93-1.71-5.51-3.95-11.01-4.58-16.67-3.79-34.25-7.31-68.53-10.66-102.83-1.11-11.35-1.46-22.78-2.16-34.18-.05-.77-.15-1.54-.27-2.71-10.71-.34-21.38-.67-32.37-1.02-.36 14.73-.71 29.02-1.06 43.66 4.31.59 8.45 1.15 13.22 1.8.3-5.69.61-11.01.86-16.32.24-5.05 2.61-7.33 7.57-7.43 2.07-.04 3.66.64 4.08 2.64 1.06 5.1 2.53 10.22 2.69 15.37.39 12.97.26 25.95.11 38.93-.12 10.16-1.9 20-6.43 29.24-3.94 8.04-11.18 11.62-19.06 14.16-9.58 3.08-18.95 2.13-28.06-2.21-3.32-1.58-5.48-4.06-7.3-7.09-5.88-9.8-8.48-20.66-9.8-31.81-1.87-15.83-2.29-31.7.43-47.51.28-1.65.59-3.3.97-4.93 1.36-5.87 1.38-5.77 7.27-6.26 1.99-.17 3.05.24 3.76 2.21 1.6 4.45 3.14 8.87 2.25 13.71-.59 3.18.96 5 3.83 5.65 2.57.54 5.22.69 8.39 1.1zm-11.02 14.08c-1 12.86-1.39 25.22 2.29 37.33 2.27 7.46 6.52 12.65 15.13 12.51 1.68-.03 3.38.22 5.03 0 5.86-.78 10.46-3.26 11.85-9.59 1.63-7.42 3.51-14.79 4.72-22.28.74-4.59.6-9.35.5-14.02-.04-1.7-.34-3.96-3.11-3.95-11.96.02-23.93 0-36.41 0zm10.93-74.2c0-12.49 0-24.46 0-36.61-11.26-.36-21.94-.7-32.74-1.05v37.66zm16.62-89.35v36.72h32.13c0-12.3 0-24.43 0-36.72-10.74 0-21.31 0-32.13 0zm-1.3 53.42c.37 12.27.73 24.26 1.07 35.89h32.55c-.6-12.87-1.18-25.18-1.76-37.64-10.88.6-21.23 1.17-31.86 1.75z" fill="#010103"/><path d="m117.46 179.76c-8.52 10.23-13.86 21.25-16.91 33.46-2.52 10.08-3.11 20.34-2.69 30.66 1.08 26.33-.61 52.59-1.81 78.87-.23 5.13-.28 10.31-1.01 15.38-.69 4.75-3.88 7.2-8.07 6.76-1.15-.12-2.64-1.13-3.18-2.15-3.3-6.22-3.74-13.04-3.59-19.91.48-22.61.86-45.22 1.56-67.82.6-19.15 1.77-38.28 8.02-56.61 2.41-7.06 5.58-13.87 8.52-20.74.46-1.07 1.35-2.1 2.31-2.77 4.95-3.44 10.05-6.66 14.96-10.16 1.27-.9 2.69-2.39 2.92-3.79.78-4.72 1.12-9.52 1.43-14.3.04-.67-.9-1.76-1.64-2.07-3.39-1.43-6.76-3.11-10.32-3.88-13.9-2.99-21.99-12.17-25.88-25.02-2.37-7.84-3.22-16.18-4.39-24.34-1.41-9.86 2.23-18.97 4.84-28.2.33-1.15.62-2.31 1.05-3.93-2.26-.14-4.12-.39-5.98-.33-4.35.15-7.9-3.31-7.34-7.55.12-.9 1.08-1.85 1.89-2.49 7.53-5.94 16.4-9.03 25.45-11.65 7.32-2.12 14.71-3.76 22.47-2.83 4.79.58 8.43 2.33 10.61 6.93 3.99 8.43 5.02 17.38 4.94 26.49-.17 18.69-.58 37.38-.88 56.08-.02 1.21 0 2.43 0 3.94 5.37-.91 10.42-1.74 15.45-2.67.69-.13 1.43-.62 1.92-1.16 7.91-8.63 12.83-18.21 12.02-30.54-.58-8.89.33-17.89.75-26.83.08-1.71.67-3.58 1.58-5.03 2.35-3.74 7.77-3.45 9.76.41 5.95 11.52 6.34 23.68 3.41 35.97-2.15 9-4.95 17.85-7.68 26.7-.48 1.56-1.86 2.97-3.13 4.12-1.82 1.64-4.07 2.81-5.87 4.47-6.89 6.39-14.94 9.99-24.32 10.53-2.21.13-3.08 1.01-3.13 3.29-.11 5.03-.48 10.05-.76 15.28 2.88 1.07 5.65 2.17 8.47 3.12 14.91 5.05 22.33 16.42 25 31.02 7.23 39.53 10.93 79.35 8.44 119.6-.49 7.93-.68 15.88-.82 23.83-.04 2.3-.53 3.52-3.06 3.68-1.98.12-3.93.72-6.03 1.13-2.55-3.79-3.9-8.07-3.51-12.39 1.46-16.33-2.28-32.34-2.52-48.55-.19-12.64.03-25.35-1.18-37.91-1.54-16-4.06-31.93-6.67-47.8-1.49-9.04-6.7-15.73-15.49-19.2-.39-.15-.81-.22-1.79-.47 0 4.87.02 9.42 0 13.96-.27 44.89-.61 89.79-.79 134.68-.04 10.4.59 20.81.65 31.21.02 3.19-.62 6.44-1.4 9.56-.41 1.64-1.52 3.28-2.73 4.52-3.84 3.93-7.81 3.23-9.38-1.88-1.27-4.12-2.43-8.49-2.43-12.75.02-39.63.28-79.26.53-118.9.09-13.32.48-26.64.48-39.96 0-4.67-.65-9.36-1.22-14.02-.21-1.58-1.09-3.06-1.83-5.05zm-32.33-122.1c.83.61 1.14.9 1.49 1.09 6.36 3.35 8.61 8.53 7.57 15.61-.77 5.18-1.24 10.46-1.21 15.69.07 13.5 4.51 25.36 14.23 34.99.53.52 1.26 1.04 1.96 1.15 3.5.58 7.02 1.02 10.83 1.55 0-1.33-.01-2.43 0-3.53.15-21.13.33-42.26.44-63.39.01-2.56-.09-5.16-.52-7.68-.66-3.86-3.67-5.92-6.87-4.86-9.11 3.01-18.2 6.11-27.92 9.38z" fill="#010103"/><g fill="#fcfbfa"><path d="m377.9 391.2c-.2.3-.4.5-.6.8-.7-.6-1.4-1-2.2-1.5.2-.3.4-.5.5-.8.6.4 1.4.8 2.3 1.5zm-1.8 6.1c-.2-.2-.5-.4-.9-.6.4-.6.8-1.2 1.2-1.9s.7-1.3.9-1.9c.3.3.5.5.8.7-.7 1.3-1.4 2.6-2 3.7zm2.2-9c-.3.3-.5.5-.6.8-.6-.6-1.3-1.1-2-1.5.3-.3.5-.5.6-.7.6.5 1.3.9 2 1.4zm.3.2v-.9h2 4.5c-.3 1.3-.6 2.5-1 3.6s-.9 2.1-1.4 3c.4.5 1 1 1.6 1.4s1.2.8 1.9 1.1c-.3.2-.5.4-.8.8-.4-.3-1-.7-1.6-1.2s-1.2-1.1-1.6-1.6c-.5.6-1.1 1.1-1.7 1.6s-1.4.9-2.1 1.4c-.1-.3-.3-.5-.7-.8.6-.2 1.2-.5 1.9-1s1.4-1.1 2-1.8c-.5-.8-.9-1.6-1.2-2.5s-.6-2-.8-3.2c-.4.1-.7.1-1 .1zm2.5 2.7c.3 1 .7 1.7 1 2.2.3-.5.6-1.1 1-2s.6-1.9.9-3h-3.2-.4c.1.9.3 1.8.7 2.8z"/><path d="m396.5 388.5v1.5 3.6h1.5v.9c-.4 0-1 0-1.7 0h-7.9c-.5 0-.9 0-1.2 0v-.9h1.3v-3.5c0-.7 0-1.2 0-1.6h2.4c0-.8 0-1.4 0-1.7h1c0 .3-.1.8-.1 1.7h1.5c0-.8 0-1.4 0-1.7h1c0 .3-.1.9-.1 1.7zm-8.2 9.2c-.2-.3-.5-.5-.8-.8.8-.3 1.4-.6 1.9-.9s1-.7 1.4-1.1c.3.3.6.5.9.8-1.6 1-2.8 1.6-3.4 2zm2.6-6.8v-1.6h-1.5v1.6zm0 2.7v-1.9h-1.5v1.9zm2.4-2.7v-1.6h-1.5v1.6zm0 2.7v-1.9h-1.5v1.9zm.2 2 .7-.8c.4.2.9.5 1.6.8s1.3.7 1.8 1c-.3.3-.5.5-.8.8-.4-.3-1.5-1-3.3-1.8zm2-4.7v-1.6h-1.4v1.6zm0 2.7v-1.9h-1.4v1.9z"/></g></svg>