<svg enable-background="new 0 0 400 400" viewBox="0 0 400 400" xmlns="http://www.w3.org/2000/svg"><g fill="#010103"><path d="m82.63 52.63c-4.21 0-8.51 0-12.81 0-4.07 0-5.18-1.17-4.89-5.24.22-3.14 1.18-5.5 4.39-7.18 12.31-6.49 25.63-10 39.02-12.98 5.22-1.16 11.05-.16 16.51.56 3.74.49 5.63 3.19 6.68 7.23 4.27 16.48 3.89 33.26 4.13 50.03.17 11.75.29 23.5.42 35.26.04 3.64 1.64 5.3 5.1 4.55 4.37-.96 8.45-2.42 11.47-6.28 6.51-8.32 9.94-17.61 10.35-28.15.37-9.51.91-19.01 1.55-28.5.17-2.52.75-5.1 1.68-7.44.57-1.41 1.98-2.77 3.35-3.53 3.56-1.97 6.43-.89 8.02 2.79 4.41 10.23 4.89 20.98 2.66 31.63-2.44 11.67-5.87 23.15-9.03 34.66-.41 1.49-1.61 2.9-2.76 4.01-2.34 2.24-5.09 4.07-7.34 6.39-5.73 5.94-12.46 9.57-20.79 10.21-.96.07-2.49 1.35-2.62 2.23-.72 4.86-1.09 9.76-1.61 14.95 4.61 1.74 9.08 3.8 13.77 5.1 5.24 1.46 8.56 4.94 11.56 9.07 10.17 13.96 14.78 29.95 17 46.78 5.05 38.27 3.36 76.64 1.72 115.01-.08 1.9-.19 3.8-.26 5.7-.13 3.36-1.7 5.06-4.96 5.34-3.43.3-5.4-.94-5.98-4.18-.63-3.51-1.18-7.07-1.34-10.62-1.27-27.73-2.52-55.46-3.61-83.19-.6-15.34-1.73-30.57-5.01-45.63-2.43-11.17-7.84-19.84-17.95-25.38-1.23-.67-2.51-1.27-4.31-2.17 0 3.93.01 7.25 0 10.56-.21 47.92-.47 95.83-.58 143.75-.03 11.07.56 22.15.56 33.22 0 2.82-.78 5.8-1.89 8.41-.77 1.8-2.47 3.52-4.19 4.54-3.68 2.18-6.28 1.39-7.29-2.69-1.45-5.91-2.88-12.03-2.88-18.07-.04-40.08.34-80.16.52-120.24.08-17.69.02-35.38.01-53.07 0-5.03-1.1-5.53-5.8-4.05-4.5 1.42-6.35 5.08-8.46 8.53-8.91 14.57-12 30.72-12.22 47.5-.22 16.34.2 32.69-.12 49.03-.34 17.45-1.17 34.9-1.89 52.34-.29 7.02-3.61 10.91-9.27 10.9-1.11 0-2.74-.98-3.24-1.96-3.13-6.13-3.77-12.81-3.6-19.58.64-25.73 1.16-51.47 2.01-77.2.75-22.74 4.42-44.9 13.64-65.96 4.61-10.52 12.26-17 23.17-19.95 5.8-1.57 5.84-1.57 5.78-7.49-.03-3.34.89-7.42-.68-9.79-1.47-2.22-5.65-2.66-8.66-3.82-3.44-1.33-6.82-2.88-10.37-3.85-7.78-2.13-11.66-8.33-15.43-14.52-5.13-8.43-6.93-17.85-7.39-27.58-.56-11.78-.1-23.5 2.03-35.11.3-1.61 1.34-3.11 2.13-4.88zm3.64-2.15c8.51 3.91 8.35 10.78 8.19 17.75-.14 6.14-.25 12.3.05 18.42.56 11.32 3.15 22.11 9.54 31.7.54.8 1.18 1.89 1.98 2.11 4.79 1.34 9.65 2.46 14.78 3.72.08-1.56.18-2.66.18-3.75.12-21.81.25-43.62.3-65.44.01-2.56-.21-5.16-.69-7.67-.76-4-4.62-6.81-8.49-5.63-8.37 2.58-16.6 5.63-25.84 8.79z"/><path d="m215.38 231.89c5.09-4.5 9.8-9.12 15-13.1 3.03-2.32 6.82-3.66 10.31-5.37 1.93-.95 3.04 0 3.93 1.75 2.2 4.32 1.71 7.93-1.86 11.19-8.68 7.92-17.46 15.74-26.06 23.75-1.12 1.04-1.97 2.97-1.99 4.49-.08 6.15.16 12.31.43 18.46.06 1.29.78 2.55 1.2 3.82 1.1-.63 2.33-1.11 3.26-1.93 3.11-2.74 5.85-5.95 9.21-8.31 3.6-2.53 7.55-4.77 11.67-6.26 4.13-1.5 7.67 2.11 6.66 6.53-.46 2.04-1.6 4.24-3.09 5.69-7.55 7.33-15.27 14.48-23.02 21.59-1.57 1.43-1.64 2.6-1.08 4.62 3.32 12.04 13.25 16.23 23.56 18.93 15.52 4.06 31.06 1.85 45.65-4.15 6.15-2.53 9.91-8.88 11.63-15.69.18-.71-.72-1.97-1.44-2.58-6.15-5.21-12.44-10.25-18.56-15.49-4.15-3.55-7.42-7.78-8.44-13.35-.94-5.12 1.82-7.85 6.81-6.09 3.83 1.35 7.58 3.37 10.84 5.8 4.73 3.52 8.98 7.68 13.97 12.04.51-7.2.7-13.85 1.53-20.42.53-4.2-.85-6.4-4.3-8.89-7.67-5.56-15.01-11.67-21.94-18.14-2.69-2.51-4.13-6.51-5.65-10.04-.67-1.55-.11-3.62-.11-5.34 6.1-1.03 10.88-.56 15.09 4.08 4.78 5.26 10.41 9.76 15.67 14.59.36-.04.72-.08 1.08-.11.45-4.58 1.61-9.23 1.18-13.73-.68-7.19-2.24-14.32-3.83-21.39-.37-1.66-2.04-3.68-3.59-4.28-4.12-1.6-8.44-2.83-12.79-3.61-4.61-.82-9.16-1.28-11.57-6.1-2.27-4.56-1.62-6.08 3.1-7.9 7.17-2.77 14.09-.67 21.09.79 12.08 2.54 16.59 11.82 18.1 22.27 2.66 18.35 5.91 36.76 5.06 55.41-.57 12.49-1.27 25.09-3.52 37.35-1.48 8.08-4.75 16.34-9.26 23.18-3.28 4.96-9.61 8.22-15.09 11.36-12.45 7.13-26.23 7.66-40.1 6.57-10.64-.83-20.97-3.24-30.93-7.13-.93-.36-2.04-.62-2.68-1.29-8.37-8.85-16.45-17.57-18.81-30.51-3.62-19.91-3.93-39.86-2.66-59.86.79-12.48 3.04-24.87 4.17-37.33 1.15-12.67 9.39-18.32 20.36-20.64 5.89-1.25 12.19-.76 18.29-.68 3.04.04 5.2 1.82 5.61 5.18.41 3.32-1.07 5.36-4.16 6.26-2.34.68-4.73 1.2-7.12 1.72-.75.16-1.56.05-2.34.13-11.94 1.26-15.32 2.17-17.97 15.7-1.57 8-.81 16.46-1.05 24.71.01.5.32 1.02.55 1.75z"/><path d="m262.27 78.57c-1.24 18.52.43 35.95 10.39 51.79 2.61 4.15 4.54 8.72 6.79 13.1 1.73 3.36 1.15 6.88-1.44 8.68-2.69 1.88-6.45 1.26-9.06-1.45-7.73-8.06-12.82-17.63-16.59-28.08-4.34-12.03-4.69-24.54-5.26-37.05-.17-3.74-1.62-5.5-5.09-4.53-6.75 1.88-13.29 4.51-19.92 6.83-2.01 4.29-5.09 8.43-5.73 12.92-.69 4.87.13 10.31 1.65 15.07 3.3 10.31 7.51 20.32 11.22 30.51.67 1.85.97 3.92.99 5.9.06 5.5-3 8.02-8.41 7.01-.88-.16-1.96-.77-2.39-1.5-10.47-17.86-18.46-36.52-18.16-57.76.09-6.37 1.66-12.49 4.93-17.92 1.29-2.15 3.72-3.8 5.94-5.18 10.82-6.75 22.89-10.2 35.32-12.03 22.36-3.3 44.83-5.76 67.48-5.89 3.34-.02 6.7.4 10.01.91 4.15.65 6.8 5.47 5.06 9.22-.37.8-1.65 1.36-2.63 1.66-6.5 2.03-13.02 3.96-20.07 6.09 1.15 6.72 1.66 13.46 3.51 19.82 4.39 15.13 9.46 30.06 14.13 45.11.75 2.42 1.03 5.05 1.08 7.59.06 2.51-.46 5.23-3.62 5.58-2.86.31-5.74.29-7.64-2.77-6.27-10.14-11.02-20.94-14.7-32.26-4.01-12.34-5.24-25.15-6.68-37.92-.29-2.59-.95-3.7-3.8-3.63-8.06.19-16.12.06-24.18.07-1-.06-1.99.04-3.13.11z"/></g><path d="m377.9 391.2c-.2.3-.4.5-.6.8-.7-.6-1.4-1-2.2-1.5.2-.3.4-.5.5-.8.6.4 1.4.8 2.3 1.5zm-1.8 6.1c-.2-.2-.5-.4-.9-.6.4-.6.8-1.2 1.2-1.9s.7-1.3.9-1.9c.3.3.5.5.8.7-.7 1.3-1.4 2.6-2 3.7zm2.2-9c-.3.3-.5.5-.6.8-.6-.6-1.3-1.1-2-1.5.3-.3.5-.5.6-.7.6.5 1.3.9 2 1.4zm.3.2v-.9h2 4.5c-.3 1.3-.6 2.5-1 3.6s-.9 2.1-1.4 3c.4.5 1 1 1.6 1.4s1.2.8 1.9 1.1c-.3.2-.5.4-.8.8-.4-.3-1-.7-1.6-1.2s-1.2-1.1-1.6-1.6c-.5.6-1.1 1.1-1.7 1.6s-1.4.9-2.1 1.4c-.1-.3-.3-.5-.7-.8.6-.2 1.2-.5 1.9-1s1.4-1.1 2-1.8c-.5-.8-.9-1.6-1.2-2.5s-.6-2-.8-3.2c-.4.1-.7.1-1 .1zm2.5 2.7c.3 1 .7 1.7 1 2.2.3-.5.6-1.1 1-2s.6-1.9.9-3h-3.2-.4c.1.9.3 1.8.7 2.8z" fill="#fcfbfa"/><path d="m396.5 388.5v1.5 3.6h1.5v.9c-.4 0-1 0-1.7 0h-7.9c-.5 0-.9 0-1.2 0v-.9h1.3v-3.5c0-.7 0-1.2 0-1.6h2.4c0-.8 0-1.4 0-1.7h1c0 .3-.1.8-.1 1.7h1.5c0-.8 0-1.4 0-1.7h1c0 .3-.1.9-.1 1.7zm-8.2 9.2c-.2-.3-.5-.5-.8-.8.8-.3 1.4-.6 1.9-.9s1-.7 1.4-1.1c.3.3.6.5.9.8-1.6 1-2.8 1.6-3.4 2zm2.6-6.8v-1.6h-1.5v1.6zm0 2.7v-1.9h-1.5v1.9zm2.4-2.7v-1.6h-1.5v1.6zm0 2.7v-1.9h-1.5v1.9zm.2 2 .7-.8c.4.2.9.5 1.6.8s1.3.7 1.8 1c-.3.3-.5.5-.8.8-.4-.3-1.5-1-3.3-1.8zm2-4.7v-1.6h-1.4v1.6zm0 2.7v-1.9h-1.4v1.9z" fill="#fcfbfa"/></svg>