<svg enable-background="new 0 0 400 400" viewBox="0 0 400 400" xmlns="http://www.w3.org/2000/svg"><g fill="#010103"><path d="m83.26 339.96c-3.01-5.38-4.28-11.05-4.17-16.91.56-27.97.95-55.95 2.08-83.89.7-17.35 5.32-33.93 12.77-49.71 2.82-5.96 7.64-9.09 13.43-11.28.63-.24 1.29-.37 1.93-.56 6.95-2 7.57-2.8 8.02-9.82.25-3.8.39-7.63 1.04-11.36.51-2.89-.5-3.89-3.11-4.64-5.58-1.6-11.15-3.32-16.55-5.44-2.48-.97-4.99-2.59-6.73-4.57-8.03-9.18-11.31-20.4-12.98-32.19-1.36-9.62-1.16-19.19 1.66-28.59 1.1-3.66 3.91-5.42 7.58-4.93 1.85.25 2.87 1.07 3.44 2.99 3.16 10.66 3.68 21.56 3.19 32.57-.1 2.23-.2 4.49.02 6.71 1.13 11.6 9.55 18.62 22.74 18.85 0-26.1 0-52.2 0-78.47-4.88-.66-9.29 1-13.56 2.83-6.98 3-13.83 6.3-20.77 9.41-1.21.54-2.52.94-3.82 1.16-3.91.65-6.19-.48-7.1-3.34-1.15-3.63-.1-6.8 3.29-8.34 11.88-5.41 23.78-10.81 35.83-15.83 2.23-.93 5.24-.32 7.84-.02 8.7 1 11.72 4.2 11.98 13.12.42 14.09.67 28.19.83 42.29.13 11.96.03 23.93.03 36.3 7.02-1.52 13.05-2.91 16.48-9.53 2.9-5.58 4.82-11.25 4.92-17.56.14-8.84.39-17.67.65-26.51.08-2.74.54-5.44 3.36-6.83 3.56-1.76 6.31-.73 8.06 2.93 4.74 9.94 5.08 20.35 2.58 30.82-1.94 8.12-4.45 16.12-6.97 24.1-.56 1.78-2.12 3.31-3.45 4.75-1.21 1.3-2.82 2.22-4.08 3.48-5.05 5.02-10.88 8.49-18.04 9.42-2.47.32-3.2 1.6-3.11 4.06.19 5.37-.03 10.75.14 16.11.03 1.07.81 2.75 1.65 3.06 16.49 6.16 23.48 19.37 26.69 35.47 4.99 25.02 6.76 50.3 6.25 75.77-.32 16.34-.68 32.67-1.02 49.01-.08 3.94-2.41 6.31-6.02 5.72-1.21-.2-2.91-1.22-3.24-2.24-1.25-3.89-2.67-7.89-2.86-11.91-.93-19.43-1.32-38.89-2.23-58.32-.74-15.76-1.76-31.51-3.02-47.24-.69-8.62-2.55-17.09-7.7-24.33-1.97-2.76-4.61-5.04-7.59-8.21-.16 1.96-.31 2.89-.31 3.81-.23 44.44-.48 88.87-.66 133.31-.04 10.52.24 21.04.13 31.56-.03 3.08-.6 6.24-1.52 9.19-.51 1.65-1.97 3.31-3.45 4.3-3.15 2.12-6.11 1.32-7-2.27-1.38-5.58-2.77-11.35-2.77-17.04.01-52.49.32-104.99.54-157.48.01-1.33 0-2.65 0-3.85-7.35-.66-12.02 2.87-13.97 9.2-2.48 8.08-5.18 16.32-5.9 24.66-2.2 25.75-3.66 51.57-5.05 77.38-.4 7.34.48 14.74.63 22.12.05 2.45-.18 4.93-.59 7.35-.97 5.63-4.39 8.68-10.44 9.4z"/><path d="m279.1 180.2c-3.65 3-6.79 6.09-10.42 8.44-3.51 2.26-7.51 3.75-11.59 5.72 7.42 5.78 14.96 11.65 23.44 18.26 3.1-3.47 5.86-7.21 9.28-10.18 3.15-2.73 6.91-4.83 10.63-6.78 1.3-.68 4.16-.76 4.76.04 1.27 1.72 2.14 4.22 2.02 6.34-.1 1.75-1.64 3.57-2.91 5.06-4.43 5.2-9.02 10.26-13.64 15.49 3.26 2.89 7.7 6.77 12.09 10.71 3.3 2.97 6.1 6.3 6.65 10.93.6 5.05-2.78 8.26-7.84 7.16-1.85-.4-3.72-1.53-5.17-2.8-6.05-5.31-11.94-10.8-18.15-16.45-2.72 2.58-5.3 5.16-8.03 7.56-4.1 3.61-8.07 7.46-13.77 8.57-4.73.92-7.29-1.27-6.14-5.96.66-2.67 2.07-5.43 3.9-7.47 3.87-4.33 8.23-8.22 12.38-12.3.23-.23.39-.53.76-1.05-6.52-6.84-15.07-12-18.45-22.12-1.53 3.71-2.75 6.77-4.06 9.79-2.86 6.62-7.87 10.6-15.06 11.2-8.35.7-16.73 1.02-25.1 1.41-7.86.36-13.11 4.16-14.71 10.84-.13.52-.12 1.08-.2 1.8 8.21 3.51 16.79 4.7 25.47 5.54 5.22.5 10.54.8 15.55 2.18 3.1.85 5.96 3.27 8.45 5.51 1.91 1.72 1.33 3.56-1.26 4.87-7.55 3.8-15.52 4.99-23.8 4.07-9.82-1.09-19.37-3.32-28.35-7.66-6.81-3.29-9.58-9.01-9.85-16.2-.07-1.99.42-4 .59-6.01 1.08-12.29 9.15-15.3 21.42-17.49 6.38-1.14 13.13-.12 19.71-.24 2.44-.05 4.9-.41 7.29-.93 6.73-1.46 9.53-4.52 10.38-11.33 1.11-8.79-.22-17.41-2.19-25.94-.22-.96-1.44-1.92-2.43-2.42-7.31-3.74-15.21-4.18-23.21-3.94-8.49.25-16.99.63-25.48.77-2.19.03-4.42-.53-6.58-1.04-3.27-.79-4.68-3.18-5.02-6.36-.21-2 .24-3.63 2.47-4.05 6.89-1.29 13.75-3.27 20.69-3.61 14.69-.71 29.24.73 43.44 5.08 4.26 1.3 6.66 3.95 8.44 7.81 3.58 7.77 3.74 16.04 3.96 24.31.08 3.1.01 6.19.01 9.89 2.42-1.53 4.35-2.76 5.59-3.54-.74-2.76-2.23-5.28-1.79-7.4.49-2.37 2.48-4.62 4.26-6.51 2.91-3.08 6.19-5.83 9.3-8.72.15-.14.18-.4.22-.49-4.24-3.51-8.59-6.84-12.62-10.52-3.83-3.5-3.93-7.15-1.01-11 1.19-1.58 2.27-1.93 4.21-1.07 7.33 3.23 14.09 7.3 19.95 12.79.64.6 1.34 1.15 2.11 1.8 8.08-6.31 14.25-16.03 26.45-14.8.22.6.34.9.44 1.21 1.97 6.3-.15 10.74-5.74 14.17-3.3 2.03-6.07 4.93-9.07 7.44-.16.14-.26.35-.42.57 3.09 2.39 6.41 4.54 9.18 7.25 2.09 2.04 3.97 4.61 5.06 7.3 1.9 4.7-1.36 8.07-6.42 6.85-2.13-.51-4.24-1.5-6.09-2.7-4.73-3.1-9.35-6.44-13.98-9.65z"/><path d="m246.54 304.83c3.66-7.64 7.38-15.5 11.2-23.31 1.86-3.8 3.61-7.73 5.99-11.2 4.42-6.44 12.59-8.99 19.94-6.68.71.22 1.46.65 1.97 1.19 13.88 14.97 25.67 31.26 31.98 50.98.31.96.53 1.94.75 2.92 1.66 7.37 1.63 7.26-5.84 8.72-2.1.41-3-.15-3.91-1.88-4.98-9.5-9.99-18.99-15.1-28.42-3.53-6.51-7.4-12.81-13.59-17.23-.98-.7-2.07-1.26-3.29-2-.64.84-1.25 1.47-1.66 2.2-5.2 9.37-10.45 18.71-15.49 28.16-1.13 2.13-1.56 4.65-2.22 7.01-1.04 3.76-.5 6.67 2.69 9.72 13.14 12.57 26.56 24.66 43.09 32.75 2.79 1.36 5.29 3.32 7.85 5.12.99.69 2.18 1.54 2.57 2.58.83 2.22 2.06 4.87 1.46 6.84-.41 1.33-3.7 2.55-5.63 2.46-3.59-.17-7.51-.6-10.65-2.19-22.91-11.58-42.61-27.05-57.06-48.61-8.4-12.53-17.17-24.83-23.31-38.74-2.07-4.69-5.47-8.11-11.09-8.94-4.85 8.35-7.75 17.36-8.52 26.89-1.01 12.48-1.39 25-2.13 37.5-.17 2.88-.52 5.78-1.1 8.61-.62 3.06-2.63 4.71-5.86 5.06-3.37.36-4.93-1.51-5.84-4.25-.56-1.68-1.17-3.45-1.2-5.18-.28-20.66.87-41.17 7.4-60.98 1.71-5.19 3.44-10.53 6.24-15.14 1.98-3.26 5.5-5.93 8.91-7.82 1.68-.93 4.76.2 7.05.91 7.25 2.21 12.95 6.78 16.88 13.1 6.01 9.67 11.55 19.62 17.52 29.85z"/><path d="m239.53 25.11c8.42.58 11.53 4.69 10.41 12.27-.69 4.71-.9 9.51-1.03 14.28-.08 2.99 1.51 4.74 4.71 5.41 17.69 3.68 33.31 12.17 48.35 21.69 4.39 2.78 7.85 7.18 11.29 11.22 1.08 1.27 1.55 4.3.77 5.62-1.4 2.37-4.29 3.2-7.14 2.31-2.23-.7-4.47-1.53-6.48-2.71-8.49-4.97-17.04-9.84-25.28-15.2-18.44-11.99-37.55-13.47-57.27-3.87-7 3.4-13.54 7.75-20.23 11.78-3.92 2.36-7.66 5.03-11.59 7.38-1.6.96-3.46 1.6-5.28 2.06-4.7 1.17-7.59.28-8.78-2.45-1.14-2.62 1.12-7.74 4.32-9.68 11.67-7.06 23.15-14.46 35.11-21 5.8-3.17 12.42-4.97 18.81-6.92 3.46-1.05 5.02-3.04 5.33-6.35.46-4.9.65-9.83 1.36-14.69.56-3.79 1.74-7.51 2.62-11.15z"/><path d="m210.56 106.37c7.73 0 7.84.03 10.11-7.59 1.04-3.51 3.52-4.76 6.68-5.06.82-.08 2.03.75 2.58 1.51 4.35 5.99 5.15 12.98 5.32 20.08.07 2.78-.19 5.6-.52 8.37-1.86 15.58-15.73 24.73-31.17 21.44-10.82-2.31-14.49-10.02-16.28-19.25-2.01-10.36-.47-20.42 3.95-30.1 1.52-3.32 3.69-2.04 5.82-1.63 2.3.44 4.4 1.28 4.11 4.3-.04.44-.14.88-.18 1.33-.52 5.11.82 6.61 5.89 6.61 1.23-.01 2.46-.01 3.69-.01zm-8.77 14.11c.3 3.34.45 5.76.79 8.16.09.63.68 1.46 1.25 1.71 4.66 1.99 9.29 2.17 13.76-.6 2.4-1.49 2.26-4.01 1.47-5.96-.57-1.41-2.51-3.02-3.98-3.17-4.28-.41-8.62-.14-13.29-.14z"/><path d="m282.31 106.42c1-3.24 1.94-6.1 2.75-8.99.79-2.8 2.73-3.78 5.45-4.08 2.7-.3 3.69 1.25 4.63 3.32 5.19 11.47 3.7 22.95-.21 34.29-4.76 13.82-20.26 19.54-32.53 11.51-3.6-2.36-6.31-6.96-8.02-11.11-4.95-12-4.57-24.18.77-36.12.78-1.75 1.45-3.18 3.87-2.5 2.26.64 4.37 1.22 4.59 4.05.07.89-.08 1.81.06 2.68.71 4.35 1.39 6.49 6.32 6.24 3.97-.22 7.99.42 12.32.71zm-15.66 14.72c.37 1.96.64 3.72 1.06 5.44.28 1.15.46 2.59 1.24 3.29 2.4 2.15 9.6 2.1 11.47-.54 1.15-1.62.89-4.54.54-6.76-.13-.86-2.26-1.95-3.49-1.98-3.53-.09-7.08.32-10.82.55z"/><path d="m194.21 189.57c.17-2.34.31-4.4.46-6.46-4.77-.3-9.2-.59-13.64-.87-3.3-.21-4.39-2.17-4.22-5.21.25-4.35.96-5.44 4.46-5.55 10.6-.33 21.2-.55 31.8-.72 1.88-.03 3.79.29 5.66.61 6.25 1.08 8.09 5.55 4.35 10.73-.52.71-1.78 1.14-2.74 1.23-2 .19-4.02.06-6.04.06-1.9 0-3.79 0-6.03 0v7.54c3.55.19 7.2.17 10.79.66 2.95.4 4.82 2.26 4.74 5.5-.07 2.79-.99 4.5-4.32 4.56-12.52.21-25.04.7-37.56.97-3.98.08-5.16-1.36-4.94-5.38.05-.89.3-1.76.41-2.64.41-3.3 2.01-4.69 5.57-4.47 3.65.22 7.32-.33 11.25-.56z"/></g><path d="m377.9 391.2c-.2.3-.4.5-.6.8-.7-.6-1.4-1-2.2-1.5.2-.3.4-.5.5-.8.6.4 1.4.8 2.3 1.5zm-1.8 6.1c-.2-.2-.5-.4-.9-.6.4-.6.8-1.2 1.2-1.9s.7-1.3.9-1.9c.3.3.5.5.8.7-.7 1.3-1.4 2.6-2 3.7zm2.2-9c-.3.3-.5.5-.6.8-.6-.6-1.3-1.1-2-1.5.3-.3.5-.5.6-.7.6.5 1.3.9 2 1.4zm.3.2v-.9h2 4.5c-.3 1.3-.6 2.5-1 3.6s-.9 2.1-1.4 3c.4.5 1 1 1.6 1.4s1.2.8 1.9 1.1c-.3.2-.5.4-.8.8-.4-.3-1-.7-1.6-1.2s-1.2-1.1-1.6-1.6c-.5.6-1.1 1.1-1.7 1.6s-1.4.9-2.1 1.4c-.1-.3-.3-.5-.7-.8.6-.2 1.2-.5 1.9-1s1.4-1.1 2-1.8c-.5-.8-.9-1.6-1.2-2.5s-.6-2-.8-3.2c-.4.1-.7.1-1 .1zm2.5 2.7c.3 1 .7 1.7 1 2.2.3-.5.6-1.1 1-2s.6-1.9.9-3h-3.2-.4c.1.9.3 1.8.7 2.8z" fill="#fcfbfa"/><path d="m396.5 388.5v1.5 3.6h1.5v.9c-.4 0-1 0-1.7 0h-7.9c-.5 0-.9 0-1.2 0v-.9h1.3v-3.5c0-.7 0-1.2 0-1.6h2.4c0-.8 0-1.4 0-1.7h1c0 .3-.1.8-.1 1.7h1.5c0-.8 0-1.4 0-1.7h1c0 .3-.1.9-.1 1.7zm-8.2 9.2c-.2-.3-.5-.5-.8-.8.8-.3 1.4-.6 1.9-.9s1-.7 1.4-1.1c.3.3.6.5.9.8-1.6 1-2.8 1.6-3.4 2zm2.6-6.8v-1.6h-1.5v1.6zm0 2.7v-1.9h-1.5v1.9zm2.4-2.7v-1.6h-1.5v1.6zm0 2.7v-1.9h-1.5v1.9zm.2 2 .7-.8c.4.2.9.5 1.6.8s1.3.7 1.8 1c-.3.3-.5.5-.8.8-.4-.3-1.5-1-3.3-1.8zm2-4.7v-1.6h-1.4v1.6zm0 2.7v-1.9h-1.4v1.9z" fill="#fcfbfa"/></svg>