<svg enable-background="new 0 0 400 400" viewBox="0 0 400 400" xmlns="http://www.w3.org/2000/svg"><path d="m286.54 145.46c-12.2-2.36-24.09-4.47-35.89-6.99-10.01-2.13-19.58-5.49-27.89-11.77-7.56-5.71-11.32-13.31-11.49-22.77-.1-5.81-.33-11.62-.54-17.42-.1-2.66-1.1-4.1-4.2-4.2-7.02-.22-14.02-.88-21.85-1.42-.56 7.69-1.92 15.27-1.49 22.75.74 13.08-5.9 21.01-16.71 26.04-5.4 2.51-11.49 3.57-17.3 5.21-9.14 2.58-18.26 5.24-27.47 7.58-4.52 1.15-9.2 1.69-13.82 2.47-5 .85-5.78 1.81-5.86 6.72-.94 53.82-1.91 107.65-2.85 161.47-.27 15.43-.45 30.86-.72 46.29-.03 1.89-.32 3.79-.65 5.66-1.32 7.34-5.45 9.98-13.23 8.11 0-1.29-.03-2.71 0-4.12.8-37.48 1.63-74.96 2.4-112.45.75-36.37 1.39-72.73 2.17-109.1.3-14.08.55-28.17 1.42-42.23.37-5.95 1.57-12.08 3.72-17.61 1.18-3.02 4.9-5.3 7.87-7.33 9.94-6.81 21.32-9.9 33.1-10.91 14.13-1.21 28.34-1.54 42.52-2.23 2.79-.14 5.6-.35 8.38-.18 2.73.17 3.67-.72 3.75-3.52.24-8.72.51-17.45 1.33-26.12.38-4.01 2.04-7.91 3.09-11.74 6.75.66 10.96 4.75 10.93 11.11-.02 5.44-1.09 10.88-1.55 16.33-.28 3.34-.27 6.7-.45 10.05-.12 2.18.85 2.79 2.98 2.91 14.29.79 28.59 1.52 42.86 2.69 11.25.92 22.42 2.28 33.1 6.54 11.68 4.66 17.14 14.09 19.64 25.39 1.57 7.12 2.03 14.62 1.99 21.95-.07 11.97-1.3 23.92-1.43 35.89s.49 23.94.77 35.91c.85 36.14 1.5 72.28 2.67 108.41.38 11.6 2.67 23.13 3.11 34.73.42 10.91-.52 21.88-.7 32.82-.06 3.31-1.55 4.55-4.67 4.46-1.55-.05-3.1.13-5.49.25-1.39-8.49-3.61-16.8-3.98-25.19-2.27-50.3-4.17-100.62-6.07-150.94-.68-17.8-1.01-35.59-1.5-53.5zm-182.39-13.54c4.7-.77 9.03-1.27 13.26-2.22 11.41-2.56 22.96-4.74 34.11-8.17 9.64-2.96 16.74-9.1 17.52-20.34.34-4.88 1.4-9.7 1.85-14.58.24-2.62-.92-4.03-4.06-4.31-9.52-.85-18.96-.51-28.41.58-9.11 1.05-18.3 1.93-26.16 7.32-2.34 1.61-5.49 3.32-6.3 5.66-3.99 11.6-4.85 23.53-1.81 36.06zm183.05-1.79c0-8.17-.38-16.23.12-24.24.44-7.05-2.84-11.9-8.02-15.55-3.4-2.4-7.4-4.69-11.4-5.33-10.13-1.6-20.41-2.36-30.64-3.21-4.06-.34-8.16-.06-13.08-.06.47 7.63.48 14.92 1.49 22.06.9 6.41 3.82 11.81 10.79 14.03 4.89 1.56 9.53 3.87 14.39 5.53 11.65 3.98 23.56 6.83 36.35 6.77z" fill="#010103"/><path d="m230.88 137.43c6.25.79 8.68 2.65 9.17 8.47.62 7.34.78 14.74.66 22.11-.16 9.94-.41 19.88-3.29 29.58-1.62 5.46-4.5 8.87-9.97 10.98-12.23 4.71-24.7 5.76-37.57 4.15-12.06-1.51-24.1-1.7-36.05 1.04-6.03 1.38-8.93 4.57-8.87 10.76.04 4.2.79 8.43 1.6 12.58.26 1.31 1.52 2.74 2.71 3.5 6.5 4.16 13.88 5.62 21.4 5.97 10.04.47 20.13.11 30.16.76 6.88.44 13.7 1.89 20.52 3.09 8.4 1.47 13.13 6.97 14.75 14.97 1.08 5.33 1.7 10.84 1.77 16.28.32 23.52-.26 46.99-5.72 70.05-.31 1.3-.86 2.56-1.07 3.87-.97 5.93-4.3 9.29-11.24 9.68-.59-3.98-1.86-8.23-1.71-12.42.48-13.85 1.17-27.71 2.37-41.52.78-8.99 2.64-17.89 3.93-26.84.73-5.07.35-10.01-1.89-14.75-2.36-4.99-6.18-8-11.67-8.28-7.7-.38-15.42-.56-23.13-.5-13.59.11-27.08-.81-40.22-4.36-9.76-2.64-14.8-9.81-16.67-19.48-1.94-10.01 1.62-19.23 4.05-28.6.21-.82 1.27-1.5 2.05-2.09 8.51-6.38 18.35-8.58 28.72-8.65 10.62-.08 21.25.49 31.87.28 7.81-.15 15.62-1.03 23.42-1.71 3-.26 4.22-2.76 4.43-5.16.38-4.28.11-8.62.11-13.61-3.63 0-7.06.02-10.49 0-21.15-.14-42.3-.28-63.45-.45-4.91-.04-9.83-.12-14.73-.37-1.51-.08-3.11-.56-4.44-1.28-2.71-1.48-3.05-4.13-3.02-6.96.03-2.78 2.19-3.14 4.02-3.74 10.72-3.48 21.79-3.46 32.88-3.22 18.79.4 37.58.73 56.36 1.17 2.05.05 2.67-.78 3.02-2.61 1.17-6.25 2.46-12.49 3.79-18.71.31-1.4.97-2.7 1.44-3.98z" fill="#010103"/><g fill="#fcfbfa"><path d="m377.9 391.2c-.2.3-.4.5-.6.8-.7-.6-1.4-1-2.2-1.5.2-.3.4-.5.5-.8.6.4 1.4.8 2.3 1.5zm-1.8 6.1c-.2-.2-.5-.4-.9-.6.4-.6.8-1.2 1.2-1.9s.7-1.3.9-1.9c.3.3.5.5.8.7-.7 1.3-1.4 2.6-2 3.7zm2.2-9c-.3.3-.5.5-.6.8-.6-.6-1.3-1.1-2-1.5.3-.3.5-.5.6-.7.6.5 1.3.9 2 1.4zm.3.2v-.9h2 4.5c-.3 1.3-.6 2.5-1 3.6s-.9 2.1-1.4 3c.4.5 1 1 1.6 1.4s1.2.8 1.9 1.1c-.3.2-.5.4-.8.8-.4-.3-1-.7-1.6-1.2s-1.2-1.1-1.6-1.6c-.5.6-1.1 1.1-1.7 1.6s-1.4.9-2.1 1.4c-.1-.3-.3-.5-.7-.8.6-.2 1.2-.5 1.9-1s1.4-1.1 2-1.8c-.5-.8-.9-1.6-1.2-2.5s-.6-2-.8-3.2c-.4.1-.7.1-1 .1zm2.5 2.7c.3 1 .7 1.7 1 2.2.3-.5.6-1.1 1-2s.6-1.9.9-3h-3.2-.4c.1.9.3 1.8.7 2.8z"/><path d="m396.5 388.5v1.5 3.6h1.5v.9c-.4 0-1 0-1.7 0h-7.9c-.5 0-.9 0-1.2 0v-.9h1.3v-3.5c0-.7 0-1.2 0-1.6h2.4c0-.8 0-1.4 0-1.7h1c0 .3-.1.8-.1 1.7h1.5c0-.8 0-1.4 0-1.7h1c0 .3-.1.9-.1 1.7zm-8.2 9.2c-.2-.3-.5-.5-.8-.8.8-.3 1.4-.6 1.9-.9s1-.7 1.4-1.1c.3.3.6.5.9.8-1.6 1-2.8 1.6-3.4 2zm2.6-6.8v-1.6h-1.5v1.6zm0 2.7v-1.9h-1.5v1.9zm2.4-2.7v-1.6h-1.5v1.6zm0 2.7v-1.9h-1.5v1.9zm.2 2 .7-.8c.4.2.9.5 1.6.8s1.3.7 1.8 1c-.3.3-.5.5-.8.8-.4-.3-1.5-1-3.3-1.8zm2-4.7v-1.6h-1.4v1.6zm0 2.7v-1.9h-1.4v1.9z"/></g></svg>