<svg enable-background="new 0 0 400 400" viewBox="0 0 400 400" xmlns="http://www.w3.org/2000/svg"><g fill="#010103"><path d="m191.44 25.04c7.87 1.7 11.01 6.46 10.2 14.51-.6 5.98-1.18 12.02-1.04 18.01.11 4.9.59 4.78 5.46 4.96 18.1.66 36.21 1.27 54.31 2.17 9.27.46 17.98 3.19 26.16 7.7 8.57 4.73 13.19 12.41 15.38 21.42 1.54 6.34 2.73 13.09 2.31 19.54-2.59 39.88.19 79.65 1.59 119.45.92 26.18 1.97 52.35 2.96 78.52.6 15.77 1.16 31.54 1.88 47.31.13 2.9-.06 5.11-3.46 5.65-2.87.45-6.91-1.65-7.42-4.3-1.37-7.12-3.13-14.25-3.6-21.45-1.32-20.65-2.08-41.34-3.07-62.01-1.02-21.36-2.33-42.7-3.02-64.07-.94-29.08-1.43-58.18-2.1-87.28-.11-4.99-1.75-6.35-6.88-6.85-12.55-1.21-25.14-2.35-37.6-4.24-5.07-.77-10.15-2.87-14.71-5.32-8.97-4.81-14.54-12.14-15.41-22.82-.73-8.94-1.09-8.9-9.99-9.12-5.59-.14-11.19-.22-16.77-.47-2.19-.1-3.24.57-3.51 2.88-.42 3.55-1.49 7.04-1.69 10.59-.58 10.04-7.03 15.51-15 19.79-10.31 5.54-21.61 7.69-33.04 9.43-9.62 1.46-19.19 3.22-28.77 4.86-.65.11-1.27.38-2.87.65 0 11.63.19 23.26-.03 34.88-1.04 54.73-2.16 109.45-3.33 164.17-.2 9.5-.69 18.99-1.3 28.48-.15 2.27-1.07 4.57-2.03 6.68-1.27 2.76-3.71 4-6.77 4.17-2.15.12-3.51-.69-3.76-2.83-.57-4.88-1.58-9.79-1.43-14.65.54-17.45 1.73-34.88 2.24-52.33.87-29.76 1.38-59.53 2.08-89.3.52-21.82 1.12-43.64 1.65-65.46.26-10.73.05-21.49.77-32.19.51-7.65 1.61-15.38 3.68-22.73.84-2.99 4.7-5.42 7.62-7.49 9.64-6.83 20.73-10.24 32.29-11.16 16.15-1.28 32.37-1.7 48.57-2.19 3.28-.1 4.51-1.23 4.51-4.19.01-5.7-.09-11.41-.06-17.11.06-5.83 1.56-11.24 5-16.26zm-87.83 83.83c.85 0 1.63.11 2.38-.02 10.7-1.79 21.37-3.68 32.08-5.42 10.75-1.74 20.39-5.8 28.52-13.13.84-.76 1.74-1.87 1.9-2.92.95-6.41-1.58-9.74-8.03-9.91-5.79-.16-11.62.08-17.38.68-10.1 1.05-20.19 2.04-29.7 6.36-5.33 2.42-8.65 5.6-9.61 11.54-.71 4.32-2 8.48-.16 12.82zm125.04-31.85c0 3-.12 5.55.02 8.09.29 5.24 2.65 8.9 7.75 11.01 13.07 5.4 26.75 7.77 40.74 8.68 3.82.25 7.67.04 11.51.04-.35-11.92-3.14-17.07-11.93-21.67-2.54-1.33-5.3-2.46-8.1-3.07-12.94-2.85-26.13-2.87-39.99-3.08z"/><path d="m240.17 346.08c-2.45-4.58-2.46-9.19-.96-13.79 3.72-11.36 7.65-22.66 11.35-34.03 6.63-20.39 11.69-41.12 11.63-62.73-.02-6.13-.49-12.31-1.33-18.39-.96-6.91-4.67-10.37-11.96-11.9-.37 2.95-.8 5.87-1.1 8.81-1.64 15.8-2.98 31.65-4.96 47.41-1.92 15.31-6.77 29.87-13.52 43.71-10.4 21.29-22.49 41.53-38.78 58.94-3.25 3.47-6.97 6.72-11.03 9.14-2.56 1.53-6.15 1.8-9.28 1.8-2.99 0-4.57-3.08-3.29-5.82.98-2.08 2.18-4.18 3.74-5.84 8.19-8.73 17.17-16.81 24.67-26.09 13.39-16.58 21.53-35.97 27.45-56.33 6.49-22.33 10.6-45.05 11.24-68.34.03-1.21 0-2.43 0-4.71-1.68 1-2.97 1.43-3.77 2.3-6.2 6.73-10.27 14.61-12.11 23.57-1.96 9.53-3.47 19.15-5.73 28.61-3.16 13.28-9.28 25.38-16.21 37.04-4.17 7.02-8.62 13.87-13.21 20.62-3 4.41-6.96 7.57-12.8 7.28-3.54-.18-5.31-1.79-4.48-5.31.72-3.08 1.71-6.57 3.76-8.79 17.62-19.17 27.17-42.02 31.8-67.3 1.81-9.9 4.04-19.71 6.16-29.55.25-1.16.87-2.29 1.53-3.29 1.11-1.68 2.48-3.18 3.58-4.87 4.1-6.26 9.11-11.58 15.64-15.36 1.83-1.06 2.36-2.27 1.62-4.4-1.24-3.59-2.08-7.31-3.18-10.94-3.53-11.69-.89-22.2 6.57-31.47 6.99-8.68 15.81-15.12 26.21-19.29 4.52-1.81 9.38-.39 11.15 3.16.88 1.77.82 2.98-1.09 4.15-3.91 2.4-7.65 5.06-11.47 7.6-16.01 10.68-20.41 23.01-15.35 41.74 1.16 4.31 2.91 7.12 7.54 7.92 2.51.43 4.84 1.9 7.34 2.3 9.08 1.45 12.86 8.11 15.63 15.66 4.67 12.74 4.57 25.84 2.59 39.08-4.21 28.17-10.5 55.8-20.67 82.47-1.35 3.55-2.84 7.05-4.08 10.64-.73 2.14-1.77 3.37-4.23 3.48-2.19.08-4.36.7-6.61 1.11z"/><path d="m147.1 128.59c8.03 1.65 10.48 4.92 9.92 12.68-.34 4.78-.66 9.57-.78 14.36-.1 3.79 1.8 6.29 5.51 7.38 1.5.44 2.92 1.16 4.42 1.56 10.09 2.64 14.65 9.96 16.43 19.53 1.29 6.96.33 13.82-1.61 20.55-.85 2.95-2.3 5.47-5.03 7.23-2.34 1.51-4.3 3.62-6.66 5.09-3.27 2.04-6.67 3.9-10.18 5.49-1.65.75-2.4 1.39-2.43 3.32-.14 8.97-.37 9.36 7.75 12.84 12.68 5.43 16.86 15.39 16.34 28.23-.09 2.23-.4 4.46-.55 6.69-.67 9.79-6.44 15.74-14.76 19.89-12.98 6.48-25.74 5.39-37.7-2.03-5.75-3.57-8.43-10.07-9.7-16.72-2.03-10.62.21-20.7 6.24-29.4 2.41-3.47 7.06-5.92 11.2-7.49 3.82-1.45 5.3-3.68 5.86-7.21.05-.33.07-.67.1-1 .59-6.37.59-6.37-5.01-9.35-15.78-8.37-21.31-25.68-14.11-43.25 2.16-5.27 5.45-8.7 10.71-11.07 9.72-4.37 9.67-4.65 9.69-15.4.02-6.99.5-13.86 3.46-20.32.24-.49.53-.96.89-1.6zm4.87 80.51c11.43-.14 15.26-5.28 17.11-16.99.87-5.53-1.44-9.84-6.03-12.88-5.43-3.59-11.69-5.16-17.88-4.19-3.28.51-7.3 3.34-8.85 6.25-2.04 3.83-2.68 8.78-2.66 13.24.04 8.42 4.73 13.01 12.99 13.99 1.78.21 3.55.39 5.32.58zm-1.4 74.83c2.11-.45 5.15-.75 7.92-1.78 6.55-2.43 7.61-8.56 8.8-14.35 1.09-5.29-.74-9.67-5.02-12.97-5.51-4.26-12.13-5.71-18.64-4.99-3.33.37-7.32 3.41-9.19 6.38-2.77 4.4-3.2 9.91-2.4 15.26 1 6.67 4.75 10.58 11.29 11.63 2.1.33 4.21.48 7.24.82z"/></g><path d="m377.9 391.2c-.2.3-.4.5-.6.8-.7-.6-1.4-1-2.2-1.5.2-.3.4-.5.5-.8.6.4 1.4.8 2.3 1.5zm-1.8 6.1c-.2-.2-.5-.4-.9-.6.4-.6.8-1.2 1.2-1.9s.7-1.3.9-1.9c.3.3.5.5.8.7-.7 1.3-1.4 2.6-2 3.7zm2.2-9c-.3.3-.5.5-.6.8-.6-.6-1.3-1.1-2-1.5.3-.3.5-.5.6-.7.6.5 1.3.9 2 1.4zm.3.2v-.9h2 4.5c-.3 1.3-.6 2.5-1 3.6s-.9 2.1-1.4 3c.4.5 1 1 1.6 1.4s1.2.8 1.9 1.1c-.3.2-.5.4-.8.8-.4-.3-1-.7-1.6-1.2s-1.2-1.1-1.6-1.6c-.5.6-1.1 1.1-1.7 1.6s-1.4.9-2.1 1.4c-.1-.3-.3-.5-.7-.8.6-.2 1.2-.5 1.9-1s1.4-1.1 2-1.8c-.5-.8-.9-1.6-1.2-2.5s-.6-2-.8-3.2c-.4.1-.7.1-1 .1zm2.5 2.7c.3 1 .7 1.7 1 2.2.3-.5.6-1.1 1-2s.6-1.9.9-3h-3.2-.4c.1.9.3 1.8.7 2.8z" fill="#fcfbfa"/><path d="m396.5 388.5v1.5 3.6h1.5v.9c-.4 0-1 0-1.7 0h-7.9c-.5 0-.9 0-1.2 0v-.9h1.3v-3.5c0-.7 0-1.2 0-1.6h2.4c0-.8 0-1.4 0-1.7h1c0 .3-.1.8-.1 1.7h1.5c0-.8 0-1.4 0-1.7h1c0 .3-.1.9-.1 1.7zm-8.2 9.2c-.2-.3-.5-.5-.8-.8.8-.3 1.4-.6 1.9-.9s1-.7 1.4-1.1c.3.3.6.5.9.8-1.6 1-2.8 1.6-3.4 2zm2.6-6.8v-1.6h-1.5v1.6zm0 2.7v-1.9h-1.5v1.9zm2.4-2.7v-1.6h-1.5v1.6zm0 2.7v-1.9h-1.5v1.9zm.2 2 .7-.8c.4.2.9.5 1.6.8s1.3.7 1.8 1c-.3.3-.5.5-.8.8-.4-.3-1.5-1-3.3-1.8zm2-4.7v-1.6h-1.4v1.6zm0 2.7v-1.9h-1.4v1.9z" fill="#fcfbfa"/></svg>