<svg enable-background="new 0 0 400 400" viewBox="0 0 400 400" xmlns="http://www.w3.org/2000/svg"><g fill="#010103"><path d="m244.86 238.54c-4.87-1.73-9.59-3.13-14.09-5.07-13.09-5.65-16.57-12.02-14.6-26.14.29-2.1.91-4.16 1.12-6.27.22-2.23 1.21-3.23 3.46-3.71 4.76-1.02 4.84-1.2 6.74 3.29.77 1.82 1.18 3.83 1.48 5.79.32 2.09.28 4.24.45 6.35.35 4.27 1.97 7.38 6.7 8.22 2.69.48 5.28 1.56 8.84 2.65 0-6.48.01-12.37 0-18.26 0-2.9 1.01-6.5-.34-8.5-1.32-1.96-5.09-2.21-7.73-3.34-3.28-1.41-6.52-2.91-9.74-4.46-4.9-2.35-7.4-6.43-7.71-11.72-.36-6.02-.52-12.06-.52-18.09 0-1.53.96-3.05 1.63-5.02-4.77-.34-9.64-.65-14.5-1.05-5.54-.45-7.82-3.36-6.41-8.47.31-1.11 1.54-2.34 2.64-2.79 5.84-2.35 12.05-2.21 18.19-2.08 16.77.35 33.55.66 50.31 1.4 5.88.26 11.7 1.7 17.55 2.6 10.1 1.55 16.41 7.91 21.06 16.47 4.31 7.95 6.15 16.56 6.58 25.44.7 14.43 1.04 28.92-1.94 43.14-1.25 5.94-2.92 12.35-6.38 17.11-3.06 4.21-8.62 6.88-13.5 9.43-6.1 3.19-13.05 2.5-19.73 2.96-11.69.81-23.36 1.89-35.03 2.93-1.43.13-2.83.64-4.22 1.05-7.19 2.14-10.23 7.86-7.79 15.02.35 1.04 1.69 1.95 2.78 2.5 9.25 4.65 19.1 4.69 29.17 4.12 7.34-.42 14.74.01 22.1.33 7.92.34 12.59 5.73 16.61 11.65 5.27 7.75 7.58 16.62 8.91 25.77 2.19 14.99 3.35 30.02 1.11 45.13-.07.44-.08.89-.16 1.33-.82 4.68-3.96 7.09-8.76 6.56-.73-.08-1.78-.79-2-1.44-1.17-3.43-2.9-6.91-3.01-10.41-.37-11.74-.06-23.49-.17-35.24-.07-7.48-1.85-14.56-5.14-21.33-2.82-5.81-7.47-8.49-13.62-8.68-8.82-.27-17.68.08-26.47-.49-6.66-.43-13.38-1.38-19.85-3-12.19-3.06-19.01-15.52-15.7-27.64.26-.97.47-1.96.8-2.91 1.05-3 1.36-6.75 3.39-8.82 3.93-4.01 9.22-6.21 14.97-6.87 1.78-.2 3.56-.37 5.33-.64 7-1.03 7.49-1.65 7.19-8.8zm14.02-41.93c.34 8.77.68 17.64 1.02 26.53 6.25-.74 10.1-4.45 11.33-10.08 1.23-5.61 2.79-11.14 4.23-16.8 2.52.6 4.19.85 5.75 1.42.81.29 1.85 1.01 2.07 1.75 5 16.63 2.17 26.88-12.59 34.36-3.65 1.85-7.59 3.15-11.7 4.82.28 2.04.58 4.2.94 6.78 2.35 0 4.56.01 6.77 0 8.62-.06 17.21-.18 25.23-4.13 2.9-1.43 4.63-3.3 5.47-6.54 3.89-14.95 5.13-30.19 4.99-45.54-.07-7.16-1.34-14.23-4.83-20.7-2.69-4.98-6.58-8.76-10.25-9.76.11.59.21 1.13.3 1.67 2.76 15.69-2.33 25.3-16.92 31.64-3.77 1.65-7.68 2.99-11.81 4.58zm1.14-41v26.32c4.01-1.79 8.24-2.74 11.05-5.28 1.8-1.62 1.58-5.55 2.11-8.48.75-4.12 1.36-8.28 2.06-12.56-5.32 0-10.18 0-15.22 0zm-31.81-1.39c1.94 7.56 3.81 15.01 5.8 22.43.21.8.97 1.85 1.69 2.06 2.96.85 6 1.41 9.48 2.19-.58-9.03-1.14-17.67-1.72-26.68-5.11 0-9.99 0-15.25 0z"/><path d="m144.37 234.75c6.05 0 12.72.04 19.38-.01 7.36-.05 14.72-.24 22.08-.21 1.63.01 3.29.6 4.88 1.11 3.92 1.26 5.55 3.76 5 7.82-.1.72-.86 1.48-1.52 1.97-4.05 3.01-8.78 3.74-13.66 3.77-14.53.1-29.06.18-43.58.22-12.29.03-24.59.31-36.86-.14-6.21-.23-12.38-1.73-18.53-2.89-.98-.18-2.11-1.42-2.52-2.44-.7-1.71-.89-3.64-1.32-5.56 5-2.64 10.1-4.01 15.58-3.97 10.63.08 21.26.15 31.89.23 1.2.01 2.41 0 4.15 0 0-5.92-.03-11.49.01-17.05.11-14.99.18-29.99.44-44.98.05-2.94-.82-3.92-3.76-3.88-8.5.13-17.01.13-25.5-.09-3.09-.08-6.31-.51-9.18-1.58-2.01-.75-3.98-2.57-5.14-4.43-1.9-3.06-.94-4.52 2.27-6.13 4.74-2.37 9.64-3.02 14.9-2.98 21.04.16 42.08.01 63.12.11 4.91.02 9.83.4 14.72.89 4.75.48 6.91 3.06 7.16 7.72.1 1.84-.55 2.81-2.3 3.5-8.2 3.27-16.67 2.44-25.15 2.06-4.78-.22-9.59-.07-14.37.17-.76.04-2.07 1.42-2.07 2.19-.14 21.15-.12 42.29-.12 64.58z"/><path d="m261.73 69.81c-.41 7.84-.83 15.3-1.19 22.76-.53 11.06-1.21 22.13-1.42 33.2-.07 3.75-2.56 3.35-4.69 4.24-2.57 1.07-3.18-.79-3.97-2.29-4.12-7.82-4.48-16.24-3.94-24.83.48-7.7.86-15.4 1.07-23.11.06-2.31-.45-4.67-.98-6.95-.56-2.42-2.48-3.5-4.58-2.36-2.98 1.61-6.26 3.32-8.3 5.88-4.88 6.1-8.91 12.87-13.66 19.08-2.61 3.41-5.83 6.41-9.05 9.28-1.8 1.61-3.57 1.11-4.73-1.37-1.75-3.73-1.69-7.39.01-11 2.47-5.25 5.09-10.44 7.71-15.62.44-.87 1.15-1.64 1.88-2.31 2.38-2.21 4.96-4.21 7.2-6.55 5.29-5.52 11.42-9.61 18.88-11.51 2.48-.63 3.85-2.22 4.29-4.6.75-4.06 1.14-8.2 2.09-12.21 1-4.21 2.36-8.35 3.83-12.42.26-.73 1.86-1.5 2.75-1.41 4.86.49 7.27 4.05 6.55 9.04-.66 4.63-1.32 9.28-1.63 13.94-.22 3.23 1.03 5.59 4.72 6.44 17.45 4 29.28 15.58 39.18 29.6 4.4 6.24 7.45 13.02 6.98 20.9-.1 1.7.22 3.68-2.39 4.1-2.38.39-4.51 1.98-6.67-1.11-5.43-7.8-11.26-15.31-16.92-22.95-5.79-7.8-13.61-12.63-23.02-15.86z"/><path d="m188.77 103.13c-7.28 2.92-7.39 3-11.97-2.76-4.73-5.95-9.15-12.14-13.86-18.1-4.59-5.81-10.64-9.72-17.69-13.14-.31 3.89-.62 7.4-.87 10.92-.75 10.93-1.24 21.89-2.31 32.79-.54 5.52-1.89 11.01-3.45 16.34-.31 1.04-3.25 1.61-5.04 1.8-.95.1-2.78-.89-2.96-1.67-1.03-4.65-2.38-9.4-2.33-14.1.15-13.75.91-27.49 1.43-41.23.04-1.21.01-2.41.01-4.18-5.43 1.55-10.75 1.54-14.25 6.72-3.68 5.45-8.03 10.46-12.19 15.58-3.43 4.21-7.33 7.82-12.87 9.16-2.12.51-3.25-.08-3.41-2.24-.1-1.32-.47-2.86.03-3.95 2.55-5.52 5.22-11.01 8.14-16.35.99-1.81 2.97-3.04 4.25-4.72 7.01-9.28 15.87-15.84 27.24-18.74 2.62-.67 3.73-2.46 3.44-4.96-.44-3.76-1.12-7.49-1.74-11.22-.72-4.25-.03-8.28 2.28-11.88.52-.81 2.15-1.52 3.11-1.35 4.55.83 7.41 4.4 7.8 9.22.39 4.79.84 9.57 1.19 14.36.16 2.25 1.26 3.5 3.33 4.49 6.33 3.05 12.99 5.7 18.68 9.71 11.15 7.85 18.98 18.49 22.92 31.73.29.96.57 1.94.7 2.93.18 1.55.25 3.11.39 4.84z"/></g><path d="m377.9 391.2c-.2.3-.4.5-.6.8-.7-.6-1.4-1-2.2-1.5.2-.3.4-.5.5-.8.6.4 1.4.8 2.3 1.5zm-1.8 6.1c-.2-.2-.5-.4-.9-.6.4-.6.8-1.2 1.2-1.9s.7-1.3.9-1.9c.3.3.5.5.8.7-.7 1.3-1.4 2.6-2 3.7zm2.2-9c-.3.3-.5.5-.6.8-.6-.6-1.3-1.1-2-1.5.3-.3.5-.5.6-.7.6.5 1.3.9 2 1.4zm.3.2v-.9h2 4.5c-.3 1.3-.6 2.5-1 3.6s-.9 2.1-1.4 3c.4.5 1 1 1.6 1.4s1.2.8 1.9 1.1c-.3.2-.5.4-.8.8-.4-.3-1-.7-1.6-1.2s-1.2-1.1-1.6-1.6c-.5.6-1.1 1.1-1.7 1.6s-1.4.9-2.1 1.4c-.1-.3-.3-.5-.7-.8.6-.2 1.2-.5 1.9-1s1.4-1.1 2-1.8c-.5-.8-.9-1.6-1.2-2.5s-.6-2-.8-3.2c-.4.1-.7.1-1 .1zm2.5 2.7c.3 1 .7 1.7 1 2.2.3-.5.6-1.1 1-2s.6-1.9.9-3h-3.2-.4c.1.9.3 1.8.7 2.8z" fill="#fcfbfa"/><path d="m396.5 388.5v1.5 3.6h1.5v.9c-.4 0-1 0-1.7 0h-7.9c-.5 0-.9 0-1.2 0v-.9h1.3v-3.5c0-.7 0-1.2 0-1.6h2.4c0-.8 0-1.4 0-1.7h1c0 .3-.1.8-.1 1.7h1.5c0-.8 0-1.4 0-1.7h1c0 .3-.1.9-.1 1.7zm-8.2 9.2c-.2-.3-.5-.5-.8-.8.8-.3 1.4-.6 1.9-.9s1-.7 1.4-1.1c.3.3.6.5.9.8-1.6 1-2.8 1.6-3.4 2zm2.6-6.8v-1.6h-1.5v1.6zm0 2.7v-1.9h-1.5v1.9zm2.4-2.7v-1.6h-1.5v1.6zm0 2.7v-1.9h-1.5v1.9zm.2 2 .7-.8c.4.2.9.5 1.6.8s1.3.7 1.8 1c-.3.3-.5.5-.8.8-.4-.3-1.5-1-3.3-1.8zm2-4.7v-1.6h-1.4v1.6zm0 2.7v-1.9h-1.4v1.9z" fill="#fcfbfa"/></svg>