<svg enable-background="new 0 0 400 400" viewBox="0 0 400 400" xmlns="http://www.w3.org/2000/svg"><g fill="#010103"><path d="m187.14 212.74c.46-7.77 1.32-15.46 1.29-23.14-.05-16.67-.51-33.34-.86-50-.27-12.71.42-25.29 4.42-37.48.62-1.89 1.42-3.73 2.16-5.65 4.02.71 6.55 3.09 7.7 6.49 1.13 3.34 2.06 6.94 2.09 10.43.18 23.84.09 47.69.09 71.53v24.1c12.38.39 24.19.74 35.69-2.94 4.15-1.33 8.17-3.09 12.37-4.18 7.6-1.97 10.75-7.76 13.11-14.36 2.93-8.17 2.78-16.72 3.04-25.21.18-5.81-.09-11.64.27-17.43.34-5.53 2.64-8.04 6.75-8.68 2.35-.36 3.69.35 4.62 2.64 3.58 8.8 3.96 17.91 2.45 27.08-1.71 10.36-3.82 20.66-5.97 30.95-.38 1.82-1.58 3.68-2.89 5.06-12.1 12.68-27.53 18.29-44.47 20.54-5.88.78-11.77 1.43-17.67 2.06-4.77.51-5.97 1.28-5.93 6.19.05 5.22.72 10.46 1.53 15.62.6 3.85 2.21 7.54 2.77 11.39 1.35 9.25 7.36 14.76 14.79 19.12 3.63 2.13 7.55 3.77 12.17 6.04.34-4.08.51-7.46.95-10.81.21-1.59.54-3.43 1.5-4.59 3.32-4.01 6.38-3.61 8.82.88 4.59 8.44 5.5 17.72 5.55 27.02.04 8.94.04 18-1.38 26.77-1.13 6.93-4.02 13.7-6.99 20.13-1.3 2.8-4.94 4.44-7.22 6.88-6.66 7.16-15.2 10.44-24.51 12.04-17.57 3.01-34.9 2.46-51.12-5.67-8.57-4.29-15.27-11.21-18.16-20.53-6.48-20.93-8.02-42.14-1.27-63.38 1.99-6.28 2.47-6.37 9.43-5.97.88 3.82 1.8 7.71 2.68 11.62.96 4.3 2.39 5.16 6.55 3.42 13.1-5.48 21.81-14.52 23.44-29.25.84-7.55 1.83-15.08 2.87-23.63-5.82.6-11.58.55-17 1.9-9.63 2.4-19.03 5.73-28.57 8.51-4.61 1.35-7.52 4.43-10.02 8.31-7.14 11.11-10.92 23.41-11.38 36.41-.71 20.24-.46 40.51-.82 60.77-.11 6.58-.49 13.19-1.4 19.7-.66 4.73-4.08 6.38-8.46 4.64-1.21-.48-2.61-1.94-2.83-3.15-.93-5.04-2.08-10.17-2-15.25.39-22.82.84-45.65 1.95-68.45.75-15.43 5.21-30.16 11.58-44.2 1.09-2.4 3.9-4.2 6.23-5.81 11.19-7.7 24.04-11.2 37.07-14.02 8.19-1.76 16.48-2.96 24.99-4.46zm9.45 55.45c-.5.86-.95 1.58-1.36 2.34-4.71 8.84-11.3 15.18-21.29 18.1-6.15 1.8-11.92 4.98-17.74 7.8-1.07.52-2.17 2.3-2.16 3.49.1 7.04.22 14.1.91 21.1 1.18 12.1 7.4 19.65 18.17 22.77 1.07.31 2.15.59 3.24.84 12.04 2.71 24.2 5.27 36.44 2.06 12.77-3.35 23.65-9.15 25.1-24.46.65-6.87 1.72-13.7 2.37-20.57.25-2.67-1.03-4.43-3.9-5.36-5.3-1.72-10.45-3.93-15.66-5.92-6.18-2.36-11.51-5.96-15.69-11.1-2.87-3.53-5.51-7.24-8.43-11.09z"/><path d="m247.37 62.29c-4.61 1.22-8.51 2.15-12.33 3.33-.96.3-1.74 1.31-2.49 2.11-3.91 4.15-7.5 8.68-11.79 12.39-2.75 2.38-6.38 4.06-9.89 5.14-3.3 1.01-5.42-.71-4.72-3.99.92-4.32 2.23-9.18 5.03-12.34 5.23-5.91 11.44-11.04 17.66-15.95 2.79-2.2 6.49-3.55 9.99-4.47 6.97-1.83 11.25-5.19 11.1-13.16-.05-2.8 1.93-5.63 2.95-8.46.67-1.87 1.95-2.06 3.73-1.7 6.6 1.34 8.04 3.62 6.3 10.05-.44 1.61-.82 3.28-.89 4.93-.16 3.79 1.15 5.74 4.77 6.45 13.16 2.57 23.29 10.49 33.21 18.71 4.2 3.48 7.11 7.99 8.39 13.44.91 3.9-2.36 7.38-6.24 6.22-2.16-.65-4.39-1.8-6.03-3.33-6.73-6.24-13.27-12.73-21.66-16.77-3.57-1.72-7.38-2.94-11.7-4.63 0 7.06-.03 13.38.01 19.7.03 4.25.44 8.51.19 12.74-.34 5.77-3.34 9.08-7.62 8.84-1.01-.06-2.32-.77-2.91-1.59-3.33-4.72-4.63-10.11-4.52-15.84.09-4.47.49-8.95.46-13.42-.01-2.62-.6-5.25-1-8.4z"/><path d="m134 60.51c-6.84 3.36-13.89 4.74-19.23 10.45-4.67 4.99-10.64 8.8-16.26 12.83-1.83 1.31-4.3 1.84-6.55 2.42-3.3.85-5.2-.13-5.33-3.4-.11-2.63.16-6.2 1.79-7.82 7.98-7.94 15.18-16.99 25.57-22.01 5.49-2.65 11.47-4.34 17.32-6.17 2.43-.76 3.59-2.08 3.73-4.44.14-2.56.15-5.13.24-7.7.03-.78-.08-1.67.25-2.32.97-1.95-.12-5.45 3.59-5.41 4.14.04 6.88 2.74 7.1 6.52.16 2.9.4 5.79.69 8.68.26 2.55 1.51 4.13 4.12 5.02 11.35 3.85 21.55 9.78 30.78 17.43 4.91 4.07 9.19 8.59 10.44 15.14.31 1.61.21 3.3.32 5.35-3.76 0-7.22.17-10.65-.1-1.15-.09-2.38-1.13-3.3-2.01-8.13-7.78-17.01-14.52-26.89-19.93-.77-.42-1.55-.84-2.83-1.54-.22 1.69-.52 3.03-.55 4.39-.15 7.05-.11 14.11-.4 21.16-.14 3.32-.46 6.74-1.43 9.9-1.27 4.15-5.89 5.58-9.56 3.19-.84-.55-1.3-2.18-1.36-3.35-.58-11.85-1.06-23.7-1.6-36.28z"/><path d="m276.02 374.84c-.82-3.64-2.02-7.04-2.28-10.51-.87-11.81-1.5-23.65-2.03-35.49-.36-8.16-.47-16.33-.58-24.5-.16-11.36-1.75-22.52-4.73-33.47-2.96-10.85-14.31-19.24-26.23-19.58-4.81-.14-9.62-.2-14.41-.51-1.5-.1-3.08-.65-4.39-1.4-2.22-1.27-4.64-6.21-3.44-7.45 1.85-1.91 4.48-4.44 6.71-4.36 9.47.3 19.04.78 28.34 2.47 15.17 2.76 23.43 13.73 28.16 27.34 2.27 6.55 3.66 13.72 3.81 20.65.59 26.63.54 53.27.65 79.91.02 5.21-.15 5.22-5.28 6.25-1.09.22-2.19.34-4.3.65z"/><path d="m159.27 184.07c-4.07-9.53-4.57-19.13-4.09-28.95.27-5.56.59-11.28-.39-16.69-2.47-13.55-6.68-17.24-20.21-18.5-8.28-.78-16.72.43-25.09.38-4.33-.03-8.69-.64-12.97-1.37-4.34-.74-6.09-2.96-6.13-6.67-.04-3.15.83-5.44 4.48-5.72 6.2-.46 12.41-1.59 18.59-1.38 10.47.36 20.94 1.33 31.36 2.44 11.93 1.27 18.46 8.62 21.58 19.84 3.6 12.91 3.74 26.06 3.4 39.26-.1 4.12-.9 8.21-1.19 12.33-.18 2.55-1.2 3.83-3.85 3.97-1.76.11-3.49.66-5.49 1.06z"/><path d="m278.51 118.91c-7.34.45-14.78.29-22 1.48-11.83 1.94-16.01 5.98-17.42 19.27-.7 6.6.62 13.39.5 20.08-.12 6.57-.75 13.14-1.46 19.68-.32 2.98-1.99 5.2-5.49 5.23-2.58.02-4.69-.62-5.25-3.49-.89-4.59-2.22-9.17-2.43-13.8-.57-12.66.97-25.18 3.06-37.69 1.58-9.45 6.89-15.47 15.33-18.6 6-2.23 12.41-3.94 18.76-4.47 10.87-.91 21.83-.82 32.76-.9 2.25-.02 4.92.51 6.64 1.8 1.61 1.21 2.57 3.66 3.15 5.74.69 2.5-1.83 2.82-3.39 3.77-3.73 2.28-7.87 2.27-11.99 2.35-3.58.07-7.16.02-10.74.02-.01-.16-.02-.32-.03-.47z"/><path d="m112.08 150.42c.51-4.77.71-9.61 1.68-14.29.42-2.03 2.1-4.69 3.82-5.27 1.36-.46 4.52 1.37 5.34 2.97 1.98 3.89 3.64 8.15 4.37 12.44 1.15 6.7 1.03 13.62 2.21 20.32.92 5.22 2.48 10.5 4.8 15.24 1.2 2.44 4.5 4.12 7.19 5.49 6.68 3.42 14.05 4.23 21.41 4.99 2.87.3 5.81.73 8.5 1.7 1.88.67 3.79 2.05 5.02 3.64 2.34 3.05 1.51 5.52-1.94 7.11-6.65 3.08-13.62 3.14-20.68 2.09-1.77-.26-3.49-.79-5.26-1.05-12.9-1.9-21.54-9.34-27.53-20.59-5.8-10.9-8.7-22.43-8.93-34.79z"/><path d="m198.19 303.37c5.22.37 10.49.43 15.66 1.21 4.65.7 8.14 3.44 9.99 8 .89 2.19.56 3.62-1.64 4.93-5.65 3.36-11.88 5.05-18.24 4.84-10-.34-20.01-1.34-29.95-2.56-6.25-.76-6.88-6.72-4.42-11.41.37-.71 1.61-1.03 2.51-1.39 8.38-3.39 17.26-3.07 26.09-3.62z"/></g><path d="m377.9 391.2c-.2.3-.4.5-.6.8-.7-.6-1.4-1-2.2-1.5.2-.3.4-.5.5-.8.6.4 1.4.8 2.3 1.5zm-1.8 6.1c-.2-.2-.5-.4-.9-.6.4-.6.8-1.2 1.2-1.9s.7-1.3.9-1.9c.3.3.5.5.8.7-.7 1.3-1.4 2.6-2 3.7zm2.2-9c-.3.3-.5.5-.6.8-.6-.6-1.3-1.1-2-1.5.3-.3.5-.5.6-.7.6.5 1.3.9 2 1.4zm.3.2v-.9h2 4.5c-.3 1.3-.6 2.5-1 3.6s-.9 2.1-1.4 3c.4.5 1 1 1.6 1.4s1.2.8 1.9 1.1c-.3.2-.5.4-.8.8-.4-.3-1-.7-1.6-1.2s-1.2-1.1-1.6-1.6c-.5.6-1.1 1.1-1.7 1.6s-1.4.9-2.1 1.4c-.1-.3-.3-.5-.7-.8.6-.2 1.2-.5 1.9-1s1.4-1.1 2-1.8c-.5-.8-.9-1.6-1.2-2.5s-.6-2-.8-3.2c-.4.1-.7.1-1 .1zm2.5 2.7c.3 1 .7 1.7 1 2.2.3-.5.6-1.1 1-2s.6-1.9.9-3h-3.2-.4c.1.9.3 1.8.7 2.8z" fill="#fcfbfa"/><path d="m396.5 388.5v1.5 3.6h1.5v.9c-.4 0-1 0-1.7 0h-7.9c-.5 0-.9 0-1.2 0v-.9h1.3v-3.5c0-.7 0-1.2 0-1.6h2.4c0-.8 0-1.4 0-1.7h1c0 .3-.1.8-.1 1.7h1.5c0-.8 0-1.4 0-1.7h1c0 .3-.1.9-.1 1.7zm-8.2 9.2c-.2-.3-.5-.5-.8-.8.8-.3 1.4-.6 1.9-.9s1-.7 1.4-1.1c.3.3.6.5.9.8-1.6 1-2.8 1.6-3.4 2zm2.6-6.8v-1.6h-1.5v1.6zm0 2.7v-1.9h-1.5v1.9zm2.4-2.7v-1.6h-1.5v1.6zm0 2.7v-1.9h-1.5v1.9zm.2 2 .7-.8c.4.2.9.5 1.6.8s1.3.7 1.8 1c-.3.3-.5.5-.8.8-.4-.3-1.5-1-3.3-1.8zm2-4.7v-1.6h-1.4v1.6zm0 2.7v-1.9h-1.4v1.9z" fill="#fcfbfa"/></svg>