<svg enable-background="new 0 0 400 400" viewBox="0 0 400 400" xmlns="http://www.w3.org/2000/svg"><g fill="#fbfafa"><path d="m37.59 393.81c-.92.31-1.52.05-2-.78-.7-1.2-1.52-2.34-2.47-3.78v4.59c-.55.03-.95.05-1.41.07-.03-.37-.06-.64-.06-.91 0-1.91 0-3.81 0-5.7 1.13-.41 1.77-.03 2.29.91.62 1.11 1.38 2.14 2.31 3.19v-4.2h1.35v6.61z"/><path d="m12.94 393.88v-6.75c1.9.19 3.93-.54 5.37 1.29.8 1.01.78 2.88.03 3.97-1.37 1.97-3.4 1.51-5.4 1.49m1.45-1.22c2.04.12 2.92-.58 2.89-2.21-.03-1.51-.98-2.19-2.89-2z"/><path d="m11.81 393.87h-5.49c.68-2.18 2.47-3.48 3.51-5.45h-3.08v-1.21h5.29c-.71 2.13-2.44 3.48-3.47 5.51.86 0 1.63.04 2.39-.01.79-.05 1.14.21.85 1.16"/><path d="m39.33 393.86v-6.61h3.7v1.07h-2.22v1.52c.68.04 1.34.09 2.07.13v1.07c-.72.05-1.38.09-2.1.14v1.48h2.4v1.19h-3.85z"/><path d="m27.71 388.56c-1.15-.3-2.46-.61-3.1.64-.37.73-.41 1.93-.06 2.67.63 1.35 1.99.93 3.17.68.35.94-.01 1.32-.93 1.46-1.62.25-3.05-.27-3.76-1.48-.73-1.24-.6-3.03.31-4.17.88-1.11 2.71-1.7 4-1.16.32.13.44.74.65 1.12-.1.08-.19.16-.28.24"/><path d="m49.15 387.24v1.07c-.59.02-1.17.05-1.87.08v5.44h-1.48v-5.44h-1.85c-.05-.4-.08-.73-.13-1.15z"/><path d="m20.06 387.21h1.33v6.62h-1.33z"/><path d="m30.68 393.25c-.49.38-.8.79-1.05.76-.32-.05-.6-.45-.9-.7.26-.24.51-.64.8-.67.29-.04.62.3 1.15.61"/></g><path d="m173.73 175.43c4.84-9.19 6.56-18.38 6.16-27.88-.55-13.3-1.55-26.58-2.37-39.87-.03-.54-.24-1.07-.45-1.96-2.11.14-4.19.29-6.27.42-6.7.39-13.4.81-20.1 1.13-1.97.09-3.14.83-4.11 2.66-8.2 15.36-11.67 31.74-11.42 49.1.21 14.37 1.93 28.53 3.95 42.73 2.28 16.02 1.62 32.17-.51 48.2-3.6 27.02-9.88 53.4-20.02 78.76-6.17 15.44-13.98 29.98-24.7 42.82-.77.92-1.57 1.81-2.86 2.43 2.82-9.86 5.64-19.73 8.46-29.59 7.67-26.74 15.63-53.41 22.83-80.28 1.96-7.33 2-15.27 2.29-22.95.81-21.54-1.47-42.9-4.23-64.23-2.79-21.56-2.77-43.09 2.37-64.37.5-2.05 1.76-4.01 3.03-5.75 1.51-2.07 3.65-3.69 5.1-5.78 5.89-8.49 14.87-11.5 24.23-13.48 7.2-1.53 14.62-1.98 21.83-3.48 4.2-.88 8.36-2.5 12.19-4.46 6.75-3.45 11.61-8.26 13.27-16.45 2.3-11.37 5.88-22.47 8.92-33.69.23-.85.51-1.69 1.06-3.45 1.73 7.64 3.27 14.41 4.78 21.18 1.66 7.42 3.37 14.83 4.87 22.28.49 2.46 1.55 3.75 4.01 4.57 24.58 8.21 49.12 16.56 73.67 24.87.91.31 1.8.68 2.63 1.66-9.62.57-19.25 1.15-29.11 1.73-1.17 23.15-2.32 46.02-3.48 69.2 4.82-.33 8.98-.79 12.05-5.17 5.04-7.2 8.14-14.77 7.63-23.74-.52-9.16.56-18.21 3.03-27.87 4.96 7.1 8.2 14.17 8.73 22.06.82 12.2-1.87 24.02-5.04 35.71-.28 1.03-1.39 1.97-2.32 2.66-7.19 5.34-14.49 10.51-21.59 15.96-1.43 1.1-2.89 3.09-3.02 4.77-.46 5.88-.32 11.81-.46 17.71-.07 3.22.12 6.51-.48 9.64-.65 3.43-3.06 5.59-7 6.11-.14-.91-.35-1.73-.39-2.55-.52-10.39-1.07-20.79-1.49-31.19-.08-2.05-.83-3.2-2.71-4.06-3.96-1.81-7.68-4.23-11.74-5.75-8.96-3.35-12.75-10.71-15.48-18.97-3.01-9.12-1.97-18.42-.49-27.59 1.14-7.04 2.91-13.99 4.61-20.93 1.09-4.42 1.26-4.38 6.14-3.43 0 7.78-.13 15.59.05 23.39.11 4.68.31 9.42 1.19 14 1.53 8 6.27 14.08 13.01 19.5 3.53-23.4 6.98-46.23 10.49-69.51-25.51-.59-50.82-1.17-76.56-1.76.27 6.15.49 11.92.79 17.68.79 15.54 1.79 31.06 2.29 46.61.14 4.25 1.18 7.1 5.76 8.41 4.25-6 7.5-12.84 8.47-20.45.87-6.86.85-13.83 1.43-20.74.45-5.45 1.22-10.87 2.16-16.32 3.63 8.47 5.94 17.24 7.21 26.29 1.68 11.98-.14 23.63-3.35 35.14-.32 1.16-1.26 2.33-2.23 3.09-4.4 3.45-8.69 7.13-13.45 10.02-6.83 4.15-9.24 10.59-10.5 17.8-1.01 5.79-2.26 11.4-7.29 15.97-.32-1.46-.61-2.56-.79-3.68-1.4-8.38-2.69-16.78-4.25-25.14-.24-1.3-1.41-2.73-2.56-3.5-2.68-1.81-5.49-3.49-8.44-4.82-7.35-3.32-10.31-9.5-11.6-16.9-1.55-8.86-.57-17.67.95-26.37 1.24-7.13 3.2-14.15 4.98-21.18.45-1.77 1.42-3.41 2.82-4.98 1.1 8.84 2.21 17.67 3.3 26.51.97 7.88 2 15.76 2.86 23.65.5 4.38 4.62 4.96 7.26 7.85z" fill="#010105"/><path d="m225.89 231.2c8.49 0 17.02.43 25.48-.13 7.33-.48 11.44 3.54 14.94 8.8 5.29 7.94 6.93 17.09 6.56 26.28-.51 12.49-1.76 24.98-3.34 37.39-1.49 11.63-3.87 23.14-5.76 34.72-.49 3.01-1.71 5.46-4.1 7.39-1.13.91-2.22 1.93-3.08 3.08-4.97 6.67-12.23 9.18-19.88 10.69-14.89 2.93-29.6 1.55-44.09-2.61-1.07-.31-2.06-1.25-2.83-2.13-15.49-17.33-22.16-37.89-22.49-60.88-.23-16.77 1.45-33.27 5.88-49.45.44-1.59 1.87-3.06 3.17-4.23 1.22-1.09 2.87-1.7 4.33-2.52 15.26-8.64 15.26-8.63 32.8-7.63 4.13.24 8.26.37 12.39.55.02.23.02.45.02.68zm-43.25 74.42c.77 0 1.2.06 1.62-.01 9.28-1.41 18.54-3.01 27.85-4.2 6.45-.83 12.76-2.95 19.52-1.17 8.4 2.21 17 3.7 26.15 5.64.36-5.38 1.07-10.48.96-15.55-.31-13.57-7-18.63-19.91-14.56-17.48 5.51-34.56 4.8-51.55-1.68-.78-.3-1.62-.43-2.63-.69-.67 10.85-1.33 21.33-2.01 32.22zm1.71 8.96c2.89 8.07 5.68 15.93 8.56 23.76.23.63 1.02 1.17 1.67 1.52 9.97 5.27 20.5 8.02 31.68 5.36 11.34-2.7 21.76-6.97 26.25-19.31 1.83-5.04 1.48-9.78-.44-14.81-22.5 1.16-44.92 2.31-67.72 3.48zm.39-41.99c1.31-.65 2-.96 2.66-1.32 11.57-6.41 23.73-8.13 36.6-4.86 7.62 1.93 15.35 3.39 23.21 1.89 10.14-1.94 9.14-1.19 7.62-11.1-.6-3.94-2.21-7.82-6.29-9.32-10.19-3.75-20.33-8.52-31.63-4.07-1.33.52-2.84.57-4.26.86-8.82 1.85-17.64 3.7-26.57 5.57-.44 7.44-.87 14.55-1.34 22.35z" fill="#010105"/></svg>