<svg enable-background="new 0 0 400 400" viewBox="0 0 400 400" xmlns="http://www.w3.org/2000/svg"><g fill="#010103"><path d="m309.68 372.49c-1.92.54-3.2.9-4.48 1.26-5.37 1.5-5.78 1.49-7.86-3.79-1.13-2.85-1.82-6.02-2-9.08-1.51-26.25-3.1-52.5-4.2-78.77-1.04-25.04-1.52-50.1-2.24-75.15-.04-1.43-.01-2.86-.01-4.77-6.58-.61-12.88-1.59-19.2-1.69-10.32-.15-20.5-.81-30.68-2.77-11.76-2.26-18.34-9.51-21.63-20.38-3.43-11.31-3.54-23.05-2.83-34.62.78-12.58 2.79-25.08 4.42-37.6.53-4.02 2.32-4.97 6.72-4.24 4.39.73 5.27 1.92 4.67 6.24-.69 4.95.57 6.45 5.54 6.41 14.74-.13 29.35 1.86 43.51 5.34 15.84 3.9 20.91 10.53 22.97 26.81 1.58 12.45.98 25.2 1.12 37.82.4 34.68.38 69.37 1.16 104.04.29 12.91 2.77 25.77 3.52 38.69.93 15.38 1.05 30.82 1.5 46.25zm-80.16-209.42c.76 4.42 1.15 8.18 2.11 11.8 1.21 4.55 3.86 7.89 8.88 8.91 3.71.75 7.3 2.09 11.02 2.75 11.39 2.03 22.83 2.91 34.19-.14.93-.25 2.23-1.59 2.22-2.41-.07-4.78-.48-9.55-.78-14.56-19.03-2.1-37.85-4.17-57.64-6.35zm2.05-36.23c-.33 7.63-.65 14.91-.98 22.29 19.47 1.52 38.33 2.99 57.22 4.46.37-12.12-6.81-20.55-18.19-21.84-8.32-.94-16.66-1.72-24.97-2.74-4.29-.51-8.53-1.4-13.08-2.17z"/><path d="m166.85 98.02c6.8.52 9.14 2.88 9.61 9.05.88 11.6 2.15 23.17 2.7 34.78.7 14.86-1.37 29.41-5.74 43.68-1.25 4.09-3.97 6.34-7.11 8.43-11.21 7.48-23.93 9.51-37.04 10.03-5.81.23-11.64.2-17.42.77-5.16.51-5.86 1.68-5.93 6.87-.27 21.15-.13 42.31-.98 63.44-.79 19.67-2.71 39.29-3.98 58.94-.56 8.69-.6 17.42-1.16 26.12-.19 2.84-.96 5.77-2.1 8.38-.79 1.82-2.4 3.59-4.1 4.66-4.07 2.56-6.48 1.5-7.78-3.08-2.32-8.15-1.84-16.44-.61-24.65 2.82-18.75 3.56-37.62 4.01-56.53.75-31.21 1.75-62.42 2.66-93.62.4-13.74.44-27.51 1.43-41.21.57-7.84 2.67-15.58 4.24-23.34.21-1.06 1.19-2.11 2.07-2.86 7.57-6.48 16.62-9.59 26.31-10.76 11.3-1.38 22.65-2.45 34-3.39 2.54-.21 3.74-.86 4.19-3.43.74-4.15 1.81-8.23 2.73-12.28zm-4.18 29.01c-.88-.05-1.43-.15-1.97-.1-8.56.82-17.14 1.49-25.67 2.53-8.83 1.08-17.34 3.3-24.6 8.84-.75.57-1.8 1.37-1.87 2.13-.41 4.86-.58 9.75-.85 15 19.15-2.37 37.81-4.69 56.68-7.03-.58-7.36-1.15-14.33-1.72-21.37zm-56.26 63.3c4.62 0 8.62.11 12.62-.02 10.04-.33 20.2-.21 29.76-3.84 7.53-2.86 14.61-6.44 15.94-15.8.65-4.6-1.33-6.81-5.93-6.3-9.55 1.06-19.11 2.04-28.66 3.09-7.97.87-15.93 1.78-23.74 2.66.01 6.79.01 13.23.01 20.21z"/><path d="m149.76 270.05c.49 3.93.54 7.98 1.59 11.76 1.46 5.25 3.52 10.36 5.65 15.39.79 1.88 2.49 3.38 3.81 5.02 3.85 4.8 7.8 9.53 9.1 15.81.93 4.5-2.56 7.87-7 6.42-1.92-.63-3.92-1.79-5.29-3.26-23.26-24.87-28.56-58.38-14.22-89.22.42-.89.9-1.84 1.6-2.51 11.83-11.3 24.66-20.95 40.57-26 4.32-1.37 8.37-.93 12.55-.47 9.96 1.08 19.57 3.44 28.43 8.33 14.55 8.04 21.32 21.15 23.72 36.93 2.76 18.18-2.04 35.04-9.73 51.25-1.03 2.18-3.6 3.6-5.34 5.48-5.04 5.43-11.01 9.3-18.1 11.57-3.28 1.05-6.41 2.6-9.57 4.02-10.24 4.58-15.72 12.45-16.3 23.7-.22 4.24-.44 8.49-.74 12.73-.41 5.81-3.43 9.06-8.33 9.05-1.95-.01-3.21-.58-3.82-2.82-3.16-11.63-3.16-23.2.21-34.75.38-1.29 1.35-2.54 2.35-3.49 3.65-3.46 7.55-6.67 11.13-10.2 4.84-4.76 4.91-8.55.57-13.74-5.38-6.43-10.77-12.86-16.2-19.27-.71-.83-1.49-1.78-2.45-2.2-7.65-3.38-15.36-6.64-23.04-9.93-.37.14-.76.27-1.15.4zm1.38-16c5.99 2.55 11.64 4.87 17.22 7.38 3.85 1.73 7.86 3.31 11.32 5.67 10.32 7.03 18.02 16.62 25.01 26.82 2.19 3.2 4.38 6.39 6.68 9.75 5.97-4.28 11.7-8.34 17.36-12.5.75-.55 1.32-1.49 1.68-2.38 4.35-10.71 6.65-21.8 5.68-33.38-1.27-15.16-6.72-27.88-21.8-34.15-8.5-3.54-17.42-6.05-26.73-4.11-11.71 2.44-19.91 10.61-28.28 18.36-.31.28-.43.77-.61 1.18-2.44 5.62-4.87 11.24-7.53 17.36z"/><path d="m309.1 88.91c-3.19 0-6.1.18-8.97-.09-1.16-.11-2.36-1.05-3.3-1.89-7.02-6.23-13.82-12.71-21.02-18.71-3.02-2.52-6.85-4.06-10.93-6.4-.17 2.61-.47 4.46-.39 6.3.4 9.39 1.05 18.77 1.26 28.15.08 3.51-.37 7.17-1.41 10.5-.57 1.83-2.64 3.63-4.48 4.52-3.2 1.54-4.74.5-5.87-2.87-3.28-9.79-3.75-19.95-4.15-30.14-.21-5.24-.45-10.47-.7-16.16-4.95 1.77-9.54 2.65-13.01 6.83-4.92 5.92-10.42 11.39-16.01 16.7-2.19 2.08-5.19 3.4-7.99 4.73-2.57 1.22-3.99-.06-4.27-2.79-.54-5.19 1.36-9.94 4.18-13.81 4.06-5.57 9.08-10.47 13.84-15.5 5.39-5.69 12.48-8.72 19.63-11.24 5.53-1.95 6.99-5.73 7.53-10.85.27-2.57 1.28-5.15 2.37-7.54.84-1.83 1.93-3.93 4.79-2.95 2.86.97 5.12 2.45 5.17 5.79.03 1.66-.35 3.33-.52 5-.13 1.33-.34 2.67-.29 4 .2 5.44 1.07 6.67 6.25 8.3 12.82 4.04 22.84 12.07 31.34 22.13 4.17 5 6.61 10.86 6.95 17.99z"/><path d="m148.31 65.77c-.41 8.68-.71 16.25-1.14 23.83-.25 4.34-.4 8.73-1.16 13-.72 4.04-2.95 7.24-7.35 8.25-2.1.48-3.51.01-4.42-2.25-2.58-6.42-1.46-12.97-1.24-19.55.25-7.56.06-15.14.06-23.52-2.35.6-4.81.81-6.88 1.82-6.41 3.14-12.69 6.43-17.46 12.12-3.82 4.53-8.32 8.46-14.22 10.31-3.53 1.11-4.65.62-5.39-2.99-1.05-5.12 1.07-9.51 4.75-12.56 7.75-6.41 15.78-12.52 24.05-18.25 2.8-1.94 6.6-2.72 10.07-3.31 3.76-.64 5.01-2.59 5.12-6.1.15-4.46.55-8.92.88-13.37.06-.77.12-1.62.46-2.29.99-1.94-.04-5.45 3.74-5.28 4.53.21 7.89 3.16 8 7.07.12 4.13-.01 8.26-.04 12.39-.03 3.24 1.27 5.13 4.6 6.27 10.94 3.75 21.3 8.69 30.2 16.31 5.3 4.54 9.72 9.58 11.02 16.71.67 3.71-2.09 6.78-5.73 5.78-2.57-.71-5.08-2.2-7.19-3.87-6.54-5.19-12.68-10.9-19.4-15.84-2.93-2.15-6.88-2.91-11.33-4.68z"/><path d="m228.66 274.86c.55 4.63-4.54 7.41-8.22 5.11-1.5-.94-2.98-2.01-4.18-3.3-5.47-5.91-10.75-12-16.29-17.85-1.79-1.9-3.99-3.56-6.29-4.81-6.98-3.77-14.12-7.25-21.15-10.91-4.45-2.32-4.75-7.72-.57-10.57.61-.41 1.69-.28 2.53-.18 13.65 1.64 25.16 8.18 36.13 15.89 6.29 4.42 11.89 9.6 15.05 16.78 1.38 3.11 2.01 6.55 2.99 9.84z"/></g><path d="m377.9 391.2c-.2.3-.4.5-.6.8-.7-.6-1.4-1-2.2-1.5.2-.3.4-.5.5-.8.6.4 1.4.8 2.3 1.5zm-1.8 6.1c-.2-.2-.5-.4-.9-.6.4-.6.8-1.2 1.2-1.9s.7-1.3.9-1.9c.3.3.5.5.8.7-.7 1.3-1.4 2.6-2 3.7zm2.2-9c-.3.3-.5.5-.6.8-.6-.6-1.3-1.1-2-1.5.3-.3.5-.5.6-.7.6.5 1.3.9 2 1.4zm.3.2v-.9h2 4.5c-.3 1.3-.6 2.5-1 3.6s-.9 2.1-1.4 3c.4.5 1 1 1.6 1.4s1.2.8 1.9 1.1c-.3.2-.5.4-.8.8-.4-.3-1-.7-1.6-1.2s-1.2-1.1-1.6-1.6c-.5.6-1.1 1.1-1.7 1.6s-1.4.9-2.1 1.4c-.1-.3-.3-.5-.7-.8.6-.2 1.2-.5 1.9-1s1.4-1.1 2-1.8c-.5-.8-.9-1.6-1.2-2.5s-.6-2-.8-3.2c-.4.1-.7.1-1 .1zm2.5 2.7c.3 1 .7 1.7 1 2.2.3-.5.6-1.1 1-2s.6-1.9.9-3h-3.2-.4c.1.9.3 1.8.7 2.8z" fill="#fcfbfa"/><path d="m396.5 388.5v1.5 3.6h1.5v.9c-.4 0-1 0-1.7 0h-7.9c-.5 0-.9 0-1.2 0v-.9h1.3v-3.5c0-.7 0-1.2 0-1.6h2.4c0-.8 0-1.4 0-1.7h1c0 .3-.1.8-.1 1.7h1.5c0-.8 0-1.4 0-1.7h1c0 .3-.1.9-.1 1.7zm-8.2 9.2c-.2-.3-.5-.5-.8-.8.8-.3 1.4-.6 1.9-.9s1-.7 1.4-1.1c.3.3.6.5.9.8-1.6 1-2.8 1.6-3.4 2zm2.6-6.8v-1.6h-1.5v1.6zm0 2.7v-1.9h-1.5v1.9zm2.4-2.7v-1.6h-1.5v1.6zm0 2.7v-1.9h-1.5v1.9zm.2 2 .7-.8c.4.2.9.5 1.6.8s1.3.7 1.8 1c-.3.3-.5.5-.8.8-.4-.3-1.5-1-3.3-1.8zm2-4.7v-1.6h-1.4v1.6zm0 2.7v-1.9h-1.4v1.9z" fill="#fcfbfa"/></svg>