<svg enable-background="new 0 0 400 400" viewBox="0 0 400 400" xmlns="http://www.w3.org/2000/svg"><g fill="#010103"><path d="m198.62 25c8.27 1.52 11.7 6.05 10.96 13.68-.49 5-1.12 9.99-1.6 15-.13 1.32-.02 2.69.15 4.02.57 4.4 1.04 4.71 5.42 4.8 25.95.5 51.89 1.03 77.84 1.58 2.68.06 5.39.19 8.01.67 1.81.33 3.76 1 5.19 2.1 4.68 3.63 3.88 8.42-1.56 10.46-6.74 2.54-13.73 1.39-20.62 1.37-42.19-.16-84.38-.6-126.57-.47-8.75.03-17.61 1.54-26.21 3.39-4.49.97-8.88 3.64-12.62 6.46-4.37 3.29-6.46 7.93-6.59 13.92-1.57 69.48-3.2 138.96-5.3 208.43-.45 15.06-2.78 30.07-4.25 45.1-.33 3.34-.61 6.69-1.06 10.01-.89 6.54-4.81 9.99-10.13 8.85-1.01-.22-2.46-1.16-2.63-1.99-.64-3.22-1.38-6.58-1.11-9.8 1.09-13.37 3.17-26.69 3.73-40.07 1.93-45.61 3.51-91.24 4.94-136.88.72-22.82.81-45.65 1.21-68.48.2-11.48 2.23-22.69 5.52-33.66.41-1.38 1.51-2.73 2.63-3.7 9.68-8.39 21.13-12.56 33.68-14.58 16.92-2.73 33.93-1.88 50.91-2.06 5.28-.05 5.53-.16 5.98-5.55.54-6.58.74-13.19 1.48-19.74.48-4.26 1.69-8.46 2.6-12.86z"/><path d="m170.57 233.82c-2.56-7.71-4.45-14.63-7.22-21.17-1.29-3.05-4.46-5.25-6.49-8.05-2.49-3.42-4.84-6.96-6.9-10.65-.88-1.57-1.09-3.63-1.21-5.5-.23-3.54 2.36-5.46 5.87-4.54 6.52 1.72 11.26 5.94 14.91 11.32 7.24 10.68 13.02 21.96 12.92 35.34-.02 2.07.81 2.68 2.78 2.71 5.48.08 10.96.26 16.43.56 2.18.12 3.03-.65 3.05-2.81.08-8.61.17-17.21.42-25.82.11-3.89.26-7.83.99-11.64.69-3.55 2.94-6.26 6.68-7.27 1.9-.52 3.19-.3 4.11 1.98 3.47 8.51 2.92 17.27 2.3 26.12-.37 5.23-.34 10.5-.43 15.75-.04 2.15.94 3.14 3.28 3.15 5.36.03 10.73.25 16.09.54 2.16.12 2.96-.61 3.63-2.76 3.34-10.65 6.65-21.34 10.63-31.76 2.99-7.83 8.88-12.73 17.61-13.59 5.5-.54 8.34 3.24 5.96 8.3-.89 1.88-2.25 3.6-3.65 5.17-5.28 5.9-9.45 12.29-11.55 20.14-1.27 4.75-4.03 9.09-6.37 14.15 7.54.19 14.88.3 22.21.59 1.98.08 4 .51 5.87 1.15 2.71.94 3.82 3.13 4.1 5.96.3 2.95-1.67 3.82-3.76 4.75-8.36 3.73-17.16 3.55-26.04 3.06-9.83-.54-19.66-.91-29.49-1.28-1.55-.06-3.14.11-4.66.46-2.17.49-3.32 1.74-3.31 4.27.15 33.25.22 66.49.28 99.74.01 4.92.05 9.86-.33 14.76-.47 6.02-3.65 8.47-9 7.67-1.82-.27-2.62-1.02-3.02-2.86-3.32-15-3.38-30.18-3.08-45.43.5-25.18.78-50.36 1.14-75.54.01-.65-.1-1.3-.18-2.33-8.36 0-16.59.05-24.82-.01-10.39-.08-20.81.11-31.17-.59-3.61-.25-7.57-2.19-10.44-4.5-3.77-3.03-2.87-6.47 1.71-7.72 3.83-1.05 7.87-1.57 11.85-1.76 5.87-.27 11.78-.06 18.3-.06z"/><path d="m249.48 113.8c.14-5.71.53-11.04.32-16.35-.26-6.62.41-12.73 5.99-17.42 4.59 1.96 7.6 5.26 8.11 10.21.64 6.33.82 12.7 1.22 19.06.08 1.32.29 2.63.45 4.05 5.79-.76 8.92-4.16 10.22-9.29.74-2.9.78-5.98 1.43-8.91.47-2.12.96-4.5 2.24-6.13 3.43-4.34 6.96-3.72 9.04 1.27 3.49 8.38 2.62 16.64-.83 24.76-.43 1.01-1.57 1.85-2.56 2.47-6.06 3.81-12.13 7.6-18.28 11.26-1.73 1.03-2.54 2.21-2.49 4.26.22 9.06.43 18.11.46 27.17.02 5.35.14 10.76-.63 16.02-.82 5.54-4.74 8.18-9.72 7.35-1-.17-2.47-1.3-2.62-2.18-.9-5.16-1.94-10.36-2.07-15.57-.27-11.19-.16-22.39.11-33.58.07-3.1-1.02-4.29-3.8-5.03-3.55-.94-7.23-1.86-10.41-3.6-10.05-5.52-12.79-14.92-12.58-25.59.04-2.1.52-4.21 1-6.27 1.02-4.38 5.22-6.6 9.27-4.89.68.29 1.33 1.19 1.55 1.94 1.13 3.95 2.57 7.89 3.04 11.94.86 7.57 2.96 10.49 11.54 13.05z"/><path d="m159.3 112.57c0-5.28.38-10.18-.09-14.99-.67-6.85 1.46-12.47 5.94-17.54 5.2 2.04 8.17 5.59 8.23 11.15.09 7.37.02 14.73.02 22.24 5.95-.66 10.02-2.72 11-8.72.6-3.64 1.45-7.23 2.19-10.84 1-4.93 3.34-7.42 7.34-7.21 1.28.07 2.99 1.01 3.65 2.08 3.33 5.36 3.14 11.22 2.02 17.21-1.26 6.74-4.2 12.06-10.73 15.15-4.23 2-8.13 4.7-12.28 6.89-2.52 1.33-3.8 2.94-3.66 6 .47 10.73.78 21.47.96 32.21.06 3.22-.21 6.5-.87 9.64-.41 1.98-1.48 4.06-2.84 5.57-3.75 4.2-7.46 3.44-9.15-1.77-2.16-6.7-2.29-13.61-1.82-20.59.52-7.7.82-15.41 1.05-23.12.12-4.06-1.08-7.09-5.75-8.37-7.52-2.07-13.77-6.24-17.98-13.11-5-8.14-5.49-16.73-2.09-25.39.61-1.55 3.94-2.23 6.15-2.81.6-.16 2.11 1.4 2.47 2.42 1.44 4.09 2.9 8.22 3.78 12.46 1.35 6.37 4.66 9.96 12.46 11.44z"/><path d="m166.24 269.63c6.77 1.23 8.98 3.24 9.67 9.53 2.11 19.19-.25 37.94-6.42 56.16-2.25 6.64-5.3 13.01-8.01 19.5-1.6 3.82-4.97 5.64-8.53 7.01-2.69 1.03-5.15.31-5.44-2.91-.25-2.9-.59-6.27.56-8.75 7.09-15.23 9.99-31.69 14.17-47.74 1.42-5.45.56-11.54.38-17.33-.17-5.5.63-10.64 3.62-15.47z"/><path d="m273.91 358.35c-2.87.55-5.37 1.25-7.89 1.39-.94.05-2.31-1.01-2.89-1.94-7.19-11.48-11.72-24.04-15.01-37.13-3.76-14.94-5.43-29.94-1.73-45.11.62-2.56 2.08-5 3.55-7.22.39-.59 2.51-.64 3.45-.16 3.22 1.62 5.14 4.36 5.08 8.06-.27 16.67 3.16 32.91 6.06 49.16 1.75 9.84 5.41 19.33 8.21 28.98.34 1.17.69 2.34 1.17 3.97z"/><path d="m224.27 179.93c-.51-2.86-1.35-5.44-1.38-8.03-.19-13.7 2.76-26.79 7.89-39.46 1.17-2.89 2.66-3 5.07-1.61 3.91 2.27 5.52 5.92 5.63 10.07.33 12.34-2.43 24.16-6.75 35.64-.29.77-1.26 1.6-2.06 1.8-2.58.64-5.22 1.01-8.4 1.59z"/><path d="m280.89 129.7c5.15 1.08 8.2 4.33 9.97 8.53 5.19 12.39 6.82 25.37 5.1 38.68-.18 1.37-2.56 3.62-3.65 3.47-2.43-.32-6.24-1.4-6.78-3.06-4.4-13.55-9.33-27.14-6.35-41.83.38-1.92 1.1-3.78 1.71-5.79z"/><path d="m140.23 129.48c9.93 2.94 9.4 1.04 9.61 10.66.25 11.4-1.46 22.73-5.12 33.6-.71 2.11-2.57 4.15-4.44 5.47-3.58 2.53-6.93 1.31-7.57-2.98-.73-4.89-1.4-10.11-.46-14.87 2.1-10.65 5.22-21.11 7.98-31.88z"/><path d="m204.31 178.84c-2.46 0-4.7.16-6.89-.08-.89-.1-2.05-.9-2.47-1.71-7.53-14.5-9.53-29.64-4.9-45.45.25-.84 1.4-2.07 2.03-2.01 1.73.17 4.38.43 4.94 1.53 2.08 4.14 4.02 8.51 5.01 13.02 2.36 10.71 4.14 21.54 2.7 32.6-.06.55-.21 1.09-.42 2.1z"/></g><path d="m377.9 391.2c-.2.3-.4.5-.6.8-.7-.6-1.4-1-2.2-1.5.2-.3.4-.5.5-.8.6.4 1.4.8 2.3 1.5zm-1.8 6.1c-.2-.2-.5-.4-.9-.6.4-.6.8-1.2 1.2-1.9s.7-1.3.9-1.9c.3.3.5.5.8.7-.7 1.3-1.4 2.6-2 3.7zm2.2-9c-.3.3-.5.5-.6.8-.6-.6-1.3-1.1-2-1.5.3-.3.5-.5.6-.7.6.5 1.3.9 2 1.4zm.3.2v-.9h2 4.5c-.3 1.3-.6 2.5-1 3.6s-.9 2.1-1.4 3c.4.5 1 1 1.6 1.4s1.2.8 1.9 1.1c-.3.2-.5.4-.8.8-.4-.3-1-.7-1.6-1.2s-1.2-1.1-1.6-1.6c-.5.6-1.1 1.1-1.7 1.6s-1.4.9-2.1 1.4c-.1-.3-.3-.5-.7-.8.6-.2 1.2-.5 1.9-1s1.4-1.1 2-1.8c-.5-.8-.9-1.6-1.2-2.5s-.6-2-.8-3.2c-.4.1-.7.1-1 .1zm2.5 2.7c.3 1 .7 1.7 1 2.2.3-.5.6-1.1 1-2s.6-1.9.9-3h-3.2-.4c.1.9.3 1.8.7 2.8z" fill="#fcfbfa"/><path d="m396.5 388.5v1.5 3.6h1.5v.9c-.4 0-1 0-1.7 0h-7.9c-.5 0-.9 0-1.2 0v-.9h1.3v-3.5c0-.7 0-1.2 0-1.6h2.4c0-.8 0-1.4 0-1.7h1c0 .3-.1.8-.1 1.7h1.5c0-.8 0-1.4 0-1.7h1c0 .3-.1.9-.1 1.7zm-8.2 9.2c-.2-.3-.5-.5-.8-.8.8-.3 1.4-.6 1.9-.9s1-.7 1.4-1.1c.3.3.6.5.9.8-1.6 1-2.8 1.6-3.4 2zm2.6-6.8v-1.6h-1.5v1.6zm0 2.7v-1.9h-1.5v1.9zm2.4-2.7v-1.6h-1.5v1.6zm0 2.7v-1.9h-1.5v1.9zm.2 2 .7-.8c.4.2.9.5 1.6.8s1.3.7 1.8 1c-.3.3-.5.5-.8.8-.4-.3-1.5-1-3.3-1.8zm2-4.7v-1.6h-1.4v1.6zm0 2.7v-1.9h-1.4v1.9z" fill="#fcfbfa"/></svg>