<svg enable-background="new 0 0 400 400" viewBox="0 0 400 400" xmlns="http://www.w3.org/2000/svg"><path d="m362.1 8.8c1.1.8 2.1 1.6 3.1 2.4l-1 1.1c-1.3-1.1-2.3-2-3-2.5zm1.9 4.8c.5.2.9.4 1.4.5-.6 2.3-1.3 4.5-1.9 6.8l-1.5-.5c.8-2.1 1.4-4.3 2-6.8zm-1-9.4c1.3.9 2.4 1.8 3.4 2.5l-1 1.1c-1.4-1.2-2.4-2.1-3.2-2.6zm3.7 2.2v-1.4h10.3v1.2c-.5 3.6-1.8 6.8-4 9.4 1.5 1.6 3.4 2.8 5.7 3.8-.3.4-.7.8-1.1 1.4-2.3-1.1-4.1-2.5-5.6-4.1-1.6 1.6-3.6 3.1-5.9 4.3-.3-.5-.7-.9-1-1.3 2.4-1.1 4.4-2.5 6-4.1-1.9-2.5-3-5.6-3.3-9.3h-1.1zm8.8 0h-6.4c.3 3.3 1.3 6 3 8.2 2-2.3 3.1-5.1 3.4-8.2z" fill="#fbfcfa"/><path d="m385.3 3.8h1.3v2.2h2.8v-2.2h1.3v2.2h4.1v9.1h1.7v1.3h-16.9v-1.3h1.7v-9.1h4.1v-2.2zm.4 13.1.7 1.2c-1.8.9-3.8 1.9-6 2.9-.2-.4-.5-.8-.8-1.3 2.3-1 4.3-1.9 6.1-2.8zm-3.1-6.4h2.8v-3.2h-2.8zm0 4.6h2.8v-3.3h-2.8zm4-4.6h2.8v-3.2h-2.8zm0 4.6h2.8v-3.3h-2.8zm3.7 1.9c2.1.9 4.1 1.8 6.1 2.7l-.7 1.3c-2.2-1.1-4.2-2-6.1-2.9zm3.2-9.7h-2.8v3.2h2.8zm-2.8 7.8h2.8v-3.3h-2.8z" fill="#fbfcfa"/><g fill="#010106"><path d="m99.19 373.74c5.18-5.91 10.22-11.43 15.01-17.17 17.01-20.38 26.38-44.44 33.32-69.65.95-3.45 1.68-6.96 2.72-10.38.61-2.01-.07-3.03-1.72-4.05-8.07-5.01-16.59-4.59-25.24-2.12-.93.27-1.71 1.37-2.38 2.22-6.72 8.59-12.26 17.9-16.36 28.01-3.95 9.77-9.02 18.75-17.3 25.56-2.03 1.67-4.2 3.18-6.85 4.27.52-.75.97-1.55 1.55-2.25 15.21-18.3 24-39.42 27.3-62.85 3.79-26.88 5.18-53.91 4.61-81.04-.02-.78.19-1.7-.14-2.32-.55-1.05-1.29-2.23-2.27-2.75-.56-.3-2.04.36-2.62 1.02-6.35 7.22-12.6 14.52-19.54 22.56.39-1.8.51-2.67.76-3.49 4.87-16.28 9.75-32.55 14.63-48.82 4.4-14.67 4.56-29.69 2.1-44.55-2.78-16.74-6.74-33.28-10.19-49.91-.18-.85-.33-1.71-.74-3.78 2.13 1.17 3.99 1.58 4.8 2.73 4.94 7.04 10.36 13.88 14.25 21.48 6.01 11.73 15.3 12.43 25.08 10.48.91-.18 1.99-1.63 2.24-2.67 2.41-10.08 1.11-20-1.69-29.81-2.9-10.14-6.8-19.86-12.44-28.93 5.44-.12 12.24 3.88 16.83 9.63 5.51 6.89 8.32 14.99 10.62 23.34 7.69 27.92 11.73 56.47 14.9 85.18 2.61 23.63 3.25 47.35 2.62 71.1-1.03 38.97-9.23 76.49-23.47 112.73-.4 1.01-1.04 1.99-1.77 2.8-8.48 9.39-16.91 18.82-25.53 28.07-6.02 6.46-13.34 11.19-21.35 14.87-.45.2-.97.27-1.74.49zm51.7-229.61c-7.54 1.41-14.99 2.65-22.37 4.22-6.98 1.48-12.57 4.66-13.36 12.78-.11 1.09-.76 2.13-.88 3.22-.13 1.17-.23 2.5.19 3.53 5.26 12.94 10.59 25.86 16.02 38.74.44 1.04 1.67 2.08 2.76 2.45 7.77 2.65 15.16 1.62 22.23-2.52 1.86-1.09 2.37-2.32 2.07-4.34-.53-3.54-.87-7.11-1.28-10.67-1.81-16-3.63-32-5.38-47.41zm-24.89 114.16c9.72-1.21 18.88-2.36 28.99-3.63 0-8.06.27-15.99-.17-23.87-.12-2.21-1.84-4.89-3.64-6.35-5.58-4.52-14.6-3.51-19.41 1.74-.42.46-.7 1.16-.8 1.79-1.65 9.91-3.26 19.83-4.97 30.32zm-1.8-123.9c9.14-2.26 18-4.42 26.82-6.72.66-.17 1.53-1.39 1.5-2.08-.32-6.11-.33-12.3-1.42-18.29-1.11-6.09-10.67-10.09-16.32-7.39-3.42 1.63-6.85 3.28-10.16 5.12-.88.49-1.96 1.73-1.93 2.58.38 8.79.96 17.58 1.51 26.78z"/><path d="m271.75 24.8c3.76 2.21 7.52 3.78 10.5 6.27 17.57 14.65 26.93 32.87 23.2 56.31-.44 2.78-1.72 5.54-3.13 8.02-4.24 7.48-8.5 14.95-14.71 21.12-1.73 1.72-2.7 4.32-3.63 6.67-1.42 3.59-.58 6.62 1.93 9.83 11.49 14.65 19.61 30.94 22.54 49.52 2.29 14.52 1.16 28.83-3.48 42.74-4.84 14.51-8.57 29.16-8.34 44.62.33 21.34 6.67 40.9 17.07 59.31.81 1.44 1.66 2.87 2.61 4.51-3.22.92-5.33.24-7.43-2.22-10.13-11.84-18.64-24.54-23.08-39.72-3.47-11.87-2.17-23.59-.43-35.56 3.04-20.92 5.21-41.96 8-62.91.76-5.75-.36-11.02-1.9-16.43-4.38-15.37-8.54-30.8-12.79-46.21-.26-.96-.56-1.91-.95-3.21-4.93.52-9.79 1.02-15.54 1.62 32.65-32.16 30.29-67.01 9.56-104.28z"/><path d="m273.22 369.5c-1.65-.95-3.89-1.49-4.87-2.91-9.79-14.16-19.9-28.16-28.91-42.81-14.86-24.16-15.66-50.16-7.52-76.66 4.59-14.96 10.11-29.64 12.62-45.16 1.23-7.61 2.15-15.28 2.99-22.95.2-1.81-.25-3.78-.78-5.57-3.37-11.36-6.85-22.68-10.29-34.02-.22-.73-.37-1.49-.79-3.24 2.98 2.42 5.32 4.19 7.52 6.13 10.03 8.83 17.91 19.04 20.88 32.44 1.94 8.76 1.06 17.33-1.36 25.86-5.93 20.97-11.53 42.05-17.82 62.92-3.68 12.21-3.16 24.26-.9 36.47 2.93 15.85 10.59 29.85 17.38 44.17 3.92 8.27 8.22 16.36 12.35 24.53-.17.27-.34.53-.5.8z"/><path d="m192.53 137.39c16.44 19.8 27.61 40.94 21.38 67.49-2.5 10.65-6.3 21.01-8.49 31.71-4.93 24.02-5.46 48.15-.48 72.32 2.05 9.96 3.19 20.11 5.15 30.09.9 4.56 2.63 8.98 4.27 13.35 2.7 7.21 5.64 14.33 8.47 21.49-.2.22-.4.45-.6.67-1.32-1.08-2.87-1.98-3.93-3.27-8.9-10.88-14.66-23.48-19.45-36.54-6.63-18.1-11.94-36.57-13.86-55.85-1.21-12.13-.57-24 3.79-35.68 6.47-17.34 10.65-35.31 12.58-53.74 1.73-16.51-1.6-32.27-7.55-47.59-.44-1.14-.92-2.28-1.36-3.42-.07-.18.02-.41.08-1.03z"/><path d="m217.84 143.02c2.59-6.36 4.16-12.92 9.71-17.92 10.85-9.76 14.59-22.75 13.67-37.05-1.25-19.63-6.21-38.32-15.15-55.89-.19-.38-.32-.79-.52-1.28 14.11 4.18 27.12 16.14 29.54 31.91 2.4 15.61.56 30.74-4.83 45.5-.33.91-.95 1.78-1.62 2.49-9.92 10.48-19.86 20.93-29.81 31.39-.29.31-.65.56-.99.85z"/><path d="m186.05 122.64c2.38-6.77 5.28-13.54 7.12-20.59 3.22-12.35 1.16-24.73-1.6-36.86-2.13-9.35-5.06-18.51-7.64-27.76-.26-.94-.53-1.89-.96-3.4 6.28 2.19 11.33 5.46 15.84 9.57 7.32 6.69 10.77 15.13 11.26 24.97.66 13.23-.96 26.12-5.6 38.55-.54 1.46-1.66 2.91-2.89 3.87-5.19 4.07-10.54 7.94-15.53 11.65z"/></g></svg>