<svg enable-background="new 0 0 400 400" viewBox="0 0 400 400" xmlns="http://www.w3.org/2000/svg"><g fill="#010103"><path d="m134.72 205.8c-.35 6.28-.75 12.29-.96 18.31-.02.69.81 1.74 1.51 2.07 1.5.7 3.15 1.17 4.78 1.51 12.62 2.6 19.58 11.24 24.14 22.49 4.36 10.75 5.8 22.05 5.76 33.51-.06 16.89-.6 33.78-.78 50.67-.03 2.67-.96 3.84-3.5 4.02-.89.06-1.83.16-2.62.51-2.19.96-3.21-.14-3.58-2.03-1.37-6.99-3.31-13.96-3.8-21.02-.93-13.5-.95-27.05-1.47-40.58-.31-8.08-1.38-16.04-4.91-23.47-2.89-6.08-7.71-9.63-14.87-11.21 0 7.71.06 15.17-.01 22.62-.24 24.73-.59 49.45-.77 74.18-.06 8.27.36 16.54.35 24.81 0 2.42-.33 5-1.24 7.2-.74 1.81-2.28 3.68-3.97 4.65-3.4 1.96-5.94 1.13-6.96-2.6-1.26-4.56-2.22-9.37-2.25-14.08-.29-37.48-.32-74.96-.45-112.44 0-1.32-.18-2.63-.29-4.12-6.29 1.23-10.96 3.81-13.72 9.9-4.65 10.29-6.75 21.06-7.23 32.18-.67 15.75-.94 31.51-1.49 47.27-.07 2.08-.52 4.24-1.31 6.16-1.12 2.73-3.71 3.23-6.43 3.33-2.73.11-3.31-1.95-3.91-3.81-.72-2.22-1.56-4.53-1.61-6.81-.48-21.38-.74-42.81 3.89-63.82 1.94-8.78 5.31-17.25 8.16-25.82.39-1.16 1.36-2.48 2.42-3.01 5.95-2.99 11.94-5.95 18.07-8.53 2.41-1.01 3.51-2.11 3.54-4.79.05-5.25.45-10.49.72-16.17-5.78-.87-11.46-2.01-17.18-2.52-7.65-.69-12.92-4.39-15.06-11.65-.87-2.95-.91-6.56-.09-9.52 2.14-7.74 4.95-15.29 7.55-22.89.28-.82.71-1.71 1.34-2.28 6.17-5.59 11.35-12.49 19.68-15.26 2.26-.75 3.04-2.2 3.08-4.51.06-3.54.41-7.07.66-10.97-4.72-.52-9.13-1.16-13.56-1.48-14.21-1.01-22.19-11.25-18.94-25.13 1.34-5.72 3.32-11.4 5.85-16.71 3.76-7.9 10.61-13.33 17.82-17.7 9.58-5.8 10.73-7.03 9.76-18.2-.68-7.85-.8-15.65 3.36-22.8 6.32.38 9.92 4.14 9.84 10.67-.08 6.59-.39 13.18-.73 19.77-.14 2.75.93 4.49 3.14 6.11 7.22 5.27 14.54 10.42 19.57 18.13 6.89 10.55 9.74 21.78 6.14 34.12-.54 1.87-1.88 3.83-3.42 5.02-5.19 4-10.77 7.24-17.74 6.83-2.65-.15-4.64 1.34-5.42 3.73-.92 2.84-1.47 5.83-1.77 8.79-.09.85 1.06 2.11 1.95 2.72 9.1 6.2 16.47 14.04 22.66 23.09 7.08 10.36 8.34 21.24 3.07 32.69-.64 1.38-1.96 2.99-3.31 3.41-5.61 1.76-11.34 3.16-17.06 4.56-1.94.47-3.97.57-6.4.9zm-3.43-90.7c5.42-1.6 10.96-3.09 16.36-4.97 1.08-.38 2.32-2.3 2.3-3.49-.19-8.55-2.36-16.72-7.46-23.57-7.23-9.72-17.72-12.59-27.39-3.03-2.94 2.9-6.1 5.71-8.42 9.07-3.5 5.09-5.82 10.78-5.45 17.21.11 1.96.81 3.38 2.99 3.78 8.87 1.59 17.72 3.26 27.07 5zm-5.4 78.19c5.36-.52 11.84-.8 18.2-1.86 6.27-1.05 6.48-1.75 5.66-7.96-.22-1.66-.4-3.34-.81-4.96-1.63-6.39-3.23-12.93-7.79-17.94-7.16-7.88-15.8-9.91-24.56-1.97-2.15 1.95-4.02 4.25-6.3 6.01-6.12 4.71-7.23 11.77-8.96 18.52-.34 1.31.16 2.86.37 4.29.32 2.13 1.48 3.29 3.76 3.52 6.43.66 12.84 1.47 20.43 2.35z"/><path d="m237.67 38.76c5.81 2.38 7.11 6.02 4.22 13.08-1.1 2.69-2.95 5.25-5.02 7.32-4.35 4.34-9.13 8.25-13.59 12.49-.93.88-1.72 2.36-1.8 3.61-1.07 16.4-2.38 32.79-2.85 49.21-.4 14.29-.35 28.64.47 42.91 2.03 35.69 9.54 70.63 15.34 105.8.63 3.83-.03 7.96-.61 11.87-.34 2.28-2.34 3.7-4.81 3.06-2.56-.66-5.67-.64-6.25-4.42-4.6-29.71-9.6-59.37-13.79-89.14-3.04-21.63-3.48-43.47-2.45-65.31.61-12.95 1.19-25.91 1.57-38.87.05-1.6-.87-3.81-2.09-4.64-.79-.54-3.17.6-4.45 1.53-11.16 8.05-13.95 20.24-15.74 32.78-1.98 13.82-1.47 27.62.21 41.48 1.37 11.32 1.54 22.78 2.91 34.1 1.62 13.41 3.89 26.75 5.96 40.11 5.63 36.36 13.68 72.24 21.36 108.19.87 4.06.49 8.44.35 12.66-.09 2.75-1.85 4.47-4.7 4.84-2.58.33-4.25-.43-5.54-3.04-6.06-12.3-8.79-25.54-11.1-38.86-6.32-36.45-12.54-72.92-18.59-109.42-3.72-22.42-6.43-44.94-5.73-67.76.48-15.6 1.91-31.15 6.63-46 2.32-7.31 5.82-14.54 13.03-19.27 10.66-6.98 21.01-14.46 31.15-22.19 4.48-3.42 8.12-7.96 12.11-12.01 1.34-1.37 2.58-2.8 3.8-4.11z"/><path d="m266.41 89.23c-9.9 1.31-13.26 9.31-17.51 16.5-5.72 9.68-6.08 20.44-6.53 31.16-1.16 27.85 3.49 55.02 9.56 82.06 6.7 29.87 17.79 58.31 27.46 87.23 2.79 8.35 5.13 16.85 7.51 25.33.66 2.35 1.06 5.04-1.89 6.42-2.56 1.2-6.25.04-7.61-2.91-5.32-11.55-11.24-22.92-15.36-34.9-7.42-21.53-14.36-43.28-20.24-65.27-3.71-13.87-5.38-28.32-7.5-42.58-1.96-13.16-3.83-26.36-4.81-39.62-1.61-21.7 2.75-42.5 11.35-62.42.54-1.24 1.63-2.39 2.72-3.24 16.09-12.48 32.23-24.9 48.35-37.34 3.29-2.54 7.14-2.57 9.52-.06 2.11 2.23 1.52 6.87-1.47 9.69-5.54 5.21-11.11 10.41-16.87 15.38-2.09 1.81-2.84 3.6-2.57 6.33 2.53 25.49 4.49 51.05 7.57 76.47 1.85 15.29 4.87 30.49 8.32 45.51 4.42 19.26 9.95 38.26 14.68 57.45 1.16 4.7 1.28 9.69 1.52 14.57.12 2.44-.93 4.78-3.76 5.22-2.92.46-5.44.41-7.19-3.06-5.82-11.51-8.78-23.88-11.53-36.32-4.44-20.08-9.14-40.12-12.95-60.32-2.15-11.39-2.73-23.08-4.04-34.64-2.08-18.34-4.17-36.67-6.27-55.01-.07-.65-.35-1.26-.46-1.63z"/></g><path d="m377.9 391.2c-.2.3-.4.5-.6.8-.7-.6-1.4-1-2.2-1.5.2-.3.4-.5.5-.8.6.4 1.4.8 2.3 1.5zm-1.8 6.1c-.2-.2-.5-.4-.9-.6.4-.6.8-1.2 1.2-1.9s.7-1.3.9-1.9c.3.3.5.5.8.7-.7 1.3-1.4 2.6-2 3.7zm2.2-9c-.3.3-.5.5-.6.8-.6-.6-1.3-1.1-2-1.5.3-.3.5-.5.6-.7.6.5 1.3.9 2 1.4zm.3.2v-.9h2 4.5c-.3 1.3-.6 2.5-1 3.6s-.9 2.1-1.4 3c.4.5 1 1 1.6 1.4s1.2.8 1.9 1.1c-.3.2-.5.4-.8.8-.4-.3-1-.7-1.6-1.2s-1.2-1.1-1.6-1.6c-.5.6-1.1 1.1-1.7 1.6s-1.4.9-2.1 1.4c-.1-.3-.3-.5-.7-.8.6-.2 1.2-.5 1.9-1s1.4-1.1 2-1.8c-.5-.8-.9-1.6-1.2-2.5s-.6-2-.8-3.2c-.4.1-.7.1-1 .1zm2.5 2.7c.3 1 .7 1.7 1 2.2.3-.5.6-1.1 1-2s.6-1.9.9-3h-3.2-.4c.1.9.3 1.8.7 2.8z" fill="#fcfbfa"/><path d="m396.5 388.5v1.5 3.6h1.5v.9c-.4 0-1 0-1.7 0h-7.9c-.5 0-.9 0-1.2 0v-.9h1.3v-3.5c0-.7 0-1.2 0-1.6h2.4c0-.8 0-1.4 0-1.7h1c0 .3-.1.8-.1 1.7h1.5c0-.8 0-1.4 0-1.7h1c0 .3-.1.9-.1 1.7zm-8.2 9.2c-.2-.3-.5-.5-.8-.8.8-.3 1.4-.6 1.9-.9s1-.7 1.4-1.1c.3.3.6.5.9.8-1.6 1-2.8 1.6-3.4 2zm2.6-6.8v-1.6h-1.5v1.6zm0 2.7v-1.9h-1.5v1.9zm2.4-2.7v-1.6h-1.5v1.6zm0 2.7v-1.9h-1.5v1.9zm.2 2 .7-.8c.4.2.9.5 1.6.8s1.3.7 1.8 1c-.3.3-.5.5-.8.8-.4-.3-1.5-1-3.3-1.8zm2-4.7v-1.6h-1.4v1.6zm0 2.7v-1.9h-1.4v1.9z" fill="#fcfbfa"/></svg>