<svg enable-background="new 0 0 400 400" viewBox="0 0 400 400" xmlns="http://www.w3.org/2000/svg"><path d="m242.44 87.45c-.43-11.34-1.05-22.39-1.18-33.43-.07-6.43.22-12.93 1.17-19.28.5-3.37 2.76-6.47 4.25-9.74 3.69.7 5.91 2.7 6.84 5.46 1.31 3.87 2.7 7.96 2.73 11.96.11 13.75-.35 27.5-.59 41.25-.02 1.22 0 2.43 0 3.51 7.56 1.23 14.87 2.16 22.07 3.65 7.48 1.55 14.74 3.86 20.17 9.79 5.69 6.22 9 13.6 10 21.9 2.67 22.09 5.8 44.15 5.41 66.48-.31 17.79-.71 35.58-5.2 52.95-1.06 4.1-2.25 8.2-3.79 12.14-3.56 9.15-10.61 15.2-19.33 18.78-15.12 6.2-31.14 6.67-47.22 5.63-10.11-.65-20.16-2.26-29.02-7.36-9.72-5.59-15.32-14.76-17.43-25.52-5.82-29.65-8.16-59.58-5.5-89.79 1.55-17.56 4.64-34.78 11.52-51.13.66-1.57 1.81-3.09 3.1-4.21 8.64-7.48 19.17-10.24 30.17-11.67 3.77-.47 7.52-.86 11.83-1.37zm47.59 27.68c-.47.73-.72 1.08-.92 1.45-10.44 19.39-20.91 38.76-31.21 58.22-.6 1.14-.32 3.25.35 4.48 11.04 20.34 22.21 40.6 33.36 60.88.51.92 1.11 1.79 1.94 3.11.5-1.76.99-2.91 1.13-4.1 1.54-12.52 3.59-25.02 4.41-37.59 1.53-23.31-1.21-46.49-3.44-69.66-.56-5.88-2.22-11.38-5.62-16.79zm-86.53 128.35c.33 0 .66 0 1 .01.36-.53.76-1.03 1.06-1.59 11.49-21.09 23-42.17 34.37-63.32.57-1.06.33-3.02-.27-4.16-10.03-18.95-20.19-37.84-30.32-56.74-.44-.82-.99-1.59-1.59-2.54-3.34 4.93-5.14 10.04-5.63 15.6-.76 8.68-1.48 17.37-2.17 26.06-1.62 20.66-1.78 41.35.05 61.99.72 8.27 2.3 16.46 3.5 24.69zm81.18 12.89c-11.84-21.7-23.57-43.2-35.58-65.2-1.73 3.2-3.13 5.84-4.58 8.46-9.64 17.39-19.29 34.77-28.92 52.16-.64 1.16-1.15 2.42-1.59 3.67-.81 2.31-.17 3.59 2.39 4.39 12.1 3.81 24.5 4.94 37.08 4.54 10.83-.34 21.32-2.12 31.2-8.02zm-35.65-95.14c1.03-1.83 1.75-3.08 2.45-4.34 7.68-13.86 15.36-27.72 23.01-41.6 1.02-1.85 2.01-3.75 2.7-5.74 1.31-3.8.57-4.88-3.32-5.12-12.05-.74-24.09-1.75-36.15-1.98-5.81-.11-11.65 1.3-18.08 2.09 9.92 19.16 19.54 37.71 29.39 56.69z" fill="#010103"/><path d="m166.55 334.42c-3.87-10.1-5.15-20.41-5.52-30.81-.34-9.5.03-19.02-.16-28.53-.19-9.29-2.08-18.19-7.33-26.11-3.88-5.85-9.12-9.99-16.21-13.01 0 6.8.05 13.22-.01 19.63-.27 28.53-.64 57.07-.84 85.6-.05 7.26.49 14.53.57 21.79.02 2.2-.14 4.62-1.06 6.55-.88 1.85-2.56 3.75-4.38 4.64-3.84 1.87-5.9.99-7.02-3.09-1.08-3.93-1.88-8.09-1.9-12.15-.13-28.43-.02-56.86.01-85.29.01-12.41 0-24.82 0-37.66-4.91 1.06-8.49 2.1-11.24 5.8-8.44 11.33-12.7 24.1-13.53 37.99-.8 13.27-.98 26.59-1.56 39.88-.16 3.55-.6 7.12-1.26 10.62-.57 3-2.74 4.24-5.82 4.54-3.32.31-4.36-1.7-5-4.17-.73-2.8-1.62-5.66-1.68-8.51-.45-20.61-.41-41.29 4.64-61.39 2.23-8.88 6.74-17.18 10.22-25.74 5.18-3.41 10.05-7.52 15.63-10.04 7.31-3.3 9.28-5.09 9.56-13.19.03-.99 0-1.98 0-3.18-7.88-1.42-15.55-2.82-23.22-4.18-8.67-1.54-14.36-8.89-12.71-17.47 1.17-6.1 3-12.15 5.23-17.96 1.14-2.97 3.53-5.63 5.85-7.92 3.74-3.68 7.97-6.86 11.86-10.4 2.94-2.67 6.01-4.99 10.04-5.66 1.89-.31 2.5-1.4 2.47-3.26-.05-3.76 1.51-8.6-.27-10.98-1.62-2.17-6.79-1.71-10.41-2.34-4.18-.73-8.39-1.36-12.57-2.08-6.11-1.05-12.03-9.1-10.83-16.16 1.44-8.44 3.92-16.71 6.01-25.04.18-.71.72-1.41 1.26-1.93 4.95-4.7 9.77-9.57 15.01-13.92 2.23-1.85 5.33-2.76 8.14-3.79 1.94-.71 2.94-1.72 2.98-3.82.11-5.7.27-11.4.48-17.1.23-6.05 1.01-11.99 3.54-17.53 5.9.35 9.7 3.84 9.81 9.46.07 3.66-.64 7.34-.85 11.01-.21 3.68-.28 7.37-.3 11.06-.02 3.25 1.48 5.35 4.36 7.19 6.27 4.01 13.01 7.8 18.08 13.09 11.13 11.62 12.69 25.86 8.37 40.95-.26.92-1.23 1.82-2.1 2.35-7.04 4.35-14.57 7.37-22.95 7.62-3 .09-3.35 1.41-3.66 4.1-.71 6.14 1.57 9.65 6.71 13.28 7.5 5.3 14.47 11.69 20.54 18.6 7.31 8.31 7.07 18.69 4.76 28.98-.2.87-1.04 1.68-1.74 2.35-6.9 6.66-15.57 8.87-24.75 9.75-1.09.1-2.21.01-3.64.01-.51 4.26-1.11 8.32-1.39 12.41-.05.81.97 1.97 1.8 2.49 1.1.69 2.48 1.02 3.77 1.33 16.99 4.12 25.51 16.29 29.13 32.15 1.9 8.31 1.9 17.07 2.52 25.64 1.13 15.73 2.39 31.45 1.46 47.26-.2 3.44-.84 5.51-4.67 5.51-1.27.05-2.59.49-4.23.78zm-36.43-217.07c5.93-.92 12.15-1.56 18.21-2.92 5.19-1.16 6.21-2.84 6.48-8.17.08-1.54.02-3.18-.43-4.64-3.33-10.82-10.6-18.15-20.71-22.84-3.29-1.53-6.7-1.77-9.97.07-4.26 2.41-8.71 4.59-12.63 7.48-7.07 5.2-8.5 13.05-8.44 21.17.02 2.57.94 5.45 4.29 6.02 7.59 1.31 15.18 2.52 23.2 3.83zm27.02 72.19c-1.76-5.33-2.89-10.48-5.1-15.12-3.72-7.8-8.81-14.53-17.62-17.37-2.78-.89-5.34-.86-8.1.22-6.71 2.63-12.45 6.75-17.16 12.01-5.06 5.66-7.73 12.61-8.78 20.36 18.7 6.71 37.07 5.53 56.76-.1z" fill="#010103"/><g fill="#fcfbfa"><path d="m377.9 391.2c-.2.3-.4.5-.6.8-.7-.6-1.4-1-2.2-1.5.2-.3.4-.5.5-.8.6.4 1.4.8 2.3 1.5zm-1.8 6.1c-.2-.2-.5-.4-.9-.6.4-.6.8-1.2 1.2-1.9s.7-1.3.9-1.9c.3.3.5.5.8.7-.7 1.3-1.4 2.6-2 3.7zm2.2-9c-.3.3-.5.5-.6.8-.6-.6-1.3-1.1-2-1.5.3-.3.5-.5.6-.7.6.5 1.3.9 2 1.4zm.3.2v-.9h2 4.5c-.3 1.3-.6 2.5-1 3.6s-.9 2.1-1.4 3c.4.5 1 1 1.6 1.4s1.2.8 1.9 1.1c-.3.2-.5.4-.8.8-.4-.3-1-.7-1.6-1.2s-1.2-1.1-1.6-1.6c-.5.6-1.1 1.1-1.7 1.6s-1.4.9-2.1 1.4c-.1-.3-.3-.5-.7-.8.6-.2 1.2-.5 1.9-1s1.4-1.1 2-1.8c-.5-.8-.9-1.6-1.2-2.5s-.6-2-.8-3.2c-.4.1-.7.1-1 .1zm2.5 2.7c.3 1 .7 1.7 1 2.2.3-.5.6-1.1 1-2s.6-1.9.9-3h-3.2-.4c.1.9.3 1.8.7 2.8z"/><path d="m396.5 388.5v1.5 3.6h1.5v.9c-.4 0-1 0-1.7 0h-7.9c-.5 0-.9 0-1.2 0v-.9h1.3v-3.5c0-.7 0-1.2 0-1.6h2.4c0-.8 0-1.4 0-1.7h1c0 .3-.1.8-.1 1.7h1.5c0-.8 0-1.4 0-1.7h1c0 .3-.1.9-.1 1.7zm-8.2 9.2c-.2-.3-.5-.5-.8-.8.8-.3 1.4-.6 1.9-.9s1-.7 1.4-1.1c.3.3.6.5.9.8-1.6 1-2.8 1.6-3.4 2zm2.6-6.8v-1.6h-1.5v1.6zm0 2.7v-1.9h-1.5v1.9zm2.4-2.7v-1.6h-1.5v1.6zm0 2.7v-1.9h-1.5v1.9zm.2 2 .7-.8c.4.2.9.5 1.6.8s1.3.7 1.8 1c-.3.3-.5.5-.8.8-.4-.3-1.5-1-3.3-1.8zm2-4.7v-1.6h-1.4v1.6zm0 2.7v-1.9h-1.4v1.9z"/></g></svg>