<svg enable-background="new 0 0 400 400" viewBox="0 0 400 400" xmlns="http://www.w3.org/2000/svg"><g fill="#010103"><path d="m127.58 236.61c-3.77.28-6.28 1.59-8.33 4.35-7.53 10.14-12.04 21.3-12.78 34-1.21 20.66-2.57 41.31-3.9 61.96-.36 5.54-2.95 8.24-7.64 8.36-2.06.05-3.58-.54-4.01-2.65-.84-4.14-2.29-8.32-2.17-12.45.52-18.21 1.12-36.44 2.45-54.61 1.01-13.85 5.02-27.16 12.63-38.85 3.89-5.97 9.19-11.04 16.78-13.06 6.63-1.77 6.55-2.15 6.7-9.07.07-3.01.01-6.03.01-9.51-4.99-.69-10.12-1.69-15.31-2.07-10.44-.76-16.72-8.67-14.85-18.5 1.34-7.01 2.31-14.32 5.16-20.73 2.2-4.95 6.69-9.13 10.87-12.87 3.35-3 7.79-4.77 11.66-7.24.92-.58 2.05-1.72 2.09-2.64.21-4.67.1-9.35.1-14.39-6.15-1.13-12.6-2.35-19.06-3.49-6.52-1.15-11.04-6.08-11.6-12.79-.62-7.49 2.16-14.28 4.48-21.15 1.97-5.85 5.2-10.69 10.37-14.38 4.81-3.44 9.08-7.63 13.78-11.24 2.23-1.72 3.57-3.79 3.64-6.43.14-5.22.23-10.47-.15-15.68-.43-5.91.93-11.24 3.71-16.29 7.31.59 10.77 4.99 10.28 12.54-.45 6.91-.83 13.84-.9 20.76-.01 1.43 1.14 3.3 2.33 4.25 3.4 2.72 7.09 5.08 10.66 7.58 12.33 8.65 19.77 28.65 16.11 43.27-1.83 7.32-6.81 11.25-14.39 11.37-3.46.05-6.92.06-10.38.2-2.15.09-3.4 1.03-3.38 3.53.02 3.12-.19 6.28-.64 9.37-.35 2.41.29 3.87 2.38 5.24 8.52 5.59 15.45 12.84 21.19 21.24 5.98 8.76 7.51 18.06 4.51 28.38-1.45 5-4.47 7.62-9.1 8.65-4.24.94-8.58 1.46-12.9 2.01-6.38.81-6.39.76-6.39 6.94 0 1.12.2 2.28-.03 3.35-1.21 5.66 1.64 8.52 6.55 10.43 3.42 1.33 6.81 2.93 9.88 4.91 9.1 5.87 13.52 15.14 16.32 25 1.93 6.81 2.74 14.01 3.35 21.1 1.35 15.59 2.3 31.21 3.34 46.83.44 6.59.59 13.14-1.53 19.6-1.36 4.15-4.65 2.47-7.22 3.03-2.34.51-2.84-1.34-3.29-2.93-.57-2.03-1.18-4.11-1.3-6.19-.92-16.53-.94-33.15-2.83-49.57-1.47-12.77-3.17-25.78-8.76-37.71-2.68-5.72-6.68-10.2-13.59-12.76 0 7.9.06 15.34-.01 22.77-.24 25.06-.59 50.12-.77 75.19-.06 8.27.38 16.55.32 24.82-.02 2.5-.61 5.14-1.55 7.47-1.33 3.29-5.19 4.8-8.46 3.61-.78-.29-1.66-1.28-1.84-2.09-1.01-4.54-2.56-9.12-2.58-13.69-.18-37.6-.06-75.2-.03-112.81.02-1.31.02-2.64.02-4.27zm-16.49-126.07h46.44c-.22-2.35-.3-4.59-.65-6.79-1.13-7.03-3.19-13.84-7.66-19.41-6.6-8.23-15.35-10.88-24.7-3.08-2.23 1.86-4.43 3.78-6.44 5.86-6.19 6.42-7.62 14.3-6.99 23.42zm.43 78.41h45.69c.46-14.22-7.53-27.69-19.84-32.92-1.83-.78-4.47-.97-6.27-.25-8.17 3.28-14.34 8.99-17.84 17.11-2.11 4.92-3.36 10.15-1.74 16.06z"/><path d="m250.76 372.9c-3.3.66-6.01 1.21-9.69 1.95-.98-5.98-2.6-11.74-2.73-17.53-.38-16.88-.15-33.77-.17-50.66-.06-71.39-.06-142.78-.22-214.17-.03-12.3-.88-24.6-.98-36.9-.08-9.54 1.31-18.92 4.6-27.98.94-2.57 2.25-2.85 4.54-2.11 3.18 1.03 5.32 2.93 5.59 6.34.32 4 .52 8.02.52 12.04-.01 27.97.01 55.95-.15 83.92-.4 70.49-.89 140.97-1.32 211.46-.05 11.16.01 22.33.01 33.64z"/><path d="m291.99 125.76c-5.59-.23-11.16-.42-16.72-.7-2.78-.14-5.66-.06-8.29-.8-1.99-.56-4.35-1.87-5.35-3.55-2.39-4.02-2.24-6.45 2.45-8.42 4.75-2 9.58-1.61 14.51-1.1 3.09.32 6.23.26 9.34.16 2.53-.08 3.56-1.4 3.44-4.13-.43-9.94-.68-19.88-.87-29.83-.14-7.48 1.15-14.65 4.73-21.36 1.19-2.23 2.46-2.46 4.53-1.49 5.34 2.49 6.88 7.23 6.88 12.44 0 10.5-.48 21.01-.6 31.51-.26 22.82-.38 45.64-.65 68.46-.09 7.72-.16 15.45-.76 23.14-.97 12.56-7.96 19.86-21.95 20.49-5.51.25-11.11-.83-16.61-1.68-3.49-.54-5.57-4.95-4.15-8.18.3-.69 1.2-1.41 1.94-1.57 3.25-.69 6.53-1.27 9.82-1.7 1.53-.2 3.13.1 4.69.05 9.06-.28 13.83-4.93 14.17-13.97.16-4.13-.06-8.28.05-12.41.06-2.14-.66-3-2.87-2.98-5.26.04-10.51-.06-15.77-.2-2.23-.06-4.63.13-6.63-.64-2.25-.87-4.77-2.26-6.03-4.18-2.46-3.74-1.18-6.69 3.14-7.57 4.23-.86 8.61-1.01 12.94-1.38 1.1-.09 2.22.18 3.34.27 9.61.75 10.63-.12 11.04-9.64.25-5.92.44-11.85.64-17.77.01-.22-.12-.43-.4-1.27z"/><path d="m199.04 152.37c6.18.32 11.96.59 17.73.93 2.33.14 4.84-.07 6.94.74 2.03.79 4.15 2.34 5.33 4.15 2.48 3.78 1.64 6.21-2.72 6.95-5.78.98-11.71 1.09-17.59 1.45-7.72.47-8.78 1.5-7.76 9.13.77 5.75 1.88 11.47 3.04 17.16.2 1 1.22 2.36 2.12 2.6 4.91 1.32 9.86 2.62 14.88 3.4 4.8.74 7.49 3.28 7.07 7.93-.08.91-.79 2.08-1.57 2.54-4.36 2.62-9.12 3.81-14.15 2.65-4.67-1.08-9.45-2.06-13.84-3.9-5.38-2.26-7.66-7.48-8.64-12.77-1.36-7.34-2.38-14.83-2.65-22.29-.86-24.03-1.46-48.07-1.84-72.11-.18-11.62.35-23.26.62-34.89.09-3.86 3.32-5.92 6.8-4.47 5.51 2.29 8.12 8.28 7.46 16.15-.74 8.9-1.13 17.83-1.76 26.74-.25 3.63 1.57 5.59 4.91 5.82 4.99.35 10 .28 15.01.41 2.22.06 4.49-.13 6.64.3 3.83.75 6.29 4.53 5.43 8.34-.22.95-1.62 2.15-2.64 2.32-7.25 1.26-14.52 2.49-21.83 3.34-6.98.81-7 .61-7 7.43.01 6.35.01 12.71.01 19.95z"/></g><path d="m377.9 391.2c-.2.3-.4.5-.6.8-.7-.6-1.4-1-2.2-1.5.2-.3.4-.5.5-.8.6.4 1.4.8 2.3 1.5zm-1.8 6.1c-.2-.2-.5-.4-.9-.6.4-.6.8-1.2 1.2-1.9s.7-1.3.9-1.9c.3.3.5.5.8.7-.7 1.3-1.4 2.6-2 3.7zm2.2-9c-.3.3-.5.5-.6.8-.6-.6-1.3-1.1-2-1.5.3-.3.5-.5.6-.7.6.5 1.3.9 2 1.4zm.3.2v-.9h2 4.5c-.3 1.3-.6 2.5-1 3.6s-.9 2.1-1.4 3c.4.5 1 1 1.6 1.4s1.2.8 1.9 1.1c-.3.2-.5.4-.8.8-.4-.3-1-.7-1.6-1.2s-1.2-1.1-1.6-1.6c-.5.6-1.1 1.1-1.7 1.6s-1.4.9-2.1 1.4c-.1-.3-.3-.5-.7-.8.6-.2 1.2-.5 1.9-1s1.4-1.1 2-1.8c-.5-.8-.9-1.6-1.2-2.5s-.6-2-.8-3.2c-.4.1-.7.1-1 .1zm2.5 2.7c.3 1 .7 1.7 1 2.2.3-.5.6-1.1 1-2s.6-1.9.9-3h-3.2-.4c.1.9.3 1.8.7 2.8z" fill="#fcfbfa"/><path d="m396.5 388.5v1.5 3.6h1.5v.9c-.4 0-1 0-1.7 0h-7.9c-.5 0-.9 0-1.2 0v-.9h1.3v-3.5c0-.7 0-1.2 0-1.6h2.4c0-.8 0-1.4 0-1.7h1c0 .3-.1.8-.1 1.7h1.5c0-.8 0-1.4 0-1.7h1c0 .3-.1.9-.1 1.7zm-8.2 9.2c-.2-.3-.5-.5-.8-.8.8-.3 1.4-.6 1.9-.9s1-.7 1.4-1.1c.3.3.6.5.9.8-1.6 1-2.8 1.6-3.4 2zm2.6-6.8v-1.6h-1.5v1.6zm0 2.7v-1.9h-1.5v1.9zm2.4-2.7v-1.6h-1.5v1.6zm0 2.7v-1.9h-1.5v1.9zm.2 2 .7-.8c.4.2.9.5 1.6.8s1.3.7 1.8 1c-.3.3-.5.5-.8.8-.4-.3-1.5-1-3.3-1.8zm2-4.7v-1.6h-1.4v1.6zm0 2.7v-1.9h-1.4v1.9z" fill="#fcfbfa"/></svg>