<svg enable-background="new 0 0 400 400" viewBox="0 0 400 400" xmlns="http://www.w3.org/2000/svg"><g fill="#010103"><path d="m206.15 280.35c-.29 5.8-.64 10.82-.68 15.84-.01.89 1.17 2.26 2.1 2.61 3.76 1.41 7.59 2.73 11.49 3.68 10.23 2.49 17.01 9.22 21.86 17.98 7.2 13.01 10.06 26.94 7.29 41.74-.25 1.34-.72 3.32-1.64 3.71-2.21.94-4.74 1.22-7.17 1.49-.42.05-1.12-1.22-1.48-1.98-3.32-6.91-3.94-14.32-4.45-21.85-.31-4.59-1.34-9.3-3.02-13.57-2.04-5.17-5.64-9.2-11.39-11.03-4.31-1.37-8.39-3.48-13.31-5.57 0 8.18.13 15.74-.03 23.3-.21 10.17-.59 20.34-1.03 30.5-.07 1.63-.73 3.26-1.25 4.84-.84 2.56-2.93 3.14-5.33 3.15s-3.73-.97-4.51-3.44c-3.08-9.77-2.32-19.62-1.52-29.59.6-7.54.66-15.17.27-22.73-.28-5.44-2.44-6.15-7.74-4.64-12.72 3.6-18.03 13.86-21.46 24.93-2.51 8.12-2.85 16.92-4.16 25.41-.08.54-.18 1.08-.27 1.57-8.94 1.66-9.09 2.19-11.77-7.81-2.13-7.96.3-15.75 2.24-23.46.46-1.84 1.16-3.62 1.68-5.44 3.8-13.36 14.33-20.77 25.22-27.4 4.3-2.62 9.94-3.04 15.05-4.48 0-5.52 0-10.86 0-16.83-8.23-.99-16.38-2.53-24.58-2.83-11.11-.41-17.58-8.02-18.85-19.76-.48-4.44 1.21-9.17 2.25-13.69.31-1.34 1.61-2.64 2.78-3.56 3.34-2.63 6.98-4.88 10.25-7.59 7-5.8 14.64-10.18 23.77-11.53 2.21-.33 3.15-1.41 3.27-3.76.15-2.99.81-5.95 1.3-9.24-7.59-1.26-14.94-2.46-22.29-3.71-3.75-.64-7.52-1.19-11.2-2.09-6.32-1.55-10.07-5.6-10.2-12.04-.1-5.08.8-10.2 1.49-15.28.15-1.07 1.18-2.1 1.97-3 9.33-10.66 20.79-17.91 34.64-21.06 3.72-.84 5.07-2.94 5.56-6.41.69-4.86 1.62-9.69 2.61-14.51.38-1.83 1.19-3.57 1.77-5.26 7.33.1 10.21 3.58 9.19 10.41-.53 3.53-.62 7.12-.92 10.68-.17 2 .79 2.98 2.7 3.55 4.71 1.42 9.37 2.98 14.02 4.57 12.66 4.33 23.87 19.17 24.36 31.91.54 14.01-4.99 18.14-19.08 19.84-5.09.61-10.26.47-15.39.76-2.54.15-3.96 1.32-4.03 4.19-.07 2.76-.74 5.51-1.15 8.31 4.61 2 9.36 3.49 13.51 5.99 6.18 3.74 12.37 7.69 17.77 12.44 10.23 8.99 9.77 21.53 5.95 32.83-.29.85-1.23 1.56-2.01 2.15-5.46 4.13-11.64 5.91-18.47 5.97-5.3.08-10.61.52-15.98.79zm-10.46-12.45c.01-.15.03-.3.04-.44 4.59 0 9.21.35 13.75-.08 6.42-.62 12.8-1.74 19.17-2.85.93-.16 2.27-1.34 2.39-2.2 1.17-8.24-4.09-18.73-11.45-21.91-18.01-7.78-35.36-7.47-51.58 4.92-3.72 2.84-5.7 6.57-6.85 10.81-1.33 4.91 1.23 8.71 6.15 9.21 9.45.95 18.92 1.71 28.38 2.54zm35.96-75.75c-.06-8.94-3.47-16.42-10.49-19.95-21.08-10.59-34.3-10.25-52.51 2.1-3.41 2.31-5.51 5.44-6.9 9.2-1.83 4.97-.03 8.25 5.14 9.35 13.9 2.94 27.98 3.15 42.09 2.75 7.71-.23 15.32-1.19 22.67-3.45z"/><path d="m162.97 109.13c10.25-.19 19.46-3.39 28.87-5.75 5.7-1.43 11.53-2.55 17.37-3.11 4.02-.38 6.57 2.31 7.23 6.05.32 1.81.02 3.02-1.92 4.01-8.76 4.5-18.18 6.75-27.72 8.74-5.35 1.12-10.69 2.41-15.91 4.02-6.59 2.03-8.25 4.39-8.54 11.36-.14 3.35.11 6.71.12 10.07 0 3.09-1.14 5.38-4.41 6.28-4.16 1.14-6.21.33-7.32-3.79-.93-3.42-1.24-7.02-1.81-10.54-.34-2.07-.64-4.14-1.03-6.69-4.15 1.16-7.85 2.28-11.59 3.23-9.73 2.47-19.45 4.99-29.24 7.21-2.2.5-4.69.08-6.98-.3-3.09-.52-4.79-2.58-5.32-5.7-.36-2.16.19-3.44 2.37-4.45 8.92-4.14 18.43-6.01 27.93-8.12 6.39-1.43 12.6-3.71 18.87-5.67 2.03-.64 2.86-2.06 2.98-4.29.25-4.43.86-8.84 1.36-13.62-12.03 2.92-23.62 5.78-35.23 8.52-2.48.59-5.06 1.03-7.59 1.04-2.64.01-4.88-1.37-5.5-4.09-.62-2.75-.54-5.23 2.48-7.22 7.05-4.62 14.89-6.23 23.01-7.63 6.44-1.11 12.69-3.33 18.98-5.2.88-.26 2.08-1.31 2.17-2.1.68-6.09 1.12-12.21 1.66-18.65-11.68 2.8-22.96 5.51-34.25 8.22-3.8.91-7.57 2.01-11.42 2.69-1.9.33-4.04.24-5.89-.29-2.64-.75-3.65-3.02-3.93-5.68-.26-2.51.96-3.84 3.04-4.98 9.25-5.08 19.33-7.44 29.55-9.52 5.47-1.12 10.91-2.44 16.25-4.06 7.16-2.18 7.78-3.61 8.02-11.1.11-3.37 1.11-6.75 2.08-10.02.63-2.13 2.05-3.65 4.81-2.7 2.8.96 5.8 1.58 5.77 5.43-.02 2.12-.35 4.25-.23 6.36.26 4.39 1.2 5.31 5.42 4.37 5.11-1.14 10.12-2.74 15.13-4.25 2.99-.9 5.86-2.25 8.88-3.01 7.82-1.96 11.89.65 13.88 9.42-5.69 2.26-11.46 4.82-17.41 6.83-6.98 2.35-14.12 4.25-21.22 6.24-2.25.63-3.29 1.67-3.18 4.2.21 5.12.06 10.25.06 16.15 3.93-.65 8.23-1.03 12.35-2.1 7.67-2 15.17-4.64 22.86-6.54 6.01-1.49 10.43.63 12.27 4.89.96 2.22 1.03 4.18-1.42 5.33-5.02 2.35-9.92 5.12-15.18 6.73-9.49 2.92-19.19 5.15-28.81 7.6-2.03.52-2.89 1.46-2.77 3.7.2 3.97.05 8 .05 12.48z"/><path d="m262.11 91.63c-5.87 10.6-11.38 21.09-17.45 31.25-2.36 3.95-5.68 7.47-9.1 10.6-3.39 3.09-7.76 4.26-12.83 3.33-.12-5.18-.5-9.6 3.38-14.49 8.5-10.71 15.7-22.46 23.31-33.6-6.27-4.59-11.89-8.44-17.21-12.66-7.67-6.08-9.07-15.63-5.63-24.74 4.34-11.5 13.06-16.32 24.11-18.66 13.23-2.8 26.58-3.52 40.03-2.34 4.74.41 8.63 2.27 10.31 7.22.65 1.91.25 2.97-1.72 3.91-7.07 3.35-14.64 3.87-22.23 4.26s-15.2.5-22.79.83c-8.2.36-15.26 7.51-14.83 15.18.08 1.42.99 3.18 2.1 4.11 7.66 6.42 16.93 9.14 26.39 11.72 6.4 1.74 12.65 4.39 18.59 7.37 11.69 5.88 16.13 19.39 11.68 31.33-4.52 12.12-9.97 23.9-15.28 35.71-2.05 4.55-6.71 6.51-10.44 5.23-2.03-.7-3.4-1.86-2.72-4.17 1.85-6.28 3.49-12.66 5.81-18.77 2.26-5.92 5.5-11.47 7.83-17.37 1.04-2.61 1.39-5.72 1.23-8.55-.39-6.74-1.24-9.21-7.71-11.22-4.79-1.49-9.4-3.55-14.09-5.35-.22-.1-.45-.09-.74-.13z"/></g><path d="m377.9 391.2c-.2.3-.4.5-.6.8-.7-.6-1.4-1-2.2-1.5.2-.3.4-.5.5-.8.6.4 1.4.8 2.3 1.5zm-1.8 6.1c-.2-.2-.5-.4-.9-.6.4-.6.8-1.2 1.2-1.9s.7-1.3.9-1.9c.3.3.5.5.8.7-.7 1.3-1.4 2.6-2 3.7zm2.2-9c-.3.3-.5.5-.6.8-.6-.6-1.3-1.1-2-1.5.3-.3.5-.5.6-.7.6.5 1.3.9 2 1.4zm.3.2v-.9h2 4.5c-.3 1.3-.6 2.5-1 3.6s-.9 2.1-1.4 3c.4.5 1 1 1.6 1.4s1.2.8 1.9 1.1c-.3.2-.5.4-.8.8-.4-.3-1-.7-1.6-1.2s-1.2-1.1-1.6-1.6c-.5.6-1.1 1.1-1.7 1.6s-1.4.9-2.1 1.4c-.1-.3-.3-.5-.7-.8.6-.2 1.2-.5 1.9-1s1.4-1.1 2-1.8c-.5-.8-.9-1.6-1.2-2.5s-.6-2-.8-3.2c-.4.1-.7.1-1 .1zm2.5 2.7c.3 1 .7 1.7 1 2.2.3-.5.6-1.1 1-2s.6-1.9.9-3h-3.2-.4c.1.9.3 1.8.7 2.8z" fill="#fcfbfa"/><path d="m396.5 388.5v1.5 3.6h1.5v.9c-.4 0-1 0-1.7 0h-7.9c-.5 0-.9 0-1.2 0v-.9h1.3v-3.5c0-.7 0-1.2 0-1.6h2.4c0-.8 0-1.4 0-1.7h1c0 .3-.1.8-.1 1.7h1.5c0-.8 0-1.4 0-1.7h1c0 .3-.1.9-.1 1.7zm-8.2 9.2c-.2-.3-.5-.5-.8-.8.8-.3 1.4-.6 1.9-.9s1-.7 1.4-1.1c.3.3.6.5.9.8-1.6 1-2.8 1.6-3.4 2zm2.6-6.8v-1.6h-1.5v1.6zm0 2.7v-1.9h-1.5v1.9zm2.4-2.7v-1.6h-1.5v1.6zm0 2.7v-1.9h-1.5v1.9zm.2 2 .7-.8c.4.2.9.5 1.6.8s1.3.7 1.8 1c-.3.3-.5.5-.8.8-.4-.3-1.5-1-3.3-1.8zm2-4.7v-1.6h-1.4v1.6zm0 2.7v-1.9h-1.4v1.9z" fill="#fcfbfa"/></svg>