<svg enable-background="new 0 0 400 400" viewBox="0 0 400 400" xmlns="http://www.w3.org/2000/svg"><g fill="#010103"><path d="m116.76 131.24c-5.54-1.32-10.71-2.81-15.98-3.74-7.04-1.25-10.28-6-11.57-12.26-.66-3.18-.7-6.81.13-9.92 1.85-6.88 3.65-13.98 6.92-20.23 4.42-8.45 10.71-15.75 20.34-18.77 3.73-1.17 4.94-3.43 4.85-6.88-.1-4.36-.18-8.73-.5-13.07-.54-7.4.45-14.48 3.86-21.1 7.16.3 11.31 5.63 10.44 13.39-.4 3.56-.92 7.1-1.39 10.65-.06.44-.09.89-.16 1.33-1.3 8.53-.29 16.07 8.66 20.21 11.34 12.14 19 25.77 16.46 43.12-1.31 8.92-6.43 13.58-15.66 15.32-.66.12-1.34.33-1.99.27-6.04-.56-8.97 3-10.06 9.31-.36 2.09.11 3.27 1.89 4.4 8.6 5.48 15.66 12.61 21.65 20.82 5.81 7.96 8.35 16.69 6.41 26.55-1.47 7.46-8.44 14.06-16 15-4.65.58-9.29 1.22-14.25 1.88 0 4.89-.07 9.56.08 14.23.02.69.97 1.63 1.71 1.96 1.62.73 3.36 1.2 5.08 1.69 13.82 3.98 20.66 14.58 25.34 27.04 7.3 19.43 8.68 39.68 7.58 60.15-.38 7-1.89 13.93-2.8 20.91-.42 3.22-2.56 4.4-5.35 4.37-2.87-.03-4.83-1.15-5.35-4.6-2.33-15.33-3.21-30.71-2.42-46.18.52-10.24.31-20.37-4.26-29.89-4.01-8.34-10.22-14.5-18.98-19.18 0 4.88.03 9.28 0 13.68-.2 29.44-.42 58.88-.61 88.31-.06 8.72.17 17.44-.11 26.16-.17 5.22-3.03 8.15-7.26 8.66-2.01.24-3.67-.15-4.14-2.33-.95-4.44-2.47-8.91-2.5-13.37-.2-29.55-.07-59.11-.05-88.66.01-10.06 0-20.12 0-30.19-.44-.23-.88-.46-1.32-.69-1.79 1.26-3.96 2.2-5.31 3.83-9.53 11.49-13.59 25.06-14.15 39.71-.51 13.64-.42 27.3-.81 40.94-.1 3.65-.81 7.31-1.59 10.89-.49 2.24-2.19 3.87-4.66 3.45-2.33-.4-4.7-.77-5.52-3.93-3.25-12.39-3.67-24.99-3-37.66.82-15.47 3.61-30.54 8.37-45.37 3.59-11.18 10.71-18.72 20.72-23.7 4.98-2.48 6.74-6.19 7.08-11.13.18-2.55.03-5.13.03-8.32-4.43-.86-8.99-1.74-13.55-2.61-1.32-.25-2.66-.41-3.96-.7-11.92-2.63-17.06-10.74-14.32-22.6.38-1.63.83-3.25 1.17-4.89 1.71-8.35 5.33-15.42 12.42-20.68 5.9-4.38 11.37-9.36 16.95-14.16.73-.63 1.33-1.77 1.39-2.72.16-2.76.05-5.55.05-8.7zm7.32 64.06c.07-.33.14-.65.21-.98 7.37.14 14.51-.87 20.94-4.73.9-.54 1.87-1.99 1.8-2.95-.93-14.06-7.72-24.2-20.74-29.84-1.55-.67-3.74-.64-5.4-.15-7.79 2.32-13.28 8.07-17.59 14.34-2.88 4.19-3.66 9.89-5.03 15.01-.57 2.11.56 3.77 3.04 4.29 7.6 1.61 15.18 3.33 22.77 5.01zm.52-79.56c0-.27 0-.54 0-.81 5.47 0 10.95-.19 16.41.07 3.15.15 4.17-1.27 4.26-4.01.35-10.51-2.8-20.01-9.76-27.72-6.53-7.23-11.37-6.59-18.77-1.36-7.43 5.25-10.99 12.75-12.87 21.19-.68 3.06-.4 6.38-.18 9.56.16 2.29 1.62 3.25 4.16 3.15 5.57-.22 11.16-.07 16.75-.07z"/><path d="m259.68 41.59c6.81.5 9.66 3.25 9.46 8.92-.38 11.17-1.13 22.33-1.67 33.5-.54 11.29-1.01 22.58-1.49 33.88-.02.53.06 1.07.13 2.1 5.15-.8 10.21-1.12 14.93-2.57 1.85-.57 3.22-3.51 4.3-5.63 4.29-8.43 3.54-17.59 3.6-26.63.07-8.92.15-17.85.55-26.76.15-3.35 1.81-6.22 5.26-7.57 2.14-.84 3.59-.71 4.69 1.84 3.23 7.53 4.69 15.38 4.83 23.5.23 13.94-.97 27.72-5.44 41.04-2.72 8.1-11.83 14.72-20.3 14.92-.78.02-1.56.09-2.34.18-9.3 1.07-9.41 1.18-9.88 10.21-.37 7.23-.74 14.46-1.15 22.42 9.06 0 17.74-.05 26.42.02 4.01.03 8.08-.05 12.02.57 4.95.78 8.73 3.39 9.79 9.02-4.93 3.27-10.4 4.88-16.35 4.91-9.28.05-18.56.06-27.84.12-1.55.01-3.09.23-4.93.37-.06 1.28-.14 2.37-.14 3.46-.01 5.26-.01 10.52-.01 15.78 0 7.96-.01 7.99 8.06 9.18 3.54.52 7.11.86 10.66 1.29 9.7 1.17 16.56 5.8 19.96 15.38 3.79 10.66 5.49 21.65 6.3 32.83 1.23 16.98 1.7 33.95-.2 50.95-.8 7.19-.5 14.5-.88 21.75-.14 2.77-.51 5.57-1.2 8.25-1.47 5.68-2.49 6.41-8.36 6.33-.77-.01-2.07-1.05-2.21-1.79-1.07-5.78-3.07-11.69-2.63-17.39 1.49-19.36.27-38.69.13-58.02-.07-9.73-.31-19.48-1.12-29.17-.66-7.98-5.74-16.34-16.15-16.59-3.66-.09-7.29-.93-11.19-1.46 0 2-.04 3.97.01 5.94.79 33.9 1.52 67.8 2.44 101.69.17 6.36 1.18 12.69 1.74 19.04.19 2.11.36 4.25.23 6.36-.18 3.19-1.55 5.8-4.5 7.38-3.93 2.1-5.37 1.63-7.03-2.47-3.91-9.67-5.59-19.89-5.75-30.17-.56-35.91-.83-71.83-.94-107.75-.1-31-.11-62.01.37-93.01.32-20.79 1.16-41.59 2.59-62.33.59-8.01 3.42-15.85 5.23-23.82z"/><path d="m219.08 206.86c0-8.69 0-16.95 0-25.2 0-2.25-1.74-2.06-3.1-2.06-8.5-.02-17.01.14-25.51.04-3.44-.04-6.94-.27-10.28-1-1.95-.42-3.98-1.68-5.39-3.13-3.74-3.86-2.84-7.01 2.12-8.85 7.26-2.69 14.78-1.86 22.25-1.78 6.45.07 12.9.01 19.58.01.09-1.75.2-2.84.2-3.92.02-5.26.01-10.52.01-15.78 0-9.87-.04-9.65-9.91-11.44-5.09-.92-10.36-2.11-14.92-4.41-6.21-3.13-8.64-9.49-10.04-15.96-3.96-18.28-4.01-36.65-.44-54.98 1.39-7.14 1.65-7.09 10.18-7.37 1.13 6.03 3.09 12.21 3.25 18.43.24 9.35-.67 18.73-1.28 28.09-.84 12.88 5.46 20.85 18.28 22.84 1.31.2 2.61.4 4.83.74.26-6.49 1.05-12.71.64-18.86-.55-8.12-1.9-16.2-3.15-24.26-1.82-11.75-1.3-23.18 3.73-34.15.18-.4.44-.76.65-1.12 6.05 1.83 8.25 4.68 8.75 10.7 2.99 35.83 3.58 71.73 3.52 107.67-.09 49.92.33 99.84.47 149.76.04 14.93-1.58 29.68-4.77 44.29-.65 2.96-1.77 4.55-4.88 4.66-1.54.05-3.06.52-4.69.83-2.94-4.41-4.12-9.29-3.92-14.37.27-6.81 1.12-13.6 1.44-20.41.57-12.17.95-24.36 1.39-36.54.66-17.89 1.33-35.77 1.94-53.66.08-2.23-.06-4.48-.31-6.7-.61-5.45-3.59-8.1-9.01-7.57-3.42.34-6.81 1.23-10.12 2.18-1.12.33-2.21 1.46-2.9 2.5-5.73 8.65-8.39 18.45-8.35 28.59.09 20.24 1.01 40.48 1.56 60.73.16 5.7.43 11.41.27 17.11-.14 5.11-3.4 8.49-8.27 8.96-.9.09-2.5-.69-2.74-1.41-1.19-3.58-2.67-7.24-2.88-10.93-.96-16.63-1.79-33.28-2.16-49.93-.4-18.17.64-36.22 6.03-53.8 1.42-4.64 3.96-7.72 8.08-10.38 8.64-5.57 18.19-7.15 28.06-7.94.78-.06 1.55-.19 1.79-.22z"/></g><path d="m377.9 391.2c-.2.3-.4.5-.6.8-.7-.6-1.4-1-2.2-1.5.2-.3.4-.5.5-.8.6.4 1.4.8 2.3 1.5zm-1.8 6.1c-.2-.2-.5-.4-.9-.6.4-.6.8-1.2 1.2-1.9s.7-1.3.9-1.9c.3.3.5.5.8.7-.7 1.3-1.4 2.6-2 3.7zm2.2-9c-.3.3-.5.5-.6.8-.6-.6-1.3-1.1-2-1.5.3-.3.5-.5.6-.7.6.5 1.3.9 2 1.4zm.3.2v-.9h2 4.5c-.3 1.3-.6 2.5-1 3.6s-.9 2.1-1.4 3c.4.5 1 1 1.6 1.4s1.2.8 1.9 1.1c-.3.2-.5.4-.8.8-.4-.3-1-.7-1.6-1.2s-1.2-1.1-1.6-1.6c-.5.6-1.1 1.1-1.7 1.6s-1.4.9-2.1 1.4c-.1-.3-.3-.5-.7-.8.6-.2 1.2-.5 1.9-1s1.4-1.1 2-1.8c-.5-.8-.9-1.6-1.2-2.5s-.6-2-.8-3.2c-.4.1-.7.1-1 .1zm2.5 2.7c.3 1 .7 1.7 1 2.2.3-.5.6-1.1 1-2s.6-1.9.9-3h-3.2-.4c.1.9.3 1.8.7 2.8z" fill="#fcfbfa"/><path d="m396.5 388.5v1.5 3.6h1.5v.9c-.4 0-1 0-1.7 0h-7.9c-.5 0-.9 0-1.2 0v-.9h1.3v-3.5c0-.7 0-1.2 0-1.6h2.4c0-.8 0-1.4 0-1.7h1c0 .3-.1.8-.1 1.7h1.5c0-.8 0-1.4 0-1.7h1c0 .3-.1.9-.1 1.7zm-8.2 9.2c-.2-.3-.5-.5-.8-.8.8-.3 1.4-.6 1.9-.9s1-.7 1.4-1.1c.3.3.6.5.9.8-1.6 1-2.8 1.6-3.4 2zm2.6-6.8v-1.6h-1.5v1.6zm0 2.7v-1.9h-1.5v1.9zm2.4-2.7v-1.6h-1.5v1.6zm0 2.7v-1.9h-1.5v1.9zm.2 2 .7-.8c.4.2.9.5 1.6.8s1.3.7 1.8 1c-.3.3-.5.5-.8.8-.4-.3-1.5-1-3.3-1.8zm2-4.7v-1.6h-1.4v1.6zm0 2.7v-1.9h-1.4v1.9z" fill="#fcfbfa"/></svg>