<svg enable-background="new 0 0 400 400" viewBox="0 0 400 400" xmlns="http://www.w3.org/2000/svg"><g fill="#010103"><path d="m127.59 241.98c-5.61-.08-9.28 1.89-12.47 6.03-7.98 10.4-12.09 21.85-12.63 34.99-.69 16.53-2.17 33.04-3.41 49.55-.39 5.17-2.21 7.75-5.66 8.53-2.67.6-5.04.23-5.81-2.85-.95-3.77-2.33-7.6-2.37-11.41-.2-19.6.03-39.27 5.36-58.29 2.63-9.4 6.82-18.38 10.7-27.38.88-2.05 3.43-3.38 5.19-5.05 5.06-4.82 10.91-8.09 17.91-9.05 2.62-.36 3.42-1.69 3.26-4.3-.24-4.02-.2-8.06-.01-12.08.11-2.4-.64-3.32-3.08-3.61-8-.94-15.97-2.09-23.94-3.2-6.71-.93-11.84-6.08-11.38-12.91.41-6.04 2.06-12.05 3.6-17.96 1.48-5.67 4.48-10.41 8.67-14.79 6.49-6.81 13.49-12.7 21.94-16.79 2.27-1.1 3-2.57 2.85-5-.2-3.11-.05-6.23-.05-9.65-7.15-.67-14.04-1.21-20.89-1.99-10.49-1.19-16.83-9.14-15.72-19.68.3-2.88.9-5.75 1.69-8.54.85-3 2.17-5.86 3.12-8.84 2.32-7.3 7.48-11.96 13.99-15.46 4.53-2.44 8.99-4.99 13.51-7.44 2.99-1.62 4.79-4 4.92-7.44.13-3.56.36-7.15.15-10.7-.42-7.46-.03-14.72 3.47-21.48 7.91.73 11.74 5.62 10.74 13.17-.73 5.53-1.34 11.09-1.61 16.65-.19 3.92 1.43 6.72 5.54 8.44 16.01 6.7 25.18 19.38 28.68 35.89 1.26 5.93-.03 12.4-.29 18.62-.04.86-.73 1.96-1.45 2.47-5.98 4.15-12.39 6.62-19.86 4.94-6.07-1.36-8.9.4-10.82 6.42-.07.21-.16.42-.22.63-2.19 7.6-2 7.93 5.13 11.16 17.56 7.95 25.89 22.65 28.77 40.77.69 4.36-1.13 9.17-2.03 13.73-.62 3.17-2.97 5.1-6 5.58-6.7 1.07-13.44 2.01-20.2 2.59-3.01.26-4.37.95-4.32 4.25.07 4.47-.24 8.96-.72 13.4-.26 2.38.6 3.32 2.66 4.18 7.73 3.22 14.59 7.75 20.18 14.08 4.84 5.47 8.07 11.78 10.01 18.77 4.41 15.87 6.13 32.04 5.48 48.48-.39 9.83-.71 19.66-1.07 29.68-2.85.59-5.55 1.14-9.08 1.87-1.24-5.75-3.1-11.32-3.52-16.99-1.03-14.04-1.43-28.13-2.03-42.2-.5-11.65-2.91-22.7-10.93-31.66-2.85-3.18-6.45-5.7-10.35-9.08-.21 1.87-.37 2.68-.38 3.49-.33 28.76-.72 57.53-.92 86.29-.07 10.17.38 20.35.45 30.53.02 2.54-.23 5.17-.91 7.61-1.05 3.75-4.58 6.12-8.43 5.84-.95-.07-2.43-1.06-2.63-1.87-1.13-4.62-2.71-9.32-2.73-14-.19-37.5-.06-75-.03-112.51-.02-1.41-.02-2.84-.02-4.43zm33.27-50.45c-.2-9.83-3.08-17.83-7.93-25.12-7.5-11.29-18.12-13.88-29.95-7.5-11.93 6.43-18.79 16.06-19.17 29.9-.07 2.56.79 3.49 3.49 3.41 11.16-.35 22.33-.52 33.49-.67 6.57-.09 13.14-.02 20.07-.02zm.03-81.23c-.3-10.12-3.56-18.66-9.34-26.24-3.3-4.32-7.8-6.94-12.98-8.49-3.47-1.04-6.88-1.21-10.04.7-4.96 2.99-10.02 5.86-14.63 9.33-7.44 5.6-9.85 13.71-10.15 22.68-.1 2.88.94 3.9 3.93 3.75 8.71-.46 17.43-.64 26.14-.92 8.92-.29 17.85-.54 27.07-.81z"/><path d="m255.09 127.8c-4.09 9.42-8.27 18.44-11.93 27.66-3.01 7.58-7.11 14.29-12.47 20.45-8.59 9.87-16.71 20.14-25.14 30.15-3.01 3.58-6.87 5.69-11.76 5.28-3.51-.3-6.08-3.46-4.92-6.75.9-2.53 2.34-5.12 4.23-7 13.59-13.56 26.15-27.95 36.45-44.19 5.94-9.36 9.67-19.6 11.2-30.64.36-2.57-.29-4.24-2.19-6.13-5.15-5.11-10.18-10.39-14.84-15.95-6.76-8.06-5.76-17.2-2.77-26.4.28-.86 1.23-1.56 1.99-2.18 6.98-5.66 14.94-8.79 23.92-9.52 8.92-.72 17.82-1.6 26.72-2.54 1.49-.16 3.04-.71 4.36-1.45 7.31-4.1 14.56-8.33 21.84-12.49 2.9-1.66 7.78-.85 9.46 1.5 1.53 2.14.71 6.02-1.77 8.51-11.47 11.49-25.56 17.35-41.47 19.27-9.22 1.11-18.43 2.28-27.67 3.14-3.59.34-5.58 2.44-5.81 5.38-.34 4.22.39 8.56 4.17 11.42 14.36 10.88 28.75 21.72 43.16 32.52 14.35 10.76 18.86 23.2 14.08 40.6-1.34 4.89-3.3 9.81-5.97 14.09-9.29 14.89-18.97 29.53-28.6 44.2-3.52 5.36-8.21 9.1-14.97 9.57-2.23.16-3.52-.64-3.58-2.85-.05-1.74-.27-3.79.5-5.19 2.18-3.98 4.39-8.1 7.39-11.46 12.39-13.88 23.16-28.76 29.59-46.37 2.78-7.62 3.23-15.53.79-23.4-.37-1.18-1.19-2.43-2.17-3.16-7.08-5.32-14.23-10.51-21.82-16.07z"/><path d="m283.11 268.98c.13-5.27.37-10.83.37-16.39.01-7.25-.41-14.51-.18-21.75.13-3.94 2.08-7.38 5.94-9.05.79-.34 2.83.25 3.07.88 1.65 4.34 3.78 8.71 4.26 13.23 1.21 11.32 1.53 22.73 2.37 34.1 1.45 19.52-.24 38.65-6.76 57.2-.56 1.59-1.62 3.2-2.87 4.34-11.92 10.89-26.27 14.59-41.92 12.85-7.81-.87-15.47-3.2-23.14-5.1-1.47-.36-2.96-1.6-3.93-2.84-8.93-11.43-12.37-24.84-13.71-38.97-1.59-16.92-.63-33.74 1.67-50.54.44-3.2-.06-6.53.48-9.7.83-4.79 2.16-9.5 3.34-14.23.51-2.06 1.85-2.08 3.61-1.42 4.19 1.57 7.04 4.6 7.02 8.92-.03 6.31-1.11 12.62-1.52 18.94-.34 5.23-.36 10.47-.52 15.71-.06 1.93.78 2.7 2.82 2.74 14.2.3 28.39.75 42.59 1.07 5.35.11 10.71.01 17.01.01zm-61.77 13.47c0 3.76-.03 7.1.01 10.43.08 7.59-.27 15.23 2.29 22.57 2.46 7.05 6.33 12.5 14.55 13.24 6.44.57 12.86 1.65 19.31 1.76 6.82.13 13.25-1.89 18.82-6.05.94-.7 1.92-1.64 2.35-2.69 5.03-12.31 4.12-25.1 3.04-38.17-19.92-.36-39.66-.71-60.37-1.09z"/></g><path d="m377.9 391.2c-.2.3-.4.5-.6.8-.7-.6-1.4-1-2.2-1.5.2-.3.4-.5.5-.8.6.4 1.4.8 2.3 1.5zm-1.8 6.1c-.2-.2-.5-.4-.9-.6.4-.6.8-1.2 1.2-1.9s.7-1.3.9-1.9c.3.3.5.5.8.7-.7 1.3-1.4 2.6-2 3.7zm2.2-9c-.3.3-.5.5-.6.8-.6-.6-1.3-1.1-2-1.5.3-.3.5-.5.6-.7.6.5 1.3.9 2 1.4zm.3.2v-.9h2 4.5c-.3 1.3-.6 2.5-1 3.6s-.9 2.1-1.4 3c.4.5 1 1 1.6 1.4s1.2.8 1.9 1.1c-.3.2-.5.4-.8.8-.4-.3-1-.7-1.6-1.2s-1.2-1.1-1.6-1.6c-.5.6-1.1 1.1-1.7 1.6s-1.4.9-2.1 1.4c-.1-.3-.3-.5-.7-.8.6-.2 1.2-.5 1.9-1s1.4-1.1 2-1.8c-.5-.8-.9-1.6-1.2-2.5s-.6-2-.8-3.2c-.4.1-.7.1-1 .1zm2.5 2.7c.3 1 .7 1.7 1 2.2.3-.5.6-1.1 1-2s.6-1.9.9-3h-3.2-.4c.1.9.3 1.8.7 2.8z" fill="#fcfbfa"/><path d="m396.5 388.5v1.5 3.6h1.5v.9c-.4 0-1 0-1.7 0h-7.9c-.5 0-.9 0-1.2 0v-.9h1.3v-3.5c0-.7 0-1.2 0-1.6h2.4c0-.8 0-1.4 0-1.7h1c0 .3-.1.8-.1 1.7h1.5c0-.8 0-1.4 0-1.7h1c0 .3-.1.9-.1 1.7zm-8.2 9.2c-.2-.3-.5-.5-.8-.8.8-.3 1.4-.6 1.9-.9s1-.7 1.4-1.1c.3.3.6.5.9.8-1.6 1-2.8 1.6-3.4 2zm2.6-6.8v-1.6h-1.5v1.6zm0 2.7v-1.9h-1.5v1.9zm2.4-2.7v-1.6h-1.5v1.6zm0 2.7v-1.9h-1.5v1.9zm.2 2 .7-.8c.4.2.9.5 1.6.8s1.3.7 1.8 1c-.3.3-.5.5-.8.8-.4-.3-1.5-1-3.3-1.8zm2-4.7v-1.6h-1.4v1.6zm0 2.7v-1.9h-1.4v1.9z" fill="#fcfbfa"/></svg>