<svg enable-background="new 0 0 400 400" viewBox="0 0 400 400" xmlns="http://www.w3.org/2000/svg"><path d="m361.2 9.6.8-1c.9.7 1.9 1.4 2.9 2.3l-.9 1.1c-1-1-2-1.8-2.8-2.4zm.5 10.6c.9-2.1 1.6-4.3 2.3-6.7.4.2.8.4 1.3.6-.7 2.1-1.5 4.3-2.2 6.6zm.4-15.2.9-.9c1 .8 2 1.6 2.8 2.4l-1 1c-.9-.9-1.8-1.7-2.7-2.5zm12.5-1.2h1.2v1.4h2.7v1.1h-2.7v2.7h-1.2v-.6h-1.8v1.3h4.9v3.8h-1.2v-.5h-3.7c0 .4-.1.9-.1 1.2h5.1v1h-5.2c0 .5-.1.9-.2 1.2h6v1h-5.2c1.1 1.3 2.9 2 5.5 2.2-.4.4-.7.8-.9 1.3-2.9-.5-4.8-1.6-5.7-3.5h-.1c-.8 1.7-2.7 2.9-5.9 3.6-.2-.4-.6-.8-.9-1.1 2.8-.6 4.6-1.4 5.4-2.5h-4.8v-1h5.3c.1-.3.2-.7.2-1.2h-4.9v-1h5c0-.4 0-.8.1-1.2h-3.5v.5h-1.2v-3.8h4.9v-1.3h-1.8v.5h-1.2v-2.7h-2.7v-1h2.6v-1.4h1.2v1.4h4.7v-1.4zm-6.6 8.3h3.6c0-.4 0-.9 0-1.4h-3.6zm1.9-4.6h4.7v-1.3h-4.7zm6.6 3.2h-3.7v1.4h3.7z" fill="#fbfcfa"/><path d="m385.3 3.8h1.3v2.2h2.8v-2.2h1.3v2.2h4.1v9.1h1.7v1.3h-16.9v-1.3h1.7v-9.1h4.1v-2.2zm.4 13.1.7 1.2c-1.8.9-3.8 1.9-6 2.9-.2-.4-.5-.8-.8-1.3 2.3-1 4.3-1.9 6.1-2.8zm-3.1-6.4h2.8v-3.2h-2.8zm0 4.6h2.8v-3.3h-2.8zm4-4.6h2.8v-3.2h-2.8zm0 4.6h2.8v-3.3h-2.8zm3.7 1.9c2.1.9 4.1 1.8 6.1 2.7l-.7 1.3c-2.2-1.1-4.2-2-6.1-2.9zm3.2-9.7h-2.8v3.2h2.8zm-2.8 7.8h2.8v-3.3h-2.8z" fill="#fbfcfa"/><g fill="#010102"><path d="m188.54 83.68c-30.35-3.63-60.31-7.22-90.26-10.81.01-.2.01-.4.02-.59 9.13-.75 18.27-1.51 27.4-2.24 16.95-1.36 33.9-2.67 50.84-4.14.92-.08 2.35-1.29 2.49-2.15 1.16-7.36 2.49-5.67-4.29-10.08-11.95-7.78-25.47-11.22-39.25-13.95-8.58-1.7-17.02-3.95-24.37-8.98-2.08-1.42-3.86-3.28-5.39-5.67 6.51 1.12 13.02 2.21 19.52 3.35 16.74 2.93 33.51 5.72 50.19 8.95 3.59.69 6.93 2.87 10.26 4.61 4.34 2.27 8.5 6.53 12.85 6.67 4.2.14 8.55-3.83 12.82-6.03 5.66-2.92 11.42-5.69 16.94-8.86 11.37-6.52 23.62-7.88 36.34-6.59 8.2.83 16.29 2.26 24.05 6.3-7.6 1.65-15.17 3.45-22.81 4.91-9.11 1.74-18.38 2.73-27.39 4.86-10.42 2.47-18.9 8.28-25.31 17.74 25.7 3.79 50.94 7.52 76.19 11.25.02.17.03.35.05.52-6.39.87-12.79 1.76-19.18 2.62-19.95 2.69-39.9 5.41-59.87 8.01-1.94.25-2.3 1.05-2.41 2.76-1.48 22.79-3 45.57-4.61 68.35-.16 2.29.37 3.34 2.71 3.99 6.67 1.86 13.29 3.91 19.87 6.08 5.98 1.97 10.42 5.99 13.73 11.25.66 1.05.93 2.47 1.02 3.74.69 10.93 1.14 21.87 1.97 32.79 1.61 21.17-3.07 40.89-13.37 59.32-2.11 3.77-5.4 6.96-7.05 10.88-4.24 10.03-2.04 20 1.68 29.69 3.85 10.01 8.16 19.85 11.68 29.97 1.64 4.72 1.9 9.93 2.79 14.92-.42.11-.83.21-1.25.32-.55-.91-1.12-1.81-1.63-2.74-7.07-12.71-14.36-25.3-21.08-38.19-2.39-4.58-3.45-9.88-4.98-14.89-1.44-4.7-2.8-9.43-4.03-14.19-.45-1.76-1.21-2.68-3.07-2.86-3.43-.34-6.85-.84-10.55-1.31-1.57 4.75-2.99 9.43-4.66 14.02-5 13.75-9.31 27.8-16.84 40.49-4.59 7.75-11.2 14.85-17.3 18.6.37-1.21.6-2.11.91-2.97 4.74-12.78 9.61-25.52 14.22-38.35 3.43-9.54 4.98-19.49 5.52-29.58.08-1.44-.41-3.09-1.12-4.37-2.21-4.01-4.35-8.13-7.08-11.78-5.65-7.57-7.48-16.19-8.46-25.33-2.45-22.91-1.29-45.59 3.3-68.12.26-1.26 1.1-2.89 2.15-3.43 5.61-2.92 11.33-5.65 17.11-8.24 4.07-1.82 8.28-3.33 12.43-4.96 2.13-.84 2.89-2.18 2.67-4.62-1.57-17.16-2.97-34.34-4.43-51.52-.53-6.41-1.1-12.76-1.68-19.42zm-16.36 150.59c10.22-4.87 20.29-5.37 30.72-3.9 8.14 1.14 16.39 1.55 25.43 2.36 0-6.44.38-12.33-.09-18.15-.65-8.12-6.47-12.3-14.66-11.32-5.77.69-11.56 1.21-17.33 1.82-8.98.95-17.96 1.91-27.22 2.89 1.04 8.75 2.06 17.23 3.15 26.3zm-1.57 9.73c.64 8.55 4.24 15.53 8.92 22.05.42.59 1.13 1.08 1.8 1.38 16.46 7.14 41.28-.92 45.74-20.17 1.38-5.95-2.14-10.44-8.31-9.61-9.53 1.29-19.08 2.47-28.62 3.72-6.52.85-13.03 1.75-19.53 2.63zm55.43-50.49c-.31-8.08-1.95-14.63-8.97-18.33-11.9-6.27-24.18-5.71-36.32-.98-3.17 1.24-7.14 3.64-8.18 6.45-1.78 4.82-1.55 10.39-2.27 16.6 18.61-5.84 36.86-5.91 55.74-3.74z"/><path d="m219.38 102.31c8.35 2.43 16.72 4.82 25.05 7.33 1.11.33 2.13 1.18 3.02 1.99 10.71 9.68 21.39 19.39 32.26 29.25 2.8-2.08 4.82-4.64 4.86-8.04.04-3.89-.38-7.81-.99-11.66-.19-1.2-1.49-2.42-2.57-3.27-10.47-8.23-21-16.38-31.51-24.56-.86-.67-1.7-1.38-2.32-2.63 3.49.92 7.05 1.65 10.47 2.79 8.79 2.92 17.52 6.04 26.29 9.05 11.18 3.84 15.82 12.34 15.97 23.47.09 6.45-.88 12.92-1.46 19.37-.09.96-.42 2.04-1 2.78-7.59 9.63-9.29 20.54-7.4 32.35 4.09 25.57 3.34 51.31 2.86 77.05-.41 22.06-1.66 44.05-4.17 65.98-1.28 11.21-1.93 22.49-2.81 33.75-.48 6.19-2.47 11.18-7.4 17.24 0-1.85 0-2.95 0-4.05 0-40.2-.24-80.39.12-120.59.15-16.76-1.99-33.26-3.76-49.82-.83-7.79-1.81-15.56-2.57-23.35-.23-2.34-1.13-3.44-3.46-3.96-5.12-1.13-10.13-2.82-15.28-3.83-9.38-1.85-16.37-7.14-21.45-14.86-4.02-6.12-7.34-12.69-10.97-19.06.23-.26.45-.52.68-.78 1.05.38 2.57.43 3.09 1.18 7.21 10.41 18.45 14.04 29.6 17.84 2.41.82 4.84 1.56 7.41 2.39 1.77-4.53 2.1-8.62.02-12.88-2.38-4.9-5.39-9.08-9.74-12.56-11.18-8.93-22.08-18.22-33.09-27.37.07-.19.16-.36.25-.54z"/><path d="m117.73 140.04c8.81-13.4 19.02-23.7 30.86-32.36 8.88-6.49 18.76-9.84 29.93-8.15.55.08 1.1.18 1.64.32.2.05.36.23.97.64-3.51 1.96-6.89 3.73-10.14 5.7-2.28 1.38-4.52 2.88-6.53 4.61-6.88 5.91-13.69 11.89-20.44 17.95-6.63 5.96-10.86 13.53-14.38 21.94 6.21 2.16 12.39 2.84 18.33.25 4.14-1.8 8.13-4.26 11.65-7.08 5.03-4.04 9.57-8.68 14.81-12.74-3.08 5.89-6.79 11.54-9.09 17.71-3.46 9.31-11.4 13.45-19 17.93-2.44 1.44-6.07.91-9.17 1.19-3.54.32-7.1.53-10.86.8-1.23 9.87-2.08 19.56-3.69 29.13-3.72 22.12-2.94 44.4-2.95 66.66-.02 34.49-.01 68.98-.01 103.47v3.51c-4.51-6.46-6.93-13.54-7.63-21.02-1.02-10.91-2.01-21.87-2.07-32.81-.22-46.02-.07-92.05-.12-138.07-.01-7.13-.21-14.28-.7-21.39-.16-2.36-1.03-4.99-2.41-6.89-5.58-7.64-5.49-16.12-4.08-24.77.88-5.4 2.13-10.74 3.49-16.05.34-1.32 1.46-2.78 2.63-3.51 8.44-5.28 16.96-10.43 25.51-15.52 1.18-.7 2.68-1.15 4.05-1.2 4.33-.15 8.67-.06 13.33.55-.93.67-1.87 1.33-2.79 2.01-6.74 5-13.59 9.86-20.18 15.04-8.09 6.36-12.6 15.09-14.64 24.94-.38 1.89 2.13 4.34 3.68 7.21z"/></g></svg>