<svg enable-background="new 0 0 400 400" viewBox="0 0 400 400" xmlns="http://www.w3.org/2000/svg"><path d="m284.59 123.27c-3.87 5.02-8.74 3.31-13.16-.55-9.52-8.32-18.58-17.16-27.83-25.79-.8-.75-1.64-1.44-2.44-2.14-7.03 7.28-13.74 14.64-20.94 21.49-3.51 3.34-7.72 6.1-11.99 8.43-4.25 2.32-5.76 1.69-8.98-1.61-4.06 4.17-8.89 4.14-13.42-.19-8.97-8.6-17.89-17.24-26.84-25.87-.8-.77-1.62-1.51-2.44-2.27-6.69 6.6-13.07 13.35-19.97 19.52-4.28 3.82-9.17 7.08-14.17 9.93-2.06 1.17-5.1.61-7.7.83-.08-2.58-.52-5.22-.11-7.73.27-1.71 1.45-3.48 2.69-4.79 9.12-9.7 18.35-19.29 27.87-29.25-10.18-11.36-20.29-22.64-30.67-34.21-4.59 7.28-7.57 14.92-7.77 23.06-.29 11.94.43 23.91.8 35.86.24 7.6.9 15.21.89 22.81-.07 32.13.08 64.27-.62 96.39-.8 37.04-2.35 74.06-5.73 110.98-.78 8.57-.96 17.2-1.63 25.79-.2 2.51-.94 5.03-1.82 7.41-.9 2.45-3.01 3.51-5.62 3.42-2.63-.09-4.76-1.36-5.03-3.96-.51-4.83-.93-9.74-.63-14.58 1.09-17.99 3.06-35.93 3.64-53.93 1.16-36.02 1.69-72.06 2.33-108.09.48-27.42.82-54.84 1.01-82.27.08-12.53-.53-25.07-.5-37.6.03-10.17 2.5-19.93 6.17-29.38.41-1.07 1.39-2.01 2.3-2.78 10.68-9.04 23.08-14.13 36.97-15.01 16.18-1.02 32.39-2.1 48.58-2.02 21.02.11 42.04 1.05 63.03 2.22 8.66.49 17.34 2.05 25.82 3.97 10.24 2.31 16.13 9.73 19.97 19.14 4.63 11.32 6.06 23.14 5.51 35.2-2 43.75-1.78 87.53-1.21 131.29.42 32 1.51 64 2.61 95.99.24 7.01 2.17 13.94 2.56 20.96.67 12.17.74 24.37 1.06 36.56.07 2.69-1.87 3.8-3.93 4.3-1.98.48-4.15.76-5.61-1.63-3.9-6.42-5.36-13.55-5.64-20.83-1.97-50.33-3.9-100.65-5.58-150.99-.84-25.28-1.13-50.58-1.67-75.87-.02-.55-.08-1.1-.16-2.21zm-85.41-70.84c-10.34 10.07-20.89 20.36-31.64 30.83 10.51 11.68 20.89 23.22 31.48 34.99 10.65-11.68 21.17-23.24 31.44-34.51-10.68-10.7-21.16-21.19-31.28-31.31zm82.38-.24c-9.84 10.43-19.48 20.65-29.29 31.05 11.02 11.23 21.91 22.32 32.93 33.55 2.09-16.09 3.27-32.3 1.56-48.6-.6-5.56-1.8-10.98-5.2-16zm-153.6-9.61c9.84 10.2 19.11 19.8 27.99 29 10.86-10.86 21.42-21.43 32.68-32.7-20.36.09-40.24-.49-60.67 3.7zm112.48 28.85c9.44-9.44 18.7-18.7 28.11-28.1-18.86-6.48-38.62-3.9-58.09-5-.08.29-.16.59-.23.88 10.21 10.9 20.43 21.79 30.21 32.22z" fill="#010103"/><path d="m204.93 214.36v42.85c5.79.53 11.85 1.09 18.46 1.69.2-5.04.46-9.69.56-14.35.07-3.11 1.5-5.08 4.45-5.91 4.07-1.15 5.28-.83 6.5 3.25 1.76 5.86 3.59 11.83 4.18 17.88 1.37 14 .48 27.91-3.46 41.56-1.65 5.74-4.97 9.73-10.1 12.67-10.62 6.09-22.15 7.82-34 6.62-6.91-.7-13.68-2.93-20.48-4.61-3.57-.88-5.84-3.46-7.79-6.46-5.2-8-7.84-16.83-8.26-26.25-.63-13.95.85-27.71 4.77-41.16.71-2.43 5.02-5.08 7.26-4.2.73.29 1.39 1.45 1.58 2.32.9 4.26 1.65 8.55 2.41 12.84.27 1.54.45 3.09.7 4.83h17.88c.34-14.16.69-28.3 1.04-42.86-2.45 0-4.71-.54-6.58.09-8.33 2.84-16.53 5.78-22.34 13.22-12.04 15.41-17.46 33.21-20.3 52.2-2.47 16.49-2.01 33.03-1.87 49.59.02 2.21-.12 4.5-.67 6.63-1.07 4.11-4.33 6.72-8.51 6.85-.83.03-2.25-1.07-2.44-1.87-1.15-4.87-2.92-9.82-2.81-14.7.35-15.65.57-31.38 2.52-46.88 1.56-12.44 5.2-24.68 8.61-36.81 2.38-8.45 7.52-15.39 13.42-22.1 8.13-9.25 17.29-15.82 29.51-18.01 3.16-.57 6.25-1.74 9.25-2.94.92-.37 1.98-1.7 2.05-2.65.25-3.45.1-6.92.1-10.93-5.87-.87-11.65-2.08-17.49-2.52-8.19-.62-13.69-4.89-17.68-11.63-.5-.84-.88-1.83-1.03-2.8-.97-6.08-2.1-12.14-2.67-18.26-.31-3.27-1.94-4.45-4.69-4.35-5.34.19-10.68.56-16 1.08-4.59.45-7.8-.73-9.23-3.78-2.52-5.35.47-10.4 6.46-10.86.89-.07 1.79-.02 2.69-.02h110.15c7.49 0 14.99-.15 22.47.13 4.68.18 8.73 1.91 10.52 6.89.61 1.7.32 2.56-1.4 3.37-5.7 2.67-11.7 2.74-17.76 2.34-10.91-.73-10.98-.69-13 9.82-.84 4.39-1.66 8.79-2.6 13.15-1.92 8.89-7.88 13.51-16.5 14.86-4.96.78-10.01 1.04-15.03 1.37-2.59.17-3.82 1.06-3.52 3.89.36 3.41-.8 7.73.9 10.03 1.59 2.15 6.05 2.19 9.25 3.12 4.08 1.18 8.22 2.15 12.24 3.49 8.13 2.71 13.57 8.76 18.65 15.28 10.61 13.61 15.55 29.52 19.15 46.04 2.01 9.23 2.55 18.56 2.94 27.97.45 10.94 1.93 21.83 2.27 32.77.13 4.2-1.51 8.49-2.56 12.69-.88 3.52-4.2 2.35-6.5 2.74-.88.15-2.4-1.24-3.04-2.28-3.16-5.13-4.22-10.94-3.65-16.78 2.42-24.57-1.9-48.39-7.55-72.07-1.97-8.28-6.01-15.61-11.22-22.31-3.56-4.58-7.61-8.24-13.51-9.82-5.38-1.44-10.52-3.71-16.7-5.95zm-34.09 58.04c0 6.67-.34 13.25.16 19.77.22 2.83 2.03 5.6 3.4 8.26 1.23 2.39 3.28 3.78 6.13 4.02 7.12.61 14.21 1.59 21.34 1.99 6.27.35 12.18-1.26 17.5-4.78 2.19-1.45 3.5-3.08 3.51-5.95.02-3.68.66-7.35.98-11.03.35-3.96.65-7.93 1.01-12.29-18.25.01-36.01.01-54.03.01zm-4.28-124.91c-.56 6.38-.66 12.43 1.83 18.3.95 2.23 2.26 3.55 4.69 4.16 11.36 2.88 22.89 4.06 34.57 3.38 5.98-.35 11.67-2.01 16.71-5.4.95-.64 2.19-1.65 2.31-2.61.72-5.85 1.15-11.73 1.69-17.82-20.75-.01-41.06-.01-61.8-.01z" fill="#010103"/><g fill="#fcfbfa"><path d="m377.9 391.2c-.2.3-.4.5-.6.8-.7-.6-1.4-1-2.2-1.5.2-.3.4-.5.5-.8.6.4 1.4.8 2.3 1.5zm-1.8 6.1c-.2-.2-.5-.4-.9-.6.4-.6.8-1.2 1.2-1.9s.7-1.3.9-1.9c.3.3.5.5.8.7-.7 1.3-1.4 2.6-2 3.7zm2.2-9c-.3.3-.5.5-.6.8-.6-.6-1.3-1.1-2-1.5.3-.3.5-.5.6-.7.6.5 1.3.9 2 1.4zm.3.2v-.9h2 4.5c-.3 1.3-.6 2.5-1 3.6s-.9 2.1-1.4 3c.4.5 1 1 1.6 1.4s1.2.8 1.9 1.1c-.3.2-.5.4-.8.8-.4-.3-1-.7-1.6-1.2s-1.2-1.1-1.6-1.6c-.5.6-1.1 1.1-1.7 1.6s-1.4.9-2.1 1.4c-.1-.3-.3-.5-.7-.8.6-.2 1.2-.5 1.9-1s1.4-1.1 2-1.8c-.5-.8-.9-1.6-1.2-2.5s-.6-2-.8-3.2c-.4.1-.7.1-1 .1zm2.5 2.7c.3 1 .7 1.7 1 2.2.3-.5.6-1.1 1-2s.6-1.9.9-3h-3.2-.4c.1.9.3 1.8.7 2.8z"/><path d="m396.5 388.5v1.5 3.6h1.5v.9c-.4 0-1 0-1.7 0h-7.9c-.5 0-.9 0-1.2 0v-.9h1.3v-3.5c0-.7 0-1.2 0-1.6h2.4c0-.8 0-1.4 0-1.7h1c0 .3-.1.8-.1 1.7h1.5c0-.8 0-1.4 0-1.7h1c0 .3-.1.9-.1 1.7zm-8.2 9.2c-.2-.3-.5-.5-.8-.8.8-.3 1.4-.6 1.9-.9s1-.7 1.4-1.1c.3.3.6.5.9.8-1.6 1-2.8 1.6-3.4 2zm2.6-6.8v-1.6h-1.5v1.6zm0 2.7v-1.9h-1.5v1.9zm2.4-2.7v-1.6h-1.5v1.6zm0 2.7v-1.9h-1.5v1.9zm.2 2 .7-.8c.4.2.9.5 1.6.8s1.3.7 1.8 1c-.3.3-.5.5-.8.8-.4-.3-1.5-1-3.3-1.8zm2-4.7v-1.6h-1.4v1.6zm0 2.7v-1.9h-1.4v1.9z"/></g></svg>