<svg enable-background="new 0 0 400 400" viewBox="0 0 400 400" xmlns="http://www.w3.org/2000/svg"><g fill="#010103"><path d="m287.08 120.95c-4.17 3.47-9.44 3.11-13.44-.86-8.97-8.91-17.9-17.87-26.83-26.83-.86-.87-1.6-1.86-3.11-3.65-.73 1.28-1.03 2.15-1.61 2.78-6.43 7.01-12.61 14.28-19.48 20.83-3.88 3.7-8.75 6.45-13.47 9.12-2.88 1.63-6.13 1.61-7.91-2.18-4.47 4.3-9.13 4.27-13.83-.14-10.04-9.41-20.03-18.88-30.26-28.55-2.48 2.79-4.86 5.56-7.35 8.23-4.57 4.91-9.06 9.92-13.87 14.61s-10.33 8.08-17.48 8.14c-2.99.02-4.08-1.53-3.55-3.79.7-2.94 1.57-6.26 3.5-8.41 8.65-9.67 17.7-18.99 26.6-28.44.45-.47.84-1 1.45-1.72-10.52-11.11-20.96-22.13-31.63-33.39-5.23 6.09-8.61 12.9-9.45 20.55-.79 7.19-.69 14.5-.57 21.75.21 12.86 1.05 25.72 1.07 38.58.08 49.8.39 99.62-.27 149.41-.39 29.18-2.41 58.35-3.9 87.51-.15 2.89-1.44 5.82-2.63 8.54-1 2.29-3.18 2.95-5.67 2.46-2.48-.49-4.01-1.79-4.1-4.44-.38-11.73-1.39-23.48-.99-35.18.6-17.54 2.53-35.03 3.26-52.57.58-13.74.18-27.53.25-41.29.18-39.5.49-79.01.51-118.51.01-13.87-.55-27.74-1.01-41.61-.43-13.07 1.64-25.63 7.07-37.56.62-1.36 1.59-2.7 2.74-3.65 10.47-8.6 22.67-12.7 36.05-13.8 27.36-2.26 54.73-2.05 82.13-.67 10.5.53 21.05.3 31.5 1.23 9.44.84 18.95 2.12 28.12 4.44 11.79 2.97 18.1 11.93 21.73 23.09 3.1 9.52 3.79 19.28 3.38 29.17-2.46 59.29-.91 118.61-1.49 177.92-.14 13.92 1.28 27.68 2.37 41.5 1.64 20.64 2.88 41.31 1.14 62.02-.12 1.45-.34 2.89-.57 4.32-.65 4.17-3.21 5.89-7.26 4.99-1.8-.4-2.74-1.21-3.21-3.21-2.38-10.09-3.05-20.31-3.02-30.64.02-7.82-.39-15.64-.66-23.46-.72-20.23-1.76-40.45-2.14-60.69-.84-44.64-1.36-89.28-2.01-133.92-.01-.61-.06-1.23-.1-2.03zm-86.72-72.14c-10.24 9.9-20.74 20.05-31.39 30.34 10.66 12.19 21.16 24.19 31.82 36.37 10.72-11.9 21.17-23.5 31.5-34.97-10.67-10.61-21.12-21-31.93-31.74zm54 31.35c11.21 11.52 22.13 22.75 33.05 33.98.07-.16.31-.55.38-.97 2.44-15.68 2.72-31.39.46-47.11-.76-5.29-2.15-10.44-5.69-15.13-9.46 9.8-18.75 19.43-28.2 29.23zm-38.85-40.53c9.64 10.24 18.57 19.74 26.84 28.54 8.66-8.65 17.05-17.03 25.4-25.37-16.49-5.71-33.94-3.19-52.24-3.17zm-83.76 2.3c9.06 9.42 17.44 18.13 25.2 26.19 9.73-9.73 19.28-19.28 29.13-29.12-17.82-.65-35.52 2.33-54.33 2.93z"/><path d="m225.64 271.18c0 7.48.04 14.5-.01 21.52-.16 21.81-.32 43.62-.57 65.44-.04 3.34-.37 6.71-.92 10.01-.75 4.46-3.41 5.98-7.75 5-1.84-.41-2.76-1.22-3.25-3.19-2.34-9.31-2.73-18.76-2.67-28.3.31-49.79.58-99.58.69-149.37.02-9.95-.86-19.89-1.13-29.84-.27-9.77 1.71-19.08 6.37-27.71 5.19.97 8.68 4.08 8.92 9.48.27 6.08-.69 12.21-.86 18.33-.15 5.12-.03 10.24.16 15.36.11 2.83 1.59 3.98 4.66 3.59 5.32-.69 10.7-.86 16.03-1.48 1.09-.13 2.39-1.07 3.02-2.01 3.59-5.38 4.61-11.53 4.97-17.85.27-4.56.42-9.16 1.08-13.67.53-3.61 2.8-6.27 6.2-7.82 1.65-.75 2.81-.53 3.89 1.16 2.92 4.57 4.39 9.56 4.47 14.91.13 9.05-1.84 17.72-4.99 26.19-2.35 6.3-7.11 9.72-13.08 12.07-6.59 2.59-13.5 2.87-20.42 3.17-1.67.07-3.35.01-5.3.01v20.82c1.17 0 2.45-.03 3.73 0 10.17.25 20.36.23 30.5.95 3.22.23 6.7 1.92 9.33 3.91 3.36 2.54 2.6 6.09-1.09 8.11-4.8 2.63-9.96 3.91-15.43 3.92-8.36.02-16.72 0-25.55 0-.51 6.81-1.1 14.59-1.72 22.85 4.09.65 8.11 1.32 12.15 1.91 5.31.78 10.6 1.85 15.94 2.17 5.68.34 9.2 3.48 12.23 7.7 5.53 7.69 7.74 16.54 8.76 25.73 1.67 15.16 2.2 30.35-.28 45.49-.3 1.84-1.26 3.87-2.55 5.2-2.3 2.37-6.09 1.28-7.19-1.83-4.33-12.21-3.76-24.84-3.42-37.51.16-5.87-.54-11.8-1.32-17.64-.34-2.57-1.67-5.08-2.89-7.44-2.22-4.28-5.33-7.02-10.72-7.19-6.42-.2-12.81-1.33-19.99-2.15z"/><path d="m168.91 233.96c-10.1 0-19.82.11-29.53-.07-2.51-.05-5.2-.57-7.45-1.63-1.87-.88-3.73-2.6-4.7-4.42-2.18-4.08-.9-6.74 3.59-6.98 8.24-.45 16.51-.35 24.77-.44 4.11-.04 8.22-.01 12.59-.01.28-7.64.61-14.55.68-21.45.01-.66-1.45-1.76-2.37-1.95-6.89-1.42-13.78-3.02-20.76-3.86-7.32-.88-11.53-5.42-14.91-11.15-4.08-6.93-4.4-14.71-4.33-22.44.04-4.45.22-9.03 1.29-13.31 1.92-7.65-.15-6.32 8.59-8.09 2.8 5.66 3.73 11.76 3.82 18.04.09 6.14-.17 12.31 2.43 18.14 1.42 3.18 3.27 5.17 7.18 5.36 6.01.29 12 1.26 18.35 1.98 1.49-6.88 1.38-13.65.51-20.39-.89-6.84-1.52-13.61 1.51-20.09 1.08-2.3 2.5-4.43 3.78-6.67 4.23 1.17 6.43 4.1 7.17 7.65 1.15 5.54 2.28 11.23 2.24 16.85-.3 43.19-.9 86.37-1.38 129.56-.3 26.63-.61 53.26-.74 79.89-.02 3.49-2 4.67-4.59 4.93-2.57.26-4.83-.41-5.63-3.82-2.63-11.31-3.34-22.74-3.08-34.31.44-19.57.65-39.15 1.08-58.73.06-2.79-1.34-4.11-3.62-4.25-3.65-.22-7.34-.02-11 .2-1.77.11-3.5.89-5.26.97-7.08.32-10.56 4.29-12.38 10.85-1.97 7.11-2.39 14.2-2.46 21.53-.1 11.59-1.01 23.18-1.78 34.76-.17 2.54-1.47 4.68-4.47 5.12-2.87.42-4.86-.19-5.88-3.32-3.13-9.56-3.28-19.39-2.74-29.23.68-12.52 2.01-24.97 5.77-37.03 3.25-10.41 14.04-17.6 25.04-17.05 4.44.22 8.91-.17 13.36-.46 2.53-.16 3.85-1.43 3.96-4.29.26-6.81.87-13.59 1.35-20.39z"/></g><path d="m377.9 391.2c-.2.3-.4.5-.6.8-.7-.6-1.4-1-2.2-1.5.2-.3.4-.5.5-.8.6.4 1.4.8 2.3 1.5zm-1.8 6.1c-.2-.2-.5-.4-.9-.6.4-.6.8-1.2 1.2-1.9s.7-1.3.9-1.9c.3.3.5.5.8.7-.7 1.3-1.4 2.6-2 3.7zm2.2-9c-.3.3-.5.5-.6.8-.6-.6-1.3-1.1-2-1.5.3-.3.5-.5.6-.7.6.5 1.3.9 2 1.4zm.3.2v-.9h2 4.5c-.3 1.3-.6 2.5-1 3.6s-.9 2.1-1.4 3c.4.5 1 1 1.6 1.4s1.2.8 1.9 1.1c-.3.2-.5.4-.8.8-.4-.3-1-.7-1.6-1.2s-1.2-1.1-1.6-1.6c-.5.6-1.1 1.1-1.7 1.6s-1.4.9-2.1 1.4c-.1-.3-.3-.5-.7-.8.6-.2 1.2-.5 1.9-1s1.4-1.1 2-1.8c-.5-.8-.9-1.6-1.2-2.5s-.6-2-.8-3.2c-.4.1-.7.1-1 .1zm2.5 2.7c.3 1 .7 1.7 1 2.2.3-.5.6-1.1 1-2s.6-1.9.9-3h-3.2-.4c.1.9.3 1.8.7 2.8z" fill="#fcfbfa"/><path d="m396.5 388.5v1.5 3.6h1.5v.9c-.4 0-1 0-1.7 0h-7.9c-.5 0-.9 0-1.2 0v-.9h1.3v-3.5c0-.7 0-1.2 0-1.6h2.4c0-.8 0-1.4 0-1.7h1c0 .3-.1.8-.1 1.7h1.5c0-.8 0-1.4 0-1.7h1c0 .3-.1.9-.1 1.7zm-8.2 9.2c-.2-.3-.5-.5-.8-.8.8-.3 1.4-.6 1.9-.9s1-.7 1.4-1.1c.3.3.6.5.9.8-1.6 1-2.8 1.6-3.4 2zm2.6-6.8v-1.6h-1.5v1.6zm0 2.7v-1.9h-1.5v1.9zm2.4-2.7v-1.6h-1.5v1.6zm0 2.7v-1.9h-1.5v1.9zm.2 2 .7-.8c.4.2.9.5 1.6.8s1.3.7 1.8 1c-.3.3-.5.5-.8.8-.4-.3-1.5-1-3.3-1.8zm2-4.7v-1.6h-1.4v1.6zm0 2.7v-1.9h-1.4v1.9z" fill="#fcfbfa"/></svg>