<svg enable-background="new 0 0 400 400" viewBox="0 0 400 400" xmlns="http://www.w3.org/2000/svg"><path d="m205.68 218.78v29.2c5.3 0 10.95-.04 16.61.01 23.5.21 47 .42 70.49.69 2.11.02 4.36.1 6.28.83 1.86.7 3.85 1.96 4.96 3.55 2.77 3.95 2.03 5.77-2.45 7.3-10.47 3.57-21.32 3.58-32.19 3.3-20.46-.51-40.92-1.05-61.39-1.57-.54-.01-1.08.08-2.15.18 0 6.45.04 12.79-.01 19.13-.17 25.4-.35 50.81-.58 76.21-.03 3.35-.11 6.75-.71 10.03-.38 2.07-1.33 4.4-2.8 5.82-3.04 2.95-7.35 1.83-8.5-2.24-1.08-3.82-1.8-7.86-1.88-11.83-.64-31.22-1.09-62.44-1.6-93.65-.02-1.1-.16-2.19-.28-3.65-1.37 0-2.56 0-3.75 0-25.52.04-51.04.14-76.57.05-4.21-.01-8.49-.52-12.62-1.38-4.28-.9-5.83-5.26-3.42-8.88.51-.76 1.77-1.18 2.76-1.42 13.63-3.26 27.46-3.11 41.36-2.79 17.43.4 34.88.12 52.31.13.2 0 .39-.16.94-.4 0-.93.03-2.02-.01-3.1-.24-7.27-.59-14.54-.71-21.81-.04-2.31-.76-3.09-3.11-3.08-9.4.01-18.8-.24-28.2-.28-17.01-.08-34.01-.02-51.02-.18-3.44-.03-6.93-.53-10.3-1.25-4.5-.97-6.77-8.21-3.68-11.49.67-.71 2-.86 3.06-1.15 13.16-3.59 26.59-2.9 40.02-2.58 16.44.39 32.89.53 49.33.89 3.11.07 4.1-2.09 3.52-4.02-1.69-5.62-3.88-11.11-6.22-16.49-.33-.76-2.57-.91-3.94-.96-12.41-.44-24.82-.8-37.23-1.17-7.82-.23-15.64-.28-23.45-.7-5.12-.28-7.79-2.88-8.66-7.34-.35-1.78-.05-2.81 1.8-3.63 6.71-2.98 13.72-3.73 20.97-3.48 12.85.44 25.71.71 38.57 1.04.53.01 1.05-.09 1.94-.16-.59-1.26-.99-2.25-1.5-3.19-5.63-10.43-11.42-20.77-16.85-31.3-1.76-3.4-4.2-4-7.41-3.39-1.3.25-2.56.79-3.78 1.34-15.81 7.06-31.58 14.22-47.44 21.17-2.61 1.14-5.57 1.6-8.42 2.05-2.4.38-4.57-.47-5.26-3.07-.64-2.41-.98-4.9 1.89-6.4 12.47-6.51 24.74-13.42 37.43-19.46 11.19-5.33 22.67-10.14 34.32-14.35 9.96-3.59 20.32-6.06 30.55-8.88 2.11-.58 3.1-1.34 3.19-3.75.28-7.13.91-14.25 1.43-21.85-6.04.82-11.72 1.76-17.44 2.32-24.59 2.41-46.25 13.12-68.02 23.62-5.3 2.55-10.84 4.65-16.38 6.62-2.4.85-5.22 1.17-6.56-2.08-1.17-2.85-.02-6.56 2.54-8.15 19.4-12.1 39.24-23.49 61.61-29.09 12.98-3.25 26.32-5.05 39.54-7.26 3.07-.51 4.77-1.29 4.93-4.8.33-7.14.92-14.29 1.73-21.39.38-3.38 1.51-6.68 2.28-9.97 7.52 1.22 11.04 6.31 10.28 14.27-.27 2.78-.75 5.55-.92 8.34-.13 2.22-.14 4.49.17 6.68.75 5.32 1.64 6.06 6.93 6.79 13.63 1.87 27.24 3.93 40.22 8.73 7.22 2.67 14.42 5.48 21.43 8.67 9.65 4.4 19.14 9.18 28.64 13.9 5.12 2.55 8.7 6.53 10.3 12.38-5.05 3.48-10.19 3.99-15.71 1.14-9.93-5.12-19.89-10.17-29.87-15.19-15.07-7.59-31.14-11.62-47.82-13.51-4.55-.51-9.06-1.31-14.24-2.07v7.38c0 4.37.16 8.74-.06 13.09-.14 2.62.91 3.63 3.27 4.47 17.25 6.16 34.6 12.11 51.61 18.88 14.63 5.82 28.85 12.63 43.26 19 5.23 2.31 8.98 5.82 9.57 12.29-4.17 1.8-8.71 1.83-12.87.43-8.98-3.03-17.82-6.49-26.58-10.12-9.78-4.05-19.41-8.49-29.46-12.92-7.27 12.71-14.28 24.97-21.67 37.9 4.66.37 8.73.97 12.81.96 9.95-.02 19.91-.52 29.85-.41 4.19.05 8.46.82 12.53 1.87 3.89 1.01 6.91 3.49 8.09 7.8-5.89 3.68-12.27 5.22-18.91 5.39-6.59.17-13.19-.32-19.78-.38-10.06-.1-20.11-.04-30.17-.14-1.98-.02-3 .61-3.59 2.58-1.87 6.19-3.94 12.31-6.12 19.05 3.95 0 7.48-.04 11 .01 22.82.29 45.65.55 68.47.93 3.9.06 7.81.53 11.68 1.02 3.77.47 5.72 2.59 6.03 6.08.34 3.79-.55 5.13-4.59 6.59-9.01 3.24-18.4 3.62-27.82 3.34-12.97-.39-25.92-1.19-38.89-1.55-8.69-.28-17.41-.09-26.94-.09zm-40.23-96.73c10.81 19.34 21.73 38.88 32.91 58.88 10.97-20.06 21.72-39.71 32.93-60.2-22.27-8.14-43.87-9.71-65.84 1.32z" fill="#010103"/><g fill="#fcfbfa"><path d="m377.9 391.2c-.2.3-.4.5-.6.8-.7-.6-1.4-1-2.2-1.5.2-.3.4-.5.5-.8.6.4 1.4.8 2.3 1.5zm-1.8 6.1c-.2-.2-.5-.4-.9-.6.4-.6.8-1.2 1.2-1.9s.7-1.3.9-1.9c.3.3.5.5.8.7-.7 1.3-1.4 2.6-2 3.7zm2.2-9c-.3.3-.5.5-.6.8-.6-.6-1.3-1.1-2-1.5.3-.3.5-.5.6-.7.6.5 1.3.9 2 1.4zm.3.2v-.9h2 4.5c-.3 1.3-.6 2.5-1 3.6s-.9 2.1-1.4 3c.4.5 1 1 1.6 1.4s1.2.8 1.9 1.1c-.3.2-.5.4-.8.8-.4-.3-1-.7-1.6-1.2s-1.2-1.1-1.6-1.6c-.5.6-1.1 1.1-1.7 1.6s-1.4.9-2.1 1.4c-.1-.3-.3-.5-.7-.8.6-.2 1.2-.5 1.9-1s1.4-1.1 2-1.8c-.5-.8-.9-1.6-1.2-2.5s-.6-2-.8-3.2c-.4.1-.7.1-1 .1zm2.5 2.7c.3 1 .7 1.7 1 2.2.3-.5.6-1.1 1-2s.6-1.9.9-3h-3.2-.4c.1.9.3 1.8.7 2.8z"/><path d="m396.5 388.5v1.5 3.6h1.5v.9c-.4 0-1 0-1.7 0h-7.9c-.5 0-.9 0-1.2 0v-.9h1.3v-3.5c0-.7 0-1.2 0-1.6h2.4c0-.8 0-1.4 0-1.7h1c0 .3-.1.8-.1 1.7h1.5c0-.8 0-1.4 0-1.7h1c0 .3-.1.9-.1 1.7zm-8.2 9.2c-.2-.3-.5-.5-.8-.8.8-.3 1.4-.6 1.9-.9s1-.7 1.4-1.1c.3.3.6.5.9.8-1.6 1-2.8 1.6-3.4 2zm2.6-6.8v-1.6h-1.5v1.6zm0 2.7v-1.9h-1.5v1.9zm2.4-2.7v-1.6h-1.5v1.6zm0 2.7v-1.9h-1.5v1.9zm.2 2 .7-.8c.4.2.9.5 1.6.8s1.3.7 1.8 1c-.3.3-.5.5-.8.8-.4-.3-1.5-1-3.3-1.8zm2-4.7v-1.6h-1.4v1.6zm0 2.7v-1.9h-1.4v1.9z"/></g></svg>