<svg enable-background="new 0 0 400 400" viewBox="0 0 400 400" xmlns="http://www.w3.org/2000/svg"><g fill="#fbfafa"><path d="m37.59 393.81c-.92.31-1.52.05-2-.78-.7-1.2-1.52-2.34-2.47-3.78v4.59c-.55.03-.95.05-1.41.07-.03-.37-.06-.64-.06-.91 0-1.91 0-3.81 0-5.7 1.13-.41 1.77-.03 2.29.91.62 1.11 1.38 2.14 2.31 3.19v-4.2h1.35v6.61z"/><path d="m12.94 393.88v-6.75c1.9.19 3.93-.54 5.37 1.29.8 1.01.78 2.88.03 3.97-1.37 1.97-3.4 1.51-5.4 1.49m1.45-1.22c2.04.12 2.92-.58 2.89-2.21-.03-1.51-.98-2.19-2.89-2z"/><path d="m11.81 393.87h-5.49c.68-2.18 2.47-3.48 3.51-5.45h-3.08v-1.21h5.29c-.71 2.13-2.44 3.48-3.47 5.51.86 0 1.63.04 2.39-.01.79-.05 1.14.21.85 1.16"/><path d="m39.33 393.86v-6.61h3.7v1.07h-2.22v1.52c.68.04 1.34.09 2.07.13v1.07c-.72.05-1.38.09-2.1.14v1.48h2.4v1.19h-3.85z"/><path d="m27.71 388.56c-1.15-.3-2.46-.61-3.1.64-.37.73-.41 1.93-.06 2.67.63 1.35 1.99.93 3.17.68.35.94-.01 1.32-.93 1.46-1.62.25-3.05-.27-3.76-1.48-.73-1.24-.6-3.03.31-4.17.88-1.11 2.71-1.7 4-1.16.32.13.44.74.65 1.12-.1.08-.19.16-.28.24"/><path d="m49.15 387.24v1.07c-.59.02-1.17.05-1.87.08v5.44h-1.48v-5.44h-1.85c-.05-.4-.08-.73-.13-1.15z"/><path d="m20.06 387.21h1.33v6.62h-1.33z"/><path d="m30.68 393.25c-.49.38-.8.79-1.05.76-.32-.05-.6-.45-.9-.7.26-.24.51-.64.8-.67.29-.04.62.3 1.15.61"/></g><path d="m179.73 165.93c.28-4.01.53-7.65.8-11.54-7.8-.61-15.26-1.2-22.72-1.78-6.92-.53-13.88-.69-20.74-1.65-16.43-2.28-27.81-11.02-32.79-27.19-4.17-13.52-4.92-27.21-1.9-41.1.72-3.31 2.98-4.08 5.71-4.67 2.98-.65 3.72 1.36 4.68 3.51 3.63 8.13 2.51 16.59 2.32 25.09-.11 5.05.56 10.3 1.98 15.15 2.48 8.51 9.74 12.39 17.5 14.6 6.28 1.79 12.92 2.7 19.45 3.1 8.43.51 16.92.12 25.56.12 0-6.5 0-13.05 0-19.85-9.17-1.96-18.27-4.31-27.51-5.74-6.76-1.04-10.77-4.99-13.96-10.31-5.42-9.05-6.81-19.17-6.74-29.41.05-7.66 1.32-15.3 1.93-22.96.29-3.6 2.9-2.47 4.95-2.73 2.39-.31 3.11.89 3.36 3 1.23 10.21 2.49 20.41 3.87 30.6.43 3.2 1.27 6.34 1.96 9.5 1.72 7.93 7.28 11.49 14.75 12.48 4.53.6 9.15.48 13.71.92 2.54.25 3.52-.9 3.62-3.12.31-6.81 1.08-13.64.7-20.41-.66-12.07-2.47-24-6.2-35.59-.87-2.69-2.43-4.02-4.93-4.82-9.03-2.89-18.14-2.09-27.23-.52-10.68 1.85-21.32 3.99-32.03 5.68-3.24.51-6.67.15-9.97-.18-2.6-.26-4.01-2.25-3.72-4.75.3-2.5.12-5.53 3.78-6.23 15.9-3.07 31.72-6.64 47.71-9.14 7.54-1.18 15.4-.55 23.11-.41 7.4.14 12.34 4.14 15.87 10.55 5.28 9.57 6.09 20.01 6.5 30.53.44 11.29.66 22.59.79 33.89.03 2.95 1.21 4.55 4.01 4.59 3.1.04 6.24-.08 9.29-.59 3.96-.66 7.81-1.98 11.78-2.62 3.29-.53 5-2.44 6.36-5.2 3.96-8.02 4.88-16.63 5.44-25.39.32-4.98 1.01-9.99 2.16-14.85.87-3.69 3.36-6.51 8.19-7.87 1.13 4.23 2.69 8.29 3.24 12.48 1.8 13.84-.42 27.18-5.82 40.02-3.37 8-9.93 12.46-17.87 14.39-7.1 1.73-14.52 2.19-21.8 3.16-1.19.16-2.42.02-3.87.02v20.13c7.39 2.03 14.9 2.12 22.27.85 10.44-1.81 20.77-4.25 31.1-6.63 1.58-.36 3.19-1.62 4.27-2.89 4.93-5.78 6.95-12.6 6.89-20.17-.05-6.15-.2-12.34.38-18.45.34-3.56 1.59-7.22 3.28-10.38.83-1.56 3.52-2.64 5.5-2.87.99-.12 2.9 1.96 3.3 3.36 1.29 4.47 2.82 9.07 2.9 13.64.23 12.15-1.75 24.08-5.8 35.57-.85 2.4-2.54 4.67-4.33 6.54-9.34 9.8-21.41 13.42-34.43 14.51-11.14.93-22.3 1.6-33.45 2.4-.54.04-1.08.11-1.87.2v11.17c7.78.68 15.61 1.64 23.48 1.98 9.25.41 18.55-.05 27.79.51 6.56.4 12.57 3.01 17.75 7.25 8.01 6.56 9.75 15.69 9.23 25.13-.48 8.67-1.86 17.35-3.62 25.87-3.21 15.52-3.23 31.12-2.21 46.78.51 7.92 1.24 15.85 2.46 23.69 1.49 9.5 5.72 18.11 10.51 26.32 4.45 7.62 9.59 14.84 14.25 22.34 4.63 7.45 8.29 15.33 9.67 24.11.55 3.52-1.96 6.29-5.39 5.31-2.35-.68-4.87-1.95-6.52-3.7-11.73-12.47-19.93-27.17-26.39-42.91-8.13-19.82-13.88-40.27-13.35-61.86.29-11.93 2.11-23.83 3.38-35.72 1.09-10.23 2.67-20.42 3.52-30.67.9-10.84-2.55-14.84-15.05-18.53-2.76-.81-5.74-1.21-8.62-1.21-16.56-.04-33.13.07-49.69.19-9.85.07-19.69.18-29.53.4-14.31.33-28.62.86-42.93 1.12-5.13.09-10.3-.08-15.39-.67-4.9-.57-7.44-3.35-7.81-7.4-.24-2.54.36-4.3 3.36-4.61 10.1-1.05 20.17-2.87 30.29-3.2 17.33-.56 34.7-.22 52.05-.26 1.06-.01 2.15 0 3.47 0z" fill="#010105"/><path d="m139.38 251.18c12.5 1.48 24.68 1.86 36.8.27 16.03-2.11 20.4-7.15 22.91-24.57.61-4.25-.01-8.71-.31-13.05-.69-9.91 1.25-19.07 7.22-27.52 5.49 3.64 7.48 9.04 7.92 14.89 1.21 16.18-1.2 31.97-7.03 47.05-2.43 6.27-8.62 9.49-14.41 12.48-6.57 3.39-13.67 4.69-21.05 4.88-9.83.25-19.66.71-29.5 1.09-.54.02-1.08.12-1.95.22 1.02 6.08 2.01 12 3.01 17.91.49 2.86 1.27 5.71 1.45 8.59.19 3.09 1.86 4.77 4.29 6.23 8.8 5.3 18.49 7.21 28.57 7.32 15.54.17 31.08-.01 46.62.2 6.48.09 12.96.7 19.41 1.35 1.79.18 3.74 1 5.16 2.12 4.01 3.17 3.57 7.31-1.13 8.93-3.62 1.24-7.57 2.08-11.38 2.09-10.94.02-21.89-.39-32.83-.79-12.95-.48-25.97-.46-38.81-1.94-7.51-.86-14.74-4.2-22.08-6.48-3.52-1.1-5.66-3.74-7.48-6.81-5.69-9.58-8.33-20.13-8.62-31.03-.59-22.59-.68-45.2-.57-67.8.02-4.81 1.7-9.62 2.72-14.41.68-3.18 3.34-1.73 5.23-2.05 1.95-.33 2.38.92 2.81 2.47 3.13 11.26 3.09 22.78 3.02 34.31-.03 7.92.01 15.85.01 24.05z" fill="#010105"/></svg>