<svg enable-background="new 0 0 400 400" viewBox="0 0 400 400" xmlns="http://www.w3.org/2000/svg"><g fill="#fbfafa"><path d="m37.59 393.81c-.92.31-1.52.05-2-.78-.7-1.2-1.52-2.34-2.47-3.78v4.59c-.55.03-.95.05-1.41.07-.03-.37-.06-.64-.06-.91 0-1.91 0-3.81 0-5.7 1.13-.41 1.77-.03 2.29.91.62 1.11 1.38 2.14 2.31 3.19v-4.2h1.35v6.61z"/><path d="m12.94 393.88v-6.75c1.9.19 3.93-.54 5.37 1.29.8 1.01.78 2.88.03 3.97-1.37 1.97-3.4 1.51-5.4 1.49m1.45-1.22c2.04.12 2.92-.58 2.89-2.21-.03-1.51-.98-2.19-2.89-2z"/><path d="m11.81 393.87h-5.49c.68-2.18 2.47-3.48 3.51-5.45h-3.08v-1.21h5.29c-.71 2.13-2.44 3.48-3.47 5.51.86 0 1.63.04 2.39-.01.79-.05 1.14.21.85 1.16"/><path d="m39.33 393.86v-6.61h3.7v1.07h-2.22v1.52c.68.04 1.34.09 2.07.13v1.07c-.72.05-1.38.09-2.1.14v1.48h2.4v1.19h-3.85z"/><path d="m27.71 388.56c-1.15-.3-2.46-.61-3.1.64-.37.73-.41 1.93-.06 2.67.63 1.35 1.99.93 3.17.68.35.94-.01 1.32-.93 1.46-1.62.25-3.05-.27-3.76-1.48-.73-1.24-.6-3.03.31-4.17.88-1.11 2.71-1.7 4-1.16.32.13.44.74.65 1.12-.1.08-.19.16-.28.24"/><path d="m49.15 387.24v1.07c-.59.02-1.17.05-1.87.08v5.44h-1.48v-5.44h-1.85c-.05-.4-.08-.73-.13-1.15z"/><path d="m20.06 387.21h1.33v6.62h-1.33z"/><path d="m30.68 393.25c-.49.38-.8.79-1.05.76-.32-.05-.6-.45-.9-.7.26-.24.51-.64.8-.67.29-.04.62.3 1.15.61"/></g><path d="m165.01 214.59c2.52 5.87 5.68 11.74 2.65 18.64-1.16 2.64.62 3.96 2.68 4.36 3.57.68 7.24.89 11.92 1.41 0-8.59.04-16.5-.08-24.4-.01-.66-1.02-1.59-1.76-1.89-1.43-.58-3-.91-4.54-1.16-10.98-1.8-17.74-8.65-21.4-18.62-4.7-12.8-5.02-25.93-2.52-39.33 1.12-5.99 5-7.82 10.1-9.11 5.88 8.51 7.09 17.91 5.31 27.84-1.15 6.41-1.79 12.69 2.69 18.24 2.9 3.59 6.67 5.79 11.32 7.24.13-.75.28-1.25.29-1.75.51-15.21.97-30.42 1.55-45.63.08-2.04-.47-3.26-2.3-4.26-3.33-1.82-6.4-4.16-9.8-5.82-3.8-1.85-5.94-4.93-6.59-8.73-.96-5.57-1.36-11.24-1.74-16.89-.3-4.56.12-9.19-.38-13.72-.85-7.65-3.6-9.59-11.19-8.39-3.18.5-5.16-.7-6.41-3.52-2.23-5.06-1.84-5.77 3.16-8.19 4.03-1.95 8.13-2.66 12.61-2.62 18.13.16 36.27 0 54.41.12 4.34.03 8.68.62 13.01 1.09 1.3.14 2.62.62 3.82 1.17 2.78 1.28 5.64 5.8 4.28 7.86-1.19 1.8-3.94 2.97-6.22 3.54-2.54.63-5.33.24-8 .35-2.92.13-4.17 1.58-4.36 4.62-.5 7.93-1.55 15.82-1.94 23.75-.39 7.89-3.3 14.74-9.53 19.17-8.08 5.76-10.38 12.77-9.34 22.37 1.1 10.2.64 20.56.88 30.85.03 1.2.17 2.39.26 3.53.44.04.55.06.66.06 7.25.17 11.15-4 12.5-10.5 1.29-6.19 1.95-12.52 2.57-18.82.43-4.32.07-8.72.55-13.03.25-2.24 1.23-4.58 2.49-6.48 3.02-4.56 5.75-4.39 7.96.5 8.37 18.52 6.17 36.49-4.08 53.45-1.99 3.29-6.7 5.75-10.65 6.89-10.4 3.01-10.51 2.64-11.17 13.31-.29 4.8-.58 9.61-.85 14.41-.02.32.07.65.16 1.36 4.37.27 8.78.54 14.1.86 0-3.82.03-7.33-.01-10.84-.02-2.24-.3-4.48-.17-6.7.22-3.79 3.26-6.7 7.05-6.71.92 0 2.35.65 2.67 1.39 1.57 3.63 3.58 7.29 4.08 11.11 1.51 11.52 2.68 23.1 3.45 34.69.86 13.03-.3 25.87-4.84 38.32-1.64 4.5-4.35 7.75-8.29 10.09-15.82 9.41-32.26 10.62-49.03 2.95-2.69-1.23-4.99-4.07-6.62-6.7-5.2-8.31-7.39-17.7-8.42-27.33-2-18.7-1.45-37.25 2.64-55.73 1.35-5.96 4.35-8.54 10.41-8.67zm47.64 38.43c-14.69 0-29.01-.03-43.32.09-.76.01-2.13 1.27-2.18 2.02-.62 9.37-1.23 18.75-1.44 28.13-.12 5.34 1.59 10.38 4.85 14.7.79 1.05 2.18 2.15 3.39 2.28 7.87.85 15.85 2.51 23.64 1.88 11.78-.95 14.2-3.77 15.87-13.91 1.93-11.66-.05-23.16-.81-35.19zm-36.23-159.57c-.76 10.81-2.01 21.33 1.48 31.69 2.09 6.21 3.88 7.64 11.77 7.89 1.61.05 3.24-.69 4.88-1 2.62-.5 4-2.16 4.58-4.66 1.42-6.19 3.08-12.33 4.2-18.58.64-3.58.63-7.33.47-10.99-.05-1.14-1.47-3.12-2.37-3.19-8.22-.56-16.46-.81-25.01-1.16z" fill="#010105"/><path d="m134.29 374.38c-1.87-8.99-4.02-17.76-5.47-26.65-3.65-22.38-3.29-45.04-4.13-67.62-.35-9.39-1.01-18.77-1.31-28.16-.08-2.47-1.34-3.15-3.25-3.24-5.24-.25-10.49-.35-15.73-.52-3.79-.13-7.69.24-11.36-.51-14.12-2.89-20.18-9.27-21.14-24.92-1.24-20.07-.7-40.25-.69-60.38 0-19.13-.07-38.28.62-57.4.42-11.47 2.07-22.92 3.49-34.33 1.4-11.27 8.44-18.21 18.64-22.01 4.77-1.78 9.84-3.3 14.87-3.7 8.45-.68 16.99-.57 25.49-.43 6.06.1 9.85 3.06 10.71 7.34.45 2.26-.02 3.58-2.31 4.75-8.11 4.13-16.72 3.06-25.32 3.26-6.29.14-12.74.9-18.78 2.61s-9.45 7.22-10.42 13.02c-1.57 9.31-1.95 18.81-2.88 28.86 7.71 0 14.38-.13 21.05.04 6.72.17 13.41.67 19.41 4.31 3.35 2.03 5.88 4.58 7.31 8.37 3.71 9.8 4.77 20 4.56 30.33-1.06 53.51 2.06 106.93 3.39 160.39.31 12.49 2.55 24.92 3.34 37.41.5 7.89-.03 15.85-.16 23.78-.05 2.96-.84 5.22-4.62 4.84-1.51-.17-3.08.29-5.31.56zm-11.32-192.54c-.28-.19-.37-.31-.46-.31-11.6-.44-23.19-.9-34.79-1.19-.62-.02-1.8 1.51-1.85 2.38-.57 9.7-1.23 19.41-1.33 29.12-.06 6.26 1 12.46 3.98 18.16.96 1.84 2.22 2.8 4.41 2.87 5.25.16 10.48.66 15.73.83 4.73.15 9.47.03 14.3.03.01-17.24.01-34.63.01-51.89zm.83-16.28c-.54-11.95-.9-23.09-1.63-34.19-.19-2.81-1.48-5.57-2.37-8.32-.74-2.3-2.42-3.2-4.84-3.27-5.69-.17-11.38-.51-17.07-.8-3.85-.2-7.71-.43-11.55-.65v47.24c12.31-.01 24.34-.01 37.46-.01z" fill="#010105"/><path d="m259.82 71.39c4.79-.87 9.52-1.65 14.19-2.67.88-.19 1.83-1.21 2.28-2.09 2.65-5.26 3-10.91 2.65-16.68-.24-3.9-.58-7.82-.39-11.71.1-2.01.92-4.2 2.04-5.9 3.51-5.31 7.93-5.01 10.48.68 1.18 2.62 2.1 5.45 2.59 8.28 1.93 11.25.9 22.29-3.04 33.01-.47 1.29-1.34 2.63-2.41 3.46-6.28 4.89-12.92 8.88-21.45 7.65-2.95-.43-5.06 1.34-5.99 3.92-1.13 3.11-1.7 6.42-2.69 10.32 3.46.41 6.38.98 9.31 1.05 6.49.15 12.99-.06 19.48.09 4.74.11 8.75 1.73 10.83 6.49.87 1.99.58 3.16-1.6 4.16-6.34 2.91-12.9 3.14-19.71 2.6-4.2-.33-8.46.07-12.69.21-2.14.07-3.35 1.38-3.42 3.42-.11 3.11-.41 6.3.15 9.31 1.66 8.99 3.71 17.9 5.6 26.85.33.03.66.06.99.1 2.07-3.87 3.76-8.02 6.3-11.56 4.16-5.79 8.58-11.46 13.49-16.61 2.11-2.21 5.72-2.99 8.68-4.44 3.13 4.99 3.19 9.18.61 13.61-6.78 11.68-13.4 23.46-20.18 35.15-1.04 1.79-.81 3.08.05 4.87 4.98 10.35 12.44 18.9 20.33 26.94 4.48 4.56 10.31 7.83 15.61 11.56 4.66 3.28 8.81 6.92 10.64 12.56 1.17 3.63.74 4.5-2.9 5.51-3.81 1.06-7.21.08-10.53-1.96-8.16-5.02-15.43-10.99-21.69-18.3-5.59-6.52-11.65-12.63-17.98-19.43-1.24 7.18-2.29 13.73-3.51 20.25-3.11 16.65-5.72 33.43-4.03 50.36 1.4 14.1 4.02 28.08 6.28 42.09 3.31 20.55 8.3 40.72 13.92 60.74.21.75.37 1.53.44 2.3.66 7.07-2.45 9.6-9.24 7.37-1.01-.33-2.29-1.24-2.58-2.15-4.52-14.5-9.98-28.83-13.04-43.65-4.19-20.34-6.96-41.01-9.54-61.63-1.82-14.58-.45-29.26 1.1-43.88 1.68-15.93 4.04-31.7 8.84-47.04.36-1.16.08-2.66-.29-3.88-2.83-9.3-5.52-18.65-8.71-27.83-2.77-7.99-2.85-16.27-3.39-24.49-.25-3.77-1.91-5.68-5.26-6.08-3.3-.4-6.67-.32-10-.26-3.8.07-6.17-1.32-6.98-4.39-.99-3.74-.41-5.18 3.33-6.24 3.2-.91 6.55-1.34 9.86-1.81 5.14-.73 6.65-2.16 7.57-7.28 2.13-11.81 1.37-23.63.37-35.47-.88-10.45.25-20.57 5.32-29.96 2.14-3.96 4.32-4.53 7.34-1.13 1.93 2.18 3.59 5.42 3.67 8.23.14 5.42-1.12 10.85-1.45 16.3-.35 5.77-.3 11.56-.37 17.34.02.49.41.99.72 1.74z" fill="#010105"/><path d="m190.35 46.56c7.6 0 15.22-.28 22.8.16 2.5.14 5.42 1.59 7.23 3.37 3.27 3.22 2.09 6.88-2.21 8.42-10.11 3.62-20.63 3.83-31.13 3.16-8.33-.54-16.61-2-24.92-2.91-2.42-.26-3-1.74-2.93-3.63.08-2.17-1.9-4.7 1.5-6.38 2.76-1.37 5.39-2.33 8.55-2.25 7.02.18 14.07.06 21.11.06z" fill="#010105"/><path d="m188.91 269.24c4.01.26 8.04.37 12.03.87 1.7.21 3.52.92 4.91 1.92 4.47 3.2 3.86 8.41-1.12 10.47-8.46 3.51-17.1 2.53-25.75.89-.55-.1-1.08-.3-1.62-.43-5.88-1.41-6.61-2.4-6.19-8.39.13-1.8 4.4-4.71 7.66-4.89 3.35-.18 6.71-.04 10.07-.04 0-.14.01-.27.01-.4z" fill="#010105"/></svg>