<svg enable-background="new 0 0 400 400" viewBox="0 0 400 400" xmlns="http://www.w3.org/2000/svg"><path d="m135.41 213.74c-9.42 3.43-18.18 6.77-27.06 9.78-4.52 1.53-9.18 3.01-13.88 3.5-5.94.62-9.04-4.19-6.71-9.75.39-.93 1.67-1.66 2.7-2.12 18.68-8.31 37.43-16.49 56.07-24.91 3.62-1.64 7.08-3.88 10.16-6.41 1.97-1.61 3.57-4.06 4.5-6.45 1.78-4.62.49-7.41-3.76-9.93-3.55-2.1-7.1-4.2-10.66-6.3-13.08 14.2-29.49 22.58-47.2 28.73-6.82 2.37-13.91 3.49-21.13 2.09-1.39-.27-3.86.08-3.51-2.56.33-2.49-1.65-5.78 2.28-7.17 9.57-3.37 19.04-7.08 28.74-10.07 8.09-2.49 15.92-5.22 22.43-10.86 3.6-3.13 6.56-6.58 7.87-11.37 1.08-3.97 2.73-7.78 4.33-12.23-1.68-.17-3.05-.42-4.41-.42-11.53-.03-23.05.13-34.58-.1-3.5-.07-7.09-.86-10.4-2.01-1.79-.62-3.51-2.46-4.49-4.19-2.41-4.28-1.06-7.22 3.68-8.04 4.83-.84 9.73-1.6 14.62-1.7 11.74-.24 23.49-.08 35.59-.08.49-5.2.95-10.14 1.47-15.67-4.52-.43-8.82-.86-13.12-1.22-1.56-.13-3.14-.01-4.7-.16-8.29-.79-14.61-4.46-16.94-12.87-1.42-5.14-2.69-10.47-2.91-15.76-.57-13.29-.57-26.6-.64-39.9-.01-1.71.51-3.64 1.41-5.09 1.13-1.83 2.79-4.48 4.42-4.63 3.12-.29 6.17 1.54 7.5 4.68.79 1.87.9 4.1.97 6.18.11 3-.35 6.05-.07 9.03.35 3.74 1.76 4.77 5.48 4.77 18.02.01 36.05-.03 54.07.04 2.89.01 5.82.25 8.65.81 1.65.33 3.46 1.18 4.64 2.35 3.46 3.43 2.82 7.13-1.46 9.25-4.95 2.45-10.27 2.85-15.71 2.61-4.69-.21-9.39-.2-14.08-.26-1.79-.02-2.84.55-2.9 2.71-.49 17.11-1.09 34.22-1.65 51.34-.01.21.12.42.35 1.17 4.11.2 8.42.46 12.73.61 6.48.23 12.98.11 19.43.66 4.4.38 6.96 3.05 7.53 6.53.39 2.42-.14 4.19-2.68 5.4-7.37 3.52-15.21 3.23-23.03 3.3-5.13.05-10.26.01-14.94.01-.56.85-.75 1.02-.79 1.22-1.47 7.58-1.39 7.47 5.08 11.86 3.97 2.69 7.71 5.73 11.48 8.7 6.43 5.08 7.23 11.89 5.98 19.41-.75 4.52-2.66 7.92-6.53 10.71-6.62 4.76-12.89 10.04-19.16 15.27-1.1.92-2.07 2.64-2.14 4.05-.44 8.16-.44 16.34-.93 24.49-.19 3.15.72 4.66 3.68 5.92 12.48 5.33 22.19 13.85 27.84 26.35 4.64 10.26 7.27 21.18 8.16 32.38.98 12.26 1.57 24.56 1.73 36.86.06 4.33-1.53 8.72-2.63 13.02-.24.95-1.45 1.94-2.45 2.35-4.26 1.73-4.81 1.46-6.98-2.64-3.25-6.12-3.11-12.77-2.71-19.35 1.01-16.58-.74-32.85-5.06-48.84-2.61-9.65-7.51-17.9-15.66-23.97-.9-.67-1.84-1.28-2.78-1.87-.55-.34-1.15-.6-2.07-1.07-.09 1.01-.2 1.72-.21 2.44-.32 28.65-.68 57.3-.88 85.95-.05 6.48.63 12.96.72 19.44.07 4.63-2.08 7.42-5.89 8.8-2.31.84-4.08.54-4.62-2.03-.91-4.34-2.21-8.73-2.25-13.1-.19-20.37.1-40.74.01-61.11-.05-11.64-.5-23.27-.79-34.9-.03-1.32-.18-2.65-.29-4.27-3.03.72-5.13 1.91-6.71 4.56-7.9 13.34-11.96 27.84-13.63 43.14-.64 5.89-1.92 11.71-2.4 17.61-.62 7.56-.77 15.16-1.05 22.74-.2 5.39-1.75 7.97-5.6 9.27-2.37.8-3.95.28-5.28-1.95-3.91-6.58-3.43-13.74-3.03-20.9.34-6.03 1.05-12.04 1.2-18.07.5-19.92 5.98-38.59 14.38-56.44 1.2-2.54 4.38-4.33 6.95-6 4.03-2.61 8.36-4.75 12.46-7.25.92-.56 1.97-1.71 2.06-2.67.71-7.6 1.19-15.18 1.79-23.43zm-16.45-148.07c-1 6.68-1.6 13.43 1.16 19.97.45 1.06 1.61 2.46 2.58 2.57 6.3.75 12.63 1.19 19.07 1.75 0-8.17 0-16.03 0-24.29-7.71 0-15.15 0-22.81 0z" fill="#010101"/><path d="m239.42 121.16c0-8.1 0-15.1 0-22.95-7.06 0-13.97.03-20.87-.02-2-.02-4.04-.09-5.99-.49-5.85-1.2-7.78-4.05-7.05-10.09 6.35-3.2 13.1-3.09 19.98-2.59 3.43.25 6.9-.03 10.35-.14 2.29-.07 3.22-1.18 3.22-3.61.03-10.74.23-21.47.41-32.21.09-5.43 1.88-10.27 5.38-14.83 4.25 2.12 7 5.74 7.24 10.11.36 6.51-.48 13.08-.73 19.63-.2 5.46-.36 10.92-.37 16.39-.01 2.61 1.18 4.14 4.12 4.66 8.69 1.52 17.33 3.36 25.97 5.13 11.3 2.31 17.11 12.65 16.93 21.33-.06 3.12.57 6.24.65 9.37.23 8.7 5.22 14.78 11.2 20.19 5.31 4.82 8.92 10.34 8.76 17.72-.04 1.79.91 4.16-1.94 5.06-5.79 1.82-6.91 1.65-9.16-1.78-3.19-4.85-6.37-9.71-9.84-14.99-9.86 16.91-25.24 22.76-44.03 22.4-.57 7.14-1.18 13.89-1.54 20.65-.03.59 1.4 1.47 2.31 1.86 4.51 1.93 9.22 3.46 13.59 5.66 8.84 4.46 12.1 13.12 15.19 21.67 5.97 16.48 7.31 33.77 8.79 51.07 1.57 18.33-1.71 36.39-2.39 54.59-.09 2.46-.43 4.92-.37 7.37.06 2.47-.79 3.71-3.36 3.88-1.65.11-3.27.66-5.14 1.06-3.05-4.65-4.06-9.86-4.15-15.25-.07-3.57.56-7.14.5-10.71-.18-11.16-.41-22.33-.86-33.49-.44-11.07-1.16-22.13-1.78-33.19-.51-9.14-2.79-17.9-6.36-26.26-2.8-6.57-8.16-10.32-15.66-12.52 0 3.71.01 6.89 0 10.08-.15 36.04-.38 72.08-.39 108.12 0 11.51.63 23.03.87 34.54.05 2.33-.08 4.75-.68 6.98-.59 2.21-1.51 4.54-2.94 6.27-3.63 4.38-6.87 3.82-8.22-1.56-1.13-4.5-1.9-9.23-1.9-13.86.01-30.22.3-60.44.43-90.65.08-18.25.01-36.49.01-54.74 0-1.22 0-2.44 0-3.97-5.77.52-10.71 1-14.22 6.76-8.26 13.54-11.74 28.24-11.95 43.78-.28 21.03-.04 42.06-.1 63.1-.01 3.46-.18 6.95-.71 10.36-.68 4.38-3.53 6.15-7.94 5.75-2.14-.19-3-1.07-3.51-3.19-2.95-12.29-4.19-24.8-3.3-37.31 1.66-23.2 3.25-46.45 6.52-69.45 1.3-9.16 4.99-18.55 13.38-25.09 5.92-4.62 11.65-8.95 19.25-9.99 2.14-.29 2.67-1.35 2.62-3.39-.13-5.25-.04-10.51-.04-16.4-4.38 0-8.57-.02-12.77 0-4.69.03-9.39.28-14.06.04-1.76-.09-4.18-.84-5.03-2.13-1.36-2.07-2.08-4.81-2.2-7.31-.04-.8 2.59-2.34 4.12-2.5 6.19-.68 12.43-.97 18.65-1.4 2.89-.2 5.8-.31 8.66-.7.72-.1 1.85-1.15 1.86-1.78.14-6.68.08-13.37.08-20.63-7.15 0-14.71.05-22.26-.02-3.34-.03-6.73 0-10.01-.53-4.18-.67-7.11-3.1-8.03-7.49-.42-2.01-.06-3.6 2.21-4.07 4.02-.82 8.04-2.08 12.09-2.24 8.7-.3 17.42-.06 26.51-.06zm13.34-22.31v23.33c10.9.58 21.57 1.15 32.2 1.71 1.36-9.49-2.91-17.39-11.09-21.09-6.55-2.96-13.47-3.91-21.11-3.95zm30.49 39.77c-10-.91-20.18-1.84-30.56-2.79v20.91c9.01-1.75 17.58-3.79 25.5-8.23 3.99-2.23 6.08-4.95 5.06-9.89z" fill="#010101"/><g fill="#fbfafa"><path d="m6.4 11.7c-1-.8-1.9-1.6-2.9-2.3l.6-.7c.9.7 1.9 1.4 2.9 2.2zm-2.1 8.3c.7-2.1 1.4-4.2 2-6.4.2.1.6.3 1 .4-.7 2.3-1.3 4.4-1.9 6.4zm3-12.8c-1.1-.9-2.1-1.7-2.9-2.4l.6-.7c1 .8 2 1.5 3 2.4zm1.4-1.3v-.9h10.2v.9c-.9 4.2-2.3 7.3-4.1 9.4 1.3 1.4 3.2 2.7 5.7 4-.2.2-.4.5-.7.9-2.5-1.4-4.4-2.7-5.7-4.2-1.4 1.5-3.5 3-6.1 4.4 0 0 0 0-.1-.1-.3-.4-.5-.7-.7-.8 2.7-1.3 4.7-2.8 6.2-4.2-1.8-2.2-3-5.3-3.7-9.4zm9.2 0h-7.1c.6 3.8 1.7 6.7 3.4 8.7 1.7-2 2.9-4.8 3.7-8.7z"/><path d="m31.6 3.6h.9v2.3h4.1v9.1h1.7v.9h-16.6v-.9h1.7v-9.1h4.1v-2.3h.9v2.3h3.1v-2.3zm-4 13.3.6.8c-1.9.9-3.8 1.9-5.8 2.8-.2-.3-.3-.6-.5-.9 2-.9 3.9-1.8 5.7-2.7zm-3.2-10.1v3.7h3.1v-3.7zm0 4.5v3.7h3.1v-3.7zm4.1-4.5v3.7h3.1v-3.7zm0 4.5v3.7h3.1v-3.7zm9.1 9.1c-2.1-1.1-4.1-2-5.8-2.7l.5-.8c2.2.9 4.1 1.8 5.8 2.6zm-1.9-13.6h-3.1v3.7h3.1zm-3.2 4.5v3.7h3.1v-3.7z"/></g></svg>