<svg enable-background="new 0 0 400 400" viewBox="0 0 400 400" xmlns="http://www.w3.org/2000/svg"><path d="m361.2 9.6.8-1c.9.7 1.9 1.4 2.9 2.3l-.9 1.1c-1-1-2-1.8-2.8-2.4zm.5 10.6c.9-2.1 1.6-4.3 2.3-6.7.4.2.8.4 1.3.6-.7 2.1-1.5 4.3-2.2 6.6zm.4-15.2.9-.9c1 .8 2 1.6 2.8 2.4l-1 1c-.9-.9-1.8-1.7-2.7-2.5zm12.5-1.2h1.2v1.4h2.7v1.1h-2.7v2.7h-1.2v-.6h-1.8v1.3h4.9v3.8h-1.2v-.5h-3.7c0 .4-.1.9-.1 1.2h5.1v1h-5.2c0 .5-.1.9-.2 1.2h6v1h-5.2c1.1 1.3 2.9 2 5.5 2.2-.4.4-.7.8-.9 1.3-2.9-.5-4.8-1.6-5.7-3.5h-.1c-.8 1.7-2.7 2.9-5.9 3.6-.2-.4-.6-.8-.9-1.1 2.8-.6 4.6-1.4 5.4-2.5h-4.8v-1h5.3c.1-.3.2-.7.2-1.2h-4.9v-1h5c0-.4 0-.8.1-1.2h-3.5v.5h-1.2v-3.8h4.9v-1.3h-1.8v.5h-1.2v-2.7h-2.7v-1h2.6v-1.4h1.2v1.4h4.7v-1.4zm-6.6 8.3h3.6c0-.4 0-.9 0-1.4h-3.6zm1.9-4.6h4.7v-1.3h-4.7zm6.6 3.2h-3.7v1.4h3.7z" fill="#fbfcfa"/><path d="m385.3 3.8h1.3v2.2h2.8v-2.2h1.3v2.2h4.1v9.1h1.7v1.3h-16.9v-1.3h1.7v-9.1h4.1v-2.2zm.4 13.1.7 1.2c-1.8.9-3.8 1.9-6 2.9-.2-.4-.5-.8-.8-1.3 2.3-1 4.3-1.9 6.1-2.8zm-3.1-6.4h2.8v-3.2h-2.8zm0 4.6h2.8v-3.3h-2.8zm4-4.6h2.8v-3.2h-2.8zm0 4.6h2.8v-3.3h-2.8zm3.7 1.9c2.1.9 4.1 1.8 6.1 2.7l-.7 1.3c-2.2-1.1-4.2-2-6.1-2.9zm3.2-9.7h-2.8v3.2h2.8zm-2.8 7.8h2.8v-3.3h-2.8z" fill="#fbfcfa"/><g fill="#010102"><path d="m104.86 93.04c7.14 3.5 14.21 6.38 20.7 10.26 15.99 9.56 29.19 22.19 38.84 38.21 1.63 2.7 2.35 6.26 2.49 9.47.17 3.95-3.26 6.1-6.89 4.5-2.35-1.03-4.73-2.61-6.34-4.57-5.39-6.56-10.07-13.74-15.72-20.06-7.56-8.46-17.6-13.68-27.45-19.01-3.13-1.7-6.33-3.28-9.62-4.99-3.49 7.7-3.82 15.77-4.2 23.79-.28 5.92-.02 11.87-.23 17.79-.09 2.47.91 3.38 3.09 4.24 17.28 6.82 32.84 16.32 45.15 30.48 5.16 5.94 8.21 13.03 9.48 20.8.74 4.54-3.08 7.87-7.5 6.28-2.18-.78-4.4-2.36-5.81-4.18-5.4-6.99-10.34-14.34-15.75-21.32-1.84-2.38-4.31-4.47-6.9-6.03-6.31-3.79-12.85-7.19-20-11.13 0 4.38-.35 8.23.06 12.01 1.8 16.47 7.91 31.82 12.66 47.53 1.52 5.03 3.34 9.97 4.72 15.03 1.45 5.31-1.92 9.46-7.42 9.21-1.22-.05-2.71-.91-3.55-1.86-6.77-7.68-10.29-17.03-12.58-26.75-7.42-31.5-11.73-63.38-9.06-95.82 1.75-21.3 8.45-41.31 17.4-60.6 7.04-7.71 14.28-15.22 24.38-18.89 2.61-.95 5.65-1.3 8.44-1.11 15.63 1.07 27.63 8.63 36.93 21.02 18.66 24.88 26.36 52.83 22.8 83.62-3.55 30.74-13.17 59.49-30.19 85.54-3.05 4.67-6.68 9-9.48 13.81-7.16 12.27-8.95 25.64-6.9 39.55 2.04 13.82 3.97 27.67 6.64 41.38 1.16 5.94 4.11 11.52 6.19 17.29 1.63 4.52 3.22 9.05 4.75 13.61.49 1.47.84 3.02 1.07 4.56.7 4.68-.1 6.8-2.77 7.69-3.36 1.13-7.35-.52-9.32-3.88-10.94-18.63-16.59-38.99-19.48-60.21-2-14.68-2.76-29.42-.77-44.17 1.26-9.34 5.06-17.77 9.74-25.86 7.38-12.77 15.58-25.14 21.91-38.41 11.12-23.3 15.63-48.27 13.99-74.04-1.19-18.72-7.63-36.09-17.39-51.99-8.41-13.7-21.36-17.78-36.62-12.62-1.11.37-2.26 1.03-3.05 1.87-7.64 8.12-13.2 17.44-16.44 27.96z"/><path d="m260.74 137.28c-9.71 15.64-25.42 23.4-39.95 32.53-3.62 2.28-4.92 4.5-4.43 8.78.74 6.54.63 13.17.91 20.47 6.21 0 12.21-.05 18.2.01 18.01.2 36.02.41 54.03.69 2.68.04 5.39.23 8.01.75 1.67.33 3.5 1.07 4.74 2.2 3.68 3.34 2.97 7.02-1.5 8.84-9.46 3.85-19.38 3.97-29.38 3.79-16.54-.29-33.09-.41-49.63-.58-.86-.01-1.73.27-3.02.48.3 2.77.33 5.46.92 8.01 1.75 7.51 3.63 14.98 5.67 22.41.41 1.48 1.51 2.99 2.71 3.98 8.19 6.8 17.86 9.19 28.32 9.75 6.21.33 12.36 1.67 18.53 2.61 11.01 1.69 18.04 8.71 23.46 17.77 6.98 11.67 9.87 24.62 11.54 37.89 1.92 15.23 3.09 30.51.86 45.83-.29 1.99-.63 3.98-1.08 5.93-1.17 5.1-4.59 6.86-9.19 4.47-1.11-.58-2-2.25-2.31-3.58-3.05-13.2-3.4-26.59-2.47-40.04.74-10.7-.55-21.14-3-31.59-4.04-17.25-20.25-25.73-33.6-25.53-8.29.12-16.52-.06-24.55-2.65-16.06-5.18-24.49-16.36-27.3-32.75-3.59-20.94-4.16-42.03-4.69-63.17-.69-27.41-1.49-54.81-2.5-82.2-.34-9.26-1.74-18.48-2.2-27.74-.43-8.63.19-17.22 4.06-25.23 1.35-2.81 6.17-3.45 8.23-1.04 2.97 3.48 4.08 7.55 4.13 12.09.34 32.67.73 65.34 1.13 98 .06 4.79 1.94 6.05 6.15 3.6 4.42-2.58 8.61-5.6 12.7-8.69 2.58-1.95 4.57-4.68 7.2-6.53 6.22-4.36 8.58-10.64 9.49-17.71.6-4.65 1.34-9.35 1.29-14.01-.17-17.45-.54-34.9-1.04-52.34-.25-8.8-.33-17.43 4.77-25.24 1.35-2.06 2.71-2.3 4.72-1.53 3.68 1.41 5.47 4.31 5.71 7.99.59 9.03 1.04 18.08 1.32 27.13.53 17.34.14 34.74 1.56 52 1.38 16.81 10.58 29.29 25.49 37.46 4.5 2.47 8.94 5.09 13.16 8.01 4.16 2.87 6.17 7.95 4.74 10.64-1.34 2.52-7.54 3.69-11.83 1.74-11.85-5.4-22.18-12.92-30.73-22.81-3.01-3.45-5.96-6.93-9.35-10.89z"/></g></svg>