<svg enable-background="new 0 0 400 400" viewBox="0 0 400 400" xmlns="http://www.w3.org/2000/svg"><path d="m361.2 9.6.8-1c.9.7 1.9 1.4 2.9 2.3l-.9 1.1c-1-1-2-1.8-2.8-2.4zm.5 10.6c.9-2.1 1.6-4.3 2.3-6.7.4.2.8.4 1.3.6-.7 2.1-1.5 4.3-2.2 6.6zm.4-15.2.9-.9c1 .8 2 1.6 2.8 2.4l-1 1c-.9-.9-1.8-1.7-2.7-2.5zm12.5-1.2h1.2v1.4h2.7v1.1h-2.7v2.7h-1.2v-.6h-1.8v1.3h4.9v3.8h-1.2v-.5h-3.7c0 .4-.1.9-.1 1.2h5.1v1h-5.2c0 .5-.1.9-.2 1.2h6v1h-5.2c1.1 1.3 2.9 2 5.5 2.2-.4.4-.7.8-.9 1.3-2.9-.5-4.8-1.6-5.7-3.5h-.1c-.8 1.7-2.7 2.9-5.9 3.6-.2-.4-.6-.8-.9-1.1 2.8-.6 4.6-1.4 5.4-2.5h-4.8v-1h5.3c.1-.3.2-.7.2-1.2h-4.9v-1h5c0-.4 0-.8.1-1.2h-3.5v.5h-1.2v-3.8h4.9v-1.3h-1.8v.5h-1.2v-2.7h-2.7v-1h2.6v-1.4h1.2v1.4h4.7v-1.4zm-6.6 8.3h3.6c0-.4 0-.9 0-1.4h-3.6zm1.9-4.6h4.7v-1.3h-4.7zm6.6 3.2h-3.7v1.4h3.7z" fill="#fbfcfa"/><path d="m385.3 3.8h1.3v2.2h2.8v-2.2h1.3v2.2h4.1v9.1h1.7v1.3h-16.9v-1.3h1.7v-9.1h4.1v-2.2zm.4 13.1.7 1.2c-1.8.9-3.8 1.9-6 2.9-.2-.4-.5-.8-.8-1.3 2.3-1 4.3-1.9 6.1-2.8zm-3.1-6.4h2.8v-3.2h-2.8zm0 4.6h2.8v-3.3h-2.8zm4-4.6h2.8v-3.2h-2.8zm0 4.6h2.8v-3.3h-2.8zm3.7 1.9c2.1.9 4.1 1.8 6.1 2.7l-.7 1.3c-2.2-1.1-4.2-2-6.1-2.9zm3.2-9.7h-2.8v3.2h2.8zm-2.8 7.8h2.8v-3.3h-2.8z" fill="#fbfcfa"/><g fill="#010102"><path d="m96.67 92.66c1.35.48 2.6.93 3.85 1.36 16.45 5.67 31.65 13.63 44.49 25.51 8.01 7.41 12.24 16.92 13.81 27.68.39 2.64-.23 3.82-2.97 4.78-3.63 1.27-5.72.53-8.08-2.45-6.52-8.25-13.51-16.13-20.12-24.31-8.84-10.94-20.3-16.44-34.51-17.33-4.27 14.7-1.39 29.61-2.03 44.28 7.11 2.67 14 5.28 20.9 7.84 12.44 4.61 21.62 13.02 27.71 24.63 3.55 6.78 6.34 13.96 9.31 21.03 1.32 3.15-.86 4.78-3.35 5.91-2.53 1.14-5.86.08-7.31-2.15-4.08-6.28-8.26-12.51-12.22-18.87-4.15-6.66-9.76-11.62-16.76-15.03-4.9-2.38-9.87-4.6-14.81-6.89-.37.17-.75.34-1.12.51.39 5.71.12 11.56 1.28 17.11 3.36 16.07 7.32 32.02 10.98 48.04.72 3.15 1.34 6.35 1.68 9.56.5 4.69-3.73 8.43-8.39 7.48-.84-.17-1.67-1.01-2.24-1.74-5.23-6.83-7.74-14.79-9.35-23.09-4.86-25.16-9.22-50.37-10.61-76.03-1.01-18.67-.42-37.18 4.9-55.2 2.55-8.66 6.02-17.04 9.08-25.55.08-.21.12-.46.27-.61 10.62-10.73 19.84-23.71 36.66-25.15 7.39-.63 14.35 1.86 20.78 5.52 10.43 5.94 16.91 15.38 22.6 25.55 5.01 8.95 6.42 18.97 9.15 28.63 5.07 17.93 6.69 36.07 4.19 54.48-4.1 30.21-14.32 58.12-32.72 82.65-12.31 16.41-15.53 34.57-12.76 54.56 2.91 20.98 9.2 40.94 16.15 60.79 1.21 3.45 2.13 7.1 2.46 10.73.41 4.45-4.2 8.34-8.61 7.67-.82-.12-1.61-1.04-2.23-1.76-6.87-7.94-10.05-17.66-12.56-27.52-3.66-14.4-6.96-28.91-10.04-43.45-3.3-15.58-1.18-30.72 4.93-45.31 3.75-8.97 7.77-17.82 11.68-26.72.31-.71.65-1.47 1.17-2.01 5.68-5.86 8.66-13.19 11.58-20.61 3.88-9.88 8.53-19.47 11.91-29.51 7.66-22.79 7.43-46.04 1.84-69.18-2.19-9.07-5.5-17.94-9.08-26.58-3.76-9.08-11.39-15.16-19.24-20.52-6.08-4.15-16.77-2.09-21.92 3.23-8.03 8.32-15.08 17.37-20.33 28.04z"/><path d="m261.21 224.7v39.17c9.64.09 19.1.13 28.56.29 6.01.1 12.06.02 18.02.67 4.19.45 7.43 2.96 8.78 7.3.72 2.32.49 4.31-2.16 5.04-3.96 1.08-8.03 2.97-11.95 2.76-25.08-1.36-50.11 1.28-75.14.76-11.67-.24-23.3-2.44-34.93-3.93-.94-.12-2.06-1.46-2.47-2.48-.69-1.74-.87-3.68-1.31-5.74 6.68-3.31 13.77-4.59 21.08-4.4 8.61.22 17.2 1.03 25.8 1.24 9.13.22 9.22.04 9.7-8.74.52-9.72.79-19.46 1.35-29.18.15-2.51-.81-3.05-3.03-3.04-11.19.06-22.38.15-33.56-.05-3.3-.06-6.67-.73-9.83-1.7-1.63-.5-3.28-2.04-4.21-3.54-2.24-3.62-.82-6.97 3.26-7.46 7.42-.89 14.88-1.56 22.35-1.94 8.24-.42 16.5-.42 25.08-.61 0-9.17.05-17.88-.09-26.58-.01-.73-1.13-1.85-1.94-2.1-3.2-.98-6.45-1.91-9.76-2.44-11.42-1.81-18.01-8.89-22.11-19.2-5.42-13.63-6.48-27.85-5.82-42.22.49-10.6 1.86-21.16 2.74-31.75.63-7.57 1.06-15.17 1.69-22.74.14-1.65.9-3.24 1.14-4.88.37-2.43 1.78-3 4.06-3.4 3.66-.64 5.2.9 6.39 4.07 2.3 6.13 1.86 12.26.88 18.52-3.52 22.57-4.55 45.18-.49 67.81.51 2.85 1.19 5.7 2.1 8.45 2.27 6.89 7.7 10.12 14.31 11.84 1.83.48 3.69.83 6.09 1.37 0-7.55-.06-14.8.01-22.05.24-24.62.57-49.24.76-73.87.06-8.28-.23-16.56-.29-24.84-.05-7.2 1.7-13.91 5.58-19.98 5.42.78 8.53 3.65 9.14 9.16.5 4.54.52 9.15.49 13.73-.12 25.97-.34 51.93-.48 77.9-.06 11.75-.01 23.51-.01 35.26v3.97c4.94-1.27 9.5-2.35 13.99-3.66.94-.27 1.79-1.26 2.42-2.11 5.35-7.26 7.66-15.66 8.46-24.43 1.86-20.18.25-40.2-2.81-60.2-.7-4.59.38-9.49.98-14.21.18-1.41 1.3-2.86 2.34-3.97 3.85-4.09 7.13-3.52 8.96 1.66.99 2.81 1.69 5.8 2 8.76 1.3 12.12 2.67 24.24 3.52 36.39 1.35 19.21.85 38.23-6.74 56.44-2.14 5.13-5.32 8.84-9.89 12.13-7 5.04-14.37 8.4-23.1 8.68v28.5c4.96.21 9.93.56 14.91.6 6.83.06 13.66-.31 20.48-.11 3.18.09 6.44.76 9.46 1.79 1.75.6 3.67 2.13 4.48 3.75 2 4.04 1.88 5.32-2.15 7.04-5.75 2.45-11.76 2.4-17.82 2.33-8.6-.11-17.21-.08-25.81-.09-1.05.01-2.15.16-3.46.26z"/></g></svg>