<svg enable-background="new 0 0 400 400" viewBox="0 0 400 400" xmlns="http://www.w3.org/2000/svg"><g fill="#010103"><path d="m265.85 280.89c-2.35-12.89-4.64-25.41-7.04-38.59-5.93.89-11.75 1.67-17.53 2.66-5.95 1.02-11.85 2.32-17.8 3.33-2.3.39-4.68.48-7.01.44-7.93-.14-11.04-3.71-10.27-12.41 5.96-.82 12.09-1.74 18.24-2.51 7.76-.96 15.61-1.4 23.28-2.8 8.95-1.64 9.77-3.51 7.68-12.47-2.01-8.59-3.68-17.27-5.91-25.8-1.23-4.73-3.17-9.29-5.1-13.8-.51-1.2-2.01-2.55-3.26-2.79-5.91-1.11-11.89-1.91-17.85-2.71-2.88-.38-5.87-.17-8.66-.84-2.41-.58-5.01-1.58-6.84-3.18-4.2-3.68-3.39-7.49 1.74-9.32 9.53-3.41 19.17-2.33 28.81-.51.11.02.21.08.32.09 11.45.73 17.12 8.18 21.09 17.85 4.18 10.15 5.69 20.88 7.34 31.59.55 3.57 1.48 6.94 4.76 9.43 6.19-7.33 9.68-15.76 11.68-24.74 4.51-20.29 5.33-40.72 1.81-61.31-.88-5.15-3.19-8.62-8.2-9.62-7.19-1.43-14.45-3.02-21.74-3.37-10.93-.52-21.91.09-32.86-.01-3.43-.03-6.89-.6-10.27-1.23-2.82-.53-4.12-2.59-3.89-5.42.22-2.61.55-5.11 4.1-5.45 4.97-.47 9.93-1.82 14.87-1.71 15.63.35 31.26 1.09 46.88 1.97 3.27.18 6.51 1.5 9.7 2.5 8.3 2.6 13.38 8.53 14.35 16.88 1.54 13.31 2.93 26.73 2.93 40.1 0 18.24-5.75 35.41-12.57 52.16-.44 1.08-1.34 2.04-2.19 2.89-4.28 4.27-8.66 8.43-12.87 12.77-.8.82-1.53 2.33-1.36 3.37 4.94 30.23 9.98 60.44 15.03 90.65 1.1 6.61 2.37 13.19 3.34 19.81.29 1.94.08 4.04-.33 5.98-.59 2.84-2.64 4.24-5.51 4.57-2.78.32-4.47-.64-5.78-3.31-4.24-8.62-5.49-17.88-6.47-27.24-.91-8.67-1.72-17.36-2.92-25.99-1.02-7.33-2.76-7.3-8.42-7.19-16.1.32-32.21.52-48.32.66-2.2.02-4.46-.36-6.6-.89-2.64-.65-4.66-2.14-4.95-5.19-.3-3.19.41-5.95 3.84-6.85 4.82-1.26 9.71-3.04 14.59-3.1 14.08-.19 28.18.36 42.27.62 1.21.05 2.41.03 3.87.03z"/><path d="m200.67 66.23c-.37-5.35-.59-10.68-1.15-15.97-.81-7.81-.46-15.37 2.96-22.64.94-2 1.94-2.38 3.86-1.62 4.94 1.97 6.94 5.93 6.93 10.84-.02 8.05-.42 16.09-.67 24.13-.02.56-.05 1.12-.04 1.68.05 4.04.65 4.65 4.68 4.65 18.58.01 37.16-.06 55.74.03 7.26.04 14.52.36 21.77.71 1.51.07 3.53.39 4.36 1.38 1.37 1.65 2.4 3.88 2.7 5.98.14.95-1.61 2.65-2.86 3.25-7.18 3.43-14.91 3.78-22.66 3.19-19.11-1.44-38.21-.42-57.32.06-15.21.38-30.43.43-45.62 1.01s-30.37 1.47-45.52 2.63c-3.41.26-6.93 1.83-9.98 3.54-4.47 2.51-6.74 6.18-6.8 11.96-.59 50.9-1.56 101.8-2.4 152.71-.3 18.46-.16 36.93-.93 55.37-.67 16.2-2.31 32.35-3.54 48.52-.29 3.79-.25 7.67-1.09 11.34-.53 2.29-1.93 5.01-3.8 6.24-3.94 2.58-7.91-.38-7.77-5.12 1.03-34.67 2.25-69.33 2.9-104 .65-34.12.86-68.25.96-102.38.05-16.55-.7-33.11-.9-49.67-.12-9.97 1.77-19.62 6.29-28.55 1.23-2.43 3.39-4.75 5.7-6.21 10.12-6.38 21.6-8.41 33.26-9.25 19.98-1.41 39.95-2.51 60.94-3.81z"/><path d="m146.66 332.17c-.14.13-.21.24-.3.27-8.13 2.29-8.58 1.95-11.24-6.27-3.21-9.94-2.5-20.16-2.19-30.29 1.76-58.94 3.65-117.87 5.59-176.8.08-2.5-.53-3.75-3-4.08-1.66-.22-3.3-.57-4.95-.85-2.31-.39-3.96-1.43-4.22-4.01-.25-2.47-.13-4.84 2.66-5.77 2.56-.86 5.23-2.01 7.85-2 7.26.04 14.54.34 21.76 1.03 15.84 1.53 22.4 8.97 26.44 25.31.45 1.83.68 3.76.73 5.65.56 20.57 1.25 41.15 1.53 61.72.44 31.33.42 62.66.94 93.99.2 12.28 1.91 24.55 1.87 36.82-.03 8.64-1.81 17.29-2.91 25.92-.42 3.31-2.73 4.81-5.87 4.78-3.08-.03-4.53-1.74-5.26-4.88-2.43-10.36-2.51-20.83-2.31-31.36.26-13.54.46-27.07.49-40.61.1-39.5.27-79.01.01-118.51-.07-9.91-1.07-19.9-2.68-29.67-1.82-11-4.57-12.95-16.94-15.32-.35 4.9-.71 9.76-1.05 14.62-.91 12.95-1.19 25.97-2.85 38.82-4.58 35.46-2.94 71.03-2.84 106.6.05 18.01-.65 36.02-1.02 54.03-.03.29-.18.61-.24.86z"/></g><path d="m377.9 391.2c-.2.3-.4.5-.6.8-.7-.6-1.4-1-2.2-1.5.2-.3.4-.5.5-.8.6.4 1.4.8 2.3 1.5zm-1.8 6.1c-.2-.2-.5-.4-.9-.6.4-.6.8-1.2 1.2-1.9s.7-1.3.9-1.9c.3.3.5.5.8.7-.7 1.3-1.4 2.6-2 3.7zm2.2-9c-.3.3-.5.5-.6.8-.6-.6-1.3-1.1-2-1.5.3-.3.5-.5.6-.7.6.5 1.3.9 2 1.4zm.3.2v-.9h2 4.5c-.3 1.3-.6 2.5-1 3.6s-.9 2.1-1.4 3c.4.5 1 1 1.6 1.4s1.2.8 1.9 1.1c-.3.2-.5.4-.8.8-.4-.3-1-.7-1.6-1.2s-1.2-1.1-1.6-1.6c-.5.6-1.1 1.1-1.7 1.6s-1.4.9-2.1 1.4c-.1-.3-.3-.5-.7-.8.6-.2 1.2-.5 1.9-1s1.4-1.1 2-1.8c-.5-.8-.9-1.6-1.2-2.5s-.6-2-.8-3.2c-.4.1-.7.1-1 .1zm2.5 2.7c.3 1 .7 1.7 1 2.2.3-.5.6-1.1 1-2s.6-1.9.9-3h-3.2-.4c.1.9.3 1.8.7 2.8z" fill="#fcfbfa"/><path d="m396.5 388.5v1.5 3.6h1.5v.9c-.4 0-1 0-1.7 0h-7.9c-.5 0-.9 0-1.2 0v-.9h1.3v-3.5c0-.7 0-1.2 0-1.6h2.4c0-.8 0-1.4 0-1.7h1c0 .3-.1.8-.1 1.7h1.5c0-.8 0-1.4 0-1.7h1c0 .3-.1.9-.1 1.7zm-8.2 9.2c-.2-.3-.5-.5-.8-.8.8-.3 1.4-.6 1.9-.9s1-.7 1.4-1.1c.3.3.6.5.9.8-1.6 1-2.8 1.6-3.4 2zm2.6-6.8v-1.6h-1.5v1.6zm0 2.7v-1.9h-1.5v1.9zm2.4-2.7v-1.6h-1.5v1.6zm0 2.7v-1.9h-1.5v1.9zm.2 2 .7-.8c.4.2.9.5 1.6.8s1.3.7 1.8 1c-.3.3-.5.5-.8.8-.4-.3-1.5-1-3.3-1.8zm2-4.7v-1.6h-1.4v1.6zm0 2.7v-1.9h-1.4v1.9z" fill="#fcfbfa"/></svg>