<svg enable-background="new 0 0 400 400" viewBox="0 0 400 400" xmlns="http://www.w3.org/2000/svg"><g fill="#fbfafa"><path d="m37.59 393.81c-.92.31-1.52.05-2-.78-.7-1.2-1.52-2.34-2.47-3.78v4.59c-.55.03-.95.05-1.41.07-.03-.37-.06-.64-.06-.91 0-1.91 0-3.81 0-5.7 1.13-.41 1.77-.03 2.29.91.62 1.11 1.38 2.14 2.31 3.19v-4.2h1.35v6.61z"/><path d="m12.94 393.88v-6.75c1.9.19 3.93-.54 5.37 1.29.8 1.01.78 2.88.03 3.97-1.37 1.97-3.4 1.51-5.4 1.49m1.45-1.22c2.04.12 2.92-.58 2.89-2.21-.03-1.51-.98-2.19-2.89-2z"/><path d="m11.81 393.87h-5.49c.68-2.18 2.47-3.48 3.51-5.45h-3.08v-1.21h5.29c-.71 2.13-2.44 3.48-3.47 5.51.86 0 1.63.04 2.39-.01.79-.05 1.14.21.85 1.16"/><path d="m39.33 393.86v-6.61h3.7v1.07h-2.22v1.52c.68.04 1.34.09 2.07.13v1.07c-.72.05-1.38.09-2.1.14v1.48h2.4v1.19h-3.85z"/><path d="m27.71 388.56c-1.15-.3-2.46-.61-3.1.64-.37.73-.41 1.93-.06 2.67.63 1.35 1.99.93 3.17.68.35.94-.01 1.32-.93 1.46-1.62.25-3.05-.27-3.76-1.48-.73-1.24-.6-3.03.31-4.17.88-1.11 2.71-1.7 4-1.16.32.13.44.74.65 1.12-.1.08-.19.16-.28.24"/><path d="m49.15 387.24v1.07c-.59.02-1.17.05-1.87.08v5.44h-1.48v-5.44h-1.85c-.05-.4-.08-.73-.13-1.15z"/><path d="m20.06 387.21h1.33v6.62h-1.33z"/><path d="m30.68 393.25c-.49.38-.8.79-1.05.76-.32-.05-.6-.45-.9-.7.26-.24.51-.64.8-.67.29-.04.62.3 1.15.61"/></g><path d="m138.47 199.61c-.82-.27-1.25-.57-1.63-.52-6.52.8-10.52-2.92-14.44-7.45-5.69-6.57-11.56-13.05-17.87-19.01-2.88-2.72-7.01-4.13-10.92-6.33-1.98 9.58-1.36 18.43.43 27.21 2.72 13.36 5.78 26.64 8.5 40 .75 3.7 1.14 7.54 1.14 11.31 0 4.29-2.74 6.68-6.95 6.27-1.29-.12-2.94-1.1-3.61-2.19-5.08-8.26-7.17-17.54-8.54-26.98-2.7-18.47-5.99-36.9-7.68-55.46-2.23-24.53-3.05-49.16 2.84-73.46 2.94-12.12 6.98-23.9 13.44-34.54 2.49-4.09 7.29-6.76 10.98-10.15 8.34-7.65 17.15-5.68 26.04-1.31 7.64 3.76 12.34 10.06 15.35 17.86 4.77 12.39 7.38 25.26 9.34 38.35 2.67 17.86 4.17 35.75 3.53 53.82-.49 13.96-3.62 27.46-6.44 41.02-1.48 7.11-2.49 14.37-4.56 21.3-2.75 9.17-5.86 18.3-9.67 27.07-6.14 14.11-9.3 28.89-11.26 43.98-1.37 10.57 1.01 20.91 2.54 31.32 2.08 14.22 6.2 27.9 10.25 41.62 1.12 3.79.72 4.89-2.91 6.37-2.81 1.14-4.95-.14-6.44-2.58-5.7-9.32-9.91-19.28-12.48-29.88-3.88-16-4.15-32.28-3.96-48.67.2-17.79 6.94-33.79 12.26-50.22 3.79-11.69 7.77-23.32 11.66-34.98.34-1.13.64-2.31 1.06-3.77zm.07-7.02c.75-5.86 1.47-10.67 1.97-15.5 1.24-11.89 3.43-23.79 3.36-35.68-.15-26.68-5.08-52.65-15.02-77.54-.36-.91-1.25-1.83-2.13-2.28-3.08-1.58-6.23-3.03-9.44-4.34-.85-.35-2.29-.39-2.94.11-5.38 4.12-10.96 7.98-13.23 15.02-1.87 5.81-4.87 11.27-6.64 17.11-1.49 4.91-1.03 5.08 3.67 7.29 9.93 4.65 20 9.07 27.84 17.1 2.18 2.23 4.67 4.3 6.26 6.91 2.78 4.57 4.98 9.49 7.41 14.27 1.56 3.07 1.69 6.18.4 9.39-1.12 2.77-2.89 3.67-5.79 2.53-4.61-1.81-7.68-5.21-10.27-9.26-3.67-5.74-7.43-11.43-11.2-17.1-.54-.81-1.26-1.78-2.1-2.08-6.17-2.21-12.4-4.27-19-6.5 0 12.3-.05 24.15.1 36 .01.85 1.24 1.96 2.16 2.47 4.78 2.65 10.15 4.51 14.37 7.83 7.89 6.22 15.15 13.24 22.62 19.99.87.79 1.43 1.96 1.99 3.04 1.75 3.41 3.44 6.87 5.61 11.22z" fill="#010105"/><path d="m270.83 110.96c-4.18-.58-7.95-1.01-11.68-1.65-4.36-.75-5.83-2.85-5.57-7.26.22-3.74 3.78-4.88 5.84-4.98 15.12-.76 30.42-2.6 45.03 3.46 9.14 3.8 13.19 11.6 14.81 20.58 2.12 11.79 1.03 23.42-4.58 34.27-.77 1.48-2.11 2.92-3.55 3.76-10.21 5.92-21.55 8.44-32.93 10.94-4.15.91-8.23 2.72-11.96 4.8-3.03 1.69-4.42 5.02-4.58 8.54-.32 7.18 1.11 13.4 7.4 18.28 9.63 7.48 18.82 15.54 27.91 23.67 2.08 1.86 3.72 4.88 4.31 7.63 1.5 6.96 3.12 14.06 3.24 21.12.66 38.6.86 77.21 1.29 115.81.04 3.24-1.78 4.76-4.44 5.4-2.95.71-5.72-1.24-6.41-4.16-2.29-9.57-1.99-19.3-1.98-29.04.03-25.51.04-51.02-.47-76.52-.16-7.88-1.84-15.75-3.18-23.57-1.16-6.74-5.1-11.73-10.83-15.47-4.96-3.24-9.85-6.61-14.6-10.15-15.18-11.32-19.21-30.71-9.65-46.96 1.42-2.42 3.94-4.21 6.03-6.21 3.39-3.24 8.2-5.83 9.92-9.78 1.77-4.08.6-9.44.62-14.25.04-9.28.01-18.56.01-28.26zm14.85 43.1c4.1-.56 7.96-.77 11.66-1.66 4.11-.99 6.96-3.44 7.93-8.03 1.16-5.54 1.87-10.99.81-16.61-1.94-10.38-10.23-17.13-20.4-16.41z" fill="#010105"/><path d="m218.04 205.03c0-8.08-.07-15.66.03-23.23.04-2.99.05-6.1.87-8.93.52-1.81 2.2-3.69 3.87-4.69 3.47-2.1 5.72-1.4 6.99 2.42 1.42 4.29 2.78 8.82 2.88 13.28.32 13.85.02 27.72-.01 41.57-.03 14.26-1.24 28.36-5.69 42.01-.4 1.23-.99 2.52-1.85 3.45-11.89 12.65-30.13 14.87-44.65 5.26-4.4-2.91-6.29-7.73-7.44-12.72-4.4-19.19-5.94-38.68-5.28-58.3.35-10.47 1.73-20.92 2.68-31.37.08-.89.28-1.77.53-2.63 1.07-3.68 3.93-5.02 7.38-3.49 4.09 1.81 5.93 5.12 5.59 9.4-.35 4.44-1.33 8.84-1.75 13.28-.33 3.44-.38 6.92-.19 10.37.05.94 1.34 2.56 2.15 2.61 11.14.69 22.29 1.16 33.89 1.71zm-35.6 13.74c0 4.64-.05 8.75.01 12.87.12 7.91-.31 15.86 2.15 23.58 3.35 10.55 6.34 12.94 17.27 13.37.11 0 .22.05.33.05 5.76.09 10.63-3.16 11.83-8.78 1.84-8.61 3.4-17.29 4.55-26.02.5-3.79-.09-7.8-.68-11.63-.19-1.27-1.91-3.26-2.96-3.28-10.48-.26-20.97-.16-32.5-.16z" fill="#010105"/><path d="m200.24 24.96c5.73 1.28 8.39 5.25 9.08 10.44.78 5.86.9 11.81 1.37 17.71.22 2.78.72 5.55.89 8.33.42 6.86 5.38 10.3 10.39 13.44 3.95 2.48 8.35 4.23 12.57 6.27 3.69 1.78 7.12 3.85 8.63 7.96 1.36 3.69.58 5.3-3.06 6.62-4.24 1.53-8.38.82-12.44-.67-7-2.58-13.49-5.96-18.49-11.72-2.18-2.52-4.5-4.93-6.91-7.55-11.13 13.99-23.65 23.05-41.99 18.47-.74-6.21 1.17-9.98 7.04-12.13 5.95-2.18 11.4-5.68 17.27-8.13 4-1.67 6-4.62 7.6-8.32 2.75-6.37 2.64-13.07 2.72-19.78.09-7.38 1.79-14.34 5.33-20.94z" fill="#010105"/><path d="m200.19 100.19c6.09 1.56 8.98 4.88 9.9 11.17.66 4.53 1.38 9.07 1.78 13.63.7 7.77 5.16 12.91 11.48 16.68 3.54 2.11 7.33 3.78 11.02 5.65 4.05 2.05 7.77 4.42 9.54 8.95.69 1.77.5 2.81-1.34 3.74-4.38 2.22-8.9 2.98-13.63 1.59-6.51-1.91-12.54-4.7-17.17-9.93-2.44-2.76-5.08-5.34-7.81-8.19-2.72 2.5-5.02 4.89-7.6 6.95-6.29 5.03-12.62 10.15-20.84 11.65-2.57.47-5.36.36-7.95-.1-6.71-1.18-7.74-3.13-5.35-9.5.3-.81 1.45-1.54 2.36-1.85 4.33-1.47 8.77-2.65 13.07-4.19 11.77-4.21 18.35-13.49 18.33-26.05-.01-6.45.49-12.73 3.38-18.61.25-.5.51-.98.83-1.59z" fill="#010105"/></svg>