<svg enable-background="new 0 0 400 400" viewBox="0 0 400 400" xmlns="http://www.w3.org/2000/svg"><path d="m361.2 9.6.8-1c.9.7 1.9 1.4 2.9 2.3l-.9 1.1c-1-1-2-1.8-2.8-2.4zm.5 10.6c.9-2.1 1.6-4.3 2.3-6.7.4.2.8.4 1.3.6-.7 2.1-1.5 4.3-2.2 6.6zm.4-15.2.9-.9c1 .8 2 1.6 2.8 2.4l-1 1c-.9-.9-1.8-1.7-2.7-2.5zm12.5-1.2h1.2v1.4h2.7v1.1h-2.7v2.7h-1.2v-.6h-1.8v1.3h4.9v3.8h-1.2v-.5h-3.7c0 .4-.1.9-.1 1.2h5.1v1h-5.2c0 .5-.1.9-.2 1.2h6v1h-5.2c1.1 1.3 2.9 2 5.5 2.2-.4.4-.7.8-.9 1.3-2.9-.5-4.8-1.6-5.7-3.5h-.1c-.8 1.7-2.7 2.9-5.9 3.6-.2-.4-.6-.8-.9-1.1 2.8-.6 4.6-1.4 5.4-2.5h-4.8v-1h5.3c.1-.3.2-.7.2-1.2h-4.9v-1h5c0-.4 0-.8.1-1.2h-3.5v.5h-1.2v-3.8h4.9v-1.3h-1.8v.5h-1.2v-2.7h-2.7v-1h2.6v-1.4h1.2v1.4h4.7v-1.4zm-6.6 8.3h3.6c0-.4 0-.9 0-1.4h-3.6zm1.9-4.6h4.7v-1.3h-4.7zm6.6 3.2h-3.7v1.4h3.7z" fill="#fbfcfa"/><path d="m385.3 3.8h1.3v2.2h2.8v-2.2h1.3v2.2h4.1v9.1h1.7v1.3h-16.9v-1.3h1.7v-9.1h4.1v-2.2zm.4 13.1.7 1.2c-1.8.9-3.8 1.9-6 2.9-.2-.4-.5-.8-.8-1.3 2.3-1 4.3-1.9 6.1-2.8zm-3.1-6.4h2.8v-3.2h-2.8zm0 4.6h2.8v-3.3h-2.8zm4-4.6h2.8v-3.2h-2.8zm0 4.6h2.8v-3.3h-2.8zm3.7 1.9c2.1.9 4.1 1.8 6.1 2.7l-.7 1.3c-2.2-1.1-4.2-2-6.1-2.9zm3.2-9.7h-2.8v3.2h2.8zm-2.8 7.8h2.8v-3.3h-2.8z" fill="#fbfcfa"/><g fill="#010102"><path d="m118.2 163.39c10.38-3.73 20.58-7.24 30.64-11.08 4.16-1.59 7.86-4.47 12.08-5.74 9.95-3 15.12-10.53 19.47-19.04 3.62-7.07 5.4-14.66 5.96-22.54 1.26-17.63 2.53-35.26 3.65-52.9.25-3.89-.67-7.9-.09-11.71.7-4.66 2.31-9.2 3.77-13.71.22-.69 1.87-1.43 2.75-1.31 5.25.73 8.51 3.84 8.72 9.42.31 8.24.18 16.53-.23 24.77-.82 16.65-1.96 33.28-2.96 49.93-.05.89-.27 1.89.03 2.67 4.35 11.38 8.09 23.24 17.71 31.49 4.15 3.56 9.07 6.88 14.21 8.53 14.12 4.53 28.55 8.12 43.43 12.24 0-1.88 0-3.17 0-4.46 0-19.92-.02-39.84.02-59.77.01-3.01-.08-6.13.67-9 .6-2.29 1.93-4.93 3.77-6.23 3.96-2.79 5.9-1.94 7.86 2.46 4.55 10.22 5.76 21.05 5.83 32.1.2 33.79.52 67.57.63 101.36.08 23.04.33 46.09-.35 69.11-.37 12.59-1.93 25.24-4.12 37.65-1.3 7.37-4.98 14.31-7.39 21.5-1 3-2.69 5.15-5.22 7.05-13.79 10.36-29.51 15.63-46.35 18.03-19.31 2.74-38.62 1.55-57.91-.28-16.84-1.59-33.45-4.49-49.59-9.69-1.04-.33-2.25-.68-2.95-1.43-9.47-10.12-17.38-21.16-18.95-35.44-1.38-12.56-2.42-25.16-3.45-37.76-.41-5.01-.55-10.05-.56-15.07-.01-47.79.02-95.58.08-143.37.02-14.45.86-28.81 4.4-42.94 1.15-4.58 4.94-3.39 7.66-4.39.59-.22 2.41 1.76 3.06 3.03 4.98 9.68 4.76 20.05 3.84 30.51-1.28 14.51-1.87 29.02-.49 43.56.07.55.17 1.09.37 2.45zm76.05-23.67c-1.12 1.47-2.1 2.82-3.14 4.13-8.97 11.3-20 19.79-33.83 24.29-12.64 4.11-25.29 8.19-38.02 12-2.87.86-3.5 2.15-3.47 4.88.31 24.95.45 49.89.74 74.84.17 14.64.1 29.31.93 43.92.45 7.98 1.91 16.05 4.06 23.75 2.79 10 7.12 19.57 17.82 23.64 5.81 2.21 11.95 3.71 18.06 4.92 14.9 2.94 30.01 2.88 45.12 2.38 16.69-.56 33.23-2.37 49.46-6.33 8.45-2.06 14.77-6.88 18.33-15.21 5.47-12.79 8.96-26.08 9.4-39.92.56-17.65.39-35.34.33-53-.06-19.69-.4-39.38-.48-59.07-.01-2.66-.57-3.92-3.43-4.5-9.85-2-19.6-4.51-29.46-6.47-15.28-3.04-28.99-9.12-40.09-20.23-4.31-4.31-8.09-9.17-12.33-14.02z"/><path d="m196.29 209.03c14.78 0 29.55-.03 44.33.03 2.34.01 4.7.24 7.01.63 1.5.26 3.51.59 4.25 1.63 1.68 2.35 3.12 5.07 3.74 7.84.17.74-2.86 2.55-4.65 3.3-8.59 3.61-17.68 4.96-26.9 4.75-17.55-.4-35.09-1.24-52.64-1.72-5.69-.16-11.44.69-17.08.17-4.45-.41-8.83-2.04-13.13-3.46-3.32-1.1-1.82-4.19-1.83-6.41-.01-1.22.92-2.89 1.95-3.6 3.76-2.6 7.97-3.45 12.65-3.37 14.1.25 28.21.09 42.31.09-.01.04-.01.08-.01.12z"/><path d="m198.53 280.78c13.75 0 27.5-.08 41.24.06 3.32.03 6.66.65 9.95 1.25 3.56.65 5.12 3.09 5.59 6.6.48 3.57-1.38 5.21-4.28 6.55-5.73 2.63-11.76 2.07-17.78 2.15-13.51.18-27.01.41-40.52.83-13.78.42-27.45 0-40.97-3.14-3.31-.77-4.43-2.17-4.81-5.4-.39-3.37-.15-5.96 3.45-7.11 2.37-.76 4.79-1.88 7.21-1.92 13.64-.19 27.28-.09 40.92-.09z"/></g></svg>