<svg enable-background="new 0 0 400 400" viewBox="0 0 400 400" xmlns="http://www.w3.org/2000/svg"><g fill="#fbfafa"><path d="m37.59 393.81c-.92.31-1.52.05-2-.78-.7-1.2-1.52-2.34-2.47-3.78v4.59c-.55.03-.95.05-1.41.07-.03-.37-.06-.64-.06-.91 0-1.91 0-3.81 0-5.7 1.13-.41 1.77-.03 2.29.91.62 1.11 1.38 2.14 2.31 3.19v-4.2h1.35v6.61z"/><path d="m12.94 393.88v-6.75c1.9.19 3.93-.54 5.37 1.29.8 1.01.78 2.88.03 3.97-1.37 1.97-3.4 1.51-5.4 1.49m1.45-1.22c2.04.12 2.92-.58 2.89-2.21-.03-1.51-.98-2.19-2.89-2z"/><path d="m11.81 393.87h-5.49c.68-2.18 2.47-3.48 3.51-5.45h-3.08v-1.21h5.29c-.71 2.13-2.44 3.48-3.47 5.51.86 0 1.63.04 2.39-.01.79-.05 1.14.21.85 1.16"/><path d="m39.33 393.86v-6.61h3.7v1.07h-2.22v1.52c.68.04 1.34.09 2.07.13v1.07c-.72.05-1.38.09-2.1.14v1.48h2.4v1.19h-3.85z"/><path d="m27.71 388.56c-1.15-.3-2.46-.61-3.1.64-.37.73-.41 1.93-.06 2.67.63 1.35 1.99.93 3.17.68.35.94-.01 1.32-.93 1.46-1.62.25-3.05-.27-3.76-1.48-.73-1.24-.6-3.03.31-4.17.88-1.11 2.71-1.7 4-1.16.32.13.44.74.65 1.12-.1.08-.19.16-.28.24"/><path d="m49.15 387.24v1.07c-.59.02-1.17.05-1.87.08v5.44h-1.48v-5.44h-1.85c-.05-.4-.08-.73-.13-1.15z"/><path d="m20.06 387.21h1.33v6.62h-1.33z"/><path d="m30.68 393.25c-.49.38-.8.79-1.05.76-.32-.05-.6-.45-.9-.7.26-.24.51-.64.8-.67.29-.04.62.3 1.15.61"/></g><path d="m140.4 231.2c6.78-2.77 10.95-.03 14.92 5.22 3.93 5.2 8.64 9.99 13.74 14.04 2.81 2.23 7.13 2.57 11.34 3.95.47-7.89 1.17-14.79 1.2-21.69.02-4.89 1.74-8.96 5.13-11.93 6.05-5.28 12.52-10.08 18.95-14.9 2.11-1.58 6.72-.46 8.27 1.55 1.51 1.96.98 5.79-1.19 7.98-2.76 2.78-5.52 5.57-8.38 8.24-5.06 4.72-8.12 10.35-8.23 17.38-.06 3.91-.01 7.81-.01 11.75 5.27 2.17 13.1.47 17.12-3.92 3.93-4.3 7.69-8.74 11.58-13.07 3.73-4.15 8.3-6.34 13.96-5.81 2.51 5.26 1.59 10.85-2.8 15.03-6.65 6.33-13.4 12.55-20.28 18.64-1.21 1.07-3.17 1.51-4.86 1.79-4.62.77-9.29 1.31-14.22 1.97-.25 8.28-.55 16.41-.63 24.54-.01.6 1.56 1.64 2.49 1.77 6.67.9 12.45-1.94 17.47-5.61 5.19-3.79 9.52-8.74 14.37-13.02 2.57-2.27 5.33-4.41 8.27-6.14 1.43-.84 4.68-1.33 5.06-.71 1.26 2.05 2.35 4.76 2.07 7.04-.31 2.49-1.8 5.16-3.52 7.08-6.35 7.08-12.95 13.88-21.16 18.97-5.14 3.19-10.76 4.19-16.5 5.14-1.1.18-2.21.36-3.29.65-4.9 1.28-5.54 2.05-5.4 7.17.31 11.42.95 22.83.97 34.24.01 5.19-.51 10.54-1.87 15.53-1.54 5.66-5.1 7.33-11.85 6.68-.67-5.55-1.84-11.27-1.96-17.02-.28-13.77-.12-27.55.01-41.32.02-2.3-.6-3.37-2.86-3.95-12.75-3.3-24.25-8.95-33.9-18.15-5.27-5.02-9.56-10.39-9.21-18.2.17-3.87 2.18-5.41 5.91-4.02 2.02.75 3.96 2.05 5.57 3.51 5.88 5.33 11.4 11.08 17.45 16.2 4.45 3.77 9.99 5.32 16.43 5.33 0-8.23 0-16.35 0-25.15-16.25-.73-27.8-10-36.85-23.02-3.25-4.68-3.98-8.94-3.31-13.76z" fill="#010105"/><path d="m128.29 199.13c4.8 2.93 9.39 3.27 13.83.82 5.25-2.89 10.26-6.22 15.4-9.31 4.38-2.63 8.71-5.36 13.25-7.67 1.32-.67 4.44-.6 4.75.06 1.06 2.27 1.37 4.93 1.68 7.48.09.71-.69 1.64-1.28 2.29-9.78 10.84-20.96 19.64-35.68 22.4-3.64.68-7.67-.53-11.5-1.01-2.09-.26-4.15-.82-6.98-1.4-1.28 8.09-2.66 15.98-3.77 23.9-5.51 39.14-4.5 78.63-6.16 117.97-.21 4.91-.73 9.82-1.26 14.71-.29 2.68-1.43 4.94-4.23 5.93-3.42 1.22-5.46.32-6.81-3.05-3.59-8.95-2.69-18.27-2.19-27.54.98-18.21 2.22-36.41 3.12-54.62.83-16.77.83-33.6 2.21-50.32.78-9.4 3.36-18.7 5.65-27.91 1.1-4.42.45-7.44-2.94-10.59-3.97-3.69-8.23-7.52-9.1-13.34-1.18-7.9.42-15.28 6.1-21.06 7.6-7.74 15.5-15.18 25.19-20.45 2.97-1.61 5.45-1.03 7.79.6 2.36 1.64 2.4 4.32 1.36 6.69-.91 2.07-2.09 4.3-3.77 5.7-4.82 3.99-9.94 7.62-14.97 11.34-3.51 2.59-6.17 5.77-7.64 9.95-.99 2.82-.94 5.15 1.78 7.04 1.35.94 2.45 2.25 3.23 2.98 7.69-6.15 15-12.34 22.67-18.02 6.22-4.61 13.01-8.41 21.02-8.92 1.44-.09 4.17.66 4.2 1.18.17 2.43 1.95 5.08-1 7.35-10.47 8.05-20.79 16.29-31.16 24.47-.85.68-1.67 1.41-2.79 2.35z" fill="#010105"/><path d="m219.03 182.12c6.25 2.21 12.32 3.68 17.43 8.36 9.28 8.51 17.72 11.3 28.36 11.03 1.44-2.14.91-3.58-1.22-5.16-10.6-7.87-20.99-16.02-31.63-23.83-3.55-2.61-.89-5.2-.69-7.78.2-2.5 2.52-2.18 3.91-1.89 3.34.68 6.76 1.49 9.84 2.91 6.78 3.12 12.32 8.02 17.66 13.17 4.83 4.64 9.82 9.11 14.71 13.63 6.88-5.57 8.13-10.36 4.43-16.91-.64-1.13-1.62-2.13-2.64-2.96-4.94-4.03-10.04-7.87-14.9-12-5.18-4.4-6.25-9.52-3.3-14.6 10.8 1.15 19.29 6.91 26.4 14.54 4.03 4.33 7.33 9.56 10.04 14.85 4.21 8.24.52 15.33-4.81 21.7-1.72 2.05-3.67 3.96-5.79 5.59-2.55 1.96-3.22 4.06-2.32 7.2 6.97 24.22 7.35 49.23 8.74 74.12 1.16 20.78 2.49 41.56 3.67 62.34.32 5.58.65 11.2.37 16.77-.15 3-1.03 6.28-2.58 8.82-2.75 4.52-7.67 4.09-9.37-.76-1.42-4.06-2.59-8.41-2.74-12.67-.88-23.7-.99-47.43-2.22-71.11-1-19.21-3.21-38.35-4.89-57.53-.35-4.01-.79-8.02-1-12.04-.12-2.4-1.3-3.52-3.54-3.51-1.78.01-3.6.09-5.32.49-8.81 2.03-17.23 1.17-24.78-3.9-6.38-4.28-12.72-8.73-18.47-13.79-4.35-3.8-5.77-9.11-3.35-15.08z" fill="#010105"/><path d="m188.24 66.9c.43 4.67.63 8.57 1.23 12.4.17 1.04 1.38 2.21 2.42 2.78 7.65 4.2 15.26 8.47 23.09 12.3 9.56 4.68 14.01 12.79 15.85 22.67 2 10.7-1.17 20.88-3.81 31.03-1.12 4.3-2.71 8.55-4.63 12.56-.91 1.91-2.86 3.69-4.77 4.68-3.93 2.03-6.26.59-7.07-3.75-1.72-9.18.64-17.75 3.91-26.19 1.09-2.81 2.41-5.57 3.18-8.46 1.58-5.92.49-11.34-3.99-15.78-3.72-3.7-8.29-5.93-13.67-7.8-1.18 9.16-2.15 18.01-3.49 26.81-1.01 6.6-2.08 13.25-3.91 19.65-1.46 5.1-5 7.13-9.12 6.91-2.18-.11-2.99-.89-3-3.27-.05-18.08 1.42-35.99 5.41-53.66.25-1.12.11-2.99-.61-3.57-12.59-10.26-12.26-24.33-11.29-38.45.71-10.39 2.29-20.68 5.88-30.55.19-.52.45-1.01.67-1.48 7.2.14 10.91 4.42 10.24 11.4-.36 3.75-.5 7.55-.36 11.31.1 2.78 1.72 4.52 4.78 4.45 7.81-.2 15.63-.28 23.44-.6 6.65-.27 10.93 2.17 12.5 7.27.56 1.82.13 2.89-1.4 3.93-5.13 3.5-10.92 3.5-16.77 3.46-8.05-.09-16.08-.05-24.71-.05z" fill="#010105"/><path d="m284.36 112.27c-8.9 0-17.6.06-26.31-.03-3-.03-6.11-.05-8.96-.85-2.09-.59-4.51-2.02-5.59-3.8-2.43-3.98-2.36-6.21 2.36-8 5.84-2.22 11.83-1.83 17.88-1.64 7.11.22 14.23.05 21.66.05 0-4.55.15-8.12-.12-11.67-.06-.76-1.6-1.99-2.49-2.01-7.38-.21-14.77-.05-22.15-.29-3.99-.13-8.08-.4-11.87-1.48-1.85-.53-3.85-2.82-4.51-4.75-1.34-3.97 0-5.59 4.18-5.76 9.05-.36 18.11-.55 27.16-.8 9.52-.26 9.52-.25 12.18-9.42 1.15-3.96 2.3-7.93 3.44-11.82 4.08-.34 7.05.95 8.12 4.46 1.09 3.56 1.8 7.42 1.71 11.13-.33 12.3-.85 24.6-1.78 36.87-.58 7.65-2.09 15.23-3.03 22.86-.49 4.01-3.01 6.41-6.17 8.19-14.38 8.14-29.54 9.58-45.27 4.73-.88-.27-1.94-1.82-1.94-2.78.03-8.44-1.39-6.35 6.36-7.6 6.61-1.07 13.34-1.42 20-2.18 6.79-.77 12.75-2.84 14.97-10.29.13-.43.22-.87.27-1.31.05-.32-.02-.65-.1-1.81z" fill="#010105"/><path d="m109.73 112.86c1.7 9.57-.12 8.4 8.84 10.6 6.02 1.48 12.4 1.47 18.58 2.37 3.39.49 6.83 1.17 10.02 2.36s5.08 3.87 5.51 7.55c-6.87 4.31-14.45 5.6-22.21 4.55-7.95-1.07-15.8-2.93-23.63-4.74-1.65-.38-3.36-1.78-4.44-3.17-5.51-7.15-7.38-15.4-6.9-24.31.64-11.76.23-23.46-1.47-35.16-.95-6.52-1.07-13.25 2.11-19.39.76-1.48 2.24-3.54 3.48-3.62 2.96-.17 5.77 1.17 6.87 4.32.45 1.31.32 2.84.32 4.27 0 1.9-.35 3.82-.14 5.68.41 3.68 2.49 5.73 6.16 5.76 6.81.06 13.62-.24 20.43-.27 3.33-.02 6.69-.04 9.97.43 1.65.24 3.37 1.29 4.67 2.43 4.29 3.78 3.81 7.27-1.58 8.67-4.89 1.27-10.08 1.71-15.16 1.89-5.78.21-11.59-.31-17.38-.43-2.61-.05-4 1.01-4.07 3.98-.09 3.44-.8 6.86-1.35 11.14 6.86 0 13.4.03 19.93-.01 4.58-.03 9.17-.45 13.72-.17 6.2.38 9.48 3.61 10.65 9.8-4.95 3.63-10.72 4.68-16.7 4.8-7.37.14-14.74.09-22.11.18-1.28.02-2.58.3-4.12.49z" fill="#010105"/></svg>