<svg enable-background="new 0 0 400 400" viewBox="0 0 400 400" xmlns="http://www.w3.org/2000/svg"><g fill="#010103"><path d="m161.4 215.99c-16.48 0-32.11 0-48 0-1.14 8.63-2.34 17.14-3.28 25.67-.09.78 1.31 2.19 2.29 2.53 7.81 2.71 15.73 5.09 23.51 7.86 4.92 1.74 9.82 3.68 14.44 6.07 3.13 1.62 6.27 4.93 4.8 8.25-.86 1.94-5.6 3.23-8.44 2.97-4.79-.43-9.52-2.08-14.13-3.64-5.91-2-11.65-4.5-17.52-6.6-1.51-.54-3.26-.4-5.49-.63-1.01 7.03-1.98 13.75-2.94 20.46-1.16 8.08-2.11 16.19-3.58 24.22-.59 3.22-2.06 6.36-3.59 9.3-.76 1.45-2.4 2.69-3.93 3.44-3.7 1.82-5.6.74-6.35-3.3-1.61-8.64-.37-17.19.94-25.71 4.14-26.77 7.99-53.56 6.84-80.78-.91-21.69-1.59-43.39-2.51-65.08-.13-3.08.67-5.01 3.84-5.43 3.5-.46 5.61 1.19 6.26 4.65 1.22 6.48 2.59 12.94 3.66 19.44.4 2.43 1.57 3.43 3.77 2.94 6.52-1.46 13-3.08 19.49-4.65 3.78-.92 7.51-2.1 11.33-2.72 2.6-.42 4.79.88 6.04 3.36 1.83 3.64 1.16 6.72-2.61 8.04-7.88 2.76-15.94 4.99-23.95 7.36-3.31.98-7.88.76-9.68 2.92-1.72 2.07-.66 6.51-.7 9.91-.06 4.8-.02 9.6-.02 14.92h49.16c.35-2.17 1.02-4.68 1.11-7.2.77-20.6-1.49-40.83-7.14-60.71-1.81-6.38-5.58-10.27-11.47-12.9-8.88-3.95-18.13-5.47-27.75-5.43-13.43.06-23.32-5.96-28.78-18.15-1.65-3.68-1.84-8.32-1.65-12.47.45-9.99 2.5-19.32 12.29-25.01 9.62-5.59 20.01-8.26 30.9-9.25 10.02-.91 20.07-1.65 30.12-2.11 2.91-.13 6.07.49 8.73 1.64 1.58.69 3.17 2.97 3.42 4.74.36 2.45-.93 5-3.75 5.62-7.73 1.69-15.45 3.57-23.27 4.62-9.64 1.29-19.39 1.7-29.06 2.71-12.63 1.32-19.92 14.81-14.14 26.02.5.96 1.64 1.74 2.67 2.26 9.2 4.65 19.06 6.9 29.26 8 24.41 2.63 37.85 17.03 39.8 41.8 1.81 22.99 2.77 46 2.95 69.06.09 11.95 1.83 23.9 1.62 35.83-.42 24.06-2.66 48-6.22 71.83-1.25 8.37-1.33 16.94-1.59 25.44-.25 8.03-1.52 15.77-4.79 23.15-1.07 2.41-2.53 4.31-5.38 4.29-2.96-.02-4.51-1.8-5.47-4.51-1.85-5.23-2.08-10.59-.96-15.88 3.92-18.48 4.33-37.31 5.78-56.03 1.12-14.5 2.45-29 3.01-43.53.51-13.07.11-26.17.11-39.6z"/><path d="m271.52 255.08c6.9-9.81 11.32-19.93 11.13-31.57-.21-13.13-5.49-19.5-18.23-22.57-13.76-3.31-27.54-2.2-41.34-.27-2.95.41-6.04.52-8.98.14-1.86-.24-3.88-1.3-5.27-2.6-3.78-3.53-3.27-7.44 1.52-8.91 5.83-1.78 11.92-3.42 17.96-3.62 11.61-.4 23.29-.26 34.87.59 17.5 1.29 28.67 10.73 31.71 27.11 3.11 16.74.64 32.74-9.32 47.08-2.35 3.38-5.97 6.65-6.48 10.32-.49 3.53 2.27 7.53 3.65 11.31 8.05 22.04 16.19 44.05 24.12 66.14 1.5 4.18 2.34 8.62 3.14 13.01.54 2.94.34 5.96-3.15 7.29-3.39 1.29-6.33.18-8.52-3.17-6.43-9.85-10.14-20.88-13.69-31.96-4.8-15.01-9.36-30.09-14.21-45.08-1.02-3.15-2.76-6.08-4.32-9.03-.98-1.85-2.51-2.32-4.53-1.35-1.6.77-3.4 1.14-5.01 1.89-13.39 6.25-27.7 8.43-42.23 9.78-6.99.65-13.94 2.51-20.99.67-1.48-.39-3.06-.93-4.25-1.84-3.14-2.42-2.59-6.43.93-8.12 8.03-3.84 16.63-5.12 25.4-5.39 12.98-.39 25.48-3.21 37.74-7.27 4.91-1.62 6.01-4.11 3.38-8.65-1.36-2.35-3.4-4.42-5.48-6.22-9.45-8.17-20.6-11.82-32.99-12.15-5.59-.15-11.18-.49-16.76-.89-5.49-.4-8.16-3.56-7.24-8.22.35-1.79 1.11-2.78 3.12-3.29 10.09-2.6 20.14-2.54 30.23-.16 3.26.77 6.49 1.71 9.78 2.37 10.44 2.12 19.7 6.05 25.99 15.35 2.22 3.31 5.33 6.01 8.32 9.28z"/><path d="m212.55 77.46c-3.25 10.7-6.18 20.43-9.19 30.14-1.53 4.94-3.49 9.69-7.42 13.32-2.59 2.39-5.6 3.4-9.14 3.52-3.32.11-4.79-1.48-4.17-4.36.87-4.09 2.14-8.13 3.68-12.03 1.01-2.57 3.02-4.73 4.17-7.26 7.5-16.41 10.06-33.03 1.69-50-3.19-6.47-5.8-13.09-5.65-20.47.07-3.73 2.73-5.57 6.28-4.3 5.35 1.92 8.81 5.86 10.42 11.09 1.91 6.18 3.17 12.56 4.8 18.83 2.22 8.53 2.26 8.43 10.96 8.55 13.19.17 26.4.27 39.57.84 7.01.3 13.99 1.18 20.49 4.5 12.44 6.36 16.43 24.81 9.84 36.71-.41.74-1.19 1.31-1.88 1.86-9.84 7.85-20.97 11.09-33.54 9.66-8.78-1-17.43-.09-25.74 3.11-6.88 2.64-10.98 13.69-7.42 20.17.48.87 1.61 1.49 2.56 1.97 8.63 4.33 17.94 6.4 27.42 7.18 14.15 1.16 28.36 1.49 42.52 2.54 4.26.32 8.53 1.58 12.58 3.02 1.49.53 3.35 2.87 3.27 4.28-.11 1.86-1.54 4.39-3.15 5.26-2.65 1.43-5.87 2.23-8.91 2.44-3.53.24-7.13-.4-10.69-.72-12.57-1.12-25.13-2.44-37.71-3.36-9.52-.7-18.8-2.15-27.93-5.15-5.74-1.89-9.21-5.6-11.74-10.65-5.05-10.1-3.83-20.16.43-30.12.36-.84 1.31-1.5 2.11-2.07 9.66-6.92 20.45-10.14 32.32-10.6 8.45-.33 16.86-1.52 25.29-2.39.98-.1 1.93-.55 2.87-.91 7.02-2.69 9.44-10.09 5.29-16.4-.5-.76-1.55-1.22-2.41-1.68-9.21-5-19.29-6.27-29.52-6.45-10.84-.22-21.68-.07-32.35-.07z"/></g><path d="m385.2 377.6.6-.7c.6.4 1.3.9 1.9 1.5l-.6.7c-.8-.5-1.4-1-1.9-1.5zm.3 7.1c.6-1.4 1.1-2.9 1.5-4.5.3.1.6.3.9.4-.5 1.4-1 2.9-1.5 4.4zm.2-10.1.6-.6c.7.5 1.3 1.1 1.9 1.6l-.7.7c-.6-.6-1.2-1.2-1.8-1.7zm8.4-.8h.8v.9h1.8v.7h-1.8v1.8h-.8v-.3h-1.2v.9h3.3v2.6h-.8v-.4h-2.5c0 .3 0 .6-.1.8h3.4v.7h-3.5c0 .3-.1.6-.1.8h4v.7h-3.5c.7.9 1.9 1.3 3.6 1.5-.2.2-.4.5-.6.9-1.9-.3-3.2-1.1-3.8-2.3-.5 1.1-1.8 2-3.9 2.4-.2-.3-.4-.5-.6-.8 1.9-.4 3.1-.9 3.6-1.7h-3.2v-.7h3.5c.1-.2.1-.5.2-.8h-3.3v-.7h3.4c0-.2 0-.5 0-.8h-2.4v.3h-.8v-2.6h3.3v-.9h-1.2v.3h-.8v-1.8h-1.8v-.7h1.8v-.9h.8v.9h3.2zm-4.4 5.5h2.4c0-.3 0-.6 0-.9h-2.4zm1.2-3.1h3.2v-.8h-3.2zm4.4 2.2h-2.4v.9h2.5v-.9z" fill="#fcfbfa"/><path d="m389.2 385.8h.9v1.5h1.9v-1.5h.9v1.5h2.7v6h1.1v.9h-11.3v-.9h1.1v-6h2.7zm.2 8.7.5.8c-1.2.6-2.5 1.3-4 1.9-.2-.3-.3-.6-.6-.8 1.6-.6 3-1.3 4.1-1.9zm-2-4.3h1.9v-2.1h-1.9zm0 3.1h1.9v-2.2h-1.9zm2.7-3.1h1.9v-2.1h-1.9zm0 3.1h1.9v-2.2h-1.9zm2.4 1.3c1.4.6 2.7 1.2 4.1 1.8l-.5.9c-1.5-.7-2.8-1.4-4.1-1.9zm2.2-6.5h-1.9v2.1h1.9zm-1.9 5.2h1.9v-2.2h-1.9z" fill="#fcfbfa"/></svg>