<svg enable-background="new 0 0 400 400" viewBox="0 0 400 400" xmlns="http://www.w3.org/2000/svg"><g fill="#fbfafa"><path d="m37.59 393.81c-.92.31-1.52.05-2-.78-.7-1.2-1.52-2.34-2.47-3.78v4.59c-.55.03-.95.05-1.41.07-.03-.37-.06-.64-.06-.91 0-1.91 0-3.81 0-5.7 1.13-.41 1.77-.03 2.29.91.62 1.11 1.38 2.14 2.31 3.19v-4.2h1.35v6.61z"/><path d="m12.94 393.88v-6.75c1.9.19 3.93-.54 5.37 1.29.8 1.01.78 2.88.03 3.97-1.37 1.97-3.4 1.51-5.4 1.49m1.45-1.22c2.04.12 2.92-.58 2.89-2.21-.03-1.51-.98-2.19-2.89-2z"/><path d="m11.81 393.87h-5.49c.68-2.18 2.47-3.48 3.51-5.45h-3.08v-1.21h5.29c-.71 2.13-2.44 3.48-3.47 5.51.86 0 1.63.04 2.39-.01.79-.05 1.14.21.85 1.16"/><path d="m39.33 393.86v-6.61h3.7v1.07h-2.22v1.52c.68.04 1.34.09 2.07.13v1.07c-.72.05-1.38.09-2.1.14v1.48h2.4v1.19h-3.85z"/><path d="m27.71 388.56c-1.15-.3-2.46-.61-3.1.64-.37.73-.41 1.93-.06 2.67.63 1.35 1.99.93 3.17.68.35.94-.01 1.32-.93 1.46-1.62.25-3.05-.27-3.76-1.48-.73-1.24-.6-3.03.31-4.17.88-1.11 2.71-1.7 4-1.16.32.13.44.74.65 1.12-.1.08-.19.16-.28.24"/><path d="m49.15 387.24v1.07c-.59.02-1.17.05-1.87.08v5.44h-1.48v-5.44h-1.85c-.05-.4-.08-.73-.13-1.15z"/><path d="m20.06 387.21h1.33v6.62h-1.33z"/><path d="m30.68 393.25c-.49.38-.8.79-1.05.76-.32-.05-.6-.45-.9-.7.26-.24.51-.64.8-.67.29-.04.62.3 1.15.61"/></g><path d="m145.45 275.4c-5.31-1.69-9.38-2.71-13.23-4.28-9.83-3.98-19.56-8.21-29.69-12.49-1.13 7.18-2.26 14.11-3.32 21.05-2.53 16.69-4.98 33.4-7.56 50.08-.42 2.75-1.19 5.47-2.06 8.12-1.87 5.67-6.24 7.81-12.5 8.06-.49-2.6-1.22-5.25-1.45-7.94-.94-10.64 1.42-20.96 3.67-31.21 6.97-31.8 9.22-63.93 7.7-96.39-.8-17.05-4.11-33.71-7.63-50.35-2.25-10.65-3.73-21.37-2.39-32.3.39-3.2 2.59-5.64 5.68-5.91 3.69-.33 5.43.88 6.51 4.49 2.2 7.37 4.41 14.73 6.7 22.4 14.4-4.44 28.55-8.8 42.96-13.24-1.21-3.68-2.24-7.21-3.57-10.61-.4-1.03-1.53-1.92-2.52-2.54-10.69-6.71-21.1-13.95-32.22-19.87-15.53-8.26-20.9-20.26-19.1-36.17.76-6.66 3.45-13.67 11.07-17.53 15.79-8 32.49-12.53 49.84-14.97 9.4-1.32 18.88-2.17 28.34-3.02 2.86-.26 5.82-.07 8.67.35 4.24.62 6.05 2.97 6.58 7.27.27 2.22-.24 3.72-2.47 4.38-7.9 2.34-15.68 5.37-23.75 6.85-13.19 2.42-26.56 3.8-39.85 5.68-7.21 1.02-14.05 2.97-19.05 8.76-5.48 6.35-4.41 17.21 2.12 22.59 7.55 6.22 15.68 11.54 24.77 15.23 15.48 6.28 24.45 18.01 29.26 33.66 4.09 13.3 5.98 26.91 5.89 40.69-.2 27.97-.78 55.94-1.59 83.9-.62 21.47-1.92 42.92-2.74 64.38-.33 8.72.12 17.47-.36 26.17-.38 6.79-1.58 13.54-2.6 20.27-.14.89-1.27 2.07-2.16 2.31-2.45.67-5.02.93-7.77 1.38-2.77-5.3-4.11-11.02-4.02-16.79.16-11.17 1.01-22.33 1.54-33.49.8-16.6 1.56-33.23 2.3-48.97zm-2.56-124.6c-14.64 4.77-28.66 9.3-42.64 13.97-.67.22-1.37 1.63-1.33 2.45.25 4.8.7 9.59 1.13 14.38.45 5.07.95 10.15 1.45 15.42 15.54-.36 30.69-.7 46.19-1.06-.42-15.36 1.03-30.4-4.8-45.16zm-39.46 60.78c0 10.39-.05 20.53.1 30.67.01.83 1.25 2.02 2.18 2.4 4.63 1.93 9.35 3.65 14.04 5.44 8.73 3.34 17.47 6.68 26.78 10.25-.35-16.54-.69-32.55-1.03-48.76-14.37 0-28.41 0-42.07 0z" fill="#010105"/><path d="m251.64 25.05c7.76 5.27 10.04 12.79 9.58 21.22-.46 8.47-1.57 16.91-2.39 25.37-.03.33-.05.67-.07 1-.68 12.32-.52 12.47 11.44 14.74 3.29.62 6.53 1.5 9.75 2.4 14.73 4.11 23.87 13.99 29.43 27.94 6.43 16.13 9.18 32.87 9.5 50.11.44 23.81-1.9 47.24-7.33 70.53-2.88 12.33-10.5 18.82-21.01 23.48-14.5 6.44-29.77 7.54-45.34 6.55-11.81-.75-23.25-3.16-34.12-7.89-1.86-.81-3.43-2.34-5.07-3.62-.61-.47-.96-1.25-1.55-1.75-9.19-7.8-12.66-18.39-14.35-29.78-4.7-31.66-4.79-63.29 1.04-94.84 1.85-9.99 6.66-19.02 12.29-26.95 5.29-7.46 14.35-11.09 23.7-12.74 4.28-.76 8.51-1.81 12.77-2.73 2.86-.62 4.24-2.11 4.2-5.32-.15-11.3.07-22.6-.07-33.89-.12-8.74 1.28-16.89 7.6-23.83zm-7.19 154.29c-13.47 0-26.62 0-39.98 0-.05.18-.32.7-.32 1.23-.02 12.41-.41 24.83.12 37.22.42 9.65 3.79 18.57 9.95 26.24.62.77 1.28 1.77 2.12 2.05 7.95 2.59 15.81 5.67 24.47 4.69 2.69-.3 3.72-1.24 3.7-4.19-.14-21.15-.08-42.3-.08-63.44.02-1.11.02-2.2.02-3.8zm16.72 71.6c9.03.03 17.8-.15 25.79-4.72 5.04-2.88 8.76-6.78 9.65-12.87.93-6.4 2.53-12.74 3.01-19.17.85-11.43 1.08-22.92 1.59-34.87-13.57 0-26.79 0-40.04 0zm-16.81-147.5c-8.57-1.91-14.94 1.37-21.17 4.9-4.46 2.52-8.66 5.27-10.98 10.34-3.97 8.68-7.23 17.57-8.69 27.01-.91 5.83-1.01 11.74.69 16.86h37.89c1.91 0 2.46-1 2.37-2.78-.13-2.68-.11-5.36-.11-8.05-.01-16.08 0-32.18 0-48.28zm56.67 58.96c1.13-11.89-1.5-26.59-6.17-38.28-5.73-14.35-18.84-20.83-33.66-20.86v60.17c13.38-.35 26.53-.69 39.83-1.03z" fill="#010105"/></svg>