<svg enable-background="new 0 0 400 400" viewBox="0 0 400 400" xmlns="http://www.w3.org/2000/svg"><g fill="#fbfafa"><path d="m37.59 393.81c-.92.31-1.52.05-2-.78-.7-1.2-1.52-2.34-2.47-3.78v4.59c-.55.03-.95.05-1.41.07-.03-.37-.06-.64-.06-.91 0-1.91 0-3.81 0-5.7 1.13-.41 1.77-.03 2.29.91.62 1.11 1.38 2.14 2.31 3.19v-4.2h1.35v6.61z"/><path d="m12.94 393.88v-6.75c1.9.19 3.93-.54 5.37 1.29.8 1.01.78 2.88.03 3.97-1.37 1.97-3.4 1.51-5.4 1.49m1.45-1.22c2.04.12 2.92-.58 2.89-2.21-.03-1.51-.98-2.19-2.89-2z"/><path d="m11.81 393.87h-5.49c.68-2.18 2.47-3.48 3.51-5.45h-3.08v-1.21h5.29c-.71 2.13-2.44 3.48-3.47 5.51.86 0 1.63.04 2.39-.01.79-.05 1.14.21.85 1.16"/><path d="m39.33 393.86v-6.61h3.7v1.07h-2.22v1.52c.68.04 1.34.09 2.07.13v1.07c-.72.05-1.38.09-2.1.14v1.48h2.4v1.19h-3.85z"/><path d="m27.71 388.56c-1.15-.3-2.46-.61-3.1.64-.37.73-.41 1.93-.06 2.67.63 1.35 1.99.93 3.17.68.35.94-.01 1.32-.93 1.46-1.62.25-3.05-.27-3.76-1.48-.73-1.24-.6-3.03.31-4.17.88-1.11 2.71-1.7 4-1.16.32.13.44.74.65 1.12-.1.08-.19.16-.28.24"/><path d="m49.15 387.24v1.07c-.59.02-1.17.05-1.87.08v5.44h-1.48v-5.44h-1.85c-.05-.4-.08-.73-.13-1.15z"/><path d="m20.06 387.21h1.33v6.62h-1.33z"/><path d="m30.68 393.25c-.49.38-.8.79-1.05.76-.32-.05-.6-.45-.9-.7.26-.24.51-.64.8-.67.29-.04.62.3 1.15.61"/></g><path d="m263.51 228.35c-4.48.69-8.8.79-11.61 4.72-.13.18-.3.34-.47.47-10.98 8.59-12.68 20.34-11.5 33.2 1.47 16.08 6.71 31.22 11.52 46.44 5.25 16.62 11.03 33.07 16.38 49.67.79 2.44 1.06 5.39.45 7.82-.45 1.78-2.49 3.68-4.29 4.48-2.2.97-4.72.19-6.07-2.17-2.38-4.15-5.32-8.15-6.78-12.62-6.64-20.27-13.12-40.6-19.08-61.08-3.09-10.6-5.23-21.5-5.29-32.69-.06-12.15 2.29-23.77 6.99-34.94.45-1.07 1.26-2.17 2.2-2.81 8.05-5.45 15.83-11.45 24.37-16.01 11.14-5.95 12.86-12.09 10.53-24.11-.15-.77-.35-1.53-.54-2.28-2.09-8.13-3.29-9.1-11.67-9.7-3.57-.26-7.16-.43-10.68-1.02-9.59-1.61-14.95-8.27-19.04-16.36-5.3-10.49-7.46-21.8-7.98-33.36-.83-18.61.09-37.14 4.61-55.33.32-1.3.84-2.56 1.09-3.87 2.46-12.59 11.44-18.65 22.65-22.17 12.44-3.9 25.06-3.13 37.41.21 10.98 2.96 18.27 10.46 19.8 21.78 2.13 15.71 3.87 31.55 4.46 47.38.6 16.25-2.73 32.05-10.13 46.74-.95 1.9-2.49 3.66-4.14 5.01-3.38 2.75-6.98 5.23-10.57 7.71-1.43.99-2.03 1.95-1.81 3.84.84 7 1.49 14.02 2.05 21.04.11 1.36-.2 2.89-.77 4.14-1.9 4.17-3.74 8.4-6.11 12.3-2.71 4.47-3.14 9.08-2.75 14.12 1.71 22.17 7.31 43.54 15.37 64.02 6.03 15.33 14.57 29.67 21.96 44.47 1.54 3.1 3.34 6.16 4.25 9.45.64 2.31.57 5.2-.24 7.45-1.41 3.91-6.96 4.29-9.18.83-11.68-18.16-23.07-36.48-31.37-56.52-5.79-13.97-8.73-28.58-10.41-43.54-1-8.75-2.36-17.48-3.61-26.71zm32.54-140.64c-1.33-7.12-2.36-13.52-3.79-19.82-.46-2.05-1.47-4.56-3.06-5.64-3.13-2.13-6.71-4.4-10.33-4.85-7.16-.89-14.48-.74-21.73-.72-6.06.01-11.57 3.32-14.89 7.3-5.52 6.62-6.02 15.47-5.96 23.73zm-59.69 37.54c19.96-.34 39.74-.68 59.07-1.02 0-7.99 0-15.42 0-22.75-20.05 0-39.54 0-59.07 0zm57.09 13.98c-19.09 0-37.72 0-56.74 0 .91 3.73 1.6 7.23 2.61 10.63 2 6.77 6.87 10.19 13.55 11.9 12.23 3.13 23.9 3.44 34.18-5.34 1.06-.91 2.19-2.09 2.59-3.36 1.4-4.45 2.5-9 3.81-13.83z" fill="#010105"/><path d="m144.18 112.47c-1.55-.6-2.9-1.1-4.22-1.65-9.96-4.14-15.55-11.68-17.26-22.22-.64-3.97-1.49-7.93-1.87-11.93-.24-2.47-1.41-3.44-3.59-3.36-6.35.25-12.7.6-19.05.93-.78.04-1.55.24-2.33.31-7.86.65-11.44-3.06-10.59-11.14 7.03-2.52 14.45-2.17 21.78-2.55 3.68-.19 7.35-.5 11.03-.74 2.36-.15 3.72-1.51 4.09-3.72.57-3.4 1.21-6.83 1.35-10.26.29-7.31.91-14.49 4.58-21 7.49.62 10.43 4.85 9.26 12.8-.8 5.41-1.35 10.85-1.9 16.29-.13 1.29.16 2.62.27 4.13 5.01.28 9.79.57 14.57.81 4.77.24 9.55.43 15.06.68 0-5.85.05-11.39-.02-16.93-.03-2.9-.48-5.81-.35-8.71.23-5.46 2.87-8.19 8.55-9.18 2.93 4.8 4.62 10.01 4.88 15.71.21 4.57.48 9.15.74 13.72.22 3.73 2.47 5.84 5.93 6.01 4.75.23 9.53-.11 14.3-.26 1.89-.06 3.79-.49 5.67-.38 4.3.24 7.28 2.95 8.26 7.1.39 1.64.07 2.64-1.58 3.47-5.96 2.98-12.23 3.12-18.68 2.68-3.43-.23-6.93-.11-10.34.33-1.1.14-2.62 1.64-2.89 2.77-1.74 7.28-3.42 14.59-4.65 21.97-.88 5.25-3.85 8.36-8.44 10.36-.92.4-1.86.76-2.81 1.1-7.97 2.86-7.98 2.86-5.43 11.42 3.89.39 7.96.42 11.85 1.28 5.08 1.12 10.34 2.22 14.94 4.52 10.82 5.4 15.35 16.93 13.98 29.83-1 9.39-7.08 13.54-14.24 17.32-7.59 4.01-16 3.83-24.19 4.72-5.2.57-6.63 1.77-6.38 7.13.12 2.75.93 5.48 1.52 8.2.24 1.08.82 2.09 1.09 3.17 3.72 15.31 14.45 24.84 27.23 32.42 8.64 5.13 17.63 9.67 26.53 14.34 3.4 1.79 6.26 3.72 6.95 7.94.38 2.31-.34 3.31-2.44 3.83-5.1 1.25-10.19.77-14.77-1.45-10.46-5.06-21.04-10.02-30.89-16.13-5.06-3.14-8.76-8.56-12.86-13.14-3.35-3.75-6.37-7.79-9.68-11.88-.47.4-1.04.72-1.38 1.21-6.94 10.01-16.32 17.07-27.06 22.52-8.87 4.5-17.67 9.14-26.58 13.55-4.3 2.13-8.72 4.07-13.81 3.04-2.46-.5-3.51-1.42-3.32-4.21.25-3.56 1.34-5.79 4.86-7.36 9.9-4.41 19.63-9.19 29.37-13.96 8.31-4.07 16.1-9.06 21.89-16.32 2.89-3.63 4.91-8.22 6.32-12.7 1.87-5.94 2.74-12.18 4.13-18.69-6.16-1.05-12.27-2.2-18.42-3.13-18.7-2.83-24.03-15.78-23.24-32.16.43-8.92 6-13.5 12.61-17.54 5.11-3.12 10.57-5.21 16.77-5.09 4.35.08 8.7-.34 13.41-.56.47-2.98.95-5.91 1.49-9.26zm-1.59 23.23c-7.23-.95-14.08.36-20.62 2.55-8.11 2.71-8.53 3.89-8.5 12.56.02 5.49 1.98 10.04 8.27 11.35 2.61.54 5.07 1.74 7.65 2.46 4.37 1.23 8.77 1.47 13.2.1 0-9.75 0-19.33 0-29.02zm14.48 30.33c6.24-.79 12.18-.97 17.81-2.37 9.04-2.25 12.16-7.7 10.21-16.95-.45-2.13-1.74-4.66-3.45-5.85-6.96-4.89-15.02-5.48-23.5-5.23-.36 10.05-.7 19.72-1.07 30.4zm-21.14-91.93c.51 4.85.32 9.67 1.62 14.04 2.75 9.19 4.05 10.67 14.29 10.51 3.28-.05 8.05-1.43 9.46-3.8 2.7-4.52 3.77-10.12 4.92-15.4.57-2.62-1.37-4.83-4.13-5.26-8.44-1.32-16.9-1.23-26.16-.09z" fill="#010105"/><path d="m141.45 303.63c0-7.95 0-15.51 0-23.48-8.4 0-16.63.06-24.86-.03-2.89-.03-5.87-.08-8.63-.8-2.03-.53-4.18-1.82-5.56-3.39-3.31-3.79-2.38-6.58 2.17-8.59 5.95-2.62 12.26-2.14 18.48-2.45 5.25-.26 10.51-.59 15.75-.53 2.87.03 3.91-1.47 3.95-3.76.08-4 .23-8.08-.41-12-1.23-7.57-.64-14.45 5.09-20.11 7.04 2.57 10.29 8.4 9.23 15.56-.73 4.95-1.46 9.98-1.28 14.95.21 5.64 1.54 6.83 7.25 7.01 5.22.16 10.47-.5 15.7-.84 1.56-.1 3.1-.45 4.66-.49 7.69-.22 11.22 2.65 12.85 10.54-4.75 3.71-10.35 4.73-16.26 4.55-5.92-.18-11.83-.57-17.75-.75-1.52-.05-3.05.37-4.99.63v24.19c2.26 0 4.79-.03 7.31.01 12.64.18 25.28.27 37.92.62 3.54.1 7.1.82 10.59 1.54 2.28.47 4.08 1.72 4.23 4.49.14 2.65-.79 4.36-3.29 5.55-6.2 2.95-12.73 2.85-19.36 2.84-17.21-.01-34.42.36-51.63.31-15.75-.05-31.51-.32-47.25-.78-3.97-.12-7.9-1.45-11.87-2.02-2.72-.39-2.96-2.22-3.04-4.31-.08-2.14-1-4.65 2.25-5.35 5.31-1.14 10.62-3.04 15.96-3.18 10.6-.28 21.23.51 31.85.69 3.55.05 7.11-.39 10.94-.62z" fill="#010105"/><path d="m210.04 225.3c-8.07-.06-14.62-3.52-20.58-7.93-6.11-4.52-11.78-9.63-17.6-14.53-5.88-4.95-6.86-11.14-4.63-18.23.75-2.39 2.2-3.17 4.19-2.08 2.36 1.3 5.3 2.62 6.51 4.76 4.03 7.11 9.78 11.97 16.84 15.78 7.17 3.88 14.07 8.26 21.09 12.43 1.97 1.17 3.85 2.41 3.45 5.18-.4 2.84-2.32 3.86-4.89 4.13-1.56.18-3.11.35-4.38.49z" fill="#010105"/><path d="m86.92 221.5c-1.06-.1-1.84-.18-2.62-.25-5.44-.49-5.36-.51-6.51-5.6-.41-1.8.18-2.59 1.74-3.33 6.37-3 12.64-6.18 19.02-9.16 4.85-2.27 8.8-5.53 12.38-9.52 2.72-3.04 6.1-5.5 9.3-8.09 2.18-1.76 4.75-1.17 6.47.41 1.25 1.14 2.3 3.51 2.03 5.08-.52 2.99-1.33 6.48-3.28 8.58-9.1 9.77-19.63 17.59-32.83 21.07-1.93.5-3.98.57-5.7.81z" fill="#010105"/></svg>