<svg enable-background="new 0 0 400 400" viewBox="0 0 400 400" xmlns="http://www.w3.org/2000/svg"><g fill="#010103"><path d="m167.92 194.66c1.61-7.93 2.32-15.21 1.38-22.56-1.38-10.82-.03-21.03 6.74-29.95 1.26-1.66 3.22-2.98 5.13-3.89 3.12-1.48 6.42-2.62 9.72-3.65 2.01-.63 2.94-1.76 3.07-3.8.39-6.25.63-12.52 1.35-18.74.46-3.94 1.68-7.79 2.53-11.56 7.21.18 10.71 4.55 9.98 11.35-.58 5.44-.84 10.91-1.25 16.36-.14 1.85.58 3.01 2.31 3.94 4.41 2.38 9.75 4.15 12.72 7.79 2.98 3.65 3.25 9.4 5.22 14.01 4.31 10.09 2.33 20.75 3.19 31.14.26 3.21.04 6.46.04 9.2 10.62-.73 20.86-1.95 31.1-1.98 8.91-.03 17.86.96 26.72 2.06 13.29 1.66 22.07 12.04 22.63 26.05.65 16.21-9.31 22.41-22.81 24.08-6.98.86-14.06.97-21.08 1.53-6.88.54-11.44 5.51-10.3 11.35.3 1.51 1.19 3.22 2.35 4.2 3.07 2.58 6.18 5.34 9.74 7.08 13.6 6.62 21.3 17.93 25.24 31.88 6.58 23.27 7.04 46.76 1.03 70.29-.72 2.82-2.17 4.73-5.16 4.8-3.14.08-5.36-1.8-5.44-4.78-.2-7.44-.48-14.95.29-22.33 1.76-16.91 1.62-33.55-5-49.52-3.64-8.78-9.24-15.91-17.94-20.53-4.9-2.6-9.25-6.26-13.86-9.42-5.26-3.61-6.57-8.76-5.8-14.72.17-1.33.49-2.64.75-3.95 1.07-5.45 3.12-10.24 8.57-12.74 5.71-2.62 7.41-7.01 6.79-13.18-.59-5.85-.13-11.81-.13-17.69-9.97-3.01-20.52 3.2-29.31-3.2-2.2 4.14-4.05 7.94-6.2 11.56-1.84 3.09-4.61 5.22-8.23 5.84-1.95.33-2.62 1.3-2.57 3.17.16 5.87-.37 11.6-3.48 16.83-.4.67-.34 1.73-.21 2.57 2.65 16.45 5.21 32.91 8.06 49.33 2.81 16.17 9.96 30.74 17.1 45.32 1.44 2.93 2.11 6.31 2.7 9.57.46 2.51-1.12 4.18-3.49 5.06-2.33.87-4.02.6-5.75-1.61-7.25-9.3-12.18-19.78-16.15-30.76-5.17-14.31-9.73-28.82-11.97-43.92-1.03-6.94-1.58-13.95-2.38-21.29-4.49.8-8.67 1.42-12.77 2.36-.79.18-1.48 1.54-1.89 2.49-4.48 10.5-5.27 21.56-3.63 32.62 2.5 16.8 5.78 33.49 8.53 50.26.74 4.5.85 9.12 1.09 13.69.14 2.78-1.22 4.84-3.99 5.44-2.91.63-5.24.16-6.81-3.1-3.81-7.91-5.15-16.39-6.43-24.9-2.26-15.04-4.59-30.07-6.55-45.15-1.56-11.94-.05-23.67 3.96-35.03.41-1.16 1.33-2.46 2.37-3.01 5.42-2.82 10.79-5.88 16.51-7.98 7.24-2.65 12.22-9.83 10.9-17.37-.12-.71-1.12-1.52-1.9-1.82-3.01-1.19-6.05-2.37-9.16-3.23-6.79-1.88-10.74-6.52-13.01-12.88-1.38-3.87-2.66-7.77-4.12-12.07-.54.82-.9 1.31-1.2 1.82-3.62 6.28-7.05 7.5-14.22 6.08-4.65-.92-9.47-1.11-14.23-1.32-.8-.04-2.27 1.4-2.41 2.32-1.1 7.3-1.88 14.64-2.92 21.95-.3 2.07.09 3.15 2.16 4.06 14.73 6.45 18.08 19.62 14.56 33.47-.25.98-1.04 2.03-1.87 2.63-7.36 5.24-14.64 10.62-22.26 15.45-3.9 2.47-7.36 5.11-9.49 9.18-4.3 8.21-7.16 16.72-6.81 26.26.48 12.75.39 25.52.49 38.28.03 3.78.02 7.58-.28 11.35-.23 2.79-1.74 4.75-4.79 5.23-3.15.5-4.55-1.51-5.44-3.87-.9-2.38-1.76-4.88-1.95-7.38-.95-12.03-2.3-24.08-2.3-36.12 0-15.03 3.84-29.43 10.09-43.13.58-1.27 1.7-2.31 2.64-3.41 7.12-8.3 15.76-14.47 26.04-18.23 2.36-.86 3.11-2.26 3.08-4.76-.11-8.76-.07-8.83-8.41-11.82-7.06-2.53-14.32-1.97-21.59-1.46-11.24.79-20.26-6.85-22.97-17.83-1.94-7.86-.8-15.13 1.69-22.28 1.46-4.19 4.92-7.5 9.36-8.93 11.5-3.71 23.45-4.83 35.43-4.85 8.81-.02 17.64.68 26.43 1.44 3.65.28 7.61.66 10.13 4.96zm47.96-11.85c-11.18 0-21.82 0-32.57 0-.76 7.55-.46 14.84 3.44 21.53.76 1.3 1.78 2.81 3.06 3.37 4.56 2 9.43 3.15 14.38 1.9 3.99-1.01 8.34-2.55 9.25-7.11 1.23-6.22 1.6-12.61 2.44-19.69zm.31-14.58c-.48-4.28-.74-8.03-1.35-11.71-.82-4.95-3.99-8.01-8.8-8.92-4.03-.76-8.27-1.59-12.25-1.08-2.61.33-6.24 2.46-7.12 4.69-2.15 5.47-2.98 11.47-4.28 17.02zm55.13 37.86v26.18c5.25 0 10.38.4 15.41-.16 2.81-.31 5.5-2.11 8.13-3.47.71-.37 1.44-1.64 1.37-2.42-.38-4.3-.66-8.68-1.73-12.83-.42-1.62-2.62-3.53-4.34-3.93-6.16-1.44-12.47-2.28-18.84-3.37zm-148.77 20.78c0-5.66.09-11.55-.06-17.44-.04-1.49-.46-3.28-1.38-4.36-1.02-1.2-3.01-2.69-4.23-2.43-4.98 1.06-9.9 2.53-14.67 4.32-1.79.67-4.02 2.4-4.45 4.05-1.15 4.46-1.07 9.18 1.55 13.24.8 1.24 2.69 2.43 4.13 2.49 6.22.29 12.47.13 19.11.13z"/><path d="m136 84.51c2.46-9.45 2.02-18.63-.25-27.77-2.47-9.93-2.11-19.7 1.38-29.48 4 .53 6.92 2.8 8.16 6.21 1.66 4.56 3.06 9.4 3.43 14.2.89 11.59 1.12 23.24 1.62 34.86.02.55.08 1.1.15 2.14 4.75-1.38 10.06-1.69 13.64-4.33 3.27-2.41 5.22-7.16 6.72-11.26 1.59-4.35 1.92-9.15 2.88-13.74.7-3.36 1.69-6.76 5.53-7.65 1.27-.29 3.39.34 4.21 1.32 3.88 4.57 4.67 10.05 3.57 15.8-.57 2.96-1.43 5.86-2.21 8.78-1.36 5.12-3.87 9.46-8.43 12.46-1.3.85-2.49 1.92-3.57 3.05-4.94 5.19-10.81 8.53-18.01 9.29-3.74.4-4.1 3.41-4.48 6.11-.34 2.41-.06 4.91-.1 7.37-.05 3.2-1.29 4.42-4.49 4.48-5.22.09-6.76-.71-6.82-5.75-.09-8.17-3.9-12.49-11.47-15.13-14.18-4.95-20.56-16.45-23.16-30.39-1.04-5.55.54-10.89 3.15-15.86 1.46-2.78 6.64-3.04 7.84-.16 1.81 4.37 3.84 8.96 4.17 13.57.96 12.85 3.96 17.39 16.54 21.88z"/><path d="m248.26 25.48c5.4 1.46 8.46 5.15 8.62 10.16.24 7.67-.34 15.38-.89 23.05-.55 7.78-2.26 15.51-.93 23.37.18 1.07.26 2.16.39 3.19 8.38.27 15.84-6.53 17.12-13.44 1.02-5.49 1.83-11.01 2.64-16.54.81-5.49 3.41-8.26 7.49-7.31 1.3.31 2.92 1.7 3.35 2.95 3.84 11.35 2.13 22.26-3.16 32.76-.48.95-1.37 1.74-2.2 2.47-1.76 1.55-3.74 2.88-5.39 4.53-4.56 4.56-9.91 7.62-16.32 8.44-3.63.47-4.55 2.71-4.54 5.79.01 1.56.15 3.12.36 4.67.44 3.29-.57 4.54-3.91 4.67-4.6.18-5.93-.41-6.62-4.86-1.01-6.51-4.4-10.35-10.48-12.77-6.44-2.57-12.46-6.03-16.08-12.5-6.31-11.26-7.49-22.69-1.98-34.65 1.27-2.76 3.3-1.95 5.28-2.2 2.07-.26 2.95.74 3.72 2.49 2.16 4.9 3.59 9.95 2.63 15.3-.83 4.65.65 8.43 3.74 11.63 2.69 2.78 5.69 5.25 8.55 7.86.36-.11.72-.22 1.08-.32.67-5.15 1.71-10.28 1.91-15.44.25-6.24-.29-12.52-.31-18.78-.03-7.68 1.42-15.11 4.37-22.22.26-.62.56-1.21.88-1.8.1-.18.35-.27.68-.5z"/><path d="m155.61 146.24c.06 9.14-1.61 15.49-4.98 21.05-2.81 4.63-7.88 7.06-13.1 8.05-10.99 2.08-21.76-.27-30.99-5.78-6.69-4-9.41-12.08-8.45-20.08.79-6.58 2.93-13.01 4.6-19.47.26-1 .94-2.16 1.78-2.69 11.13-6.98 22.82-9.47 35.36-4.01 11.09 4.82 15.37 13.93 15.78 22.93zm-13.98 5.91c-.23-2.22-.39-4.45-.69-6.66-.93-6.67-3.09-8.99-9.59-10.2-2.19-.4-4.44-.79-6.65-.72-6.71.19-13.89 2.43-12.96 11.95.16 1.67-.06 3.39.25 5.02.72 3.72 2.13 7.6 5.79 8.86 5.51 1.89 11.39 2.36 17.17.62 6.13-1.84 6.6-2.54 6.68-8.87z"/><path d="m266.35 126.94c6.63 1.59 13.57 2.53 19.94 4.96 10.39 3.97 14.57 11.67 13.63 22.8-.18 2.11-.5 4.23-1.02 6.27-1.13 4.47-1.5 9.18-5.61 12.5-5.51 4.45-11.37 7.85-18.5 8.75-7.94 1.01-15.49-.58-22.23-4.61-5.53-3.3-7.97-9.18-9.71-15.14-2.6-8.93-1.25-17.48 3.26-25.53.66-1.17 1.86-2.19 3.04-2.88 2.7-1.57 5.47-3.06 8.35-4.26 2.7-1.1 5.56-1.81 8.85-2.86zm1.71 13.43c-.08.29-.16.58-.24.86-.78-.04-1.66-.33-2.32-.07-2.68 1.06-6.88 1.69-7.6 3.58-1.65 4.33-2.24 9.34-2.04 14.03.19 4.38 2.67 7.99 7.77 8.68 2.32.31 4.58 1.02 6.9 1.26 10.36 1.04 17.6-5.14 16.9-16.67-.21-3.52-1.64-6.42-5.08-7.57-4.68-1.58-9.51-2.75-14.29-4.1z"/></g><path d="m385.2 377.6.6-.7c.6.4 1.3.9 1.9 1.5l-.6.7c-.8-.5-1.4-1-1.9-1.5zm.3 7.1c.6-1.4 1.1-2.9 1.5-4.5.3.1.6.3.9.4-.5 1.4-1 2.9-1.5 4.4zm.2-10.1.6-.6c.7.5 1.3 1.1 1.9 1.6l-.7.7c-.6-.6-1.2-1.2-1.8-1.7zm8.4-.8h.8v.9h1.8v.7h-1.8v1.8h-.8v-.3h-1.2v.9h3.3v2.6h-.8v-.4h-2.5c0 .3 0 .6-.1.8h3.4v.7h-3.5c0 .3-.1.6-.1.8h4v.7h-3.5c.7.9 1.9 1.3 3.6 1.5-.2.2-.4.5-.6.9-1.9-.3-3.2-1.1-3.8-2.3-.5 1.1-1.8 2-3.9 2.4-.2-.3-.4-.5-.6-.8 1.9-.4 3.1-.9 3.6-1.7h-3.2v-.7h3.5c.1-.2.1-.5.2-.8h-3.3v-.7h3.4c0-.2 0-.5 0-.8h-2.4v.3h-.8v-2.6h3.3v-.9h-1.2v.3h-.8v-1.8h-1.8v-.7h1.8v-.9h.8v.9h3.2zm-4.4 5.5h2.4c0-.3 0-.6 0-.9h-2.4zm1.2-3.1h3.2v-.8h-3.2zm4.4 2.2h-2.4v.9h2.5v-.9z" fill="#fcfbfa"/><path d="m389.2 385.8h.9v1.5h1.9v-1.5h.9v1.5h2.7v6h1.1v.9h-11.3v-.9h1.1v-6h2.7zm.2 8.7.5.8c-1.2.6-2.5 1.3-4 1.9-.2-.3-.3-.6-.6-.8 1.6-.6 3-1.3 4.1-1.9zm-2-4.3h1.9v-2.1h-1.9zm0 3.1h1.9v-2.2h-1.9zm2.7-3.1h1.9v-2.1h-1.9zm0 3.1h1.9v-2.2h-1.9zm2.4 1.3c1.4.6 2.7 1.2 4.1 1.8l-.5.9c-1.5-.7-2.8-1.4-4.1-1.9zm2.2-6.5h-1.9v2.1h1.9zm-1.9 5.2h1.9v-2.2h-1.9z" fill="#fcfbfa"/></svg>