<svg enable-background="new 0 0 400 400" viewBox="0 0 400 400" xmlns="http://www.w3.org/2000/svg"><g fill="#010103"><path d="m234.79 164.02c-3.51 0-7.39.08-11.27-.02-5.47-.13-11 .01-16.38-.79-2.29-.34-4.91-2.33-6.26-4.32-2.31-3.41-1.04-5.67 2.65-7.41 4.87-2.31 9.9-3.24 15.26-2.93 16.4.95 32.83 1.42 49.18 2.91 5.48.5 10.99 3 16.04 5.5 6.5 3.22 11.16 8.41 13.07 15.76 3.23 12.42 3.97 24.96 1.41 37.52-.87 4.27-2.4 8.88-5.07 12.17-2.61 3.21-6.83 5.41-10.73 7.22-9.89 4.6-20.55 5.94-31.35 6.23-5.25.14-10.52-.06-15.78-.07-2.01-.01-4.04-.03-6.04.13-8.43.7-11.67 4.32-10.79 12.72.39 3.73 1.6 7.4 2.74 11 .35 1.09 1.57 2.11 2.64 2.75 8.8 5.21 18.7 6.31 28.56 7.8 8.62 1.3 17.2 3.12 24.36 8.67 10.05 7.79 14 18.6 15.63 30.8 2.14 15.99-.13 31.68-2.37 47.4-.58 4.09-1.3 8.19-1.56 12.31-.16 2.56-1.1 3.66-3.56 4.31-5.61 1.48-7.8.34-7.95-5.63-.14-5.56.35-11.17 1.07-16.7 1.72-13.14 2.42-26.22.52-39.44-2.83-19.74-17.15-28.03-33.01-30.32-4.53-.65-9.15-.68-13.67-1.34-10.55-1.56-18.63-7.17-24.7-15.79-.67-.95-1.1-2.22-1.23-3.38-.56-5-1.71-10.09-1.25-15.01.5-5.36 1.4-11.32 4.24-15.63 2.43-3.71 7.59-6.07 12-7.9 3.71-1.54 8.12-1.36 12.17-2.19.82-.17 2.03-1.43 2.04-2.19.1-17.57.05-35.14.02-52.71-.02-.2-.19-.4-.63-1.43zm15.78 56.66c6.87-.76 13.35-1.02 19.63-2.3 8.23-1.68 14.32-6.05 15.07-15.39.15-1.88.63-3.74.86-5.62 2.77-22.45-14.35-33.72-35.56-32.29z"/><path d="m120.04 185.76c12.71 5.79 22.38 14.6 30.2 25.5 3.88 5.41 6.03 11.49 5.57 18.24-.09 1.36-.87 3.7-1.59 3.81-2.55.38-5.53 2.07-7.71-.91-3.95-5.41-8.26-10.62-11.71-16.34-4.92-8.16-12.51-12.05-21.03-15.1-4 7.06-6.09 14.5-6.39 22.25-.46 11.73-.34 23.48-.51 35.23-.03 2.34-.1 4.71-.48 7.01-.6 3.67-5.02 6.54-8.65 5.58-.82-.22-1.54-1.45-1.97-2.37-5.08-10.79-5.89-22.24-4.32-33.81 2.54-18.8 8.21-36.81 14.49-54.66 1.86-5.3 5.51-8.78 9.39-12.3 8.44-7.66 17.22-15.1 29.09-16.18 16.2-1.47 31.67-.14 41.7 15.54 3.85 6.01 6.12 12.55 6.31 19.55.51 19.57-3.14 38.27-13.04 55.43-1.1 1.9-2.6 3.63-4.14 5.21-10.01 10.27-19.78 20.75-27.25 33.09-5.8 9.59-9.39 20.15-10.87 31.14-.75 5.62.69 11.56 1.25 17.34 1.13 11.69 2.31 23.38 3.51 35.06.25 2.42-.89 4.17-2.99 4.58-2.64.51-5.7 1.05-7.48-2-4.51-7.74-7.26-16.12-8.06-25.02-1.47-16.38.15-32.65 2.57-48.81.53-3.52 2.81-6.76 4.12-10.19 3.56-9.34 9.42-16.86 16.45-24.02 7.86-8.01 14.64-17.18 21.22-26.32 10.56-14.68 12.19-31.07 7.82-48.34-2.74-10.84-9.97-16.96-21.31-17.52-8.86-.44-16.99 2.2-24.66 6.43-.57.31-1.09.8-1.47 1.33-2.63 3.72-5.23 7.49-8.06 11.57z"/><path d="m256.17 144.91c-1.05-8.04-2.41-16.19-3.09-24.4-.53-6.44-2.24-11.07-9.46-12.65-9.37-2.06-16.37-7.74-21.33-16.02-5.66-9.45-8.9-19.55-8.36-30.58.23-4.64 1.37-9.25 2.16-13.86.53-3.1 2.78-4.62 5.61-4.85 2.73-.22 3.57 2.06 4.38 4.27 2.85 7.77 3.92 15.8 3.96 24.02.07 12.66 6.69 20.75 19.35 23.7 2.92-12.12 2.56-24.4 1.89-36.7-.53-9.74.44-19.21 5.12-27.99.78-1.46 1.73-2.84 2.56-4.18 4.94 1.03 8.33 4.91 8.7 11.43.41 7.22.11 14.5-.27 21.74-.57 10.82-1.5 21.62-2.25 32.43-.08 1.08-.01 2.16-.01 3.3 12.55-2.36 20.59-10.91 22-23.29.62-5.44.82-10.94 1.6-16.36.44-3.03 1.41-6.06 2.62-8.88 1.01-2.35 3.3-3.11 5.91-2.91 2.49.18 3.26 1.94 4.08 3.84 4.62 10.74 3.15 21.44-.22 32.12-.64 2.02-1.54 3.97-2.11 6-2.79 9.93-10.6 15.55-18.46 20.83-2.91 1.95-6.92 2.4-10.51 3.16-2.56.54-3.83 1.94-3.66 4.33.46 6.66 1.23 13.29 1.65 19.95.16 2.51.19 5.2-.55 7.56-1.16 3.72-5.1 4.98-11.31 3.99z"/><path d="m142.07 27.22c9.13 3.11 7.43 1.02 8.19 9.71 1.57 17.94 3.17 35.88 4.77 53.82.06.64.27 1.26.4 1.86 11.83-1.5 24.26-18.05 23.8-28.09-.22-4.9.29-9.84.56-14.75.23-4.05 4.12-7.6 7.46-6.62 1.3.38 2.74 1.52 3.4 2.71 4 7.31 4.99 15.07 2.14 22.98-2.31 6.4-4.85 12.74-7.72 18.91-3.71 7.97-10.46 12.52-18.61 15.25-2.43.81-4.8 1.85-7.27 2.53-6.5 1.81-8.89 6.68-9.53 12.74-.41 3.88-.32 7.82-.61 11.72-.54 7.27-4.66 11.99-12.22 13.94-3.3-5.58-3.7-11.43-1.8-17.61 1.11-3.62 2.21-7.27 2.9-10.98.62-3.32-.19-5.98-4.16-7.1-3.63-1.03-7-2.94-10.57-4.23-12.41-4.49-19.43-13.91-23.34-25.91-3.16-9.71-3.71-19.74-2.08-29.85.37-2.26 3.78-5.67 5.93-5.61 2.18.06 3.98.71 4.81 3.27 2.59 7.93 4.29 16.02 4.03 24.37-.27 8.51 3.61 14.42 10.9 18.1 4.72 2.38 9.78 4.08 14.88 6.16 2.46-11.23 1.9-21.69.14-32.11-1.98-11.67-2.26-23.15 3.01-34.16.11-.31.31-.58.59-1.05z"/></g><path d="m385.2 377.6.6-.7c.6.4 1.3.9 1.9 1.5l-.6.7c-.8-.5-1.4-1-1.9-1.5zm.3 7.1c.6-1.4 1.1-2.9 1.5-4.5.3.1.6.3.9.4-.5 1.4-1 2.9-1.5 4.4zm.2-10.1.6-.6c.7.5 1.3 1.1 1.9 1.6l-.7.7c-.6-.6-1.2-1.2-1.8-1.7zm8.4-.8h.8v.9h1.8v.7h-1.8v1.8h-.8v-.3h-1.2v.9h3.3v2.6h-.8v-.4h-2.5c0 .3 0 .6-.1.8h3.4v.7h-3.5c0 .3-.1.6-.1.8h4v.7h-3.5c.7.9 1.9 1.3 3.6 1.5-.2.2-.4.5-.6.9-1.9-.3-3.2-1.1-3.8-2.3-.5 1.1-1.8 2-3.9 2.4-.2-.3-.4-.5-.6-.8 1.9-.4 3.1-.9 3.6-1.7h-3.2v-.7h3.5c.1-.2.1-.5.2-.8h-3.3v-.7h3.4c0-.2 0-.5 0-.8h-2.4v.3h-.8v-2.6h3.3v-.9h-1.2v.3h-.8v-1.8h-1.8v-.7h1.8v-.9h.8v.9h3.2zm-4.4 5.5h2.4c0-.3 0-.6 0-.9h-2.4zm1.2-3.1h3.2v-.8h-3.2zm4.4 2.2h-2.4v.9h2.5v-.9z" fill="#fcfbfa"/><path d="m389.2 385.8h.9v1.5h1.9v-1.5h.9v1.5h2.7v6h1.1v.9h-11.3v-.9h1.1v-6h2.7zm.2 8.7.5.8c-1.2.6-2.5 1.3-4 1.9-.2-.3-.3-.6-.6-.8 1.6-.6 3-1.3 4.1-1.9zm-2-4.3h1.9v-2.1h-1.9zm0 3.1h1.9v-2.2h-1.9zm2.7-3.1h1.9v-2.1h-1.9zm0 3.1h1.9v-2.2h-1.9zm2.4 1.3c1.4.6 2.7 1.2 4.1 1.8l-.5.9c-1.5-.7-2.8-1.4-4.1-1.9zm2.2-6.5h-1.9v2.1h1.9zm-1.9 5.2h1.9v-2.2h-1.9z" fill="#fcfbfa"/></svg>