<svg enable-background="new 0 0 400 400" viewBox="0 0 400 400" xmlns="http://www.w3.org/2000/svg"><g fill="#010103"><path d="m243.18 266.28c-2.6 18.69-5.07 37.4-2.52 56.35 1.59 11.75 3.34 23.47 4.85 35.22.32 2.52.24 5.17-.19 7.68-.75 4.38-4.15 6.47-8.42 5.23-1.04-.3-2.26-1.6-2.54-2.67-2.36-8.83-5.15-17.61-6.61-26.6-2.46-15.16-3.15-30.52-2.21-45.86.69-11.16 1.94-22.29 3.08-33.42.23-2.23-.01-3.94-2.05-5.12-.19-.11-.34-.29-.53-.42-11-7.51-19.04-17.32-23.59-29.95-.93-2.58-2.45-4.95-4.11-8.22-2.57 8.66-6.65 15.65-12.07 21.71-4.99 5.58-10.5 10.71-15.66 16.15-.86.91-1.81 2.65-1.5 3.62 4.22 13.19 2.77 26.82 3.44 40.29 1.08 21.71-2.36 43.08-4.34 64.56-.24 2.64-1.77 5.26-3.09 7.66-1.43 2.6-3.87 3.09-6.69 2.19-2.22-.71-3.17-1.86-3-4.39 1.16-18.32 1.97-36.65 3.3-54.96 1.23-16.95.34-33.72-2.95-50.77-1.08.47-2.16.94-3.25 1.4-20.28 8.54-40.54 17.14-60.87 25.55-2.51 1.04-5.48 1.55-8.17 1.36-1.75-.12-3.93-1.57-4.94-3.08-2.08-3.11-1.45-4.59 2-6.07 20.53-8.82 41.14-17.47 61.61-26.43 16.25-7.12 29.94-17.36 38.62-33.35 4.4-8.12 5.73-17.11 7.67-25.94 1.05-4.79 2.05-9.58 3.19-14.92-20.19-.35-40-.7-60.08-1.05-.97 9.89-1.89 19.44-2.85 28.98-.61 6.01-1.11 12.04-2 18-.34 2.24-1.17 4.78-2.66 6.36-1.29 1.38-3.77 2.01-5.8 2.26-2.3.28-3.43-1.59-4.15-3.64-2.49-7.09-.86-14.16.01-21.25.25-1.99.53-4 .53-6 .04-15.56.3-31.13-.11-46.68-.16-5.95-2.25-11.82-2.78-17.79-.39-4.35.13-8.82.63-13.2.38-3.27 3.49-2.07 5.44-2.41.84-.15 2.33.94 2.84 1.85 4.58 8.21 5.53 17.37 6.71 26.47.42 3.21 1.08 6.39 1.62 9.59.31 1.82 1.26 2.5 3.21 2.54 16.55.36 33.1.86 49.65 1.29 3.22.08 6.44.01 9.8.01 2.55-10.34 1.91-20.78.57-31.25-1.23-9.6.34-18.7 5.08-27.43 3.83.65 6.35 3.02 7.52 6.36 1.21 3.43 2.22 7.12 2.3 10.72.22 9.05-.33 18.13-.19 27.18.08 4.87.94 9.72 1.45 14.61h52.82c1.08-8.04 2.05-16.02 3.26-23.96.6-3.95 1.53-7.87 2.54-11.74.35-1.35 1.24-2.64 2.12-3.77 1.97-2.53 4.82-4.47 7.79-3.43 1.55.54 2.78 3.63 3.07 5.72.45 3.25.78 6.9-.25 9.9-6.85 20.08-4.33 40.26-.84 60.38 1.27 7.32 3.94 14.4 5.93 21.6.53 1.93 1.11 3.88 1.33 5.86.77 6.83-1.45 9.31-8.33 9.26-.84-.01-1.92-.95-2.48-1.74-4.53-6.32-6.63-13.66-8.12-21.12-1.85-9.31-3.26-18.72-4.86-28.08-.24-1.42-.48-2.83-.81-4.74-5.46 0-10.82.07-16.17-.01-11.18-.18-22.37-.35-33.55-.71-2.74-.09-3.62.8-3.92 3.49-.8 7.28.43 14.31 2.37 21.21 1.91 6.77 4.12 13.46 6.44 20.11.63 1.79 1.88 3.53 3.26 4.87 12.99 12.54 28.27 21.32 45.05 27.86 14.57 5.68 28.87 12.06 43.28 18.16 3.34 1.41 6.52 3.06 7.88 6.79 1.28 3.51.61 4.65-3.06 5.16-6.6.92-12.89-.59-19.14-2.43-16.59-4.87-32.17-12.17-47.54-19.94-.79-.4-1.61-.76-2.44-1.1-.19-.06-.44.05-.83.08z"/><path d="m137.44 97.94c.14-8.13.54-15.49.33-22.84-.21-7.37-1.25-14.72-1.52-22.1-.27-7.1.76-14.09 3.92-20.57.69-1.41 2.23-3.78 2.83-3.62 2.24.59 4.72 1.63 6.19 3.31 1.24 1.41 1.61 3.94 1.64 5.98.2 13.21.22 26.42.27 39.63.03 6.48 0 12.97 0 19.96 4.39-1.17 8.45-2.24 12.5-3.37.5-.14 1.04-.51 1.33-.93 3.92-5.64 7.39-11.4 7.57-18.64.17-6.81.75-13.62 1.3-20.42.25-3.04 1.33-5.69 4.85-6.41 2.78-.58 4.72-.16 6.16 2.84 5.84 12.17 4.57 24.39.57 36.6-4.44 13.52-13.94 21.43-27.83 24.27-5.69 1.16-6.91 2.58-7.3 8.45-.2 3-.03 6.04.05 9.06.06 2.25-.15 4.71-2.58 5.24-2.26.49-4.79.08-7.13-.34-.51-.09-.89-1.89-1.03-2.94-.62-4.77-1.19-9.55-1.65-14.34-.2-2.08-.96-3.42-3-4.29-3.28-1.41-6.31-3.45-9.65-4.68-9.54-3.52-14.78-10.79-17.97-19.91-3.67-10.51-4.14-21.25-1.58-32.05 1.61-6.78 2.09-7 10.26-7.89 1.32 8.74 3.24 17.48 3.84 26.32.8 11.4 6.67 18.51 17.63 23.68z"/><path d="m243.73 98.31c2.59-9.6 3.05-18.99 2.27-28.52-.7-8.45-1.9-16.95-1.48-25.35.33-6.53 2.82-12.95 4.31-19.23 5.98.34 8.54 2.33 9.11 7.14.45 3.87.32 7.81.33 11.72.03 16.68 0 33.36.02 50.04 0 3.76 1.66 5.05 5.32 3.84 8.03-2.64 11.68-9.24 13.39-16.69 1.44-6.28 1.49-12.87 2.28-19.3.29-2.3.69-4.67 1.53-6.81 1.05-2.69 3.5-3.48 6.28-3.62 2.84-.15 3.44 1.93 4.26 3.88 2.84 6.72 3.51 13.7 1.64 20.7s-4.16 13.9-6.52 20.76c-.53 1.53-1.89 3-3.24 3.97-3.63 2.61-7.54 4.82-11.19 7.4-2.92 2.06-6.01 3.42-9.59 3.44-2.03.01-3.14.98-3.42 2.91-.48 3.31-.96 6.63-1.29 9.96-.21 2.11.05 4.28-.26 6.36-.39 2.66-1.33 5.06-4.77 4.96-3.74-.11-5.37-1.63-5.78-5.29-.55-4.89-1.08-9.79-1.89-14.64-.19-1.14-1.27-2.55-2.31-3.06-3.5-1.72-7.13-3.21-10.79-4.59-13.51-5.11-19.61-15.64-21.13-29.26-.89-7.92-.28-15.81 1.83-23.61 1.13-4.15 4.44-2.44 6.77-3.27 2.31-.82 2.39 1.44 2.94 2.73 2.62 6.16 3.86 12.6 3.35 19.31-.91 11.99 1.53 16.35 12.37 21.74 1.75.84 3.62 1.52 5.66 2.38z"/></g><path d="m385.2 377.6.6-.7c.6.4 1.3.9 1.9 1.5l-.6.7c-.8-.5-1.4-1-1.9-1.5zm.3 7.1c.6-1.4 1.1-2.9 1.5-4.5.3.1.6.3.9.4-.5 1.4-1 2.9-1.5 4.4zm.2-10.1.6-.6c.7.5 1.3 1.1 1.9 1.6l-.7.7c-.6-.6-1.2-1.2-1.8-1.7zm8.4-.8h.8v.9h1.8v.7h-1.8v1.8h-.8v-.3h-1.2v.9h3.3v2.6h-.8v-.4h-2.5c0 .3 0 .6-.1.8h3.4v.7h-3.5c0 .3-.1.6-.1.8h4v.7h-3.5c.7.9 1.9 1.3 3.6 1.5-.2.2-.4.5-.6.9-1.9-.3-3.2-1.1-3.8-2.3-.5 1.1-1.8 2-3.9 2.4-.2-.3-.4-.5-.6-.8 1.9-.4 3.1-.9 3.6-1.7h-3.2v-.7h3.5c.1-.2.1-.5.2-.8h-3.3v-.7h3.4c0-.2 0-.5 0-.8h-2.4v.3h-.8v-2.6h3.3v-.9h-1.2v.3h-.8v-1.8h-1.8v-.7h1.8v-.9h.8v.9h3.2zm-4.4 5.5h2.4c0-.3 0-.6 0-.9h-2.4zm1.2-3.1h3.2v-.8h-3.2zm4.4 2.2h-2.4v.9h2.5v-.9z" fill="#fcfbfa"/><path d="m389.2 385.8h.9v1.5h1.9v-1.5h.9v1.5h2.7v6h1.1v.9h-11.3v-.9h1.1v-6h2.7zm.2 8.7.5.8c-1.2.6-2.5 1.3-4 1.9-.2-.3-.3-.6-.6-.8 1.6-.6 3-1.3 4.1-1.9zm-2-4.3h1.9v-2.1h-1.9zm0 3.1h1.9v-2.2h-1.9zm2.7-3.1h1.9v-2.1h-1.9zm0 3.1h1.9v-2.2h-1.9zm2.4 1.3c1.4.6 2.7 1.2 4.1 1.8l-.5.9c-1.5-.7-2.8-1.4-4.1-1.9zm2.2-6.5h-1.9v2.1h1.9zm-1.9 5.2h1.9v-2.2h-1.9z" fill="#fcfbfa"/></svg>