<svg enable-background="new 0 0 400 400" viewBox="0 0 400 400" xmlns="http://www.w3.org/2000/svg"><g fill="#fbfafa"><path d="m37.59 393.81c-.92.31-1.52.05-2-.78-.7-1.2-1.52-2.34-2.47-3.78v4.59c-.55.03-.95.05-1.41.07-.03-.37-.06-.64-.06-.91 0-1.91 0-3.81 0-5.7 1.13-.41 1.77-.03 2.29.91.62 1.11 1.38 2.14 2.31 3.19v-4.2h1.35v6.61z"/><path d="m12.94 393.88v-6.75c1.9.19 3.93-.54 5.37 1.29.8 1.01.78 2.88.03 3.97-1.37 1.97-3.4 1.51-5.4 1.49m1.45-1.22c2.04.12 2.92-.58 2.89-2.21-.03-1.51-.98-2.19-2.89-2z"/><path d="m11.81 393.87h-5.49c.68-2.18 2.47-3.48 3.51-5.45h-3.08v-1.21h5.29c-.71 2.13-2.44 3.48-3.47 5.51.86 0 1.63.04 2.39-.01.79-.05 1.14.21.85 1.16"/><path d="m39.33 393.86v-6.61h3.7v1.07h-2.22v1.52c.68.04 1.34.09 2.07.13v1.07c-.72.05-1.38.09-2.1.14v1.48h2.4v1.19h-3.85z"/><path d="m27.71 388.56c-1.15-.3-2.46-.61-3.1.64-.37.73-.41 1.93-.06 2.67.63 1.35 1.99.93 3.17.68.35.94-.01 1.32-.93 1.46-1.62.25-3.05-.27-3.76-1.48-.73-1.24-.6-3.03.31-4.17.88-1.11 2.71-1.7 4-1.16.32.13.44.74.65 1.12-.1.08-.19.16-.28.24"/><path d="m49.15 387.24v1.07c-.59.02-1.17.05-1.87.08v5.44h-1.48v-5.44h-1.85c-.05-.4-.08-.73-.13-1.15z"/><path d="m20.06 387.21h1.33v6.62h-1.33z"/><path d="m30.68 393.25c-.49.38-.8.79-1.05.76-.32-.05-.6-.45-.9-.7.26-.24.51-.64.8-.67.29-.04.62.3 1.15.61"/></g><path d="m263.45 234.5c.56 6.78 1 13.13 1.69 19.45.11.96 1.26 1.99 2.16 2.66 6.92 5.14 12.1 11.46 12.75 20.37.65 8.77-1.29 16.81-7.82 23.34-3.15 3.16-5.98 6.65-8.83 10.1-5.84 7.07-5.66 14.88.37 21.9 8.98 10.44 17.77 21.04 27.02 31.23 3.25 3.57 4.15 6.79 1.69 11.33-4.61-.16-9.35.46-13.35-4.03-8.41-9.43-17.5-18.25-25.85-27.73-3.03-3.44-5.08-7.87-7.05-12.1-2.63-5.65-2.89-11.39-.64-17.53 2.24-6.1 4.7-11.63 10.22-15.56 2.5-1.78 4.41-4.43 6.51-6.75 4.23-4.67 4.99-10.11 3.22-15.96-.32-1.05-1.29-2.06-2.22-2.74-8.55-6.25-13.67-14.27-13.65-25.19.01-4.13-.39-8.26-.62-12.62-11.87 0-23.57 0-35.68 0-1.13 8.06-2.27 16.21-3.4 24.37-1.16 8.42-1.99 16.9-3.54 25.25-1.82 9.81-6.67 18.37-13.6 25.39-7.84 7.95-16.4 15.18-24.52 22.86-4.63 4.37-8.98 9.04-13.55 13.49-1.83 1.78-3.71 3.72-5.94 4.85-2.19 1.11-4.85 1.66-7.33 1.75-2.85.1-4.41-1.14-4.29-4.73.15-4.5 1.8-7.47 5.02-10.6 12.35-12 24.46-24.26 36.38-36.69 10.61-11.07 15.63-24.87 17.82-39.76 1.08-7.39 1.51-14.88 2.31-23.07-3.38.16-6.43-.33-9 .56-7.57 2.6-15.17 5.3-22.36 8.78-9.55 4.63-18.67 10.13-28.08 15.04-2.52 1.31-5.4 2.1-8.2 2.65-2.31.46-4.92.34-5.81-2.59-.87-2.87-1.22-5.87 1.69-7.89 6.43-4.45 12.72-9.16 19.48-13.06 13.97-8.06 28.36-15.69 44.34-18.57 18.94-3.42 38.11-5.32 57.4-1.97 9.33 1.62 18.51.57 27.27-3.18 1.37-.59 2.7-1.6 3.66-2.73 3.84-4.52 7.51-9.18 11.27-13.77 1.23-1.51 2.16-3.51 4.81-2.55 2.74 1 5.57 2.16 5.56 5.48-.03 6.66-1.77 12.95-6.98 17.47-4.04 3.51-8.41 6.75-13.01 9.47-2.46 1.45-5.7 1.65-8.62 2.23-2.7.54-5.48.86-8.7 1.35z" fill="#010105"/><path d="m140.16 106.57c.55-7.65 1.64-14.86 1.45-22.03-.27-10.04-1.65-20.05-2.25-30.09-.57-9.58.42-18.98 4.65-27.75 5.38.2 8.41 2.29 9.57 7.21.76 3.23 1.17 6.62 1.17 9.94.04 19.47-.1 38.94-.15 58.41 0 .63.21 1.27.39 2.26 4.53-1.44 8.9-2.74 13.2-4.25.81-.28 1.43-1.32 1.96-2.13 4.98-7.61 6.83-16.16 7.63-25.06.29-3.22.63-6.49 1.51-9.58.58-2.05 1.83-4.15 3.36-5.63 2.78-2.68 5.59-1.89 7.32 1.54 4.55 9.03 4.01 18.37 1.73 27.82-.34 1.41-.76 2.8-1.17 4.2-1.96 6.65-4.63 12.81-10.81 16.76-1.12.71-2.15 1.64-3.05 2.63-5.18 5.74-11.65 8.84-19.3 9.41-2.62.2-4 1.69-4.3 3.89-.49 3.62-.72 7.31-.7 10.97.03 6.33-3.05 9.91-9.32 10.18-.89.04-2.13-.55-2.66-1.26-2.26-3.03-2.74-6.54-2.12-10.21.2-1.21.52-2.4.8-3.6 1.6-6.95.92-8.31-5.45-10.89-3.52-1.42-6.95-3.19-10.59-4.2-9.83-2.73-15.14-9.79-18.53-18.72-4.56-12.03-5.06-24.19-.55-36.38.77-2.09 6.88-4.41 8.77-3.26.57.35.88 1.22 1.17 1.92 3.05 7.17 3.37 14.66 3.28 22.35-.05 4.22.89 8.68 2.43 12.62 1.92 4.9 5.64 8.48 11.1 9.85 2.87.7 5.66 1.82 9.46 3.08z" fill="#010105"/><path d="m221.38 57.57c3.56 7.13 4.7 14.37 4.65 21.99-.03 4.61.23 9.46 1.63 13.79 1.89 5.83 5.81 10.22 12.63 11 2.84.33 5.61 1.28 9.01 2.1.56-4.81 1.53-9.32 1.52-13.82-.02-9.28-.41-18.56-.94-27.82-.67-11.69-1-23.31 4.34-34.18 1.1-2.25 1.34-5.84 5.47-4.93 3.91.86 6.02 3.41 5.99 7.72-.16 22.82-.37 45.65-.56 68.47-.01 1.34 0 2.68 0 4.52 4.99-1.72 9.93-2.89 14.28-5.17 2.02-1.06 3.16-4.17 4.24-6.56 3.03-6.69 2.97-13.91 3.29-21.06.12-2.66.38-5.39 1.11-7.93.57-1.96 1.7-3.95 3.09-5.45 3.32-3.57 5.3-3.19 7.31 1.14 7.41 15.98 5.04 31.35-4.08 45.62-3.85 6.03-10.1 10.06-17.55 11.48-2.3.44-4.55 1.16-6.81 1.75-5.34 1.4-6.45 2.86-5.9 8.37.22 2.2 1.2 4.34 1.31 6.54.08 1.61-.15 4.04-1.17 4.73-1.8 1.23-4.3 1.5-6.55 1.93-.3.06-1.04-1.28-1.3-2.06-1.83-5.4-3.67-10.79-5.33-16.24-.58-1.91-1.44-2.95-3.5-3.41-4.58-1.02-9.06-2.45-13.61-3.57-12.25-2.99-19.11-11.34-21.65-23.07-2.35-10.85-1.52-21.82 1.78-32.49.27-.87 1.27-1.78 2.14-2.13 1.51-.63 3.2-.82 5.16-1.26z" fill="#010105"/><path d="m196.81 165.92c-1.58-9.1-2.79-8.36 6.55-11.33 9.02-2.87 18.34-1.98 27.63-1.79 10.82.23 21.66.18 32.46-.29 7.53-.33 12.33-5.3 13.7-12.84.85-4.72 1.31-9.62 4.89-13.31 1.78-1.84 3.27-4.45 6.61-3.31 3.22 1.1 5.53 3.66 5.24 7.35-.38 4.75-1.64 9.42-2.35 14.15-1.34 9-6.81 14.21-14.92 17.69-11.33 4.86-23.2 6.5-35.31 6.99-14.89.61-29.73.13-44.5-3.31z" fill="#010105"/><path d="m196.81 201.37c-.71-8.61-.78-9.01 6.77-10.34 13.3-2.34 26.68-4.2 40.04-6.17 10.05-1.48 20.15-2.72 30.18-4.31 1.63-.26 3.48-1.43 4.52-2.74 3.39-4.29 6.37-8.91 9.71-13.24.87-1.13 2.85-2.65 3.68-2.33 1.88.73 4.03 2.18 4.82 3.91.76 1.68.42 4.24-.25 6.12-1.78 5.04-3.89 9.98-6.13 14.84-.58 1.27-1.96 2.41-3.26 3.08-10.07 5.16-20.97 7.8-32.05 9.16-13.94 1.71-27.99 2.72-42.02 3.5-5.27.29-10.62-.94-16.01-1.48z" fill="#010105"/><path d="m139.97 166.62c-11.69-.64-23.39-1.24-35.08-1.96-1.76-.11-3.45-.96-5.22-1.19-2.86-.36-3.87-1.73-4.27-4.68-.47-3.42.39-4.88 3.59-6.12 4.66-1.81 9.27-2.77 14.3-2.71 17.01.19 34.03-.04 51.04.16 3.62.04 7.28.96 10.81 1.91 2.84.77 4.31 3.02 4.35 6.08.04 3.1-1.71 4.78-4.49 5.35-3.81.78-7.65 1.69-11.51 1.83-7.82.28-15.65.08-23.48.08-.01.42-.03.84-.04 1.25z" fill="#010105"/><path d="m131 197.41c-10.95-.34-21.9-.69-32.85-1.03-2.81-.09-5.18-2.46-5.26-5.72-.07-2.74.24-5.45 3.93-5.86 5.08-.56 10.14-1.72 15.21-1.77 17.34-.16 34.69.02 52.03.18 2.55.02 5.15.44 7.61 1.1 1.53.41 3.28 1.31 4.18 2.54 2.55 3.48 3.41 6.06-1.33 8.65-4.74 2.6-9.87 2.7-15 2.75-9.5.08-19 .02-28.5.02-.02-.28-.02-.57-.02-.86z" fill="#010105"/></svg>