<svg enable-background="new 0 0 400 400" viewBox="0 0 400 400" xmlns="http://www.w3.org/2000/svg"><g fill="#010103"><path d="m178.95 244.2c-3.09-1.68-5.69-3.22-8.39-4.53-18.17-8.81-22.13-26.29-16.65-43.41 2.79-8.71 9.45-13.57 16.21-18.52 5.4-3.95 11.33-6.73 18.16-7.08 2.31-.12 3.14-1.11 3.19-3.56.14-8.16.58-16.32.89-24.49.02-.63-.12-1.28-.27-2.75-8.72 2.49-17.52 4.05-25.52 7.47-19.3 8.26-38.2 17.45-57.34 26.11-3.84 1.74-7.96 2.91-12.02 4.07-2.64.75-5.18.42-6.48-2.58-1.36-3.14-.67-6.51 1.77-8.39 9.71-7.52 20.65-12.85 31.7-18.03 20.91-9.8 42.51-17.61 65.06-22.66 2.77-.62 4.14-1.94 4.12-4.66-.03-4.57-.52-9.17-.13-13.7.38-4.38 1.5-8.72 2.6-13.01.19-.74 1.98-1.65 2.89-1.51 5.01.76 8.13 4.48 7.89 9.63-.25 5.46-1.19 10.89-1.33 16.34-.15 5.83.05 6.06 5.69 7.44 14.43 3.53 27.93 9.16 40.79 16.61 13.34 7.73 27 14.91 40.48 22.41 3.64 2.03 6.45 4.78 6.76 9.35.17 2.49-.7 3.96-3.12 4.75-3.13 1.03-5.88.39-8.67-1.12-19.35-10.5-38.6-21.21-58.17-31.27-6.66-3.42-14.17-5.18-21.89-7.9-.63 10.43-1.22 20.1-1.83 30.11 5.13 1.32 10.17 2.67 15.23 3.9 14.22 3.45 22.7 12.88 26.79 26.4 3.1 10.23.81 19.92-4.71 28.89-.62 1.01-1.64 1.81-2.6 2.55-5.57 4.31-11.17 8.57-17.1 13.11 3.13 2.32 6 4.52 8.94 6.63 13.21 9.49 20.77 22.77 25.8 37.86 5.95 17.84 11.29 35.83 13.11 54.64.91 9.4.54 18.78-2.26 27.92-1.2 3.93-5.8 5.69-9.11 3.37-.59-.41-.94-1.44-1.04-2.23-2.49-20.65-4.58-41.35-7.46-61.94-2.85-20.39-12.9-37.05-28.98-49.78-13.39-10.59-29.13-8.67-41.32-.48-5.6 3.76-9.57 10.28-13.56 16.04-11.17 16.12-17.24 34.35-19.91 53.58-1.26 9.03-.55 18.33-1.07 27.48-.24 4.2-.94 8.45-2.09 12.49-1.02 3.58-4.14 5.32-7.43 5.14-1.8-.1-2.91-.63-3.39-2.81-2.31-10.61-2.47-21.33-1.7-32.06 1.21-16.91 3.88-33.57 10.78-49.21 3.56-8.07 6.71-16.66 11.98-23.53 6.18-8.05 12.98-16.04 22.06-21.37.73-.44 1.46-.95 2.65-1.71zm23.24-10.54c3.68-.94 9.92-1.89 15.64-4.15 8.03-3.18 14.38-8.44 16.53-17.56 1.75-7.45-.09-13.93-6.68-17.73-5.76-3.32-11.97-5.97-18.21-8.31-12.27-4.61-23.47-1.9-34.34 5.06-9.42 6.02-10.62 20.21-5.99 27.27 7.36 11.2 18.2 14.36 33.05 15.42z"/><path d="m143.37 25.41c5.01 1.46 7.63 4.8 9.43 8.92 3.24 7.43 3.8 15.42 4.02 23.33.34 12.49.09 24.99.09 37.56 5 1.04 9.41-.81 12-5.17 4.57-7.7 6.29-16.15 6.78-24.98.18-3.21.56-6.48 1.43-9.56.54-1.9 1.89-3.86 3.43-5.14 2.94-2.45 5.39-1.69 7.01 1.73 4.5 9.48 3.89 19.33 1.86 29.21-.67 3.26-1.9 6.41-2.9 9.6-2.29 7.28-7.5 12.04-13.9 15.62-1.69.95-3.75 1.43-5.7 1.71-11.16 1.56-12.39 2.56-14.69 14.14-.24 1.2-.23 2.45-.38 3.67-.89 7.16-3.64 9.14-10.9 7.88-.86-.15-1.7-.39-2.73-.63.49-6.05.84-11.95 1.49-17.82.24-2.19-.42-3.17-2.39-3.99-4.12-1.73-7.99-4.11-12.19-5.55-6.74-2.31-10.7-7.25-13.24-13.36-5.09-12.25-5.66-24.87-2.55-37.78 1.17-4.84 4.17-6.38 8.87-6.4 3.15 6.72 4.86 13.91 5.16 21.45.08 2.01.11 4.04-.05 6.04-.81 9.7 4.05 15.61 12.61 19.09 1.73.71 3.52 1.28 6.28 2.27.39-7.27 1.29-14.03.98-20.74-.42-9.25-1.83-18.46-2.68-27.69-.73-7.88-.15-15.61 2.86-23.41z"/><path d="m269.4 111.41c.46 5.87.85 10.99 1.25 16.1.09 1.23.31 2.46.22 3.68-.21 2.77-.67 5.67-4.15 5.96-4.45.36-7.04-.3-7.77-4.32-.91-5.04-1.81-10.1-2.42-15.19-.44-3.62-2.01-5.58-5.76-6.04-2.75-.34-5.39-1.51-8.14-1.92-12.85-1.93-22.43-15.79-23.31-27.41-.59-7.78-.27-15.35 1.32-22.98.7-3.36 2.1-5.18 5.51-5.4.76-.05 1.51-.3 2.56-.53 3.82 7.34 6.45 15.11 5.54 23.39-1.07 9.68 3.05 14.49 12.05 18.42 2.13.93 4.35 1.63 7.35 2.74.68-6.51 1.65-12.54 1.87-18.59.33-9.16-.08-18.35.25-27.51.27-7.55 1.93-14.87 6.35-21.23.93-1.33 2.94-3.4 3.66-3.11 2.21.87 4.87 2.32 5.81 4.28 1.23 2.56 1.5 5.88 1.27 8.8-1.36 17.28-3 34.53-4.52 51.8-.4 4.6 1.59 6.31 6.09 5.07 6.04-1.66 10.87-4.96 12.57-11.31 1.26-4.72 2.07-9.57 2.83-14.4.49-3.08.14-6.32.88-9.32.58-2.36 1.81-4.92 3.53-6.57 2.98-2.87 5.97-1.95 7.85 1.66 4.24 8.15 3.73 16.61 1.74 25.18-.35 1.52-.79 3.03-1.16 4.55-1.57 6.48-4.77 11.44-10.45 15.6-6.82 4.99-13.86 8.31-22.82 8.6z"/></g><path d="m385.2 377.6.6-.7c.6.4 1.3.9 1.9 1.5l-.6.7c-.8-.5-1.4-1-1.9-1.5zm.3 7.1c.6-1.4 1.1-2.9 1.5-4.5.3.1.6.3.9.4-.5 1.4-1 2.9-1.5 4.4zm.2-10.1.6-.6c.7.5 1.3 1.1 1.9 1.6l-.7.7c-.6-.6-1.2-1.2-1.8-1.7zm8.4-.8h.8v.9h1.8v.7h-1.8v1.8h-.8v-.3h-1.2v.9h3.3v2.6h-.8v-.4h-2.5c0 .3 0 .6-.1.8h3.4v.7h-3.5c0 .3-.1.6-.1.8h4v.7h-3.5c.7.9 1.9 1.3 3.6 1.5-.2.2-.4.5-.6.9-1.9-.3-3.2-1.1-3.8-2.3-.5 1.1-1.8 2-3.9 2.4-.2-.3-.4-.5-.6-.8 1.9-.4 3.1-.9 3.6-1.7h-3.2v-.7h3.5c.1-.2.1-.5.2-.8h-3.3v-.7h3.4c0-.2 0-.5 0-.8h-2.4v.3h-.8v-2.6h3.3v-.9h-1.2v.3h-.8v-1.8h-1.8v-.7h1.8v-.9h.8v.9h3.2zm-4.4 5.5h2.4c0-.3 0-.6 0-.9h-2.4zm1.2-3.1h3.2v-.8h-3.2zm4.4 2.2h-2.4v.9h2.5v-.9z" fill="#fcfbfa"/><path d="m389.2 385.8h.9v1.5h1.9v-1.5h.9v1.5h2.7v6h1.1v.9h-11.3v-.9h1.1v-6h2.7zm.2 8.7.5.8c-1.2.6-2.5 1.3-4 1.9-.2-.3-.3-.6-.6-.8 1.6-.6 3-1.3 4.1-1.9zm-2-4.3h1.9v-2.1h-1.9zm0 3.1h1.9v-2.2h-1.9zm2.7-3.1h1.9v-2.1h-1.9zm0 3.1h1.9v-2.2h-1.9zm2.4 1.3c1.4.6 2.7 1.2 4.1 1.8l-.5.9c-1.5-.7-2.8-1.4-4.1-1.9zm2.2-6.5h-1.9v2.1h1.9zm-1.9 5.2h1.9v-2.2h-1.9z" fill="#fcfbfa"/></svg>