<svg enable-background="new 0 0 400 400" viewBox="0 0 400 400" xmlns="http://www.w3.org/2000/svg"><g fill="#fbfafa"><path d="m37.59 393.81c-.92.31-1.52.05-2-.78-.7-1.2-1.52-2.34-2.47-3.78v4.59c-.55.03-.95.05-1.41.07-.03-.37-.06-.64-.06-.91 0-1.91 0-3.81 0-5.7 1.13-.41 1.77-.03 2.29.91.62 1.11 1.38 2.14 2.31 3.19v-4.2h1.35v6.61z"/><path d="m12.94 393.88v-6.75c1.9.19 3.93-.54 5.37 1.29.8 1.01.78 2.88.03 3.97-1.37 1.97-3.4 1.51-5.4 1.49m1.45-1.22c2.04.12 2.92-.58 2.89-2.21-.03-1.51-.98-2.19-2.89-2z"/><path d="m11.81 393.87h-5.49c.68-2.18 2.47-3.48 3.51-5.45h-3.08v-1.21h5.29c-.71 2.13-2.44 3.48-3.47 5.51.86 0 1.63.04 2.39-.01.79-.05 1.14.21.85 1.16"/><path d="m39.33 393.86v-6.61h3.7v1.07h-2.22v1.52c.68.04 1.34.09 2.07.13v1.07c-.72.05-1.38.09-2.1.14v1.48h2.4v1.19h-3.85z"/><path d="m27.71 388.56c-1.15-.3-2.46-.61-3.1.64-.37.73-.41 1.93-.06 2.67.63 1.35 1.99.93 3.17.68.35.94-.01 1.32-.93 1.46-1.62.25-3.05-.27-3.76-1.48-.73-1.24-.6-3.03.31-4.17.88-1.11 2.71-1.7 4-1.16.32.13.44.74.65 1.12-.1.08-.19.16-.28.24"/><path d="m49.15 387.24v1.07c-.59.02-1.17.05-1.87.08v5.44h-1.48v-5.44h-1.85c-.05-.4-.08-.73-.13-1.15z"/><path d="m20.06 387.21h1.33v6.62h-1.33z"/><path d="m30.68 393.25c-.49.38-.8.79-1.05.76-.32-.05-.6-.45-.9-.7.26-.24.51-.64.8-.67.29-.04.62.3 1.15.61"/></g><path d="m243.04 287.01c-.58-8.63-1.18-16.75-1.64-24.88-.12-2.21-.06-4.49.34-6.66.69-3.83 3.55-6.23 7.27-6.1 1.07.04 2.74.86 3.05 1.72 1.54 4.28 3.48 8.61 3.89 13.05 1.34 14.69 2.5 29.43 2.95 44.17.48 15.76-1.45 31.28-8.5 45.72-.7 1.43-1.84 2.77-3.07 3.81-2.48 2.09-5.34 3.74-7.72 5.92-7.32 6.72-16.12 9.91-25.75 11-19.23 2.19-38.18.92-56.65-5.23-15.31-5.1-22.78-16.71-25.77-31.79-3.49-17.59-3.49-35.41-2.22-53.17.73-10.33 2.83-20.55 4.32-30.83.39-2.7 2.13-5.09 4.48-5.14 1.93-.03 4.4 1.74 5.76 3.42 3.22 3.94 2.69 8.81 2.16 13.52-.41 3.67-1.01 7.31-1.39 10.98-.17 1.65-.16 3.36.02 5.01.56 5.16.97 5.48 6.21 5.48h87.29zm-100.73 13.33c.91 12.55.76 24.05 2.82 35.15 2.02 10.89 7.71 19.71 20.12 22.41 15.14 3.29 30.33 4.21 45.64 2.53 5.8-.64 11.75-2.03 17.08-4.35 5.65-2.46 10.84-6.15 12.13-13.2 1.15-6.26 2.93-12.4 4.02-18.67 1.27-7.29 1.72-14.63-.49-21.92-.75-2.47-2-3.19-4.54-3.13-19.11.48-38.21.89-57.32 1.14-12.74.17-25.47.04-39.46.04z" fill="#010105"/><path d="m312.47 279.59c-1.25-.83-4.01-1.91-5.67-3.91-20.01-24.12-39.77-48.46-59.77-72.58-11.86-14.3-23.84-28.5-36.2-42.36-3.15-3.54-7.84-5.8-12.07-8.22-1.26-.72-3.46-.35-5.04.15-6.44 2.04-11.55 5.94-15.93 11.14-23.08 27.38-46.39 54.57-69.43 81.99-4.88 5.81-8.88 12.35-13.38 18.48-3.26 4.44-7.41 7.77-12.86 9.17-4.27 1.1-7.38-1.76-6.03-6.02 1.06-3.35 2.57-6.82 4.79-9.49 26.61-32.03 53.32-63.98 80.17-95.8 7.74-9.17 16.26-17.63 27.2-23.1 1.5-.75 3.39-1.2 5.04-1.07 8.64.73 16.07 4.31 22.65 9.91 11.25 9.58 20.05 21.36 29.58 32.49 21.12 24.65 42.21 49.32 63.33 73.97 4.87 5.68 8.88 11.79 10.16 19.35.59 3.44-1.61 6-6.54 5.9z" fill="#010105"/><path d="m244.23 117.85c0-7.47-.08-14.29.02-21.1.19-14.21.29-28.42.78-42.62.3-8.86 2.1-17.51 5.33-25.84 1.1-2.83 2.89-3.51 5.03-1.89 1.94 1.46 4.1 3.43 4.75 5.61.94 3.11.88 6.62.75 9.94-.35 8.69-1.22 17.37-1.42 26.06-.35 14.77-.33 29.54-.49 44.32-.05 4.6 1.72 5.83 6.22 4.41 6.93-2.18 11.57-7.08 14.06-13.47 1.91-4.89 2.44-10.35 3.27-15.61.68-4.3.75-8.7 1.37-13.01.65-4.54 3.32-7.06 7.02-7.35 2.28-.18 3.67.57 4.72 2.75 3.16 6.61 3.9 13.51 2.84 20.63-.58 3.86-1.58 7.66-2.49 11.46-1.65 6.89-4.44 13.03-10.82 17-2.16 1.34-4.07 3.16-5.92 4.95-3.65 3.54-7.87 5.61-12.93 6.5-5.82 1.02-6.8 2.44-6.56 8.33.17 4.13.82 8.23 1.05 12.36.11 1.97.13 4.1-.52 5.91-1.1 3.08-3.99 4.5-6.97 4.16-1.5-.17-3.35-2.09-4.01-3.66-1.1-2.6-1.5-5.54-1.93-8.38-.21-1.4.17-2.89.24-4.34.46-9.68-.41-11.05-9.21-14.59-3.21-1.29-6.35-2.85-9.65-3.86-10.21-3.12-15.74-10.82-19.16-20.11-4.01-10.9-4.92-22.21-2.24-33.67.91-3.92 5.34-6.56 9.03-5.13.77.3 1.43 1.33 1.8 2.17 3.27 7.39 5.07 15.18 4.12 23.2-1.39 11.77 3.98 16.74 12.03 20.83 3.02 1.53 6.3 2.59 9.89 4.04z" fill="#010105"/><path d="m137.13 29.07c6.18.37 8.82 2.39 9.12 8 .86 16.53 1.42 33.07 2 49.61.33 9.28.47 18.57.71 27.86.02.65.17 1.3.25 1.95 10.47-.55 17.04-6.15 19.03-17.56 1.4-8.01 1.43-16.25 2.2-24.37.26-2.76.68-5.55 1.38-8.23.77-2.96 3.02-4.08 6.05-4.34 3.09-.27 4.01 1.57 4.93 3.88 3.66 9.16 3.35 18.58 2.1 28.1-1.32 10.08-4.58 19.23-11.62 26.93-3.19 3.49-6.59 6.29-11.08 7.77-3.6 1.19-7.12 2.7-10.78 3.64-2.61.67-3.86 2.1-3.96 4.57-.2 4.89-.23 9.79-.36 14.69-.04 1.55.08 3.17-.31 4.64-.82 3.09-4.29 5.27-8.18 5.28-3.15.01-3.53-2.8-4.07-4.84-.62-2.3-.64-4.82-.53-7.22.1-1.98.81-3.93 1.19-5.9 1.43-7.24-.05-10.19-6.62-13.24-2.23-1.03-4.43-2.15-6.74-2.99-12.32-4.45-18.03-14.2-20.43-26.19-2.26-11.28-2.03-22.7-.23-34.07.55-3.5 6.81-6.48 9.68-4.52.62.42.86 1.51 1.15 2.33 3.06 8.71 3.83 17.66 2.84 26.8-.79 7.33-.14 14.37 6.15 19.18 3.81 2.91 8.36 4.87 12.57 7.25.48-.23.96-.46 1.44-.69.7-7.05 2.11-14.11 1.94-21.13-.27-10.82-1.68-21.61-2.52-32.42-.89-11.69-.3-23.25 2.7-34.77z" fill="#010105"/><path d="m155.16 235.25c-.89-8.4-.95-8.55 5.9-11.27 2.61-1.04 5.56-1.72 8.36-1.73 18.55-.04 37.11.1 55.66.31 2.53.03 5.28.3 7.51 1.36 2 .95 3.68 2.95 5.01 4.84 1.27 1.8.42 3.44-1.41 4.78-4.34 3.19-9.38 3.45-14.39 3.59-14.62.4-29.26 1-43.88.8-7.62-.11-15.22-1.75-22.76-2.68z" fill="#010105"/></svg>