<svg enable-background="new 0 0 400 400" viewBox="0 0 400 400" xmlns="http://www.w3.org/2000/svg"><g fill="#010103"><path d="m241.75 220.75c5.71 0 11.06-.04 16.4.01 8.95.08 17.92-.03 26.85.45 4.04.22 8.07 1.48 12.01 2.59 2.8.79 3.76 3.15 4.08 5.95.33 2.92-1.78 3.87-3.7 4.4-5.22 1.45-10.52 3.32-15.86 3.57-11.6.56-23.24.22-34.86.28-1.54.01-3.09.23-5.11.4v50.5c4.47.26 9.32.72 14.18.79 7.05.09 14.11-.3 21.15-.09 3.05.09 6.21.8 9.07 1.9 1.71.65 3.28 2.37 4.28 4 2.34 3.83 1.46 5.88-2.58 7.73-5.69 2.6-11.73 2.52-17.77 2.64-15.77.3-31.54.68-47.3 1.01-13.55.28-27.09.34-40.35-3.14-1.6-.42-3.36-.83-4.64-1.79-3.23-2.44-2.43-8.54 1.42-9.59 5.23-1.42 10.64-2.71 16.02-2.94 10.61-.45 21.25-.13 32.48-.13 0-17.06 0-33.87 0-51.5-7.59 0-15.4.07-23.21-.02-7.83-.09-15.67-.2-23.48-.63-2.84-.16-5.7-1.04-8.41-2-2.41-.85-3.5-2.91-3.62-5.53-.12-2.72.6-4.54 3.43-5.68 6.47-2.6 13.17-3.3 20.04-3.27 11.82.05 23.65.01 35.66.01 0-14.88 0-29.25 0-44.13-8.49 0-16.84.03-25.19-.02-2.9-.02-5.8-.16-8.69-.38-1.1-.08-2.2-.44-3.24-.83-3.86-1.47-7.39-5.93-5.77-8.61 1.33-2.19 4.95-3.04 7.64-4.31.73-.35 1.77-.06 2.66-.06 22.73 0 45.46-.02 68.19.02 3.46.01 6.94.17 10.39.48 1.52.13 3.58.33 4.35 1.32 1.38 1.79 2.27 4.12 2.82 6.36.6 2.43-1.78 3.08-3.35 3.34-5.25.87-10.54 1.7-15.84 1.93-5.45.24-10.93-.27-16.4-.37-1.61-.03-2.66.53-2.71 2.55-.27 13.95-.66 27.93-1.04 42.79z"/><path d="m154.05 374.67c-5.35-8.56-6.12-17.79-6.97-27.08-1.07-11.69-2.62-23.34-3.79-35.02-2-20.01-1.75-40.06.64-59.99 1.94-16.19 5.01-32.25 7.18-48.42.7-5.26.24-10.7.11-16.05-.15-5.76-3.99-8.52-8.98-9.85-4.74-1.26-9.6-2.12-14.83-3.24-.9 6.89-1.88 13.61-2.64 20.35-2.2 19.45-5.04 38.86-6.25 58.37-1.29 20.86-1.08 41.81-1.39 62.72-.11 7.38.19 14.76.2 22.14 0 1.43-.14 3.01-.74 4.26-.7 1.43-1.79 3.37-3.06 3.67-2.34.56-5.36.95-6.44-2.35-1.41-4.31-3.58-8.66-3.72-13.05-.48-15.2-.12-30.43-.27-45.64-.32-32 3.51-63.64 7.96-95.23.7-4.97 1.22-9.97 1.91-15.65-3.25-.38-6.29-.77-9.33-1.08-1-.1-2.01-.01-3.02-.02-5.09-.01-6.94-1.18-6.81-4.81.22-5.92 1.22-7.91 7.03-7.94 10.05-.06 20.11.6 30.16 1.08 6.88.33 13.53 1.79 19.67 5.02 12.38 6.51 18.49 18.77 16.04 32.85-2.27 12.99-5.44 25.84-7.28 38.88-3.72 26.32-5.59 52.76-1.85 79.28 1.53 10.85 3.68 21.61 4.96 32.48.73 6.18.32 12.49.36 18.75.02 2.78-.96 4.65-4.22 4.67-1.52 0-3.04.57-4.63.9z"/><path d="m129.15 110.6c3.57-14.64 2.85-29.03-.02-43.46-2.51-12.63-1.72-25.12 1.76-37.51.8-2.85 2.19-3.16 4.6-2.41 3.65 1.13 5.04 3.86 5.3 7.35.7 9.59 1.53 19.17 1.96 28.77.67 14.75 1.05 29.52 1.57 44.28.03.97.19 1.93.29 2.88 11.14-.1 15.74-10.08 17.59-18.23.82-3.63.4-7.55.51-11.33.23-7.49.25-14.99.74-22.45.29-4.33 2.3-6.01 6.22-6.72 2.3-.41 3.66.21 4.66 2.47 3.62 8.2 4.62 16.8 4.06 25.6-.68 10.66-2.29 21.15-7.85 30.55-.86 1.45-2.22 2.79-3.66 3.67-4.66 2.87-9.39 5.66-14.26 8.17-2.19 1.13-4.78 1.45-7.13 2.29-.94.34-2.26.93-2.48 1.68-1.1 3.71-2.06 7.48-2.74 11.29-.37 2.06.04 4.25-.12 6.37-.38 5.1-5.82 9.53-10.85 8.78-.79-.12-1.69-.99-2.14-1.75-2.44-4.14-2.23-8.51-1-12.98.82-3 1.58-6.04 2.05-9.11.39-2.56-.65-4.37-3.36-5.39-3.97-1.49-7.66-3.75-11.67-5.07-6.9-2.29-10.58-7.44-13.45-13.59-4.17-8.92-4.69-18.44-3.98-27.94.56-7.42 2.33-14.74 3.49-22.11.54-3.48 3.28-2.53 5.43-2.98 2.24-.47 2.91.82 3.57 2.51 3.61 9.29 5.04 18.93 2.91 28.65-3.33 15.14 6.26 23.65 18 27.72z"/><path d="m232.17 112.82c.76-6.56 1.39-11.86 1.98-17.17 2.22-19.9 4.34-39.81 6.73-59.69.32-2.64 1.65-5.3 3.03-7.64 1.03-1.75 2.21-4.04 5.22-3.08 3.18 1.01 5.01 3.11 5.04 6.34.03 3.46-.32 6.93-.71 10.37-2.07 18-4.35 35.98-6.24 54-.56 5.3-.09 10.71-.09 16.1 11.47-.68 20.97-9.4 22.61-21.27 1.28-9.29 1.42-18.73 2.08-28.1.35-4.99 2.15-7.55 5.66-8.5 1.96-.53 3.03.01 4.01 1.82 5.35 9.86 6.28 20.29 3.52 30.92-1.96 7.53-4.02 15.25-7.56 22.09-4.58 8.85-13.04 13.55-22.63 15.93-7.09 1.76-7.86 2.69-6.7 10.01.49 3.08 1.71 6.09 1.86 9.17.1 1.96-.62 5.11-1.93 5.75-2.41 1.17-5.53.93-8.36 1.1-.25.01-.67-1.28-.86-2.01-1.57-5.94-3.17-11.88-4.62-17.85-.51-2.11-1.42-3.49-3.53-4.39-3.6-1.52-6.94-3.68-10.57-5.08-11.14-4.29-16.71-13.19-19.48-23.98-3.3-12.87-2.69-25.98-.61-39.01.47-2.95 3.12-3.77 5.78-4.16 2.55-.38 4.01.41 4.91 3.11 2.99 8.98 3.86 18.12 2.95 27.48-.7 7.18.05 14.13 5.72 19.17 3.58 3.19 8 5.42 12.79 8.57z"/></g><path d="m385.2 377.6.6-.7c.6.4 1.3.9 1.9 1.5l-.6.7c-.8-.5-1.4-1-1.9-1.5zm.3 7.1c.6-1.4 1.1-2.9 1.5-4.5.3.1.6.3.9.4-.5 1.4-1 2.9-1.5 4.4zm.2-10.1.6-.6c.7.5 1.3 1.1 1.9 1.6l-.7.7c-.6-.6-1.2-1.2-1.8-1.7zm8.4-.8h.8v.9h1.8v.7h-1.8v1.8h-.8v-.3h-1.2v.9h3.3v2.6h-.8v-.4h-2.5c0 .3 0 .6-.1.8h3.4v.7h-3.5c0 .3-.1.6-.1.8h4v.7h-3.5c.7.9 1.9 1.3 3.6 1.5-.2.2-.4.5-.6.9-1.9-.3-3.2-1.1-3.8-2.3-.5 1.1-1.8 2-3.9 2.4-.2-.3-.4-.5-.6-.8 1.9-.4 3.1-.9 3.6-1.7h-3.2v-.7h3.5c.1-.2.1-.5.2-.8h-3.3v-.7h3.4c0-.2 0-.5 0-.8h-2.4v.3h-.8v-2.6h3.3v-.9h-1.2v.3h-.8v-1.8h-1.8v-.7h1.8v-.9h.8v.9h3.2zm-4.4 5.5h2.4c0-.3 0-.6 0-.9h-2.4zm1.2-3.1h3.2v-.8h-3.2zm4.4 2.2h-2.4v.9h2.5v-.9z" fill="#fcfbfa"/><path d="m389.2 385.8h.9v1.5h1.9v-1.5h.9v1.5h2.7v6h1.1v.9h-11.3v-.9h1.1v-6h2.7zm.2 8.7.5.8c-1.2.6-2.5 1.3-4 1.9-.2-.3-.3-.6-.6-.8 1.6-.6 3-1.3 4.1-1.9zm-2-4.3h1.9v-2.1h-1.9zm0 3.1h1.9v-2.2h-1.9zm2.7-3.1h1.9v-2.1h-1.9zm0 3.1h1.9v-2.2h-1.9zm2.4 1.3c1.4.6 2.7 1.2 4.1 1.8l-.5.9c-1.5-.7-2.8-1.4-4.1-1.9zm2.2-6.5h-1.9v2.1h1.9zm-1.9 5.2h1.9v-2.2h-1.9z" fill="#fcfbfa"/></svg>