<svg enable-background="new 0 0 400 400" viewBox="0 0 400 400" xmlns="http://www.w3.org/2000/svg"><g fill="#fbfafa"><path d="m37.59 393.81c-.92.31-1.52.05-2-.78-.7-1.2-1.52-2.34-2.47-3.78v4.59c-.55.03-.95.05-1.41.07-.03-.37-.06-.64-.06-.91 0-1.91 0-3.81 0-5.7 1.13-.41 1.77-.03 2.29.91.62 1.11 1.38 2.14 2.31 3.19v-4.2h1.35v6.61z"/><path d="m12.94 393.88v-6.75c1.9.19 3.93-.54 5.37 1.29.8 1.01.78 2.88.03 3.97-1.37 1.97-3.4 1.51-5.4 1.49m1.45-1.22c2.04.12 2.92-.58 2.89-2.21-.03-1.51-.98-2.19-2.89-2z"/><path d="m11.81 393.87h-5.49c.68-2.18 2.47-3.48 3.51-5.45h-3.08v-1.21h5.29c-.71 2.13-2.44 3.48-3.47 5.51.86 0 1.63.04 2.39-.01.79-.05 1.14.21.85 1.16"/><path d="m39.33 393.86v-6.61h3.7v1.07h-2.22v1.52c.68.04 1.34.09 2.07.13v1.07c-.72.05-1.38.09-2.1.14v1.48h2.4v1.19h-3.85z"/><path d="m27.71 388.56c-1.15-.3-2.46-.61-3.1.64-.37.73-.41 1.93-.06 2.67.63 1.35 1.99.93 3.17.68.35.94-.01 1.32-.93 1.46-1.62.25-3.05-.27-3.76-1.48-.73-1.24-.6-3.03.31-4.17.88-1.11 2.71-1.7 4-1.16.32.13.44.74.65 1.12-.1.08-.19.16-.28.24"/><path d="m49.15 387.24v1.07c-.59.02-1.17.05-1.87.08v5.44h-1.48v-5.44h-1.85c-.05-.4-.08-.73-.13-1.15z"/><path d="m20.06 387.21h1.33v6.62h-1.33z"/><path d="m30.68 393.25c-.49.38-.8.79-1.05.76-.32-.05-.6-.45-.9-.7.26-.24.51-.64.8-.67.29-.04.62.3 1.15.61"/></g><path d="m186.43 145.98c-2.47 0-4.63-.33-6.65.06-9.88 1.87-18.05 6-23.51 15.24-7.26 12.3-11.77 25.26-12.73 39.48-.22 3.24-.28 6.5-.79 9.69-.29 1.79-.92 4-2.2 5.04-1.54 1.25-3.88 1.79-5.95 2.03-2.35.27-3.05-1.85-3.63-3.68-2.7-8.51-1.99-17.05.21-25.49 3.31-12.69 7.85-24.94 13.96-36.56 1.08-2.06 2.92-3.92 4.82-5.32 4.32-3.18 9.06-5.8 13.31-9.07 4.62-3.56 9.7-5.28 15.43-5.64 2.89-.18 5.76-.98 8.65-1.07 2.69-.08 4.42-1.31 5.69-3.43 2.12-3.55 4.38-7.03 6.18-10.73 2.98-6.16 7.45-10.77 13.29-14.25 2.5-1.49 5.09-1.3 6.79.45 1.31 1.35 1.97 3.94 1.84 5.9-.12 1.83-1.48 3.69-2.62 5.31-4.2 5.91-8.53 11.71-13.14 18 4.18 1.42 7.88 2.88 11.69 3.95 19.23 5.41 31.81 27.12 28.9 47.46-1.88 13.12-5.49 25.54-12.31 36.94-.89 1.49-2.1 2.94-3.5 3.95-3.22 2.34-7.92.39-7.99-3.55-.06-3.34.46-6.95 1.75-10.01 3.54-8.39 6.55-16.86 7.34-26 .86-9.91.48-19.49-6.59-27.52-2.71-3.07-5.71-5.55-9.71-6.87-4.63-1.53-9.15-3.44-14.41-5.45 0 4.3-.07 8.05.01 11.8.22 10.48-1.07 20.65-4.73 30.58-3.01 8.17-5.43 16.56-7.89 24.92-1.13 3.84-3.09 6.42-7.28 6.69-2.2.14-3.41 1.11-3.82 3.36-1.25 6.86-6.81 10.6-11.41 14.84-4.98 4.59-7.98 10.09-9.99 16.68 5.74 3.86 11.3 8.02 17.26 11.49 5.12 2.98 8.38 7.17 10.7 12.41 10.05 22.63 9.9 44.85-2.61 66.59-.5.86-1.01 1.79-1.74 2.43-2.34 2.06-5.03 3.9-8.17 2.28-2.97-1.53-3.16-4.88-2.92-7.68.3-3.4 1.41-6.75 2.27-10.09 1.85-7.22 4.87-14.34 5.45-21.65 1.35-17.04-5.84-30.52-20.24-41-.39 4.91-.89 9.27-1.04 13.65-.86 23.75-7.52 45.98-17.53 67.34-2.89 6.17-5.59 12.46-9.07 18.29-1.65 2.77-4.57 5.48-7.53 6.64-5.89 2.3-8.31-.92-7.87-6.7.14-1.82 1-3.68 1.88-5.33 4.89-9.16 10.25-18.09 14.76-27.44 5.92-12.28 9.51-25.26 10.05-39.02.28-7.15 1.21-14.27 1.67-21.41.36-5.49-1.99-7.36-7.36-6.15-3.11.71-5.67 2.07-7.88 4.62-8.98 10.35-13.26 22.71-15.48 35.87-1.01 6.02-.89 12.22-1.66 18.29-.29 2.3-1.17 4.83-2.59 6.63-2.83 3.59-7.49 2.67-9.22-1.53-3.7-8.97-3.91-18.29-.94-27.29 3.95-11.96 8.81-23.61 13.31-35.39.27-.72.63-1.51 1.19-2 6.72-5.91 13.34-12.01 22.32-14.41 1.08-.29 2.25-.87 3.26-.69 5.27.97 6.92-2.37 8.4-6.41 1.49-4.09 3.22-8.1 5.1-12.03 2.93-6.12 7.05-11.29 13.84-13.29 8.88-2.61 13.09-8.44 14.75-17.47 1.65-8.97 4.88-17.65 7.16-26.52.88-3.42 1.31-7.01 1.43-10.54.2-6.57.04-13.17.04-20.22z" fill="#010105"/><path d="m267.65 267.84c-.44 6.1-.92 11.56-1.2 17.02-.56 11.07-1.62 22.01-4.62 32.77-3.72 13.34-6.73 26.87-10.29 40.25-1.05 3.97-2.83 7.75-4.43 11.55-1.17 2.77-2.96 5.22-6.16 5.63-5.85.76-8.8-.25-8.06-6.1.46-3.63 1.22-7.25 2.23-10.77 4.86-16.95 10.01-33.82 14.73-50.8 3.74-13.44 2.19-27.26 2.41-40.9-10.39 1.31-15.76 8.61-19.31 16.88-4.47 10.43-7.79 21.36-11.37 32.15-1.69 5.08-2.82 10.34-4.24 15.51-.32 1.18-.69 2.37-1.23 3.46-1.26 2.56-5.29 5.1-7.42 3.94-1.64-.9-3.43-3.39-3.39-5.13.12-5.42.68-10.9 1.78-16.21 3.27-15.81 8.06-31.23 15.58-45.52 4.49-8.54 11.65-15.18 21.43-17.38 5.39-1.21 8.76-2.94 9.31-8.95.35-3.84 2.13-7.53 2.78-11.37 2-11.91 9.45-19.42 19.58-24.82 2.55-1.36 5.23-2.55 7.96-3.5 4.73-1.64 8.71 1.65 8.03 6.58-.13.91-1 1.9-1.8 2.48-2.99 2.16-6.05 4.22-9.16 6.21-5.65 3.62-9.24 8.72-10.77 15.19-1.1 4.67-1.99 9.41-2.7 14.15-.14.96.66 2.5 1.51 3.08 2.29 1.57 4.78 2.9 7.29 4.11 15.94 7.67 23.12 21.4 25.05 37.98 2.11 18.09-1.56 35.6-8.02 52.53-1.4 3.68-4.25 4.89-7.78 3.94-2.23-.6-3.55-1.77-3.33-4.19.94-10.44 1.76-20.9 2.92-31.31.65-5.87 2.48-11.65 2.71-17.51.57-14.52-7.48-23.89-20.02-30.95z" fill="#010105"/><path d="m219.23 47.79c1.8 8.53 3.62 17.14 5.45 25.74 1.84 8.64 8.24 14.61 17.34 16.08 2.49-9.52 2.63-19.2 1.88-28.93-.73-9.42-1.14-18.81 2.96-27.69 1.25-2.71 2.84-5.26 4.33-8 4.68 2.22 6.8 5.91 7.82 10.28 2.33 9.99.26 19.75-1.64 29.54-.98 5.03-1.99 10.15-2.05 15.24-.09 8.58 4.19 11.09 12.48 8.9 7.6-2.02 10.25-7.82 12.01-14.26 1.52-5.59 1.97-11.46 3.48-17.05.84-3.1 2.35-6.35 4.49-8.69 2.73-3 4.91-2.08 5.95 1.77 3.84 14.19 2.38 27.73-5.32 40.34-1.21 1.98-3.27 3.84-5.37 4.79-7.3 3.33-14.72 6.41-22.24 9.2-2.8 1.04-3.66 2.49-3.06 5.13 1.16 5.12 2.37 10.22 3.57 15.32.46 1.96 1.1 3.88 1.46 5.85.67 3.76-.39 6.38-3.17 7.25-3.24 1.02-6.09 1.32-8.43-2.32-3.12-4.86-4.7-10.01-4.98-15.75-.21-4.22-.76-8.46-1.62-12.59-.27-1.3-1.8-2.74-3.11-3.34-3.35-1.52-6.84-2.75-10.37-3.81-9.79-2.95-15.86-9.7-19.46-18.9-3.37-8.61-4.67-17.46-2.41-26.62 1.64-6.65 2.43-7.29 10.01-7.48z" fill="#010105"/><path d="m136.37 88.51c2.53-10.93 1.95-21.06.76-31.2-.9-7.69-1.68-15.39.3-23.01.75-2.88 1.99-5.63 3.08-8.64 4.5 1.09 7.32 3.69 8.29 7.46 1.3 5.04 2.31 10.26 2.53 15.44.53 12.5.54 25.02.76 37.54.01.55.13 1.1.24 2.05 3.73-1.54 7.33-2.93 10.84-4.53.81-.37 1.42-1.35 1.91-2.18 3.99-6.67 5.34-14.14 6.62-21.66.43-2.52 1.06-5.05 2.03-7.4.6-1.46 1.81-2.88 3.1-3.81 2.47-1.78 4.9-.95 6.23 1.74 4.73 9.52 3.58 19.15.22 28.67-4.7 13.3-14.85 20.12-28.24 22.66-4.29.81-5.66 1.99-6.2 6.47-.7 5.88-1.37 11.77-2.13 17.65-.9 6.98-3.85 9.98-9.4 10.1-2.66.06-4.19-.89-4-3.57.45-6.22.76-12.48 1.72-18.62 1.7-10.82 1.8-11.11-8.55-13.48-7.18-1.65-13.96-3.78-19.28-9.31-7.74-8.04-8.98-17.97-8.37-28.36.23-3.87 1.41-7.67 2.07-11.52.49-2.82 2.58-3.98 4.94-4.25 2.53-.29 3.73 1.63 4.16 3.93 1.32 7.11 3.1 14.18 3.77 21.35.78 8.41 3.33 12.45 11.57 14.63 3.55.93 7.22 1.23 11.03 1.85z" fill="#010105"/></svg>