<svg enable-background="new 0 0 400 400" viewBox="0 0 400 400" xmlns="http://www.w3.org/2000/svg"><g fill="#fbfafa"><path d="m37.59 393.81c-.92.31-1.52.05-2-.78-.7-1.2-1.52-2.34-2.47-3.78v4.59c-.55.03-.95.05-1.41.07-.03-.37-.06-.64-.06-.91 0-1.91 0-3.81 0-5.7 1.13-.41 1.77-.03 2.29.91.62 1.11 1.38 2.14 2.31 3.19v-4.2h1.35v6.61z"/><path d="m12.94 393.88v-6.75c1.9.19 3.93-.54 5.37 1.29.8 1.01.78 2.88.03 3.97-1.37 1.97-3.4 1.51-5.4 1.49m1.45-1.22c2.04.12 2.92-.58 2.89-2.21-.03-1.51-.98-2.19-2.89-2z"/><path d="m11.81 393.87h-5.49c.68-2.18 2.47-3.48 3.51-5.45h-3.08v-1.21h5.29c-.71 2.13-2.44 3.48-3.47 5.51.86 0 1.63.04 2.39-.01.79-.05 1.14.21.85 1.16"/><path d="m39.33 393.86v-6.61h3.7v1.07h-2.22v1.52c.68.04 1.34.09 2.07.13v1.07c-.72.05-1.38.09-2.1.14v1.48h2.4v1.19h-3.85z"/><path d="m27.71 388.56c-1.15-.3-2.46-.61-3.1.64-.37.73-.41 1.93-.06 2.67.63 1.35 1.99.93 3.17.68.35.94-.01 1.32-.93 1.46-1.62.25-3.05-.27-3.76-1.48-.73-1.24-.6-3.03.31-4.17.88-1.11 2.71-1.7 4-1.16.32.13.44.74.65 1.12-.1.08-.19.16-.28.24"/><path d="m49.15 387.24v1.07c-.59.02-1.17.05-1.87.08v5.44h-1.48v-5.44h-1.85c-.05-.4-.08-.73-.13-1.15z"/><path d="m20.06 387.21h1.33v6.62h-1.33z"/><path d="m30.68 393.25c-.49.38-.8.79-1.05.76-.32-.05-.6-.45-.9-.7.26-.24.51-.64.8-.67.29-.04.62.3 1.15.61"/></g><path d="m201.89 268.76c0 6.26-.07 12.17.09 18.08.02.71 1.22 1.87 2.01 2.01 4.93.87 9.89 1.96 14.87 2.14 9.23.33 18.49.1 27.98.1 0-4.2-.3-8.79.13-13.31.2-2.11 1.33-4.62 2.88-6.02 3.41-3.07 6.33-2.17 8.2 1.94 3.96 8.72 5.47 18 5.48 27.44.01 15.93-2.07 31.63-5.61 47.2-2.37 10.43-9.25 16.56-18.03 21.05-10.95 5.59-22.84 6.91-34.95 6.28-15.35-.8-30.48-3.06-45.05-8.19-1.5-.53-2.93-1.56-4.09-2.67-11.45-10.94-15.16-24.83-15.56-40.13-.39-14.9-.75-29.76 2.58-44.43.32-1.42.67-2.83 1.07-4.22 1.76-6.04 1.77-6.04 8.32-5.86 3.86 8.59 5.23 17.74 4.71 27.08-.42 7.69-1.58 15.33-2.4 23-1.22 11.4.14 22.1 8.2 31.08 3.08 3.44 6.61 5.51 11.32 6.39 16.28 3.04 32.62 3.97 49.01 1.67 4.8-.67 9.78-2 14-4.28 4.95-2.68 7.45-8.05 9.04-13.28 1.45-4.75 2.21-9.82 2.49-14.8.36-6.35-.1-12.74-.1-19.11 0-2.01-.84-2.82-2.77-2.84-8.36-.07-16.74-.51-25.08-.18-7.24.28-14.24-.02-21.14-2.51-7.72-2.79-11.57-8.39-12.6-16.22-.64-4.87-1.1-9.77-1.68-14.64-.29-2.41-1.41-3.4-4.13-3.64-11.56-1.02-23.15-2.05-34.6-3.87-5.77-.92-11.39-3.22-16.86-5.44-8.01-3.26-11.83-9.88-12.97-18.19-.86-6.28.32-12.28 1.57-18.5 2.44-12.18 11.07-16.94 21.31-20.03 11.63-3.5 23.73-4.54 35.82-4.71 18.01-.25 36.05-.47 54.05.11 8.3.27 16.61 2.06 24.78 3.84 13.22 2.88 18.48 14.03 18.62 23.63.08 5.55-.61 11.14-1.35 16.66-1.17 8.73-8.29 12.63-14.7 16.76-9.16 5.9-19.59 7.9-30.31 8.68-8.02.55-16.04 1.25-24.55 1.93zm21.5-16.11c-1.96-13.91-3.88-27.54-5.84-41.41-5.78 0-12.3 0-18.53 0v43.14c8.59-.6 16.58-1.17 24.37-1.73zm9.91-41.81c.5 14.27.96 27.3 1.42 40.58 8.14-1.07 15.29-3.58 21.56-8.36.58-.44 1.11-1.2 1.26-1.9.8-3.7 1.79-7.39 2.13-11.14.68-7.61-3.25-12.78-10.05-15.3-4.94-1.82-10.31-2.5-16.32-3.88zm-46.86 42.4c-.59-14.23-1.16-28.11-1.74-42.05-5.33 0-10.21 0-15.41 0-1.15 14.05-2.29 27.98-3.44 42.05zm-33.43-40.65c-7.35 1.31-14.11 3.29-19.71 8.14-.65.57-1.46 1.25-1.66 2.01-4.02 15.73.68 26.5 17.68 28.58 2.74.33 4.02-.5 3.96-3.64-.18-10.63-.06-21.26-.08-31.89.02-.97-.1-1.95-.19-3.2z" fill="#010105"/><path d="m304.05 213.92c-.04 3.02-4.06 5.24-7.34 3.64-3.18-1.56-6.43-3.32-9.03-5.67-24.97-22.59-49.8-45.33-74.7-68-4.58-4.17-9.44-7.96-15.81-8.94-1.33-.21-2.94-.14-4.12.42-5.76 2.72-11.44 5.59-17.08 8.54-1.56.81-2.95 2.01-4.27 3.2-22.57 20.24-45.13 40.49-67.66 60.78-3.55 3.2-7.28 5.52-12.35 4.57-1.92-.36-2.31-1.13-2.3-3.15.03-4.97 2.1-8.36 5.84-11.64 22.64-19.82 44.89-40.09 67.66-59.76 6.78-5.86 14.75-10.37 22.3-15.32 5.81-3.8 12.23-3.46 17.82-.19 7.96 4.66 15.93 9.63 22.86 15.65 23.91 20.74 47.38 41.99 71 63.07 4.71 4.18 7.23 8.81 7.18 12.8z" fill="#010105"/><path d="m240.89 106.34c1.93-9.04 2.35-17.27 1.72-25.54-.53-6.91-1.39-13.8-2.01-20.71-.95-10.64.24-21 4.49-30.88.75-1.75 1.02-4.26 4.22-3.59 3.63.76 6.09 2.52 6.3 5.52.2 2.89 0 5.82.02 8.72.16 20.81.34 41.63.52 62.44 0 .54.13 1.08.19 1.54 7.08.05 11.2-3.43 13.81-9.85 2.85-6.99 3.78-14.18 4.35-21.57.23-2.95.98-5.96 2.08-8.71.65-1.62 2.2-3.25 3.76-4.05 3.42-1.75 4.65-1.98 6.43 2.05 4.03 9.14 3.15 18.34.75 27.6-.73 2.81-1.78 5.53-2.6 8.31-2.39 8.11-8.04 13.2-15.41 16.7-2.93 1.39-5.81 2.92-8.85 4.01-2.54.91-3.52 2.6-3.47 5.01.06 3.35.33 6.69.47 10.04.17 4.12-1.48 5.56-5.49 4.82-5.58-1.03-6.88-1.66-6.96-7.34-.11-8.08-3.8-11.95-11.36-14.07-8.01-2.24-15.37-5.96-19.79-13.87-4.08-7.3-5.58-15.13-5.2-23.26.27-5.76 1.64-11.47 2.32-17.22.53-4.53 4.27-2.97 6.72-3.7 2.55-.76 2.41 1.7 2.97 3.08 2.75 6.76 3.95 13.82 2.95 21.04-1.05 7.5 1.66 13.16 7.52 17.46 2.86 2.1 5.99 3.8 9.55 6.02z" fill="#010105"/><path d="m104.7 56.07c1.33 7.55 2.7 14.75 3.84 21.98.46 2.97.43 6.02.6 9.03.43 7.25 4.1 12.18 10.89 14.59 2.89 1.03 5.99 1.44 9.92 2.35 0-10.5-.09-20.32.03-30.14.11-9.06.29-18.07-1.8-27-1.06-4.54-.35-9.12 1.85-13.36 1.66-3.2 5.7-3.68 7.31-.49 1.99 3.94 3.85 8.13 4.72 12.43 3.11 15.3 4.2 30.77 2.53 46.37-.31 2.89-.25 5.82-.62 8.7-.34 2.65.94 3.67 3.21 3.3 5.18-.84 9.99-2.62 13.12-7.18 4.53-6.59 6.02-14.04 6.2-21.92.09-3.88.47-7.83 1.35-11.59.85-3.65 3.29-6.23 7.23-6.85 9.55 13.81 7.76 35.38-2.27 47.35-4.75 5.67-11.29 10.45-18.87 12.81-2.03.63-4.08 1.18-6.12 1.74-6.42 1.77-6.45 1.77-6.88 8.44-.15 2.34.03 4.71-.24 7.04-.42 3.63-6.16 6.08-8.97 3.85-.58-.46-.79-1.55-.93-2.39-.74-4.41-1.29-8.85-2.16-13.23-.21-1.07-1.2-2.32-2.17-2.85-2.44-1.33-5.04-2.42-7.65-3.39-15.12-5.68-21.74-17.66-24.31-32.62-1.21-7.06-.19-13.99 1.19-20.95.68-3.42 2.22-5.1 5.54-5.4.77-.07 1.52-.27 3.46-.62z" fill="#010105"/><path d="m227.13 173.68c-6.26 3.14-12.84 4.3-19.53 4.73-14.17.91-28.34 1.33-42.28-2.25-3.11-.8-6.05-5.85-4.08-8.02 1.88-2.08 5.21-3.74 8.01-3.93 9.79-.67 19.63-.82 29.45-.78 6.67.03 13.39.33 20 1.21 7.25.95 7.21 1.3 8.43 9.04z" fill="#010105"/><path d="m227.4 329.58c-5.8 1.16-11.41 2.52-17.1 3.37-9.09 1.37-18.22 1.98-27.28-.34-.76-.19-1.52-.37-2.26-.61-5.86-1.9-6.89-3.15-5.36-9.06.41-1.59 3.41-3.54 5.26-3.57 12.7-.21 25.44-.44 38.11.34 7.33.46 7.28 1.31 8.63 9.87z" fill="#010105"/></svg>