<svg enable-background="new 0 0 400 400" viewBox="0 0 400 400" xmlns="http://www.w3.org/2000/svg"><path d="m37.59 393.81c-.92.31-1.52.05-2-.78-.7-1.2-1.52-2.34-2.47-3.78v4.59c-.55.03-.95.05-1.41.07-.03-.37-.06-.64-.06-.91 0-1.91 0-3.81 0-5.7 1.13-.41 1.77-.03 2.29.91.62 1.11 1.38 2.14 2.31 3.19v-4.2h1.35v6.61z" fill="#fbfafa"/><path d="m12.94 393.88v-6.75c1.9.19 3.93-.54 5.37 1.29.8 1.01.78 2.88.03 3.97-1.37 1.97-3.4 1.51-5.4 1.49m1.45-1.22c2.04.12 2.92-.58 2.89-2.21-.03-1.51-.98-2.19-2.89-2z" fill="#fbfafa"/><path d="m11.81 393.87h-5.49c.68-2.18 2.47-3.48 3.51-5.45h-3.08v-1.21h5.29c-.71 2.13-2.44 3.48-3.47 5.51.86 0 1.63.04 2.39-.01.79-.05 1.14.21.85 1.16" fill="#fbfafa"/><path d="m39.33 393.86v-6.61h3.7v1.07h-2.22v1.52c.68.04 1.34.09 2.07.13v1.07c-.72.05-1.38.09-2.1.14v1.48h2.4v1.19h-3.85z" fill="#fbfafa"/><path d="m27.71 388.56c-1.15-.3-2.46-.61-3.1.64-.37.73-.41 1.93-.06 2.67.63 1.35 1.99.93 3.17.68.35.94-.01 1.32-.93 1.46-1.62.25-3.05-.27-3.76-1.48-.73-1.24-.6-3.03.31-4.17.88-1.11 2.71-1.7 4-1.16.32.13.44.74.65 1.12-.1.08-.19.16-.28.24" fill="#fbfafa"/><path d="m49.15 387.24v1.07c-.59.02-1.17.05-1.87.08v5.44h-1.48v-5.44h-1.85c-.05-.4-.08-.73-.13-1.15z" fill="#fbfafa"/><path d="m20.06 387.21h1.33v6.62h-1.33z" fill="#fbfafa"/><path d="m30.68 393.25c-.49.38-.8.79-1.05.76-.32-.05-.6-.45-.9-.7.26-.24.51-.64.8-.67.29-.04.62.3 1.15.61" fill="#fbfafa"/><g fill="#010105"><path d="m95.99 374.81c-3.58-6.3-4.8-12.95-4.48-19.85.74-16.1 1.77-32.19 2.49-48.29.92-20.69 1.39-41.4 2.54-62.08 1.09-19.54 2.46-39.11 6.78-58.25 1.33-5.9 4.26-11.5 6.91-17.02.89-1.85 3.07-3.18 4.87-4.47 9.35-6.7 19.95-10.25 31.3-10.75 21.33-.95 42.69-1.86 64.03-1.85 16.29 0 32.6.7 48.78 3.6 22.09 3.96 32.04 17.78 33.96 37.41 2.4 24.6 3.96 49.29 5.95 73.94.97 12.04 2.46 24.05 3 36.11.46 10.27-.03 20.58-.25 30.88-.25 11.86-.73 23.72-.94 35.58-.05 2.58-.7 3.68-3.44 4.1-6.26.97-6.69 1.22-8.36-5.04-1.32-4.9-1.99-10.09-2.16-15.17-1.29-39.04-2.39-78.08-3.55-117.13-.46-15.33-.79-30.66-4.13-45.73-2.45-11.05-9.27-17.7-20.02-20.74-14.85-4.19-30.04-4.27-45.28-3.96-18.9.39-37.8.75-56.69 1.25-10.27.27-20.18 2.47-29.66 6.41-1.27.53-2.44 1.55-3.37 2.6-8.1 9.16-11.07 20.13-11.6 32.13-1.73 39.81-3.61 79.61-5.53 119.4-.69 14.31-1.68 28.61-2.45 42.92-.09 1.78-.66 2.63-2.43 2.85-2.01.26-3.97.72-6.27 1.15z"/><path d="m195.88 283.17c-6.71 15.61-17.49 27.98-26.37 41.58-5.01 7.67-10.61 14.95-15.95 22.41-2.55 3.57-5.87 4.8-10.24 3.89-2.57-.54-3.69-1.77-3.49-4.28.38-4.9 2.56-9 5.96-12.4 13.75-13.73 25.11-29.11 32.64-47.13 9.46-22.66 13.82-46.17 11.75-70.75-.91-10.76-1.08-21.47 2.85-31.81.55-1.44 1.19-2.84 1.77-4.19 6.34.89 9.09 3.25 9.13 9.32.1 13.63-.24 27.27-.55 40.91-.31 13.78-.42 27.52 3.29 40.97 3.59 13.01 10.71 24.02 19.24 34.22 9.19 10.99 18.66 21.73 27.74 32.81 2.1 2.57 3.61 5.91 4.47 9.14 1.06 3.98-2.06 6.62-6.12 5.44-2.08-.6-4.33-1.6-5.81-3.11-17-17.21-33.56-34.81-45.08-56.42-1.77-3.3-3.32-6.72-5.23-10.6z"/><path d="m252.52 110.76c-5.79 7.43-11.08 14.78-16.99 21.59-3.54 4.08-7.75 7.78-12.26 10.72-2.69 1.76-6.51 1.87-9.87 2.45-2.24.39-3.21-1.17-3.37-3.18-.3-3.76.8-7.01 3.52-9.73 6.97-6.94 14.26-13.62 20.74-20.99 6.81-7.74 10.62-17.02 10.62-27.57.01-10.52-.04-21.04-.05-31.56 0-8.59 1.33-16.9 4.8-24.85 1.12-2.55 2.48-3 4.88-1.98 2.84 1.21 4.68 3.21 4.78 6.29.17 5.13.18 10.28.06 15.42-.32 14.43-.81 28.86-1.05 43.29-.03 2.03.66 4.19 1.47 6.1 3.97 9.48 10.91 16.47 18.95 22.61 5.58 4.26 11.25 8.52 16.21 13.46 2.89 2.88 4.52 7.07 6.61 10.73 1.07 1.88.17 3.01-1.67 3.91-4.02 1.99-7.47.56-10.63-1.74-4.61-3.35-8.86-7.24-13.6-10.38-8.5-5.63-14.32-13.72-20.56-21.44-.84-1.01-1.68-2.04-2.59-3.15z"/><path d="m139.76 109.84c-5.59 7.66-10.86 15.45-16.74 22.74-3.25 4.03-7.27 7.55-11.4 10.7-3.22 2.46-7.23 2.75-11.28.93.19-5.84 1.57-10.72 6.28-15.04 15.78-14.44 25.15-32.44 27.07-53.87.66-7.32.32-14.77-.08-22.13-.45-8.1.26-15.88 4.16-23.11.66-1.22 2.28-3.15 2.89-2.95 2.08.66 4.57 1.69 5.66 3.38 1.24 1.91 1.57 4.69 1.56 7.08-.08 13.54-.26 27.09-.68 40.62-.1 3.19-1 6.42-1.97 9.5-.93 2.96-.27 5.46 1.05 8.01 4.27 8.26 10.77 14.43 18.18 19.86 5.39 3.96 10.91 7.89 15.59 12.61 2.94 2.96 4.54 7.29 6.49 11.14.31.61-.53 2.62-1.12 2.75-2.29.51-4.97 1.3-6.98.56-3.16-1.15-6.23-3.09-8.75-5.34-10.09-9.01-19.97-18.27-29.93-27.44z"/><path d="m235.15 185.7c4.72 2.36 6.96 6.25 7.22 11.31.63 11.94 1.38 23.88 1.73 35.84.55 19.29 2.86 38.29 7.95 56.94 1.12 4.08.29 5.5-3.36 6.91-2.75 1.07-6.29-.13-7.82-2.78-6.04-10.46-9.28-21.88-9.94-33.79-1.11-19.97-1.5-39.99-2.15-59.98-.17-5.8 1.69-10.74 6.37-14.45z"/><path d="m146.38 291.85c0-10.42-.31-20.48.06-30.51.85-22.58 2.08-45.15 3.01-67.74.1-2.45.77-4.45 2.98-4.9 1.59-.32 3.7.35 5.15 1.26 3.29 2.07 4.44 5.68 4.63 9.27.54 10.03 1.29 20.11.94 30.13-.5 14.4-1.61 28.8-3.04 43.14-.51 5.14-2.69 10.11-4.14 15.14-.91 3.14-2.67 5.01-6.29 4.23-.94-.19-1.98-.02-3.3-.02z"/><path d="m227.44 74.99c0 8.27-.03 16.53.02 24.8.02 3.57-2.66 4.55-5.22 5.02-2.33.42-4.88-.29-5.45-3.2-3.96-20.26-5.46-40.51 1.09-60.57.52-1.61.53-4.1 3.21-3.94 2.85.18 5.46 1.35 6.2 4.27.9 3.53 1.53 7.21 1.65 10.85.24 7.59.07 15.18.07 22.78-.52-.01-1.05-.01-1.57-.01z"/><path d="m113.11 74.17c0 8.61-.07 17.22.04 25.83.04 3.23-2.03 4.63-4.5 4.75-2.42.12-5.06-.37-5.77-3.79-2.69-12.9-3.35-25.95-2.65-39.05.32-5.89 1.06-11.82 2.28-17.58.44-2.09 2.51-4.71 4.45-5.4 2.73-.97 6.02 1.95 6.82 5.15.5 2.04.81 4.18.84 6.27.09 7.94.04 15.88.04 23.82-.53 0-1.04 0-1.55 0z"/><path d="m293.22 70.61c0 8.83-.04 17.65.02 26.48.02 3.26-2.48 3.99-4.67 4.15-2.14.16-4.87.09-5.38-3.19-2.76-17.86-4.2-35.74-.68-53.66.43-2.17 1.22-4.3 2.07-6.35 1.36-3.29 2.35-3.6 5.59-1.98 3.76 1.89 4.43 5.39 4.46 9.08.07 8.49.02 16.98.02 25.47-.47 0-.95 0-1.43 0z"/><path d="m170.62 99.07c-.89-4.07-2.08-7.91-2.51-11.84-1.8-16.1-1.88-32.16 2.28-47.97.41-1.54 1.62-3.61 2.91-4.04 2.92-.96 5.79.21 6.7 3.34.86 2.94 1.29 6.13 1.21 9.19-.4 15.32-1.12 30.64-1.48 45.97-.07 3.01-1.17 4.15-3.89 4.44-1.54.15-3.05.52-5.22.91z"/></g></svg>