<svg enable-background="new 0 0 400 400" viewBox="0 0 400 400" xmlns="http://www.w3.org/2000/svg"><g fill="#010103"><path d="m85.95 216.24c-.07-.21-.19-.42-.2-.63-.47-6.88-.48-6.94 5.93-9.08 12.28-4.1 24.78-7.62 36.82-12.31 11.49-4.47 22.17-10.7 30.99-19.6 3.88-3.92 7.16-8.25 9.22-14.03-2.34-.16-4.38-.4-6.43-.43-17.57-.25-35.14-.39-52.7-.78-2.71-.06-5.46-1.03-8.07-1.95-3.08-1.08-4.07-3.59-3.68-6.73.27-2.17 1.12-3.46 3.55-4.06 12.34-3.05 24.83-2.44 37.37-2.25 11.6.17 23.22-.69 34.83-1 1.9-.05 2.69-.85 3.35-2.51 2.5-6.33 2.5-12.91 2.17-19.52-.36-7.27 1.35-13.97 5.22-20.13.35-.56.74-1.09 1.06-1.56 6.8 1.24 10.28 5.67 9.47 12.82-.72 6.32-2.21 12.55-3.19 18.84-.62 3.96-.91 7.97-1.45 12.9 4.56 0 8.64-.07 12.71.01 18.01.35 36.02.74 54.03 1.13 2.12.05 4.26.05 6.37.24 2.24.2 3.16-.57 3.25-2.94.27-7.49.67-14.98 1.17-22.46.25-3.79 1.32-7.32 4.89-9.43 3.64-2.15 5.84-1.58 7.15 2.33 1.01 3.03 2.09 6.38 1.77 9.44-1.31 12.64.9 25.01 2.06 37.47.83 8.82 1.89 17.56 4.89 25.97.44 1.22.47 2.66.41 3.98-.22 5.21-3.28 7.53-8.33 6.27-.75-.19-1.46-.95-1.98-1.61-4.5-5.69-6.84-12.18-7.53-19.4-.39-4.1-1.26-8.17-1.99-12.23-.34-1.9-1.47-2.65-3.54-2.66-15.89-.06-31.78-.26-47.68-.4-9.06-.08-18.14.01-27.19-.31-3.31-.12-5.24.87-6.34 3.95-.52 1.45-1.45 2.75-2.37 4.45 5.71 1.65 11.16 3.25 16.63 4.79 16.8 4.75 26.45 22.15 21.1 38.76-1.38 4.28-3.87 8.25-6.15 12.19-1.44 2.5-3.22 4.9-5.22 6.98-7.47 7.75-9.38 17.51-10.41 27.66-1.61 15.92-.45 31.78 1.08 47.6 1.62 16.8 3.92 33.54 5.72 50.32.4 3.75.3 7.63-.19 11.38-.75 5.78-4.49 8.2-11.25 7.01-2.17-12.16-4.96-24.61-6.53-37.21-3.05-24.58-3.56-49.28-3.1-74.07.27-14.75 6.14-27.27 12.22-39.93 1.11-2.31 3.5-4.02 5.34-5.97 6.72-7.17 7.23-15.27 3.5-23.94-.43-1.01-1.44-2.07-2.44-2.5-4.61-1.97-9.28-3.81-13.99-5.51-3.57-1.29-7.33-2.07-10.84-3.5-2.47-1.01-3.94-.5-5.79 1.3-12.66 12.35-26.94 22.18-44.15 27.09-9.24 2.64-18.54 5.04-27.87 7.32-5.22 1.26-8.66.66-13.67-1.56z"/><path d="m261.7 369.6c-1.78-12.61-3.79-25.06-5.21-37.58-1.09-9.65-1.5-19.39-2.02-29.1-.11-2-.73-2.98-2.57-3.66-3.88-1.43-7.57-3.45-11.53-4.53-10.86-2.98-17.27-10.62-21.9-20.19-5.44-11.21-7.42-22.8-4.1-35.15 1.28-4.78 3.5-7.49 8.85-7.31 2.48 4.08 3.75 8.71 3.81 13.74.05 3.91.04 7.83.4 11.72.81 8.85 5.45 15.47 12.64 20.37 3.55 2.43 7.32 4.54 11 6.79.39-.14.78-.29 1.17-.43 0-5.78-.13-11.57.03-17.35.38-13.87.79-27.74 1.47-41.59.14-2.9 1.11-5.94 2.42-8.55.8-1.59 2.94-3.37 4.57-3.47 2.85-.17 5.58 1.49 6.36 4.52.77 2.99 1.25 6.18 1.15 9.25-.57 17-1.37 33.99-2.08 50.98-.03.78-.07 1.57-.03 2.35.21 4.09 1.41 4.6 5.23 3.44 8.64-2.63 14.64-8.25 19.18-15.76 2.09-3.45 2.64-6.98 2.38-11.15-.37-5.94.38-12 1.15-17.94.25-1.89 1.79-3.89 3.27-5.27 3.16-2.94 6.34-2.12 8.26 1.7 3.75 7.44 4.32 15.21 2.27 23.17-1.05 4.1-2.68 8.06-3.75 12.16-2.63 10.07-9.79 16.66-17.67 22.41-3.01 2.2-7.25 2.73-10.95 3.97-7.33 2.44-7.69 2.46-6.98 9.99 1.18 12.57 3.09 25.08 4.25 37.65.6 6.53.38 13.14.26 19.71-.06 3.49-1.89 5.55-5.76 5.15-1.43-.16-2.88-.04-5.57-.04z"/><path d="m97.55 235.92c4.04 8.56 5.97 17.31 4.69 26.53-1.51 10.89 1.01 16.44 10.6 21.9 2.5 1.43 5.14 2.62 8.68 4.4.33-6.68 1.12-12.64.82-18.55-.46-8.92-1.81-17.79-2.52-26.71-.54-6.76.23-13.43 3.22-19.63.71-1.47 2.56-3.87 3.08-3.68 2.15.79 4.93 2.01 5.74 3.83 1.4 3.16 1.9 6.88 2.08 10.4.92 17.32 1.62 34.65 2.4 51.98.02.44.14.87.3 1.81 4.39-1.72 9-2.26 12.16-6.34 4.23-5.47 7-11.31 7.13-18.38.13-7.04.64-14.08 1.08-21.12.31-5.04 2.42-6.98 7.23-6.47 1.15.12 2.75 1.1 3.18 2.1 7.36 17.06 4.78 33.37-4.03 49.13-7.02 5.27-12.38 12.99-22.16 14.13-5.77.67-7.13 2.7-7.73 8.63-1.76 17.36-3.58 34.71-5.43 52.06-.2 1.87-.83 3.7-1.21 5.56-.72 3.51-3.21 4.62-6.4 4.67-2.43.04-4.07-.84-4.96-3.44-3-8.7-2.4-17.43-.49-26.16 2.53-11.58 5.21-23.12 5.09-35.1-.03-2.46-.79-4.1-2.85-5.18-2.47-1.3-4.9-2.74-7.51-3.69-15.13-5.5-21.76-17.11-23.14-32.3-.78-8.61-.3-17.18 2.15-25.6.83-2.87 1.95-4.53 5.15-4.3 1.16.1 2.37-.29 3.65-.48z"/><path d="m241.89 93.74c1.45-22.67-2.5-45.76 7.72-67.33 5.48 1.15 8.35 4.72 8.65 9.39.47 7.09.06 14.26-.25 21.38-.43 10.05-1.24 20.08-1.58 30.13-.06 1.84 1.05 5.09 2.12 5.32 2.13.45 5.29.01 6.83-1.39 8.05-7.33 13.87-15.88 12.09-27.61-.44-2.88-1.38-5.75-1.32-8.6.06-2.91.54-6.04 1.76-8.64 1.7-3.61 6.33-3.58 8.59-.3 4.51 6.54 6.36 13.72 5.07 21.64-1.4 8.56-4.14 16.65-8.01 24.43-2 4.02-4.93 6.87-8.78 8.87-4.86 2.52-9.75 4.99-14.72 7.28-1.94.89-2.71 2.01-2.4 4.11.67 4.53 1.26 9.08 1.82 13.63.32 2.6.68 6-2.51 6.36-3.06.35-6.35-1.06-9.49-1.85-.3-.08-.38-1.21-.5-1.86-.88-5.07-1.92-10.12-2.53-15.22-.3-2.46-1.38-3.7-3.5-4.72-4.64-2.22-9.01-5.04-13.75-6.99-8.7-3.56-13.14-10.56-15.72-18.91-3.77-12.22-2.44-24.38 2.03-36.15.49-1.28 3.62-1.81 5.62-2.13.71-.12 2.09 1.25 2.49 2.22 2.58 6.3 3.47 12.92 3.29 19.7-.05 1.9-.14 3.8-.21 5.71-.43 11.76 5.42 19.13 17.19 21.53z"/><path d="m130.49 25.75c5.45-.06 8.97 2.54 9.53 7.99.62 6.09.6 12.26.56 18.4-.08 12.75-.36 25.51-.52 38.26-.05 3.84 1.74 5.41 5.43 4.39 4.5-1.25 8.73-3.13 9.96-8.35 1.66-7.05 3.28-14.12 4.83-21.2 1.19-5.42 2.37-10.79 8.45-13.4 4 4.17 6.07 9.15 6.33 14.74.5 10.68-2.49 20.55-7.79 29.74-.52.91-1.43 1.72-2.35 2.25-4.94 2.84-9.82 5.83-14.97 8.24-2.75 1.29-5.98 1.67-9.03 2.22-1.97.36-3.32 1.06-3.65 3.19-.81 5.18-1.8 10.33-2.46 15.53-.72 5.69-3.71 8.6-9 7.99-1.08-.13-2.49-1.04-2.99-2-1.86-3.59-2.2-7.42-1.06-11.39.86-2.99 1.62-6.03 2.16-9.09.42-2.35-.59-3.93-3.04-4.83-4.82-1.76-9.44-4.14-14.32-5.68-9.32-2.95-13.26-10.21-15.23-18.78-2-8.69-1.59-17.56-.1-26.34.61-3.63 6.02-6.45 9.17-4.72.74.41 1.2 1.52 1.56 2.39 2.96 7.26 3.88 14.87 3.9 22.65.03 10.82 6.44 17.09 17.22 16.72.85-.03 2.2-1.19 2.39-2.03 1.25-5.41 2.89-10.85 3.14-16.34.32-7-.5-14.07-.91-21.1-.58-9.97.19-19.82 2.79-29.45z"/></g><path d="m385.2 377.6.6-.7c.6.4 1.3.9 1.9 1.5l-.6.7c-.8-.5-1.4-1-1.9-1.5zm.3 7.1c.6-1.4 1.1-2.9 1.5-4.5.3.1.6.3.9.4-.5 1.4-1 2.9-1.5 4.4zm.2-10.1.6-.6c.7.5 1.3 1.1 1.9 1.6l-.7.7c-.6-.6-1.2-1.2-1.8-1.7zm8.4-.8h.8v.9h1.8v.7h-1.8v1.8h-.8v-.3h-1.2v.9h3.3v2.6h-.8v-.4h-2.5c0 .3 0 .6-.1.8h3.4v.7h-3.5c0 .3-.1.6-.1.8h4v.7h-3.5c.7.9 1.9 1.3 3.6 1.5-.2.2-.4.5-.6.9-1.9-.3-3.2-1.1-3.8-2.3-.5 1.1-1.8 2-3.9 2.4-.2-.3-.4-.5-.6-.8 1.9-.4 3.1-.9 3.6-1.7h-3.2v-.7h3.5c.1-.2.1-.5.2-.8h-3.3v-.7h3.4c0-.2 0-.5 0-.8h-2.4v.3h-.8v-2.6h3.3v-.9h-1.2v.3h-.8v-1.8h-1.8v-.7h1.8v-.9h.8v.9h3.2zm-4.4 5.5h2.4c0-.3 0-.6 0-.9h-2.4zm1.2-3.1h3.2v-.8h-3.2zm4.4 2.2h-2.4v.9h2.5v-.9z" fill="#fcfbfa"/><path d="m389.2 385.8h.9v1.5h1.9v-1.5h.9v1.5h2.7v6h1.1v.9h-11.3v-.9h1.1v-6h2.7zm.2 8.7.5.8c-1.2.6-2.5 1.3-4 1.9-.2-.3-.3-.6-.6-.8 1.6-.6 3-1.3 4.1-1.9zm-2-4.3h1.9v-2.1h-1.9zm0 3.1h1.9v-2.2h-1.9zm2.7-3.1h1.9v-2.1h-1.9zm0 3.1h1.9v-2.2h-1.9zm2.4 1.3c1.4.6 2.7 1.2 4.1 1.8l-.5.9c-1.5-.7-2.8-1.4-4.1-1.9zm2.2-6.5h-1.9v2.1h1.9zm-1.9 5.2h1.9v-2.2h-1.9z" fill="#fcfbfa"/></svg>