<svg enable-background="new 0 0 400 400" viewBox="0 0 400 400" xmlns="http://www.w3.org/2000/svg"><g fill="#010103"><path d="m194.76 98.91c8.01 1.06 10.64 4.73 9.48 12.25-.63 4.08-.85 8.22-1.3 12.33-.34 3.15 1.01 4.19 4.17 4.3 17.25.6 34.29 2.6 50.99 7.32 23.34 6.59 37.46 23.97 37.83 48.16.25 16.44-.56 32.89-.55 49.33.02 23.61.14 47.23.7 70.83.2 8.35 2.28 16.63 2.72 24.99.75 14.18 1.01 28.4 1.11 42.6.01 1.47-2.16 3.48-3.79 4.29-1.92.95-4.1.39-5.5-1.81-3.88-6.07-5.1-12.85-5.33-19.84-1.46-44.17-2.96-88.34-4.14-132.52-.2-7.67 1.26-15.36 1.59-23.06.35-8.38.37-16.77-2.05-24.97-4.64-15.73-15.71-23.68-31.32-26.56-19.92-3.68-40.07-3.8-60.17-3.86-11.36-.03-22.72 1.68-34.1 2.35-7.67.45-15.08 1.87-22.16 4.81-1.79.74-3.45 1.96-4.91 3.26-1.92 1.7-3.37 3.95-5.37 5.53-7.03 5.53-9.42 13.35-9.89 21.57-.64 11.13-.28 22.31-.3 33.47-.01 12.64.17 25.27.04 37.91-.22 22.15-.18 44.32-1.08 66.45-.63 15.4-2.52 30.76-4.14 46.11-.32 3-1.59 6.08-3.17 8.67-.81 1.33-3.23 2.08-5.02 2.32-2.33.3-3.42-1.47-4.01-3.65-2.19-8.04-2.22-16.28-1.11-24.34 4.28-31.25 3.92-62.71 4.84-94.11.32-11.07.8-22.15.81-33.22 0-6.13-1.03-12.25-1.24-18.39-.44-12.69.74-25.14 4.59-37.41 3.41-10.89 10.91-17.59 20.26-22.95 10.99-6.31 23.19-8.72 35.46-10.5 9.04-1.31 18.23-1.63 27.37-2.18 2.48-.15 3.62-.95 3.95-3.43.94-7.08 1.99-14.15 3.12-21.21.26-1.61 1.04-3.14 1.62-4.84z"/><path d="m181.93 232.09c-7.3 2.21-11.38-1.7-15.75-4.99-5.62-4.23-11.32-8.34-17.81-13.11 0 6.03-.28 11.25.07 16.43.38 5.68 1.53 11.31 1.99 16.99.27 3.3.05 6.69-.37 9.98-.2 1.56-1.14 3.18-2.15 4.44-3.07 3.82-5.81 3.74-7.62-.7-1.79-4.39-2.92-9.11-3.75-13.8-2.83-15.95-3.64-31.99-1.13-48.09 1.56-10.01 4.53-19.53 9.1-28.61 2.4-4.76 6.13-7.78 10.38-10.58 9.36-6.17 18.18-4.06 26.41 1.94 9.74 7.11 13.7 17.37 15.29 29.07 4.51 33.22-4.63 63.07-21.79 91.03-3.96 6.45-7.37 13.05-7.75 20.8-.45 9.44.35 18.76 2.36 28 2.08 9.55 3.53 19.15 1.58 28.93-.33 1.66-.11 3.82-2.83 3.67-2.76-.15-5.93 2.33-7.87-2.18-3.26-7.58-5.46-15.38-6.36-23.53-2.1-19.08-1.49-37.99 4.28-56.46.92-2.96 2.26-5.83 3.76-8.55 4.68-8.52 9.76-16.83 14.23-25.46 2.28-4.41 3.55-9.32 5.73-15.22zm.36-5.97c3.13-11.47 3.39-22.78 1.49-34.14-1.66-9.96-7.22-17.14-16.3-21.51-.86-.42-2.42-.46-3.14.05-9.63 6.83-12.04 17.44-14.37 28.04-.43 1.97.32 3.28 2.5 3.98 3.6 1.16 7.77 1.9 10.48 4.23 6.77 5.86 14.27 11.12 19.34 19.35z"/><path d="m241.4 175.41c-1.1 9.72-2.12 18.93-3.19 28.14-1.33 11.55-2.66 23.1-4.09 34.64-.32 2.54-1.47 4.69-4.25 5.48-3.37.96-5.15.14-6.59-3.06-3.33-7.44-3.22-15.28-2.22-23.08 1.63-12.63 3.64-25.21 5.47-37.82.69-4.74.47-5.27-4.25-5.84-2.72-.33-5.55.13-8.32.28-5.42.31-9.12-3.76-7.04-8.67.87-2.05 4.27-4.2 6.56-4.25 9.81-.24 19.73-.45 29.45.68 17.73 2.06 25.12 11.89 27.16 29 2.46 20.65-1.31 40.77-9.05 60.06-.71 1.76-2.13 3.4-3.59 4.66-5.87 5.01-11.67 10.14-17.9 14.68-9.22 6.72-12.04 16.2-10.86 26.59 1.79 15.79 7.45 30.27 17.93 42.61 3.91 4.61 7.36 9.54 8.7 15.67.53 2.45 0 4.05-2.05 5.4-2.08 1.38-4.14 1.33-5.86-.25-3.11-2.88-6.25-5.78-8.95-9.04-11.24-13.55-19.38-28.72-22.56-46.18-2.21-12.15-.14-23.83 5.41-34.85.53-1.05 1.45-1.97 2.35-2.76 5.79-5.11 11.41-10.44 17.49-15.18 8.24-6.42 11.97-15.23 13.76-24.95 2.85-15.45 1.26-30.74-2.89-45.8-.28-1.01-1.2-2.16-2.14-2.62-2.59-1.29-5.34-2.26-8.48-3.54z"/><path d="m137.64 25.48c4.31.74 7.16 3.17 9.16 6.73 3.59 6.4 3.74 13.54 3.99 20.54.37 10.28.22 20.57.29 30.86.01 1.21 0 2.42 0 3.83 5.96-.56 10.76-2.35 12.66-8.29 2.1-6.57 3.96-13.21 5.95-19.82.96-3.19 1.6-6.57 3.15-9.45.83-1.54 3.17-2.73 5.03-3.13 2.39-.51 3.25 1.74 4.04 3.66 3 7.31 2.05 14.7.46 22.1-2.29 10.61-6.95 19.75-17.24 24.56-4.91 2.29-10.32 3.58-15.57 5.09-1.94.56-3.16 1.37-3.56 3.39-1.05 5.36-2.24 10.7-3.22 16.07-.94 5.18-3.6 7.97-7.92 8.03-2.26.03-4.15-.65-4.16-3.2-.03-4.76.13-9.53.38-14.29.14-2.67.68-5.31.93-7.97.19-2.04-.72-3.25-2.82-3.87-4.39-1.29-8.66-3.01-13.07-4.21-7.03-1.91-11.71-6.47-14.59-12.84-4.74-10.49-5.85-21.48-3.49-32.76.72-3.46 4.81-5.94 8.18-4.93.81.24 1.55 1.43 1.91 2.34 3.23 8.21 4.41 16.83 4.94 25.56.37 6.11 3.78 9.98 9.26 11.92 3.22 1.14 6.73 1.46 10.09 2.18 1.96.42 2.68-.32 3.09-2.32 2.29-11.14 1.35-22.26.25-33.41-.78-7.93-.98-15.86 1-23.68.24-.84.55-1.67.88-2.69z"/><path d="m219.5 47.39c1.52 8.35 3.28 16.43 4.38 24.6.8 5.96 3.79 9.99 8.92 12.47 3.54 1.71 7.36 2.84 11.56 4.42 0-8.17-.26-15.43.07-22.67.35-7.8.91-15.62 2.07-23.33.51-3.39 2.62-6.58 4.23-9.74.89-1.74 2.27-3.02 4.63-2.12 2.34.88 4.33 2 4.36 4.83.02 2.23-.19 4.47-.23 6.7-.2 12.18-.37 24.35-.55 36.53-.01.56.06 1.12.16 1.67.97 5.86 1.57 5.59 7.3 4.92 7.68-.9 10.17-5.67 11.37-12.1.96-5.16 1.81-10.35 2.75-15.52 1.22-6.71 3.75-9.7 9.21-10.68 2.23 4.65 3.41 9.69 3.1 14.79-.42 6.89-1.56 13.74-2.5 20.6-.13.92-.71 1.92-1.39 2.58-3.77 3.67-7.59 7.29-11.49 10.81-.77.7-1.95 1.06-3 1.32-4.12 1.02-8.26 1.94-13.22 3.09.68 4.8 1.32 9.62 2.07 14.41.43 2.76 1.28 5.46 1.55 8.23.24 2.47.09 5.12-3.07 5.9s-7.61-1.17-8.45-3.66c-2.34-6.99-4.74-13.97-6.88-21.02-.66-2.18-1.86-3.16-3.89-3.49-2.98-.49-5.96-.94-8.94-1.44-12.8-2.14-18.59-7.01-22.26-20.02-2.4-8.49-2.32-17.22-.83-25.96.56-3.26 1.74-5.34 5.31-5.47 1.01-.01 1.99-.33 3.66-.65z"/></g><path d="m385.2 377.6.6-.7c.6.4 1.3.9 1.9 1.5l-.6.7c-.8-.5-1.4-1-1.9-1.5zm.3 7.1c.6-1.4 1.1-2.9 1.5-4.5.3.1.6.3.9.4-.5 1.4-1 2.9-1.5 4.4zm.2-10.1.6-.6c.7.5 1.3 1.1 1.9 1.6l-.7.7c-.6-.6-1.2-1.2-1.8-1.7zm8.4-.8h.8v.9h1.8v.7h-1.8v1.8h-.8v-.3h-1.2v.9h3.3v2.6h-.8v-.4h-2.5c0 .3 0 .6-.1.8h3.4v.7h-3.5c0 .3-.1.6-.1.8h4v.7h-3.5c.7.9 1.9 1.3 3.6 1.5-.2.2-.4.5-.6.9-1.9-.3-3.2-1.1-3.8-2.3-.5 1.1-1.8 2-3.9 2.4-.2-.3-.4-.5-.6-.8 1.9-.4 3.1-.9 3.6-1.7h-3.2v-.7h3.5c.1-.2.1-.5.2-.8h-3.3v-.7h3.4c0-.2 0-.5 0-.8h-2.4v.3h-.8v-2.6h3.3v-.9h-1.2v.3h-.8v-1.8h-1.8v-.7h1.8v-.9h.8v.9h3.2zm-4.4 5.5h2.4c0-.3 0-.6 0-.9h-2.4zm1.2-3.1h3.2v-.8h-3.2zm4.4 2.2h-2.4v.9h2.5v-.9z" fill="#fcfbfa"/><path d="m389.2 385.8h.9v1.5h1.9v-1.5h.9v1.5h2.7v6h1.1v.9h-11.3v-.9h1.1v-6h2.7zm.2 8.7.5.8c-1.2.6-2.5 1.3-4 1.9-.2-.3-.3-.6-.6-.8 1.6-.6 3-1.3 4.1-1.9zm-2-4.3h1.9v-2.1h-1.9zm0 3.1h1.9v-2.2h-1.9zm2.7-3.1h1.9v-2.1h-1.9zm0 3.1h1.9v-2.2h-1.9zm2.4 1.3c1.4.6 2.7 1.2 4.1 1.8l-.5.9c-1.5-.7-2.8-1.4-4.1-1.9zm2.2-6.5h-1.9v2.1h1.9zm-1.9 5.2h1.9v-2.2h-1.9z" fill="#fcfbfa"/></svg>