<svg enable-background="new 0 0 400 400" viewBox="0 0 400 400" xmlns="http://www.w3.org/2000/svg"><g fill="#010103"><path d="m147.24 201.93c-5.64 0-10.99.03-16.34-.01-9.39-.06-18.79.03-28.16-.38-2.77-.12-5.73-1.26-8.15-2.69-1.74-1.03-3.15-3.16-3.93-5.12-1.04-2.6-.4-4.7 2.88-5.86 10.67-3.77 21.67-4.12 32.78-3.9 20.81.42 41.62.8 62.42 1.27 2.02.05 2.82-.69 2.93-2.63.15-2.68.43-5.35.7-8.48-5.27-.19-10.46-.45-15.66-.55-14.43-.27-28.87-.42-43.3-.72-4.22-.09-8.46-.34-12.65-.86-1.55-.19-3.23-1.11-4.4-2.18-3.38-3.1-2.45-7.1 1.82-8.56 9.63-3.31 19.59-2.79 29.56-2.71 13.75.11 27.5-.17 41.25-.14 2.82.01 3.79-.96 3.49-3.71-.2-1.85-.04-3.75-.04-6.22-8.71-.19-17.06-.22-25.4-.59-7.14-.31-14.38-.34-21.36-1.65-15.76-2.96-25.87-13.52-32.99-27.09-1.42-2.7-.6-6.57-.83-10.14 5.37.1 9.2.78 12.03 4.8 2.5 3.55 6.08 6.36 8.48 9.96 4.58 6.88 11.53 9.36 18.92 9.78 12.71.73 25.47.48 38.21.48.79 0 2.2-1.31 2.26-2.1.36-4.66.72-9.37.5-14.03-.33-7.01.86-11.3 5.26-15.77 4.05 1.77 6.6 4.84 7.09 9.26.28 2.52-.1 5.12-.26 7.68-.19 3.01-.74 6.02-.63 9.02.2 5.3.91 5.81 6.13 5.81 9.06 0 18.14.33 27.18-.13 5.41-.28 10.77-1.69 16.11-2.79 4.9-1.01 7.52-4.94 10.26-8.62 2.07-2.78 3.72-6.01 6.23-8.29 2.54-2.31 5.84-3.86 8.98-5.39.66-.32 2.52.58 3.04 1.41 3.05 4.89 1.69 9.87-1.52 13.75-5.25 6.35-11.07 12.26-17.06 17.93-1.83 1.73-4.94 2.68-7.56 2.92-15.82 1.45-31.66 2.68-47.5 3.75-2.85.19-4.12.84-3.74 3.85.22 1.75.04 3.55.04 6.25 4.23 0 8.21-.05 12.2.01 14.99.24 29.98.49 44.97.81 2.11.05 4.25.34 6.3.82 3.16.74 5.74 4.76 4.94 7.78-.23.88-1.34 1.95-2.23 2.17-5.59 1.41-11.21 3.45-16.88 3.67-9.81.38-19.67-.47-29.51-.68-6.13-.13-12.27-.02-18.72-.02-.34 3.56-.68 7.08-1.07 11.19 4.71 0 9.15-.04 13.58.01 19.25.21 38.5.36 57.74.72 6.69.12 13.4.6 20.05 1.31 2.44.26 5.08 1.25 7.06 2.69 3.44 2.51 2.83 6.86-.83 8.81-5.86 3.13-12.2 4.38-18.76 4.34-10.52-.07-21.03-.34-31.55-.52-1.2-.02-2.41 0-4.05 0 0 5.68.06 11.02-.01 16.37-.12 9.74-.13 19.48-.54 29.21-.62 14.67 2.54 28.94 4.3 43.35 2.14 17.54 4.62 35.05 7.06 52.56.86 6.19 2.1 12.34 3.01 18.53.34 2.31.43 4.7.29 7.03-.18 2.91-1.64 5.04-4.59 5.96-4.18 1.3-5.76.46-6.98-3.7-5.62-19.17-8.08-38.95-11.18-58.6-.64-4.07-1.12-8.17-1.73-12.74-23.32-.36-46.52-.73-69.95-1.09-1.67 10.55-3.27 20.8-4.93 31.04-1.77 10.93-3.5 21.86-5.49 32.75-.51 2.8-1.76 5.53-3.03 8.11-.64 1.31-1.91 2.54-3.2 3.26-4.43 2.46-7.65.8-8.38-4.09-1.47-9.77.93-19.12 2.96-28.53 5.45-25.23 9.3-50.68 8.25-76.56-.51-12.61-2.27-25.17-3.52-37.75-.79-7.99-1.7-15.98-2.65-24.83zm88.13 81.92c-.07-1.26-.09-2.02-.15-2.77-1.22-13.69-2.54-27.38-3.58-41.09-.22-2.83-.89-3.79-3.87-3.77-19.34.13-38.69.07-58.03.08-1.07 0-2.14.14-3.54.23.59 16.19 1.16 32.11 1.76 48.38 22.67-.35 44.95-.71 67.41-1.06zm-3.87-81.92c-23.75 0-46.82 0-70.17 0 1.05 7.21 2.05 14.15 3.1 21.36 22.51-.34 44.8-.68 67.06-1.01.01-6.88.01-13.51.01-20.35z"/><path d="m116.73 45.64c4.09 8.27 5.45 16.82 5.89 25.58.53 10.51 6.47 15.87 17.42 15.6 0-6.57.25-13.16-.06-19.73-.48-10.48-1.46-20.94-1.93-31.43-.11-2.54.55-5.33 1.61-7.67 1.53-3.36 3.17-3.56 6.32-1.42 4.29 2.92 6.35 7.34 6.87 12.21 1.35 12.56 2.34 25.17 3.42 37.76.27 3.1.33 6.22.49 9.36 8.78-1.1 10.91-7.62 12.18-14.43 1.11-5.92 1.29-12 2.2-17.96.72-4.67 3.42-7.26 7.12-7.03 1.23.08 2.87 1.09 3.48 2.16 3.3 5.74 4.03 12.06 3.17 18.52-.52 3.87-1.67 7.65-2.31 11.5-1.46 8.71-6.98 13.93-14.62 17.38-2.75 1.24-5.45 2.67-8.33 3.53-3.49 1.04-5.25 3.44-5.74 6.66-.51 3.38-.6 6.86-.54 10.29.05 2.73-.27 5.13-2.64 6.83-4.78 3.41-8.26 2.22-9.5-3.45-.44-2.02-.2-4.21-.06-6.31.12-1.89.61-3.76.79-5.65.48-4.95-.19-5.93-4.85-7.45-4.57-1.49-9.08-3.18-13.71-4.44-9.67-2.62-14.32-9.61-15.96-18.75-1.7-9.5-.37-18.96 2.01-28.25.22-.84 1.28-1.72 2.15-2.08 1.51-.62 3.2-.86 5.13-1.33z"/><path d="m241.65 27.62c5.87 1.73 9.16 5.97 9.16 13.14 0 6.45-1.2 12.9-1.43 19.37-.24 6.68.01 13.37.09 20.06.03 2.43 1.4 3.01 3.58 2.39 2.73-.77 6.29-.66 8.06-2.39 3.95-3.87 6.05-9.12 6.64-14.71.34-3.21.05-6.48.18-9.71.17-4.31 1.58-8.01 6.08-9.42 1.01-.32 2.9.2 3.54 1.01 5.66 7.23 6.22 15.58 4.74 24.22-1.27 7.44-4.54 13.39-11.21 17.78-6.19 4.08-12.01 8.47-20.32 8.82.65 5.6 1.25 10.68 1.83 15.76.18 1.55.43 3.12.38 4.67-.08 2.57-1.16 4.72-3.91 5.11-2.71.38-5.96.94-7.09-2.6-1.45-4.54-2.45-9.22-3.6-13.85-.21-.86-.2-1.78-.3-2.66-.51-4.51-2.42-7.62-7.35-8.56-3.26-.62-6.3-2.33-9.54-3.12-10.76-2.64-15.19-10.38-16.31-20.46-.85-7.72.14-15.37 2.27-22.9 1.04-3.67 4.18-2.78 6.48-3.5.51-.16 2.04 1.84 2.59 3.07 2.51 5.6 3.74 11.51 3.09 17.64-.65 6.23-.06 10.61 9.23 14.73 1.91.84 3.92 1.45 6.04 2.22 2.84-9.9 2.65-19.54 1.34-29.26-1.3-9.56.53-18.46 5.74-26.85z"/><path d="m200.86 250.69c3.79.24 7.6.32 11.37.75 3.98.46 7.23 2.2 8.88 6.18.76 1.84.51 2.98-1.44 4.03-7.87 4.2-16.3 4.43-24.83 3.61-3.75-.36-7.42-1.52-11.15-2.2-2.16-.39-2.83-1.5-2.81-3.68.06-5.94-.08-6.17 5.7-7.28 4.68-.9 9.47-1.19 14.21-1.75.02.1.05.22.07.34z"/></g><path d="m385.2 377.6.6-.7c.6.4 1.3.9 1.9 1.5l-.6.7c-.8-.5-1.4-1-1.9-1.5zm.3 7.1c.6-1.4 1.1-2.9 1.5-4.5.3.1.6.3.9.4-.5 1.4-1 2.9-1.5 4.4zm.2-10.1.6-.6c.7.5 1.3 1.1 1.9 1.6l-.7.7c-.6-.6-1.2-1.2-1.8-1.7zm8.4-.8h.8v.9h1.8v.7h-1.8v1.8h-.8v-.3h-1.2v.9h3.3v2.6h-.8v-.4h-2.5c0 .3 0 .6-.1.8h3.4v.7h-3.5c0 .3-.1.6-.1.8h4v.7h-3.5c.7.9 1.9 1.3 3.6 1.5-.2.2-.4.5-.6.9-1.9-.3-3.2-1.1-3.8-2.3-.5 1.1-1.8 2-3.9 2.4-.2-.3-.4-.5-.6-.8 1.9-.4 3.1-.9 3.6-1.7h-3.2v-.7h3.5c.1-.2.1-.5.2-.8h-3.3v-.7h3.4c0-.2 0-.5 0-.8h-2.4v.3h-.8v-2.6h3.3v-.9h-1.2v.3h-.8v-1.8h-1.8v-.7h1.8v-.9h.8v.9h3.2zm-4.4 5.5h2.4c0-.3 0-.6 0-.9h-2.4zm1.2-3.1h3.2v-.8h-3.2zm4.4 2.2h-2.4v.9h2.5v-.9z" fill="#fcfbfa"/><path d="m389.2 385.8h.9v1.5h1.9v-1.5h.9v1.5h2.7v6h1.1v.9h-11.3v-.9h1.1v-6h2.7zm.2 8.7.5.8c-1.2.6-2.5 1.3-4 1.9-.2-.3-.3-.6-.6-.8 1.6-.6 3-1.3 4.1-1.9zm-2-4.3h1.9v-2.1h-1.9zm0 3.1h1.9v-2.2h-1.9zm2.7-3.1h1.9v-2.1h-1.9zm0 3.1h1.9v-2.2h-1.9zm2.4 1.3c1.4.6 2.7 1.2 4.1 1.8l-.5.9c-1.5-.7-2.8-1.4-4.1-1.9zm2.2-6.5h-1.9v2.1h1.9zm-1.9 5.2h1.9v-2.2h-1.9z" fill="#fcfbfa"/></svg>