<svg enable-background="new 0 0 400 400" viewBox="0 0 400 400" xmlns="http://www.w3.org/2000/svg"><g fill="#010103"><path d="m282.53 160.67c-8.7 0-17.17.06-25.63-.01-14.32-.13-28.63-.29-42.95-.61-2.29-.05-4.66-.7-6.83-1.5-3.83-1.41-5.57-5.02-4.54-8.98.16-.63.76-1.4 1.34-1.62 4.76-1.82 9.32-3.89 14.75-3.84 27.08.23 54.17.06 81.25.15 4 .01 8.05.33 11.98 1.07 1.78.33 3.73 1.68 4.86 3.14 3.07 3.96 2.42 6.76-2.25 8.43-4.16 1.49-8.64 2.09-12.99 3.04-1.73.38-3.48.64-5.52 1.02.1 2.15.17 4.14.28 6.12 1.05 19.09 2.42 38.17 3.02 57.27.28 8.79-.88 17.63-1.52 26.44-1 13.82-7.77 24.97-16.56 35.14-4.68 5.42-9.56 10.66-14.16 16.15-6.71 8.01-9.41 17.17-6.92 27.51.37 1.52 1.25 3.11 2.35 4.23 10.54 10.73 21.99 20.35 34.94 28.1 3.61 2.16 5.66 5.28 5.87 9.56.11 2.31-.97 3.95-3.15 3.86-3.05-.12-6.31-.34-9.06-1.5-6.8-2.87-13.11-6.6-18.6-11.74-6.21-5.8-13.1-10.88-19.21-16.77-8.97-8.64-11.62-18.99-8-31.24 2.72-9.21 7.05-17.19 13.26-24.46 6.25-7.3 11.61-15.38 18-22.55 5.72-6.42 7.6-13.97 8.7-22.01 2.07-15.2.64-30.38-.24-45.56-.57-9.94-1.22-19.88-1.84-29.81-.18-2.78-.39-5.55-.63-9.03z"/><path d="m148.65 223.15c-.51 5.7-.84 11.74-1.62 17.71-2.96 22.65-1.55 45.22 2.56 67.5 3.17 17.21 7.02 34.36 13.67 50.73 1.42 3.49 1.6 7.6 1.76 11.44.06 1.34-1.52 3.75-2.63 3.92-1.79.27-4.45-.3-5.6-1.56-5.97-6.59-9.35-14.64-11.71-23.11-6.05-21.64-8.77-43.81-10.37-66.16-1.44-20.13-1.49-40.26.16-60.36 1-12.25 2.51-24.48 4.1-36.67 1.29-9.91-.45-19.13-5.17-27.85-3.16-5.85-5.84-11.84-5.76-18.69.06-4.79 2.2-6.03 6.36-3.76 10.52 5.76 14.51 15.44 16.49 26.6 2.47 13.94 2.69 27.78-.33 41.65-.7 3.21.09 4.31 3.29 3.93 5.92-.72 11.06-2.58 14.09-8.63 5.21-10.38 4.7-20.91 2.17-31.73-1.58-6.75-2.9-13.55-4.31-20.34-1.2-5.79.84-9.86 5.49-11.43 1.76-.6 2.81-.27 3.98 1.2 5.87 7.41 9.07 15.91 10.09 25.19 1.55 14.05.53 27.85-4.17 41.36-3.08 8.82-9.76 13.44-17.87 16.27-4.44 1.55-9.35 1.83-14.67 2.79z"/><path d="m264.5 223.62c.19 11.33-.13 22.61-3.13 33.64-3.05 11.21-11.73 18.17-23.44 18.81-7.18.39-14.11-.77-20.44-4.2-2.21-1.2-4.31-3.2-5.63-5.35-5.3-8.64-6.63-18.42-7.19-28.3-1.09-19.18.59-38.23 3.37-57.19.29-1.96 1.06-3.87 1.83-5.72 1.61-3.84 2.19-3.99 5.95-2.05 4.12 2.13 6.12 6.67 5.28 12.38-.6 4.09-1.35 8.16-2.03 12.24-.06.33-.12.66-.16.99-1.17 10.1-.27 11.14 9.59 11.14 5.6 0 11.19-.08 16.79.04 2.13.04 3.07-.64 3.02-2.84-.18-7.03-.53-14.08-.27-21.1.13-3.56.54-7.67 2.41-10.46 2.8-4.17 6.04-5.62 8.88.17.73 1.48 1.46 3.08 1.62 4.68 1.09 11.12 2.06 22.26 3.01 33.39.29 3.24.37 6.49.54 9.73zm-45.01-.36c0 8.59-.78 16.91.2 25.02 1.15 9.5 3.75 12.87 10.21 13.63 2.85.33 5.82.41 8.65.02 5.72-.77 9-3.84 9.49-8.99.72-7.55 1.16-15.13 1.55-22.7.09-1.74-.31-3.57-.84-5.25-.23-.72-1.34-1.65-2.06-1.66-8.79-.11-17.58-.07-27.2-.07z"/><path d="m247.17 102.95c2.3-10.31 2.3-20.46 1.42-30.6-1-11.47-3.08-22.91-.3-34.37.86-3.56 2.37-6.96 3.52-10.45.71-2.16 2.18-2.24 3.97-1.61 3.03 1.06 4.88 3.18 5.24 6.35.37 3.22.65 6.46.66 9.7.04 18.91-.01 37.82-.02 56.74 0 3.9.95 5.08 4.72 4.18 3.96-.94 7.76-2.68 11.51-4.35.92-.41 1.54-1.83 1.99-2.92 2.49-6.12 2.89-12.57 2.86-19.1-.02-4.12-.05-8.3.57-12.35.68-4.44 3.49-7.38 8.35-8.36 4.44 6.75 6.35 14.21 5.93 22.2-.5 9.48-2.83 18.55-7.28 26.98-.63 1.19-1.72 2.44-2.9 2.98-7.79 3.53-15.13 8.28-23.98 9.12-.77.07-1.95 1.51-2 2.36-.17 3.33.03 6.68.12 10.02.07 2.41 1.05 5.64-1.72 6.58-2.51.85-5.58.16-8.38-.09-.46-.04-1.05-1.28-1.17-2.03-.7-4.3-1.5-8.61-1.8-12.95-.18-2.51-1.33-3.39-3.46-4.1-5.29-1.78-10.4-4.19-15.78-5.6-8.85-2.32-13.08-8.68-15.16-16.68-3.06-11.77-1.73-23.55 1.46-35.11.87-3.16 4-3.4 6.86-3.72 2.91-.33 2.82 1.95 3.4 3.59 2.86 8.09 3.28 16.48 2.04 24.84-1.58 10.67 3.47 15.89 12.98 17.88 2.03.41 4.14.57 6.35.87z"/><path d="m136.64 102.87c2.29-9.78 2.43-19.44 1.76-29.18-.67-9.68-1.78-19.42-1.36-29.07.25-5.83 3.02-11.54 4.67-17.31.53-1.87 1.85-1.94 3.43-1.52 3.3.87 5.47 3.25 5.74 7.01.27 3.78.2 7.58.21 11.37.02 18.46.04 36.92-.03 55.38-.01 2.74 1.25 3.54 3.69 3.45 6.33-.24 13.72-5.56 14.83-11.71 1.26-6.99 1.58-14.15 2.35-21.23.29-2.66.48-5.36 1.15-7.93.44-1.65 1.44-3.32 2.61-4.58 2.98-3.2 4.8-2.98 6.62.86 7.35 15.56 6.26 31-2.34 45.5-3.56 6-10.42 8.99-17.19 10.97-2.75.8-5.69 1.18-8.56 1.28-1.97.07-2.9.72-3.11 2.57-.31 2.77-.65 5.54-.88 8.32-.16 2-.02 4.04-.28 6.03-.32 2.36-.8 4.78-4.01 4.84-3.15.05-5.57-1.81-6.06-4.79-.64-3.86-1.31-7.72-1.77-11.6-.29-2.43-1.11-3.96-3.66-4.85-5.16-1.8-10.04-4.49-15.28-5.95-7.64-2.12-11.33-7.67-13.64-14.37-4.29-12.45-3.99-24.98-.09-37.56 1.09-3.51 3.9-2.92 6.16-3.33.74-.13 2.21 1.68 2.74 2.87 2.91 6.55 2.58 13.45 2.12 20.42-.23 3.5.08 7.17.88 10.59 1.2 5.11 3.89 9.1 9.68 10.28 3.23.66 6.3 2.09 9.62 3.24z"/><path d="m108.32 237.01c1.71.54 3.27 1.2 4.89 1.5 2.23.42 3.4 1.75 3.4 3.87 0 6.9.22 13.83-.31 20.69-.62 8.01-2.53 15.95-2.78 23.95-.22 6.85 1.01 13.76 1.8 20.62.87 7.66 1.67 15.35 3.06 22.92 1.08 5.89 3.15 11.59 4.57 17.42.94 3.87 1.61 7.82 2.18 11.76.27 1.83-.56 2.88-2.75 3.32-6.51 1.31-6.47 1.45-10.09-4.26-4.99-7.85-6.51-16.78-8.02-25.7-2.73-16.11-4.63-32.3-4.29-48.68.33-15.62 2.78-30.9 7.65-45.77.15-.49.4-.97.69-1.64z"/><path d="m181.74 235.29c-1.2 14.87-2.35 28.92-3.41 42.98-.12 1.62.06 3.36.51 4.93 3.66 12.78 7.21 25.6 11.24 38.27 1.47 4.63 4.32 8.81 6.21 13.33 1.19 2.85 2.18 5.9 2.52 8.95.57 5-.13 5.73-5.15 6.33-1.13.14-2.79-.56-3.55-1.43-7.78-9.03-12.87-19.56-16.63-30.77-5.69-16.97-9.52-34.27-8.51-52.31.46-8.26 1.2-16.5 1.88-24.75.41-4.96 2.82-9.09 5.65-13.05 1.18-1.65 2.44-1.69 4.04-1.05 3.14 1.22 5.27 5.09 5.2 8.57z"/><path d="m121.6 182.58c-.03 9.91-2.42 17.91-8.27 24.88-5.32 6.34-10.15 13.08-15.34 19.53-3.55 4.4-7.68 8.24-13.4 9.58-2.68.63-5.78 2.07-7.82-1.3-1.44-2.38-.02-7.48 2.38-9.77 6.62-6.34 13.32-12.62 19.74-19.16 5.27-5.37 8.72-11.74 9.87-19.39 1.19-7.91-2.37-14.1-6.37-20.25-1.52-2.34-3.24-4.56-4.73-6.92-2.14-3.38-2.63-7.08-1.67-10.96.49-1.97 1.29-2.95 3.76-2.37 8.04 1.88 13.45 6.78 16.89 14.04 3.46 7.29 4.79 15.09 4.96 22.09z"/></g><path d="m377.9 391.2c-.2.3-.4.5-.6.8-.7-.6-1.4-1-2.2-1.5.2-.3.4-.5.5-.8.6.4 1.4.8 2.3 1.5zm-1.8 6.1c-.2-.2-.5-.4-.9-.6.4-.6.8-1.2 1.2-1.9s.7-1.3.9-1.9c.3.3.5.5.8.7-.7 1.3-1.4 2.6-2 3.7zm2.2-9c-.3.3-.5.5-.6.8-.6-.6-1.3-1.1-2-1.5.3-.3.5-.5.6-.7.6.5 1.3.9 2 1.4zm.3.2v-.9h2 4.5c-.3 1.3-.6 2.5-1 3.6s-.9 2.1-1.4 3c.4.5 1 1 1.6 1.4s1.2.8 1.9 1.1c-.3.2-.5.4-.8.8-.4-.3-1-.7-1.6-1.2s-1.2-1.1-1.6-1.6c-.5.6-1.1 1.1-1.7 1.6s-1.4.9-2.1 1.4c-.1-.3-.3-.5-.7-.8.6-.2 1.2-.5 1.9-1s1.4-1.1 2-1.8c-.5-.8-.9-1.6-1.2-2.5s-.6-2-.8-3.2c-.4.1-.7.1-1 .1zm2.5 2.7c.3 1 .7 1.7 1 2.2.3-.5.6-1.1 1-2s.6-1.9.9-3h-3.2-.4c.1.9.3 1.8.7 2.8z" fill="#fcfbfa"/><path d="m396.5 388.5v1.5 3.6h1.5v.9c-.4 0-1 0-1.7 0h-7.9c-.5 0-.9 0-1.2 0v-.9h1.3v-3.5c0-.7 0-1.2 0-1.6h2.4c0-.8 0-1.4 0-1.7h1c0 .3-.1.8-.1 1.7h1.5c0-.8 0-1.4 0-1.7h1c0 .3-.1.9-.1 1.7zm-8.2 9.2c-.2-.3-.5-.5-.8-.8.8-.3 1.4-.6 1.9-.9s1-.7 1.4-1.1c.3.3.6.5.9.8-1.6 1-2.8 1.6-3.4 2zm2.6-6.8v-1.6h-1.5v1.6zm0 2.7v-1.9h-1.5v1.9zm2.4-2.7v-1.6h-1.5v1.6zm0 2.7v-1.9h-1.5v1.9zm.2 2 .7-.8c.4.2.9.5 1.6.8s1.3.7 1.8 1c-.3.3-.5.5-.8.8-.4-.3-1.5-1-3.3-1.8zm2-4.7v-1.6h-1.4v1.6zm0 2.7v-1.9h-1.4v1.9z" fill="#fcfbfa"/></svg>