<svg enable-background="new 0 0 400 400" viewBox="0 0 400 400" xmlns="http://www.w3.org/2000/svg"><g fill="#010103"><path d="m209.91 230.36c-.2 19.09-1.14 32.4-3.85 45.66-4.41 21.57-19.07 31.18-39.04 35.12-11.08 2.18-22.38 2.89-33.34.41-15.02-3.39-29.74-8.57-36.66-24-3.7-8.25-6.24-17.31-7.57-26.27-3.71-24.91-2.7-49.75 3.77-74.23.17-.65.38-1.29.58-1.93 1.91-6.08 3.73-12.06 9.57-15.97 7.18-4.82 14.65-8.81 23.42-9.12 12.97-.46 25.95-.65 38.93-.68 8.24-.02 16.11 1.96 23.82 4.98 8.71 3.41 13.33 9.79 14.96 18.67 3.23 17.52 5.67 35.12 5.41 47.36zm-100.01 51.59c6.52-5.4 12.72-10.36 18.72-15.55 6.59-5.7 14.46-7.76 22.83-8.44 5.14-.42 9.81 1.09 13.61 4.59 6.66 6.13 13.16 12.43 19.76 18.63.92.87 2.03 1.53 3.05 2.29.59-1.23 1.41-2.41 1.71-3.71.89-3.81 1.45-7.69 2.37-11.49.48-2.01-.05-3.24-1.59-4.59-9.34-8.19-18.6-16.47-27.84-24.78-1.13-1.01-2.37-2.24-2.81-3.61-1.34-4.24-2.92-8.55-3.33-12.93-1.03-11.13-1.47-22.31-2.17-33.47-.29-4.66-.66-9.32-1.01-14.25-4.45-.23-8.61-.45-13.01-.67v4.2c-.03 10.74.05 21.49-.14 32.23-.14 7.86-1.18 15.6-4.4 22.91-1.43 3.25-3.46 5.78-6.67 7.63-7.75 4.46-15.32 9.24-22.92 13.96-.85.53-2.05 1.53-2.04 2.28.23 8.48.98 16.9 5.88 24.77zm59.23-107.99c0 .98-.04 1.54.01 2.09 1.31 17.52 2.61 35.03 4.01 52.54.08 1.06.84 2.28 1.66 3.02 4.8 4.37 9.66 8.67 14.62 12.86 1.18 1 2.79 1.51 4.48 2.39.22-1.09.42-1.62.43-2.15.3-14.43 1.03-28.87.65-43.28-.16-6.09-2.56-12.14-4.16-18.15-.29-1.09-1.5-2.35-2.58-2.75-6.18-2.27-12.45-4.3-19.12-6.57zm-44.76.71c-6.57 1.14-11.41 4.04-15.78 7.79-.71.61-1.3 1.55-1.56 2.44-4.15 14.24-6.63 28.73-5.76 43.62.23 3.84 1.11 7.64 1.78 11.96 5.58-3.31 10.48-6.41 15.57-9.15 2.7-1.45 4.15-3.37 4.78-6.33 2.69-12.53 3.83-25.19 3.12-37.96-.23-4.13-1.4-8.21-2.15-12.37zm53.33 118.35c-5.07-5.37-9.66-10.72-14.8-15.48-2.62-2.42-6.14-3.95-9.43-5.52-3.21-1.54-6.45-1.36-9.32 1.14-6.56 5.71-13.2 11.34-19.71 17.12-3.08 2.73-2.84 3.52 1.08 4.7 10.38 3.12 21.05 4.21 31.81 3.83 6.94-.24 13.76-1.66 20.37-5.79z"/><path d="m245.22 172.06c-.36 11.9-.98 23.18-.98 34.46.02 24.67-2.35 49.16-5.1 73.62-1.14 10.11-2.24 20.23-3.63 30.31-.82 5.96-4.37 9.2-9.51 9.68-1.7.16-2.6-.32-3.3-1.98-2.11-4.93-2.78-10.04-1.16-15.08 5.71-17.76 5.47-36.2 6.44-54.47 1.35-25.48 2.13-50.98 3.29-76.47.11-2.44-.7-3.94-2.68-4.82-3.25-1.44-6.59-2.72-9.93-3.96-2.09-.77-4.35-1.13-6.36-2.05-4.52-2.05-5.55-8.51-1.95-11.92.51-.48 1.67-.62 2.42-.46 4.68 1.02 9.53 1.66 13.96 3.37 12.63 4.87 25.74 5.25 38.98 5.18 4.24-.02 8.55.04 12.7.77 13.35 2.34 23.06 11.87 24.82 25.59 2.02 15.74 3.62 31.59 4.26 47.44.78 19.3-2.55 38.35-5.65 57.36-.65 3.97-1.44 7.95-1.68 11.95-.95 15.92-10.23 25.29-24.04 31.33-6.39 2.8-13.12 3.53-19.95 3.93-10.72.63-21.1 3.1-30.75 7.59-3.7 1.72-6.65 5.54-9.27 8.92-3.07 3.95-5.14 8.66-8.13 12.68-2.42 3.24-5.2 6.46-8.48 8.75-3.34 2.32-5.16 1.2-6.28-2.72-.39-1.38-1.01-3.08-.54-4.24 2.4-5.93 4.71-11.97 7.87-17.5 1.83-3.19 5.38-5.34 7.85-8.22 9.57-11.16 21.77-16.09 36.32-16.72 7.54-.33 15.14-1.67 22.49-3.46 11.65-2.85 17.79-11.03 19.26-22.71 2.28-18.08 4.71-36.16 6.44-54.3 2.04-21.44 1.11-42.72-6.3-63.27-.54-1.5-1.88-3.01-3.25-3.84-5.37-3.24-11.3-4.75-17.59-4.76-6.71.02-13.41.02-20.59.02z"/><path d="m116.16 50.49c3.52 7.41 5.32 15.28 5.65 23.52.06 1.45.14 2.92-.01 4.36-1.23 11.81 7.23 19.01 20.11 21.24.05-1 .14-1.97.14-2.94.01-14.55.18-29.1-.1-43.64-.08-4.17-1.3-8.36-2.3-12.47-1.34-5.53-.62-10.6 2.51-15.51 5 1.02 7.97 4.29 9.99 8.6 3.31 7.06 3.71 14.71 4.06 22.3.62 13.52.94 27.05 1.4 40.58.03 1 .12 1.99.22 3.54 4.92-1.77 9.79-3.09 14.19-5.33 1.76-.89 2.73-3.7 3.66-5.81 3.07-6.98 3.57-14.47 4.13-21.96.22-2.99.67-6.01 1.52-8.88.54-1.84 1.72-3.7 3.1-5.06 3.31-3.26 6.17-2.62 8 1.56 3.72 8.51 2.92 17.25 1.24 26.03-.36 1.86-.89 3.7-1.2 5.57-1.29 7.57-4.43 13.94-11.28 18.06-1.42.85-2.71 2.02-3.85 3.23-3.97 4.25-8.79 6.1-14.62 6.17-4.45.05-6.17 1.99-6.41 6.49-.35 6.47-.4 12.96-.71 19.44-.27 5.7-3.38 8.69-8.72 8.21-1.06-.09-2.71-1.31-2.88-2.24-.82-4.26-1.43-8.59-1.7-12.92-.33-5.13-.21-10.29-.33-15.43-.05-2.12-.89-3.49-3.23-3.9-2.19-.38-4.27-1.43-6.46-1.74-8.2-1.15-13.73-5.98-17.92-12.68-8.11-12.97-11.76-26.72-7.15-41.86 1.68-5.58 2.57-6.21 8.95-6.53z"/><path d="m271.17 99.84c2.98-.57 6.4-1.12 9.76-1.91.99-.23 1.96-1.03 2.68-1.81 4.81-5.21 7.32-11.39 7.75-18.47.39-6.48.86-12.95 1.4-19.42.45-5.45 2.7-8.1 6.83-7.69 1.36.13 3.15 1.23 3.79 2.4 4.21 7.67 5.27 15.94 3.2 24.38-1.83 7.47-4.07 14.87-6.6 22.14-.8 2.3-2.73 4.78-4.83 5.97-6.71 3.78-13.69 7.09-20.66 10.36-2.4 1.13-3.62 2.47-3.6 5.25.04 5.48-.18 10.96-.35 16.44-.17 5.31-2.96 8-7.75 7.25-1.04-.16-2.59-1.28-2.76-2.17-.93-4.91-1.97-9.87-2.09-14.84-.28-11.23-.07-11.24-10.17-15.79-1.53-.69-3-1.56-4.59-2.04-11.19-3.36-15.62-12.19-17.45-22.52-1.97-11.11-1.35-22.26 1.46-33.29.96-3.76 4.1-2.81 6.41-3.48.51-.15 2.15 1.69 2.39 2.81 1.42 6.63 2.76 13.29 3.75 19.99.55 3.74.1 7.62.6 11.38.97 7.34 7.43 13.57 15.08 14.84 3.27-11.89 3.7-24 2.63-36.19-1.09-12.44 1.81-23.74 9.18-33.86 1.1-1.51 1.97-3.29 4.48-2.51 2.63.81 5.07 2.04 5.2 4.98.18 3.77.03 7.61-.56 11.33-1.38 8.72-3.18 17.38-4.67 26.08-.43 2.51-.46 5.11-.48 7.67-.07 7.45-.03 14.92-.03 22.72z"/><path d="m277.12 248.06c-.33 11.99-1.3 23.85-5.24 35.35-1.32 3.86-3.68 3.83-6.85 3.94-3.32.12-4.35-2.13-4.47-4.3-.28-5.41-.04-10.85.18-16.27.14-3.55.93-7.1.85-10.64-.34-15.44-1.03-30.87-1.24-46.3-.05-3.32 1.19-6.71 2.21-9.95.23-.73 2.12-1.51 3.07-1.34 4.29.79 6.77 3.55 7.64 7.84 2.8 13.76 4.29 27.62 3.85 41.67z"/></g><path d="m385.2 377.6.6-.7c.6.4 1.3.9 1.9 1.5l-.6.7c-.8-.5-1.4-1-1.9-1.5zm.3 7.1c.6-1.4 1.1-2.9 1.5-4.5.3.1.6.3.9.4-.5 1.4-1 2.9-1.5 4.4zm.2-10.1.6-.6c.7.5 1.3 1.1 1.9 1.6l-.7.7c-.6-.6-1.2-1.2-1.8-1.7zm8.4-.8h.8v.9h1.8v.7h-1.8v1.8h-.8v-.3h-1.2v.9h3.3v2.6h-.8v-.4h-2.5c0 .3 0 .6-.1.8h3.4v.7h-3.5c0 .3-.1.6-.1.8h4v.7h-3.5c.7.9 1.9 1.3 3.6 1.5-.2.2-.4.5-.6.9-1.9-.3-3.2-1.1-3.8-2.3-.5 1.1-1.8 2-3.9 2.4-.2-.3-.4-.5-.6-.8 1.9-.4 3.1-.9 3.6-1.7h-3.2v-.7h3.5c.1-.2.1-.5.2-.8h-3.3v-.7h3.4c0-.2 0-.5 0-.8h-2.4v.3h-.8v-2.6h3.3v-.9h-1.2v.3h-.8v-1.8h-1.8v-.7h1.8v-.9h.8v.9h3.2zm-4.4 5.5h2.4c0-.3 0-.6 0-.9h-2.4zm1.2-3.1h3.2v-.8h-3.2zm4.4 2.2h-2.4v.9h2.5v-.9z" fill="#fcfbfa"/><path d="m389.2 385.8h.9v1.5h1.9v-1.5h.9v1.5h2.7v6h1.1v.9h-11.3v-.9h1.1v-6h2.7zm.2 8.7.5.8c-1.2.6-2.5 1.3-4 1.9-.2-.3-.3-.6-.6-.8 1.6-.6 3-1.3 4.1-1.9zm-2-4.3h1.9v-2.1h-1.9zm0 3.1h1.9v-2.2h-1.9zm2.7-3.1h1.9v-2.1h-1.9zm0 3.1h1.9v-2.2h-1.9zm2.4 1.3c1.4.6 2.7 1.2 4.1 1.8l-.5.9c-1.5-.7-2.8-1.4-4.1-1.9zm2.2-6.5h-1.9v2.1h1.9zm-1.9 5.2h1.9v-2.2h-1.9z" fill="#fcfbfa"/></svg>