<svg enable-background="new 0 0 400 400" viewBox="0 0 400 400" xmlns="http://www.w3.org/2000/svg"><g fill="#010103"><path d="m158.97 211.11c-2.81 10.45-3.88 20.32-3.19 30.28 1.04 15.06 2.45 30.09 3.71 45.14.05.65.18 1.3.34 2.4 5.82.27 11.6.54 17.38.79 4.9.21 7.85 2.11 9.32 5.8.91 2.29.5 3.62-1.91 4.63-7.33 3.09-15.02 4.59-22.88 4.51-14.98-.16-29.95-.77-44.92-1.12-4.24-.1-8.51.27-12.73 0-3.42-.22-6.81-1.05-10.21-1.66-2.64-.47-3.76-1.98-3.36-4.73.22-1.52.04-3.1.04-4.91 6.04-.97 11.87-1.9 18.29-2.93 0-27.56 0-55.12 0-83.07-.87.38-1.93.8-2.96 1.31-5.3 2.64-10.49 5.55-15.94 7.84-1.88.79-5.63.92-6.35-.13-1.4-2.04-1.48-5.13-1.61-7.81-.04-.76 1.55-1.73 2.53-2.39 12.73-8.53 25.41-17.13 38.28-25.44 3.5-2.26 4.98-5.16 5.34-9.05.58-6.32.86-12.71 1.98-18.94 1.05-5.83 3.89-6.57 8.76-2.97 3.59 2.66 3.63 6.39 3.1 10.31-.45 3.32-.96 6.63-1.17 9.96-.3 4.84 1.29 8.62 5.39 11.84 9.14 7.18 18.15 14.6 26.61 22.55 3.43 3.22 5.54 7.97 7.79 12.27.89 1.7.55 4.06.71 5.6-11.05 4.6-15.91-3.87-22.34-10.08zm-34.97 77.7h21.6c.09-1.11.21-1.77.19-2.42-.82-22.59-1.73-45.18-2.43-67.77-.2-6.58.45-13.19.26-19.77-.19-6.69-6.99-10.17-12.76-6.83-1.35.79-2.65 1.71-4.08 2.32-2.58 1.1-3.42 2.8-3.38 5.69.31 20.48.44 40.96.58 61.43.07 9.06.02 18.11.02 27.35z"/><path d="m249.88 185.38c-10.17 0-20.35-.28-30.51.08-9.31.33-14.28 5.54-14.13 14.77.09 5.65 1.07 11.32 2.02 16.91.22 1.32 1.65 2.86 2.93 3.5 6.64 3.29 13.87 4.46 21.16 4.4 12.3-.09 24.6-.91 36.9-.97 4.74-.02 9.53.99 14.22 1.91 2.5.49 4.33 2.27 4.81 5.03.47 2.69.11 5.16-2.93 5.8-4.31.91-8.7 1.88-13.08 2-12.07.33-24.16.26-36.24.3-11.1.04-21.82-1.84-31.91-6.59-1.55-.73-3.06-1.86-4.17-3.16-7.29-8.49-8.15-18.58-6.9-29.11.47-3.99 1.38-7.94 1.72-11.95.34-3.98 2.49-6.38 5.63-8.5 8.88-6 18.55-9.37 29.31-9.06 14.2.4 28.39 1.12 42.59 1.46 4.78.11 9.6-.35 14.35-.94 1.75-.22 3.67-1.26 4.96-2.49 2.98-2.85 2.13-6.6-1.61-8.05-12.64-4.91-25.73-5.49-38.99-3.73-16.59 2.19-32.53.62-46.67-8.97-4.88-3.31-9.05-7.94-12.76-12.59-1.83-2.3-2.28-5.97-2.65-9.1-.4-3.36 2.49-5.59 5.62-4.27 3.31 1.4 6.41 3.47 9.31 5.64 1.64 1.23 2.69 3.26 4 4.93 4.48 5.69 9.73 9.08 17.57 9.25 20.57.45 41.15 1.33 61.68 2.75 15.35 1.06 25.37 13.66 19.88 29.28-.52 1.48-1.6 2.98-2.83 3.97-7.5 6.02-16.15 8.98-25.76 9.06-9.17.07-18.34.01-27.51.01-.01-.52-.01-1.05-.01-1.57z"/><path d="m250.57 211.81c-6.26 0-12.52.07-18.77-.04-2.22-.04-4.48-.27-6.63-.81-3.97-1.01-5.61-4.79-3.75-8.42.33-.65 1.25-1.17 2-1.41 17.91-5.71 36.29-5.66 54.77-4.35 19.76 1.4 28.83 14.38 32.63 29.62 3.36 13.48 2.72 27.29 2.45 41.06-.22 11.55-3.61 22.24-8.38 32.51-1.29 2.77-3.97 5.06-6.41 7.09-6.25 5.2-13.22 8.77-21.34 10.67-8.66 2.03-17.02 5.38-25.45 8.32-.9.31-1.83 1.64-2.04 2.64-1.22 5.85.9 11.07 3.79 15.91 3.84 6.43 8.12 12.59 11.97 19.02 1.28 2.14 2.05 4.68 2.63 7.14.63 2.7-.79 4.37-3.59 4.37-3.78 0-7.26-.89-9.97-3.88-9.12-10.05-15.94-21.28-17.81-34.99-.79-5.77.18-11.39 2.36-16.75.51-1.25 1.62-2.36 2.7-3.24 7.93-6.39 17.35-8.95 27.18-10.48 7.09-1.1 13.62-3.8 19.22-8.23 5.31-4.2 7.62-10.34 9.24-16.71 3.09-12.16 2.28-24.48.95-36.71-.91-8.3-2.76-16.51-4.45-24.7-.28-1.36-1.68-2.89-2.98-3.58-8.85-4.7-18.37-6.02-28.28-5.19-4.01.33-8.04.38-12.06.56.02.18.02.38.02.58z"/><path d="m221.48 55.21c3.73 7.76 5.95 15.77 6.68 24.2.26 3 .28 6.09 1.03 8.97 2.34 8.97 9.39 12.42 17.95 14.73 0-4.45-.04-8.54.01-12.62.14-12.07-.08-24.17.6-36.22.56-9.94 4.22-19.15 9.27-27.73.45-.77 1.95-1.45 2.85-1.32 4.64.64 6.83 3.31 6.63 8.06-.11 2.44-.21 5.01-1.03 7.27-3.89 10.72-4.51 21.81-4.3 33.05.14 7.38-.05 14.77-.01 22.15.01 1.55.14 3.15.58 4.62 1.03 3.46 2.59 4.13 5.93 2.83 1.98-.77 3.89-1.85 5.94-2.28 8.34-1.76 11.7-8.08 13.64-15.27 1.41-5.25 1.93-10.75 2.68-16.16.64-4.6 1.4-9.12 5.09-12.42 3.01-2.68 4.16-2.47 6.28.82 3.81 5.9 4.59 12.41 3.06 19.03-1.51 6.51-3.39 12.99-5.76 19.23-5.24 13.84-16.3 20.11-30.33 21.7-2.94.33-3.78 1.14-3.9 3.89-.14 3.34-.73 6.67-1.13 10-.36 2.93-1.8 4.78-4.94 4.8-3.6.03-6.21-1.74-6.73-4.51-.66-3.51-1.4-7.02-1.88-10.56-.27-2.02-1.11-3.16-3.07-3.81-3.81-1.27-7.47-3.07-11.34-4.08-7.79-2.04-12.65-7.42-16.35-13.95-7.37-13.03-8.28-26.91-4.49-41.22.55-2.1.65-2.07 7.04-3.2z"/><path d="m109.52 55.3c3.56 7.23 5.48 14.92 5.28 23.11-.04 1.79-.07 3.59-.31 5.36-.88 6.41 1.63 11.33 7.04 14.4 4.49 2.55 9.42 4.33 14.72 6.71 0-2.1.03-3.19-.01-4.29-.49-13.75-.85-27.51-1.56-41.25-.22-4.2-1.26-8.38-2.14-12.53-.96-4.52.47-8.31 2.85-12.02 1.39-2.17 3.02-2.28 5.12-1.33 3.04 1.37 4.65 3.88 5.16 6.99.95 5.84 1.89 11.7 2.41 17.59 1.31 14.82 2.39 29.65 3.57 44.48.03.42.16.84.32 1.71 4.87-2.12 10.38-3.22 13.97-6.46 3.07-2.77 4.68-7.84 5.58-12.17 1.2-5.75.99-11.78 1.56-17.67.55-5.68 2.12-10.79 8.71-12.95 3.52 5.21 5.65 10.91 5.98 17.1.59 10.72-1.66 21.22-6.64 30.46-4.07 7.56-11.32 12.57-20.44 13.76-2.44.32-4.84 1.03-7.28 1.16-2.56.14-3.72 1.54-3.84 3.73-.2 3.77-.15 7.55-.07 11.32.08 3.95-1.24 5.8-4.82 6.42-3.8.65-5.3-.23-6.09-4.04-.93-4.48-1.76-8.99-2.35-13.53-.34-2.6-1.48-3.81-3.99-4.54-5.15-1.49-10.12-3.63-15.3-4.96-4.46-1.15-7.42-3.89-9.99-7.36-5.39-7.28-7.93-15.57-7.72-24.5.15-6.09 1.25-12.16 1.97-18.24.58-4.72 3.63-6.46 8.31-6.46z"/><path d="m264.9 254.01c.64-2.58 1.3-4.83 1.74-7.13.63-3.24 2.89-4.19 5.77-4.63 2.84-.43 3.01 1.94 3.67 3.48 5.88 13.75 6.06 27.47-1.54 40.59-4.28 7.39-11.97 10.38-19.86 11.84-14.79 2.74-29.16.66-42.92-5.41-.93-.41-1.84-1.29-2.35-2.19-7.69-13.48-10.51-27.75-6.08-42.89.6-2.05 2.82-4.45 4.8-5.07 2.75-.87 5.51 1.94 6.31 5.14 1.54 6.16 1.68 6.27 8.16 6.27zm-48.28 14.78c1.46 4.07 2.62 7.8 4.18 11.35.51 1.17 1.99 2.51 3.18 2.68 6.29.92 12.62 1.74 18.96 2.1 6.12.35 12.01-1.03 17.4-4.11 3.39-1.93 4.25-5.37 4.58-8.8.18-1.85-1.04-3.25-3.38-3.25-14.77.06-29.54.03-44.92.03z"/></g><path d="m385.2 377.6.6-.7c.6.4 1.3.9 1.9 1.5l-.6.7c-.8-.5-1.4-1-1.9-1.5zm.3 7.1c.6-1.4 1.1-2.9 1.5-4.5.3.1.6.3.9.4-.5 1.4-1 2.9-1.5 4.4zm.2-10.1.6-.6c.7.5 1.3 1.1 1.9 1.6l-.7.7c-.6-.6-1.2-1.2-1.8-1.7zm8.4-.8h.8v.9h1.8v.7h-1.8v1.8h-.8v-.3h-1.2v.9h3.3v2.6h-.8v-.4h-2.5c0 .3 0 .6-.1.8h3.4v.7h-3.5c0 .3-.1.6-.1.8h4v.7h-3.5c.7.9 1.9 1.3 3.6 1.5-.2.2-.4.5-.6.9-1.9-.3-3.2-1.1-3.8-2.3-.5 1.1-1.8 2-3.9 2.4-.2-.3-.4-.5-.6-.8 1.9-.4 3.1-.9 3.6-1.7h-3.2v-.7h3.5c.1-.2.1-.5.2-.8h-3.3v-.7h3.4c0-.2 0-.5 0-.8h-2.4v.3h-.8v-2.6h3.3v-.9h-1.2v.3h-.8v-1.8h-1.8v-.7h1.8v-.9h.8v.9h3.2zm-4.4 5.5h2.4c0-.3 0-.6 0-.9h-2.4zm1.2-3.1h3.2v-.8h-3.2zm4.4 2.2h-2.4v.9h2.5v-.9z" fill="#fcfbfa"/><path d="m389.2 385.8h.9v1.5h1.9v-1.5h.9v1.5h2.7v6h1.1v.9h-11.3v-.9h1.1v-6h2.7zm.2 8.7.5.8c-1.2.6-2.5 1.3-4 1.9-.2-.3-.3-.6-.6-.8 1.6-.6 3-1.3 4.1-1.9zm-2-4.3h1.9v-2.1h-1.9zm0 3.1h1.9v-2.2h-1.9zm2.7-3.1h1.9v-2.1h-1.9zm0 3.1h1.9v-2.2h-1.9zm2.4 1.3c1.4.6 2.7 1.2 4.1 1.8l-.5.9c-1.5-.7-2.8-1.4-4.1-1.9zm2.2-6.5h-1.9v2.1h1.9zm-1.9 5.2h1.9v-2.2h-1.9z" fill="#fcfbfa"/></svg>