<svg enable-background="new 0 0 400 400" viewBox="0 0 400 400" xmlns="http://www.w3.org/2000/svg"><g fill="#010103"><path d="m138.74 274.28c4.71-.54 9.07-.9 13.35-1.63 1.09-.19 2.2-1.42 2.93-2.43 5.21-7.13 6.1-15.31 5-23.7-1.09-8.3-2.65-16.54-4.19-24.77-1.33-7.08 1.92-11.31 8.17-10.01 1.28.27 2.73 1.49 3.4 2.67 5.08 8.99 7.32 18.82 6.76 29.02-.56 10.25-2.01 20.45-3.14 30.67-.1.94-.45 2.05-1.08 2.71-7.02 7.37-14.54 13.78-25.78 12.51-.88-.1-1.79 0-2.68.05-.32.02-.62.18-1.23.37-.91 12.48-1.83 25.03-2.74 37.56 8.89 2.5 17.56 4.67 26.03 7.41 4.51 1.46 8.92 3.55 12.95 6.03 3.41 2.1 6.54 6.08 4.85 9.76-1.5 3.29-6.43 3.33-10.04 2.35-8.72-2.35-17.35-5.05-25.99-7.69-14.42-4.4-28.85-8.81-43.22-13.36-1.67-.53-3.39-1.72-4.5-3.08-9.86-12.15-12.67-26.52-13.14-41.71-.56-17.99 1.86-35.71 4.26-53.45.87-6.43 1.66-12.86 2.47-19.3.34-2.69 5.4-6.19 7.85-5.26.69.26 1.19 1.24 1.59 1.98 2.81 5.13 3.29 10.72 2.42 16.31-3.56 22.79-2.27 45.76-2.34 68.65-.02 6.96 2.86 13.94 4.47 20.89.1.44.61.97 1.05 1.12 5.77 2.01 11.57 3.96 17.81 6.08 0-12.25-.06-23.99.01-35.72.14-25.18.3-50.35.6-75.53.03-2.74-.83-3.77-3.37-4.67-5.92-2.1-12.26-3.08-17.12-7.9-12.78-12.69-15.93-36.61-5.8-51.46 2.14-3.13 6.28-5.49 9.99-6.84 14.29-5.2 28.82-4.7 43.07.25 16.38 5.69 20.64 22.28 17.38 35.59-.27 1.08-.58 2.16-.93 3.21-1.32 3.97-2.95 4.99-7.14 4.51-3.65-.42-5.61-2.29-5.9-6.1-.17-2.33.12-4.68.15-7.03.02-2.35.2-4.72-.11-7.03-.73-5.45-3.11-9.55-8.87-11.35-9.49-2.97-18.88-4.49-28.53-.77-3.64 1.4-6.12 3.52-7.67 7.27-4.55 11-3.3 20.97 4.61 29.94.91 1.03 2.18 2.04 3.46 2.39 4.19 1.13 8.43 2.14 12.71 2.85 4.01.66 5.97 1.88 6.73 5.83.59 3.05.79 6.21.82 9.32.2 20.14.31 40.28.46 60.42.02.89.1 1.76.16 3.07z"/><path d="m230.94 150.51c-4.95-3.86-10.36-5.75-15.97-7.21-2.37-.62-4.91-.97-7.04-2.08-2.31-1.2-4.68-2.8-6.21-4.84-1.36-1.82-2.88-5.64-2.08-6.51 1.77-1.93 4.99-3.62 7.55-3.52 10.43.43 20.2 3.61 29.01 9.29 3.92 2.52 7.22 5.79 8.28 10.56 1.08 4.85 4.2 6.74 8.81 8.11 15.84 4.69 31.89 8.77 46.98 15.72 4.42 2.03 8.28 4.38 9.57 9.52.55 2.18-.08 3.28-2.21 3.97-5.77 1.88-11.31.89-16.67-1.36-6.28-2.64-12.34-5.83-18.68-8.28-6.94-2.68-14.1-4.8-21.73-7.35-.61 5.17-1.25 9.54-1.54 13.93-.05.82 1.19 1.91 2.07 2.56 6.81 5.06 13.89 9.77 20.48 15.1 9.91 8.02 8.75 19.01 4.81 28.74-.59 1.45-2.47 2.51-3.95 3.44-9.2 5.79-19.49 6.81-30 6.57-10.2-.24-20.22-1.46-30.03-4.62-4.97-1.6-7.14-4.96-7.62-9.46-.91-8.54.89-16.42 7.29-22.75 6.27-6.2 12.09-12.92 20.31-16.78.79-.37 1.57-1.66 1.61-2.56.17-4.12.07-8.26.07-12.85-1.47.37-2.63.6-3.75.96-15.43 4.9-30.86 9.83-46.29 14.73-1.27.4-2.6.7-3.92.86-5.54.65-8.07-2.38-6.27-7.69.3-.9 1.63-1.64 2.65-2.09 17.06-7.55 34.14-15.05 51.21-22.56 1-.46 1.98-.94 3.26-1.55zm-11.6 71.01c15.35-.6 30.14-1.18 44.91-1.76 0-13.79-11.24-23.58-24.94-24-.86-.03-1.89.6-2.61 1.19-4.83 3.97-9.61 8-14.35 12.07-.71.61-1.48 1.49-1.63 2.35-.56 3.16-.88 6.36-1.38 10.15z"/><path d="m230.47 91.1c2.54-12.36 1.8-24.44 1.42-36.51-.3-9.38 1.2-18.32 7.09-25.97 1.01-1.31 3.22-3.06 4.24-2.71 1.96.67 4.23 2.37 4.98 4.21.99 2.46 1 5.47.82 8.21-.84 12.61-2.05 25.2-2.78 37.82-.29 4.98.36 10.01.59 15.28 3.92-.91 7.42-1.59 10.84-2.58 1.02-.29 2.04-1.25 2.65-2.18 4.94-7.52 5.37-16.15 6.11-24.75.28-3.29 1.06-6.62 2.17-9.73 1.08-3.05 3.46-5.12 6.98-5.72 4.62 7.47 6.02 15.62 5.45 24.14-.46 6.95-1.92 13.69-4.99 20.04-3.87 8.02-10.72 11.57-19.07 12.94-1.1.18-2.23.22-3.33.4-6.61 1.09-6.93 1.3-6.99 8.08-.03 3.68.5 7.36.79 11.03.21 2.66.27 5.81-2.54 6.64-2.58.77-5.63.09-8.44-.2-.41-.04-.88-1.41-1-2.21-.89-6.08-1.79-12.17-2.47-18.28-.26-2.3-1.32-3.23-3.45-3.78-5.08-1.31-10.16-2.7-15.13-4.37-2.01-.68-4.08-1.86-5.53-3.38-8.09-8.51-10.38-19.13-9.98-30.38.2-5.65 1.52-11.26 2.35-16.88.57-3.85 4.11-2.76 6.39-3.52.64-.22 2.3 1.34 2.9 2.42 3.56 6.35 5.15 13.21 3.4 20.36-2.33 9.52 1.14 15.03 10.01 19.29 1.51.72 3.08 1.31 4.64 1.92.49.18 1.05.21 1.88.37z"/><path d="m168.87 48.15c4.42 6.79 6.36 14.09 5.3 21.86-.98 7.18-2.64 14.27-4.16 21.37-.23 1.06-1.15 2.1-2.01 2.85-1.43 1.24-3.17 2.13-4.6 3.36-5.67 4.88-11.89 8.22-19.69 7.52-2.71-.24-3.47 1.56-3.52 3.75-.1 4.7-.07 9.39-.11 14.09-.06 6.28-3.02 8.81-9.19 7.54-1.13-.23-2.63-1.43-2.93-2.47-.69-2.42-.8-5.02-1.02-7.55-.08-.87.25-1.77.34-2.66 1.02-9.62.33-10.66-8.8-13.25-2.15-.61-4.31-1.19-6.46-1.79-12.3-3.42-18.67-10.47-19.33-23.28-.44-8.54.46-17.17 1.09-25.73.27-3.76 5.49-6.5 8.97-5.04.58.24 1.05 1.05 1.31 1.71 2.64 6.64 3.74 13.54 3.33 20.68-.13 2.23-.23 4.47-.39 6.7-.34 4.75 1.51 8.58 5.82 10.38 4.12 1.72 8.62 2.52 13.19 3.79 2.08-8.65 1.58-16.4.26-24.15-1.46-8.58-3.54-17.09-4.35-25.72-.47-5.05 1.02-10.29 1.66-15.65 5.55.64 9.18 3.17 10.79 7.12 2.25 5.51 4.2 11.37 4.88 17.25 1.27 10.86 1.52 21.84 2.21 32.77.15 2.44.38 4.88.61 7.72 4.13-1.11 7.99-2.04 11.76-3.27.82-.27 1.5-1.51 1.89-2.45 3.2-7.59 3.07-15.72 3.83-23.72.26-2.73.97-5.5 1.96-8.07 1.23-3.07 3.74-4.93 7.36-5.66z"/><path d="m234.79 334.51c.97-7.85 2.43-18.93 3.68-30.03.95-8.44 2.22-16.92 2.2-25.38-.01-4.94-1.86-10.02-3.63-14.77-1.87-5.03-4.42-9.78-4.22-15.36.13-3.64 3.15-5.47 6.34-3.72 9.04 4.96 14.18 12.65 15.93 22.76 1.73 10.03-.44 19.8-1.69 29.66-1.39 10.98-2.43 22-3.72 33-1.35 11.51 2.16 22.37 4.23 33.43.33 1.76.5 3.59 1.14 5.23 1.22 3.14-.17 4.93-2.83 6.07-2.25.97-6.62-.42-7.75-2.42-6.14-10.9-9.54-22.59-9.68-38.47z"/><path d="m197.1 335.98c.89-6.16 2.6-16.29 3.74-26.5 1.13-10.09 2.36-20.25 2.23-30.37-.08-6.2-2.78-12.34-3.99-18.57-.89-4.57-1.56-9.23-1.79-13.87-.21-4.19 2.72-5.65 6.22-3.49 10.91 6.73 15.43 17.12 14.89 29.28-.47 10.55-2.72 21.02-3.99 31.54-1.13 9.32-2.65 18.66-2.78 28.01-.1 6.93 1.92 13.87 2.69 20.84.59 5.42.78 10.89.99 16.34.1 2.68-.99 5.05-3.85 5.5-2.8.44-5.1-.65-6.57-3.44-5.16-9.77-7.99-20.1-7.79-35.27z"/><path d="m287.98 297.08c-1.02 8.45-2.72 22.09-4.25 35.75-.22 1.92.2 3.96.59 5.9 1.59 7.86 3.33 15.7 4.9 23.57.23 1.15-.05 2.46-.29 3.65-1.11 5.51-3.65 7.13-8.96 5.52-.87-.26-1.6-1.42-2.11-2.33-7.94-14.27-9.89-29.52-7.16-45.45 2.64-15.41 3.45-30.92 2.22-46.47-.61-7.74-1.51-15.64-7.63-21.59-.77-.75-1.3-1.82-1.76-2.83-1.16-2.51-.7-7.68 1.41-8.71 1.55-.76 3.99-.12 5.91.37 4.14 1.04 7.04 3.79 8.99 7.51 6.55 12.5 9.02 25.86 8.14 45.11z"/></g><path d="m385.2 377.6.6-.7c.6.4 1.3.9 1.9 1.5l-.6.7c-.8-.5-1.4-1-1.9-1.5zm.3 7.1c.6-1.4 1.1-2.9 1.5-4.5.3.1.6.3.9.4-.5 1.4-1 2.9-1.5 4.4zm.2-10.1.6-.6c.7.5 1.3 1.1 1.9 1.6l-.7.7c-.6-.6-1.2-1.2-1.8-1.7zm8.4-.8h.8v.9h1.8v.7h-1.8v1.8h-.8v-.3h-1.2v.9h3.3v2.6h-.8v-.4h-2.5c0 .3 0 .6-.1.8h3.4v.7h-3.5c0 .3-.1.6-.1.8h4v.7h-3.5c.7.9 1.9 1.3 3.6 1.5-.2.2-.4.5-.6.9-1.9-.3-3.2-1.1-3.8-2.3-.5 1.1-1.8 2-3.9 2.4-.2-.3-.4-.5-.6-.8 1.9-.4 3.1-.9 3.6-1.7h-3.2v-.7h3.5c.1-.2.1-.5.2-.8h-3.3v-.7h3.4c0-.2 0-.5 0-.8h-2.4v.3h-.8v-2.6h3.3v-.9h-1.2v.3h-.8v-1.8h-1.8v-.7h1.8v-.9h.8v.9h3.2zm-4.4 5.5h2.4c0-.3 0-.6 0-.9h-2.4zm1.2-3.1h3.2v-.8h-3.2zm4.4 2.2h-2.4v.9h2.5v-.9z" fill="#fcfbfa"/><path d="m389.2 385.8h.9v1.5h1.9v-1.5h.9v1.5h2.7v6h1.1v.9h-11.3v-.9h1.1v-6h2.7zm.2 8.7.5.8c-1.2.6-2.5 1.3-4 1.9-.2-.3-.3-.6-.6-.8 1.6-.6 3-1.3 4.1-1.9zm-2-4.3h1.9v-2.1h-1.9zm0 3.1h1.9v-2.2h-1.9zm2.7-3.1h1.9v-2.1h-1.9zm0 3.1h1.9v-2.2h-1.9zm2.4 1.3c1.4.6 2.7 1.2 4.1 1.8l-.5.9c-1.5-.7-2.8-1.4-4.1-1.9zm2.2-6.5h-1.9v2.1h1.9zm-1.9 5.2h1.9v-2.2h-1.9z" fill="#fcfbfa"/></svg>