<svg enable-background="new 0 0 400 400" viewBox="0 0 400 400" xmlns="http://www.w3.org/2000/svg"><g fill="#fbfafa"><path d="m37.59 393.81c-.92.31-1.52.05-2-.78-.7-1.2-1.52-2.34-2.47-3.78v4.59c-.55.03-.95.05-1.41.07-.03-.37-.06-.64-.06-.91 0-1.91 0-3.81 0-5.7 1.13-.41 1.77-.03 2.29.91.62 1.11 1.38 2.14 2.31 3.19v-4.2h1.35v6.61z"/><path d="m12.94 393.88v-6.75c1.9.19 3.93-.54 5.37 1.29.8 1.01.78 2.88.03 3.97-1.37 1.97-3.4 1.51-5.4 1.49m1.45-1.22c2.04.12 2.92-.58 2.89-2.21-.03-1.51-.98-2.19-2.89-2z"/><path d="m11.81 393.87h-5.49c.68-2.18 2.47-3.48 3.51-5.45h-3.08v-1.21h5.29c-.71 2.13-2.44 3.48-3.47 5.51.86 0 1.63.04 2.39-.01.79-.05 1.14.21.85 1.16"/><path d="m39.33 393.86v-6.61h3.7v1.07h-2.22v1.52c.68.04 1.34.09 2.07.13v1.07c-.72.05-1.38.09-2.1.14v1.48h2.4v1.19h-3.85z"/><path d="m27.71 388.56c-1.15-.3-2.46-.61-3.1.64-.37.73-.41 1.93-.06 2.67.63 1.35 1.99.93 3.17.68.35.94-.01 1.32-.93 1.46-1.62.25-3.05-.27-3.76-1.48-.73-1.24-.6-3.03.31-4.17.88-1.11 2.71-1.7 4-1.16.32.13.44.74.65 1.12-.1.08-.19.16-.28.24"/><path d="m49.15 387.24v1.07c-.59.02-1.17.05-1.87.08v5.44h-1.48v-5.44h-1.85c-.05-.4-.08-.73-.13-1.15z"/><path d="m20.06 387.21h1.33v6.62h-1.33z"/><path d="m30.68 393.25c-.49.38-.8.79-1.05.76-.32-.05-.6-.45-.9-.7.26-.24.51-.64.8-.67.29-.04.62.3 1.15.61"/></g><path d="m273.87 288.37c-1.22 1.63-1.78 2.59-2.53 3.35-9.23 9.28-18.29 18.75-27.82 27.71-7.2 6.77-15.63 11.6-25.9 12.1-1.65.08-3.32.01-4.85.01-.31-.6-.53-.88-.6-1.19-1.62-7.62-1.79-7.94 5.19-11.66 13.49-7.2 25.08-16.6 35.13-28.09 4.64-5.3 9.81-10.13 14.57-15.33.72-.78 1-2.61.62-3.63-1.15-3.14-2.67-6.14-4.13-9.16-1.37-2.83-2.03-2.85-4.25-.53-10.46 10.96-21.67 21.07-34.47 29.24-6.57 4.2-13.78 6.47-21.71 4.69-1.37-.31-3.73-1.46-3.67-2.01.27-2.47-.62-5.45 2.37-7.14 8.27-4.68 16.5-9.43 24.73-14.19 1.15-.66 2.3-1.41 3.24-2.33 8.32-8.11 16.6-16.26 25.05-24.57-.83-1.8-1.75-3.82-2.69-5.83-1.84-3.93-3.96-4.3-7.24-1.13-9.08 8.77-19.39 15.86-30.29 22.1-7.22 4.13-14.87 6.61-23.43 4.84-3.29-.68-4.12-2.06-3.85-5.45.29-3.63 1.55-5.5 4.98-6.68 4.64-1.59 8.99-4.04 13.63-5.61 8.51-2.89 14.89-8.92 21.84-14.13 3.83-2.87 7.57-5.85 11.24-9.6-4.27-.21-8.54-.58-12.81-.6-6.82-.03-13.65.34-20.47.22-3.2-.06-6.47-.57-9.55-1.44-1.81-.51-3.62-1.84-4.9-3.28-2.49-2.8-1.87-4.86 1.08-7.07 2.92-2.19 6-2.91 9.64-2.88 20.82.15 41.64.03 62.46.1 6.04.02 12.07.27 18.1.55 6.15.28 8.73 2.74 9.73 9.24-4.57 2.94-9.83 3.86-15.18 4.12-5.23.25-10.47.05-16.74.05 5.18 10.78 9.91 20.75 14.76 30.66 6.59 13.47 12.94 27 15.62 41.95 2.07 11.56-1.17 21.9-8.41 30.36-8.91 10.42-18.98 19.86-28.79 29.49-5.02 4.93-10.58 9.3-15.82 14.02-3.32 2.99-6.84 5.3-11.54 5.42-2.42.07-3.55-1.1-3.98-3.14-.78-3.69.31-6.76 3.23-9.27 10.36-8.9 20.74-17.77 30.97-26.81 8.49-7.5 15.28-16.34 19.61-26.87.78-1.91.87-4.32.58-6.4-.56-4.36-1.63-8.68-2.75-14.2z" fill="#010105"/><path d="m161.51 197.66c2.54-4.28 5.38-8.41 7.55-12.87 2.18-4.5 1.72-9.28.19-14.06-2.76-8.62-5.55-17.25-7.72-26.03-.75-3.03-.43-6.78.68-9.72 1.68-4.46 6.17-4.79 8.94-1.01 14.09 19.21 17 40.16 9.31 62.59-.68 1.97-2.22 3.87-3.84 5.25-5.87 5.02-11.97 9.76-17.9 14.71-.94.78-1.92 2.07-2.03 3.2-1.53 16.71-3.36 33.41-4.21 50.16-.9 17.76 2.41 34.86 9.61 51.31 6.31 14.43 11.46 29.36 19.1 43.21 2.06 3.73 1.52 6.27-1.32 8.17-3.03 2.03-5.94 1.4-8.71-1.87-11.72-13.84-19.12-29.87-23.85-47.23-6.85-25.13-10-50.72-8.32-76.75 1.35-20.88 3.15-41.74 5.09-62.58.88-9.5-2.04-18.13-4.88-26.82-3.15-9.61-7.55-18.64-13.56-26.84-2.04-2.78-2.88-5.79-1.63-9.16 2.1-5.63 1.82-5.98 7.74-3.46 1.76.75 3.55 2.19 4.57 3.79 7.31 11.5 15.47 22.71 18.73 36.17 2.12 8.75 2.72 17.87 3.9 26.83.55 4.19.84 8.41 1.24 12.62.44.13.88.26 1.32.39z" fill="#010105"/><path d="m248.02 128.75c5.12.29 10.28.31 15.36.94 12.85 1.6 24.56 13.58 25.82 28.28.71 8.22-.3 16.22-2.56 24.19-1.59 5.6-5.49 8.74-9.92 11.63-11.5 7.51-24.3 8.81-37.39 6.79-6.98-1.07-13.74-3.68-20.56-5.73-1.06-.32-2.23-1.2-2.79-2.15-9.18-15.69-12.21-32.04-4.62-49.28.94-2.14 2.56-4.21 4.37-5.69 8.6-7.03 18.82-8.82 29.57-8.62.89.02 1.79 0 2.68 0 .02-.11.03-.24.04-.36zm-25.04 42.54c.68 3.31 1.16 6.37 2 9.33.28.98 1.32 2.11 2.27 2.47 13.32 5.03 26.75 5.79 40.17.45 5.6-2.23 5.61-2.92 5.25-8.93-.18-3.08-1.43-3.58-4.14-3.56-13.98.12-27.95.05-41.93.06-1.09.01-2.18.11-3.62.18zm-.08-13.09c17.16-.35 33.96-.69 50.76-1.04-.23-7.43-4.5-12.44-11.64-13.2-6.32-.68-12.7-.94-19.06-.99-6.29-.05-12.58.49-17.63 4.96-.84.74-1.58 1.9-1.78 2.97-.42 2.19-.43 4.45-.65 7.3z" fill="#010105"/><path d="m228.11 51.88c4.19 6.16 6.93 12.42 5.39 19.75-1.06 5.05.74 8.88 4.76 11.6 3.38 2.28 7.08 4.08 11.28 6.45.2-2.04.38-3.19.43-4.34.54-13.76 1.02-27.52 1.62-41.27.15-3.34.34-6.75 1.14-9.98.59-2.38 1.79-4.87 3.41-6.69 3.15-3.55 8.2-2.39 9.58 2.2.82 2.71 1.04 5.73.91 8.59-.57 12.3-1.57 24.58-1.97 36.88-.15 4.51.93 9.07 1.52 14.24 4.49-1.46 8.72-2.46 12.56-4.28 1.51-.71 2.65-3.12 3.1-4.96 1.37-5.5 2.18-11.14 3.48-16.67.73-3.09 1.41-6.45 3.16-8.96 2.72-3.89 6.31-3.36 8.38.82 5.8 11.68 3.1 22.81-2.43 33.7-6.89 4.81-12.62 11.35-21.4 13.29-7.8 1.73-8.11 2.53-7.69 10.66.02.34.14.69.07 1-.48 2.05-.47 5.4-1.61 5.86-2.24.9-5.16.37-7.75.04-.63-.08-1.3-1.63-1.54-2.61-.87-3.47-1.62-6.97-2.29-10.48-.37-1.94-1.22-3.1-3.27-3.63-3.35-.87-6.58-2.21-9.93-3.08-12.06-3.1-18.35-11.64-20.67-23.09-1.08-5.33-.42-11.08-.1-16.61.22-3.8 2.06-6.76 6.42-7.28 1.08-.11 2.1-.68 3.44-1.15z" fill="#010105"/><path d="m121.79 53.24c3.17 7.01 4.55 14.19 4.73 21.66.2 8.54 2.62 11.53 10.97 13.42 2.38.54 4.83.71 8.23 1.19.31-6.17 1.17-12.05.74-17.84-.54-7.33-2.22-14.57-3.25-21.87-.97-6.86-.3-13.59 1.81-20.22.88-2.77 2.32-3 4.75-2.09 5.66 2.1 6.59 7.21 7.06 12 1.24 12.69 1.91 25.43 2.8 38.16.18 2.57.46 5.14.49 7.7.03 3.18 2.02 4.01 4.45 3.36 4.76-1.27 9.64-2.75 10.81-8.57 1.12-5.57 2.33-11.13 3.05-16.76.71-5.55 2.52-8.59 6.38-9.56 2.03-.51 3.23-.04 4.37 1.84 5.63 9.33 5.32 19.07 1.64 28.74-3.97 10.42-12.51 15.54-23 17.84-1.09.24-2.23.58-3.31.48-4.38-.41-5.63 2.41-6.09 5.87-.4 2.98-.52 6.01-.68 9.02-.21 4.04-1.82 5.46-5.74 4.95-4.94-.65-5.71-1.41-6.3-6.25-.24-2-.75-4.02-.61-6 .31-4.25-1.66-6.13-5.64-7.07-3.9-.92-7.64-2.51-11.43-3.86-10.19-3.63-16.58-12.04-16.65-22.83-.04-5.42.54-10.94 1.63-16.26 1.24-6.08 2.13-6.41 8.79-7.05z" fill="#010105"/><path d="m113.7 276.45c.75-13.74 1.24-27.5 2.44-41.19.33-3.8 2.64-7.48 4.35-11.07.8-1.68 1.81-3.74 4.53-2.97 2.73.77 4.66 2.33 4.96 5.22.33 3.22.64 6.48.47 9.7-.78 14.86-2.07 29.71-2.45 44.58-.16 6.29 1.37 12.63 2.3 18.93 1.63 10.95 3.14 21.93 5.18 32.8 1.17 6.23 3.57 12.22 4.89 18.43.99 4.64 1.32 9.44 1.59 14.19.16 2.81-2.18 3.87-4.51 3.95-2.55.09-5.64.53-6.72-2.86-8.85-27.68-14.64-55.98-16.83-84.98-.12-1.56-.02-3.13-.02-4.7-.05-.03-.11-.03-.18-.03z" fill="#010105"/><path d="m172.24 212.91c6.02 1.94 8.93 6.44 9.44 11.8.86 9.09 1.15 18.27.99 27.4-.41 23.49 2.89 46.32 11.32 68.29 1.87 4.87 5.07 9.23 6.89 14.12 1.57 4.21 2.34 8.79 2.9 13.28.52 4.16-3.73 3.24-5.84 4.59-1.84 1.18-2.79-.06-3.84-1.35-7.58-9.4-12.2-20.29-15.38-31.76-3.16-11.4-5.82-22.94-8.5-34.46-.68-2.9-.64-5.99-.83-8.99-.79-12.94-1.76-25.87-2.24-38.82-.3-8.24 1.47-16.21 5.09-24.1z" fill="#010105"/><path d="m129.51 176.62c-1.25 8.87-3.54 18.09-10.78 25.27-2.78 2.76-5.31 5.87-8.46 8.12-2.9 2.07-6.35 3.65-9.79 4.62-3.07.86-5.5-1.19-5.21-4.37.24-2.56 1.29-5.47 2.94-7.4 4.14-4.82 9.12-8.92 13.21-13.78 4.36-5.18 5.55-11.17 3.07-17.87-2.59-7.01-4.82-14.17-6.86-21.36-1.14-4.01-.23-7.97 1.94-11.6 1.16-1.93 2.77-2.51 4.44-1.18 2.13 1.7 4.61 3.49 5.73 5.82 4.5 9.39 7.88 19.21 9.46 29.56.17 1.1.18 2.23.31 4.17z" fill="#010105"/></svg>