<svg enable-background="new 0 0 400 400" viewBox="0 0 400 400" xmlns="http://www.w3.org/2000/svg"><path d="m361.2 9.6.8-1c.9.7 1.9 1.4 2.9 2.3l-.9 1.1c-1-1-2-1.8-2.8-2.4zm.5 10.6c.9-2.1 1.6-4.3 2.3-6.7.4.2.8.4 1.3.6-.7 2.1-1.5 4.3-2.2 6.6zm.4-15.2.9-.9c1 .8 2 1.6 2.8 2.4l-1 1c-.9-.9-1.8-1.7-2.7-2.5zm12.5-1.2h1.2v1.4h2.7v1.1h-2.7v2.7h-1.2v-.6h-1.8v1.3h4.9v3.8h-1.2v-.5h-3.7c0 .4-.1.9-.1 1.2h5.1v1h-5.2c0 .5-.1.9-.2 1.2h6v1h-5.2c1.1 1.3 2.9 2 5.5 2.2-.4.4-.7.8-.9 1.3-2.9-.5-4.8-1.6-5.7-3.5h-.1c-.8 1.7-2.7 2.9-5.9 3.6-.2-.4-.6-.8-.9-1.1 2.8-.6 4.6-1.4 5.4-2.5h-4.8v-1h5.3c.1-.3.2-.7.2-1.2h-4.9v-1h5c0-.4 0-.8.1-1.2h-3.5v.5h-1.2v-3.8h4.9v-1.3h-1.8v.5h-1.2v-2.7h-2.7v-1h2.6v-1.4h1.2v1.4h4.7v-1.4zm-6.6 8.3h3.6c0-.4 0-.9 0-1.4h-3.6zm1.9-4.6h4.7v-1.3h-4.7zm6.6 3.2h-3.7v1.4h3.7z" fill="#fbfcfa"/><path d="m385.3 3.8h1.3v2.2h2.8v-2.2h1.3v2.2h4.1v9.1h1.7v1.3h-16.9v-1.3h1.7v-9.1h4.1v-2.2zm.4 13.1.7 1.2c-1.8.9-3.8 1.9-6 2.9-.2-.4-.5-.8-.8-1.3 2.3-1 4.3-1.9 6.1-2.8zm-3.1-6.4h2.8v-3.2h-2.8zm0 4.6h2.8v-3.3h-2.8zm4-4.6h2.8v-3.2h-2.8zm0 4.6h2.8v-3.3h-2.8zm3.7 1.9c2.1.9 4.1 1.8 6.1 2.7l-.7 1.3c-2.2-1.1-4.2-2-6.1-2.9zm3.2-9.7h-2.8v3.2h2.8zm-2.8 7.8h2.8v-3.3h-2.8z" fill="#fbfcfa"/><g fill="#010102"><path d="m189.78 301.72c-6.28 2.25-12.18 4.3-18.02 6.5-1.08.41-2.06 1.29-2.87 2.16-6.53 6.91-10.88 14.97-12.61 24.38-1.13 6.16-2.22 12.32-3.31 18.49-.45 2.55-1.34 4.73-4.04 5.67-3.5 1.22-5.06.66-6.87-2.58-3.56-6.38-3.7-13.23-1.57-19.86 2.9-9.02 6.5-17.83 9.98-26.65.57-1.44 1.9-2.74 3.17-3.72 3.89-3.01 8.14-5.59 11.87-8.78 5.88-5.03 12.49-8.23 20.14-8.97 3.76-.36 4.91-2.3 4.77-5.65-.04-.99-.01-1.99-.55-2.2-7.81-4.27-15.92-8.07-23.35-12.92-12.38-8.08-20.84-19.81-27.71-32.68-1.03-1.93-1.26-4.55-1.08-6.79.13-1.59 1.22-3.84 2.51-4.44 2.26-1.06 4.68-.96 6.77 1.59 6.9 8.38 13.98 16.61 21.21 24.7 5.78 6.46 13.01 10.81 21.72 13.41.81-11.99 1.61-23.8 2.44-36.01-1.45-.35-2.93-.69-4.39-1.05-8.67-2.16-17.38-4.18-26.01-6.53-10.48-2.85-14.16-8.88-12.31-19.55.1-.55.36-1.07.41-1.62 1.03-10.39 8.02-15.01 17.04-17.79 9.87-3.03 19.96-4.01 30.18-3 10 .99 20 2.16 29.92 3.8 7.26 1.2 13.77 4.83 14.6 12.78 1.4 13.42-1.64 24.31-16.1 28.44-5.88 1.68-11.99 2.53-18.01 3.71-1.62.32-3.27.45-5.16.71.57 11.81 1.12 23.39 1.71 35.59 6.48-2.7 13.32-3.11 18.11-8.99 5.78-7.1 12.15-13.76 18.58-20.29 2.65-2.69 6.14-4.57 9.34-6.89 3.11 4.66 3.51 8.64 1.16 12.96-6.39 11.79-15.16 21.5-25.54 29.87-5.15 4.16-11.46 5.58-17.57 7.15-5.06 1.3-3.3 4.97-3.85 7.93-.57 3.06 2.09 2.64 3.67 3.14 5.11 1.63 10.18 3.51 15.42 4.58 9.63 1.97 16.42 7.86 22.09 15.28 10.57 13.8 14.04 29.37 11.31 46.52-.7 4.4-3.85 4.65-6.73 4.71-1.28.03-3.42-2.14-3.78-3.64-1.3-5.41-2.01-10.96-2.96-16.45-1.66-9.65-4.97-18.51-11.94-25.74-7.15-7.42-16.03-10.6-26.87-11.33 0 5.36.05 10.45-.01 15.54-.17 14.77-.34 29.54-.61 44.32-.05 2.44-.48 4.9-1 7.29-.65 3.01-2.81 4.42-5.8 4.65-2.98.23-3.99-1.74-4.78-4.13-2.73-8.35-2.65-16.94-2.57-25.58.12-12.98.06-25.95.06-38.93.04-.92-.1-1.8-.21-3.11zm3.98-87.63c7.23-.65 13.09-.72 18.73-1.84 4.52-.9 8.81-2.99 13.13-4.72 1.9-.76 2.68-2.31 2.64-4.53-.13-6.31-3.61-10.1-10.91-10.67-7.22-.56-14.49-.98-21.72-.76-7.79.24-15.64.78-23.3 2.11-7.48 1.3-7.83 2.78-6.9 10.05.41 3.23 1.8 4.85 4.74 5.47 8.27 1.74 16.54 3.44 23.59 4.89z"/><path d="m115.64 286.59c-.57 21.48-1.01 42.96-1.8 64.42-.17 4.74-1.52 9.45-2.49 14.13-.38 1.82-1.35 3.24-3.72 3.01-2.24-.22-4.48.52-5.75-2.55-2.49-6.03-3.46-12.21-3.17-18.67 1.71-37.67 2.75-75.39 5.45-112.99 1.2-16.73 1.84-33.74 6.44-50.15 5.05-18 17.65-27.36 35.36-29.72 23.21-3.1 46.64-3.21 70.02-2.67 11.59.27 23.25 1.02 34.71 2.66 19.04 2.73 30.53 14.3 33.83 33.08 2.65 15.06 4.31 30.31 6 45.53 2.56 23.01 4.62 46.08 7.16 69.1 1.8 16.34 4.36 32.59 5.93 48.95.63 6.59-.22 13.39-1.02 20.02-.19 1.56-2.65 3.33-4.46 4.1-1.93.82-3.95.19-5.36-2.07-2.99-4.78-4.77-9.96-4.79-15.5-.07-25.48-4.11-50.6-6.59-75.86-2.17-22.04-4.59-44.06-6.97-66.08-.83-7.67-1.5-15.39-2.89-22.97-2.9-15.84-11.11-23.14-26.93-25.51-8.13-1.22-16.48-1.44-24.73-1.4-19.58.09-39.16.33-58.72 1.08-6.49.25-12.98 2-19.36 3.54-11.26 2.72-17.07 11.17-19.05 21.59-2.38 12.48-3.66 25.23-4.48 37.92-1.23 18.98-1.64 38.01-2.4 57.02-.06 0-.14 0-.22-.01z"/><path d="m196.24 24.97c7.11 1.6 10.33 5.29 10.34 11.84.01 4.01-.54 8.02-.81 12.04-.08 1.23-.17 2.46-.11 3.69.28 6.53.65 7.09 7.01 8.26 21.05 3.86 40.76 11.66 60.11 20.47 11.99 5.47 23.88 11.16 35.81 16.77 4.67 2.2 8.61 5.09 10.46 10.26.94 2.62.32 4.14-2.2 5.32-4.55 2.13-8.73 1.1-12.8-1.15-6.46-3.55-12.71-7.55-19.36-10.69-14.84-7.01-29.78-13.83-44.86-20.31-26.13-11.23-52.78-10.71-79.79-3.25-16.95 4.69-33.49 10.22-49.15 18.41-7.37 3.85-15.41 6.45-23.25 9.36-2.14.79-4.62.91-6.94.89-7.81-.06-6.37.07-7.13-6.67-.25-2.23.99-3.05 2.54-3.74 15.29-6.82 30.53-13.76 45.92-20.35 19.16-8.2 39.65-11.45 59.91-15.52 1.75-.35 3.5-.98 5.26-1.02 3.82-.09 5.01-2.47 5.27-5.64.53-6.35.73-12.72 1.43-19.05.37-3.27 1.5-6.46 2.34-9.92z"/><path d="m200.8 91.81c8.32.78 16.87.98 25.16 2.53 9.4 1.76 14.69 8.56 16.72 17.64.58 2.59-.24 5.53-.6 8.28-.5 3.88-1 7.77-1.86 11.58-.35 1.55-1.33 3.31-2.56 4.26-6.83 5.25-14.81 7.71-23.23 8.77-15.95 1.99-31.65 1.04-46.96-4.3-7.55-2.63-13.35-6.94-14.9-15.19-1.4-7.42.11-14.68 2.32-21.77.26-.85 1.24-1.52 1.99-2.15 5.97-5.06 13.25-6.91 20.71-7.82 7.63-.97 15.34-1.25 23.21-1.83zm-5.92 40.62c.05-.18.09-.37.14-.55 4.91-.26 9.91-.01 14.7-.91 5.86-1.1 11.58-3.06 17.29-4.88 1.09-.35 2.39-1.6 2.67-2.68 2.72-10.56-.01-15.11-10.75-15.73-12.68-.74-25.43-.61-38.14-.36-4.1.08-8.22 1.58-12.22 2.81-1 .31-2.27 2.16-2.17 3.19.38 4.07 1.04 8.16 2.08 12.1.33 1.26 2.06 2.8 3.37 3.06 7.63 1.51 15.34 2.67 23.03 3.95z"/></g></svg>