<svg enable-background="new 0 0 400 400" viewBox="0 0 400 400" xmlns="http://www.w3.org/2000/svg"><g fill="#fbfafa"><path d="m37.59 393.81c-.92.31-1.52.05-2-.78-.7-1.2-1.52-2.34-2.47-3.78v4.59c-.55.03-.95.05-1.41.07-.03-.37-.06-.64-.06-.91 0-1.91 0-3.81 0-5.7 1.13-.41 1.77-.03 2.29.91.62 1.11 1.38 2.14 2.31 3.19v-4.2h1.35v6.61z"/><path d="m12.94 393.88v-6.75c1.9.19 3.93-.54 5.37 1.29.8 1.01.78 2.88.03 3.97-1.37 1.97-3.4 1.51-5.4 1.49m1.45-1.22c2.04.12 2.92-.58 2.89-2.21-.03-1.51-.98-2.19-2.89-2z"/><path d="m11.81 393.87h-5.49c.68-2.18 2.47-3.48 3.51-5.45h-3.08v-1.21h5.29c-.71 2.13-2.44 3.48-3.47 5.51.86 0 1.63.04 2.39-.01.79-.05 1.14.21.85 1.16"/><path d="m39.33 393.86v-6.61h3.7v1.07h-2.22v1.52c.68.04 1.34.09 2.07.13v1.07c-.72.05-1.38.09-2.1.14v1.48h2.4v1.19h-3.85z"/><path d="m27.71 388.56c-1.15-.3-2.46-.61-3.1.64-.37.73-.41 1.93-.06 2.67.63 1.35 1.99.93 3.17.68.35.94-.01 1.32-.93 1.46-1.62.25-3.05-.27-3.76-1.48-.73-1.24-.6-3.03.31-4.17.88-1.11 2.71-1.7 4-1.16.32.13.44.74.65 1.12-.1.08-.19.16-.28.24"/><path d="m49.15 387.24v1.07c-.59.02-1.17.05-1.87.08v5.44h-1.48v-5.44h-1.85c-.05-.4-.08-.73-.13-1.15z"/><path d="m20.06 387.21h1.33v6.62h-1.33z"/><path d="m30.68 393.25c-.49.38-.8.79-1.05.76-.32-.05-.6-.45-.9-.7.26-.24.51-.64.8-.67.29-.04.62.3 1.15.61"/></g><path d="m247.83 256.91c9.27 0 18.31.28 27.32-.08 8.86-.35 14.63 2.46 17.58 9.74-4.95 3.73-10.82 5.31-16.79 5.5-13.4.42-26.83.25-40.24.28-10.85.03-21.69.01-33.16.01 0 2.61.02 5.57 0 8.54-.2 20.82-.36 41.63-.65 62.45-.04 2.99-.45 6.04-1.16 8.94-.95 3.85-4.62 5.75-8.37 4.53-.76-.25-1.45-1.23-1.83-2.04-2.95-6.31-3.98-13.07-3.84-19.93.67-33.23.8-66.49 2.58-99.67.83-15.38 4.28-30.79 12.8-44.33.7-1.12 1.61-2.13 2.56-3.06 3.76-3.65 7.58-7.24 11.29-10.77-3.31-4.08-6.67-7.82-9.56-11.89-4.74-6.67-3.67-14.68 2.41-20.24 8.59-7.86 17.94-14.46 29.45-17.38.3-.08.55-.35 1.24-.8-4.55-3.44-4.94-8.19-4.41-13.25.12-1.09-.11-2.24-.3-3.33-.61-3.56-2.09-6.11-6.24-6.63-3.3-.41-6.47-1.78-9.76-2.39-12.64-2.37-18.95-11.04-22.15-22.5-2.38-8.51-2.65-17.23-.62-25.9 1.42-6.07 1.65-6.19 8.45-6.83 3.85 8.13 6.34 16.64 5.41 25.79-.57 5.57 1.41 9.84 6.12 12.4 4.55 2.48 9.49 4.23 15.21 6.72.57-6.28 1.38-11.45 1.44-16.63.1-8.83-.88-17.72-.24-26.49.47-6.34 2.69-12.58 4.46-18.78.43-1.49.55-4.18 3.36-3.78 2.89.41 5.6 1.46 6.34 4.64.55 2.37.83 4.87.76 7.31-.41 15.1-.96 30.2-1.43 45.3-.07 2.22-.01 4.45-.01 6.85 3.64-.49 7.18-.89 10.69-1.5 1-.18 2.09-.8 2.81-1.53 4.75-4.78 7.4-10.52 7.83-17.31.34-5.36.85-10.71 1.43-16.05.34-3.14 1.53-5.89 4.81-7.05 2.29-.81 3.84-.25 5.15 2.14 4.32 7.87 5.1 16.09 3.11 24.7-.45 1.96-1.06 3.89-1.46 5.85-1.45 7.08-4.58 12.96-11.27 16.48-1.17.62-2.28 1.48-3.2 2.43-4.58 4.74-10.55 6.05-16.7 6.74-2.34.26-3.14 1.34-2.92 3.44.25 2.43.35 4.92.96 7.27 1.46 5.63.9 7.57-3.74 10.88-.51.36-1.01.74-1.75 1.29 4.24 1.65 8.32 2.88 12.06 4.78 6.36 3.23 12.78 6.49 18.69 10.46 8.11 5.44 10.56 13.53 8.68 22.95-.24 1.22-.94 2.72-1.92 3.35-4.47 2.87-8.99 5.74-13.74 8.09-3.56 1.76-7.52 2.72-12.27 4.38 5.32 2.47 9.73 4.69 14.27 6.59 8.14 3.4 16.45 6.43 24.52 9.99 3.43 1.51 6.69 3.66 9.59 6.05 2.13 1.76 3.56 4.38 5.52 6.9-5.4 3.27-10.63 3.63-15.5 1.99-8.01-2.7-15.75-6.23-23.58-9.47-6.68-2.76-13.33-5.6-20.57-8.64 0 4.37-.11 8.04.11 11.69.03.6 1.46 1.57 2.26 1.6 6.13.19 12.28.16 18.41.27 2.67.05 5.42-.1 7.97.51 1.95.47 3.99 1.66 5.38 3.11 3.78 3.94 3.11 6.33-1.9 8.18-6.02 2.22-12.26 2.17-18.55 1.86-3.45-.17-6.94-.13-10.38.21-1 .1-2.45 1.48-2.65 2.48-.49 2.49-.38 5.09-.54 8.36 7.23.15 14.23.24 21.22.48 3.9.13 7.83.26 11.66.88 1.73.28 3.58 1.46 4.81 2.77 2.93 3.12 1.91 6.74-2.04 8.17-7.38 2.67-15 1.73-22.59 1.51-3.24-.09-6.48.1-9.72.08-2.15-.02-3.02 1.04-2.99 3.09.04 2.18.02 4.39.02 7.25zm20.79-97.3c-.57-1.08-.93-1.88-1.4-2.61-.48-.75-.99-1.5-1.59-2.15-6.8-7.41-15.64-10.97-25.2-12.96-1.55-.32-3.53.18-5 .93-4.59 2.32-9.02 4.93-13.52 7.44-4.18 2.33-4.98 5.81-1.94 9.58 1.74 2.16 3.69 4.3 5.95 5.87 1.64 1.14 4.11 2.1 5.88 1.7 1.09-.25 1.85-3.15 2.25-4.97.85-3.78 1.13-7.7 2.14-11.43.38-1.41 2.32-3.62 3.16-3.46 2.33.45 4.67 1.68 6.56 3.17.89.7.93 2.66 1.11 4.08.46 3.71.79 7.44 1.2 11.38 7.03-2.27 13.58-4.38 20.4-6.57zm-34.44 47.84c0-5.16.15-9.95-.07-14.72-.08-1.81-.81-3.68-1.61-5.36-.92-1.94-2.3-2.44-4.22-.78-2.78 2.41-5.54 4.98-8.71 6.79-5.88 3.35-7.4 8.7-7.88 15.12 7.14-.34 14.24-.67 22.49-1.05zm-.8 49.03c-.3-3.34-.57-6.35-.88-9.88-9.59 0-18.72 0-28.27 0v11.6c9.57-.57 19.22-1.14 29.15-1.72zm.31-23.81c-.63-2.96-.88-5.28-1.66-7.41-1.02-2.81-3.24-3.96-6.33-3.89-6.44.14-12.88.04-19.56.04-.25 3.8-.5 7.64-.74 11.26z" fill="#010105"/><path d="m117.33 149.04c-4.6-.34-9.48-.67-14.36-1.07-2-.16-4.26.03-5.89-.87-1.61-.88-3.32-2.8-3.63-4.52-.41-2.23-.22-5.15 2.75-6.15 2.17-.74 4.47-1.57 6.72-1.58 21.83-.12 43.66-.09 65.5-.05 2.57 0 5.2.02 7.68.56 1.98.43 4.19 1.25 5.59 2.62 3.28 3.22 2.4 6.58-1.94 7.82-3.42.97-6.96 1.6-10.49 2.08-3.52.48-7.09.59-11.04.9 0 5.25-.24 10.49.17 15.67.1 1.25 2.15 2.61 3.58 3.46 10.73 6.34 18.02 15.25 20.85 27.53 1.05 4.57 2.28 9.14 2.81 13.78 2.16 18.84.9 37.38-3.68 55.9-7.11 28.79-40.83 40.79-63.15 32.54-9.15-3.38-15.47-9.72-19.62-18.57-5.02-10.69-7.82-21.93-8.47-33.62-1.13-20.22.01-40.23 6.39-59.7 1.76-5.37 4.12-10.08 9.08-13.13.47-.29.81-.8 1.29-1.06 8.78-4.78 11.49-12.4 9.86-22.54zm-5.51 124.99c.42-.07.84-.15 1.25-.22 4.97-6.19 9.84-12.46 14.99-18.5 1.15-1.34 3.19-2.38 4.96-2.66 6.69-1.05 12.04 1.53 16.02 6.92 3.91 5.29 7.73 10.65 12.1 16.68 2.42-5.31 4.9-10.14 6.86-15.19 4.44-11.42 3.09-14.78-8.27-19.23-10.09-3.95-14.34-11.49-14.76-21.77-.53-12.96-.95-25.93-1.51-38.9-.04-1-.71-2.62-1.4-2.81-2.73-.75-5.59-1.04-9.3-1.65 0 10.28.29 20.12-.1 29.93-.28 7.1-.65 14.35-5.12 20.51-4.86 6.69-11.63 10.66-19.17 13.5-1.96.74-2.86 1.69-2.6 3.89.6 5.1.6 10.31 1.61 15.32.98 4.83 2.92 9.46 4.44 14.18zm59.76-41.04c0-7 .27-13.72-.07-20.4-.4-7.7-1.04-15.49-5.35-22.24-1.84-2.88-4.27-5.38-6.43-8.05-.53.19-1.07.38-1.6.57 0 8.81-.14 17.63.07 26.44.08 3.31.55 6.73 1.56 9.88 1.95 6.09 4.37 12.06 11.82 13.8zm-55.56-52.11c-7.71 14.9-13.5 29.3-10.38 45.97 10.8-3.97 11.76-5.19 13.06-15.96.09-.78.27-1.54.35-2.32.85-9.13 1.52-18.24-3.03-27.69zm20.39 85.85c-4.52 5.68-8.93 11.23-13.42 16.86 8.2 3.9 19.47 3.41 24.36-.91-3.06-4.51-6.13-9.03-9.21-13.55-.5-.75-1.04-1.45-1.73-2.4zm-4.09-103.7c4.01-.39 7.49-.73 10.91-1.06 1.04-13.66 1.17-13.66-10.65-13.46-.3.01-.59.26-1.01.46.24 4.53.49 9.05.75 14.06z" fill="#010105"/><path d="m127.61 127.31c-.57-3.56-1.17-6.6-1.51-9.67-.21-1.88.03-3.8-.01-5.7-.11-6.43-1.33-8.04-7.42-10.01-3.08-1-6.1-2.3-9.26-2.95-13.67-2.79-22.75-18.94-21.68-31.01.23-2.66.64-5.32 1.23-7.93.88-3.94 4.73-6.27 8.61-5.2.92.25 2.08 1.17 2.32 2.01.77 2.76 1.35 5.6 1.65 8.44.29 2.76-.19 5.62.26 8.33 1.34 8.18 7.86 10.8 14.64 12.95 1.91.61 3.89.99 6.81 1.72.19-5.53.81-10.84.43-16.07-.45-6.22-1.78-12.38-2.68-18.57-1.24-8.52-1.2-16.91 2.85-25.08 4.58.91 7.71 3.75 8.95 7.78 1.79 5.82 3.23 11.86 3.9 17.9 1.09 9.99 1.44 20.06 2.12 30.1.07 1.11.24 2.21.36 3.3 12-.62 19.72-8.71 20.13-20.9.07-2.12-.12-4.36.51-6.32.58-1.8 1.82-3.63 3.28-4.84 2.81-2.31 4.45-1.95 6.49 1.08 6.67 9.93 5.18 20.1-.04 29.85-4.18 7.82-11.6 11.46-20.15 12.92-1.87.32-3.75.65-5.57 1.15-5.05 1.38-6.56 3.4-6.17 8.63.19 2.55.78 5.08 1.27 7.6.98 5.01-.47 7.65-5.31 9.17-1.68.55-3.45.78-6.01 1.32z" fill="#010105"/><path d="m243.88 273.9c7.69 2.53 7.96 2.54 7.63 10.09-.56 13.08 1.52 25.9 3.63 38.68 1.13 6.84 5.23 12.55 9.63 17.81 3.15 3.77 6.7 7.21 10.05 10.81 4.84 5.19 9.36 10.57 10.78 17.83.79 4.04-1.85 6.81-5.88 5.65-2.12-.61-4.34-1.97-5.81-3.61-8.83-9.82-17.45-19.82-26.15-29.76-1.18-1.34-2.36-2.68-3.79-4.3-1.86 2.71-3.43 5.36-5.35 7.73-5.2 6.43-10.27 13-15.92 19.01-4.21 4.48-9.68 7.1-16.42 6.6-.48-5.16-.56-9.39 3.85-13.6 10.12-9.66 19.82-20.01 24.12-33.78 2.11-6.75 3.25-13.92 3.91-20.98.84-9.01.57-18.14 4.82-26.5.26-.48.53-.97.9-1.68z" fill="#010105"/><path d="m220.04 276.09c6.79 1.77 10.26 5.4 10.09 11.48-.18 6.2-1.02 12.47-2.42 18.51-1.93 8.37-4.71 16.54-7.01 24.83-.85 3.06-2.36 5.11-5.72 5.58-1.75.24-3.43.92-5.22 1.42-2.13-5.71-3.69-11.14-.65-17.09 4.8-9.38 4.54-19.92 6.37-30 .9-4.98 2.97-9.73 4.56-14.73z" fill="#010105"/><path d="m284.58 336.97c-1.79.41-3.47.59-4.99 1.19-1.97.78-3.03-.04-4.24-1.46-8.49-9.95-12.03-21.73-12.81-34.51-.49-8.1.62-16.02 2.94-23.8.58-1.95 1.53-2.42 3.37-2.13 3.83.61 5.92 2.66 6.34 6.65.31 2.89.61 5.79.57 8.69-.15 10.31 1.92 20.14 5.85 29.66 2.05 4.94 3.39 10.11 2.97 15.71z" fill="#010105"/></svg>