<svg enable-background="new 0 0 400 400" viewBox="0 0 400 400" xmlns="http://www.w3.org/2000/svg"><g fill="#010103"><path d="m157.62 84.2c13.57 0 26.54-.22 39.5.05 22.14.46 44.27 1.12 66.4 1.93 4.78.17 9.53 1.23 14.28 2 12.31 1.99 20.1 9.64 24.01 20.9 2.28 6.56 3.67 13.65 4.06 20.59.78 13.84.44 27.74.84 41.61 1.48 52.36 3.07 104.71 4.61 157.06.34 11.52.63 23.05.93 34.57.08 3.19-1.75 5.62-4.5 5.98-3.28.42-6.06-1.29-6.46-4.52-1.24-9.96-2.71-19.93-3.28-29.94-1.37-24.12-2.39-48.27-3.33-72.42-1.06-27.29-2.09-54.58-2.7-81.88-.33-14.65.53-29.32.3-43.97-.1-6.2-1.3-12.43-2.54-18.55-2.21-10.91-9.74-16.22-20.28-17.35-8.21-.88-16.5-1.26-24.76-1.47-27.17-.7-54.35-1.23-81.53-1.83-1.44-.03-2.87 0-4.63 0-.26 3.78-.51 7.31-.78 11.18 9 .49 17.9 1 26.8 1.46 25.47 1.32 50.94 2.55 76.39 4.06 2.3.14 5.09 1.47 6.65 3.16 3.96 4.31 2.91 7.75-2.57 9.64-6.54 2.26-13.21 1.29-19.91.65-6.66-.63-13.37-.91-20.07-1-20.7-.25-41.41-.34-62.11-.48-.33 0-.65.1-1.42.23 1.07 3.81 1.34 7.47 5.81 9.59 12.07 5.72 24.8 8.34 37.98 8.66 16.88.41 33.77.22 50.66.4 5.7.06 11.41.23 17.08.72 3.53.31 6.2 2.27 7.58 5.79.79 2.01.5 3.15-1.55 4.28-7.26 3.99-15.1 4.73-23.11 4.28-13.5-.76-26.98-1.92-40.48-2.61-5.9-.3-11.84.13-17.77.24-14.43.28-27.89-3.72-40.64-9.99-2.48-1.22-4.01-4.89-5.39-7.72-1.6-3.29-2.6-6.88-3.76-10.38-1.14-3.44-3.81-4.42-6.89-3.78-8.52 1.79-16.98 3.85-25.43 5.91-.86.21-1.71 1.05-2.29 1.81-4.42 5.76-6.63 12.27-6.88 19.58-.89 25.94-1.85 51.89-2.91 77.83-1.19 29.3-2.29 58.6-3.88 87.88-.67 12.36-2.48 24.67-3.86 36.99-.18 1.64-1 3.19-1.42 4.81-.93 3.58-3.01 5.28-6.89 5.33-4.24.05-5.43-.12-5.66-4.48-.29-5.64.2-11.36.78-17 2.94-28.96 4.83-57.97 5.84-87.06 1.33-38.36 2.6-76.74 4.83-115.06.64-11 6.1-20.35 17.56-25.2 7.74-3.27 15.62-4.44 23.77-5.03 2.66-.19 5.32-.47 8.39-.74 0-4.26.1-8.36-.1-12.45-.03-.72-1.21-1.76-2.04-2-3.11-.89-6.27-1.66-9.47-2.2-17.01-2.87-21.53-9.91-23.35-25.85-1.26-11.04-.44-22.13 1.81-33.06 1.26-6.11 1.31-6.1 8-6.99 3.1 6.73 4.55 13.91 4.69 21.31.08 4.57-.42 9.15-.66 13.73-.55 10.23 3.28 15.43 13.19 17.85 1.3.32 2.63.54 3.96.7.87.11 1.76.02 2.99.02 1.37-7.85 2.75-15.75 4.13-23.65.21-1.21.58-2.42.62-3.63.31-11.35 7.45-17.74 16.85-21.59 6.42-2.63 13.44-4.5 20.34-5.12 15.69-1.41 31.47-2.4 47.22-2.54 21.59-.2 43.18.52 64.77.91 2.34.04 4.69.33 7 .73 1.29.22 2.9.57 3.66 1.47 1.74 2.06 3.71 4.36 4.21 6.84.19.97-3.13 3.33-5.18 3.91-3.16.89-6.59 1.08-9.91 1.05-9.62-.09-19.23-.44-28.85-.7-13.75-.37-27.5-.7-41.25-1.13-6.77-.21-9.52 1.73-9.5 6.96.01 2.05.63 3.48 2.73 4.44 7.39 3.4 15.17 4.87 23.18 4.37 10.94-.68 21.83-2.09 32.76-2.77 5.32-.33 10.72.1 16.05.55 3.05.25 5.08 2.02 5.24 5.48.1 2.2-.5 3.75-2.72 4.26-7.81 1.81-15.56 4.29-23.48 5.19-14.12 1.61-28.38 2.14-42.52.24-5.8-.78-11.45-2.9-17.04-4.79-1.34-.45-2.14-2.42-3.24-3.63-3.79-4.19-5.46-9.13-5.12-14.73.15-2.43-1.09-3.75-3.27-3.7-4.21.09-8.49.15-12.6.95-5.25 1.02-10.3 3.04-15.54 4.14-6.2 1.3-9.46 5.55-10.92 10.98-1.32 4.89-1.59 10.09-1.99 15.19-.25 3.76-.02 7.56-.02 12.55z"/><path d="m191.4 303.43c6.31-9.02 9.9-18.45 9.82-29.14-.02-2.7-1.07-4.5-3.35-6.04-8.85-6.01-18.85-7.08-29.14-7.43-8.49-.29-16.98-.85-25.44-1.59-2.47-.22-4.95-1.29-7.24-2.36-2.17-1-3.38-2.92-2.99-5.47.37-2.43 1.17-4.55 4.04-5.03.98-.16 1.94-.7 2.91-.69 18.46.35 36.96.5 54.99 5.08 4.78 1.22 9.5 3.42 13.7 6.05 7.13 4.47 9.79 12.04 7.5 20.48-2.34 8.61-5.16 17.1-7.76 25.64-.16.52-.25 1.06-.49 2.08 3.29-.79 6.27-1.48 9.24-2.22 6.83-1.7 13.63-3.55 20.51-5.06 2.76-.6 4.09-1.75 4.63-4.63 1.12-5.92 2.55-11.8 4.13-17.62 1.44-5.28 4.49-7.96 8.54-8.3 1.91-.16 3.51.34 3.82 2.31.64 4.14 2.09 8.55 1.28 12.45-3.53 17.05-5.75 34.51-12.61 50.67-5.14 12.11-11.12 23.88-17.24 35.53-1.2 2.28-4.73 3.37-7.24 4.92-1.22.75-2.56 1.3-3.91 1.97-2.28-3.56-2.41-7.34-1.24-10.85 1.75-5.27 3.88-10.47 6.35-15.45 5.62-11.33 11.42-22.55 13.72-35.37-.66 0-1.4-.13-2.07.02-11.01 2.51-22.02 4.98-32.98 7.68-1.47.36-3.23 1.65-3.85 2.98-4.1 8.69-7.76 17.59-11.91 26.26-2.4 5.01-5.16 9.9-8.25 14.51-2.33 3.48-5.87 5.79-10.48 6.71-2.44-3.74-2.26-7.97-.87-11.78 3.14-8.59 6.79-16.99 10.38-25.41 2.37-5.54 4.99-10.97 7.68-16.82-8.39-5.84-16.6-11.57-25.21-17.56-.53 1.37-1.01 2.44-1.37 3.55-4.97 15.32-13.71 28.3-24.78 39.82-3.8 3.95-7.55 8.02-11.81 11.41-2.38 1.89-5.69 3.07-8.74 3.57-4.04.66-6.54-2.29-5.61-6.35.5-2.16 1.7-4.4 3.2-6.04 5.49-6.04 11.27-11.82 16.89-17.75 11.96-12.64 18.17-27.93 20.8-44.94.59-3.81 1.89-7.56 3.28-11.18.59-1.54 2.04-3 3.47-3.91 3.66-2.34 6.92-1.25 7.86 2.92.69 3.05.51 6.37.27 9.54-.22 2.87 0 4.89 2.87 6.66 8.24 5.11 16.25 10.62 24.7 16.18z"/><path d="m135.5 203.18c3.33-.21 6.67-.37 10-.66 1.99-.17 3.09-1.28 3.64-3.32.92-3.45 2.42-6.75 3.22-10.22 1.71-7.44 6.87-11.55 13.41-14.28 9.86-4.12 20.26-5.26 30.87-5.21 12.62.06 25.33-.95 37.76 2 7.15 1.7 14.4 3.56 19.81 9.07 4.03 4.11 5.84 9.43 7.49 14.81 2.11 6.88 3.1 7.63 10.43 7.57 3.12-.02 6.23-.58 9.35-.71 3.59-.15 5.38 1.37 5.81 4.62.62 4.72.09 6.02-4.06 6.8-3.35.63-6.87.65-10.29.51-5.24-.22-9.74.45-12.05 6.07-.84 2.04-2.57 3.69-3.51 5.7-4.13 8.88-11.73 13.4-20.59 15.78-22.78 6.12-45.49 6.02-68.02-1.57-6.74-2.27-10.96-7.03-14.22-12.96-.91-1.66-1.8-3.36-2.46-5.14-1.98-5.34-6.15-7.06-11.36-6.94-4.47.1-8.93.53-13.4.59-1.62.02-3.4-.29-4.84-.99-3.11-1.51-3.21-4.49-3.17-7.51.04-2.92 2.42-3.09 4.19-3.4 3.93-.69 7.94-.94 11.92-1.37.02.25.04.51.07.76zm113.73-2.63c-.37-5.8-2.81-9.94-7.57-12.22-3.17-1.52-6.67-2.58-10.14-3.17-5.98-1.02-12.05-1.5-18.26-2.23v18.66c12.01-.34 23.79-.68 35.97-1.04zm-51.95-17.22c-4.59.5-8.69 1.09-12.8 1.37-6.4.44-12.35 2.03-17.36 6.23-.8.67-1.65 1.62-1.89 2.58-.64 2.57-.95 5.22-1.44 8.1 11.58-.36 22.92-.71 34.54-1.07-.36-5.86-.69-11.28-1.05-17.21zm-32.32 31.91c2.97 5.78 5.02 11.58 12.11 13.18 6.2 1.4 12.22 3.83 18.71 2.1.96-.26 2.41-1.27 2.45-2 .24-3.97.12-7.97.12-12.19-11.26-.37-22.07-.72-33.39-1.09zm82.21 1.1c-11.95-.38-22.84-.73-33.86-1.08v15.81c11.62-.01 22.36-1.69 31.01-9.89 1.12-1.08 1.66-2.78 2.85-4.84z"/></g><path d="m385.2 377.6.6-.7c.6.4 1.3.9 1.9 1.5l-.6.7c-.8-.5-1.4-1-1.9-1.5zm.3 7.1c.6-1.4 1.1-2.9 1.5-4.5.3.1.6.3.9.4-.5 1.4-1 2.9-1.5 4.4zm.2-10.1.6-.6c.7.5 1.3 1.1 1.9 1.6l-.7.7c-.6-.6-1.2-1.2-1.8-1.7zm8.4-.8h.8v.9h1.8v.7h-1.8v1.8h-.8v-.3h-1.2v.9h3.3v2.6h-.8v-.4h-2.5c0 .3 0 .6-.1.8h3.4v.7h-3.5c0 .3-.1.6-.1.8h4v.7h-3.5c.7.9 1.9 1.3 3.6 1.5-.2.2-.4.5-.6.9-1.9-.3-3.2-1.1-3.8-2.3-.5 1.1-1.8 2-3.9 2.4-.2-.3-.4-.5-.6-.8 1.9-.4 3.1-.9 3.6-1.7h-3.2v-.7h3.5c.1-.2.1-.5.2-.8h-3.3v-.7h3.4c0-.2 0-.5 0-.8h-2.4v.3h-.8v-2.6h3.3v-.9h-1.2v.3h-.8v-1.8h-1.8v-.7h1.8v-.9h.8v.9h3.2zm-4.4 5.5h2.4c0-.3 0-.6 0-.9h-2.4zm1.2-3.1h3.2v-.8h-3.2zm4.4 2.2h-2.4v.9h2.5v-.9z" fill="#fcfbfa"/><path d="m389.2 385.8h.9v1.5h1.9v-1.5h.9v1.5h2.7v6h1.1v.9h-11.3v-.9h1.1v-6h2.7zm.2 8.7.5.8c-1.2.6-2.5 1.3-4 1.9-.2-.3-.3-.6-.6-.8 1.6-.6 3-1.3 4.1-1.9zm-2-4.3h1.9v-2.1h-1.9zm0 3.1h1.9v-2.2h-1.9zm2.7-3.1h1.9v-2.1h-1.9zm0 3.1h1.9v-2.2h-1.9zm2.4 1.3c1.4.6 2.7 1.2 4.1 1.8l-.5.9c-1.5-.7-2.8-1.4-4.1-1.9zm2.2-6.5h-1.9v2.1h1.9zm-1.9 5.2h1.9v-2.2h-1.9z" fill="#fcfbfa"/></svg>