<svg enable-background="new 0 0 400 400" viewBox="0 0 400 400" xmlns="http://www.w3.org/2000/svg"><g fill="#fbfafa"><path d="m37.59 393.81c-.92.31-1.52.05-2-.78-.7-1.2-1.52-2.34-2.47-3.78v4.59c-.55.03-.95.05-1.41.07-.03-.37-.06-.64-.06-.91 0-1.91 0-3.81 0-5.7 1.13-.41 1.77-.03 2.29.91.62 1.11 1.38 2.14 2.31 3.19v-4.2h1.35v6.61z"/><path d="m12.94 393.88v-6.75c1.9.19 3.93-.54 5.37 1.29.8 1.01.78 2.88.03 3.97-1.37 1.97-3.4 1.51-5.4 1.49m1.45-1.22c2.04.12 2.92-.58 2.89-2.21-.03-1.51-.98-2.19-2.89-2z"/><path d="m11.81 393.87h-5.49c.68-2.18 2.47-3.48 3.51-5.45h-3.08v-1.21h5.29c-.71 2.13-2.44 3.48-3.47 5.51.86 0 1.63.04 2.39-.01.79-.05 1.14.21.85 1.16"/><path d="m39.33 393.86v-6.61h3.7v1.07h-2.22v1.52c.68.04 1.34.09 2.07.13v1.07c-.72.05-1.38.09-2.1.14v1.48h2.4v1.19h-3.85z"/><path d="m27.71 388.56c-1.15-.3-2.46-.61-3.1.64-.37.73-.41 1.93-.06 2.67.63 1.35 1.99.93 3.17.68.35.94-.01 1.32-.93 1.46-1.62.25-3.05-.27-3.76-1.48-.73-1.24-.6-3.03.31-4.17.88-1.11 2.71-1.7 4-1.16.32.13.44.74.65 1.12-.1.08-.19.16-.28.24"/><path d="m49.15 387.24v1.07c-.59.02-1.17.05-1.87.08v5.44h-1.48v-5.44h-1.85c-.05-.4-.08-.73-.13-1.15z"/><path d="m20.06 387.21h1.33v6.62h-1.33z"/><path d="m30.68 393.25c-.49.38-.8.79-1.05.76-.32-.05-.6-.45-.9-.7.26-.24.51-.64.8-.67.29-.04.62.3 1.15.61"/></g><path d="m123.04 144.81c-1.81-6.1-3.96-11.99-5.26-18.06-1.95-9.06-6.39-16.19-13.16-22.59-8.1-7.67-15.45-16.22-20.7-26.26-4.18-7.99-7.39-16.24-6.79-25.57.27-4.23-.11-8.5-.09-12.75.03-5.31 1.99-10 4.82-14.59 4.31 1.07 7.1 3.87 7.91 7.85 1.25 6.09 1.99 12.32 2.55 18.52 1.05 11.49 3.92 22.03 12.21 30.78 8 8.44 15.39 17.46 22.94 26.32 1.18 1.38 2.09 3.17 2.56 4.93 2.55 9.5 5 19.02 7.31 28.58.55 2.27 1.63 3.32 3.81 3.93 5.59 1.58 11.02 3.85 16.68 5 10.03 2.04 17.34 8 23.76 15.34 8.28 9.46 14.47 20.02 14.27 33.1-.17 11.1-3.29 20.94-13.39 27.31-3.1 1.95-6.2 2.86-9.83 1.88-7.15-1.92-13.66-4.64-17.96-11.26-4.56-7.03-9.81-13.67-10.71-22.42-.83-7.98-.3-8.59 8.58-9.87 3 5.99 6.04 12.07 9.1 18.13 2.37 4.7 5.4 8.76 10.58 10.71 4.24 1.6 5.01 1.33 6.95-2.79 4.02-8.53 1.99-16.83-1.08-25.05-2.58-6.93-8.83-10.5-14.07-14.91-15.88-13.39-33.64-13.26-52.16-6.89-1.01.35-1.91 1.14-2.75 1.86-2.21 1.89-4.21 4.06-6.55 5.76-9.7 7.07-14.36 16.92-15.63 28.5-.96 8.76-1.44 17.57-2.14 26.36.4.27.79.55 1.19.82 1.15-.82 2.4-1.53 3.42-2.49 5.36-5.04 10.39-10.47 16.04-15.14 6.51-5.38 14.33-6.6 22.48-4.58 1.89.47 3.9 1.77 5.14 3.27 6.2 7.51 8.18 16.02 5.03 25.41-1.91 5.72-3.98 11.38-6.07 17.04-1.68 4.55-4.4 8.33-7.73 11.96-4.74 5.16-8.96 10.87-12.85 16.71-4.32 6.47-5.45 13.83-4.3 21.55.75 5.01 4.21 7.81 9.05 6.3 5.26-1.65 10.82-3.23 14.02-8.42 4.63-7.49 9.67-14.77 13.66-22.58 7.13-13.95 18.05-23.67 31.7-30.74.69-.36 1.46-.56 2.22-.76 5.32-1.38 6.08-.6 6.95 4.72.61 3.7-.49 5.95-3.38 8.18-6.11 4.71-11.82 9.94-17.93 14.66-3.65 2.82-6.04 6.37-8.32 10.28-5.46 9.36-11.04 18.68-17.07 27.68-7.75 11.55-18.48 14.81-31.98 10.41-7.26-2.36-13.39-11.12-13.59-20.04-.22-10 2.83-19.4 6.04-28.72.37-1.07 1.57-1.84 2.32-2.8 6.1-7.7 12.54-15.16 18.17-23.19 4.72-6.73 5.85-14.67 4.7-22.82-.55-3.86-2.97-5.75-6.49-4.25-4.81 2.07-9.86 3.9-13.07 8.76-3.83 5.79-8.7 10.49-16.05 11.71-6.61 1.09-9.91-.59-12.82-6.51-6.08-12.37-5.83-25.08-1.98-37.91 1.8-5.98 4.07-11.82 6.18-17.7 4.04-11.28 13.36-17.75 22.72-23.78 5.26-3.39 11.59-5.11 17.44-7.57 1.02-.4 2.05-.78 3.4-1.31z" fill="#010105"/><path d="m216.39 185.52c7.24 0 14.17-.12 21.1.06 2.98.08 6 .57 8.9 1.3 1.66.41 3.31 1.44 4.6 2.6 3.91 3.52 3.44 6.24-1.33 8.39-5.9 2.67-12.14 2.59-18.44 2.29-3.89-.18-7.8.02-11.7.09-1.87.03-2.77.8-2.65 2.91.43 7.48.77 14.98.95 22.47.05 2.27 1 2.87 3.02 2.91 8.05.17 16.1.35 24.14.67 6.1.24 9.73 3.57 10.05 8.71.11 1.84-.32 3.08-2.28 3.34-6.62.88-13.23 1.88-19.88 2.54-4.76.47-9.57.48-14.75.71 0 3.48-.16 6.57.03 9.65 1.27 21.3-1.08 42.49-1.77 63.73-.32 9.73-.58 19.46-1.05 29.18-.26 5.24-.67 10.5-1.46 15.68-.63 4.16-2.56 7.62-7.32 8.54-2.5.48-4.27 0-4.67-2.76-.77-5.29-2.18-10.62-2-15.89.44-12.84 1.63-25.66 2.52-38.49.15-2.12.41-4.24.41-6.36.03-35.49.21-70.97-.1-106.46-.09-10.93-1.71-21.85-2.3-32.79-.52-9.65.58-19.17 3.03-28.58 1.08-4.14 3.67-5.89 7.27-6.85 12.75-3.42 17.42-10.32 15.39-23.37-.67-4.28-2.19-8.43-3.01-12.69-1.1-5.73-4.83-8.65-9.97-10.6-7.56-2.86-15.34-3.76-23.37-3.56-3.31.08-6.69-.27-9.94-.92-2.76-.55-4.8-2.43-5.35-5.39-.53-2.86-.07-4.71 3.3-6.08 9.32-3.8 18.78-1.56 28.18-1.47 2.98.03 5.99.71 8.93 1.39 14.25 3.29 22.21 12.6 24.89 26.66 2.07 10.84 1.97 21.61-2.14 32.03-.67 1.69-1.82 3.35-3.15 4.59-5.72 5.35-11.65 10.49-17.37 15.83-.93.87-1.75 2.41-1.74 3.63.14 10.29.48 20.59.78 30.88-.01.44.14.86.25 1.48z" fill="#010105"/><path d="m314.12 372.97c-2.86.59-5.57 1.15-8.51 1.77-3.43-5.28-4.5-11.12-4.59-17.22-.41-26.63-.85-53.26-1.19-79.89-.13-9.94-.02-19.88-.02-30.54-4.82.46-8.75.85-12.69 1.22-4.78.45-9.56 1.24-14.35 1.25-5.27.01-8.01-2.61-8.39-6.85-.18-2.01.39-3.22 2.38-4.17 6.56-3.15 13.56-4.41 20.68-5.3 5.84-.73 8.45-2.56 9.07-6.37.74-4.59-2.02-10.53-6.27-12.14-3.72-1.41-7.69-2.21-11.62-2.96-2.73-.52-5.64-.17-8.33-.79-2.31-.54-4.79-1.48-6.55-2.99-4.93-4.26-4.07-7.85 1.97-10.11 6.5-2.44 13.02-1.39 19.52-.17 3.18.6 6.49 1.06 9.41 2.33 4.31 1.87 8.34 4.41 12.48 6.67 3.14-5.99 3.16-16.12-.53-22.4-.72-1.22-2.18-2.19-3.52-2.83-6.79-3.3-14.1-3.99-21.55-4.17-4.78-.12-9.59-.51-14.3-1.27-3.07-.49-5.44-2.46-6.52-5.65-.7-2.06-.12-2.97 1.9-4.09 9.85-5.45 20.25-3.28 30.53-2.61 3.45.22 6.93.66 10.28 1.47 16.5 3.98 23.32 19.13 20.89 34.18-1.27 7.83-4.2 15.55-7.44 22.86-3.8 8.6-4.7 17.2-3.83 26.4.81 8.56 1 17.21 1.03 25.82.11 31.45.04 62.9.04 94.36.02 1.3.02 2.63.02 4.19z" fill="#010105"/><path d="m275.02 126.29c2.12 0 4.24-.02 6.36 0 7.44.1 11.46-2.74 13.81-9.74 2.81-8.39 2.65-16.69-.96-24.8-.41-.91-1.67-1.87-2.65-2.03-6.94-1.06-13.91-1.94-20.88-2.83-2.65-.34-5.43-.19-7.95-.96-2.13-.65-4.44-1.91-5.76-3.61-1.15-1.47-1.27-3.92-1.43-5.96-.27-3.3 2.69-2.74 4.5-3.13 13.41-2.9 26.23-.85 38.27 5.45 8.88 4.65 12.95 12.65 13.69 22.42.72 9.66-1.31 18.95-4.67 27.89-.76 2.03-3.12 3.76-5.15 4.96-14.93 8.8-30.82 9.74-47.22 5.18-3.61-1-5.37-7.44-2.97-10.22.61-.71 1.94-1 2.97-1.11 6.67-.68 13.35-1.25 20.02-1.86 0 .12.01.24.02.35z" fill="#010105"/></svg>