<svg enable-background="new 0 0 400 400" viewBox="0 0 400 400" xmlns="http://www.w3.org/2000/svg"><g fill="#fbfafa"><path d="m37.59 393.81c-.92.31-1.52.05-2-.78-.7-1.2-1.52-2.34-2.47-3.78v4.59c-.55.03-.95.05-1.41.07-.03-.37-.06-.64-.06-.91 0-1.91 0-3.81 0-5.7 1.13-.41 1.77-.03 2.29.91.62 1.11 1.38 2.14 2.31 3.19v-4.2h1.35v6.61z"/><path d="m12.94 393.88v-6.75c1.9.19 3.93-.54 5.37 1.29.8 1.01.78 2.88.03 3.97-1.37 1.97-3.4 1.51-5.4 1.49m1.45-1.22c2.04.12 2.92-.58 2.89-2.21-.03-1.51-.98-2.19-2.89-2z"/><path d="m11.81 393.87h-5.49c.68-2.18 2.47-3.48 3.51-5.45h-3.08v-1.21h5.29c-.71 2.13-2.44 3.48-3.47 5.51.86 0 1.63.04 2.39-.01.79-.05 1.14.21.85 1.16"/><path d="m39.33 393.86v-6.61h3.7v1.07h-2.22v1.52c.68.04 1.34.09 2.07.13v1.07c-.72.05-1.38.09-2.1.14v1.48h2.4v1.19h-3.85z"/><path d="m27.71 388.56c-1.15-.3-2.46-.61-3.1.64-.37.73-.41 1.93-.06 2.67.63 1.35 1.99.93 3.17.68.35.94-.01 1.32-.93 1.46-1.62.25-3.05-.27-3.76-1.48-.73-1.24-.6-3.03.31-4.17.88-1.11 2.71-1.7 4-1.16.32.13.44.74.65 1.12-.1.08-.19.16-.28.24"/><path d="m49.15 387.24v1.07c-.59.02-1.17.05-1.87.08v5.44h-1.48v-5.44h-1.85c-.05-.4-.08-.73-.13-1.15z"/><path d="m20.06 387.21h1.33v6.62h-1.33z"/><path d="m30.68 393.25c-.49.38-.8.79-1.05.76-.32-.05-.6-.45-.9-.7.26-.24.51-.64.8-.67.29-.04.62.3 1.15.61"/></g><path d="m192.38 229.53c.59-4.71 1.14-9.12 1.75-14-5.17-.63-10-1.5-14.86-1.75-11.95-.62-23.91-.98-35.87-1.39-18.3-.63-31.32-10.08-34.12-28.05-2.03-13.04-2.51-26.87 4.34-39.38 1.33-2.42 2.54-4.99 4.32-7.04 1.73-1.98 4.12-3.38 6.19-5.01-.08-.51-.01-.92-.19-1.14-4.28-5.27-4.86-11.66-5.18-18.02-.16-3.2-1.35-5.26-3.86-7.25-8.34-6.63-14.65-14.77-14.54-25.97.06-5.73 1.11-11.6 2.69-17.14 2.59-9.11 5.49-18.21 9.2-26.91 2.35-5.52 7.31-9.21 13.44-10.57.78-.17 2.28.68 2.7 1.45 1.8 3.31 2.07 6.92.31 10.29-1.95 3.76-4.3 7.31-6.49 10.94-8.46 13.95-9.04 28.36-2.58 43.83.68-1.11 1.13-1.68 1.41-2.32 7.79-17.94 19.27-33.28 33.73-46.29 8.07-7.26 17.61-10.88 28.79-8.35 2.02.46 2.74 1.29 2.93 3.28.57 6.07.64 6.04-4.9 8.76-6.52 3.21-13.19 6.14-19.48 9.75-12 6.9-18.69 18.32-24.51 30.31-1.71 3.51-3.1 7.17-4.67 10.83 2.47 2.08 5.09 2.62 7.97 2.01 5.2-1.11 9.75-3.44 12.83-7.88 3.56-5.14 6.89-10.44 10.29-15.69 1.95-3 3.89-6.01 5.74-9.07 1.39-2.3 3.29-3.08 5.98-3.46 3.1-.44 4.16.74 5.04 3.29 1.63 4.78 1.12 9.33-1.35 13.57-3.26 5.6-6.55 11.22-10.32 16.49-1.76 2.46-4.86 3.9-7.03 6.12-7.39 7.56-16.42 10.69-26.82 10.43-.77-.02-1.54.13-2.9.26 1.12 4.09 2.18 7.96 3.46 12.61 38.59-7.75 77.02-8 115.64.69 1.72-4.9 3.41-9.7 5.28-15-4.52-.88-8.79-1.48-12.93-2.58-3.5-.93-7.18-1.93-10.21-3.81-8.45-5.25-15.49-12.13-21.06-20.41-3.78-5.62-5.62-11.87-5.58-18.68.01-1.81.5-3.14 2.47-3.26 2.27-.14 4.52-3.19 6.86.08 5.08 7.09 10.41 14.01 15.38 21.16 5.54 7.97 13.34 11.12 23.25 11.6-.83-1.92-1.49-3.49-2.19-5.04-2.31-5.09-4.88-10.07-6.89-15.27-1.85-4.77-4.77-8.4-8.89-11.37-4.26-3.07-8.36-6.4-12.29-9.89-3.77-3.36-8.11-5.34-12.82-6.99-3.29-1.15-6.48-2.97-9.27-5.08-2.59-1.95-1.3-7.23 1.76-8.53 3.83-1.63 7.86-2.04 11.81-.89 7.55 2.2 14.59 5.29 20.47 10.91 13.49 12.9 25.22 26.96 31.55 44.86.11.3.36.56.67 1 4.96-7.31 6.32-15.1 4.78-23.68-1.94-10.82-7.3-20.08-12.56-29.44-2.4-4.28-1.79-7.43 1.57-10.92 1.28-1.33 2.3-1.6 4-.56 5.81 3.54 10.2 8.36 13.28 14.35 5.46 10.61 8.64 21.95 8.46 33.85s-3.96 22.6-14.25 29.89c-2.91 2.06-3.45 4.74-3.91 8.18-.73 5.43-2.62 10.76-4.48 15.98-.98 2.75-.64 4.18 1.65 6.11 11.95 10.04 15.18 23.46 14.22 38.35-.11 1.78-.46 3.55-.76 5.31-2.71 16.08-14.11 23.88-28.06 29.02-11.74 4.33-24.02 6.08-36.47 6.7-3.55.18-7.09.53-10.81.82v13.32c9.89.21 19.79.39 29.7.64 12.37.31 24.52 2.17 36.21 6.24 14.47 5.04 23.7 20.01 21.92 35.09-.5 4.24-2.29 7.89-5.57 10.76-9.67 8.46-20.67 12.03-33.25 8.26-10.04-3.01-19.97-6.44-29.84-9.97-4.83-1.73-7.24-6.35-5.91-10.59.29-.94 1.65-2.15 2.56-2.19 4.66-.2 9.12.3 13.76 1.79 10.49 3.37 21.23 6.18 32.04 8.28 8.61 1.67 12.48-2.61 12.18-11.32-.23-6.57-2.78-11.21-8.69-14.59-8.95-5.12-18.66-7.08-28.62-7.42-28.11-.96-56.18-.38-83.8 5.8-7.4 1.66-14.67 3.97-21.9 6.3-5.76 1.86-10.27 12.19-8.76 19.42.73 3.5 1.4 6.93 5.79 8.03 3.36.84 6.26 3.69 10.13 1.9 6.77-3.13 13.84-5.74 20.28-9.43 9.46-5.43 18.78-5.79 28.53-1.35 6.96 3.17 10.07 8.84 9.58 16.41-.84 12.78-6.13 23.49-14.17 33.22-3.46 4.19-6.55 8.87-8.85 13.77-1.65 3.49-2.29 7.72-2.35 11.64-.11 6.86 2.52 9.61 9.22 10.88 5.94 1.13 11.57-.17 16.96-2.61.92-.42 1.67-1.43 2.28-2.32 4.47-6.57 8.45-13.52 13.4-19.69 11.85-14.78 26.81-24.18 46.4-24.43 2.77-.04 5.54.62 8.32.92 3.88.41 5.99 2.1 6.55 6.39.41 3.14.01 4.98-3.05 5.73-3.76.92-7.54 1.86-11.37 2.41-2.75.4-5.58.18-8.38.24-8.78.19-14.85 5.47-20.79 11.02-7.81 7.31-14.32 15.64-20.04 24.68-7.48 11.83-16.29 15.31-30.05 12.31-1.31-.29-2.61-.63-3.89-1.04-5.18-1.64-10.52-2.77-13.75-8.06-3.69-6.03-5.68-12.35-5.19-19.41.5-7.24 2.25-14.17 5.99-20.4 1.82-3.02 4.65-5.43 6.59-8.39 3.9-5.95 8.79-11.67 10.96-18.25 4.03-12.23 2.13-13.01-9.48-13.18-7.51-.11-14.08 3.15-20.29 7.12-3.01 1.93-5.94 4.04-9.11 5.64-5.12 2.59-10.65 3.12-15.91.73-8.34-3.79-14.65-9.08-17.53-18.79-2.64-8.87.08-16.45 2.02-24.47.19-.78.95-1.5 1.58-2.09 13.19-12.35 28.65-19.58 46.77-21.05 9.14-.73 18.24-1.89 27.71-2.9zm54.93-34.97c-1.02-.49-1.57-.81-2.16-1.03-16.09-6.05-32.18-12.13-48.32-18.04-1.35-.49-3.28-.22-4.67.36-14.14 5.85-28.22 11.83-42.31 17.78-1.8.76-3.58 1.55-5.37 2.33.05.29.11.58.16.88 34.21 8.86 68.19 4.65 102.67-2.28zm-101.82-53.65c.38.2.74.44 1.14.58 16.13 5.96 32.25 11.94 48.42 17.8 1.09.39 2.62.14 3.76-.3 6.13-2.4 12.21-4.96 18.3-7.47l25.59-10.5c-.04-.4-.08-.8-.12-1.21-32.34-7.41-64.68-5.17-97.09 1.1zm31.15 26.73c-16.73-6.81-32.74-13.33-48.7-19.83-5.84 8.46-8.89 32.56-3.03 39.61 16.92-6.47 33.91-12.97 51.73-19.78zm39.06-1c1.47.98 2.4 1.85 3.51 2.29 13.47 5.37 26.97 10.68 40.47 15.97 3.1 1.22 4.8.52 5.25-2.85.94-7.05 1.78-14.15 2.02-21.25.15-4.43-1.92-8.48-5.25-11.57-.69-.64-2.26-1.06-3.06-.73-14.11 5.87-28.16 11.86-42.94 18.14z" fill="#010105"/></svg>