<svg enable-background="new 0 0 400 400" viewBox="0 0 400 400" xmlns="http://www.w3.org/2000/svg"><g fill="#010101"><path d="m120.85 133.71c-1.67 6.96-.2 13.38 1.51 19.78.4 1.51 1.1 2.96 1.37 4.48 2.26 12.87 11.44 18.61 22.68 22.46 8.92 3.06 18.08 2.77 27.25 2.39 15.42-.64 30.83-1.52 46.25-2.24 2.45-.11 4.96-.15 7.35.29 1.65.31 3.44 1.2 4.62 2.38 2.93 2.92 2.51 5.55-.89 7.82-4.84 3.24-10.35 4.31-15.98 4.36-24.03.21-48.17 2.24-72.02-1.89-11.35-1.96-21.07-7.02-26.52-18.52-5.84-12.33-9.14-25.17-10.56-38.6-2.45-23.16-2.4-46.25 1.81-69.24.6-3.29.42-6.71.84-10.03 2.18-17.26 5.98-22.33 22.39-27.44 13.76-4.28 28.15-4.63 42.54-4.19 20.8.64 41.61.77 62.4 1.59 7.67.3 15.41 1.37 22.89 3.1 13.45 3.11 20 13.71 17.42 27.63-.81 4.38-1.61 9.64-4.41 12.59-5.57 5.86-13.28 8.65-21.57 8.59-5.13-.04-10.26-.77-15.39-.98-3.01-.12-6.03.2-9.04.3-3.46.11-4.79 2.08-4.26 5.27 1.48 9.04 2.71 18.15 4.73 27.07 2.14 9.48.08 7.53 9.58 8.08 10.69.62 21.46-.37 32.19-.25 4.75.05 9.52.89 14.2 1.81 1.71.34 3.45 1.66 4.71 2.99 3.72 3.9 3.02 6.68-1.88 8.68-8.18 3.33-16.69 2.35-25.18 2.14-8.66-.22-17.34-.05-26.9-.05 6.58 11.07 10.24 22.4 18.76 31.43 13.14 13.91 25.94 28.12 40.19 40.94 1.29 1.16 2.65 2.74 3.01 4.34.45 2.03.68 4.96-.44 6.24-1.08 1.23-4.28 1.65-6.04 1.01-3.18-1.16-6.44-2.88-8.84-5.22-13.98-13.56-28.04-27.08-41.38-41.26-4.62-4.91-7.49-11.56-10.75-17.63-2.9-5.41-5.26-11.1-7.81-16.7-.87-1.91-2.04-2.77-4.34-2.78-25.18-.16-50.36-.47-75.54-.71-6.22-.08-12.46-.03-18.95-.03zm79.26-94.74c-1.52 0-2.73-.02-3.95 0-15.44.26-30.87.46-46.3.83-7.57.18-14.88 1.84-21.59 5.43-1.69.91-3.41 2.58-4.16 4.31-4.2 9.71-5.5 20.01-5.16 30.5.12 3.61 1.01 7.19 1.59 11.02 4.67-.79 8.72-2 12.8-2.07 10.78-.19 18.91-4.77 24.83-13.62 3.63-5.43 9.03-7.82 15.24-8.52 3.54-.4 7.14-.5 10.7-.37 6.73.25 13.37.1 20.17-2.2-1.4-8.43-2.77-16.76-4.17-25.31zm13.51 79.01c-.82-4.3-1.46-8.14-2.3-11.93-1.72-7.73-3.52-15.45-5.35-23.16-.54-2.27-2-3.05-4.43-2.99-7.05.18-14.11.27-21.15-.01-4.64-.19-8.31 1.5-11.45 4.55-1.91 1.85-3.59 3.99-5.16 6.15-3.72 5.09-8.2 8.34-14.85 9.08-9.62 1.07-19.14 3.06-28.96 4.7.29 4.99.56 9.73.84 14.69 31.02-.36 61.73-.72 92.81-1.08zm1.9-79.66c.55 4.99.94 8.77 1.38 12.54.45 3.89 1.05 7.76 1.35 11.65.18 2.44 1.26 3.13 3.6 3.16 5.58.06 11.16.44 16.74.6 7.29.21 14.58.24 21.28-3.27.95-.5 2.05-1.52 2.28-2.48 1.68-7.04-1.86-14.33-8.59-17.08-3.26-1.34-6.83-2.19-10.34-2.59-9.06-1.03-18.16-1.69-27.7-2.53z"/><path d="m253.43 300.34c-4.09 0-8.01-.14-11.9.09-1.12.07-2.3 1.07-3.25 1.88-3.74 3.16-7.13 6.84-11.17 9.54-5.84 3.9-17.05 1.16-21.1-4.57-4.53-6.42-6.29-13.6-3.75-21.01 2.62-7.67 6.23-15.01 9.55-22.43.56-1.24 1.78-2.28 2.89-3.17 4.2-3.35 8.59-6.46 12.7-9.92 5.37-4.51 11.15-8.26 17.87-10.31 3.03-.92 3.92-2.94 3.26-5.53-1.33-5.17-2.78-10.33-4.65-15.32-3.07-8.18-2.23-15.96 1.41-23.79 4.6 1.06 7.58 4.05 8.91 8.06 1.82 5.48 2.73 11.26 4.2 16.87 1.22 4.64 2.69 9.21 4.02 13.81.6 2.08 1.94 3.03 4.09 3.32 4.54.62 9.05 1.49 13.58 2.17 7.92 1.19 13.86 6.08 19.66 10.92 6.19 5.17 11.79 11.02 15.28 18.49 4.33 9.28 3.36 18.57-.6 27.62-2.33 5.32-11.32 9.34-17.64 7.7-4.02-1.04-8.28-2.61-11.48-5.15-8.36-6.63-14.72-14.95-17.68-25.45-.39-1.38-.47-2.88-.45-4.32.05-5.01 2.23-6.91 7.13-6.09.8.13 1.61 1.09 2.14 1.85 3.87 5.62 7.41 11.49 11.61 16.85 2.17 2.77 5.15 5.47 8.35 6.75 5.43 2.17 9.03-.68 8.24-6.38-.99-7.11-3.27-14.02-8.72-19.1-6.54-6.1-13.79-11.29-23.14-11.83-11.12-.64-21.74 2.1-32.19 5.56-.21.07-.45.14-.6.29-7.63 8.09-17.15 14.7-21.52 25.41-1.82 4.45-2.29 9.44-3.34 14.03 6.1 2.94 6.51 2.87 10.08-1.36 8.12-9.63 21.37-13 33.23-8.41.7.27 1.4.69 1.95 1.21 8.57 8.23 11.2 23.26 5.8 33.87-.82 1.62-2.11 3.18-3.57 4.26-5.66 4.2-11.49 8.16-17.2 12.3-2.44 1.77-4.94 3.54-7.01 5.69-3.85 4.01-4.42 8.87-2.65 14.05.21.61.49 1.33.98 1.7 1.58 1.21 9.5-.03 10.95-1.57 9.05-9.62 17.97-19.37 27.21-28.81 10.9-11.13 24.33-13.17 38.91-10.24.19.39.35.58.38.79.95 6.87.95 6.87-5.58 9.27-6.51 2.39-13.08 4.6-19.48 7.24-2.9 1.2-6.01 2.77-8.06 5.03-7.04 7.79-13.73 15.9-20.41 24.01-3.92 4.76-8.48 8.22-14.78 8.97-9.28 1.1-16.44-1.76-21.55-10.07-5.38-8.75-4.79-17.14.05-25.66.58-1.01 1.69-1.77 2.66-2.5 6.74-5 13.56-9.9 20.26-14.95 7.35-5.52 9.37-12.61 6.12-21.66z"/><path d="m120.01 355.55c3.14-5.86 6.47-11.21 8.97-16.92 4.18-9.55 11.38-15.84 20.33-20.52 10.55-5.52 21.63-8.24 33.64-6.94 3.8.41 6.29 1.63 6.81 5.66.11.87.48 1.72.82 2.88-5.29 3.99-11.47 5.49-17.95 6.27-3 .36-5.96 1-8.95 1.39-10.25 1.36-15.72 8.87-20.72 16.59-3.44 5.32-5.98 11.22-8.85 16.9-3.91 7.73-9.35 10.65-18.05 9.58-12.76-1.57-20.81-11.87-19.22-24.64.23-1.89.57-3.76.96-5.62 1.27-6.03 3.47-11.34 9-15.04 4.15-2.78 7.65-6.54 11.49-9.8 6.56-5.57 9.41-12.81 9.91-21.24.13-2.28-.81-3.28-2.79-3.09-4.55.44-9.06 1.1-12.54 4.62-2.2 2.22-4.52 4.34-6.93 6.33-7.04 5.81-14.77 4.66-22.55 1.96-.81-.28-1.5-1.27-2-2.08-5.65-9.15-7.05-18.86-2.82-28.86 2.42-5.74 5.61-11.15 8.58-16.65.56-1.03 1.61-1.83 2.54-2.61 1.97-1.65 4.15-3.08 6.01-4.84 7.72-7.29 16.64-12.38 27.03-14.64 3.74-.81 4.74-3.2 4.18-6.34-.57-3.15-1.66-6.23-2.71-9.27-1.16-3.37-2.62-6.64-3.76-10.02-.42-1.23-.62-2.72-.35-3.97.59-2.67 1.57-5.25 2.38-7.86 2.76.98 5.82 1.49 8.22 3.04 3.56 2.3 4.71 6.26 5.49 10.35 1.17 6.12 2.57 12.21 4.2 18.22.31 1.16 1.98 2.38 3.26 2.77 5.02 1.52 10.13 2.75 15.22 4.04 22.62 5.75 36.02 27.77 30.77 50.6-1.51 6.56-7.21 11.46-14.3 11.9-6.15.38-11.91-.97-16.09-5.88-5.13-6.01-10.29-12.04-14.85-18.48-1.76-2.48-1.9-6.11-2.76-9.22-.87-3.13 1-4.56 3.52-5.43 2.46-.85 4.4-.46 5.95 2.09 3.08 5.06 6.38 10 9.76 14.86 3.16 4.53 7.27 7.53 13.16 7.35 2.54-.08 4.03-1.25 4.38-3.69.25-1.75.45-3.57.23-5.31-2.05-16.24-14.18-25.27-29.68-27.88-12.19-2.05-23.74 1.65-34.81 6.46-11.93 5.19-18.61 15.27-23.25 26.81-1.15 2.87-1.15 6.4-.9 9.56.14 1.83 1.49 4.04 2.98 5.07.7.48 3.46-1.07 4.57-2.33 4.29-4.86 9.07-8.92 15.18-11.3 5.81-2.26 11.74-2.75 17.78-1.3 7.62 1.83 13.12 11.34 11.43 20.14-.82 4.26-2.05 8.48-3.45 12.59-2.88 8.44-9.92 13.57-16.02 19.4-2.5 2.39-5.43 4.31-8.06 6.56-3.37 2.88-4.27 6.68-3.7 10.93.33 2.47 1.16 4.42 4.04 4.96 1.72.32 3.34 1.18 5.27 1.89z"/></g><path d="m6.4 11.7c-1-.8-1.9-1.6-2.9-2.3l.6-.7c.9.7 1.9 1.4 2.9 2.2zm-2.1 8.3c.7-2.1 1.4-4.2 2-6.4.2.1.6.3 1 .4-.7 2.3-1.3 4.4-1.9 6.4zm3-12.8c-1.1-.9-2.1-1.7-2.9-2.4l.6-.7c1 .8 2 1.5 3 2.4zm1.4-1.3v-.9h10.2v.9c-.9 4.2-2.3 7.3-4.1 9.4 1.3 1.4 3.2 2.7 5.7 4-.2.2-.4.5-.7.9-2.5-1.4-4.4-2.7-5.7-4.2-1.4 1.5-3.5 3-6.1 4.4 0 0 0 0-.1-.1-.3-.4-.5-.7-.7-.8 2.7-1.3 4.7-2.8 6.2-4.2-1.8-2.2-3-5.3-3.7-9.4zm9.2 0h-7.1c.6 3.8 1.7 6.7 3.4 8.7 1.7-2 2.9-4.8 3.7-8.7z" fill="#fbfafa"/><path d="m31.6 3.6h.9v2.3h4.1v9.1h1.7v.9h-16.6v-.9h1.7v-9.1h4.1v-2.3h.9v2.3h3.1v-2.3zm-4 13.3.6.8c-1.9.9-3.8 1.9-5.8 2.8-.2-.3-.3-.6-.5-.9 2-.9 3.9-1.8 5.7-2.7zm-3.2-10.1v3.7h3.1v-3.7zm0 4.5v3.7h3.1v-3.7zm4.1-4.5v3.7h3.1v-3.7zm0 4.5v3.7h3.1v-3.7zm9.1 9.1c-2.1-1.1-4.1-2-5.8-2.7l.5-.8c2.2.9 4.1 1.8 5.8 2.6zm-1.9-13.6h-3.1v3.7h3.1zm-3.2 4.5v3.7h3.1v-3.7z" fill="#fbfafa"/></svg>