<svg enable-background="new 0 0 400 400" viewBox="0 0 400 400" xmlns="http://www.w3.org/2000/svg"><g fill="#fbfafa"><path d="m37.59 393.81c-.92.31-1.52.05-2-.78-.7-1.2-1.52-2.34-2.47-3.78v4.59c-.55.03-.95.05-1.41.07-.03-.37-.06-.64-.06-.91 0-1.91 0-3.81 0-5.7 1.13-.41 1.77-.03 2.29.91.62 1.11 1.38 2.14 2.31 3.19v-4.2h1.35v6.61z"/><path d="m12.94 393.88v-6.75c1.9.19 3.93-.54 5.37 1.29.8 1.01.78 2.88.03 3.97-1.37 1.97-3.4 1.51-5.4 1.49m1.45-1.22c2.04.12 2.92-.58 2.89-2.21-.03-1.51-.98-2.19-2.89-2z"/><path d="m11.81 393.87h-5.49c.68-2.18 2.47-3.48 3.51-5.45h-3.08v-1.21h5.29c-.71 2.13-2.44 3.48-3.47 5.51.86 0 1.63.04 2.39-.01.79-.05 1.14.21.85 1.16"/><path d="m39.33 393.86v-6.61h3.7v1.07h-2.22v1.52c.68.04 1.34.09 2.07.13v1.07c-.72.05-1.38.09-2.1.14v1.48h2.4v1.19h-3.85z"/><path d="m27.71 388.56c-1.15-.3-2.46-.61-3.1.64-.37.73-.41 1.93-.06 2.67.63 1.35 1.99.93 3.17.68.35.94-.01 1.32-.93 1.46-1.62.25-3.05-.27-3.76-1.48-.73-1.24-.6-3.03.31-4.17.88-1.11 2.71-1.7 4-1.16.32.13.44.74.65 1.12-.1.08-.19.16-.28.24"/><path d="m49.15 387.24v1.07c-.59.02-1.17.05-1.87.08v5.44h-1.48v-5.44h-1.85c-.05-.4-.08-.73-.13-1.15z"/><path d="m20.06 387.21h1.33v6.62h-1.33z"/><path d="m30.68 393.25c-.49.38-.8.79-1.05.76-.32-.05-.6-.45-.9-.7.26-.24.51-.64.8-.67.29-.04.62.3 1.15.61"/></g><path d="m143.89 171.77c9.37-2.67 9.44-2.71 13.13 5.79 3.03 6.97 5.83 14.04 8.79 21.03 3.38 7.97 8.8 10.31 17.24 8.69 12.89-2.48 14.81-12.97 12.62-21.36-1.7-6.54-5.17-11.6-10.7-15.65-14.04-10.28-29.72-14.03-46.83-12.85-14.07.97-27.67 3.89-40.47 9.93-2.04.96-4.07 2.41-5.5 4.14-5.68 6.85-10.7 14.13-11.27 23.45-.12 2-.07 4.04.22 6.02.94 6.43 6.17 9.91 12.61 8.27 2.46-.63 4.78-1.85 7.16-2.79 7.38-2.92 14.65-4.36 22.26-.3 7.47 3.98 11.45 9.77 11.11 18.3-.42 10.48-3.28 20.27-8.54 29.33-.71 1.23-1.86 2.21-2.79 3.32-6.21 7.35-12.67 14.49-18.53 22.1-4.64 6.03-6.86 13.12-5.23 20.83.39 1.85 1.7 4.03 3.24 5.01 5.84 3.68 12.2 4.07 18.63 1.55 1.16-.46 2.27-1.43 3.04-2.44 5.81-7.65 10.38-15.98 12.15-25.51 1.84-9.91 6.96-17.79 14.93-23.48 6.87-4.9 14.46-8.79 21.74-13.1.57-.34 1.24-.5 1.88-.69 6.47-1.94 9.48.51 8.64 7.17-.1.79-1.07 1.6-1.82 2.15-7.74 5.72-15.53 11.37-23.26 17.09-1.04.77-2.07 1.75-2.72 2.86-5.84 9.98-10.81 20.39-13.39 31.7-2.73 11.96-10.87 17.08-21.98 19.67-8.85 2.06-16.76-.69-24.84-3.27-.61-.19-1.22-.58-1.66-1.04-7.02-7.42-10.61-15.98-8.35-26.32.91-4.14 1.92-8.29 3.25-12.31 2.44-7.37 6.06-13.87 11.81-19.5 5.62-5.5 10.21-12.12 14.81-18.56 3.07-4.29 3.71-9.45 3.45-14.77-.17-3.49-1.65-5.7-5.06-5.69-4.06.01-8.16.49-12.18 1.13-4.51.72-8.91 2.25-13.43 2.7-9.15.91-16.53-3.54-19.21-12.32-4.04-13.25-4.2-26.45 3.56-38.76 8.66-13.74 20.8-23.06 36.53-26.89 8.43-2.05 17.23-2.61 25.89-3.59 2.38-.27 3.29-1.5 3.14-3.4-.31-3.88-.49-7.87-1.59-11.55-2.49-8.34-5.43-16.56-8.38-24.76-.57-1.59-1.87-3.01-3.09-4.26-9.74-9.97-17.73-21.08-22.04-34.45-4.08-12.66-1.28-24.56 5.12-35.74.85-1.49 3.37-2.86 5.1-2.84 3.33.04 6.13 2.11 6.74 5.52.5 2.77.19 5.76-.19 8.6-.57 4.2-1.48 8.36-2.31 12.52-1.95 9.75 2.08 17.69 7.66 25.1 2.28 3.03 4.68 6.04 7.42 8.65 10.53 10.06 17.32 21.75 17.63 36.75.12 5.69 1.19 11.36 1.4 17.05.1 2.84 1.29 4 3.78 4.53 7.43 1.58 14.8 3.57 22.3 4.74 21.63 3.38 35.78 28.72 33.93 44.54-2.14 18.31-15.51 30.77-35.2 28.38-4.67-.57-9.18-2.64-13.71-4.17-.97-.33-1.95-1.16-2.51-2.02-3.37-5.14-6.66-10.34-9.9-15.57-5.39-8.75-6.25-18.49-6.23-28.66z" fill="#010105"/><path d="m259.5 171.58c-15.28 23.71-30.29 47.08-34.33 75.43-3.21 22.57-4.33 45.2-1.49 67.93 1.88 15.1 3.48 30.24 4.99 45.38.3 2.95.01 6.08-.71 8.96-.44 1.75-1.91 3.61-3.43 4.66-3.04 2.09-5.05 1.43-7.17-1.65-4.22-6.13-5.3-13.17-5.94-20.35-1.18-13.37-2.36-26.74-3.64-40.1-1.85-19.25-1.41-38.46.57-57.66 1.8-17.45 5.47-34.47 12.72-50.52 2.08-4.61 4.93-9.01 8.11-12.95 6.11-7.58 11.25-15.69 14.07-24.98 3.4-11.21 6.21-22.59 9.46-34.57-5.62-.29-10.48-.63-15.35-.78-8.38-.25-16.76-.23-25.13-.64-2.61-.13-5.34-.94-7.68-2.12-1.76-.89-3.38-2.64-4.35-4.4-1.74-3.17-.88-4 2.2-5.85 7.29-4.37 15.18-3.02 22.9-2.85 16.55.36 33.09 1.04 49.64 1.48 11.86.32 23.72.44 35.57.71 6.54.15 10.27 2.73 10.88 7.71.13 1.09-.65 2.82-1.57 3.41-5.42 3.54-11.61 4.78-17.93 4.58-10.5-.33-20.98-1.02-31.46-1.78-2.73-.2-3.75.45-4.04 3.23-.67 6.34-1.59 12.65-2.6 18.95-.39 2.42.29 3.8 2.35 5.21 8.41 5.71 17.14 11.09 24.88 17.62 13.38 11.31 17.75 28.79 11.38 45.06-4.27 10.9-8.96 21.76-14.79 31.88-10.83 18.8-13.82 51.37 6.13 73.44 8.25 9.12 16.76 18.02 25.23 26.94 3.34 3.51 6.82 6.94 7.61 11.96.24 1.55.04 4.16-.88 4.7-1.69.98-4.51 1.67-6.07.89-3.83-1.91-7.61-4.31-10.7-7.25-11.53-10.96-22.52-22.48-31.44-35.73-6.5-9.66-11.36-20.35-12.71-31.83-.97-8.28.18-16.97 1.49-25.31 1.82-11.59 6.66-22.21 12.73-32.25 4.35-7.21 8.42-14.61 9.22-23.18 1.37-14.71-2.29-27.29-15.82-35.41-4.18-2.53-8.32-5.15-12.9-7.97z" fill="#010105"/><path d="m268.38 61.92c12.64 0 25.28-.14 37.91.07 4.8.08 8.96 1.96 11.03 6.83.79 1.86.67 3.18-1.39 4.37-4.58 2.64-9.4 3.91-14.67 4.13-10.7.46-21.39 1.16-32.09 1.79-20 1.17-39.97 2.3-59.89-1.42-5.25-.98-3.61-4.75-4.36-7.6-.77-2.91 2.08-2.81 3.59-3.4 8.87-3.5 18.22-4.46 27.64-4.61 10.74-.16 21.48-.04 32.22-.04.01-.03.01-.08.01-.12z" fill="#010105"/></svg>