<svg enable-background="new 0 0 400 400" viewBox="0 0 400 400" xmlns="http://www.w3.org/2000/svg"><g fill="#fbfafa"><path d="m37.59 393.81c-.92.31-1.52.05-2-.78-.7-1.2-1.52-2.34-2.47-3.78v4.59c-.55.03-.95.05-1.41.07-.03-.37-.06-.64-.06-.91 0-1.91 0-3.81 0-5.7 1.13-.41 1.77-.03 2.29.91.62 1.11 1.38 2.14 2.31 3.19v-4.2h1.35v6.61z"/><path d="m12.94 393.88v-6.75c1.9.19 3.93-.54 5.37 1.29.8 1.01.78 2.88.03 3.97-1.37 1.97-3.4 1.51-5.4 1.49m1.45-1.22c2.04.12 2.92-.58 2.89-2.21-.03-1.51-.98-2.19-2.89-2z"/><path d="m11.81 393.87h-5.49c.68-2.18 2.47-3.48 3.51-5.45h-3.08v-1.21h5.29c-.71 2.13-2.44 3.48-3.47 5.51.86 0 1.63.04 2.39-.01.79-.05 1.14.21.85 1.16"/><path d="m39.33 393.86v-6.61h3.7v1.07h-2.22v1.52c.68.04 1.34.09 2.07.13v1.07c-.72.05-1.38.09-2.1.14v1.48h2.4v1.19h-3.85z"/><path d="m27.71 388.56c-1.15-.3-2.46-.61-3.1.64-.37.73-.41 1.93-.06 2.67.63 1.35 1.99.93 3.17.68.35.94-.01 1.32-.93 1.46-1.62.25-3.05-.27-3.76-1.48-.73-1.24-.6-3.03.31-4.17.88-1.11 2.71-1.7 4-1.16.32.13.44.74.65 1.12-.1.08-.19.16-.28.24"/><path d="m49.15 387.24v1.07c-.59.02-1.17.05-1.87.08v5.44h-1.48v-5.44h-1.85c-.05-.4-.08-.73-.13-1.15z"/><path d="m20.06 387.21h1.33v6.62h-1.33z"/><path d="m30.68 393.25c-.49.38-.8.79-1.05.76-.32-.05-.6-.45-.9-.7.26-.24.51-.64.8-.67.29-.04.62.3 1.15.61"/></g><path d="m82.36 169.9c-.13-7.61 1.45-14.9 4.58-21.8.94-2.08 2.52-3.88 3.84-5.79.31-.45.79-.8 1.14-1.22 8.73-10.42 19.31-17.5 33.26-18.57 1.22-.09 2.41-.48 3.61-.72 5.45-1.11 6.43-1.74 5.85-7.16-.5-4.68-1.79-9.44-3.62-13.78-2.81-6.68-6.35-13.06-9.68-19.52-.76-1.47-1.82-2.81-2.88-4.09-6.96-8.43-10.94-18.15-12.22-28.94-.95-8.08 1.68-15.23 6.7-21.5.55-.69 1.87-1.18 2.77-1.1 4.86.42 7.66 3.8 7.17 8.71-.52 5.23-1.46 10.42-1.82 15.65-.14 2.06.28 4.48 1.29 6.26 6.24 10.99 12.66 21.87 19.14 32.72 3.01 5.04 4.36 10.49 4.69 16.25.26 4.58.57 9.16.63 13.75.03 2.5.96 3.69 3.38 4.55 8.09 2.87 16.29 5.57 24.02 9.24 8.55 4.06 15.79 10.17 21.79 17.57 5.86 7.24 6.98 15.59 6.06 24.67-1.08 10.62-5.91 14.29-15.39 16.9-12.23 3.37-22.92-.4-30.84-10.77-2.04-2.67-4.18-5.25-6.23-7.9-4.93-6.34-6.07-13.51-4.7-21.26.34-1.92 1.18-2.98 3.19-3.12 1.96-.14 4.04-1.64 5.54 1.12 3.68 6.75 7.7 13.33 11.23 20.16 3.8 7.34 7.77 9.7 15.87 8.67 4.6-.58 6.29-1.98 7.06-6.56 1.03-6.12-.58-11.83-4.93-16.07-12.33-12.02-27.11-19.25-44.4-20.6-10.31-.8-20.06 1.72-28.94 6.92-8.86 5.18-15.93 22.82-13.51 32.87.21.88.89 1.79 1.6 2.4 3.64 3.1 7.86 4.54 12.68 4.38 5.19-.18 10.4.15 14.89 3.02 7.13 4.56 9.87 11.61 8.07 20.07-2.01 9.43-5.66 17.85-12.55 25.09-7.56 7.94-14.07 16.88-16.38 28.04-.45 2.17-.57 4.44-.62 6.66-.11 5.99 3.84 9.64 9.89 8.57 2.59-.45 5.35-1.85 7.3-3.61 4.57-4.14 7.07-9.71 9.08-15.46 3.26-9.33 7.01-18.39 13.45-26.07 10.2-12.17 22.02-21.62 38.6-23.2 3.59-.34 5.65.89 6.8 4.36.95 2.83-.08 5.34-2.97 6.88-5.13 2.73-10.32 5.34-15.43 8.1-6.71 3.63-12.35 8.36-16.04 15.24-5.93 11.03-12.04 21.95-18.05 32.93-7.33 13.4-17.64 17.6-32.29 13.11-9.4-2.88-16.19-14.17-13.99-24.06 1.45-6.52 3.56-12.91 5.6-19.29.48-1.49 1.7-2.85 2.84-4.02 6.9-7.11 13.17-14.75 17.27-23.77 1.94-4.27 2.5-9.18 3.6-13.82.61-2.59-.93-3.75-3.23-3.98-1.87-.18-3.8-.3-5.65-.04-13.7 1.92-27.29-9.16-28.08-23.02-.1-1.36-.04-2.71-.04-4.05z" fill="#010105"/><path d="m249.21 144.53c0-17.61 0-34.8 0-52.02-5.45-1.71-10.7-.77-15.69.72-12.51 3.76-24.87 8.02-37.34 11.92-3.37 1.06-6.89 1.88-10.39 2.24-3.59.37-4.95-2.42-5.82-5.38-.86-2.94-.35-5.21 2.79-6.5 5.36-2.2 10.5-5.18 16.04-6.66 13.91-3.73 27.95-6.99 42.02-10.1 11.78-2.6 20.71 5.79 22.89 15.16 2.38 10.22 2.96 20.56 1.87 31-.63 6.01-1.07 12.03-1.75 18.03-.24 2.15.76 2.95 2.57 2.93 7.24-.07 14.47-.23 21.71-.36 4.88-.09 9.8-.61 14.64-.2 3.91.33 6.6 3.03 7.98 6.83.61 1.68.45 2.81-1.37 3.78-4.73 2.54-9.67 4.06-15.05 4.06-10.27 0-20.54 0-31.27 0 .58 7.55 1.3 14.17 1.56 20.82.64 16.37 7.15 30.79 14.87 44.74 5.74 10.36 12 20.39 15.24 31.97 3.3 11.81 3.13 23.87 3.67 35.93.89 20.07-.5 40.04-1.97 60.01-.39 5.33-1.1 10.64-1.85 15.94-.2 1.37-.93 2.78-1.77 3.91-1.67 2.25-4.05 2.32-6.66 1.95-2.55-.36-3.11-1.99-3.6-4.09-1.86-8.03-.61-16 .04-24.03.83-10.35 1.47-20.72 1.81-31.09.3-9.17-.39-18.38.16-27.53.95-15.67-3.24-30.18-9.44-44.14-5.99-13.46-12.73-26.6-19.42-39.74-3.53-6.93-5.56-14.06-5.53-21.85.02-5.59-.56-11.18-.4-16.76.11-3.71-1.69-5.14-4.85-5.35-6.35-.41-12.71-.56-19.06-.93-4.44-.26-8.97-.25-13.25-1.26-1.95-.46-4.13-2.76-4.93-4.74-1.34-3.31.69-5.63 4.23-5.94 12.34-1.06 24.7-2.16 37.32-3.27z" fill="#010105"/></svg>