<svg enable-background="new 0 0 400 400" viewBox="0 0 400 400" xmlns="http://www.w3.org/2000/svg"><path d="m224.83 53.19c-1.17 13.63-1.08 27.08 3.15 40.18.7 2.15 2.55 4.16 4.34 5.68 8.84 7.58 17.18 15.71 21 26.93 2.35 6.91 3.2 14.36 4.34 21.63 1.29 8.19 1.11 8.22 9.5 8.22h14.93c.39-3.32.93-6.48 1.09-9.67.2-3.91-.24-7.87.2-11.74.28-2.54 1.06-5.41 2.6-7.36 3.43-4.36 6.93-3.65 8.94 1.43 2.98 7.54 3.37 15.47 3.21 23.44-.4 20.36-1.03 40.71-1.27 61.08-.36 30.3 2.89 60.29 8.17 90.11 3.22 18.18 5.42 36.5 5.77 55.02.06 3.12-.63 4.82-3.76 5.39-1.3.23-2.53.83-3.93 1.31-5.33-9.32-8.41-19.34-9.65-29.82-2.69-22.66-5.08-45.35-7.5-68.04-.24-2.3-.85-3.27-3.39-3.31-6.92-.11-13.84-.56-21.37-.9 0 2.83.04 5.47-.01 8.11-.48 25.4-1 50.8-1.45 76.2-.11 6.04.09 12.09-.09 18.12-.07 2.31-.55 4.68-1.31 6.86-.91 2.64-3.23 3.47-5.91 3.55-2.63.08-4.01-1.48-4.51-3.67-.89-3.89-2.06-7.86-2.04-11.8.12-30.55.5-61.1.79-91.65.01-1.43 0-2.85 0-4.62-6.7-.37-13.02-.72-19.84-1.1-.66 6.26-1.29 12.43-1.98 18.6-2.68 23.89-5.3 47.8-8.11 71.68-.64 5.48-3.62 7.85-8.35 7.78-2.23-.03-3.39-.88-3.96-3.14-1.93-7.68-1.15-15.36-.06-23.01 2.37-16.72 5.5-33.34 7.25-50.12 2.69-25.74 3.55-51.62 1.23-77.43-1.55-17.25-4.4-34.37-6.39-51.59-1.23-10.58-1.22-21.2.23-31.8.4-2.95 1.99-4.49 4.58-4.99 2.6-.51 3.89 1.12 4.96 3.43 3.97 8.48 5.34 17.49 5.89 26.68.98 16.42 1.86 32.84 2.79 49.26.02.43.16.86.31 1.67 6.83.58 13.68 1.17 21.07 1.8.34-4.03.88-7.78.92-11.53.16-17.72-.98-35.38-5.04-52.65-1.81-7.7-5.54-14.74-11.56-20.37-6.36-5.95-13.16-11.69-16.22-20.22-1.26-3.5-2.09-7.32-2.27-11.03-.48-9.83-.58-19.69-.66-29.53-.02-1.97-.68-2.96-2.5-3.19-7.19-.89-14.39-1.73-21.59-2.6-3.76-.45-7.57-.69-11.25-1.5-1.86-.41-3.68-1.64-5.18-2.89-2.56-2.13-3.81-5.69-2.22-8.1 1.35-2.04 5.06-3.74 7.6-3.58 18.53 1.21 37 3.28 55.54 4.31 8.08.45 16.25-1 24.38-1.4 10.2-.5 20.35-.12 30.24 2.88 9.76 2.96 15.33 9.72 17.25 19.49 1.33 6.78.7 13.53-1.23 20.22-1.87 6.48-7 9.43-12.5 11.64-12.38 4.98-25.07 5.94-38.05 2.05-4.24-1.27-2.43-4.73-3.17-7.2-.16-.55 1.57-2.04 2.68-2.54 7.39-3.37 15.27-4.09 23.28-3.93 2.01.04 4.03.11 6.04 0 6.53-.34 9.9-3.64 9.74-10.22-.09-3.63-1.03-7.27-1.89-10.83-.23-.93-1.46-1.87-2.45-2.34-8.73-4.11-18.07-4.87-27.52-4.69-10.62.2-21.24.65-31.86 1-.58.04-1.11.19-1.97.35zm58.93 193.95c-.61-10.78-1.19-21.24-1.78-31.74-7.05 0-13.69 0-20.48 0v31.74zm-2.4-46.59c0-10.86 0-21.28 0-31.62-7.23 0-13.88 0-20.1 0v32.66c7.16-.37 13.71-.71 20.1-1.04zm-53.97 46.8c6.33-.31 11.91-.53 17.46-.94.6-.05 1.63-1.24 1.61-1.87-.42-9.69-.99-19.38-1.53-29.13-6.21 0-12.07 0-17.55 0 .01 10.63.01 21 .01 31.94z" fill="#010103"/><path d="m135.89 205.33c-5.47.32-10.21 1.47-13.82 6.2-2.32 3.04-5.74 5.29-8.81 7.71-3.43 2.7-7.44 3.08-11.73 2.99-9.18-.18-12.37-6.93-15.48-13.66-3-6.48-3.71-13.46-2.08-20.36 2.35-9.88 5.16-19.65 8.04-29.4.55-1.87 2.05-3.65 3.53-5.03 2.86-2.67 6.23-4.8 8.99-7.55 7.3-7.27 15.93-11.63 26.11-13.09 2.07-.3 4.09-1.01 6.46-1.61-2.68-8.4-5.23-16.59-7.96-24.72-.35-1.06-1.62-1.8-2.44-2.72-7.98-8.9-16.15-17.64-23.88-26.75-11.38-13.39-12.3-28.74-7.35-44.87.61-2 2.06-3.8 3.33-5.53 1.64-2.23 3.72-1.6 5.64-.36 3.01 1.94 4.16 4.94 4.13 8.34-.04 4.81-.42 9.62-.44 14.43-.06 13.27 6.05 23.7 15.94 31.81 6.11 5.01 12.25 9.87 16.04 16.88 2 3.69 3.24 7.81 4.65 11.8 2.17 6.11 4.09 12.31 6.34 18.38.46 1.25 1.76 2.54 3 3.08 4.3 1.87 8.68 3.6 13.14 5.04 17.37 5.6 27.67 18.34 34.44 34.39 3.66 8.67 3.75 17.65-.31 26.39-2.98 6.41-11.04 10.77-17.98 9.67-8.41-1.34-15.9-4.42-21.33-11.41-2.19-2.83-4.75-5.39-6.77-8.33-1.49-2.17-2.76-4.66-3.44-7.19-1.8-6.71-.07-9.55 6.99-11.79 3.36 4.66 6.93 9.37 10.23 14.26 3.51 5.21 8.04 8.86 14.07 10.8 1.88.61 2.88.18 3.95-1.25 3.23-4.32 3.62-8.9 1.88-13.95-5.95-17.3-19.21-26.1-35.91-30.59-12.44-3.34-24.46-.92-35.83 4.58-2.45 1.19-4.29 3.84-6.14 6.04-11.13 13.28-15.35 28.32-11.13 45.36.32 1.31 1.44 3.44 2.17 3.44 2.6-.03 5.28 1.94 7.91-1.26 3.79-4.61 8.17-8.87 12.87-12.56 5.82-4.57 12.73-4.56 19.01-1.17 4.99 2.7 7.33 8.05 8.88 13.36 2.31 7.95 1.14 15.74-2.18 23.21-.52 1.17-1.67 2.06-2.53 3.08-6.42 7.6-13.08 15.02-19.19 22.87-4.59 5.89-6.64 12.84-6.2 20.44.16 2.79 1.16 3.91 4.21 4.21 4.3.43 7.44-.54 10.05-4.08 5.91-8 11.82-16.02 18.09-23.73 6.13-7.53 12.19-15.25 19.28-21.81 4.43-4.09 10.49-6.75 16.24-8.99 5.16-2.01 8.22.92 7.8 6.43-.06.8-.97 1.66-1.68 2.27-7.14 6.12-14.41 12.08-21.43 18.34-2.7 2.41-5.1 5.28-7.16 8.27-6.1 8.83-11.91 17.87-17.95 26.75-9.77 14.39-22.86 12.74-35.49 6.51-.71-.35-1.23-1.25-1.66-2-3.89-6.65-5.08-13.72-3.53-21.31 1.66-8.1 4.17-15.39 10.85-21.23 5.4-4.72 9.7-10.81 14.04-16.63 4.23-5.67 5.94-12.21 4.52-19.35-.13-.66-.27-1.32-.46-1.95-.11-.38-.36-.75-.53-1.1z" fill="#010103"/><g fill="#fcfbfa"><path d="m385.2 377.6.6-.7c.6.4 1.3.9 1.9 1.5l-.6.7c-.8-.5-1.4-1-1.9-1.5zm.3 7.1c.6-1.4 1.1-2.9 1.5-4.5.3.1.6.3.9.4-.5 1.4-1 2.9-1.5 4.4zm.2-10.1.6-.6c.7.5 1.3 1.1 1.9 1.6l-.7.7c-.6-.6-1.2-1.2-1.8-1.7zm8.4-.8h.8v.9h1.8v.7h-1.8v1.8h-.8v-.3h-1.2v.9h3.3v2.6h-.8v-.4h-2.5c0 .3 0 .6-.1.8h3.4v.7h-3.5c0 .3-.1.6-.1.8h4v.7h-3.5c.7.9 1.9 1.3 3.6 1.5-.2.2-.4.5-.6.9-1.9-.3-3.2-1.1-3.8-2.3-.5 1.1-1.8 2-3.9 2.4-.2-.3-.4-.5-.6-.8 1.9-.4 3.1-.9 3.6-1.7h-3.2v-.7h3.5c.1-.2.1-.5.2-.8h-3.3v-.7h3.4c0-.2 0-.5 0-.8h-2.4v.3h-.8v-2.6h3.3v-.9h-1.2v.3h-.8v-1.8h-1.8v-.7h1.8v-.9h.8v.9h3.2zm-4.4 5.5h2.4c0-.3 0-.6 0-.9h-2.4zm1.2-3.1h3.2v-.8h-3.2zm4.4 2.2h-2.4v.9h2.5v-.9z"/><path d="m389.2 385.8h.9v1.5h1.9v-1.5h.9v1.5h2.7v6h1.1v.9h-11.3v-.9h1.1v-6h2.7zm.2 8.7.5.8c-1.2.6-2.5 1.3-4 1.9-.2-.3-.3-.6-.6-.8 1.6-.6 3-1.3 4.1-1.9zm-2-4.3h1.9v-2.1h-1.9zm0 3.1h1.9v-2.2h-1.9zm2.7-3.1h1.9v-2.1h-1.9zm0 3.1h1.9v-2.2h-1.9zm2.4 1.3c1.4.6 2.7 1.2 4.1 1.8l-.5.9c-1.5-.7-2.8-1.4-4.1-1.9zm2.2-6.5h-1.9v2.1h1.9zm-1.9 5.2h1.9v-2.2h-1.9z"/></g></svg>