<svg enable-background="new 0 0 400 400" viewBox="0 0 400 400" xmlns="http://www.w3.org/2000/svg"><g fill="#010103"><path d="m91.73 199.05c1.11 5.45 2.04 10.95 3.43 16.32.43 1.65 2.03 4.05 3.27 4.16 1.56.14 3.56-1.45 4.91-2.76 4.87-4.73 9.2-10.08 14.4-14.39 6.14-5.09 13.44-4.88 20.66-2.11.92.35 1.76 1.32 2.3 2.2 8.55 13.86 6.27 34.33-4.31 46.75-5.98 7.02-11.18 14.79-16.02 22.66-3.81 6.19-4.71 13.38-4.54 20.71.08 3.51 1.9 4.65 4.76 4.53 4.44-.18 8.42-2.08 10.96-5.63 7.75-10.82 15.32-21.76 22.67-32.85 5.22-7.88 10.42-15.73 18.39-21.1 3.02-2.03 6.47-3.49 9.86-4.87 1.23-.5 3.78-.56 4.13.08 1.12 1.99 2.02 4.42 1.95 6.65-.05 1.63-1.43 3.6-2.78 4.75-12.29 10.38-21.87 22.88-29.84 36.79-3.5 6.1-7.49 11.95-11.62 17.65-8.43 11.62-20.75 13.31-32.95 10.35-.79-.19-1.59-.83-2.15-1.47-6.77-7.78-9.55-16.59-6.64-26.76 2.75-9.63 6.78-18.75 12.4-27.02 3.12-4.6 7.25-8.5 10.57-12.98 5.15-6.94 7.3-14.76 5.77-23.43-.63-3.59-2.66-4.79-5.93-2.99-2.2 1.21-4.3 2.78-6.09 4.54-3.75 3.68-7.16 7.71-10.91 11.39-6.55 6.41-15.27 5.9-21.07-1.18-7.78-9.5-10.91-20.32-9.16-32.56 1.69-11.78 4.45-23.27 8.86-34.34.41-1.02.81-2.19 1.58-2.89 6.18-5.67 12.48-11.21 18.68-16.86 5.69-5.19 12.99-6.15 20.03-7.8 6.18-1.44 6.19-1.42 4.97-7.67-.28-1.43-.66-2.83-.9-4.26-1.9-11.4-6.62-20.92-16.18-28.16-5.56-4.21-10.15-9.78-14.82-15.05-9.47-10.69-12.16-23.72-11.58-37.49.2-4.8 1.91-9.56 3.06-14.3.57-2.34 2.12-2.4 4.13-1.55 5.16 2.18 6.83 6.54 7.19 11.56.45 6.36.51 12.75.97 19.12.14 1.92.85 3.87 1.66 5.65 5.13 11.25 14.51 18.82 23.31 26.94 3.34 3.09 6.44 6.58 9.01 10.32 1.9 2.76 3.19 6.12 4 9.4 1.81 7.26 3.06 14.66 4.78 21.95.29 1.24 1.54 2.65 2.71 3.22 3.41 1.65 6.95 3.1 10.55 4.29 18.39 6.06 29.07 19.65 35.99 36.84 3.63 9.01 3.62 18.18 1.19 27.64-2.73 10.67-13.33 14.54-21.49 13.26-6.9-1.08-12.19-4.47-16.59-9.78-5.59-6.74-11.58-13.18-12.18-22.57-.07-1.12-.18-2.24-.15-3.35.11-4.95 1.24-6.07 6.17-5.67.85.07 1.85 1.05 2.37 1.87 3.29 5.2 6.41 10.5 9.69 15.71 3.26 5.17 7.87 8.43 13.95 9.61 2.06.4 3.39-.14 4.46-1.92 2.48-4.13 2.96-8.5 1.2-12.89-2.62-6.53-5.02-13.26-8.59-19.25-2.25-3.77-6.25-6.66-9.87-9.4-8.39-6.36-17.49-11.38-28.35-11.78-6.16-.23-12.2.44-17.94 3.21-16.88 8.14-23.13 23.31-26.86 40.16-.62 2.82-.65 5.77-.96 8.66-.15.04-.31.09-.47.14z"/><path d="m233.34 153.15c2.69.76 4.58 1.41 6.51 1.83 13.96 3.02 25.67 10.8 37.59 18.03 5.32 3.23 8.73 8.27 10.23 14.44 1.09 4.48-2.54 8.37-7.02 7.12-2.26-.63-4.6-1.88-6.29-3.5-13.92-13.26-27.59-20.46-44.15-22.83-1.38 9.83-2.76 19.66-4.19 29.83 5.46 1.23 10.72 2.68 16.08 3.57 6.03 1 11.21 3.56 15.97 7.26 6.91 5.37 13.97 10.69 18.54 18.27 2.37 3.93 3.86 8.51 5.06 12.98 1.05 3.93-3.22 7.58-7.03 6.06-2.33-.93-4.67-2.72-6.17-4.74-5.76-7.76-11.42-15.71-20.21-20.25-6.68-3.45-13.86-5.95-21.57-9.19.64 8.78 1.19 16.35 1.74 23.92.62 8.6 1.37 17.18 1.79 25.79.15 2.97-.33 6.02-.9 8.97-.51 2.62-2.12 4.35-5.15 4.29-2.81-.05-4.27-1.1-5.12-4.04-7.4-25.61-8.72-51.77-7.21-78.17 1.07-18.69 4.3-37.08 13.46-53.59 7.15-12.9 18.04-22.2 33.06-25.11 8.11-1.57 15.77 1.31 23.04 4.48 17.16 7.49 26 21.7 29.94 39.23 5.51 24.52 7.18 49.3 4.23 74.37-1.22 10.39-6.39 19.21-10.11 28.62-.3.77-1.15 1.34-1.81 1.94-7.55 6.84-15.04 13.75-22.69 20.48-8.92 7.85-14.29 17.56-14.81 29.42-.22 5.17 1.07 10.42 1.83 15.61 1.84 12.62 3.8 25.22 5.65 37.83.91 6.2-1.73 9.66-7.09 9.65-2.4-.01-3.9-.91-4.94-3.16-4.33-9.34-6.37-19.29-7.9-29.37-.81-5.3-1.28-10.66-1.91-15.99-1.23-10.45 1.21-20.3 3.9-30.34 2.37-8.83 6.64-15.66 13.47-21.59 8.62-7.47 16.66-15.61 24.86-23.56 1.23-1.2 2.29-2.77 2.93-4.36 6.63-16.52 7.57-33.71 5.69-51.17-1.77-16.38-4.76-32.53-10.7-47.98-.89-2.32-2.32-4.54-3.9-6.47-1.9-2.33-4.26-4.27-6.38-6.43-6.35-6.49-13.71-7.98-22.69-6.4-14.13 2.48-19.02 13.58-25.63 24.25z"/><path d="m255.29 37.77c12.75.08 25.04 2.75 37 7.04 12.43 4.46 16.66 12.93 14.85 25.98-1.55 11.22-9.07 16.35-17.93 20.58-9.47 4.53-19.57 5.85-30.04 5.19-13.87-.89-27.58-2.66-40.97-6.46-2.13-.6-4-2.15-5.96-3.31-.37-.22-.62-.64-.93-.96-11.53-12.22-11.84-18.81-3.68-34.35 1.75-3.34 6.29-5.58 9.99-7.47 8.72-4.46 18.41-5.2 27.96-6.18 3.21-.34 6.48-.06 9.71-.06zm1.39 13.87c-.01.08-.02.15-.03.23-1.12 0-2.24.02-3.35 0-11.83-.29-23.14 1.8-33.64 7.49-.86.47-1.88.98-2.34 1.76-3.52 6-1.15 12.97 5.26 15.48 14.95 5.84 30.53 6.4 46.26 5.09 7.53-.63 14.7-2.72 21.13-6.93 1.81-1.19 2.75-2.56 2.74-4.91-.02-8.59-4.77-14.55-13.7-15.9-7.4-1.1-14.89-1.56-22.33-2.31z"/></g><path d="m385.2 377.6.6-.7c.6.4 1.3.9 1.9 1.5l-.6.7c-.8-.5-1.4-1-1.9-1.5zm.3 7.1c.6-1.4 1.1-2.9 1.5-4.5.3.1.6.3.9.4-.5 1.4-1 2.9-1.5 4.4zm.2-10.1.6-.6c.7.5 1.3 1.1 1.9 1.6l-.7.7c-.6-.6-1.2-1.2-1.8-1.7zm8.4-.8h.8v.9h1.8v.7h-1.8v1.8h-.8v-.3h-1.2v.9h3.3v2.6h-.8v-.4h-2.5c0 .3 0 .6-.1.8h3.4v.7h-3.5c0 .3-.1.6-.1.8h4v.7h-3.5c.7.9 1.9 1.3 3.6 1.5-.2.2-.4.5-.6.9-1.9-.3-3.2-1.1-3.8-2.3-.5 1.1-1.8 2-3.9 2.4-.2-.3-.4-.5-.6-.8 1.9-.4 3.1-.9 3.6-1.7h-3.2v-.7h3.5c.1-.2.1-.5.2-.8h-3.3v-.7h3.4c0-.2 0-.5 0-.8h-2.4v.3h-.8v-2.6h3.3v-.9h-1.2v.3h-.8v-1.8h-1.8v-.7h1.8v-.9h.8v.9h3.2zm-4.4 5.5h2.4c0-.3 0-.6 0-.9h-2.4zm1.2-3.1h3.2v-.8h-3.2zm4.4 2.2h-2.4v.9h2.5v-.9z" fill="#fcfbfa"/><path d="m389.2 385.8h.9v1.5h1.9v-1.5h.9v1.5h2.7v6h1.1v.9h-11.3v-.9h1.1v-6h2.7zm.2 8.7.5.8c-1.2.6-2.5 1.3-4 1.9-.2-.3-.3-.6-.6-.8 1.6-.6 3-1.3 4.1-1.9zm-2-4.3h1.9v-2.1h-1.9zm0 3.1h1.9v-2.2h-1.9zm2.7-3.1h1.9v-2.1h-1.9zm0 3.1h1.9v-2.2h-1.9zm2.4 1.3c1.4.6 2.7 1.2 4.1 1.8l-.5.9c-1.5-.7-2.8-1.4-4.1-1.9zm2.2-6.5h-1.9v2.1h1.9zm-1.9 5.2h1.9v-2.2h-1.9z" fill="#fcfbfa"/></svg>