<svg enable-background="new 0 0 400 400" viewBox="0 0 400 400" xmlns="http://www.w3.org/2000/svg"><g fill="#fbfafa"><path d="m37.59 393.81c-.92.31-1.52.05-2-.78-.7-1.2-1.52-2.34-2.47-3.78v4.59c-.55.03-.95.05-1.41.07-.03-.37-.06-.64-.06-.91 0-1.91 0-3.81 0-5.7 1.13-.41 1.77-.03 2.29.91.62 1.11 1.38 2.14 2.31 3.19v-4.2h1.35v6.61z"/><path d="m12.94 393.88v-6.75c1.9.19 3.93-.54 5.37 1.29.8 1.01.78 2.88.03 3.97-1.37 1.97-3.4 1.51-5.4 1.49m1.45-1.22c2.04.12 2.92-.58 2.89-2.21-.03-1.51-.98-2.19-2.89-2z"/><path d="m11.81 393.87h-5.49c.68-2.18 2.47-3.48 3.51-5.45h-3.08v-1.21h5.29c-.71 2.13-2.44 3.48-3.47 5.51.86 0 1.63.04 2.39-.01.79-.05 1.14.21.85 1.16"/><path d="m39.33 393.86v-6.61h3.7v1.07h-2.22v1.52c.68.04 1.34.09 2.07.13v1.07c-.72.05-1.38.09-2.1.14v1.48h2.4v1.19h-3.85z"/><path d="m27.71 388.56c-1.15-.3-2.46-.61-3.1.64-.37.73-.41 1.93-.06 2.67.63 1.35 1.99.93 3.17.68.35.94-.01 1.32-.93 1.46-1.62.25-3.05-.27-3.76-1.48-.73-1.24-.6-3.03.31-4.17.88-1.11 2.71-1.7 4-1.16.32.13.44.74.65 1.12-.1.08-.19.16-.28.24"/><path d="m49.15 387.24v1.07c-.59.02-1.17.05-1.87.08v5.44h-1.48v-5.44h-1.85c-.05-.4-.08-.73-.13-1.15z"/><path d="m20.06 387.21h1.33v6.62h-1.33z"/><path d="m30.68 393.25c-.49.38-.8.79-1.05.76-.32-.05-.6-.45-.9-.7.26-.24.51-.64.8-.67.29-.04.62.3 1.15.61"/></g><path d="m235.37 179.78c7.04-6.27 15.01-6.92 23.55-5.89 4.73.57 9.57.31 14.36.27 2.87-.02 4.31-1.32 4.33-4.55.06-7.94.51-15.88.79-23.82.15-4.29 2.38-7.36 6.56-8.63 2.77-.84 5.68-1.24 8.43-2.14 14.85-4.82 20.68-17.06 14.79-31.5-1.12-2.76-3.04-5.52-5.32-7.42-8.8-7.33-18.73-12.56-30.23-14.31-1.51-.23-3.05-.27-4.28-.38 0 6.14-.47 12.08.09 17.92 1.41 14.79-5.43 25.24-17.05 32.99-12.25 8.16-25.63 12.49-40.65 10.31-3.68-.53-4.28-3.09-4.39-5.68-.11-2.52 0-5.08 3.67-6.13 8.69-2.48 17.27-5.38 25.78-8.45 14.06-5.08 22.27-19.2 18.61-33.76-2.49-9.89-6.84-19.3-10.33-28.94-1.21-3.35-2.55-6.67-3.44-10.11-.89-3.45 1.17-8.69 3.36-9.61 1.99-.84 6.69 1.67 8.57 4.88 1 1.71 1.55 3.69 2.22 5.58.38 1.05.57 2.16.88 3.23 1.8 6.19 5.11 10.34 12.09 11.65 7.77 1.46 15.57 3.45 22.9 6.37 16.35 6.51 29.21 17.12 34.27 34.73 4.25 14.8-4.84 32.46-19.02 38.28-4.13 1.7-8.42 3.01-12.53 4.75-1 .42-2.22 1.75-2.3 2.74-.52 6.79-.77 13.6-1.14 21.22 6.66.26 13.1.48 19.53.78 2.67.12 5.4.11 7.97.71 1.75.41 3.57 1.47 4.85 2.76 4.24 4.26 3.51 7.32-1.98 9.62-5.63 2.37-11.54 2.32-17.49 2.3-3.56-.01-7.14.23-10.68.67-.81.1-2.1 1.44-2.11 2.22-.14 11.07-.09 22.14-.09 33.9 6.26.27 12.36.57 18.46.78 2.79.09 5.6-.15 8.39 0 7 .39 10.89 4.19 11.86 12.08-4.93 1.24-9.9 2.98-15.01 3.7-22.37 3.15-44.78 4-67.12-.27-8.27-1.58-8.79-2.5-7.59-10.87.11-.78 1.17-1.72 2-2.06 5.11-2.08 10.37-3.23 16-2.95 6.36.31 12.75.07 19.55.07.15-3.24.36-6.32.42-9.39.16-8.06.18-16.12.41-24.17.06-1.99-.51-2.93-2.5-3.04-5.23-.3-10.48-1.14-15.67-.85-7.82.43-15.36-.27-23.24-3.24-.52 5.22-1.26 10.07-1.45 14.95-.62 16.35-.18 32.64 2.32 48.87.91 5.87 3.56 10.09 8.9 12.3 7.4 3.05 14.92 5.86 22.48 8.5 6.01 2.1 12.17 3.73 18.24 5.65 10.87 3.44 18.1 11.23 23.85 20.56 7.74 12.57 10.64 26.7 12.49 41.07 1.39 10.81 1.18 21.61-.56 32.43-.72 4.49-5.6 6.33-9.53 4.19-.76-.42-1.29-1.78-1.42-2.77-1.79-13.51-3.77-27-5.14-40.55-1.32-13.14-5.73-24.95-14.71-34.54-5.8-6.2-13.72-9.6-21.89-11.84-5.37-1.47-10.9-2.49-16.42-3.25-14.47-1.97-30.88-14-33.14-33.85-1.08-9.49.63-18.73.91-28.09.37-12.5-.09-25.04-.34-37.55-.06-2.81-1.2-5.34-4.39-5.99-2.92-.6-5.28-.07-7.22 2.75-3.1 4.52-5.57 9.28-6.12 14.7-1.38 13.57-2.81 27.15-3.59 40.77-1.03 17.93.99 35.76 3.03 53.55 1.28 11.21 2.66 22.41 3.81 33.63.23 2.28-.06 4.73-.67 6.95-1.14 4.17-4.96 6.36-9.11 5.31-.83-.21-1.8-1.55-1.97-2.5-1.46-8.24-3.05-16.48-4.04-24.78-2.01-16.87-3.92-33.77-5.43-50.69-2.33-26.09-1.13-51.86 8.36-76.7 4.92-12.86 17.24-19.59 30.71-16.51 1.31.3 2.79 1.4 3.47 2.55 2.79 4.59 5.24 9.37 8.04 14.53z" fill="#010105"/><path d="m85.58 215.75c4.72-7.08 9.79-14.06 14.16-21.45 3.79-6.41 9.06-8.78 16.03-7.46 4.14.78 8.16 2.25 12.21 3.48.61.18 1.21.62 1.64 1.11 6.61 7.55 10.14 16 7.53 26.21-2.28 8.96-5.91 17.33-10.91 25.1-.77 1.2-1.85 2.22-2.85 3.27-6.07 6.42-12.19 12.79-18.24 19.23-7.71 8.21-9.46 17.96-7.25 28.68.78 3.77 2.64 5.64 6.54 5.95 5.77.45 10.65-1.77 14.07-6.31 7.51-9.98 12.94-21.14 17.66-32.65 3.11-7.6 6.59-14.94 12.9-20.53 5.07-4.49 10.93-7.31 17.57-8.5 3.8-.68 7.14 3.42 5.73 7.07-.43 1.12-1.17 2.14-1.91 3.1-.67.88-1.51 1.65-2.31 2.43-11.55 11.14-21.91 22.97-27.65 38.47-2.44 6.59-6.91 12.5-10.88 18.44-7.48 11.19-18.4 15.14-31.53 12.13-3.81-.87-6.51-2.75-8.98-5.76-9.43-11.5-8.49-24.09-4.6-37.18 1.26-4.23 3.78-7.29 6.87-10.37 8.06-8.05 16.05-16.24 23.42-24.92 6.53-7.69 9.07-17.05 8.37-27.22-.15-2.15-.86-3.46-3.13-4-2.36-.57-4.62-1.58-7.14-2.47-4.92 6.93-9.72 13.79-14.62 20.58-5.14 7.11-11.32 9.34-19.62 6.95-1.35-.39-2.86-1.42-3.59-2.59-13.64-21.89-13.5-44.25-1.1-66.4 2.47-4.41 7.7-7.34 11.81-10.77 6.61-5.52 14.09-9.47 22.49-11.48 2.58-.62 4.07-2.02 3.85-4.6-.5-5.86-.77-11.8-2.01-17.52-1.37-6.31-3.69-12.41-5.67-18.58-1.83-5.71-4.92-10.48-9.06-14.99-9.19-10.01-17.58-20.86-19.86-34.73-.94-5.71-.18-11.78.41-17.62.38-3.84 3.89-5.25 7.34-3.51 3.2 1.61 5.03 4.35 5.89 7.74 1.13 4.44 2.45 8.85 3.21 13.36 1.29 7.62 4.68 14.13 9.34 20.15 3.83 4.95 7.54 10 11.19 15.09 7.55 10.54 11.51 22.35 12.46 35.26.34 4.68 1.14 9.33 1.5 14.01.2 2.59 1.38 3.52 3.86 3.89 5.3.78 10.56 1.9 15.83 2.88 10.42 1.94 17.57 8.78 23.37 16.81 10.05 13.94 11.45 29.47 6.41 45.7-1.02 3.28-7.4 7.03-11.59 6.68-8.25-.7-15.82-3.06-21.1-10.04-3.17-4.19-6.44-8.31-9.31-12.7-4.21-6.47-4.82-13.49-2.62-20.91.75-2.51 2.57-2.42 4.34-2.81 1.71-.38 3.26-.41 4.26 1.53 3.01 5.83 6.55 11.43 9.07 17.47 3 7.19 7.98 11.64 15.5 14.01 2.44-3.53 3.13-7.4 2.21-11.42-3.79-16.62-13.58-27.79-30.12-32.72-5.49-1.64-10.94-.66-16.2.81-8.05 2.25-15.98 4.95-23.94 7.53-.91.3-1.86.86-2.5 1.57-6.85 7.69-11.91 16.3-12.45 26.85-.41 8.04-.24 16.1-.5 24.14-.06 2.58.91 3.95 4.2 4.53z" fill="#010105"/><path d="m212.21 87.87c-.43 14-5.9 26.21-13.73 37.5-2.74 3.94-5.93 7.56-8.85 11.38-2.91 3.81-6.59 6.33-11.36 7.07-3.94.62-6.97-2.34-5.64-6.09 1.32-3.69 3.09-7.52 5.66-10.41 7.56-8.5 14.3-17.42 18.37-28.16 4.09-10.81 1.58-23.2-8.79-32.31-5.37-4.72-10.7-9.5-15.89-14.43-3.04-2.88-5.42-6.31-5.62-10.73-.21-4.72 1.51-6.07 6-4.75 1.7.5 3.51 1 4.94 1.98 11.59 7.96 22.33 16.82 29.66 29.11 3.63 6.09 5.43 12.7 5.25 19.84z" fill="#010105"/></svg>