<svg enable-background="new 0 0 400 400" viewBox="0 0 400 400" xmlns="http://www.w3.org/2000/svg"><g fill="#fbfafa"><path d="m37.59 393.81c-.92.31-1.52.05-2-.78-.7-1.2-1.52-2.34-2.47-3.78v4.59c-.55.03-.95.05-1.41.07-.03-.37-.06-.64-.06-.91 0-1.91 0-3.81 0-5.7 1.13-.41 1.77-.03 2.29.91.62 1.11 1.38 2.14 2.31 3.19v-4.2h1.35v6.61z"/><path d="m12.94 393.88v-6.75c1.9.19 3.93-.54 5.37 1.29.8 1.01.78 2.88.03 3.97-1.37 1.97-3.4 1.51-5.4 1.49m1.45-1.22c2.04.12 2.92-.58 2.89-2.21-.03-1.51-.98-2.19-2.89-2z"/><path d="m11.81 393.87h-5.49c.68-2.18 2.47-3.48 3.51-5.45h-3.08v-1.21h5.29c-.71 2.13-2.44 3.48-3.47 5.51.86 0 1.63.04 2.39-.01.79-.05 1.14.21.85 1.16"/><path d="m39.33 393.86v-6.61h3.7v1.07h-2.22v1.52c.68.04 1.34.09 2.07.13v1.07c-.72.05-1.38.09-2.1.14v1.48h2.4v1.19h-3.85z"/><path d="m27.71 388.56c-1.15-.3-2.46-.61-3.1.64-.37.73-.41 1.93-.06 2.67.63 1.35 1.99.93 3.17.68.35.94-.01 1.32-.93 1.46-1.62.25-3.05-.27-3.76-1.48-.73-1.24-.6-3.03.31-4.17.88-1.11 2.71-1.7 4-1.16.32.13.44.74.65 1.12-.1.08-.19.16-.28.24"/><path d="m49.15 387.24v1.07c-.59.02-1.17.05-1.87.08v5.44h-1.48v-5.44h-1.85c-.05-.4-.08-.73-.13-1.15z"/><path d="m20.06 387.21h1.33v6.62h-1.33z"/><path d="m30.68 393.25c-.49.38-.8.79-1.05.76-.32-.05-.6-.45-.9-.7.26-.24.51-.64.8-.67.29-.04.62.3 1.15.61"/></g><path d="m248.31 181.28c0-7.4-.17-15.11.04-22.8.28-9.82.51-19.68 1.49-29.44.42-4.2 2.26-8.44 4.22-12.27 2.23-4.35 6.32-7 11.16-7.87 6.69-1.2 13.44-2.05 20.18-3.02 1.2-.17 2.41-.23 3.91-.37-2.49-7.45-4.86-14.66-7.36-21.82-.34-.97-1.22-1.84-2.03-2.54-8.18-7.07-17.86-7.78-28.11-7.09-7.22.49-11.33 4.36-14.94 10.1-6.48 10.27-8.1 21.61-8.7 33.34-.76 14.74-1.69 29.47-2.59 44.2-.26 4.28-3.31 7.31-6.97 7.06-2.54-.17-4.2-1.01-4.83-3.99-2.83-13.32-2.63-26.69-1.06-40.09 1.9-16.15 5.22-31.96 11.39-47.12 2.01-4.94 5.04-8.59 9.69-11 7.58-3.94 15.23-7.63 24.16-6.7 5.33.56 10.74.74 15.97 1.78 11.36 2.25 17.37 10.66 22.08 20.3 5.38 11.01 7.75 22.81 9.08 34.88 1.72 15.62 2.5 31.23-.28 46.83-.85 4.76-5.74 6.99-9.64 4.17-.76-.55-1.01-2.1-1.12-3.23-1.24-13.93-2.41-27.87-3.62-41.81-.1-1.2-.37-2.39-.59-3.77-7.27.9-14.37 1.68-21.42 2.74-.96.14-2.05 1.54-2.49 2.6-3.04 7.36-3.82 15.18-3.97 23.02-.19 10.07.06 20.15-.04 30.22-.02 2.19.82 2.95 2.79 3.29 7.38 1.25 14.73 2.68 22.12 3.86 13.35 2.13 21.31 10.03 24.64 22.84 3.24 12.44 2.95 25.03 1.16 37.65-.28 1.98-.47 4.01-.42 6 1.08 39.38 2.17 78.76 3.37 118.14.08 2.68-.86 4.25-3.12 5.24-2.82 1.23-5.15.32-6.55-2.41-2.67-5.21-3.26-10.82-3.66-16.56-.89-12.59-1.89-25.18-3.11-37.75-2.14-22.09-3.18-44.15-1.74-66.36.88-13.6.58-27.32.04-40.95-.11-2.83-3.16-6.06-5.65-8.17-6.04-5.14-13.58-6.53-21.28-6.98-14.62-.85-28.99.51-43.19 4.3-6.12 1.63-9.24 5.57-10.54 11.23-.82 3.56-1.37 7.29-1.35 10.93.14 26.53.7 53.06.61 79.58-.04 11.28-1.32 22.55-2.06 33.83-.62 9.48-1.1 18.98-2.02 28.44-.27 2.77-1.35 5.81-3.01 7.99-1.17 1.53-3.89 2.2-6.04 2.6-2.57.48-2.86-2.08-3.49-3.73-2.37-6.25-2.48-12.79-1.35-19.21 3.79-21.53 3-43.26 3.35-64.95.41-25.52.76-51.03 1.25-76.55.03-1.68 1.05-3.34 1.55-5.02 3.76-12.49 13.88-17.49 25.14-20.64 5.73-1.59 11.84-1.88 18.95-2.95z" fill="#010105"/><path d="m182.17 237.22c.76 2.43 1.69 4.61 2.02 6.89.15 1-.66 2.49-1.49 3.23-7.13 6.3-14.39 12.44-21.55 18.71-1.23 1.08-2.36 2.39-3.18 3.81-6.05 10.45-12 20.96-17.99 31.44-.89 1.55-1.78 3.11-2.78 4.59-5.53 8.16-13.03 10.74-22.73 8.76-13.81-2.81-18.47-13.67-18.69-23.95-.18-8.06 2.06-15.62 6.46-22.22 2.49-3.74 6.54-6.41 9.53-9.87 4.38-5.07 8.8-10.18 12.55-15.71 5.23-7.71 6.11-16.3 2.42-26.1-.55.97-.9 2.14-1.67 2.87-3.34 3.14-6.74 6.22-10.22 9.18-6.64 5.64-14.15 5.63-21.3 1.8-3.19-1.71-5.64-5.32-7.7-8.53-8.48-13.23-8.8-27.57-5.07-42.33.41-1.62.95-3.21 1.43-4.82 4.91-16.49 17.77-24.76 32.41-31.05 4.08-1.75 8.45-2.81 13.05-4.3-1.64-4.49-3.46-8.68-4.7-13.03-3.52-12.35-9.6-22.85-18.81-32.11-9.93-9.98-17.77-21.84-19.33-36.4-.86-8.06-.67-16.27-.38-24.39.11-2.94 1.89-5.82 2.88-8.67 5.81 1.4 8.98 5.65 9.82 12.98.8 6.99 1.02 14.07 2.13 21.01 1.38 8.61 4.64 16.35 11.07 22.79 7.09 7.11 13.61 14.81 20.21 22.4 5.82 6.69 6.19 15.38 8.15 23.47 1.02 4.21.85 9.46 3.37 12.35 2.44 2.78 7.62 3.23 11.66 4.52 19.34 6.19 31.83 19.38 38.53 38.17 3.46 9.7 3.28 20.1-2.12 28.61-7.62 12-17.47 16.83-29.14 5.64-4.73-4.53-8.67-9.94-12.61-15.22-3.3-4.42-4.49-9.63-4.27-15.21.12-3.26 1.02-5.36 4.65-5.51 1.2-.05 2.39-.43 3.78-.7 2.89 5.66 5.69 11.24 8.58 16.77 2.52 4.82 5.49 9.21 10.89 11.35 2.38.94 3.85.51 5.33-1.63 3.44-4.97 3.91-10.35 2.81-16.04-1.99-10.35-7.06-18.63-15.9-24.66-10.43-7.11-21.21-12.94-34.39-12.23-5.56.3-10.87 1.32-15.4 4.86-.61.48-1.28.93-1.99 1.25-7.92 3.59-12.58 9.92-15.6 17.86-3.33 8.77-4.95 17.65-2.89 26.94.68 3.05 1.55 6.07 2.61 9 .4 1.12 1.4 2.31 2.44 2.86 5.67 3.02 5.53 2.77 10.19-1.66 4.34-4.12 8.78-8.33 13.85-11.4 2.74-1.66 6.88-1.23 10.39-1.26 1.1-.01 2.43 1.39 3.28 2.45 7.07 8.81 8.05 18.91 5.83 29.55-.73 3.48-1.55 7.05-3.06 10.24-1.73 3.66-3.95 7.2-6.51 10.32-5.39 6.57-11.34 12.68-16.69 19.28-4.24 5.24-6.42 11.46-6.56 18.31-.09 4.46 1.5 6.91 5.94 7.82 4.73.96 9.02.08 12.35-3.97 6.3-7.67 11.15-16.13 15.06-25.25 6.65-15.51 18.75-25.57 33.71-32.53 1.56-.75 3.41-.88 5.34-1.33z" fill="#010105"/><path d="m248.07 247.59h21.45c0-6.31-.03-12.76.01-19.21.02-2.67-.25-5.46.44-7.97.54-1.95 2.04-4.04 3.71-5.2 3.03-2.1 5.45-1.27 6.83 2.11 1.17 2.87 2.36 5.89 2.64 8.93 1.23 13.13 2.36 26.27 3.08 39.44.59 10.79-.83 21.37-4.22 31.73-2.55 7.79-7.86 11.97-15.46 13.63-6.97 1.53-13.76.58-20.4-1.99-3.56-1.38-5.79-3.82-7.43-7.22-3.86-8.01-5.52-16.54-6.08-25.27-1.19-18.7-1-37.35 3.47-55.71.16-.65.4-1.28.53-1.94.51-2.6 1.89-5.33 4.45-5.02 2.3.28 5.19 2.12 6.3 4.12 1.28 2.31 1.24 5.56 1.18 8.38-.13 6.66-.62 13.32-.95 19.98 0 .22.16.42.45 1.21zm-.59 15.42c0 7.98-.26 15.23.13 22.43.15 2.89 1.57 5.76 2.69 8.54.99 2.48 2.74 3.82 5.77 3.26 2.39-.44 4.91-.43 7.35-.3 2.35.12 3.53-.93 4.08-3.04 1.04-3.99 2.37-7.93 3.06-11.98.89-5.26 1.39-10.6 1.82-15.93.23-2.95-.98-4.92-4.48-4.61-6.96.61-13.92 1.12-20.42 1.63z" fill="#010105"/></svg>