<svg enable-background="new 0 0 400 400" viewBox="0 0 400 400" xmlns="http://www.w3.org/2000/svg"><path d="m262.43 335.41c7.38 7.05 15.01 13.97 22.18 21.33 3.7 3.81 6.86 8.23 9.76 12.7 2 3.07 1.31 4.42-2.36 5.1-2.29.42-5.04.34-7.11-.59-3-1.34-5.84-3.35-8.26-5.6-7.64-7.07-15.12-14.31-22.5-21.65-2.18-2.17-4.07-4.74-5.6-7.4-4.01-6.98-7.85-14.05-11.51-21.22-1.11-2.17-2.52-3.09-4.8-3.41-4.65-.65-9.27-1.52-13.9-2.25-14.78-2.34-25.45-12.89-26.86-26.8-.66-6.54 1.26-12.62 4.07-18.43.45-.93 1.42-1.76 2.35-2.29 5.53-3.14 11.06-6.27 16.7-9.21 3.43-1.79 6.33-3.9 6.97-7.98.84-5.43.79-7.09-3.9-9.74-2.98-1.69-5.61-4.05-8.22-6.33-4.81-4.2-6.2-9.6-5.22-15.8 1.79-11.3 1.86-11.08 12.17-15.69 7.57-3.38 15.27-5.58 23.59-5.33 2.42.07 3.99-.62 3.39-4.11-6.13-.98-12.49-1.99-18.85-3.01-20.95-3.36-32.4-17.59-30.89-38.78.34-4.76 1.48-9.48 2.51-14.16 2.07-9.41 9.63-13.16 17.49-16.42 8.47-3.52 17.53-4.32 26.53-5.32.88-.1 1.75-.23 2.91-.38.23-2.48.46-4.89.76-8.14-6.41-.75-12.6-1.23-18.71-2.25-5.36-.9-10.82-1.85-15.86-3.77-6.65-2.53-10.76-8.08-12.65-14.79-3.63-12.93-3.09-25.88 1.22-38.61.28-.84 1.59-1.79 2.48-1.85 1.7-.12 4.13-1.03 4.76 1.65 1.14 4.84 2.33 9.71 2.92 14.63.64 5.29.23 10.71.96 15.98 1 7.22 6 11.25 12.79 12.4 6.36 1.08 12.89 1.14 19.34 1.69 2.12.18 2.23-1.19 2.5-2.71 1.78-10.16 1.13-20.27-.34-30.39-1.6-11.06-.33-21.62 5.69-31.26 5.84.43 8.68 2.86 8.78 8.49.21 11.18.03 22.36.01 33.54-.01 5.6 0 11.19 0 16.79 0 4.32.77 5.46 5.15 5.32 5.23-.17 10.5-.61 15.63-1.61 9.06-1.76 12.11-5.14 13.36-14.41.62-4.63.52-9.36.88-14.03.21-2.66.46-5.36 1.12-7.93 1.21-4.67 4.47-7.26 9.34-8.18 4.87 7.72 6.3 16.02 4.55 24.78-1.14 5.68-3.08 11.2-4.27 16.88-1.7 8.09-7.31 12.33-14.38 14.95-7.57 2.8-15.42 4.59-23.59 4.43-1.89-.04-3.78-.01-5.95-.01-.56 2.61-1.08 5.06-1.65 7.75 7.97 1.21 15.58 2.35 23.19 3.52 14.5 2.22 25.57 12.51 28.92 26.71 2.55 10.8 1.04 21.07-4.97 30.23-4.5 6.86-11.67 10.74-19.47 12.86-7.42 2.02-15.05 3.29-22.56 4.98-1.93.43-4.33.41-4.91 3.44 7.3 1.53 14.49 2.96 21.64 4.58 4.79 1.08 9.6 2.18 14.26 3.72 7.24 2.38 10.2 7.07 10.24 14.68.05 10.3-6.3 16.18-14.2 21.01-1.32.81-2.86 1.25-4.32 1.82-2.39.94-4.48 2.08-4.51 5.13-.03 3.06.62 5.41 3.78 7.03 6.56 3.37 12.87 7.21 19.29 10.85 7.98 4.53 11.48 11.74 11.48 20.55 0 4.18-1.03 8.43-2.03 12.53-2.2 9-9.61 11.87-17.43 13.55-5.99 1.29-12.19 1.58-18.27 2.47-1.03.15-2.32.89-2.83 1.75-4.29 7.22-8.43 14.49-12.78 22.02zm-25.02-94.25c.14 1.87.26 3.3.36 4.74.64 8.86-2.33 14.13-10.3 18.11-3.99 2-7.86 4.48-12.08 5.75-6 1.81-8.34 5.71-9.28 11.49-.7 4.35-.19 8.17 3.08 11.06 5.02 4.44 11.07 7.15 17.64 8.28 3.68.63 5.32-1.61 4.51-5.26-.27-1.2-.66-2.38-.85-3.58-1.75-10.93 1.07-20.73 7.15-29.76 8.2 3.48 7.93 3.47 7.67 11.77-.24 7.9-.36 15.88.4 23.73.78 7.98 3.45 15.57 7.76 22.61.52-.38.83-.52 1.02-.76 7.7-9.3 11.52-19.38 7.67-31.65-2.61-8.31-2.01-16.7 1.68-24.76 7.86 2.41 11.86 7.54 12.74 15.4.67 5.97 1.71 11.89 2.7 18.67 5.41-.65 10.66-.88 15.69-2.03 3.35-.77 6.08-2.9 6.54-7.12.86-8-1.5-12.15-8.75-15.84-6.34-3.23-12.52-6.83-18.52-10.67-1.75-1.12-3-3.46-3.81-5.51-1.61-4.03-2.69-8.28-4.18-12.37-.34-.92-1.47-2.18-2.26-2.2-8.71-.16-17.42-.1-26.58-.1zm6.28-83.81c-3.58-.3-6.05-.33-8.46-.75-5.35-.93-10.67-2.03-15.99-3.13-1.86-.39-2.05-1.59-1.53-3.3 1.32-4.33 4.26-6.67 9.16-6.93 3.34-.17 6.71-.13 10.04-.43 7.42-.67 7.42-.74 7.38-8.18-.03-5.27-1.07-6.43-6.39-6.88-9.23-.79-17.58 2.03-25.58 6.32-2.91 1.56-4.51 3.73-4.54 7.15-.03 4.12-.7 8.27-.44 12.36.51 8.21 3.76 14.75 11.99 18.08 6.99 2.83 13.97 5.46 21.68 4.43.97-.13 2.53-1.31 2.56-2.06.22-5.44.12-10.89.12-16.68zm14.56 19.1c1.72 0 2.82.03 3.91 0 11.01-.3 20.71-3.99 29.2-11.04 2.56-2.13 4.16-4.43 4.14-7.91-.01-2.43.57-4.88.91-7.31 1.07-7.61-3.02-15.43-10.13-18.32-8.17-3.32-16.83-4.36-25.61-4.34-.74 0-2.15 1.14-2.12 1.68.24 3.88.59 7.77 1.29 11.58.37 2.02 1.98 2.89 4.24 3.01 6.1.31 12.19.82 18.26 1.51.94.11 2.22 1.41 2.52 2.4 1.4 4.76-.85 8.23-5.75 8.98-2.53.39-5.12.42-7.68.65-4.51.4-9.01.83-13.18 1.21zm-2.76 31.66c-.01.08-.01.16-.02.25-3.92 0-7.88-.37-11.74.08-7.29.84-14.54 2.1-21.79 3.28-3.91.64-4.37 3.73-4.29 6.85.08 3.08 1.94 4.69 4.95 5.42 14.77 3.6 29.78 4.85 44.92 4.36 6.62-.22 13.11-1.51 19.04-4.74 3.18-1.73 3.55-2.92 1.73-6.12-2.8-4.92-7.57-6.96-12.77-7.66-6.64-.9-13.35-1.18-20.03-1.72z" fill="#010103"/><path d="m96.93 225.41c4.9-6.51 9.81-13.3 15.03-19.84 2.48-3.11 5.2-6.29 8.48-8.43 2.51-1.64 6.03-2.16 9.15-2.33 3.49-.18 6.06 1.59 7.98 4.97 6.51 11.39 8.28 22.98 1.76 34.77-4.53 8.19-9.56 16.14-14.83 23.87-7.46 10.95-11.23 22.49-7.94 35.77.82 3.29 3.44 4.55 5.95 5.24 2.48.68 3.78-1.78 4.77-3.87 6.03-12.72 11.96-25.5 18.13-38.15 4.95-10.15 12.98-16.67 24.16-18.93 1.65-.33 4.23-.48 5.07.46 1.95 2.18 2.78 5.18 1.26 8.1-.65 1.24-1.66 2.47-2.81 3.25-11.1 7.55-18.39 17.62-22.28 30.61-2.16 7.21-5.79 14.05-9.28 20.78-6.12 11.79-16.65 13.56-27.71 9.58-.51-.18-1.04-.46-1.39-.85-9.2-10.22-15.58-21.34-9.84-35.57 3.79-9.41 8.06-18.64 12.24-27.89.62-1.37 1.91-2.45 2.97-3.58 4.5-4.76 8.67-9.89 10.33-16.26 1.06-4.07.71-8.54.73-12.83 0-.96-.93-2.45-1.76-2.72-.69-.22-2.08.78-2.75 1.58-5.44 6.54-10.64 13.27-16.18 19.72-4.87 5.66-11.12 7.78-18.42 5.58-1.46-.44-3.03-1.53-3.91-2.76-7.35-10.27-8.25-21.83-5.73-33.69 3.49-16.46 9.07-32.28 16.68-47.29 1.6-3.16 4.64-5.61 7.08-8.34 6.17-6.88 13.52-11.95 22.56-14.26 3.68-.94 4.78-3.4 4.39-6.78-.68-5.88-2.57-11.36-6.46-15.91-3.64-4.25-7.29-8.53-11.34-12.37-5.15-4.89-8.19-10.76-9.73-17.57-2.74-12.07-4.82-24.2-2.02-36.52.98-4.3 2.76-8.41 4.21-12.7 4.71.95 7.39 3.63 8.17 7.32 1.12 5.31 1.52 10.79 1.92 16.22.54 7.35.61 14.74 1.21 22.09.77 9.29 7.06 15.17 13.65 20.65 5.71 4.75 10.64 10 12.27 17.49 1.14 5.24 1.98 10.55 2.68 15.87.29 2.2 1.34 3.23 3.14 4.25 6.68 3.78 14.11 6.32 19.68 11.97 10.35 10.49 17.99 22.42 20.73 37.19 1.74 9.37-.87 17.91-5.4 25.68-2.9 4.97-8.4 6.94-14.34 6.06-4.6-.69-8.89-2.3-12.21-5.76-6.54-6.82-12.81-13.82-14.5-23.62-.1-.55-.19-1.1-.24-1.66-.51-5.51 1.41-7.75 6.95-7.85.77-.01 1.81.75 2.29 1.45 3.42 5.11 6.48 10.48 10.16 15.38 2.22 2.95 5.18 5.44 8.13 7.72 1.94 1.5 3.72.93 4.89-1.69 2.21-4.92 1.63-9.67.39-14.71-3.43-13.91-13.34-22.79-23.43-31.81-10.55-9.43-20.28-8.23-32.77-1.84-.85.44-1.52 1.29-2.2 2.02-12.28 13.26-18.88 29.16-21.42 46.84-1.01 7.07-1.35 14.24-2.12 21.35-.31 2.69.63 4.21 3.82 4.55z" fill="#010103"/><g fill="#fcfbfa"><path d="m385.2 377.6.6-.7c.6.4 1.3.9 1.9 1.5l-.6.7c-.8-.5-1.4-1-1.9-1.5zm.3 7.1c.6-1.4 1.1-2.9 1.5-4.5.3.1.6.3.9.4-.5 1.4-1 2.9-1.5 4.4zm.2-10.1.6-.6c.7.5 1.3 1.1 1.9 1.6l-.7.7c-.6-.6-1.2-1.2-1.8-1.7zm8.4-.8h.8v.9h1.8v.7h-1.8v1.8h-.8v-.3h-1.2v.9h3.3v2.6h-.8v-.4h-2.5c0 .3 0 .6-.1.8h3.4v.7h-3.5c0 .3-.1.6-.1.8h4v.7h-3.5c.7.9 1.9 1.3 3.6 1.5-.2.2-.4.5-.6.9-1.9-.3-3.2-1.1-3.8-2.3-.5 1.1-1.8 2-3.9 2.4-.2-.3-.4-.5-.6-.8 1.9-.4 3.1-.9 3.6-1.7h-3.2v-.7h3.5c.1-.2.1-.5.2-.8h-3.3v-.7h3.4c0-.2 0-.5 0-.8h-2.4v.3h-.8v-2.6h3.3v-.9h-1.2v.3h-.8v-1.8h-1.8v-.7h1.8v-.9h.8v.9h3.2zm-4.4 5.5h2.4c0-.3 0-.6 0-.9h-2.4zm1.2-3.1h3.2v-.8h-3.2zm4.4 2.2h-2.4v.9h2.5v-.9z"/><path d="m389.2 385.8h.9v1.5h1.9v-1.5h.9v1.5h2.7v6h1.1v.9h-11.3v-.9h1.1v-6h2.7zm.2 8.7.5.8c-1.2.6-2.5 1.3-4 1.9-.2-.3-.3-.6-.6-.8 1.6-.6 3-1.3 4.1-1.9zm-2-4.3h1.9v-2.1h-1.9zm0 3.1h1.9v-2.2h-1.9zm2.7-3.1h1.9v-2.1h-1.9zm0 3.1h1.9v-2.2h-1.9zm2.4 1.3c1.4.6 2.7 1.2 4.1 1.8l-.5.9c-1.5-.7-2.8-1.4-4.1-1.9zm2.2-6.5h-1.9v2.1h1.9zm-1.9 5.2h1.9v-2.2h-1.9z"/></g></svg>