<svg enable-background="new 0 0 400 400" viewBox="0 0 400 400" xmlns="http://www.w3.org/2000/svg"><g fill="#fbfafa"><path d="m37.59 393.81c-.92.31-1.52.05-2-.78-.7-1.2-1.52-2.34-2.47-3.78v4.59c-.55.03-.95.05-1.41.07-.03-.37-.06-.64-.06-.91 0-1.91 0-3.81 0-5.7 1.13-.41 1.77-.03 2.29.91.62 1.11 1.38 2.14 2.31 3.19v-4.2h1.35v6.61z"/><path d="m12.94 393.88v-6.75c1.9.19 3.93-.54 5.37 1.29.8 1.01.78 2.88.03 3.97-1.37 1.97-3.4 1.51-5.4 1.49m1.45-1.22c2.04.12 2.92-.58 2.89-2.21-.03-1.51-.98-2.19-2.89-2z"/><path d="m11.81 393.87h-5.49c.68-2.18 2.47-3.48 3.51-5.45h-3.08v-1.21h5.29c-.71 2.13-2.44 3.48-3.47 5.51.86 0 1.63.04 2.39-.01.79-.05 1.14.21.85 1.16"/><path d="m39.33 393.86v-6.61h3.7v1.07h-2.22v1.52c.68.04 1.34.09 2.07.13v1.07c-.72.05-1.38.09-2.1.14v1.48h2.4v1.19h-3.85z"/><path d="m27.71 388.56c-1.15-.3-2.46-.61-3.1.64-.37.73-.41 1.93-.06 2.67.63 1.35 1.99.93 3.17.68.35.94-.01 1.32-.93 1.46-1.62.25-3.05-.27-3.76-1.48-.73-1.24-.6-3.03.31-4.17.88-1.11 2.71-1.7 4-1.16.32.13.44.74.65 1.12-.1.08-.19.16-.28.24"/><path d="m49.15 387.24v1.07c-.59.02-1.17.05-1.87.08v5.44h-1.48v-5.44h-1.85c-.05-.4-.08-.73-.13-1.15z"/><path d="m20.06 387.21h1.33v6.62h-1.33z"/><path d="m30.68 393.25c-.49.38-.8.79-1.05.76-.32-.05-.6-.45-.9-.7.26-.24.51-.64.8-.67.29-.04.62.3 1.15.61"/></g><path d="m252.11 255.52c-4.71 7.08-11.54 7-18.31 7.11-14.64.24-29.28.41-43.92.76-14.12.33-28.18.24-42.03-3.2-2.83-.7-4.47-2.13-4.65-4.87-.18-2.68.5-4.69 3.78-5.66 6.77-2 13.57-2.48 20.55-2.15 5.46.25 10.94.13 16.41.07 2.41-.02 3.39-1.19 3.35-3.82-.15-10.73-.06-21.46-.06-32.73-2.72-.16-6.23-.46-9.75-.56-4.92-.14-9.86.07-14.77-.23-5.03-.31-7.94-3.06-8.32-7.18-.2-2.16.3-3.77 2.76-4.1 5.08-.69 10.16-1.5 15.26-2.01 4-.41 8.04-.63 12.06-.6 3.41.03 4.71-1.77 4.63-4.71-.15-5.24-.48-10.49-.89-15.72-.58-7.22 1.46-13.43 6.55-18.58 6.79 2.94 9.57 8.77 8.39 16.53-.81 5.28-1.56 10.63-1.64 15.96-.08 5.65 2.03 7.7 7.72 7.68 4.2-.02 8.42-.84 12.6-1.53 6.09-1.01 10.05 1.7 11.2 7.63.35 1.81-.14 2.91-1.73 3.35-3.63 1-7.26 2.19-10.97 2.63-4.98.59-10.04.51-15.07.79-1.54.08-2.7.53-2.68 2.59.08 10.84.04 21.69.04 33.02 7.16 2.07 15.02 1.7 22.9 1.03 3.23-.27 6.47-.68 9.7-.64 5.72.07 10.92 1.92 15.99 6.04-.42-5.68-.57-10.67-1.2-15.59-2.51-19.55-.89-38.61 6.37-57.05.25-.62.46-1.26.71-1.88 7.18-17.83 19.84-21.15 36.25-13.5 2.14 1 3.76 3.43 5.22 5.48 7.51 10.51 11.23 22.56 13.41 35.09 2.3 13.21 3.18 26.45-1.07 39.5-.66 2.01-1.41 4.01-2.28 5.94-2.22 4.93-3.97 5.87-9.28 4.89-.77-.14-1.86-1.07-1.97-1.77-.5-3.04-1.22-6.18-.88-9.18.7-6.21 2.4-12.3 3.03-18.51 1.45-14.38-2.14-27.96-7.49-41.13-.98-2.42-2.73-4.65-4.53-6.59-3.98-4.31-10.99-3.79-14.77.64-6.46 7.57-8.14 16.62-8.93 26.16-2.02 24.34 2.04 47.89 8.29 71.26 3.41 12.73 5.75 25.76 9.39 38.41 2.99 10.39 7.17 20.43 10.87 30.61 2.1 5.78 4.51 11.45 6.33 17.31.79 2.53 1.18 5.65.39 8.07-.62 1.89-3.11 3.62-5.16 4.47-2.29.95-4.73-.1-5.91-2.51-2.98-6.09-6.39-12.04-8.62-18.4-10.99-31.36-19.65-63.38-26.43-95.91-.16-.7-.41-1.33-.84-2.71z" fill="#010105"/><path d="m84.59 374.43c-3.13-4.18-2.6-8.62-.63-12.97 1.42-3.15 3.54-5.99 4.93-9.15 6.38-14.52 12.41-29.2 18.97-43.65 5.56-12.25 7.91-25.36 11.02-38.26 3.57-14.77 7.74-29.51 9.74-44.51 1.96-14.68 1.52-29.68 2.07-44.54.04-1.2-.26-2.46-.63-3.62-.87-2.77-1.58-5.89-5.01-6.52-3.74-.69-7.07.5-9.68 3.34-11.09 12.1-17.65 26.54-21.53 42.29-2.05 8.35-3.78 16.79-5.56 25.2-1.28 6.03-4.11 8.5-9.19 7.89-2-.24-3.58-1.07-3.7-3.17-.19-3.42-.44-6.9-.02-10.28 2.28-18.65 9.45-35.81 16.65-52.92 5.02-11.92 14.27-20.07 25.43-25.93 12.21-6.41 25.75 3.3 26.63 16.21.62 9.03 1.21 18.13.74 27.15-.76 14.73-1.68 29.51-3.81 44.09-3.76 25.66-11.54 50.33-21.5 74.21-6.18 14.83-13.44 29.22-20.61 43.61-3.61 7.29-6.14 8.8-14.31 11.53z" fill="#010105"/><path d="m192.26 94.9c-7.94 0-15.55.13-23.14-.07-2.5-.07-5.11-.66-7.44-1.58-2.78-1.11-3.62-3.7-3.66-6.61-.04-2.92 2.4-3.28 4.2-4.07 5.13-2.24 10.47-1.5 15.84-.96 3.41.34 6.89.14 10.32-.07 2.15-.13 3.27-1.45 3.28-3.79.07-9.72.06-19.45.45-29.17.24-6 .96-12 1.89-17.93.32-2.03 1.92-3.86 3.01-5.91 5.76 3.31 8.25 8.13 8.22 13.87-.04 5.89-1.22 11.76-1.51 17.66-.31 6.34-.23 12.7-.21 19.06.01 3.03 1.82 4.79 4.74 5.05 3.55.33 7.12.44 10.69.44 2.68 0 5.41-.71 8.02-.37 2.56.33 5.42 1.04 7.39 2.56 4.52 3.51 3.86 7.45-1.53 9.14-3.99 1.26-8.25 1.81-12.44 2.23-4.33.43-8.72.27-13.07.45-1.61.07-3.06.36-3.14 2.6-.46 12.62-1.01 25.25-1.55 38.46 3.89.23 7.63.6 11.36.62 6.94.04 13.88-.23 20.82-.13 2.76.04 5.73.21 8.2 1.28 2.16.93 4.38 2.87 5.43 4.94 2 3.93.76 6.88-3.5 7.91-4.82 1.16-9.88 1.68-14.85 1.87-11.27.41-22.56.41-33.84.63-14.08.28-28.18 1.57-42.17-1.15-2.51-.49-5.16-.97-7.36-2.16-1.53-.83-3.08-2.73-3.41-4.39-.43-2.19.18-4.37 3-5.59 6.13-2.64 12.46-3.4 19.01-3.28 7.83.14 15.66.23 23.5.32 1.09.01 2.18-.09 3.45-.15 0-13.77 0-27.25 0-41.71z" fill="#010105"/><path d="m109.68 45.65c5.72.55 10.39 3.19 14.43 6.77 9.18 8.13 16.08 17.97 20.69 29.34 3.43 8.48 2 16.76-4.02 23.19-12.22 13.05-26.14 24.15-42.71 31.3-3.66 1.58-8.01 1.86-12.08 2.08-1.61.09-4.16-1.21-4.78-2.56-.89-1.96-.06-4.26 2.29-5.64 11.17-6.55 22.24-13.29 33.44-19.79 5.18-3 10.24-6 12.94-11.68 3.78-7.95 1.88-18.18-4.4-24.29-4.17-4.05-8.37-8.1-12.26-12.41-4.87-5.41-5.89-10.57-3.54-16.31z" fill="#010105"/><path d="m312.87 140.45c-3.59-1.31-6.86-2.13-9.77-3.64-12.48-6.42-23.99-14.2-33.93-24.27-4.92-4.99-7.58-10.67-7.85-17.57-.01-.34-.12-.73.01-1 3.54-7.11 5.88-15.3 10.98-21.02 6.76-7.58 15.67-13.25 23.67-19.72 2.61-2.11 6.84-2 8.72.18 1.81 2.1 1.15 6.42-1.32 8.72-6.05 5.65-12.17 11.23-18.14 16.97-6.18 5.93-9.57 12.94-7.29 21.7.36 1.38 1.28 2.96 2.42 3.73 8.16 5.48 16.54 10.63 24.65 16.18 4.22 2.88 8.24 6.13 11.92 9.66 1.62 1.56 3.59 5.34 2.94 6.16-1.5 1.92-4.51 2.66-7.01 3.92z" fill="#010105"/></svg>