<svg enable-background="new 0 0 400 400" viewBox="0 0 400 400" xmlns="http://www.w3.org/2000/svg"><g fill="#010103"><path d="m170.82 299.79c-4.19-8.46-3.13-16.84-1.45-25.25 2.86-14.24 6.27-28.4 5.98-43.09-.42-20.95-1.21-41.84-8.42-61.85-2.98-8.28-7.25-15.83-13.99-22.37-2.28 3.84-3.02 7.83-2.38 11.9 1.64 10.37 3.71 20.68 5.33 31.05 3.24 20.67 3.64 41.2-3.6 61.28-3.18 8.83-8.01 16.16-17.06 20.03-2.86 1.23-5.42 3.15-8.28 4.41-2.33 1.03-2.52 2.36-2.14 4.68 2.19 13.22 8.13 24.98 13.88 36.84 6.77 13.98 13.49 27.98 19.97 42.09 1.45 3.16 2.14 6.78 2.57 10.27.29 2.33-.66 4.83-3.49 5.41-2.68.55-5.52.58-7.25-2.05-4.03-6.15-8.45-12.13-11.74-18.66-10.05-19.97-19.34-40.28-25.06-62.04-3.76-14.31-6.37-28.65-7.14-43.53-1.15-22.45.31-44.7 2.31-66.99.75-8.35 1.26-16.73 1.71-25.11.21-3.92-.88-5.75-4.29-8.43-5.84 6.53-10.28 13.92-13.69 21.96-6.51 15.35-7.95 31.47-7.71 47.97.31 21.53 2.27 42.87 5.78 64.1.54 3.28-.33 6.84-.83 10.23-.35 2.39-1.79 4.12-4.47 4.22-2.85.11-6.59-2.12-7.11-4.47-2-9.05-4.46-18.04-5.7-27.2-3.75-27.72-3.16-55.42 3.18-82.71 2.49-10.71 6.58-21.07 10.29-31.46.81-2.26 2.96-4.13 4.76-5.91 2.7-2.68 5.55-5.21 8.47-7.64 4.51-3.75 9.64-4.54 15.1-2.51 1.14.42 2.27 1.4 2.98 2.41 4.84 6.89 7.25 14.81 7.25 23.02 0 13.06-.94 26.12-1.54 39.18-.75 16.42-1.65 32.83-2.26 49.25-.11 2.94.71 5.97 1.41 8.88.47 1.97 1.71 2.67 4.06 2.03 3.84-1.03 6.18-3.11 8.1-6.66 8.38-15.54 9.67-32.22 8.08-49.25-1.04-11.11-3.12-22.13-4.52-33.21-.66-5.2-1.06-10.46-1.19-15.71-.23-8.73 3.98-15.45 10.48-20.78 1.12-.92 3.36-.94 4.99-.71 11.66 1.63 18.69 9.04 23.81 19.04 4.51 8.81 5.83 18.51 8.26 27.88 6.24 24.09 7.16 48.59 5.18 73.29-1.08 13.44-3.87 26.49-8.14 39.29-1.05 3.15-2.45 5.01-5.75 5.49-1.53.24-2.99.87-4.73 1.39z"/><path d="m258.17 250.46c10.06 0 19.55-.09 29.03.05 3.32.05 6.81.11 9.88 1.15 2.16.74 4.65 2.82 5.41 4.89 1.81 4.88 1.21 6.68-3.37 8.31-6.3 2.25-12.68 2.12-19.2 1.68-5.77-.39-11.58-.35-17.37-.39-1.49-.01-2.76.4-2.84 2.47-.4 10.17-.93 20.34-1.4 30.52-.01.31.11.63.35 1.91 6.09 0 12.3-.05 18.52.01 14.31.15 28.62.34 42.82 2.61 2.08.33 3.01 1.13 3.14 3.06.15 2.09 2.26 4.21-.79 6.18-4.29 2.78-8.91 4.27-13.91 4.21-18.01-.23-36.01-.65-54.02-.99-11.85-.22-23.71-.44-35.56-.63-10.52-.17-21.03-.39-31.55-.41-3.39-.01-3.99-2.53-4.74-4.71-.72-2.1-1.01-4.63 1.94-5.52 4.66-1.41 9.32-3.45 14.07-3.73 8.01-.48 16.09.37 24.14.36 6.9-.01 13.79-.45 20.85-.7 0-11.24 0-21.95 0-33.53-7.15 0-14.25.05-21.35-.02-3.9-.04-7.86.13-11.68-.52-5.63-.95-8.91-6.69-7.01-11.99.34-.95 2.39-1.71 3.72-1.83 9.24-.85 18.5-1.5 27.76-2.22 1.67-.13 3.36-.47 5.01-.35 3.65.26 5.06-1.78 5.24-4.94.16-2.77.15-5.58-.11-8.35-.56-5.96-.91-11.88 2.24-17.31.75-1.28 1.85-2.54 3.09-3.32 6.98-4.36 14.66-6.49 22.89-6.71 2.01-.05 4.04-.08 6-.45 3.56-.66 5.66-3.02 6.46-6.47 1.36-5.89.14-11.66-1.83-17.11-.65-1.8-3.35-3.46-5.42-4.03-4.9-1.35-9.95-2.5-15-2.82-8.55-.54-17.15-.38-26.35-.52-1.79 7.29-4.14 15.22-5.63 23.3-2.06 11.19-7.42 20.22-15.93 27.59-3.04 2.64-5.89 5.49-8.8 8.27-3.08 2.93-6.69 3.2-10.63 2.34-2.75-.6-3.99-2.4-3.22-4.83.85-2.67 1.94-5.62 3.84-7.55 8.15-8.26 15.71-16.9 20.31-27.69 3.16-7.41 4.3-15.26 4.12-23.27-.02-.88-1.12-2.08-2.03-2.54-6.17-3.15-12.42-6.15-18.64-9.19-5.44-2.66-9.66-6.44-11.43-12.46-1.09-3.71 1.03-6.54 4.76-5.55 5.56 1.47 11.04 3.45 16.33 5.73 5.01 2.16 9.69 5.06 14.58 7.51 6.21 3.11 13.05 2.75 19.7 3.32 10.58.92 21.19 1.64 31.76 2.68 12.12 1.2 19.21 8.05 22.32 19.82 2.28 8.6 1.57 17.13-2.15 24.52-3.73 7.41-10.74 12.5-19.4 14.12-4.94.92-9.97 1.34-14.94 2.14-.87.14-2.26 1-2.31 1.63-.64 7.09-1.09 14.22-1.67 22.27z"/><path d="m245.96 70.33c9.06 0 18.12-.06 27.18.04 2.26.03 3.32-.69 3.34-2.99.04-5.69.13-11.39.24-17.08.07-3.67.1-7.35.4-11 .1-1.26.64-2.85 1.55-3.61 1.99-1.66 4.21-3.42 6.6-3.98.87-.2 2.93 2.71 3.71 4.52 1.05 2.41 1.79 5.1 1.96 7.71.73 11.26 1.36 22.53 1.74 33.8.58 17.1-2.14 33.58-9.32 49.29-2.87 6.28-8.09 9.34-13.68 12.14-10.4 5.21-21.49 4.82-32.53 3.09-5.92-.93-11.68-2.92-17.55-4.23-3.46-.77-5.59-2.98-7.51-5.7-7.44-10.53-10.77-22.45-12.19-35.08-1.57-13.98-1.33-27.9.49-41.84.47-3.64-.27-7.45.34-11.04.64-3.75 2.14-7.38 3.45-11 .78-2.16 2.47-2.12 4.39-1.41 4.61 1.7 7.21 5.26 6.9 10.7-.27 4.67-1.44 9.28-1.74 13.95-.22 3.41.18 6.88.56 10.3.2 1.8 1.32 2.84 3.47 2.8 4.69-.09 9.39.13 14.09.16 4.7.04 9.4.01 14.1.01.01.15.01.3.01.45zm-31.85 15.14c.69 7.9 1.14 15.27 2.03 22.58.66 5.4 2.76 10.39 6.32 14.57 1.14 1.34 2.83 2.69 4.48 3.03 6.77 1.4 13.58 2.75 20.45 3.5 11.65 1.28 25.6-3.32 28.72-20.37 1.34-7.31 2.66-14.51.29-21.85-.76-2.34-2-3.32-4.6-3.21-10.61.46-21.23.72-31.85 1.04-8.35.24-16.71.46-25.84.71z"/><path d="m130.2 80.67c-8.35 7.09-16.4 14.18-24.74 20.92-7.34 5.93-15.15 11.16-24.89 12.39-.77.1-1.55.17-2.33.2-.31.01-.62-.14-1.29-.3 0-3.07-.16-6.19.1-9.27.08-.92 1.2-1.96 2.09-2.59 9.06-6.36 18.18-12.63 27.27-18.95 1.1-.77 2.16-1.6 3.18-2.47 15.89-13.6 14.07-12.75 14.39-29.71.09-4.79-.15-9.71.88-14.32.79-3.54 3.27-6.71 5.11-9.99.94-1.69 2.4-1.62 4.04-.91 5.1 2.21 6.4 6.63 6.51 11.52.07 3.22-.47 6.46-.8 9.68-.73 7.16-1.06 14.31 1.57 21.2.57 1.5 1.46 3.13 2.68 4.08 9.11 7.03 18.44 13.77 27.5 20.86 5.17 4.04 10.08 8.44 14.87 12.93 1.57 1.47 2.57 3.65 3.53 5.65 2.05 4.29 1.53 5.22-3.17 6.39-3.98.99-7.29-.8-10.31-2.91-5.59-3.9-11.02-8.04-16.48-12.14-9.22-6.92-18.4-13.88-27.6-20.81-.8-.61-1.65-1.14-2.11-1.45z"/></g><path d="m385.2 377.6.6-.7c.6.4 1.3.9 1.9 1.5l-.6.7c-.8-.5-1.4-1-1.9-1.5zm.3 7.1c.6-1.4 1.1-2.9 1.5-4.5.3.1.6.3.9.4-.5 1.4-1 2.9-1.5 4.4zm.2-10.1.6-.6c.7.5 1.3 1.1 1.9 1.6l-.7.7c-.6-.6-1.2-1.2-1.8-1.7zm8.4-.8h.8v.9h1.8v.7h-1.8v1.8h-.8v-.3h-1.2v.9h3.3v2.6h-.8v-.4h-2.5c0 .3 0 .6-.1.8h3.4v.7h-3.5c0 .3-.1.6-.1.8h4v.7h-3.5c.7.9 1.9 1.3 3.6 1.5-.2.2-.4.5-.6.9-1.9-.3-3.2-1.1-3.8-2.3-.5 1.1-1.8 2-3.9 2.4-.2-.3-.4-.5-.6-.8 1.9-.4 3.1-.9 3.6-1.7h-3.2v-.7h3.5c.1-.2.1-.5.2-.8h-3.3v-.7h3.4c0-.2 0-.5 0-.8h-2.4v.3h-.8v-2.6h3.3v-.9h-1.2v.3h-.8v-1.8h-1.8v-.7h1.8v-.9h.8v.9h3.2zm-4.4 5.5h2.4c0-.3 0-.6 0-.9h-2.4zm1.2-3.1h3.2v-.8h-3.2zm4.4 2.2h-2.4v.9h2.5v-.9z" fill="#fcfbfa"/><path d="m389.2 385.8h.9v1.5h1.9v-1.5h.9v1.5h2.7v6h1.1v.9h-11.3v-.9h1.1v-6h2.7zm.2 8.7.5.8c-1.2.6-2.5 1.3-4 1.9-.2-.3-.3-.6-.6-.8 1.6-.6 3-1.3 4.1-1.9zm-2-4.3h1.9v-2.1h-1.9zm0 3.1h1.9v-2.2h-1.9zm2.7-3.1h1.9v-2.1h-1.9zm0 3.1h1.9v-2.2h-1.9zm2.4 1.3c1.4.6 2.7 1.2 4.1 1.8l-.5.9c-1.5-.7-2.8-1.4-4.1-1.9zm2.2-6.5h-1.9v2.1h1.9zm-1.9 5.2h1.9v-2.2h-1.9z" fill="#fcfbfa"/></svg>