<svg enable-background="new 0 0 400 400" viewBox="0 0 400 400" xmlns="http://www.w3.org/2000/svg"><g fill="#010103"><path d="m233.06 187.74h26.24c0-18.19 0-36.25 0-55.25-5.9 0-12.03-.28-18.12.08-5.71.34-10.56-1.45-15.05-4.61-15.23-10.71-26.37-24.37-30.55-42.95-1.14-5.08-.32-6.5 4.78-7.91.81-.22 2.35.79 3.01 1.65 7.4 9.55 14.71 19.17 22 28.81 7.62 10.07 17.88 13.64 30.11 12.21.98-.12 2.32-1.22 2.66-2.16 1.62-4.5.47-8.84-1.43-12.99-3.49-7.61-7.32-14.77-13.78-20.7-6.01-5.52-10.93-12.43-15.53-19.26-6.47-9.59-5.17-20.05-1.34-30.26 1.01-2.7 3.11-5 4.77-7.45 1.68-2.48 3.95-2.07 6.25-1.1 2.46 1.04 4.13 2.71 3.98 5.59-.07 1.22-.28 2.44-.59 3.62-.52 1.94-1.06 3.89-1.78 5.76-4.63 11.88-.22 21.33 7.96 29.74 5.3 5.45 10.8 10.71 16.03 16.22 3.26 3.44 5.57 7.45 6.55 12.24.81 3.92 2.13 7.73 3.25 11.69 8.65-1.84 16.51-4.33 20.03-13.54 2.8-7.32-.08-19.88-5.95-25.1-4.6-4.09-9.31-8.08-13.6-12.49-2.6-2.67-5.14-5.77-6.56-9.16-2.11-5.06-.28-6.99 4.76-6.26 3.96.58 8.5 2.4 11.23 5.19 7.08 7.25 13.68 15.05 19.79 23.15 7.89 10.45 7.17 21.89 2.15 33.38-.26.6-.67 1.18-1.14 1.63-8.04 7.74-15.52 16.2-25.98 20.91-2.8 1.26-3.87 3.08-3.67 6.23.3 4.8.15 9.63.04 14.44-.04 1.84.58 2.63 2.42 2.74 8.03.45 16.06.97 24.77 1.51.66-5.34 1.41-10.6 1.93-15.88.62-6.35 3.28-9.32 9.65-10.17 2.63 4.64 3.44 9.81 3.74 15.04.81 14.06-.94 27.96-3.45 41.72-3.18 17.41-3.96 34.95-2.72 52.5 1.46 20.64 4.04 41.19 5.81 61.81 1.14 13.26 1.67 26.58 2.5 39.87.21 3.36-2.44 4.15-4.68 4.67-2.37.54-4.45-.24-5.3-3.19-4.12-14.31-5-29.04-6.28-43.76-1.3-15.02-3.1-29.99-4.7-45.14-8.01 0-15.57 0-23.6 0-.12 2.62-.29 5.25-.36 7.89-.72 27.97-1.46 55.95-2.12 83.92-.17 7.04.07 14.1-.11 21.14-.14 5.57-2.92 9.31-7.23 10.58-1.97.58-3.27.26-4.42-1.65-2.84-4.73-3.38-9.9-3.24-15.2.64-25.04 1.43-50.09 1.99-75.13.23-10.39.04-20.79.04-31.47-1.12-.1-2.07-.25-3.03-.26-6.72-.02-13.44.08-20.15-.06-2.35-.05-3.22.59-3.63 3.04-3.9 23.49-7.93 46.97-12.04 70.43-.56 3.17-1.74 6.24-2.74 9.32-.3.93-.88 1.82-1.5 2.6-2.01 2.52-4.9 3.05-7.56 1.93-1.29-.54-2.6-2.89-2.57-4.39.15-7.01.03-14.16 1.33-21 5.27-27.71 9.78-55.51 12.18-83.63 1.5-17.6.38-35.07-2.02-52.55-1.67-12.18-3.12-24.46-.52-36.75.18-.87.39-1.74.62-2.6.96-3.65 3.68-5.38 7.26-4.39.77.21 1.46 1.22 1.91 2.02 3.39 6.1 4.6 12.78 5.04 19.65.68 10.49 1.34 20.98 2.02 31.47.04.53.13 1.08.24 2.02zm26.2 47.03c-.37-10.59-.72-20.49-1.06-30.42-8.58 0-16.77 0-25.01 0v30.42zm36.84 0c0-10.74 0-20.86 0-31.35-7.55.46-14.84.91-22.21 1.36v30c7.49-.01 14.72-.01 22.21-.01zm3.73-68.95c-8.65 0-16.93 0-25.27 0v21.88h23.53c.57-7.15 1.12-14.12 1.74-21.88z"/><path d="m126.23 250.07c6.28 1.27 9.46-1.55 12.31-5.8 6.76-10.06 9.55-21.07 8.9-33.07-.7-12.96-1.85-25.92-1.98-38.89-.08-7.86 1.01-15.81 2.32-23.59.88-5.21 4.48-9.19 8.86-12.19.89-.61 2.3-.82 3.42-.71 10.11 1.01 18.17 5.6 24.28 13.81 6.91 9.28 9.76 19.91 11.42 31.12 2.73 18.45 3.86 36.95 2.23 55.55-1.3 14.79-4.76 29.12-10.2 42.92-1.39 3.52-4.12 6.01-8.12 6.72-2.06.37-3.07-.49-3.64-2.43-1.38-4.73-.78-9.29.81-13.82 2.1-6.01 5.08-11.87 6.11-18.06 1.78-10.66 2.8-21.51 3.3-32.31.69-14.78.02-29.55-3.83-43.97-1-3.77-2.29-7.49-3.82-11.08-3.22-7.57-9.69-11.4-17.15-14.29-2.58 4.25-2.75 8.88-2.68 13.57.28 20.25 1.17 40.52.61 60.75-.4 14.1-5.26 27.07-17.12 36.04-2.94 2.23-6.74 3.43-10.29 4.72-2.94 1.06-3.94 2.29-3.43 5.75 1.87 12.73 2.92 25.69 7.76 37.69 5.38 13.35 11.49 26.42 17.82 39.36 1.91 3.89 5.95 6.69 8.36 10.41 1.88 2.9 3.42 6.35 3.94 9.73.74 4.8-3.79 7.86-7.74 5.13s-7.38-6.43-10.45-10.19c-16.35-19.99-25.22-43.24-29.5-68.49-3.75-22.12-6.27-44.37-5.64-66.79.42-15.08 2.17-30.13 3.2-45.2.71-10.26 1.21-20.54 1.85-31.59-1.77 1.04-3.04 1.63-4.12 2.46-2.12 1.64-4 3.63-6.22 5.11-7.83 5.24-10.96 13.33-13.28 21.81-3.74 13.62-3.51 27.67-4.23 41.63-.64 12.45 2.01 24.47 3.78 36.63.59 4.04.6 8.21.42 12.31-.07 1.63-1.12 3.43-2.2 4.75-3.02 3.68-5.34 3.48-8.13-.24-4.17-5.55-5.06-12.04-5.57-18.68-.8-10.48-2.09-20.95-2.42-31.45-.74-23.3 2.52-46 12.38-67.34 1.5-3.26 4.66-5.95 7.52-8.34 5.71-4.77 11.11-10.36 19.08-11.16 3.29-.33 6.67.04 9.98.37.93.09 1.95 1.01 2.62 1.81 3.69 4.42 5.26 9.61 4.76 15.29-1.53 17.72-3.47 35.4-4.7 53.14-.96 13.69-1.09 27.45-1.58 41.1z"/><path d="m133.37 36.1c6.17 1.01 9.82 4.32 10.11 10.29.23 4.74-.72 9.53-.93 14.31-.24 5.56-.38 11.13-.32 16.7.03 2.76 1.41 4.69 4.4 5.49 10.78 2.87 18.73 10.25 26.66 17.44 5.69 5.16 10.98 10.82 16.01 16.62 2.12 2.45 3.43 5.74 4.59 8.85 1.58 4.22-1.3 7.56-5.75 6.51-2.45-.58-5.04-1.95-6.84-3.71-8.07-7.89-15.8-16.13-23.82-24.08-10.86-10.76-23.82-9.55-36.1-4.55-.96.39-1.7 1.41-2.45 2.22-6.47 6.96-12.7 14.17-19.48 20.82-3.11 3.05-7.14 5.31-11.06 7.35-3.26 1.7-5.55.46-5.28-3.19.26-3.58 1.3-7.82 3.57-10.4 7.59-8.65 15.58-17 24.03-24.8 3.58-3.31 8.55-5.29 13.15-7.26 4.52-1.94 6.1-5.29 6.15-9.71.06-4.47.03-8.95-.25-13.41-.52-8.22-.27-16.32 2.92-24.07.21-.51.47-.98.69-1.42z"/></g><path d="m385.2 377.6.6-.7c.6.4 1.3.9 1.9 1.5l-.6.7c-.8-.5-1.4-1-1.9-1.5zm.3 7.1c.6-1.4 1.1-2.9 1.5-4.5.3.1.6.3.9.4-.5 1.4-1 2.9-1.5 4.4zm.2-10.1.6-.6c.7.5 1.3 1.1 1.9 1.6l-.7.7c-.6-.6-1.2-1.2-1.8-1.7zm8.4-.8h.8v.9h1.8v.7h-1.8v1.8h-.8v-.3h-1.2v.9h3.3v2.6h-.8v-.4h-2.5c0 .3 0 .6-.1.8h3.4v.7h-3.5c0 .3-.1.6-.1.8h4v.7h-3.5c.7.9 1.9 1.3 3.6 1.5-.2.2-.4.5-.6.9-1.9-.3-3.2-1.1-3.8-2.3-.5 1.1-1.8 2-3.9 2.4-.2-.3-.4-.5-.6-.8 1.9-.4 3.1-.9 3.6-1.7h-3.2v-.7h3.5c.1-.2.1-.5.2-.8h-3.3v-.7h3.4c0-.2 0-.5 0-.8h-2.4v.3h-.8v-2.6h3.3v-.9h-1.2v.3h-.8v-1.8h-1.8v-.7h1.8v-.9h.8v.9h3.2zm-4.4 5.5h2.4c0-.3 0-.6 0-.9h-2.4zm1.2-3.1h3.2v-.8h-3.2zm4.4 2.2h-2.4v.9h2.5v-.9z" fill="#fcfbfa"/><path d="m389.2 385.8h.9v1.5h1.9v-1.5h.9v1.5h2.7v6h1.1v.9h-11.3v-.9h1.1v-6h2.7zm.2 8.7.5.8c-1.2.6-2.5 1.3-4 1.9-.2-.3-.3-.6-.6-.8 1.6-.6 3-1.3 4.1-1.9zm-2-4.3h1.9v-2.1h-1.9zm0 3.1h1.9v-2.2h-1.9zm2.7-3.1h1.9v-2.1h-1.9zm0 3.1h1.9v-2.2h-1.9zm2.4 1.3c1.4.6 2.7 1.2 4.1 1.8l-.5.9c-1.5-.7-2.8-1.4-4.1-1.9zm2.2-6.5h-1.9v2.1h1.9zm-1.9 5.2h1.9v-2.2h-1.9z" fill="#fcfbfa"/></svg>