<svg enable-background="new 0 0 400 400" viewBox="0 0 400 400" xmlns="http://www.w3.org/2000/svg"><g fill="#010103"><path d="m297.12 240.2c-1.62.5-3.06 1.09-4.57 1.36-2.41.44-2.9 1.74-2.65 4.03 1.31 11.9 2.57 23.8 3.69 35.71 1.58 16.81 3.03 33.63 4.51 50.45.11 1.22.04 2.46-.05 3.69-.18 2.31-1.07 4.31-3.62 4.54-2.55.24-5.13.16-6.5-2.82-4.32-9.41-5.81-19.44-6.73-29.61-1.58-17.6-3.11-35.21-4.76-52.8-.56-6-4.06-8.4-9.93-6.43 0 11.16.01 22.56 0 33.96-.02 16.34 0 32.68-.16 49.02-.04 3.66-.43 7.38-1.18 10.97-.94 4.49-5.55 6.62-9.67 4.63-.87-.42-1.52-1.79-1.8-2.84-3.27-12.35-3.57-24.92-3.14-37.62.67-19.99.95-40 1.4-60.22-2.96-.48-4.98-.81-7.37-1.2-.31 6.96-.63 13.52-.89 20.08-.66 16.32-1.33 32.65-1.93 48.97-.18 4.8 0 9.61-.28 14.4-.28 4.96-2.85 7.84-7.49 8.41-1.12.14-3.16-.67-3.43-1.49-1.04-3.12-2.18-6.43-2.12-9.65.27-16.33 1.03-32.65 1.38-48.99.23-10.72.04-21.45.04-32.57-1.66-.14-3.39-.3-5.53-.48-.29 4.12-.61 8.08-.85 12.05-.86 14.18-1.63 28.37-2.6 42.55-.17 2.51-.96 5.04-1.84 7.42-.85 2.29-2.79 3.46-5.32 3.25-2.38-.2-4.07-1.13-4.98-3.67-2.61-7.33-2.2-14.78-1.16-22.23 1.6-11.54 2.52-23.07 2.45-34.75-.22-34.81-.08-69.61-.08-104.42 0-4.34 4.85-7.08 8.57-4.65.87.57 1.25 2.22 1.46 3.44 1.67 9.67 3.25 19.37 4.88 29.2 2.3.2 3.35-1.21 3.18-3.83-.53-8.03-1.09-16.06-1.57-24.09-.19-3.23-.62-6.53-.2-9.7.34-2.54 1.28-5.34 2.85-7.32 3.24-4.07 7.34-3.35 8.69 1.52 1.27 4.59 2.04 9.38 2.39 14.14.51 6.79.44 13.62.61 20.44.07 2.87 1.17 4.04 4.34 3.75 6.04-.55 6.35-.33 6.72-6.24.37-6.01-.06-12.07.12-18.09.2-7 .32-14.03 1.2-20.96.38-3 2.6-5.77 4.09-8.86 6.86 3.02 9.44 8.28 9.72 14.6.29 6.47-.12 12.97-.21 19.46-.06 4.91-.24 9.84-.09 14.74.15 4.59.38 4.64 5.91 4.38.43-7.25.81-14.58 1.33-21.91.35-4.9.6-9.83 1.47-14.65.68-3.78 2.98-6.65 7.03-7.79 2.09-.59 3.22-.17 4.15 1.93 3.01 6.77 2.18 13.77 1.74 20.81-.49 8-.74 16.02-1.11 24.23 2.59.49 4.4.83 6.93 1.31.37-5 .77-9.74 1.06-14.49.11-1.89-.05-3.8-.03-5.71.08-6.45 2.64-9.45 9.37-10.79 3.56 5.67 5.23 11.98 5.12 18.66-.12 7.6-.73 15.19-1.03 22.79-.97 24.88.22 49.67 3.91 74.28 1.72 11.48 4.61 22.79 6.42 34.26.81 5.13.35 10.48.3 15.72-.02 3.08-2.59 4.2-4.9 4.71-2.29.51-4.15-.69-5.31-3.08-4.14-8.52-5.26-17.7-6.41-26.93-1.53-12.31-3.26-24.6-4.93-36.9-.09-.62-.36-1.24-.61-2.08zm-45.28-8.59c0-1.34 0-2.34 0-3.33 0-14.55-.13-29.09.09-43.64.05-3.47-1.56-3.92-4.2-3.88-3.37.05-4.93 1.38-4.83 4.31.48 14.76.99 29.52 1.52 44.27.03.75.27 1.48.42 2.26 2.27.01 4.37.01 7 .01zm35.96-48.98v46.56c2.06-.83 3.45-1.57 4.94-1.94 2.89-.73 3.61-2.37 3.46-5.32-.52-10.37-.71-20.76-1.01-31.14-.21-7.42-.2-7.42-7.39-8.16zm-14.02 50.04c0-1.8.04-3.35-.01-4.91-.46-14.3-.95-28.59-1.42-42.89-.16-4.76-.15-4.76-5.12-4.82v54c2.36-.49 4.4-.93 6.55-1.38zm-43.12-3.67c-.43-11.93-.77-23.62-1.35-35.3-.12-2.38-1.11-4.72-1.71-7.08-.37.07-.75.13-1.12.2v43.06c1.24-.26 2.32-.49 4.18-.88z"/><path d="m125.18 223.14c5.34-8.65 8.86-17.19 9.48-26.36.74-11.01.09-22.11.3-33.16.19-10.17.49-20.36 1.21-30.5.38-5.32 2.69-10.1 6.61-13.95 5.75-5.65 14.08-5.08 18.87 1.36 2.67 3.59 5.08 7.41 8.05 10.73 7.86 8.8 10.78 19.57 11.93 30.75 3.45 33.63-2.36 65.9-15.27 97.01-.21.52-.45 1.02-.69 1.53-3.28 6.89-3.93 7.41-11.85 9.34-3.26-4.7-3.28-9.99-1.81-15.1 2.34-8.15 5.59-16.03 7.95-24.17 5.8-20 8.66-40.47 7.81-61.28-.62-15.1-7.25-28.12-15.86-40.18-.39-.04-.78-.08-1.17-.12-.85 4.15-2.39 8.29-2.42 12.45-.06 10.5.9 21 .84 31.5-.09 16.56-.26 33.29-7.75 48.58-3.06 6.25-7.69 11.76-11.8 17.46-1.45 2.02-1.73 3.76-1.09 6.17 4.42 16.63 8.43 33.37 13.12 49.92 1.78 6.29 4.95 12.19 7.6 18.22 7.3 16.57 14.71 33.09 21.94 49.68 1.05 2.4 1.74 5.09 1.95 7.7.25 3.12-1.91 5.04-5.06 4.85-3.45-.2-6.34-1.36-8.33-4.65-16.29-27.04-27.8-56.04-34.93-86.71-5.74-24.7-11.07-49.51-15.75-74.42-1.48-7.89-.32-16.28-.26-24.44.05-6.38.37-12.75.38-19.13 0-8.95.43-17.83 2.08-26.68.66-3.53-.4-7.39-.67-11.1-.5-.13-1-.26-1.49-.4-2.62 3.5-5.47 6.86-7.83 10.53-7.87 12.21-11.62 25.79-12.76 40.16-1.31 16.58-1.02 33.12 2.06 49.48 1.71 9.1 4.41 18.01 6.23 27.1.89 4.43 1.11 9.08.95 13.6-.06 1.8-1.61 3.97-3.11 5.21-2.88 2.37-5.13 1.64-6.98-1.49-4.51-7.68-5.97-16.27-7.64-24.84-3.53-18.16-5.82-36.42-5.53-54.97.36-22.77 5.2-44.34 16.53-64.24 1.16-2.04 2.95-3.87 4.8-5.36 3.3-2.66 6.76-5.18 10.39-7.37 1.54-.93 3.81-1.49 5.52-1.13 7.63 1.57 15.93 7.75 14.48 20.02-2.12 17.86-3.82 35.8-5.04 53.74-.79 11.36.31 22.74 4.01 34.66z"/><path d="m200.87 111.74c0 9.19-.1 18.11.02 27.03.52 41.51 1.38 83.02 1.49 124.53.04 13.95-1.85 27.9-2.76 41.85-.64 9.81-1.01 19.65-1.74 29.45-.19 2.5-.85 5.19-2.09 7.32-1.09 1.87-3.09 3.53-5.08 4.48-2.44 1.17-4.56.54-5.67-2.61-1.99-5.65-2.06-11.35-1.64-17.21 1.65-22.98 4.45-45.97 4.49-68.96.08-49-1.21-98.01-2.16-147.01-.22-11.5-1.61-22.97-1.97-34.47-.33-10.55 1.54-20.88 3.82-31.2 1.62-7.37 6.28-11.21 12.65-13.22 5.37-1.7 11.06-2.63 16.68-3.28 22.19-2.54 44.49-1.15 66.74-1.37 3.43-.03 6.9.62 10.27 1.36 1.51.33 3.15 1.35 4.13 2.55 2.94 3.6 2.09 6.61-2.36 7.24-7.48 1.05-15.05 1.87-22.59 2.02-15.66.3-31.32.06-46.98.1-7.82.02-15.33 1.62-22.39 5-.96.46-2.17 1.52-2.28 2.42-.59 4.97-.88 9.98-1.29 15.16 7.15 0 14.05.03 20.94-.01 22.71-.11 45.43-.24 68.14-.36 4.03-.02 8.06.15 12.08 0 2.01-.07 3.17.52 3.61 2.5.32 1.41.88 2.78 1.05 4.21.38 3.34-1.09 5.12-4.43 5.37-1.78.14-3.58-.09-5.37-.01-4.67.21-6.54 2.13-6.2 6.77.33 4.55-.02 8.88-2.07 13.06-2.5 5.09-6.91 7.77-11.87 9.78-9.91 4.02-20.44 4.75-30.93 5.35-14.06.81-28.13 1.31-42.19 1.95-.87.04-1.73.18-2.05.21zm73.7-35.1c-25.42 0-50.28 0-75.51 0 .36 7.33.7 14.38 1.04 21.4 6.41-.64 12.39-1.61 18.38-1.76 10.15-.26 20.33.15 30.48-.02 8.75-.14 17.05-2.21 24.32-7.35.86-.61 1.78-1.84 1.8-2.8.06-3.1-.3-6.2-.51-9.47z"/><path d="m131.29 38.36c-.68 5.58-1.42 11.57-2.15 17.55-.09.78-.14 1.56-.2 2.34-.28 3.7.65 6.36 4.42 8.31 15.34 7.93 25.25 21.33 34.34 35.39 1.52 2.35 2.21 5.35 2.79 8.15.67 3.25-2.06 5.74-5.25 4.66-2.21-.75-4.5-2.11-6.06-3.82-6.85-7.52-13.35-15.36-20.17-22.91-4-4.43-8.67-8.06-14.67-9.55-3.7-.92-6.5-.26-9.63 2.51-7.89 6.99-12.72 16.04-18.32 24.63-1.52 2.33-2.98 4.93-5.11 6.56-2.26 1.73-5.21 3.08-8.02 3.48-4.3.61-6.29-1.6-5.03-5.83 1.25-4.21 2.97-8.56 5.58-12.02 6.52-8.65 13.51-16.97 20.64-25.15 3.13-3.6 7.11-6.45 10.55-9.8.93-.91 1.83-2.39 1.83-3.62.01-4.46-.09-8.95-.65-13.36-.83-6.52-.46-12.68 3.25-18.38 1.2-1.85 2.46-2.17 4.46-1.42 4.93 1.84 7.43 5.74 7.4 12.28z"/></g><path d="m385.2 377.6.6-.7c.6.4 1.3.9 1.9 1.5l-.6.7c-.8-.5-1.4-1-1.9-1.5zm.3 7.1c.6-1.4 1.1-2.9 1.5-4.5.3.1.6.3.9.4-.5 1.4-1 2.9-1.5 4.4zm.2-10.1.6-.6c.7.5 1.3 1.1 1.9 1.6l-.7.7c-.6-.6-1.2-1.2-1.8-1.7zm8.4-.8h.8v.9h1.8v.7h-1.8v1.8h-.8v-.3h-1.2v.9h3.3v2.6h-.8v-.4h-2.5c0 .3 0 .6-.1.8h3.4v.7h-3.5c0 .3-.1.6-.1.8h4v.7h-3.5c.7.9 1.9 1.3 3.6 1.5-.2.2-.4.5-.6.9-1.9-.3-3.2-1.1-3.8-2.3-.5 1.1-1.8 2-3.9 2.4-.2-.3-.4-.5-.6-.8 1.9-.4 3.1-.9 3.6-1.7h-3.2v-.7h3.5c.1-.2.1-.5.2-.8h-3.3v-.7h3.4c0-.2 0-.5 0-.8h-2.4v.3h-.8v-2.6h3.3v-.9h-1.2v.3h-.8v-1.8h-1.8v-.7h1.8v-.9h.8v.9h3.2zm-4.4 5.5h2.4c0-.3 0-.6 0-.9h-2.4zm1.2-3.1h3.2v-.8h-3.2zm4.4 2.2h-2.4v.9h2.5v-.9z" fill="#fcfbfa"/><path d="m389.2 385.8h.9v1.5h1.9v-1.5h.9v1.5h2.7v6h1.1v.9h-11.3v-.9h1.1v-6h2.7zm.2 8.7.5.8c-1.2.6-2.5 1.3-4 1.9-.2-.3-.3-.6-.6-.8 1.6-.6 3-1.3 4.1-1.9zm-2-4.3h1.9v-2.1h-1.9zm0 3.1h1.9v-2.2h-1.9zm2.7-3.1h1.9v-2.1h-1.9zm0 3.1h1.9v-2.2h-1.9zm2.4 1.3c1.4.6 2.7 1.2 4.1 1.8l-.5.9c-1.5-.7-2.8-1.4-4.1-1.9zm2.2-6.5h-1.9v2.1h1.9zm-1.9 5.2h1.9v-2.2h-1.9z" fill="#fcfbfa"/></svg>