<svg enable-background="new 0 0 400 400" viewBox="0 0 400 400" xmlns="http://www.w3.org/2000/svg"><g fill="#fbfafa"><path d="m37.59 393.81c-.92.31-1.52.05-2-.78-.7-1.2-1.52-2.34-2.47-3.78v4.59c-.55.03-.95.05-1.41.07-.03-.37-.06-.64-.06-.91 0-1.91 0-3.81 0-5.7 1.13-.41 1.77-.03 2.29.91.62 1.11 1.38 2.14 2.31 3.19v-4.2h1.35v6.61z"/><path d="m12.94 393.88v-6.75c1.9.19 3.93-.54 5.37 1.29.8 1.01.78 2.88.03 3.97-1.37 1.97-3.4 1.51-5.4 1.49m1.45-1.22c2.04.12 2.92-.58 2.89-2.21-.03-1.51-.98-2.19-2.89-2z"/><path d="m11.81 393.87h-5.49c.68-2.18 2.47-3.48 3.51-5.45h-3.08v-1.21h5.29c-.71 2.13-2.44 3.48-3.47 5.51.86 0 1.63.04 2.39-.01.79-.05 1.14.21.85 1.16"/><path d="m39.33 393.86v-6.61h3.7v1.07h-2.22v1.52c.68.04 1.34.09 2.07.13v1.07c-.72.05-1.38.09-2.1.14v1.48h2.4v1.19h-3.85z"/><path d="m27.71 388.56c-1.15-.3-2.46-.61-3.1.64-.37.73-.41 1.93-.06 2.67.63 1.35 1.99.93 3.17.68.35.94-.01 1.32-.93 1.46-1.62.25-3.05-.27-3.76-1.48-.73-1.24-.6-3.03.31-4.17.88-1.11 2.71-1.7 4-1.16.32.13.44.74.65 1.12-.1.08-.19.16-.28.24"/><path d="m49.15 387.24v1.07c-.59.02-1.17.05-1.87.08v5.44h-1.48v-5.44h-1.85c-.05-.4-.08-.73-.13-1.15z"/><path d="m20.06 387.21h1.33v6.62h-1.33z"/><path d="m30.68 393.25c-.49.38-.8.79-1.05.76-.32-.05-.6-.45-.9-.7.26-.24.51-.64.8-.67.29-.04.62.3 1.15.61"/></g><path d="m271.87 81.98c-9.57-5.61-19.04-9.21-28.78-12.13-15.46-4.64-31.1-8.97-47.38-8.07-9.07.5-18.03 2.96-27.04 4.48-23.25 3.91-44.44 14.11-66.54 21.56-3.14 1.06-6.46 1.69-9.74 2.13-2.28.3-4.82-.25-5.22-3.02-.41-2.8-.82-5.99 2.64-7.53 12.54-5.6 25-11.4 37.68-16.66 17.59-7.29 36.35-10.07 54.92-13.51 10.24-1.9 10.23-1.81 12.51-12.04.73-3.27 1.7-6.48 2.53-9.73.46-1.81 1.59-2.11 3.28-1.78 4.65.91 6.65 3.57 6.12 8.35-.06.56-.14 1.11-.18 1.67-.74 9.72-.17 10.45 9.11 13.12 14.17 4.08 28.63 7.4 42.38 12.59 17.11 6.46 33.66 14.43 50.39 21.88 4.19 1.87 7.11 5.12 7.59 9.89.09.91-.85 2.55-1.68 2.84-5.08 1.78-10.16 1.25-15.02-.9-6.44-2.85-12.8-5.86-19.22-8.76-1.49-.67-3.07-1.15-5.3-1.96.81 1.36 1.27 2.03 1.63 2.76 1.69 3.43.61 6.89-3.03 7.56-5.78 1.06-11.71 1.35-17.56 2.05-3.79.45-7.57 1.05-11.35 1.58-.23.59-.46 1.17-.69 1.76 1.72 1.39 3.63 2.6 5.11 4.2 4.79 5.17 9.78 10.22 13.98 15.85 2.95 3.95 5.11 8.63 6.93 13.25 1.68 4.28-2.23 8.08-6.8 6.78-1.79-.51-3.65-1.82-4.81-3.29-9.6-12.24-19.07-24.58-28.49-36.96-1.29-1.7-2.61-2.36-4.75-2.33-10.51.11-21.02.05-31.97.05 1.27 6.86 2.42 13.42 3.69 19.95 1.61 8.27 1.62 8.42 10.19 9.6 7.75 1.06 15.55 1.8 23.34 2.52 12.21 1.13 20.41 11.95 18.12 24.08-.06.33-.16.66-.16.99.11 8.02-4.84 12.46-11.61 14.47-8.74 2.6-17.79 4.17-26.71 6.17-1.19.27-2.41.44-3.79.69v6.71c2.58.41 5.18 1.1 7.8 1.21 16.1.62 31.92-1.11 47.43-5.64 3.36-.98 5.58-2.86 6.45-6.07 1.05-3.85 1.86-7.78 2.52-11.72.45-2.75.19-5.62.77-8.33.42-2 1.35-4.09 2.63-5.67 3.14-3.87 5.93-3.63 7.93.87 5.52 12.44 4.76 24.9-2.42 36.22-3.81 6.01-10.87 8.76-17.81 10.58-12.25 3.22-24.8 3.23-37.33 3.36-4.47.05-8.95.33-13.42.29-2.5-.03-3.04 1.16-3.48 3.37-2.02 10.03-.06 20.08-.4 30.11-.21 6.14-.29 12.31-1.07 18.38-.54 4.18-2.54 7.88-7.21 9.23-1.8.52-2.8.2-3.69-1.63-3.49-7.21-3.92-14.81-3.45-22.61.73-12.06 1.52-24.13-.42-37.15-4.87 0-9.86.08-14.86-.02-7.94-.15-15.95.16-23.79-.82-7.47-.93-14.99-2.64-22.1-5.1-10.3-3.56-14.48-12.23-16.35-22.38-1.45-7.89 1.2-15.3 2.6-22.82.22-1.17 3.55-1.98 5.57-2.48.62-.16 2.13 1.1 2.38 1.95.94 3.3 1.76 6.67 2.19 10.07.45 3.53.48 7.13.58 10.7.13 4.64 2.71 7.62 6.39 9.96 5.82 3.7 12.34 5.47 19.05 5.91 11.59.75 23.23.78 34.85 1.32 3.24.15 4.48-1.02 4.36-4.12-.04-1.09.24-2.19.42-3.7-4.42-.89-8.78-1.7-13.1-2.64-7.97-1.74-16-3.28-23.86-5.4-7.73-2.09-11.35-7.46-10.31-15.34.62-4.71 1.91-9.45 3.73-13.83.86-2.08 3.5-3.58 5.59-4.96 5.21-3.42 11.2-4.24 17.27-4.73 10.85-.86 10.97-1.1 9.15-11.58-.9-5.18-1.89-10.36-2.37-15.59-.31-3.33-1.97-4.62-4.87-4.43-6.11.4-12.21 1.02-18.3 1.65-1.54.16-3.06.67-4.57 1.05-9.11 2.29-12.58 5.93-13.83 15.37-.63 4.74-.52 9.58-.77 14.37-.28 5.34-3.15 8.21-7.99 7.69-1.05-.11-2.42-1.08-2.9-2.03-4.26-8.36-3.52-17.11-1.71-25.9.23-1.09.59-2.16.84-3.25 2.56-11.53 11.08-16.78 21.53-18.22 14.37-1.97 28.91-3 43.42-3.6 26.82-1.1 53.66-1.6 80.5-2.37.42 0 .84-.15 2.11-.39zm-72.59 57.9c-10.79-.05-21.5.42-31.93 3.32-7.77 2.16-7.83 2.67-6.77 10.62.29 2.14 1.09 3.14 3.15 3.45 10.03 1.51 20 3.58 30.08 4.49 12.53 1.14 25.03.43 36.79-4.94 4.85-2.22 5.98-6.46 1.97-10.05-2.6-2.32-6.23-4.2-9.65-4.74-7.79-1.22-15.74-1.49-23.64-2.15z" fill="#010105"/><path d="m235.76 263.58c-4.4 11.69-8.93 23-12.85 34.51-1.83 5.37-4.91 9.42-9.21 12.79-6.08 4.75-12.18 9.46-19 14.76 6.73 5.27 13.01 11.06 20.12 15.54 9.82 6.18 20.29 11.32 30.41 17.02 3.98 2.24 7.8 4.78 11.66 7.24.74.47 1.72 1.07 1.93 1.8.6 2.13 1.48 4.5 1 6.48-.23.94-3.5 2.05-5 1.64-7.19-1.96-14.27-4.33-21.32-6.72-2.2-.75-4.23-2.02-6.33-3.06-21.87-10.87-39.35-26.82-52.23-47.35-5.04-8.03-7.77-17.52-11.36-26.43-4.11-10.18-9.19-19.65-18.5-27.38-.4.68-.69 1.62-1.32 2.19-4.63 4.19-8.93 8.88-14.07 12.33-9.3 6.24-14.83 14.58-17.05 25.43-2.38 11.61-5.11 23.14-7.36 34.78-.65 3.38-3 2.91-5.11 3.5-2.19.62-3-.75-3.76-2.35-3.75-7.86-3.31-16.11-.85-23.95 3.71-11.8 8.24-23.36 12.74-34.9 1.01-2.58 3.12-4.88 5.13-6.9 4.74-4.75 9.54-9.48 14.68-13.78 3.48-2.91 7.59-5.09 11.43-7.57 4.2-2.7 8.42-2.22 12.72-.15 6.1 2.94 10.65 7.54 13.49 13.53 5.97 12.62 11.59 25.41 17.36 38.12.69 1.52 1.41 3.04 2.31 5 5.04-1.75 10.07-3.43 15.04-5.27.73-.27 1.24-1.23 1.77-1.94 2.13-2.88 3.99-5.99 6.36-8.65 7.14-7.99 8.39-18.04 10.12-27.94 1.09-6.22 3.9-11.22 9.91-13.78 1.55-.66 3.51-.94 5.16-.67 10.94 1.8 21.72 4.25 31.51 9.78.96.54 2.08.99 2.78 1.78 13.73 15.71 25.19 32.81 31.72 52.82 2.03 6.22 2.43 12.69.73 19.07-.34.16-.52.32-.73.34-7.94.85-9.88-.66-13.33-9.26-3.95-9.83-7.87-19.7-12.4-29.27-2.61-5.52-6.18-10.64-9.73-15.65-6.9-9.73-16.89-14.66-28.57-17.48z" fill="#010105"/><path d="m167.42 208.16c3.25.29 6.52.35 9.69.94 1.74.33 3.71 1.18 4.88 2.45 2.98 3.22 2.27 6.09-1.57 8.11-6.82 3.58-14.27 4.16-21.77 4.78-6.98.57-14.17.73-20.84 2.59-14.26 3.99-27.38 10.76-40.04 18.47-4.22 2.57-8.94 4.43-13.62 6.1-1.45.52-4.46-.12-5.12-1.21-2.3-3.85-1.71-7.16.65-9.24 20.36-18 44.58-27.24 71.05-31.41 1.77-.28 3.54-.53 5.32-.68 3.79-.35 7.58-.61 11.37-.9z" fill="#010105"/><path d="m230.81 210.04c21.56 1.15 41.94 6.07 60.31 17.92 5.25 3.39 10.61 6.62 15.98 9.83 3.92 2.34 6.09 5.72 6.84 10.19.31 1.82-.28 3.06-1.93 3.2-2.81.23-5.88.7-8.43-.16-3.64-1.22-7.02-3.38-10.33-5.44-10.72-6.66-21.42-13.31-33.51-17.35-11.03-3.68-22.54-4.35-33.92-5.85-1.78-.23-4.23-.56-5.05-1.75-1.27-1.84-2.5-4.97-1.73-6.61.87-1.87 3.84-3.05 6.13-3.86 1.68-.6 3.75-.12 5.64-.12z" fill="#010105"/></svg>