<svg enable-background="new 0 0 400 400" viewBox="0 0 400 400" xmlns="http://www.w3.org/2000/svg"><g fill="#fbfafa"><path d="m37.59 393.81c-.92.31-1.52.05-2-.78-.7-1.2-1.52-2.34-2.47-3.78v4.59c-.55.03-.95.05-1.41.07-.03-.37-.06-.64-.06-.91 0-1.91 0-3.81 0-5.7 1.13-.41 1.77-.03 2.29.91.62 1.11 1.38 2.14 2.31 3.19v-4.2h1.35v6.61z"/><path d="m12.94 393.88v-6.75c1.9.19 3.93-.54 5.37 1.29.8 1.01.78 2.88.03 3.97-1.37 1.97-3.4 1.51-5.4 1.49m1.45-1.22c2.04.12 2.92-.58 2.89-2.21-.03-1.51-.98-2.19-2.89-2z"/><path d="m11.81 393.87h-5.49c.68-2.18 2.47-3.48 3.51-5.45h-3.08v-1.21h5.29c-.71 2.13-2.44 3.48-3.47 5.51.86 0 1.63.04 2.39-.01.79-.05 1.14.21.85 1.16"/><path d="m39.33 393.86v-6.61h3.7v1.07h-2.22v1.52c.68.04 1.34.09 2.07.13v1.07c-.72.05-1.38.09-2.1.14v1.48h2.4v1.19h-3.85z"/><path d="m27.71 388.56c-1.15-.3-2.46-.61-3.1.64-.37.73-.41 1.93-.06 2.67.63 1.35 1.99.93 3.17.68.35.94-.01 1.32-.93 1.46-1.62.25-3.05-.27-3.76-1.48-.73-1.24-.6-3.03.31-4.17.88-1.11 2.71-1.7 4-1.16.32.13.44.74.65 1.12-.1.08-.19.16-.28.24"/><path d="m49.15 387.24v1.07c-.59.02-1.17.05-1.87.08v5.44h-1.48v-5.44h-1.85c-.05-.4-.08-.73-.13-1.15z"/><path d="m20.06 387.21h1.33v6.62h-1.33z"/><path d="m30.68 393.25c-.49.38-.8.79-1.05.76-.32-.05-.6-.45-.9-.7.26-.24.51-.64.8-.67.29-.04.62.3 1.15.61"/></g><path d="m182.4 192.79c-7.83-8.18-14.41-16.36-14.12-27.85.28-10.94 3.06-20.81 13.1-27.22-.82-1.04-1.24-1.69-1.77-2.22-10.84-10.85-12.93-23.73-8.99-38.1 2.34-8.52 8.18-13.9 15.78-17.42 7.92-3.67 8.18-3.45 8.06-12.32-.07-5.25-.58-10.5-.97-15.74-.7-9.26.01-18.28 4.19-26.74 6.21 1.33 10.1 6.14 10.19 14.02.1 9.61-.25 19.26-1.06 28.83-.38 4.54.48 7.27 4.55 9.76 5.46 3.35 11.25 6.38 15.29 11.79 8.68 11.63 7.97 26.12 1.36 37.26-2.28 3.84-6.14 6.75-9.56 10.4 8.83 6.71 14.63 15.01 13.94 26.66-.64 10.81-4.66 20.13-12.27 27.97 12.99 9.83 19.1 23.33 22.16 38.56.55 2.74 1.15 5.48 2 8.14 4.89 15.28 4.17 31.19 5.31 46.87 1.01 13.95 2.12 27.92 2.36 41.9.25 14.65-.44 29.31-.85 43.96-.02.76-1.06 1.91-1.84 2.15-2.12.64-4.35.88-7.37 1.43-1.01-3.89-2.65-7.67-2.87-11.54-1.08-19.2-1.9-38.41-2.57-57.63-.32-8.94.22-17.92-.2-26.86-1.12-23.93-5.31-47.08-18.32-67.86-7.13-11.38-16.33-12-26.82-6.74-2.12 1.07-3.62 3.56-5.15 5.6-7.46 9.95-10.82 21.59-12.71 33.55-3.41 21.53-6.75 43.1-9.09 64.77-1.43 13.19-.84 26.6-1.33 39.9-.2 5.59-.59 11.19-1.4 16.72-.39 2.65-1.58 5.37-3.08 7.62-1.76 2.64-4.92 2.82-7.59 1.74-1.23-.5-2.19-2.53-2.61-4.04-2.82-10.33-2.15-20.84-1.31-31.35.86-10.81 2.18-21.62 2.36-32.45.32-19.26 3.91-38.01 7.48-56.8 2.58-13.56 6.59-26.66 11.76-39.45 1.88-4.66 4.34-8.76 8.21-12 1.91-1.59 3.66-3.34 5.75-5.27zm17.34-10.48c6.37.07 15.2-4.64 16.77-9.36 3.38-10.17.95-19.45-9.62-24.42-8.22-3.87-19.04-1.24-22.92 5.95-5.99 11.08 2.33 29.14 15.77 27.83zm-17.4-75.62c.36 11.76 2.83 16.92 13.28 19.11 1.97.41 3.94.85 5.93 1.08 4.89.55 13.45-4.22 14.88-8.71 2.63-8.24 2.52-16.03-5.47-22.03-4.36-3.27-9.58-4.78-14.83-4.37-2.62.2-4.97 3.02-7.59 4.39-5.03 2.62-6.67 6.83-6.2 10.53z" fill="#010105"/><path d="m96.26 41.3c6.87.85 11.37 4.81 12.23 11.49.8 6.2.85 12.49 1.41 18.72.27 2.99 1.04 5.94 1.39 8.93.48 4.07 3.18 6.01 6.73 6.23 4.86.3 9.77-.02 14.65-.27 4.33-.22 8.66-1.03 12.96-.91 2.02.06 4.35 1.27 5.94 2.66 5.18 4.53 4.32 8.07-2.02 10.26-6.8 2.34-13.65 1.63-20.59 1.03-3.75-.33-7.58-.07-11.34.25-.93.08-2.44 1.44-2.5 2.28-.71 10.7-1.2 21.41-1.77 32.67 5.32.22 10.42.44 15.52.63 5.81.21 11.64.14 17.42.66 5.2.46 8.25 3.07 9.03 6.71.46 2.16.04 3.41-2.42 4.2-8.92 2.84-18.06 2.8-27.24 2.71-3.34-.03-6.67-.01-10.57-.01v6.32c0 6.04-.12 12.09.1 18.13.04 1.21 1.17 3.15 2.15 3.42 5.77 1.56 11.61 2.99 17.51 3.91 3.72.58 7.61 0 11.39.31 5.21.42 8.27 3 9.08 7.02.4 1.99-.07 3.34-2.01 4.38-7.02 3.77-14.41 4.81-22.09 2.95-6.4-1.54-12.65-3.72-19.07-5.16-5.78-1.3-9-5.21-10.31-10.3-1.51-5.89-2.47-12.05-2.68-18.13-.91-26.28-1.24-52.59-2.26-78.86-.33-8.56-2.3-17.05-3.19-25.61-.6-5.71.29-11.32 2.55-16.62z" fill="#010105"/><path d="m283.89 150.06c-9.16 0-18.53.09-27.89-.06-2.64-.04-5.42-.38-7.85-1.32-1.67-.65-3.39-2.32-4.15-3.97-1.86-4.02-.21-7.1 4.13-7.52 9.22-.88 18.48-1.38 27.72-2.03 2.76-.19 5.53-.34 8.61-.52 0-1.47 0-2.56 0-3.66 0-8.73-.11-17.46.06-26.19.05-2.77-.51-4.02-3.58-4.05-9.16-.07-18.33-.33-27.49-.69-2.31-.09-4.66-.61-6.86-1.33-2.72-.89-4.47-2.89-4.92-5.83-.69-4.52.6-6.43 5.14-6.82 8.68-.74 17.39-1.26 26.08-1.87.89-.06 1.8-.04 2.68-.17 11.22-1.66 10.38-.74 11.47-12.25.32-3.4-.28-6.92-.77-10.35-1.03-7.16.96-13.45 4.86-19.36 1.12-1.7 2.24-1.76 3.92-1.05 4.58 1.92 6.14 5.77 6.23 10.23.1 4.57-.47 9.16-.51 13.74-.14 13.63-.04 27.27-.26 40.9-.27 16.77-.33 33.56-1.34 50.29-.48 8.06-2.89 16.02-4.51 24-.18.9-.75 1.97-1.47 2.47-8.42 5.84-17.16 11.53-27.72 11.62-6.57.06-13.16-1.89-19.71-3.09-.62-.11-1.4-1.32-1.49-2.09-.74-7.01-.42-7.46 6.58-8.14 6.01-.59 12.06-.75 18.04-1.53 3.26-.43 6.58-1.37 9.55-2.77 3.62-1.72 5.7-4.71 5.49-9.15-.23-5.43-.04-10.91-.04-17.44z" fill="#010105"/></svg>