<svg enable-background="new 0 0 400 400" viewBox="0 0 400 400" xmlns="http://www.w3.org/2000/svg"><g fill="#010103"><path d="m93.31 244.81c3.96 6.47 4.75 13.3 4.26 20.51-.25 3.65.13 7.35.46 11.01.19 2.07 1.25 3.32 3.77 3.25 6.24-.17 12.5-.06 19.09-.06.03-.2.24-1.05.26-1.9.29-8.39.45-16.79.88-25.17.12-2.33-.71-3.35-2.74-4.19-5.26-2.19-10.28-5.05-15.68-6.8-7.72-2.5-12.37-7.95-15.4-14.86-9.6-21.96-12.58-44.78-8.6-68.55 1.08-6.44 4.77-8.4 11.02-8.55.79 4.46 1.88 9.1 2.39 13.8 1.46 13.57 2.37 27.2 4.07 40.74 1.68 13.39 8.71 23.01 21.81 27.6.32.11.64.22.96.28.21.04.43-.02 1.32-.08 0-2.33-.02-4.73 0-7.12.27-23.29.5-46.57.88-69.86.04-2.33-.73-3.31-2.79-4.14-9.87-3.99-16.58-10.96-20.15-21.13-4.75-13.54-7.4-27.38-7.53-41.74-.06-6.04-.25-6.18-6.36-6.56-3.66-.23-7.36.05-11.05.16-6.1.19-9.07-2.72-8.53-8.71.09-.95.97-2.26 1.83-2.64 6.02-2.71 12.08-4.51 18.98-4.42 26.97.36 53.96.11 80.93.18 4.91.01 9.84.37 14.74.78 5.36.45 8.65 3.48 9.2 8.52.11.99-.72 2.79-1.49 3.04-3.36 1.08-6.84 2.28-10.31 2.41-10.49.38-10.43.2-11.94 10.46-1.54 10.51-2.8 21.1-5.03 31.47-1.27 5.91-3.79 11.68-6.53 17.11-3.04 6.03-8.94 8.88-15.16 10.83-2.6.81-3.55 2.1-3.54 4.99.14 24.08.08 48.15.08 72.23v3.63c4.38-1.26 8.46-2.36 12.49-3.65.87-.28 1.61-1.16 2.26-1.9 7.8-8.87 11.28-19.48 11.99-31.04.56-9.15.49-18.34.98-27.5.22-4.21.78-8.47 1.85-12.53.5-1.88 2.3-3.86 4.04-4.88 3.01-1.77 4.5-.99 6 2.17 4.82 10.14 5.68 20.93 4.47 31.84-1.64 14.84-5.45 29.18-10.64 43.21-2.93 7.92-8.82 12.03-16.11 14.92-4.46 1.77-8.96 3.43-13.35 5.34-.95.41-2.13 1.63-2.19 2.55-.69 9.69-1.18 19.39-1.74 29.46 8.96.35 17.62.69 26.91 1.05.16-7.72.27-15.06.49-22.41.06-1.99.15-4.06.72-5.95 1.32-4.37 5.04-6.78 9.52-6.25.89.11 2.19.99 2.41 1.77 1.27 4.58 3.14 9.23 3.2 13.87.21 16.45-.17 32.9-.45 49.35-.18 10.59-2.2 20.81-5.94 30.8-4.42 11.84-13.23 18.35-24.84 21.36-13.84 3.59-27.52 1.48-40.99-2.54-10.39-3.1-16.97-10.27-19.81-20.38-8.17-29.1-9.44-58.61-4.31-88.42.64-3.73 2.29-5.78 6.05-6.15.9-.05 1.76-.34 2.89-.61zm7.08 50.77c-1.75 7.71-.36 28.27 1.94 35.5 3.14 9.91 8.9 16.23 19.86 17.54 11.43 1.36 22.28 1.17 32.16-5.72 2.9-2.02 4.93-4.33 5.48-7.97s1.77-7.19 2.2-10.83c.95-8.08 1.69-16.19 2.3-24.3.22-3.01-1.21-4.46-4.67-4.43-18.69.17-37.38.08-56.07.09-1.1-.01-2.19.08-3.2.12zm8.35-213.27c0 7.96-.29 15.76.08 23.52.39 8.1 2.46 15.82 6.59 22.96 3.55 6.13 8.58 9.47 15.65 8.49 7.17-.99 12.91-4.32 14.92-11.95 1.19-4.53 2.53-9.06 3.22-13.68 1.25-8.37 2.11-16.81 3.04-25.23.17-1.57.07-3.07-2.35-3.12-13.61-.27-27.21-.65-41.15-.99z"/><path d="m181.23 117.74c7.39-3.24 15.01-4.34 22.72-4.09 9.15.29 18.28 1.45 27.43 1.74 5.44.17 10.91-.52 16.35-1.04.92-.09 2.34-1.18 2.49-2.01 3.43-18.36 4.66-36.82 1.45-55.34-1.21-6.96-2.72-8.25-9.84-7.71-4.73.36-9.43 1.66-14.04 2.91-8.61 2.33-17.11 5.11-25.75 7.31-2.47.63-5.31.1-7.94-.22-2.52-.31-4.66-1.7-4.69-4.45-.04-2.96.12-6.04 3.34-7.83 9.41-5.23 19.68-7.87 30.12-9.92 7.54-1.48 15.04-3.73 22.86-2.06 2.94.63 5.95 1.14 8.76 2.16 7.95 2.89 12.94 8.36 13.28 17.11.41 10.49.51 21 .76 31.49.21 8.61.49 17.22.62 25.84.03 2.15 1.26 2.76 2.96 2.79 7.69.13 15.38.34 23.07.2 7.79-.14 15.59-1.13 23.36-.86 5.89.21 9.27 4.02 9.78 8.85.2 1.87-.23 3.03-2.1 3.96-6.31 3.15-13.02 3.73-19.9 3.68-11.72-.08-23.44-.08-35.17-.21-2.38-.03-3.64.89-3.62 3.25.04 6.02-.41 12.12.39 18.04 1.27 9.29 3.33 18.47 5.25 27.66.34 1.63 1.39 3.31 2.57 4.53 10.36 10.69 20.84 21.27 31.22 31.94 1.05 1.08 1.89 2.48 2.5 3.88 7.99 18.31 11.98 37.66 14.56 57.34 2.45 18.68 3.5 37.44 2.76 56.27-.49 12.44-2.2 24.72-5.36 36.79-1.15 4.39-5.3 3.39-8.15 4.58-.64.27-2.88-1.62-3.31-2.88-1.07-3.09-2.18-6.42-2.1-9.62.61-23.83 2.78-47.7 1.91-71.46-.74-20.2-3.08-40.65-11.84-59.52-.69-1.49-1.61-2.94-2.7-4.17-11.26-12.75-22.46-25.56-33.95-38.11-3.21-3.5-5.21-7.34-5.57-11.86-.86-10.92-1.35-21.86-2.05-32.8-.22-3.46-.62-6.91-.93-10.36-.21-2.33-1.2-3.52-3.82-3.51-12.96.03-25.92.06-38.88-.23-7.13-.16-14.26-.81-21.36-1.49-3.76-.36-6.44-2.21-6.55-6.53-.01-1.2-.5-2.39-.89-4.04z"/><path d="m128.46 24.98c10.85 0 21.7-.15 32.54.09 3.28.07 6.63.96 9.78 1.98 3.99 1.3 5.48 3.81 4.95 7.99-.16 1.27-1.16 2.89-2.25 3.52-5.55 3.22-11.75 3.12-17.92 3.11-12.29-.02-24.59.42-36.85-.06-11.02-.43-21.99-1.88-32.99-2.8-2.4-.2-3.06-1.55-3.29-3.69-.57-5.3-.55-5.12 4.3-7.45 4.44-2.14 8.95-3 13.89-2.87 9.28.24 18.57.07 27.85.07-.01.03-.01.07-.01.11z"/></g><path d="m377.9 391.2c-.2.3-.4.5-.6.8-.7-.6-1.4-1-2.2-1.5.2-.3.4-.5.5-.8.6.4 1.4.8 2.3 1.5zm-1.8 6.1c-.2-.2-.5-.4-.9-.6.4-.6.8-1.2 1.2-1.9s.7-1.3.9-1.9c.3.3.5.5.8.7-.7 1.3-1.4 2.6-2 3.7zm2.2-9c-.3.3-.5.5-.6.8-.6-.6-1.3-1.1-2-1.5.3-.3.5-.5.6-.7.6.5 1.3.9 2 1.4zm.3.2v-.9h2 4.5c-.3 1.3-.6 2.5-1 3.6s-.9 2.1-1.4 3c.4.5 1 1 1.6 1.4s1.2.8 1.9 1.1c-.3.2-.5.4-.8.8-.4-.3-1-.7-1.6-1.2s-1.2-1.1-1.6-1.6c-.5.6-1.1 1.1-1.7 1.6s-1.4.9-2.1 1.4c-.1-.3-.3-.5-.7-.8.6-.2 1.2-.5 1.9-1s1.4-1.1 2-1.8c-.5-.8-.9-1.6-1.2-2.5s-.6-2-.8-3.2c-.4.1-.7.1-1 .1zm2.5 2.7c.3 1 .7 1.7 1 2.2.3-.5.6-1.1 1-2s.6-1.9.9-3h-3.2-.4c.1.9.3 1.8.7 2.8z" fill="#fcfbfa"/><path d="m396.5 388.5v1.5 3.6h1.5v.9c-.4 0-1 0-1.7 0h-7.9c-.5 0-.9 0-1.2 0v-.9h1.3v-3.5c0-.7 0-1.2 0-1.6h2.4c0-.8 0-1.4 0-1.7h1c0 .3-.1.8-.1 1.7h1.5c0-.8 0-1.4 0-1.7h1c0 .3-.1.9-.1 1.7zm-8.2 9.2c-.2-.3-.5-.5-.8-.8.8-.3 1.4-.6 1.9-.9s1-.7 1.4-1.1c.3.3.6.5.9.8-1.6 1-2.8 1.6-3.4 2zm2.6-6.8v-1.6h-1.5v1.6zm0 2.7v-1.9h-1.5v1.9zm2.4-2.7v-1.6h-1.5v1.6zm0 2.7v-1.9h-1.5v1.9zm.2 2 .7-.8c.4.2.9.5 1.6.8s1.3.7 1.8 1c-.3.3-.5.5-.8.8-.4-.3-1.5-1-3.3-1.8zm2-4.7v-1.6h-1.4v1.6zm0 2.7v-1.9h-1.4v1.9z" fill="#fcfbfa"/></svg>