<svg enable-background="new 0 0 400 400" viewBox="0 0 400 400" xmlns="http://www.w3.org/2000/svg"><g fill="#010103"><path d="m245.11 286.7c0-16.57.04-32.12-.1-47.67-.01-.81-1.45-2.27-2.26-2.3-9.05-.33-18.11-.38-27.16-.65-5.12-.15-10.3-.19-15.32-1.05-2.53-.44-5.25-2.16-7.01-4.1-3.61-3.95-2.43-8.13 2.41-10.25 6.23-2.73 12.82-2.6 19.44-2.51 9.82.13 19.64.03 30 .03 0-2.09 0-3.83 0-5.56 0-7.72-.13-15.45.07-23.17.07-2.75-.93-3.64-3.48-4.02-4.42-.65-8.8-1.58-13.16-2.54-9.54-2.1-16.21-7.56-19.73-16.81-3.88-10.2-5.26-20.86-5.25-31.61.01-13.29.86-26.58 1.31-39.88.13-3.91.27-7.82.17-11.73-.18-6.66 1.55-10.78 6.92-15.45 6.32 3.14 8.17 8.95 7.97 15.25-.24 7.34-1.69 14.63-2.16 21.97-1.04 16.46-.98 32.88 3.57 48.94.51 1.82 1.27 3.57 2.02 5.31 2.33 5.4 5.47 9.41 12.26 9.54 4.87.1 9.69 1.72 14.57 2.14 3.04.26 6.18-.33 9.24-.79 2.65-.39 5.22-1.52 7.86-1.64 6.41-.3 9.58-4.18 11.93-9.52 3.39-7.73 4.94-15.8 4.72-24.16-.39-14.43-1.13-28.84-1.48-43.27-.14-5.58.13-11.19.65-16.75.51-5.43 5.12-7.55 9.76-4.66.86.54 1.4 1.91 1.69 3 3.77 13.95 4.72 28.22 4.5 42.57-.27 17.5-1.88 34.79-7.66 51.53-3.38 9.79-10.49 14.38-20.07 15.79-9.29 1.37-9.78 1.7-10.27 10.95-.43 8.03-.97 16.05-1.49 24.49 4.86.22 9.41.52 13.97.61 8.72.18 17.45.1 26.17.45 2.72.11 5.56.93 8.02 2.1 1.77.84 3.43 2.57 4.38 4.31 1.73 3.18.81 5.05-2.46 6.57-8.51 3.96-17.44 4.25-26.61 3.49-6.11-.51-12.27-.42-18.4-.33-1.02.01-2.85 1.35-2.89 2.15-.86 16.08-1.52 32.17-2.25 49.11 6.12 0 12-.07 17.87.02 11.63.17 23.27.21 34.88.78 4.03.2 8.04 1.65 11.98 2.82 2.58.77 3.92 2.76 3.94 5.59.01 2.76-1.08 4.49-3.74 5.62-5.93 2.51-12.11 2.94-18.41 2.87-29.65-.31-59.29-.64-88.94-.86-8.04-.06-16.1.52-24.13.28-3.96-.12-7.9-1.38-11.81-2.29-2.56-.59-4.01-2.39-4.09-5.04-.09-2.7.58-4.74 3.57-5.99 7.73-3.26 15.76-3.79 23.99-3.71 13.4.12 26.77.03 40.5.03z"/><path d="m116.64 35.94c6.26.51 10.56 3.5 13.39 8.66 8.13 14.83 15.24 30.1 19.4 46.58 2.6 10.27 2.13 20.59.49 30.96-1.34 8.48-2.4 17-3.61 25.68 10.77-1.71 18.93-6.07 22.84-16.9 3.21-8.89 4.1-17.89 3-27.07-1.38-11.65-3.4-23.21-4.88-34.85-.34-2.67 0-5.59.77-8.18.84-2.84 3.41-3.85 6.38-3.95 2.95-.1 4 1.71 4.99 4 5.03 11.56 6.68 23.86 7.63 36.25.55 7.12 1.22 14.42.26 21.42-1.04 7.65-4.06 15.01-5.91 22.57-1.16 4.74-3.91 8.17-7.58 11.08-8.08 6.38-17.02 10.79-27.48 11.1-3.73.11-4.9 1.55-5.79 5.08-5.95 23.37-9.52 47.08-11.32 71.11-1.61 21.48.44 42.61 5.08 63.62 4.38 19.86 8.25 39.83 12.2 59.78.48 2.45.3 5.13-.07 7.63-.35 2.37-1.5 4.76-4.33 4.84-3.01.08-6-.33-7.76-3.49-4.13-7.41-6.78-15.34-8.08-23.67-3.97-25.51-7.93-51.03-11.61-76.59-3.34-23.18-1.47-46.07 3.53-68.95 6.15-28.16 11.6-56.49 16.99-84.81 2.33-12.27-.43-24.22-4.09-35.96-3.31-10.63-8.03-20.6-13.76-30.11-3.08-5.1-3.23-10.3-.68-15.83z"/><path d="m147.02 247.56c-.09-24.13 4.53-47.16 14.64-69.06.65-1.41 2.01-3.43 3.13-3.49 2.74-.14 5.67 1.13 6.16 4.13.62 3.79.93 7.82.37 11.59-1.89 12.82-4.28 25.57-6.38 38.37-2.26 13.79-1.76 27.7-.98 41.53.68 12.15 2.18 24.26 3.66 36.35 1.07 8.77 4.86 16.68 9.03 24.37 3.14 5.79 5.32 11.81 5.08 18.52-.09 2.54-.27 5.18-3.16 6.04-2.9.86-5.52-.08-7.51-2.42-6.5-7.65-10.17-16.74-13.45-26.06-4.68-13.3-6.53-27.16-7.86-41.07-1.23-12.89-1.85-25.86-2.73-38.8z"/><path d="m92.07 369.45c-4.01-7.27-5.86-14.76-6.63-22.64-1.6-16.24-3.73-32.42-5.08-48.68-2.03-24.31-.14-48.48 3.65-72.53 2.26-14.35 4.31-28.73 6.43-43.1.46-3.15 3.41-6.85 5.7-6.99 3.33-.21 7.06 2.64 7.18 6.61.16 5.42-.42 10.89-1.09 16.29-2.45 19.97-5.34 39.89-7.55 59.88-1.91 17.29-.96 34.63.74 51.91 1.75 17.8 3.69 35.58 5.43 53.38.09.87-.72 2.27-1.51 2.7-2.24 1.22-4.69 2.08-7.27 3.17z"/><path d="m243.11 91.15c0-16.67.01-33.34-.01-50-.01-5.29 1.29-10.13 4.37-14.51 1.05-1.49 2-1.72 3.62-1.11 5.16 1.96 6.87 6.17 7.16 11.11.25 4.35.02 8.72.1 13.08.33 19 .67 38 1.07 56.99.31 14.89.22 29.75-3.07 44.39-.49 2.17-1.04 3.92-3.82 4.13-2.72.2-5.62.93-6.66-2.5-1.16-3.79-2.57-7.7-2.64-11.58-.29-16.66-.12-33.34-.12-50z"/><path d="m68.81 172.68c-.23-.36-.31-.45-.35-.54-2.42-5.81-1-10.06 4.26-13.87 4.95-3.58 9.16-8.2 13.62-12.43 16.35-15.51 19.97-34.17 13.43-55.22-2.22-7.13-5.56-13.98-5.43-21.66.05-3.17.53-6.33.82-9.62 6.3.54 10.28 3.59 12.64 8.49 7.74 16.09 11.41 32.85 7.88 50.74-2.01 10.18-5.07 20.06-10.75 28.7-6.04 9.19-13.8 17-23.16 22.97-3.86 2.44-8.3 3.11-12.96 2.44z"/></g><path d="m377.9 391.2c-.2.3-.4.5-.6.8-.7-.6-1.4-1-2.2-1.5.2-.3.4-.5.5-.8.6.4 1.4.8 2.3 1.5zm-1.8 6.1c-.2-.2-.5-.4-.9-.6.4-.6.8-1.2 1.2-1.9s.7-1.3.9-1.9c.3.3.5.5.8.7-.7 1.3-1.4 2.6-2 3.7zm2.2-9c-.3.3-.5.5-.6.8-.6-.6-1.3-1.1-2-1.5.3-.3.5-.5.6-.7.6.5 1.3.9 2 1.4zm.3.2v-.9h2 4.5c-.3 1.3-.6 2.5-1 3.6s-.9 2.1-1.4 3c.4.5 1 1 1.6 1.4s1.2.8 1.9 1.1c-.3.2-.5.4-.8.8-.4-.3-1-.7-1.6-1.2s-1.2-1.1-1.6-1.6c-.5.6-1.1 1.1-1.7 1.6s-1.4.9-2.1 1.4c-.1-.3-.3-.5-.7-.8.6-.2 1.2-.5 1.9-1s1.4-1.1 2-1.8c-.5-.8-.9-1.6-1.2-2.5s-.6-2-.8-3.2c-.4.1-.7.1-1 .1zm2.5 2.7c.3 1 .7 1.7 1 2.2.3-.5.6-1.1 1-2s.6-1.9.9-3h-3.2-.4c.1.9.3 1.8.7 2.8z" fill="#fcfbfa"/><path d="m396.5 388.5v1.5 3.6h1.5v.9c-.4 0-1 0-1.7 0h-7.9c-.5 0-.9 0-1.2 0v-.9h1.3v-3.5c0-.7 0-1.2 0-1.6h2.4c0-.8 0-1.4 0-1.7h1c0 .3-.1.8-.1 1.7h1.5c0-.8 0-1.4 0-1.7h1c0 .3-.1.9-.1 1.7zm-8.2 9.2c-.2-.3-.5-.5-.8-.8.8-.3 1.4-.6 1.9-.9s1-.7 1.4-1.1c.3.3.6.5.9.8-1.6 1-2.8 1.6-3.4 2zm2.6-6.8v-1.6h-1.5v1.6zm0 2.7v-1.9h-1.5v1.9zm2.4-2.7v-1.6h-1.5v1.6zm0 2.7v-1.9h-1.5v1.9zm.2 2 .7-.8c.4.2.9.5 1.6.8s1.3.7 1.8 1c-.3.3-.5.5-.8.8-.4-.3-1.5-1-3.3-1.8zm2-4.7v-1.6h-1.4v1.6zm0 2.7v-1.9h-1.4v1.9z" fill="#fcfbfa"/></svg>