<svg enable-background="new 0 0 400 400" viewBox="0 0 400 400" xmlns="http://www.w3.org/2000/svg"><path d="m361.2 9.6.8-1c.9.7 1.9 1.4 2.9 2.3l-.9 1.1c-1-1-2-1.8-2.8-2.4zm.5 10.6c.9-2.1 1.6-4.3 2.3-6.7.4.2.8.4 1.3.6-.7 2.1-1.5 4.3-2.2 6.6zm.4-15.2.9-.9c1 .8 2 1.6 2.8 2.4l-1 1c-.9-.9-1.8-1.7-2.7-2.5zm12.5-1.2h1.2v1.4h2.7v1.1h-2.7v2.7h-1.2v-.6h-1.8v1.3h4.9v3.8h-1.2v-.5h-3.7c0 .4-.1.9-.1 1.2h5.1v1h-5.2c0 .5-.1.9-.2 1.2h6v1h-5.2c1.1 1.3 2.9 2 5.5 2.2-.4.4-.7.8-.9 1.3-2.9-.5-4.8-1.6-5.7-3.5h-.1c-.8 1.7-2.7 2.9-5.9 3.6-.2-.4-.6-.8-.9-1.1 2.8-.6 4.6-1.4 5.4-2.5h-4.8v-1h5.3c.1-.3.2-.7.2-1.2h-4.9v-1h5c0-.4 0-.8.1-1.2h-3.5v.5h-1.2v-3.8h4.9v-1.3h-1.8v.5h-1.2v-2.7h-2.7v-1h2.6v-1.4h1.2v1.4h4.7v-1.4zm-6.6 8.3h3.6c0-.4 0-.9 0-1.4h-3.6zm1.9-4.6h4.7v-1.3h-4.7zm6.6 3.2h-3.7v1.4h3.7z" fill="#fbfcfa"/><path d="m385.3 3.8h1.3v2.2h2.8v-2.2h1.3v2.2h4.1v9.1h1.7v1.3h-16.9v-1.3h1.7v-9.1h4.1v-2.2zm.4 13.1.7 1.2c-1.8.9-3.8 1.9-6 2.9-.2-.4-.5-.8-.8-1.3 2.3-1 4.3-1.9 6.1-2.8zm-3.1-6.4h2.8v-3.2h-2.8zm0 4.6h2.8v-3.3h-2.8zm4-4.6h2.8v-3.2h-2.8zm0 4.6h2.8v-3.3h-2.8zm3.7 1.9c2.1.9 4.1 1.8 6.1 2.7l-.7 1.3c-2.2-1.1-4.2-2-6.1-2.9zm3.2-9.7h-2.8v3.2h2.8zm-2.8 7.8h2.8v-3.3h-2.8z" fill="#fbfcfa"/><g fill="#010102"><path d="m135.9 238.81v18.77c6.39.35 13.11.72 20.38 1.12.45-4.53.86-8.84 1.31-13.13.17-1.66.23-3.37.68-4.95.78-2.74 2.97-3.61 5.64-3.92 2.75-.32 4.34.98 5.01 3.34.88 3.09 2.03 6.27 2.04 9.41.03 16.11-.19 32.22-.5 48.33-.2 10.36-3.02 20.11-8.17 29.09-4.94 8.63-13.31 12.53-22.45 14.38-11.87 2.4-23.62 1.21-34.78-3.8-1.56-.7-2.92-1.95-4.19-3.14-10.55-9.83-13.49-22.73-14.71-36.37-1.6-17.89-1.99-35.75.94-53.55.14-.88.36-1.75.56-2.62.77-3.45 3.71-5.68 7.08-5.13.67.11 1.58.99 1.73 1.66.94 4.32 2.02 8.65 2.44 13.04.53 5.54.38 5.63 5.95 6.04 5.12.38 10.25.81 15.79 1.25.24-5.84.53-11.61.62-17.39.01-.65-.96-1.66-1.69-1.93-2.41-.88-4.88-1.67-7.39-2.17-10.78-2.14-17.01-9.12-20.69-19-5.53-14.84-6.79-30.29-6.36-45.91.16-5.89 1.26-11.76 2.09-17.62.49-3.46 3.21-4.67 6.21-5.12 1.87-.28 3.25.41 4.03 2.58 4.36 12.09 4.74 24.51 3.42 37.1-.79 7.51-1.33 14.95 2.38 21.97 3.72 7.04 9.79 11.03 17.61 13.85 0-6.46-.04-12.47.01-18.48.14-16.57.28-33.13.51-49.7.03-2.01-.46-3.33-2.29-4.33-14.11-7.73-20.92-20.06-21.86-35.76-.43-7.23-.3-14.52.02-21.76.15-3.34-1.31-4.55-4.08-4.74-2.55-.17-5.14-.02-7.7.14-4.66.29-8.94-4.44-7.88-8.97.15-.65 1.09-1.29 1.81-1.61 5.15-2.24 10.38-3.59 16.18-3.52 22.16.26 44.33.07 66.49.14 3.23.01 6.46.47 9.68.84 1.09.12 2.23.42 3.21.91 2.74 1.35 4.63 3.79 4.08 6.67-.3 1.57-2.58 3.4-4.31 3.91-3.16.93-6.57 1.02-9.89 1.35-2.59.26-3.71 1.26-4.01 4.15-1.29 12.46-2.48 24.96-4.62 37.29-1.77 10.21-7.72 17.66-17.93 21.19-.93.32-2.1 1.73-2.11 2.65-.32 22.5-.49 45-.68 67.49 0 .21.1.43.2.88 5.45-.88 10.63-1.57 13.92-7.28 4.08-7.06 6.63-14.36 6.72-22.52.12-11.86.2-23.73.48-35.59.04-1.93.48-4.32 1.68-5.62 1.3-1.41 3.68-2.36 5.65-2.47 2.13-.12 4.16.83 4.79 3.67 4.85 21.82 4 43.21-3.73 64.36-3.81 10.43-10.51 16.83-21.48 18.75-2.52.44-4.99 1.12-7.84 1.78zm-35.45 34.82c0 10.14-.27 19.86.09 29.55.28 7.58 3.31 14.33 8.21 20.15.9 1.07 2.11 2.05 3.38 2.58 9.16 3.87 18.47 3.61 27.92.97 5.31-1.48 8.43-4.69 10.21-9.93 3.57-10.56 3.81-21.54 4.64-32.44.28-3.62.04-7.28.04-10.88-18.31 0-36.08 0-54.49 0zm10.2-182.54c0 8.99-.28 17.7.09 26.39.3 6.93 3.09 13.06 7.04 18.87 4.95 7.28 19.34 4.72 22.48-1.77 6.81-14.03 5.34-28.65 4.58-43.5-11.28.01-22.2.01-34.19.01z"/><path d="m234.78 84.99c-7.55 3.71-15.03 5.48-21.21 10.9-6.85 6-14.68 10.98-22.53 15.66-4 2.38-8.92 3.32-13.53 4.53-2.84.74-4.52-.97-4.54-3.86-.02-3.7.91-6.93 4.31-9.22 13.45-9.06 26.71-18.41 40.28-27.28 4.44-2.9 9.56-4.83 14.51-6.86 2.49-1.02 3.49-2.61 3.46-5.04-.06-4.58-.05-9.18-.38-13.74-.55-7.68-.21-15.17 2.78-22.42.86-2.09 1.87-2.38 3.8-1.7 5.09 1.79 7.87 5.96 7.55 12.11-.19 3.57-.99 7.1-1.2 10.66-.25 4.45-.21 8.93-.21 13.39 0 2.25 1.2 3.46 3.36 4.29 14.93 5.78 29.35 12.69 42.94 21.17 5.2 3.24 10.14 6.95 14.88 10.83 2.18 1.79 3.84 4.36 5.3 6.84 2.29 3.88 1.6 5.12-2.93 5.54-6.19.57-11.66-1.88-16.83-4.83-8.73-5-17.14-10.59-26.02-15.3-6.25-3.32-13.05-5.59-20.21-8.58v17.77c0 4.7.15 9.41-.06 14.1-.1 2.31.78 3.19 2.79 4.13 19.51 9.14 37.16 21 52.09 36.65 2.21 2.31 3.9 5.17 5.5 7.97.42.73-.11 2.91-.73 3.17-2.15.89-4.79 2.14-6.77 1.58-3.42-.97-6.78-2.79-9.63-4.95-10.77-8.18-21.32-16.64-31.97-24.98-.7-.55-1.51-.96-2.28-1.41-12.51-7.27-18.16-7.35-30.84-.38-.67.37-1.21.97-1.83 1.44-9.24 7.03-18.23 14.44-27.86 20.91-4.18 2.81-9.58 4-14.59 5.29-2.84.74-5.1-2.09-4.18-4.99.66-2.09 1.88-4.45 3.58-5.71 13.3-9.86 26.72-19.56 40.25-29.1 2.97-2.1 6.58-3.28 9.78-5.07.9-.5 1.97-1.65 2.02-2.55.48-10.06.78-20.12 1.15-30.96z"/><path d="m243.06 216.35c0 6.2-.09 11.89.09 17.58.03.98 1.07 2.12 1.94 2.84 5.57 4.68 10.99 9.59 16.91 13.79 10.85 7.7 14.58 24.75 9.96 36.29-6.4 15.98-14.36 31.05-25.53 44.26-9.17 10.85-18.06 21.97-27.68 32.41-6.31 6.85-14.22 11.62-24.11 11.62-.66 0-1.31-.12-2.21-.2-.49-2.31-1.22-4.58-1.33-6.88-.04-1.01 1-2.33 1.9-3.08 8.03-6.63 16.24-13.04 24.19-19.75 13.91-11.73 24.04-26.37 32.48-42.35 3.77-7.14 7.98-14.08 8.93-22.26.87-7.44-.13-14.34-6.39-19.75-6.86-5.92-13.38-12.25-19.89-18.55-1.15-1.11-2.01-2.91-2.24-4.51-.82-5.76-1.5-11.55-1.84-17.35-.16-2.78-1.21-3.69-3.8-3.66-11.85.15-23.7.3-35.55.28-2.75-.01-5.56-.49-8.25-1.15-3.88-.96-6.59-3.43-7.16-7.52-.15-1.09.6-2.73 1.49-3.44 2.48-2 5.39-2.69 8.71-2.68 36.05.07 72.1-.02 108.15-.01 2.21 0 4.5.17 6.62.74 3.79 1.02 5.54 4.01 6.03 7.68.1.78-.75 1.99-1.49 2.53-4.81 3.45-10.37 4.8-16.15 4.65-13.42-.36-26.83-1-40.24-1.51-1.22-.06-2.44-.02-3.54-.02z"/><path d="m238.24 162.03c8.72 0 17.44-.09 26.16.06 2.42.04 4.87.6 7.23 1.23 3.43.91 5.67 4.04 5.33 7.56-.09.91-1.19 2.02-2.11 2.5-8.72 4.59-18.12 6.49-27.86 5.88-13.38-.83-26.72-2.25-40.1-3.25-3.49-.26-4.9-2.38-5.59-5.22-.71-2.92.87-6.32 3.42-7.15 2.81-.91 5.76-1.76 8.68-1.85 8.27-.24 16.55-.09 24.83-.09.01.11.01.22.01.33z"/><path d="m130.1 36.37c10.17 0 20.35-.17 30.52.09 3.53.09 6.73 1.59 7.96 5.59.67 2.17.42 3.87-1.88 4.53-5.55 1.6-11.07 3.81-16.75 4.37-17.66 1.74-35.31.57-52.87-1.84-2.89-.4-5.1-3.01-5.31-6.01-.22-3.2 1.06-5.06 4.6-5.72 4.14-.77 8.35-1.43 12.55-1.58 7.04-.25 14.1-.07 21.16-.07.02.21.02.42.02.64z"/></g></svg>