<svg enable-background="new 0 0 400 400" viewBox="0 0 400 400" xmlns="http://www.w3.org/2000/svg"><path d="m361.2 9.6.8-1c.9.7 1.9 1.4 2.9 2.3l-.9 1.1c-1-1-2-1.8-2.8-2.4zm.5 10.6c.9-2.1 1.6-4.3 2.3-6.7.4.2.8.4 1.3.6-.7 2.1-1.5 4.3-2.2 6.6zm.4-15.2.9-.9c1 .8 2 1.6 2.8 2.4l-1 1c-.9-.9-1.8-1.7-2.7-2.5zm12.5-1.2h1.2v1.4h2.7v1.1h-2.7v2.7h-1.2v-.6h-1.8v1.3h4.9v3.8h-1.2v-.5h-3.7c0 .4-.1.9-.1 1.2h5.1v1h-5.2c0 .5-.1.9-.2 1.2h6v1h-5.2c1.1 1.3 2.9 2 5.5 2.2-.4.4-.7.8-.9 1.3-2.9-.5-4.8-1.6-5.7-3.5h-.1c-.8 1.7-2.7 2.9-5.9 3.6-.2-.4-.6-.8-.9-1.1 2.8-.6 4.6-1.4 5.4-2.5h-4.8v-1h5.3c.1-.3.2-.7.2-1.2h-4.9v-1h5c0-.4 0-.8.1-1.2h-3.5v.5h-1.2v-3.8h4.9v-1.3h-1.8v.5h-1.2v-2.7h-2.7v-1h2.6v-1.4h1.2v1.4h4.7v-1.4zm-6.6 8.3h3.6c0-.4 0-.9 0-1.4h-3.6zm1.9-4.6h4.7v-1.3h-4.7zm6.6 3.2h-3.7v1.4h3.7z" fill="#fbfcfa"/><path d="m385.3 3.8h1.3v2.2h2.8v-2.2h1.3v2.2h4.1v9.1h1.7v1.3h-16.9v-1.3h1.7v-9.1h4.1v-2.2zm.4 13.1.7 1.2c-1.8.9-3.8 1.9-6 2.9-.2-.4-.5-.8-.8-1.3 2.3-1 4.3-1.9 6.1-2.8zm-3.1-6.4h2.8v-3.2h-2.8zm0 4.6h2.8v-3.3h-2.8zm4-4.6h2.8v-3.2h-2.8zm0 4.6h2.8v-3.3h-2.8zm3.7 1.9c2.1.9 4.1 1.8 6.1 2.7l-.7 1.3c-2.2-1.1-4.2-2-6.1-2.9zm3.2-9.7h-2.8v3.2h2.8zm-2.8 7.8h2.8v-3.3h-2.8z" fill="#fbfcfa"/><g fill="#010102"><path d="m106 186.14c14.58.8 28.65 1.53 42.72 2.36 2.03.12 2.36-1.09 2.79-2.56 3.2-10.92 3.33-22.09 2.59-33.29-.88-13.2-2.9-26.22-6.63-38.96-.59-2.01-1.49-3.36-3.55-3.94-11.28-3.17-22.6-6.21-33.79-9.65-4.76-1.46-9.61-3.22-13.8-5.84-9.68-6.05-12.72-14.22-10.31-25.36.54-2.51 1.42-5 1.6-7.53.32-4.49 2.94-7.16 6.28-9.67 7.43-5.6 15.85-8.63 24.89-10.21 12.68-2.21 25.42-1.59 38.13-.38 3.89.37 7.4 2.02 8.51 6.43.63 2.51.19 4.12-2.8 4.85-10.62 2.6-21.4 3.34-32.28 3.6-6.24.15-12.61.1-18.68 1.33-10.37 2.1-15.29 13.06-10.71 22.61.42.88 1.53 1.54 2.46 2.05 8.78 4.83 18.36 6.83 28.2 8 19.75 2.35 32.37 14.05 35.31 33.74 1.29 8.68 1.29 17.61 1.16 26.42-.27 17.68-.44 35.39-1.74 53.01-1.44 19.62-3.89 39.17-6.27 58.71-2.6 21.32-5.7 42.57-8.45 63.87-1.92 14.91-5.2 29.5-9.87 43.77-.55 1.69-2.27 3.32-3.87 4.27-2.76 1.64-5.13.48-6.23-2.55-1.98-5.44-2.33-11.11-.63-16.52 7.32-23.26 8.58-47.48 11.71-71.39 2.12-16.19 3.98-32.42 5.76-48.66 1.2-11.01 2.05-22.06 3.03-33.09.09-.98.01-1.98.01-3.66-14.87 6.56-30.17 1.8-45.54 2.96-.81 9.31-1.61 18.62-2.49 28.73 7.04.11 13.7.22 20.36.3 2.8.03 5.66-.41 8.37.08 2.54.45 5.55 1.22 7.23 2.94 4.71 4.83 5.19 8.34-1.46 10.75-3.8 1.38-8.04 1.93-12.11 2.09-7.91.31-15.83.09-23.98.09-1.21 7.82-2.34 14.98-3.41 22.15-2.5 16.7-4.91 33.42-7.49 50.11-.44 2.85-1.24 5.72-2.38 8.36-.75 1.74-2.12 3.54-3.7 4.53-3.82 2.37-6.5 1.13-7.58-3.19-2.42-9.64-1-19.19 1.27-28.57 9.49-39.27 13.49-79.11 13.21-119.45-.15-22.5-.02-45.01-.19-67.51-.03-3.28 1.44-4.39 4.21-4.67 3.52-.35 5.23.76 5.77 3.77 1.66 9.24 3.38 18.48 4.85 27.76.4 2.48 1.35 3.64 3.83 3.48 5.45-.36 10.9-.72 16.36-1.07 2.34-.15 4.76-.72 7-.29 2.3.44 4.85 1.38 6.52 2.94 4.26 3.97 3.46 7.47-2.14 8.38-8.91 1.44-17.94 2.08-26.93 3.05-1.2.13-2.41.21-4.03.34-.37 10-.72 19.89-1.09 30.18z"/><path d="m259.83 317.11v10.43c11 .38 21.83.79 32.67 1.13 4.99.16 4.99.1 6.08-4.86.5-2.29.88-4.62 1.52-6.87 1.12-3.97 4.52-6.02 8.52-5.07.77.18 1.57 1.11 1.95 1.89 2.82 5.75 3.95 11.9 3.45 18.25-.75 9.41-2.65 18.6-6.7 27.2-.72 1.54-1.99 2.9-3.25 4.09-8.28 7.79-18.61 10.24-29.5 11.17-17.38 1.47-34.57.54-51.75-2.76-13.46-2.59-21.32-10.39-24.79-23.18-2.84-10.45-3.1-20.93-.27-31.49.85-3.17 2.07-4.97 5.55-4.73 1.18.08 2.38-.29 3.79-.49.95 4.59 1.92 8.93 2.7 13.31.31 1.71.88 2.5 2.77 2.48 10.62-.07 21.25-.04 32.31-.04.25-3.33.53-7.16.84-11.21-5.83-.89-11.32-1.93-16.87-2.53-11.68-1.27-19.96-7.48-25.41-17.51-5.85-10.78-6.63-22.14-2.48-33.72.37-1.04 1.54-2.41 2.45-2.5 1.93-.19 4.54-1.12 5.56 1.61 1.41 3.82 2.89 7.67 3.66 11.64.7 3.58.29 7.36.72 11.01.74 6.2 4.35 10.38 9.96 12.89 6.73 3.01 13.86 4.08 21.6 4.41.54-4.92 1.16-9.65 1.5-14.4.05-.75-.96-1.87-1.76-2.34-3.37-1.99-6.91-3.68-10.26-5.69-7.28-4.36-12.04-10.37-11.52-19.35.2-3.45-1.09-5.01-4.49-4.8-6.57.42-13.13.97-19.71 1.27-3.21.15-6.53.26-9.62-.41-1.82-.4-3.76-2.08-4.83-3.72-2.41-3.68-1.42-6 2.58-7.67 7.26-3.02 14.9-2.51 22.51-2.64 17.45-.3 34.9-.73 52.35-1.11 13.87-.3 27.74-.76 41.61-.81 6.74-.02 11.14 3.14 12.67 8.05.16.51.17 1.07.27 1.71-5.14 3.14-10.69 3.87-16.48 3.71-4.46-.12-8.93-.12-13.4-.11-2.38 0-4 .78-4.08 3.63-.06 2.22-.88 4.42-.93 6.63-.14 6.66-3.8 10.97-9.08 14.3-3.12 1.97-6.28 3.87-9.38 5.87-2.32 1.49-3.6 3.48-3.24 6.45.24 1.99.29 4.06-.01 6.03-.53 3.58.88 4.97 4.41 5.24 8.84.68 16.84-2.06 24.38-6.1 1.97-1.06 3.42-3.94 4.15-6.28 1.89-6.04 3.18-12.28 4.85-18.39.76-2.77 1.41-5.72 2.9-8.09 2.35-3.76 6.39-3.44 8.76.29 3.41 5.35 3.83 11.1 2.22 17.1-.78 2.91-1.76 5.78-2.46 8.71-3.5 14.51-13.99 21.52-27.38 25-5.81 1.51-11.92 1.88-17.89 2.78-1.22.15-2.41.37-3.72.59zm37.04 25.76c-28-.34-56.14-.68-84.77-1.02 1.21 3.03 2.5 5.42 3.13 7.98 1.05 4.24 3.8 6.03 7.79 7.16 13.22 3.75 26.71 4.09 40.27 3.53 8.18-.34 16.22-1.52 23.98-4.42 6.04-2.27 10.49-5.53 9.6-13.23zm-59.37-87.64c.56 6.42 2.62 12.35 8.08 15.14 6.36 3.24 12.64.87 18.33-3.44 4.27-3.24 4.67-7.09 3.68-11.7-10.05 0-19.94 0-30.09 0z"/><path d="m241.12 96.89c-18.84 16.64-37.97 31.93-64.15 35.42-.71-3.08-1.49-5.32-1.64-7.59-.07-1 .88-2.52 1.81-3.05 7.63-4.38 15.15-9.06 23.12-12.72 9.2-4.23 18.21-8.38 25.39-15.86 5.44-5.67 7.89-12.48 8.44-19.95.44-5.88.14-11.85-.3-17.74-.77-10.41.38-20.48 4.07-30.19 8.79-.75 11.34 1.65 11.64 10.61.36 10.61-.33 21.24-.41 31.87-.05 6.52.63 12.98 3.42 19 3.38 7.3 9.74 11.69 16.34 15.4 10.61 5.96 21.6 11.26 32.43 16.83 2.28 1.18 4.66 2.19 6.85 3.53 1.39.86 2.77 1.99 3.69 3.32 3.32 4.79 1.75 8.23-3.96 8.81-8.25.84-15.36-2.49-22.11-6.56-12.25-7.39-24.47-14.86-36.44-22.69-3.27-2.15-5.6-5.71-8.19-8.44z"/><path d="m201.07 173.03c2.78-.87 5.53-1.69 8.25-2.58 6.05-1.97 12.09-3.98 18.14-5.98 4.3-1.42 8.22-.49 11.66 2.23 3.15 2.49 2.83 7.31-.88 8.83-4.71 1.93-9.66 3.42-14.65 4.48-5.9 1.25-10.63 3.78-13.92 9.58 5.89 2.04 11.58 3.99 17.25 5.99 2.31.81 4.69 1.54 6.85 2.67 1.54.8 3.3 1.93 4.03 3.38 1.05 2.08 1.97 4.75 1.52 6.86-.25 1.16-3.41 2.32-5.28 2.37-3.52.09-7.2-.14-10.56-1.11-8.36-2.39-16.59-5.27-25-8-3.51 4.51-4.31 9.66-3.71 15.16.22 2 .98 4.07.67 5.97-.39 2.4-1.02 5.26-2.62 6.85-4.57 4.57-8.88 3.44-10.81-2.6-3.96-12.38-1.03-23.93 5.26-34.69 2.39-4.1 4.04-7.05 1.73-12.21-3.91-8.76-2.95-18.15.17-27.21.25-.71.59-1.5 1.13-1.99 10.05-9.14 21.27-16.04 35.12-17.44 2.59-.26 5.33.35 7.92.93 2.73.6 3.88 2.69 4.19 5.42.32 2.85-1.62 3.68-3.64 4.41-6.61 2.39-13.11 5.25-19.89 6.94-11.37 2.83-14.94 9.64-12.93 21.74z"/><path d="m294.45 193.5c-11.91 14.1-26.08 19.25-42.92 16.99-.34-.51-.54-.67-.56-.86-1.01-8.37-2.26-7.32 6.02-11.32 4.16-2 8.9-2.83 13.43-4.01 5.25-1.36 9.23-4.28 12.39-9.67-7.58-2.02-14.87-3.89-22.11-5.91-2.56-.72-5.34-1.35-7.42-2.86-1.68-1.22-3.12-3.58-3.46-5.64-.63-3.81.84-5.11 4.71-5.57 6.5-.77 12.59.34 18.56 3.1 3.91 1.81 8.15 3.06 12.35 4.08 3.72.9 5.4-.98 5.1-4.83-.51-6.37-2.79-11.36-9.51-13.37-5.34-1.6-10.67-3.28-15.88-5.24-3.29-1.24-6.71-2.65-9.4-4.81-1.64-1.31-3.38-5.21-2.66-6.18 1.43-1.95 4.54-3.81 6.91-3.75 11.22.28 21.93 3.26 31.48 9.16 3.67 2.27 6.69 5.86 9.39 9.34 2.96 3.8 4.04 8.26 2.72 13.27-1.13 4.31-1.66 8.78-2.19 13.22-.16 1.38.17 3.14.95 4.25 3.58 5.13 7.19 10.27 11.2 15.07 5.56 6.66 6.18 14.03 4.4 22.09-.49 2.23-1.94 2.38-3.55 2.74-6.06 1.35-6.21 1.42-8.76-4.17-1.66-3.64-2.63-7.6-4.26-11.26-2.02-4.53-4.42-8.9-6.93-13.86z"/><path d="m269.57 49.31c.32-2.99.34-6.07 1.09-8.95.38-1.47 1.86-2.95 3.24-3.75.63-.36 2.69.6 3.27 1.5 2.22 3.44 4.31 7.01 6.04 10.71 1.56 3.32 2.82 6.83 3.79 10.37 3.02 11.04 10.2 18.88 19.04 25.56 2.67 2.02 5.27 4.17 7.67 6.5 1.41 1.37 2.62 3.1 3.45 4.88 2.19 4.69.42 7.99-4.66 7.14-5.33-.89-11.32-2.57-15.3-5.93-9.85-8.32-17.82-18.54-23.7-30.13-2.8-5.54-3.92-11.61-3.93-17.9z"/><path d="m206.35 36.46c6.25 3.23 8.93 7.69 9.72 13.28 1.26 8.99.2 17.85-2.64 26.42-.84 2.53-2.33 5.26-4.34 6.91-6.36 5.22-12.93 10.24-19.78 14.79-4.44 2.95-9.8 3.5-15.17 3.34-2.66-.08-4.66-.9-5.05-3.7-.38-2.64-.02-5.09 2.85-6.47 4.63-2.22 9.22-4.52 13.79-6.86 2.18-1.12 4.33-2.32 6.41-3.62 8.74-5.45 9.69-14.06 9.43-23.21-.1-3.55-.36-7.23.42-10.63.78-3.46 2.76-6.63 4.36-10.25z"/><path d="m282.66 229.83c-4.7 3.38-9.97 4.54-15.27 5.1-16.39 1.73-32.76 1.59-49.11-.89-4.21-.64-6.99-4.63-4.63-9.97.32-.72 1.52-1.13 2.39-1.51 5.62-2.44 11.52-2.06 17.44-1.84 14.17.53 28.35 1.07 42.53 1.25 3.46.04 5.14 1.02 5.62 4.35.16 1.08.62 2.13 1.03 3.51z"/></g></svg>