<svg enable-background="new 0 0 400 400" viewBox="0 0 400 400" xmlns="http://www.w3.org/2000/svg"><path d="m289.56 299.28c-5.73 1.08-11.27 2.56-16.9 3.08-10.56.98-21.16 1.49-31.76 2.02-9.38.47-18.78.68-28.16 1.08-.95.04-2.07.28-2.8.83-5.91 4.47-12.77 5.06-19.78 4.94-28.08-.5-56.15-1.03-84.22-1.55-15.66-.29-31.32-.66-46.97-.84-3.5-.04-6-1.18-7.54-4.34-1.53-3.14-.09-5.91 1.16-8.62.33-.71 1.55-1.18 2.46-1.44 9.11-2.64 18.42-3.21 27.88-3.04 14.63.26 29.26.07 44.43.07-.37-13.39-.71-25.94-1.07-39.32-9.44-.19-18.57-.32-27.69-.58-7.57-.22-15.17-.26-22.7-1.03-4.04-.41-7.55-2.63-9.15-6.94-1.1-2.98-.64-4.93 2.5-6.41 8.79-4.15 17.95-3.82 27.29-3.03 8.1.68 16.24.85 24.37 1.06 3.06.08 4.56-1.23 4.66-4.87.26-9.71 1.14-19.41 1.81-29.69-7.17-1.25-14.15-2.72-21.2-3.64-9.16-1.2-17.72-3.76-25.03-9.58-15.26-12.15-20.37-20.19-23.36-40.15-3.96-26.42-2.51-52.63 4.98-78.42.97-3.33 3-5.39 5.58-7.18 15.11-10.46 31.92-13.43 49.86-11 4.16.56 7.41 5.15 6.9 9.41-.09.72-1.05 1.59-1.82 1.94-8.66 3.88-17.74 6.06-27.22 6.53-1.79.09-3.58.11-5.36.29-5.63.57-10.25 3.06-12.44 8.36-1.88 4.54-2.88 9.44-4.4 14.63 3.96 0 6.82-.02 9.69 0 9.95.1 19.91-.04 29.84.47 4.02.21 8.09 1.54 11.89 3.01 1.9.73 3.61 2.67 4.76 4.48 2.88 4.55 1.89 7.13-3.03 9.17-9.31 3.87-18.91 3.88-28.7 2.43-7.41-1.09-14.87-1.76-22.69-.4-.36 9.12-.71 18.13-1.1 28.04 5.35-.27 10.45-.19 15.46-.86 6.19-.82 12.29-2.36 18.46-3.39 2.96-.49 6.02-.87 8.99-.65 7.06.52 10.3 3.61 11.87 10.74-6.43 5.05-13.96 7.08-22.01 7.73-7.12.57-14.24 1.21-21.34 2-1.95.22-3.83 1.07-5.82 1.66.29 6.31 1.71 11.35 7.58 14.99 11.93 7.42 24.95 10.87 38.66 12.1 13.81 1.23 27.47.51 40.63-4.57 4.92-1.9 9.13-4.45 12.14-8.98 2.28-3.43 5.08-6.5 7.99-10.16-17.71-6-35.08-11.88-52.37-17.74-.1-7.52 2.61-9.82 11.4-10.24 9.49-.45 18.27 2.62 27.22 5.02 5.78 1.55 11.66 2.74 17.76 4.15 0-10.55 0-20.58 0-31.25-7.27 0-14.39-.08-21.5.03-4.25.07-8.48.57-12.73.65-8.38.17-13.94-3.12-16.36-9.23-1.03-2.6-.89-4.61 1.98-5.56 3.67-1.22 7.4-3.06 11.14-3.15 10.04-.24 20.11.32 30.16.53 1.45.03 2.96.16 4.33-.19 2.14-.56 3.54-1.78 2.75-4.42-1.19-3.96-1.82-8.13-3.38-11.92-1.61-3.91-4.73-6.82-9.15-7.43-7.86-1.09-15.78-1.8-23.64-2.89-2.27-.31-4.59-1.09-6.6-2.19-2.72-1.49-3.43-4.21-3.16-7.23.24-2.78 1.65-4.28 4.32-5.21 7.12-2.48 14.31-2.66 21.47-.73 7.22 1.95 14.33 4.3 21.41 6.7 1.45.49 2.85 1.72 3.83 2.97 8.91 11.42 13.08 24.73 13.86 38.91 1.32 23.9-1.77 47.3-9.87 69.96-1.83 5.13-4.4 9.16-9.32 12.01-6.77 3.91-13.07 8.62-19.68 12.8-1.73 1.1-3.82 1.84-5.84 2.22-7.01 1.33-14.07 2.43-21.36 3.67-.35 11.09-.69 22-1.06 33.75 8.87.11 17.44.17 26 .33 6.8.13 13.63.03 20.37.7 4.72.47 8.56 3.09 10.75 7.64.97 2.01.76 3.35-1.31 4.7-8.59 5.6-17.93 6.34-27.73 4.76-8.52-1.37-17.05-2.33-25.93-.16-.71 12.98-1.42 25.91-2.14 39.06 9.11 2.48 18.18 2.88 27.33 1.96 5.78-.58 11.53-1.58 17.33-1.91 8.7-.5 16.85 1.66 24.48 6.36 8.98-8.13 20.32-8.34 31.45-9.33 13.15-1.17 26.29-2.37 39.43-3.6 3.78-.35 5.82-3.29 4.12-6.88-1.73-3.66-3.86-7.44-6.75-10.16-6.31-5.95-13.57-10.79-22.41-12.07-5.18-.75-10.52-.31-15.71-.97-6.75-.85-13.48-2.05-20.11-3.54-2.24-.5-4.62-1.97-6.18-3.68-3.72-4.09-2.25-9.05 2.84-10.83 10.3-3.6 20.78-3.06 31.11-.59 10.53 2.52 20.94 5.58 31.32 8.69 2.08.62 4.1 2.23 5.6 3.88 4.25 4.7 8.22 9.67 12.42 14.68 4.36-5.92 6.62-12.42 6.8-19.27.19-7.78-.63-15.6-1.22-23.38-.08-1.09-1.22-2.33-2.18-3.1-9.05-7.21-19.52-9.84-30.95-10.09-12.74-.28-25.47-.97-38.18-1.86-3.59-.25-7.22-1.53-10.59-2.9-3.98-1.62-5.56-7.22-3.32-10.86.47-.76 1.77-1.17 2.77-1.42 15.86-3.87 31.89-3.99 47.99-1.98 12.03 1.51 23.8 4.07 34.94 9.02 1.48.66 2.92 1.62 4.06 2.77 14.65 14.71 18.25 32.08 12.85 51.9-3.34 12.25-7.6 24.04-13.76 35.17-1.08 1.94-1.41 4.71-1.08 6.95 2.06 13.71 4.5 27.36 6.62 41.05 1.77 11.44 2.35 22.92.16 34.4-.9 4.71-3.87 6.72-8.4 5.72-2.13-.47-3.34-1.33-3.75-3.86-3.82-23.28-7.82-46.52-11.78-69.78-.13-.56-.27-1.08-.45-1.89z" fill="#010103"/><path d="m276.25 81.98c-4.92 0-9.84.1-14.75-.05-2.13-.07-2.87.7-3.28 2.73-1.36 6.79-2.96 13.54-4.45 20.3-2.87 13-8.16 24.79-17.13 34.78-2.61 2.91-4.93 6.12-7.81 8.72-1.61 1.46-4.05 2.57-6.21 2.76-5.23.47-8.12-3.07-6.43-8.05 1.27-3.75 2.91-7.7 5.47-10.63 13.37-15.32 18.23-33.46 18.73-53.25.3-11.87-2.89-22.98-6.68-34.02-2.06-6.01-2.82-11.95.95-17.71 1.35-2.07 2.73-2.75 5.24-2.04 7.16 2.01 10.92 6.78 11.76 14.54.65 6.09 1.73 12.14 2.9 18.15.67 3.49 2.71 5.06 6.74 5.3 15.38.9 30.9 1.02 45.89 5.22 5.46 1.53 10.82 3.53 16.09 5.67 7.71 3.14 11.91 9.25 12.05 17.4.1 6.3-1.01 12.64-1.8 18.93-.12.94-1.35 1.93-2.29 2.56-11.01 7.32-23.32 11.01-36.25 13.2-4.9.83-9.83 2.2-14.4 4.14-5.74 2.45-8.92 7.21-9.44 13.6-.16 1.97.42 3.27 2.05 4.51 7.36 5.61 15.73 8.17 24.82 9.16 13.56 1.48 27.09 3.23 40.62 4.94 1.35.17 3.4.49 3.81 1.36 1.03 2.17 1.44 4.68 1.76 7.1.06.49-1.3 1.33-2.13 1.74-8.27 4.07-17.15 5.04-26.16 4.46-17.91-1.16-35.14-5.17-51.15-13.54-1.92-1.01-3.71-2.86-4.81-4.76-6.2-10.63-7.24-21.68-1.89-33.02.38-.8.67-1.76 1.3-2.3 8.41-7.26 17.16-13.72 29.17-13.06 8.76.48 17.06-1.76 25.17-4.82 3.38-1.27 5.35-3.63 5.54-7.25.2-3.76.51-7.35-3.61-9.86-8.14-4.97-17.07-6.38-26.3-6.78-4.36-.19-8.73-.03-13.09-.03 0-.03 0-.07 0-.1z" fill="#010103"/><g fill="#fcfbfa"><path d="m377.9 391.2c-.2.3-.4.5-.6.8-.7-.6-1.4-1-2.2-1.5.2-.3.4-.5.5-.8.6.4 1.4.8 2.3 1.5zm-1.8 6.1c-.2-.2-.5-.4-.9-.6.4-.6.8-1.2 1.2-1.9s.7-1.3.9-1.9c.3.3.5.5.8.7-.7 1.3-1.4 2.6-2 3.7zm2.2-9c-.3.3-.5.5-.6.8-.6-.6-1.3-1.1-2-1.5.3-.3.5-.5.6-.7.6.5 1.3.9 2 1.4zm.3.2v-.9h2 4.5c-.3 1.3-.6 2.5-1 3.6s-.9 2.1-1.4 3c.4.5 1 1 1.6 1.4s1.2.8 1.9 1.1c-.3.2-.5.4-.8.8-.4-.3-1-.7-1.6-1.2s-1.2-1.1-1.6-1.6c-.5.6-1.1 1.1-1.7 1.6s-1.4.9-2.1 1.4c-.1-.3-.3-.5-.7-.8.6-.2 1.2-.5 1.9-1s1.4-1.1 2-1.8c-.5-.8-.9-1.6-1.2-2.5s-.6-2-.8-3.2c-.4.1-.7.1-1 .1zm2.5 2.7c.3 1 .7 1.7 1 2.2.3-.5.6-1.1 1-2s.6-1.9.9-3h-3.2-.4c.1.9.3 1.8.7 2.8z"/><path d="m396.5 388.5v1.5 3.6h1.5v.9c-.4 0-1 0-1.7 0h-7.9c-.5 0-.9 0-1.2 0v-.9h1.3v-3.5c0-.7 0-1.2 0-1.6h2.4c0-.8 0-1.4 0-1.7h1c0 .3-.1.8-.1 1.7h1.5c0-.8 0-1.4 0-1.7h1c0 .3-.1.9-.1 1.7zm-8.2 9.2c-.2-.3-.5-.5-.8-.8.8-.3 1.4-.6 1.9-.9s1-.7 1.4-1.1c.3.3.6.5.9.8-1.6 1-2.8 1.6-3.4 2zm2.6-6.8v-1.6h-1.5v1.6zm0 2.7v-1.9h-1.5v1.9zm2.4-2.7v-1.6h-1.5v1.6zm0 2.7v-1.9h-1.5v1.9zm.2 2 .7-.8c.4.2.9.5 1.6.8s1.3.7 1.8 1c-.3.3-.5.5-.8.8-.4-.3-1.5-1-3.3-1.8zm2-4.7v-1.6h-1.4v1.6zm0 2.7v-1.9h-1.4v1.9z"/></g></svg>