<svg enable-background="new 0 0 400 400" viewBox="0 0 400 400" xmlns="http://www.w3.org/2000/svg"><g fill="#010103"><path d="m141.03 280.62c11.66.95 22.98 1.86 35.27 2.86 0-6.77-.01-13.23 0-19.68.01-2.68-.16-5.39.16-8.04.22-1.83.86-3.73 1.78-5.33 1.78-3.11 5.02-4 8.14-3.28 1.42.33 2.77 2.57 3.45 4.23 4.13 10.06 4.8 20.65 4.07 31.33-1.23 17.83-5.01 35.1-10.98 52-3.96 11.21-12.52 17.28-22.47 21.63-21.12 9.23-42.15 8.52-62.03-3.43-4.49-2.7-7.79-7.89-10.79-12.48-7.4-11.35-11.02-24.13-12.93-37.43-2.31-16.05-2.84-32.11.88-48.03 2.02-8.67-.25-6.82 9.3-8.83 2.92 5.14 3.84 10.75 3.83 16.64 0 5.02.08 10.05.44 15.05.07 1.03 1.52 2.78 2.36 2.8 10.84.19 21.68.13 32.87.13 0-.02.23-.75.25-1.48.29-9.73.45-19.47.87-29.2.11-2.46-.77-3.51-2.93-4.39-6-2.44-11.75-5.63-17.88-7.61-9.9-3.2-15.11-10.6-19.15-19.34-3.68-7.97-4.78-16.48-5.16-25.14-.43-9.88.3-19.64 2.15-29.38.85-4.46 4.29-3.44 6.86-4.21 2.54-.76 2.44 1.82 2.97 3.15 4.42 11.17 6.57 22.82 5.77 34.8-1.15 17.21 8.97 27.07 26.58 31.18 0-4.99-.05-9.86.01-14.72.24-19.58.41-39.17.86-58.75.09-3.72-.91-5.31-4.55-6.57-10.25-3.54-19.46-9.07-24.67-18.97-2.64-5.02-4.3-10.79-5.27-16.41-1.06-6.13-.97-12.49-1.04-18.75-.03-2.97-1.47-4.44-3.95-4.87-3.38-.58-6.83-.86-10.26-.98-2.56-.09-5.13.42-7.7.39-5.11-.05-8.64-5.1-6.98-9.86.2-.56.71-1.17 1.24-1.44 3.56-1.8 6.95-3.56 11.29-3.54 34.71.15 69.42.01 104.12.02 4.24 0 8.51.19 12.72.66 1.79.2 4.03.9 5.08 2.18 1.66 2.05 3.16 4.71 3.37 7.23.09 1.09-3.04 3.1-4.98 3.58-3.87.94-7.92 1.16-11.91 1.58-5.71.6-6.13.61-5.62 6.12 1.06 11.4-2.37 21.96-5.8 32.43-2.83 8.63-9.14 14.74-17.34 18.71-3.42 1.65-6.99 2.98-10.39 4.68-.87.44-1.91 1.68-1.92 2.56-.1 24.51-.08 49.01-.08 74.05 5.3-1.24 10.35-2.38 15.36-3.65.65-.16 1.25-.92 1.67-1.53 8.02-11.53 13.67-23.81 12.8-38.36-.32-5.24-.1-10.52-.03-15.78.05-4.36 3.13-8.2 7.14-9.02 2.68-.55 4.98-.16 5.76 2.95 1.2 4.75 3 9.47 3.33 14.29.99 14.25-1.49 28.07-6.57 41.41-1.82 4.77-4.94 8.53-8.37 12.34-6.3 7.02-14.21 10.43-22.94 12.88-6.3 1.77-6.32 1.98-6.68 8.38-.52 9.24-.91 18.51-1.38 28.24zm-49.69 16.26c-.97 12.41 3.47 26.09 10.84 36.33 3.94 5.48 8.83 9.37 15.22 11.48 17.39 5.73 32.25-.04 46.07-10.22 1.91-1.41 4.03-3.21 4.86-5.31 2.47-6.22 4.77-12.57 6.29-19.07.85-3.63.13-7.66-.14-11.5-.13-1.9-1.34-2.56-3.5-2.49-12.41.39-24.83.65-37.24.75-14.08.13-28.16.03-42.4.03zm15.06-206.57c-.89 11.03-.57 21.6 4.32 31.4 1.69 3.39 4.06 7.12 7.15 8.99 5.75 3.49 12.45 4.75 19.33 4.02 10.54-1.12 18.38-7.87 20.79-18.13 1.1-4.67 2.07-9.38 2.76-14.12.52-3.56.5-7.2.74-11.07-18.73-.38-36.67-.73-55.09-1.09z"/><path d="m262.15 24.98c6.9 4.81 9.39 11.86 9.49 19.54.1 7.91-1.08 15.82-1.4 23.74s-.32 15.86-.33 23.79c0 3.23 1.33 5.46 4.65 6.86 21.63 9.13 37.16 25.69 51.7 43.3 4.43 5.36 8.01 11.44 8.21 18.72.05 2-.44 4.61-1.73 5.92-2.2 2.22-5.05 1.12-7.32-.58-1.41-1.05-2.68-2.35-3.84-3.68-10.55-12.04-20.86-24.29-31.64-36.12-11.17-12.25-24.97-14.74-39.56-7.69-1.66.8-3.31 1.96-4.51 3.34-11.75 13.66-23.39 27.41-35.07 41.13-1.52 1.78-3 3.65-4.74 5.2-3.11 2.75-7.38 3.16-10.9 1.03-.87-.53-1.8-1.96-1.71-2.87.35-3.39.38-7.11 1.88-10.01 2.54-4.91 5.81-9.53 9.29-13.85 5.82-7.23 12.06-14.13 18.11-21.17 8.67-10.09 19.85-16.98 30.91-23.99 1.93-1.22 2.84-2.55 2.72-4.84-.58-11.05-.88-22.12-1.65-33.16-.72-10.4-.64-20.59 4.42-30.09.47-.89.99-1.75 1.55-2.59.41-.65.92-1.22 1.47-1.93z"/><path d="m260.99 129.62c3.52 1.02 6.05 3.05 6.97 6.12 1.43 4.76 3.1 9.73 3.11 14.61.06 25.4-.37 50.8-.65 76.19-.48 43.86-.97 87.72-1.47 131.58-.05 4.14-.34 8.28-.21 12.41.11 3.42-2.23 4.1-4.64 4.57-2.82.55-5.75-1.2-6.36-3.44-2.5-9.26-3.07-18.73-3.03-28.27.22-50.58.51-101.16.59-151.75.01-9.39-.78-18.78-1.37-28.16-.74-11.83.66-23.18 7.06-33.86z"/><path d="m133.04 37.64c11.97 0 23.94-.07 35.9.06 2.18.02 4.38.79 6.53 1.36 2.9.77 4.6 2.66 4.77 5.73.16 3.03-1.09 5.31-4.06 6.12-3.31.9-6.7 1.92-10.08 2.04-14.07.49-28.15.66-42.23.96-9.98.21-19.85-.24-29.5-3.33-4.02-1.29-2.24-4.54-3.14-6.86-.77-1.97.6-2.87 2.13-3.88 2.92-1.93 5.98-2.59 9.48-2.53 10.07.17 20.14.06 30.21.06-.01.08-.01.17-.01.27z"/></g><path d="m377.9 391.2c-.2.3-.4.5-.6.8-.7-.6-1.4-1-2.2-1.5.2-.3.4-.5.5-.8.6.4 1.4.8 2.3 1.5zm-1.8 6.1c-.2-.2-.5-.4-.9-.6.4-.6.8-1.2 1.2-1.9s.7-1.3.9-1.9c.3.3.5.5.8.7-.7 1.3-1.4 2.6-2 3.7zm2.2-9c-.3.3-.5.5-.6.8-.6-.6-1.3-1.1-2-1.5.3-.3.5-.5.6-.7.6.5 1.3.9 2 1.4zm.3.2v-.9h2 4.5c-.3 1.3-.6 2.5-1 3.6s-.9 2.1-1.4 3c.4.5 1 1 1.6 1.4s1.2.8 1.9 1.1c-.3.2-.5.4-.8.8-.4-.3-1-.7-1.6-1.2s-1.2-1.1-1.6-1.6c-.5.6-1.1 1.1-1.7 1.6s-1.4.9-2.1 1.4c-.1-.3-.3-.5-.7-.8.6-.2 1.2-.5 1.9-1s1.4-1.1 2-1.8c-.5-.8-.9-1.6-1.2-2.5s-.6-2-.8-3.2c-.4.1-.7.1-1 .1zm2.5 2.7c.3 1 .7 1.7 1 2.2.3-.5.6-1.1 1-2s.6-1.9.9-3h-3.2-.4c.1.9.3 1.8.7 2.8z" fill="#fcfbfa"/><path d="m396.5 388.5v1.5 3.6h1.5v.9c-.4 0-1 0-1.7 0h-7.9c-.5 0-.9 0-1.2 0v-.9h1.3v-3.5c0-.7 0-1.2 0-1.6h2.4c0-.8 0-1.4 0-1.7h1c0 .3-.1.8-.1 1.7h1.5c0-.8 0-1.4 0-1.7h1c0 .3-.1.9-.1 1.7zm-8.2 9.2c-.2-.3-.5-.5-.8-.8.8-.3 1.4-.6 1.9-.9s1-.7 1.4-1.1c.3.3.6.5.9.8-1.6 1-2.8 1.6-3.4 2zm2.6-6.8v-1.6h-1.5v1.6zm0 2.7v-1.9h-1.5v1.9zm2.4-2.7v-1.6h-1.5v1.6zm0 2.7v-1.9h-1.5v1.9zm.2 2 .7-.8c.4.2.9.5 1.6.8s1.3.7 1.8 1c-.3.3-.5.5-.8.8-.4-.3-1.5-1-3.3-1.8zm2-4.7v-1.6h-1.4v1.6zm0 2.7v-1.9h-1.4v1.9z" fill="#fcfbfa"/></svg>