<svg enable-background="new 0 0 400 400" viewBox="0 0 400 400" xmlns="http://www.w3.org/2000/svg"><path d="m361.2 9.6.8-1c.9.7 1.9 1.4 2.9 2.3l-.9 1.1c-1-1-2-1.8-2.8-2.4zm.5 10.6c.9-2.1 1.6-4.3 2.3-6.7.4.2.8.4 1.3.6-.7 2.1-1.5 4.3-2.2 6.6zm.4-15.2.9-.9c1 .8 2 1.6 2.8 2.4l-1 1c-.9-.9-1.8-1.7-2.7-2.5zm12.5-1.2h1.2v1.4h2.7v1.1h-2.7v2.7h-1.2v-.6h-1.8v1.3h4.9v3.8h-1.2v-.5h-3.7c0 .4-.1.9-.1 1.2h5.1v1h-5.2c0 .5-.1.9-.2 1.2h6v1h-5.2c1.1 1.3 2.9 2 5.5 2.2-.4.4-.7.8-.9 1.3-2.9-.5-4.8-1.6-5.7-3.5h-.1c-.8 1.7-2.7 2.9-5.9 3.6-.2-.4-.6-.8-.9-1.1 2.8-.6 4.6-1.4 5.4-2.5h-4.8v-1h5.3c.1-.3.2-.7.2-1.2h-4.9v-1h5c0-.4 0-.8.1-1.2h-3.5v.5h-1.2v-3.8h4.9v-1.3h-1.8v.5h-1.2v-2.7h-2.7v-1h2.6v-1.4h1.2v1.4h4.7v-1.4zm-6.6 8.3h3.6c0-.4 0-.9 0-1.4h-3.6zm1.9-4.6h4.7v-1.3h-4.7zm6.6 3.2h-3.7v1.4h3.7z" fill="#fbfcfa"/><path d="m385.3 3.8h1.3v2.2h2.8v-2.2h1.3v2.2h4.1v9.1h1.7v1.3h-16.9v-1.3h1.7v-9.1h4.1v-2.2zm.4 13.1.7 1.2c-1.8.9-3.8 1.9-6 2.9-.2-.4-.5-.8-.8-1.3 2.3-1 4.3-1.9 6.1-2.8zm-3.1-6.4h2.8v-3.2h-2.8zm0 4.6h2.8v-3.3h-2.8zm4-4.6h2.8v-3.2h-2.8zm0 4.6h2.8v-3.3h-2.8zm3.7 1.9c2.1.9 4.1 1.8 6.1 2.7l-.7 1.3c-2.2-1.1-4.2-2-6.1-2.9zm3.2-9.7h-2.8v3.2h2.8zm-2.8 7.8h2.8v-3.3h-2.8z" fill="#fbfcfa"/><g fill="#010102"><path d="m238.86 254.48c-7.15 4.42-14.86 6.49-22.9 5.44-8.38-1.09-16.6-3.32-24.91-5.01-6.45-1.31-9.56-5.97-11.09-11.71-.9-3.37-1.04-7.02-.96-10.54.08-3.51 1.92-6.23 5.01-8.22 2.99-1.92 5.72-4.25 9.32-6.97-4.11-.34-7.43-.67-10.77-.87-1.9-.11-3.81-.09-5.71-.01-4.81.21-9.02-.61-10.78-7.02-4.33 19.93-15.83 31.1-35.62 33.71v35.11c5.69 0 11.68-.03 17.66.01 7.02.04 7.15.07 7.74-7.09.31-3.77.03-7.6.1-11.39.04-2.34-.05-4.73.39-7 .72-3.68 3.97-5.9 7.7-5.49.73.08 1.8.65 2.02 1.25 1.18 3.22 2.7 6.46 3.07 9.8.88 7.88 1.16 15.82 1.72 23.73 1.32 18.73-1.72 36.78-8.47 54.24-.38.98-1.15 1.9-1.94 2.63-14.08 13.01-30.56 16.35-48.91 12.02-1.41-.33-2.79-.85-4.21-1.13-12.88-2.54-18.51-11.92-22.3-23.25-5.67-16.95-6.09-34.2-3.82-51.73.94-7.32 1.3-14.71 1.86-22.07.31-4.02 5.54-7.22 9.14-5.38.73.38 1.38 1.56 1.48 2.43.67 5.97 1.29 11.95 1.7 17.94.23 3.43.04 6.88.04 10.51h20.45c.07-.95.21-1.91.21-2.87.02-10.41-.05-20.83.06-31.24.02-2.15-.57-3.26-2.72-3.76-2.06-.49-3.99-1.51-6.04-2-14.28-3.39-21.59-13.66-25.68-26.64-4.68-14.84-4.49-29.91-1.18-45.09 1.09-5.02 4.19-6.22 8.72-6.56 3.57 7.32 5.49 15.18 5.85 23.38.19 4.23-.04 8.51-.45 12.73-1.23 12.57 3.67 21.47 15.77 28.14 1.35.74 2.77 1.37 4.49 2.21.13-1.15.3-1.96.32-2.79.51-19.13.97-38.27 1.56-57.4.07-2.31-.61-3.63-2.6-4.84-3.52-2.15-6.9-4.58-10.2-7.06-5.38-4.06-8.29-9.57-8.91-16.26-.72-7.8-1.48-15.6-1.96-23.42-.17-2.8-1.24-4.19-3.95-4.19-2.89 0-5.79.03-8.66.29-2.97.26-5-.57-5.83-3.66-1.1-4.12-.53-6.31 2.86-7.62 2.73-1.06 5.71-1.99 8.59-2.01 20.71-.17 41.42-.12 62.13-.06 3.46.01 6.95.15 10.36.67 1.88.29 3.97 1.11 5.36 2.36 3.27 2.96 2.64 6.8-1.49 7.83-7.2 1.8-9.99 5.66-9.87 13.31.11 7.06-1.81 14.15-2.87 21.22-.91 6.1-4.57 10.27-9.53 13.56-3.43 2.27-8.13 3.95-9.81 7.17-1.69 3.25-.41 8.08-.35 12.22.22 15.67.48 31.34.73 47.01.01.77.12 1.53.19 2.35 6.97-1.07 12.88-3.18 16.06-10.29 2.36-5.26 4.5-10.4 4.79-16.25.44-9.05 1.05-18.09 1.79-27.12.18-2.18 1.08-4.32 1.69-6.46.85-2.93 2.79-4.4 5.88-4.56 3.01-.16 3.65 2.13 4.52 4.13 4.16 9.65 4.03 19.58 1.79 29.63-.82 3.69-1.64 7.37-2.42 10.92 8.06-1.01 15.97-1.99 24.21-3.02-.25-4.11-.5-8.21-.75-12.41-4.63-.83-9.14-1.52-13.58-2.49-1.29-.28-3.09-1.14-3.41-2.14-.31-.96.79-2.59 1.61-3.66 1.64-2.15 3.95-2.91 6.69-3.15 13.74-1.2 27.46-1.8 41.18.22.44.07.95.02 1.32.23 1.75 1.01 3.47 2.08 5.2 3.13-1.47 1.65-2.68 4.27-4.47 4.77-4.99 1.38-10.23 1.92-15.38 2.7-1.29.2-2.64.03-4.19.03v10.86c5.63 0 11.29-.02 16.95.01 1.94.01 4.21-.61 4.94 2.17.66 2.52-.71 4.26-2.66 5.24-3.37 1.69-6.91 3.08-10.42 4.46-2.23.88-4.55 1.52-6.7 2.72 7.37-1.22 14.76-2.39 22.11-3.74 1.03-.19 2.2-1.08 2.77-1.99 3.02-4.79 4.29-10.13 3.68-15.71-.59-5.43-1.58-10.83-2.61-16.2-.19-.98-1.23-2.07-2.16-2.6-6.43-3.68-13.35-5.59-20.81-5.51-9.17.1-18.34.09-27.5.13-5.73.02-8.67-2.18-8.82-6.46-.07-2.16.56-3.81 2.77-4.33 4.87-1.13 9.75-2.9 14.67-3.06 15.4-.5 30.55 1.59 45.41 5.76 2.99.84 5.03 2.57 6.73 5.1 3.79 5.64 5.74 11.91 6.3 18.55.88 10.49.02 20.82-4.58 30.49-.8 1.68-2.3 3.32-3.9 4.27-8.1 4.81-17.16 6.82-26.25 8.83-4.55 1.01-9.09 2.39-13.32 4.3-2.14.96-3.88 3.27-5.24 5.35-1.16 1.77-.83 3.73 1.96 4.07 6.3.77 12.58 1.68 18.9 2.28 4.99.47 10.08.13 15 .93 4.48.72 7.41 3.82 8.14 8.95zm-143.6 38.02c-.15 2.08-.35 3.64-.36 5.2-.13 10.9.02 21.79 6.3 31.37 1.41 2.15 3.21 4.63 5.42 5.56 7.48 3.15 15.43 4.49 23.59 4.1 7.12-.34 12.95-3.59 18.42-7.95 4.14-3.3 3.89-8.03 5-12.36.14-.54.27-1.09.33-1.64.76-6.54 1.82-13.06 2.15-19.62.22-4.3-.61-4.65-4.92-4.65-17.34 0-34.68 0-52.02 0-1.21-.01-2.42-.01-3.91-.01zm13.13-180.17c-.8 10.32-.95 20.81 4.69 30.33 1.27 2.15 3.39 4.35 5.63 5.26 7.51 3.05 15.38-1.05 17.57-8.94 1.46-5.26 2.67-10.61 3.63-15.98.49-2.71.34-5.58.13-8.34-.06-.82-1.34-2.21-2.08-2.22-9.71-.16-19.41-.11-29.57-.11z"/><path d="m251.04 316.98c6.8-12.88 9.14-26.58 9.41-40.83.15-7.96 4.18-12.79 11.7-14.19 2.71-.5 5.77.15 8.54.82 13.01 3.14 22.18 11.35 28.38 22.85 7.65 14.21 12.09 29.35 11.1 45.69-.22 3.66-.91 7.32-1.7 10.91-.21.97-1.55 2.33-2.44 2.38-2.07.11-4.91 2.36-6.16-.93-1.36-3.57-2.93-7.36-3-11.08-.29-15.85-4.04-30.58-13.15-43.64-2.45-3.51-5.63-6.69-9-9.35-4.02-3.17-7.15-2.04-8.53 2.94-1.16 4.17-1.78 8.54-2.17 12.87-1.04 11.45-5.24 21.65-11.68 31.03-.51.74-1.04 1.46-1.57 2.17-2.02 2.71-2.31 5.01.22 7.96 6.56 7.68 14.69 13.34 22.71 19.26 5.16 3.8 9.91 8.32 14.19 13.11 3.03 3.39 2.21 4.75-2.15 6.41-3.3 1.25-6.71 1.43-9.77-.25-18.82-10.32-36.51-22.09-47.14-41.56-5.29-9.69-7.34-20.56-9.35-31.36-.81-4.37-1.97-8.71-3.34-12.94-1-3.06-3.29-5.15-6.76-5.09-3.68.06-7.06.97-9.16 4.44-6.39 10.59-7.39 22.27-7.39 34.29 0 5.4-.75 10.91-2 16.17-1.04 4.36-4.42 7.12-9.28 8-2.79-4.92-3.99-10.23-4.26-15.71-.73-14.97 2.47-29.37 7.07-43.46 1.37-4.19 3.58-8.18 5.87-11.98 4.02-6.66 10.02-9.3 17.75-7.64 1.53.33 3.06.68 4.6.93 13.71 2.24 18.61 12.43 21.76 24.15 1.85 6.89 3.59 13.82 5.44 20.71.23 1.02.83 1.97 1.26 2.92z"/><path d="m182.28 90.12c-3.69 1.19-7.09 2.3-10.49 3.37-2.74.86-5.58-.66-5.07-3.22.57-2.86 1.72-6.54 3.88-8 11.02-7.45 22.34-14.47 33.79-21.25 3.18-1.88 7.14-2.45 10.76-3.55 2.67-.81 5.38-1.51 8.07-2.27 6.35-1.79 6.28-1.8 6.72-8.55.37-5.67.85-11.33 1.46-16.97.16-1.51.96-2.95 1.44-4.36 6.99.03 10.92 4.36 10.34 11.08-.38 4.45-.78 8.9-.91 13.36-.09 3.02 1.07 4.8 4.7 4.98 16.31.78 31.23 6.45 45.43 14.04 4.35 2.32 8.27 5.71 11.8 9.2 2.08 2.06 2.99 5.28 4.52 8.14-5.38 2.56-10.16 1.9-14.69.27-5.34-1.93-10.46-4.48-15.68-6.75-5.12-2.22-10.23-4.49-15.39-6.63-9.4-3.91-19.3-3.56-29.1-2.78-17.01 1.36-32.2 7.95-46.33 17.22-.26.17-.44.45-1.01 1.05 4.68 1.32 6 4.61 6.53 8.98.64 5.23 1.42 5.53 6.55 6.03 5.45.53 10.92.99 16.36 1.64 1.83.22 2.62-.17 2.92-2.09.46-2.98 1.22-5.91 1.92-8.85.65-2.72 2.44-4.05 5.22-4.39 2.85-.35 4.2 1.08 5.34 3.44 4.24 8.73 3.93 17.75 1.96 26.9-.61 2.84-1.51 5.63-1.94 8.5-1.19 7.91-6.25 12.18-13.29 14.85-7.28 2.75-14.59 3.13-21.99.69-9.03-2.98-12.34-10.44-14.26-18.75-2.44-10.54-1.56-21.12.29-31.66.14-.77.24-1.55.32-2.33.02-.34-.08-.67-.17-1.34zm13.68 28.22c.73 3.54 1.33 6.72 2.09 9.86.19.77.76 1.78 1.42 2.06 4.72 2.01 9.45 2.4 14.21-.07 4.43-2.3 4.34-6.51 5.14-10.81-7.79-.36-15.22-.69-22.86-1.04z"/><path d="m266.32 173.25c-4.48-3.59-8.87-6.86-12.97-10.47-3.78-3.33-4.76-7.6-2.88-11.47.42-.86 1.69-1.77 2.63-1.84 5.18-.4 9.57 1.89 13.58 4.8 3.52 2.55 6.76 5.5 10.43 8.52 3.22-3.1 6.42-6.18 9.62-9.26 2.58-2.49 5.14-4.98 7.71-7.48 2.65-2.58 5.22-2.97 8.34-1.19 2.87 1.63 3.09 4.34 2.23 7.03-.69 2.15-1.66 4.4-3.11 6.1-4.27 5.01-8.83 9.76-13.39 14.72 4.46 3.27 8.82 6.32 13.02 9.58 4.17 3.23 7.41 7.23 7.95 12.69.14 1.38-.47 3.28-1.43 4.27-5.21 5.38-10.62 10.58-16.01 15.78-1.2 1.16-2.63 2.08-4.07 3.2 5.08 4.02 9.51 7.39 13.8 10.95 4.04 3.36 7.27 7.35 7.78 12.83.1 1.01-.63 2.57-1.47 3.11-2.73 1.74-5.84 1.86-8.6.16-3.12-1.92-6.07-4.16-8.97-6.42-3.87-3.03-7.62-6.22-11.51-9.41-3.98 4.34-7.84 8.64-11.79 12.85-3.3 3.52-7.29 5.42-12.25 5.11-3.95-.25-5.88-2.14-5.05-6.02.57-2.63 1.7-5.4 3.37-7.48 4.12-5.14 8.68-9.92 12.94-14.69-3.94-3.48-7.88-6.72-11.54-10.25-4.87-4.7-5.54-10.53-3.66-16.74.5-1.65 1.43-3.29 2.55-4.6 4.14-4.86 8.45-9.56 12.75-14.38zm13.52 10.99c-5.56 5.09-10.88 9.96-16.34 14.95 4.46 3.5 8.63 6.77 12.13 9.5 5.34-5.32 10.35-10.3 15.45-15.38-3.83-3.08-7.97-6.43-11.24-9.07z"/><path d="m280.71 103.03c.66-3.06 1.37-6.44 2.12-9.81.64-2.87 2.12-4.84 5.34-5.13 2.52-.23 4.02.52 5.16 3 4.3 9.35 3.74 18.91 1.75 28.59-.72 3.5-1.83 6.92-2.46 10.43-1.71 9.61-8.63 13.32-17.1 14.96-6.09 1.18-12.2.64-18.22-1.21-4.81-1.48-8.01-4.48-10.29-8.87-5.57-10.74-5.21-22.22-4.44-33.76.19-2.89.7-5.77 1.24-8.62.59-3.1 3.26-5.43 5.6-5.12 3.99.53 6.25 2.87 6.31 6.52.02 1.34-.09 2.7.13 4.01.6 3.6 2.24 4.97 5.87 5 6.16.04 12.29.01 18.99.01zm-22.51 13.21c.81 4.53 1.5 8.46 2.25 12.37.09.47.47 1.01.87 1.29 3.15 2.12 13.89 1.93 16.25-.98 1.71-2.11 2.45-5.33 2.7-8.14.09-1.08-2.3-3.26-3.73-3.42-5.93-.68-11.93-.79-18.34-1.12z"/><path d="m83.17 75.2c0-1.69 0-3.13 0-4.58 0-4.26 2.23-6.74 6.61-6.75 19.14-.05 38.28-.04 57.43.13 2.97.03 5.97.82 8.89 1.53 2.72.65 4.53 2.37 4.71 5.38.19 3.12-1.85 4.51-4.4 4.88-8.6 1.26-17.21 2.93-25.86 3.26-14.64.56-29.31.07-43.76-2.88-1.1-.23-2.17-.58-3.62-.97z"/></g></svg>