<svg enable-background="new 0 0 400 400" viewBox="0 0 400 400" xmlns="http://www.w3.org/2000/svg"><path d="m361.2 9.6.8-1c.9.7 1.9 1.4 2.9 2.3l-.9 1.1c-1-1-2-1.8-2.8-2.4zm.5 10.6c.9-2.1 1.6-4.3 2.3-6.7.4.2.8.4 1.3.6-.7 2.1-1.5 4.3-2.2 6.6zm.4-15.2.9-.9c1 .8 2 1.6 2.8 2.4l-1 1c-.9-.9-1.8-1.7-2.7-2.5zm12.5-1.2h1.2v1.4h2.7v1.1h-2.7v2.7h-1.2v-.6h-1.8v1.3h4.9v3.8h-1.2v-.5h-3.7c0 .4-.1.9-.1 1.2h5.1v1h-5.2c0 .5-.1.9-.2 1.2h6v1h-5.2c1.1 1.3 2.9 2 5.5 2.2-.4.4-.7.8-.9 1.3-2.9-.5-4.8-1.6-5.7-3.5h-.1c-.8 1.7-2.7 2.9-5.9 3.6-.2-.4-.6-.8-.9-1.1 2.8-.6 4.6-1.4 5.4-2.5h-4.8v-1h5.3c.1-.3.2-.7.2-1.2h-4.9v-1h5c0-.4 0-.8.1-1.2h-3.5v.5h-1.2v-3.8h4.9v-1.3h-1.8v.5h-1.2v-2.7h-2.7v-1h2.6v-1.4h1.2v1.4h4.7v-1.4zm-6.6 8.3h3.6c0-.4 0-.9 0-1.4h-3.6zm1.9-4.6h4.7v-1.3h-4.7zm6.6 3.2h-3.7v1.4h3.7z" fill="#fbfcfa"/><path d="m385.3 3.8h1.3v2.2h2.8v-2.2h1.3v2.2h4.1v9.1h1.7v1.3h-16.9v-1.3h1.7v-9.1h4.1v-2.2zm.4 13.1.7 1.2c-1.8.9-3.8 1.9-6 2.9-.2-.4-.5-.8-.8-1.3 2.3-1 4.3-1.9 6.1-2.8zm-3.1-6.4h2.8v-3.2h-2.8zm0 4.6h2.8v-3.3h-2.8zm4-4.6h2.8v-3.2h-2.8zm0 4.6h2.8v-3.3h-2.8zm3.7 1.9c2.1.9 4.1 1.8 6.1 2.7l-.7 1.3c-2.2-1.1-4.2-2-6.1-2.9zm3.2-9.7h-2.8v3.2h2.8zm-2.8 7.8h2.8v-3.3h-2.8z" fill="#fbfcfa"/><g fill="#010102"><path d="m114.64 260.49c0-10.06.06-19.56-.1-29.06-.02-.92-1.22-2.25-2.19-2.66-4.73-2-9.47-4.09-14.4-5.5-7.25-2.07-11.33-7.17-14.41-13.5-3.43-7.05-4.92-14.59-5.51-22.34-.99-13.09-1.07-26.15.58-39.22.4-3.13 1.67-4.82 4.56-5.69 1.59-.48 3.07-1.29 4.86-2.07 3.23 6.71 5.25 13.69 5.64 20.93.45 8.36.08 16.75.09 25.13.02 12.91 7.95 23.02 20.71 25.62 0-12-.02-23.85.01-35.69.02-8.29.02-16.57.21-24.86.05-2.18-.73-3.39-2.43-4.66-4.58-3.39-9.15-6.85-13.38-10.66-6.5-5.86-9.94-13.43-10.82-22.08-.52-5.12-.79-10.28-.81-15.42-.01-2.65-1.19-3.8-3.46-3.86-3.33-.08-6.72-.15-9.98.38-7.18 1.16-12.03-2.93-11.65-10.3.03-.64.46-1.57.98-1.84 3.15-1.61 6.12-3.31 10-3.28 25.97.17 51.94.07 77.91.1 6.36.01 12.74-.06 19.09.24 6.03.28 8.81 3.3 8.59 8.48-.08 1.94-.74 2.96-2.78 3.36-5.15 1.01-10.25 2.33-15.4 3.33-1.78.35-2.23 1.06-2.43 2.83-.87 7.78-1.69 15.57-3.06 23.27-1.56 8.74-6.38 15.83-14.27 19.7-8.52 4.18-11.57 9.81-10.97 19.45.96 15.51.26 31.12.26 46.68v3.58c8.96 1 13.36-2.19 17.47-12.06 3.34-8.01 4.1-16.48 4.57-24.96.48-8.6.3-17.23.88-25.82.14-2.12 1.63-4.77 3.35-6.03 3.7-2.72 5.71-1.9 7.71 2.21 5.42 11.16 6.33 22.94 4.86 35.07-1.23 10.14-3.09 20.12-7.12 29.57-.72 1.68-1.93 3.21-3.13 4.61-1.16 1.35-2.75 2.33-3.9 3.69-5.51 6.49-12.2 10.57-20.94 10.95-.92.04-2.52 1.37-2.56 2.16-.53 9.59-.83 19.19-1.2 29.11 7.78.34 15.32.67 23.4 1.03.37-5.56.72-10.77 1.06-15.98.13-2.01.1-4.04.37-6.03.42-3.1 1.92-5.51 5.11-6.42 2.85-.81 4.92-.48 6.35 2.86 4.09 9.56 5.65 19.55 5.6 29.8-.1 19.48-3.15 38.49-8.92 57.14-2.75 8.87-8.64 14.13-16.58 17.61-13.46 5.9-27.37 6.4-41.28 1.99-4.58-1.45-9.1-3.8-11.82-8.31-.57-.96-1.21-1.91-1.99-2.7-8.56-8.63-10.99-19.67-12.28-31.15-1.8-16.06-2.6-32.14-.78-48.25.47-4.21 1.13-8.44 2.19-12.54.48-1.87 1.82-3.83 3.33-5.07 4.25-3.49 7.57-2.49 8.58 2.81 1.26 6.57 2.01 13.26 2.6 19.93.29 3.31 1.2 4.74 4.81 4.47 4.56-.34 9.16-.08 14.82-.08zm-18.69 16.48c-.19 1.87-.44 3.51-.52 5.17-.72 13.56-.02 26.83 7.13 38.98 1.2 2.04 2.67 3.08 4.9 3.47 5.28.91 10.54 1.94 15.82 2.89 7.21 1.3 14.01.09 20.37-3.48 1.02-.57 2.16-1.39 2.62-2.39 1.91-4.14 4.65-8.26 5.12-12.61 1.14-10.4 1.18-20.93 1.65-31.4.01-.16-.24-.33-.47-.62-18.69-.01-37.47-.01-56.62-.01zm26.48-181.77c-5.48 0-10.97.05-16.45-.03-1.83-.03-2.6.61-2.69 2.48-.36 7.34-.09 14.69 3.07 21.38 1.96 4.15 4.44 8.78 8.02 11.28 8.21 5.72 19.79 1.14 23.12-8.37 1.44-4.11 2.84-8.27 3.72-12.52.74-3.55.86-7.27.93-10.92.04-2.38-1.39-3.44-3.94-3.36-5.26.17-10.52.06-15.78.06z"/><path d="m221.18 288.19c.72-11.3 1.3-22.46 2.19-33.59.4-5.1 1.02-10.25 2.22-15.21 1.13-4.7 3.85-8.51 8.83-10.21 2.47-.84 3.77-.46 4.64 2.31 2.44 7.79 2.18 15.7 1.58 23.63-.74 9.82-1.85 19.61-2.53 29.43-.3 4.34-.03 8.72.18 13.08.06 1.28.56 2.67 1.26 3.75 1.8 2.77 4.67 2.85 6.8.38 7.66-8.86 11.03-19.15 9.68-30.75-1.15-9.87-3.04-19.66-4.15-29.54-.37-3.29-.1-7.07 1.19-10.05 2.31-5.31 7.48-5.47 10.63-.78 5.39 8.01 6.89 17.19 7.31 26.51.38 8.25.07 16.54-.02 24.81-.03 3.29 1.2 4.91 4.28 4.18 16.16-3.84 26.49-13.99 18.88-32.49-2.37-5.77-5.41-11.31-8.56-16.7-13-22.3-10.8-49.11 5.98-68.8 2.75-3.22 5.99-6.01 8.91-9.1 2.2-2.33 4.55-1.2 6.8-.41 2.3.81 3.99 2.63 3.46 5.1-.57 2.63-1.35 5.6-3.05 7.55-16.48 18.94-18.81 39.06-6.96 61.02 3.23 5.99 6.06 12.2 8.98 18.36 9.79 20.59-2.87 45.75-27.58 50.38-4.13.77-8.47.34-12.69.71-1.4.12-3.09.67-4.04 1.63-5.74 5.81-11.27 11.83-16.96 17.69-1.39 1.43-1.4 2.4-.52 4.26 5.09 10.67 13.66 18.06 22.7 25.12 3.87 3.02 7.63 6.26 11 9.82 2.18 2.3 3.85 5.21 5.24 8.1 1.66 3.44 1.12 4.94-2.61 5.95-2.49.68-5.71.76-8-.24-6.76-2.96-13.04-6.76-18.12-12.4-5.9-6.57-12.39-12.62-18.2-19.26-4.73-5.41-8.17-11.66-9.85-18.83-1.3-5.54-3.17-10.94-4.69-16.44-.5-1.8-1.2-2.68-3.31-2.85-6.78-.57-13.66-.91-20.28-2.36-15.28-3.34-23.91-19.22-24.53-31.07-.58-11.21 1.92-21.82 7.61-31.53 5.03-8.57 8.82-17.48 10.37-27.41 1.58-10.13-1.51-18.73-7.24-26.75-2.08-2.91-4.28-5.75-6.23-8.75-1.28-1.95-2.52-4.03-3.22-6.23-.73-2.26-2.67-4.87-.27-7.1 2.53-2.35 8.3-2.69 10.7-.35 10.32 10.07 20.05 20.66 22.75 35.56 1 5.5.85 11.09-1.17 16.54-5.32 14.36-10.52 28.75-15.65 43.17-1.12 3.14-2.05 6.4-2.51 9.69-.99 7.1 1.97 12.38 8.2 15.86 4.89 2.73 13.45 4.74 20.57 4.61z"/><path d="m241.66 41.47c-5.73 8.56-11.36 16.89-16.9 25.27-12.95 19.59-25.86 39.21-38.81 58.8-1.54 2.33-3.21 4.58-4.87 6.82-.53.71-1.18 1.36-1.85 1.93-2.95 2.52-8.09 3.14-10.28 1.28-1.81-1.53-2.13-6.8-.29-9.81 13.64-22.32 26.93-44.88 41.22-66.78 6.67-10.23 14.96-19.48 23.14-28.61 7.12-7.93 10.85-6.47 20.12-.37 3.64 2.4 6.52 6.11 9.35 9.55 20.08 24.48 40.03 49.07 60.07 73.58 3.71 4.54 7.31 9.08 8.29 15.07.59 3.56-2.02 7.02-5.49 6.39-2.87-.53-6.35-1.78-8.06-3.91-20.62-25.77-40.98-51.75-61.36-77.71-3.81-4.83-8.17-8.87-14.28-11.5z"/><path d="m269.19 132.06c6.1.61 12.26.87 18.28 1.93 5.09.9 7.6 4.27 7.18 8.58-.11 1.14-1.11 2.7-2.12 3.17-7.04 3.26-14.55 2.6-22.05 2.55-5.51-.04-11.03.92-16.53 1.59-2.01.24-3.2 1.64-3.12 3.73.3 8.02.37 16.06 1.11 24.04.78 8.34 2.27 16.61 3.36 24.92.43 3.3.11 6.51-2.38 9.07-3.25 3.35-8.15 2.73-10.32-1.37-3.88-7.32-5.65-15.27-6.69-23.4-1.64-12.81-2-25.62.25-38.43 1.05-5.98 3.26-10.01 9.82-12.15 7.66-2.5 15.07-4.73 23.21-4.23z"/><path d="m121.32 40.44c8.94 0 17.89-.11 26.83.06 3.1.06 6.23.62 9.25 1.37 1.63.41 3.36 1.41 4.49 2.65 3.27 3.59 2.44 6.52-2.06 8.15-8.74 3.16-17.88 3.88-27.04 4.24-13.97.54-27.94.57-41.73-2.32-6.06-1.27-8.17-3.49-6.34-9.24.73-2.3 5.19-4.62 8.09-4.8 9.47-.6 19-.23 28.5-.23.01.04.01.08.01.12z"/><path d="m245.78 118.07c-10.16-1.38-20.34-2.61-30.46-4.21-4.75-.75-7.12-6.4-4.85-10.71.33-.62.97-1.31 1.6-1.49 3.43-.97 6.89-2.45 10.37-2.54 13.62-.33 27.25-.43 40.86-.09 3.75.09 7.52 1.82 11.13 3.22 1.54.6 2.89 2.1 3.95 3.49 2.31 3.03 2.05 3.67-1.26 5.43-9.8 5.2-20.43 6.03-31.34 6.9z"/></g></svg>