<svg enable-background="new 0 0 400 400" viewBox="0 0 400 400" xmlns="http://www.w3.org/2000/svg"><path d="m361.2 9.6.8-1c.9.7 1.9 1.4 2.9 2.3l-.9 1.1c-1-1-2-1.8-2.8-2.4zm.5 10.6c.9-2.1 1.6-4.3 2.3-6.7.4.2.8.4 1.3.6-.7 2.1-1.5 4.3-2.2 6.6zm.4-15.2.9-.9c1 .8 2 1.6 2.8 2.4l-1 1c-.9-.9-1.8-1.7-2.7-2.5zm12.5-1.2h1.2v1.4h2.7v1.1h-2.7v2.7h-1.2v-.6h-1.8v1.3h4.9v3.8h-1.2v-.5h-3.7c0 .4-.1.9-.1 1.2h5.1v1h-5.2c0 .5-.1.9-.2 1.2h6v1h-5.2c1.1 1.3 2.9 2 5.5 2.2-.4.4-.7.8-.9 1.3-2.9-.5-4.8-1.6-5.7-3.5h-.1c-.8 1.7-2.7 2.9-5.9 3.6-.2-.4-.6-.8-.9-1.1 2.8-.6 4.6-1.4 5.4-2.5h-4.8v-1h5.3c.1-.3.2-.7.2-1.2h-4.9v-1h5c0-.4 0-.8.1-1.2h-3.5v.5h-1.2v-3.8h4.9v-1.3h-1.8v.5h-1.2v-2.7h-2.7v-1h2.6v-1.4h1.2v1.4h4.7v-1.4zm-6.6 8.3h3.6c0-.4 0-.9 0-1.4h-3.6zm1.9-4.6h4.7v-1.3h-4.7zm6.6 3.2h-3.7v1.4h3.7z" fill="#fbfcfa"/><path d="m385.3 3.8h1.3v2.2h2.8v-2.2h1.3v2.2h4.1v9.1h1.7v1.3h-16.9v-1.3h1.7v-9.1h4.1v-2.2zm.4 13.1.7 1.2c-1.8.9-3.8 1.9-6 2.9-.2-.4-.5-.8-.8-1.3 2.3-1 4.3-1.9 6.1-2.8zm-3.1-6.4h2.8v-3.2h-2.8zm0 4.6h2.8v-3.3h-2.8zm4-4.6h2.8v-3.2h-2.8zm0 4.6h2.8v-3.3h-2.8zm3.7 1.9c2.1.9 4.1 1.8 6.1 2.7l-.7 1.3c-2.2-1.1-4.2-2-6.1-2.9zm3.2-9.7h-2.8v3.2h2.8zm-2.8 7.8h2.8v-3.3h-2.8z" fill="#fbfcfa"/><g fill="#010102"><path d="m245.97 223.5c-8.62-1.27-16.97-2.13-25.13-3.83-6.07-1.27-12.24-2.97-17.76-5.7-6.51-3.23-10.02-9.6-11.72-16.5-3.72-15.11-3.26-30.14 1.91-44.94 1.15-3.29 3.14-5.79 5.93-7.87 10.05-7.51 21.24-11.75 33.81-12.33 3.67-.17 7.33-.53 11.2-.81.58-4.81 1.13-9.42 1.72-14.27-5.04-.97-9.71-2.12-14.44-2.73-14.07-1.8-22.65-9.72-26.4-23.17-4.32-15.46-5.01-31.04-1.61-46.8.71-3.28 2.13-5.18 5.55-5.46 1.1-.09 2.17-.48 3.79-.85 1.11 6.22 2.37 12.31 3.24 18.47 1.07 7.53 1.87 15.1 2.69 22.66 1.41 12.9 8.76 20.51 21.6 22.23 1.42.19 2.85.36 4.45.57 2.73-10.13 2.77-20.27 1.83-30.41-.96-10.35-3.15-20.68-.91-31.05 1.14-5.3 3.1-10.43 4.62-15.41 5.9-.1 8.83 2.08 9.72 6.98.41 2.29.48 4.68.48 7.02-.02 19.59-.09 39.18-.13 58.77-.01 3.56 1.23 5.24 4.72 4.67 7.66-1.25 15.01-3.09 18.94-11.22 4.9-10.14 5.33-20.85 5.58-31.75.11-4.62 1.09-9.3 2.29-13.79 1.02-3.8 3.69-6.55 7.93-7.64 5.42 8.78 7.72 18.39 5.86 28.31-2.13 11.38-5.48 22.55-8.52 33.74-.4 1.49-1.9 2.95-3.27 3.85-3.55 2.33-7.48 4.09-10.94 6.53-5.61 3.98-11.78 5.71-18.54 5.51-2.43-.08-3.35.78-3.36 3.26-.03 3.67-.44 7.34-.69 11.15 8.03 2.62 16.18 2.7 24.31 2.97 15.4.52 27.39 6.89 34.75 20.73 4.69 8.82 4.23 18.51 3.17 27.94-.84 7.49-2.97 14.85-4.8 22.21-.42 1.7-1.69 3.41-3.02 4.62-9.3 8.54-20.54 12.37-32.95 13.25-7.01.5-14.02 1.01-21.46 1.54 0 3.61-.12 7.05.1 10.47.05.74 1.19 1.73 2.04 2.03 4.52 1.62 9.12 3.02 13.67 4.57 11.55 3.95 18.89 12.27 24.03 22.99 6.95 14.5 10.25 29.98 12.59 45.73 1.93 12.99 3.05 26.03.71 39.1-.4 2.23-.99 4.73-2.35 6.41-2.94 3.62-7.21 2.8-9.3-1.36-2.32-4.62-3.31-9.54-2.89-14.63 1.33-16.04-1.12-31.72-4.73-47.22-1.69-7.24-3.67-14.62-6.97-21.22-5.16-10.32-14.85-15.65-26.06-19.9 0 3.59.03 6.65 0 9.72-.27 28.09-.52 56.19-.85 84.28-.09 7.94-.16 15.89-.71 23.8-.4 5.72-4.19 7.91-9 5.7-.95-.44-1.95-1.55-2.22-2.54-2.95-10.87-4.11-21.99-3.94-33.21.41-27.19.98-54.38 1.49-81.57.02-1.32 0-2.64 0-4.21-6.51 1.01-11.72 2.73-15.85 8.29-10.66 14.35-15.63 30.6-17.28 47.98-1.06 11.22-1.06 22.54-1.61 33.82-.13 2.79-.36 5.59-.83 8.34-.69 4.04-2.6 5.69-6.02 6.11-3.9.48-5.27-1.9-6.37-4.96-2.26-6.26-2.65-12.75-1.82-19.21 2.2-16.96 4.47-33.93 7.18-50.82 1.43-8.9 5.07-17.23 10.23-24.6 2.64-3.76 6.87-6.37 10.13-9.74 4.94-5.11 10.59-8.88 17.61-10.3 2.9-.59 3.99-2.13 3.91-5.07-.09-2.77.37-5.56.67-9.23zm15.54-77.53v62.91c6.94-.95 13.63-1.87 21.11-2.9-1.5-6.84-2.59-13.34-4.4-19.63-2.19-7.62-3.5-15.22-2.49-23.16.67-5.29 1.09-10.6 1.66-16.21-5.49-.35-10.57-.67-15.88-1.01zm-31.36 2.91c.06.71.03 1.38.18 2.01 2.17 9.14 2.36 18.35 1.37 27.65-.95 8.9-1.65 17.84.51 26.69.22.91 1.02 2.36 1.61 2.39 3.97.21 7.96.11 12.14.11 0-19.71.02-38.94-.07-58.18 0-.67-1-1.86-1.61-1.9-4.63-.37-9.36-1.48-14.13 1.23zm62.32.97c-.87 5.4-1.92 10.74-2.51 16.13-.34 3.14-.41 6.46.24 9.52 1.75 8.17 3.96 16.25 6.01 24.36.25 1 .63 1.97.95 2.98 5.32-3.41 9.49-7.36 10.13-13.69.63-6.2 1.46-12.44 1.33-18.64-.21-9.92-6.75-17.98-16.15-20.66zm-78.66 2.74c-4.29 2.1-6.82 5.47-7.76 9.95-.87 4.14-1.93 8.29-2.24 12.48-.72 9.62 1.01 18.72 7.52 26.3.86 1 2.52 1.62 3.86 1.74.54.05 1.68-1.64 1.82-2.64 1.07-7.71 2.51-15.42 2.76-23.17.27-8.61-1.31-17.08-5.96-24.66z"/><path d="m121.99 282.34c.22-5.06.46-9.84.63-14.62.18-4.92.16-9.85.52-14.76.16-2.23-.68-3.14-2.59-3.95-6.9-2.92-13.66-6.15-20.59-8.99-3.07-1.26-5.22-3.23-7.04-5.87-6.64-9.62-9.77-20.53-11.6-31.87-2.03-12.57-2.77-25.15.59-37.63.73-2.72 1.24-5.34 5.01-6.25 3.19-.77 4.69-.03 6.2 2.49 3.41 5.67 2.98 11.87 2.44 17.98-1.03 11.64.15 22.96 3.51 34.15 3.42 11.37 11.59 17.28 23.26 20.75 0-5.3-.06-10.14.01-14.99.24-16.9.48-33.8.86-50.69.05-2.45-.87-3.67-2.83-5.04-5.76-4.03-11.67-7.99-16.77-12.77-6.27-5.89-9.03-13.71-9.13-22.35-.06-5.04-.13-10.08.04-15.11.08-2.3-.8-3.44-2.93-3.53-4.13-.18-8.26-.14-12.39-.28-4.75-.16-7.45-3.07-7.19-7.78.05-.81.34-1.94.92-2.33 3.1-2.08 5.94-4.24 10.23-4.21 28.67.22 57.33.08 86 .15 4.24.01 8.51.3 12.72.81 2.05.25 4.23.93 5.95 2.04 3.73 2.39 3.38 6.45-.44 8.55-5.06 2.77-10.42 3.67-16.18 3.31-5.06-.32-5.31.15-5.46 5.13-.19 6.35-.03 12.75-.8 19.04-.38 3.15-2.34 6.16-3.88 9.09-1.08 2.06-2.8 3.79-3.97 5.82-4.12 7.17-9.78 12.63-17.12 16.49-1.18.62-2.42 2.46-2.43 3.74-.15 20.82-.1 41.65-.1 62.47 0 .44.08.88.11 1.14 11.1-.03 17.92-5.88 22.22-15.62 4.75-10.75 5.12-22.12 5.41-33.54.15-6.03.16-12.07.56-18.08.12-1.75 1.01-3.74 2.19-5.06 3.1-3.48 6.39-2.96 8.65 1.01 4.9 8.58 5.54 17.94 4.35 27.37-1.83 14.47-5.5 28.54-11.49 41.89-.91 2.04-2.75 3.67-4.2 5.45-.35.42-.9.67-1.3 1.06-6.06 5.99-13.33 9.67-21.71 11.04-3.13.51-4.32 1.85-4.26 5.26.14 8.05-.28 16.11-.46 24.17-.03 1.21 0 2.42 0 3.95 8.47.35 16.68.69 25.81 1.07 0-6.63-.02-12.84.01-19.06.02-3.01-.01-6.03.27-9.02.13-1.39.56-3.13 1.51-3.99 1.9-1.73 4.12-3.62 6.48-4.1 1.03-.21 3.25 2.65 4.02 4.5 1.09 2.62 1.67 5.56 1.88 8.41.78 10.35 1.4 20.72 1.93 31.09.79 15.4-.37 30.5-5.35 45.33-4.73 14.1-14.95 20.99-28.58 23.74-11.96 2.42-23.79 1.26-35.37-2.77-11.75-4.09-18.52-12.27-20.92-24.36-5.16-25.92-6.08-51.94-2.1-78.09.13-.88.37-1.75.58-2.62.91-3.79 3.74-5.91 7.64-5.47.79.09 1.7.96 2.19 1.7 3.26 4.95 3.53 10.34 2.78 16.11-.61 4.7-.37 9.52-.3 14.29.03 1.87 1.2 2.74 3.3 2.84 6.15.26 12.26.86 18.7 1.37zm10.62 15c0-.15 0-.3 0-.45-7.83 0-15.66 0-23.49 0-7.84 0-7.82 0-7.99 8.07-.24 11.42.93 22.57 6.67 32.76.62 1.09 1.54 2.25 2.62 2.82 13.9 7.27 27.94 6.72 41.9.26 2.11-.97 4.7-2.62 5.43-4.56 4.27-11.49 6.4-23.44 6.18-35.76-.04-2.43-1-3.22-3.46-3.19-9.29.13-18.58.05-27.86.05zm-23.8-187.91c-.8 10.75.01 20.91 5.24 30.38 7.29 13.21 24.09 13.42 32.97-.61 4.72-7.47 5.3-17.14 5.47-26.27.05-2.91-1.11-3.78-3.99-3.75-12.07.14-24.13.06-36.2.07-1.08 0-2.17.11-3.49.18z"/><path d="m126.8 72.63c-8.26 0-16.53.03-24.79-.03-1.77-.01-3.57-.22-5.31-.57-6.73-1.36-7.78-2.89-6.88-9.72.24-1.85 4.15-4.28 7.17-4.33 3.8-.06 7.6-.03 11.41-.01 17.33.07 34.66.1 51.99.27 2.77.03 5.57.52 8.27 1.15 1.32.31 2.68 1.23 3.61 2.25 2.95 3.26 2.31 6.04-1.55 7.94-9.38 4.62-19.43 4.67-29.52 4.35-4.8-.15-9.59-.51-14.39-.77-.01-.18-.01-.36-.01-.53z"/></g></svg>