<svg enable-background="new 0 0 400 400" viewBox="0 0 400 400" xmlns="http://www.w3.org/2000/svg"><path d="m361.2 9.6.8-1c.9.7 1.9 1.4 2.9 2.3l-.9 1.1c-1-1-2-1.8-2.8-2.4zm.5 10.6c.9-2.1 1.6-4.3 2.3-6.7.4.2.8.4 1.3.6-.7 2.1-1.5 4.3-2.2 6.6zm.4-15.2.9-.9c1 .8 2 1.6 2.8 2.4l-1 1c-.9-.9-1.8-1.7-2.7-2.5zm12.5-1.2h1.2v1.4h2.7v1.1h-2.7v2.7h-1.2v-.6h-1.8v1.3h4.9v3.8h-1.2v-.5h-3.7c0 .4-.1.9-.1 1.2h5.1v1h-5.2c0 .5-.1.9-.2 1.2h6v1h-5.2c1.1 1.3 2.9 2 5.5 2.2-.4.4-.7.8-.9 1.3-2.9-.5-4.8-1.6-5.7-3.5h-.1c-.8 1.7-2.7 2.9-5.9 3.6-.2-.4-.6-.8-.9-1.1 2.8-.6 4.6-1.4 5.4-2.5h-4.8v-1h5.3c.1-.3.2-.7.2-1.2h-4.9v-1h5c0-.4 0-.8.1-1.2h-3.5v.5h-1.2v-3.8h4.9v-1.3h-1.8v.5h-1.2v-2.7h-2.7v-1h2.6v-1.4h1.2v1.4h4.7v-1.4zm-6.6 8.3h3.6c0-.4 0-.9 0-1.4h-3.6zm1.9-4.6h4.7v-1.3h-4.7zm6.6 3.2h-3.7v1.4h3.7z" fill="#fbfcfa"/><path d="m385.3 3.8h1.3v2.2h2.8v-2.2h1.3v2.2h4.1v9.1h1.7v1.3h-16.9v-1.3h1.7v-9.1h4.1v-2.2zm.4 13.1.7 1.2c-1.8.9-3.8 1.9-6 2.9-.2-.4-.5-.8-.8-1.3 2.3-1 4.3-1.9 6.1-2.8zm-3.1-6.4h2.8v-3.2h-2.8zm0 4.6h2.8v-3.3h-2.8zm4-4.6h2.8v-3.2h-2.8zm0 4.6h2.8v-3.3h-2.8zm3.7 1.9c2.1.9 4.1 1.8 6.1 2.7l-.7 1.3c-2.2-1.1-4.2-2-6.1-2.9zm3.2-9.7h-2.8v3.2h2.8zm-2.8 7.8h2.8v-3.3h-2.8z" fill="#fbfcfa"/><g fill="#010102"><path d="m178.51 374.76c-4.35-8.21-5.26-17.01-3.82-25.64 4.9-29.3 4.41-58.86 5.25-88.36.4-13.88 1.03-27.75 1.04-41.63 0-10.95-1.09-21.9-1.14-32.85-.05-9.7 1.92-19.14 6.34-27.88.96-1.89 2.49-3.72 4.21-4.95 6-4.3 12.22-8.27 18.27-12.51.97-.68 2.06-2.04 2.09-3.11.18-7.7.1-15.4.1-23.16-4.4-.87-7.86-1.7-11.37-2.23-9.19-1.37-15.71-6.29-18.15-15.21-2.05-7.49-3.62-15.28-4.06-23.01-.83-14.68.09-29.32 4.54-43.52.59-1.9 1.4-3.73 2.08-5.52 5.73.44 8.62 2.68 9.28 8 .57 4.63.58 9.36.47 14.04-.23 10.18-.75 20.36-1.03 30.54-.06 2.33.22 4.7.61 7 1.44 8.41 6.9 13.31 16.24 14.15.61-4.42 1.44-8.87 1.8-13.36.63-7.79.24-15.73 1.6-23.37 2.39-13.39 12.03-22.3 25.57-24.3 6.61-.97 13.37-.95 20.06-1.4 12.05-.81 24.09-1.93 36.15-2.29 4.57-.14 9.21 1.36 13.77 2.32 3.34.7 2.32 3.83 2.97 6.01.61 2.04-.57 3.06-2.1 4.02-5.81 3.66-12.31 3.59-18.82 3.56-8.13-.04-16.26-.01-24.89-.01.2 4.6.29 9.71.77 14.78.08.88 1.71 1.89 2.83 2.35 6.89 2.84 13.98 2.37 21.13 1.09 3.84-.69 7.71-1.5 11.58-1.57 5.44-.09 9.59 2.5 12.21 7.44.96 1.81.79 2.97-.93 4.2-5.23 3.76-11.07 5.93-17.43 6.33-12.08.74-23.9-.88-35.33-4.88-1.27-.44-2.74-1.74-3.15-2.96-2.28-6.75-4.45-13.55-6.29-20.43-1.18-4.43-3.14-5.95-7.72-5.08-10.37 1.96-15.63 8.98-16.99 18.66-1.33 9.48-1.42 19.14-2.1 29.39 6.77.57 12.87 1.56 18.95 1.47 7.92-.11 15.84-.89 23.73-1.73 12.03-1.28 23.46.29 33.93 6.61 7.78 4.7 11.57 12.36 13.89 20.65 3.63 12.96 3.38 26.36 3.48 39.68.31 41.99.26 83.98.98 125.96.41 23.95 2.01 47.87 3.26 71.8.15 2.84-.48 4.36-3.22 5.13-1.81.51-3.52 1.4-5.57 2.25-3.34-5.88-5.04-12.15-5.58-18.75-1.74-21.18-3.93-42.34-4.99-63.56-.96-19.33-.88-38.72-.89-58.09-.01-25.97.4-51.95.51-77.92.03-8.43-1.19-16.7-3.97-24.74-2.76-7.95-7.98-12.93-16.37-13.84-7.2-.78-14.47-1.37-21.7-1.26-11.51.17-23 .99-34.93 1.55-.35 6.76-.7 13.52-1.07 20.66 1.64.16 3.05.51 4.41.39 12.12-1.15 24.22-2.58 36.36-3.49 4.95-.37 10.07-.15 14.96.71 5.07.9 8.39 4.39 9.52 9.83-5.39 3.24-11.24 4.88-17.44 5.17-14.84.7-29.69 1.3-45.01 1.97.33 4.53.52 8.61 1 12.66.08.71 1.25 1.44 2.07 1.88 6.64 3.5 13.75 3.49 20.95 2.68 7.33-.82 14.65-1.86 22.01-2.36 3.15-.21 6.42.54 9.57 1.15 2.27.44 3.72 1.93 3.75 4.48.04 2.42-.59 4.18-3.04 5.37-10.06 4.85-20.79 5.88-31.72 5.77-9.53-.1-19.02-.74-28.17-3.66-1.64-.52-3.61-1.75-4.31-3.19-2.07-4.27-3.93-8.71-5.2-13.27-1.36-4.89-4.76-6.63-8.39-3.08-5.57 5.45-9.92 11.8-10.86 19.94-.25 2.14.4 3.24 2.32 4.11 5.09 2.3 10.13 4.71 15.14 7.19 6.51 3.23 11.24 7.99 12.79 15.4.43 2.08 1.21 4.09 1.58 6.17 1.24 7.02 5.84 11.09 11.98 13.76 4.27 1.85 8.06 4.15 8.88 9.16.18 1.08-.45 2.82-1.3 3.45-3.4 2.5-7.13 3.02-10.98.77-1.06-.62-2.17-1.17-3.32-1.59-4.66-1.72-5.8-1.02-6.69 3.87-1.07 5.93-2.18 11.86-3.26 17.73 5.46 2.55 10.84 4.97 16.13 7.58 1.89.93 3.84 2.03 5.26 3.52 1.48 1.55 2.86 3.55 3.39 5.58 1.35 5.17-.81 7.59-5.99 6.53-4.57-.94-8.99-2.64-13.49-3.94-3.24-.94-4.56-.07-4.16 3.22.31 2.5 1 5.13 2.22 7.31 2.82 5.03 5.98 9.87 9.18 14.68 2.63 3.94 5.33 7.74 4.92 12.86-.16 2.02-.62 3.12-2.92 2.93-2.11-.18-4.27.14-6.37-.11-1.2-.14-2.64-.67-3.42-1.53-14.82-16.22-22.38-35.26-20.77-57.29.58-7.95 3.17-15.75 4.75-23.64.86-4.28 1.63-8.57 2.23-12.89 1.03-7.41-1.12-13.79-6.91-18.63-2.79-2.33-5.95-4.21-9.53-6.7-.09 1.98-.21 3.14-.18 4.3.98 38.79-2.34 77.42-4.47 116.09-.74 13.41-1.05 26.84-1.6 40.27-.08 2-.23 4.03-.61 5.99-1.19 6.31-4.55 9.39-11.34 10.38z"/><path d="m92.47 239.19c5.84 10.77 3.92 22.98 5.55 34.76h19.64c.09-.93.23-1.79.23-2.65.02-9.97-.04-19.93.06-29.9.02-1.95-.5-3.08-2.39-3.75-3.26-1.15-6.47-2.48-9.68-3.76-5.01-1.99-9.13-5.06-12.07-9.69-6.08-9.58-9.67-19.96-9.43-31.36.29-13.2 1.02-26.4 1.47-39.6.13-3.87 3.29-4.07 5.77-4.99 2.29-.85 4 .05 5.2 2.3 2.24 4.21 2.77 8.69 2.58 13.33-.26 6.15-1 12.32-.69 18.44.35 7 1.25 14.03 2.59 20.91 1.49 7.63 8.08 15.57 15.87 19.8 0-6.44-.06-12.4.01-18.36.21-17.02.5-34.03.63-51.05.01-1.12-.84-2.98-1.69-3.26-15.32-5-21.07-16.82-22.2-31.56-.58-7.56-.27-15.22.07-22.81.15-3.41-1.29-4.49-4.16-4.54-3.68-.06-7.37.09-11.05.12-3.07.03-5.4-1.11-6.62-4.13-1.77-4.41-.99-5.95 3.28-7.85 5.12-2.27 10.34-3.04 15.94-2.99 20.6.19 41.2.01 61.79.14 3.76.02 7.55.69 11.27 1.38 2.77.51 4.9 2.13 5.73 5.04 1.05 3.68.32 4.99-3.34 5.88-4.13 1-8.22 2.23-12.4 2.9-2.93.47-3.36 1.76-3.31 4.47.17 10.06.2 20.14-.16 30.19-.09 2.6-1.62 5.24-2.86 7.67-1.21 2.38-3.06 4.42-4.34 6.77-2.34 4.29-5.28 7.69-10.46 8.38-2.43.33-2.05 2.2-2.03 3.84.27 20.26.55 40.53.81 60.79.03 2.68 0 5.36 0 8.27 4.52-.97 8.11-2.62 10.77-6.41 5.05-7.21 7.68-14.99 7.44-23.87-.26-9.84-.28-19.69.02-29.52.11-3.5 1.31-6.99 2.26-10.42.74-2.68 2.86-3.79 5.55-4.1 2.76-.32 3.3 1.91 4.21 3.57 4.02 7.31 4.91 15.31 4.54 23.42-.6 13.46-2.94 26.65-6.94 39.55-1.6 5.14-4.35 9.28-8.23 13.11-4.43 4.37-8.96 7.89-15.29 8.76-.94.13-2.38 1.45-2.46 2.32-1.04 11.36-1.87 22.73-2.79 34.55 5.27.21 10.24.43 15.21.59 5.11.17 5.33.16 5.69-5.05.37-5.46.38-10.95.33-16.43-.06-6.72 2.48-11.34 7.36-13.04 1.67-.58 2.83-.48 3.95 1.17 2.8 4.13 4.16 8.63 4.14 13.58-.08 22.95-.03 45.96-4.53 68.56-1.32 6.65-4.29 13.27-7.86 19.07-1.93 3.14-6.56 4.82-10.23 6.63-9.73 4.81-19.95 7.45-30.83 4.97-14.19-3.23-23.38-12.5-27.04-26.08-2.92-10.82-4.28-22.18-5.21-33.39-1.28-15.39-1.2-30.84 1.17-46.22.84-5.37 2.81-8.69 9.16-8.45zm5.45 49.75c.62 8.33 1.03 16.03 1.83 23.7.39 3.75 1.13 7.54 2.33 11.1 2.66 7.86 7.44 13.64 16.29 14.93 7.8 1.14 15.18-.08 21.99-3.97 1.7-.97 3.41-2.7 4.12-4.48 1.89-4.76 3.66-9.64 4.7-14.64 1.54-7.41 2.5-14.95 3.51-22.46.35-2.61-.83-3.82-3.89-3.81-12.97.05-25.93-.23-38.9-.36-3.89-.04-7.78-.01-11.98-.01zm10.9-196.87c-.27 2.78-.64 5.1-.71 7.43-.23 8.26-1.43 16.6 1.18 24.68 1.94 6.01 4.64 11.34 12.11 12.21 6.24.72 12.28-2.58 13.45-8.77 1.51-8 2.56-16.11 3.32-24.22.28-3-.66-6.17-1.39-9.18-.21-.86-1.62-2.03-2.5-2.05-8.37-.17-16.75-.1-25.46-.1z"/><path d="m267.64 210.46c0 11.05.47 22.13-.1 33.16-1.07 20.67-2.71 41.31-4.18 61.95-.69 9.71-1.45 19.41-2.36 29.09-.27 2.87-.95 5.75-1.81 8.51-2.05 6.57-6.33 8.27-12.9 5.18.51-9.53 1.01-19.13 1.55-28.73 1.47-26.15 3.04-52.3 4.39-78.46.49-9.39.31-18.8.78-28.19.18-3.47-1.55-4.66-4.29-5.13-1.73-.3-3.58-.27-5.33-.05-2.92.36-4.11-1.06-4.46-3.69-.65-4.92 2.34-9.71 7.22-9.61 9.47.19 19.12.3 28.32 2.25 12.42 2.63 16.93 12.77 18.85 24.27 3.09 18.47 1.6 37.08 1.58 55.64-.01 13.99-.1 27.99-.38 41.98-.18 8.95-.68 17.89-1.26 26.82-.17 2.64-.98 5.27-1.74 7.83-1.32 4.45-3.17 5.61-7.8 4.94-.81-.12-1.97-.93-2.17-1.64-1.09-3.93-2.75-7.93-2.73-11.9.14-29.55.69-59.1.98-88.65.11-11.18.59-22.38-1.92-33.44-1.25-5.47-4.1-9.53-8.86-12.31-.46.07-.92.13-1.38.18z"/><path d="m87.83 55.78c-.1-1.2-.24-1.98-.22-2.75.03-1.93-.62-4.85.35-5.58 2.36-1.76 5.46-3.45 8.29-3.5 16.65-.32 33.3-.24 49.96-.1 3.88.03 7.79.61 11.6 1.34 1.61.31 3.35 1.38 4.46 2.62 2.6 2.93 1.97 5.34-1.55 7.01-7.11 3.38-14.76 4.15-22.48 4.6-14.77.86-29.47.24-44.07-2.21-2.08-.34-4.12-.92-6.34-1.43z"/></g></svg>