<svg enable-background="new 0 0 400 400" viewBox="0 0 400 400" xmlns="http://www.w3.org/2000/svg"><path d="m361.2 9.6.8-1c.9.7 1.9 1.4 2.9 2.3l-.9 1.1c-1-1-2-1.8-2.8-2.4zm.5 10.6c.9-2.1 1.6-4.3 2.3-6.7.4.2.8.4 1.3.6-.7 2.1-1.5 4.3-2.2 6.6zm.4-15.2.9-.9c1 .8 2 1.6 2.8 2.4l-1 1c-.9-.9-1.8-1.7-2.7-2.5zm12.5-1.2h1.2v1.4h2.7v1.1h-2.7v2.7h-1.2v-.6h-1.8v1.3h4.9v3.8h-1.2v-.5h-3.7c0 .4-.1.9-.1 1.2h5.1v1h-5.2c0 .5-.1.9-.2 1.2h6v1h-5.2c1.1 1.3 2.9 2 5.5 2.2-.4.4-.7.8-.9 1.3-2.9-.5-4.8-1.6-5.7-3.5h-.1c-.8 1.7-2.7 2.9-5.9 3.6-.2-.4-.6-.8-.9-1.1 2.8-.6 4.6-1.4 5.4-2.5h-4.8v-1h5.3c.1-.3.2-.7.2-1.2h-4.9v-1h5c0-.4 0-.8.1-1.2h-3.5v.5h-1.2v-3.8h4.9v-1.3h-1.8v.5h-1.2v-2.7h-2.7v-1h2.6v-1.4h1.2v1.4h4.7v-1.4zm-6.6 8.3h3.6c0-.4 0-.9 0-1.4h-3.6zm1.9-4.6h4.7v-1.3h-4.7zm6.6 3.2h-3.7v1.4h3.7z" fill="#fbfcfa"/><path d="m385.3 3.8h1.3v2.2h2.8v-2.2h1.3v2.2h4.1v9.1h1.7v1.3h-16.9v-1.3h1.7v-9.1h4.1v-2.2zm.4 13.1.7 1.2c-1.8.9-3.8 1.9-6 2.9-.2-.4-.5-.8-.8-1.3 2.3-1 4.3-1.9 6.1-2.8zm-3.1-6.4h2.8v-3.2h-2.8zm0 4.6h2.8v-3.3h-2.8zm4-4.6h2.8v-3.2h-2.8zm0 4.6h2.8v-3.3h-2.8zm3.7 1.9c2.1.9 4.1 1.8 6.1 2.7l-.7 1.3c-2.2-1.1-4.2-2-6.1-2.9zm3.2-9.7h-2.8v3.2h2.8zm-2.8 7.8h2.8v-3.3h-2.8z" fill="#fbfcfa"/><g fill="#010102"><path d="m193.03 244.69c3.31 7.7 4.37 15.51 4.86 23.48.31 5.12.61 10.28 1.55 15.3.82 4.36 3.35 7.9 7.93 10.36.38-7.81.77-15.14 1.08-22.47.79-18.45 1.59-36.9 2.24-55.35.05-1.41-.64-3.43-1.7-4.2-16.84-12.29-21.49-29.21-18.8-48.92.56-4.08 1.57-8.12 2.59-12.13 1.19-4.67 2.9-8.95 6.69-12.44 5.16-4.75 6.46-11.23 6.51-18.08.08-10.86.31-11.29-9.99-14.58-10.53-3.36-15.46-10.92-17.52-20.89-2.11-10.19-1.85-20.42.43-30.64.84-3.76 3.86-2.85 6.04-3.44.95-.26 2.81.94 3.49 1.98 4.49 6.87 5.4 14.5 4.45 22.53-1.02 8.6 4.1 15.84 12.35 18 0-8.54.07-17.12-.02-25.69-.09-7.83-.53-15.66-.46-23.49.03-3.88.67-7.79 1.37-11.63.55-3 2.38-5.24 5.76-4.85 1.27.15 2.91 1.14 3.54 2.23 3.47 6.02 5.17 12.66 5.28 19.55.2 11.86.04 23.72.06 35.58 0 1.34-.2 2.88.37 3.95.59 1.1 1.95 2.22 3.13 2.44.85.16 2.64-.96 2.88-1.83 1.62-5.88 3.14-11.81 4.28-17.8.81-4.26.69-8.7 1.49-12.96.7-3.7 3.01-6.43 6.87-7.52 2.24-.63 3.67-.2 4.78 2.15 3.52 7.41 4.36 15.13 2.15 22.88-2.08 7.27-4.94 14.34-7.7 21.39-.59 1.51-2.06 2.86-3.44 3.83-3.57 2.5-7.29 4.8-11.02 7.06-2.9 1.76-4.59 4.23-4.88 7.58-.38 4.42-.64 8.85-.97 13.49h60.46c-.32-6.38-.59-12.61-1.02-18.83-.06-.79-.87-1.77-1.6-2.22-1.51-.93-3.15-1.73-4.84-2.3-9.56-3.25-14.36-10.8-17.07-19.72-2.89-9.54-3.26-19.38-1.04-29.2 1.39-6.15 1.67-6.31 8.43-6.84 3.45 6.98 4.55 14.54 5.07 22.27.22 3.32.61 6.71 1.55 9.88 1.24 4.23 4.18 7.24 9.09 9.44.44-6.24 1.16-11.97 1.17-17.7.02-8.72-.67-17.44-.67-26.16 0-6.88 1.26-13.61 5.09-19.54 1.18-1.82 1.95-4.36 5.29-3.33 3.83 1.19 5.72 2.79 5.92 6.26.14 2.34.06 4.7-.03 7.05-.63 17.22-1.29 34.44-1.93 51.66-.03.76.06 1.53.12 2.73 2.68-.51 5.22-.79 7.61-1.54.93-.29 1.79-1.52 2.25-2.52 3.77-8.17 4.29-17.03 5.59-25.77.51-3.46 2.02-7.2 4.21-9.89 3.17-3.89 6.48-2.92 8.36 1.65 2.79 6.77 3.24 13.82 1.29 20.73-2.06 7.28-4.76 14.4-7.55 21.44-.68 1.71-2.57 3.3-4.3 4.15-4.5 2.23-9.27 3.91-13.8 6.08-.96.46-1.97 2.08-1.95 3.14.11 6.71.46 13.42.85 20.12.06.99.45 2.38 1.17 2.86 15.32 10.18 17.29 25.22 14.79 41.56-1.45 9.47-3.82 18.81-6 28.16-.4 1.7-1.68 3.34-2.91 4.68-2.67 2.93-4.52 6.15-4.42 10.19.6 23.94 1.28 47.88 1.85 71.82.04 1.85.8 2.46 2.42 2.88 1.76.46 2.65-.13 3.45-1.65 3.91-7.43 4.91-15.45 5.24-23.69.19-4.67.49-9.4 1.41-13.96.84-4.21 3.31-7.56 8.16-8.77 3.64 4.2 5.93 9.13 6.37 14.69 1.08 13.37-2.86 25.87-7.21 38.25-.33.94-1.37 1.74-2.25 2.38-4.78 3.48-9.68 6.81-14.39 10.39-.86.65-1.61 2.26-1.46 3.28 1.05 6.94 2.05 13.91 3.65 20.74 2.14 9.13 4.85 18.13 7.23 27.21.48 1.82.77 3.74.8 5.63.05 2.89-.93 5.31-4.1 6.13-3.43.89-5.56-.11-7.36-3.38-6.31-11.46-8.79-24.08-11.07-36.74-1.09-6.05-2.11-12.13-2.72-18.24-.36-3.55-2.15-5.39-5.19-6.54-.1-.04-.21-.07-.32-.09-13.56-2.45-18.92-12.21-21.62-24.3-2.33-10.41-2.45-20.81.03-31.26 1.18-4.97 3.26-8.47 9.31-7.77 3.23 6.84 4.45 14.39 4.9 22.13.26 4.57.22 9.19.85 13.71.73 5.24 2.89 9.84 8.25 12.77 0-25.96 0-51.6 0-77.54-19.38 0-38.88 0-58.87 0-.91 25.77-1.83 51.53-2.74 77.25 3.26.75 5.01-.47 6.27-3 3.68-7.4 4.72-15.29 4.87-23.43.09-4.45.42-8.95 1.29-13.3.86-4.33 3.28-7.8 8.13-8.91 6.32 7.42 7.66 16.11 6.22 25.25-1.15 7.27-3.24 14.39-4.61 21.63-1.4 7.45-6.46 11.4-12.8 14.27-2.44 1.1-4.95 2.08-7.49 2.93-2.09.7-2.75 1.97-3.08 4.15-2.33 15.13-4.66 30.26-7.48 45.31-.76 4.04-2.99 7.89-5.02 11.56-.89 1.62-2.77 3.09-4.53 3.75-2.06.77-5.2 1.58-6.57.58-2.05-1.49-3.09-4.36-2.43-7.51 2.83-13.57 5.52-27.17 8.13-40.78.86-4.5 1.44-9.06 1.84-13.62.1-1.1-.77-2.6-1.67-3.39-1.41-1.23-3.12-2.24-4.86-2.94-7.63-3.06-11.03-9.59-13.36-16.68-4.14-12.64-4.03-25.47-1.01-38.39.84-3.57 2.44-5.5 6.12-5.64.79-.01 1.54-.3 2.57-.53zm55.68-41.76c0 .21.01.42.01.63 7.13-.44 14.29-.67 21.4-1.37 7.13-.7 14.15-2.16 20.48-5.8 1.18-.68 2.78-1.77 2.96-2.87 1.02-6.26 2.16-12.57 2.29-18.88.11-5.65-.96-11.34-1.66-17-1.07-8.68-2.42-10.14-11-12.41-.97-.26-1.95-.58-2.94-.66-7.34-.56-14.67-1.35-22.02-1.54-15.73-.41-31.53-1.02-46.57 5.03-1.2.48-2.66 1.42-3.11 2.51-6.08 14.66-6.02 29.32.47 43.86.42.93 1.26 1.97 2.17 2.35 7.42 3.11 14.89 6.13 23.14 6.14 4.77.02 9.57.01 14.38.01z"/><path d="m88.04 242.97c3.3 4.75 4.38 9.73 4.36 14.94-.01 5.14-.49 10.28-.48 15.42.01 4.52.18 4.52 4.54 4.53 5.48.01 10.97-.06 16.45.03 2.03.03 3-.42 3.04-2.76.14-8.95.43-17.9.79-26.84.08-1.98-.51-2.97-2.4-3.69-5.33-2.02-10.46-4.62-15.88-6.31-5.73-1.78-9.14-5.71-11.97-10.53-5.45-9.29-7.61-19.52-8.44-30.09-1-12.76-.99-25.47 1.54-38.11.69-3.45 2.1-5.4 5.71-5.54 1.09-.04 2.17-.34 3.92-.63 1.08 8.9 2.32 17.62 3.16 26.38.87 9.12.67 18.39 2.2 27.38 1.95 11.51 9.91 18.27 21.04 22.24.11-1.46.25-2.61.27-3.78.29-21.48.48-42.97.93-64.45.07-3.44-.94-5.33-4.03-6.63-2.88-1.21-5.54-2.9-8.34-4.3-8.1-4.04-12.41-10.66-13.2-19.57-.82-9.25-1.57-18.51-2.12-27.78-.14-2.43-1.19-3.61-3.31-3.74-3.78-.23-7.57-.26-11.35-.19-5.56.11-9.53-4.83-6.69-9.48 1.41-2.32 5.46-3.74 8.52-4.17 4.83-.68 9.83-.18 14.75-.18 21.72 0 43.43-.05 65.15.04 3.79.02 7.59.47 11.35.96 3.52.46 5.26 2.49 5.48 5.73.18 2.69-.54 4.42-3.62 4.84-3.42.47-6.76 1.57-10.18 2.08-2.12.32-2.97 1.15-3.28 3.32-1.56 11.07-2.97 22.18-5.08 33.15-1.31 6.79-5.02 12.66-11.76 15.3-5.93 2.33-8.33 5.5-8.13 12.33.59 20.02.21 40.07.21 60.1v4.05c6.74-1.01 11.99-3.04 14.83-9.85 3.52-8.45 5.08-16.86 4.68-26.07-.44-10.22.15-20.54 1.11-30.74.53-5.63 3.54-7.6 7.94-7.06.85.1 2.09.96 2.31 1.71 7.06 24.62 7.89 48.92-4.19 72.42-.92 1.79-2.52 3.36-4.12 4.66-2.95 2.39-6.23 4.38-9.19 6.76-3.05 2.46-6.35 4.01-10.24 4.61-.95.14-2.39 1.48-2.45 2.35-.7 10.26-1.18 20.53-1.75 31.36h21.07c0-4.83.04-9.94-.01-15.05-.03-2.91-.42-5.83-.22-8.71.15-2.06.68-4.24 1.64-6.05 1.52-2.86 4.47-4.05 7.43-3.29 1.52.39 2.91 2.41 3.76 4.02.97 1.83 1.68 3.99 1.8 6.04.83 14.62 1.81 29.25 2.08 43.88.28 15.33-2.28 30.3-8.04 44.6-.64 1.6-1.65 3.2-2.87 4.39-7.8 7.63-16.38 13.97-27.67 15.21-9.19 1.01-17.9-1.36-26.74-3.5-10.79-2.61-15.26-10.84-19.39-19.63-4.61-9.79-6.59-20.33-6.49-30.97.14-14.85 1.35-29.69 2.17-44.53.24-4.35.93-8.69 1-13.05.04-3.15 1.18-4.98 4.19-5.82 1.39-.41 2.68-1.1 4.21-1.74zm4.54 49.95c-.18 3.68-.56 7.67-.53 11.66.08 8.93.09 17.9 3.16 26.48 2.82 7.88 7.11 14.12 16.4 14.96 2.33.21 4.6.88 6.93 1.19 9 1.18 17.45-.06 24.44-6.38 1.57-1.42 3.13-3.38 3.65-5.37 2.11-8.09 4.04-16.24 5.55-24.46.78-4.24.76-8.67.68-13.01-.09-4.62-.59-4.87-5.07-4.9-5.03-.04-10.06-.16-15.09-.17-13.16-.02-26.33 0-40.12 0zm11.67-193.48c-.78 11.28-.69 21.94 3.22 32.42 2.19 5.87 6.18 8.67 11.92 9.82 6.18 1.23 15.47-2.06 16.87-10.08.9-5.15 2.77-10.14 3.64-15.29.72-4.25.82-8.65.81-12.98 0-1.72-.35-3.91-3.12-3.9-10.95.03-21.9.01-33.34.01z"/><path d="m126.3 61.29c-12.53-1.35-25.07-2.67-37.59-4.1-1.49-.17-3.72-.09-3.57-2.57.16-2.67-2.52-5.78 1.67-7.89 2.65-1.34 5.09-2.32 8.15-2.3 16.66.13 33.33-.04 49.99.13 4.32.04 8.73.55 12.92 1.57 1.94.48 4.11 2.39 5.01 4.22 1.75 3.58.87 5.61-3.02 6.37-8.07 1.58-16.25 2.67-24.42 3.71-2.97.38-6.03.06-9.05.06-.04.26-.07.53-.09.8z"/><path d="m248.29 166.04c8.72 0 17.45-.07 26.17.05 2.32.03 4.66.47 6.93.98 3 .68 4.7 2.72 5.48 5.71.56 2.14.07 3.53-2.11 4.02-5.54 1.25-11.05 2.94-16.66 3.52-15.49 1.59-31.02 1.73-46.46-.86-.77-.13-1.53-.31-2.29-.49-6.02-1.38-6.63-2.11-6.49-8.26.02-.7.62-1.63 1.23-2.03 2.62-1.72 5.31-2.93 8.7-2.83 8.49.24 17 .08 25.5.08z"/></g></svg>