<svg enable-background="new 0 0 400 400" viewBox="0 0 400 400" xmlns="http://www.w3.org/2000/svg"><path d="m361.2 9.6.8-1c.9.7 1.9 1.4 2.9 2.3l-.9 1.1c-1-1-2-1.8-2.8-2.4zm.5 10.6c.9-2.1 1.6-4.3 2.3-6.7.4.2.8.4 1.3.6-.7 2.1-1.5 4.3-2.2 6.6zm.4-15.2.9-.9c1 .8 2 1.6 2.8 2.4l-1 1c-.9-.9-1.8-1.7-2.7-2.5zm12.5-1.2h1.2v1.4h2.7v1.1h-2.7v2.7h-1.2v-.6h-1.8v1.3h4.9v3.8h-1.2v-.5h-3.7c0 .4-.1.9-.1 1.2h5.1v1h-5.2c0 .5-.1.9-.2 1.2h6v1h-5.2c1.1 1.3 2.9 2 5.5 2.2-.4.4-.7.8-.9 1.3-2.9-.5-4.8-1.6-5.7-3.5h-.1c-.8 1.7-2.7 2.9-5.9 3.6-.2-.4-.6-.8-.9-1.1 2.8-.6 4.6-1.4 5.4-2.5h-4.8v-1h5.3c.1-.3.2-.7.2-1.2h-4.9v-1h5c0-.4 0-.8.1-1.2h-3.5v.5h-1.2v-3.8h4.9v-1.3h-1.8v.5h-1.2v-2.7h-2.7v-1h2.6v-1.4h1.2v1.4h4.7v-1.4zm-6.6 8.3h3.6c0-.4 0-.9 0-1.4h-3.6zm1.9-4.6h4.7v-1.3h-4.7zm6.6 3.2h-3.7v1.4h3.7z" fill="#fbfcfa"/><path d="m385.3 3.8h1.3v2.2h2.8v-2.2h1.3v2.2h4.1v9.1h1.7v1.3h-16.9v-1.3h1.7v-9.1h4.1v-2.2zm.4 13.1.7 1.2c-1.8.9-3.8 1.9-6 2.9-.2-.4-.5-.8-.8-1.3 2.3-1 4.3-1.9 6.1-2.8zm-3.1-6.4h2.8v-3.2h-2.8zm0 4.6h2.8v-3.3h-2.8zm4-4.6h2.8v-3.2h-2.8zm0 4.6h2.8v-3.3h-2.8zm3.7 1.9c2.1.9 4.1 1.8 6.1 2.7l-.7 1.3c-2.2-1.1-4.2-2-6.1-2.9zm3.2-9.7h-2.8v3.2h2.8zm-2.8 7.8h2.8v-3.3h-2.8z" fill="#fbfcfa"/><g fill="#010102"><path d="m86.22 249.67c4.8 12.21 3.08 25.31 3.69 38.43h26.02c.15-2.41.37-4.93.45-7.45.28-7.94.44-15.89.8-23.83.09-1.98-.48-3.09-2.37-3.78-3.04-1.1-5.93-2.71-9.03-3.56-15.73-4.33-24.04-15.48-28.16-30.44-4.02-14.63-4.52-29.6-3.68-44.63.25-4.56 1.03-9.1 1.65-13.64.38-2.78 3.17-5.12 6.32-5.39 3.09-.26 5.4.14 6.57 3.9 3.85 12.43 4.93 25.05 2.8 37.82-2.92 17.46 4.74 30.97 25.12 38.55 0-5.7-.05-11.13.01-16.56.23-19.81.47-39.63.81-59.44.04-2.29-.69-3.61-2.62-4.86-7.86-5.09-15.38-10.74-19.3-19.55-2.14-4.82-3.56-10.12-4.32-15.34-.9-6.17-.89-12.5-.97-18.76-.03-2.53-1.11-3.93-3.26-4.26-3.61-.55-7.27-.86-10.91-.96-2.78-.07-5.58.64-8.35.48-5.38-.32-9.21-6.01-7.68-11.14.17-.56.69-1.15 1.21-1.43 3.6-1.97 7.05-3.78 11.54-3.75 30.33.21 60.67.09 91.01.14 3.91.01 7.83.25 11.72.57 5.02.42 8.5 3.59 9.03 8.37.11 1.01-.62 2.57-1.46 3.15-4.31 2.95-9.05 4.69-14.41 4.55-2.53-.06-5.08.32-7.59.5-.43 6.46-.24 12.69-1.41 18.66-1.52 7.74-3.91 15.33-6.34 22.85-1.34 4.15-4.41 7.22-8.43 9.15-.5.24-.99.53-1.48.79-6.1 3.25-9.42 7.35-9.26 15.25.44 21.81-.3 43.65-.57 65.48-.02 1.77 0 3.53 0 5.32 7.39-.83 13.01-3.52 17.15-9.9 5.62-8.65 8.43-18 9.05-28.07.69-11.16.87-22.35 1.42-33.53.08-1.71.56-3.62 1.47-5.04 2.8-4.33 7.98-4.15 10.45.26 4.29 7.64 5.86 15.99 5.33 24.6-1.07 17.32-4.92 34.04-11.9 49.99-2.99 6.83-9.24 9.78-15.36 12.74-4.42 2.14-9.07 3.79-13.65 5.57-2.25.88-3.23 2.24-3.19 4.79.13 10.17.05 20.35.05 31.1 6.83.33 14.34.7 22.29 1.08 0-6.12.04-11.9-.01-17.68-.04-4.24-.34-8.49-.23-12.73.04-1.48.68-3.09 1.47-4.37 1.77-2.87 4.67-3.48 7.86-3.55 2.98-.06 3.19 2.47 4.07 4.18 3.44 6.67 3.87 14 3.87 21.27.01 18.02-.01 36.05-.54 54.06-.34 11.58-4.07 22.39-9.84 32.43-.63 1.11-1.68 2.09-2.74 2.82-16.26 11.06-34.08 13.2-52.94 9.1-2.95-.64-5.87-1.4-8.78-2.2-14.63-4.01-21.78-14.86-24.1-28.71-3.17-18.89-4.31-38.08-3.35-57.23.46-9.19 2.82-18.28 4.2-27.44.89-6.05 4.35-8.91 10.8-8.73zm3.7 54.84c-3.86 14.08-1.93 27.49 2.72 40.87 2.58 7.42 7.71 11.4 14.89 13.46 15.07 4.32 29.17 1.99 42.38-6.19 1.06-.66 1.95-2.17 2.22-3.44 1.89-8.84 3.89-17.68 5.25-26.61.72-4.68.33-9.55.24-14.33-.05-2.79-1.47-3.87-4.53-3.84-17.33.17-34.66.08-51.99.08-3.66 0-7.34 0-11.18 0zm18.23-208.31c-.24 2.41-.53 4.5-.65 6.6-.46 8.39-1.21 16.92 2.41 24.78 1.76 3.82 4.12 8.21 7.48 10.26 8.37 5.1 19.18.75 22.56-8.42 1.92-5.22 3.37-10.64 4.72-16.05 1.08-4.37 1.45-8.85-.49-13.16-1.18-2.62-2.75-4.22-6.09-4.08-6.92.28-13.86.09-20.8.09-2.99-.02-5.98-.02-9.14-.02z"/><path d="m230.85 353c0-21.03 0-41.4 0-61.78 0-5.82-.08-11.65.05-17.47.04-1.88-.57-2.79-2.33-3.41-4.95-1.75-9.78-3.88-14.78-5.44-5.72-1.78-9.42-5.68-11.63-10.84-4.98-11.65-3.73-23.16 1.79-34.32.34-.7 1.72-1.32 2.57-1.26 5.33.41 8.73 4.47 9.06 10.25.29 5.01.71 10.02 1.26 15.01.41 3.75 2.39 5.67 6.33 6.89 23.8 7.38 47.42 6.18 71.06-.52 2.03-.58 3.36-1.49 3.87-3.58 1.29-5.2 2.81-10.34 3.91-15.57 1.07-5.07 2.22-9.86 7.73-12.05 2.2-.88 3.52-.63 4.88 1.63 4.42 7.31 4.3 14.9 2.86 23-1.46 8.21-4.21 14.5-12.49 18.47-7.37 3.54-14.19 7.98-23.05 7.92-.35 27.77-.69 55.13-1.05 83.34 7.7.18 15.13.37 22.57.53 7.13.15 14.28-.07 21.37.53 4.56.39 8.01 3.25 9.85 7.66.7 1.69.7 2.99-1.13 4.24-3.97 2.72-8.21 4.77-13.02 4.77-15.88.01-31.75-.18-47.62-.37-10.4-.13-20.8-.41-31.19-.59-20.35-.35-40.71-.68-61.06-1.02-2.78-.05-5.21-2.64-5.6-5.96-.42-3.53 1.14-6.56 4.06-6.82 10.33-.91 20.69-1.65 31.04-2.32 6.77-.43 13.57-.61 20.69-.92zm17.16-81.6c-.35 27.62-.7 54.92-1.05 82.47 6.59-.37 12.57-.7 18.9-1.06-.95-27.3-1.89-54.29-2.83-81.41-5.06 0-9.73 0-15.02 0z"/><path d="m289.98 105.8c.31 3 .82 6.1.84 9.21.01 1.1-1 2.38-1.87 3.27-8.92 9.13-17.86 18.24-26.91 27.24-1.64 1.63-2.19 2.84-.55 4.73 3.37 3.88 6.86 7.69 9.91 11.81 6.99 9.43 14.05 18.83 20.44 28.65 2.54 3.9 3.71 8.81 4.91 13.41 1.07 4.08-2.64 7.36-6.75 6-2.3-.76-4.77-2.21-6.26-4.08-10.26-12.86-20.27-25.92-30.37-38.91-.73-.94-1.53-1.85-2.52-3.05-4.97 8.82-7.18 17.89-6.75 27.58.26 5.7 1 11.38 1.12 17.08.13 6.14.02 12.31-.43 18.44-.49 6.68-3.66 9.02-9.73 7.49-1.19-.3-2.64-1.63-3.01-2.79-6.14-18.89-6.24-38.15-2.2-57.36 1.28-6.11 4.43-11.96 7.45-17.55 3.65-6.76 4.49-13.3 2.38-20.78-4.61-16.33-3.45-33.31-4.79-50.01-1.07-13.38-2.02-26.77-3.18-40.15-.6-6.92.54-13.39 4.18-19.3.48-.79 2.16-1.48 3.07-1.27 5.97 1.41 9.17 5.75 9.81 11.45.82 7.31.81 14.71 1.16 22.08.27 5.66.54 11.32.82 17.35 6.42-2.09 12.28-3.92 18.06-5.96.83-.29 1.72-1.54 1.85-2.45.84-5.83 1.58-11.68 2.14-17.54.29-3.1-.19-6.29.3-9.34.32-1.97 1.43-4.07 2.79-5.56 4.27-4.68 8.05-4.11 10.86 1.36 5.69 11.1 4.31 22.45 1.59 34.03-2 8.5-8.38 12.65-15.2 15.82-6.8 3.16-14.31 4.81-22.19 7.34.94 11.31 1.95 23.47 3.04 36.52 2.33-2.49 4.04-4.34 5.78-6.16 4.1-4.29 8.08-8.7 12.37-12.8 5.53-5.33 12.21-7.38 17.84-5.8z"/><path d="m309.38 107.26c0-14.67-.09-29.33.04-44 .07-7.99 2.37-15.39 6.53-22.26 1.15-1.89 2.21-2.11 4.06-1.34 6.21 2.6 8.21 7.98 8.05 13.88-.27 9.7-.92 19.43-2.14 29.05-3.43 26.85-2.91 53.57 1.26 80.29 2.17 13.92 4.8 27.82 3.69 42.03-.22 2.78-.87 5.54-1.02 8.32-.15 2.91-1.49 3.97-4.27 4.86-3.59 1.16-5.89.44-7.13-2.86-1.82-4.87-4.23-9.78-4.73-14.83-1.85-18.81-3.35-37.68-4.33-56.55-.63-12.17-.12-24.39-.12-36.6.04.01.08.01.11.01z"/><path d="m201.39 43.31c7.41.98 11.66 5.32 12.55 12.98.56 4.88.94 9.81 1.01 14.72.39 27.29.92 54.58.86 81.87-.04 18.11-3.36 35.79-9.33 52.93-1 2.87-2.92 4.6-5.85 4.65s-5.14-1.06-6.29-4.33c-2.82-7.98-2.04-15.98-.21-23.82 5.92-25.38 5.56-51.02 3.95-76.76-1.11-17.65-2.03-35.31 1.19-52.86.57-3.17 1.41-6.28 2.12-9.38z"/><path d="m123.61 39.09c11.63 0 23.26-.05 34.89.04 2.32.02 4.68.43 6.95.96 4.2.98 6.76 4.16 6.72 8.48-.01.85-1.1 2.25-1.93 2.46-6.91 1.72-13.8 3.99-20.83 4.64-19.62 1.8-39.29 1.63-58.86-1.13-1.22-.17-2.42-.41-3.63-.64-7.39-1.43-7.63-1.7-7.71-9.29-.01-.67.29-1.68.78-1.97 3.01-1.81 5.76-3.85 9.75-3.75 11.29.29 22.59.1 33.88.1-.01.02-.01.06-.01.1z"/><path d="m319.42 342.63c-1.84.38-3.26.68-4.68.96-6.04 1.22-6.06 1.22-9.04-4.01-5.41-9.52-6.67-19.96-5.58-30.51 1.17-11.29 3.28-22.49 5.22-33.69.68-3.93 3.91-7.2 6.08-7 3.94.37 7.48 4.05 7.96 8.33.1.88.04 1.79.04 2.68v59.37z"/><path d="m194.7 267.59c8 1.95 11.78 7.76 13.94 14.9 3.5 11.52 3.63 23.41 2.9 35.25-.46 7.42-1.76 14.85-3.3 22.14-1 4.73-6.55 7-10.63 4.87-.97-.51-2.09-1.91-2.1-2.92-.39-24.25-3.18-48.46-1.06-72.74.04-.44.15-.87.25-1.5z"/></g></svg>