<svg enable-background="new 0 0 400 400" viewBox="0 0 400 400" xmlns="http://www.w3.org/2000/svg"><path d="m361.2 9.6.8-1c.9.7 1.9 1.4 2.9 2.3l-.9 1.1c-1-1-2-1.8-2.8-2.4zm.5 10.6c.9-2.1 1.6-4.3 2.3-6.7.4.2.8.4 1.3.6-.7 2.1-1.5 4.3-2.2 6.6zm.4-15.2.9-.9c1 .8 2 1.6 2.8 2.4l-1 1c-.9-.9-1.8-1.7-2.7-2.5zm12.5-1.2h1.2v1.4h2.7v1.1h-2.7v2.7h-1.2v-.6h-1.8v1.3h4.9v3.8h-1.2v-.5h-3.7c0 .4-.1.9-.1 1.2h5.1v1h-5.2c0 .5-.1.9-.2 1.2h6v1h-5.2c1.1 1.3 2.9 2 5.5 2.2-.4.4-.7.8-.9 1.3-2.9-.5-4.8-1.6-5.7-3.5h-.1c-.8 1.7-2.7 2.9-5.9 3.6-.2-.4-.6-.8-.9-1.1 2.8-.6 4.6-1.4 5.4-2.5h-4.8v-1h5.3c.1-.3.2-.7.2-1.2h-4.9v-1h5c0-.4 0-.8.1-1.2h-3.5v.5h-1.2v-3.8h4.9v-1.3h-1.8v.5h-1.2v-2.7h-2.7v-1h2.6v-1.4h1.2v1.4h4.7v-1.4zm-6.6 8.3h3.6c0-.4 0-.9 0-1.4h-3.6zm1.9-4.6h4.7v-1.3h-4.7zm6.6 3.2h-3.7v1.4h3.7z" fill="#fbfcfa"/><path d="m385.3 3.8h1.3v2.2h2.8v-2.2h1.3v2.2h4.1v9.1h1.7v1.3h-16.9v-1.3h1.7v-9.1h4.1v-2.2zm.4 13.1.7 1.2c-1.8.9-3.8 1.9-6 2.9-.2-.4-.5-.8-.8-1.3 2.3-1 4.3-1.9 6.1-2.8zm-3.1-6.4h2.8v-3.2h-2.8zm0 4.6h2.8v-3.3h-2.8zm4-4.6h2.8v-3.2h-2.8zm0 4.6h2.8v-3.3h-2.8zm3.7 1.9c2.1.9 4.1 1.8 6.1 2.7l-.7 1.3c-2.2-1.1-4.2-2-6.1-2.9zm3.2-9.7h-2.8v3.2h2.8zm-2.8 7.8h2.8v-3.3h-2.8z" fill="#fbfcfa"/><g fill="#010102"><path d="m233.19 269.03c.61 9.58 1.56 20.38 1.91 31.2.56 17.07 6.14 33.13 9.39 49.66.97 4.91 1.32 9.96 1.66 14.97.18 2.74-.41 5.51-3.59 6.49-2.7.83-7.08-1.33-8.42-3.96-4.98-9.81-7.42-20.37-8.64-31.19-2.42-21.45-4.57-42.93-6.84-64.4-.02-.2-.15-.4-.37-.92-10.55-.55-21.24-1.15-31.94-1.58-.61-.02-1.74 1.26-1.84 2.04-2.55 19.63-4.88 39.3-7.5 58.92-1.58 11.85-3.39 23.67-5.49 35.44-1.09 6.08-4.7 8.99-9.54 9.19-1.89.08-3.23-.55-3.39-2.36-.28-3.29-.67-6.66-.24-9.9 2.76-20.72 5.84-41.41 8.6-62.13 1.3-9.75 2.06-19.58 3.24-29.35.27-2.22-.34-3.73-2.15-4.75-2.33-1.31-4.63-2.88-7.16-3.6-14.65-4.18-22.1-14.42-25.46-28.72-4.4-18.73-4.81-37.67-3.7-56.72.77-13.11 3.01-25.93 7.23-38.45 1.99-5.89 5.6-9.36 11.12-11.88 10.18-4.65 20.94-6.21 31.87-7.24 17.09-1.6 34.19-1.51 51.28-.08 7.12.6 13.72 2.87 19.96 6.4 7.29 4.13 11.43 10.45 12.35 18.53 2.33 20.43 5.76 40.79 4.62 61.5-.61 11.2-1.99 22.2-4.8 33.12-2.44 9.51-7.92 16.49-15.78 21.62-4.74 3.09-10.19 5.12-16.38 8.15zm22-103.57c-.75-6.01-1.01-11.41-2.23-16.59-.76-3.24-2.89-6.18-4.55-9.18-.39-.71-1.25-1.47-2.01-1.62-7.42-1.46-14.83-3.2-22.33-4.04-6.42-.72-12.95-.49-19.44-.48-10.38 0-20.79-.27-31.13.4-7.12.47-14.12 2.47-19.9 7.18-1 .82-2.34 1.83-2.54 2.93-1.28 7.13-2.28 14.3-3.36 21.4zm-107.47 43.79c35.43-.34 70.61-.68 105.99-1.01 0-9.75 0-19.15 0-28.57-35.46 0-70.65 0-105.99 0zm.23 13.33c1.57 6.18 2.54 11.95 4.54 17.33 1.92 5.18 5.25 9.23 11.33 10.81 11.84 3.09 23.81 5.08 35.99 5.88 11.31.74 22.68.99 33.39-3.35 4.99-2.02 10.92-4.32 13.76-8.36 3.54-5.04 4.56-11.94 6.18-18.17.73-2.81-.85-4.23-4.22-4.22-32.33.14-64.66.08-96.99.08-.99 0-1.99 0-3.98 0z"/><path d="m209.21 39.41c-.59 12.82-1.18 25.52-1.8 38.96 6.15 0 12.05-.05 17.94.01 20.48.2 40.96.34 61.43.74 5.11.1 10.25.86 15.29 1.78 4.27.78 6.34 3.46 6.45 7.05.05 1.77-.46 3.06-2.42 3.36-8.81 1.36-17.62 3.84-26.44 3.89-41.3.24-82.61-.32-123.91-.29-14.42.01-28.85 1.4-43.26 1.18-7.94-.12-15.84-2.29-23.77-3.52-2.19-.34-2.91-1.57-2.73-3.74.18-2.1.04-4.23.04-6.4 10.68-3.29 21.41-4.96 32.27-4.86 16.44.16 32.87 1.15 49.3 1.39 8.91.13 17.83-.55 26.93-.88 0-12.82 0-25.3 0-38.34-5.46 0-10.79.04-16.13-.01-19.14-.17-38.27-.38-57.41-.55-7.71-.07-15.43.18-23.11-.26-2.4-.14-5.41-1.46-6.88-3.27-3.21-3.92.28-9.4 6.01-10 .89-.09 1.79-.02 2.69-.02h153.5c11.75 0 23.49-.14 35.24.09 3.17.06 6.38 1.02 9.44 1.99 1.48.47 2.94 1.69 3.92 2.95 2.16 2.76 1.39 5.22-1.84 6.49-9.81 3.86-20.11 4.01-30.42 3.73-19.12-.52-38.24-1.13-57.36-1.69-.88-.01-1.75.13-2.97.22z"/></g></svg>