<svg enable-background="new 0 0 400 400" viewBox="0 0 400 400" xmlns="http://www.w3.org/2000/svg"><path d="m361.2 9.6.8-1c.9.7 1.9 1.4 2.9 2.3l-.9 1.1c-1-1-2-1.8-2.8-2.4zm.5 10.6c.9-2.1 1.6-4.3 2.3-6.7.4.2.8.4 1.3.6-.7 2.1-1.5 4.3-2.2 6.6zm.4-15.2.9-.9c1 .8 2 1.6 2.8 2.4l-1 1c-.9-.9-1.8-1.7-2.7-2.5zm12.5-1.2h1.2v1.4h2.7v1.1h-2.7v2.7h-1.2v-.6h-1.8v1.3h4.9v3.8h-1.2v-.5h-3.7c0 .4-.1.9-.1 1.2h5.1v1h-5.2c0 .5-.1.9-.2 1.2h6v1h-5.2c1.1 1.3 2.9 2 5.5 2.2-.4.4-.7.8-.9 1.3-2.9-.5-4.8-1.6-5.7-3.5h-.1c-.8 1.7-2.7 2.9-5.9 3.6-.2-.4-.6-.8-.9-1.1 2.8-.6 4.6-1.4 5.4-2.5h-4.8v-1h5.3c.1-.3.2-.7.2-1.2h-4.9v-1h5c0-.4 0-.8.1-1.2h-3.5v.5h-1.2v-3.8h4.9v-1.3h-1.8v.5h-1.2v-2.7h-2.7v-1h2.6v-1.4h1.2v1.4h4.7v-1.4zm-6.6 8.3h3.6c0-.4 0-.9 0-1.4h-3.6zm1.9-4.6h4.7v-1.3h-4.7zm6.6 3.2h-3.7v1.4h3.7z" fill="#fbfcfa"/><path d="m385.3 3.8h1.3v2.2h2.8v-2.2h1.3v2.2h4.1v9.1h1.7v1.3h-16.9v-1.3h1.7v-9.1h4.1v-2.2zm.4 13.1.7 1.2c-1.8.9-3.8 1.9-6 2.9-.2-.4-.5-.8-.8-1.3 2.3-1 4.3-1.9 6.1-2.8zm-3.1-6.4h2.8v-3.2h-2.8zm0 4.6h2.8v-3.3h-2.8zm4-4.6h2.8v-3.2h-2.8zm0 4.6h2.8v-3.3h-2.8zm3.7 1.9c2.1.9 4.1 1.8 6.1 2.7l-.7 1.3c-2.2-1.1-4.2-2-6.1-2.9zm3.2-9.7h-2.8v3.2h2.8zm-2.8 7.8h2.8v-3.3h-2.8z" fill="#fbfcfa"/><g fill="#010102"><path d="m206.77 276.37c-7.65 0-14.69.07-21.73-.04-2.07-.03-2.92.55-3.27 2.68-4.32 26.38-8.69 52.75-13.19 79.09-.76 4.47-2.16 8.85-3.46 13.21-.36 1.22-1.27 2.4-2.22 3.29-2.17 2.02-4.7 1.55-7.25.68-2.59-.88-1.5-2.95-1.45-4.54.63-19.75 4.49-39.08 7.68-58.51 1.92-11.7 3.5-23.45 5.38-35.15.32-1.97-.23-2.97-1.97-3.55-2.65-.88-5.25-1.97-7.96-2.58-13.89-3.15-21.62-11.62-24.17-25.74-3.56-19.71-5-39.51-4.28-59.48.36-10.1 2.2-19.94 5.5-29.57 3.11-9.08 9.77-13.6 18.51-15.59 8.39-1.91 16.85-3.64 25.57-3.06.76.05 1.54-.11 2.73-.2 0-4.62 0-9.17 0-13.73 0-10.54 5.16-17.36 15.31-19.95 11.33-2.89 22.89-2.46 34.39-1.85 6.15.33 9.42 3.98 9.9 9.57-6.87 3.48-14.21 3.89-21.79 3.51-5.55-.28-11.14-.04-16.7.22-3.3.16-5.35 1.58-5.31 5.58.05 5.1-.67 10.21-1.12 16.16 7.52.59 14.73 1.12 21.92 1.74 3.89.34 7.79.66 11.63 1.33 11.03 1.93 17.27 9.04 19.54 19.54 6.24 28.88 7.85 57.8.08 86.74-1.86 6.91-4.36 13.07-10.52 17.61-5.02 3.71-9.38 8.3-15.67 9.95-2.15.56-2.32 1.93-2.12 3.8 1.29 12.02 2.56 24.03 3.73 36.06 1.6 16.48 3.18 32.96 4.58 49.46.5 5.87-1.95 8.9-7.12 9.33-1.14.09-3.1-.7-3.45-1.58-1.46-3.68-3.09-7.47-3.5-11.35-2.62-24.92-4.94-49.88-7.36-74.82-.3-2.89-.59-5.76-.84-8.26zm32.47-96.28c-1.25-5.51-2.99-10.77-3.51-16.14-.67-6.96-4.77-9.81-10.82-11.14-1.53-.34-3.06-.69-4.61-.88-18.07-2.19-36.16-1.74-54.24-.2-3.2.27-6.55.61-9.49 1.78-3.13 1.24-7.23 2.84-8.47 5.44-2.63 5.55-4.59 11.64-4.03 18.13.24 2.78.98 4.01 4.2 3.97 29.31-.36 58.61-.53 87.92-.76.89-.01 1.76-.11 3.05-.2zm-94.28 41.13c31.18-.36 62.09-.71 93.29-1.06.35-8.61.69-16.83 1.06-25.62-31.61 0-62.92 0-94.34 0-.01 8.71-.01 17.41-.01 26.68zm.57 13.49c0 2.39-.13 4.29.02 6.17.7 8.45 6.02 15.09 14.05 17.5 11.22 3.37 22.74 4.54 34.4 4.77 8.76.17 17.33-.66 25.74-3.5 9.1-3.07 14.56-9.05 16.67-18.31 1.05-4.63-.39-6.62-4.98-6.62-27.39 0-54.79 0-82.18 0-1.1-.01-2.2-.01-3.72-.01z"/><path d="m192.29 25.51c12.39.53 22.4 6.63 31.65 14.02 21.68 17.32 43.13 34.93 64.73 52.36 5.48 4.42 11.18 8.59 16.77 12.88 4.53 3.48 8.26 7.59 9.67 13.3.37 1.52.71 4.24.07 4.59-2.12 1.17-4.71 2.02-7.1 1.98-1.64-.02-3.41-1.54-4.86-2.71-29.49-23.86-58.85-47.88-88.48-71.56-4.8-3.84-10.63-6.51-16.22-9.21-5.67-2.73-11.27-1.27-16.77 1.32-8.87 4.16-15.83 10.85-23.19 17.01-16.39 13.72-32.77 27.45-49.04 41.32-4.42 3.77-8.38 8.07-12.56 12.11-3.53 3.42-7.41 6.14-12.6 6.22-3.63.05-5.79-1.97-5.1-5.49.4-2.07 1.37-4.48 2.9-5.81 25.72-22.43 51.47-44.84 77.45-66.97 8-6.82 16.67-12.89 27.38-14.99.99-.19 1.98-.42 2.98-.51.75-.03 1.54.1 2.32.14z"/><path d="m160.93 73.2c8.34-3.91 16.91-2.48 25.31-2.33 12.17.21 24.35.57 36.5 1.26 3.67.21 7.32 1.56 10.87 2.72 1.12.36 2.12 1.65 2.77 2.76 2.04 3.46 1.62 5.26-2.2 6.15-6.59 1.54-13.3 3.22-20.02 3.49-16.34.65-32.57-.89-48.61-4.32-3.61-.77-5.31-2.11-4.66-5.9.23-1.29.04-2.65.04-3.83z"/></g></svg>