<svg enable-background="new 0 0 400 400" viewBox="0 0 400 400" xmlns="http://www.w3.org/2000/svg"><path d="m361.2 9.6.8-1c.9.7 1.9 1.4 2.9 2.3l-.9 1.1c-1-1-2-1.8-2.8-2.4zm.5 10.6c.9-2.1 1.6-4.3 2.3-6.7.4.2.8.4 1.3.6-.7 2.1-1.5 4.3-2.2 6.6zm.4-15.2.9-.9c1 .8 2 1.6 2.8 2.4l-1 1c-.9-.9-1.8-1.7-2.7-2.5zm12.5-1.2h1.2v1.4h2.7v1.1h-2.7v2.7h-1.2v-.6h-1.8v1.3h4.9v3.8h-1.2v-.5h-3.7c0 .4-.1.9-.1 1.2h5.1v1h-5.2c0 .5-.1.9-.2 1.2h6v1h-5.2c1.1 1.3 2.9 2 5.5 2.2-.4.4-.7.8-.9 1.3-2.9-.5-4.8-1.6-5.7-3.5h-.1c-.8 1.7-2.7 2.9-5.9 3.6-.2-.4-.6-.8-.9-1.1 2.8-.6 4.6-1.4 5.4-2.5h-4.8v-1h5.3c.1-.3.2-.7.2-1.2h-4.9v-1h5c0-.4 0-.8.1-1.2h-3.5v.5h-1.2v-3.8h4.9v-1.3h-1.8v.5h-1.2v-2.7h-2.7v-1h2.6v-1.4h1.2v1.4h4.7v-1.4zm-6.6 8.3h3.6c0-.4 0-.9 0-1.4h-3.6zm1.9-4.6h4.7v-1.3h-4.7zm6.6 3.2h-3.7v1.4h3.7z" fill="#fbfcfa"/><path d="m385.3 3.8h1.3v2.2h2.8v-2.2h1.3v2.2h4.1v9.1h1.7v1.3h-16.9v-1.3h1.7v-9.1h4.1v-2.2zm.4 13.1.7 1.2c-1.8.9-3.8 1.9-6 2.9-.2-.4-.5-.8-.8-1.3 2.3-1 4.3-1.9 6.1-2.8zm-3.1-6.4h2.8v-3.2h-2.8zm0 4.6h2.8v-3.3h-2.8zm4-4.6h2.8v-3.2h-2.8zm0 4.6h2.8v-3.3h-2.8zm3.7 1.9c2.1.9 4.1 1.8 6.1 2.7l-.7 1.3c-2.2-1.1-4.2-2-6.1-2.9zm3.2-9.7h-2.8v3.2h2.8zm-2.8 7.8h2.8v-3.3h-2.8z" fill="#fbfcfa"/><g fill="#010102"><path d="m149.65 200.57c-7.8 0-15.14 0-23 0 0 1.37.02 2.66 0 3.95-.43 29.76-.42 59.54-1.47 89.28-.49 13.8-3.02 27.54-4.68 41.3-1.04 8.65-1.93 17.34-3.33 25.93-.87 5.36-3.45 9.89-8.93 12.14-2.25.93-3.57.7-4.66-1.78-1.84-4.18-2.46-8.47-1.37-12.77 5.16-20.31 5.39-41.21 7.61-61.86 3.39-31.59.75-63.28 1.01-94.93.01-1.13-.8-2.54-1.67-3.34-3.63-3.33-7.18-6.82-11.21-9.6-7.89-5.44-11.21-13.26-11.96-22.24-1.62-19.38-3.5-38.78-4.07-58.21-.55-18.47 1.31-36.85 6.47-54.78 1.78-6.2 5-10.88 10.03-14.88 7.83-6.23 16.27-10.96 26.35-11.28 8.47-.27 16.98.41 25.46.9 6.45.38 12.51 2.38 18.1 5.61 8.07 4.67 13.04 11.72 15.44 20.65 4.14 15.42 5.96 31.2 6.51 47.09.68 19.47.75 38.96-3.12 58.2-.82 4.05-2.1 8.01-2.81 12.08-1.65 9.44-7.91 15.5-15.07 20.85-2.96 2.22-4.03 4.81-4.06 8.48-.17 22.27-1.01 44.54-.7 66.8.17 11.7 2.03 23.39 3.47 35.04 2.31 18.63 4.97 37.22 7.31 55.85.36 2.83.23 5.88-.47 8.63-.53 2.11-1.93 4.39-3.62 5.74-3.37 2.68-5.71 1.83-7.56-2.02-3.63-7.56-3.9-15.81-4.7-23.9-3.18-32.06-6.33-64.13-9.09-96.22-.78-9.11-.21-18.34-.24-27.52.01-7.6.03-15.21.03-23.19zm24.59-67.56c-.38-12.73-.74-24.84-1.11-36.95-25.31 0-50.1 0-75.06 0v37.97c25.41-.34 50.61-.68 76.17-1.02zm.68-51.06c-1.13-7.03-1.81-13.57-3.28-19.92-2.11-9.15-7.96-15.34-17.19-17.29-7.93-1.68-16.06-2.45-24.13-3.48-6.15-.79-11.93.8-17.55 3.19-4.16 1.77-7.52 4.05-8.69 8.89-.97 4-2.67 7.81-3.92 11.74-1.84 5.76-3.06 11.58-1.24 17.9 25.04-.34 49.93-.67 76-1.03zm-76.57 65.85c1.21 7.56 2.03 14.57 3.54 21.42 1.12 5.07 3.4 10.6 8.19 12.52 12.15 4.87 25.04 7.21 38.12 4.88 10.84-1.94 19.56-7.06 21.67-19.26.34-1.97 1.28-3.84 1.59-5.81.52-3.29.89-6.61 1.05-9.93.14-2.86-1.24-3.92-4.33-3.9-21.94.15-43.88.08-65.82.08-1.09 0-2.18 0-4.01 0z"/><path d="m289.4 372.19c-5.07-5.75-6.67-12.65-7.48-19.82-3.32-29.22-6.35-58.49-10.01-87.67-2.21-17.62-1.99-35.27-2.32-52.93-.07-3.66-.01-7.32-.01-11.18-7.19-.5-13.74-.96-20.55-1.44 0 7.36-.14 14.6.02 21.84.6 27.08 1.08 54.19-1.56 81.17-1.84 18.79-4.69 37.48-7.35 56.19-.83 5.87-3.91 10.41-10.01 12.28-2.16.66-3.45.3-4.39-2.02-2.15-5.34-2.15-10.77-.71-16.14 4.52-16.86 5.23-34.23 7.07-51.44 1.13-10.57 2.29-21.13 3.07-31.73.38-5.11-.03-10.28-.15-15.42-.43-17.67-.95-35.34-1.27-53.02-.05-2.7-.91-4.34-3.29-5.47-11.46-5.47-18.7-14.44-21.1-26.87-1.54-8-2.53-16.13-3.3-24.25-2.76-29.22-1.97-58.42 3.32-87.26 2.6-14.17 11.11-24.35 25.79-28.8 10.59-3.21 21.25-2.67 31.93-2.23 5.85.24 12.03.72 17.4 2.8 12.6 4.88 20.18 14.58 22.26 28.01 3.13 20.22 6.28 40.46 5.97 61.02-.32 21.15-2.96 41.98-10.19 61.93-1.47 4.06-5.57 7.36-8.96 10.46-2.6 2.38-6.08 3.75-8.96 5.86-1.04.76-2.12 2.4-2.06 3.58 2.15 39.86 3.21 79.79 9.66 119.34 2.57 15.75 3.11 31.83 4.46 47.77.08.9-.71 2.26-1.5 2.76-1.74 1.09-3.77 1.78-5.78 2.68zm-68.48-239.84c25.17-.36 50.15-.73 75.08-1.09 0-12.65 0-24.76 0-36.89-25.2 0-50.1 0-75.08 0zm-.06-51.09c25.48-.37 50.63-.73 76.14-1.1-1.76-8.33-3.64-16.03-4.93-23.83-.84-5.07-3.33-8.94-7.53-11.26-3.82-2.11-8.15-4.05-12.41-4.46-8.98-.87-18.07-.71-27.11-.91-.96-.02-2.01.23-2.88.64-4.24 2-8.46 4.05-12.63 6.18-.82.42-1.76 1.16-2.05 1.97-3.72 10.45-6.36 21.14-6.6 32.77zm1.01 64.97c-1.05 10.6.28 20.25 6.31 28.82 1.58 2.25 3.33 5.1 5.65 5.99 14.14 5.47 28.65 7.11 43.2 1.64 5.22-1.96 10.54-4.62 13.13-9.86 3.44-6.95 5.01-14.54 5.25-22.35.09-2.99-.82-4.34-4.23-4.31-21.93.15-43.87.08-65.8.08-1.1-.01-2.19-.01-3.51-.01z"/></g></svg>