<svg enable-background="new 0 0 400 400" viewBox="0 0 400 400" xmlns="http://www.w3.org/2000/svg"><path d="m361.2 9.6.8-1c.9.7 1.9 1.4 2.9 2.3l-.9 1.1c-1-1-2-1.8-2.8-2.4zm.5 10.6c.9-2.1 1.6-4.3 2.3-6.7.4.2.8.4 1.3.6-.7 2.1-1.5 4.3-2.2 6.6zm.4-15.2.9-.9c1 .8 2 1.6 2.8 2.4l-1 1c-.9-.9-1.8-1.7-2.7-2.5zm12.5-1.2h1.2v1.4h2.7v1.1h-2.7v2.7h-1.2v-.6h-1.8v1.3h4.9v3.8h-1.2v-.5h-3.7c0 .4-.1.9-.1 1.2h5.1v1h-5.2c0 .5-.1.9-.2 1.2h6v1h-5.2c1.1 1.3 2.9 2 5.5 2.2-.4.4-.7.8-.9 1.3-2.9-.5-4.8-1.6-5.7-3.5h-.1c-.8 1.7-2.7 2.9-5.9 3.6-.2-.4-.6-.8-.9-1.1 2.8-.6 4.6-1.4 5.4-2.5h-4.8v-1h5.3c.1-.3.2-.7.2-1.2h-4.9v-1h5c0-.4 0-.8.1-1.2h-3.5v.5h-1.2v-3.8h4.9v-1.3h-1.8v.5h-1.2v-2.7h-2.7v-1h2.6v-1.4h1.2v1.4h4.7v-1.4zm-6.6 8.3h3.6c0-.4 0-.9 0-1.4h-3.6zm1.9-4.6h4.7v-1.3h-4.7zm6.6 3.2h-3.7v1.4h3.7z" fill="#fbfcfa"/><path d="m385.3 3.8h1.3v2.2h2.8v-2.2h1.3v2.2h4.1v9.1h1.7v1.3h-16.9v-1.3h1.7v-9.1h4.1v-2.2zm.4 13.1.7 1.2c-1.8.9-3.8 1.9-6 2.9-.2-.4-.5-.8-.8-1.3 2.3-1 4.3-1.9 6.1-2.8zm-3.1-6.4h2.8v-3.2h-2.8zm0 4.6h2.8v-3.3h-2.8zm4-4.6h2.8v-3.2h-2.8zm0 4.6h2.8v-3.3h-2.8zm3.7 1.9c2.1.9 4.1 1.8 6.1 2.7l-.7 1.3c-2.2-1.1-4.2-2-6.1-2.9zm3.2-9.7h-2.8v3.2h2.8zm-2.8 7.8h2.8v-3.3h-2.8z" fill="#fbfcfa"/><path d="m150.89 84.36c4.75-.82 8.85-1.42 12.88-2.31 1.01-.22 2-1.26 2.68-2.16 6.01-7.95 8.18-17.21 9.34-26.89.39-3.27 1.31-6.64 2.8-9.54 1.09-2.13 3.53-3.56 5.59-5.52 5.49 8.23 6.67 16.39 5.39 24.92-.62 4.17-1.79 8.31-3.11 12.33-2.21 6.72-5.87 12.14-12.3 16.04-6.03 3.66-11.81 7.13-19.08 7.11-1.98-.01-3.02 1-3.27 3-.16 1.32-.58 2.6-1.11 4.91 4.31 0 8.29-.07 12.26.01 7.93.17 15.9.08 23.79.74 6.2.52 9.05 3.79 8.43 8.63-.16 1.23-1.3 2.85-2.41 3.37-7.27 3.38-15.01 2.85-22.74 2.41-4.91-.28-9.83-.27-14.75-.33-2.55-.03-3.9.83-4.09 3.86-.44 7.28-.53 7.06 6.09 10.23 5.02 2.4 9.97 5.09 14.53 8.26 6.1 4.24 8.18 14.02 4.42 20.28-1.32 2.19-3.82 3.69-5.86 5.42-1.96 1.67-4.13 3.1-6 4.85-4.06 3.81-4.7 9.74-1.63 14.26 2.25 3.31 3.97 7.72 7.12 9.46 3.05 1.68 7.64.65 11.55.68 7.14.05 14.28.02 22.42.02.34-5.65 1.14-11.84.97-18-.23-8.32.75-16.22 4.41-23.79 2.44-5.05 6.36-8.61 10.73-11.76 7.29-5.24 15.32-8.8 24.34-9.67 3.22-.31 4.73-1.56 4.73-4.93 0-2.43.62-4.85 1.08-8.1-7.04 0-13.8-.03-20.55.01-5.48.03-10.97.41-16.44.14-6.6-.32-10.21-3.72-10.16-8.86.02-1.84.38-3.15 2.74-3.28 11.26-.59 22.51-1.35 33.76-1.97 3.01-.16 6.03-.02 9.5-.02.37-2.71.72-5.3 1.12-8.29-3.68-.76-7.21-1.83-10.81-2.18-9.02-.88-15.15-6.21-20.32-12.9-6.78-8.79-8.01-19.23-8.05-29.87-.01-3.33.9-6.67.92-10 .03-3.98 2.07-5.53 5.66-5.82.66-.05 1.31-.21 2.13-.34 3.66 8.45 6.07 17.2 6.33 26.28.4 13.64 7.51 18.51 20.47 19.85 2.18.22 2.81-.57 3.25-2.61 2.2-10.28 1.06-20.47-.29-30.71-1.24-9.4.85-18.18 5.61-26.55 4.12.92 6.71 3.49 7.87 7.13 1.11 3.47 2.08 7.17 2.1 10.78.07 12.42-.31 24.83-.51 37.25-.02 1.22 0 2.44 0 4.21 4.78-1.41 9.46-2.26 13.59-4.24 1.96-.94 3.54-3.86 4.15-6.18 1.76-6.66 2.88-13.49 4.37-20.23.72-3.25 1.21-6.68 2.7-9.58 1.21-2.37 3.74-4.06 6.06-6.44 4.94 7.49 6.94 14.79 5.74 22.5-.95 6.13-2.85 12.15-4.78 18.07-3.03 9.32-10.37 14.19-19.1 17.4-1.47.54-2.96 1-4.43 1.55-5 1.87-6.93 4.15-8.13 10.01 3.43.34 6.81.88 10.2.97 5.25.15 10.52-.1 15.77.01 2.78.06 5.63.18 8.29.88 1.82.48 3.75 1.69 4.97 3.13 2.83 3.34 1.88 6.3-2.11 8.03-6.22 2.71-12.74 1.78-19.21 1.69-5.9-.08-11.79-.02-17.91-.02-.31 4.2-.75 7.63-.7 11.05.01.89 1.39 2.09 2.42 2.57 5.42 2.54 9.58 6.33 13.06 11.2 4.98 6.98 4.04 19.8-2.8 24.74-2.86 2.07-5.06 5.05-7.62 7.55-4.98 4.83-4.53 10.6-2.88 16.54.24.85 1.16 1.63 1.94 2.2 5.97 4.34 12.02 8.58 17.97 12.94 2.7 1.98 5.41 4 7.78 6.34 1.37 1.35 2.33 3.27 3.01 5.11.86 2.32.24 4-2.66 4.58-4.18.84-7.99-.1-11.72-1.75-12.47-5.54-21.99-14.56-29.19-25.9-1.91-3-2.89-7.16-2.81-10.75.2-8.06 1.96-15.72 9.59-20.61 2.41-1.55 4.6-3.63 6.44-5.84 3.85-4.62 2.96-8.85-2.11-11.83-5.44-3.2-11.25-3.68-17.18-1.99-4.5 1.28-8.89 2.97-13.3 4.56-10.84 3.92-15.24 12.63-16.42 23.22-.72 6.54-.38 13.19-.68 19.79-.09 2.02.81 2.71 2.5 3.25 6.93 2.2 13.85 4.41 20.7 6.83 1.44.51 2.95 1.64 3.79 2.91 5.54 8.35 7.63 17.88 8.3 27.65 1.27 18.51.21 36.85-4.37 54.96-2.23 8.82-6.78 15.05-15.51 18.12-3.15 1.11-6.06 2.9-9.19 4.08-2.12.8-2.55 1.92-2.17 4.04 2.62 14.53 5.17 29.07 7.63 43.63.42 2.51.79 5.25.18 7.63-.47 1.84-2.21 4.03-3.92 4.71-2.39.95-4.81.11-6.47-2.63-4.89-8.04-6.85-16.94-8.23-26.04-1.51-9.95-2.91-19.91-4.39-30.1-8.43 0-17.12 0-26.16 0-1.24 6.71-2.47 13.5-3.75 20.28-1.74 9.23-3.45 18.46-5.31 27.66-.42 2.05-1.24 4.07-2.16 5.96-3.07 6.29-6.31 7.58-13.22 5.31-1-7.17.37-14.14 2.32-21.06 2.48-8.8 5.33-17.54 7.17-26.48 2.14-10.42 1.44-10.49-7.75-15.73-5.87-3.34-12.11-6.86-16.42-11.83-3.56-4.1-5.43-10.26-6.51-15.81-4.29-21.97-3.35-43.82 2.84-65.42 1.13-3.95 3.05-6.98 6.62-9.19 3.7-2.29 7.1-5.06 10.9-7.81-4.4-4.71-7.16-10.14-6.98-16.57.11-4 .72-7.99 1.37-11.95.2-1.19 1.07-2.46 1.98-3.32 4.62-4.39 9.36-8.65 14.23-13.13-1.1-4.42-4.77-6.45-8.71-7.62-8.45-2.52-16.6-.4-24.57 2.51-.77.28-1.37 1.12-1.98 1.76-9.68 9.98-15.7 21.53-16.38 35.74-.38 7.92-1.69 15.79-2.64 23.67-.78 6.44-2.8 8.4-7.84 8.24-2.24-.07-3.41-.99-4.17-3.05-2.54-6.81-2.71-13.87-1.82-20.88 1.72-13.45 5.03-26.57 9.73-39.3.63-1.71 1.82-3.28 3.01-4.7 1.43-1.71 3.29-3.07 4.69-4.8 5.67-7.05 12.82-11.64 21.7-13.44 2.38-.48 3.32-1.69 3.06-4.17-.23-2.2-.05-4.45-.05-7.41-7.11 0-13.99.06-20.88-.02-6.58-.07-13.2.16-19.71-.59-4.99-.57-7.9-4.16-8.51-8.29-.28-1.9.23-3.07 2.11-3.91 6.34-2.85 13-3.01 19.75-2.65 5.92.31 11.83.67 17.75.99.78.04 1.57.06 2.35-.03 6.92-.8 6.76-.29 6.9-7.9-3.75-.75-7.53-1.75-11.37-2.21-5.61-.68-10.22-3.14-14.07-7.09-11.73-12.08-16.91-26.37-13.84-43.18 1.31-7.17 1.7-7.28 9.1-8.53 3.35 7.69 5.33 15.78 6.22 24.15.06.56.09 1.12.09 1.68.21 13.57 6.9 19.91 23.9 20.16 0-7.92-.03-15.84.01-23.75.04-7.16-.02-14.34.33-21.49.15-3.06 1-6.15 1.92-9.1.64-2.04 2.28-3.18 4.7-2.92 2.3.25 3.53.89 3.6 3.65.4 16.45 1 32.89 1.55 49.33.04 1.19.13 2.39.21 3.89zm-2.69 194.53c0 1.63-.04 2.74.01 3.86.24 6.45 5.22 13.33 11.47 14.61 8.51 1.74 17.12 3.33 25.77 4.05 12.95 1.08 25.83.52 38.58-2.87 7.24-1.92 10.86-6.32 12.48-13.13 1.06-4.46-.5-6.51-5.09-6.51-26.51 0-53.01 0-79.52 0-1.09-.01-2.19-.01-3.7-.01zm-1.08-15.3h91.1c-.53-5.64-1.05-10.76-1.46-15.88-.17-2.12-1.55-2.07-3.08-2.08-8.61-.06-17.23-.15-25.84-.22-17.45-.15-34.9-.3-52.36-.44-2.64-.02-5.29 0-8.37 0 .01 6.6.01 12.69.01 18.62zm90.42-32.11c-.91-3.57-1.99-6.55-2.37-9.62-.49-3.99-2.81-6.04-6.34-6.73-5.58-1.1-11.2-2.45-16.84-2.61-13.53-.38-27.1-.51-40.62.04-6.46.26-13.28.83-18.86 4.98-1.15.85-2.29 2.27-2.58 3.61-.76 3.44-1.04 6.99-1.48 10.33z" fill="#010102"/></svg>