<svg enable-background="new 0 0 400 400" viewBox="0 0 400 400" xmlns="http://www.w3.org/2000/svg"><path d="m361.2 9.6.8-1c.9.7 1.9 1.4 2.9 2.3l-.9 1.1c-1-1-2-1.8-2.8-2.4zm.5 10.6c.9-2.1 1.6-4.3 2.3-6.7.4.2.8.4 1.3.6-.7 2.1-1.5 4.3-2.2 6.6zm.4-15.2.9-.9c1 .8 2 1.6 2.8 2.4l-1 1c-.9-.9-1.8-1.7-2.7-2.5zm12.5-1.2h1.2v1.4h2.7v1.1h-2.7v2.7h-1.2v-.6h-1.8v1.3h4.9v3.8h-1.2v-.5h-3.7c0 .4-.1.9-.1 1.2h5.1v1h-5.2c0 .5-.1.9-.2 1.2h6v1h-5.2c1.1 1.3 2.9 2 5.5 2.2-.4.4-.7.8-.9 1.3-2.9-.5-4.8-1.6-5.7-3.5h-.1c-.8 1.7-2.7 2.9-5.9 3.6-.2-.4-.6-.8-.9-1.1 2.8-.6 4.6-1.4 5.4-2.5h-4.8v-1h5.3c.1-.3.2-.7.2-1.2h-4.9v-1h5c0-.4 0-.8.1-1.2h-3.5v.5h-1.2v-3.8h4.9v-1.3h-1.8v.5h-1.2v-2.7h-2.7v-1h2.6v-1.4h1.2v1.4h4.7v-1.4zm-6.6 8.3h3.6c0-.4 0-.9 0-1.4h-3.6zm1.9-4.6h4.7v-1.3h-4.7zm6.6 3.2h-3.7v1.4h3.7z" fill="#fbfcfa"/><path d="m385.3 3.8h1.3v2.2h2.8v-2.2h1.3v2.2h4.1v9.1h1.7v1.3h-16.9v-1.3h1.7v-9.1h4.1v-2.2zm.4 13.1.7 1.2c-1.8.9-3.8 1.9-6 2.9-.2-.4-.5-.8-.8-1.3 2.3-1 4.3-1.9 6.1-2.8zm-3.1-6.4h2.8v-3.2h-2.8zm0 4.6h2.8v-3.3h-2.8zm4-4.6h2.8v-3.2h-2.8zm0 4.6h2.8v-3.3h-2.8zm3.7 1.9c2.1.9 4.1 1.8 6.1 2.7l-.7 1.3c-2.2-1.1-4.2-2-6.1-2.9zm3.2-9.7h-2.8v3.2h2.8zm-2.8 7.8h2.8v-3.3h-2.8z" fill="#fbfcfa"/><g fill="#010102"><path d="m209.24 301.35c-7.58 0-15.04 0-22.66 0-.22 2.5-.52 4.81-.6 7.14-.64 17.56-5.61 34.37-9.01 51.44-.54 2.7-1.8 5.28-2.96 7.81-.59 1.27-1.52 2.54-2.62 3.38-4.26 3.23-8.82 1.32-9.29-3.94-.18-2.06.17-4.24.67-6.27 2.99-12.25 7.19-24.25 7.83-36.99.36-7.15.8-14.3.99-21.45.03-1-.96-2.42-1.88-2.99-5.5-3.43-11.03-6.85-16.75-9.89-3.68-1.96-5.95-4.84-7.74-8.43-5.5-10.97-7.41-22.7-7.39-34.79.02-16.63 2.57-32.9 6.57-49.07 2.86-11.59 10.57-17.65 20.59-21.92 7.27-3.09 14.91-4.81 22.85-4.6 10.84.3 21.76.04 32.47 1.42 11.02 1.42 21.3 5.83 26.23 16.8 2.61 5.81 3.72 12.38 4.93 18.72 2.76 14.57 3.53 29.32 2.81 44.12-.58 11.89-3.59 23.17-9.55 33.55-.79 1.37-2.07 2.64-3.42 3.48-5.14 3.17-10.35 6.22-15.64 9.15-1.83 1.01-2.5 2.12-2.2 4.23 1.49 10.29 2.36 20.7 4.42 30.88 1.74 8.61 4.87 16.94 7.24 25.44.81 2.89 1.36 5.88 1.71 8.86.33 2.79-.15 5.47-3.31 6.59-3.03 1.07-7.52-.51-9.14-3.08-5.1-8.1-7.77-17.03-9.03-26.44-1.83-13.63-3.67-27.26-5.52-40.89-.1-.77-.39-1.5-.6-2.26zm-55.21-46.96c28.59-.59 56.82-1.17 84.71-1.75 0-10.03 0-19.7 0-29.34-28.58 0-56.6 0-84.71 0zm84.53-46.16c-1.53-4.67-2.75-8.94-4.37-13.06-.73-1.85-1.98-3.74-3.5-5-4.28-3.53-9.53-4.94-14.95-5.22-8.15-.42-16.34-.92-24.47-.53-8.11.39-16.36 1.08-23.77 4.98-2.73 1.44-6.11 3.04-7.39 5.51-2.19 4.23-2.95 9.2-4.45 14.34 27.88-.34 55.11-.68 82.9-1.02zm-1.59 57.76c-26.97 0-53.99 0-81.01 0-.09 8.19 5.2 16.07 12.81 18.18 5.9 1.63 11.92 3 17.98 3.8 10.8 1.43 21.71 1.89 32.17-1.83 9.27-3.3 18.61-6.98 18.05-20.15z"/><path d="m155.65 146.4c5.73.14 11.16.34 16.59.37 3.9.02 7.81-.38 11.71-.24 2.94.1 5.35 1.49 6.64 4.37 1.7 3.79.98 5.68-2.85 7.19-10.34 4.07-21.16 4.51-32.04 3.89-15.98-.91-31.86-2.77-47.28-7.28-2.27-.67-4.34-2.41-6.22-3.99-7.29-6.11-9.34-14.34-9.88-23.47-.77-13.15-2.66-26.25-3.13-39.4-.47-13.04 2.23-25.73 6.15-38.22 2.67-8.5 7.86-14.4 16-17.08 7.79-2.56 15.89-4.54 24-5.71 15.2-2.19 30.55-2.06 45.81-.44 5.02.53 9.55 2.61 11.15 8.5-5.72 3.47-11.96 4.56-18.54 4.52-5.79-.04-11.59.1-17.38.42-.92.05-2.46 1.43-2.54 2.3-.69 7.78-1.11 15.58-1.63 23.67 8.11 1.14 16.05 2.23 23.98 3.37 9.99 1.44 14.76 5.75 16.57 15.74 1.41 7.81.75 15.57-2.1 23.09-1.35 3.56-3.53 6.32-7.29 7.17-6.29 1.43-12.64 2.61-18.98 3.78-8.24 1.53-6.79.18-7.41 8.05-.49 6.13-.85 12.26-1.33 19.4zm-50.57-40.48c.3.06.82.24 1.35.26 14.28.71 28.56 1.59 42.85 2.02 8.97.27 17.89-.64 26.29-4.18 1.27-.53 3.07-1.84 3.12-2.87.21-4.1.23-8.3-.45-12.33-.75-4.44-3.19-5.86-7.79-5.97-16.53-.41-33.06-.9-49.6-1.29-5.1-.12-10.2-.02-15.78-.02.01 8.17.01 16.17.01 24.38zm36.96 40c-.38-8.76-.75-17.06-1.13-25.76-12.11 0-23.77 0-35.55 0 1.19 6.66 1.77 13.53 5.66 19.39.85 1.29 2.22 2.5 3.63 3.1 8.66 3.68 17.8 3.47 27.39 3.27zm-35.73-78.36c11.19-.57 22.39-1.14 33.31-1.7 0-8.48 0-16.57 0-24.63-7.55-.71-14.26.04-20.78 3.04-10.8 4.94-13.32 12.38-12.53 23.29z"/><path d="m263.93 133.73c-3.05-5.96-5.42-12.4-9.34-17.71-4.01-5.44-10.37-8.45-16.91-10.36-8.47-2.47-17.08-4.49-25.53-7.01-2.58-.77-5.33-2.08-7.16-3.96-3.41-3.5-2.04-7.67 2.55-9.11 7.12-2.23 14.24-1.66 21.09.81 7.66 2.77 15.08 6.2 22.68 9.14 5.56 2.15 9.64 5.95 12.95 10.71 3.95 5.68 7.82 11.42 11.85 17.32 5.28-8.13 7.71-17.08 8.29-26.5.73-11.73-.66-23.24-5.19-34.2-.57-1.38-1.48-2.78-2.6-3.74-8.78-7.5-18.97-10.86-30.53-11.05-10.83-.17-21.66-1-32.48-1.72-5.41-.36-7.12-2.88-5.87-8.08.15-.61.4-1.5.84-1.68 3.5-1.45 7.04-3.88 10.59-3.9 12.73-.07 25.54-.01 38.19 1.29 23.42 2.42 34.98 17.38 38.8 36.24 2.69 13.28 3.33 26.63.53 39.97-.61 2.9-1.86 5.73-3.23 8.38-3.43 6.62-7.17 13.08-10.6 19.7-.49.95-.26 2.54.15 3.64 6.63 17.68 13.43 35.3 19.97 53.01 1.58 4.27 2.61 8.78 3.44 13.26.99 5.29-2.53 9.06-7.85 8.63-.92-.07-1.98-1.24-2.56-2.16-6.93-10.98-10.69-23.29-14.87-35.45-3.61-10.54-7.66-20.92-11.64-31.7-5.25 2.04-9.78 3.86-14.35 5.55-12.99 4.81-26.48 6.37-40.23 5.61-5.22-.29-9.86-2.1-11.83-7.75-.75-2.15-.45-3.43 1.93-4.33 6.14-2.32 12.45-3.8 19-3.46 13.79.71 26.54-2.96 38.87-8.66.29-.11.53-.35 1.05-.73z"/></g></svg>