<svg enable-background="new 0 0 400 400" viewBox="0 0 400 400" xmlns="http://www.w3.org/2000/svg"><path d="m361.2 9.6.8-1c.9.7 1.9 1.4 2.9 2.3l-.9 1.1c-1-1-2-1.8-2.8-2.4zm.5 10.6c.9-2.1 1.6-4.3 2.3-6.7.4.2.8.4 1.3.6-.7 2.1-1.5 4.3-2.2 6.6zm.4-15.2.9-.9c1 .8 2 1.6 2.8 2.4l-1 1c-.9-.9-1.8-1.7-2.7-2.5zm12.5-1.2h1.2v1.4h2.7v1.1h-2.7v2.7h-1.2v-.6h-1.8v1.3h4.9v3.8h-1.2v-.5h-3.7c0 .4-.1.9-.1 1.2h5.1v1h-5.2c0 .5-.1.9-.2 1.2h6v1h-5.2c1.1 1.3 2.9 2 5.5 2.2-.4.4-.7.8-.9 1.3-2.9-.5-4.8-1.6-5.7-3.5h-.1c-.8 1.7-2.7 2.9-5.9 3.6-.2-.4-.6-.8-.9-1.1 2.8-.6 4.6-1.4 5.4-2.5h-4.8v-1h5.3c.1-.3.2-.7.2-1.2h-4.9v-1h5c0-.4 0-.8.1-1.2h-3.5v.5h-1.2v-3.8h4.9v-1.3h-1.8v.5h-1.2v-2.7h-2.7v-1h2.6v-1.4h1.2v1.4h4.7v-1.4zm-6.6 8.3h3.6c0-.4 0-.9 0-1.4h-3.6zm1.9-4.6h4.7v-1.3h-4.7zm6.6 3.2h-3.7v1.4h3.7z" fill="#fbfcfa"/><path d="m385.3 3.8h1.3v2.2h2.8v-2.2h1.3v2.2h4.1v9.1h1.7v1.3h-16.9v-1.3h1.7v-9.1h4.1v-2.2zm.4 13.1.7 1.2c-1.8.9-3.8 1.9-6 2.9-.2-.4-.5-.8-.8-1.3 2.3-1 4.3-1.9 6.1-2.8zm-3.1-6.4h2.8v-3.2h-2.8zm0 4.6h2.8v-3.3h-2.8zm4-4.6h2.8v-3.2h-2.8zm0 4.6h2.8v-3.3h-2.8zm3.7 1.9c2.1.9 4.1 1.8 6.1 2.7l-.7 1.3c-2.2-1.1-4.2-2-6.1-2.9zm3.2-9.7h-2.8v3.2h2.8zm-2.8 7.8h2.8v-3.3h-2.8z" fill="#fbfcfa"/><g fill="#010102"><path d="m211.1 170.09c-10.24-3.56-18.36-8.91-26.06-15.11-6.6-5.32-13.46-10.31-20.31-15.31-1.4-1.02-3.25-1.43-4.92-2.07-3.93-1.52-7.57-1.35-11.55.59-6.86 3.34-13.23 7.08-19.2 11.98-6.61 5.42-14.13 9.79-21.58 14.06-2.97 1.7-6.75 2.23-10.24 2.74-4.32.63-5.6-1.72-5.08-5.74.32-2.47 2.07-5.42 4.1-6.88 12.7-9.15 25.56-18.11 38.6-26.76 3.46-2.29 7.77-3.28 11.89-4.95 0-10.4 0-20.99 0-32.15-2.58.69-5.18.84-7.16 2.02-5.26 3.11-10.52 6.33-15.28 10.13-6.38 5.1-12.23 10.91-20.62 12.65-1.5.31-3.07.34-5.08.55 0-3.29-.14-6.28.08-9.25.07-.91.98-1.95 1.78-2.58 9.41-7.4 18.66-15.03 28.43-21.93 4-2.82 9.07-4.21 13.79-5.87 2.51-.89 3.51-2.07 3.52-4.77.04-8.72.43-17.44.48-26.16.04-7.22 1.81-13.89 5.37-20.09 5.97.86 9.8 4.69 10.12 11.53.38 8.25-.18 16.54-.18 24.81 0 4.23.16 8.48.59 12.68.11 1.04 1.39 2.2 2.41 2.86 9.99 6.39 20.12 12.54 30.03 19.04 6.84 4.49 12.53 10.12 15.13 18.23 1.68 5.25-1.29 8.58-6.77 7.22-1.97-.49-3.9-1.69-5.53-2.97-10.83-8.49-21.58-17.09-32.36-25.65-.69-.54-1.4-1.06-2.4-1.82-.27.98-.58 1.65-.62 2.33-.52 8.94-.95 17.88-1.52 26.81-.12 1.92.44 3.04 2.12 4.03 6.36 3.75 12.54 7.8 18.95 11.44 10.59 6.01 20.39 12.94 28.64 23.47.97-5.26 1.92-9.64 2.53-14.06.47-3.43.5-6.92.72-10.38 1.25-19.92 10.89-28.45 28.77-31.14 5.78-.87 11.81-.18 17.72-.01 7.2.2 14.33.1 21.09-2.85 5.58-2.43 8.41-6.53 7.9-12.66-.37-4.42-1.39-8.81-2.41-13.14-.25-1.08-1.47-2.19-2.53-2.78-8.35-4.62-17.51-5.94-26.86-6.11-9.62-.17-19.25.02-28.88-.08-2.44-.02-4.91-.34-7.3-.82-4-.81-6.34-4.27-5.49-8.22.2-.92 1.38-1.92 2.34-2.34 7.66-3.31 15.79-4.12 23.99-3.76 15.58.69 30.91 3.18 45.94 7.33 2.29.63 4.61 2.26 6.24 4.05 7.85 8.6 9.14 19.02 7.99 30.12-1.56 14.97-5.65 16.98-20.77 21.73-4.52 1.42-9.75.9-14.64.75-8.7-.27-17.11.88-25.49 3.22-6.24 1.74-9.6 5.87-11.29 11.63-3.03 10.29-3.43 20.86-3.47 31.54-.15 38.95-.41 77.89-.92 116.84-.25 19.37-2.42 38.6-5.26 57.78-1.14 7.72-1.22 15.6-1.87 23.4-.41 4.97-2.18 9.06-7.24 11.11-2.72 1.11-4.32.63-5.37-2.26-2.32-6.41-2.39-13.01-1.36-19.56 4.05-25.64 3.48-51.54 4.53-77.35.75-18.34 1.41-36.68 1.75-55.03.29-15.39.07-30.83.07-46.06z"/><path d="m263.54 268.5c-5.61 1.13-11.05 2.22-16.49 3.31-2.3.46-4.59 1.1-6.91 1.31-4.68.42-7.19-1.9-7.39-6.55-.03-.67.08-1.35.02-2.01-.28-3.35.98-4.92 4.57-5.43 6.52-.93 12.92-2.59 19.41-3.74 2.97-.52 4.34-2.14 4.27-4.96-.05-2.33 0-4.79-.7-6.96-2.03-6.26-4.31-12.44-6.76-18.55-.45-1.13-2.04-2.26-3.3-2.54-3.81-.85-7.72-1.26-11.59-1.87-5.18-.81-7.8-5.64-5.5-10.25.29-.58 1.07-1.1 1.73-1.28 9.12-2.53 17.94-.81 26.67 2.01 2.94 4.4 6.53 8.52 8.65 13.29 2.33 5.25 3.3 11.1 5.04 17.32 4.4-7.13 6.9-14.32 7.91-21.94 2.62-19.69-.51-38.78-6.75-57.45-.41-1.23-1.97-2.35-3.26-2.96-7.83-3.73-16.35-4.3-24.79-5.35-2.73-.34-5.66-.89-7.97-2.24-1.79-1.04-3.26-3.31-3.96-5.35-.82-2.4.16-4.27 3.21-5.04 11.14-2.8 22.26-1.92 33.26.25 10.44 2.06 16.25 9.47 19.79 19.09 3.53 9.59 4.97 19.55 5 29.63.04 11.28.02 22.65-1.28 33.84-1.49 12.82-6.44 24.57-15.38 34.25-1.68 1.82-2.18 3.62-1.88 6.04 2.86 22.41 5.58 44.85 8.45 67.26 1.01 7.87 2.34 15.71 3.46 23.57.83 5.78-1.61 9.28-6.88 10.44-2.1.46-3.51.07-4.12-2.06-2.33-8.25-5.45-16.39-6.75-24.8-3.43-22.1-6.05-44.32-9.01-66.49-.14-1.11-.43-2.17-.77-3.79z"/><path d="m150.54 289.57c-2.58 6.13-4.52 12.28-7.61 17.78-7.49 13.34-15.45 26.42-23.37 39.51-3.18 5.26-6.71 10.3-10.15 15.4-2.16 3.21-5.2 5.14-9.01 5.92-2.81.58-4.91-.21-4.64-3.32.27-3.12.63-6.55 2.09-9.21 11.03-20.09 22.19-40.11 33.61-59.99 6.65-11.57 10.17-24.08 11.93-37.1 3.05-22.49 2.7-45.03 1.01-67.66-.88-11.75.32-23.65.7-35.48.03-.91.86-1.98 1.61-2.64.99-.88 2.26-1.42 3.41-2.11 4.13-2.48 6.24-2.31 8.58 1.95 1.6 2.92 2.8 6.51 2.78 9.79-.13 20.36-.64 40.72-1.05 61.08-.17 8.62-.97 17.26-.44 25.83.49 7.99 2.24 15.93 3.66 23.85 2.86 15.95 5.47 32.03 12.12 46.96 4.54 10.2 9.8 20.07 14.8 30.06 3.08 6.15 5.62 12.39 5.48 19.47-.05 2.67-.65 4.73-3.42 5.3-2.59.53-5.02-.17-6.3-2.68-5.38-10.53-11.25-20.87-15.85-31.74-6.6-15.63-12.25-31.66-18.32-47.52-.42-1.11-1.01-2.16-1.62-3.45z"/><path d="m189.16 179.14c-.51 8.25-1.66 16.52-1.37 24.75.41 11.81 1.84 23.58 2.88 35.36 1.08 12.24 2.13 24.48 3.38 36.71.39 3.78-2.46 4.61-4.73 5.46-2.33.87-4.54-.24-5.81-2.69-4.09-7.94-6.32-16.48-7.65-25.22-3.22-21.18-4.36-42.46-2.14-63.84.49-4.67.82-9.35 1.38-14.01.2-1.63.55-3.39 1.37-4.78 1.03-1.76 2.45-4.34 3.97-4.54 3.04-.4 6 1.3 7.25 4.38 1.07 2.63 1.47 5.54 2.17 8.32-.24.02-.47.06-.7.1z"/><path d="m121.4 165.07c6.01.87 8.92 3.64 9.17 9.42 1.04 24 3.33 48.03 0 71.99-1.22 8.79-3.6 17.44-5.91 26.03-1.02 3.79-4.31 4.8-7.77 3.05-.97-.49-1.85-1.57-2.3-2.58-2.1-4.74-2.48-9.71-1.38-14.77 4.03-18.54 3.56-37.3 2.87-56.09-.45-11.99.16-23.93 4.55-35.34.18-.51.45-1 .77-1.71z"/><path d="m255.82 191.35c-6.31-1.22-12.2-2.38-18.09-3.5-2.15-.41-2.99-1.62-2.7-3.78.13-.99.11-2.02 0-3.02-.23-2.1.5-3.04 2.68-3.74 10.28-3.35 20.74-2.79 31.21-1.73 2.06.21 4.3 1.44 5.9 2.84 4.15 3.65 3.58 7.42-1.58 9.01-5.71 1.75-11.68 2.66-17.42 3.92z"/></g></svg>