<svg enable-background="new 0 0 400 400" viewBox="0 0 400 400" xmlns="http://www.w3.org/2000/svg"><path d="m361.2 9.6.8-1c.9.7 1.9 1.4 2.9 2.3l-.9 1.1c-1-1-2-1.8-2.8-2.4zm.5 10.6c.9-2.1 1.6-4.3 2.3-6.7.4.2.8.4 1.3.6-.7 2.1-1.5 4.3-2.2 6.6zm.4-15.2.9-.9c1 .8 2 1.6 2.8 2.4l-1 1c-.9-.9-1.8-1.7-2.7-2.5zm12.5-1.2h1.2v1.4h2.7v1.1h-2.7v2.7h-1.2v-.6h-1.8v1.3h4.9v3.8h-1.2v-.5h-3.7c0 .4-.1.9-.1 1.2h5.1v1h-5.2c0 .5-.1.9-.2 1.2h6v1h-5.2c1.1 1.3 2.9 2 5.5 2.2-.4.4-.7.8-.9 1.3-2.9-.5-4.8-1.6-5.7-3.5h-.1c-.8 1.7-2.7 2.9-5.9 3.6-.2-.4-.6-.8-.9-1.1 2.8-.6 4.6-1.4 5.4-2.5h-4.8v-1h5.3c.1-.3.2-.7.2-1.2h-4.9v-1h5c0-.4 0-.8.1-1.2h-3.5v.5h-1.2v-3.8h4.9v-1.3h-1.8v.5h-1.2v-2.7h-2.7v-1h2.6v-1.4h1.2v1.4h4.7v-1.4zm-6.6 8.3h3.6c0-.4 0-.9 0-1.4h-3.6zm1.9-4.6h4.7v-1.3h-4.7zm6.6 3.2h-3.7v1.4h3.7z" fill="#fbfcfa"/><path d="m385.3 3.8h1.3v2.2h2.8v-2.2h1.3v2.2h4.1v9.1h1.7v1.3h-16.9v-1.3h1.7v-9.1h4.1v-2.2zm.4 13.1.7 1.2c-1.8.9-3.8 1.9-6 2.9-.2-.4-.5-.8-.8-1.3 2.3-1 4.3-1.9 6.1-2.8zm-3.1-6.4h2.8v-3.2h-2.8zm0 4.6h2.8v-3.3h-2.8zm4-4.6h2.8v-3.2h-2.8zm0 4.6h2.8v-3.3h-2.8zm3.7 1.9c2.1.9 4.1 1.8 6.1 2.7l-.7 1.3c-2.2-1.1-4.2-2-6.1-2.9zm3.2-9.7h-2.8v3.2h2.8zm-2.8 7.8h2.8v-3.3h-2.8z" fill="#fbfcfa"/><g fill="#010102"><path d="m195.93 305.83c0-15.3-.24-29.96.05-44.6.66-33.45 1.16-66.91 2.62-100.32.52-11.85 3.25-23.66 5.63-35.35 1.55-7.61 7.51-11.68 14.6-13.89 13.53-4.21 27.2-3.44 40.78-.38 7.74 1.74 12.21 7.12 14.98 14.43 3.06 8.09 3.94 16.45 4.52 24.96 3.41 50.16 2.78 100.41 3.39 150.63.03 2.79.95 4.47 3.53 4.58 6.21.26 12.44.19 18.66.25 2 .02 4.04-.2 5.99.12 4.48.74 6.45 3.22 6.03 7.7-.11 1.17-1.03 2.68-2.04 3.3-5.67 3.49-12.08 4.01-18.48 3.51-20.13-1.56-40.23-.08-60.35.21-21.47.31-42.96 1.27-64.28-2.43-.44-.08-.89-.11-1.33-.2-4.22-.83-6.1-3.54-4.94-7.73.25-.91 1.92-1.87 3.03-2.01 6.42-.82 12.86-1.42 19.3-2.06 2.66-.28 5.31-.47 8.31-.72zm73.1-.1c-.61-20.29-1.21-40.09-1.81-60.05-19.63.58-38.68 1.15-57.78 1.71-.08.76-.17 1.19-.16 1.62.27 18.1.59 36.21.79 54.31.03 2.63 1.37 2.79 3.39 2.77 13.41-.16 26.82-.26 40.23-.36 5-.03 10 0 15.34 0zm-57.66-131.44h55.83c.49-12 .14-23.36-2.39-34.53-1.23-5.41-3.85-10.3-7.95-14.1-1.4-1.3-3.58-2.3-5.47-2.42-7.35-.47-14.73-.73-22.09-.67-5.45.04-9.67 3.29-11.94 7.76-4.5 8.85-6.25 18.61-6.7 28.49-.25 5.25.45 10.56.71 15.47zm-.63 14.48v44.32c18.93-.36 37.95-.72 56.59-1.08 0-14.76 0-28.93 0-43.24-19.04 0-37.55 0-56.59 0z"/><path d="m126.63 185.65c5.07 1.96 7.55 5.56 7.71 10.61.15 4.58-.05 9.16-.05 13.74-.01 22.05.05 44.1-.07 66.15-.02 3.04.75 4.19 3.91 4.03 3.45-.17 6.93.09 10.38.39 2.36.2 4.14-.54 4.65-2.79 1.24-5.51 3.24-11.12 3.07-16.63-.35-11.37-2.05-22.69-2.93-34.05-.3-3.84-.25-7.83.5-11.59.4-1.98 2.32-4.12 4.14-5.26 3.39-2.13 5.39-1.26 7.03 2.4 3.86 8.62 5.17 17.79 5.4 27.12.36 14.8-.39 29.5-3.82 44.01-.94 3.97-3.04 6.61-6.59 7.66-5.19 1.53-10.54 2.99-15.9 3.41-9.75.76-9.76.43-9.95 10.19-.13 6.49-.21 12.98-.53 19.46-.12 2.34.66 3.43 2.87 4.03 13.8 3.77 26.06 10.48 37.15 19.47 6.75 5.47 11.52 12.05 13.16 20.77.54 2.89.32 5.17-2.63 6.32-2.77 1.08-5.47 1.05-7.63-1.43-3.96-4.56-8.13-8.97-11.82-13.74-8.99-11.64-20.84-16.97-35.4-17.34-7.47-.19-15.01-.72-22.34-2.06-14.06-2.57-21.14-11.05-22.58-25.23-1.27-12.57-3.28-25.08-4.25-37.67-1.53-19.9-1.66-39.81 3.54-59.34.31-1.15 1.4-2.9 2.21-2.95 2.11-.11 5.16-1.42 6.11 1.68 1.26 4.1 2.58 8.36 2.72 12.59.8 23.48 1.1 46.97 1.92 70.45.2 5.76 1.68 11.48 2.61 17.22.69 4.23 3.3 6.9 7.33 7.81 4.21.95 8.54 1.38 13.13 2.08.14-1.46.29-2.31.3-3.16.24-32.45.51-64.91.64-97.37.03-7.38-.45-14.76-.62-22.15-.16-7.01 1.28-13.52 6.63-18.83z"/><path d="m128.33 163.92c-8.1 9.58-15.81 19.32-24.23 28.39-4.03 4.34-9.31 7.55-14.23 10.98-1.56 1.08-3.76 1.44-5.72 1.7-4.13.55-5.25-.63-4.69-4.83.42-3.13 1.54-5.79 4.02-8.16 6.87-6.56 13.42-13.47 20.05-20.28 10.19-10.47 13.85-23.48 14.43-37.62.19-4.66.03-9.34.03-14.68-7.3 2.11-14.23 4.17-21.19 6.09-4.08 1.12-8.19 2.22-12.36 2.94-2.46.43-5.08.06-6.01-2.96-.92-2.99.32-5.52 3.2-7.22 10.19-6 20.76-10.97 32.7-12.23 2.66-.28 3.41-1.55 3.51-4.11.38-9.61 1.28-19.22 1.43-28.83.32-19.87 10.66-32.8 27.78-41.18 4.41-2.16 9.03-3.87 13.58-5.74 3.61-1.48 8.27.21 10.12 3.59 1.57 2.87.95 5.2-1.93 7.07-9.29 6.02-18.36 12.43-27.97 17.9-6.1 3.47-8.35 8.59-8.68 14.76-.38 7.12.01 14.29.18 21.43.09 3.9.4 7.79.63 11.99 6.17-.91 12.12-1.74 18.04-2.75.67-.11 1.62-1.33 1.63-2.05.08-4.75.15-9.53-.2-14.27-.22-2.98-1.59-5.89-1.68-8.85-.07-2.17.56-4.79 1.84-6.48 2.82-3.72 6.64-3.56 9.12.31 7.13 11.13 9.58 23.1 4.77 35.77-2.48 6.55-11.66 11.59-18.73 11.31-3.22-.12-6.45.25-9.68.38-3.87.15-5.61 2.58-5.9 6.02-.87 10.23 1.17 20.1 4.94 29.5 1.18 2.95 4.17 5.19 6.39 7.71 9.26 10.48 18.57 20.92 27.8 31.44 1.76 2.01 3.38 4.18 4.77 6.46 2.19 3.6 1.91 7.51-.36 9.13-3.59 2.57-7.77 2.17-10.86-1.23-4.43-4.89-8.75-9.89-13.11-14.85-7.32-8.32-14.63-16.64-21.95-24.96-.64-.71-1.32-1.43-1.48-1.59z"/></g></svg>