<svg enable-background="new 0 0 400 400" viewBox="0 0 400 400" xmlns="http://www.w3.org/2000/svg"><path d="m361.2 9.6.8-1c.9.7 1.9 1.4 2.9 2.3l-.9 1.1c-1-1-2-1.8-2.8-2.4zm.5 10.6c.9-2.1 1.6-4.3 2.3-6.7.4.2.8.4 1.3.6-.7 2.1-1.5 4.3-2.2 6.6zm.4-15.2.9-.9c1 .8 2 1.6 2.8 2.4l-1 1c-.9-.9-1.8-1.7-2.7-2.5zm12.5-1.2h1.2v1.4h2.7v1.1h-2.7v2.7h-1.2v-.6h-1.8v1.3h4.9v3.8h-1.2v-.5h-3.7c0 .4-.1.9-.1 1.2h5.1v1h-5.2c0 .5-.1.9-.2 1.2h6v1h-5.2c1.1 1.3 2.9 2 5.5 2.2-.4.4-.7.8-.9 1.3-2.9-.5-4.8-1.6-5.7-3.5h-.1c-.8 1.7-2.7 2.9-5.9 3.6-.2-.4-.6-.8-.9-1.1 2.8-.6 4.6-1.4 5.4-2.5h-4.8v-1h5.3c.1-.3.2-.7.2-1.2h-4.9v-1h5c0-.4 0-.8.1-1.2h-3.5v.5h-1.2v-3.8h4.9v-1.3h-1.8v.5h-1.2v-2.7h-2.7v-1h2.6v-1.4h1.2v1.4h4.7v-1.4zm-6.6 8.3h3.6c0-.4 0-.9 0-1.4h-3.6zm1.9-4.6h4.7v-1.3h-4.7zm6.6 3.2h-3.7v1.4h3.7z" fill="#fbfcfa"/><path d="m385.3 3.8h1.3v2.2h2.8v-2.2h1.3v2.2h4.1v9.1h1.7v1.3h-16.9v-1.3h1.7v-9.1h4.1v-2.2zm.4 13.1.7 1.2c-1.8.9-3.8 1.9-6 2.9-.2-.4-.5-.8-.8-1.3 2.3-1 4.3-1.9 6.1-2.8zm-3.1-6.4h2.8v-3.2h-2.8zm0 4.6h2.8v-3.3h-2.8zm4-4.6h2.8v-3.2h-2.8zm0 4.6h2.8v-3.3h-2.8zm3.7 1.9c2.1.9 4.1 1.8 6.1 2.7l-.7 1.3c-2.2-1.1-4.2-2-6.1-2.9zm3.2-9.7h-2.8v3.2h2.8zm-2.8 7.8h2.8v-3.3h-2.8z" fill="#fbfcfa"/><g fill="#010102"><path d="m114.16 334.21c0-8.05-.03-15.76.01-23.47.21-42.32.44-84.64.67-126.96.06-9.96.25-19.93.17-29.89-.01-1.36-1.01-3.1-2.1-4-2.67-2.2-5.5-4.28-8.54-5.91-9.4-5.03-13.25-13.69-15.12-23.36-2.79-14.5-.9-28.74 3.87-42.61.47-1.36 1.69-2.61 2.85-3.57 7.11-5.85 15.46-8.65 24.53-8.37 7.21.22 14.46 1.13 21.55 2.45 4.4.82 7.48 4.05 9.56 8.24 5.91 11.92 5.93 24.37 3.75 37.06-.51 2.97-1.4 5.87-1.96 8.83-1.63 8.67-6.8 15.24-12.9 21.08-2.01 1.92-4.95 2.96-7.61 4.08-2.02.85-2.81 1.9-2.83 4.21-.19 39.63-.5 79.26-.77 118.89-.03 4.34 0 8.67 0 13.19 3.67-.46 7.02-.71 10.29-1.37 1.25-.25 2.63-1.19 3.41-2.23 2.89-3.8 3.89-8.34 3.78-12.98-.73-29.76-1.58-59.52-2.4-89.28-.09-3.36-.58-6.74-.28-10.06.23-2.57.84-5.42 2.23-7.52 3.01-4.53 6.63-4.14 8.67.79 1.22 2.96 2.28 6.15 2.52 9.31 1.43 18.85 2.84 37.71 3.8 56.59 1.05 20.64.25 41.18-5.71 61.19-.47 1.56-1.58 3.21-2.87 4.19-6.96 5.3-13.28 7.61-23.12 8.57 0 5.33.05 10.78-.01 16.22-.06 5.04-.12 10.08-.4 15.11-.12 2.11.63 2.95 2.6 3.41 6.42 1.5 12.81 3.13 19.2 4.76 7.44 1.9 11.98 6.49 13.45 14.17.5 2.63-.55 3.9-2.75 4.37-1.47.31-3.34.55-4.58-.07-7.81-3.93-16.41-4.22-24.74-5.7-11.03-1.96-21.97-4.22-32.31-8.66-1.44-.62-2.86-1.72-3.8-2.97-3.92-5.22-6.18-11.16-6.55-17.68-.74-12.95-1.77-25.91-1.87-38.88-.26-34.6 0-69.2-.21-103.79-.02-4.05 3.27-7.08 6.71-6.1 1.28.36 2.84 1.27 3.4 2.37 2.71 5.33 2.98 11.15 2.97 17.01-.02 34.26-.08 68.52.06 102.78.03 7.82.72 15.64 1.22 23.46.4 6.02 4.67 10.7 12.16 13.1zm30.28-235.76c-1.18-4.25-1.97-7.94-3.3-11.42-.41-1.08-2.19-2.16-3.45-2.3-5.77-.66-11.65-.6-17.37-1.55-5.44-.91-10.21.02-14.5 3.23-1.13.85-2.2 2.49-2.31 3.86-.48 5.91-.83 11.85-.77 17.77.04 3.88.41 7.87 1.42 11.59 2.64 9.73 7.87 13.79 18.06 14.75 6.23.58 14.67-4.12 16.36-10.1 2.41-8.59 3.99-17.39 5.86-25.83z"/><path d="m267.27 346.01c9.78 2.29 19.39 1.48 29 1.32 3.99-.07 8.01.35 11.98.83 1.48.18 2.96 1.02 4.26 1.84 6.71 4.24 6.61 9.34-.12 13.29-4.21 2.47-8.76 3.15-13.53 3.13-12.86-.06-25.71-.19-38.57-.01-17.22.24-34.46 1.37-51.66.88-10.74-.31-21.42-2.92-32.13-4.46-2.44-.35-3.45-1.75-3.35-4.11.01-.22-.03-.45-.05-.67-.58-7.21-.43-7.28 6.83-9.17 7.54-1.96 15.12-1.06 22.69-.52 11.65.83 12.2.4 12.67-10.92.37-8.95.72-17.9 1.25-26.84.12-2.06-.58-2.97-2.37-3.73-4.11-1.74-8.04-3.98-12.23-5.49-8.34-3-12.41-9.47-13.93-17.5-2.46-12.97-1.47-26.02 2.74-38.41 1.25-3.68 6.2-6.43 9.93-8.88 5.88-3.85 12.92-4.54 19.67-4.82 14.5-.6 29.09-1.44 43.53-.44 18.93 1.32 26.96 14.8 28.64 30.53 1.07 9.95-.07 19.71-4.7 28.75-1 1.96-2.72 3.81-4.56 5.03-4.85 3.2-9.99 5.96-14.9 9.06-.94.59-1.97 1.99-1.96 3.01.2 12.65.56 25.28.87 38.3zm-27.33-99.62c-.01.1-.02.21-.02.31-1.79 0-3.59-.12-5.37.02-7.79.64-15.59 1.17-23.34 2.13-3.56.44-7.25 1.79-8.33 5.77-2.38 8.72-2.97 17.57-1.27 26.56.72 3.81 2.6 5.95 6.3 7.27 11.77 4.2 23.93 5.46 36.29 5.38 9.83-.07 19.38-1.46 27.93-6.89 2.86-1.81 4.97-3.94 5.29-7.6.29-3.33 1.2-6.6 1.5-9.92 1.11-12.16-4.82-19.85-16.59-21.23-7.43-.88-14.92-1.22-22.39-1.8zm12.43 99.75c0-12.82 0-25.05 0-37.26-7.8 0-15 0-22.26 0v38.27c7.7-.35 15.12-.69 22.26-1.01z"/><path d="m268.2 166.51c0-4.75-.04-9.51.01-14.26.27-27.98.56-55.96.82-83.94.07-7.37-.21-14.75.25-22.1.19-3.12 1.87-6.15 2.87-9.22.77-2.38 2.27-2.31 4.19-1.36 3.21 1.58 4.75 4.36 5.4 7.65.43 2.18.61 4.44.6 6.67-.08 23.17-.21 46.34-.33 69.5-.01 1.12-.01 2.25.13 3.35.33 2.64.88 5.18 4.15 5.69 3.94.62 6.09-.24 7.13-4.09 1.45-5.35 2.98-10.87 3.09-16.34.21-10.84-.66-21.69-.81-32.55-.05-3.87.53-7.79 1.15-11.63.25-1.57 1.15-3.19 2.17-4.46 3.29-4.06 6.19-3.69 7.63 1.22 1.47 5.01 2.95 10.19 3.22 15.35 1.05 19.65-.55 39.13-5.22 58.29-1.41 5.77-6.39 9.19-12.44 8.97-.67-.02-1.34-.05-2.01-.05-5.46.03-6.09.66-6.37 5.96-.39 7.15-.75 14.31-1.33 21.44-.2 2.49.42 3.91 2.84 4.82 6.89 2.61 13.75 5.32 20.55 8.16 3.8 1.59 7.59 3.29 11.12 5.37 3.38 2 5.43 5.24 6.37 9.11.52 2.16.03 3.55-2.34 4.24-5.81 1.68-11.76 1.67-17.16-.53-11.67-4.74-23.05-10.17-34.54-15.35-1.42-.64-2.68-1.66-4.12-2.24-10.94-4.42-15.67-13.7-18.95-24.11-3.38-10.74-3.36-21.84-3.36-32.92-.01-15.22-.13-30.45.27-45.67.14-5.4 1.64-10.76 2.57-16.13.51-2.94 2.87-2.07 4.76-2.27 1.91-.2 2.7.58 3.29 2.39 4.58 14.13 4.63 28.59 3.6 43.18-.73 10.35-1.78 20.75-1.54 31.09.24 10.16 3.96 19.41 11.3 26.84.34.02.69-.02 1.04-.07z"/><path d="m164.2 194.17c.16-2.69.11-5.4.58-8 .18-1 1.4-2.17 2.42-2.61 7.58-3.3 15.23-6.45 22.87-9.6 1.57-.65 2.48-1.36 2.5-3.36.06-8.17.28-16.34.6-24.5.07-1.92-.43-2.83-2.33-3.26-2.72-.61-5.35-1.79-8.09-2.16-4.06-.55-6.19-3-7.87-6.38-3.69-7.44-5.27-15.42-6.13-23.56-1.47-13.87-1.78-27.71 1.71-41.37.5-1.97.45-4.42 3.91-4.31 2.85.09 4.31.71 4.51 3.73.6 9.13 1.32 18.25 2.01 27.37.52 6.9 1.04 13.8 1.6 20.7.22 2.7 1.29 4.8 3.96 6.05 1.98.93 3.75 2.34 5.86 3.71 2.6-12.27 2.6-24.28 1.93-36.35-.63-11.38-1.87-22.8-1.39-34.14.3-7.07 3.31-14.02 5.09-21.03.62-2.42 2.17-2.48 4.09-1.67 3.24 1.36 5.32 3.78 5.91 7.19.63 3.63 1.24 7.31 1.25 10.98.1 26.87.09 53.74.03 80.61-.02 7.05-.44 14.1-.44 21.14 0 4.79.93 6.79 3.58 9.27 3.71-5.12 5.38-10.95 6.38-16.98 2.49-14.91 1.22-29.92 1.05-44.9-.13-11.18-.4-22.37-.35-33.55.03-6.24 2.44-9.02 8.61-10.69 3.87 6.39 5.63 13.44 5.44 20.92-.19 7.26-1.11 14.51-1.22 21.77-.21 13.08-.16 26.17-.02 39.26.11 9.48-.92 18.76-4.1 27.72-.61 1.72-1.57 3.54-2.89 4.75-13.38 12.26-28.95 20.52-46.67 24.44-4.64 1.01-9.56.99-14.39-1.19z"/><path d="m233.4 216.2c-14.19-.4-28.37-.88-42.56-1.11-2.84-.05-4.35-1.45-4.81-3.67-.54-2.57-1.38-5.42 1.53-7.58 2.62-1.96 5.29-2.8 8.62-2.78 25.72.1 51.44-.02 77.16 0 2.9 0 5.8.33 8.69.68 3.69.45 5.63 2.4 6.23 5.95.64 3.84-.2 5.86-3.95 7.38-2.74 1.11-5.76 2.04-8.67 2.09-14.08.21-28.16.1-42.23.1-.02-.36-.01-.71-.01-1.06z"/></g></svg>