<svg enable-background="new 0 0 400 400" viewBox="0 0 400 400" xmlns="http://www.w3.org/2000/svg"><path d="m361.2 9.6.8-1c.9.7 1.9 1.4 2.9 2.3l-.9 1.1c-1-1-2-1.8-2.8-2.4zm.5 10.6c.9-2.1 1.6-4.3 2.3-6.7.4.2.8.4 1.3.6-.7 2.1-1.5 4.3-2.2 6.6zm.4-15.2.9-.9c1 .8 2 1.6 2.8 2.4l-1 1c-.9-.9-1.8-1.7-2.7-2.5zm12.5-1.2h1.2v1.4h2.7v1.1h-2.7v2.7h-1.2v-.6h-1.8v1.3h4.9v3.8h-1.2v-.5h-3.7c0 .4-.1.9-.1 1.2h5.1v1h-5.2c0 .5-.1.9-.2 1.2h6v1h-5.2c1.1 1.3 2.9 2 5.5 2.2-.4.4-.7.8-.9 1.3-2.9-.5-4.8-1.6-5.7-3.5h-.1c-.8 1.7-2.7 2.9-5.9 3.6-.2-.4-.6-.8-.9-1.1 2.8-.6 4.6-1.4 5.4-2.5h-4.8v-1h5.3c.1-.3.2-.7.2-1.2h-4.9v-1h5c0-.4 0-.8.1-1.2h-3.5v.5h-1.2v-3.8h4.9v-1.3h-1.8v.5h-1.2v-2.7h-2.7v-1h2.6v-1.4h1.2v1.4h4.7v-1.4zm-6.6 8.3h3.6c0-.4 0-.9 0-1.4h-3.6zm1.9-4.6h4.7v-1.3h-4.7zm6.6 3.2h-3.7v1.4h3.7z" fill="#fbfcfa"/><path d="m385.3 3.8h1.3v2.2h2.8v-2.2h1.3v2.2h4.1v9.1h1.7v1.3h-16.9v-1.3h1.7v-9.1h4.1v-2.2zm.4 13.1.7 1.2c-1.8.9-3.8 1.9-6 2.9-.2-.4-.5-.8-.8-1.3 2.3-1 4.3-1.9 6.1-2.8zm-3.1-6.4h2.8v-3.2h-2.8zm0 4.6h2.8v-3.3h-2.8zm4-4.6h2.8v-3.2h-2.8zm0 4.6h2.8v-3.3h-2.8zm3.7 1.9c2.1.9 4.1 1.8 6.1 2.7l-.7 1.3c-2.2-1.1-4.2-2-6.1-2.9zm3.2-9.7h-2.8v3.2h2.8zm-2.8 7.8h2.8v-3.3h-2.8z" fill="#fbfcfa"/><g fill="#010102"><path d="m125.53 248.04c4.53-.29 8.88-.45 13.19-.96.91-.11 1.92-1.34 2.46-2.3 4.11-7.38 5.96-15.42 6.28-23.78.51-13.13-.83-26.12-2.87-39.1-.66-4.2-.14-8.64.3-12.92.17-1.6 1.38-3.33 2.58-4.54 3.44-3.44 7.04-3.1 8.54 1.37 1.79 5.32 3.19 11.01 3.38 16.58.49 14.42.75 28.89.04 43.29-.41 8.39-2.17 16.88-4.6 24.94-1.84 6.09-7.83 9.02-13.77 10.6-3.71.99-7.72 1.03-11.61 1.13-2.36.06-3.36.56-3.39 3.17-.09 7.83-.38 15.66-.76 23.49-.11 2.26.55 3.19 2.85 3.4 14.69 1.31 26.74 8.2 37.38 17.95 4.15 3.8 5.12 6.67 3.3 9.49-1.51 2.34-6.53 2.96-10.56 1.05-2.31-1.09-4.55-2.42-6.58-3.96-9.45-7.15-19.88-9.99-31.78-8.89-6.01.55-12.36.08-18.25-1.27-13.69-3.13-19.98-11.13-20.57-25.21-1.08-25.71-2.17-51.42-2.85-77.14-.33-12.63.29-25.28.42-37.92.03-3.33 2.61-3.96 4.89-4.53 2.23-.55 4.92-.89 5.63 2.37 1.08 4.98 2.71 9.99 2.81 15.01.41 20.13.05 40.28.51 60.41.31 13.62 1.26 27.25 2.42 40.83.75 8.82 5.54 12.6 15.11 12.72 0-6.12-.07-12.24.01-18.36.49-39.28.99-78.55 1.57-117.83.03-2.17-.71-3.15-2.66-3.91-26.87-10.43-33.83-38.57-22.6-62.07 2.02-4.23 6.41-5.73 10.6-7 8.79-2.66 17.74-3.3 26.85-1.96 3.65.54 7.34.75 11.02 1.09 8.66.8 14.83 5.78 17.51 14.11 2.31 7.18 1.43 14.43.26 21.61-.62 3.83-1.82 7.6-3.06 11.29-1.43 4.28-3.63 8-7.48 10.79-5.34 3.87-10.42 8.11-15.47 12.37-1.02.86-1.92 2.53-1.92 3.82.12 29.77.38 59.54.61 89.31 0 .35.11.67.26 1.46zm-9.35-152.44c0 .09-.01.18-.01.26-4.36 0-8.72-.06-13.07.02-3.53.06-6.98 3.57-6.94 7.04.06 5.02-.12 10.09.44 15.06.98 8.56 4.04 16.22 12.81 19.57 10.41 3.98 19.61.56 25.73-8.22 4.82-6.92 6.22-16.17 4.63-25.13-.88-4.92-3.9-7.62-8.91-7.92-4.88-.27-9.78-.45-14.68-.68z"/><path d="m257.02 115.65c-.26 10.88-.26 10.87 9.63 13.53 3.56.96 7.08 2.11 10.68 2.87 11.49 2.41 17.47 10.29 20.32 20.87 4.2 15.61 2.71 30.84-4.58 45.32-1.06 2.1-3.17 3.72-4.96 5.38-9.52 8.83-19.93 16.31-32.55 20.06-14.39 4.28-28.55 2.34-42.53-2.13-2.97-.95-5.81-2.36-8.8-3.25-11.65-3.46-18.94-11.8-24.7-21.84-9.23-16.11-10.34-32.62-2.96-49.84 2.72-6.34 6.96-10.53 13.14-12.97 6.85-2.71 13.73-5.37 21.57-5.31.57-4.12 1.12-8.18 1.75-12.77-1.48 0-2.67.02-3.85 0-7.71-.14-15.43-.27-23.14-.47-1.21-.03-2.45-.27-3.62-.61-4.25-1.21-6.07-3.52-5.69-7.07.38-3.53 3.37-6.21 7.25-6.51.33-.03.67-.01 1.01-.01 31.22 0 62.45-.01 93.67.03 1.77 0 3.58.21 5.31.61 3.12.71 4.92 2.88 5.88 5.86.64 2.02.32 3.62-1.95 4.09-6.1 1.24-12.2 2.56-18.35 3.45-4.06.57-8.21.48-12.53.71zm11.01 86.54c4.11-3.52 7.98-7.08 12.12-10.3 2.3-1.78 2.94-3.72 2.11-6.47-1.04-.16-2.14-.27-3.21-.49-14.45-2.99-28.59-12.94-30.91-30.25-.47-3.52-1.48-6.99-2.5-10.4-.27-.91-1.49-2.16-2.32-2.19-5.43-.2-10.87-.1-16.51-.1-.11.67-.35 1.65-.41 2.63-.93 14.3-7.89 24.39-21.09 30.05-5.93 2.54-11.92 4.92-17.9 7.38 2.04 7.58 6.83 14.14 14.71 19.92 3.5-3.34 7.22-6.56 10.54-10.14 3.85-4.14 8.54-6.63 13.7-8.7 10.36-4.17 19.58-3.33 27.62 5 4.58 4.74 9.31 9.33 14.05 14.06zm16.8-31.82c.83-17.6-8.1-29.05-25.39-27.68.68 9.09 3.86 17.06 10.19 23.7.37.39.83.84 1.32.95 4.54 1.04 9.1 2 13.88 3.03zm-49.39 22.47c-6.07 4.46-11.94 8.73-17.74 13.08-.72.54-1.16 1.46-1.74 2.21.92.48 1.8 1.26 2.77 1.41 6.51.95 13.05 1.79 19.58 2.63 5.82.75 11.24-.38 16.61-3.67-6.56-5.28-12.89-10.37-19.48-15.66zm-47.47-25.61c7.65-4.57 14.85-8.83 22.01-13.16 1.89-1.14 3.77-6.4 2.43-8.41-1.04-1.56-3.5-3.14-5.24-3.05-2.72.13-5.44 1.51-8.02 2.67-2.73 1.23-6.24 2.18-7.73 4.38-3.39 5.02-5.12 10.85-3.45 17.57zm39.57-39.47c5.47-.37 10.66-.72 16.35-1.11-.67-3.53-1.14-6.72-1.96-9.81-.21-.8-1.5-1.82-2.34-1.87-3.96-.2-7.94-.09-12.05-.09z"/><path d="m286.86 309.75c-6.26-.46-12.24-.3-17.94-1.47-6.4-1.32-12.73-3.44-18.75-6.03-2.84-1.22-5.31-4.01-7.14-6.65-1.96-2.83-1.1-3.98 2.31-4.7 7.3-1.55 14.17.26 21.02 2.53 3.49 1.16 6.98 2.48 10.57 3.12 4.38.78 6.4-1.54 5.36-5.9-1.25-5.29-3.48-10.04-7.89-13.63-6.68-5.43-13.46-10.79-19.66-16.75-3.62-3.48-6.28-7.98-9.19-12.15-1.34-1.93-.33-3.24 1.76-4 3-1.1 5.86-1.19 8.7.47 5.68 3.33 11.35 6.55 15.89 11.57 7.92 8.76 16.16 17.22 24.42 25.97.48-1.71 1.72-4 1.67-6.27-.19-7.61-1.41-14.77-8.92-19.26-5.75-3.43-11.19-7.4-16.6-11.37-4.29-3.15-7.64-7.08-6.72-12.94.13-.83 1.71-2.19 2.42-2.07 18.42 3.08 33.06 11.93 42.18 28.63 3.56 6.52 3.63 13.78 1.29 20.55-2.83 8.18-6.83 15.96-10.13 23.99-.68 1.64-.81 3.66-.67 5.46 1.29 16.39 2.92 32.75 3.93 49.16.27 4.43-1 9.01-1.97 13.44-.58 2.64-2.54 4.14-5.54 3.61-2.89-.51-4.53-1.56-4.82-5.09-1.58-19.61-3.51-39.2-5.33-58.8-.06-.55-.19-1.09-.25-1.42z"/><path d="m181.45 282c4.96-13.24 15.95-20.46 25.54-28.88 4.01-3.52 8.95-5.44 14.23-6.34 3.84-.65 6.8 2.41 5.6 6.19-.71 2.23-2.03 4.56-3.74 6.12-6.69 6.11-13.78 11.78-20.45 17.91-5.22 4.79-8.14 11.04-10.2 18.78 4.85-.38 9.3-.34 13.59-1.14 6.79-1.28 13.43-3.34 20.22-4.64 4.35-.83 7.71 1.37 8.58 5.08.21.87-.28 2.45-.97 2.92-10.34 6.89-21.74 10.86-34.15 11.77-1.42.11-2.89-.15-4.32-.39-4.2-.72-5.68.31-5.87 4.49-.37 8.27-.67 16.55-.93 24.82-.27 8.61-.41 17.23-.69 25.84-.06 1.77-.3 3.58-.78 5.29-1.35 4.88-4.72 6.35-9.18 3.89-.96-.53-1.66-1.98-1.97-3.14-2.64-9.96-2.84-20.16-2.33-30.33.51-10.05 1.38-20.09 2.51-30.09.49-4.35-.31-7.84-2.65-11.6-6.16-9.9-9.54-20.7-7.85-32.54.96-6.78 3.4-12.71 9.09-17.28 8.84-7.12 17.79-13.99 28.57-17.85 2.18-.78 5.13-.56 7.36.22 3.78 1.33 4.16 5.78.92 8.13-7.52 5.44-15.1 10.8-22.67 16.17-9.19 6.5-11.88 15.4-7.46 26.6z"/><path d="m315.09 100.79c-6.35 3.57-12.83 3.77-19.15 1.88-16.89-5.05-32.08-13.13-43.64-26.82-1.84-2.18-2.62-5.38-3.5-8.23-2.72-8.78-5.37-17.69-4.44-26.96.45-4.53 2.52-8.91 4.04-13.3.73-2.1 2.61-2.38 3.95-.86 2.02 2.28 4.33 4.72 5.19 7.51 1.31 4.21 1.5 8.77 2.15 13.19.55 3.76 1.11 7.52 1.61 11.29 1.42 10.7 8.52 16.61 17.69 20.46 5.54 2.33 11.36 4 17.09 5.87 8.38 2.72 15.51 6.88 19.01 15.97z"/><path d="m212.85 27.12c5.02 1.08 8.13 4.24 8.46 8.68.51 6.95-.04 13.98-.2 20.98-.03 1.33-.43 2.65-.53 3.98-.67 9.68-5.16 16.81-13.28 22.27-10.62 7.14-21.22 14.23-34 16.69-4.74.91-9.73.54-14.61.67-2.45.07-4.35-1.17-4.38-3.61-.04-2.65-.3-5.78 3.1-7.05 6.89-2.58 13.8-5.09 20.68-7.7 6.03-2.29 12.24-4.25 18-7.12 9.95-4.96 13.05-13.86 12.22-24.36-.48-6.07-.92-12.06 1.68-17.79.85-1.91 1.89-3.74 2.86-5.64z"/></g></svg>