<svg enable-background="new 0 0 400 400" viewBox="0 0 400 400" xmlns="http://www.w3.org/2000/svg"><path d="m152.17 253.46c-3.91 2.62-7.19 4.69-10.33 6.95-16.3 11.75-20.83 29.07-22.48 47.73-1.61 18.27-3.11 36.55-4.82 54.81-.68 7.22-4.15 9.09-11.96 6.1.65-12.41 1.05-25.13 2.07-37.8.97-12.03 2.42-24.04 3.98-36.01 1.42-10.94 5.09-21.27 9.67-31.27.4-.87 1.21-1.59 1.95-2.25 6.55-5.77 13.02-11.64 19.76-17.18 2.91-2.39 6.34-4.18 9.65-6.02 2.22-1.23 3.41-2.62 3.5-5.39.21-6.03.9-12.04 1.47-18.89-5.04-.63-9.95-1.28-14.87-1.85-6.08-.7-12.2-1.11-18.25-2.04-6.22-.95-10.23-5.03-12.27-10.7-1.61-4.48-2.92-9.19-3.47-13.9-1.3-11.16-.61-22.29.92-33.44 1.12-8.18 6.38-12.11 13-15.12 8.15-3.7 16.92-3.94 25.64-4.15 7.61-.19 15.22-.1 22.83 0 1.89.03 2.77-.57 3.31-2.39 2.64-8.89 5.45-17.73 8.12-26.61.98-3.24-2.04-11.93-4.76-13.92-3.88-2.84-7.88-5.53-11.69-8.46-6.61-5.07-13.78-4.49-19.97 1.12-15 13.58-29.36 27.87-43.88 41.98-2.88 2.8-5.23 6.12-8 9.04-2.7 2.84-5.79 3.57-8.45 1.94-2.79-1.7-3.01-4.7-2.42-7.45.96-4.45 2.31-8.64 5.88-12.09 16.81-16.27 33.45-32.71 53.49-47.7-1.09-.56-2.49-.85-3.22-1.71-6.09-7.13-12.3-14.17-17.97-21.62-3.3-4.34-4.42-9.73-4.31-15.25.08-3.79 2.97-5.89 6.24-4.13 2.79 1.5 5.23 3.7 7.67 5.79 1.07.92 1.99 2.2 2.57 3.5 7.97 17.81 23.21 27.43 39.71 35.83 5.63 2.86 11.54 5.85 16.01 10.15 7.77 7.45 9.8 17.09 6.28 27.45-3.96 11.63-8.6 23.05-12.16 34.8-2.22 7.33-3.09 15.08-4.42 22.66-2.07 11.9-4.36 23.77-5.9 35.74-1.19 9.3-1.38 18.72-2.08 29.02 5.91-3.73 11.19-7.11 16.52-10.42 7.06-4.39 9.73-11.11 9.89-19 .23-11.85.13-23.71.41-35.56.09-3.86.7-7.76 1.56-11.54.35-1.54 1.7-3.37 3.1-4.05 3.31-1.62 5.1-1.78 6.21 2.04 1.39 4.8 3 9.71 3.27 14.64.95 17.18-.68 34.2-4.66 50.95-.47 1.98-1.88 4.05-3.44 5.39-9.57 8.24-19.07 16.61-30.79 21.87-1.05.47-2.09 2.08-2.24 3.28-.7 5.54-1.42 11.1-1.5 16.67-.21 13.76-.53 27.55.07 41.3.55 12.49 2.19 24.93 3.47 37.38.79 7.68 1.85 15.32 2.68 23 .56 5.15-2.41 8.48-7.09 8.46-1.99-.01-2.95-.88-3.8-2.56-5.63-11.19-8.55-23.18-8.85-35.54-.63-26.17-.58-52.36-.81-78.54-.05-1.38-.04-2.71-.04-5.04zm11.8-106.51c-14.48-1.59-28.23.05-41.66 4.46-.78.26-1.87 1.2-1.89 1.85-.16 4.86-.09 9.72-.09 14.12 13.15 0 25.76.03 38.38-.08.73-.01 1.97-1.05 2.1-1.78 1.17-6.14 2.13-12.32 3.16-18.57zm-43.52 37.11c.48 3.56.93 7.39 1.58 11.19.11.67.98 1.45 1.68 1.73 9.86 3.98 20 5.21 30.43 2.64.96-.24 2.25-1.28 2.44-2.15.89-4.22 1.46-8.52 2.25-13.42-12.92.01-25.46.01-38.38.01z" fill="#010101"/><path d="m273.86 186.87c6.78 1.39 13.31 2.97 19.92 4.02 9.75 1.55 15.39 7.65 18.71 16.29 2.37 6.19 2.44 12.65 1.33 19.18-2.15 12.66-11.27 18.36-22.14 22.28-10.31 3.72-20.99 3.43-31.52 1.78-8.45-1.33-16.73-3.82-25.02-6.05-1.5-.41-2.96-1.87-3.92-3.21-1.67-2.36-2.95-5-4.36-7.54-5.91-10.65-5.68-21.36-.2-32.07.59-1.14 1.48-2.23 2.47-3.05 5.91-4.92 12.56-7.86 20.38-8.45 8.66-.65 8.63-.9 8.95-9.43.18-4.92.35-9.84.65-14.76.12-2-.27-3.06-2.56-3.31-2.99-.32-5.93-1.11-8.89-1.7-12.77-2.52-21.32-11.64-22.8-24.56-.91-7.9.16-15.57 2.78-23.11 1.77-5.1 5.15-8.16 9.74-10.79 13.31-7.64 27.32-7.33 41.66-4.59 4.06.78 8.08 1.78 12.06 2.86 11.45 3.11 16.91 9.87 18.14 21.69 1.03 9.85-2.94 18.65-5.44 27.76-.2.71-1.17 1.3-1.89 1.77-2.16 1.4-4.48 2.57-6.54 4.09-5.64 4.15-11.84 6.61-18.9 6.76-1.62.03-2.69.46-2.66 2.52.12 7.04.05 14.09.05 21.62zm-6.69 50.32c.02-.17.04-.34.06-.51 1.79 0 3.58.05 5.37-.01 7.64-.25 15.19-1.07 22.03-4.82 1.35-.74 2.97-2.04 3.29-3.37.94-3.87 1.73-7.88 1.78-11.85.1-7-3.55-11.59-10.36-12.82-15.92-2.87-31.88-4.66-47.34 2.32-1.21.54-2.59 1.45-3.14 2.56-2.84 5.76-3.39 11.71-.75 17.77 2.03 4.67 5 8.12 10.45 8.68 6.21.66 12.41 1.37 18.61 2.05zm-3.67-128.19c-.02.29-.05.59-.07.88-8.03-1.41-14.47 3.1-21.41 5.69-.74.28-1.52 1.45-1.6 2.28-.57 5.74-1.67 11.55-1.22 17.24.49 6.14 3.76 10.89 10.81 11.61 7.65.78 15.28 2.06 22.95 2.43 6.52.31 12.55-1.97 17.75-6.02 1-.78 2.19-1.94 2.35-3.05.72-5.18 1.55-10.41 1.51-15.61-.05-6.6-3.16-10.53-9.63-11.98-7.06-1.58-14.29-2.35-21.44-3.47z" fill="#010101"/><g fill="#fbfafa"><path d="m6.4 11.7c-1-.8-1.9-1.6-2.9-2.3l.6-.7c.9.7 1.9 1.4 2.9 2.2zm-2.1 8.3c.7-2.1 1.4-4.2 2-6.4.2.1.6.3 1 .4-.7 2.3-1.3 4.4-1.9 6.4zm3-12.8c-1.1-.9-2.1-1.7-2.9-2.4l.6-.7c1 .8 2 1.5 3 2.4zm1.4-1.3v-.9h10.2v.9c-.9 4.2-2.3 7.3-4.1 9.4 1.3 1.4 3.2 2.7 5.7 4-.2.2-.4.5-.7.9-2.5-1.4-4.4-2.7-5.7-4.2-1.4 1.5-3.5 3-6.1 4.4 0 0 0 0-.1-.1-.3-.4-.5-.7-.7-.8 2.7-1.3 4.7-2.8 6.2-4.2-1.8-2.2-3-5.3-3.7-9.4zm9.2 0h-7.1c.6 3.8 1.7 6.7 3.4 8.7 1.7-2 2.9-4.8 3.7-8.7z"/><path d="m31.6 3.6h.9v2.3h4.1v9.1h1.7v.9h-16.6v-.9h1.7v-9.1h4.1v-2.3h.9v2.3h3.1v-2.3zm-4 13.3.6.8c-1.9.9-3.8 1.9-5.8 2.8-.2-.3-.3-.6-.5-.9 2-.9 3.9-1.8 5.7-2.7zm-3.2-10.1v3.7h3.1v-3.7zm0 4.5v3.7h3.1v-3.7zm4.1-4.5v3.7h3.1v-3.7zm0 4.5v3.7h3.1v-3.7zm9.1 9.1c-2.1-1.1-4.1-2-5.8-2.7l.5-.8c2.2.9 4.1 1.8 5.8 2.6zm-1.9-13.6h-3.1v3.7h3.1zm-3.2 4.5v3.7h3.1v-3.7z"/></g></svg>