<svg enable-background="new 0 0 400 400" viewBox="0 0 400 400" xmlns="http://www.w3.org/2000/svg"><path d="m361.2 9.6.8-1c.9.7 1.9 1.4 2.9 2.3l-.9 1.1c-1-1-2-1.8-2.8-2.4zm.5 10.6c.9-2.1 1.6-4.3 2.3-6.7.4.2.8.4 1.3.6-.7 2.1-1.5 4.3-2.2 6.6zm.4-15.2.9-.9c1 .8 2 1.6 2.8 2.4l-1 1c-.9-.9-1.8-1.7-2.7-2.5zm12.5-1.2h1.2v1.4h2.7v1.1h-2.7v2.7h-1.2v-.6h-1.8v1.3h4.9v3.8h-1.2v-.5h-3.7c0 .4-.1.9-.1 1.2h5.1v1h-5.2c0 .5-.1.9-.2 1.2h6v1h-5.2c1.1 1.3 2.9 2 5.5 2.2-.4.4-.7.8-.9 1.3-2.9-.5-4.8-1.6-5.7-3.5h-.1c-.8 1.7-2.7 2.9-5.9 3.6-.2-.4-.6-.8-.9-1.1 2.8-.6 4.6-1.4 5.4-2.5h-4.8v-1h5.3c.1-.3.2-.7.2-1.2h-4.9v-1h5c0-.4 0-.8.1-1.2h-3.5v.5h-1.2v-3.8h4.9v-1.3h-1.8v.5h-1.2v-2.7h-2.7v-1h2.6v-1.4h1.2v1.4h4.7v-1.4zm-6.6 8.3h3.6c0-.4 0-.9 0-1.4h-3.6zm1.9-4.6h4.7v-1.3h-4.7zm6.6 3.2h-3.7v1.4h3.7z" fill="#fbfcfa"/><path d="m385.3 3.8h1.3v2.2h2.8v-2.2h1.3v2.2h4.1v9.1h1.7v1.3h-16.9v-1.3h1.7v-9.1h4.1v-2.2zm.4 13.1.7 1.2c-1.8.9-3.8 1.9-6 2.9-.2-.4-.5-.8-.8-1.3 2.3-1 4.3-1.9 6.1-2.8zm-3.1-6.4h2.8v-3.2h-2.8zm0 4.6h2.8v-3.3h-2.8zm4-4.6h2.8v-3.2h-2.8zm0 4.6h2.8v-3.3h-2.8zm3.7 1.9c2.1.9 4.1 1.8 6.1 2.7l-.7 1.3c-2.2-1.1-4.2-2-6.1-2.9zm3.2-9.7h-2.8v3.2h2.8zm-2.8 7.8h2.8v-3.3h-2.8z" fill="#fbfcfa"/><g fill="#010102"><path d="m300.61 262.12c-4.77.6-9.2 1.15-14 1.75.26 3.89.48 7.64.77 11.38 1.75 22.31 3.61 44.61 5.23 66.94.36 4.95.34 10.01-.32 14.91-.53 3.93-3.05 5.41-6.56 5.43-2.74.01-4.77-.76-5.28-3.85-1.74-10.46-4.02-20.86-5.2-31.38-2.12-18.89-3.59-37.86-5.33-56.8-.05-.54-.17-1.07-.31-1.99-3.65.6-7.17 1.05-10.59 1.88-.63.15-1.22 1.9-1.23 2.92-.16 13.66-.2 27.31-.31 40.97-.14 17.23-.25 34.46-.51 51.68-.09 5.94-2.97 8.79-8.18 9.02-2.14.1-3.51-.62-3.89-2.71-1.35-7.45-3.51-14.89-3.74-22.38-.39-12.62.44-25.28.81-37.92.32-11.18.79-22.37 1.02-33.55.13-6.01-4.97-10.47-11.01-9.74-.67.08-1.61 1.38-1.71 2.19-1.68 14.11-3.25 28.23-4.82 42.35-1.32 11.89-2.55 23.8-3.95 35.68-.28 2.42-.97 4.83-1.74 7.15-1.25 3.8-3.42 5.3-6.91 5.1-3.9-.22-5.95-1.6-6.15-6-.25-5.53.47-11.11.94-16.66 2.07-24.08 4.2-48.15 6.29-72.23.07-.76.01-1.52.01-2.45-4.82-1.48-9.49-2.92-14.5-4.47-1.41 8.2-2.83 16.19-4.17 24.2-2.52 15.11-4.91 30.24-7.57 45.33-.55 3.14-1.74 6.26-3.17 9.12-.76 1.52-2.51 2.89-4.13 3.58-3.43 1.45-5.21.54-6.5-2.94-2.67-7.16-1.53-14.41.02-21.52 4.56-21 8.77-42.07 10.21-63.54 1.13-16.85 1.67-33.75 2.26-50.64.65-18.71-.82-37.32-2.66-55.94-.6-6.03 1.26-12.33 2.23-18.48.13-.81 1.51-1.73 2.49-2.04 1.57-.5 3.28-.53 5.16-.79 4.04 7.2 5.71 14.96 6.18 23.06.44 7.47.87 14.95 1.32 22.42.17 2.8 1.33 3.99 4.48 3.68 9.74-.96 8.73 1.76 10.63-9.48 1.45-8.54-.47-16.91-1.73-25.32-.62-4.15-.81-8.47-.46-12.65.46-5.53 3.55-9.52 9.05-11.73 5 6.19 6.77 13.49 6.87 21.19.1 7.26-.57 14.54-.52 21.8.06 8.85.23 8.85 8.88 10.51.86.17 1.75.19 3.07.32.34-21.04.68-41.88 1.04-63.67-7.08 0-13.74.02-20.41-.01-2.34-.01-4.71.05-7.02-.22-4.52-.53-6.96-3.34-7.13-7.87-.22-5.91 2.6-8.78 8.93-8.8 14.89-.05 29.78-.14 44.67.04 6.24.07 12.49.57 18.68 1.33 1.88.23 4.01 1.66 5.24 3.19 3.18 3.96 2.33 7.51-2.46 8.98-4.52 1.39-9.34 2.29-14.06 2.46-11.81.43-11.81.21-11.81 11.97v47.69 4.04c4.51.59 8.88 1.17 13.79 1.82.33-3.47.84-6.64.89-9.82.13-8.28-.16-16.57.15-24.84.15-4.08.91-8.23 2.04-12.16 1.16-4.05 4.04-6.87 8.62-7.96 3.63 6.07 5.6 12.67 5.41 19.68-.33 12.51-1.1 25.01-1.71 38.07 4.11 1.08 8.79 2.32 14.32 3.78.74-7.72 1.46-15 2.12-22.29.48-5.23.55-10.52 1.42-15.68.8-4.81 3.43-8.66 8.15-10.79 2.24-1.01 3.52-.89 4.53 1.76 3.15 8.32 3.24 16.89 2.28 25.5-1.28 11.56-3.49 23.04-4.21 34.62-.97 15.61-1.84 31.34-1.06 46.93.92 18.29 3.13 36.56 5.79 54.69 1.83 12.46 5.68 24.61 8 37.02 1.16 6.2.9 12.66 1.27 19 .14 2.3-.85 3.27-3.24 3.65-6.29 1.02-6.34 1.2-9.15-4.48-5.13-10.35-7.58-21.46-9.05-32.82-2.14-16.52-4.18-33.06-6.28-49.58-.09-.78-.3-1.52-.52-2.59zm-42.71-76.91v70.53c3.09-.98 5.9-2.04 8.79-2.74 2.33-.57 3.16-1.63 3.1-4.13-.3-11.73-.42-23.47-.52-35.2-.07-8.82-.01-17.63-.01-26.69-3.98-.63-7.55-1.18-11.36-1.77zm-15.55 69.51c0-1.4-.01-2.6 0-3.8.18-18.01.37-36.02.55-54.04.02-2.01.1-4.04-.08-6.04-.31-3.33-2.93-5.61-6.06-5.51-4.03.13-5.47 1.47-5.52 5.58-.24 19.14-.34 38.27-.68 57.41-.06 3.43.42 5.49 4.45 5.41 2.3-.05 4.62.6 7.34.99zm43.14-5.57c4.85-1.51 9.3-2.83 13.68-4.34.51-.18.9-1.44.91-2.21.05-15.66.06-31.32-.01-46.98 0-.82-.58-2.16-1.17-2.36-3.97-1.28-8.03-2.31-12.35-3.5-.36 19.91-.7 39.33-1.06 59.39zm-71.1-1.82c.16-.48.34-.79.36-1.1.77-15.31 1.58-30.63 2.23-45.94.1-2.3-.25-4.73-.95-6.92-1.06-3.31-2.53-3.81-5.81-2.67-1.69.59-3.35 1.31-5.08 1.72-2.34.57-3.12 1.8-3.07 4.26.17 8.28.06 16.57.06 24.85v23.02c4.1.94 8.01 1.82 12.26 2.78z"/><path d="m113.32 107.96c.57-7.21 1.14-14.32 1.73-21.82-4.61-.21-9.05-.49-13.49-.58-4.7-.1-9.43.3-14.09-.13-3.24-.3-6.74-1.03-9.5-2.65-4.78-2.81-4.14-8.53.85-10.76 6.01-2.69 12.19-1.84 18.48-1.17 4.27.46 8.66.04 12.97-.25 3.16-.21 4.91-2.4 4.95-5.37.09-6.35.08-12.72-.36-19.04-.57-8.08 1.64-16.61 6.09-21.08 7.14 4.7 8.14 11.75 7.45 19.44-.52 5.78-1.78 11.61-1.45 17.34.49 8.65.7 8.44 8.81 8.65 6.57.17 13.16-.64 19.75-.9 2.21-.09 4.49-.08 6.65.32 5.17.96 7.91 5.77 6.12 10.64-.29.78-1.27 1.47-2.09 1.87-6.63 3.29-13.62 2.67-20.69 2.08-4.41-.37-8.9.01-13.34.37-.93.07-2.41 1.44-2.51 2.34-.69 6.22-1.08 12.46-1.6 19.1 5.72 1.5 11.4 2.99 17.09 4.46 3.68.95 7.32 2.17 11.06 2.71 4.1.59 6.48 3.05 8.62 6.18 4.98 7.32 7.6 15.5 8.07 24.21.99 18.31-1.45 36.17-8.5 53.21-4.52 10.93-13.71 16.61-24.23 20.51-3.23 1.2-6.72 1.68-10.01 2.74-.86.28-2.01 1.45-2.04 2.25-.18 5.12-.09 10.26-.09 16.19 7.89.17 15.55.31 23.22.5 6.58.16 13.18.07 19.72.71 3.97.38 7.02 2.83 7.96 7.1.43 1.93.07 3.25-2.03 4.24-6.83 3.21-14.02 3.44-21.34 3.11-6.7-.3-13.4-.67-20.11-.75-6.32-.07-7.42 1.15-7.41 7.29.01 27.42.06 54.85.01 82.27-.01 4.36-.35 8.72-.76 13.06-.15 1.62-.49 3.65-1.54 4.67-1.47 1.42-3.63 2.64-5.59 2.82-1.09.1-3.04-1.89-3.46-3.29-.93-3.04-1.54-6.3-1.56-9.48-.13-19.48.05-38.95-.11-58.43-.1-12.08-.69-24.16-.92-36.24-.04-2.31-.82-3.29-3.08-3.18-8.13.39-16.26.86-24.39 1.1-4.21.12-8.52.31-12.63-.41-4.58-.8-7.06-4.22-7.27-8.84-.04-.95.95-2.69 1.69-2.82 6.11-1.08 12.25-2.36 18.43-2.6 6.67-.25 13.38.83 20.08.83 6.2 0 6.52-.61 6.97-6.61.27-3.57.45-7.16.96-10.69.28-1.95-.36-2.92-2.05-3.56-3.03-1.14-5.94-2.72-9.06-3.44-16.32-3.75-24.91-14.69-28.77-30.23-3.14-12.65-2.12-25.38-.34-38.02 1.15-8.16 3.23-16.2 5.12-24.24.38-1.6 1.49-3.26 2.73-4.39 7.88-7.18 16.99-11.45 27.9-11.18.86.05 1.73-.08 2.93-.16zm15.57 96.21c18.75-1.94 25.88-14.97 28.63-32.12.15-.92-.12-2.07-.59-2.89-.42-.72-1.39-1.58-2.13-1.59-8.58-.11-17.16-.07-25.91-.07zm-14.9-36.45c-8.38 0-16.25 0-24.3 0-.7 8.4.91 16.01 4.26 23.58 4.17 9.42 12.39 10.33 21.1 11.68-.36-11.85-.71-23.43-1.06-35.26zm43.47-16.07c-.53-5.56-.69-10.36-1.53-15.03-.84-4.68-3.23-8.61-7.87-10.61-6.07-2.61-12.45-3.2-19.16-2.99v28.63zm-42.41-.44c0-8.81.05-17.26-.1-25.72-.01-.61-1.29-1.46-2.13-1.76-5.36-1.9-9.87.95-14.71 2.53-4.11 1.34-6.1 3.81-7.04 7.83-1.21 5.2-3.35 10.27-1.99 15.73.23.92 1.57 2.24 2.38 2.23 7.69-.14 15.38-.51 23.59-.84z"/><path d="m324.56 110.94c-3.36 0-6.6.19-9.79-.1-1.12-.1-2.27-1.25-3.16-2.16-17.24-17.57-34.43-35.19-51.68-52.76-2.58-2.63-5.14-5.41-8.18-7.42-2.3-1.52-5.3-2.07-8.06-2.74-1.98-.48-3.45.53-4.82 2.18-15.58 18.76-31.18 37.51-46.98 56.09-2.38 2.79-5.56 5.22-8.86 6.83-4.79 2.34-8.8-1.13-7.42-6.37.92-3.49 2.37-7.1 4.52-9.95 10.03-13.3 20.41-26.34 30.62-39.5 7.89-10.16 16.68-19.32 28.27-25.3 1.42-.73 3.44-.98 5-.64 7.61 1.63 14.31 5.38 19.99 10.48 7.48 6.72 14.58 13.87 21.56 21.11 11.34 11.75 22.47 23.72 33.67 35.61 3.74 3.94 6.59 8.26 5.32 14.64z"/></g></svg>