<svg enable-background="new 0 0 400 400" viewBox="0 0 400 400" xmlns="http://www.w3.org/2000/svg"><path d="m361.2 9.6.8-1c.9.7 1.9 1.4 2.9 2.3l-.9 1.1c-1-1-2-1.8-2.8-2.4zm.5 10.6c.9-2.1 1.6-4.3 2.3-6.7.4.2.8.4 1.3.6-.7 2.1-1.5 4.3-2.2 6.6zm.4-15.2.9-.9c1 .8 2 1.6 2.8 2.4l-1 1c-.9-.9-1.8-1.7-2.7-2.5zm12.5-1.2h1.2v1.4h2.7v1.1h-2.7v2.7h-1.2v-.6h-1.8v1.3h4.9v3.8h-1.2v-.5h-3.7c0 .4-.1.9-.1 1.2h5.1v1h-5.2c0 .5-.1.9-.2 1.2h6v1h-5.2c1.1 1.3 2.9 2 5.5 2.2-.4.4-.7.8-.9 1.3-2.9-.5-4.8-1.6-5.7-3.5h-.1c-.8 1.7-2.7 2.9-5.9 3.6-.2-.4-.6-.8-.9-1.1 2.8-.6 4.6-1.4 5.4-2.5h-4.8v-1h5.3c.1-.3.2-.7.2-1.2h-4.9v-1h5c0-.4 0-.8.1-1.2h-3.5v.5h-1.2v-3.8h4.9v-1.3h-1.8v.5h-1.2v-2.7h-2.7v-1h2.6v-1.4h1.2v1.4h4.7v-1.4zm-6.6 8.3h3.6c0-.4 0-.9 0-1.4h-3.6zm1.9-4.6h4.7v-1.3h-4.7zm6.6 3.2h-3.7v1.4h3.7z" fill="#fbfcfa"/><path d="m385.3 3.8h1.3v2.2h2.8v-2.2h1.3v2.2h4.1v9.1h1.7v1.3h-16.9v-1.3h1.7v-9.1h4.1v-2.2zm.4 13.1.7 1.2c-1.8.9-3.8 1.9-6 2.9-.2-.4-.5-.8-.8-1.3 2.3-1 4.3-1.9 6.1-2.8zm-3.1-6.4h2.8v-3.2h-2.8zm0 4.6h2.8v-3.3h-2.8zm4-4.6h2.8v-3.2h-2.8zm0 4.6h2.8v-3.3h-2.8zm3.7 1.9c2.1.9 4.1 1.8 6.1 2.7l-.7 1.3c-2.2-1.1-4.2-2-6.1-2.9zm3.2-9.7h-2.8v3.2h2.8zm-2.8 7.8h2.8v-3.3h-2.8z" fill="#fbfcfa"/><g fill="#010102"><path d="m208.34 263.77c-6.92 4.68-14.41 5.95-22.27 5.69-4.58-.15-9.16-.56-13.74-.62-6.7-.09-13.41.16-20.11.02-2.78-.06-3.63.8-3.61 3.61.12 16.57.03 33.13.07 49.7.02 11.53.26 23.06.12 34.58-.05 4.56-.69 9.13-1.34 13.66-.39 2.73-1.92 4.84-5.03 4.96-3.34.12-5.23-1.47-6.1-4.8-3.31-12.69-3.7-25.59-3.37-38.62.5-19.9.55-39.82.76-59.73.01-1.21-.18-2.42-.35-4.46-5.76 0-11.42-.22-17.06.05-7.59.36-15.16 1.3-22.75 1.56-2.68.09-5.56-.69-8.07-1.73-3.78-1.56-5.64-6-4.35-9.83.27-.79 1.76-1.63 2.72-1.66 9.93-.37 19.87-.56 29.81-.84 5.25-.15 10.5-.39 15.75-.55 2.25-.07 3.31-.86 3.43-3.39.31-6.8.95-13.59 1.47-20.63-6.49-1.86-12.77-3.74-19.1-5.45-8.4-2.27-15.35-6.73-20.57-13.65-4.4-5.84-6.38-12.77-7.78-19.81-3.3-16.52-3.21-33.02-.53-49.69 3.06-19 18.11-26.71 32.46-28.78 4.41-.64 8.91-.65 13.76-.98.59-7.76 1.16-15.39 1.8-23.76-8.27 0-16.17.13-24.06-.05-5-.11-10.01-.58-14.99-1.1-1.38-.14-2.77-.9-3.99-1.65-2.71-1.65-4.43-4.37-3.67-7.3.41-1.59 2.91-3.07 4.77-3.77 7.57-2.85 15.39-1.88 23.22-1.17 4.87.44 9.81.2 14.72.16 2.42-.02 3.48-1.3 3.49-3.83.01-8.05.35-16.11.26-24.16-.08-6.75.84-13.12 4.59-18.92.97-1.5 1.8-1.87 3.5-1.24 4.32 1.63 6.89 4.8 7.28 9.2.36 3.95-.13 7.99-.31 11.99-.33 7.34-.71 14.69-1.07 22.03-.13 2.64 1.49 3.74 3.74 4.36 6.56 1.79 13.08.84 19.64-.05 2.97-.4 6.03-.78 8.99-.51 6.41.59 9.84 4.34 10.6 11.04-7.64 4.33-15.91 4.25-24.37 3.61-4.53-.34-9.13-.07-13.68.24-.86.06-2.22 1.51-2.34 2.44-.76 6.22-1.33 12.46-1.72 18.71-.06.93 1.05 2.62 1.87 2.79 6.08 1.32 12.23 2.38 18.36 3.45 3.19.55 6.42.84 9.6 1.44 14.03 2.66 20.05 12.87 23.01 25.38 2.99 12.66.79 25.39-.87 38.03-.51 3.87-1.4 7.7-2.21 11.52-4.11 19.48-17.41 29.77-35.43 35.24-3.42 1.04-6.96 1.64-10.39 2.64-.86.25-2.06 1.19-2.14 1.92-.8 7.2-1.4 14.43-2.14 22.55 8.74.22 17.08.46 25.41.64 7.7.17 15.43-.11 23.08.58 5.15.46 9.61 2.99 11.23 8.94zm-58.44-136.96v37.01c12.6-.36 24.95-.72 37.49-1.07.24-7.79.06-15.12-2.42-22.2-1.67-4.76-4.74-8.24-9.51-10.21-8.15-3.4-16.69-3.58-25.56-3.53zm-16.24 35.96c0-12.26 0-24.03 0-36.27-4.6.3-8.71.05-12.54.96-4.63 1.1-9.05 3.14-13.51 4.89-.94.37-2.03 1.09-2.46 1.95-4.73 9.24-4.9 19.25-5.02 29.51 11.46-.36 22.58-.7 33.53-1.04zm16.3 15.35v35.99c22.07-.77 32.64-11.81 37.04-34.92-12.3-.35-24.54-.71-37.04-1.07zm-15.7.23c-11.62 0-22.28 0-33.75 0 1.39 6.45 2.23 12.68 4.13 18.57 1.97 6.09 5.92 11.01 12.09 13.63 4.92 2.09 9.76 4.73 15.4 3.33.82-.2 2.03-1.24 2.04-1.9.12-11.16.09-22.32.09-33.63z"/><path d="m293.28 227.76c-3.17-5.06-3.34-10.48-2.35-15.95 2.36-13.09 5.2-26.09 7.3-39.22 1.83-11.47 3.75-23 2.47-34.71-.34-3.1-.9-6.19-1.58-9.24-.9-4.06-2.94-7.21-6.7-9.51-5.49-3.37-10.65-7.29-16.36-11.26-1.67 9.47-3.56 18.41-4.77 27.43-2.98 22.22-11.9 42.01-24.12 60.5-4.81 7.27-9.58 14.58-14.51 21.77-3.27 4.76-7.62 7.74-13.74 7.64-2.09-.03-3.04-.9-3.61-2.7-1.87-5.99.6-10.86 4.42-15.01 10.16-11.06 19.13-23.03 24.13-37.2 4.89-13.87 8.58-28.19 12.37-42.42 2.12-7.98 3.43-16.18 4.93-24.31.18-.96-.5-2.56-1.31-3.13-4.1-2.92-8.22-5.86-12.61-8.28-5.59-3.09-8.87-7.85-10.6-13.67-4.83-16.18-4.44-32.01 4.2-47 2.65-4.6 7.04-4.55 9.42.34 1.18 2.43 1.41 5.61 1.21 8.39-.47 6.57-1.53 13.1-2.21 19.66-.71 6.76.24 13.22 4.5 18.76 1.18 1.53 2.81 2.89 4.5 3.83 13.95 7.81 27.91 15.59 41.98 23.18 3.31 1.79 5.61 4.29 7.57 7.34 7.64 11.93 9.35 25.15 7.32 38.73-3.59 24.09-7.79 48.1-11.84 72.12-.16.95-1.19 2.23-2.06 2.48-2.57.71-5.25.98-7.95 1.44z"/><path d="m295 264.74c0-6.72-.02-13.26.01-19.81.01-2.33-.22-4.76.36-6.96.49-1.82 1.71-3.7 3.14-4.95 3.81-3.33 6.69-2.73 8.64 1.82 1.17 2.72 2.2 5.7 2.39 8.62.95 14.49 1.99 28.99 2.22 43.5.2 12.74-.83 25.43-4.92 37.73-2.04 6.15-5.55 10.28-11.59 12.8-18.67 7.79-37.27 8.03-56.07.56-4.28-1.7-6.76-4.57-8.47-8.72-5.47-13.23-7.49-27.09-7.9-41.25-.51-17.81.01-35.56 4.55-52.95.17-.65.28-1.32.55-1.93 1.44-3.24 4.16-3.91 6.86-1.76 5.51 4.39 6.09 10.24 5.22 16.69-.58 4.3-.86 8.66-1.04 13-.11 2.57 1 3.86 4.05 3.83 16.22-.16 32.44-.07 48.66-.08.99 0 1.97-.08 3.34-.14zm-55.04 15.15c-.21 4.01-.52 7.57-.56 11.13-.1 9.15-.6 18.33 2.72 27.17 1.29 3.44 3 6.1 6.83 6.96 3.37.75 6.66 1.95 10.07 2.44 10.45 1.52 20.75 1.28 30.3-3.97 1.17-.65 2.32-2.15 2.6-3.45 1.27-5.89 2.6-11.81 3.19-17.79.6-6.07.53-12.22.43-18.32-.05-2.95-1.77-4.3-5.09-4.24-11.96.21-23.92.08-35.89.08-4.67-.01-9.35-.01-14.6-.01z"/></g></svg>