<svg enable-background="new 0 0 400 400" viewBox="0 0 400 400" xmlns="http://www.w3.org/2000/svg"><path d="m361.2 9.6.8-1c.9.7 1.9 1.4 2.9 2.3l-.9 1.1c-1-1-2-1.8-2.8-2.4zm.5 10.6c.9-2.1 1.6-4.3 2.3-6.7.4.2.8.4 1.3.6-.7 2.1-1.5 4.3-2.2 6.6zm.4-15.2.9-.9c1 .8 2 1.6 2.8 2.4l-1 1c-.9-.9-1.8-1.7-2.7-2.5zm12.5-1.2h1.2v1.4h2.7v1.1h-2.7v2.7h-1.2v-.6h-1.8v1.3h4.9v3.8h-1.2v-.5h-3.7c0 .4-.1.9-.1 1.2h5.1v1h-5.2c0 .5-.1.9-.2 1.2h6v1h-5.2c1.1 1.3 2.9 2 5.5 2.2-.4.4-.7.8-.9 1.3-2.9-.5-4.8-1.6-5.7-3.5h-.1c-.8 1.7-2.7 2.9-5.9 3.6-.2-.4-.6-.8-.9-1.1 2.8-.6 4.6-1.4 5.4-2.5h-4.8v-1h5.3c.1-.3.2-.7.2-1.2h-4.9v-1h5c0-.4 0-.8.1-1.2h-3.5v.5h-1.2v-3.8h4.9v-1.3h-1.8v.5h-1.2v-2.7h-2.7v-1h2.6v-1.4h1.2v1.4h4.7v-1.4zm-6.6 8.3h3.6c0-.4 0-.9 0-1.4h-3.6zm1.9-4.6h4.7v-1.3h-4.7zm6.6 3.2h-3.7v1.4h3.7z" fill="#fbfcfa"/><path d="m385.3 3.8h1.3v2.2h2.8v-2.2h1.3v2.2h4.1v9.1h1.7v1.3h-16.9v-1.3h1.7v-9.1h4.1v-2.2zm.4 13.1.7 1.2c-1.8.9-3.8 1.9-6 2.9-.2-.4-.5-.8-.8-1.3 2.3-1 4.3-1.9 6.1-2.8zm-3.1-6.4h2.8v-3.2h-2.8zm0 4.6h2.8v-3.3h-2.8zm4-4.6h2.8v-3.2h-2.8zm0 4.6h2.8v-3.3h-2.8zm3.7 1.9c2.1.9 4.1 1.8 6.1 2.7l-.7 1.3c-2.2-1.1-4.2-2-6.1-2.9zm3.2-9.7h-2.8v3.2h2.8zm-2.8 7.8h2.8v-3.3h-2.8z" fill="#fbfcfa"/><g fill="#010102"><path d="m230.84 254.79c0 9.39-.1 18.43.03 27.46.14 10.29.62 20.58.66 30.88.01 3.05-.69 6.19-1.58 9.13-.72 2.38-2.7 3.67-5.42 3.66-3.12-.01-5.03-.76-5.55-4.47-2.09-14.79-2.58-29.63-1.99-44.53.41-10.35-.1-20.58-3.69-30.43-1.87-5.14-4.38-9.92-9.24-13.65 0 6.42.03 12.85-.01 19.27-.13 24.51-.28 49.02-.45 73.53-.05 7.49-.03 14.98-.38 22.46-.27 5.55-3.19 8.34-7.84 7.93-1.08-.1-2.76-1.04-2.98-1.89-1.21-4.71-2.81-9.5-2.91-14.28-.72-35.35-1.12-70.7-1.63-106.05 0-.33-.07-.66-.92-1.45-1.98 3.72-4.19 7.34-5.9 11.18-3.49 7.88-4.9 16.31-5.14 24.82-.41 14.31-.29 28.63-.51 42.95-.05 3.33-.36 6.71-1.01 9.98-.81 4.05-4.67 6.06-8.51 4.56-.91-.36-1.87-1.67-2.04-2.67-1.08-6.48-2.81-13.02-2.7-19.51.25-13.84 1.49-27.67 2.33-41.5.1-1.67.27-3.34.43-5.29-11.66 0-23.22 0-35.3 0 0 6.65.04 13.33-.01 20-.18 28.87-.37 57.74-.61 86.61-.02 2.11-.28 4.26-.78 6.3-.73 2.97-2.67 4.7-5.86 5.17-3.26.49-4.66-1.47-5.89-3.83-2.47-4.72-2.69-9.84-2.65-15.03.19-31.67.32-63.34.57-95.02.02-3.08-1.86-4.11-4.1-4.23-4.33-.22-8.68.06-13.03.18-2.68.07-5.37.51-8.02.28-5.98-.51-9.99-4.89-10.58-12.04 6.15-.55 12.31-1.16 18.48-1.65 4.9-.39 9.8-.63 14.7-.95 1.95-.13 2.57-1.17 2.54-3.11-.11-5.93-.13-11.87.01-17.79.04-1.9-.69-2.77-2.3-3.51-3.45-1.59-6.95-3.16-10.15-5.17-1.96-1.23-3.91-3-5.01-5-4.4-8-5.83-16.86-6.49-25.82-.82-11.3-1.03-22.59 1.78-33.71.57-2.24 5.46-4.98 7.4-3.96.83.44 1.35 1.7 1.75 2.7 3.48 8.61 3.81 17.55 3.32 26.72-.31 5.84.03 11.82.93 17.6.73 4.69 3.68 8.56 7.89 12.12.2-5.4.43-10.34.56-15.28.47-18.12.86-36.24 1.38-54.36.06-2.16-.66-3.05-2.7-3.79-11.8-4.28-18.85-14.27-19.25-26.84-.1-3.13-.34-6.26-.37-9.39-.02-1.86-.74-2.98-2.59-3.24-2.2-.31-4.41-.7-6.63-.78-3.69-.13-4.38-2.8-5.21-5.56-.88-2.93.79-4.36 3.11-4.88 4.32-.96 8.74-2.17 13.11-2.13 22.7.21 45.41.86 68.11 1.15 3.19.04 2.74 3.14 4.81 4.21 2.37-3.52 4.97-6.91 7.06-10.58 2.93-5.16 6.84-9.02 12.47-11.01 2.01-.71 2.93-2 3.08-4.21.47-6.69.97-13.39 1.82-20.04.52-4.04 1.71-7.99 2.59-11.91 7.42.88 10.49 4.2 10.15 10.9-.24 4.68-.98 9.34-1.36 14.01-.46 5.69 1.3 9.87 6.39 13.5 15.59 11.1 21.19 30 14.93 48.09-.49 1.43-1.72 2.78-2.94 3.74-5.27 4.16-11.41 5.91-18.39 5.59-.56 4.58-1.2 8.87-1.51 13.18-.06.85 1.04 2.02 1.9 2.64 4.76 3.47 10.37 6.11 14.26 10.35 9.1 9.9 12.67 21.91 10.17 35.37-1.32 7.1-5.41 11.84-12.4 13.99-3.09.95-6.23 1.86-9.18 3.16-1.01.45-2.06 1.99-2.15 3.11-.27 3.56 0 7.16-.14 10.74-.09 2.11.59 3.17 2.69 3.87 4.94 1.64 9.64 3.96 12.72 8.3 2.03 2.86 3.54 6.15 4.87 9.42 1.38 3.39 2.27 6.99 3.34 10.38.38.14.65.34.76.27 6.91-4 14.51-2.89 21.94-2.97 4.13-.04 8.26-.01 13.23-.01 0-5.14 0-10.02 0-14.91 0-2.67.92-5.95-.29-7.84-1.06-1.65-4.52-1.82-6.96-2.52-5.92-1.7-9.78-5.53-12.14-11.13-4.45-10.55-5.21-21.72-5.23-32.91-.01-7.36.59-14.75 1.47-22.06.73-6.12 1.46-6.38 8.14-6.71 3.53 7.75 4.39 16.03 4.2 24.47-.11 5.03-.69 10.06-.58 15.08.14 6.6 2.38 12.48 7.39 17.05.89.81 1.9 1.49 3.81 2.96 0-5.27-.03-9.65 0-14.03.14-18.46.26-36.93.49-55.39.03-2.41-.45-3.72-3.03-4.62-11.15-3.86-16.43-12.53-18.26-23.63-.67-4.07-.77-8.24-.95-12.38-.08-1.85-.73-2.9-2.56-3.27-2.62-.53-5.22-1.2-7.85-1.69-2.3-.43-3.85-1.57-3.56-4.01.29-2.38-.09-4.98 3.53-5.92 15.54-4.04 31.22-3.62 47-2.36 10.36.83 20.75 1.42 31.14 1.72 3.16.09 4.99.81 5.62 3.98.24 1.19.76 2.32 1.28 3.84-3.48 1.45-6.77 3.04-10.22 4.19-2.27.75-3.17 2.16-3.5 4.3-.89 5.63-1.78 11.26-2.77 16.88-.37 2.08-.86 4.17-1.56 6.17-1.82 5.17-5.15 8.66-10.71 10.07-9.97 2.52-9.94 2.64-9.94 12.79v59.1 3.6c6.53.57 7.73-.2 10.35-5.69 3.34-7 3.45-14.51 3.66-22 .18-6.49-.1-12.99.19-19.47.12-2.72.59-5.78 2.01-7.97 1.21-1.85 3.9-3.09 6.17-3.7.74-.2 2.61 2.26 3.33 3.8 3.67 7.87 3.74 16.32 3.03 24.7-1.01 12.06-3 23.94-7.71 35.24-1.25 3-2.99 4.94-6.18 5.9-3.95 1.19-7.82 2.7-11.62 4.32-.99.42-2.24 1.74-2.26 2.67-.19 6.69-.1 13.39-.1 20.99 5.84.11 12.36.25 18.89.34 2.79.04 5.66-.43 8.37.04 2.54.44 5.32 1.3 7.3 2.86 4.56 3.6 3.96 7.46-1.5 8.85-5.13 1.31-10.52 1.82-15.83 2.14-5.89.35-11.81.08-18.1.08v4.77c.01 33.58.04 67.16.01 100.73 0 2.23-.24 4.47-.62 6.67-.22 1.28-.61 3.04-1.52 3.58-1.98 1.18-4.32 2.14-6.57 2.31-.95.07-2.68-1.99-2.97-3.32-.95-4.33-1.91-8.77-1.95-13.17-.2-20.82-.03-41.64-.11-62.46-.05-11.86-.41-23.72-.46-35.58-.01-2.82-.83-3.86-3.75-3.96-9.47-.32-18.96-.94-28.29-1.43zm-65.91-166.51c-3.45 1.22-6.09 2.43-8.87 3.06-3.24.74-4.2 2.45-3.95 5.64.24 3.21.16 6.5-.22 9.7-1.56 13.17-9.62 20.67-21.83 24.27-2.37.7-3.1 1.76-3.02 4.21.44 14.09.77 28.18.99 42.27.14 9.01.03 18.03.03 27.78 7.11-3.39 11.48-7.87 12.6-14.36.9-5.2.8-10.67.46-15.98-.56-8.92.09-17.63 2.65-26.21.79-2.63 1.86-4.37 5.04-4.02 3.47.38 5.57 1.93 6.18 4.94 2.46 12.2 2.15 24.49 1 36.76-.76 8.16-2.63 16.09-7.13 23.18-1.61 2.55-3.57 4.41-6.5 5.42-4.12 1.42-8.15 3.07-12.16 4.77-.85.36-2.05 1.37-2.04 2.07.08 6.9.37 13.79.6 20.63 12.14 1.43 24.26-1.88 35.9 2.82.55-1.28 1.05-2.39 1.51-3.51 6.83-16.83 3.09-15.72 20.58-24.75.59-.31 1.2-.64 1.69-1.09.47-.42 1.15-1.02 1.13-1.51-.24-4.1-.45-8.22-1.08-12.28-.15-.94-1.72-1.88-2.84-2.42-4.33-2.06-8.77-3.89-13.09-5.97-1.02-.49-2.19-1.43-2.53-2.43-1.4-4.1-3.16-8.22-3.61-12.47-1.46-13.87 3.57-26.17 13.66-34.91 7.61-6.6 8.38-13.45 7.07-21.94-.03-.22-.11-.43-.22-.88-4.29-1.48-8.72-2.98-13.13-4.55-5.07-1.81-8.37-5.38-8.77-10.76-.42-5.51-.1-11.11-.1-17.48zm32.5 99.23c4.01-1.09 8.82-2.29 13.55-3.76.93-.29 2.01-1.54 2.22-2.51 2.29-10.78-2.66-23.13-11.53-29.14-4.98-3.37-5.2-3.37-10.12.21-1.62 1.18-3.3 2.31-4.83 3.6-.72.6-1.41 1.45-1.69 2.33-1.52 4.66-3.23 9.3-4.21 14.08-.61 2.96-.21 6.17.05 9.24.17 2.03 1.47 3.36 3.66 3.72 3.93.62 7.86 1.35 12.9 2.23zm.06-78.47c3.87-.94 8.64-1.95 13.28-3.35.97-.29 2.11-2.04 2.12-3.13.06-7.24-1.58-14.2-4.57-20.76-2.38-5.23-6.57-8.38-12.29-9.28-.91-.14-2.07-.09-2.81.36-5.28 3.22-10.23 6.69-11.58 13.43-.82 4.13-2.64 8.11-3.07 12.25-.55 5.32 1.13 7.25 6.32 8.45 3.79.86 7.68 1.25 12.6 2.03zm-59.36-16.23c-9.76-.32-19.35-.67-28.93-.88-.63-.01-1.8 1.04-1.84 1.65-.43 6.83-.59 13.67 2.92 19.92.48.85 1.03 2.12 1.77 2.3 6.91 1.76 13.93 4.03 20.69-.35 1.3-.84 2.82-2.31 3.05-3.69 1-6.15 1.57-12.38 2.34-18.95zm149.4 0c-9.87-.34-19.22-.7-28.57-.9-.77-.02-2.2.98-2.26 1.61-.77 7.17-.89 14.32 3.28 20.69.61.93 1.71 1.77 2.76 2.11 6.51 2.13 12.99 1.72 19.31-.75.88-.34 1.98-1.33 2.13-2.17 1.22-6.67 2.22-13.39 3.35-20.59z"/><path d="m267.52 40.44c7.49 0 14.98-.18 22.46.1 2.48.09 5.05 1.06 7.31 2.17 1.48.73 2.86 2.23 3.64 3.73 1.75 3.34.58 5.66-2.92 6.71-13.56 4.06-27.39 3.76-41.26 2.44-4.67-.45-9.33-1.14-13.96-1.9-4.85-.79-7.15-6.51-4.18-10.41.52-.68 1.71-1.03 2.64-1.19 4.39-.73 8.78-1.59 13.2-1.92 4.33-.33 8.71-.07 13.07-.07-.01.11 0 .22 0 .34z"/><path d="m119.75 39.51c9.44.78 18.89 1.44 28.31 2.46 2.02.22 4.7.43 5.01 3.84.51 5.51.7 5.53-4.57 7.3-9.72 3.26-19.81 3.49-29.87 3.04-8.24-.37-16.48-1.29-24.67-2.36-5.26-.69-7.31-5.51-4.64-10.1.38-.64 1.33-1.19 2.1-1.33 4.26-.75 8.53-1.67 12.83-1.94 5.13-.33 10.29-.08 15.44-.08.02-.28.04-.56.06-.83z"/></g></svg>