<svg enable-background="new 0 0 400 400" viewBox="0 0 400 400" xmlns="http://www.w3.org/2000/svg"><path d="m361.2 9.6.8-1c.9.7 1.9 1.4 2.9 2.3l-.9 1.1c-1-1-2-1.8-2.8-2.4zm.5 10.6c.9-2.1 1.6-4.3 2.3-6.7.4.2.8.4 1.3.6-.7 2.1-1.5 4.3-2.2 6.6zm.4-15.2.9-.9c1 .8 2 1.6 2.8 2.4l-1 1c-.9-.9-1.8-1.7-2.7-2.5zm12.5-1.2h1.2v1.4h2.7v1.1h-2.7v2.7h-1.2v-.6h-1.8v1.3h4.9v3.8h-1.2v-.5h-3.7c0 .4-.1.9-.1 1.2h5.1v1h-5.2c0 .5-.1.9-.2 1.2h6v1h-5.2c1.1 1.3 2.9 2 5.5 2.2-.4.4-.7.8-.9 1.3-2.9-.5-4.8-1.6-5.7-3.5h-.1c-.8 1.7-2.7 2.9-5.9 3.6-.2-.4-.6-.8-.9-1.1 2.8-.6 4.6-1.4 5.4-2.5h-4.8v-1h5.3c.1-.3.2-.7.2-1.2h-4.9v-1h5c0-.4 0-.8.1-1.2h-3.5v.5h-1.2v-3.8h4.9v-1.3h-1.8v.5h-1.2v-2.7h-2.7v-1h2.6v-1.4h1.2v1.4h4.7v-1.4zm-6.6 8.3h3.6c0-.4 0-.9 0-1.4h-3.6zm1.9-4.6h4.7v-1.3h-4.7zm6.6 3.2h-3.7v1.4h3.7z" fill="#fbfcfa"/><path d="m385.3 3.8h1.3v2.2h2.8v-2.2h1.3v2.2h4.1v9.1h1.7v1.3h-16.9v-1.3h1.7v-9.1h4.1v-2.2zm.4 13.1.7 1.2c-1.8.9-3.8 1.9-6 2.9-.2-.4-.5-.8-.8-1.3 2.3-1 4.3-1.9 6.1-2.8zm-3.1-6.4h2.8v-3.2h-2.8zm0 4.6h2.8v-3.3h-2.8zm4-4.6h2.8v-3.2h-2.8zm0 4.6h2.8v-3.3h-2.8zm3.7 1.9c2.1.9 4.1 1.8 6.1 2.7l-.7 1.3c-2.2-1.1-4.2-2-6.1-2.9zm3.2-9.7h-2.8v3.2h2.8zm-2.8 7.8h2.8v-3.3h-2.8z" fill="#fbfcfa"/><g fill="#010102"><path d="m200.24 312.13c0-23.85 0-47.08 0-70.86-3.85 0-7.84.04-11.83-.01-15.44-.17-30.88-.22-46.31-.66-3.83-.11-7.68-1.25-11.4-2.34-2.94-.86-3.98-3.37-3.87-6.35.11-2.87 1.4-4.43 4.31-5.39 4.64-1.52 9.23-2.23 14.12-2.22 33.02.11 66.04.05 99.06.06 10.73 0 21.47-.18 32.19.13 6.01.18 9.63 3.55 10.98 8.66.46 1.73.09 2.55-1.49 3.43-8.76 4.88-18.25 5.46-27.98 5.18-14.27-.4-28.54-.62-43.26-.93 0 7.06-.06 13.29.1 19.51.02.61 1.41 1.66 2.21 1.7 8.35.45 16.73 1.24 25.06.94 9.49-.34 18.71-.02 27.73 3.37 7.42 2.79 11.72 8.07 13.2 15.6 5.31 26.97 8.44 54.14 6.86 81.7-.12 2.12-.58 4.22-.65 6.34-.1 3.02-2.03 4.4-4.5 5.13-2.46.73-4.88.14-6.01-2.31-1.14-2.48-2.26-5.17-2.47-7.84-1.46-18.96-2.71-37.94-3.97-56.92-.25-3.79-.29-7.6-.43-11.4-.02-.67-.01-1.34-.06-2.01-1.05-13.85-5.79-16.28-16.29-17.66-4.29-.57-8.69-.4-13.05-.42-8.7-.06-17.4-.02-26.67-.02-.34 10.75-.7 22.42-1.08 34.64 4.35.21 8.54.5 12.74.61 9.05.24 18.12.22 27.16.7 2.43.13 5.06 1.23 7.1 2.62 3.91 2.66 3.36 7.48-1.03 9.11-3.1 1.15-6.49 2.17-9.74 2.15-20.91-.17-41.84-.14-62.71-1.25-8.91-.48-17.71-3.41-26.48-5.56-1.56-.38-2.98-2.25-3.99-3.76-4.84-7.23-7.04-15.46-8.04-23.95-1.64-13.92-2.27-27.88.31-41.79.71-3.84 5.78-6.7 9.3-5.02.83.39 1.42 1.62 1.78 2.58 3.58 9.45 3.38 19.25 2.92 29.14-.3 6.55-.14 13.15.34 19.68.19 2.54 1.56 5.12 2.84 7.44 2.04 3.7 4.96 5.85 9.64 6.04 7.59.3 15.13 1.39 23.36 2.21z"/><path d="m196.31 25.11c7.19.73 10.58 4.21 10.37 10.7-.19 5.91-.72 11.82-1.21 17.72-.37 4.52 1.04 7.64 5.73 9.06 2.97.9 5.68 2.63 8.63 3.64 10.72 3.68 15.97 11.98 19.01 22.19 2.99 10.04 2.2 20.21.4 30.25-1.19 6.67-3.21 13.21-5.21 19.7-.61 2-2.1 3.95-3.67 5.39-18.24 16.76-43.82 17.47-63.22 4.87-4.16-2.7-7.25-8.03-9.31-12.81-9.03-20.94-7.7-41.74 3.26-61.57 3.13-5.66 9.53-8.2 15.91-9.66 3.36-.77 6.79-1.31 10.12-2.19 3-.79 4.57-2.87 4.82-6.07.55-7.13 1.08-14.27 1.96-21.36.4-3.36 1.59-6.63 2.41-9.86zm25.36 60.13c-4.67 5.66-8.91 11.29-13.67 16.43-4.24 4.59-3.84 8.11-.45 12.52 4.4 5.73 9.4 10.99 14.13 16.44 5.98-4.63 5.99-33.9-.01-45.39zm-9.43 54.33c-6.16-6.75-12.05-13.21-18.08-19.82-4.79 5.54-9.42 10.82-13.96 16.17-1.77 2.08-.85 4.57 1.87 5.22 1.95.47 3.92.88 5.91 1.09 8.13.86 16.15.53 24.26-2.66zm-18.07-42.6c5.55-6.76 10.8-13.16 16.11-19.62-11.07-2.76-21.42-3.55-31.48 1.88 5.07 5.85 10.11 11.67 15.37 17.74zm-23.86-5.75c-.36.09-.72.18-1.08.27v35.48c5.06-5.94 10.02-11.78 15.09-17.73-4.73-6.09-9.37-12.06-14.01-18.02z"/><path d="m212.96 177.46c-14.16.36-33.75.46-53.29 1.51-10.67.57-21.45 1.88-31.81 4.38-12.48 3.01-18.62 12.56-19.15 24.96-.73 17.43-.74 34.9-.71 52.36.04 23.17.83 46.34.48 69.5-.16 10.34-2.33 20.64-3.6 30.96-.31 2.55-.82 5.09-.98 7.65-.13 1.98-.98 2.63-2.89 2.84-6.96.74-7.67.7-8.5-6.31-.72-6.02-.94-12.33.02-18.29 2.94-18.18 1.82-36.37 1.45-54.6-.4-19.36-.92-38.72-.76-58.08.13-15.69 2.1-31.25 6.75-46.34.52-1.69 1.65-3.44 2.99-4.59 14.07-12.04 30.75-17.15 48.93-18.76 40.67-3.61 81.43-1.9 122.15-2.26 4.23-.04 8.49.47 12.7.99 4.04.5 5.87 2.89 5.98 6.76.06 1.96-.67 3.04-2.41 3.89-5.36 2.62-11.02 3.46-16.92 3.44-18.35-.05-36.68-.01-60.43-.01z"/><path d="m288.85 86.04c-7.89 0-15.35.07-22.8-.03-3.78-.05-7.65-.01-11.32-.75-4.82-.98-7.19-4.86-6.25-9.51.19-.93 1.54-2.26 2.43-2.31 11.7-.71 23.41-1.35 35.12-1.71 2.9-.09 3.2-1.89 3.16-3.66-.11-4.57-.45-9.14-.99-13.68-.85-7.19.76-13.49 5.94-18.82 5.58 2.16 8.26 6.41 8.37 11.92.38 18.9.74 37.81.57 56.7-.08 9.33-2.27 18.57-6.69 26.79-2.03 3.78-6.07 6.79-9.78 9.3-10.71 7.23-22.43 9.59-35.15 6.16-3.17-.85-5.25-2.06-4.9-5.73.1-1.09-.15-2.21-.25-3.4 7.04-3.18 14.27-4.66 21.85-4.86 10.58-.28 15.84-5.11 17.65-16.25-4.38 0-8.7.08-13.02-.02-5.25-.12-10.53-.09-15.74-.68-5.65-.64-8.03-3.67-7.47-8.32.28-2.3 1.2-3.62 3.77-3.67 7.49-.14 14.97-.54 22.46-.62 10.95-.11 10.96-.03 12.4-10.53.26-1.94.4-3.94.64-6.32z"/><path d="m111.34 84.46c-.31 5.89-.57 10.79-.85 16.28 5.8.39 11.33.84 16.88 1.12 4.58.23 9.18.05 13.74.42 5.58.45 8.77 3.59 8.93 8.23.07 2.08-.42 3.94-2.79 4.25-5.38.69-10.77 1.4-16.18 1.72-4.95.29-9.93.06-14.9.06.08 9.03 2.79 12.41 12.63 15.26 4.14 1.2 8.55 1.56 12.87 1.97 5.65.54 8.79 2.57 9.68 6.65.38 1.75-.02 2.85-1.69 3.83-10.64 6.24-21.28 4.53-31.88.06-6.79-2.86-9.82-9.23-13.19-15.09-6.18-10.75-8.14-22.77-8.6-34.85-.66-17.53-.37-35.1-.65-52.65-.04-2.8 1.26-4.88 3.31-5.65 1.49-.56 3.92.35 5.52 1.29 3.42 2.01 4.39 5.54 4.34 9.27-.08 5.25-.58 10.5-.58 15.75-.01 8.3.77 9.35 8.98 9.67 5.2.2 10.44-.81 15.68-1.04 3.21-.14 6.49-.15 9.63.4 1.84.32 3.75 1.55 5.14 2.88 4.08 3.89 3.59 6.54-1.36 9.07-5.5 2.81-11.31 3.09-17.33 2.44-5.62-.61-11.28-.89-17.33-1.34z"/><path d="m135.04 196.31c6.17-3.17 12.18-6.23 19.88-6.15 33.9.37 67.8.05 101.71.12 4.33.01 8.7.56 12.96 1.35 3.63.67 6.02 3.16 7.23 6.76.71 2.12.43 3.45-1.76 4.58-5.2 2.68-10.73 3.92-16.48 3.89-17.11-.09-34.22-.31-51.32-.57-17.55-.26-35.11-.63-52.66-.96-2.46-.05-5-.59-7.36-.14-7.27 1.41-10.6-2.35-12.2-8.88z"/></g></svg>