<svg enable-background="new 0 0 400 400" viewBox="0 0 400 400" xmlns="http://www.w3.org/2000/svg"><path d="m361.2 9.6.8-1c.9.7 1.9 1.4 2.9 2.3l-.9 1.1c-1-1-2-1.8-2.8-2.4zm.5 10.6c.9-2.1 1.6-4.3 2.3-6.7.4.2.8.4 1.3.6-.7 2.1-1.5 4.3-2.2 6.6zm.4-15.2.9-.9c1 .8 2 1.6 2.8 2.4l-1 1c-.9-.9-1.8-1.7-2.7-2.5zm12.5-1.2h1.2v1.4h2.7v1.1h-2.7v2.7h-1.2v-.6h-1.8v1.3h4.9v3.8h-1.2v-.5h-3.7c0 .4-.1.9-.1 1.2h5.1v1h-5.2c0 .5-.1.9-.2 1.2h6v1h-5.2c1.1 1.3 2.9 2 5.5 2.2-.4.4-.7.8-.9 1.3-2.9-.5-4.8-1.6-5.7-3.5h-.1c-.8 1.7-2.7 2.9-5.9 3.6-.2-.4-.6-.8-.9-1.1 2.8-.6 4.6-1.4 5.4-2.5h-4.8v-1h5.3c.1-.3.2-.7.2-1.2h-4.9v-1h5c0-.4 0-.8.1-1.2h-3.5v.5h-1.2v-3.8h4.9v-1.3h-1.8v.5h-1.2v-2.7h-2.7v-1h2.6v-1.4h1.2v1.4h4.7v-1.4zm-6.6 8.3h3.6c0-.4 0-.9 0-1.4h-3.6zm1.9-4.6h4.7v-1.3h-4.7zm6.6 3.2h-3.7v1.4h3.7z" fill="#fbfcfa"/><path d="m385.3 3.8h1.3v2.2h2.8v-2.2h1.3v2.2h4.1v9.1h1.7v1.3h-16.9v-1.3h1.7v-9.1h4.1v-2.2zm.4 13.1.7 1.2c-1.8.9-3.8 1.9-6 2.9-.2-.4-.5-.8-.8-1.3 2.3-1 4.3-1.9 6.1-2.8zm-3.1-6.4h2.8v-3.2h-2.8zm0 4.6h2.8v-3.3h-2.8zm4-4.6h2.8v-3.2h-2.8zm0 4.6h2.8v-3.3h-2.8zm3.7 1.9c2.1.9 4.1 1.8 6.1 2.7l-.7 1.3c-2.2-1.1-4.2-2-6.1-2.9zm3.2-9.7h-2.8v3.2h2.8zm-2.8 7.8h2.8v-3.3h-2.8z" fill="#fbfcfa"/><g fill="#010102"><path d="m173.55 203.95c5.04 8.1 7.53 17.08 8.46 26.51 1.26 12.79.24 25.39-2.76 37.94-1.84 7.72-6.95 11.76-13.6 14.37-7.25 2.85-14.79 4.34-22.64 2.81-.53-.1-1.09-.06-2.04-.1-.58 8.85-1.14 17.58-1.73 26.6 6.2.53 11.97 1.02 17.73 1.5 12.14 1.01 22.55 6.09 30.68 14.86 9.34 10.07 17.9 20.87 26.67 31.46 2.93 3.54 4.54 7.69 3.84 12.45-.39 2.62-2.81 4.62-5.19 3.63-2.81-1.17-5.93-2.53-7.85-4.74-5.28-6.06-10.14-12.51-14.9-18.99-5.15-7-10.88-13.31-18.25-18.06-6.41-4.14-13.6-5.77-20.97-6.17-6.78-.37-13.61.19-20.42.37-9.5.26-18.88-.75-27.44-4.99-9.35-4.64-14.42-12.64-15.93-23-3.6-24.7-4.47-49.44-1.49-74.26.07-.56.22-1.1.24-1.66.15-3.9 2.07-5.95 6.02-6.54 1.92-.29 2.78-.07 3.51 1.79 3.29 8.46 4.73 17.27 4.62 26.27-.09 7.71-.77 15.41-1.28 23.11-.69 10.45-.5 20.81 2.94 30.85 3.15 9.19 11.36 13.71 21.38 11.68.34-38.04.68-76.14 1.02-114.59-8.85.76-17.27 1.48-25.7 2.21-6.24.54-12.47 1.31-18.72 1.56-2.94.12-5.98-.53-8.88-1.23-3.16-.77-4.34-3.3-4.37-6.38-.02-1.77.57-2.96 2.45-3.86 9.46-4.49 19.52-6.25 29.82-7.18 11.8-1.06 23.65-1.83 35.37-3.5 7.7-1.09 15.24-3.46 22.79-5.49.85-.23 1.93-2.03 1.83-3-.35-3.41-.86-6.87-1.87-10.13-1.54-5.01-.7-9.43 2.07-13.73 1.21-1.88 2.5-2.16 4.48-1.27 3.96 1.78 6.45 4.85 7.59 8.88 2.37 8.41 2.84 16.99 1.02 25.56-.36 1.68-1.58 3.43-2.9 4.59-3.66 3.25-7.93 5.38-12.95 5.7-1.56.1-3.12.28-4.68.45-9.93 1.11-10.53 1.81-10.73 11.64-.44 21.03-.94 42.06-1.41 63.09-.04 1.65 0 3.31 0 5.44 7.12-.67 13.98-1.24 20.81-2.07.89-.11 1.85-1.46 2.37-2.45 4.67-8.94 4.61-18.49 3.46-28.17-.86-7.19-2.13-14.38-2.33-21.6-.2-6.72 3.58-10.76 9.86-12.16z"/><path d="m277.71 102.87c-6.08 9.23-12.49 18.79-18.72 28.47-5.27 8.21-11.09 15.92-17.74 23.1-9.49 10.25-18.48 20.96-27.79 31.39-2.74 3.07-6.08 5.27-10.51 5.06-3.96-.19-4.2-.84-4.67-4.77-.65-5.52 1.67-9.15 5.3-13.15 14.75-16.21 29.47-32.49 43.3-49.47 7.01-8.61 12.11-18.77 18.14-28.32-2.93-3.57-5.93-6.98-8.66-10.61-9.62-12.76-12.17-26.84-7.5-42.16.34-1.12.9-2.34 1.72-3.14 8.11-7.82 17.75-12.72 29.06-12.83 11.82-.12 23.68.38 35.45 1.39 6.39.55 11.52 4.03 13.45 11.81-4.97.97-9.68 2.08-14.46 2.79-10.32 1.52-20.52-.06-30.72-1.46-1.55-.21-3.12-.43-4.67-.36-9.03.41-13.75 4.62-15.88 13.46-2.16 8.98.32 17.23 5.43 24.05 4.19 5.59 11.14 8.49 17.95 10.61 8.12 2.52 16.3 4.85 23.44 9.69 8.58 5.82 11.92 14.22 11.47 24.24-.41 9.31-5.07 17.28-8.75 25.51-5.53 12.38-12.18 24.07-20.73 34.72-6.78 8.45-12.64 17.64-19.27 26.21-4.57 5.9-10.3 10.64-17.68 12.74-1.6.46-3.96.59-5.14-.27-2.11-1.54-2.28-4.04-1.24-6.68 1.67-4.21 4.05-7.72 7.2-11.07 16.75-17.82 32.12-36.73 42.78-58.95 4.4-9.18 6.84-18.94 5.19-29.26-.21-1.34-1.16-2.95-2.27-3.68-2.49-1.64-5.2-3.07-8-4.1-4.9-1.76-9.94-3.19-15.48-4.96z"/><path d="m299.05 249.89c0-6.26.05-12.16-.01-18.06-.05-5.03-.52-10.07-.29-15.09.29-6.28 3.8-9.93 8.88-9.64 1.08.06 2.69.92 3.04 1.81 1.35 3.39 2.92 6.89 3.26 10.46 1.29 13.34 2.3 26.71 3.08 40.09 1.02 17.61-.33 34.94-4.62 52.22-3.34 13.48-11.78 20.57-24.2 23.94-16.31 4.42-32.5 3.74-48.4-2.35-3.29-1.26-5.21-3.69-7-6.4-7.03-10.63-10.21-22.54-11.35-35.05-1.6-17.54-1.54-35.06 1.03-52.56.86-5.83.64-11.83.81-17.75.14-5 1.97-9.39 4.85-13.32.56-.76 2.25-1.28 3.22-1.06 5.34 1.24 8.47 6.18 7.83 12.76-.6 6.22-1.87 12.38-2.45 18.6-.98 10.42-.63 10.71 9.45 10.84 16.11.21 32.21.38 48.32.57 1.24 0 2.46-.01 4.55-.01zm-62.22 15.12c0 8.32-.06 16.35.02 24.38.09 9.54 2.23 18.62 6.87 26.99.74 1.33 2.08 2.71 3.45 3.24 13.57 5.21 27.25 5.04 40.98.47 3.9-1.3 6.18-3.91 7.92-7.53 3.69-7.71 4.26-15.99 4.36-24.23.1-7.75-.78-15.51-1.23-23.33-20.97.01-41.08.01-62.37.01z"/><path d="m94.49 112.29c-4.26-.49-8.69-1.04-13.13-1.48-2.87-.29-4.11-1.7-4.53-4.62-.7-4.89-.92-4.89 3.63-6.7 12.26-4.87 25.15-6.92 38.12-8.72 7.72-1.08 15.61-1.88 23-4.17 12.01-3.73 16.91-13.79 13.68-26-.34-1.28-1.39-2.48-2.37-3.45-5.18-5.1-10.59-9.98-15.62-15.21-3.27-3.4-5.28-7.52-3.87-12.53 1.11-3.97 1.93-4.4 5.97-3.28 5.99 1.66 11.04 4.92 15.23 9.38 7.67 8.16 13.39 17.54 17.2 28.11 1.42 3.94 1.28 7.57.29 11.69-1.46 6.07-4.6 10.35-9.68 13.74-20.53 13.7-43.05 21.45-67.92 23.24z"/><path d="m162.47 101.59c6.18.87 10.26 3.99 12.1 9.83 1.67 5.3 2.58 10.71 1.14 16.18-.41 1.57-1.43 3.3-2.7 4.28-8.53 6.59-18.41 10.49-28.64 13.49-19.17 5.64-38.67 9.36-58.75 9.21-3.79-.03-7.57-.61-11.35-.98-2.74-.27-3.88-2.24-3.98-4.6-.1-2.47.27-4.89 3.53-5.54 15.88-3.16 31.78-6.26 47.6-9.67 12.44-2.68 24.8-5.72 37.16-8.79.93-.23 2.05-1.91 2.11-2.97.11-1.96-.47-3.97-.8-5.96-.86-5.36-.17-9.41 2.58-14.48z"/></g></svg>