<svg enable-background="new 0 0 400 400" viewBox="0 0 400 400" xmlns="http://www.w3.org/2000/svg"><path d="m361.2 9.6.8-1c.9.7 1.9 1.4 2.9 2.3l-.9 1.1c-1-1-2-1.8-2.8-2.4zm.5 10.6c.9-2.1 1.6-4.3 2.3-6.7.4.2.8.4 1.3.6-.7 2.1-1.5 4.3-2.2 6.6zm.4-15.2.9-.9c1 .8 2 1.6 2.8 2.4l-1 1c-.9-.9-1.8-1.7-2.7-2.5zm12.5-1.2h1.2v1.4h2.7v1.1h-2.7v2.7h-1.2v-.6h-1.8v1.3h4.9v3.8h-1.2v-.5h-3.7c0 .4-.1.9-.1 1.2h5.1v1h-5.2c0 .5-.1.9-.2 1.2h6v1h-5.2c1.1 1.3 2.9 2 5.5 2.2-.4.4-.7.8-.9 1.3-2.9-.5-4.8-1.6-5.7-3.5h-.1c-.8 1.7-2.7 2.9-5.9 3.6-.2-.4-.6-.8-.9-1.1 2.8-.6 4.6-1.4 5.4-2.5h-4.8v-1h5.3c.1-.3.2-.7.2-1.2h-4.9v-1h5c0-.4 0-.8.1-1.2h-3.5v.5h-1.2v-3.8h4.9v-1.3h-1.8v.5h-1.2v-2.7h-2.7v-1h2.6v-1.4h1.2v1.4h4.7v-1.4zm-6.6 8.3h3.6c0-.4 0-.9 0-1.4h-3.6zm1.9-4.6h4.7v-1.3h-4.7zm6.6 3.2h-3.7v1.4h3.7z" fill="#fbfcfa"/><path d="m385.3 3.8h1.3v2.2h2.8v-2.2h1.3v2.2h4.1v9.1h1.7v1.3h-16.9v-1.3h1.7v-9.1h4.1v-2.2zm.4 13.1.7 1.2c-1.8.9-3.8 1.9-6 2.9-.2-.4-.5-.8-.8-1.3 2.3-1 4.3-1.9 6.1-2.8zm-3.1-6.4h2.8v-3.2h-2.8zm0 4.6h2.8v-3.3h-2.8zm4-4.6h2.8v-3.2h-2.8zm0 4.6h2.8v-3.3h-2.8zm3.7 1.9c2.1.9 4.1 1.8 6.1 2.7l-.7 1.3c-2.2-1.1-4.2-2-6.1-2.9zm3.2-9.7h-2.8v3.2h2.8zm-2.8 7.8h2.8v-3.3h-2.8z" fill="#fbfcfa"/><g fill="#010102"><path d="m234.23 167.01c3.55.2 6.88.39 10.47.6.1-1.04.25-1.89.25-2.74.2-34.03.39-68.07.56-102.1.04-8.37 1.4-12.34 6.11-17.05 5.01 2.41 7.75 6.49 8.09 11.99.28 4.57-.02 9.17.01 13.76.21 31.56.44 63.12.67 94.68 0 .32.12.63.23 1.16h16.59c0-1.34-.01-2.73 0-4.12.18-23.78 2.17-47.39 6.8-70.73.6-3.04 1.71-6.03 2.9-8.91 1.79-4.35 4.52-6.22 10.22-7.45 2.38 2.99 3.23 6.47 2.53 10.24-.42 2.29-1.02 4.63-2.03 6.72-5.15 10.71-4.08 22.31-4.87 33.62-.83 11.95-1.27 23.92-1.91 35.88-.18 3.38 1.01 5.07 4.38 5.44 2.32.25 4.69.02 7.04.05 4.47.05 7.99 3.72 7.53 8.06-.08.76-1.01 1.62-1.76 2.09-5.37 3.32-11.34 3.69-17.46 3.63-9.5-.1-19.01.02-28.52.09-.86.01-1.72.28-2.89.49v3.72c0 53.63.03 107.27-.04 160.9-.01 5.56-.2 11.17-.94 16.67-.66 4.88-4.23 6.34-8.34 3.81-.98-.6-1.9-2-2.03-3.14-.96-7.97-2.36-15.96-2.42-23.95-.2-26.64.15-53.29.21-79.94.06-24.52.01-49.04.01-73.56 0-5.09-.66-5.83-5.85-5.68-8.83.25-17.65.72-26.49.93-2.2.05-4.58-.11-6.58-.91-1.97-.78-4.03-2.17-5.22-3.88-2.85-4.09-1.86-6.41 2.97-7.43 4.37-.93 8.8-1.58 13.23-2.19 2.13-.29 2.73-1.19 2.53-3.33-1.37-14.82-2.2-29.71-4.08-44.46-1.03-8.03-3.91-15.82-5.72-23.77-.86-3.79-1.47-7.7-1.62-11.57-.15-3.66 1.47-6.72 4.97-8.48 1.61-.81 2.7-.72 3.9.95 5.97 8.3 9.31 17.67 10.44 27.65 2.22 19.56 3.91 39.18 5.82 58.77.11 1.07.19 2.17.31 3.49z"/><path d="m100.89 244.42c3.24 7.08 4.89 14.83 4.94 22.8.05 7.82-.49 15.65-.97 23.46-.62 10.24-.21 20.32 3.27 30.13 1.67 4.73 4.92 7.44 9.59 8.39 3.71.75 7.53.9 11.3 1.38 2.5.32 3.24-.67 3.25-3.19.1-24.85.34-49.7.5-74.55.06-9.28.01-18.57.01-28.82-5.39.75-10.64 1.28-15.82 2.26-6.03 1.15-11.96 2.83-17.99 4.01-3.91.77-7.87.56-11.23-1.99-4.6-3.49-4.3-6.58.78-8.92 11.14-5.13 23.06-6.98 35.09-8.28 12.59-1.36 25.11-2.95 36.87-8.05 1.43-.62 2.81-1.38 4.23-2.03 7.7-3.57 8.88-8.12 8.08-16.09-.53-5.26-.1-10.62-.1-15.92 4.69-.33 9.11 2.21 11 6.89 3.52 8.75 2.97 17.73.55 26.66-.19.68-.85 1.31-1.42 1.81-6.06 5.34-12.86 9.15-20.88 10.84-3.9.82-7.6 2.53-11.4 3.83-1.68.58-2.27 1.63-2.31 3.51-.45 22.61-.98 45.21-1.56 67.82-.05 2.02.48 3.11 2.58 3.48 14.06 2.47 22.41-3.1 22.64-18.94.15-10.22-1.66-20.47-2.41-30.72-.23-3.2-.21-6.49.32-9.63.3-1.84 1.53-3.76 2.86-5.14 3.04-3.17 4.55-2.86 6.87.9 3.78 6.13 5.83 12.89 6.25 19.98.86 14.59-.08 29.09-3.93 43.26-.51 1.9-1.78 3.83-3.22 5.19-5.36 5.04-11.24 9-19.21 7.26-.21-.05-.44.02-.67.03-9.25.39-10.46 1.55-11.09 10.63-.31 4.46-.64 8.91-.97 13.6 4.64 1.56 9.31 2.74 13.65 4.67 10.4 4.62 20.92 9.07 30.85 14.57 7.65 4.25 12.56 11.33 14.32 20.2.71 3.57-2.19 6.66-5.71 5.56-2.46-.76-5-2.09-6.85-3.86-7.97-7.6-16.33-14.65-26.06-19.91-10.29-5.56-21.37-7.71-32.98-7.48-8.74.17-17.42.14-25.68-3.54-6.05-2.69-10.18-6.87-11.48-13.42-4.29-21.57-6.86-43.31-5.67-65.35.19-3.44 1.09-6.84 1.49-10.28.53-4.86 2.98-7.43 8.32-7.01z"/><path d="m102.06 110.57c-1.81-.2-3.73-.26-5.57-.64-4.85-.99-5.96-2.35-5.59-7.25.07-.87 1.29-2.11 2.21-2.38 7.49-2.16 14.95-4.66 22.6-6.03 15.73-2.81 31.58-4.94 47.36-7.48 2.73-.44 5.48-1.25 8.02-2.36 9.34-4.08 8.15-9.06 2.49-14.47-6.32-6.03-13.43-11.37-21.6-15.15-10.64-4.93-21.03-10.41-31.51-15.68-4.38-2.2-5.96-5.45-4.56-9.11 1.82-4.77 2.38-5.1 7.45-3.89 14.58 3.48 27.38 10.8 39.93 18.62 9.05 5.64 17.6 11.91 23.99 20.69 7.68 10.56 4.53 18.44-2.78 26.2-4.07 4.32-10.86 6.94-16.89 8.38-12.57 2.99-25.43 4.74-38.2 6.87-6.94 1.15-13.93 2.05-20.9 3.02-2.12.28-4.24.43-6.45.66z"/><path d="m289.83 338.74c-5.32-17.21-7.97-34.44-8.44-51.92-.62-23.26-.63-46.54-.74-69.82-.04-8.73 1.46-17.12 6.76-24.48 1.49-2.07 2.85-2.08 4.7-.88 3.09 2 4.57 5.03 4.56 8.51-.01 5.69-.52 11.39-.69 17.08-.23 7.92-.69 15.86-.42 23.77 1.03 31.09 2.29 62.17 3.54 93.25.08 2.04-.22 3.12-2.53 3.29-2.2.17-4.37.76-6.74 1.2z"/><path d="m228.36 245.87c.71 30.7-3.57 60.92-8.6 91.07-.11.66-.22 1.32-.31 1.99-.69 5.19-2.06 6.65-7.19 7.1-.79.07-1.97-.8-2.47-1.56-2.96-4.49-2.74-9.52-2.22-14.59 2.18-21.24 4.1-42.51 6.56-63.72 1.76-15.15-.21-30.14-.84-45.2-.29-6.99.43-14.05.96-21.05.24-3.18 3.5-4.74 6.47-3.4 4.34 1.96 6.29 5.76 6.72 10.14.6 6.11.77 12.27.9 18.41.13 6.93.02 13.87.02 20.81z"/><path d="m185.43 127.18c-.27 2.64-.49 5.77-.94 8.86-.86 5.92-3.14 10.85-8.2 14.73-9.52 7.3-20.24 11.29-31.86 13.25-14.55 2.46-29.09 4.98-43.69 7.07-3.4.49-7.05-.53-10.55-1.09-3.12-.49-4.09-2.73-4.38-5.7-.28-2.84 1.89-3.58 3.53-4.17 3.96-1.42 8.04-2.7 12.18-3.36 15.23-2.43 30.61-4.08 45.72-7.08 6.62-1.32 12.97-4.74 18.99-8.04 5.29-2.9 7.14-8.15 5.88-14.16-1.16-5.52-1.06-10.83 1.4-16.05.87-1.85 1.84-2.2 3.64-1.52 4.98 1.88 7.23 5.77 7.93 10.74.28 1.98.23 4.01.35 6.52z"/></g></svg>