<svg enable-background="new 0 0 400 400" viewBox="0 0 400 400" xmlns="http://www.w3.org/2000/svg"><g fill="#010103"><path d="m256.13 200.59c-9.06-1.23-17.57-2.56-26.12-3.52-14.81-1.66-26.21-11.6-24.39-29.98.62-6.28 2.16-12.53 3.85-18.63.65-2.35 2.54-4.75 4.53-6.26 10.45-7.95 22.53-11.04 35.5-11.07h5.19c.32-1.29.65-2.33.83-3.39.19-1.1.23-2.22.38-3.8-3.1-.76-6.15-1.85-9.29-2.23-16.3-1.97-24.89-12.06-28.38-27.15-3.71-16.06-3.32-32.18.62-48.19.84-3.4 4.45-5.49 7.82-4.43.91.29 1.81 1.52 2.16 2.52 3.27 9.2 3.99 18.76 3.7 28.44-.12 3.91-.44 7.82-.6 11.73-.62 14.9 7.72 23.83 23.44 24.32.73-5.49 2.17-11.09 2.07-16.66-.18-9.58-1.1-19.17-2.12-28.71-1.32-12.37-.18-24.29 4.86-35.79 1.07-2.44 2.39-2.49 4.41-1.74 3.55 1.31 5.36 4.05 5.72 7.6.38 3.76.45 7.57.46 11.36.04 20.04.01 40.07.03 60.11 0 .65.16 1.31.3 2.38 3.25 0 6.48.16 9.67-.09 1-.08 2.13-1.1 2.83-1.99 4.66-5.89 6.95-12.67 7.19-20.17.31-9.84.46-19.69 1.1-29.51.24-3.6 1.6-7.15 2.61-10.67.65-2.27 2.43-3.21 4.69-2.85 2.28.37 4.72.59 5.33 3.63 4.23 21.18 3.41 42.02-4.29 62.36-3.07 8.11-9.53 11.71-17.68 12.92-2.32.34-4.65.62-6.99.87-3.16.33-4.91 1.8-4.49 5.22.11.88.02 1.78.02 3.22 6.64 1.34 13.34 3.05 20.15 3.98 9.1 1.25 17.33 3.88 22.67 11.91 1.67 2.51 2.84 5.51 3.58 8.46 1.09 4.32 1.78 8.78 2.25 13.21.25 2.34-.19 4.79-.59 7.15-.24 1.4-1.23 2.68-1.48 4.08-1.58 8.93-8.18 13.15-15.74 15.61-6.51 2.11-13.47 2.89-20.26 4.1-2.95.52-5.97.65-9.12.97-.31 2.49-.59 4.81-.87 7.12-.9 7.24-.9 7.24 5.7 10.38 4.92 2.34 10.26 4.08 14.69 7.13 10.4 7.16 15.11 18.26 18.71 29.81 4.21 13.52 4.23 27.6 4.62 41.56.33 11.85.33 23.73-.01 35.58-.13 4.48-1.46 8.96-2.55 13.36-.87 3.55-4.32 2.71-6.73 2.95-1.06.1-2.98-1.62-3.35-2.86-1.11-3.69-2.17-7.53-2.32-11.35-.56-13.97-.23-27.99-1.23-41.92-.9-12.47-2.63-24.93-4.96-37.21-1.07-5.65-4-11.13-6.93-16.19-3.27-5.64-8.8-8.23-16.08-8.49 0 7.98.03 15.66-.01 23.34-.13 27.98-.33 55.96-.42 83.94-.03 8.95.32 17.9.24 26.84-.02 2.39-.62 4.91-1.55 7.13-1.46 3.52-6.02 5.45-9.56 4.16-.94-.34-1.94-1.82-2.08-2.89-1.28-9.63-3.35-19.29-3.35-28.94.01-25.39 1.01-50.79 1.49-76.18.21-11.3.07-22.61.15-33.91.02-2.76-1.34-3.66-3.82-3.07-3.61.86-6.71 2.22-9.19 5.47-9.08 11.92-14.3 25.31-15.48 40.12-1.13 14.15-1.75 28.35-2.25 42.54-.23 6.47.52 12.96.55 19.44.03 5.67-2.89 9.28-7.93 10.03-1.02.15-2.84-.52-3.22-1.32-1.4-2.99-3.28-6.17-3.33-9.31-.41-24.17-.78-48.36 3.23-72.33 1.75-10.45 5.17-20.42 10.54-29.53 5.73-9.71 13.79-16.61 25.06-19.68 7.16-1.95 5.66-.37 5.82-7.77.04-2.34 0-4.67 0-7.27zm-1.82-55.47c-7.73-.9-14.8.52-21.61 2.61-10.95 3.36-12.84 6.2-13.95 17.75-.98 10.23 2.64 15.11 12.37 18.03 1.28.38 2.57.77 3.88 1.04 6.91 1.46 13.83 2.41 21.05.44-.57-13.32-1.15-26.47-1.74-39.87zm17.35 41.16c6.51-.59 12.65-.82 18.66-1.78 8.67-1.38 14.31-6.18 15.53-15.37.85-6.39 1.31-12.72-4.69-17.04-8.77-6.31-18.92-7.11-29.5-7.12z"/><path d="m127.12 312.46c0-33.55 0-66.73 0-100.2-8.95 2.39-17.88 4.84-26.84 7.15-5.73 1.48-11.49 2.85-17.27 4.06-1.58.33-3.56.4-4.92-.28-1.72-.87-3.86-2.43-4.22-4.06-.48-2.13-.24-4.81 2.33-6.44 8.35-5.3 17.61-8.13 27.12-10.34 11.63-2.7 23.42-4.89 34.85-8.26 5.98-1.77 11.56-5.27 16.95-8.6 5.42-3.35 6.21-6.58 4.01-12.59-1.51-4.13-2.11-8.13-.48-12.4.88-2.32 1.98-2.76 4.26-1.96 4.97 1.75 8.29 5.19 9.38 10.13.99 4.52 1.36 9.27 1.32 13.92-.04 4.94-2.23 9.15-6.87 11.47-6.38 3.19-12.76 6.4-19.33 9.17-3.73 1.57-5.3 3.4-5.26 7.81.16 18.01-.24 36.03-.43 54.05-.01 1.32 0 2.64 0 4.31 5.33-.77 10.3-1.4 15.21-2.29.78-.14 1.59-1.42 1.95-2.34 2.77-7.11 3.25-14.57 3.12-22.09-.09-5.26-.73-10.56-.2-15.75.31-3.1 1.84-6.48 3.83-8.9 2.29-2.78 4.75-2.09 6.73.95 5 7.69 6.29 16.33 5.29 25.13-1.03 9.07-2.88 18.07-4.71 27.03-.41 2-1.93 4.03-3.48 5.48-6.96 6.54-14.93 8.65-25.99 7.01-.58 9.46-1.16 18.88-1.76 28.68 2.8.37 5.68.29 8.22 1.16 14.43 4.93 27.07 12.77 37.31 24.17 4.81 5.35 7.72 11.72 8.86 18.87.75 4.71-3.16 8.01-7.66 6.13-1.99-.83-3.92-2.23-5.38-3.82-4.54-4.94-9.06-9.93-13.21-15.21-9.56-12.16-21.84-17.91-37.37-17.24-5.88.25-11.84-.34-17.71-1.01-9.77-1.12-16.39-6.7-19-16.03-2.43-8.67-4.53-17.55-5.52-26.48-1.66-15.03-1.79-30.16 1.57-45.08.17-.76.28-1.57.63-2.26.81-1.6.15-4.21 3.26-4.24 3-.03 5.88-.29 6.71 3.6.67 3.12 2.01 6.23 2.02 9.35.02 11.52-.37 23.04-.63 34.56-.2 8.68.46 17.19 4.05 25.28 1.96 4.42 5.3 6.84 9.91 7.55 2.83.43 5.75.53 9.35.85z"/><path d="m97.09 119.7c-.45 0-.89 0-1.34 0-5.71 0-7-1.04-7.79-6.77-.11-.78.71-1.99 1.45-2.54 6.74-5.04 14.66-6.71 22.74-8.24 11.49-2.17 22.91-4.76 34.32-7.37 3.84-.88 6.41-3.56 7.55-7.39.28-.93.49-2.07.2-2.93-1.58-4.58-2.75-9.13-6.3-13.04-5.99-6.59-11.29-13.84-16.47-21.1-1.81-2.53-2.71-5.85-3.5-8.94-.89-3.47 2.02-6.26 5.39-5.01 3.15 1.18 6.76 2.62 8.78 5.08 8.06 9.83 15.89 19.89 23.21 30.28 5.52 7.83 4.44 16.6 1.01 25.01-.77 1.89-2.85 3.35-4.56 4.73-11.11 8.97-24.12 13.39-38.04 15.41-8.83 1.28-17.72 2.2-26.58 3.28-.03-.15-.05-.3-.07-.46z"/><path d="m102.2 166.53c-5.38-.49-9.07-.66-12.71-1.24-1.11-.18-2.81-1.4-2.9-2.28-.2-2.12-2.24-4.58 1.07-6.46 7.34-4.17 15.23-6.35 23.52-7.31 9.87-1.14 19.79-1.9 29.6-3.42 4.22-.65 8.32-2.54 12.27-4.32 4.88-2.2 5.84-4.91 4.01-10.03-1.31-3.64-2.23-7.22-1.13-11.12.79-2.77 2.01-3.76 5.03-2.72 7.87 2.72 9.72 9.21 10.76 16.31.15.99.09 2.01.18 3.02.65 7.09-1.89 12-8.63 15.28-11.61 5.66-23.9 8.79-36.46 10.99-8.67 1.52-17.47 2.37-24.61 3.3z"/></g><path d="m385.2 377.6.6-.7c.6.4 1.3.9 1.9 1.5l-.6.7c-.8-.5-1.4-1-1.9-1.5zm.3 7.1c.6-1.4 1.1-2.9 1.5-4.5.3.1.6.3.9.4-.5 1.4-1 2.9-1.5 4.4zm.2-10.1.6-.6c.7.5 1.3 1.1 1.9 1.6l-.7.7c-.6-.6-1.2-1.2-1.8-1.7zm8.4-.8h.8v.9h1.8v.7h-1.8v1.8h-.8v-.3h-1.2v.9h3.3v2.6h-.8v-.4h-2.5c0 .3 0 .6-.1.8h3.4v.7h-3.5c0 .3-.1.6-.1.8h4v.7h-3.5c.7.9 1.9 1.3 3.6 1.5-.2.2-.4.5-.6.9-1.9-.3-3.2-1.1-3.8-2.3-.5 1.1-1.8 2-3.9 2.4-.2-.3-.4-.5-.6-.8 1.9-.4 3.1-.9 3.6-1.7h-3.2v-.7h3.5c.1-.2.1-.5.2-.8h-3.3v-.7h3.4c0-.2 0-.5 0-.8h-2.4v.3h-.8v-2.6h3.3v-.9h-1.2v.3h-.8v-1.8h-1.8v-.7h1.8v-.9h.8v.9h3.2zm-4.4 5.5h2.4c0-.3 0-.6 0-.9h-2.4zm1.2-3.1h3.2v-.8h-3.2zm4.4 2.2h-2.4v.9h2.5v-.9z" fill="#fcfbfa"/><path d="m389.2 385.8h.9v1.5h1.9v-1.5h.9v1.5h2.7v6h1.1v.9h-11.3v-.9h1.1v-6h2.7zm.2 8.7.5.8c-1.2.6-2.5 1.3-4 1.9-.2-.3-.3-.6-.6-.8 1.6-.6 3-1.3 4.1-1.9zm-2-4.3h1.9v-2.1h-1.9zm0 3.1h1.9v-2.2h-1.9zm2.7-3.1h1.9v-2.1h-1.9zm0 3.1h1.9v-2.2h-1.9zm2.4 1.3c1.4.6 2.7 1.2 4.1 1.8l-.5.9c-1.5-.7-2.8-1.4-4.1-1.9zm2.2-6.5h-1.9v2.1h1.9zm-1.9 5.2h1.9v-2.2h-1.9z" fill="#fcfbfa"/></svg>