<svg enable-background="new 0 0 400 400" viewBox="0 0 400 400" xmlns="http://www.w3.org/2000/svg"><g fill="#fbfafa"><path d="m37.59 393.81c-.92.31-1.52.05-2-.78-.7-1.2-1.52-2.34-2.47-3.78v4.59c-.55.03-.95.05-1.41.07-.03-.37-.06-.64-.06-.91 0-1.91 0-3.81 0-5.7 1.13-.41 1.77-.03 2.29.91.62 1.11 1.38 2.14 2.31 3.19v-4.2h1.35v6.61z"/><path d="m12.94 393.88v-6.75c1.9.19 3.93-.54 5.37 1.29.8 1.01.78 2.88.03 3.97-1.37 1.97-3.4 1.51-5.4 1.49m1.45-1.22c2.04.12 2.92-.58 2.89-2.21-.03-1.51-.98-2.19-2.89-2z"/><path d="m11.81 393.87h-5.49c.68-2.18 2.47-3.48 3.51-5.45h-3.08v-1.21h5.29c-.71 2.13-2.44 3.48-3.47 5.51.86 0 1.63.04 2.39-.01.79-.05 1.14.21.85 1.16"/><path d="m39.33 393.86v-6.61h3.7v1.07h-2.22v1.52c.68.04 1.34.09 2.07.13v1.07c-.72.05-1.38.09-2.1.14v1.48h2.4v1.19h-3.85z"/><path d="m27.71 388.56c-1.15-.3-2.46-.61-3.1.64-.37.73-.41 1.93-.06 2.67.63 1.35 1.99.93 3.17.68.35.94-.01 1.32-.93 1.46-1.62.25-3.05-.27-3.76-1.48-.73-1.24-.6-3.03.31-4.17.88-1.11 2.71-1.7 4-1.16.32.13.44.74.65 1.12-.1.08-.19.16-.28.24"/><path d="m49.15 387.24v1.07c-.59.02-1.17.05-1.87.08v5.44h-1.48v-5.44h-1.85c-.05-.4-.08-.73-.13-1.15z"/><path d="m20.06 387.21h1.33v6.62h-1.33z"/><path d="m30.68 393.25c-.49.38-.8.79-1.05.76-.32-.05-.6-.45-.9-.7.26-.24.51-.64.8-.67.29-.04.62.3 1.15.61"/></g><path d="m218.42 239.87c7.78 12.5 1.46 25.78 2.99 38.75 9.33.36 18.45.7 27.79 1.06 0-17.07 0-33.82 0-51.43-4.42 0-8.84.06-13.25-.01-12.19-.19-24.38-.36-36.57-.73-2.62-.08-5.29-.72-7.78-1.55-2.8-.94-4.06-3.31-4.33-6.23-.28-3.07 2.3-3.64 4.17-4.52 7.76-3.64 16.05-3.21 24.35-3.03 10.71.23 21.42.06 32.52.06.35-7.22.76-14.68.96-22.14.02-.61-1.3-1.62-2.15-1.85-4.64-1.23-9.35-2.22-14.01-3.38-9.53-2.37-16.65-7.63-20.9-16.76-6.81-14.62-8.97-30.17-9.51-46.01-.64-18.69-.67-37.39 1.97-55.98.48-3.38-.05-7.23 4.18-9.15 4.52-2.05 7.63-.95 9.38 3.68 2.44 6.44 2.07 13.15.84 19.57-2.94 15.26-2.46 30.51-1.23 45.83.83 10.4 2.4 20.63 5.95 30.52 2.78 7.73 7.94 12.48 15.99 14.16 2.72.57 5.39 1.35 8.71 2.19 0-5.17-.04-10.04.01-14.91.3-28.88.68-57.76.9-86.64.08-10.18-.38-20.37-.3-30.55.05-5.99 2.09-11.38 6.73-15.79 5.66 2.6 9.05 6.83 9.2 13.15.11 4.58-.26 9.17-.41 13.75-.19 5.93-.51 11.85-.52 17.78-.05 32.58-.02 65.17-.02 97.75v4.81c5.31-.97 10.21-1.79 15.07-2.82.84-.18 1.61-1.13 2.24-1.86 9.99-11.52 14.5-25.08 14.34-40.16-.19-17.35-.8-34.69-1.09-52.04-.06-3.79.03-7.69.86-11.35.54-2.4 2.05-5.08 3.96-6.55 3.29-2.51 6.62-1.3 8.04 2.58 1.14 3.11 2.11 6.41 2.38 9.69.83 10.14 1.21 20.31 1.91 30.46 1.63 23.62-2.98 46.3-10.16 68.61-5.73 6.14-10.99 13.01-19.26 15.84-4.61 1.58-9.63 1.93-14.43 3-.82.18-2.01 1.19-2.08 1.91-.67 7.23-1.14 14.48-1.73 22.52 5.18 0 10.07-.09 14.95.02 13.08.29 26.16.6 39.24 1.04 2.65.09 5.38.51 7.9 1.34 1.79.59 3.66 1.81 4.83 3.28 2.48 3.12 1.81 5.15-1.76 6.87-5.96 2.88-12.31 4.02-18.87 3.89-13.42-.26-26.84-.65-40.25-.98-1.32-.03-2.63 0-4.91 0 0 5.92.1 11.49-.02 17.06-.24 10.41-.59 20.81-.95 31.22-.06 1.61-.04 2.9 2.06 3 9.6.47 19.19.99 29.31 1.51 0-5.72.14-11.24-.04-16.74-.15-4.68-.98-9.36-.93-14.03.04-4.39 2.45-7.53 6.7-9.13 1.68-.63 3.11-.73 3.98 1.06 1.45 2.97 3.75 5.91 4.01 9.01 1.26 14.7 2.42 29.44 2.72 44.18.3 14.89-2.43 29.42-8.74 43.05-1.12 2.41-3.05 4.71-5.16 6.35-18.81 14.56-40 17.63-62.14 10.42-16.57-5.4-26.32-17.93-27.99-35.48-1.43-15.01-2.58-30.15-2.26-45.2.21-10.15 3.15-20.24 5.03-30.33.17-.9 1.38-1.89 2.33-2.29 1.57-.67 3.38-.9 5.25-1.35zm2.97 57.36c.36 12.74 1.69 24.82 9.28 35.33 2.08 2.88 4.31 5.3 8.07 5.93 2.85.48 5.61 1.54 8.46 2.01 11.15 1.85 22.3 2.67 32.76-2.87 4.82-2.55 9.79-5.18 11.67-10.92 1.63-4.99 3.24-9.98 4.6-15.05 1.24-4.61 1.23-9.27-.45-13.86-.76-2.08-1.87-2.81-4.2-2.71-10.94.47-21.89.71-32.84 1.03-12.26.36-24.54.73-37.35 1.11z" fill="#010105"/><path d="m91.87 246.13c3.32 8.45 5.12 17.02 5.1 25.75-.02 9.94-1.01 19.87-1.39 29.81-.14 3.67-.18 7.44.51 11.01 2.06 10.79 9.42 16.29 19.65 18.56 1.83.41 3.71.57 6.16.94 0-36.47 0-72.57 0-109.03-6.53 1.89-13.24 3.86-19.96 5.79-8.59 2.46-17.15 5.04-25.81 7.21-2.85.72-6 .52-8.99.36-2.3-.12-4.46-1.06-4.93-3.73-.48-2.68-.5-5.03 2.3-6.99 11.83-8.29 25.1-12.58 39.21-14.67 14.95-2.21 29.34-5.99 42.23-14.26 5.45-3.49 7.52-9.08 5.8-15.4-.35-1.29-.83-2.55-1.27-3.81-1.99-5.78-.65-11.2 4.04-15.13.73-.61 2.52-.78 3.34-.31 4.73 2.7 7.47 7.03 8.69 12.22 2.09 8.9 2.44 17.75-2.14 26.1-.7 1.27-1.92 2.47-3.2 3.16-6.9 3.69-13.92 7.15-20.81 10.86-1.03.55-2.18 2.04-2.2 3.11-.34 20.71-.51 41.42-.71 62.13-.01.65.1 1.3.19 2.28 5.93-.55 11.71-.98 17.44-1.72.91-.12 2.08-1.51 2.37-2.53 2.22-7.74 2.19-15.67 1.8-23.64-.29-5.8-.51-11.62-.26-17.41.15-3.64 1.62-7.04 5.4-8.63 2.05-.86 3.58-.72 4.78 1.78 8.89 18.47 8.68 37.35 2.9 56.53-.3.98-1.17 1.89-1.98 2.59-6.05 5.26-13.01 8.09-21.14 7.98-3.54-.05-7.08.33-11.04.53v33.86c2.77.33 5.75.9 8.73 1.01 12.05.43 22.33 5.17 31.37 12.82 5.97 5.05 11.94 10.13 17.53 15.59 1.85 1.81 3.07 4.71 3.63 7.32 1.16 5.39-3.94 9.24-9.08 7.02-1.69-.73-3.16-2.05-4.57-3.28-6.3-5.53-12.23-11.54-18.88-16.6-12.26-9.34-26.63-10.19-41.3-8.78-9.26.89-18.23.45-26.93-3.47-6.76-3.04-11.13-7.91-12.68-15.01-1.74-7.96-3.33-15.99-4.35-24.06-1.71-13.56-2.8-27.2-1.19-40.86.51-4.31 1.74-8.54 2.45-12.83.42-2.53 1.59-3.7 4.21-3.63 1.54.05 3.09-.32 4.98-.54z" fill="#010105"/><path d="m161.29 80.08c1.26 9.17-3.36 14.82-10.4 19.83-10.2 7.26-21.65 11.01-33.6 13.62-11.13 2.43-22.3 4.7-33.52 6.64-3.77.65-7.76.21-11.64.05-2.37-.1-3.58-1.38-3.97-3.98-.85-5.68-1.04-5.66 3.99-8.51 9.68-5.47 20.29-7.36 31.2-8.15 12.23-.88 24.14-3.06 35.34-8.39 7.59-3.61 10.94-10.82 8.22-18.85-1.07-3.15-2.73-6.1-4.16-9.13-3.13-6.62-3.66-13.25-.46-20.05 1.06-2.26 2.36-2.57 4.48-1.55 5.45 2.63 8.36 7.29 10.16 12.74 1.08 3.28 1.95 6.67 2.49 10.08.8 5.19 1.26 10.43 1.87 15.65z" fill="#010105"/><path d="m77.86 181.27c-1.72-.11-3.17-.21-4.62-.28-6.12-.29-6.04-.3-6.9-6.22-.29-1.99.42-3.04 1.96-4.11 9.71-6.76 20.71-9.81 32.25-11.29 11.51-1.47 22.63-4.11 32.58-10.45 6.97-4.44 8.83-8.48 7.36-16.64-1.11-6.18-1.06-12.18 1.54-18.06.85-1.92 1.85-2.18 3.61-1.57 5.04 1.74 7.99 5.43 8.95 10.44 1.86 9.74 1.26 19.36-2.63 28.61-.45 1.07-1.23 2.24-2.18 2.82-19.5 11.81-39.92 21.46-62.52 25.74-3.17.6-6.44.7-9.4 1.01z" fill="#010105"/></svg>