<svg enable-background="new 0 0 400 400" viewBox="0 0 400 400" xmlns="http://www.w3.org/2000/svg"><g fill="#fbfafa"><path d="m37.59 393.81c-.92.31-1.52.05-2-.78-.7-1.2-1.52-2.34-2.47-3.78v4.59c-.55.03-.95.05-1.41.07-.03-.37-.06-.64-.06-.91 0-1.91 0-3.81 0-5.7 1.13-.41 1.77-.03 2.29.91.62 1.11 1.38 2.14 2.31 3.19v-4.2h1.35v6.61z"/><path d="m12.94 393.88v-6.75c1.9.19 3.93-.54 5.37 1.29.8 1.01.78 2.88.03 3.97-1.37 1.97-3.4 1.51-5.4 1.49m1.45-1.22c2.04.12 2.92-.58 2.89-2.21-.03-1.51-.98-2.19-2.89-2z"/><path d="m11.81 393.87h-5.49c.68-2.18 2.47-3.48 3.51-5.45h-3.08v-1.21h5.29c-.71 2.13-2.44 3.48-3.47 5.51.86 0 1.63.04 2.39-.01.79-.05 1.14.21.85 1.16"/><path d="m39.33 393.86v-6.61h3.7v1.07h-2.22v1.52c.68.04 1.34.09 2.07.13v1.07c-.72.05-1.38.09-2.1.14v1.48h2.4v1.19h-3.85z"/><path d="m27.71 388.56c-1.15-.3-2.46-.61-3.1.64-.37.73-.41 1.93-.06 2.67.63 1.35 1.99.93 3.17.68.35.94-.01 1.32-.93 1.46-1.62.25-3.05-.27-3.76-1.48-.73-1.24-.6-3.03.31-4.17.88-1.11 2.71-1.7 4-1.16.32.13.44.74.65 1.12-.1.08-.19.16-.28.24"/><path d="m49.15 387.24v1.07c-.59.02-1.17.05-1.87.08v5.44h-1.48v-5.44h-1.85c-.05-.4-.08-.73-.13-1.15z"/><path d="m20.06 387.21h1.33v6.62h-1.33z"/><path d="m30.68 393.25c-.49.38-.8.79-1.05.76-.32-.05-.6-.45-.9-.7.26-.24.51-.64.8-.67.29-.04.62.3 1.15.61"/></g><path d="m214.04 184.07c.26-4.27.51-8.17.79-12.79-6.94-.22-13.7-.41-20.45-.66-3.79-.14-7.62-.08-11.36-.64-4.94-.74-7.8-3.87-7.51-7.93.08-1.13 1.21-2.95 2.11-3.12 6.22-1.19 12.48-2.23 18.78-2.9 4.99-.53 10.04-.49 15.07-.66 1.96-.07 2.61-.94 2.65-2.94.18-8.41.38-8.81-7.69-11.34-8.45-2.66-15.15-6.98-16.14-16.22-.63-5.87.45-11.97 1.1-17.93.22-2.03 1.59-3.91 2.27-5.91.69-2.01 1.87-2.41 3.86-1.89 5.51 1.43 7.47 4.39 6.78 10.08-.35 2.87-.52 5.81-.36 8.7.32 5.91 2.84 9.23 8.64 10.28 5.21.94 10.6.94 16.52 1.4.18-6.81.3-12.93.51-19.04.13-3.74.85-7.28 5.07-8.52 1.77-.52 3.7-.5 5.92-.76 1.56 9.34 3.05 18.34 4.64 27.84 4.42-.3 8.83-.59 13.23-.9 2.01-.14 4.03-.55 6.02-.41 3.28.23 5.17-1.4 5.88-4.26 1.13-4.53 2.19-9.1 2.76-13.72.76-6.16 2.67-8.87 7.64-9.95 1.94-.42 3.02.01 4.03 1.83 4.28 7.76 3.29 15.72 1.35 23.81-1.3 5.43-3.84 10.07-8.62 13.07-6.06 3.8-6.7 9.52-6.24 16.14 6.79 1.51 13.64 3.04 20.49 4.55 3.16.7 6.37 1.23 9.5 2.04 4.77 1.24 7.65 4.14 7.39 9.05-.33 6.18-.99 12.55-2.9 18.38-1.4 4.28-6.15 6.51-10.57 7.44-6.99 1.48-14.11 2.31-21.16 3.45-2.2.36-4.37.85-6.57 1.28-.1.62-.17 1.06-.25 1.48-.67 3.62.7 5.35 4.48 6.02 5.27.94 10.41 2.56 15.62 3.86 17.21 4.31 28.83 23.94 24.06 40.91-.61 2.15-1.9 4.27-3.37 5.99-3.55 4.17-7.39 8.09-11.24 12.25.5.89.93 1.77 1.45 2.59 6.06 9.66 11.99 19.41 18.26 28.94 4.04 6.15 8.86 11.79 12.79 18 2.16 3.41 3.57 7.43 4.67 11.36 1.3 4.64-3.13 8.44-7.71 6.57-2.33-.95-4.78-2.67-6.16-4.72-11.44-17.11-22.65-34.37-33.93-51.59-.66-1.01-1.36-2-2.35-3.45-3.14 6.79-3.57 13.37-2.27 20.16 1.41 7.38 4.81 13.9 8.73 20.2 6.74 10.84 13.03 21.91 17.44 33.94 1.09 2.97 2.44 6.34-.05 8.84-2.54 2.55-5.93 1-8.87-.05-1.21-.43-2.45-1.2-3.3-2.15-18.84-21.27-28.91-45.95-28.82-74.54.01-2.45.43-4.9.58-7.36.25-4.02 1.79-7.05 5.39-9.34 5.94-3.78 11.53-8.1 17.36-12.05 6.37-4.31 7.92-8.5 6.39-16.08-1.25-6.2-4.54-10.1-10.33-12.81-7.31-3.43-14.73-3.96-22.55-3.33-15.14 1.23-30.3 2.25-45.45 3.37-1.22.09-2.44.2-3.86.32-.29 1.49-.6 2.89-.82 4.31-1.04 6.47-1.01 6.44 5.29 8.65 7.77 2.73 15.76 2.68 23.86 2.41 7.36-.25 14.76-.03 22.11.44 2.54.16 5.11 1.49 7.47 2.67 3.18 1.6 3.5 8.21-1.16 9.23-2.81.62-5.68.93-8.54 1.26-1.09.12-2.23-.17-3.34-.16-6.51.1-7.57.69-8.22 7.07-.78 7.74-3.02 14.86-7.27 21.32-1.9 2.9-2.17 5.89-.97 8.92 4.65 11.72 9.15 23.51 14.33 35 1.73 3.83 5.52 6.69 8.06 10.22 4.58 6.36 7.81 13.29 7.78 21.81-2.52.49-5.1 1.22-7.71 1.39-1.06.07-2.42-.85-3.27-1.7-9.34-9.23-16.07-20.31-22.27-31.75-4.71-8.7-8.61-17.65-9.6-27.68-.42-4.26-6.12-8.06-10.29-7.2-.78.16-1.61 1.39-1.94 2.3-2.72 7.57-2.71 15.39.18 22.69 4.81 12.13 10.4 23.96 15.73 35.89 2.03 4.55 5.2 8.69 4.69 14.1-.24 2.52-.42 5.23-3.32 5.96-2.86.72-5.58.49-7.86-2.2-12.1-14.28-18.69-31.13-23.09-48.99-2.74-11.09-3.6-22.32-.65-33.52.43-1.64 1.7-3.4 3.09-4.38 5.81-4.1 12.05-7.12 19.37-7.76 2.01-.18 4.19-1.96 5.66-3.58 1.27-1.39 1.87-3.54 2.36-5.46 2.62-10.25 2.38-10.48-7.72-12.99-6.07-1.5-12.05-3.38-18.12-4.9-7.68-1.93-10.76-6.03-10.51-14.81.13-4.53 1.39-9.03 2.33-13.51.2-.95 1.02-2.03 1.86-2.55 4.07-2.52 8.14-5.06 12.41-7.22 2.46-1.25 3.55-2.94 3.49-5.52-.21-7.96.31-7.6-7.4-8.28-8.81-.78-17.05 1.77-24.87 5.64-1.06.52-1.97 1.77-2.5 2.89-4.09 8.74-4.77 18.08-4.68 27.54.32 32.78.91 65.56.83 98.34-.02 8.75-1.94 17.51-3.27 26.22-.34 2.24-1.61 4.39-2.71 6.44-1.53 2.82-3.81 4.04-7.24 3.41-3.12-.58-3.62-3.12-3.93-5.15-.64-4.26-1.47-8.84-.56-12.92 3.72-16.79 3.24-33.81 3.7-50.78.25-9.17.67-18.36.42-27.52-.17-6.57-1.53-13.1-1.99-19.67-1.26-18.17-1.41-36.27 5.75-53.53.69-1.67 1.87-3.33 3.25-4.48 8.96-7.49 19.83-9.92 31.04-11.29 3.4-.4 6.85-.52 10.62-.8zm17.74-13.96v13.29c7.66-.39 15.06-.76 22.96-1.16-.55-3.23-.57-6.02-1.58-8.4-.66-1.56-2.68-3.45-4.22-3.56-5.64-.42-11.34-.17-17.16-.17zm-1.15-14.36c8.42-.38 16.47-.73 24.47-1.09 0-3.47 0-6.44 0-9.73-8.27-.35-16.32-.7-24.47-1.04zm62.6 25.88c-.62-4.63-.89-9.21-5.76-10.15-5.26-1.02-10.73-.95-16.34-1.37-.35 4.85-.65 8.9-.97 13.26 7.88-.6 15.27-1.15 23.07-1.74zm-58.14 30.09c5.67-.98 11.03-1.9 16.85-2.9 0-2.08.11-3.97-.03-5.83-.18-2.35-1.29-4.18-3.88-4.23-5.12-.11-10.23-.03-15.7-.03.96 4.52 1.81 8.53 2.76 12.99z" fill="#010105"/><path d="m104.84 315.38c0-38.33 0-76.22 0-114.72-5.09 1.38-9.92 2.64-14.71 4.01-6.33 1.81-12.56 4.06-18.98 5.47-6.23 1.37-10.08-1.92-10.32-7.72-.08-1.98.67-2.9 2.37-3.8 11.65-6.17 24.15-9.91 36.87-13.05 10.86-2.68 20.82-7.31 30.04-13.65 4.56-3.14 6.51-7.27 5.66-12.64-.71-4.53-.08-8.75 2.66-12.41.65-.87 2.46-1.57 3.49-1.32 4.88 1.17 7.69 4.59 8.18 9.48.68 6.95.21 13.88-2.36 20.47-.52 1.33-1.63 2.68-2.84 3.44-7.58 4.74-15.32 9.23-22.88 14.01-1.14.72-2.27 2.55-2.27 3.86.09 24.61.35 49.23.58 73.84.01.75.16 1.51.28 2.6 4.47-.33 8.8-.56 13.09-1.06.82-.1 1.78-1.15 2.2-2 3.21-6.45 3.4-13.31 2.58-20.31-1.2-10.21-2.44-20.42-3.46-30.64-.24-2.4.12-4.94.63-7.32.33-1.55 1.15-3.24 2.28-4.31 3.28-3.11 6.4-2.52 8.5 1.43 4.4 8.27 5.92 17.29 6.64 26.48.96 12.41 1.23 24.81-1.47 37.08-1.98 9-7.35 13.71-16.55 14.53-3.77.34-7.57.56-11.3 1.16-.93.15-2.16 1.49-2.36 2.47-.49 2.39-.49 4.89-.63 7.34-.35 5.91-.68 11.83-1.04 18.12 1.82.53 3.6 1.04 5.37 1.57 6.31 1.91 12.66 3.67 18.9 5.77 9.15 3.08 14.37 10.32 14.7 19.93.09 2.43-2.29 4.71-4.93 4.08-2.54-.6-5.25-1.55-7.26-3.14-10.54-8.39-22.19-12.82-35.89-12.58-5.86.1-11.92-1.56-17.59-3.36-8.71-2.76-12.96-9.42-14.6-18.34-3.86-21.04-5.18-42.2-3.27-63.47.76-8.52 2.89-16.93 4.37-25.39.67-3.86 4.13-2.78 6.44-3.39.79-.21 2.59 1.37 3.12 2.51 4.33 9.34 4.22 19.28 3.73 29.28-.7 14.07-1.5 28.14-1.79 42.22-.09 4.5 1.21 9.05 2.07 13.54 1.19 6.14 5.6 8.7 11.75 9.93z" fill="#010105"/><path d="m278.16 53.52c3.82.28 8.98.33 14.03 1.09 8.65 1.29 14.42 6.2 16.66 14.82 2.69 10.35 2.94 20.79.12 31.11-.53 1.93-2.57 3.93-4.43 4.9-3.2 1.66-6.57-.26-7.83-3.81-2.88-8.13-2.88-8.13-11.57-8.13-8.05 0-16.1.08-24.15-.05-2.22-.04-3.18.65-3.58 2.83-.34 1.84-1.19 3.59-1.84 5.37-1.04 2.86-3.09 4.09-6.15 4.22-3.04.13-3.97-1.82-4.93-4.05-3.37-7.84-2.92-15.87-1.5-24.02 2.92-16.71 3.97-18.35 20.2-23.39 4.23-1.31 9.08-.61 14.97-.89zm-19.25 25.31c12.29-.37 24.02-.73 35.85-1.09-.42-4.69-2.5-7.44-6.36-8.39-2.67-.66-5.52-1.01-8.26-.89-6.32.28-12.62.95-18.93 1.42-1.87.14-2.44 1.1-2.33 2.87.12 1.86.03 3.74.03 6.08z" fill="#010105"/><path d="m212.91 97.42c-7.63 0-15.21.05-22.79-.02-3.91-.04-7.83-.21-11.73-.45-2.01-.13-3.07.4-3.37 2.6-.41 2.98-1.17 5.92-1.79 8.87-.6 2.89-2.34 4.41-5.33 4.63-2.87.21-4.57-.65-5.82-3.59-3.12-7.39-3.66-14.96-2.36-22.69 1.03-6.16 2.46-12.27 3.99-18.32.35-1.4 1.63-2.92 2.9-3.65 4.16-2.39 8.51-4.47 12.81-6.6.87-.43 1.88-.77 2.85-.81 9.87-.46 19.68-.01 29.38 1.99 6.75 1.39 10.93 5.56 13.24 11.97 2.88 8 1.89 16.1 1.05 24.23-.25 2.45-.58 4.89-.71 7.35-.17 3.31-2.42 4.53-5.12 4.58-2.62.05-5.46-.33-5.94-3.96-.21-1.66-.66-3.29-1.26-6.13zm-.96-15.81c-.12-5.54-2.11-8.21-6.4-8.86-9.85-1.51-19.52-.47-29.01 2.41v6.45z" fill="#010105"/><path d="m109.57 27.54c7.64.97 13.6 4.8 18.44 10.22 9.09 10.19 15.41 21.93 17.77 35.51.59 3.37.39 6.91.28 10.36-.08 2.63-1.16 4.82-3.38 6.58-15.55 12.31-32.66 21.58-52.17 25.6-5.53 1.14-11.49.17-17.72.17.24-3.46.24-6.47.78-9.39.18-.96 1.63-2.06 2.72-2.42 9.75-3.2 19.58-6.16 29.33-9.37 5.81-1.92 11.59-3.97 17.23-6.35 2.18-.92 4.06-2.76 5.81-4.45 3.59-3.47 5.44-7.23 2.93-12.48-1.64-3.44-3.16-6.67-5.82-9.56-4.61-5-8.95-10.32-12.9-15.86-3.9-5.44-5.73-11.57-3.3-18.56z" fill="#010105"/><path d="m133.34 101.08c8.09.57 12.34 4.71 12.92 12.39.13 1.78.21 3.56.27 5.35.32 8.38-3.28 14.27-10.54 18.66-14.64 8.85-29.87 16.23-46.76 19.39-5.17.97-10.65.36-15.98.43-1.9.02-2.66-.88-2.69-2.92-.09-5.88-.31-6.21 5.26-8.26 9.94-3.66 20.01-7 30.1-10.23 7.94-2.54 15.47-5.72 22.15-10.84 2.65-2.03 3.84-4.21 3.52-7.64-.5-5.44-.7-10.95 1.75-16.33z" fill="#010105"/><path d="m275.11 25.33c6.37 0 12.77-.29 19.12.11 4.06.25 8.1 1.34 12.06 2.4 2.66.72 3.72 2.92 3.78 5.69.06 2.66-1.59 3.6-3.7 4.46-8.02 3.28-16.49 4.28-24.98 4.02-11.48-.35-22.95-1.37-34.41-2.33-4.89-.41-7.56-6.54-4.87-10.7.37-.58 1.12-1.14 1.79-1.27 4.46-.86 8.93-1.99 13.44-2.29 5.9-.39 11.85-.09 17.77-.09z" fill="#010105"/><path d="m190.84 44.12c-8.46-.79-16.9-1.67-25.37-2.34-5.76-.45-8.16-4.93-6.25-9.57.49-1.2 1.85-2.67 3-2.86 5.93-.97 11.91-2.09 17.88-2.17 12.5-.17 25.01.26 37.52.53 1.43.03 2.87.47 4.26.87 2.5.72 5.57 5.75 4.79 8.18-.28.89-1.42 1.65-2.34 2.16-6.12 3.4-12.87 4.37-19.71 4.73-4.57.24-9.17.05-13.76.05 0 .13-.01.28-.02.42z" fill="#010105"/></svg>