<svg enable-background="new 0 0 400 400" viewBox="0 0 400 400" xmlns="http://www.w3.org/2000/svg"><g fill="#010103"><path d="m259.51 303.36c-3.9-.19-8.24-.5-12.58-.48-.66 0-1.79 1.46-1.89 2.34-2.33 19.2-4.57 38.42-6.79 57.63-.75 6.45-4.4 11.04-9.28 11.6-2.8.32-4.46-.18-4.98-3.61-1.63-10.83.07-21.4 1.76-32 1.85-11.58 3.66-23.18 5.56-34.75.36-2.19.06-3.91-1.85-5.26-1-.7-1.72-1.79-2.72-2.49-8.69-6.16-12.54-15.02-14.41-25.12-4.3-23.25-4.73-46.45.54-69.61.62-2.71 1.7-5.32 2.44-8.01 2.72-9.88 9.37-15.67 19.02-18.33 15.13-4.17 30.09-3.6 44.54 2.59 7.87 3.37 11.95 10.12 13.72 18.34 3.77 17.59 5.63 35.31 4.15 53.31-1.13 13.8-4.07 27.17-8.99 40.1-.37.97-1.19 1.88-2.01 2.56-1.81 1.49-3.6 3.13-5.67 4.16-5.28 2.62-6.33 6.52-5.61 12.21 1.71 13.42 2.47 26.95 4.05 40.39.7 5.96 2.41 11.81 3.69 17.7.93 4.28-.26 7.46-3.26 8.5-3.29 1.14-7.06-.53-8.93-3.82-4.99-8.77-6.72-18.43-7.55-28.28-1.06-13.02-1.93-26.05-2.95-39.67zm-33.95-75.11v24.55h56.84c0-8.16 0-16.14 0-24.55-19 0-37.76 0-56.84 0zm56.43-15.51c-.49-9.1-2.67-16.76-11.02-21.18-11.96-6.33-23.96-6.09-35.89.04-1.73.89-4.04 2.16-4.49 3.72-1.72 5.93-2.78 12.05-4.17 18.48 18.75-.36 37.01-.71 55.57-1.06zm-54.53 54.15c-1.68 7.53 2.39 15.85 8.89 18.69 13.11 5.72 25.48 3.21 37.58-3.24 4.32-2.3 5.92-6.23 7.08-10.46.74-2.7-.92-4.96-3.41-4.96-16.67-.05-33.33-.03-50.14-.03z"/><path d="m155.85 143.25c5.85 1.46 8.96 4.52 9.11 10.22.15 5.78-.15 11.64-.99 17.35-1.1 7.45-7.66 9.93-13.35 12.9-3.85 2.01-8.01 3.43-11.85 5.45-1.11.58-2.27 2.3-2.31 3.52-.67 24.27-1.18 48.55-1.73 72.99 5.7 2.85 11.25 1.53 16.92.05 3.46-.91 4.82-2.88 5.39-6.24 1.8-10.71.03-21.14-1.66-31.66-.81-5-.48-10.19-.42-15.29.02-1.35.78-2.81 1.52-4.02 3.22-5.28 6.36-5.23 9.2.12 4.4 8.29 5.72 17.34 6.34 26.55.76 11.22.59 22.4-2.42 33.31-.54 1.94-2.05 3.94-3.66 5.21-7.71 6.07-16.92 7.78-26.42 8.42-1.43.1-2.87.17-4.54.27v32.13c4.46.41 8.89.99 13.33 1.19 19.28.85 34.62 9.57 47.31 23.56 3.53 3.89 7.07 7.81 10.17 12.04 1.66 2.27 2.8 5.12 3.43 7.88.98 4.26-2.71 7.33-6.91 5.81-2.12-.77-4.23-2.04-5.83-3.62-5.02-4.95-9.8-10.14-14.67-15.24-9.41-9.86-20.87-15.12-34.53-15.52-7.49-.22-14.98-.54-22.47-.67-7.79-.13-15.27-1.57-22.68-4.02-9.49-3.13-13.61-10.4-15.65-19.32-3.88-16.94-3.81-34.2-3.67-51.44.11-12.88 1.06-25.68 4.03-38.3.95-4.05 3.9-3.77 6.48-4.37 2.78-.65 2.75 2.19 3.39 3.68 4.44 10.29 4.25 21.09 3.55 32.01-.86 13.5-1.75 27.01-1.78 40.53-.02 6.16 1.94 12.33 3.12 18.47.14.71.91 1.61 1.59 1.84 5.48 1.88 11 3.62 16.8 5.49.35-40.03.69-79.72 1.04-119.99-6.74 1.41-12.94 2.7-19.13 4.02-5.25 1.12-10.45 2.55-15.75 3.31-3.13.45-6.48.2-9.6-.39-1.67-.31-3.43-1.74-4.53-3.14-2.65-3.38-2.01-5.57 1.65-7.78 5.46-3.3 11.76-3.25 17.71-4.64 12.51-2.93 24.93-6.21 37.38-9.39 4.55-1.16 9.06-2.47 13.59-3.68 7.08-1.88 9.6-5.11 9.24-12.54-.27-5.72.26-11.17 3.48-16.09.2-.29.43-.54.78-.97z"/><path d="m250.52 26.93c5.45.76 7.88 2.95 8.61 8.03.41 2.86.47 5.79.55 8.69.77 27.06 1.21 54.13 2.42 81.16.46 10.33 7.04 17.85 15.6 23.01 8.59 5.19 17.69 9.55 26.58 14.23 4.84 2.55 9.89 4.75 14.53 7.63 2.12 1.32 4.01 3.65 5 5.96 1.51 3.53-.08 5.91-3.91 5.63-4.83-.35-10.03-.73-14.31-2.73-9.69-4.53-18.98-9.94-28.31-15.23-4.95-2.81-10.06-5.6-14.32-9.3-4.24-3.69-7.51-8.51-11.38-13.04-.68.59-1.33 1.13-1.96 1.69-13.99 12.42-29.12 23.1-47.04 29.04-4.88 1.62-10.31 1.65-15.5 2.2-1.72.18-3.66.04-3.96-2.53-.27-2.36-1.96-4.48 1.24-6.63 8.73-5.86 18.11-10.14 28.21-12.92 11.26-3.1 20.77-9.07 26.19-19.46 3.22-6.19 4.76-13.43 6.11-20.38 2.51-12.99.93-26.07-.23-39.12-1.33-14.95-.67-29.74 4.98-43.92.25-.63.55-1.22.9-2.01z"/><path d="m209.97 106.57c.45 7.22 3.61 10.71 9.66 11.52 2.11.28 4.27.34 6.3.91 1.63.46 3.51 1.17 4.54 2.4 3.12 3.69 2.28 7.1-2.17 9-8.18 3.49-16.21 1.65-23.55-2.17-2.41-1.26-3.5-5.27-4.95-8.15-5.81-11.52-7.8-23.99-8.48-36.67-.58-10.84-.9-21.71-.67-32.55.1-4.44 1.92-8.84 3.05-13.24.54-2.1 2.1-2.25 3.95-1.8 5.17 1.25 7.29 4.54 6.78 9.88-.38 3.88-.58 7.82-.31 11.7.33 4.71 1.82 6.56 6.47 7.09 4.48.5 9.07-.02 13.61-.16 1.22-.04 2.43-.43 3.65-.5 6.52-.34 9.83 2.78 10.18 9.69-7.13 3.51-14.64 5.13-22.66 4.33-6.94-.69-9.41 1.81-8.92 8.82.12 1.66.36 3.32.64 5.77 6.51.14 12.94.24 19.36.42 2.89.08 5.91-.12 8.63.66 1.93.55 3.97 2.19 5.05 3.91 2.27 3.63 1.09 6.44-3.06 7.35-4.23.92-8.59 1.46-12.92 1.72-4.64.29-9.31.07-14.18.07z"/><path d="m294.69 106.9c-6.26 0-12.38.09-18.5-.05-1.96-.05-4.03-.4-5.84-1.14-3-1.22-5.04-5.42-3.92-8.39.41-1.09 2.25-2.12 3.57-2.31 5.96-.87 11.96-1.61 17.96-2.06 9.76-.73 9.77-.62 9.74-10.3 0-1.2 0-2.41 0-4-6.8-.26-13.26-.46-19.72-.77-1.89-.09-3.83-.24-5.63-.77-4.06-1.21-6.04-6.45-3.72-9.85.52-.75 1.86-1.18 2.88-1.31 7.66-.91 15.32-1.9 23.01-2.46 3.07-.22 3.71-1.47 3.61-4.16-.16-4.46-.4-8.96.02-13.39.27-2.81 1.67-5.51 2.55-8.26.74-2.33 2.34-2.32 4.25-1.63 3.82 1.4 5.72 4.32 5.93 8.17.51 9.38 1 18.76 1.13 28.15.16 12.18.95 24.45-2.5 36.36-1.18 4.05-2.82 7.99-4.47 11.89-2.85 6.75-8.45 10.28-15.36 10.85-5.01.41-10.18-.64-15.22-1.38-.95-.14-2.36-1.89-2.34-2.88.03-2.31-2.13-5.44 1.3-6.83 3.36-1.35 6.92-2.67 10.47-2.97 6.47-.51 9.56-2.91 10.8-10.51z"/><path d="m79.14 109.09c-.27-2.85-.53-5.6-.81-8.63 10.34-2.59 20.53-4.99 30.64-7.71 10.88-2.92 21.7-6.1 32.51-9.27 1.69-.49 3.31-1.41 4.78-2.39 3.93-2.63 4.18-4.96 2.68-9.32-2.58-7.47-8.49-12.16-13.59-17.58-3.22-3.42-6.74-6.66-9.38-10.49-2.54-3.71-4.52-7.93-6.01-12.19-1.55-4.46 1.85-7.66 6.18-5.7 4.92 2.23 9.96 4.8 13.97 8.33 10.12 8.91 17.91 19.65 21.97 32.72.75 2.42 1.1 5.04 1.19 7.59.24 6.78-1.98 12.11-8.07 16.14-12.92 8.55-27.2 13.41-42.06 16.93-10.4 2.46-20.92 3.72-31.61 2.09-.76-.13-1.5-.33-2.39-.52z"/><path d="m152.27 97.15c6.65 1.18 10.66 4.95 11.28 11.28.44 4.42.28 8.93-.03 13.38-.45 6.43-4.37 10.59-9.53 14.09-10.5 7.13-22.41 10.42-34.51 13.26-10.98 2.58-21.96 5.16-33.02 7.34-3.87.76-7.97.45-11.96.44-3.42-.01-2.78-3.1-3.61-5.1s.11-2.96 1.66-4.05c10.75-7.58 22.97-10.7 35.81-12.02 12.7-1.3 24.85-4.31 35.79-11.25 4.56-2.89 6.54-6.91 5.77-12.2-.75-5.24.03-10.19 2.35-15.17z"/></g><path d="m385.2 377.6.6-.7c.6.4 1.3.9 1.9 1.5l-.6.7c-.8-.5-1.4-1-1.9-1.5zm.3 7.1c.6-1.4 1.1-2.9 1.5-4.5.3.1.6.3.9.4-.5 1.4-1 2.9-1.5 4.4zm.2-10.1.6-.6c.7.5 1.3 1.1 1.9 1.6l-.7.7c-.6-.6-1.2-1.2-1.8-1.7zm8.4-.8h.8v.9h1.8v.7h-1.8v1.8h-.8v-.3h-1.2v.9h3.3v2.6h-.8v-.4h-2.5c0 .3 0 .6-.1.8h3.4v.7h-3.5c0 .3-.1.6-.1.8h4v.7h-3.5c.7.9 1.9 1.3 3.6 1.5-.2.2-.4.5-.6.9-1.9-.3-3.2-1.1-3.8-2.3-.5 1.1-1.8 2-3.9 2.4-.2-.3-.4-.5-.6-.8 1.9-.4 3.1-.9 3.6-1.7h-3.2v-.7h3.5c.1-.2.1-.5.2-.8h-3.3v-.7h3.4c0-.2 0-.5 0-.8h-2.4v.3h-.8v-2.6h3.3v-.9h-1.2v.3h-.8v-1.8h-1.8v-.7h1.8v-.9h.8v.9h3.2zm-4.4 5.5h2.4c0-.3 0-.6 0-.9h-2.4zm1.2-3.1h3.2v-.8h-3.2zm4.4 2.2h-2.4v.9h2.5v-.9z" fill="#fcfbfa"/><path d="m389.2 385.8h.9v1.5h1.9v-1.5h.9v1.5h2.7v6h1.1v.9h-11.3v-.9h1.1v-6h2.7zm.2 8.7.5.8c-1.2.6-2.5 1.3-4 1.9-.2-.3-.3-.6-.6-.8 1.6-.6 3-1.3 4.1-1.9zm-2-4.3h1.9v-2.1h-1.9zm0 3.1h1.9v-2.2h-1.9zm2.7-3.1h1.9v-2.1h-1.9zm0 3.1h1.9v-2.2h-1.9zm2.4 1.3c1.4.6 2.7 1.2 4.1 1.8l-.5.9c-1.5-.7-2.8-1.4-4.1-1.9zm2.2-6.5h-1.9v2.1h1.9zm-1.9 5.2h1.9v-2.2h-1.9z" fill="#fcfbfa"/></svg>