<svg enable-background="new 0 0 400 400" viewBox="0 0 400 400" xmlns="http://www.w3.org/2000/svg"><g fill="#fbfafa"><path d="m37.59 393.81c-.92.31-1.52.05-2-.78-.7-1.2-1.52-2.34-2.47-3.78v4.59c-.55.03-.95.05-1.41.07-.03-.37-.06-.64-.06-.91 0-1.91 0-3.81 0-5.7 1.13-.41 1.77-.03 2.29.91.62 1.11 1.38 2.14 2.31 3.19v-4.2h1.35v6.61z"/><path d="m12.94 393.88v-6.75c1.9.19 3.93-.54 5.37 1.29.8 1.01.78 2.88.03 3.97-1.37 1.97-3.4 1.51-5.4 1.49m1.45-1.22c2.04.12 2.92-.58 2.89-2.21-.03-1.51-.98-2.19-2.89-2z"/><path d="m11.81 393.87h-5.49c.68-2.18 2.47-3.48 3.51-5.45h-3.08v-1.21h5.29c-.71 2.13-2.44 3.48-3.47 5.51.86 0 1.63.04 2.39-.01.79-.05 1.14.21.85 1.16"/><path d="m39.33 393.86v-6.61h3.7v1.07h-2.22v1.52c.68.04 1.34.09 2.07.13v1.07c-.72.05-1.38.09-2.1.14v1.48h2.4v1.19h-3.85z"/><path d="m27.71 388.56c-1.15-.3-2.46-.61-3.1.64-.37.73-.41 1.93-.06 2.67.63 1.35 1.99.93 3.17.68.35.94-.01 1.32-.93 1.46-1.62.25-3.05-.27-3.76-1.48-.73-1.24-.6-3.03.31-4.17.88-1.11 2.71-1.7 4-1.16.32.13.44.74.65 1.12-.1.08-.19.16-.28.24"/><path d="m49.15 387.24v1.07c-.59.02-1.17.05-1.87.08v5.44h-1.48v-5.44h-1.85c-.05-.4-.08-.73-.13-1.15z"/><path d="m20.06 387.21h1.33v6.62h-1.33z"/><path d="m30.68 393.25c-.49.38-.8.79-1.05.76-.32-.05-.6-.45-.9-.7.26-.24.51-.64.8-.67.29-.04.62.3 1.15.61"/></g><path d="m256.18 228.91c-1.1 9.8-2.28 18.89-3.12 28.01-1.05 11.4-3 22.61-6.66 33.48-2.44 7.25-2.95 14.63-1.91 22.19.45 3.29 2.54 5 5.32 5.73 2.84.75 4.76-.89 6.21-3.36 4.44-7.59 5.9-16.06 7.8-24.47 2.39-10.55 4.98-21.09 8.19-31.41 1.53-4.93 4.52-9.46 7.15-13.99 2.12-3.64 8.63-7.17 10.24-5.6 2.9 2.82 3.24 6.74 2.6 10.62-.25 1.51-.65 3.18-1.52 4.39-8.07 11.18-10.33 24.28-12.68 37.39-1.46 8.14-3.18 16.24-4.81 24.35-.17.87-.29 1.9-.82 2.52-5.02 5.79-10.5 11.17-17.85 13.81-6.16 2.21-14.2-.77-18.25-5.99-8.46-10.89-9.34-22.98-6.37-35.97 4.08-17.9 6.96-36.01 8.4-54.33.12-1.54.2-3.08.34-5.14-5.88 1.06-11.43 2.06-16.98 3.06-.55.1-1.09.26-1.64.36-6.45 1.14-7.28 1.73-6.9 8.39.33 5.78 1.33 11.55 2.48 17.23 4.33 21.37.99 42.08-5.03 62.58-2.17 7.39-4.55 14.73-7 22.03-1.55 4.64-4.72 7.46-9.83 7.84-2.15.16-3.52-.36-4.47-2.5-1.7-3.85-1.47-7.5.02-11.36 6.32-16.33 10.05-33.37 13.09-50.55 1.99-11.21.05-22.29-2.48-33.26-1.13-4.87-2.08-9.78-3.18-15.01-5.25 1.05-10.16 2.03-15.07 3.02-2.59.52-5.7 1.13-7-1.48-1.07-2.16-.75-5.1-.65-7.68.03-.7 1.38-1.55 2.29-1.97 4.78-2.19 9.56-4.38 14.44-6.31 2.18-.86 2.96-1.89 2.31-4.22-1.82-6.56-3.6-13.15-5.19-19.77-.75-3.12-1.36-6.34-1.46-9.54s1.86-5.16 5.15-5.54c3.11-.36 5.75.11 6.93 3.6 2.95 8.67 5.98 17.32 8.98 25.97.4 1.15.78 2.31 1.26 3.74 6.7-1 13.3-1.97 19.9-2.96 2.1-.31 4.19-.87 6.3-.93 2.96-.08 4.21-1.16 3.89-4.27-.37-3.52.85-7.96-.88-10.36-1.63-2.26-6.25-2.3-9.5-3.47-6.82-2.46-13.96-4.33-20.33-7.66-17.05-8.92-21.73-18.47-19.11-37.55.5-3.67 2.29-7.14 3.25-10.77.36-1.33.14-2.85.02-4.27-.06-.62-.49-1.25-.86-1.8-6.51-10.02-8.82-21.05-8.01-32.86.4-5.89-.49-11.45-3.38-16.79-6.39-11.85-3.99-23.59 1.12-35.16.22-.5.51-1.02.91-1.37 13.79-12.3 29.52-19.19 48.36-17.09 4.69.52 6.81 3.03 7.32 7.37.24 2.08-.31 3.35-2.46 3.94-9.58 2.6-19.06 5.6-28.72 7.84-11.76 2.72-16.14 7.73-15.98 19.79.03 2.42.37 4.84.64 8.03 2.13-.84 3.98-1.11 5.23-2.12 7.99-6.46 17.34-9.08 27.31-9.93 5.23-.45 10.49-.58 15.74-.85 3.29-.17 4.55 2.19 5.17 4.71.62 2.54-.02 4.5-3.13 5.57-11.09 3.82-22.07 7.97-33.09 12-1 .36-1.96.81-2.94 1.21.02.3.04.61.05.91 7.25.86 14.52 1.64 21.76 2.6 3.42.45 6.86.99 10.16 1.95 1.71.5 3.45 1.73 4.62 3.11 2.57 3.02 1.73 6.07-1.85 7.68-8.69 3.89-17.71 3.11-26.72 1.69-5.5-.87-10.94-2.08-17.28-3.31.54 3.21.67 6 1.51 8.55 1.75 5.3 3.96 10.45 5.83 15.71.81 2.28 2.43 1.48 3.86 1.32 9.11-1.03 18.22-2.15 27.34-3.16 16.06-1.78 31.94.07 47.8 2.4 2.99.44 5.95 1.08 8.94 1.41.88.1 2.41-.33 2.68-.94 3.6-8.2 7.37-16.39 6.07-25.75-.08-.54-.19-1.08-.41-2.33-5.42 1.35-10.77 2.38-15.92 4.05-8.24 2.66-16.57 3.92-25.1 2.41-2.49-.44-5.19-1.75-6.96-3.49-1.18-1.16-1.48-3.94-1.08-5.75.26-1.2 2.37-2.65 3.8-2.84 6.86-.87 13.78-1.36 20.67-1.97 4.97-.44 9.61-1.85 14.56-5.08-4.18-1.38-7.74-2.68-11.36-3.73-5.8-1.68-11.77-2.83-17.42-4.9-3.45-1.26-7.12-3.21-9.45-5.92-3.24-3.78-2.53-5.53 1.69-7.36 5.81-2.53 11.74-2.37 17.77-1.08 9.98 2.14 19.77 4.79 28.65 10.08.66.39 1.41.63 2.54 1.12.71-1.57 2.01-3.07 1.94-4.51-.26-6.13-1.48-11.93-7.16-15.71-7.69-5.13-16.23-7.84-25.26-9.39-2.84-.49-5.69-1.26-8.36-2.34-1.8-.73-3.56-1.99-4.84-3.46-3.51-4.02-2.68-6.75 2.27-8.52 6.91-2.46 13.86-2.11 20.77-.08 3.86 1.13 7.64 2.49 11.47 3.74 11.32 3.67 18.77 11.72 24.49 21.71 1.74 3.05 2.16 6.24 1.03 9.68-1.35 4.14-2.14 8.49-3.73 12.53-2.95 7.49-3.18 14.92-1.01 22.62 1.41 4.96 1.07 9.87-1 14.75-2.35 5.55-4.38 11.25-6.29 16.97-.39 1.17-.06 3.08.7 4.07 7.33 9.61 8.76 24.92 2.18 35.04-4.24 6.52-10.93 10.8-17.61 14.76-9.59 5.68-20.34 7.94-31.02 10.39-1.74.4-3.47.83-5.36 1.28v12.62c9.81.64 19.57 1.43 29.35 1.85 6.33.27 12.45 1 18.24 3.78 11.98 5.77 16.3 14.67 12.7 27.46-3.37 12-6.62 23.97-5.35 36.6 2.03 20.11 2.98 40.44 12.72 58.92 2.85 5.4 4.01 11.34 3.77 17.51-.09 2.15-.82 2.91-3.1 3.28-4.57.75-7.08-.69-9.45-4.83-9.47-16.52-14.24-34.42-16.68-53.07-.91-6.98-2.05-14.05-1.82-21.04.39-12.05 1.75-24.07 2.75-36.1.29-3.46.48-6.95 1.16-10.33.58-2.88-.65-4.27-3.06-4.92-3.55-.97-7.12-2.22-10.74-2.47-9.71-.67-19.43-.88-29.55-1.28zm3.48-65.46c.49.77.71 1.56 1.2 1.8 6.99 3.42 13.76 7.63 21.12 9.89 7.62 2.34 15.87-5.01 16.14-12.98.18-5.17-.43-10.12-4.72-13.71-.68-.57-2.15-1-2.83-.66-10.29 5.1-20.5 10.35-30.91 15.66zm-39.56-19.35c14.62 11.8 36.54 11.26 45.73-1.05-15.22.63-30.28-2.13-45.73 1.05zm43.26 39.28c-7.64-3.95-14.56-7.57-21.54-11.07-.75-.38-2.02-.4-2.76-.03-5.14 2.61-10.21 5.38-15.84 8.38 13.24 4.94 26.02 7.48 40.14 2.72zm-58.57-29.96c-2.01 6.17-3.08 11.97 1.19 17.37.53.67 2.06 1.36 2.64 1.07 4.74-2.34 9.37-4.92 14.52-7.69-6.37-3.73-12.22-7.16-18.35-10.75z" fill="#010105"/><path d="m116.12 319.52c.36-40.66.72-80.71 1.08-121.72-5.02.94-9.74 1.5-14.26 2.76-5.58 1.56-11 3.73-16.5 5.6-1.59.54-3.19 1.06-4.82 1.41-8.43 1.8-13.18-1.56-14.71-11.21 8.7-2.9 17.46-6.18 26.44-8.71 10.96-3.08 22.18-5.27 33.15-8.31 7.15-1.98 13.65-5.59 19.37-10.43 4.41-3.73 5.03-5.78 2.74-11.1-2.14-4.97-2.25-9.68.59-14.51 5.24.41 9.17 2.86 11.6 7.42 3.18 5.97 3.87 12.34 2.14 18.88-.75 2.84-2.25 5.09-4.97 6.8-8.15 5.11-16.13 10.49-24.08 15.92-.99.67-1.91 2.26-1.92 3.43-.11 24.52-.08 49.04-.06 73.57 0 .43.1.87.23 1.89 5.33-.93 10.67-1.43 15.69-2.96 1.72-.52 2.92-3.5 3.91-5.56 2.93-6.14 3.24-12.78 2.72-19.39-.62-7.91-1.61-15.79-2.54-23.67-.65-5.45 1.8-9.01 6.79-9.7 2.15-.3 3.5.33 4.55 2.39 3.46 6.77 5.57 13.93 6.21 21.45.99 11.7-.33 23.18-3.34 34.56-2.17 8.22-7.93 12.55-15.21 15.13-5.41 1.91-11.17 2.81-17.28 4.28-.12 2.28-.29 5.27-.45 8.26-.38 6.93-.7 13.86-1.15 20.79-.13 2.02.28 3.02 2.58 3.25 4.67.47 9.35 1.08 13.93 2.08 2.55.55 5.06 1.75 7.34 3.08 12.18 7.12 23.43 15.51 31.43 27.26 3.31 4.86 4.94 10.88 7.12 16.45.89 2.28.08 3.82-2.65 4.61-5.31 1.53-5.28 1.74-8.83-2.37-6.73-7.79-13.22-15.79-20.19-23.36-8.25-8.97-18.92-12.73-30.94-13.05-7.92-.21-15.98.38-23.74-.87-12.79-2.07-22.06-9-24.42-22.24-2.09-11.72-3.64-23.44-3.78-35.32-.21-17.69-.07-35.37 3.11-52.87 1.21-6.67 1.25-6.72 8.73-7.8 3.65 6.91 5.29 14.48 5.32 22.19.07 15.44-.53 30.88-.64 46.33-.05 6.48.19 12.98.76 19.43.53 6.02 2.87 10.93 9.62 12.5 3 .66 5.83 2.1 9.33 3.43z" fill="#010105"/><path d="m74.21 102.26c8.43-2.05 16.64-4.1 24.87-6.05 13.47-3.18 26.97-6.26 40.44-9.45 1.83-.43 3.67-1.06 5.35-1.89 4.37-2.18 5.27-4.78 4.19-9.46-.93-4.06-2.82-7.27-5.8-10.24-6.96-6.95-13.7-14.14-20.27-21.46-2.89-3.22-5.25-6.94-7.59-10.6-.56-.88-.51-2.64-.02-3.63 2.26-4.58 2.55-4.62 7.43-2.69 6.89 2.73 12.53 7.29 17.8 12.34 8.59 8.23 16.29 17.09 21.99 27.72 3.93 7.35 1.98 14-.51 20.87-.31.86-1.26 1.53-2.02 2.18-7.08 6.02-15.22 10.18-23.91 13.26-16.23 5.74-32.87 9.34-50.18 9.15-2.9-.03-5.81-.31-8.68-.73-.83-.12-2.03-1.03-2.19-1.77-.51-2.38-.61-4.84-.9-7.55z" fill="#010105"/><path d="m147.33 100.26c12.69 1.57 15.9 11.89 14.66 22.72-.62 5.42-3.27 9.27-8.37 11.98-19.99 10.64-40.69 19.04-63.52 20.68-5.39.39-10.88-.64-16.32-1.08-3.75-.31-3.05-3.65-3.58-5.89-.21-.88.91-2.54 1.87-3.14 9.69-6.1 20.6-8.42 31.77-9.67 13.17-1.46 26.07-3.78 38.02-9.96 3.06-1.59 4.7-3.33 4.66-7.07-.1-6.11.49-12.22.81-18.57z" fill="#010105"/></svg>