<svg enable-background="new 0 0 400 400" viewBox="0 0 400 400" xmlns="http://www.w3.org/2000/svg"><g fill="#fbfafa"><path d="m37.59 393.81c-.92.31-1.52.05-2-.78-.7-1.2-1.52-2.34-2.47-3.78v4.59c-.55.03-.95.05-1.41.07-.03-.37-.06-.64-.06-.91 0-1.91 0-3.81 0-5.7 1.13-.41 1.77-.03 2.29.91.62 1.11 1.38 2.14 2.31 3.19v-4.2h1.35v6.61z"/><path d="m12.94 393.88v-6.75c1.9.19 3.93-.54 5.37 1.29.8 1.01.78 2.88.03 3.97-1.37 1.97-3.4 1.51-5.4 1.49m1.45-1.22c2.04.12 2.92-.58 2.89-2.21-.03-1.51-.98-2.19-2.89-2z"/><path d="m11.81 393.87h-5.49c.68-2.18 2.47-3.48 3.51-5.45h-3.08v-1.21h5.29c-.71 2.13-2.44 3.48-3.47 5.51.86 0 1.63.04 2.39-.01.79-.05 1.14.21.85 1.16"/><path d="m39.33 393.86v-6.61h3.7v1.07h-2.22v1.52c.68.04 1.34.09 2.07.13v1.07c-.72.05-1.38.09-2.1.14v1.48h2.4v1.19h-3.85z"/><path d="m27.71 388.56c-1.15-.3-2.46-.61-3.1.64-.37.73-.41 1.93-.06 2.67.63 1.35 1.99.93 3.17.68.35.94-.01 1.32-.93 1.46-1.62.25-3.05-.27-3.76-1.48-.73-1.24-.6-3.03.31-4.17.88-1.11 2.71-1.7 4-1.16.32.13.44.74.65 1.12-.1.08-.19.16-.28.24"/><path d="m49.15 387.24v1.07c-.59.02-1.17.05-1.87.08v5.44h-1.48v-5.44h-1.85c-.05-.4-.08-.73-.13-1.15z"/><path d="m20.06 387.21h1.33v6.62h-1.33z"/><path d="m30.68 393.25c-.49.38-.8.79-1.05.76-.32-.05-.6-.45-.9-.7.26-.24.51-.64.8-.67.29-.04.62.3 1.15.61"/></g><path d="m177.6 239.87c0-8.91 0-17.28 0-26.42-7.01 0-13.9.05-20.79-.01-12.19-.12-24.37-.27-36.56-.51-2.11-.04-4.22-.48-6.3-.91-4.89-1.01-6.68-3.15-6.37-7.4.19-2.59 4.02-5.42 7.71-5.49 7.27-.13 14.55-.14 21.82-.19 21.48-.17 42.97-.79 64.44-.34 14.51.3 29.01 1.82 43.46 3.36 14.04 1.49 21.28 9.91 21.92 24.6.13 2.99-.33 6.02-.67 9.01-.56 4.94-3.38 8.13-7.67 10.61-10.92 6.32-22.7 8.39-35.12 8.13-17.99-.39-36.01-1.23-53.97-.61-8.3.29-16.64 3.09-24.68 5.63-6.54 2.07-9.48 12.24-5.87 17.89.39.6 1.17.99 1.83 1.38 5.62 3.35 11.81 4.85 18.24 4.99 9.5.2 19 .09 28.51-.02 15.79-.17 31.55.16 47.19 2.59 15.55 2.42 27.55 10.71 35.62 23.88 4.25 6.94 6.97 14.94 9.58 22.72 2.97 8.88 5.19 18.02 7.44 27.13.66 2.65.77 5.61.37 8.32-1.11 7.58-.22 5.96-7.15 6.82-2.12.26-3.13-.5-4.03-2.43-5.21-11.23-6.93-23.27-8.72-35.34-1.69-11.35-7.01-21.11-15.53-28.65-6.44-5.7-14.7-8.31-23.06-10.25-12.62-2.92-25.35-1.52-38.08-1.46-14.08.07-28.17-.47-42.23-1.29-4.33-.25-8.81-1.79-12.79-3.65-11.81-5.52-15.44-16.79-11.26-31.1 3.14-10.77 11.36-14.99 20.94-17.5 9.2-2.41 18.58-4.09 28.19-3.49 1.09.05 2.19 0 3.59 0zm15.32-.22c13 0 25.96.29 38.89-.14 5.62-.18 11.18-1.84 16.77-2.84 2.65-.47 3.63-2.08 3.58-4.74-.06-3.13.39-6.27.2-9.38-.08-1.31-.95-3.23-1.99-3.69-3.54-1.56-7.26-3.49-10.99-3.68-15.16-.77-30.35-.94-45.53-1.31-.17 0-.34.26-.92.72-.01 8.05-.01 16.41-.01 25.06z" fill="#010105"/><path d="m200.54 123.7c7.61.64 19.88 1.4 32.09 2.76 13.91 1.55 21.82 10.39 22.28 24.45.13 4.11-.21 8.28-.82 12.35-.27 1.79-1.65 3.46-2.72 5.06-.61.9-1.7 1.46-2.42 2.31-7.94 9.38-18.65 13.46-30.24 15.86-18.64 3.85-37 3.62-55.16-2.92-11.99-4.31-19.38-12.43-22.21-24.67-1.86-8.03-.07-15.85 4.25-22.51 3.12-4.82 8.9-6.88 14.42-8.61 11.69-3.68 23.78-3.69 40.53-4.08zm-.27 14.12c-.01.24-.03.47-.04.71-5.93 0-11.88-.24-17.79.06-8.04.4-16.1 1.1-23.45 4.87-1 .52-2.29 1.45-2.49 2.39-.75 3.48-1.72 7.1-1.4 10.56.26 2.87 1.51 7.12 3.56 8.08 7.74 3.61 15.82 6.81 24.1 8.84 6.19 1.51 12.88 1.41 19.34 1.27 11.31-.24 22.08-2.61 31.85-8.96 5.21-3.39 7.94-7.15 5.9-13.4-.17-.52-.15-1.11-.2-1.66-.71-7.8-1.3-8.49-9-10.46-.54-.14-1.09-.29-1.64-.33-9.58-.66-19.16-1.31-28.74-1.97z" fill="#010105"/><path d="m139.8 64.46c.35 5.8.7 11.6 1.05 17.4.33 5.64 2.34 10.62 5.76 15.08 2.32 3.01 4.95 5.84 6.83 9.11 1.96 3.41 3.8 7.13 4.57 10.93.92 4.58-2.77 7.02-7.18 5.45-6.38-2.27-9.79-7.71-13.14-12.9-9.54-14.76-13.1-31.14-12.05-48.58.49-8.15-1.06-15.53-7.26-21.43-2.54-2.42-4.55-5.21-4.62-8.99-.08-3.99 2.42-5.54 6.02-3.97 9.76 4.26 17.03 10.89 19.34 21.55 1.14 5.29.95 10.86 1.36 16.31-.24.01-.46.03-.68.04z" fill="#010105"/><path d="m169.77 25.67c12.29 4.07 19.72 12.44 22.26 24.76.91 4.4.23 9.12.42 13.69.24 5.8.57 11.6.98 17.39.63 8.96 5.4 15.92 11.1 22.37 3.31 3.75 6.16 7.66 6.34 12.95.17 5.1-2.48 7.33-7.31 5.53-2.25-.84-4.55-2.42-6.04-4.29-3.48-4.35-6.14-9.39-9.78-13.6-6.39-7.39-7.48-16.22-7.89-25.33-.29-6.25-.45-12.51-.54-18.76-.11-8.28-3.49-15.05-9-21.04-4.04-4.43-4.07-8.77-.54-13.67z" fill="#010105"/><path d="m253.97 62.67c.6 6.56 1.2 13.12 1.81 19.68.74 7.95 5.17 14.08 9.77 20.2 2.46 3.28 4.89 6.7 6.55 10.41 1.8 4.02.83 7.65-1.42 9.2-2.16 1.5-6.65.87-9.48-2.03-9.44-9.71-16.9-20.41-17.55-34.74-.44-9.59-1.84-19.13-2.53-28.71-.43-5.9-2.95-10.68-6.72-14.97-2.84-3.22-5.62-6.54-5.65-11.07-.01-1.4.81-3.18 1.86-4.08.74-.63 2.66-.45 3.78.02 14.38 5.99 20.23 17.33 20.07 32.37-.01 1.23 0 2.46 0 3.69-.16 0-.32.02-.49.03z" fill="#010105"/></svg>