<svg enable-background="new 0 0 400 400" viewBox="0 0 400 400" xmlns="http://www.w3.org/2000/svg"><g fill="#fbfafa"><path d="m37.59 393.81c-.92.31-1.52.05-2-.78-.7-1.2-1.52-2.34-2.47-3.78v4.59c-.55.03-.95.05-1.41.07-.03-.37-.06-.64-.06-.91 0-1.91 0-3.81 0-5.7 1.13-.41 1.77-.03 2.29.91.62 1.11 1.38 2.14 2.31 3.19v-4.2h1.35v6.61z"/><path d="m12.94 393.88v-6.75c1.9.19 3.93-.54 5.37 1.29.8 1.01.78 2.88.03 3.97-1.37 1.97-3.4 1.51-5.4 1.49m1.45-1.22c2.04.12 2.92-.58 2.89-2.21-.03-1.51-.98-2.19-2.89-2z"/><path d="m11.81 393.87h-5.49c.68-2.18 2.47-3.48 3.51-5.45h-3.08v-1.21h5.29c-.71 2.13-2.44 3.48-3.47 5.51.86 0 1.63.04 2.39-.01.79-.05 1.14.21.85 1.16"/><path d="m39.33 393.86v-6.61h3.7v1.07h-2.22v1.52c.68.04 1.34.09 2.07.13v1.07c-.72.05-1.38.09-2.1.14v1.48h2.4v1.19h-3.85z"/><path d="m27.71 388.56c-1.15-.3-2.46-.61-3.1.64-.37.73-.41 1.93-.06 2.67.63 1.35 1.99.93 3.17.68.35.94-.01 1.32-.93 1.46-1.62.25-3.05-.27-3.76-1.48-.73-1.24-.6-3.03.31-4.17.88-1.11 2.71-1.7 4-1.16.32.13.44.74.65 1.12-.1.08-.19.16-.28.24"/><path d="m49.15 387.24v1.07c-.59.02-1.17.05-1.87.08v5.44h-1.48v-5.44h-1.85c-.05-.4-.08-.73-.13-1.15z"/><path d="m20.06 387.21h1.33v6.62h-1.33z"/><path d="m30.68 393.25c-.49.38-.8.79-1.05.76-.32-.05-.6-.45-.9-.7.26-.24.51-.64.8-.67.29-.04.62.3 1.15.61"/></g><path d="m311.13 336.35c.21-19.03.41-38.11-3.24-56.85-1.48-7.58-4.63-14.87-7.35-22.17-2.67-7.16-8.39-11.26-15.19-14.23-9.82-4.29-20.12-5.71-30.73-5.85-5.79-.08-11.76.16-17.31-1.15-11.86-2.81-18.1-11.83-22.61-22.46-4.02-9.49-3.56-18.73.85-27.87.54-1.11 1.59-2.12 2.64-2.81 9.6-6.28 20.39-8.96 31.65-9.94 2.63-.23 3.54-1.04 3.55-3.82.02-11.86.23-23.72.56-35.57.06-2.32-.79-2.96-2.83-2.96-7.72.02-15.43.09-23.14-.04-3.88-.07-7.84-.16-11.62-.92-4.18-.84-6.88-3.73-7.21-8.16-.07-.94.86-2.49 1.72-2.87 5.09-2.27 10.18-3.7 16.09-3.3 17.17 1.16 34.4 1.4 51.6 2.27 6.57.33 13.17 1.08 19.65 2.19 9.31 1.6 16.17 10.51 17.99 21.43 1.89 11.35-1.59 21.95-3.65 32.76-.16.84-1.11 1.64-1.86 2.24-11.28 8.96-24.13 12.9-38.48 11.65-11.85-1.03-23.65-1.66-35.3 1.57-9.79 2.72-11.44 5.65-10.28 15.7.71 6.16 3.54 10.01 8.88 13 9.33 5.22 19.46 5.91 29.73 6.98 9.28.97 18.67 2.41 27.56 5.13 8.04 2.46 13.73 8.99 18.81 15.64 8.61 11.3 11.17 24.54 12.65 38.29 3.07 28.52 1.26 56.99-.16 85.48-.22 4.45-4.65 7.22-8.59 5.21-1.14-.58-2.38-2.19-2.46-3.39-.79-11.71-1.32-23.45-1.92-35.18zm-42.13-205.99v42.91c9.35.1 18.06.33 26.29-3.42 3.01-1.37 5.25-3.06 5.58-6.73.29-3.33 1.26-6.59 1.6-9.92 1.16-11.29-2.94-17.54-14.02-20.14-6.35-1.49-12.96-1.84-19.45-2.7z" fill="#010105"/><path d="m105.69 357.89c-1.14-5.88-.52-11.39 1.5-16.44 4.8-12.01 9.65-24.05 15.33-35.66 15.83-32.35 28.86-65.66 35.86-101.07 1.61-8.15 2.08-16.7 1.7-25.01-.42-9.17-5.32-16.87-11.14-23.88-4.35-5.23-8.99-10.29-12.72-15.95-4.77-7.24-6.25-15.65-6.83-24.25-.5-7.36-1.5-14.69-2.04-22.05-.19-2.59-1.59-2.77-3.53-2.76-11.62.05-23.24.22-34.85.04-4.32-.07-8.69-.67-12.91-1.59-3.39-.74-6.06-2.84-6.7-6.69-.3-1.78.15-2.82 1.95-3.65 5.34-2.46 10.7-3.83 16.74-3.78 33.57.27 67.14.17 100.71.25 2.33.01 4.75.1 6.97.71 1.74.48 3.53 1.54 4.78 2.84 3.27 3.37 2.81 6.19-1.18 8.46-5.29 3.02-11.13 4.04-17.11 3.92-12.18-.25-24.36-.71-36.54-1.08-1.21-.04-2.42 0-4.34 0 .33 5.65.52 10.96.99 16.25.49 5.46.49 11.12 2.07 16.27 2.31 7.55 4.32 15.38 10.68 21.13 17.92 16.19 23.6 36.66 19.64 59.96-4.43 26.05-12.6 50.84-24.95 74.34-5.43 10.34-9.04 21.63-13.75 32.37-6.42 14.63-13.07 29.15-19.74 43.67-.47 1.01-1.77 1.98-2.87 2.29-2.34.66-4.8.87-7.72 1.36z" fill="#010105"/><path d="m260.55 26.66c16.58.69 28.47 3.11 38.94 10.47 9.87 6.94 12.02 16.81 10.32 27.88-.79 5.15-2.57 10.15-3.93 15.21-.14.53-.36 1.12-.73 1.49-8.51 8.64-17.12 17.27-29.5 20.07-9.47 2.14-18.52-.8-27.72-2.76-9.63-2.06-15.39-8.43-20.64-15.85-4.46-6.31-7.41-13.23-6.35-21.01.92-6.82 2.78-13.52 4.38-20.24.26-1.06 1.28-2.04 2.14-2.85 10.53-9.75 23.31-12.64 33.09-12.41zm34.24 37.21c-.28-2.66-.42-5.35-.87-7.99-1.13-6.56-4.81-10.94-11.37-12.64-10.86-2.82-21.7-3.57-32.75-.57-7.85 2.13-12.83 5.96-14.13 14.65-1.99 13.33 4.6 24.48 17.42 28.25 12.87 3.79 24.64 2.86 35.01-6.66 4.51-4.14 7.17-8.79 6.69-15.04z" fill="#010105"/><path d="m134.64 25c13.2 0 26.41-.1 39.61.07 3.2.04 6.44.75 9.56 1.55 3.8.97 5.79 4.04 5.08 7.88-.26 1.4-1.38 3.32-2.57 3.76-3.51 1.29-7.21 2.6-10.89 2.74-13.28.52-26.57.64-39.86.76-12.29.11-24.59.28-36.88-.09-4.85-.15-9.68-1.56-14.46-2.65-4.29-.97-2.3-4.92-3.14-7.5-.78-2.37 1.37-2.53 2.81-3.26 5.52-2.79 11.31-3.62 17.5-3.46 11.07.3 22.16.08 33.24.08z" fill="#010105"/></svg>