<svg enable-background="new 0 0 400 400" viewBox="0 0 400 400" xmlns="http://www.w3.org/2000/svg"><g fill="#010103"><path d="m159.81 119.38c12.2-3.08 18.93-11.67 19.47-24.01.43-9.71 1.15-19.41 1.97-29.1.18-2.15.92-4.57 2.22-6.23 1.25-1.6 3.45-2.79 5.45-3.27.7-.17 2.6 2.18 2.99 3.63 1.51 5.69 3.48 11.44 3.74 17.24.55 12.52-1.64 24.83-6.81 36.29-4.3 9.54-11.25 16.58-22.06 18.82-2.51.52-4.98 1.25-7.89 1.99 0 4.62-.12 9.3.13 13.95.03.64 1.86 1.67 2.88 1.7 8.5.27 17.01.28 25.51.53 2.77.08 5.58.44 8.29 1.03 1.58.34 3.55 1.01 4.38 2.21 1.3 1.88 2.21 4.3 2.38 6.56.06.82-2.41 2.45-3.86 2.65-5.83.81-11.72 1.49-17.6 1.68-5.92.19-11.85-.25-17.78-.45-2.54-.08-3.81.69-3.76 3.63.08 5.36-.16 10.75-.55 16.1-.18 2.43.74 3.34 2.9 3.91 3.56.94 7.05 2.16 10.59 3.21 5.72 1.69 10.09 5.06 13.27 10.13 6.94 11.1 10.46 23.2 10.58 36.24.22 24.28.27 48.56.47 72.83.02 2.96-.92 5.08-3.82 5.84-3.09.81-5.74-.24-6.72-3.34-1.1-3.46-2.22-7.1-2.27-10.68-.22-16.22.09-32.45-.11-48.67-.15-11.64-1.02-23.23-4.6-34.46-2.3-7.23-5.65-13.33-13.79-15.29-1.81-.44-3.48-1.43-5.86-2.44 0 3.92.01 7.43 0 10.93-.17 46.68-.29 93.35-.59 140.03-.03 4.86-.7 9.82-1.84 14.55-.97 4-4.16 5.31-7.85 3.81-1.21-.49-2.68-1.93-2.85-3.1-1.04-7.16-2.43-14.37-2.44-21.56-.04-46.9.25-93.8.41-140.71.01-3.27-.97-3.99-4.1-3.27-3.36.78-6.05 2.3-8.16 5.28-7.2 10.16-10.98 21.35-11.43 33.79-.81 22.25-1.76 44.49-2.74 66.74-.27 6.13-3.14 8.9-7.74 8.05-2.03-.37-3.33-1.3-3.47-3.37-.48-7.12-1.3-14.25-1.25-21.36.12-16.22.53-32.45 1.13-48.66.45-12.17 2.95-23.97 8.38-34.98 4.5-9.12 11.6-15.35 21.5-18.14 6.12-1.73 6.19-1.69 6.76-7.86.46-5 .74-10.02 1.13-15.31-1.05-.13-1.89-.3-2.72-.33-13.64-.45-27.29-.83-40.92-1.39-1.95-.08-4.25-.5-5.69-1.65-1.54-1.22-2.6-3.37-3.24-5.33-.8-2.43 1.16-3.53 3.08-4.44 7.17-3.4 14.67-3.21 22.35-2.5 6.99.65 14.03.83 21.05.99 2.91.07 5.14-.97 4.9-4.71-.14-2.2.39-4.45.68-6.66.8-6.03.8-6.05-5.02-7.9-.75-.24-1.49-.5-2.26-.63-15.09-2.6-22.89-12.73-26.56-26.52-3.97-14.87-3.95-29.81.6-44.7 1.2-3.94 4.13-2.46 6.43-3.08 2.32-.63 2.46 1.31 2.98 2.7 3.62 9.72 4.63 19.74 3.57 30.04-.59 5.67-1.19 11.4 1.67 16.76 3.85 7.2 10.54 10.21 18.79 12.7 0-13.16-.02-25.79.01-38.42.03-13.77.11-27.53.15-41.3.01-4.69.85-9.18 3.86-12.91.69-.86 2.45-1.51 3.53-1.3 3.44.69 5.92 2.94 6.52 6.43.61 3.5.84 7.1.87 10.67.25 25.07.4 50.14.6 75.21.01.33.1.66.18 1.18z"/><path d="m301.5 374c-6.74 1.77-8.02 1.37-10.1-4.71-1.24-3.63-1.8-7.58-2.08-11.43-1.44-19.74-2.46-39.51-4.13-59.23-.72-8.51-3.48-16.78-8.2-23.91-4.24-6.4-11.28-9.39-18.59-11.14-3.99-.95-8.16-1.32-12.27-1.58-9.81-.62-18.65-3.32-25.68-10.66-2.73-2.85-4.56-6.05-5.11-9.94-1.02-7.23-1.71-14.45 1.48-21.41.56-1.21 1.08-2.49 1.31-3.8 1.13-6.5 5.88-8.8 11.53-9.92 10.66-2.1 10.81-2.04 11.06-12.72.21-8.94.04-17.88.04-27.44-3.54-.23-7.72-.54-11.91-.77-4.24-.24-8.5-.26-12.71-.69-1.57-.16-3.27-.94-4.54-1.92-3.78-2.9-3.09-7.32 1.15-9.21 4.23-1.89 8.5-3 13.22-3.02 17.38-.07 34.7.78 51.78 4.1 18.39 3.58 25.51 18.83 21.72 37.07-.16.76-.54 1.49-.64 2.25-1.65 12.22-10.43 17.63-20.9 20.25-7.72 1.93-15.9 2.04-23.88 2.85-6.79.69-13.59 1.32-20.39 1.77-2.36.16-3.72 1.31-4.61 3.23-2.8 5.99-1.9 12.01.18 17.93.31.88 1.79 1.55 2.87 1.91 12.7 4.33 25.31 8.96 38.18 12.7 7.51 2.18 12.28 6.95 16.25 13.03 7.11 10.88 10.74 23.08 12.78 35.73 3.07 19.03 4.8 38.18 3.52 57.49-.29 4.47-.89 8.89-1.33 13.19zm-45.56-170.82c9.22.46 17.75-.59 25.39-5.55 1.05-.68 2.21-1.71 2.58-2.82 1.09-3.26 2.13-6.61 2.62-10 .81-5.64-.24-10.76-5.82-13.81-7.69-4.2-16.07-4.78-24.77-4.85z"/><path d="m293.97 105.8c-1.06 5.22-1.3 10.8-3.35 15.6-4.94 11.61-14.81 17.4-26.89 18.82-9.28 1.09-18.12-2.05-26.77-5.24-.51-.19-.99-.54-1.38-.93-14.98-14.83-16.76-32.32-6.54-49.76.42-.71 1.22-1.38 1.99-1.67 6.45-2.47 12.82-5.32 19.47-7.07 3.25-.86 7.05.24 10.58.66 4.33.52 8.61 1.6 12.95 1.83 7.68.41 12.1 5.03 15.55 11.12 2.9 5.12 3.66 10.74 4.39 16.64zm-57.22.26c-.3 6.75 1.81 12.63 7.36 16.42 7.02 4.79 15.02 5.76 23.07 2.94 3.12-1.09 6.49-2.96 8.45-5.48 2.31-2.97 3.54-6.94 4.65-10.65 2.27-7.61-.04-12.41-7.25-15.8-7.35-3.45-15.29-4.8-23.18-3.9-4.02.46-7.75 3.61-11.55 5.65-.41.22-.52 1.19-.59 1.83-.36 3-.65 6-.96 8.99z"/></g><path d="m385.2 377.6.6-.7c.6.4 1.3.9 1.9 1.5l-.6.7c-.8-.5-1.4-1-1.9-1.5zm.3 7.1c.6-1.4 1.1-2.9 1.5-4.5.3.1.6.3.9.4-.5 1.4-1 2.9-1.5 4.4zm.2-10.1.6-.6c.7.5 1.3 1.1 1.9 1.6l-.7.7c-.6-.6-1.2-1.2-1.8-1.7zm8.4-.8h.8v.9h1.8v.7h-1.8v1.8h-.8v-.3h-1.2v.9h3.3v2.6h-.8v-.4h-2.5c0 .3 0 .6-.1.8h3.4v.7h-3.5c0 .3-.1.6-.1.8h4v.7h-3.5c.7.9 1.9 1.3 3.6 1.5-.2.2-.4.5-.6.9-1.9-.3-3.2-1.1-3.8-2.3-.5 1.1-1.8 2-3.9 2.4-.2-.3-.4-.5-.6-.8 1.9-.4 3.1-.9 3.6-1.7h-3.2v-.7h3.5c.1-.2.1-.5.2-.8h-3.3v-.7h3.4c0-.2 0-.5 0-.8h-2.4v.3h-.8v-2.6h3.3v-.9h-1.2v.3h-.8v-1.8h-1.8v-.7h1.8v-.9h.8v.9h3.2zm-4.4 5.5h2.4c0-.3 0-.6 0-.9h-2.4zm1.2-3.1h3.2v-.8h-3.2zm4.4 2.2h-2.4v.9h2.5v-.9z" fill="#fcfbfa"/><path d="m389.2 385.8h.9v1.5h1.9v-1.5h.9v1.5h2.7v6h1.1v.9h-11.3v-.9h1.1v-6h2.7zm.2 8.7.5.8c-1.2.6-2.5 1.3-4 1.9-.2-.3-.3-.6-.6-.8 1.6-.6 3-1.3 4.1-1.9zm-2-4.3h1.9v-2.1h-1.9zm0 3.1h1.9v-2.2h-1.9zm2.7-3.1h1.9v-2.1h-1.9zm0 3.1h1.9v-2.2h-1.9zm2.4 1.3c1.4.6 2.7 1.2 4.1 1.8l-.5.9c-1.5-.7-2.8-1.4-4.1-1.9zm2.2-6.5h-1.9v2.1h1.9zm-1.9 5.2h1.9v-2.2h-1.9z" fill="#fcfbfa"/></svg>