<svg enable-background="new 0 0 400 400" viewBox="0 0 400 400" xmlns="http://www.w3.org/2000/svg"><g fill="#010103"><path d="m161.67 257.43c-.5 10.94-.98 21.42-1.48 32.35 3.52.37 6.81 1.02 10.1 1.01 8.83-.04 17.66-.56 26.49-.51 4.65.03 9.37.51 13.92 1.47 3.99.85 6.87 3.53 7.82 8.08-7.22 4.12-15.03 6.34-23.05 6.46-16.75.25-33.52-.26-50.27-.47-9.5-.12-19-.07-28.49-.5-4.18-.19-8.33-1.31-12.47-2.15-2.61-.53-4.04-2.03-3.56-4.99.25-1.51.04-3.09.04-4.77 14.39-3.77 28.99.23 43.37-2.38.49-10.99.96-21.69 1.45-32.76-7.81 0-15.37.1-22.94-.04-4.67-.09-9.35-.39-13.98-.93-1.54-.18-3.15-1.2-4.4-2.24-4.53-3.78-3.73-8.86 1.59-11.12 6.93-2.94 14-1.83 21.15-1.13 5.06.49 10.21.09 15.32.03 2.06-.03 2.76-1.38 3.1-3.24 1.8-10.01 3.57-20.03 5.6-30 .42-2.06 1.5-4.25 2.92-5.79 4.71-5.11 10.75-7.87 17.61-8.9 2.2-.33 4.44-.65 6.56-1.28 7.02-2.08 11.21-8.2 10.77-15.5-.12-2.01-.52-4.06-.29-6.02.47-3.94-1.59-5.93-4.98-6.6-6.56-1.29-13.15-2.41-19.77-3.31-3.53-.48-7.15-.27-10.72-.53-2.17-.16-3.2.51-3.57 2.81-1.01 6.29-2.57 12.5-3.36 18.81-1.1 8.76-6 15.19-12.47 20.33-13.27 10.55-28.38 12.93-44.64 8.65-3.41-.9-1.95-4-2.64-6.12-.66-2.03.68-2.95 2.29-3.31 3.47-.76 6.97-1.41 10.48-1.95 4.3-.66 8.71-.81 12.92-1.81 13.94-3.3 19.92-11.69 22.55-25.21.59-3.05.69-6.23.63-9.34-.01-.87-1.27-2.32-2.13-2.46-3.96-.66-7.97-1-11.98-1.38-2.34-.22-4.71-.13-7.03-.44-5.58-.74-7.92-3.34-7.67-8.23.15-2.78 4.52-5.84 8.58-5.77 9.28.16 18.57.27 27.84.69 13.06.59 26.19.81 38.92 4.33 3.64 1.01 7.27 2.25 10.69 3.85 8.72 4.07 12.82 11.55 11.76 21.15-.38 3.44-1.28 6.82-1.66 10.25-1.2 10.87-8.23 15.93-17.97 18.47-3.56.93-7.1 1.98-10.61 3.09-7.55 2.38-11.52 7.79-12.44 15.46-.7 5.86-1.09 11.75-1.7 18.61 7.53 0 14.43-.06 21.33.01 9.37.1 18.76-.06 28.08.6 5.04.36 8.16 4 8.69 8.03.27 2.07-.18 3.41-2.5 4.29-7.95 3.01-16.13 3.26-24.46 2.74-7.81-.48-15.63-.81-23.45-1.08-1.83-.06-3.71.42-5.89.69z"/><path d="m247.52 174.91c0-13.6 0-27.23 0-41.55-8.01 0-15.9.07-23.78-.04-2.77-.04-5.72.01-8.23-.94-2.09-.79-4.18-2.68-5.31-4.64-2.09-3.63-1.08-4.8 2.62-6.75 8.18-4.3 16.89-2.43 25.37-2.42 10.73 0 21.47.48 32.17 1.2 6.11.41 12.16 1.66 18.22 2.67 7.78 1.29 12.77 6.28 15.91 13.07 3.92 8.47 5.12 17.31 2.02 26.41-1.12 3.28-2.31 6.55-3.07 9.92-.86 3.85-3.03 6.44-6.1 8.78-8.17 6.23-17.6 7.52-27.46 8.26-12.47.93-24.89 2.58-37.31 4.11-1.22.15-2.7 1.48-3.32 2.65-2.36 4.39-1.26 9.1-1.02 13.79.3 5.9 3.04 9.52 8.6 11.11 8.57 2.46 17.12 4.99 25.74 7.25 11.43 3 22.3 6.87 29.32 17.25 5.13 7.58 7.19 16.28 8.79 25.12 6.02 33.23 5.57 66.82 5.45 100.39-.01 2.04-.78 2.66-2.59 3.03-6.53 1.33-6.56 1.4-8.66-4.95-.56-1.68-.98-3.48-1.06-5.24-.9-20.67-1.87-41.34-2.51-62.02-.37-11.82-2.22-23.28-5.43-34.67-2.79-9.91-9.28-16.28-17.63-21.34-9.01-5.46-19.02-7.56-29.31-8.81-6.94-.84-13.59-2.87-17.85-8.74-2.55-3.51-4.46-7.74-5.67-11.93-3.1-10.71.76-20.73 4.1-30.69.27-.81 1.3-1.54 2.15-1.95 4.13-1.95 8.19-4.15 12.51-5.55 4.21-1.36 8.69-1.85 13.34-2.78zm13.68-41.98v43.12c10.01.39 19.3-1.23 27.69-6.61.87-.56 1.94-1.47 2.1-2.37 1-5.47 2.34-10.97 2.46-16.48.17-8.04-3.31-12.66-11.18-14.56-6.74-1.64-13.78-2.08-21.07-3.1z"/><path d="m187.17 53.96c-1.35-11.34-.39-19.35 4.26-26.76 1.45-2.31 3.23-2.62 4.9-1.27 1.9 1.53 4.14 3.57 4.61 5.74.93 4.29 1.19 8.86.94 13.26-.89 15.73-2.1 31.45-3.19 47.17-.66 9.58-3.12 18.72-6.98 27.47-.75 1.71-2.5 3.11-4.04 4.32-10.14 7.95-21.96 10.03-34.45 9.5-7.56-.32-14.79-2.08-21.75-5.06-3.3-1.41-5.8-3.54-7.83-6.51-5.71-8.33-8.37-17.67-9.71-27.54-2.18-16.14-3.09-32.48-8.41-48.12-1.15-3.39-.46-7.46-.35-11.21.11-3.85 3.79-3.23 6.03-4.1.82-.32 2.72.93 3.53 1.94 5.74 7.2 8.13 15.79 9.92 24.61.75 3.72 1.54 7.45 2.59 11.09.27.93 1.6 2.18 2.46 2.2 17.89.35 35.78.57 53.67.66.81 0 2.24-1.4 2.34-2.27.73-5.97 1.18-11.97 1.46-15.12zm-58.48 30.43c.39 9.56.64 18.58 4.32 27.11 1.28 2.96 2.97 5.03 6.45 5.38 5.77.59 11.51 1.65 17.29 2.07 6.79.5 13.31-.77 19.46-3.93 2.43-1.25 3.54-2.85 3.95-5.58 1.32-8.81 2.96-17.58 4.55-26.81-18.77.6-37.16 1.17-56.02 1.76z"/><path d="m296.48 64.9c-1.47 12.25-4.61 22.87-13.94 30.2-8.52 6.69-18.54 6.58-28.81 4.79-8.49-1.48-14.18-6.29-18.8-13.18-4.99-7.44-7.74-15.43-6.53-24.34.84-6.17 2.27-12.27 3.82-18.31.48-1.85 1.9-3.81 3.44-4.97 6.35-4.79 13.52-6.33 21.48-5.19 6.62.95 13.34 1.33 20.02 1.8 8.11.58 13.78 4.42 16.06 12.26 1.68 5.73 2.31 11.77 3.26 16.94zm-35.67-18.28c-5.09.7-9.32 1.13-13.47 1.92-3.03.57-5.06 2.26-5.7 5.68-1.74 9.18.16 17.46 5.15 25.26 4.08 6.38 9.91 8.84 17.16 7.92 5.89-.75 11.89-2.63 14.87-7.92 3.1-5.5 4.34-11.94 3.97-18.46-.32-5.63-3.1-9.63-8.43-11.29-4.65-1.45-9.51-2.21-13.55-3.11z"/></g><path d="m385.2 377.6.6-.7c.6.4 1.3.9 1.9 1.5l-.6.7c-.8-.5-1.4-1-1.9-1.5zm.3 7.1c.6-1.4 1.1-2.9 1.5-4.5.3.1.6.3.9.4-.5 1.4-1 2.9-1.5 4.4zm.2-10.1.6-.6c.7.5 1.3 1.1 1.9 1.6l-.7.7c-.6-.6-1.2-1.2-1.8-1.7zm8.4-.8h.8v.9h1.8v.7h-1.8v1.8h-.8v-.3h-1.2v.9h3.3v2.6h-.8v-.4h-2.5c0 .3 0 .6-.1.8h3.4v.7h-3.5c0 .3-.1.6-.1.8h4v.7h-3.5c.7.9 1.9 1.3 3.6 1.5-.2.2-.4.5-.6.9-1.9-.3-3.2-1.1-3.8-2.3-.5 1.1-1.8 2-3.9 2.4-.2-.3-.4-.5-.6-.8 1.9-.4 3.1-.9 3.6-1.7h-3.2v-.7h3.5c.1-.2.1-.5.2-.8h-3.3v-.7h3.4c0-.2 0-.5 0-.8h-2.4v.3h-.8v-2.6h3.3v-.9h-1.2v.3h-.8v-1.8h-1.8v-.7h1.8v-.9h.8v.9h3.2zm-4.4 5.5h2.4c0-.3 0-.6 0-.9h-2.4zm1.2-3.1h3.2v-.8h-3.2zm4.4 2.2h-2.4v.9h2.5v-.9z" fill="#fcfbfa"/><path d="m389.2 385.8h.9v1.5h1.9v-1.5h.9v1.5h2.7v6h1.1v.9h-11.3v-.9h1.1v-6h2.7zm.2 8.7.5.8c-1.2.6-2.5 1.3-4 1.9-.2-.3-.3-.6-.6-.8 1.6-.6 3-1.3 4.1-1.9zm-2-4.3h1.9v-2.1h-1.9zm0 3.1h1.9v-2.2h-1.9zm2.7-3.1h1.9v-2.1h-1.9zm0 3.1h1.9v-2.2h-1.9zm2.4 1.3c1.4.6 2.7 1.2 4.1 1.8l-.5.9c-1.5-.7-2.8-1.4-4.1-1.9zm2.2-6.5h-1.9v2.1h1.9zm-1.9 5.2h1.9v-2.2h-1.9z" fill="#fcfbfa"/></svg>