<svg enable-background="new 0 0 400 400" viewBox="0 0 400 400" xmlns="http://www.w3.org/2000/svg"><g fill="#010103"><path d="m150.63 206.82c-7.16 11.49-17.09 19.44-27.36 27.12-9.05 6.76-17.69 14.08-26.88 20.65-3.61 2.58-8.14 3.94-12.38 5.5-2.58.95-4.95.09-5.85-2.81-.84-2.71-1.37-5.45 1.44-7.58 9.27-7.04 18.53-14.08 27.74-21.19 7.15-5.53 14.66-10.69 21.19-16.89 7.4-7.04 11.67-16.22 14.44-26.41-5.85-1.04-11.42-2.08-17.01-3.03-11.66-1.97-20.36-10.26-22.9-21.93-1.73-7.93-.13-15.34 3.69-22.33.53-.96 1.7-1.73 2.74-2.23 5.55-2.64 11.02-5.53 16.78-7.61 3.36-1.21 7.21-1.08 10.85-1.49 1.32-.15 2.67-.15 4.16-.22.8-2.83 1.59-5.58 2.44-8.58-1.78-.66-3.33-1.21-4.87-1.82-8.71-3.43-13.51-10.28-15.41-18.99-1.67-7.62-2.49-15.44-3.39-23.21-.27-2.37-1.01-3.53-3.36-3.44-5.35.21-10.71.45-16.06.67-2.01.08-4.04.41-6.01.18-1.6-.18-3.31-.74-4.65-1.63-2.76-1.84-3.35-4.93-2.52-7.76.39-1.33 2.61-2.8 4.15-2.98 4.61-.55 9.3-.5 13.95-.66.33-.01.66.12.99.17 10.74 1.61 13.31-.58 14.06-11.26.4-5.67 1.27-11.31 2.15-16.92.27-1.71 1.28-3.29 1.91-4.86 7.25.45 10.79 4.95 9.92 12.3-.42 3.55-.85 7.1-1.2 10.66-.11 1.11-.02 2.24.08 3.35.43 5.01 1.05 5.55 6.08 5.55h25.86 3.94c.14-5.64.28-10.97.39-16.3.04-2.24-.18-4.49.03-6.71.49-5.3 3.56-8.22 10.1-9.06.89 4.44 2.09 8.93 2.61 13.5.43 3.76-.07 7.61.05 11.41.18 5.99 1.78 7.76 7.83 7.89 3.88.09 7.78-.58 11.67-.9 1.67-.14 3.35-.42 5.01-.34 4.59.23 8.27 4.05 8.19 8.61-.01.78-1.07 2.07-1.82 2.22-4.99.98-10.01 1.92-15.06 2.45-3.65.38-7.36.06-11.04.17-1.98.06-3.12.97-3.5 3.19-1.71 10.15-3.62 20.26-5.42 30.39-1.01 5.7-5.52 10.29-11.28 11.32-4.74.85-7.44 3.95-7.35 8.78.01.73 1.04 1.9 1.78 2.08 5.97 1.44 11.99 2.67 17.98 4.01 2.07.46 4.15.92 6.16 1.58 9.29 3.06 13.97 9.34 14.28 19.14.22 7.14-.69 14.07-4.14 20.47-.42.77-.82 1.77-1.51 2.14-7.54 3.98-14.35 9.68-23.54 9.77-2.33.02-4.65.68-6.99.82-2.72.17-3.85 1.7-3.63 4.15.19 2.08.71 4.15 1.28 6.17 2.79 9.88 10.34 16.08 17.85 22.02 11.49 9.09 23.41 17.64 35.13 26.42 2.15 1.61 4.27 3.24 6.37 4.91.7.55 1.33 1.2 1.9 1.89 2.07 2.51 2.73 6.54 1.42 8.45-1.24 1.82-6.05 3.18-8.66 1.91-4.21-2.04-8.37-4.26-12.26-6.83-18.13-12-33.42-27.28-48.81-42.44-1.11-1.12-2.24-2.18-3.73-3.6zm-15.16-135.97c0 6.88-.5 13.62.2 20.24.37 3.51 2.82 6.8 4.32 10.18 8.35 2.28 16.66 3.57 24.7-1.04.67-.39 1.44-1.24 1.52-1.95.97-9.08 1.82-18.18 2.71-27.44-11.39.01-22.52.01-33.45.01zm8.21 84.45c0-3.91-.1-7.83.04-11.74.07-2-.7-2.93-2.61-3-1.42-.05-2.91-.32-4.24.01-5.09 1.26-10.16 2.64-15.16 4.19-1.1.34-2.36 1.37-2.82 2.4-3.83 8.5-3.23 16.78 8.04 20.45 1.7.55 3.31 1.53 5.03 1.79 3.04.46 6.14.62 9.22.7 1.92.05 2.62-1.12 2.56-3.07-.15-3.9-.06-7.81-.06-11.73zm16.1-15.18v31c5.69-1.21 11.01-2.26 16.28-3.49 6.49-1.5 9.12-6.24 9.85-12.36.57-4.78-1.14-7.86-5.41-10.17-6.42-3.47-13.32-4.88-20.72-4.98z"/><path d="m302.89 319.15c1-9.85.8-23.38-2.23-36.7-1.46-6.41-3.1-12.9-5.75-18.87-3.3-7.42-9.94-11.84-17.55-14.04-5.42-1.56-11.18-2-16.82-2.73-10.03-1.29-18.27-5.63-24.37-13.81-.4-.54-1.06-1.07-1.12-1.65-.83-7.94-2.02-15.89-2.17-23.85-.07-4 1.94-8 2.7-12.06.51-2.71 1.91-4.5 4.31-5.49 5.36-2.22 10.74-4.4 16.17-6.41 2.7-1 3.99-2.29 3.96-5.52-.1-9.4.17-18.8.52-28.2.09-2.47-.86-3.12-3.01-3.21-7.71-.31-15.41-.63-23.11-1.08-2.21-.13-4.55-.35-6.55-1.19-1.86-.78-3.73-2.17-4.9-3.79-2.36-3.26-1.48-5.47 1.97-7.4 2.65-1.49 5.28-1.82 8.31-1.62 16.74 1.1 33.5 1.81 50.23 3.04 5.98.44 12 1.49 17.78 3.06 10.1 2.74 13.9 10.77 15.56 20.25 1.81 10.33-1.95 19.36-6.56 28.17-.48.91-1.53 1.57-2.42 2.19-8.38 5.82-18.07 7.59-27.89 8.65-8.89.96-17.82 1.54-26.75 2-2.74.14-4.47 1.16-5.55 3.46-3.39 7.28-2.31 14.63-.08 21.92.26.84 1.56 1.47 2.5 1.96 7.8 4.14 16.26 6.2 24.88 7.69 23.48 4.05 35.8 20.72 38.9 41.73 1.87 12.67 1.79 25.65 2.14 38.51.51 18.57.63 37.15.89 55.73.05 3.33-1.51 5.18-4.4 5.41-3.3.27-4.96-1.05-5.75-4.45-3.66-15.78-4.79-31.8-3.84-51.7zm-27.41-171.88v34.91c8.14.5 15.83-.15 22.81-4.4.97-.59 2.21-1.55 2.38-2.51.82-4.59 1.78-9.24 1.79-13.86.01-5.2-2.9-9.09-7.77-11.16-6.07-2.58-12.44-3.33-19.21-2.98z"/><path d="m147.78 295.52c0-7.94 0-15.17 0-23.27-3.28 0-6.47 0-9.67 0-6.6 0-13.2.13-19.8-.06-6.28-.18-10.1-2.83-11.35-7.12-.7-2.4-.36-4.41 2.09-5.21 3.76-1.23 7.61-2.68 11.5-2.94 8.02-.54 16.09-.47 24.14-.43 3.03.01 4.34-1.33 4.33-4.1-.01-3.22.06-6.49-.44-9.65-.94-5.9 1.39-10.49 5.2-14.56.5-.53 2.08-.68 2.75-.3 4.18 2.42 6.43 6.14 6.49 11.01.04 3.91-.34 7.83-.14 11.73.27 5.35 1.63 6.75 7 6.75 7.26 0 14.52-.47 21.78-.68 7.07-.2 11.22 2.2 13.03 7.18.73 2.02.41 3.22-1.53 4.36-5.66 3.31-11.76 4-18.13 3.57-5.35-.36-10.7-.68-16.06-.87-1.64-.06-3.3.36-5.23.59-.35 7.85-.69 15.52-1.04 23.4 7.2 1.63 14.18 1.34 21.19 1.11 8.47-.29 16.95-.27 25.43-.28 1.3 0 2.64.47 3.9.89 3.52 1.17 5.76 4.42 5.43 8.1-.07.81-.9 1.73-1.62 2.28-4.49 3.44-9.76 4.26-15.22 4.17-11.74-.18-23.48-.44-35.22-.67-22.36-.44-44.72-.9-67.08-1.32-6.27-.12-8.29-2.63-6.45-8.68.32-1.06 1.77-2.4 2.82-2.52 7.3-.84 14.63-1.65 21.96-1.96 9.92-.39 19.85-.36 29.94-.52z"/><path d="m267.66 55.23c10.15.45 18.94 1.25 27.26 4.63 11.3 4.6 15.56 11.83 13.37 23.84-1.1 6.01-3.16 11.85-4.87 17.74-.27.92-.87 1.83-1.56 2.51-14.43 14.31-32.86 16.52-50.7 8.19-.96-.45-1.78-1.33-2.52-2.15-8.65-9.61-10.61-20.89-8.11-33.21.64-3.17 1.73-6.25 2.39-9.42.63-3 2.33-5.01 5.01-6.27 6.67-3.14 13.29-6.49 19.73-5.86zm25.88 28.01c.23-7.74-1.95-11.28-9.45-12.62-6.54-1.17-13.32-1.61-19.96-1.35-3.05.12-6.35 2.27-8.84 4.35-1.19.99-.74 3.95-1.02 6.02-.31 2.33-.6 4.66-.9 6.98-.89 6.68 2.44 12.24 8.79 14.26 2.75.88 5.62 1.53 8.48 1.89 7.01.89 13.19-1.07 18.65-5.64 4.5-3.78 3.43-9.09 4.25-13.89z"/><path d="m179.29 186.12c4.55.39 8.72 1.86 11.5 5.1 8.41 9.82 19 16.42 30.42 22.01 3.97 1.95 6.64 7.09 5.59 9.85-.76 1.99-6.14 4.25-9.7 2.73-7.23-3.08-14.36-6.6-20.97-10.83-4.93-3.16-9.04-7.62-13.36-11.68-4.89-4.56-6.04-10.44-3.48-17.18z"/><path d="m84.23 225.27c-.87-.1-2.24-.12-3.52-.44-1.57-.39-3.62.14-4.01-2.58-.37-2.61-.4-4.39 2.27-6.12 12.95-8.38 25.75-16.99 38.52-25.65 2.27-1.54 4.36-2.13 6.8-.77 2.63 1.46 2.44 3.99 1.77 6.21-.71 2.36-1.57 5.14-3.31 6.64-7.01 6.04-14.25 11.86-21.69 17.36-4.75 3.51-10.4 5.09-16.83 5.35z"/></g><path d="m385.2 377.6.6-.7c.6.4 1.3.9 1.9 1.5l-.6.7c-.8-.5-1.4-1-1.9-1.5zm.3 7.1c.6-1.4 1.1-2.9 1.5-4.5.3.1.6.3.9.4-.5 1.4-1 2.9-1.5 4.4zm.2-10.1.6-.6c.7.5 1.3 1.1 1.9 1.6l-.7.7c-.6-.6-1.2-1.2-1.8-1.7zm8.4-.8h.8v.9h1.8v.7h-1.8v1.8h-.8v-.3h-1.2v.9h3.3v2.6h-.8v-.4h-2.5c0 .3 0 .6-.1.8h3.4v.7h-3.5c0 .3-.1.6-.1.8h4v.7h-3.5c.7.9 1.9 1.3 3.6 1.5-.2.2-.4.5-.6.9-1.9-.3-3.2-1.1-3.8-2.3-.5 1.1-1.8 2-3.9 2.4-.2-.3-.4-.5-.6-.8 1.9-.4 3.1-.9 3.6-1.7h-3.2v-.7h3.5c.1-.2.1-.5.2-.8h-3.3v-.7h3.4c0-.2 0-.5 0-.8h-2.4v.3h-.8v-2.6h3.3v-.9h-1.2v.3h-.8v-1.8h-1.8v-.7h1.8v-.9h.8v.9h3.2zm-4.4 5.5h2.4c0-.3 0-.6 0-.9h-2.4zm1.2-3.1h3.2v-.8h-3.2zm4.4 2.2h-2.4v.9h2.5v-.9z" fill="#fcfbfa"/><path d="m389.2 385.8h.9v1.5h1.9v-1.5h.9v1.5h2.7v6h1.1v.9h-11.3v-.9h1.1v-6h2.7zm.2 8.7.5.8c-1.2.6-2.5 1.3-4 1.9-.2-.3-.3-.6-.6-.8 1.6-.6 3-1.3 4.1-1.9zm-2-4.3h1.9v-2.1h-1.9zm0 3.1h1.9v-2.2h-1.9zm2.7-3.1h1.9v-2.1h-1.9zm0 3.1h1.9v-2.2h-1.9zm2.4 1.3c1.4.6 2.7 1.2 4.1 1.8l-.5.9c-1.5-.7-2.8-1.4-4.1-1.9zm2.2-6.5h-1.9v2.1h1.9zm-1.9 5.2h1.9v-2.2h-1.9z" fill="#fcfbfa"/></svg>