<svg enable-background="new 0 0 400 400" viewBox="0 0 400 400" xmlns="http://www.w3.org/2000/svg"><g fill="#010103"><path d="m112.23 309.6c0-5.97.09-11.66-.11-17.34-.03-.79-1.36-1.8-2.3-2.23-3.75-1.73-7.67-3.09-11.37-4.91-8.71-4.32-12.9-11.59-12.53-21.19.23-5.9 1.04-11.79 1.95-17.63.54-3.45 3.52-4.16 6.55-4.62 2.97-.46 4.2 1.27 4.49 3.62.7 5.6 1.5 11.24 1.52 16.87.03 7.7 3.03 12 10.91 13.87.13-.62.36-1.24.39-1.86.52-11.52 1.07-23.03 1.45-34.55.04-1.14-.7-2.99-1.57-3.36-11.44-4.77-15.28-14.35-16.5-25.6-.4-3.67-.52-7.37-.55-11.06-.02-1.81-.66-2.82-2.41-2.9-4.12-.18-8.26-.06-12.36-.46-1.96-.19-4.37-.79-5.62-2.11-3.01-3.19-1.65-6.96 2.33-8.71 4.92-2.17 9.95-2.87 15.31-2.8 18.58.21 37.17.03 55.76.28 3.11.04 6.4 1.15 9.22 2.54 1.36.67 2.55 3.15 2.54 4.8-.01 2.19-.78 4.59-3.98 4.89-2.54.24-4.99 1.24-7.53 1.63-2.01.3-2.82 1.14-3.01 3.21-.57 6.01-1.24 12.02-2.16 17.99-.29 1.9-1.25 3.79-2.27 5.46-3.31 5.38-6.16 11.24-12.79 13.57-.64.22-1.26 1.56-1.25 2.37.14 11.53.38 23.05.61 34.58.01.32.17.63.36 1.31 2.6-.46 5.25-.74 7.76-1.48.89-.26 1.92-1.61 2.05-2.58.77-5.63 1.26-11.3 1.9-16.95.28-2.54.24-5.24 1.15-7.55.7-1.78 2.38-3.58 4.1-4.46 3.12-1.59 5.09-.63 6.65 2.56 4.57 9.35 3.19 18.84 1.03 28.51-1.59 7.11-5.48 11.36-12.51 13.05-3.25.78-6.44 1.91-9.54 3.16-.97.39-2.16 1.66-2.23 2.6-.37 4.91-.49 9.84-.46 14.76.01.75 1.21 2.05 1.98 2.14 3.32.41 6.69.4 10.03.68 1.99.17 2.83-.59 3.03-2.56.27-2.78.7-5.54 1.18-8.29.52-3 3.99-5.63 6.84-5.04.75.16 1.5 1.15 1.93 1.93 6.26 11.49 6.42 23.77 4.48 36.26-.58 3.75-1.68 7.41-2.39 11.14-1.12 5.92-4.71 9.81-9.63 13-8.95 5.81-18.78 7.21-28.97 5.72-6.7-.98-13.26-3.02-19.81-4.86-1.57-.44-3.15-1.7-4.21-3-6.3-7.75-8.87-16.93-9.68-26.69-.79-9.44-.15-18.75 2.35-27.94.78-2.87 2.81-3.84 5.09-4.04 2.33-.2 5.09-.22 6.09 2.86.99 3.05 1.79 6.18 2.97 9.15.38.96 1.67 2.11 2.62 2.19 3.32.24 6.68.07 11.12.07zm-14.45 12.93c-1.17 7.54-.28 14.48 3.51 20.88.62 1.04 1.83 1.95 2.98 2.43 8.67 3.6 17.59 4.01 26.53 1.34 2.82-.84 6.55-2 7.76-4.18 2.93-5.3 4.99-11.2 4.45-17.55-.18-2.13-1.36-2.99-3.6-2.96-7.37.11-14.74.04-22.12.04-6.45 0-12.92 0-19.51 0zm11.19-115.96c.38 2.86.47 5.79 1.2 8.57 2.07 7.94 7.03 9.59 14.57 6.8 1.62-.6 3.76-1.99 4.12-3.41 1.21-4.83 1.95-9.8 2.43-14.77.29-2.96-1.34-5.14-4.52-5.66-2.41-.4-4.85-.99-7.27-.97-11.23.04-9.79-1.58-10.53 9.44z"/><path d="m183.1 290.47c2.11 4.7 4.45 9.33 3.92 14.91-.1 1.06 1.61 3.04 2.79 3.32 3.18.77 6.53.85 10.28 1.25.22-6.3.51-11.97.52-17.64 0-.77-1.3-1.79-2.22-2.26-4.57-2.32-9.45-4.12-13.77-6.81-8.08-5.03-11.17-12.88-10.57-22.12.27-4.21 1.11-8.42 2.06-12.55 1.46-6.3 1.59-6.27 9.35-7.31.99 5.59 2.05 11.23 2.94 16.89.29 1.86.09 3.8.22 5.7.5 6.83 4.04 10.47 11.87 11.38 0-5.39-.03-10.7.01-16 .05-6.27.04-12.54.28-18.8.09-2.25-.6-3.6-2.68-4.33-10.75-3.78-15.5-11.62-15.81-22.77-.11-3.99-1.32-7.94-1.74-11.94-.21-1.94-1.09-2.81-2.81-3.11-3.08-.53-6.17-1.01-9.25-1.54-2.28-.39-4.51-.88-4.76-3.8-.24-2.87 1.76-6.21 4.34-6.65 4.92-.84 9.89-1.9 14.85-1.96 16.45-.18 32.91 0 49.36.17 2.77.03 5.62.4 8.26 1.19 1.69.5 3.43 1.76 4.5 3.17 2.44 3.21 1.79 4.9-1.94 6.31-2.72 1.03-5.37 2.34-8.17 3-3.45.81-4.4 2.95-4.77 6.13-.66 5.66-1.71 11.27-2.54 16.91-.64 4.34-2.53 7.94-6.41 10.1-4.59 2.56-6.15 6.1-5.97 11.44.33 9.6-.23 19.24-.42 28.86-.02.88 0 1.75 0 2.55.43.15.64.3.83.28 8.38-.73 9.21-1.36 10.44-9.71.7-4.75.82-9.57 1.38-14.34.46-3.9 2.31-6.93 6.09-8.59 1.72-.75 2.73-.56 3.82 1.17 7.8 12.39 5.31 27.66-2 37.94-2 2.81-6.16 4.25-9.54 5.85-3.41 1.61-8.5 1.66-10.26 4.2-1.86 2.69-.7 7.5-.81 11.38-.06 2.1-.01 4.19-.01 6.45 1.22.12 2.09.26 2.95.27 4.67.02 9.33.01 14.48.01.36-4.27.66-8.82 1.13-13.34.42-4 2.37-5.8 6.2-5.23 1.44.21 3.21 1.55 3.9 2.86 3.84 7.33 5.18 15.34 4.28 23.44-.9 8.18-2.47 16.32-4.32 24.34-2.19 9.46-9.79 13.95-17.85 17.73-6.43 3.01-13.16 2.38-19.76.95-6.54-1.41-12.99-3.27-19.39-5.24-1.77-.55-3.54-1.92-4.72-3.39-5.49-6.82-8.3-14.83-9.03-23.45-.85-10.06-.28-20.07 1.68-30.05.99-4.99 3.28-7.44 8.79-7.22zm4.43 32.06c.35 4.26.33 8.08 1.05 11.76 1.03 5.3 3.53 9.9 9.49 10.76 5.92.86 11.97 1.85 17.88 1.51 10.38-.61 18.2-10.81 16.87-21.12-.14-1.06-1.53-2.78-2.35-2.79-14.06-.17-28.13-.12-42.94-.12zm9.31-124.11c-.72 7.3-1.51 13.56.81 19.79 1.51 4.04 4.83 4.65 8.28 4.94 3.65.31 7.55-.89 8.86-4.13 1.74-4.33 2.18-9.23 2.8-13.94.31-2.33-1.27-4.23-3.58-4.58-5.65-.87-11.36-1.4-17.17-2.08z"/><path d="m123.17 24.88c2.94 1.73 5.98 2.97 8.32 5.03 3.42 3.01 6.69 6.33 9.38 10 8.41 11.45 15.6 23.62 20.68 37.93 4.06-7.82 7.76-15.05 11.56-22.23 3.5-6.6 6.83-13.32 10.76-19.66 2.86-4.61 7.13-7.94 12.36-9.92 2.32-.88 3.47-.25 4.41 1.9 2.11 4.85.23 8.96-2.25 12.94-4.21 6.73-8.5 13.42-12.74 20.13-.53.84-1 1.72-2.13 3.66 6.82 0 12.9.01 18.98 0 4.79-.02 9.62-.46 14.37-.01 5.86.55 8.79 3.79 9.63 9.54-6.18 4-13.09 5.5-20.37 5.25-8.82-.3-17.62-.93-26.44-1.27-.87-.03-2.27.83-2.59 1.62-1.85 4.55-3.44 9.2-5.44 14.67 6.7.16 12.98.37 19.26.43 5.25.05 10.52-.37 15.75-.05 4.65.28 8.69 2.13 10.64 6.91.7 1.71.43 2.77-1.36 3.73-6.14 3.31-12.73 3.83-19.52 3.74-9.03-.12-18.05-.03-27.33-.03-.3 4.73-.56 8.82-.86 13.43 3.94.19 7.58.5 11.23.5 10.63.01 21.26-.24 31.88-.12 4.07.05 8.01 1.2 10.85 4.49 3.14 3.64 2.67 6.78-1.84 7.97-5.34 1.41-10.93 2.44-16.44 2.52-10.28.14-20.57-.42-30.85-.91-2.74-.13-4.08.99-4.25 3.39-.45 6.45-.73 12.91-1 19.36-.13 3.01.4 6.14-.25 9.01-.55 2.44-1.89 5.15-3.73 6.74-3.22 2.79-6.73 1.53-8.22-2.37-2.29-6.01-2.26-12.22-1.72-18.53.39-4.55.37-9.13.41-13.71.02-2.21-.93-3.28-3.48-3.26-11.62.11-23.25.17-34.87-.1-4.54-.1-9.12-.84-13.57-1.8-3.04-.66-5.35-2.67-6.07-6.05-.44-2.07-.03-3.24 2.2-4 7.68-2.59 15.52-3.01 23.52-2.53 7.92.48 15.85 1.01 23.78 1.06 6.81.04 6.82-.24 7.29-6.98.17-2.44.3-4.88.49-7.92-5.78-.15-11.32-.38-16.86-.42-8.04-.06-16.09.16-24.13-.04-2.26-.06-4.74-.76-6.68-1.9-1.79-1.05-3.39-2.89-4.37-4.75-1.14-2.16-.78-3.97 2.28-4.95 8.78-2.79 17.66-2.06 26.61-1.62 5.67.28 11.37-.02 17.05-.14 1.95-.04 2.67-.94 2.21-3.06-.87-4.03-1.42-8.12-2.14-12.38-6.18 0-12.1 0-18.03 0-8.06 0-16.13.19-24.18-.11-2.64-.1-5.59-.95-7.72-2.43-1.29-.89-1.69-3.63-1.78-5.57-.1-2.22 1.72-3.21 3.82-3.42 6.88-.69 13.76-1.53 20.65-1.97 6.53-.42 13.09-.41 20.45-.61-2.91-4.53-5.3-8.39-7.84-12.14-2.69-3.99-5.59-7.84-8.26-11.84-3.41-5.12-4.53-10.56-1.51-17.15z"/><path d="m316.98 373.31c-3.08.62-5.79 1.16-9.34 1.87-.88-4.06-2.22-7.89-2.44-11.78-.6-10.82-.99-21.67-.98-32.51.02-12.19.64-24.38.86-36.57.2-11.03-.86-22.03-4.65-32.38-3.8-10.38-11.7-17.32-22.05-21.23-8.61-3.25-16.17-7.89-22.56-14.65-5.81-6.14-6.78-13.33-5.92-21.16.26-2.33.82-4.62 1.18-6.94.84-5.37 2.77-10.1 7.8-12.92 7.64-4.28 10.43-10.69 9.61-19.36-.59-6.19-.11-12.49-.11-19.38-5.35-.18-10.78-.4-16.22-.52-3.02-.07-6.04.07-9.07.06-.89 0-1.8-.09-2.66-.28-4.58-1.03-7.27-4.46-6.82-8.59.22-2.03 4.63-5.06 7.87-5.08 14.33-.06 28.67-.41 42.98.18 6.83.28 13.73 1.89 20.33 3.82 11.23 3.29 16.98 11.08 17.51 23 .35 7.9-1.86 15.26-3.43 22.78-.19.93-1.22 1.8-2.05 2.45-8.3 6.53-17.76 8.86-28.26 8.45-5.39-.21-10.93.51-16.24 1.59-5.76 1.17-7.71 4.14-7.87 9.99-.07 2.35.21 4.72.02 7.05-.2 2.42.71 3.84 2.71 5.18 10.95 7.37 21.63 15.17 32.75 22.26 9.33 5.95 13.79 14.59 14.83 24.98 1.22 12.23 1.96 24.54 2.14 36.82.33 22.83.09 45.67.09 68.51-.01 1.34-.01 2.67-.01 4.36zm-35.25-227.54v27.91c0 5.51 0 5.73 5.46 5.64 4.65-.07 9.38-.31 13.89-1.32 2.15-.48 4.84-2.53 5.59-4.51 1.35-3.56 1.84-7.6 1.94-11.45.18-6.79-2.76-11.16-9.29-13.06-5.49-1.57-11.28-2.1-17.59-3.21z"/><path d="m276.59 120.27c-12.97-.15-23.01-5.95-31.42-14.95-4.39-4.69-6.14-10.65-5.85-17.03.37-8.13 2.27-15.94 6.29-23.08.71-1.27 1.91-2.49 3.19-3.17 4.44-2.37 9-4.49 13.52-6.7.5-.24 1.03-.62 1.54-.62 11.7-.01 23.58-1.84 34.89 2.63 10.56 4.17 15.97 12.35 16.44 23.52.2 4.75-.46 9.61-1.29 14.32-2.23 12.68-12.07 17.86-22.7 21.76-4.65 1.71-9.73 2.25-14.61 3.32zm-5.24-52.94c-.07.31-.13.62-.2.93-9.62 0-15.11 4.36-17.1 13.71-.37 1.74-.67 3.55-.64 5.32.08 5.48 1.21 11.04 6.7 13.23 5.96 2.37 12.37 3.99 18.74 4.83 11.42 1.51 20.03-4.87 22.34-15.66.35-1.63.57-3.31.66-4.98.34-6.41-2.42-10.95-8.68-12.66-7.17-1.98-14.54-3.18-21.82-4.72z"/><path d="m118.98 153.8c5.07 0 9.45-.24 13.79.08 2.95.22 6.04.82 8.7 2.03 1.84.84 3.54 2.8 4.46 4.67 1.71 3.49.75 5.31-2.95 6.55-8.75 2.93-17.84 3.17-26.89 2.65-6.55-.38-13.05-1.71-19.58-2.53-4.19-.53-3.04-3.82-3.59-6.37-.57-2.6 1.3-2.78 2.84-3.66 7.55-4.28 15.84-3.07 23.22-3.42z"/><path d="m205.23 171.38c-6.24-.63-13.13-1.26-20-2.04-3.79-.43-6.36-4.75-5.03-8.25.17-.46.58-1 1.02-1.17 3.53-1.36 7.04-3.57 10.65-3.77 9.57-.55 19.2-.47 28.79-.16 5.06.16 9.57 2.12 12.1 7.11 1.12 2.21.8 3.59-1.57 4.74-6.01 2.92-12.42 3.43-18.93 3.54-2.12.03-4.25 0-7.03 0z"/></g><path d="m385.2 377.6.6-.7c.6.4 1.3.9 1.9 1.5l-.6.7c-.8-.5-1.4-1-1.9-1.5zm.3 7.1c.6-1.4 1.1-2.9 1.5-4.5.3.1.6.3.9.4-.5 1.4-1 2.9-1.5 4.4zm.2-10.1.6-.6c.7.5 1.3 1.1 1.9 1.6l-.7.7c-.6-.6-1.2-1.2-1.8-1.7zm8.4-.8h.8v.9h1.8v.7h-1.8v1.8h-.8v-.3h-1.2v.9h3.3v2.6h-.8v-.4h-2.5c0 .3 0 .6-.1.8h3.4v.7h-3.5c0 .3-.1.6-.1.8h4v.7h-3.5c.7.9 1.9 1.3 3.6 1.5-.2.2-.4.5-.6.9-1.9-.3-3.2-1.1-3.8-2.3-.5 1.1-1.8 2-3.9 2.4-.2-.3-.4-.5-.6-.8 1.9-.4 3.1-.9 3.6-1.7h-3.2v-.7h3.5c.1-.2.1-.5.2-.8h-3.3v-.7h3.4c0-.2 0-.5 0-.8h-2.4v.3h-.8v-2.6h3.3v-.9h-1.2v.3h-.8v-1.8h-1.8v-.7h1.8v-.9h.8v.9h3.2zm-4.4 5.5h2.4c0-.3 0-.6 0-.9h-2.4zm1.2-3.1h3.2v-.8h-3.2zm4.4 2.2h-2.4v.9h2.5v-.9z" fill="#fcfbfa"/><path d="m389.2 385.8h.9v1.5h1.9v-1.5h.9v1.5h2.7v6h1.1v.9h-11.3v-.9h1.1v-6h2.7zm.2 8.7.5.8c-1.2.6-2.5 1.3-4 1.9-.2-.3-.3-.6-.6-.8 1.6-.6 3-1.3 4.1-1.9zm-2-4.3h1.9v-2.1h-1.9zm0 3.1h1.9v-2.2h-1.9zm2.7-3.1h1.9v-2.1h-1.9zm0 3.1h1.9v-2.2h-1.9zm2.4 1.3c1.4.6 2.7 1.2 4.1 1.8l-.5.9c-1.5-.7-2.8-1.4-4.1-1.9zm2.2-6.5h-1.9v2.1h1.9zm-1.9 5.2h1.9v-2.2h-1.9z" fill="#fcfbfa"/></svg>