<svg enable-background="new 0 0 400 400" viewBox="0 0 400 400" xmlns="http://www.w3.org/2000/svg"><g fill="#fbfafa"><path d="m37.59 393.81c-.92.31-1.52.05-2-.78-.7-1.2-1.52-2.34-2.47-3.78v4.59c-.55.03-.95.05-1.41.07-.03-.37-.06-.64-.06-.91 0-1.91 0-3.81 0-5.7 1.13-.41 1.77-.03 2.29.91.62 1.11 1.38 2.14 2.31 3.19v-4.2h1.35v6.61z"/><path d="m12.94 393.88v-6.75c1.9.19 3.93-.54 5.37 1.29.8 1.01.78 2.88.03 3.97-1.37 1.97-3.4 1.51-5.4 1.49m1.45-1.22c2.04.12 2.92-.58 2.89-2.21-.03-1.51-.98-2.19-2.89-2z"/><path d="m11.81 393.87h-5.49c.68-2.18 2.47-3.48 3.51-5.45h-3.08v-1.21h5.29c-.71 2.13-2.44 3.48-3.47 5.51.86 0 1.63.04 2.39-.01.79-.05 1.14.21.85 1.16"/><path d="m39.33 393.86v-6.61h3.7v1.07h-2.22v1.52c.68.04 1.34.09 2.07.13v1.07c-.72.05-1.38.09-2.1.14v1.48h2.4v1.19h-3.85z"/><path d="m27.71 388.56c-1.15-.3-2.46-.61-3.1.64-.37.73-.41 1.93-.06 2.67.63 1.35 1.99.93 3.17.68.35.94-.01 1.32-.93 1.46-1.62.25-3.05-.27-3.76-1.48-.73-1.24-.6-3.03.31-4.17.88-1.11 2.71-1.7 4-1.16.32.13.44.74.65 1.12-.1.08-.19.16-.28.24"/><path d="m49.15 387.24v1.07c-.59.02-1.17.05-1.87.08v5.44h-1.48v-5.44h-1.85c-.05-.4-.08-.73-.13-1.15z"/><path d="m20.06 387.21h1.33v6.62h-1.33z"/><path d="m30.68 393.25c-.49.38-.8.79-1.05.76-.32-.05-.6-.45-.9-.7.26-.24.51-.64.8-.67.29-.04.62.3 1.15.61"/></g><path d="m242.32 62.95c-8.33 0-16.15.14-23.96-.06-3.88-.1-7.86-.4-11.59-1.38-4.87-1.28-6.52-4.93-4.76-9.63.41-1.11 1.76-2.42 2.87-2.62 5.01-.94 10.09-2.08 15.15-2.12 28.88-.2 57.76-.1 86.64-.09 7.93 0 15.87-.18 23.79.12 4.42.16 7.35 2.77 8.71 7.15.67 2.17.33 3.35-1.77 4.55-6.34 3.62-13.22 3.75-20.18 3.72-6.91-.03-13.82-.01-21.19-.01v5.19c0 8.06.06 16.12-.04 24.18-.02 1.93.46 3.18 2.32 3.84 3.56 1.27 7.01 3.19 10.68 3.79 12.54 2.05 19.59 9.86 22.53 21.48 1.77 6.99 2.4 14.3 3.18 21.51 1.47 13.45 3.3 26.91 3.86 40.41 1.36 32.82.85 65.61-6.99 97.77-1.89 7.78-5.01 15.26-7.6 22.86-.24.72-.66 1.47-1.21 1.97-10.45 9.59-20.97 18.47-36.52 18.85-17.38.42-34.41-.4-50.88-6.44-4.75-1.74-8.57-4.57-12.33-8.19-12.15-11.73-15.29-26.93-17.6-42.47-4.59-30.78-5.52-61.78-3.23-92.76 1.23-16.57 3.83-33.09 6.76-49.47 1.81-10.13 7.32-18.49 17.41-22.7 4.01-1.67 8.2-2.88 12.31-4.31 2.13-.75 2.94-2.12 2.96-4.52.08-8.84.45-17.68.69-26.51.01-1.09-.01-2.19-.01-4.11zm70.44 224.09c.86-1.91 1.8-3.19 1.99-4.58 1.53-11.08 2.97-22.18 4.27-33.29.15-1.33-.34-3.15-1.23-4.11-4.61-5.03-9.59-9.72-14.16-14.78-4.56-5.04-8.97-10.25-13.11-15.65-1.93-2.52-3.98-5.52-4.39-8.53-3.06-22.15-6.48-44.28-6.1-66.77.14-8.28-.19-16.57-.39-24.85-.03-1.31.43-3.16-1.92-3.16-6.13 0-12.26 0-18.52 0-.1 1.09-.25 1.85-.24 2.6.46 21.4-.46 42.75-2.62 64.04-.93 9.15-2.24 18.2-5.51 26.85-5.79 15.3-15.58 27.56-28.61 37.27-2.31 1.72-3.32 3.34-2.83 6.36 1.22 7.51 2.02 15.08 3.01 22.62.47 3.59.98 7.18 1.59 11.58 5.33-7.01 10.1-13.34 14.95-19.6.94-1.21 2.09-2.34 3.34-3.21 3.77-2.61 7.5-5.33 11.51-7.53 5.04-2.76 6.5-6.87 6.22-12.27-.13-2.5.47-5.07.99-7.55.69-3.32 3.31-3.96 6.16-3.75 2.98.22 5.12 1.71 5.48 4.9.3 2.66.43 5.35.53 8.03.18 4.82 1.41 8.72 6.4 11.01 9.26 4.25 16.23 11.19 21.89 19.64 3.27 4.95 7.18 9.43 11.3 14.73zm9.32-64.02c0-2.05.06-3.84-.01-5.62-.66-17.55-1.2-35.11-2.07-52.66-.56-11.27-1.14-22.59-2.71-33.74-.65-4.58-2.98-9.81-6.28-12.87-3.41-3.16-8.93-4.03-13.78-6.01-.18 1.34-.39 2.21-.4 3.08-.04 19.01-.6 38.04.07 57.02.62 17.65 6.82 33.59 18.16 47.39 1.86 2.28 3.94 3.47 7.02 3.41zm-18.6 78.32c-6.82-8.94-13.48-17.75-20.25-26.48-1.08-1.39-2.54-2.53-3.95-3.62-10.1-7.73-18.96-7.59-27.45 1.76-6.94 7.64-12.73 16.32-19.52 25.18 8.76 5.93 18.66 7.54 28.38 9.34 14.83 2.74 29.32 2.22 42.79-6.18zm-62.77-188.87c-4.3 2.57-8.88 5.27-13.42 8.05-.51.31-.82 1.05-1.06 1.65-3.35 8.49-5.52 17.24-5.66 26.41-.13 8.39-.12 16.78-.33 25.17-.36 14.53-.85 29.07-1.27 43.6-.03.95.12 1.91.13 1.96 3.84-3.45 8.35-6.83 12.02-10.95 5.15-5.78 8.07-12.93 8.47-20.62.71-13.63.89-27.29 1.09-40.95.16-11.35.03-22.73.03-34.32zm18.42-17.93c7.33-.37 14.29-.71 21.48-1.07-.36-10.53-.71-20.65-1.07-30.97-6.98 0-13.61 0-20.42 0 .01 10.64.01 21.09.01 32.04z" fill="#010105"/><path d="m150.07 121.72c4.03-1.13 8.12-2.19 12.14-3.46.82-.26 1.6-1.17 2.06-1.98 5.63-9.78 7.18-20.08 3.84-30.99-3.62-11.86-7.39-23.67-10.67-35.62-.84-3.06-.55-6.66.15-9.81.35-1.57 2.59-3.16 4.33-3.88 2.18-.9 3.9.4 5.15 2.53 10.84 18.6 18.37 38.28 19.17 60.04.26 6.98-.81 14.06-4.49 20.07-5.43 8.87-12.81 16.13-23.25 18.43-6.39 1.41-9.37 3.79-11.02 10.56-8.54 35.09-12.57 70.63-12.71 106.69-.08 19.29 3.52 37.99 8.35 56.56 3.94 15.14 7.5 30.38 10.95 45.64 1 4.43 1.1 9.07 1.46 13.62.19 2.4-.57 4.63-3.2 5.22-2.71.61-5.47.97-7.65-1.7-6.55-8.03-10.15-17.41-11.87-27.41-4.84-28.2-9.59-56.43-13.88-84.72-2.17-14.35-.43-28.78.59-43.2 2.26-32.12 9.27-63.48 14.39-95.14 2.51-15.5-.07-30.61-6-45.03-5.59-13.59-10.48-27.34-12.33-42-.21-1.66-.34-3.34-.54-5-.45-3.84 2.36-6.26 6.16-5.28 5.28 1.37 8.43 5.03 9.94 10 3.78 12.39 7.35 24.85 10.98 37.28.91 3.11 1.6 6.29 2.63 9.36 3.77 11.15 5.2 22.61 4.82 34.33-.04 1.34.07 2.68.14 4.02.02.21.17.4.36.87z" fill="#010105"/><path d="m102.11 152.35c-.66 6.43-1.32 12.63-1.94 18.84-2.28 22.82-4.94 45.61-6.68 68.47-1.23 16.14 1.94 32.1 3.96 48.08 2.25 17.75 4.27 35.53 6.25 53.31.11.98-.8 2.53-1.68 3.07-3.67 2.23-8.99.01-10.28-4.06-11.64-36.47-15.86-73.85-13.17-111.96 1.03-14.6 3.16-29.12 4.9-43.67.78-6.53 1.35-13.15 2.91-19.51 1.07-4.35 3.7-8.31 5.59-12.46.85-1.88 2.18-2.27 4.07-1.69 1.81.56 3.67.96 6.07 1.58z" fill="#010105"/><path d="m177.14 157.63c-1.49 17.72-3 35.44-4.47 53.17-1.08 13.03.19 25.94 2.39 38.75 2.49 14.53 5.11 29.05 8.26 43.44 1.61 7.38 4.67 14.44 6.7 21.75.98 3.52 1.25 7.27 1.5 10.93.07 1.01-.82 2.5-1.72 3.08-3.64 2.37-9.18.24-10.56-3.87-4.7-13.97-9.82-27.82-13.99-41.95-6.84-23.16-10.58-46.82-9.88-71.11.57-19.84 2.08-39.52 7.03-58.82.36-1.39.62-2.92 1.37-4.09 2.69-4.16 7.59-4.46 10.63-.27 1.78 2.46 2.44 5.74 3.6 8.64-.29.12-.58.23-.86.35z" fill="#010105"/><path d="m113.9 93.31c-.79 8.58-3.27 16.43-6.65 24.04-.48 1.08-1.39 2.03-2.27 2.86-7.38 7.01-14.6 14.2-22.25 20.91-6.34 5.57-13.96 8.74-22.4 9.9-2.15.3-3.2-.1-3.96-2.26-2.18-6.19-2.27-6.14 2.82-10.22 9.42-7.57 18.87-15.11 28.23-22.76 9.92-8.1 12.55-17.07 8.72-29.25-1.93-6.12-4.45-11.77-9.5-16.23-3.48-3.07-6.27-6.98-9.04-10.77-2.55-3.49-3.16-7.52-2.05-11.82.55-2.12 1.58-3.25 3.71-2.51 2.71.93 5.98 1.48 7.88 3.35 9.6 9.42 18.68 19.39 23.69 32.17 1.58 3.98 2.08 8.38 3.07 12.59z" fill="#010105"/></svg>