<svg enable-background="new 0 0 400 400" viewBox="0 0 400 400" xmlns="http://www.w3.org/2000/svg"><g fill="#010101"><path d="m113.68 46.54c-8.52 0-16.54 0-24.56 0-2.35 0-4.71.12-7.04-.06-7.05-.53-11.11-4.4-12.27-11.8 5.6-1.81 10.8-4.59 17.16-4.53 27.31.25 54.62.1 81.93.11 7.15 0 14.3-.12 21.44.07 5.41.14 8.63 3.23 9.77 8.44.39 1.8.07 2.86-1.54 3.87-4.28 2.67-8.83 3.41-13.8 2.97-4.86-.42-9.77-.43-14.66-.48-2.13-.02-3.32.91-3.44 3.43-.42 8.94-1.07 17.87-1.74 26.79-.14 1.84.4 2.88 2.09 3.62 2.55 1.12 4.91 2.75 7.53 3.65 8.94 3.09 13.85 9.55 16.67 18.3 3.05 9.47 4 19.21 4.91 29.01 1.14 12.25 3.09 24.44 3.73 36.7.76 14.73 1 29.52.58 44.26-.57 19.81-2.77 39.49-7.9 58.72-1.21 4.53-2.67 8.99-4.13 13.45-4.76 14.54-15.11 23.27-29.63 26.62-21.05 4.85-41.73 3.09-60.83-7.37-4.58-2.51-7.8-8.12-10.77-12.86-7.73-12.31-11.35-26.1-11.45-40.5-.2-31.65-.09-63.32.46-94.97.24-13.84 1.69-27.67 2.93-41.48.66-7.32 3.15-14.34 7.3-20.32 3.06-4.4 8-7.07 13.27-8.65 11.43-3.44 11.5-3.42 12.53-15.07.61-6.98.94-14 1.46-21.92zm64.18 220.56c.23-.54.42-.8.45-1.09 1.35-11.44 2.78-22.87 3.93-34.32.17-1.66-.5-3.77-1.53-5.11-7.45-9.79-15.11-19.42-22.63-29.16-1.07-1.38-1.92-3.01-2.54-4.64-4.08-10.83-5.1-22.18-5.32-33.62-.33-17.45-.56-34.9-.8-52.35-.07-4.98-.01-9.97-.01-14.9-7.25 0-13.55 0-20.09 0 0 11.25.28 22.22-.06 33.17-.56 17.74.38 35.65-3.98 53.08-3.97 15.88-10.55 30.37-23.64 41.1-3.11 2.55-5.9 5.49-9.01 8.05-1.86 1.53-2.45 3.14-2.11 5.5.79 5.53 1.33 11.1 1.99 16.65.73 6.15 1.48 12.3 2.32 19.24 2.5-2.89 4.4-5.2 6.42-7.41 7.96-8.71 14.42-18.97 25.1-24.88 3.93-2.18 5.4-5.36 5.17-9.63-.11-2.01-.32-4.03-.17-6.03.16-2.2.41-4.46 1.09-6.54 1.11-3.4 2.82-4.02 7.19-3.33 3.19.5 5.12 2.17 5.19 5.5.04 1.78-.3 3.57-.29 5.35.01 3.67-.08 7.37.31 11.01.13 1.28 1.26 2.79 2.37 3.58 3.18 2.26 7.15 3.64 9.78 6.36 7.1 7.36 15.26 13.91 19.89 23.39.19.34.55.58.98 1.03zm-76.46 15.52c3.56 3.86 5.93 7.88 11.12 9.4 10.64 3.1 21.39 4.82 32.42 4.25 9.05-.47 17.19-3.68 24.27-9.47 1.63-1.34 2.41-2.57 1.05-4.43-4.74-6.47-8.96-13.43-14.42-19.22-4.91-5.21-11.14-9.19-16.92-13.54-.83-.62-2.64-.72-3.61-.26-5.91 2.85-11.14 6.73-15 12.09-5.48 7.64-10.73 15.45-18.91 21.18zm9.99-188.96c-3.64 2.05-6.87 3.6-9.79 5.63-1.71 1.19-3.4 2.89-4.23 4.75-5.42 12.14-7.44 25.05-7.34 38.23.17 21.91.73 43.83 1.15 65.74.01.68.25 1.36.41 2.21 13.79-13.92 20.75-30.47 20.81-49.65.07-21.24-.41-42.48-.66-63.73-.01-.85-.18-1.7-.35-3.18zm71.02 111.7c.06-1.03.14-1.88.14-2.73-.05-25.26-.04-50.52-.19-75.78-.05-7.51-2.15-14.58-6.2-20.94-2.66-4.17-5.77-8.02-10.44-11.04-.78 22.82-2.71 45.04-.61 67.25 1.5 15.88 4.93 31.2 17.3 43.24zm-33.61-129.73c0-9.69 0-19.02 0-28.68-6.45-.35-12.74-.68-19.2-1.03v30.81c6.51-.37 12.81-.73 19.2-1.1z"/><path d="m283.52 217.81c.57 2.21.91 3.93 1.45 5.59 4.34 13.37 4.33 27.14 3.27 40.88-.69 8.89-1.93 17.81-3.87 26.51-2.42 10.87-8.07 19.69-19.49 23.23-5.95 1.84-11.96 2.55-18.07.18-3.85-1.49-7.81-2.82-11.83-3.66-4.17-.87-6.45-3.44-8.43-6.87-5.93-10.25-8.11-21.49-8.83-33.07-.93-14.89-.72-29.78 2.45-44.43 1.75-8.07-.07-6.47 8.94-8.29 5.98 10.41 3.93 21.84 3.83 33.32 7.92.38 15.59.76 23.26 1.12 4.24.2 8.49.47 12.74.42.92-.01 2.46-1.11 2.63-1.94.65-3.04 1.23-6.19 1.15-9.29-.19-7.69-1.13-15.4 2.39-23.08-7.69-1.17-14.85-2.27-22.01-3.34-6.19-.93-12.45-1.55-18.55-2.91-2.42-.54-4.72-2.44-6.66-4.18-7.09-6.35-10.78-14.66-11.63-23.88-1.77-19.22.88-37.92 8.44-55.78.62-1.46 1.76-2.86 3-3.86 9.09-7.39 19.17-11.65 31.25-10.22 7.41.88 14.63-.75 21.85-2.55 8.87-2.22 12.73-8.33 13.75-16.56 1.78-14.5-.38-28.78-3.46-42.92-.32-1.46-2-2.91-3.4-3.8-7.7-4.9-16.4-6.49-25.32-6.58-12.64-.14-25.29.31-37.93.19-3.96-.04-8.04-.66-11.8-1.85-1.88-.59-3.68-2.82-4.59-4.74-1.21-2.54-.36-4.47 2.75-5.92 5.77-2.69 11.64-3.49 17.88-3.33 13.42.34 26.85.3 40.25.84 4.98.2 9.93 1.48 14.85 2.47 12.21 2.47 19.15 10.86 23.57 21.73 4.69 11.55 4.63 23.71 2.99 35.72-1.1 8.12-3.45 16.12-5.81 24-.76 2.54-3 4.96-5.16 6.7-7.39 5.96-15.97 8.42-25.49 8.78-7.88.29-15.73 1.57-23.56 2.7-8.53 1.23-13.32 7.18-15.94 14.63-1.83 5.19-2.88 10.84-3.16 16.35-.58 10.97.17 21.94 3.77 32.46.56 1.63 1.85 3.35 3.29 4.28 9.09 5.84 19.21 6.42 29.7 6 7.2-.29 14.55-.07 21.65 1.04 13.23 2.07 20.65 10.88 23.77 23.4 3.99 16 5.68 32.34 6.82 48.76.85 12.27 2.05 24.51 3.08 36.77.14 1.67.25 3.35.25 5.02.02 17.35.01 34.69.01 52.04 0 3.63-1.47 5.34-4.89 5.69-3.52.36-5.54-1.13-6.41-4.59-4.25-17.04-5.84-34.37-5.58-51.89.36-24.1-1.13-48.09-4.04-71.99-.51-4.21-1.22-8.42-2.15-12.56-2.02-8.89-8.39-13.52-16.97-16.74zm-49.34 49.1c-1.17 9.02-.7 17.52 3.37 25.61 2 3.97 4.96 6.57 9.52 6.86 3.54.23 7.17.72 10.64.23 4.98-.7 9-3.16 10.44-8.54 1.09-4.09 2.58-8.1 3.37-12.24.56-2.99.49-6.18.2-9.22-.09-.98-1.8-2.55-2.79-2.57-11.49-.2-22.98-.13-34.75-.13z"/><path d="m241.16 70.77c-6.26 0-12.52.15-18.76-.09-2.03-.08-4.13-.97-6.02-1.85-3.27-1.53-4.67-4.26-4.47-7.9.11-1.94.7-3.15 2.79-3.43 5.39-.74 10.76-2.05 16.17-2.25 12.9-.47 25.72.71 38.24 3.99 7.97 2.09 12.57 8 12.32 16.24-.15 4.97-1.29 9.93-2.34 14.82-.28 1.31-1.69 2.56-2.87 3.47-7.37 5.72-15.96 8.51-25.06 9.62-13.31 1.61-26.53 1.15-39.59-2.41-4.45-1.21-2.66-4.71-3.5-7.23-.79-2.36 1.25-3 2.76-3.3 6.65-1.3 13.3-2.87 20.03-3.42 7.23-.58 14.54-.06 21.81-.17 2.78-.04 5.6-.25 8.32-.8 4.69-.96 5.86-2.85 5.22-7.6-.79-5.88-.77-6.05-6.6-6.54-6.12-.51-12.28-.67-18.42-.98-.02-.05-.03-.11-.03-.17z"/><path d="m321.35 180.23c-6.04 3.81-12.59 5.57-19.46 5.86-13.77.58-27.19-1.37-40-6.62-1.6-.66-3.2-2.03-4.14-3.5-6.27-9.75-5.13-19.98-1.45-30.23.35-.98 1.63-1.76 2.65-2.35 7.35-4.28 15.59-5.59 23.81-6.07 7.78-.46 15.65.02 23.43.63 2.95.23 6.18 1.44 8.53 3.2 1.47 1.11 1.92 4.06 2.02 6.23.03.7-2.41 2-3.84 2.21-7.17 1.05-14.36 1.95-21.57 2.65-4.1.4-8.28.09-12.38.52-6.75.71-10.3 3.97-10.89 9.38-.3 2.77.41 4.49 3.47 5.38 8.95 2.62 18.04 2.78 27.24 2.58 4.33-.1 8.74.06 12.99.77 5.52.91 8.28 3.91 9.59 9.36z"/></g><path d="m6.4 11.7c-1-.8-1.9-1.6-2.9-2.3l.6-.7c.9.7 1.9 1.4 2.9 2.2zm-2.1 8.3c.7-2.1 1.4-4.2 2-6.4.2.1.6.3 1 .4-.7 2.3-1.3 4.4-1.9 6.4zm3-12.8c-1.1-.9-2.1-1.7-2.9-2.4l.6-.7c1 .8 2 1.5 3 2.4zm1.4-1.3v-.9h10.2v.9c-.9 4.2-2.3 7.3-4.1 9.4 1.3 1.4 3.2 2.7 5.7 4-.2.2-.4.5-.7.9-2.5-1.4-4.4-2.7-5.7-4.2-1.4 1.5-3.5 3-6.1 4.4 0 0 0 0-.1-.1-.3-.4-.5-.7-.7-.8 2.7-1.3 4.7-2.8 6.2-4.2-1.8-2.2-3-5.3-3.7-9.4zm9.2 0h-7.1c.6 3.8 1.7 6.7 3.4 8.7 1.7-2 2.9-4.8 3.7-8.7z" fill="#fbfafa"/><path d="m31.6 3.6h.9v2.3h4.1v9.1h1.7v.9h-16.6v-.9h1.7v-9.1h4.1v-2.3h.9v2.3h3.1v-2.3zm-4 13.3.6.8c-1.9.9-3.8 1.9-5.8 2.8-.2-.3-.3-.6-.5-.9 2-.9 3.9-1.8 5.7-2.7zm-3.2-10.1v3.7h3.1v-3.7zm0 4.5v3.7h3.1v-3.7zm4.1-4.5v3.7h3.1v-3.7zm0 4.5v3.7h3.1v-3.7zm9.1 9.1c-2.1-1.1-4.1-2-5.8-2.7l.5-.8c2.2.9 4.1 1.8 5.8 2.6zm-1.9-13.6h-3.1v3.7h3.1zm-3.2 4.5v3.7h3.1v-3.7z" fill="#fbfafa"/></svg>