<svg enable-background="new 0 0 400 400" viewBox="0 0 400 400" xmlns="http://www.w3.org/2000/svg"><g fill="#fbfafa"><path d="m37.59 393.81c-.92.31-1.52.05-2-.78-.7-1.2-1.52-2.34-2.47-3.78v4.59c-.55.03-.95.05-1.41.07-.03-.37-.06-.64-.06-.91 0-1.91 0-3.81 0-5.7 1.13-.41 1.77-.03 2.29.91.62 1.11 1.38 2.14 2.31 3.19v-4.2h1.35v6.61z"/><path d="m12.94 393.88v-6.75c1.9.19 3.93-.54 5.37 1.29.8 1.01.78 2.88.03 3.97-1.37 1.97-3.4 1.51-5.4 1.49m1.45-1.22c2.04.12 2.92-.58 2.89-2.21-.03-1.51-.98-2.19-2.89-2z"/><path d="m11.81 393.87h-5.49c.68-2.18 2.47-3.48 3.51-5.45h-3.08v-1.21h5.29c-.71 2.13-2.44 3.48-3.47 5.51.86 0 1.63.04 2.39-.01.79-.05 1.14.21.85 1.16"/><path d="m39.33 393.86v-6.61h3.7v1.07h-2.22v1.52c.68.04 1.34.09 2.07.13v1.07c-.72.05-1.38.09-2.1.14v1.48h2.4v1.19h-3.85z"/><path d="m27.71 388.56c-1.15-.3-2.46-.61-3.1.64-.37.73-.41 1.93-.06 2.67.63 1.35 1.99.93 3.17.68.35.94-.01 1.32-.93 1.46-1.62.25-3.05-.27-3.76-1.48-.73-1.24-.6-3.03.31-4.17.88-1.11 2.71-1.7 4-1.16.32.13.44.74.65 1.12-.1.08-.19.16-.28.24"/><path d="m49.15 387.24v1.07c-.59.02-1.17.05-1.87.08v5.44h-1.48v-5.44h-1.85c-.05-.4-.08-.73-.13-1.15z"/><path d="m20.06 387.21h1.33v6.62h-1.33z"/><path d="m30.68 393.25c-.49.38-.8.79-1.05.76-.32-.05-.6-.45-.9-.7.26-.24.51-.64.8-.67.29-.04.62.3 1.15.61"/></g><path d="m244.77 273.47c0-8.39 0-15.53 0-23.08-2.74.2-5.36.47-7.98.55-6.36.19-12.74.59-19.09.35-6.39-.24-10.47-4.33-10.92-10.23 7.06-3.21 14.69-3.21 22.25-3.75 4.11-.29 8.2-.88 12.29-1.38 2.38-.29 3.62-1.83 3.64-4.08.04-3.89-.14-7.78-.31-11.67-.07-1.67-.51-3.33-.51-4.99-.01-5.08 5.25-8.91 10.06-7.31.69.23 1.42 1.13 1.64 1.87.74 2.56 1.45 5.15 1.78 7.78.22 1.74-.2 3.56-.39 5.34-.82 7.75.41 9.23 8.01 9.56 4.1.18 8.21.38 12.81.59-.42-3.89-.72-7.52-1.22-11.13-1.21-8.75-.61-10.05 7.22-14.29-3.17-2.94-6.13-5.96-9.4-8.6-2.2-1.78-3.17-3.87-3.37-6.55-.12-1.67-.39-3.33-.63-4.99-.68-4.73-.68-4.73-5.63-4.73-4.79 0-9.59 0-14.47 0-.54 2.45-1.2 4.59-1.46 6.78-1.44 11.98-9.22 17.81-20 20.61-11.63 3.02-23.37 5.1-35.46 3.13-.63-.1-1.3.07-2.25.13-.51 6.98-1.01 13.87-1.53 20.76-.89 11.71-1.21 23.51-2.91 35.11-1.19 8.09-3.47 16.25-6.74 23.74-4.74 10.84-14.46 16.61-25.41 19.81-20.47 5.98-40.7 4.84-60.26-3.86-3.02-1.34-5.79-3.81-7.98-6.36-7.22-8.41-10.32-18.49-11.95-29.37-3.56-23.71-6.7-47.42-6.22-71.46.48-23.84 1.2-47.66 6.58-71.05.1-.44.2-.87.31-1.3 4.51-17.66 4.8-18.23 20.56-27.34 2.48-1.43 5.75-1.48 9.12-2.28.68-10.27 1.37-20.82 2.11-32.04-7.03 0-13.93.04-20.83-.02-3.12-.03-6.37.25-9.32-.53-2.53-.67-5.31-2.15-6.92-4.14-3.32-4.1-2.31-7.26 2.71-8.55 4.59-1.18 9.42-1.89 14.16-1.99 22.15-.48 44.3-.74 66.45-.94 11.76-.11 23.48.47 35.04 2.96 2.45.52 3.39 1.74 3.32 4.05-.07 2.26 1.23 4.64-2.13 6.18-3.75 1.72-7.39 2.74-11.55 2.62-7.8-.22-15.62-.06-23.77-.06 0 10.45-.04 20.6.09 30.75.01.73 1.16 1.69 2 2.12 4.48 2.27 9.14 4.2 13.52 6.63 9.71 5.39 15.08 13.48 16.76 24.76 3.32 22.31 4.14 44.77 5.24 67.23.07 1.33.12 2.66.2 4.4 2.2-.53 4.12-.98 6.02-1.47 10.71-2.78 21.4-5.63 32.13-8.33 2.19-.55 3.3-1.4 3.7-3.84 1.23-7.49 1.34-7.4-5.67-10.53-4.57-2.04-9.59-3.58-13.45-6.58-9.26-7.2-12.81-17.57-13.31-28.93-.58-13.19.94-26.15 5.94-38.5.52-1.28 1.42-2.54 2.45-3.46 9.4-8.41 20.47-12.14 33.06-12.75 14.63-.7 29.21-2.29 43.82-3.44 3.54-.28 5.01-2.7 5.12-5.59.14-3.53.02-7.29-1.1-10.57-.65-1.92-3.28-3.45-5.34-4.57-5.3-2.89-11.14-3.02-17-2.51-16.33 1.43-31.91-1.02-46.24-9.35-5.57-3.24-11.41-6.23-16.34-10.29-5.9-4.85-6.05-10.81-1.62-17.44 5.26.81 9.76 3.38 14.07 6.45 5.18 3.69 10.25 7.6 15.75 10.78 6.86 3.97 14.85 3.9 22.46 4.81 9.88 1.18 19.82 1.81 29.73 2.77 12.64 1.22 20.39 9.11 20.48 21.76.04 6.2-1.25 12.42-2.17 18.59-.14.92-1.44 1.88-2.42 2.44-12.33 7.1-25.79 9.94-39.85 10.22-5.58.11-11.18-.51-16.76-.51-3.56 0-7.21.11-10.66.88-9.82 2.19-15.69 9.33-17.3 20.63-1.5 10.54.55 20.7 3.54 30.73 1.8 6.02 6.78 8.62 11.94 10.9 9.61 4.23 19.78 4.55 29.98 3.6 4.86-.45 9.64-1.76 14.46-2.68 5.87-1.12 8.91-5.43 9.96-10.57.93-4.57.48-9.49.13-14.22-.08-1.12-1.98-2.6-3.33-3.06-8.62-2.92-17.6-2.75-26.56-2.73-5.45.01-10.94-.11-16.35-.77-3.89-.47-7.25-2.47-8.39-6.71-.6-2.22-.36-3.85 2.36-4.93 8.1-3.21 16.47-4.32 25.01-3.35 10.31 1.18 20.58 2.78 30.81 4.54 1.93.33 4.08 1.9 5.3 3.53 7.45 9.98 7.51 21.13 4.62 32.66-1.88 7.5-6.49 12.8-13.03 16.66-4.59 2.71-4.94 10.53-.24 12.87 7.07 3.51 14.56 6.16 21.77 9.4 4.54 2.04 9.14 4.13 13.23 6.91 1.84 1.25 2.51 4.22 3.71 6.41-2.21 1.17-4.42 3.3-6.64 3.31-5.05.04-10.18-.57-15.13-1.64-5.96-1.29-11.77-3.32-18.21-5.2.36 1.09.46 1.58.68 2 8.1 15.87 10.47 32.89 9.53 50.39-.63 11.65-5.95 17.45-17.36 20.42-3.24.84-6.56 1.37-9.86 1.98-3.79.71-4.74 1.84-4.35 5.67 1.23 12 4.88 23.39 8.95 34.65 3.99 11.03 8.29 21.96 12 33.09 1.31 3.92 1.5 8.28 1.73 12.46.13 2.42-.99 4.62-3.94 5.01-3.28.44-6.29-1.11-7.29-3.82-6.78-18.46-13.81-36.84-20.18-55.44-2.77-8.1-4.29-16.65-6.09-25.06-.61-2.85-1.99-4.05-4.7-3.94-8.48.32-16.95.77-25.43 1-4.56.13-9.16.26-13.68-.24-3.85-.43-6.47-2.92-7.14-6.97-.35-2.15.07-3.63 2.51-4.66 8.4-3.53 17.05-2.75 25.78-2.31 5.61.26 11.27-.17 17.14-.3zm-76.01 5.12c.34-1.24.6-1.94.71-2.66 1.68-10.49 3.4-20.97 4.92-31.48.18-1.27-.41-3.06-1.29-4.01-4.25-4.6-8.51-9.23-13.15-13.43-13.36-12.06-17.76-28.12-18.87-44.93-1.42-21.3-1.22-42.71-1.74-64.08-.03-1.17-.2-2.34-.31-3.54-4.25-.54-8.12-1.18-12.01-1.5-4.21-.35-5.64 1.07-5.74 5.12-.19 7.61-.32 15.21-.64 22.81-.62 14.74-.67 29.54-2.19 44.19-2.08 20.1-10.24 37.67-26.76 50-6.09 4.55-7.71 8.88-6.11 16.04 2.03 9.09 2.87 18.45 4.32 28.4 5.39-6.56 10.5-12.45 15.24-18.64 3.47-4.53 7.36-8.43 12.64-10.65 3.95-1.67 5.05-4.76 4.98-8.58-.03-1.67-.23-3.34-.53-4.99-.73-4.07-.06-7.85 2.43-11.12.68-.9 2.1-1.67 3.22-1.74 3.98-.24 7.48 3.85 7.72 8.91.15 3.13.21 6.28-.02 9.4-.18 2.54.62 4.17 2.84 5.46 6.94 4.04 12.66 9.44 17.56 15.81 3.93 5.13 8.29 9.91 12.78 15.21zm-63.16-164.51c-5.08 3.08-9.19 5.52-13.22 8.06-.59.37-1.08 1.19-1.25 1.88-2.05 8.44-5.26 16.82-5.77 25.35-1.04 17.38-.7 34.86-.76 52.29-.02 5.98.48 11.97.75 17.95.38.21.75.42 1.13.63 2.87-3.55 6.14-6.85 8.49-10.72 2.71-4.46 4.69-9.38 6.82-14.17.89-2.01 1.78-4.19 1.94-6.34 1.3-17.49 2.72-34.97 3.46-52.49.3-7.15-.97-14.36-1.59-22.44zm49.79 1.63c-.15 1.47-.34 2.58-.36 3.69-.31 17.11-.94 34.22-.81 51.32.14 17.3 5.49 32.97 16.9 46.26 1 1.17 2.67 1.77 4.48 2.92.19-1.54.31-2.08.31-2.63.03-23.16.46-46.36-3.01-69.35-1.2-7.91-3.06-15.76-5.31-23.44-1.6-5.47-6-8.33-12.2-8.77zm-56.23 176.32c5.51 10.81 47.63 11.43 60.67.8-5.4-7.47-10.66-15.08-16.29-22.41-3.44-4.47-8.34-7.07-13.88-8.12-1.32-.25-3.37-.01-4.18.85-8.89 9.55-17.61 19.26-26.32 28.88zm22.73-224.24v29.95h17.53c0-10.16 0-19.81 0-29.95-5.75 0-11.62 0-17.53 0zm138.32 180.82c1.04 7.98 1.95 15.02 2.87 22.08 3.81-.83 7.31-1.5 10.77-2.35 6.48-1.58 9.4-5.27 9.55-11.85.11-4.93-1.83-7.99-6.71-8.37-5.33-.43-10.75.27-16.48.49z" fill="#010105"/></svg>