<svg enable-background="new 0 0 400 400" viewBox="0 0 400 400" xmlns="http://www.w3.org/2000/svg"><g fill="#fbfafa"><path d="m37.59 393.81c-.92.31-1.52.05-2-.78-.7-1.2-1.52-2.34-2.47-3.78v4.59c-.55.03-.95.05-1.41.07-.03-.37-.06-.64-.06-.91 0-1.91 0-3.81 0-5.7 1.13-.41 1.77-.03 2.29.91.62 1.11 1.38 2.14 2.31 3.19v-4.2h1.35v6.61z"/><path d="m12.94 393.88v-6.75c1.9.19 3.93-.54 5.37 1.29.8 1.01.78 2.88.03 3.97-1.37 1.97-3.4 1.51-5.4 1.49m1.45-1.22c2.04.12 2.92-.58 2.89-2.21-.03-1.51-.98-2.19-2.89-2z"/><path d="m11.81 393.87h-5.49c.68-2.18 2.47-3.48 3.51-5.45h-3.08v-1.21h5.29c-.71 2.13-2.44 3.48-3.47 5.51.86 0 1.63.04 2.39-.01.79-.05 1.14.21.85 1.16"/><path d="m39.33 393.86v-6.61h3.7v1.07h-2.22v1.52c.68.04 1.34.09 2.07.13v1.07c-.72.05-1.38.09-2.1.14v1.48h2.4v1.19h-3.85z"/><path d="m27.71 388.56c-1.15-.3-2.46-.61-3.1.64-.37.73-.41 1.93-.06 2.67.63 1.35 1.99.93 3.17.68.35.94-.01 1.32-.93 1.46-1.62.25-3.05-.27-3.76-1.48-.73-1.24-.6-3.03.31-4.17.88-1.11 2.71-1.7 4-1.16.32.13.44.74.65 1.12-.1.08-.19.16-.28.24"/><path d="m49.15 387.24v1.07c-.59.02-1.17.05-1.87.08v5.44h-1.48v-5.44h-1.85c-.05-.4-.08-.73-.13-1.15z"/><path d="m20.06 387.21h1.33v6.62h-1.33z"/><path d="m30.68 393.25c-.49.38-.8.79-1.05.76-.32-.05-.6-.45-.9-.7.26-.24.51-.64.8-.67.29-.04.62.3 1.15.61"/></g><path d="m110.58 96.79c.57-10.3 1.13-20.31 1.71-30.92-5.47 0-10.48-.01-15.49 0-3.36.01-6.72.15-10.07.03-1.65-.06-3.35-.39-4.91-.93-3.83-1.32-7.12-5.58-5.61-8.69 1.03-2.13 4.62-3.09 7.16-4.38.71-.36 1.76-.06 2.66-.06 28.76 0 57.53-.02 86.29.03 3.57.01 7.15.32 10.71.66 2.88.27 5.1 1.64 5.96 4.61.97 3.38.28 5.34-3.12 6.07-4.42.95-9 1.34-13.53 1.55-5.42.25-10.86.06-17.29.06v25.5c0 .78.08 1.59-.07 2.35-.49 2.57.72 3.63 3.02 4.61 3.68 1.56 7.23 3.51 10.66 5.59 9.04 5.47 11.48 14.5 13.1 24.16 7.25 43.44 8.49 87.02 3.56 130.77-1.24 11-2.45 22.03-4.43 32.9-.83 4.58-3.46 8.88-5.58 13.16-7.45 15.09-21.98 23-38.8 21.69-10.89-.85-21.48-2.87-31.75-6.53-1.59-.57-3.18-1.65-4.31-2.9-9.01-9.94-13.86-21.72-15.39-35.01-1.09-9.44-3.05-18.81-3.68-28.27-.7-10.48-.49-21.02-.4-31.54.15-18.24.17-36.49.89-54.72.57-14.5 1.69-29.02 3.34-43.43 1.26-10.99 8.87-18.26 17.42-24.31 2.02-1.43 5.09-1.36 7.95-2.05zm56.04 182.82c.38.02.75.04 1.13.06.36-1.51.96-3 1.05-4.52.56-9.27 1.1-18.55 1.4-27.83.06-1.84-.57-3.98-1.58-5.52-6.85-10.49-13.91-20.84-20.83-31.29-.77-1.16-1.48-2.58-1.57-3.92-1.99-30.93-5.68-61.77-4.79-92.84.09-3.14-1.44-4.68-4.26-4.86-3.4-.22-6.83-.05-10.44-.05 0 1.68-.02 2.89 0 4.1.46 24.76-.35 49.47-2.72 74.12-1.92 19.94-7.47 38.76-22.16 53.03-6.24 6.06-7.68 11.62-6.11 19.5 1.49 7.46 1.96 15.13 2.97 23.49 1.86-2.56 3.24-4.43 4.59-6.32 5.66-7.92 11.03-16.11 19.11-21.87 4.13-2.95 5.12-6.83 5.11-11.64-.01-3.35 1.1-6.73 1.89-10.05.16-.67 1.07-1.56 1.73-1.65 4.02-.53 7.62 2.82 7.74 6.92.08 2.9.38 5.8.38 8.7 0 2.4 1.04 3.91 3.08 5.06 4.85 2.75 8.55 6.7 11.81 11.21 3.99 5.49 8.3 10.78 12.47 16.17zm-63.05 19.34c2.08 2.21 4.29 5.78 7.49 7.74 14.15 8.7 35.06 6.74 47.9-3.82 2.4-1.97 3.02-3.84 1.74-6.58-5.73-12.24-14.24-22.13-25.22-29.92-.72-.51-2.2-.67-2.98-.28-5.39 2.66-9.96 6.39-13.49 11.31-5 6.95-9.98 13.92-15.44 21.55zm6.34-188.18c-.56-.04-1.13-.09-1.69-.13-2.53 2.74-6.44 5.09-7.34 8.29-2.6 9.2-5.16 18.68-5.61 28.16-.93 19.43-.5 38.93-.6 58.39-.04 6.65-.01 13.29-.01 19.94.41.07.82.15 1.24.22.55-.75 1.23-1.44 1.63-2.26 4.99-10.05 9.03-20.49 10.97-31.56 4.2-24.05 2.84-48.42 3.62-72.66.07-2.77-1.44-5.59-2.21-8.39zm46.97.17c-.17 2.09-.44 3.96-.47 5.83-.29 16.44-.62 32.88-.76 49.32-.09 10.44 1.19 20.76 4 30.84 2.61 9.39 6.28 18.32 12.06 26.6.65-1.07 1.03-2.17.99-3.25-.75-20.57-1.43-41.14-2.4-61.69-.58-12.24.06-24.62-3.84-36.56-1.66-5.05-4.01-9.13-9.58-11.09zm-30.34-15.72c5.4-.41 10.03-.76 14.62-1.11 0-9.75 0-19.08 0-28.52-5.1 0-9.96 0-14.62 0z" fill="#010105"/><path d="m251.98 292.2c-9.56 12.44-18.11 24.77-23.88 38.92-5.06 12.41-10.8 24.55-16.24 36.8-1.57 3.53-3.75 6.37-7.94 6.91-2.41.31-4.54-.2-4.3-3.06.36-4.39.21-9.2 1.98-13.04 7.35-15.93 15.31-31.57 23.1-47.29 1.84-3.7 3.7-7.42 5.89-10.92 3.18-5.09 6.37-10.22 10.08-14.92 5.45-6.91 7.43-14.03 4.82-22.8-2.76-9.29-4.95-18.82-6.46-28.4-2.85-17.98-2.52-36.15-2.12-54.29.26-11.75.43-23.51.63-35.26.06-3.48-2.31-4.99-5.41-3.39-.98.5-1.95 1.17-2.68 1.98-11.97 13.31-18.09 28.6-17.18 46.83 1.11 22.23 5.39 43.93 9.48 65.69.91 4.82 1.36 9.75 1.61 14.65.11 2.14-.47 4.51-1.41 6.45-1.78 3.68-5.85 3.84-8.22.55-4.07-5.64-5.36-12.21-6.28-18.9-2.41-17.4-5.04-34.76-7.11-52.2-1.83-15.38-2.37-30.75 2.3-45.92 4.01-13.04 10.71-23.68 23.19-30.21 6.06-3.17 12.24-3.99 18.44-1.64 5.12 1.93 6.66 6.87 7.31 11.92.19 1.43.08 2.92-.08 4.36-2.71 24-.78 48.07-1.06 72.1-.03 2.97.81 5.98 1.51 8.91.69 2.87 2.48 4.67 5.68 4.74 4.11.1 7.05-1.39 8.18-4.3 4.93-12.65 5.47-25.75 3.69-39-1.15-8.53-3.15-16.95-4.02-25.5-1.43-14.02 2.1-26.61 12.44-36.8 1.4-1.38 2.66-1.93 4.68-1.6 8.11 1.32 14.01 5.49 17.7 12.85 8.17 16.27 12.85 33.58 15.16 51.56 3.14 24.38 2.28 48.69-1.57 72.93-.86 5.41-1.56 10.86-2.12 16.31-.22 2.13-1.01 2.98-3.13 3.42-6.23 1.28-7.42 1.04-8.51-5.39-.8-4.75-.56-9.8-.03-14.64 2.12-19.34 1.64-38.73.43-58.04-.93-14.81-3.12-29.56-5.33-44.25-1-6.63-3.64-12.94-8.53-17.93-1.14-1.17-2.46-2.17-3.94-3.47-3.08 7.35-3.82 14.71-3.24 22.08.84 10.59 2.44 21.11 3.41 31.69 1.12 12.15 2.18 24.34-2.37 36.17-2.54 6.61-6.08 12.11-13.22 14.61-3.36 1.17-6.57 2.83-9.76 4.45-.8.4-1.87 1.58-1.76 2.24.88 5.59 2 11.15 3.24 17.69 5.74-2.75 10.95-5.19 16.1-7.74 3.5-1.73 6.79-3.95 10.4-5.38 5.01-1.98 8.05.04 9.35 5.32.47 1.91-.1 2.77-1.65 3.75-8.51 5.38-16.95 10.87-25.41 16.33-.93.6-1.83 1.24-2.91 1.98 3.56 10.09 7.27 20.03 10.58 30.1 5.1 15.54 14.16 29.11 21.28 43.64 1.52 3.11 3.27 6.11 4.82 9.21.75 1.49 1.41 3.05 1.89 4.64.87 2.88.71 5.62-2.17 7.38-2.53 1.54-6.25.68-8.44-1.81-7.28-8.29-13.63-17.29-18.14-27.32-7.32-16.31-14.05-32.89-21.02-49.35-.55-1.33-1.05-2.68-1.73-4.4z" fill="#010105"/><path d="m251.16 81.17c-12.56 10.6-24.35 20.89-36.53 30.7-6.11 4.92-13.23 8.27-21 10.11-2.83.67-4.76.31-6-2.47-1.21-2.71-.77-6.32 1.36-7.87 7.14-5.19 14.19-10.54 21.61-15.31 8.19-5.26 16.53-10.15 23.31-17.38 8.78-9.36 12.25-20.01 9.52-32.63-1.44-6.64.03-12.84 3.02-18.83.98-1.96 2.18-2.17 4.04-1.57 5.35 1.72 8.62 6.07 8.46 12.29-.12 5.02-.76 10.03-1.29 15.03-1.27 11.9 3.45 21.02 13.28 27.33 9.86 6.32 20.05 12.13 30.11 18.14 4.31 2.58 8.72 5 12.97 7.68 3.25 2.06 4.8 5.27 4.81 9.07 0 .79-.83 1.94-1.58 2.32-3.55 1.78-6.77 1.8-10.51-.54-9.18-5.75-18.65-11.07-28.17-16.25-10.25-5.59-19.97-11.84-27.41-19.82z" fill="#010105"/></svg>