<svg enable-background="new 0 0 400 400" viewBox="0 0 400 400" xmlns="http://www.w3.org/2000/svg"><g fill="#fbfafa"><path d="m37.59 393.81c-.92.31-1.52.05-2-.78-.7-1.2-1.52-2.34-2.47-3.78v4.59c-.55.03-.95.05-1.41.07-.03-.37-.06-.64-.06-.91 0-1.91 0-3.81 0-5.7 1.13-.41 1.77-.03 2.29.91.62 1.11 1.38 2.14 2.31 3.19v-4.2h1.35v6.61z"/><path d="m12.94 393.88v-6.75c1.9.19 3.93-.54 5.37 1.29.8 1.01.78 2.88.03 3.97-1.37 1.97-3.4 1.51-5.4 1.49m1.45-1.22c2.04.12 2.92-.58 2.89-2.21-.03-1.51-.98-2.19-2.89-2z"/><path d="m11.81 393.87h-5.49c.68-2.18 2.47-3.48 3.51-5.45h-3.08v-1.21h5.29c-.71 2.13-2.44 3.48-3.47 5.51.86 0 1.63.04 2.39-.01.79-.05 1.14.21.85 1.16"/><path d="m39.33 393.86v-6.61h3.7v1.07h-2.22v1.52c.68.04 1.34.09 2.07.13v1.07c-.72.05-1.38.09-2.1.14v1.48h2.4v1.19h-3.85z"/><path d="m27.71 388.56c-1.15-.3-2.46-.61-3.1.64-.37.73-.41 1.93-.06 2.67.63 1.35 1.99.93 3.17.68.35.94-.01 1.32-.93 1.46-1.62.25-3.05-.27-3.76-1.48-.73-1.24-.6-3.03.31-4.17.88-1.11 2.71-1.7 4-1.16.32.13.44.74.65 1.12-.1.08-.19.16-.28.24"/><path d="m49.15 387.24v1.07c-.59.02-1.17.05-1.87.08v5.44h-1.48v-5.44h-1.85c-.05-.4-.08-.73-.13-1.15z"/><path d="m20.06 387.21h1.33v6.62h-1.33z"/><path d="m30.68 393.25c-.49.38-.8.79-1.05.76-.32-.05-.6-.45-.9-.7.26-.24.51-.64.8-.67.29-.04.62.3 1.15.61"/></g><path d="m296.09 375.13c-2.53-11.57-4.83-22.84-7.49-34.02-3.08-12.97-9.25-24-21.35-30.71-7.52-4.17-15.16-8.12-22.82-12.03-7.95-4.07-15.45-8.74-20.52-16.3-1.39-2.07-2.14-4.84-2.38-7.37-.42-4.55-.89-9.27-.1-13.69.92-5.19 3.08-10.18 4.91-15.18.37-1.01 1.54-1.88 2.54-2.47 3.27-1.94 6.54-3.9 9.98-5.5 3-1.39 4.06-3.21 4.05-6.66-.14-47.02-.01-94.04-.15-141.05-.04-13.31-.79-26.62-1.2-39.93-.24-7.87 1.38-15.3 5.12-22.29 1.32-2.47 2.83-2.74 5.11-1.58 3.03 1.54 5 3.95 5.27 7.28.38 4.78.49 9.6.47 14.4-.02 6.37-.41 12.75-.42 19.12-.04 36.94 0 73.89-.08 110.83-.01 2.42.63 3.82 2.82 4.98 5.13 2.72 10.11 5.75 15.15 8.65 14.93 8.59 20.6 27.7 13.07 43.17-2.7 5.54-7.42 8.48-12.62 10.34-5.72 2.05-11.86 2.91-17.81 4.3-5.29 1.24-10.74 2.05-15.82 3.88-4.23 1.52-5.83 5.01-6.32 9.95-.8 8.07 2.18 12.49 9.14 16.21 9.94 5.31 19.6 11.31 28.73 17.91 5.71 4.13 10.76 9.47 15.17 15.02 8.4 10.57 14.94 22.26 17.79 35.69 1.65 7.79 1.44 15.53-.36 23.28-.53 2.31-1.51 3.48-3.97 3.42-1.77-.07-3.55.19-5.91.35zm-37.61-176.72v36.98c3.63-.49 7.08-.77 10.44-1.47 3-.62 5.38-2.24 5.75-5.69.42-3.87 1.09-7.74 1.13-11.61.02-1.87-.75-4.06-1.88-5.57-4-5.32-9.46-8.98-15.44-12.64z" fill="#010105"/><path d="m176.88 140.96c-6.97 4.34-14.7 4.12-22.23 4.85-1.89.18-3.79.39-5.63.82-5.41 1.26-6.66 2.91-6.87 8.42-.21 5.58-.52 11.15-.83 17.62 6.68.19 13.09.4 19.5.54 5.9.13 11.86-.29 17.7.38 5.37.61 8.21 4.1 9.12 9.42-7.33 3.84-15.25 4.44-23.37 4.17-6.36-.21-12.73-.23-19.1-.35-2.04-.04-2.94.69-2.94 2.95.06 41.64.05 83.28.06 124.93 0 .43.11.87.24 1.84 3.94.27 7.9.73 11.87.76 8.62.06 17.24-.28 25.85-.1 3.63.08 7.35.73 10.82 1.79 1.82.55 3.8 2.24 4.67 3.95 1.77 3.48 1.61 5.51-2.09 6.58-4.34 1.25-8.84 2.52-13.3 2.65-18.77.55-37.56.61-56.34.99-14.35.29-28.59-.21-42.64-3.62-4.03-.98-1.94-4.1-2.8-6.16-.75-1.82.34-2.72 2.08-3.41 7.88-3.09 15.92-2.62 24.12-1.81 5.96.59 12 .37 18 .34 2.47-.01 3.53-1.29 3.54-4.07.15-29.77.46-59.54.73-89.31.1-10.97.2-21.94.29-32.9.01-1.21 0-2.41 0-4.42-7.43 0-14.54.03-21.66-.01-4.02-.02-8.08.16-12.05-.3-5.37-.63-8.06-4.09-7.92-9.06.06-2.08.78-2.97 2.95-3.04 10.05-.35 20.1-.85 30.15-1.24 7.28-.29 7.16-.27 8.38-7.29 1.19-6.81 2.23-13.69 4.11-20.33 2.99-10.57 8.26-14.59 19.34-15.18 5.68-.31 11.41-.08 17.09.3 5.91.38 8.36 3.08 9.16 9.3z" fill="#010105"/><path d="m137.08 46.75c-3.94 6.58-7.76 12.86-11.49 19.19-10.38 17.63-20.75 35.26-31.09 52.92-2.27 3.88-5.38 5.82-10 5.09-1.76-.28-2.66-.88-3.01-2.85-.87-4.99.79-9.26 3.21-13.39 9.54-16.31 19.11-32.6 28.66-48.9.45-.77 1-1.5 1.37-2.31 4.31-9.45 11.59-16.31 19.69-22.4 1.02-.76 2.63-1.17 3.91-1.06 4.2.34 7.63 2.43 10.4 5.53 2.53 2.84 5.16 5.64 7.32 8.75 13.52 19.48 27.05 38.96 40.25 58.66 2.06 3.07 2.62 7.21 3.53 10.94.46 1.86-.73 2.95-2.78 3.36-6.61 1.32-6.6 1.4-10.5-4.1-15.75-22.16-31.49-44.33-47.24-66.48-.62-.89-1.32-1.75-2.23-2.95z" fill="#010105"/><path d="m314.89 217.6c-10.11 2.02-8.64 4.18-13.82-5.69-3.67-6.99-5.36-15.07-7.53-22.78-2.11-7.51-3.37-15.27-5.64-22.73-2.23-7.34-3.46-14.72-3.81-22.37-1.15-24.71-2.49-49.41-3.71-74.11-.35-7.16.55-14.01 4.7-20.2 1.36-2.02 2.6-2.05 4.4-1.08 4.85 2.61 6.15 7.2 6.47 12.14.27 4.24.4 8.53.04 12.75-1.05 12.34.24 24.57 1.24 36.83 1.06 13.05 2.1 26.1 2.91 39.17.69 11.17 3.71 21.79 7.15 32.31 3.16 9.68 6.38 19.33 7.18 29.57.15 1.99.27 3.99.42 6.19z" fill="#010105"/><path d="m209.96 52.52c5.48.58 9.52 3.92 10.64 9.9 1.19 6.34 2.02 12.85 2.03 19.29.02 24.49-.04 48.99-.68 73.47-.55 20.8-5.13 40.97-11.44 60.75-.74 2.32-4.36 4.76-6.81 4.48-3.03-.34-4.69-2.14-5.22-5.19-1.07-6.16.25-12.06 2.09-17.8 6.84-21.37 10.4-43.29 10.11-65.66-.17-12.8-1.75-25.61-3.09-38.37-1.39-13.18-2.72-26.28 1.75-39.16.17-.52.37-1.03.62-1.71z" fill="#010105"/><path d="m114.1 251.59c-.02 16.26-1.23 31.11-6.12 45.52-1.44 4.25-3.88 6.58-8.1 7.07-1.02.12-2.92-.6-3.12-1.3-.96-3.37-2.57-7.06-1.96-10.27 3.66-19.36 1.17-38.81 1.48-58.21.14-8.83-.28-17.66-.4-26.5-.05-3.53 2.23-5.38 5.8-4.86 4.31.63 7.31 3.43 8.18 8.15 2.54 13.76 4.67 27.57 4.24 40.4z" fill="#010105"/><path d="m179.17 254.3c0 13.19 0 26.37-.01 39.56 0 .67-.05 1.34-.12 2.01-.56 5.27-2.87 7.31-8.2 7.02-.72-.04-1.76-.74-2.03-1.4-1.55-3.76-3.7-7.51-4.2-11.44-2.46-19.32-4.24-38.71-2.88-58.22.5-7.13 1.55-14.22 2.29-21.33.33-3.14 2.11-5.3 5.01-5.83 2.97-.55 6.7 2.2 7.41 5.14.57 2.36.74 4.85.82 7.29.39 12.4.69 24.81 1.01 37.21.31-.01.6-.01.9-.01z" fill="#010105"/><path d="m137.07 92.05c6.67.49 13.37.73 19.99 1.59 3.77.49 6.78 2.82 8.38 6.52.75 1.73.69 2.92-1.39 3.97-6.99 3.54-14.5 4.81-22.1 4.36-7.98-.48-15.92-1.91-23.84-3.15-1.04-.16-2.69-1.69-2.64-2.5.15-2.46-2.58-5.76 1.41-7.29 2.95-1.13 6.02-2.21 9.12-2.59 3.63-.44 7.36-.1 11.04-.1 0-.28.02-.54.03-.81z" fill="#010105"/></svg>