<svg enable-background="new 0 0 400 400" viewBox="0 0 400 400" xmlns="http://www.w3.org/2000/svg"><g fill="#010103"><path d="m258.5 47.21c.36 27.35.72 54.07 1.07 80.85 4.9.03 7.97-1.75 9.73-6.44 2.83-7.55 4.1-15.29 4.52-23.27.3-5.68.53-11.42 1.48-17.01.87-5.07 3.21-9.55 8.94-11.53 4.13 6.53 6.02 13.66 5.96 21.25-.1 13.27-4.28 25.7-7.98 38.26-1.6 5.45-5.51 8.36-9.78 10.81-2.92 1.67-6.54 2.21-9.92 2.93-2.25.48-3.04 1.45-3.16 3.78-1.17 23.14-2.47 46.28-3.73 69.42-.19 3.56-.39 7.12-.62 11.22 4.11-.93 7.88-1.7 11.6-2.69.7-.19 1.26-1.2 1.72-1.93 3.81-6.12 5.75-12.87 6.12-20 .4-7.6.34-15.21.6-22.82.12-3.45.3-6.93.84-10.34.85-5.3 2.78-6.87 8.44-7.44 3.71 6.27 5.12 13.29 5.38 20.44.56 15.48-1.95 30.52-7.23 45.1-2.63 7.27-8.51 10.28-15.29 12.13-3.22.88-6.54 1.46-9.85 1.95-2.45.37-3.15 1.76-3.52 4.01-4.25 26.16-8.61 52.3-12.92 78.45-2.27 13.79-4.44 27.59-6.79 41.36-.95 5.56-4.28 8.47-9.79 8.81-.91.06-2.29-.69-2.74-1.47-2.13-3.71-2.67-7.76-1.94-12 5.22-30.42 10.48-60.83 15.6-91.27 1.39-8.27 2.38-16.61 3.35-24.94.11-.95-.82-2.55-1.71-3-2.97-1.52-6.08-2.86-9.25-3.9-7.51-2.46-12.2-7.4-14.47-14.97-5.49-18.33-6.47-36.93-3.77-55.79.5-3.46.69-3.44 7.74-4.96 3.6 6.85 5.78 14.21 6.24 21.96.36 6.01.05 12.07.02 18.1-.05 11.37 6.48 21.76 16.22 25.45 1.74-27.88 3.47-55.67 5.22-83.77-2.98-.78-5.85-1.62-8.75-2.29-8.08-1.85-13.67-6.55-16.16-14.49-5.47-17.39-6.39-35.09-3.44-53.06.68-4.12 4.01-3.28 6.4-3.92.74-.2 2.43 1.52 3.02 2.7 4.02 8.03 4.67 16.67 4.49 25.5-.11 5.35-.29 10.79.57 16.03 1.14 6.93 5.41 11.83 12.81 14.61.6-27.03 1.18-53.67 1.78-80.62-7.52-.44-14.75-.77-21.97-1.34-2.64-.21-5.32-.73-7.85-1.55-2.86-.92-4.16-3.12-3.91-6.26.22-2.89 1.76-4.02 4.43-4.97 7.1-2.53 14.34-1.9 21.57-1.6 11.95.49 23.96.53 35.82 1.88 7.21.82 14.4 3.19 21.19 5.89 10.62 4.23 16.66 12.85 19.38 23.74 5.18 20.74 6.82 41.95 7.72 63.2.83 19.69.86 39.37-1.05 59.05-1.13 11.67-1.25 23.43-1.78 35.15-.41 9.22-2.99 17.54-9.39 24.49-8.48 9.22-16.92 18.48-25.18 27.89-5.24 5.97-10.53 12.05-11.77 20.33-1.12 7.44-.65 14.72 3.02 21.53 1.22 2.26 2.62 4.47 3.55 6.85 4.34 11.09 13.33 18.56 20.71 27.32 4.19 4.98 7.5 10.77 10.7 16.48 1.94 3.46-.31 6.72-4.37 6.47-2.4-.14-5.3-.97-6.97-2.55-13.06-12.33-24.78-25.86-34.11-41.28-4.34-7.16-6.64-15.1-7.53-23.46-.65-6.07.53-11.78 2.71-17.38 2.3-5.94 4.52-11.91 6.94-17.8.56-1.37 1.66-2.62 2.76-3.65 7.13-6.63 14.59-12.93 21.39-19.87 3.86-3.94 7.16-8.64 9.83-13.48 1.86-3.37 2.8-7.53 3.13-11.42 1.43-16.83 2.68-33.68 3.63-50.55 1.38-24.44-.15-48.76-3.66-72.98-1.12-7.74-1.27-15.64-2.63-23.34-.9-5.09-2.4-10.38-5.01-14.77-2.96-4.99-8.51-7.73-14.09-9.04-7.77-1.74-15.78-2.73-24.26-4.18z"/><path d="m128.37 335.62c.35-34.29.7-67.96 1.05-102.15-5.48-.18-10.79-.39-16.09-.51-6.04-.14-12.08-.07-18.11-.38-2.17-.11-4.44-.76-6.43-1.67-3.73-1.71-4.98-6.02-2.63-9.32.72-1.02 2.63-1.59 4.03-1.66 7.14-.36 14.29-.51 21.44-.7 3.8-.1 7.62.09 11.4-.24 5.87-.51 8.04-2.99 8.14-8.89.05-3.02-.14-6.04-.11-9.06.1-10.16 4.5-15.69 14.38-18.2 10.35-2.63 20.86-2.21 31.36-1.6 4.23.25 7.44 2.27 8.81 6.57.54 1.7.26 2.87-1.49 3.84-4.64 2.56-9.57 3.49-14.81 3.52-6.34.04-12.73-.07-19.01.67-4.85.57-5.54 2-6.11 6.81-.55 4.66-1.16 9.31-1.8 14.47 4.96.25 9.71.56 14.46.7 8.71.25 17.44.27 26.15.65 2.03.09 4.13.98 6 1.9 2.56 1.26 3.46 3.57 3.26 6.43-.21 2.99-2.17 4.12-4.64 4.3-9.45.7-18.91 1.35-28.38 1.78-5.46.25-10.93.05-16.69.05v102.36c9.79 1.44 19.59.94 29.41.46 3.33-.16 6.72-.04 10.01.44 2.14.31 4.27 1.3 6.19 2.37 2.91 1.63 5.16 4.58 4.46 7.6-.39 1.68-3.91 2.85-6.2 3.82-1.59.67-3.49.81-5.27.85-23.14.54-46.29 1.36-69.43 1.33-8.74-.01-17.47-2.07-26.21-3.11-2.53-.3-3.03-1.98-3.05-3.99-.02-2.22-1.58-4.63 1.71-6.32 6.48-3.34 13.33-3.27 20.29-3.14 7.8.13 15.61.02 23.91.02z"/><path d="m131.73 63.48c0-7.7 0-15.17 0-23.41-6.19-.09-12.28-.22-18.37-.26-4.92-.03-9.84.16-14.74-.01-1.72-.06-3.53-.69-5.09-1.46-3.26-1.62-5.3-5.58-3.56-8.73 1.07-1.95 4.3-3.71 6.63-3.79 11.07-.39 22.15-.19 33.23-.17 15.11.02 30.22 0 45.32.16 3.33.04 6.75.41 9.93 1.3 1.82.51 3.74 2.08 4.78 3.7 2.42 3.79 1.89 5.33-2.31 6.89-2.74 1.02-5.75 1.79-8.66 1.85-10.28.22-20.57.09-31.27.09-.58 8.02-1.14 15.88-1.76 24.55 8.06.13 15.72.27 23.39.36 4.69.05 9.43-.39 14.06.16 3.07.37 6.39 1.56 8.87 3.38 4.05 2.97 3.3 7.76-1.47 8.9-5.13 1.23-10.55 1.49-15.86 1.68-15.19.53-30.39.8-45.58 1.17-11.87.29-23.71.28-35.37-2.46-5.8-1.35-5.8-1.38-5.7-7.44.01-.77.07-1.53.13-2.75 14.42-1.23 28.74-2.46 43.4-3.71z"/><path d="m73.03 160.79c.67-4.72 3.18-9.37 6.4-13.53 11.67-15.02 23.3-30.08 35.41-44.73 4.29-5.18 9.73-9.5 15.01-13.74 3.46-2.78 7.67-2.88 12.09-1.61 11.46 3.28 20.87 9.85 28.81 18.33 12.61 13.47 24.75 27.37 36.94 41.22 1.64 1.86 2.64 4.4 3.49 6.79 1.31 3.66-1.34 6.76-5.16 5.81-2.47-.62-5.14-1.88-6.89-3.66-15.29-15.56-30.37-31.33-45.58-46.97-2.02-2.07-4.33-3.9-6.69-5.58-5.31-3.8-11.02-3.29-15.04 1.74-12.22 15.28-24.24 30.73-36.36 46.09-3.39 4.3-6.83 8.57-10.42 12.71-1.13 1.3-2.7 2.42-4.29 3.08-4.5 1.84-7.77-.48-7.72-5.95z"/><path d="m171.54 330.43c-1.25-4.18-2.85-7.87-3.41-11.72-2.16-14.82-4.75-29.68-3.06-44.72.95-8.4 2.69-16.73 4.61-24.98.44-1.89 2.85-4.31 4.7-4.67 3.53-.68 6.35 1.88 6.97 5.27.34 1.85.3 3.78.29 5.67-.15 22.26-.4 44.51-.42 66.76 0 3.35-.54 5.53-4.17 6.21-1.49.31-2.88 1.13-5.51 2.18z"/><path d="m142.78 158.69c-9.83 0-19.66.01-29.48-.01-3.57-.01-6.94-5.3-5.37-8.42.18-.36.56-.76.93-.87 4.45-1.3 8.89-3.55 13.37-3.63 17.88-.32 35.76-.02 53.64.23 2.61.04 5.27.89 7.77 1.75 2.71.93 4.21 3.37 3.92 6.02-.16 1.45-1.91 3.1-3.36 3.97-4.92 2.96-10.52 2.6-15.98 2.63-8.48.05-16.97.01-25.45.01.01-.55.01-1.11.01-1.68z"/><path d="m109.08 280.14c-.04 15.94-1.86 27.69-6.45 38.94-.85 2.07-6.02 4.68-8.77 3.54-1.41-.59-2.77-3.29-2.74-5.02.06-4.78 1.1-9.54 1.33-14.33.45-9.6.42-19.22.95-28.81.45-8.12 1.37-16.21 2.15-24.31.25-2.64 1.73-3.22 4.21-2.44 3.38 1.06 5.8 2.87 6.25 6.6 1.17 9.89 2.34 19.76 3.07 25.83z"/></g><path d="m385.2 377.6.6-.7c.6.4 1.3.9 1.9 1.5l-.6.7c-.8-.5-1.4-1-1.9-1.5zm.3 7.1c.6-1.4 1.1-2.9 1.5-4.5.3.1.6.3.9.4-.5 1.4-1 2.9-1.5 4.4zm.2-10.1.6-.6c.7.5 1.3 1.1 1.9 1.6l-.7.7c-.6-.6-1.2-1.2-1.8-1.7zm8.4-.8h.8v.9h1.8v.7h-1.8v1.8h-.8v-.3h-1.2v.9h3.3v2.6h-.8v-.4h-2.5c0 .3 0 .6-.1.8h3.4v.7h-3.5c0 .3-.1.6-.1.8h4v.7h-3.5c.7.9 1.9 1.3 3.6 1.5-.2.2-.4.5-.6.9-1.9-.3-3.2-1.1-3.8-2.3-.5 1.1-1.8 2-3.9 2.4-.2-.3-.4-.5-.6-.8 1.9-.4 3.1-.9 3.6-1.7h-3.2v-.7h3.5c.1-.2.1-.5.2-.8h-3.3v-.7h3.4c0-.2 0-.5 0-.8h-2.4v.3h-.8v-2.6h3.3v-.9h-1.2v.3h-.8v-1.8h-1.8v-.7h1.8v-.9h.8v.9h3.2zm-4.4 5.5h2.4c0-.3 0-.6 0-.9h-2.4zm1.2-3.1h3.2v-.8h-3.2zm4.4 2.2h-2.4v.9h2.5v-.9z" fill="#fcfbfa"/><path d="m389.2 385.8h.9v1.5h1.9v-1.5h.9v1.5h2.7v6h1.1v.9h-11.3v-.9h1.1v-6h2.7zm.2 8.7.5.8c-1.2.6-2.5 1.3-4 1.9-.2-.3-.3-.6-.6-.8 1.6-.6 3-1.3 4.1-1.9zm-2-4.3h1.9v-2.1h-1.9zm0 3.1h1.9v-2.2h-1.9zm2.7-3.1h1.9v-2.1h-1.9zm0 3.1h1.9v-2.2h-1.9zm2.4 1.3c1.4.6 2.7 1.2 4.1 1.8l-.5.9c-1.5-.7-2.8-1.4-4.1-1.9zm2.2-6.5h-1.9v2.1h1.9zm-1.9 5.2h1.9v-2.2h-1.9z" fill="#fcfbfa"/></svg>