<svg enable-background="new 0 0 400 400" viewBox="0 0 400 400" xmlns="http://www.w3.org/2000/svg"><g fill="#010103"><path d="m222.47 182.44c8.15 1.26 16.27 1.81 23.99 3.87 15.99 4.27 30.4 11.82 42.25 23.64 1.73 1.73 3.32 4.06 3.9 6.38 1.07 4.26-3.12 7.62-7.2 5.91-2.65-1.11-5.33-2.51-7.5-4.36-16.04-13.65-34.85-19.53-55.57-20.26-1.34-.05-2.68-.06-4.02-.06-.21 0-.42.12-1.09.31-1.49 11.84-3 23.85-4.62 36.8 5.5 0 10.67-.51 15.7.09 17.43 2.07 33.79 6.78 45.86 20.81 3.49 4.06 6.03 8.56 6.94 13.92.38 2.23-.02 4.28-2.17 5.01-1.69.58-3.83.63-5.54.13-1.47-.44-2.67-1.93-3.9-3.06-4.76-4.4-9.4-8.95-14.25-13.25-8.08-7.16-18.09-8.89-28.38-9.52-3.44-.21-6.89-.03-11.33-.03.53 4.73.48 9.46 1.65 13.86 3.58 13.37 10.37 25.38 16.68 37.59 1.27 2.45 2.46 5.08 2.96 7.77.93 4.99-2.14 7.62-7.11 6.59-2.86-.59-4.95-1.92-6.6-4.54-17.55-27.96-25.52-58.46-23.72-91.34 1.11-20.33 6.87-39.68 18.42-56.41 6.15-8.91 14.38-16.91 24.8-21.55 3.44-1.53 4.44-3.41 3.99-7.37-2.7-23.67-5.18-47.36-7.35-71.08-.99-10.82-.79-21.7 1.61-32.4.31-1.4.72-2.78 1.06-4.08 4.72-.09 8.01 2.13 9.48 6.71.85 2.63 1.35 5.44 1.56 8.2 1.27 16.61 2.32 33.25 3.64 49.86 1.12 14.05 2.57 28.07 3.69 42.12.19 2.44.97 3.66 3.31 4.12 1.31.25 2.54.89 3.85 1.16 17.72 3.77 28.34 16.65 37.72 30.47 8.25 12.16 11.39 26.38 12.83 40.88 1.57 15.8.73 31.43-3.05 46.97-2.2 9.07-7.99 15.64-13.49 22.45-5.62 6.96-11.63 13.62-17.77 20.13-7.61 8.06-12.01 17.74-13.08 28.44-.64 6.39 1.17 13.06 2.18 19.56.92 5.96 2.39 11.83 3.31 17.79.33 2.14.34 4.66-.5 6.57-.73 1.66-2.68 3.09-4.43 3.9-1.99.93-3.71-.19-5.14-1.99-7.61-9.6-10.45-20.73-9.91-32.67.75-16.36 4.39-32.08 12.12-46.66.77-1.45 1.81-2.82 2.98-3.96 4.88-4.77 9.76-9.56 14.83-14.12 15.15-13.6 20.7-30.82 19.46-50.68-.83-13.32-5.21-25.8-9.17-38.37-.5-1.6-1.29-3.12-1.65-4.75-2.78-12.63-11.64-20.27-21.99-26.5-11.85-7.13-25.86-4.73-35.11 5.65-5.83 6.46-11.76 12.87-15.13 21.35z"/><path d="m142.04 316.42c9.84 0 19.11-.09 28.37.04 4.68.06 9.39.22 14.01.89 3.34.48 6.39 2.04 7.66 5.71.9 2.62.57 4.77-2.36 5.52-3.75.96-7.57 2.12-11.39 2.26-15.08.55-30.17.73-45.26 1.05-13.52.29-27.06 1.24-40.49-1.28-1.43-.27-2.86-.53-4.27-.86-5.6-1.31-5.69-1.32-6.04-7.21-.06-.96.82-2.45 1.68-2.9 5.4-2.81 11.28-3.23 17.27-3.16 7.93.1 15.86.02 23.78-.01.87 0 1.74-.15 3.04-.26-.49-41.58-.97-83.02-1.47-124.97-5.99-.23-11.77-.49-17.55-.68-5.14-.16-10.3-.04-15.42-.46-2.12-.17-4.36-1.11-6.19-2.26-2.39-1.51-2.32-4.04-1.76-6.63.53-2.44 2.33-2.39 4.11-2.47 9.94-.44 19.88-.85 29.81-1.29 5.11-.23 5.1-.25 6.05-5.3 1.45-7.68 2.81-15.39 4.42-23.04 1.95-9.26 7.73-14.05 17.18-14.27 4.58-.11 9.17.06 13.75.33 5.01.29 8.17 2.83 8.55 6.89.09 1-.77 2.84-1.5 3.02-4.38 1.09-8.85 2.49-13.29 2.5-9.6.02-13.94 2.32-14.64 13.38-.31 4.89-.05 9.81-.05 15.51 7.1.12 13.87.2 20.63.38 3.34.09 6.71.16 10 .67 1.67.26 3.41 1.21 4.75 2.3 4.33 3.54 3.83 6.45-1.2 8.64-5.86 2.55-12.04 1.94-18.17 2.04-5.12.09-10.24.48-15.81.75.61 41.86 1.2 83.29 1.8 125.17z"/><path d="m74.74 116.43c1.66-3.71 2.91-7.68 5.07-11.06 4.8-7.51 10.18-14.65 15.1-22.1 4.31-6.52 8.39-13.2 12.42-19.9 4.72-7.85 10.87-14.23 19.06-18.36 1.77-.89 4.34-1.11 6.28-.62 7.48 1.9 13.25 6.69 17.56 12.78 7.05 9.93 13.51 20.27 20.21 30.45 3.5 5.32 6.97 10.67 10.47 16 2.2 3.35 3.8 6.92 3.03 11.01-.19.99-1.26 2.31-2.19 2.6-6.22 1.92-6.24 1.83-9.92-3.5-8.7-12.61-17.46-25.18-26.07-37.85-2.57-3.78-4.62-7.91-7.14-11.73-1.14-1.73-2.6-3.43-4.3-4.57-2.74-1.84-4.9-1.19-6.78 1.54-11.73 17.04-23.43 34.11-35.19 51.13-1.52 2.2-3.05 4.55-5.09 6.2-1.89 1.53-4.37 2.77-6.75 3.14-4.12.64-5.05-.55-4.97-4.77-.25-.14-.53-.26-.8-.39z"/><path d="m205.05 38.43c5.95.68 9.12 4.37 10.15 9.71 4.37 22.67 7.58 45.44 3.55 68.56-1.77 10.13-5.11 19.74-11.05 28.14-1.75 2.48-5.26 3.72-8.16 5.66-2.87-4.65-3.04-8.98-1.73-13.39 2.15-7.27 4.84-14.41 6.66-21.76 3.95-16.04 2.99-32.15-.15-48.22-.86-4.38-1.85-8.74-2.69-13.12-1.1-5.66.17-10.82 3.42-15.58z"/><path d="m312.89 141.32c-.3.27-.37.39-.47.42-8.36 2.54-8.42 2.57-12.64-4.97-6.24-11.14-9.83-23.17-12.12-35.69-2.89-15.83-6.33-31.57-6.87-47.74-.24-7.1 1.08-13.76 4.52-19.95 5.29.06 8.14 2.38 8.77 7.63 1.34 11.09 2.67 22.19 3.68 33.31 1.95 21.62 7.51 42.41 14.03 63 .44 1.36.76 2.75 1.1 3.99z"/><path d="m95.63 245.64c0-11.52.02-23.04-.01-34.55-.01-4 2.67-6.26 6.15-4.44 2.52 1.31 5.23 3.48 6.36 5.95 1.72 3.77 2.84 8.11 2.99 12.25.54 14.42.62 28.85.74 43.28.08 9.79-1.59 19.34-4.25 28.76-.66 2.35-1.74 3.24-4.08 3.46-5.79.53-6.41.3-7.19-5.47-.37-2.72.09-5.55.09-8.33.02-13.63.01-27.26.01-40.89-.28-.02-.55-.02-.81-.02z"/><path d="m167.25 300.84c-1.19-6.07-2.86-12.01-3.44-18.06-2.08-21.39-2.13-42.86-.67-64.28.33-4.85 2.7-9.57 4.16-14.34.54-1.77 1.7-1.96 3.4-1.52 4.98 1.3 7.25 3.99 7.05 9.09-.45 11.28-.79 22.57-1.6 33.82-.79 10.96-.46 21.78 1.16 32.68.84 5.64.01 11.54-.17 17.32-.1 3.33-1.8 5.05-5.3 4.86-1.34-.07-2.67.24-4.59.43z"/><path d="m128.35 97.24c5.98.55 12.01.82 17.94 1.75 4.8.76 7.46 3.41 7.58 6.81.03.98-.91 2.65-1.75 2.91-12.83 3.96-25.81 6.18-39.12 2.31-.43-.12-.87-.21-1.29-.35-5.58-1.91-6.41-3.04-5.78-7.78.25-1.86 4.43-4.74 7.66-4.86 4.9-.18 9.81-.05 14.72-.05.01-.26.03-.5.04-.74z"/></g><path d="m385.2 377.6.6-.7c.6.4 1.3.9 1.9 1.5l-.6.7c-.8-.5-1.4-1-1.9-1.5zm.3 7.1c.6-1.4 1.1-2.9 1.5-4.5.3.1.6.3.9.4-.5 1.4-1 2.9-1.5 4.4zm.2-10.1.6-.6c.7.5 1.3 1.1 1.9 1.6l-.7.7c-.6-.6-1.2-1.2-1.8-1.7zm8.4-.8h.8v.9h1.8v.7h-1.8v1.8h-.8v-.3h-1.2v.9h3.3v2.6h-.8v-.4h-2.5c0 .3 0 .6-.1.8h3.4v.7h-3.5c0 .3-.1.6-.1.8h4v.7h-3.5c.7.9 1.9 1.3 3.6 1.5-.2.2-.4.5-.6.9-1.9-.3-3.2-1.1-3.8-2.3-.5 1.1-1.8 2-3.9 2.4-.2-.3-.4-.5-.6-.8 1.9-.4 3.1-.9 3.6-1.7h-3.2v-.7h3.5c.1-.2.1-.5.2-.8h-3.3v-.7h3.4c0-.2 0-.5 0-.8h-2.4v.3h-.8v-2.6h3.3v-.9h-1.2v.3h-.8v-1.8h-1.8v-.7h1.8v-.9h.8v.9h3.2zm-4.4 5.5h2.4c0-.3 0-.6 0-.9h-2.4zm1.2-3.1h3.2v-.8h-3.2zm4.4 2.2h-2.4v.9h2.5v-.9z" fill="#fcfbfa"/><path d="m389.2 385.8h.9v1.5h1.9v-1.5h.9v1.5h2.7v6h1.1v.9h-11.3v-.9h1.1v-6h2.7zm.2 8.7.5.8c-1.2.6-2.5 1.3-4 1.9-.2-.3-.3-.6-.6-.8 1.6-.6 3-1.3 4.1-1.9zm-2-4.3h1.9v-2.1h-1.9zm0 3.1h1.9v-2.2h-1.9zm2.7-3.1h1.9v-2.1h-1.9zm0 3.1h1.9v-2.2h-1.9zm2.4 1.3c1.4.6 2.7 1.2 4.1 1.8l-.5.9c-1.5-.7-2.8-1.4-4.1-1.9zm2.2-6.5h-1.9v2.1h1.9zm-1.9 5.2h1.9v-2.2h-1.9z" fill="#fcfbfa"/></svg>