<svg enable-background="new 0 0 400 400" viewBox="0 0 400 400" xmlns="http://www.w3.org/2000/svg"><g fill="#010103"><path d="m144.64 103.82c6.76.56 13.28 1.07 19.8 1.67 4.54.41 9.22.39 13.57 1.55 5.8 1.55 10.19 5.24 12.77 11 4.31 9.65 5.84 19.9 7.11 30.23.37 3 .54 6.02.75 9.03.47 6.76.12 13.41-2.7 19.73-.39.88-.55 1.87-.85 2.95.68.24 1.18.54 1.7.6 11.3 1.12 19.68 7.77 27.04 15.41 18.49 19.18 36.48 38.83 54.75 58.23 5.22 5.54 10.74 10.79 16.03 16.25 2.86 2.95 5 6.31 4.93 10.67-.06 3.83-2.72 6.1-6.38 4.84-2.33-.81-4.76-2.17-6.43-3.95-22.42-23.95-44.68-48.03-67.05-72.03-2.97-3.19-5.97-6.48-9.49-8.97-2.89-2.05-6.47-3.42-9.95-4.25-3.06-.73-5.96.39-8.5 2.82-21.92 20.97-43.99 41.78-65.93 62.73-4.53 4.32-8.64 9.08-13.03 13.55-3.13 3.19-6.9 4.89-11.5 4.26-2.02-.28-2.84-1.1-3.11-3.4-.64-5.52 1.45-9.3 5.41-13.1 21.07-20.23 41.68-40.93 62.87-61.03 7.84-7.44 16.8-13.68 25.48-20.66-8.49-6.12-9.02-15.23-8.7-24.53.3-8.86.46-17.65-2.04-26.3-2.69-9.29-6.6-13.12-17.21-13.85-6.33-.44-12.72-.08-19.45-.08-.61 8.47-1.18 16.33-1.8 24.8 7.2-1.58 13.9-3.14 20.64-4.51 2.72-.55 5.6-1.26 8.26-.87 2.18.32 4.66 1.73 6.08 3.43 2.71 3.27 2.15 5.7-1.77 7.22-6.01 2.33-12.27 4.03-18.42 6-4.14 1.32-8.31 2.56-12.4 4.02-2.17.77-3.34 2.42-3.27 4.91.26 8.83.52 17.66.61 26.49.06 5.23.19 10.52-.44 15.69-.53 4.29-2.99 7.68-7.67 8.75-1.87.43-3.37.23-3.67-2.05-.79-6.06-2.01-12.1-2.18-18.18-.2-6.91.66-13.85.83-20.78.06-2.28-.6-4.57-1-7.29-7 2.77-13.91 3.77-18.65 10.28-5.04 6.93-11.12 13.18-17.3 19.16-3.1 3-7.37 4.86-11.23 7.02-1.7.95-3.11.05-3.47-1.83-.31-1.6-.9-3.58-.28-4.86 2.17-4.46 4.5-8.9 7.38-12.92 2.18-3.05 5.39-5.35 7.95-8.16 9.63-10.58 20.35-19.79 32.94-26.7 1.78-.98 2.45-2.21 2.55-4.23.32-7.04.75-14.08 1.37-21.11.2-2.25-.55-3.15-2.59-3.79-5.33-1.68-10.48-4.09-15.9-5.26-6.97-1.5-10.46-6.1-12.46-12.16-4-12.17-3.61-24.45-.08-36.67.89-3.07 4.06-2.17 6.23-2.85.46-.14 1.85 1.5 2.25 2.53 3.19 8.25 4.25 16.84 4.13 25.66-.12 9.16 9.72 16.91 18.66 14.8.7-.17 1.41-1.29 1.69-2.11 2.03-5.8 4.11-11.59 5.85-17.48.77-2.61 2.29-4.18 4.54-5.42 7.87-4.37 16.43-5.51 25.25-5.75 3.33-.09 6.78-.12 9.96-.97 6.63-1.77 10.23-12.03 6.37-17.5-.47-.66-1.44-1.01-2.22-1.42-10.55-5.45-21.83-6.55-33.53-6.34-11.72.21-23.46-.35-35.18-.96-2.48-.13-5.24-1.42-7.22-3-3.37-2.69-2.03-7.81 2.16-8.67 4.34-.89 8.79-1.77 13.19-1.76 13.98.01 28-.05 41.94.88 7.25.48 14.53 2.47 21.51 4.69 10.64 3.38 13.77 11.59 12.91 21.91-.41 4.9-1.14 9.78-1.97 14.63-.21 1.25-1.09 2.72-2.12 3.46-7.65 5.51-16.18 8.37-25.7 8.33-11.92-.04-18.7 4.7-22.15 15.18-.16.51-.21 1.06-.47 2.39z"/><path d="m184.71 361.51c.58-20.88 1.14-41.42 1.73-62.58-5.03 0-9.7.06-14.37-.01-12.98-.19-25.95-.39-38.93-.71-2.2-.05-4.45-.5-6.58-1.13-3.75-1.11-5.16-3.49-4.93-7.3.13-2.13.89-3.78 3.06-4.2 6.22-1.18 12.44-3 18.7-3.17 12.96-.35 25.95.21 38.93.4 1.22.02 2.44 0 4.04 0 .72-5.08 1.34-10.04 2.15-14.96 1.17-7.12 4.94-12.35 11.69-15.2 6.85-2.89 14.1-3.34 21.4-3.29 4.02.02 8.08-.04 12.07.42 5.27.61 7.66 3.47 8.16 9.13-6.31 3.14-13 5.03-20.13 5.31-.89.04-1.79.01-2.69.01-12.23 0-17.04 4.94-16.91 18.02 4.16 0 8.36-.05 12.55.01 15.22.2 30.43.37 45.64.73 2.87.07 5.78.72 8.54 1.54 1.62.48 3.28 1.58 4.41 2.85 3.08 3.48 2.48 6.06-1.65 7.97-9.18 4.25-18.89 4-28.66 3.4-10.49-.65-20.98-1.5-31.47-1.61-9.14-.09-10.59 2-10.8 11.22-.37 16.11-.96 32.22-1.45 48.33-.04 1.22 0 2.45 0 4.27 6.08 0 12.08-.06 18.07.01 16.9.19 33.79.38 50.68.71 3.11.06 6.24.56 9.29 1.21 1.56.33 3.21 1.17 4.36 2.26 2.92 2.78 2.38 5.72-1.18 7.46-7.29 3.56-15.03 3.66-22.95 3.43-17.45-.52-34.9-.94-52.35-.91-24.84.05-49.68.52-74.52.84-7.66.1-15.15-.59-22.41-3.38-2.45-.94-2.97-2.75-2.85-4.64.06-1.03 1.46-2.34 2.56-2.87 6.8-3.25 14.11-4.25 21.55-4.2 17.01.13 34.01.42 51.02.64 1.23.01 2.45-.01 4.23-.01z"/><path d="m254.56 70.65v21.77c6.41 1.19 13.28 2.49 20.16 3.72 3.08.55 6.22.8 9.28 1.44 9.38 1.97 16.53 7.63 19.41 16.35 2.87 8.71 3.85 18.17 1.69 27.51-1.26 5.44-2.54 10.89-3.58 16.37-.26 1.39 0 3.12.63 4.4 3.35 6.82 6.87 13.56 10.35 20.32 3.15 6.12 5.64 12.39 5.42 19.47-.11 3.49-1.72 5.36-5.09 5.88-3.49.54-5.84-.64-7.28-3.75-4.98-10.75-9.95-21.5-14.93-32.25-.51-1.1-1.06-2.17-1.69-3.44-1.64.66-3.14 1.12-4.49 1.85-10.6 5.72-22.21 7.48-33.94 8.42-8.43.67-16.94.9-25.39.61-4.46-.15-8.3-2.56-10.05-7.22-.74-1.98-.49-3.16 1.81-4.03 9.38-3.54 19.16-4.28 29.03-4.38 11.98-.12 23.6-1.93 34.53-7.1.68-.32 1.34-.68 2.49-1.26-10.17-9.06-20.35-16.06-34.82-14.76-10.63.96-21.42.21-32.14-.04-3.59-.08-5.36-2.1-5.48-5.14-.13-3.28 1.45-4.8 4.68-5.78 20.13-6.17 39.76-3.03 59.49 2.19 6.42 1.7 10.44 6.1 15.52 10.7.87-2.57 1.87-4.65 2.23-6.83.33-2.06.2-4.26-.11-6.34-2.16-14.52-5.47-17.69-22.02-21.38-9.4-2.1-19.57-.94-29.39-.96-9.06-.01-18.11.47-27.17.54-4.8.04-7.8-2.42-8.96-6.59-.58-2.07-.23-3.6 2.08-3.99 6.92-1.18 13.81-2.68 20.79-3.29 12.63-1.1 12.74-.87 12.62-13.32-.11-11.41-.57-22.82-.64-34.24-.04-6.45 1.61-12.58 4.38-18.44 1.01-2.14 2.18-2.4 4.18-1.68 4.55 1.63 6.84 5.11 6.45 10.52-.25 3.45-1.05 6.87-1.22 10.32-.58 11.69.59 11.28 10.21 11.56 6.89.2 13.8-1.26 20.72-1.42 5.75-.14 11.55.32 17.28.98 1.94.22 4.41.9 4.5 4.03.09 3.28.2 6.49-3.87 7.24-5.45 1.01-10.94 2.31-16.44 2.39-9.16.13-18.33-.61-27.49-.97-1.09-.02-2.19.02-3.74.02z"/><path d="m195.87 240.82c-8.83-1.14-17.65-2.35-26.5-3.4-4.47-.53-2.64-4.09-3.36-6.43-.74-2.44 1.35-2.5 2.72-3.33 6.75-4.08 14.22-3.27 21.52-3.14 9.91.19 19.82.75 29.72 1.27 1.4.07 2.77.8 4.16 1.2 2.7.77 3.32 2.57 3.38 5.29.06 2.79-1.63 3.4-3.49 4.09-9.06 3.36-18.53 3.72-28.15 4.45z"/><path d="m155.68 303.52c5.98 1.16 9.82 4.69 10.54 9.95 1.04 7.55 1.32 15.3 1 22.92-.21 5.03-1.84 10.05-3.21 14.97-.82 2.94-3.21 4.09-6.33 3.5-2.21-.41-3.67-1.44-3.82-3.88-.36-5.79-1.23-11.59-1.05-17.35.29-9.01 1.25-18 1.99-26.99.08-.95.52-1.88.88-3.12z"/><path d="m240.26 326.67c0 5.91-.16 11.83.07 17.74.11 2.88-1.11 4.61-3.57 5.24-2.59.66-5.09.06-6.63-2.52-3.18-5.31-4.52-11.13-4.63-17.24-.13-7.44.98-14.68 3.85-21.59 1.44-3.46 4.95-5.24 7.87-3.79 1 .5 1.99 1.97 2.1 3.09.33 3.21.22 6.46.25 9.7.03 3.12.01 6.25.01 9.37z"/></g><path d="m385.2 377.6.6-.7c.6.4 1.3.9 1.9 1.5l-.6.7c-.8-.5-1.4-1-1.9-1.5zm.3 7.1c.6-1.4 1.1-2.9 1.5-4.5.3.1.6.3.9.4-.5 1.4-1 2.9-1.5 4.4zm.2-10.1.6-.6c.7.5 1.3 1.1 1.9 1.6l-.7.7c-.6-.6-1.2-1.2-1.8-1.7zm8.4-.8h.8v.9h1.8v.7h-1.8v1.8h-.8v-.3h-1.2v.9h3.3v2.6h-.8v-.4h-2.5c0 .3 0 .6-.1.8h3.4v.7h-3.5c0 .3-.1.6-.1.8h4v.7h-3.5c.7.9 1.9 1.3 3.6 1.5-.2.2-.4.5-.6.9-1.9-.3-3.2-1.1-3.8-2.3-.5 1.1-1.8 2-3.9 2.4-.2-.3-.4-.5-.6-.8 1.9-.4 3.1-.9 3.6-1.7h-3.2v-.7h3.5c.1-.2.1-.5.2-.8h-3.3v-.7h3.4c0-.2 0-.5 0-.8h-2.4v.3h-.8v-2.6h3.3v-.9h-1.2v.3h-.8v-1.8h-1.8v-.7h1.8v-.9h.8v.9h3.2zm-4.4 5.5h2.4c0-.3 0-.6 0-.9h-2.4zm1.2-3.1h3.2v-.8h-3.2zm4.4 2.2h-2.4v.9h2.5v-.9z" fill="#fcfbfa"/><path d="m389.2 385.8h.9v1.5h1.9v-1.5h.9v1.5h2.7v6h1.1v.9h-11.3v-.9h1.1v-6h2.7zm.2 8.7.5.8c-1.2.6-2.5 1.3-4 1.9-.2-.3-.3-.6-.6-.8 1.6-.6 3-1.3 4.1-1.9zm-2-4.3h1.9v-2.1h-1.9zm0 3.1h1.9v-2.2h-1.9zm2.7-3.1h1.9v-2.1h-1.9zm0 3.1h1.9v-2.2h-1.9zm2.4 1.3c1.4.6 2.7 1.2 4.1 1.8l-.5.9c-1.5-.7-2.8-1.4-4.1-1.9zm2.2-6.5h-1.9v2.1h1.9zm-1.9 5.2h1.9v-2.2h-1.9z" fill="#fcfbfa"/></svg>