<svg enable-background="new 0 0 400 400" viewBox="0 0 400 400" xmlns="http://www.w3.org/2000/svg"><g fill="#010103"><path d="m205.17 204.63c.07-27.14 1.21-50.49 6.93-73.32 2.08-8.31 5.2-16.37 7.97-24.5.41-1.2 1.35-2.31 2.29-3.21 9.35-9.04 20.57-14.45 33.5-15.18 14.28-.81 28.7-1.13 42.81 1.78 21.34 4.4 33.47 19.16 35.59 40.67 1.76 17.92 3.27 35.86 4.97 53.78 1.97 20.71 1.06 41.38-1.28 61.97-1.51 13.21-3.75 26.33-5.74 39.48-.3 1.96-.91 3.92-1.64 5.78-1.67 4.26-3.93 8.34-5.2 12.71-3.91 13.45-14.17 20.45-25.91 25.79-11.41 5.19-23.59 5.29-35.88 4.75-10-.45-19-3.65-27.57-8.46-1.14-.64-2.17-1.56-3.07-2.52-10.19-10.97-15.94-23.99-18.74-38.66-5.31-27.97-9.93-55.96-9.03-80.86zm117.61-1.67c-.13-1.15-.24-2.01-.32-2.87-1.02-11.23-2.37-22.45-2.96-33.71-.49-9.37.05-18.78-.11-28.17-.19-11.39-4.51-20.66-14.68-26.55-7.4-4.28-15.55-5.87-24.46-6.53.34 33.01.69 65.8 1.03 98.88 14.1-.35 27.7-.7 41.5-1.05zm-59.4.01c0-1.71 0-3.03 0-4.36 0-14.32-.11-28.65.03-42.97.13-12.52.6-25.04.8-37.56.05-3.11-.04-6.28-.56-9.34-.66-3.9-2.61-5.09-6.44-4.18-3.69.88-7.49 1.63-10.9 3.19-4.74 2.18-10.44 4.09-13.39 7.92-3.42 4.43-5.59 10.72-6.04 16.38-1.45 18.28-1.93 36.64-2.65 54.97-.22 5.53-.03 11.08-.03 16.97 12.75-.33 25.68-.67 39.18-1.02zm-39.79 17.32c-.83 17.21-.69 33.96 1.02 50.68 1.28 12.59 5.71 23.95 12.46 34.67 4.78 7.59 12.1 10.5 19.9 13 1.31.42 2.86.16 4.3.15 2.55 0 3.26-1.23 3.2-3.8-.58-23.26-1.07-46.53-1.48-69.79-.15-8.25-.02-16.5-.02-24.91-13.66 0-26.37 0-39.38 0zm96.33.02c-13.32 0-25.8 0-38.64 0-.34 32.9-.68 65.61-1.03 98.67 8.2-1.93 15.3-4.93 21.49-9.95 4.2-3.41 7.67-7.16 9.52-12.56 5.43-15.88 8.88-32.11 9.35-48.87.25-9.01-.43-18.05-.69-27.29z"/><path d="m121.74 340.86c-.36-46.24-.71-91.86-1.07-138.43-5.21 0-10.2.01-15.19 0-6.04-.02-12.1.1-18.13-.19-2.73-.13-5.59-.76-8.08-1.86-1.79-.79-3.51-2.49-4.48-4.22-1.88-3.34-.79-5.76 2.55-7.59 6.82-3.74 14.3-3.06 21.63-3.38 7.47-.33 14.94-.59 23.13-.91 0-4.56-.25-8.8.07-12.99.34-4.54.72-9.17 1.95-13.51 1.9-6.72 6.31-11.39 13.24-13.53 10.99-3.39 22.03-4.84 33.3-1.56 4.66 1.35 7.11 4.1 6.85 8.28-.07 1.22-1.24 3.21-2.21 3.41-5.53 1.15-11.14 1.98-16.75 2.71-5.17.67-10.41.81-15.54 1.69-3.06.53-4.88 2.63-4.77 6.22.2 6.24.06 12.49.06 19.57 5.51.33 11.7.79 17.89 1.04 6.92.28 13.88-.03 20.76.64 6.14.6 9.45 4.27 9.85 9.24.14 1.76-.21 3.12-2.1 3.61-4.19 1.09-8.35 2.84-12.59 3.08-10.82.6-21.69.51-32.53.71-.88.02-1.76.13-3.13.23.34 45.82.68 91.52 1.03 138 6.24.41 12.42 1.1 18.6 1.16 6.59.07 13.18-.69 19.77-.62 4.2.05 8.48.56 12.55 1.56 5.19 1.27 8.31 4.95 9.46 10.42-4.59 3.32-9.77 4.93-15.31 5.09-25.04.73-50.08 1.51-75.13 1.91-13.48.22-26.76-1.69-39.61-6.01-1.07-.36-2.67-1.51-2.65-2.25.06-2.24-1.58-5.34 1.52-6.58 4.4-1.75 8.93-3.93 13.52-4.26 7.99-.58 16.08.28 24.13.22 5.71-.03 11.38-.57 17.41-.9z"/><path d="m66.25 125.48c.97-2.39 1.51-4.6 2.66-6.43 13.9-22.17 27.77-44.36 41.94-66.36 3-4.66 6.78-8.97 10.86-12.73 7.37-6.77 13.67-7.49 22.09.67 8.39 8.13 15.69 17.49 22.87 26.77 9.98 12.9 19.82 25.96 28.87 39.52 3.74 5.61 5.52 12.62 7.7 19.15 1.28 3.85-1.41 7.32-5.39 6.86-2.74-.31-6.25-1.59-7.77-3.65-14.02-18.99-27.73-38.21-41.42-57.44-2.65-3.73-4.48-8.08-7.36-11.59-2.54-3.1-5.91-5.58-9.15-8.02-1.47-1.11-2.96-.51-4.1 1.35-13.59 22.23-27.26 44.41-40.95 66.57-1.58 2.56-3.3 5.07-5.17 7.43-1.16 1.47-2.53 3.2-4.17 3.76-2.73.94-6.14 2.05-8.52 1.14-1.62-.59-2.01-4.5-2.99-7z"/><path d="m178.88 274.76c.4 15.31.76 30.63 1.25 45.94.1 3.14-1.88 4.78-4.18 5.25-2.12.42-5.4.22-6.62-1.12-2.06-2.26-3.65-5.51-4.12-8.55-3.06-19.8-5.15-39.73-4.6-59.77.29-10.68 1.92-21.33 2.89-31.99.29-3.22 2.5-4.98 5.01-6.17 1.92-.91 6.73 1.57 7.86 4.12 1.01 2.28 1.71 4.89 1.77 7.38.3 12.18.35 24.36.48 36.55.03 2.79 0 5.59 0 8.38.09-.02.17-.02.26-.02z"/><path d="m88.98 216.08c6.22.43 10.43 3.21 12.1 8.83 1.3 4.37 2.6 8.94 2.63 13.43.13 18.24.39 36.51-.67 54.7-.56 9.58-3.51 19.06-5.94 28.44-.52 2-3.24 3.97-5.39 4.87-3.19 1.33-6.1-1.14-6-4.57.97-34.12 1.97-68.23 2.98-102.35.01-.99.16-1.98.29-3.35z"/><path d="m135.32 97.1c6.01.35 12.06.39 18.02 1.16 4.5.58 8.07 3.03 9.88 7.59.94 2.36.56 3.91-1.67 5.29-5.18 3.19-10.89 5.23-16.82 4.99-11.36-.45-22.7-1.54-34.01-2.73-4.28-.45-6.87-5.76-5.1-9.59.35-.75 1.43-1.25 2.27-1.68 8.64-4.45 17.93-5.08 27.43-5.03z"/></g><path d="m385.2 377.6.6-.7c.6.4 1.3.9 1.9 1.5l-.6.7c-.8-.5-1.4-1-1.9-1.5zm.3 7.1c.6-1.4 1.1-2.9 1.5-4.5.3.1.6.3.9.4-.5 1.4-1 2.9-1.5 4.4zm.2-10.1.6-.6c.7.5 1.3 1.1 1.9 1.6l-.7.7c-.6-.6-1.2-1.2-1.8-1.7zm8.4-.8h.8v.9h1.8v.7h-1.8v1.8h-.8v-.3h-1.2v.9h3.3v2.6h-.8v-.4h-2.5c0 .3 0 .6-.1.8h3.4v.7h-3.5c0 .3-.1.6-.1.8h4v.7h-3.5c.7.9 1.9 1.3 3.6 1.5-.2.2-.4.5-.6.9-1.9-.3-3.2-1.1-3.8-2.3-.5 1.1-1.8 2-3.9 2.4-.2-.3-.4-.5-.6-.8 1.9-.4 3.1-.9 3.6-1.7h-3.2v-.7h3.5c.1-.2.1-.5.2-.8h-3.3v-.7h3.4c0-.2 0-.5 0-.8h-2.4v.3h-.8v-2.6h3.3v-.9h-1.2v.3h-.8v-1.8h-1.8v-.7h1.8v-.9h.8v.9h3.2zm-4.4 5.5h2.4c0-.3 0-.6 0-.9h-2.4zm1.2-3.1h3.2v-.8h-3.2zm4.4 2.2h-2.4v.9h2.5v-.9z" fill="#fcfbfa"/><path d="m389.2 385.8h.9v1.5h1.9v-1.5h.9v1.5h2.7v6h1.1v.9h-11.3v-.9h1.1v-6h2.7zm.2 8.7.5.8c-1.2.6-2.5 1.3-4 1.9-.2-.3-.3-.6-.6-.8 1.6-.6 3-1.3 4.1-1.9zm-2-4.3h1.9v-2.1h-1.9zm0 3.1h1.9v-2.2h-1.9zm2.7-3.1h1.9v-2.1h-1.9zm0 3.1h1.9v-2.2h-1.9zm2.4 1.3c1.4.6 2.7 1.2 4.1 1.8l-.5.9c-1.5-.7-2.8-1.4-4.1-1.9zm2.2-6.5h-1.9v2.1h1.9zm-1.9 5.2h1.9v-2.2h-1.9z" fill="#fcfbfa"/></svg>