<svg enable-background="new 0 0 400 400" viewBox="0 0 400 400" xmlns="http://www.w3.org/2000/svg"><g fill="#fbfafa"><path d="m37.59 393.81c-.92.31-1.52.05-2-.78-.7-1.2-1.52-2.34-2.47-3.78v4.59c-.55.03-.95.05-1.41.07-.03-.37-.06-.64-.06-.91 0-1.91 0-3.81 0-5.7 1.13-.41 1.77-.03 2.29.91.62 1.11 1.38 2.14 2.31 3.19v-4.2h1.35v6.61z"/><path d="m12.94 393.88v-6.75c1.9.19 3.93-.54 5.37 1.29.8 1.01.78 2.88.03 3.97-1.37 1.97-3.4 1.51-5.4 1.49m1.45-1.22c2.04.12 2.92-.58 2.89-2.21-.03-1.51-.98-2.19-2.89-2z"/><path d="m11.81 393.87h-5.49c.68-2.18 2.47-3.48 3.51-5.45h-3.08v-1.21h5.29c-.71 2.13-2.44 3.48-3.47 5.51.86 0 1.63.04 2.39-.01.79-.05 1.14.21.85 1.16"/><path d="m39.33 393.86v-6.61h3.7v1.07h-2.22v1.52c.68.04 1.34.09 2.07.13v1.07c-.72.05-1.38.09-2.1.14v1.48h2.4v1.19h-3.85z"/><path d="m27.71 388.56c-1.15-.3-2.46-.61-3.1.64-.37.73-.41 1.93-.06 2.67.63 1.35 1.99.93 3.17.68.35.94-.01 1.32-.93 1.46-1.62.25-3.05-.27-3.76-1.48-.73-1.24-.6-3.03.31-4.17.88-1.11 2.71-1.7 4-1.16.32.13.44.74.65 1.12-.1.08-.19.16-.28.24"/><path d="m49.15 387.24v1.07c-.59.02-1.17.05-1.87.08v5.44h-1.48v-5.44h-1.85c-.05-.4-.08-.73-.13-1.15z"/><path d="m20.06 387.21h1.33v6.62h-1.33z"/><path d="m30.68 393.25c-.49.38-.8.79-1.05.76-.32-.05-.6-.45-.9-.7.26-.24.51-.64.8-.67.29-.04.62.3 1.15.61"/></g><path d="m255.55 87c0-11.91.13-24.08-.04-36.24-.12-8.86.7-17.41 5.75-25.02 4.79.48 8.29 3.72 9.94 9.06 2.32 7.52.94 15.07.37 22.64-.65 8.69-.95 17.4-1.39 26.11-.11 2.08.72 3.08 2.98 3.48 5.16.91 10.36 1.88 15.36 3.42 21.19 6.54 32.43 21.91 36.19 42.93 3.01 16.82 5.81 33.77 7.09 50.78 2.34 31.18-.03 61.96-13.05 91.04-.89 1.99-2.6 3.85-4.36 5.18-6.37 4.8-12.94 9.32-21.63 7.61-.2 1.57-.51 2.57-.42 3.54.61 6.23-2.16 11.14-5.74 15.9-3.09 4.11-5.79 8.5-8.66 12.77-2.9 4.32-2.7 6.12 1.3 9.57 10.68 9.21 21.4 18.38 32.1 27.56 3.14 2.7 6.29 5.39 9.42 8.1 1.59 1.37 3.01 7.41 1.51 8.5-1.68 1.23-4.24 1.89-6.35 1.74-2.09-.14-4.2-1.4-6.1-2.51-15.02-8.77-26.95-21.34-39.8-32.77-2.07-1.84-3.57-4.3-5.49-6.33-8.34-8.84-9.58-20.38-12.1-31.44-.8-3.49-1.69-6.96-2.24-10.49-.39-2.46-1.71-3.77-3.93-4.4-3.11-.89-6.21-1.87-9.37-2.54-12.6-2.68-20.72-10.44-24.21-22.52-2.37-8.21-3.73-16.76-5.02-25.24-2.86-18.93-5.02-37.93-4.34-57.14.91-25.63 5.77-50.37 16.37-73.84.53-1.16 1.46-2.22 2.43-3.09 1.75-1.56 3.83-2.77 5.49-4.41 6.87-6.8 14.98-10.65 24.71-10.96.55-.02 1.1-.21 1.64-.35.28-.08.58-.23 1.59-.64zm58.77 67.66c-3.45-10.16-6.46-20.2-10.27-29.93-3.32-8.47-8.94-15.2-17.99-18.31-11.41-3.92-23.28-5.12-35.09-3.92-9.35.95-17.08 5.55-20.23 15.54-1.27 4.03-3.05 7.93-4.87 11.76-3.51 7.36-5.4 15.09-6.31 23.16-.34 2.98.62 4.81 3.19 5.82 3.53 1.4 7.13 2.59 10.7 3.88 4.26 1.55 8.83 2.34 12.12 6.02 8.76 9.79 14.61 20.92 15.28 34.2 1.17 23.12 1.69 46.28 3.12 69.39.74 11.85 2.86 23.62 4.36 35.43.3.05.6.1.9.16 1.31-2.28 2.74-4.5 3.92-6.85 8.39-16.74 9.56-34.47 7.08-52.66-2.7-19.81-3.55-39.59-1.1-59.53 1.23-10.03 5.72-17.45 14.36-22.43 6.56-3.8 13.22-7.46 20.83-11.73zm-94.45 18.8c-.41.16-.81.31-1.22.47.34 16.41.37 32.83 1.13 49.23.69 14.88 4.32 29.12 11.64 42.26 2.44 4.38 9.57 7.82 14.47 7.13 2.12-.3 2.98-.98 2.85-3.39-.73-13.39-1.12-26.8-1.89-40.19-.66-11.6-1.53-23.19-2.59-34.76-.44-4.76-2.22-9.55-6.38-12.05-5.69-3.42-11.98-5.85-18.01-8.7zm74.65 99.93c2.08-.94 3.92-2.01 5.9-2.59 4.24-1.24 6.39-4.16 7.29-8.24 2.52-11.33 5.6-22.56 7.4-34 2.33-14.84 2.91-29.86.94-44.84-.53-4-1.55-7.94-2.42-12.32-5.61 3.47-10.59 6.46-15.45 9.63-.92.6-1.75 1.85-1.97 2.94-1.29 6.22-3.38 12.48-3.36 18.72.05 23.05.81 46.09 1.32 69.14.01.41.18.81.35 1.56z" fill="#010105"/><path d="m129.78 153.71c8.02.16 15.49.3 22.95.46 5.25.11 10.52-.07 15.73.46 4.69.48 8.55 2.66 9.78 7.8.53 2.19.16 3.55-2.31 4.6-8.42 3.56-17.02 2.9-25.76 2.08-4.98-.47-10.04-.19-15.06-.15-2.43.02-3.31 1.3-3.33 3.84-.14 19.13-.71 38.26-.62 57.39.15 28.98.75 57.96 1.12 86.94.08 5.8.01 11.61.01 17.89 5.59.34 10.58.87 15.57.89 7.6.03 15.22-.63 22.81-.35 5.51.2 11.05 1.17 16.43 2.41 1.89.44 3.79 2.44 4.93 4.21 2.62 4.06 1.67 7.32-2.84 8.4-6.14 1.47-12.47 2.61-18.76 2.84-19.56.74-39.14 1.08-58.71 1.39-12.44.2-24.82-.42-36.88-4-2.95-.88-5.11-2.28-5.27-5.59-.15-3.26 1.39-5.31 4.44-6.68 7.04-3.18 14.33-2.84 21.75-2.31 6 .43 12.03.37 18.04.5 2.72.06 3.47-1.33 3.44-4-.5-39.28-.93-78.55-1.29-117.83-.13-14.65-.02-29.3-.02-44.48-4.12-.19-7.51-.46-10.92-.47-6.71-.02-13.43.24-20.14.11-5.5-.11-9.14-2.8-10.33-6.98-.77-2.71-.42-4.46 2.72-5.59 7.23-2.6 14.6-2.87 22.14-2.52 4.23.19 8.48-.21 12.73-.23 3.04-.02 4.72-1.83 5.01-4.43.5-4.41.77-8.9.55-13.32-.39-7.94 2.47-13.33 9.65-16.76 1.07-.51 2.34-.86 3.51-.86 5.37 0 10.74.05 16.11.28 4.9.22 8.23 2.94 9 7.47.18 1.07-.64 3.16-1.43 3.41-3.45 1.08-7.04 1.79-10.62 2.37-1.96.32-4.03-.09-6 .16-4.7.59-6.03 2.13-6.53 6.83-.44 4.31-.99 8.62-1.6 13.82z" fill="#010105"/><path d="m125.2 49.08c-8.42 13.19-16.73 26.19-25.03 39.19-3.25 5.09-6.63 10.1-9.72 15.29-2.74 4.59-5.12 9.38-7.73 14.05-1.47 2.63-2.93 5.28-4.64 7.75-3.82 5.51-9.17 7.07-15.68 5.74-.74-5.28.41-10.24 2.64-14.72 3.41-6.89 7.26-13.59 11.25-20.17 5.5-9.09 11.15-18.09 17.03-26.94 5.94-8.92 12.07-17.73 18.47-26.33 2.29-3.08 5.51-5.52 8.5-8.02 6-5 10.52-2.88 14.86 1.21 4.11 3.88 7.88 8.36 10.86 13.16 13.8 22.23 27.36 44.62 40.75 67.1 1.55 2.61 2.13 6.1 2.19 9.21.08 3.79-3.91 6.26-7.34 4.64-2.39-1.13-4.96-2.87-6.31-5.04-10.68-17.19-21.14-34.53-31.53-51.9-2.69-4.5-4.9-9.28-7.35-13.93-2.45-4.61-6.08-7.95-11.22-10.29z" fill="#010105"/><path d="m158.69 186.91c6.34 1.34 9.26 4.52 9.7 10.29.29 3.79.18 7.6.34 11.4.61 14.52 1.06 29.05 1.95 43.55 1.32 21.55 2.95 43.08 4.45 64.62.09 1.34.03 2.72.33 4.01.75 3.29-.85 5.43-3.68 6.14-2.76.7-5.56.01-7.25-2.81-3.2-5.33-4.04-11.27-4.69-17.31-1.67-15.56-3.75-31.09-5.19-46.67-1.72-18.59-3.81-37.25-.35-55.86 1.08-5.87 2.91-11.6 4.39-17.36z" fill="#010105"/><path d="m79.82 191.95c7.81.56 12.13 3.87 13.1 10.84 3.44 24.91 7.39 49.84 5.94 75.1-.83 14.38-2.83 28.7-4.18 43.05-.29 3.05-2.52 4.31-4.65 4.29-2.12-.03-5.4-1.15-6.08-2.7-1.46-3.36-2.49-7.39-2.11-10.98 2.56-24.27.01-48.5.08-72.75.03-10.85-2.07-21.3-3.84-31.87-.85-5.07-.03-9.99 1.74-14.98z" fill="#010105"/><path d="m152.62 100.3c-16.6 4.37-33.28 7.46-50.14.81-1.1-.43-2.58-1.75-2.6-2.69-.05-2.3-1.28-4.98 1.99-6.7 2.95-1.55 5.74-2.58 9.14-2.46 10.93.39 21.87.55 32.81.82.66.02 1.34.13 1.98.3 8.4 2.11 7.26 1.9 6.82 9.92z" fill="#010105"/></svg>