<svg enable-background="new 0 0 400 400" viewBox="0 0 400 400" xmlns="http://www.w3.org/2000/svg"><g fill="#010103"><path d="m302.13 261.19c-2.09.79-3.82 1.29-5.4 2.08-9.94 4.94-20.67 6.08-31.52 6.96-13.04 1.06-26.04 2.68-39.09 3.56-4.34.29-8.89-.51-13.13-1.62-4.19-1.11-5.8-6.48-3.53-10.21.36-.59 1.42-.99 2.2-1.07 20.59-2.08 41.2-3.95 61.76-6.24 5.61-.63 11.17-2.23 16.55-4 1.88-.62 3.62-2.85 4.59-4.77 1.2-2.36.46-4.42-2.22-6.07-11.88-7.33-24.49-11.72-38.66-11.46-6.12.11-12.26-.87-18.4-1.22-9.26-.52-18.53-.97-27.79-1.36-5.92-.25-9.07-3.74-7.99-8.94.44-2.1 1.44-3.18 3.62-3.72 15.99-3.89 32.16-4.69 48.29-1.8 13.72 2.46 27.3 5.78 40.82 9.23 3.86.98 7.28 3.72 11.24 5.84 3.73-11.72 5.5-23.51.36-35.41-.42-.97-1.64-1.76-2.67-2.29-8.3-4.22-17.25-6.5-26.42-6.94-16.63-.8-33.3-.83-49.95-1.34-3.43-.1-6.87-.73-10.25-1.4-2.7-.53-4.37-2.42-4.32-5.23.05-2.65.13-5.55 3.44-6.54 2.2-.66 4.44-1.69 6.67-1.68 19.13.06 38.26.06 57.38.63 9.19.28 18.05 2.81 26.59 6.43 10.97 4.65 15.96 13.61 17.88 24.59 2.16 12.31-1.05 24.22-3.6 36.14-.02.11-.06.22-.11.32-4.18 9.22-3.2 18.44-.95 28.03 5.97 25.51 10.08 51.38 12.35 77.46.91 10.51-.09 21.2-.25 31.8-.06 4-3.63 2.74-5.69 3.74-1.96.96-3.09-.33-3.61-1.83-1.25-3.55-2.72-7.11-3.24-10.79-2.83-19.82-5.29-39.69-8.11-59.51-1.86-13.06-4.13-26.06-6.22-39.09-.14-.63-.35-1.24-.62-2.28z"/><path d="m131.25 178.22c10.02 0 19.27-.06 28.53.03 3.79.04 7.63.1 11.34.73 4 .69 7.22 2.85 8.93 6.84.84 1.97.53 3.24-1.34 4.47-7.22 4.73-15.02 4.79-23.25 3.84-6.27-.73-12.66-.44-18.99-.48-2.05-.01-2.92 1.07-3.1 3.36-3.43 42.78-2.3 85.67-3.49 128.51-.02.66.06 1.32.15 2.89 7.31.24 14.61.66 21.92.68 7.04.03 14.09-.74 21.1-.37 3.63.19 7.46 1.6 10.65 3.42 2.13 1.22 3.31 4.12 5.13 6.56-6.7 3.52-13.07 5.14-19.49 5.29-18.54.43-37.1.36-55.65.36-11.63 0-23.27.03-34.88-.48-4.36-.19-8.68-1.71-12.95-2.9-.9-.25-1.71-1.59-2.16-2.6-1.28-2.88-.02-4.6 2.63-6.08 7.93-4.43 16.21-3.9 24.81-2.8 6.13.78 12.41.46 18.63.41 2.47-.02 3.36-1.5 3.39-4.19.57-42.19 1.24-84.38 2-126.56.05-3-.69-4.18-3.84-4.13-8.84.12-17.69.09-26.52-.12-2.86-.07-5.87-.46-8.52-1.47-2.04-.78-4.1-2.43-5.32-4.25-2.68-4-1.76-6.34 2.57-8.3 6.93-3.15 14.13-2.53 21.42-1.78 4.76.49 9.58.36 14.38.43 3.41.05 5.09-1.35 5.3-5.12.4-7.25.93-14.54 2.17-21.68 1.91-11 6.83-19.94 18.85-22.68 2.38-.54 4.86-.88 7.29-.87 5.58.03 11.18.17 16.74.63 1.75.15 3.69 1.14 5.06 2.31 4.61 3.94 3.9 8.22-1.8 9.96-3.24.99-6.75 1.15-10.16 1.46-1.76.16-3.58-.35-5.35-.26-10.26.51-13.09 1.82-14.9 12.45-1.21 6.98-.87 14.23-1.28 22.49z"/><path d="m276.34 50.52c-4.42 0-8.67-.13-12.9.11-.83.05-2.04 1.46-2.28 2.43-3.2 13.16-3.02 26.37-.44 39.61 2.37 12.18 4.7 24.37 6.89 36.59.43 2.38.43 4.94.06 7.34-.43 2.79-2.02 5.14-5.12 5.44-3.14.31-5.82-.53-7.54-3.71-5.72-10.59-7.98-22.1-8.6-33.88-.84-16.09-1.04-32.21-1.51-48.31-.04-1.33-.01-2.66-.01-4.6-5.63 1.18-10.94 2.18-16.18 3.51-.84.21-1.46 1.85-1.91 2.95-3.21 7.82-4.35 16.08-3.54 24.36 1.45 14.9 3.62 29.74 5.32 44.62.39 3.4.5 6.95 0 10.31-.69 4.6-5.6 7.01-9.85 5.17-.64-.28-1.13-1.27-1.38-2.04-7.15-21.99-11.61-44.44-9.21-67.65.88-8.49 3.47-16.81 5.47-25.16.26-1.1 1.46-2.2 2.51-2.86 7.93-5 16.83-7.62 25.99-8.18 12.25-.74 24.57-.42 36.86-.44 7.94-.02 15.9-.04 23.83.34 4.77.23 9.52 1.09 14.24 1.92 2.85.5 4.35 2.43 4.51 5.44.16 3.17-1.46 4.88-4.35 5.32-6.4.97-12.82 1.75-19.24 2.58-1.43.18-2.87.24-4.75.39 1.74 6.72 3.39 13.17 5.09 19.61 5.15 19.44 10.33 38.88 15.48 58.32.26.97.42 1.97.61 2.96.49 2.54.63 4.99-2.15 6.39-2.77 1.39-6.04.56-7.96-1.99-6.76-8.97-10.75-19.27-14.34-29.78-5.91-17.31-9.13-35.26-12.74-53.12-.23-1.18-.5-2.38-.86-3.99z"/><path d="m72.38 115.76c1.18-4.14 1.68-8.61 3.65-12.29 5.1-9.55 10.29-19.15 16.47-28.02 9.69-13.92 19.97-27.47 30.56-40.73 2.94-3.68 7.76-5.9 11.9-8.51 1-.63 2.82-.48 4.08-.09 7.23 2.22 13.01 6.87 17.2 12.85 7.1 10.15 13.8 20.62 19.99 31.35 6.3 10.93 11.89 22.28 17.53 33.59 1.3 2.61 1.69 5.73 2.15 8.68.42 2.67-.51 5.13-3.39 5.74-2.84.6-5.5-.02-7.18-2.92-5.67-9.77-11.43-19.49-17.11-29.25-7.42-12.76-14.79-25.55-22.22-38.31-.84-1.43-1.78-2.89-2.98-4.01-2.74-2.57-6.6-2.16-8.71.87-14.49 20.86-28.93 41.75-43.42 62.61-1.4 2.02-2.86 4.02-4.5 5.85-3.65 4.05-8.11 4.71-14.02 2.59z"/><path d="m100.53 261.03c.39 14.69-.72 29.23-5.37 43.32-.95 2.88-2.12 4.28-5.41 4.51-6.14.44-6.66.54-7.55-5.64-.47-3.26.1-6.66.12-9.99.09-12.95.3-25.91.18-38.86-.15-15.43-.6-30.85-.9-46.28-.07-3.69 2.39-5.71 6.04-4.96 4.86 1 7.6 4.21 8.28 8.95 1.64 11.49 3.25 23 4.51 34.54.53 4.75.1 9.6.1 14.41z"/><path d="m152.86 263.94c1.62-15.56 3.15-31.14 4.97-46.68.31-2.69 1.9-5.22 2.8-7.85 1.02-2.99 3.05-3.1 5.55-2.15 2.94 1.13 4.85 3.25 5.45 6.31.43 2.18.71 4.43.67 6.65-.23 12.07-.75 24.13-.86 36.2-.15 17.24-.08 34.48 0 51.72.01 2.78-.62 4.92-3.45 5.73-3.54 1.01-6.65-.32-8.07-3.36-4.7-10.05-5.86-20.82-6.25-31.71-.18-4.92-.03-9.85-.03-14.78-.26-.02-.52-.05-.78-.08z"/><path d="m279.68 321.29c-15.29.48-30.58 1.32-45.87 1.27-6.95-.02-13.9-1.81-20.86-2.77-2.56-.35-3.68-1.52-3.88-4.33-.36-5.01-.51-4.81 3.98-7.06 4.52-2.27 9.15-3.06 14.19-2.99 18.56.24 37.13.11 55.69.4 3.26.05 6.59 1.15 9.72 2.22 2.58.89 4.03 2.97 4.05 5.95.02 3.04-1.42 4.9-4.23 5.59-4.19 1.03-8.44 1.86-12.66 2.78-.04-.35-.08-.7-.13-1.06z"/><path d="m132.99 108.85c-8.29.01-16.5-.46-24.47-3.18-2.61-.89-2.84-2.49-2.91-4.81-.07-2.41.89-3.29 2.99-4.35 9.81-4.94 20.29-3.71 30.61-3.68 5.21.02 10.46.62 15.62 1.45 3.62.59 6.54 2.72 8.31 6.18 1.05 2.04.65 3.19-1.52 4.1-7.35 3.09-15.12 3.81-22.94 4.27-1.89.12-3.79.02-5.69.02z"/></g><path d="m385.2 377.6.6-.7c.6.4 1.3.9 1.9 1.5l-.6.7c-.8-.5-1.4-1-1.9-1.5zm.3 7.1c.6-1.4 1.1-2.9 1.5-4.5.3.1.6.3.9.4-.5 1.4-1 2.9-1.5 4.4zm.2-10.1.6-.6c.7.5 1.3 1.1 1.9 1.6l-.7.7c-.6-.6-1.2-1.2-1.8-1.7zm8.4-.8h.8v.9h1.8v.7h-1.8v1.8h-.8v-.3h-1.2v.9h3.3v2.6h-.8v-.4h-2.5c0 .3 0 .6-.1.8h3.4v.7h-3.5c0 .3-.1.6-.1.8h4v.7h-3.5c.7.9 1.9 1.3 3.6 1.5-.2.2-.4.5-.6.9-1.9-.3-3.2-1.1-3.8-2.3-.5 1.1-1.8 2-3.9 2.4-.2-.3-.4-.5-.6-.8 1.9-.4 3.1-.9 3.6-1.7h-3.2v-.7h3.5c.1-.2.1-.5.2-.8h-3.3v-.7h3.4c0-.2 0-.5 0-.8h-2.4v.3h-.8v-2.6h3.3v-.9h-1.2v.3h-.8v-1.8h-1.8v-.7h1.8v-.9h.8v.9h3.2zm-4.4 5.5h2.4c0-.3 0-.6 0-.9h-2.4zm1.2-3.1h3.2v-.8h-3.2zm4.4 2.2h-2.4v.9h2.5v-.9z" fill="#fcfbfa"/><path d="m389.2 385.8h.9v1.5h1.9v-1.5h.9v1.5h2.7v6h1.1v.9h-11.3v-.9h1.1v-6h2.7zm.2 8.7.5.8c-1.2.6-2.5 1.3-4 1.9-.2-.3-.3-.6-.6-.8 1.6-.6 3-1.3 4.1-1.9zm-2-4.3h1.9v-2.1h-1.9zm0 3.1h1.9v-2.2h-1.9zm2.7-3.1h1.9v-2.1h-1.9zm0 3.1h1.9v-2.2h-1.9zm2.4 1.3c1.4.6 2.7 1.2 4.1 1.8l-.5.9c-1.5-.7-2.8-1.4-4.1-1.9zm2.2-6.5h-1.9v2.1h1.9zm-1.9 5.2h1.9v-2.2h-1.9z" fill="#fcfbfa"/></svg>