<svg enable-background="new 0 0 400 400" viewBox="0 0 400 400" xmlns="http://www.w3.org/2000/svg"><g fill="#fbfafa"><path d="m37.59 393.81c-.92.31-1.52.05-2-.78-.7-1.2-1.52-2.34-2.47-3.78v4.59c-.55.03-.95.05-1.41.07-.03-.37-.06-.64-.06-.91 0-1.91 0-3.81 0-5.7 1.13-.41 1.77-.03 2.29.91.62 1.11 1.38 2.14 2.31 3.19v-4.2h1.35v6.61z"/><path d="m12.94 393.88v-6.75c1.9.19 3.93-.54 5.37 1.29.8 1.01.78 2.88.03 3.97-1.37 1.97-3.4 1.51-5.4 1.49m1.45-1.22c2.04.12 2.92-.58 2.89-2.21-.03-1.51-.98-2.19-2.89-2z"/><path d="m11.81 393.87h-5.49c.68-2.18 2.47-3.48 3.51-5.45h-3.08v-1.21h5.29c-.71 2.13-2.44 3.48-3.47 5.51.86 0 1.63.04 2.39-.01.79-.05 1.14.21.85 1.16"/><path d="m39.33 393.86v-6.61h3.7v1.07h-2.22v1.52c.68.04 1.34.09 2.07.13v1.07c-.72.05-1.38.09-2.1.14v1.48h2.4v1.19h-3.85z"/><path d="m27.71 388.56c-1.15-.3-2.46-.61-3.1.64-.37.73-.41 1.93-.06 2.67.63 1.35 1.99.93 3.17.68.35.94-.01 1.32-.93 1.46-1.62.25-3.05-.27-3.76-1.48-.73-1.24-.6-3.03.31-4.17.88-1.11 2.71-1.7 4-1.16.32.13.44.74.65 1.12-.1.08-.19.16-.28.24"/><path d="m49.15 387.24v1.07c-.59.02-1.17.05-1.87.08v5.44h-1.48v-5.44h-1.85c-.05-.4-.08-.73-.13-1.15z"/><path d="m20.06 387.21h1.33v6.62h-1.33z"/><path d="m30.68 393.25c-.49.38-.8.79-1.05.76-.32-.05-.6-.45-.9-.7.26-.24.51-.64.8-.67.29-.04.62.3 1.15.61"/></g><path d="m204.95 120.5c-4.14.61-7.57 1.05-10.99 1.63-5.33.91-9.83-.03-12.43-5.36-1.62.94-3.03 2.32-4.62 2.56-2.5.37-4.88-.05-6.61-2.7-10.6-16.18-21.33-32.28-32.1-48.35-1.79-2.67-3.84-5.25-6.14-7.49-3.57-3.5-7.83-2.75-10.27 1.53-9.03 15.83-18.03 31.67-27.05 47.5-2.2 3.87-4.18 7.89-6.7 11.54-1.92 2.78-4.78 4.24-8.48 3.3-1.87-.48-2.84-1.45-2.48-3.27.99-5.01 1.27-10.38 3.36-14.91 9.7-21.09 20.62-41.45 38.29-57.28 3.82-3.42 7.91-4.46 12.67-3.1 4.24 1.21 7.92 3.25 11.03 6.61 16.79 18.16 30.66 38.13 39.11 61.57.14.4.35.78.81 1.79 2.67-5.84 7.79-7.04 13.01-8.04.77-.15 1.53-.33 2.28-.56 6.08-1.85 6.04-1.86 6.34-8.27.25-5.21.61-10.42.94-16.01-6.41 1.17-12.29 2.41-18.23 3.25-3.38.48-6.87.58-10.27.35-2.77-.19-4.08-2.31-4.68-4.98-.65-2.93 1.2-4.3 3.3-4.97 6.24-1.98 12.52-3.95 18.91-5.38 11.93-2.66 12.58-2.72 12.21-15.43-.17-5.78-.59-11.59-.26-17.35.15-2.65 1.82-5.21 2.81-7.81.97-2.53 2.66-2.5 4.81-1.5 4.21 1.97 5.85 5.53 5.7 9.81-.17 4.79-1.09 9.55-1.31 14.34-.13 2.97.38 5.98.72 8.96.25 2.2 1.64 3.02 3.78 2.69 4.53-.7 9.05-1.41 13.57-2.13.77-.12 1.53-.34 2.3-.44 2.54-.31 5.9-1.22 6.94 1.54.9 2.39.05 5.53-.4 8.28-.11.69-1.58 1.39-2.55 1.67-6.99 1.98-13.98 3.95-21.02 5.69-2.07.51-2.64 1.4-2.6 3.43.12 5.79.04 11.59.04 17.75 7.11-1.11 13.83-2.18 20.55-3.2 5.86-.89 9.85 1.56 10.78 6.83.18 1.01-.46 2.64-1.27 3.27-3.93 3.02-8.61 3.95-13.47 4.51-4.3.5-8.55 1.47-12.78 2.42-2.02.46-3.01 1.8-3.04 4.14-.08 6.02-.47 12.03-.78 18.77 6.26-1.26 12.1-2.49 17.96-3.59 3.5-.66 7.04-1.51 10.56-1.49 1.99.01 4.41 1.14 5.85 2.57 3.33 3.29 2.76 6.49-1.55 8.15-5.91 2.28-12.07 3.94-18.11 5.9-4.02 1.31-8.05 2.62-12.02 4.07-1.96.71-2.76 2.17-2.74 4.44.13 15.44.14 30.88.11 46.33 0 2.33-.2 4.71-.69 6.98-1 4.67-4.99 6.56-9.18 4.38-.73-.38-1.42-1.48-1.53-2.33-.88-6.97-2.02-13.94-2.3-20.94-.39-9.94-.24-19.92-.02-29.87.08-3.32-1.23-4.29-4.08-3.72-4.15.82-8.27 1.83-12.38 2.83-1.84.45-3.61 1.23-5.46 1.63-5.25 1.13-8.1-1.11-8.67-6.47-.28-2.58.45-4.17 3.06-5.06 7.61-2.59 15.12-5.47 22.76-7.98 3.61-1.19 5.12-3.06 4.79-7.05-.41-5.19-.09-10.45-.09-15.98z" fill="#010105"/><path d="m264.01 233.09c0 12.38-.7 24.13.15 35.78 1.59 21.83 9.14 42.01 18.99 61.4 5.32 10.46 10.61 20.94 15.65 31.52 1.15 2.42 1.81 5.37 1.65 8.02-.1 1.69-1.77 3.84-3.33 4.77-1.83 1.08-3.92.33-5.6-1.58-9.69-11.07-16.73-23.77-22.43-37.18-5.55-13.05-10.51-26.34-15.73-39.53-.32-.81-.67-1.6-1.27-3.02-1.89 4.26-3.66 7.91-5.16 11.68-3.65 9.18-8.39 17.74-13.89 25.94-6.85 10.21-13.34 20.66-20.09 30.94-2.44 3.71-5.95 5.89-10.41 6.69-2.05.37-3.14-.28-4.06-1.94-1.96-3.52-.92-6.7 1-9.79 6.67-10.73 13.39-21.43 20.04-32.17 5.36-8.65 11.12-17.09 15.85-26.07 6.37-12.11 7.74-25.59 8.71-39.01.58-8.03.59-16.1.99-24.14.13-2.59-1.08-3.46-3.19-2.67-6.17 2.3-12.59 4.55-16.61 10.11-5.62 7.79-10.73 15.94-16.09 23.93-3.11 4.64-6.27 9.25-9.39 13.88-1.41 2.09-3.28 2.93-5.84 3.25-2.52.32-3.43-.63-4.12-2.68-1.26-3.76-.68-7.45 1.04-10.75 5.37-10.28 10.19-20.94 18.76-29.17.4-.39.81-.78 1.15-1.22 8.27-10.86 18.82-18.6 31.77-22.93 2.56-.86 3.57-2.69 3.61-5.02.07-4.12.08-8.27-.35-12.36-.6-5.78.14-11.16 3.52-15.98.5-.71 1.45-1.51 2.24-1.56 7.66-.55 13.21 5.53 12.33 13.14-.67 5.76-1.17 11.55-1.55 17.33-.21 3.24.93 5.38 4.49 6.72 28.52 10.72 43.37 32.97 50.88 61.23.23.86.33 1.76.41 2.65.55 6.43 1.72 4.77-4.48 7.04-2.05.75-3.11.29-4.42-1.43-6.74-8.89-11.99-18.57-15.99-28.96-5.2-13.53-15.87-21.13-29.23-26.86z" fill="#010105"/><path d="m120.22 169.34c1.66-9.15 2.94-17.52 4.75-25.78 2.12-9.72 7.05-14.19 17.01-15.14 5.41-.52 10.96-.28 16.4.23 5.45.51 7.57 3.18 8.23 8.95-4.12 2.66-8.51 4-13.57 3.25-11.9-1.77-16.76 1.95-18.07 13.8-.44 4-.41 8.04-.68 12.06-.12 1.86.6 2.67 2.46 2.69 8.04.12 16.09.2 24.12.46 4 .13 8.06.23 11.95 1.05 4.11.86 6.73 3.76 7.62 8.13-5.07 4.14-10.93 5.33-17.24 5.24-8.16-.11-16.31-.09-24.47-.09-1.32 0-2.65.13-3.9.19v130.32c7.86 0 15.19-.05 22.52.02 5.68.05 11.41-.18 17.02.53 4.86.61 8.31 3.63 9.13 9.14-6.99 3.62-14.55 5.42-22.24 5.43-18.21.01-36.41-.64-54.62-.92-5.58-.09-11.19.52-16.74.14-4.39-.3-8.73-1.55-13.06-2.52-3.36-.75-2.15-3.58-2.43-5.75-.27-2.04.9-2.65 2.51-3.28 8.2-3.19 16.65-2.51 25.15-2.06 6.08.33 12.18.06 18.43.06 0-43.97 0-87.35 0-131.64-5.84 0-11.61.05-17.38-.01-4.92-.05-9.86.02-14.75-.43-5.39-.49-8.21-3.18-8.3-7.11-.04-1.95.54-3.25 2.61-4.07 7-2.78 14.28-2.15 21.53-2.27 5.56-.08 11.12-.42 16.01-.62z" fill="#010105"/><path d="m278.84 24.86c8.28 2.3 8.56 2.33 7.76 9.51-1.23 11.1-2.58 22.21-4.42 33.22-2.38 14.3 2.6 25.12 14.25 33.31 3.47 2.44 6.69 5.23 9.99 7.91 9.17 7.43 12.93 17.29 13.2 28.85.22 9.28-1.26 18.26-4.11 27.05-5.42 16.72-12.17 32.89-20.46 48.39-1.99 3.72-5.41 5.79-8.22 4.65-1.22-.49-2.92-1.97-2.91-2.97.05-3.83.11-7.85 1.3-11.42 1.76-5.26 4.25-10.33 6.85-15.25 6.54-12.39 10.68-25.56 12.96-39.29 2.26-13.67-1.38-25.48-12.13-34.69-.33-.29-.71-.53-1.07-.77-.08-.05-.22-.02-.44-.04-2.49 11.89-4.97 23.8-7.49 35.7-1.33 6.27-3.25 12.31-7.28 17.47-3.3 4.23-7.59 6.77-12.77 8.07-2.44.61-3.62-.41-3.45-2.54.29-3.4.63-6.91 1.74-10.1 1.38-3.99 3.46-7.74 5.41-11.52 5.34-10.37 6.23-21.84 8.2-33.04.81-4.62 1.65-9.25 2.17-13.91.18-1.6-.4-3.36-.95-4.94-.43-1.24-1.23-2.4-2.06-3.44-5.05-6.42-7.01-13.65-6.78-21.84.3-10.86.04-21.77 3.64-32.18 1.9-5.54 4.66-10.77 7.07-16.19z" fill="#010105"/><path d="m92.42 195.87c6.34.33 9.98 3.02 10.51 8.81 1.51 16.46 4.53 32.81 3.6 49.46-.78 14.01-2.94 27.75-7.09 41.19-1.27 4.12-4.75 3.02-7.38 3.68-.68.17-2.42-1.89-2.86-3.2-.69-2.06-1.07-4.37-.93-6.54 1.01-16.3 2.52-32.57 3.13-48.88.26-6.96-1.29-13.99-1.98-20.99-.8-8.08-.56-16.04 3-23.53z" fill="#010105"/><path d="m151.34 246c-.11-15.84.99-31.54 5.9-46.73.53-1.65 2.19-3.69 3.69-4.05 1.3-.31 3.46 1.17 4.63 2.43 3.47 3.76 3.45 8.7 3.22 13.33-.68 13.86-1.95 27.69-2.59 41.54-.33 7.24.11 14.53.34 21.79.23 7.27.63 14.53.95 21.8.12 2.71-2.14 5.45-4.9 5.6-2.67.14-4.49-.8-5.3-3.86-4.56-16.99-5.8-34.35-5.94-51.85z" fill="#010105"/><path d="m128.55 95.82c6.1.6 12.25.95 18.3 1.89 3.53.55 6.66 2.44 7.03 6.57.09.96-.86 2.7-1.69 2.97-13.07 4.21-26.32 6.11-39.86 2.21-.96-.28-1.91-.67-2.78-1.15-1.52-.84-3.79-.74-3.67-3.55.11-2.73.03-4.86 3.19-6.5 5.48-2.86 11.18-1.49 16.77-2.04.88-.09 1.79.07 2.68.11-.01-.17.01-.34.03-.51z" fill="#010105"/></svg>