<svg enable-background="new 0 0 400 400" viewBox="0 0 400 400" xmlns="http://www.w3.org/2000/svg"><g fill="#fbfafa"><path d="m37.59 393.81c-.92.31-1.52.05-2-.78-.7-1.2-1.52-2.34-2.47-3.78v4.59c-.55.03-.95.05-1.41.07-.03-.37-.06-.64-.06-.91 0-1.91 0-3.81 0-5.7 1.13-.41 1.77-.03 2.29.91.62 1.11 1.38 2.14 2.31 3.19v-4.2h1.35v6.61z"/><path d="m12.94 393.88v-6.75c1.9.19 3.93-.54 5.37 1.29.8 1.01.78 2.88.03 3.97-1.37 1.97-3.4 1.51-5.4 1.49m1.45-1.22c2.04.12 2.92-.58 2.89-2.21-.03-1.51-.98-2.19-2.89-2z"/><path d="m11.81 393.87h-5.49c.68-2.18 2.47-3.48 3.51-5.45h-3.08v-1.21h5.29c-.71 2.13-2.44 3.48-3.47 5.51.86 0 1.63.04 2.39-.01.79-.05 1.14.21.85 1.16"/><path d="m39.33 393.86v-6.61h3.7v1.07h-2.22v1.52c.68.04 1.34.09 2.07.13v1.07c-.72.05-1.38.09-2.1.14v1.48h2.4v1.19h-3.85z"/><path d="m27.71 388.56c-1.15-.3-2.46-.61-3.1.64-.37.73-.41 1.93-.06 2.67.63 1.35 1.99.93 3.17.68.35.94-.01 1.32-.93 1.46-1.62.25-3.05-.27-3.76-1.48-.73-1.24-.6-3.03.31-4.17.88-1.11 2.71-1.7 4-1.16.32.13.44.74.65 1.12-.1.08-.19.16-.28.24"/><path d="m49.15 387.24v1.07c-.59.02-1.17.05-1.87.08v5.44h-1.48v-5.44h-1.85c-.05-.4-.08-.73-.13-1.15z"/><path d="m20.06 387.21h1.33v6.62h-1.33z"/><path d="m30.68 393.25c-.49.38-.8.79-1.05.76-.32-.05-.6-.45-.9-.7.26-.24.51-.64.8-.67.29-.04.62.3 1.15.61"/></g><path d="m266.12 164.77c8 0 15.45-.08 22.9.02 5.57.08 11.2-.06 16.69.71 4.71.66 8.07 3.68 9.03 9.09-6.03 3.64-12.53 5.11-19.69 4.57-7.55-.57-15.13-.76-22.7-.98-2.98-.09-5.13 1.11-6.28 4.26-4.07 11.22-11.89 19.76-20.18 28.02-6.09 6.07-12.29 12.14-17.58 18.89-8.88 11.3-11.04 24.89-11.6 38.87-.8 20.12 1.38 40 4.35 59.83 1.02 6.76 2.12 13.51.44 20.31-1.09 4.4-4.21 5.75-8.09 3.44-.8-.48-1.66-1.33-1.92-2.18-1.65-5.52-3.81-11-4.54-16.66-1.55-11.97-2.56-24.03-3.37-36.08-1.83-27.17 2.75-53.25 14.11-78.06.58-1.26 1.67-2.33 2.68-3.32 8.02-7.94 16.27-15.66 24.03-23.86 2.92-3.08 4.7-7.23 7.4-11.53-1.96-.25-3.11-.52-4.26-.51-9.4.08-18.79.36-28.19.27-4.66-.04-9.42-.27-13.96-1.23-5.67-1.2-8.21-4.65-8.63-10.22 6.84-3.88 14.36-4.15 22.02-4.04 10.73.16 21.47.04 32.63.04.26-5.85.53-11.93.82-18.5-3.89-.24-7.64-.66-11.38-.68-10.62-.06-21.24.2-31.85-.04-2.79-.06-5.69-1.17-8.28-2.37-2.96-1.37-5.03-4.38-3.88-7.34.77-1.98 3.97-3.02 6.1-4.44.24-.16.66-.06.99-.06 32.35.06 64.7.11 97.05.21 1.77.01 3.6.24 5.3.73 1.46.42 2.99 1.12 4.1 2.13 3.6 3.26 2.98 6.66-1.43 8.39-7.09 2.77-14.4 2.42-21.82 1.85-5.3-.4-10.67-.06-16.01.04-1.82.03-2.63.97-2.82 2.95-.5 5.46-1.32 10.87-2.18 17.48z" fill="#010105"/><path d="m126.26 305.74c-.35-45.95-.69-90.89-1.03-136.8-6.06 0-12.03.02-18-.01-4.46-.02-8.96.29-13.36-.28-4.89-.63-7.55-3.84-7.59-8.35-.01-1.03.82-2.49 1.71-3.05 6.24-3.91 13.14-3.63 20.14-3.01 4.43.4 8.91.38 13.37.38 2.5 0 3.87-1.04 4.08-4.01.44-6.35 1.04-12.73 2.25-18.97 2.62-13.49 9.56-20.12 23.19-21.71 5.34-.62 10.89.14 16.3.69 1.69.17 3.6 1.42 4.78 2.74 2.69 3.03 2.04 5.8-1.36 7.93-3.79 2.37-7.85 3-12.23 2.16-12.35-2.38-16.36.48-17.83 13.04-.53 4.54-.38 9.16-.68 13.73-.14 2.14.58 3.05 2.79 3.04 8.49-.04 16.98-.04 25.46.08 3.45.05 6.96.1 10.34.72 4.23.78 7.3 3.23 8.31 7.72.45 1.99.17 3.23-2.06 4.09-6.75 2.61-13.7 2.96-20.79 2.64-6.59-.29-13.18-.43-19.77-.73-3.38-.16-4.47 1.09-4.43 4.63.2 18.24.09 36.48.09 54.73v73.53 4.23c7.1 1.64 14.07 1.4 21.09 1.09 7.57-.34 15.16-.27 22.75-.29 1.2 0 2.42.39 3.6.73 4.97 1.46 6.15 3.1 5.61 8.17-.09.81-.9 1.98-1.63 2.22-4.08 1.32-8.21 3.29-12.38 3.42-19.88.63-39.78.61-59.67 1.1-12.15.3-24.1-.78-35.98-3.27-2.57-.54-3.73-1.44-3.69-4.06.02-1.43-.33-2.87-.55-4.55 4.6-2.48 9.53-3.67 14.71-3.71 10.62-.06 21.23-.01 32.46-.01z" fill="#010105"/><path d="m225.38 270.29c5.32-2.08 10.43-1.49 15.48-.44 10.6 2.2 21.06 5.3 32.05 4.98 3.18-.09 7.54.52 8.27-3.24.46-2.34-1.87-5.62-3.66-7.93-10.26-13.22-24.79-21.01-38.67-29.53-3.33-2.04-3.86-4.92-4.46-8.03-.12-.63.77-1.78 1.49-2.2 3.85-2.22 8.22-2.64 11.9-.52 8.48 4.9 17.15 9.73 24.71 15.87 6.6 5.35 11.84 12.39 17.56 18.8 1.24 1.38 1.94 3.24 2.89 4.89 8.34-6.81 11.98-22.36 7.41-31.88-.45-.95-1.37-1.75-2.23-2.42-6.27-4.87-12.67-9.59-18.86-14.56-4.53-3.63-7.61-8.19-7.47-14.33.02-.78.11-1.56.25-2.33.05-.29.33-.55 1-1.58 4.75 1.58 9.91 2.7 14.54 4.95 10.82 5.26 19.15 13.43 25.43 23.69 5.74 9.38 6.28 19.14 2.07 29.2-2.11 5.05-3.98 10.27-6.73 14.96-2.04 3.49-5.44 6.15-7.98 9.39-.99 1.27-1.83 3.09-1.81 4.66.18 22.15.71 44.31.69 66.46 0 6.88-1.19 13.79-2.18 20.64-.63 4.4-3.2 6.2-6.82 5.65-2.91-.44-4.28-1.59-4.26-5 .17-26.52.1-53.05.09-79.57 0-4.4-.57-5.04-4.95-4.01-7.08 1.66-14.16 3.94-21.47 2.68-8-1.38-16.04-2.97-23.75-5.43-6.1-1.96-10.5-6.31-10.53-13.82z" fill="#010105"/><path d="m275.57 46.62c-7 .62-13.64 1.2-20.5 1.81.5 8.29.95 16.19 1.45 24.09.54 8.49 1 16.98 1.76 25.45.49 5.44 1.37 10.85 2.29 16.24.54 3.14-.24 5.62-2.95 7.15-2.06 1.16-7.29-.84-8.58-3.02-4.59-7.81-6.35-16.38-6.83-25.31-.71-13.29-1.49-26.57-2.25-39.85-.02-.3-.2-.59-.4-1.15-5.21 1.35-10.39 2.61-15.52 4.1-.89.26-1.73 1.35-2.21 2.26-4.24 8.01-4.58 16.53-2.67 25.14 1.4 6.31 3.45 12.48 5.08 18.75.45 1.71.56 3.53.62 5.31.22 7.19-2.58 10.56-10.07 12.02-4.31-6.8-6.83-14.38-8.45-22.28-2.66-12.93-3.39-25.83-.78-38.96 1.59-7.99 5.88-12.47 13.27-15.47 15.09-6.12 30.83-9.11 46.83-11.13 7.87-.99 15.78-1.86 23.7-2.34 4.88-.29 9.82.17 14.72.51 1.38.1 3.09.59 3.97 1.54 1.62 1.73 3.12 3.82 3.78 6.02.17.58-2.75 2.64-4.51 3.16-5.87 1.73-11.86 3.07-18.21 4.65.81 5.11 1.7 10.37 2.45 15.64 2.29 16.03 6.41 31.49 13.58 46.11 1.25 2.55 1.42 5.87 1.25 8.79-.09 1.62-1.59 3.96-3.03 4.52-2.36.92-4.99.39-6.75-2.18-6.36-9.33-10.76-19.52-14.11-30.26-3.96-12.7-4.89-25.89-6.63-38.96-.07-.67-.16-1.32-.3-2.35z" fill="#010105"/><path d="m77.35 118.89c-2.09-6.39-.89-12.48 1.62-18.1 3.86-8.65 8.45-16.97 12.62-25.49 7.14-14.58 16.94-27.34 27.43-39.55 3.41-3.97 8.2-6.8 12.52-9.93.91-.66 2.55-.68 3.78-.49 12.66 1.92 22.73 8.53 29.78 18.81 8.07 11.77 15.11 24.25 22.44 36.51 3.44 5.75 6.44 11.75 9.8 17.55 2.06 3.55 3.67 7.12 3.32 11.36-.25 3.09-1.51 5.64-4.51 6.4-2.82.71-4.7-1.23-6.17-3.59-11.65-18.69-23.25-37.41-35.11-55.96-2.68-4.19-6.03-8.06-9.55-11.59-5.34-5.34-11.9-4.78-16.91.73-12.09 13.32-20.37 29.05-28.48 44.87-3.31 6.46-6.28 13.08-9.46 19.61-2.58 5.3-6.59 8.62-13.12 8.86z" fill="#010105"/><path d="m112.33 238.94c-.53 16.56-1.79 33.04-6.49 49.03-.52 1.75-1.86 3.6-3.35 4.67-3.27 2.35-7.13.8-8.35-3.02-2.25-7.03-.34-13.95.53-20.9.33-2.65.75-5.32.75-7.98.06-23.82.03-47.63.04-71.45 0-4.74 2.1-6.02 6.25-3.85 3.89 2.03 6.43 4.95 7.15 9.47 2.32 14.58 3.92 29.22 3.47 44.03z" fill="#010105"/><path d="m168.65 292.12c-7.2-13.45-8.79-27.54-8.55-42.01.3-18.23.6-36.46.92-54.69.1-5.8 1.36-11.25 4.47-16.27 1.15-1.86 2.36-1.98 4.16-1.32 3.89 1.42 6.12 4.62 6.11 9.79-.03 11.3-.22 22.59-.4 33.88-.32 20.35-1.02 40.71 1.56 60.99.15 1.22.05 2.47.26 3.68.31 1.84-.23 2.91-2.12 3.48-2.14.65-4.16 1.59-6.41 2.47z" fill="#010105"/><path d="m135.27 75.02c5.57.35 11.15.48 16.69 1.11 4.17.47 8.03 1.97 10.33 5.96 1.04 1.82 1.25 3.52-.97 4.38-4.53 1.77-9.02 4.18-13.73 4.8-11.01 1.47-22.04.54-32.84-2.28-3.06-.8-5.08-3.45-4.49-6.42.27-1.35 1.43-2.89 2.64-3.61 6.91-4.16 14.62-4.13 22.37-3.94z" fill="#010105"/></svg>