<svg enable-background="new 0 0 400 400" viewBox="0 0 400 400" xmlns="http://www.w3.org/2000/svg"><g fill="#010103"><path d="m243.16 122.61c0-12.6.04-25.12-.01-37.63-.05-11.97-.39-23.94-.26-35.91.08-7.53 1.61-14.87 4.68-21.84.84-1.91 1.79-2.42 3.83-1.75 3.07 1.02 5.11 2.91 5.52 6.06.41 3.2.55 6.46.54 9.7-.1 26.41-.25 52.83-.38 79.24 0 .32.14.63.31 1.31 4.93.3 9.96.32 14.91.97 6.64.87 13.28 1.94 19.8 3.45 7.88 1.82 13.32 6.77 16.86 14.12 3.87 8.05 5.15 16.57 5.61 25.34 2.84 53.91 1.47 107.86 1.3 161.8-.05 14.1-.88 28.19-1.19 42.28-.06 2.71-1.38 4.13-3.52 5.12-2.9 1.33-5.99.3-6.52-2.81-1.25-7.35-2.5-14.78-2.68-22.2-.27-10.95.54-21.92.63-32.89.14-18.91.18-37.83.09-56.74-.13-27.31-.39-54.62-.67-81.93-.06-5.37-.18-10.76-.76-16.09-1.65-15.17-6.01-19.83-19.16-23.68-8.99-2.64-18.34-3.07-27.61-2.29-9.66.81-19.26 2.34-28.88 3.6-4.79.63-7.58 3.83-9.8 7.78-2.74 4.87-3.98 10.1-4.52 15.64-2.39 24.33-1.73 48.73-1.86 73.12-.19 37.27-.52 74.54-.76 111.81-.05 8.16-.01 16.32-.01 24.58-3.73.76-6.55 1.34-9.58 1.96-3.3-6.98-4.35-14.28-4.47-21.64-.2-12.64.13-25.3.02-37.94-.22-26.52-.46-53.05-.92-79.57-.45-25.78.74-51.46 4.37-77 .22-1.53.71-3.05 1.32-4.48 2.71-6.38 5.4-12.76 8.35-19.03.73-1.56 2.14-3.14 3.65-3.95 9.12-4.89 19.26-6.29 29.27-8.05.43-.07.86-.15 2.5-.46z"/><path d="m121.6 336.86c0-47.66 0-94.76 0-142.72-4.47 0-9.15.16-13.8-.04-6.02-.26-12.08-.46-18.03-1.31-5.24-.75-7.3-3.64-6.8-7.85.27-2.31 1.21-3.38 3.8-3.58 11.37-.88 22.73-2.03 34.09-3.1.65-.06 1.29-.21 1.32-.21 1.31-7.55 2.16-14.88 3.89-21.99 3.68-15.11 9.76-19.62 25.42-19.55 4.46.02 8.94.24 13.38.62 1.37.11 3.17.66 3.89 1.65 1.5 2.08 2.81 4.51 3.3 6.98.13.65-2.92 2.41-4.71 2.85-2.76.69-5.69.84-8.56.92-2.79.08-5.59-.42-8.37-.32-6.86.24-10.47 3.23-12.08 9.87-.42 1.73-.67 3.52-.82 5.3-.35 4.44-.6 8.9-.94 14.27 7.46.14 14.55.25 21.64.4 4.01.09 8.08-.17 12.01.45 5.31.84 7.48 3.41 8.74 8.98-7.24 4.76-15.25 5.57-23.71 4.84-4.77-.41-9.59-.17-14.39-.11-2.25.03-3.14 1.15-3.14 3.63-.08 26.64-.29 53.28-.48 79.92-.13 17.91-.3 35.82-.45 53.72-.01 1.67 0 3.34 0 5.8 6.98.15 13.85.27 20.72.45 6.69.18 13.41.08 20.05.78 3.97.42 6.9 3.02 7.69 7.36.37 2.04-.1 3.61-2.18 4.23-2.98.89-5.98 2.22-9.01 2.32-21.01.72-42.03 1.2-63.05 1.68-9.55.22-18.95-.99-28.26-3.13-3.04-.7-4.81-1.88-4.99-5.1-.07-1.21-.45-2.41-.73-3.87 6.26-3.33 13-4.25 20-3.91 5.36.26 10.71.76 16.07.84 2.63.04 5.27-.64 8.49-1.07z"/><path d="m265.63 258.39c5.39.33 10.94.78 16.49.99 5.11.19 8.31 2.17 9.88 6.94.29.9-.19 2.58-.91 3.19-3.65 3.04-7.94 3.63-12.62 3.14-3.28-.34-6.66-.06-9.96.23-.75.07-1.91 1.27-2 2.05-.88 7.66-1.57 15.33-2.38 23.6 3.36.41 6.5.99 9.67 1.14 4.13.19 8.31-.28 12.4.18 2.51.28 5.44 1.16 7.2 2.82 3.73 3.52 2.36 8.34-2.42 9.81-10.41 3.22-21.19 3.52-31.91 3.14-11.38-.4-22.74-1.51-34.08-2.61-1.82-.18-4.02-1.55-5.13-3.05-2.46-3.31-1.3-6.67 2.68-7.51 4.54-.96 9.25-1.22 13.89-1.59 3.77-.3 7.58-.17 11.34-.54.86-.08 2.28-1.39 2.3-2.17.17-7.81.1-15.63.1-24.03-5.81-.25-11.35-.46-16.89-.73-2.45-.12-5.03.05-7.31-.68-2.1-.67-4.37-1.99-5.69-3.7-2.7-3.51-1.84-6.47 2.36-7.62 4.36-1.18 8.96-1.56 13.48-2.01 3.87-.39 7.81-.2 11.66-.67.92-.11 2.27-1.78 2.35-2.82.47-5.8.69-11.62.8-17.43.02-.97-.65-2.51-1.41-2.84-12.82-5.54-18.83-15.91-19.91-29.17-1.15-14.14-1.62-28.34-2.03-42.53-.15-5.21 2.22-9.71 6.16-13.23 6.21 2.97 7.73 5.66 6.94 12.23-.07.56-.19 1.11-.23 1.66-.65 7.84.44 9.16 8.15 9.66 7.03.45 14.07.84 21.1 1.23.98.06 1.96.01 3.35.01.47-5.78.87-11.32 1.39-16.86.41-4.42 2.91-6.93 6.89-7.35 1.92-.2 3.32.23 3.75 2.3 1.16 5.56 3.06 11.09 3.3 16.69.74 17.35-2.08 34.31-7.07 50.93-1.26 4.18-3.13 7.65-7.42 9.19-6.7 2.41-9.29 6.95-8.37 14.06.57 4.27.11 8.68.11 13.95zm-22.02-68.95c-.21 2.15-.48 3.91-.54 5.68-.27 7.29-.2 14.46 3.7 21.1 2.95 5.02 7.43 6.2 12.57 5.58 4.9-.6 9.05-2.73 10.4-8.03 1.13-4.42 2.21-8.87 2.93-13.37.44-2.71.39-5.57.06-8.3-.12-.98-1.7-2.51-2.64-2.53-8.69-.21-17.39-.13-26.48-.13z"/><path d="m188.69 133.04c-2.65.93-5.15 1.81-7.8 2.74-6.48-7.49-11.1-16.02-15.27-24.81-7.53-15.84-14.96-31.73-22.45-47.59-1.58-3.34-4.02-5.65-7.9-5.89-2.21-.14-3.86.35-4.99 2.82-9.36 20.54-18.93 40.98-28.33 61.5-1.95 4.26-3.44 8.72-5.25 13.05-.55 1.32-1.27 2.65-2.2 3.72-2.29 2.64-5.57 3-8.25 1.56-1.45-.78-2.41-3.61-2.48-5.55-.09-2.47.52-5.17 1.54-7.45 7.93-17.74 16.03-35.4 24.1-53.08 1.21-2.64 2.82-5.14 3.73-7.87 3.43-10.31 10.16-17.85 18.99-23.85 1.69-1.15 2.86-1.5 4.75-.56 9.6 4.79 17.33 11.71 22.44 21.05 12.13 22.21 21.99 45.42 29.37 70.21z"/><path d="m97.97 212.31c5.39.5 8.66 3 9.79 7.7.75 3.14 1.33 6.39 1.39 9.6.35 20.24.94 40.49.58 60.72-.15 8.04-2.55 16.04-3.91 24.06-.67 3.91-3.01 5.45-6.9 6.29-3.81.83-5.23-.63-5.9-3.7-.47-2.15-.72-4.41-.65-6.61.53-17.21.96-34.42 1.81-51.62.71-14.39 1.91-28.75 2.94-43.12.07-1.07.53-2.12.85-3.32z"/><path d="m275.48 62.08c.86-7.87 1.83-16.87 2.83-25.86.32-2.89 1.84-5.42 4.7-5.6 3.47-.22 6.95 3.32 7.13 6.31.8 13.18 1.91 26.36 2.23 39.55.19 7.45 2.83 13.73 6.77 19.62 2.92 4.36 6.54 8.24 9.48 12.59 2.86 4.22 5.52 8.63 7.71 13.22.74 1.55.45 4.41-.57 5.78-1.48 1.99-4.27 2.56-6.71 1.27-2.22-1.17-4.6-2.42-6.22-4.24-6.25-7.02-12.32-14.21-18.26-21.5-4.76-5.84-6.37-13.02-7.35-20.23-.88-6.52-1.12-13.13-1.74-20.91z"/><path d="m156.06 262.16c-.05-17.42.15-31.73 3.59-45.76.21-.87.5-1.72.69-2.59.57-2.61 2-4.6 4.67-5.07 2.8-.49 6.81 1.84 7.31 4.72.66 3.76 1.13 7.81.46 11.52-3.69 20.25-4.97 40.51-2.61 61.06 1.11 9.63.88 19.42 1.16 29.14.08 2.88-1.92 4.48-4.44 4.42-2.32-.06-4.84-.09-5.46-3.89-3.08-18.78-6.22-37.52-5.37-53.55z"/><path d="m224.29 69.86c-.2 13.94-4.57 26.75-9.33 39.44-1.88 5.01-3.8 10.06-6.31 14.78-1.4 2.62-3.71 5.09-6.2 6.73-4.22 2.77-8.09.57-7.73-4.44.27-3.69 1.5-7.4 2.87-10.89 3.3-8.4 7.46-16.49 10.31-25.03 3.73-11.19 1.78-22.84 1.13-34.32-.32-5.58-.76-11.16-1.03-16.75-.17-3.56 2.48-5.48 5.84-4.41 3.95 1.26 6.19 4.27 6.8 8.04 1.45 8.92 2.46 17.9 3.65 26.85z"/><path d="m136.24 102.29c5.56.42 11.16.6 16.68 1.36 3.76.52 7.04 2.3 8.07 6.54.45 1.87.01 3.09-1.92 4-6.1 2.86-12.53 4-19.18 4.1-9.23.15-18.27-.78-26.96-4.31-2.3-.94-2.07-2.45-2.19-4.24-.12-1.83.57-2.68 2.25-3.5 7.4-3.57 15.26-3.93 23.25-3.95z"/></g><path d="m385.2 377.6.6-.7c.6.4 1.3.9 1.9 1.5l-.6.7c-.8-.5-1.4-1-1.9-1.5zm.3 7.1c.6-1.4 1.1-2.9 1.5-4.5.3.1.6.3.9.4-.5 1.4-1 2.9-1.5 4.4zm.2-10.1.6-.6c.7.5 1.3 1.1 1.9 1.6l-.7.7c-.6-.6-1.2-1.2-1.8-1.7zm8.4-.8h.8v.9h1.8v.7h-1.8v1.8h-.8v-.3h-1.2v.9h3.3v2.6h-.8v-.4h-2.5c0 .3 0 .6-.1.8h3.4v.7h-3.5c0 .3-.1.6-.1.8h4v.7h-3.5c.7.9 1.9 1.3 3.6 1.5-.2.2-.4.5-.6.9-1.9-.3-3.2-1.1-3.8-2.3-.5 1.1-1.8 2-3.9 2.4-.2-.3-.4-.5-.6-.8 1.9-.4 3.1-.9 3.6-1.7h-3.2v-.7h3.5c.1-.2.1-.5.2-.8h-3.3v-.7h3.4c0-.2 0-.5 0-.8h-2.4v.3h-.8v-2.6h3.3v-.9h-1.2v.3h-.8v-1.8h-1.8v-.7h1.8v-.9h.8v.9h3.2zm-4.4 5.5h2.4c0-.3 0-.6 0-.9h-2.4zm1.2-3.1h3.2v-.8h-3.2zm4.4 2.2h-2.4v.9h2.5v-.9z" fill="#fcfbfa"/><path d="m389.2 385.8h.9v1.5h1.9v-1.5h.9v1.5h2.7v6h1.1v.9h-11.3v-.9h1.1v-6h2.7zm.2 8.7.5.8c-1.2.6-2.5 1.3-4 1.9-.2-.3-.3-.6-.6-.8 1.6-.6 3-1.3 4.1-1.9zm-2-4.3h1.9v-2.1h-1.9zm0 3.1h1.9v-2.2h-1.9zm2.7-3.1h1.9v-2.1h-1.9zm0 3.1h1.9v-2.2h-1.9zm2.4 1.3c1.4.6 2.7 1.2 4.1 1.8l-.5.9c-1.5-.7-2.8-1.4-4.1-1.9zm2.2-6.5h-1.9v2.1h1.9zm-1.9 5.2h1.9v-2.2h-1.9z" fill="#fcfbfa"/></svg>