<svg enable-background="new 0 0 400 400" viewBox="0 0 400 400" xmlns="http://www.w3.org/2000/svg"><g fill="#010103"><path d="m172.09 56.16c4.03 8.77 5.13 17.77 5.11 27.05-.02 7.8-.15 15.65.69 23.38.65 5.96 3.94 11.02 9.25 15.36 0-1.72-.01-2.9 0-4.08.22-19.93.3-39.86.73-59.78.21-9.74 1.23-19.45 4.55-28.72.57-1.58 1.66-3.77 2.94-4.13 2.67-.74 6.58 1.74 7.15 4.32.65 2.91.94 5.97.82 8.95-.84 21.93-1.83 43.85-2.72 65.77-.14 3.58-.11 7.17.08 10.74.14 2.54.9 4.87 3.82 5.68 2.96.82 4.5-.89 5.99-3.05 4.43-6.42 5.91-13.72 6.18-21.28.35-9.61.32-19.23.57-28.84.05-1.99.48-4 .93-5.96.71-3.1 2.64-5.03 5.8-5.82 1.68-.42 2.96-.18 3.43 1.53 1.4 5.03 3.55 10.04 3.83 15.15.9 15.97-1.21 31.69-5.75 47.07-.99 3.35-2.65 5.97-5.52 8.08-5.09 3.74-9.37 8.84-16.98 8.68.94 5.27 1.3 10.21 2.73 14.83 4.02 13.03 8.24 26.01 12.85 38.84 3.81 10.59 5.07 21.5 5.49 32.6.95 24.78-3.84 48.74-10.31 72.47-4.03 14.77-7.86 29.6-11.91 44.36-2.08 7.59-5.05 14.78-10.08 21.02-2.82 3.5-5.77.68-8.56.32-.88-.11-1.96-2.39-2.11-3.77-.82-7.64 1.31-14.84 3.7-21.98 6.03-18.01 12.78-35.82 17.85-54.09 5.48-19.73 9.3-39.91 7.92-60.63-.67-9.99-2.81-19.65-7.2-29.88-.36 2.16-.59 3.36-.75 4.56-.16 1.22-.26 2.45-.36 3.67-1.54 19.85-7.55 38.82-11.43 58.2-1.1 5.48-1.94 11.09-3.81 16.32-2.04 5.72-4.85 11.23-7.86 16.53-2.15 3.79-5.88 5.67-10.47 5.49-1.88-.08-3.22-.76-3.07-2.68.27-3.4.45-6.89 1.43-10.11 1.01-3.27 2.85-6.31 4.49-9.35 5.42-10.05 6.85-21.22 9.02-32.16 2.78-14.03 5.2-28.13 7.68-42.21 1.47-8.34 1.68-17.09 4.45-24.96 2.33-6.64 2.06-12.48.57-18.85-1.17-5-1.85-10.12-3.04-15.12-.3-1.25-1.5-2.51-2.61-3.28-1.35-.93-3.01-1.49-4.61-1.95-10.14-2.91-15.46-10.13-17.8-19.95-4.13-17.31-4.7-34.78-1.89-52.33.91-5.7.04-5.05 6.15-5.74.8-.07 1.57-.15 2.64-.27z"/><path d="m269.34 105.34c8.2.53 11.08 4.35 10.25 11.55-.57 4.95-.54 9.98-.42 14.97.02 1.05 1.36 2.5 2.45 3.02 3.62 1.74 7.31 3.41 11.14 4.62 9.61 3.02 14.87 10.31 18.76 18.85 4.06 8.91 4.77 18.27 3.22 27.92-.75 4.66-4.58 2.84-7.04 3.85-2.16.89-2.51-1.03-3.15-2.43-2.65-5.76-4.37-11.79-4.31-18.14.05-5.82-2.36-10.22-7.03-13.32-3.94-2.61-8.17-4.8-12.97-7.58-.85 24.45-1.67 47.87-2.51 72.24 8.77.08 17.11.12 25.45.27 3 .05 6 .38 9 .62.55.04 1.09.23 1.61.42 3.8 1.36 7.86 5.54 6.59 7.44-1.43 2.12-4.36 3.55-6.93 4.49-2.1.77-4.62.44-6.96.5-2.79.07-5.59-.02-8.38.06-1.71.05-2.52.93-2.49 2.8.37 25.52.05 51.07 1.25 76.54.75 15.93 3.86 31.74 5.72 47.63.34 2.93.2 6.07-.48 8.92-1.01 4.19-5.06 6.03-8.95 4.38-.8-.34-1.44-1.58-1.73-2.54-5.43-17.97-8.72-36.37-9.44-55.09-.99-25.61-1.23-51.24-1.79-76.87-.03-1.56 0-3.12 0-4.94-5.95 0-11.69 0-18.26 0 0 4.57.11 9.13-.02 13.67-.9 32.56-1.72 65.13-2.87 97.68-.22 6.31-1.43 12.66-2.83 18.84-1.12 4.92-4.59 7.25-8.77 7.44-1.82.08-3.21-.35-3.5-2.23-.61-4.04-2.11-8.33-1.35-12.14 4.68-23.45 3.84-47.25 4.88-70.91.71-16.1.35-32.24.7-48.35.07-3.1-1.25-4.41-3.87-4.64-2.76-.24-5.57-.14-8.34 0-3.88.2-5.42-1.05-5.59-4.87-.26-5.54.56-6.86 6.04-7.24 7.8-.54 15.64-.56 23.46-.88 2.1-.09 4.19-.46 6.22-.69 0-23.42 0-46.55 0-70-3.57.37-6.38.85-8.71 3.41-7.25 7.98-11.22 17.09-10.8 28.02.18 4.73-3.01 8.56-6.85 8.24-1.45-.12-3.39-1.27-4.07-2.51-3.96-7.25-3.28-14.89-1.14-22.5.84-3.01 1.97-5.94 3.08-8.86 1.45-3.83 3.62-7.07 7.11-9.48 3.12-2.16 6.02-4.67 8.86-7.19 2.49-2.21 5.17-3.93 8.55-4.15 3.16-.2 4.16-2.19 4.3-4.9.22-4.13.09-8.3.57-12.4.48-4.55 1.53-9.09 2.34-13.54z"/><path d="m109.1 204.28c-5.13 0-10.24.07-15.35-.02-3.57-.06-7.18-.02-10.67-.64-1.93-.34-4.06-1.57-5.36-3.05-3.39-3.86-2.39-7.13 2.56-7.94 7.6-1.25 15.28-1.95 22.93-2.88.44-.05.89-.09 1.33-.16 5.4-.88 6.16-1.43 6.48-6.92.36-6.14.26-12.31.36-18.46.03-1.68-.06-3.36.06-5.03.69-10.09 6.95-15.97 17.03-15.89 3.57.03 7.15.28 10.71.64 4.64.47 7.54 2.88 8.01 6.74.11.87-.68 2.49-1.38 2.71-3.5 1.07-7.07 2.14-10.69 2.55-7.83.89-9.9.99-11.53 10.59-1.15 6.75-.47 13.82-.36 20.74.01.74 1.62 2.04 2.55 2.09 5.46.32 10.94.31 16.42.48 2.67.08 5.45-.11 7.97.59 2.01.56 4.12 1.93 5.44 3.54 3.35 4.1 2.65 6.57-2.4 7.85-3.93 1-8.1 1.22-12.19 1.42-4.12.21-8.27-.12-12.4-.04-2.69.06-3.99 1.23-3.97 4.37.13 25.4-.03 50.81.08 76.22.07 14.78.47 29.55.73 44.32.01.77.09 1.54.18 3.19 6.57.19 13.11.39 19.64.56 2.57.06 5.15-.14 7.7.11 1.62.16 3.28.74 4.74 1.5 2.83 1.48 5.78 6.07 4.55 7.89-1.27 1.89-3.8 3.57-6.04 4.03-4 .82-8.21.95-12.33.86-21.58-.49-43.15-1.19-64.73-1.68-3.18-.07-4.83-1.58-5.39-4.37-.56-2.77.63-4.44 3.45-5.54 6.39-2.5 12.87-2.25 19.49-1.67 3.3.29 6.67-.05 10-.28 1.92-.13 2.75-1.18 2.75-3.33-.07-40.76-.05-81.52-.06-122.27 0-.67-.14-1.32-.31-2.82z"/><path d="m117.79 72.35c-2.97 5.43-5.76 10.48-8.51 15.56-7.13 13.17-14.22 26.37-21.38 39.52-1.07 1.96-2.31 3.85-3.72 5.57-.96 1.17-2.23 2.25-3.58 2.93-5.07 2.56-8.72.42-7.59-5.03 1.09-5.27 3.27-10.44 5.74-15.26 7.52-14.61 15.4-29.03 23.2-43.49.62-1.14 1.55-2.18 2.53-3.06 2.41-2.17 4.93-4.22 7.41-6.31 5.8-4.89 10.56-4.59 15.49 1.49 3.51 4.33 6.68 8.97 9.71 13.67 7.46 11.6 13.89 23.76 18.14 36.91 1.47 4.54 2 9.37 3.04 14.05.49 2.23-.75 3.08-2.56 3.45-2.03.42-3.85 2.76-6.17-.11-7.14-8.81-11.77-18.88-16.17-29.21-4.01-9.43-8.91-18.48-13.47-27.67-.48-.96-1.24-1.78-2.11-3.01z"/><path d="m272.23 87.78c-6.97 10.25-14.46 18.44-23.24 25.24-3.96 3.07-8.78 5.3-13.54 7-4.56 1.63-7.12-1.43-5.43-6.09.77-2.1 2.08-4.19 3.67-5.76 6.84-6.75 14.29-12.93 20.74-20.03 7.88-8.68 11.73-19.14 10.72-31.14-.6-7.2.2-14.26 3.13-20.93 7.11.75 11.24 5.36 11.51 12.93.15 4.36.15 8.73.01 13.1-.32 10.3 3 19.03 10.63 26.09 4.19 3.87 8.24 7.89 12.36 11.84 4.73 4.54 8.78 9.5 10.78 15.94.69 2.2.09 3.24-1.88 4.14-3.75 1.71-7.08 1.27-10.09-1.75-8.84-8.89-17.66-17.8-26.45-26.74-.99-1.01-1.74-2.28-2.92-3.84z"/><path d="m150.98 268.42c0 14.88-.13 29.76.1 44.63.05 3.49-2.1 4.66-4.4 5.37-2.47.77-4.95-.11-5.95-2.95-.92-2.62-2.05-5.26-2.42-7.98-1.66-12.3-3.43-24.59-4.5-36.95-1.51-17.46-.9-34.86 3.6-51.96.65-2.46 2.01-4.58 4.16-4.57 2.02.01 4.75 1.27 5.86 2.89 1.4 2.04 2.01 4.98 2.04 7.55.18 14.65.09 29.31.09 43.96.47.01.95.01 1.42.01z"/><path d="m100.12 261.26c-.53 12.48-.8 24.99-1.72 37.44-.38 5.17-2.21 10.23-3.29 15.37-.9 4.29-4.77 2.85-7.34 3.67-.65.21-2.72-1.86-3.02-3.14-.67-2.88-.9-5.94-.82-8.91.2-6.92.87-13.82 1.01-20.74.19-8.83.17-17.67.01-26.51-.15-8.71-.9-17.42-.77-26.12.07-4.48 1.42-8.94 2.29-13.39.41-2.1 2.11-2.55 3.5-1.46 2.28 1.79 5.08 3.71 6.05 6.21 1.55 3.97 2.26 8.44 2.45 12.73.36 8.26.1 16.54.1 24.81.51.02 1.03.03 1.55.04z"/><path d="m117.68 106.66c3.33.32 6.7.45 9.98 1.04 1.8.33 3.71 1.13 5.11 2.27 3.89 3.17 3.36 6.6-1.19 8.41-9.47 3.77-19.02 3.27-28.53.18-.83-.27-1.62-1.55-1.86-2.51-.32-1.26.04-2.68-.11-4-.21-1.93.54-2.85 2.44-3.2 4.67-.85 9.32-1.84 13.98-2.77.06.2.12.39.18.58z"/></g><path d="m385.2 377.6.6-.7c.6.4 1.3.9 1.9 1.5l-.6.7c-.8-.5-1.4-1-1.9-1.5zm.3 7.1c.6-1.4 1.1-2.9 1.5-4.5.3.1.6.3.9.4-.5 1.4-1 2.9-1.5 4.4zm.2-10.1.6-.6c.7.5 1.3 1.1 1.9 1.6l-.7.7c-.6-.6-1.2-1.2-1.8-1.7zm8.4-.8h.8v.9h1.8v.7h-1.8v1.8h-.8v-.3h-1.2v.9h3.3v2.6h-.8v-.4h-2.5c0 .3 0 .6-.1.8h3.4v.7h-3.5c0 .3-.1.6-.1.8h4v.7h-3.5c.7.9 1.9 1.3 3.6 1.5-.2.2-.4.5-.6.9-1.9-.3-3.2-1.1-3.8-2.3-.5 1.1-1.8 2-3.9 2.4-.2-.3-.4-.5-.6-.8 1.9-.4 3.1-.9 3.6-1.7h-3.2v-.7h3.5c.1-.2.1-.5.2-.8h-3.3v-.7h3.4c0-.2 0-.5 0-.8h-2.4v.3h-.8v-2.6h3.3v-.9h-1.2v.3h-.8v-1.8h-1.8v-.7h1.8v-.9h.8v.9h3.2zm-4.4 5.5h2.4c0-.3 0-.6 0-.9h-2.4zm1.2-3.1h3.2v-.8h-3.2zm4.4 2.2h-2.4v.9h2.5v-.9z" fill="#fcfbfa"/><path d="m389.2 385.8h.9v1.5h1.9v-1.5h.9v1.5h2.7v6h1.1v.9h-11.3v-.9h1.1v-6h2.7zm.2 8.7.5.8c-1.2.6-2.5 1.3-4 1.9-.2-.3-.3-.6-.6-.8 1.6-.6 3-1.3 4.1-1.9zm-2-4.3h1.9v-2.1h-1.9zm0 3.1h1.9v-2.2h-1.9zm2.7-3.1h1.9v-2.1h-1.9zm0 3.1h1.9v-2.2h-1.9zm2.4 1.3c1.4.6 2.7 1.2 4.1 1.8l-.5.9c-1.5-.7-2.8-1.4-4.1-1.9zm2.2-6.5h-1.9v2.1h1.9zm-1.9 5.2h1.9v-2.2h-1.9z" fill="#fcfbfa"/></svg>