<svg enable-background="new 0 0 400 400" viewBox="0 0 400 400" xmlns="http://www.w3.org/2000/svg"><g fill="#fbfafa"><path d="m37.59 393.81c-.92.31-1.52.05-2-.78-.7-1.2-1.52-2.34-2.47-3.78v4.59c-.55.03-.95.05-1.41.07-.03-.37-.06-.64-.06-.91 0-1.91 0-3.81 0-5.7 1.13-.41 1.77-.03 2.29.91.62 1.11 1.38 2.14 2.31 3.19v-4.2h1.35v6.61z"/><path d="m12.94 393.88v-6.75c1.9.19 3.93-.54 5.37 1.29.8 1.01.78 2.88.03 3.97-1.37 1.97-3.4 1.51-5.4 1.49m1.45-1.22c2.04.12 2.92-.58 2.89-2.21-.03-1.51-.98-2.19-2.89-2z"/><path d="m11.81 393.87h-5.49c.68-2.18 2.47-3.48 3.51-5.45h-3.08v-1.21h5.29c-.71 2.13-2.44 3.48-3.47 5.51.86 0 1.63.04 2.39-.01.79-.05 1.14.21.85 1.16"/><path d="m39.33 393.86v-6.61h3.7v1.07h-2.22v1.52c.68.04 1.34.09 2.07.13v1.07c-.72.05-1.38.09-2.1.14v1.48h2.4v1.19h-3.85z"/><path d="m27.71 388.56c-1.15-.3-2.46-.61-3.1.64-.37.73-.41 1.93-.06 2.67.63 1.35 1.99.93 3.17.68.35.94-.01 1.32-.93 1.46-1.62.25-3.05-.27-3.76-1.48-.73-1.24-.6-3.03.31-4.17.88-1.11 2.71-1.7 4-1.16.32.13.44.74.65 1.12-.1.08-.19.16-.28.24"/><path d="m49.15 387.24v1.07c-.59.02-1.17.05-1.87.08v5.44h-1.48v-5.44h-1.85c-.05-.4-.08-.73-.13-1.15z"/><path d="m20.06 387.21h1.33v6.62h-1.33z"/><path d="m30.68 393.25c-.49.38-.8.79-1.05.76-.32-.05-.6-.45-.9-.7.26-.24.51-.64.8-.67.29-.04.62.3 1.15.61"/></g><path d="m261.91 179.96c7.71 1.19 15.41 2.38 23.12 3.58 7.95 1.23 15.9 2.42 23.83 3.77 1.63.28 3.72.55 3.49 3.18-.22 2.51.86 5.21-2.73 6.67-5.79 2.36-11.68 3.13-17.75 2.08-12.22-2.12-24.41-4.44-36.62-6.67-.53-.1-1.07-.13-1.83-.22v14.99c7.05.05 14.03.08 21.01.16 4.01.05 8.08-.23 12.01.36 4.85.72 7.98 3.74 8.72 8.98-7.8 4.69-16.36 4.66-25.02 4.16-4.24-.25-8.49-.26-12.73-.38-2.64-.07-3.86 1.1-3.68 3.84.15 2.31.03 4.64.03 7.93 7.68 0 15.35-.02 23.02.01 2.9.01 5.9-.32 8.68.31 2.48.56 5.19 1.74 6.96 3.49 3.33 3.31 2.17 6.95-2.17 8.64-6.27 2.43-12.77 1.65-19.24 1.6-5.24-.03-10.49.22-15.72.59-.74.05-1.92 1.43-1.97 2.25-.21 3.67-.09 7.36-.09 12.04 7.6.19 15.02.4 22.44.56 5.68.12 11.42-.3 17.02.42 5.05.65 8.34 4.03 9.12 9.61-7.06 4.05-14.89 5.59-22.81 5.57-16.66-.04-33.32-.79-49.98-1.12-8.04-.16-16.08-.03-24.57-.03-.05.51-.29 1.68-.28 2.85.12 27.08.29 54.16.38 81.25.01 3-.24 6.05-.8 9-.29 1.53-1.22 3.23-2.39 4.23-3.27 2.79-7.58 1.78-8.47-2.31-1.46-6.73-2.95-13.61-3.04-20.44-.48-33.69-.75-67.39-.59-101.08.09-18.93 4.07-37.31 10.32-55.17.45-1.29 1.45-2.5 2.47-3.45 5.49-5.1 11.07-10.11 16.96-15.46-3.7-3.37-7.28-6.63-10.92-9.94-2.87 2.63-5.31 5.48-8.33 7.46-2.8 1.85-6.17 2.89-9.37 4.07-1.71.63-2.97-.11-3.49-2.02-1.15-4.16-.63-8.38 2.14-11.36 7.46-8.03 15.31-15.71 23.2-23.32 6.2-5.98 13.54-10.5 21.79-12.78 3.72-1.03 8.18-.15 12.15.66 12.38 2.52 24.08 6.97 34.28 14.57 7.25 5.4 10.44 12.72 8.26 21.79-.34 1.43-1.43 3.21-2.66 3.8-6.54 3.11-13.23 5.9-19.89 8.76-1.32.57-2.71.98-4.07 1.47-.08.33-.14.69-.19 1.05zm13.24-20.26c-.71-1-1.1-1.67-1.6-2.25-8.25-9.62-19.16-13.95-31.36-15.59-1.69-.23-3.86-.5-5.14.31-6.04 3.8-11.84 7.98-18.02 12.22 3.62 3.72 7.1 7.18 10.44 10.76 2.09 2.23 4.4 4.19 7.55 3.22 3.39-1.04 2.77-4.4 3.28-7.07.96-5.1 2.02-10.17 3.03-15.19 7.28.99 8.73 2.42 9.44 8.66.4 3.5.77 7 1.19 10.8 7.26-2.01 14.02-3.88 21.19-5.87zm-70.5 86.13v16.66c11.81-.59 23.27-1.16 35.01-1.75-.62-5.03-1.2-9.75-1.83-14.91-11.14 0-22.05 0-33.18 0zm5.44-38.79h29.91c0-5.58.33-10.62-.09-15.6-.44-5.23-4.15-7.13-8.65-4.68-4.3 2.35-8.48 4.94-12.62 7.58-4.73 3.02-7.5 7.41-8.55 12.7zm29.4 14.78c-11.3 0-22.28 0-33.23 0v10.06h33.23c0-3.47 0-6.35 0-10.06z" fill="#010105"/><path d="m182.67 111.49c-.22 1.97-.57 3.93-.61 5.91-.04 2.02-.56 3.44-2.73 3.97-2.15.53-4.11.85-5.66-1.35-4.19-5.92-8.83-11.56-12.62-17.73-6.54-10.67-12.51-21.69-18.84-32.49-1.46-2.49-3.22-4.86-5.15-7.02-4.1-4.58-9.71-4.56-13.35.27-4.83 6.42-9.61 12.93-13.83 19.75-7.71 12.44-14.93 25.19-22.51 37.72-2.49 4.11-5.67 5.19-9.63 4.33-1.84-.4-2.96-1.4-2.66-3.17.67-3.92.9-8.15 2.59-11.63 3.6-7.42 8.23-14.33 12.06-21.65 6.96-13.31 17.08-24.3 26.1-36.09 5.1-6.67 12.05-8.55 20.05-6.52 1.42.36 2.89 1.21 3.92 2.25 16.83 16.93 29.41 36.8 39.93 58.08.39.8.79 1.6 1.21 2.38.09.17.32.28.82.68-.81-6.9-1.77-13.47-2.32-20.08-1.23-14.93-.55-29.76 3.73-44.21 3.79-12.78 16.25-21.95 31.17-19.52 2.43.4 4.88.66 7.28 1.16 7.46 1.56 13.01 5.37 16 12.77 3.31 8.19 5.21 16.64 5.57 25.41.75 18.25-1.01 36.2-7.1 53.54-.6 1.72-2.07 3.43-3.59 4.48-11.42 7.85-23.95 9.27-36.73 4.55-3.43-1.27-5.96-5.42-8.48-8.58-1.7-2.13-2.65-4.85-3.94-7.3-.22.03-.45.06-.68.09zm13.29-52.99c10.92-.37 21.51-.72 32.57-1.09-.98-2.87-1.68-5.08-2.49-7.25-2.25-6.01-6.39-9.84-12.86-10.82-2.31-.35-4.89-1.26-6.92-.6-2.71.88-6.3 2.51-7.2 4.75-1.83 4.53-2.11 9.69-3.1 15.01zm32.2 13.88c-11.13 0-22.09 0-33.37 0 0 4.24-.11 8.24.11 12.23.04.66 1.51 1.72 2.37 1.76 3 .15 6.01-.1 9.02-.12 7.22-.03 14.45-.01 21.87-.01 0-5.11 0-9.4 0-13.86zm-1.5 28.16c-10.31 0-20.38 0-30.7 0 .95 3.91 1.81 7.58 2.77 11.23.15.58.62 1.34 1.12 1.54 6.31 2.48 12.8 4.58 19.38 1.38 2.33-1.13 4.67-3.23 5.83-5.49 1.24-2.44 1.1-5.59 1.6-8.66z" fill="#010105"/><path d="m116.69 174.48c-8.08 0-15.67.09-23.26-.05-2.54-.05-5.16-.36-7.57-1.12-1.58-.5-3.2-1.75-4.17-3.12-2.39-3.36-1.27-6.4 2.59-7.73 6.22-2.14 12.56-1.39 18.92-.83 3.42.3 6.9.04 10.33-.17 2.28-.14 3.42-1.37 3.56-3.9.34-6.25.63-12.53 1.59-18.7 1.84-11.78 6.79-16.92 18.66-18.56 5.76-.8 11.78-.26 17.63.24 3.89.33 6.56 3.97 6.46 7.81-.02.78-.78 1.75-1.47 2.25-4 2.9-8.52 2.57-13.19 2.33-3.81-.2-7.69.52-11.51 1.1-.79.12-1.89 1.36-2 2.2-1.01 7.63-1.83 15.29-2.81 23.77 6.79.18 13.2.37 19.62.51 5.13.11 10.29-.17 15.37.32 3.85.37 6.91 2.42 7.87 6.68.49 2.18.1 3.47-2.18 4.43-6.44 2.68-13.07 2.45-19.81 1.94-5.33-.4-10.69-.38-16.03-.5-2.38-.05-3.16 1.15-3.2 3.56-.43 31-.95 62-1.47 93.01-.23 13.99-.44 27.98-.8 41.97-.07 2.86.47 4.24 3.74 4.18 9.72-.18 19.45-.18 29.17-.01 3.09.05 6.23.63 9.22 1.44 1.74.47 3.47 1.65 4.78 2.93 3.68 3.6 3.22 5.57-1.49 7.29-10.71 3.91-21.89 4.33-33.1 4.13-17.77-.31-35.55-.64-53.31-1.31-4.02-.15-8.03-1.57-11.97-2.68-3.32-.94-1.89-3.9-1.86-5.98.02-.97 1.33-2.39 2.38-2.81 8.07-3.22 16.49-2.09 24.85-1.73 3.45.15 6.92-.03 10.38-.07 2.61-.03 3.51-1.21 3.52-3.95.11-39.85.34-79.71.54-119.56.05-6.15.02-12.29.02-19.31z" fill="#010105"/><path d="m245.38 77.1c1.06-13.59 2.38-27.03 7.63-39.73.8-1.94 2.22-3.86 3.85-5.17 6.91-5.55 14.78-8.19 23.73-6.88 2.65.39 5.32.7 7.95 1.23 7.78 1.58 13.16 5.85 16.22 13.44 5.47 13.56 6.05 27.64 5.15 41.9-.78 12.41-2.52 24.69-6.99 36.4-.62 1.63-1.9 3.29-3.33 4.3-11.45 8.12-23.96 9-37.06 4.93-.81-.25-1.69-.73-2.2-1.38-3.44-4.4-7.4-8.56-9.97-13.44-2.01-3.81-2.68-8.51-3.2-12.9-.9-7.53-1.22-15.13-1.78-22.7zm49.23-19.68c-1.72-4.57-3.06-8.44-4.63-12.22-1.28-3.1-3.74-4.97-7.08-5.47-3.3-.49-6.73-1.49-9.9-.98-2.51.41-5.86 2.24-6.81 4.35-2.12 4.69-2.97 9.96-4.45 15.38 10.9-.34 21.43-.69 32.87-1.06zm-.37 14.89c-11.22 0-22.04 0-33.03 0v13.55h34.07c-.37-4.81-.69-9.01-1.04-13.55zm-33.08 27.45c.49 1.72.93 3.31 1.41 4.89 2.91 9.49 4.2 10.56 14.19 11.51 1.43.14 2.93.13 4.32-.16 5.38-1.12 9.82-3.32 11.34-9.35 1.11-4.4.89-5.37-3.79-5.69-9.08-.61-18.2-.81-27.47-1.2z" fill="#010105"/><path d="m297.2 340.03c-18.99 15.11-40.46 17.88-63.33 14.03-6.95-1.17-7.23-1.73-7.84-9.33 7.14-3.31 14.73-4.84 22.62-4.73 10.02.14 19.92-.32 29.23-4.61 2.01-.93 3.97-1.97 5.97-3.82-3.37-.74-6.71-1.88-10.12-2.15-12.02-.97-24.07-1.65-36.11-2.43-5.45-.35-10.92-.58-16.36-1.06-2.49-.22-4.31-1.66-5.21-4.13-1.52-4.18-.91-5.5 3.37-6.71 10.6-2.98 21.48-2.57 32.32-2.5 12.02.08 23.85 1.66 35.55 4.32.75.17 1.52.24 2.25.35 2.36-5.72 2.13-6.79-2.97-9.65-8.56-4.8-18.03-5.71-27.59-5.79-11.18-.1-22.36.07-33.54.01-1.87-.01-3.78-.46-5.61-.92-4.32-1.09-5.72-3.48-4.31-7.75.37-1.13 1.67-2.51 2.76-2.75 4.65-1.01 9.4-2.38 14.08-2.25 14.18.4 28.37 1.17 42.51 2.32 7.5.61 14.55 3.21 21.12 7.11 6.29 3.74 9.05 9.56 7.68 16.15-1.96 9.41 1.05 16.23 7.88 22.22 3.98 3.5 7.28 7.58 8.13 13.13.61 3.98-2.65 7.23-6.51 5.98-2.12-.69-4.28-1.97-5.84-3.56-3.58-3.65-6.8-7.66-10.13-11.48z" fill="#010105"/><path d="m91.23 247.61c0-17.24-.01-34.48 0-51.72 0-4.7 3.19-6.48 7.31-4.1 3.82 2.21 4.98 5.97 5.3 9.94 1 12.26 2.27 24.53 2.6 36.82.48 18.01.5 36.05-2.6 53.9-.5 2.85-1.15 5.71-2.08 8.45-1.49 4.36-5.83 5.74-9.02 2.82-.95-.87-1.44-2.68-1.45-4.06-.1-17.35-.06-34.7-.06-52.05z" fill="#010105"/><path d="m150.86 239.64c0-9.85-.1-19.69.04-29.54.09-6.55 2.47-12.4 5.99-17.89 1.16-1.81 2.38-1.69 3.92-.99 3.08 1.39 4.57 4.05 4.8 7.17.32 4.32.21 8.67.17 13.01-.1 9.4-.28 18.8-.43 28.2s-.66 18.82-.34 28.2 1.31 18.74 2.35 28.07c.3 2.72-.87 3.71-2.9 4.37-2.96.97-7.26-1.47-8.14-4.42-5.51-18.34-5.73-37.26-5.46-56.18z" fill="#010105"/><path d="m152.77 104.63c-8.98 5.99-18.84 6.55-28.85 5.28-4.59-.58-9.06-2.24-13.5-3.69-2.27-.74-3.05-6.65-1.02-7.9 2.32-1.42 4.96-3.01 7.55-3.16 7.91-.48 15.86-.52 23.78-.31 6.83.18 10.56 3.42 12.04 9.78z" fill="#010105"/></svg>