<svg enable-background="new 0 0 400 400" viewBox="0 0 400 400" xmlns="http://www.w3.org/2000/svg"><g fill="#010103"><path d="m193.29 333.35v6.93c4.76.24 9.41.6 14.07.69 9.05.17 18.11.01 27.15.35 4.06.15 7.97 1.47 10.62 4.93 2.99 3.9 2.34 6.46-2.25 7.89-3.28 1.02-6.74 1.94-10.13 2.01-25.38.46-50.76.72-76.15.97-12 .12-23.86-1.23-35.64-3.55-2.36-.47-2.62-1.72-2.59-3.43.03-1.99-1.67-4.2 1.47-5.73 7.96-3.89 16.38-3.93 24.92-3.84 10.84.12 21.68.03 32.86.03.27-2.25.54-4.54.88-7.43-3.45-.19-6.73-.56-10.01-.52-8.72.12-17.44.59-26.15.54-3.16-.02-6.39-.84-9.44-1.78-1.58-.49-3.1-1.83-4.19-3.16-3.31-4.05-2.51-6.54 2.35-8.33 8.02-2.95 16.31-2.01 24.57-1.89 7.46.11 14.92.02 22.67.02.31-3.8.58-7.1.87-10.79-6.58-.75-13-1.39-19.38-2.22-6.15-.79-12.42-.73-18.06-4.26-8.14-5.09-12.89-12.18-14.25-21.61-1.49-10.29-.24-20.31 3.29-30.03.57-1.57 1.74-3.12 3.04-4.18 7.85-6.45 17.4-8.7 27.1-9.61 18.88-1.76 37.78-1.11 56.55 1.56 16.19 2.3 23.98 12.21 24.9 29.39.57 10.61-3.25 19.94-6.73 29.46-.49 1.33-2.27 2.37-3.67 3.16-8.2 4.65-17.34 5.65-26.48 6.45-3 .26-6.05-.1-9.05.14-.86.07-2.23 1.13-2.34 1.89-.5 3.29-.62 6.64-.94 10.84 7.15 0 14.04.05 20.92-.02 5.25-.05 10.51-.53 15.75-.31 4.85.2 9.2 1.89 11.62 6.66 1.07 2.1 1.05 3.5-1.43 4.8-5.55 2.91-11.39 3.62-17.52 3.54-8.72-.11-17.43 0-26.15.06-1 0-1.97.24-3.05.38zm32.56-75.1c-1.99-4.97-9.16-9.14-12.83-7.47-8.59 3.92-17.04 8.13-26.26 12.57 1.65 1.23 2.73 2.69 4 2.88 4.01.61 8.42 1.88 12.09.83 7.87-2.26 15.36-5.8 23-8.81zm-83.65 23.71c1.6 6.07 2.03 6.63 7.65 5.17 5.59-1.45 11.01-3.59 16.42-5.66 3.91-1.49 7.68-3.36 12.12-5.33-3.56-1.79-6.39-3.3-9.31-4.63-.69-.32-1.76-.32-2.47-.02-8.1 3.42-16.18 6.92-24.41 10.47zm68.4-3.44c3.64 2.9 6.83 5.48 10.07 8.02 1.87 1.47 4.94.54 5.35-1.83.71-4.14 1.08-8.35 1.67-13.11-5.88 2.38-11.21 4.54-17.09 6.92zm-68.59-10.11c4.96-2.49 9.28-4.66 13.97-7.01-3.67-2.82-6.85-5.26-10.42-8-1.19 5.01-2.28 9.62-3.55 15.01zm58.34 22.28c-6.79-5.53-12.48-5.55-20.44 0zm-33.36-41.46c4.54 5.12 10.1 5.39 14.63.93-4.88-.31-9.55-.6-14.63-.93z"/><path d="m302.16 374.76c-1.28-9.22-2.61-18.14-3.73-27.1-1.59-12.76-2.96-25.54-4.54-38.3-2.81-22.71-3.37-45.51-3.18-68.35.23-28.09.49-56.18.76-84.27.05-5.26.09-10.52.38-15.77.15-2.78-.9-4.37-3.56-4.65-5.77-.59-11.55-1.29-17.35-1.45-13.85-.38-27.43-1.85-40.23-7.66-6.25-2.84-10.1-7.36-11.38-14.25-4.66-25.03-4.58-50.04.06-75.05.49-2.63 1.27-5.21 2.11-7.75.91-2.75 2.77-3.8 5.73-2.94 5.6 1.62 7.62 4.63 6.79 10.49-1.47 10.43-.47 11.97 10.03 12.58 7.01.41 14.08-.25 21.12-.07 5.66.14 11.47.11 16.92 1.41 15.42 3.68 22.65 14.95 24.46 29.72 1.22 9.96 1.3 20.1 1.23 30.15-.26 34.24-.83 68.48-1.26 102.72-.24 19.25-.91 38.5-.52 57.74.3 14.74 1.74 29.47 3.11 44.16 1.27 13.57 3.39 27.07 4.6 40.64.43 4.8-.65 9.74-1.16 14.61-.21 2.04-1.38 3.06-3.63 2.94-1.87-.11-3.77.22-6.76.45zm-70.88-278.75c1.59 5.81 3.09 10.94 4.37 16.13.52 2.09 1.63 3.13 3.66 3.74 14.97 4.47 30.19 7.17 45.88 6.44 2.49-.11 4.95-.76 7.61-1.2-.53-5.72-1.18-10.93-1.44-16.16-.12-2.4-.86-3.22-3.28-3.44-12.9-1.17-25.79-2.54-38.68-3.82-5.86-.57-11.73-1.09-18.12-1.69zm60.1-8.85c-.08-12.6-6.81-20.63-18.57-22.61-2.75-.46-5.53-.86-8.31-.95-9.7-.29-19.41-.47-29.12-.56-.83-.01-2.35.92-2.39 1.5-.46 5.74-.69 11.5-.98 17.42 20.02 1.76 39.56 3.47 59.37 5.2z"/><path d="m169.74 25.08c7.08 1.02 8.86 2.95 9.51 9.69 1.15 11.91 2.77 23.78 3.48 35.71.98 16.66-.99 33.1-6.47 48.91-.91 2.62-3.87 4.74-6.26 6.61-6.83 5.33-14.95 7.59-23.37 8.39-13.45 1.28-26.95 2.1-40.43 3.12-.66.05-1.33.12-2.44.23 0 8.4.11 16.77-.02 25.13-.7 44.97-1.23 89.95-2.37 134.91-.33 13.04-2.61 26.03-3.77 39.06-.61 6.89-.65 13.84-1.14 20.75-.22 3.11-.7 6.23-1.42 9.27-1.12 4.7-4.19 7.36-8.44 7.99-2.32.34-4.15-.22-4.55-2.67-.5-3.05-1.15-6.22-.82-9.24 3.87-35.61 6.44-71.29 6.66-107.13.18-29.42.72-58.85.96-88.27.08-10.4-.05-20.82-.45-31.21-.31-8.03-1.67-16.04-1.74-24.06-.16-16.27.91-32.45 6.98-47.83.58-1.46 1.66-2.9 2.87-3.92 8.5-7.1 18.6-10.08 29.43-10.63 12.62-.64 25.25-1.05 37.88-1.31 2.97-.06 3.8-1.01 3.89-3.86.2-5.89.79-11.76 1.27-17.64.06-.63.46-1.23.76-2zm-66.53 98.31c.83.1 1.37.24 1.9.23 11.38-.26 22.78-.26 34.14-.89 7.64-.42 14.93-2.62 21.48-6.83 5.02-3.23 8.49-10.78 7.38-16.69-.33-1.76-1.25-3.42-1.87-5.06-20.85 3.65-41.18 7.19-61.5 10.84-.9.16-2.34 1.3-2.33 1.96.1 5.46.49 10.89.8 16.44zm.1-32.2c.57.16.79.3.98.27 20.63-3.86 41.25-7.71 61.86-11.68.79-.15 1.84-1.35 1.95-2.18.4-2.87.67-5.79.56-8.68-.18-4.9-2.67-7.01-7.48-6.87-7.14.21-14.29.46-21.44.54-10.36.11-20.57.97-29.79 6.25-1.32.76-2.64 2.38-2.98 3.83-1.41 6.08-2.45 12.25-3.66 18.52z"/><path d="m273.53 359.83c-2.96.63-5.11 1.36-7.29 1.46-1.14.05-3.11-.77-3.36-1.6-1.32-4.31-2.98-8.74-3.1-13.16-.57-21.25-.46-42.51-1.03-63.76-.36-13.51-1.09-27.04-2.42-40.49-1.02-10.39-9.34-17.38-19.88-17.88-16.86-.81-33.72-1.55-50.59-2.26-13.63-.57-27.26-1.06-40.89-1.59-13.46-.52-23.8-10.92-22.88-23.36.49-6.6 2.77-12.02 9.59-15.19 11.34-5.26 23.25-7.39 35.49-7.47 20.8-.13 41.6.37 62.4.54 3.8.03 7.6-.18 11.4-.36 1.1-.05 2.21-.33 3.29-.62 3.72-.99 7.56-4.58 6.59-6.58-1.46-3-4.68-3.51-7.73-3.57-19.23-.34-38.46-.67-57.69-.9-13.53-.16-27.06-.09-40.59-.31-3.32-.06-6.68-.64-9.91-1.42-3.18-.78-4.69-3.25-4.8-6.51-.09-2.69.77-4.25 3.73-5.32 7.7-2.78 15.53-1.45 23.28-1.37 16.32.18 32.64.81 48.96 1.25 14.08.38 28.17.66 42.25 1.16 12.16.43 18.98 9.9 16.58 22.74-.04.22-.14.43-.16.65-.51 5.9-3.77 9.06-9.32 11.16-12.44 4.69-25.19 5.39-38.28 4.97-17.19-.54-34.42-.69-51.62-.43-7.11.11-14.22 1.51-21.28 2.66-4.99.82-7.72 3.92-7.46 7.99.06.98.87 2.48 1.67 2.76 4.5 1.54 9.04 3.57 13.68 3.96 13.58 1.11 27.21 1.74 40.83 2.14 10.38.3 20.81-.54 31.16.08 8.31.5 16.88 1.38 24.72 3.96 12.67 4.16 19.32 14.42 20.74 27.29 1.41 12.76 1.51 25.68 2.12 38.53.64 13.41 1.44 26.82 1.74 40.24.3 13.5.06 27.03.06 40.61z"/></g><path d="m385.2 377.6.6-.7c.6.4 1.3.9 1.9 1.5l-.6.7c-.8-.5-1.4-1-1.9-1.5zm.3 7.1c.6-1.4 1.1-2.9 1.5-4.5.3.1.6.3.9.4-.5 1.4-1 2.9-1.5 4.4zm.2-10.1.6-.6c.7.5 1.3 1.1 1.9 1.6l-.7.7c-.6-.6-1.2-1.2-1.8-1.7zm8.4-.8h.8v.9h1.8v.7h-1.8v1.8h-.8v-.3h-1.2v.9h3.3v2.6h-.8v-.4h-2.5c0 .3 0 .6-.1.8h3.4v.7h-3.5c0 .3-.1.6-.1.8h4v.7h-3.5c.7.9 1.9 1.3 3.6 1.5-.2.2-.4.5-.6.9-1.9-.3-3.2-1.1-3.8-2.3-.5 1.1-1.8 2-3.9 2.4-.2-.3-.4-.5-.6-.8 1.9-.4 3.1-.9 3.6-1.7h-3.2v-.7h3.5c.1-.2.1-.5.2-.8h-3.3v-.7h3.4c0-.2 0-.5 0-.8h-2.4v.3h-.8v-2.6h3.3v-.9h-1.2v.3h-.8v-1.8h-1.8v-.7h1.8v-.9h.8v.9h3.2zm-4.4 5.5h2.4c0-.3 0-.6 0-.9h-2.4zm1.2-3.1h3.2v-.8h-3.2zm4.4 2.2h-2.4v.9h2.5v-.9z" fill="#fcfbfa"/><path d="m389.2 385.8h.9v1.5h1.9v-1.5h.9v1.5h2.7v6h1.1v.9h-11.3v-.9h1.1v-6h2.7zm.2 8.7.5.8c-1.2.6-2.5 1.3-4 1.9-.2-.3-.3-.6-.6-.8 1.6-.6 3-1.3 4.1-1.9zm-2-4.3h1.9v-2.1h-1.9zm0 3.1h1.9v-2.2h-1.9zm2.7-3.1h1.9v-2.1h-1.9zm0 3.1h1.9v-2.2h-1.9zm2.4 1.3c1.4.6 2.7 1.2 4.1 1.8l-.5.9c-1.5-.7-2.8-1.4-4.1-1.9zm2.2-6.5h-1.9v2.1h1.9zm-1.9 5.2h1.9v-2.2h-1.9z" fill="#fcfbfa"/></svg>