<svg enable-background="new 0 0 400 400" viewBox="0 0 400 400" xmlns="http://www.w3.org/2000/svg"><path d="m37.59 393.81c-.92.31-1.52.05-2-.78-.7-1.2-1.52-2.34-2.47-3.78v4.59c-.55.03-.95.05-1.41.07-.03-.37-.06-.64-.06-.91 0-1.91 0-3.81 0-5.7 1.13-.41 1.77-.03 2.29.91.62 1.11 1.38 2.14 2.31 3.19v-4.2h1.35v6.61z" fill="#fbfafa"/><path d="m12.94 393.88v-6.75c1.9.19 3.93-.54 5.37 1.29.8 1.01.78 2.88.03 3.97-1.37 1.97-3.4 1.51-5.4 1.49m1.45-1.22c2.04.12 2.92-.58 2.89-2.21-.03-1.51-.98-2.19-2.89-2z" fill="#fbfafa"/><path d="m11.81 393.87h-5.49c.68-2.18 2.47-3.48 3.51-5.45h-3.08v-1.21h5.29c-.71 2.13-2.44 3.48-3.47 5.51.86 0 1.63.04 2.39-.01.79-.05 1.14.21.85 1.16" fill="#fbfafa"/><path d="m39.33 393.86v-6.61h3.7v1.07h-2.22v1.52c.68.04 1.34.09 2.07.13v1.07c-.72.05-1.38.09-2.1.14v1.48h2.4v1.19h-3.85z" fill="#fbfafa"/><path d="m27.71 388.56c-1.15-.3-2.46-.61-3.1.64-.37.73-.41 1.93-.06 2.67.63 1.35 1.99.93 3.17.68.35.94-.01 1.32-.93 1.46-1.62.25-3.05-.27-3.76-1.48-.73-1.24-.6-3.03.31-4.17.88-1.11 2.71-1.7 4-1.16.32.13.44.74.65 1.12-.1.08-.19.16-.28.24" fill="#fbfafa"/><path d="m49.15 387.24v1.07c-.59.02-1.17.05-1.87.08v5.44h-1.48v-5.44h-1.85c-.05-.4-.08-.73-.13-1.15z" fill="#fbfafa"/><path d="m20.06 387.21h1.33v6.62h-1.33z" fill="#fbfafa"/><path d="m30.68 393.25c-.49.38-.8.79-1.05.76-.32-.05-.6-.45-.9-.7.26-.24.51-.64.8-.67.29-.04.62.3 1.15.61" fill="#fbfafa"/><g fill="#010105"><path d="m90.27 66.75h4.13c16.57 0 33.13-.13 49.7.09 4.3.06 8.63 1.02 12.86 1.95 1.61.35 3.32 1.51 4.39 2.8 2.14 2.59 1.01 5.33-2.22 6.09-3.37.79-6.73 1.69-10.14 2.27-2.02.35-2.49 1.34-2.48 3.19.03 7.16.19 14.33-.15 21.47-.67 14.06-8.53 21.46-22.71 21.92-10.38.34-20.76.77-31.58 1.18.33 6.88.65 13.73 1.02 21.53 8.04 0 15.83-.08 23.62.02 11.74.15 23.49.36 35.22.71 2.53.08 5.09.71 7.55 1.41 2.83.8 4.53 2.95 4.83 5.83.11 1.03-.57 2.81-1.36 3.15-2.84 1.23-5.87 2.05-8.85 2.92-1.28.38-2.65.43-3.95.77-4.47 1.15-5.71 2.51-5.96 7.19-.19 3.56-.36 7.18.06 10.71 1.66 14.17-7.87 21.46-19.26 22.38-8.91.73-17.86.91-26.8 1.33-.66.03-1.31.09-1.97.13v26.65c3.29.15 6.05.36 8.8.4 14.43.18 28.87.23 43.3.52 4.22.09 8.47.61 12.63 1.38 1.84.34 3.87 1.42 5.14 2.79 3.44 3.71 2.55 6.75-2.18 8.22-3.94 1.23-7.96 2.23-11.92 3.4-2.47.73-4.01 2.22-4.05 5.04-.06 5.36-.42 10.72-.32 16.07.1 5.37-.37 10.48-3.55 15.04-3.94 5.66-9.67 8.38-16.22 8.88-7.56.58-15.18.39-22.78.55-1.56.03-3.15-.06-4.67.21-2.44.43-3.89 1.73-3.91 4.54-.18 20.36-.41 40.73-.77 61.08-.06 3.43-.59 6.9-1.32 10.26-.69 3.21-3.32 4.17-6.36 4.43-2.9.24-4.46-1.33-5.15-3.77-.72-2.55-1.45-5.21-1.45-7.82.01-30.44.29-60.88.22-91.32-.07-29.32-.18-58.64-.83-87.95-.42-19.12-1.95-38.21-2.78-57.33-.92-21.46-1.82-42.92-2.29-64.39-.17-7.98 2.08-15.72 5.31-23.05.58-1.31 1.75-2.56 2.96-3.36 9.44-6.25 20.19-8.44 31.19-9.14 10.58-.67 21.22-.69 31.83-.74 2.74-.01 5.63.52 8.17 1.52 1.79.71 3.56 2.38 4.52 4.09 1.63 2.87.8 4.47-2.31 5.59-9.56 3.43-19.46 3.8-29.47 3.14-8.04-.54-16.09-1.07-24.01 1.08-1.4.38-2.78.86-4.12 1.41-4.37 1.79-7.57 4.23-7.64 9.74-.06 4.45-1.19 8.86-1.92 13.8zm1.55 13.82v31.95c8.77 0 17.03.34 25.25-.15 3.77-.22 7.47-2 11.14-3.24.79-.27 1.81-1.25 1.89-1.99.91-8.4 1.66-16.81 2.48-25.54-13.88-.36-27.34-.7-40.76-1.03zm5.52 200.37c11.29-.75 22.21-1.49 33.13-2.17 2.02-.13 2.21-1.29 2.26-2.92.17-6.71.46-13.41.67-20.12.07-2.08.01-4.17.01-6.25-12.22 0-24.11 0-36.08 0 .01 10.51.01 20.77.01 31.46zm-1.9-115.9v25.7c8.44 0 16.38.44 24.25-.13 7.29-.52 8.38-2.12 9.38-9.28.03-.22.08-.44.1-.66.52-5.05 1.04-10.09 1.6-15.63-12.14 0-23.82 0-35.33 0z"/><path d="m257.98 316.15c7.49.2 14.82.51 22.15.56 8.48.06 16.98-.51 25.44-.06 7.05.38 10.86 3.6 12.6 9.04-5.86 3.79-12.41 5.38-19.31 5.42-6.48.03-12.97-.53-19.45-.47-14.87.12-29.73.57-44.59.66-17.77.11-35.56.39-53.32-.2-8.76-.29-17.46-2.38-26.19-3.65-1.62-.24-3.23-.52-2.87-2.77.34-2.06-1.13-4.51 2.36-5.72 9.81-3.41 19.78-2.8 29.86-2.21 7.12.42 14.27.31 21.41.35 2.51.01 3.5-1.14 3.54-3.92.47-35.69 1.06-71.37 1.75-107.06.06-3.23-.59-5.52-3.56-7.14-2.04-1.12-3.72-2.91-5.74-4.06-8.73-4.97-11.88-13.34-13.49-22.45-1.82-10.32-1.43-20.72.03-31.08.71-5.06 4.16-6.58 8.27-3.63 4.86 3.49 5.27 8.8 5.53 14.11.34 6.92.6 13.84.84 20.76.18 5.06 2.84 8.49 6.93 11.15 5.11 3.32 10.82 4.77 16.76 5.36 10.2 1.02 20.3.73 30.22-2.34 3.87-1.2 6.48-3.3 7.19-7.39 1.37-7.91 2.73-15.83 4.08-23.74.68-3.96 1.04-8 2.14-11.84.61-2.11 2.14-4.24 3.83-5.69 2.89-2.47 5.25-1.66 6.69 1.83 3.08 7.48 3.5 15.27 2 23.08-1.49 7.78-3.37 15.49-5.32 23.16-.36 1.42-1.62 2.89-2.87 3.77-4.48 3.15-9.21 5.94-13.66 9.13-1.12.8-2.19 2.56-2.21 3.9-.42 29.76-.69 59.52-.99 89.28-.07 6.6-.16 13.2-.22 19.8-.02 1.1.08 2.2.17 4.06zm-13.8-.3c-.37-38.27-.73-75.81-1.09-113.36-6.31 0-12.08 0-17.92 0v113.36z"/><path d="m217.04 83.31c4.22.81 12.21 1.88 19.95 3.91 13.14 3.46 25.94 3.71 38.89-.95 7.55-2.72 15.4-4.65 23.21-6.6 2.62-.65 5.49-.42 8.24-.34 2.51.07 4.1 1.49 4.71 4.01.59 2.46-.21 4.05-2.25 5.68-11.6 9.26-25.23 13.1-39.55 15.24-15.34 2.29-30-1.45-44.72-4.83-6.87-1.58-13.68-1.33-20.59.25-11.86 2.72-23.82 5.06-35.74 7.54-.98.2-2 .22-3 .34-2.59.3-5.1.27-5.76-2.97-.59-2.93-.05-5.38 2.93-7.08 14.33-8.21 32.84-13.49 53.68-14.2z"/><path d="m181.99 259.44c1.04-14.48.29-28.81-1.7-43.17-.74-5.33-.17-10.92.37-16.33.4-4.01 2.82-4.87 6.43-2.94 3.55 1.9 6.05 4.71 6.73 8.7 5.08 29.62 7.05 59.28.07 88.9-1.05 4.44-2.72 8.73-4.16 13.07-1.22 3.65-4.77 2.74-7.35 3.25-.88.17-3.03-1.98-3.25-3.3-.63-3.77-1.01-7.7-.7-11.5.99-12.26 2.35-24.46 3.56-36.68z"/><path d="m298.23 310.16c-7.81 3.52-10.23 2.64-12.22-5.85-1.86-7.92-3.02-16.03-4.01-24.11-2.2-17.89-3.05-35.87-2.07-53.88.6-11.11 2.8-21.9 7.85-31.99.97-1.93 2-2.3 3.92-1.78 4.43 1.2 6.81 3.92 6.17 8.6-3.44 25.17-1.58 50.46-1.76 75.69-.09 11.01 1.35 22.05 2.12 33.32z"/><path d="m259.54 118.35c8.77.75 17.13-.28 24.83-5.02 2.93-1.8 6.17-3.14 9.35-4.51 4.18-1.8 8.1.77 8.03 5.26-.04 2.57-.92 4.68-2.65 6.9-6.53 8.37-15.53 10.77-25.36 11.53-11.41.88-22.76.97-33.98-1.9-2.49-.64-2.91-1.98-2.89-4.04.02-2.17-1.01-4.3 2.25-5.69 6.66-2.84 13.48-2.83 20.42-2.53z"/><path d="m202.64 112.24c6.2.7 12.45 1.13 18.59 2.19 4.67.81 8.4 3.5 10.79 7.78.89 1.6.87 2.71-.86 3.87-4.49 3.01-9.3 4.27-14.63 3.37-4.62-.78-9.25-1.54-13.83-2.51-6.43-1.36-12.38.15-18.27 2.53-4.78 1.93-9.58 3.5-14.96 2.57-2.26-.39-2.7-1.65-2.98-3.29-.32-1.91-1.69-3.71.74-5.66 9.89-7.97 20.75-11.33 35.41-10.85z"/><path d="m235.47 65.87c0-2.93-.25-5.74.06-8.49.4-3.59 4.05-4.24 6.26-4.25 15.16-.09 30.33.05 45.47.74 5.87.27 8.38 4.93 6.67 10.55-.27.89-1.7 1.82-2.72 2.02-5.79 1.1-11.59 2.51-17.44 2.82-11.04.59-22.11.46-33.01-1.91-1.72-.38-3.41-.95-5.29-1.48z"/><path d="m204.54 68.97c-8.45-.44-16.74.33-24.75 3.26-1.03.38-2.17.55-3.27.67-6.28.67-8.71-2.23-6.78-8.19.24-.75 1.01-1.54 1.73-1.88 4.31-2 8.52-4.89 13.06-5.61 12.1-1.9 24.31-3.7 36.61-1.26 4.15.82 8.15 1.82 9.98 6.27.91 2.21.89 3.87-1.86 4.97-5.09 2.04-10.28 2.83-15.71 2.4-2.99-.24-6-.42-9.01-.63z"/></g></svg>