<svg enable-background="new 0 0 400 400" viewBox="0 0 400 400" xmlns="http://www.w3.org/2000/svg"><g fill="#fbfafa"><path d="m37.59 393.81c-.92.31-1.52.05-2-.78-.7-1.2-1.52-2.34-2.47-3.78v4.59c-.55.03-.95.05-1.41.07-.03-.37-.06-.64-.06-.91 0-1.91 0-3.81 0-5.7 1.13-.41 1.77-.03 2.29.91.62 1.11 1.38 2.14 2.31 3.19v-4.2h1.35v6.61z"/><path d="m12.94 393.88v-6.75c1.9.19 3.93-.54 5.37 1.29.8 1.01.78 2.88.03 3.97-1.37 1.97-3.4 1.51-5.4 1.49m1.45-1.22c2.04.12 2.92-.58 2.89-2.21-.03-1.51-.98-2.19-2.89-2z"/><path d="m11.81 393.87h-5.49c.68-2.18 2.47-3.48 3.51-5.45h-3.08v-1.21h5.29c-.71 2.13-2.44 3.48-3.47 5.51.86 0 1.63.04 2.39-.01.79-.05 1.14.21.85 1.16"/><path d="m39.33 393.86v-6.61h3.7v1.07h-2.22v1.52c.68.04 1.34.09 2.07.13v1.07c-.72.05-1.38.09-2.1.14v1.48h2.4v1.19h-3.85z"/><path d="m27.71 388.56c-1.15-.3-2.46-.61-3.1.64-.37.73-.41 1.93-.06 2.67.63 1.35 1.99.93 3.17.68.35.94-.01 1.32-.93 1.46-1.62.25-3.05-.27-3.76-1.48-.73-1.24-.6-3.03.31-4.17.88-1.11 2.71-1.7 4-1.16.32.13.44.74.65 1.12-.1.08-.19.16-.28.24"/><path d="m49.15 387.24v1.07c-.59.02-1.17.05-1.87.08v5.44h-1.48v-5.44h-1.85c-.05-.4-.08-.73-.13-1.15z"/><path d="m20.06 387.21h1.33v6.62h-1.33z"/><path d="m30.68 393.25c-.49.38-.8.79-1.05.76-.32-.05-.6-.45-.9-.7.26-.24.51-.64.8-.67.29-.04.62.3 1.15.61"/></g><path d="m91.83 148.17v26.49c6.5 0 12.84-.08 19.18.02 13.98.2 27.97.34 41.94.81 5.56.18 8.31 3.07 8.46 8.02.03.89-.83 2.36-1.61 2.63-2.62.91-5.37 1.53-8.11 2.03-6.2 1.12-7.34 2.01-7.94 8.25-.42 4.44-.37 8.94-.3 13.41.13 8.43-3.44 14.05-11.62 16.22-5.34 1.41-10.99 1.92-16.53 2.27-6.25.4-12.53.22-18.8.17-2.44-.02-3.3.85-3.24 3.36.16 6.58.05 13.16.05 20.17h3.87c19.03 0 38.06-.03 57.09.03 3.12.01 6.29.18 9.34.77 1.86.36 3.91 1.3 5.23 2.62 3.35 3.34 2.66 6.67-1.79 7.83-3.7.96-7.66.95-11.52 1.26-.98.08-1.99-.32-2.99-.39-8.18-.58-9.76.46-10.74 8.41-.8 6.41-.61 12.95-1.55 19.33-1.31 8.82-6.14 12.72-14.87 13.26-9.93.61-19.84 1.37-30.37 2.11-.5 5.74-1.06 11.48-1.48 17.22-.84 11.59-1.44 23.2-2.52 34.77-.27 2.87-1.56 5.94-3.26 8.27-1.17 1.59-3.79 2.55-5.9 2.9-2.32.38-3.95-.8-4.5-3.69-2.01-10.58-2.16-21.2-.27-31.72 3.15-17.52 3.23-35.07 2.7-52.8-1.52-50.56-2.46-101.13-3.51-151.7-.24-11.75-.1-23.5.04-35.25.12-10.18 2.53-19.93 6.29-29.35.47-1.17 1.39-2.28 2.36-3.11 5.17-4.4 11.34-6.5 17.9-7.86 15.17-3.13 30.46-2.81 45.76-1.69 4.23.31 8 2.05 10.25 6.07 1.15 2.06.85 3.38-1.43 4.48-6.86 3.31-14.16 3.99-21.59 3.69-7.59-.31-15.17-1.17-22.76-1.32-5.86-.12-11.55 1.18-16.65 4.35-1.98 1.23-3.25 2.66-3.57 5.24-.75 6.07-1.93 12.08-3.04 18.76 7.39 0 14.43-.05 21.46.01 12.31.11 24.62.25 36.92.48 2.44.05 4.91.39 7.3.89 3.85.8 6.27 3.93 5.92 7.78-.08.88-1.25 2.19-2.13 2.39-3.46.78-6.99 1.32-10.52 1.72-5.6.64-5.65.56-6.02 6.13-.37 5.58-.35 11.2-1.05 16.73-1.43 11.24-5.38 14.87-17.74 17.06-6.26 1.11-12.9-.01-19.36.02-4.2.02-8.41.29-12.78.45zm1.47 41.17c0 7.94-.06 15.97.1 24 .01.7 1.42 1.89 2.27 1.98 4.55.49 9.14.99 13.7.93 4.87-.07 9.83-.32 14.58-1.29 5.09-1.04 5.19-1.69 5.46-6.79.08-1.45.26-2.9.36-4.35.33-4.63.64-9.26 1-14.48-12.95 0-25.43 0-37.47 0zm-1.82-54.21c2.55-.13 4.43-.22 6.31-.31 9.36-.45 18.73-.85 28.08-1.41.89-.05 2.46-1.09 2.47-1.71.17-7.33.11-14.67.11-22.54-12.25 0-24.67 0-36.98 0 .01 8.44.01 16.99.01 25.97zm2.68 159.18c8.29 0 16.22.41 24.09-.12 7.14-.48 8.37-2.34 8.5-9.32.01-.78.06-1.56.06-2.35.01-5.32 0-10.63 0-16.45-10.76 0-21.62 0-32.66 0 .01 9.31.01 18.65.01 28.24z" fill="#010105"/><path d="m243.53 135.83c9.85 1.62 19.29 3.61 28.84 4.61 8.03.84 13.33 5.14 17.76 11.21 4.71 6.46 6.17 14.01 7.21 21.72 1.64 12.12-.68 23.61-5.56 34.64-.77 1.74-2.41 3.18-3.89 4.49-8.23 7.35-18.1 10.33-28.95 10.65-3.66.11-7.32.35-11.21.54-.26 9.16-.64 17.97-.74 26.79-.4 34.58-.71 69.16-1.07 103.74-.05 4.46-.11 8.93-.36 13.39-.08 1.41-.59 2.86-1.21 4.15-1.29 2.7-3.81 3.07-6.5 3.2-2.53.12-3.09-1.81-3.39-3.41-1.08-5.79-2.62-11.63-2.65-17.45-.12-26.19.25-52.38.37-78.57.07-15.34-.08-30.67.09-46.01.04-3.11-1.06-4.6-3.92-5.06-5.52-.88-11.03-1.79-16.56-2.56-14.61-2.05-24.65-10.77-27.86-25.05-3.19-14.23-1.84-28.17 3.48-41.82 2.53-6.49 7.12-10.56 13.36-12.71 8.01-2.76 16.09-5.52 24.87-4.28 3.49.49 5.19-1.28 5.19-4.85-.02-28.43-.02-56.86-.16-85.3-.03-7.21.07-14.31 3.39-20.97.81-1.63 1.54-2.07 3.33-1.52 4.94 1.52 7.38 4.87 7.36 11.39-.05 11.64-.34 23.27-.49 34.91-.26 20.48-.5 40.96-.74 61.44 0 .77.01 1.54.01 2.69zm1.74 14.36c-6.87.37-14.35.69-21.82 1.21-7.37.51-14.79 1.05-20.82 6.15-.81.68-1.79 1.55-1.99 2.49-2.12 10.08-4.28 20.29-2.63 30.56 1.56 9.75 4.67 15.73 14.71 17.87 14.3 3.05 28.62 3.29 43.02 1.58 7.48-.89 14.71-2.89 21.1-7.09 1.42-.93 3.18-2.21 3.59-3.67 2.7-9.62 4.35-19.46 3.27-29.48-.62-5.74-2.16-11.49-7.81-14.41-3.6-1.87-7.61-3.4-11.59-3.99-6.07-.91-12.26-.84-19.03-1.22z" fill="#010105"/><path d="m271.05 263.79c.51-10.66 1.8-21.05 4.78-31.22.16-.54.31-1.07.5-1.6 1.62-4.67 5.77-5.73 8.27-1.61 2.11 3.48 3.63 7.81 3.84 11.84.39 7.68.09 15.46-.73 23.11-1.21 11.33.34 22.24 3.11 33.16 2.2 8.66 3.59 17.53 6.01 26.13 1.74 6.18 4.79 11.98 6.82 18.09 1.24 3.73 1.78 7.71 2.43 11.62.31 1.84-.67 2.68-2.7 2.9-6.15.65-6.19.79-9.24-4.64-10.25-18.25-16.15-38-19.59-58.5-1.64-9.69-2.37-19.52-3.5-29.28z" fill="#010105"/><path d="m200.09 231.5c6.58 1.12 9.88 4.49 9.87 10.81-.05 28.9-1.27 57.71-10.75 85.4-2.59 7.58-5.97 14.91-9.26 22.23-1.28 2.84-3.57 4.91-7.17 4.31-2.66-.44-4.79-1.49-4.46-4.7.44-4.29-.02-9.03 1.67-12.78 7.24-16.05 9.01-33.33 12.47-50.25 2.43-11.88 3.92-23.79 2.79-35.96-.63-6.76 1.4-13 4.84-19.06z" fill="#010105"/><path d="m194.84 40.49c4.98 2.16 7.55 6.06 7.66 11.07.48 23.29.24 46.54-7.05 69.06-3.73 11.53-9.72 21.82-17.24 31.22-1.32 1.65-3.38 3.17-5.37 3.68-1.77.45-4.75.08-5.72-1.12-1.32-1.64-2.18-4.69-1.58-6.62 1.13-3.66 2.79-7.57 5.36-10.31 10.7-11.4 15.04-25.32 16.1-40.3.9-12.69.66-25.46.85-38.2.1-6.94 1.6-13.29 6.99-18.48z" fill="#010105"/><path d="m318.45 148.7c-3.67 2.58-7.22 2.8-11.38 1.08-9.6-3.95-14.83-12.05-19.67-20.32-10.28-17.57-16.64-36.53-18.82-56.84-1.17-10.85.83-24.42 4.95-33.47 5.71.98 7.24 2.43 7.82 7.73 1.55 14 2.54 28.09 4.72 41.99 2.04 13.04 5.45 25.94 13.4 36.83 3.36 4.61 8 8.34 12.33 12.17 3.35 2.99 6.11 6.13 6.65 10.83z" fill="#010105"/><path d="m234.59 174.31c8.79.61 17.61.96 26.36 1.94 5.76.64 6.07 1.63 7.01 6.66.45 2.42-.5 3.5-2.43 3.83-6.69 1.14-13.41 2.88-20.13 2.92-9.68.05-19.4-.87-29.02-2.03-6.15-.74-6.13-1.35-5.52-8.1.2-2.17 3.86-4.58 7.23-4.62 5.48-.06 10.96-.02 16.45-.02.02-.2.03-.39.05-.58z" fill="#010105"/></svg>