<svg enable-background="new 0 0 400 400" viewBox="0 0 400 400" xmlns="http://www.w3.org/2000/svg"><g fill="#010103"><path d="m232.34 134.51c-7.69-8.29-15.07-16.24-22.75-24.51-3.46 4.27-6.58 8.6-10.24 12.42-2.23 2.33-5.08 4.46-8.06 5.53-2.11.76-6.08.45-7.09-.93-1.21-1.66-.87-5.29.1-7.49 1.54-3.49 3.82-6.82 6.41-9.64 7.88-8.57 16.2-16.72 24.06-25.3 4.53-4.95 9.49-9.03 15.7-11.67 3.27-1.39 7.58-2.56 9.13-5.18 1.64-2.76.64-7.13.63-10.8-.02-6.04-.66-12.12-.13-18.1.42-4.65 2.24-9.18 3.38-13.55 7.72.1 12.24 4.3 11.96 11.08-.23 5.56-1.27 11.09-1.96 16.63-.04.33-.08.67-.1 1-.68 9.46-.32 10.37 8.72 12.64 20.62 5.2 34.15 18.7 43.54 36.92 3.07 5.95 2.96 12.59.74 18.97-.42 1.2-1.54 2.44-2.67 3.08-6.04 3.42-12.72 4.75-19.54 5.54-6.26.73-12.23 2.38-18.55 5.79 8.65 2.23 16.64 4.02 24.46 6.39 8.1 2.46 16.06 5.37 23.98 8.35 1.59.6 3.36 2.18 3.94 3.72 1.79 4.82.87 5.99-4.24 7.37-7.71 2.09-14.83-.54-22-2.62-8.25-2.39-16.44-4.98-25.18-7.64-.36 10.54-.7 20.62-1.06 31.46 8.62.42 16.84.75 25.06 1.24 3.89.23 7.83.42 11.61 1.25 3.91.86 6.54 3.57 7.99 7.46.96 2.59.51 4.08-2.18 5.19-5.82 2.4-11.79 2.26-17.83 1.52-5.21-.65-10.41-1.49-15.63-2.04-2.51-.26-5.07-.05-7.96-.05-.33 9.11-.69 17.57-.83 26.04-.01.62 1.56 1.75 2.45 1.81 5.8.4 11.61.55 17.41.82 3 .14 6.04.16 8.99.66 1.55.27 3.41 1.11 4.31 2.31 1.41 1.88 2.55 4.22 2.85 6.49.08.65-3.08 2.3-4.88 2.52-8.75 1.08-17.53 1.91-26.31 2.68-4.93.43-5.07.29-5.11 5.04-.09 9.83-.03 19.66-.03 30.4 8.33 0 17-.09 25.66.04 4.67.07 9.38.24 13.99.89 3.28.47 5.92 2.48 7.58 5.56 1.24 2.3 1.17 4.14-1.67 4.82-6.38 1.53-12.78 4.05-19.2 4.13-16.64.21-33.29-.77-49.95-1.11-9.14-.19-18.29-.03-27.02-.03 0 6.86-.33 13.44.06 19.98 1.01 16.75 2.4 33.48 3.5 50.23.19 2.87-.15 5.81-.53 8.68-.36 2.75-1.92 4.53-4.98 4.29-2.69-.21-5.36-.27-5.84-4.01-1.23-9.52-2.95-18.97-3.95-28.51-1.75-16.68-3.57-33.37-4.5-50.11-.95-17.07-1.41-34.21-1.11-51.3.34-19.36 2.41-38.63 7.18-57.49 2.97-11.74 7.01-23.1 12.97-33.69.59-1.05 1.43-2 2.29-2.86 4.04-4.03 8.1-8.03 12.43-12.31zm62.15-20.39c-.65-1.7-1.04-2.98-1.62-4.17-8.09-16.62-21.86-25.8-39.44-29.84-2.66-.61-5.83-1.21-8.23-.34-10.78 3.88-18.67 11.85-26.82 19.73 7.76 8.24 15.21 16.27 22.83 24.14 2.82 2.92 7.77 1.81 8.99-2.14.91-2.92.89-6.14 1.15-9.24.57-6.88.69-13.83 1.71-20.64.75-5.01 4.46-6.21 8.66-3.15 1.5 1.09 2.87 3.02 3.29 4.8.71 3 .69 6.19.83 9.3.27 5.86.43 11.72.65 17.86 9.55-2.16 18.58-4.19 28-6.31zm-42.97 162.87c-.6-11.98-1.17-23.42-1.74-34.94-12.41 0-24.42 0-36.51 0v34.94zm-34.96-80.64c-.82 10.22-1.62 20.15-2.39 29.81h36.41c0-9.36 0-18.13 0-27.04-11.27-.92-22.29-1.82-34.02-2.77zm3.46-12.95c10.69-.39 20.67-.75 31.6-1.15 0-9.32.24-18.23-.1-27.12-.19-4.91-2.15-9.31-7.29-12.04-2.85 2.97-5.71 5.95-8.56 8.93-2 2.09-4.76 3.86-5.86 6.35-3.52 8.05-6.44 16.35-9.79 25.03z"/><path d="m145.03 214.52c-8.21-.58-16-1.14-24.2-1.73-.22 5.06-.48 9.92-.62 14.78-1 33-1.85 66-3.03 98.99-.31 8.69-1.48 17.37-2.58 26.01-.46 3.61-2.17 6.85-5.9 8.38-3.86 1.59-6.6.79-7.52-3.2-1.01-4.37-1.94-9.21-1.11-13.49 4.95-25.47 3.55-51.27 4.52-76.93.62-16.43.65-32.89 1.18-49.33.11-3.48-1.48-4.8-4.35-4.85-5.01-.09-10.04.01-15.05.36-6.37.45-10.18-2.58-10.42-8.88-.04-.94.47-2.51 1.13-2.76 2.97-1.14 6.07-2.66 9.14-2.69 27.2-.24 54.4-.22 81.6-.2 3.46 0 6.95.19 10.37.69 1.79.26 3.75 1.02 5.12 2.17 3.6 3.05 2.73 7.88-1.66 9.23-2.51.77-5.24.83-7.89 1.07-.98.09-1.99-.24-3-.33-8.06-.72-8.9.25-9.74 8.11-2.06 19.16.3 38.22.95 57.31.15 4.47.22 8.97.72 13.41 1.68 14.99 3.78 29.93 5.22 44.94.7 7.3.59 14.72.34 22.07-.15 4.42-3.32 6.73-7.62 6.36-.71-.06-1.69-.82-1.95-1.49-1.54-4.01-3.82-8.01-4.19-12.16-3.02-33.43-5.81-66.88-8.34-100.34-.78-10.36-.57-20.8-.82-31.2-.06-1.34-.2-2.66-.3-4.3z"/><path d="m140.25 99.45c0 11.48.02 22.54-.01 33.6-.05 17.91-.07 35.81-.22 53.72-.05 5.56-2.3 8.06-7.37 9.3-2.44.6-3.99-.11-4.52-2.49-1.23-5.55-3.26-11.11-3.3-16.69-.14-16.21.66-32.42.82-48.64.09-9.48-.33-18.96-.52-28.38-11.08 1.53-14.5 9.88-17.81 18.13-3.81 9.5-4.19 19.66-4.68 29.7-.42 8.71-.14 17.45-.34 26.17-.08 3.33-.39 6.71-1.05 9.97-.8 3.98-4.59 6.13-8.44 4.88-.92-.3-1.76-1.59-2.16-2.61-3.48-8.83-4.07-18.1-3.34-27.41 1.46-18.46 5.05-36.54 10.88-54.11.89-2.69 3.01-5.05 4.86-7.3 1.41-1.71 3.43-2.88 4.96-4.51 3.88-4.11 8.43-6.92 14.11-7.62 2.17-.27 2.97-1.46 3-3.58.14-9.61.4-19.23.53-28.84.11-7.67 1.24-15.11 4.39-22.14 5.27.5 9.36 3.86 9.98 9.64.6 5.6-.06 11.33-.17 17-.14 7.37-.28 14.73-.44 22.1-.06 2.66 1.15 4.44 3.55 5.54 1.93.88 3.74 2.08 5.74 2.74 11.48 3.82 18.01 12.03 21.81 23.21 4.41 12.95 6.28 26.28 7.15 39.81.72 11.08.66 22.15-1.46 33.11-.23 1.16-.86 2.91-1.69 3.17-2.4.77-4.99 1.08-7.52 1.18-.47.02-1.13-1.76-1.5-2.78-3.28-8.89-3.58-18.16-3.34-27.47.31-11.88.14-23.71-2.54-35.38-1.42-6.19-3.75-11.92-7.54-17.03-2.7-3.66-6.39-5.42-11.82-5.99z"/></g><path d="m385.2 377.6.6-.7c.6.4 1.3.9 1.9 1.5l-.6.7c-.8-.5-1.4-1-1.9-1.5zm.3 7.1c.6-1.4 1.1-2.9 1.5-4.5.3.1.6.3.9.4-.5 1.4-1 2.9-1.5 4.4zm.2-10.1.6-.6c.7.5 1.3 1.1 1.9 1.6l-.7.7c-.6-.6-1.2-1.2-1.8-1.7zm8.4-.8h.8v.9h1.8v.7h-1.8v1.8h-.8v-.3h-1.2v.9h3.3v2.6h-.8v-.4h-2.5c0 .3 0 .6-.1.8h3.4v.7h-3.5c0 .3-.1.6-.1.8h4v.7h-3.5c.7.9 1.9 1.3 3.6 1.5-.2.2-.4.5-.6.9-1.9-.3-3.2-1.1-3.8-2.3-.5 1.1-1.8 2-3.9 2.4-.2-.3-.4-.5-.6-.8 1.9-.4 3.1-.9 3.6-1.7h-3.2v-.7h3.5c.1-.2.1-.5.2-.8h-3.3v-.7h3.4c0-.2 0-.5 0-.8h-2.4v.3h-.8v-2.6h3.3v-.9h-1.2v.3h-.8v-1.8h-1.8v-.7h1.8v-.9h.8v.9h3.2zm-4.4 5.5h2.4c0-.3 0-.6 0-.9h-2.4zm1.2-3.1h3.2v-.8h-3.2zm4.4 2.2h-2.4v.9h2.5v-.9z" fill="#fcfbfa"/><path d="m389.2 385.8h.9v1.5h1.9v-1.5h.9v1.5h2.7v6h1.1v.9h-11.3v-.9h1.1v-6h2.7zm.2 8.7.5.8c-1.2.6-2.5 1.3-4 1.9-.2-.3-.3-.6-.6-.8 1.6-.6 3-1.3 4.1-1.9zm-2-4.3h1.9v-2.1h-1.9zm0 3.1h1.9v-2.2h-1.9zm2.7-3.1h1.9v-2.1h-1.9zm0 3.1h1.9v-2.2h-1.9zm2.4 1.3c1.4.6 2.7 1.2 4.1 1.8l-.5.9c-1.5-.7-2.8-1.4-4.1-1.9zm2.2-6.5h-1.9v2.1h1.9zm-1.9 5.2h1.9v-2.2h-1.9z" fill="#fcfbfa"/></svg>