<svg enable-background="new 0 0 400 400" viewBox="0 0 400 400" xmlns="http://www.w3.org/2000/svg"><g fill="#010103"><path d="m272.48 152.09c7.33 3.77 14.71 7.45 21.98 11.34 5.02 2.68 10.05 5.38 14.77 8.54 4.27 2.86 7.22 7.02 8.69 12.01.36 1.23.49 3.44-.17 3.89-1.51 1.02-3.75 2-5.36 1.61-2.75-.67-5.61-1.96-7.75-3.78-7.43-6.3-15.91-10.74-24.58-14.95-3.98-1.94-7.86-4.09-12.47-6.5v28.4c5.33.24 11.07.53 16.81.76 2.68.11 5.41-.22 8.02.23 1.88.32 4.09 1.18 5.25 2.56 1.48 1.77 2.52 4.26 2.73 6.53.07.71-3.06 2.27-4.85 2.51-4.96.66-9.98.87-14.99 1.19-3.45.22-6.91.31-10.37.5-1.67.09-2.57.79-2.56 2.73.08 9.28.04 18.56.04 28.84 5.16.19 10.88.41 16.6.59 2.45.08 4.96-.19 7.35.23 1.66.29 3.45 1.17 4.68 2.33 3.98 3.72 3.31 7.05-1.84 8.56-3.05.89-6.33 1.14-9.52 1.33-2.32.14-4.68-.34-7.02-.45-8.2-.37-9.06.37-9.61 8.3-.43 6.14-.82 12.28-1.22 18.43-.03.44 0 .88 0 2.18 7.05 0 14.01-.03 20.97.01 4.45.03 8.94-.16 13.35.33 3.63.4 6.25 2.73 7.74 6.21.95 2.22.73 3.58-1.81 4.62-6.83 2.82-13.97 4.23-21.26 4.15-13.97-.14-27.93-.84-41.9-1.13-8.36-.18-16.72-.03-25.18-.03-.12 1.61-.24 2.36-.22 3.11.51 23.72 1.01 47.44 1.61 71.16.06 2.52-.53 4.17-3.2 4.54-3.63.51-6.36-.72-6.71-3.48-1.31-10.52-2.64-21.05-3.56-31.6-1.23-14.14-1.76-28.35-3.19-42.47-1.78-17.65-2.49-35.33-.83-52.96 1.86-19.7 4.65-39.31 7.08-58.95.18-1.42.59-2.85 1.14-4.17 4.67-11.3 7.81-23.55 19.74-30.7-1.41-.92-2.07-1.44-2.8-1.82-5.28-2.69-10.52-5.45-15.88-7.98-4.5-2.13-6.48-5.61-6.39-10.44.1-5.27 1.67-9.59 5.41-13.85 9.76-11.1 20.97-20.02 34.42-26.06 2.79-1.25 3.54-2.96 3.48-5.91-.21-10.3-.14-20.6-.11-30.9.02-6.9 1.73-12.3 5.38-17.64 5.17 1.03 8.71 4.33 9.28 10.33.54 5.73.01 11.57-.22 17.35-.26 6.7-.66 13.4-1.09 20.09-.16 2.58.81 4.06 3.28 5.06 13.05 5.3 24.01 13.74 34.24 23.22 7.09 6.57 10.89 14.18 7.51 24-2.5 7.26-8.95 9.64-15.33 11.72-6.36 2.07-12.91 3.55-19.37 5.29-.04.34-.12.67-.19.99zm23.71-23.04c-2.54-4.03-4.42-8.19-7.33-11.44-9.03-10.07-20.87-15.02-33.97-17.36-2.91-.52-5.39.18-7.95 1.62-10.14 5.72-17.62 14.41-25.56 22.59-1.48 1.53-1.25 3.79.84 4.76 7.49 3.49 14.97 7.04 22.67 10 5.41 2.08 6.83 1 7.73-4.6.44-2.75.38-5.57.58-8.36.43-5.91.67-11.84 1.4-17.71.58-4.63 2.94-5.87 7.07-3.54 2.02 1.14 4.04 3.44 4.66 5.61.9 3.13.62 6.62.67 9.97.08 5.44.02 10.88.02 16.59 10.74-.2 19.97-2.11 29.17-8.13zm-77.45 109.03h33.85c-.59-10.44-1.15-20.31-1.73-30.46-9.75-.38-19.2-.8-28.66-1.01-.63-.01-1.78 1.45-1.87 2.31-.4 3.77-.5 7.57-.7 11.36-.31 6-.6 11.99-.89 17.8zm33.84 41.67c-.37-9.41-.72-18.26-1.07-27.11-11.15 0-21.83 0-32.2 0v27.11zm.31-87.59c0-9.44.21-18.69-.11-27.93-.11-3.27-1.93-6.25-5.24-7.65-.84-.35-2.26-.31-2.98.19-8.73 6.11-16.37 13.11-18.93 24.1-.97 4.16-2.03 8.3-3.2 13.03 10.55-.6 20.22-1.15 30.46-1.74z"/><path d="m128.59 169.64c7.26.4 9.14 2.65 8.85 9.44-.59 13.83-.01 11.43 9.99 15.38 1.87.74 3.77 1.42 5.71 1.95 19.36 5.38 29.95 19.22 35.15 37.57 4.41 15.54 3.34 31.02-3.33 45.91-.61 1.37-1.58 2.8-2.78 3.64-6.31 4.43-12.73 8.69-19.13 12.99-6.02 4.05-12.11 8-18.08 12.14-4.42 3.07-5.8 7.55-5.87 12.81-.13 9.92 2.98 19.17 5.36 28.58 1.34 5.31 2.71 10.61 3.94 15.94.29 1.27.28 2.67.1 3.98-.38 2.8-1.93 4.98-4.74 5.43-2.92.47-5.85-.55-6.96-3.47-2.54-6.65-5.21-13.33-6.85-20.23-2.78-11.68-4.18-23.68-3.02-35.65.73-7.54 3.45-14.63 10.56-19.11 9.56-6.02 18.75-12.65 28.48-18.35 8.38-4.91 11.58-12.35 11.62-21.23.04-11.41-2.8-22.36-7.56-32.76-.36-.78-1-1.48-1.64-2.09-17.03-16.15-36.64-20.56-59.17-13.82-7.42 2.22-11.55 6.53-14.2 13.49-5.65 14.9-7.57 29.78-1.94 45.16 2.29 6.26 6.02 11.44 11.62 14.65 3.32 1.9 7.67 2.03 11.55 2.94 1.09.26 2.49.12 3.2.77 1.29 1.18 2.91 2.75 3.01 4.26.11 1.63-.89 4-2.2 4.95-4.07 2.97-8.81 3.34-13.78 2.57-11.65-1.81-18.12-9.68-23.22-19.32-6.64-12.54-8.19-26.01-6.52-39.78.93-7.71 3.12-15.29 5.19-22.81.66-2.41 2.61-4.55 4.26-6.58 6.75-8.31 15.31-13.38 26.14-14.41 2.65-.25 5.21-1.27 7.85-1.72 2.3-.4 3.52-1.57 3.91-3.87.78-4.51 1.6-9.03 2.57-13.5.46-2.01 1.3-3.96 1.93-5.85z"/><path d="m129.04 75.22c.18-6.72.52-13.28.48-19.85-.06-9.31-.11-18.56 3.35-27.45.96-2.46 2.14-2.65 4.27-1.67 4.85 2.23 7.16 6.23 7.03 11.25-.16 5.9-1.23 11.77-1.58 17.67-.3 5.01-.15 10.04-.16 15.07 0 2.42 1.24 3.68 3.59 4.48 7.19 2.43 14.26 5.24 21.45 7.67 14.61 4.93 23.84 15.16 28.34 29.51 5.01 16 4.59 31.98-2.41 47.46-.84 1.86-2.26 3.58-3.75 5.01-7.48 7.14-15.9 13.04-26.27 14.57-5.48.81-11.29-.15-16.88-.89-1.28-.17-2.92-2.66-3.17-4.27-.31-2.02.09-4.29 3.07-5.12 7.53-2.1 14.88-4.84 22.44-6.8 9.78-2.54 14.66-9.53 16.07-18.57 2.11-13.52-1.27-26.5-8.68-37.75-4.38-6.64-12.17-10.12-19.8-12.61-16.9-5.52-33.68-4.89-50.15 1.89-1.19.49-2.37 1.29-3.23 2.23-15.02 16.55-16.77 39.84-7.71 59.25.44.93 1.33 1.91 2.26 2.31 4.78 2.1 9.59 4.14 14.49 5.95 3.51 1.3 5.61 3.6 6.09 7.24.11.87-.39 2.42-1.01 2.67-3.26 1.29-6.65 3.17-9.99 3.17-7.12-.01-13.12-2.61-17.96-8.62-11.39-14.14-13.9-30.23-12.63-47.67.72-9.82 5.14-18.19 8.98-26.82.88-1.97 3.22-3.34 5.02-4.82 6.95-5.73 14.2-11 23.34-12.61 4.72-.83 9.53-1.2 15.11-1.88z"/><path d="m132.99 167.1c-1.28-4.64-2.28-8.87-3.67-12.97-.46-1.36-1.72-2.76-3-3.46-2.73-1.5-5.61-2.87-8.59-3.73-8.4-2.44-12.48-8.66-14.56-16.47-2.38-8.92-2.29-17.86.38-26.8 1.03-3.45 3.96-2.78 6.23-3.32.58-.14 2.15 1.68 2.42 2.81 1.4 5.71 3.43 11.47 3.53 17.24.14 8.12 3.77 14.01 12.88 17.31 2.13-6.55 1.82-13.23 1.18-19.89-.61-6.38.38-12.41 2.81-18.33 1.12-2.72 2.51-2.85 4.85-1.88 4.25 1.76 6.96 4.82 6.77 9.42-.2 4.99-1.4 9.94-1.72 14.94-.31 4.94-.07 9.92-.07 15.39 3.56-.88 6.38-1.43 9.07-2.35.84-.29 1.68-1.53 1.9-2.47 1.49-6.4 2.8-12.84 4.2-19.26.57-2.61.95-5.31 1.96-7.75.63-1.52 2.05-2.97 3.49-3.85 2.97-1.84 4.83-1.11 6.2 2.13 4.11 9.68 2.4 19.29-.4 28.88-2.48 8.48-8.22 13.5-16.56 15.96-3.9 1.15-8.3 1.94-9.45 6.86-.37 1.58-.53 3.32-.3 4.91.56 3.82.11 4.85-3.57 5.79-1.79.44-3.7.55-5.98.89z"/><path d="m121.18 252.62c.34-5.08 1.1-10.17.91-15.23-.27-7.27.15-14.3 3.43-20.91 5.58.33 9.66 4.42 9.76 10.65.07 4.2-.96 8.41-1.31 12.63-.2 2.32-.32 4.71.05 6.98.58 3.61 2.89 5.6 6.47 5.54 1.24-.02 2.99-.94 3.61-1.98 3.62-6.03 3.91-12.93 4.83-19.69.36-2.68 1.16-5.58 2.67-7.76 2.93-4.24 7.29-3.59 9.41 1 2.62 5.66 2.51 11.54 1.13 17.42-.89 3.8-2.34 7.46-3.27 11.26-1.31 5.33-4.81 8.23-9.82 9.87-3.18 1.04-6.2 2.6-9.4 3.56-4.31 1.29-5.97 4.34-6.37 8.43-.12 1.22-.16 2.45-.19 3.68-.11 4.48-3.32 6.64-7.48 4.86-.71-.3-1.31-1.41-1.51-2.25-.83-3.48-1.31-7.05-2.28-10.48-.36-1.28-1.55-2.51-2.67-3.34-1.33-.97-2.95-1.64-4.53-2.14-8.52-2.7-11.8-9.45-13.23-17.39-1.4-7.78-.84-15.58.42-23.38.66-4.09 3.94-3.35 6.36-3.93.66-.16 2.4 1.73 2.66 2.9 1.22 5.54 2.3 11.13 3.02 16.76.65 5.07 2.5 9.39 5.96 13.03.46-.04.92-.07 1.37-.09z"/></g><path d="m385.2 377.6.6-.7c.6.4 1.3.9 1.9 1.5l-.6.7c-.8-.5-1.4-1-1.9-1.5zm.3 7.1c.6-1.4 1.1-2.9 1.5-4.5.3.1.6.3.9.4-.5 1.4-1 2.9-1.5 4.4zm.2-10.1.6-.6c.7.5 1.3 1.1 1.9 1.6l-.7.7c-.6-.6-1.2-1.2-1.8-1.7zm8.4-.8h.8v.9h1.8v.7h-1.8v1.8h-.8v-.3h-1.2v.9h3.3v2.6h-.8v-.4h-2.5c0 .3 0 .6-.1.8h3.4v.7h-3.5c0 .3-.1.6-.1.8h4v.7h-3.5c.7.9 1.9 1.3 3.6 1.5-.2.2-.4.5-.6.9-1.9-.3-3.2-1.1-3.8-2.3-.5 1.1-1.8 2-3.9 2.4-.2-.3-.4-.5-.6-.8 1.9-.4 3.1-.9 3.6-1.7h-3.2v-.7h3.5c.1-.2.1-.5.2-.8h-3.3v-.7h3.4c0-.2 0-.5 0-.8h-2.4v.3h-.8v-2.6h3.3v-.9h-1.2v.3h-.8v-1.8h-1.8v-.7h1.8v-.9h.8v.9h3.2zm-4.4 5.5h2.4c0-.3 0-.6 0-.9h-2.4zm1.2-3.1h3.2v-.8h-3.2zm4.4 2.2h-2.4v.9h2.5v-.9z" fill="#fcfbfa"/><path d="m389.2 385.8h.9v1.5h1.9v-1.5h.9v1.5h2.7v6h1.1v.9h-11.3v-.9h1.1v-6h2.7zm.2 8.7.5.8c-1.2.6-2.5 1.3-4 1.9-.2-.3-.3-.6-.6-.8 1.6-.6 3-1.3 4.1-1.9zm-2-4.3h1.9v-2.1h-1.9zm0 3.1h1.9v-2.2h-1.9zm2.7-3.1h1.9v-2.1h-1.9zm0 3.1h1.9v-2.2h-1.9zm2.4 1.3c1.4.6 2.7 1.2 4.1 1.8l-.5.9c-1.5-.7-2.8-1.4-4.1-1.9zm2.2-6.5h-1.9v2.1h1.9zm-1.9 5.2h1.9v-2.2h-1.9z" fill="#fcfbfa"/></svg>