<svg enable-background="new 0 0 400 400" viewBox="0 0 400 400" xmlns="http://www.w3.org/2000/svg"><g fill="#010103"><path d="m206.52 74.51c0 9.56.05 18.39-.01 27.21-.12 16.22-.3 32.45-.48 48.67-.02 1.45-.19 2.91-.41 4.34-.92 5.85-3.27 7.98-9.67 8.55-2.57-4.79-3.95-10.14-4.01-15.56-.16-14.42.19-28.85.28-43.27.06-9.06.01-18.11.01-27.82-7.51-.12-15.05-.45-22.58-.31-8.26.15-16.52 1.08-24.78 1.04-9.67-.05-19.21.58-28.64 2.8-2.14.5-3.37 1.53-4.38 3.52-4.69 9.23-7.21 19.04-7.74 29.29-.54 10.5-.54 21.02-.86 31.53-.1 3.45-.13 6.97-.83 10.32-.4 1.88-1.76 3.97-3.32 5.12-3.99 2.96-6.53 2-8.12-2.69-.57-1.68-1.16-3.45-1.2-5.19-.42-19.93-.49-39.86 4.02-59.43 1.12-4.88 2.97-9.6 4.66-14.32.42-1.17 1.43-2.25 2.41-3.07 9.51-8.02 20.74-11.85 32.96-12.55 14.73-.84 29.49-1.24 44.24-1.73 4.67-.16 9.35-.02 14.27-.02.62-6.88 1.18-13.17 1.76-19.67-1.2-.11-2.06-.24-2.92-.25-25.29-.23-50.58-.44-75.87-.69-6.92-.07-13.86-.07-20.76-.56-3.93-.28-5.83-2.61-6.09-6-.26-3.34 3.2-6.67 7.38-7.06 1-.09 2.01-.03 3.02-.03 49.03 0 98.07.05 147.1-.03 14.32-.02 28.64-.63 42.96-.52 4.94.04 9.96 1.08 14.77 2.33 3.48.9 5.82 3.61 6.43 7.66-5.99 3.11-12.41 4.78-18.99 4.92-13.85.3-27.72.13-41.58 0-13.31-.13-26.62-.46-39.94-.69-1.09-.02-2.18.09-3.43.15v20.5c7.84.65 15.6 1.66 23.39 1.86 10.95.27 21.92-.2 32.88-.08 8.14.08 16.06 1.52 23.09 5.95 6.85 4.32 11.39 10.1 13.36 18.38 2.74 11.56 3.23 23.2 3.62 34.94.23 6.93.74 13.85 1.2 20.77.37 5.55-.16 10.91-2.61 16.02-1.4 2.94-4.12 2.39-6.38 2.5-.97.05-2.6-1.38-2.94-2.46-1.08-3.37-2.29-6.87-2.36-10.34-.21-9.62.48-19.25.14-28.86-.29-8.22-1.26-16.44-2.37-24.61-1-7.35-5.81-11.78-12.5-14.46-8.33-3.33-17.05-4.43-25.93-4.72-13.84-.47-27.69-.91-42.25-1.38z"/><path d="m182.25 166.06c5.22 9.26 6.88 19.11 4.74 29.25-1.84 8.7-4.61 17.22-7.25 25.73-.49 1.58-2.34 2.73-3.58 4.07-.14.15-.39.21-.59.32-8.39 4.84-16.4 10.68-26.67 9.62-1.42 5.61-1.25 6.13 3.19 8.32 2.4 1.19 4.82 2.39 7.36 3.23 15.61 5.18 24.57 16.99 30.74 31.27 5.56 12.87 7.86 26.52 8.2 40.52.1 4.25.54 8.49.55 12.74.01 2.53-.19 5.17-.89 7.58-1.36 4.67-3.1 5.75-7.86 5.31-.83-.08-1.84-1.05-2.29-1.87-2.83-5.15-3.62-10.76-3.42-16.55.46-13.25-1.84-26.05-6.04-38.57-3.73-11.1-8.97-21.04-20.1-26.47-2.86-1.4-5.88-2.47-9.48-3.97 0 9.5.05 18.21-.01 26.91-.15 21.04-.36 42.08-.53 63.12-.06 7.04.14 14.09-.2 21.12-.27 5.57-3.85 8.24-8.7 6.85-1.08-.31-2.36-1.62-2.65-2.71-3.57-13.44-3.89-27.19-3.39-40.98.86-23.26 1.86-46.52.4-69.79-.08-1.21-.18-2.42-.26-3.56-11.06 2.1-17.74 9.29-23.35 18.18-5.87 9.31-7.78 19.62-8.98 30.23-1.13 10-2.34 19.99-3.59 29.98-.22 1.76-.69 3.52-1.26 5.21-.88 2.59-3 3.37-5.54 3.54-2.44.16-3.53-1.15-4.37-3.25-4.34-10.88-3.89-21.99-1.06-32.98 3.14-12.22 6.95-24.27 10.54-36.37.37-1.24 1.14-2.44 1.99-3.43 4.73-5.52 9.3-11.23 14.45-16.35 2.34-2.33 5.82-3.57 8.9-5.06 2-.97 4.2-1.52 6.31-2.23 4.4-1.49 6.79-4.47 6.94-9.64-4.09-.84-8.19-1.9-12.35-2.49-13.21-1.9-20.77-9.78-23.49-22.41-2.9-13.5-2.79-27.11-.06-40.65.2-1.01 1.39-2.07 2.39-2.61 1.24-.66 2.76-.8 4.45-1.24 3.16 6.76 4.94 13.84 5.71 21.16.48 4.55.63 9.15.77 13.73.35 10.89 5.26 16.97 15.87 19.4 1.82.42 3.71.57 6.34.96.49-6.75 1.48-13.19 1.3-19.59-.27-9.82-1.52-19.61-2.05-29.43-.51-9.66 1.17-18.92 6.1-27.37 6.08.54 8.58 2.91 8.62 8.93.14 20.59.1 41.19.13 61.78.01 5.05 2.08 6.82 7.1 5.65 6.25-1.46 11.77-4.16 13.2-11.19 1.33-6.53 2.32-13.14 3.24-19.75.64-4.64.52-9.41 1.44-13.97.98-4.86 3.52-8.89 9.04-10.23z"/><path d="m304.07 260.98c.09 18.57-.3 35.01-4.12 51.13-1.15 4.87-2.62 9.75-4.65 14.3-1.3 2.91-3.47 5.83-6.01 7.72-19.23 14.28-40 14.75-61.08 5.11-4.05-1.86-6.85-7.18-9.43-11.38-4.54-7.4-5.34-16.05-6.68-24.41-4.24-26.33-4.62-52.83-1.82-79.27 1.14-10.8 4.39-21.38 6.78-32.04 1.13-5.03 4.2-8.71 8.41-11.64 7.16-5 14.93-8.05 23.77-7.83 7.48.19 15.01.04 22.43.8 14.04 1.44 24.56 11.81 26.96 25.88 3.6 21.08 5.79 42.3 5.44 61.63zm-80.61 26.31c1.59 10.46 2.48 19.8 4.53 28.88 1.84 8.15 6.7 13.53 16.04 14.35 11.49 1.01 22.75 1.7 33.34-4 3.61-1.94 6.62-4.26 7.47-8.77.83-4.37 2.74-8.56 3.36-12.94.7-5.02.56-10.17.66-15.27.05-2.44-1.4-3.02-3.73-2.94-9.38.33-18.76.57-28.14.66-10.82.11-21.65.03-33.53.03zm65.84-13.83c-.36-11.92-.71-23.66-1.06-35.28-21.52 0-42.48 0-63.29 0v35.28zm-1.54-49.29c1.53-7.19-.51-20.89-3.82-26.95-2.04-3.73-5.04-6.42-9.02-7.57-13.93-4.04-27.9-6.65-41.35 1.62-1.12.69-2.23 1.86-2.69 3.06-1.67 4.38-3.19 8.82-4.52 13.31-1.6 5.39-2.47 10.87-.57 16.53z"/><path d="m178.76 105.21c-8.41 4.6-16.29 5.7-24.39 5.96-9.65.3-19.14-.52-28.53-2.94-3.47-.9-3.21-3.32-3.78-5.72-.56-2.36.49-3.65 2.49-4.34 2.25-.78 4.56-1.91 6.86-1.95 11.04-.2 22.09-.27 33.13.05 2.87.08 5.97 1.25 8.45 2.76 2.17 1.31 3.63 3.81 5.77 6.18z"/><path d="m146.79 125.19c6.78.39 13.6.49 20.33 1.29 2.71.32 5.63 1.71 7.76 3.45 3.59 2.95 2.75 6.31-1.53 7.87-9.05 3.3-18.47 3.11-27.82 2.46-6.87-.48-13.67-1.96-20.52-2.83-3.26-.41-2.34-3.03-2.82-4.84-.41-1.56-.62-3.07 1.37-4.26 2.88-1.73 5.76-2.73 9.14-2.63 4.69.13 9.38.03 14.07.03.01-.17.01-.36.02-.54z"/><path d="m248.25 129.43c7.25 0 14.5.09 21.75-.05 2.23-.04 3.06.71 3.5 2.86 1.28 6.26 1.33 6.54-4.95 8.14-10.52 2.68-21.26 2.48-31.97 1.7-4.33-.32-8.66-.97-12.93-1.74-3.84-.7-6.84-5.62-4.71-8.62 1.46-2.06 4.91-3.57 7.57-3.75 7.22-.5 14.49-.17 21.75-.17-.01.53-.01 1.08-.01 1.63z"/><path d="m277.37 107.12c-6.47 3.64-13.18 4.81-19.99 5.1-10.81.47-21.67.82-32.16-2.73-1.81-.61-3.35-1.19-3.22-3.82.23-4.44 3-7.65 7.84-7.53 14.39.37 28.77.96 43.15 1.57.75.03 1.76.86 2.12 1.58.88 1.79 1.46 3.71 2.26 5.83z"/></g><path d="m385.2 377.6.6-.7c.6.4 1.3.9 1.9 1.5l-.6.7c-.8-.5-1.4-1-1.9-1.5zm.3 7.1c.6-1.4 1.1-2.9 1.5-4.5.3.1.6.3.9.4-.5 1.4-1 2.9-1.5 4.4zm.2-10.1.6-.6c.7.5 1.3 1.1 1.9 1.6l-.7.7c-.6-.6-1.2-1.2-1.8-1.7zm8.4-.8h.8v.9h1.8v.7h-1.8v1.8h-.8v-.3h-1.2v.9h3.3v2.6h-.8v-.4h-2.5c0 .3 0 .6-.1.8h3.4v.7h-3.5c0 .3-.1.6-.1.8h4v.7h-3.5c.7.9 1.9 1.3 3.6 1.5-.2.2-.4.5-.6.9-1.9-.3-3.2-1.1-3.8-2.3-.5 1.1-1.8 2-3.9 2.4-.2-.3-.4-.5-.6-.8 1.9-.4 3.1-.9 3.6-1.7h-3.2v-.7h3.5c.1-.2.1-.5.2-.8h-3.3v-.7h3.4c0-.2 0-.5 0-.8h-2.4v.3h-.8v-2.6h3.3v-.9h-1.2v.3h-.8v-1.8h-1.8v-.7h1.8v-.9h.8v.9h3.2zm-4.4 5.5h2.4c0-.3 0-.6 0-.9h-2.4zm1.2-3.1h3.2v-.8h-3.2zm4.4 2.2h-2.4v.9h2.5v-.9z" fill="#fcfbfa"/><path d="m389.2 385.8h.9v1.5h1.9v-1.5h.9v1.5h2.7v6h1.1v.9h-11.3v-.9h1.1v-6h2.7zm.2 8.7.5.8c-1.2.6-2.5 1.3-4 1.9-.2-.3-.3-.6-.6-.8 1.6-.6 3-1.3 4.1-1.9zm-2-4.3h1.9v-2.1h-1.9zm0 3.1h1.9v-2.2h-1.9zm2.7-3.1h1.9v-2.1h-1.9zm0 3.1h1.9v-2.2h-1.9zm2.4 1.3c1.4.6 2.7 1.2 4.1 1.8l-.5.9c-1.5-.7-2.8-1.4-4.1-1.9zm2.2-6.5h-1.9v2.1h1.9zm-1.9 5.2h1.9v-2.2h-1.9z" fill="#fcfbfa"/></svg>