<svg enable-background="new 0 0 400 400" viewBox="0 0 400 400" xmlns="http://www.w3.org/2000/svg"><path d="m37.59 393.81c-.92.31-1.52.05-2-.78-.7-1.2-1.52-2.34-2.47-3.78v4.59c-.55.03-.95.05-1.41.07-.03-.37-.06-.64-.06-.91 0-1.91 0-3.81 0-5.7 1.13-.41 1.77-.03 2.29.91.62 1.11 1.38 2.14 2.31 3.19v-4.2h1.35v6.61z" fill="#fbfafa"/><path d="m12.94 393.88v-6.75c1.9.19 3.93-.54 5.37 1.29.8 1.01.78 2.88.03 3.97-1.37 1.97-3.4 1.51-5.4 1.49m1.45-1.22c2.04.12 2.92-.58 2.89-2.21-.03-1.51-.98-2.19-2.89-2z" fill="#fbfafa"/><path d="m11.81 393.87h-5.49c.68-2.18 2.47-3.48 3.51-5.45h-3.08v-1.21h5.29c-.71 2.13-2.44 3.48-3.47 5.51.86 0 1.63.04 2.39-.01.79-.05 1.14.21.85 1.16" fill="#fbfafa"/><path d="m39.33 393.86v-6.61h3.7v1.07h-2.22v1.52c.68.04 1.34.09 2.07.13v1.07c-.72.05-1.38.09-2.1.14v1.48h2.4v1.19h-3.85z" fill="#fbfafa"/><path d="m27.71 388.56c-1.15-.3-2.46-.61-3.1.64-.37.73-.41 1.93-.06 2.67.63 1.35 1.99.93 3.17.68.35.94-.01 1.32-.93 1.46-1.62.25-3.05-.27-3.76-1.48-.73-1.24-.6-3.03.31-4.17.88-1.11 2.71-1.7 4-1.16.32.13.44.74.65 1.12-.1.08-.19.16-.28.24" fill="#fbfafa"/><path d="m49.15 387.24v1.07c-.59.02-1.17.05-1.87.08v5.44h-1.48v-5.44h-1.85c-.05-.4-.08-.73-.13-1.15z" fill="#fbfafa"/><path d="m20.06 387.21h1.33v6.62h-1.33z" fill="#fbfafa"/><path d="m30.68 393.25c-.49.38-.8.79-1.05.76-.32-.05-.6-.45-.9-.7.26-.24.51-.64.8-.67.29-.04.62.3 1.15.61" fill="#fbfafa"/><g fill="#010105"><path d="m199.8 72.87c0 6.52.05 12.98-.01 19.44-.15 17.68-.32 35.36-.54 53.03-.03 2.23-.3 4.47-.66 6.67-.54 3.31-2.57 5.24-5.84 6.14-2.22.61-3.58-.05-3.97-2.15-1.23-6.68-3.13-13.36-3.27-20.08-.26-12.51.63-25.05.87-37.57.16-8.47.03-16.95.03-25.82-6.47.34-12.02.69-17.56.91-14.19.56-28.4.88-42.36 3.91-2.62.57-5.2 1.49-7.84 1.75-5.07.51-7.6 3.58-9.7 7.87-5.34 10.9-7.13 22.53-7.7 34.43-.39 8.27-.43 16.55-.71 24.82-.08 2.45-.17 4.96-.81 7.3-.47 1.72-1.49 3.62-2.85 4.71-4.08 3.3-7.47 2.34-8.29-2.74-1.2-7.46-2.3-15.07-2.15-22.59.33-17.06 3-33.82 8.59-50.04 1.21-3.52 3.2-6.22 6.16-8.49 9.13-7.01 19.34-10.92 30.84-11.84 9.81-.79 19.56-2.31 29.37-2.95 7.57-.49 15.2-.1 23.23-.1.86-6.37 1.68-12.39 2.58-19.07-4.35 0-8.43.03-12.51 0-25.39-.21-50.79-.43-76.18-.69-2.11-.02-4.26-.2-6.33-.61-3.98-.78-6.3-3.96-6.12-8.02.09-1.84 3.91-4.52 6.88-4.77.89-.08 1.79-.02 2.69-.02 52.72 0 105.44.02 158.16-.02 11.63-.01 23.26-.36 34.88-.23 3.27.04 6.63.97 9.76 2.03 1.65.56 3.24 2.05 4.25 3.53 1.94 2.83 1.08 4.87-1.99 6.35-5.08 2.45-10.49 1.86-15.84 1.85-27.53-.04-55.07-.13-82.6-.19-.65 0-1.29.13-2.18.22-.34 6.02-.67 11.89-1.03 18.1 1.78.18 3.28.38 4.8.47 14.62.89 29.25 1.64 43.86 2.66 23.81 1.65 34.74 10.84 41.87 34.68 5.56 18.59 6.58 37.85 3.02 57.14-.18.99-.6 1.95-.64 2.94-.15 3.52-2.73 3.62-5.29 4.12-2.85.56-3.41-1.48-4.23-3.25-3.66-7.96-3.76-16.42-3.74-24.97.03-10.27-.14-20.55-.64-30.8-.53-10.81-7.43-17.39-16.62-21.22-6.4-2.67-13.41-4.56-20.3-5.23-13-1.25-26.1-1.37-39.16-1.94-.52.03-1.06.18-2.18.33z"/><path d="m92.16 257.87c-2.44 8.13-2.07 15.73-.06 23.34 1.57 5.94 3.18 11.87 4.61 17.85.43 1.81.54 3.77.41 5.63-.18 2.61-1.74 4.42-4.31 4.92-2.46.48-4.69.29-6.48-2.2-7.65-10.65-10.51-22.73-10.11-35.49.77-24.5 5.84-48.12 17-70.1 1.89-3.72 5.48-6.68 8.6-9.66 7.37-7.03 15.89-11.64 26.27-12.91 21.83-2.67 42.8 12.46 46.29 34.13 3.69 22.87.28 44.54-12 64.48-1.1 1.78-2.62 3.31-4 4.91-7.41 8.65-15.36 16.89-22.14 26.01-9.48 12.75-9.02 26.5-2.14 40.51 2.14 4.35 3.3 9.19 4.72 13.87.71 2.36.66 5.03-2.11 5.97-2.74.94-5.62 1.14-7.99-1.52-8.72-9.82-12.64-21.36-13.02-34.36-.4-13.77 4.51-25.84 11.68-37.16 2.07-3.27 1.97-6.17.38-9.43-7.32-15.09-20.07-23.4-35.6-28.79zm48.04 25.45c1-1.14 1.69-2 2.46-2.78 7.27-7.45 10.99-17.02 15.57-26.07.79-1.57 1.41-3.3 1.73-5.03 2.16-11.79 2.28-23.57-.34-35.32-2.91-13.04-18.19-23.37-31.17-20.55-9.15 1.99-16.35 7.43-22.42 14.48.28.2.43.37.63.45.83.33 1.65.69 2.51.93 14.49 4.1 26.81 11.68 36.56 23.17 2.26 2.66 4.25 5.85 5.3 9.13.61 1.9-.42 4.86-1.71 6.6-.65.88-3.74.61-5.36-.05-2.2-.9-4.34-2.39-5.99-4.12-3.47-3.64-6.57-7.63-9.89-11.41-.78-.89-1.76-1.75-2.82-2.23-4.47-2.05-8.91-4.21-13.54-5.82-4.13-1.44-8.5-2.19-12.91-3.29-1.42 5.34-2.62 9.86-3.84 14.39-2.4 8.89-2.18 9.18 6.92 11.76 3.96 1.12 8.03 2.13 11.73 3.88 6.85 3.25 11.82 8.7 15.83 15.07 3.49 5.54 7.06 11.05 10.75 16.81z"/><path d="m231.98 222.63c-3.84-3.45-7.3-6.97-11.18-9.95-8.83-6.78-12.15-16.19-12.61-26.67-.57-12.74 3.28-24.49 9.76-35.37.45-.75 2.03-1.32 2.96-1.18 2.56.4 5.38 1.16 5.82 4.19.36 2.47.14 5.12-.28 7.61-1.11 6.72-2.23 13.46-3.79 20.09-2.02 8.64 1.55 15.19 6.97 21.33 8.75 9.92 20.44 13.56 32.88 15.75 11.33 1.99 22.73 3.73 33.96 6.17 8.13 1.77 14.79 6.46 19.19 13.61 1.29 2.09 2.12 5.53 1.29 7.6-1.15 2.85-6.71 3.6-10.02 1.91-3.17-1.62-6.25-3.53-9.1-5.67-3.4-2.55-7.11-3.98-11.22-4.9-12.32-2.78-24.59-5.75-36.86-8.75-1.75-.43-2.65-.06-3.96 1.24-8.8 8.7-8.99 18.94-6.45 30.15 2.93 12.96 5.49 26.01 7.67 39.12 3.06 18.41-1.24 35.77-8.72 52.5-1.13 2.54-2.29 5.21-4.08 7.27-1.76 2.02-4.1 3.98-6.58 4.82-5.94 2-6.94 1.07-7.35-5.31-.15-2.37 1.2-4.92 2.14-7.28 3.16-7.97 7.09-15.71 9.52-23.89 3.13-10.51 1.51-21.23-.64-31.87-2.6-12.82-5.12-25.67-6.97-38.61-.74-5.18.6-10.62.63-15.95.02-6.84 3.36-12.33 7.02-17.96z"/><path d="m194.23 248.39c-.87-3.82-1.42-8.16-2.86-12.18-3.67-10.19-7.44-20.36-11.74-30.3-3.33-7.69-3.01-15.19-.75-22.88 1.35-4.61 2.68-9.24 4.44-13.69.71-1.78 2.52-4.27 3.92-4.33 1.95-.09 4.75 1.32 5.8 2.97 1.31 2.07 1.8 5.07 1.61 7.6-.4 5.55-1.67 11.04-2.19 16.58-.69 7.39.89 14.3 4.52 20.93 4.94 9.03 9.47 18.39 10.37 28.81.48 5.48.09 11.17-.87 16.6-1.17 6.69-3.14 13.26-5.13 19.77-2.06 6.71-1.51 13.22.41 19.79 1.62 5.57 3.44 11.11 4.61 16.78 1.69 8.23.3 16.25-2.95 23.93-2.48 5.86-4.68 11.9-7.78 17.42-2.13 3.8-5.33 7.16-8.61 10.09-1.34 1.2-4.18 1.08-6.28.9-.87-.07-2.4-2.03-2.25-2.87.74-4.13 1.58-8.33 3.1-12.23 2.03-5.19 4.91-10.03 7.08-15.17 3.46-8.21 4.87-16.56 1.95-25.44-2.16-6.56-3.58-13.38-5.09-20.13-.44-1.97-.4-4.22.08-6.18 1.75-7.04 3.95-13.98 5.66-21.03 1.22-4.98 1.92-10.08 2.95-15.74z"/><path d="m270.23 261.77c-1.25 6.26-.7 11.69 2.21 16.54 11.39 18.98 13.1 39.79 10.56 60.96-1.21 10.07-4.81 19.91-7.86 29.69-1.55 4.96-5.03 6.42-9.98 6.01-2.28-.19-3.78-1.3-3.91-3.36-.19-2.82-.3-5.82.44-8.5 2.22-7.95 5.52-15.63 7.24-23.67 4-18.65 1.82-36.68-7.39-53.63-4.56-8.39-5.7-17.35-4.12-26.66.94-5.57 8.21-11.07 13.86-10.14 15.34 2.5 28.13 9.85 38.53 21.31 1.6 1.77 2.64 4.15 3.55 6.4.52 1.3.85 3.79.23 4.22-1.61 1.09-4.02 2.17-5.7 1.72-2.92-.79-5.65-2.54-8.23-4.24-6.79-4.47-13.33-9.33-20.24-13.61-2.54-1.58-5.83-1.97-9.19-3.04z"/><path d="m244.04 178.14c1.2-7.87 3.87-16.38 11.06-23.04 2.71-2.51 4.9-1.39 7.22-.17 2.35 1.23 3.25 3.47 2.35 5.99-.82 2.3-2.24 4.39-3.03 6.69-1.25 3.65-2.57 7.34-3.15 11.13-.42 2.71.97 4.91 3.86 6.34 7.95 3.92 16.57 5.22 25.05 7.16 3.22.74 6.43 1.93 9.35 3.48 1.87.99 3.37 2.88 4.73 4.6 1.92 2.43 1.36 4.29-1.55 5.78-6.52 3.35-13.29 3.45-19.84.95-9.06-3.46-17.96-7.38-26.7-11.57-5.93-2.85-9.36-9.39-9.35-17.34z"/><path d="m146.91 120.1c3.29.2 9.67.29 15.96 1.07 4.21.52 7.84 2.49 9.05 7.27.57 2.27 0 3.49-2.2 4.38-7.88 3.19-16.14 3.56-24.4 3.02-8.1-.53-16.15-1.88-24.23-2.72-4.08-.42-2.93-3.74-3.65-6.02-.74-2.36 1.26-2.57 2.63-3.45 7.43-4.75 15.74-3.06 26.84-3.55z"/><path d="m241.15 122.05c6.47 0 12.94.03 19.42-.01 3.05-.02 4.81 1.47 5.39 4.4.58 2.91-.25 5.26-3.34 5.92-5.76 1.22-11.58 3.09-17.36 3.04-10.45-.1-20.88-1.38-31.32-2.23-1.91-.16-3.45-.84-3.28-3.29.16-2.34-1.21-4.73 2.33-6.33 4.8-2.17 9.42-3.52 14.76-2.93 4.41.49 8.92.1 13.39.1.01.44.01.89.01 1.33z"/><path d="m114.93 95.53c4.57-3.56 9.61-3.81 14.63-3.79 9.82.03 19.65 0 29.44.53 3.04.17 6.36 1.53 8.9 3.29 3.89 2.7 3.26 6.82-1.23 7.94-5.9 1.48-12.03 2.97-18.03 2.88-9.33-.13-18.64-1.65-27.96-2.45-3.35-.29-4.95-1.93-5.18-5.19-.08-1.09-.38-2.17-.57-3.21z"/><path d="m234.62 91.4c8.21.69 16.44 1.26 24.63 2.17 1.9.21 4.54.06 4.89 3.41.36 3.51-.98 5.35-4.13 6.56-7.17 2.73-14.64 3.13-22.11 2.64-8.11-.53-16.18-1.59-24.25-2.65-1.05-.14-2.78-1.62-2.74-2.42.1-2.36-2.01-4.97 1.34-7.16 4.28-2.81 8.87-1.59 13.3-2.08 2.98-.33 6.02-.06 9.04-.06.01-.13.02-.27.03-.41z"/></g></svg>