<svg enable-background="new 0 0 400 400" viewBox="0 0 400 400" xmlns="http://www.w3.org/2000/svg"><g fill="#fbfafa"><path d="m37.59 393.81c-.92.31-1.52.05-2-.78-.7-1.2-1.52-2.34-2.47-3.78v4.59c-.55.03-.95.05-1.41.07-.03-.37-.06-.64-.06-.91 0-1.91 0-3.81 0-5.7 1.13-.41 1.77-.03 2.29.91.62 1.11 1.38 2.14 2.31 3.19v-4.2h1.35v6.61z"/><path d="m12.94 393.88v-6.75c1.9.19 3.93-.54 5.37 1.29.8 1.01.78 2.88.03 3.97-1.37 1.97-3.4 1.51-5.4 1.49m1.45-1.22c2.04.12 2.92-.58 2.89-2.21-.03-1.51-.98-2.19-2.89-2z"/><path d="m11.81 393.87h-5.49c.68-2.18 2.47-3.48 3.51-5.45h-3.08v-1.21h5.29c-.71 2.13-2.44 3.48-3.47 5.51.86 0 1.63.04 2.39-.01.79-.05 1.14.21.85 1.16"/><path d="m39.33 393.86v-6.61h3.7v1.07h-2.22v1.52c.68.04 1.34.09 2.07.13v1.07c-.72.05-1.38.09-2.1.14v1.48h2.4v1.19h-3.85z"/><path d="m27.71 388.56c-1.15-.3-2.46-.61-3.1.64-.37.73-.41 1.93-.06 2.67.63 1.35 1.99.93 3.17.68.35.94-.01 1.32-.93 1.46-1.62.25-3.05-.27-3.76-1.48-.73-1.24-.6-3.03.31-4.17.88-1.11 2.71-1.7 4-1.16.32.13.44.74.65 1.12-.1.08-.19.16-.28.24"/><path d="m49.15 387.24v1.07c-.59.02-1.17.05-1.87.08v5.44h-1.48v-5.44h-1.85c-.05-.4-.08-.73-.13-1.15z"/><path d="m20.06 387.21h1.33v6.62h-1.33z"/><path d="m30.68 393.25c-.49.38-.8.79-1.05.76-.32-.05-.6-.45-.9-.7.26-.24.51-.64.8-.67.29-.04.62.3 1.15.61"/></g><path d="m300.09 161.92c-4.11-4.83-3.86-10.75-3.95-16.49-.17-11.08-.1-22.16-.1-33.24-.01-11.34-2.03-22.26-6.99-32.5-.83-1.71-2.57-3.41-4.3-4.19-9.41-4.26-19.49-5.93-29.71-6.11-15.78-.29-31.57-.09-47.35-.09-.43 0-.85.11-1.79.24 0 7.73.05 15.42-.01 23.11-.15 18.35-.36 36.7-.57 55.05-.01 1-.14 2.01-.29 3.01-.94 6.31-3.47 8.59-10.16 8.99-2.89-5.98-4.22-12.48-4.23-19.05-.02-15.66.45-31.32.65-46.99.09-7.37.02-14.75.02-22.57-7.15-.38-14.15-1.27-21.11-1.03-15.52.55-31.03 1.58-46.53 2.64-3.99.27-7.97 1.18-11.87 2.14-1.27.32-2.68 1.51-3.34 2.69-5.15 9.27-7.64 19.35-7.91 29.86-.34 13.08-.12 26.17-.3 39.26-.05 3.44-.44 6.93-1.15 10.3-.78 3.75-4.64 5.91-8.28 4.86-.89-.26-1.97-1.28-2.19-2.15-1.01-3.97-2.4-8-2.45-12.03-.18-14.88-.06-29.77.28-44.64.24-10.63 2.71-20.82 7.63-30.31.64-1.24 1.66-2.38 2.75-3.27 10.24-8.47 22.32-12.17 35.34-12.8 16.53-.81 33.08-1.21 49.63-1.75 3-.1 6.01-.01 9.27-.01 0-5.17 0-9.92 0-15.44-4.54 0-9.19.02-13.84 0-26.64-.11-53.27-.2-79.91-.37-2.67-.02-5.37-.3-8.01-.75-5.03-.87-7.68-5.43-5.13-9.76 1.07-1.83 4.13-2.53 6.34-3.62.54-.27 1.32-.05 2-.05h208.24c5.66 0 8.69 2.92 8.86 8.2.06 1.91-.67 2.76-2.36 3.41-8.29 3.19-16.94 4.17-25.7 4.02-21.92-.38-43.84-1.01-65.77-1.51-3.34-.08-6.69-.01-10.25-.01v15.62c6.16.2 12.37.42 18.58.61 13.97.44 27.97.52 41.91 1.44 6.51.43 13.09 1.9 19.33 3.87 13.06 4.11 19.53 13.79 22.06 26.98 3.9 20.25 5.32 40.56 3.27 61.09-.29 2.89-.82 5.76-1.45 8.59-.18.82-.95 1.85-1.7 2.15-2.46 1-5.03 1.7-7.56 2.52z" fill="#010105"/><path d="m300 161.82c.19.62.22 1.34.58 1.83 5.02 6.83 6.77 14.6 6.07 22.85-.55 6.44-1.81 12.82-2.7 19.24-.84 6.01-4.68 9.71-9.61 12.51-7.96 4.53-16.76 6.05-25.73 6.71-3.54.26-7.12.04-11.04.04.9 3.97 1.61 7.57 2.58 11.09.26.95 1.16 2 2.05 2.46 4.93 2.55 9.89 5.08 14.96 7.33 5.48 2.43 11.27 4.23 16.62 6.9 6.56 3.28 9.57 9.32 10.17 16.36.74 8.69 1.36 17.41 1.42 26.12.19 24.63.02 49.26.13 73.88.01 2.71-.65 4.98-3.13 5.55-2.1.48-4.52-.18-6.73-.63-.49-.1-.85-1.42-1.05-2.23-2.94-11.82-4.18-23.87-2.97-35.96 2.1-20.96.46-41.81-.98-62.68-.15-2.14-1.77-4.86-3.56-6.08-4.63-3.16-9.74-5.63-15.45-8.82.43 5.91.92 10.56 1.07 15.23.46 14.76 1.2 29.53 1.08 44.28-.14 16.82-10.27 27.51-26.99 29.54-1.5.18-3.13.06-4.6-.31-3.47-.87-6.82-2.33-10.32-2.88-4.73-.74-7.36-3.54-9.51-7.46-4.72-8.61-6.84-17.92-7.84-27.55-1.44-13.87-1.15-27.66 1.46-41.43 1.16-6.1 3.85-9.95 10.32-10.81 5.87 8.35 5.42 17.89 3.91 27.74 1.35.15 2.19.33 3.04.33 7.61.02 15.23-.04 22.84.05 1.92.02 2.95-.52 3.1-2.52.17-2.34.74-4.68.62-6.99-.36-6.51-.76-12.98 3.04-18.96-4.1-2.75-7.73-5.59-11.73-7.76-4.14-2.25-5.71-5.67-6.26-9.99-.33-2.66-.64-5.35-1.34-7.92-.91-3.31-2.94-5.31-6.79-5.16-8.72.35-17.44.54-26.16.67-1.87.03-3.82-.2-5.61-.72-4.48-1.32-6.67-5.86-4.92-10.16.29-.72 1.4-1.39 2.23-1.54 3.52-.62 7.06-1.18 10.61-1.51 8.67-.81 17.34-1.49 26.44-2.25-.56-5.13-.93-10.11-1.78-15.01-.16-.92-2.21-2.09-3.44-2.15-7.47-.34-14.96-.37-22.44-.55-3.56-.08-7.15 0-10.67-.46-2.89-.38-5.14-2.07-6.1-5.09-1.38-4.37-.31-6.38 4.04-7.42 11.54-2.78 23.23-2.88 35.02-2.45 18.22.66 36.45.91 54.88 1.34.88-3.18 1.96-5.9 2.34-8.71.51-3.81 2.39-6.02 6.07-6.88.97-.23 1.9-.62 2.85-.95 0 .04-.09-.06-.09-.06zm-69.7 137.31c-2 7.67-.36 20.37 3.34 28.87 2.13 4.9 4.54 6.16 10.67 6.01 6.14-.15 10.8-3.09 12.05-7.46 1.2-4.18 2.45-8.37 3.18-12.64.61-3.59.71-7.31.61-10.95-.05-1.76-.61-3.85-3.28-3.84-8.83.03-17.65.01-26.57.01zm24.83-87.96c7.75-.98 15.22-1.52 22.53-2.94 9.6-1.86 13.22-6.73 12.76-15.9-12.86 0-25.73 0-38.82 0 1.18 6.29 2.31 12.3 3.53 18.84z" fill="#010105"/><path d="m141.17 291.09c6.97-1.14 13.8-2.18 20.58-3.44.86-.16 1.72-1.31 2.24-2.21 5.35-9.19 5.71-19.1 4.04-29.27-1.16-7.04-3.23-13.99-1.68-21.25.94-4.39 3.07-7.83 7.52-9.79 5.59 6.84 7.91 14.84 8.48 23.28.9 13.36-.39 26.58-3.36 39.66-1.07 4.71-4.15 7.45-7.71 10.05-7.01 5.13-15.24 6.72-23.53 8.2-6.81 1.21-6.81 1.24-6.8 8.17.01 3.25.04 6.49.08 9.74 0 .21.15.41.47 1.24 11.16 2.12 22.66 4.39 34.2 6.45 8.93 1.59 17.96 2.75 25.62 8.22 5.65 4.03 9.52 9.34 11.53 15.96-3.68 3.16-8.24 3.62-12.8 1.18-2.37-1.26-4.69-2.63-6.9-4.15-13.78-9.49-29.31-12.35-45.63-11.78-12.75.44-25.23-.49-37.4-4.64-3.42-1.17-6.1-2.95-8.26-5.85-7.25-9.75-11.44-20.64-12.83-32.7-2.12-18.44.06-36.63 3.05-54.78.49-2.98.95-5.97 1.27-8.97.35-3.25 2.54-4.57 5.29-5.2 3.14-.72 4.62 1.18 5.76 3.8 1.97 4.49 1.01 9 .43 13.53-2.69 20.85-3.51 41.67.97 62.41.26 1.2.64 2.37 1.04 3.53 2.31 6.78 5.45 12.55 14.02 12.37 2.07-.04 4.16.71 6.81 1.2.36-33.78.71-67.29 1.06-101.02-3.58-.68-7.01-1.17-10.36-1.99-12.87-3.14-23.22-9.96-29.72-21.69-5.4-9.76-3.5-19.69 2.29-28.25 2.52-3.72 8.07-5.84 12.66-7.63 10.88-4.24 22.42-3.97 33.82-3.22 9.58.63 19.15 1.83 28.65 3.27 15.34 2.33 21.49 11.87 19.58 27.2-1.63 13.1-10.51 19.53-20.4 25.55-6.42 3.91-13.91 3.9-20.96 5.45-2.03.44-2.74 1.1-2.76 3.24-.14 20.48-.4 40.96-.61 61.44.03.78.16 1.55.25 2.69zm-4.72-115.52c0 .06-.01.13-.01.19-1.34 0-2.68-.02-4.03 0-8.85.14-17.66.62-26.06 3.75-2.02.76-4.57 1.74-5.54 3.4-3.39 5.84.53 16.61 6.66 19.51 20.35 9.65 40.41 10.47 59.99-2.03.94-.6 2.07-1.57 2.29-2.56 2.52-11.33-.68-19.85-13.92-21.09-6.43-.59-12.91-.79-19.38-1.17z" fill="#010105"/><path d="m283.56 131.91c-8.48 4.91-17.43 6.58-26.65 7.04-11.77.59-23.45-.18-34.92-3.08-3.98-1.01-6.45-5.17-5.31-9.05.17-.57.63-1.21 1.14-1.49 3.48-1.9 6.64-4.29 11.06-4.17 13.06.34 26.14.12 39.18.62 3.52.14 7.09 1.81 10.41 3.28 2.69 1.21 4.48 3.57 5.09 6.85z" fill="#010105"/><path d="m150.61 137.2c-9.52-1.18-19.05-2.28-28.55-3.65-1.43-.21-3.69-1.58-3.81-2.62-.31-2.63-2.23-6.2 2.12-7.63 2.27-.75 4.59-1.86 6.89-1.88 11.74-.09 23.49 0 35.22.33 3.41.09 6.81 1.1 10.18 1.82 1.86.4 3.29 1.29 3.01 3.66-.27 2.3.72 4.74-2.59 6.07-7.24 2.93-14.77 3.24-22.47 3.9z" fill="#010105"/><path d="m245.01 88.47c7.89.52 15.79 1.03 23.68 1.6 1.1.08 2.18.46 3.25.77 2.58.76 3.95 2.02 3.98 5.19.03 3.27-1.24 4.62-4.02 5.43-10.45 3.06-21.17 3.37-31.91 2.9-4.98-.22-9.95-1.19-14.87-2.12-2.87-.54-4.66-2.59-5.06-5.56-.52-3.9 2.98-7.26 7.8-7.34 5.7-.1 11.4-.02 17.1-.02.02-.28.04-.57.05-.85z" fill="#010105"/><path d="m145.44 88.46c6.47.32 13 .19 19.37 1.15 3.28.49 6.83 2.33 9.26 4.61 3.14 2.96 2.07 5.79-2.03 7.13-10.96 3.58-22.27 3.38-33.55 2.5-4.76-.37-9.45-1.6-14.16-2.47-1.89-.35-3.01-1.46-2.83-3.47.19-2.23-1.42-4.65 1.63-6.52 3.25-1.99 6.64-2.45 10.22-2.5 4.02-.06 8.05-.01 12.08-.01 0-.14.01-.28.01-.42z" fill="#010105"/></svg>