<svg enable-background="new 0 0 400 400" viewBox="0 0 400 400" xmlns="http://www.w3.org/2000/svg"><g fill="#010103"><path d="m263.04 254.91c9.68 0 18.82-.17 27.95.08 4.42.12 8.89.69 13.19 1.7 3.71.87 5.98 3.71 6.75 7.72-8.7 4.99-18 5.51-27.64 4.81-5.32-.38-10.7-.03-16.04.18-.84.03-2.29 1.03-2.35 1.69-.72 7.76-1.23 15.54-1.8 23.49 9.52 2.02 18.74 1.25 28.01.85 7.55-.32 15.15-.04 22.71.29 4.2.18 6.74 2.68 6.86 7.02.03 1.12-.47 2.65-1.28 3.31-4.08 3.35-8.99 4.36-14.14 4.27-23.04-.4-46.09-.84-69.13-1.28-12.08-.23-24.16-.48-36.24-.73-3.03-.06-5.1-1.94-5.31-4.76-.25-3.53 1.19-6.05 4.18-6.42 6.09-.75 12.21-1.54 18.33-1.73 9.4-.29 18.81-.08 28.21-.08h4.14c0-4.54 0-8.76 0-12.97 0-3.02-.14-6.05.04-9.06.15-2.42-.88-3.13-3.11-3.12-8.72.04-17.44.07-26.16-.09-2.53-.05-5.3-.23-7.5-1.31-2-.98-4.03-2.97-4.86-5-1.76-4.31-.31-6.24 4.35-6.39 9.73-.32 19.46-.46 29.19-.67.67-.01 1.34-.02 2.01-.08 5.39-.47 5.43-.53 5.58-5.97.08-2.68.06-5.39.39-8.04.24-1.98-.41-2.85-2.28-3.28-3.49-.8-6.9-1.91-10.41-2.59-16.03-3.13-26.68-17.25-28.6-32.21-1.8-14.03.23-27.66 5.86-40.67.5-1.16 1.48-2.21 2.46-3.04 6.64-5.64 14.65-7.95 23.07-9.1 15.33-2.1 30.55-1.39 45.65 2 13.32 3 20.02 12.2 22.07 24.88 2.15 13.35.94 26.58-4.56 39.11-1.07 2.44-3.3 4.37-4.99 6.54-6.43 8.25-15.12 11.82-25.3 13.11-8.22 1.04-8.16 1.48-8.71 9.68-.13 2.31-.33 4.64-.59 7.86zm29.99-66.59c.11-15.38-8.56-23.55-28.58-23.14v23.14zm-43.73-23.27c-8.57-1.57-15.17 3.18-22.35 5.59-.44.15-.8.73-1.04 1.2-2.31 4.45-3.49 9.13-3.08 14.19.15 1.79.84 2.59 2.7 2.51 4.12-.18 8.25-.28 12.38-.34 3.75-.05 7.49-.01 11.39-.01 0-8.05 0-15.49 0-23.14zm14.87 60.06c9.39.8 17.04-2.49 23.25-8.79 2.2-2.24 3.37-5.64 4.57-8.68.82-2.09-.49-3.43-2.75-3.49-1.56-.04-3.13.07-4.69.18-7.09.49-14.18 1-21.44 1.51.36 6.63.71 12.86 1.06 19.27zm-40.96-20.43c.77 2.43 1.19 5.14 2.45 7.37 1.68 2.96 3.46 6.83 6.2 8.03 5.38 2.34 11.44 3.1 17.05 4.48 0-6.81 0-13.1 0-19.87-8.75-.01-16.98-.01-25.7-.01z"/><path d="m86.27 248.51c.02-11.19 8.03-17.04 15.01-23.58 6.18-5.79 13.27-10.21 20.92-13.78 1.19-.55 2.32-1.21 3.41-1.78-2.97-11.83-13.46-16.83-20.75-24.9-3.51 3.84-6.71 7.55-10.14 11.03-2.34 2.38-4.7 5.05-7.6 6.49-2.84 1.41-6.37 1.87-9.6 1.91-3.24.03-5-2.55-4.22-5.75.57-2.33 1.42-4.95 3.01-6.6 12.23-12.67 25.33-24.37 40.05-34.1 10.23-6.76 21.57-11.38 33.81-11.9 14.16-.61 27.78 2.16 37.99 13.32 8.28 9.05 8.47 19.74 5.36 30.88-.51 1.83-1.12 3.63-1.77 5.42-1.46 4.04-3.52 7.5-7.36 9.97-4.6 2.96-8.72 6.64-13.2 9.81-1.9 1.35-2.51 2.7-2.05 5.01 3.92 19.51 7.78 39.02 11.5 58.57.44 2.33.16 4.88-.21 7.27-2.37 15.36-4.52 30.8-10.73 45.22-4.59 10.67-9.37 21.26-14.43 31.71-1.62 3.34-4.12 6.39-6.73 9.06-2.98 3.05-6.97 3.82-11.96 2.82.38-2.86.23-5.96 1.24-8.62 2.23-5.82 4.81-11.53 7.68-17.07 5.24-10.11 11.49-19.73 14.66-30.81 2.36-8.23 4.48-16.53 6.7-24.8-.22-.27-.44-.54-.67-.8-2.1.8-4.33 1.38-6.29 2.45-8.24 4.48-16.24 9.15-22.6 16.43-4.46 5.1-9.95 9.31-15.09 13.79-1.41 1.23-3.17 2.1-4.87 2.93-4.46 2.16-7.76.02-6.62-4.83.91-3.88 2.57-8.17 5.26-10.94 7.24-7.46 15.05-14.39 22.97-21.13 3-2.56 6.9-4.08 10.42-6.01 4.52-2.46 9.12-4.76 13.57-7.33.93-.53 2-1.98 1.92-2.91-.71-8.46-1.66-16.9-2.59-25.88-9.08 5.58-19.36 8.27-26.2 16.89-3.8 4.79-8.51 8.88-13.04 13.05-2.11 1.94-4.63 3.54-7.18 4.86-1.47.76-4.35 1.44-4.9.76-1.1-1.34-1.62-3.73-1.35-5.54.78-5.19 3.27-9.66 6.9-13.51 11.52-12.23 24.67-22.38 39.13-30.86 2.03-1.19 2.58-2.38 1.8-4.56-.71-1.99-1.1-4.1-1.65-6.15-1.34-5.09-1.34-5.17-6.64-5.44-5.81-.3-11.42.88-16.56 3.52-7.26 3.71-14.69 7.27-21.37 11.86-4.5 3.09-7.84 7.87-11.7 11.9-3.51 3.65-7.6 4.97-12.47 3.1-.4-.16-.76-.44-.77-.45zm73.59-46.94c-2.02-3.3-3.78-6.27-5.62-9.18-5.93-9.38-12.13-18.55-21.31-25.17-.85-.61-2.48-1.26-3.1-.87-4.77 3.01-9.38 6.27-13.38 9.01 5.38 6.69 10.63 13.01 15.61 19.54 2.36 3.09 4.15 6.62 6.34 9.86.52.76 1.74 1.76 2.4 1.6 6.29-1.44 12.52-3.1 19.06-4.79zm12.8-3.79 1.32.93c.64-1.17 1.38-2.29 1.9-3.51 1.63-3.89 3.62-7.71 4.67-11.77 2.1-8.09-.8-14.86-7.82-19.33-6.26-3.99-13.32-5-20.55-5.04-1.53-.01-3.07.92-4.92 1.51 8.67 12.71 17.03 24.96 25.4 37.21z"/><path d="m207.97 70.09c0 16.07.11 31.84-.06 47.6-.06 5.57-.62 11.14-1.24 16.68-.31 2.76-2.02 4.61-5.05 5-2.72.35-4.53-.15-5.75-3.06-3.13-7.45-3.54-15.17-2.98-23.04 1.02-14.28 1.9-28.56.03-43.22-3.38.19-6.79.49-10.2.57-12.08.27-24.16.41-36.24.71-9.14.23-17.99 2.02-26.38 5.74-1.34.6-2.62 1.71-3.51 2.9-5.04 6.75-7.41 14.38-7.57 22.82-.19 9.95-.66 19.89-1.15 29.82-.1 1.97-.57 4.01-1.32 5.84-1 2.44-3.21 3.27-5.76 3.22-2.46-.04-3.66-1.37-4.51-3.64-3.49-9.3-3.82-18.91-2.25-28.47 1.7-10.34 4.17-20.56 6.64-30.76.5-2.07 2.16-4.14 3.82-5.59 10.74-9.42 23.66-14.14 37.62-15.18 15.37-1.15 30.83-1.13 46.24-1.61 1.44-.04 2.89-.01 4.76-.01.36-5.13.7-10.06 1.08-15.45-1.69 0-2.99.01-4.3 0-29.54-.18-59.08-.36-88.62-.58-2.23-.02-4.46-.31-6.68-.61-4.3-.57-6.29-2.51-6.32-5.99-.03-4.16 2.06-6.51 6.41-7.1 1.1-.15 2.24-.06 3.35-.06 49.7 0 99.41.05 149.11-.03 14.66-.02 29.31-.63 43.97-.52 4.94.03 9.96 1.09 14.78 2.31 3.62.92 5.93 3.75 6.84 7.72-9.18 4.52-18.91 5.84-28.79 5.7-23.83-.34-47.65-.99-71.47-1.51-1.33-.03-2.67 0-4.28 0v15.74c8.69.72 17.44 1.74 26.21 2.1 11.06.45 22.15.29 33.23.54 18.16.41 31.74 10.43 36 27.92 2.15 8.83 2.6 18.15 3.05 27.29.36 7.35-.41 14.76-.72 22.13-.12 2.79-2.39 5.47-4.71 5.68-2.96.28-5.83-1.62-6.08-4.66-.71-8.56-1.44-17.13-1.55-25.71-.1-8.01-.62-15.8-3.6-23.36-1.72-4.36-4.72-7.2-8.66-9.34-9.18-4.98-19.25-6.52-29.43-7.12-13.62-.8-27.27-1.06-40.91-1.54-.66-.02-1.32.06-3.05.13z"/><path d="m249.66 112.54c8.33.6 16.68 1.06 24.98 1.91 2.07.21 4.7.41 5.35 3.59 1.08 5.28 1.19 6-4.06 7.57-5.4 1.61-11.09 3.16-16.66 3.16-10.91 0-21.83-1.09-32.74-1.75-2.54-.15-4.37-1.32-5.43-3.74-1.56-3.56-.8-4.85 2.55-6.71 7.08-3.91 14.77-2.71 22.26-3.27 1.22-.09 2.46-.01 3.69-.01.03-.26.04-.5.06-.75z"/><path d="m250.59 82.96c6.46.37 12.95.44 19.36 1.2 4.36.51 8.52 2.05 10.07 7.03.76 2.43.39 4.28-2.32 4.87-5.43 1.18-10.9 3.18-16.34 3.11-11.57-.15-23.13-1.28-34.68-2.28-3.69-.32-6.04-5.27-4.43-8.52.25-.5.96-.85 1.53-1.08 5.49-2.18 10.9-4.51 17.08-3.94 3.21.29 6.47.05 9.71.05.01-.15.02-.3.02-.44z"/><path d="m151.22 112.92c6.8.46 13.62.7 20.38 1.45 3.92.43 7.59 1.95 10.06 5.4 1.43 1.99 1.39 3.42-1.11 4.72-6.03 3.13-12.56 4.43-19.13 4.32-10.82-.18-21.65-.96-32.44-1.9-5.43-.47-7.42-4.54-5.15-9.39.33-.71 1.1-1.53 1.79-1.69 3.91-.85 7.84-1.83 11.81-2.15 4.56-.36 9.16-.08 13.75-.08.02-.22.03-.45.04-.68z"/><path d="m180.5 89.6c.5 2.5 1.21 4.89 1.32 7.3.04.83-1.29 2.34-2.19 2.51-6.56 1.26-13.17 3.12-19.77 3.13-10.24.01-20.5-1.06-30.7-2.16-4.78-.52-6.43-3.44-5.82-8.06.23-1.75 4.69-4.38 7.63-4.31 6.93.16 13.86.43 20.79.65 9.49.31 18.99.62 28.74.94z"/></g><path d="m385.2 377.6.6-.7c.6.4 1.3.9 1.9 1.5l-.6.7c-.8-.5-1.4-1-1.9-1.5zm.3 7.1c.6-1.4 1.1-2.9 1.5-4.5.3.1.6.3.9.4-.5 1.4-1 2.9-1.5 4.4zm.2-10.1.6-.6c.7.5 1.3 1.1 1.9 1.6l-.7.7c-.6-.6-1.2-1.2-1.8-1.7zm8.4-.8h.8v.9h1.8v.7h-1.8v1.8h-.8v-.3h-1.2v.9h3.3v2.6h-.8v-.4h-2.5c0 .3 0 .6-.1.8h3.4v.7h-3.5c0 .3-.1.6-.1.8h4v.7h-3.5c.7.9 1.9 1.3 3.6 1.5-.2.2-.4.5-.6.9-1.9-.3-3.2-1.1-3.8-2.3-.5 1.1-1.8 2-3.9 2.4-.2-.3-.4-.5-.6-.8 1.9-.4 3.1-.9 3.6-1.7h-3.2v-.7h3.5c.1-.2.1-.5.2-.8h-3.3v-.7h3.4c0-.2 0-.5 0-.8h-2.4v.3h-.8v-2.6h3.3v-.9h-1.2v.3h-.8v-1.8h-1.8v-.7h1.8v-.9h.8v.9h3.2zm-4.4 5.5h2.4c0-.3 0-.6 0-.9h-2.4zm1.2-3.1h3.2v-.8h-3.2zm4.4 2.2h-2.4v.9h2.5v-.9z" fill="#fcfbfa"/><path d="m389.2 385.8h.9v1.5h1.9v-1.5h.9v1.5h2.7v6h1.1v.9h-11.3v-.9h1.1v-6h2.7zm.2 8.7.5.8c-1.2.6-2.5 1.3-4 1.9-.2-.3-.3-.6-.6-.8 1.6-.6 3-1.3 4.1-1.9zm-2-4.3h1.9v-2.1h-1.9zm0 3.1h1.9v-2.2h-1.9zm2.7-3.1h1.9v-2.1h-1.9zm0 3.1h1.9v-2.2h-1.9zm2.4 1.3c1.4.6 2.7 1.2 4.1 1.8l-.5.9c-1.5-.7-2.8-1.4-4.1-1.9zm2.2-6.5h-1.9v2.1h1.9zm-1.9 5.2h1.9v-2.2h-1.9z" fill="#fcfbfa"/></svg>