<svg enable-background="new 0 0 400 400" viewBox="0 0 400 400" xmlns="http://www.w3.org/2000/svg"><g fill="#010103"><path d="m114.41 159.97c.54-11.52 1.11-22.67 1.51-33.83.03-.94-.88-2.35-1.75-2.82-12.38-6.71-15.74-18.12-16.39-31-.16-3.24-.68-6.48-.59-9.71.09-3.11-1.55-4.91-4.13-5.09-4.5-.31-9.08-.16-13.58.27-4.83.46-8.41-1.61-9.7-6.21-.48-1.71-.26-2.88 1.48-3.86 3.95-2.24 8.13-2.95 12.59-2.69 13.32.76 12.18-1.07 12.83-11.48.47-7.55 1.36-15.08 2.33-22.59.26-2.02 1.47-3.92 2.22-5.79 5.96.88 9.22 4.32 9.27 10.24.03 4.23-.65 8.46-.89 12.7-.19 3.35-.25 6.71-.25 10.06 0 1.2.37 2.39.61 3.86 8.66.57 17.21 1.13 26.47 1.74.14-6.31.24-12.42.42-18.53.11-3.79.03-7.62.57-11.35.68-4.75 3.57-7.81 8.65-8.86 3.05 4.56 4.42 9.65 4.64 15.06.29 7.04.52 14.09.61 21.13.03 2.05.79 3.29 2.74 3.38 3.87.18 7.78.47 11.61.09 5.99-.6 8.65.78 9.88 5.86.53 2.2.11 3.8-2.31 4.24-7.12 1.31-14.26 2.56-21.39 3.83-.64.11-1.3.13-2.17.21-.95 8.53-2.2 16.94-2.74 25.39-.41 6.51-2.9 11.85-8.49 14.64-8.04 4.02-10.25 9.88-9.29 18.43.8 7.17.17 14.5.17 22.2h19.04c.27-5.1.58-10.52.82-15.94.25-5.65 2.03-8.26 6.41-9.89 2.19-.82 3.16-.22 4.06 1.82 3.94 8.99 5.73 18.51 5.13 28.14-.83 13.36-1.98 26.79-4.36 39.95-1.73 9.53-6.21 18.28-16.5 21.94-2.18.77-4.49 1.51-6.77 1.58-3.09.09-4.98 1.51-5.69 4.22-.88 3.41-1.31 6.93-2.13 11.44 7.66.13 14.53.24 21.4.36 3.11.05 6.27-.2 9.33.23 5.21.75 7.79 3.7 8.67 9.21-5.8 4.41-12.64 4.41-19.47 4.53-5.25.09-10.49.39-15.74.44-2.94.02-3.91 1.09-3.89 4.17.14 22.72.03 45.44.1 68.16.03 10.18.33 20.35.38 30.53.01 2.67-.36 5.35-.75 8-.17 1.18-.66 2.38-1.26 3.42-1.43 2.52-3.8 3.15-6.57 3.17-2.62.02-3.28-2.02-3.71-3.65-1.11-4.28-2.47-8.67-2.51-13.03-.26-32.23-.26-64.46-.2-96.7.01-3.17-.92-4.49-4.08-4.39-6.47.2-12.94.38-19.42.39-2.54 0-5.11-.33-7.61-.8-1.12-.21-2.29-.98-3.11-1.82-3.39-3.46-1.94-8.74 2.81-9.45 6.29-.94 12.66-1.3 18.99-1.89 1.56-.15 3.13-.2 4.68-.37 6.88-.72 7.66-1.59 7.66-8.4 0-6.71.07-7.12-6.44-8.23-11.27-1.92-17.26-8.8-20.2-19.32-4.5-16.15-5.17-32.65-4.74-49.23.15-5.91.81-11.83 1.71-17.67.97-6.22 1.22-6.18 8.01-7.11 2.83 4.49 3.44 9.53 3.53 14.72.05 2.91.12 5.82.3 8.72.11 1.74.85 2.67 2.96 2.66 4.61-.02 9.19.34 14.23.57zm-3.04-82.21c0 2.98-.11 5.64.02 8.28.37 7.26.71 14.52 4.56 21.06 1.56 2.65 3.31 3.93 6.48 2.85 1.88-.64 3.93-.87 5.92-1.09 2.38-.26 3.85-1.29 4.41-3.73 1.03-4.46 2.52-8.84 3.2-13.34.56-3.69.4-7.53.18-11.29-.06-.96-1.52-2.6-2.38-2.63-7.23-.2-14.48-.11-22.39-.11zm19.57 136.44c9.13-1.06 13.12-4.8 14.41-13.36.2-1.33.36-2.66.55-3.99 1.02-7.27 2.03-14.53 3.13-22.33-6.24 0-12.08 0-18.08 0-.01 13.16-.01 26.41-.01 39.68zm-32.16-40.21c.55 6 .82 11.58 1.64 17.08.77 5.13 1.54 10.39 3.39 15.18 2.39 6.2 3.89 6.6 10.79 6.08 0-12.66 0-25.32 0-38.09-1.11-.12-1.75-.25-2.39-.25-4.35-.01-8.69 0-13.43 0z"/><path d="m194.82 57.53c-.54 7.88-.99 15.8-1.64 23.71-5.3 65.18-5.57 130.56-7.58 195.87-.59 19.33.34 38.71.43 58.06.01 3.2-.46 6.46-1.19 9.58-.58 2.46-2.7 3.39-5.24 3.19-2.46-.19-3.82-1.2-4.51-3.86-4.58-17.67-4.37-35.68-4.04-53.7.66-35.47.87-70.95 2.18-106.39 1.33-36.11 3.74-72.18 5.7-108.27.26-4.8.51-9.61 1.01-14.4.26-2.43-.73-3.77-2.88-4.03-3.08-.39-6.23-.21-9.3-.65-1.84-.26-4.61-.76-5.15-1.96-.97-2.15-.61-4.92-.67-7.43-.01-.29.78-.76 1.26-.87 9.78-2.27 19.43-5.39 29.67-4.67 18.7 1.32 30.18 13.26 29.74 32.02-.27 11.72-1.54 23.43-2.81 35.1-4.47 41-5.9 82.11-5.08 123.33.37 18.46.16 36.94.79 55.38.37 10.7 2.03 21.35 2.84 32.05 1.17 15.5 2.66 31 1.18 46.58-.26 2.75-1.35 3.69-3.85 3.77s-4.96 1.46-6.56-2.32c-3.29-7.77-4.66-15.81-4.98-24.14-.6-15.64-1.34-31.28-1.83-46.92-1.35-43.62-3.26-87.24-1.97-130.89.34-11.38 2.05-22.71 2.87-34.09 1.27-17.74 2.36-35.5 3.42-53.26.22-3.66.43-7.42-.14-11.01-1.01-6.54-5.57-10.15-11.67-9.78z"/><path d="m275.58 129.96c-10.29 12.88-17.01 16.15-33.67 17.62 0 4.24.04 8.57-.01 12.89-.09 8.83-.04 17.66-.42 26.48-.16 3.64-1.65 7.01-5.36 8.69-3.33 1.51-5.49.85-6.46-2.56-1.03-3.61-1.86-7.42-1.92-11.15-.25-16.56-.28-33.12-.21-49.69.04-10.67 1.22-21.2 5.14-31.26 3.86-9.93 11.83-13.95 21.74-15.2.66-.08 1.34 0 2.01-.02 8.47-.31 9.48-1.23 10.65-9.58.34-2.42.72-4.84 1.18-7.92-4.34-.21-8.5-.49-12.67-.61-6.36-.18-12.73-.07-19.07-.44-3-.17-5.56-1.79-6.87-4.72-2.55-5.72.69-10.52 7.3-10.62 7.94-.12 15.89-.03 23.84-.03 13.1 0 26.19-.08 39.28.06 3.2.04 6.48.54 9.57 1.38 1.81.49 3.7 1.78 4.87 3.25 2.59 3.23 1.75 4.97-1.38 7.61-5.53 4.65-12.1 3.02-18.27 3.63-3.97.39-8 .07-12.47.07 0 5.15-.08 9.58.1 14 .02.56 1.3 1.38 2.1 1.53 5.16.97 10.35 1.77 15.53 2.65 9.57 1.63 17.18 9.03 18.54 18.72 3.14 22.38 6.07 44.81 5.4 67.48-.19 6.34-1.21 12.68-2.29 18.94-.32 1.84-1.85 3.81-3.38 5.01-2.37 1.86-5.29.73-6.45-2.03-2.73-6.49-2.71-13.25-2.21-20.13.37-5.12.35-10.27.42-15.4.03-2.58-.96-4.39-3.78-5.07-9.44-2.27-17.02-7.55-23.27-14.86-2.48-2.85-4.95-5.73-7.51-8.72zm8.95-32.83c-1.3 6.21-.08 15.71 2.05 22.94 3.16 10.76 10.91 15.67 21.47 17.61.68-8.84.26-17.57-1.78-26.23-1.15-4.89-3.71-8.78-8.38-10.58-4.29-1.64-8.87-2.52-13.36-3.74zm-42.93 27.78c.3.09.59.17.89.26.18 1.89.1 3.85.64 5.63.29.94 1.63 2.2 2.52 2.22 6.96.19 16.26-5.36 17.64-11.5 1.05-4.66 2.89-9.13 4.11-13.76.59-2.23.71-4.63.69-6.95-.01-.85-1.01-2.41-1.58-2.42-3.15-.03-6.37-.03-9.42.63-2.56.55-5.01 1.88-7.35 3.14-1.16.62-2.53 1.71-2.87 2.86-1.91 6.59-3.54 13.25-5.27 19.89z"/><path d="m294.49 278.43c4.84-13.59 6.82-26.9 3.8-40.65-.23-1.04-1.17-2.11-2.06-2.8-6.44-4.98-14.04-6.41-21.85-6-8.79.47-17.55 1.63-26.3 2.7-6.74.83-12.56-2.27-13.92-7.7-.44-1.76-.32-3.18 1.64-3.68 5.14-1.32 10.29-2.64 15.48-3.74 2.72-.58 5.54-.65 8.31-1.02 2.09-.28 2.89-1.41 2.84-3.66-.33-13.2-.45-26.4-.74-39.6-.21-9.57 1.34-18.66 6.62-26.81 8.37 1.1 11.6 5.62 10.7 13.91-.56 5.18-.59 10.43-.54 15.64.03 3.24 1.99 5.11 5.35 5.14 2.45.02 4.95.21 7.33-.19 7.61-1.27 10.37 1.14 10.03 9.34-5.35 1.62-10.73 3.46-16.22 4.85-3.49.88-5.17 2.89-5.45 6.26-.34 4.12-.68 8.25-.72 12.38-.01.9 1.03 2.27 1.92 2.66 3.36 1.46 6.77 3.11 10.33 3.78 16.77 3.14 20.83 10.69 22.83 25.06 1.59 11.39.63 22.78-2.03 33.99-1.45 6.12-3.81 11.72-9.77 14.91-2.02 1.08-2.17 2.55-1.69 4.74 4.3 19.42 8.57 38.85 12.53 58.34.69 3.38.2 7.1-.3 10.58-.36 2.5-2.34 3.91-5.05 4.08-2.74.16-4.74-.27-6.23-3.17-4.63-9.01-6.56-18.69-8.1-28.56-1.88-12.03-4.02-24.02-6.07-36.02-.15-.87-.46-1.7-.79-2.9-5.46 1.46-10.78 2.99-16.16 4.31-9.93 2.43-19.95 2.66-29.91.39-6.58-1.5-9.61-6.11-8.67-12.49 16.13-1.5 32.35-3 48.53-4.5.14-6.71-1.83-12.09-7.4-16.04-4.97-3.53-9.66-7.1-16.36-6.28-5.54.67-11.15.84-16.73 1.06-5.54.21-8.92-2.33-10.39-7.12-.64-2.1-.12-3.26 1.67-4.4 6.34-4.05 13.36-5.53 20.57-4.26 8.66 1.53 17.19 3.86 25.72 6.09 1.54.4 3.09 1.77 4.09 3.1 4.42 5.87 8.6 11.9 13.16 18.28z"/></g><path d="m385.2 377.6.6-.7c.6.4 1.3.9 1.9 1.5l-.6.7c-.8-.5-1.4-1-1.9-1.5zm.3 7.1c.6-1.4 1.1-2.9 1.5-4.5.3.1.6.3.9.4-.5 1.4-1 2.9-1.5 4.4zm.2-10.1.6-.6c.7.5 1.3 1.1 1.9 1.6l-.7.7c-.6-.6-1.2-1.2-1.8-1.7zm8.4-.8h.8v.9h1.8v.7h-1.8v1.8h-.8v-.3h-1.2v.9h3.3v2.6h-.8v-.4h-2.5c0 .3 0 .6-.1.8h3.4v.7h-3.5c0 .3-.1.6-.1.8h4v.7h-3.5c.7.9 1.9 1.3 3.6 1.5-.2.2-.4.5-.6.9-1.9-.3-3.2-1.1-3.8-2.3-.5 1.1-1.8 2-3.9 2.4-.2-.3-.4-.5-.6-.8 1.9-.4 3.1-.9 3.6-1.7h-3.2v-.7h3.5c.1-.2.1-.5.2-.8h-3.3v-.7h3.4c0-.2 0-.5 0-.8h-2.4v.3h-.8v-2.6h3.3v-.9h-1.2v.3h-.8v-1.8h-1.8v-.7h1.8v-.9h.8v.9h3.2zm-4.4 5.5h2.4c0-.3 0-.6 0-.9h-2.4zm1.2-3.1h3.2v-.8h-3.2zm4.4 2.2h-2.4v.9h2.5v-.9z" fill="#fcfbfa"/><path d="m389.2 385.8h.9v1.5h1.9v-1.5h.9v1.5h2.7v6h1.1v.9h-11.3v-.9h1.1v-6h2.7zm.2 8.7.5.8c-1.2.6-2.5 1.3-4 1.9-.2-.3-.3-.6-.6-.8 1.6-.6 3-1.3 4.1-1.9zm-2-4.3h1.9v-2.1h-1.9zm0 3.1h1.9v-2.2h-1.9zm2.7-3.1h1.9v-2.1h-1.9zm0 3.1h1.9v-2.2h-1.9zm2.4 1.3c1.4.6 2.7 1.2 4.1 1.8l-.5.9c-1.5-.7-2.8-1.4-4.1-1.9zm2.2-6.5h-1.9v2.1h1.9zm-1.9 5.2h1.9v-2.2h-1.9z" fill="#fcfbfa"/></svg>