<svg enable-background="new 0 0 400 400" viewBox="0 0 400 400" xmlns="http://www.w3.org/2000/svg"><g fill="#010103"><path d="m257.57 41.23c0 4.58.06 8.42-.01 12.26-.14 7.52 2.93 12.35 10.43 14.9 5.98 2.04 11.49 5.45 17.22 8.23.87.42 1.8.73 3.04 1.23 0-5.86.27-11.4-.07-16.9-.35-5.67 1.81-9.15 7.36-10.05.94-.15 2.72.65 3.01 1.43 1.55 4.15 3.45 8.35 3.95 12.68 1.59 13.76 2.93 27.57 3.8 41.4 1.29 20.67 2.18 41.38-2.96 61.76-.82 3.24-2.1 6.36-3.12 9.54-2.83 8.78-9.47 13.23-17.91 15.39-3.12.8-4.66 2.42-4.63 5.56.06 8.46.8 11.27 10.52 13.99 2.04.57 4.18.74 6.25 1.21 8.43 1.92 13.88 7.5 14.67 16.09.42 4.49.14 9.23-.85 13.63-2.4 10.67-13.03 17.88-25.08 17.04-8.59-.6-16.93-.27-25.13 2.59-8.29 2.89-11.58 13.02-6.33 20.09.5.68 1.31 1.25 2.1 1.58 4.52 1.87 8.94 4.56 13.65 5.3 13.55 2.11 22.2 10.23 28.69 21.47 8.2 14.21 13.19 29.36 12.53 45.95-.18 4.54-1.11 9.07-1.97 13.56-.57 3.01-2.78 4.56-5.81 4.46-2.92-.1-5.36-.82-5.79-4.57-1.11-9.75-2.82-19.45-3.65-29.22-.81-9.45-3.37-18.24-8.09-26.37-3.11-5.36-8.2-8.03-14.23-9.05-7.52-1.28-14.83-2.98-21.27-7.53-10.39-7.33-13.34-17.42-10.7-29.2 3.13-14 1.6-12.01 14.56-17.31 9.58-3.92 19.83-4.24 29.98-4.94 1.66-.11 3.34-.4 4.94-.86 7.22-2.07 10.4-11.77 5.81-17.8-.46-.61-1.48-.87-2.29-1.12-4.27-1.31-8.63-2.39-12.82-3.89-7.08-2.54-11.87-7.34-13.64-14.87-.51-2.17-1.18-4.31-1.77-6.46-1.35-4.93-1.35-4.93-6.27-4.8-8.75.23-8.89.18-11.74 8.33-7.82 22.33-22.37 38.72-43.52 49.14-2.95 1.45-6.59 1.78-9.96 2-1.42.09-4.13-1.38-4.19-2.26-.17-2.75-1.61-5.92 1.74-8.22 8.58-5.88 16.92-12.11 25.53-17.94 10.33-6.98 16.71-16.25 18.09-28.8.2-1.82-.09-2.9-1.81-3.73-2.11-1.02-3.99-2.52-6.13-3.46-12.37-5.49-17.25-16.13-19.01-28.48-2.25-15.82-4.35-31.69-5.66-47.62-1.88-22.83-1.49-45.5 5.24-67.83 2.83-9.39 9.24-13.7 17.29-17 9.08-3.72 18.79-4.01 28.34-4.58 13.39-.8 26.82-1.06 40.23-1.32 3.31-.06 6.68.55 9.93 1.27 1.66.36 3.35 1.37 4.62 2.54 3.7 3.38 3.15 7.44-1.53 8.78-5.09 1.46-10.44 2.45-15.73 2.67-9.69.41-19.42.11-29.85.11zm-7.46 33.3c-9.94 8.56-21.4 13.48-33.43 17.21-2.36.73-3.13 1.85-3.04 4.27.62 16.53.81 33.09 1.78 49.6.67 11.37 3.59 22.3 10.47 31.72 1.09 1.49 2.91 2.75 4.65 3.39 8.28 3.03 16.97 3.91 25.71 3.98 10.52.08 20.46-2.07 28.81-9.01 1.07-.89 2.24-2.08 2.57-3.34 1.57-5.92 3.71-11.86 4.11-17.89 1.34-20.33.73-40.66-2.62-60.81-.13-.81-1.39-1.82-2.29-2.04-2.91-.71-6-.79-8.84-1.68-10.18-3.2-19.99-7.19-27.88-15.4zm-34.5 2.08c5.99-2.44 11.74-4.35 17.08-7.06 8.78-4.46 12.89-14.84 10.36-24.47-.62-2.37-1.69-3.89-4.39-3.4-7.5 1.35-14.24 4.34-20.05 9.32-.16.14-.31.34-.38.54-2.6 7.91-4.67 15.87-2.62 25.07z"/><path d="m127.3 143.16c-7.36 0-14.27.06-21.19-.03-3.34-.04-6.76.01-9.98-.72-1.98-.45-4.13-1.94-5.36-3.59-2.68-3.61-1.46-6.61 2.79-7.95 5.68-1.79 11.44-1.33 17.27-.86 4.29.35 8.66-.01 12.98-.33.78-.06 2.08-1.46 2.1-2.27.54-19.01.94-38.03 1.36-57.04 0-.2-.12-.41-.4-1.25-6.68 0-13.56.05-20.45-.02-3.57-.03-7.13-.23-10.7-.43-.87-.05-1.75-.37-2.58-.68-3.86-1.43-6.74-5.22-5.13-8.51 1.1-2.24 4.55-4.15 7.23-4.62 4.35-.76 8.92-.22 13.4-.2 19.14.07 38.27.1 57.41.26 2.78.02 5.69.22 8.27 1.12 1.86.64 3.93 2.26 4.75 4 1.74 3.67.86 5.07-2.95 6.55-6.16 2.39-12.46 1.77-18.85 1.15-3.95-.38-8.01.03-11.98.44-.85.09-2.2 1.64-2.23 2.55-.63 18.79-1.1 37.58-1.6 56.37-.01.21.11.43.36 1.41 5.64.11 11.5.24 17.36.34 4.23.08 8.47-.05 12.68.28 1.55.12 3.46.96 4.4 2.12 1.55 1.9 3.03 4.26 3.34 6.58.12.9-2.9 2.93-4.69 3.24-5.45.95-11 1.46-16.53 1.87-5.54.41-11.1.5-16.81.74v76.43c5.56.13 11.18.32 16.81.38 4.47.04 8.95-.34 13.39-.05 4.41.28 7.8 2.43 9.5 6.82.71 1.85.67 3.47-1.23 4.22-3.47 1.37-7.04 3.44-10.59 3.47-15.31.14-30.64-.31-45.95-.61-10.51-.21-21.02-.51-31.53-.79-3.85-.1-5.6-1.4-6.31-4.63-.75-3.42.61-5.87 4.05-6.09 9.03-.56 18.08-.89 27.13-1.12 9.14-.23 9.1-.13 9.26-9.05.38-21.37.81-42.73 1.21-64.1.01-1.44-.01-2.88-.01-5.4z"/><path d="m226.92 149.84c-.42-5.89-.34-5.73 4.47-7.9 4.8-2.16 9.7-3.06 14.96-2.81 8.37.39 16.77.26 25.12.79 4.19.26 8.04 1.96 10.4 5.88 1.1 1.82 1.13 3.03-1.15 4.19-7.07 3.61-14.59 4.71-22.4 4.68-10.69-.03-21.16-1.31-31.4-4.83z"/><path d="m230.35 113.39c-.77-8.59-.85-9.06 7.39-10.47 6.66-1.14 13.54-1.14 20.34-1.29 4.78-.11 9.62.1 14.36.7 4.1.52 7.62 2.43 9.62 6.43 1 1.99.72 3.12-1.45 4.14-7.78 3.68-16.08 4.6-24.48 4.73-8.83.13-17.59-.61-25.78-4.24z"/></g><path d="m385.2 377.6.6-.7c.6.4 1.3.9 1.9 1.5l-.6.7c-.8-.5-1.4-1-1.9-1.5zm.3 7.1c.6-1.4 1.1-2.9 1.5-4.5.3.1.6.3.9.4-.5 1.4-1 2.9-1.5 4.4zm.2-10.1.6-.6c.7.5 1.3 1.1 1.9 1.6l-.7.7c-.6-.6-1.2-1.2-1.8-1.7zm8.4-.8h.8v.9h1.8v.7h-1.8v1.8h-.8v-.3h-1.2v.9h3.3v2.6h-.8v-.4h-2.5c0 .3 0 .6-.1.8h3.4v.7h-3.5c0 .3-.1.6-.1.8h4v.7h-3.5c.7.9 1.9 1.3 3.6 1.5-.2.2-.4.5-.6.9-1.9-.3-3.2-1.1-3.8-2.3-.5 1.1-1.8 2-3.9 2.4-.2-.3-.4-.5-.6-.8 1.9-.4 3.1-.9 3.6-1.7h-3.2v-.7h3.5c.1-.2.1-.5.2-.8h-3.3v-.7h3.4c0-.2 0-.5 0-.8h-2.4v.3h-.8v-2.6h3.3v-.9h-1.2v.3h-.8v-1.8h-1.8v-.7h1.8v-.9h.8v.9h3.2zm-4.4 5.5h2.4c0-.3 0-.6 0-.9h-2.4zm1.2-3.1h3.2v-.8h-3.2zm4.4 2.2h-2.4v.9h2.5v-.9z" fill="#fcfbfa"/><path d="m389.2 385.8h.9v1.5h1.9v-1.5h.9v1.5h2.7v6h1.1v.9h-11.3v-.9h1.1v-6h2.7zm.2 8.7.5.8c-1.2.6-2.5 1.3-4 1.9-.2-.3-.3-.6-.6-.8 1.6-.6 3-1.3 4.1-1.9zm-2-4.3h1.9v-2.1h-1.9zm0 3.1h1.9v-2.2h-1.9zm2.7-3.1h1.9v-2.1h-1.9zm0 3.1h1.9v-2.2h-1.9zm2.4 1.3c1.4.6 2.7 1.2 4.1 1.8l-.5.9c-1.5-.7-2.8-1.4-4.1-1.9zm2.2-6.5h-1.9v2.1h1.9zm-1.9 5.2h1.9v-2.2h-1.9z" fill="#fcfbfa"/></svg>