<svg enable-background="new 0 0 400 400" viewBox="0 0 400 400" xmlns="http://www.w3.org/2000/svg"><path d="m362.1 8.8c1.1.8 2.1 1.6 3.1 2.4l-1 1.1c-1.3-1.1-2.3-2-3-2.5zm1.9 4.8c.5.2.9.4 1.4.5-.6 2.3-1.3 4.5-1.9 6.8l-1.5-.5c.8-2.1 1.4-4.3 2-6.8zm-1-9.4c1.3.9 2.4 1.8 3.4 2.5l-1 1.1c-1.4-1.2-2.4-2.1-3.2-2.6zm3.7 2.2v-1.4h10.3v1.2c-.5 3.6-1.8 6.8-4 9.4 1.5 1.6 3.4 2.8 5.7 3.8-.3.4-.7.8-1.1 1.4-2.3-1.1-4.1-2.5-5.6-4.1-1.6 1.6-3.6 3.1-5.9 4.3-.3-.5-.7-.9-1-1.3 2.4-1.1 4.4-2.5 6-4.1-1.9-2.5-3-5.6-3.3-9.3h-1.1zm8.8 0h-6.4c.3 3.3 1.3 6 3 8.2 2-2.3 3.1-5.1 3.4-8.2z" fill="#fbfcfa"/><path d="m385.3 3.8h1.3v2.2h2.8v-2.2h1.3v2.2h4.1v9.1h1.7v1.3h-16.9v-1.3h1.7v-9.1h4.1v-2.2zm.4 13.1.7 1.2c-1.8.9-3.8 1.9-6 2.9-.2-.4-.5-.8-.8-1.3 2.3-1 4.3-1.9 6.1-2.8zm-3.1-6.4h2.8v-3.2h-2.8zm0 4.6h2.8v-3.3h-2.8zm4-4.6h2.8v-3.2h-2.8zm0 4.6h2.8v-3.3h-2.8zm3.7 1.9c2.1.9 4.1 1.8 6.1 2.7l-.7 1.3c-2.2-1.1-4.2-2-6.1-2.9zm3.2-9.7h-2.8v3.2h2.8zm-2.8 7.8h2.8v-3.3h-2.8z" fill="#fbfcfa"/><g fill="#010106"><path d="m73.04 162.64c13.95 10.46 22.09 23.9 26.08 40.08 2.34 9.5.29 18.92-.31 28.36-.12 1.88-.29 3.76-.48 6.12 4.51-1.25 8.65-2.36 12.76-3.59.69-.21 1.32-.84 1.81-1.41 7.02-8.12 11.22-17.43 11.74-28.25.53-11.04 1.92-21.95 5.8-32.85 2.59 6.36 5.58 12.58 7.68 19.1 3.25 10.09 5.54 20.49 8.87 30.55 3.08 9.31 8.94 16.71 17.91 21.25.67.34 1.41.57 2.25.9 4.12-7.9 6.03-16.23 6.7-24.85.72-9.24.65-18.55 3.84-27.47 2.68-7.49 6.12-14.54 11.26-21.02v3.48c.05 20.71-.45 41.43.29 62.11.75 20.93 4.76 41.52 8.94 62.03 3.84 18.84 2.45 37.13-5.94 54.67-2.93 6.13-8.56 9.33-13.83 12.77-15.12 9.88-32.02 12.54-49.74 11.75-15.38-.68-30.08-4.1-44.04-10.56-1.45-.67-2.84-1.8-3.87-3.04-17.76-21.34-22.52-45.47-15.75-72.3 5.93-23.51 11.44-47.13 16.92-70.75.6-2.57-.04-5.53-.51-8.24-2.73-15.75-5.57-31.48-8.37-47.22-.06-.32-.01-.65-.01-1.62zm8.38 139.55c-.24 10.94.6 19.41 3.76 27.4 4.67 11.81 10.11 23.11 24.18 26.4 1.19.28 2.34.73 3.53 1.06 23.29 6.52 44.24 2.71 62.2-14.14.9-.84 1.85-2.12 1.93-3.26 1.24-16.39 2.67-32.77 3.37-49.19.72-17.01-11.02-29.81-24.47-36.2-8.45-4.02-17.42-6.94-26.21-10.21-1.2-.45-2.89-.44-4.06.05-10.94 4.53-21.84 9.15-32.67 13.91-1.33.58-2.69 2-3.22 3.35-5.48 13.88-8.19 28.31-8.34 40.83z"/><path d="m319.76 111.05c-5.9.44-11.36.63-16.76 1.32-3.74.48-7.49 1.38-11.06 2.59-7.37 2.49-10.56 7.02-10.72 14.85-.19 9.45 2.78 18.27 5.67 27.1 1.17 3.58 3.14 6.46 5.69 9.27 5.78 6.37 11.36 12.95 16.58 19.78 2.47 3.23 4.17 7.12 5.84 10.89 2.09 4.72 1.85 9.47-.28 14.29-6.45 14.62-13.02 29.19-18.98 44.01-5.83 14.5-9.36 29.66-9.63 45.34-.07 4.16 1.77 8.4 3.04 12.51.64 2.09 2.42 2.81 4.77 2.78 11.19-.13 22.39-.06 33.58-.06h3.23c-6.13 4.63-12.88 7.65-20.06 9.63-26.43 7.26-52.43 6.03-77.84-4.43-1.59-.65-3.13-2.15-4.02-3.65-11.27-18.92-17.26-39.7-20.73-61.24-4.36-27.04-5.59-54.25-4.16-81.63.77-14.83 5.35-28.44 10.98-41.88 1.81-4.32 2.5-9.72 5.56-12.74s8.43-3.72 12.81-5.38c4.49-1.71 9.14-3.07 13.48-5.08 7.39-3.42 15.1-4.43 23.14-4.34 11.62.13 23.25-.27 34.86.02 6.45.16 11.36 2.53 15.01 6.05zm-96.28 99.06c0 6.6-.31 13.22.05 19.8 1.43 26.04 7.6 50.79 20.77 73.52.68 1.18 1.71 2.47 2.9 2.98 5.74 2.48 11.57 4.77 17.41 7 4.78 1.82 9.39 1.27 13.86-1.28 2.11-1.2 2.88-2.65 2.77-5.1-.74-16.32-1.38-32.65-1.92-48.98-.07-2.05.31-4.24 1.02-6.17 5.08-13.73 10.27-27.41 15.51-41.08.86-2.23.88-4.09-.19-6.34-6.46-13.63-12.79-27.33-19.03-41.06-.85-1.86-1.36-4.05-1.36-6.09 0-7.61.48-15.22.34-22.82-.06-3.27-.68-6.74-1.97-9.72-2.07-4.76-6.82-6.06-11.38-3.79-9.81 4.87-19.59 9.81-29.46 14.55-1.95.94-2.84 2.14-3.23 4.18-4.47 23.26-6.52 46.73-6.09 70.4z"/><path d="m145.79 25.45c19.93 6.95 28.5 19.5 26.65 38.26-1.44 14.64-1.05 29.46-1.36 44.2-.03 1.36.57 2.82 1.16 4.1 6.75 14.84 13.55 29.66 20.33 44.48.49 1.07.93 2.15 1.4 3.23-.24.34-.49.68-.73 1.02-4.26-2.17-8.8-3.93-12.7-6.63-3.92-2.72-7.03-6.56-10.77-9.57-12.45-9.98-18.04-23.01-17.47-38.76.44-12.05.95-24.11 1.81-36.14 1-14.03-1.72-27.34-6.79-40.3-.48-1.22-.95-2.43-1.53-3.89z"/><path d="m102.97 32.87c5.96.53 10.98 3.32 14.27 8.17 4.38 6.45 8.09 13.36 11.91 20.18.65 1.16.54 2.82.54 4.25.03 19.14-.03 38.28.08 57.42.02 2.62.5 5.35 1.37 7.82 4.28 12.23 8.77 24.39 13.17 36.58.3.83.56 1.67.93 2.75-4.27.61-7.75.95-10.96-3.17-8.85-11.37-16.99-23.04-21.15-37.04-3.02-10.17-2.56-20.27.17-30.44 3.63-13.55 2.74-27.12-1.14-40.41-2.54-8.76-6.02-17.24-9.19-26.11z"/><path d="m63.3 31.18c10.45 8.16 19.41 16.82 21.22 29.98.82 5.93-.04 12.26-1.04 18.25-2.31 13.96-3.44 27.95-2.64 42.07.09 1.64.53 3.3 1.08 4.86 4.95 14 9.97 27.98 14.96 41.97.36 1.01.63 2.06 1.23 4.03-2.01-1.26-3.51-1.81-4.47-2.86-9.59-10.39-18.38-21.37-24.3-34.35-4.77-10.47-6.62-21.18-3.14-32.57 4.61-15.09 3.99-30.5 1.72-45.87-1.11-7.5-2.8-14.92-4.21-22.38-.16-.82-.22-1.66-.41-3.13z"/><path d="m166.99 284.5c-12.05 4.15-23.97 7.09-36.26 7.35-9.78.21-19.58-.91-29.38-1.29-2.86-.11-4.18-1.56-4.86-4.41 3.27-1.52 6.58-3.06 9.89-4.59 2.53-1.17 5.28-2.01 7.58-3.52 10.99-7.24 23.01-6.02 34.99-4.3 7.19 1.03 12.82 5.29 18.04 10.76z"/><path d="m167.78 323.63c-24.33 0-48.66 0-73 0-.85-2.53-.38-4.1 2.34-4.85 2.47-.68 4.95-1.51 7.22-2.67 9.7-4.93 20.03-5.09 30.43-3.89 7.28.84 14.63 1.81 21.66 3.75 4.23 1.16 7.92 4.29 11.85 6.53-.16.38-.33.75-.5 1.13z"/><path d="m247.62 144.99c4.63 4.7 7.38 9.74 9.48 15.16 4.97 12.81 6.5 26.23 6.81 39.81.54 23.98-.33 47.89-5.61 71.41-1.04 4.65-2.67 9.17-4.52 13.7-14.34-45.99-13.24-92.56-6.16-140.08z"/></g></svg>