<svg enable-background="new 0 0 400 400" viewBox="0 0 400 400" xmlns="http://www.w3.org/2000/svg"><g fill="#fbfafa"><path d="m37.59 393.81c-.92.31-1.52.05-2-.78-.7-1.2-1.52-2.34-2.47-3.78v4.59c-.55.03-.95.05-1.41.07-.03-.37-.06-.64-.06-.91 0-1.91 0-3.81 0-5.7 1.13-.41 1.77-.03 2.29.91.62 1.11 1.38 2.14 2.31 3.19v-4.2h1.35v6.61z"/><path d="m12.94 393.88v-6.75c1.9.19 3.93-.54 5.37 1.29.8 1.01.78 2.88.03 3.97-1.37 1.97-3.4 1.51-5.4 1.49m1.45-1.22c2.04.12 2.92-.58 2.89-2.21-.03-1.51-.98-2.19-2.89-2z"/><path d="m11.81 393.87h-5.49c.68-2.18 2.47-3.48 3.51-5.45h-3.08v-1.21h5.29c-.71 2.13-2.44 3.48-3.47 5.51.86 0 1.63.04 2.39-.01.79-.05 1.14.21.85 1.16"/><path d="m39.33 393.86v-6.61h3.7v1.07h-2.22v1.52c.68.04 1.34.09 2.07.13v1.07c-.72.05-1.38.09-2.1.14v1.48h2.4v1.19h-3.85z"/><path d="m27.71 388.56c-1.15-.3-2.46-.61-3.1.64-.37.73-.41 1.93-.06 2.67.63 1.35 1.99.93 3.17.68.35.94-.01 1.32-.93 1.46-1.62.25-3.05-.27-3.76-1.48-.73-1.24-.6-3.03.31-4.17.88-1.11 2.71-1.7 4-1.16.32.13.44.74.65 1.12-.1.08-.19.16-.28.24"/><path d="m49.15 387.24v1.07c-.59.02-1.17.05-1.87.08v5.44h-1.48v-5.44h-1.85c-.05-.4-.08-.73-.13-1.15z"/><path d="m20.06 387.21h1.33v6.62h-1.33z"/><path d="m30.68 393.25c-.49.38-.8.79-1.05.76-.32-.05-.6-.45-.9-.7.26-.24.51-.64.8-.67.29-.04.62.3 1.15.61"/></g><path d="m264.87 50.98c.76 9.35 1.4 17.91 2.24 26.46.11 1.14 1.05 2.4 1.95 3.24 6.94 6.5 15.81 8.93 25.24 11.76 0-5.29.16-10.25-.05-15.19-.17-4.01-1.1-8.01-1.04-12.01.03-2.3.85-4.95 2.2-6.8 3.12-4.26 6.88-3.97 9.66.4 2.9 4.55 3.91 9.65 4.34 14.97 1.15 14.48 2.5 28.95 3.66 43.43 1.67 20.87 1.89 41.58-6.3 61.48-1.64 3.99-3.69 7.09-7.84 8.91-3.76 1.65-7.23 4-10.75 6.18-3.64 2.25-4.63 4.42-3.45 8.48 1.51 5.21 3.92 9.65 8.97 12.75 5.87 3.6 11.2 8.11 16.61 12.43 5.8 4.63 7.05 10.9 5.63 17.87-1.31 6.42-3.86 11.76-10.09 15.3-4.62 2.62-8.79 5.01-14.41 5.16-8.7.23-17.41 1.23-26.04 2.41-9.56 1.32-14.11 10.38-9.65 18.88.86 1.64 2.74 3.1 4.48 3.84 4.27 1.82 8.69 4.31 13.14 4.53 24.32 1.21 37.33 15.93 45.27 36.86 4.39 11.57 6.14 23.54 3.94 35.92-.44 2.5-1.4 4.01-3.93 4.65-1.92.49-3.75 1.36-5.74 2.1-4-5.26-5.41-11.3-6.2-17.53-.74-5.88-1.31-11.78-2.02-17.66-1.42-11.83-7.58-20.01-18.39-25.24-9.09-4.4-18.74-6.52-28.45-8.67-9.13-2.02-14.89-7.55-17.36-16.65-2.54-9.32-.98-18.43 3.9-26.09 2.55-4.01 8.41-7 13.32-8.17 8.38-2 17.19-2.28 25.83-3.15 3.44-.34 6.94-.11 10.36-.53 5.01-.62 6.6-2.82 6.19-7.82-.01-.11-.04-.23-.02-.33 1.14-8.06-3.82-11.71-10.14-14.89-4.43-2.23-8.51-5.22-12.46-8.26-1.44-1.11-2.33-3.23-2.94-5.07-1.72-5.19-3.31-10.44-4.67-15.75-.6-2.34-1.7-2.99-3.96-2.82-4.12.32-8.27.62-12.39.51-2.55-.07-3.64.76-4.55 3.14-5.72 15.04-15.21 27.29-28.23 36.69-7.88 5.69-16.8 7.38-26.46 5.85-4.44-.7-3.3-4.31-4.29-6.82-.92-2.34 1.14-2.77 2.54-3.54 9.13-4.98 18.34-9.81 27.37-14.95 7.37-4.2 12.65-10.23 14.68-18.72.49-2.07.33-3.37-2.08-4.34-9.23-3.68-15.38-10.18-18.53-19.84-4.86-14.9-7.18-30.23-8.44-45.74-1.48-18.22-1.84-36.46 1.11-54.58 1.13-6.94 2.84-13.79 4.49-20.63.33-1.37 1.36-2.81 2.47-3.73 10.33-8.45 22.39-12.53 35.57-13.11 15.75-.7 31.52-1.07 47.29-1.41 4.24-.09 8.49.36 12.72.69 1.2.09 2.45.45 3.53.97 3.27 1.58 3.93 4.54 4.09 7.85.15 3.17-2.44 3.46-4.33 4.25-6.92 2.93-14.23 2.26-21.5 2.13-8.33-.17-16.68-.05-26.09-.05zm-45.92 54.99c.95 15.48 1.62 30.88 2.94 46.21.78 9.02 4 17.41 9.65 24.64 1.08 1.39 2.8 2.58 4.47 3.16 9.56 3.28 19.43 3.79 29.44 3.03 7.67-.58 15.07-2.16 21.75-6.06 2.73-1.6 5.75-3.46 7.37-6.01 3.33-5.25 4.78-11.42 4.47-17.63-.71-14.06-1.9-28.09-2.78-42.14-.14-2.21-1.11-3.07-3.12-3.48-9.06-1.85-17.45-5.36-25.21-10.4-2.24-1.46-4.75-2.51-6.97-4.01-1.94-1.31-3.36-1.01-5.43.01-5.77 2.84-11.67 5.54-17.74 7.64-5.87 2.03-12.02 3.25-18.84 5.04zm1.98-14.86c7.23-2.35 14.19-4.63 21.15-6.87 4.95-1.59 7.54-4.73 6.94-10.14-.11-.98.21-2 .3-3 .59-6.2 1.18-12.41 1.84-19.34-3.45 0-6.59-.47-9.52.12-3.35.67-6.53 2.24-9.76 3.5-4.93 1.92-8.76 4.82-9.55 10.55-.29 2.09-1.05 4.12-1.41 6.2-1.03 6.07-1.73 12.15.01 18.98z" fill="#010105"/><path d="m91.94 180.45c6.73 1.06 9.99 4.57 9.79 11.1-.13 4.11-1.15 8.18-1.48 12.29-.31 3.89-.32 7.81-.29 11.71.02 2.17.99 3.28 3.54 3.26 18.8-.11 37.6-.08 56.41-.03 2.04.01 3.11-.49 3.16-2.74.15-6.48.41-12.95.68-19.43.12-2.89.09-5.84.67-8.65.36-1.75 1.42-3.6 2.71-4.86 3.67-3.58 7.67-2.85 9.12 1.93 1.27 4.2 2.13 8.71 2.14 13.08.01 17.22-.37 34.45-.63 51.67-.21 13.32-2.73 26.21-7.55 38.61-.47 1.21-1.69 2.33-2.84 3.03-12 7.29-25.23 9.39-39 8.69-9.67-.49-19.02-2.53-27.96-6.39-2.72-1.17-4.56-2.86-5.89-5.53-5.36-10.8-7.73-22.35-8.72-34.23-1.31-15.89-.86-31.74 1.01-47.57.44-3.75.2-7.6.17-11.4-.06-5.47 2.13-10.13 4.96-14.54zm10.02 52.68c-.2 2.32-.47 4.31-.53 6.3-.33 11.73-1.08 23.48 2.85 34.9 1.45 4.21 3.72 7.19 8.04 8.6 14.79 4.82 29.29 4.03 43.45-2.26 1.37-.61 2.8-2.38 3.11-3.84 1.58-7.54 3.08-15.12 4.06-22.76.72-5.62.69-11.35.74-17.04.01-.78-1.48-2.24-2.32-2.27-19.66-.63-39.34-1.11-59.4-1.63z" fill="#010105"/><path d="m200.57 119.19c-3.46.67-6.06 1.33-8.69 1.61-.83.09-2.12-.59-2.61-1.31-13.95-20.54-27.83-41.13-41.72-61.71-2.13-3.15-4.17-6.36-6.44-9.41-.98-1.32-2.3-2.46-3.66-3.4-4.69-3.23-6.57-2.94-10.27 1.32-9.4 10.83-16.01 23.4-22.48 36.06-5.14 10.05-10.19 20.14-15.36 30.17-1.33 2.57-2.88 5.06-4.55 7.43-.87 1.24-2.09 2.4-3.4 3.14-4.84 2.75-9.19.4-8.93-5.05.16-3.26.71-6.85 2.26-9.64 11.99-21.6 23.89-43.27 36.7-64.39 3.82-6.3 10.41-10.94 15.81-16.26 2.96-2.92 6.53-2.72 9.94-1.05 2.57 1.26 5.39 2.59 7.25 4.66 20.19 22.45 38.27 46.43 51.52 73.72 2.09 4.32 3.05 9.2 4.63 14.11z" fill="#010105"/><path d="m172.23 138.93c-6.61 3.83-14 3.84-21.35 4.2-3.67.18-7.33.61-10.97 1.13-3.71.53-6.19 2.69-6.54 6.51-.73 7.98-1.54 15.98-1.75 23.99-.19 7.7.51 15.42.47 23.13-.02 3.06-.7 6.2-1.59 9.15-.75 2.49-2.74 3.92-5.57 4.06-2.45.12-3.92-.69-4.77-3.12-2.82-8.05-3.88-16.39-3.12-24.77 1.31-14.56 3.18-29.07 4.99-43.58.18-1.45 1.31-3.05 2.46-4.05 4.75-4.13 10.73-5.72 16.69-6.28 7.09-.66 14.29-.47 21.42-.13 5.9.28 9.03 3.8 9.63 9.76z" fill="#010105"/><path d="m167.14 99.68c-4.42 3.43-9.46 4.82-14.66 5.49-15.64 2.04-31.2 1.57-46.56-2.23-4.13-1.02-5.54-3.48-4.44-7.48.31-1.13 1.28-2.28 2.26-3.01 3.68-2.75 7.71-3.71 12.48-3.44 14.82.85 29.68 1.21 44.52 1.63 1.96.06 3.04.56 3.68 2.46.73 2.21 1.76 4.32 2.72 6.58z" fill="#010105"/><path d="m260.17 142.82c5.67.36 11.38.45 17.01 1.15 4.18.53 7.9 2.36 9.92 6.53.92 1.92.64 3.2-1.28 4.4-5.28 3.33-11.15 4.59-17.2 4.91-9.95.53-19.86.01-29.58-2.47-3.6-.92-5.77-4.56-5.05-8.14.4-1.96 1.4-2.87 3.34-3.61 6.77-2.55 13.79-2.43 20.81-2.51.67-.01 1.34 0 2.01 0 .01-.08.01-.17.02-.26z" fill="#010105"/><path d="m257.97 117.54c6.24.28 12.51.34 18.72.91 5.72.52 9.14 3.4 10 7.44.46 2.14.08 3.46-2.15 4.5-6.79 3.15-14.03 4-21.26 3.61-7.98-.43-15.9-1.89-23.84-2.98-1.6-.22-3.05-.82-2.76-2.96.34-2.5-1.99-5.19 1.39-7.49 5.21-3.53 11-2 16.53-2.74 1.1-.15 2.23-.02 3.35-.02.02-.1.02-.18.02-.27z" fill="#010105"/></svg>