<svg enable-background="new 0 0 400 400" viewBox="0 0 400 400" xmlns="http://www.w3.org/2000/svg"><path d="m227.87 59.04c-.15.23-.26.32-.26.41-.16 19.57-.62 39.11 1.95 58.63 1.17 8.87 6.38 13.92 13.23 18.04 4.68 2.82 9.61 5.23 14.53 7.63 11.68 5.72 22.14 12.83 27.86 25.06 9.38 20.04 9.15 40.04-2.36 59.02-5.18 8.54-12.21 15.89-20.56 21.87-5.68 4.07-11.29 8.57-15.84 13.82-6.39 7.37-7.14 17.03-7.38 26.29-.23 8.81.97 17.64 1.08 26.47.1 8.02-.41 16.06-.67 24.5 7.15.29 14.61.53 22.06.92 9.04.47 18.07 1.01 27.09 1.66 1.86.13 3.7.84 5.51 1.41 2.49.78 3.87 2.47 3.99 5.18.11 2.5-.4 4.24-2.94 5.67-8.31 4.68-17.21 4.16-26.17 3.75-19.21-.9-38.43-1.78-57.64-2.67-27.03-1.25-54.13-1.06-81.03-4.55-8.59-1.11-16.97-3.47-23.44-9.1-5.21-4.53-9.31-10.52-13.23-16.31-5.15-7.62-7.55-16.23-8.28-25.52-2.84-36.29-3.71-72.64-3.79-109-.04-22.6.2-45.21.96-67.8.4-11.94 1.5-23.95 3.59-35.69 1.43-8.04 4.36-16.08 8.13-23.33 2.01-3.86 7.03-6.4 11.09-8.89 11.37-6.97 23.97-10.32 37.17-11.36 35.74-2.82 71.55-2.41 107.35-2.36 8.39.01 16.79.01 25.16.5 5.82.34 7.97 2.57 8.35 7.65.08 1.07-.79 2.74-1.72 3.27-6.53 3.75-13.74 4.23-21.09 4.21-10.51-.03-21.03.18-31.54.31-.45 0-.87.22-1.16.31zm-3.16 282.47c.11-1.42.23-2.4.25-3.38.43-16.22.81-32.44 1.28-48.65.18-6.03-.13-12.19 1.01-18.05 1.99-10.26 7.42-18.84 15.27-25.81 7.11-6.31 14.04-12.86 21.4-18.87 6.08-4.97 9.44-11.4 10.88-18.72 1.15-5.86 1.78-12 1.44-17.95-.58-9.88-4.69-18.85-12.7-24.59-6.99-5.01-15.04-8.83-23.09-11.97-11.1-4.32-22.82-18.43-23.68-30.49-1.44-20.2-2.81-40.4-4.08-60.61-.17-2.69-.93-3.62-3.72-3.59-11.97.15-23.95.06-35.93.07-1.06 0-2.13.14-3.17.22v280.65c18.3.59 36.38 1.16 54.84 1.74zm-70.14-141.8c0-2.91 0-5.82 0-8.73 0-42.08-.03-84.16.06-126.24.01-2.95-.74-3.91-3.82-4.28-10.87-1.28-21.24 1.05-31.21 4.63-4.95 1.78-10.17 4.96-13.32 9.02-3.18 4.09-5.01 9.94-5.56 15.22-1.55 14.77-2.85 29.64-2.98 44.48-.37 44.99-.45 89.98.06 134.96.15 13.34 1.91 26.78 4.27 39.93 1.77 9.86 6.69 18.44 17.42 21.93 4.34 1.41 8.44 3.54 12.68 5.27 5.9 2.41 11.98 3.42 18.38 2.68 3.15-.36 4.11-1.65 4.1-4.92-.13-44.64-.08-89.29-.08-133.95z" fill="#010101"/><g fill="#fbfafa"><path d="m6.4 11.7c-1-.8-1.9-1.6-2.9-2.3l.6-.7c.9.7 1.9 1.4 2.9 2.2zm-2.1 8.3c.7-2.1 1.4-4.2 2-6.4.2.1.6.3 1 .4-.7 2.3-1.3 4.4-1.9 6.4zm3-12.8c-1.1-.9-2.1-1.7-2.9-2.4l.6-.7c1 .8 2 1.5 3 2.4zm1.4-1.3v-.9h10.2v.9c-.9 4.2-2.3 7.3-4.1 9.4 1.3 1.4 3.2 2.7 5.7 4-.2.2-.4.5-.7.9-2.5-1.4-4.4-2.7-5.7-4.2-1.4 1.5-3.5 3-6.1 4.4 0 0 0 0-.1-.1-.3-.4-.5-.7-.7-.8 2.7-1.3 4.7-2.8 6.2-4.2-1.8-2.2-3-5.3-3.7-9.4zm9.2 0h-7.1c.6 3.8 1.7 6.7 3.4 8.7 1.7-2 2.9-4.8 3.7-8.7z"/><path d="m31.6 3.6h.9v2.3h4.1v9.1h1.7v.9h-16.6v-.9h1.7v-9.1h4.1v-2.3h.9v2.3h3.1v-2.3zm-4 13.3.6.8c-1.9.9-3.8 1.9-5.8 2.8-.2-.3-.3-.6-.5-.9 2-.9 3.9-1.8 5.7-2.7zm-3.2-10.1v3.7h3.1v-3.7zm0 4.5v3.7h3.1v-3.7zm4.1-4.5v3.7h3.1v-3.7zm0 4.5v3.7h3.1v-3.7zm9.1 9.1c-2.1-1.1-4.1-2-5.8-2.7l.5-.8c2.2.9 4.1 1.8 5.8 2.6zm-1.9-13.6h-3.1v3.7h3.1zm-3.2 4.5v3.7h3.1v-3.7z"/></g></svg>