<svg enable-background="new 0 0 400 400" viewBox="0 0 400 400" xmlns="http://www.w3.org/2000/svg"><g fill="#010103"><path d="m332.85 149.14c-10.33 5.15-21.04 6.07-32.18 5.24-7.98-.6-16.03-.36-24.06-.4-1.8-.01-3.25.63-3.16 2.95.07 1.89-.15 3.8-.2 5.7-.81 28.74-1.61 57.47-2.42 86.82 9.42.37 18.71.73 28.25 1.11 1.49-10.42.87-20.56.69-30.71-.09-4.88.14-9.86 1.04-14.64.93-4.96 3.99-8.61 9.35-9.77 5.41 8.08 6.6 16.92 6.44 26.12-.41 23.27-.71 46.53-1.17 69.8-.35 18.14-3.59 35.78-9.99 52.79-.56 1.49-1.57 2.99-2.75 4.04-10.86 9.65-23.81 13.27-38.09 12.91-9.09-.23-17.64-2.5-25.76-6.59-4.7-2.37-7.07-6.69-9.51-10.94-4-6.97-4.61-14.83-5.91-22.55-2.38-14.2-2.45-28.49-2.39-42.82.11-25.29.03-50.58.03-75.87 0-4.58 4.33-7.86 8.81-6.47.93.29 1.81 1.51 2.26 2.5 4.09 8.99 3.66 18.48 3.08 28.02-.41 6.68-.46 13.39-.68 20.08-.08 2.46 1.22 3.18 3.52 3.24 5.12.15 10.23.52 15.71.82.08-1.35.21-2.53.21-3.72.01-53.83.03-107.65-.01-161.48-.01-11.75-.33-23.49-.26-35.24.04-6.73.78-13.43 3.9-19.57.99-1.95 2.33-3.73 3.47-5.53 7 2.66 10.34 7.53 10.56 14.49.17 5.59.15 11.18.15 16.77.01 25.96.01 51.92.01 77.89v3.32c7.75.29 15.39.66 23.02.83 8.05.18 16.12-.12 24.15.31 7.92.4 12.55 4.16 13.89 10.55zm-96.45 116.59c-.12.63-.28 1.05-.27 1.48.04 14.75-.36 29.52.32 44.23.47 10.26 3.84 19.95 10.29 28.24.97 1.25 2.4 2.37 3.85 2.97 13.36 5.43 25.99 3.69 37.88-4.23 3.35-2.23 5.47-5.07 6.44-9.27 2.72-11.84 4.02-23.81 4.15-35.9.09-9.12-.47-18.25-.74-27.52-20.96 0-41.28 0-61.92 0z"/><path d="m126.54 205.47c-1.39-9.12-7.56-14.84-13.55-20.18-5.93-5.28-12.99-9.3-19.76-14.02.43-1.14.91-2.49 1.44-3.81 2.44-6 2.43-5.95 8.96-4.28 12.14 3.11 21.45 10.49 29.03 20.01 5.07 6.37 9.43 13.32 13.85 20.18 1.5 2.33 3.19 3.43 5.88 3.52 16.71.56 30.83 7.69 43.72 17.65 8.04 6.21 14.07 14.29 13.61 24.66-.79 17.83-11.4 29.7-32.37 26.11-15.14-2.59-23.96-12.54-30.05-25.57-2.58-5.52-1.97-11.4-.19-17.07 1.08-3.44 4.68-2.38 7.12-3.31.49-.18 1.97 1.39 2.53 2.41 3.71 6.76 7.18 13.65 10.94 20.38 4.51 8.08 16.1 11.11 24.01 6.37.7-.42 1.15-1.59 1.31-2.48.42-2.42.22-5.01.99-7.3 1.85-5.52-.95-8.53-4.93-11.68-23.68-18.7-49.74-21.08-77.56-11.62-3.69 1.25-7.22 3-10.76 4.64-10.28 4.77-15.53 13.56-18.05 24-2.6 10.75 4.77 12.99 12.59 11.05 5.63-1.4 11.11-3.37 16.67-5.07 4.17-1.27 8.49-2.18 12.48-3.85 8.3-3.48 14.4.19 19.61 5.9 7.11 7.79 7.3 16.32 2.33 25.65-5.45 10.24-13.04 18.58-21.1 26.7-5.03 5.07-9.8 10.46-14.21 16.08-4.15 5.29-6.66 11.4-5.99 18.38.1 1.04.35 2.37 1.04 3.01 8.44 7.88 16.56 10.09 27.47 4.35 1.05-.55 1.85-1.88 2.42-3.02 7.07-13.95 14.29-27.83 21.03-41.95 5.94-12.43 15.58-19.87 28.74-23.02 3.68-.88 7.49-1.25 11.23-1.91 1.72-.3 2.51.25 3.1 2.03 2.33 7.03 2.5 7.14-3.83 11.12-3.1 1.95-6.54 3.38-9.89 4.89-6.56 2.96-12.28 6.73-15.57 13.53-6.12 12.66-12.67 25.13-18.6 37.88-6.29 13.53-17.07 19.48-31.41 19.08-17.62-.49-28.39-10.99-31.19-27.42-1.43-8.35 1.22-15.94 7.27-22.4 10.54-11.26 21-22.63 30.94-34.42 3.11-3.69 4.54-8.85 6.56-13.41 1.05-2.36-.12-3.68-2.55-4.3-7.68-1.96-15.12-.75-22.42 1.7-4.12 1.38-8.07 3.28-12.17 4.75-2.83 1.01-5.72 2-8.67 2.47-7.07 1.12-12.32-1.94-16.29-7.67-5.16-7.45-5.5-16.06-5.14-24.5.16-3.6 2.9-7.17 4.76-10.59 6.15-11.36 15.46-19.92 26.69-25.55 7.54-3.79 16.44-4.87 24.73-7.17 1.07-.31 2.14-.63 3.2-.93z"/><path d="m204.4 211.04c-3 0-5.67.16-8.31-.1-.78-.07-1.91-1.18-2.11-2-1.5-5.92-2.97-11.85-4.11-17.84-1.16-6.11-1.32-12.46-3.02-18.4-1.93-6.76-6.71-11.29-14.15-12-9.89-.94-19.77-1.95-29.68-2.52-6.11-.35-12.07-1.02-16.04-6.06-2.26-2.88-3.9-6.52-4.88-10.08-2.52-9.09.12-17.68 3.66-26.01.42-1 1.65-1.76 2.67-2.38 9.77-6 20.41-6.63 31.42-5.03 9.4 1.37 18.7 1.63 27.72-2.18 2.33-.98 3.54-2.21 4.02-4.99 1.8-10.54 2.62-21.07 1.24-31.69-.19-1.46-1.07-3.39-2.23-4.05-3.44-1.96-7.07-4.44-10.82-4.84-14.77-1.56-29.61-3-44.45-3.35-15.45-.36-30.76 2.07-45.84 5.53-1.18.27-2.4 1.11-3.23 2.02-5.69 6.3-7.03 14.16-7.13 22.18-.29 21.8-.31 43.59-.36 65.39-.02 8.17.12 16.34.29 24.5.12 5.9.62 11.8.55 17.69-.03 2.5-.79 5.11-1.79 7.43-.7 1.63-2.13 3.22-3.65 4.17-3.81 2.39-6.58 1.6-7.92-2.63-1.36-4.3-2.91-8.95-2.59-13.31.86-11.71-.46-23.23-1.52-34.8-1.58-17.22-1-34.43.49-51.61 1.34-15.52 3.9-30.83 9.07-45.59.5-1.44 1.66-2.89 2.91-3.78 12.84-9.19 27.74-11.78 42.95-11.97 17.76-.23 35.55.42 53.31 1.18 9.67.42 18.96 2.93 27.32 8.22 7.33 4.64 10.77 11.4 11.25 19.86.77 13.34-1.89 26.26-4.91 39.12-.24 1.04-1.29 2.03-2.2 2.75-11.2 9.01-23.93 11.27-37.9 8.97-7.65-1.26-15.37-.87-22.96 1.15-2.71.72-4.16 2.33-4.86 4.93-1.78 6.66.65 11.59 6.88 14.23 7.01 2.96 14.43 2.69 21.78 3.08 3.24.17 6.49.44 9.72.33 11.85-.42 19.72 5.65 24.09 15.89 6.59 15.43 7.51 31.72 5.32 48.59z"/><path d="m143.06 94.16c-9.66-.89-19.32-1.8-28.98-2.68-6.54-.59-9.58-5.77-6.11-11.72 1.25-2.15 5.15-3.83 7.86-3.87 16.85-.26 33.71 0 50.57.13 1.44.01 2.88.32 4.31.59 6.43 1.19 7.3 2.06 7.6 8.67.05 1.03-1.14 2.55-2.16 3.13-6.59 3.71-13.92 4.62-21.31 5.05-3.9.23-7.82.04-11.73.04-.02.21-.03.44-.05.66z"/></g><path d="m385.2 377.6.6-.7c.6.4 1.3.9 1.9 1.5l-.6.7c-.8-.5-1.4-1-1.9-1.5zm.3 7.1c.6-1.4 1.1-2.9 1.5-4.5.3.1.6.3.9.4-.5 1.4-1 2.9-1.5 4.4zm.2-10.1.6-.6c.7.5 1.3 1.1 1.9 1.6l-.7.7c-.6-.6-1.2-1.2-1.8-1.7zm8.4-.8h.8v.9h1.8v.7h-1.8v1.8h-.8v-.3h-1.2v.9h3.3v2.6h-.8v-.4h-2.5c0 .3 0 .6-.1.8h3.4v.7h-3.5c0 .3-.1.6-.1.8h4v.7h-3.5c.7.9 1.9 1.3 3.6 1.5-.2.2-.4.5-.6.9-1.9-.3-3.2-1.1-3.8-2.3-.5 1.1-1.8 2-3.9 2.4-.2-.3-.4-.5-.6-.8 1.9-.4 3.1-.9 3.6-1.7h-3.2v-.7h3.5c.1-.2.1-.5.2-.8h-3.3v-.7h3.4c0-.2 0-.5 0-.8h-2.4v.3h-.8v-2.6h3.3v-.9h-1.2v.3h-.8v-1.8h-1.8v-.7h1.8v-.9h.8v.9h3.2zm-4.4 5.5h2.4c0-.3 0-.6 0-.9h-2.4zm1.2-3.1h3.2v-.8h-3.2zm4.4 2.2h-2.4v.9h2.5v-.9z" fill="#fcfbfa"/><path d="m389.2 385.8h.9v1.5h1.9v-1.5h.9v1.5h2.7v6h1.1v.9h-11.3v-.9h1.1v-6h2.7zm.2 8.7.5.8c-1.2.6-2.5 1.3-4 1.9-.2-.3-.3-.6-.6-.8 1.6-.6 3-1.3 4.1-1.9zm-2-4.3h1.9v-2.1h-1.9zm0 3.1h1.9v-2.2h-1.9zm2.7-3.1h1.9v-2.1h-1.9zm0 3.1h1.9v-2.2h-1.9zm2.4 1.3c1.4.6 2.7 1.2 4.1 1.8l-.5.9c-1.5-.7-2.8-1.4-4.1-1.9zm2.2-6.5h-1.9v2.1h1.9zm-1.9 5.2h1.9v-2.2h-1.9z" fill="#fcfbfa"/></svg>