<svg enable-background="new 0 0 400 400" viewBox="0 0 400 400" xmlns="http://www.w3.org/2000/svg"><g fill="#010103"><path d="m140.32 221.15c-4.31-.87-8.75-1.93-13.25-2.66-16.79-2.73-26.17-13.68-29-29.73-3.16-17.92-.43-35.58 7.4-51.96 1.9-3.97 7.32-6.61 11.6-9.01 5.76-3.22 12.29-3.81 18.88-3.55 6.47.26 12.98-.02 19.42.49 12.81 1.02 21.52 7.5 24.88 20.22 5 18.93 4.99 37.85-1.08 56.53-2.94 9.04-9.7 14.54-18.79 16.82-3.73.94-5.6 2.29-5.89 6.46-.27 3.91-1.86 7.73-2.77 11.61-.24 1.04-.32 2.23-.1 3.26 3.51 16.04 6.75 32.15 10.81 48.05 1.75 6.83 4.72 13.5 8.05 19.75 6.61 12.42 13.94 24.47 20.76 36.78 1.36 2.46 2.29 5.39 2.56 8.18.37 3.84-2.68 6.2-6.32 4.96-2.32-.79-4.71-2.21-6.35-4.01-12.03-13.13-19.91-28.78-26.89-44.96s-9.36-33.51-12.78-50.59c-.5-2.52-1-5.03-1.58-7.93-6.61 3.13-13.78 5.24-19.21 9.55-3.93 3.11-6.24 8.89-8.03 13.92-3.12 8.8-1.39 17.68 1.81 26.23 4.57 12.24 9.38 24.4 13.79 36.7 2.14 5.97 3.71 12.15 5.35 18.29.63 2.34.62 4.8-2.29 5.87-2.32.85-6.01-.47-7.23-2.71-11.88-21.89-21.81-44.52-26.54-69.16-1.62-8.41-.08-16.28 2.6-24.3 1.83-5.48 4.52-9.51 9.25-12.82 9.16-6.41 17.8-13.57 26.99-19.94 3.95-2.69 5.19-5.69 3.95-10.34zm-28.26-41.98c-.54 6.8 1.38 14.07 4.94 18.76.86 1.13 1.88 2.31 3.09 2.98 12.66 7.02 25.78 8.23 39.24 2.58 2.15-.9 4.75-2.31 5.69-4.21 1.85-3.75 3.09-7.93 3.8-12.06.54-3.13-.11-6.46-.23-9.79-19.34.6-37.85 1.17-56.53 1.74zm57.59-14.77c-.98-5.7-1.51-11.04-2.88-16.15-1.22-4.58-4.47-7.94-9.39-8.54-7.29-.88-14.63-1.39-21.97-1.85-1.94-.12-4.05.16-5.85.86-3.95 1.53-7.77 3.41-11.6 5.24-.95.46-2.14 1.11-2.51 1.98-2.08 4.82-4.02 9.67-3.72 15.15.15 2.7 1.05 3.58 3.81 3.56 16.67-.12 33.34-.06 50.01-.07.99 0 1.98-.08 4.1-.18z"/><path d="m221.42 179.81c-1.95 1.94-4.42 3.58-5.76 5.88-7.75 13.29-11.92 27.79-12.31 43.09-.48 19.33-.15 38.69-.23 58.04-.02 3.91 0 7.87-.59 11.71-.35 2.29-1.4 4.82-2.93 6.53-4.04 4.53-7.53 3.71-9.53-1.86-3.04-8.48-2.55-17.17-1.5-25.88 2.06-17.03 2.63-34.11 2.02-51.25-.54-15.34 2.41-30.03 9.19-43.87.71-1.46 1.76-2.85 2.96-3.95 5.58-5.12 10.86-10.66 18.8-12.3 1.03-.21 2.26-2.17 2.41-3.44.41-3.42.55-6.92.32-10.35-.48-7.03.12-13.8 3.05-20.33.91-2.02 1.91-2.33 3.85-1.69 5.59 1.84 8.29 6.27 7.45 12.6-.39 2.99-.99 5.96-1.31 8.96-.26 2.44-.3 4.91-.34 7.36-.09 5.52 2.39 8.97 7.95 10.28 13.24 3.13 19.22 12.74 21.32 25.16 4.19 24.82 8 49.73 7.88 74.98-.06 11.48-1.51 22.95-2.47 34.42-.23 2.79-2.26 4.22-4.93 4.68-2.66.46-4.7-.36-5.36-3.14-.98-4.1-2.33-8.21-2.56-12.37-.4-7.25.12-14.54-.07-21.8-.47-18.11-.67-36.24-1.86-54.31-.78-11.88-4.88-22.92-13.05-32.06-1.39-1.56-2.7-3.2-4.05-4.8-.34.23-.68.45-1.01.68-.08.93-.23 1.86-.23 2.8-.16 35.03-.38 70.05-.44 105.08-.03 19.91.26 39.82.22 59.73-.01 3.53-.68 7.11-1.53 10.55-.43 1.72-1.67 3.46-3 4.7-3.43 3.2-6.97 2.55-8.49-1.77-1.28-3.63-2.43-7.56-2.43-11.36-.04-31 .32-61.99.31-92.99 0-24.51-.35-49.01-.55-73.52-.01-1.11-.1-2.22-.16-3.33-.34-.29-.69-.58-1.04-.86z"/><path d="m256.29 82.55c-4.01 10.69-9.53 19.58-16.25 27.71-7.63 9.25-15.44 18.35-26.47 23.86-5.1 2.54-10.48 3.83-16.18 3.68-4.74-.13-5.06-.43-6.16-5.1-.18-.75-.28-1.52-.5-2.79 25.18-10.11 41.24-29.69 53.96-52.26-4.42-4.16-8.89-7.76-12.63-12-9.04-10.24-12-22.73-12.26-36.04-.05-2.7 3.09-5.06 5.28-3.61 2.88 1.91 5.83 4.27 7.61 7.14 2.13 3.44 3.16 7.6 4.5 11.5 2.26 6.56 5.29 12.88 10.81 17.05 4.82 3.65 10.54 6.2 16.07 8.81 4.53 2.14 9.35 3.67 14.06 5.42 14.99 5.57 23.08 16.46 25.24 32.18 1.73 12.57 1.01 25.1-1.1 37.45-4.89 28.64-7.84 57.38-7.33 86.46.38 21.61 1.22 43.21 5.09 64.51 2.69 14.83 6.45 29.47 9.65 44.22 2.07 9.56 2.91 19.22 2.34 29.01-.17 2.98-1.47 4.98-4.18 5.77-2.81.82-4.89-.46-6.47-2.93-4.82-7.55-6.79-16.01-7.99-24.69-2.89-20.94-6.1-41.84-8.41-62.84-3.52-31.96-5.53-64.03-2.32-96.15 1.47-14.68 3.87-29.27 5.54-43.93 1.37-12.11 2.47-24.23.65-36.46-1.12-7.53-4.67-13.05-11.28-16.36-6.84-3.46-13.96-6.35-21.27-9.61z"/><path d="m82.03 111.45c1.8-4.13 3.25-8.46 5.46-12.35 9.8-17.27 22.81-32.29 34.5-48.23 3.67-5.01 9.05-8.88 14.04-12.77 5.18-4.03 10.87-3.74 16.65-.65 7.37 3.93 13.03 9.67 16.84 16.85 9 16.96 17.65 34.12 26.12 51.36 1.51 3.08 1.77 6.86 2.14 10.37.28 2.58-1.21 4.64-3.91 5.04-2.55.37-4.68-.34-6.06-3.01-9.37-18.17-18.83-36.29-28.32-54.4-1.5-2.86-3.08-5.74-5.05-8.27-1.38-1.78-3.28-3.43-5.3-4.39-4.71-2.23-7.06-1.42-10.16 2.71-11.6 15.48-23.25 30.93-34.79 46.46-2.79 3.76-5.13 7.84-7.85 11.65-2.22 3.11-5.36 4.67-9.24 4.47-2.78-.14-4.86-1.01-4-4.59-.35-.08-.71-.17-1.07-.25z"/><path d="m140.69 88.73c5.69 0 11.4-.22 17.07.09 2.95.16 5.99.93 8.71 2.08 1.8.76 3.52 2.42 4.54 4.12 1.76 2.96 1.02 5.01-2.33 5.72-6.4 1.36-12.94 3.07-19.39 2.95-9.87-.19-19.72-1.83-29.58-2.81-4.43-.44-3.34-4.31-4.24-6.85-.87-2.44 1.68-2.41 2.89-3.27 4.59-3.25 9.95-1.64 14.96-2.24 2.42-.29 4.91-.05 7.37-.05z"/></g><path d="m385.2 377.6.6-.7c.6.4 1.3.9 1.9 1.5l-.6.7c-.8-.5-1.4-1-1.9-1.5zm.3 7.1c.6-1.4 1.1-2.9 1.5-4.5.3.1.6.3.9.4-.5 1.4-1 2.9-1.5 4.4zm.2-10.1.6-.6c.7.5 1.3 1.1 1.9 1.6l-.7.7c-.6-.6-1.2-1.2-1.8-1.7zm8.4-.8h.8v.9h1.8v.7h-1.8v1.8h-.8v-.3h-1.2v.9h3.3v2.6h-.8v-.4h-2.5c0 .3 0 .6-.1.8h3.4v.7h-3.5c0 .3-.1.6-.1.8h4v.7h-3.5c.7.9 1.9 1.3 3.6 1.5-.2.2-.4.5-.6.9-1.9-.3-3.2-1.1-3.8-2.3-.5 1.1-1.8 2-3.9 2.4-.2-.3-.4-.5-.6-.8 1.9-.4 3.1-.9 3.6-1.7h-3.2v-.7h3.5c.1-.2.1-.5.2-.8h-3.3v-.7h3.4c0-.2 0-.5 0-.8h-2.4v.3h-.8v-2.6h3.3v-.9h-1.2v.3h-.8v-1.8h-1.8v-.7h1.8v-.9h.8v.9h3.2zm-4.4 5.5h2.4c0-.3 0-.6 0-.9h-2.4zm1.2-3.1h3.2v-.8h-3.2zm4.4 2.2h-2.4v.9h2.5v-.9z" fill="#fcfbfa"/><path d="m389.2 385.8h.9v1.5h1.9v-1.5h.9v1.5h2.7v6h1.1v.9h-11.3v-.9h1.1v-6h2.7zm.2 8.7.5.8c-1.2.6-2.5 1.3-4 1.9-.2-.3-.3-.6-.6-.8 1.6-.6 3-1.3 4.1-1.9zm-2-4.3h1.9v-2.1h-1.9zm0 3.1h1.9v-2.2h-1.9zm2.7-3.1h1.9v-2.1h-1.9zm0 3.1h1.9v-2.2h-1.9zm2.4 1.3c1.4.6 2.7 1.2 4.1 1.8l-.5.9c-1.5-.7-2.8-1.4-4.1-1.9zm2.2-6.5h-1.9v2.1h1.9zm-1.9 5.2h1.9v-2.2h-1.9z" fill="#fcfbfa"/></svg>