<svg enable-background="new 0 0 400 400" viewBox="0 0 400 400" xmlns="http://www.w3.org/2000/svg"><g fill="#fbfafa"><path d="m37.59 393.81c-.92.31-1.52.05-2-.78-.7-1.2-1.52-2.34-2.47-3.78v4.59c-.55.03-.95.05-1.41.07-.03-.37-.06-.64-.06-.91 0-1.91 0-3.81 0-5.7 1.13-.41 1.77-.03 2.29.91.62 1.11 1.38 2.14 2.31 3.19v-4.2h1.35v6.61z"/><path d="m12.94 393.88v-6.75c1.9.19 3.93-.54 5.37 1.29.8 1.01.78 2.88.03 3.97-1.37 1.97-3.4 1.51-5.4 1.49m1.45-1.22c2.04.12 2.92-.58 2.89-2.21-.03-1.51-.98-2.19-2.89-2z"/><path d="m11.81 393.87h-5.49c.68-2.18 2.47-3.48 3.51-5.45h-3.08v-1.21h5.29c-.71 2.13-2.44 3.48-3.47 5.51.86 0 1.63.04 2.39-.01.79-.05 1.14.21.85 1.16"/><path d="m39.33 393.86v-6.61h3.7v1.07h-2.22v1.52c.68.04 1.34.09 2.07.13v1.07c-.72.05-1.38.09-2.1.14v1.48h2.4v1.19h-3.85z"/><path d="m27.71 388.56c-1.15-.3-2.46-.61-3.1.64-.37.73-.41 1.93-.06 2.67.63 1.35 1.99.93 3.17.68.35.94-.01 1.32-.93 1.46-1.62.25-3.05-.27-3.76-1.48-.73-1.24-.6-3.03.31-4.17.88-1.11 2.71-1.7 4-1.16.32.13.44.74.65 1.12-.1.08-.19.16-.28.24"/><path d="m49.15 387.24v1.07c-.59.02-1.17.05-1.87.08v5.44h-1.48v-5.44h-1.85c-.05-.4-.08-.73-.13-1.15z"/><path d="m20.06 387.21h1.33v6.62h-1.33z"/><path d="m30.68 393.25c-.49.38-.8.79-1.05.76-.32-.05-.6-.45-.9-.7.26-.24.51-.64.8-.67.29-.04.62.3 1.15.61"/></g><path d="m255.8 232.81c0-4.7.02-8.91-.01-13.11-.02-2.46-.51-4.99-.09-7.36.39-2.19 1.23-4.66 2.7-6.22 3.6-3.84 6.81-3.25 9.47 1.21 2.98 4.99 3.97 10.51 3.51 16.14-1.1 13.49.93 26.76 1.96 40.13 2.22 28.98 2.14 57.84-5.31 86.34-2.06 7.89-6.82 12.1-13.35 15.47-13.76 7.11-28.62 8.98-43.84 9.56-21.69.82-43.11-1.34-64.46-4.84-16.62-2.73-25.23-12.82-28.94-30.12-6.69-31.2-7.38-62.82-5.35-94.54.98-15.42 2.77-30.76 8.36-45.34.67-1.76 2-3.51 3.48-4.68 8.61-6.77 18.74-9.11 29.43-9.79 37.9-2.4 75.84-1.61 113.77-1.32 3.44.03 6.9.66 10.31 1.28 4.29.78 6.79 4.48 5.9 8.69-.18.84-1.23 1.75-2.1 2.14-8.1 3.6-16.71 3.74-25.35 3.43-15.09-.55-30.17-1.15-45.26-1.67-3.41-.12-4.86 1.08-4.59 4.53.48 6.04 1.68 11.8 7.19 15.8 8.46 6.15 18.19 8.92 28.12 11.26 4.5 1.05 9.09 1.9 14.45 3.01zm-59.19-9.52c-4.74 5.76-9.97 10.33-16.54 13.32-8.12 3.7-16.8 3.18-25.34 3.91-9.32.8-18.61 1.88-27.91 2.83-.08 1.71-.17 2.59-.16 3.47.21 19.92.11 39.84.78 59.74.36 10.69 1.45 21.43 3.3 31.96 1.51 8.6 5.96 15.58 15.85 17.16 4.84.77 9.56 2.3 14.4 3.12 17.76 2.99 35.66 2.57 53.56 1.92 12.86-.47 25.27-2.38 36.38-9.76 2.72-1.81 4.48-3.61 5.42-6.64 3.65-11.8 4.2-23.96 4.49-36.16.48-20-2.28-39.72-5.28-59.41-.14-.92-1.46-2.14-2.44-2.38-4.01-.99-8.07-1.91-12.17-2.39-14.76-1.73-27.74-7.42-39.15-16.87-1.54-1.29-3.23-2.39-5.19-3.82zm-69.27 6.02c10.13-1.17 19.1-2.26 28.08-3.23 8.3-.9 16.08-3.35 23.69-6.79 5.52-2.49 7.93-6.87 9.39-12.17 1.42-5.17-.24-7.44-5.64-8.27-12.79-1.98-25.35-.4-37.93 1.95-7.74 1.45-13.65 4.48-15.05 13.06-.27 1.63-1.28 3.14-1.52 4.77-.47 3.35-.66 6.75-1.02 10.68z" fill="#010105"/><path d="m264.06 168.63c-2.59.77-4.79 1.59-7.06 2-.86.16-2.28-.36-2.76-1.05-1.52-2.17-2.99-4.46-4-6.9-8.19-19.67-9.98-39.91-5.65-60.8 1.79-8.64 3.57-17.38 4.1-26.14.39-6.44-.7-13.13-2.16-19.48-1.2-5.22-3.88-10.1-5.96-15.11-1.53-3.69-3.4-7.25-4.63-11.03-1.04-3.2 1.48-5.46 4.89-4.87 5.6.98 9.44 4.33 12.23 9.07 6.73 11.46 10.2 24.07 9.82 37.14-.38 13.12-2.62 26.2-4.09 39.29-.7 6.22-1.54 12.43-2.24 18.65-.11.97.11 1.99.3 2.97 2.35 11.94 4.74 23.87 7.21 36.26z" fill="#010105"/><path d="m139.54 177.43c-2.96.51-5.78 1.19-8.63 1.37-.81.05-1.99-1.16-2.53-2.06-6.92-11.57-8.6-24.25-8.01-37.47.67-14.94 2.85-29.59 7.77-43.75 4.32-12.42 1.61-23.98-3.85-35.31-2.08-4.32-4.14-8.68-5.8-13.17-.9-2.46-1.23-5.22-1.3-7.86-.09-3.6.72-4.1 4.28-3.26 4.43 1.05 7.9 3.53 10.5 7.27 11.72 16.85 15.56 35.13 9.96 55.09-3.75 13.38-6.73 26.96-7.35 40.84-.51 11.46-.45 23.05 3.77 34.08.49 1.22.73 2.55 1.19 4.23z" fill="#010105"/><path d="m174.19 28.57c5.76.44 9.57 2.65 12.32 6.38 11.45 15.57 18.2 32.8 17.23 52.4-.4 8.02-1.45 16.03-2.65 23.98-2.44 16.19-1.75 32.29.47 48.41.42 3.08.64 6.19.98 9.59-2.39.52-4.64 1.22-6.92 1.38-.82.06-2.09-.98-2.56-1.84-7.51-13.88-9.72-28.66-6.92-44.14 2.53-14 3.92-28.04 4.03-42.3.08-10.39-3.91-19.02-8.64-27.72-2.75-5.07-5.5-10.25-7.29-15.69-1.01-3.1-.1-6.85-.05-10.45z" fill="#010105"/><path d="m218.91 276.55c-12.37.89-24.75 1.8-37.12 2.68-10.75.76-21.45 1.05-31.88-2.49-2.78-.94-4.6-2.39-3.66-5.51.39-1.28 1.31-3.07 2.35-3.38 5.85-1.73 11.76-4.14 17.74-4.38 19.65-.79 39.33-.83 59.01-.98 4.93-.04 9.28 1.46 11.2 6.8.86 2.39.5 4.52-1.94 5.18-5.09 1.38-10.31 2.28-15.48 3.38-.08-.45-.15-.88-.22-1.3z" fill="#010105"/><path d="m193.87 320.63c-13.53-.37-27.05-.83-40.58-1.05-3.12-.05-4.53-1.68-5.17-4.2-.66-2.6-.68-5.23 2.74-6.11 2.86-.73 5.74-1.96 8.61-1.98 23.28-.16 46.56-.11 69.84-.07 3.46.01 6.93.25 10.38.57 4.55.42 7.25 3.97 6.35 8.42-.18.89-1.14 2.09-1.96 2.31-4.06 1.08-8.17 2.55-12.3 2.66-12.63.34-25.27.12-37.91.12.01-.22 0-.44 0-.67z" fill="#010105"/></svg>