<svg enable-background="new 0 0 400 400" viewBox="0 0 400 400" xmlns="http://www.w3.org/2000/svg"><g fill="#010103"><path d="m234.06 117.63c-10.91-2.71-21.64-1.41-32.34-1.29-8.82.1-17.68-.02-26.46-.76-3.2-.27-6.72-2.03-9.22-4.15-4.04-3.42-3.11-8 1.93-9.13 6.69-1.5 13.62-2.55 20.47-2.68 13.19-.25 26.39.28 39.59.49.89.01 1.78 0 3.26 0 0-1.48.03-2.77-.01-4.06-.49-15.88-1.07-31.75-1.44-47.63-.18-7.91 1.56-15.5 4.83-22.67 5.77.4 10.16 4.44 10.18 10.51.01 6.78-1.1 13.56-1.49 20.36-.2 3.55.08 7.13.17 10.7.05 2.16.85 3.16 3.33 2.89 6.11-.64 12.27-.87 18.38-1.53 1.25-.14 2.85-1.18 3.48-2.27 3.01-5.25 3.95-11.1 4.34-17.06.23-3.57.29-7.17.83-10.69.63-4.09 3.04-6.53 6.18-7.04 2.1-.34 3.51.12 4.49 2.31 4.03 9.02 3.62 18.3 1.85 27.65-2.92 15.44-9.57 21.17-28.34 23.72-4.07.55-8.22.58-12.77.88.18 3.95.17 7.73.67 11.43.1.76 2.11 1.77 3.25 1.79 9.5.18 19.01.04 28.51.24 3.77.08 7.64.33 11.24 1.32 2.27.62 4.65 2.38 6.07 4.3 2.84 3.83 1.76 6.72-2.64 8.41-8.32 3.19-16.92 2.2-25.52 1.75-5.65-.29-11.33-.06-16.93-.06-1.96 12.87 7.67 53.86 15.49 65.86 3.56-6.36 6.93-12.62 10.54-18.73 2.89-4.89 5.78-9.85 9.28-14.3 1.9-2.42 4.91-4.18 7.75-5.57 1.51-.74 4.8-.78 5.37.11 1.25 1.93 2.14 4.87 1.6 7-.74 2.9-2.89 5.47-4.55 8.1-6.86 10.85-14.19 21.41-18.36 33.77-1.95 5.77-.98 10.6 2.55 15.37 9.27 12.55 19.64 24.09 31.09 34.69 2.54 2.35 5.22 4.58 7.6 7.09 3.01 3.16 3.61 5.65 2.84 10.08-3.49 0-7.05.17-10.58-.1-1.11-.09-2.28-1.23-3.16-2.14-10.55-10.97-21.05-21.99-31.57-32.98-.99-1.04-2.04-2.03-3.63-3.61-.5 4.37-.98 8.14-1.36 11.92-1.06 10.46-2.74 20.9-3.01 31.37-.66 25.43 4.92 49.95 12.32 74.11 2.65 8.65 5.61 17.21 8.02 25.92 1.62 5.85-.24 9.54-4.52 11.16-1.92.73-2.95.36-4.02-1.49-7.66-13.3-12.47-27.68-16.18-42.46-6.05-24.14-10.61-48.59-10.16-73.55.22-12.23 2.57-24.42 4.06-36.62.6-4.88 1.6-9.71 2.15-14.6.17-1.54-.1-3.44-.89-4.74-8.78-14.64-13.62-30.86-18.31-47.02-2.6-8.96-3.27-18.47-4.81-27.73-.47-2.88-.95-5.74-1.44-8.64z"/><path d="m135.64 234.5c-10.73-.64-20.9-1.06-31.04-1.94-4.51-.39-9.07-1.3-13.38-2.69-8.76-2.83-13.25-9.63-14.88-18.27-1.07-5.69-1.75-11.53-1.89-17.32-.6-24.72-1.15-49.45-1.28-74.18-.08-14.57 1.99-28.92 5.66-43.11 2.03-7.83 6.61-12.7 13.63-15.11 6.7-2.31 13.74-4.33 20.75-4.9 12.45-1 24.99-.98 37.5-.98 2.56 0 5.54 1.3 7.58 2.93 3.69 2.94 2.66 7.28-1.72 8.82-10.94 3.84-22.25 2.89-33.56 2.82-7.21-.05-14.46.8-21.62 1.73-5.75.75-8.83 4.9-10.28 10.21-.7 2.57-1.09 5.25-1.35 7.9-.52 5.33-.85 10.67-1.33 16.86 6.83 0 13.53-.31 20.19.08 7.79.45 15.57 1.29 23.3 2.38 6.93.97 11.72 5.19 13.7 11.81 1.75 5.84 3.52 11.91 3.74 17.93.61 16.31.33 32.65.53 48.98.5 39.5.84 79 1.8 118.49.2 8.39 2.8 16.72 4.22 25.09 2.03 11.91 4.13 23.81 3.1 36-.25 2.93-1.18 5.09-4.18 5.58-2.87.46-5.01-.51-6.45-3.45-6.28-12.8-8.71-26.47-9.51-40.52-1.08-18.76-2.34-37.52-3.09-56.29-.46-11.62-.12-23.28-.13-34.92-.02-1.21-.01-2.41-.01-3.93zm-46.67-61.62c-1.01 14.15-.48 27.8 3.06 41.22.21.78 1.15 1.7 1.94 1.95 12.65 4 25.5 5.32 38.66 2.82 2.57-.49 3.08-1.72 3.06-4.09-.11-11.17-.05-22.35-.05-33.52 0-2.31 0-4.62 0-7.29-15.65-.38-30.9-.73-46.67-1.09zm47.37-14.58c0-6.83.1-12.95-.05-19.06-.07-2.65-.43-5.35-1.05-7.93-1.34-5.59-4.09-7.76-9.73-8.13-6.68-.44-13.37-.91-20.05-1.33-5.41-.34-10.83-.63-16.39-.95v37.4z"/><path d="m174.75 182.74c-.06-9.49 1.39-18.71 5.22-27.44.62-1.42 1.81-2.8 3.1-3.67 8.69-5.84 18.35-6.13 28.35-4.98 13.68 1.57 19.03 5.94 21.65 19.51 2.61 13.55 1.01 26.91-3.24 39.98-2.57 7.92-9.09 11.52-16.26 13.53-4.92 1.37-10.39 1.73-15.49 1.24-7.57-.74-13.45-4.65-17.2-11.73-4.41-8.34-6.15-17.16-6.13-26.44zm42.74-20.33c-7.76-.58-15.2-1.4-22.65-1.49-1.52-.02-3.99 2.43-4.46 4.17-3.54 13.08-2.43 25.88 3.53 38.13.45.92 1.3 1.93 2.2 2.28 6.52 2.55 12.86 2.37 18.84-1.68 1.8-1.22 2.66-2.64 2.6-4.98-.18-7.26-.06-14.53-.06-21.8 0-4.78 0-9.56 0-14.63z"/><path d="m204.62 242.5c9.63 0 19.25-.06 28.88.03 3.01.03 6.09.14 9 .79 1.92.43 4.06 1.53 5.32 3 2.5 2.93 1.56 5.32-1.58 7.45-4.04 2.74-8.57 3.17-13.12 3.43-20.47 1.15-40.91 1.17-61.26-1.8-.99-.14-1.97-.38-2.96-.59-4.01-.87-6.09-4.16-5.12-8.11.37-1.52 5.58-4.19 8.27-4.19 10.85-.02 21.71-.01 32.57-.01z"/></g><path d="m385.2 377.6.6-.7c.6.4 1.3.9 1.9 1.5l-.6.7c-.8-.5-1.4-1-1.9-1.5zm.3 7.1c.6-1.4 1.1-2.9 1.5-4.5.3.1.6.3.9.4-.5 1.4-1 2.9-1.5 4.4zm.2-10.1.6-.6c.7.5 1.3 1.1 1.9 1.6l-.7.7c-.6-.6-1.2-1.2-1.8-1.7zm8.4-.8h.8v.9h1.8v.7h-1.8v1.8h-.8v-.3h-1.2v.9h3.3v2.6h-.8v-.4h-2.5c0 .3 0 .6-.1.8h3.4v.7h-3.5c0 .3-.1.6-.1.8h4v.7h-3.5c.7.9 1.9 1.3 3.6 1.5-.2.2-.4.5-.6.9-1.9-.3-3.2-1.1-3.8-2.3-.5 1.1-1.8 2-3.9 2.4-.2-.3-.4-.5-.6-.8 1.9-.4 3.1-.9 3.6-1.7h-3.2v-.7h3.5c.1-.2.1-.5.2-.8h-3.3v-.7h3.4c0-.2 0-.5 0-.8h-2.4v.3h-.8v-2.6h3.3v-.9h-1.2v.3h-.8v-1.8h-1.8v-.7h1.8v-.9h.8v.9h3.2zm-4.4 5.5h2.4c0-.3 0-.6 0-.9h-2.4zm1.2-3.1h3.2v-.8h-3.2zm4.4 2.2h-2.4v.9h2.5v-.9z" fill="#fcfbfa"/><path d="m389.2 385.8h.9v1.5h1.9v-1.5h.9v1.5h2.7v6h1.1v.9h-11.3v-.9h1.1v-6h2.7zm.2 8.7.5.8c-1.2.6-2.5 1.3-4 1.9-.2-.3-.3-.6-.6-.8 1.6-.6 3-1.3 4.1-1.9zm-2-4.3h1.9v-2.1h-1.9zm0 3.1h1.9v-2.2h-1.9zm2.7-3.1h1.9v-2.1h-1.9zm0 3.1h1.9v-2.2h-1.9zm2.4 1.3c1.4.6 2.7 1.2 4.1 1.8l-.5.9c-1.5-.7-2.8-1.4-4.1-1.9zm2.2-6.5h-1.9v2.1h1.9zm-1.9 5.2h1.9v-2.2h-1.9z" fill="#fcfbfa"/></svg>