<svg enable-background="new 0 0 400 400" viewBox="0 0 400 400" xmlns="http://www.w3.org/2000/svg"><g fill="#010103"><path d="m146.06 195.79c-2.36.7-4.53.84-6.09 1.89-4.7 3.16-9.78 6.1-13.6 10.17-9.02 9.6-17.44 19.77-25.99 29.81-1.94 2.28-3.35 5.01-5.16 7.42-1.96 2.61-4.99 3.84-7.65 2.28-1.68-.99-2.31-3.9-3.2-6.04-.31-.75-.23-1.89.13-2.64 3.07-6.35 4.39-13.58 9.98-18.69 4.78-4.37 9.36-9.02 13.66-13.87 8.65-9.77 18.87-17.42 30.35-23.48.47-.25.9-.57 1.65-1.06-4.85-5.22-9.56-10.28-14.28-15.36-4.64 3.77-8.98 7.8-13.82 11.11-5.97 4.09-12.11 8.12-18.65 11.13-3.98 1.83-8.85 1.77-13.35 2.39-2.05.28-3.02-.77-3.53-2.97-.93-4-.1-6.81 3.68-8.79 6.42-3.38 12.72-6.99 19.1-10.43 6.09-3.28 11.27-7.58 15.54-13.13-2.72-3.4-5.47-6.63-7.99-10.02-9.77-13.15-14-28.19-13.95-44.34.03-9.58.59-19.24 1.93-28.72 2.27-16.11 14.09-26.98 30.71-30.7 19.38-4.33 38.86-3.96 58.41-2.53 3.15.23 6.3 1.43 9.29 2.59 1.46.57 2.81 1.88 3.75 3.19 2.51 3.52 1.8 5.54-2.19 6.98-5.65 2.03-11.43 1.48-17.24.96-3.44-.31-6.92-.33-10.37-.31-1.84.01-2.93.79-3.04 3.05-.25 4.79-.9 9.55-1.47 15.1 7.61.43 14.93.78 22.23 1.27 2.65.18 5.34.45 7.91 1.08 2.89.71 4.21 2.84 3.7 5.85-.45 2.71-1.48 4.49-4.84 4.75-10.14.81-20.24 2.03-30.73 3.13-1.38 6.84-2.75 13.67-4.25 21.08 5.23.31 10.09.63 14.95.89 5.68.3 11.41.23 17.05.92 4.11.5 6.07 3.24 5.73 6.58-.29 2.9-1.14 4.65-4.85 4.85-11.72.64-23.4 1.91-35.11 2.8-2.27.17-3.53 1.08-4.62 3.07-5.15 9.41-10.46 18.72-15.67 27.99 3.8 3.66 7.71 7 11.12 10.79 6.86 7.64 11.05 16.72 13.52 26.65.94 3.78 2.01 7.57 3.45 11.19 1.62 4.07 3.38 4.1 6.77 1.55 4.44-3.34 8.96-6.8 13.95-9.14 6.17-2.9 12.51-2.45 16.78 5.77 3.32 6.39 3.89 13.21 4.67 20.09 1.5 13.22 3.27 26.41 4.48 39.66 1.54 16.82 3.32 33.73.3 50.53-1.32 7.31-3.85 14.41-6.1 21.53-.45 1.43-1.92 2.75-3.24 3.65-2.95 2.01-6.36 1.23-7.25-2.11-1.01-3.79-2.13-8.2-1.12-11.75 4.85-17.03 2.43-34.23 2.11-51.38-.17-9.17-.22-18.39-1.15-27.5-1.16-11.31-3.17-22.53-4.93-34.56-3.15 1.92-5.69 3.21-7.94 4.9-3.84 2.89-7.43 6.13-11.27 9.02-1.65 1.24-2.16 2.54-1.97 4.52 1.03 10.8 2.16 21.6 2.83 32.43.36 5.78.03 11.61-.28 17.41-1.23 23.24-2.38 46.49-4.01 69.7-.46 6.5-2.15 12.99-3.9 19.31-1.19 4.32-4.38 7.2-9.19 7.72-1.88.2-2.98-.32-3.79-2.27-2.65-6.38-1.89-12.8-.27-19.11 7.54-29.28 9.47-59.15 9.05-89.2-.12-8.84-1.74-17.66-2.68-26.5-.43-.07-.86-.14-1.28-.21-2.7 2.91-5.47 5.76-8.07 8.76-18.81 21.62-31.08 46.82-40.07 73.77-1.87 5.61-3.21 11.4-5.27 16.93-1.78 4.77-5.15 6.54-9.76 5.49-1.33-.3-3.23-1.74-3.39-2.87-.47-3.12-.9-6.57-.03-9.5 8.24-27.78 19.22-54.46 35.58-78.48 6.31-9.27 14.37-17.48 22.39-25.4 5.78-5.71 8.28-11.17 4.82-18.97-1.53-3.4-1.91-7.3-2.97-11.67zm-38.31-86.19c11.39-.59 21.98-1.11 32.55-1.74.67-.04 1.74-.77 1.87-1.35 1.42-6.47 2.69-12.97 4.04-19.68-13.21-.57-25.98-1.12-38.46-1.66zm41.69-39.2c0-4.24.23-8.26-.13-12.22-.12-1.32-1.55-3.22-2.78-3.61-2.7-.85-5.87-1.76-8.47-1.11-6.65 1.65-13.09 4.13-19.61 6.28-5.87 1.94-6.85 7.11-8.33 12.37 13-.56 25.68-1.11 39.32-1.71zm-25.23 73.31c.41.13.82.27 1.23.4 3.12-6.67 6.24-13.34 9.48-20.28-7.85 0-15.25 0-23.15 0 4.3 6.87 8.37 13.37 12.44 19.88z"/><path d="m245.91 100.97c.6-10.37 1.17-20.28 1.8-31.08-4.07 0-7.83-.01-11.59 0-7.82.03-15.65.33-23.46.03-4.61-.18-8.76-1.85-10.41-6.96-.83-2.59-.28-4.12 2.5-5.05 9.72-3.27 19.75-3.62 29.84-3.43 19.79.38 39.58.86 59.37 1.3 1.21.03 2.42 0 3.7 0 .54-6.72.89-13.17 1.66-19.56.36-2.95 1.57-5.8 2.33-8.71.54-2.07 1.89-2.21 3.6-1.68 3.67 1.13 5.95 3.74 6.61 7.36.75 4.16 1.19 8.41 1.29 12.63.24 10.51.29 21.03.28 31.55-.01 8.04-1.3 16.1-5.29 22.96-2.28 3.91-6.88 6.9-11.05 9.2-7.85 4.32-16.81 4.13-25.49 4.79-2.54.19-5.09.35-7.91.55 1.09 7.04 1.75 13.73 9.11 17.17 5.55 2.6 10.75 5.96 16.36 8.4 8.46 3.68 16.14 8.62 20.19 16.86 3.5 7.1 6.33 15.02 7.17 22.82 1.46 13.63 1.72 27.45 1.5 41.17-.56 35.46-1.49 70.92-2.6 106.37-.43 13.73-1.7 27.44-2.68 41.15-.1 1.34-.56 3.46-1.41 3.8-2.34.92-4.97 1.22-7.51 1.43-.46.04-1.26-1.41-1.56-2.29-2.41-6.98-3.22-14.27-2.52-21.51 4-41.03 3.93-82.22 4.46-123.36.18-14.06-1.58-28.14-2.45-42.21-.17-2.79-.5-5.59-.48-8.38.08-10.24-8.75-20.47-17.69-22.93-7.72-2.13-14.73-5.69-21.31-10.3-4.65-3.26-6.67-7.98-8.54-12.89-1.59-4.17-2.97-8.42-4.46-12.63-.75-2.13-2.21-3.29-4.53-3.26-8.15.12-16.29.28-24.44.32-3.67.02-7.44.25-10.98-.49-2.29-.48-4.77-2.11-6.25-3.97-2.7-3.39-1.48-6.76 2.52-8.32 8.28-3.24 16.85-2.95 25.48-2.06 4.75.5 9.53.79 14.84 1.21zm16.02-31.12c0 1.94-.08 3.7.01 5.45.32 5.91.75 11.81 1.03 17.73.43 9.06.39 9.15 9.58 8.84 6.68-.23 13.41-.37 19.37-4.16 2.52-1.6 4.12-3.39 4.12-6.66 0-3.55.65-7.11.99-10.66.33-3.49.61-6.99.91-10.53-12.27-.01-24.07-.01-36.01-.01z"/><path d="m237.14 196.33c11.56.6 22.25 1.16 33.06 1.72 1.62-7.51.47-14.83-.02-22.17-.2-2.98-.16-6.04.32-8.97.29-1.76 1.32-3.63 2.55-4.96 3.67-4 6.61-3.54 8.54 1.42 1.12 2.87 1.91 5.97 2.2 9.03.98 10.46 1.78 20.93 2.43 31.41 1.18 19.05 1.4 38.03-5.63 56.26-.58 1.5-1.48 3.02-2.61 4.15-11.22 11.11-24.24 11.79-38.5 6.97-5.75-1.94-9.07-5.6-11.35-10.86-3.7-8.54-5.28-17.53-5.93-26.71-1.14-16.22-.82-32.4 1.58-48.53.66-4.4.13-8.99.91-13.36.67-3.76 2.42-7.33 3.69-10.99.67-1.92 2.06-1.69 3.55-1.21 4.23 1.36 7.16 4.91 6.96 9.61-.23 5.45-1.27 10.86-1.69 16.32-.28 3.5-.06 7.05-.06 10.87zm-.34 14.67c0 9.34-.45 18.28.17 27.15.37 5.22 2.1 10.44 3.89 15.42.82 2.28 2.9 5.04 5.02 5.73 3.67 1.21 7.93 1.75 11.74 1.18 5.53-.82 9.98-3.66 10.61-10.21.41-4.21 1.52-8.36 1.92-12.57.7-7.32 1.17-14.67 1.58-22.02.08-1.51.29-3.54-2.32-3.62-10.48-.32-20.95-.68-32.61-1.06z"/></g><path d="m385.2 377.6.6-.7c.6.4 1.3.9 1.9 1.5l-.6.7c-.8-.5-1.4-1-1.9-1.5zm.3 7.1c.6-1.4 1.1-2.9 1.5-4.5.3.1.6.3.9.4-.5 1.4-1 2.9-1.5 4.4zm.2-10.1.6-.6c.7.5 1.3 1.1 1.9 1.6l-.7.7c-.6-.6-1.2-1.2-1.8-1.7zm8.4-.8h.8v.9h1.8v.7h-1.8v1.8h-.8v-.3h-1.2v.9h3.3v2.6h-.8v-.4h-2.5c0 .3 0 .6-.1.8h3.4v.7h-3.5c0 .3-.1.6-.1.8h4v.7h-3.5c.7.9 1.9 1.3 3.6 1.5-.2.2-.4.5-.6.9-1.9-.3-3.2-1.1-3.8-2.3-.5 1.1-1.8 2-3.9 2.4-.2-.3-.4-.5-.6-.8 1.9-.4 3.1-.9 3.6-1.7h-3.2v-.7h3.5c.1-.2.1-.5.2-.8h-3.3v-.7h3.4c0-.2 0-.5 0-.8h-2.4v.3h-.8v-2.6h3.3v-.9h-1.2v.3h-.8v-1.8h-1.8v-.7h1.8v-.9h.8v.9h3.2zm-4.4 5.5h2.4c0-.3 0-.6 0-.9h-2.4zm1.2-3.1h3.2v-.8h-3.2zm4.4 2.2h-2.4v.9h2.5v-.9z" fill="#fcfbfa"/><path d="m389.2 385.8h.9v1.5h1.9v-1.5h.9v1.5h2.7v6h1.1v.9h-11.3v-.9h1.1v-6h2.7zm.2 8.7.5.8c-1.2.6-2.5 1.3-4 1.9-.2-.3-.3-.6-.6-.8 1.6-.6 3-1.3 4.1-1.9zm-2-4.3h1.9v-2.1h-1.9zm0 3.1h1.9v-2.2h-1.9zm2.7-3.1h1.9v-2.1h-1.9zm0 3.1h1.9v-2.2h-1.9zm2.4 1.3c1.4.6 2.7 1.2 4.1 1.8l-.5.9c-1.5-.7-2.8-1.4-4.1-1.9zm2.2-6.5h-1.9v2.1h1.9zm-1.9 5.2h1.9v-2.2h-1.9z" fill="#fcfbfa"/></svg>