<svg enable-background="new 0 0 400 400" viewBox="0 0 400 400" xmlns="http://www.w3.org/2000/svg"><path d="m361.2 9.6.8-1c.9.7 1.9 1.4 2.9 2.3l-.9 1.1c-1-1-2-1.8-2.8-2.4zm.5 10.6c.9-2.1 1.6-4.3 2.3-6.7.4.2.8.4 1.3.6-.7 2.1-1.5 4.3-2.2 6.6zm.4-15.2.9-.9c1 .8 2 1.6 2.8 2.4l-1 1c-.9-.9-1.8-1.7-2.7-2.5zm12.5-1.2h1.2v1.4h2.7v1.1h-2.7v2.7h-1.2v-.6h-1.8v1.3h4.9v3.8h-1.2v-.5h-3.7c0 .4-.1.9-.1 1.2h5.1v1h-5.2c0 .5-.1.9-.2 1.2h6v1h-5.2c1.1 1.3 2.9 2 5.5 2.2-.4.4-.7.8-.9 1.3-2.9-.5-4.8-1.6-5.7-3.5h-.1c-.8 1.7-2.7 2.9-5.9 3.6-.2-.4-.6-.8-.9-1.1 2.8-.6 4.6-1.4 5.4-2.5h-4.8v-1h5.3c.1-.3.2-.7.2-1.2h-4.9v-1h5c0-.4 0-.8.1-1.2h-3.5v.5h-1.2v-3.8h4.9v-1.3h-1.8v.5h-1.2v-2.7h-2.7v-1h2.6v-1.4h1.2v1.4h4.7v-1.4zm-6.6 8.3h3.6c0-.4 0-.9 0-1.4h-3.6zm1.9-4.6h4.7v-1.3h-4.7zm6.6 3.2h-3.7v1.4h3.7z" fill="#fbfcfa"/><path d="m385.3 3.8h1.3v2.2h2.8v-2.2h1.3v2.2h4.1v9.1h1.7v1.3h-16.9v-1.3h1.7v-9.1h4.1v-2.2zm.4 13.1.7 1.2c-1.8.9-3.8 1.9-6 2.9-.2-.4-.5-.8-.8-1.3 2.3-1 4.3-1.9 6.1-2.8zm-3.1-6.4h2.8v-3.2h-2.8zm0 4.6h2.8v-3.3h-2.8zm4-4.6h2.8v-3.2h-2.8zm0 4.6h2.8v-3.3h-2.8zm3.7 1.9c2.1.9 4.1 1.8 6.1 2.7l-.7 1.3c-2.2-1.1-4.2-2-6.1-2.9zm3.2-9.7h-2.8v3.2h2.8zm-2.8 7.8h2.8v-3.3h-2.8z" fill="#fbfcfa"/><g fill="#010102"><path d="m136.5 368.71c-3.46-5.71-3.17-11.85-1.52-17.86 7.3-26.48 9.05-53.57 9-80.82-.02-8.76-1.37-17.51-2.12-26.27-.45-.09-.9-.19-1.35-.28-2.24 2.67-4.53 5.29-6.7 8.02-9.9 12.47-16.41 26.88-23.21 41.1-3.8 7.94-8.65 15.44-10.38 24.27-.49 2.52-.95 5.07-1.74 7.51-.54 1.65-1.33 3.42-2.53 4.6-4.53 4.45-9.02 3.2-10.43-2.82-1.61-6.84.61-13.27 3.42-19.14 6.37-13.3 13.44-26.26 20.24-39.35 1.39-2.68 2.96-5.27 4.25-8 3.69-7.8 8.15-14.96 13.95-21.51 6.7-7.59 11.25-16.49 10.05-27.22-.31-2.75-.94-5.47-1.45-8.37-3.69.5-6.54 1.58-8.82 4.45-6.61 8.32-13.29 16.6-20.26 24.62-4.99 5.74-6.57 6.14-14.7 6.43-1.66-3.58-1.3-7.26.43-10.58 3.55-6.82 7-13.64 12.84-19.06 7.3-6.77 14.11-14.07 22.93-18.98 1.65-.92 2.06-1.99 1.26-3.82-2.3-5.25-2.69-11.42-7.6-15.38-.34-.27-.68-.54-.78-.62-7.2 6.61-14.18 13.21-21.39 19.58-6.42 5.67-13.72 9.61-22.52 10.11-4.58.26-6.77-2.14-5.27-6.53.79-2.31 2.22-4.75 4.07-6.28 10.26-8.49 20.74-16.72 31.14-25.04 1.12-.9 2.22-1.82 2.86-2.35-4.09-6.51-8.5-12.47-11.78-19-6.75-13.43-8.34-27.97-7.64-42.81.53-11.26 2.88-22.12 6.89-32.68 1.43-3.77 3.79-6.42 6.94-8.71 9.87-7.2 21.09-11.08 33.06-11.81 12.36-.76 24.8-.42 37.2-.22 4.4.07 8.62 1.59 11.7 5.08 3.24 3.68 3.01 6.11-1.56 7.56-4.47 1.42-9.34 1.81-14.07 2.14-4.99.34-10.02.08-15.52.08.54 5.78 1.08 11.52 1.67 17.82 5.61.32 11.16.61 16.7.95 2.45.15 4.94.19 7.33.68 2.76.57 4.92 2.09 5.51 5.17.6 3.1.03 5.83-3.41 6.45-4.23.76-8.55 1.03-12.85 1.29-3.33.21-6.7-.13-10.01.23-1 .11-2.38 1.57-2.67 2.65-1.5 5.73-2.71 11.53-4.15 17.87 4.28.28 8.37.62 12.47.78 4.13.17 8.29-.03 12.41.28 4.17.32 7.17 2.56 8.16 6.76.22.94-.39 2.6-1.17 3.15-4.35 3.06-9.35 4.09-14.6 3.98-5.69-.11-11.39-.33-17.08-.37-3.14-.02-5.3 1.45-6.89 4.37-4.87 8.94-10.06 17.71-15 26.61-.52.94-.79 2.84-.24 3.43 9 9.76 12.57 22 15.94 34.35 1.17 4.28 2.32 8.56 3.26 12.06 4.2-3.83 8.61-7.77 12.92-11.81 4.36-4.08 8.9-7.77 14.8-9.52 2.52-.75 3.76-.21 4.88 2.23 4.83 10.46 7.5 21.52 9.38 32.79 3.19 19.13 5.31 38.36 4.42 57.81-.46 10.06-1.05 20.11-1.56 30.17-.29 5.7-2.08 10.89-4.77 15.91-1.46 2.73-3.82 2.76-5.98 2.45-1.23-.18-2.61-1.81-3.24-3.12-2.44-5.12-1.66-10.59-.73-15.85 2.45-13.95 3.89-27.95 2.8-42.1-.56-7.24-1.57-14.45-2.39-21.68-.95-8.33-1.69-16.7-3-24.97-.47-2.94-2.09-5.82-3.68-8.43-1.11-1.83-2.87-1.98-4.72-.15-4.86 4.8-9.97 9.33-14.83 14.14-.85.84-1.42 2.55-1.27 3.75 3.22 25.86 3.77 51.84 2.18 77.78-.98 15.93-3.56 31.77-5.9 47.58-1.05 7.11-4.66 12.85-12.52 14.46-.29.06-.62.01-1.06.01zm5.14-275.89c-12.05-.59-23.8-1.17-35.99-1.77.35 7.45.69 14.63 1.03 21.99 10.49-.75 20.61-1.44 30.72-2.26.72-.06 1.83-1.03 1.95-1.71.85-5.26 1.51-10.56 2.29-16.25zm-33.99-14.72c11.77-.6 23.33-1.19 35.35-1.8-.26-4.39-.25-8.42-.81-12.37-.59-4.15-3.32-5.84-7.49-5.18-7.76 1.21-14.68 4.3-21.2 8.71-3.85 2.62-4.99 6.23-5.85 10.64zm11.98 70.07c5.85-6.2 8.21-13.6 12.87-20.57-8.22 0-15.57 0-23.16 0 3.28 6.56 6.52 13.02 10.29 20.57z"/><path d="m284.03 174.71c-7.96 0-15.33.07-22.7-.01-15.89-.18-31.77-.47-47.66-.64-6.58-.07-13.18.24-19.76.05-5.11-.15-8.48-3.49-8.83-8.37-.06-.86.5-2.16 1.19-2.62 2.71-1.8 5.59-2.84 9.07-2.83 31.12.13 62.24.08 93.37.08 7.27 0 14.54-.08 21.81.05 2.2.04 4.47.42 6.58 1.06 2.79.85 4.29 3.01 4.81 5.92.43 2.36-.19 4.17-2.63 4.56-4.06.64-8.16 1.25-12.26 1.35-8.17.21-8.44.06-8.48 8.1-.11 20.14.11 40.29.08 60.43-.02 10.39-1.89 20.47-5.96 30.07-.67 1.57-1.73 3.15-3.01 4.26-9.2 8.02-18.35 16.1-27.83 23.78-3.95 3.2-5.73 7.13-6.93 11.77-2.66 10.23-1.14 20.45-.3 30.7.59 7.25.95 14.52 1.21 21.79.08 2.2-.45 4.44-.87 6.63-.52 2.67-1.92 4.51-4.98 4.44-2.89-.07-4.62-1.13-5.36-4.28-4.69-19.97-7.48-40.04-3.68-60.5.63-3.38 1.66-6.76 3.05-9.9 1-2.25 2.6-4.45 4.48-6.04 5.97-5.06 12.06-10.02 18.36-14.66 11.34-8.34 17.32-19.55 17.71-33.44.45-15.99.37-31.99.32-47.98-.03-7.72-.51-15.42-.8-23.77z"/><path d="m249.15 25c6.85 1.64 9.44 5.62 8.94 12.6-.39 5.43-.48 10.9-.46 16.35.01 3.65 1.92 5.71 5.67 6.66 14.69 3.7 26.74 12.17 37.99 21.88 3.4 2.94 6.25 6.41 7.02 11.13.39 2.42-.19 4.16-2.94 3.98-2.5-.16-5.34-.09-7.4-1.24-9.86-5.49-19.51-11.35-29.22-17.1-2.78-1.65-5.54-3.34-8.73-5.27-.9 4.45-.71 8.46 1.03 12.28 2.33 5.08 4.77 10.1 7.31 15.08.58 1.14 1.66 2.07 2.65 2.95 11.15 9.86 22.29 19.73 33.53 29.49 3.33 2.9 2.91 7.05 4.06 10.67.11.35-.85 1.42-1.44 1.54-2.33.46-4.84 1.25-7.04.8-2.28-.47-4.51-1.97-6.38-3.49-8.26-6.69-16.33-13.61-24.57-20.31-7.94-6.46-14.16-14.23-18.4-23.69-2.49 4.38-4.21 9.08-7.32 12.56-7.35 8.23-15.25 15.99-23.14 23.72-3.5 3.43-7.28 6.71-11.38 9.34-2.35 1.5-5.61 2.15-8.46 2.14-3.65-.01-5.37-3.46-3.64-6.66 1.03-1.91 2.44-3.7 3.99-5.25 10.1-10.13 20.64-19.86 30.31-30.38 6.18-6.72 8.61-15.56 9.65-24.62.12-1.07.02-2.17.02-3.82-6.7 3.74-13.93 5.2-19.59 10.52-4.03 3.78-9.48 6.06-14.32 8.96-.54.32-1.29.34-1.95.39-5.6.43-6.27-.46-6.63-6.02-.25-3.86 1.14-6.05 4.36-8.01 5.73-3.48 11.27-7.29 16.72-11.2 6.23-4.46 12.77-8.23 20.23-10.15 2.43-.63 3.65-2.13 3.92-4.4.39-3.21.77-6.44.74-9.66-.09-7.61.52-14.99 4.87-21.77z"/><path d="m223.08 202.31c10.99.59 21.56 1.16 32.62 1.76 0-3.61-.09-6.94.03-10.26.1-2.9.26-5.82.67-8.69.49-3.44 2.6-5.36 5.72-5.57 3.23-.22 5.29.92 6.49 4.29 2.82 7.93 4.09 16.12 3.61 24.4-.6 10.35-2.05 20.65-3.14 30.97-1.14 10.78-8.43 16.02-17.73 19.06-8.67 2.83-17.2.48-25.74-1.43-5.23-1.17-8.74-4.08-10.27-8.95-2.17-6.88-4.53-13.83-5.53-20.93-1.99-14.26-1.63-28.55 2.17-42.59 1.16-4.3 2.99-5.95 5.87-5.53 4.2.62 6.5 3.3 6.26 7.68-.17 3.01-.78 5.99-1.01 8.99-.15 2.21-.02 4.43-.02 6.8zm.44 15.41c.23 5.35.1 10.29.74 15.14 1.2 9.18 4.28 11.99 13.38 13.18.78.1 1.56.18 2.34.25 8.83.77 14.19-2.85 15.95-11.48.88-4.3 1.04-8.82.91-13.23-.04-1.32-2.12-3.65-3.32-3.69-9.72-.3-19.44-.17-30-.17z"/></g></svg>