<svg enable-background="new 0 0 400 400" viewBox="0 0 400 400" xmlns="http://www.w3.org/2000/svg"><path d="m361.2 9.6.8-1c.9.7 1.9 1.4 2.9 2.3l-.9 1.1c-1-1-2-1.8-2.8-2.4zm.5 10.6c.9-2.1 1.6-4.3 2.3-6.7.4.2.8.4 1.3.6-.7 2.1-1.5 4.3-2.2 6.6zm.4-15.2.9-.9c1 .8 2 1.6 2.8 2.4l-1 1c-.9-.9-1.8-1.7-2.7-2.5zm12.5-1.2h1.2v1.4h2.7v1.1h-2.7v2.7h-1.2v-.6h-1.8v1.3h4.9v3.8h-1.2v-.5h-3.7c0 .4-.1.9-.1 1.2h5.1v1h-5.2c0 .5-.1.9-.2 1.2h6v1h-5.2c1.1 1.3 2.9 2 5.5 2.2-.4.4-.7.8-.9 1.3-2.9-.5-4.8-1.6-5.7-3.5h-.1c-.8 1.7-2.7 2.9-5.9 3.6-.2-.4-.6-.8-.9-1.1 2.8-.6 4.6-1.4 5.4-2.5h-4.8v-1h5.3c.1-.3.2-.7.2-1.2h-4.9v-1h5c0-.4 0-.8.1-1.2h-3.5v.5h-1.2v-3.8h4.9v-1.3h-1.8v.5h-1.2v-2.7h-2.7v-1h2.6v-1.4h1.2v1.4h4.7v-1.4zm-6.6 8.3h3.6c0-.4 0-.9 0-1.4h-3.6zm1.9-4.6h4.7v-1.3h-4.7zm6.6 3.2h-3.7v1.4h3.7z" fill="#fbfcfa"/><path d="m385.3 3.8h1.3v2.2h2.8v-2.2h1.3v2.2h4.1v9.1h1.7v1.3h-16.9v-1.3h1.7v-9.1h4.1v-2.2zm.4 13.1.7 1.2c-1.8.9-3.8 1.9-6 2.9-.2-.4-.5-.8-.8-1.3 2.3-1 4.3-1.9 6.1-2.8zm-3.1-6.4h2.8v-3.2h-2.8zm0 4.6h2.8v-3.3h-2.8zm4-4.6h2.8v-3.2h-2.8zm0 4.6h2.8v-3.3h-2.8zm3.7 1.9c2.1.9 4.1 1.8 6.1 2.7l-.7 1.3c-2.2-1.1-4.2-2-6.1-2.9zm3.2-9.7h-2.8v3.2h2.8zm-2.8 7.8h2.8v-3.3h-2.8z" fill="#fbfcfa"/><g fill="#010102"><path d="m204.36 282.09c-5.55 9.57-8.42 19.38-8.42 29.86-.01 13.32.51 26.63.6 39.95.02 3.32-.63 6.66-1.17 9.96-.48 2.9-2.33 4.44-5.32 4.65-2.81.2-4.41-1.17-5.06-3.75-.87-3.45-2.27-6.91-2.36-10.4-.4-16.11-.91-32.25 1.84-48.24 2.23-12.93 5.86-25.42 11.61-37.29.83-1.72.42-4.38-.17-6.38-2.21-7.38-5.03-14.57-7.08-21.99-4.29-15.49 1.6-26.86 16.84-31.88 7.4-2.44 15.16-3.82 22.8-5.48 1.97-.43 2.59-1.2 2.48-3.11-.13-2.33-.03-4.68-.03-7.29-6.58-1.1-12.92-2.52-19.34-3.14-7.14-.69-11.6-4.71-15.08-10.37-3.69-6-4.74-12.78-5.17-19.59-.37-5.79-.24-11.62 0-17.42.09-2.27.9-4.58 1.73-6.73 1.24-3.2.81-3.86-2.73-4.56-1.83-.37-4.09-1.02-5.15-2.35-2.85-3.55-1.96-6.43 2.01-8.66 2.03-1.14 4.02-2.36 5.73-3.37-.66-3.87-1.39-7.36-1.8-10.87-.25-2.11-1.05-3.14-3.22-3.41-3.74-.47-7.45-1.17-11.55-1.84-.42 4.46-.78 8.67-1.24 12.87-.16 1.43-.34 2.93-.91 4.22-1.34 2.99-4.1 2.97-6.88 2.96-2.56-.01-2.88-2.01-3.15-3.62-.62-3.61-.92-7.28-1.24-10.93-.3-3.44-.39-6.91-.72-10.35-.2-2.06-1.22-3.04-3.59-2.74-5.1.63-10.26.85-15.36 1.49-1.07.14-2.36 1.17-2.94 2.15-2.91 4.95-3.74 10.48-3.95 16.12-.16 4.25-.08 8.51-.28 12.76-.09 2.01.43 3.1 2.56 3.42 6.07.9 12.1 2.15 18.19 2.86 10.49 1.21 18.02 6.46 22.24 16.05 7.91 17.97 9.47 36.62 5.4 55.78-.65 3.05-3.05 3.72-5.57 3.7-2.3-.02-4.36-.74-4.54-3.77-.51-9.02-1.43-18.03-1.64-27.06-.17-6.93-1.28-13.5-3.95-19.9-3.21-7.71-9.64-11.09-17.11-12.5-16.93-3.19-33.61-1.64-49.93 3.89-2.81.95-5.05 2.42-5.8 5.43-1.43 5.7-3.33 11.36-4.05 17.16-1.15 9.31-1.4 18.73-2.23 28.09-.58 6.6-3.78 9.43-8.74 8.32-1.85-.41-2.77-1.31-3.24-3.21-3.25-13.11-2.72-26.19.38-39.2 1.11-4.66 2.73-9.2 4.16-13.79 3.87-12.43 13.79-17.42 25.31-20.21 3.45-.84 7.09-1.03 10.65-1.28 2.22-.15 2.98-1 3.21-3.25.97-9.33 2.17-18.64 3.34-27.94.14-1.09.64-2.14.96-3.21 4.02-13.32 13.31-16.61 25.73-15.14 6.85.81 8.59-.98 7.94-7.75-.65-6.72-5.66-8.5-10.57-10.04-11.6-3.66-23.34-3.7-34.95.2-1.27.43-2.54 1.45-3.37 2.53-4.37 5.65-6.75 12.03-6.73 19.26.02 8.95.07 17.9-.13 26.85-.05 2.39-.39 5.16-1.67 7.01-1.13 1.63-3.66 2.67-5.76 3.14-2.58.59-3.72-1.69-4.25-3.77-1.05-4.1-2.42-8.24-2.62-12.41-.78-15.74 1.97-30.94 7.91-45.57 1.29-3.17 3.4-5.38 6.3-7.1 5.88-3.5 12.23-5.56 19.01-6 11.59-.77 22.97.76 34.31 3.15 4.86 1.02 7.72 3.9 10.29 7.72 5.1 7.58 6.96 16.13 7.94 24.99.15 1.33.39 2.64.64 4.25 3.88-.21 7.66-.32 11.41-.7.66-.07 1.43-1.18 1.78-1.97 1.13-2.55 2.14-5.16 3.11-7.78 2.97-8.02 8.89-12.29 17.13-13.76 6.17-1.09 12.29-2.46 18.48-3.37 3.19-.47 4.61-2.15 4.52-5.03-.12-4.11-.44-8.23-.99-12.31-.6-4.46.15-8.4 3.06-11.94 1.52-1.84 2.74-1.69 4.42-.23 3.91 3.41 4.92 7.78 4.67 12.71-.23 4.46-.33 8.92-.44 13.38-.05 2.16 1.08 2.83 3.2 2.75 11.51-.44 23.04-1.18 34.54-.96 6.15.11 12.26 1.93 18.11 2.93 1.24 4.25.66 7.24-3.32 8.65-7.63 2.69-7.7 8.89-7.2 16.14 4.69.4 9.52.86 14.35 1.2 2.12.15 4.33-.31 6.36.14 2.31.52 4.92 1.24 6.59 2.77 4.34 3.96 3.54 8.31-1.99 9.75-5 1.3-10.38 2.25-15.46 1.82-8.16-.69-14.58.51-17.54 9.15-.14.41-.51.75-.67 1.16-3.2 8.38-10.18 11.94-18.12 14.43-5.43 1.7-10.77 3.72-16.14 5.61-2.03.72-2.92 2.03-2.76 4.32.22 3.11.05 6.25.05 9.9 9.01.6 17.85 1.18 26.96 1.79.74-3.45 1.41-6.71 2.14-9.96.53-2.38 1.39-4.44 4.18-5.09 2.75-.64 4.57-.23 5.82 2.73 4.45 10.5 3.8 21.19 1.67 31.98-.35 1.75-.77 3.5-1.26 5.22-3.45 12.05-10.59 17.7-23.7 18.77-3.46.28-6.92.54-10.38.75-2.5.15-4.17.92-4.25 3.9-.06 2.18-.69 4.34-1.09 6.71 7.43 0 14.57.06 21.71-.01 10.74-.11 21.48-.44 32.22-.4 3.07.01 6.19.79 9.19 1.59 2.52.67 3.81 2.57 3.58 5.35-.15 1.88-.78 3.04-2.88 3.41-4.84.86-9.62 2.12-14.47 2.88-2.7.42-3.44 1.61-3.34 4.19.19 4.58.05 9.18.05 13.77 0 9.49-5.01 16.35-14.18 19.04-7.18 2.11-14.44 3.97-21.65 5.96-.74.2-1.45.5-2.59.9 4.19 2.55 8.18 4.72 11.88 7.3 5.13 3.58 10.13 7.36 15 11.28 4.64 3.73 5.42 8.78 4.03 14.29-1.89 7.51-5.56 14.19-10.4 20.11-5.09 6.23-7.01 12.84-4.37 20.58.25.74.44 1.5.63 2.26 1.62 6.56 4.75 12 10.01 16.57 4.14 3.6 7.4 8.27 10.77 12.68.81 1.06 1.19 3.79.55 4.34-1.46 1.25-3.88 2.53-5.52 2.14-3.17-.75-6.59-2.06-8.99-4.18-7.66-6.78-14.03-14.68-18.94-23.76-5.64-10.42-4.63-20.76.28-30.9 2.21-4.55 5.36-8.67 8.29-12.85 2.61-3.73 4.7-7.56 4.95-12.24.1-1.83-.43-2.96-2.21-3.56-1.16-.39-2.21-1.09-3.35-1.52-9.97-3.83-18.68-9.52-25.84-17.47-1.55-1.72-2.89-1.78-4.92-.8-4.53 2.18-9.14 4.23-13.83 6.01-2.41.92-3.21 2.36-2.47 4.56 1.5 4.42 2.84 8.96 4.91 13.12 4.24 8.49 8.96 16.75 13.4 25.15.72 1.36 1.21 2.9 1.53 4.41.64 3.12-.85 5.86-3.5 6.82-3.2 1.16-5.47.33-7.23-2.68-6.93-11.86-13.79-23.65-20.89-35.83zm4.85-25.93c7.23-3.56 14.05-6.88 20.81-10.32.82-.42 1.85-1.56 1.81-2.33-.43-9.14-1.05-18.27-1.63-27.64-8.35 1.28-16.51 1.78-23.76 6.16-3.25 1.96-4.88 4.61-5.24 8.37-.94 9.64 3.7 17.44 8.01 25.76zm35.4-14.31c10.79-.44 20.35-3.42 29.2-8.73.59-.35 1.1-1.19 1.23-1.88.62-3.16 1.39-6.34 1.56-9.53.27-5.1-1.48-7.02-6.53-7.96-9.25-1.72-18.04 1.42-27.24 2.11.61 8.82 1.18 17.14 1.78 25.99zm-.9-65.21c2.67 0 5.01.08 7.33-.02 2.78-.11 5.59-.18 8.34-.61 7.96-1.23 12.03-7.28 9.76-14.87-.48-1.59-2.46-3.8-3.85-3.88-7.15-.39-14.33-.18-21.58-.18zm.09-108.22v14.86c10.09-.35 19.95-.7 29.91-1.05 0-4.84 0-9.25 0-13.81-10.02 0-19.82 0-29.91 0zm-37.91 89.18c1 4.92 1.95 9.85 3.06 14.73.15.65 1.08 1.56 1.71 1.61 6.63.52 13.28.9 20.01 1.32 0-5.98 0-11.61 0-17.66-8.25 0-16.27 0-24.78 0zm24.9-57.87c-8.37 0-16.46 0-24.89 0 .83 5.04 1.7 10.39 2.53 15.43h22.36c0-5.23 0-9.9 0-15.43zm-28.21 31.16c1.18 4.95 2.2 9.25 3.24 13.64 8.55-.61 16.73-1.19 25.17-1.78-.29-5.02-.56-9.56-.84-14.31-9.28.82-18.25 1.62-27.57 2.45zm1.11-48.33c7.03 0 14.12.17 21.21-.05 6.69-.21 7.03-.79 6.58-7.68-.29-4.4-2.53-6.35-6.82-5.47-4.35.89-8.61 2.2-12.93 3.27-5.4 1.33-8.52 4.41-8.04 9.93zm40.04 32.51c8.52-1.9 16.55-3.74 22.89-9.72 1.94-1.83 2.65-3.68 1.67-6.2-8.21 0-16.31 0-24.56 0z"/><path d="m108.23 198.1c8 4.24 15.62 8.45 23.4 12.34 8.45 4.23 13.72 10.88 16.25 19.87 1.02 3.62-1.47 6.57-5.15 5.56-2.48-.68-5.04-2.01-6.92-3.75-8.13-7.5-17.25-13.49-27.02-18.57-.57-.3-1.19-.52-2.11-.92-.81 8.15-1.59 16-2.4 24.16 17.88 5.59 34.66 12.49 40.94 32.46-3.82 3.91-6.88 3.69-11.87-.22-5.71-4.47-11.54-8.81-17.57-12.83-2.72-1.82-6.04-2.74-9.74-4.35 1.48 8.49 2.38 16.38 4.32 24.01 1.81 7.1 4.65 13.95 7.19 20.86.94 2.55 1.8 4.97-.63 7.04-1.84 1.56-6.25.85-8.19-1.71-2.54-3.36-5.17-6.87-6.71-10.74-14.97-37.68-15.35-75.41.83-112.82 1.65-3.82 5.87-6.55 8.95-9.74.69-.72 1.59-1.24 2.39-1.84 3.75-2.78 7.56-4.92 12.62-3.7 3.01.73 6.25.47 9.33.97 1.69.27 3.48.9 4.88 1.87 16.47 11.44 24.09 28.08 27.08 47.19 2.62 16.72 2.66 33.46-1.69 49.97-2.55 9.68-6.24 18.77-12.97 26.53-12.71 14.65-15.79 31.99-12.86 50.63 1.37 8.72 3.46 17.32 5.13 25.99.26 1.37.26 2.88-.03 4.25-.45 2.16-.91 4.54-3.93 4.63-3.46.1-6.12-1.74-7.15-4.63-5.56-15.63-8.6-31.7-8.36-48.32.2-13.56 4.49-25.58 13.36-36 11.85-13.92 16.94-30.29 16.57-48.4-.39-18.75-4.71-36.52-13.86-53.01-4.09-7.37-15.56-10.57-22.67-5.99-1.6 1.03-2.82 2.9-3.78 4.62-2.58 4.66-4.96 9.46-7.63 14.59z"/></g></svg>