<svg enable-background="new 0 0 400 400" viewBox="0 0 400 400" xmlns="http://www.w3.org/2000/svg"><path d="m361.2 9.6.8-1c.9.7 1.9 1.4 2.9 2.3l-.9 1.1c-1-1-2-1.8-2.8-2.4zm.5 10.6c.9-2.1 1.6-4.3 2.3-6.7.4.2.8.4 1.3.6-.7 2.1-1.5 4.3-2.2 6.6zm.4-15.2.9-.9c1 .8 2 1.6 2.8 2.4l-1 1c-.9-.9-1.8-1.7-2.7-2.5zm12.5-1.2h1.2v1.4h2.7v1.1h-2.7v2.7h-1.2v-.6h-1.8v1.3h4.9v3.8h-1.2v-.5h-3.7c0 .4-.1.9-.1 1.2h5.1v1h-5.2c0 .5-.1.9-.2 1.2h6v1h-5.2c1.1 1.3 2.9 2 5.5 2.2-.4.4-.7.8-.9 1.3-2.9-.5-4.8-1.6-5.7-3.5h-.1c-.8 1.7-2.7 2.9-5.9 3.6-.2-.4-.6-.8-.9-1.1 2.8-.6 4.6-1.4 5.4-2.5h-4.8v-1h5.3c.1-.3.2-.7.2-1.2h-4.9v-1h5c0-.4 0-.8.1-1.2h-3.5v.5h-1.2v-3.8h4.9v-1.3h-1.8v.5h-1.2v-2.7h-2.7v-1h2.6v-1.4h1.2v1.4h4.7v-1.4zm-6.6 8.3h3.6c0-.4 0-.9 0-1.4h-3.6zm1.9-4.6h4.7v-1.3h-4.7zm6.6 3.2h-3.7v1.4h3.7z" fill="#fbfcfa"/><path d="m385.3 3.8h1.3v2.2h2.8v-2.2h1.3v2.2h4.1v9.1h1.7v1.3h-16.9v-1.3h1.7v-9.1h4.1v-2.2zm.4 13.1.7 1.2c-1.8.9-3.8 1.9-6 2.9-.2-.4-.5-.8-.8-1.3 2.3-1 4.3-1.9 6.1-2.8zm-3.1-6.4h2.8v-3.2h-2.8zm0 4.6h2.8v-3.3h-2.8zm4-4.6h2.8v-3.2h-2.8zm0 4.6h2.8v-3.3h-2.8zm3.7 1.9c2.1.9 4.1 1.8 6.1 2.7l-.7 1.3c-2.2-1.1-4.2-2-6.1-2.9zm3.2-9.7h-2.8v3.2h2.8zm-2.8 7.8h2.8v-3.3h-2.8z" fill="#fbfcfa"/><g fill="#010102"><path d="m239.85 209.24c-9.14 0-18.15-.04-27.16.01-21.13.11-42.3 1.84-63.36-.9-6.73-.88-13.45-2.39-19.97-4.32-11.67-3.46-18.32-11.62-19.93-23.64-1.23-9.18-2.51-18.38-2.98-27.61-.51-10.05-.3-20.15-.07-30.22.3-12.96 1.01-25.92 1.42-38.88.32-9.94.44-19.88.72-29.81.04-1.55.47-3.09.73-4.63.62-3.69 2.9-5.72 6.67-5.43 1.15.09 2.96 1.09 3.2 2 1.16 4.48 2.71 9.08 2.65 13.62-.4 32.33-1.31 64.66-1.68 96.99-.08 6.88 1 13.85 2.2 20.66 1.23 7.02 6.85 10.62 12.67 14.3 1.49-2.35 2.87-4.48 4.21-6.63 14.63-23.57 29.23-47.15 43.93-70.68 1.25-2.01 1.28-3.29-.23-5.22-13.44-17.19-26.71-34.52-40.13-51.73-3.16-4.06-6.7-7.81-10.03-11.74-3.18-3.75-5.51-7.88-5.44-13.01.04-3.02 2.09-5.06 5.06-4.46 2.68.54 5.15 1.41 7.11 3.9 16.71 21.31 33.59 42.5 50.42 63.72.75.94 1.54 1.85 2.53 3.05.85-1.24 1.55-2.22 2.2-3.23 12.82-19.95 25.56-39.95 38.52-59.8 2.1-3.22 5.15-5.82 7.83-8.65 2.13-2.25 4.49-1.56 6.68-.15 2.21 1.43 2.66 3.75 1.69 5.94-2.07 4.69-4.07 9.48-6.79 13.8-13.01 20.63-26.22 41.12-39.43 61.62-1.1 1.7-1.38 2.87-.01 4.68 18.73 24.7 37.37 49.46 56.04 74.21.46.61 1.01 1.16 1.56 1.79 6.37-6.18 10.28-13.51 10.41-22.3.24-16.55.31-33.11.02-49.66-.38-21.59-1.19-43.17-1.76-64.76-.06-2.22 0-4.53.51-6.67.48-2.01 1.31-4.11 2.57-5.72 3.21-4.08 6.88-3.86 8.65.9 1.68 4.51 2.65 9.43 3.03 14.24.98 12.25 1.47 24.53 2.13 36.81 1.42 26.4 2.45 52.81-2.41 78.99-1.18 6.34-3.47 12.46-5.25 18.69-1.73 6.05-6.19 9.35-11.73 11.47-1.87.72-3.79 1.43-5.75 1.81-5.24 1.01-7.67 4.57-8.81 9.34-.73 3.04-1.41 6.1-1.98 9.17-2.6 13.92-9.24 20-23.39 21.52-4.11.44-8.18 1.17-12.27 1.82-.86.14-1.68.5-2.69.81.08.77.06 1.43.22 2.04 7.18 27.36 18.81 52.8 33.44 76.9 1.71 2.81 4.61 4.86 6.68 7.48 5.53 7 11.06 14 16.24 21.25 1.48 2.07 2.02 4.95 2.53 7.55.7 3.54-2.69 6.61-6.15 5.49-2.14-.69-4.35-1.91-5.91-3.51-18.03-18.45-31.05-40.33-42.98-62.96-8.02-15.22-12.06-31.95-18.05-47.94-1.01-2.7-2.11-3.75-5.13-3.74-12.69.01-25.15 1.04-37.51 4.45-8.49 2.34-12.18 8.51-15.24 15.56-5.71 13.15-4.5 26.36 1.2 39.05 7.65 17.01 16.01 33.7 23.85 50.62 1.76 3.8 2.8 7.97 3.86 12.05.54 2.09.38 4.65-2.27 5.23-2.64.58-5.73 1.14-7.53-1.91-4.44-7.51-9.05-14.93-13.1-22.64-7.95-15.14-16.11-30.24-20.48-46.91-1.63-6.23-3.2-12.76-3.04-19.11.18-7.02 2.61-13.96 3.65-21 .9-6.1 4.32-10.09 8.92-13.84 10.41-8.46 22.03-12.89 35.47-14.24 19.56-1.97 38.99-5.22 58.47-7.99.89-.13 2.1-.63 2.46-1.32 2.95-5.63 5.71-11.34 8.29-16.57zm-89.93-15.11c32.55-.84 64.23 3.22 96.13-2.25-17.35-22.72-34.5-45.17-51.89-67.94-14.68 23.29-29.14 46.23-44.24 70.19z"/><path d="m250.5 109.13c0 8.72-.07 17.44.04 26.16.03 2.75-1.56 4.14-3.75 4.21-2.26.07-5.24.17-5.85-3.11-3.36-18.16-4.66-36.37-.75-54.63.55-2.59 1.62-5.12 2.84-7.48.41-.8 2.13-1.51 3.08-1.33 3.91.74 6 4.19 6.07 10 .11 8.72.03 17.45.03 26.17-.58.01-1.15.01-1.71.01z"/><path d="m142.57 79.5c5.57 2.38 7.15 6.2 6.92 12.01-.65 16.74-.61 33.52-.69 50.28-.02 3.37-2.3 4.45-4.63 4.56-2.23.1-4.75-.36-5.53-3.62-2.93-12.29-3.64-24.73-2.75-37.28.45-6.34 1.49-12.64 1.94-18.98.25-3.46 2.02-5.49 4.74-6.97z"/><path d="m194.65 39.72c4.14 0 8.29-.22 12.4.06 4.2.28 7.79 1.9 9.69 6.1.92 2.04.97 3.82-1.4 4.62-4.71 1.58-9.41 3.56-14.28 4.28-8.13 1.2-16.27.24-24.24-1.91-2.94-.79-4.79-2.52-5.01-5.5-.26-3.54 1.22-5.57 4.93-6.21 5.9-1.02 11.88-1.62 17.83-2.4.03.32.06.64.08.96z"/><path d="m193.34 163.68c5.76.6 11.55.98 17.26 1.9 3.05.49 5.56 2.29 6.23 5.77.41 2.13-.06 3.49-2.27 4.45-8.47 3.66-17.35 4.11-26.3 3.26-4.39-.42-8.7-1.79-13.01-2.9-3.69-.96-2.27-4.38-2.73-6.73-.17-.87 1.14-2.66 2.13-3 2.99-1.03 6.12-1.84 9.26-2.2 3.09-.36 6.25-.08 9.38-.08.02-.17.03-.32.05-.47z"/></g></svg>