<svg enable-background="new 0 0 400 400" viewBox="0 0 400 400" xmlns="http://www.w3.org/2000/svg"><path d="m361.2 9.6.8-1c.9.7 1.9 1.4 2.9 2.3l-.9 1.1c-1-1-2-1.8-2.8-2.4zm.5 10.6c.9-2.1 1.6-4.3 2.3-6.7.4.2.8.4 1.3.6-.7 2.1-1.5 4.3-2.2 6.6zm.4-15.2.9-.9c1 .8 2 1.6 2.8 2.4l-1 1c-.9-.9-1.8-1.7-2.7-2.5zm12.5-1.2h1.2v1.4h2.7v1.1h-2.7v2.7h-1.2v-.6h-1.8v1.3h4.9v3.8h-1.2v-.5h-3.7c0 .4-.1.9-.1 1.2h5.1v1h-5.2c0 .5-.1.9-.2 1.2h6v1h-5.2c1.1 1.3 2.9 2 5.5 2.2-.4.4-.7.8-.9 1.3-2.9-.5-4.8-1.6-5.7-3.5h-.1c-.8 1.7-2.7 2.9-5.9 3.6-.2-.4-.6-.8-.9-1.1 2.8-.6 4.6-1.4 5.4-2.5h-4.8v-1h5.3c.1-.3.2-.7.2-1.2h-4.9v-1h5c0-.4 0-.8.1-1.2h-3.5v.5h-1.2v-3.8h4.9v-1.3h-1.8v.5h-1.2v-2.7h-2.7v-1h2.6v-1.4h1.2v1.4h4.7v-1.4zm-6.6 8.3h3.6c0-.4 0-.9 0-1.4h-3.6zm1.9-4.6h4.7v-1.3h-4.7zm6.6 3.2h-3.7v1.4h3.7z" fill="#fbfcfa"/><path d="m385.3 3.8h1.3v2.2h2.8v-2.2h1.3v2.2h4.1v9.1h1.7v1.3h-16.9v-1.3h1.7v-9.1h4.1v-2.2zm.4 13.1.7 1.2c-1.8.9-3.8 1.9-6 2.9-.2-.4-.5-.8-.8-1.3 2.3-1 4.3-1.9 6.1-2.8zm-3.1-6.4h2.8v-3.2h-2.8zm0 4.6h2.8v-3.3h-2.8zm4-4.6h2.8v-3.2h-2.8zm0 4.6h2.8v-3.3h-2.8zm3.7 1.9c2.1.9 4.1 1.8 6.1 2.7l-.7 1.3c-2.2-1.1-4.2-2-6.1-2.9zm3.2-9.7h-2.8v3.2h2.8zm-2.8 7.8h2.8v-3.3h-2.8z" fill="#fbfcfa"/><g fill="#010102"><path d="m121.24 191.56c-8.87 10.25-17.04 20.76-27.31 29.31-4.2 3.5-9.31 5.22-14.89 5.38-2.33.06-4.51-.25-5.14-2.69-.64-2.48-.7-5.1 1.75-7.01 4.68-3.64 9.21-7.49 13.99-11 11.98-8.8 20.09-20.55 26.27-33.82 1.36-2.93 2.59-5.92 4.03-9.21-2.15-.75-4.1-1.43-6.06-2.1-13.43-4.58-21.13-14.25-24.07-27.78-4.04-18.62-2.79-37.05 4.38-54.67 1.57-3.86 6.18-7.2 10.19-9.16 5.41-2.65 11.49-4.23 17.45-5.36 9.23-1.75 9.22-1.43 9.43-10.87.17-7.7.5-15.4.84-23.09.06-1.3.55-2.59.84-3.84 6.8.63 10.78 4.73 11.06 11.79.14 3.44-.72 6.91-.69 10.36.04 4.22.43 8.45.87 12.65.26 2.47 1.82 4 4.34 4.45 2.09.37 4.16 1.03 6.25 1.12 9.47.42 16.14 4.98 20.77 13.14 3.95 6.96 6.13 14.41 6.66 22.3.86 12.85-.06 25.6-4.98 37.62-5.12 12.53-14.95 20.03-27.81 23.58-4.62 1.27-9.46 1.77-14.12 2.92-1.31.32-2.89 1.43-3.43 2.6-2.46 5.37-3.52 10.36 1.24 15.69 9.18 10.29 10.44 22.39 4.89 34.75-3.32 7.38-7.17 14.78-12.1 21.14-14.7 18.96-19.36 40.3-17.54 63.73 1.65 21.22 4.07 42.31 8.16 63.2.53 2.72 1.14 6.07-1.82 7.58-2.04 1.04-4.83.94-7.25.78-1.01-.07-2.19-1.43-2.84-2.49-3.31-5.37-4.18-11.46-5.08-17.58-2.88-19.61-5.59-39.22-4.94-59.13.55-16.92 3.56-33.33 9.46-49.2.38-1.01 1.09-1.91 1.74-2.81 5.69-7.87 11.42-15.71 17.08-23.59.77-1.08 1.29-2.35 1.86-3.56 3.06-6.48 4.33-12.88-.36-19.29-1.38-1.87-2.22-4.11-3.12-5.84zm17.72-42.37c8.35.89 15.55-1.28 20.93-7.26 5.14-5.71 7.24-13.01 7.57-20.62.09-2.07-.86-4.71-3.72-4.78-6.23-.16-12.46-.05-18.86-.05-1.99 11.05-3.94 21.78-5.92 32.71zm-13.67-1.48c1.02-10.31 2.03-20.58 3.06-31.03-8.72 0-16.92 0-25.07 0-1.51 6.61.53 14.74 4.38 21.27 3.96 6.67 9.95 9.15 17.63 9.76zm4.08-72.18c-7.02 2.15-13.39 3.96-19.65 6.12-1.41.49-3.1 1.99-3.47 3.35-1.56 5.79-2.68 11.7-4.05 17.98 9.88-.38 19.36-.75 29-1.12-.61-8.78-1.18-16.89-1.83-26.33zm16.61 27.38c5.86-.26 11.74-.52 17.62-.77.45-.02.96.09 1.32-.1.7-.37 1.71-.78 1.9-1.39 1.51-4.82-1.44-14.24-5.82-16.83-4.51-2.67-9.48-4.58-15.02-7.18z"/><path d="m235.83 349.63c4.92.37 9.44.71 14.04 1.05 0-3.8.06-7.35-.01-10.89-.48-23.28-1.04-46.56-1.46-69.83-.14-7.66 1.22-15.09 3.71-22.39 3.27-9.58 10.34-14.77 19.72-16.04 9.71-1.31 19.61-1.33 29.44-1.5 3.27-.06 6.6 1.04 9.84 1.86 2.66.67 4.06 2.62 4.26 5.39.18 2.42-.57 4.29-3.22 4.62-5.87.74-11.75 1.35-17.63 2.01-2.32.26-4.65.49-7.54.8.42 5.83.8 11.47 1.24 17.1 1.47 18.41 3.06 36.81 4.38 55.23.37 5.09.28 10.26-.12 15.36-.34 4.31-2.53 6.37-5.84 6.67-2.1.19-3.8-.26-4.26-2.67-1.73-8.97-4.3-17.88-5.02-26.94-1.32-16.61-1.54-33.3-2.25-49.96-.12-2.79-.05-5.68-.77-8.33-.41-1.53-1.98-3.19-3.46-3.87-2.02-.93-3.41.69-4.46 2.47-2.87 4.89-3.9 10.28-3.88 15.79.07 12.75.29 25.51.74 38.25.5 13.98 1.45 27.95 1.96 41.93.12 3.3 1.25 4.53 4.49 4.51 11.29-.07 22.58-.13 33.86.13 3.51.08 7.09.88 10.44 1.96 1.74.56 3.43 2.19 4.51 3.76 2.88 4.19 1.96 6.75-2.71 8.6-6.3 2.5-12.89 2.33-19.51 2.19-20.47-.45-40.94-1.04-61.41-1.06-17.22-.02-34.44.91-51.67.9-5.94 0-11.88-1.56-17.83-2.41-2.38-.34-2.99-1.81-2.81-4.05.18-2.31.04-4.65.04-6.94 19.44-5.88 39.21-.48 58.78-3.96.42-7.66.61-15.47 1.33-23.24.76-8.23 2.16-16.4 3.02-24.62 1.64-15.62 2.46-31.21-.79-46.8-.72-3.46-2.11-5.31-5.47-5.98-1.74-.35-3.4-1.08-5.66-1.83-.28 3.03-.56 5.84-.79 8.66-1.69 20.86-3.33 41.73-5.08 62.58-.46 5.44-.93 10.92-1.98 16.26-.9 4.59-4.28 5.91-8.3 3.51-1.18-.71-2.28-2.56-2.36-3.96-.54-9.25-1.48-18.56-.98-27.78 1.01-18.54 2.75-37.05 4.47-55.54.33-3.55-1.3-4.79-4.03-5.18-2.51-.36-5.17.22-7.66-.21-2.04-.35-4.49-1.07-5.79-2.5-2.75-3.05-2.1-5.28 1.4-7.44 5.31-3.28 11.26-4.31 17.32-4.53 8.32-.3 16.51.69 24.4 3.58 4.15 1.52 7.28 3.94 9.41 7.98 4.87 9.25 6.49 19.23 6.96 29.46.8 17.38-.55 34.65-2.86 51.88-1.11 8.39-1.42 16.91-2.15 25.96z"/><path d="m224.13 128.27c-3.73-.75-7.83-1.73-11.99-2.39-12.48-1.98-17.66-7.01-18.75-19.71-1.45-16.89 1.16-33.46 5.09-49.86.76-3.17 3.24-2 5.11-2.45 1.82-.44 2.86.27 3.55 2.05 3.43 8.92 2.95 17.98 1.19 27.11-1.48 7.72-2.54 15.44-1.32 23.33.65 4.21 3.1 6.7 7.04 7.54 3.34.71 6.79.86 10.76 1.32 1.14-9.05 2.34-17.54 3.25-26.07.51-4.78.61-9.6.81-14.41.52-12.67 6.71-20.17 18.98-23.57 9.81-2.73 19.73-2.28 29.66-1.75 6.13.33 12.26.97 18.33 1.84 2.11.3 4.25 1.44 6.03 2.69 2.23 1.57 2.42 3.99 1.86 6.65-.61 2.87-2.83 2.13-4.51 2.24-8.7.57-17.42.97-26.13 1.45-.99.05-1.97.21-3.28.36.3 4.91.51 9.68.98 14.43.07.65 1.42 1.58 2.27 1.69 7.76.97 15.56 1.7 23.32 2.71 2.51.33 5.12.93 7.36 2.05 1.66.83 3.25 2.49 4.05 4.18 1.11 2.35.85 4.55-2.22 5.94-5.68 2.57-11.6 3.53-17.65 2.78-5.97-.73-11.95-1.8-17.74-3.38-9.33-2.55-13.41-8.97-12.76-18.76.19-2.9.17-5.81.16-8.72 0-.87-.29-1.75-.52-3.01-3.13.51-6.2.88-9.2 1.58-.74.17-1.54 1.31-1.79 2.16-1.75 5.86-4.1 11.67-4.85 17.67-1.04 8.3-.8 16.75-1.21 25.14-.1 2.1.68 2.84 2.71 3.31 9.45 2.2 18.91.98 28.41.58 4.53-.19 9.16.32 13.64 1.11 12.84 2.29 17.31 12.35 17.76 21.11 1.03 19.99 1.36 40.02 1.51 60.04.04 5.4-1.6 10.81-2.44 16.22-.43 2.77-2.42 3.7-4.79 3.71-2.38.01-4.51-.5-5.34-3.45-3.14-11.17-2.98-22.55-2.64-33.99.33-11.07.35-22.16.41-33.24.01-2.11-.29-4.25-.74-6.32-1.57-7.27-3.93-9.9-11.37-10.45-12.24-.91-24.52-1.15-37.05-1.69-.63 5.81-1.2 10.98-1.84 16.9 7.55 0 14.77-.03 22 .01 5.12.03 10.29-.26 15.35.33 4.68.55 7.8 3.52 8.75 8.6-5.44 3.36-11.34 4.67-17.57 4.9-8.83.33-17.65.72-26.47 1.09-.54.02-1.08.14-1.97.26.89 6.51 1.68 12.9 2.7 19.25.14.87 1.31 1.72 2.19 2.28 4.73 3.03 9.99 4.4 15.57 4.53 2.91.07 5.84-.18 8.73.08 2.3.21 4.69.66 6.79 1.58 3.18 1.4 6.19 3.99 5.96 7.38-.11 1.62-3.76 3.39-6.11 4.4-7.25 3.12-14.73 1.9-22.1.35-3.49-.73-6.93-1.76-10.31-2.91-9.83-3.32-15.2-10.94-15.43-21.38-.09-4.01-.29-8.05-.86-12.02-.53-3.68-2.29-5.3-5.98-4.79-5.28.73-10.48 2.13-15.65 3.51-.96.26-1.74 1.67-2.35 2.7-3.59 6.11-4.24 12.76-4.06 19.74.23 8.93-.08 17.87-.4 26.8-.07 2.05-.63 4.43-1.83 6-1.1 1.44-3.27 2.34-5.14 2.83-2.13.57-3.67-.82-4.2-2.9-.96-3.78-2.3-7.56-2.52-11.4-.8-14.28.84-28.32 4.37-42.22 1.72-6.75 5.79-10.9 11.86-13.47 6.21-2.63 12.62-4.53 19.49-4.26 1.53.06 3.06.01 5.08.01 0-6.07 0-11.73 0-17.95z"/><path d="m155.82 186.31c7.3 1.66 10.9 6.63 12.35 13.09 2.55 11.32 3.51 22.94 1.12 34.29-1.36 6.49-4.4 12.66-8.87 18.14-5.4 6.62-10.17 13.84-14.47 21.23-2.94 5.05-2.87 10.96-1.15 16.65 2.04 6.7 11.29 10.66 16.93 6.64 4.74-3.39 5.96-8.95 5.63-14.67-.08-1.42-.56-2.85-1-4.22-2.36-7.48.37-12 8.41-13.51 7.75 11.97 9.95 24.38 2.85 37.53-3.49 6.46-12.34 10.76-19.63 9.51-2.86-.49-5.71-1.1-8.51-1.83-11.31-2.96-17.81-10.5-19.43-22.21-1.26-9.14.8-17.54 5.43-25.38.72-1.22 1.81-2.25 2.83-3.27 8.47-8.47 14.63-18.23 17.58-29.98 1.91-7.59.98-14.86-1.52-22.06-2.15-6.2-2.01-12.28.57-18.31.23-.51.53-.98.88-1.64z"/></g></svg>