<svg enable-background="new 0 0 400 400" viewBox="0 0 400 400" xmlns="http://www.w3.org/2000/svg"><path d="m361.2 9.6.8-1c.9.7 1.9 1.4 2.9 2.3l-.9 1.1c-1-1-2-1.8-2.8-2.4zm.5 10.6c.9-2.1 1.6-4.3 2.3-6.7.4.2.8.4 1.3.6-.7 2.1-1.5 4.3-2.2 6.6zm.4-15.2.9-.9c1 .8 2 1.6 2.8 2.4l-1 1c-.9-.9-1.8-1.7-2.7-2.5zm12.5-1.2h1.2v1.4h2.7v1.1h-2.7v2.7h-1.2v-.6h-1.8v1.3h4.9v3.8h-1.2v-.5h-3.7c0 .4-.1.9-.1 1.2h5.1v1h-5.2c0 .5-.1.9-.2 1.2h6v1h-5.2c1.1 1.3 2.9 2 5.5 2.2-.4.4-.7.8-.9 1.3-2.9-.5-4.8-1.6-5.7-3.5h-.1c-.8 1.7-2.7 2.9-5.9 3.6-.2-.4-.6-.8-.9-1.1 2.8-.6 4.6-1.4 5.4-2.5h-4.8v-1h5.3c.1-.3.2-.7.2-1.2h-4.9v-1h5c0-.4 0-.8.1-1.2h-3.5v.5h-1.2v-3.8h4.9v-1.3h-1.8v.5h-1.2v-2.7h-2.7v-1h2.6v-1.4h1.2v1.4h4.7v-1.4zm-6.6 8.3h3.6c0-.4 0-.9 0-1.4h-3.6zm1.9-4.6h4.7v-1.3h-4.7zm6.6 3.2h-3.7v1.4h3.7z" fill="#fbfcfa"/><path d="m385.3 3.8h1.3v2.2h2.8v-2.2h1.3v2.2h4.1v9.1h1.7v1.3h-16.9v-1.3h1.7v-9.1h4.1v-2.2zm.4 13.1.7 1.2c-1.8.9-3.8 1.9-6 2.9-.2-.4-.5-.8-.8-1.3 2.3-1 4.3-1.9 6.1-2.8zm-3.1-6.4h2.8v-3.2h-2.8zm0 4.6h2.8v-3.3h-2.8zm4-4.6h2.8v-3.2h-2.8zm0 4.6h2.8v-3.3h-2.8zm3.7 1.9c2.1.9 4.1 1.8 6.1 2.7l-.7 1.3c-2.2-1.1-4.2-2-6.1-2.9zm3.2-9.7h-2.8v3.2h2.8zm-2.8 7.8h2.8v-3.3h-2.8z" fill="#fbfcfa"/><g fill="#010102"><path d="m139.06 318.1c-8.09 9.3-15.79 18.92-24.32 27.72-7.07 7.28-15.05 13.7-22.79 20.31-4.16 3.56-8.96 4.16-14.01 1.86.21-5.26 2.07-9.23 6.14-12.78 9.44-8.23 18.51-16.89 27.45-25.67 7.96-7.82 13.04-17.51 16.74-27.96.29-.82.42-1.73.47-2.61.54-9.61.98-19.22 1.61-28.82.12-1.89-.38-2.86-2.13-3.54-3.12-1.21-6.07-2.93-9.25-3.88-12.03-3.61-19.19-12.04-23.93-23.17-7.01-16.45-8.38-33.75-7.86-51.31.42-14.02 2.48-27.76 6.5-41.29 2.56-8.61 8.2-13.8 15.92-16.79 5.65-2.19 11.79-3.21 17.77-4.44 2.09-.43 3.61-.81 3.74-3.21.01-.22.14-.43.16-.65.65-10.48 6.51-18.57 12.32-26.66.72-1 2-1.74 3.17-2.24 8.5-3.59 17.56-4.07 26.59-4.77 6.56-.5 9.6-3.93 9.56-10.48-.06-10.53-5.52-16.53-16.74-17.75-5.54-.61-11.16-.6-16.75-.63-.9 0-2.3 1.11-2.62 2.01-1.44 3.99-2.42 8.14-3.86 12.12-1.86 5.12-5.08 8.96-10.35 11.19-7.71 3.27-15.17 7.14-22.85 10.48-3.23 1.41-5.67 3.36-7.4 6.4-1.27 2.23-2.7 4.38-4.22 6.46-2.15 2.93-5.25 3.86-8.61 2.5-.89-.36-1.94-1.35-2.13-2.22-.4-1.81-.82-3.91-.28-5.59 2.27-7.14 4.69-14.34 11.98-18.17 6.32-3.32 12.66-6.61 19.1-9.69 7.39-3.53 11.62-8.2 13.92-16.24-1.05-.42-2.17-.79-3.22-1.3-8.31-4.09-16.81-7.85-24.84-12.43-7.09-4.04-9.38-10.2-7.58-16.62.64-2.27 1.76-3.39 4.04-2.34 2.92 1.34 6.62 2.19 8.45 4.48 7.95 9.93 18.75 11.98 30.47 12.76 12.16.81 24.28 2.23 36.4 3.51 5.28.56 8.85 4.27 12.13 7.83 6.61 7.16 11.45 15.24 9.99 25.62-.71 4.99-2.61 9.35-6.46 12.88-7.7 7.06-16.18 11.89-27.1 10.96-1.98-.17-4.03.07-6.02.32-5.4.67-8.36 3.29-9.75 8.46-.99 3.67-1.97 7.33-3.14 11.71 4.8 1.06 9.48 2.4 14.25 3.08 13.39 1.9 21.6 9.86 24.56 22.45 5.46 23.19 8.49 46.67 4.33 70.51-1.68 9.65-4.72 18.87-9.61 27.38-1.23 2.15-3.56 3.65-5.26 5.55-6.08 6.82-13.45 11.27-22.62 12.4-2.62.32-3.2 1.63-2.96 4.07 1.17 12 1.47 24.15 3.53 35.99 1.91 10.99 6.92 20.82 15.79 28.43 6.44 5.52 12.45 11.6 18.22 17.83 2.59 2.79 4.56 6.39 5.99 9.96 2.02 5.02-1.43 8.7-6.84 7.51-1.85-.4-3.83-1.47-5.15-2.82-10.59-10.93-21.23-21.83-31.39-33.15-3.28-3.66-5.18-8.56-7.71-12.89-.61-1.05-1.23-2.11-1.54-2.63zm-2.5-146.79c-8.18 8.67-19.55 13.6-31.28 17.83-2.52.91-3.25 2.1-2.83 4.63.46 2.75.53 5.56.81 8.35.67 6.7 1.37 13.4 2.09 20.44 5.66-2.83 10.73-5.7 16.06-7.95 6.97-2.94 9.99-8.43 11.41-15.39.74-3.6 1.95-7.1 2.82-10.67.69-2.86 2.53-3.03 4.84-2.32 4.31 1.32 5.55 5.01 7.06 8.72 2.47 6.06 4.74 12.34 8.22 17.82 3.06 4.81 8.59 6.89 14.3 7.66 1.63.22 3.09-.09 3.12-2.41.13-8.84.44-17.67.49-26.51 0-.88-1.15-2.23-2.07-2.58-4.04-1.56-8.45-2.34-12.24-4.33-7.57-4-14.81-8.59-22.8-13.29zm-26.91 65.74c2.54 2.94 4.54 5.34 6.65 7.65 1.04 1.13 2.1 2.5 3.44 3.05 8.35 3.44 17.06 5.36 26.12 4.97 10.26-.45 19.73-7.39 22.45-15.59-9.56-6.24-18.93-12.36-28.01-18.29-4.8 3.18-9.59 6.63-14.65 9.64-5.04 3.01-10.36 5.58-16 8.57zm35.48-96.94c.54 5.66.46 11.23 1.79 16.44.88 3.45 3.04 7.57 5.9 9.3 6.42 3.89 13.63 6.49 20.63 9.66 1.36-19.95-5.75-35.48-28.32-35.4zm-41.68 35.51c8.64-2.48 15.48-6.78 21.59-12.6 4.4-4.19 6.01-9.3 6.28-15 .3-6.39-5.05-9.71-10.81-6.87-3.2 1.58-6.42 3.14-9.58 4.81-.94.5-2.08 1.14-2.51 2.02-4.26 8.57-6.24 17.58-4.97 27.64z"/><path d="m215.89 98.32c.28-8.14.52-15.96.82-23.78.31-8.07.87-16.04 5.19-23.29 1.53-2.57 2.95-2.51 5.08-1.25 4.65 2.75 5.83 7.27 5.69 12.11-.12 4.11-1.16 8.18-1.48 12.3-.51 6.55-.76 13.12-1.1 19.69-.1 1.96.81 2.64 2.84 2.69 16.76.43 33.52.99 50.29 1.49.54.02 1.08-.09 2.29-.21 0-6.65.04-13.2-.01-19.75-.05-6.36-.49-12.74-.19-19.08.19-4.2 2.2-7.73 6.7-9.1 2.17-.66 3.64-.43 4.73 2.04 3.1 7.03 3.98 14.35 3.66 21.93-.23 5.59-.27 11.18-.45 16.77-.24 7.45 4.13 8.68 9.73 8.95.99.05 2-.21 3-.32 5.01-.56 7.95 1.93 7.88 6.95-.01.82-.96 2.1-1.74 2.35-3.37 1.1-6.81 2.01-10.28 2.77-1.83.4-3.75.36-6.34.57 0 4.39.02 8.62 0 12.85-.07 15.21.31 30.43-.39 45.61-.55 12.02-1.89 24.07-3.86 35.94-2.84 17.13-12.9 25.44-30.29 26.6-11.81.79-23.06-2.43-34.45-4.59-.89-.17-1.65-1.03-2.46-1.59-10.13-6.96-12.64-17.68-14-28.84-2.85-23.19-1.16-46.47-1.07-69.72.02-4.9-.45-9.82-.9-14.71-.07-.77-1.16-1.92-1.93-2.07-3.28-.63-6.62-.99-9.95-1.35-2.39-.26-4.5-.78-4.61-3.76-.12-3.23 1.56-5.65 4.29-6.1 4.38-.71 8.78-1.38 13.31-2.1zm64.79 113.47c-7.05-10.24-14.13-20.53-21.45-31.17-6.72 11.78-13.26 23.25-19.83 34.78 16.96 6.42 32.81 6.15 41.28-3.61zm-42.36-99.64c7.36 13.07 14.36 25.5 21.6 38.35 7.36-11.89 14.37-23.16 21.3-34.48.65-1.06.88-2.38 1.41-3.88-14.86.01-29.22.01-44.31.01zm-7.09 86.61c.73-1.09 1.18-1.69 1.56-2.33 5.43-9.38 10.8-18.79 16.32-28.12 1.05-1.77 1.05-3.05.05-4.84-5.62-10.04-11.08-20.17-16.62-30.25-.45-.82-1.02-1.58-1.53-2.37-1.53 22.54-6.41 44.93.22 67.91zm54.92-63.26c-5.29 9.21-9.95 17.71-15.03 25.96-2.04 3.3-1.96 5.77.04 9.01 4.73 7.68 9.07 15.6 14.02 24.21 4-19.96 6.18-39.02.97-59.18z"/><path d="m274.49 261.41c-9.88-.58-19.32-1.13-28.85-1.69 0 5.77.16 11.11-.03 16.43-.74 21.02-1.39 42.04-2.47 63.04-.48 9.36-1.75 18.7-2.99 28-.74 5.56-4.07 8.35-8.96 7.97-1.13-.09-2.97-1.24-3.1-2.12-.68-4.46-1.96-9.21-1.12-13.47 3.83-19.27 2.99-38.78 3.73-58.19.48-12.4-.08-24.83.04-37.24.03-3.16-1.19-4.1-4.09-4.1-6.59-.01-13.19-.13-19.78-.34-1.64-.05-3.64-.17-4.81-1.09-1.49-1.19-3.05-3.14-3.24-4.91-.24-2.25.11-5.14 3.07-6.06 2.3-.72 4.69-1.57 7.04-1.58 29.66-.14 59.33-.15 88.99-.18 4.13 0 8.27-.11 12.4.09 4.62.22 7.8 3 8.32 7.28.12.98-.73 2.81-1.5 3.04-3.68 1.1-7.46 2.15-11.27 2.53-4.08.4-8.25-.09-12.37.05-1.6.05-3.17.43-3.18 2.91-.06 18.57-.86 37.17-.22 55.71.54 15.51 2.78 30.96 4.14 46.45.19 2.17.22 4.66-.68 6.53-.78 1.62-2.81 3.15-4.58 3.64-2.27.63-4.44-.24-5.79-2.79-2.57-4.87-3.58-10.04-4-15.45-1.66-21.19-3.66-42.36-5.01-63.57-.57-9.01.15-18.11.28-27.17.04-1.12.03-2.22.03-3.72z"/><path d="m161.95 284.12c1.06-4.52 2.09-9.05 3.18-13.56.43-1.78 1.61-2.1 3.31-1.7 4.04.96 6.34 3.56 7.21 8.27 1.16 6.25 2.24 12.53 3.58 18.74 2.07 9.57 6.84 17.51 14.23 24.06 3.45 3.06 6.31 6.86 9.09 10.58.87 1.17 1.32 4.22.71 4.65-1.83 1.3-4.4 2.6-6.46 2.31-2.72-.39-5.51-1.9-7.77-3.58-14.64-10.91-22.46-25.93-25.67-43.61-.36-1.97-.5-3.98-.75-5.98-.22-.07-.44-.12-.66-.18z"/><path d="m105.06 273.78c8.41 1.35 11.91 5.26 10.16 12.98-1.96 8.65-3.7 18-8.34 25.25-6.02 9.41-14.68 17.23-27.26 17.81-4.91.23-6.17-1.95-5.5-7.07.39-2.94 1.76-5.35 4.55-7.01 2.77-1.65 5.27-3.76 7.8-5.79 4.98-3.99 8.64-8.79 10.61-15.07 2.23-7.11 5.25-13.97 7.98-21.1z"/></g></svg>