<svg enable-background="new 0 0 400 400" viewBox="0 0 400 400" xmlns="http://www.w3.org/2000/svg"><path d="m361.2 9.6.8-1c.9.7 1.9 1.4 2.9 2.3l-.9 1.1c-1-1-2-1.8-2.8-2.4zm.5 10.6c.9-2.1 1.6-4.3 2.3-6.7.4.2.8.4 1.3.6-.7 2.1-1.5 4.3-2.2 6.6zm.4-15.2.9-.9c1 .8 2 1.6 2.8 2.4l-1 1c-.9-.9-1.8-1.7-2.7-2.5zm12.5-1.2h1.2v1.4h2.7v1.1h-2.7v2.7h-1.2v-.6h-1.8v1.3h4.9v3.8h-1.2v-.5h-3.7c0 .4-.1.9-.1 1.2h5.1v1h-5.2c0 .5-.1.9-.2 1.2h6v1h-5.2c1.1 1.3 2.9 2 5.5 2.2-.4.4-.7.8-.9 1.3-2.9-.5-4.8-1.6-5.7-3.5h-.1c-.8 1.7-2.7 2.9-5.9 3.6-.2-.4-.6-.8-.9-1.1 2.8-.6 4.6-1.4 5.4-2.5h-4.8v-1h5.3c.1-.3.2-.7.2-1.2h-4.9v-1h5c0-.4 0-.8.1-1.2h-3.5v.5h-1.2v-3.8h4.9v-1.3h-1.8v.5h-1.2v-2.7h-2.7v-1h2.6v-1.4h1.2v1.4h4.7v-1.4zm-6.6 8.3h3.6c0-.4 0-.9 0-1.4h-3.6zm1.9-4.6h4.7v-1.3h-4.7zm6.6 3.2h-3.7v1.4h3.7z" fill="#fbfcfa"/><path d="m385.3 3.8h1.3v2.2h2.8v-2.2h1.3v2.2h4.1v9.1h1.7v1.3h-16.9v-1.3h1.7v-9.1h4.1v-2.2zm.4 13.1.7 1.2c-1.8.9-3.8 1.9-6 2.9-.2-.4-.5-.8-.8-1.3 2.3-1 4.3-1.9 6.1-2.8zm-3.1-6.4h2.8v-3.2h-2.8zm0 4.6h2.8v-3.3h-2.8zm4-4.6h2.8v-3.2h-2.8zm0 4.6h2.8v-3.3h-2.8zm3.7 1.9c2.1.9 4.1 1.8 6.1 2.7l-.7 1.3c-2.2-1.1-4.2-2-6.1-2.9zm3.2-9.7h-2.8v3.2h2.8zm-2.8 7.8h2.8v-3.3h-2.8z" fill="#fbfcfa"/><g fill="#010102"><path d="m190.64 196.35c-6.53-.84-12.5-1.61-18.9-2.44-.65 3.95-1.5 7.64-1.83 11.37-.95 10.6-6.79 17.55-16.5 20.69-7.48 2.42-15.35 4.1-23.17 4.92-11.34 1.2-22.76 1.06-34.12-.91-3.44-.59-3.13-2.71-3.52-4.94-.42-2.39.09-3.71 2.67-4.74 10.06-4.03 20.53-4.1 31.06-3.8 7.67.22 15.22-.09 22.32-3.44 3.59-1.69 6.25-3.81 6.6-8.36.34-4.42 1.6-8.78 2.48-13.35-4.61-1.88-9.19-3.57-13.62-5.59-8.44-3.85-16.11-8.83-21.65-16.48-6.99-9.64-8.25-20.76-6.84-32.05 1.05-8.37 3.53-16.56 5.54-24.79.31-1.28 1.32-2.56 2.32-3.49 7.87-7.25 17.52-10.27 27.84-12.14 12.28-2.22 24.57-3.47 37.04-2.98 2.57.1 5.14.01 8.1.01.21-2.1.44-4.06.6-6.03 1-12.7 10.73-22.35 23.39-23.08 6.25-.36 12.51-.57 18.77-.9 1.9-.1 3.81-.24 5.67-.61 6.7-1.31 9.73-6 7.93-12.58-.36-1.31-1.67-2.61-2.89-3.39-6.23-4.03-13.23-6.34-20.53-6.66-14.52-.65-29.06-.61-43.59-.95-2.03-.05-2.54 1.02-2.61 2.62-.2 4.57-.33 9.15-.52 13.72-.14 3.23.1 6.55-.58 9.67-1.66 7.56-7.62 12.48-15.52 13.04-4.89.35-9.82.36-14.73.37-16.34.04-32.69.02-49.03.02-1.34 0-2.67 0-4.46 0-.2-2.22-.73-4.34-.44-6.34.15-1.04 1.6-2.26 2.73-2.74 7.56-3.18 15.63-3.61 23.68-4.02 13.4-.67 26.79-1.33 40.19-2 .77-.04 1.53-.19 2.67-.33.59-7.59 1.18-15.14 1.78-22.79-6.08 0-12.06-.13-18.02.03-15.65.42-31.3 1-46.95 1.43-2.22.06-4.48-.22-6.67-.63-2.98-.55-4.63-2.47-4.95-5.54-.24-2.33.29-3.8 2.79-4.84 7.38-3.04 15.07-4.19 22.93-4.35 28.07-.59 56.15-1.55 84.23-1.42 13.35.06 26.78 1.69 40.01 3.69 10.49 1.59 19.13 7 23.16 17.63 2.66 7.02 1.92 14.1-.44 21.04-.35 1.01-1.49 1.9-2.47 2.53-8.69 5.52-18.29 7.56-28.49 7.24-2.12-.07-4.27-.29-6.36-.06-10.01 1.1-14.55 5.55-16.28 16.14 4.08.33 8.13.66 12.18.98 13.7 1.11 26.96 4.23 39.6 9.54 13.58 5.7 19.2 17.06 21.42 30.95 1.81 11.33-.49 21.72-5.55 31.69-1.06 2.09-2.47 4.3-4.31 5.65-9.56 7.03-18.07 15.91-30.99 17.44 1.2 5.44 1.8 10.39 3.51 14.92.83 2.2 3.62 3.8 5.75 5.35 7.09 5.19 15.45 6.81 23.88 8.12 4.64.72 9.34 1.13 13.92 2.13 3.22.71 6.43 1.88 9.33 3.43 1.48.79 2.67 2.71 3.27 4.38.95 2.64.09 4.65-3.02 5.54-7.25 2.07-14.53 1.54-21.54-.43-10.74-3.02-21.42-6.35-31.85-10.28-7.2-2.71-11.85-8.58-14.24-15.93-1.17-3.6-1.74-7.4-2.83-11.04-.26-.86-1.53-2.07-2.28-2.03-7.36.36-14.7.95-22.33 1.49.77 5.43 1.39 10.62 2.3 15.75.21 1.17 1.26 2.3 2.18 3.21 16.97 16.75 37.39 27.88 59.57 35.92 11.13 4.03 22.51 7.35 33.79 10.97 4.55 1.46 8.42 3.63 10.04 8.53.66 2 .31 3.29-1.78 4.28-3.78 1.78-7.75 2.83-11.71 1.53-21.11-6.93-42.63-12.7-62.91-22.01-13-5.97-23.76-15.03-34.32-24.4-1.08-.96-2.2-1.86-3.52-2.97-6.79 9.04-15.35 15.86-25.78 19.31-12.48 4.12-25.31 7.36-38.16 10.18-12.33 2.7-24.84 4.63-37.35 6.37-5.01.69-10.22-.06-15.34-.12-1.9-.02-2.5-1.1-2.54-2.78-.02-1.01 0-2.04-.21-3.01-.52-2.41.51-3.25 2.83-3.76 25.63-5.73 51.25-11.53 76.84-17.43 7.89-1.82 15.5-4.52 21.92-9.64 4.74-3.78 8.31-8.24 8.23-14.94-.06-4.68.73-9.34 1.18-14.29zm78.59-43.69c-.26-.14-.62-.42-1.03-.55-23.08-7.69-46.15-15.39-69.26-22.98-1.19-.39-2.78.02-4.06.44-6.25 2.03-12.32 4.86-18.71 6.15-10.38 2.1-20.97 3.14-31.45 4.82-5.45.87-10.83 2.16-16.12 3.24.23 9.6 4.72 18.89 11.35 24.02 6.82-3.52 13.66-7.07 20.52-10.59 9.44-4.84 18.74-10.11 29.27-12.2 3.83-.76 8.47-1.68 11.76-.25 17.99 7.83 36.75 14.06 53.51 24.59.68.43 2.16.64 2.6.24 5.06-4.7 11.75-8.28 11.62-16.93zm-113.68 22.94c1.13.47 1.62.72 2.14.89 1.06.34 2.13.68 3.21.95 18.61 4.58 37.54 5.49 56.57 4.5 7.45-.39 14.86-1.66 21.97-5.53-7.94-4.44-15.48-8.97-23.31-12.93-4.34-2.19-9.11-3.58-13.78-5.04-1.84-.58-4.22-1.07-5.85-.39-13.48 5.58-26.85 11.45-40.95 17.55zm53.26-67.96c-1.44 5.58.36 11.3 4.2 12.72 11.94 4.41 23.87 8.85 35.93 12.89 6.85 2.3 14 3.52 21.32 3.34-.05-13.7-8.28-22.89-19.59-24.29-8.98-1.11-18.02-1.75-27.01-2.72-4.98-.52-9.92-1.28-14.85-1.94zm-78.24 20.67c10.76-1.5 21.55-3.23 32.39-4.45 9.44-1.06 18.35-3.47 26.8-7.9 2.88-1.51 4.2-3.77 3.47-6.36-.31-1.09-3.49-1.98-5.34-1.92-9.71.3-19.42.84-29.12 1.47-7.1.46-13.78 2.38-20.09 5.83-5.52 3.02-9.43 6.71-8.11 13.33z"/><path d="m155.37 262.09c1.39 6.72 2.74 13.27 4.18 20.25 1.96-.8 3.67-1.48 5.36-2.19 5.46-2.29 10.8-4.92 16.39-6.82 6.9-2.35 9.11-7.46 9.93-14.03.57-4.51 1.72-8.96 2.91-13.35.22-.81 1.84-1.75 2.81-1.74 1.74.01 3.53.56 5.21 1.12 4.51 1.5 5.61 3.57 5.24 8.37-.28 3.64-.31 7.31-.13 10.96.11 2.24 1.56 3.67 3.75 4.63 10.01 4.42 19.95 9.02 29.93 13.54.79.36 1.63.6 3.06 1.13.37-3.7.78-7.08 1.03-10.47.44-5.85 2.38-8.15 8.55-9.68 4.33 7.56 6.44 15.87 7.3 24.46 2.08 20.84-.69 41.2-5.9 61.43-2.73 10.56-9.83 16-18.99 19.91-14.53 6.21-29.76 7.09-45.11 4.93-7.45-1.05-14.7-3.57-22-5.6-6.53-1.81-10.66-6.51-14.21-12.02-6.37-9.89-9.24-20.85-9.64-32.39-.57-16.43-.7-32.87-.83-49.31-.02-2.51.57-5.16 1.49-7.51 2.63-6.74 1.56-6.35 9.67-5.62zm2.72 46.05c.03.68.07 2.36.19 4.04.91 13.59 2.68 26.96 10.48 38.66.86 1.29 2.25 2.49 3.66 3.08 10.63 4.43 21.78 6.52 33.24 7.25 12.07.77 23.01-2.05 32.65-9.59 2.44-1.9 4.04-4.16 4.51-7.15 1.61-10.26 3.42-20.49 4.55-30.81.45-4.11-.44-8.45-1.24-12.58-.28-1.41-1.92-3.08-3.34-3.67-14.01-5.85-28.09-11.54-42.22-17.12-1.16-.46-3.14-.23-4.15.5-9.34 6.8-19.85 11.13-30.68 14.79-8.42 2.84-8.45 2.76-7.65 12.6z"/><path d="m201.33 313.44c7.56.57 15.14.96 22.67 1.81 2.33.26 4.89 1.33 6.65 2.84 1.49 1.28 2.44 3.68 2.67 5.69.09.75-2.43 2.21-3.96 2.67-9.76 2.96-19.86 3.17-29.9 2.67-6.99-.35-13.94-1.6-20.9-2.51-4.24-.55-2.53-4.28-3.38-6.62-.79-2.16.96-2.7 2.38-3.67 3.94-2.71 8.42-1.77 12.68-2.11 3.66-.29 7.37-.06 11.05-.06.01-.24.02-.48.04-.71z"/></g></svg>