<svg enable-background="new 0 0 400 400" viewBox="0 0 400 400" xmlns="http://www.w3.org/2000/svg"><path d="m361.2 9.6.8-1c.9.7 1.9 1.4 2.9 2.3l-.9 1.1c-1-1-2-1.8-2.8-2.4zm.5 10.6c.9-2.1 1.6-4.3 2.3-6.7.4.2.8.4 1.3.6-.7 2.1-1.5 4.3-2.2 6.6zm.4-15.2.9-.9c1 .8 2 1.6 2.8 2.4l-1 1c-.9-.9-1.8-1.7-2.7-2.5zm12.5-1.2h1.2v1.4h2.7v1.1h-2.7v2.7h-1.2v-.6h-1.8v1.3h4.9v3.8h-1.2v-.5h-3.7c0 .4-.1.9-.1 1.2h5.1v1h-5.2c0 .5-.1.9-.2 1.2h6v1h-5.2c1.1 1.3 2.9 2 5.5 2.2-.4.4-.7.8-.9 1.3-2.9-.5-4.8-1.6-5.7-3.5h-.1c-.8 1.7-2.7 2.9-5.9 3.6-.2-.4-.6-.8-.9-1.1 2.8-.6 4.6-1.4 5.4-2.5h-4.8v-1h5.3c.1-.3.2-.7.2-1.2h-4.9v-1h5c0-.4 0-.8.1-1.2h-3.5v.5h-1.2v-3.8h4.9v-1.3h-1.8v.5h-1.2v-2.7h-2.7v-1h2.6v-1.4h1.2v1.4h4.7v-1.4zm-6.6 8.3h3.6c0-.4 0-.9 0-1.4h-3.6zm1.9-4.6h4.7v-1.3h-4.7zm6.6 3.2h-3.7v1.4h3.7z" fill="#fbfcfa"/><path d="m385.3 3.8h1.3v2.2h2.8v-2.2h1.3v2.2h4.1v9.1h1.7v1.3h-16.9v-1.3h1.7v-9.1h4.1v-2.2zm.4 13.1.7 1.2c-1.8.9-3.8 1.9-6 2.9-.2-.4-.5-.8-.8-1.3 2.3-1 4.3-1.9 6.1-2.8zm-3.1-6.4h2.8v-3.2h-2.8zm0 4.6h2.8v-3.3h-2.8zm4-4.6h2.8v-3.2h-2.8zm0 4.6h2.8v-3.3h-2.8zm3.7 1.9c2.1.9 4.1 1.8 6.1 2.7l-.7 1.3c-2.2-1.1-4.2-2-6.1-2.9zm3.2-9.7h-2.8v3.2h2.8zm-2.8 7.8h2.8v-3.3h-2.8z" fill="#fbfcfa"/><g fill="#010102"><path d="m147.23 312.56c-10.81 16.6-21.35 32.82-31.95 49-1.9 2.9-3.97 5.68-6.1 8.42-2.56 3.28-6 4.8-10.18 4.94-2.14.07-3.38-.94-3.48-2.74-.12-2.26-.27-4.91.74-6.76 2.29-4.17 4.91-8.28 8.05-11.84 15.52-17.57 27.73-36.96 34.16-59.73 3-10.61 1.17-21.34 1.32-32.02.04-2.68.01-5.36.01-8.39-4.95-1.31-9.61-2.79-14.38-3.75-18.26-3.69-27.28-16.6-32.96-32.81-4.9-13.98-4.73-28.48-2.99-42.83 1.31-10.82 4.09-21.46 6.41-32.14.35-1.6 1.53-3.2 2.74-4.39 8.93-8.85 19.63-13.94 32.29-14.43 3.3-.13 4.93-1.27 4.74-4.77-.21-4.01-.1-8.05-.21-12.07-.29-10.5 6.69-19.98 16.9-22.4 5.97-1.41 12.08-2.26 18.1-3.46 7.99-1.59 10.6-6.39 7.59-13.99-.35-.88-1.3-2.01-2.12-2.15-13.33-2.27-26.69-4.4-40.05-6.54-.19-.03-.41.14-1.01.37-.44 3.89-1.23 7.97-1.3 12.07-.16 9.52-4.54 16.42-12.51 21.18-14.87 8.88-30.97 11.7-48.06 9.49-2.72-.35-3.63-2.25-3.77-4.38-.13-2.12-.15-4.41 2.58-5.56 6.46-2.72 13.12-4.38 20.12-4.79 7.6-.45 14.88-2.02 20.93-7 1.1-.91 2.05-2.36 2.43-3.73 1.79-6.46 3.27-13 5.06-19.46.62-2.22.28-3.37-1.9-4.44-5.71-2.82-11.37-5.77-16.88-8.97-6.56-3.81-8.48-9.94-5.5-18.04 4.86 1.83 9.85 3.39 14.57 5.55 6.09 2.78 12.04 5.92 17.93 9.11 11.09 6 23.07 8.17 35.49 8.59 3.8.13 7.66-.22 11.39.35 7.23 1.1 11.63 6.07 14.29 12.4 1.8 4.29 2.96 8.9 3.91 13.47.86 4.13-.84 7.57-4.07 10.39-7.15 6.25-15.62 9.42-24.77 11.14-1.1.21-2.18.51-3.27.76-7.14 1.66-12.21 4.89-11.82 13.43.18 4.08-.79 8.2-1.32 13 5.18.73 10.32 2.03 15.47 2.08 17.11.16 25.96 10.36 31.61 24.9 4.06 10.44 5.1 21.28 4.42 32.32-.99 16.23-3.28 32.26-8.71 47.68-.61 1.72-1.55 3.52-2.85 4.77-3.94 3.79-7.97 7.51-12.24 10.92-5.42 4.32-12.05 5.55-18.56 6.13-3.68 27.44-1.57 53.37 15.9 75.94 4.92 6.36 10.82 11.97 15.61 18.42 4.7 6.33 8.69 13.2 12.68 20.02.77 1.31.81 3.93-.02 5.09-1.46 2.06-4.12 2.85-6.64 1.76-2-.86-4.09-1.93-5.61-3.44-16.24-16.23-30.27-34.13-40.96-54.53-.31-.59-.67-1.15-1.25-2.14zm-3.05-148.58c-3.81 2.83-7.05 6.23-11.02 7.99-8.64 3.83-17.6 6.96-26.53 10.08-2.38.83-3.14 1.76-2.76 4.19.71 4.53 1.17 9.09 1.74 13.64.49 3.95.99 7.9 1.55 12.4 6.64-2.22 12.82-4.09 18.86-6.36 7.27-2.73 11.64-7.99 12.85-15.8.48-3.08 1.24-6.13 2.04-9.15.21-.8.9-1.91 1.58-2.1 4.47-1.22 8.84 1.43 10.04 6 1.06 3.99 1.96 8.03 3.05 12.01.28 1.03.8 2.12 1.52 2.89 2.53 2.69 4.84 5.81 7.88 7.74 4.9 3.1 10.33 5.37 15.92 8.19.65-9.15 1.24-17.4 1.82-25.65.66-9.44 2.36-7.77-7.22-11.13-11.09-3.87-22.5-6.87-31.32-14.94zm-31.07 61.82c13.99 16.9 47.56 17.22 60.79 2.63-4.17-2.7-8.31-5.31-12.38-8.03-4.91-3.28-9.87-6.51-14.57-10.07-1.76-1.33-2.74-1.33-4.57-.22-9.37 5.72-17.6 13.56-29.27 15.69zm-7.65-58.62c6.71-3 12.96-6.36 19.59-8.6 6.55-2.21 9.86-6.39 10.59-12.9.23-2.07.49-4.76-.56-6.22-1.67-2.32-4.67-2.14-7.41-1.23-3.82 1.27-7.6 2.72-11.51 3.58s-6.17 3.08-7.65 6.61c-2.46 5.89-5.36 11.65-3.05 18.76zm45.39-29.22c.35 2.59.75 5 .98 7.42.66 6.84 3.61 11.34 10.82 13.26 7.16 1.91 14 5.02 21.08 7.64.41-19.14-12.52-30.33-32.88-28.32z"/><path d="m312.72 191.74c-8.32 4.84-17.2 7.18-26.47 6.97-15.09-.34-30.17-1.33-45.25-2.1-5.36-.27-10.72-.98-16.08-.93-3.51.03-5.41-1.19-6.34-4.43-.33-1.16-.96-2.24-1.54-3.53 6.26-4.83 13.3-5.38 20.72-4.65 3.98.39 8.02.4 12.03.36 2.68-.03 3.98-1.19 4-4.35.11-17.8.5-35.59.8-53.38.02-.98 0-1.95 0-3.8-9.65 0-19.02.14-28.37-.06-4.65-.1-9.4-.4-13.89-1.48-2.14-.51-4.42-2.72-5.53-4.77-2.18-4.03-.78-6.67 3.71-7.08 9.01-.81 18.05-1.28 27.09-1.68 5.23-.23 10.47-.04 16.39-.04.16-9.76.23-19.23.5-28.69.31-10.49.41-21.02 1.42-31.45.4-4.08 3.05-7.93 4.75-12.06 3.94 1.63 5.87 4.15 6.55 6.99 1.42 5.93 2.98 12 3.09 18.04.27 13.98-.29 27.97-.51 41.96-.02 1.22 0 2.44 0 4.15 5.04.33 9.9.82 14.76.92 9.61.2 19.23-.01 28.83.36 4.33.17 8.29 1.9 10.62 6.05 1.07 1.9 1.12 3.32-1.02 4.74-4.24 2.82-8.85 4.41-13.86 4.41-9.17-.01-18.34-.42-27.51-.46-3.78-.02-7.56.49-11.79.79-.36 19.51-.72 38.92-1.09 59.22 6.92.21 13.67.42 20.43.63 4.9.15 9.87-.11 14.69.59 4.59.65 7.89 3.48 8.87 8.76z"/><path d="m238.6 256.32h43.69c0-7.13.05-13.79-.02-20.45-.05-4.58-.55-9.18-.3-13.74.23-4.28 1.94-8.02 6.25-9.98 1.68-.76 3.17-.79 3.92 1.04 1.58 3.89 4.14 7.83 4.22 11.79.49 22.91.95 45.86.16 68.75-.3 8.61-3.95 17.1-6.16 25.62-.23.9-.83 1.93-1.58 2.43-11.21 7.67-23.31 12.72-37.16 9.98-5.26-1.04-10.29-3.58-15.17-5.96-1.8-.88-3.07-3.17-4.22-5.04-5.52-8.97-7.67-19-8.81-29.3-2.07-18.68-1.36-37.3.9-55.92.39-3.2.15-6.48.12-9.72-.04-4.63 1.25-8.77 3.97-12.56 1.24-1.72 2.46-1.9 4.27-1.18 3.55 1.41 6.04 4.02 6.18 7.69.27 6.78-.18 13.59-.26 20.4-.05 5.43 0 10.86 0 16.15zm-.28 14.54c0 7.47-.26 15.28.08 23.06.29 6.64 2.3 12.95 5.74 18.71.48.8 1.19 1.67 2.01 2.04 9.85 4.44 19.65 4.93 29.11-.96 1.35-.84 2.65-2.51 3.01-4.03 1.42-5.85 2.79-11.75 3.54-17.71.69-5.5.71-11.1.7-16.65-.01-2.71-1.34-4.51-4.67-4.23-2.87.24-5.8-.19-8.7-.2-9.92-.05-19.84-.03-30.82-.03z"/><path d="m177.46 254.5c3.61.84 6.05 3.14 6.98 6.28 1.63 5.54 3.26 11.21 3.74 16.93 1.15 13.71 6.77 25.53 13.78 36.99 4.19 6.85 7.95 13.98 11.7 21.09.75 1.41 1.28 4.43.73 4.77-2.07 1.25-4.62 2.23-7.01 2.28-1.6.04-3.63-1.3-4.81-2.62-14.37-16.17-24.53-34.63-29.14-55.84-2.21-10.22-.78-20.23 4.03-29.88z"/><path d="m118.02 264.36c1.19 25.63-5.32 49.04-19.85 70.05-1.49 2.16-3.4 4.22-5.55 5.7-3.71 2.56-7.91.76-8.17-3.68-.17-2.94.61-6.19 1.84-8.9 3.23-7.11 7.02-13.97 10.46-20.99 4.71-9.65 5.9-20.08 6.57-30.61.44-6.91.39-13.87 3.25-20.41 2.23-5.1 6.37-5.87 9.48-1.12 1.84 2.82 2.26 6.56 3.32 9.89-.46.02-.91.04-1.35.07z"/></g></svg>