<svg enable-background="new 0 0 400 400" viewBox="0 0 400 400" xmlns="http://www.w3.org/2000/svg"><path d="m361.2 9.6.8-1c.9.7 1.9 1.4 2.9 2.3l-.9 1.1c-1-1-2-1.8-2.8-2.4zm.5 10.6c.9-2.1 1.6-4.3 2.3-6.7.4.2.8.4 1.3.6-.7 2.1-1.5 4.3-2.2 6.6zm.4-15.2.9-.9c1 .8 2 1.6 2.8 2.4l-1 1c-.9-.9-1.8-1.7-2.7-2.5zm12.5-1.2h1.2v1.4h2.7v1.1h-2.7v2.7h-1.2v-.6h-1.8v1.3h4.9v3.8h-1.2v-.5h-3.7c0 .4-.1.9-.1 1.2h5.1v1h-5.2c0 .5-.1.9-.2 1.2h6v1h-5.2c1.1 1.3 2.9 2 5.5 2.2-.4.4-.7.8-.9 1.3-2.9-.5-4.8-1.6-5.7-3.5h-.1c-.8 1.7-2.7 2.9-5.9 3.6-.2-.4-.6-.8-.9-1.1 2.8-.6 4.6-1.4 5.4-2.5h-4.8v-1h5.3c.1-.3.2-.7.2-1.2h-4.9v-1h5c0-.4 0-.8.1-1.2h-3.5v.5h-1.2v-3.8h4.9v-1.3h-1.8v.5h-1.2v-2.7h-2.7v-1h2.6v-1.4h1.2v1.4h4.7v-1.4zm-6.6 8.3h3.6c0-.4 0-.9 0-1.4h-3.6zm1.9-4.6h4.7v-1.3h-4.7zm6.6 3.2h-3.7v1.4h3.7z" fill="#fbfcfa"/><path d="m385.3 3.8h1.3v2.2h2.8v-2.2h1.3v2.2h4.1v9.1h1.7v1.3h-16.9v-1.3h1.7v-9.1h4.1v-2.2zm.4 13.1.7 1.2c-1.8.9-3.8 1.9-6 2.9-.2-.4-.5-.8-.8-1.3 2.3-1 4.3-1.9 6.1-2.8zm-3.1-6.4h2.8v-3.2h-2.8zm0 4.6h2.8v-3.3h-2.8zm4-4.6h2.8v-3.2h-2.8zm0 4.6h2.8v-3.3h-2.8zm3.7 1.9c2.1.9 4.1 1.8 6.1 2.7l-.7 1.3c-2.2-1.1-4.2-2-6.1-2.9zm3.2-9.7h-2.8v3.2h2.8zm-2.8 7.8h2.8v-3.3h-2.8z" fill="#fbfcfa"/><g fill="#010102"><path d="m109.42 109.82c-1.39 8.86-2.78 17.89-4.22 26.92-1.29 8.06-2.48 16.13-4.02 24.14-.52 2.68-1.74 5.32-3.1 7.71-.82 1.44-2.36 2.83-3.89 3.42-4.56 1.76-8.2-.46-8.31-5.31-.09-4.19.01-8.62 1.24-12.57 4.61-14.92 5.66-30.29 6.58-45.68 1.39-23 2.61-46.01 3.71-69.03.15-3.11.92-4.78 4.16-4.95 1.2-.06 2.38-.44 3.66-.69 4.12 6.81 5.56 14.14 5.59 21.88.05 12.08.22 24.16.36 36.24.01 1.1.12 2.19.2 3.44h16.96c.21-7.12.77-14.13.54-21.11-.26-7.93-1.33-15.82-1.85-23.75-.5-7.76.17-15.39 3.21-22.71 1.15-2.76 2.76-3.08 5.2-2.04 3.17 1.35 5.05 3.75 5.4 7.1.38 3.66.45 7.36.63 11.04.84 17.08 1.68 34.17 2.53 51.63 4.1 0 7.88.11 11.64-.1.69-.04 1.77-1.28 1.9-2.09.85-5.28 1.81-10.58 2.13-15.92.6-9.83.8-19.71 4.68-28.97 1.06-2.53 2.49-5.09 4.36-7.07 3.48-3.68 8-2.57 8.86 2.31.7 3.97 1.25 8.52.01 12.19-6.2 18.34-4.75 37.36-5.74 56.15-.62 11.72-.8 23.48-.67 35.21.08 7.03 1.12 14.04 1.74 21.06.34 3.89-.9 6.44-3.93 7-3.13.57-5.13-1.06-6.56-3.93-3.79-7.65-4.35-15.87-4.72-24.16-.54-12.06-1.1-24.11-1.66-36.17-.02-.43-.16-.85-.34-1.71-3.43 0-6.88-.13-10.29.11-.67.05-1.65 1.43-1.79 2.3-1.07 6.72-2.34 13.45-2.83 20.22-.74 10.19-1.61 20.28-6.13 29.87 2.15 1.77 4.17 3.49 6.25 5.13 12.66 10 17 23.12 14.39 38.75-2.39 14.32-5.2 28.58-7.37 42.93-2.12 14.03-3.96 28.08-3.43 42.4.5 13.61 5.1 25.99 9.39 38.58 3.31 9.71 6.29 19.54 9.38 29.33.27.84.27 1.76.38 2.65.31 2.46.21 4.92-2.54 5.87-2.74.94-5.2.27-7.19-2.1-7.9-9.39-13.63-20-16.87-31.75-7.71-28.03-8.8-56.53-4.07-85.13 1.91-11.54 5.03-22.93 8.2-34.21 3.55-12.65.55-23.59-7.23-33.64-1.7-2.2-3.52-4.31-5.48-6.69-8.14 13.37-14.21 27.19-17.84 42.06-2.72 11.15-3.77 22.48-3.52 33.94.51 23.16.81 46.32 1.65 69.46.37 10.15 2.06 20.25 2.72 30.41.28 4.27-.19 8.69-1.02 12.9-.74 3.77-3.62 5.98-7.6 6.69-4.99-6.48-6.5-14-6.99-21.76-2.41-38.67-2.29-77.4-1.67-116.1.21-13.07.62-26.59 6.38-38.8 3.94-8.37 8.45-16.57 13.6-24.24 10.2-15.17 13.25-32.26 14.72-49.87.62-7.44.17-7.78-7.18-8.29-3.79-.26-7.58-.58-11.37-.85-.19-.01-.4.15-.93.35z"/><path d="m209.52 161.25c-.58 8.4-1.13 16.51-1.72 25.05 7.44 1.78 14.61 4 21.95 5.17 22.99 3.65 38.33 17.09 48.58 37.17 8.75 17.16 14 35.48 17.64 54.33.93 4.81 2.43 9.52 3.6 14.28.61 2.49 1.31 5 1.56 7.54.65 6.49.27 6.75-5.9 8.18-2.49.58-4.36.08-5.16-2.25-2.2-6.41-4.7-12.79-6.11-19.38-4.34-20.3-10.3-39.98-19.44-58.7-7.61-15.58-19.86-24.55-36.69-27.8-6.32-1.22-12.56-2.81-19.2-4.31.15 8.34 2.2 15.77 4.52 23.08.43 1.35 2.29 2.41 3.7 3.27 3.62 2.2 7.19 4.62 11.08 6.24 13.82 5.75 23.26 15.78 29.95 28.93 9.28 18.23 13.62 37.76 15.84 57.88 1.64 14.85 1.87 29.7-.62 44.49-.37 2.2-.92 4.37-1.27 6.58-.48 3.06-2.72 4.07-5.27 4.13-2.64.05-4.65-.68-5.26-4.16-2.71-15.37-3.61-30.85-3.93-46.43-.22-10.71-.45-21.5-1.91-32.09-1.73-12.55-7.39-23.59-16.33-32.77-9.66 6.03-12.24 12.07-9.29 25.52 2.34 10.67 5.94 21.05 8.69 31.63 1.74 6.69 3.04 13.5 4.32 20.3.43 2.28.54 4.85-2.36 5.96-2.49.95-6.32-.49-7.86-2.92-7.08-11.13-10.9-23.49-13.18-36.33-1.45-8.14-2.31-16.38-3.44-24.57-.2-1.42-.41-2.83-.66-4.53-3.53.31-6.87.43-10.15.98-.99.17-1.95 1.37-2.64 2.31-5.68 7.76-6.95 16.62-5.91 25.87.95 8.44 1.77 16.96 3.68 25.21 2.01 8.67 5.25 17.06 7.96 25.57.34 1.06.82 2.11.98 3.2.38 2.64-.16 4.95-2.98 6.04s-5.84.19-7.32-2.19c-8.48-13.62-13.27-28.51-15.14-44.38-1.75-14.88-.44-29.48 4.32-43.71.49-1.48 1.58-2.95 2.79-3.96 5.31-4.43 11.39-7.4 18.14-9.02 7.23-1.72 13.42-5.37 19.14-10.84-2.72-1.58-5.24-3.12-7.82-4.53-2.74-1.5-5.55-2.89-8.34-4.31-10.69-5.44-15.58-14.24-16.22-26.15-1.78-32.9-.29-65.78.62-98.64.47-16.76-2.24-32.95-4.92-49.25-1.36-8.27-3.07-16.51-3.96-24.83-.28-2.66 1.57-5.55 2.44-8.29 6.16.38 10.2 3.15 11.63 8.32 2.26 8.15 4.26 16.43 5.53 24.78 3.98 26.24 3.2 52.67 2.43 79.08-.03 1.11 0 2.22 0 3.76 5.49 1.15 11.02 2.33 16.56 3.45 11.28 2.29 22.6 4.42 33.85 6.86 7.91 1.71 14.47 6.12 19.79 12 15.03 16.59 24.85 35.93 29.28 57.92.96 4.77-1.85 7.75-6.78 7.21-.8-.09-1.74-1.25-2.17-2.13-5.35-10.94-10.65-21.9-15.88-32.89-9.41-19.79-24.5-31.47-46.64-34.19-8.57-1.05-16.92-3.92-25.37-5.96-.81-.22-1.63-.47-2.73-.78z"/><path d="m214.98 30.24c7.16 2.32 14.04 5.09 21.19 6.71 7.58 1.72 15.4 2.4 23.13 3.47 6.86.95 13.78 1.52 20.59 2.77 11.7 2.14 19.9 12.74 20.32 24.61.32 9.1-1.02 17.79-4.07 26.27-.49 1.37-1.48 2.68-2.52 3.72-8.37 8.33-18.96 9.72-30.08 9.52-3.46-.06-6.93.15-10.39.42-6.7.53-10.53 3.76-12.05 9.76-.54 2.14-.1 3.39 2.15 3.96 11.79 2.98 23.53 6.15 35.37 8.95 7.19 1.71 14.48 2.94 20.31 8.04 5.68 4.97 7.52 11.32 7.02 18.77-5.33.5-10.31 1.07-14.01-3.93-5.07-6.87-12.79-8.93-20.6-10.63-9.6-2.09-19.21-4.17-28.84-6.14-11.92-2.43-16.74-8.96-15.13-21.05.45-3.41 1.29-6.81 2.28-10.11.36-1.2 1.5-2.46 2.62-3.11 10.82-6.2 22.57-8.89 34.97-9.07 2.57-.04 5.15 0 7.7-.28 6.77-.76 11.35-4.95 11.49-11.79.12-5.84-.96-11.73-1.8-17.56-.17-1.18-1.48-2.43-2.58-3.19-7.07-4.85-15.04-6.72-23.5-6.55-9.69.2-19.28-.51-28.36-4.04-4.85-1.89-9.51-4.41-13.95-7.14-4.29-2.66-4.55-6.74-1.26-12.38z"/><path d="m252.31 84.18c-8.53-.16-16.9-1.26-25.02-4.11-1.94-.68-2.55-1.7-2.46-3.66.08-1.86.19-3.08 2.29-4.16 8.7-4.49 18.08-3.6 27.28-3.85 4.43-.12 8.94.28 13.31 1.03 3.53.61 6.23 2.82 7.62 6.4.68 1.76.53 2.73-1.31 3.71-6.82 3.62-14.11 4.75-21.71 4.64z"/></g></svg>