<svg enable-background="new 0 0 400 400" viewBox="0 0 400 400" xmlns="http://www.w3.org/2000/svg"><path d="m220.79 132.08c-8.97-5.87-17.76-11.61-26.7-17.45-3.87 4.15-7.42 8.49-11.54 12.16-2.57 2.29-5.98 3.66-9.11 5.25-.8.41-1.97.15-2.97.11-2.73-.11-3.47-1.43-3.69-4.26-.4-5.15 1.36-8.61 5.17-12.11 16.41-15.07 32.52-30.46 48.61-45.85 1.26-1.21 2.26-3.4 2.24-5.12-.08-5.91-.42-11.85-1.12-17.72-.85-7.15.07-13.76 4-19.94 1.43-2.25 2.81-2.4 4.91-1.12 3.13 1.92 4.94 4.79 4.93 8.28-.01 5.45-.69 10.9-.88 16.36-.14 4.12.06 8.25.08 12.37.01 2.39 1.34 3.52 3.5 4.24 14.18 4.73 26.77 12.32 38.38 21.61 5.01 4.01 9.73 8.29 12.2 14.45 2.4 5.96 1.6 9.04-3.15 13.25-6.63 5.88-14.48 9.66-22.51 13.11-2.46 1.06-4.99 1.94-8.14 3.16 7.52 2.68 14.66 4.03 22.02 4.24 9.73.27 19.46.36 29.18.76 2.51.1 5.08.82 7.45 1.71 2.62.98 3.81 3.16 3.94 6.06.13 2.94-1.85 3.81-3.95 4.67-8.52 3.47-17.46 3.3-26.44 3.2-13.42-.15-26.49-2.22-39.17-6.62-.5-.17-1.06-.19-2.07-.36v3.45c0 8.51.12 17.02-.07 25.52-.06 2.8.95 3.84 3.56 3.87 8.6.09 17.21.18 25.81.32 5.02.08 10.05.12 15.05.49 1.82.13 3.95.74 5.27 1.9 2.08 1.82 4.05 4.1 5.06 6.6.25.63-3.12 3.2-5.16 4.19-7.59 3.68-15.73 2.43-23.76 2.28-8.45-.16-16.91-.04-25.73-.04 0 8.81-.08 17.07.15 25.32.02.68 2.08 1.83 3.22 1.86 8.37.25 16.76.24 25.13.37 5.91.09 11.87-.19 17.71.55 6.16.78 9.56 4.47 10.47 9.86-4.95 2.93-10.42 4.65-16.15 4.71-7.14.07-14.29-.69-21.44-.87-5.01-.13-10.04.03-15.05.29-.84.04-2.25 1.24-2.33 2-1.01 10.24-1.84 20.51-2.69 30.76-.03.31.12.64.31 1.59 7.24.18 14.59.53 21.94.49 7.72-.04 15.43-.63 23.15-.62 3.42 0 6.86.78 10.25 1.42 1.39.26 3.02.76 3.94 1.72 1.92 2.03 3.45 4.43 5.13 6.69-2.02 1.26-3.93 3.3-6.1 3.62-5.6.85-11.32 1.3-16.98 1.28-18.02-.08-36.03-.47-54.05-.7-9.74-.12-19.47-.16-29.21-.23-1.21-.01-2.42 0-4 0-.34 8.15-.82 15.94-.96 23.74-.32 17.79-.34 35.59-.82 53.38-.09 3.44-1.47 6.92-2.7 10.22-.84 2.24-2.9 3.43-5.46 2.88-2.47-.53-4.33-1.43-5.12-4.44-2.84-10.92-2.22-21.94-1.85-33.02.85-25.16 1.46-50.34 2.12-75.51.52-20.25.62-40.52 1.57-60.75.6-12.81 1.97-25.64 3.82-38.33 1.19-8.17 5.49-14.99 12.84-19.56 5.96-3.68 11.75-7.66 17.96-11.74zm11.18-12.9c.75-8.84.58-17.61 4.38-25.7 3.64.62 6.86 1.63 8.2 4.96.93 2.31 1.2 4.96 1.38 7.48.34 4.97.41 9.95.62 15.54 9.5-4.49 18.32-8.67 27.76-13.14-2.29-2.64-4.06-5.25-6.37-7.24-9.74-8.41-21.07-14.21-32.82-19.24-.78-.33-1.99-.24-2.77.14-10.87 5.18-19.12 13.61-27.49 21.87 2.3 3 20.9 13.46 27.11 15.33zm-32.34 118.21v33.9c10.26 0 20.29.05 30.31-.12.68-.01 1.91-1.68 1.91-2.58.01-5.58-.3-11.16-.4-16.74-.08-4.66-.02-9.33-.02-14.46-11.09 0-21.32 0-31.8 0zm1.53-42.91c-.33 9.27-.67 19.06-1.02 29.14 10.78-.61 21.21-1.2 31.81-1.8-.64-8.68-1.19-16.93-1.94-25.16-.07-.79-1.42-2.07-2.2-2.09-8.7-.15-17.41-.09-26.65-.09zm28.78-50.94c-.34-.26-.68-.53-1.01-.79-7.52 5.77-15.06 11.52-22.53 17.35-.62.48-1.04 1.45-1.21 2.26-1.13 5.58-2.16 11.17-3.18 16.5h29.97c-.7-12.16-1.37-23.74-2.04-35.32z" fill="#010103"/><path d="m138.49 220.31c-6.77 0-13.33 0-19.9 0-.9 0-1.79.02-2.69-.01-5.24-.16-5.72.06-7.55 4.94-.7 1.85-1.23 3.87-1.31 5.84-.72 17.55-1.39 35.1-1.95 52.65-.58 18.01-1.11 36.02-1.48 54.03-.15 7.15.33 14.32.24 21.48-.04 2.74-.61 5.55-1.43 8.17-.84 2.67-3.05 3.98-5.92 4.17-2.27.15-3.7-.55-4.68-2.8-2.64-6.1-3.86-12.54-3.26-19.01 2.94-32.05.91-64.21 2.63-96.28.67-12.54 2.69-24.88 6.06-37 .79-2.82 2.31-4.65 4.66-6.17 6.5-4.2 13.88-4.76 21.25-5.18 4.67-.27 9.37-.05 14.63-.05 0-4.5 0-8.69 0-12.88 0-1.9-.28-3.86.06-5.7.71-3.95-1.41-5.31-4.73-5.54-4.34-.3-8.7-.65-13.04-.52-10.26.32-19.56-1.93-27.05-9.37-4.63-4.6-5.93-10.52-6.52-16.81-2.34-25.17-4.78-50.33-7.3-75.49-.73-7.34-2.19-14.63-2.63-21.98-.3-5.18.27-10.48 1-15.64.59-4.22 3.57-5.4 7.33-3.55 3.49 1.72 5.56 4.62 6.09 8.32.51 3.51.37 7.12.56 10.68.28 5.12.52 10.24.97 15.35.18 2.06 1.4 3.49 3.77 3.46 9.59-.14 19.19-.3 28.79-.36 4.68-.03 9.41-.27 14 .4 2.4.35 5.31 1.93 6.64 3.88 2.55 3.71 3.3 7.36-2.36 9.11-3.9 1.21-8.03 2.24-12.08 2.31-10.95.19-21.91-.19-32.86-.31-1.08-.01-2.17.25-3.62.43.79 8.75 1.51 17.3 2.41 25.83.06.59 1.33 1.46 2.08 1.52 6.9.48 13.81.78 20.71 1.21 3.88.24 7.89.12 11.6 1.1 7.28 1.92 11.96 6.89 14.69 13.96 2.87 7.41 4.16 15.07 4.45 22.93 1.06 29.41 2.06 58.82 3.1 88.23.24 6.71.39 13.43.8 20.13.92 15.07 2.62 30.11 2.82 45.18.23 16.99-.8 34-1.43 51-.03.93-1.22 2.36-2.14 2.63-6.78 1.93-8.76.83-9.63-6.3-.84-6.87-1.06-13.82-1.33-20.75-1.46-37.69-2.85-75.37-4.27-113.06 0-1.08-.07-2.18-.18-4.18zm-40.03-85.93c.88 7.28 1.45 14.71 2.79 22 .9 4.85 4.05 7.91 9.32 9.25 8.39 2.13 16.77 1.72 25.53 1.66.08-7.94.48-15.6-1.77-23.13-1.5-5.05-4.65-8.33-9.64-9.78-8.4-2.45-16.84-3.03-26.23 0z" fill="#010103"/><g fill="#fcfbfa"><path d="m385.2 377.6.6-.7c.6.4 1.3.9 1.9 1.5l-.6.7c-.8-.5-1.4-1-1.9-1.5zm.3 7.1c.6-1.4 1.1-2.9 1.5-4.5.3.1.6.3.9.4-.5 1.4-1 2.9-1.5 4.4zm.2-10.1.6-.6c.7.5 1.3 1.1 1.9 1.6l-.7.7c-.6-.6-1.2-1.2-1.8-1.7zm8.4-.8h.8v.9h1.8v.7h-1.8v1.8h-.8v-.3h-1.2v.9h3.3v2.6h-.8v-.4h-2.5c0 .3 0 .6-.1.8h3.4v.7h-3.5c0 .3-.1.6-.1.8h4v.7h-3.5c.7.9 1.9 1.3 3.6 1.5-.2.2-.4.5-.6.9-1.9-.3-3.2-1.1-3.8-2.3-.5 1.1-1.8 2-3.9 2.4-.2-.3-.4-.5-.6-.8 1.9-.4 3.1-.9 3.6-1.7h-3.2v-.7h3.5c.1-.2.1-.5.2-.8h-3.3v-.7h3.4c0-.2 0-.5 0-.8h-2.4v.3h-.8v-2.6h3.3v-.9h-1.2v.3h-.8v-1.8h-1.8v-.7h1.8v-.9h.8v.9h3.2zm-4.4 5.5h2.4c0-.3 0-.6 0-.9h-2.4zm1.2-3.1h3.2v-.8h-3.2zm4.4 2.2h-2.4v.9h2.5v-.9z"/><path d="m389.2 385.8h.9v1.5h1.9v-1.5h.9v1.5h2.7v6h1.1v.9h-11.3v-.9h1.1v-6h2.7zm.2 8.7.5.8c-1.2.6-2.5 1.3-4 1.9-.2-.3-.3-.6-.6-.8 1.6-.6 3-1.3 4.1-1.9zm-2-4.3h1.9v-2.1h-1.9zm0 3.1h1.9v-2.2h-1.9zm2.7-3.1h1.9v-2.1h-1.9zm0 3.1h1.9v-2.2h-1.9zm2.4 1.3c1.4.6 2.7 1.2 4.1 1.8l-.5.9c-1.5-.7-2.8-1.4-4.1-1.9zm2.2-6.5h-1.9v2.1h1.9zm-1.9 5.2h1.9v-2.2h-1.9z"/></g></svg>