<svg enable-background="new 0 0 400 400" viewBox="0 0 400 400" xmlns="http://www.w3.org/2000/svg"><path d="m361.2 9.6.8-1c.9.7 1.9 1.4 2.9 2.3l-.9 1.1c-1-1-2-1.8-2.8-2.4zm.5 10.6c.9-2.1 1.6-4.3 2.3-6.7.4.2.8.4 1.3.6-.7 2.1-1.5 4.3-2.2 6.6zm.4-15.2.9-.9c1 .8 2 1.6 2.8 2.4l-1 1c-.9-.9-1.8-1.7-2.7-2.5zm12.5-1.2h1.2v1.4h2.7v1.1h-2.7v2.7h-1.2v-.6h-1.8v1.3h4.9v3.8h-1.2v-.5h-3.7c0 .4-.1.9-.1 1.2h5.1v1h-5.2c0 .5-.1.9-.2 1.2h6v1h-5.2c1.1 1.3 2.9 2 5.5 2.2-.4.4-.7.8-.9 1.3-2.9-.5-4.8-1.6-5.7-3.5h-.1c-.8 1.7-2.7 2.9-5.9 3.6-.2-.4-.6-.8-.9-1.1 2.8-.6 4.6-1.4 5.4-2.5h-4.8v-1h5.3c.1-.3.2-.7.2-1.2h-4.9v-1h5c0-.4 0-.8.1-1.2h-3.5v.5h-1.2v-3.8h4.9v-1.3h-1.8v.5h-1.2v-2.7h-2.7v-1h2.6v-1.4h1.2v1.4h4.7v-1.4zm-6.6 8.3h3.6c0-.4 0-.9 0-1.4h-3.6zm1.9-4.6h4.7v-1.3h-4.7zm6.6 3.2h-3.7v1.4h3.7z" fill="#fbfcfa"/><path d="m385.3 3.8h1.3v2.2h2.8v-2.2h1.3v2.2h4.1v9.1h1.7v1.3h-16.9v-1.3h1.7v-9.1h4.1v-2.2zm.4 13.1.7 1.2c-1.8.9-3.8 1.9-6 2.9-.2-.4-.5-.8-.8-1.3 2.3-1 4.3-1.9 6.1-2.8zm-3.1-6.4h2.8v-3.2h-2.8zm0 4.6h2.8v-3.3h-2.8zm4-4.6h2.8v-3.2h-2.8zm0 4.6h2.8v-3.3h-2.8zm3.7 1.9c2.1.9 4.1 1.8 6.1 2.7l-.7 1.3c-2.2-1.1-4.2-2-6.1-2.9zm3.2-9.7h-2.8v3.2h2.8zm-2.8 7.8h2.8v-3.3h-2.8z" fill="#fbfcfa"/><g fill="#010102"><path d="m154.27 293.91c-1.13 2.86-.06 4.74 2.77 5.15 7.27 1.06 14.58 2.64 21.87 2.61 16.02-.05 30.29 4.07 42.16 15.08 13.78 12.79 22.85 28.24 25.85 46.99.32 1.98.34 4.02.67 6 .55 3.32-1.54 5.09-4.11 5.47-2.47.36-5.43.18-6.79-2.93-3.95-9-7.59-18.17-12.03-26.92-3.05-6.01-7.17-11.49-10.97-17.11-1.37-2.03-3.34-2.22-5.57-.96-1.84 1.04-3.8 1.98-5.82 2.56-3.02.86-3.91 2.86-3.19 5.54 1.59 5.91 3.37 11.77 5.15 17.63.81 2.66 2.03 5.22 2.64 7.92.7 3.09-1.03 4.87-4.09 4.39-3.93-.61-7.27-1.75-9.09-6.13-2.69-6.49-6.22-12.62-9.29-18.96-.78-1.6-1.61-2.31-3.55-2.2-6.36.35-12.75.35-19.11.71-1.02.06-2.38 1.07-2.89 2.01-1.74 3.24-1.48 6.7-.32 10.09 1.94 5.71 4.15 11.34 5.86 17.11 1.36 4.59-1.87 7.9-6.45 6.92-1.01-.22-2.21-.82-2.76-1.63-8.17-11.83-12.78-24.59-9.49-39.16.37-1.64 1.64-3.41 3-4.42 7.25-5.38 15.61-5.95 24.3-5.45 7.83.45 15.11-1.93 22.52-5.42-6.21-3.12-12.36-4.36-18.82-4.44-5.58-.07-11.25.26-16.73-.56-14.41-2.17-20.97-9.21-21.49-23.79-.75-21.02-.81-42.07-1.17-63.1-.24-14.1-.36-28.2-.87-42.29-.12-3.35.92-4.83 3.9-5.78 1.77-.56 4.81-1.96 4.72-2.68-.37-3.18-1.08-6.65-2.81-9.26-1.49-2.27-4.45-3.62-6.89-5.19-1.29-.83-2.83-1.25-4.78-2.07-.19 1.62-.42 2.88-.49 4.15-.26 4.69-.43 9.39-.7 14.08-.18 3.14-1.42 5.63-4.64 6.69-3.76 1.24-5.9.53-6.93-3.27-1.24-4.6-1.77-9.39-2.47-14.12-.34-2.3-.36-4.64-.52-6.94-5.36.11-11.89 5.02-13.21 9.81-.86 3.12-1.56 6.29-2.4 9.42-1.15 4.31-3.42 5.94-7.82 5.38-.99-.13-2.49-1-2.69-1.79-.77-3.2-1.61-6.52-1.5-9.76.12-3.53 1.18-7.04 2.03-10.51.24-.98 1.03-1.96 1.81-2.66 2.5-2.24 5.21-4.25 7.66-6.53 3.67-3.41 7.68-6.15 12.67-7.12 3.43-.67 4.15-2.86 3.71-5.83-5.34-1.78-10.67-3.38-15.88-5.34-5.06-1.9-6.42-4.03-6.28-9.41.06-2.44.36-4.93.98-7.29.36-1.36 1.34-2.86 2.48-3.67 4.29-3.03 8.8-5.74 13.16-8.68 3.18-2.14 5.29-5.04 5.63-8.74-5.77-2.22-11.48-4.15-16.96-6.6-5.83-2.61-7.4-6.29-6.15-12.51.86-4.26 2.47-7.93 5.92-10.92 4.73-4.09 8.89-8.86 13.65-12.92 3.83-3.26 4.77-7.15 4.72-11.87-.03-2.93.55-5.99 1.48-8.78.65-1.96 1.36-4.64 4.84-3.71 4.18 1.11 6.54 3.03 6.71 6.39.08 1.55-.14 3.12-.24 4.69-.12 1.89-.33 3.79-.35 5.68-.03 3.87 1.12 6.78 4.74 9.19 6.58 4.39 11.77 10.28 15.18 17.56.28.6.6 1.21.76 1.86 3.14 12.92 1.68 14.32-9.24 18.86-1.65.69-3.54.92-5.03 1.83-2.06 1.27-3.84 2.98-6.35 4.99 3.97 1.8 7.02 2.86 9.73 4.49 3.91 2.35 7.84 4.8 11.29 7.76 5.04 4.33 5.99 13.27 2.42 18.82-.5.77-1.44 1.42-2.32 1.76-4.58 1.76-9.2 3.41-13.81 5.09-2.64.96-5.3 1.89-6.33 5.36 1.7.97 3.42 1.93 5.13 2.94 5.11 3.01 10.17 6.09 15.31 9.03 5.34 3.05 7.93 7.67 8.23 13.71.02.45.07.9.04 1.34-.28 3.22-.26 6.52-.96 9.65-.92 4.09-5.47 1.82-7.92 4.18.58 23.46 1.17 47.25 1.76 71.38 4.88.41 9.54.68 14.16 1.2 17.34 1.93 34.66 4.02 52 5.88 9.63 1.03 19.02 2.82 27.76 7.17 16.03 7.98 27.57 20.4 35.41 36.32 1.4 2.84 1.96 6.15 2.53 9.31.16.86-.8 2.54-1.63 2.86-7.15 2.78-4.59 3.79-9.63-2.24-3.29-3.93-6.37-8.15-8.8-12.65-8.57-15.79-22.01-24.41-39.39-26.96-9.26-1.36-18.67-1.78-28.02-2.51-14.45-1.14-28.92-2.19-43.69-3.3-.18 1.89-.43 4.51-.7 7.4 7.47.54 14.58 1.08 21.7 1.57 11.16.77 22.32 1.45 33.48 2.25 13.01.94 24.4 6.11 33.64 15.02 11.09 10.71 21.47 22.17 32.05 33.4 2.77 2.94 4.17 6.61 4.07 10.72-.09 3.57-2.17 5.57-5.63 4.68-2.46-.63-5.14-1.94-6.84-3.77-6.61-7.14-12.89-14.59-19.24-21.98-6.09-7.09-12.89-13.33-20.75-18.44-7.78-5.05-16.59-6.85-25.48-7.47-14.38-1-28.83-1.08-43.25-1.53-.29 0-.62.15-.93.22zm-49.49-217.61c1.56 2.05 2.85 5.33 4.31 5.4 9.56.47 19.16.24 28.76.24-.46-6.71-9.12-15.48-15.52-15.89-.81-.05-1.75.31-2.46.75-4.74 2.93-9.44 5.94-15.09 9.5zm35.71 48.65c.06-.41.13-.81.19-1.22-3.34-4.6-8.33-6.35-13.55-7.74-8.43-2.23-14.26 4.36-21.51 5.83-.1 2.78 1.05 3.47 3.27 3.38 5.01-.19 10.03-.22 15.04-.25 5.52-.02 11.04 0 16.56 0z"/><path d="m208.36 147.04c3.4.57 6.56 1.09 9.74 1.63.82-2 1.13-4.13 2.34-5.38 1.49-1.54 3.63-2.85 5.69-3.25 1.03-.2 2.93 1.61 3.69 2.94 3.69 6.38 3.33 13.29 2 20.21-2.52 13.16-8.2 19.11-23.26 22.36-8.72 1.88-17.35.77-25.69-2.46-4.75-1.84-8.43-4.83-10.83-9.45-5.04-9.66-6.4-19.6-3.16-30.15 1.06-3.44 4.04-2.65 6.27-3.34.8-.25 2.35.81 3.07 1.67 4.72 5.66 8.01 6.96 15.72 5.87.13-.71.38-1.47.39-2.23.05-2.67.02-5.34.02-8.34-3.94-.96-8.01-2.15-12.16-2.91-8.74-1.62-13.21-7.41-14.32-15.55-.7-5.1-.18-10.47.53-15.61.66-4.83 1.62-5.14 9-5.75 1.05 4.95 2.58 9.98 3.09 15.11.64 6.32 1.93 8.29 8.2 9.26 1.63.25 3.29.32 5.47.51.18-6.57.41-12.9.44-19.23 0-.69-1.03-1.61-1.8-2.03-2.25-1.23-4.61-2.26-6.94-3.36-4.02-1.91-6.47-5.01-7.27-9.42-.44-2.42-1.22-4.82-1.33-7.25-.14-2.95-1.84-3.96-4.26-4.02-3.11-.08-6.25.07-9.34.37-4.16.41-5.85-.94-5.97-5.11-.17-6.19 2.92-9.52 9.14-9.52 20.15-.01 40.29.02 60.44.15 2.65.02 5.34.55 7.93 1.18 3.35.81 5.52 3.68 5.55 7.14.01.84-.51 2.16-1.16 2.46-2.56 1.19-5.23 2.22-7.95 2.99-1.46.41-3.11.09-4.66.21-2.38.18-3.97 1.3-4.13 3.88-.44 7.15-3.71 12.75-9.48 16.83-4.48 3.17-6.03 7.27-5.38 12.65.41 3.41.08 6.91.08 10.93 3.78 0 7.42.1 11.04-.1.59-.03 1.44-1.31 1.61-2.12.78-3.93 1.36-7.9 2.02-11.86.33-1.98.41-4.04 1.06-5.9.91-2.62 3.11-3.48 5.83-3.66 2.72-.19 3.76 1.38 4.6 3.45 3.59 8.82 2.5 17.71-1.71 25.62-2.52 4.74-8.4 6.83-13.89 7.96-7.73 1.57-9.93 4.11-10.27 12.62zm-26.1 15c1.05 2.51 1.83 4.59 2.79 6.57.4.82 1.09 1.87 1.86 2.09 8.99 2.58 17.92 3.3 26.74-.92 2.86-1.37 3.7-3.47 3.59-6.67-11.55-.36-22.99-.71-34.98-1.07zm17.82-84.55c-1.73 0-2.51-.03-3.28 0-4.54.2-6.65 4.15-4.14 8.06.59.91 2.09 1.78 3.14 1.74 3.32-.11 6.64-.57 9.93-1.11.71-.12 1.65-1.01 1.86-1.73 1.15-3.97-.61-6.36-4.8-6.76-1.21-.11-2.43-.18-2.71-.2z"/><path d="m305.68 184.72c-3.07.27-5.72.51-8.47.75-3.62-10.11-2.99-22.51-16.17-27.44-.25 5.19-.47 10.15-.73 15.11-.11 2.01-.19 4.03-.48 6.01-.39 2.62-1.82 4.54-4.41 5.42-3.46 1.17-5.47.41-6.14-3.12-.87-4.57-1.09-9.27-1.6-13.91-.17-1.54.03-3.29-.65-4.57-.64-1.19-2.16-2.54-3.38-2.63-1.36-.1-3.59.78-4.1 1.86-2.02 4.3-3.6 8.82-5.16 13.32-.58 1.67-.46 3.56-.97 5.26-.89 2.97-3.06 4.17-6.14 4.08-2.93-.08-4.24-1.49-4.87-4.31-1.91-8.48-.2-16.43 3.21-24.15.45-1.01 1.59-1.85 2.59-2.46 4.2-2.56 8.51-4.94 12.69-7.51 2.81-1.73 5.18-3.91 5.79-7.5-4.19-1.53-8.44-2.83-12.48-4.61-8.78-3.87-10.69-8.13-7.92-17.35.44-1.46 1.54-2.98 2.76-3.91 4-3.05 8.25-5.76 12.29-8.76 2.93-2.18 5.14-4.92 5.22-8.3-5.63-2.65-11.16-4.79-16.2-7.74-7.37-4.32-8.15-15.51-1.81-21.4 5.49-5.11 10.82-10.41 16.62-15.14 4.17-3.41 4.88-7.5 4.93-12.44.04-4.14 1.06-8.29 1.82-12.41.33-1.76 1.6-2.03 3.34-1.6 5.14 1.28 7.18 3.92 6.73 9.12-.12 1.45-.35 2.88-.55 4.32-.96 6.85-.09 12.43 6.21 17.29 9.39 7.23 14.07 17.15 11.78 29.53-.46 2.49-1.53 4.22-3.76 5.05-3.01 1.13-6.1 2.07-9.21 2.94-3.3.92-5.6 2.65-5.97 6.08 4.81 2.64 9.7 4.88 14.11 7.83 8.35 5.57 10.66 11.43 8.07 19.95-.55 1.83-2 3.94-3.62 4.78-3.83 1.99-8.01 3.33-12.07 4.86-2.87 1.09-5.57 2.31-6.47 5.49 6.78 4.58 13.39 9.12 20.09 13.55 6.13 4.06 8.08 9.95 7.34 16.86-.43 3.95-1.48 7.85-2.26 11.8zm-32.15-123.73c-4.92 4.13-9.74 8.1-14.42 12.23-.57.5-.83 2.08-.47 2.78.78 1.52 1.99 3.93 3.11 3.98 8.22.34 16.46.18 24.95.18-.15-9.62-6.23-14.57-13.17-19.17zm-16.64 58.72c1.46 1.81 2.27 3.9 3.56 4.25 10.22 2.77 20.23.99 30.26-1.63-2.41-6.22-12.99-10.46-19.86-8.08-4.29 1.48-8.47 3.3-13.96 5.46z"/><path d="m185.04 242.63c7.16.89 14.31 1.8 21.47 2.68 14.87 1.83 29.79 3.38 44.6 5.63 5.21.79 10.2 3.17 15.2 5.07 1.37.52 2.64 1.74 3.54 2.95 3.03 4.1 1.67 7.94-3.29 8.62-3.02.41-6.38.47-9.24-.43-15.07-4.76-30.76-5.56-46.23-7.71-10.74-1.5-21.52-2.73-32.27-4.14-.8-.11-1.71-.58-2.26-1.17-6.79-7.22-6.66-14.43-1.94-22.34.74-1.24 2.67-1.94 4.19-2.52 7.84-2.97 16.04-3.95 24.35-4.1 5.6-.1 11.2.1 16.79-.07 2.65-.08 5.36-.46 7.91-1.18 6.92-1.96 9.62-6.64 8.47-13.74-.32-1.95-1.05-2.77-3.03-3.28-11.03-2.81-22.18-2.06-33.36-1.71-12.43.4-24.85-.1-36.88-3.72-4.82-1.45-6.12-4.68-3.99-9.11 1.37-2.85 4.1-3.4 6.79-3.28 9.05.42 18.08 1.21 27.12 1.58 7.14.29 14.35-.3 21.45.35 7.98.72 15.99 1.93 23.79 3.77 8.96 2.12 13.44 7.85 13.08 16.98-.24 6.06-1.96 12.07-3.29 18.05-.24 1.07-1.63 2.07-2.71 2.74-8.42 5.25-17.72 6.55-27.41 5.68-8.92-.8-17.85-1.81-26.61 1.02-2.17.7-4.24 1.71-6.36 2.58.02.27.07.54.12.8z"/><path d="m193.63 207.02c8.24.46 16.48.77 24.7 1.44 3.91.32 7.34 1.62 7.86 6.54.2 1.9.03 3.09-1.84 3.49-6.52 1.38-13.01 3.23-19.61 3.86-10.81 1.02-21.66.63-32.33-1.82-5.53-1.27-6.78-2.35-5.51-7.88.43-1.9 4.42-3.97 6.94-4.2 6.54-.59 13.16-.2 19.75-.2.01-.41.02-.82.04-1.23z"/><path d="m175.72 48.86c0-2.79 0-5.34 0-8.61 4.86-.8 9.73-2.01 14.65-2.31 7.35-.44 14.75-.46 22.12-.23 3.27.1 6.65.87 9.72 2.02 3.69 1.38 5.28 4.1 5.93 8.23-12.25 5.96-35.8 7.61-52.42.9z"/></g></svg>