<svg enable-background="new 0 0 400 400" viewBox="0 0 400 400" xmlns="http://www.w3.org/2000/svg"><path d="m361.2 9.6.8-1c.9.7 1.9 1.4 2.9 2.3l-.9 1.1c-1-1-2-1.8-2.8-2.4zm.5 10.6c.9-2.1 1.6-4.3 2.3-6.7.4.2.8.4 1.3.6-.7 2.1-1.5 4.3-2.2 6.6zm.4-15.2.9-.9c1 .8 2 1.6 2.8 2.4l-1 1c-.9-.9-1.8-1.7-2.7-2.5zm12.5-1.2h1.2v1.4h2.7v1.1h-2.7v2.7h-1.2v-.6h-1.8v1.3h4.9v3.8h-1.2v-.5h-3.7c0 .4-.1.9-.1 1.2h5.1v1h-5.2c0 .5-.1.9-.2 1.2h6v1h-5.2c1.1 1.3 2.9 2 5.5 2.2-.4.4-.7.8-.9 1.3-2.9-.5-4.8-1.6-5.7-3.5h-.1c-.8 1.7-2.7 2.9-5.9 3.6-.2-.4-.6-.8-.9-1.1 2.8-.6 4.6-1.4 5.4-2.5h-4.8v-1h5.3c.1-.3.2-.7.2-1.2h-4.9v-1h5c0-.4 0-.8.1-1.2h-3.5v.5h-1.2v-3.8h4.9v-1.3h-1.8v.5h-1.2v-2.7h-2.7v-1h2.6v-1.4h1.2v1.4h4.7v-1.4zm-6.6 8.3h3.6c0-.4 0-.9 0-1.4h-3.6zm1.9-4.6h4.7v-1.3h-4.7zm6.6 3.2h-3.7v1.4h3.7z" fill="#fbfcfa"/><path d="m385.3 3.8h1.3v2.2h2.8v-2.2h1.3v2.2h4.1v9.1h1.7v1.3h-16.9v-1.3h1.7v-9.1h4.1v-2.2zm.4 13.1.7 1.2c-1.8.9-3.8 1.9-6 2.9-.2-.4-.5-.8-.8-1.3 2.3-1 4.3-1.9 6.1-2.8zm-3.1-6.4h2.8v-3.2h-2.8zm0 4.6h2.8v-3.3h-2.8zm4-4.6h2.8v-3.2h-2.8zm0 4.6h2.8v-3.3h-2.8zm3.7 1.9c2.1.9 4.1 1.8 6.1 2.7l-.7 1.3c-2.2-1.1-4.2-2-6.1-2.9zm3.2-9.7h-2.8v3.2h2.8zm-2.8 7.8h2.8v-3.3h-2.8z" fill="#fbfcfa"/><g fill="#010102"><path d="m112.86 240.18c-2.75-1.55-5.08-3.1-7.59-4.24-9.28-4.21-13.42-11.6-14.92-21.46-2.95-19.41-2.97-38.79-1.01-58.25 2.37-23.45 3.09-46.92.44-70.38-1.38-12.22-3.6-24.35-5.04-36.56-.93-7.87-1.25-15.83 1.47-23.48 5.13-.07 9.28 2.3 10.2 7.08 1.74 8.98 3.1 18.06 3.94 27.16 1.57 17.16 2.94 34.36 3.84 51.57.49 9.37-.05 18.8-.34 28.19-.08 2.59.59 3.64 3.21 4.28 9.99 2.43 19.93 5.05 29.83 7.85 2.83.8 5.6 2.15 8.09 3.73 4.25 2.69 8.44 5.54 12.31 8.73 2.87 2.37 5.88 5.01 7.65 8.18 10.62 19.13 17.68 39.34 16.82 61.64-.16 4.1-2.87 5.98-6.79 5.08-2.01-.46-2.83-1.67-3.28-3.63-2.83-12.31-5.71-24.61-8.7-36.88-1.93-7.93-5.59-15.04-10.67-21.46-4.52-5.71-10.22-9.88-17.11-11.86-10.17-2.92-20.52-5.19-31.24-7.84-.59 6.07-1.19 11.27-1.5 16.5-.05.79 1.08 2.07 1.95 2.42 5.29 2.13 10.69 3.97 15.99 6.06 19.25 7.59 31.56 22.13 37.62 41.23 4.64 14.63 6.95 30.01 10.08 45.1 3.24 15.65 6.19 31.36 9.34 47.03 1.51 7.51 2.23 15.01 1.02 22.66-.47 3-2.24 4.84-4.76 5.4-2.55.57-4.62-.89-5.89-3.42-3.29-6.55-4.05-13.63-4.89-20.77-3.17-26.89-6.56-53.78-13.61-79.96-2.44-9.05-7.08-17.55-11.13-26.11-3.82-8.07-10.65-13.14-18.73-16.49-5.15-2.14-10.45-3.89-16.73-6.2-.23 4.74-.92 8.92-.51 13 .46 4.52 1.88 8.95 2.99 13.4.23.9.79 1.91 1.51 2.47 3.07 2.42 5.97 5.32 9.45 6.92 12.08 5.53 17.81 15.54 21.36 27.65 7.31 24.96 9.52 50.5 9.33 76.34-.09 12.69-1.46 25.23-4.79 37.52-.69 2.55-1.73 4.68-4.76 4.76-3 .08-4.53-1.62-5.48-4.37-2.34-6.81-1.29-13.7-.9-20.62.4-7.12.85-14.27.69-21.4-.29-13.09-.77-26.19-1.65-39.26-.42-6.19-1.72-12.34-3.01-18.43-1.2-5.67-2.93-11.23-4.41-16.78-6.5-.22-7.42.65-8.02 6.86-1.43 14.74.33 29.34 2.58 43.8 1.87 12 5.13 23.78 7.82 35.65.61 2.7 1.32 5.44-1.83 7.02-2.74 1.37-7.93-.42-9.37-3.09-6.76-12.5-9.16-25.93-9.44-40.07-.26-12.71-1.62-25.4-2.5-38.1-.52-.1-1.04-.19-1.56-.29-1.5 2.98-3.15 5.88-4.46 8.94-4.3 10.05-6.24 20.61-5.35 31.47 1.14 13.92 2.98 27.79 4.28 41.71.35 3.72.15 7.57-.35 11.28-.4 2.91-2.59 4.56-5.66 4.82-2.64.22-4.17-.43-5.04-3.41-5.9-20.31-8.41-40.95-6.62-62.04 1.08-12.8 4.28-25.11 9.46-36.87.54-1.23 1.71-2.32 2.83-3.12 7.7-5.53 15.46-10.96 23.54-16.66z"/><path d="m313.2 55.32c-7.16 3.62-14.91 5.39-22.88 5.15-9.14-.28-18.27-1.25-27.36-2.3-12.62-1.46-24.96-1.12-36.96 3.64-4.34 1.72-7.73 4.33-8.81 8.88-1.51 6.38-3.19 12.83-3.61 19.33-2.08 31.94-3.37 63.93-5.75 95.84-1.36 18.13-2.69 36.22-.45 54.27 1.25 10.04 3.98 19.9 6.22 29.79.28 1.25 1.5 2.45 2.56 3.36 8.46 7.27 18.56 9.67 29.44 10.48 10.4.77 20.11 3.95 29.7 8.53 13.5 6.46 20.26 17.33 24.05 30.82 4.35 15.47 6.27 31.13 2.67 47.08-.92 4.07-3.66 5.87-7.69 4.8-.81-.22-1.53-1.43-1.95-2.34-4.11-8.98-5.08-18.49-4.5-28.21.6-10.04-1.08-19.5-5.75-28.55-3.33-6.45-8.74-9.96-14.99-12.69-8.33-3.64-17.22-4.6-26.14-5.43-9.57-.89-18.57-3.58-27.13-8.04-11.81-6.15-16.68-16.67-18.59-28.98-2.97-19.14-2.15-38.38-1.22-57.63 1.13-23.14 1.75-46.32 3.24-69.43 1.26-19.41 3.09-38.79 5.43-58.1.79-6.52 3.86-12.79 6.04-19.11.37-1.06 1.41-2.01 2.34-2.75 7.91-6.31 17.02-9.23 27.06-9.17 17.68.11 35.35.27 53.02.61 4.9.09 9.81.67 14.66 1.41 4.89.77 6.89 3.35 7.35 8.74z"/><path d="m104.9 30.68c4.08 1.28 8.31 2.32 12.33 3.91 9.71 3.85 19.9 4.89 30.14 5.88 5.11.49 10.46.43 15.23 2.02 8.29 2.77 14.13 8.85 16.28 17.43 3.3 13.17 1.76 25.98-4.74 38.02-.63 1.18-1.85 2.21-3.04 2.88-7.29 4.09-15.31 5.37-23.5 6.05-3.89.32-7.76.98-11.65 1.33-2.04.18-2.9 1.13-3.22 3.1-.6 3.74-1.42 7.45-2.2 11.45 7.53 1.71 14.94 3.21 22.24 5.11 6.79 1.77 13.69 3.43 20.14 6.12 8.05 3.35 12.07 11.2 11.19 19.55-.31 2.95-2.28 4.37-5.06 3.35-1.65-.6-3.4-1.43-4.6-2.65-10.84-11.09-24.31-15.39-39.42-15.75-2.1-.05-4.25-.41-6.28-.96-9.38-2.55-13.71-9.78-11.98-20.14.59-3.51 1.78-6.92 2.42-10.43.68-3.74 2.84-6.08 6.03-7.9 5.46-3.11 11.24-4.72 17.54-4.93 5.11-.17 10.3-.35 15.27-1.4 5.85-1.24 8.85-4.81 8.66-10.75-.23-7.09-.94-14.31-2.7-21.15-.61-2.37-4.75-4.59-7.69-5.41-3.88-1.09-8.16-.78-12.28-.98-13.75-.67-26.11-5.43-37.37-13.1-4.11-2.79-4.4-5.99-1.74-10.65z"/><path d="m279.43 93.83c0-4.68.03-8.9-.01-13.12-.02-2.23-.57-4.55-.14-6.68.42-2.05 1.38-4.37 2.87-5.75 3.24-2.99 5.5-2.31 7.25 1.69 4.77 10.91 5.63 22.46 5.42 34.17-.2 10.88-1.23 21.64-4.09 32.19-.86 3.18-2.44 5.51-5.03 7.58-13.43 10.72-30.46 9.78-44.18 2.65-1.61-.84-2.76-2.86-3.75-4.55-5.93-10.13-7.66-21.39-8.21-32.85-.63-12.92.04-25.75 5.07-37.92.73-1.78.49-4.83 3.74-4.66 3.22.16 6.64 2.61 7.12 5.67.4 2.57.01 5.29-.18 7.93-.27 3.67-.83 7.32-.91 10.99-.02.87 1.39 2.54 2.17 2.55 10.7.16 21.43.11 32.86.11zm-34.5 15.62c-.16 2.44-.45 4.9-.44 7.35.01 2.91-.21 5.96.57 8.68 1.02 3.54 2.03 8.18 4.66 9.94 6.53 4.38 18.66 4.94 25.75-.54.92-.71 2.12-1.72 2.25-2.71.94-7.39 1.64-14.8 2.48-22.73-11.99.01-23.46.01-35.27.01z"/><path d="m303.11 198.09c0-6.82-.12-13.28.06-19.73.08-2.73.35-5.62 1.32-8.13 1.11-2.89 3.9-4.12 7.22-4.47 3.74 6.51 5.44 13.68 6.19 21 1.99 19.18.42 38.11-3.95 56.93-2.55 10.98-10.43 13.19-18.4 13.53-4.66.2-9.46-1.96-14.12-3.32-.94-.28-1.74-1.64-2.27-2.67-5.51-10.78-7.43-22.45-7.89-34.35-.58-15 .04-29.96 2.51-44.81.56-3.34 2.8-6.32 4.93-6.29 3.76.06 7.63 3.01 7.79 6.56.13 2.84-.67 5.72-.94 8.59-.39 4.21-.75 8.42-.99 12.64-.11 1.94.82 2.96 2.99 3.1 5.13.34 10.23.92 15.55 1.42zm-17.17 12.69c-.66 8.29-.99 16.19.71 23.99 1.76 8.08 2.58 8.52 10.82 8.54 2.25 0 3.27-.82 3.65-2.86 1.3-7.02 2.72-14.01 3.87-21.05.31-1.93.16-4.1-.44-5.94-.36-1.11-1.97-2.5-3.08-2.56-5.01-.28-10.04-.12-15.53-.12z"/><path d="m222.58 167.32c7.74 1.73 10.28 5.67 9.37 12.73-.57 4.42-.91 8.88-1.15 13.33-.08 1.5.43 3.04.69 4.68h16.58c0-4.01-.11-7.98.03-11.95.13-3.79.16-7.64.94-11.31.42-1.96 2-4.06 3.66-5.29 3.65-2.7 5.93-1.82 7.52 2.34 3.28 8.62 4.3 17.71 3.82 26.74-.72 13.48-2.08 26.96-3.85 40.35-1.16 8.77-8.75 14.65-17.71 15.17-5.74.33-11.1-1.03-16.16-3.59-.97-.49-1.99-1.61-2.27-2.63-2.21-8.05-4.9-16.04-6.19-24.25-2.21-14.07-2.96-28.3.23-42.37 1.06-4.72 2.95-9.26 4.49-13.95zm8.53 44.01c.31 6.66.32 13.46 1.08 20.18.31 2.72 2.19 5.29 3.54 7.83.33.61 1.48 1.29 2.09 1.16 2.61-.56 5.53-.89 7.58-2.36 1.16-.83.95-3.69 1.19-5.66.84-6.86 1.6-13.73 2.46-21.15-5.95 0-11.56 0-17.94 0z"/><path d="m134.48 67.29c5.32.47 10.68.65 15.94 1.49 4.46.71 7.02 3.49 7.05 6.89.01.96-.75 2.57-1.49 2.79-13.01 3.94-26.12 5.99-39.28.7-1.1-.44-2.43-1.72-2.59-2.76-.28-1.91-.56-3.8 1.69-5.55 5.25-4.08 11.18-2.99 16.98-3.21.56-.02 1.12 0 1.67 0 .01-.12.02-.23.03-.35z"/></g></svg>