<svg enable-background="new 0 0 400 400" viewBox="0 0 400 400" xmlns="http://www.w3.org/2000/svg"><path d="m361.2 9.6.8-1c.9.7 1.9 1.4 2.9 2.3l-.9 1.1c-1-1-2-1.8-2.8-2.4zm.5 10.6c.9-2.1 1.6-4.3 2.3-6.7.4.2.8.4 1.3.6-.7 2.1-1.5 4.3-2.2 6.6zm.4-15.2.9-.9c1 .8 2 1.6 2.8 2.4l-1 1c-.9-.9-1.8-1.7-2.7-2.5zm12.5-1.2h1.2v1.4h2.7v1.1h-2.7v2.7h-1.2v-.6h-1.8v1.3h4.9v3.8h-1.2v-.5h-3.7c0 .4-.1.9-.1 1.2h5.1v1h-5.2c0 .5-.1.9-.2 1.2h6v1h-5.2c1.1 1.3 2.9 2 5.5 2.2-.4.4-.7.8-.9 1.3-2.9-.5-4.8-1.6-5.7-3.5h-.1c-.8 1.7-2.7 2.9-5.9 3.6-.2-.4-.6-.8-.9-1.1 2.8-.6 4.6-1.4 5.4-2.5h-4.8v-1h5.3c.1-.3.2-.7.2-1.2h-4.9v-1h5c0-.4 0-.8.1-1.2h-3.5v.5h-1.2v-3.8h4.9v-1.3h-1.8v.5h-1.2v-2.7h-2.7v-1h2.6v-1.4h1.2v1.4h4.7v-1.4zm-6.6 8.3h3.6c0-.4 0-.9 0-1.4h-3.6zm1.9-4.6h4.7v-1.3h-4.7zm6.6 3.2h-3.7v1.4h3.7z" fill="#fbfcfa"/><path d="m385.3 3.8h1.3v2.2h2.8v-2.2h1.3v2.2h4.1v9.1h1.7v1.3h-16.9v-1.3h1.7v-9.1h4.1v-2.2zm.4 13.1.7 1.2c-1.8.9-3.8 1.9-6 2.9-.2-.4-.5-.8-.8-1.3 2.3-1 4.3-1.9 6.1-2.8zm-3.1-6.4h2.8v-3.2h-2.8zm0 4.6h2.8v-3.3h-2.8zm4-4.6h2.8v-3.2h-2.8zm0 4.6h2.8v-3.3h-2.8zm3.7 1.9c2.1.9 4.1 1.8 6.1 2.7l-.7 1.3c-2.2-1.1-4.2-2-6.1-2.9zm3.2-9.7h-2.8v3.2h2.8zm-2.8 7.8h2.8v-3.3h-2.8z" fill="#fbfcfa"/><g fill="#010102"><path d="m223.03 256.1c-5.54-3.9-11.11-7.78-16.63-11.71-6.07-4.32-10.9-9.67-13.02-16.96-1.4-4.82-2.66-9.71-3.5-14.65-2.78-16.38-1.79-32.78.26-49.15 2.84-22.7 4.56-45.49 2.22-68.31-1.93-18.89-3.6-37.85-8.04-56.41-.73-3.04-.24-6.45.13-9.63.38-3.27 2.87-4.62 5.98-3.76 4.24 1.17 6.59 4.2 7.5 8.23 1.5 6.64 2.91 13.32 3.97 20.04 4.89 31.34 4.55 62.89 3.57 94.45-.07 2.12-.01 4.24-.01 6.78 4.88.2 9.76.25 14.61.64 9.25.73 18.61.93 27.68 2.66 16.5 3.15 28.84 13.41 38.09 26.71 13.31 19.15 23.77 39.92 30.95 62.22.51 1.6 1.08 3.17 1.63 4.76 1.36 3.93 1.01 4.88-2.44 6.51-2.27 1.08-5.22.01-6.68-2.79-6.71-12.88-13.51-25.72-19.93-38.75-5.12-10.38-10.81-20.29-18.58-28.98-6.71-7.5-14.87-12.42-24.52-14.98-13.34-3.54-27-2.9-40.9-3.38-.58 8.17-1.14 15.93-1.72 24.09 2.4.18 4.47.42 6.55.47 28.14.62 49.64 13.25 65.16 36.35 12.14 18.07 19.73 38.27 26.63 58.75 2.92 8.67 6 17.3 8.95 25.96.39 1.15.47 2.41.65 3.62.84 5.66.76 5.51-4.14 8-2.38 1.21-3.62.82-5.22-1.24-4.88-6.28-8.02-13.33-10.34-20.89-8.38-27.35-20.49-52.95-37.32-76.12-8-11.01-19.97-15.83-32.93-18.25-5.23-.98-10.57-1.34-16.3-2.04.83 6.01 1.49 11.41 2.38 16.78.18 1.07 1.1 2.18 1.98 2.93 8.9 7.66 18.07 15.02 26.75 22.93 7.42 6.76 15.14 13.47 21.19 21.37 8.16 10.66 11.09 23.82 13.34 36.88 2.97 17.24 4.51 34.61 3.54 52.13-.14 2.45-.6 4.9-.65 7.35-.06 3.13-1.13 4.74-4.57 5.18-4.77.61-4.96 1-6.46-3.53-1.18-3.57-2.6-7.42-2.36-11.05 1.32-20.3-3.91-39.73-7.06-59.47-1.77-11.11-7.79-19.82-13.95-28.6-1.86-2.65-4.07-3.67-7.42-1.96-3.56 1.81-7.44 3.04-11.24 4.36-1.89.66-2.48 1.57-2.35 3.67 1 15.83 5.97 30.66 11.27 45.4 1.63 4.52 3.89 8.81 5.39 13.36.92 2.78 1.31 5.86 1.26 8.8-.05 2.84-2.2 4.43-4.91 5.27-2.16.67-3.36.1-4.56-1.92-7.59-12.82-12.71-26.61-16.14-41.03-1.49-6.29-2.3-12.74-3.46-19.11-.22-1.21-.3-2.58-.95-3.53-.95-1.38-2.2-3.07-3.62-3.42-1.02-.25-2.9 1.2-3.76 2.36-7.13 9.65-9.16 20.47-6.8 32.13 2.59 12.82 5.37 25.6 7.95 38.42.36 1.81.3 3.79.01 5.63-.45 2.83-2.27 4.71-5.19 4.84-2.88.13-5.69.09-7.34-3.27-4.75-9.69-6.91-20.05-8.26-30.61-1.71-13.46-2.52-26.94-.32-40.47 1.07-6.57 3.23-12.31 9.38-15.7 5.54-3.06 11.08-6.15 16.77-8.92 5.8-2.83 11.77-5.3 17.67-7.92.07-.5.13-1.01.18-1.52z"/><path d="m123.5 28.5c6.69 3.88 8.32 9.67 7.6 16.53-.64 6.11-1.32 12.22-1.89 18.34-.13 1.42.15 2.87.23 4.18 8.09 1.51 16.06 2.62 23.83 4.53 10.76 2.65 17.38 9.48 19.23 20.72 2.68 16.25 4.83 32.52 3.9 49.06-.77 13.76-3.65 27-9.41 39.55-2.05 4.46-9.75 7.93-15.91 7.28-.67-.07-1.33-.2-1.99-.34-10.38-2.17-8.39-.77-8.23-10.91 4.09-.95 8.33-1.8 12.48-2.96 1.13-.32 2.67-1.43 2.88-2.42 3.52-16.51 7.29-33.02 6.68-50.08-.37-10.21-1.55-20.3-5.17-29.93-.52-1.37-1.81-2.78-3.11-3.48-11.29-6.06-23.51-6.89-35.89-5.41-6.17.74-12.23 2.52-18.27 4.08-1.34.35-2.72 1.52-3.54 2.7-5.91 8.47-7.9 18.23-8.29 28.25-.69 17.62.99 35.07 4.51 52.36.53 2.61 1.74 4.23 4.28 4.86 2.81.7 5.64 1.31 8.44 2.08 1.8.5 3.81.83 5.25 1.89 3.89 2.85 3.42 6.82-.77 9.03-7.19 3.79-14.41 2.64-21.35-.37-1.96-.85-3.32-3.51-4.54-5.58-5.62-9.54-8.15-20.05-9.12-30.95-1.76-19.85-.8-39.48 4.13-58.94 2.9-11.45 10.99-16.93 20.97-20.45 4.67-1.65 9.82-2.13 14.8-2.68 2.66-.29 3.64-1.42 3.49-3.77-.32-5.23-.57-10.48-1.21-15.67-.98-7.96.82-15.03 5.99-21.5z"/><path d="m210.47 30.21c7.41 2.25 14.75 4.23 21.92 6.71 10.61 3.66 21.47 5.07 32.64 5.01 6.43-.04 12.83.96 18.44 4.23 8.38 4.88 12.62 12.49 12.78 22.19.14 8.43-.65 16.78-3.94 24.66-.75 1.79-1.89 3.58-3.28 4.92-6.57 6.3-14.44 9.58-23.62 9.57-5.82 0-11.65-.05-17.46.15-7.86.28-9.88 2.12-11.19 9.65-.15.87-.34 1.74-.63 3.22 4.62 1.5 9.16 3.31 13.87 4.45 10.21 2.46 20.56 4.36 30.74 6.93 4.16 1.05 8.37 2.71 11.95 5.03 7.14 4.64 9.43 11.78 8.65 20.32-4.97.24-9.22.57-13.55-3.44-11.27-10.43-25.43-14.35-40.42-16.07-5.59-.64-11.37-1.63-16.51-3.79-7.37-3.1-10.13-9.91-8.54-17.75.29-1.42.87-2.82.96-4.25.54-8 5.43-12.01 12.45-14.7 8.61-3.3 17.35-3.89 26.38-2.93 10.23 1.09 15.93-3.27 18.54-13.18 1.6-6.07 1.14-11.97-.24-17.89-.26-1.11-1.43-2.21-2.46-2.92-7.07-4.86-15.04-6.76-23.51-6.59-9.81.2-19.52-.53-28.73-4.04-4.97-1.9-9.73-4.47-14.29-7.24-4.3-2.58-4.47-6.63-.95-12.25z"/><path d="m118.83 131.91c-5 0-9.85-.1-14.7.03-5.52.14-7.93-2.49-6.85-7.86.16-.8.62-1.96 1.22-2.19 4.06-1.49 8.13-3.67 12.31-3.93 9.8-.62 19.67-.45 29.5-.25 4.1.08 7.96 1.55 10.25 5.41 2.3 3.87 1.36 5.96-2.95 6.87-5.34 1.12-10.68 2.23-16.34 3.41 0 6.14-.02 12.16 0 18.18.1 31.79.22 63.57.31 95.36.1 33.8.22 67.6.22 101.4 0 4.66-.48 9.33-1.01 13.96-.29 2.5-2.03 3.89-4.67 3.92-2.76.03-4.44-.46-4.45-4.07-.04-23.16-.3-46.33-.59-69.49-.64-51.58-1.33-103.17-2.01-154.75 0-1.67-.12-3.34-.24-6z"/><path d="m246.02 68.21c5.11.35 10.27.43 15.33 1.13 4.09.56 7.11 3 8.72 7.01.76 1.91.48 2.93-1.57 3.85-7.02 3.17-14.5 4.17-21.95 3.62-7.84-.59-15.59-2.45-23.37-3.77-1.99-.34-2.6-1.54-2.49-3.53.11-1.95.18-3.28 2.4-4.43 7.31-3.79 15.09-3.57 22.93-3.88z"/></g></svg>