<svg enable-background="new 0 0 400 400" viewBox="0 0 400 400" xmlns="http://www.w3.org/2000/svg"><path d="m361.2 9.6.8-1c.9.7 1.9 1.4 2.9 2.3l-.9 1.1c-1-1-2-1.8-2.8-2.4zm.5 10.6c.9-2.1 1.6-4.3 2.3-6.7.4.2.8.4 1.3.6-.7 2.1-1.5 4.3-2.2 6.6zm.4-15.2.9-.9c1 .8 2 1.6 2.8 2.4l-1 1c-.9-.9-1.8-1.7-2.7-2.5zm12.5-1.2h1.2v1.4h2.7v1.1h-2.7v2.7h-1.2v-.6h-1.8v1.3h4.9v3.8h-1.2v-.5h-3.7c0 .4-.1.9-.1 1.2h5.1v1h-5.2c0 .5-.1.9-.2 1.2h6v1h-5.2c1.1 1.3 2.9 2 5.5 2.2-.4.4-.7.8-.9 1.3-2.9-.5-4.8-1.6-5.7-3.5h-.1c-.8 1.7-2.7 2.9-5.9 3.6-.2-.4-.6-.8-.9-1.1 2.8-.6 4.6-1.4 5.4-2.5h-4.8v-1h5.3c.1-.3.2-.7.2-1.2h-4.9v-1h5c0-.4 0-.8.1-1.2h-3.5v.5h-1.2v-3.8h4.9v-1.3h-1.8v.5h-1.2v-2.7h-2.7v-1h2.6v-1.4h1.2v1.4h4.7v-1.4zm-6.6 8.3h3.6c0-.4 0-.9 0-1.4h-3.6zm1.9-4.6h4.7v-1.3h-4.7zm6.6 3.2h-3.7v1.4h3.7z" fill="#fbfcfa"/><path d="m385.3 3.8h1.3v2.2h2.8v-2.2h1.3v2.2h4.1v9.1h1.7v1.3h-16.9v-1.3h1.7v-9.1h4.1v-2.2zm.4 13.1.7 1.2c-1.8.9-3.8 1.9-6 2.9-.2-.4-.5-.8-.8-1.3 2.3-1 4.3-1.9 6.1-2.8zm-3.1-6.4h2.8v-3.2h-2.8zm0 4.6h2.8v-3.3h-2.8zm4-4.6h2.8v-3.2h-2.8zm0 4.6h2.8v-3.3h-2.8zm3.7 1.9c2.1.9 4.1 1.8 6.1 2.7l-.7 1.3c-2.2-1.1-4.2-2-6.1-2.9zm3.2-9.7h-2.8v3.2h2.8zm-2.8 7.8h2.8v-3.3h-2.8z" fill="#fbfcfa"/><g fill="#010102"><path d="m127.41 151.6c-6.25 0-12.81-.13-19.37.04-5.8.15-11.61 1.02-17.4.86-7-.19-9.66-4.21-7.92-11.39 6.85-.61 13.83-1.34 20.83-1.83 7.03-.49 14.06-.89 21.1-1.04 2.93-.06 3.33-1.89 4.29-4.76-9.16 0-17.84.12-26.52-.05-5.01-.1-10.05-.38-15-1.12-3.38-.51-6.28-2.34-7.4-6.02-.65-2.13-.35-3.41 2.14-4.25 8.48-2.89 17.18-2.47 25.91-2.3 4.19.08 8.39-.21 13.16-.35-2.77-8.6-5.25-16.33-7.88-24.5-6.4 2.65-12.52 5.25-18.69 7.72-3.41 1.36-6.84 2.8-10.4 3.66-4.19 1.02-6.04-.98-5.07-5.12.93-3.98 2.43-7.38 6.75-9.24 5.22-2.25 10.19-5.12 15.12-7.97 7.88-4.56 15.99-8.48 25.14-9.69 2.25-.3 3.05-1.3 2.89-3.52-.16-2.08-.03-4.18-.03-7.41-9.07 2.5-17.41 4.82-25.77 7.08-4.84 1.3-9.67 2.64-14.58 3.64-1.51.31-3.37-.18-4.85-.81-2.64-1.13-3.39-3.68-2.88-6.18.26-1.25 1.75-2.77 3.01-3.2 10.54-3.65 21.17-7.08 31.76-10.59 3.07-1.02 6.11-2.15 9.2-3.1 2.93-.9 4.36-2.76 4.58-5.84.26-3.67.76-7.33 1.21-10.98.11-.88.41-1.75.72-2.58 2.15-5.71 3.11-6.33 7.73-5.03 5.06 1.42 6.72 4.09 5.99 9.17-.33 2.31-.54 4.69-.35 7 .31 3.76 1.77 6.97 5.76 8.21 7.88 2.43 15.72 4.99 23.68 7.14 7.04 1.9 13.03 4.67 15.17 12.48.68 2.48.04 3.63-2.33 4.48-4.24 1.52-8.34 1.4-12.39-.43-3.67-1.65-7.41-3.18-10.91-5.15-5.65-3.19-11.83-3.66-17.98-4.32-.11.23-.19.33-.2.43-.75 8.4-.6 8.05 7.05 11.14 10.34 4.17 20.56 8.68 30.58 13.58 5.15 2.51 9.29 6.58 11.7 12.07 1.05 2.4.86 4.03-1.75 5.41-5.27 2.79-8.41 2.45-13.19-1.26-2.6-2.02-5.63-3.52-8.59-5-.71-.36-2.38-.03-2.86.57-4.24 5.32-8.31 10.77-13.06 17.01 6.73.48 12.67.93 18.62 1.33 1.56.11 3.17-.11 4.69.18 1.95.37 4.34.57 5.62 1.8 1.97 1.9 3.14 4.61 4.65 6.98-1.88 1.04-3.69 2.78-5.67 3-6.51.71-13.08.84-19.63 1.24-3.99.25-8.02.34-11.94 1.02-2.05.35-3.91 1.82-5.86 2.78.07.37.14.74.22 1.12 3.47.23 6.93.63 10.4.66 6.49.05 12.98-.22 19.46-.14 2.43.03 5.01.24 7.22 1.12 2.07.82 4.16 2.33 5.5 4.09 2.91 3.82 2.3 5.38-2.22 6.87-7.62 2.51-15.45 1.9-23.27 1.42-4.13-.25-8.27-.26-12.4-.43-2.95-.12-4.48 1.09-4.64 4.17-.12 2.45-.38 4.93-.96 7.31-1.07 4.4-2.43 8.74-3.74 13.35 8.34 1.08 17.13 2.69 25.99 3.25 16.84 1.06 33.72 1.48 50.58 2.26 3.22.15 6.46.55 9.62 1.19 13.16 2.64 17.21 12.98 14.79 24.87-.35 1.75-1.28 3.42-1.4 5.16-.41 6.21-4.73 8.38-9.72 10.32-9.3 3.6-19.03 3.64-28.74 3.86-11.96.28-23.92.43-35.88.71-3.47.08-6.4 1.4-8.86 4.64 12.16 1.89 23.85 3.61 35.5 5.54 15.65 2.59 31.28 5.25 46.88 8.11 3.14.57 6.14 2.05 9.09 3.36 1.48.66 2.97 1.68 4.01 2.92 3.35 4.02 2.18 8.25-2.9 9.02-4.19.64-8.93.98-12.83-.32-27.66-9.21-56.39-12.82-85.02-17.04-6.73-.99-11.04-6.38-10.56-13.13.49-6.78 3.96-10.49 10.42-12.45 9.26-2.81 18.67-3.1 28.19-3.27 7.69-.14 15.37-.9 23.06-1.33 4.78-.27 9.57-.44 14.35-.62 8.06-.31 11.99-5.4 9.72-12.95-.43-1.42-1.7-3.14-2.99-3.63-2.98-1.14-6.19-2.08-9.35-2.26-15.52-.85-31.07-1.16-46.57-2.2-8.9-.59-17.75-2.16-26.6-3.41-1.39-.2-2.71-1-4-1.65-4.05-2.04-4.05-2.13-1.71-5.81 1.25-1.97 1.64-3.76-1.28-4.6-2.77-.8-4.15-2.65-4.6-5.48-.97-6.28-2.11-12.53-3.34-19.59zm27.04-57.27c-5.74-6.1-24.18-8.65-30.03-4.25 4.07 7.43 8.15 14.9 12.38 22.64 6.1-6.36 11.8-12.3 17.65-18.39z"/><path d="m192.27 359.98c-6.8 3.85-13.79 2.42-18-3.19-6.72-8.95-13.47-17.86-20.14-26.85-1.12-1.51-2.13-2.23-4.14-1.72-2.81.72-5.7 1.22-8.59 1.46-2.84.24-5.57 1.18-5.71 4.05-.12 2.52.76 5.58 2.28 7.57 2.68 3.53 6.26 6.36 9.33 9.61 3.22 3.41 5.24 7.46 6.05 12.13.31 1.76-.16 2.67-1.85 3.28-4.41 1.59-8.56.39-11.54-2.51-5.97-5.83-11.83-11.9-16.87-18.53-4.99-6.57-4.3-14.08-.54-21.24.51-.97 1.61-1.94 2.65-2.27 7.84-2.54 15.73-4.91 23.61-7.34 6.57-2.03 13.14-4.08 19.72-6.13-.05-.43-.09-.85-.14-1.28-5.14-1.09-10.29-2.1-15.41-3.28-8.7-2-17.57-3.5-25.99-6.35-7.15-2.42-14.17-6.08-17.13-13.92-1.16-3.07-1.87-6.47-1.99-9.75-.95-24.59-1.55-49.2-2.65-73.79-.26-5.86-2-11.64-3-17.47-1.02-5.97-.82-11.78 2.46-17.38 5.63.88 9.49 4.16 12.25 8.87 3.49 5.93 4.8 12.55 5.04 19.28.57 16.2.81 32.41 1.18 48.62.03 1.44 0 2.89 0 4.81 5.05.67 9.99 1.3 14.92 1.99 20.7 2.9 41.41 5.75 62.1 8.73 25.61 3.69 47.98 14.44 67.47 31.35 3.87 3.36 7.13 7.1 8.45 12.2 1.09 4.24-1.41 7.48-5.79 6.76-2.75-.45-5.6-1.7-7.89-3.32-7.95-5.61-15.97-11.18-23.42-17.42-8.22-6.89-17.62-10.74-27.83-13.23-28.02-6.83-56.49-10.28-85.26-11.6-.44-.02-.88.06-1.66.12-.34 1.78-.68 3.6-1.09 5.79 7.95.95 15.69 1.91 23.43 2.81 21 2.43 41.87 5.34 62.24 11.42 17.52 5.23 31 15.56 41.28 30.37 4.08 5.88 8.22 11.75 11.72 17.97 1.78 3.16 2.46 7.04 3.1 10.69.21 1.2-1.02 3.66-1.96 3.87-2.54.56-5.39 3.08-7.93-.15-3.38-4.3-6.89-8.5-10.15-12.9-5.78-7.81-11.12-15.96-17.18-23.53-6.03-7.54-14.66-11.57-23.39-15.18-16.94-7.02-34.36-10.61-52.73-7.17-1.62.3-3.23.7-5.89 1.29 1.87.71 2.78 1.13 3.73 1.41 12.22 3.59 24.45 7.15 36.66 10.75 12.62 3.72 22.68 10.8 29.21 22.45 7.07 12.61 11.14 26.06 11.26 40.59.02 2.12-.43 4.24-.41 6.35.02 3.48-2.1 5.15-5.01 5.75-2.84.59-5.58.66-7.55-2.55-4.71-7.67-7.06-16-6.88-24.88.29-14.34-6.25-24.76-17.54-32.81-1.53-1.09-2.58-1.16-4.13-.11-3.42 2.32-6.88 4.62-10.51 6.59-2.56 1.39-3.01 3.27-1.91 5.53 1.65 3.41 3.51 6.73 5.45 9.98 4.63 7.75 9.37 15.45 14.21 23.41z"/><path d="m228.32 132.16c0-.9.02-2.35-.01-3.8-.01-.54-.11-1.07-.13-1.33-4.71-.71-9.33-.91-13.65-2.17-8.9-2.59-12.26-9.28-10.02-18.25.86-3.45 3.93-2.83 6.1-3.72.77-.32 2.45.52 3.16 1.33 1.45 1.65 2.8 3.51 3.71 5.51 2.19 4.8 3.91 5.92 9.77 5.5.08-.85.2-1.72.25-2.59.29-4.67.57-9.35.85-13.82-5.3-2.06-10.38-3.76-15.21-6-2.79-1.29-5.47-3.15-7.67-5.3-5.57-5.47-5.69-17.67.12-23.07 1.83-1.7 5.51-2.29 8.13-1.92 1.46.21 2.79 3.33 3.6 5.37.57 1.46.2 3.31.2 4.98 0 5.7 3.76 9.71 10.24 10.33 0-9.4 0-18.76 0-28.46-6.31 0-12.87.09-19.44-.03-3.89-.07-7.8-.27-11.66-.79-2.65-.36-4.63-2.02-4.36-5.03.26-2.91 1.26-5.09 4.79-5.82 23.12-4.75 46.45-4.83 69.82-3.11 5.48.4 10.96 2.19 16.21 3.99 9.62 3.3 14.17 11.42 16.8 20.39 1.89 6.47 2.99 13.34 3.23 20.08.49 14.03-.85 27.95-5.88 41.24-.88 2.32-2.16 4.76-3.94 6.42-12.83 12-28.41 15.65-45.52 14.75-7.58-.4-15.19-.24-22.79-.32-.45 0-.9.05-1.34.12-6.42 1.08-9.39 6.31-6.94 12.38.27.67 1.25 1.17 2 1.51 10.82 4.83 22.12 6.98 33.98 5.99 15.79-1.32 33.54 9.68 39.17 24.53 1.04 2.75.92 5.93 1.39 9.32-4.2 0-7.43.05-10.66-.04-.68-.02-1.51-.45-1.99-.95-1.31-1.37-2.9-2.69-3.62-4.36-4.79-11.03-14.12-14.54-25.05-15.52-10.69-.95-21.38-1.84-32.07-2.76-7.15-.62-13.54-2.86-16.78-9.82-2.85-6.12-3.16-12.51-1.38-19.24 1.69-6.41 5.08-10.11 11.66-11.37 4.85-.91 9.55-2.61 14.93-4.15zm16 .93c11.77.69 22.91-.34 33.12-6.06 1.67-.94 3.51-2.74 3.96-4.48 1.91-7.33 3.76-14.73 4.81-22.22 1.43-10.2 2.06-20.53-.99-30.63-1.58-5.22-3.71-10.07-9.38-12.29-9.85-3.87-20.14-2.87-30.42-3.47v29.43c7.33-1.66 9.29-4.04 9.49-10.97.04-1.43.2-2.97.78-4.24 1.29-2.85 3.09-4.79 6.81-4.9 3.86-.11 5.84 1.62 7.09 4.78 1.87 4.69 1.46 9.47.08 14.16-1.62 5.5-4.45 9.74-10.65 11.23-5.04 1.21-9.87 3.28-14.87 4.99.39 5.9.75 11.42 1.14 17.34 3.19-.32 5.97-.48 8.7-.92 2.64-.42 4.26-1.58 4.38-4.84.21-5.52 3.85-7.89 8.97-6.43 1.18.34 2.41.56 3.53 1.05.73.32 1.66.92 1.88 1.59 1.97 6.2 1.46 13.05-5.91 16.53-2.8 1.32-5.83 2.41-8.87 2.91-4.45.73-9 .84-13.64 1.23-.01 1.93-.01 3.91-.01 6.21z"/><path d="m210.5 206.26c-9.07.78-18.05 2.03-27.05 2.2-12.61.25-25.24-.39-37.86-.45-3.27-.02-4.55-1.45-4.82-4.43-.1-1.1-.45-2.17-.81-3.83 3.06-.69 6.05-1.99 9.01-1.93 19.1.38 38.2 1 57.3 1.69 4.53.17 4.52.43 4.23 6.75z"/></g></svg>