<svg enable-background="new 0 0 400 400" viewBox="0 0 400 400" xmlns="http://www.w3.org/2000/svg"><path d="m361.2 9.6.8-1c.9.7 1.9 1.4 2.9 2.3l-.9 1.1c-1-1-2-1.8-2.8-2.4zm.5 10.6c.9-2.1 1.6-4.3 2.3-6.7.4.2.8.4 1.3.6-.7 2.1-1.5 4.3-2.2 6.6zm.4-15.2.9-.9c1 .8 2 1.6 2.8 2.4l-1 1c-.9-.9-1.8-1.7-2.7-2.5zm12.5-1.2h1.2v1.4h2.7v1.1h-2.7v2.7h-1.2v-.6h-1.8v1.3h4.9v3.8h-1.2v-.5h-3.7c0 .4-.1.9-.1 1.2h5.1v1h-5.2c0 .5-.1.9-.2 1.2h6v1h-5.2c1.1 1.3 2.9 2 5.5 2.2-.4.4-.7.8-.9 1.3-2.9-.5-4.8-1.6-5.7-3.5h-.1c-.8 1.7-2.7 2.9-5.9 3.6-.2-.4-.6-.8-.9-1.1 2.8-.6 4.6-1.4 5.4-2.5h-4.8v-1h5.3c.1-.3.2-.7.2-1.2h-4.9v-1h5c0-.4 0-.8.1-1.2h-3.5v.5h-1.2v-3.8h4.9v-1.3h-1.8v.5h-1.2v-2.7h-2.7v-1h2.6v-1.4h1.2v1.4h4.7v-1.4zm-6.6 8.3h3.6c0-.4 0-.9 0-1.4h-3.6zm1.9-4.6h4.7v-1.3h-4.7zm6.6 3.2h-3.7v1.4h3.7z" fill="#fbfcfa"/><path d="m385.3 3.8h1.3v2.2h2.8v-2.2h1.3v2.2h4.1v9.1h1.7v1.3h-16.9v-1.3h1.7v-9.1h4.1v-2.2zm.4 13.1.7 1.2c-1.8.9-3.8 1.9-6 2.9-.2-.4-.5-.8-.8-1.3 2.3-1 4.3-1.9 6.1-2.8zm-3.1-6.4h2.8v-3.2h-2.8zm0 4.6h2.8v-3.3h-2.8zm4-4.6h2.8v-3.2h-2.8zm0 4.6h2.8v-3.3h-2.8zm3.7 1.9c2.1.9 4.1 1.8 6.1 2.7l-.7 1.3c-2.2-1.1-4.2-2-6.1-2.9zm3.2-9.7h-2.8v3.2h2.8zm-2.8 7.8h2.8v-3.3h-2.8z" fill="#fbfcfa"/><g fill="#010102"><path d="m115.07 63.24c4.25 9.83 4.73 19.86 3.34 30.11-.28 2.1-.5 4.23-.48 6.34.08 8.73 3.93 13.83 12.95 16.78 1.07-4.77 2.02-9.52 3.21-14.21 1.2-4.74 2.27-9.57 4.05-14.11 3.2-8.13 9.92-12.11 18.18-13.56 7.16-1.26 9.88-4.93 9.06-14.08-8-1.29-16.19-3.29-24.47-3.78-13.17-.77-26.39-.47-39.59-.77-2.52-.06-5.13-.5-7.51-1.33-3.22-1.11-4.87-4.58-4.2-7.9.12-.57.52-1.36.98-1.54 4.33-1.63 8.2-4.44 13.24-4.24 15.87.63 31.77.58 47.6 1.72 6.65.48 13.31 2.77 19.64 5.12 8.76 3.25 10.61 11.16 9.2 18.66-2.39 12.7-2.45 12.69-14.08 18.24-3.83 1.83-7.72 3.56-11.48 5.52-.96.5-1.99 1.56-2.27 2.56-2.16 7.64-4.14 15.32-6.15 23-.11.41-.01.87-.01 1.77 4.15.7 8.3 1.51 12.47 2.09 5.24.72 9.11 3.33 11.87 7.81 7.01 11.4 10.18 24.07 11.74 37.12 2.91 24.31 2.87 48.64.26 73.02-1.18 10.98-.97 22.11-1.95 33.12-.49 5.49-2.24 10.87-3.4 16.3-.4 1.88-1.57 2.62-3.4 2.28-2.2-.41-5.33 1.41-6.26-2.1-.87-3.3-1.82-6.76-1.72-10.12.73-26.06 1.92-52.1 2.51-78.16.21-9.24-.88-18.52-1.39-28.11-7.7 1.19-15.05 2.32-22.86 3.52v3.61c0 49.81-.04 99.62.03 149.43.02 11.41.57 22.81.62 34.22.01 2.84-.52 5.9-1.69 8.45-.93 2.01-2.95 4.01-4.98 4.93-3.73 1.68-5.81.54-6.29-3.47-1.03-8.52-2.14-17.09-2.26-25.66-.43-29.64-.44-59.29-.64-88.94-.15-23.17-.34-46.33-.52-69.5-.01-1.32 0-2.65 0-3.96-2.48-.95-3.92-.4-5.27 1.65-6.28 9.52-9.31 20.14-9.78 31.32-.57 13.51-.25 27.06-.4 40.59-.17 14.98-.47 29.95-.64 44.93-.08 6.7-2.38 10.03-7.97 11.55-1.86.5-2.87.03-3.86-1.53-3.25-5.17-3.87-10.94-3.69-16.78.71-23.7 1.11-47.41 2.57-71.07.6-9.82 3.55-19.5 5.46-29.24.26-1.31.84-2.58.99-3.9.96-8.71 5.4-15.49 11.98-20.88 2.82-2.31 6.29-3.81 9.3-5.92 1.01-.71 2.05-2.13 2.13-3.29.63-8.48.93-16.98 1.56-25.46.19-2.51-.72-3.55-2.97-4.28-3.61-1.16-7.04-2.95-10.69-3.92-5.75-1.52-8.63-5.6-10.64-10.68-3.13-7.93-3.05-16.24-2.47-24.5.49-7.01 1.27-14.05 2.62-20.94 1.4-7.51-.04-5.94 8.42-7.83zm52.1 94.56c-1.52-4.91-2.86-9.48-4.35-14-2.26-6.83-7.41-9.61-14.25-10.2-2.1-.18-2.84.41-2.92 2.42-.15 3.57-.46 7.13-.68 10.7-.26 4.41-.5 8.83-.76 13.55 7.74-.83 15.03-1.62 22.96-2.47z"/><path d="m212.43 227.09c10.65 1.11 20.88 2.12 31.09 3.26 11.99 1.34 22.46 6.28 30.79 14.86 9.27 9.54 17.97 19.63 26.71 29.66 1.76 2.02 2.67 4.82 3.78 7.35 1.4 3.18.3 5.54-2.64 7.29-2.89 1.73-5.09.23-6.85-1.63-5.3-5.61-10.49-11.33-15.52-17.18-6.89-8.01-13.98-15.82-23.46-20.79-3.05-1.6-6.69-2.27-10.15-2.86-10.69-1.8-21.42-3.36-32.14-5-.43-.07-.88-.01-1.67-.01-.57 2.66-1.15 5.34-1.81 8.44 6.63 1.39 13.08 3.37 19.65 3.99 13.22 1.26 24.19 7.76 34.94 14.46 7.07 4.41 11.8 11.51 15.9 18.78 7.21 12.78 11.91 26.24 10.88 41.2-.11 1.54-.37 3.07-.6 4.91-3.11 0-6.02.21-8.87-.12-.9-.1-2.02-1.49-2.39-2.52-3.47-9.55-6.8-19.15-10.15-28.74-4.22-12.06-12.31-20.87-23.14-27.3-1.58-.94-3.53-1.33-5.35-1.81-8.86-2.33-17.73-4.61-26.6-6.89-.94-.24-1.92-.35-2.83-.51-1.21 2.96-.09 4.48 2.32 5.86 9.02 5.17 17.77 10.82 26.92 15.75 12.06 6.5 19.28 16.83 23.78 29.2 5.43 14.89 6.23 30.34 3.95 45.97-.39 2.69-3.25 5.35-5.63 5.36-3.4.01-5.78-1.74-6.2-5.06-1.26-10.09-2.5-20.18-3.46-30.3-1-10.52-5.13-19.49-12.33-27.52-3.31 3.86-6.52 7.42-9.46 11.19-.63.81-.56 2.5-.27 3.65 2.97 11.46 6.13 22.88 9.04 34.35.67 2.66 1.07 5.58.69 8.25-.25 1.76-1.79 4.15-3.32 4.73-2.43.92-4.88-.19-6.51-2.75-7.84-12.3-11.99-25.88-14.13-40.17-.12-.77-.32-1.52-.52-2.46-3.26.24-5.6 1.29-6.9 4.62-3.43 8.79-3.62 17.85-3.1 27.09.26 4.65.25 9.4-.39 14-.64 4.59-4.08 7.39-7.92 7.26-.84-.03-2.21-.82-2.4-1.53-4.09-14.48-7.42-29.03-4.32-44.26 2.54-12.47 10.48-18.55 22.73-20.85 5.48-1.03 10.27-4.55 15.27-12.26-5.04-2.22-9.93-4.55-14.94-6.55-7.61-3.03-14.59-6.81-16.7-15.49-1.23-5.07-2.19-10.35-2.17-15.54.03-6.33.77-12.73 1.98-18.96 3.11-16.05 2.56-31.91-.24-47.99-1.93-11.07-2.27-22.42-3.2-33.65-.15-1.75.49-3.55.46-5.32-.05-3.38 1.84-5.23 4.75-5.98 2.4-.62 6.22 1.83 7.16 4.58.82 2.41 1.33 4.97 1.63 7.5 1.8 15.66 3.68 31.32 5.12 47.01.44 4.73-.4 9.57-.68 14.36-.13 2.23-.36 4.45-.58 7.07z"/><path d="m268.94 120.7c-6.44-3.36-13.05-4.53-19.74-4.86-16.81-.83-33.51.52-50.18 2.74-4.14.55-8.44.2-12.64-.16-3.13-.27-4.29-2.71-4.82-5.62-.54-3 1.23-4.18 3.48-5.28 9.82-4.77 20.39-5.67 31.05-5.93 7.83-.19 15.67.06 23.5-.18 9.9-.31 19.64.36 29.21 3.07 3.18.9 4.37-.35 3.73-3.64-.75-3.84-2.38-6.97-5.93-9.22-8.1-5.13-16.89-6.75-26.29-6.27-11.06.56-22.12 1.12-33.18 1.33-2.9.05-5.93-.93-8.72-1.93-2.69-.96-3.23-3.31-2.89-6.08.34-2.75 1.8-3.63 4.37-3.99 7.51-1.05 14.99-2.34 22.53-3.54 0-7.6.16-15.06-.04-22.52-.19-7.12.11-14.01 3.75-20.47 1.65-2.92 3.49-2.92 6.01-1.73 2.88 1.36 4.55 3.53 4.66 6.78.03.89.03 1.79.05 2.69.15 5.17 1.71 6.99 6.78 7.08 8.05.15 16.11-.04 24.17.1 2.65.05 5.39.37 7.9 1.17 1.69.53 3.39 1.85 4.49 3.28 2.88 3.76 1.96 6.71-2.36 8.48-6.33 2.59-12.89 2.08-19.51 1.61-5.33-.38-10.69-.28-16.03-.35-1.99-.02-2.93 1.1-3.29 3.03-.57 3.07-1.34 6.11-2.15 9.76 4.1.87 8.15 1.92 12.27 2.56 5.3.83 10.63 1.56 15.97 1.94 6.78.48 11.74 3.71 15.71 9.02 4.4 5.89 6.11 12.57 6.41 19.76.07 1.67.57 3.35.48 5-.4 7.19 3.14 12.73 7.05 18.3 3.45 4.91 6.59 10.08 9.39 15.39 1.13 2.15 1 4.97 1.36 7.5.46 3.15-1.19 5.72-3.92 6.06-1.93.24-4.71-1.27-6.11-2.88-5.13-5.91-9.86-12.16-14.67-18.35-1.07-1.38-1.97-2.11-3.87-1.37-12.72 4.94-26.16 5.39-39.55 6.1-9.38.5-18.76 1.06-28.14 1.4-2.65.1-5.37-.29-7.99-.8-4.69-.91-6.92-5.57-4.78-9.82.33-.65 1.25-1.21 1.99-1.39 10.83-2.61 21.82-3.53 32.94-2.95 11.8.62 23.46-.12 34.8-3.79.8-.27 1.58-.6 2.75-1.03z"/><path d="m249.96 147.15c12.81.46 21.46 1.31 29.4 5.54 8.03 4.28 11.54 10.62 10.31 19.59-.59 4.28-1.88 8.49-3.08 12.66-.34 1.19-1.33 2.29-2.25 3.19-7.52 7.36-16.87 10.12-27.1 10.86-5.91.43-11.82 1.05-17.67 1.96-2.33.36-4.78 1.36-6.67 2.75-2.93 2.17-2.48 4.78.77 6.27 7.93 3.65 16.4 5.05 25.01 5.84 7.23.66 14.55.79 21.65 2.11 10.75 1.99 18.33 10.84 19.56 21.61.29 2.55-2.93 5.26-6.03 4.5-2.52-.62-5.21-1.69-7.16-3.35-8.97-7.62-18.98-11.53-30.94-11.72-8.31-.13-16.76-1.44-24.83-3.49-16.13-4.09-16.83-20.58-10.49-30.3 1.57-2.4 5.3-3.56 8.22-4.88 9.8-4.44 20.33-4.84 30.85-5.36 10.43-.52 16.15-7.02 15.09-17.13-.13-1.23-1.27-2.82-2.38-3.4-8.07-4.17-16.53-3.49-25.22-2.25-7.82 1.12-15.77 1.32-23.68 1.71-1.83.09-3.78-.46-5.54-1.08-2.9-1.03-4.16-3.33-3.79-6.35.35-2.8 1.28-5.12 4.71-5.52 11.73-1.36 23.47-2.82 31.26-3.76z"/><path d="m238.05 166.96c6.46.37 12.95.48 19.38 1.19 4.24.47 8.45 1.69 10.01 6.56.58 1.81.44 3.09-1.79 3.81-15.59 5.08-31.25 6.12-47.11 1.24-2.03-.62-3.11-1.58-2.98-3.69.15-2.34-1.67-5.36 1.9-6.61 2.55-.9 5.18-1.88 7.83-2.1 4.22-.35 8.49-.09 12.74-.09.01-.1.01-.21.02-.31z"/></g></svg>