<svg enable-background="new 0 0 400 400" viewBox="0 0 400 400" xmlns="http://www.w3.org/2000/svg"><path d="m361.2 9.6.8-1c.9.7 1.9 1.4 2.9 2.3l-.9 1.1c-1-1-2-1.8-2.8-2.4zm.5 10.6c.9-2.1 1.6-4.3 2.3-6.7.4.2.8.4 1.3.6-.7 2.1-1.5 4.3-2.2 6.6zm.4-15.2.9-.9c1 .8 2 1.6 2.8 2.4l-1 1c-.9-.9-1.8-1.7-2.7-2.5zm12.5-1.2h1.2v1.4h2.7v1.1h-2.7v2.7h-1.2v-.6h-1.8v1.3h4.9v3.8h-1.2v-.5h-3.7c0 .4-.1.9-.1 1.2h5.1v1h-5.2c0 .5-.1.9-.2 1.2h6v1h-5.2c1.1 1.3 2.9 2 5.5 2.2-.4.4-.7.8-.9 1.3-2.9-.5-4.8-1.6-5.7-3.5h-.1c-.8 1.7-2.7 2.9-5.9 3.6-.2-.4-.6-.8-.9-1.1 2.8-.6 4.6-1.4 5.4-2.5h-4.8v-1h5.3c.1-.3.2-.7.2-1.2h-4.9v-1h5c0-.4 0-.8.1-1.2h-3.5v.5h-1.2v-3.8h4.9v-1.3h-1.8v.5h-1.2v-2.7h-2.7v-1h2.6v-1.4h1.2v1.4h4.7v-1.4zm-6.6 8.3h3.6c0-.4 0-.9 0-1.4h-3.6zm1.9-4.6h4.7v-1.3h-4.7zm6.6 3.2h-3.7v1.4h3.7z" fill="#fbfcfa"/><path d="m385.3 3.8h1.3v2.2h2.8v-2.2h1.3v2.2h4.1v9.1h1.7v1.3h-16.9v-1.3h1.7v-9.1h4.1v-2.2zm.4 13.1.7 1.2c-1.8.9-3.8 1.9-6 2.9-.2-.4-.5-.8-.8-1.3 2.3-1 4.3-1.9 6.1-2.8zm-3.1-6.4h2.8v-3.2h-2.8zm0 4.6h2.8v-3.3h-2.8zm4-4.6h2.8v-3.2h-2.8zm0 4.6h2.8v-3.3h-2.8zm3.7 1.9c2.1.9 4.1 1.8 6.1 2.7l-.7 1.3c-2.2-1.1-4.2-2-6.1-2.9zm3.2-9.7h-2.8v3.2h2.8zm-2.8 7.8h2.8v-3.3h-2.8z" fill="#fbfcfa"/><g fill="#010102"><path d="m177.75 283.16c-7.91-3.18-15.56-5.98-22.96-9.32-6.95-3.13-9.08-7.31-7.93-14.84.52-3.39 1.22-7.01 2.95-9.85 1.37-2.24 4.33-3.64 6.79-5.05 2.21-1.27 4.76-1.95 7.06-3.07 2.91-1.42 4.68-3.71 4.71-7.1-5.95 0-11.82-.07-17.68.02-5.7.09-11.41.26-17.09.63-1 .07-2.56 1.13-2.79 2.01-.84 3.21-1.98 6.61-1.68 9.81 2.1 22.09-.54 44.06-1.35 66.07-.52 14.09-1.53 28.16-2.42 42.24-.15 2.43-.44 5.01-1.42 7.18-.96 2.13-2.57 4.27-4.45 5.62-3.82 2.72-5.76 1.91-7.36-2.48-2.34-6.43-2.1-13.04-.74-19.55 3.3-15.78 3.15-31.81 3.86-47.78.46-10.29.97-20.58 1.13-30.87.11-6.93-.65-13.87-.41-20.79.18-5.44 1.34-10.84 1.96-16.26.33-2.9 2.07-4.39 4.52-5.63 8.84-4.5 18.38-5.3 28.03-5.67 5.45-.21 10.9-.5 16.73-.78-.35-5.78-.68-11.3-1.06-17.57-6.88 0-13.55-.04-20.22.01-5.59.04-11.19.51-16.75.22-6.88-.37-10.68-3.77-12.54-10.52 5.21-3.87 11.32-4.82 17.61-4.53 6.02.27 12.02 1.24 18.04 1.61 2.87.18 5.79-.32 8.68-.48 2.64-.15 4.02-1.42 4.18-4.17.09-1.64.61-3.25 1.1-5.71-9.01-1.28-17.7-2.59-26.41-3.74-4.43-.59-8.92-.75-13.35-1.38-8.41-1.2-16.08-10.91-15.25-19.38.13-1.3 1.27-3.29 2.31-3.55 1.88-.49 5.09-.72 5.89.34 6.4 8.54 16.3 8.59 25.21 10.78 10.86 2.67 21.87 4.89 33.16 4.39 4.2-.19 8.38-1 12.36-1.5 0-6.59 0-12.59 0-18.59-.21-.06-.43-.12-.64-.17-.49.66-1.15 1.25-1.43 1.99-1.01 2.72-3.04 3.26-5.63 2.95-2.71-.32-4.27-1.93-4.85-4.41-.42-1.83-.73-3.78-.6-5.63.71-10.14-3.46-18.46-9.59-26-1.72-2.12-4.01-3.79-6.04-5.66-.4.23-.81.47-1.21.7-.18 3.95-.47 7.9-.51 11.86-.08 7.25.12 14.51-.09 21.76-.05 1.92-.96 3.9-1.79 5.71-1.86 4.06-6.31 4.41-8.69.46-1.32-2.19-2.17-5.02-2.2-7.57-.08-6.92.66-13.86.55-20.78-.07-3.89-1.18-7.76-1.83-11.64-.42-.07-.83-.14-1.25-.21-3.54 2.66-7.12 5.26-10.57 8.03-.68.55-.94 1.75-1.16 2.71-1.25 5.33-2.69 10.64-3.53 16.04-.69 4.4-4.02 6.84-6.4 9.98-.32.42-1.86.29-2.62-.05-4.9-2.19-7.48-7.02-5.89-12.85 1.95-7.2 4.69-14.19 7.2-21.23.35-.97 1.31-1.78 2.12-2.52 2.32-2.11 4.85-4 7.02-6.25 3.54-3.68 7.69-6.06 12.71-6.85 2.17-.34 2.98-1.4 3-3.58.03-2.55.42-5.1.68-7.94-2.21-.43-4.25-.88-6.31-1.22-11.64-1.94-19.9-10.48-20.4-22.34-.22-5.23 1.2-10.56 2.26-15.77.2-.98 2.11-2.1 3.34-2.25s3.13.45 3.82 1.4c3.24 4.45 5.22 9.34 3.98 15.07-.6 2.79.43 5.29 2.8 6.7 2.81 1.68 5.94 2.83 9.18 4.33 2.51-8.19 1.71-15.73 1.02-23.28-.61-6.73.99-12.84 5.2-18.29 4.77 1.05 7.31 4.18 7.73 8.63.38 3.97-.07 8.02-.17 12.03-.12 5.25-.26 10.5-.37 15.75-.05 2.2.9 3.29 3.26 3.02 2.83-.32 7.05.6 8.23-.92 2.39-3.07 3.33-7.37 4.5-11.27.63-2.1.2-4.51.79-6.63.48-1.74 1.45-3.6 2.75-4.81 3.36-3.13 5.6-2.53 7.53 1.56 4.21 8.9 2.77 17.9-1.55 25.83-2.91 5.34-8.55 9.2-15.32 9.74-9.14.74-10.58 2.28-9.45 11.39.11.93 1.49 2.04 2.53 2.48 6.05 2.54 11.7 5.72 16.08 10.67 8.1 9.15 12.18 19.92 12.23 32.17.01 1.52 0 3.03 0 5.42 1.49-1.9 2.38-3.12 3.36-4.27 2.57-3.04 6.29-2.57 8.04.93 2.31 4.61 2.34 9.46 1.75 14.43-.33 2.76-.42 5.54-.65 8.67 3.28.25 6.25.62 9.22.66 10.73.17 21.49.67 32.06-1.91 1.08-.26 2.14-.63 3.22-.92 5.74-1.55 9.76-4.78 11.93-10.61.85-2.28 3.17-4.15 5.13-5.83 1.43-1.23 3.36-1.02 4.08 1.05.97 2.77 2.34 5.7 2.23 8.51-.3 7.61-4.23 13.13-11.05 16.73-6.57 3.47-13.7 4.68-20.88 5.86-3.29.54-6.58 1.07-10.02 1.64v9.18c8.89 1.75 17.83 3.63 26.81 5.25 9.1 1.65 12.66 5.47 12.52 14.68-.07 4.33-.77 8.68-1.45 12.97-.19 1.18-1.18 2.37-2.1 3.26-6.35 6.1-14.61 7.47-22.8 8.69-5.16.78-10.43.86-15.95 1.27-.19 1.33-.41 2.82-.65 4.52 6.93 1.17 13.53 2.27 20.13 3.41 11.42 1.96 17.98 9.42 21.45 19.79 2.64 7.91 1.45 15.91-2.59 23.04-1.9 3.36-5.49 5.78-8.4 8.54-5.42 5.13-5.45 5.1-2.52 12.05 4.51 10.71 8.97 21.45 13.59 32.12.86 1.99 2.29 3.76 3.57 5.55 2.86 3.99 6.13 7.73 8.57 11.96 1.37 2.38 1.79 5.48 2.01 8.31.24 3.12-2.65 5.24-5.59 4.13-2.12-.8-4.26-2.12-5.82-3.75-11.26-11.8-19.76-25.39-25.5-40.65-1.29-3.43-1.75-7.15-2.73-10.7-.47-1.7-.99-3.5-1.94-4.94-2.39-3.59-5.07-3.5-7.44.05-5.61 8.41-5.85 17.21-1.58 26.15 4.63 9.68 9.67 19.16 14.2 28.88 1.27 2.72 1.81 5.98 1.84 9 .01 1.37-1.87 3.67-3.19 3.92-1.9.36-5.1-.09-5.98-1.39-10.04-14.83-19.77-29.91-23.59-47.78-1.68-7.86-.36-15.6 3.16-22.85.54-1.12 1.63-2.14 2.71-2.82 7.75-4.9 15.62-9.6 23.32-14.58 2.87-1.86 5.82-3.92 7.95-6.52 5.52-6.75 3.64-16.4-3.56-21.18-6.29-4.18-13.49-4.34-20.58-5.15-4.27-.49-7.66.54-11.28 3.35-9.54 7.4-26.52 7.17-37.44.1-5.15-3.33-10.24-1.68-15.09.17-3.17 1.2-2.72 7.46.32 9.18 6.39 3.62 13.35 5.06 20.61 5.1 7.5.04 15-.21 22.49-.15 2.32.02 4.68.45 6.93 1.05 2.7.73 4.22 2.99 3.88 5.56-.19 1.43-1.91 3.4-3.3 3.78-4.37 1.19-8.91 1.78-13.4 2.53-1.21.2-2.46.12-3.68.21-2.9.21-4.94 1.28-5.89 4.41-1 3.3-2.29 6.59-4.02 9.57-4.02 6.92-3.52 14.11-1.05 21.06 3.75 10.51 8.24 20.75 12.36 31.13 1.4 3.53 2.77 7.08 3.9 10.7.91 2.92.32 5.63-2.55 7.27-2.69 1.54-6.15.73-8.34-1.87-7.84-9.31-11.86-20.39-14.84-31.96-1.61-6.25-3.23-12.49-4.95-19.09-3.96 1.98-7.59 3.67-11.07 5.64-.93.53-1.57 1.84-1.99 2.93-2.46 6.41-1.94 12.77.83 18.92 3.3 7.34 6.86 14.56 10.15 21.9.95 2.11 1.6 4.43 1.92 6.72.33 2.3-.25 4.99-2.79 5.44-2.3.41-5.75.43-7.11-.95-12.92-12.98-21.69-40.53-13.98-59.48 1.15-2.83 2.68-4.92 5.44-6.38 4.25-2.24 8.27-4.9 12.42-7.32 6.99-4.14 10.89-10.35 12.39-17.9zm3.82-65.28h31.58c0-6.32 0-12.07 0-17.82-10.96 0-21.7 0-32.6 0 .36 6.18.69 12.07 1.02 17.82zm72.79-3.61c.13-6.22-2-10.69-6.45-11.67-6.12-1.35-12.42-1.83-19.01-2.74-.39 6.73-.72 12.51-1.06 18.56 9.24-1.44 17.8-2.78 26.52-4.15zm-71.04 19.22c.18 9.54 7.32 14.84 17.09 12.98 4.87-.92 8.76-3 10.27-8.28 1.36-4.78.58-6.27-4.46-6.1-7.57.26-15.13.9-22.9 1.4zm-2.67-48.16h33.78c-.4-2.85-.76-5.45-1.1-7.91-11.17 0-21.86 0-32.68 0z"/><path d="m275.12 148.33c-4.23-7.73-5.14-15.83-5.98-23.96-.77-7.48-5.99-14.05-12.93-16.03 0 7.81.06 15.49-.02 23.16-.05 4.24-.01 8.53-.62 12.7-.77 5.2-3.66 7.42-8.03 7.22-2.06-.1-3.44-.74-3.61-3.02-.58-7.46-1.36-14.9-1.72-22.36-.28-5.8-.06-11.62-.06-17.93-3.69.66-7.25.39-9.71 3.72-1.72 2.34-4.13 4.27-5.42 6.8-1.63 3.2-2.86 6.75-3.48 10.29-.84 4.72-.8 9.59-1.39 14.36-.61 4.95-5.06 7.1-9.48 4.68-.64-.35-1.16-1.28-1.35-2.04-3.18-12.63-.75-24.63 4.26-36.29.37-.87 1.25-1.56 1.99-2.22 2.25-2.02 4.69-3.85 6.78-6.01 3.7-3.83 8-6.39 13.29-7.12 2.13-.29 3.06-1.37 3.24-3.5.22-2.55.7-5.07 1.12-7.98-2.23-.44-4.37-.94-6.54-1.29-11.26-1.83-18.69-9.32-20-20.76-.49-4.29-.01-8.69-.16-13.03-.11-3.12 1.35-4.71 4.25-5.42 1.27-.31 2.46-.94 4.55-1.77 1.43 5.09 3.29 9.78 3.98 14.64 1.13 7.96 4.7 11.83 13.25 12.79 2.08-7.25 1.72-14.59.7-21.93-.93-6.73.79-12.83 4-18.67 1-1.81 2.07-1.98 3.77-1.11 3.52 1.8 6.25 4.57 6.41 8.44.23 5.41-.49 10.85-.78 16.28-.17 3.22-.66 6.49-.32 9.67.52 4.79 5.62 7.63 10.09 5.93.72-.27 1.49-1.11 1.72-1.85 1.08-3.38 2.11-6.78 2.89-10.24.46-2.06-.05-4.42.73-6.29.97-2.32 2.53-4.61 4.39-6.29 1.89-1.72 3.93-1.22 5.46 1.26 2.45 3.95 3.73 8.12 3.28 12.74-.24 2.44-.65 4.88-1.17 7.28-2.17 10.11-9.31 16.71-19.65 18.28-1.99.3-3.97.67-5.95 1.03-.32.06-.62.25-1.23.5 0 2.67-.2 5.47.11 8.21.11.99 1.3 2.1 2.28 2.7 4.35 2.66 9.5 4.42 13.08 7.85 12.3 11.77 15.9 26.49 12.58 43-.18.92-1.35 2.01-2.3 2.32-1.95.63-4.09.84-6.3 1.26z"/></g></svg>