<svg enable-background="new 0 0 400 400" viewBox="0 0 400 400" xmlns="http://www.w3.org/2000/svg"><path d="m361.2 9.6.8-1c.9.7 1.9 1.4 2.9 2.3l-.9 1.1c-1-1-2-1.8-2.8-2.4zm.5 10.6c.9-2.1 1.6-4.3 2.3-6.7.4.2.8.4 1.3.6-.7 2.1-1.5 4.3-2.2 6.6zm.4-15.2.9-.9c1 .8 2 1.6 2.8 2.4l-1 1c-.9-.9-1.8-1.7-2.7-2.5zm12.5-1.2h1.2v1.4h2.7v1.1h-2.7v2.7h-1.2v-.6h-1.8v1.3h4.9v3.8h-1.2v-.5h-3.7c0 .4-.1.9-.1 1.2h5.1v1h-5.2c0 .5-.1.9-.2 1.2h6v1h-5.2c1.1 1.3 2.9 2 5.5 2.2-.4.4-.7.8-.9 1.3-2.9-.5-4.8-1.6-5.7-3.5h-.1c-.8 1.7-2.7 2.9-5.9 3.6-.2-.4-.6-.8-.9-1.1 2.8-.6 4.6-1.4 5.4-2.5h-4.8v-1h5.3c.1-.3.2-.7.2-1.2h-4.9v-1h5c0-.4 0-.8.1-1.2h-3.5v.5h-1.2v-3.8h4.9v-1.3h-1.8v.5h-1.2v-2.7h-2.7v-1h2.6v-1.4h1.2v1.4h4.7v-1.4zm-6.6 8.3h3.6c0-.4 0-.9 0-1.4h-3.6zm1.9-4.6h4.7v-1.3h-4.7zm6.6 3.2h-3.7v1.4h3.7z" fill="#fbfcfa"/><path d="m385.3 3.8h1.3v2.2h2.8v-2.2h1.3v2.2h4.1v9.1h1.7v1.3h-16.9v-1.3h1.7v-9.1h4.1v-2.2zm.4 13.1.7 1.2c-1.8.9-3.8 1.9-6 2.9-.2-.4-.5-.8-.8-1.3 2.3-1 4.3-1.9 6.1-2.8zm-3.1-6.4h2.8v-3.2h-2.8zm0 4.6h2.8v-3.3h-2.8zm4-4.6h2.8v-3.2h-2.8zm0 4.6h2.8v-3.3h-2.8zm3.7 1.9c2.1.9 4.1 1.8 6.1 2.7l-.7 1.3c-2.2-1.1-4.2-2-6.1-2.9zm3.2-9.7h-2.8v3.2h2.8zm-2.8 7.8h2.8v-3.3h-2.8z" fill="#fbfcfa"/><g fill="#010102"><path d="m248.82 373.31c-.59-5.9 1.08-11.12 3.77-15.94 4.41-7.91 9.48-15.46 13.69-23.47 16.07-30.55 27.91-62.64 34.41-96.63 1.87-9.76 2.83-19.47.7-29.31-1.46-6.73-4.66-12.5-9.57-17.98-.58 1.34-1.07 2.38-1.48 3.45-10.26 27.33-21.09 54.45-34.65 80.31-7.88 15.03-17.07 29.38-25.84 43.94-3.07 5.1-7.4 8.91-13.28 10.74-2.4.75-4.14.3-4.41-2.27-.27-2.58-.62-5.47.23-7.79 1.3-3.51 3.06-7.15 5.57-9.86 15.84-17.04 25.97-37.32 34.4-58.69 8.41-21.31 17.08-42.51 25.71-63.73.88-2.16.75-3.47-1.27-4.98-5.62-4.22-11.03-8.72-16.72-13.27-2.6 6.83-5.03 13.39-7.59 19.9-6.95 17.66-16.72 33.62-29.23 47.88-1.98 2.26-4.31 4.22-6.53 6.27-.57.53-1.27.92-1.95 1.29-3.5 1.89-9.28 1.37-10.98-.95-1.42-1.95-.14-7.48 2.54-10.1 11.95-11.68 22.2-24.69 29.11-39.93 5.17-11.38 9.33-23.22 13.77-34.92.36-.94-.35-2.57-1.02-3.58-3.98-6.01-6.78-12.35-8.43-19.5-3.9-16.8 1.32-31.06 10.72-44.48 10.14-14.47 22.36-27.09 35.02-39.3 2.15-2.08 4.72-3.76 7.23-5.42 3.33-2.2 7.32-2.01 9.08.22 1.55 1.96.72 7.27-1.63 9.63-4.5 4.52-9.35 8.73-13.57 13.49-8.02 9.04-16.04 18.11-23.44 27.64-11.85 15.27-13.33 31.76-4.2 48.99.41.78.84 1.64 1.47 2.21 9.82 8.81 19.61 17.66 29.57 26.32 2.51 2.18 5.52 3.81 8.39 5.54 12.61 7.59 17.09 19.63 17.94 33.41.83 13.52-1.78 26.72-4.52 39.9-5.47 26.27-15.6 50.8-27.54 74.66-5.9 11.8-11.91 23.54-18.07 35.21-1.6 3.03-3.88 5.72-5.95 8.48-2.95 3.98-6.77 4.78-11.45 2.62z"/><path d="m169.68 119.01c0 7.97-.06 15.44.07 22.91.02 1.01.8 2.29 1.62 2.97 15.59 12.76 31.3 25.37 46.81 38.23 3.12 2.59 5.84 5.82 8.1 9.2.95 1.42 1.04 4.63.06 5.86-1.63 2.04-4.55 2.95-7.32 1.53-2.67-1.36-5.45-2.68-7.79-4.51-16.49-12.89-32.91-25.87-49.27-38.92-1.83-1.46-3.23-1.57-5.39-.76-5.01 1.88-9.26 4.71-13.25 8.26-11.3 10.03-22.77 19.87-34.22 29.73-1.69 1.45-3.46 3.02-5.48 3.81-2.17.85-4.68 1.13-7.04 1.15-2.02.02-2.86-1.24-2.79-3.56.14-4.58 1.52-7.99 5.3-11.09 11.93-9.8 23.31-20.29 35.24-30.09 6.46-5.31 13.68-9.68 20.42-14.67 1.11-.82 2.03-2.58 2.11-3.96.26-4.69-.07-9.41.16-14.1.14-2.96-1.05-3.33-3.59-2.98-6.38.87-11.99 3.62-17.25 7.05-8.06 5.26-15.81 10.98-23.95 16.1-3.4 2.13-7.38 3.51-11.26 4.65-2.76.81-4.59-1.15-5.58-3.71-.97-2.52-1.13-4.49 1.37-6.73 12.22-10.94 26.52-18.59 40.66-26.53 4.82-2.71 9.65-5.15 15.3-5.43 1.94-.1 2.88-.97 3.01-3.12.18-2.99.82-5.96 1.38-9.76-4.11-.82-8.07-1.73-12.08-2.34-1.85-.29-3.8-.09-5.7.05-14.4 1.1-21.46-8.33-23.36-19.45-.64-3.74-1.2-7.56-1.15-11.34.05-3.62.93-7.23 1.57-11.7-4.14.88-7.8 1.6-11.43 2.44-3.15.73-6.23 1.88-9.41 2.31-3.54.48-5.15-1.24-5.32-4.8-.21-4.25.99-7.3 5.4-9.18 10.38-4.43 21.27-6.73 32.25-8.86 9.26-1.8 18.51-2.64 27.99-1.7 5.23.52 8.44 3.2 10.96 7.18 3.27 5.17 3.13 11.01 3.14 16.89 0 6.92.49 13.83.78 20.75.14 3.31 2.46 4.76 5.17 4.46 5.06-.57 10.08-1.7 15.05-2.87.9-.21 1.98-1.67 2.12-2.68.78-5.49 1.58-11 1.83-16.54.26-5.69 2.05-8.92 6.62-10.47 1.87-.64 3.06-.29 4.15 1.49 4.21 6.89 3.87 14.28 2.63 21.79-.31 1.87-.75 3.73-1.25 5.56-2.68 9.72-9.02 14.53-20.9 15.93-3.55.42-7.1.93-10.66 1.31-1.72.18-2.37.95-2.66 2.72-1.87 11.42-1.95 11.46 8.39 16.17 8.44 3.85 17.13 7.2 25.33 11.49 4.95 2.59 9.61 6.13 13.58 10.07 1.99 1.97 2.14 5.8 3.13 8.79-3.01.26-6.3 1.41-8.99.59-5.72-1.75-11.19-4.39-16.66-6.89-8.22-3.75-16.36-7.7-24.54-11.54-.75-.36-1.62-.56-3.41-1.16zm-11.99-44.02c0-8.2.06-15.78-.02-23.37-.07-6.61-3.18-10.26-9.57-11.93-7.83-2.05-14.15 2.8-20.59 3.84.59 6.35.94 12.23 1.74 18.04.43 3.16 1.51 6.25 2.52 9.3.25.75 1.34 1.64 2.12 1.73 7.54.84 15.09 1.54 23.8 2.39z"/><path d="m163.75 240.41c3.12-.5 5.79-.77 8.36-1.43 1.02-.26 2.09-1.2 2.67-2.12 4.63-7.29 5.57-15.38 5.32-23.83-.19-6.25.08-12.53.41-18.78.09-1.68.84-3.53 1.84-4.91 2.46-3.41 7.28-2.87 9.15.85 5.52 10.99 5.16 22.49 2.79 34.11-.8 3.93-1.83 7.85-3.11 11.65-4.17 12.42-14.65 18.76-27.51 16.82-1.31-.2-2.62-.41-3.99-.62-4.09 8.65-5.98 17.77-8.36 26.85-4.2 15.99-1.71 31.39 2.01 46.73 2.65 10.92 6.83 21.47 9.95 32.29 1.16 4 1.46 8.3 1.76 12.48.16 2.32-.86 4.61-3.66 4.8-2.74.18-5.48.35-7.26-2.77-7.54-13.17-12.17-27.34-14.62-42.23-2.93-17.75-4.22-35.65-1.23-53.48 1.45-8.66 4.41-17.07 6.81-25.55 2.01-7.1 4.06-14.19 6.36-21.19 2.76-8.37.67-16.6-.24-24.89-.67-6.1-1.46-12.2-1.67-18.32-.09-2.56 1.12-5.18 1.85-7.75.77-2.72 2.42-2.74 4.59-1.45 4.36 2.6 6.49 6.74 7.7 11.36 3.41 13.05 4.03 26.25 1.71 39.58-.66 3.73-1.05 7.5-1.63 11.8z"/><path d="m176.31 261.65c5.38 1.14 7.01 2.94 7.38 8.63.57 8.7.92 17.42 1.41 26.13.4 7.15.21 14.41 1.51 21.4 1.08 5.82 3.91 11.32 6.01 16.94 2.3 6.13 4.74 12.22 6.96 18.38.92 2.56.36 4.89-2.31 6.24-2.23 1.13-6.21.24-7.89-1.8-5.32-6.46-9.06-13.8-11.86-21.64-5.15-14.41-8.34-29.21-8.5-44.56-.1-10.44 1.84-20.44 7.29-29.72z"/><path d="m107.3 262.27c6.24.79 8.73 3.22 8.55 9.01-.14 4.56-.97 9.1-1.62 13.64-2.44 17.08-3.17 34.1 1.69 50.92 1.73 6 3.75 11.92 5.56 17.91.38 1.27.28 2.68.64 3.96 1.06 3.78-1.68 5.2-4.22 6.03-2.49.82-4.6-.55-6.04-2.96-7.48-12.51-11.5-26.17-13.27-40.5-2.13-17.23-.91-34.18 5.48-50.52.96-2.5 2.11-4.91 3.23-7.49z"/><path d="m124.18 189.44c7.26 4.22 9.09 10.35 8.99 16.89-.19 12.87-2.69 25.38-8.83 36.82-3.17 5.91-8.94 9.28-14.66 12.4-8.63 4.7-17.63 7.67-27.64 5.24-2.79-.68-5.46-5.89-4.16-8.39.35-.67 1.35-1.14 2.15-1.42 5.46-1.94 10.87-4.1 16.45-5.64 13.83-3.81 19.58-10.49 20.85-24.72.61-6.78.92-13.63 2.15-20.3.69-3.67 2.99-7.04 4.7-10.88z"/></g></svg>