<svg enable-background="new 0 0 400 400" viewBox="0 0 400 400" xmlns="http://www.w3.org/2000/svg"><path d="m361.2 9.6.8-1c.9.7 1.9 1.4 2.9 2.3l-.9 1.1c-1-1-2-1.8-2.8-2.4zm.5 10.6c.9-2.1 1.6-4.3 2.3-6.7.4.2.8.4 1.3.6-.7 2.1-1.5 4.3-2.2 6.6zm.4-15.2.9-.9c1 .8 2 1.6 2.8 2.4l-1 1c-.9-.9-1.8-1.7-2.7-2.5zm12.5-1.2h1.2v1.4h2.7v1.1h-2.7v2.7h-1.2v-.6h-1.8v1.3h4.9v3.8h-1.2v-.5h-3.7c0 .4-.1.9-.1 1.2h5.1v1h-5.2c0 .5-.1.9-.2 1.2h6v1h-5.2c1.1 1.3 2.9 2 5.5 2.2-.4.4-.7.8-.9 1.3-2.9-.5-4.8-1.6-5.7-3.5h-.1c-.8 1.7-2.7 2.9-5.9 3.6-.2-.4-.6-.8-.9-1.1 2.8-.6 4.6-1.4 5.4-2.5h-4.8v-1h5.3c.1-.3.2-.7.2-1.2h-4.9v-1h5c0-.4 0-.8.1-1.2h-3.5v.5h-1.2v-3.8h4.9v-1.3h-1.8v.5h-1.2v-2.7h-2.7v-1h2.6v-1.4h1.2v1.4h4.7v-1.4zm-6.6 8.3h3.6c0-.4 0-.9 0-1.4h-3.6zm1.9-4.6h4.7v-1.3h-4.7zm6.6 3.2h-3.7v1.4h3.7z" fill="#fbfcfa"/><path d="m385.3 3.8h1.3v2.2h2.8v-2.2h1.3v2.2h4.1v9.1h1.7v1.3h-16.9v-1.3h1.7v-9.1h4.1v-2.2zm.4 13.1.7 1.2c-1.8.9-3.8 1.9-6 2.9-.2-.4-.5-.8-.8-1.3 2.3-1 4.3-1.9 6.1-2.8zm-3.1-6.4h2.8v-3.2h-2.8zm0 4.6h2.8v-3.3h-2.8zm4-4.6h2.8v-3.2h-2.8zm0 4.6h2.8v-3.3h-2.8zm3.7 1.9c2.1.9 4.1 1.8 6.1 2.7l-.7 1.3c-2.2-1.1-4.2-2-6.1-2.9zm3.2-9.7h-2.8v3.2h2.8zm-2.8 7.8h2.8v-3.3h-2.8z" fill="#fbfcfa"/><g fill="#010102"><path d="m100.04 373.81c-2.1-10.81-2.2-21.6-1.19-32.27 3.46-36.48 3.42-73.07 3.94-109.64.35-24.83 1.19-49.66 1.67-74.49.1-4.91-.63-9.83-.59-14.75.04-4.11.42-8.25 1.03-12.33 2.13-14.24 12.68-20.92 24.57-25.35 16.58-6.18 33.98-8.56 51.71-8.16 3 .07 6.01.01 9.49.01.23-5.91.6-11.45.64-17 .07-10.52-.25-21.05.01-31.56.14-5.44.97-10.9 1.91-16.27.42-2.43 1.88-4.67 2.84-6.93 5.85 1.73 5.8 1.73 5.97 7.05.67 20.36 1.38 40.71 2.1 61.06.04 1.09.22 2.18.37 3.53 6.16 0 12.13-.53 17.97.11 14.1 1.53 28.33 2.69 42.14 5.69 16.47 3.58 24.92 15.32 27.45 31.77 2.26 14.7 1.58 29.46 1.65 44.22.13 27.08.31 54.16.68 81.23.47 34.57 1.16 69.15 1.75 103.72.04 2.35-.09 4.72.19 7.04.36 2.97-1.39 4.09-3.73 4.59-2.87.62-5.5-.81-5.88-3.34-1.06-7.17-2.35-14.35-2.77-21.57-1.09-18.75-2.03-37.52-2.55-56.3-1.42-51.68-2.76-103.36-3.76-155.05-.27-14-6.1-20.46-19.19-23.99-4.38-1.18-8.97-1.57-14.21-2.45-.37 5.7-.74 10.77-1.02 15.86-.16 2.9.12 5.85-.31 8.7-1.17 7.81-5.04 13.83-13.13 15.59-7.93 1.73-16.01 3.38-24.08 3.76-13.07.62-26.18-.03-39.04-2.96-11.63-2.64-17.4-10.9-16.32-22.9.34-3.74.28-7.6-.21-11.32-.75-5.59-3.57-7.36-8.95-5.54-4.75 1.61-9.7 3.23-13.78 5.99-4.83 3.27-7.29 8.82-8.53 14.42-.97 4.4-1.08 9.06-1.1 13.6-.05 12.85.49 25.7.19 38.54-1.26 54.71-2.7 109.41-4.21 164.11-.14 5.1-.85 10.28-2.07 15.23-1.58 6.47-5.66 9.13-11.65 8.35zm64.54-240.6c.22 6.18.92 7.34 6.34 7.89 8.66.87 17.37 1.92 26.05 1.8 9.11-.13 18.2-1.49 27.28-2.51 1.23-.14 2.81-1.15 3.4-2.22 1.63-2.95-.13-5.06-4.04-5.06-17.9.02-35.8.07-53.7.1-1.77 0-3.55 0-5.33 0zm-.82-20.19c-.13 5.64-.13 5.67 5.03 5.62 15.86-.14 31.72-.3 47.58-.44 4.41-.04 8.83-.01 13.2-.01 0-2.54 0-4.27 0-6.32-22.07-.24-43.9-3.45-65.81 1.15z"/><path d="m268.84 265.24c-8.24 3.98-15.67 3.44-22.95 1.2-13.64-4.2-26.47-10.3-38.27-18.31-3.74-2.54-6.69-6.23-10.18-9.58-.65.51-1.33 1.02-1.98 1.57-14.66 12.07-30.57 21.87-49.31 26.13-4.05.92-8.43.39-12.66.52-2.06.06-3.17-1.06-3.2-3-.04-2.18-2.41-4.42.78-6.53 10.65-7.04 21.96-12.78 34.51-15.08 16.32-2.99 22.5-12.37 24.97-26.96.41-2.4.54-4.85.84-7.71-6.56-.86-12.84-1.72-19.12-2.49-7.66-.93-15.35-1.59-22.98-2.7-8.26-1.2-13.03-6.47-13.12-14.78-.05-4.65.75-9.32 1.39-13.94.15-1.08.99-2.23 1.83-3.01 4.32-4.08 9.46-6.62 15.25-8 16.53-3.93 33.28-3.88 50.06-2.78 10.25.67 20.47 1.86 30.71 2.85.88.09 1.74.4 2.6.64 12.75 3.6 17.59 11.96 14.92 24.95-1.13 5.51-3.98 8.89-8.94 11.52-8.95 4.74-18.49 5.64-28.27 5.8-1.79.03-3.58.09-5.37.11-3.93.05-5.17.79-4.37 4.7 1.47 7.17 3.74 14.19 5.84 21.22.27.92 1.47 1.62 2.34 2.29 9.57 7.44 20.6 11.97 31.78 16.34 5.68 2.22 11.11 5.19 16.35 8.34 2.41 1.44 4.11 4.13 6.55 6.69zm-92.85-90.24c.37 5.84.73 11.35 1.1 17.13 3.57-.28 6.73-.53 10.2-.8 0-4.81.37-9.38-.11-13.87-.4-3.75-1.83-4.32-5.52-3.58-1.75.35-3.49.69-5.67 1.12zm39.54 16.36c-.94-3.66-1.79-7.1-2.71-10.52-1.4-5.22-4.48-7.4-9.96-7.13v18.43c4.28-.27 8.27-.52 12.67-.78zm-66.77-11.14c.61 1.77 1.13 3.33 1.69 4.87 1.21 3.33 6.35 6.28 9.87 5.7 2.11-.35 3.48-1.3 3.25-3.75-.2-2.1-.04-4.25-.37-6.33-.54-3.43-4.48-5.61-7.62-4.21-2.3 1.04-4.46 2.42-6.82 3.72zm78.55-4.67c.98 5.5 1.79 10.02 2.63 14.74 2.43-.86 4.37-1.71 6.39-2.22 2.68-.68 3.79-2.35 3.9-4.98.11-2.7-1.13-4.6-3.6-5.37-2.81-.89-5.74-1.36-9.32-2.17z"/><path d="m199.53 312.41c-14.7 16.5-32.6 25.99-53.2 30.53-4.37.96-9.09.51-13.64.41-.97-.02-2.34-1.2-2.79-2.18-2.07-4.48-.2-8.09 4.41-9.6 11.67-3.82 23.31-7.73 34.93-11.71 1.99-.68 3.8-1.88 5.69-2.85 13.35-6.89 17.01-18.87 17.5-32.71.26-7.44.93-14.89 1.84-22.28.34-2.77 1.91-5.4 2.95-8.18 4.25 1.13 6.55 3.96 7.41 7.47 1.28 5.28 1.97 10.72 2.68 16.11.77 5.86 1.23 11.77 1.93 17.64 1.15 9.67 6.17 17.01 14.4 21.85 9.62 5.65 19.57 10.72 29.34 16.11 2.93 1.61 5.76 3.41 8.56 5.23.91.59 1.73 1.46 2.34 2.36 2.67 3.95 1.43 7.25-3.26 7.42-3.81.14-7.85-.38-11.44-1.63-4.49-1.56-8.8-3.88-12.87-6.38-13.07-8.01-27.59-14.11-36.78-27.61z"/><path d="m285.28 25.49c2.14.42 4.81.57 7.13 1.54 1.48.62 2.94 2.27 3.51 3.79.77 2.04-.36 3.71-2.44 4.87-9.2 5.13-19.32 7.47-29.37 10.19-6.19 1.68-12.38 3.85-18.01 6.87-2.65 1.42-4.23 5.19-5.76 8.16-.93 1.81-.12 3.4 2.4 4.05 10.28 2.64 20.56 5.34 30.73 8.36 8.24 2.44 16.42 5.13 24.45 8.18 6.06 2.3 11.21 6.31 14.73 11.77 1.65 2.57 2.47 5.94 2.78 9.04.36 3.68-3.1 5.82-6.55 4.45-1.54-.61-3.21-1.28-4.38-2.39-14.89-14.11-32.77-21.37-52.95-23.62-4.55-.51-9.06-1.42-13.58-2.2-8.43-1.44-13.3-6.65-13.52-15.25-.1-3.84.78-7.74 1.47-11.56.8-4.45 4.5-6.71 7.93-8.6 6.33-3.49 12.78-7.02 19.58-9.33 9.5-3.22 19.38-5.35 29.11-7.93.74-.2 1.54-.22 2.74-.39z"/><path d="m78.7 105.87c0-3.07-.17-6.19.1-9.28.09-1 1.19-2.04 2.04-2.83 15.19-14.12 33.83-20.92 53.67-25.17 4.8-1.03 9.63-2.01 14.3-3.46 1.74-.54 3.52-2.09 4.52-3.66 2.21-3.48 1.39-5.69-2.16-7.78-8.42-4.96-17.85-6.9-27.15-9.33-7.76-2.03-15.49-4.35-22.99-7.17-4.97-1.87-5.2-8.18-.76-10.86.87-.53 2.1-.71 3.15-.67 17.5.62 34.05 5.2 49.52 13.16 14.52 7.48 17.23 20 11.44 34.15-1.88 4.6-6.68 6.1-11.22 6.99-3.94.77-7.98 1.06-11.99 1.35-14.46 1.02-27.81 5.53-40.07 13.08-3.47 2.13-6.24 5.39-9.3 8.19-3.65 3.33-7.85 4.46-13.1 3.29z"/><path d="m224.44 273.2c.31-1.75.39-3.59.99-5.23.65-1.78 1.38-4.14 2.79-4.9 2.23-1.2 6.94 1.18 8.26 3.76 1.63 3.17 3.28 6.39 4.31 9.78 3.22 10.61 9.85 18.03 19.92 22.56 4.29 1.93 7.7 4.81 9.38 9.48.63 1.74.27 2.68-1.12 3.64-3.19 2.18-6.35 2.46-10.1 1.09-14.51-5.3-23.6-16.36-31.1-29.02-1.92-3.25-2.61-7.23-3.86-10.87.18-.11.35-.2.53-.29z"/><path d="m132.61 312.54c.59-3.44.95-6.33 1.63-9.14.23-.96 1.11-1.95 1.97-2.54 11.84-8.14 20.84-18.74 27.65-31.33.66-1.21 2.72-2.95 3.31-2.67 1.96.91 4.27 2.31 5.07 4.12.77 1.77.4 4.52-.43 6.43-3.03 6.96-5.57 14.38-9.95 20.42-5.58 7.7-12.93 14.01-23.23 14.96-1.84.18-3.73-.14-6.02-.25z"/><path d="m140.99 236.24c-1-.09-2-.17-3-.27-5.75-.55-7.32-1.88-8.3-7.5-.13-.74.69-2.16 1.39-2.44 4.43-1.78 8.86-3.77 13.48-4.87 9.58-2.27 18.6-5.61 26.41-11.71 2.35-1.83 4.41-1.04 6.46.2 2.09 1.26 1.93 3.3 1.47 5.38-1.29 5.87-4.53 10.24-9.62 13.48-8.66 5.54-18.1 7.93-28.29 7.73z"/><path d="m225.8 207.58c3.13 1.72 6.32 3.15 9.16 5.08 7.49 5.09 15.85 7.43 24.72 8.45 4.12.47 6.81 3.7 6.67 7.75-.02.64-.6 1.4-1.14 1.86-3.85 3.3-8.31 5.19-13.3 3.71-9.61-2.85-19.19-5.7-26.51-13.4-5.11-5.38-5.41-8.08.4-13.45z"/></g></svg>