<svg enable-background="new 0 0 400 400" viewBox="0 0 400 400" xmlns="http://www.w3.org/2000/svg"><path d="m361.2 9.6.8-1c.9.7 1.9 1.4 2.9 2.3l-.9 1.1c-1-1-2-1.8-2.8-2.4zm.5 10.6c.9-2.1 1.6-4.3 2.3-6.7.4.2.8.4 1.3.6-.7 2.1-1.5 4.3-2.2 6.6zm.4-15.2.9-.9c1 .8 2 1.6 2.8 2.4l-1 1c-.9-.9-1.8-1.7-2.7-2.5zm12.5-1.2h1.2v1.4h2.7v1.1h-2.7v2.7h-1.2v-.6h-1.8v1.3h4.9v3.8h-1.2v-.5h-3.7c0 .4-.1.9-.1 1.2h5.1v1h-5.2c0 .5-.1.9-.2 1.2h6v1h-5.2c1.1 1.3 2.9 2 5.5 2.2-.4.4-.7.8-.9 1.3-2.9-.5-4.8-1.6-5.7-3.5h-.1c-.8 1.7-2.7 2.9-5.9 3.6-.2-.4-.6-.8-.9-1.1 2.8-.6 4.6-1.4 5.4-2.5h-4.8v-1h5.3c.1-.3.2-.7.2-1.2h-4.9v-1h5c0-.4 0-.8.1-1.2h-3.5v.5h-1.2v-3.8h4.9v-1.3h-1.8v.5h-1.2v-2.7h-2.7v-1h2.6v-1.4h1.2v1.4h4.7v-1.4zm-6.6 8.3h3.6c0-.4 0-.9 0-1.4h-3.6zm1.9-4.6h4.7v-1.3h-4.7zm6.6 3.2h-3.7v1.4h3.7z" fill="#fbfcfa"/><path d="m385.3 3.8h1.3v2.2h2.8v-2.2h1.3v2.2h4.1v9.1h1.7v1.3h-16.9v-1.3h1.7v-9.1h4.1v-2.2zm.4 13.1.7 1.2c-1.8.9-3.8 1.9-6 2.9-.2-.4-.5-.8-.8-1.3 2.3-1 4.3-1.9 6.1-2.8zm-3.1-6.4h2.8v-3.2h-2.8zm0 4.6h2.8v-3.3h-2.8zm4-4.6h2.8v-3.2h-2.8zm0 4.6h2.8v-3.3h-2.8zm3.7 1.9c2.1.9 4.1 1.8 6.1 2.7l-.7 1.3c-2.2-1.1-4.2-2-6.1-2.9zm3.2-9.7h-2.8v3.2h2.8zm-2.8 7.8h2.8v-3.3h-2.8z" fill="#fbfcfa"/><g fill="#010102"><path d="m161.16 125.02c-7.18-.33-14.1-.51-21-.98-10-.68-19.64-2.78-28.74-7.23-6.25-3.05-9.19-8.07-10.28-14.68-1.62-9.86 1.13-18.82 5.38-27.47.69-1.4 2.23-2.45 3.55-3.45 8-6.05 17.17-8.85 27.04-9.9 15.55-1.67 31.01-4.41 46.73-4.05 2.21.05 2.51-1.15 2.56-2.96.18-6.48.29-12.96.8-19.41.2-2.5 1.4-4.91 2.1-7.37.56-1.98 1.85-2.16 3.6-1.68 5.4 1.46 8.22 5.29 7.81 11.3-.3 4.45-1.23 8.87-1.45 13.32-.36 7.34-.2 7.57 7.07 7.31 19.32-.69 38.08 2.77 56.68 7.35 13.82 3.4 20.55 13.24 19.28 28.7-.51 6.18-1.94 12.37-3.73 18.32-.66 2.18-3.39 3.96-5.51 5.45-5.59 3.91-12.13 4.98-18.76 5.47-10.19.74-20.4 1.38-31 2.08 0 .27-.01 1.35 0 2.44.42 27.18 1.08 54.36 1.15 81.55.03 12.28-.58 24.61-1.81 36.83-1.55 15.51-7.48 29.59-16.33 42.41-.7 1.01-1.41 2.01-2.11 3.03-.12.18-.16.41-.32.86.89.54 1.81 1.14 2.76 1.68 6.78 3.9 13.45 8.03 20.39 11.62 9.05 4.68 16.95 10.82 24.16 17.89 12.06 11.83 24.01 23.78 35.92 35.76 3.43 3.45 6.16 7.39 6.61 12.5.2 2.26-.3 3.27-3 3.47-5.38.4-9.27-1.18-13.16-5.22-13.03-13.54-26.22-26.98-40.05-39.69-6.51-5.99-14.54-10.35-22.02-15.23-4.68-3.05-9.44-6.08-14.47-8.44-13.19-6.19-20.59-16.95-25.36-30.18-4.45-12.34-5.42-25.31-7.33-38.11-5.37-35.94-6.18-72.18-6.91-108.43-.02-1.57-.15-3.1-.25-4.86zm43.47-52.89c-6.41 0-12.43-.1-18.45.05-2.07.05-4.22.48-6.15 1.21-.91.34-1.96 1.78-1.99 2.75-.83 28.5-1.87 57.01-2.16 85.52-.33 31.63 4.92 62.81 9.04 94.05 1.21 9.14 4.82 17.58 10 25.78 3.41-8.07 6.7-15.75 9.89-23.46.8-1.94 1.64-3.97 1.84-6.03 1.34-13.46 3.32-26.92 3.54-40.4.38-22.68-.14-45.38-.8-68.06-.31-10.7-2.02-21.36-2.73-32.06-.88-12.93-1.36-25.89-2.03-39.35zm14.71.79c.95 12.87 1.88 25.4 2.82 38.03 10.25 0 20.09.45 29.88-.11 12.13-.7 16.15-5.7 15.59-17.8-.06-1.22-.22-2.45-.41-3.66-1.05-6.62-4.82-10.91-11.24-12.78-11.81-3.46-23.88-4.35-36.64-3.68zm-55.13 19.23c.11-.01.23-.02.34-.02-.3-5.34-.55-10.69-.93-16.02-.17-2.34-1.23-3.48-3.96-3.1-5.64.77-11.32 1.19-16.99 1.72-9.45.88-18.11 3.77-25.42 10.05-.79.68-1.76 1.62-1.88 2.54-.41 3.09-.85 6.25-.57 9.32.46 5.18 2.38 9.53 8.39 10.52 1.75.29 3.42 1.01 5.16 1.42 10.62 2.49 21.28 4.02 32.14 1.33 1.8-.45 2.65-1.09 2.74-3.03.23-4.92.65-9.82.98-14.73z"/><path d="m281.2 215.29c-9.62 0-18.78.09-27.93-.04-4.67-.07-9.38-.21-13.98-.96-2.11-.34-4.38-1.86-5.85-3.49-2.9-3.21-1.92-6.3 2.05-7.89 7.21-2.88 14.64-2.32 22.15-1.69 6.09.51 12.23.48 18.35.52 2.63.02 3.77-1.36 3.79-4.23.04-7.37.71-14.72-1.34-21.98-.59-2.08-1.43-3.41-3.46-4.42-8.09-4.01-16.75-4.37-25.5-4.57-2.64-.06-5.51-.28-7.84-1.36-2.15-.99-4.22-2.95-5.41-5.01-1.8-3.1-.92-4.08 2.27-5.8 5.11-2.76 10.45-3.6 16.16-3.03 4.89.49 9.8.69 14.7 1.09 10.07.82 16.48 6.43 20.56 15.39 4.15 9.12 6 18.73 6.34 28.61.71 20.55-.84 40.85-6.92 60.68-1.67 5.43-4.76 8.93-9.79 11.45-11.48 5.75-23.26 8.41-35.96 4.96-4.57-1.24-6.72-6.63-3.97-10.41.43-.59 1.49-.86 2.3-.99 7.5-1.2 15.02-2.35 22.53-3.48 7.68-1.15 13.27-6.24 14.63-13.96.75-4.27.78-8.67 1.08-13.02.38-5.22.68-10.44 1.04-16.37z"/><path d="m113.74 201.72c9.4 0 18.21-.04 27.03.03 2.33.02 4.88-.12 6.93.74 2.44 1.02 4.97 2.66 6.56 4.73 2.67 3.48 2.02 4.92-2.1 6.55-5.94 2.36-12.15 2.74-18.46 2.45-5.13-.23-10.28-.47-15.41-.41-4.68.05-5.16.54-4.81 5.08.77 10.15 1.65 20.29 2.77 30.4.15 1.39 1.66 3.16 3 3.82 6.94 3.39 14.48 4.36 22.09 5.03 3.75.33 7.52 1 11.16 1.97 2.78.74 4.5 2.82 4.46 5.97-.04 2.57-.8 4.18-3.72 5-13.27 3.74-25.87.94-38.48-3.17-4.21-1.37-6.6-3.99-8.32-7.86-4.71-10.57-6.95-21.72-7.66-33.15-1.1-17.71.12-35.23 3.69-52.71 2.76-13.52 11.17-20.1 23.57-23.33 7.65-1.99 15.29-1.97 22.9-.16 1.82.43 3.81 1.58 5 3.01 3.23 3.87 2.38 7.18-2.44 8.23-5.41 1.18-11.01 1.56-16.55 1.97-12.71.93-17.65 5.13-19.89 17.81-.77 4.39-.93 8.88-1.31 13.33-.11 1.4-.01 2.84-.01 4.67z"/></g></svg>