<svg enable-background="new 0 0 400 400" viewBox="0 0 400 400" xmlns="http://www.w3.org/2000/svg"><g fill="#010101"><path d="m194.31 154.54c0-5.69 0-10.92 0-16.46-.53-.05-1.38-.2-2.22-.21-25.51-.24-51.03-.41-76.54-.74-3.43-.04-7.01-.38-10.23-1.44-1.9-.62-3.95-2.67-4.68-4.55-1.44-3.75 2.12-7.53 6.92-7.93.89-.07 1.79-.02 2.69-.02 46.79 0 93.59.01 140.38-.01 10.07 0 20.15-.21 30.21-.02 2.82.05 5.73.94 8.37 1.99 1.52.6 2.96 2.1 3.8 3.57 2 3.5 1.27 5.11-2.49 6.5-9.01 3.33-18.39 3.47-27.82 3.25-17.86-.41-35.73-.82-53.87-1.23v17.87c14.2 1.01 28.34 1.98 42.47 3.03 3.33.25 6.7.53 9.95 1.25 8.66 1.93 13.21 7.79 14.8 16.25 1.49 7.91-.06 15.59-1.94 23.21-.24.97-1.17 1.86-1.96 2.59-6.9 6.39-15.56 7.45-24.38 7.68-5.59.15-11.19-.12-16.78-.3-3.88-.12-5.16.95-4.78 4.86 2.53 26.16.34 52.35.4 78.52.02 8.07-4.12 15.24-8.61 21.88-3.5 5.19-7.2 10.23-11.17 15.84 5.98 3.35 11.61 7.29 17.82 9.84 17.35 7.12 34.94 13.65 52.44 20.42 2.91 1.13 5.85 2.21 8.7 3.5 1.29.58 2.59 1.43 3.52 2.48 2.84 3.18 1.92 7.6-2.11 8.66-3.12.82-6.88 1.55-9.77.58-23.29-7.82-46.61-15.48-68.46-27.12-15.82-8.44-24.13-21.56-27.03-38.48-1.45-8.44-1.64-17.12-2.07-25.71-1.14-23.25-2.95-46.47-2.19-69.78.01-.32-.11-.64-.24-1.34-1.35-.07-2.75-.21-4.15-.2-10.63.06-21.2.11-31.69-2.34-9.59-2.23-15.94-8.67-17-18.51-.9-8.32.37-16.29 4.08-23.8.55-1.11 1.55-2.15 2.61-2.81 8.43-5.33 17.94-7.53 27.64-8.57 10.42-1.12 20.93-1.51 31.4-2.2 1.11-.06 2.23 0 3.98 0zm4.72 161.91c7.48-6.46 9.94-15.14 12.18-23.78 4.47-17.19 4.66-34.8 3.79-52.38-.65-13.06-2.32-26.06-3.25-39.11-.68-9.49-.92-19.01-1.3-28.51-.07-1.75-.36-3.06-2.52-3.05-5.01.04-10.01.01-15.26.01-.05.77-.16 1.75-.15 2.73.27 39.18.49 78.37.87 117.55.08 9.09 1 18.1 5.64 26.54zm-22.4-118.34c0-7.19 0-13.88 0-20.57 0-8.72-.01-8.86-8.7-8.05-9.11.86-18.28 1.7-26.59 6.08-.93.49-2.25 1.2-2.42 2-1.15 5.69-1.41 11.36 2.21 16.41.57.8 1.69 1.6 2.62 1.68 10.79.89 21.58 1.63 32.88 2.45zm48.32-28.29c.39 9 .75 17.33 1.12 25.88 10.94-.15 21.46.91 31.66-2.73 3.68-1.32 5.96-3.19 5.44-7.47-.16-1.3.04-2.71.38-3.99.97-3.71-.76-5.99-3.81-7.62-1.18-.63-2.36-1.33-3.62-1.73-10.11-3.24-20.5-2.19-31.17-2.34z"/><path d="m205.21 111.99c-14.51-.2-28.68-2.29-42.52-6.87-5.52-1.83-9.07-5.23-11.97-9.95-5.96-9.67-6.94-20.29-5.5-31.1.98-7.37 3.08-14.61 5-21.82.5-1.88 1.94-3.76 3.45-5.08 8.18-7.17 18.12-10.41 28.68-10.66 15.29-.36 30.62-.11 45.9.59 8.98.41 17.12 3.85 23.82 10.3 6.12 5.9 6.88 13.54 7.43 21.28.88 12.21-1.81 24.03-4.25 35.85-.24 1.14-1.32 2.28-2.29 3.07-12.63 10.27-27.44 14.05-43.38 14.38-1.46.04-2.92.01-4.37.01zm-2.78-13.71c.04-.23.08-.46.13-.68 5.02-.26 10.06-.35 15.06-.8 7.49-.68 14.87-2 21.46-5.91 1.34-.79 2.9-2.07 3.3-3.44 2.68-9.15 4.33-18.52 3.9-28.09-.38-8.38-5.25-15.04-12.57-17.26-3.71-1.12-7.65-2.19-11.47-2.14-13.96.17-27.91.7-41.86 1.33-6.39.29-12.29 2.39-17.17 6.69-1.06.93-2.05 2.43-2.22 3.78-.78 6.09-1.48 12.21-1.76 18.34-.27 5.83.5 11.59 3.09 16.98 1.67 3.48 3.82 6.21 7.98 6.77 10.73 1.43 21.43 2.95 32.13 4.43z"/><path d="m134.08 262.68c6.12.3 11.34.54 16.55.82 3.9.2 7.82.25 11.68.77 1.66.22 3.44 1.17 4.71 2.31 3.75 3.37 2.66 8.9-2.16 9.72-5.56.94-11.32 1.33-16.95 1.07-12.27-.58-12.26-.81-12.26 11.1v.67c0 8.04-.01 8.15 8.13 9.21 3.87.5 7.81.45 11.71.68 4.79.27 8.07 2.64 8.75 6.8.2 1.21-.43 3.12-1.35 3.85-5.88 4.65-12.84 4.18-19.85 4.08-12.57-.17-17.16-8.58-20.34-18.7-3.35-10.67-3.46-21.67-2.36-32.59.76-7.51 2.64-14.93 4.29-22.33.35-1.55 1.66-3.11 2.93-4.19 5.18-4.39 11.69-5.28 18.05-6.57 7.15-1.45 14.22-1.19 21.26.52 2.58.63 4.91 1.57 5.76 4.47.96 3.28.15 5.01-3.03 6.23-7.13 2.74-14.38 3.92-22.01 2.24-5.27-1.16-8.45.49-10.21 5.67-1.46 4.38-2.13 9.02-3.3 14.17z"/><path d="m268.72 276.82c-6.72 0-12.74.05-18.77-.02-2.68-.03-5.39-.13-8.02-.58-1.71-.29-3.9-.8-4.8-2.01-1.42-1.91-2.46-4.45-2.6-6.79-.06-1.01 2.42-2.87 3.95-3.14 5.24-.92 10.57-1.38 15.88-1.88 3.66-.34 7.34-.4 11.01-.67 1.89-.14 2.72-1.12 2.41-3.15-.54-3.54-.8-7.12-1.43-10.64-.14-.8-1.27-1.89-2.08-2.02-5.82-.98-11.67-1.77-17.52-2.56-2.43-.33-5.12.05-7.26-.89-2.28-.99-4.62-2.8-5.91-4.88-2.08-3.34-1.07-4.92 2.48-6.54 10.58-4.83 21.27-2.91 31.75-.11 8.3 2.22 11.35 9.55 13.06 16.95 3.8 16.48 2.88 32.9-2.36 48.99-3.32 10.18-11.66 14.19-21.28 15.33-5.43.65-11.09-.51-16.63-1.09-.82-.09-1.98-1.39-2.16-2.29-1.12-5.66-.57-6.74 5.05-8.41 2.84-.85 5.94-.78 8.87-1.35 3.13-.61 6.37-1.09 9.25-2.34 3.06-1.33 4.9-3.97 5.23-7.6.39-3.87 1.17-7.7 1.88-12.31z"/><path d="m200.29 63.27c6.93 0 13.88-.39 20.76.17 3.24.27 6.77 1.79 9.39 3.77 3.77 2.86 2.8 6.63-1.69 8.02-10.44 3.23-21.19 3.15-31.92 2.34-5.77-.44-11.49-1.55-17.23-2.39-2.2-.32-3.09-1.46-3.04-3.88.13-6.09 2-8.21 8.3-8.34 5.14-.11 10.29-.02 15.43-.02z"/></g><path d="m6.4 11.7c-1-.8-1.9-1.6-2.9-2.3l.6-.7c.9.7 1.9 1.4 2.9 2.2zm-2.1 8.3c.7-2.1 1.4-4.2 2-6.4.2.1.6.3 1 .4-.7 2.3-1.3 4.4-1.9 6.4zm3-12.8c-1.1-.9-2.1-1.7-2.9-2.4l.6-.7c1 .8 2 1.5 3 2.4zm1.4-1.3v-.9h10.2v.9c-.9 4.2-2.3 7.3-4.1 9.4 1.3 1.4 3.2 2.7 5.7 4-.2.2-.4.5-.7.9-2.5-1.4-4.4-2.7-5.7-4.2-1.4 1.5-3.5 3-6.1 4.4 0 0 0 0-.1-.1-.3-.4-.5-.7-.7-.8 2.7-1.3 4.7-2.8 6.2-4.2-1.8-2.2-3-5.3-3.7-9.4zm9.2 0h-7.1c.6 3.8 1.7 6.7 3.4 8.7 1.7-2 2.9-4.8 3.7-8.7z" fill="#fbfafa"/><path d="m31.6 3.6h.9v2.3h4.1v9.1h1.7v.9h-16.6v-.9h1.7v-9.1h4.1v-2.3h.9v2.3h3.1v-2.3zm-4 13.3.6.8c-1.9.9-3.8 1.9-5.8 2.8-.2-.3-.3-.6-.5-.9 2-.9 3.9-1.8 5.7-2.7zm-3.2-10.1v3.7h3.1v-3.7zm0 4.5v3.7h3.1v-3.7zm4.1-4.5v3.7h3.1v-3.7zm0 4.5v3.7h3.1v-3.7zm9.1 9.1c-2.1-1.1-4.1-2-5.8-2.7l.5-.8c2.2.9 4.1 1.8 5.8 2.6zm-1.9-13.6h-3.1v3.7h3.1zm-3.2 4.5v3.7h3.1v-3.7z" fill="#fbfafa"/></svg>