<svg enable-background="new 0 0 400 400" viewBox="0 0 400 400" xmlns="http://www.w3.org/2000/svg"><path d="m361.2 9.6.8-1c.9.7 1.9 1.4 2.9 2.3l-.9 1.1c-1-1-2-1.8-2.8-2.4zm.5 10.6c.9-2.1 1.6-4.3 2.3-6.7.4.2.8.4 1.3.6-.7 2.1-1.5 4.3-2.2 6.6zm.4-15.2.9-.9c1 .8 2 1.6 2.8 2.4l-1 1c-.9-.9-1.8-1.7-2.7-2.5zm12.5-1.2h1.2v1.4h2.7v1.1h-2.7v2.7h-1.2v-.6h-1.8v1.3h4.9v3.8h-1.2v-.5h-3.7c0 .4-.1.9-.1 1.2h5.1v1h-5.2c0 .5-.1.9-.2 1.2h6v1h-5.2c1.1 1.3 2.9 2 5.5 2.2-.4.4-.7.8-.9 1.3-2.9-.5-4.8-1.6-5.7-3.5h-.1c-.8 1.7-2.7 2.9-5.9 3.6-.2-.4-.6-.8-.9-1.1 2.8-.6 4.6-1.4 5.4-2.5h-4.8v-1h5.3c.1-.3.2-.7.2-1.2h-4.9v-1h5c0-.4 0-.8.1-1.2h-3.5v.5h-1.2v-3.8h4.9v-1.3h-1.8v.5h-1.2v-2.7h-2.7v-1h2.6v-1.4h1.2v1.4h4.7v-1.4zm-6.6 8.3h3.6c0-.4 0-.9 0-1.4h-3.6zm1.9-4.6h4.7v-1.3h-4.7zm6.6 3.2h-3.7v1.4h3.7z" fill="#fbfcfa"/><path d="m385.3 3.8h1.3v2.2h2.8v-2.2h1.3v2.2h4.1v9.1h1.7v1.3h-16.9v-1.3h1.7v-9.1h4.1v-2.2zm.4 13.1.7 1.2c-1.8.9-3.8 1.9-6 2.9-.2-.4-.5-.8-.8-1.3 2.3-1 4.3-1.9 6.1-2.8zm-3.1-6.4h2.8v-3.2h-2.8zm0 4.6h2.8v-3.3h-2.8zm4-4.6h2.8v-3.2h-2.8zm0 4.6h2.8v-3.3h-2.8zm3.7 1.9c2.1.9 4.1 1.8 6.1 2.7l-.7 1.3c-2.2-1.1-4.2-2-6.1-2.9zm3.2-9.7h-2.8v3.2h2.8zm-2.8 7.8h2.8v-3.3h-2.8z" fill="#fbfcfa"/><g fill="#010102"><path d="m279.23 160.66c5.22-8.64 6.8-17.32 3.19-26.3-.9-2.25-3.79-4.21-6.22-5.22-5.73-2.37-11.6-5.1-17.65-5.85-10.27-1.27-20.73-1.08-31.1-1.62-2.43-.13-4.92-.44-7.22-1.17-3-.96-3.71-3.58-3.62-6.49.08-2.77 2.47-2.81 4.09-3 6.86-.81 13.76-1.32 20.65-1.92 2.43-.21 4.87-.37 7.19-.54 0-12.95 0-25.55 0-38.5-5.4 1.28-10.29 2.34-15.11 3.66-1.03.28-1.98 1.4-2.65 2.36-3.53 5.04-6.94 10.16-10.43 15.23-2.9 4.21-6.49 7.34-11.87 7.9-2.64.28-4.31-.43-3.84-3.34.47-2.94.97-5.93 1.98-8.72 2.57-7.13 7.91-12.17 12.96-17.63 6.78-7.32 14.52-11.98 24.4-12.94 3.59-.35 4.76-2.57 4.87-5.63.1-2.45-.08-4.92-.31-7.36-.54-5.59.39-10.68 4.54-14.78 6.1 1.8 8.21 5.86 6.93 12-.76 3.65-.86 7.47-.95 11.22-.05 2.07 1.35 3.17 3.47 3.82 6.16 1.88 12.86 3.04 18.22 6.33 10.37 6.37 18.57 15.12 21.47 27.58.5 2.14.44 4.45.32 6.67-.14 2.47-2.67 4.58-4.88 3.67-2.67-1.09-5.53-2.59-7.34-4.73-4.82-5.7-8.83-12.1-13.73-17.73-3.95-4.54-9.54-6.83-15.74-8.44-.13 1.14-.31 2.07-.34 3-.41 11.41-.74 22.82-1.24 34.22-.09 2.02.67 2.71 2.41 3.25 6.08 1.9 12.12 3.92 18.16 5.93 11.75 3.92 17.27 11 18.13 23.4.63 8.96-.58 17.57-4.63 25.76-2.57 5.2-4.72 10.63-6.74 16.07-.65 1.76-.49 3.93-.31 5.88 2.66 29.98 6.11 59.91 7.82 89.94.95 16.77 3.53 33.37 4.09 50.12.31 9.35-.54 18.73-.92 28.1-.13 3.36-2.17 5.07-5.33 5.29s-5.01-1.41-5.36-4.62c-.88-8.21-2-16.41-2.58-24.65-2.38-33.6-4.55-67.22-6.9-100.82-.77-10.94-1.83-21.86-2.82-32.78-.47-5.13-1.96-6.32-6.71-4.24-10.79 4.74-21.66 3.52-32.59 1.13-4.24-.93-8.12-2.73-9.7-7.34-1.45-4.22-.68-5.87 3.7-5.86 9.15.01 18.3.53 27.45.83 1.45.05 2.9.14 4.34.05 3.09-.2 6.43-.61 7.46-4.01 1.12-3.71.19-7.55-2.63-10.23-5.02-4.77-11.11-7.45-18.16-7.5-8.38-.06-16.76.08-25.13-.22-2.7-.1-5.46-1.06-7.99-2.1-2.45-1.01-3.63-3.08-3.24-5.97.39-2.91 1.97-4.07 4.74-4.62 17.81-3.53 35.4-3.31 52.43 3.53 3 1.2 5.26 4.27 7.81 6.53.98.91 1.82 1.97 3.16 3.4z"/><path d="m172.51 215.08c.53-4.17 1.1-8.59 1.76-13.73-5.14 0-10.03.03-14.93-.01-17.79-.14-35.57-.26-53.36-.52-2.88-.04-5.79-.57-8.62-1.18-3.17-.69-4.9-2.7-5.13-6.14-.25-3.58 2.48-4.16 4.75-5.09 4.97-2.06 10.11-1.34 15.23-.62 1 .14 1.99.37 2.99.43 8.61.51 9.81-.57 10.23-9.02.12-2.45.35-4.9.53-7.38-2.66-1.34-5.34-2.47-7.79-3.96-11.26-6.88-16.8-19.3-9.91-34.4 1.2-2.63 4.82-5 7.77-5.8 6.84-1.85 13.93-3.55 20.96-3.71 11.93-.27 23.89.67 35.84 1.16 1.21.05 2.42.47 3.59.83 5.38 1.67 9.9 3.9 9.7 10.86-.1 3.4 1.32 6.82 1.5 10.26.39 7.15-1.14 13.67-7.49 18.11-.64.45-1.22 1.05-1.93 1.33-8.97 3.54-9.42 11.05-8.84 19.63 5.19.2 10.5.4 15.81.59 2.45.09 5.06-.35 7.32.35 2.41.75 4.98 2.14 6.61 4.01 2.6 2.99 2.03 4.41-1.4 6.5-.67.41-1.28.95-2 1.23-7.58 2.92-7.88 9.09-7.08 16.23 7.21.92 14.49 1.9 21.78 2.75 6.55.76 13.15 1.22 19.68 2.1 8.47 1.14 13.51 6.03 15.75 14.33 2.7 10.02.59 19.68-2.78 28.92-1.06 2.9-5.2 5.18-8.43 6.69-10.85 5.08-22.17 5.57-33.7 2.36-2.31-.64-2.11-2.38-2.14-3.97-.03-1.93-1.18-4.09 1.59-5.51 6.32-3.25 12.88-4.19 19.84-3.08 6.51 1.04 9.84-1.17 11.85-7.45 1.74-5.44 1.23-10.82-.3-16.15-.27-.95-1.16-2.13-2.03-2.43-4.07-1.38-8.21-3.41-12.37-3.54-18.67-.59-37.36-.65-56.05-.81-10.05-.09-19.77 1.92-29.29 5.03-3.57 1.17-4.43 4.53-4.33 7.23.18 5.05 1.25 10.13 2.5 15.05.33 1.32 2.5 2.64 4.08 3.09 3.93 1.11 7.97 2.03 12.03 2.43 5.24.52 8.26 2.52 9.02 7.26.16.97-.56 2.62-1.38 3.13-4.76 2.96-9.98 3.77-15.47 2.45-1.74-.42-3.44-.95-5.18-1.36-14.95-3.5-18.49-13.45-18.9-25.22-.21-6.24 1.55-12.57 2.68-18.8.21-1.18 1.49-2.42 2.59-3.14 7.61-4.91 16.28-6.68 25.06-7.9 9.04-1.25 18.14-2.25 27.79-3.42zm1.64-75.78c-.97-.18-1.61-.39-2.26-.41-14.4-.55-28.79-1.13-43.19-1.58-8.05-.25-11.55 4.05-10.18 11.92.61 3.51 2.02 6 5.81 6.77 5.9 1.2 11.71 2.92 17.65 3.77 8.24 1.19 16.48.97 24.5-1.83 6.28-2.19 6.8-2.76 7.17-9.36.17-2.99.32-5.99.5-9.28zm-17.08 46.7c-.34-3.85-.43-6.97-.98-10.01-.18-1.02-1.48-2.58-2.34-2.63-4.49-.27-9-.12-13.53-.12v12.77c5.59-.01 10.9-.01 16.85-.01z"/><path d="m98.3 107.29c5.05-.31 9.72-.74 14.39-.86 7.49-.19 15 .01 22.49-.28 5.54-.21 5.53-.44 5.53-5.81 0-2.79 0-5.59 0-8.83-5.48-1.1-10.87-2.42-16.34-3.2-3.88-.55-6.6-2.58-8.94-5.37-3.71-4.42-5.93-9.63-6.17-15.31-.32-7.68-.38-15.42.24-23.06.54-6.7 1.12-6.76 8.11-7.87 4.77 7.43 6.72 15.6 4.88 24.27-2.25 10.57 3.44 14.17 11.28 15.67 1.95.37 3.94.51 6.01.77 2.89-9.33 2.59-18.51 1.37-27.77-1.15-8.7.78-16.83 4.74-24.51 5.33.66 7.1 2.27 7.9 7.21.28 1.76.45 3.55.45 5.33.04 11.75.01 23.51.02 35.26 0 3.56 1.9 5.4 5.45 4.79 2.73-.47 5.42-1.37 8.01-2.38.86-.33 1.77-1.48 1.97-2.41 1.24-5.65 2.39-11.31 3.34-17.02.66-3.95.59-8.04 1.47-11.93.9-3.95 3.66-6.53 8.05-7.42 4.31 7.74 5.16 16.05 4.42 24.63-.25 2.89-.7 5.77-1.17 8.64-2.09 12.65-10.09 19.7-22.95 20.33-2.32.11-4.63.41-7.12.64-.48 4.42-.93 8.61-1.45 13.38 5.52.25 10.83.5 16.14.74 5.13.23 10.32.05 15.37.83 2.37.37 4.96 2.13 6.55 4.02 2.16 2.58 1.21 5.55-2.01 6.56-3.78 1.19-7.78 2.12-11.72 2.27-14.52.56-29.05.74-43.58 1.08-11.21.26-22.36-.11-33.33-2.87-2.68-.68-3.82-1.75-3.42-4.51.19-1.39.02-2.86.02-5.01z"/><path d="m250.57 287.22c4.08 8.48 4.21 8.75-2.82 13.7-6.75 4.76-13.82 9.07-20.79 13.52-6.59 4.21-12.05 9.57-16.8 16.18 3.96 2.31 8 2.37 11.93.93 2.79-1.03 5.38-2.68 7.93-4.26 5.13-3.18 10.17-6.51 15.27-9.73.84-.53 1.79-.95 2.74-1.19 3-.75 5.94-.67 7.82 2.18s1.01 6.01-1.08 8.05c-9.29 9.05-19.33 17.38-32.41 19.88-5.25 1-11.04-.75-16.58-1.26-.98-.09-1.95-.24-3.67-.46-.48 5.06-1.01 9.9-1.36 14.75-.2 2.67.27 5.44-.24 8.03-.43 2.17-1.39 4.59-2.91 6.12-2.63 2.65-6.74 1.76-8.71-1.42-2.68-4.33-3.02-9.05-2.06-13.92 1.07-5.37 2.11-10.75 3.38-16.08.96-4.02.41-7.51-2.52-10.54-7.5-7.77-8.84-16.49-4.83-26.55 2.17-5.43 4.52-10.27 9.56-13.66 3.7-2.48 6.99-5.58 10.45-8.42 3.19-2.61 6.62-2.73 8.9-.29 1.92 2.05 1.32 6.56-1.21 9.14-3.67 3.76-7.41 7.46-10.98 11.32-4.69 5.06-4.84 11.05-3.14 17.3.23.84.98 1.54 1.59 2.46 14.31-17.06 29.3-32.35 52.54-35.78z"/><path d="m167.69 253.53c-4.62 0-9.41 0-14.19 0-1.34 0-2.69.04-4.03-.01-5.08-.21-7.84-3.08-7.86-8.09-.01-2.65 4.01-5.53 7.91-5.54 11.64-.03 23.27-.1 34.91.02 8.6.08 17.2.38 25.8.69 1.29.05 3.08.25 3.75 1.09 1.45 1.82 2.64 4.01 3.22 6.24.16.6-2.12 2.14-3.5 2.77-5.35 2.46-11.1 2.27-16.81 2.15-3.58-.07-7.16-.07-10.73-.2-2.56-.09-3.76.69-3.81 3.58-.12 7.82-.78 15.64-.83 23.46-.1 15.55-11.05 21.99-22.97 22.77-6.43.42-12.69 1.47-18.1 5.26-1.4.98-2.76 2.31-3.59 3.78-4.81 8.56-5.84 17.92-5.64 27.56.11 5.34-.02 10.72-.57 16.03-.36 3.5-2.21 6.52-5.47 8.42-2.24 1.3-4.16 1.3-5.06-1.41-1.3-3.89-3.01-7.83-3.33-11.84-1.09-13.77 1.31-27.14 5.5-40.27 1.76-5.52 6.4-8.44 10.02-12.3 4.26-4.54 9.37-7.68 15.56-8.56 3.86-.55 7.81-.39 11.7-.74 5.83-.52 8.08-2.98 8.11-8.74.04-8.37.01-16.74.01-26.12z"/></g></svg>