<svg enable-background="new 0 0 400 400" viewBox="0 0 400 400" xmlns="http://www.w3.org/2000/svg"><path d="m361.2 9.6.8-1c.9.7 1.9 1.4 2.9 2.3l-.9 1.1c-1-1-2-1.8-2.8-2.4zm.5 10.6c.9-2.1 1.6-4.3 2.3-6.7.4.2.8.4 1.3.6-.7 2.1-1.5 4.3-2.2 6.6zm.4-15.2.9-.9c1 .8 2 1.6 2.8 2.4l-1 1c-.9-.9-1.8-1.7-2.7-2.5zm12.5-1.2h1.2v1.4h2.7v1.1h-2.7v2.7h-1.2v-.6h-1.8v1.3h4.9v3.8h-1.2v-.5h-3.7c0 .4-.1.9-.1 1.2h5.1v1h-5.2c0 .5-.1.9-.2 1.2h6v1h-5.2c1.1 1.3 2.9 2 5.5 2.2-.4.4-.7.8-.9 1.3-2.9-.5-4.8-1.6-5.7-3.5h-.1c-.8 1.7-2.7 2.9-5.9 3.6-.2-.4-.6-.8-.9-1.1 2.8-.6 4.6-1.4 5.4-2.5h-4.8v-1h5.3c.1-.3.2-.7.2-1.2h-4.9v-1h5c0-.4 0-.8.1-1.2h-3.5v.5h-1.2v-3.8h4.9v-1.3h-1.8v.5h-1.2v-2.7h-2.7v-1h2.6v-1.4h1.2v1.4h4.7v-1.4zm-6.6 8.3h3.6c0-.4 0-.9 0-1.4h-3.6zm1.9-4.6h4.7v-1.3h-4.7zm6.6 3.2h-3.7v1.4h3.7z" fill="#fbfcfa"/><path d="m385.3 3.8h1.3v2.2h2.8v-2.2h1.3v2.2h4.1v9.1h1.7v1.3h-16.9v-1.3h1.7v-9.1h4.1v-2.2zm.4 13.1.7 1.2c-1.8.9-3.8 1.9-6 2.9-.2-.4-.5-.8-.8-1.3 2.3-1 4.3-1.9 6.1-2.8zm-3.1-6.4h2.8v-3.2h-2.8zm0 4.6h2.8v-3.3h-2.8zm4-4.6h2.8v-3.2h-2.8zm0 4.6h2.8v-3.3h-2.8zm3.7 1.9c2.1.9 4.1 1.8 6.1 2.7l-.7 1.3c-2.2-1.1-4.2-2-6.1-2.9zm3.2-9.7h-2.8v3.2h2.8zm-2.8 7.8h2.8v-3.3h-2.8z" fill="#fbfcfa"/><g fill="#010102"><path d="m243.71 130.48c-8.95 1.04-17.22 2.09-25.51 2.92-3.55.35-7.16.53-10.71.29-4.1-.28-7.04-2.51-8.53-6.53-.67-1.8-.24-2.8 1.33-3.87 5.99-4.1 12.83-4.94 19.77-5.58 7.91-.73 15.8-1.57 23.71-2.25 2.06-.18 2.59-.92 2.9-3.03 2.99-20.2-5.22-37.47-14.07-54.55-3.13-6.05-6.72-11.87-10.25-17.69-2.53-4.18-2.8-8.34-.85-12.79.86-1.97 1.88-2.65 4.11-2.07 4.12 1.06 6.98 3.66 8.87 7.18 6.78 12.59 13.56 25.18 20 37.95 5.54 10.98 5.98 23.04 6.53 35.02.16 3.46.45 6.91.69 10.45 4.54.61 9.1.63 13.28 1.91 6.15 1.88 12.39 4.04 17.95 7.19 11.53 6.54 16.57 17.73 13.23 30.88-2.23 8.78-5.79 17.4-9.95 25.47-5.81 11.3-9.71 23.01-11.25 35.57-1.49 12.1-3.49 24.16-4.31 36.31-1.47 21.82 3.66 42.75 11.08 62.99 4.4 12 10.83 23.25 16.08 34.95 1.58 3.52 2.28 7.43 3.32 11.19.74 2.69-.37 5.13-2.81 5.61-2.22.43-5.88.16-6.92-1.26-4.4-5.99-9.08-12.11-11.82-18.92-10.17-25.28-17.86-51.31-20.05-78.65-1.68-20.95-1.73-41.95 4.4-62.22 3.73-12.36 9.73-24.01 14.04-36.22 2.35-6.66 3.96-13.76 4.67-20.78.81-7.97-4.38-13.87-12.24-15.61-3.49-.77-7.04-1.29-10.54-2.01-3.39-.7-6.75-1.53-10.58-2.41-1.67 6.29-3.41 12.47-4.94 18.71-6.15 25.07-12.41 50.12-18.23 75.26-1.37 5.93-1.35 12.2-1.71 18.34-1.08 18.32-2.5 36.64-2.82 54.97-.16 8.86 1.75 17.77 2.87 26.64 1.76 13.87 3.71 27.71 5.39 41.59.26 2.12-.3 4.43-.9 6.53-.67 2.35-2.71 3.02-5.02 3.12-2.21.09-3.63-.55-4.82-2.68-4.36-7.82-5.8-16.37-6.82-25.06-1.46-12.44-3.18-24.85-4.36-37.32-1.52-16.08-1.34-32.23.43-48.27 2.22-20.11 4.62-40.23 7.91-60.18 2.01-12.2 5.81-24.1 8.85-36.12 2.68-10.62 5.43-21.22 8.13-31.84.16-.65.2-1.31.47-3.13z"/><path d="m95.09 45.82c2.52 6.93 5.1 13.71 7.42 20.58.86 2.56 2.5 3.91 4.89 3.56 4.03-.58 8.07-1.44 11.96-2.63 11.1-3.41 16.54-11.18 17.76-22.65.56-5.23 2.58-10.3 3.9-15.27 7.89.34 11.09 3.71 11.3 10.62.15 5.01.45 10.05 1.14 15.01.91 6.59 5.14 10.85 11.11 13.17 4.44 1.72 9.16 2.76 14.33 4.28 1.47-4.84 2.86-9.27 4.16-13.72.57-1.93.73-4.01 1.54-5.82.94-2.09 2.03-4.35 3.68-5.85 4.17-3.78 8.77-2.46 9.88 2.99.65 3.15.83 6.92-.29 9.83-6.86 17.74-6.15 36.2-5.82 54.64.19 10.76-1.35 21.13-5.48 31.14-1.62 3.93-4.1 6.74-7.62 8.98-8.77 5.58-18.43 7.98-28.66 8.07-15.67.13-31.01-1.95-45.5-8.29-1.75-.77-3.52-2.41-4.39-4.1-4.86-9.39-6.79-19.55-7.35-30.05-.77-14.4-1.38-28.83-2.7-43.18-.56-6.05-3.03-11.89-4.1-17.92-.61-3.45-.23-7.08-.16-10.63.04-2.21 1.28-3.04 3.51-2.79 1.74.19 3.54.03 5.49.03zm48.39 22.16c-.96.81-1.63 1.37-2.29 1.94-5.68 4.93-11.94 8.39-19.65 9.31-4.25.51-8.34 2.33-12.51 3.53-2.16.63-2.84 2.06-2.85 4.26-.02 11.18-.41 22.37-.16 33.55.17 7.68 2.14 15.08 6.64 21.48 1.13 1.6 2.98 3.02 4.81 3.74 9.01 3.53 18.5 4.13 28.05 3.72 9.52-.41 18.58-2.52 26.43-8.35 1.7-1.26 2.66-2.67 2.75-4.98.41-11.29 1.11-22.56 1.53-33.85.21-5.66.04-11.33.04-17.39-12.89-1.1-25.21-4.42-32.79-16.96z"/><path d="m139.84 169.4c14.01-.08 27.92 1.1 41.36 5.36 9.71 3.07 14.67 10.37 16.77 19.98 2.85 13.04-.21 25.52-3.59 37.96-.26.95-1.25 1.8-2.09 2.47-8.64 6.92-18.75 10.23-29.54 11.67-16.81 2.25-33.35.93-49.9-2.86-12.79-2.93-18.3-11.55-20.32-23.19-2.22-12.82-.17-25.38 4.03-37.6.37-1.07 1.35-2.03 2.25-2.8 8.23-7.06 18.15-9.88 28.64-10.92 4.09-.41 8.26-.07 12.39-.07zm11.49 44.89v18.27c3.47 0 6.7.13 9.92-.04 3.11-.16 6.26-.38 9.3-1.01 9.53-1.98 13.14-6.77 13.04-17.03-.74-.07-1.5-.19-2.26-.19-9.93 0-19.85 0-30 0zm33.02-14.42c-3.29-13.64-18.07-20.75-33.03-16.34v16.34zm-49.34 14.64c-9.42 0-18.5 0-27.81 0 .77 2.94 1.83 5.59 2.1 8.31.58 5.74 3.88 7.98 9.22 8.83 6.04.96 11.99 2.45 18.23.15-.58-5.83-1.16-11.55-1.74-17.29zm-27.71-14.69h30.03c0-4.36.19-8.16-.1-11.91-.1-1.28-1.2-3.31-2.18-3.54-3.07-.7-6.41-1.34-9.45-.83-4.47.75-8.78 2.46-13.11 3.91-.91.3-2.02 1.15-2.29 1.98-1.15 3.48-2 7.05-2.9 10.39z"/><path d="m150.07 275.08c-7.46 0-14.48 0-22 0 0 1.26.01 2.44 0 3.61-.22 16.22.01 32.46-.85 48.64-.49 9.31-2.46 18.58-4.33 27.75-1.22 5.95-4.39 7.36-10.65 5.89 0-9.2-.3-18.45.06-27.68.73-18.2 3.25-36.33 1.7-54.62-.27-3.19-1.34-4.47-4.28-4.37-5.25.19-10.49.54-15.73.71-2.22.07-4.52.17-6.65-.31-3.83-.86-6.12-5.34-4.88-8.97.13-.38.4-.89.72-1 3.86-1.37 7.73-3.78 11.61-3.82 30.77-.31 61.55-.19 92.32-.15 3.12 0 6.27.25 9.36.68 1.6.23 3.26.87 4.6 1.77 2.46 1.65 2.78 4.44 2.08 6.93-.32 1.16-2.25 2.43-3.61 2.65-5.71.92-11.48 1.54-17.24 2.13-4.88.5-9.79.77-14.68 1.22-2.33.21-3.23 1.44-3.47 3.96-1.83 18.85 1.64 37.23 4.53 55.68.66 4.2 1.43 8.38 1.95 12.59.72 5.81-2.85 9.92-7.72 9.06-2.09-.37-3.44-1.3-4.16-3.66-5.81-19.02-7.57-38.55-7.88-58.3-.09-6.68-.51-13.36-.8-20.39z"/><path d="m142.61 119.77c5.1.42 10.24.63 15.3 1.36 1.96.29 4.06 1.42 5.54 2.78 3.55 3.26 2.89 7.39-1.54 9.01-3.72 1.36-7.78 2.82-11.62 2.66-9.43-.38-18.83-1.68-28.24-2.6-2.6-.25-2.78-2.09-2.74-4.09.05-2.04-.96-3.96 2.07-5.47 6.84-3.37 13.97-3.44 21.23-3.65z"/><path d="m140.88 89.18c5.12.33 10.27.37 15.33 1.06 4.62.63 7.41 3.57 7.39 7.33-.01 1.22-.97 2.95-2.01 3.55-5.49 3.19-11.73 3.91-17.83 3.52-6.74-.43-13.4-2.01-20.11-3.03-2.18-.33-2.51-1.77-2.5-3.58.01-2.06-1.31-4.12 1.48-5.84 3.13-1.94 6.38-2.5 9.85-2.59 2.79-.07 5.58-.01 8.38-.01.01-.13.02-.27.02-.41z"/></g></svg>