<svg enable-background="new 0 0 400 400" viewBox="0 0 400 400" xmlns="http://www.w3.org/2000/svg"><path d="m361.2 9.6.8-1c.9.7 1.9 1.4 2.9 2.3l-.9 1.1c-1-1-2-1.8-2.8-2.4zm.5 10.6c.9-2.1 1.6-4.3 2.3-6.7.4.2.8.4 1.3.6-.7 2.1-1.5 4.3-2.2 6.6zm.4-15.2.9-.9c1 .8 2 1.6 2.8 2.4l-1 1c-.9-.9-1.8-1.7-2.7-2.5zm12.5-1.2h1.2v1.4h2.7v1.1h-2.7v2.7h-1.2v-.6h-1.8v1.3h4.9v3.8h-1.2v-.5h-3.7c0 .4-.1.9-.1 1.2h5.1v1h-5.2c0 .5-.1.9-.2 1.2h6v1h-5.2c1.1 1.3 2.9 2 5.5 2.2-.4.4-.7.8-.9 1.3-2.9-.5-4.8-1.6-5.7-3.5h-.1c-.8 1.7-2.7 2.9-5.9 3.6-.2-.4-.6-.8-.9-1.1 2.8-.6 4.6-1.4 5.4-2.5h-4.8v-1h5.3c.1-.3.2-.7.2-1.2h-4.9v-1h5c0-.4 0-.8.1-1.2h-3.5v.5h-1.2v-3.8h4.9v-1.3h-1.8v.5h-1.2v-2.7h-2.7v-1h2.6v-1.4h1.2v1.4h4.7v-1.4zm-6.6 8.3h3.6c0-.4 0-.9 0-1.4h-3.6zm1.9-4.6h4.7v-1.3h-4.7zm6.6 3.2h-3.7v1.4h3.7z" fill="#fbfcfa"/><path d="m385.3 3.8h1.3v2.2h2.8v-2.2h1.3v2.2h4.1v9.1h1.7v1.3h-16.9v-1.3h1.7v-9.1h4.1v-2.2zm.4 13.1.7 1.2c-1.8.9-3.8 1.9-6 2.9-.2-.4-.5-.8-.8-1.3 2.3-1 4.3-1.9 6.1-2.8zm-3.1-6.4h2.8v-3.2h-2.8zm0 4.6h2.8v-3.3h-2.8zm4-4.6h2.8v-3.2h-2.8zm0 4.6h2.8v-3.3h-2.8zm3.7 1.9c2.1.9 4.1 1.8 6.1 2.7l-.7 1.3c-2.2-1.1-4.2-2-6.1-2.9zm3.2-9.7h-2.8v3.2h2.8zm-2.8 7.8h2.8v-3.3h-2.8z" fill="#fbfcfa"/><g fill="#010102"><path d="m234.38 44.68c5.3 1.36 7.93 4.32 7.69 10.33-.32 7.9-1.35 15.78-2.18 23.66-1.88 17.88-1.9 35.74.24 53.59.15 1.21.43 2.42.75 3.61 3.17 11.98 10.88 16.52 22.95 13.98 5.01-1.05 8.33-3.56 10.59-8.14 4.1-8.32 5.69-17.18 5.99-26.29.53-15.93-.81-31.73-3.48-47.46-.87-5.12-.46-10.47-.38-15.71.02-1.47.7-3.09 1.52-4.35 2.46-3.79 6.06-3.94 8.14-.06 1.65 3.08 3.03 6.55 3.47 9.98 1.31 10.32 2.28 20.68 3.06 31.06 1.51 19.89.61 39.6-5.5 58.78-.54 1.71-1.64 3.36-2.84 4.71-1.62 1.83-3.69 3.27-5.4 5.03-2.71 2.79-5.76 4.84-9.61 5.75-.93.22-2.33 1.39-2.35 2.15-.17 8.37-.11 16.75-.11 26.11 7.37 0 15.14-.03 22.9.01 4.23.02 8.51-.18 12.69.3 5.05.57 8.21 3.71 8.9 7.83.31 1.84.12 3.47-1.97 3.96-4.53 1.04-9.06 2.55-13.64 2.78-9.03.44-18.09.13-27.14.14-.65 0-1.3.1-2.28.18-.07 1.3-.19 2.48-.19 3.67-.01 40.76.02 81.51-.03 122.27-.01 10.85-.2 21.7-.46 32.54-.05 1.97-.61 3.99-1.27 5.87-.72 2.02-1.24 4.17-4.31 4.33-3.26.17-5.64-.73-6.36-3.88-1.04-4.53-2.25-9.17-2.25-13.77-.03-48.93.17-97.85.3-146.78.01-4.81.01-5.13-4.92-5.25-6.01-.15-12.04.39-18.06.47-4.11.05-8.28.19-12.31-.43-1.94-.3-4.09-1.93-5.32-3.58-2.68-3.57-1.62-6.51 2.38-8.46 5.83-2.84 11.88-2.36 18.07-1.74 5.18.52 10.42.45 15.64.44 2.02 0 2.95-1.2 3.04-3.48.28-7.16.75-14.31 1.37-21.44.2-2.32-.56-3.57-2.63-4.29-.52-.18-.98-.58-1.5-.73-12.39-3.57-17.29-13.31-20.14-24.64-3.41-13.53-3.06-27.33-2.27-41.08.7-12.28 1.93-24.53 2.96-36.79.48-5.75 2.6-10.81 6.25-15.18z"/><path d="m143.85 170.18c9.51 1.1 19.19 1.45 28.49 3.48 14.47 3.15 23.13 14.65 23.57 29.54.33 10.93-.78 21.69-4.56 32.02-.54 1.49-1.5 3.02-2.68 4.06-11.2 9.91-24.57 13.88-39.26 13.78-14.04-.09-27.9-1.75-41.28-6.24-1.79-.6-3.67-1.73-4.88-3.15-9.25-10.78-12.02-23.61-10.57-37.33.72-6.84 2.66-13.56 4.26-20.28.33-1.38 1.41-2.81 2.53-3.75 8.8-7.38 18.91-11.33 30.49-11.2 4.59.05 9.18.01 13.77.01.04-.31.08-.62.12-.94zm6.07 45.75v21.62c8.84.28 17.12-.2 24.95-4.53 5.22-2.88 6.29-7.53 6.76-12.58.19-2.09-.42-4.47-3.34-4.48-9.38-.07-18.76-.03-28.37-.03zm-14.56.18c-10.17 0-19.18 0-28.64 0 1.72 5.94 3.35 11.6 5.03 17.25.14.47.6.98 1.05 1.19 6.64 3.09 13.52 4.63 20.79 2.79.73-.18 1.67-1.44 1.69-2.22.14-6.24.08-12.48.08-19.01zm14.46-14.33h31.44c-2.55-12.63-17.08-19.97-31.44-16.36zm-14.08.12c0-3.56.07-6.45-.02-9.34-.19-6.26-4.71-9.33-10.69-7.16-4.62 1.68-9.16 3.56-13.71 5.43-.75.31-1.8.93-1.93 1.57-.67 3.21-1.08 6.47-1.55 9.51 9.33-.01 18.24-.01 27.9-.01z"/><path d="m175.54 72.46c1.49-6.5 2.77-12.5 4.27-18.45.68-2.69 1.59-5.37 2.8-7.85.69-1.42 2.02-2.73 3.38-3.6 4.13-2.67 7.13-1.72 8.05 3.02.73 3.73 1.36 8.09.15 11.49-7.13 19.95-6.75 40.62-7.3 61.33-.26 9.74-2.63 19.43-4.22 29.12-.21 1.27-1.26 2.6-2.26 3.52-11.98 10.96-26.25 14.6-42.17 13.33-9.98-.8-19.74-2.5-29.19-5.78-1.46-.51-2.95-1.58-3.92-2.8-8.75-11.04-11.47-23.88-11.65-37.7-.17-13.2-.77-26.41-1.88-39.56-.6-7.08-2.83-14.01-4.03-21.06-.59-3.5-.4-7.12-.73-10.67-.37-3.97 1.6-5.78 5.3-5.91.97-.03 2.4.4 2.88 1.11 4.13 6.19 7.21 12.83 8.24 20.32.8 5.83 2.86 7.69 7.84 6.26 11.57-3.32 20.63-9.77 23.89-22.07.9-3.4.8-7.1.86-10.66.06-3.6 1.35-6.45 3.97-8.88 1.75-1.62 3.42-1.71 5.47-.7 4.51 2.21 5.88 6.21 6.23 10.74.4 5.13.72 10.28.93 15.42.25 6.12 3.59 10.32 8.55 13.14 4.54 2.59 9.44 4.51 14.54 6.89zm-69.08 9.7c0 13.15-.11 25.89.04 38.63.1 8.28 2.14 16.15 6.16 23.43.54.98 1.45 2.12 2.43 2.44 13.52 4.37 27.28 6.02 41.25 2.56 8.14-2.02 15.14-5.63 16.4-15.24.35-2.66 1.02-5.31 1.03-7.96.06-12.3-.11-24.6-.09-36.9.01-5.07.19-5.33-4.72-6.33-7.11-1.46-13.15-4.57-18.25-9.77-2.63-2.69-5.72-4.93-8.96-7.69-9.11 11.08-21.84 14.21-35.29 16.83z"/><path d="m151.96 280.19c-8.19 0-16.31 0-24.9 0 0 1.56.01 3.41 0 5.27-.11 16 .24 32.03-.51 48-.45 9.56-2.61 19.04-4.06 28.54-.17 1.08-.62 2.17-1.16 3.13-1.67 2.94-4.58 4.44-7.58 3.73-1.57-.37-3.56-3.03-3.68-4.77-.38-5.41-.59-10.97.28-16.29 2.65-16.28 4.95-32.51 3.03-49.08-.55-4.72-.31-9.59.13-14.34.27-2.92-.86-4.03-3.3-4.14-4.67-.21-9.36-.19-14.04-.26-2.34-.04-4.72.22-7-.15-4.71-.76-6.89-4.03-6.07-8.72.12-.68.54-1.7 1.05-1.87 4.08-1.37 8.21-3.6 12.34-3.65 28.32-.32 56.64-.19 84.97-.14 3.46.01 6.95.22 10.36.78 2.13.35 4.41 1.14 6.11 2.42 3.74 2.82 3.4 6.53-.96 7.86-5.06 1.54-10.42 2.24-15.69 2.96-4.08.55-8.25.49-12.36.84-2.98.26-4.21 1.91-4.63 5.03-2.22 16.51-.54 32.85 1.67 49.18.9 6.65 2.08 13.27 2.88 19.93.26 2.16.02 4.48-.5 6.6-.6 2.46-2.44 4.13-5.08 4.16-2.66.03-4.88-.82-6.19-3.63-4.34-9.33-5.62-19.27-6.16-29.36-.89-16.79-.96-33.57 1.2-50.29.02-.41-.08-.84-.15-1.74z"/><path d="m117.21 123.7c6.68-3.62 13.52-5.17 20.86-4.68 5.79.39 11.62.26 17.39.82 3.4.33 6.33 2.08 8.14 5.27 1.25 2.19 1.17 3.78-1.21 5.27-4.78 2.99-9.98 4.89-15.52 4.58-7.45-.41-14.9-1.32-22.27-2.49-6.62-1.05-6.92-1.75-7.39-8.77z"/><path d="m139.08 88.83c3.91 0 7.83-.23 11.72.06 4.64.34 8.73 1.96 10.72 6.72.72 1.72.91 3.27-1.25 4.07-3.21 1.18-6.36 2.88-9.68 3.38-9.36 1.42-18.63.72-27.8-1.96-4.04-1.18-2.42-4.46-3.31-6.8-.81-2.11 1.01-2.83 2.37-3.33 2.44-.9 4.96-1.8 7.52-2.08 3.2-.35 6.47-.08 9.7-.08.01.01.01.02.01.02z"/></g></svg>