<svg enable-background="new 0 0 400 400" viewBox="0 0 400 400" xmlns="http://www.w3.org/2000/svg"><path d="m361.2 9.6.8-1c.9.7 1.9 1.4 2.9 2.3l-.9 1.1c-1-1-2-1.8-2.8-2.4zm.5 10.6c.9-2.1 1.6-4.3 2.3-6.7.4.2.8.4 1.3.6-.7 2.1-1.5 4.3-2.2 6.6zm.4-15.2.9-.9c1 .8 2 1.6 2.8 2.4l-1 1c-.9-.9-1.8-1.7-2.7-2.5zm12.5-1.2h1.2v1.4h2.7v1.1h-2.7v2.7h-1.2v-.6h-1.8v1.3h4.9v3.8h-1.2v-.5h-3.7c0 .4-.1.9-.1 1.2h5.1v1h-5.2c0 .5-.1.9-.2 1.2h6v1h-5.2c1.1 1.3 2.9 2 5.5 2.2-.4.4-.7.8-.9 1.3-2.9-.5-4.8-1.6-5.7-3.5h-.1c-.8 1.7-2.7 2.9-5.9 3.6-.2-.4-.6-.8-.9-1.1 2.8-.6 4.6-1.4 5.4-2.5h-4.8v-1h5.3c.1-.3.2-.7.2-1.2h-4.9v-1h5c0-.4 0-.8.1-1.2h-3.5v.5h-1.2v-3.8h4.9v-1.3h-1.8v.5h-1.2v-2.7h-2.7v-1h2.6v-1.4h1.2v1.4h4.7v-1.4zm-6.6 8.3h3.6c0-.4 0-.9 0-1.4h-3.6zm1.9-4.6h4.7v-1.3h-4.7zm6.6 3.2h-3.7v1.4h3.7z" fill="#fbfcfa"/><path d="m385.3 3.8h1.3v2.2h2.8v-2.2h1.3v2.2h4.1v9.1h1.7v1.3h-16.9v-1.3h1.7v-9.1h4.1v-2.2zm.4 13.1.7 1.2c-1.8.9-3.8 1.9-6 2.9-.2-.4-.5-.8-.8-1.3 2.3-1 4.3-1.9 6.1-2.8zm-3.1-6.4h2.8v-3.2h-2.8zm0 4.6h2.8v-3.3h-2.8zm4-4.6h2.8v-3.2h-2.8zm0 4.6h2.8v-3.3h-2.8zm3.7 1.9c2.1.9 4.1 1.8 6.1 2.7l-.7 1.3c-2.2-1.1-4.2-2-6.1-2.9zm3.2-9.7h-2.8v3.2h2.8zm-2.8 7.8h2.8v-3.3h-2.8z" fill="#fbfcfa"/><path d="m139.01 194.93c13.97.49 27.71 1.02 41.45 1.43 7.88.23 7.95.15 9.01-7.68 1.47-10.88.26-21.69-1.28-32.44-1.68-11.73-3.72-23.41-5.72-35.09-.22-1.3-1.14-2.54-1.92-3.68-.56-.81-1.4-1.44-2.16-2.11-13.64-11.91-25.61-25.3-35.77-40.3-1.52-2.24-3.43-3.14-5.9-3.02-5.02.24-10.04.64-15.06.94-2.56.15-5.23.71-7.67.21-2.11-.43-4.55-1.65-5.8-3.31-2.62-3.46-1.29-6.42 2.88-7.54 9.2-2.46 18.61-2.18 28.01-2.01 16.78.3 33.56.6 50.34.89.43.01.85-.12 1.74-.25.22-7.59.55-15.16.63-22.73.06-4.72 1.88-8.54 5.5-11.33 1.06-.82 3.13-1.14 4.43-.72 4.4 1.42 6.61 5.33 5.97 10.41-.47 3.76-1.62 7.44-2.05 11.21-.36 3.19-.32 6.47-.08 9.68.2 2.59 1.52 3.87 4.63 3.85 27.88-.19 55.75-.17 83.63-.19 1.68 0 3.38-.04 5.02.23 2.74.46 4.67 1.87 5.23 4.88.55 2.99-1.29 4.2-3.46 5.37-4.72 2.55-9.83 2.62-14.72 1.4-14.09-3.53-25.19.85-34.32 11.71-8.98 10.67-18.78 20.5-31.34 27-9.84 5.09-13.11 14.14-15.11 24.01-3.84 18.99-5.05 38.13-2.59 57.4.14 1.08 1.43 2.83 2.25 2.87 13.16.58 26.33.93 39.58 1.33 1.43-4.33.19-8.08-1.65-11.74-4.73-9.43-11.88-17.03-18.86-24.74-.74-.82-2.11-1.4-3.23-1.48-2.66-.19-5.34-.07-8.01.04-1.94.08-3.97.43-4.7-2.02-.71-2.38-.81-4.69 1.73-6.19 5.28-3.12 10.37-6.66 15.91-9.23 9.41-4.36 17.65-9.89 23.97-18.32 3.21-4.29 3.8-9.19 4.97-14.03.99-4.07 2.8-5.63 5.89-4.54 1.22.43 2.2 1.85 3.02 3.01.47.67.48 1.72.52 2.6.5 12.4 7.13 22.01 14.93 30.65 5.13 5.68 11.63 10.11 17.53 15.09 3.16 2.66 6.36 5.29 9.49 7.89-1.97 5.46-6.43 7.25-11.37 4.73-7.14-3.64-9.43-3.26-14.91 2.47-1.55 1.62-2.91 3.47-4.65 4.83-8.82 6.85-11.38 16.67-13.25 26.93-2.57 14.1-2.16 28.3-1.95 42.51.54 37.16 1.04 74.31 1.46 111.47.05 4.43-.36 8.89-.92 13.29-.35 2.71-1.92 4.81-5.05 4.93-3.34.13-6.07-1-6.93-4.49-.85-3.45-1.84-6.99-1.84-10.49.04-35.71.26-71.41.44-107.12.01-1.2 0-2.4 0-4.06-5.76 0-11.22.02-16.67 0-26.08-.1-52.16-.21-78.24-.34-4.81-.02-9.62-.07-14.43-.25-2.05-.08-2.66.67-2.79 2.67-2 30.82-3.86 61.66-6.26 92.45-.65 8.3-2.75 16.53-4.71 24.67-.49 2.02-2.73 4.15-4.71 5.17-3.65 1.87-7.73 1.69-11.97.45 1.48-8.4 2.92-16.63 4.39-24.86 2.11-11.78 4.8-23.48 6.18-35.35 1.12-9.63.66-19.44.9-29.17.27-11.07-.38-22.25.99-33.18 2.24-17.81 4.25-35.55 3.04-53.51-.64-9.52-2.17-18.82-6.43-27.58-3.71-7.62-10.25-12.01-17.2-15.88-2.1-1.17-5-.99-7.56-1.19-1.87-.15-3.8.01-3.82-2.57-.02-2.4-1.1-5.13 2.14-6.64 7.19-3.34 14.37-6.73 21.46-10.3 10.75-5.41 18.35-13.08 18.28-26.15-.01-2.58 1.12-4.79 3.75-5.85 3.28-1.32 4.85-.59 6.01 2.73 1.25 3.59 2.58 7.14 3.84 10.73 2.65 7.58 7.82 12.99 14.78 16.66 5.33 2.81 10.88 5.21 16.31 7.84 3.8 1.84 7.15 4.18 8.86 8.28.77 1.86.58 3.46-1.64 3.79-2.71.4-5.49.65-8.22.52-2.57-.13-4.13.71-5.98 2.61-5.05 5.2-10.59 9.92-15.92 14.85-7.19 6.63-11.8 14.54-12.27 24.99zm107.75 17.83c-36.86-.35-73.48-.7-110.35-1.05-.46 8.8-.89 17.12-1.34 25.73 37.42-.21 74.44-3.92 111.69-.66 0-8.15 0-15.82 0-24.02zm-50.16-96.89c16.47-14.16 32.66-28.08 48.84-42.01-.11-.28-.22-.57-.34-.85-27.92 0-55.84 0-84.1 0 11.92 14.34 23.62 28.43 35.6 42.86zm80.1 41.64c-6.78-7.37-13.33-14.5-19.95-21.69-7.51 5.64-14.81 11.11-22.37 16.79 6.75 8.63 13.3 17 19.96 25.51 7.6-7.01 14.82-13.66 22.36-20.61zm-145.13 15.27c8.47-8.97 16.68-17.65 24.96-26.42-6.64-4.93-13.7-10.16-20.83-15.46-7.48 5.39-14.78 10.66-22.4 16.15 7.92 7.5 14.38 15.68 18.27 25.73z" fill="#010102"/></svg>