<svg enable-background="new 0 0 400 400" viewBox="0 0 400 400" xmlns="http://www.w3.org/2000/svg"><g fill="#fbfafa"><path d="m37.59 393.81c-.92.31-1.52.05-2-.78-.7-1.2-1.52-2.34-2.47-3.78v4.59c-.55.03-.95.05-1.41.07-.03-.37-.06-.64-.06-.91 0-1.91 0-3.81 0-5.7 1.13-.41 1.77-.03 2.29.91.62 1.11 1.38 2.14 2.31 3.19v-4.2h1.35v6.61z"/><path d="m12.94 393.88v-6.75c1.9.19 3.93-.54 5.37 1.29.8 1.01.78 2.88.03 3.97-1.37 1.97-3.4 1.51-5.4 1.49m1.45-1.22c2.04.12 2.92-.58 2.89-2.21-.03-1.51-.98-2.19-2.89-2z"/><path d="m11.81 393.87h-5.49c.68-2.18 2.47-3.48 3.51-5.45h-3.08v-1.21h5.29c-.71 2.13-2.44 3.48-3.47 5.51.86 0 1.63.04 2.39-.01.79-.05 1.14.21.85 1.16"/><path d="m39.33 393.86v-6.61h3.7v1.07h-2.22v1.52c.68.04 1.34.09 2.07.13v1.07c-.72.05-1.38.09-2.1.14v1.48h2.4v1.19h-3.85z"/><path d="m27.71 388.56c-1.15-.3-2.46-.61-3.1.64-.37.73-.41 1.93-.06 2.67.63 1.35 1.99.93 3.17.68.35.94-.01 1.32-.93 1.46-1.62.25-3.05-.27-3.76-1.48-.73-1.24-.6-3.03.31-4.17.88-1.11 2.71-1.7 4-1.16.32.13.44.74.65 1.12-.1.08-.19.16-.28.24"/><path d="m49.15 387.24v1.07c-.59.02-1.17.05-1.87.08v5.44h-1.48v-5.44h-1.85c-.05-.4-.08-.73-.13-1.15z"/><path d="m20.06 387.21h1.33v6.62h-1.33z"/><path d="m30.68 393.25c-.49.38-.8.79-1.05.76-.32-.05-.6-.45-.9-.7.26-.24.51-.64.8-.67.29-.04.62.3 1.15.61"/></g><path d="m257.48 219.85c7.24 7.99 9.68 17.5 8.16 27.76-1.24 8.36-3.23 16.67-5.65 24.78-2.39 8.04-9.16 11.71-16.83 13.04-7.08 1.23-14.15-.8-19.78-4.85-5.48-3.95-8.39-10.32-9.96-17.05-1.27-5.43-.51-10.69 1.34-15.82 2.74-7.56 5.2-15.27 8.56-22.56 4.31-9.36 5.14-19.38 6.84-29.26.49-2.84.89-5.7 1.39-9-10.09 2.96-19.79 5.81-29.66 8.7 0 9-.45 17.86.09 26.66 1.24 20.08-3.21 39.07-9.83 57.77-4.92 13.9-9.43 27.94-14.51 41.78-1.59 4.34-4.16 8.41-6.8 12.25-2.37 3.45-6.04 5.06-10.3 3.83-.94-.27-2.26-1.82-2.16-2.62.46-3.73.72-7.68 2.21-11.04 4.26-9.6 9.36-18.82 13.61-28.42 6.6-14.92 9.84-30.84 12.79-46.8.46-2.49.1-5.13.04-7.71-.3-13.09-.62-26.17-.95-39.87-3.04.38-5.86.72-8.68 1.1-1.11.15-2.2.38-3.31.54-2.28.34-4.6.62-5.68-2.12-1.13-2.86.03-6.31 2.51-7.8 3.64-2.19 7.22-4.5 10.97-6.49 2.17-1.15 2.86-2.67 2.32-4.88-1.13-4.66-2.31-9.32-3.51-13.96-.67-2.59-1.6-5.13-2.1-7.76-.57-3.01.13-5.82 2.51-7.95 3.92-3.52 7.39-3.19 9.33 1.57 2.65 6.48 4.57 13.26 6.73 19.94.68 2.11 1.11 4.3 1.72 6.72 1.16-.2 2.13-.29 3.06-.53 9.19-2.4 18.37-4.88 27.58-7.19 2.23-.56 3.63-1.63 4.03-3.85.55-3.07 1.43-6.16 1.41-9.23-.07-13.7-1.82-27.21-5.59-40.41-.89-3.09-2.45-5.99-3.67-8.99-1.79-4.41-1.4-8.7.69-13.05 6.35 1.25 11.01 4.95 13.11 10.56 2.84 7.58 5.29 15.47 6.54 23.44 1.51 9.68 1.61 19.59 2.3 29.4.19 2.79.29 5.58.45 8.77 3.76-.24 7.38-.52 11.02-.7 8.62-.42 16.6 1.79 24.03 6.08 6.31 3.64 8.81 9.81 10.73 16.38 3.25 11.12 2.05 22.24-.4 33.2-4 17.9-5.9 35.99-5.39 54.29.32 11.69 2.5 23.09 7.31 33.89 4.64 10.41 9.4 20.78 13.68 31.34 1.74 4.29 2.38 9.04 3.44 13.6.42 1.81-.33 2.79-2.29 3.24-6.59 1.54-6.79 1.5-11.09-4.56-9.55-13.45-15.14-28.59-18.9-44.47-4.65-19.68-7.95-39.58-5.62-59.85 1.04-9.05 3.63-17.94 5.64-26.87 1.9-8.45 3.39-16.89 1.61-25.57-2.39-11.7-8.85-16.87-20.69-16.42-3.8.15-7.6.4-11.4.44-1.92.02-2.62.72-3.03 2.63-2.72 12.79-5.15 25.68-8.63 38.27-1.84 6.68-5.48 12.88-8.49 19.21-3.16 6.66-4.87 13.46-2.72 20.77 1.27 4.32 11.78 8.38 15.51 5.91.95-.63 1.61-1.83 2.19-2.89 3.51-6.47 4.45-13.51 4.54-20.75.07-5.47-.01-10.97.54-16.4.49-4.42 2.16-8.48 7.09-10.17z" fill="#010105"/><path d="m164.29 75.15c-8.02 4.88-16.7 5.75-25.66 5.51-11.86-.32-23.71-.52-35.57-.76-1.2-.02-2.41 0-3.81 0v26.62c.86.08 1.72.22 2.58.25 7.83.24 15.68.16 23.48.76 17.52 1.33 25.65 10.06 26.76 26.05.79 11.43-.27 22.99-.56 34.49-.44 17.56-1.14 35.11-1.34 52.67-.57 49.69-.94 99.38-1.39 149.07-.03 2.78-2.14 5.28-4.69 5.59-3.35.41-6.18-1.33-6.52-4.42-.51-4.66-.8-9.34-.97-14.02-.41-10.94-.88-21.88-1-32.83-.37-34.69-.59-69.39-.87-104.08-.01-.78 0-1.55 0-2.81-1.78-.29-3.52-.92-5.19-.77-8.9.82-17.79 1.75-26.65 2.87-1.13.14-2.73 1.47-3.02 2.55-1.55 5.78-3.75 11.63-3.9 17.51-.72 27.63-.83 55.28-1.18 82.92-.09 7.26-.02 14.54-.4 21.79-.28 5.56-3.23 8.44-7.8 8.01-1.12-.1-2.61-1.16-3.1-2.18-3.25-6.79-2.98-14.11-2.82-21.4.59-26.74.95-53.48 1.84-80.21.3-9.02 1.37-18.09 3.08-26.95 2.22-11.49 6.22-14.26 19.48-16.92 4.06-.82 8.45.06 12.69.06 4.12 0 8.25-.07 12.37-.25 3.52-.15 5.66-2.1 5.96-5.59.5-5.78.85-11.58 1.11-17.38.16-3.56.03-7.14.03-11.15-5.93.27-11.91.45-17.87.83-7.04.45-13.79-.41-20.31-3.28-5.56-2.45-9.24-6.68-10.44-12.33-1.46-6.85-2.32-13.9-2.62-20.9-.98-22.81-1.48-45.63-2.42-68.44-.24-5.78-1.36-11.53-2.24-17.27-.69-4.51-.78-8.88 1.2-13.14.75-1.61 1.59-2 3.38-1.53 3.5.93 6.17 2.8 7.43 6.16 2.61 6.93 4.56 14.02 3.88 21.56-.35 3.94.35 4.77 4.45 4.63 11.51-.39 23.02-1.09 34.54-1.29 6.35-.11 12.75.19 19.05.93 7.4.87 7.44 1.24 9.03 9.07zm-63.72 45.65c0 7.56-.41 14.61.1 21.6.7 9.66 3.06 11.91 12.55 13.84 1.64.33 3.3.65 4.97.8 6.43.6 12.87 1.1 19.33-.77.18-3 .49-5.79.47-8.57-.03-4.25-.09-8.51-.49-12.74-.81-8.64-3.62-11.44-12.2-12.22-8.23-.75-16.48-1.3-24.73-1.94z" fill="#010105"/><path d="m234.92 24.94c7.96 1.99 11.21 6.96 10.44 15.42-.64 7.01-1.37 14.02-1.82 21.05-.39 6.02-.24 6.03 5.45 7.44 6.72 1.66 13.57 2.95 20.14 5.1 5.24 1.72 10.5 3.93 15.12 6.9 10.17 6.56 13.04 16.88 12.68 28.29-.13 4.1-1.03 8.19-1.72 12.26-1.82 10.83-10.01 15.16-19.23 17.62-4.95 1.32-10.37.93-15.58 1.19-2.74.13-4.29-1.28-4.51-4.11-.09-1.1-.41-2.17-.79-4.1 6.82-3.4 13.67-7.12 20.77-10.28 7.74-3.44 9.75-6.42 8.11-14.83-.7-3.59-1.76-7.21-3.38-10.46-.95-1.9-3.15-3.39-5.09-4.56-9.73-5.89-20.53-8-31.72-8.5-14.07-.62-27.99.2-41.26 5.43-3.73 1.47-7.84 2.48-9.97 6.73-3.06 6.1-5.37 12.21-4.51 19.25.56 4.63 2.74 7.71 7.15 8.95 5.24 1.48 10.53 2.84 15.86 3.97 4.9 1.03 9.29 2.5 11.28 7.73.64 1.68.34 2.6-1.3 3.47-4.78 2.56-9.81 3.69-15.2 3.12-1.55-.16-3.11-.39-4.63-.75-5.7-1.35-11.58-2-15.87-6.97-5.79-6.71-11.2-13.68-11.93-22.77-.83-10.27 2.47-19.64 9.88-26.81 9.07-8.78 20.48-12.94 32.99-14.1 3.9-.36 7.79-.88 11.69-1.04 2.46-.1 3.39-1.39 3.48-3.49.18-3.79.39-7.6.24-11.39-.37-9.5-1.2-19.02 2.5-28.14.19-.48.43-.97.73-1.62z" fill="#010105"/></svg>